<?xml version="1.0" encoding="utf-8"?><!DOCTYPE svg  PUBLIC '-//W3C//DTD SVG 1.1//EN'  'http://www.w3.org/Graphics/SVG/1.1/DTD/svg11.dtd'><svg enable_background="new 0 0 1000 743" height="743px" pretty_print="False" style="stroke-linejoin: round; stroke:#000; fill: none;" version="1.1" viewBox="0 0 1000 743" width="1000px" xmlns="http://www.w3.org/2000/svg" xmlns:xlink="http://www.w3.org/1999/xlink"><defs><style type="text/css"><![CDATA[path { fill-rule: evenodd; }]]></style></defs><metadata><views><view h="743.187721646" padding="0" w="1000"><proj flip="auto" id="robinson" lon0="1.56296454829"/><bbox h="3.58" w="4.83" x="18.94" y="-715.26"/></view></views></metadata><g class="" fill="black" id="country"><path d="M287.372333,741.187722L310.122990,738.409296L342.291743,722.520403L359.736883,703.419507L371.703761,684.145529L387.153148,668.344754L562.800089,647.943215L651.881294,614.347134L681.442118,523.724127L691.445547,513.221658L699.772231,509.489415L707.572958,512.266897L714.856720,522.682555L748.075226,533.445565L781.783846,533.098365L812.799641,520.165421L839.084646,492.217196L848.499393,408.379177L878.762108,338.608443L929.386387,294.527884L999.326316,288.714304L988.107013,274.361209L964.398691,244.029362L899.456082,226.156128L854.327784,200.821978L877.968013,132.632162L561.027586,104.872123L530.412267,92.120183L378.589552,0.000000L336.004135,2.775592L254.443112,30.618811L166.321268,26.542019L124.325018,158.831606L62.853289,181.214618L50.605672,201.429296L35.280365,235.352981L32.034435,267.022251L55.456353,281.078629L55.254514,294.007261L9.640562,365.162184L0.673684,403.345737L63.422828,395.882431L112.656354,434.761913L122.522417,487.877512L67.729166,523.203341L51.906433,526.848860L4.779322,546.031555L85.917898,657.840053L86.199491,699.946676L118.333714,721.131227L287.372333,741.187722Z "/></g></svg>