<?xml version="1.0" encoding="utf-8"?><!DOCTYPE svg  PUBLIC '-//W3C//DTD SVG 1.1//EN'  'http://www.w3.org/Graphics/SVG/1.1/DTD/svg11.dtd'><svg enable_background="new 0 0 1000 848" height="848px" pretty_print="False" style="stroke-linejoin: round; stroke:#000; fill: none;" version="1.1" viewBox="0 0 1000 848" width="1000px" xmlns="http://www.w3.org/2000/svg" xmlns:xlink="http://www.w3.org/1999/xlink"><defs><style type="text/css"><![CDATA[path { fill-rule: evenodd; }]]></style></defs><metadata><views><view h="848.954252523" padding="0" w="1000"><proj flip="auto" id="robinson" lon0="55.1356385962"/><bbox h="57.95" w="68.34" x="744.34" y="-437.26"/></view></views></metadata><g class="" fill="#000" id="country"><path d="M486.523284,451.396176L485.438100,450.288711L482.912879,446.527303L482.911919,446.517326L483.665674,445.250213L483.854073,444.531849L482.428710,441.498745L480.878592,444.122780L478.699830,445.569486L473.131284,448.193501L468.503420,452.573479L467.123204,453.221992L466.017490,452.972564L465.543340,452.862816L462.317628,451.456039L460.337200,451.396176L457.930561,452.264188L457.050113,452.573479L455.671800,453.601122L454.566247,454.429222L450.913532,458.250433L448.812709,459.447674L443.821881,461.492954L443.823785,461.512908L443.533716,461.712447L441.295147,463.268848L438.349690,466.780712L438.616000,468.676310L441.090498,469.594176L444.831303,470.102993L450.623510,470.512041L452.790930,471.270276L452.826228,471.280252L456.674194,473.455182L463.239294,476.208750L470.325433,477.036813L477.075721,475.600173L482.433324,471.629439L480.707602,470.102993L482.459674,465.433835L485.059520,466.222008L486.990462,469.354733L486.761205,471.629439L493.269818,474.323156L500.858052,474.652388L507.083931,472.228044L509.466746,466.621082L506.635023,459.657191L502.093170,457.781513L500.483490,457.113052L493.101781,455.526701L492.262062,455.007893L486.523284,451.396176Z M556.935323,446.886484L556.951528,446.876506L554.140267,440.900103L551.212285,437.797134L545.223069,431.461431L543.311858,429.815132L542.130331,428.787440L537.746266,430.842822L535.355891,435.931353L535.357826,435.951308L538.293450,442.326864L543.111009,445.090577L548.590231,446.706893L553.330821,448.851996L555.848177,453.221992L556.935323,446.886484Z M566.555649,439.503271L568.455894,438.385802L570.200655,436.729549L571.493414,434.664214L566.224687,428.867261L563.790686,425.385065L561.534413,421.264268L558.486145,421.164491L555.583235,422.202177L553.257869,424.058033L551.930639,426.293032L551.222093,430.124437L552.148016,431.700892L554.198364,432.658735L557.071650,434.664214L561.116266,439.183994L562.477600,439.942276L564.800332,439.992163L566.555649,439.503271Z M221.072859,443.164959L224.633363,439.403497L228.583499,433.047859L228.666013,429.275706L226.910598,422.944403L224.239248,419.050229L219.155928,417.422816L214.405022,420.545869L212.111342,424.606806L209.083534,428.806442L209.092744,433.677885L212.181993,439.518437L214.876199,443.654546L217.935021,446.815551L221.072859,443.164959Z M583.078961,419.687780L580.870748,417.472705L576.132007,414.309721L573.454030,414.658947L574.346321,416.933902L577.694673,419.398424L578.406229,420.705514L578.240861,421.823022L577.249848,421.344090L575.072333,419.967158L572.673261,419.308624L571.206122,419.578024L571.905115,421.284224L578.717493,431.980263L582.025566,430.164348L583.578664,423.040306L583.078961,419.687780Z M392.444198,428.329129L394.851853,425.265333L395.331781,415.806404L395.277397,415.776470L390.106091,412.882879L389.669075,411.555812L388.490928,409.131162L388.165261,407.714283L384.710196,410.508126L377.992486,422.930551L377.993444,422.940529L379.512823,425.355132L380.023064,427.989231L379.815868,430.663226L378.042464,431.663676L375.860859,430.437356L373.432444,426.533927L371.591995,426.525386L367.861452,428.455110L361.192249,431.421521L360.143095,432.299544L359.162571,433.357162L353.982128,435.921376L351.905538,436.470136L343.834609,434.654237L343.243100,435.292795L342.630357,436.789414L342.147157,438.565395L342.179072,439.982185L342.817640,441.279243L343.368971,441.299198L344.097844,441.019832L348.461881,440.058297L351.497563,440.555647L359.663485,441.803206L361.397486,438.160253L365.510370,440.366951L368.522715,440.622913L371.868649,444.529580L373.374154,440.887008L373.128561,438.210094L375.893786,435.789423L380.885286,435.082599L384.547817,432.424833L392.444198,428.329129Z M610.137448,404.720862L609.689202,401.917008L605.422430,397.815966L597.174033,393.545258L593.137948,390.392093L591.170981,385.951682L591.169993,385.941704L592.100068,380.782792L592.099077,380.772813L590.657567,380.772813L588.152612,385.452757L580.445445,393.944391L580.446430,393.954369L580.827338,397.815966L591.232847,401.168645L601.670494,404.670972L607.321789,405.758584L610.137448,404.720862Z M156.570182,391.083590L158.826601,385.956823L156.860990,380.105062L151.718900,376.651629L149.518238,378.166884L148.196745,381.098280L146.620515,383.786419L147.117921,387.069273L148.582849,388.396408L149.673334,389.035028L150.914095,390.531791L154.156826,392.308591L156.570182,391.083590Z M970.943570,201.030954L971.629410,196.995161L968.322550,194.698073L966.486417,194.726004L965.468258,196.000167L966.909970,202.565083L970.943570,201.030954Z M785.424164,846.954253L788.564364,846.346400L800.887751,826.704983L799.969096,790.954295L795.414369,755.195846L795.412078,755.170517L795.498240,747.913526L799.934438,724.343686L816.601728,686.638041L819.890591,671.641370L822.030120,647.195096L823.625799,639.025031L826.985946,632.691579L827.027252,632.666245L834.044906,623.438295L836.525389,618.700765L840.612834,588.279662L842.140100,584.137260L850.521792,568.568164L851.105136,565.312411L848.643462,546.721334L847.003174,539.664803L843.101494,534.286832L834.968804,529.390236L831.102361,525.963227L828.820263,521.547993L829.324428,517.968903L838.224305,516.144509L846.838550,512.508371L850.706766,510.107493L856.549941,506.483986L862.067378,504.000728L867.971896,502.803440L874.993062,502.987151L881.986212,504.222448L885.228282,504.133760L888.560783,502.740091L892.288039,502.036920L898.231904,506.591678L902.209287,507.104798L925.745927,496.398850L938.753063,492.908285L940.702749,489.012255L931.388171,474.017023L927.869548,463.620835L923.656710,454.820973L917.050750,451.995356L905.739315,457.101730L902.163746,456.892661L888.640621,453.800965L885.978014,452.464181L885.281540,448.751577L886.533362,444.462409L893.180176,428.939999L894.174788,425.379279L893.721386,413.499467L893.034247,411.440269L891.224342,409.273350L886.688401,406.232045L885.162885,404.508629L884.110724,400.782990L883.244825,387.502240L883.243539,387.489568L879.555548,377.154906L878.745231,371.984321L880.533546,368.581587L883.148122,365.166155L883.613143,356.941133L888.925882,351.174656L887.740334,346.428346L883.819950,338.941981L882.450340,336.327219L881.549009,331.821561L881.517431,322.683360L881.038466,318.069826L877.310027,299.222266L878.716146,291.642446L884.193560,283.042100L889.573246,277.232778L890.391220,276.349299L897.206900,271.405683L905.069758,269.168360L913.736045,270.545625L914.282353,270.632445L920.413379,274.454253L923.574994,281.704816L926.458413,292.511357L927.857052,297.758281L922.396966,293.879648L919.519513,292.402969L916.499604,291.642446L912.922710,292.833932L912.571759,295.920371L914.455452,299.551820L923.110542,307.118823L931.081467,324.007841L938.100620,329.495837L941.125115,329.937564L941.485065,329.990134L945.931788,329.806357L949.836579,328.602300L951.469026,326.080106L952.315972,321.878530L956.234738,316.022872L958.717677,306.877999L958.755827,306.858618L961.736485,305.344329L969.511503,304.304978L973.095738,302.353021L979.290677,295.114561L980.347273,293.879648L985.777056,289.417908L986.630586,286.990549L986.595059,285.300009L986.502029,280.897031L986.331089,272.895112L987.279203,271.569436L988.112441,270.404276L999.410346,269.048235L992.842997,249.653421L992.604846,246.958364L989.654326,212.380372L990.443743,201.699032L990.311011,194.371709L990.674825,189.559980L990.578211,186.804699L990.230780,184.887973L989.977798,183.520306L989.065943,181.613553L987.945995,179.996302L986.680131,177.520502L984.193746,173.607120L983.740661,171.360908L985.030888,168.306046L985.120364,166.479113L983.689694,159.890129L983.158675,157.414251L981.938290,134.731626L975.465777,118.198463L973.472127,115.383002L969.855841,114.584288L964.798428,112.537581L960.019806,109.772024L960.017598,109.767553L951.581368,112.434349L948.286796,113.106368L944.874085,112.142718L943.189547,110.304171L940.547485,105.359099L938.472392,103.723416L933.432123,102.785116L932.555042,102.280060L932.177005,102.062371L930.650713,99.120667L928.415304,88.152610L928.113845,83.942878L930.084741,81.381529L932.550471,79.162535L933.686716,75.954497L932.362181,72.898612L926.686239,65.975300L925.275921,61.790866L925.879976,58.126309L929.256332,52.103234L930.265869,48.578142L928.609012,26.565238L929.158656,19.274070L929.096280,14.785243L927.451081,9.763840L923.053200,0.304328L920.628918,0.000000L910.305031,2.929152L905.483494,3.372439L904.860788,5.515735L902.898029,21.111513L899.541141,31.495368L895.160912,41.200253L897.027834,40.321622L898.485168,38.853910L899.514595,36.936896L900.006576,34.660441L901.443513,34.660441L901.088929,39.183396L900.205439,42.677949L898.940533,45.533494L897.383316,48.079519L889.543671,56.915704L888.449505,59.032389L888.494892,63.655141L887.329913,70.594238L887.300292,74.268453L886.583940,75.047226L885.012397,74.617902L883.990976,73.150214L885.663993,68.876939L886.428829,63.844843L887.425468,61.618336L882.280378,66.800203L872.579747,82.136035L865.807169,88.575837L859.777605,90.363001L858.901152,90.942082L858.059888,92.599449L855.845434,93.917353L853.274736,94.805940L851.409445,95.115447L849.304101,96.952522L844.812310,105.019641L837.901415,107.984891L834.834268,110.730485L829.955731,117.060299L828.502600,120.634528L826.289225,130.199015L825.183276,132.125877L820.822751,132.954526L816.398774,134.452083L812.355659,135.210844L808.930374,133.803142L807.327730,130.598365L808.329961,127.573285L810.277940,124.278630L811.632320,120.265125L808.201366,121.752720L805.404013,125.726283L803.627156,130.578398L803.159385,134.731626L802.157902,138.864867L799.879372,142.758479L798.871726,145.753551L801.651343,147.211149L799.573190,149.347623L798.003662,153.321048L796.137105,162.435880L794.515863,160.758680L793.900861,163.763660L792.867386,165.600585L791.631789,165.420886L790.382359,162.435880L789.080691,162.435880L783.467168,172.259394L779.635251,176.102902L777.301679,174.166176L775.056019,175.733527L774.036762,178.189368L774.200620,181.134368L775.508777,184.209131L772.303098,184.029438L770.541216,184.848041L764.986791,192.135558L764.051254,194.271881L764.826623,196.228506L769.948604,204.534101L772.152873,209.924682L771.486682,214.277035L765.847823,216.193656L768.125345,211.681599L768.652664,208.437286L767.232730,205.093126L763.566072,200.291475L760.150219,199.752409L756.554498,203.615700L757.086488,206.989816L756.423686,210.892984L738.000611,239.971103L724.341261,259.575076L723.276429,258.736635L716.479408,260.293738L718.135803,265.325241L712.662337,268.898517L711.830103,269.467444L711.397353,269.756897L711.045124,269.996445L710.404036,270.425634L709.443939,271.084389L708.932199,271.274030L708.122240,271.563482L707.229667,271.882878L706.800521,272.042575L701.776354,273.849150L697.869552,276.843456L692.123615,283.111466L682.634847,291.016210L661.171823,305.268327L664.432164,309.140668L663.702488,312.404186L660.893070,314.619772L657.859018,315.308397L657.483415,314.989035L650.675536,311.805378L649.615546,313.182637L648.838747,315.488039L647.977481,317.134747L640.330583,323.062844L638.624448,325.348234L638.423956,329.290253L640.251705,331.076625L641.883513,332.114513L640.931254,333.890894L642.228117,337.044451L643.158401,340.138108L644.287296,342.652936L646.266961,344.079995L646.421026,345.606843L642.716851,347.492942L641.848544,350.965739L641.568215,354.318758L639.521562,355.805654L636.000748,356.623944L635.406840,358.569872L637.238895,360.755288L640.899227,362.351932L634.676461,379.236105L633.671893,380.004460L632.191582,383.407159L631.573334,384.265313L629.758492,384.135592L625.073118,382.578938L622.640503,382.449217L626.055793,385.213273L627.415296,385.941704L622.464243,386.720026L616.871102,382.588917L612.127777,375.963099L609.788999,369.197482L608.347634,369.197482L605.999264,373.009390L605.498131,375.214695L606.314604,377.729327L604.449971,376.062886L603.526657,374.027224L603.011294,372.470536L601.113393,375.124886L598.703828,376.950990L596.241459,377.729327L596.391147,379.236105L601.439162,380.473455L614.670752,389.294467L620.440785,390.541769L626.048223,390.841121L630.214644,392.876709L631.507389,399.342635L630.185793,399.342635L627.916919,396.708380L624.753922,395.271507L621.283260,394.193849L617.988292,392.637228L618.998641,395.560877L623.018530,399.761720L624.662049,402.844976L621.528567,402.226330L616.092706,399.671916L612.781919,399.342635L612.962285,401.168645L613.916723,401.448034L616.011342,402.844976L612.795958,404.700906L612.409838,407.574591L614.199325,413.721024L607.574433,431.421521L604.200345,437.308241L596.998724,443.753620L595.670553,446.517326L586.740939,442.795798L582.719011,442.576297L581.314720,445.619372L579.443668,445.978554L569.078531,454.728534L555.617825,459.018663L553.697840,460.834474L552.577454,464.535916L549.481684,468.416913L545.946133,471.659369L543.404886,473.455182L541.258255,474.173506L534.909564,475.131269L529.614199,477.944688L525.268877,478.842585L521.300169,481.167132L508.194545,483.501645L495.953544,490.964038L493.848829,493.039123L488.607307,493.737467L462.910236,493.557893L460.811390,492.979265L458.611747,492.061440L456.546148,491.652408L454.904705,492.640069L453.580886,493.717514L447.384440,497.039625L445.641465,496.590692L443.529968,495.513253L441.312857,494.954579L437.891954,496.929886L435.614347,497.368842L433.195094,497.398771L431.409102,497.039625L429.813561,495.603039L426.678831,491.143613L425.714278,490.205832L423.718672,489.627200L421.323240,488.270405L417.201715,485.187676L414.903331,486.494596L411.797970,486.714078L408.721493,485.965843L406.352247,484.339673L403.140647,480.887788L401.160299,479.560901L399.305370,479.560901L372.861245,485.457042L361.112065,484.718781L359.270621,483.401880L355.873778,478.333777L352.069628,474.233366L346.590174,469.853573L340.790751,467.179786L336.068521,468.277238L336.982101,471.409950L337.329205,474.183482L338.373312,476.518027L341.446696,478.333777L337.954943,479.191766L333.771760,476.897140L329.277647,475.131269L321.213167,479.052094L317.146153,477.076720L310.451576,471.629439L309.988753,471.090694L309.311035,470.093016L308.403469,469.025499L307.251141,468.277238L305.966871,468.317145L305.757197,469.374687L305.590915,470.711576L304.681068,471.629439L297.481509,474.702271L295.495138,475.131269L277.373516,473.455182L275.800143,472.976299L274.273043,472.257974L272.397440,471.669346L269.954975,471.629439L267.753377,472.327811L263.435905,474.642411L260.802374,475.131269L256.154281,474.462830L247.265693,471.789067L242.476365,471.629439L240.703559,472.507393L240.133951,473.764461L239.335751,474.412947L236.876294,473.455182L228.250643,462.380902L224.619718,458.998709L220.655766,457.562019L216.767894,460.056270L216.457368,462.979518L216.810788,467.499045L216.545287,471.649392L214.412187,473.455182L211.627658,474.353087L208.128635,476.617794L204.709515,479.560901L202.207683,482.583804L199.328648,485.247535L193.176315,488.180617L192.248556,490.964038L191.063456,493.567869L187.889788,496.032020L184.003279,497.847703L180.582348,498.565993L177.673581,499.623475L175.084025,502.097574L172.767688,504.930802L170.544266,507.095619L167.826447,507.993466L161.094887,508.023394L157.591797,508.602006L150.039338,513.929198L146.660399,515.305880L142.866398,515.525351L139.026839,515.246025L135.421812,515.465495L132.293247,517.141451L130.058105,515.804677L128.083987,517.141451L124.258486,516.074027L115.499888,517.809836L113.755625,517.899619L106.904659,514.547708L104.036199,511.914049L102.517825,511.465129L101.098435,511.914049L88.970051,511.165849L84.499922,511.884122L85.154420,514.547708L86.550991,516.493016L86.065613,517.580390L84.450626,517.580390L82.418565,516.203714L78.452743,512.452753L76.457766,511.295537L73.905888,510.437599L63.626051,510.178222L58.464679,508.771599L55.905739,504.431996L55.256680,502.017764L52.827033,497.029649L52.140368,494.395905L51.626726,486.135443L51.145419,483.501645L47.457471,471.370043L46.627707,465.703211L47.343739,449.999373L46.269003,444.691486L41.260829,437.707338L37.606797,440.890126L34.525714,451.396176L35.414973,451.914988L35.266000,453.092289L34.238471,454.239657L32.497678,454.728534L30.556063,454.528992L29.504948,453.930367L27.863287,451.396176L25.064808,443.773575L23.361141,440.760420L22.342114,451.855125L19.658673,455.347113L16.466300,453.311786L14.298038,444.691486L12.989371,430.543495L11.667665,425.734283L6.501918,418.729911L4.294197,414.559169L0.589654,419.578024L5.130802,428.368380L5.927537,439.203949L2.067895,446.128213L4.241978,455.555885L4.756985,461.878614L5.758769,477.596405L7.474161,483.969546L11.161979,489.734448L24.690036,506.338284L37.061939,521.541658L49.452778,536.750950L61.818975,551.966168L74.201416,567.155651L86.581761,582.357413L98.957823,597.546126L111.311214,612.759803L123.682305,627.960450L136.027506,643.148076L148.393360,658.354358L160.735135,673.566636L173.094939,688.765921L185.418234,703.952222L197.773404,719.157213L210.115167,734.361903L222.465457,749.566301L235.152144,765.150358L239.723081,769.114400L245.083728,770.944438L279.498738,775.788639L309.267887,779.980592L339.038572,784.172525L368.832111,788.358105L398.605317,792.543666L428.380603,796.735540L458.179290,800.927394L487.957089,805.112897L517.736970,809.304713L547.562674,813.502843L577.346170,817.700953L607.129532,821.880050L636.937402,826.071792L666.704166,830.276179L696.492105,834.455221L726.303440,838.634246L756.118535,842.838580L785.424164,846.954253Z M964.209813,182.483553L970.633246,183.350196L975.270323,189.781823L983.835322,191.573619L983.573600,198.319562L978.042029,201.551395L973.342354,203.393455L971.183742,205.585769L965.474347,210.314599L962.186348,211.899319L958.748153,210.897777L956.002775,209.529502L955.426536,207.134851L955.239678,201.056074L960.548099,198.086985L962.321706,195.508074L960.835947,193.481780L959.890540,191.018679L959.024721,187.034429L964.209813,182.483553Z "/></g></svg>