<?xml version="1.0" encoding="utf-8"?><!DOCTYPE svg  PUBLIC '-//W3C//DTD SVG 1.1//EN'  'http://www.w3.org/Graphics/SVG/1.1/DTD/svg11.dtd'><svg enable_background="new 0 0 1000 815" height="815px" pretty_print="False" style="stroke-linejoin: round; stroke:#000; fill: none;" version="1.1" viewBox="0 0 1000 815" width="1000px" xmlns="http://www.w3.org/2000/svg" xmlns:xlink="http://www.w3.org/1999/xlink"><defs><style type="text/css"><![CDATA[path { fill-rule: evenodd; }]]></style></defs><metadata><views><view h="815.334994813" padding="0" w="1000"><proj flip="auto" id="robinson" lon0="65.1786390209"/><bbox h="153.34" w="188.3" x="847.62" y="-646.13"/></view></views></metadata><g class="" fill="black" id="country"><path d="M347.695382,813.334995L349.613803,812.474889L351.439417,806.956834L352.780116,804.663573L355.200749,803.271620L374.536774,797.025562L376.184259,797.040094L390.133380,797.163131L400.451572,797.245673L413.411049,799.582121L417.191185,799.705940L427.585829,796.427143L431.748104,795.120277L435.908595,793.806572L440.076680,792.495200L444.221143,791.186159L448.380215,789.874865L452.530878,788.563612L456.687942,787.247813L460.841294,785.936640L465.005342,784.623214L469.157879,783.314413L473.312506,781.998777L477.467728,780.690058L481.605934,779.376796L485.768143,778.070450L489.920326,776.754979L494.072706,775.444132L500.159244,773.519188L505.380111,769.101326L506.901784,766.393102L507.972856,763.657569L508.377570,763.391816L508.969787,763.171883L509.178351,762.768676L508.411573,761.925620L505.760181,760.092952L502.079427,756.868378L499.086571,754.980970L498.424477,753.789932L498.354833,752.383635L498.852963,749.026118L501.889905,738.923008L501.912063,737.224099L500.763454,731.862137L500.035463,720.160066L499.518718,718.347263L498.760323,716.534508L497.974894,715.399270L495.711593,713.005258L493.781236,709.489901L493.295498,705.631418L495.355261,677.161398L495.807070,675.935017L496.949002,675.234883L506.715139,673.134489L508.263839,672.370296L513.920621,665.002966L514.968644,662.971234L515.597185,652.990955L517.174637,651.709654L519.970602,651.311534L521.616659,649.805995L522.973949,647.774188L524.834984,645.801851L529.409084,643.275766L532.056449,642.461187L536.453282,642.360509L537.675314,642.955427L538.446005,644.181866L538.985268,646.154219L538.935738,646.877258L538.626305,647.421823L538.427612,647.957234L538.670249,648.666538L539.331558,649.133304L540.322775,649.439905L542.107708,649.755657L543.634784,649.783114L546.376705,649.050933L547.857873,648.982291L549.445341,649.439905L552.486127,650.982055L554.138963,651.535762L555.409777,651.682197L559.270159,651.490002L564.166776,651.933882L565.498033,651.673045L570.265399,649.426176L574.610575,648.817550L577.144746,647.604869L581.009433,646.845224L582.296667,646.323539L586.474609,643.211699L587.272438,642.296441L588.161954,641.532196L589.309249,641.170666L592.366524,641.285075L593.409569,640.749643L593.858568,639.092996L592.771497,635.381484L589.886763,634.489057L583.809879,635.326565L582.243693,634.900947L580.558911,633.953598L579.212061,632.635534L578.084065,629.170964L576.802748,627.637729L575.435307,626.296701L574.626003,624.973961L575.280806,623.408619L577.635478,623.353694L582.727733,624.447606L584.995648,624.209601L587.089163,623.271306L588.479635,622.121435L590.597675,620.369392L594.164275,615.114556L596.054134,614.080024L597.069289,614.038826L599.424981,614.418766L602.431178,614.253973L603.156071,613.809945L603.758243,612.601442L604.807898,611.576028L608.300576,609.364929L608.601357,608.742328L608.471511,606.869913L608.678786,606.073318L610.689402,603.770461L610.916797,603.099590L611.206071,602.245857L612.030577,598.459353L612.754197,597.291757L614.273719,597.181865L616.333933,597.864111L618.174342,598.779865L620.403523,600.350347L621.416499,601.522457L622.536063,602.456465L624.229183,602.703700L627.168485,602.561769L630.181124,602.799847L638.624502,605.638392L641.497120,606.100787L642.699007,605.684173L644.123352,604.704433L644.870344,603.596484L644.018272,602.799847L642.528025,602.598396L638.062404,602.703700L636.369295,602.438151L634.949017,601.856687L634.511371,600.982191L635.733119,599.828384L638.624858,598.088472L640.269092,597.470332L641.940940,597.442859L644.661213,598.431880L649.551851,600.940984L653.934212,601.719333L654.982281,602.259592L655.699895,603.344675L656.655064,606.924850L657.485829,608.225016L659.880222,610.504821L664.363681,615.549421L666.644587,616.968438L669.551470,616.620552L673.811209,614.157843L676.193161,613.329293L678.953659,613.521554L680.787950,612.670107L683.095223,610.719980L685.010902,608.527163L685.669869,606.938584L686.667754,606.210663L687.487464,604.992863L693.059827,592.218142L694.636040,589.992552L697.662443,587.276828L697.769230,586.958510L697.937425,586.457043L697.500944,585.307487L693.735027,578.565278L690.514093,570.172652L690.174763,568.257492L689.960984,564.509360L689.207309,560.758552L688.930725,556.966095L688.608803,555.036478L687.940374,553.170923L684.954469,548.210869L683.357342,544.394030L682.941870,540.723455L683.626419,537.361992L685.289231,534.500083L686.588408,533.525409L689.454793,532.436027L690.540536,531.332841L693.207679,525.384957L693.737921,523.643694L693.735661,522.553912L692.354762,519.614711L691.880582,518.056637L691.542805,517.384271L690.941895,516.996448L690.243112,516.727952L689.496194,516.289631L688.833988,515.706721L688.297643,515.009046L687.792069,513.271660L688.345002,512.075843L690.465799,510.168382L691.741308,507.604201L693.356606,506.132597L693.704252,505.723930L693.886005,503.143187L690.395522,493.506409L690.783476,491.989805L691.170297,490.476238L692.595579,487.958041L694.727126,486.328864L697.643325,485.926720L699.187216,485.968083L701.500680,485.508482L702.256542,485.719900L702.963629,486.025533L703.662322,486.151921L704.950136,485.816416L707.899024,483.279268L710.691688,482.792026L716.230625,485.292466L719.330699,485.062658L724.165442,481.642824L724.872303,481.491125L727.075865,481.675003L727.894270,481.277364L728.288964,480.479765L729.739466,475.737185L730.540014,475.383112L732.454164,475.985491L734.102168,476.116541L735.369832,475.295742L745.650055,464.622169L745.529332,461.698009L743.728453,458.929863L738.809363,454.499482L738.278011,453.845763L737.406922,452.413943L736.773208,451.939713L734.541789,451.260574L733.867860,450.864590L732.531833,449.506203L731.518902,447.905931L730.864982,446.190366L730.610695,444.506872L730.871151,438.879413L730.431176,436.718218L730.010833,436.132942L729.345652,435.725079L727.980959,435.132853L727.175067,434.561346L726.748601,434.102744L725.990358,432.717638L724.567910,429.188650L723.608633,428.227320L720.565061,428.787526L716.176235,427.065346L714.997884,426.907219L713.169557,426.661863L711.884620,425.960930L710.731600,424.240745L709.808324,422.499612L708.853350,421.164226L706.496772,418.560004L705.522779,417.141218L703.765045,413.751739L702.835452,412.581740L700.163115,410.403034L699.409268,409.075804L700.091348,407.776155L701.106492,406.420981L700.944979,405.098006L700.387123,403.756435L700.226303,402.336220L701.179935,401.086775L703.014421,400.400804L706.821197,399.788714L709.369536,399.961950L726.715730,405.601351L731.027580,406.005400L733.874764,407.300589L735.324807,407.693048L741.390629,407.949295L747.830867,409.272010L750.117127,409.352801L759.771106,407.919284L769.846238,408.025475L774.889384,407.023553L775.605761,404.389136L775.665551,403.246098L776.359355,403.038263L778.508151,403.675614L779.910991,403.793382L780.891289,403.444693L781.578414,402.641058L782.147568,401.426284L783.554840,400.897386L787.020841,400.132873L787.948625,399.026452L787.906730,397.349330L787.324040,395.926160L786.904413,394.461252L787.317199,392.677275L788.840551,390.301361L789.030807,389.101691L788.636539,386.956353L787.998255,385.150584L786.553013,382.021704L786.191217,380.400317L786.912245,374.153448L786.075770,371.950133L780.106348,368.996356L777.280988,366.787521L774.579467,364.221639L772.504491,361.907727L771.398509,360.228192L770.514550,358.219400L770.152824,356.247361L770.647185,354.657449L771.620683,354.161440L771.784471,354.077983L773.349482,354.064076L776.469284,354.532286L777.672273,353.874004L778.047622,352.075136L777.778967,349.886461L777.073567,348.026701L776.046590,346.022845L775.827043,344.649637L776.354468,343.601067L780.567222,339.345510L783.074507,337.841539L783.842575,336.843426L786.419208,331.266329L786.819732,328.204964L787.546272,325.440196L789.691866,323.413814L797.745460,319.797775L798.730487,319.355293L799.291789,318.722904L799.592715,317.769600L799.737472,315.681344L800.100366,314.732428L800.098144,314.723124L800.105799,314.723124L800.104688,314.718473L800.770385,314.142428L801.116408,313.412041L801.036506,312.565289L800.413924,311.657982L799.576997,307.711500L800.932379,305.318740L805.195659,301.751956L806.363149,298.873531L806.581132,297.107943L805.976082,295.896575L803.280232,294.069979L798.046869,289.357816L796.167300,287.078022L795.709470,284.639278L797.268632,281.691680L800.115338,278.542838L800.520813,277.217782L800.209616,275.458627L799.285796,274.231291L798.039824,273.125202L797.308834,272.336351L796.746635,271.729638L795.809365,269.722412L795.714688,268.009060L795.822272,266.374897L795.447431,264.642499L794.434442,263.302213L793.007606,262.396173L788.452630,260.401776L786.679515,259.201286L785.611123,257.664347L786.101771,255.851611L787.020448,254.136813L787.047312,252.491947L786.328432,250.888994L785.009804,249.299923L784.399370,248.799805L783.098218,247.939758L782.518054,247.313395L781.941280,246.294343L781.734006,245.476258L781.619737,244.695539L781.315475,243.793232L780.508146,242.456061L776.960291,238.023135L775.568588,236.652854L771.637587,234.272197L770.516588,232.901685L769.473739,229.935859L768.064202,228.649304L765.696825,227.732300L763.502903,227.273785L761.318757,226.450309L758.937980,224.419575L757.707341,223.628761L754.696596,222.168736L753.707322,221.429333L753.547821,221.085138L752.922179,219.735183L753.276186,218.335793L755.065330,215.939354L755.230094,215.106171L755.130222,213.182273L755.362832,212.517540L757.791874,210.640298L759.768533,209.572889L760.340514,209.081308L760.640616,208.229217L760.529866,206.300229L760.763785,205.705592L765.026008,204.076144L766.235058,202.914884L770.303906,196.649112L771.332365,195.824845L772.592169,195.319038L774.289186,194.949046L775.526830,194.171584L774.811755,192.981949L773.695056,191.586198L773.715862,190.204461L775.111785,188.387071L775.464400,187.422144L775.715569,185.960670L775.898636,183.164100L776.417975,182.381789L777.758751,182.236568L779.396183,182.850240L784.345637,185.688982L787.093935,188.002976L788.283702,188.438596L789.439344,188.373019L790.489418,187.946767L791.105846,186.944358L790.581583,185.703035L788.716762,183.243736L787.898027,180.376783L789.168260,179.407053L793.860375,179.097861L794.935098,178.652810L795.681897,177.842343L796.335821,176.905377L797.136082,176.066784L800.123592,174.070997L801.002310,172.852891L802.315361,172.000210L805.150715,171.274020L806.052310,170.149589L805.943467,169.329686L805.444616,168.561315L805.125351,167.811681L805.569190,167.043303L806.317081,166.574778L808.019958,165.975065L812.141454,165.380035L813.238067,164.639759L812.342199,163.149831L810.795293,161.402201L810.781871,160.244920L811.761482,159.406240L814.642647,158.038114L820.763321,156.562224L823.965455,156.365439L826.736852,155.376827L830.158328,155.592354L831.595235,155.180042L835.207711,151.314637L838.304466,149.501427L842.748710,148.381648L847.529675,148.039625L853.899578,148.939194L860.309755,148.611225L862.298027,148.016199L863.831798,147.074467L865.540728,146.634057L868.049687,147.552360L869.072081,147.599212L869.831191,147.186912L871.280004,145.978129L872.359435,145.542408L883.033537,144.385175L885.420927,144.628802L887.719036,145.200390L888.840494,145.336260L889.862062,145.205076L893.197168,143.926032L896.788266,144.183714L901.477618,143.527798L903.841615,143.855756L906.325463,144.235251L915.506503,142.607179L920.663211,142.826292L920.785499,142.831488L920.800851,142.832140L920.838531,142.833741L925.374938,143.026493L930.088424,143.855756L932.611545,144.788097L939.619342,148.569058L941.950911,149.117234L944.347498,149.941843L946.478290,149.955899L950.443035,148.536261L950.909269,147.622638L950.447538,144.511673L950.593980,143.251377L951.437156,142.445544L952.558550,142.148043L957.545352,142.743046L959.138951,142.105878L961.962164,139.198847L967.074969,135.343247L968.564937,133.778573L971.394797,132.944718L972.938006,132.839316L974.502324,133.298402L974.833529,133.516235L975.147452,133.783257L976.995287,135.736763L978.773243,136.999307L979.859737,136.659660L979.594445,133.778573L979.698944,133.087597L979.606540,132.427077L979.307070,131.815750L978.790378,131.272354L976.883060,130.494742L975.490665,128.972337L974.163425,127.211079L972.477943,125.700469L967.312688,123.461565L964.522666,121.763717L962.803534,119.843464L962.495211,118.094230L963.398293,117.642297L966.286047,118.002906L967.788375,117.778110L968.731460,117.164611L969.229223,116.021934L969.399863,114.197931L969.794438,112.757988L970.596381,112.242899L972.940808,112.191390L975.905902,111.290003L976.907513,111.179965L977.448843,111.416430L978.623994,112.374012L979.107894,112.537903L979.655316,112.317820L979.857778,111.999405L979.965466,111.638849L980.674998,110.725769L980.759956,110.140473L980.983806,109.705018L982.405462,109.550504L982.741646,109.335121L983.996531,107.832157L984.504974,106.879378L985.221816,106.249668L986.429721,106.399487L987.104017,107.099428L991.665680,113.326935L992.594438,113.846721L993.960771,113.710920L999.386002,112.289725L996.879716,111.067586L991.994505,105.420998L989.323175,103.225356L978.384253,97.535666L976.578964,98.703474L969.260364,99.185589L968.627610,99.199631L967.966354,99.052187L965.104690,98.249451L963.321097,97.566090L961.966062,97.683102L960.755039,97.968616L958.530307,97.587152L957.695523,97.554388L956.904266,97.318024L955.357981,95.548864L954.513628,95.087871L953.696027,95.146372L953.005494,95.731391L952.300471,94.552006L952.090787,96.974012L950.367604,97.215054L948.087563,96.655746L946.156044,96.686168L945.294384,97.903088L946.008560,101.006461L945.079877,102.569970L943.493612,103.323666L935.778533,104.938787L930.777372,106.928538L929.315979,107.246909L925.699332,109.175925L922.647190,109.529433L921.285425,109.967227L919.175898,112.523856L918.192974,112.762670L916.998450,112.491077L915.305522,112.341233L914.647278,112.603460L913.700009,113.518927L912.924402,113.568096L912.323772,113.191136L910.890880,111.765277L910.203561,111.261908L908.663536,111.144846L905.816579,112.102421L904.456033,111.404724L903.633883,109.508363L904.087059,107.733835L905.281601,106.411191L906.673964,105.861080L909.417786,105.575494L910.348057,105.055828L911.336039,104.014179L912.187170,102.574651L912.320747,101.259239L911.317160,97.451417L911.201191,96.707230L911.057501,94.418626L908.360279,94.107409L905.204712,94.177608L899.756421,92.843858L890.123430,89.657172L886.876337,89.750755L882.979395,92.230824L881.674223,91.882196L880.243860,91.149859L878.440382,90.920569L876.664808,91.107744L875.312485,91.603765L874.381269,92.457786L871.813034,96.241538L871.115789,96.611283L869.374160,96.016885L868.789859,96.241538L866.568254,98.403912L865.784623,99.791754L865.227437,102.436554L864.716982,103.686476L863.495088,104.683639L858.357246,105.205641L853.950154,108.328456L852.836964,110.234119L851.182270,110.861559L847.909050,111.505397L845.453694,113.273083L844.047766,116.242038L842.462827,123.267188L840.641643,128.014412L840.648248,129.761641L840.219532,130.623562L829.692239,132.232670L827.536765,133.464705L822.227482,132.541848L819.098811,133.211738L812.438398,136.200553L810.046176,138.172857L809.525823,138.983341L808.873562,140.580906L808.382294,141.269600L806.248990,142.691510L804.861639,144.774041L787.546258,160.511985L784.981101,161.697378L781.541315,162.372066L777.968686,162.372066L774.325857,161.613042L770.831349,159.996596L767.702124,157.419646L766.314732,155.840678L765.067578,154.125837L764.044133,152.275128L762.482837,148.095848L761.284472,146.277982L755.411758,139.578326L754.357668,137.943299L753.628562,135.975685L752.681428,132.263119L752.150002,131.192718L750.383423,129.239341L749.696574,128.274385L749.260879,127.164238L748.011372,121.693462L747.632135,117.970123L747.703607,116.595611L748.001600,115.778417L747.175164,113.598534L748.705072,109.033118L748.112020,106.502487L748.257544,105.364818L747.962809,103.464108L746.836661,99.644307L745.380917,96.166653L745.271982,94.872588L745.570170,92.843858L745.336447,89.212658L742.399448,81.909751L741.679474,77.945812L741.810172,77.433709L742.381796,76.236512L742.538111,75.476607L742.494861,74.562420L742.109333,71.771009L742.200270,68.954275L742.086683,68.063757L741.658989,67.072782L740.486469,65.151749L740.141520,64.303472L740.318954,62.684143L742.565733,60.969166L743.283446,59.366490L743.138694,57.735930L742.629109,55.587002L741.984658,53.615836L741.467383,52.522920L741.845313,51.897095L738.908346,49.211928L736.299543,47.731777L733.634508,47.573031L725.510303,50.580140L724.441128,51.565511L723.198772,52.354786L721.459368,51.696276L718.100232,49.489764L717.293174,49.382365L716.777738,49.548133L716.341482,49.356682L715.762367,48.198687L715.599182,47.241537L715.796368,45.194369L715.676481,42.895426L716.786135,38.891210L716.796251,35.193661L717.462717,32.630443L717.223850,29.990759L717.503482,26.095144L717.349005,24.046391L715.805407,20.038405L713.354460,17.387318L710.413978,15.761540L703.736123,13.316299L698.001496,8.776484L694.641380,6.756259L692.324042,5.746281L691.362304,5.536850L690.492474,5.569428L689.991052,5.820747L689.464374,5.853325L688.547740,5.252961L687.869845,4.503715L686.813598,2.858808L686.187137,2.146943L685.238221,1.358364L684.311426,0.721028L683.350238,0.248866L682.351586,0.000000L682.351586,0.000000L680.666480,0.055820L680.308227,0.695442L681.103141,2.740160L680.583173,3.661455L678.720370,3.242675L675.332850,1.842205L674.518505,1.981779L674.203137,2.363289L674.039812,2.777383L673.610624,3.017006L672.947640,2.977456L671.664416,2.581966L670.967516,2.458669L668.657515,2.449364L667.548963,2.714570L667.218866,3.349695L666.727327,4.882986L662.576469,5.320443L661.452518,6.146538L661.616516,6.756259L663.358855,7.836150L663.054480,8.892867L660.975706,10.759816L660.399157,11.127655L658.709443,11.029874L658.130304,11.402377L658.035564,12.203299L658.271128,13.139330L658.600310,14.059133L658.795244,14.815987L658.628248,17.890468L657.993194,18.253867L657.065979,18.512446L656.308383,19.010983L656.223949,21.229017L655.168992,25.337604L654.593134,30.312530L654.096840,31.832887L653.546508,32.579137L651.330804,33.626287L650.702574,34.179046L648.335669,37.449402L646.169725,41.695914L645.679099,42.143969L644.456190,42.882561L644.152790,43.065792L643.907989,43.544229L643.756960,44.351772L643.035804,44.685538L642.214628,44.839586L641.777253,45.117343L641.739079,45.952980L641.921777,46.723300L642.372955,47.465645L643.139107,48.198687L641.590606,48.824367L639.951704,49.104531L638.222276,48.777674L636.440527,47.584704L636.189896,49.882010L637.258283,52.660698L638.964306,55.292714L640.687799,57.179985L641.628025,57.567743L644.222375,58.296564L644.918916,59.055784L645.451315,60.347703L646.246233,61.529903L647.156795,62.487870L648.021453,63.123427L647.887758,64.167938L648.373230,65.427506L649.797641,68.063757L650.229492,69.396043L650.249695,70.190783L650.180998,70.920103L650.333417,72.051535L649.755038,73.372400L649.464504,73.624893L649.243826,73.942853L649.452924,74.665293L649.764182,75.490636L649.825093,76.093881L649.586715,76.769630L649.472166,76.956693L649.193844,77.330822L648.928726,77.241966L647.536414,77.302762L647.399814,77.330822L647.014858,79.968619L647.031947,80.756745L646.615543,81.051422L644.867656,84.183190L642.974722,85.011226L640.671638,84.622934L638.283134,83.841692L636.184486,83.511894L636.818260,84.183190L634.433637,83.771522L633.685698,83.511894L633.377781,83.283378L632.863114,82.901429L632.428477,82.297997L631.932521,81.839586L630.939381,81.657160L629.244747,81.100536L628.120380,79.814271L627.068721,78.369066L625.598945,77.330822L623.849070,77.237289L621.168564,78.771282L619.782524,79.182859L619.141895,79.519610L618.549269,80.162724L617.885031,80.555618L617.017773,80.139338L616.376650,79.748790L614.624658,79.262369L614.021413,79.182859L612.271813,79.416713L609.510267,80.728680L607.954244,81.039729L597.740492,80.146354L596.438019,80.784809L596.143379,84.585509L594.940138,86.110640L592.285118,88.454663L592.129002,88.885126L591.949238,89.970676L591.779402,90.422222L591.344639,90.934607L590.476208,91.664599L590.223938,92.165310L590.139720,93.601982L590.412062,95.282095L591.336626,98.740920L591.557535,99.061549L592.289296,99.244098L592.602225,99.644307L592.702009,100.131118L592.563043,100.271546L592.380138,100.327717L592.349923,100.599213L592.590987,101.437120L592.918288,102.286754L593.333985,103.066190L593.868818,103.686476L594.829610,105.037101L596.097222,108.155219L596.905977,108.976932L596.814370,110.971596L598.202407,111.533492L599.617518,111.809761L599.684009,112.968708L598.204075,117.150562L597.280398,118.312002L594.781861,120.171306L593.942826,121.538902L593.328092,122.269552L592.538655,122.588044L592.297923,122.641978L590.698931,123.000213L589.411597,123.681704L587.970220,123.819877L579.869124,119.183102L579.439198,119.009817L577.540066,117.899874L576.671133,117.150562L574.557462,113.928670L572.960179,112.828228L571.018769,111.746547L569.236344,110.435461L567.334181,107.139224L565.796065,105.547404L563.974925,104.203780L562.324683,103.407931L557.164201,102.789991L556.879636,102.682321L556.433001,102.593377L556.303113,102.892980L556.954450,103.969704L557.574113,104.554896L558.983627,105.435043L559.422775,105.828308L560.007182,107.139224L559.817323,107.944526L559.055955,108.159901L557.879484,107.682333L556.586500,106.401828L555.564875,104.948150L554.450469,103.791808L552.819907,103.407931L551.334920,103.927571L551.324951,104.952832L552.872125,107.682333L553.542360,109.616055L553.450174,110.496331L552.561941,110.430778L549.402784,108.700684L548.444315,108.290999L547.463175,108.202040L545.989055,108.356549L543.029779,107.949208L541.719321,108.014757L541.127794,108.976932L541.591898,109.335121L541.894112,109.728430L542.592580,110.833464L540.995256,111.088657L540.424517,112.397425L540.372081,113.856086L540.257314,114.542121L538.978766,114.738802L536.443307,115.588756L535.026381,115.778417L534.764350,116.176475L534.181401,117.918607L533.626033,118.312002L532.867349,118.372885L529.570688,119.155002L525.098533,119.492206L526.669400,121.609157L526.519455,122.960401L525.258149,123.679362L523.395582,123.880767L521.864330,123.545873L520.301908,122.990845L518.852968,122.883119L517.705189,123.880767L517.518833,125.381958L518.026992,127.211079L519.451914,131.024079L518.994965,132.324018L517.226790,132.309964L513.958244,131.309829L512.103065,131.576843L511.018102,132.684726L510.138982,133.891003L508.910496,134.457844L508.144970,135.024688L504.290247,139.161368L503.657773,139.653285L502.864378,140.014025L502.277457,139.988851L501.935961,139.974203L501.153730,139.503367L500.610308,138.795945L500.120643,137.997175L499.509429,137.245259L496.234254,134.148658L495.442764,133.577135L493.484551,132.670672L492.521017,131.984392L490.899546,130.119993L489.736852,128.520307L488.446755,127.396102L484.936178,126.611514L482.887602,125.691101L480.928998,124.484985L479.730079,123.267188L479.320064,121.908910L478.538803,116.117937L477.791946,114.425049L476.636201,113.216891L475.150775,112.444251L473.538913,112.069643L470.947630,112.186708L469.990162,112.069643L469.079956,111.664603L467.188040,110.468237L466.283554,110.210708L465.474664,110.313719L464.178567,110.735133L463.436737,110.833464L463.079053,111.247860L462.851397,112.149247L462.492588,113.010852L461.771988,113.305862L460.313491,112.252264L458.016160,108.504035L456.128885,107.682333L454.706675,108.099034L453.601934,109.103351L451.775539,111.505397L450.580928,112.580047L449.289180,113.333959L447.808487,113.778820L446.062741,113.928670L444.283115,114.345441L441.918712,116.136669L440.357588,116.455118L438.556322,115.797149L437.378912,114.411001L436.437047,112.729892L435.323554,111.170600L433.520269,109.831440L429.968474,108.597677L428.268106,107.682333L427.243716,106.303509L425.075827,102.371016L423.974777,101.551808L422.327602,101.104763L418.890032,99.028784L417.404372,98.403912L413.847389,98.329022L407.490700,99.894733L398.001816,100.313674L397.297901,100.599213L396.152423,101.832677L395.440228,102.115889L393.434720,102.033968L392.488888,101.867786L387.153962,99.845584L385.347215,99.644307L383.506643,99.789413L382.189219,100.234098L381.151541,101.006461L380.122901,102.115889L379.298740,103.351754L378.793245,103.833942L378.064141,103.969704L377.046469,103.520285L375.556196,101.909916L374.727269,101.551808L373.030046,101.774162L368.367366,103.407931L366.397205,103.220675L364.664383,102.127592L363.149083,100.898797L362.582354,100.644469L361.845233,100.313674L361.113291,100.121756L359.878577,99.272183L359.044926,99.082612L356.650326,99.208993L355.771253,99.082612L354.116039,98.343064L352.550121,97.107404L349.869217,94.416286L348.264716,93.288434L330.352698,87.214782L328.707633,86.199531L328.055877,85.614728L327.260891,84.749245L325.378019,82.022014L324.714750,81.657160L323.175787,81.334410L321.951043,80.838599L322.072431,82.129600L322.189418,84.505980L321.411707,85.303618L318.389889,85.270870L317.190894,85.544552L316.424071,86.073212L315.905059,87.004243L315.493549,88.464021L315.496910,88.478057L315.494243,88.482736L315.488910,88.492094L315.007694,90.279504L314.733748,92.207426L314.869659,94.236107L316.374983,98.118394L316.893702,100.121756L316.936696,101.959069L316.300070,103.234719L314.732957,105.318001L312.430303,109.934450L310.147321,111.278297L309.163923,111.303507L278.182211,112.097739L273.168123,113.870135L261.525638,120.953454L259.754518,122.536523L258.924209,124.840962L259.410150,128.375096L262.402189,135.268292L263.524929,138.814685L263.237843,141.883338L261.670406,146.783874L257.068479,161.107024L256.514099,164.011929L256.385633,167.591476L256.574624,169.460871L257.005684,171.292761L257.771501,173.143364L259.590522,176.605546L260.217434,178.484159L260.691905,182.096032L260.602533,185.440714L260.003892,188.574434L256.222281,197.473363L255.116599,199.266991L253.115198,201.229122L250.837756,202.146935L245.692701,203.406551L244.469974,203.968448L243.508734,204.712948L242.884578,205.808601L242.529893,209.451165L241.934902,210.064463L240.972804,209.849108L239.637656,209.343486L236.487702,208.847219L233.858489,209.357531L231.538636,210.644979L227.485221,214.343179L226.814370,215.513404L226.511926,216.955056L226.880039,218.569810L228.503337,222.851963L228.719715,223.989076L221.101535,221.260859L218.938946,220.820949L217.824976,221.000862L216.649762,221.190661L214.589527,221.873913L208.550767,225.930943L205.752067,226.693611L196.771199,227.255070L195.352148,227.582582L194.142453,228.345200L193.349479,229.393175L192.123593,231.779019L191.243282,232.761354L185.881731,235.549085L179.730501,236.886697L163.587862,236.526578L162.097931,236.867989L161.213172,238.051194L161.238689,239.617787L161.999150,240.772782L162.984630,241.927713L163.653830,243.526740L164.376138,244.700214L168.891052,248.103357L170.225358,249.496227L170.806274,249.907525L172.837007,250.617927L173.312731,251.089955L173.387582,251.720865L173.129609,252.543352L171.401944,254.057377L166.130005,255.903005L164.585678,257.832530L164.748195,259.177929L165.916232,263.792574L166.389883,264.899335L167.833460,265.898623L168.295967,266.846487L168.146605,269.685066L168.564060,273.106533L168.475538,274.786638L167.706864,275.822607L166.328825,276.205244L163.313410,276.471217L161.889072,276.816508L157.436039,279.200655L151.859279,284.513366L151.560761,284.676115L147.410591,286.938144L145.882251,288.896295L145.221988,290.187581L144.456166,291.124499L143.492805,291.814324L138.612017,294.130559L137.451059,294.428795L136.770762,294.321617L134.397955,293.403577L133.609433,293.436199L132.920303,293.650569L132.191182,293.711152L131.293223,293.277749L125.490825,288.793732L123.514831,288.905619L121.574119,291.133821L116.420026,300.908994L115.378888,301.528414L114.406814,300.592286L112.330315,297.336227L111.607944,295.966464L110.966908,292.317687L110.531842,290.732959L109.689373,289.138712L108.604829,287.721440L107.282648,286.593107L102.827687,284.797834L100.503091,283.426736L91.357544,275.967264L89.126149,274.618636L86.702294,273.535911L82.367539,273.451903L74.121916,276.555207L69.797836,276.891164L59.508069,275.369963L54.217148,273.409899L50.029926,269.629046L44.308844,265.230881L43.631201,264.955559L43.090563,264.735894L42.222182,264.600471L41.555419,264.259571L40.977643,263.722524L40.341924,263.017330L40.244079,262.657716L40.330836,261.681581L40.218496,261.289242L38.832934,260.247632L38.662831,260.200922L38.553156,260.224277L37.469293,259.420837L37.890676,258.402469L37.902056,258.164218L37.079541,257.552225L36.478948,257.271915L35.852854,257.271915L32.137544,258.019397L31.207507,258.393126L31.924793,259.233985L33.473773,262.933265L34.036862,264.759243L33.968740,266.636374L33.337281,268.340541L32.040967,270.450645L31.583455,272.187061L31.528392,275.019971L31.314626,275.943932L30.194657,278.029627L29.973024,279.028039L30.011660,280.880047L31.314268,285.525298L31.055283,287.124647L29.800297,287.935905L28.095500,288.234286L26.528076,288.271583L25.645572,289.148036L25.604615,291.068565L25.938986,292.993467L26.172481,293.869596L26.665872,294.261038L27.203328,295.127760L27.350663,295.994420L26.689051,296.385796L26.328582,296.791136L26.895509,297.690290L30.254084,301.235009L30.538951,301.616900L30.603598,302.641426L30.568795,303.442356L30.835245,304.182702L31.783590,305.002150L30.507581,307.516001L30.235604,308.805298L30.552558,312.528068L30.162908,315.904607L30.276484,317.662639L30.222184,318.522949L29.518070,320.215471L29.510771,321.345224L29.774744,322.265678L30.444611,323.939036L30.657083,324.719850L30.981677,327.898318L30.993876,330.862221L28.873161,331.623977L28.753218,333.110183L27.835965,335.692008L25.861434,337.521224L24.836723,339.085578L25.173421,341.206636L25.887294,343.526828L26.029363,345.712031L25.461865,346.737221L24.637657,346.945959L23.655800,346.867103L22.654494,347.034092L21.772790,347.604620L21.410288,348.202950L21.178410,348.917196L18.584438,352.756698L17.333423,353.744198L15.589467,354.263415L11.634625,354.810423L9.976755,355.760675L9.265356,357.647055L10.078097,357.760599L10.786147,358.117446L11.385075,358.733793L12.449648,360.872233L13.234493,361.497709L15.219456,362.331629L16.279698,363.144646L17.208891,364.184583L18.848657,366.514284L25.787968,373.667455L26.967260,375.345211L21.497883,375.671481L14.043864,376.131947L8.855353,376.444314L9.748457,378.350747L8.840444,379.616151L5.680739,381.492057L3.613160,384.195579L1.871269,387.231475L0.613998,391.445456L0.957221,395.447887L1.317351,396.641575L3.652925,404.389136L8.456666,418.038644L8.980512,421.547095L7.690323,426.726421L7.658684,429.647394L10.778321,436.158289L16.348897,440.669441L22.843912,443.157192L28.766809,443.606329L34.183376,443.311512L37.103964,443.523412L39.728964,444.154491L41.015211,444.829305L42.490340,445.960076L43.401253,447.238148L43.348034,447.374932L42.964861,448.359548L41.941581,448.760195L38.453072,448.997355L37.306996,449.876892L37.339745,451.156975L37.889562,452.641845L38.325348,454.174928L38.254021,455.954149L37.672460,456.969123L35.525066,458.492627L33.744544,460.402578L31.652649,464.258687L28.970161,469.183493L25.965682,474.658853L23.291536,479.544212L23.073953,480.787776L24.521365,487.817877L26.689253,493.501814L30.208264,500.789497L34.366613,509.394795L38.640839,518.270046L43.145894,527.619295L48.103802,537.891689L53.687586,550.195899L57.991113,559.688457L59.169320,566.910407L59.460641,573.966042L59.283141,575.445733L57.789516,577.983531L57.457814,579.343983L57.813019,579.889068L58.507195,580.255508L59.039836,580.754778L58.753727,582.705996L59.075035,583.617451L59.605586,584.487667L60.072848,585.435726L60.555231,587.359264L60.994226,592.836344L61.935682,597.126918L64.457762,605.327074L64.684176,611.873583L65.235326,613.947273L67.127917,618.227220L69.496908,626.525546L72.183468,627.582807L79.962813,628.704131L92.870775,630.562298L92.995124,630.580196L106.066912,632.461621L121.176175,634.635507L130.069457,635.906888L134.301643,636.511881L136.373126,637.285306L138.060091,638.466027L141.365878,641.916607L142.180182,643.554919L142.342052,647.357756L142.688536,649.119575L143.741672,650.927142L146.354464,654.295131L147.346415,656.285706L147.933038,658.880304L148.283185,659.800079L150.096409,662.614308L151.526690,665.506323L152.204332,667.268072L152.520237,669.006943L152.313766,670.869369L151.384832,673.747675L151.893745,674.781856L153.246785,680.831422L152.840983,681.087685L152.763785,681.710039L152.935400,683.307117L153.053327,683.403217L153.322618,683.874564L152.283016,685.261153L147.399336,692.867008L139.907629,704.523795L133.101821,715.092576L133.102604,715.097154L128.249269,722.558901L121.776832,732.480269L118.390166,737.672862L113.432490,745.242919L104.123267,759.414887L104.103656,759.437794L99.498647,766.287710L95.990256,771.493511L98.559911,772.616329L104.238631,774.389985L110.855498,776.461639L117.489538,778.540271L124.107677,780.614424L130.725514,782.684095L137.352344,784.758451L143.970694,786.826033L150.599528,788.907468L157.219502,790.979834L163.839166,793.047714L170.468563,795.124862L177.098766,797.204402L183.727533,799.272575L190.342609,801.350016L196.977629,803.427553L203.607678,805.496013L210.228303,807.576034L217.793350,809.938245L225.826111,811.451958L235.128875,810.542021L237.268562,810.332723L240.915774,809.974940L244.558975,809.617160L248.205974,809.259383L251.852115,808.897022L255.495751,808.543838L259.145960,808.183776L262.789007,807.828303L266.439381,807.470540L270.081083,807.108193L273.723435,806.750435L277.374247,806.397267L281.016386,806.039515L284.657661,805.677180L288.307396,805.319434L291.953120,804.961690L295.606546,804.603950L306.954369,803.494054L324.069455,806.768782L338.436705,809.520836L347.695382,813.334995L347.695382,813.334995Z "/></g></svg>