<?xml version="1.0" encoding="utf-8"?><!DOCTYPE svg  PUBLIC '-//W3C//DTD SVG 1.1//EN'  'http://www.w3.org/Graphics/SVG/1.1/DTD/svg11.dtd'><svg enable_background="new 0 0 1000 3731" height="3731px" pretty_print="False" style="stroke-linejoin: round; stroke:#000; fill: none;" version="1.1" viewBox="0 0 1000 3731" width="1000px" xmlns="http://www.w3.org/2000/svg" xmlns:xlink="http://www.w3.org/1999/xlink"><defs><style type="text/css"><![CDATA[path { fill-rule: evenodd; }]]></style></defs><metadata><views><view h="3731.39286768" padding="0" w="1000"><proj flip="auto" id="robinson" lon0="-61.7883113901"/><bbox h="12.38" w="3.32" x="-904.87" y="-297.27"/></view></views></metadata><g class="" fill="black" id="country"><path d="M655.184370,3729.392868L693.234675,3669.180647L682.953066,3544.851751L688.439932,3499.024769L724.207055,3480.735081L794.031343,3502.518306L848.297211,3534.576642L898.418172,3530.877602L955.444002,3443.333704L970.284318,3384.354632L951.079754,3357.228377L915.555558,3330.307630L879.475298,3274.000138L909.184994,3276.466158L970.156223,3271.534118L999.865966,3274.000138L984.782858,3217.281665L971.858222,3192.210464L951.392726,3167.344774L918.608858,3167.344774L855.921929,3203.102052L797.720926,3204.951567L755.468109,3170.838302L741.541066,3098.501766L782.506206,3088.637697L802.288099,3075.074603L816.253577,3056.168472L840.018264,3029.453299L788.872851,3036.851348L746.577460,3028.631296L714.491684,3003.560135L693.079911,2960.404873L646.106290,3024.110263L631.769091,3053.702457L623.664990,3098.501766L555.882195,3036.029340L531.063564,2931.840206L482.818589,2842.036240L344.027829,2822.719148L276.781254,2867.723867L232.191532,2920.126646L219.754664,2979.927490L249.719427,3046.715413L145.493458,3080.006639L64.240265,3116.996897L11.409367,3167.344774L98.237394,3222.830211L128.615483,3236.393323L53.677448,3277.082661L48.382612,3320.443541L59.961769,3369.763992L35.713104,3427.510048L0.134034,3496.353243L25.795031,3542.385726L158.474478,3636.505771L214.610409,3650.685433L306.399512,3650.068928L368.147058,3638.149786L462.371029,3589.651242L492.808323,3581.431152L520.752918,3619.654577L586.202292,3691.169405L655.184370,3729.392868Z M532.364517,0.000000L468.073837,37.399992L438.676085,134.393464L465.716390,189.671580L540.583424,238.373895L557.881252,352.218246L540.252807,480.858452L510.238516,574.975545L461.471469,542.918184L465.596694,495.448647L488.157779,435.649409L495.559054,364.958958L476.922271,311.735667L415.153946,219.468355L393.643945,158.230867L389.889023,119.186855L384.521655,102.747275L369.865902,86.102209L357.703414,184.534210L368.886501,263.649793L387.735145,341.121495L399.717484,433.799949L390.932742,639.912293L408.783253,712.657954L468.310032,678.545570L655.174417,765.470518L727.848461,829.585436L747.786775,919.798496L825.570865,889.795961L870.471355,894.316893L902.218717,877.055165L940.151165,782.115735L955.218656,703.205123L958.151541,619.773672L939.765316,468.528712L914.575457,385.508504L873.890904,297.556496L819.648256,217.413405L753.923372,158.230867L697.903569,145.901173L602.670403,181.040795L546.489762,158.230867L578.061546,143.024248L609.275357,123.707738L532.364517,0.000000Z "/></g></svg>