<?xml version="1.0" encoding="utf-8"?><!DOCTYPE svg  PUBLIC '-//W3C//DTD SVG 1.1//EN'  'http://www.w3.org/Graphics/SVG/1.1/DTD/svg11.dtd'><svg enable_background="new 0 0 1000 1177" height="1177px" pretty_print="False" style="stroke-linejoin: round; stroke:#000; fill: none;" version="1.1" viewBox="0 0 1000 1177" width="1000px" xmlns="http://www.w3.org/2000/svg" xmlns:xlink="http://www.w3.org/1999/xlink"><defs><style type="text/css"><![CDATA[path { fill-rule: evenodd; }]]></style></defs><metadata><views><view h="1177.91734313" padding="0" w="1000"><proj flip="auto" id="robinson" lon0="-63.0444238612"/><bbox h="7.25" w="6.16" x="-925.01" y="-311.92"/></view></views></metadata><g class="" fill="black" id="country"><path d="M552.148113,1175.917343L585.586061,1164.181188L644.072842,1119.450978L654.068923,1132.515735L668.923277,1145.137625L674.627661,1156.652337L830.134121,1056.563067L893.833335,1036.190955L921.549012,1017.368906L942.004225,991.460930L997.374784,903.329685L999.575161,885.393458L972.835770,883.843415L916.597016,893.143677L842.362072,907.536949L799.081382,943.963028L764.621948,992.568108L717.224258,1043.609060L688.953484,1057.891683L627.361768,1069.849236L599.015368,1080.699610L579.245143,1096.864461L511.158958,1175.253034L552.148113,1175.917343Z M0.508816,0.000000L0.424839,22.917790L12.625093,3.321417L0.508816,0.000000Z "/></g></svg>