<?xml version="1.0" encoding="utf-8"?><!DOCTYPE svg  PUBLIC '-//W3C//DTD SVG 1.1//EN'  'http://www.w3.org/Graphics/SVG/1.1/DTD/svg11.dtd'><svg enable_background="new 0 0 1000 1893" height="1893px" pretty_print="False" style="stroke-linejoin: round; stroke:#000; fill: none;" version="1.1" viewBox="0 0 1000 1893" width="1000px" xmlns="http://www.w3.org/2000/svg" xmlns:xlink="http://www.w3.org/1999/xlink"><defs><style type="text/css"><![CDATA[path { fill-rule: evenodd; }]]></style></defs><metadata><views><view h="1893.31522982" padding="0" w="1000"><proj flip="auto" id="robinson" lon0="20.0098401624"/><bbox h="49.2" w="26.0" x="260.18" y="-715.24"/></view></views></metadata><g class="" fill="#000" id="country"><path d="M621.186050,1891.315230L641.630455,1875.319363L652.939759,1860.648385L659.103849,1836.594657L660.053515,1808.538112L665.742897,1799.252680L696.426107,1802.420796L705.484145,1795.426157L702.964962,1770.279966L680.693484,1738.946475L660.172581,1700.375956L658.522086,1682.011347L672.242522,1674.567757L694.551067,1657.837560L705.552626,1637.180066L729.877673,1626.870870L766.958133,1624.996751L807.721872,1615.939714L832.643400,1593.742790L834.683649,1571.776108L846.216590,1511.364541L854.584533,1481.844465L869.921783,1454.926446L876.337059,1418.636518L892.185740,1384.550221L930.483328,1370.264606L964.862170,1353.438152L988.005068,1309.600157L999.735773,1272.092669L997.755941,1249.137730L971.781458,1211.646308L951.673214,1175.203818L951.805087,1127.972942L947.594996,1114.287818L932.658111,1094.307196L898.754236,1084.952578L831.905293,1092.948667L814.108694,1078.346683L778.678790,994.146183L755.743379,980.649083L728.873429,952.401908L679.423364,861.162411L674.758194,821.202290L674.370928,786.396408L644.093539,704.754545L656.224667,684.145014L676.169175,671.175217L673.333167,638.347545L662.764511,588.506406L678.571161,490.819015L684.704724,483.723642L690.044997,456.326573L681.260527,396.456932L644.634779,297.403395L622.166812,264.967456L579.121664,232.755248L545.995898,211.621286L488.399458,192.777985L454.921241,138.521766L406.557780,76.888058L384.762640,62.786198L375.156370,61.141585L322.468639,88.097516L282.591505,100.800702L246.162854,107.137534L227.474299,94.190015L217.207093,76.583467L214.017961,25.573986L205.759451,8.371949L192.356270,0.000000L192.356270,0.000000L168.159146,12.086200L142.262333,51.457041L119.050629,97.297300L82.273723,145.073858L52.465670,190.948708L21.058012,248.799106L0.264227,296.731990L28.709470,323.774950L47.921186,361.421956L45.611640,389.613809L51.734954,406.050411L47.995731,455.439989L49.124258,486.598417L115.245266,494.703383L175.859594,537.719331L183.080454,629.951495L169.950782,657.318909L146.630929,678.748302L124.672068,765.423762L137.009157,830.698157L155.520824,883.982173L150.073906,966.138690L162.107205,1075.229233L129.346038,1165.432579L111.842360,1245.854919L117.780171,1272.340556L175.319265,1368.774191L189.174379,1410.058135L180.970467,1428.957625L155.935298,1417.486422L136.327085,1407.913796L117.391608,1408.970414L140.344031,1446.776502L163.533396,1486.825343L212.746305,1534.608753L414.111254,1640.960758L482.476005,1750.725131L502.394067,1796.461166L510.195578,1855.340372L521.316047,1854.523811L541.478192,1861.967634L580.924263,1886.097882L621.186050,1891.315230L621.186050,1891.315230Z "/></g></svg>