<?xml version="1.0" encoding="utf-8"?><!DOCTYPE svg  PUBLIC '-//W3C//DTD SVG 1.1//EN'  'http://www.w3.org/Graphics/SVG/1.1/DTD/svg11.dtd'><svg enable_background="new 0 0 1000 824" height="824px" pretty_print="False" style="stroke-linejoin: round; stroke:#000; fill: none;" version="1.1" viewBox="0 0 1000 824" width="1000px" xmlns="http://www.w3.org/2000/svg" xmlns:xlink="http://www.w3.org/1999/xlink"><defs><style type="text/css"><![CDATA[path { fill-rule: evenodd; }]]></style></defs><metadata><views><view h="824.11516049" padding="0" w="1000"><proj flip="auto" id="robinson" lon0="44.8402633409"/><bbox h="40.39" w="49.07" x="589.61" y="-693.13"/></view></views></metadata><g class="" fill="#000" id="country"><path d="M614.960393,223.875764L616.988305,215.107042L609.031314,211.322663L604.925220,210.819278L600.888784,210.888710L597.272209,211.930209L594.261984,214.239016L593.284289,217.572398L593.399397,221.079864L594.630673,224.587813L596.923880,227.818334L606.974973,230.458637L614.960393,223.875764Z M891.128219,822.115160L909.317896,819.758483L913.788341,817.482001L926.487077,807.364210L931.442964,804.830801L934.994121,804.030818L945.760749,803.613056L952.148217,801.497667L955.054461,801.124376L959.012456,801.933177L990.384081,814.414331L995.652660,815.756957L982.374452,796.076495L980.459896,792.060079L979.423699,787.875364L979.124700,783.620131L979.344937,779.445402L979.569199,778.459536L979.573557,777.376006L981.245681,766.462857L980.293008,756.840434L976.949396,747.096804L971.358990,735.813010L963.652865,730.607218L953.438301,725.561928L945.052093,718.771212L942.837688,708.224793L948.209713,702.483485L958.206427,703.688356L976.678692,711.911174L980.021955,711.432627L991.326827,702.625232L997.154993,702.412611L999.392552,701.260947L997.979888,698.861564L997.457587,697.974527L995.202866,695.919600L993.059049,694.307648L979.674246,686.328955L971.671666,679.547516L968.026215,674.502345L965.544181,669.051051L962.559726,664.078572L957.456355,660.575374L935.816806,652.049272L925.431071,645.311664L919.599397,634.563302L921.616928,625.762796L929.488783,620.568705L949.212157,616.930169L949.309228,616.912261L952.387366,615.357988L953.817914,612.850152L953.319325,609.653899L950.728753,606.051969L949.754520,600.402904L952.477141,597.578842L956.088372,595.196284L957.775937,590.855312L955.881017,585.227282L951.638947,580.817486L946.480724,577.960355L941.814637,577.025687L924.528276,578.612881L918.861757,577.713458L914.150956,574.856685L906.006054,566.446998L901.489276,563.397657L891.841893,562.745535L874.553750,571.964980L865.241222,573.869236L858.713155,572.053137L853.932406,568.350826L845.200732,556.630539L840.309946,551.961625L835.039738,549.407319L823.938825,546.518638L813.949461,539.897126L799.352500,519.339984L790.426927,512.339196L771.931858,507.344955L761.931172,502.924148L755.466143,500.066565L740.712219,488.292458L737.810858,484.182454L720.817681,460.130024L713.611908,453.866846L705.345072,450.341311L675.828473,447.535325L666.303121,443.800423L664.906053,439.114771L663.903581,435.754177L679.465742,425.064118L726.477711,432.160065L745.550914,430.372715L748.722131,427.429172L749.927704,423.820379L750.216697,408.235944L750.756637,405.662965L755.946530,400.622909L759.964068,393.974614L761.754056,385.684561L762.589864,363.942278L762.387403,361.933407L761.815269,359.942182L760.919912,357.986062L752.088923,349.203074L747.401083,345.589589L742.970951,343.599799L736.958256,343.948873L733.225350,345.024072L731.443782,345.537224L725.825399,345.257946L711.677639,333.143118L711.417862,332.920723L640.194054,298.874750L621.003999,284.612023L608.591279,266.895541L605.494540,262.981559L599.067008,259.468205L595.985133,256.807436L594.005806,253.190642L591.924713,245.750058L590.188589,242.430330L584.274327,236.852095L577.879019,232.769128L571.606677,227.922552L566.131443,220.124813L564.922084,213.881130L563.359060,205.820684L568.110591,194.525337L577.327036,186.321495L587.533514,181.354505L607.108226,171.827926L612.888622,164.185572L615.339349,150.379379L613.365544,142.968152L608.097269,140.630915L601.492484,140.198114L595.529795,138.536225L590.340090,134.433865L575.724332,120.452303L567.309166,114.934272L564.419976,114.268387L560.330051,113.325770L556.254515,109.936108L556.526596,99.112636L553.261307,91.196445L545.785209,91.956858L543.379827,93.167720L531.672765,99.060776L525.186881,98.127315L512.165079,93.564161L498.859111,92.164247L493.622907,88.673397L488.496317,84.440006L482.201540,81.226493L471.465081,72.624299L466.448916,70.379158L466.858034,76.458703L465.962165,80.431808L460.521299,79.930822L453.803516,76.234152L449.139865,70.655474L449.945954,59.915575L477.482458,60.968674L485.697886,54.633367L484.278906,49.317566L479.747415,44.572097L463.219398,34.220892L458.216242,32.823745L440.174283,32.806497L435.064460,30.943732L432.710993,26.804654L434.087333,19.769475L419.915806,0.000000L416.892891,1.998800L411.676235,7.151452L408.730049,9.254109L398.321083,9.564349L370.903295,5.703801L366.525277,10.650212L369.744971,15.356045L381.009363,19.907404L383.357601,22.327083L384.707329,23.717948L382.660802,27.201292L375.590077,28.098057L334.956034,27.339254L322.582024,23.148923L316.852103,22.459210L311.400900,24.907759L308.689519,29.236296L306.367810,34.531378L302.954159,37.843419L296.995490,36.359857L294.982434,33.824165L293.309488,30.409070L291.356845,27.891109L288.405738,27.977337L286.856182,29.236296L282.409619,34.910865L276.051967,36.687615L269.765612,36.290855L263.331533,34.272640L246.999150,26.114861L243.517510,25.752726L240.439753,26.718429L238.547933,28.563695L236.974489,30.650529L234.731748,32.237307L228.431490,33.220459L222.973871,31.443908L207.955782,22.976494L199.910000,20.148783L196.977542,20.183265L194.111713,22.304027L193.884962,24.787052L194.253571,27.615180L193.479156,30.874743L189.913725,34.824617L185.013243,37.498398L179.378954,38.464466L167.089857,35.462854L161.685367,35.997602L151.472862,40.569219L145.415089,41.985038L145.301201,42.011656L139.513773,43.364278L114.032992,43.864654L103.059079,48.368413L92.186825,58.724408L87.179443,60.813297L80.526231,61.331225L34.350472,55.530932L22.695120,55.945202L8.843515,61.503870L6.236771,62.056341L3.499805,62.004546L0.607448,61.365754L0.960924,69.170306L5.278998,79.792620L11.504809,89.347340L17.668376,93.944397L29.793726,95.499957L42.738328,100.962365L55.226460,109.261682L65.792989,119.241357L70.221094,125.815689L72.629109,132.218496L74.524056,138.934377L77.461660,146.552303L81.557952,153.202407L96.272352,170.129436L100.041233,176.421321L102.066241,181.969123L107.910973,205.213282L107.610004,207.938025L103.644993,217.416136L102.348704,219.499708L105.899507,227.106195L96.553348,239.840901L94.162787,246.792996L95.959791,254.859866L94.056463,253.642712L92.740279,253.190642L91.459898,252.929836L89.662708,252.356073L90.793278,253.729650L91.440223,254.738148L92.637030,257.155233L86.214283,257.885622L80.945570,261.729217L73.415969,272.202165L75.388096,276.639741L82.412993,282.749267L95.286454,291.646540L95.713748,293.945395L95.612797,294.690510L93.867973,307.551513L92.200473,311.315922L91.331185,316.841635L95.146584,322.124532L103.859854,328.699318L118.969936,343.669614L124.550272,352.291886L124.946608,352.904435L120.547845,356.588938L124.598715,362.544784L135.094595,372.503829L137.587983,376.313900L135.678468,380.684051L123.576879,383.236618L120.346048,386.593865L125.719134,396.353772L139.638203,402.932790L166.312379,409.706355L199.567385,425.431998L233.969755,430.758209L238.129080,429.321403L246.625320,422.962066L252.284646,421.490753L255.138143,422.173850L259.259417,425.379443L261.749415,426.115220L264.582180,425.747329L269.978042,424.170721L277.761435,423.242328L293.714319,418.968735L303.103719,418.968735L313.815306,421.928633L330.731656,430.356290L356.262502,443.081572L374.762207,456.235063L383.283132,463.727340L387.326935,468.676804L389.570198,473.838066L391.147459,476.787898L393.920687,479.053214L398.649602,481.951045L400.122084,485.270841L400.911884,489.100633L402.308022,491.068486L405.622331,488.924941L417.693804,499.873210L423.385059,502.844035L424.826055,503.019835L427.847117,502.562757L429.221235,502.844035L430.782263,503.986763L432.861977,506.624045L453.807489,527.785948L459.373329,534.703346L466.669304,531.429210L479.176646,529.211505L491.374778,529.387505L500.471312,527.240387L507.016712,523.407036L508.493647,522.542052L517.381955,515.065382L527.196330,511.688477L537.485011,516.173537L540.032836,518.689961L562.580282,540.971236L566.490185,546.659541L568.858894,552.965806L569.862295,560.930260L569.382430,573.216835L571.386926,578.189619L577.448197,581.505363L587.285854,579.194878L593.922585,572.229452L600.938923,569.849314L603.100674,572.164084L611.723487,581.399535L616.320494,588.491033L619.832486,592.337512L624.176235,593.890385L637.574872,595.055102L642.883857,597.472945L653.246393,605.995897L653.293094,606.034313L656.591901,607.693962L659.814605,608.153033L662.871823,607.552711L665.706145,606.051969L668.451424,604.851438L688.359215,591.314079L695.274619,588.385175L727.970403,580.523286L729.460859,580.164903L735.902851,580.059080L744.107914,582.863535L751.209819,587.167840L754.512188,591.472885L755.641868,597.261154L756.341548,605.946037L756.344811,605.963692L756.348075,605.981347L761.750070,621.593307L761.504816,626.981968L754.830226,641.669463L754.314217,648.512259L756.562713,652.051657L757.594765,653.676454L774.123654,657.550247L780.675374,662.008446L786.983182,667.493737L794.541946,672.413735L798.956976,674.313166L816.225024,681.742894L822.868339,686.931042L825.191735,689.622882L826.299260,692.208706L826.174763,694.679629L824.709133,696.991332L819.523642,705.460316L819.413870,714.188811L823.593219,723.203617L831.181780,732.496097L840.245033,742.447937L847.874090,753.325980L869.463087,792.255557L891.128219,822.115160Z M430.718881,86.081452L426.455573,82.003924L423.728834,76.959630L423.711472,72.330694L427.447559,69.567495L438.815718,71.950739L443.783980,81.520187L441.368251,89.226375L430.718881,86.081452Z M492.125831,106.754343L487.943085,99.060776L488.628785,98.196459L489.500759,97.695167L490.555606,97.539596L491.736200,97.729739L500.896155,104.005169L498.715330,107.705377L492.125831,106.754343Z "/></g></svg>