<?xml version="1.0" encoding="utf-8"?><!DOCTYPE svg  PUBLIC '-//W3C//DTD SVG 1.1//EN'  'http://www.w3.org/Graphics/SVG/1.1/DTD/svg11.dtd'><svg enable_background="new 0 0 1000 1246" height="1246px" pretty_print="False" style="stroke-linejoin: round; stroke:#000; fill: none;" version="1.1" viewBox="0 0 1000 1246" width="1000px" xmlns="http://www.w3.org/2000/svg" xmlns:xlink="http://www.w3.org/1999/xlink"><defs><style type="text/css"><![CDATA[path { fill-rule: evenodd; }]]></style></defs><metadata><views><view h="1246.87516282" padding="0" w="1000"><proj flip="auto" id="robinson" lon0="18.8626243402"/><bbox h="228.73" w="183.59" x="170.74" y="73.63"/></view></views></metadata><g class="" fill="#000" id="country"><path d="M5.631786,1122.682664L4.818848,1119.401363L4.802115,1115.914376L4.861015,1112.163400L4.555350,1110.165354L4.483905,1105.660996L3.076914,1105.141737L1.401520,1106.697256L0.597719,1107.820582L0.401324,1110.327427L2.854749,1119.314362L3.912965,1121.991595L5.691277,1123.891467L5.631786,1122.682664Z M724.108121,1244.875163L726.158249,1244.686514L728.543407,1243.724403L731.171391,1243.158456L732.343596,1240.743742L738.607412,1238.885113L739.750402,1238.545972L747.157450,1236.357629L748.436015,1236.989608L749.768928,1236.631172L751.144058,1235.961463L752.597924,1235.678488L753.740550,1235.914301L756.991503,1235.678488L758.262092,1236.027491L761.800784,1238.225267L766.271727,1239.998576L768.597671,1241.281394L769.837920,1243.158456L770.284362,1243.328240L771.784968,1242.856617L777.545138,1241.649261L797.612827,1237.432936L817.683028,1233.226029L837.764528,1229.009675L857.840600,1224.793306L874.184114,1221.274938L890.521895,1217.737696L906.861243,1214.209877L923.202145,1210.691481L929.896000,1209.257709L929.482857,1208.078619L929.455541,1206.908960L930.065532,1205.597809L928.304069,1203.937646L926.874658,1201.919035L925.290494,1200.607881L924.135727,1199.985317L922.989365,1199.608006L920.416732,1199.372187L919.054076,1199.579708L917.685601,1199.966452L916.307759,1200.136242L914.949225,1199.711767L914.016590,1198.570400L914.009499,1197.268675L914.228243,1195.844322L914.045490,1194.382237L913.247182,1193.401224L909.778397,1191.891972L907.934893,1190.184630L906.058257,1187.713225L904.641307,1184.996561L904.103412,1182.544014L903.659860,1181.506397L900.465033,1177.554013L899.337267,1176.827679L895.583727,1175.686297L890.855541,1173.384664L888.758952,1171.828230L885.693212,1168.668194L883.264337,1167.206086L882.250909,1166.225058L881.553196,1164.876143L880.806533,1160.621870L879.764178,1158.188157L878.226733,1155.801607L874.790240,1151.528449L873.707996,1150.622878L869.027951,1148.500445L868.016583,1148.491012L867.559979,1148.094825L867.246882,1147.311882L867.304197,1145.717697L867.162332,1144.981919L866.186276,1143.821653L863.695888,1142.953812L862.576227,1142.180301L861.912560,1141.020034L861.143726,1138.454238L855.684427,1128.332529L855.091325,1127.540148L854.365653,1127.049626L853.098310,1126.785499L852.661408,1126.540238L852.250067,1125.993118L851.740015,1124.898876L850.545852,1123.021685L850.055259,1121.823678L849.299612,1120.955830L847.188767,1120.550206L846.882296,1120.342677L846.311021,1119.635192L845.931891,1119.380497L845.655251,1119.550294L845.358765,1119.833288L844.587267,1120.040817L843.370614,1120.550206L842.751197,1120.625671L841.685637,1120.210613L835.014934,1114.022474L834.533377,1112.777298L834.365217,1111.230261L834.058624,1109.909620L833.211173,1109.343630L831.695245,1109.117235L831.385514,1108.456914L831.620210,1107.475865L831.714526,1106.230688L831.308672,1104.919478L830.016902,1102.381956L829.679712,1101.249975L829.790372,1099.721801L830.260210,1098.014396L830.965713,1096.410756L831.740834,1095.241042L831.930627,1094.099627L830.641508,1093.420438L828.010160,1092.750681L827.894379,1092.203557L827.911980,1090.184855L827.806038,1089.298135L827.546135,1088.892508L826.617933,1087.968055L826.279503,1087.430363L825.964303,1086.090850L825.857940,1084.930567L825.603064,1083.779718L824.792054,1082.496803L825.440360,1082.572269L827.459872,1082.496803L824.827551,1077.553807L822.795779,1074.610649L822.671135,1072.639110L822.713278,1071.167530L822.871462,1065.630240L823.036253,1059.838253L822.969350,1059.583557L823.102663,1055.461247L823.373745,1046.141247L823.659189,1036.830687L823.934505,1027.520139L824.199908,1018.200174L824.310180,1014.181652L824.385809,1011.417741L824.438618,1009.483948L824.537561,1005.852193L824.901190,992.098728L825.260246,978.345329L825.614592,964.592366L825.964160,950.839152L826.308969,937.086024L826.649055,923.332978L826.984688,909.570577L827.315432,895.817684L827.641332,882.074295L827.963109,868.312108L828.279893,854.568852L828.405176,849.079129L828.592612,840.806792L828.900638,827.054222L829.204441,813.292275L829.503314,799.553959L829.798143,785.801542L839.746315,785.801542L849.694488,785.801542L859.634391,785.801542L869.574294,785.801542L879.514197,785.801542L889.454100,785.801542L899.402273,785.801542L909.342176,785.801542L919.290348,785.801542L929.238521,785.801542L939.178424,785.801542L949.126597,785.801542L959.074769,785.801542L969.014672,785.801542L978.962845,785.801542L988.894479,785.801542L991.482823,785.801542L990.619258,782.481350L989.323502,779.585616L987.607459,776.963422L983.366710,771.954847L981.797146,769.398683L981.137468,766.474661L981.750813,762.862080L983.401192,758.749590L985.078544,752.014922L986.663687,745.657555L987.691727,743.025946L991.450849,737.083609L994.256804,732.659873L994.945678,731.103549L995.204212,729.547225L994.510537,725.434759L994.304174,719.860297L993.536073,717.558828L991.561110,715.181902L989.885577,712.352230L989.553352,708.268071L990.370590,695.468538L991.103779,683.715999L992.920796,679.273430L993.072961,678.349074L992.748087,676.104210L992.552827,669.284731L991.911955,667.077597L991.111994,665.342073L990.536118,663.578253L990.584387,661.267367L991.044295,659.465818L992.544457,655.824994L994.843624,651.986094L995.213720,650.910825L995.252588,649.429972L995.090818,647.232274L995.139338,646.081548L995.350581,645.072304L996.248173,643.714070L998.803023,641.516372L999.598676,640.280757L999.571360,639.186624L996.213246,630.376971L995.796339,628.047224L996.387771,615.049688L994.827421,614.766723L994.396767,613.502812L994.822609,609.984612L994.855789,604.928967L995.177800,603.297202L995.725899,601.542818L995.453741,600.203449L993.948172,597.515280L993.472706,595.968403L993.012444,591.488121L991.487920,592.327584L990.806153,594.157426L990.407990,596.317394L989.717636,598.156667L988.948140,598.948970L987.219060,600.080831L986.442562,600.807108L985.943957,601.731461L985.291072,603.768810L984.735530,604.636570L982.012649,605.740134L978.818879,605.070450L975.518929,603.891428L972.468891,603.495277L969.314549,603.778242L966.650671,603.551870L959.912896,601.439064L954.954067,599.882755L951.843981,599.580926L948.591592,599.788433L945.189948,600.873133L939.773264,604.212122L930.868701,609.701647L924.265957,610.946693L916.191039,612.493570L912.603311,612.493570L909.530822,611.974800L907.946264,611.201362L904.972443,608.956505L903.350032,607.984991L901.437527,607.900102L899.629004,608.899912L897.870898,610.305306L896.160066,611.399438L893.224391,611.974800L890.123746,611.625810L887.092685,610.654296L884.126557,609.305495L878.079324,606.532437L875.137123,607.013477L872.466545,614.313979L870.096789,616.549404L862.020216,619.586564L860.834848,620.510916L857.234984,624.745962L855.715954,625.792934L853.675660,625.915552L854.896658,622.180411L855.249422,618.341517L854.461256,610.286441L853.970786,608.560354L852.677237,605.881617L852.432408,604.306444L852.183573,603.863132L851.024325,602.901050L850.775808,602.438874L850.838671,598.958402L849.245982,592.582253L848.541953,591.167427L848.552113,589.667711L849.971756,587.668090L851.869899,585.791087L853.332790,584.621498L856.717291,583.055757L858.718195,582.395504L860.247931,582.131403L861.049065,581.357965L861.312112,579.613012L861.141954,576.113674L861.271282,575.830709L861.712123,575.274210L860.444012,572.916165L860.301530,569.699792L860.412438,567.779419L860.515548,565.992944L860.300846,562.135181L859.571375,560.220447L858.597452,559.013128L857.814478,557.786943L857.673867,555.843912L858.253644,553.948042L860.109206,550.656208L860.522455,549.279108L860.629624,548.345320L861.074780,546.553203L861.183674,545.515662L860.936342,544.459256L859.794668,542.846350L859.153134,540.092148L857.333893,536.356996L855.979629,532.065342L854.074440,527.962331L852.675575,523.802725L853.280090,520.841009L852.908945,519.709143L852.267165,515.860796L850.706420,510.872632L850.111674,507.656232L849.530692,505.628296L848.459111,504.185160L845.392597,501.968578L844.078015,500.666925L843.198477,500.167015L842.615586,500.827274L842.048380,501.025351L841.260383,500.506577L836.744518,494.460491L835.814337,491.904345L835.711472,488.952042L835.208850,489.263307L833.955485,489.838676L833.453015,490.140509L832.372092,486.593971L827.371830,480.585605L825.436037,477.001334L824.656447,473.200119L823.857512,465.192096L822.926325,461.475766L822.401059,460.541968L821.068190,458.683802L820.742987,457.683977L820.868108,456.533235L821.734295,454.656204L822.296228,451.477513L824.861991,445.789823L825.765246,441.950866L825.845012,438.225095L824.999749,429.047432L826.304376,418.596393L826.181361,413.851919L826.940224,406.598436L827.793132,404.400696L828.450001,401.382340L829.023411,400.750371L829.934945,394.949465L830.974531,388.261913L831.884592,385.498226L833.386284,382.574189L832.780950,382.517595L832.459346,382.357244L832.212988,382.159164L831.808351,381.998814L833.814387,374.981121L834.184730,370.962924L833.598469,367.048482L831.678170,363.511335L830.779290,361.190965L831.225287,360.134537L831.864428,359.745332L832.464454,359.379945L831.689829,357.691546L829.374230,355.097636L828.739977,353.456399L827.933845,349.108061L827.802445,345.212478L827.590078,343.674996L827.116124,342.448783L825.124190,339.798276L824.273090,338.185334L823.765282,336.355446L823.619566,334.138829L823.093327,333.082398L820.589064,331.469455L819.817745,330.733727L819.473099,329.111352L819.319928,322.895388L819.596901,322.018173L820.782741,320.216581L821.062085,319.150717L820.975909,318.084853L820.498996,315.726747L821.023001,311.717967L821.498739,310.218211L822.423924,307.322456L823.080767,305.285051L824.152900,301.917673L825.130131,298.823836L825.713767,297.010097L826.089244,295.843187L826.259762,294.145348L826.532262,293.607700L827.720263,292.268294L827.994732,291.570293L828.036912,288.136886L827.840288,287.231372L827.580525,286.731453L827.404653,286.165507L827.476760,285.024181L827.755307,283.986613L828.509029,282.137855L828.672823,280.968232L828.496441,280.440016L827.725567,279.600528L827.549169,279.072312L827.646058,278.619554L828.071576,277.789499L828.169714,277.232985L827.983974,276.101092L827.518535,275.421956L826.961227,274.780550L826.508278,273.752414L826.680485,273.252494L827.087174,272.601655L827.295675,271.847060L826.865454,270.998140L826.423742,270.413328L824.664263,266.055538L824.165549,265.366969L823.547568,264.923644L823.026500,264.716130L822.740912,264.272805L822.769650,263.952102L821.124918,263.895507L818.423905,263.914372L812.581668,263.933237L806.731123,263.952102L800.872269,263.970967L795.030037,263.989832L789.171186,264.008697L783.320647,264.027562L777.486729,264.046427L771.627883,264.065291L765.785767,264.074724L759.935233,264.093589L754.084593,264.121886L748.234170,264.131319L742.383641,264.150183L736.541316,264.178481L730.690897,264.187913L724.840372,264.206778L721.100615,264.225643L721.059277,259.735797L721.015889,255.406303L721.561484,251.152267L723.303311,246.171931L724.590632,242.455544L726.847054,235.975447L728.785605,230.419729L724.139012,230.438593L717.190006,230.457458L710.465324,230.485756L706.234434,230.495188L705.301789,230.655540L704.630513,231.249785L703.967527,232.626924L703.587833,233.938036L703.198283,236.946990L703.192451,238.267534L699.327584,238.267534L695.936475,238.267534L692.561990,238.267534L689.187504,238.267534L685.813018,238.267534L682.430221,238.267534L679.047423,238.267534L676.556325,238.267534L675.672937,238.267534L672.290140,238.267534L668.915654,238.267534L665.541168,238.267534L662.158371,238.267534L658.775573,238.267534L655.401088,238.267534L652.026602,238.267534L648.652116,238.267534L645.269319,238.267534L641.071990,238.267534L642.513980,241.889597L642.695063,242.861140L642.164482,244.332603L639.912331,247.511340L638.963895,249.199749L638.143707,252.133242L637.114973,266.923323L637.333375,269.819084L637.923061,272.950656L639.993205,279.015717L639.912661,281.845449L637.605325,283.901721L637.538443,283.939451L637.471458,283.986613L637.412680,284.043208L636.298452,285.646722L635.420266,289.221617L634.250410,290.589320L632.700577,290.994915L627.156001,290.485563L626.972117,292.871970L627.601758,295.314970L628.488850,297.757971L629.085884,300.125511L629.094734,302.332700L628.777528,304.719105L627.128350,310.331400L626.333517,313.066804L625.107057,317.245368L624.842299,320.103392L625.065094,322.442632L626.712258,329.535810L624.519402,329.535810L614.261153,329.535810L604.011211,329.535810L593.752962,329.535810L583.511326,329.535810L579.956241,329.535810L578.734271,327.366354L578.248261,326.243897L577.894376,323.678279L577.193797,323.178361L571.437281,323.178361L565.149140,323.178361L559.351193,323.168928L558.362626,323.942387L558.177252,325.715681L558.572012,329.130216L556.984789,329.196243L556.495643,329.111352L551.569085,329.196243L550.229417,329.413189L548.456924,330.479052L547.214898,330.884646L546.177442,330.809186L543.184672,329.507513L539.257632,329.337730L533.263326,329.073622L531.965320,329.281135L528.665453,331.044997L527.423993,331.403429L525.951504,332.393832L525.181402,334.497260L525.062756,337.034579L525.552992,339.326655L518.350046,339.505871L516.212955,338.968224L512.152018,335.025476L509.798450,333.742667L507.119103,333.412533L505.811861,333.714370L500.778850,336.817634L499.788960,336.959120L497.076794,335.808366L494.662064,335.591420L487.814516,338.298522L485.546555,338.345685L481.066264,337.091174L480.451693,336.289419L480.427139,336.235627L479.810167,334.883989L480.775804,332.280643L480.509435,330.733727L479.860176,330.064026L478.101563,329.035892L477.296296,328.186975L476.881799,327.300328L476.180657,324.395143L475.802318,324.838466L475.307494,325.300655L475.079156,325.696817L474.836824,325.027115L474.664995,324.772440L474.709233,324.508332L475.098287,323.829198L473.380337,322.867091L472.663716,322.272848L472.370825,321.669173L472.807146,320.424094L473.563397,319.575176L473.870690,318.763988L472.960489,317.594367L471.785188,317.990529L471.526340,317.301962L471.579710,316.132342L471.349192,315.104207L470.570509,314.887262L469.507288,314.877829L468.952704,314.679748L469.708617,313.859127L469.714884,313.236587L468.186538,313.217722L467.804433,312.387669L467.882246,311.255778L467.766236,310.397427L466.973252,309.944671L465.123705,309.642833L464.763071,309.152347L464.463875,308.331725L463.024594,306.869699L462.604208,305.700078L462.903115,304.879457L463.426703,304.021105L463.418025,303.219349L462.086706,302.587376L462.439551,302.191214L462.440017,302.144052L462.267133,301.983700L462.099554,301.285700L460.896884,301.927106L460.720020,300.483944L460.815842,298.342781L460.448191,296.861889L460.764094,295.145186L459.182061,293.796348L455.282113,291.570293L454.104857,289.589482L452.809323,285.212830L451.748880,283.156558L451.000248,282.373666L450.324221,281.817152L449.814728,281.222908L449.631891,280.355124L450.074301,279.270393L451.009877,278.751608L451.960548,278.393176L452.398021,277.827229L452.105166,277.166958L451.377974,276.742498L449.670981,276.242579L449.034909,275.846416L448.556533,275.469118L448.072978,275.638902L447.412697,276.921715L446.282432,276.063362L445.820644,274.808847L445.824170,272.614468L445.825748,271.620681L445.481366,270.243544L444.617416,269.328597L442.550542,268.196703L439.853497,266.017808L437.708034,265.282077L437.360753,264.197346L437.373844,262.782478L437.179329,261.348746L435.893636,259.283040L434.915700,258.085119L434.139446,257.547469L433.731091,256.764576L433.925272,251.878566L432.333806,245.907823L432.520600,243.625169L435.090024,244.408062L435.199389,242.417814L435.778565,240.861459L436.098884,239.437158L435.423406,237.833641L435.005847,237.126206L434.688187,236.399907L434.194458,235.843392L433.273797,235.626446L432.562522,235.230282L432.561853,234.371929L432.852090,233.513575L433.046616,233.136277L432.486055,227.920127L431.541549,225.684634L429.610070,224.137710L428.697700,223.911331L426.762910,223.684952L425.893083,223.345384L424.970579,222.373840L424.632143,221.147620L424.510714,219.817643L424.214781,218.478233L419.852827,211.469914L419.242116,209.979584L418.898600,208.347768L418.694517,204.980378L418.359053,203.367427L417.204404,200.311308L416.959175,198.830411L417.271891,197.236324L418.277169,195.340398L418.326104,194.463179L417.611495,193.425607L416.787364,192.557820L416.287305,191.708898L416.262630,190.680759L416.797506,189.350782L415.052244,189.265889L415.059695,188.369805L415.801845,187.105854L416.277307,185.917363L416.120870,184.728872L415.697852,184.606250L415.164639,184.738305L414.635640,184.361006L414.185205,183.530949L414.046741,183.181948L414.125604,179.663637L414.440762,178.748687L415.141520,178.465713L415.882070,178.399686L416.342091,178.069549L416.457619,177.164033L416.290360,176.267948L416.039556,175.419026L415.921163,174.645563L415.925761,167.957942L416.137489,166.458180L416.720641,165.297986L416.921662,164.090630L416.217653,162.713489L414.826838,160.911887L414.470802,159.685666L413.610817,159.081988L412.541117,158.704689L411.605971,158.138741L410.250808,156.016435L409.284387,155.195810L407.689166,155.016593L409.403356,152.781098L409.102841,151.875581L408.386767,151.988771L407.626650,152.413232L407.160506,152.469827L406.919157,151.441687L406.639920,145.716178L406.496885,144.867255L406.105236,143.905143L405.340807,142.754382L405.337058,142.169569L406.429470,140.726401L406.701633,139.952938L403.728945,138.283391L403.141314,137.915525L400.108194,136.519519L398.680694,136.132788L397.234008,136.076193L395.635079,136.349734L393.050279,137.208089L391.842830,137.406171L390.530670,137.160927L388.783714,136.132788L387.520041,134.982026L386.138394,134.029347L384.087710,133.557723L379.363059,133.642616L372.009916,133.774670L366.794408,133.875252L364.673347,133.916157L357.328473,134.057644L349.991928,134.199131L342.638761,134.340618L335.302239,134.482105L327.957481,134.614160L320.612666,134.755647L313.267931,134.887702L305.923139,135.029189L298.586743,135.161243L291.241975,135.302730L283.897219,135.444217L276.552540,135.576272L269.216124,135.717759L261.871403,135.859246L258.852432,135.916052L254.352041,136.000733L244.107902,138.123039L241.623075,137.849497L236.518276,136.378032L232.854052,137.094900L225.569725,136.925115L217.179318,136.745898L215.600703,136.510087L210.856119,134.604727L209.011331,134.368916L199.433238,135.189541L198.238944,134.680187L196.317553,133.435101L193.205631,132.369232L182.220860,133.359641L168.885250,134.576430L162.536000,133.812400L161.769712,133.991617L160.293214,134.689620L159.319844,134.736782L156.954765,133.906725L150.526630,133.774670L147.882208,133.718075L147.347338,134.133104L145.704875,136.113923L144.810446,136.840223L142.283286,135.321595L138.937506,134.368916L132.146622,133.718075L132.066348,133.721841L132.061119,133.724796L130.918673,134.207560L127.645201,136.198035L126.246603,136.807060L125.342346,136.896186L122.400530,136.588602L120.982013,136.391551L119.649596,137.094411L118.141286,137.297490L116.105624,137.802553L115.035111,138.904539L114.494824,140.605622L112.887830,142.808505L111.368970,145.110899L107.722293,146.915033L106.030632,148.316903L102.478624,149.722641L98.750788,150.626969L96.442729,151.329488L94.317481,150.932106L92.282490,150.234484L90.602195,149.536450L88.647474,149.470337L87.623022,149.960529L83.408884,152.546887L80.924757,152.951010L79.147923,153.653997L76.655660,155.458124L71.500860,156.771358L67.416710,156.879423L64.568384,157.787086L62.789649,157.991528L62.984518,155.386636L63.526734,153.983468L61.831114,155.088611L60.028675,155.642293L58.793242,157.299377L59.128440,160.305244L62.283510,166.916002L64.307984,170.019613L66.243121,173.081221L68.374851,176.436091L70.465498,181.595733L73.332107,189.331805L80.673143,204.562583L86.227065,213.888382L93.133257,221.134808L98.923725,230.307318L100.521991,231.087167L102.883048,229.378927L103.257918,230.084504L103.196871,230.403871L102.965906,230.686102L102.763274,231.621921L102.524516,232.089830L101.983000,232.810262L101.764076,233.248463L101.879782,233.560403L102.119686,233.894624L102.247427,234.362533L102.407717,235.825678L103.180712,238.618279L104.390378,256.803724L104.802708,259.197259L104.360224,262.358658L105.880553,264.463888L107.063030,265.994225L109.261462,268.673398L111.431839,277.878197L115.136786,288.345473L125.907585,316.335658L131.161765,327.142093L131.829059,331.323550L133.208361,334.754869L133.763346,335.705537L134.712324,338.111916L135.338607,339.136855L135.999755,340.711399L137.098316,344.840863L138.052943,345.680124L145.381480,358.878059L146.128902,361.031914L146.485395,363.007518L146.350227,369.877567L146.127071,370.768816L145.530549,371.741764L144.921378,371.875451L144.157384,371.756618L143.076412,372.016565L143.856194,374.957688L144.877228,381.085023L145.763121,383.803331L148.091924,387.502012L148.466159,388.853738L148.225729,390.220318L147.013429,393.629341L145.914775,398.263828L143.979701,399.043669L139.011963,398.241547L138.442301,398.352953L138.106262,398.664889L137.945264,399.147648L137.900661,399.778949L137.689592,400.766747L137.176553,401.138100L136.534618,401.294069L135.054662,402.370992L132.376169,403.722717L131.232339,404.480277L132.188292,402.757199L136.227229,398.241547L134.778027,398.776295L133.368918,399.979479L130.971077,402.920594L130.643009,403.834123L130.748975,405.973115L130.661976,406.975767L130.202328,407.985847L128.162008,410.392212L127.172460,412.219267L126.277408,415.219796L125.096993,416.437832L124.258857,416.616081L123.167096,416.645789L122.203761,416.942871L121.790121,417.923242L121.599143,418.851623L117.015377,427.459567L116.171915,428.261687L115.148564,427.192193L115.705270,424.778405L118.659118,417.195391L124.483481,411.758790L126.260058,408.847385L122.217101,410.793273L117.654868,416.928017L114.547882,424.087690L114.824214,429.182640L116.448177,431.826666L118.689195,437.872273L124.626866,449.191066L126.442393,450.758168L126.770749,452.756037L128.251276,455.949656L128.571792,457.353363L128.345147,461.445649L128.459976,463.183571L130.989108,471.635509L130.901031,472.682717L131.555006,473.314012L132.194096,474.843975L132.667060,476.671018L132.770112,478.230688L132.212660,479.864629L130.389588,482.018458L129.976385,483.592982L130.554868,485.293764L136.849661,493.782815L139.015177,497.503736L140.720763,501.477171L141.331365,505.190661L140.823063,507.091967L140.066041,508.376834L139.857019,509.721116L144.533090,518.334897L147.592730,521.922111L148.847382,523.793701L149.723378,528.249865L150.701815,530.292272L154.954422,537.162186L155.606924,539.115469L155.860716,541.105886L155.947318,547.270235L156.327851,548.978428L157.490331,550.820305L162.559157,555.521546L170.048108,565.807828L170.376696,566.817888L170.875927,567.738826L174.171170,570.850703L175.121467,572.298951L175.647470,573.747199L175.474595,575.240009L173.004436,578.522704L172.321895,580.067501L172.330964,581.627153L172.938371,583.372477L179.971984,595.262958L181.126784,598.189160L181.493969,601.508987L181.333386,608.200631L181.201007,613.518297L179.068087,626.530240L179.026103,629.025681L178.804681,630.117437L177.263976,632.471767L176.861106,633.459547L176.766443,634.306214L176.740970,639.274818L176.506318,640.374001L176.134339,641.502892L176.063593,642.527806L176.693061,643.352193L175.982733,644.963834L175.632094,647.043370L175.175829,656.906315L176.332855,673.431221L176.120697,675.325088L175.304950,678.058198L173.909010,687.148766L173.251922,689.154040L172.448553,690.862236L171.484693,692.369905L170.307380,693.743890L169.703052,695.169863L168.815747,701.527330L167.840455,704.468403L165.387232,709.882654L163.393398,717.101661L162.607448,718.445942L159.947055,721.669246L158.306816,724.610327L157.031697,725.991745L156.645218,725.122789L156.772094,724.365237L157.313657,723.793360L158.158577,723.451720L158.166467,722.827854L157.619096,722.827854L152.506502,728.294108L150.947763,730.982674L150.320622,732.653745L149.973254,734.354525L149.768859,738.127435L149.450871,739.560844L148.674100,740.697174L146.889393,742.197427L143.251819,746.460524L140.913163,748.495523L138.052102,749.104537L136.709320,748.658917L135.343770,747.440888L133.952980,747.180943L132.951276,747.574575L130.381963,750.352274L129.450694,749.817530L127.682951,749.490742L127.616177,749.104537L126.056537,749.319921L124.690603,750.188880L122.355350,752.506107L121.838255,753.219100L120.422678,755.959667L119.763319,756.590964L117.663260,757.831275L112.355480,763.446104L110.424932,764.686417L106.671853,768.934679L105.685144,771.251914L106.234484,774.148460L107.373743,776.733071L108.091086,779.198852L108.047193,781.605217L106.908711,784.056146L101.891305,790.413713L100.486087,792.849793L99.652981,793.837594L97.343874,795.686936L91.992011,803.277419L91.044684,804.042410L89.597069,804.733130L89.504011,804.881672L88.005572,805.980882L87.583782,805.876903L87.041181,805.550110L86.571902,805.594673L86.357064,806.604758L85.822864,807.644553L83.520557,808.996286L82.988089,810.407436L82.791064,811.046167L82.037292,811.952275L81.853763,812.553870L81.975201,813.229738L82.207959,813.853615L82.387864,814.536910L82.311790,815.383601L81.652894,817.002713L80.825838,817.537466L79.774648,817.789988L78.456371,818.562409L77.325857,819.914146L76.883665,820.887100L76.283776,821.473843L74.614917,821.681803L73.470747,822.082868L72.591471,823.137521L72.026580,824.541249L71.799235,826.011823L71.956513,827.430407L72.693196,830.326993L72.870373,831.708444L72.793393,834.605034L72.580677,834.946683L72.432450,835.332896L72.541196,835.971631L73.344307,837.249104L73.028750,838.482013L71.858520,840.873562L71.590449,841.957929L71.757736,850.929969L71.044586,860.466503L70.480385,863.719627L69.113461,865.717552L68.526942,865.799251L68.010975,865.472453L66.931180,864.506913L66.321431,864.380650L65.881122,864.714876L65.413001,865.182791L63.504664,865.851242L62.826542,866.943045L62.560017,868.383929L62.412956,871.577644L62.166187,872.513477L60.788189,874.860489L60.307755,876.241959L60.067945,877.623429L59.679543,878.930628L58.044023,881.084536L57.614430,883.030482L56.308368,885.347793L56.785007,886.640141L57.743614,887.873070L58.363627,889.135710L58.404881,889.923003L58.347572,890.784570L58.160615,891.616427L57.819430,892.314594L57.445340,892.567122L56.480363,892.760232L55.786044,893.131597L55.424563,892.938487L55.151977,892.901351L55.032397,893.562381L55.103306,894.082292L55.449014,894.951287L55.552928,895.434062L55.624507,896.377331L55.784067,897.068071L56.348995,898.538680L57.151769,901.613593L57.370680,904.584526L57.029241,910.437274L56.079949,916.498002L55.105430,919.706629L53.811922,922.023974L53.404606,923.256921L52.801171,930.550632L51.419514,937.235315L50.759563,939.314998L50.554802,940.458825L50.666843,942.167138L50.981111,943.816034L50.990375,945.435220L49.356956,948.331933L48.644950,950.857275L47.932683,952.045672L47.363726,952.305634L46.839952,952.134802L46.300512,952.149657L45.697351,952.981536L45.499547,953.635155L45.475727,954.838408L44.669388,959.844546L44.209718,961.084941L43.462143,962.020808L42.545797,962.949248L41.764689,963.959391L41.428547,965.192361L40.953511,968.385850L38.775782,973.874818L37.947688,976.771572L37.718033,978.710171L38.105724,978.843868L38.954310,978.546764L40.132934,979.215247L40.601881,980.448227L40.643006,982.067442L40.263428,983.590100L39.509258,984.533405L38.853409,984.533405L37.643322,983.805500L37.043508,983.968907L34.254003,986.880529L33.535054,988.083802L33.086090,989.472766L32.148461,1000.205693L31.019870,1005.382765L30.707059,1008.079005L31.495480,1010.485568L30.511132,1012.936699L28.811516,1019.799873L28.505634,1022.444129L27.429238,1024.538737L22.474970,1027.747500L20.820086,1029.916387L20.586959,1031.179096L20.470719,1033.726798L20.199182,1034.952369L19.490341,1036.348777L15.403176,1040.627136L14.249004,1041.013377L13.341597,1040.523148L13.002166,1038.933619L12.302882,1038.406251L10.676327,1039.141595L8.972098,1040.300317L8.025392,1041.132220L6.648509,1046.428179L6.676552,1050.361347L10.381581,1056.972159L12.120257,1061.187052L10.267180,1065.316864L9.868442,1066.794980L9.789172,1068.585061L12.662073,1103.198184L11.863158,1112.765042L12.464287,1121.440559L11.992840,1123.787698L12.106848,1130.796069L10.710231,1134.680708L9.714388,1133.042302L9.382408,1129.157621L7.960103,1129.589444L7.916364,1132.352126L8.757729,1138.827507L8.015600,1145.906273L6.868740,1153.750706L6.621939,1165.820479L6.021144,1169.333699L5.917456,1170.536956L6.061087,1171.658511L6.460552,1172.572094L7.098845,1173.129157L7.087843,1173.805060L7.092537,1173.809739L8.150012,1174.007237L9.517935,1174.818468L10.369848,1175.007127L11.547627,1174.875066L11.956948,1174.478883L12.139476,1173.875176L12.620135,1173.139408L14.101474,1172.045187L17.393637,1170.328392L21.194071,1167.215518L24.478115,1165.517585L28.148423,1164.338464L31.841253,1163.791352L32.402907,1163.640424L32.874899,1163.442331L33.441483,1163.489496L34.254010,1164.074341L36.968791,1164.979906L37.876901,1164.762948L38.311423,1164.347897L38.702152,1164.093207L39.429541,1164.357330L39.930800,1164.866710L40.109472,1165.489286L40.229312,1166.187326L40.529718,1166.904231L40.965315,1167.404178L41.736103,1168.017320L42.623251,1168.554998L43.458078,1168.781389L44.207971,1169.168140L44.571676,1170.026538L44.779152,1170.884936L45.035863,1171.262254L50.776774,1170.649112L55.928243,1170.856637L57.088163,1170.337825L58.190084,1169.366232L59.013244,1169.309634L60.883052,1170.545350L62.369826,1171.101894L67.032220,1171.535809L69.831727,1172.243279L70.836388,1172.148950L72.787485,1171.054729L76.407037,1167.640002L78.368534,1166.904231L80.380374,1166.583510L81.891700,1165.734543L84.733334,1163.112177L88.301983,1161.244447L91.023825,1160.310581L91.563741,1159.537076L92.236822,1158.207023L92.981184,1157.499548L93.594886,1157.207125L95.017844,1156.726042L95.717964,1156.197793L96.061409,1155.377121L96.219367,1154.348923L96.621550,1153.462219L98.531504,1152.886805L100.092687,1152.037833L102.587486,1151.415253L106.821560,1148.726838L115.404963,1147.076056L117.226659,1146.396877L118.964371,1146.274247L120.423348,1147.472244L121.487364,1146.849663L122.061996,1147.368480L122.572402,1148.255186L123.419274,1148.726838L125.198430,1149.038129L126.143768,1149.066428L126.972402,1148.726838L126.960090,1149.406017L129.010786,1148.349517L130.242295,1148.019360L130.778108,1148.406115L131.278967,1148.453280L133.231359,1147.885533L134.652616,1147.472244L136.098102,1148.038226L138.863723,1150.170093L140.277747,1150.651178L142.164708,1150.905869L143.811800,1151.679378L144.972945,1152.933970L145.950723,1156.537381L147.079292,1157.763672L147.742381,1159.254086L146.929048,1161.867024L153.627019,1166.017532L160.480120,1172.337608L168.048754,1177.035203L175.432799,1181.638457L176.408862,1182.600611L179.953884,1187.996210L181.093352,1188.996092L182.934743,1189.401704L183.925074,1189.194182L185.208303,1188.298061L185.927425,1188.090539L186.821107,1188.203733L188.265937,1188.713107L189.987331,1188.948928L191.268840,1189.401704L192.214029,1189.401704L193.090811,1189.118719L194.356075,1188.307494L194.902813,1188.090539L198.407971,1188.731972L200.172835,1188.430121L200.956613,1186.619014L201.039728,1186.156803L201.943686,1186.166236L201.968412,1186.166236L207.401432,1186.166236L227.802031,1186.175669L248.210843,1186.185102L268.619847,1186.185102L289.020429,1186.194535L308.535973,1186.203559L309.421005,1186.203968L329.821574,1186.213401L350.230567,1186.213401L370.623121,1186.213401L391.023677,1186.222833L411.424447,1186.222833L431.833212,1186.232266L445.312716,1186.238497L452.241970,1186.241699L472.642734,1186.241699L493.043262,1186.251132L502.692886,1186.255594L513.443784,1186.260565L533.852519,1186.269998L538.101991,1186.269998L538.725218,1186.326595L538.825993,1186.883134L539.091850,1187.732090L539.600444,1188.090539L540.106360,1188.552748L541.324200,1192.005166L541.439573,1192.948449L541.664820,1193.137105L543.547194,1193.759671L546.124227,1199.598573L546.352743,1200.607881L547.396348,1201.239876L551.447077,1205.031845L551.684288,1205.701570L552.044706,1207.314568L552.450227,1208.144647L553.184375,1208.974727L554.634283,1209.767075L555.383020,1210.351904L559.803829,1215.624778L561.328007,1217.945214L562.393111,1218.982806L565.460319,1219.794014L572.445535,1223.689690L582.763274,1225.793162L589.492322,1225.415858L592.243022,1224.236782L593.962267,1223.840612L594.856829,1223.868910L597.207864,1224.406569L600.772209,1224.123591L602.004270,1225.029121L614.514812,1229.179461L628.154308,1228.981377L632.711080,1227.858900L634.532034,1227.651383L636.153620,1228.113580L636.822357,1229.754848L637.526661,1230.415128L639.154258,1231.245193L640.975981,1231.886607L642.229373,1231.999798L642.637087,1231.518737L643.612793,1229.820876L644.124383,1229.443573L656.682384,1229.443573L659.610839,1231.311221L662.364473,1232.386532L663.132988,1232.509155L667.779509,1231.999798L669.954834,1232.037528L670.994771,1231.858309L672.135570,1231.311221L672.707212,1231.999798L673.905282,1230.886756L675.818153,1230.339667L677.942095,1230.452858L679.790028,1231.311221L682.622801,1228.764427L683.459354,1229.377545L684.562098,1229.302084L687.230469,1228.764427L688.139751,1229.132298L691.161457,1231.999798L693.231057,1231.433844L695.183018,1232.377100L696.922445,1234.131553L698.411516,1236.018059L699.187502,1236.725497L701.878380,1238.225267L704.122830,1240.102333L705.108360,1240.658850L707.129122,1240.074036L710.262746,1239.904251L713.127955,1240.206091L714.370053,1240.970122L714.938774,1241.734153L716.234240,1242.356696L717.524389,1242.601940L718.126742,1242.224641L718.750126,1241.413449L720.084817,1241.819045L722.442888,1243.158456L724.108121,1244.875163Z M98.825272,0.000000L96.904675,1.254514L95.978524,3.357947L95.318300,5.536839L94.220559,7.008299L92.759315,7.951543L91.438312,9.140030L90.307339,10.602058L88.540880,14.280708L87.644999,15.337141L86.377321,15.865358L77.438211,17.714116L71.943668,19.742090L70.736351,19.864712L68.557546,19.553442L67.793813,20.826821L67.873852,24.741284L67.481364,26.646637L64.080919,34.192591L63.234706,35.315052L62.083796,35.814971L59.352750,36.135674L58.127826,36.465810L56.960241,36.975162L56.241048,37.673163L55.236703,35.541430L54.509737,34.494429L53.755117,33.975645L52.798151,33.975645L52.421585,34.390672L49.927564,43.747658L47.785946,47.614961L38.664585,56.345180L37.978022,57.351925L39.662957,57.647227L40.823485,57.467907L41.767743,58.060679L42.557139,58.000762L42.981863,57.169729L43.611482,57.406765L44.131526,58.356274L44.489234,60.196346L45.066451,60.492527L45.542226,60.017284L45.499789,58.058740L45.664736,56.752885L46.300660,55.743749L47.141327,55.802592L47.876021,56.098714L48.240294,56.928933L48.284251,58.708717L47.544887,59.184571L47.433601,60.430779L46.585102,61.915026L45.268960,62.863520L43.690361,62.451635L43.174482,60.315744L42.652085,59.781585L41.603247,59.425728L40.025537,59.071177L39.071820,58.777544L39.053675,59.757925L42.771424,66.492261L47.157742,72.428585L47.757540,76.782007L50.922802,83.130902L50.850967,85.594441L52.832517,91.709966L54.242337,94.917986L55.442910,98.171073L55.672369,99.329707L55.656677,102.189156L55.335868,103.355217L54.551203,104.305891L53.441421,104.825790L52.517487,104.900062L51.631956,105.137730L50.643775,106.177530L48.764943,111.955845L49.905266,117.734161L53.766746,125.205865L53.786226,125.235573L53.787313,125.237676L57.697496,122.795275L64.582277,121.691676L71.909492,121.776568L77.822839,121.842596L78.154016,113.391103L78.387280,107.467513L78.833833,96.101390L79.268730,85.197460L79.577710,77.415678L79.857175,70.407358L79.341309,67.341809L78.372098,66.558915L73.423993,64.578098L72.968963,64.097043L72.657439,63.229256L72.512917,62.248281L72.558646,61.474819L72.962747,60.588168L73.471240,60.408951L74.069798,60.503276L74.744245,60.408951L81.514499,57.767863L84.529865,55.588965L85.854641,52.147252L86.105870,50.289060L86.824752,49.671234L89.929811,49.407126L91.905880,48.652530L92.502267,47.605528L92.676407,46.162364L93.385798,44.209848L94.598338,43.087386L98.230707,40.710410L98.985505,39.606814L99.163242,37.484514L99.698372,35.437674L100.623944,33.513455L101.981030,31.815615L104.427551,30.249830L120.261031,26.071258L123.146693,24.892203L123.834752,22.279417L120.101115,20.166550L114.854222,13.016762L111.681746,10.139868L110.119259,8.121327L108.693722,3.735244L107.529636,1.895919L106.277034,1.084730L105.311010,1.197919L104.343064,1.688406L103.093156,1.980811L101.987568,1.716703L100.510272,0.809245L99.929921,0.452757L98.825272,0.000000Z "/></g></svg>