<?xml version="1.0" encoding="utf-8"?><!DOCTYPE svg  PUBLIC '-//W3C//DTD SVG 1.1//EN'  'http://www.w3.org/Graphics/SVG/1.1/DTD/svg11.dtd'><svg enable_background="new 0 0 1000 2411" height="2411px" pretty_print="False" style="stroke-linejoin: round; stroke:#000; fill: none;" version="1.1" viewBox="0 0 1000 2411" width="1000px" xmlns="http://www.w3.org/2000/svg" xmlns:xlink="http://www.w3.org/1999/xlink"><defs><style type="text/css"><![CDATA[path { fill-rule: evenodd; }]]></style></defs><metadata><views><view h="2411.61734651" padding="0" w="1000"><proj flip="auto" id="robinson" lon0="-63.9693793267"/><bbox h="550.29" w="228.28" x="-999.01" y="365.59"/></view></views></metadata><g class="" fill="#000" id="country"><path d="M870.476227,2387.713446L869.792443,2390.247386L868.027112,2391.697084L864.579677,2391.771597L862.399019,2395.368090L864.867544,2397.893898L871.124728,2400.635894L876.273977,2396.295851L879.290857,2396.322938L885.087895,2393.282099L900.956367,2393.011169L904.574676,2394.264178L910.867888,2391.304190L910.564597,2388.330035L906.892696,2388.180972L899.284349,2389.529256L897.701743,2388.662033L894.729515,2388.092889L888.485153,2388.113216L877.139004,2389.319230L870.476227,2387.713446Z M773.461135,2409.617347L778.865183,2408.040892L783.976224,2405.847630L790.118795,2405.678447L795.597287,2404.392595L800.272118,2401.800238L806.050294,2401.150383L813.000656,2402.287609L819.525227,2402.409450L826.289103,2401.475314L831.987053,2398.929825L834.440215,2392.753780L835.166184,2385.070621L830.028955,2382.291734L823.479907,2381.878243L803.586454,2383.355909L788.634205,2379.573317L773.479122,2375.030152L758.414873,2368.606180L743.291933,2359.748855L729.949534,2353.419689L716.583308,2348.236022L701.383175,2341.398456L686.180263,2332.496305L672.548942,2323.098122L658.800264,2314.388187L653.163099,2311.356417L647.790340,2307.540168L633.039422,2290.428382L631.728422,2289.547974L618.645117,2288.742588L612.388861,2286.367090L609.464074,2283.636094L608.115012,2280.515224L608.493485,2276.075047L609.412121,2271.981893L613.754842,2269.487093L620.709893,2273.840716L615.714449,2266.991805L609.898221,2261.117402L591.023118,2246.737891L586.533691,2243.772339L595.229453,2264.578089L603.857415,2285.035801L611.987671,2304.145504L620.167868,2323.220661L628.115727,2341.616006L636.325300,2360.475301L645.256979,2381.579980L651.933408,2397.243867L653.193642,2395.869224L660.191445,2396.038522L668.217624,2394.656991L674.308650,2394.745033L686.809116,2396.884982L699.025751,2398.286611L736.210805,2400.723900L747.507194,2402.186075L766.581397,2408.311540L773.461135,2409.617347Z M660.720412,1280.163038L658.183291,1277.489004L654.186080,1275.758572L646.128647,1273.840134L647.145213,1275.607137L650.677028,1279.795516L659.192856,1284.261968L662.450900,1284.809247L660.720412,1280.163038Z M169.179103,0.000000L167.646067,2.050197L166.335341,10.638162L164.575112,18.394688L162.324434,22.846502L153.665383,26.122664L145.646258,29.570904L141.116416,30.373825L139.055666,34.266579L138.557159,39.679220L136.992676,44.568586L125.671231,51.924272L123.312963,55.035789L122.703818,62.276997L116.928580,71.303659L115.221621,74.816893L128.459270,88.009861L125.312764,105.907546L120.353210,134.463750L116.590255,156.547212L115.896267,159.495235L115.104749,163.827705L102.216917,170.082735L83.436850,179.221840L73.832220,183.992471L61.761537,190.140714L59.272274,195.162810L55.907132,197.874816L52.273835,201.390457L51.199834,205.200365L47.703517,207.611210L45.341268,216.250427L46.189656,222.888087L48.977984,227.409069L53.058329,229.317977L54.970676,234.736278L56.672859,238.561807L59.829006,241.568985L59.451417,243.980518L57.449157,245.789195L53.441161,246.794025L51.351024,252.213051L49.917754,265.686024L50.051849,270.509824L55.394051,282.706141L58.255135,289.281878L66.881300,313.130358L68.573126,319.620184L62.611284,328.680037L60.516164,334.193418L60.189627,339.053463L60.787608,342.901252L61.960654,346.425958L69.645135,357.595585L78.157709,367.601807L82.375941,372.827214L83.434633,379.861139L82.325609,383.880369L78.822390,385.366019L70.951019,388.100430L68.129521,392.119403L64.449411,392.729414L60.349339,389.507086L56.695496,390.310882L52.321413,393.124126L51.573214,399.956006L49.194971,411.602201L46.099921,414.823857L44.826370,423.713313L42.085045,436.461120L41.025175,444.143226L40.742847,449.766212L36.519943,453.359232L32.090661,460.494498L28.932955,467.435380L27.556245,469.442927L24.404479,470.045179L23.053097,476.268084L16.521409,485.658519L16.448628,496.552262L14.509304,502.356545L15.813890,512.831191L14.716599,532.019030L14.656309,536.250831L10.730126,539.594441L6.117767,547.010991L5.152989,552.436522L10.873790,568.658472L17.335316,585.044887L18.990323,592.724041L19.625468,603.145402L19.582043,607.676284L22.205517,609.548495L26.178325,610.748945L28.129049,614.750164L25.941845,617.550771L25.713231,622.551380L23.731004,628.151393L15.098342,630.351220L11.525073,628.351381L10.853853,630.151239L12.141566,634.150700L11.039457,638.863982L8.831515,651.481075L8.010384,662.939873L7.214591,667.937176L8.784162,672.134822L10.793850,674.533453L11.406241,676.732188L9.388121,679.494878L7.940512,683.928036L5.517677,684.527693L2.561708,683.321242L0.207416,685.926894L0.728701,691.366707L0.554250,698.277340L1.491783,706.359254L2.470929,716.705453L7.637721,723.796604L14.999689,736.631605L19.128127,739.696248L22.977361,739.496217L26.569661,742.096685L28.894793,745.104580L27.769188,750.470805L23.946833,751.299748L24.077788,754.308405L26.708615,761.112845L29.639989,767.718599L34.161352,770.886183L37.789807,779.725931L42.151025,782.730427L44.142936,794.043631L50.783941,807.339320L55.578213,811.192914L57.826959,812.998209L57.854177,818.802126L55.732443,823.432261L56.695468,830.860251L59.073016,836.282758L64.212256,841.405689L67.467184,841.986967L71.489802,839.898772L76.736365,842.309909L78.388454,846.731302L79.953360,850.751872L78.592574,855.980252L78.055409,865.637691L79.486081,875.237236L83.574666,889.862422L87.374983,901.210473L89.258504,908.363648L90.300165,911.602821L89.130957,913.825343L85.312119,914.972860L81.955200,915.442005L79.352692,917.253820L79.518008,920.892807L78.556618,926.960563L77.157493,931.463102L74.419186,938.007257L73.298449,944.780100L72.179072,949.240008L73.094863,952.332753L72.939757,958.303818L72.509570,963.263295L73.082793,979.995299L69.418369,983.476203L66.252602,985.198933L64.946236,987.438185L67.421224,991.983580L71.525230,993.343932L73.732414,997.011161L74.590321,1002.718047L78.357804,1008.019690L79.649562,1014.445734L84.974634,1026.591717L84.727571,1034.557950L87.123945,1041.432708L88.708639,1048.251347L86.837473,1053.560175L80.597039,1054.582636L78.235803,1059.483666L73.458180,1064.816535L73.850132,1069.112649L73.811244,1073.000006L71.671767,1074.432275L67.848940,1074.432275L64.842938,1075.046118L61.669294,1080.088661L57.633260,1082.814729L57.569979,1086.878430L59.220291,1091.819400L57.499029,1094.889310L55.785276,1100.619865L55.342644,1106.759673L58.782843,1112.489925L63.536586,1122.721442L64.960278,1127.018089L64.394646,1135.478480L63.559734,1140.927625L67.501937,1147.879920L70.324862,1151.756859L70.842273,1160.282199L70.798666,1165.652401L74.523130,1175.454506L81.738310,1186.474296L88.437115,1196.262040L92.074569,1207.641802L95.554758,1216.641036L100.144469,1226.386959L105.304482,1230.247619L109.317485,1233.497389L109.926411,1238.166770L109.174339,1243.847672L107.052267,1248.105694L99.291055,1249.517277L93.727877,1253.359796L89.148227,1256.028854L85.989509,1259.246339L84.035022,1262.664685L83.638620,1266.406326L89.199138,1282.677466L90.263217,1288.667601L89.967057,1297.145713L89.392157,1303.975151L88.905424,1306.027366L89.449996,1309.039703L89.774193,1311.849690L87.111131,1312.487465L82.720369,1311.247675L80.661095,1312.050347L79.666854,1314.257062L82.588581,1319.519297L86.788262,1328.763233L89.988985,1332.675742L90.354514,1335.772060L91.587368,1342.457410L90.536500,1347.859678L86.988431,1347.838337L85.359629,1350.028793L85.522004,1353.809925L88.068436,1358.730887L93.940205,1362.753439L96.356136,1365.334097L96.567386,1368.706801L93.402359,1370.094909L92.133924,1372.869994L92.009651,1379.044891L91.460616,1386.003360L90.175218,1391.140555L91.819543,1398.175375L98.230008,1405.658949L100.078300,1412.978566L106.587336,1434.368689L108.518342,1441.607381L113.628816,1453.576889L113.128623,1456.873633L113.334432,1460.001497L120.121584,1468.687737L129.123272,1482.714329L132.141940,1488.290012L132.780433,1492.186325L127.971218,1495.490122L123.502829,1496.860038L119.819122,1494.523430L118.203004,1495.497076L117.299979,1499.585467L115.815119,1502.894054L115.950501,1506.201726L120.125661,1510.480938L124.315266,1518.639557L122.426812,1522.137639L121.478670,1526.023447L123.989413,1531.073588L128.045089,1540.199004L131.263172,1555.334483L135.684121,1560.696284L139.369103,1563.272945L149.594144,1566.348067L156.994392,1567.871683L160.513596,1572.871531L161.125643,1576.936130L158.504754,1578.944091L154.127099,1580.688893L156.381347,1587.252362L162.758561,1593.420921L169.089890,1597.886337L171.519653,1601.901799L172.662793,1606.007374L170.493082,1609.448437L177.680599,1616.905830L181.526166,1621.954215L180.763000,1625.846542L179.802088,1631.678937L178.131979,1634.470850L179.249303,1637.644141L180.397725,1644.075115L182.342485,1650.376239L184.530558,1654.134296L214.396856,1657.102455L221.396590,1658.260727L226.294165,1662.013518L227.407212,1666.717879L225.544556,1671.729144L226.501543,1681.138813L221.400007,1682.708909L214.877066,1680.194071L209.054226,1681.062398L203.950542,1681.659841L196.416041,1681.944678L186.701806,1683.160521L180.001745,1681.764049L180.703642,1685.217306L184.592369,1691.181204L198.591901,1693.065547L212.364577,1696.522166L218.349631,1702.839173L225.951870,1709.996481L232.708292,1714.433770L235.493270,1721.674940L229.949980,1729.227303L230.802490,1734.585685L220.624157,1736.162912L218.670035,1739.317914L220.802565,1749.723247L224.970452,1757.926925L230.052031,1760.764964L234.752355,1766.134801L233.925036,1772.450693L228.260349,1776.809451L225.896512,1780.952247L229.470465,1784.262909L234.594974,1789.513460L236.505761,1792.370298L241.037241,1800.116363L246.965591,1810.920042L248.578831,1816.155242L248.075239,1820.066456L243.165361,1826.221590L239.371397,1829.068169L241.158928,1836.648350L242.847414,1842.336077L245.205426,1847.470292L249.764886,1851.552725L251.001779,1855.670473L247.102880,1856.547364L244.198641,1858.525663L243.313054,1865.807821L235.751569,1873.244710L233.365691,1876.577351L235.717696,1882.281462L234.658846,1890.434108L233.875051,1897.520035L233.724987,1904.142519L236.825186,1911.108170L243.739023,1914.166370L250.803060,1920.927480L256.015072,1929.475674L256.190158,1939.290836L249.426118,1942.991825L246.183812,1947.154912L245.929178,1950.308373L251.119094,1960.579095L252.631501,1965.397729L253.081844,1969.928285L252.332022,1973.421845L249.462646,1977.341780L243.015345,1980.757101L237.332774,1983.108287L235.437777,1985.801995L234.289609,1991.712771L233.768955,1998.236787L237.710689,2006.302571L219.625516,2007.245873L220.754846,2013.239703L218.651949,2017.974357L220.807161,2026.482930L228.157884,2034.707128L232.858948,2041.594860L232.925829,2049.899486L237.582856,2058.407557L240.713991,2065.176736L250.253011,2072.713260L258.293003,2082.015615L263.654775,2089.880783L267.455353,2095.985846L270.680574,2099.695829L275.075843,2103.903622L278.308984,2108.747233L282.914749,2110.312822L288.124292,2105.781720L291.866586,2102.704526L294.903238,2101.609287L305.462181,2102.316352L310.482795,2099.467024L313.389084,2099.765163L317.836828,2101.366656L322.162422,2104.742221L327.540809,2112.383779L332.455504,2120.940667L334.360437,2129.664042L332.259464,2131.558650L332.321915,2134.054356L335.537694,2139.361986L340.314260,2143.106272L342.494219,2148.451188L344.110983,2160.561419L343.936859,2165.539895L350.406261,2171.150229L356.190255,2176.144912L365.130521,2179.877498L373.418153,2185.136945L379.448527,2189.485945L381.010103,2195.387606L384.690528,2197.175417L395.953362,2197.299179L412.779334,2197.484819L439.067234,2197.780463L464.724865,2198.069224L493.891908,2198.488602L509.609644,2203.217637L523.825770,2207.491428L539.465987,2207.491428L557.178464,2212.553446L570.158231,2215.883480L577.622101,2217.139732L585.250745,2218.340945L588.157290,2222.993678L589.455847,2219.507725L580.746398,2211.811789L564.450773,2198.832344L543.266855,2177.804749L539.486388,2175.159920L534.569504,2172.273355L527.112184,2174.112846L517.947719,2169.792690L512.869444,2170.440469L508.987197,2168.621084L514.100984,2166.856564L522.082096,2166.980640L530.569858,2165.987992L530.177797,2161.878644L529.277427,2158.878466L523.173363,2148.775671L512.951313,2134.164956L506.807496,2126.849212L503.420260,2127.734540L499.864042,2130.542239L498.979621,2129.290615L503.680309,2123.798458L505.732057,2117.694513L503.343985,2109.758656L501.473027,2097.733504L501.681588,2091.768157L504.355676,2083.466887L512.217263,2076.271166L519.703116,2072.289293L525.837303,2070.120552L527.283625,2067.499422L522.559584,2062.763127L517.748798,2058.825098L513.345793,2056.925156L504.043996,2055.372235L491.687711,2056.465781L494.503674,2054.021703L507.762855,2051.668324L507.099966,2046.479419L503.298770,2041.518196L502.483792,2038.597638L511.106564,2046.765044L518.687242,2054.676105L525.125691,2059.291334L535.096398,2063.702202L541.016148,2062.763127L551.175834,2055.142517L554.394307,2050.519307L555.166361,2046.186821L548.396245,2009.272027L545.604428,2006.540149L544.610200,2002.437933L549.360883,1981.316933L557.354662,1971.461601L561.656743,1962.400206L565.693184,1958.085354L577.281899,1950.567642L585.304400,1943.146024L594.935097,1937.608430L610.007939,1919.075978L612.628732,1914.411861L613.373443,1911.353673L618.333070,1908.793378L613.137711,1902.479928L608.465554,1900.578783L599.791344,1902.479928L595.615148,1902.795613L591.842504,1900.578783L601.332240,1897.456895L608.170335,1891.584717L610.758588,1887.031353L611.303707,1882.014849L608.084111,1865.962169L604.201880,1859.627075L596.968184,1852.443598L587.154675,1847.919206L548.580433,1844.440207L540.370500,1841.606665L494.432779,1809.154164L484.861122,1801.188122L479.240575,1794.205028L476.110402,1788.764303L472.332882,1781.400170L470.138778,1773.213227L470.651542,1767.309679L475.488796,1753.384318L478.638709,1739.199240L489.465732,1716.349919L492.193566,1714.231722L508.419675,1711.041215L510.834472,1709.251295L512.216266,1706.382442L518.748535,1700.396446L526.323746,1695.492717L552.434434,1698.510844L559.363884,1698.559546L559.852849,1694.087814L558.653745,1689.144239L551.071569,1683.494031L550.957868,1673.909105L563.474607,1660.827239L565.013229,1652.546391L564.609602,1646.792197L559.378015,1638.170751L561.005478,1630.404307L551.303663,1611.878739L549.033906,1600.710998L549.575713,1596.591710L552.142216,1593.060918L559.085603,1576.859965L565.343736,1569.436793L571.507680,1565.655494L586.484094,1560.239113L589.060726,1557.786900L591.184110,1553.837988L587.156433,1552.438411L583.588736,1552.542343L571.646436,1549.583592L544.980950,1538.930309L546.286165,1532.356693L554.925958,1530.005417L562.257378,1522.776089L571.464307,1521.499162L582.366034,1525.676539L588.442172,1530.920996L592.436313,1538.694586L599.961294,1546.208649L606.030636,1547.615512L624.557088,1542.223205L626.117521,1537.994334L626.658218,1534.451075L625.041710,1524.490057L621.815749,1513.897737L617.209835,1505.090004L611.998287,1498.396648L608.607624,1495.851740L603.886026,1493.069754L598.359084,1493.834871L588.331165,1497.979490L580.496683,1500.503068L579.741949,1502.817606L591.390455,1503.908688L593.174008,1510.119762L591.774173,1513.085285L582.676594,1514.973988L573.740868,1515.834927L564.476365,1514.571272L563.010517,1510.300351L564.748433,1506.264258L564.870009,1504.200553L563.001001,1503.088648L558.134651,1503.547321L552.727450,1500.683799L539.741576,1496.484545L533.247867,1492.228063L526.138174,1482.811809L524.462612,1466.769849L520.051381,1454.030971L506.702079,1430.522284L502.334773,1420.963337L499.250054,1409.548372L498.987480,1404.772399L501.252512,1399.337612L508.829480,1394.003470L511.744071,1394.327748L516.039936,1395.822006L515.864071,1398.471239L514.310450,1399.950334L528.916575,1402.886281L544.459827,1407.783321L561.669855,1413.927156L585.367656,1424.148849L594.550462,1424.850296L618.700507,1424.324218L632.926209,1421.251079L641.252892,1416.758016L662.131271,1405.504164L666.183177,1400.013715L666.759739,1389.906088L653.802580,1374.292354L649.828783,1366.836505L648.275396,1355.259040L648.261623,1337.340844L649.434758,1333.296595L651.127010,1332.211834L657.417339,1328.184655L655.559369,1309.348014L653.946999,1301.498559L650.173342,1299.293824L646.310728,1295.535895L653.725297,1295.047111L648.186972,1290.329672L642.354551,1286.796319L636.856388,1285.428477L632.583550,1278.591910L631.704661,1266.586856L625.009069,1256.585690L626.446470,1252.672484L635.432027,1253.649171L644.685971,1261.486880L658.611064,1264.644107L674.014760,1267.381129L686.891440,1266.052474L703.366680,1266.947901L715.540934,1265.539717L777.817323,1255.493674L786.245123,1252.419247L824.386757,1243.275416L870.270920,1225.639309L898.086852,1205.830840L902.683224,1199.573824L902.256020,1186.423298L906.378872,1174.134780L920.333802,1151.851767L934.681546,1115.296447L936.418224,1107.329788L934.903313,1098.646330L928.488549,1075.535735L926.762097,1072.736941L924.181670,1069.551054L912.859209,1070.004079L903.578287,1065.832068L889.827999,1054.414657L883.803265,1045.637530L879.501241,1036.185192L878.178674,1022.741279L886.959678,1006.745053L884.174354,996.050582L873.554052,983.090991L856.203671,970.481904L841.232490,961.240028L806.405695,945.583600L795.931497,934.333330L791.977572,928.839393L786.053361,916.914533L788.664320,914.460432L790.954112,913.688226L792.752237,909.286968L789.878355,899.523783L787.644686,894.371519L784.687702,887.543701L778.121417,876.834244L775.856766,870.238856L776.357938,842.467794L775.863677,829.655492L778.315814,826.744344L782.597524,827.554540L786.139426,827.217551L788.341457,822.543410L789.436251,818.479638L781.177296,789.491919L781.127681,782.730427L784.000638,771.758583L783.260669,766.417348L779.647749,761.727605L778.044931,756.909932L778.455112,751.971491L777.371684,747.212391L774.806113,742.653949L775.481709,738.881845L779.395988,735.895838L781.916199,731.317205L783.043074,725.153518L783.357448,720.447307L782.856005,717.198165L780.991178,714.141977L777.761569,711.257283L778.055541,705.531043L781.879546,696.963725L784.010921,689.353534L784.448882,682.707309L783.454642,677.346119L781.026391,673.262751L781.312201,670.500032L784.315287,669.043705L785.065224,664.738918L782.817866,654.022820L778.028027,645.176369L779.464318,638.171296L785.534371,630.072675L788.337963,623.530003L787.868586,618.550940L789.710551,615.686103L791.961775,612.185145L800.624653,604.424687L805.017398,597.513687L805.129053,591.444302L809.031412,585.995937L816.728444,581.168908L824.782620,572.278291L833.212203,559.313985L838.099864,549.745322L839.424903,543.567760L842.799434,538.806891L848.230471,535.463218L852.392744,528.481468L855.309437,517.859921L860.168917,509.406762L866.960370,503.137564L870.530849,497.935318L870.873616,493.807538L872.681025,491.163006L875.946531,490.009118L877.307591,487.837446L876.759746,484.633533L877.395526,482.461647L879.217455,481.300406L882.579013,481.708994L887.481843,483.680208L890.230782,483.314642L890.821683,480.619420L889.181538,477.529791L885.301747,474.052863L886.078231,470.281776L894.222907,464.180145L900.533983,461.856922L904.219425,458.070746L907.395763,452.061177L913.283719,447.865636L921.890235,445.513153L923.955696,443.246663L923.258101,440.334551L924.809097,438.240054L929.881865,436.726528L932.383811,433.893071L932.318079,429.732365L933.521853,425.858412L935.993958,422.285607L939.087959,420.958323L942.801131,421.869488L946.009251,420.520673L948.717643,416.890250L952.301080,415.196959L956.759877,415.433735L958.930427,414.637305L966.320876,412.951149L970.137402,409.901640L972.749178,403.113454L975.488427,400.479861L978.351561,402.015533L982.698602,399.740722L988.539772,393.669543L989.764363,393.554719L994.285638,390.727131L998.035102,380.234358L999.792584,373.214806L998.497263,367.472606L996.369994,363.352458L996.215843,357.315633L995.985812,340.898398L995.676546,334.186239L997.813798,329.505612L997.120013,324.868019L991.198268,314.472834L985.382836,305.348308L981.107477,289.856184L978.772857,283.976771L974.595531,282.418994L970.418889,277.293463L965.788621,276.848393L963.420725,274.888660L961.017609,273.259149L957.818955,273.740105L955.371782,276.740715L950.228475,276.848393L947.118245,278.083105L943.588853,280.753546L939.827437,279.526001L937.283894,277.185785L932.362887,277.157070L934.839537,308.743978L934.489557,331.020359L931.537835,347.495564L928.144158,356.267604L924.283686,357.337167L921.732323,359.964393L920.490828,364.142040L917.673133,367.616163L913.280403,370.401153L911.087487,373.451668L911.094057,376.767689L906.826323,378.899377L898.287688,379.853962L893.534554,382.509538L892.563622,386.851651L890.096266,390.303705L886.132897,392.851416L884.628603,397.085518L885.587479,402.998639L883.772642,408.071889L879.181650,412.312554L874.469370,412.427357L869.628284,408.423490L863.490197,405.761331L856.051172,404.440989L850.109502,405.452774L845.662554,408.782267L842.021428,414.070473L839.196658,421.317050L835.173079,422.522364L829.941310,417.679485L823.928028,416.208632L817.127243,418.109974L811.429257,417.442715L806.833230,414.206800L800.372104,413.848044L792.054492,416.373656L774.142563,413.460586L746.633261,405.093986L723.871365,401.922246L696.869435,404.928943L693.403138,396.238710L694.238447,391.538096L698.227453,387.999954L700.499588,383.995203L701.047002,379.509451L703.679709,376.093006L708.396670,373.745950L710.220587,371.362969L709.152611,368.958419L709.948733,366.826596L712.603882,364.974688L713.876369,362.060406L713.763194,358.076527L714.601356,356.102504L716.350426,354.630947L716.217839,351.881624L714.071628,343.353508L713.342509,336.361422L714.029020,330.919855L715.313096,327.624735L716.411638,326.806336L717.280222,324.853661L717.317705,321.565691L718.755119,318.507439L726.768282,312.211443L729.666249,308.801411L729.573550,305.692900L730.397022,301.478834L734.546379,292.419032L735.651861,288.176342L735.549865,286.051425L737.141666,283.854733L742.842525,278.822498L745.712728,274.077492L745.745850,269.634066L743.660002,264.587764L739.447649,258.952999L726.658594,244.841790L717.233613,238.432622L705.501324,233.135881L697.971776,231.420680L694.648007,233.279413L690.909330,231.822566L686.757995,227.035902L680.232294,223.268417L666.875182,219.135076L635.825606,202.653240L623.233772,194.689290L618.759237,189.774825L606.868794,180.943554L587.570383,168.217677L573.141545,162.020104L563.571860,162.371580L547.801394,158.670357L525.825618,150.923877L512.817985,143.400084L508.775860,136.113281L500.186509,128.812422L487.047912,121.504669L480.119327,116.692742L479.404003,114.376460L475.423216,111.364615L468.168910,107.642893L459.975032,101.275239L450.850271,92.261872L440.654617,78.323003L429.405591,59.452189L418.097667,46.733694L406.722619,40.159550L400.936587,35.815088L400.745723,33.693058L398.939275,31.649899L397.917675,30.495697L392.465396,26.230197L387.195630,18.136613L385.614722,14.430386L385.024826,14.294181L358.141775,14.537917L332.256942,14.810327L329.785150,16.516480L326.060248,16.494974L323.167425,14.896351L320.489586,15.025388L316.795872,16.595336L313.661559,19.821272L305.947594,41.349626L301.986290,50.562096L299.194827,58.785424L298.023424,72.881024L297.169014,75.254258L293.573223,70.364414L287.700808,57.466236L284.901109,50.124767L281.133922,41.772606L274.870417,31.291450L268.545663,28.115614L264.723828,27.068956L259.161815,25.061672L249.413430,22.545412L245.224142,22.036427L218.083172,21.699493L215.901981,21.434248L205.395935,22.588425L199.929075,21.807025L193.670254,15.942982L180.016955,5.648811L177.144169,2.387118L172.092635,0.229392L169.179103,0.000000Z "/></g></svg>