<?xml version="1.0" encoding="utf-8"?><!DOCTYPE svg  PUBLIC '-//W3C//DTD SVG 1.1//EN'  'http://www.w3.org/Graphics/SVG/1.1/DTD/svg11.dtd'><svg enable_background="new 0 0 1000 1109" height="1109px" pretty_print="False" style="stroke-linejoin: round; stroke:#000; fill: none;" version="1.1" viewBox="0 0 1000 1109" width="1000px" xmlns="http://www.w3.org/2000/svg" xmlns:xlink="http://www.w3.org/1999/xlink"><defs><style type="text/css"><![CDATA[path { fill-rule: evenodd; }]]></style></defs><metadata><views><view h="1109.21721636" padding="0" w="1000"><proj flip="auto" id="robinson" lon0="-170.75640733"/><bbox h="58.38" w="52.68" x="-2520.22" y="185.31"/></view></views></metadata><g class="" fill="#000" id="country"><path d="M999.548825,1107.217216L999.121097,1103.412535L998.201977,1103.050184L995.780226,1104.292529L999.548825,1107.217216Z M298.251531,1018.700568L286.597598,1018.001756L276.783396,1020.589949L272.119770,1029.726278L267.739704,1030.632146L258.037725,1030.425090L253.751938,1031.408605L243.412778,1039.328491L246.205343,1041.657870L254.351978,1045.850755L267.424014,1054.495350L269.791440,1056.902380L275.963870,1050.147169L283.505307,1034.048566L289.196646,1028.458061L293.642853,1027.008672L309.651789,1026.076921L313.608704,1023.902838L313.197246,1019.968783L310.328304,1018.053520L306.962281,1021.961692L298.251531,1018.700568Z M626.180945,1015.750028L624.211765,1011.091284L618.249532,1008.736030L606.329956,1008.425447L600.686973,1009.616015L597.119372,1013.032427L599.581717,1014.430051L601.571977,1016.862951L603.238945,1020.098193L604.708727,1023.902838L607.623794,1024.161657L609.854514,1023.799310L611.221890,1022.349921L611.665774,1019.554672L614.703186,1021.055824L617.174554,1021.185234L619.207893,1020.020547L620.916414,1017.380590L624.855304,1019.037033L626.180945,1015.750028Z M567.656487,994.035121L564.146471,992.482210L560.881293,991.446935L558.120260,991.524581L556.234576,993.362193L556.223247,993.362193L558.805314,997.503291L561.552178,997.891519L567.656487,994.035121Z M0.451175,0.000000L0.600815,2.846853L2.257263,4.684366L4.329887,3.416223L4.082936,0.362327L0.451175,0.000000Z "/></g></svg>