<?xml version="1.0" encoding="utf-8"?><!DOCTYPE svg  PUBLIC '-//W3C//DTD SVG 1.1//EN'  'http://www.w3.org/Graphics/SVG/1.1/DTD/svg11.dtd'><svg enable_background="new 0 0 1000 1239" height="1239px" pretty_print="False" style="stroke-linejoin: round; stroke:#000; fill: none;" version="1.1" viewBox="0 0 1000 1239" width="1000px" xmlns="http://www.w3.org/2000/svg" xmlns:xlink="http://www.w3.org/1999/xlink"><defs><style type="text/css"><![CDATA[path { fill-rule: evenodd; }]]></style></defs><metadata><views><view h="1239.67344644" padding="0" w="1000"><proj flip="auto" id="robinson" lon0="133.074592007"/><bbox h="742.85" w="599.71" x="1610.76" y="168.55"/></view></views></metadata><g class="" fill="#000" id="country"><path d="M596.936823,1237.673446L598.705378,1236.631924L603.752004,1233.072729L606.812984,1230.360478L604.617841,1231.250950L597.976632,1236.479804L596.936823,1237.673446Z M606.776011,931.064130L607.434714,929.696870L608.016023,927.915910L607.402614,927.879024L605.311340,929.270083L604.217402,930.373921L603.593884,930.584673L602.743771,931.356543L601.835796,931.962438L600.861836,931.493529L600.522027,931.986147L600.300921,933.848576L602.358192,933.387583L603.750206,933.864381L606.776011,931.064130Z M611.492553,926.848848L612.973778,923.544498L612.690115,922.519314L611.478270,923.446991L610.716129,924.274467L609.891071,924.717174L610.411262,925.299524L609.733486,926.624889L610.089619,926.851482L611.492553,926.848848Z M636.483040,912.533516L636.960862,911.726100L639.047229,910.947617L639.119209,909.979003L637.970573,909.363975L635.968378,910.641477L635.719984,911.261660L634.728157,912.652246L635.059349,912.770974L636.483040,912.533516Z M602.256179,860.218136L598.294724,858.432173L596.878713,857.074278L594.771869,860.113593L589.904089,865.540691L588.565771,868.224106L587.410253,871.280776L586.265791,875.396830L585.449537,876.720402L585.207570,877.505724L584.316114,883.637195L584.200908,888.603140L584.844144,893.837378L583.725353,896.214907L581.556696,898.643964L583.004061,898.482599L584.625378,897.292014L584.025844,898.474663L583.821767,899.471859L585.017186,902.908799L584.640084,903.820498L581.398062,906.652348L582.229743,904.317238L582.083130,902.475353L580.131009,899.561781L576.893189,905.643409L575.963998,908.043963L573.829413,918.372851L574.042100,919.039876L574.848610,919.488048L575.238855,920.305254L575.393191,922.403349L574.962864,926.938430L575.632390,928.242604L578.198166,927.831600L580.904902,928.751080L582.230448,928.495526L582.663323,928.885442L582.338357,929.939240L579.729040,929.915530L576.767570,930.500372L575.876089,931.372349L575.890169,932.354949L574.631541,935.115642L578.483307,934.188393L583.408856,934.370155L586.630276,934.083023L588.227388,936.593449L590.908972,937.062347L591.923044,936.877949L595.815082,933.909163L599.448702,930.326501L601.103913,928.961844L602.845128,927.797350L601.916297,926.256010L602.402561,925.476070L603.304627,924.572241L605.357646,927.257236L607.725476,926.179599L609.744113,923.765865L610.787901,922.271571L611.998740,921.209380L613.332331,920.716469L614.650132,919.393143L615.473730,918.370215L616.064568,916.047114L616.903987,914.707283L617.439440,917.486928L615.806482,921.254189L618.390103,920.257805L619.079383,919.664676L620.599122,917.059755L622.057033,916.186887L624.242654,916.896264L625.571241,918.412399L625.247720,919.113694L624.596687,919.820211L623.567658,920.444963L622.073087,919.809666L620.424368,920.908891L619.638596,923.660453L619.735396,926.290264L621.386461,925.618359L624.026649,925.259999L625.289757,924.590687L628.492086,919.285055L630.250678,915.395689L633.148938,911.129711L635.034756,908.804325L637.380863,907.003584L639.489295,905.112452L641.078623,902.655079L643.070176,900.336621L645.707334,897.921743L648.309022,896.116974L649.239819,895.698749L649.242304,895.198409L650.887618,893.638744L652.712684,892.491764L652.385664,893.898290L651.177386,894.443810L650.278503,895.060738L651.212810,896.087859L651.068682,897.003578L650.550066,898.006405L649.525911,899.252337L649.166660,900.214982L649.962795,900.394795L651.077103,899.141249L651.859413,897.620120L652.968719,896.318131L653.372686,895.304306L653.399254,894.388202L654.063140,893.418911L655.788233,891.344433L657.212185,888.303430L660.514542,883.695631L661.957276,881.213775L663.656118,878.764442L666.247623,875.620577L668.214305,872.438405L668.934053,870.840525L669.857509,869.220273L673.029078,864.615222L672.908794,862.088350L670.084873,860.059979L668.657787,860.022449L664.845334,862.573063L663.609375,862.548964L659.647486,861.809793L658.142963,862.656070L654.798977,865.083352L653.093566,866.110234L651.861048,865.669051L650.855651,864.872036L649.629982,864.962985L648.078282,865.610220L645.327623,865.907032L642.737476,865.856229L640.695619,866.551335L638.558294,867.660411L637.187659,869.057389L636.419895,870.661735L635.980828,869.174880L635.196370,868.200065L632.872939,869.244304L630.687028,869.959794L624.504663,870.536307L620.641656,869.295036L615.734933,866.738444L615.173314,865.987246L614.847583,865.024507L614.168127,864.395837L612.298288,863.437791L612.024874,862.337414L611.132524,862.018714L609.767921,862.179409L608.509975,861.306160L607.984607,859.757037L606.737818,859.625660L604.809930,860.325354L602.256179,860.218136Z M679.382974,852.750501L679.137959,852.473402L678.600524,852.419592L676.558285,852.925349L676.384710,853.543922L676.912383,854.882621L679.382974,852.750501Z M601.207086,852.519139L602.485970,850.688824L602.410679,850.538017L601.077033,851.512675L599.889976,851.927163L598.968259,854.796627L601.207086,852.519139Z M685.038536,847.006849L681.244187,848.414702L678.099038,848.385045L676.589596,849.040082L676.398353,849.692203L677.442644,851.001174L679.871115,851.162715L682.662652,850.529937L682.323045,852.258153L683.674119,851.962148L686.212871,850.470688L686.135483,848.670809L685.038536,847.006849Z M687.036177,831.766573L686.035853,830.884839L682.114413,833.825070L679.819077,834.903712L680.164411,836.019721L681.704603,835.881276L681.257770,837.712772L680.170234,838.911155L680.523004,843.274435L680.320997,844.404136L680.445073,845.179390L680.804718,845.768043L683.674121,844.982231L686.755017,843.287953L687.058270,843.317690L687.779754,842.511898L686.905804,841.267351L688.379384,840.322541L689.915961,838.111381L689.619584,837.582595L688.006411,836.798616L687.036177,831.766573Z M588.356456,841.727392L591.424361,840.677242L594.107957,839.119819L595.904879,837.224558L596.431676,835.006925L598.235193,832.536394L599.978176,828.433464L598.861480,826.816616L597.619982,826.914809L596.188269,828.992103L594.136159,830.160643L593.112712,831.219619L591.772382,833.621225L589.847071,835.843269L589.645571,838.051731L588.040640,840.281922L587.624231,841.841032L588.356456,841.727392Z M646.320859,796.190256L646.005028,795.662904L644.611112,795.279072L641.480202,797.230911L644.868707,797.007349L646.209985,798.061543L646.372594,797.528969L646.320859,796.190256Z M652.395117,792.345096L651.656252,791.192401L648.571790,791.327868L648.010320,791.952612L647.107757,793.356514L647.906168,794.215719L652.395117,792.345096Z M508.209071,717.954963L508.466396,717.488835L510.208541,715.619148L509.518650,714.590254L508.455025,714.160451L504.064251,713.802770L497.495958,715.829942L485.858270,718.243537L483.682708,719.944732L481.707917,722.259959L482.232607,723.545602L484.767721,726.325882L488.236893,726.712030L491.164367,726.064757L493.784385,726.495341L495.977461,724.884238L499.460601,725.978643L500.267940,727.512159L504.195315,726.156428L506.136444,723.623359L507.802805,722.482085L512.024640,721.624165L515.577148,722.756974L516.937144,722.557053L518.906134,721.185529L518.428005,718.423903L516.087950,717.597040L513.449763,718.620924L508.209071,717.954963Z M981.786173,485.769994L981.519788,485.379585L979.623918,484.901805L977.814422,487.705595L976.115145,492.160597L976.436085,493.317921L977.007692,493.465312L981.786173,485.769994Z M980.663096,482.403602L981.387245,479.200755L983.919424,474.632261L983.173823,474.402869L981.734570,474.949039L980.524328,477.450417L979.870625,480.148255L980.002454,482.821346L980.663096,482.403602Z M27.981995,447.083855L27.667859,444.865798L27.414292,444.253921L27.855315,442.314496L27.444682,440.424252L26.581001,432.177925L25.662242,432.494765L24.490217,433.565474L24.484234,439.531036L27.074800,448.242054L27.981995,447.083855Z M986.290071,438.626898L987.029768,436.717573L989.858800,431.970340L998.612256,419.393499L999.525510,417.006708L998.558553,415.259100L999.596342,410.311529L999.065503,410.049420L998.169033,410.347023L996.954125,411.054179L995.661186,412.452138L996.541765,412.949078L997.155477,415.463894L996.134429,417.790527L994.687536,419.601042L990.051534,423.031095L989.691529,426.081723L989.037131,427.537446L986.986924,430.170386L985.580369,433.049238L984.788377,438.015037L985.441182,439.397191L986.290071,438.626898Z M957.612614,375.445395L955.741947,374.599497L954.602514,376.545077L956.717278,382.428525L957.764598,383.408239L958.422372,383.031634L959.553129,381.858170L959.411803,380.409105L958.846640,378.354268L959.588031,376.531434L959.029481,376.067546L958.254378,376.154866L957.612614,375.445395Z M950.457663,342.807670L951.337074,342.371220L951.197656,340.175348L950.516788,339.684350L950.047015,341.280099L949.245346,342.393042L949.762046,342.867682L950.457663,342.807670Z M937.107028,339.190626L937.384919,337.968596L937.665897,335.159053L936.609065,335.865526L935.967578,337.998601L936.071399,340.033504L937.107028,339.190626Z M111.367073,299.941054L111.988086,297.944521L111.662690,296.594402L109.342382,298.781865L107.923744,300.592926L107.962865,301.694835L109.583217,302.125778L111.367073,299.941054Z M927.758341,286.079670L927.882412,285.689622L927.236856,284.123968L927.090329,282.225529L925.265415,285.861461L926.329849,286.366069L927.112902,286.387889L927.758341,286.079670Z M926.009757,282.124605L926.605344,281.699090L927.443374,279.175987L926.413695,279.863365L925.599806,280.785322L924.870279,281.947308L925.447832,282.247350L926.009757,282.124605Z M873.088477,228.527315L872.410051,228.377256L871.875048,228.811061L870.721179,229.195755L868.604447,229.100263L868.788859,230.235244L870.200214,232.205080L870.760203,234.660537L872.095210,235.609974L872.994390,234.600514L873.643750,233.244559L873.030297,231.176511L873.088477,228.527315Z M713.418987,197.327586L716.247869,196.765508L716.264387,195.300285L714.900401,193.859615L713.768989,195.499468L712.305445,196.659096L712.414050,197.805079L713.418987,197.327586Z M717.466949,182.197736L718.957875,180.980789L722.399949,180.574231L720.705309,177.452730L720.341861,177.228986L716.972860,178.437750L712.778538,179.242682L710.899752,180.926218L708.778923,183.673896L707.952425,186.132339L708.096844,186.909981L710.155055,186.266039L711.221969,186.287868L713.079258,185.649383L714.237191,184.309654L715.124398,184.656183L717.466949,182.197736Z M662.592454,159.987016L662.236627,158.868294L662.441126,156.767283L661.426862,154.865460L660.567829,156.475324L659.957848,156.846412L659.230101,158.131576L660.195486,158.529949L660.232386,159.921529L661.322736,161.280367L662.592454,159.987016Z M651.048782,155.798635L651.970960,153.449327L651.379442,153.157369L649.784539,153.422041L649.109837,154.538030L649.179246,155.774078L649.567290,155.915964L651.048782,155.798635Z M657.720739,155.566706L658.542169,154.699016L658.628332,152.286953L657.667275,153.446598L657.296470,155.774078L657.720739,155.566706Z M359.249013,149.476522L359.634912,148.207738L358.840814,146.930770L358.679748,145.798417L357.921407,145.719289L357.442844,146.417800L356.718520,147.754796L357.537305,148.930808L357.381186,150.022236L358.206946,150.265079L359.249013,149.476522Z M377.375272,126.496970L377.354424,125.746638L377.778382,123.572044L376.919549,123.048178L375.735153,124.052255L374.695233,126.838030L375.557954,128.235015L377.375272,126.496970Z M662.192973,104.827674L662.054063,102.655863L662.380728,101.411713L661.271176,101.250737L659.304767,102.513986L657.808788,104.543919L654.847895,106.530202L653.909856,110.617375L653.832507,113.839652L652.755991,115.209329L651.214276,116.224309L651.822392,116.701787L654.177178,116.860037L658.607494,118.142408L661.412798,117.945960L664.536101,118.494378L665.642956,117.179265L666.381463,115.454888L665.990658,115.307552L664.728259,115.817771L662.488093,114.715481L661.760429,113.525882L661.827479,112.336285L663.406525,108.792060L664.220856,107.717063L664.951101,107.416937L666.770141,105.471579L666.574922,104.344746L666.176580,103.703570L665.607100,103.348878L664.232971,105.905396L663.083460,105.987248L662.192973,104.827674Z M650.430171,105.403368L651.496289,104.470252L651.400002,102.110183L650.541581,100.939700L648.883335,102.950531L648.200123,103.408903L647.792141,104.175585L647.654668,105.182367L649.802697,105.722592L650.430171,105.403368Z M661.114331,43.319930L662.176496,42.785184L664.654788,40.719861L665.012223,39.508497L664.205082,40.100538L659.450980,42.596931L656.982160,45.398895L661.114331,43.319930Z M516.646976,45.469831L516.274238,43.036187L515.376083,40.736231L515.437839,38.228925L514.774516,35.907145L513.687264,35.901688L512.540753,36.564664L509.765501,39.833164L510.407343,41.612015L510.294474,44.880518L508.736060,45.966382L507.144761,45.510756L506.097728,48.487333L506.791536,49.554100L508.135886,49.526817L512.873082,48.053533L517.205636,49.837844L519.810770,49.305825L519.864531,48.094458L519.420239,47.084986L518.594952,46.135537L516.646976,45.469831Z M521.514041,36.998464L520.280564,35.039547L519.364888,34.300178L517.389108,31.607350L516.814745,31.533687L516.328693,31.861082L515.866611,32.496775L516.480754,35.012264L516.486503,38.946468L518.133347,43.753730L520.998513,47.232314L527.906821,52.375168L536.972849,46.353801L539.608957,42.766086L541.450837,42.916142L541.926709,40.728046L543.889937,38.698193L543.557725,38.092511L542.459496,37.178531L541.781088,35.241441L539.129123,33.388928L538.021622,31.795603L536.606957,33.268883L534.665277,33.841825L531.560524,35.833481L530.669020,35.986265L528.932684,35.132309L524.761334,37.230369L521.514041,36.998464Z M668.220521,37.077584L672.317606,31.929289L673.845425,26.841019L672.616354,27.179327L672.256913,29.419258L671.675308,30.917092L671.060707,31.454566L669.996484,32.404013L667.337173,36.491000L666.286442,37.495014L666.260007,38.752759L668.220521,37.077584Z M570.189265,34.952241L571.480456,31.217204L570.881829,29.465639L571.123766,26.426318L570.855941,25.621471L569.669245,27.285731L568.316854,27.534006L568.875325,29.733012L568.175662,31.064420L569.656775,35.386040L570.189265,34.952241Z M827.662643,53.158192L825.012936,52.309689L823.120097,52.167817L821.920499,51.098321L820.625007,49.439511L820.749205,44.157519L821.494845,38.567234L821.523291,35.066830L821.012272,32.469492L820.758879,29.713913L819.712296,26.783724L815.971568,22.983209L816.459074,21.447178L817.658677,19.458250L816.308689,18.315094L814.138900,18.315094L812.620548,20.966998L810.385981,23.256038L806.304482,24.999419L804.512374,34.125567L800.880880,44.141149L797.773521,51.529393L797.886045,53.766605L797.443313,55.946524L796.388842,54.967061L795.503435,53.747507L793.540906,56.666798L789.677995,64.237874L788.889417,68.158474L790.436259,69.219794L791.468472,70.259287L792.834576,70.597600L793.344725,71.563429L793.441641,73.465077L794.121568,75.099351L793.645887,76.861858L792.650448,76.171588L790.356472,76.185230L788.976925,77.715829L785.584240,80.787946L785.108718,89.606000L783.046551,94.244235L781.179508,97.840245L778.649181,104.650327L778.296390,108.260018L779.240655,110.827464L780.096554,114.576331L778.413816,119.746739L776.939806,123.441078L777.153181,134.131302L776.729257,139.828351L774.989696,143.705614L769.814756,155.157418L766.887377,163.523269L766.504596,168.129135L764.352037,172.363911L761.522194,179.136267L758.797151,184.241439L750.660377,194.533565L748.474372,199.507678L745.185131,205.706844L740.043772,209.319352L736.256988,211.575791L728.479958,213.807662L724.259811,213.758550L722.343496,212.388870L721.323388,211.207449L716.723614,209.234769L711.531079,204.760057L707.135353,203.308496L705.703507,198.814634L705.827293,196.951049L705.458532,194.519922L703.618756,191.313878L699.204317,190.233370L694.896631,187.919551L691.910502,188.246978L685.930282,186.257854L682.229044,183.425596L679.083480,179.501898L675.220980,172.696799L671.226980,170.854999L666.191833,168.039091L663.428624,165.687043L661.700039,164.546492L659.869726,162.786549L657.860995,163.179467L654.484732,163.231310L652.663086,161.575055L652.610561,160.276246L653.114391,159.255754L653.553803,157.392129L652.862417,157.116542L652.117747,157.121999L651.412269,157.618601L650.490516,157.986960L647.767372,156.554453L644.012703,154.175129L643.584508,152.082309L642.701888,149.517451L637.565348,145.795688L634.730107,142.720608L628.084999,138.256715L626.541250,136.098561L626.225539,134.213157L626.100501,131.490108L628.211978,128.652473L630.129938,126.649765L636.444284,118.314300L638.178753,116.849123L640.405540,114.584516L643.054260,108.486477L644.423846,105.002292L643.709495,99.733749L644.917116,90.869235L651.241028,87.426036L652.924514,86.975856L654.541997,86.222828L656.118609,87.295075L657.047275,88.964834L658.292542,88.659257L662.406951,82.474067L662.234226,79.898505L661.175794,77.696731L661.828047,76.340745L673.470871,64.205134L672.623542,61.233995L671.213553,60.551916L668.319683,60.756540L665.957067,58.161913L664.861353,53.245498L662.506919,53.073615L657.636704,58.107347L656.996593,59.264151L657.944334,59.916219L658.457147,62.966477L656.336270,66.548763L654.665505,66.586959L651.994378,66.232277L651.085608,63.673111L651.014128,59.777075L649.417756,58.680292L647.355464,59.416937L645.551305,60.786551L644.352548,61.182157L643.494454,60.292726L643.652180,58.663922L646.481937,55.960165L648.782997,54.227689L649.018187,53.578352L647.566713,53.051788L647.955256,51.788582L650.159901,49.562285L649.261224,49.447696L646.599284,51.832235L643.908145,53.204573L640.195544,56.123864L635.144036,58.039139L631.528514,60.622852L627.009972,59.842554L623.034689,57.294309L622.260156,55.957437L620.387739,53.993054L615.415009,56.129321L612.483148,55.902871L610.949043,55.149857L608.215942,54.645120L606.049508,52.757131L600.641740,49.736897L594.586355,49.158496L591.595578,49.294911L589.571506,47.734322L587.542798,46.836710L583.424832,46.206473L581.958270,43.862862L580.305320,39.142905L578.882575,37.871519L576.384395,37.418621L573.437909,39.593074L571.745000,40.616186L569.104685,36.742004L564.070672,32.736865L562.381494,32.191206L561.349248,33.162479L560.475455,35.012264L559.418757,35.184146L558.292169,34.346559L556.413756,31.978399L555.061844,31.544600L551.109556,34.073730L551.274633,34.941328L554.128952,36.229084L556.878783,39.754044L558.286732,40.479771L561.932283,39.557606L566.696309,40.223311L571.073879,44.624058L570.097031,46.806699L569.377087,49.843300L569.115220,53.163649L568.728743,55.411775L570.449359,57.878168L569.533788,58.063694L567.331149,57.509846L565.452144,58.197381L563.620972,59.356914L562.465536,62.674547L561.702280,61.111221L558.969846,59.627017L557.092445,60.770181L554.009458,62.273484L551.452057,61.673254L549.859958,60.909325L545.738070,62.199819L538.682522,62.167080L536.551626,60.298183L536.241349,57.108784L535.791434,56.325759L534.978681,57.755394L533.665103,59.400567L529.354519,59.727965L528.631228,60.404587L528.696007,62.003380L528.288643,64.008695L526.632982,64.158752L524.538322,64.688047L524.458701,67.143537L524.596896,69.058822L523.721617,70.013737L521.713153,68.267607L520.955584,66.379607L519.464087,65.798474L518.162927,66.472370L517.634425,68.155746L517.286145,72.501975L516.107239,72.990347L513.244054,72.829375L511.810643,73.647876L509.110671,79.096371L505.173205,81.178100L504.244867,84.021044L503.675851,86.432912L506.152310,90.811939L504.371584,93.057391L502.572486,94.893590L500.918115,95.671179L497.522548,96.383287L494.827695,98.375010L493.518376,100.484058L493.049601,102.481246L492.018900,105.051403L490.531456,108.096313L490.090633,109.747008L487.651682,111.378606L483.026325,116.270693L480.331231,121.271947L482.502745,123.989500L485.244834,125.943089L487.455395,125.880334L487.397602,126.379646L484.800721,128.385082L485.914887,130.447822L487.836351,132.365957L489.134423,132.649722L489.995516,133.465545L487.843190,133.915749L484.729584,134.082188L483.811814,136.174959L483.820107,138.575954L484.033091,140.671470L483.422272,142.150341L482.431797,141.132594L482.172223,139.569140L480.024368,136.379598L478.274082,135.408246L475.611596,134.655176L474.633326,135.621070L473.987034,140.485929L473.098559,142.723336L472.303651,141.460019L472.610302,137.899386L470.440107,135.015340L460.549709,132.125849L459.116181,131.945768L456.655999,132.322301L454.831822,133.465545L454.499235,134.589692L453.261045,135.498287L451.317730,136.537853L449.442810,138.125854L448.179852,139.451813L447.875157,141.102580L448.718162,144.213125L449.353424,145.108092L449.016391,146.586971L447.965517,145.045335L446.912558,144.548738L445.465525,146.963512L444.356846,147.446468L445.677432,140.704213L447.452760,136.125846L448.728797,133.421889L450.013103,131.310027L449.717894,130.188615L443.493090,123.861262L441.209343,118.671728L439.408947,115.757745L436.337315,112.950183L434.788231,111.184888L431.137904,108.483748L426.654236,106.601141L424.720382,104.069177L422.327565,103.157889L419.036002,104.396585L418.441269,106.759389L418.522479,109.053988L415.517544,112.802847L412.562174,114.802791L410.747034,112.510905L409.039723,110.835649L406.913561,112.041615L406.032642,114.112496L404.939224,114.876459L404.394683,113.474042L403.750956,110.363631L402.325446,109.124927L400.656855,109.670612L400.794171,112.137110L401.532635,113.493141L401.002576,115.457617L399.719785,116.360731L399.243728,118.213348L398.203538,120.679871L397.810555,124.123196L395.882193,124.846241L394.131183,127.571993L393.224540,126.993554L393.223059,125.222771L392.993956,123.413793L391.111432,122.720762L390.133347,124.412414L389.613941,124.985393L388.890723,125.099989L389.561587,123.722110L389.936776,121.146438L390.889868,118.447995L389.147049,117.476666L388.312675,118.076925L388.014032,120.409754L387.075831,123.806693L385.139526,124.338745L383.263149,125.863963L380.802157,125.893976L379.452866,126.625209L378.750915,128.423280L376.335301,130.275926L376.051401,132.491468L377.163163,134.742488L376.966005,136.696107L380.102481,138.682366L379.602542,140.671470L378.976377,141.593718L377.728734,141.230821L375.210426,139.514570L372.438039,139.148946L371.706735,138.360400L371.275820,138.927934L371.060053,140.254004L369.823467,141.225364L368.232556,141.318135L366.183710,142.736979L367.154679,144.966207L366.777305,145.844802L367.260777,146.908941L370.035788,147.102669L371.274644,146.816170L371.104854,148.709794L370.447020,150.603422L369.204564,151.280108L368.391295,149.542008L363.491183,146.215887L362.126405,145.891188L361.663803,146.936227L361.717766,148.295052L360.325631,149.948565L357.971157,152.112324L356.695398,151.528409L355.002547,152.035924L353.377802,155.733149L352.431838,159.430383L353.819663,162.011630L354.471790,165.416913L357.637705,161.231253L358.731668,160.751021L358.448454,162.560076L357.173233,164.440076L356.228134,166.748466L355.605648,169.362459L353.961897,169.436131L352.179359,169.086871L351.601959,169.916363L350.600430,171.859121L350.567935,174.538598L351.611325,175.553633L354.451382,175.458132L356.831919,175.651862L358.813663,176.617783L359.042859,177.436359L357.178307,176.975228L353.176487,177.228986L351.353613,176.860627L347.610140,177.035256L345.072392,175.507247L343.950870,173.976508L341.932479,173.589048L339.805654,174.202981L338.331668,176.344924L336.879009,176.868813L334.565551,171.564433L332.635899,171.212445L331.450323,172.445768L331.871825,175.771920L331.037150,177.818361L329.698750,179.343640L328.342568,179.250868L327.391104,179.897542L327.832487,181.294576L329.416870,184.852640L330.945883,186.405196L332.157760,188.566220L332.651191,190.432555L334.571383,190.347970L334.757818,191.854132L333.294023,194.039698L332.744106,197.502212L331.933745,197.679566L330.962485,196.915578L329.139360,194.776405L328.080007,194.358938L327.388088,194.975588L326.964216,196.438084L326.837261,200.271664L324.778225,205.734129L324.739840,207.322108L324.300670,208.680890L323.548066,207.698638L322.783704,205.581334L321.017567,202.307134L319.376569,195.155672L317.175566,190.301584L316.214026,186.173268L314.966322,178.391364L313.671113,178.274035L311.447318,181.622006L308.869349,186.028654L307.251328,188.195136L303.908392,190.353427L301.708346,192.530812L299.374280,193.300263L296.538618,195.785964L294.431830,197.919677L291.140397,202.891035L290.179666,206.097018L289.709015,209.466689L289.954225,214.252398L289.874817,221.188027L291.409281,221.924691L292.546704,223.097894L291.803078,225.193279L289.546964,226.511073L282.177123,233.064492L277.575709,235.394441L276.097063,237.039581L273.957747,240.504436L270.965672,244.880455L269.476825,247.633161L266.198779,252.977520L261.353487,258.941009L256.734480,263.354863L251.692914,266.887514L248.491423,268.581526L236.825851,273.524354L230.734686,275.409250L220.103689,276.775855L215.300742,279.006869L209.923103,278.281299L203.842761,277.806939L193.975593,285.253204L186.554663,287.061607L180.040127,288.417218L177.114264,289.641900L170.186484,293.929610L166.247963,295.890702L159.141697,298.080896L156.434034,297.854513L153.064837,295.838879L149.502749,296.305285L145.704580,296.010713L142.534009,296.198912L139.801933,297.862695L123.859694,306.716141L120.598617,309.127238L117.032064,312.634789L112.222903,315.869601L108.183065,319.600840L100.381341,323.479400L92.546811,326.422445L88.494198,328.866370L85.333563,332.183166L79.250936,341.089154L77.897370,343.336868L75.681251,345.680094L73.153120,346.531194L71.480434,347.292278L72.825928,342.829493L71.821991,338.863295L74.374815,331.277588L74.324452,329.010933L71.621942,330.486575L69.779924,332.098608L63.877100,343.074997L59.622077,351.613362L60.776392,356.504785L60.907950,359.344806L60.335725,362.392259L58.788145,366.774001L58.300444,369.625254L57.337861,373.415254L50.722093,382.207478L48.453322,386.030884L45.343249,393.372683L44.457595,396.773684L43.534304,401.850999L44.678395,406.295403L45.682890,409.044681L46.434267,416.987594L48.208744,422.263684L50.658902,432.866234L54.004041,441.445856L53.581577,444.723755L51.939293,449.132554L51.148263,453.694293L49.873668,455.038215L47.444756,456.608842L45.577025,454.590242L44.809972,452.833851L44.842960,446.370908L44.307085,446.002142L42.632164,448.837542L41.240022,450.066760L40.430226,449.228160L39.914123,448.162837L39.983099,447.042881L40.635530,445.715324L42.127028,440.864033L40.560986,438.091520L39.278906,435.114198L37.331618,434.384902L35.732508,435.728777L35.263042,437.577995L36.904167,442.754280L37.410088,448.356781L39.394383,451.853216L40.839280,452.757367L42.174199,454.887981L40.643466,459.599813L38.875158,461.353388L37.540855,462.243820L34.155819,461.208623L34.139938,457.813434L32.883196,451.137542L32.571739,448.550724L31.948208,447.848703L31.332883,449.124360L30.848630,451.424358L30.084503,452.418652L29.554310,452.317584L28.714093,451.115689L27.851324,450.471035L27.176416,450.695025L27.893373,452.350363L29.158733,457.272598L35.215336,469.309569L39.282984,483.277309L39.525057,488.783915L37.138910,500.863932L37.101732,503.775322L39.943302,509.760697L42.383879,516.685202L42.701875,520.128835L41.832884,523.073010L41.927868,525.866806L45.150646,533.433644L45.167403,541.538703L44.570705,544.498007L42.336236,549.565748L40.213979,558.498712L39.305049,563.340847L38.229283,572.920371L38.336895,579.807175L39.709708,584.085445L40.340875,593.562669L42.388967,604.468202L41.468589,609.849535L36.165428,624.141915L34.101901,628.794143L32.558326,629.591990L31.017693,631.555612L28.877083,640.909424L27.221796,646.237920L23.545246,651.254134L19.818676,655.706064L15.032219,658.747197L10.852178,658.845681L9.570195,657.075996L7.780366,655.257701L4.368514,663.350649L1.735672,670.280622L1.500086,672.919498L0.403658,676.032274L2.272071,678.449435L4.186351,677.512616L6.167135,677.383511L11.571315,680.813052L14.254595,683.637505L17.413290,691.221951L22.004614,693.221207L27.649986,696.670877L35.325170,697.764203L41.725284,697.965834L51.200661,699.778267L53.628908,699.131653L58.216710,698.568033L62.016699,697.388593L65.317844,696.634983L77.045991,689.587526L88.634365,682.336408L93.198061,681.758893L97.108100,681.676398L102.814385,679.194099L110.056891,671.684898L112.903176,670.009143L116.552239,668.133925L125.280919,667.032185L129.860987,667.807760L132.957487,666.591014L140.124066,665.232145L154.414466,663.983209L161.607771,664.985619L166.735877,664.824014L169.222048,665.319802L170.018429,668.613621L185.781501,665.780029L190.022400,665.582783L192.450109,666.053995L194.739960,668.514937L199.356503,666.188244L202.539143,666.492374L206.789248,664.251593L214.562616,657.527249L218.538814,653.325241L225.742756,644.463991L229.745969,641.274886L233.400489,639.687724L237.148861,639.177838L243.265751,637.574801L258.087749,630.090341L263.339816,628.475570L266.323696,627.062551L276.781148,621.241202L282.366579,620.123039L296.897509,621.630274L304.213808,621.238481L310.109945,620.324354L319.748755,617.182618L329.826751,614.822105L343.004507,609.844099L354.401608,604.693751L360.545361,603.506246L369.874604,602.595961L383.607033,601.256412L398.735008,601.949273L403.036804,600.886894L405.314138,599.941387L408.397074,598.936143L411.457052,599.639810L413.711616,600.405985L419.843912,604.517116L428.053534,613.168917L430.475368,613.527816L438.907525,611.559426L441.391275,611.752447L449.547907,618.088329L453.927665,618.218887L457.536411,618.063849L459.942090,618.741137L462.098883,620.457660L463.844626,624.438565L469.416737,628.252304L468.497542,631.324093L467.145964,633.328998L465.499453,633.408006L463.961121,633.833029L462.986750,640.265823L463.789556,645.460058L470.672593,646.161495L472.506959,647.979598L473.319346,650.024942L473.227856,653.278783L472.019411,658.366958L473.764582,662.608660L475.536546,666.226601L475.667517,667.714574L474.987281,672.839924L474.926431,674.335610L473.987275,679.400211L473.319107,685.186742L472.527521,685.775783L471.448433,685.654664L470.094376,684.187784L469.062563,682.545434L467.994521,682.806733L466.411809,683.931894L465.640579,685.318856L467.384681,684.950051L468.223524,685.150962L469.610620,686.923852L470.727659,688.978595L471.796841,690.182779L473.365844,695.307158L475.394021,694.164697L477.712436,693.149490L479.400446,695.936500L480.321877,696.499693L481.480876,695.423081L482.626452,690.425318L482.056669,689.212787L482.584798,687.438807L484.546071,686.163940L485.905562,684.647327L490.884101,680.895530L503.102849,669.685585L505.896593,668.399807L509.546583,665.941667L513.833236,664.065366L518.393985,661.836674L521.063132,660.977230L523.507248,660.514725L526.917972,658.454493L532.101637,652.874341L537.047669,646.257027L540.513161,643.339850L545.228432,640.235826L549.684279,635.914890L550.919132,632.530790L552.421579,629.077330L553.162378,631.743556L553.181747,634.448808L551.148278,643.481721L548.687630,645.462788L546.567662,646.459015L545.506139,649.626195L544.822456,653.746115L543.787976,657.043179L538.720096,660.517461L533.729287,664.889751L526.284897,673.369529L524.896380,675.927929L522.715510,679.493652L521.521429,682.627948L520.716129,685.657417L517.674135,690.359169L514.279443,694.562032L512.308645,694.666892L511.067952,694.512363L508.020238,694.884900L505.478155,694.633778L498.236852,703.798641L499.968639,704.227470L501.679067,703.707348L504.342847,703.704582L508.070154,702.069967L513.040783,700.729054L515.306971,701.201775L518.286597,701.058017L527.928698,689.314734L532.465466,681.665399L536.192144,678.232381L537.940513,675.862027L540.073822,673.613773L540.591667,677.476906L540.713758,681.222706L541.941977,687.306619L541.803220,690.334364L538.895773,697.703440L532.341744,706.236651L529.649955,708.673299L526.781762,710.795368L523.529086,714.376735L527.855689,715.286331L530.964289,715.219770L537.012244,712.618996L538.136851,712.266967L540.578898,712.222619L542.146727,710.861871L545.134043,709.567995L547.616800,708.044625L550.480143,706.845685L552.190424,707.643096L552.335043,708.324333L552.495219,709.097081L550.936095,710.778742L549.192945,714.337914L548.010034,713.949722L547.791076,711.831815L546.012243,712.377840L544.200992,713.971903L542.164651,713.470066L542.044992,714.515383L542.303157,716.551141L545.245070,720.474888L547.878063,725.678639L548.615066,728.134530L548.999784,735.953329L547.909928,744.231926L546.453523,746.679380L542.822957,751.081918L539.546397,755.550639L538.462435,757.888878L537.939322,760.852141L538.496061,763.875781L542.045393,772.127138L542.399841,779.356366L545.882419,783.094722L553.966738,784.471261L557.197314,787.164920L559.124312,792.588304L560.425508,793.049803L562.645279,793.276385L567.420764,789.981274L571.812861,790.332485L576.078753,793.605180L580.091273,792.834260L582.426575,793.234938L585.004501,795.082998L588.235622,798.734723L592.775914,800.571446L594.550614,803.316202L596.884620,803.729349L600.481329,805.507958L604.711183,803.985471L608.640605,802.065390L618.973467,795.384009L625.951883,792.157151L629.374074,790.896568L631.875252,790.340781L635.810973,788.241345L634.879854,786.758074L633.099467,787.007168L630.747492,786.171261L632.878514,785.196749L634.947598,784.476799L645.767381,779.445077L647.114284,780.933533L647.700785,782.598844L648.077822,784.878324L645.107362,788.097469L643.202102,789.613436L639.378107,792.038298L636.319262,792.132275L634.995523,791.933263L636.468243,794.649386L638.033229,796.471844L645.175946,793.157569L647.940089,790.542643L649.779706,789.024270L651.654047,788.686773L653.882266,789.198540L653.804051,791.114989L653.061406,793.447694L650.889512,794.083122L649.047723,795.809245L647.517853,797.448938L649.508068,799.548419L650.387047,800.880217L652.364249,800.847136L654.449380,801.166906L654.424478,804.241570L654.008453,807.786014L656.458684,806.809542L658.171710,805.879508L659.688109,806.771026L660.292206,809.551016L660.253854,812.706890L659.670981,814.032330L660.688049,814.641298L662.522011,813.708582L663.910021,812.380223L665.271831,809.930255L667.145690,806.055633L666.571170,805.472177L663.305892,807.574246L663.005595,806.052882L662.341096,804.431564L663.253603,802.872692L665.413578,802.092946L666.679297,802.431872L668.498815,802.431872L678.911120,801.067671L698.310518,788.501415L706.291482,783.867519L713.825708,780.420800L720.878759,778.202979L724.304527,777.481984L740.626780,776.283812L748.561547,776.672137L753.240525,775.792821L755.830792,774.622041L760.899004,771.410958L764.286764,769.445243L767.426439,768.895413L769.423968,766.487362L770.844656,763.903568L772.845496,761.210686L774.756443,756.140096L778.554489,749.454991L781.055923,745.959047L785.372704,741.050354L788.781409,735.989474L793.299780,728.809738L796.190710,724.548169L799.051031,720.652541L803.503017,716.354189L806.829432,713.567103L816.652691,703.076654L818.734602,702.039549L820.031856,702.042315L820.920217,701.403598L821.389915,700.820276L821.218415,700.400120L821.258995,699.181388L822.136525,698.197862L823.997326,697.214612L824.239730,697.590202L825.044371,697.377547L825.422699,696.839310L826.213616,693.966047L829.188246,689.929234L833.857289,682.878249L836.739240,679.710773L838.754507,677.191235L843.646803,673.407949L848.789204,669.677359L848.046520,669.271574L846.632705,668.991932L848.077004,668.098292L848.995355,667.835168L849.710083,668.424478L851.346409,666.785563L852.795536,664.210513L855.451355,660.410735L856.343363,657.095139L858.376007,656.058767L860.422554,655.432667L862.834641,651.956257L863.984515,650.560291L865.693415,649.260244L868.841064,646.489041L871.641025,643.604497L877.653933,638.087297L882.038623,635.833131L887.795101,634.078245L888.825147,633.081082L887.855449,632.473583L888.187438,631.866131L890.046686,631.866131L891.702914,629.929667L894.340503,628.502798L899.155551,625.200643L901.655807,622.166293L903.457785,619.739462L906.323339,614.242922L914.957805,607.022773L923.096534,597.243604L926.799107,590.954936L929.227768,587.556847L932.034729,582.564309L933.720818,577.362306L935.755593,573.001880L944.188973,561.883758L946.948410,557.283371L949.319432,554.326905L955.576301,543.294758L957.896789,537.546633L963.247295,530.845451L968.753905,525.384397L970.991861,520.319676L971.337356,516.420701L974.556882,508.241313L973.656768,502.872200L974.558327,498.661750L974.840982,495.053821L973.960809,484.882694L974.060582,479.004152L977.164360,473.083846L981.574447,454.095832L986.529589,444.595370L985.948037,443.434444L984.074100,441.970318L983.507341,440.457031L983.063008,436.886926L985.071880,429.714258L983.407773,425.295155L980.767152,423.276888L979.645447,419.644736L979.050802,416.621683L979.319588,414.945083L979.246421,412.105375L977.320743,410.150441L975.874449,409.222147L973.015928,406.377306L972.026251,403.494402L970.599293,395.291522L969.476669,393.110656L966.723428,390.747003L963.979205,390.613265L962.341474,390.021003L957.358133,384.783682L955.670414,383.640206L954.717967,381.181390L953.016463,378.545286L952.127159,376.594195L950.537353,374.528551L951.071128,366.664864L952.960928,359.020150L954.726633,349.892003L953.580891,345.478231L952.722787,344.057017L951.300818,344.523479L950.516926,347.376843L950.417226,349.321859L949.471114,349.414610L946.787789,346.896732L943.319127,344.215232L941.813040,341.211905L940.865461,338.391395L939.497930,338.500505L938.442944,338.945128L936.676356,342.403954L936.793897,348.367079L935.847382,349.180006L934.871483,347.802398L933.251833,344.687150L931.781901,345.704644L930.053674,346.102915L929.382648,342.968612L928.651026,340.993682L928.450741,334.458038L928.575427,327.246176L929.628107,322.031072L927.264766,319.164436L927.198300,314.233101L926.569554,312.855715L926.473527,309.361802L924.008483,304.782353L921.146091,301.544822L918.850967,298.484567L917.253368,294.142357L919.069050,291.002954L920.740132,291.671205L922.737185,291.368446L921.899441,288.171736L920.880475,286.025118L917.918732,281.993678L916.355089,280.978986L912.611883,280.381625L909.122425,276.704933L906.839919,275.106468L905.039213,274.852785L903.008709,274.285407L901.950481,272.204098L899.412777,271.516687L896.518102,267.400356L895.570711,263.248474L894.959915,261.718093L893.939479,260.566889L891.919606,261.259795L890.313748,261.573511L887.059322,260.986998L886.308999,259.295648L884.583385,257.156890L880.491442,256.589461L877.456515,255.239082L875.203168,253.899607L872.990244,252.202746L871.224868,249.362794L869.933844,245.567953L871.331620,240.692683L872.523028,237.536122L870.105377,236.311137L866.861678,229.689581L867.201749,226.977620L869.602217,221.433582L872.839211,211.875921L872.438677,204.773700L870.590115,196.088832L871.716369,191.682233L869.920012,191.622205L868.066174,190.759982L866.072773,186.473411L864.471140,183.652067L863.527057,181.054461L862.638681,177.534588L863.434008,174.707770L864.173731,172.805943L865.279961,167.763503L864.182435,162.862950L864.478816,157.847803L863.721683,151.563880L864.996214,147.389168L865.195882,143.942999L865.120440,140.968881L866.070515,139.067090L866.750979,136.657907L864.533548,134.248627L862.024861,132.406885L858.941676,129.146330L853.245494,124.065898L852.371136,120.216033L850.155244,116.783641L846.238638,118.112395L843.402041,118.742667L840.438088,121.329245L836.603437,123.239171L833.476113,121.512052L832.099183,120.052326L831.725776,114.903743L831.049895,109.291361L830.165056,106.472906L829.690376,103.070581L831.880436,94.762627L831.060141,90.855593L831.483323,85.008709L831.103858,78.337891L830.097989,74.995674L830.568382,72.308264L828.365565,68.365827L827.876566,65.539283L826.457357,64.521619L824.702709,62.909182L824.714790,60.742898L825.061111,59.168660L826.586571,56.549480L827.662643,53.158192Z M809.687431,18.244158L808.153021,15.092975L806.359133,16.451667L806.135479,17.229232L806.223839,19.002625L807.459490,19.842940L809.687431,18.244158Z M812.832702,3.923307L811.998244,2.477304L810.007054,2.728309L809.278273,4.122473L809.687909,5.137403L811.184184,5.655781L812.832702,3.923307Z M808.577375,0.000000L807.114360,1.956198L808.027178,3.617737L808.736228,2.859267L809.539292,0.935810L808.577375,0.000000Z "/></g></svg>