<?xml version="1.0" encoding="utf-8"?><!DOCTYPE svg  PUBLIC '-//W3C//DTD SVG 1.1//EN'  'http://www.w3.org/Graphics/SVG/1.1/DTD/svg11.dtd'><svg enable_background="new 0 0 1000 489" height="489px" pretty_print="False" style="stroke-linejoin: round; stroke:#000; fill: none;" version="1.1" viewBox="0 0 1000 489" width="1000px" xmlns="http://www.w3.org/2000/svg" xmlns:xlink="http://www.w3.org/1999/xlink"><defs><style type="text/css"><![CDATA[path { fill-rule: evenodd; }]]></style></defs><metadata><views><view h="489.892345903" padding="0" w="1000"><proj flip="auto" id="robinson" lon0="19.9326796616"/><bbox h="8.84" w="18.08" x="230.43" y="-1000.77"/></view></views></metadata><g class="" fill="black" id="country"><path d="M949.177208,487.892346L953.668968,483.853507L947.401785,474.119433L941.653457,463.247210L934.847879,457.656169L926.440910,457.966776L917.895989,460.520682L913.258602,467.803068L918.407556,476.501100L923.681288,479.711250L932.463333,483.957065L949.177208,487.892346Z M998.977280,453.514828L997.866029,449.373632L993.620279,447.682685L986.368768,447.544650L956.892069,442.506468L947.820848,446.474881L945.246845,449.822255L944.091655,450.615976L948.187751,455.171348L958.050562,461.279962L992.978579,473.429103L997.834761,469.011090L991.975427,460.934834L981.491833,455.999615L981.371742,454.515639L990.760154,455.412925L998.977280,453.514828Z M633.615982,410.974405L625.642620,402.665918L600.120061,399.156801L575.513933,391.915799L560.210150,389.848101L538.352919,407.757238L527.706142,426.714876L531.539923,442.098068L547.134159,446.212124L556.265626,438.527774L556.047541,426.223755L565.143350,423.669294L583.081857,422.154974L603.697167,422.701707L633.615982,410.974405Z M714.158882,356.759696L709.803777,356.759696L704.878233,358.621755L698.368937,358.070031L689.796666,359.345898L681.637145,365.863380L668.127310,386.349246L666.509394,396.145095L674.539930,401.526260L684.583454,402.595624L692.416597,398.835647L695.619803,392.902717L698.136212,390.902145L717.327464,401.250297L723.464546,400.008471L728.512631,393.282139L734.102547,387.694402L735.523157,381.589585L733.683445,376.416259L728.488018,373.657245L730.009123,373.174424L737.598884,372.070841L739.206686,371.105215L735.545303,370.070623L733.754798,368.760154L732.467002,366.553081L729.506762,362.759772L725.286119,362.242512L720.579512,363.794299L718.368227,362.863224L717.334870,359.518313L714.158882,356.759696Z M620.097445,385.624937L630.525872,372.898528L634.693172,350.277199L625.982046,351.690904L611.032352,360.070045L599.452125,372.553657L592.288602,382.969177L601.129520,388.832624L620.097445,385.624937Z M674.786027,370.484459L675.309615,366.173745L677.487851,358.725204L682.825396,352.518447L685.887375,346.725769L680.028710,344.484632L670.670529,347.242961L669.829495,350.139277L675.857137,351.380578L673.878844,352.001232L651.872275,354.001142L640.561050,358.276927L643.651606,371.863920L663.191188,376.071379L674.786027,370.484459Z M395.409606,326.404043L376.600212,345.315819L355.176950,352.966184L352.316063,370.882449L374.370046,373.500405L388.680745,382.970348L405.651378,382.949679L418.232990,392.800194L416.719751,402.289125L410.249547,409.881891L422.898199,416.322736L441.093752,412.888612L453.220804,407.944932L462.135400,412.875860L458.991765,431.107455L466.554793,426.926092L480.483409,414.391621L487.461783,402.251948L484.529691,394.281425L475.459548,376.448372L459.050991,351.319079L436.741312,332.444267L415.182600,333.221457L395.409606,326.404043Z M485.849975,305.461218L467.617005,280.130533L464.741040,291.916374L459.865281,304.909743L457.546115,318.697387L461.998941,332.693504L467.147141,336.278985L490.412648,344.243281L497.270597,348.966950L502.402019,353.863217L507.388710,355.621784L514.021317,350.553042L505.891356,334.003571L514.305830,319.111041L520.175521,303.910202L504.529781,286.436844L489.846139,283.679945L489.110805,289.469507L498.613691,306.702045L496.076696,315.388205L485.849975,305.461218Z M772.323078,313.526830L775.535883,307.736078L773.202705,299.670863L770.622436,296.293289L767.335564,291.399426L759.163333,284.024554L752.881627,280.027154L748.534491,278.648772L742.580648,280.337292L737.699814,284.920542L741.380277,295.604000L754.496566,308.666715L765.653010,314.354104L772.323078,313.526830Z M777.630990,237.752680L782.016068,229.588958L774.079519,222.011332L758.226650,212.574431L748.601736,214.847484L746.636929,223.595704L748.514073,233.205726L753.554943,238.131600L764.651167,242.058670L777.630990,237.752680Z M100.021649,240.198462L94.721931,235.065822L82.079692,226.075634L78.835479,219.738140L76.791213,210.680255L73.211578,203.482666L68.284263,197.972852L54.208329,189.295422L44.231475,186.265361L34.530711,186.265361L28.025733,190.810482L23.893330,196.010043L13.524307,206.168796L10.765104,210.232545L10.713694,218.773769L13.204841,228.038950L14.628094,236.512584L10.967217,242.816541L3.420217,247.915072L1.022720,251.187896L2.065468,255.149857L4.902575,262.764090L14.290154,280.957571L27.430449,292.709031L41.439128,296.775794L53.579481,292.226544L61.565813,280.544051L62.146953,267.932404L57.727903,254.495263L50.586727,240.198462L63.382358,248.052873L81.021810,266.726444L91.633766,274.858304L96.201501,273.411068L102.195318,274.134684L107.062821,272.928659L108.184376,265.968418L105.208116,250.808933L103.002730,245.434678L100.021649,240.198462Z M554.984031,178.483975L541.970926,181.858140L535.848114,192.704335L536.701143,205.548915L542.803603,213.056590L560.604572,203.000547L564.762263,209.543764L566.271246,218.945977L565.902462,222.872401L566.242042,228.348950L564.066487,234.032432L564.718695,238.407180L572.835909,240.198462L598.317841,199.212538L596.950561,192.910939L595.078197,188.193572L591.843884,184.647065L586.920871,181.858140L576.677785,187.091733L554.984031,178.483975Z M857.044435,197.835109L863.800864,192.084525L863.829496,181.858140L858.618560,177.933100L837.260292,168.912896L830.016632,164.506334L818.341634,164.403057L817.233331,183.579691L826.595683,204.687973L845.891815,210.232545L839.334728,199.212538L847.646920,199.832385L857.044435,197.835109Z M806.701649,130.429976L810.980496,124.441833L812.448391,116.699003L812.846854,108.199693L808.641790,100.423543L800.761695,96.673285L792.894287,95.434694L788.459595,96.914124L787.668597,101.455745L785.669187,106.410444L783.620551,108.956691L781.835989,111.847094L777.910889,120.862860L776.811780,125.130109L777.301749,132.185181L777.529334,135.076163L779.176844,140.686251L784.196478,142.338353L806.701649,130.429976Z M242.188705,93.473621L236.702973,77.683025L230.399479,66.434831L214.307862,63.545564L199.538610,63.545564L186.194893,67.879492L174.316049,77.923823L169.511070,86.386506L166.417294,94.608975L161.717740,101.627779L152.223714,106.272810L168.376166,106.995387L180.456880,113.223501L191.245037,124.028869L203.118848,138.276977L209.649769,141.649974L213.679167,136.211926L218.561137,121.000512L223.560194,114.599925L226.485679,115.047267L229.602863,119.348713L234.750543,124.132110L244.077457,131.049457L252.700220,140.755088L259.370021,153.043169L263.366953,167.707960L260.570499,172.149072L253.407764,175.729626L245.915851,176.693641L241.950816,173.491767L240.465504,165.848941L238.603015,159.617999L233.351614,147.225960L230.766223,158.206616L232.203569,176.073917L230.707863,187.642652L218.660576,199.212538L217.644956,222.872401L205.860771,215.123008L193.538550,210.232545L197.113718,218.429353L200.264108,230.277858L200.683720,240.852977L196.409768,245.400228L185.925866,243.333274L180.761629,237.339313L172.663309,216.569522L166.510852,209.233814L160.235364,203.241607L157.280190,196.010043L164.765588,177.416658L171.507890,153.008747L164.371893,149.841947L162.577215,150.255003L159.002295,153.008747L153.804238,150.048475L139.936663,147.225960L146.813123,156.657558L150.706883,160.857275L156.217023,164.506334L132.705685,174.903335L124.288315,176.073917L118.481264,179.172572L115.102034,186.609682L112.453953,196.182218L108.635182,204.997911L108.324690,189.605319L101.805490,182.994360L91.048655,181.548264L78.265595,181.858140L97.470042,216.569522L99.756051,222.872401L107.873370,227.315619L113.080610,238.062706L120.987329,262.764090L134.211701,283.852249L163.870307,320.972504L177.313733,344.243281L182.573868,333.589864L191.467356,325.316032L202.815260,322.282440L214.898189,326.901805L215.338727,335.451556L221.449698,339.519802L230.258080,340.209349L238.871191,338.451012L244.605277,334.417279L245.204702,329.763144L246.504146,325.178140L254.567693,321.110391L270.089978,321.248278L280.182241,329.314978L295.242874,355.828677L294.230688,364.208112L301.573019,366.484111L307.141062,361.311450L300.715347,347.449839L297.425936,335.796317L307.629370,329.659721L333.561751,326.901805L350.887589,332.831405L359.479190,332.762454L361.914525,324.006062L359.059832,317.559845L354.247667,314.423044L349.612264,312.492746L346.799974,309.597360L344.779991,297.602949L344.731184,284.575930L348.086901,257.492645L342.826215,262.867454L338.825430,268.518161L334.483277,272.928659L328.345059,274.858304L323.982521,272.239508L318.330765,266.244063L311.411316,260.283380L292.093421,255.149857L281.293733,249.120838L270.972419,240.542944L261.461796,230.966762L258.411743,222.045775L266.435207,218.153821L283.862381,216.569522L285.909273,226.592292L285.111896,229.485624L281.931749,233.860201L293.600314,241.851979L328.972364,251.222347L325.756530,243.023234L325.766015,235.479181L328.590939,228.693395L334.102011,222.872401L321.663621,216.156231L307.292184,202.380683L295.585650,185.783313L290.907741,170.840820L310.163816,180.721931L323.096853,172.768776L326.759050,158.000074L318.553680,147.225960L317.704838,141.443462L342.608169,144.334674L342.006066,158.619703L331.136067,176.624783L324.947886,190.810482L332.625355,206.650928L344.457747,215.019686L354.191146,224.973436L355.226071,245.400228L359.681839,245.400228L366.800581,217.671640L383.782286,204.068100L407.029011,199.556897L433.380856,199.212538L424.588449,209.681520L392.603731,211.403482L380.414698,219.738140L377.264188,228.245616L374.783243,240.956322L375.316693,252.531502L381.509695,257.492645L408.566242,257.492645L415.911442,259.456489L420.900948,263.074183L426.000932,265.279308L433.853782,262.764090L435.655178,259.869934L439.395839,248.190675L442.050276,242.816541L447.379548,237.959364L452.871553,236.719266L458.862036,236.340350L465.549264,233.860201L459.802333,229.072287L449.308781,216.569522L466.134513,210.232545L468.955500,199.212538L487.380383,170.840820L461.264836,168.430920L447.370505,164.437482L436.306372,158.791822L432.986104,161.063823L423.797189,164.506334L427.469146,142.407192L417.021861,133.389747L381.855393,124.132110L365.876097,110.608340L357.652840,106.203994L351.085512,109.438420L344.637330,110.608340L321.563943,102.453549L311.765901,101.008456L315.785549,107.098613L323.691502,124.132110L311.036024,113.705248L294.095923,105.102933L276.797984,100.905236L249.767384,105.102933L242.188705,93.473621Z M986.541182,0.000000L981.246416,0.309390L974.158205,5.431638L971.874067,11.860552L977.143208,21.968770L986.635584,26.885673L992.611763,24.134933L996.642641,14.645381L993.783387,4.400294L989.218531,0.550028L986.541182,0.000000Z "/></g></svg>