<?xml version="1.0" encoding="utf-8"?><!DOCTYPE svg  PUBLIC '-//W3C//DTD SVG 1.1//EN'  'http://www.w3.org/Graphics/SVG/1.1/DTD/svg11.dtd'><svg enable_background="new 0 0 1000 761" height="761px" pretty_print="False" style="stroke-linejoin: round; stroke:#000; fill: none;" version="1.1" viewBox="0 0 1000 761" width="1000px" xmlns="http://www.w3.org/2000/svg" xmlns:xlink="http://www.w3.org/1999/xlink"><defs><style type="text/css"><![CDATA[path { fill-rule: evenodd; }]]></style></defs><metadata><views><view h="761.287588576" padding="0" w="1000"><proj flip="auto" id="robinson" lon0="47.7345911573"/><bbox h="58.08" w="76.39" x="610.19" y="-702.94"/></view></views></metadata><g class="" fill="#000" id="country"><path d="M98.656839,497.977647L94.933069,481.783652L89.036520,473.083957L78.556043,462.915684L69.645141,458.036931L42.106945,468.095093L25.051295,471.513409L28.511178,475.637778L35.920606,483.130728L40.527473,487.803636L77.702499,532.891984L92.908188,546.217051L102.358463,557.500963L109.664453,570.103215L120.047141,578.617131L132.582298,583.230485L149.042148,595.463006L160.380411,605.000588L180.135025,624.779541L198.551083,632.163952L263.353211,646.498339L299.109164,653.156527L289.398138,636.121369L281.240102,622.289930L257.949114,586.876814L259.888856,572.392552L248.962153,564.021224L223.579762,549.007825L216.652262,542.793601L218.286205,534.275504L217.618040,518.709451L213.135714,506.102285L206.352066,502.301710L195.022217,502.055506L181.887600,505.181499L156.586606,517.316508L136.029646,509.550343L123.570403,501.723673L115.974893,495.174057L102.669328,500.621180L98.656839,497.977647Z M15.873224,184.687858L15.642407,178.973409L13.263185,173.795198L8.189842,172.160265L2.619279,173.522699L3.300272,179.235502L6.181981,184.687858L12.527348,187.141936L15.873224,184.687858Z M771.459007,759.287589L806.704699,750.735975L811.888287,751.126105L792.845367,666.965057L792.506767,661.770988L800.181381,634.600854L801.588536,608.780323L808.511325,596.603821L828.158528,607.466486L830.061285,619.746750L833.339544,625.296901L840.167128,619.477365L844.537778,610.126560L847.858275,563.312151L855.250792,553.688742L861.803769,549.147376L860.501744,538.416012L848.884854,515.837974L843.632820,492.349568L849.620967,441.714984L849.662197,387.793157L858.005642,364.562984L876.528950,352.649463L896.671223,344.218370L917.972491,338.035808L957.628719,336.554069L999.342354,346.039754L982.673359,317.283616L969.904283,306.558994L956.240373,297.256243L943.577573,290.828846L918.742571,281.693544L894.013058,281.609177L880.214147,280.143381L868.847434,274.935080L834.992876,251.591900L813.451979,233.590580L762.042599,184.908083L748.672232,165.611452L738.349810,143.811849L727.929415,125.830817L714.659376,110.362171L662.458224,55.733542L626.884901,22.235458L607.928440,9.903306L601.414688,23.786486L591.292471,48.532270L587.213964,61.644137L573.353329,73.793075L548.547818,86.668470L534.479188,92.242412L523.840457,118.920791L511.196046,144.889750L499.372845,147.778391L463.185557,143.738595L450.065542,141.394629L411.673754,129.961195L400.177060,122.966173L383.930055,92.900103L370.090095,79.979460L354.422958,71.727835L343.412669,64.719889L337.920148,57.484679L325.625070,47.021417L303.695925,31.449291L287.073811,16.698297L275.797276,12.702261L263.765507,17.905550L256.167409,19.362652L252.232420,16.760740L247.051916,4.379071L227.071432,0.000000L224.376096,7.645622L217.180725,21.475591L210.585681,28.533828L201.861657,29.668737L193.685934,32.844665L192.128068,40.249749L193.758608,49.866066L196.680654,56.744600L199.524958,59.361037L209.046622,61.592009L222.240781,81.763700L238.446851,91.991868L262.798424,103.603369L285.070357,116.830457L297.107869,129.020024L297.143633,137.868726L294.558154,156.268810L281.374224,171.521003L268.611126,175.461715L263.526983,173.994334L253.640694,169.215643L233.337587,157.389273L212.047713,148.081931L197.730665,151.086187L188.649802,154.635352L168.416978,150.468550L143.859053,142.388689L130.307177,134.416652L123.833255,128.549454L125.243510,118.136892L69.442625,99.384097L43.356829,94.194663L33.204041,99.833140L0.657646,128.131179L6.425219,137.826880L19.541093,148.594821L32.398587,152.949681L40.014947,158.897286L41.211322,163.411548L21.092882,168.890819L20.196161,171.615319L22.135246,174.308763L28.710908,175.650387L61.118095,189.197737L78.133869,189.491441L87.868247,193.614282L93.939130,201.715786L110.305104,212.740474L123.713847,223.456690L125.142872,227.156349L124.086432,232.591646L96.576723,253.571003L94.001966,260.805146L95.015589,268.463934L113.392859,291.293135L138.752934,316.279517L172.049062,335.284125L216.852825,355.955438L219.853298,368.762618L216.310659,384.001985L212.740141,394.358458L211.555549,401.373377L207.153073,404.329214L166.353527,403.691210L160.723686,406.168960L158.609694,409.179937L158.873941,411.679947L174.397769,416.330107L200.321842,432.708437L216.455948,448.593586L231.479521,455.539459L249.226338,468.223266L263.777322,480.062560L285.827965,495.388054L306.276541,490.359892L337.419843,504.003828L340.353947,513.288352L340.125618,521.570712L323.833279,530.618539L322.295685,534.372033L322.898534,537.514883L326.085290,541.956623L338.007827,549.372806L352.467489,560.368724L369.517323,576.843072L364.195151,581.746343L351.271854,582.456135L340.714609,580.434375L337.743537,583.779002L338.947215,589.178993L354.497840,601.695269L358.766031,610.837410L361.110244,626.719710L365.461541,646.768079L377.067065,647.275200L410.635645,606.874211L420.575210,593.418321L443.708107,586.425018L454.434425,570.414892L472.810102,551.036784L496.228299,532.816913L517.748223,516.470084L534.754937,506.594819L564.452878,483.537012L584.247905,475.552287L602.818220,475.798074L635.850306,502.826243L664.023413,527.444809L673.361433,538.265821L663.610848,547.955865L643.715612,557.329126L640.890869,564.203869L641.055663,573.005240L643.524893,581.434474L647.759485,588.307574L677.449045,604.289950L682.151546,613.077833L684.039531,621.998957L682.048704,627.571288L676.722774,630.805451L659.017787,635.291003L644.127114,640.510997L639.570068,645.635194L635.926815,651.721118L637.872909,658.467294L644.110816,666.144291L680.611882,687.148057L685.736361,694.878046L694.162144,705.271563L703.297809,711.654817L717.222199,713.396976L724.515052,717.693385L763.240049,756.545148L771.459007,759.287589Z M114.589466,275.177535L112.839924,266.251263L116.709255,262.690542L122.024928,262.869613L127.657305,266.072155L127.288426,273.216919L121.227949,276.779934L114.589466,275.177535Z "/></g></svg>