<?xml version="1.0" encoding="utf-8"?><!DOCTYPE svg  PUBLIC '-//W3C//DTD SVG 1.1//EN'  'http://www.w3.org/Graphics/SVG/1.1/DTD/svg11.dtd'><svg enable_background="new 0 0 1000 841" height="841px" pretty_print="False" style="stroke-linejoin: round; stroke:#000; fill: none;" version="1.1" viewBox="0 0 1000 841" width="1000px" xmlns="http://www.w3.org/2000/svg" xmlns:xlink="http://www.w3.org/1999/xlink"><defs><style type="text/css"><![CDATA[path { fill-rule: evenodd; }]]></style></defs><metadata><views><view h="841.870822491" padding="0" w="1000"><proj flip="auto" id="robinson" lon0="17.9342393388"/><bbox h="44.06" w="52.4" x="209.1" y="-757.87"/></view></views></metadata><g class="" fill="#000" id="country"><path d="M746.705334,839.870822L751.089290,838.390829L757.413718,833.845333L770.401175,821.191983L772.630552,814.549109L771.079158,804.480244L748.503637,772.621560L743.905644,751.967266L737.683934,713.551871L741.066144,704.459022L747.931553,700.056096L782.108948,695.261304L779.017100,665.335355L780.297377,656.366263L786.064295,643.930897L789.498873,632.551366L807.221728,616.274399L831.514322,596.894083L842.840895,596.321433L853.065363,599.018925L865.828821,615.701711L877.887891,613.531536L878.640433,593.503406L860.192884,567.252972L850.094330,550.481630L851.923679,541.244683L857.491211,536.407729L871.575203,539.436475L885.202918,544.002201L893.270854,540.913178L906.213242,538.532372L913.926169,539.195381L927.825495,523.433830L939.424558,521.143425L954.576237,520.631097L965.335632,528.617369L978.677247,530.320098L985.049758,520.103700L987.534462,505.381687L984.012318,486.650945L948.301769,443.067667L918.257893,412.650997L914.526425,405.942958L919.865187,400.259746L929.051467,397.199467L939.456682,399.747191L966.187363,401.933074L991.404899,399.129108L999.405378,391.726989L998.484102,381.731256L988.288417,372.458529L956.169449,347.441278L930.884108,325.405105L902.024898,308.493802L881.143745,301.704272L874.368167,293.133628L871.010901,283.958461L871.700599,267.084314L870.999439,245.676868L874.553581,232.207145L890.387759,206.770408L905.289030,179.781721L913.635069,153.808809L917.024031,129.684332L914.292528,122.754980L904.709171,117.625436L885.008515,112.419694L858.780477,116.959616L836.945747,125.720495L828.154220,126.386199L811.600782,127.626806L784.525631,122.028705L771.460544,112.222955L768.465483,102.203331L767.414336,92.893197L757.588369,77.618652L735.024146,61.819975L690.700592,59.214128L673.973232,54.198990L656.688471,48.440787L637.936507,44.182309L621.036338,44.606658L600.988803,48.804483L564.745041,41.848325L553.511091,51.138136L535.681456,61.880575L520.072459,61.607877L486.897160,36.694979L477.503421,35.118554L451.486521,47.819467L440.507236,48.501403L431.694792,44.485416L394.222848,34.966972L377.510303,32.920571L365.743687,37.422543L343.782873,32.541598L288.832309,0.000000L258.571459,24.749286L192.322217,18.593415L174.191636,35.573297L154.397343,67.743203L137.487851,83.100749L121.286374,77.588362L101.516448,63.440983L66.034489,27.008272L49.057681,20.428125L30.009522,18.896677L13.785519,22.914733L5.570124,30.313181L2.951705,83.509609L0.594622,130.349984L2.401235,158.405594L40.761805,184.376397L87.081706,229.035639L101.285771,234.170384L109.247132,248.787223L122.242525,286.418350L136.855405,328.708571L160.887506,356.700850L182.172992,376.740651L207.628756,394.350186L239.991357,421.951365L267.174211,452.246050L274.643599,463.428448L325.910614,503.483024L375.863774,544.363843L418.773338,558.663836L425.979765,566.213229L428.948944,597.662641L434.463480,609.462506L465.095067,642.393492L526.041917,690.602384L533.549438,701.775028L536.108453,709.962902L532.956034,716.236130L518.575368,722.841487L540.747321,735.585828L558.884762,729.914785L575.036960,734.002128L586.604307,751.665558L607.454777,763.297128L641.402209,783.742780L663.091442,799.408574L711.692620,827.593873L722.956388,831.534946L746.705334,839.870822Z "/></g></svg>