<?xml version="1.0" encoding="utf-8"?><!DOCTYPE svg  PUBLIC '-//W3C//DTD SVG 1.1//EN'  'http://www.w3.org/Graphics/SVG/1.1/DTD/svg11.dtd'><svg enable_background="new 0 0 1000 954" height="954px" pretty_print="False" style="stroke-linejoin: round; stroke:#000; fill: none;" version="1.1" viewBox="0 0 1000 954" width="1000px" xmlns="http://www.w3.org/2000/svg" xmlns:xlink="http://www.w3.org/1999/xlink"><defs><style type="text/css"><![CDATA[path { fill-rule: evenodd; }]]></style></defs><metadata><views><view h="954.5346888" padding="0" w="1000"><proj flip="auto" id="robinson" lon0="17.5340833907"/><bbox h="43.95" w="46.1" x="208.88" y="-758.0"/></view></views></metadata><g class="" fill="black" id="country"><path d="M833.820726,952.534689L833.786072,936.053712L832.758484,928.314990L832.755807,928.314314L824.669887,926.271432L815.675332,918.760641L800.457987,906.664809L783.755020,892.119247L783.751904,892.114267L782.306633,889.804150L779.387210,885.083340L779.387003,885.083172L770.438110,877.830076L763.268797,872.002426L743.669148,857.407505L734.628943,852.016599L734.455626,851.925845L734.112837,851.435776L728.322602,843.359020L728.321988,843.357601L722.665512,830.292200L718.554961,815.412240L718.377431,814.740868L718.185665,811.429420L717.428785,798.665225L719.875282,793.140782L722.555407,790.183612L724.438970,788.115442L726.497452,778.074329L726.364542,772.305737L726.184331,764.759705L726.181135,764.757105L721.256267,760.751009L715.117350,758.746694L713.556568,758.247886L712.526716,758.157194L706.864905,757.685596L706.863481,757.680647L705.710901,753.677056L706.054471,748.199461L710.137986,742.177910L716.521118,739.158134L720.670780,734.107132L723.647117,730.099060L720.114035,698.435785L717.304024,675.914473L715.076267,664.346054L715.073265,664.342260L707.127574,654.300965L707.127728,654.300170L707.614891,651.771588L708.581279,646.794453L728.575551,647.773559L749.355622,647.773559L774.596327,646.794453L803.482701,649.242220L813.460378,649.242220L813.475382,649.242220L814.268719,644.274168L810.339110,632.688199L806.821219,621.174859L804.011063,607.649004L804.426947,598.583407L804.745388,598.284242L806.584997,596.534577L806.588317,596.531416L808.631740,594.585467L809.747344,583.788251L809.705725,569.237641L812.277518,560.706572L820.982115,560.706572L826.795167,560.706572L835.526525,565.729130L843.119086,571.748888L853.021360,575.755986L863.159067,579.562588L863.161803,579.563615L863.750712,579.781194L883.591798,592.826733L896.948282,598.347701L916.678859,600.867940L925.627666,598.855375L940.797133,596.842808L952.293885,595.337914L961.463507,591.321835L973.868526,586.308517L982.821057,579.781194L989.283762,573.253819L998.272063,571.748888L999.475635,566.726383L995.229956,556.681238L995.228006,556.679276L989.752004,551.169014L979.980544,548.657665L973.344802,548.657665L966.159591,542.628554L958.434937,535.103364L944.564264,533.090575L917.159440,532.591909L904.446529,534.096970L899.223994,540.624874L897.356895,552.166297L893.150857,560.706572L888.162403,565.221436L877.329031,564.713742L870.197801,563.716486L869.167174,563.081867L869.162068,563.078708L853.959377,553.671282L841.528185,549.156310L832.049588,545.149006L819.557644,544.641290L811.634191,544.133574L807.371721,538.113458L798.429235,526.072918L798.429052,526.071959L796.894978,518.039590L795.433944,511.003441L798.983919,508.999556L811.093564,510.006034L819.101324,511.511211L827.724163,510.504738L831.962163,506.995655L834.044232,502.480019L833.058001,491.426324L831.293622,480.879913L828.512306,468.328696L828.168030,459.785406L830.622100,454.778955L838.770328,448.738365L846.887630,442.207746L848.297818,434.933042L851.308090,434.824192L851.308344,434.824182L861.917075,434.425070L871.765285,428.909830L883.546101,417.352541L892.369245,409.822545L895.512495,403.290154L899.127610,399.824222L899.128289,399.823553L899.689942,399.270753L904.945618,388.718073L905.490834,376.658020L901.587650,365.613191L896.596214,356.055830L891.219038,347.005937L887.818500,332.435432L889.761314,326.397787L896.281413,325.399042L904.538954,320.877314L909.313223,314.339482L912.245626,305.785097L924.769007,302.769978L936.284263,302.270475L943.357659,298.247101L951.050277,292.216225L955.854289,290.454110L962.769436,284.913196L964.780274,279.889714L963.365747,255.748933L961.051624,235.109116L958.467715,229.573258L958.466748,229.573072L947.970851,227.555152L937.847146,229.573258L934.647676,235.109116L930.302985,246.179544L923.203501,258.765808L916.876803,261.782564L911.107656,261.782564L906.237887,258.256946L889.084686,242.153304L877.080261,232.591218L877.078159,232.587028L873.547158,225.546079L873.230338,217.500109L876.153859,213.463129L883.991734,208.934877L891.411270,204.406316L892.728162,196.348707L891.772667,190.309388L891.770192,190.309236L883.477345,189.800022L883.475165,189.794972L880.870102,183.760082L877.927681,169.658545L872.468584,155.044076L872.466849,155.043035L877.014684,138.386789L880.305635,140.552213L880.307469,140.553420L882.076972,145.414384L881.829715,152.459323L882.176074,156.240281L882.176543,156.245400L889.259798,156.245400L897.070432,149.747032L898.128542,145.232332L898.552286,144.023889L898.547873,144.021505L891.176743,140.038226L880.422796,130.806628L876.401305,120.681071L878.167839,117.238685L884.034191,113.103891L884.577282,109.624591L884.019182,108.404049L882.403236,106.673384L881.686831,105.671394L881.413134,104.632947L881.240951,102.756406L881.023739,102.009414L879.993789,99.864133L879.055613,98.388285L877.807481,97.422585L875.755305,96.766628L867.666060,96.092441L864.158336,94.798707L860.379688,91.190663L847.905916,72.107717L846.332995,70.503494L844.555890,69.591984L842.611137,69.774287L841.220181,71.141543L840.605557,73.201478L840.205555,75.334248L839.468412,77.029467L836.879955,78.305403L834.445608,77.357568L832.241910,75.024363L830.348545,72.180635L827.967568,67.568375L826.543845,65.964020L824.296680,65.107129L822.421390,65.398837L818.603453,67.531913L816.731432,68.188227L814.406878,68.115304L809.680113,67.112597L807.350654,66.984978L803.269556,68.516381L803.300236,69.227391L803.404841,71.651976L805.191178,75.954011L806.175100,80.911865L799.231377,80.711372L791.461053,78.268948L788.717972,76.808268L783.999052,74.295216L779.556008,70.448701L779.552338,70.445523L772.524249,64.359617L767.237095,60.749540L761.543505,58.561500L741.116166,57.066289L736.690913,55.425158L722.889190,47.255250L715.754626,44.866057L708.799999,46.160976L705.956124,49.589632L705.693387,53.984569L705.881036,58.433861L704.249000,62.135254L699.440422,64.870114L693.419275,66.000482L690.554935,65.950588L690.553125,65.950557L687.139500,65.891093L681.467399,64.924810L674.877873,62.317583L657.881761,49.844949L653.117266,47.692954L648.634748,47.729429L644.498785,49.680816L628.630831,67.951226L624.214232,71.816043L621.849574,72.982727L614.090068,74.313445L605.858580,77.394023L603.030691,77.685666L597.058862,75.662359L591.496412,71.506139L573.789917,53.401029L565.492385,46.781067L556.572855,42.567958L546.995321,42.075496L541.030759,44.902533L531.267812,54.695751L525.604408,57.941539L522.486228,58.306223L516.138812,57.740962L501.840618,59.400259L499.757365,60.056670L501.048295,57.777431L503.064429,50.428526L496.471176,53.583386L493.069957,54.112218L489.353611,53.036313L491.243527,50.811496L491.968317,48.860148L491.470406,46.854019L489.606211,44.501285L487.241340,43.242806L486.052468,44.628956L485.496317,46.817543L485.003181,48.002993L475.663933,50.665603L470.417676,51.157989L466.272672,49.224891L463.461621,47.255250L453.559363,41.874862L448.019424,39.941444L436.310738,33.538807L431.669285,44.008840L430.585106,45.595592L416.962797,46.452784L414.003550,48.002993L395.443262,40.769627L387.656938,37.734349L374.719448,29.689583L368.253410,19.089200L366.604873,20.329965L362.272818,22.866151L360.627055,24.143326L361.600222,21.205783L361.718058,19.052706L361.099647,16.972540L359.804642,14.253613L357.418097,18.760758L354.239445,16.954292L350.423842,13.195205L346.067773,11.863044L347.452126,14.235365L348.426938,16.680580L342.535585,17.246250L340.711127,15.293755L340.636802,12.246271L339.989849,9.454126L337.059086,2.026011L334.516674,0.000000L327.128915,5.785813L326.402234,7.410119L324.299638,10.348357L321.542106,13.268199L319.330183,14.527336L318.051882,18.468808L315.370955,20.165747L312.263276,21.369997L309.587187,23.851403L308.300622,28.065898L308.760583,31.130792L308.526634,33.702987L305.160804,36.475719L297.923167,37.314808L239.455981,22.482994L222.728106,21.990358L209.864231,30.017963L201.909061,48.167130L198.419769,53.546914L195.488000,55.516333L188.106554,57.576853L185.562434,59.199687L183.684326,62.463445L183.902796,64.450778L184.680957,66.747972L184.417780,70.886325L183.309387,73.748350L178.214634,83.263040L175.872845,93.349195L175.871991,93.352871L174.719135,98.315403L167.834378,99.973453L157.053091,97.878107L145.752493,93.723608L137.287079,89.313654L109.181140,66.492733L103.704402,60.713073L96.500137,46.926970L91.605212,40.579844L87.822201,38.172127L81.433898,37.004712L78.811828,35.381236L78.862867,33.757713L79.729104,31.167278L79.634588,28.065898L76.864592,24.927862L73.302849,23.431761L70.145239,23.304043L63.639982,24.417002L36.091383,23.760177L20.731838,25.967811L14.739724,31.092118L11.984763,33.447597L9.311524,41.145278L9.253771,43.862930L11.938965,64.815418L11.113888,70.302963L5.539039,85.522988L5.926274,92.101808L10.168636,102.792844L9.547917,109.023432L3.242046,119.843261L2.170358,123.513743L1.428601,126.053675L3.089716,134.903678L7.590763,141.986320L12.689902,148.321720L15.913236,155.020469L15.022954,161.245254L10.149399,163.283638L4.348996,164.885176L0.524365,169.744130L1.333390,175.639867L5.017460,181.753368L13.088450,192.250457L14.834867,194.051343L21.938231,198.125889L24.391261,201.363515L26.542053,204.928355L29.223350,207.256311L33.409689,206.692516L36.118163,205.892284L41.244562,205.546727L43.660632,204.819231L45.630910,202.563942L46.946260,199.544644L48.801262,197.343742L52.420411,197.543827L54.541026,199.544644L55.868270,202.836763L56.925914,206.492459L58.145633,209.547811L60.503642,211.530078L62.902651,210.966320L65.194050,209.784231L67.382734,209.966093L70.777441,213.785062L73.633277,222.549690L77.858587,227.458848L80.911712,229.167880L84.597999,230.204188L91.698575,231.076857L95.361028,232.567641L97.884150,235.876341L99.658164,240.275584L101.070401,245.001744L100.648855,245.328928L98.348035,246.401356L97.427925,251.036243L93.074813,256.379636L91.247823,262.013416L97.614491,267.574094L103.629076,268.228265L113.806539,264.157777L119.988559,265.048214L123.628567,268.882431L126.021374,275.060393L128.082298,281.946438L136.539899,299.258923L139.002487,305.925010L139.487056,311.337425L137.953015,313.843734L135.615725,315.242151L133.821168,316.713189L133.886879,319.455432L134.874412,318.347649L138.106017,318.456611L143.451119,319.637035L149.716729,323.032937L153.032095,325.720514L154.089831,328.968565L154.173390,329.225144L153.860048,335.108273L153.076360,338.049702L150.597224,343.732583L150.062109,347.563352L150.749958,352.900769L154.359798,363.883366L160.952548,378.984885L166.146471,385.010409L179.625965,396.824629L184.314754,403.230329L191.824605,416.966128L196.558044,423.153132L202.504494,428.033598L205.938474,430.246989L208.890896,431.662090L212.022036,431.934223L219.517987,431.444383L222.500342,432.478489L226.664368,437.848464L228.390744,443.018703L231.081886,447.154771L244.083463,451.181894L249.442852,454.628453L254.298570,459.253987L257.782012,463.353670L266.845934,474.018618L282.052214,486.796181L292.398927,498.258152L305.124363,507.987690L307.720236,513.092600L309.242666,518.995316L312.297272,526.448341L316.927455,532.260126L350.976847,554.790102L400.182577,596.057782L415.454575,610.517412L425.275893,617.791731L432.150787,622.882874L449.726204,631.268575L478.121806,635.103349L487.562593,640.433977L492.932628,649.499746L489.903672,678.991636L497.832339,696.499168L510.341999,711.613902L522.984034,721.370468L529.147200,724.689239L532.416740,727.164746L534.648284,730.891658L537.676891,738.073620L541.602220,744.829604L546.436613,749.490910L549.133917,750.993178L590.757044,774.168773L594.124145,777.406591L603.737380,786.649655L614.192826,805.227763L614.223669,805.236835L614.259059,805.300339L614.290659,805.318483L616.095776,815.043949L608.328981,820.415035L592.898470,823.339172L599.686639,826.679681L604.338226,830.466284L599.331699,829.251701L591.176990,826.079550L586.067962,825.908085L615.400175,841.212311L615.549531,841.298054L615.555055,841.300953L618.802429,836.302816L622.437329,832.609699L628.766096,831.266775L635.272518,832.410074L647.819074,836.665782L654.100430,837.627647L656.323682,836.502447L658.492708,834.733000L661.134566,834.651334L664.845319,838.689338L665.975110,842.101333L666.355700,850.568234L667.294900,854.579572L677.485978,867.277065L680.830880,869.092413L691.255111,871.643032L698.770146,876.472133L712.363866,889.063388L719.633796,894.165715L736.155726,903.190792L789.712854,933.659411L799.725730,938.291956L816.026239,943.097363L823.887035,942.643153L827.271030,944.832466L833.818112,952.531614L833.820726,952.534689Z "/></g></svg>