<?xml version="1.0" encoding="utf-8"?><!DOCTYPE svg  PUBLIC '-//W3C//DTD SVG 1.1//EN'  'http://www.w3.org/Graphics/SVG/1.1/DTD/svg11.dtd'><svg enable_background="new 0 0 1000 1528" height="1528px" pretty_print="False" style="stroke-linejoin: round; stroke:#000; fill: none;" version="1.1" viewBox="0 0 1000 1528" width="1000px" xmlns="http://www.w3.org/2000/svg" xmlns:xlink="http://www.w3.org/1999/xlink"><defs><style type="text/css"><![CDATA[path { fill-rule: evenodd; }]]></style></defs><metadata><views><view h="1528.1894287" padding="0" w="1000"><proj flip="auto" id="robinson" lon0="-59.5699985396"/><bbox h="4.92" w="3.22" x="-876.71" y="-223.77"/></view></views></metadata><g class="" fill="black" id="country"><path d="M467.659980,1526.189429L500.146549,1504.175118L528.680607,1498.671544L557.789423,1499.094895L593.893830,1494.226342L697.716199,1383.731407L753.806690,1342.454552L849.496971,1271.966361L974.634079,1137.340212L999.672601,958.050233L950.765755,882.693364L869.129262,839.511322L781.836098,807.124788L715.496928,762.672674L601.977836,660.856134L521.744734,588.674319L467.242757,496.171484L392.671922,285.552761L365.622390,208.925593L346.950685,156.217940L290.696312,50.802595L209.960104,0.000000L125.493483,34.291754L56.213015,108.378852L19.763644,176.538964L5.745141,257.188012L0.327399,958.050233L45.415683,1189.412597L91.274047,1303.506126L149.607855,1351.979977L185.442140,1354.731771L246.015144,1359.600322L346.838873,1386.483196L427.875262,1440.248940L467.659980,1526.189429Z "/></g></svg>