<?xml version="1.0" encoding="utf-8"?><!DOCTYPE svg  PUBLIC '-//W3C//DTD SVG 1.1//EN'  'http://www.w3.org/Graphics/SVG/1.1/DTD/svg11.dtd'><svg enable_background="new 0 0 1000 1264" height="1264px" pretty_print="False" style="stroke-linejoin: round; stroke:#000; fill: none;" version="1.1" viewBox="0 0 1000 1264" width="1000px" xmlns="http://www.w3.org/2000/svg" xmlns:xlink="http://www.w3.org/1999/xlink"><defs><style type="text/css"><![CDATA[path { fill-rule: evenodd; }]]></style></defs><metadata><views><view h="1264.93156021" padding="0" w="1000"><proj flip="auto" id="robinson" lon0="89.8590185171"/><bbox h="98.71" w="78.1" x="1266.74" y="-446.47"/></view></views></metadata><g class="" fill="#000" id="country"><path d="M856.303245,1053.585975L854.343506,1043.899039L854.248162,1042.799437L853.700520,1039.360998L850.781164,1040.286061L847.535521,1040.827135L849.536711,1045.574620L850.518552,1051.020250L850.095963,1056.151696L847.738270,1059.991546L847.903477,1056.989482L848.781951,1053.585975L849.174007,1050.269732L847.872860,1047.477101L844.833428,1045.208087L842.766263,1045.007366L841.309780,1046.988391L840.157506,1051.229697L840.236770,1059.171215L846.145952,1073.448423L848.315472,1082.105468L848.973627,1087.219394L848.801461,1089.436007L846.532698,1093.939043L846.704011,1095.483688L847.468593,1096.949791L848.801432,1100.745946L850.135040,1102.500030L851.924092,1103.730506L853.915190,1103.922495L855.958946,1102.657112L855.633456,1100.981569L854.544703,1099.358386L854.383182,1098.206449L857.928448,1097.630481L862.720634,1098.511887L866.760356,1098.337351L867.928167,1094.602281L867.658101,1089.776353L868.113513,1080.770260L867.883530,1076.241022L865.010955,1067.758495L856.303245,1053.585975Z M337.051370,1048.332345L335.184316,1042.432903L330.443297,1039.360998L325.823830,1036.734166L322.823446,1030.398337L319.020578,1015.946280L317.880410,1012.935420L317.208706,1011.678711L316.434832,1010.666362L315.584117,1010.081642L313.428146,1010.212550L313.521639,1012.202340L315.230911,1015.946280L316.174907,1019.288765L319.030523,1026.427524L319.677636,1030.581605L319.039055,1034.613499L318.043478,1035.940007L318.173673,1036.777801L329.258451,1048.882144L335.306673,1052.128574L337.051370,1048.332345Z M837.555737,1049.170134L839.931758,1037.467236L840.283064,1030.040528L842.113446,1024.533748L842.233705,1021.130184L841.501082,1018.101878L838.124883,1010.081642L837.640856,1008.379846L837.239415,1007.681673L836.420219,1007.018408L832.774994,1012.376882L831.823698,1015.134657L831.675411,1018.869864L834.593311,1029.848533L834.165899,1047.625460L836.261008,1051.229697L837.555737,1049.170134Z M599.540870,1006.337688L602.359263,1005.552243L600.811100,1002.166093L599.958090,1000.717378L599.103618,999.687567L598.486659,995.306500L587.328963,1004.522435L586.658421,1005.552243L586.094410,1007.018408L585.962526,1009.304925L586.508636,1011.259808L586.755140,1012.909238L585.746806,1014.331761L587.274109,1015.317927L588.365586,1016.426272L590.293415,1018.869864L588.829219,1019.088042L586.602188,1020.004388L585.319940,1020.336018L585.542347,1021.924349L588.848165,1022.133800L592.037898,1019.035679L594.422893,1014.401578L595.386723,1010.081642L596.670014,1010.081642L598.365612,1011.189991L599.540870,1006.337688Z M554.131498,1024.699563L555.544822,1022.386885L557.629410,1005.569697L561.103382,997.086856L561.120120,992.374146L557.042777,993.543597L554.355585,997.409763L551.452304,1005.552243L550.319721,1010.291094L550.312060,1015.413925L551.707389,1025.397729L552.578335,1025.903900L554.131498,1024.699563Z M552.994672,998.361030L553.639894,993.927596L557.984530,987.469420L558.408278,982.119586L555.962602,982.651952L553.830683,987.556693L552.338379,993.796687L551.817180,998.361030L552.994672,998.361030Z M570.878772,1012.202340L574.376148,1006.782774L578.001511,1004.216983L578.870153,997.401036L575.674437,991.641056L567.475190,983.585774L566.015652,982.119586L563.909730,984.205413L563.520684,986.265055L564.911778,993.037417L565.110871,997.566853L564.480762,1000.281017L563.556569,1002.515181L562.971287,1005.552243L563.537939,1009.270017L565.425171,1012.394337L568.061769,1013.755770L570.878772,1012.202340Z M596.799172,957.237780L595.092072,956.906136L593.107388,958.232713L591.255129,960.493126L590.019666,962.954266L587.701995,962.893174L583.606550,968.819092L581.493283,970.416206L578.393239,971.760223L576.771306,975.233716L576.300009,979.911573L576.644551,984.921051L577.806816,984.921051L578.515279,982.774134L585.772482,977.729739L587.111667,979.195932L581.394289,985.313780L580.671256,987.251238L581.279542,990.174876L582.429070,992.548691L584.518944,993.561052L587.838794,992.374146L591.097643,987.329784L591.718092,979.963937L591.650789,971.803860L592.762976,964.420475L594.153201,966.881608L594.654155,968.286721L594.970894,970.416206L596.799172,957.237780Z M658.621504,947.794613L657.943588,946.852038L657.215303,947.035316L656.421389,948.449179L655.046403,946.852038L654.233007,951.617272L653.813500,958.093073L654.469959,964.080105L656.822101,967.352888L660.314014,966.331781L661.039421,961.357143L659.386148,949.767037L658.621504,947.794613Z M665.257710,950.517604L665.990381,946.564029L665.895667,941.999509L665.164782,938.054634L662.394535,936.832767L661.921844,941.118023L663.439241,952.577298L665.257710,950.517604Z M663.039101,932.067474L663.202397,927.633813L662.411995,923.287413L661.104219,919.333745L659.596044,916.087013L657.978208,914.489827L656.569895,917.911119L656.221559,923.147769L656.968308,932.870418L656.253152,935.881455L654.853080,939.485962L654.726853,942.505709L657.822522,943.788663L663.039101,932.067474Z M685.676455,970.678732L687.234745,966.930335L689.501554,966.329975L691.896183,964.476075L695.258582,961.065760L696.920696,956.033388L697.762412,953.371501L699.093470,950.133487L701.158908,943.573007L699.250144,936.588393L698.442321,931.596180L695.474002,923.863443L692.319034,921.197013L690.137291,915.839367L685.517656,912.019681L678.586278,908.486199L675.435690,909.075733L676.779205,925.711915L678.786627,940.789942L678.578830,951.233261L677.820016,954.794084L675.242356,960.512704L670.869998,967.367215L672.459468,970.526847L674.759415,972.074409L677.861992,972.877327L682.483697,973.152800L685.676455,970.678732Z M592.243487,899.844478L589.318624,896.920620L588.236384,896.108921L586.929180,895.829626L585.875902,896.266024L585.614460,897.592672L586.436295,900.368153L587.515979,900.743454L588.716409,900.490344L589.951909,901.319496L591.707200,905.133585L594.337395,913.573407L596.066144,917.422363L594.798943,917.422363L595.291463,919.595577L595.590037,921.995708L596.100976,924.299829L597.323735,926.202471L598.013506,922.484461L595.608144,913.913792L596.374230,910.108463L597.106417,911.740566L599.766729,916.087013L598.586309,911.016157L595.696968,905.081218L592.243487,899.844478Z M596.062113,899.966669L596.615180,899.408082L598.349729,898.255995L597.689298,894.092762L597.041437,891.797302L595.934640,889.458198L594.964307,889.318550L594.411078,888.725045L595.110518,901.319496L596.062113,899.966669Z M689.214653,895.758819L692.786866,893.921746L696.233476,891.142431L697.325354,886.139124L694.717941,882.026510L687.402973,884.444223L681.351033,887.506755L680.387910,893.454976L684.549714,896.014898L689.214653,895.758819Z M764.060226,906.192606L764.580028,898.987698L761.901857,889.852394L742.057255,866.664827L738.518856,868.811088L735.859701,879.751177L737.958055,886.679355L742.323906,895.207944L749.042291,903.771797L755.389136,907.315418L764.060226,906.192606Z M636.918828,959.733837L637.671370,954.209342L632.500725,919.580354L633.273056,899.192739L628.762519,894.124049L619.443711,886.179544L614.378624,881.417975L611.113997,874.789223L608.209017,864.391685L604.561643,859.324954L601.086174,855.516108L597.728546,850.450532L593.511543,843.484468L590.307699,837.470109L587.171866,829.877517L584.377492,823.524435L580.816212,823.908496L577.684529,824.755175L574.687287,826.108114L572.927794,827.679266L572.008028,830.044717L570.456491,847.702466L571.109422,855.191406L573.147944,863.099240L576.275299,863.972065L587.884874,871.967105L591.284287,874.821212L594.152418,879.944619L598.185501,892.931941L600.842099,896.920620L601.034549,898.255995L600.661314,900.900556L601.671542,905.089945L604.075805,911.426365L603.474521,915.118228L605.258069,927.668724L605.226220,931.770733L604.807247,935.279248L599.658892,953.362774L599.006517,961.304779L601.727632,966.017594L599.734410,970.695482L598.531156,976.909368L598.604899,982.983590L600.415055,987.251238L603.281197,986.596692L611.346266,970.416206L609.983400,976.350818L607.431542,982.852680L606.106926,988.970512L608.268676,993.700688L610.206398,993.953778L612.414798,992.915235L614.534732,991.571238L616.072620,990.916693L619.663697,982.041040L621.223874,980.906488L624.803020,976.123907L626.193888,978.270834L626.596590,979.195932L629.393837,976.141361L636.918828,959.733837Z M573.402831,804.251325L570.603594,803.256233L563.284321,803.291149L561.780551,803.518100L560.954431,806.503370L557.976870,806.957270L551.434324,805.717774L549.114595,806.852524L548.180581,809.724308L548.195974,813.521331L548.679589,817.431809L550.110039,823.384777L550.127619,825.357451L548.920194,827.818924L554.195037,829.459901L556.238384,830.856475L557.278464,833.021160L557.841912,835.019997L560.550155,837.402845L562.751658,839.753579L564.741727,836.104745L563.338809,832.760970L562.906488,827.425222L565.231285,824.327471L567.888780,823.227661L572.502185,817.840193L579.430903,818.234201L585.993904,819.648902L588.843321,819.037892L585.489133,814.622622L581.442393,810.252598L577.766940,808.552194L573.402831,804.251325Z M577.479420,783.319204L569.048073,774.031367L564.610745,770.434917L560.073140,770.923756L554.707405,776.283504L552.029662,783.118434L555.720752,787.997994L557.706406,788.382072L562.729062,788.312240L564.686687,787.997994L566.187862,787.247294L566.712964,786.418033L567.398292,786.060140L569.418908,786.679905L571.210631,788.094014L574.062929,792.397426L575.686950,794.003562L577.492245,794.797900L583.348308,795.470031L582.124240,793.409990L580.390263,791.367403L578.276460,789.508119L575.943078,787.997994L577.503379,788.155117L582.241835,787.997994L582.046413,786.679905L577.479420,783.319204Z M545.259327,775.262186L548.585551,769.762762L551.003912,766.777343L551.039829,765.197335L549.493636,763.111021L548.149874,764.001415L546.720788,764.420424L539.568503,764.446612L540.989965,767.519334L543.874062,776.283504L545.259327,775.262186Z M545.792327,702.832059L536.248945,697.890764L529.175301,695.332799L524.350653,695.289148L524.078104,697.262187L526.511529,700.300306L533.320466,706.778082L537.116896,709.475681L540.797751,710.514559L543.863965,708.786005L544.505188,706.359037L548.447553,707.930456L556.019623,713.185951L553.727243,708.489182L545.792327,702.832059Z M957.338015,1262.931560L958.683909,1261.282209L958.789665,1258.978355L957.916831,1256.709408L956.174724,1253.951767L951.212944,1242.668141L950.248611,1238.645137L949.047390,1236.411106L942.503344,1227.588432L939.461870,1219.708247L937.431734,1210.946674L936.472259,1202.062932L936.548833,1193.790058L927.998807,1186.909698L926.443864,1183.595923L924.771327,1180.404059L919.799499,1175.993079L917.986323,1173.033954L916.382217,1169.232530L916.548297,1165.874420L916.700315,1159.523931L916.346627,1155.334601L913.832867,1146.811855L913.284638,1142.611435L913.759277,1138.865410L917.811325,1130.785958L919.046048,1121.653611L920.527972,1117.442085L923.544599,1116.921186L929.430996,1117.020932L935.220964,1107.833139L941.473729,1109.994323L944.424146,1113.507629L945.704826,1117.020932L946.593159,1120.611813L948.406596,1124.368935L950.229277,1126.142206L952.372540,1127.328081L956.834989,1128.901859L964.799963,1129.721996L970.776113,1128.270131L975.739336,1129.444923L980.558506,1138.067440L983.194572,1146.734275L985.140361,1151.167434L987.725220,1153.860577L991.439622,1153.517007L995.368472,1150.458129L998.403678,1146.368539L999.604409,1142.888507L998.962548,1140.713115L998.322456,1138.544006L988.584311,1116.799273L985.112644,1106.059859L983.883872,1100.618100L973.906431,1049.480553L972.458708,1016.673862L971.010751,1010.190035L966.483380,997.233387L966.071582,995.304843L965.415243,993.409548L960.940960,979.266799L954.656105,964.835727L956.572708,962.718714L959.337466,962.751965L961.291494,961.687915L960.770276,956.245729L939.752197,886.171137L938.920416,882.479955L935.556723,875.784800L934.336230,872.193340L932.873327,859.733969L929.115307,843.217277L927.817088,839.902815L925.323900,836.665937L919.628577,831.987961L916.985709,828.778766L914.709624,822.266112L910.598257,805.582391L907.374116,801.962918L900.826484,799.280174L896.497246,793.665228L893.989442,786.431695L891.882972,771.504340L882.551881,741.144238L881.417361,732.613008L881.686602,729.381201L883.869575,721.930798L884.538660,718.078063L884.087295,715.893912L882.905243,713.809538L881.399756,710.250563L881.015291,708.132908L880.879368,703.914208L880.403561,701.951754L879.548641,700.876282L876.784156,698.830662L875.646399,697.411476L875.168372,695.931304L874.994269,692.959863L874.457898,691.352175L873.136960,689.495012L870.337565,686.983675L869.097836,685.281725L867.744087,682.110653L865.044213,671.660406L854.137172,647.194438L852.495725,640.047933L853.215190,630.927547L852.259843,627.167700L852.050034,626.342346L847.895108,624.119036L845.126763,626.065126L844.342188,635.972886L842.007475,638.861460L838.920707,635.163417L835.750656,626.952230L831.130176,620.942071L823.751280,623.819637L821.324525,627.445681L816.721814,636.427519L814.000638,639.415887L809.867107,640.596815L806.751852,639.016700L797.534579,629.635711L794.591577,625.638207L791.812647,622.683028L789.252236,622.805006L788.549546,625.616029L788.896557,630.240047L790.471934,638.429007L799.233848,663.261264L800.258861,671.682582L797.246812,679.244476L795.280583,682.099565L792.672661,684.394713L783.175016,689.123578L780.622057,691.906551L776.881369,698.897187L773.051409,708.936731L771.169818,719.497202L773.492096,728.061865L777.266880,734.880253L782.305312,749.653185L785.692265,756.221907L786.740318,758.721886L786.251888,760.678625L783.948599,763.921368L783.501122,763.998972L781.716578,763.838221L781.109337,763.871480L780.319015,764.719579L780.394792,765.728429L780.680159,766.731733L780.577687,767.574287L778.240019,772.629584L777.175911,774.203814L774.515604,777.252489L773.387860,778.915397L771.343907,780.467441L766.507536,781.648101L764.147938,782.629212L762.874931,782.945162L761.527905,782.640297L760.133467,782.146971L758.792270,781.880907L757.220537,782.629212L756.623736,784.391881L756.240541,786.431695L755.386364,788.011438L752.635653,789.835067L751.951183,789.097856L751.652451,786.974905L750.131329,784.613600L747.406731,783.288827L744.865833,782.806587L742.267639,781.814391L739.445876,778.948655L738.326115,776.714814L737.147173,770.395723L736.548782,769.597518L734.711738,769.087554L734.090898,768.394666L732.308953,762.912516L725.674257,747.225235L724.482030,745.035639L722.217449,738.422460L721.767395,738.355940L718.593836,735.467851L718.235111,734.364719L718.296076,733.128544L718.018918,731.681717L716.553572,729.968803L716.524837,730.157280L716.119373,731.642913L716.204546,731.825846L714.177546,728.682729L710.856644,724.580579L706.840865,721.570471L702.754087,721.736776L701.157482,724.818948L700.944468,729.835761L702.430349,739.381459L708.612770,757.385978L708.987860,764.453509L702.521107,762.674161L697.133674,756.244080L693.388050,747.391533L683.844661,712.861588L682.706553,710.666332L681.448113,708.936731L680.867358,707.262561L681.887028,705.300118L683.441912,703.337668L683.985535,701.641308L683.180150,700.377351L680.667195,699.701022L677.998930,697.760729L675.444030,693.442169L671.558016,684.322644L669.856138,678.978370L669.165335,677.348468L667.659271,675.391471L664.096663,673.240429L662.326935,671.682582L660.082904,668.167708L657.449289,661.148985L655.446631,657.351298L648.406427,646.595666L646.984315,642.858866L646.811106,637.697162L649.091699,637.370049L651.743671,637.586276L652.824873,634.104453L651.154263,630.872104L647.907750,629.663433L644.719583,627.972398L643.205614,623.304005L644.297200,619.173385L647.049396,618.081122L650.513046,617.748453L653.623448,615.896589L654.961676,612.375811L656.822699,600.665588L656.718853,596.623503L655.530129,593.939850L652.657444,588.949550L652.037672,586.005249L652.365482,583.016572L656.767339,571.072771L658.262269,568.233718L660.331230,565.882615L663.332741,564.468620L665.829248,564.673789L666.519731,564.965338L668.061774,565.616452L670.122113,565.960246L672.084664,564.379899L672.570789,555.618584L671.539433,547.422725L672.906857,541.927315L680.469035,541.223055L695.008002,544.467079L701.960582,545.071518L709.405333,544.112178L713.459325,542.731390L715.862139,540.823789L717.136613,537.845919L717.829508,533.287578L717.603069,519.689919L718.027745,517.144472L720.082523,517.920862L724.757749,526.577528L726.958098,529.893747L730.644232,532.134122L734.341002,532.677578L737.356724,531.379938L738.940975,528.091458L738.219414,524.364854L736.360287,519.989383L735.181771,515.929972L736.547222,513.073943L748.751681,515.796876L750.696044,515.896698L751.423690,517.310841L752.518385,522.141077L753.269726,524.054302L759.874403,530.021294L763.781731,531.036118L765.850791,529.439016L766.574067,525.679151L767.573717,507.417289L767.049829,503.185841L763.715763,494.650726L763.710000,490.801828L767.545833,489.415329L769.493026,491.034759L774.072966,494.035127L777.849217,495.521438L777.213747,492.598725L771.851181,485.333449L771.639187,482.787800L787.272231,484.190959L792.614652,483.725089L796.949706,481.445643L799.649210,476.221176L799.303858,470.142520L796.142342,457.058687L796.372209,452.970944L798.242671,450.591492L800.783896,448.799962L802.580125,446.983959L803.082548,446.475951L804.479302,443.331028L804.904694,440.086241L804.507111,432.770118L804.847241,424.427688L809.453007,396.459271L809.376778,393.130882L808.878430,389.791369L807.936959,386.318687L807.911458,386.270209L804.305502,379.417607L804.294328,379.387715L802.886700,375.623068L803.253409,372.017111L808.196883,369.526205L815.650910,372.022381L815.684870,372.033753L829.573748,380.095801L829.609572,380.116597L830.062288,381.667536L830.077550,381.719831L831.031641,382.807246L831.051018,382.829331L832.519658,383.495029L834.375848,383.755761L844.985911,379.739365L851.246511,377.914220L853.062434,373.659213L853.199678,371.268176L851.958132,367.529030L851.940022,367.497840L849.970275,364.106069L847.919392,362.291942L847.896734,362.282249L843.017151,360.194867L843.021111,360.190275L843.054029,360.152114L844.285239,358.724687L844.232910,358.665966L843.360686,357.687237L843.309021,357.662519L841.447266,356.771837L841.432415,356.761542L834.723995,352.111581L834.710370,352.052004L834.561573,351.401441L834.535690,351.392060L834.480660,351.372115L831.102158,350.147598L829.602859,349.748142L829.594400,349.724223L829.575978,349.672127L828.868035,347.668243L827.450000,343.661133L822.364949,340.748367L816.766382,338.384849L813.034876,333.962922L811.238391,332.742306L801.407767,331.344141L797.954052,330.450866L795.252705,329.285722L792.731028,327.626772L789.740020,325.252076L786.332300,321.490263L784.932018,320.358383L783.404214,320.014380L781.015377,320.835549L779.931119,320.413868L778.476204,319.404051L775.787368,319.281985L774.226250,318.749333L772.953401,317.584155L770.584680,314.532482L768.979856,313.322904L763.653334,311.214456L757.476487,309.683051L751.483753,309.405622L746.857665,311.036902L743.602534,312.235390L733.038050,310.559726L713.804581,313.189739L704.736163,312.324167L702.008170,312.734759L701.036416,313.922145L700.389006,316.518846L699.288889,317.628542L697.556696,317.095889L694.954493,315.841930L692.853488,315.919609L692.510102,319.381857L690.975000,321.379295L686.788051,322.056202L682.041193,321.823168L678.774396,321.013099L675.369144,318.438619L673.701627,315.997288L672.058128,314.343832L668.814623,314.099697L667.364190,314.843199L664.747980,317.517573L662.677450,318.094614L660.746737,318.383135L657.253656,319.648183L655.513383,319.936702L648.140885,319.071144L619.332215,310.260103L609.569759,305.332943L607.600365,305.399526L603.969223,307.607877L601.772512,308.007377L591.476607,307.630071L562.830077,312.657079L557.371466,314.887587L555.826699,315.117807L535.553550,318.139002L530.274531,317.473185L527.342633,316.063870L524.716210,314.221765L522.071547,312.712565L519.048996,312.313069L518.172297,312.856827L516.595150,315.065139L515.661437,315.719863L514.082406,315.841930L507.026533,314.599064L502.706488,312.657079L500.489056,311.957962L497.865606,311.880283L490.825824,313.899950L475.465582,312.446235L457.477216,316.696398L450.963167,316.485555L435.515494,310.027063L405.431087,303.257748L361.333688,284.935706L354.394556,285.224248L348.325345,288.043068L345.364153,287.499281L342.479962,283.304334L339.516360,275.668996L337.584354,268.344296L337.276853,262.174185L337.169464,260.031753L337.609999,254.310705L338.424559,243.650488L335.889282,227.468599L334.901772,212.374072L331.509742,203.927683L325.374209,193.061592L318.493512,173.782081L318.231438,168.476563L323.460477,153.692068L323.322416,148.586290L321.631814,147.354242L318.690307,147.076753L314.840416,144.856846L318.193608,143.547100L320.365076,141.293892L320.384158,138.352510L317.299509,134.978243L317.049392,134.756251L316.775003,134.711853L316.483068,134.778451L316.202105,134.956044L316.177680,134.978243L316.120638,134.978243L315.121619,136.365688L314.030128,136.942865L312.828472,136.509983L311.538252,134.978243L309.629975,132.158952L304.886559,126.964352L303.486962,124.999727L302.516590,121.248070L302.465375,118.561972L301.735475,115.909174L298.655277,112.324012L296.648756,109.404825L295.172266,105.864064L293.502578,102.667392L290.961538,100.813767L289.302109,100.680572L285.700056,101.035758L284.311245,100.824866L281.863508,99.726011L281.343532,99.282029L281.446001,98.405166L280.678919,93.724112L279.949528,89.281357L278.364551,86.095802L274.912027,85.418733L271.200251,86.806169L270.263668,88.604288L271.861879,95.119703L273.580374,97.605999L273.615537,98.660455L269.640278,97.472805L268.330561,97.583800L267.200364,98.249772L266.218173,99.404124L264.986068,103.300066L266.702227,105.986159L270.001821,107.528998L273.481444,107.995180L271.603678,109.449223L269.172381,110.892167L267.486961,112.668098L267.979294,115.221000L269.981129,116.175563L272.433851,115.664983L274.853010,115.742680L276.726881,118.417678L275.841766,122.058339L269.109395,129.150968L268.625588,134.989342L269.369483,137.897428L269.365113,140.616819L268.366065,142.581439L266.024339,143.136417L263.946351,142.070860L261.924048,139.806552L258.443565,134.989342L257.488628,134.500961L256.511344,134.201273L255.568760,134.090277L245.761193,134.989342L245.763232,135.000442L245.755764,135.011541L245.757803,135.022641L244.874385,135.388927L243.965117,135.511022L243.049028,135.388927L242.120002,134.989342L238.519129,130.605012L236.376771,130.638311L234.560943,132.758329L231.904689,134.600857L228.861764,134.234572L224.830034,132.469740L221.025569,130.027835L215.623798,124.589043L208.543384,121.447863L206.643494,119.494337L204.735044,115.331996L202.323109,112.668098L199.258148,110.792271L186.039095,105.198090L183.246459,102.434301L181.156610,98.593858L177.204269,85.563026L175.191281,82.155486L170.310233,75.706705L168.466689,72.199288L167.280994,66.427606L169.335794,66.139022L172.241326,67.448748L173.678167,66.549699L173.014230,63.619468L171.404063,62.076660L166.769402,60.766939L163.452089,59.390624L162.963497,57.903317L163.201635,56.038637L161.862001,53.463606L159.966959,52.076200L155.721155,50.966276L153.558120,50.122734L151.604039,48.624340L148.172018,45.283482L145.901590,44.173565L142.523597,41.876040L140.502887,40.077981L138.721262,39.545224L135.996992,41.110200L134.121867,43.452120L132.501648,47.048253L131.748080,51.066169L132.548712,54.717823L137.129586,58.979950L142.776654,60.877933L147.804666,63.375283L150.662228,69.502133L152.166222,71.244739L153.726811,71.766411L155.285238,71.311335L156.778404,70.101501L156.974709,74.707756L158.566036,76.106284L160.775212,76.183980L162.883176,76.838847L164.617017,80.834650L161.401418,83.565119L153.692020,85.740618L148.113764,83.898103L138.398959,75.307125L133.271058,74.352575L130.056349,76.983140L128.623151,84.086795L125.934272,85.263340L122.562472,83.787109L120.246743,80.734754L118.381532,77.094134L116.294685,73.797603L109.160494,71.100446L94.740197,77.127432L91.047461,74.641160L92.132473,73.120539L98.235921,69.524332L100.207874,67.415450L101.161788,63.419680L100.200132,60.766939L97.341886,58.691368L92.714044,56.449310L91.322215,54.851014L90.813868,51.077268L89.319080,50.400215L87.588680,49.834154L86.874582,48.357959L86.904132,46.493293L87.376369,44.761821L82.902203,43.696301L80.766232,42.741774L78.517061,41.387678L76.676344,39.378737L75.175883,36.959134L73.545878,34.861409L71.148084,33.829197L67.267246,33.895791L65.719693,33.696008L61.149684,31.820271L56.978418,29.189807L55.184718,27.635950L52.767234,25.294070L50.095939,23.318461L47.140514,20.343958L43.943064,18.901105L37.041137,16.847820L34.076571,13.928835L32.742784,9.700212L32.049163,5.149752L31.010533,1.187547L29.113739,0.000000L27.257106,2.563773L25.762655,6.537085L24.983516,9.633620L23.826544,23.385054L22.233564,27.624850L22.235656,27.635950L21.768582,30.499489L22.662727,34.040079L24.566373,36.892539L27.112862,37.658376L27.718196,36.381981L27.299743,31.431806L27.669522,29.966737L28.937929,29.844647L33.604262,31.831370L44.613559,34.017881L49.950147,36.437477L53.454201,41.132399L59.312748,52.719956L60.730979,58.169700L56.522090,57.503743L55.215285,57.881119L53.432994,58.103105L51.697137,58.014310L50.373501,57.437147L48.229098,56.127431L47.356357,57.048671L46.841854,59.024347L45.825192,60.855734L38.251704,66.605195L35.975095,69.280146L33.965605,73.398024L33.871411,76.528063L35.613990,84.353182L34.684071,87.549835L31.842423,89.658740L21.820337,93.543571L18.205020,94.398234L16.353017,95.230699L15.332592,96.607041L14.462726,98.183175L13.123599,99.637215L7.786847,103.755148L6.756679,106.330245L5.983635,113.334072L5.623973,114.488428L5.560271,115.598386L6.174821,117.718404L7.034309,118.783964L8.312414,119.538735L9.528749,120.737489L10.232600,123.090600L9.714723,127.197443L5.783995,131.048995L3.528580,138.230414L2.323042,150.417711L1.615691,151.982744L0.767539,152.659814L0.395591,153.658770L3.509687,163.171028L5.368228,166.434267L5.444960,168.298972L5.790144,170.230272L9.311350,173.704386L10.503624,175.535784L12.496676,179.620350L15.327904,182.273092L18.739637,182.095503L22.080264,180.397304L24.778176,178.510415L32.561542,175.968660L39.119247,179.242972L52.668282,192.939500L67.749380,202.495896L73.646320,208.289626L76.777710,221.508514L79.825206,224.172245L87.404797,227.879255L90.031710,232.163382L95.749992,236.225511L97.710378,239.322036L99.860567,241.275392L103.807587,242.074491L111.712514,242.374153L115.646104,244.238712L122.301493,248.334064L126.323345,249.288533L128.371682,248.644822L129.727268,246.924556L130.942358,244.838033L132.580991,243.106659L134.004036,242.862490L135.712707,243.162151L137.479626,243.250940L139.149609,242.351955L138.373578,238.578427L144.377125,240.898040L146.221633,242.351955L148.956384,245.193186L151.684718,247.401791L153.851340,250.209705L154.911234,254.804445L153.108320,262.428974L153.393326,263.738562L155.641892,265.281210L156.487581,267.079110L156.990901,269.154457L158.181817,271.462855L163.541014,277.222708L165.045415,278.432380L167.022955,278.965079L170.925440,279.231428L172.183743,280.174747L175.850558,283.537387L180.311652,284.169961L189.229725,283.703854L190.894700,285.457301L191.657101,287.499281L191.554681,289.663327L190.617622,291.738583L184.621220,297.120887L183.418149,299.429156L183.715697,302.325572L184.719406,305.177581L184.551291,307.308252L181.320219,308.073960L184.779205,312.645982L180.020594,312.335264L166.600795,307.607877L165.252461,306.853266L163.980159,306.431571L162.570348,306.764488L161.613217,308.295904L160.527577,312.923409L159.238548,314.132988L148.034157,312.945603L136.236877,308.562236L130.448711,307.408127L123.939666,307.219474L122.392225,307.863113L120.569990,310.581920L119.429662,311.491884L117.434393,312.024545L116.554366,311.946865L115.623375,311.514078L110.426424,310.082548L104.240096,307.652266L101.065531,306.797780L94.975909,307.951891L93.776412,311.536272L96.326685,323.643046L97.162250,337.730163L96.075479,344.071692L92.767834,349.748142L93.132759,355.401506L91.713939,360.372397L86.782695,369.276559L84.486991,375.600878L83.026978,376.971133L79.879589,376.671563L71.775154,374.469166L69.521838,374.330475L68.713116,370.430478L66.349656,366.241956L63.154954,362.619263L59.780527,360.438972L56.137216,360.078362L52.935074,361.337719L44.667223,366.641393L44.823700,367.584507L46.011210,368.710693L47.166616,370.563622L50.818711,378.002981L52.023097,382.063776L50.684821,384.815328L48.572397,387.500290L47.440804,391.400108L44.976908,390.967413L44.012324,392.465201L43.905608,395.066899L44.135369,397.979226L43.165070,399.970690L40.890598,400.403374L38.997440,401.302025L39.655286,410.698900L37.860716,414.432069L36.966726,418.314970L37.025044,424.782689L40.733322,425.892064L43.967092,427.251044L46.527732,431.638576L49.696244,434.600548L50.486009,435.887391L52.291049,447.080528L52.654948,448.156561L53.517878,448.955265L55.502363,451.212703L57.691430,454.329832L58.303810,455.827377L63.824236,457.058687L116.608633,484.068946L132.134438,495.648994L136.524730,496.613984L148.576322,497.207396L158.212385,500.496106L162.245091,500.229904L164.287820,495.671178L165.470965,490.757460L169.618664,491.694731L176.300501,495.660086L181.504651,501.738378L183.873331,510.228988L184.367939,511.121851L185.393167,514.643375L185.949019,515.441953L185.630380,517.410663L184.023178,520.771314L183.721927,522.612452L183.694534,522.627715L181.054504,524.098667L177.225932,525.729060L175.670948,527.614543L175.034421,530.243113L175.397737,532.311577L176.952578,536.681384L177.124357,539.176813L176.640598,543.646371L176.710768,545.620504L178.000963,548.071523L181.977885,551.282227L182.973085,553.988296L187.599023,555.119516L188.002269,557.154598L186.328913,560.204432L184.713626,564.368809L186.355740,566.886271L188.101247,570.995141L189.324265,575.558662L189.367659,579.417936L187.951896,581.874327L182.074208,589.215700L179.921468,591.300542L176.498152,592.082355L172.602090,591.716400L169.012734,591.916012L166.449097,594.438878L166.161593,596.484885L166.660922,598.431078L167.356413,600.349541L167.636516,602.301265L167.063464,604.796356L165.046853,609.348478L164.480487,611.643930L164.755510,613.695412L166.588717,616.944501L167.159652,618.934973L166.228913,638.473361L166.859780,640.874027L168.739868,641.805461L170.704420,642.221279L171.772055,643.025193L171.815346,645.714138L171.449925,647.344132L171.778032,648.757898L173.888413,650.836958L175.891185,651.696301L179.476694,651.263858L180.998648,651.596506L184.253474,654.801013L189.836041,663.122663L193.492845,666.720728L199.508619,670.690214L201.664889,671.682582L205.270029,677.492609L207.437942,676.522427L209.080185,672.941057L211.202597,670.906429L213.990106,673.046391L214.263154,677.670014L209.077959,703.199077L205.730133,710.854814L204.660784,714.995858L205.474158,719.652421L207.930186,723.782320L210.769460,726.171551L223.544951,730.373473L225.489670,730.395646L226.863235,729.658372L227.932738,728.416645L229.352429,727.280240L231.720941,726.870026L234.957717,727.546325L248.625806,732.346925L250.306712,733.172891L252.017212,733.616362L257.038374,733.422343L258.249820,734.436783L258.482211,736.205118L257.872325,738.488980L256.535935,740.517842L252.228769,744.913687L243.863981,756.410376L242.157139,761.803886L243.286428,772.806962L242.454529,778.915397L242.950354,783.111452L244.037699,785.522648L248.240291,790.278502L250.659930,793.631970L256.067474,803.742171L258.640063,806.574555L264.075696,808.359340L266.504068,810.526573L267.343183,813.419904L267.638522,817.588054L267.512019,821.756183L267.119928,824.616216L265.620289,827.897482L263.923224,830.607843L263.079258,833.528814L264.089172,837.430817L267.188771,843.627426L268.215839,846.387619L269.654039,851.154196L272.590120,855.687962L275.163741,861.175008L276.800821,866.950227L276.373077,871.882966L272.658716,874.853682L278.758864,877.281238L281.241809,879.187807L284.034350,887.124414L288.649630,895.637351L290.121296,900.625366L290.033733,902.310201L288.842927,905.136728L288.656166,907.342522L288.970847,909.437468L292.791726,920.854295L294.167050,923.481257L298.044407,929.189613L295.648452,931.162591L298.041075,935.651658L307.733474,947.046053L309.797704,950.637260L311.406805,954.882408L312.495291,960.069671L309.865332,964.436709L309.832036,964.581361L310.965055,968.609635L311.203978,978.462836L312.528726,981.805402L317.492709,987.879603L319.459524,992.374146L320.080585,997.401036L319.346639,1006.390052L319.474843,1010.814723L320.366170,1014.427760L327.366114,1031.916844L328.368812,1033.278262L330.538636,1035.110939L334.917556,1037.414874L337.478613,1038.139216L338.433881,1037.179244L338.942329,1035.276753L340.418459,1033.164811L341.975298,1031.969206L342.896979,1032.850637L343.351046,1035.381477L343.872622,1037.196698L352.037345,1054.746659L351.964215,1057.076752L350.279347,1058.778503L350.096736,1062.627076L351.759292,1066.606545L355.547074,1068.788269L359.099808,1068.369378L362.577792,1066.632726L365.424096,1064.145558L367.215523,1061.457669L363.056182,1059.433023L362.182058,1057.024390L364.321272,1049.615209L364.340216,1044.370296L361.285452,1036.001096L360.447949,1030.581605L361.701259,1030.581605L363.113090,1033.374260L364.039696,1033.304443L364.702671,1031.541581L366.656758,1023.599951L367.522766,1021.453086L369.068105,1018.869864L371.723824,1015.475015L372.131412,1013.511411L371.656360,1010.081642L370.426235,1007.088225L368.860850,1004.400254L367.949873,1001.642461L368.656759,998.361030L370.030500,998.361030L371.359429,1002.061367L375.820098,1009.296198L377.218834,1013.616136L377.414043,1018.625505L375.908000,1025.205734L375.451388,1029.115460L376.211233,1038.785015L377.240282,1044.283026L378.676588,1047.477101L384.213358,1053.254351L386.268767,1053.044904L392.139852,1046.761489L394.181481,1043.384146L395.403924,1039.326090L395.400571,1034.377869L394.230253,1029.185276L393.108627,1025.659542L392.869686,1022.622517L394.418726,1018.869864L396.547878,1016.365182L398.721589,1014.401578L400.278947,1011.914344L400.415576,1000.507925L399.878311,999.033026L398.253750,997.121764L395.257983,991.867965L394.241913,989.450513L393.312747,988.307239L392.746551,987.277420L392.348829,985.723963L392.701860,985.008324L394.917804,984.554505L395.703396,983.585774L396.486259,978.166106L396.216856,975.050442L394.877795,972.598051L393.488243,970.756574L392.174677,968.164537L391.159122,965.546313L390.642160,963.687371L390.057314,963.067723L389.280121,964.629933L388.792170,967.396525L389.048699,970.416206L387.675281,970.416206L382.333434,943.308647L381.875057,929.134976L383.247996,929.134976L385.726264,933.760639L386.540341,938.037178L387.016361,947.637517L388.114899,952.018737L399.462908,973.331151L399.737583,976.158816L398.441389,980.601032L398.257654,982.852680L399.829312,992.391600L401.800721,995.707953L404.962966,993.700688L405.468327,990.611239L405.038267,976.935550L405.164288,974.814803L406.490691,970.704209L406.568989,968.138355L405.781928,963.277181L405.040256,961.217504L403.731026,958.555629L398.806596,951.215806L398.198942,948.396814L399.864045,944.574145L403.027082,941.641678L403.851439,939.782700L401.478599,934.834139L401.892666,932.957695L403.717353,930.601226L405.436537,924.727487L406.772173,922.013164L408.573931,920.354892L407.342746,924.125274L406.758615,928.314573L406.735184,932.739503L407.170799,937.321514L406.179240,940.882378L401.622522,948.920466L402.162983,951.905280L405.115680,955.090819L407.970891,959.088004L410.230301,963.573914L411.504145,968.138355L411.168159,972.851145L407.917068,981.334127L407.533849,985.723963L407.821818,998.186486L410.750884,1013.720862L410.653595,1017.264075L409.706729,1020.562922L406.863660,1024.891559L405.750444,1027.649314L405.887457,1032.571372L409.256317,1041.438026L409.446565,1045.225540L415.943005,1053.900145L420.255087,1056.588043L423.250647,1052.678372L422.587855,1050.828257L419.759442,1045.103363L420.091600,1043.899039L424.583815,1042.965250L426.661181,1043.026339L429.108344,1044.562290L433.862583,1045.853883L437.470417,1042.781983L438.881014,1038.566840L436.984514,1036.428720L432.989570,1034.404050L428.196090,1029.665265L423.856423,1024.280663L421.195689,1020.336018L424.743724,1008.484572L427.975895,1012.621242L428.637055,1014.663392L427.163887,1018.407327L427.600152,1020.789827L428.610614,1023.067598L429.657078,1024.734471L432.167605,1026.724245L435.527220,1028.085667L439.109036,1028.871102L442.238387,1029.115460L444.415532,1027.937307L446.911838,1025.903900L449.137296,1025.293005L450.547379,1028.382387L451.534584,1029.403453L453.472736,1029.115460L456.666792,1027.649314L458.283260,1026.567157L458.795074,1025.685723L459.019314,1024.690836L459.861160,1023.250867L463.999193,1018.695322L468.014796,1017.822611L469.265740,1017.264075L470.058936,1013.851769L468.631802,1011.085265L466.483201,1008.667843L464.419074,1004.583525L461.319981,1000.333381L460.289806,998.361030L459.927596,996.091951L460.339495,992.234509L460.294197,990.183603L458.760471,985.156688L456.073473,981.814130L452.495267,979.545025L448.316535,977.729739L448.091427,976.123907L451.608150,976.123907L454.581946,976.987914L457.339141,977.275917L460.194915,975.469355L461.363584,972.720235L461.395669,969.080914L460.089603,961.618967L455.909316,947.166230L452.886241,939.547055L449.993554,934.991237L455.452826,919.019545L455.497669,914.454916L454.312157,910.789234L452.735285,907.132267L451.732368,902.637409L458.006897,907.394102L461.360479,908.380350L462.323170,904.976483L462.834120,901.581333L464.903295,898.116348L469.913143,891.596559L470.420184,890.924503L474.964881,887.276193L472.990376,889.283638L472.226999,891.640199L471.920680,894.241137L471.278421,896.920620L459.371756,920.800007L457.096652,930.601226L456.843371,933.498809L456.898066,935.802907L457.458175,938.054634L458.548553,940.856195L459.796539,942.959544L462.740244,947.026589L463.516449,949.103744L464.682498,954.479894L467.652226,963.347001L470.287009,979.195932L471.185381,981.726857L473.498135,986.596692L474.157459,988.717421L475.892321,992.915235L479.234507,996.519586L482.776190,997.881033L485.193675,995.306500L485.260507,992.548691L483.448694,982.852680L484.266856,981.046125L488.499964,975.722448L489.839072,973.331151L491.254677,962.805900L493.053091,959.079277L497.576963,957.237780L496.868963,959.812384L495.324343,961.165140L493.397154,962.160069L491.959385,964.272109L491.732754,967.483799L491.253243,969.866380L492.787032,976.263544L492.757440,979.597389L491.770955,981.063580L490.265796,981.953767L488.743935,983.585774L487.696413,986.125418L487.958969,989.398149L487.304122,992.374146L493.570625,994.974865L495.458729,995.306500L498.042230,994.782866L498.926916,993.770506L499.287759,992.251964L501.088258,988.298512L501.927284,983.629411L502.933994,981.447582L512.152520,968.661999L514.943007,966.724514L519.823623,966.017594L522.151447,963.905557L523.771097,959.026912L525.765293,949.767037L527.131904,955.474828L526.565865,961.182594L524.362604,965.991411L520.868744,968.932548L519.833263,968.653271L518.248679,967.797986L516.522067,967.326706L515.006585,968.138355L514.231405,969.491102L513.252218,972.074409L512.523671,973.331151L505.950123,980.784306L504.580639,983.821411L504.311830,986.422146L504.326746,989.110149L503.893852,992.374146L502.661859,995.001047L500.791699,996.737766L498.843560,998.134122L497.339989,999.687567L495.979249,1004.531162L497.107379,1016.181912L496.639276,1021.924349L498.882629,1022.203617L501.601107,1024.376661L503.236361,1024.734471L504.790854,1023.861763L506.697336,1020.964369L508.376317,1020.336018L509.896333,1018.459690L511.968139,1009.723829L513.446935,1007.018408L512.852201,1009.243835L513.129377,1010.579090L513.795858,1011.783437L514.368887,1013.616136L513.728175,1016.164458L512.146275,1018.136787L511.353717,1020.248747L513.161315,1023.250867L509.895629,1022.570154L509.006619,1025.293005L510.314096,1028.827467L513.548026,1030.581605L516.938236,1031.288496L524.348178,1034.404050L528.236805,1035.110939L531.647147,1034.334233L533.949314,1032.431739L542.857512,1023.006509L544.343878,1020.135294L545.207822,1015.946280L545.807714,1007.934761L545.477764,999.766112L545.712716,995.847589L548.191195,988.027967L548.460580,984.257777L548.815439,983.454864L550.761903,980.557395L553.375131,975.006805L553.883704,973.156603L554.221119,970.416206L553.899678,963.765918L554.139139,961.618967L554.769096,961.165140L555.743768,961.653877L556.481746,961.749879L556.533313,958.703996L556.791629,957.970888L557.116961,957.604334L557.321560,957.237780L558.522354,955.701743L559.174596,954.235524L559.195895,952.577298L558.199536,950.447784L557.162592,949.627396L555.888719,949.051379L554.163907,947.637517L553.317615,944.547962L553.822680,935.052330L552.373721,930.601226L555.573495,931.456537L556.542519,934.127200L556.368832,940.856195L557.146928,943.675205L560.170211,949.767037L560.126350,954.881359L557.076756,965.101214L556.756661,970.416206L558.173084,972.109318L561.156049,973.994431L564.524941,975.512992L567.056304,976.123907L569.023903,975.094079L570.466984,972.702780L574.362805,962.692443L575.019612,959.341101L575.044998,956.434852L575.588618,954.523532L577.288873,952.682028L581.809094,949.767037L585.309223,948.807008L588.620272,941.327485L592.186701,924.884586L592.012753,916.087013L591.208235,911.635833L589.665141,907.298096L584.891573,899.696103L583.000073,895.777259L582.255485,890.924503L583.288733,891.500551L586.271464,892.521726L582.061425,885.085454L578.829014,877.954611L574.591857,871.809998L567.342089,867.358619L563.729964,866.677818L560.506037,867.218967L558.014433,868.964609L556.612991,871.888551L556.540357,874.201514L557.725161,878.434657L557.883179,880.677779L557.220078,882.039360L556.091779,882.999448L555.131907,884.291202L554.913599,886.543038L554.461820,883.304931L554.839522,871.408501L555.441482,868.170342L557.007471,867.009490L561.132258,866.337417L562.620368,865.368584L564.075290,862.819936L564.347436,861.266305L562.564638,853.768687L559.297063,846.855810L557.611318,840.152361L556.731256,837.944052L554.247234,834.766870L550.602665,831.799161L547.348982,831.196890L546.190417,835.133468L542.299482,833.160817L536.732926,831.275447L533.702019,829.102029L537.305684,826.221586L539.920586,828.744156L542.260797,827.635623L542.593041,824.755175L539.215885,821.970733L544.229442,820.696345L545.584483,814.725900L546.221991,807.577018L549.058233,802.784873L551.645818,802.549193L554.470459,803.308606L557.274730,803.622846L559.812662,802.130206L560.464711,800.113829L559.494804,798.647370L557.021405,796.796833L556.332749,796.011227L555.528094,795.766816L554.797009,795.714442L554.293752,795.470031L553.539398,793.933730L553.486915,791.437235L552.903648,790.346107L548.433396,785.187232L544.015804,778.762592L540.437846,772.014913L538.958913,767.336019L538.529040,765.965516L538.872625,762.403942L541.033260,761.434981L548.009571,761.644487L551.428298,760.727901L553.775790,759.296280L555.491587,757.166301L557.109381,754.180827L558.374781,754.180827L558.593966,755.647377L557.025577,757.148842L556.484878,759.278821L557.203845,761.068347L559.489313,761.644487L560.476848,760.387455L564.361903,752.714274L564.290252,747.607501L561.557841,734.923333L560.026278,730.750511L562.014657,732.653600L563.748275,734.766198L564.700217,735.988358L562.881866,728.410925L561.566990,724.884071L554.811327,716.049392L553.076509,714.635133L540.735006,713.185951L537.678737,712.094698L532.125226,709.327270L526.045180,707.956646L524.111071,705.922531L522.549719,703.268567L520.428340,700.597132L517.148187,698.030448L490.796235,682.542809L488.696361,680.220502L488.499255,677.741035L495.485249,682.193591L502.937087,684.961143L540.319365,692.477993L546.971851,695.332799L546.788939,691.954173L547.354583,688.156470L548.399769,685.039716L549.647802,683.747612L549.847455,681.407848L546.508528,662.174283L544.738929,660.454319L537.817441,660.174933L534.676100,659.616161L531.412339,658.358923L528.487847,656.176211L526.485823,652.849742L531.677570,656.071441L534.207701,656.961989L537.366256,657.241376L540.228112,656.961989L542.348661,656.071441L543.002095,654.255418L541.485605,651.251982L547.809685,648.248531L550.808158,647.881829L552.536998,649.916147L553.301172,649.601832L553.518834,649.549446L553.500179,649.331172L553.695085,648.449343L555.065407,649.916147L550.774649,652.247309L548.564248,657.241376L548.776514,663.318013L552.891141,671.786781L553.821772,672.555075L556.176618,670.634337L560.615880,668.958051L563.842769,666.740458L565.905695,666.941264L569.466858,668.958051L570.054955,664.557778L566.317982,661.694090L564.373583,659.720931L564.748167,658.830388L567.985792,658.743079L569.824233,658.952619L571.051089,660.174933L572.360706,663.108475L573.423343,671.001024L569.479205,673.550364L558.691665,673.489250L554.606856,676.501298L553.789038,681.390387L555.501200,693.997066L556.594011,698.012988L559.348191,704.447138L563.192321,708.943146L567.592866,707.179667L567.668057,708.270930L568.012912,708.559023L568.557652,708.576483L569.221869,708.786005L567.472242,710.654240L568.040234,713.508962L572.140075,720.501667L570.995536,720.501667L572.360350,724.552337L571.449562,728.498223L569.999814,732.671060L569.657350,737.402570L570.706125,746.193312L570.548309,759.331197L570.878663,761.644487L571.667826,764.106167L574.499699,769.762762L591.918941,790.660352L593.270067,793.270326L594.534807,798.149820L596.418985,801.719948L598.562513,804.905990L600.607293,808.650664L603.041929,815.965382L606.164721,821.822345L606.768377,824.083069L607.569152,825.532024L610.785475,829.573373L612.568672,833.405217L614.141848,834.470099L615.972005,835.334225L617.589652,836.599861L620.902843,844.298381L621.940924,845.520361L627.342143,845.031569L629.514093,845.965511L631.819382,852.040473L635.106846,855.968228L635.993983,857.914642L637.428910,859.895965L643.064038,863.797500L644.641075,866.756372L647.397812,868.912240L653.038041,869.226455L658.900905,868.170342L662.379393,866.171581L662.203165,862.069306L659.812680,855.819846L656.444218,849.902021L653.224071,846.855810L655.783392,845.904412L657.613748,847.798478L660.648619,854.318573L663.193896,858.115393L665.404461,860.655326L668.776369,869.829364L673.259552,875.648113L680.871010,879.381377L689.699193,877.366459L694.337607,875.907794L697.351329,872.910551L700.525329,869.005905L701.457095,860.760065L702.493886,857.748804L702.720460,854.973198L700.044016,850.705033L694.802331,848.479294L683.633517,845.520361L683.400298,843.931786L687.717522,844.071441L688.803463,842.535234L687.601596,840.204732L684.917363,837.944052L684.719613,836.599861L691.064053,836.687146L693.923298,837.062472L696.314364,837.944052L696.492172,838.537590L696.881932,841.802043L697.258855,842.622518L697.927332,842.657432L698.708071,842.430492L704.579121,843.704846L704.793402,843.931786L707.747680,843.722303L710.743898,842.875643L712.797126,841.051395L712.867151,837.944052L711.247217,836.669689L708.027283,835.177111L704.512090,834.033672L714.082604,833.815458L717.198770,832.968789L718.774643,831.083418L717.976813,829.049657L713.905855,827.818924L713.669805,826.221586L717.751771,826.404887L720.946449,827.111906L723.862354,828.482298L726.986465,830.751732L725.649706,825.584396L725.895107,820.827275L727.908576,817.327064L731.791258,815.965382L733.286730,813.652262L734.808427,802.400802L734.845481,798.402959L736.216867,798.402959L736.892748,803.544286L735.271401,812.604810L735.049625,818.828403L733.690616,821.455741L733.702950,824.083069L734.417435,826.771489L735.560692,828.997286L736.935306,830.035988L738.252068,829.154400L740.196054,832.514904L743.381673,836.425290L747.129753,839.654837L753.385349,842.203552L782.312638,877.753864L798.714351,904.252069L801.841659,912.063496L808.594256,936.588393L812.154530,941.388578L816.250010,941.746409L819.025261,939.128130L818.502501,934.991237L816.616930,933.638452L814.126843,932.695865L811.930512,931.072520L810.954846,927.668724L811.986485,925.521709L816.176799,922.894665L816.594330,921.821154L819.688160,920.581814L822.130371,918.076946L823.869575,915.615712L825.003207,914.489827L824.445202,912.831544L825.050351,904.557545L824.985361,901.319496L827.631568,901.467870L828.756274,901.319496L826.688033,916.532130L825.221989,920.354892L821.541013,922.641561L816.963819,924.160185L814.060716,926.717405L815.423962,932.067474L816.924729,933.263163L819.041423,934.231932L820.880727,935.994915L821.662168,939.520872L820.991568,941.458399L819.581348,943.081730L818.223930,945.176347L817.790725,948.449179L818.735341,953.746784L820.665046,958.974547L823.150064,963.661188L825.672732,967.352888L826.819733,967.352888L826.231400,963.259726L827.180336,960.519308L828.752414,960.117845L830.111279,962.954266L829.439826,962.482984L827.383827,961.618967L828.762108,969.002368L836.657485,990.916693L837.817298,999.033026L838.682632,1000.970467L841.776432,1004.243165L842.626293,1006.285326L844.657710,1014.820481L846.164340,1019.253857L847.540666,1021.924349L848.455457,1019.969479L849.688877,1018.450963L851.275962,1017.508435L853.188876,1017.264075L853.417457,1018.869864L851.104994,1020.126567L849.355237,1021.837079L848.918339,1023.861763L850.665337,1026.060987L847.586179,1027.876217L846.289876,1032.466647L846.711841,1037.571960L848.717117,1039.360998L851.447550,1038.488297L854.898816,1037.161790L863.387230,1036.428720L863.597737,1037.912314L859.523378,1039.849711L858.818226,1043.078701L860.371669,1044.876461L863.106184,1042.432903L864.446602,1043.899039L862.032980,1046.796397L859.727156,1047.363651L858.232676,1048.541792L858.307598,1053.341620L859.474219,1056.465866L861.510794,1059.014131L863.272071,1059.293392L863.703075,1055.610626L864.971748,1055.610626L865.392403,1058.158892L864.873962,1061.544938L864.834821,1064.904799L866.645719,1067.461781L869.782252,1067.531596L871.506075,1064.442273L872.881784,1057.076752L871.492267,1057.076752L872.186312,1056.430958L872.424770,1055.767711L872.448454,1054.013595L873.414179,1055.715350L873.677099,1057.574187L873.255028,1059.502838L873.057250,1061.736930L874.191294,1062.173276L875.751651,1063.595763L876.359157,1065.437140L875.527304,1067.461781L876.575720,1069.538781L876.272392,1071.135801L873.991110,1074.774908L875.280876,1078.352922L873.904834,1081.346232L871.690128,1083.964285L870.441531,1086.364164L870.956963,1090.352323L872.625994,1094.811724L875.035781,1098.738784L877.699400,1101.138651L874.001851,1099.768545L871.331108,1102.054964L869.660276,1106.086736L868.808200,1109.926515L868.140237,1109.472723L867.893588,1109.437816L867.724152,1109.306914L867.229831,1108.582593L866.081482,1108.582593L867.183285,1112.134385L868.973682,1115.965431L871.202868,1119.045973L873.433767,1120.302623L875.442058,1122.344680L888.585198,1142.651751L890.123300,1146.744571L891.167344,1151.849685L891.554295,1165.707652L892.454750,1170.228067L894.252534,1173.701281L903.948536,1184.190731L906.509694,1187.611582L910.409990,1193.929684L912.609185,1196.704762L923.540318,1205.640863L925.067435,1207.822528L930.123399,1221.732834L946.287255,1246.760962L952.087445,1257.878788L953.852366,1259.816120L954.923413,1260.671338L956.090747,1262.224695L957.338015,1262.931560Z "/></g></svg>