<?xml version="1.0" encoding="utf-8"?><!DOCTYPE svg  PUBLIC '-//W3C//DTD SVG 1.1//EN'  'http://www.w3.org/Graphics/SVG/1.1/DTD/svg11.dtd'><svg enable_background="new 0 0 1000 655" height="655px" pretty_print="False" style="stroke-linejoin: round; stroke:#000; fill: none;" version="1.1" viewBox="0 0 1000 655" width="1000px" xmlns="http://www.w3.org/2000/svg" xmlns:xlink="http://www.w3.org/1999/xlink"><defs><style type="text/css"><![CDATA[path { fill-rule: evenodd; }]]></style></defs><metadata><views><view h="655.623339098" padding="0" w="1000"><proj flip="auto" id="robinson" lon0="4.84232476224"/><bbox h="32.47" w="49.6" x="32.17" y="-859.42"/></view></views></metadata><g class="" fill="#000" id="country"><path d="M775.804017,653.623339L782.444215,650.379700L788.839182,646.151330L793.669245,644.351387L801.895247,647.475849L804.137723,647.968306L807.962632,647.543774L808.781101,646.219253L809.299587,643.858959L812.279349,640.378110L818.662879,637.661484L824.546309,638.765099L830.197910,641.040305L835.831006,641.838345L839.015226,640.683737L842.255595,637.033281L845.007891,635.810851L847.808964,636.150413L853.587932,639.036761L856.639303,639.648005L862.734182,637.220044L868.524240,631.973934L870.829293,626.847099L866.366742,624.860990L869.218271,622.586380L871.178713,619.293439L874.262598,611.723748L876.263398,609.721165L878.774590,607.752589L880.130996,604.901664L878.533158,600.235267L876.614449,598.928742L871.397501,598.436681L869.592794,597.333802L868.604312,594.924508L868.942213,593.753831L869.685990,592.701938L869.751643,590.564278L870.095631,588.749026L871.317945,587.578473L872.239373,586.221340L871.937779,584.456094L871.810432,583.710727L870.247030,581.759989L868.555332,581.658213L866.908340,582.116206L865.454051,581.895691L863.876874,581.183262L860.230209,580.284257L858.533552,579.181724L858.616466,578.418445L857.908007,573.838981L857.456960,572.295615L851.033583,562.391945L849.252931,560.306293L845.905378,558.644610L843.107158,558.254630L840.448857,557.203395L837.599186,553.473364L835.889275,549.353669L835.391080,545.437703L836.443804,542.301743L839.469762,540.606705L836.919598,538.708325L837.337353,537.521872L837.795233,536.759166L838.139037,535.776138L838.052302,533.877929L844.871045,534.454164L842.366883,531.471367L836.524733,527.895620L833.435018,526.692461L834.380630,523.574540L842.943386,510.850595L843.920706,508.766942L844.483282,507.106856L845.392029,505.396006L847.355254,503.194006L849.142698,502.194668L852.945361,501.466348L855.032991,499.823434L857.723894,495.318393L856.622272,493.506327L854.744443,491.677391L854.893218,487.152872L856.441832,485.408827L861.622672,483.512457L863.442157,481.887055L864.000053,479.296677L863.900154,476.215486L863.483033,472.423508L864.967885,470.392208L868.650721,467.717788L870.167404,465.855934L870.736123,463.621798L871.070488,458.307660L871.937984,456.226159L876.110272,453.044843L885.605205,449.203840L889.345437,445.938369L891.247040,441.235107L892.166900,436.752187L894.256956,433.724325L899.744629,433.250709L903.638554,430.662816L905.344205,432.134347L906.304097,435.263607L907.961052,437.665656L910.274859,438.569235L911.426524,439.018973L914.350306,439.357307L920.202792,438.596057L922.408769,437.462661L924.015942,436.007891L926.012272,435.787988L929.441174,438.409975L930.665895,441.421199L930.477328,444.517193L931.153309,447.105793L935.049422,448.510121L937.324318,446.259831L937.997384,444.060395L937.020038,442.047150L934.342512,440.321574L934.848754,438.714473L935.578309,435.043706L936.022191,433.961134L938.201397,432.844757L943.345866,432.506465L945.234449,431.491604L946.677270,428.396403L946.710458,424.709469L945.139883,420.988980L941.587442,417.877507L944.160215,415.036764L949.892209,411.672040L952.318794,408.493510L957.613991,406.430953L968.632388,403.895136L973.262278,400.412819L972.010893,397.471630L972.428807,394.175670L974.026378,391.032031L976.499228,388.496978L979.937571,386.857710L982.827162,387.060503L985.795971,387.989982L989.283658,388.496978L996.106698,387.482992L999.236202,384.694634L998.856561,382.210357L998.538972,380.132194L989.121972,367.494668L988.637040,363.626315L990.267832,359.251542L991.832302,351.550144L991.823351,346.095686L990.796776,344.981224L988.946643,344.694169L986.627775,341.739289L985.096302,338.430025L984.244746,335.492386L984.790911,332.875666L987.588180,330.596695L982.888860,330.377243L971.646251,328.300944L967.647497,326.781754L967.044960,326.326005L966.452602,326.157210L965.818895,326.326005L965.275304,326.781754L956.636148,328.959274L954.073697,328.857992L951.974450,327.524463L949.631348,323.794143L947.498090,322.241328L949.451346,319.422752L946.433445,319.237103L944.329994,318.528266L943.931609,317.043116L945.868782,314.528585L941.425905,310.157978L945.957840,304.151106L953.890942,298.701654L959.546598,295.934969L959.504751,294.754112L962.332773,291.886428L964.040662,288.985168L963.385186,287.028596L945.583534,286.674397L940.205447,284.431192L937.032219,279.742700L940.404848,277.971977L924.051355,258.683435L918.962976,254.705219L914.667429,254.384952L904.553064,256.643719L901.135648,256.323440L900.030633,253.592722L900.870464,250.154243L900.629659,247.019357L896.284107,245.216040L895.890822,244.609331L895.843992,244.019481L895.983394,243.429638L896.388258,242.822950L891.226895,243.598165L872.533740,243.109441L869.708599,242.394798L869.699869,242.392590L866.737804,241.643298L844.432340,242.098303L841.749454,240.615336L836.328014,235.947638L833.721682,235.155687L831.480653,236.571097L828.816067,239.912526L827.597050,241.441074L824.924421,241.879226L822.116150,241.424222L817.363672,239.267222L819.779697,231.785817L820.106344,227.944431L816.059101,226.984128L810.431242,224.844570L808.906861,224.004937L804.528584,221.593283L800.193242,216.624089L799.399358,209.331176L817.411005,192.711163L820.355842,191.751505L823.303874,190.892879L824.500182,190.101608L827.689436,186.094930L831.875536,178.520112L834.692300,174.547976L832.155610,173.353028L829.683559,173.302538L823.987048,174.547976L833.677275,161.606947L837.475057,153.665519L833.870569,149.880300L834.337155,145.565481L835.532510,142.411595L837.594904,141.377162L840.663230,143.429228L842.530125,141.318293L843.859175,139.005610L845.619809,134.540317L844.859042,133.228551L844.427535,132.236339L843.711329,129.882012L846.532499,130.125848L849.281013,129.789523L851.853178,128.948719L854.171870,127.679129L848.165165,122.685146L848.861945,118.969390L852.373410,116.119698L851.683669,114.556215L849.261833,110.412367L844.875751,110.135001L837.051412,111.731975L833.552557,109.437390L827.997257,103.537484L823.740165,101.537380L820.442434,101.260060L809.760142,103.024846L805.358753,103.058461L802.521823,101.470151L799.981244,99.209621L796.443425,97.260097L781.798400,93.764576L777.349754,90.800039L775.809495,89.773576L774.748636,82.380512L772.716013,76.080412L767.812529,71.141652L761.699566,68.118147L756.144949,67.614246L751.145311,69.554291L740.576775,75.593235L735.272280,77.163976L704.892230,76.147609L696.924183,77.741600L695.276717,78.071163L690.742817,77.155577L690.257708,65.581894L685.614645,61.030375L680.860462,60.652499L670.971843,61.341075L666.488648,59.392931L665.179782,57.268526L662.342538,50.098232L660.907288,47.277395L651.856587,39.520856L650.120976,36.364836L650.812282,29.331606L653.516905,24.137005L654.255711,18.733138L648.999969,11.123328L641.205301,7.079742L640.467963,6.307971L636.548799,7.113297L635.071522,9.067940L634.287087,12.088129L632.631183,16.081748L628.788184,21.334311L623.069707,27.678343L616.754231,32.671856L611.255031,33.880440L601.248361,30.263163L596.506746,29.256075L578.568491,28.769323L573.088781,26.906278L574.435643,23.004162L577.311744,22.668509L588.600319,26.805575L586.587330,21.158098L587.586321,16.241163L589.042287,11.584752L588.347450,6.685467L585.623211,3.934007L581.273256,1.694356L576.576683,0.285185L572.864436,0.000000L564.520156,3.447484L545.255386,22.735640L542.650706,24.296445L539.237450,25.337006L535.272018,25.546799L527.047433,23.910435L519.690126,24.984556L516.294753,24.732807L511.323114,21.946863L511.715304,18.775091L513.778114,14.730932L513.977462,9.302838L511.867550,6.593190L508.626620,6.123419L501.084480,7.113297L487.454669,11.123328L474.222722,17.323522L477.389106,20.016927L476.919387,22.332859L475.316844,24.867073L475.216133,28.156693L477.277041,31.077239L483.163405,36.515918L484.808381,39.705523L483.681972,45.304576L478.861433,47.361347L466.899984,46.748504L461.912851,45.405314L452.541975,41.401127L450.239190,41.337914L445.096232,41.197319L445.099053,41.200061L448.923563,44.861898L450.886730,47.466317L451.764234,50.850928L451.752960,57.885255L452.826636,60.768009L454.862021,62.063976L463.574097,65.013079L460.038850,71.268890L458.018888,73.094191L455.064561,74.284637L455.548816,73.623275L457.223713,71.348250L457.854753,69.060096L457.429224,67.076226L456.438376,65.013079L453.228713,61.825939L448.495588,58.599317L444.158585,54.500200L442.196427,48.576869L440.072309,45.351043L435.144246,41.728831L434.975454,41.649515L434.966101,41.645216L434.863942,43.004445L433.143746,50.568386L431.792954,53.800805L421.966966,64.758896L409.439362,72.712263L377.959444,85.446829L366.436423,92.747893L360.716341,94.218308L330.362508,94.520799L327.155877,93.403273L323.258058,89.790380L322.759050,86.396163L323.103551,82.783744L321.684257,78.524763L316.777963,75.988016L285.246795,67.698229L278.683459,66.850005L272.356296,67.143942L262.191771,68.966391L258.088172,69.159557L254.340428,69.907034L251.578411,72.208319L251.178140,75.962817L251.924948,80.078789L251.245555,83.153375L239.134856,84.665531L230.928006,83.901047L224.948888,81.718285L223.104192,81.044829L216.768032,75.610035L212.976996,67.446280L213.013950,59.871563L213.915342,51.810955L211.451752,39.298837L211.338015,39.322970L154.180980,54.103528L103.057369,81.136835L50.124661,106.172023L15.605330,127.220211L5.906732,129.802166L0.769034,132.834469L0.763798,132.837818L4.785191,140.300700L7.571746,154.666544L10.213655,160.950725L19.524206,169.112021L23.634918,173.992575L24.556019,180.472628L23.071012,182.425216L17.216879,187.172326L15.773116,190.152114L21.062217,204.447344L20.801481,206.569229L18.861610,210.190104L18.618035,211.689050L19.458740,212.800657L22.588509,214.080718L23.774240,215.141844L26.043006,219.268652L27.426987,221.121610L29.325150,221.795429L33.110919,222.435566L35.212742,222.502949L39.991122,221.963886L42.440961,222.182879L45.840287,223.614785L47.172534,225.501591L48.004530,227.708565L49.744548,230.151508L59.435201,237.514725L60.932230,239.671653L64.494755,246.260945L65.883442,248.266547L70.697511,251.485784L91.416887,259.077544L92.595781,259.509459L96.625937,260.200631L99.997718,258.093426L107.561281,247.289017L112.175618,243.227408L118.057735,240.244602L131.484293,236.843858L151.850921,231.684724L158.556289,233.319081L162.978322,236.638498L167.366680,242.818900L167.369911,242.823451L171.031755,247.980028L174.311132,254.182679L176.395295,256.104303L180.021990,256.508864L183.498389,257.419139L185.603304,260.436644L188.674834,268.208788L185.181526,273.655039L187.432314,283.098808L194.590201,301.468487L195.182820,311.879177L196.583962,315.591761L200.712659,319.794053L204.137580,321.954400L215.500800,326.697355L220.024890,327.727022L226.277027,327.119347L237.513760,323.794143L240.962714,321.616840L243.480572,319.540893L246.091386,318.140098L249.764262,317.903823L253.486464,318.815175L255.199161,320.519785L254.851575,323.152757L252.417985,326.781754L255.654575,328.706069L272.315640,328.790470L278.173313,329.786418L283.870845,332.065353L289.070416,336.032629L293.382904,342.195174L295.829829,354.826476L296.170597,370.079363L298.713693,383.444147L307.930479,390.339104L308.900813,388.226579L309.270601,388.040682L309.703965,388.344879L310.864581,387.685787L311.538064,386.705616L312.602175,383.984895L317.111283,377.580785L319.152044,375.654639L322.625296,374.607117L333.870188,373.914412L344.619100,374.978816L350.003218,377.175275L354.487563,379.692870L359.143265,381.483986L364.986329,381.433293L381.272386,375.823597L386.731634,375.350518L391.791870,377.293548L400.532969,384.998811L406.089901,387.584390L411.516854,391.454552L418.875373,403.776801L423.669764,405.585666L425.530037,404.064186L425.157330,401.815859L425.242019,399.719765L428.446221,398.604136L430.784573,399.280272L434.296736,401.055170L437.554115,403.337273L439.179527,405.467327L438.645850,408.882362L436.164778,411.249352L430.166867,415.121307L427.490597,418.317161L426.377570,420.988980L425.126792,426.941892L420.460994,440.067818L419.982723,445.989126L423.678546,447.494940L428.791924,445.583071L431.562838,445.227777L434.153061,446.293669L438.839344,460.423094L440.461811,463.503324L442.313976,466.109819L442.284095,468.259432L436.140053,470.781535L430.231549,474.268676L425.581687,477.874565L423.752954,479.753793L422.498878,482.208745L421.517538,486.069187L422.757564,486.492498L424.290140,491.508049L424.721448,496.317597L422.839630,496.178588L422.658055,496.165175L437.305642,502.550362L440.802768,503.363387L444.632716,502.909988L460.546892,501.025974L499.603999,509.739864L501.545477,510.172976L509.198392,509.071862L544.924171,494.454690L555.668613,493.049087L558.438480,491.541917L560.722347,487.796322L562.406404,482.598162L564.113535,472.135736L563.787601,469.884396L562.782395,468.242505L562.116445,466.279076L562.727463,463.046355L564.157485,460.473866L591.137345,437.733321L598.040788,435.128284L599.347421,440.000150L602.286772,440.998263L610.345813,439.627977L612.793287,442.182492L612.601706,447.917930L611.395539,454.686242L610.962849,460.423094L608.116047,457.952276L606.547196,458.256891L601.916413,466.973038L601.701805,469.935177L602.175979,472.660498L602.029294,476.164699L592.619244,496.402276L591.634286,501.635724L595.207537,506.226015L607.572835,510.342380L611.775595,516.373526L612.345221,520.643185L611.751978,523.472872L610.513903,526.217983L609.229327,530.234233L608.418373,531.945892L606.174692,534.149097L605.746052,536.149009L606.325358,537.793059L608.960896,541.233863L609.655603,543.183184L609.929418,555.457031L612.326313,557.949431L619.124844,558.746344L624.917183,557.983342L636.079234,554.727982L640.831773,554.535122L641.510630,554.507574L646.256615,556.643874L656.115519,564.460718L661.352848,566.868730L670.657162,569.056380L673.806174,571.481549L685.215176,584.609785L689.161290,587.680259L693.960379,590.564278L699.978999,592.006342L711.616596,589.325829L717.215406,589.207075L722.757407,593.618101L727.916883,598.674227L729.855844,603.595035L728.710471,604.782878L726.650894,605.885897L725.980768,610.535767L726.684806,613.556680L727.982559,614.846555L732.320643,615.542419L734.157410,615.067194L735.476870,613.403934L736.524099,611.604950L737.463837,610.722448L739.079288,610.943072L742.071802,612.402606L750.188467,614.829582L752.227601,616.303119L755.120949,618.393852L768.172430,637.016303L769.334850,640.021546L769.382883,643.451435L768.642529,646.541891L768.461130,649.479662L770.158000,652.400587L775.804017,653.623339Z "/></g></svg>