<?xml version="1.0" encoding="utf-8"?><!DOCTYPE svg  PUBLIC '-//W3C//DTD SVG 1.1//EN'  'http://www.w3.org/Graphics/SVG/1.1/DTD/svg11.dtd'><svg enable_background="new 0 0 1000 819" height="819px" pretty_print="False" style="stroke-linejoin: round; stroke:#000; fill: none;" version="1.1" viewBox="0 0 1000 819" width="1000px" xmlns="http://www.w3.org/2000/svg" xmlns:xlink="http://www.w3.org/1999/xlink"><defs><style type="text/css"><![CDATA[path { fill-rule: evenodd; }]]></style></defs><metadata><views><view h="819.160660808" padding="0" w="1000"><proj flip="auto" id="robinson" lon0="-1.20762954871"/><bbox h="95.38" w="116.58" x="-81.4" y="-252.87"/></view></views></metadata><g class="" fill="#000" id="country"><path d="M348.698180,817.160661L351.073377,814.829531L354.176347,807.487219L358.135370,803.248131L353.589300,796.763293L349.072719,792.112177L348.422561,790.634808L348.205078,788.296259L348.405478,785.983694L349.036928,783.634010L350.124981,781.529317L351.740890,779.959150L351.332114,779.601126L350.371969,778.760180L349.969694,777.442428L349.815547,776.128387L349.177917,774.966538L348.075641,774.342925L347.370272,774.432013L346.678400,774.298382L345.649294,773.002901L344.793324,770.022183L345.269426,767.015482L347.394444,762.215898L351.773245,756.718464L352.579180,755.255947L352.222867,753.849109L349.230486,748.396222L348.689343,744.773339L349.877547,738.251410L350.035105,734.569138L349.217788,731.985609L346.361907,727.140129L345.747740,724.229957L345.773160,711.921122L344.468204,705.432634L344.532941,702.570721L346.190412,699.616010L348.753597,697.355434L349.696063,696.089660L350.117734,694.178008L350.049776,692.333171L349.620622,691.568510L348.799190,691.137924L347.541435,690.258193L346.328606,689.745944L345.225571,689.783064L344.407235,689.441565L344.103968,687.804597L343.652435,686.843203L342.576236,686.546248L341.284390,686.382922L340.182620,685.840978L339.163057,683.498741L339.169572,680.484643L339.808929,677.555919L340.674887,675.454960L341.578333,674.118660L342.552566,673.238930L343.777191,672.748954L345.412196,672.600476L346.796949,671.988006L347.954864,670.636859L348.505879,669.289424L348.017773,668.673242L344.931385,668.584155L342.876683,668.194401L341.325544,667.303535L336.901158,662.908597L335.916593,661.093459L335.537834,658.287232L335.167405,657.611659L333.465369,655.700010L332.883270,654.857400L332.547125,653.454287L332.345233,650.388226L332.041761,648.973977L328.274704,641.416472L327.746012,638.673350L328.108123,637.251678L329.809047,633.821849L330.584307,631.464769L330.941129,630.915403L331.223118,630.280662L331.221988,629.352678L330.858115,628.714225L330.278204,628.402422L329.733722,628.287352L329.485814,628.287352L329.355177,627.643804L329.060090,626.190108L329.446989,625.328939L330.800883,623.825605L331.495540,622.463325L331.959768,619.181974L334.092126,615.291867L335.500191,608.628944L336.439882,605.637125L338.140892,603.443372L340.157165,601.709899L341.861153,599.605232L342.579622,596.316459L341.829295,593.565916L340.452390,591.019529L339.702134,588.276410L340.053433,587.255628L339.879258,586.424155L350.761004,586.646871L350.809760,588.172476L353.574950,588.141564L365.419944,588.009151L390.055004,587.727044L420.586159,587.389258L448.984391,587.070032L476.599822,586.765653L496.212321,586.550361L497.687550,585.611242L498.597380,583.090839L500.796292,582.318757L516.741927,582.875547L518.315378,583.565392L519.580745,584.120161L523.769194,585.956452L526.931716,586.609752L542.989147,586.787925L558.198742,586.951250L559.315998,584.764921L562.897178,584.141316L580.296897,585.692904L581.359825,585.934180L582.318020,586.683991L583.197076,588.625332L583.842441,589.085612L585.159986,589.026221L584.317173,590.989834L586.515458,590.644624L589.342082,587.155406L592.042622,586.646871L592.767264,585.648361L593.511023,585.299439L594.221721,585.618666L594.873249,586.646871L594.873225,586.683991L609.255710,586.977704L610.141480,586.995793L610.310139,588.617908L610.870979,588.751538L611.751688,588.387768L612.925629,588.506550L613.675142,589.512484L613.133161,590.663183L612.186790,591.802747L611.807935,592.804969L617.863912,599.360244L620.075878,597.827216L621.355913,594.582986L622.277306,591.056648L623.445961,588.662451L625.259510,587.897793L627.881591,587.582279L632.799267,587.771587L633.242845,587.611974L633.653847,587.366986L634.032267,587.047760L634.345482,586.683991L634.345492,586.661719L635.533193,585.017333L638.853627,583.246740L640.347683,581.884461L641.033053,580.362568L641.314696,577.103490L641.902419,575.013672L644.323175,571.561573L646.762233,571.561573L649.154949,573.725631L651.423555,576.769416L657.751029,571.576421L659.352509,569.828100L660.341038,567.693738L660.057680,566.398274L659.562399,565.050842L659.915128,562.730883L677.022853,566.747195L683.464612,568.230073L690.019723,569.739014L705.505117,573.295046L734.276791,579.898576L745.285416,582.430969L759.401440,585.678057L759.675451,585.882213L759.845158,586.208863L759.910560,586.661719L759.741239,587.300172L759.650166,587.897793L759.467776,588.484278L759.024487,589.055916L761.059674,589.631266L759.535869,595.729973L775.304332,589.505060L783.221462,587.786435L795.365690,587.522888L811.762298,587.181390L815.612214,589.571875L817.308214,589.831710L819.564952,589.853982L820.099177,589.085612L820.410921,587.407818L820.292189,585.722600L819.561102,584.950518L818.556279,584.415999L818.111761,583.109399L818.045287,581.498419L818.187638,580.047053L818.630865,579.712979L819.699013,577.890420L820.441118,576.156947L821.274875,574.880042L821.835536,574.627631L822.422677,574.861482L825.188280,575.355169L826.036665,576.030741L826.676358,576.702601L827.354883,577.014404L827.720366,577.326206L828.386779,578.729317L828.608802,579.059679L829.404431,579.015136L830.773349,578.235630L831.268876,578.083441L835.156307,578.562280L836.435036,579.059679L836.774809,579.764947L837.676126,581.194041L838.603126,582.162856L839.019940,581.513267L839.161310,579.208156L837.724992,577.548922L836.927953,576.023317L836.717844,574.460593L836.690286,572.834767L836.427879,571.127277L836.193110,571.134701L834.992598,570.518520L834.627142,570.236413L834.548294,569.575689L834.768424,567.790249L834.624429,567.203763L833.437268,566.895673L832.642375,567.701162L832.173009,567.897895L832.040676,565.730125L832.692523,565.410899L836.852139,564.356710L837.581986,563.777648L838.440368,561.160735L839.000500,560.425772L840.343854,560.440620L842.862271,561.788052L844.166989,562.300299L843.512502,559.824439L843.012215,554.928398L840.647557,550.570587L841.271826,548.770299L842.574594,547.370900L843.889548,545.117755L845.103406,546.201640L846.057004,547.838603L845.888192,548.573566L846.996705,548.592126L847.661440,548.228356L848.313045,547.779212L849.408209,547.497105L851.794852,547.630735L853.842974,548.287747L858.031541,550.526044L859.632040,547.192727L859.826452,546.075434L859.538035,544.664899L858.297690,543.287771L858.022619,542.148208L858.646714,540.422158L860.055933,541.212800L861.531561,543.094751L862.328735,544.642628L863.188122,543.458521L864.074444,543.057632L864.974694,543.458521L865.849743,544.642628L868.051247,542.537961L867.801384,540.693129L866.573366,538.725803L865.840346,536.264790L866.932625,533.543942L869.447190,531.706534L872.301222,530.299710L874.372798,528.863191L873.169556,525.800843L873.324596,524.594464L874.365676,522.883261L876.006922,521.513556L877.533789,520.952897L877.583906,520.934494L878.873762,520.140140L879.601382,518.076303L881.663080,519.379193L884.102002,519.943407L895.968572,521.016157L895.709071,521.966413L895.424915,523.985706L895.204520,524.935962L897.394879,524.787485L900.049315,530.299710L902.512480,529.353166L904.662198,528.068836L910.488790,526.684284L912.899151,525.381394L914.867031,524.683550L920.448402,525.128983L922.834257,524.935962L927.785617,522.697664L930.196928,522.140874L932.388624,522.883261L933.599794,521.977549L935.138776,522.229960L938.414325,523.956011L943.751105,526.272259L948.211157,526.662012L951.663371,524.809756L952.251145,524.136077L968.812586,505.151334L978.013688,496.702960L984.758219,492.463924L986.501269,490.563410L986.954794,489.197416L986.847354,487.623552L986.920534,485.114280L988.268004,481.045990L993.104532,474.965827L994.869461,471.231610L999.388873,457.341506L992.807161,451.083161L982.779505,435.470692L973.890767,421.580553L964.441695,406.851494L959.018724,398.388216L956.599028,393.354789L956.890644,389.189961L958.789057,387.408216L966.054370,385.715557L966.626540,385.225577L967.535533,383.815028L968.329130,383.325048L968.707167,383.466103L970.063357,384.201073L970.701888,384.327280L978.190365,383.614582L980.038927,383.080058L980.921442,381.543302L980.667265,378.380701L980.678766,377.660578L981.079355,376.153517L981.078063,375.544753L980.567782,374.460857L978.961546,372.493510L978.242847,371.387341L977.209208,369.160155L976.593218,367.333862L975.611229,358.677526L975.203687,356.866079L974.353083,354.921000L973.216709,353.317423L970.908321,351.721270L969.577532,350.533435L968.233007,348.989249L967.749581,348.217156L967.014561,345.418318L963.711154,341.104988L958.655645,339.575648L946.400120,338.432355L945.242604,339.167329L943.112016,341.795418L941.720637,342.842199L940.730583,342.634327L939.844197,342.151769L938.815921,342.396760L938.257252,343.087190L937.401331,345.010000L935.272086,348.528963L933.948899,351.364920L932.442659,353.829677L930.309663,355.403558L928.083178,355.678245L912.127231,354.141484L899.219438,352.879409L895.037245,351.661878L891.504805,349.456959L882.833204,341.283163L875.883646,334.750060L865.610450,325.080314L862.357710,322.015900L853.018640,313.216762L845.472444,306.111984L838.291929,299.356128L834.488522,297.236570L825.479685,296.390231L821.858714,294.166736L820.737018,291.872711L820.369895,289.144380L820.355598,286.491591L820.306308,277.351293L820.227918,263.828378L820.163771,251.645479L821.810539,245.888104L824.478517,246.400366L834.554811,250.891935L841.323512,252.788787L844.122788,254.091712L844.994281,253.787325L846.250581,248.876297L846.847207,247.283832L847.509869,246.504303L849.787901,247.254135L851.846392,249.306894L854.294367,250.609820L857.714668,249.099020L855.303514,246.081130L853.375822,244.570328L851.254143,243.968978L845.918437,243.230281L843.666436,242.406207L829.944558,235.323620L825.790516,231.915958L823.431094,227.550583L822.773886,221.076755L817.681225,215.029806L810.873413,210.471390L805.057020,208.507706L800.322582,209.019971L798.085100,208.886337L795.612492,207.546280L794.102295,205.946378L793.997467,204.996088L794.426233,204.402156L794.516854,203.871330L794.412084,202.995281L794.437148,201.825978L794.072142,200.831142L792.797212,200.534176L776.096572,201.128108L772.778954,199.847442L771.033812,196.269001L771.578726,194.082587L772.799420,191.086938L773.552028,188.377118L772.692796,187.029631L770.273153,186.034792L768.854540,184.345793L767.565891,182.441492L763.324516,179.338185L761.411756,177.367065L760.888318,176.554268L759.888979,175.002461L758.821244,172.340889L757.832310,171.104761L755.207850,169.178182L754.430381,168.135082L754.358130,166.627970L755.387355,164.036923L755.441997,162.785944L754.085633,161.100648L751.877835,159.819972L749.799979,158.249751L748.800932,155.714380L748.539773,153.167872L747.219554,151.905754L745.580979,151.011135L744.423248,149.537425L744.409736,148.275306L745.448873,145.962657L745.591496,145.030915L745.057962,143.817052L744.368617,143.059780L743.578561,142.384174L742.798142,141.400462L741.201326,138.724021L740.644955,137.079550L741.187060,135.390532L744.194377,130.182415L744.791633,128.478546L745.452711,124.031408L745.916851,122.728448L747.108694,121.009727L747.238153,119.818130L746.880355,119.001459L741.541615,110.960952L723.431051,92.576009L721.704020,90.822493L717.953829,83.873309L717.211911,76.604864L725.598571,50.096079L724.766140,45.726807L721.120876,37.404015L721.327787,33.290871L722.866302,31.048685L724.606217,29.467276L725.735601,27.540627L725.436054,24.270149L693.814237,12.064295L693.788267,12.064295L677.006611,4.343350L668.249479,2.052883L660.400193,3.615747L652.571769,8.931704L648.022817,11.173907L644.497435,11.107087L643.258313,9.302930L640.367489,0.638510L639.205812,0.000000L639.205812,0.000000L635.130094,0.026784L607.571158,0.207887L603.402286,1.462633L601.091950,3.345922L599.640604,4.528963L592.920279,12.042021L592.900787,12.056870L566.895480,37.619531L566.873027,37.641597L562.440125,40.737589L557.644342,43.024315L533.624374,49.602355L528.274675,52.431058L484.644637,83.873309L475.870105,85.733108L467.033127,86.249100L456.704853,85.347042L450.681487,85.651440L446.902471,87.526087L445.893236,91.327348L443.499846,126.611343L443.008987,128.122181L441.921336,129.113321L435.739916,132.210874L433.305906,133.430529L431.355169,133.775757L427.327831,132.717800L397.971081,117.119403L388.411243,114.791888L381.556347,116.666521L371.321250,123.211026L368.499265,125.898613L361.365987,134.788140L359.229212,137.450762L340.619456,148.973184L337.275227,155.072185L337.997371,154.901428L338.367254,155.116730L338.564433,155.469381L338.771747,155.699532L333.795191,174.319436L331.555318,178.432435L329.538537,183.937463L330.102933,191.636326L333.602097,205.196540L329.162583,207.082264L324.810300,208.930882L323.889452,209.101637L323.009563,208.656189L322.120558,208.010289L321.068249,207.590825L318.006071,207.227042L317.016484,207.538856L315.547197,208.366647L313.349940,211.057896L311.900883,211.644403L311.026736,209.435723L310.682361,207.330980L310.068907,205.976074L307.832876,203.604061L304.685512,201.514164L302.051269,201.603254L299.291558,202.256579L295.784218,201.855675L290.187976,197.104218L286.840041,195.801279L284.326604,198.570488L286.920279,200.786597L287.734297,204.238825L287.179929,212.234621L286.504858,215.620024L284.626348,220.920848L288.951723,256.753243L287.213479,258.026471L266.543603,259.418484L263.767480,260.632319L263.284701,264.693282L264.737854,269.674825L264.868750,272.258396L263.601526,274.563563L262.073988,275.001582L260.522385,274.737162L255.212730,273.832295L252.394755,273.902823L251.568868,273.746918L250.455820,272.919136L248.443855,270.547151L247.608991,270.183373L245.945387,270.458063L245.054948,270.168525L234.784240,261.211396L229.043796,257.321184L219.733002,248.943114L217.411317,247.859198L212.258181,246.303853L207.919912,244.377302L205.872324,243.939281L203.360067,244.184276L200.894672,244.102611L197.977020,243.252553L196.418112,241.856824L197.989743,240.152995L199.075783,239.458842L201.640263,236.760183L202.624318,236.337010L203.805890,236.132847L204.683212,235.557479L204.767558,234.013267L204.086072,233.627213L201.057215,232.988741L199.979384,232.491326L199.576521,231.589297L198.934533,228.734728L198.811275,228.532314L198.204426,227.535734L197.731224,227.134832L197.273210,226.993774L196.830302,227.131120L196.421998,227.550583L194.714900,229.781527L195.434405,230.397728L197.040667,230.520226L198.026226,231.299757L197.353901,232.639808L195.671948,234.291670L193.760139,235.672553L192.414527,236.210800L190.879950,236.819576L188.944048,239.273240L187.802280,240.056482L184.428183,241.043886L183.388013,241.637813L181.274090,243.835344L179.955339,246.444910L177.799784,252.291374L175.829834,255.773265L173.435326,258.854254L172.065380,259.685750L170.858673,259.618933L169.678853,259.351667L168.461051,259.596661L166.545049,261.055490L164.254461,263.360662L162.388985,265.903404L161.800556,268.052669L162.663442,269.400135L165.324247,271.066835L165.601955,272.317788L164.711510,273.587301L163.277945,274.036456L155.217136,273.594725L153.091309,274.600684L151.489054,279.378058L150.689973,280.551056L150.033647,281.816855L150.025945,283.576353L150.739415,284.871848L154.370858,288.635833L157.693751,296.880217L159.297348,299.356128L162.943798,302.845417L165.263400,306.149104L166.255695,310.128374L165.801915,318.279932L167.382932,324.790778L167.200049,326.516857L164.534789,335.830249L163.287161,337.615717L163.097845,337.757290L161.559746,338.907490L159.205635,339.805792L156.567239,340.169567L154.844192,339.612768L151.260360,337.203686L147.559555,336.312808L143.378231,336.661735L139.186844,337.831013L135.520880,339.434592L135.511586,339.436083L134.178722,339.649888L133.326837,339.412321L132.879138,339.805792L132.081774,347.259464L133.178422,349.635135L138.634236,354.371627L140.714657,356.680480L143.343129,363.406589L144.439114,365.270002L145.117549,365.767408L145.160872,366.309356L144.325582,368.284129L142.530111,370.941904L140.122538,373.569983L137.961217,376.472747L136.943706,379.939730L141.465074,392.152112L142.602418,398.306553L138.856901,399.130609L137.728088,398.024443L136.744477,396.465417L135.511619,395.329556L133.657988,395.455763L132.269881,396.406026L131.946583,397.393409L131.967795,398.551542L131.515461,400.800993L131.730178,402.419410L131.563740,403.280586L131.072717,403.874500L119.922911,414.141787L123.053678,421.001487L121.816014,422.523390L118.023561,422.716412L113.496585,425.589467L112.155624,428.395706L111.891755,430.704542L111.373737,432.187733L111.248724,432.545672L108.737845,433.896823L107.460419,433.993334L104.901364,433.644410L103.564186,434.000758L102.232827,435.277670L101.323705,437.124468L100.471316,438.855993L99.468177,440.311079L97.648318,441.528599L94.084480,442.219022L91.901506,443.013380L89.461856,440.652578L86.813453,440.600611L81.418620,442.775815L78.805917,442.746119L76.111585,442.026001L73.379485,441.743892L70.637166,443.013380L69.488666,444.119541L68.260241,444.884203L66.939097,445.255398L65.509257,445.166312L63.204570,445.455844L58.230478,445.277670L56.268371,445.455844L54.420064,446.391255L50.240064,449.212338L46.346905,450.570912L44.435656,452.404615L41.066599,456.628813L36.158360,461.090574L33.617963,465.025237L32.740915,465.834442L31.814858,465.975496L31.119367,465.589453L30.437857,465.002966L29.592803,464.550108L28.791026,464.594651L28.215409,465.047509L27.737260,465.559758L27.208097,465.834442L22.818363,466.651070L22.406350,466.955449L21.456025,468.083881L20.783681,468.314021L20.061712,468.017066L18.516568,466.784700L17.963698,466.561983L16.241918,466.836667L15.432501,467.111351L15.448628,467.824045L16.222904,469.442453L16.925287,469.746832L20.180115,471.892337L20.666043,472.493672L22.858168,471.996271L23.946110,472.085358L25.253956,472.530791L27.705313,473.726037L29.692982,475.136576L31.176231,477.111330L32.120996,479.969527L32.233116,482.493648L31.951276,485.648799L30.843362,491.261255L30.139211,492.716336L29.187159,494.215960L28.482511,495.774975L28.501046,497.408229L29.458337,499.019211L30.591238,499.301318L31.882728,499.115721L33.302647,499.353285L37.768976,503.391875L38.912961,508.451248L38.866132,520.340584L39.536014,523.625648L39.638570,525.485329L38.609433,526.736251L35.858066,528.217314L33.919892,530.084418L33.354049,532.693908L34.161246,547.675278L33.909754,549.995237L32.331571,552.994480L28.340519,557.493344L27.132526,560.808101L26.330666,566.665533L25.037108,568.673689L22.027930,570.782067L19.910422,571.806561L17.748555,572.534100L5.166768,574.341812L3.334569,575.696667L2.933038,577.957235L3.145689,579.245027L4.374249,586.683991L3.574852,590.418196L6.441568,589.653537L8.132770,593.625307L10.430112,603.666088L11.923651,606.695026L12.379124,608.450771L10.588280,616.739521L10.622164,617.949612L10.433352,619.367571L9.608435,620.046855L8.568734,620.611069L7.709541,621.668971L7.054450,623.795910L5.814108,631.501889L5.873744,632.797355L6.489882,635.154434L6.641247,636.364526L8.575359,637.199711L7.317161,638.487753L6.432991,640.792866L6.280004,642.994045L7.221830,643.981421L7.587872,645.351126L5.846199,652.893784L2.855186,658.086787L2.367278,659.270896L1.311668,666.590843L0.611127,668.673242L2.810734,670.098627L5.022283,673.350288L6.547187,676.973144L6.680323,679.471282L8.471875,680.213671L9.345634,680.388132L10.513542,680.447523L11.261942,680.952348L11.805293,682.121610L12.230711,683.405943L12.618681,684.278249L13.970612,685.618261L15.695951,686.620486L17.814587,687.206974L20.365905,687.318332L20.961576,686.880323L21.441280,686.071119L21.913429,685.514327L22.564724,685.840978L23.117767,686.256716L23.782932,686.382922L25.225441,686.330955L26.688874,685.944913L27.488677,685.050334L28.132249,684.055533L29.081215,683.391095L31.208372,683.480181L37.045401,684.448999L39.064412,683.836528L45.254659,687.945651L46.384260,687.804597L47.331512,685.892945L49.399571,686.085966L51.388487,687.565451L51.475445,687.630136L52.400430,689.768216L52.370006,697.659814L52.037412,698.439323L51.554487,699.274511L51.695622,699.912966L53.232078,700.068868L54.124261,699.734793L54.877621,699.007251L55.458798,698.075552L55.831190,697.125294L56.175624,700.076292L55.085525,702.674656L55.007773,704.237386L58.389329,704.077772L57.524479,706.668713L58.276070,708.134933L61.458931,710.499445L61.689677,711.627878L58.725238,712.782295L57.575213,713.973831L58.635845,713.988679L59.463726,714.278211L60.190075,714.664254L61.011435,714.953786L59.288123,715.848367L60.309864,717.537305L61.712406,717.767446L63.193541,717.051039L64.454543,715.848367L65.084592,718.443021L66.433949,719.820156L68.091921,720.711025L69.618556,721.820899L71.023775,724.007239L71.888878,726.639015L71.402004,728.580368L68.725186,728.688014L69.284527,730.140762L70.693503,732.223175L72.058717,735.586217L72.290439,736.495649L70.454283,742.386543L70.605083,744.016097L74.305869,747.898818L75.397845,748.336831L76.116063,747.401414L76.786594,746.105936L77.761684,745.448918L79.196860,745.757011L79.765708,746.432590L80.197461,747.108168L81.247496,747.408838L84.204079,747.653828L86.711173,748.552125L88.497022,750.345007L89.335499,753.292313L91.750909,752.419999L92.771739,754.576656L93.380755,757.835768L94.573796,760.252263L92.550260,761.065186L91.475613,761.243360L90.248477,761.146849L90.244791,762.215898L91.363908,763.348050L91.603550,763.912270L91.961960,765.066695L93.638612,764.509899L95.299807,767.527735L97.220814,767.119417L96.505088,766.384446L96.295146,765.720003L96.744041,765.237446L98.001500,765.066695L99.303428,765.259718L99.935056,765.764546L100.350307,766.540349L101.058545,767.564855L102.516161,769.038509L102.983125,769.977640L103.160874,771.492126L103.431423,772.594584L104.108483,773.195924L105.810059,773.986575L106.447242,774.803211L106.412745,775.360008L106.503790,775.471367L107.537142,774.966538L108.561531,774.209294L109.393992,773.240468L109.844089,772.386713L109.708174,772.022939L111.565788,772.030363L113.130395,771.789085L114.622019,770.905634L116.260649,768.993966L117.686198,770.333989L119.494672,773.396371L120.958639,773.986575L122.795330,773.403795L123.276787,771.919004L123.341812,769.985064L123.968500,768.010292L124.369940,767.037754L124.472973,766.473534L124.872149,766.198847L127.167189,766.198847L128.155657,766.421566L128.911645,766.859579L129.206462,767.564855L128.917764,770.037031L127.665236,773.756433L127.369503,776.388226L129.155692,779.357809L133.261431,779.825519L137.790598,779.580528L140.853754,780.404587L141.976893,782.501856L143.046260,787.219784L143.890352,788.782529L145.617981,789.710524L146.046412,788.415042L146.027530,786.057934L146.413241,783.789913L148.350807,784.383830L151.774157,785.983694L151.783162,785.971784L152.613369,784.873812L154.260060,781.269479L154.582250,779.461744L154.217127,776.068995L154.240579,774.803211L154.939979,773.492882L158.779997,768.979118L157.306056,768.422321L156.744917,768.296114L158.431440,766.584893L160.611630,765.705155L165.373537,765.014727L167.708830,763.563345L171.349646,757.835768L173.634028,755.901830L175.809054,755.597448L182.990354,757.984247L184.306809,758.804593L185.043829,759.064431L185.827872,758.871409L186.077951,758.192118L186.125838,757.442299L186.257563,757.048830L188.199706,755.998341L189.248713,755.612296L193.300076,755.545481L194.108920,753.529879L194.647775,751.180201L196.528007,750.055474L199.239611,749.283383L204.005549,745.816403L206.340874,745.039629L206.583468,744.958938L214.950215,744.780763L217.381064,743.964130L218.457481,743.062121L220.488015,740.615933L221.770185,739.661958L223.612949,739.008651L229.751822,738.154898L230.694750,738.303377L232.340295,739.357576L233.136267,739.535751L233.809853,739.097738L234.986033,737.468184L235.414523,737.134107L237.116720,737.757718L238.076881,738.793357L238.899608,739.962627L240.244860,741.039098L242.401131,741.551350L249.957390,740.408063L269.825005,742.260336L271.416254,742.943338L273.627043,745.241047L274.973257,746.031697L276.123356,745.586261L277.607828,744.550621L278.914916,743.971554L279.474006,744.951514L279.362666,747.817155L279.577603,750.753324L280.846248,752.620446L283.863330,752.286369L285.611121,750.330159L289.900169,743.485286L291.859094,741.918835L293.397317,742.980458L293.433313,745.749587L293.151248,749.138617L293.699538,752.011683L295.899623,753.477912L298.736236,753.544727L301.662726,754.287122L304.184837,757.768953L305.752711,764.688073L306.985871,768.032564L309.188238,770.107559L311.466738,770.230054L315.818445,768.786095L318.213356,769.424555L320.190215,771.685149L321.720839,775.025929L323.972598,781.714916L330.229420,795.490082L342.796122,814.398941L345.674777,816.897109L348.698180,817.160661L348.698180,817.160661Z "/></g></svg>