<?xml version="1.0" encoding="utf-8"?><!DOCTYPE svg  PUBLIC '-//W3C//DTD SVG 1.1//EN'  'http://www.w3.org/Graphics/SVG/1.1/DTD/svg11.dtd'><svg enable_background="new 0 0 1000 577" height="577px" pretty_print="False" style="stroke-linejoin: round; stroke:#000; fill: none;" version="1.1" viewBox="0 0 1000 577" width="1000px" xmlns="http://www.w3.org/2000/svg" xmlns:xlink="http://www.w3.org/1999/xlink"><defs><style type="text/css"><![CDATA[path { fill-rule: evenodd; }]]></style></defs><metadata><views><view h="577.775910364" padding="0" w="1000"><proj flip="auto" id="robinson" lon0="25.1898028527"/><bbox h="48.57" w="84.21" x="298.79" y="-740.84"/></view></views></metadata><g class="" fill="black" id="country"><path d="M520.688095,575.775910L524.432101,575.524916L550.500366,567.555106L554.546628,566.902816L556.232225,567.043307L557.535853,567.404575L558.795553,567.525000L560.310051,566.963026L561.540919,565.367515L562.343390,563.220311L563.380368,561.384343L565.479864,560.712202L579.767405,561.605051L581.402791,562.106670L584.964800,563.912607L586.537872,564.303916L588.321063,564.063110L589.339375,563.380841L590.366107,562.337419L592.191101,561.013158L593.936105,560.441346L599.473470,560.060148L605.045080,556.368938L606.622345,555.787235L610.353103,557.030896L615.619481,561.795664L618.861133,562.969485L621.103776,562.538072L624.888127,560.641980L627.132883,560.662043L629.336356,561.043253L631.090500,560.842615L634.542346,559.237588L638.522876,556.609647L640.489511,555.666885L653.886856,552.768683L655.097525,553.039431L656.035472,552.538049L657.584102,549.870914L659.482924,544.948699L660.710489,540.117900L661.419755,538.945456L662.393626,538.614779L663.154172,538.163864L663.253024,536.600773L662.617507,535.428533L660.168785,533.515024L659.384839,532.633468L657.324313,529.217799L657.453593,527.915788L659.122974,526.163210L659.415368,523.709852L659.407518,521.527108L658.931444,519.314558L657.817966,516.761906L656.814845,515.851035L654.243707,515.430646L653.268951,514.760042L652.833803,513.458932L652.723219,510.406638L652.434998,508.945694L650.376328,504.003232L649.255352,502.372666L647.704365,500.892257L645.769923,500.097079L643.467552,499.697000L641.064324,498.721838L639.684241,497.119221L638.855281,496.156616L637.825721,493.891667L637.055162,491.152033L636.824493,488.352752L637.435905,485.948644L638.397703,484.829145L639.439677,484.529289L640.527148,484.474316L641.666210,484.014545L645.600635,480.846372L649.766997,479.782083L658.521028,479.532257L661.671316,476.479599L663.993195,476.634471L665.407577,477.378868L670.191069,481.780788L672.450949,483.359887L675.921060,484.244429L682.024374,483.719697L680.154293,481.660861L678.580285,477.778554L678.675339,473.582189L680.388272,468.927093L686.387441,463.693683L702.947742,464.337811L710.345483,462.220742L712.177843,459.564679L713.075300,456.030361L713.329422,452.521499L713.295872,451.131634L713.267583,449.961286L713.326926,448.948252L713.800063,447.251636L713.801167,446.168853L713.241100,445.510225L711.170804,444.412548L710.797353,443.654181L711.306428,442.391947L712.190133,441.488964L713.269202,440.695762L717.346073,436.241302L719.741321,434.570451L722.566472,434.256242L737.897107,436.520619L740.928565,436.201400L742.436582,435.134040L745.510795,431.992058L747.367640,431.478404L748.948064,432.151642L752.196566,434.480676L754.011991,434.909600L755.262018,434.306117L756.743442,433.063754L758.502930,431.588115L760.104493,430.615687L761.853255,430.570806L763.421326,431.074469L764.896742,431.094416L766.426167,429.538576L768.010653,428.900308L771.068471,429.339115L772.417976,429.010009L773.968106,427.090301L774.987543,424.761903L776.173983,422.782669L778.295120,421.940167L781.151301,420.020953L783.964087,414.024876L787.576679,412.280620L787.794420,412.283831L790.617568,412.325471L793.631833,413.152735L796.520352,414.563125L799.208104,416.352379L800.976745,416.207839L804.576345,416.352379L808.570197,417.269477L809.233911,417.020263L809.281617,416.342411L809.598709,415.569878L812.618786,411.278966L814.455848,409.833855L817.890221,409.390371L823.663171,410.581317L829.117037,413.312210L833.955789,417.199697L841.919919,426.601670L845.914296,430.341418L850.132202,433.353538L862.650149,439.313951L865.310041,441.179662L869.719639,446.029143L872.006586,447.361413L874.494569,446.343493L872.167879,445.485277L872.494673,445.056180L873.429647,444.592165L873.890114,444.173061L873.417442,443.903641L872.898247,443.659170L872.414794,443.369799L872.141766,442.910803L875.439985,441.823214L876.947980,440.850409L878.060661,439.303974L879.373632,440.132054L880.217276,440.127065L880.661073,439.184254L880.806871,437.258828L892.893232,434.341029L898.826860,434.535539L907.712402,438.680437L909.981831,439.343881L912.058120,439.269055L913.969749,438.550743L914.292327,437.378540L911.624649,435.991915L911.730359,434.091659L911.405837,431.478404L911.646898,429.538576L912.245901,429.304210L912.880515,429.219440L913.528468,429.304210L914.212051,429.538576L917.201138,429.099765L918.681652,429.159602L922.753493,430.072139L927.228635,431.937201L929.491105,432.545618L937.214859,431.727749L939.720707,432.425929L945.597820,433.582594L945.595730,433.576903L944.876646,431.629188L945.623761,429.328238L945.071323,426.650587L943.551783,424.153776L941.502787,422.403003L941.998696,422.206735L942.426611,422.191033L942.627818,421.931962L942.412487,420.966353L940.645686,419.788826L938.916769,418.297362L937.903099,416.492013L938.294889,414.372837L935.985817,413.737114L934.428210,411.955598L933.133075,410.087872L923.892597,405.168007L920.449677,399.856733L919.055449,398.531023L913.986087,396.060181L914.235983,395.471914L914.485105,393.966005L914.726880,393.315035L912.798540,392.389585L910.417068,390.672085L908.356031,388.813527L907.419787,387.402038L906.375584,386.163117L900.177283,382.791615L900.396980,382.070317L900.436874,381.874315L901.073115,381.356875L896.768801,378.440550L895.555025,374.866056L896.982024,371.291950L900.581381,368.329493L899.057330,367.302882L898.168680,366.260629L898.058448,365.202736L898.858647,364.144875L898.704153,362.946006L896.170114,363.063540L894.265825,363.627711L892.420146,363.839277L889.977121,362.946006L887.889360,360.971487L886.582333,358.291962L886.425659,355.659643L887.700890,353.748200L886.170297,353.474026L885.432650,352.996184L884.007422,351.116214L886.300450,350.043108L887.192236,349.800292L887.006465,348.359099L885.273844,348.735057L883.841524,348.515747L882.833398,347.552368L882.301321,345.743162L878.781885,348.092797L876.238368,347.622859L874.372150,345.241926L872.995055,341.913573L873.488672,341.608162L873.806669,341.655148L873.951453,341.467204L873.902429,340.480513L871.605291,339.901040L870.088115,340.433528L868.632208,341.341909L866.457033,341.913573L865.127742,341.279261L863.686152,340.175114L862.290255,339.932362L861.101835,341.913573L858.001962,339.634798L856.520796,340.550990L855.520082,342.782832L853.780942,344.427431L852.088933,344.004528L846.493349,339.282422L845.880360,343.229216L846.580426,344.028022L846.661423,344.051517L846.459481,344.302126L846.201695,345.743162L845.098382,342.806326L845.127207,341.811769L845.528862,340.480513L843.329932,338.632493L842.885363,335.766670L844.147343,333.950192L847.170738,335.234245L848.363900,330.450573L848.884590,325.698780L850.441455,321.738067L854.822803,319.343035L869.740236,319.687410L872.452734,320.775342L870.647275,317.558589L868.186103,312.182215L867.221780,307.135122L869.854659,304.905190L873.360160,304.302736L879.958034,301.619172L884.143922,300.961996L881.542822,299.827606L880.212343,298.380320L879.799808,296.604522L880.035515,294.523713L880.738861,291.848517L881.717346,290.690875L883.352872,290.393646L890.422617,290.565726L899.160161,291.879805L907.268670,291.457419L907.482900,290.119885L907.399907,286.514196L906.196006,277.332936L904.648821,272.265922L902.820579,268.121942L902.470508,264.963332L905.374996,262.789931L904.114785,259.913029L903.285522,246.921682L902.193796,242.966932L898.650588,234.182843L897.785269,229.884946L898.163209,227.743897L899.226138,226.376469L900.457805,225.110640L901.348082,223.321322L902.305808,214.023696L904.252749,205.664414L904.148225,203.414553L902.865856,201.945918L896.854677,198.297850L896.680547,196.985510L898.246593,196.985510L899.277260,196.657427L900.942878,195.556013L911.444897,192.978274L913.970581,191.150453L915.702833,188.033842L921.860669,167.632897L922.360723,165.961555L925.981508,160.666447L931.664584,157.550348L934.904248,157.128623L945.315739,157.550348L948.155033,156.941189L953.761858,154.239039L957.244840,153.614268L964.885326,154.863812L969.074509,156.300793L971.095623,158.143888L972.772664,159.260683L980.383375,162.751675L982.916466,165.407048L982.578403,162.064407L983.104527,159.658982L984.339344,157.808069L990.865424,151.630625L992.378714,150.880905L994.486174,148.709847L996.661342,143.539957L998.386046,137.448596L999.133112,132.528673L998.620749,129.732910L997.246768,127.624372L995.313386,125.297169L993.238870,121.939117L992.514286,119.479140L989.807281,96.182840L989.792840,93.543044L967.152686,94.707293L932.633512,89.569308L898.144566,76.505466L892.289616,72.800371L882.156754,50.711327L877.646551,45.174704L877.643875,45.154859L868.962752,46.057807L858.743427,51.475316L848.651806,53.717641L841.458648,46.322383L840.284678,45.115169L836.364856,39.290438L832.598466,38.159185L823.619409,40.749137L793.466229,40.977367L791.589026,39.895752L787.906641,35.182132L785.827521,33.683641L776.422437,29.962105L772.655891,26.637384L772.826348,22.290216L770.008818,20.538567L769.745093,20.374601L765.928497,20.692219L762.361182,19.054485L745.317685,16.126319L732.990687,9.872531L729.188207,12.165654L710.834520,13.813478L696.872024,21.605364L691.410255,23.114014L684.289506,23.114014L682.524580,23.501096L679.601225,25.237981L678.145521,25.615127L675.015460,25.942648L669.911852,27.580230L639.040520,31.626047L626.050934,33.328013L622.654804,33.772956L610.753987,38.595811L598.344204,41.493362L593.208039,44.093139L588.088246,49.818345L585.755663,53.519208L584.966749,56.485754L567.452133,68.772763L566.226568,71.019707L565.290705,73.752694L558.863450,82.100132L554.410607,84.490700L549.759334,89.246939L549.553719,89.966068L546.531571,95.322256L540.254698,97.831683L539.204143,97.861168L529.475959,98.134201L526.859161,99.904668L524.641096,101.987554L521.473631,103.817506L518.051112,105.176324L515.145221,105.806139L512.376670,107.155030L508.809828,107.477375L501.618856,107.120316L500.637583,107.278640L498.299302,107.655904L492.055244,110.219770L488.517374,111.052899L481.516222,110.239606L475.352609,107.279009L469.461344,103.584423L468.902328,103.310148L463.326423,100.574169L456.651558,99.185572L435.920517,97.831683L416.515038,91.944898L383.303557,94.017938L375.734725,93.065731L368.513591,90.783236L341.898700,82.367956L336.476313,81.807508L331.093222,83.389654L322.946530,89.207263L320.297064,89.946230L316.901505,90.093350L288.932059,91.305128L287.342354,90.963042L230.504858,78.727486L220.931757,74.075094L217.358652,73.474934L204.245632,76.098754L201.788082,75.743197L197.252198,75.086927L179.200338,66.798594L153.796935,65.649063L139.633517,67.433506L134.002467,70.226089L128.567885,71.267712L124.003554,73.068213L111.548624,74.052026L90.658786,75.701960L85.666308,74.685171L81.317969,71.634758L78.952473,67.998972L78.391800,63.653747L80.631690,49.242863L81.921875,44.926640L84.878726,43.110790L88.104708,42.694032L94.203096,40.888060L97.609781,40.481215L102.841138,37.801944L104.883600,31.907250L102.786528,26.002197L99.042162,24.585874L95.702306,23.322443L88.413167,22.468871L82.447343,20.275345L46.240470,0.000000L39.768734,2.774254L38.520300,4.054981L36.495783,7.499907L34.214799,10.100854L33.866057,10.349030L33.781829,11.520411L34.073565,12.542870L34.450424,13.148397L34.680352,13.158324L33.668109,18.846043L33.594151,21.009836L33.962804,22.885733L35.436866,26.945051L35.637708,28.632234L34.097656,31.599602L31.337686,32.085883L28.061347,31.887401L24.933334,32.899652L23.361944,35.291292L22.452873,38.059952L20.886763,40.054522L17.379235,40.143830L14.953431,40.491190L10.033449,41.195673L6.613162,42.545189L4.965040,45.154859L4.862711,47.536242L5.382868,53.102495L5.346715,56.098818L5.030278,56.957021L3.734902,59.511745L3.365181,60.484013L3.675208,66.238083L2.805975,72.145645L1.252030,76.569945L0.866888,80.751082L3.506719,85.948831L8.085127,90.278516L8.409776,91.771317L8.164897,94.975100L8.369586,96.572014L9.343861,99.076468L10.629582,101.580897L12.144171,103.926608L13.803948,105.944996L15.962090,107.566639L20.878480,109.832959L22.668749,111.231426L23.990887,113.760555L24.613432,118.164182L26.082565,120.534589L26.145668,120.663523L26.189163,120.762703L26.167061,120.861883L26.126419,120.941227L25.676494,121.635487L25.587344,122.329746L25.828331,123.043840L26.424257,123.703385L26.670790,124.164571L26.787185,124.635674L26.775040,125.131572L26.631676,125.627470L26.290905,126.574634L26.230549,127.536674L26.463827,128.483837L28.778892,132.004703L32.731803,141.129219L34.636419,144.793925L37.013713,146.599012L42.520215,148.805788L43.727507,149.802561L46.244164,152.435836L47.863629,153.447494L49.590872,153.784715L53.004057,153.621063L54.520638,153.983079L55.845130,155.148476L57.973520,158.431444L58.393746,158.795462L59.404780,159.671245L60.969006,160.167167L63.975027,160.028308L65.535604,160.187003L68.258140,161.218524L69.103012,161.719554L70.574636,162.592238L83.034621,172.674651L85.320177,175.263526L86.061300,176.791078L86.935024,180.292597L87.592961,181.810275L88.719546,183.104777L92.934068,186.502277L97.691730,191.561477L100.124909,193.530649L103.121028,195.083190L111.108760,196.586149L113.868928,197.627814L114.357974,199.869024L114.889581,202.305499L113.913294,208.724614L111.675133,215.044906L108.909708,219.405852L107.702545,220.254251L105.127332,221.380502L103.893781,222.442266L103.250658,223.791816L102.481197,227.314641L101.802957,228.798241L95.728473,234.395479L93.909489,237.055299L93.912705,237.085074L93.897320,237.094999L93.880863,237.094999L91.884982,237.814556L87.573987,238.737585L85.821202,239.730102L84.876774,241.352895L84.150381,243.779710L82.338158,253.110582L81.623519,255.264414L81.529499,255.547742L79.868496,257.563060L75.222315,259.384844L70.493337,260.437234L58.181896,257.563060L53.888056,258.064418L51.855911,259.394772L51.144913,260.480583L51.105035,260.541481L50.063917,261.127254L47.190239,260.740048L45.004707,260.784725L43.688332,261.881817L41.561337,265.277467L40.015908,266.548403L36.166118,268.459823L34.902080,269.591810L34.035622,270.977216L33.619603,271.642352L33.449024,272.367259L34.084617,273.082245L38.736891,281.255581L41.184758,284.150809L43.734594,285.824452L43.976721,286.400555L44.088049,286.986598L44.101537,287.582581L43.981067,288.158704L42.044620,289.956647L38.632725,297.000044L40.047893,299.637854L39.804966,304.382308L39.499176,306.381761L38.318364,314.096309L38.159308,317.927839L38.881316,318.206148L47.868789,325.089895L53.101313,328.251333L55.363930,330.468463L56.870319,333.182873L56.873453,333.212703L57.820543,336.101320L57.696077,340.103973L56.256856,347.160602L54.878592,350.239281L53.194323,351.343491L51.237433,351.736438L48.903227,352.785976L46.742787,355.661172L44.936009,362.730763L42.907159,365.457490L40.086696,366.293465L33.440795,366.402939L30.535246,367.855995L48.276357,386.930773L54.748367,390.999070L57.439644,396.542176L59.713659,399.555665L60.315117,400.352713L63.969169,403.376583L78.775107,412.325471L80.352151,413.015411L88.515373,416.586635L93.390469,417.488788L94.177664,418.057010L94.861121,418.899395L95.656250,419.701927L96.755160,420.085755L104.020708,419.791653L105.675323,419.951165L106.468098,420.728803L106.981082,421.995004L107.663702,423.301145L109.013535,424.183573L110.135590,424.153659L112.504130,423.385897L113.419929,423.440736L115.336851,424.522592L116.315191,425.489818L116.765329,426.851639L116.799717,426.955678L117.199481,429.508656L117.252261,429.538576L118.729346,431.632998L119.327199,433.707634L120.093388,438.341239L121.749526,442.781088L123.932359,447.191757L124.322530,448.549038L124.553878,451.398567L125.120535,452.860884L125.347868,453.068044L125.870894,453.544658L127.837121,454.453059L128.663693,455.231715L129.912698,457.517908L132.309187,464.133087L136.497478,471.409365L137.640063,472.832917L139.470442,473.542227L143.283774,473.722056L145.066152,474.446379L148.325057,478.517991L148.916707,483.075041L147.628610,487.573013L145.833227,490.652336L144.632317,492.711784L143.879789,495.521607L143.482593,496.486628L142.655195,496.981655L140.203332,497.641708L139.476384,498.306782L138.943734,500.527172L138.723371,503.202939L138.862485,505.989086L139.395409,508.575471L140.023426,509.676154L141.772994,511.837659L142.273490,513.148679L142.257686,514.279623L141.809893,517.492634L142.209389,520.466214L144.028596,534.025943L144.341273,534.967672L145.473879,536.941436L145.788504,538.063662L145.483858,538.975518L143.839758,541.069936L143.447570,542.262550L144.204465,546.402178L145.435506,550.472492L145.224132,554.082347L141.666756,556.810240L173.984721,561.294054L180.655249,560.581789L184.175815,559.608739L185.842104,558.695922L187.131472,557.351853L187.783322,555.466304L187.665697,551.926381L188.059861,550.442412L190.174504,548.417178L193.545508,546.342032L197.145702,544.878534L199.982685,544.698110L203.153204,546.602666L204.897205,548.838249L206.726910,550.302043L210.092415,549.931071L212.816543,548.507407L217.359703,545.269457L220.320263,544.367337L236.187329,544.788321L247.306549,549.780679L252.706873,549.971176L254.575865,548.791983L255.011015,548.517432L258.653747,544.808369L261.649229,543.775970L266.974493,543.735877L272.371293,544.838439L274.911976,544.216988L277.962373,538.714983L280.257299,537.662860L283.109800,537.793120L286.475370,537.442422L289.712890,536.670909L292.180229,535.528722L296.137336,531.872155L297.449116,532.032429L305.541020,537.061672L307.898643,536.911377L310.310545,534.486784L311.147601,533.935780L312.007908,533.755455L312.721831,533.294632L313.153927,531.912224L316.936760,534.055998L318.882281,534.396619L320.588499,533.595167L321.409999,532.132601L321.315691,530.489843L320.420209,526.193253L319.349779,519.975295L323.829456,517.983136L330.288947,518.493672L335.206401,519.775070L336.548675,520.676100L337.383963,521.797435L338.171137,522.628464L339.375629,522.718577L339.761887,521.997680L340.127810,518.954165L340.657479,517.722868L342.809490,515.851035L343.022680,515.718399L345.528274,514.159520L348.436257,512.988550L351.204734,512.668296L354.082428,515.320545L357.417058,517.142282L357.751282,518.834035L357.565644,520.475867L357.964719,521.547132L359.508364,522.007692L360.583973,521.677289L361.569110,521.126629L362.942064,520.936404L367.289883,521.396951L368.701486,521.256783L373.933687,519.795092L376.380578,519.564835L379.821368,520.075408L382.157767,519.594868L384.961287,515.370591L388.432030,514.649945L392.880348,513.018574L396.516535,515.750941L399.067864,520.826275L400.174378,526.193253L400.814603,527.785591L401.577797,528.686969L402.491514,529.448163L403.478200,530.569975L404.122032,531.140921L405.746162,532.022412L406.432067,532.673538L406.720677,533.635239L406.558601,535.779196L406.753170,536.490559L409.456187,538.574697L411.701575,539.065704L417.287153,538.985538L416.521121,540.919611L420.223263,540.919611L423.424066,541.340523L426.503297,542.613332L429.924931,545.179243L436.078561,551.575432L439.897562,554.423313L443.100683,554.553684L444.167074,551.735865L443.360890,548.357026L443.572209,545.770653L449.770678,545.369695L453.004199,544.287151L454.564632,543.986454L456.749801,544.227011L461.972636,546.993624L489.360750,557.141224L491.944316,556.629706L492.759270,556.639736L493.297090,557.141224L494.758461,559.067062L495.463777,559.729114L501.747890,562.291578L502.426190,562.568170L505.782595,564.946082L513.588554,573.517085L516.904974,575.233767L520.688095,575.775910Z "/></g></svg>