<?xml version="1.0" encoding="utf-8"?><!DOCTYPE svg  PUBLIC '-//W3C//DTD SVG 1.1//EN'  'http://www.w3.org/Graphics/SVG/1.1/DTD/svg11.dtd'><svg enable_background="new 0 0 1000 2645" height="2645px" pretty_print="False" style="stroke-linejoin: round; stroke:#000; fill: none;" version="1.1" viewBox="0 0 1000 2645" width="1000px" xmlns="http://www.w3.org/2000/svg" xmlns:xlink="http://www.w3.org/1999/xlink"><defs><style type="text/css"><![CDATA[path { fill-rule: evenodd; }]]></style></defs><metadata><views><view h="2645.89260861" padding="0" w="1000"><proj flip="auto" id="robinson" lon0="50.5490271989"/><bbox h="7.61" w="2.88" x="725.13" y="-440.07"/></view></views></metadata><g class="" fill="black" id="country"><path d="M813.654371,2643.892609L814.371233,2642.942781L933.946641,2391.949296L966.015974,2264.433623L974.053826,1621.389487L931.441510,1106.571369L866.609030,767.000182L964.613772,740.487501L956.056195,631.427420L999.810956,565.089023L934.789633,558.824796L888.093215,421.011897L846.664504,333.312887L778.188659,395.955028L736.426601,480.146092L500.059166,282.103250L567.136077,255.032684L711.646135,275.929259L757.355956,262.156515L778.862387,200.179200L778.837289,199.941740L765.349741,176.195653L751.836516,152.212121L709.669802,99.495868L680.866953,23.271093L645.522689,0.474919L448.906243,86.435540L448.524793,86.673000L380.162650,55.328227L296.005428,16.859673L232.373304,3.324445L125.533516,0.237459L120.655044,0.237459L119.816863,0.000000L58.689424,33.244425L29.269790,101.158093L0.189044,377.087771L6.964042,472.547314L34.671273,542.835998L136.135085,700.035842L234.757355,915.889048L286.112486,1135.304319L286.137219,1135.541781L267.734669,1220.553329L249.320245,1305.564855L172.017896,1501.471191L172.042495,1501.708652L225.365119,1663.182771L470.278268,1923.203033L587.078340,2085.388726L685.403158,2273.932008L762.226511,2467.461214L813.654371,2643.892609Z "/></g></svg>