<?xml version="1.0" encoding="utf-8"?><!DOCTYPE svg  PUBLIC '-//W3C//DTD SVG 1.1//EN'  'http://www.w3.org/Graphics/SVG/1.1/DTD/svg11.dtd'><svg enable_background="new 0 0 1000 1354" height="1354px" pretty_print="False" style="stroke-linejoin: round; stroke:#000; fill: none;" version="1.1" viewBox="0 0 1000 1354" width="1000px" xmlns="http://www.w3.org/2000/svg" xmlns:xlink="http://www.w3.org/1999/xlink"><defs><style type="text/css"><![CDATA[path { fill-rule: evenodd; }]]></style></defs><metadata><views><view h="1354.4266224" padding="0" w="1000"><proj flip="auto" id="robinson" lon0="29.9167002235"/><bbox h="35.93" w="26.55" x="429.57" y="38.79"/></view></views></metadata><g class="" fill="#000" id="country"><path d="M381.413090,1352.426622L410.518596,1328.574356L510.321482,1258.681681L623.276080,1118.588220L646.184636,1060.221102L692.552007,970.359186L737.538803,925.736406L754.956667,894.796307L767.120589,846.290619L781.483862,805.242610L840.550965,744.410210L897.886207,697.815188L893.999772,678.893667L886.526111,664.841202L895.081153,652.822647L926.389926,628.847172L987.003430,606.905608L999.274833,560.187339L999.630567,507.059183L990.121996,477.351795L992.296785,443.145159L983.225872,424.038751L943.820417,419.231333L885.460877,392.728898L835.827381,381.573222L802.828088,366.164831L790.636147,354.392821L785.642074,322.528271L795.579227,287.828581L800.781543,277.843946L813.836135,240.678917L792.312968,218.305942L786.745264,207.396805L796.798491,189.646347L848.859870,71.494876L860.092066,54.977093L846.344858,52.141951L820.425713,39.815248L779.639067,0.000000L702.841382,22.003163L682.109168,21.510095L653.827125,40.431584L630.789343,63.729053L616.843892,65.393158L602.718447,62.188215L537.059106,15.223477L512.937163,16.764315L502.006729,148.721681L490.360480,221.942321L476.481882,254.608098L428.978690,286.164475L381.264479,304.038205L355.263401,302.805534L250.588541,312.666902L209.665605,312.790169L187.228393,302.004297L158.464538,227.242805L103.279796,193.960694L50.180051,178.429043L28.486242,182.743391L8.907950,221.880687L0.676631,257.011807L0.369433,281.048890L1.512297,307.119882L28.066678,339.415866L76.796180,405.363779L115.911161,467.367155L116.345540,521.111641L107.830203,611.096693L106.081292,662.868926L109.356834,733.809225L107.800531,865.890121L104.041864,959.819827L109.886292,1008.448801L168.823863,1124.936492L194.015527,1253.874249L206.297130,1348.297160L381.413090,1352.426622Z "/></g></svg>