<?xml version="1.0" encoding="utf-8"?><!DOCTYPE svg  PUBLIC '-//W3C//DTD SVG 1.1//EN'  'http://www.w3.org/Graphics/SVG/1.1/DTD/svg11.dtd'><svg enable_background="new 0 0 1000 1328" height="1328px" pretty_print="False" style="stroke-linejoin: round; stroke:#000; fill: none;" version="1.1" viewBox="0 0 1000 1328" width="1000px" xmlns="http://www.w3.org/2000/svg" xmlns:xlink="http://www.w3.org/1999/xlink"><defs><style type="text/css"><![CDATA[path { fill-rule: evenodd; }]]></style></defs><metadata><views><view h="1328.42900431" padding="0" w="1000"><proj flip="auto" id="robinson" lon0="29.9165104726"/><bbox h="36.22" w="27.29" x="429.16" y="38.62"/></view></views></metadata><g class="" fill="black" id="country"><path d="M394.171929,1326.429004L400.480023,1320.971480L402.213967,1314.054387L402.587992,1306.121940L404.706678,1297.427979L408.165082,1293.810783L417.461872,1288.924396L420.323787,1283.657253L421.589882,1273.630641L422.595198,1271.473016L431.458124,1265.380898L437.215934,1266.205873L443.055830,1269.569229L452.106843,1271.282637L456.888127,1269.442310L485.849970,1254.148556L505.522996,1233.524200L524.253781,1221.593805L529.800192,1216.580500L541.929446,1208.901895L548.875306,1199.129125L563.142073,1161.687996L568.847698,1152.549824L606.152510,1117.774002L622.762993,1095.245871L635.759009,1070.369741L637.225345,1066.487239L645.920374,1043.462910L655.825751,999.231637L662.462502,986.666657L691.279915,953.667723L712.562762,912.926736L726.365155,903.027058L750.435336,911.974844L752.401654,901.186732L750.825875,891.604352L747.848146,882.148892L745.663858,871.804998L746.379632,860.393617L746.408197,859.938078L750.335876,848.896132L773.110274,809.107051L777.292524,797.684350L777.607441,786.452027L776.448920,774.140895L779.467043,766.779599L794.691387,754.531926L796.061642,752.057008L798.153773,744.822632L799.574019,742.918849L808.608369,741.395822L809.671335,741.522741L809.939493,742.665011L820.312258,741.713119L820.914330,740.380471L821.894169,735.049878L822.750266,733.526852L837.213284,729.782745L840.954185,728.259719L845.311630,724.007936L852.468476,714.489021L878.038580,701.099081L892.427910,685.488061L893.296154,669.115530L877.039353,659.011181L873.284603,656.677482L883.393832,643.097167L893.726460,632.309065L905.771111,623.932423L920.652201,617.586481L927.328120,616.634590L932.655828,613.271241L936.184546,607.750272L937.910324,600.452440L952.170585,608.511785L967.231083,606.608003L980.385098,596.517957L988.729092,580.018511L988.484401,576.464784L986.183963,565.549766L985.948501,561.044149L993.745736,548.669565L998.595747,534.010444L999.623332,526.331857L999.138706,518.589811L996.940441,514.211113L989.966282,508.372848L988.078401,503.740313L988.560995,500.186587L991.217164,492.000325L991.164326,488.763896L985.895801,480.260338L972.697997,466.045436L970.094583,457.034203L973.772860,447.261458L990.758923,425.367972L992.410864,422.088245L996.096676,414.770256L983.435933,414.643338L958.037345,422.639219L945.363597,423.908406L938.242837,421.496950L925.918844,412.295341L919.277665,409.503128L912.577796,410.010803L907.148850,412.422260L901.475450,414.008744L894.264568,412.231881L892.832616,409.566588L891.412691,399.540006L890.046570,395.795903L887.709816,394.019041L880.569904,390.592235L845.574745,366.731512L841.184058,365.906540L833.591507,369.079509L827.093513,375.108149L816.211283,391.861422L813.593236,393.257528L813.525587,393.024155L811.312111,385.388567L806.653881,380.121439L803.560823,375.235067L806.087109,368.508375L796.253823,365.462325L788.096803,356.704932L774.716080,336.842151L773.633842,326.244438L779.973933,312.600675L791.955338,294.514759L792.287816,278.903758L794.135456,269.384855L798.575586,261.325518L830.074674,224.265259L833.675153,212.652200L821.191956,217.855866L801.663755,227.882442L790.197093,232.134218L779.664206,232.007300L773.696836,225.407528L775.925629,210.304204L780.416182,202.689083L793.475979,188.791488L798.750964,181.112908L801.158057,174.640056L805.745310,155.158040L826.768467,98.488859L834.128486,85.479699L852.289388,59.905593L834.475727,59.144081L816.506515,49.561724L787.269412,22.210759L784.196057,17.387851L781.459632,8.757385L778.907307,5.394041L777.052306,6.155553L759.939608,1.523023L757.317273,0.000000L748.581407,2.919128L743.243740,8.503548L740.973034,11.843873L738.455290,15.547531L731.423225,22.845352L723.599729,27.350963L713.372388,31.095063L702.987091,33.506517L694.241897,33.950732L687.530503,32.237330L670.678120,22.908811L664.379188,22.210759L662.414637,26.335615L662.090566,32.110412L660.936937,36.425645L636.181192,71.201351L626.878949,78.435714L614.771711,78.879929L602.374133,73.422427L591.120622,64.918879L582.278723,56.098033L565.639433,33.569977L559.070687,27.795179L552.897214,25.320265L547.687168,25.129887L543.116296,25.637562L538.918745,24.939510L529.438293,15.638969L528.502485,14.720944L524.816841,11.105379L520.494714,8.313170L514.945550,8.503548L513.350965,11.930350L513.364349,17.641688L509.596938,49.054049L513.127260,96.267783L501.021121,142.656552L498.234875,205.620989L497.931200,212.461821L494.905197,225.978661L489.638307,239.368583L482.919852,252.060453L475.597956,263.165839L464.395499,275.921168L454.140051,282.711319L443.166084,285.059315L429.694615,284.615100L417.627240,280.490242L411.407334,280.553701L407.324496,286.265043L405.421329,299.147292L403.019022,304.858634L397.721114,308.475818L385.575980,310.189220L375.365893,308.412358L352.887517,299.982824L347.105728,297.814645L343.241839,297.560808L327.048859,304.160581L322.990824,306.952793L318.660239,308.856573L313.059466,308.602736L301.165997,310.379598L290.962082,317.677424L280.618901,321.611905L268.081483,313.552566L248.496575,309.414373L238.047883,307.206630L228.315948,308.475818L204.825650,319.961961L191.478779,321.358067L186.787845,309.681545L186.208686,302.002963L181.273756,289.247633L180.100852,282.140185L182.003580,275.730791L189.598606,265.323457L190.833337,258.342928L187.590645,250.727807L175.927173,238.226316L175.805048,237.660057L174.010927,229.342007L174.770438,222.107642L174.401491,219.251971L167.835110,213.667549L157.969331,207.258155L146.535812,204.148648L123.672584,200.912222L111.603179,196.723905L78.813508,180.478315L69.999860,179.018750L38.434537,181.366746L26.026819,195.010503L16.200421,256.439148L23.250016,271.288636L12.198874,272.875120L5.251425,279.601811L1.522438,290.072604L0.376668,303.145231L4.632066,313.489107L14.493955,316.725534L25.829692,317.931262L33.919564,321.992661L36.287383,326.879032L41.133893,343.315006L49.087072,356.704932L51.275680,362.797031L52.030464,372.696693L55.474735,382.532895L63.723600,387.482726L73.607661,391.226829L81.705074,397.445847L84.784621,407.218591L86.801443,419.910465L91.354064,430.888938L101.732962,435.584932L111.749632,436.917579L120.958059,440.915520L128.406803,447.451836L133.339334,456.526528L136.764004,491.896260L137.154740,495.934808L134.625052,502.978800L127.665902,507.357498L123.508864,517.701379L121.544964,530.139420L122.674779,571.070734L126.314895,583.064562L135.478849,591.441204L132.870679,594.138289L120.259509,607.179138L117.828412,615.365401L116.535543,633.324417L125.018645,789.307702L123.489596,837.473428L119.895258,863.418779L113.708998,908.040357L117.531925,980.447626L122.508232,996.820176L130.626328,1010.019751L150.906733,1035.149714L183.662610,1099.180362L198.035465,1158.009018L200.902050,1169.747358L216.212489,1318.115799L343.058754,1316.275472L369.627247,1323.382944L391.721073,1325.350191L394.171929,1326.429004Z "/></g></svg>