<?xml version="1.0" encoding="utf-8"?><!DOCTYPE svg  PUBLIC '-//W3C//DTD SVG 1.1//EN'  'http://www.w3.org/Graphics/SVG/1.1/DTD/svg11.dtd'><svg enable_background="new 0 0 1000 2286" height="2286px" pretty_print="False" style="stroke-linejoin: round; stroke:#000; fill: none;" version="1.1" viewBox="0 0 1000 2286" width="1000px" xmlns="http://www.w3.org/2000/svg" xmlns:xlink="http://www.w3.org/1999/xlink"><defs><style type="text/css"><![CDATA[path { fill-rule: evenodd; }]]></style></defs><metadata><views><view h="2286.04027205" padding="0" w="1000"><proj flip="auto" id="robinson" lon0="2.27944810539"/><bbox h="103.41" w="45.26" x="11.25" y="-207.66"/></view></views></metadata><g class="" fill="#000" id="country"><path d="M281.500124,2284.040272L345.319639,2267.800444L498.336241,2242.825832L635.285677,2227.580650L635.766813,2205.933577L644.704011,2143.705034L650.567330,2119.236797L657.362830,2100.736425L650.254973,2078.546831L643.295596,2048.472432L639.849794,2001.272094L648.433733,1986.623717L651.339746,1968.810569L649.290995,1940.924408L649.119562,1847.645070L654.106525,1837.481642L660.021006,1829.741524L660.384183,1817.353719L649.195692,1793.265320L638.830878,1765.722813L639.120120,1726.154212L634.919084,1687.815367L627.820268,1670.363966L633.036269,1605.151827L635.895561,1522.488396L633.096465,1485.885768L639.739779,1459.934809L643.228828,1396.187735L642.547132,1333.778977L656.025195,1235.256138L696.181500,1230.499993L744.031751,1222.181263L765.306568,1183.499187L777.454148,1134.491093L773.467580,1085.971333L782.723131,1070.021131L801.817191,1043.744906L836.279208,1006.184224L834.781744,964.916348L844.293708,952.203248L860.651224,942.636779L884.080678,937.717915L910.236500,917.192516L924.740353,881.193237L938.864128,823.559646L916.179509,783.485636L916.600466,774.552175L925.062470,752.996139L938.832361,731.403944L949.780829,724.441639L975.261696,730.029567L979.580067,728.203092L983.470753,721.439710L999.781185,657.910974L998.172063,640.749364L974.333894,598.161822L970.365907,567.907496L966.734361,522.914820L960.829952,483.039885L953.921157,467.957936L941.174254,455.263058L935.494251,447.016812L886.109543,366.073379L886.884258,327.627036L907.345311,278.493086L920.766520,254.640411L899.958299,220.877735L873.246454,196.988863L844.006194,186.427844L824.176420,169.139594L813.788468,145.160273L775.371580,98.431291L686.888646,5.967735L677.807550,3.761482L663.201266,0.000000L638.289349,11.194023L623.000641,26.312275L612.321124,32.243836L596.075560,33.148037L554.150036,44.830315L520.607506,59.966633L519.745907,72.372259L535.959121,142.411511L528.390163,180.279304L520.021646,201.383259L495.400472,256.503054L477.123409,279.505785L395.803341,357.555870L355.863647,348.315004L272.098634,364.138404L259.528460,346.181106L239.992242,343.794033L215.730632,346.922545L206.940899,353.740170L204.281991,361.407737L195.623328,372.185731L180.220796,403.163416L168.221752,411.047987L153.328183,415.840214L135.125076,415.207278L124.423474,419.221898L124.342886,434.593192L121.115112,447.939090L108.762816,454.612039L103.565882,469.549317L104.563919,484.233420L97.325655,490.960620L81.563155,487.289594L72.186920,483.256891L63.400863,502.226872L52.543944,515.174923L44.695398,515.012169L36.366823,554.832855L19.175525,604.147586L7.998058,619.826310L0.218815,739.668292L5.629491,749.704865L9.605417,752.670628L63.715272,793.232876L134.699600,846.435848L184.853552,883.990224L189.032130,896.594794L189.840225,975.387027L190.540888,1043.039626L200.949447,1081.757730L203.212427,1119.282321L215.808588,1147.674445L262.134184,1202.397157L273.211725,1234.695528L274.497382,1338.046858L275.500497,1416.460200L281.465817,1523.229853L281.552682,1612.403645L281.659230,1725.123403L281.811490,1857.229798L281.932074,1994.960633L251.337604,1996.769074L268.041521,2039.520643L270.942061,2078.311734L274.904992,2090.970833L266.632478,2109.742471L273.509165,2138.333957L286.811081,2148.949519L320.779965,2206.458025L332.172398,2255.213673L277.664058,2271.435417L281.500124,2284.040272Z "/></g></svg>