<?xml version="1.0" encoding="utf-8"?><!DOCTYPE svg  PUBLIC '-//W3C//DTD SVG 1.1//EN'  'http://www.w3.org/Graphics/SVG/1.1/DTD/svg11.dtd'><svg enable_background="new 0 0 1000 2287" height="2287px" pretty_print="False" style="stroke-linejoin: round; stroke:#000; fill: none;" version="1.1" viewBox="0 0 1000 2287" width="1000px" xmlns="http://www.w3.org/2000/svg" xmlns:xlink="http://www.w3.org/1999/xlink"><defs><style type="text/css"><![CDATA[path { fill-rule: evenodd; }]]></style></defs><metadata><views><view h="2287.99424324" padding="0" w="1000"><proj flip="auto" id="robinson" lon0="2.28110061008"/><bbox h="103.72" w="45.35" x="11.2" y="-207.92"/></view></views></metadata><g class="" fill="black" id="country"><path d="M281.073297,2285.994243L367.351338,2263.483375L478.853828,2249.121489L504.962160,2242.534572L634.063461,2228.924617L634.240317,2228.910285L634.346044,2206.384958L636.819898,2189.846127L637.949828,2182.291507L639.046902,2178.666076L645.055370,2158.809229L645.717928,2150.988169L642.902050,2135.403348L642.992560,2127.830577L646.718396,2119.885375L652.601512,2113.955122L656.603437,2110.966123L658.415426,2106.792982L657.313924,2089.747088L656.668963,2085.994127L654.747756,2084.322961L650.707518,2083.893232L647.373235,2082.766389L644.609668,2080.522252L642.113303,2076.769291L640.453567,2069.483008L641.317516,2061.480511L644.762723,2045.981644L643.124907,2030.492328L638.695181,2016.320846L637.598921,2002.913328L646.028143,1989.620404L649.828574,1987.576809L654.000169,1986.182580L657.329391,1984.177182L658.602519,1980.185486L656.712527,1976.690364L648.151877,1968.764269L645.352524,1964.791672L644.100190,1959.978719L644.433020,1957.419450L645.842993,1954.955676L648.828115,1947.946336L651.413996,1944.126531L652.485810,1940.631411L652.814773,1935.512874L645.846908,1844.601589L646.648319,1840.514403L649.135959,1838.890988L652.534671,1838.929186L659.569971,1840.514403L660.611977,1839.769542L660.844317,1837.687751L661.613162,1834.383624L662.464097,1818.932536L655.242311,1805.391349L645.599047,1792.423135L639.050425,1778.671864L637.312228,1764.175735L638.050176,1752.068031L641.085051,1702.256859L640.168371,1696.947347L637.266850,1691.637834L629.446708,1681.801869L625.763354,1671.201946L623.132376,1666.675493L622.959494,1665.257235L622.757550,1663.600561L623.493216,1660.773916L626.812486,1653.726401L627.951053,1650.441382L629.158863,1627.140664L633.225212,1603.734910L633.895962,1581.637442L634.759512,1574.876421L637.271905,1568.621522L640.658835,1562.452569L643.203817,1555.662901L643.358613,1547.555408L641.125885,1539.686654L634.710508,1524.302477L632.174765,1516.147242L630.983202,1507.342645L631.375086,1500.266500L633.838262,1484.958731L633.832553,1481.530478L633.014093,1474.702622L633.075883,1471.427162L634.783165,1466.805229L641.259323,1458.544959L643.841210,1454.190412L646.375537,1441.709290L645.597735,1430.921934L639.101480,1340.840450L639.072422,1340.437562L639.166413,1336.512750L641.010567,1333.724319L646.485428,1330.888142L648.230147,1328.940060L648.627758,1325.664609L646.936767,1319.982705L646.527538,1316.707255L647.727630,1311.006253L651.776471,1300.482798L651.900799,1294.839095L650.652366,1292.260753L649.037628,1291.611394L647.657917,1290.799693L647.081022,1287.772530L647.886430,1287.008577L651.539335,1280.791911L652.577353,1278.547800L654.340589,1268.425428L655.003743,1245.000739L653.943795,1235.203055L679.022879,1237.523559L683.391185,1236.836002L686.512158,1234.219466L689.262123,1230.953572L692.719318,1228.432531L696.213506,1227.687678L706.195474,1227.324801L709.725632,1227.802271L713.292215,1229.712150L716.456511,1232.147247L719.720374,1233.923435L723.518468,1233.885237L745.722916,1227.382097L753.709687,1221.117693L758.660348,1209.562925L769.403390,1171.651851L776.060786,1157.289579L778.060773,1149.611878L778.042807,1125.614295L776.920554,1119.445401L772.762240,1107.833366L770.555793,1097.520049L771.810530,1087.283130L778.035540,1075.871642L780.383296,1073.904474L785.620632,1071.908658L788.034602,1069.521318L807.792718,1040.300291L808.157951,1038.390421L806.433719,1033.682591L806.024867,1031.190211L808.456673,1022.080133L813.693651,1020.265758L820.046584,1021.602666L825.792580,1021.984640L836.359973,1015.309647L838.621659,1005.626613L836.008186,994.387040L831.983454,983.004229L830.824038,975.737185L831.543229,967.371971L834.381001,959.980788L839.610911,955.597646L862.964526,944.787809L875.619049,940.996727L895.175190,943.393608L900.903886,937.348885L909.424190,919.759037L919.900742,905.616501L923.173098,898.273080L925.104701,866.709143L927.204632,860.731296L932.227805,855.297759L936.956363,852.748103L941.010843,849.339012L943.944184,841.231681L944.210551,839.161564L945.062288,832.541846L944.106163,826.764539L941.171778,822.114047L919.005644,796.464728L914.348850,788.032733L914.027958,781.119071L920.664581,764.398327L928.818390,750.208140L930.082138,745.815485L930.397717,738.538958L931.297729,736.189843L933.436894,732.723467L939.762737,725.647475L946.135350,723.327009L952.988404,724.692551L973.839913,736.934684L978.907267,736.056154L983.822720,729.132950L985.951557,722.295690L986.231397,703.216303L989.123166,693.361486L997.360451,674.912357L999.781372,665.000249L999.690925,653.649672L999.619523,644.698576L997.975772,633.946139L994.966711,626.803314L990.829957,624.129529L986.228435,623.155507L982.061949,621.732672L978.995171,617.636051L975.904404,605.508528L974.281426,601.545598L971.821733,598.375254L968.960729,595.682371L966.333562,592.607519L964.675783,588.195776L965.059433,581.797793L972.048956,562.336466L972.385152,551.450348L965.606859,518.534165L965.606568,518.438673L962.265179,512.126635L959.828464,505.346684L958.497306,497.965133L958.472911,489.962882L961.750864,475.610395L959.023972,472.669234L956.386540,472.510803L956.003582,472.487798L952.952090,473.108498L950.266248,472.602389L942.389308,464.227718L883.939360,372.144507L879.079236,362.098715L878.483858,353.599897L884.931919,333.718390L886.961077,328.093890L890.767999,311.440019L913.172935,268.392034L920.289610,259.988696L918.002561,257.868763L914.966013,252.005525L912.244524,250.343956L911.095502,247.517377L910.448116,244.251534L909.232044,241.424955L907.570591,235.580813L906.354310,232.677841L904.907683,231.169059L903.093109,229.946755L900.906767,227.788623L889.988376,210.389879L887.364340,207.601496L883.734320,204.774915L871.850178,200.038483L857.267763,189.954463L853.642682,188.636665L850.148796,186.344841L846.324042,185.504507L841.773368,188.560270L837.421446,190.832995L832.924743,189.534295L828.925906,186.516728L826.168060,183.632851L821.523461,177.616814L814.072806,163.617589L811.672708,156.894903L810.038850,148.510642L809.211050,140.622942L808.199483,138.636693L803.796936,134.912476L802.785463,132.945324L746.843124,75.936091L733.643547,54.240086L730.440342,47.364588L729.228409,45.435629L726.511032,44.480698L715.749006,43.124697L711.923967,41.539513L708.332204,39.457764L705.676113,36.363788L703.575563,28.055889L701.049669,23.510417L697.788162,19.557002L691.175453,15.584487L675.584270,0.000000L671.745475,5.615000L664.038710,5.920578L660.723056,6.665425L654.154150,6.398044L651.039388,7.085595L647.460489,9.721207L642.284035,16.673109L639.308372,19.385114L635.925989,20.320946L632.501171,17.742632L628.986231,19.270522L627.249064,21.447766L626.317381,24.102474L625.687921,27.005465L624.622673,29.870258L620.118308,37.891678L617.173781,39.801539L605.736989,36.382887L603.492706,36.860352L599.612892,40.088018L597.638171,41.176639L596.029008,40.985653L593.242884,39.152186L591.968694,38.884805L580.448075,42.398950L578.975956,43.468472L576.034116,46.638841L574.193699,47.880251L571.747533,48.071237L570.738190,46.409658L570.230731,44.385205L569.323865,43.544867L565.502819,43.392078L562.451776,42.876416L560.175198,43.926839L558.677547,48.491406L556.843065,52.349325L555.199397,51.738169L553.351147,49.599126L550.936601,48.968871L549.263962,50.343971L546.592114,54.488368L545.823409,55.443298L541.668460,55.901665L534.227138,55.557890L529.770909,56.188144L521.937030,60.237047L519.102129,66.654175L519.388563,75.057555L522.617599,95.645827L533.621018,130.290625L535.439281,133.957547L537.758965,136.956021L541.118095,140.030887L544.574941,141.787954L547.660981,142.609191L549.776864,144.347159L550.457569,148.949909L550.270470,155.290626L547.891431,155.863582L544.502297,154.469388L541.251093,154.813162L539.010688,157.467859L536.474361,162.815450L534.301158,165.584738L531.486880,166.482369L528.434949,166.004906L525.687500,166.807044L523.853686,171.562579L524.298165,175.611468L528.100432,182.009476L528.745544,185.790984L517.119020,221.524312L512.578609,231.130862L500.136279,246.772536L496.669811,257.238513L496.481552,263.693804L496.757949,267.742685L495.591222,271.256807L491.107096,276.146021L473.756288,287.051257L450.085765,308.785330L407.480226,357.624996L405.968133,359.358085L397.087055,364.123152L385.613238,363.120483L371.883973,357.161762L363.457381,352.721368L359.498235,352.072020L356.382411,354.402033L350.744109,352.492187L344.540830,353.924571L331.803089,359.682759L325.665299,360.179320L311.306804,359.033411L306.244288,360.828667L300.043454,364.180448L285.054111,367.742312L279.523802,371.046346L273.187126,373.481400L266.358392,359.300790L260.723529,359.682759L261.290513,357.238156L262.021525,352.043372L262.689111,349.598768L232.161475,346.839040L225.887166,345.387556L220.583295,342.035775L218.711439,347.345149L215.393187,349.388685L215.264257,349.436028L211.336280,350.878366L207.114051,354.402033L204.435796,358.804230L204.036942,361.907730L207.132374,369.785847L201.803088,373.481400L194.460879,377.100559L187.991974,381.827428L185.182004,388.827014L187.067754,395.158154L190.226921,400.219246L190.869711,404.965213L185.206179,410.379625L182.955049,407.333421L180.639089,406.302105L178.358961,407.333421L176.148124,410.379625L174.097333,406.397597L170.301172,401.556138L166.675850,399.522152L165.070320,403.962544L165.777959,406.894157L168.968838,410.436921L169.710813,414.065628L169.210673,416.939945L165.093271,425.515152L154.317870,419.756968L149.048924,418.066754L142.909107,417.722982L140.091717,418.448723L138.415414,419.604180L136.705334,420.540004L133.853602,420.492258L134.287881,418.601511L131.834679,414.390301L128.711941,411.601927L125.329124,417.398308L121.977656,420.998367L120.371677,425.629743L126.454937,436.840536L127.741961,449.435966L129.425678,455.805300L126.069194,454.487507L119.590378,451.021138L116.134500,450.982941L114.693519,452.873688L112.485267,459.605892L110.607680,461.095572L99.906758,463.807552L98.229833,464.628785L98.570270,470.205533L99.777750,469.699424L101.822671,467.627243L104.876730,468.419828L105.247170,469.928606L104.680867,474.521784L104.883710,476.221546L105.823873,476.947287L108.912281,478.532459L109.516239,478.513360L110.191303,482.906004L110.262198,487.088565L110.802718,491.108789L112.853160,495.033521L116.548197,499.302024L116.184510,505.232094L115.112227,506.903208L112.727448,504.410860L110.408743,500.734408L109.534652,498.920055L106.245028,497.640459L96.244320,496.408609L94.969540,496.800127L91.447897,498.805465L89.401082,498.920055L88.829910,498.070174L87.115515,494.460567L86.175283,493.658432L84.429725,492.856297L82.784068,491.127887L80.601534,489.389928L73.486814,488.119881L71.976352,487.518280L70.534009,488.167627L68.389107,491.452561L66.479987,495.912049L63.732097,500.600719L62.591860,501.460149L62.225652,505.193896L62.396662,509.338260L63.540219,512.699588L66.125199,514.074677L68.005976,516.060915L68.311422,520.396264L67.509438,524.712514L66.135105,526.689204L60.329476,526.631909L55.966391,525.963463L46.062196,519.813761L37.756081,542.569567L36.821600,549.912922L37.596302,553.894950L40.320059,561.400642L40.792768,565.401768L35.732592,576.297438L35.097656,580.250818L34.600068,588.692336L33.595786,592.492929L29.404926,599.291980L11.762058,618.218554L7.104041,630.575260L9.709364,663.873439L9.483277,678.321435L4.728611,698.909595L0.218628,736.972881L0.492182,745.471712L3.114391,751.038925L27.704312,769.488079L58.612569,792.645024L77.336908,806.675751L105.014579,827.413889L151.591748,862.297378L185.907471,888.007571L190.084661,900.584013L190.125536,903.424501L190.517151,930.645262L191.160968,971.029364L191.591689,999.734670L194.161524,1016.990332L193.695471,1021.488074L192.926244,1025.164572L193.034102,1032.584416L192.634511,1036.356409L190.623047,1041.045141L184.853406,1051.052862L183.513879,1055.856188L184.562431,1063.381081L187.863649,1072.414774L192.673752,1077.943854L198.248637,1074.878508L201.988380,1085.363708L204.241862,1122.816329L208.960587,1137.551013L215.136040,1148.250313L216.803832,1151.139778L242.812801,1181.831496L263.036671,1205.752717L269.739126,1218.997727L272.336623,1227.897765L274.095136,1237.981930L274.681668,1284.229699L275.194295,1324.575975L275.633034,1358.848852L276.233221,1408.326989L276.367013,1419.363601L276.842147,1423.718145L278.493939,1427.853052L286.912510,1439.875797L288.294865,1443.485486L287.090993,1450.017305L276.417641,1469.956547L275.916332,1473.088766L275.922687,1479.505995L274.317406,1488.520675L275.254416,1490.057641L275.260539,1490.067686L277.178111,1490.793445L278.829314,1494.202598L282.324591,1525.906786L281.794379,1568.258642L281.043938,1627.140664L281.301208,1685.640760L281.638455,1758.904416L281.670806,1765.406160L281.828937,1797.218421L282.009181,1833.543268L282.260343,1888.720290L282.509406,1942.369422L282.791956,1996.648846L276.869682,1998.635146L252.264825,1998.444155L258.614119,2024.705322L262.288111,2030.836111L262.809873,2031.277083L267.643897,2035.362582L270.575706,2039.354279L271.253184,2044.491919L268.808649,2060.009886L269.015795,2066.322118L270.434849,2072.691646L272.932127,2080.254866L274.858282,2089.174117L273.550080,2094.894279L270.994142,2098.774760L266.153019,2106.124515L263.466466,2114.413499L265.557033,2118.567541L269.768327,2122.435097L273.342881,2129.835977L273.412540,2132.710383L272.842716,2135.804428L272.643470,2139.213608L273.690186,2142.995218L275.645312,2146.031967L278.206367,2148.954121L280.935413,2151.427447L283.495523,2153.146361L286.559569,2153.547441L289.757670,2153.203659L292.115154,2154.139512L292.556354,2158.369950L293.400182,2160.938772L298.824916,2165.990470L300.881313,2169.141813L301.288462,2172.856578L300.487086,2180.782682L301.196839,2184.010422L303.353324,2186.006272L310.359933,2190.083919L313.156497,2192.452202L321.553355,2207.702793L327.907487,2235.453713L334.059368,2262.574367L327.291528,2263.032745L285.445118,2274.243889L278.713604,2278.283339L281.073297,2285.994243Z "/></g></svg>