<?xml version="1.0" encoding="utf-8"?><!DOCTYPE svg  PUBLIC '-//W3C//DTD SVG 1.1//EN'  'http://www.w3.org/Graphics/SVG/1.1/DTD/svg11.dtd'><svg enable_background="new 0 0 1000 645" height="645px" pretty_print="False" style="stroke-linejoin: round; stroke:#000; fill: none;" version="1.1" viewBox="0 0 1000 645" width="1000px" xmlns="http://www.w3.org/2000/svg" xmlns:xlink="http://www.w3.org/1999/xlink"><defs><style type="text/css"><![CDATA[path { fill-rule: evenodd; }]]></style></defs><metadata><views><view h="645.821858681" padding="0" w="1000"><proj flip="auto" id="robinson" lon0="-64.7291738699"/><bbox h="2.35" w="3.65" x="-915.56" y="-542.95"/></view></views></metadata><g class="" fill="black" id="country"><path d="M293.497227,452.144340L278.967084,457.468997L256.598048,464.568515L225.400159,455.694114L211.666725,464.568515L217.246604,489.416600L252.491981,492.966297L289.488280,487.641748L321.388218,492.966297L333.972992,482.317183L306.819793,468.118263L293.497227,452.144340Z M170.321369,643.821859L273.531278,606.552849L384.029757,555.084845L472.562218,485.866895L516.990732,437.575983L578.793615,404.034985L683.531128,334.997734L765.218546,285.296752L851.940331,248.020058L790.958013,223.168469L754.829186,208.967396L750.563984,169.913821L826.173492,113.106977L844.167826,143.285856L865.283598,123.331964L914.447424,136.184993L936.491905,161.037880L951.656689,175.239362L961.214969,134.409773L999.224592,93.579172L907.759237,0.000000L812.313727,69.334047L742.675889,111.331731L697.620198,165.564084L634.240536,205.417109L604.154416,254.593670L608.586609,274.646352L626.038077,279.190969L638.600598,251.570255L675.091031,228.427358L723.033006,210.742537L747.022760,240.919642L708.121475,271.096204L684.896215,297.722134L616.807284,301.272226L601.385885,295.947085L549.669943,343.659544L506.207504,355.958417L428.652008,390.432060L313.803676,371.439660L298.457829,387.838905L322.110543,436.170271L360.543366,453.919228L421.851741,446.819667L411.325961,463.103973L315.339802,516.039156L243.234908,555.084845L206.587270,558.634410L185.309650,590.580180L126.837421,613.651768L84.896597,613.651768L66.433754,578.156893L76.864877,547.982367L131.248716,553.310060L134.049934,539.111713L65.404851,530.237688L49.086862,514.264332L60.808422,498.631340L81.876150,446.819667L122.283288,416.646209L103.231099,391.797083L90.522344,365.172622L71.780977,391.797083L45.431386,381.147348L56.863100,425.835642L34.922709,469.832801L33.634923,502.629278L0.775408,485.866895L2.944383,535.562109L15.798752,599.453903L67.664503,640.272463L112.252221,642.047161L170.321369,643.821859Z "/></g></svg>