<?xml version="1.0" encoding="utf-8"?><!DOCTYPE svg  PUBLIC '-//W3C//DTD SVG 1.1//EN'  'http://www.w3.org/Graphics/SVG/1.1/DTD/svg11.dtd'><svg enable_background="new 0 0 1000 857" height="857px" pretty_print="False" style="stroke-linejoin: round; stroke:#000; fill: none;" version="1.1" viewBox="0 0 1000 857" width="1000px" xmlns="http://www.w3.org/2000/svg" xmlns:xlink="http://www.w3.org/1999/xlink"><defs><style type="text/css"><![CDATA[path { fill-rule: evenodd; }]]></style></defs><metadata><views><view h="857.973814574" padding="0" w="1000"><proj flip="auto" id="robinson" lon0="114.469101113"/><bbox h="17.45" w="20.36" x="1686.57" y="-84.8"/></view></views></metadata><g class="" fill="#000" id="country"><path d="M812.835338,122.035723L806.090785,123.006466L801.522147,126.219961L800.234546,132.546528L805.151850,146.270828L811.976527,159.158280L811.968119,168.765289L796.439096,172.514366L780.667102,182.255270L767.189720,200.431596L754.363757,210.072078L740.332462,194.607138L740.319133,194.592809L738.358340,259.809599L744.455450,326.723226L752.258071,358.628352L778.956805,422.693666L788.937652,455.108925L801.367714,536.178940L807.676987,547.848430L817.612085,555.139202L859.739613,572.505273L875.062296,576.203799L896.631957,573.738115L902.820874,576.203799L914.638617,586.980539L922.380828,590.615298L936.306334,589.977621L942.804780,592.655863L956.383595,602.582367L973.564984,610.893423L989.500948,611.573611L999.416552,598.586258L996.842410,581.539029L985.538256,563.939146L958.790156,536.774105L940.903524,511.543350L929.886815,479.213121L924.228521,444.502228L923.096706,412.129479L927.426465,379.607937L927.883026,365.366476L923.813960,345.853549L869.004527,190.515294L849.363545,161.203373L839.639340,153.997614L829.712635,148.811167L822.665516,141.137777L821.293681,122.303513L821.057448,122.303513L812.835338,122.035723Z M478.672617,855.973815L511.917824,833.442580L575.557695,761.257597L580.581529,749.205509L583.137471,715.238600L587.531388,699.232915L602.867207,671.196394L607.445155,656.083454L604.327826,641.735726L582.136657,652.172371L580.931481,635.295191L584.867725,627.706836L589.221614,622.703529L605.841231,603.602650L613.011743,589.595014L617.790480,575.821193L623.052731,544.660044L623.629021,521.108506L618.043879,517.091140L607.407244,519.089195L592.885070,513.222566L578.855653,490.287448L573.119642,460.189086L565.126518,364.048609L561.796242,345.811037L556.796414,328.806305L541.337941,298.452858L535.215227,283.191110L535.021508,269.608578L535.866152,268.678018L541.793304,262.147750L567.820420,249.500478L579.703807,240.721782L601.898541,215.427236L614.578126,206.095886L630.612257,201.036976L643.927313,201.844701L657.400973,204.395412L670.135951,204.055317L681.300479,195.999322L685.422143,183.437071L685.360007,169.684487L687.075127,157.037211L702.712265,138.304039L709.342320,125.215743L730.752828,101.549692L735.105268,90.268986L736.751416,80.427656L747.199649,47.723645L752.679316,36.653967L774.792519,25.172405L784.948381,16.736972L783.357824,6.025310L769.360212,0.000000L751.296976,2.544020L659.563689,46.595727L541.569011,130.337250L515.245001,149.015688L431.329564,228.047558L406.538565,258.174060L396.502878,281.973994L382.065737,298.945254L357.271903,309.255210L286.997974,338.477909L238.343877,370.445463L184.486806,382.127846L0.583448,375.165279L49.230118,400.757568L89.308110,407.665739L105.028855,416.699500L129.698629,437.615314L147.908865,445.352463L156.751140,451.665468L163.076081,468.521401L167.691177,471.008342L178.884570,471.348436L184.241070,473.644074L186.142595,479.128098L187.114340,485.611149L189.760744,490.988892L197.849428,500.554048L202.537392,509.587807L209.211639,532.629205L210.250585,555.564321L220.916583,572.462761L227.519276,609.192951L225.472591,617.100144L215.791829,627.111670L213.681483,631.936759L215.505611,644.243922L219.216684,651.768508L244.063280,653.745306L276.115101,660.844775L305.557138,654.808101L319.026590,655.700848L328.662768,666.562610L346.043406,718.575774L353.878452,734.666482L364.923882,750.438351L412.623761,798.179070L428.537166,810.443715L434.586119,816.714201L438.477465,825.152786L444.759611,845.558433L448.640944,852.062732L478.672617,855.973815Z "/></g></svg>