<?xml version="1.0" encoding="utf-8"?><!DOCTYPE svg  PUBLIC '-//W3C//DTD SVG 1.1//EN'  'http://www.w3.org/Graphics/SVG/1.1/DTD/svg11.dtd'><svg enable_background="new 0 0 1000 1189" height="1189px" pretty_print="False" style="stroke-linejoin: round; stroke:#000; fill: none;" version="1.1" viewBox="0 0 1000 1189" width="1000px" xmlns="http://www.w3.org/2000/svg" xmlns:xlink="http://www.w3.org/1999/xlink"><defs><style type="text/css"><![CDATA[path { fill-rule: evenodd; }]]></style></defs><metadata><views><view h="1189.55357796" padding="0" w="1000"><proj flip="auto" id="robinson" lon0="-64.2752195343"/><bbox h="221.62" w="186.47" x="-1025.03" y="162.32"/></view></views></metadata><g class="" fill="black" id="country"><path d="M248.571080,1187.553578L253.926895,1187.126424L256.718277,1186.522837L280.632233,1180.812035L283.828620,1173.671348L285.796081,1170.737117L291.119790,1165.750835L291.830912,1164.385887L291.796590,1162.426685L290.250645,1154.070012L291.567264,1154.005016L293.302762,1154.181433L294.466221,1153.884310L295.390555,1153.150788L296.009731,1151.925161L297.388952,1150.114581L299.334097,1148.944672L307.730892,1146.010630L308.544473,1145.360686L308.494163,1144.432197L307.749400,1141.832439L307.863359,1141.089654L308.720932,1139.752643L309.067811,1137.719281L309.283206,1131.043602L309.624444,1128.945285L310.444547,1127.162652L312.059143,1125.491438L313.057096,1124.980791L313.908620,1125.064351L314.799529,1125.370740L316.341908,1125.574999L317.666695,1126.039224L318.048315,1125.927810L318.224833,1125.352171L318.362596,1124.674403L318.614901,1124.247317L327.378761,1121.582677L337.362458,1118.360989L339.082030,1116.791931L339.309478,1115.947056L339.698662,1115.074328L340.224760,1114.340867L340.844935,1113.895221L341.809955,1113.755956L342.161222,1113.969495L342.323254,1113.867368L342.684493,1112.781105L342.885329,1111.462738L342.767088,1103.079103L344.945533,1088.298909L346.258759,1087.806860L353.071290,1090.099997L356.626353,1091.938226L359.313260,1094.732713L360.679180,1099.096219L361.134159,1099.578992L368.423982,1100.934471L370.223820,1101.965008L381.479616,1114.656534L383.929066,1116.383420L386.396363,1117.191158L397.077556,1115.844928L397.624152,1115.538545L397.927483,1115.130034L398.273613,1114.786514L398.936346,1114.712240L404.415676,1115.557113L408.593323,1116.058468L429.294705,1115.791976L442.490713,1115.622104L457.458336,1119.298712L463.243272,1122.613251L466.386564,1123.411714L467.086796,1123.272447L468.450772,1122.594682L469.044549,1122.473984L469.720274,1122.706095L471.399091,1122.975344L473.000567,1124.163756L474.838406,1125.110774L476.437095,1125.500723L477.217996,1126.057793L479.565871,1128.787448L480.324448,1129.855174L481.215605,1131.693525L481.402180,1133.132643L480.993219,1134.376787L480.122615,1135.676643L479.564377,1137.774990L480.745731,1139.344113L482.499845,1140.569705L483.636478,1141.563179L483.834478,1142.538086L483.408442,1144.274354L483.481600,1145.184273L483.982405,1145.843501L485.475276,1146.827703L485.823330,1147.366229L486.493177,1149.418206L487.780021,1151.070937L492.556340,1155.667051L492.572745,1156.994827L492.091957,1157.914059L491.530615,1158.712586L491.330428,1159.687533L491.343206,1160.588201L491.155595,1162.343117L491.181022,1163.364501L491.515888,1164.701589L492.072972,1165.221569L492.800500,1165.509415L493.638751,1166.150107L496.196610,1170.941398L497.122787,1171.674954L498.898568,1172.501367L500.134448,1174.497766L500.653212,1176.939888L500.281476,1179.084885L501.364338,1180.338461L502.099610,1184.535652L503.620328,1185.278524L503.372559,1184.136360L504.471605,1177.227744L504.979543,1175.482041L504.356150,1169.010017L506.313800,1155.518489L507.217895,1153.364345L510.806904,1149.278931L512.381826,1146.335602L516.506054,1130.115142L517.011370,1129.455937L518.477692,1128.536765L518.980610,1127.534033L520.740255,1120.904914L521.431295,1115.863496L521.962975,1114.396573L522.339935,1114.071622L522.860197,1113.895221L523.422753,1113.579554L523.955037,1112.920369L524.152633,1112.205480L524.259532,1110.460038L524.801458,1108.445359L524.788909,1107.916159L525.021206,1107.628348L526.089546,1107.108433L528.127587,1106.690644L535.426630,1107.219843L537.063919,1107.981148L540.572793,1111.054230L541.499318,1111.490591L544.768477,1108.027569L545.942467,1107.275549L548.874188,1106.718497L573.320136,1106.867044L597.765939,1107.015591L597.805175,1107.006307L609.229733,1106.337845L612.673250,1107.024875L613.805410,1107.312685L614.120853,1108.157548L614.946245,1111.546296L615.029539,1112.437587L614.889576,1113.180330L615.518821,1114.275877L615.809664,1117.116883L616.543615,1118.704511L617.761633,1119.948619L621.627913,1121.879779L625.199031,1124.442291L626.222227,1125.500723L626.630834,1126.308475L626.818747,1127.116229L627.102584,1127.756862L627.797453,1128.007545L629.129949,1123.523127L630.479625,1115.018623L631.762014,1107.015591L633.967720,1094.825553L635.817240,1084.650325L638.191854,1071.634380L639.942722,1062.109261L641.786778,1051.655847L643.567558,1041.629539L645.219727,1032.327387L646.858249,1023.099521L646.603703,1017.204457L646.598844,1017.158146L645.228659,1004.077478L644.327828,995.443721L643.504742,987.543337L642.657884,979.373684L643.095860,976.978480L645.500103,972.299464L646.953190,969.630192L648.345700,967.072681L651.323938,961.613772L654.306475,956.145545L657.286931,950.686564L660.267583,945.218260L661.367393,943.073633L662.463324,940.928999L663.564279,938.793642L664.668553,936.648994L665.458718,934.327938L665.868027,933.143919L666.257917,932.016157L667.048333,929.695083L667.846927,927.373999L667.850955,927.373999L669.438284,920.773609L671.025797,914.163015L672.615032,907.561629L674.206028,900.969454L675.274370,896.549871L675.801889,895.482110L676.995909,894.915732L683.834824,893.764404L685.486490,893.485856L689.111350,892.873051L692.742347,892.260246L694.390081,891.981697L720.232764,885.742186L746.077256,879.493327L771.931304,873.253693L797.794096,867.014000L809.304234,864.237689L815.701198,864.144836L830.393334,863.940558L845.076705,863.726995L859.765038,863.522718L874.448644,863.309155L880.777265,863.216301L882.367233,863.643427L884.863702,865.454068L887.244718,867.190421L891.411314,869.846011L899.112995,874.767181L906.821699,879.688315L914.524505,884.600125L922.230263,889.511898L929.927663,894.432917L937.627178,899.344611L945.322329,904.265551L953.023590,909.177165L956.256331,911.247644L957.191986,912.287523L957.555997,913.568800L957.573684,916.539866L957.978338,919.418072L959.750305,924.561668L960.250306,927.373999L960.216568,929.370132L960.647240,933.158122L960.683772,935.033540L959.941068,939.787048L960.198980,942.126653L963.396122,940.808305L964.341412,940.232688L964.706703,939.703491L965.511800,938.153034L966.004244,937.837372L967.959268,936.964657L970.058768,933.130269L971.953651,932.257548L972.827168,932.062579L973.553556,931.561227L974.029590,930.864905L974.164114,930.085024L974.686644,929.648661L975.945771,929.815779L977.962635,930.363553L979.625761,929.462975L980.638446,928.116747L981.399748,926.659945L982.082775,925.508679L973.560565,917.691151L966.733830,911.433337L960.317417,905.556130L959.500131,903.030677L961.677779,896.698429L962.447013,894.479342L964.131584,889.576893L965.813558,884.683691L966.582711,882.455275L966.586743,882.455275L966.585950,882.445990L966.585156,882.436705L968.542491,876.884202L972.840973,864.664815L977.152053,852.445207L979.106374,846.892458L980.557927,842.778938L981.813488,841.831804L986.160277,841.460379L985.367075,837.560400L984.466427,832.239682L983.984466,830.447529L983.105815,829.695381L979.949552,829.407522L980.571226,826.343205L983.171472,813.528663L985.768837,800.713921L988.371679,787.898989L990.983553,775.074592L991.887554,770.617122L992.807714,769.577043L994.196052,769.214872L999.579321,769.131294L999.506692,767.171856L998.739748,766.298929L997.456604,766.076054L995.856434,766.076054L992.574548,764.107323L989.432460,758.637575L984.512236,747.707280L976.081788,733.777271L978.509961,733.507956L978.531573,731.892064L977.217164,729.709678L975.652353,727.778031L975.285703,726.802919L975.719782,723.942588L974.427342,723.366806L973.220625,722.503133L972.142846,721.435150L971.233183,720.246437L970.478853,718.630528L970.181111,716.958897L969.932772,713.504185L969.655931,712.036858L969.585325,709.919448L969.210567,707.690592L968.267444,705.684618L967.095493,704.449457L965.284776,703.669355L963.907483,703.446468L962.142430,703.780798L959.955927,704.505179L956.972619,704.282292L953.937032,703.465042L951.604433,702.387757L947.947297,699.295203L946.957974,698.719411L944.079717,697.400662L943.169590,696.704139L940.818615,694.103783L939.751726,693.370111L938.872135,693.100788L937.972202,692.980057L936.862253,692.664299L935.555022,691.661303L934.048008,688.689459L933.055931,687.379989L932.367349,686.971359L931.077191,686.729897L930.403615,686.507008L929.587152,685.968360L928.082635,684.677461L927.266916,684.148100L926.460818,683.888063L923.963719,683.535155L920.886310,681.761328L919.261842,679.086653L918.542389,675.687582L917.781984,667.644948L917.255607,665.676076L916.295081,664.097263L915.779362,662.713479L914.831903,656.435359L914.175832,654.810103L912.614588,652.088958L911.481558,647.621817L911.369061,646.563075L911.504400,645.717939L912.078185,644.120538L912.198180,643.489007L911.662340,639.997011L909.526895,633.217325L908.936824,629.325965L909.291378,626.261167L910.393013,623.521422L917.447759,613.676897L918.247329,610.407767L916.352108,607.129348L916.332642,605.569080L918.041750,603.878789L918.282014,602.634289L917.215610,593.885632L916.355863,593.086922L912.960284,592.994049L912.414195,593.430553L911.494519,595.650224L910.980695,596.504658L909.432967,597.405528L907.689297,597.656286L902.006196,597.433390L887.021288,596.839001L872.047537,596.235326L857.061344,595.631649L842.079645,595.037261L827.096940,594.433584L812.112654,593.839196L797.128089,593.244807L782.146565,592.641130L776.684212,592.427522L774.205724,591.684536L772.402523,587.839581L771.041486,577.660663L769.756323,568.020407L767.686508,554.683796L764.902080,536.564237L762.860713,523.199821L762.034894,521.008024L760.781599,519.011261L752.868725,509.445387L743.547620,498.179983L737.572038,490.945259L733.131889,486.914626L748.274706,486.701022L757.248926,486.580289L757.578047,485.521552L756.912918,479.698512L756.072570,472.334181L755.229866,464.969532L754.394961,457.604909L753.565810,450.240310L752.956988,444.788851L751.850800,442.820013L747.818777,439.876047L746.319646,436.950659L748.675584,436.031252L747.994451,432.288619L744.969306,425.908512L743.431138,420.262084L742.656507,418.794758L738.109210,414.829267L737.209201,413.185493L736.941610,410.733766L737.061205,408.291328L736.876816,406.006768L735.696631,403.991527L735.360111,402.793528L735.324815,400.750430L735.513403,398.707333L735.844821,397.490763L736.355174,397.035710L738.216172,396.441355L739.526506,395.085484L740.186301,393.144546L740.921568,388.928351L741.481710,387.219586L741.506584,386.671668L741.259827,385.919440L740.760859,385.566544L739.973398,385.185787L739.450829,384.628581L739.775240,383.718480L739.590010,383.189135L737.769181,381.591815L737.081430,380.839589L736.147109,378.898661L735.326394,376.576979L734.707788,374.106711L734.381928,371.692165L733.693256,370.011271L732.218916,369.101174L726.177454,367.503862L725.438399,367.113820L725.062154,366.705206L724.575530,365.627949L724.254223,365.219335L723.728999,364.959307L721.891441,364.532120L719.061300,362.906950L713.001480,357.879152L706.649357,352.608035L701.075674,350.026346L700.450596,349.571301L698.893909,348.001858L696.292397,347.398226L692.449880,347.110341L688.931097,346.413843L687.300639,344.612236L687.068277,340.962592L686.541137,340.061790L685.540764,340.293956L684.632062,340.944019L684.353429,341.296911L681.026253,341.854108L679.911003,342.708477L679.574388,344.510083L678.836669,345.030135L673.631795,344.816542L671.873421,345.438746L671.033312,345.438746L670.105160,345.048708L668.363407,343.897166L665.499605,343.330681L664.264357,342.782770L663.049487,342.680618L657.914113,345.773065L654.597144,347.175347L651.105900,347.574673L647.316666,346.664582L646.494266,346.181677L644.207610,343.934312L643.809849,343.857456L643.486680,343.795013L637.935803,344.370784L636.014712,344.862975L634.266244,345.633766L632.807235,346.664582L631.248817,345.968085L629.700537,346.246684L628.162305,346.868888L626.635157,347.221780L624.852560,346.896748L623.880076,346.014518L621.869014,340.006071L621.530676,339.300288L620.892584,338.678085L619.293267,337.786570L618.437180,337.127220L614.349313,332.957535L612.945290,331.936009L611.121757,331.035209L610.669673,330.710179L609.321387,328.583550L609.215740,328.202800L608.080886,327.571312L604.333508,323.290199L602.553431,321.915786L601.674078,320.689959L601.336460,319.148389L600.952969,313.126057L600.699847,311.816654L600.235841,311.686642L599.564295,311.881660L598.699645,311.528771L596.777249,309.169989L595.967275,308.909966L595.978406,310.971579L593.751898,309.346434L592.904119,309.132843L592.111587,309.216422L589.210177,310.070784L588.113668,310.757988L586.819429,311.083017L585.182482,310.358667L584.366335,311.231602L583.316278,311.361613L579.598929,310.888000L578.964488,310.637263L577.565819,309.690036L577.280303,309.615743L576.194155,309.690036L575.918495,309.513591L575.764193,308.612797L575.562339,308.185616L573.213450,305.325364L572.085353,304.471003L570.446114,304.164548L565.579542,304.322419L558.513661,301.016416L558.210729,300.598522L557.894183,298.462623L557.541995,297.645410L556.981027,296.939635L556.181658,296.196714L554.607786,295.175198L553.644067,295.323782L552.886598,296.038844L551.917491,296.753905L550.414685,297.004641L549.106776,296.986068L548.290750,297.478253L548.259682,299.261264L546.677979,298.379045L545.227753,297.320382L544.143993,296.066703L543.666367,294.608721L543.491595,293.828655L543.088742,293.373616L542.486306,293.178599L541.688980,293.122880L540.803299,292.955723L540.385902,292.528544L540.125616,291.943495L535.613273,285.944419L535.300487,285.099349L534.859567,284.486440L534.157830,284.792894L533.522232,285.312938L532.854925,285.517240L532.112823,285.433662L531.241220,285.099349L530.189709,284.291424L529.228277,282.963457L528.499421,281.245458L528.145639,279.267438L527.718628,278.348077L526.789282,277.270847L524.933616,275.562136L524.656131,275.153532L524.539354,274.642776L524.593619,274.132020L525.132143,273.082650L524.816470,272.581181L524.275039,272.116858L523.905992,271.541097L523.164644,268.327983L522.280329,267.111458L519.861449,266.442833L518.246907,265.607052L517.318770,265.412037L517.109000,265.579193L514.998617,266.637848L514.663275,267.083598L514.374647,268.095822L514.035398,268.476566L513.655995,268.532285L512.722526,268.383702L512.369820,268.476566L510.809116,269.795243L510.119116,270.566019L509.850500,271.234644L508.969958,271.485378L503.410790,271.541097L502.398026,271.095347L499.986708,269.089472L499.044331,268.662295L497.263726,268.179400L494.106955,265.699917L493.773435,265.105584L493.480215,264.102648L492.890391,263.712617L492.174652,263.461883L491.485189,262.839691L491.126112,261.957479L491.025350,261.103126L490.832219,260.202342L490.186069,259.217979L489.392662,258.558642L488.551533,258.187184L487.645952,258.029315L486.641786,257.992169L484.893394,257.704290L483.546223,256.979948L480.075789,253.943285L475.636159,251.445236L475.392396,251.185216L463.958077,249.346504L462.899124,249.550805L460.540432,250.423729L459.188246,250.628030L459.194103,251.129497L456.761187,254.806923L456.374324,255.679847L455.897471,256.478480L454.999238,257.379265L453.592968,257.360692L452.689365,256.701355L451.908201,255.912008L450.851076,255.540551L448.413610,256.580631L446.956309,256.794219L445.094605,254.212591L440.355088,254.036149L439.047919,252.466742L437.986612,254.370460L437.248511,255.224812L436.405050,254.918360L434.050798,252.308873L432.862113,251.482381L431.442004,251.036633L429.768812,251.185216L429.069885,251.547386L428.256331,252.568893L427.726715,252.968210L427.354598,253.144652L426.614438,253.330380L425.869396,253.135365L424.897163,250.312292L423.697080,249.968694L420.541745,250.628030L418.666277,250.330865L417.124501,249.560092L415.827743,248.464294L414.685510,247.229200L414.037958,246.291272L412.999967,244.387556L412.282809,243.542493L411.536307,243.087459L409.761454,242.400264L409.254808,242.038094L408.952504,240.505836L410.155308,236.902711L410.442160,234.961853L410.414279,232.965277L410.280812,231.925201L409.924955,231.219435L408.561787,229.984344L408.171060,229.854335L407.009575,229.677893L406.906218,229.789330L406.910255,229.993630L406.837245,230.272222L405.155688,229.334297L403.797932,228.154925L403.281455,228.034202L401.218205,228.006343L400.234665,227.876333L396.405115,226.000482L394.414463,224.728247L393.534366,223.836754L393.371519,223.530303L392.635682,222.768820L392.367184,222.295214L392.363989,221.691599L392.850637,220.586520L392.806675,219.843609L392.333249,218.348502L392.030632,217.847038L390.742139,218.004906L390.465215,218.524943L390.341575,220.911543L390.176704,221.635881L389.238840,221.933045L388.332672,221.459440L387.907605,220.475083L388.416611,219.230708L385.733967,216.240495L384.695080,214.550374L384.217162,212.730245L383.561991,211.393007L382.202160,210.789393L380.739007,210.473657L379.745821,209.972193L378.033989,210.696530L376.326859,210.390080L374.633646,209.730747L372.981779,209.359293L369.623666,209.182852L368.353357,208.820683L367.208642,208.133492L366.200008,207.056273L365.572730,205.635459L365.611642,204.001059L366.596945,202.273796L366.889921,201.391592L366.697220,200.286515L366.132696,199.339306L365.324393,198.930707L365.054321,198.912134L364.228639,198.484961L363.741020,197.667762L363.253112,195.754773L363.142946,194.872569L363.176327,193.052444L363.046470,192.179527L362.606040,191.185887L361.467047,189.207895L360.569453,186.282695L359.297084,185.419065L357.829076,184.769020L356.625705,183.543223L356.754104,181.509514L356.473546,180.664456L355.354824,181.026624L354.913104,181.750958L354.659876,182.883892L354.473878,187.248475L353.894196,188.084246L352.853989,187.787083L351.367681,186.607717L350.206620,185.270483L349.688910,184.026113L349.464717,180.748033L349.579023,179.893690L350.204960,178.537884L350.317813,177.655682L349.869654,175.436246L350.014382,174.609762L351.828341,173.922573L351.266891,173.114662L349.499960,171.823861L348.537144,171.415262L347.969930,171.405976L347.583714,171.136672L347.187359,169.929448L347.104551,168.750084L347.614955,167.134262L347.565365,166.252060L346.975274,165.109841L346.109914,164.292644L344.109678,163.122566L341.402868,163.967622L339.123783,161.423167L336.053974,153.715514L335.874110,152.972608L335.906244,152.081120L336.339512,151.031765L337.615183,149.211646L337.837621,148.069427L337.144235,147.475102L335.585246,146.527897L333.889117,145.199953L332.789471,143.556273L332.563266,141.364701L333.297517,140.361778L334.249452,139.646731L334.652090,138.281642L333.929657,137.074420L332.540399,136.015779L331.442468,134.613544L331.591680,132.403399L332.697620,130.871156L335.602038,128.196695L336.126343,126.571589L335.730305,124.705038L335.200963,123.163509L335.172539,121.566262L336.285688,119.458267L336.929707,118.798938L337.550527,118.316049L338.048558,117.786729L338.312996,117.006678L338.215014,115.892319L337.790990,115.205131L337.322262,114.712956L337.085578,114.211495L336.190113,106.522420L335.477320,105.185189L334.214516,103.782954L332.726641,102.677882L329.567118,101.749249L329.108129,100.579172L330.076269,96.493189L330.492092,93.066534L330.504249,91.487859L329.923097,88.924832L328.750192,87.661891L327.291764,86.677540L325.856756,84.996715L325.791747,83.650197L326.070785,79.211330L325.803234,78.245551L325.478100,77.911243L325.168582,77.121904L324.937715,76.193271L324.831693,75.431791L324.883929,74.893184L325.216991,74.057414L325.276491,73.620956L325.070901,73.026630L324.037624,71.438667L324.006653,70.825768L325.926784,70.380024L327.004265,69.126368L328.681676,65.309682L328.338693,65.021805L328.193196,64.724642L328.027706,64.028166L328.033256,63.994975L328.304199,62.375197L329.067998,60.341488L330.104456,58.614227L332.963937,57.016975L333.824185,54.936833L334.416807,50.525815L335.667721,48.194940L335.883459,47.349881L335.678774,46.421246L334.789210,44.341101L334.562224,43.412465L334.187094,39.521479L333.769749,37.608487L332.076349,32.937443L331.217912,29.520057L330.732607,25.825535L330.839132,22.194549L331.383411,20.244403L332.921443,16.594842L333.176064,14.505398L332.693540,13.103149L331.672364,11.923774L330.538492,10.865122L329.722140,9.871474L328.454368,5.859738L328.256303,5.553286L326.985130,2.767357L324.712883,0.622191L323.243705,0.027859L321.167807,0.000000L320.435092,0.139297L319.440372,1.495116L315.998118,4.875377L315.534032,5.692583L315.261914,7.076260L314.982579,7.912039L314.262054,9.221424L313.407190,10.363655L313.100630,10.530810L312.160403,10.725825L311.764305,10.985845L311.627805,11.338729L311.614285,12.220939L311.526951,12.490245L311.149747,13.149581L310.994085,13.743912L310.649551,14.143228L309.693040,14.208233L308.232439,13.846063L307.057186,13.214586L304.634467,11.459453L304.203192,11.060136L303.454993,10.131494L302.941195,9.843615L302.575868,9.890047L301.742700,10.233645L301.530945,10.289363L300.895665,10.196499L300.262583,10.280077L299.919116,10.010771L300.147918,8.887113L300.349915,6.844100L299.126279,6.918391L296.212838,8.311355L295.467009,7.995616L295.056334,7.512722L294.818654,6.844100L294.599982,5.971175L294.041881,4.782512L293.591870,5.200402L293.031626,6.964823L292.965094,7.633446L293.024895,8.599234L292.848182,9.397867L292.056429,9.537163L291.595833,9.165706L291.146016,8.459938L290.772352,7.679878L290.552724,7.048401L289.332486,8.580661L288.408636,9.165706L287.461105,9.119274L284.192280,8.255636L283.075411,8.125626L281.687738,8.227777L280.232307,8.710671L276.814134,11.162287L275.323369,11.543030L274.257332,11.236578L272.097465,9.908620L271.098492,9.509304L270.677131,9.407153L269.505238,9.667173L269.195414,9.936479L268.689159,11.013704L268.304425,11.338729L267.873732,11.255151L267.513952,10.902267L267.198213,10.530810L266.892181,10.363655L262.555297,10.874408L261.218269,11.524457L258.854100,13.326023L257.433330,13.929640L249.756924,15.257598L248.483556,15.824070L245.301017,17.913513L243.795692,18.535703L242.214440,18.767863L237.375690,18.340688L228.138152,20.170112L227.304603,20.495136L226.842601,21.207902L226.841118,21.210190L226.603987,22.129544L226.468513,23.123190L226.087719,23.856816L225.330905,24.414001L219.020396,27.209209L217.561544,28.100704L207.575779,37.134883L195.544216,51.853764L192.048521,54.156779L191.212547,54.333220L189.555969,54.426084L188.783760,54.732533L188.241469,55.466155L187.836341,56.487653L187.299249,57.481293L186.352361,58.122051L185.005887,58.131337L181.855900,57.193416L180.410892,56.951971L177.139922,57.081979L175.352903,57.416288L174.255539,58.066332L174.169435,58.855672L174.723009,60.815091L174.640857,61.678721L174.073612,62.235902L173.250029,62.570210L172.348464,62.737365L168.862147,62.802369L168.152172,63.043814L167.328100,63.842440L167.159033,64.520343L167.168377,65.253964L166.874308,66.275461L165.862581,67.937716L164.555235,69.404958L163.022028,70.528605L159.837809,71.763688L157.095190,73.323793L155.580248,73.853114L154.432407,75.078911L153.613781,76.276848L152.204553,79.044176L151.275785,80.390694L148.998244,82.619414L148.194453,83.622338L147.439770,86.315373L146.894878,89.565589L145.723705,92.156474L143.076631,92.936526L141.525977,92.249338L138.273584,89.500584L136.715269,88.516234L135.557466,88.154067L134.371870,87.959054L124.989157,88.460516L122.722522,88.042631L121.398160,88.228357L120.109146,88.692674L117.748506,90.020619L115.985688,91.460000L114.942685,92.927240L112.482898,98.814770L108.330577,104.145121L107.319086,105.863091L105.541997,111.156295L104.565167,113.115709L103.341289,115.028691L101.938570,116.728088L100.391463,118.028173L99.060121,118.659643L95.362696,119.068241L93.978114,119.913296L91.616621,122.541325L90.515208,122.903492L89.138221,122.643475L87.804378,122.643475L86.495809,122.875633L83.189931,124.147859L79.278703,127.481649L77.162888,128.726016L66.053742,131.298327L64.662314,131.251895L63.999079,130.778293L63.712927,129.942524L63.175905,126.265140L63.481062,123.943560L64.278329,121.770561L65.452363,119.690425L64.073672,118.928946L61.653233,118.139609L59.548480,118.650357L57.449905,119.560416L55.497226,120.089737L53.579142,119.820433L49.781360,118.659643L47.931597,118.771079L47.584446,118.836083L46.864469,118.836083L46.505919,118.771079L40.479593,115.920178L39.235591,115.669447L36.521712,115.975896L33.556062,115.214418L27.329368,114.387935L22.862702,114.573661L19.987072,114.072200L17.296593,113.236431L14.676477,112.781401L9.434953,114.239354L6.336704,114.601520L0.420679,114.332217L0.737722,114.889396L1.046098,115.437289L1.366728,115.985182L1.679742,116.542362L1.990733,117.099541L2.308387,117.666007L2.625531,118.223186L2.936047,118.771079L12.106254,135.031429L21.279411,151.301069L30.480129,167.580006L39.693146,183.849672L48.917084,200.119360L58.164279,216.389077L67.418542,232.658826L76.690169,248.928615L78.893699,252.802954L79.357516,253.618260L78.584625,254.008290L78.178293,254.834782L77.818859,256.627063L77.256553,257.992169L76.435378,259.320130L75.389762,260.453075L73.131238,261.873901L72.113180,262.895410L71.447563,264.195512L71.450845,265.662771L72.237752,266.507838L74.839320,267.297187L75.695171,268.290837L74.135858,272.311873L73.590453,273.110509L67.223518,275.088526L65.700571,276.305054L64.610257,278.171634L63.785114,280.706842L62.034473,280.437534L61.192923,282.118387L60.496854,284.291424L58.159763,286.455176L57.853401,288.479631L58.144325,292.333528L59.718300,301.174108L59.948609,302.465113L60.094432,313.107484L60.555401,316.733883L62.173144,323.800960L62.504138,341.343344L62.941278,343.377115L62.623869,345.605906L62.083840,347.760405L61.489832,348.911949L59.972107,350.927151L59.432716,351.957969L59.339488,353.193094L59.572500,354.326066L59.630695,355.375458L59.011018,356.359845L58.127651,356.545578L55.690381,356.062671L54.671418,356.174112L53.718529,358.217178L55.525362,360.808160L60.058463,364.652847L61.029429,365.990130L61.105476,367.020953L60.801357,368.079637L60.636006,369.528362L60.819642,370.744921L62.094127,374.190291L63.614303,376.474825L64.140496,379.520872L64.397413,382.789805L65.092076,385.677985L66.258724,387.321741L70.704201,390.414234L71.620966,391.705095L72.181682,393.098112L72.908021,396.190612L75.319562,402.208459L75.909902,405.356690L74.533241,407.176908L69.274911,407.938428L66.690657,408.690661L64.826686,410.269424L64.509460,411.820327L64.523848,413.556967L64.876462,417.030253L65.619106,418.636881L66.835639,420.429248L67.319540,422.230903L65.881879,423.856108L61.020505,427.032226L59.591077,428.285959L56.802596,432.270045L56.266062,432.576514L54.955981,432.966565L54.510860,433.375189L54.385806,434.926107L54.944288,439.068083L54.560962,440.071073L52.839925,440.015352L51.020954,439.597439L49.484991,439.773891L48.614659,441.519839L49.042018,453.035697L48.167060,455.626773L46.983487,456.434744L42.729023,457.790650L41.066923,458.979389L40.449108,460.195991L40.461123,461.737639L41.396718,469.092990L41.289527,469.789520L40.280032,473.160732L40.068939,474.832409L40.697554,476.392643L42.532271,478.147561L43.959172,479.512769L49.118166,487.193241L50.527138,488.651327L55.528630,492.524080L56.914717,493.898584L59.115769,496.972646L61.145604,498.997257L61.101685,500.641094L59.961101,501.746272L58.096307,501.606964L56.581517,501.718411L55.817779,505.182545L53.287032,506.185566L51.900667,507.708673L50.804070,509.556834L50.473211,511.005644L51.609075,513.680372L51.635318,514.460502L51.119641,514.859854L49.042103,515.667845L48.290172,516.150783L47.404356,517.766767L47.154499,519.531348L47.106938,521.333079L46.842582,523.088374L42.497089,531.623392L42.037437,534.307422L42.719167,537.000740L43.903181,539.656911L48.063270,548.925654L52.217359,558.185120L56.382344,567.444592L60.544723,576.713354L62.750244,581.617068L65.821747,585.415587L67.406297,586.799400L69.204626,587.969604L71.140437,588.666153L73.150958,588.666153L73.998806,588.248224L75.401261,586.947997L76.230402,586.613653L77.087186,586.697239L79.722699,587.579536L81.854012,586.762250L83.729565,587.960316L87.277560,591.851707L91.528001,593.672024L93.456492,595.027973L94.472727,597.451965L92.999232,600.526068L84.528753,604.408166L82.047963,605.884849L80.255284,608.698903L79.697419,610.259170L79.703388,612.088769L80.283674,617.336091L80.347199,620.131564L80.876324,621.626817L83.277576,624.877364L82.450923,626.251880L81.325785,628.118620L80.114254,629.205230L75.792840,631.824237L74.377074,632.214302L71.599825,632.511494L70.426780,633.375208L69.817357,634.656849L68.783261,639.514075L67.880413,641.417957L60.806558,650.760890L59.201144,655.748108L58.386371,656.955441L55.238905,659.156499L54.791327,659.750877L54.641513,660.623870L54.946017,661.143950L55.543342,661.422565L55.969676,661.989081L55.732444,663.410015L54.258840,665.555344L52.249233,666.428334L50.048909,666.892691L48.000273,667.821403L45.752806,669.632392L41.927451,673.895173L41.465887,674.062341L40.141247,674.303806L39.804756,674.424538L39.128047,676.374827L38.387999,681.361984L37.271804,683.655886L37.436719,683.679684L41.519427,684.268832L42.798275,684.751758L46.225662,687.537868L47.949977,689.302402L49.241178,690.918343L50.376149,693.574425L50.922502,696.750573L51.407892,703.167860L51.422385,703.270854L52.416547,710.328071L53.438431,713.587767L55.381009,716.373825L62.324380,722.549567L65.428882,725.985682L67.806866,730.155442L68.637759,733.368655L69.348578,739.980789L70.376953,743.258982L71.803557,745.469203L72.775363,745.506350L73.666991,744.689126L74.852645,744.373380L76.630508,746.416440L77.239226,746.973637L77.811857,747.205803L79.708578,747.707280L82.234717,749.304577L83.560299,749.917493L84.924872,750.372536L86.555664,750.288957L87.730459,749.741048L88.674659,749.703901L89.578327,751.117695L89.630324,751.199043L89.426056,755.071543L86.803010,757.588197L84.754311,760.206996L86.282255,764.395204L88.947354,767.190429L89.898911,768.657686L90.372800,770.747132L90.473939,771.685059L90.637125,772.474404L92.166685,776.281820L92.381384,777.080447L92.666118,781.974344L93.129293,783.441579L96.480125,788.734751L97.235893,790.582711L97.399290,792.625677L97.301527,796.925178L97.671912,801.558957L98.815101,805.960560L101.029190,809.582115L101.666360,810.742866L101.974021,811.959332L101.932640,813.157224L101.478417,814.364401L101.474846,814.429402L101.492392,814.503690L101.529193,814.568692L106.872729,824.606754L107.216313,825.535338L107.388922,827.513218L106.926462,829.175377L104.951342,832.648255L106.260097,833.521115L107.338309,834.709688L109.074292,837.560400L111.382733,842.286800L112.384602,843.558930L113.533610,844.329636L117.376065,845.722475L120.064375,847.635303L128.125432,854.683008L130.120643,856.827948L133.388746,862.037060L135.696196,863.559859L138.595340,864.711241L147.602022,871.322366L149.378540,872.984422L150.930163,874.776467L151.680786,876.503510L151.079324,877.097761L148.093426,878.639095L147.132632,879.827592L145.688148,882.455275L145.689085,882.464560L142.785295,888.180777L139.257037,895.129284L138.049823,896.781993L135.115897,899.929555L134.291834,901.740093L134.285227,903.383499L134.947341,904.506954L139.016635,907.673046L141.760905,910.532726L143.220111,911.609745L145.728894,912.705331L146.547641,913.308831L147.263248,914.525114L147.403786,915.156466L147.749448,917.811850L148.233214,919.046692L148.602076,919.585194L148.763297,920.142264L148.656389,921.432808L147.497599,925.620092L147.583155,927.373999L147.239237,930.456396L146.957874,931.375542L146.349297,932.285401L145.670830,932.387528L144.816755,932.109000L143.676148,931.904746L141.305720,932.164706L132.068762,935.349204L130.894574,936.871815L131.314145,938.598675L133.853836,940.241972L136.469743,940.854726L136.795010,941.755287L136.666165,944.326987L136.930950,947.836367L138.125460,950.825825L141.815979,956.813989L137.576343,958.512948L135.974382,960.016942L135.331408,962.375050L135.894843,965.132358L137.320899,967.880374L139.210654,970.340584L141.132705,972.290180L142.993518,973.719882L151.378738,977.869719L155.304703,980.450596L157.429970,981.360400L159.917212,983.412098L160.032643,985.055311L155.207038,990.087061L154.236321,991.925223L153.851664,994.023326L155.109263,1005.655688L156.804103,1009.387689L158.764987,1010.624739L160.541844,1011.745718L161.661296,1011.875688L164.918164,1011.708583L166.668158,1012.182045L168.031230,1013.509596L187.278019,1042.660019L188.761071,1046.624120L190.666250,1068.487183L191.600559,1071.587961L197.432442,1081.103880L199.775516,1088.048243L202.214718,1102.809864L202.677418,1104.109644L203.513083,1105.177323L205.570549,1107.015591L209.760276,1110.979956L211.438929,1112.121921L213.005694,1114.025201L214.166661,1116.188448L214.642825,1118.138164L214.460810,1118.955189L213.637568,1120.459262L213.470699,1121.304144L213.850529,1122.269726L216.391218,1125.658559L217.319525,1127.812570L217.598410,1129.558067L216.846895,1135.165985L217.063339,1136.957933L217.771442,1138.768458L221.384915,1144.682889L222.270150,1146.604864L223.414504,1151.070937L226.326959,1156.112737L226.553453,1157.867633L225.480837,1171.238534L226.229926,1178.174885L226.826131,1180.496319L227.807217,1181.833472L230.857147,1182.483479L231.230789,1182.418478L233.230563,1185.250666L233.897467,1185.882108L236.489946,1186.782844L248.571080,1187.553578Z "/></g></svg>