<?xml version="1.0" encoding="utf-8"?><!DOCTYPE svg  PUBLIC '-//W3C//DTD SVG 1.1//EN'  'http://www.w3.org/Graphics/SVG/1.1/DTD/svg11.dtd'><svg enable_background="new 0 0 1000 1189" height="1189px" pretty_print="False" style="stroke-linejoin: round; stroke:#000; fill: none;" version="1.1" viewBox="0 0 1000 1189" width="1000px" xmlns="http://www.w3.org/2000/svg" xmlns:xlink="http://www.w3.org/1999/xlink"><defs><style type="text/css"><![CDATA[path { fill-rule: evenodd; }]]></style></defs><metadata><views><view h="1189.10682155" padding="0" w="1000"><proj flip="auto" id="robinson" lon0="-64.0785316543"/><bbox h="221.02" w="186.02" x="-1025.04" y="162.83"/></view></views></metadata><g class="" fill="#000" id="country"><path d="M252.048126,1187.106822L268.610683,1183.817543L281.295507,1180.800933L283.389293,1176.491539L290.473300,1165.419278L291.220488,1156.537085L294.113181,1152.720443L308.000264,1143.697831L309.919286,1137.700448L310.530763,1131.061208L313.058516,1126.286288L318.614900,1125.301411L328.451298,1121.071740L339.072642,1117.053143L341.833363,1111.592469L343.992490,1102.078179L345.600250,1091.544030L347.480699,1089.029223L351.054488,1089.310599L357.250788,1091.957304L360.774598,1095.958154L377.521973,1108.585164L385.199152,1115.778102L391.904899,1116.736580L404.791798,1115.320846L407.467285,1115.646201L440.758875,1116.059490L445.897528,1116.683820L457.855068,1119.770309L464.677531,1122.232478L469.365460,1123.516327L477.123515,1127.411864L484.806439,1140.268233L489.427337,1150.513139L492.861497,1159.518313L500.064703,1175.339445L504.475363,1181.337413L505.523398,1178.426362L506.960261,1161.136452L510.384318,1151.049574L515.243324,1139.749398L524.705408,1113.342341L528.550012,1109.385352L533.080785,1107.459627L536.365469,1107.301348L539.913857,1109.262246L544.482887,1109.288626L547.514831,1107.195829L579.265619,1106.861686L612.240841,1106.562715L612.964417,1106.729787L614.903586,1111.275910L621.367574,1121.203641L628.055434,1126.435778L629.308547,1127.851542L630.616507,1123.375631L633.690798,1105.788911L638.165408,1080.271422L642.842217,1053.840206L648.390156,1022.714138L646.338227,1000.635776L644.191940,977.378984L654.500678,958.236864L661.827638,944.651591L668.052940,931.716756L673.533090,909.575549L677.192913,894.793185L696.033689,891.293203L727.856297,883.598450L743.719899,879.773023L777.192427,871.691186L811.218515,863.477335L847.671077,862.958469L882.861378,862.457192L911.786236,880.828315L933.870273,894.863536L958.190574,910.331805L960.049556,913.664597L962.736376,926.626248L962.472858,941.556399L967.524957,940.334146L969.250496,936.667373L972.455585,931.699169L977.109215,930.397757L982.622161,928.568740L984.405844,924.893941L970.049494,911.668442L961.428825,903.727721L965.157996,892.990433L971.457549,874.883480L977.566696,857.347662L982.233253,843.971244L983.507062,841.499966L988.495028,840.646889L986.987594,833.743087L986.430770,829.222602L982.318318,828.958760L985.496479,812.653129L990.276505,789.399023L993.917807,771.773348L995.311404,768.818113L998.924648,767.991350L999.579162,765.950824L994.924541,763.109913L991.774695,757.630362L984.584956,741.877600L973.263372,717.056240L971.859496,708.163711L967.993727,702.675120L962.447711,704.495857L955.566306,702.745486L937.627832,689.252617L925.877425,681.960792L921.742207,677.650773L918.949041,663.805871L914.394666,648.509527L911.458217,629.589082L911.691417,625.041473L920.017295,610.686124L919.424258,603.429268L919.737907,597.096005L918.957906,592.090963L916.610828,592.020594L912.982616,594.210849L907.381637,595.899721L904.141232,596.040460L871.070437,594.685845L833.449561,593.137712L802.147171,591.853466L774.979729,590.736347L773.093046,578.377667L769.951240,557.644984L767.738386,542.937724L764.247405,519.601455L752.290007,505.070231L739.316432,489.298831L734.868124,485.261438L749.101891,484.760063L759.208401,484.399425L754.182858,442.047248L750.795681,437.719684L747.120198,424.050969L744.736338,416.310675L739.271169,410.030499L737.651952,402.976315L738.256026,398.261808L740.814079,395.341633L742.152502,388.067596L740.299281,380.749599L736.872666,373.941768L732.784475,367.406617L725.525482,363.395818L715.031243,356.104269L699.275984,346.833736L686.040696,340.377801L681.975791,341.169400L659.495739,343.693722L652.043880,345.013055L646.889508,343.535402L629.986283,343.605767L623.022597,338.636284L617.079146,332.857620L604.293717,318.063580L601.992252,310.657786L597.261469,308.309396L590.382753,309.206534L583.299360,308.195055L569.278692,302.055825L556.131442,295.758287L549.955884,296.022150L544.209231,292.099386L533.919692,282.494786L529.165759,278.756737L526.793462,273.787336L524.283393,266.469572L520.292119,264.895199L515.326874,266.205711L510.098705,269.961341L502.289469,267.454655L492.513080,260.708600L486.137312,255.440174L482.529863,252.942291L474.175437,249.257036L466.266591,248.483045L454.705964,253.909781L444.850015,251.693350L429.450359,249.731986L416.137640,245.809258L410.758394,235.580275L407.771154,228.807871L399.754452,224.568525L393.253511,219.396879L385.407299,211.551462L381.582801,208.930461L374.777090,206.740431L368.435268,203.969912L367.458029,199.000570L364.781439,192.456874L364.147462,190.838542L359.486542,182.896401L357.489689,182.342299L355.401495,183.899063L353.830755,185.051245L351.981725,183.644000L351.461530,180.090708L352.272277,174.400164L349.497600,168.428175L343.128871,162.165944L339.623259,155.692628L338.976764,148.990638L337.393274,144.513851L334.858784,142.253469L333.295150,138.321988L332.696888,132.737000L334.078425,126.078990L337.446828,118.374346L336.004272,106.483158L329.764171,90.449400L326.184839,78.874833L325.259044,71.777051L325.800962,66.517478L328.826079,61.407423L334.724821,48.865352L335.404359,39.296075L332.825027,28.504241L332.148724,20.273281L333.368793,14.609081L330.756792,7.185807L325.815191,0.175907L322.588982,0.000000L318.303924,1.917388L313.298290,7.836663L307.136385,8.883309L301.444951,5.224443L284.255994,6.754834L257.589262,10.413700L247.027227,14.204495L240.793699,15.822839L233.215770,17.062982L221.299536,23.870574L192.402412,50.298983L186.345750,54.124932L179.247902,54.652649L175.298958,58.311485L168.778750,61.187541L156.222487,71.645122L149.996180,80.018217L146.036265,87.599735L140.991614,87.863593L136.976368,85.770321L124.630707,86.816957L118.439475,89.402764L111.956349,96.781988L104.144444,110.115600L100.831022,113.906355L94.176578,117.829040L86.419336,121.074489L76.860044,125.973447L72.470698,126.298872L68.633864,127.169602L65.150080,124.935607L63.759739,120.159783L58.505627,117.143010L46.289192,115.630226L28.143081,112.147304L9.586415,111.470069L0.420838,111.795494L11.426321,131.338554L19.503465,145.639644L28.715272,161.946062L36.143351,175.068605L47.442916,195.007508L57.220044,212.219905L67.653192,230.558141L79.542536,251.411899L76.501752,256.706707L74.033485,260.937280L74.808047,268.096718L70.896855,271.913917L66.638896,274.218311L61.826038,280.243161L58.635733,285.467636L58.991842,292.899770L62.281803,330.702717L62.134608,340.975898L60.083694,349.806636L57.622995,354.265992L56.199442,357.766635L60.875125,366.544647L66.037242,384.171112L69.203261,387.654199L73.354642,394.831482L75.512269,401.621773L74.969864,404.242900L68.005003,407.444549L65.638717,410.206414L65.742231,420.312756L62.901000,423.945419L57.997725,428.695157L55.042996,434.157367L52.458512,437.904397L49.825527,440.112157L48.986224,446.779430L47.663985,453.517090L41.450738,457.967826L41.006582,466.271201L41.489940,473.070493L45.522601,479.913444L58.035588,494.303799L59.476621,497.716683L53.768671,506.389649L50.532457,512.379816L42.942880,530.754999L43.047134,534.106345L46.090039,542.779393L63.111250,579.908209L65.712103,582.942903L70.262150,586.470185L77.141502,586.083151L87.940369,590.067835L93.438092,594.650660L94.119233,596.911284L93.075275,598.433027L87.836963,601.520493L82.055700,605.540355L80.309441,609.349104L80.432302,615.356896L82.649632,624.320188L80.259291,627.214123L74.457342,630.706192L69.636695,635.693599L65.120928,644.023519L57.338209,656.672281L54.563197,660.155517L53.624386,664.509554L48.662356,665.987285L39.943763,674.580978L38.725951,678.934984L40.680784,683.069081L45.886745,686.534679L49.663057,691.583531L51.144484,698.013320L51.526386,702.024228L51.548141,702.129778L53.792889,712.350507L65.881334,726.054259L70.899122,741.499390L73.526614,743.452007L89.056852,751.165688L89.511985,752.986355L87.630125,755.871271L85.850571,759.591745L87.867815,764.851401L91.253403,772.054798L92.805328,778.739222L95.119875,785.617094L97.797822,796.162479L99.740910,805.722698L104.911649,819.838554L106.551557,828.545407L107.141342,833.795855L110.580755,838.949527L116.916824,845.088154L125.279859,851.288290L132.143800,858.508522L137.339528,863.398186L143.430804,867.399593L148.170939,871.075590L150.132516,873.599529L150.908921,875.657367L149.218103,877.600874L143.275126,887.124857L135.125131,901.617212L135.468568,903.384764L145.744027,913.814089L147.639031,917.938281L148.127120,923.768379L145.751646,930.775870L136.031378,933.000579L134.012780,934.908722L133.964562,937.133415L136.555075,940.096730L136.904114,947.008148L141.275277,954.649320L139.687212,957.252049L136.381494,960.769238L136.629616,964.207276L138.220498,968.023396L142.391181,971.118487L158.783306,981.836930L160.146170,983.314116L160.019155,984.422004L154.835074,991.570502L154.673675,995.984442L155.582520,1003.247201L156.899191,1007.942486L159.004646,1009.894456L166.904636,1012.110205L178.072686,1028.446944L188.769315,1043.807728L190.022294,1057.040763L192.572472,1072.463333L199.626594,1084.571174L201.451561,1094.261087L204.564012,1105.261317L212.155069,1111.952995L216.246000,1125.178302L217.698472,1132.221969L217.769918,1136.856248L224.661686,1151.234249L226.625933,1163.590057L226.331800,1172.472418L226.939714,1177.423771L228.079416,1180.915265L233.006813,1184.046208L235.250382,1186.007460L242.118817,1186.878154L252.048126,1187.106822Z "/></g></svg>