<?xml version="1.0" encoding="utf-8"?><!DOCTYPE svg  PUBLIC '-//W3C//DTD SVG 1.1//EN'  'http://www.w3.org/Graphics/SVG/1.1/DTD/svg11.dtd'><svg enable_background="new 0 0 1000 1046" height="1046px" pretty_print="False" style="stroke-linejoin: round; stroke:#000; fill: none;" version="1.1" viewBox="0 0 1000 1046" width="1000px" xmlns="http://www.w3.org/2000/svg" xmlns:xlink="http://www.w3.org/1999/xlink"><defs><style type="text/css"><![CDATA[path { fill-rule: evenodd; }]]></style></defs><metadata><views><view h="1046.67054541" padding="0" w="1000"><proj flip="auto" id="robinson" lon0="-78.3397751798"/><bbox h="100.92" w="96.51" x="-1150.58" y="-451.59"/></view></views></metadata><g class="" fill="black" id="country"><path d="M836.856935,1044.670545L837.559312,1043.294139L838.607427,1041.744169L839.380707,1040.456967L841.967270,1039.088741L844.170531,1038.749826L853.693694,1039.666618L860.018081,1042.578123L869.170935,1040.289065L874.316764,1040.616588L882.677102,1035.746464L885.860163,1036.178455L887.875090,1038.057875L886.773737,1039.004012L886.632364,1040.289065L887.660226,1040.289065L890.819447,1038.043753L892.330390,1037.267073L894.309110,1036.631608L900.706987,1037.718427L912.454457,1032.571691L915.887769,1030.569314L922.407005,1015.344729L933.416477,1002.272890L935.209391,997.444590L940.236104,978.896026L940.842625,974.906700L940.043149,971.856452L936.963893,970.401934L933.852235,972.329523L931.204609,975.697505L922.405881,988.396159L918.598678,995.168952L914.574727,999.994256L906.824221,1002.040003L903.315115,1003.794127L899.750162,1006.033399L890.676829,1002.735126L887.003245,1000.766403L884.467662,996.456088L882.421716,993.342305L881.855785,989.734269L881.388494,988.985830L879.978001,990.454464L877.385066,993.871860L875.698436,995.128670L874.086386,995.933594L872.539010,995.990079L868.149482,996.032444L864.960607,997.873276L861.749351,997.043701L860.024301,1000.270436L856.346518,1003.485569L854.904122,1006.876007L850.042312,1008.414055L848.106676,1009.923101L845.406679,1010.920427L842.207963,1012.168900L837.337748,1009.475607L837.136563,1011.249855L838.567459,1013.161248L840.075937,1015.495257L839.425602,1018.788299L838.067156,1022.548418L835.353730,1024.299733L830.815028,1024.806781L830.182481,1026.039782L830.566845,1026.983386L832.678785,1031.936266L832.370334,1035.848057L832.409747,1038.840811L832.627367,1040.720542L834.279798,1043.163793L835.905729,1044.430697L836.856935,1044.670545Z M937.116957,955.536441L938.818009,953.832158L944.244681,951.087081L945.994600,950.673308L948.913934,948.012126L954.600454,947.313875L957.645438,945.299191L958.659963,941.865426L957.453542,940.139357L954.635495,938.706293L951.843232,936.958480L950.425054,935.438799L948.885270,932.894929L947.585182,931.948774L945.134771,933.668927L942.124485,937.124379L939.095079,938.993460L935.444866,940.251972L933.792922,941.527840L933.968529,945.078040L935.566725,948.426272L936.266910,951.765802L935.611719,953.909957L935.694223,955.738307L937.116957,955.536441Z M550.499543,820.785749L549.418132,818.074156L548.834009,816.930200L548.305305,817.269150L548.780628,820.199650L548.799469,821.272987L547.969456,820.552721L547.122104,820.234957L546.388774,820.446800L546.409791,821.809655L547.011819,824.139922L548.087716,825.566325L549.962512,825.509834L551.199081,824.196414L550.945367,821.965007L550.499543,820.785749Z M547.607241,814.981235L547.951306,813.477141L547.895383,810.567805L547.285442,810.257099L546.517946,814.748207L547.027360,815.186018L547.607241,814.981235Z M541.535250,794.651035L541.014176,792.483112L540.563427,791.459172L540.401928,790.364615L539.730673,788.535642L539.064419,789.001713L539.282882,791.501542L540.025085,794.114351L540.992037,795.618477L541.535250,794.651035Z M947.594483,780.711266L946.420888,779.835609L944.275640,776.191737L942.530195,777.611154L942.316587,779.185928L942.362320,781.050229L941.399771,783.295861L940.276683,785.033042L940.244287,785.838077L940.962179,787.066812L937.944667,789.354797L937.412217,791.000165L938.720733,792.137091L941.221615,792.885626L946.747677,794.177905L947.509150,794.559233L948.160617,795.364259L949.067627,796.176345L950.611153,796.550611L954.324437,795.787956L960.656220,792.433680L963.975539,791.699269L965.112947,792.101783L965.783993,792.949180L966.662572,793.796577L968.388366,794.177905L969.594327,793.987241L971.936769,793.097475L973.651691,792.885626L977.431712,793.076290L979.987472,793.775392L982.219805,795.215965L984.980868,797.631037L991.111634,804.982138L993.671070,805.921323L996.146957,804.770291L998.413807,801.931544L999.521838,798.450183L998.564630,795.258334L997.335429,794.643973L994.387740,794.643973L993.087370,793.535297L991.409194,790.993103L990.372693,789.820867L989.427277,789.340673L985.948039,789.241810L983.307377,788.803986L981.117703,787.737672L978.988267,785.781583L977.260542,786.685481L974.841441,786.021681L970.159172,783.295861L971.153573,786.092298L971.773130,787.066812L968.218757,786.932640L961.159589,781.233835L957.627746,779.750868L956.398985,779.560201L954.258349,778.762222L953.207289,778.670419L952.133787,779.087063L950.831297,779.899165L949.873800,780.683019L949.844190,781.043168L947.594483,780.711266Z M875.309284,755.761959L877.887808,751.468573L876.214101,750.166753L874.217253,751.597607L872.567375,756.282166L875.309284,755.761959Z M896.343223,753.955765L895.160981,751.612536L891.954009,749.917555L888.653470,749.003518L886.050342,749.391584L883.325161,749.779918L883.582723,750.690907L886.564956,751.213559L889.257104,752.126537L895.338772,754.214730L896.343223,753.955765Z M763.012974,758.183983L769.398037,751.383297L774.539967,744.222383L775.896518,739.349530L770.969388,745.161639L765.100314,749.568358L760.154096,754.525885L757.937879,761.976239L763.012974,758.183983Z M842.682334,730.952607L842.157435,730.444128L842.007937,729.907399L842.007346,729.349483L841.928759,728.678570L837.709591,730.408817L833.938000,731.044416L826.215748,730.952607L827.009673,732.068436L827.338096,732.689910L827.800524,733.057144L828.982631,733.424378L828.827806,734.723820L828.181734,734.822690L827.743656,735.069866L826.748259,735.797270L825.580188,735.260545L824.157632,735.938513L822.870959,737.421566L822.141305,739.349530L821.043792,738.629192L816.269366,737.082583L817.955220,740.698395L818.778389,741.828333L817.550790,742.252059L816.380022,742.915896L815.272637,743.918713L813.088338,747.054271L812.754960,747.703980L814.730795,750.020328L819.179534,752.576776L829.813081,752.774512L833.555221,756.051272L834.986698,763.042587L832.920839,768.663840L828.316607,772.738517L822.094495,775.111283L818.721216,775.725659L815.988892,776.544826L814.030576,778.564493L812.915067,782.759169L810.974527,785.513238L807.149899,786.487753L802.994380,786.953825L800.089005,788.154312L799.873613,789.729065L800.166378,792.122968L800.069204,794.305015L797.909480,795.809141L795.981529,798.252458L795.109756,798.817386L791.576998,799.382313L786.831399,802.277561L783.667510,803.548642L783.655683,804.692614L784.033805,805.321092L784.680228,805.638861L785.526105,805.921323L784.409564,806.387385L781.237511,808.406982L781.112854,809.473271L782.558250,810.737281L782.306664,811.845937L777.272856,816.167562L775.935103,816.803094L770.080231,816.287607L768.449253,816.767786L767.572155,818.476658L766.668034,824.605975L766.674639,826.173605L772.093045,821.167066L774.945503,819.634735L778.411559,819.069819L780.014378,818.307183L784.418705,814.564609L785.793781,813.138189L790.296242,806.676908L792.854550,804.424275L796.704474,803.548642L806.291903,799.537668L807.893597,799.410560L809.366561,798.662031L818.011507,791.699269L824.210815,781.297390L826.113187,779.750868L828.027768,778.931704L830.539655,776.975594L832.974379,774.638143L834.674585,772.632590L835.995619,769.391210L836.974770,765.584867L838.400999,762.647120L841.054660,761.976239L839.665051,757.520159L839.156141,754.857798L839.319884,741.891892L838.609377,739.349530L836.746262,740.451221L835.248670,739.349530L834.280120,737.082583L834.042436,734.723820L835.370793,735.246421L836.236758,736.221000L836.596628,737.605182L836.462428,739.349530L838.344792,737.675803L842.682334,730.952607Z M791.250015,723.840920L791.006160,722.569706L791.202602,719.511722L790.923478,718.028630L787.176090,714.356197L785.754887,713.904203L782.536196,713.593458L781.087248,713.169714L777.200116,710.161122L775.473981,709.610252L774.484896,709.772688L771.872441,710.704930L770.213354,710.810866L769.941511,711.446485L769.760161,712.039728L769.447233,712.611783L768.818947,713.169714L776.710478,728.678570L777.913970,729.526038L777.701395,731.503460L776.385508,735.260545L777.157147,735.641902L779.049597,734.709696L781.048913,732.986522L782.121890,730.952607L784.227013,733.848109L785.606190,735.218172L796.306605,738.311396L800.357360,737.026086L803.172110,736.489362L802.696781,739.349530L804.170450,740.034556L804.198195,740.415911L804.542277,741.828333L817.000559,730.952607L808.503786,727.188436L805.277984,726.319779L806.111762,728.678570L803.075776,727.802852L797.745075,727.400304L794.947241,726.319779L794.476006,724.349404L794.219871,723.840920L793.621056,723.749110L791.761080,724.003352L791.250015,723.840920Z M854.883494,664.366549L857.186877,669.579006L863.477699,669.720264L877.167846,666.845650L877.324840,665.553129L874.515422,664.599627L865.989264,665.553129L854.883494,664.366549Z M603.928797,608.149271L598.764271,604.991762L592.575558,603.042149L587.603496,602.632447L589.502693,606.793028L594.540253,608.890965L600.665369,610.247201L605.812548,612.112021L603.928797,608.149271Z M10.647725,596.345590L7.340506,593.816696L7.520910,594.466581L10.079907,596.628147L10.647725,596.345590Z M5.723201,589.733703L4.461587,587.487336L1.247040,583.206491L0.478162,582.634296L5.459243,589.839664L5.723201,589.733703Z M544.075953,564.789915L543.415396,563.878603L542.333309,563.306382L541.387990,563.553638L540.314631,564.316598L538.951408,564.874688L537.157497,564.486144L535.729419,566.337022L535.743351,568.569367L536.724470,570.575642L538.160517,571.705934L537.882663,572.673744L538.670605,574.249080L538.755218,575.803218L538.010788,576.191752L533.409953,577.632855L533.256183,578.819643L540.753983,578.092029L546.786828,580.310187L551.807558,584.760597L556.240690,590.666155L558.558199,589.076748L560.950445,590.644962L563.422490,593.442305L565.932730,595.519109L564.225774,599.142898L566.862827,600.711079L574.383615,601.332699L580.580050,605.267250L583.875731,606.263245L586.331390,603.819170L574.442068,598.591915L569.367554,594.282918L567.716517,588.886019L566.183498,588.306767L559.661940,583.912904L551.311350,572.779709L552.261305,572.214564L552.721152,571.720063L553.062324,571.154917L553.662934,570.420227L550.503389,570.278940L548.227423,569.756179L546.536874,568.710654L545.108726,566.958688L544.075953,564.789915Z M643.517122,565.672967L642.998842,564.782850L642.422207,564.062278L641.732112,563.560703L640.857924,563.306382L640.593791,566.485374L639.647757,569.007357L638.216849,571.041888L636.465079,572.779709L636.298771,574.072473L638.290041,572.885673L639.722389,571.027759L641.112232,569.784436L642.905436,570.420227L641.890605,571.020695L641.172356,571.776577L639.470698,574.072473L642.950429,571.395104L643.480230,573.902931L641.384894,582.259896L643.177283,581.624122L644.353245,580.762294L645.382405,580.380829L646.721300,581.193208L648.728529,589.493526L648.671277,597.299220L649.453553,600.054139L652.158817,602.632447L651.195567,604.751593L651.974709,606.051331L653.702426,606.835411L655.649435,607.379321L654.868077,611.193740L659.884603,616.321966L659.112116,620.418857L660.914445,618.829550L661.551112,618.031363L663.440734,620.630765L664.613256,624.770002L665.014470,629.431900L664.618968,633.556937L663.462650,636.368160L661.753195,639.122860L660.069912,642.499114L658.918631,647.182041L659.669149,650.106200L666.954159,660.277066L667.716282,662.141705L666.122732,662.657304L663.731356,662.431288L662.097572,661.993381L660.837627,661.145819L658.306560,658.560746L656.639884,657.261142L654.854285,657.360025L653.187418,656.357068L651.859263,654.640735L651.086203,652.627745L652.273796,653.122165L656.058043,653.708404L654.820654,651.314001L650.880537,649.096166L649.694549,646.588731L648.768395,646.588731L647.412591,647.980183L646.304020,649.392820L645.411203,650.932590L644.761122,652.627745L646.977766,653.666025L656.770446,660.919802L658.481518,662.600800L661.894314,665.108161L678.568969,668.752644L680.325742,669.727327L681.685492,671.302355L685.921947,677.927312L687.043346,680.356915L687.727186,687.447908L691.007226,695.612332L691.430677,700.132381L693.011346,699.369625L693.616133,698.959996L693.988460,704.857209L694.707187,706.064895L696.477249,706.700518L697.466352,705.937770L697.983430,704.094459L698.605382,697.293229L698.491438,692.038644L697.751494,687.575036L696.157407,685.809359L696.939673,684.947707L697.970480,683.252650L698.719700,682.362743L690.444581,670.702008L685.513127,666.118166L673.382011,660.976306L669.528745,657.797936L667.641492,652.585367L667.464748,644.222549L668.411089,636.551807L668.493506,632.779964L667.517835,631.183632L667.968295,629.389519L661.426633,611.010083L659.200965,607.902039L657.785597,604.892869L657.457686,593.145618L656.434363,589.804344L654.435032,585.862597L652.160484,582.556590L650.301423,581.193208L643.517122,565.672967Z M722.222202,563.638412L724.072748,560.932720L721.050686,558.347109L719.259834,557.456977L713.681967,557.379267L705.847936,559.745884L702.285422,560.657205L699.805709,561.858167L698.511116,564.069342L698.560804,568.046603L701.343671,567.043461L706.293193,566.994010L709.165454,565.672967L710.646027,568.180827L714.080458,569.410026L716.782789,569.367639L716.020423,568.046603L716.159725,566.958688L719.305409,567.114105L720.977066,565.849578L722.222202,563.638412Z M676.855930,540.268582L677.880712,538.050217L678.084475,536.156826L677.743253,535.365556L676.474787,535.619893L675.199010,538.127931L675.771901,540.883223L676.855930,540.268582Z M499.869770,512.220204L494.050341,491.179067L490.733312,488.402227L490.394619,490.910569L490.728435,492.719391L491.896353,495.517395L493.036752,500.696475L494.948269,504.674355L496.879132,510.835396L498.795500,513.294133L499.869770,512.220204Z M783.095057,500.901375L783.501216,499.332822L784.771630,495.906005L785.069640,494.330366L784.835817,493.192792L783.793726,490.755123L783.733647,488.946291L783.430600,488.522345L781.755709,484.247528L780.818885,483.788247L779.856370,484.353516L778.915593,485.307405L777.993425,486.028119L774.909216,487.278767L772.102181,488.826173L770.127811,491.348644L769.512689,495.517395L769.513058,500.844851L768.098380,506.864645L765.685662,512.248465L762.697582,515.661006L762.542932,516.847970L772.535487,515.661006L772.886359,514.134905L775.958491,507.048346L777.461220,504.999367L775.798804,508.503821L775.306103,510.227775L775.496439,512.220204L783.095057,500.901375Z M284.383231,466.335146L285.181033,464.575657L279.058096,464.575657L277.438010,465.119757L274.795589,466.631927L274.046051,466.949905L265.005985,472.934920L263.440868,473.521403L262.507179,475.167792L260.850742,475.097132L259.060264,474.545981L257.668495,474.715566L257.017480,476.340751L256.984822,478.771450L257.432329,481.074945L258.227582,482.360940L260.965478,482.000579L269.135262,477.937665L271.282507,476.439675L273.088731,474.418792L275.188356,469.670379L276.449688,468.031031L278.114888,467.161891L278.826672,467.465737L279.389767,468.052230L280.620997,468.031031L283.362606,467.204288L284.383231,466.335146Z M263.442926,467.027634L263.639327,464.830042L264.773347,463.367328L266.992303,463.282533L265.742382,460.908260L262.526551,461.819813L258.387629,463.770105L254.390018,464.575657L252.423291,465.642658L252.806605,467.168957L254.340931,468.596324L255.863248,469.324138L258.085844,469.345336L261.950556,468.751780L264.023573,469.324138L263.442926,467.027634Z M482.840836,469.260543L481.558740,468.094627L480.069181,467.246685L478.502395,465.762783L477.391575,463.480388L476.680368,461.035454L475.614681,458.873157L473.510282,457.459884L473.260481,459.636322L474.304386,462.180194L479.422121,470.786827L480.999288,471.663024L483.804809,471.691289L482.840836,469.260543Z M289.790365,485.900934L288.448409,484.339384L289.126676,483.653996L291.865688,482.975672L292.724090,481.513032L291.789489,480.219969L289.170127,479.986793L289.332032,478.813845L294.054425,477.909402L298.013967,475.747206L308.368728,467.578796L310.075567,465.529598L309.204591,464.575657L307.502653,463.607581L306.584159,461.289841L305.875882,458.512773L304.809215,456.173800L300.287975,458.647033L298.268376,461.014255L291.714820,463.763039L289.193341,465.762783L288.006205,467.875575L287.497686,469.218146L286.823860,470.306331L285.123870,471.691289L283.077556,472.503889L277.904518,472.885457L277.156141,474.249207L275.592592,478.517075L274.793483,479.986793L272.931702,481.357582L268.688366,482.799025L267.049905,483.653996L265.540939,485.201417L265.464140,485.978658L265.780758,486.770029L265.464590,488.402227L265.393297,489.228922L265.096549,490.500757L264.191068,490.981226L262.252223,489.469158L261.038479,490.642071L259.968591,491.963361L268.752404,495.941333L271.404560,497.891443L271.243773,499.064330L270.082278,500.526901L271.105640,501.671518L272.987967,502.985704L274.409859,504.999367L274.120319,507.119000L273.157565,509.492976L272.973650,511.421821L275.055020,512.220204L273.869535,514.134905L273.467522,518.522430L274.069094,530.201065L274.695108,532.278173L275.718160,533.669971L277.565445,534.185712L279.377346,533.655841L281.309346,532.822176L283.506289,532.370018L291.441647,532.278173L294.510978,531.267881L296.984708,528.809255L295.782266,532.490123L290.381188,535.676412L280.040243,539.484385L282.912223,540.664213L285.778764,546.146485L289.296820,546.598628L288.938194,546.005190L288.418361,545.524788L297.956642,539.484385L300.543967,538.255099L303.399529,535.845970L306.246125,534.228102L308.775421,535.330231L308.512325,537.287210L305.993145,539.187661L297.413539,543.256998L295.113190,544.888960L293.299392,547.114353L291.965396,550.258142L284.494024,547.375748L281.304956,547.283906L281.660968,550.258142L276.221284,552.744897L285.779164,552.412860L290.047236,553.677427L292.037182,557.372202L293.151101,557.372202L294.864099,555.118605L295.116637,553.592652L292.987927,550.258142L296.634282,551.346099L299.546974,553.917624L302.901137,555.556609L307.833006,553.811655L308.909165,552.589476L310.277136,550.413565L311.465053,547.856148L311.996138,545.524788L311.462329,542.967341L309.073405,540.586500L308.873546,538.403461L312.418879,539.646876L314.561975,538.551823L317.948700,532.370018L317.575791,529.445108L319.374918,522.874581L318.442624,520.408839L315.526182,519.794167L312.226593,521.291986L306.463188,525.262591L307.597979,520.875141L310.693487,519.582211L313.960076,519.497429L315.602685,518.734387L316.158293,518.225691L317.321494,517.363733L318.561634,515.978943L319.320006,513.930011L319.063660,512.276727L317.411946,508.984268L317.055897,508.023374L317.476441,506.228756L318.697056,502.893852L319.145083,500.901375L319.175918,499.382281L318.910336,495.715233L319.409680,489.977892L319.342639,486.918411L318.633119,484.289923L317.074623,481.823932L315.836264,478.714922L314.624286,474.362264L312.872885,470.885752L309.979941,470.391124L307.865714,472.927854L306.762689,477.040285L305.987575,481.428241L304.921923,484.841059L303.106295,487.342359L299.474219,491.115475L293.452539,501.198128L290.771258,503.459092L288.105147,502.625363L290.398086,501.381832L291.435912,499.530658L292.242183,497.283801L295.376370,492.344909L296.190168,489.207725L295.643402,487.299964L293.119887,488.402227L289.790365,485.900934Z M279.488594,451.898598L281.576216,449.361717L282.381496,448.082670L281.360906,447.990805L276.880372,448.556130L274.589721,449.545447L274.242175,451.940996L276.501452,453.304827L279.488594,451.898598Z M304.928169,447.524411L304.277922,446.132291L303.227607,445.036965L302.273221,444.429234L299.893698,444.231368L296.790991,445.029898L293.793432,446.379622L290.712397,448.499598L287.179298,450.245034L286.081986,451.962196L286.534128,453.686416L288.402312,454.152802L291.556924,452.068193L294.962497,448.711595L296.621880,448.061471L299.293007,447.870673L300.495657,448.443065L301.943200,449.481848L303.401128,450.011839L304.689485,449.057856L304.928169,447.524411Z M444.882184,418.634992L445.116157,416.444156L445.096207,415.242724L444.749106,414.338113L443.901808,412.755038L442.653988,413.419365L441.821652,416.493627L442.369692,418.741000L443.818414,419.461852L444.882184,418.634992Z M655.500841,471.041207L649.980947,463.388527L648.481014,462.201393L647.767323,460.865863L645.180265,452.612313L642.733945,450.117837L637.351331,446.732952L634.983738,444.429234L628.356918,431.525294L625.321362,423.440646L624.269793,418.013079L622.437094,415.263926L620.364103,412.938788L619.158896,411.108349L618.723905,407.843217L619.102258,396.768374L617.751562,394.690473L616.107287,393.630314L612.443261,392.025933L609.003244,387.954869L608.120967,387.184471L605.920026,386.894687L604.602561,387.453050L600.942095,391.382765L600.064996,392.789252L600.026076,394.110920L600.828254,395.588071L601.997329,396.570479L606.450407,399.143101L612.189468,405.277732L613.141757,405.814860L613.791431,406.606415L614.298524,408.733711L614.490747,410.811521L614.411436,413.009462L614.000717,415.101379L613.165502,416.924728L618.037283,417.334627L621.568020,419.758673L623.531257,423.907073L623.671884,429.433480L624.006719,431.779702L626.258686,436.288360L626.768393,441.192694L632.866273,455.057306L635.600627,457.629477L639.828447,458.647033L642.545962,461.395836L642.427785,467.055898L640.461486,471.776082L637.596614,471.691289L635.753393,474.277471L632.504829,476.552731L629.099348,478.184974L626.819660,478.813845L623.345268,480.552067L624.571349,484.113277L628.193565,486.953740L631.942364,486.572187L634.885118,484.120343L637.429013,482.742498L644.387349,481.279857L647.930955,480.976023L650.976537,481.258659L657.437781,483.653996L656.305224,473.613262L655.500841,471.041207Z M376.255278,321.318091L374.294303,320.540450L371.969861,320.498033L365.457557,321.728119L359.118069,321.459480L356.808314,321.728119L351.472869,323.700487L349.228196,324.103442L345.618562,325.651634L341.642010,328.493500L339.530361,331.823115L341.542863,334.770958L343.382478,334.975963L346.149994,334.898203L348.993235,335.216956L351.048027,336.602498L352.903944,337.358888L355.174194,336.036971L357.189991,333.965076L358.265017,332.515896L362.705320,334.728544L366.295724,334.834581L383.064300,327.093778L384.997975,325.008322L379.497489,323.615654L376.255278,321.318091Z M261.938101,306.768831L260.933764,305.213479L260.205527,303.276349L258.653527,301.452326L256.549567,300.434263L251.297158,299.331357L248.807447,299.182889L246.499374,303.021835L247.503762,309.660353L249.536667,316.871375L250.322566,322.378507L250.556875,330.183054L250.159788,335.067862L248.670947,337.252852L247.170408,338.284932L245.684125,340.575290L244.525418,342.992869L244.013270,344.364236L244.407244,345.891111L245.341571,347.707799L245.669873,349.065007L244.304072,349.227588L243.486786,351.645097L240.825305,355.872155L240.048285,358.063416L239.093293,359.109560L235.075528,359.922440L233.505180,360.982715L233.491390,365.266189L230.696653,368.722610L227.011319,371.585261L224.356609,374.129817L222.255936,379.339022L221.386201,382.314662L221.451505,383.622238L223.364902,384.753110L224.154271,387.354100L224.698841,390.181239L225.841564,392.025933L226.899152,385.389223L226.731870,382.689265L225.361894,381.247393L227.643476,380.385093L228.323596,382.017806L228.339890,384.753110L228.582960,387.184471L229.316101,388.456687L231.319752,390.732528L232.044153,392.025933L232.039909,393.107301L231.320437,395.736493L231.360048,396.768374L232.436264,398.280851L233.743628,399.666104L234.594318,401.397662L234.327058,403.892503L233.419480,404.797143L232.144654,404.366026L230.730303,403.383642L229.393891,402.705159L229.623721,406.055154L228.728230,409.885695L227.004822,412.076575L224.762417,410.465220L224.758538,407.397969L226.059837,403.751153L226.484703,400.627297L223.794227,399.143101L223.617678,402.987860L222.204420,404.366026L219.895286,405.044505L215.483179,407.758408L214.480789,407.122339L213.982091,405.602836L213.930254,403.892503L214.434787,403.468452L217.334142,401.517811L219.017692,399.319792L220.314824,396.980404L221.245024,394.365358L221.852131,391.382765L221.513161,387.764037L219.830317,385.459903L217.450283,385.368020L215.060860,388.357737L215.857665,390.322595L215.363304,391.934052L214.014939,393.234520L212.257882,394.294680L211.085855,393.913023L209.869343,392.746845L208.807525,392.527745L207.996329,394.944910L206.536429,396.471532L203.428850,398.302054L200.113091,399.807456L198.038762,400.330458L199.329591,404.274148L201.654731,407.878554L209.333919,416.663241L226.424956,427.949416L229.289685,428.790387L233.339476,428.048354L235.877523,426.225066L238.048441,423.907073L241.058346,421.673869L238.419088,433.504024L238.696638,438.634535L242.986770,440.754558L246.163014,442.888701L247.015494,447.934272L247.137017,453.870144L248.170708,458.647033L248.961307,459.820047L250.092027,460.865863L251.439790,461.402902L252.934052,461.021321L254.011836,459.834179L254.081090,458.555171L253.779125,457.148963L253.687673,455.629686L254.637407,454.230533L261.163969,449.651445L263.073172,448.782260L268.276852,448.739861L271.097886,447.870673L277.111001,443.878035L279.170137,441.941765L277.972445,438.139861L279.356532,436.641701L283.980528,436.005688L285.701182,434.578187L287.286903,432.599463L289.096169,430.846869L291.501314,430.083640L297.252944,429.164936L301.102360,426.437076L303.099270,421.984823L303.250554,415.857575L301.024386,408.479284L300.420904,404.231743L301.756128,400.924135L302.987851,398.556489L304.161210,394.563254L305.014711,390.308460L305.305779,387.184471L304.278858,384.696566L299.596518,378.837189L297.964115,377.692159L295.603116,376.462308L293.535468,373.627975L288.463226,363.145665L282.891608,339.232181L281.325792,336.637843L279.295661,335.216956L276.629357,334.770958L276.019427,332.862286L277.254233,328.585401L280.148704,321.728119L278.001870,319.677974L277.249199,316.828957L278.082559,313.767827L280.709647,311.053083L279.461227,308.649384L277.667097,307.136459L275.751597,305.948737L274.072908,304.478219L271.690515,303.290489L269.232529,304.464080L266.749143,306.372924L264.320665,307.390970L261.938101,306.768831Z M308.280851,261.562044L309.374821,259.603494L308.974317,259.525717L307.585849,261.109528L305.645872,262.254959L303.278859,262.424653L301.592316,262.269100L300.669600,262.353947L299.450056,262.912521L298.456737,263.697351L298.279671,264.022595L301.000326,264.079159L302.304826,264.234711L304.598520,264.227640L306.528344,263.386247L308.280851,261.562044Z M99.092186,241.650945L98.784761,241.523670L99.173125,243.220667L99.480574,243.347942L99.092186,241.650945Z M97.548029,239.246857L96.511363,237.281155L96.333976,237.945817L97.369635,239.918588L97.548029,239.246857Z M481.880370,237.111454L476.748565,237.168021L477.767140,237.168021L473.468916,250.093455L470.351739,256.909590L466.009079,261.010540L468.197316,261.420633L473.897227,258.330785L477.238780,257.446958L480.026531,257.821701L485.942010,259.455011L489.137338,259.822682L494.716142,261.682244L502.358386,270.739549L508.006304,274.062637L519.526648,276.862495L524.858070,279.068431L528.141803,282.363172L537.626621,301.452326L541.738231,305.397294L546.672066,308.295897L550.736032,312.544781L552.241436,320.540450L551.750766,324.251899L549.160034,334.177151L548.265353,335.414891L543.371409,339.628045L542.334151,340.759083L541.821499,341.451841L540.558305,344.364236L538.126058,352.295417L537.324433,356.748661L537.948275,358.713722L539.749386,357.116228L541.860222,354.331194L543.210264,353.426406L542.760342,357.420176L542.015237,359.830550L541.078740,361.371482L538.257445,363.993876L537.324051,365.174299L536.513335,366.517290L535.662028,367.634089L534.611787,368.100598L520.346164,365.457035L517.889733,365.647881L517.272221,367.252399L519.867546,371.118757L522.374751,372.963565L528.496480,375.790835L530.699004,377.692159L532.072985,382.533769L532.795215,388.909030L534.598421,394.443103L539.229380,396.768374L538.122324,391.156596L538.542023,384.470392L540.641172,372.299152L541.773991,369.881810L546.134930,363.901987L547.425171,360.388962L549.193301,352.097494L549.021716,349.227588L547.766819,344.774231L547.556540,341.678048L548.560416,338.334415L549.409917,337.790100L550.929403,337.104402L552.455463,335.994557L553.318401,334.177151L553.683690,332.657280L554.723907,329.872007L558.119865,315.139330L557.801302,311.830746L556.216450,309.427053L552.193963,306.309296L543.965440,298.949582L536.328313,289.595953L530.315210,278.269487L528.247156,276.268587L525.872496,275.554482L519.020755,275.250457L512.367201,273.497006L507.387266,270.209267L490.788120,254.745972L488.035668,253.897492L486.962197,252.052042L486.129139,248.700520L484.709036,247.067176L481.873593,250.333860L482.062496,246.685355L482.561602,243.715624L483.689197,241.042853L485.728852,238.355928L484.146883,237.436714L481.880370,237.111454Z M108.360406,202.371355L108.068531,200.483343L106.354258,200.971257L103.073473,203.523960L100.478947,207.208045L98.838564,210.538558L97.987875,213.062952L98.405728,213.826633L100.107067,213.876130L104.072119,214.554957L104.782019,213.635713L103.501730,212.235630L101.398692,211.245672L100.047588,209.873871L100.751327,207.589888L101.758608,206.253437L103.066231,204.782632L105.401480,202.760271L105.833224,203.622957L104.372911,206.239295L104.380723,207.823236L106.315216,207.208045L107.378254,206.698921L107.571554,207.462607L108.202855,206.013017L108.360406,202.371355Z M319.335218,210.580985L315.419356,200.037856L314.242005,198.277122L312.415306,197.909418L311.206057,199.316592L311.883806,201.480384L314.361362,205.037194L316.028869,209.633452L317.543758,211.959856L319.338243,212.150777L319.335218,210.580985Z M376.965716,109.376377L377.822932,108.054053L377.161109,107.028722L373.747066,103.514321L372.518168,102.665775L371.998385,106.067034L372.690611,108.351045L373.059907,110.762343L371.581362,114.637401L376.965716,109.376377Z M427.260309,78.949224L426.399926,78.185554L425.029727,77.909784L423.769020,78.291619L422.764661,79.210851L421.962330,79.748249L421.335023,79.663397L420.986421,80.384643L421.717065,81.275594L422.231438,82.562525L422.532515,84.485854L423.717196,85.192962L424.312441,85.178820L424.906032,85.101038L425.859376,84.379788L425.821380,82.364535L426.309793,80.313932L426.623915,80.243222L426.608554,80.115943L426.318625,79.818960L426.495931,79.550261L427.027610,79.628042L427.283795,79.762392L427.384313,79.592687L427.260309,78.949224Z M340.146172,57.955689L340.830699,56.937496L342.452670,55.233442L342.109785,54.717277L340.250758,56.103145L339.313891,56.930426L338.744816,57.439522L337.522174,58.167813L337.917032,57.651645L339.603966,55.848598L339.077362,55.021319L334.433442,55.919305L333.525057,56.612241L333.578699,58.097105L334.003806,59.567832L335.604478,62.184037L335.844206,62.848696L336.076029,63.343656L337.044801,63.301231L338.238785,61.802212L339.096525,59.963797L340.007459,58.712264L340.146172,57.955689Z M244.044015,34.649950L241.535979,32.876202L241.309239,29.779363L240.026699,26.039145L238.002921,22.610052L235.539221,20.481908L233.131256,27.827941L231.894147,29.970263L227.013467,34.827647L225.600698,37.083131L231.578455,38.263906L234.756697,40.597198L234.786121,42.440896L231.699940,44.371618L229.216234,48.283754L226.725137,50.198194L225.970409,52.371015L223.821117,53.968678L223.029169,55.374213L221.732311,56.179502L219.798189,57.310448L217.589383,58.295794L214.166322,60.545824L210.534645,62.187993L206.995597,62.137842L202.574254,59.962862L200.154608,60.341908L197.108389,60.918358L193.769618,54.533438L176.831679,41.827461L176.066181,40.575971L175.093992,39.791140L173.855767,39.430543L172.254718,39.458825L173.377955,42.082001L179.414360,48.239782L192.162115,65.119338L197.921276,69.281479L200.894112,73.034259L206.451733,75.234007L212.419730,75.848262L213.942530,75.114829L217.105093,74.826888L218.698267,73.599165L221.624566,71.644415L225.079382,69.970552L227.992954,68.151857L231.065478,67.218497L236.257405,63.145672L239.190845,62.212320L241.954899,61.745645L274.583870,53.363813L282.859845,53.359433L304.000816,49.060708L313.215971,46.911228L323.024967,46.331435L324.876217,46.684967L326.124123,47.533445L328.257800,49.803129L329.253253,50.248582L332.211558,49.018284L333.928334,46.218305L334.374475,42.888047L332.757467,36.743747L333.766642,33.173161L335.110432,29.630885L335.312903,26.406802L332.798184,27.439071L331.149124,29.355140L329.759489,31.596455L328.028665,33.533753L325.570942,34.551899L316.110726,34.721590L313.024411,35.167029L307.916733,37.408374L302.944834,38.936211L295.975993,37.881141L290.297637,40.182042L287.560210,39.637285L283.290339,37.439369L279.940697,39.065721L277.406572,42.209305L272.547912,42.029390L265.208650,40.639606L258.660584,38.863101L255.430648,39.719404L244.044015,34.649950Z M346.837297,0.000000L339.889670,1.293784L333.913524,4.955995L332.800253,5.210513L332.315474,5.465031L331.764044,6.143747L334.908999,6.058907L339.929186,4.234861L351.836796,3.301632L354.478690,3.754107L356.896927,4.984275L360.588255,7.925382L362.241863,8.505123L368.131856,8.519263L370.760908,8.872763L378.978367,11.898743L382.400847,12.492630L385.139112,11.531099L388.158539,9.947407L391.446352,10.053458L394.468081,11.333137L396.657883,13.242059L399.855802,18.261862L404.616497,30.118741L406.086000,36.008416L404.758165,38.730560L405.495591,40.533548L407.668382,41.530497L410.647880,41.827461L411.607667,41.367874L412.489655,40.434560L413.296402,39.769929L414.028957,40.052750L414.412786,40.901217L414.863175,42.760777L416.163311,45.072864L416.321539,46.585978L415.915967,48.000108L415.061592,49.060708L416.140456,53.324341L417.318642,56.272844L419.645534,57.991043L433.057277,60.119355L436.253598,61.816353L441.278057,63.287089L441.919139,65.846744L440.748327,68.979153L438.792869,71.701463L437.976960,72.210571L436.833019,72.691396L435.782525,73.412635L435.171879,74.621771L434.786806,77.952210L434.480380,78.821945L433.099171,80.893757L431.579860,82.555454L429.804239,83.531260L427.613188,83.573686L425.829817,95.827933L426.790232,97.913930L426.704431,99.589801L420.788740,106.929725L422.887327,109.546087L422.941095,111.787677L422.265029,116.369866L421.295060,118.922604L419.744241,120.577290L418.119207,122.055194L416.876708,124.013949L416.815345,125.894922L417.745949,127.181904L418.832741,128.214319L419.238489,129.416447L418.976583,131.495422L419.015514,133.135975L419.378201,134.571459L420.118711,135.992802L416.031942,137.689928L412.049963,140.773042L405.558112,147.321130L403.608131,148.268694L401.398396,148.530334L399.484814,149.060687L397.126804,153.360082L394.633629,155.170353L391.776958,156.146203L389.363177,156.167417L391.682623,160.389025L402.166433,162.906431L404.199833,165.169267L404.563411,168.761516L406.158020,174.192310L408.832651,179.128099L412.415590,181.306065L418.620059,175.875288L421.134713,163.337784L422.608733,149.343542L425.735217,139.556767L426.039367,136.261513L429.489349,122.981536L431.587915,118.682180L435.546492,114.715185L440.237977,110.861341L445.268155,108.131836L450.196419,107.523709L449.066549,110.125930L448.638766,110.861341L451.383626,110.281497L452.721380,109.645084L454.077170,108.598539L455.532357,107.163076L455.903808,106.477166L455.813039,105.805398L455.877963,104.398223L455.688607,103.514321L455.088105,102.665775L454.554940,101.477811L454.523064,99.589801L454.963588,98.295774L457.527435,94.258136L455.296399,93.579305L453.500042,92.462064L452.439981,90.616498L452.395254,87.780981L453.701362,80.031091L454.371737,78.821945L456.544818,77.598660L456.983171,74.784404L456.393803,71.602470L455.423807,69.339770L453.944184,67.748815L449.010414,64.588128L442.776136,59.136512L439.039721,57.015275L430.250945,55.240513L426.807787,52.709188L424.363772,48.905153L422.972195,44.203178L427.792075,44.379943L429.901045,43.736518L431.489991,41.827461L426.632201,41.481003L423.345987,40.307290L420.620004,38.101284L398.088460,10.230209L392.652123,5.281212L385.405612,1.392762L381.516664,4.206582L373.834628,3.471310L360.712530,0.205026L346.837297,0.000000Z "/></g></svg>