<?xml version="1.0" encoding="utf-8"?><!DOCTYPE svg  PUBLIC '-//W3C//DTD SVG 1.1//EN'  'http://www.w3.org/Graphics/SVG/1.1/DTD/svg11.dtd'><svg enable_background="new 0 0 1000 1263" height="1263px" pretty_print="False" style="stroke-linejoin: round; stroke:#000; fill: none;" version="1.1" viewBox="0 0 1000 1263" width="1000px" xmlns="http://www.w3.org/2000/svg" xmlns:xlink="http://www.w3.org/1999/xlink"><defs><style type="text/css"><![CDATA[path { fill-rule: evenodd; }]]></style></defs><metadata><views><view h="1263.61237586" padding="0" w="1000"><proj flip="auto" id="robinson" lon0="-78.3693324551"/><bbox h="100.7" w="79.75" x="-1133.85" y="-451.78"/></view></views></metadata><g class="" fill="#000" id="country"><path d="M800.699644,1261.612376L848.213217,1260.248451L892.017350,1252.844290L914.502074,1223.463531L922.000357,1208.060414L927.248287,1185.560742L919.054350,1182.648290L902.196554,1205.455624L883.193245,1216.018351L871.186691,1215.669679L849.881763,1206.091439L831.693637,1208.388576L818.908517,1222.017566L801.041049,1226.765662L802.512689,1231.195850L802.351397,1235.533741L797.674730,1246.547680L797.925494,1253.592910L800.699644,1261.612376Z M949.452265,1142.048097L936.437209,1130.510949L923.004858,1140.232922L924.086941,1152.354578L949.452265,1142.048097Z M948.747143,948.316603L933.710424,942.798569L925.624850,958.470526L934.691762,961.229504L958.176396,960.880786L974.639971,962.767965L992.068401,977.393485L999.603996,969.670496L997.231134,966.101288L985.854997,957.444882L965.809001,951.137147L959.659816,951.352534L948.747143,948.316603Z M731.859567,993.536719L754.793212,974.111478L777.621331,962.573093L807.058777,925.341683L803.166187,895.442660L809.419994,884.877748L790.119640,888.139551L785.425007,895.124689L784.085947,905.043280L793.633528,919.126051L794.106540,927.649457L787.506002,938.090780L776.095720,944.080643L772.832580,948.542247L764.482517,954.285891L749.071406,970.511515L722.481289,988.962484L718.382069,999.854468L731.859567,993.536719Z M771.575963,886.467622L751.109908,878.815685L744.052863,867.963349L729.246524,862.075534L727.076276,869.645573L728.054064,877.861752L731.896769,888.949871L737.855585,888.231866L762.670848,898.663393L775.254268,890.232021L771.575963,886.467622Z M633.895895,850.576729L635.678993,828.399225L621.371582,809.862731L599.946904,796.824309L596.662147,758.456373L587.420449,736.214178L582.827317,713.499171L568.110612,687.951364L567.103206,704.449845L570.430887,708.984786L576.428705,728.663129L587.917685,757.707456L591.005015,772.090595L587.431688,785.385983L575.650006,787.889096L571.498616,793.644166L586.771869,803.779534L614.295564,813.976296L632.079669,855.962007L633.895895,850.576729Z M499.093969,733.803188L483.916001,725.431332L475.684271,714.391783L452.976584,692.353061L442.437691,687.315218L435.737569,701.730914L450.148946,703.936840L478.548621,729.494160L491.363698,735.044593L499.093969,733.803188Z M739.497522,603.952627L737.276187,591.884156L733.413046,591.637857L722.886452,596.173836L714.790888,624.784360L722.181695,626.723819L739.497522,603.952627Z M160.650229,565.827048L153.849920,557.821794L143.214386,561.526808L126.187608,564.133641L119.578323,567.397292L107.883038,565.067581L97.893698,572.056675L109.676642,599.149907L119.404139,609.771240L123.234736,642.731752L128.156817,647.185147L125.867162,670.262120L161.259332,673.073560L174.881776,645.697266L175.586462,636.995637L174.489026,630.992654L174.230226,626.313352L175.836814,620.854109L174.782115,589.503263L167.343617,572.785340L152.230124,593.361945L140.503711,583.899904L160.265839,570.640392L160.650229,565.827048Z M584.163268,576.223393L552.697218,528.437104L551.834247,523.777237L535.599707,475.143034L525.951724,471.642533L522.632448,473.356859L518.481120,480.645225L531.576177,494.277177L533.788828,506.984848L541.051585,515.001351L554.310317,548.810572L567.837264,562.399175L565.941925,571.820628L552.195954,581.713960L547.206127,589.031188L553.660696,588.918300L572.106125,584.741439L583.935779,586.906844L584.163268,576.223393Z M239.627450,405.125888L254.713313,398.821677L253.918234,396.316390L245.100935,390.587022L222.973201,391.069606L208.521945,395.915953L201.422295,401.727378L204.650768,405.187493L218.593329,409.490262L239.627450,405.125888Z M158.679353,469.558641L143.925027,451.275329L134.249689,420.065323L126.339321,407.035611L128.493252,390.207114L119.852018,377.947199L98.349347,365.491813L89.228861,367.822734L93.312583,403.339364L85.569149,425.475935L59.819385,459.785752L62.435613,472.884650L64.793016,473.788005L66.908181,480.829998L51.200830,494.195058L49.168287,483.303904L31.311091,486.342372L41.225465,503.874689L59.064982,516.787337L70.500236,520.297698L79.598333,514.539457L78.999857,531.588129L88.418862,541.615824L91.732670,557.842320L104.291969,547.856069L123.743021,540.681832L129.766197,533.569054L151.122491,520.841699L153.908603,514.057034L154.635847,495.016245L158.679353,469.558641Z M380.575136,305.541198L371.864971,289.243169L368.533609,292.036556L362.302174,306.978938L354.870017,318.275356L371.228659,314.937800L383.878656,317.268956L402.833511,336.215666L425.495217,342.305170L438.012071,361.333091L457.212475,382.947730L455.779287,402.579575L443.702428,421.451351L438.577522,445.372326L419.249367,446.378410L422.152058,450.957082L431.585616,459.693360L435.950777,474.886401L441.426547,481.753865L443.771147,458.553857L453.703521,432.087654L464.665369,388.122750L463.962633,378.491408L453.709528,367.915149L430.702191,338.218125L406.700202,329.263481L380.575136,305.541198Z M90.438593,44.381551L74.170583,29.891891L65.142445,44.987434L66.495022,49.516180L62.690250,59.076982L46.289412,71.729097L30.308630,75.220795L8.785178,56.078303L0.396004,52.699674L28.180728,86.568930L37.195089,92.412514L50.484573,91.180120L80.194478,80.068122L133.747534,63.667453L190.027956,58.193808L191.669926,52.360785L189.695518,41.187835L162.602105,47.482861L130.664075,45.726819L122.934689,50.029645L111.112209,50.923077L90.438593,44.381551Z M211.355388,0.000000L195.441897,7.680722L221.918783,8.163338L271.243680,19.787372L295.682115,67.662319L310.109058,79.698409L313.461784,94.877307L306.908846,108.392712L306.369472,121.631001L299.081496,136.923509L294.749018,164.838588L284.201765,177.635654L262.147698,192.527926L273.770358,198.649160L286.081206,219.713945L290.119109,217.875532L298.058999,207.091522L311.909548,147.173374L338.307231,127.587767L340.026603,86.209484L325.134105,72.098806L309.486050,63.359366L308.157660,58.265694L309.669901,52.843445L305.082834,48.037402L293.250943,40.479264L281.901681,21.800044L269.111507,7.711527L244.640887,5.503819L224.675445,0.934412L211.355388,0.000000Z "/></g></svg>