<?xml version="1.0" encoding="utf-8"?><!DOCTYPE svg  PUBLIC '-//W3C//DTD SVG 1.1//EN'  'http://www.w3.org/Graphics/SVG/1.1/DTD/svg11.dtd'><svg enable_background="new 0 0 1000 572" height="572px" pretty_print="False" style="stroke-linejoin: round; stroke:#000; fill: none;" version="1.1" viewBox="0 0 1000 572" width="1000px" xmlns="http://www.w3.org/2000/svg" xmlns:xlink="http://www.w3.org/1999/xlink"><defs><style type="text/css"><![CDATA[path { fill-rule: evenodd; }]]></style></defs><metadata><views><view h="572.119306929" padding="0" w="1000"><proj flip="auto" id="robinson" lon0="90.2941486759"/><bbox h="27.89" w="48.83" x="1272.21" y="-475.57"/></view></views></metadata><g class="" fill="black" id="country"><path d="M349.375481,570.119307L350.433587,570.101573L351.522958,568.452309L352.002580,566.164626L352.067144,564.160692L351.906841,563.415868L351.909866,562.653310L351.726954,561.092730L351.987673,559.319346L353.256283,557.971576L354.474981,558.077979L357.239222,560.276973L358.456881,560.844456L360.857965,561.228685L361.227394,561.287802L367.579071,563.220795L370.644656,563.699610L376.889164,563.061190L394.405047,557.865173L427.162868,554.478025L437.673200,551.161825L443.640900,544.174793L446.965585,523.480045L455.472097,516.812443L460.728592,516.333655L471.624684,516.776978L476.664538,514.897292L480.723028,511.049272L483.811357,506.899816L487.325076,503.371023L492.858358,501.314046L503.102415,502.980906L534.307260,523.355913L570.879405,541.319702L609.697670,545.788544L675.619865,541.732311L693.853058,540.610364L695.282677,539.852280L708.365053,532.914089L717.113955,532.843155L727.688007,534.173152L748.450767,533.676620L759.008546,536.141550L768.751706,541.674371L773.214376,543.376785L779.213616,543.199450L783.817026,541.798505L788.293732,539.457692L792.213253,536.301150L795.188099,532.364357L797.346752,526.015876L798.467052,519.791578L800.423026,514.418505L804.907209,510.623685L808.830928,509.932108L820.834205,510.676884L825.341894,511.989109L828.982836,516.386854L838.784426,531.725960L843.381403,535.308084L848.784718,534.882484L858.651223,530.998898L863.914888,530.786099L877.701539,534.829284L882.411801,535.183951L896.222800,533.286487L903.990356,528.924113L920.095873,516.120860L928.515144,514.418505L934.661175,517.539493L937.307703,522.557926L939.275326,528.126120L943.345110,532.843155L948.044670,533.446087L949.683809,529.527041L948.247586,523.887905L943.833558,519.277322L949.504379,516.120860L948.482434,511.049272L946.880227,506.562895L951.041459,505.250679L956.615856,507.484994L967.611281,515.854867L973.324552,518.479338L990.583285,515.659806L999.124526,504.364048L999.008235,492.763964L998.951949,487.358682L989.965988,467.623058L989.958759,467.587594L982.665046,456.647261L964.921604,441.309843L959.059194,430.157216L957.834036,423.898364L957.376635,417.550931L957.641313,411.629089L958.700469,406.629260L959.271267,405.426295L959.819280,404.271201L962.760777,400.033813L963.828376,397.285734L964.064016,394.324916L963.655606,387.818269L964.072551,384.715673L967.067937,379.591998L974.523041,371.454505L975.323111,365.550917L973.322642,361.473406L937.300783,311.925627L929.075804,303.771601L925.879083,304.976969L918.650702,311.766090L915.184062,313.131018L904.322841,312.439691L896.716275,313.840073L875.695335,322.153828L867.230213,323.075619L865.140572,320.469793L863.700453,315.187280L857.345299,308.056322L857.326044,308.034720L850.217394,305.030147L842.688967,303.629793L835.545327,301.467231L829.804567,296.043147L826.027317,290.317801L816.224158,283.289738L812.440585,278.406502L800.737492,253.255679L799.888058,240.131461L809.321667,220.087121L807.981456,205.333704L801.166620,181.197918L799.780214,173.356811L800.534482,164.940008L802.501327,158.091547L802.200763,151.393838L796.138791,143.509146L790.575973,139.744052L783.772876,136.811740L776.930382,134.951375L764.553493,133.356784L751.759214,128.307302L741.037856,128.209857L736.658065,127.527740L733.521680,126.492255L727.964523,124.657552L702.656399,112.370967L691.420151,103.512885L683.121952,91.510600L678.525926,97.870422L671.740199,98.348743L664.021349,97.179516L656.756621,98.649908L652.233954,103.140851L643.162933,118.013699L640.449715,124.604401L640.396933,124.639835L640.400768,124.657552L634.250579,132.559492L623.029007,135.606931L610.129458,134.242667L599.141459,128.989421L593.943918,124.657552L576.200626,111.653452L558.220860,107.755874L539.770638,106.568894L529.427232,103.934239L520.644113,101.697010L506.188699,92.998680L501.142151,91.882620L496.585175,93.025253L489.105111,97.834991L482.119488,98.649908L476.004986,100.279750L456.323840,97.445249L451.193862,97.338956L446.270190,98.047578L445.440235,80.114352L451.896852,69.957738L461.275044,68.829247L464.591717,57.544587L472.513546,54.159277L467.161914,42.875206L454.629143,38.361707L441.874960,37.233343L424.974094,25.949966L413.429983,25.949966L403.536148,20.308454L393.916506,20.308454L390.012530,35.164094L378.481921,33.260095L366.981507,20.308454L364.261914,7.897547L351.948078,0.000000L344.996619,3.384634L339.995068,11.282282L333.508868,12.410537L323.863583,7.897547L307.732485,4.512855L286.085317,12.945706L280.767638,13.831218L275.928780,17.187337L264.744618,14.667061L255.922794,20.862291L253.443258,19.808504L250.676467,21.455601L248.715632,24.377896L245.658509,31.010737L243.713444,34.012837L235.277832,40.513072L231.686184,44.427457L230.758837,49.909460L227.667255,59.642716L217.681397,64.885882L184.028559,71.493119L179.031578,73.264522L174.526055,76.692217L164.818696,94.770214L160.080729,99.535691L154.721298,101.821021L150.876450,106.462597L147.919777,112.158370L143.747729,124.657552L143.687277,124.657552L143.071595,126.739477L135.011891,153.927611L127.945020,167.739679L119.045608,176.254013L108.317025,181.977608L99.846050,188.746815L100.036419,201.322168L97.553955,215.231455L89.826989,237.487429L84.159020,250.656173L84.247620,254.922202L82.496897,253.773587L79.306039,252.381890L78.173604,252.143916L77.098517,251.917992L73.771296,251.144831L66.421469,254.546754L63.135320,257.175534L60.822222,261.969237L60.055308,267.226914L55.261535,268.309385L52.380693,273.567146L53.801950,277.278549L51.093110,281.453917L47.375075,283.928230L46.676658,288.258313L48.095484,291.969850L50.132557,295.008384L51.362361,296.843020L47.474559,301.851546L46.414417,309.086189L46.173937,317.248496L52.767827,331.045560L60.454738,344.180320L66.743463,352.333118L60.672714,358.674280L53.387456,353.238993L42.760516,352.333118L37.131557,357.590938L36.890726,367.607414L34.799526,369.617874L31.192045,373.085539L14.495342,377.872299L8.143500,383.208704L3.781608,392.906567L1.361397,404.164823L0.875474,414.058100L1.894448,414.737875L5.101177,416.877185L25.499315,427.072108L33.088747,432.267156L38.489708,440.033220L41.640778,448.845520L45.335134,467.587594L45.342110,467.623058L50.459297,484.574735L53.709241,478.120280L58.384152,473.066697L64.166450,472.339694L70.705127,479.006877L72.257692,483.209365L72.502246,486.773520L73.121975,490.089443L75.864093,493.564972L79.297243,495.462335L82.825878,495.834715L85.939046,494.859434L88.307486,492.713820L94.482390,492.359174L102.480670,495.816983L110.361861,501.154454L116.051458,506.527430L121.733948,515.127820L125.477198,522.114601L130.578770,527.133063L140.373716,529.863972L157.152896,530.857032L165.264718,530.005838L173.032117,527.700524L176.017979,525.288819L178.409248,522.008202L181.026102,519.419185L184.697653,519.046793L188.783351,519.241856L200.289894,515.837135L209.419837,521.661260L222.304941,529.881705L233.833444,535.503151L251.731528,533.215555L264.197019,535.325817L276.715040,539.954228L285.341055,546.160949L287.128150,552.137177L284.286098,561.607012L288.477849,564.604040L293.886050,564.497636L303.271159,560.046433L309.762836,560.365642L326.910186,567.672014L331.738158,568.458628L333.440911,568.736054L345.097215,568.629650L346.313231,568.877926L349.375481,570.119307Z "/></g></svg>