<?xml version="1.0" encoding="utf-8"?><!DOCTYPE svg  PUBLIC '-//W3C//DTD SVG 1.1//EN'  'http://www.w3.org/Graphics/SVG/1.1/DTD/svg11.dtd'><svg enable_background="new 0 0 1000 1114" height="1114px" pretty_print="False" style="stroke-linejoin: round; stroke:#000; fill: none;" version="1.1" viewBox="0 0 1000 1114" width="1000px" xmlns="http://www.w3.org/2000/svg" xmlns:xlink="http://www.w3.org/1999/xlink"><defs><style type="text/css"><![CDATA[path { fill-rule: evenodd; }]]></style></defs><metadata><views><view h="1114.29420165" padding="0" w="1000"><proj flip="auto" id="robinson" lon0="24.4709683822"/><bbox h="152.79" w="137.24" x="288.14" y="298.18"/></view></views></metadata><g class="" fill="#000" id="country"><path d="M63.946048,1112.294202L64.253018,1111.953222L66.565153,1110.248316L73.451698,1106.952134L78.483661,1103.378068L81.251383,1101.875178L87.118262,1101.079527L91.466458,1103.037077L95.540108,1105.790252L109.186562,1109.061190L112.429960,1108.960158L121.658912,1106.207015L123.149983,1106.181756L126.057548,1106.573260L127.528785,1106.510114L136.412370,1104.009532L141.203064,1103.845351L143.567848,1104.300004L148.591823,1106.750068L157.487363,1106.990022L163.611883,1108.745464L165.823216,1108.783352L168.233126,1107.823543L174.351303,1103.580136L176.377038,1101.622591L177.634974,1099.462961L178.172987,1097.227537L178.176936,1094.865801L177.496494,1089.384483L177.716035,1087.477367L179.018829,1086.189110L181.854891,1085.140819L185.178438,1084.521947L195.324379,1084.446167L202.003161,1082.778996L208.328317,1078.787858L213.865310,1073.205249L218.146694,1066.763684L221.965119,1057.075910L224.170969,1052.692988L228.600822,1048.133200L229.817327,1045.708037L230.792185,1044.975434L235.633987,1044.078626L237.293656,1043.497595L239.878444,1042.095540L245.599435,1036.537823L249.395437,1030.992706L251.792841,1028.984331L255.142806,1028.340135L259.838847,1029.426427L261.670144,1028.655918L263.778409,1025.447564L265.696730,1021.216066L266.952051,1019.586621L269.079302,1018.045595L270.146892,1016.940449L270.409334,1016.668776L275.110574,1009.595204L275.263250,1008.180490L274.931026,1006.955246L274.927629,1005.868948L276.087890,1004.883700L279.117841,1003.708983L280.182183,1002.925838L281.184520,1001.384811L281.788417,999.338532L282.236248,996.458585L282.319740,993.730219L281.850183,992.189199L280.610127,989.991354L281.819443,987.945088L284.008327,986.012507L285.684492,984.168348L286.905179,982.109462L286.799447,981.351590L286.230965,979.595858L285.550763,978.383268L284.944826,978.143277L284.562336,977.751711L284.564347,976.059142L285.313934,973.406616L286.825061,970.905672L291.768576,965.082804L292.429753,963.882870L292.758150,962.619785L293.065106,960.876733L292.963173,959.550501L292.610876,958.489518L292.785102,957.516953L294.256544,956.354928L295.252683,955.167646L294.823956,953.879321L293.886742,952.578370L293.334719,951.378466L293.446646,950.342762L293.784262,949.344953L294.692567,947.463014L297.124663,939.897456L297.882818,938.697590L300.598817,937.560878L301.801118,936.121049L303.693909,931.372179L304.628133,929.869226L305.574437,928.820952L306.702728,928.063166L308.185176,927.381160L309.413282,926.572859L309.889188,925.625633L310.174580,924.577373L310.797546,923.491228L315.080104,919.083541L317.623846,917.694312L320.110122,918.073192L320.758909,919.070912L321.158468,920.308594L321.780257,920.940066L323.093535,920.169670L324.130197,919.285611L332.186731,915.320010L337.242316,913.753992L342.461926,913.362489L348.142986,914.511742L352.834006,916.456642L354.441179,916.860778L356.311994,916.709227L359.808746,915.357898L361.175448,915.092685L362.659384,915.585224L363.546479,916.570305L365.031555,919.171947L366.336710,920.725365L367.350205,921.546281L370.347776,923.049193L372.912654,924.766817L383.559339,933.973945L384.293744,935.186426L385.537445,936.626251L391.308792,938.533398L392.250774,939.468030L393.203501,942.019334L393.856540,943.105538L394.801680,943.737053L396.890134,944.469612L397.792457,945.088499L401.504664,950.645895L406.075312,954.283501L407.542036,956.683326L409.471803,957.996920L414.954287,956.569650L416.155619,956.809633L417.193789,957.516953L418.241462,958.476888L418.291061,959.474717L417.677700,960.523071L417.801396,961.104087L420.059739,960.750425L431.092114,957.630629L436.594812,957.592737L441.093091,960.409394L447.882431,969.516263L452.129844,972.977160L457.355800,973.911859L460.273835,973.128733L462.420590,972.181405L464.523595,971.903522L469.055650,973.714887L476.847772,976.829640L482.190376,980.833712L485.847872,981.717895L493.534836,980.808450L496.924725,981.629476L499.806423,982.437872L502.997371,982.046306L509.331023,980.290572L511.455688,979.368497L517.944569,974.328684L522.819038,971.903522L526.877996,971.271971L530.880223,971.979308L535.585111,973.558189L539.927614,974.379208L561.906773,971.966678L569.643818,968.013177L583.712739,956.809633L586.351169,949.445996L591.554838,937.720715L592.819321,934.870675L596.965245,918.982506L607.219492,897.159837L609.929801,889.027356L613.397745,883.104980L613.815538,878.558688L617.237533,871.108787L618.534950,867.181914L618.828165,862.257643L618.174447,853.331115L618.470258,850.338854L619.094906,849.758083L619.905083,849.606578L623.426945,848.344037L628.809167,848.558668L630.435881,847.674893L633.971271,845.010965L650.221751,839.673878L662.265160,835.719030L667.228319,834.974177L669.193739,835.176171L671.166768,835.668532L673.057402,835.845277L675.387761,836.242853L675.425348,836.249266L682.626832,828.750333L683.465376,827.349045L686.957139,818.663772L689.772830,814.977680L692.748492,812.478238L699.816452,807.744521L706.525245,800.663054L707.540925,798.845384L709.818647,797.545254L719.247016,794.339137L721.515337,793.013786L723.265455,791.398129L724.475620,789.264973L727.008302,778.548979L727.473583,773.109110L736.391316,740.674137L736.947266,737.380368L736.340186,734.894292L739.606170,729.070394L739.435184,728.087523L739.228529,726.899870L739.872617,724.615789L742.090730,720.741725L744.176862,715.719396L745.234999,714.823461L746.310625,715.315594L746.829046,716.804615L747.582745,718.142217L749.383769,718.230550L751.051599,716.968661L751.067531,715.214643L750.502742,713.082074L750.446010,710.659292L751.152928,711.012613L751.848570,711.492121L752.226674,710.369064L752.869480,709.637186L754.874070,708.148199L754.167134,708.148199L755.072664,706.671837L756.126035,705.763309L757.296206,705.624507L758.550909,706.482560L759.085536,705.031442L758.545147,704.249103L757.712216,703.441530L757.324505,701.939953L757.826038,700.968348L758.912169,700.766456L760.096311,701.271185L760.892999,702.394211L761.388202,701.561405L762.217852,700.551947L762.512606,699.820091L763.229271,700.791693L764.045881,701.245949L764.993357,701.220713L766.071140,700.728602L764.689067,698.381622L765.913756,696.943159L769.889670,695.643500L774.030913,693.473208L775.936229,692.022148L777.748472,690.230413L780.423424,686.003472L782.002649,684.666003L783.008920,688.451306L784.105916,687.782566L785.172516,686.356766L785.509687,685.650178L786.813429,684.981443L788.385122,684.401033L789.211845,684.640768L788.357958,686.407237L789.798599,687.252622L790.866522,686.508179L791.790647,685.107619L792.846895,683.908947L794.245152,683.315921L798.626603,683.151893L800.934407,682.420076L803.114608,680.918594L804.771971,678.723161L805.496778,675.985197L805.365340,675.177692L805.110855,674.206163L804.979371,673.398662L805.266525,673.070615L805.667573,672.868740L806.056519,672.338818L806.316984,671.644875L806.435971,670.950933L806.978905,669.083605L809.067439,666.736841L810.148912,663.330276L811.322619,663.368126L812.788649,664.150372L814.207528,664.655048L815.455129,664.150372L819.802733,660.491495L822.517583,663.935885L823.899292,664.655048L825.461401,663.822333L826.123258,662.686817L827.895910,657.993386L828.062083,657.930303L828.888022,657.249003L829.031629,657.084987L829.536759,656.870504L829.358029,656.378456L828.925234,655.848558L828.729219,655.495293L828.549658,654.902314L828.120429,654.057005L827.859086,653.110766L828.164345,652.151912L829.286028,652.379009L831.542699,652.543023L833.238350,651.886966L832.655099,649.653858L836.712186,648.543616L841.200730,646.575469L844.962739,643.837742L846.807293,640.418763L846.184210,635.246193L846.268173,632.458079L847.553991,631.246958L849.595534,630.893715L851.846452,630.010609L853.889432,628.913037L855.361568,627.916394L857.090761,626.061886L858.498576,623.614453L859.068960,620.902108L858.284087,618.290703L858.529589,616.966083L860.534913,615.982082L862.998281,615.225160L864.599497,614.506085L865.058213,613.761780L865.720566,611.894717L866.199905,611.175647L867.082250,610.696268L868.150906,610.431348L869.249399,609.989815L870.251070,609.043675L871.118650,607.454164L871.184652,606.482798L870.911788,605.536665L870.772490,604.048086L871.051120,602.471207L871.626743,601.310627L875.154552,596.794483L876.166578,596.100666L877.326018,595.760065L879.904428,595.482538L880.974137,594.839182L885.018971,589.982500L886.665309,588.519198L890.645482,586.172876L894.736014,584.999719L903.467085,584.343761L910.035072,586.198105L911.749426,585.643063L914.095890,583.536430L915.981473,583.170608L918.036948,583.498586L920.847843,583.511201L924.613576,582.186676L932.454725,577.544556L937.101991,576.018216L939.441303,575.627170L941.585153,574.983839L943.159729,573.684563L943.855382,571.350920L944.964881,569.736297L947.373999,569.610154L951.897852,570.190409L953.855379,568.626246L956.510959,563.731956L957.605481,562.684987L958.151121,561.246984L957.731283,552.682108L960.369004,549.238532L962.478889,546.968051L964.139249,545.946337L964.143373,545.378719L966.493378,542.149613L967.473085,541.708135L980.276972,540.938702L982.187770,540.169270L983.968334,538.554727L986.070872,537.053710L988.845988,536.700530L994.553167,538.037569L997.559228,538.352909L999.550882,537.608707L991.831735,530.091050L991.218456,528.955839L990.510711,526.546677L989.982826,525.449312L989.020969,524.061842L988.503805,523.683441L978.519936,524.011389L974.659992,523.267201L970.834159,521.047256L967.809883,517.376791L966.018475,512.722515L965.433407,507.551126L966.101915,502.392379L967.376348,499.768871L969.254132,496.830046L970.669679,493.979520L970.523969,491.633518L968.844167,490.157809L964.685979,488.707328L962.858973,487.345140L959.838854,486.550530L953.429688,486.134306L950.284042,485.213570L935.142669,477.418868L930.380376,475.766599L926.446379,472.272878L924.990073,471.755758L921.860859,471.427828L918.530003,470.469264L917.352666,470.683679L916.224825,471.263863L912.462950,472.298104L910.750601,473.017027L908.961481,473.370183L906.715383,472.815224L898.334721,467.997181L894.194508,466.433213L890.316049,465.626004L877.738352,465.424201L869.897273,463.721497L863.801874,463.305280L862.103000,462.699875L860.669162,461.640416L859.450657,460.139517L858.897145,459.042222L858.053513,456.557545L857.550177,455.561153L856.844598,455.081876L856.244192,455.208001L855.736433,455.081876L855.372117,453.896296L855.985244,452.319729L855.589532,451.613427L854.852904,451.348564L854.496805,451.121538L854.764594,449.961186L855.640341,448.498135L856.036017,447.539585L855.794879,446.278335L852.957232,439.303636L851.316820,437.298256L850.687823,436.163137L850.552079,435.242429L850.686771,433.350564L850.488129,432.366795L849.567340,430.638893L845.986109,425.694830L843.483142,421.066082L840.513178,416.878773L833.416239,411.051859L831.887789,409.197842L828.475427,403.787141L827.708440,401.479080L827.819054,399.347592L829.372235,392.877454L829.626753,390.304533L829.097059,383.456019L829.141320,382.257843L829.517170,379.520958L829.541917,378.133596L829.740010,376.519210L830.398114,375.409320L831.206640,374.362491L831.832023,372.987740L833.848615,363.099604L833.810110,358.218585L831.580775,348.532190L832.597870,344.155639L834.071658,339.842141L834.582013,335.024126L833.882936,332.879979L832.428147,331.290785L830.581729,330.445737L826.329727,330.382673L822.709510,328.515998L816.656257,329.701589L808.217251,328.515998L796.242168,328.478160L792.545643,329.007892L788.473368,331.252947L790.838583,313.645561L789.513977,299.329901L784.711805,284.232012L783.407716,282.100376L781.550150,280.801210L779.373159,280.094867L777.161565,279.703855L775.872077,279.653402L774.816796,279.766922L773.747220,279.691242L772.466008,279.161484L771.357729,278.139807L769.643052,275.314420L768.727811,274.116151L765.266586,271.984488L761.856541,271.580859L758.335300,271.631313L754.551175,270.861894L742.828639,264.215716L738.897645,263.408447L736.391659,263.383220L734.307684,262.929131L732.542192,261.894816L730.993633,260.078454L729.613192,257.883677L728.846557,256.940082L728.506386,256.521399L727.021321,255.587985L722.273884,254.086952L720.351707,253.128307L718.970850,251.488518L718.323831,248.726095L717.515568,246.442990L715.788947,244.399542L711.625865,241.372203L709.634987,240.476613L705.492589,239.429654L703.575771,238.597131L701.641405,236.528436L698.909903,231.583727L696.576755,230.183562L693.381198,229.552856L692.553519,229.149204L691.297822,228.203144L691.339006,227.988704L692.055668,227.585051L692.881167,226.071351L693.735910,223.523284L693.511231,222.539375L692.520869,220.962595L691.725558,220.003912L690.728643,219.158755L689.600934,218.578498L683.931450,218.452356L679.252244,217.077397L675.230794,214.264402L672.727247,209.861982L663.762808,178.451534L661.534192,173.090205L658.499381,168.447901L656.074668,163.603733L655.317790,161.307791L655.034764,158.368473L655.469480,155.870676L657.373766,151.341827L657.831375,148.818782L657.798927,148.692728L655.327043,139.092386L642.506578,125.997563L639.055974,116.813430L638.743121,107.881535L637.686095,103.579567L635.129301,100.942868L631.109798,98.684639L628.169185,95.732533L623.426253,87.809752L622.038363,86.169680L618.527063,83.482479L611.824167,75.357763L610.543019,72.885012L610.064932,71.257536L609.260327,66.110157L608.504263,63.675238L605.292326,57.543763L602.232306,48.119406L600.134553,43.602757L597.041651,40.776690L593.513790,38.430042L590.760159,35.010992L586.664041,26.772440L583.892111,18.319361L583.282522,15.404931L583.405793,11.960598L588.075245,1.501388L581.149806,0.063084L576.878069,0.000000L573.224582,3.873325L569.662529,5.488259L566.373596,5.601810L565.451863,3.091091L562.424529,5.122376L561.075707,5.362093L560.214735,3.923792L558.571610,4.718643L557.721523,4.213976L557.066818,3.154174L555.975135,2.334090L556.695806,0.592985L555.523615,0.807469L554.997296,1.400454L554.605796,2.220539L553.773051,3.091091L553.066205,3.507442L545.133767,6.320959L543.073138,6.497593L541.220266,7.014876L538.645748,9.311106L536.452404,9.828388L535.779530,10.219503L535.059693,11.947981L534.145602,12.326480L533.161710,12.503112L532.224334,12.919461L531.415247,13.436741L530.826755,13.928789L527.829482,17.953481L524.081868,20.514643L522.444874,22.091711L516.825866,29.169573L516.432622,29.421903L516.068274,30.103192L514.506094,32.058744L514.139989,32.790499L513.053556,33.080677L508.147035,33.635801L506.772452,34.001677L503.277824,30.292439L503.157120,28.399967L502.687515,27.693444L501.996909,27.340182L501.235126,26.507493L499.546623,22.634222L498.285132,21.322102L495.952071,20.817440L492.322906,20.628192L490.740886,21.271635L488.939906,23.164116L485.717204,29.005559L484.688929,29.838246L483.740857,29.623766L481.932411,28.563982L480.792724,28.172871L478.574509,27.844842L476.443467,28.172871L472.627395,30.229357L467.295945,37.067469L463.639705,39.918776L459.736421,40.700992L458.852858,41.167798L455.676845,44.435437L454.818036,45.141952L451.738035,46.580215L450.417825,47.614753L449.891081,48.245569L449.467210,49.078246L449.008502,48.687140L448.515116,48.346500L447.949351,48.195104L447.330142,48.321267L443.531315,51.197784L443.057428,55.411619L441.306097,57.177893L438.096757,59.524510L436.745807,60.823979L434.727991,63.965410L433.440401,65.340572L431.752384,65.908299L421.357015,77.792660L419.739434,78.877639L417.518714,79.306583L414.893790,82.574129L414.169856,83.204928L413.687170,83.520327L409.863240,84.945932L407.984442,85.009012L406.644614,83.747415L405.984362,78.637934L404.482909,73.402272L403.595437,71.736948L405.186103,69.175878L404.284979,66.614803L400.955671,62.489317L401.921966,60.533807L401.368358,59.373116L400.291915,58.414283L399.744203,57.076963L399.353989,55.626095L398.284935,55.096212L396.856036,54.818655L395.428884,54.162609L394.890228,53.203773L393.422673,51.134703L391.891596,49.645980L390.731012,50.857144L389.823936,50.730982L388.881400,50.352493L388.311319,49.999236L388.189727,49.368421L388.456276,47.311962L388.425887,46.580215L387.819447,45.343814L384.752278,41.180415L383.633995,38.165097L382.476442,36.323101L382.201791,35.667047L382.098163,34.821746L382.326554,31.919963L381.999532,31.516237L381.223133,31.415305L380.451766,31.162976L380.140243,30.292439L380.205725,28.652297L380.090185,27.832225L379.492729,27.302333L378.146212,26.507493L374.132622,26.318246L366.761917,27.012153L357.573330,27.882691L344.969512,29.081258L335.624780,31.049428L326.600632,32.967129L317.566342,34.872212L308.543053,36.789908L299.509621,38.694986L290.487195,40.612677L281.465200,42.530367L272.444041,44.435437L263.411931,46.353121L254.380254,48.270802L245.360392,50.175864L236.351543,52.093541L227.310588,53.998598L218.291630,55.916269L209.262130,57.833937L200.255416,59.738986L191.227181,61.644032L189.403709,62.035134L187.569277,62.426236L185.756819,62.817338L183.922813,63.195823L181.911153,63.284136L179.899110,63.385066L174.897245,63.612157L169.906387,63.839248L164.893605,64.066339L159.902808,64.293430L153.900565,64.570986L147.887773,64.835925L141.896595,65.113481L135.894867,65.378420L132.625636,65.528502L130.673339,65.618127L130.568633,69.087565L130.418091,74.070924L130.267764,79.041647L130.116890,84.024966L129.965473,89.020882L129.813898,94.016776L129.662934,98.987418L129.511436,103.970655L129.359790,108.953871L129.208001,113.937065L129.056070,118.920236L128.904002,123.903385L128.751801,128.886512L128.599854,133.856999L128.447395,138.840079L128.294812,143.823135L128.141722,148.818782L127.717470,164.070490L127.556312,169.708876L127.281241,179.321958L126.866013,194.573178L126.438612,209.836753L125.999921,225.087445L125.582510,240.337859L125.153223,255.600599L124.712854,270.849281L124.282757,286.111379L123.852561,301.360593L123.498276,313.591655L123.410786,316.609572L122.979161,331.858354L122.546197,347.119587L122.112531,362.368082L121.677221,377.629100L121.243616,392.782960L121.240907,392.877454L121.029772,399.915148L120.840145,406.952842L120.639630,413.977928L120.427818,421.003021L120.226140,428.040736L120.024459,435.065854L119.821957,442.103603L119.619020,449.141373L119.405119,456.166556L119.212185,463.204379L119.007854,470.242236L118.803029,477.280128L118.597694,484.318059L118.392243,491.343421L118.186254,498.368829L117.979303,505.406900L117.826692,510.426919L116.327956,514.904598L110.284725,514.904598L85.577294,514.904598L60.869863,514.904598L36.162432,514.904598L11.455001,514.904598L11.138637,525.411472L10.585285,543.776778L10.028132,562.129968L9.455234,580.496334L8.888534,598.863326L8.220380,619.867636L7.567981,640.847711L6.897057,661.841490L6.480987,674.540619L6.207653,682.836455L5.520726,703.845316L4.825870,724.842935L4.237684,742.416091L4.122501,745.835712L3.409809,766.836363L2.676322,787.851294L1.955597,808.842735L1.213324,829.848646L0.449118,850.869125L0.895772,852.863966L1.547336,853.722511L3.336170,855.212347L5.186591,858.532950L10.449886,863.103599L13.131741,866.487458L14.259896,867.346058L15.246796,867.636467L17.410359,867.787986L18.471720,868.116275L26.289949,873.293221L39.388942,885.163271L40.444585,886.741729L43.436314,894.280603L46.090279,899.041462L47.124835,901.680814L46.891695,903.474073L45.889792,905.519921L46.810899,907.174292L48.711967,908.437177L50.694932,909.270685L50.763380,912.465823L50.937714,913.261456L51.570205,913.981317L53.425543,915.016909L54.078613,915.762033L54.260393,916.911296L53.840563,917.656424L53.347393,918.338408L53.321445,919.260352L53.720604,920.119152L54.751931,921.697835L55.146945,922.657678L55.687976,926.459191L56.305434,927.810571L57.990673,929.010399L60.997684,930.475459L61.537324,931.599517L61.786958,933.999205L63.377830,933.771866L63.271387,934.794895L62.635798,936.310500L62.660898,937.560878L63.680309,938.066083L64.650504,937.649289L65.596422,937.030414L66.551240,936.992524L67.864258,938.268165L64.671093,940.339513L63.909996,942.271939L63.575947,945.682127L68.094909,950.115413L68.806769,953.348836L68.107639,954.548744L65.750556,956.039162L65.151589,956.910679L65.421817,958.236904L66.487465,958.653718L67.702719,958.855810L68.484583,959.588394L68.493700,960.939887L67.474976,963.579730L67.433493,964.842817L68.236976,966.093276L70.852396,967.507940L71.895627,968.455261L72.833599,970.627790L74.702714,978.736940L73.489235,981.086336L73.377064,982.210511L74.816701,981.692632L75.879659,981.124229L76.483124,981.187385L77.591979,982.614709L77.594469,983.069432L80.111663,990.345030L80.570330,1000.930082L79.955994,1009.721518L80.214209,1012.020429L83.823987,1019.359257L83.374242,1021.253960L78.561916,1027.986459L76.421098,1032.710558L73.831103,1037.068334L67.437496,1045.101745L64.079915,1051.189903L62.545888,1053.147702L59.349188,1055.560206L58.829985,1057.050648L57.191965,1063.593390L56.722946,1067.129971L56.898691,1070.249719L57.481105,1071.740117L59.064391,1074.291464L59.472144,1076.059715L59.174243,1078.876270L56.526210,1087.161618L56.394460,1090.836915L56.764352,1095.358357L57.624033,1099.778697L58.918979,1103.150740L59.525189,1104.072678L60.090491,1104.704140L61.614830,1105.853398L62.579873,1107.192088L63.472764,1111.069198L63.946048,1112.294202Z "/></g></svg>