<?xml version="1.0" encoding="utf-8"?><!DOCTYPE svg  PUBLIC '-//W3C//DTD SVG 1.1//EN'  'http://www.w3.org/Graphics/SVG/1.1/DTD/svg11.dtd'><svg enable_background="new 0 0 1000 1759" height="1759px" pretty_print="False" style="stroke-linejoin: round; stroke:#000; fill: none;" version="1.1" viewBox="0 0 1000 1759" width="1000px" xmlns="http://www.w3.org/2000/svg" xmlns:xlink="http://www.w3.org/1999/xlink"><defs><style type="text/css"><![CDATA[path { fill-rule: evenodd; }]]></style></defs><metadata><views><view h="1759.87801355" padding="0" w="1000"><proj flip="auto" id="robinson" lon0="-88.7249357216"/><bbox h="43.79" w="24.89" x="-1306.95" y="-310.07"/></view></views></metadata><g class="" fill="black" id="country"><path d="M955.233682,790.866556L957.047478,784.209820L960.373317,779.251513L954.439095,746.899290L949.106156,734.873379L940.900497,742.050573L946.539464,749.036013L946.473891,765.992845L941.021213,806.809864L942.737277,803.303430L944.540991,800.646211L947.015273,798.756025L950.473782,797.605478L950.415099,799.851785L949.353171,806.809864L953.363971,806.809864L955.233682,790.866556Z M810.387508,664.471365L800.615147,655.267087L792.370469,651.486760L788.081423,654.335702L787.520106,658.307785L789.077019,660.197949L790.618739,663.567373L793.430545,668.251696L798.172979,670.826705L802.958937,670.141862L803.382219,673.100383L802.447043,687.098581L802.833727,692.686908L806.830545,693.179996L810.036758,687.098581L810.678695,683.044307L812.699624,680.003602L814.759930,673.346926L810.387508,664.471365Z M981.525272,645.460155L975.133233,638.830894L967.057039,636.584616L960.050817,636.310680L951.905975,654.609638L951.094401,658.883052L955.483187,659.485713L961.318000,656.088897L968.566473,649.733566L972.408656,658.280391L969.575250,672.415540L963.444499,685.619319L957.069099,691.481582L949.859077,690.331044L941.614324,686.331556L935.624724,686.906825L921.905343,700.685889L910.678852,708.931421L902.216782,716.629082L896.260149,727.257888L889.491608,759.555273L881.171556,783.305820L878.018357,797.605478L876.912690,800.016149L876.393384,802.317246L875.355575,804.563554L872.885371,806.809864L880.119782,816.014256L881.854237,806.481136L885.526063,798.098570L889.369298,791.250072L891.399884,786.346550L898.729076,756.240610L904.937098,739.831669L912.687943,731.695692L920.882638,725.395107L928.239566,714.437577L938.659847,724.463717L947.908360,718.327499L955.277759,706.876886L964.468467,695.371497L979.818265,669.073507L983.479781,658.883052L981.525272,645.460155Z M833.947239,631.325041L832.628465,595.439463L828.829437,579.085541L821.724483,571.524943L824.625394,608.834905L827.807463,624.805362L829.961975,631.325041L833.947239,631.325041Z M790.444928,551.308588L809.580943,544.569812L824.944946,531.119666L833.051803,509.259793L825.806601,512.656562L789.414868,537.694073L776.352150,543.939763L772.610807,547.939199L771.544567,549.993704L771.201294,553.143946L790.444928,551.308588Z M920.465835,281.131282L925.788689,276.529328L927.957152,269.516832L926.454105,267.626746L922.872208,269.188121L921.094057,269.297691L917.838308,271.489095L912.781731,278.145490L913.965150,282.391342L920.465835,281.131282Z M938.804978,267.434998L943.119410,260.422509L943.599143,253.190887L942.529942,250.506423L941.452285,251.492552L940.042180,253.985270L938.521402,257.738043L935.056950,260.641650L931.818688,262.504341L930.548531,264.832707L931.144524,267.489783L931.473874,270.941244L933.465883,271.406918L938.804978,267.434998Z M999.715728,225.360160L995.032463,216.156319L980.953016,225.551907L972.291690,221.251300L965.770980,227.222843L952.636482,262.668697L951.453084,269.242906L949.573212,274.529670L946.388026,277.679816L943.367234,280.090364L941.732145,283.048763L925.674102,325.151293L920.579975,346.024585L929.897925,345.504122L924.703413,362.816390L915.619566,374.622719L892.145004,391.469366L890.185766,391.688509L884.131375,391.469366L883.563212,396.016596L909.839969,388.428749L930.610560,368.788035L945.360537,341.997843L953.629602,312.906749L949.981235,312.906749L948.405270,318.823574L946.589310,322.850304L939.969271,331.725553L936.840391,322.055915L937.410164,317.508723L942.709923,314.796846L946.549154,311.181009L949.395111,306.168149L951.711899,299.100841L955.446681,301.073113L959.095299,304.113698L966.315636,291.978755L982.829726,255.765782L988.125506,248.150670L996.858308,240.316424L999.715728,225.360160Z M987.942204,194.078101L987.926215,191.366265L985.929139,190.188397L984.448027,190.024043L982.480435,189.558375L982.097101,190.708850L982.705239,193.639825L982.222812,195.009439L980.587371,193.420686L977.767787,197.447354L974.697945,208.952129L977.655879,212.157034L984.227432,204.268040L987.149934,197.529531L987.942204,194.078101Z M166.549163,1757.878014L189.935392,1748.253375L193.912692,1732.473934L184.847638,1704.421591L188.820262,1687.710719L196.499666,1678.533438L207.359983,1669.575314L218.283026,1662.781386L234.209878,1657.822914L236.501094,1652.042595L236.880039,1644.591190L239.149239,1637.139783L242.236118,1632.975762L245.551993,1629.524008L252.795510,1623.332767L258.881183,1619.716644L264.204629,1617.525054L268.187387,1614.100695L272.120875,1602.403084L275.619352,1597.170663L279.578061,1592.924458L282.770341,1591.171186L293.271305,1589.089176L302.274983,1582.788356L309.026574,1572.597465L312.803610,1558.571292L314.569000,1532.436594L318.234186,1521.889573L327.052969,1517.615976L335.030216,1516.465391L339.560727,1513.698511L342.704334,1510.520709L346.393205,1508.000382L366.597470,1504.932158L371.008458,1503.398047L373.235563,1498.850501L374.351145,1487.015927L375.373400,1484.605181L377.560609,1483.892915L382.583731,1482.851912L387.482216,1483.290229L389.330717,1487.125507L391.984121,1495.754884L399.436655,1501.370828L407.934875,1499.234030L413.678980,1484.605181L417.696045,1484.605181L414.438989,1512.602717L418.461080,1501.863935L420.010374,1499.234030L422.903612,1497.590339L430.209360,1495.837068L432.983043,1494.193378L434.656840,1493.782455L439.340367,1494.631695L441.017344,1494.193378L441.619832,1492.303133L441.524172,1486.550216L442.133187,1484.605181L444.159458,1481.372590L447.632412,1472.496661L449.792986,1468.935333L467.877203,1446.526359L472.803666,1443.649902L475.506831,1440.362523L485.416099,1420.227331L488.119865,1416.939954L489.039112,1415.214080L490.421949,1413.816945L494.472230,1411.077464L494.334301,1412.255441L496.163197,1413.378628L499.277557,1413.323838L502.887547,1411.077464L503.033408,1407.790087L505.984100,1391.791522L507.565361,1388.093225L519.268703,1382.477292L534.420578,1355.849564L546.540351,1346.699710L544.962849,1341.823441L543.834830,1338.207333L545.817729,1330.098485L551.037136,1323.331981L557.821446,1318.702268L558.312508,1314.538268L552.116726,1314.784820L549.120634,1314.045162L547.944521,1311.250898L547.424005,1305.333635L552.497851,1307.908740L556.059760,1308.511425L559.232320,1307.552609L563.461864,1305.333635L555.798637,1301.005267L552.007531,1300.320398L566.712945,1283.883564L587.808946,1239.750708L604.338044,1230.957019L599.759356,1237.723502L588.494683,1249.284057L561.048530,1325.797508L561.581614,1336.289700L565.601126,1335.851384L570.484073,1329.906721L573.654657,1323.688112L571.754867,1306.758161L575.162932,1294.896243L579.359274,1286.486063L589.329201,1258.981777L596.227383,1250.379845L602.050655,1244.599566L606.550509,1237.285188L617.646058,1189.563710L617.783866,1182.989001L616.278813,1172.359893L616.642021,1164.305881L618.769162,1157.292866L622.206404,1152.717971L625.513901,1149.430622L627.196749,1146.143272L629.121272,1140.034284L632.619559,1135.952494L640.856639,1129.405196L643.376458,1128.912094L650.979835,1130.062665L653.232591,1129.405196L654.247224,1125.515170L653.105742,1122.474375L651.264098,1120.693729L650.243327,1120.638941L649.363991,1109.023659L640.280472,1089.135243L639.162646,1076.752934L643.305208,1065.932117L651.468377,1054.262078L660.723689,1044.043951L667.937225,1037.496682L673.994793,1035.195551L679.144403,1035.277734L683.027371,1033.579280L685.356122,1025.744478L683.938595,1009.362630L684.985396,988.022420L683.982683,973.393844L680.684719,960.381545L674.808420,950.136080L662.858700,945.479052L657.712750,942.027373L656.440187,933.617334L655.238510,918.139587L655.483105,912.195040L655.550704,910.852724L654.817025,898.032236L652.392460,883.814657L657.691510,857.379310L660.006725,843.298741L674.055025,774.923269L696.236076,718.777472L709.258397,685.838469L712.072609,675.401455L719.600680,669.320050L734.332263,671.785484L749.443147,671.949847L758.118585,658.883052L753.312239,653.349529L729.316323,648.610425L724.398374,643.022121L721.290622,632.831689L701.832994,621.134620L695.759699,612.943940L695.181701,596.809139L699.617207,582.400154L707.306414,570.045697L725.032765,550.075885L731.084371,538.817201L752.330837,483.126627L766.394517,427.217232L765.016090,409.822659L795.893374,357.337820L795.982094,357.200856L806.942951,349.667829L836.741096,287.842469L839.975079,277.296320L850.204046,261.189500L853.435858,250.670778L865.895051,188.928352L871.221986,109.326835L869.756680,105.656311L863.938477,106.806773L857.591653,109.682931L852.332318,113.380849L846.933126,121.379315L841.510199,123.735029L837.489369,122.173684L838.614069,114.805232L841.573143,111.956466L855.742606,105.656311L868.616642,95.849994L872.646482,89.632030L874.996238,80.127046L872.262060,77.634386L865.246033,78.647885L844.095769,85.495854L824.653827,98.972675L811.948728,101.054462L804.615223,98.370052L788.753586,89.275935L775.927141,87.248935L765.952847,89.221151L756.171497,93.987344L734.794559,109.354227L723.382143,121.516275L717.691635,125.597688L713.121302,125.926393L711.842614,122.858485L715.815480,116.914417L731.604743,98.260485L738.385998,87.851556L742.922180,78.045265L713.094399,92.015126L704.873825,91.439896L699.519175,80.894018L705.016262,71.224695L754.940065,35.314095L768.551037,18.824316L759.757135,8.744206L760.064611,6.333747L760.064642,6.333503L756.811565,5.705114L720.501511,6.035594L715.858128,7.444479L712.174356,9.514324L708.659750,10.140496L704.591117,7.166181L699.722337,1.217554L696.806419,0.000000L692.706296,1.182767L685.887512,4.696283L673.598252,9.340388L668.338688,10.123103L662.541600,8.244588L657.547248,4.939794L651.754878,4.209261L631.653866,19.654835L626.552184,24.646824L622.564374,31.934787L616.832884,52.285464L609.486938,68.461685L605.007879,85.542424L601.995305,93.265297L593.141013,105.858468L572.121624,128.766267L565.096332,139.602707L561.429761,151.047953L559.091601,161.693092L558.265090,164.075191L555.555169,171.886000L548.373378,182.061529L540.650136,187.923335L522.401995,196.916084L503.993992,210.500896L505.896137,212.449040L506.718922,221.824490L503.805511,229.390956L485.827715,256.299803L483.373831,262.996589L479.660743,278.199183L476.894846,285.452605L469.924662,295.419548L462.178779,301.229255L453.517206,306.377980L443.798075,314.379385L440.241667,320.467415L428.522952,346.802545L422.109722,353.934264L389.066050,378.634414L385.850779,383.470085L381.321691,398.359794L377.123551,403.786891L371.657553,405.456767L350.046906,390.323523L343.319652,383.991920L337.670091,365.066718L332.288308,363.675160L325.446558,365.205873L318.566474,364.405728L309.764576,356.056387L302.357891,345.306623L293.913437,335.704904L281.968878,330.904048L230.783353,350.385798L215.767751,370.041537L208.026855,396.724708L201.129600,455.379258L185.357869,600.842265L165.352198,787.468970L142.677834,979.181343L111.596119,1153.728363L78.206261,1343.004059L64.813809,1412.515441L39.466714,1551.538472L6.392472,1707.186833L1.541613,1739.807034L0.284272,1748.275569L4.139349,1757.077810L5.707672,1754.920739L11.622160,1751.824299L18.794766,1749.284521L24.167091,1748.936606L35.503459,1743.996218L80.236551,1746.327246L97.370563,1743.161222L116.240012,1743.022056L166.549163,1757.878014Z "/></g></svg>