<?xml version="1.0" encoding="utf-8"?><!DOCTYPE svg  PUBLIC '-//W3C//DTD SVG 1.1//EN'  'http://www.w3.org/Graphics/SVG/1.1/DTD/svg11.dtd'><svg enable_background="new 0 0 1000 1114" height="1114px" pretty_print="False" style="stroke-linejoin: round; stroke:#000; fill: none;" version="1.1" viewBox="0 0 1000 1114" width="1000px" xmlns="http://www.w3.org/2000/svg" xmlns:xlink="http://www.w3.org/1999/xlink"><defs><style type="text/css"><![CDATA[path { fill-rule: evenodd; }]]></style></defs><metadata><views><view h="1114.82887259" padding="0" w="1000"><proj flip="auto" id="robinson" lon0="22.4326065798"/><bbox h="314.68" w="282.52" x="180.59" y="-89.08"/></view></views></metadata><g class="" fill="#000" id="country"><path d="M906.246780,1112.828873L909.005652,1111.896500L910.133893,1109.209415L910.236816,1107.842709L910.591562,1095.849321L910.892242,1085.448534L911.164782,1075.661637L911.499282,1063.732089L911.789098,1053.337202L912.018158,1044.772299L912.253979,1035.836789L909.871956,1036.346396L906.818238,1038.379035L899.931184,1038.622257L897.206515,1040.151080L896.300412,1042.444316L896.751517,1045.449846L896.776556,1049.515133L895.717502,1051.431958L892.678739,1052.190581L888.363175,1050.621216L880.483663,1048.571199L873.918408,1047.302968L869.333742,1041.905753L863.127198,1033.763614L859.042157,1029.657804L849.121528,1021.168226L847.447162,1019.454097L844.472576,1015.475698L842.003242,1008.729219L840.822870,1004.252802L839.674367,1000.922999L838.432812,995.960145L841.063344,988.333454L844.851919,973.815530L847.578317,963.357068L849.125239,955.597189L854.235450,947.704115L854.739928,940.644935L852.955180,931.582077L853.573405,926.578680L854.177133,913.879069L854.681822,903.201441L854.850522,898.012695L853.685794,888.972914L850.565540,878.966015L843.517397,865.026980L843.600073,862.050381L848.024509,858.766855L855.033748,853.004755L858.477102,849.588030L862.615197,844.723537L864.475814,842.256543L868.557360,836.019561L871.168806,830.963953L872.160326,824.420035L870.376376,818.206203L874.267656,816.990075L887.011893,814.789462L901.055707,812.362996L915.846933,809.803334L930.781903,807.226298L945.246960,804.730337L958.362236,802.466019L967.436775,800.902423L965.953554,795.609359L962.593999,787.692923L957.836184,776.487131L954.170565,767.308218L950.217339,757.434364L948.655089,750.201255L945.583105,742.197923L940.491815,732.364591L937.894527,728.519281L935.045261,725.079351L927.601021,718.442715L919.148450,711.846616L914.591527,707.399026L908.564916,694.206822L906.030945,689.429135L904.344399,681.020406L903.099207,672.298954L903.710145,668.766361L909.384929,657.531556L909.984682,654.369596L909.368366,650.107320L906.781450,641.154225L904.836217,635.293597L903.476467,630.290058L900.636433,621.962411L896.735207,610.514083L895.785771,605.516344L895.949420,601.769489L898.261536,591.878256L900.299440,581.668516L900.281420,578.859825L899.127439,569.987838L896.760428,557.872833L891.222648,546.927637L890.673504,542.358453L891.026669,533.532808L891.172900,521.122473L890.865129,514.456915L891.029457,509.592390L891.829559,501.137385L891.788745,496.087547L888.113497,490.261704L883.534868,484.065231L881.039815,481.030697L880.932432,478.581063L880.961296,476.322536L876.132394,474.058218L874.697471,471.272702L874.601643,466.558752L872.881685,460.101684L873.883993,457.350915L875.799382,455.573050L879.848707,452.162097L886.003593,447.442358L887.333635,445.183833L888.223595,441.431207L887.892246,432.698244L887.349745,425.326189L888.091631,422.702826L890.917036,417.004396L894.698156,411.172772L899.103469,405.005265L901.740649,404.402992L905.209948,402.069185L908.883905,398.611907L910.941152,397.314704L911.108347,395.467347L910.333998,381.510834L910.252665,372.968985L911.743385,367.618024L912.620984,361.450521L912.727358,356.006903L914.824638,346.752753L914.067140,341.204896L916.767539,321.746861L917.474518,318.582035L918.512314,309.180214L920.188902,306.281778L921.661530,305.146726L923.585500,299.378808L927.282684,290.168092L929.842684,285.419405L929.262970,275.047576L929.653570,267.994037L930.237319,266.430445L935.702824,263.804189L942.781429,257.283429L945.750611,249.616034L949.971235,244.722568L958.167341,241.549054L958.182622,241.534576L982.373946,215.219883L993.608903,201.034614L998.479338,193.766798L998.634830,191.163703L999.551098,187.735378L997.557416,185.062790L995.186863,182.636323L994.382349,180.395171L992.343616,179.280386L989.439291,179.326715L987.498867,177.699418L985.290417,174.505632L983.090995,172.496123L976.188818,172.664064L970.849815,169.406575L970.880272,164.964807L972.882707,156.205778L976.833673,146.181393L977.023259,143.416145L976.433985,141.053377L975.443780,139.032284L973.599769,137.028565L971.874615,134.631051L973.129369,127.421133L975.600107,120.350201L977.645013,116.820525L979.638890,112.859412L979.022324,109.613499L976.035514,108.009364L974.874026,105.481547L973.806152,103.121673L971.693277,100.092925L968.680115,98.914436L965.951810,99.505128L962.768512,100.092925L961.319118,98.399027L960.967414,94.238118L960.056775,90.427571L958.527429,87.552286L953.911018,84.694375L942.029464,78.880103L932.815697,67.274718L928.179517,61.886089L924.801959,58.408525L919.967388,49.287520L914.501398,43.004158L907.936449,40.091226L903.641465,41.527423L899.286534,48.253806L890.990589,54.569017L887.150495,54.789079L882.190096,51.363635L875.984158,48.925575L864.863478,47.862905L860.319627,50.856912L854.370554,55.698284L849.313384,58.585154L846.159020,58.912352L843.207957,57.762816L839.864200,57.140271L836.975932,57.038927L830.988975,52.617411L827.876640,49.380178L825.792493,46.255870L822.416618,44.130531L818.472531,42.361344L815.641016,39.578712L814.206587,36.106937L811.948322,31.653566L809.020513,27.640319L799.878980,20.430372L797.121786,16.183315L795.193106,12.033971L780.046978,6.775624L777.793045,6.662697L775.122087,7.574801L767.325471,14.020329L764.821276,14.807922L761.964371,14.243287L754.895748,13.455693L730.824395,8.359499L712.273228,3.463097L706.706127,1.685220L696.813989,0.000000L690.318442,3.332797L684.319654,14.790549L682.576623,17.051985L672.983500,20.439058L668.432256,19.518270L657.328703,22.654163L640.099281,17.917758L633.973808,18.855186L629.181126,21.244024L616.886346,26.438661L609.421343,29.397924L600.732234,32.099482L592.495797,36.222759L586.948584,38.484191L581.491679,38.461026L576.549130,36.121414L571.144863,34.109000L564.703512,33.697831L558.001408,34.882115L552.352710,39.459994L550.078607,42.717498L545.211683,51.386799L539.500978,65.493951L537.230990,68.334492L536.599664,68.609569L535.168778,69.805434L508.212871,62.751860L496.624501,61.121662L488.824164,63.290433L478.984793,59.343790L474.696758,58.648856L472.688601,59.888155L467.221406,58.110283L458.295321,53.309449L449.760437,51.282559L442.152594,51.974597L437.463973,50.370458L433.680029,45.694132L428.744426,37.117487L419.926097,28.610332L408.148926,21.785494L400.790057,16.652397L397.833761,13.212466L391.514094,11.310080L381.831130,10.948134L372.572548,14.312781L359.326210,24.947447L347.107036,46.768384L340.271477,55.119173L334.753278,57.276362L333.396451,62.534693L336.200515,70.894163L336.988508,80.518986L335.161612,96.861489L335.953868,108.739042L336.636689,119.079054L332.781753,131.949772L329.896483,141.591949L322.260462,157.543521L315.426946,171.804087L308.227636,195.622842L308.328685,213.051121L307.577362,223.993379L305.183515,230.679187L299.507449,248.709730L298.665096,264.197983L300.760244,283.149301L298.811159,301.127715L292.814017,318.118748L290.241113,331.470087L291.730576,347.569296L280.713454,360.969861L266.857135,374.289352L257.882098,378.134632L250.910480,382.611140L245.931801,387.707294L244.313800,390.469641L240.681653,396.631355L232.370545,415.759313L228.062201,424.133225L222.426883,431.291010L214.033262,440.029763L210.949186,444.158810L209.683066,450.164171L210.174820,461.173036L210.832951,494.709266L209.382653,504.444103L207.002108,520.439123L198.697542,538.351008L192.485927,548.317503L186.299281,551.357835L178.198285,554.050700L174.299455,557.432708L171.914140,562.401481L167.370785,566.739024L160.679819,570.456918L152.204016,579.554759L141.958044,594.055717L134.958542,602.365974L131.210802,604.502898L127.342283,604.699796L123.357891,602.962460L120.028438,602.719232L118.332646,603.506825L117.253482,602.864010L115.683045,601.508888L115.764398,598.173203L115.327337,592.636892L113.398862,586.938432L115.755524,582.346077L117.860373,578.871407L117.502869,577.064580L115.434754,574.140067L113.123045,569.970465L110.919035,570.248438L106.235626,573.450924L101.346832,575.935312L96.788157,576.971922L93.191707,579.566341L91.221811,580.956209L88.156008,580.956209L86.447637,579.427354L82.715465,577.944829L80.673867,578.454447L79.520268,579.166754L78.995624,584.430879L78.541648,588.884248L77.782519,593.053853L76.422733,594.999669L70.765434,597.090263L66.917623,599.951077L63.586052,601.873729L61.540066,601.398857L57.453631,597.594091L53.411228,594.073090L51.169045,591.108037L49.918394,589.000070L49.100874,588.050327L46.526481,587.911340L45.749693,589.857156L44.937253,590.824272L39.175359,593.447649L33.000717,595.897292L24.844723,605.904349L20.709141,610.236109L19.518210,611.313258L15.801821,613.704259L13.109004,615.754319L13.194881,616.889381L14.975719,618.198176L16.792822,620.346685L16.524210,636.695052L15.636620,652.777034L14.627919,654.137951L9.472330,654.670735L2.628357,655.782633L0.448902,656.506525L1.831750,659.390511L5.703065,664.608325L10.726607,670.005664L12.876338,670.845379L16.096816,671.065442L24.797233,668.494177L30.627177,663.565920L34.255863,662.164465L41.712310,661.098896L45.092514,662.801490L51.172031,662.291870L57.346249,663.809148L59.645737,662.714623L60.953504,662.621965L75.465397,662.616174L81.508537,662.228168L92.695496,662.349782L99.764529,662.818864L103.789064,663.461680L114.648335,664.451964L128.206656,664.226110L132.994704,663.704908L150.771585,663.374813L168.323939,663.038927L184.114457,662.743579L201.536358,662.807281L214.873454,662.847819L220.934085,664.897882L226.428640,668.789525L228.913075,672.316328L230.095523,673.874143L231.714968,677.609426L234.708672,680.557115L235.743784,685.132112L234.815063,691.334419L235.192440,698.787610L236.875180,707.491684L240.461442,716.630091L245.935130,726.202830L248.291065,733.800790L247.520576,739.429765L249.175270,745.383041L253.244477,751.649035L256.233423,754.967347L257.959436,757.474902L262.565027,767.082364L271.098765,782.417226L277.492945,793.918358L279.752932,795.290849L283.087994,794.798605L290.172984,793.651968L297.187087,793.431906L302.159174,795.800466L304.167577,795.395089L311.753723,790.831701L319.255083,789.436045L327.098511,787.553937L331.194324,785.619708L335.932090,785.625499L348.681804,789.308641L351.086669,789.505539L361.439063,789.505539L371.809895,787.438115L373.502646,772.016393L373.628113,768.964476L376.180890,763.167570L379.398603,758.117716L379.843538,753.287922L379.725194,746.691835L382.100565,738.682710L389.101594,732.318262L400.359458,729.306875L406.754555,728.721971L416.836692,726.932512L432.124572,725.125680L437.755880,725.368907L438.200314,726.272323L434.849631,737.339168L434.753588,740.958622L435.891622,744.612821L438.451208,746.587594L454.285550,746.807657L468.880153,747.016137L485.616945,747.711072L498.161719,748.232273L499.752163,748.776639L501.017773,749.604769L502.809018,755.083169L502.259995,765.796737L499.269553,781.438529L500.168208,796.055274L504.949904,809.646975L505.158768,830.535414L503.234881,842.997799L500.796318,858.708944L499.680556,876.516407L501.834017,883.957885L506.511372,891.746813L513.711477,899.883192L519.203546,910.427643L522.990497,923.382063L524.308137,931.541540L523.166397,934.900300L523.147284,940.726009L524.244162,949.012872L522.762728,954.508489L518.704998,957.207074L517.305423,960.930658L519.196587,968.070904L519.571731,974.550981L521.113301,977.023719L522.234547,978.830496L524.111660,979.096880L528.219103,976.774708L533.152104,972.460447L537.087901,970.630506L542.577893,970.862144L550.277608,972.078244L563.892553,972.529939L568.099163,971.753951L580.893264,965.922461L584.223599,965.499721L589.214286,966.049862L596.288546,967.769775L603.444821,968.128814L606.985352,966.322036L607.351679,963.965118L608.525559,960.884331L610.517248,959.714558L612.396567,960.148879L616.325604,960.884331L618.164450,964.688987L619.196636,968.858474L621.832328,969.095903L628.696713,971.574431L631.013406,975.020049L632.454754,982.449843L631.420564,986.254501L629.129489,989.335289L631.300808,992.051248L635.880676,993.863818L638.597515,993.319468L646.499875,988.246589L649.636288,987.348991L653.730754,986.364529L657.430302,985.055773L667.849735,982.739391L673.542373,981.725974L676.764698,979.913405L678.992614,979.913405L680.553976,981.366934L679.008016,986.619331L678.428963,991.333169L680.221206,1000.141219L681.625588,1004.264384L684.889627,1007.258313L687.280119,1008.816083L689.913614,1011.995325L695.492876,1011.445183L707.677795,1015.950558L711.361084,1018.035308L716.487964,1020.102686L720.134835,1020.878677L732.759568,1022.459614L737.420790,1023.525154L746.062907,1024.961317L752.995287,1025.192956L757.920592,1024.555948L761.407967,1023.270351L763.546979,1021.834188L764.552251,1020.618083L766.076201,1016.216942L768.895715,1006.679217L769.974352,1003.841644L772.572982,1002.527095L775.913588,1001.664242L777.814700,1003.198847L779.733417,1013.778943L789.159181,1023.328260L792.258790,1031.342981L794.500004,1038.199514L796.555920,1040.081588L800.164400,1042.438525L805.996458,1043.272429L811.223867,1043.509860L822.095124,1048.449587L830.754769,1052.387475L836.943359,1055.201909L839.755979,1057.338796L841.667042,1060.859739L842.786488,1063.581523L844.507346,1070.629216L846.414089,1076.200206L849.740775,1077.265760L852.719621,1077.694298L855.582491,1081.499025L857.726242,1084.846263L861.943598,1093.000104L865.047661,1098.646422L865.956714,1104.130602L869.588080,1107.790589L874.601000,1109.348402L879.284340,1109.539509L882.028361,1107.906412L888.772616,1105.062972L894.047564,1101.808366L897.862893,1100.679100L900.075384,1101.368242L901.727782,1103.620984L902.496761,1108.033817L902.634684,1110.489255L906.246780,1112.828873Z "/></g></svg>