<?xml version="1.0" encoding="utf-8"?><!DOCTYPE svg  PUBLIC '-//W3C//DTD SVG 1.1//EN'  'http://www.w3.org/Graphics/SVG/1.1/DTD/svg11.dtd'><svg enable_background="new 0 0 1000 1118" height="1118px" pretty_print="False" style="stroke-linejoin: round; stroke:#000; fill: none;" version="1.1" viewBox="0 0 1000 1118" width="1000px" xmlns="http://www.w3.org/2000/svg" xmlns:xlink="http://www.w3.org/1999/xlink"><defs><style type="text/css"><![CDATA[path { fill-rule: evenodd; }]]></style></defs><metadata><views><view h="1118.29115694" padding="0" w="1000"><proj flip="auto" id="robinson" lon0="22.4340506535"/><bbox h="315.81" w="282.66" x="180.55" y="-90.14"/></view></views></metadata><g class="" fill="black" id="country"><path d="M41.387186,666.419016L40.233863,666.421221L39.253294,666.617892L38.215462,666.749664L36.719816,666.492726L34.070762,666.432394L32.688089,666.629439L30.954526,668.125185L29.394336,669.490641L28.324438,670.683937L29.153653,671.763098L30.304243,671.891427L31.572437,671.500129L33.249076,669.939507L34.864224,669.352768L35.615555,668.767205L38.556951,668.112988L40.058332,667.590827L41.387186,666.419016Z M908.263995,1116.291157L909.052618,1116.131883L909.909998,1114.269605L910.116507,1107.721014L910.395918,1098.866048L910.660499,1090.473615L910.935905,1081.597266L911.247487,1071.244622L911.517364,1062.374454L911.803276,1052.511931L912.008538,1045.608179L912.192529,1039.304763L912.191939,1039.279427L912.187499,1039.088822L912.185109,1038.986223L909.932437,1039.194499L908.818749,1039.623303L907.029894,1041.056732L904.268785,1042.465658L903.376680,1042.655557L902.827030,1042.312514L901.922490,1041.283385L901.260932,1041.001600L900.554070,1041.001600L900.072516,1041.216002L899.295603,1042.012352L898.258302,1042.698438L895.949984,1043.574423L895.136437,1044.236006L894.788174,1044.983350L894.098696,1047.298893L893.848272,1048.689444L893.642841,1049.222387L893.546071,1049.712449L893.732126,1050.178008L895.234585,1052.407793L896.036612,1052.750837L896.835679,1052.812094L897.450605,1053.118384L897.668248,1054.184270L897.454717,1055.293037L896.909235,1056.162899L896.114837,1056.708095L895.112229,1056.818359L894.729403,1056.671340L894.515721,1056.432434L894.339992,1056.181277L894.065315,1056.009755L893.724921,1055.979126L892.989337,1056.052635L892.646596,1056.009755L891.275915,1055.440056L889.152313,1054.110761L888.746585,1054.012748L886.662943,1053.957616L886.064078,1053.847352L885.583957,1053.620698L884.953551,1052.995868L884.050204,1051.838095L883.533926,1051.556309L879.288522,1051.642070L878.007619,1052.003491L876.909974,1052.542560L876.005985,1053.173516L875.473125,1052.021868L874.647014,1052.162761L873.741356,1052.658950L872.990462,1052.603818L872.471959,1052.303654L872.079468,1052.309780L871.836585,1052.150510L871.766373,1051.372535L871.653524,1050.778335L867.652538,1042.067483L866.353391,1040.186873L863.324339,1038.257257L862.869724,1037.558920L862.667800,1036.450157L862.127774,1035.316891L861.449092,1034.342896L860.810552,1033.681314L859.006282,1032.572552L858.307704,1031.941599L858.035300,1031.047238L857.916981,1029.393285L857.456081,1028.921602L855.630888,1029.227889L854.545015,1028.909350L852.028920,1027.341158L851.366433,1026.759211L850.504056,1024.535564L849.814565,1023.953618L848.573948,1024.737714L848.426579,1024.192522L847.837617,1023.040882L847.598545,1022.716217L847.147499,1022.269038L846.688102,1021.938247L846.146098,1021.895367L845.444547,1022.311918L844.911191,1021.399182L844.554019,1018.513956L843.940457,1017.895256L843.108812,1017.607346L842.702785,1016.860006L842.294541,1012.761886L842.148174,1012.161563L841.415074,1011.365218L841.079052,1010.820027L841.278755,1010.574998L841.325781,1009.980801L840.514879,1006.452378L840.221584,1005.913313L839.479368,1005.037333L839.104308,1004.430886L838.531218,1002.685052L838.268577,1002.207245L838.048811,1001.294511L838.061323,998.127508L838.221352,997.073883L841.012455,992.657233L841.195742,992.418330L842.376884,991.401459L842.660913,991.223813L842.318415,989.018552L842.567388,987.719898L843.077627,986.856170L843.587968,986.212969L844.610145,983.958703L844.592984,981.961716L844.672643,981.324641L844.812591,980.981601L845.274183,980.234262L845.421876,979.676821L845.417846,978.935609L844.932399,975.780861L844.978181,975.205043L845.742239,974.059533L846.459320,972.619988L846.670610,971.982912L846.724964,971.382591L846.652217,970.114567L846.727911,969.520371L847.050018,968.975182L847.989367,967.921558L848.197731,967.290608L848.330309,966.678036L848.869491,965.471268L849.002739,964.828067L849.063207,962.200131L849.353590,960.803466L849.858511,959.437429L850.565544,958.175530L851.472343,957.121905L851.873023,956.546086L852.273845,955.253558L853.098107,953.801761L853.331141,953.495474L853.641728,953.330080L854.302602,953.385211L854.600619,953.299451L855.344758,952.650124L856.181130,951.731265L856.873604,950.628634L857.175135,949.434117L856.903761,949.054321L855.710669,948.006822L855.444212,947.406500L855.545747,946.720418L855.862050,945.458518L855.858828,944.760185L854.628881,943.179746L853.969100,942.101617L853.976422,941.286894L854.198901,940.723327L853.788111,939.822844L854.021194,939.265402L854.339876,938.732463L854.559629,938.046381L854.656876,937.299041L854.613163,936.594581L854.261700,935.436817L853.808550,934.493453L853.427765,933.439826L853.298595,931.957398L853.479153,930.713872L853.798533,929.770508L853.963880,928.851647L853.708942,927.693881L853.618057,927.663253L853.166942,927.356965L853.040082,927.246702L852.901432,926.934289L852.807350,926.303337L852.710844,926.033805L850.970320,924.330847L851.483926,923.234339L852.807158,921.549758L853.659399,919.724284L854.172018,917.402624L854.414691,912.679666L854.119165,908.410968L854.358671,907.130680L856.040888,903.302066L856.602947,900.741486L857.125697,899.687851L858.096298,899.252920L858.204211,898.983385L856.873436,897.415182L856.767233,896.551445L856.445743,896.202275L855.996947,896.018501L855.482617,895.614199L854.792380,894.456424L854.498571,893.274145L854.487130,890.517536L854.392373,889.874327L853.953843,888.643040L853.857555,888.073341L853.647391,887.270861L852.686539,886.015071L852.487558,885.457622L852.758084,885.132955L853.938638,884.704148L854.295379,884.244713L852.653743,884.287593L852.023654,883.999681L851.783335,883.215577L851.779082,882.210945L851.697424,881.439093L851.497577,880.783631L851.135321,880.164924L849.903025,879.123536L849.296483,878.455823L849.056035,877.530825L849.153732,876.673211L849.271777,875.601193L849.180805,874.467917L848.137433,872.979344L846.336845,871.901199L843.788560,871.300869L841.573384,870.332989L840.777114,868.164448L841.853914,865.977529L844.117083,864.317430L848.916696,861.787464L853.836623,857.756667L862.694884,848.132977L869.542028,838.160100L871.585155,833.069517L871.943309,827.789029L869.811623,822.520789L869.642934,821.405882L871.015498,820.799422L877.287725,819.727396L886.343464,818.171426L894.604238,816.750225L905.591609,814.864129L906.451997,814.716437L920.367016,812.321223L934.266326,809.932133L944.806196,808.118875L958.251975,805.809421L967.169227,804.277952L966.016152,798.942314L962.386796,788.467057L951.595070,768.845832L950.284863,763.252889L949.840998,759.344566L948.119979,751.889345L944.352820,742.357439L941.318736,736.887004L933.964711,726.981410L929.943533,723.140463L927.686120,721.826106L922.715038,718.931962L915.783024,712.897938L914.160465,710.937646L913.011690,708.695561L910.495193,700.719620L907.023403,695.537095L905.584337,692.743677L904.980719,690.415829L904.209757,683.340395L902.729083,676.706027L902.626971,674.353675L903.721728,670.592362L907.714727,664.625718L909.440434,661.287094L909.994483,656.704908L909.073252,651.724538L904.174824,638.174014L902.170413,628.586960L898.209242,620.145454L896.513808,615.312112L896.442944,614.954529L895.507187,610.225284L895.425237,605.257178L896.521459,600.240065L899.803662,590.469258L900.363183,585.458275L900.201748,583.105931L900.048521,582.346320L898.570570,568.023983L898.293852,566.890854L896.906408,561.211993L893.744410,555.030971L891.786697,552.605120L891.003039,551.330935L890.522665,549.750456L890.153630,542.760821L890.750803,538.453400L891.097773,535.948837L891.245375,531.299292L890.426482,516.241877L890.551286,514.508253L890.785965,513.718015L892.003350,512.459152L892.255122,512.198797L891.370505,511.390181L891.019117,510.232390L890.910053,506.281199L891.099633,505.080527L891.500921,504.082009L892.172703,503.659323L892.416900,502.979351L892.379181,502.589501L892.048590,499.175182L891.572442,498.299181L890.853398,497.668216L889.964488,497.282286L888.997556,497.153643L887.995658,496.700328L887.556183,495.640551L887.361495,494.415376L887.064219,493.471991L886.282558,492.871656L885.328427,492.510229L884.532146,492.032411L884.199663,491.082900L884.126802,490.127264L883.915531,489.539180L883.147793,488.246620L882.679948,486.660019L882.451377,486.188327L881.670444,485.796271L880.576180,485.679879L879.624190,485.367460L879.213407,484.368942L879.324010,483.107012L879.683978,482.096243L880.354630,481.446901L881.421422,481.293754L880.740909,479.860300L879.951383,478.849531L878.882621,478.249195L877.321006,478.059293L876.625797,477.746873L874.684854,476.301168L874.282970,475.829476L874.670416,471.302456L874.329579,469.924135L873.796174,469.305422L873.211750,468.986877L872.749356,468.625451L872.560472,467.865843L872.755754,467.087857L873.671506,466.168976L873.493086,465.446124L872.971085,464.374096L872.785184,463.197929L872.689160,461.929874L873.092848,460.373903L873.833791,459.657176L875.244269,459.105848L876.339609,458.744422L877.250111,458.137961L878.000145,457.280339L878.613760,456.208312L879.015000,455.326187L879.198078,454.689096L879.263962,454.174523L879.806264,453.604817L880.251107,453.427167L881.757267,453.482300L884.091030,452.783951L885.903790,451.172848L887.229040,448.863395L888.070595,446.057748L888.390266,443.582897L888.296257,441.451095L886.965371,432.145904L886.865035,429.977347L887.137483,427.857798L888.137558,425.248179L890.112055,421.709540L891.466492,419.281587L892.583289,416.910877L893.222000,415.863354L895.761364,413.492645L896.295701,412.714660L897.746837,409.369938L898.357302,408.487814L899.181681,408.095759L903.183678,407.911983L903.313716,407.875228L903.430476,407.789466L903.539335,407.660822L903.717298,407.346229L904.734793,405.547400L906.546906,403.421725L908.643568,401.718735L910.703523,400.891744L911.212008,397.412253L911.206301,396.278969L911.003675,395.611250L910.397511,394.422833L910.373213,393.791869L910.874766,392.291032L910.928308,391.788712L910.625285,390.508407L910.090676,389.601779L909.664436,388.646145L909.664787,387.218819L910.317561,383.555553L910.370283,382.489653L910.158102,381.344117L909.395295,379.065297L909.255579,378.023901L909.409560,377.313301L909.418212,377.296758L909.681903,376.792602L909.884077,376.216771L909.824810,375.340773L909.625602,374.225867L909.595062,373.637784L909.667154,373.098708L910.254878,372.057312L911.804309,371.463103L912.396597,370.666742L912.545333,369.809121L912.691133,366.243870L912.575608,364.994195L912.116522,362.684745L912.163044,361.447321L912.829203,356.779416L913.003065,356.473123L913.295829,356.228089L913.550836,355.927921L913.619509,355.468482L913.498547,355.113182L913.094094,354.482218L913.008285,354.126919L913.220710,353.477577L913.708054,353.318305L914.265498,353.275424L914.688253,352.950753L914.803597,352.123762L914.637468,348.491128L914.395606,347.578374L913.849187,346.277874L913.705798,345.936644L913.577760,344.821738L914.718811,337.356750L914.877163,336.319045L915.750946,330.505738L916.069034,328.386057L916.983410,322.339834L917.768418,320.159028L918.047172,319.044122L918.001167,317.910838L917.381246,315.325725L917.456760,314.302707L917.913501,312.697732L920.214256,309.065097L920.500642,308.397378L921.117706,308.673042L921.502138,309.046719L921.859380,309.205992L922.378642,308.832314L922.562341,308.379001L924.227937,298.626633L924.591565,297.352454L925.190715,296.243673L927.951424,292.625645L928.943974,291.324608L929.109560,290.916015L929.859914,289.064166L929.725671,286.754717L928.746991,281.964294L928.771269,280.745248L929.402870,275.737357L929.107816,272.671364L929.181890,272.071030L930.170759,269.724825L930.845825,269.280701L931.993403,268.277707L932.734696,267.629781L934.928082,266.505686L940.513093,265.069171L941.020664,264.741438L941.586339,263.984894L942.526554,261.987863L942.688149,261.773458L942.928340,260.817824L944.102986,259.415002L944.461565,258.315410L944.171290,255.904883L944.150712,254.759347L944.813531,254.051810L944.995493,253.534175L945.128368,252.921589L945.231559,251.653535L945.370694,251.267606L946.959343,249.414533L947.410083,249.157246L947.855815,248.997974L948.337785,249.095988L948.908062,249.613623L949.813634,250.091440L950.451639,249.319582L951.082423,248.125039L951.955708,247.353180L952.566868,247.291921L953.752458,247.438942L954.455497,247.353180L955.444417,247.059139L956.173403,246.716090L956.836657,246.189266L957.879263,245.184625L961.802067,239.435367L964.067580,236.113754L968.455342,229.672409L975.502485,223.201965L982.657341,216.613598L986.375095,213.201491L990.015856,207.978251L991.213647,206.259354L994.541339,201.467395L997.626775,197.024610L999.103494,193.952488L999.534964,191.081276L999.552489,190.964596L999.462010,190.809813L998.864933,189.788429L995.889054,187.886347L994.794560,186.927649L994.386587,185.907692L994.198641,184.661077L994.100628,182.103527L991.579996,183.184743L990.710235,183.337890L990.001309,183.301134L987.704261,182.853946L986.938051,182.400632L986.663462,181.864618L986.834727,181.625709L987.125492,181.451122L987.204010,181.111136L987.076204,180.673137L986.955273,180.425039L983.972297,176.666818L983.085502,176.026665L981.143483,176.017476L980.296232,177.643894L979.583567,179.552102L978.083419,180.376032L977.198180,179.922718L976.216839,178.936453L975.342261,177.772537L974.804529,176.801587L974.657053,175.934776L974.658032,175.034274L974.535979,174.311421L974.013976,173.971435L970.346176,173.931617L969.592236,173.674330L969.432641,172.657436L969.898713,171.423073L970.548847,170.216276L970.941352,169.263704L970.975905,168.200865L970.757619,166.007803L970.813324,164.905146L971.024599,164.298685L972.031642,162.491553L972.149416,162.029049L972.187059,161.781045L972.300493,161.033595L974.001341,155.701023L974.063554,155.394729L974.069191,154.806646L974.196054,154.472785L974.416349,154.307387L975.047948,154.169555L975.252448,154.053163L975.604205,153.465079L976.861088,149.477135L976.915301,147.115611L976.325822,144.769401L975.097522,142.377247L974.182801,141.433862L971.728312,139.513400L971.092649,138.634337L971.016971,137.497987L971.215887,136.239119L972.002740,133.469695L974.065276,126.204932L974.982531,124.106818L975.170448,123.972049L975.798817,123.809713L976.040777,123.671881L976.205330,123.365587L976.263944,122.743810L976.355667,122.455894L977.370709,120.435885L978.860199,118.558303L979.251911,117.905111L979.514093,117.467897L979.830826,116.199839L979.726302,115.507615L979.188823,114.264061L979.100621,113.585620L979.434514,111.910191L979.412693,111.378771L978.721858,109.966756L977.876401,110.296022L976.897001,111.256254L975.766460,111.731009L975.131573,110.492050L975.623654,107.435235L974.855418,106.383115L973.220089,105.655666L972.532509,105.069113L972.166120,104.182391L971.981987,102.150130L971.764778,101.565108L970.804697,100.785589L969.995557,101.459436L969.134944,102.626417L968.028670,103.329362L966.566003,103.323236L965.958634,103.408999L965.057096,103.794929L963.418982,104.827140L962.766717,105.013980L961.732826,105.161001L961.189218,105.142623L960.727626,104.955784L960.176207,104.458056L960.194698,104.164014L960.498958,103.794929L960.783136,103.065949L961.142208,100.758023L961.162127,99.600230L959.812334,90.906068L959.081511,89.365408L958.571111,89.169380L958.047398,89.233702L957.524743,89.392975L957.022928,89.481800L955.968316,89.451170L955.502367,89.362345L953.512885,88.644085L949.242344,85.789422L945.724690,84.510643L942.320791,84.455510L941.451989,84.117055L941.067282,83.558067L940.974042,82.957730L940.961592,82.331358L940.835392,81.686609L940.487388,81.029607L939.208660,79.341925L938.722820,77.975852L938.420702,76.606716L937.866784,75.441265L936.660790,74.692375L934.457471,74.185458L933.672595,73.624939L932.874218,72.359943L931.632677,69.702838L930.814527,68.606303L929.583196,67.774713L928.962861,67.655259L928.360165,67.658321L927.809855,67.517426L927.384429,66.958438L927.327394,66.237115L927.638995,65.607679L928.026724,65.018062L928.190057,64.423851L927.665144,63.220113L926.507601,62.002592L925.148617,61.123526L923.994998,60.930560L921.598065,60.961190L920.169210,59.654843L919.535380,57.472493L919.534392,54.881240L919.978028,53.101668L920.040993,52.490610L919.953615,51.963783L919.579737,50.983639L919.530268,50.464470L919.836652,49.873321L920.073510,49.545372L920.331072,49.188752L920.501828,48.557785L919.864265,48.127440L919.331576,47.877810L918.132654,47.061534L917.784858,46.905324L916.626908,47.243780L916.228600,47.156486L915.463051,46.644973L913.931316,45.122688L913.320148,44.640274L911.122683,43.487073L910.504881,43.349241L908.931734,43.317080L907.338901,42.551342L906.741999,42.353782L906.418315,42.402789L905.610459,42.860700L905.356846,42.670797L904.809028,42.062802L904.596320,41.903529L903.469364,41.672276L902.687607,41.830018L902.258771,42.569720L902.154001,44.640274L902.004251,45.672487L902.060163,46.278951L901.970704,46.932891L900.999334,47.963573L900.660887,48.589946L900.342134,49.965209L899.923932,51.162822L899.288165,52.248637L896.632648,54.868988L896.123895,55.735802L895.605271,57.149353L894.848802,58.567497L893.986405,58.778840L892.940235,58.524616L891.654130,58.555245L891.073047,59.255129L890.934581,60.371573L890.559024,61.321086L889.245269,61.535492L888.054046,60.887679L884.680398,57.072779L884.085629,56.588833L881.998260,55.571935L881.847731,55.642383L881.691975,54.795478L881.121308,54.525938L878.575010,52.622316L878.158380,52.119993L874.996027,53.015905L873.851679,53.147612L871.368093,52.917891L869.776395,53.159864L869.230553,53.165990L867.899254,52.554932L867.631913,51.404795L867.540861,50.078538L866.770801,48.928401L866.049045,48.678771L865.603663,48.955968L865.155452,49.455228L864.446747,49.864132L863.376569,49.864132L862.912702,49.946832L860.799805,54.682149L860.024616,55.904265L859.247425,56.480099L857.097307,57.057464L856.480761,57.503123L856.288141,58.153999L856.168843,58.837036L855.810056,59.374583L855.336200,59.535388L854.827425,59.475661L854.317977,59.356206L853.820307,59.322513L852.650955,59.642591L851.903590,60.236803L849.923545,63.229302L848.967609,64.276829L847.862610,65.047160L846.680453,65.197244L845.415994,64.748523L844.974626,64.186472L844.795132,63.354882L844.310952,62.103669L842.532444,60.636517L840.330979,60.746784L838.031077,61.241449L835.968204,60.933623L834.972796,60.129600L833.993031,59.031533L832.512965,56.938009L832.289330,55.790936L831.937994,55.308521L831.091297,55.238074L830.611273,55.571935L829.758115,56.616400L829.234424,56.671533L827.600186,54.086405L827.339861,53.525886L827.180539,53.055724L827.088569,52.567183L827.046305,51.933153L827.198701,50.588519L827.446556,49.563963L827.279740,48.913087L824.580424,48.473553L823.992298,48.562379L823.640079,48.482742L823.097699,47.837992L822.831647,47.730789L822.369985,48.009517L822.150482,48.194825L822.243300,48.277525L822.201620,48.415357L822.172444,48.703275L822.050986,48.955968L821.732512,48.992723L820.841320,48.568505L820.554308,48.519498L819.062673,48.769128L818.654104,48.724715L818.049639,48.323469L817.085284,47.162612L816.544566,46.663351L816.132070,46.510204L814.847673,46.203909L814.615216,46.199314L814.225988,45.236017L813.977510,43.817872L813.847061,41.378233L814.229059,37.923226L814.019738,36.639850L813.808108,36.096176L813.454441,35.420796L813.009726,34.817395L812.514273,34.500380L812.044383,34.524883L811.037439,34.841899L810.648329,34.841899L809.954831,34.221651L809.619222,33.238444L809.180069,30.783489L808.477394,29.376063L807.540111,28.706809L802.918469,28.138631L801.859833,27.720538L800.909309,26.839940L800.621411,26.247259L800.387764,24.977666L800.189407,24.418677L799.736850,23.841311L798.085683,22.427758L797.716204,22.254701L797.365108,22.037966L797.045872,21.771489L796.755872,21.463662L797.076081,18.818801L796.975191,18.051531L795.584902,17.458849L795.086297,17.333268L794.350274,16.777342L793.770584,16.648698L792.770178,16.584376L792.255548,16.474109L791.802085,16.281143L791.057389,15.676209L790.373858,14.988576L789.643103,14.420398L788.727148,14.184550L787.596106,14.037528L786.383959,13.656190L782.057298,11.253302L779.896404,10.371170L777.662762,10.191987L775.256828,10.983762L773.400276,12.091020L771.841831,13.282510L770.397194,14.740476L768.865832,16.648698L768.623028,17.146428L768.136834,18.561513L767.856407,19.079152L767.264517,19.766786L766.975606,20.017948L766.045123,19.926059L765.994942,19.791289L765.813279,19.500309L765.523561,19.210859L765.165408,19.079152L764.826776,19.235363L764.288199,19.861737L763.905278,19.926059L763.561160,19.604449L761.375454,17.020847L761.010582,16.774279L760.263453,16.648698L757.767034,16.648698L757.224760,16.951930L756.518919,17.599745L755.998228,17.901446L755.286910,17.599745L754.849713,17.642626L754.543466,18.269001L754.219252,18.269001L753.795601,17.605871L752.897003,17.464975L751.934016,17.837124L751.333346,18.708535L750.971702,18.269001L750.603721,18.696283L749.943607,19.094467L749.255337,19.393105L748.813665,19.518686L747.910251,19.429861L746.471708,18.849431L745.816274,18.708535L745.709314,18.330260L744.700089,16.062142L744.039851,15.498558L743.244928,14.970198L742.497275,14.322383L741.989767,13.411154L740.887789,13.911947L740.539674,14.184550L740.039992,13.484665L739.153282,13.435657L738.160528,13.564302L736.822831,13.294762L735.806952,12.815409L734.830816,12.029761L734.435265,10.983762L734.198814,11.097091L733.606410,11.268616L733.370027,11.388072L733.332277,10.446213L733.355764,10.136854L732.700030,10.440087L732.359250,9.933168L731.873793,8.113772L731.714152,8.328179L731.164015,8.887168L731.015262,8.636006L730.677485,8.392501L730.441966,8.113772L729.738162,8.464480L729.392693,8.020352L729.038880,7.318935L728.288457,6.899310L728.041478,7.508838L727.759886,7.926932L727.389202,8.113772L726.973022,8.101520L726.653574,8.043324L726.387565,7.933057L726.126086,7.746217L726.316213,9.259317L726.505318,9.734076L726.021615,9.485976L725.556210,9.421654L725.213154,9.663628L725.080334,10.339009L724.810659,10.381891L724.200025,10.375765L723.488326,10.510535L722.947953,10.983762L722.260926,10.433961L721.345172,9.248597L720.784551,8.887168L720.048160,8.749335L719.574798,8.936176L719.348960,9.510480L719.371445,10.544227L718.561870,10.146043L717.644878,10.283876L716.966278,10.959258L716.893346,12.161468L715.948508,11.265553L715.444595,10.179736L714.851991,9.375710L713.646564,9.329765L713.477801,9.697320L712.972263,10.388017L712.446290,10.703501L712.060235,9.525795L711.806986,9.107701L711.654894,8.556369L711.813260,7.746217L711.582204,7.859546L711.022006,8.012694L710.774602,8.113772L710.633992,6.664994L709.900360,6.291313L709.427555,6.527161L710.053106,6.899310L709.570384,7.694147L708.852461,7.755406L708.102714,7.389383L707.524470,6.899310L706.055932,5.078382L705.319702,4.473448L704.153832,4.098236L704.082851,4.032383L703.849245,3.919053L703.459878,3.409071L703.161023,3.258986L702.525037,3.396819L702.172557,3.761311L701.774001,3.873109L701.021474,3.258986L701.017309,2.889900L701.279768,2.687745L701.434029,2.473338L701.566643,2.255868L701.726357,2.046055L700.554146,2.064433L700.121472,1.546793L699.939798,0.770334L699.526108,0.021441L699.201943,0.021441L698.511673,0.134770L697.564665,0.000000L696.994017,0.180714L697.427357,1.235903L696.807727,1.385988L695.533677,1.955698L695.067533,1.822459L694.503850,1.183833L694.348835,1.091944L694.243228,1.309414L691.914707,2.761256L690.783515,3.066020L689.852711,2.448834L689.320702,3.188538L688.556570,3.464204L688.193326,3.836353L688.874889,4.876227L687.804028,5.265223L687.159831,6.125913L686.848915,7.321998L686.777752,8.703391L686.440084,9.440032L685.784489,10.256310L685.352476,11.260959L685.718032,12.567310L686.088112,12.809283L687.122468,13.020627L687.510389,13.411154L687.552981,13.846094L687.279441,15.019205L687.210537,15.636391L687.047109,16.010071L686.317847,17.020847L686.162905,17.679382L686.130205,19.146537L685.920484,19.739219L685.445957,20.330369L684.648780,20.567748L682.360263,20.812785L681.884829,21.322767L681.272613,21.676538L677.935607,21.909322L677.457746,21.691852L677.092624,21.405466L676.701126,21.178808L676.138713,21.138989L675.739787,21.731671L675.355030,22.134449L674.886863,22.315961L674.662573,22.565591L674.129491,23.755548L673.845064,24.956225L673.392636,25.097121L671.527246,24.489125L669.732118,23.372679L667.785565,22.752431L667.196586,22.755494L666.820631,22.972964L665.861681,23.758611L665.587935,23.933199L664.402025,24.210396L662.524698,25.539717L661.491919,25.993034L660.891472,25.934838L660.407901,25.685207L659.979399,25.533591L659.538789,25.772501L658.973158,26.457071L658.422168,26.993088L657.839358,27.071193L657.210865,26.398875L656.353139,27.058941L655.348770,27.132452L651.880567,26.723548L651.347884,26.426442L651.508999,25.812320L652.195298,24.778574L651.464947,24.182830L649.918878,23.611589L649.286955,23.126111L648.993336,22.436947L648.986295,21.252319L648.515737,20.696392L647.853398,20.402349L646.532523,20.175690L646.011150,19.926059L645.687735,19.488057L645.221947,18.357826L644.919946,17.901446L643.900756,17.072917L642.508985,16.268891L642.174785,16.177980L641.062108,15.875301L639.866809,16.281143L639.684705,16.948867L639.714904,17.766676L639.574050,18.247560L638.851748,17.901446L638.560013,17.391464L638.028250,15.636391L637.745923,14.994702L637.030862,15.850798L636.278053,17.232190L635.945615,18.512506L636.513507,19.079152L637.818993,19.386979L637.918385,20.108305L637.272984,20.918456L636.355068,21.506544L632.605114,22.050218L632.080579,22.534962L631.984926,22.691172L631.391680,24.375796L631.225804,25.060365L631.226053,25.610165L631.133329,26.052761L630.693759,26.398875L630.369523,26.398875L629.998148,24.965414L629.134604,24.544258L628.083888,24.839833L627.113089,25.551969L625.670656,27.708287L625.144200,28.016113L624.434561,27.847651L623.415891,27.049752L622.813540,26.803185L621.831735,26.971647L620.940670,27.561265L619.618707,28.826264L616.957984,30.241347L616.034982,30.887630L615.248115,30.025409L614.933414,29.899828L614.605567,30.079011L614.382260,30.443502L614.215251,31.033120L614.200287,31.696249L614.449369,32.284335L614.505657,33.048541L613.251816,33.042415L611.025300,32.503336L610.653541,32.616665L610.118374,33.143493L609.639091,33.313486L609.254933,33.267542L608.224974,32.950527L607.618954,32.875484L606.671268,33.223129L604.676930,34.841899L603.525310,35.338096L601.172330,35.673489L600.122099,36.041043L598.113692,37.348923L595.715206,38.012052L594.596575,38.575634L591.462527,41.421114L590.542111,41.811640L589.322177,41.967851L588.451080,42.430356L587.874689,43.191499L587.511835,44.242090L587.426473,44.923596L587.436823,45.441235L587.392287,45.871579L587.142379,46.303455L586.722629,46.494889L585.754733,46.448945L585.357225,46.706232L584.454394,46.113552L583.548243,45.739872L582.600589,45.548438L581.583971,45.493305L581.404218,45.346283L580.819432,44.664777L580.693201,44.462622L580.459400,44.315601L579.305707,44.053719L578.871613,43.873005L578.174873,42.219012L576.722186,41.206708L576.541876,41.001490L575.900160,40.584929L574.577984,38.526627L573.787043,37.765484L571.454258,39.097867L570.175644,39.333714L569.019176,38.776257L568.451957,38.235647L567.847755,37.783862L567.196302,37.477567L566.492618,37.361175L565.862551,37.030376L565.530861,36.252387L565.317107,35.374852L564.732299,34.126700L564.165750,32.530903L563.728925,32.063803L563.079864,32.005607L562.455538,32.272083L561.853722,32.631980L561.239976,32.875484L560.483078,32.843323L559.994968,32.662609L559.600813,32.699365L559.104094,33.313486L558.803114,34.053189L558.783013,34.779108L559.022061,35.478992L559.487796,36.148247L559.061018,36.734802L557.919330,37.731792L557.334786,39.356686L556.468407,39.180567L555.457385,38.566445L554.659551,38.208080L553.781974,38.563382L553.287468,39.425603L552.717310,41.445618L552.320393,42.347656L551.873330,43.090421L551.311641,43.713732L550.570703,44.242090L550.588005,44.941974L550.912613,46.144181L550.988070,46.706232L550.862173,47.119730L550.363689,48.158070L550.253596,48.528687L550.094336,48.842639L549.391819,49.444508L549.232564,49.759992L549.250834,51.165885L549.148439,51.790726L548.861873,52.372686L548.141332,52.783121L547.028920,52.896450L544.725613,52.813751L543.796182,53.437060L543.522730,54.878177L543.645475,56.504602L543.915373,57.668522L544.828918,58.881449L544.962617,59.325576L544.736013,59.977984L544.249831,60.618140L543.632626,61.114337L543.034382,61.311897L542.623058,61.863228L541.121235,65.027251L541.148708,65.693442L541.473131,66.936998L541.499293,67.456167L541.207117,68.044253L540.258526,68.987640L540.055452,69.257179L539.658009,70.177594L538.737052,71.199086L536.901002,72.678489L536.596986,72.820978L535.571098,73.301798L535.091889,73.525393L528.851139,73.885289L523.818185,72.604978L522.632510,71.758074L521.433498,71.249625L520.895156,70.877477L519.912419,69.739593L519.639898,69.477711L518.620196,69.076465L515.966498,68.502163L514.853040,67.915260L513.398063,67.148341L513.007706,67.013571L512.386266,67.038075L512.122043,67.114649L511.901587,67.252481L511.406003,67.456167L510.315936,67.676699L507.265269,67.456167L506.014368,67.197348L505.182212,66.597011L504.452033,65.910911L503.496277,65.396336L503.030773,65.322825L501.517837,65.396336L500.938661,65.304448L500.677323,65.083915L500.529124,64.818971L500.278492,64.586187L499.166442,64.125213L498.414190,64.021073L496.637125,64.180346L494.657096,63.990444L493.771316,64.076206L488.774226,67.013571L488.231384,66.740969L487.198833,66.731780L486.630219,66.609263L486.244054,66.325940L485.851446,65.918568L485.361883,65.552546L484.684880,65.396336L482.420864,65.506602L481.414661,65.414714L480.216801,65.027251L479.348261,64.589250L476.824999,62.779049L476.567448,62.360956L476.217990,61.941333L475.665073,61.754493L474.984412,61.805032L474.493733,61.950522L474.101157,62.192494L473.703938,62.526355L473.388269,62.916881L473.105805,63.400827L472.758277,63.861800L472.290640,64.180346L471.637003,64.232416L471.218290,63.932248L470.836819,63.560100L470.305531,63.373260L469.256332,63.308938L468.865639,63.128224L468.435895,62.149613L467.800520,61.795843L466.520822,61.311897L465.984971,60.575259L464.962311,58.503175L464.531712,58.074363L463.670726,57.889054L458.626470,55.806250L453.806165,54.642330L451.758944,54.801604L451.048990,55.225822L450.442769,55.775621L449.652163,56.253441L448.399827,56.455595L444.243221,56.455595L439.790256,57.228989L438.593143,56.916569L437.516432,56.124797L432.077789,50.407776L431.846167,50.164301L431.300516,48.885520L431.550540,47.749166L432.071961,46.755240L432.372884,45.896082L432.016813,44.677029L431.157076,43.336989L430.121144,42.255768L429.236472,41.811640L428.800499,41.381296L427.636577,38.575634L426.594270,36.740927L425.796967,35.762315L424.934094,35.338096L423.846532,35.184949L421.385236,34.267595L420.429471,33.720859L419.405417,32.766750L416.999539,29.452637L415.993592,28.722123L412.516763,27.205963L410.846916,25.928712L409.604673,24.732629L408.180565,23.755548L403.540140,22.651354L402.254911,22.117603L401.696992,21.322767L401.435206,20.402349L400.513518,18.669136L400.089797,17.872348L399.477629,17.054539L398.743387,16.495550L396.355149,15.239738L394.763379,14.869121L393.710354,14.310131L393.228381,14.184550L387.267270,14.046717L385.335186,13.045131L384.283452,13.271789L382.643131,14.184550L381.568939,14.313194L378.169121,14.184550L376.993954,14.515349L376.227918,15.310186L375.140164,17.054539L370.498598,20.330369L368.061201,21.604558L367.687121,22.114540L366.910803,23.657533L365.928951,25.185946L365.060818,25.418731L362.655838,25.388101L361.778116,25.772501L361.289066,26.301846L360.074545,27.616398L359.337412,28.688431L358.759518,30.079011L358.314971,31.932096L358.065526,32.503336L357.631977,33.030163L357.170268,33.414564L356.801240,33.901573L356.392246,36.169687L355.690998,37.022719L354.777489,37.688910L353.833265,38.575634L352.076594,42.013795L351.851242,42.225138L350.843796,42.640168L350.618509,42.860700L350.500294,42.949526L349.919171,44.683155L348.148060,46.303455L346.898778,48.323469L344.274536,55.823096L343.051261,57.769599L341.375037,59.147925L338.938847,60.098970L337.881177,60.340943L336.827681,60.415985L335.798986,60.187796L334.826445,59.509353L333.814996,59.420528L332.796058,60.523188L332.029057,62.082228L331.784385,63.373260L332.207937,64.384032L333.655823,65.766952L333.979390,66.408640L334.263228,67.538867L336.161773,71.464031L336.859448,73.784212L337.619212,78.789064L337.580643,82.554953L337.395957,83.988411L337.037549,85.323854L335.959405,87.354586L335.865742,88.680840L335.887150,89.420630L335.943469,91.368573L334.954522,98.716572L336.790360,112.521248L337.227890,114.159921L337.685068,121.592145L337.147436,130.177564L336.668549,131.500753L336.559132,132.205229L336.218790,133.188432L335.401456,133.990922L333.563442,135.047636L332.486619,135.877692L331.811347,136.946658L330.113865,142.796869L329.299951,144.260953L329.103185,144.864352L328.899443,146.166100L328.670246,146.778688L327.732146,148.313219L326.488236,151.327149L326.319390,152.117387L326.144037,153.722366L324.850879,157.756253L320.887257,165.422782L320.732860,165.918978L320.198366,166.121132L317.211912,169.300459L316.529635,170.268346L316.123137,171.223982L315.560913,174.709602L315.236417,175.876581L314.787239,176.994552L314.208013,178.072705L313.487183,180.134060L312.955705,181.028437L312.064514,181.331667L311.856275,181.938129L310.603469,183.641120L310.217050,184.333343L308.215462,190.572540L308.219178,191.451602L308.535081,193.252607L308.672437,195.068927L308.446469,200.739948L308.754711,203.470553L308.747524,204.410874L308.583737,205.433893L308.060982,207.394170L307.956607,208.415659L308.410673,225.405745L308.295609,226.643169L305.224290,234.318876L304.935501,235.478196L304.698242,237.648283L302.882102,244.290249L302.702155,247.981081L302.331713,249.154184L300.171814,253.283014L299.006402,254.740969L298.004960,256.979972L297.661614,258.342976L298.276189,262.459555L298.269023,267.158090L299.840432,274.711276L299.837565,276.334629L299.059624,280.910646L299.094347,282.583006L299.415480,284.028709L300.420028,286.877234L301.188984,287.361177L301.742022,288.322937L302.073367,289.468473L302.182671,290.485365L301.847165,296.237547L301.555732,297.187056L297.063706,304.311430L292.949486,317.034840L291.991721,319.160513L289.857141,330.205437L289.715762,331.694021L289.850271,333.194856L291.128892,339.118562L291.578897,349.624412L291.183204,350.212494L290.451316,351.382533L287.102761,354.917154L286.815418,355.333713L286.592946,355.793153L286.488952,356.663025L286.407447,356.908059L286.233993,357.122464L285.616410,357.630910L284.944182,358.506909L283.849807,359.419662L280.896187,363.438278L273.843433,373.031324L272.477116,374.458649L271.402849,375.928856L271.001691,376.302534L269.593286,377.074392L269.446569,377.380685L268.415658,378.759004L267.873812,379.120430L265.134043,379.996428L262.487208,380.419112L261.469293,380.731531L257.970367,382.354885L255.447146,383.157372L253.779910,383.469791L253.460333,383.622938L252.907480,384.051748L252.587914,384.198769L252.441021,384.560195L251.203705,386.183548L249.153715,388.229586L247.509166,390.385889L245.063508,392.621829L243.865746,393.430443L243.523915,393.816372L243.284778,394.245183L242.712496,395.899165L241.494202,398.349510L240.682248,400.536443L239.812812,401.927014L237.852854,406.319258L236.119611,408.867618L234.905014,411.618130L234.192876,412.858666L233.153683,414.668811L232.766565,415.642823L232.498432,416.622961L232.426002,417.296806L232.452121,419.312216L232.138132,421.064213L231.451576,422.565050L227.284310,428.757894L227.156236,428.948202L226.872477,429.658802L226.701980,430.467417L226.376783,430.638941L225.459745,431.429178L224.646897,431.815107L224.397502,431.968254L223.919730,432.452197L223.114964,433.616112L219.801858,437.273254L217.576942,439.166147L214.643983,442.333220L213.157461,443.472632L211.854184,444.789693L210.564922,446.682586L209.921810,447.932263L209.537997,449.267703L209.597589,450.639897L209.671530,451.099337L209.664635,451.479141L208.972511,454.143894L208.860484,455.105655L209.035333,456.018410L209.513461,456.839276L209.636637,457.145570L209.731742,457.703024L209.752462,460.563805L211.432904,474.794203L210.289541,483.535823L209.031033,487.768802L208.886474,488.595795L208.822912,489.447292L209.170221,492.884482L209.385436,495.015712L209.170776,497.962258L209.435323,501.294735L209.202747,504.498568L209.419431,505.484835L209.900420,506.599744L209.904211,507.959689L209.571692,510.544810L209.840939,511.794489L210.453815,512.480587L211.062369,512.958406L211.340200,513.595497L211.235504,514.979946L210.975490,516.076478L210.284537,517.865235L207.677740,522.925212L206.584304,526.092293L205.402070,528.671289L202.121911,533.161561L199.969430,538.037764L199.572531,539.373207L198.827005,540.212453L197.929540,543.030360L196.283555,546.246450L195.913242,546.705891L195.606987,547.306228L194.635089,550.791857L193.365600,552.160366L193.100776,552.445847L191.066341,553.646521L188.747840,554.430634L186.399150,554.834943L184.099235,555.220874L176.530871,557.940768L175.598186,558.424713L174.793994,559.123065L174.127915,560.237976L172.482477,566.069823L172.198313,566.584398L171.033264,567.962724L170.825470,568.360907L170.370183,568.563061L169.068244,569.328797L167.030705,570.168045L161.189071,573.488278L160.162930,574.241763L158.726308,574.940114L157.445608,575.779362L156.887255,576.949407L156.601401,577.745774L154.628291,580.885045L151.842390,585.317379L150.694683,586.511929L147.896021,588.110788L147.465089,588.760133L147.125292,589.531995L143.060513,594.028404L138.724906,602.139094L138.318967,603.113112L137.778486,603.995242L136.952302,604.760980L134.485969,605.961656L131.006779,608.412017L129.462841,609.024607L127.461996,609.245139L126.879875,609.000103L125.254750,607.879063L124.602399,607.627901L124.365595,607.468628L123.943433,606.690638L123.696528,606.414973L123.264460,606.372092L122.145432,606.433351L121.914510,606.194440L121.491498,605.551221L120.529780,605.514465L119.506535,605.820760L118.882791,606.194440L117.799527,607.487006L117.159615,607.854560L116.158786,608.032211L115.244387,608.215988L115.033715,606.414973L115.904489,601.808296L115.708197,601.195706L115.446571,600.662752L115.239165,600.099170L115.210904,599.400817L115.343931,598.843360L115.750057,597.801957L115.845283,597.238375L115.643295,595.755907L115.070579,594.812519L114.297187,593.985523L113.509287,592.864483L113.090136,590.604027L112.703258,589.286960L112.749204,588.821391L113.181172,587.963766L114.013067,587.112266L115.996687,586.181130L116.627861,585.458275L117.216965,584.533264L118.099006,583.424477L118.840936,582.242180L119.014893,581.133393L118.676658,580.735210L116.873461,579.418142L115.859592,578.064320L115.013904,576.594106L114.667412,575.736481L114.652997,575.417934L114.833177,575.099388L115.065013,574.247889L115.161187,573.488278L115.170143,572.857311L115.043061,572.385617L114.741897,572.109952L113.773855,572.189589L111.511990,573.574040L109.129938,574.223385L108.060365,575.062632L106.092692,577.010666L104.124676,578.058194L102.115187,578.793301L97.511769,579.424268L95.555558,580.306397L94.001952,582.658741L93.909105,582.830266L93.794878,582.958909L92.958689,583.638884L92.070940,584.839559L91.522972,585.207113L91.003953,585.231616L89.482553,584.734678L89.428559,584.717041L87.957772,584.827307L87.477508,584.686412L86.907739,584.116704L86.181269,582.560726L85.704203,581.837871L84.536035,580.974120L83.466478,580.851602L80.140510,582.162543L79.533087,582.536223L79.323964,583.216197L79.854488,588.937784L79.658944,590.083326L78.832157,592.478552L78.641125,593.777242L79.326693,596.325616L78.977898,596.840191L78.586346,596.791184L78.154777,596.650288L77.726403,596.901450L77.506561,597.550796L77.646325,598.641205L77.368343,599.057767L76.908653,599.112900L75.716415,598.733094L75.208603,598.696339L74.112384,599.498831L72.964017,601.881806L72.359505,602.097218L71.880974,602.267738L71.250502,601.943065L70.225099,600.730137L69.562252,600.393213L68.961816,600.491227L67.258565,601.612267L67.785302,602.126842L67.993213,602.635292L67.839379,603.082483L67.248351,603.431659L64.544445,605.673739L63.090370,607.658531L62.536325,608.160855L61.437603,605.575724L61.070844,603.511296L60.793815,602.794565L60.305056,602.249360L59.534891,601.771540L56.375047,600.485101L55.427747,599.780623L52.981946,597.360893L51.593068,596.350119L51.088224,595.762033L50.450154,593.820123L49.523437,592.276397L49.106623,591.388142L47.979655,589.881172L46.703301,590.034319L45.836967,591.345261L45.939814,593.342303L45.492955,595.039177L43.618862,595.804914L33.335809,598.518688L31.746917,599.535587L30.865557,600.638249L30.264445,601.887932L29.916905,603.217253L29.801473,604.595580L29.311270,605.312311L26.952228,606.856038L26.164744,607.585020L25.704030,608.853082L25.590935,609.790345L25.203611,610.470320L23.920254,610.960392L21.903673,611.131917L21.436795,611.533164L21.273634,612.739967L20.413259,614.975187L18.454929,616.390272L14.057989,618.105527L13.619969,618.166786L13.231236,618.105527L12.900995,618.221919L12.638551,618.797754L12.608853,619.300079L12.702713,619.937174L12.905032,620.500757L13.200551,620.813179L16.414098,622.099620L17.043552,622.608070L17.378581,624.598991L17.197082,629.150544L16.996415,634.204422L16.713971,641.285978L16.423958,648.667706L16.272464,652.514781L16.057381,658.003602L12.216959,657.960721L7.458299,657.905588L2.986979,658.622320L0.447511,660.208537L2.449392,664.080487L3.347849,665.387671L6.854824,669.391223L7.942923,670.968526L8.137629,671.127704L8.773312,671.513588L9.039695,671.778884L9.211499,672.217828L9.477361,673.298304L10.085790,674.581837L10.494418,673.671726L10.841628,673.411391L11.017074,672.956444L11.882829,672.760066L12.746149,672.824016L13.262651,673.148043L13.268977,673.616659L13.252104,675.031704L12.153135,675.813014L11.920050,676.268209L12.087281,677.242564L12.835918,677.306309L14.220706,676.914136L18.430397,675.738181L21.086178,674.111034L24.480600,674.236232L27.133612,672.999286L26.885852,670.158169L28.248793,668.323859L28.829340,667.219631L29.466831,666.245112L30.661795,665.291200L31.075696,665.064493L32.403938,664.138370L34.304471,663.530602L36.262688,663.236365L37.734258,663.241188L38.600312,663.506484L40.420033,664.316842L41.120751,664.490490L43.573680,665.764912L45.185345,666.086170L46.368617,665.966498L47.303438,666.106381L48.094685,666.077440L49.765646,665.464848L50.595827,665.329788L51.308036,665.706026L51.285824,665.718578L51.337958,665.716132L55.748297,666.138820L57.921214,666.757538L59.562477,667.743810L60.143364,667.272115L61.210062,665.985672L61.557433,665.716132L63.274853,665.752887L67.449605,665.838650L68.985605,666.377731L69.617760,666.347101L70.576671,665.893783L71.074337,665.777391L75.197857,666.273590L83.858668,665.483347L90.992727,664.840125L93.013764,665.532354L94.261612,666.340975L95.037245,666.671775L101.257738,666.138820L102.455835,666.291968L105.537204,667.529403L106.562436,667.682551L112.011585,667.798943L116.742390,667.909210L119.122121,667.443640L122.437432,668.399283L124.051203,668.576935L130.704258,667.198604L133.627036,667.143607L135.587707,667.106715L140.357736,667.014826L145.122370,666.922937L149.892371,666.837174L154.662423,666.745286L159.432482,666.653397L164.197104,666.567634L168.967178,666.475745L173.737216,666.389983L178.507305,666.298094L183.277358,666.212331L188.042061,666.120442L192.817575,666.028553L197.582294,665.936665L202.352422,665.844776L203.729945,665.818210L207.117156,665.752887L211.892654,665.667124L214.961078,665.611991L216.292894,665.918287L217.190206,666.537005L218.010898,667.284366L219.145458,667.952091L219.997640,668.111365L220.781818,667.982721L222.460516,667.425262L223.498941,667.247611L224.438490,667.284366L225.365580,667.535529L227.335440,668.442165L227.717077,668.681075L229.647689,669.765363L229.470933,670.267688L228.761466,671.204953L228.763900,671.584760L229.260359,672.332122L229.514715,672.956966L229.607609,673.508298L229.788960,677.226730L229.945704,677.894455L230.248441,677.857699L230.742099,677.582033L231.207153,677.508522L231.402322,678.096610L230.289042,679.548453L231.325058,679.664845L231.952700,680.197800L232.832811,681.576131L233.440141,681.943686L234.134858,682.188723L234.693375,682.580782L234.924602,683.377151L235.827867,684.547201L236.285085,685.441585L236.154533,686.225702L235.775804,686.979190L235.638298,687.953211L235.635312,692.296486L235.712202,692.798811L235.875087,693.350143L235.983713,693.932105L235.908684,694.520193L235.609923,694.734600L235.128973,694.777482L234.673866,694.961259L234.469186,695.555473L234.417968,697.840440L234.507894,698.067098L234.800429,698.606179L235.143987,698.851216L235.490282,698.765453L235.765011,698.845090L235.866610,699.616955L235.557821,700.388821L235.075831,701.209693L235.070992,701.791655L236.204452,701.846788L235.857078,702.710542L235.873103,703.378267L236.197866,703.929600L236.733098,704.493184L237.197201,705.167034L237.165420,705.736744L236.512542,706.968053L236.309448,708.003333L236.468712,708.965101L237.218599,710.949897L237.436466,711.997429L237.569008,714.184380L237.792105,715.244163L238.188730,716.212057L241.021601,720.763610L241.213795,721.633489L241.292657,722.497243L241.512454,723.293611L242.111575,723.924580L242.676484,724.145113L243.933033,724.292135L244.525571,724.439157L245.779970,725.443806L246.393380,726.895647L246.757436,730.283275L246.631101,730.528311L246.442607,731.085769L246.443041,731.643227L246.904979,731.900515L247.502902,732.041411L247.823554,732.402839L248.029859,732.874534L248.301042,733.333977L248.739731,734.375382L248.531700,735.300394L248.155554,736.311169L248.084527,737.603735L246.415815,737.095285L246.294501,738.577754L247.328079,742.455453L247.201968,745.628672L247.467174,746.137122L247.971312,746.486298L248.606433,747.264288L249.441426,748.605861L249.567753,749.536998L249.559252,750.455884L249.784793,751.160363L251.178164,751.638183L252.929760,753.053266L254.272091,753.788374L254.833183,754.382587L255.056842,755.276968L255.055817,755.922383L255.053528,757.347523L255.353436,758.162267L256.087486,758.719724L256.516305,757.886602L256.830350,757.776336L257.141032,758.021372L257.554128,758.278659L258.662735,758.603332L259.135010,758.878998L259.325204,759.307810L259.041088,759.675364L258.423675,759.908149L257.816065,760.245073L257.528742,760.949551L257.647485,761.513134L257.978375,761.899066L258.417421,762.260493L258.903620,762.768943L259.592324,764.104389L260.433709,766.946804L261.198278,768.233243L263.731099,769.678954L264.758550,770.554956L264.553387,771.669869L264.792158,772.631634L264.729926,774.022212L264.844790,774.959473L265.625864,774.542913L265.734699,774.996229L265.846978,775.100369L265.846675,775.130998L265.617520,775.388286L266.482145,775.798721L266.487781,776.319421L266.147737,776.876877L265.953611,777.409830L266.226631,778.169440L267.161372,779.118953L267.355685,779.651906L267.589899,779.970452L268.791087,780.166480L269.306090,780.460523L269.381433,781.017979L269.330897,781.753085L269.579055,782.292164L270.571639,782.304415L270.567570,782.708724L270.076642,783.241676L270.436816,783.370320L271.127325,783.376446L271.633041,783.517341L271.782751,784.185063L271.748090,784.944673L271.916199,785.391862L272.679498,785.134575L273.270628,785.894185L273.071056,786.421011L272.579909,786.972341L272.296541,787.780958L272.486758,788.173014L272.952168,788.558945L274.067890,789.183785L273.815219,789.624849L273.786489,789.796374L273.898083,789.961773L274.055465,790.396710L274.203760,790.139423L274.525123,789.839255L274.770836,789.551338L275.226192,791.438110L275.495387,792.013943L276.018368,792.565273L277.160499,793.232994L277.582160,793.667932L277.755153,794.672576L277.128020,796.363319L277.528713,797.241140L277.544659,797.276075L277.943792,797.796775L280.853517,798.611517L282.326444,798.580887L286.773584,796.822760L288.341830,796.963655L290.103246,797.711012L290.746130,797.619124L294.014819,795.603710L294.863807,795.407682L296.603909,795.622088L298.132433,796.455207L300.769808,799.015825L302.157742,799.365000L306.835695,799.248608L306.517311,797.760020L306.594366,796.112158L307.094508,794.746087L308.050816,794.102869L308.857082,793.870086L311.000180,792.724546L311.843171,792.589776L315.736172,792.761301L318.286588,792.871567L320.230242,793.716939L320.904018,793.765946L321.710651,793.502533L322.861797,792.810308L323.731844,792.669413L326.931397,792.614280L327.249073,792.669413L328.279895,792.626532L328.023518,790.408962L328.143909,789.257296L328.785934,788.754973L332.551410,788.761099L336.635243,788.761099L340.373811,788.761099L340.828802,789.085771L341.058633,790.752012L341.374272,791.480992L342.167881,792.889945L344.476730,792.889945L351.128160,792.889945L357.790379,792.889945L364.447203,792.889945L371.109422,792.889945L372.533572,792.889945L371.463822,788.283280L371.319128,786.764061L371.491074,784.907917L372.287599,782.194149L372.803803,780.417642L373.874862,776.772737L374.080871,775.222887L374.075123,773.789428L373.687380,772.251829L373.111258,770.665223L372.702337,769.078616L372.821761,767.528765L376.422686,767.859563L377.429224,767.596149L378.188987,766.707895L378.759325,764.386180L379.482960,763.344777L379.521134,763.308022L379.564637,763.277392L379.608074,763.252889L381.106573,761.917443L381.158882,760.079674L379.814427,756.140720L379.431456,754.106921L379.289614,752.226269L379.957726,742.620852L380.490397,740.715696L381.106359,739.619159L382.569018,737.554728L382.913604,736.599086L382.795999,735.968118L381.859499,733.615769L384.585454,733.615769L386.782411,733.615769L388.973971,733.615769L391.165530,733.615769L393.357090,733.615769L395.554047,733.615769L397.751005,733.615769L399.942565,733.615769L402.134124,733.615769L404.331082,733.615769L404.904798,733.615769L406.522641,733.615769L408.719599,733.615769L410.916556,733.615769L413.108116,733.615769L415.299675,733.615769L417.491235,733.615769L419.693590,733.615769L422.203628,733.615769L422.207415,732.758142L422.460408,730.803977L422.707001,729.952476L423.137577,729.058093L423.573537,728.672161L424.179243,728.568020L426.926994,728.561894L431.294339,728.543517L435.807370,728.531265L438.825100,728.519013L437.566108,732.127173L436.100674,736.335672L435.264624,738.749280L434.133395,741.983758L433.779058,744.746541L433.807236,747.558332L433.834083,750.474261L436.262868,750.462010L440.062491,750.449758L443.862046,750.443632L447.656343,750.425254L451.455968,750.413002L455.255525,750.406876L459.055223,750.388499L462.854852,750.376247L466.649014,750.370121L470.454041,750.357869L474.242878,750.345617L478.042511,750.333366L481.847541,750.321114L485.641778,750.308862L489.446810,750.296610L493.246446,750.284358L497.040687,750.272107L498.794859,750.259855L499.863030,750.296610L499.844367,750.504891L500.029841,750.792808L500.368249,750.927578L500.769597,751.215496L501.093486,751.662687L502.236180,754.492853L502.523050,754.872659L502.802457,755.423990L502.667046,755.914062L502.402922,756.336749L502.291082,756.661422L502.585249,757.329145L502.947194,757.745706L503.249472,758.186771L503.370102,758.921879L503.306366,759.283307L503.030013,759.822386L502.967088,760.116429L503.081650,760.459479L503.582294,761.004684L503.696845,761.347735L503.590470,762.107346L503.100965,763.308022L502.920062,763.981871L502.873233,764.723104L502.987453,765.090658L503.156156,765.415330L503.283853,766.003417L503.256459,768.233243L503.078205,768.686559L502.306658,769.556436L502.129683,769.905612L502.018940,771.008273L501.775087,771.766123L501.396045,772.944055L500.761382,774.953348L500.065085,777.140291L499.638498,778.463483L499.037638,780.344131L498.728669,781.318147L498.388354,783.921650L498.698085,785.453121L498.754052,786.145346L498.572632,786.837572L497.802489,788.007616L497.622609,788.577323L497.722085,792.614280L497.945916,793.667932L498.446849,794.145750L500.073242,795.193276L500.415008,795.879375L500.509643,797.318956L500.839439,798.507377L501.392186,799.554902L502.685847,801.276273L502.993657,802.072637L503.131579,803.071155L503.216917,805.601141L503.740459,808.425169L504.152374,809.491071L505.656240,811.175685L506.159320,812.272216L505.769633,812.509516L505.354543,812.762285L505.064890,813.448383L505.648668,814.955346L506.895806,817.252546L507.276553,819.794780L507.036034,822.404398L505.733214,826.962038L505.996005,827.066178L506.156003,827.194821L506.364869,827.298960L506.758003,827.335715L505.782729,829.234731L505.191689,831.029607L504.516531,835.372838L503.924535,839.140236L503.552134,839.550668L503.125530,841.510939L502.571609,842.938261L502.078766,847.649035L502.158658,850.730333L501.311368,857.517759L501.860324,863.478192L501.808520,865.897894L501.221901,868.391104L499.555566,872.084974L499.190619,874.149375L498.628074,875.368412L498.546814,876.115762L498.758017,876.765098L499.623649,877.971883L499.964783,878.578339L500.569542,880.991909L501.088410,886.192719L501.594715,888.661418L502.851916,890.989222L506.099336,894.891355L506.801341,897.194654L507.127670,896.998628L507.941668,896.624955L508.268095,896.422804L508.334902,898.340177L508.939007,900.000266L511.871835,903.926896L512.383600,904.263814L512.751972,904.135172L513.130530,903.706367L513.701746,904.031034L514.555502,904.876392L516.547049,906.315951L517.242987,907.253196L517.620306,908.570239L518.006563,910.659129L519.020189,913.898692L519.436993,916.398001L519.678033,917.133091L519.285431,919.056577L520.193924,921.758033L521.431249,924.422734L522.310775,927.209948L523.492281,929.635742L523.908925,931.424458L524.650385,932.471960L524.811015,933.158042L524.740294,933.831874L524.451187,934.995764L524.381587,935.602212L524.113202,936.496570L522.908108,938.634451L522.531571,939.865724L522.622891,941.127625L523.131393,941.923971L523.763908,942.708064L524.237663,943.951588L524.377101,946.457012L524.310136,947.617238L524.238107,948.864424L524.330642,950.953297L525.154217,952.484729L524.867912,952.846147L524.783920,953.029919L524.894429,955.302564L524.723593,956.435823L524.203297,956.938133L523.209810,957.109653L521.910323,957.538454L519.712259,958.555325L518.762185,959.314915L517.529436,960.533934L516.607449,961.832588L516.600850,962.806578L517.058082,963.725437L518.092454,967.866426L518.051628,970.126818L518.213027,970.426979L518.965900,971.051802L519.127506,971.339711L519.286510,972.362707L520.126606,974.102413L520.445141,975.223420L520.957016,980.454788L520.727913,982.947958L519.934936,985.373745L521.260005,985.294111L522.246539,984.614155L524.584470,981.863705L525.354307,981.263384L530.599637,979.290901L532.138675,977.839104L533.873082,973.097794L535.783894,972.785382L539.711269,974.586345L541.637620,975.462323L543.606143,976.093273L545.619857,976.319925L547.526430,975.946256L548.637530,975.235672L549.779332,974.322939L550.953877,973.673612L552.195953,973.728744L553.249628,974.359693L555.180975,975.817615L556.210067,976.319925L558.205495,976.656839L560.535544,976.656839L565.779799,975.652221L570.067950,974.843625L575.851019,971.278454L579.368883,969.109948L581.578081,968.405490L583.690344,968.270724L585.710190,968.466747L588.930701,969.477491L593.306548,970.849654L595.036604,970.996671L597.085191,970.812899L599.066038,971.070180L601.209190,971.835895L603.283383,972.270821L605.051759,971.554112L605.412555,970.990545L605.836571,969.667389L606.160390,969.067068L606.664687,968.595387L607.787638,967.860300L608.287387,967.345740L608.735737,966.151223L608.994324,964.748433L609.437098,963.560042L610.427200,963.014852L612.196682,963.082235L614.630047,963.609048L616.856598,964.527906L618.015966,965.795931L618.011303,966.310492L617.699961,967.370242L617.651617,967.915432L617.768061,968.564759L618.110578,969.759275L618.194079,970.439230L618.069096,972.411713L618.393607,973.146800L619.446388,972.975280L620.503296,972.595485L621.374496,972.626113L623.288438,973.263189L624.313010,973.428583L626.245073,973.422457L627.216308,973.563349L628.377849,974.145293L629.863067,975.223420L631.150039,976.522074L631.712304,977.728841L631.515520,978.414922L631.069156,978.935609L630.670229,979.505301L630.615606,980.344525L630.897669,981.030606L631.762109,981.918836L632.112292,982.427271L632.365525,983.468645L632.404873,984.706041L632.287506,985.974066L632.064866,987.125702L631.641761,988.081316L629.913265,991.033916L629.246399,991.805757L627.063056,992.546970L626.382965,993.177920L626.802111,994.243797L627.632218,994.684849L629.799695,994.709352L630.758835,994.893124L631.904539,995.677217L633.631092,997.496558L634.662905,998.060125L635.865435,998.176514L636.978579,997.937611L639.170970,997.024877L639.682912,996.981997L640.289630,997.037129L640.840386,996.939117L641.189569,996.449059L641.370326,995.781354L641.597308,995.217787L641.919578,994.727729L642.381075,994.268299L642.853973,994.035522L644.027385,993.747613L644.582265,993.453578L645.105509,992.871634L646.087931,991.425962L646.659838,990.831767L648.680485,989.906782L652.608165,989.894530L654.635940,989.404472L658.549270,987.254343L660.744053,986.500878L662.736047,986.696902L670.198274,985.943437L673.323766,985.202225L678.316074,982.433397L679.963637,982.127111L680.585252,982.758061L680.664776,984.087343L680.568030,985.606523L680.649883,986.819416L680.610736,987.395234L680.198614,987.799532L679.101775,988.271213L678.487982,988.798025L678.762295,989.306461L679.332496,989.814896L679.590638,990.323331L679.126163,991.413711L678.506566,991.958900L678.056628,992.620479L678.079275,994.072276L678.451541,995.272919L679.579922,997.576193L679.944674,998.617567L679.862517,999.181134L679.131980,1000.124496L678.909945,1000.688064L678.887193,1001.239379L679.014850,1002.293005L680.312670,1007.132334L680.780110,1008.130829L681.193646,1008.645391L681.554233,1008.878169L681.993768,1008.945552L682.655440,1008.939426L683.340343,1009.098695L683.665116,1009.490742L683.901381,1009.993053L684.347790,1010.476986L687.291685,1012.075803L688.185831,1012.976287L688.265026,1013.282574L688.282096,1013.601112L688.250761,1013.919650L687.765776,1015.402079L688.075648,1016.210677L688.854516,1016.608850L689.877236,1016.565970L690.367713,1016.278060L690.693966,1015.879887L691.067514,1015.530720L691.725945,1015.426582L692.289647,1015.230559L692.506416,1014.679242L692.670637,1014.072794L693.087895,1013.692998L695.468243,1013.784884L697.224806,1015.065164L698.832517,1016.737491L700.792838,1018.030022L701.745568,1018.226046L704.740278,1018.250549L705.317350,1018.177040L706.362297,1017.631849L706.746624,1017.521586L707.308747,1017.631849L707.567623,1017.833999L707.760141,1018.115783L710.540024,1020.700847L711.642096,1021.178655L712.369998,1021.791229L713.042445,1023.635079L713.945579,1024.106762L714.615278,1024.210900L723.598086,1024.070007L724.753117,1024.572319L725.789305,1025.325786L726.829913,1025.889355L728.704213,1025.754588L729.765993,1026.330409L730.378075,1026.367163L730.965274,1026.091504L732.005376,1025.307409L732.549133,1025.050127L734.493346,1024.688708L736.484250,1024.627450L737.710788,1025.056253L738.579813,1025.821971L739.354474,1026.710205L740.291983,1027.531056L742.136069,1028.211014L746.343527,1028.535679L748.289557,1028.995111L749.273819,1029.650566L750.142330,1030.422411L751.028945,1030.887969L752.094447,1030.624561L752.903095,1029.754704L753.532479,1028.737829L754.340697,1027.996613L755.674537,1027.978236L758.097657,1028.272272L760.320324,1027.739331L762.357074,1026.446798L764.222212,1024.468181L765.299162,1022.171026L765.625051,1017.319436L766.186261,1014.979403L767.013165,1013.674621L767.801678,1012.853772L768.360959,1011.947163L768.489903,1010.360597L767.903529,1007.855171L767.900413,1006.728036L768.622139,1005.882684L769.075666,1005.809176L770.216858,1005.999073L770.733780,1005.974570L772.719334,1005.251734L774.951147,1005.037333L776.456030,1004.400257L776.796187,1004.345125L777.650065,1005.772421L778.129285,1008.479996L778.286327,1011.377469L778.136496,1013.374460L779.270865,1018.538459L788.813760,1025.227774L791.132766,1029.950728L791.294257,1032.321396L793.620957,1040.499287L794.401912,1041.712189L797.133227,1044.253522L797.410639,1044.511666L799.570929,1047.256012L801.013624,1047.795081L803.324602,1048.009483L805.719512,1047.886967L807.373365,1047.427534L808.382744,1046.533171L808.976038,1045.724569L809.670664,1045.259010L810.981050,1045.406029L812.028358,1045.853210L814.933214,1047.831835L815.663146,1048.903846L815.820484,1050.392411L816.123385,1051.654321L817.273809,1052.052497L818.213761,1051.868724L818.997174,1051.813592L822.815428,1052.230145L823.285188,1052.554811L823.457357,1053.057126L823.546959,1053.632949L823.769343,1054.165893L825.002416,1055.293037L825.775104,1054.931616L826.566152,1054.080132L827.876588,1053.706459L828.863026,1054.202647L829.624708,1055.066383L830.514501,1055.758597L831.885023,1055.752472L832.926770,1055.580949L833.956449,1055.660585L834.925513,1055.997503L835.808053,1056.554950L840.010298,1060.751118L840.687806,1062.025284L841.621288,1064.947291L842.226942,1066.282716L843.924498,1068.353239L844.428461,1069.468137L844.351047,1071.011841L843.727682,1071.991972L842.868484,1072.659686L842.326712,1073.505049L842.644603,1075.024252L843.675640,1076.586337L844.784023,1077.872761L845.566725,1079.275576L845.657954,1082.344618L846.190321,1082.895944L846.973489,1082.932699L847.790562,1082.528393L848.315463,1081.817796L849.115487,1080.108689L849.806399,1079.606371L852.217823,1080.194450L854.234379,1082.589652L857.606118,1087.735359L858.499098,1088.623607L858.856610,1089.266822L859.254544,1091.398619L859.464461,1091.662031L860.154486,1091.943820L860.345946,1092.194980L860.305065,1092.495147L860.039291,1093.144488L860.020765,1093.414026L860.050744,1093.677438L859.960355,1094.296150L860.012538,1094.626947L860.209149,1094.884233L860.501483,1094.988373L860.784141,1095.055757L860.952074,1095.190527L861.383635,1097.248818L861.870708,1097.579615L862.881297,1097.634748L863.350088,1097.855279L863.925561,1098.743530L865.263137,1107.475978L866.033167,1109.926337L867.565084,1111.659968L868.218974,1112.591106L869.060898,1112.799386L870.012673,1112.566602L870.969233,1112.174544L871.941163,1112.161449L872.333308,1112.156166L873.644775,1111.923382L874.896124,1111.905004L876.037592,1112.505343L876.479597,1113.246578L876.804208,1114.140961L877.239373,1114.839315L878.023079,1115.016966L878.586545,1114.667789L879.625572,1113.326215L880.336940,1112.879023L881.534407,1112.333817L884.619269,1110.085610L892.053479,1106.924647L893.138851,1106.183414L896.246743,1102.997953L897.461747,1102.409868L898.672983,1102.483379L899.610446,1103.089841L900.471601,1103.910710L901.448777,1104.621313L902.069172,1104.700949L902.525357,1104.529424L902.927662,1104.541676L903.380285,1105.197146L903.496494,1105.791357L903.391260,1106.428450L903.169385,1107.016536L902.911331,1107.469852L902.518343,1107.770021L901.581743,1108.027309L901.203264,1108.468373L901.107451,1108.970697L901.173243,1110.159121L901.059790,1110.710453L900.732080,1110.894230L900.235014,1110.998370L899.822668,1111.316917L899.797404,1112.143914L899.975041,1112.830016L900.223372,1113.485488L900.553699,1114.091954L900.989001,1114.600404L901.773005,1115.114981L902.879616,1115.611180L904.926573,1116.248276L908.263995,1116.291157Z "/></g></svg>