<?xml version="1.0" encoding="utf-8"?><!DOCTYPE svg  PUBLIC '-//W3C//DTD SVG 1.1//EN'  'http://www.w3.org/Graphics/SVG/1.1/DTD/svg11.dtd'><svg enable_background="new 0 0 1000 761" height="761px" pretty_print="False" style="stroke-linejoin: round; stroke:#000; fill: none;" version="1.1" viewBox="0 0 1000 761" width="1000px" xmlns="http://www.w3.org/2000/svg" xmlns:xlink="http://www.w3.org/1999/xlink"><defs><style type="text/css"><![CDATA[path { fill-rule: evenodd; }]]></style></defs><metadata><views><view h="761.719030741" padding="0" w="1000"><proj flip="auto" id="robinson" lon0="20.6354269799"/><bbox h="146.97" w="193.19" x="212.7" y="-184.47"/></view></views></metadata><g class="" fill="black" id="country"><path d="M140.931426,759.719031L144.825515,750.258396L148.271618,741.895230L150.706498,735.964414L154.150355,727.605726L157.373876,719.780093L158.417294,717.240985L160.166084,712.984737L162.324135,707.721359L162.669994,705.633925L161.990082,704.075070L160.875848,702.668516L159.934490,701.033509L159.702028,697.203561L162.627900,690.766559L163.118246,687.653326L162.523034,685.718194L161.715062,683.944323L161.096551,682.107739L161.140776,679.966551L162.016202,677.982144L164.627959,673.834152L165.053032,671.975170L165.089078,669.847420L166.973423,664.393660L167.613616,657.145869L168.817776,653.277842L171.156153,650.045900L174.274440,647.712093L177.857884,646.531751L179.620603,646.401846L181.163396,646.531751L187.476299,648.312343L189.088933,648.209315L190.586460,647.347016L190.732426,646.607902L190.513592,645.691849L190.612263,644.981852L191.734449,644.856427L192.455266,645.062482L193.858396,645.651534L194.563073,645.801596L196.680728,645.517149L197.432397,645.588821L198.273776,646.126358L198.839516,646.858753L199.458844,647.288782L200.476694,646.899068L201.069030,646.769163L202.097952,646.921465L202.564311,646.885629L203.202991,646.567587L204.059999,645.723205L204.587484,645.324532L205.856653,644.645891L206.543527,644.457753L208.608349,644.605576L209.658981,644.417438L211.709640,643.510344L212.759435,643.183342L215.828304,643.290849L216.926394,643.107191L218.203535,642.450948L218.886721,641.651361L219.505919,640.733068L220.559550,639.736384L221.663853,639.277238L222.645107,639.393704L224.626562,640.144017L227.400793,639.917803L229.027190,638.190965L230.540114,636.022898L233.496136,634.292020L234.487561,633.711487L235.643973,632.743920L236.881675,632.136951L238.639010,632.441555L238.973527,632.829030L239.281078,633.969057L239.654837,634.309497L240.723124,634.434923L241.072440,634.658897L243.919964,637.348823L246.704045,638.728502L249.807008,639.241402L256.069821,639.232443L256.480436,639.138374L257.363758,638.762098L257.909190,638.730742L258.424830,638.995031L259.174115,639.955879L259.658402,640.264963L260.362270,640.278401L261.838923,639.942440L262.503559,640.005153L263.670793,640.777863L264.659206,642.043315L265.388644,643.631290L265.763017,645.351409L266.293300,646.710930L267.386108,646.957301L268.830367,646.486956L271.746332,644.874344L272.178975,644.504788L272.583427,644.690686L275.299934,646.630299L276.037283,646.939383L276.985543,646.827396L279.365577,645.512670L281.962315,644.717563L284.635004,644.690686L287.274529,645.682890L288.628174,647.172316L289.622358,650.632711L290.634510,651.898163L292.296779,652.151254L293.896787,651.288955L295.224303,649.848803L296.100694,648.357137L296.387990,647.510516L296.917179,644.892262L297.368296,643.698482L297.928476,643.496905L298.617817,643.711920L299.464153,643.743277L305.557179,643.129588L306.016545,643.241575L306.881606,643.729838L307.419424,643.743277L307.710015,643.429713L308.018763,642.244892L308.356476,641.882054L309.225497,641.752149L310.522914,641.837259L311.216656,641.503538L312.606395,639.960358L313.445038,638.802413L314.441025,638.744180L316.366222,640.529252L317.626387,642.195617L320.794463,647.904710L322.032533,651.091858L322.972387,652.151254L326.333623,652.196049L323.648755,632.007046L325.095065,621.260776L325.012701,618.411957L324.981393,617.330033L325.118372,615.390418L326.695132,612.420523L327.219294,610.467470L327.489393,608.371073L327.545799,602.863551L326.434663,595.544077L325.414331,592.150869L322.637754,586.410411L322.222648,584.757482L321.749440,583.819030L319.631941,581.796543L319.012506,580.318313L319.370333,578.430211L320.492054,576.150153L321.982225,574.537539L323.461446,574.667444L324.883762,575.659650L326.388205,575.993371L327.928917,575.883624L329.475733,575.529745L333.038602,574.138864L335.490038,572.123096L337.279048,569.276383L341.116938,558.308361L342.943983,555.354139L345.534190,552.984490L346.384068,550.449100L346.556954,550.319194L346.886430,549.996671L348.359796,549.389701L348.689368,549.080616L351.258457,544.052390L352.639361,542.755578L353.975346,541.781289L355.000904,540.533751L355.599047,537.216689L356.138742,536.504450L356.813980,535.942274L357.448035,535.171802L357.812842,534.336377L358.462981,531.626285L359.308137,529.592596L360.386177,528.024774L362.162384,526.102274L362.877607,525.328120L364.161255,524.765944L367.678479,524.810739L368.948103,524.470297L370.384037,522.235031L371.519383,519.978441L372.066466,519.232605L375.631099,517.369134L382.419277,512.578312L384.010090,510.027239L385.130400,508.864809L386.849053,508.381023L391.821205,508.569162L393.392184,508.381023L395.791113,507.046133L397.329249,506.714650L400.154874,508.179446L408.872855,508.381023L409.577727,508.564683L411.117752,509.382191L413.445675,509.924210L416.938416,511.760804L418.012227,512.578312L418.907507,513.774338L419.527190,514.939621L420.875135,517.474402L421.257991,518.820491L422.073935,519.982920L423.953551,520.763518L430.740058,522.378375L432.822783,523.807332L434.639533,525.556574L437.081643,527.424522L442.166420,529.641870L443.637593,530.710229L447.156132,535.557038L448.653785,536.952399L450.051569,537.751988L453.651153,539.093595L455.241686,539.317570L456.503618,539.937979L457.669654,541.369176L459.194003,544.052390L460.896210,548.155602L461.533810,548.784970L462.827621,549.434496L464.342647,551.015755L465.599990,552.975531L466.120735,554.758367L465.680643,556.014863L464.918078,557.468457L464.552424,559.130347L465.350425,561.000532L465.689167,561.356609L473.643050,569.717612L475.217714,570.875559L476.968462,571.332467L483.480814,570.201397L489.559750,570.201397L491.391261,569.905751L492.547502,569.206951L493.434087,568.402883L494.472376,567.782475L497.466387,567.549541L504.515966,569.251746L511.893068,572.297796L513.152239,572.568805L513.781979,573.195933L515.277594,576.226304L516.061263,577.303620L517.932791,578.011379L518.862010,578.528759L519.490502,579.959955L520.061880,580.224244L521.596308,580.318313L522.373304,580.591562L522.931197,581.135819L523.543554,581.574809L524.499482,581.498658L525.183390,581.032791L525.691641,580.358629L526.104737,579.650870L526.566395,579.079736L527.147318,578.591472L527.721452,578.237593L528.439057,578.024817L529.434507,577.950906L530.243135,578.224155L530.754209,578.837844L531.130871,579.449294L534.821081,582.096669L536.091298,582.737235L537.843140,583.303890L539.314688,583.438274L542.625755,583.277013L543.615856,583.505466L544.331830,584.040765L544.906009,584.636536L545.470766,585.050888L546.302350,585.230068L547.812432,585.243506L548.606325,585.642180L555.914447,581.346355L557.209878,581.220930L560.105623,581.498658L562.704538,581.265724L563.804688,581.418027L565.431033,582.092189L565.797576,582.432630L566.014314,582.820105L566.396515,583.142628L567.243545,583.277013L569.456177,583.169505L570.136966,583.277013L571.534736,584.029566L572.602604,585.032970L573.819612,585.910949L575.649025,586.289465L580.110550,586.611988L581.704746,586.289465L582.429527,585.991580L582.751938,585.790003L583.138358,585.678016L584.047198,585.642180L584.618086,585.839277L586.745954,586.960878L588.374360,587.819209L592.255328,588.659112L593.746617,589.245924L594.145174,589.628920L595.582402,591.293048L596.369714,591.837305L598.123240,592.580899L599.857261,593.819476L607.217834,595.691900L616.344778,595.165561L617.045610,594.838559L618.545945,594.135371L618.990562,593.926984L621.675741,591.763394L623.022618,590.269486L623.603868,588.923402L623.900860,588.529207L625.288150,587.149526L625.715451,586.289465L625.677189,585.530193L625.202728,583.711523L625.162550,582.737235L627.358929,578.109928L627.960481,577.303620L628.835399,577.014694L629.738046,576.289017L630.449075,575.352805L630.780477,574.398674L630.584945,573.749149L629.248909,571.975273L628.854190,570.273069L628.674678,567.894462L629.074595,565.786864L630.433865,564.875288L633.802395,564.996234L635.429271,564.830493L636.483044,564.230242L636.902140,563.379140L637.051890,562.465324L637.025171,560.409240L637.258077,559.947853L638.285492,559.067634L638.518406,558.608486L638.679413,558.066468L639.408435,556.547922L639.592556,555.943191L639.482201,555.121206L639.007470,553.363007L638.982167,552.339444L640.065771,551.566732L640.887226,550.655156L641.541046,549.568880L642.121528,548.249671L642.955369,545.295448L643.678572,544.034472L644.962008,543.514851L646.128820,544.038951L647.607415,544.937089L648.874473,545.194660L649.729355,542.818291L651.399046,541.360217L652.023198,540.502395L651.342073,539.523626L650.992469,538.500063L651.021867,537.438424L651.462042,536.356627L652.188483,535.458489L652.764925,535.404735L653.478773,535.669025L654.585718,535.716060L655.483307,535.359940L656.363449,534.833600L657.276510,534.443884L658.225745,534.528995L658.864592,535.212117L659.693155,537.545931L660.548423,539.371323L660.861034,540.654697L661.346122,541.792488L662.267579,542.276272L663.296700,542.446493L664.249434,542.894442L665.133066,543.555167L665.962609,544.345796L667.653916,545.161063L669.523857,544.816143L672.935499,542.867565L674.092230,543.980718L676.025881,546.990935L676.964375,547.600145L677.228074,547.900271L679.352593,549.380742L680.371559,551.799665L681.006411,552.063955L682.693657,552.446951L683.035586,552.661967L683.220197,552.957613L684.075431,553.954299L684.338316,554.169314L685.825095,554.249945L687.211015,554.529913L688.536239,555.076411L689.856607,555.943191L690.437953,555.566914L691.853477,555.634107L692.467352,555.354139L692.832836,554.722531L692.897969,554.093163L692.882833,553.336130L693.007672,552.339444L693.538338,550.802979L694.381295,549.689826L695.655253,549.013424L697.439377,548.784970L698.785463,548.213835L703.368931,544.052390L705.004902,543.228164L708.512630,542.258354L711.449876,540.345612L712.985813,539.808074L716.426990,539.317570L718.111205,538.591892L721.027877,536.224482L722.413845,535.716060L723.300133,535.825807L724.806423,536.289434L725.368245,536.356627L726.069185,536.108015L726.851854,535.337543L727.395542,535.171802L730.651767,535.960192L732.485479,535.969151L732.403160,534.851518L732.038884,533.991456L732.060768,533.021646L732.305014,532.159344L732.631596,531.626285L733.111063,531.364235L733.571306,531.547894L734.722080,532.808870L736.071948,531.863698L739.963191,529.794173L741.896529,527.944143L743.199690,527.081841L744.635555,526.835469L745.516479,527.196068L747.006259,528.362976L748.044090,528.609348L748.814018,528.159159L750.923541,525.005597L752.343312,523.964115L753.879959,523.531844L755.142870,524.147774L755.685997,526.244176L756.160185,526.244176L756.803045,525.737993L756.938651,525.090707L756.938286,524.286638L757.180876,523.285472L758.048485,520.821751L758.188375,520.593297L758.955495,519.884371L764.439710,519.089261L765.782140,518.229197L766.726023,517.044371L766.580666,515.989449L764.671423,515.539260L763.840896,514.710553L764.327078,512.838123L765.428043,510.817870L766.473803,509.565851L766.886699,510.504305L767.664389,513.071057L768.091044,513.816893L769.147393,514.323077L769.353389,513.619795L769.309223,512.423770L769.575546,511.447239L771.323643,510.853706L772.950906,511.296366L773.439664,511.429321L775.475095,512.605189L776.965636,513.816893L777.407305,514.484338L778.088508,516.137273L778.561496,516.777841L779.323991,517.142920L781.255739,517.474402L782.224393,517.904434L782.912572,518.717463L782.922870,520.449953L783.352280,521.457839L784.276452,522.167838L786.537541,523.003264L787.605661,523.874525L786.601966,525.386353L786.366338,526.284492L787.145375,526.719002L792.217537,527.317014L793.686403,527.209507L794.940806,526.244176L795.859961,527.227424L796.712306,527.113197L797.518116,526.329286L798.345338,525.328120L798.989719,524.978720L799.616392,525.200455L800.323604,525.565533L801.201743,525.650643L802.712158,524.987679L805.457702,523.043579L807.192067,522.638185L807.592414,522.382854L808.994854,521.233864L809.544679,520.915820L810.406047,520.911341L813.252833,521.818438L815.878164,523.451213L818.606252,524.340392L819.267916,524.134335L819.683884,522.378375L820.463504,520.638092L820.791522,520.273013L821.476205,520.007557L822.038903,519.418504L822.622323,518.551721L823.444837,518.609955L824.017395,518.941437L824.551376,519.360270L825.250236,519.678315L830.130526,519.337873L831.025877,518.820491L831.721188,518.074655L835.068088,517.716295L836.233940,517.369134L836.927923,516.504591L837.234636,515.637809L837.282459,513.492130L837.509057,512.529038L838.575585,511.050804L838.814595,510.504305L838.915366,509.601686L839.315411,507.886039L839.253122,507.249950L838.685796,506.678814L837.173076,506.369729L836.631843,506.015849L836.097226,504.105343L836.729034,502.636067L837.687826,501.442281L838.181657,500.364962L838.285732,498.344708L838.740439,496.595463L839.682560,495.336724L841.248670,494.767828L840.251901,493.247038L840.783135,492.702779L841.900659,492.299624L842.678711,491.217824L844.039989,492.120444L845.694329,491.674734L849.099734,489.551451L849.254181,489.233406L849.480887,489.367791L850.305260,490.301767L850.986984,490.496625L852.850251,489.663438L853.756445,489.443943L853.122697,487.900755L853.957256,487.636465L855.342232,487.833563L856.351734,487.667821L856.825817,487.667821L857.430829,488.763059L857.696523,489.898612L858.329299,490.655647L860.043628,490.628770L859.810051,490.935616L859.616106,491.253661L859.390503,491.567225L859.006663,491.862872L859.012753,492.402652L860.113306,493.300792L860.696185,493.137290L861.211678,492.604230L862.141792,492.402652L862.578861,492.622148L863.148300,493.367984L863.489943,493.533726L863.593751,493.630035L865.298808,494.178774L866.375526,495.063475L868.523227,497.726537L869.368895,498.443257L870.465382,498.978557L871.515327,498.888967L872.221295,497.726537L871.306442,497.182278L871.997909,496.837356L873.070827,497.383855L873.276465,499.502658L873.638289,499.354835L874.457564,499.130860L874.795477,498.965118L874.563872,500.149946L874.786302,500.956255L875.156673,501.567707L875.721269,503.290074L876.490492,502.828686L877.229828,501.818559L877.476641,501.281019L879.239548,501.348212L880.106217,502.524080L880.843178,504.112062L882.224980,505.422315L882.331641,503.664112L883.324078,502.676383L884.665156,502.474805L885.849139,503.057140L885.816255,501.545309L886.146539,500.705404L886.838819,500.432154L887.915772,500.633732L888.735667,501.162312L890.074935,502.895878L891.079695,503.699948L891.869977,503.007866L892.910820,502.810768L893.803857,502.819727L894.198250,502.757014L894.392497,501.769284L894.894208,501.415404L895.574851,501.509473L896.282255,501.872313L896.005694,501.177991L895.727637,498.965118L896.110044,499.238368L896.499076,499.399630L896.966261,499.484740L897.574914,499.502658L898.117030,499.229409L898.528852,498.617957L898.890053,497.726537L899.987527,498.340228L900.504971,499.366033L901.010210,500.015561L902.039507,499.502658L902.383948,499.910292L902.877938,500.266413L903.095486,500.633732L903.900047,499.816223L904.133519,499.502658L904.843487,502.163480L905.341870,502.904837L906.300865,502.461367L906.266516,502.913796L906.321724,504.291242L906.667429,504.116541L907.533805,503.865690L907.879609,503.699948L908.458093,505.229697L909.885668,506.378688L911.371366,507.079729L913.327716,507.473925L914.779595,507.285786L916.076386,507.357458L916.807159,508.381023L917.316268,507.982348L918.927885,507.249950L919.670103,508.582601L920.763527,509.530015L921.926082,510.302728L922.891664,511.126955L924.367632,514.444023L924.524058,514.997241L925.482614,515.203298L927.586448,516.052162L928.907669,516.182068L929.553603,515.998408L930.560181,515.561657L931.525582,514.979323L932.063746,514.354433L932.592640,514.997241L933.471107,513.722824L934.879451,513.178565L936.193629,513.384622L936.813208,514.354433L937.287364,514.354433L937.735242,513.438376L938.374632,513.375663L939.414917,513.816893L940.176415,513.375663L941.208690,512.428249L942.001753,511.984779L945.652705,511.984779L946.745363,512.168438L947.278980,512.529038L950.475521,516.307494L950.978785,516.777841L951.538798,516.683771L952.326453,515.767714L952.821695,515.539260L953.345484,515.731878L953.769191,516.155191L954.034868,516.580743L954.108256,516.777841L955.469066,516.912226L955.891590,516.544907L956.757216,515.539260L957.167333,514.782225L957.878379,512.712697L958.233475,511.984779L960.473054,509.194052L962.585800,507.061811L964.864988,505.319287L967.580151,503.699948L971.098770,502.541998L974.365417,502.804048L977.525672,504.094144L983.853308,507.608310L985.626044,508.166008L987.280165,508.381023L988.619727,508.725945L989.688439,509.556892L990.688087,510.562539L991.777186,511.447239L992.440365,511.729448L993.192999,511.890710L994.656067,511.984779L995.503851,512.172918L996.580267,512.985947L997.309463,513.169606L999.342727,514.036389L998.555109,512.918754L996.313165,511.109037L995.024268,507.697900L992.914531,505.711243L988.501167,502.380736L986.914364,500.181302L985.627397,497.616789L983.523355,492.151800L983.191584,490.843786L982.725247,486.568104L982.078292,484.359710L981.907217,483.282390L982.049073,481.949739L985.038261,472.468876L984.885684,471.626730L985.032770,470.099220L984.723481,469.364581L983.981734,468.797924L983.413560,468.851679L982.998205,469.124928L982.730913,469.232436L982.443482,469.308588L982.086521,469.512405L981.682488,469.422815L981.214120,468.600826L981.155552,468.016252L981.483667,466.757512L981.583597,465.256879L981.766181,464.690222L981.697255,464.228833L980.365371,463.218705L980.001071,462.828989L979.832828,462.322805L979.787560,461.541132L979.537779,460.197282L978.877032,458.842232L977.950632,457.724597L976.860615,457.106425L975.328847,456.539768L974.949493,455.894720L974.898429,454.969703L974.335312,453.529543L973.640930,452.962886L970.408415,451.580960L969.705734,451.612316L968.321833,452.127459L967.610633,452.109541L967.107795,451.697427L966.514600,450.378213L965.085154,449.148590L964.161571,446.684864L963.327492,445.688175L960.005578,446.615431L958.400750,446.516882L957.410260,445.014009L956.658799,443.047508L955.724203,442.850410L954.451022,443.367792L952.683431,443.515616L950.894814,442.617476L950.259339,441.078767L949.768035,437.195038L948.935910,436.041566L947.545051,435.053836L942.064231,432.634905L936.665078,432.921593L934.204031,432.563233L929.703329,430.809507L928.497151,429.741146L927.719197,428.182279L927.071608,426.316567L926.207626,424.829372L924.843478,424.385901L921.785850,426.809312L920.582351,427.203508L920.290589,425.364672L920.877454,423.680380L922.106553,422.195425L923.599598,420.974760L924.978467,420.094538L926.227217,418.923148L926.925513,417.326206L926.864831,415.673269L925.844337,414.313741L924.592099,413.973298L923.479248,414.031532L922.761682,413.505191L922.711260,411.426702L922.429656,409.186951L921.208538,408.196981L918.023828,407.430986L916.573002,406.387262L914.697269,403.632369L913.415472,402.225805L911.918444,401.273911L910.758420,400.731891L909.902871,399.918862L909.358407,398.129301L909.511785,396.565955L909.916973,394.937656L909.781800,393.658759L908.329619,393.118979L908.837522,392.104372L909.548373,391.513078L910.308269,391.049450L910.955278,390.408881L912.385919,386.917110L914.761523,383.250639L915.966245,380.623413L916.531120,379.758869L916.468566,378.754731L916.350108,376.853914L912.630990,374.488738L908.089101,372.589430L905.439409,371.068640L904.139935,369.552330L900.995966,367.090845L898.574100,363.728982L897.357893,363.119770L895.970690,362.709896L894.233281,361.507151L893.437574,360.465667L893.148355,359.513774L893.008734,358.532764L892.677855,357.421849L892.639093,356.893268L892.781848,356.360208L892.814922,355.889861L892.470810,355.549419L892.028700,355.549419L891.533276,355.692763L891.052544,355.755476L890.654269,355.495665L889.893399,353.538125L889.563566,349.045190L889.063037,347.087650L885.624687,346.774085L884.728754,346.491877L884.516003,345.945379L884.467488,345.286893L884.017039,344.677681L883.246434,344.323801L881.711449,344.068470L880.934679,343.840016L878.505846,342.303549L878.139645,341.506199L877.935685,339.880142L877.602580,339.194779L876.314432,338.518376L872.875526,338.151057L871.724741,337.703108L871.010748,336.301026L870.986952,335.149796L870.566570,334.433077L868.662895,334.339008L867.814931,334.097115L866.588193,332.721910L865.825267,332.350112L864.341651,332.376989L863.723291,332.184371L861.845269,330.518000L860.407505,329.863994L855.684023,328.488789L854.466058,327.745193L850.983420,324.201915L849.835689,323.400086L848.577276,323.153714L847.121064,323.727089L845.117553,322.683367L842.106369,320.121098L837.787103,317.711132L836.765442,316.891385L835.919140,315.628169L835.491192,314.369432L834.967028,311.874356L834.341958,310.633537L833.838910,310.216945L832.554087,309.768996L831.948943,309.388239L831.490866,308.801426L830.737613,307.426223L830.247895,306.834931L829.218936,306.059979L824.635134,303.354368L822.940497,299.022704L822.581339,297.620625L822.613279,296.532110L824.214070,294.780631L829.229079,292.845493L830.917260,291.152247L831.234802,289.633702L830.987554,288.352570L830.528321,287.147588L830.217704,285.853017L830.455729,282.121608L830.382112,280.853915L829.950462,279.384644L828.780664,277.077711L827.959518,274.336269L827.197991,272.978986L826.203812,271.899432L824.260188,271.178235L823.787656,270.698931L823.401191,270.170352L822.835225,269.776158L820.952302,269.426759L819.871449,269.431238L817.513056,270.018050L816.456916,270.094201L814.123078,269.122154L811.814104,267.151184L808.077470,262.514924L807.416722,262.111771L806.809950,261.623508L806.288777,261.054614L805.861220,260.414049L805.680681,258.868630L804.091696,257.043243L803.872631,253.965844L803.102529,252.572727L796.445559,245.750490L793.989227,244.489518L789.563260,243.920625L787.118992,242.406564L785.577780,242.204988L784.086635,242.187070L779.797928,241.293416L774.456019,242.249783L772.025114,242.160193L769.594196,240.469193L768.841906,240.272096L768.284269,239.902540L767.865665,239.333647L767.546583,238.560939L765.703116,236.589972L763.073174,236.901295L758.179384,238.816269L757.773462,238.569898L756.494768,237.443311L755.913991,237.107351L755.360448,237.013282L754.256139,237.013282L752.891791,236.841609L752.422743,236.782589L749.770074,236.088272L748.555482,235.561934L746.501988,234.309923L744.409622,232.560690L742.736797,230.379190L741.949967,227.843812L742.184083,225.019509L743.055074,222.074261L747.207739,213.964194L747.958240,213.007829L751.014498,210.691948L751.522500,209.872207L751.127873,208.817294L749.025725,206.976237L748.462998,205.760064L748.735809,204.521494L750.104328,202.232491L750.258813,200.998401L748.866135,200.174181L746.028404,200.243613L745.256690,200.363549L740.970049,201.029757L732.982760,199.535859L730.828355,199.943489L729.357886,199.697119L726.300241,198.272652L722.065347,198.763153L717.220566,197.520104L714.588006,197.596255L712.209743,198.843783L710.978091,199.264852L708.514339,198.512303L706.070730,198.570536L705.070441,198.124830L703.913405,197.219980L702.706145,196.644370L701.410452,196.478631L700.011661,196.796672L698.957291,197.470830L697.182736,199.022961L696.059411,199.309646L694.486069,198.507824L693.298487,196.613014L692.632777,194.292657L692.640799,192.209712L693.608046,189.952068L696.693221,185.949679L697.949800,183.562132L698.812303,178.632500L698.883973,175.615593L698.295182,173.740945L696.953829,173.669274L694.172000,176.807125L692.085638,176.995262L690.031202,175.671586L689.002757,173.906685L688.773016,171.792387L690.280363,160.764003L690.659127,160.108356L691.508202,158.638509L692.658740,158.116655L695.127867,158.233120L696.353750,157.991231L697.226871,157.375308L698.867702,155.464828L701.749207,151.289995L702.744012,150.407546L703.405293,149.372797L703.274633,148.107357L702.451519,145.446575L702.529168,143.907890L704.327139,137.166350L704.278348,136.590744L703.849210,135.889713L703.396768,135.692619L702.829765,135.719495L702.236568,134.624275L702.010387,133.804540L702.068648,131.105687L701.892321,129.965674L701.116222,127.817790L701.053333,126.870393L701.957601,124.364157L704.697538,119.477110L705.687009,116.914883L706.009532,113.593397L703.525936,98.620967L701.876003,94.746281L688.793418,71.692274L675.705047,48.636934L661.581790,33.487714L653.555600,27.218843L642.390362,9.449212L642.181292,7.079630L637.977395,6.616016L633.310453,4.942975L631.356579,3.135553L628.507908,2.313590L627.782309,2.232961L625.131343,2.313590L624.356831,2.141135L622.886224,1.352767L622.252443,1.128799L620.446472,1.361726L618.834900,1.894770L617.226802,1.760389L615.462935,0.000000L614.784095,0.750293L613.861669,0.665185L612.752142,0.248605L611.543383,0.000000L610.532139,0.221728L609.818699,0.804045L608.450682,2.609228L607.534048,3.274413L606.384204,3.668597L604.323213,4.041042L604.054197,4.089657L602.410603,4.602543L600.849547,5.328200L599.884189,5.917236L598.485509,7.357350L597.678482,8.000139L597.063798,7.959824L595.881148,7.413342L594.911905,8.228586L594.114961,9.435774L591.962863,11.455966L591.184836,14.174939L590.193987,16.002518L588.030450,14.741578L586.829480,14.934190L580.432473,14.201815L578.988817,14.916273L578.167487,16.551240L577.671465,18.336266L577.196477,19.530016L577.968306,21.346398L577.166700,22.325138L572.560370,23.626393L571.242174,24.331893L568.943328,26.146035L567.227925,28.018409L566.946549,28.137113L566.596790,28.856051L565.766809,28.663438L564.240581,27.814598L563.455067,27.917624L562.014042,28.358841L561.393851,28.461866L560.595504,28.735108L560.141493,29.346541L559.805640,29.962454L559.369468,30.237934L558.229749,30.347679L556.945300,30.741863L555.904297,31.561587L555.486612,32.923314L555.350195,34.623233L554.692959,37.187670L554.556068,38.869672L554.751253,40.636782L555.507961,43.958234L555.697163,45.378193L555.986287,46.184480L557.353983,47.917996L557.839387,48.690687L557.864800,49.268526L557.748463,49.846364L557.821297,50.435402L558.398633,51.055794L556.141178,55.476934L555.895689,57.297799L555.982074,58.236228L556.334021,59.519568L556.416605,60.229549L556.107061,61.040316L555.355430,61.309078L554.482824,61.405385L553.842031,61.709982L552.956518,63.421104L552.370528,65.152383L551.431634,66.498435L549.487179,67.038200L549.081779,67.293525L546.669955,68.155805L546.383508,67.976630L545.594123,68.352897L544.630116,68.160284L543.694896,67.799694L542.968411,67.683230L540.577738,69.371956L538.509513,72.509761L534.702921,82.760828L532.741658,86.270427L530.304341,89.082077L527.667417,90.226564L526.639463,89.980197L523.498479,88.607261L522.431176,87.856961L521.351710,88.853628L517.523410,93.960146L516.990446,95.160626L516.782894,96.520126L516.163401,96.708261L511.995854,99.803530L511.239024,101.322049L510.144613,104.482272L510.086265,104.791352L510.167436,105.989594L510.054535,106.338988L509.778499,106.321070L509.430334,106.222523L509.132286,106.312111L508.170637,107.328938L507.633463,107.758961L507.078162,108.032205L506.800167,107.884385L506.078397,107.044495L505.728749,106.847401L505.296819,106.941469L505.102879,107.143042L505.027460,107.367013L504.934866,107.496916L504.520745,107.727605L504.014798,108.139711L503.588376,108.601091L503.397045,108.977361L503.185511,110.634744L502.141115,112.981957L501.916513,114.301144L501.897123,117.237401L501.448515,118.337098L500.374938,118.740246L500.383649,119.329289L500.720038,119.696602L500.850155,119.969846L500.969364,121.105379L499.778497,120.505137L499.373426,120.823175L499.250722,121.586916L498.915108,122.341698L497.275998,123.412280L496.584149,124.059556L496.306064,124.980077L495.670565,126.249993L492.791803,129.876085L492.006798,130.630868L490.316320,131.443884L489.800011,133.345399L489.705409,135.531359L489.232776,137.193227L488.785859,137.354486L488.296533,137.126977L488.246336,137.103638L487.744582,136.738565L487.379283,136.545949L487.098258,136.734085L486.660681,137.547101L486.355941,137.730758L485.462538,138.084633L485.056896,138.929005L484.732221,139.925678L484.081830,140.743173L483.505207,140.100375L482.781384,140.743173L479.361864,141.927982L476.265864,143.704076L477.308999,147.254026L473.399551,147.254026L472.870518,147.186834L471.579166,146.716494L471.532063,146.729932L470.104119,146.635864L470.010666,146.716494L468.364494,145.672786L467.669229,145.554081L467.405122,146.393975L467.349623,147.498155L467.085324,148.326850L466.540859,148.848704L465.613334,149.032360L464.246773,149.952884L464.771590,151.986547L465.588094,154.026930L465.159408,154.947454L463.230605,155.693280L462.175176,157.471616L461.274558,159.623986L459.754642,161.460556L458.826282,161.017091L458.015748,161.120118L457.296508,161.559103L455.901284,162.721518L455.440327,163.026120L454.002017,163.341920L447.698384,162.967887L446.189893,163.341920L444.450147,161.769637L443.566480,161.129077L442.774645,160.867030L441.660507,161.254501L439.515601,162.954449L438.377768,163.341920L437.078657,162.873819L436.158173,161.836829L435.489940,160.799838L434.908159,160.329497L434.257497,160.598264L434.155177,161.196269L434.234308,161.805472L434.151595,162.103355L433.481060,162.067520L432.433987,161.581500L431.801728,161.460556L431.183360,161.787555L428.972558,163.879453L428.766258,164.369952L428.890956,164.853731L428.928399,165.297196L428.475916,165.653311L427.985665,165.541325L427.699974,164.215411L427.120027,163.879453L426.822439,164.027274L426.567159,164.392349L426.392407,164.885087L426.336016,165.386785L426.093249,166.101255L425.519377,166.222200L424.832403,166.137091L424.266294,166.249077L422.330751,167.722813L421.470123,167.943966L421.215100,168.009498L420.119531,167.429410L419.201383,168.943461L418.237910,169.413803L411.831115,169.001694L410.241354,169.207748L408.246623,169.794555L407.364430,169.852788L406.704407,170.020767L404.871216,170.907697L404.497963,171.304128L403.816572,171.649045L400.488920,171.590812L399.251459,172.220174L397.213405,170.688204L394.894847,171.236936L392.669337,172.278407L390.918409,172.220174L390.198875,172.668118L389.780347,172.614365L389.469713,172.367996L389.073628,172.220174L383.240966,172.318722L382.534241,171.922291L379.625169,173.156378L378.619164,173.400508L377.308604,173.254925L375.860915,172.865214L374.552858,172.296324L373.669242,171.626648L372.972225,172.609886L372.227512,172.323201L371.413267,171.528100L370.491844,170.983847L369.743244,171.010724L368.180636,171.501223L365.068928,171.684880L364.128274,172.110428L363.754569,173.107104L363.314776,173.241487L361.273708,172.681557L360.628882,172.811461L360.100672,172.811461L358.097264,172.110428L355.066237,173.071268L352.130411,174.715224L350.436467,176.065777L349.331195,177.210276L348.857787,177.815001L348.668724,178.462281L348.365302,178.789281L346.858236,179.329054L345.676980,180.077122L345.079579,180.222704L344.649653,180.522827L344.495166,181.420956L344.276181,182.204859L343.737041,182.601290L343.035606,182.623688L342.369104,182.281010L340.646841,185.212809L340.670311,186.487213L341.961994,187.663068L343.206161,186.885884L343.728719,187.707863L343.959529,189.174883L344.344134,190.323862L345.252106,191.069691L354.428927,195.479712L355.139702,196.863864L356.347960,197.658967L358.690001,199.607530L360.259783,201.598648L357.791252,203.524814L357.058476,204.879850L356.347213,205.343896L355.517080,205.885488L352.485160,212.824171L344.974845,222.658831L344.221309,224.318472L343.551823,226.428301L342.512725,227.960278L340.059444,230.661396L336.928059,236.155464L335.282558,237.806148L333.958135,238.565418L329.497333,240.294494L326.276004,242.128837L323.709842,244.717971L322.225142,248.097733L322.216689,252.303959L320.071921,255.965929L313.903222,257.457595L280.495255,258.452039L273.399402,260.360296L267.367502,262.935995L264.391654,263.545204L261.218552,263.401860L250.704638,261.399534L249.330899,261.305465L247.659459,261.412973L246.197692,261.959469L244.645224,264.418702L243.186481,265.265323L241.590131,265.775984L238.847826,266.098506L237.313553,266.510618L236.069524,267.531939L235.411008,269.493951L234.502568,270.161394L230.884446,268.938496L229.895786,270.255463L228.360362,271.343976L218.105184,275.474057L216.876092,276.446104L216.812111,276.516830L215.822472,277.610770L215.358825,278.596255L215.114320,280.199910L214.621068,280.589625L213.996562,280.473158L213.405654,280.562748L212.038974,282.000662L209.400093,285.678318L207.947822,287.259575L206.858697,288.052444L206.369018,288.007649L205.961869,287.523865L205.104500,286.995286L203.591751,286.421912L202.552222,287.447714L202.212753,288.245062L202.298783,288.979697L202.065867,289.373892L199.717882,288.925944L198.897989,289.006574L198.248002,289.521715L197.721468,290.565435L196.252072,290.395214L192.966961,290.968588L190.001279,291.940637L188.848235,292.670793L188.046145,293.795144L187.478580,295.519746L187.555259,296.115517L187.890357,296.500753L188.154772,296.921825L188.011329,297.607186L187.744330,297.746050L186.922333,297.611666L186.701327,297.607186L185.062335,299.163528L184.894570,299.322830L184.337554,299.672230L182.571878,299.891725L181.514866,299.103335L179.812183,295.954256L176.961238,292.384106L175.194597,290.820766L173.377986,289.812881L170.417482,288.836354L169.619443,287.891183L169.269958,285.982922L169.409774,284.916805L169.732977,284.052265L169.874296,283.147410L169.476178,281.942429L168.869062,281.162999L168.195115,280.822558L167.459284,280.612022L166.658836,280.244705L165.410163,279.209944L164.569278,277.910895L164.214851,276.325158L164.599839,273.682265L164.631637,272.884917L164.576809,272.105488L164.459414,271.384291L161.455174,272.401133L160.129250,273.185042L158.917398,274.349707L158.444337,275.214247L157.534875,277.485344L157.059764,278.139348L156.029171,278.461871L155.253363,278.193102L154.555401,277.812346L153.734629,277.794428L152.584933,278.873983L152.207549,280.692653L152.270680,286.583173L151.966373,287.797113L151.041827,288.504872L144.328603,289.579948L142.741174,290.292186L140.118602,292.572244L138.597257,293.615964L136.950177,293.857857L135.198008,293.826500L132.618819,294.834384L127.772090,295.551102L126.081135,296.182710L124.817676,296.966620L123.755798,298.229835L122.106795,300.908568L120.997172,302.140427L118.526593,303.865030L117.166775,304.483199L107.159058,307.099221L104.446009,307.309757L101.508125,306.176446L97.541792,302.046358L94.200923,301.746232L88.644627,302.601814L85.864942,302.400238L83.220765,301.441627L82.639496,302.669007L78.581780,308.958208L78.293497,310.319973L79.790510,311.874356L79.634494,313.016626L79.303696,313.097257L77.868103,313.195805L77.379720,313.307793L76.941883,313.796057L76.322657,315.233973L76.034873,315.735676L72.462205,318.871320L66.620973,322.593777L65.502944,323.678657L63.786466,325.344185L62.383642,329.442921L61.342181,331.427337L60.994771,332.381469L60.906740,333.201216L61.318699,338.236167L61.120609,339.118628L60.480482,340.005568L58.735428,340.923864L58.044903,341.439006L57.227552,342.872445L56.688041,344.502981L55.530855,349.860458L53.071776,357.368095L51.481686,360.992008L50.225476,364.936207L49.650634,366.150151L48.725839,367.037091L44.158477,369.624002L42.926149,370.573655L41.894165,371.913026L41.101810,373.982624L32.515113,396.400214L30.617833,399.363404L30.459202,400.351134L30.805752,402.391547L30.836303,403.334482L30.669509,404.290855L29.907155,405.890037L27.078169,410.040296L25.877649,411.131054L15.020523,417.032798L11.853229,417.005921L11.175843,418.394567L10.041978,420.018387L7.855450,422.468674L6.704990,422.856151L4.949179,424.793536L3.937567,425.848459L4.034419,426.148585L4.106336,426.624841L4.175115,427.080322L3.841260,427.920229L3.606876,428.294267L3.343386,429.031145L3.014166,429.398464L2.611397,429.407423L1.808966,428.726539L1.446184,428.807170L0.882333,429.514931L0.657273,430.099506L0.827878,430.791590L1.466817,431.821875L2.111436,432.527397L2.996355,433.721184L4.132877,434.744750L5.255746,436.081882L5.794518,437.481726L6.136581,438.995798L6.722486,440.359807L7.984952,441.316180L9.288384,441.325139L11.691880,441.638704L12.820493,441.495360L14.880241,440.055200L15.820700,440.122393L16.843618,441.849241L17.234693,443.591767L18.351502,445.188710L18.919803,454.434402L19.468833,456.190367L18.963761,457.442388L17.944679,462.163783L16.611949,466.087826L16.415493,467.438396L16.528147,468.941269L16.923135,470.130576L18.011104,472.173229L18.525770,473.541716L18.659275,474.619036L18.565832,477.232825L18.318932,478.137684L17.220875,480.583491L16.977381,482.016932L17.072526,484.498575L16.739207,485.490784L15.730451,485.893939L15.711108,486.568104L15.072527,488.012742L14.314733,489.354353L13.945669,489.712713L13.802838,490.848266L13.386010,492.384734L12.723759,493.851770L11.844619,494.767828L11.221726,494.978364L11.535917,495.923538L12.754762,497.473445L14.350322,498.617957L17.653342,499.861018L19.255180,500.745719L20.488731,502.116445L21.345695,503.912724L21.919409,505.903861L22.263797,507.872601L22.275605,512.240110L22.636519,515.593014L22.111323,518.798094L22.099010,519.175473L22.058270,520.423076L22.364701,521.404085L22.859334,522.149921L23.220118,522.976387L23.052783,525.296764L23.342704,526.168025L23.790560,527.019128L24.208010,528.065089L25.365001,536.255838L25.307145,537.131579L24.972410,539.259336L24.654199,540.215707L24.570728,540.784602L25.085509,542.251635L25.654941,548.827525L26.675578,552.930736L28.720944,556.574799L31.489816,559.602932L43.680018,569.061368L47.031797,570.400734L47.944583,571.023382L48.455721,571.899122L48.990556,574.103029L49.495529,575.274414L52.165641,578.967749L53.350059,581.413547L54.051843,583.796633L54.857209,589.035389L55.004378,593.967299L55.531660,596.292151L56.405999,597.105177L57.567238,596.939436L58.724411,597.441138L59.221543,598.650598L59.481570,599.875736L59.935457,600.440151L61.002794,600.440151L62.174146,600.655166L63.103324,601.378602L63.282665,602.321533L61.784646,603.051689L60.103220,603.510836L57.115863,605.121209L55.623558,605.475088L54.357497,605.291429L51.902522,604.583671L50.590091,604.588151L55.164769,616.745461L61.835400,627.742582L68.098923,635.207633L68.843282,636.097208L74.036042,642.303125L80.521913,650.027982L88.527514,659.587183L96.142692,668.673798L103.367450,677.283346L109.135851,684.172776L109.715239,684.580408L110.317358,684.786464L111.275193,684.952204L111.583166,684.853656L112.466204,684.289242L112.852933,684.123502L113.312156,684.222050L114.137713,684.826779L114.430976,684.952204L117.719255,684.558011L118.963410,685.041794L120.457314,686.443869L121.739625,688.244617L122.372790,689.933378L123.414445,694.296383L123.622378,694.766728L123.893325,695.183319L124.219398,695.550636L125.245641,695.138524L126.059280,694.923509L126.802973,694.963825L127.603734,695.353539L128.216297,696.079213L129.850710,698.753458L130.995615,701.629278L131.945540,703.443464L132.714098,705.383075L132.938513,707.681044L132.315312,709.728162L130.261666,712.066445L129.987436,714.350975L130.293589,717.298466L130.243730,718.512403L130.500244,719.260474L131.283504,719.291830L132.311010,719.108172L133.292270,719.193282L134.163396,719.412776L133.472617,720.590877L132.892998,721.867525L132.636313,722.839570L132.857788,724.608961L134.049835,727.632602L134.287013,729.401993L133.938291,731.063876L132.756630,734.033763L132.693708,735.964414L133.007020,737.088761L133.988633,739.113481L134.335481,740.699212L134.348984,743.933388L134.462651,744.636664L135.079263,746.446369L136.045289,748.592035L137.500619,750.459972L138.034292,751.355866L138.314364,752.144252L138.459919,752.928159L138.561791,754.661713L138.800825,755.087262L139.863946,755.844292L140.142032,756.144416L140.176553,756.870090L139.745797,757.976518L139.630383,758.805220L140.637671,759.454742L140.931426,759.719031Z "/></g></svg>