<?xml version="1.0" encoding="utf-8"?><!DOCTYPE svg  PUBLIC '-//W3C//DTD SVG 1.1//EN'  'http://www.w3.org/Graphics/SVG/1.1/DTD/svg11.dtd'><svg enable_background="new 0 0 1000 1314" height="1314px" pretty_print="False" style="stroke-linejoin: round; stroke:#000; fill: none;" version="1.1" viewBox="0 0 1000 1314" width="1000px" xmlns="http://www.w3.org/2000/svg" xmlns:xlink="http://www.w3.org/1999/xlink"><defs><style type="text/css"><![CDATA[path { fill-rule: evenodd; }]]></style></defs><metadata><views><view h="1314.7130616" padding="0" w="1000"><proj flip="auto" id="robinson" lon0="16.0618784974"/><bbox h="145.75" w="110.94" x="164.72" y="-61.83"/></view></views></metadata><g class="" fill="#000" id="country"><path d="M117.982174,1312.713062L125.907040,1304.838779L137.926660,1287.552543L142.929533,1278.629190L156.745374,1276.652778L161.943153,1270.399057L165.637689,1260.369506L167.072575,1254.543518L182.673429,1249.764733L201.403899,1241.254367L211.810073,1231.977037L222.342484,1226.062555L228.993967,1225.811817L233.367148,1228.260205L245.321149,1244.366476L255.482611,1254.558267L258.762371,1256.903412L260.740764,1251.947635L267.297459,1252.301619L269.379591,1254.720510L272.564861,1260.089269L278.275454,1267.640930L288.571007,1276.608530L298.978707,1286.298849L304.189605,1287.508295L312.674749,1282.611513L322.474699,1275.325337L336.883214,1270.000825L340.346437,1265.045047L342.279856,1254.425523L343.436084,1243.083284L344.772293,1229.676141L347.710382,1227.861974L352.910106,1226.564033L362.415535,1230.339861L366.766567,1234.233685L374.574830,1234.233685L379.591937,1230.693845L388.751698,1224.086145L400.362139,1221.446015L412.813356,1215.118554L424.741483,1206.962176L430.354851,1206.254209L436.242519,1216.873724L441.509779,1224.322134L442.420302,1228.923925L437.059485,1237.773524L431.057327,1249.469746L435.968940,1263.983094L437.082085,1278.083464L436.874888,1286.579087L440.874619,1290.030433L443.623129,1291.667611L447.942124,1289.661700L456.421873,1290.281172L466.569680,1294.705976L476.422371,1294.204499L485.967448,1288.761990L503.794407,1267.596682L529.889767,1230.664346L551.476699,1207.493152L568.517850,1198.024086L580.089272,1186.976844L586.164407,1174.321929L596.094296,1165.708328L616.726637,1158.849897L632.483340,1151.106507L648.303637,1125.722946L669.454449,1080.103355L675.517434,1039.365807L679.211182,1014.572254L677.534996,929.159182L676.282554,901.120820L679.507220,885.825830L687.362021,875.309603L708.739646,853.052964L723.092178,834.822877L734.065054,813.495448L755.232528,764.778656L764.483206,749.085450L768.604075,742.050057L781.284219,729.070715L799.040160,717.669545L821.898587,707.876042L857.189099,673.952770L885.248493,639.823012L881.454995,598.820108L888.007896,564.815724L903.281956,521.541439L908.246059,475.752405L902.909949,427.485493L905.055329,388.038624L919.511641,342.116826L925.608505,325.088811L927.522041,297.220089L927.264680,252.832189L945.600527,192.168453L963.004737,155.848367L982.452839,115.221477L989.801303,90.663918L999.619399,57.883621L997.880329,31.548755L990.311778,26.747858L983.021592,12.566406L979.618332,9.712416L958.829303,16.084114L948.060030,21.843716L942.340773,27.470574L937.945560,28.318658L931.283682,20.575276L926.067415,19.181467L917.874418,20.612150L909.502381,20.472031L904.054271,19.469079L900.491330,20.154921L890.633823,15.575263L854.708420,3.879067L848.539790,0.000000L841.395289,0.405606L822.854179,10.590000L813.042159,13.421866L783.461828,19.727192L751.726549,22.809795L739.593771,22.972038L731.274250,27.477948L725.933359,33.864394L722.366395,47.994220L716.260652,72.264181L713.691239,78.864488L714.184273,88.554770L712.417993,104.830607L711.604812,119.432397L712.850292,129.218545L703.970721,148.960455L693.190778,172.861656L684.227009,193.400017L675.193902,214.048995L675.094251,215.199438L674.320715,223.908880L666.227604,229.491477L661.507983,238.709768L660.160940,251.563752L662.651325,267.212720L668.991120,285.656670L669.181862,296.490001L666.972139,298.016549L663.087892,301.467876L658.965436,303.739262L647.697659,291.084398L635.191452,282.537202L616.463664,267.677321L597.597620,262.330714L573.210473,261.372012L562.717828,263.186171L555.183548,257.596201L544.637331,251.143398L538.835360,249.461982L530.789478,254.484106L525.215316,254.705345L518.357482,252.758442L504.486142,252.979681L503.167936,244.366111L500.791671,242.684695L485.841416,243.481155L481.206438,236.349886L479.203285,237.146346L473.308294,234.889709L461.238470,224.764337L448.614327,231.467879L422.327151,230.619796L388.632402,230.841035L353.739331,231.062274L321.827237,230.745165L289.824026,230.435430L289.205251,240.988530L278.717164,266.858737L273.795388,286.770239L272.585716,307.987048L275.544240,325.059312L280.665131,337.212699L283.976412,350.487028L281.454978,359.742184L276.369077,363.694984L279.869443,368.348373L287.583870,369.469316L300.681674,365.428021L320.807816,358.355754L347.179418,348.134522L364.532390,342.625675L393.199866,346.077001L408.502501,349.956055L416.373827,357.153690L424.877457,387.618270L429.080988,392.242161L436.034777,405.199377L441.857576,420.752461L443.107158,428.658058L442.489952,434.343893L436.651648,442.765714L430.113665,455.132958L427.816061,462.625575L422.336892,468.178667L415.385055,473.665387L396.248109,475.863024L393.319616,479.122608L387.962497,492.301059L377.872752,503.466238L373.279395,514.011949L369.207154,528.082729L370.018981,545.531086L367.999168,570.619551L365.936274,587.610682L371.002199,593.539878L393.865900,597.699165L398.320094,601.061993L404.385496,611.563456L412.169863,621.445451L433.115097,627.669633L441.238393,635.235996L447.822903,643.510323L448.675676,650.294977L443.886638,677.551587L439.273947,703.716754L441.023656,723.628242L442.705922,742.640027L445.133065,770.339125L443.984756,787.241771L438.044278,797.551501L438.022916,805.648843L440.705851,815.398103L435.391356,842.359750L431.990844,846.917271L422.609981,851.946770L417.663828,859.188658L416.051558,870.560340L410.946527,886.135564L405.743436,891.828781L405.718621,899.070672L410.701580,904.365659L410.594739,912.463008L401.221706,922.094281L395.542274,929.483666L383.052297,933.067740L368.805214,929.262427L365.477446,923.893692L368.958535,915.530856L367.757660,908.834687L362.858544,901.814035L355.286197,883.701935L348.551558,879.881876L344.763500,887.286007L333.113180,901.047074L312.566158,918.687200L298.208788,920.103130L271.722918,914.719646L249.531118,906.297813L239.137315,885.589841L232.636500,868.524942L223.235943,848.672433L212.606158,839.247655L201.250196,833.229957L196.184143,832.816978L179.912214,843.864174L175.029078,848.229956L175.043235,857.507242L176.530356,866.150310L179.032465,870.339101L181.139761,875.884825L180.736928,884.527894L177.785040,896.061821L176.756142,908.805189L125.779888,921.283071L116.963411,916.784544L110.585898,911.047078L102.859511,912.050028L80.750975,918.583955L72.650487,914.026430L64.598213,910.707845L60.891240,913.480707L60.536561,918.937937L64.208696,948.893710L62.987083,960.309650L57.950578,975.206420L55.338253,985.339175L68.832760,988.156288L73.699833,992.876058L78.426570,1000.412941L84.912515,1007.448350L85.340019,1011.696144L77.915564,1019.528014L75.354224,1029.174048L78.841885,1036.725684L88.004808,1044.601805L101.397468,1052.772912L107.925789,1058.112156L107.255515,1063.008921L101.016591,1073.466172L98.572601,1082.286251L94.296039,1090.265622L95.138288,1097.610773L101.150660,1104.454449L100.474188,1110.575410L96.353944,1115.221440L88.000343,1114.247986L80.928757,1114.896956L74.583695,1113.009045L54.826212,1089.292168L50.493659,1088.584202L21.623997,1106.829087L14.421081,1114.336482L8.454893,1125.088726L0.380601,1148.392634L31.470429,1180.752631L35.342170,1191.283646L71.727805,1226.623030L86.222530,1246.490380L86.584562,1263.216129L89.283208,1267.537685L91.835556,1275.133596L101.420922,1291.785606L111.150929,1305.178014L115.917673,1309.352081L117.982174,1312.713062Z "/></g></svg>