<?xml version="1.0" encoding="utf-8"?><!DOCTYPE svg  PUBLIC '-//W3C//DTD SVG 1.1//EN'  'http://www.w3.org/Graphics/SVG/1.1/DTD/svg11.dtd'><svg enable_background="new 0 0 1000 1313" height="1313px" pretty_print="False" style="stroke-linejoin: round; stroke:#000; fill: none;" version="1.1" viewBox="0 0 1000 1313" width="1000px" xmlns="http://www.w3.org/2000/svg" xmlns:xlink="http://www.w3.org/1999/xlink"><defs><style type="text/css"><![CDATA[path { fill-rule: evenodd; }]]></style></defs><metadata><views><view h="1313.83267452" padding="0" w="1000"><proj flip="auto" id="robinson" lon0="16.0667660771"/><bbox h="146.35" w="111.48" x="164.48" y="-62.18"/></view></views></metadata><g class="" fill="#000" id="country"><path d="M118.398788,1311.832675L119.529493,1310.174660L134.551534,1295.796794L138.078580,1289.427703L142.186004,1274.017611L142.806172,1273.334099L144.382207,1273.334099L145.624997,1274.188489L146.822243,1275.912804L148.476306,1279.423570L149.660751,1278.274027L151.583656,1277.435172L153.600992,1276.891469L158.098772,1276.363300L159.994216,1275.539979L161.387850,1273.691390L166.988070,1261.263900L167.634461,1258.125960L167.502644,1251.679201L168.760442,1249.582063L172.348732,1250.094696L174.337073,1249.892749L183.386078,1246.552863L198.107966,1243.508129L200.195715,1242.638205L201.671148,1240.898357L204.580343,1234.839959L206.442951,1232.432135L208.618520,1230.474806L211.025055,1228.921371L212.832933,1226.498012L213.920261,1222.909577L215.445546,1219.445417L218.608591,1217.379349L220.427847,1218.124998L221.383631,1218.712101L223.816602,1220.206600L225.637403,1220.641562L227.695887,1220.159997L229.290004,1219.352211L230.880957,1219.165799L232.943876,1220.501753L234.861018,1223.530951L237.208746,1230.754425L239.782018,1234.078776L245.006794,1238.816754L253.647942,1250.591796L259.796897,1254.071492L259.536090,1249.007291L261.732985,1245.682939L264.969627,1245.294580L267.827448,1249.116032L268.884426,1251.368513L271.234442,1255.283172L272.852493,1260.207564L274.132701,1261.698862L277.654687,1264.262032L283.856871,1270.398105L286.259083,1272.184557L294.271973,1275.446773L296.224996,1276.658453L297.464416,1278.041012L298.166921,1279.858533L299.096967,1285.093614L301.883161,1291.649117L303.288136,1290.375299L306.975451,1285.342164L313.832152,1279.656586L315.330911,1278.771127L315.721012,1277.637118L315.193780,1276.347766L313.858053,1275.042880L318.177243,1272.200091L319.699859,1271.951541L321.380739,1272.805931L323.981007,1275.881735L325.579789,1276.705057L326.793274,1276.272643L328.326224,1275.726392L331.238312,1269.683524L334.018159,1267.648523L335.305893,1267.741729L338.329231,1268.704859L339.494935,1268.565050L340.199857,1267.508713L339.845437,1264.743597L340.402922,1263.096955L341.489214,1262.460046L342.583608,1262.817336L343.576527,1262.941611L344.461017,1261.636725L342.722521,1255.174431L343.206948,1251.881147L345.303556,1245.807214L345.799427,1242.902289L344.454098,1228.393203L344.984401,1226.668890L346.524736,1225.721295L354.958892,1222.396944L357.671129,1222.707631L360.633427,1224.897974L361.843195,1226.731027L363.685415,1230.676753L365.130263,1232.121448L366.348142,1232.478738L370.077836,1232.199119L370.214758,1232.243842L374.072799,1233.504005L375.388955,1233.441868L376.778519,1232.509806L379.029716,1229.465073L381.150168,1227.740760L381.439830,1227.414539L381.675275,1226.979577L385.614988,1221.014387L390.575647,1218.777440L402.249225,1217.177402L407.344988,1215.313280L412.335579,1212.656907L417.325305,1207.716985L420.037582,1205.588780L426.078109,1203.942139L431.813859,1200.431377L434.268667,1200.229430L435.032374,1200.928476L435.354637,1202.124621L435.331926,1203.724658L435.088042,1205.650917L434.500140,1207.810191L434.043231,1208.617977L434.079785,1209.425763L434.958438,1211.600571L437.102975,1215.328815L439.673996,1218.761906L444.246632,1222.101791L445.104345,1223.111524L444.663218,1225.923241L442.781794,1228.921371L440.545071,1231.733089L439.051189,1234.078776L437.450627,1235.911830L432.420464,1238.273052L430.310904,1240.432327L429.215498,1242.607136L429.098986,1243.787748L430.080050,1247.127634L431.142955,1252.859812L433.140950,1255.702599L435.102158,1257.799738L436.554479,1260.192029L437.066689,1263.951345L436.825212,1265.380506L435.795336,1268.021347L435.457999,1269.434974L435.529667,1271.205892L436.055615,1272.635053L436.719061,1273.986543L437.216828,1275.539979L435.008676,1287.221822L435.542907,1291.788927L437.861686,1291.322896L440.399639,1290.872399L442.022361,1289.940337L444.769355,1286.662585L446.351076,1285.714989L448.945872,1284.938270L451.384644,1285.031477L452.457342,1286.662585L453.042924,1287.268426L455.880611,1287.113082L456.976271,1287.221822L457.602385,1287.920869L458.672926,1289.893734L459.273424,1290.297627L460.927690,1290.934536L465.048761,1293.777326L466.524934,1294.398701L471.598777,1293.839464L475.513971,1292.286027L484.336677,1286.072279L490.590928,1283.027543L492.686006,1281.085747L494.056585,1278.848799L495.085987,1276.378835L506.080435,1255.811340L516.388105,1244.409122L517.249780,1242.451793L518.342560,1240.805151L525.439546,1236.750685L528.349960,1233.721486L535.414587,1222.481752L540.418099,1214.521029L541.142981,1212.501564L542.558882,1209.534504L545.806543,1207.406298L549.449602,1205.635382L552.051742,1203.724658L566.865251,1195.305044L572.032145,1193.176839L575.333666,1191.235046L576.488205,1190.722413L577.015140,1189.712680L579.969529,1186.217454L580.690127,1184.912569L584.862712,1170.123879L586.551789,1167.296630L588.591099,1165.525715L590.956247,1164.298503L610.148484,1157.401258L615.980725,1156.422595L621.936651,1155.397329L627.816023,1153.408935L632.975043,1150.364205L633.646599,1149.640270L636.865831,1146.169936L639.330419,1137.330902L640.107036,1135.808538L641.046094,1134.643463L645.220067,1126.487941L647.495904,1119.342151L649.386445,1117.213949L650.392922,1113.827466L655.851291,1101.462146L664.169282,1090.075489L667.167250,1083.535541L669.940041,1075.504300L676.550488,1062.672956L678.302641,1058.136937L678.961996,1055.356295L679.227490,1051.845541L678.522954,1050.229972L676.979750,1049.018296L675.425590,1047.278453L674.742819,1044.109454L675.586037,1037.553976L675.576424,1034.105360L674.356707,1031.278116L673.807230,1028.777092L674.397007,1020.652650L673.726155,1012.201989L674.270502,1004.729989L673.724749,999.325510L672.844026,990.609310L673.005209,988.450042L673.371789,986.352912L676.563178,975.618712L679.462575,953.451273L675.201224,917.365116L675.148683,910.110604L674.907510,908.696983L674.595153,907.920269L673.382693,905.838675L672.939301,903.524066L673.223387,901.085183L674.978507,894.327769L674.995994,893.364643L674.808490,892.199572L674.657374,888.719892L675.630665,885.333419L677.261501,882.164425L680.530877,877.364331L683.835792,874.024461L687.605389,871.135084L695.042933,863.103861L700.684986,858.303768L709.086528,849.029803L711.127295,846.078290L712.338852,844.851082L712.971280,844.462725L715.032541,843.484066L717.358012,841.480144L718.182662,841.045184L718.615018,838.994660L719.334588,837.192683L719.659365,836.710092L730.226927,821.005967L731.967928,817.200070L732.764158,812.757267L732.697924,807.646490L732.881595,805.937720L733.561541,803.452236L734.543215,800.982287L737.178452,796.392031L738.984327,793.246219L742.064363,786.271330L746.459609,779.809073L751.429769,768.671001L753.634527,765.144721L755.693520,759.598987L758.782933,753.385279L760.234154,749.191027L760.840570,748.103628L761.707401,747.124969L764.744745,745.074445L770.946568,739.404437L775.116899,733.936375L780.315366,728.747929L783.453013,724.631348L783.825513,723.714827L784.635884,723.342004L786.037835,722.254606L786.848236,721.866249L791.076097,721.074001L797.474607,719.039012L806.347358,714.922432L808.928638,714.130184L815.640616,713.058320L822.588260,710.836920L823.962299,709.920398L826.576535,706.425188L826.948587,705.648475L830.520091,703.691157L831.537367,702.743567L834.261548,699.015343L837.726323,695.395859L855.611051,671.069332L863.100988,660.878724L865.876160,658.564119L867.580829,656.342719L869.146927,655.053375L869.586781,654.509676L869.793466,653.888305L870.057178,651.682440L870.621334,650.517370L871.349992,649.461040L879.841425,640.497771L881.697385,637.530727L882.700801,636.039437L881.559658,609.398178L878.317267,594.376547L877.976171,590.570653L878.334687,586.795828L883.747662,558.787555L886.176410,553.397167L896.609457,521.132506L908.000561,503.066160L908.739591,500.658350L909.590386,486.071678L909.313207,483.492990L908.472966,480.588083L907.070543,478.149204L905.120587,476.921997L902.573202,469.698565L901.758859,466.032479L901.670804,461.791625L903.643547,450.187530L903.650817,446.070950L899.665959,426.917202L899.684133,415.002421L898.125661,404.563394L898.996336,401.107020L901.535843,395.429246L904.491154,391.732090L909.968333,381.261994L910.907718,378.287182L911.364036,368.927785L915.969495,352.084753L916.571150,346.581738L917.303474,343.641877L925.091880,324.177434L925.383666,321.039511L924.232220,277.955199L924.496900,275.364858L925.822528,270.393889L926.237868,267.799665L926.256092,265.415153L925.474439,258.490748L926.047459,244.109888L925.699143,239.503973L924.898061,234.936894L924.888638,232.707724L929.964367,216.886056L930.944268,215.130682L934.121195,210.812150L934.649259,209.274256L936.909185,208.505309L938.256933,206.237303L940.084851,201.010015L941.553679,198.275981L942.692729,195.440973L943.515602,192.481691L944.941318,183.642681L945.972136,181.219331L947.702287,178.764913L955.275488,170.702616L956.630884,170.189985L957.022411,168.931707L967.073563,149.490538L970.352820,139.261204L970.797487,135.191218L971.225655,133.187294L974.380024,125.544419L976.758905,121.653077L977.340115,120.099647L977.856775,116.798608L978.355743,115.268479L980.419708,111.555781L984.724268,96.720522L986.436657,94.009786L989.167318,91.904887L993.828246,89.225220L995.900883,87.190226L996.763938,84.696969L997.041403,82.910524L998.255789,79.555114L999.619144,57.783779L998.459808,38.936772L997.350298,34.781343L991.522105,34.703671L989.892451,32.866738L987.745707,27.340405L982.252443,17.441160L980.067387,14.551776L976.729204,11.456563L975.002220,11.557536L973.548059,13.565347L971.138330,16.241134L969.935422,16.819787L967.685774,16.672211L966.178940,16.897459L965.593365,17.526599L965.058014,19.581013L964.554145,20.124714L963.621600,20.101412L962.121632,19.254792L961.325117,19.060613L950.760154,20.124714L949.292655,20.070344L948.097376,19.697520L947.126056,20.047042L946.343846,22.116990L945.426261,26.656895L944.928106,28.124888L943.408493,30.711352L941.106656,33.208493L938.332332,34.703671L935.450052,34.264827L933.695037,32.070605L931.971179,26.070474L929.624035,23.487894L925.047247,21.767468L920.412956,21.814071L915.910359,23.192742L911.783514,25.472403L910.139285,25.666582L908.860764,25.130648L904.150494,21.767468L903.449196,21.445131L902.699018,22.085922L897.642900,24.882099L895.138636,25.697651L893.243769,25.270457L892.324289,22.913124L891.675147,19.930535L890.410342,17.177077L888.696490,14.982854L886.672571,13.643019L885.520131,13.534278L882.959698,14.116815L881.739230,14.093514L880.899505,13.557580L879.600286,11.891524L878.706196,11.433261L877.760447,11.487632L876.228817,12.140073L875.516833,12.303184L864.657469,12.318718L859.277107,11.429378L854.449669,9.037092L849.512222,4.372912L848.906527,3.984554L847.054178,3.767073L846.406101,3.176769L845.872826,1.200026L845.292793,0.528167L842.245672,0.000000L840.099567,1.052450L838.094413,2.730157L836.375339,3.736769L831.249764,6.738013L828.626438,10.497319L825.806358,13.491559L820.995998,13.883801L817.560268,12.582801L815.858829,12.380855L813.944029,13.176989L812.117092,14.905182L811.043439,16.497450L809.858832,17.883888L807.644342,19.021777L805.740317,19.340231L800.419071,19.153819L798.598785,19.720821L795.043058,21.293671L793.221322,21.619892L789.641036,21.363576L788.450037,21.689797L786.249368,22.866521L785.334739,23.557798L783.848735,25.021908L782.741300,25.573376L781.932661,25.635513L780.148568,25.371430L779.121491,25.596678L777.356597,26.272421L776.282716,25.526773L775.301756,24.256843L773.842852,23.324784L772.539501,23.200509L768.867607,23.693724L767.645736,23.433524L765.212789,22.412142L763.962932,22.054853L762.017124,22.272333L761.846034,23.503428L762.225481,25.091812L761.972385,26.373394L759.375757,27.868572L756.579540,28.047216L745.633323,24.959771L742.958208,24.734523L739.901751,24.959771L733.688263,27.006417L728.281330,31.053107L724.226716,36.657112L722.138770,43.364052L721.028711,55.931312L717.761363,65.387824L717.698862,69.077223L716.961809,72.300592L712.433170,79.492976L710.915230,82.933826L710.838548,86.646525L711.911011,89.831058L713.311988,92.906850L714.344052,96.262260L713.493820,101.660431L708.420523,112.821827L708.823599,119.462741L710.455861,122.297750L712.387880,124.736636L713.566809,127.439604L712.967109,131.059095L709.225171,140.185495L706.192867,147.565589L704.383639,151.968258L698.794236,165.537464L692.822783,180.030958L688.600838,190.314658L682.625490,204.815916L675.873360,221.220121L676.630455,221.888096L677.349028,223.231811L676.257959,224.870678L670.939049,229.391155L668.459586,226.727025L665.768825,226.198859L663.648162,227.666849L662.782811,230.975652L661.204202,234.338824L660.908836,236.055362L661.190404,237.985497L661.757747,239.302027L662.119573,240.692346L661.839332,242.820542L661.551788,242.968118L661.016856,242.991419L660.427705,243.193365L660.032263,243.845805L659.884642,244.742910L659.887108,245.418651L659.970863,245.814775L660.039767,245.900213L660.236640,247.224511L660.693602,248.397349L660.725823,249.721647L658.706979,252.929476L658.355441,254.374164L658.525926,259.923785L659.036333,260.727684L659.861035,261.178178L661.003678,262.319948L663.392753,266.859841L667.909557,280.009607L671.146065,296.619632L670.728160,298.984726L669.303541,299.699302L666.446450,298.604136L665.281466,298.984726L659.343000,308.681997L654.092579,301.039134L652.959506,298.425492L652.954719,296.883715L653.334443,295.466212L653.521887,293.990456L652.940219,292.262268L651.852801,291.132149L650.382624,290.440874L648.791044,290.402038L647.421756,291.240889L645.127382,290.223394L642.546093,289.582605L640.580710,288.479672L640.161549,286.106811L638.751237,286.976730L636.970218,287.761211L635.392709,287.831116L634.730168,286.572839L634.379930,284.308719L633.484760,283.248504L632.192864,282.541694L629.016076,280.184368L625.471979,278.790167L623.808751,277.807623L618.708512,270.479328L617.746044,269.838539L614.643681,269.279305L612.981219,268.541427L611.592706,267.675391L611.014194,266.984115L598.401164,265.395735L587.084054,261.597604L581.276923,260.389814L575.476901,261.294685L568.714898,265.846229L566.043011,266.852074L563.550861,268.288995L561.987795,268.564728L562.041544,268.219090L558.922187,266.642361L558.276990,266.518087L557.230163,265.240392L557.036082,264.626788L557.266502,263.776286L557.438337,261.807317L557.146578,260.704383L556.388150,259.535428L555.342383,258.595604L550.822607,256.712073L550.093990,256.257695L549.569285,255.247967L548.834460,252.956661L548.172911,252.055672L545.370067,250.805163L543.300932,251.504205L541.520377,252.350824L537.275399,250.599333L535.548050,255.030487L533.597229,254.203287L532.787827,254.203287L531.451503,256.634402L529.333257,259.100468L527.113317,259.861648L525.540557,257.185868L522.964560,258.133459L520.918264,257.465486L514.588815,251.783822L513.298591,251.581877L512.254252,255.193597L511.035568,255.884873L508.155866,256.257695L502.886374,255.799434L503.422944,252.110042L504.835647,247.908019L502.236092,245.900213L501.805819,244.420573L500.053593,241.480710L498.125684,239.333096L497.223435,240.257386L497.229800,242.125383L496.975352,243.954545L496.047202,245.348746L494.073596,245.900213L485.914513,246.921592L485.486866,246.210899L485.599056,242.851611L485.444573,241.791396L484.772373,241.791396L483.607529,242.152568L482.222535,242.319561L480.917507,241.791396L481.739377,241.426340L483.640532,239.744754L480.052691,237.581606L479.094263,238.125305L480.012094,241.791396L478.047352,240.898175L475.416797,237.841805L473.560494,236.567994L470.117713,236.715569L468.825660,235.969924L469.942408,233.585411L466.768020,231.985380L462.359063,226.439641L458.939580,225.375542L458.270745,226.338668L457.040670,227.651315L457.072931,229.049401L457.379484,230.431952L456.958667,231.729064L455.766808,232.202860L445.308429,234.734948L442.598567,236.622363L441.831281,236.901981L439.936574,236.428185L437.362238,233.740754L435.272543,232.397039L426.858970,231.107693L421.023665,233.678617L419.789598,233.849494L405.823989,233.701918L384.724726,233.492206L360.991487,233.251424L339.524615,233.047880L333.958998,232.995109L313.545695,232.785396L290.717938,232.552381L290.786889,241.566149L290.335087,246.397310L288.987733,250.001264L284.263559,252.956661L283.469898,253.644053L281.064146,256.634402L280.366092,257.185868L279.160407,257.725685L279.122911,258.991728L279.885538,261.807317L279.615498,263.325792L278.932537,264.374356L278.057181,265.310297L277.168863,266.518087L276.268325,268.265693L275.383162,270.619136L273.806897,271.131767L273.260030,271.815276L274.982269,274.479404L276.059799,277.194020L276.748817,278.316371L277.302412,280.095046L277.116834,282.502859L275.759586,288.021411L274.750295,290.285531L273.397280,292.285569L271.726358,293.388503L272.707085,295.967193L272.329649,298.596369L271.431291,301.419723L270.931581,304.584832L271.744156,311.427680L271.327557,315.039398L269.057131,318.014212L271.235159,322.379342L273.699971,326.224075L274.602928,325.109491L276.115165,326.418253L277.052213,328.193044L277.221541,330.247451L276.430588,332.379530L279.164473,333.960142L281.567877,341.230182L283.697818,342.737006L283.563324,343.991398L283.756783,351.098327L283.677019,352.325534L283.734295,353.478954L284.175440,354.488681L285.290560,356.313958L285.004043,357.106206L284.195598,357.634371L282.953093,360.648019L281.062512,362.092706L278.814032,362.962625L276.948590,363.257777L275.894045,364.251970L275.404189,366.349096L274.419861,368.197674L271.895792,368.492825L273.242990,369.828772L274.836003,370.558883L276.100152,371.522008L276.512376,373.602195L276.515732,373.619134L277.915660,373.828847L280.617763,373.339517L285.187563,373.727874L287.930545,373.090969L290.356875,371.894830L292.820059,368.477291L295.234173,368.088934L297.483056,367.405426L298.328501,364.741299L299.396484,363.615065L301.988095,362.807283L304.882427,362.434460L306.899800,362.644173L311.541176,364.516052L315.645478,365.409273L319.651906,365.385972L324.095573,364.453915L325.807845,363.055831L328.830659,358.442153L333.587354,356.345027L335.312764,354.737230L337.189534,353.346913L339.823311,353.075063L341.072019,353.137200L342.292954,353.043994L344.734130,352.535247L345.590630,352.053685L347.179168,350.643950L348.083881,350.255593L348.756527,350.410935L350.308782,351.253670L350.707016,351.409012L352.132632,350.799292L352.570980,350.473073L354.182102,346.876889L355.421988,342.993321L355.530139,342.278745L357.408677,341.766114L382.481933,344.410823L384.774558,344.985592L387.193066,346.620573L389.159999,348.799255L391.249294,350.488607L394.062442,350.682785L398.805101,348.605077L401.190896,347.906034L403.853345,348.201185L409.084529,349.820633L410.239048,350.706087L411.091961,351.704163L412.095403,352.527480L413.674034,352.869234L413.881842,353.702844L414.089352,354.535284L415.230001,355.366368L416.740847,356.080944L418.170559,357.339220L418.970019,359.016921L420.965780,368.399620L421.330630,372.329790L421.215940,383.669805L422.307232,387.506769L424.385008,390.644691L430.757776,393.969025L432.574538,397.029275L434.660008,404.718737L436.134183,408.229481L438.005799,411.522745L440.233539,414.489790L442.762487,417.091780L445.935034,418.901522L446.952325,420.105427L446.708523,422.148183L445.489459,423.546267L443.913102,424.610364L442.913271,425.829804L443.368861,427.686149L444.257187,434.684335L439.723817,440.874739L433.611667,446.816595L429.777285,453.069136L429.388284,460.781898L428.513610,463.997491L418.684805,473.628734L418.191575,474.420981L417.437457,475.042351L415.654328,475.819065L408.985797,476.222955L401.533845,475.275365L394.961933,476.285092L390.933290,482.623072L392.431625,485.760992L393.257422,488.836776L392.738371,491.943629L390.257032,495.174755L380.449835,501.295255L377.625184,504.697258L372.924863,516.643105L368.413471,524.254893L367.810985,527.843307L368.470857,531.618133L369.762013,536.278411L370.394057,539.944497L370.958184,550.802945L371.822763,551.828206L373.373387,551.874809L374.965196,552.201029L376.008184,554.049606L375.802395,555.618566L373.922450,558.368130L373.359805,559.859419L373.620436,562.065284L374.306443,563.742984L374.443534,565.327479L373.057378,567.269262L371.698689,568.729482L370.049234,571.207477L364.025636,580.255904L362.624900,583.984126L362.499994,588.240514L368.630519,596.520275L369.426107,597.188248L370.276971,597.001837L372.033749,596.271727L372.596657,595.603754L372.953908,594.516355L373.462051,593.522163L374.491388,593.118272L379.239031,593.739642L380.528680,594.314410L381.598579,595.324137L382.558484,596.784358L387.389364,595.339671L392.713182,596.271727L397.569606,598.943620L401.025667,602.780583L403.259517,607.922423L404.888706,613.949717L405.858691,620.147887L406.087700,625.771290L408.325464,624.419809L410.521664,623.565425L412.799549,623.549890L415.227499,624.668357L417.381420,625.243125L419.412904,624.466412L421.472079,623.363479L423.750263,622.959589L427.454300,624.171261L432.502023,626.703346L436.972794,629.872335L439.905400,634.346203L445.184575,638.462782L446.815597,640.435634L449.923121,647.690134L451.112051,652.195071L450.200864,657.072829L444.791885,670.276953L444.046032,673.958574L444.068429,677.655729L444.954964,681.477158L445.510919,686.044232L444.010460,689.259825L441.659615,692.180266L439.609342,695.877422L438.904041,699.326028L438.234709,705.819352L436.829692,709.019410L436.798522,711.178674L440.564356,722.969182L441.971526,726.215844L442.420973,727.971216L442.308723,729.260560L441.562741,731.854783L441.601373,733.144127L442.530773,734.977171L443.075154,735.585783L445.323587,738.099558L446.348706,740.041342L446.565466,741.392824L446.418480,746.084173L445.876205,749.455109L445.392874,750.899796L444.648525,752.484292L443.685402,753.711499L442.585638,754.674624L441.663963,755.762022L441.289833,757.424189L442.079218,760.298029L444.022387,762.581567L448.679369,766.076778L449.413008,769.199166L448.462240,770.923470L446.771723,772.150677L445.231047,773.828379L444.747453,775.241997L444.519184,778.861483L442.834637,783.211079L444.572243,785.168397L446.047241,787.871360L446.096373,790.139364L441.744724,791.071421L440.890745,792.376300L440.351194,794.116138L439.455459,795.638497L438.190519,796.679293L436.940181,797.378335L434.220792,798.465735L433.024028,799.661874L433.899167,800.780341L436.474202,802.411440L438.063099,808.500876L440.324709,809.293124L443.122099,809.821289L444.134640,810.815483L441.000653,812.959212L439.389867,814.978668L438.530198,818.225332L438.084377,830.202259L437.263601,834.070294L437.177522,835.344104L438.173134,841.899570L437.206539,843.965629L433.674127,846.140428L433.387140,846.267181L417.917151,853.099785L416.967187,854.187184L416.305215,855.305652L415.971806,856.641600L416.035009,858.365905L415.330917,859.779525L415.410294,860.711582L416.093774,861.488296L417.174694,862.389284L417.815422,863.663095L417.673479,865.154386L416.785973,868.121434L416.019393,876.043918L415.395001,878.187648L414.486204,879.212911L412.192222,880.129434L411.476503,880.844011L411.320692,882.319768L412.134785,885.007199L412.103639,886.110133L410.326617,888.300467L405.765877,890.180115L403.963444,891.764612L404.371093,896.906461L414.392484,906.537718L415.363081,911.322278L414.788452,910.902852L408.444994,912.580555L407.125674,913.264064L405.915256,914.180587L403.368771,916.619470L402.280450,917.908816L401.671378,919.431176L401.711871,923.376885L400.774328,924.681766L399.494478,925.815769L398.364766,927.151718L397.530304,929.827488L396.921073,931.780936L396.121274,932.914939L394.913439,933.116885L393.598933,932.495513L391.560073,931.159564L390.229994,931.035290L389.392631,931.206167L383.280633,933.365434L382.265644,933.349899L381.418473,932.464445L381.030804,929.714875L379.813695,928.705147L378.524300,928.705147L377.246237,929.357587L374.949762,930.926550L372.162839,931.578990L368.912619,931.392579L365.885323,930.258576L363.725889,928.099309L363.879475,927.353663L363.996322,921.559374L364.988668,920.238959L367.751413,918.669996L369.646736,914.133984L371.228115,913.031050L371.793967,912.052389L369.993042,909.256218L368.625129,908.153283L367.228581,907.392103L366.203580,906.289169L365.778971,902.110446L364.892355,900.634689L362.473795,897.838518L360.850677,895.073415L357.855885,888.098521L356.668956,881.884808L355.526831,878.715814L353.930868,875.873040L352.112630,873.884652L350.716932,872.750650L350.292248,872.564238L349.987901,873.372021L347.201986,878.047840L345.793142,881.045956L345.431127,882.708125L345.215762,885.675173L344.723670,887.244135L343.648189,888.921838L333.515237,899.997783L332.618388,901.551212L332.223582,904.735740L331.629209,906.071689L330.295132,907.096952L327.122483,908.246489L325.541910,909.147478L324.220487,910.483427L322.276939,913.232995L321.147801,914.491273L316.828965,917.862213L315.507118,919.306902L314.775102,920.751590L314.399881,922.149677L313.792106,923.361351L312.389817,924.262340L311.704831,924.013791L310.600178,922.165211L309.750578,921.916662L307.882783,922.569102L307.196980,922.553568L304.318210,922.025402L301.764351,922.739979L299.406078,922.429294L276.298047,912.704829L274.995980,912.378609L273.458856,912.611624L270.915553,914.289327L269.460375,914.631081L266.692004,913.869901L258.146838,909.473698L254.856825,908.805723L253.140263,909.380492L250.729533,912.100439L249.188752,913.838832L247.405138,913.947572L247.024010,913.046584L247.714460,911.648498L249.200561,910.234878L249.821291,909.178546L250.360365,907.920269L250.735021,906.599855L250.835213,905.310509L251.114472,903.788149L251.859168,902.560940L252.974581,901.224992L252.650766,899.531755L252.020245,899.376412L251.210800,899.407480L250.267929,898.257943L249.915106,897.046269L249.255692,892.991821L248.012747,891.267515L245.544023,886.669367L244.395615,885.395556L241.166152,887.259670L239.272824,887.337341L238.704837,884.665444L238.613535,883.112016L238.109164,882.055685L236.372766,880.129434L236.060233,879.135240L236.296283,878.187648L236.862121,877.053646L237.111181,876.339069L237.635436,875.344875L237.720329,874.474955L235.225750,873.744844L234.939958,872.968130L235.079796,872.067141L235.081851,871.368099L235.315247,871.305961L234.803980,867.872885L234.216701,866.971897L232.151844,864.672823L231.386773,863.569889L230.202344,860.385362L227.310728,849.480298L225.784226,845.814208L223.552738,844.074369L217.947152,842.023844L217.359088,841.540467L208.610910,834.349911L202.965429,831.693549L196.434523,831.895495L195.006205,832.485797L188.490558,837.425698L187.678910,838.280083L187.017846,839.258742L186.203430,841.169458L185.966783,842.474338L185.866453,844.105437L185.286226,845.627796L183.568549,846.684127L181.238503,845.860811L178.727609,842.836970L177.149428,840.936444L175.668773,840.548087L175.155868,842.583078L176.223749,858.785331L177.345610,864.859235L180.089506,869.674862L185.253799,872.331224L184.656468,874.925449L182.257179,879.181843L181.303970,881.465382L181.050536,883.686785L181.978678,889.900498L181.046618,894.219029L179.247611,899.391946L178.272455,904.254177L179.771135,907.562980L127.043023,920.347699L122.929451,919.835067L118.878847,916.681607L114.398738,910.359152L112.004189,908.355229L110.635174,907.438706L106.471815,909.768849L100.869011,911.803841L96.078431,912.875707L93.125197,914.211655L88.611821,918.903010L86.398939,920.363233L84.204798,920.161288L81.794918,918.716599L77.321240,914.739821L76.310114,913.403872L75.778850,912.145595L74.959234,910.980524L73.137911,909.924192L66.436754,907.625118L61.526418,907.438706L61.238081,907.531912L60.173282,910.483427L63.000738,919.244765L63.470971,922.553568L62.485628,930.879947L62.532473,933.505242L63.551484,936.674237L66.893174,942.748145L68.130773,946.119087L68.831859,949.956057L68.821885,953.078450L68.167186,956.200843L66.934141,960.006745L57.205692,977.871185L56.949881,978.966368L55.605428,984.721811L56.279254,988.248097L58.557465,987.813136L63.948369,983.541204L67.724526,982.236323L70.368283,983.214984L72.525885,985.980089L77.080787,993.514224L87.132142,1005.662048L89.067204,1009.126197L89.055546,1012.357332L85.769521,1014.640875L82.709911,1014.998164L80.886510,1014.827286L79.497930,1015.774879L77.728981,1019.503112L77.061084,1022.143944L76.899378,1032.551929L76.676787,1033.406316L76.921501,1033.981085L78.054947,1035.270433L79.080233,1036.140354L86.581975,1039.697711L89.372380,1041.592896L94.701630,1046.579409L99.518752,1049.173639L105.805562,1051.130962L110.923695,1053.849467L112.303385,1058.696172L110.507938,1061.927309L104.770492,1066.774015L102.959735,1070.393510L95.308903,1090.650259L94.924465,1094.129946L96.227904,1097.267879L98.962600,1099.116463L102.097784,1100.266003L104.641668,1101.819435L105.560760,1105.003971L104.504519,1108.390453L102.146598,1111.559455L99.270787,1113.982809L96.935840,1114.990067L96.606014,1115.132349L94.138364,1115.054678L86.511663,1112.584720L83.853137,1112.242965L76.623020,1113.299299L73.748262,1112.196362L71.538269,1109.477856L61.085952,1090.184229L56.180314,1085.912292L49.534254,1084.824890L45.861970,1087.667670L43.361868,1092.296897L40.383103,1096.599903L35.315943,1098.510625L29.853824,1099.753370L25.564043,1102.735960L21.600586,1106.417594L17.062688,1109.741939L13.594217,1113.081819L11.395289,1117.819788L2.468939,1144.730446L0.380856,1149.089138L3.697401,1151.530713L8.103369,1155.194113L21.029691,1164.851333L32.665703,1175.400660L33.178695,1176.587141L33.300860,1178.287356L33.146195,1181.589932L33.496061,1183.045512L35.197931,1186.335856L35.830592,1187.289934L38.318088,1191.852124L44.812579,1198.369788L51.067225,1202.775350L63.111387,1214.897033L76.823736,1228.244447L91.784963,1245.323000L94.173366,1250.981839L93.565393,1254.365786L91.051739,1257.470652L87.918043,1257.434940L87.806971,1258.964628L88.424753,1260.848088L94.023602,1266.600747L97.485884,1271.734658L97.837718,1274.902875L97.203786,1276.725378L96.524743,1277.137128L94.764765,1274.844930L93.984405,1274.668661L93.342507,1275.690698L93.463537,1276.538470L94.830319,1278.375463L102.166602,1287.125680L103.403922,1291.244933L106.638494,1294.819473L111.589056,1301.657043L114.560013,1307.295898L116.381725,1309.752626L118.398788,1311.832675Z "/></g></svg>