<?xml version="1.0" encoding="utf-8"?><!DOCTYPE svg  PUBLIC '-//W3C//DTD SVG 1.1//EN'  'http://www.w3.org/Graphics/SVG/1.1/DTD/svg11.dtd'><svg enable_background="new 0 0 1000 1185" height="1185px" pretty_print="False" style="stroke-linejoin: round; stroke:#000; fill: none;" version="1.1" viewBox="0 0 1000 1185" width="1000px" xmlns="http://www.w3.org/2000/svg" xmlns:xlink="http://www.w3.org/1999/xlink"><defs><style type="text/css"><![CDATA[path { fill-rule: evenodd; }]]></style></defs><metadata><views><view h="1185.11185097" padding="0" w="1000"><proj flip="auto" id="robinson" lon0="-5.69545296627"/><bbox h="107.02" w="90.38" x="-127.39" y="-179.87"/></view></views></metadata><g class="" fill="black" id="country"><path d="M887.881887,1037.002135L886.538927,1036.285566L886.087551,1035.531282L885.849496,1034.475286L885.378635,1033.381574L884.222233,1032.483977L879.852900,1031.216780L876.715661,1033.788887L873.597471,1036.979507L872.935059,1039.627042L875.268497,1040.947038L891.333790,1042.696976L898.456987,1044.560056L898.556746,1044.590227L898.559581,1044.590961L899.269975,1041.534255L899.266097,1041.535379L898.773551,1041.686236L896.584902,1041.475037L894.193093,1038.985901L892.757583,1037.816762L892.111634,1038.246703L891.406370,1038.261789L887.881887,1037.002135Z M188.950439,1183.111851L191.909313,1181.829573L204.843115,1169.761070L213.664131,1164.315157L216.593962,1161.524315L218.179686,1160.920890L220.216124,1160.951061L221.980811,1160.596549L223.628461,1156.998626L225.662822,1155.444805L235.386419,1150.723002L247.536163,1149.289867L254.244469,1146.974222L264.439774,1140.027287L273.274570,1131.669844L277.864336,1125.341419L279.671077,1124.172282L283.540549,1123.078573L287.772902,1120.725213L304.186725,1119.480648L324.894846,1112.571424L327.528533,1110.685719L331.940109,1105.933741L334.557901,1104.975803L337.939559,1104.523233L355.233851,1099.718456L357.673323,1098.224977L358.639057,1095.419047L360.039798,1094.166938L404.832974,1077.233298L417.747538,1069.713101L426.306843,1066.107630L428.242845,1066.198144L429.418201,1064.508551L432.203564,1062.886843L450.657121,1056.387220L451.862470,1055.964821L488.026029,1049.802326L501.070934,1045.261540L499.900267,1045.125769L496.509770,1043.994343L501.083009,1040.207840L505.281180,1043.021318L510.042976,1043.858572L542.974861,1041.867264L549.348373,1039.083958L590.708018,1037.673448L588.676723,1035.553911L587.286979,1032.137006L586.362496,1028.946387L585.700254,1027.543419L580.053311,1026.864564L577.896829,1027.271877L575.597010,1029.315986L571.376179,1030.568097L561.477808,1024.013372L556.020359,1024.895884L553.787833,1023.628687L553.784951,1024.895884L556.178116,1025.740681L557.278081,1027.701819L558.592015,1029.195300L561.587018,1028.697473L560.557102,1031.073467L558.885457,1031.835293L556.890643,1031.337466L554.891197,1029.949584L552.618712,1031.616551L549.979157,1030.854724L547.281511,1029.315986L544.841249,1028.697473L544.221234,1029.255643L542.153201,1031.684436L541.279805,1032.483977L540.007322,1033.238261L538.801922,1033.751173L537.464081,1033.992544L535.801052,1033.879401L535.798144,1035.139055L538.763468,1036.006481L541.672107,1035.486026L544.433317,1035.425683L547.056209,1037.673448L540.604776,1039.619499L532.583247,1038.623845L525.871458,1035.199398L523.442045,1029.949584L525.654558,1031.216780L525.592583,1029.270729L525.660457,1028.697473L526.884621,1028.697473L532.345929,1037.673448L533.469321,1035.229569L535.815711,1027.543419L535.807206,1031.216780L537.420081,1029.994841L541.257191,1027.852675L542.511591,1026.276223L542.514770,1024.895884L540.198759,1025.227768L539.306559,1025.529482L538.160514,1026.276223L538.080956,1026.155537L537.418257,1025.031655L537.166754,1024.465942L535.821852,1024.895884L535.909671,1024.322628L535.827704,1022.376576L537.661488,1023.425031L538.166642,1023.628687L537.479912,1021.396007L537.637063,1019.615898L538.576909,1018.846529L540.304634,1019.721498L541.309223,1019.721498L543.745145,1019.306642L546.855149,1020.852923L549.766887,1021.833492L551.568007,1019.721498L552.585902,1019.721498L552.877598,1020.174068L553.156056,1020.596467L554.278168,1021.577036L554.908379,1022.376576L559.848249,1020.883095L565.327347,1022.180462L570.038280,1024.873255L572.766731,1027.543419L574.993560,1025.416339L577.704953,1023.779544L580.627905,1022.738632L589.545638,1021.471436L591.620042,1022.074863L589.511559,1024.895884L590.588425,1028.380674L590.501273,1031.752322L591.594290,1033.947287L596.185116,1033.879401L596.182409,1035.139055L595.663348,1035.191855L594.585743,1035.093798L594.053392,1035.139055L594.050923,1036.285566L596.160490,1036.051738L604.975575,1036.240309L606.890897,1036.617451L608.658419,1037.673448L611.488994,1036.270480L626.321941,1034.837342L653.174498,1028.018618L704.258842,1023.296802L755.341926,1018.574986L743.178630,1012.118318L744.981263,1012.269174L746.717798,1012.178660L748.355101,1011.771347L749.886649,1010.971806L744.780854,1008.995583L724.608735,1009.583924L722.032991,1010.202437L717.836795,1012.887687L711.121599,1014.245398L707.845928,1015.572937L704.651417,1016.183907L701.567164,1014.773397L699.427633,1016.870305L697.153589,1016.221621L694.608141,1014.863911L691.614545,1014.773397L690.547024,1016.372478L689.198207,1018.944585L687.925343,1020.068468L687.152268,1017.307790L682.437200,1019.804469L672.798467,1019.125614L669.182032,1021.109380L667.964546,1021.109380L667.969552,1018.574986L662.278209,1020.143897L661.278348,1021.109380L661.714020,1022.829146L663.269137,1023.673944L665.251366,1023.854972L666.941670,1023.628687L663.146736,1025.009026L661.449681,1025.280568L659.022100,1024.895884L658.464197,1024.420685L657.760697,1023.560802L656.724464,1022.746175L655.181718,1022.376576L650.098861,1022.376576L647.623304,1022.700918L644.306830,1024.322628L642.283153,1024.895884L640.940233,1024.413142L640.137704,1023.198745L639.414276,1022.346405L637.382492,1023.628687L633.248379,1024.895884L633.245534,1026.276223L634.053091,1028.275074L632.380501,1029.572442L629.471951,1030.130612L626.544966,1029.949584L623.898653,1029.172672L622.423984,1028.063875L622.188129,1026.313937L623.211651,1023.628687L627.215679,1020.943437L633.302463,1018.039445L636.582448,1014.758311L632.159543,1010.971806L636.351089,1010.820950L639.805701,1009.930895L642.544658,1007.652958L644.569195,1003.383711L645.573740,1003.383711L645.569110,1005.639020L645.059871,1007.411587L643.992746,1008.724041L642.314495,1009.583924L642.311643,1010.971806L643.788059,1011.213177L644.691568,1011.831690L645.208139,1012.978201L645.550419,1014.773397L643.129101,1014.622540L641.347385,1014.019113L639.751145,1013.807913L637.839800,1014.773397L638.536047,1015.889736L639.797701,1017.051333L641.206097,1018.031902L642.296058,1018.574986L643.420396,1018.574986L645.013851,1016.900477L648.057396,1015.331566L651.550651,1015.075110L654.566535,1017.307790L658.325468,1013.958770L660.563198,1012.767002L663.511675,1012.118318L663.513965,1010.971806L662.198139,1010.262779L661.521796,1009.146440L661.584605,1007.683129L662.519536,1005.910562L664.336620,1008.784383L665.118511,1010.353294L665.753660,1012.118318L677.361611,1012.699116L680.473525,1013.513743L679.878616,1011.545062L678.836493,1010.338208L677.466531,1010.081751L675.908042,1010.971806L676.566798,1007.517186L678.884448,1006.234904L684.939007,1005.910562L684.578457,1006.581875L684.418528,1006.717646L684.218860,1006.762903L683.725754,1007.177759L685.371446,1009.327468L687.075799,1008.678783L688.795523,1006.959017L690.513938,1005.910562L692.003073,1006.461189L694.095885,1007.909414L696.055171,1009.614095L697.223461,1010.971806L698.504295,1009.131354L701.103297,1006.793074L702.120050,1003.873996L703.364177,1003.828739L704.839517,1004.643365L706.054556,1005.910562L707.974204,1003.956967L709.784372,1003.609996L713.973803,1004.530223L713.652925,1005.359935L713.176611,1007.487015L712.849051,1008.331813L715.256291,1008.889983L717.426840,1007.939585L721.883788,1004.530223L723.071662,1006.129304L724.227617,1007.004273L725.292074,1006.989188L726.238733,1005.910562L728.485099,1007.132502L730.242480,1006.544160L731.987785,1005.276964L734.157904,1004.530223L738.823125,1007.268273L741.828519,1008.173413L743.188582,1006.544160L744.713027,1005.993533L748.123822,1007.132502L751.699772,1008.942783L753.746464,1010.277865L756.445102,1011.635576L759.400190,1010.911464L762.210828,1009.078554L764.389555,1007.177759L762.072370,1004.530223L759.994971,1005.548506L757.287010,1005.737077L754.733596,1005.050678L753.146553,1003.383711L755.010335,1002.787827L758.830106,1002.116514L760.637821,1003.142340L762.579741,1003.511939L764.363179,1003.202683L765.635709,1002.116514L767.596870,1002.900970L768.969218,1001.792172L769.771388,999.551949L770.002074,996.942127L771.113042,996.942127L771.023261,998.858008L771.220165,1000.411833L771.656747,1001.860058L772.332700,1003.383711L772.799701,1002.614342L773.779039,1001.792172L774.558797,1000.970003L774.967072,1003.421425L776.467472,1005.239249L778.394619,1006.491360L780.123154,1007.177759L782.677177,1007.539815L784.367112,1007.449301L785.896020,1008.173413L787.933740,1010.971806L789.164499,1010.971806L791.242106,1009.795124L793.995217,1010.473979L796.522839,1010.730436L797.990373,1008.331813L795.158657,1006.913759L792.702087,1003.941881L788.574695,997.636068L785.093520,994.822589L784.616313,993.774135L785.217835,992.114710L786.588715,991.828082L788.124560,992.340995L789.194245,993.148079L790.965016,992.416424L792.747474,992.650252L794.109577,993.638364L794.659311,995.094131L795.014078,997.786925L796.879912,1003.956967L798.033815,1006.182104L800.133777,1007.577529L801.149006,1009.191697L798.988741,1012.118318L797.197898,1012.880144L792.808178,1012.201289L790.266956,1012.118318L790.717709,1013.106429L790.994072,1014.954425L791.377969,1016.146193L785.456258,1012.563345L781.779994,1010.941635L780.115790,1011.545062L778.991524,1011.514891L773.347788,1008.897526L771.093486,1008.331813L771.091343,1009.583924L771.854604,1010.639922L772.045320,1011.937289L771.604358,1013.038544L770.532447,1013.513743L769.162888,1012.978201L767.994262,1011.658205L765.624962,1008.331813L763.843837,1011.137749L760.820475,1012.872601L757.373648,1013.264829L754.341983,1012.118318L756.769609,1016.297050L761.875986,1018.039445L773.309432,1019.721498L780.653350,1024.232114L782.841078,1024.895884L789.487847,1024.639427L792.654079,1025.001483L794.607981,1026.276223L795.832138,1026.276223L796.294991,1023.945486L797.210797,1021.275322L798.518675,1018.876700L800.197753,1017.307790L798.976351,1019.721498L800.603770,1021.290408L800.867836,1022.557604L800.479840,1023.870058L800.184325,1025.589825L800.741643,1026.540222L802.031553,1027.022964L807.192454,1028.184560L814.802744,1028.697473L856.309938,1038.684188L867.080676,1039.287614L873.036337,1033.879401L870.628485,1033.464546L868.573815,1032.657462L867.611250,1031.163981L868.586137,1028.697473L865.980199,1027.264334L865.703100,1025.650167L866.868377,1024.956226L868.589609,1026.276223L869.364161,1024.322628L870.404643,1022.497262L871.664318,1020.913266L873.056482,1019.721498L874.707252,1019.125614L877.208388,1019.374527L878.752992,1018.574986L878.754785,1017.307790L876.945034,1017.428475L875.182282,1017.247447L873.506375,1016.817505L871.943916,1016.146193L873.061594,1016.146193L872.330149,1015.889736L870.834865,1014.773397L872.027464,1013.559000L872.674571,1012.314431L872.676456,1011.001978L871.953347,1009.583924L876.584550,1008.950326L877.792391,1006.355589L876.959592,1002.553999L875.329127,998.330009L877.399253,997.500297L880.542748,995.041332L882.126938,994.407733L883.550413,994.513333L885.790830,995.546702L887.154258,995.780530L888.631681,995.373217L889.843712,994.460533L890.816239,993.555392L891.575188,993.148079L894.302685,993.148079L896.204747,993.532764L897.293910,994.860304L897.662615,997.636068L897.258416,1001.294345L896.139168,1002.463485L894.402171,1002.946227L892.158040,1004.530223L891.183775,1006.672389L890.697162,1012.156032L889.915154,1014.773397L888.916371,1015.391909L886.377916,1018.062073L884.617465,1020.988694L885.952772,1022.376576L888.565336,1023.854972L891.574285,1027.385020L894.123278,1031.616551L895.375933,1035.139055L898.118958,1033.721002L904.599403,1033.517345L907.860817,1032.483977L910.558927,1034.807170L919.202165,1039.363043L921.755930,1040.207840L924.990881,1039.061329L927.363119,1036.164881L928.192861,1032.431177L926.853697,1028.697473L931.151444,1028.803073L937.858859,1027.905475L943.286754,1028.712559L943.692878,1033.879401L950.200617,1034.166219L953.957165,1033.553137L956.291483,1031.670785L957.867257,1028.179093L956.973053,1026.986457L954.820980,1024.902937L954.306348,1024.261117L954.173204,1022.570353L954.870730,1018.695484L954.957143,1017.110093L954.233106,1014.978676L951.956391,1011.266657L951.494850,1008.694587L952.581953,997.223250L958.089107,998.363199L960.260970,997.912967L961.885937,995.580382L962.303826,992.347332L961.606636,989.013699L957.160365,977.192711L954.279161,963.925232L953.902753,954.211711L953.289850,951.218146L952.008889,948.789766L949.916343,946.869094L938.275886,943.473194L935.617590,944.670620L930.290844,948.310796L927.092843,948.761028L923.231373,946.323068L922.355097,941.533363L924.022276,929.947067L913.402824,930.972064L915.033038,909.820726L914.624352,903.119928L912.640495,896.409551L906.362568,883.386342L903.998905,876.762179L899.091466,845.844630L895.627796,835.498866L890.826109,830.536732L890.348676,829.882233L888.411834,827.227046L875.623030,761.747000L875.856134,758.633693L877.037123,756.689074L880.050073,754.806721L880.938552,753.594926L884.163450,743.421599L883.785573,742.185855L881.590054,737.381785L879.551974,734.407380L878.845964,732.529817L879.085115,725.829025L881.832244,718.692371L900.733931,682.175703L902.749366,680.755628L902.860808,680.677104L903.045166,680.547206L911.140450,677.568014L911.969760,676.255637L913.335281,666.982783L914.165468,665.114801L921.669012,654.529573L923.126481,650.927722L923.248707,648.398763L922.525305,646.894798L921.434828,645.362096L920.409373,642.775661L920.260994,640.601140L928.345812,583.785819L930.539443,576.275588L942.377714,547.748220L943.012481,546.531640L944.657146,544.280489L945.287682,543.063909L945.331513,542.058076L944.858778,539.653655L944.995290,538.724456L946.402462,537.220496L950.038456,534.749020L951.340255,533.168425L951.883521,531.118441L952.614732,517.276264L953.093592,515.915995L954.118785,515.781884L955.205703,516.596129L956.030723,517.649859L956.257533,518.243779L958.927411,515.714828L966.391848,506.010939L969.398789,503.596941L979.147658,499.918469L982.516411,497.988229L984.131282,495.588601L984.288109,492.355570L983.240578,487.920330L981.089522,482.584632L980.696751,480.242481L981.392996,477.320780L982.535575,474.844519L983.583207,473.742894L984.932611,473.838688L987.005840,474.940313L988.886441,475.165427L991.114518,474.317655L998.451674,469.436978L999.577743,466.611072L992.148057,414.688681L984.723893,362.766395L983.953090,359.859076L982.476353,360.634999L982.440527,360.568753L981.652671,359.111890L982.078197,356.750592L983.285890,355.519651L985.016038,354.437190L985.197332,351.903465L981.897543,338.971412L981.700647,335.786296L981.332443,334.191344L980.422737,333.750697L979.327127,333.568690L978.359094,332.735292L975.828311,324.037295L975.666326,320.248687L974.617835,317.269529L970.500142,314.793283L966.379971,313.749141L962.199357,313.519239L959.941021,313.097750L958.661585,312.087136L957.618578,310.860987L956.027296,309.840794L957.566243,307.220860L958.245915,304.313548L958.574844,295.040807L959.260422,293.498544L962.740452,289.475249L965.592892,282.908658L967.503844,279.546334L972.684343,276.490548L974.637603,272.965378L974.863078,269.444998L972.303874,267.850051L969.456538,267.141185L967.150814,265.230123L965.875070,262.370713L966.151226,258.874284L967.832880,256.402835L970.059881,255.238955L972.000734,253.854753L972.840828,250.698388L972.850007,245.698018L972.046733,242.589551L971.838720,241.147874L972.515390,235.227898L972.343320,232.588816L970.141416,229.437245L965.033040,234.906994L961.029239,244.380871L957.964492,247.388756L954.063357,247.048693L950.348994,243.825274L934.134021,219.426938L926.060765,201.652670L923.155292,193.021786L921.180309,188.711136L918.629543,185.794263L915.539360,184.970450L909.924298,186.833609L906.984321,186.675551L904.142579,183.998160L902.551418,179.682722L900.528371,170.754894L897.274059,166.262244L893.497972,165.304323L889.837856,165.218110L886.999059,163.326217L886.291593,159.619064L886.655545,155.246157L886.609099,151.673115L884.624311,150.303289L882.096685,152.324500L876.562473,161.156526L874.307277,163.680647L870.414298,164.111712L868.777350,161.702541L868.500013,157.913965L868.643677,154.216393L867.922276,152.951938L866.235724,153.699116L864.320291,155.035415L862.836304,155.610167L861.099268,154.589981L858.246659,151.625219L856.193451,150.743932L830.558019,148.353922L820.808084,149.829119L818.025821,149.168154L816.290025,147.779170L815.228450,146.270446L813.989542,144.934148L811.793176,144.129496L811.240290,144.560559L809.722651,146.663193L808.853514,147.228366L807.826462,146.998465L805.703194,145.638219L804.486522,145.446635L796.565459,146.548243L794.187717,147.391212L792.533317,148.622139L789.913293,151.778486L788.524379,152.942359L785.387824,153.996071L774.592107,154.225972L774.279085,154.330089L771.265785,155.332370L765.116236,159.805858L761.617419,160.802096L759.191332,162.253346L758.496042,165.285165L757.452380,167.885920L752.224855,167.972133L750.871309,168.470252L748.365337,169.825710L748.195371,170.333409L748.133582,171.300909L747.810902,172.177407L746.799241,172.426466L745.848256,172.091194L744.149617,171.032691L734.883496,167.952975L732.077032,168.345722L729.129466,170.841107L724.431675,178.231470L721.418419,180.104207L715.274070,180.995075L712.460943,182.130212L710.284802,184.338222L711.008847,184.501068L712.910691,185.219510L707.955868,191.043677L707.053424,192.734410L707.023163,194.367668L707.494287,198.745374L707.078561,201.077916L704.953814,205.728632L703.882588,207.145360L703.870968,207.160727L699.453777,205.096403L696.953712,204.330064L696.456024,207.256519L696.480388,210.297926L695.927578,211.969502L693.698396,210.772098L692.609255,208.755669L691.229437,202.668068L689.780237,199.961936L685.827808,198.898642L679.983768,199.214756L674.686081,198.611265L672.381339,194.779574L672.762926,191.383739L674.379079,186.584549L674.751590,183.394669L674.371184,182.484643L673.395723,181.919469L672.120291,181.632093L669.158972,181.632093L668.643910,181.986524L668.510966,182.714544L667.992983,183.969422L667.184359,186.517495L667.100456,189.012882L666.479226,190.928726L664.109322,191.680695L662.220346,190.919147L659.886850,186.967718L658.047446,185.238669L655.933101,187.705318L654.008441,188.845245L651.989609,189.156570L649.592705,189.146991L649.768078,189.616373L649.187312,190.717983L648.113178,191.968072L646.791396,192.945153L645.458049,193.596540L645.340572,193.452852L645.385085,192.734410L644.562919,191.680695L642.367355,190.660508L641.493735,189.884591L641.144643,188.462076L640.915292,186.507915L640.312762,185.296144L638.431981,183.394669L637.518134,182.072737L636.982330,181.071708L636.167332,180.420321L634.487438,180.171262L632.864924,180.391584L632.285709,181.014233L632.556599,181.871573L633.480109,182.819916L631.001411,183.346773L628.857950,179.452821L626.694544,180.171262L626.232083,178.681694L625.922871,177.953673L624.478860,176.492843L624.483615,175.113436L626.067005,175.237966L627.453636,175.008065L630.064630,173.959141L628.525233,170.841107L627.739412,166.635833L626.422222,163.853073L623.305589,164.978630L622.223692,161.175685L619.919388,158.862307L616.684454,157.703223L612.869538,157.387109L611.514665,156.999151L610.957568,156.127444L610.223577,155.255736L608.371751,154.858199L607.113581,155.705959L606.248385,157.377530L605.321660,158.584510L603.912670,158.019337L599.137499,153.009413L598.942920,150.906778L601.312135,143.305685L601.013142,142.132233L599.251590,137.792858L597.433570,135.105895L596.711845,133.231397L600.165777,133.092499L600.793996,130.587547L599.677744,127.191734L597.864571,124.370671L595.894735,122.938587L593.755433,121.789088L592.014341,120.012154L591.201382,116.664239L589.574295,118.216062L587.663167,119.140451L585.853450,118.843497L584.535084,116.664239L586.758696,115.509951L585.698884,115.136364L584.761668,114.638248L583.693443,114.264661L582.324896,114.245502L583.808787,112.708048L587.633840,111.218490L587.336105,109.762459L583.229220,106.711499L582.259433,104.819617L583.375360,101.476494L579.012096,101.682446L579.112420,99.666035L580.518988,96.313334L580.074561,92.505624L579.594059,93.731755L578.844159,94.933937L577.872089,95.872694L576.720895,96.303755L574.738387,96.102593L574.556278,95.278786L575.179402,94.201133L575.608553,93.195323L575.647809,83.012695L574.454289,80.253903L574.342086,80.170440L571.775763,78.261443L569.107320,78.012385L567.885069,80.479013L566.427531,80.661017L558.440179,75.358964L555.835023,76.149243L548.303432,74.899166L545.558734,74.784216L544.334272,75.641549L543.503862,76.925153L542.471867,78.079439L540.583581,78.577554L538.722294,78.644608L537.864024,78.481763L537.150425,77.945331L536.310051,77.523849L535.700831,78.242284L535.081863,79.286410L534.313262,79.851579L531.021263,79.707892L528.287561,78.951140L526.061335,77.657957L524.316922,75.928923L523.816319,74.803374L523.267397,73.146184L522.566304,71.637470L521.600634,70.986089L520.093668,70.909456L518.966246,70.684346L516.654584,69.726433L516.482797,66.503054L514.515195,61.828438L511.661605,57.632779L508.823425,55.793587L504.410963,53.911288L500.835400,51.272238L498.776030,50.462802L497.201285,50.520277L492.674245,51.818248L483.584856,52.824057L462.587781,58.020734L450.861081,64.956025L448.367873,67.001169L446.476139,70.104808L445.787306,73.481454L446.432335,83.635339L444.521996,85.239845L436.939577,82.255943L435.020385,83.941872L434.418403,88.578176L433.272120,92.534362L431.319239,96.073856L428.238468,99.469663L413.668429,99.579823L401.378734,94.656142L399.196345,93.109110L396.008300,88.721863L394.254504,87.390362L391.775957,87.965111L391.269426,81.092078L391.710788,78.577554L393.735219,76.072610L394.129592,76.369563L394.900686,77.135894L396.001578,77.610061L397.343132,77.049682L397.701363,76.082189L397.479760,74.860849L397.089138,73.768828L397.007962,73.127025L401.005984,68.145876L398.599801,65.928306L399.121179,62.518136L401.607125,56.770658L398.963120,53.259907L398.407492,51.478189L398.768765,49.878475L400.527592,46.540150L400.810681,45.443340L400.086891,43.623306L399.138633,42.967136L397.824919,43.024611L395.954229,43.350301L394.853075,42.976715L393.923825,41.875116L393.062892,40.577145L392.225588,39.619233L390.761597,39.418071L389.395667,39.829973L388.539126,39.370175L388.611631,36.577861L389.385068,35.078728L392.378677,32.353468L393.455359,30.816019L393.684887,28.627190L393.232733,26.390466L392.302372,23.818472L393.606935,22.161285L395.387725,21.246479L397.026248,20.154459L397.904061,17.956052L397.364029,16.485658L395.889224,15.087106L394.126603,14.019035L391.060091,12.764171L390.604372,11.284197L391.458657,3.635274L391.244098,1.063282L389.599487,0.000000L385.682284,0.593905L381.834432,2.466622L378.783827,4.818294L375.601863,6.494640L371.393634,6.341374L368.054738,5.737889L364.509705,5.948630L361.698712,7.486078L360.545185,10.853137L360.205324,18.123687L361.034318,20.671732L362.921728,22.017598L364.936770,23.100039L366.140354,24.838649L365.537809,29.168411L362.478532,31.491347L358.483880,32.295994L355.066954,32.056515L346.211761,30.078427L343.581805,29.063040L337.001799,25.087706L333.672733,22.534870L331.235937,20.020352L327.952400,13.616712L325.822226,12.074474L322.220651,13.405971L322.427941,14.009456L320.115276,18.367954L319.744059,18.521220L318.951373,21.988861L318.588329,25.403817L318.883168,26.979582L319.465786,28.263184L319.912640,29.752737L319.060540,38.187154L317.438354,44.150158L317.708212,47.320849L319.760807,50.936969L320.969612,51.645824L322.759887,52.258888L324.490082,53.097062L325.493512,54.457298L325.458000,56.464126L324.616078,58.097367L323.539438,59.524657L322.825175,60.889683L322.091760,66.850537L321.981891,67.743552L320.589619,69.965911L316.843930,71.330938L313.225328,70.890298L307.107811,66.800007L303.552622,65.516404L299.997135,65.918727L290.380091,70.928614L287.236704,71.407571L278.006240,70.095229L274.331476,70.737031L272.382363,73.069551L268.397032,87.811844L268.746090,90.288052L270.463675,91.959613L272.594625,93.501855L274.141898,95.547003L274.479327,100.279101L272.462995,104.187393L269.062572,107.027611L265.247866,108.550696L261.212901,108.703962L258.339669,105.753584L255.936256,101.572286L253.293721,98.042370L250.549420,96.246280L234.542088,91.198071L221.635971,88.961341L211.380221,88.712284L208.706669,87.917215L207.346717,85.632590L207.228446,81.168711L208.306556,73.596403L207.345693,70.756190L203.650572,70.487974L199.210743,72.365484L197.709404,72.801335L195.587888,72.715123L195.375438,71.570416L195.789703,69.793487L195.573769,67.781869L192.866532,62.623506L192.228741,60.774734L192.120260,59.131913L192.266147,57.182560L192.143651,55.051204L191.271913,52.900690L189.875615,51.195605L188.315752,50.117954L186.424021,49.648576L184.082445,49.801842L180.176897,55.396053L178.897817,56.717972L177.433470,57.316668L174.507783,57.268772L172.864787,57.455565L169.061302,57.048453L163.233072,53.015639L159.853059,53.633493L158.926138,55.185312L158.272698,57.479513L157.436106,59.419287L155.984739,59.946139L154.049688,59.677923L152.607580,60.061089L150.372449,62.125391L150.364949,63.394626L149.630629,63.691579L148.118352,64.544122L150.064238,67.264596L148.197898,70.325129L144.583823,72.743860L141.295177,73.519770L143.423914,76.661727L141.456648,80.402380L141.129366,83.070170L140.211266,84.535778L139.001972,85.397901L137.934899,86.418079L137.350446,88.424909L136.718960,89.837833L132.786943,95.432053L131.203462,96.902452L129.769686,97.975316L128.169948,98.626698L123.988870,99.292449L122.449553,100.403630L119.383960,103.263005L116.427035,104.829196L113.026923,105.854165L109.598793,105.921219L106.549284,104.637613L104.877670,106.730657L103.659630,109.024864L102.810959,111.520233L102.247505,114.207186L99.095693,118.762074L95.333648,121.118547L87.016471,124.619730L83.940061,127.785642L80.616653,132.805124L78.836795,137.457586L80.391294,139.502744L82.441657,140.326555L81.807586,142.132233L79.792109,143.933122L76.287428,145.437056L76.134465,147.075099L76.645462,148.966991L77.226145,150.475715L77.771464,150.849303L78.680878,150.906778L79.614314,151.174996L80.206266,152.209550L80.566240,155.437741L80.813014,156.443557L80.540849,156.884201L79.756013,157.123681L79.271918,157.789436L79.927459,159.475376L80.599797,159.743594L83.659395,159.456217L84.385846,163.422009L78.108748,211.625167L77.887496,213.324964L77.956833,217.410508L78.488937,221.625373L79.245455,224.915842L80.450505,227.875828L89.853915,243.030197L92.565887,246.339828L95.228623,247.906036L98.771931,248.729851L102.428296,248.921437L105.413273,248.605321L108.766646,247.187592L114.990592,243.240940L118.441689,242.426704L125.174816,242.436283L126.017224,244.045597L121.639502,258.816808L121.093945,263.098737L115.183862,279.196691L115.324836,285.945287L123.598944,289.647676L125.623895,289.254925L127.271570,288.479004L128.626965,288.785541L130.835676,293.527282L132.595055,295.567667L136.219746,298.752777L142.991357,303.039504L145.033543,305.860602L144.801034,306.054607L142.180632,308.241054L138.282880,308.902024L135.062876,308.902024L131.925029,309.313933L117.247581,317.743703L114.779269,320.670176L114.770839,320.670176L114.770739,320.689334L114.762309,320.689334L113.154070,325.182020L112.338857,329.559756L111.600378,338.655295L108.541481,354.724569L110.147764,360.443413L117.604715,362.996298L121.219303,363.465684L130.982676,366.808862L131.708294,366.703490L133.428975,365.721611L134.385777,365.750348L135.444116,366.550221L136.735109,368.882782L137.509902,369.907768L140.572261,372.949199L141.694323,374.515416L145.558723,382.518931L147.079255,384.525797L151.611427,387.974351L152.767257,389.574096L153.602058,393.041809L153.179750,400.154453L153.531900,404.067606L155.527148,411.774172L155.503319,414.992825L154.308892,419.653167L153.781774,424.088396L154.800259,428.044660L158.153286,435.914081L148.634709,437.087549L144.134518,436.388258L140.444785,433.753941L135.373233,422.134213L131.907731,416.822476L128.328977,417.478660L127.716584,420.280613L128.131783,423.341209L127.823971,425.946786L125.042462,427.383686L122.310603,427.278313L119.662719,426.382646L117.338106,424.917008L115.558990,423.140043L114.306101,420.682945L113.442209,418.015102L112.324280,415.567584L110.309333,413.761881L107.984255,413.282915L105.477856,413.656509L100.604980,415.088618L99.105223,414.829976L96.236713,415.098197L94.900586,415.002404L93.836784,414.413276L92.066410,412.631521L90.677606,412.114238L87.370515,412.401617L81.935949,414.829976L78.602983,415.222729L72.765821,413.886413L70.487200,414.231269L62.523990,421.324760L61.614964,422.632338L61.620449,424.859533L62.462061,426.847243L63.590162,428.887641L64.429978,431.239367L64.672083,435.051941L62.603107,445.608368L62.585624,449.080878L62.947685,452.558178L62.456253,454.689581L59.775185,457.855553L59.537692,459.804949L73.041799,469.872839L88.914286,475.366593L90.475924,475.117530L100.329167,471.314530L102.353618,471.285792L102.488315,473.091499L101.522822,475.663553L100.297277,477.938648L99.291751,483.580884L99.345862,486.373265L100.244291,489.002797L103.279566,491.067147L105.979590,494.467817L107.951101,498.539042L108.363321,500.411772L108.843050,502.591109L105.950860,502.332466L103.975149,500.924301L102.404957,499.391605L100.804960,498.812054L93.966217,500.071739L91.478196,499.975945L91.774335,501.556539L91.483045,506.039677L89.778498,513.252933L81.588572,527.171743L81.173786,534.614909L82.379592,536.540361L86.007519,540.103885L86.833308,542.125131L86.508251,543.983528L85.579631,545.008521L84.504748,545.736553L83.740640,546.761545L83.093967,549.740728L82.474606,555.919422L81.685920,558.601645L76.406294,565.402999L76.293049,566.169349L76.740235,567.989429L76.635434,568.755779L75.965358,569.512550L74.112060,570.690813L73.383048,571.418845L70.095890,576.112739L69.309846,578.220201L69.235824,579.628370L69.753509,582.636294L69.671553,583.939089L64.952560,589.878303L59.025626,586.956593L52.865822,581.534665L47.397021,579.954068L41.590958,581.908261L38.551979,582.186063L34.669074,577.156891L30.539914,579.570893L23.085899,587.339768L29.894007,591.209836L32.808213,597.733394L36.088637,610.828408L37.980234,628.799334L38.841431,632.391604L39.911543,634.604442L42.676166,639.078017L43.720007,641.520761L44.976785,647.268395L45.738185,648.734041L47.683754,651.502485L48.335517,652.958553L48.414404,654.184715L48.057819,656.531666L48.187530,657.719510L48.756263,658.878617L51.149461,661.618323L52.145261,663.543781L52.584916,665.268072L52.792709,669.789545L55.508623,687.463530L55.075471,691.927529L53.843890,693.670979L50.496815,696.602275L49.603531,698.192455L49.386581,701.478189L49.575885,704.524438L49.411301,707.426996L47.303998,712.542396L48.099924,713.931409L49.429348,714.937246L50.222403,716.019718L50.333959,718.529521L50.052616,721.125539L48.661044,726.691171L46.594955,732.065216L44.247464,736.126883L29.482929,754.671739L26.252232,758.729487L14.403475,769.309942L12.169924,772.332244L11.790062,772.313085L9.063984,774.023010L8.886429,774.080486L9.062499,774.367868L8.316824,776.949518L7.967228,777.744609L7.213525,778.266687L5.244655,778.630704L4.466132,779.033039L0.422257,784.790263L3.178204,784.991431L4.768165,785.374607L8.694986,785.240496L10.583657,785.867947L12.399705,787.688034L17.223663,795.030651L20.224783,796.184969L22.267713,794.293036L23.565681,790.849239L24.323202,787.419811L25.123496,785.858367L26.150333,786.634299L28.030011,789.407538L33.142319,792.506477L35.283948,795.265346L35.051489,796.338240L33.839106,797.516507L32.981937,800.581918L33.270176,802.334950L34.725365,805.721271L35.091006,807.143813L34.264961,808.824999L32.762214,809.768571L32.179103,810.898942L34.112098,813.116575L35.876473,811.186324L37.881306,810.324177L39.882301,810.391233L41.609810,811.253380L43.746116,809.217755L45.431819,809.979318L47.002535,812.014943L48.726394,813.777554L49.520546,813.681760L50.064422,812.838772L50.750753,812.264007L51.938379,813.001622L52.751382,814.496010L52.930976,816.014346L52.925774,817.293198L53.167546,818.059550L54.651268,818.672632L67.300593,821.920052L69.243783,822.734302L71.012455,823.902990L72.098108,824.827403L73.480914,825.354271L76.132658,825.315953L78.381384,824.693292L82.038483,822.408602L83.950448,821.522507L91.555184,820.325081L95.980519,820.210128L98.806511,820.947742L101.466924,823.002526L111.994699,825.833241L112.872453,825.957774L113.574612,825.632074L114.339770,825.392589L115.347416,825.775765L115.623722,826.388847L116.046072,828.549004L116.608453,829.435100L123.845662,836.035313L126.365789,839.541377L126.761648,842.046394L124.572650,849.197424L123.797877,853.091454L123.376653,857.296816L123.801729,861.042365L125.574045,863.624017L125.644856,862.757080L127.219267,861.808718L129.265398,861.186056L130.734478,861.301009L132.316081,862.948668L132.960055,864.649014L133.476431,868.873534L133.997610,869.534513L134.874859,869.831475L135.709207,870.310445L136.076442,871.493503L135.726520,872.480182L134.228170,873.414175L133.861850,874.266742L133.724157,879.535418L133.888116,880.881326L136.005390,883.903630L142.444235,887.716235L144.429453,889.933869L147.318233,894.546356L149.603498,893.224397L151.525627,889.545903L153.341941,887.098363L154.394227,888.061094L156.167922,890.403260L158.575670,892.592156L161.470941,893.090285L161.713450,893.770423L165.076079,895.853945L165.523357,895.959319L169.047709,897.707561L169.871175,898.914567L168.538254,900.844818L169.792553,902.037455L171.943985,905.117235L173.107077,905.835691L175.002738,904.801115L177.032456,902.870864L178.246474,902.315258L177.694959,905.433356L180.227110,905.950644L181.325160,908.369446L182.118491,910.979835L183.668864,912.076677L184.940776,910.663714L185.762225,907.622251L186.288170,902.123670L191.516010,904.705321L192.228620,911.133106L191.137352,918.959484L190.961952,925.760865L193.928060,940.292830L196.049415,945.152300L199.502620,953.062182L201.545414,956.050958L198.117768,955.413927L196.995191,957.645929L197.769082,961.161572L199.963220,964.389833L196.718498,964.605370L195.654250,964.547893L197.304244,966.347781L197.581821,966.650573L196.706559,968.188068L194.791546,969.917151L193.599802,972.623334L193.686445,979.601932L192.944934,981.565710L190.659988,980.195855L190.692419,983.151102L191.323533,986.460787L192.445151,989.631571L193.974529,992.136585L196.394205,993.678870L198.110495,993.305273L199.326152,993.592655L200.210340,997.069979L200.629557,1000.647887L200.470696,1002.731408L199.509730,1004.652078L197.522487,1007.789333L197.121353,1009.029866L196.511562,1012.080906L195.688242,1013.240014L194.097221,1014.039894L193.719334,1013.326229L193.715435,1011.927636L193.195543,1010.715841L193.021268,1009.748321L193.852264,1008.828699L194.116540,1008.105453L192.250546,1007.731857L191.843308,1008.249145L187.610384,1010.830794L186.388130,1012.540718L185.689806,1014.221903L183.946204,1020.333562L185.261202,1029.069977L185.124348,1032.188072L184.150556,1035.445069L179.718992,1044.502392L177.419787,1043.467817L174.652689,1043.410340L171.969577,1044.808933L169.905375,1048.161723L169.506240,1051.375611L170.747489,1062.097450L170.772839,1062.097450L170.531851,1066.082476L171.664416,1068.640173L173.177657,1071.078127L174.104165,1074.670398L174.103648,1077.481948L173.461625,1077.414893L172.104602,1076.318053L169.950565,1076.059409L164.941998,1080.532983L164.860342,1082.281221L166.008229,1088.009695L165.773390,1090.102790L164.840061,1093.934545L164.813450,1095.374801L164.809442,1095.591778L165.622384,1097.732771L166.860438,1099.069095L168.141530,1100.161145L169.117595,1101.507049L169.551794,1103.173861L170.239918,1112.801142L169.398959,1152.474144L169.630539,1154.140955L170.064846,1155.850874L170.354809,1157.781119L170.027850,1162.475013L171.182971,1166.215759L171.405947,1167.954416L170.893282,1169.788866L169.175487,1173.247020L168.950084,1175.124578L169.831071,1177.303885L175.233465,1181.483729L175.237938,1181.482603L177.907858,1181.143177L185.011414,1182.727168L188.950439,1183.111851Z "/></g></svg>