<?xml version="1.0" encoding="utf-8"?><!DOCTYPE svg  PUBLIC '-//W3C//DTD SVG 1.1//EN'  'http://www.w3.org/Graphics/SVG/1.1/DTD/svg11.dtd'><svg enable_background="new 0 0 1000 1406" height="1406px" pretty_print="False" style="stroke-linejoin: round; stroke:#000; fill: none;" version="1.1" viewBox="0 0 1000 1406" width="1000px" xmlns="http://www.w3.org/2000/svg" xmlns:xlink="http://www.w3.org/1999/xlink"><defs><style type="text/css"><![CDATA[path { fill-rule: evenodd; }]]></style></defs><metadata><views><view h="1406.6797607" padding="0" w="1000"><proj flip="auto" id="robinson" lon0="-159.786600532"/><bbox h="217.85" w="154.98" x="-2443.11" y="150.02"/></view></views></metadata><g class="" fill="black" id="country"><path d="M987.906965,1404.679761L989.053966,1404.547810L990.500519,1404.116770L991.375623,1403.325066L990.820195,1402.128714L988.282306,1399.577676L987.005516,1398.557262L985.644245,1398.047056L984.797123,1398.363736L984.018081,1399.269792L983.492664,1400.527717L983.371214,1401.803237L984.394563,1403.061165L985.381256,1403.967226L986.484523,1404.495029L987.906965,1404.679761Z M800.284459,1328.810641L799.721123,1326.620382L798.731886,1324.984285L797.010539,1323.928739L795.008967,1323.400966L793.170665,1323.313004L790.851007,1323.629668L790.274277,1324.333365L790.455363,1325.635205L790.384260,1327.658336L789.882819,1328.467588L791.397692,1329.628690L795.046333,1329.312026L797.067558,1330.314795L797.368370,1330.235629L800.063099,1330.684237L800.355380,1329.813411L800.284459,1328.810641Z M999.577810,1213.675235L999.644300,1211.880701L998.216459,1210.420439L996.779775,1209.954211L995.952447,1210.596374L996.356805,1212.478879L997.581217,1214.097478L998.770154,1214.466940L999.577810,1213.675235Z M923.924298,1196.486234L923.779043,1194.481544L921.671632,1193.109213L919.298518,1192.167933L917.993973,1192.563798L919.100280,1195.184287L920.872198,1196.802924L922.713609,1197.233973L923.924298,1196.486234Z M901.237776,1176.324326L900.881447,1176.025221L900.399429,1175.858073L901.867914,1177.010509L901.237776,1176.324326Z M899.072305,1175.277457L899.494859,1174.635258L898.814672,1175.057526L898.754809,1175.356632L899.072305,1175.277457Z M954.639649,1177.943012L954.095435,1175.198281L953.146761,1172.224811L952.797206,1169.937518L952.238586,1170.588517L950.764845,1173.113335L950.536329,1173.984262L951.121636,1175.479793L951.863938,1176.289137L952.665350,1176.975320L953.404253,1178.048579L953.748775,1179.526506L954.639649,1177.943012Z M824.456906,1114.794025L823.958339,1113.738273L823.356870,1113.175204L822.508155,1113.518324L823.244620,1114.512491L824.687243,1115.568243L825.966693,1116.104916L826.337616,1115.761797L826.425939,1115.550647L826.428482,1115.233921L825.180272,1115.568243L824.456906,1114.794025Z M735.244113,1068.506870L734.117017,1068.709233L733.524086,1069.694652L733.311369,1070.407321L733.380115,1072.492533L733.833179,1073.829882L734.743811,1074.832892L735.765742,1074.885682L736.120182,1073.829882L735.276503,1071.471924L735.222829,1071.093594L735.654636,1069.087564L735.964013,1069.184346L736.284652,1069.888217L736.713382,1070.284144L736.451221,1069.404306L735.244113,1068.506870Z M1.458871,210.010173L1.948951,209.165487L1.545942,209.042304L1.157880,209.059901L0.355700,209.218280L0.693512,210.010173L1.049656,210.274138L1.458871,210.010173Z M453.738205,155.070320L452.046394,154.049655L452.285834,154.392809L453.153953,155.193503L453.157821,155.193503L458.271513,159.592921L453.738205,155.070320Z M440.144961,117.815995L440.552348,116.848120L438.944535,117.675213L439.136430,118.704680L440.144961,117.815995Z M719.319952,0.000000L718.874203,0.668723L720.066242,1.935776L721.955538,3.167633L723.603582,3.677974L725.612931,3.677974L725.543565,3.009252L719.319952,0.000000Z "/></g></svg>