<?xml version="1.0" encoding="utf-8"?><!DOCTYPE svg  PUBLIC '-//W3C//DTD SVG 1.1//EN'  'http://www.w3.org/Graphics/SVG/1.1/DTD/svg11.dtd'><svg enable_background="new 0 0 1000 850" height="850px" pretty_print="False" style="stroke-linejoin: round; stroke:#000; fill: none;" version="1.1" viewBox="0 0 1000 850" width="1000px" xmlns="http://www.w3.org/2000/svg" xmlns:xlink="http://www.w3.org/1999/xlink"><defs><style type="text/css"><![CDATA[path { fill-rule: evenodd; }]]></style></defs><metadata><views><view h="850.29757081" padding="0" w="1000"><proj flip="auto" id="robinson" lon0="-71.4999697157"/><bbox h="635.9" w="748.73" x="-1569.14" y="293.55"/></view></views></metadata><g class="" fill="#000" id="country"><path d="M986.657457,848.297571L987.231330,848.254472L987.605908,847.997924L987.873309,847.302082L987.641939,847.059844L987.126072,846.916137L983.473066,846.708778L982.401428,846.948985L982.288338,847.265132L982.481173,847.573044L982.797525,847.733149L985.038894,847.907615L986.657457,848.297571Z M990.857240,845.883346L991.078667,845.587629L990.978764,845.187143L989.673573,844.028597L988.295243,842.417593L987.695875,841.938692L987.274013,841.850305L986.951019,843.017683L986.102886,843.467694L985.760215,843.923818L985.703563,844.431249L985.921685,844.788673L988.917007,845.376095L989.716195,845.655399L990.334675,846.049678L990.857240,845.883346Z M999.175193,834.349153L999.411278,833.519224L997.749212,833.008420L997.481879,833.090811L996.747017,833.601606L996.513714,834.011434L996.514847,834.460347L996.803166,834.876270L997.262813,835.209804L998.268114,835.271566L999.175193,834.349153Z M988.466270,832.761234L988.016577,831.947484L987.177631,830.857438L984.105195,829.043278L981.065450,828.859785L973.278509,828.030878L969.432137,828.024691L966.704938,829.107189L969.654481,831.020241L971.256218,833.158784L972.164995,833.879635L972.785214,834.180297L978.124366,834.991569L978.602281,834.925684L979.225083,834.641546L980.497318,833.566594L981.194161,833.282367L981.851818,833.259710L982.406803,833.350336L982.921329,833.760188L983.479996,834.505648L984.310062,835.259214L985.480438,835.687411L986.734418,835.460966L987.765710,834.633310L988.335100,833.568654L988.466270,832.761234Z M942.982714,827.806098L939.630610,827.024432L940.756073,830.805917L940.814931,831.858889L940.322500,832.275062L940.619369,832.627336L942.410106,833.189680L942.915674,833.537760L943.396864,834.153527L944.047368,834.505648L946.252033,834.134993L946.719034,834.347094L947.407324,835.810921L947.795577,836.284345L948.566142,836.685685L950.535972,837.338038L951.920230,838.457301L952.837084,838.883119L955.961273,839.568041L956.927850,839.526908L953.969647,837.305114L952.318279,835.858266L952.111481,835.294212L952.046194,833.014599L953.825085,833.142306L954.624854,833.385350L956.920327,834.670373L957.665593,834.911272L959.074703,834.548889L959.471346,834.604484L959.700605,835.069805L959.795017,836.842094L960.030391,837.331865L961.118302,838.453187L961.849321,839.008594L963.058482,838.702100L964.720591,839.051789L966.332440,839.004480L968.800255,839.827171L971.068684,840.168541L971.955992,840.507827L973.765302,842.195620L975.262000,842.871779L976.643837,843.227283L977.136606,843.071112L976.653796,841.899638L975.785023,840.435859L974.890139,839.600947L973.467196,838.728842L970.192670,837.037598L969.617867,836.533386L969.448090,836.016764L969.605615,834.898919L968.486527,834.145290L967.372102,833.558356L963.883010,833.265889L963.215553,832.798313L963.207207,832.223558L965.659377,830.401970L963.921745,828.663913L960.678173,828.626799L957.165866,829.890800L942.982714,827.806098Z M921.206930,826.727404L919.599549,826.717090L917.582388,826.230249L914.558012,826.021881L914.005593,826.122972L914.055800,827.177064L914.467105,827.694734L914.969846,828.055624L915.301739,828.127798L916.144075,827.694734L916.362801,827.241003L916.734239,827.127563L917.954848,827.255440L919.764096,828.202033L922.419516,829.313349L922.966853,829.659929L923.334224,830.352504L923.959108,830.822404L926.185865,831.201584L927.595089,831.714661L928.173214,831.772353L929.112780,831.306677L929.801672,831.246918L930.857957,831.877432L931.286435,832.363649L931.465737,832.919846L932.737460,833.251471L933.803035,833.010479L935.050208,831.916579L934.829241,830.906898L931.086245,827.591618L929.270919,827.853529L928.178174,828.366996L926.035177,828.517519L925.264662,828.832982L922.991437,828.311322L922.594075,828.065934L921.206930,826.727404Z M906.478098,809.050230L903.013077,807.421813L900.183572,806.727571L894.959469,805.910910L894.107187,806.684048L892.994980,807.057092L892.986377,809.367137L895.657175,810.872634L898.502492,812.748048L899.814585,814.732255L901.749285,814.215086L902.229057,813.226081L903.691105,813.132962L905.755916,813.561293L907.023667,813.255051L910.623709,815.001157L913.887518,816.281313L914.239515,816.117954L914.328712,815.059073L914.900321,814.314387L914.951538,813.584053L913.833447,811.783536L913.368060,810.725629L910.935152,810.742193L906.478098,809.050230Z M875.577630,797.342671L874.794549,796.509568L874.209422,796.096069L873.272128,795.915280L872.548757,795.487170L872.225496,795.537050L871.891410,796.141785L872.040286,796.628000L872.931251,797.986596L868.070962,797.099614L866.124147,795.819686L862.286735,796.177110L860.804807,798.707253L864.452129,799.228455L866.291780,801.038641L868.934721,802.752587L870.663204,802.495333L871.238354,802.466288L871.477076,802.605290L872.421320,803.941133L872.887460,804.870157L873.394839,806.648814L873.759144,807.164853L875.739768,808.053781L877.481197,808.553072L878.021458,808.312757L877.988545,807.888028L877.130695,806.570055L876.938164,805.707756L877.079260,804.805879L878.272129,805.394713L879.076060,805.400933L880.027830,805.139700L881.986108,805.485934L882.571366,807.394874L881.762117,809.236649L880.724192,809.752365L881.190712,810.307360L882.058989,810.785674L882.779724,811.038268L883.274057,811.007212L883.917383,810.541347L885.541564,810.027801L887.380565,809.918043L888.465193,808.942517L889.261391,808.434988L889.691353,807.946043L889.353530,807.098539L889.579312,805.427885L890.726457,804.266731L888.240869,802.524379L886.768373,801.719326L884.466326,799.834709L883.977294,799.606336L880.291251,798.964748L878.295384,799.122559L877.205950,799.398714L876.819561,799.068572L875.577630,797.342671Z M845.620072,785.427780L844.396153,784.098183L843.278853,783.577056L841.019504,782.203027L838.998996,781.404238L838.438065,781.721271L838.636948,782.136294L840.829331,783.558294L842.719657,785.417362L845.851853,786.975622L849.120970,788.822643L849.638160,788.714387L851.415400,789.014167L853.693825,788.699813L856.029559,789.149477L857.493165,789.657368L861.513687,791.979507L862.094992,792.474553L862.777546,793.481093L863.102364,793.622487L864.324598,793.869915L865.877773,793.913577L869.319390,794.720199L870.789454,794.624577L870.526479,794.348092L867.070271,792.613903L866.823517,792.362237L863.468664,790.161031L862.522973,790.069461L861.633746,789.763517L859.334043,788.572816L857.057811,788.279248L854.996480,787.344264L851.406002,786.344477L847.711713,785.921573L846.623754,785.575716L845.984464,785.621555L845.620072,785.427780Z M930.875765,779.987697L925.077068,776.110901L923.704116,776.221602L922.992622,777.459983L922.337750,779.532791L921.429036,781.350006L920.039816,782.795233L919.365231,783.266431L918.391217,783.270600L916.315362,782.144635L914.197547,781.185219L911.849898,781.402152L911.257871,781.790097L913.249391,783.178867L914.262660,784.037736L916.268044,784.929756L916.845143,785.363186L917.211912,785.863238L916.955413,786.442384L916.546646,786.875646L915.671380,787.171402L914.571861,787.098507L913.626867,787.648314L913.294241,788.907997L913.555829,790.140220L914.139025,791.480238L915.808074,793.578822L917.935869,795.129685L920.223334,795.902811L922.309587,795.992168L925.293534,794.551820L927.151933,794.269093L929.106639,794.202566L931.261655,794.370960L933.542695,795.040308L934.568064,795.952685L935.216732,797.307356L934.770562,797.720729L930.709550,799.878306L927.034319,801.381073L925.148263,802.447615L924.557230,803.283638L925.718997,805.979317L927.975342,808.590361L930.525072,810.667654L946.004799,815.865667L949.007690,816.973965L949.197366,817.432914L948.822884,817.784328L948.102470,818.050970L947.660474,818.594536L946.970649,820.162844L946.128837,820.460323L945.683356,819.850881L945.123207,818.697868L943.986193,817.627229L942.794238,816.982235L939.029470,816.070393L936.483324,814.837749L935.509560,815.154217L934.993011,816.142768L933.082782,816.436394L930.096867,816.392972L928.560588,815.722973L927.843651,814.235774L924.695489,812.185098L921.688971,811.241159L918.868762,808.472278L921.685908,808.474349L922.849908,808.072428L920.907102,806.093326L916.914162,800.440871L915.717710,801.030339L915.122795,802.567947L916.882385,804.594375L913.749081,805.896400L915.000446,808.265107L915.995023,810.696641L918.967930,813.470250L921.224001,813.915098L923.214690,814.786037L925.074543,816.264770L928.982479,818.642069L929.174575,819.551293L927.150355,818.995450L924.601716,819.040912L922.295902,818.640003L921.838430,817.143493L921.015977,815.747789L919.174833,815.290726L917.602222,815.516161L917.319884,815.985608L917.388479,816.789958L917.260463,817.244792L915.618780,817.767792L914.372492,817.902149L910.580060,816.734134L909.993466,816.835444L908.655879,817.782261L907.949026,818.848728L907.411373,818.887992L905.072483,817.755389L903.579917,817.550744L903.590327,818.406466L902.406351,818.838395L902.395720,819.555425L903.546102,821.096529L904.947399,821.616991L911.348679,821.478621L915.579909,823.054131L920.814343,823.481464L924.301216,824.247254L928.807597,825.493696L931.809413,824.272021L932.228306,824.369025L932.784783,824.816865L934.835053,825.697963L936.576851,825.619559L938.418809,824.907665L940.119588,824.005766L940.660806,823.433984L943.870848,825.561786L945.985010,826.535563L953.154246,827.612241L956.771706,826.913049L957.208186,826.424167L959.696671,826.424167L957.662670,821.652100L954.941597,815.222472L952.440517,809.476910L950.019169,803.872692L947.527038,798.061367L945.050122,792.239518L942.421578,786.006991L939.772378,779.668434L939.090102,779.217663L936.991672,778.159395L936.401217,778.046662L932.401410,780.131670L930.875765,779.987697Z M840.140668,764.217546L840.345014,763.790055L840.188286,763.303828L839.717315,762.926538L836.723401,761.653946L835.506863,760.764755L834.704664,760.345250L832.958225,759.791429L832.548868,759.808212L833.814579,761.203086L834.561579,762.373109L836.502450,763.507129L837.640504,763.953513L839.740452,764.454321L840.140668,764.217546Z M825.752199,757.755829L824.471485,758.181930L825.221038,760.078839L823.508235,759.766253L822.485713,761.165337L824.517009,763.634972L826.376101,766.509223L829.160757,768.960621L831.420894,771.498235L834.156540,771.680174L833.486050,769.128036L834.135452,765.524857L833.793960,764.948775L830.975977,762.825921L829.112042,762.517764L828.334141,761.934919L825.752199,757.755829Z M826.900131,750.157275L826.401747,749.475641L825.344948,748.650771L823.222692,748.661294L821.437870,750.209865L819.103446,751.042784L816.805809,750.195140L816.838968,752.445265L817.023377,753.956467L816.960784,756.170624L817.805876,757.652969L818.883572,756.391125L819.261807,755.479634L819.743119,752.768998L821.906327,753.414273L823.376527,753.540372L824.113890,753.056969L824.823588,752.102581L825.532684,752.163551L826.967622,752.712241L827.362038,752.535661L827.649172,751.961713L826.900131,750.157275Z M808.665420,737.272219L808.059503,735.474973L809.428002,735.124284L809.919213,734.555923L810.284725,733.604923L809.461188,733.309002L806.821394,733.032082L804.671770,732.958092L805.266788,734.036076L805.479385,735.445398L805.432039,736.714772L806.118169,737.327115L806.904973,738.593686L807.584903,739.095964L809.039576,739.269000L808.665420,737.272219Z M809.353431,728.962352L810.381878,727.687973L812.154975,726.819766L810.722794,724.925874L808.331667,724.463890L806.000993,723.739000L804.418162,723.524894L802.107366,722.795559L802.301544,724.985206L802.671121,726.184350L802.534766,726.720225L802.876241,728.107174L803.039199,729.986589L805.453227,729.980241L806.741293,730.699563L809.353431,728.962352Z M795.466582,697.194138L794.709078,695.805549L792.724793,695.929275L791.946876,696.628926L788.953867,697.499118L788.072420,697.230395L787.426191,697.682526L787.040103,698.273234L787.213475,699.509910L788.613810,700.343455L789.303857,700.511855L789.930854,700.972265L791.035602,702.562094L790.062736,703.793570L789.384161,705.026884L790.738406,705.780782L792.024927,705.795689L793.397192,704.236660L794.799756,702.268032L796.012610,698.929983L795.466582,697.194138Z M809.060831,703.989557L805.218344,696.671585L804.558277,695.673287L804.099454,695.408756L802.587892,695.302087L800.589419,694.406006L799.747287,694.322792L798.211510,694.937268L797.446054,696.206584L797.490334,696.808093L798.717021,698.350000L799.262237,699.893654L798.283958,701.245083L796.282444,702.587664L796.400599,703.993818L798.736995,704.807508L799.615554,706.658055L797.559925,707.149853L796.386354,706.498369L795.454178,706.623989L794.091618,707.788477L793.826857,708.590888L794.931975,709.669771L796.526262,710.848368L797.811347,711.535380L798.472236,714.456573L795.255085,714.314176L795.083740,715.954611L796.282083,718.004163L797.783364,717.539130L801.076535,719.224857L803.439038,719.409517L805.139205,719.330985L805.586279,718.980751L805.482350,717.144125L804.224765,713.965602L804.019425,713.062144L804.107367,712.383888L806.852034,709.976152L807.208793,710.005937L807.410740,710.293148L807.404714,710.627139L806.801932,711.431165L806.628526,712.013883L807.296282,713.957100L806.739566,714.586213L806.862437,715.848386L807.194030,716.581277L808.985175,718.494613L809.525297,719.920998L810.213883,721.011623L811.769982,722.787078L812.862679,722.956705L814.612433,722.683177L814.896552,722.337307L814.722422,720.782493L814.987040,719.485926L814.748631,717.893750L814.129606,715.825016L813.723241,715.334217L812.871426,715.138730L812.438825,714.341806L811.504026,710.399517L810.501638,707.188173L809.060831,703.989557Z M787.853169,695.598622L788.804645,694.674842L791.987287,693.586633L792.719042,692.521738L791.071832,688.205236L787.221745,683.683816L784.898593,680.523998L783.515332,679.335954L781.009376,680.455624L781.035315,681.002609L781.867388,682.333665L783.272449,683.950838L783.951019,686.097472L783.878783,691.727773L785.915947,695.624222L787.853169,695.598622Z M802.691544,691.851568L800.385686,688.205236L800.425460,687.502698L800.192205,687.005125L799.740536,686.409287L798.515283,685.452457L797.062781,683.408243L796.329091,682.087974L795.918920,681.658538L794.197235,680.615875L793.000446,679.359459L791.891888,675.630315L790.612284,675.388808L789.933057,677.216082L786.489427,678.348704L786.080218,679.489806L786.539041,680.073150L787.654285,682.004652L789.310762,683.833349L790.232445,685.014594L791.854821,686.812923L792.574416,687.466395L794.492990,690.622066L796.827858,692.604972L800.306515,692.052199L802.565768,692.370208L802.691544,691.851568Z M786.830130,675.352474L787.201703,675.063945L787.577388,674.538173L789.563572,673.578512L789.100852,672.845390L787.513184,672.223403L785.982858,672.133632L784.324244,672.952260L783.617685,673.736676L785.235478,674.922885L785.658428,675.636726L786.830130,675.352474Z M783.299679,628.437163L784.215518,627.611593L784.139244,626.690456L783.655988,625.888611L781.449601,623.484001L780.502234,619.420126L779.231758,617.146900L777.503880,617.811100L777.399680,618.891488L776.729407,619.592109L777.980912,622.653032L777.648124,624.823265L776.687125,626.443718L776.420952,627.807333L777.241715,629.462954L779.160218,629.111776L781.131784,629.869503L782.672656,629.403359L783.299679,628.437163Z M764.035889,611.014263L764.061772,610.588573L763.404752,609.578557L762.625589,608.954053L762.130373,608.954053L761.677697,609.398604L762.426750,610.575867L763.131449,611.266313L763.723202,611.370103L764.035889,611.014263Z M788.492900,609.525629L788.235726,608.039712L787.468648,606.476089L786.695121,604.961696L785.390490,603.564094L784.709543,603.519700L783.838944,603.843158L783.599272,605.029367L783.870500,605.856307L784.444076,606.548015L786.128433,608.012200L786.659889,608.992155L787.461957,609.735228L788.002785,609.773339L788.492900,609.525629Z M799.626603,608.628082L800.680118,607.153090L801.034814,605.560198L801.790796,603.623288L801.262500,602.748141L799.699161,601.647030L795.829581,600.053899L792.265068,598.991363L791.453233,599.322988L791.584985,600.271501L792.038905,601.268777L792.135368,602.335988L791.872480,603.240656L790.797587,604.642387L790.410391,605.615188L791.503232,607.430271L792.295003,608.503204L793.586242,609.779691L795.947859,610.359865L799.626603,608.628082Z M783.345393,600.279952L783.372556,598.784370L782.984764,597.675602L780.644318,596.828843L779.428242,595.756293L778.403368,594.664902L776.758797,594.781000L775.552611,595.779516L775.797305,597.713613L776.873646,600.167981L776.447926,600.742648L775.117905,600.981407L773.297322,600.305304L771.467335,601.165237L770.342013,601.989384L771.590972,604.392877L769.652839,605.765357L772.551529,607.936015L774.892818,610.474217L776.471817,611.463305L779.089186,614.677962L781.052837,616.542227L783.327896,617.647691L784.175949,620.467012L785.793476,620.891796L788.716053,620.798339L788.861849,620.492497L788.604729,619.556013L789.591397,619.405264L789.848900,619.192951L789.716420,617.651936L789.531591,616.820151L789.132971,615.982203L787.414404,614.126728L786.827084,612.933698L786.627721,612.221727L785.166781,609.923667L783.422328,607.517025L782.113972,605.911301L780.134721,604.530317L779.828737,603.384403L779.718866,602.450119L781.481819,601.374431L782.803883,601.209611L783.345393,600.279952Z M777.627942,588.018008L776.785327,587.191085L776.468625,587.079285L774.753729,587.785959L771.707576,587.882998L772.048560,588.988430L772.616108,589.319653L775.771577,590.064409L776.021922,589.897732L776.330950,589.058049L777.648004,589.226826L778.380475,589.081256L777.627942,588.018008Z M760.624359,583.278361L760.631515,583.101190L760.319676,582.622409L759.687892,582.095120L758.706257,581.726017L757.512772,582.017081L757.240371,582.468441L757.423467,583.012605L758.230588,583.658014L760.624359,583.278361Z M774.614305,577.621470L774.835220,576.444422L773.621623,573.585834L775.171341,572.895883L776.716525,571.741649L777.332305,570.002654L777.557530,568.776284L775.553766,566.844505L773.881733,564.994544L771.573358,563.756698L769.272565,561.971261L768.600162,561.189279L769.632557,560.301471L770.614152,559.954757L770.813365,559.510758L772.217735,559.172443L773.432948,558.603593L771.920430,557.006605L771.194294,555.313749L772.607033,554.519968L772.276013,552.677735L771.509238,552.093101L770.218561,549.516109L769.027629,548.076241L768.213518,546.238826L764.412079,545.824929L758.300359,544.047663L758.024437,544.640212L758.840142,545.319681L759.322422,546.122092L759.456791,548.542840L759.808828,549.713270L759.942454,550.790024L759.179740,553.188150L759.388537,554.327319L759.916806,555.552910L760.160204,556.767533L760.217137,557.947949L760.461465,558.929263L762.044059,561.292845L763.261764,567.526493L763.353957,571.866152L762.663881,574.161817L762.760377,575.153379L763.584720,575.843213L766.088839,577.037173L768.607944,577.880918L770.823782,577.853497L772.214486,578.184659L773.428738,578.072866L774.614305,577.621470Z M618.008186,360.834644L618.531921,360.725124L618.559043,360.405343L618.167225,360.019887L617.022727,359.457097L616.592916,359.301631L616.231494,359.235943L616.035065,359.262218L615.312097,360.096537L614.714732,360.782074L614.624475,361.176365L614.773215,361.312185L618.008186,360.834644Z M3.574651,215.563480L4.452354,214.682356L3.398501,214.566474L1.067138,213.949892L0.588722,215.021252L0.795478,216.254371L3.574651,215.563480Z M739.123022,0.000000L737.798281,1.503013L736.049532,3.215741L733.718537,3.554353L732.907869,4.423821L733.293709,6.243578L734.308696,8.812630L734.506145,10.831155L734.013462,13.140207L732.577974,15.658952L730.168565,17.391257L727.835296,18.324032L725.918863,18.328401L724.084242,18.511897L723.317931,18.780588L724.539196,19.953649L725.484476,24.364041L726.039207,29.560716L728.199903,39.403215L729.976937,44.308967L730.502943,47.128724L731.512645,49.205832L731.922686,51.424876L732.921896,60.922913L732.728872,67.668981L733.117360,72.006115L736.466468,83.809704L736.874308,86.126752L737.053624,89.173217L736.594140,92.477408L736.646431,97.526596L736.321777,99.942042L736.024954,104.829834L736.328719,112.946005L735.676098,119.490097L734.876945,122.196564L733.875735,123.640489L731.743523,124.151658L731.937333,126.753434L731.679751,128.590682L732.078579,131.116163L733.852142,133.676702L735.754942,134.699200L736.381358,135.536000L736.282261,137.541749L735.123467,140.364777L735.029298,142.691919L735.013440,144.544967L735.704415,148.150741L735.521568,152.670365L735.887163,159.669261L736.577490,162.672896L739.933080,171.497235L740.042836,173.270627L739.708787,176.060950L738.351115,178.547426L737.478883,179.848653L736.685295,185.191540L737.203102,186.914962L738.859516,189.860994L739.108587,195.072884L739.754554,197.402131L739.289898,199.471084L739.471840,203.394541L738.500463,208.857271L738.694860,211.312911L737.902401,216.617302L738.020594,219.312928L738.829844,223.728610L738.819726,225.597413L738.544453,226.250915L736.907957,228.700851L736.584935,230.650127L736.227546,236.234751L736.823265,243.252573L735.796144,246.152357L735.685939,249.839647L734.635608,252.214406L732.857155,253.925386L732.655995,255.516149L734.398024,261.587233L737.545507,264.984718L738.435124,267.055881L739.508100,271.665594L740.098608,277.989574L740.010379,282.666150L735.729008,286.842686L736.304066,293.474024L736.956163,296.397430L738.967034,301.460672L739.653707,305.534169L742.771006,312.814034L745.200146,319.708775L747.369649,328.671372L749.965332,332.662249L749.949179,336.033841L750.720640,338.750583L749.635748,345.676384L749.085066,346.862069L747.434253,348.484898L749.287236,352.825193L750.021139,355.959397L751.593293,357.981500L751.753568,360.972643L749.499330,364.717966L749.433946,366.290370L748.730372,369.123250L748.098685,372.490074L748.962775,375.261999L748.932518,378.236554L749.508776,382.641931L748.798016,389.520723L748.989082,393.504945L746.749379,396.774857L746.034797,399.052738L745.691252,401.463003L744.959428,402.789659L744.259386,404.616211L745.916789,408.571603L744.796971,411.240718L743.611145,413.553061L744.196440,422.938840L743.326794,426.298546L743.227450,428.707862L741.429165,429.732195L741.721850,432.275235L741.924124,434.014346L742.580447,438.057737L742.463120,440.642212L741.689201,441.565895L739.881609,441.950924L735.474435,441.134111L735.289382,442.660850L735.277974,444.610073L737.207025,447.755376L736.761515,450.290083L737.478150,452.750317L741.460225,457.571544L743.223491,460.520143L743.654351,462.557711L744.030136,467.926049L745.162078,471.154759L746.617263,473.748175L755.155848,487.281631L756.028052,491.723447L755.542361,499.923262L754.671831,501.374903L751.970029,503.798340L752.810500,506.445358L752.721562,510.449838L753.389415,514.991159L753.746439,523.864265L753.328868,526.118338L754.676814,529.272081L757.742295,533.669143L759.040459,536.442790L760.354737,537.993351L762.569317,539.217313L764.191331,539.385426L764.392266,540.051379L763.452249,540.646967L763.228770,541.805832L763.352878,542.894048L765.584815,543.571831L767.608677,544.081647L772.532957,543.729034L773.506854,542.983296L774.919927,538.568159L775.834510,537.933733L777.170929,537.995480L778.714342,538.578802L781.981202,541.085059L783.402587,541.623000L784.504355,541.765440L786.254509,540.791589L786.548290,537.914570L787.187630,537.590901L787.493101,540.861770L785.746249,542.449890L782.755720,542.894048L781.660764,544.158112L781.269647,545.162568L780.991964,546.510479L782.132038,547.613812L783.161024,548.375297L785.334077,548.720978L787.364125,548.076241L789.705665,552.976368L791.885203,556.911401L791.896462,557.901416L788.473074,554.041501L786.579221,552.828114L785.356366,553.277094L784.442387,554.083846L784.546191,555.028007L786.583182,557.393745L788.828694,559.542473L788.466360,559.692591L786.242665,559.445211L786.119752,562.993999L787.202790,565.997729L789.362031,568.164082L790.182755,569.996323L790.481490,571.000928L788.396333,571.188752L788.363958,573.035142L788.507215,574.714569L786.917945,577.140533L787.462783,579.981734L790.660746,583.790893L791.121260,588.769024L788.620079,589.545396L789.612601,593.170551L789.967569,595.395293L792.704036,596.883742L795.613666,598.070512L799.486717,600.298966L802.708927,601.186368L803.626076,604.595867L803.656829,607.633407L799.073250,611.666664L796.235656,612.552266L794.491501,612.925221L794.705890,615.619510L795.055800,618.570946L799.053817,618.940315L802.740106,621.214664L804.555963,621.928469L805.361304,622.466035L805.757158,623.228954L804.965021,623.203450L800.246672,621.085088L799.058632,620.919408L797.359179,621.716013L795.123404,623.913368L791.899890,623.830466L792.189326,627.052080L793.199716,628.684013L795.088656,629.292683L796.644342,630.297376L797.653316,632.963392L797.682594,634.870076L798.661871,638.640667L798.790852,639.794282L799.578476,641.658424L799.567169,644.231525L799.295094,646.079764L798.508614,647.527067L796.827521,647.648754L796.432528,646.807653L796.414543,646.098974L797.606048,643.403593L796.961605,636.698574L796.144170,634.437549L795.525823,632.100824L794.435984,631.057425L793.124849,631.197951L792.186428,631.823982L792.909871,636.253115L793.065066,638.527662L791.462517,640.018207L789.430536,640.391432L786.685050,640.540728L786.092309,639.909442L786.690707,639.807078L790.883014,638.041555L791.360890,636.383126L789.773128,634.015710L790.442719,632.880323L790.657539,631.570579L789.928117,625.775897L790.074746,624.319395L789.975235,623.109937L787.983381,622.257799L787.305966,622.185557L785.990876,622.474535L785.243706,623.403234L785.107065,624.183339L786.369141,626.518164L786.991748,627.417989L787.269963,628.149898L787.321854,628.988338L786.634604,630.086628L784.393773,630.867934L783.248861,631.012713L781.846408,631.689826L778.920647,631.777134L776.417491,631.317189L771.481139,632.435185L772.388850,635.262150L774.493889,637.295416L776.282425,638.649195L774.244818,640.284794L772.315533,643.228630L770.538134,644.534554L769.910405,645.712642L767.098930,648.496343L767.012012,650.571877L767.558309,652.096774L769.560685,654.017078L772.627543,655.709073L773.741076,655.587293L774.012347,654.954912L773.916576,654.014941L771.950500,651.567093L770.484684,651.470984L769.681829,651.084422L769.868560,650.428796L770.654783,649.634414L773.001037,649.299170L775.976785,648.272162L777.473646,646.314560L778.092987,646.348713L777.839709,648.882801L778.759738,650.354053L779.581301,651.355655L783.482420,652.637161L786.106219,654.042712L789.405543,654.506281L789.972726,654.521235L790.028349,654.051257L789.394013,653.399726L789.158261,652.534635L789.458096,651.917363L792.095392,652.385119L794.703015,654.497736L796.439597,656.459001L796.343401,658.837220L798.023758,661.012718L797.244427,661.604712L794.937024,664.186555L794.400631,666.439395L798.008250,668.649551L799.649556,669.267287L800.626155,669.457523L801.804064,669.949146L801.788894,670.733601L800.639202,671.885689L799.148292,671.609959L797.186759,670.158619L795.894269,669.660585L794.645607,669.442561L794.111252,670.543365L793.654819,672.387985L794.922088,673.608435L795.737104,673.935449L798.388715,674.518938L799.570120,675.177220L800.029431,676.523658L800.973810,677.686235L803.327558,678.224760L805.682432,677.912759L807.974045,677.359266L809.094209,675.993640L809.204667,673.180961L809.108659,671.492399L809.624397,671.364152L812.885684,676.286433L813.499553,677.624261L814.264484,678.771818L815.176145,679.327406L817.092991,681.237636L819.328113,682.096520L819.703866,682.784443L817.382962,683.241614L810.426494,679.827421L803.556808,679.887251L800.682168,679.190648L797.362692,678.882937L798.629913,682.446895L799.816311,684.907796L801.910806,686.830008L803.208056,689.052909L805.729156,689.678471L806.669818,688.847937L808.147623,688.254347L811.365578,689.294172L810.778674,689.919717L809.529918,689.932526L808.631604,689.712630L807.933952,690.212191L806.641121,691.932675L807.623763,696.257779L809.852856,701.807728L812.870594,708.427012L813.155970,709.497423L813.692213,710.059126L814.832378,710.880275L816.534540,711.677873L816.324098,709.582534L815.879546,707.754419L815.754075,706.227956L816.351718,704.873535L815.898986,703.186390L815.746781,701.334599L817.303176,701.219507L817.469363,701.769368L816.779628,702.071981L816.518166,702.747473L817.266204,704.211098L817.704885,706.089549L817.794894,707.430858L817.693238,708.654735L818.097279,710.133589L820.464127,711.467322L822.392922,712.175498L824.110337,714.046372L823.287446,714.358809L821.918393,713.691398L819.067915,712.870798L817.070078,713.391664L816.248941,713.931593L816.794041,716.455952L817.266276,717.832171L820.987584,720.525764L823.036762,721.421049L823.923478,720.986165L825.415445,722.424254L824.621904,723.033034L818.801509,721.987377L817.889028,723.955212L815.704892,726.749876L818.291073,728.301937L820.620571,730.134697L821.608724,730.411853L823.099483,731.171271L828.444108,732.725541L830.192841,733.607036L825.943686,733.061677L826.878819,735.753808L827.700978,736.362098L829.575344,738.074448L832.607505,740.450485L833.676704,739.492669L833.878079,734.241065L834.630069,733.167374L835.087715,733.220221L835.123935,734.893993L837.002879,736.146674L837.142002,736.649308L836.439909,736.638749L835.466310,737.633245L835.303574,740.640329L836.551895,742.854409L835.870116,742.890245L829.770938,740.250083L829.299559,739.811267L828.539830,739.391387L824.127939,734.667912L822.890786,733.116640L818.532081,730.824371L816.965263,730.367425L816.078665,731.397583L815.713816,732.727655L817.575107,734.143855L819.245445,735.941798L819.017620,736.883705L816.598174,737.248994L812.215593,737.299667L813.854869,739.553859L815.974661,741.616806L820.538931,745.541050L822.881231,746.050752L825.049788,747.002561L826.570577,747.411001L828.281228,747.688882L829.979565,748.389803L832.140121,748.596054L833.572247,748.398222L837.321025,749.925871L838.668147,751.328792L840.773782,757.491326L838.035655,756.649408L836.842220,758.838826L837.991584,759.516585L841.608508,761.070963L842.690897,760.498375L843.618296,761.188406L844.518588,761.429572L845.447020,761.307942L847.751892,762.612100L849.884521,764.846119L851.731998,766.576234L854.285592,767.198124L856.824293,765.495531L859.999938,762.689664L864.990256,761.385534L864.700524,760.057861L863.194880,759.149394L862.096080,758.782166L860.070062,757.413651L853.531709,755.053213L852.628456,754.862042L851.894728,754.483871L852.151003,753.964873L852.734428,753.664365L860.167513,756.531818L865.102651,759.388597L866.530516,760.624226L867.232238,762.425521L867.149377,763.356226L865.946026,764.548608L866.507852,765.845328L866.977927,766.490376L869.736510,769.347756L870.256026,770.349933L870.548895,771.171978L870.639935,771.747092L870.522776,772.853154L869.819004,773.657927L869.174895,773.937990L868.288073,773.340219L868.382213,772.773712L869.523085,771.144789L869.227297,769.985917L868.422213,768.807849L866.958754,767.838748L865.677360,766.655809L865.109381,765.378226L864.204213,764.850309L863.093118,764.613559L862.387050,764.862879L861.492798,766.701877L859.002144,768.477169L857.189924,769.079905L856.147419,769.253592L853.743768,768.826684L852.557712,768.979456L849.869521,767.363524L849.273236,767.363524L849.815858,768.627862L850.114014,769.958719L849.496070,770.326922L848.227698,770.711823L844.040004,769.109202L842.422819,769.015032L841.055516,768.274142L839.726295,767.945508L839.332160,768.223907L840.345838,769.368681L841.107958,770.034036L843.256560,772.493563L844.319696,773.892011L845.225471,773.758251L846.428434,774.328788L848.116743,776.674817L848.136811,778.057101L849.097999,779.384622L851.248467,780.427945L854.418051,779.858326L856.755887,780.375786L859.307455,778.439124L861.905859,779.056959L862.428564,777.746026L861.619530,776.146409L862.628406,776.148498L863.931385,777.155124L863.365128,778.585242L862.759126,780.832678L861.446085,781.840151L857.218385,783.606241L860.174385,785.025615L861.568529,786.334061L864.480583,788.250098L868.282929,788.660257L869.131943,788.056455L869.448995,787.554603L869.133834,786.602780L868.239194,784.775543L868.665370,782.424072L870.187122,780.945328L870.124493,779.453490L869.326992,778.061276L870.013530,777.165565L871.084897,777.027744L873.741730,777.689655L874.597685,778.629077L875.486661,779.094527L876.719541,777.230297L878.063490,776.854417L885.178655,777.196887L887.871356,777.689655L890.877488,778.658300L890.517522,779.482706L890.051759,779.841632L886.797894,780.313193L883.388059,779.528617L881.099505,779.612090L877.014849,783.124661L874.136793,783.191377L873.627229,782.257247L872.653001,781.727528L871.910964,782.011166L870.708087,783.233074L870.245579,784.344130L870.521372,785.729897L872.215300,789.684426L871.364650,790.862305L871.094574,792.272798L872.463151,793.279389L878.260600,796.031651L881.628380,796.898094L881.068758,795.002894L880.925260,793.277310L881.150483,792.507831L882.995204,789.905045L884.840694,788.456224L888.119166,787.121417L894.442347,782.052876L897.574796,783.043349L899.112519,783.789684L899.372910,784.696350L899.392735,785.388190L898.633601,787.802413L897.459459,789.365963L892.954862,792.041911L894.513607,797.404990L893.213656,798.233752L892.758944,797.637643L892.994582,796.848232L893.072081,795.570302L891.584227,793.173335L889.601374,792.073113L887.415823,792.403836L884.584539,792.341437L883.691036,792.491192L882.833080,794.545584L883.730659,795.983856L884.605391,797.120388L889.544243,800.546733L891.094575,801.258631L895.464333,802.466288L899.209840,804.175483L903.737776,804.977977L906.580663,805.879816L909.600209,804.639995L910.612028,803.669437L909.422588,799.230532L907.640576,796.634233L906.945822,795.044465L906.100072,791.921262L905.815449,786.296564L904.828590,784.727610L904.441011,782.148806L905.847753,780.947414L907.459360,780.112891L910.234590,779.843719L917.022665,776.695701L919.372146,776.524447L921.409334,775.651351L922.023966,774.727904L922.567317,771.471048L925.465770,770.100983L927.328412,770.228599L929.922097,771.326745L940.267014,773.338129L939.381523,771.920655L937.057426,771.554700L934.783527,771.171978L930.829187,770.157469L925.433008,768.615305L920.668151,768.615305L916.337150,767.313277L911.548677,765.872557L902.662817,765.744791L894.846114,765.656819L886.837397,765.566750L881.711295,765.510194L878.280027,765.472489L877.158770,764.927825L876.683029,763.129860L874.845851,761.804919L872.320990,760.202607L869.597301,759.065459L867.835183,757.543809L865.864253,755.834597L865.917301,754.317884L865.424747,750.628452L864.760614,749.000102L863.305413,747.859389L862.325713,746.242398L862.306687,745.482071L862.946757,744.904871L862.366411,742.247259L860.869129,739.640367L859.230581,737.312335L857.912771,736.283955L856.557748,735.796054L855.672335,735.705225L854.142784,736.573284L850.925958,736.357874L850.000830,736.691543L848.860725,737.629023L847.273616,739.009442L845.870450,738.532479L844.885461,737.056853L843.546424,735.774931L842.563847,734.644670L841.405985,732.784737L839.772499,730.388581L837.323083,727.554580L834.416981,725.258547L833.463068,723.196289L832.044285,720.604270L832.023910,718.074231L830.591711,715.975855L828.352283,713.470320L827.695689,710.878148L828.336345,709.435716L827.992290,707.609671L833.502013,707.322290L832.301147,704.865016L832.459766,702.877447L832.809561,701.076705L833.386879,700.256056L835.118098,699.539757L837.082295,698.499266L837.956462,697.305041L838.184898,696.240714L838.047700,694.860461L837.586939,693.392445L836.005809,690.263427L836.083384,689.302712L837.071166,688.034410L839.131859,686.906889L839.078518,683.916659L837.490657,681.312417L835.338569,679.252617L833.232240,678.320923L832.287752,676.198809L832.333470,674.181242L832.572256,672.022485L832.894839,669.538748L832.178291,667.800967L832.905159,666.785664L835.208796,664.519985L835.478594,662.301446L836.363382,661.698749L837.551198,661.431601L837.174373,660.177112L835.785315,658.933381L835.066937,657.369222L834.552533,655.636432L834.007954,653.327099L835.163801,652.459877L836.659615,650.584690L836.813037,649.393123L836.321557,647.798197L834.515460,644.506812L833.134926,642.146941L832.552797,641.276594L830.991594,639.676992L829.902775,638.668385L830.622927,637.406265L832.348698,636.078351L832.600744,634.154189L831.168771,632.518246L829.620647,631.653626L828.350883,629.154341L827.701199,625.984314L828.296530,625.023129L831.397401,624.542621L831.137681,622.910168L832.826467,620.609309L831.978012,618.403257L829.919640,617.051418L827.603586,614.870915L825.780215,612.946413L821.584313,611.893339L817.319297,611.319267L816.134581,609.502340L815.920745,608.450292L817.961946,608.875733L820.921428,608.505321L823.216845,608.418544L824.771703,608.236531L826.545655,607.971991L828.532896,608.738147L830.087100,608.259811L829.795550,605.393116L830.363016,603.866414L830.023921,602.433211L828.531855,601.289908L826.399357,600.937035L817.300466,600.032773L816.633861,598.887866L816.041382,596.968203L815.691511,595.008980L815.351113,594.042224L815.859919,593.191656L816.152664,591.414793L816.385166,590.228979L815.213598,588.690968L813.023892,586.419042L813.684903,585.370708L813.336641,584.119928L812.596403,582.896601L810.667538,581.536193L808.724693,579.656917L808.037927,577.657329L809.371598,577.125768L810.170063,576.514034L809.983600,575.275737L808.911460,573.752513L806.656944,573.288337L803.541843,572.351488L802.419198,571.566498L801.072338,569.933003L800.091936,565.321917L798.856357,562.541822L798.091449,561.003275L798.380304,559.819448L798.955630,558.753743L797.679249,556.268186L796.407269,554.964506L796.366025,553.956810L796.818394,552.948836L797.093504,551.703291L797.585861,551.406665L798.708117,552.118522L800.069430,551.701172L801.534578,550.694656L801.340058,549.507629L800.420409,547.808974L797.678007,543.535715L795.610273,540.889416L795.547573,539.936499L795.699959,538.932133L794.143032,535.285573L793.554743,533.080275L791.571738,526.563686L791.008648,524.333735L789.055674,522.053833L788.554723,519.910646L788.946325,518.345578L789.113591,516.225652L789.151451,514.344444L789.537885,513.499003L790.502124,513.076111L790.437765,512.048602L789.701742,511.262394L787.912883,510.036907L787.137102,508.537716L787.087634,507.385778L787.583855,506.718447L788.664789,506.724949L788.984941,505.079125L788.609346,503.042406L788.497987,502.099100L787.522873,500.907138L786.243423,498.090935L785.353307,496.487773L785.656206,495.815488L786.283573,495.570951L787.621237,495.948658L788.432549,495.754357L788.333781,494.898283L788.167875,493.980562L788.316160,493.355347L788.491306,491.274730L788.581533,488.691838L788.257356,486.866919L786.563322,481.909849L786.684087,480.769943L787.279530,479.728530L788.241846,478.748310L789.637056,477.935170L791.331900,476.764531L793.696386,476.334486L794.342884,475.037262L794.572006,473.306552L794.386494,471.884006L793.163916,470.893950L791.591897,469.717784L790.193622,466.748649L789.133368,464.006995L788.025203,460.540103L785.984384,457.558227L783.786250,454.201002L782.651577,451.214751L782.664862,449.578696L782.507231,446.981416L781.647215,445.800291L780.446206,443.682246L780.700566,442.022141L780.872888,439.444648L780.439154,438.135657L778.990907,435.018583L777.942836,433.272838L778.077686,431.402320L778.599788,429.656483L779.124177,428.721223L778.621403,427.215935L778.640681,425.977912L779.870276,425.147404L780.837140,423.611173L781.752930,423.424163L782.917571,423.424163L783.569371,422.987816L783.581218,421.803517L783.461809,420.494688L784.917331,418.870008L785.636691,417.376889L787.537866,417.065392L788.107924,415.448036L787.625140,413.370709L786.895075,411.276286L786.970344,408.849340L785.348039,405.149016L784.954499,403.191295L783.806720,401.576128L783.545355,399.837502L782.872928,398.720265L781.622625,398.305828L780.868610,396.921055L781.266600,396.238858L782.231064,395.714021L783.347445,394.653549L783.172811,389.556075L783.303869,388.045150L783.351123,386.226040L783.072123,385.283823L783.413146,383.925094L783.754583,381.861719L784.588819,379.868015L785.015069,378.496298L785.307960,376.647731L785.257596,375.539099L786.050461,374.987122L787.073160,374.844195L788.236585,374.494599L788.592789,373.817499L788.275443,372.830671L787.701620,370.651427L786.543838,367.194196L785.298234,362.738573L784.862374,359.814032L785.026023,356.871854L785.440592,355.279006L784.963837,354.054123L784.460521,352.707127L782.862134,351.972565L781.636627,352.608742L780.645000,352.431653L779.079309,350.870931L778.354979,349.218942L778.061590,346.955974L778.707985,345.545384L778.699693,343.777197L778.014603,343.227207L776.554008,342.053193L774.530799,338.002607L773.923955,334.555993L772.595292,333.640661L771.489868,330.947595L770.112416,329.982578L769.219361,327.970107L768.417869,325.897106L768.377973,324.980507L769.542469,324.727966L769.885389,323.093123L769.177028,322.176756L768.082619,321.384513L766.909934,321.445453L765.652189,320.511797L763.409334,316.601561L761.835250,314.441212L761.536949,311.289200L761.251326,308.827012L761.304473,306.721659L761.145661,305.064397L761.862906,304.270575L762.763454,304.638125L763.501581,304.455437L763.942601,303.104857L764.557430,302.263192L764.370862,301.593339L763.758602,300.862586L763.280426,299.583756L763.522868,298.061307L763.773029,294.570337L764.445687,290.726487L764.781450,289.290566L764.389143,288.072114L764.593632,287.523780L765.682244,288.133039L768.312219,287.462853L768.916113,285.756786L768.985761,284.233330L769.652102,283.380113L769.057806,282.161125L767.847474,281.795403L767.048221,281.225027L767.061451,279.844675L766.867951,276.669764L766.363747,274.330278L764.395216,269.338089L762.652351,264.396005L762.946274,262.743095L764.351448,260.483612L765.547576,259.464968L765.565944,258.175732L765.900238,252.330078L765.502791,249.138934L766.093614,247.370635L766.115787,244.051811L768.105692,241.190977L768.517396,239.295143L769.477595,239.111665L769.897015,238.500057L770.859023,236.385489L772.208423,234.211701L773.494948,233.117072L773.580960,231.404006L773.903854,229.063621L774.739010,225.179949L775.127002,222.471740L776.069922,221.490249L776.794464,217.942187L777.022405,215.860827L778.354988,215.003761L779.468146,214.758881L780.717250,215.740577L781.838411,215.554734L782.697992,214.330337L785.096037,213.497288L786.163308,213.044679L786.501176,211.820204L786.178641,209.677289L784.893540,208.085348L782.300149,205.036911L779.959040,201.634038L779.601667,200.560222L779.419489,199.387977L779.518970,197.907344L780.157257,196.227670L781.973557,193.467548L781.458135,191.490396L778.830138,184.224858L777.958497,182.221533L776.330974,178.505875L776.290121,177.036284L776.726773,172.931687L777.363541,171.280759L778.584594,170.974633L779.194591,170.423612L779.309625,169.688929L778.348092,168.772780L777.829514,167.607316L777.246910,165.956609L776.003816,165.375052L775.154340,163.997716L774.895876,161.975526L775.615544,159.343553L776.680712,158.609079L777.007911,157.448375L778.114810,156.377320L779.140014,155.551096L779.898378,154.021094L783.575761,152.148006L786.501852,150.694614L792.223277,147.910348L796.149608,146.004727L796.390747,144.684822L796.602173,143.786695L797.748573,137.058877L799.259521,128.359112L800.218117,122.906509L796.185213,118.887217L793.034692,119.636450L788.921062,120.453406L786.454926,120.396612L784.749018,120.180358L784.191784,119.693243L782.967970,118.915613L782.684903,118.048433L782.533916,116.818669L782.606970,114.612563L782.119111,111.543760L780.407407,107.972706L780.389662,106.821694L780.028913,105.072263L779.012851,101.787503L777.127466,100.125495L776.354429,97.393376L775.901163,94.986699L774.149136,91.979483L773.515750,88.148990L773.204548,84.862311L770.547834,81.047164L767.774033,76.989620L765.811918,76.439296L765.288988,75.954486L764.961967,74.788322L764.736238,72.984475L764.776325,71.888188L766.063891,70.112721L766.095438,69.837555L765.756944,69.470668L761.685644,66.808535L760.649774,66.039810L760.254648,65.092003L760.193022,64.238100L761.014061,63.364538L761.408488,62.718100L760.322825,60.820268L760.236134,59.103684L759.592731,58.367687L759.604706,57.815142L760.106064,57.341218L762.520280,56.788668L763.110275,55.048223L762.989049,53.600205L762.518388,52.575883L759.966279,49.985559L759.880980,49.546553L761.905189,45.947097L763.381242,43.581632L763.801189,43.098925L763.608354,42.587821L763.121158,41.960952L761.943854,41.047947L760.430968,40.054121L759.140509,38.839678L757.435717,37.046394L755.358596,35.506471L753.784911,33.981824L752.930666,32.701811L752.784182,31.397760L752.376879,29.235245L751.092626,25.729300L750.610023,23.354835L749.944903,20.735686L749.370041,19.027434L748.984590,17.367228L748.143714,15.578125L747.642693,14.271788L748.084679,13.347737L748.552075,12.631212L748.439034,12.179014L744.581800,10.263173L743.929212,9.778203L742.682947,5.942107L739.680549,2.538515L739.123022,0.000000Z "/></g></svg>