<?xml version="1.0" encoding="utf-8"?><!DOCTYPE svg  PUBLIC '-//W3C//DTD SVG 1.1//EN'  'http://www.w3.org/Graphics/SVG/1.1/DTD/svg11.dtd'><svg enable_background="new 0 0 1000 1679" height="1679px" pretty_print="False" style="stroke-linejoin: round; stroke:#000; fill: none;" version="1.1" viewBox="0 0 1000 1679" width="1000px" xmlns="http://www.w3.org/2000/svg" xmlns:xlink="http://www.w3.org/1999/xlink"><defs><style type="text/css"><![CDATA[path { fill-rule: evenodd; }]]></style></defs><metadata><views><view h="1679.25773617" padding="0" w="1000"><proj flip="auto" id="robinson" lon0="13.6082373375"/><bbox h="191.61" w="114.17" x="125.83" y="-219.35"/></view></views></metadata><g class="" fill="black" id="country"><path d="M982.117371,1677.257736L987.916882,1667.787374L989.054606,1667.415690L991.844844,1668.485230L993.236127,1667.787374L993.644254,1665.477622L990.483478,1649.256259L986.072364,1636.414187L983.739191,1631.980524L982.623285,1630.865471L981.817880,1630.425518L981.319416,1629.640430L981.152921,1624.220665L981.496233,1622.809782L983.467838,1619.677013L983.436371,1618.383703L982.990102,1617.238309L982.797834,1615.944999L982.730543,1615.861560L982.648748,1615.474704L982.646339,1614.814775L982.790506,1613.938662L983.176696,1613.301488L983.752061,1613.104268L984.274476,1613.081512L984.555292,1612.937390L984.828975,1610.858991L984.475615,1609.501205L983.921547,1608.215481L983.646569,1606.330510L983.935023,1604.654137L985.476694,1601.369660L986.321796,1598.138282L988.392837,1596.704642L991.020636,1597.220449L993.442082,1599.822240L998.636534,1595.407539L999.702072,1593.807020L999.000314,1592.494746L998.260934,1591.842402L997.763498,1591.394864L996.057785,1590.294981L996.253224,1588.891683L996.982654,1587.018089L996.924197,1585.789255L996.453294,1585.281033L994.653036,1583.999101L994.248264,1583.278489L994.075756,1580.342940L993.829278,1579.015495L993.355013,1577.680465L992.451306,1576.163385L989.986893,1573.000274L988.351054,1569.366868L987.306901,1566.302367L987.114419,1565.111460L987.091554,1559.634801L986.504213,1556.949570L984.841977,1553.520969L984.311424,1551.617034L984.417974,1548.347726L986.418964,1543.318606L987.009480,1540.504422L986.607850,1537.508189L984.589272,1532.388043L984.214233,1529.391809L984.648896,1527.745777L985.630406,1525.583938L986.800151,1523.588977L985.325011,1523.217292L983.663374,1523.073170L981.923427,1523.384171L980.597078,1523.331073L980.162703,1522.064311L980.247133,1520.008667L979.728703,1515.017472L980.193075,1511.148917L983.670660,1507.189336L984.725971,1503.722807L984.345952,1499.831494L983.044499,1496.547014L981.435923,1493.474925L979.497176,1488.605096L976.729508,1484.076609L975.692212,1482.847773L974.336228,1482.187843L973.076879,1482.119574L971.699087,1482.483673L969.961276,1483.181531L969.409114,1482.559527L968.950301,1481.854085L968.598194,1481.057617L966.834285,1473.669432L965.762103,1470.809733L963.590674,1467.760400L961.060942,1465.386167L958.954127,1464.566943L953.385851,1465.234459L952.889248,1465.022068L951.491274,1463.998038L950.713640,1463.831159L950.058764,1464.111819L948.563454,1465.067580L948.041942,1465.234459L946.419971,1464.953799L945.400361,1464.604870L944.419243,1463.914598L934.651202,1452.248241L922.417009,1437.669084L909.521692,1422.282079L895.965242,1406.094809L884.982260,1393.013763L876.188993,1382.504846L874.928518,1380.998466L864.322051,1368.357370L853.026201,1349.735168L845.279577,1329.148337L847.502009,1329.140751L851.659190,1330.339248L853.803101,1330.650250L856.330126,1330.051002L861.388829,1327.324043L864.236105,1326.546537L866.772808,1325.310113L866.469117,1323.713382L864.895674,1322.488336L862.912142,1322.124236L861.104744,1322.124236L860.336145,1321.168473L859.895822,1319.093860L859.053994,1317.045795L857.094471,1316.196228L855.128063,1316.476889L853.647483,1315.100134L852.754600,1311.163299L852.505388,1302.811747L851.141605,1293.940592L849.953225,1289.905146L847.947566,1285.763503L843.426076,1279.509318L842.570971,1277.525728L841.665297,1273.793698L840.799751,1272.310746L839.254066,1271.256372L833.578262,1268.988328L812.935733,1252.971692L808.247007,1247.843940L804.783444,1241.673191L803.055127,1234.724934L802.090867,1223.589516L801.219153,1221.105286L801.360500,1220.141936L801.899349,1218.522445L802.466180,1214.919363L802.564151,1213.436410L800.604936,1199.566437L799.898039,1197.795237L799.139653,1196.354004L798.648709,1194.878636L798.932069,1190.949378L798.321128,1189.549864L797.483532,1188.286889L796.964630,1186.625677L797.033619,1184.513022L797.054469,1183.873979L797.943820,1178.446592L797.332659,1172.768884L797.312664,1165.373071L796.729488,1162.039266L795.757977,1158.667533L794.306820,1155.625768L792.217961,1153.304620L789.505455,1151.806493L783.912218,1149.701530L781.210344,1147.763447L779.146387,1145.138881L778.614345,1143.538351L779.669135,1143.181835L781.157844,1141.630610L782.279280,1139.146374L782.985125,1136.544564L783.226990,1134.621651L783.851952,1134.014815L785.135178,1131.742972L786.216534,1129.296663L786.249288,1128.155053L787.957485,1127.472362L788.521918,1125.792184L788.360803,1121.589842L788.773129,1119.162497L790.632545,1115.020839L791.050638,1113.488577L791.208871,1109.062464L790.982798,1107.238162L790.111278,1104.920806L788.268943,1101.461838L787.600083,1099.447900L787.409318,1096.902979L787.741991,1094.615964L789.998797,1087.971105L791.724479,1079.976034L792.579754,1077.855898L791.650043,1074.882399L790.687699,1059.226016L788.796527,1056.521801L788.134292,1053.571058L786.402114,1050.646864L784.809568,1050.533082L781.321650,1052.971807L779.410491,1053.214541L775.340480,1052.683559L773.133289,1052.668388L770.995466,1051.048893L770.003311,1048.739121L769.424071,1046.175237L768.511731,1043.804781L766.610298,1041.540522L764.685744,1039.807245L763.187249,1037.785721L762.095670,1036.591011L761.013710,1034.846356L760.724812,1033.674403L761.105922,1032.684501L762.060730,1031.485999L762.675055,1031.349460L764.033868,1032.502450L764.715905,1032.487279L765.273397,1031.865271L765.719582,1030.617464L766.116482,1029.984078L766.681822,1028.561805L766.565354,1027.790507L766.443571,1026.984030L766.279565,1026.475804L767.992600,1024.689429L770.965838,1021.408718L772.913992,1020.752576L776.616595,1016.603331L778.536648,1013.853603L779.683715,1011.502112L785.047117,1011.547624L803.432254,1001.553785L805.465180,999.706726L810.255701,992.678801L811.546648,989.970793L811.829093,988.351298L811.777359,986.754559L811.190522,983.299384L811.459142,981.626791L814.671940,976.609012L829.212401,938.647727L830.554151,935.143129L832.301682,932.875079L834.388471,931.266964L842.122706,926.886366L843.688727,925.384446L844.662149,923.328789L846.789377,916.649800L849.481989,910.513172L853.646121,897.799961L855.605665,888.727767L856.519258,885.966664L857.903336,883.539322L859.072650,882.666996L862.027673,881.111980L863.111646,879.610062L863.447086,878.115729L862.749486,869.589691L862.898555,868.201555L863.486849,866.585855L865.250428,863.225505L867.625929,856.284826L870.532563,853.464469L872.425800,851.627366L882.317171,845.323866L888.367020,840.014060L888.854346,839.164491L889.902925,836.729566L890.644346,835.902753L891.471359,835.713117L893.902350,835.546238L894.462513,835.409700L894.726706,833.475413L892.191709,830.843267L892.679879,828.537295L899.551095,817.887346L900.535399,815.808938L905.759928,808.056627L909.177251,800.023657L910.810655,791.308001L910.770307,776.296447L907.905186,775.651686L903.833891,774.597312L901.053515,774.460775L894.915583,769.401299L890.384950,757.340483L882.189956,725.868607L864.399490,683.912316L860.830861,675.497763L858.840687,672.641864L851.296867,664.343450L845.752573,654.254888L843.574775,651.330724L840.883136,649.134756L837.587168,647.977986L832.758877,647.166350L831.017285,646.570898L830.540692,645.599969L830.527742,644.238394L830.203611,642.452037L829.006384,638.727617L828.258869,637.354664L827.329018,636.463382L826.377285,636.076528L825.516087,635.382466L824.844410,633.561977L823.682787,632.170061L818.541508,627.914666L816.741551,626.788239L815.537040,626.492409L814.401904,626.469653L813.269161,626.697214L812.071683,627.137166L809.995099,626.401385L781.047921,600.366514L752.103497,574.331683L749.682453,569.655316L748.353489,563.351895L711.105544,515.556725L699.530149,505.430328L699.295131,503.245758L707.014510,490.528988L717.464146,480.201599L721.443371,473.981655L727.569160,459.929902L727.847295,458.446979L727.899141,457.013360L728.194669,455.924871L729.243713,455.462169L731.132256,455.319891L762.620009,452.947647L800.417470,463.441891L805.596818,463.745303L821.743677,458.060129L827.682637,458.302859L835.228565,460.324338L839.180798,460.646712L842.812378,459.709929L844.148878,458.723842L846.417089,456.342062L847.860234,455.355975L849.003176,454.969125L854.917911,454.237145L862.592230,454.593654L884.371603,462.505108L891.652962,462.285135L920.523395,454.297828L922.769088,453.539299L917.114506,447.864118L912.560542,446.244665L903.890192,440.441943L897.887691,434.631638L897.947040,433.994476L896.092346,432.777043L891.201779,425.070429L873.208674,406.501751L871.779001,403.972074L870.930827,400.991075L870.620813,397.278101L870.093629,394.388127L868.832743,392.616974L867.120827,391.046831L865.226684,388.718164L863.362393,383.253004L862.186173,380.746085L859.570031,379.384536L858.935217,378.694280L858.060441,378.007817L856.696737,377.696823L855.228150,377.537533L853.796449,377.112760L852.602264,376.475601L851.793022,375.690529L850.920144,372.895373L850.957417,369.269634L851.701932,365.704577L852.964509,363.114223L853.123647,360.796936L852.095006,357.262221L841.986843,335.845347L841.560319,330.319514L843.097246,324.046538L843.493122,320.428388L842.648541,317.841829L841.302254,315.649701L837.668812,306.266786L836.694648,293.703476L835.528337,278.683142L836.320512,269.592257L836.944251,267.274972L839.854118,262.409054L840.689461,259.985576L840.564043,258.502665L839.981196,257.721388L839.293399,257.069059L838.879759,255.972994L838.858387,254.292868L839.455834,252.036264L840.170844,244.397945L840.960212,241.545901L842.099028,238.940377L847.959039,231.613049L849.624757,227.562538L848.044181,222.814185L844.353838,217.678985L842.961102,215.077251L840.836633,208.485684L840.425343,205.572954L840.614040,202.713321L841.584836,199.580619L842.062093,199.413743L842.901966,199.474425L843.766264,199.368232L844.289748,198.670390L844.117343,197.722236L842.726219,196.265870L842.491749,195.659051L843.192478,194.270952L845.253902,192.056062L845.953122,190.561770L842.670518,182.111811L841.810391,180.534080L839.608642,180.200329L838.074569,179.009446L837.164745,176.703531L836.835670,173.024686L837.459425,171.879314L838.681452,170.665674L839.542792,169.368597L839.004623,167.972911L838.500667,167.138533L837.840904,165.613898L837.528255,164.157529L838.065346,163.505197L841.744811,162.852866L841.163315,161.214451L838.924164,159.090580L837.576807,156.943952L837.778574,155.138661L838.082816,154.016043L837.990617,153.113397L837.029158,151.930097L836.344293,150.526824L836.360289,148.774629L836.817892,147.189309L837.431166,146.279078L834.948622,143.882135L832.536727,142.751931L830.224054,143.032585L828.052534,144.875805L826.511583,145.126118L824.679124,143.525628L821.792790,139.816433L818.456597,137.282954L817.790392,136.266528L817.348466,134.127482L817.991955,133.482734L818.960334,133.232421L819.479420,132.253921L819.272451,130.752037L818.716036,129.978339L818.068208,129.333591L817.680477,128.241312L817.656295,126.481528L818.274636,124.016314L818.476357,122.233773L818.521377,112.023986L818.756035,110.711731L816.404826,99.591697L814.584279,95.988682L814.495390,95.343931L814.684708,93.659996L814.543423,93.075927L813.884384,92.582883L813.041478,92.264300L812.523620,92.347739L812.786697,93.075927L811.693281,91.976059L811.119742,91.885035L810.929594,91.611965L810.986555,89.981125L811.212569,89.017792L812.218795,86.757371L812.686765,85.968500L808.173301,67.945798L806.640051,64.926841L802.411359,66.041883L800.171775,65.746056L799.180158,63.379435L798.814486,61.991320L797.941798,60.504597L796.793693,59.298529L795.602734,58.820654L794.930857,59.290944L793.026414,62.916730L791.501914,60.497011L793.322809,55.680327L792.410339,53.268192L790.349981,52.464146L786.561057,53.601947L784.439867,52.259342L783.602925,51.409785L781.331600,49.797901L780.866813,48.921795L780.800662,48.011554L780.537156,47.256813L779.532779,46.794107L778.684560,47.021667L776.253386,49.141769L775.019104,49.354159L774.422336,48.550113L774.230202,47.196130L774.209821,45.758708L773.098911,46.225207L772.339192,46.126597L771.850527,45.440124L771.565957,44.135445L771.487237,38.594351L769.134831,35.947064L765.149440,32.590546L763.788889,30.462854L763.828739,28.593064L765.727960,21.880019L765.884560,18.891385L765.463858,16.460274L764.355200,14.287065L762.501272,12.083514L762.355721,11.835757L756.338246,1.592932L754.094230,0.000000L708.644192,0.462709L716.425326,39.536830L724.196955,78.610751L724.522572,89.950784L724.727266,90.656126L725.429487,93.075927L725.427198,95.890073L724.715172,100.380567L724.831153,102.094843L726.032041,104.324919L727.751106,105.485468L729.740514,105.955756L756.225852,106.858405L764.495157,109.111236L768.037373,111.204775L768.470208,112.699076L767.833888,114.860882L768.105111,116.218647L769.037471,117.250245L772.901103,120.466404L774.321195,121.141494L774.335922,122.233773L773.846366,122.453747L772.592301,123.235030L775.148848,125.267884L777.765458,126.815280L779.827596,128.704013L780.707263,131.753293L781.448510,132.428382L783.116884,131.760878L784.886625,130.714110L785.958670,130.251409L787.501847,131.161641L788.146346,132.557331L788.380401,134.119897L785.929092,136.956788L785.621903,137.874605L784.994684,138.754496L784.245387,140.461181L782.162331,150.989525L782.475670,152.529333L780.194800,154.228430L780.484971,157.042561L783.005118,163.376248L783.252540,164.976736L783.292935,166.023501L782.878159,170.946328L781.473963,175.580915L778.911144,190.523844L777.984012,192.989047L773.345872,199.997807L772.762992,201.287297L772.965802,202.569201L774.160485,204.344146L774.682729,204.564118L776.879979,204.533777L777.847271,205.186107L778.392129,206.134262L778.858328,207.181024L779.550082,208.159519L781.684799,210.533697L783.155188,213.036824L783.938616,215.987479L784.039052,219.704241L783.598298,222.768674L782.658513,226.409583L781.357319,229.925336L779.845726,232.610506L777.651053,233.945506L771.024033,236.661017L768.342519,238.500433L763.672024,243.263954L760.989543,245.050274L753.388534,247.735443L750.982376,249.260073L739.641731,261.172663L738.634753,261.642947L735.162806,262.113230L733.599594,262.867960L730.104659,267.001904L727.822007,268.894417L725.096089,270.494898L722.240979,271.317894L719.570803,270.877952L710.485710,266.558169L705.389723,264.912176L701.419242,264.927347L696.514976,269.410212L691.729043,274.943629L687.535311,281.038352L684.514351,287.193756L682.368785,293.030581L680.848789,295.309939L675.980595,298.503316L673.924092,300.502021L672.526441,303.024106L671.987164,306.035437L672.902542,311.606780L672.002316,313.926705L671.321904,315.680042L648.750340,352.593516L645.294145,361.047249L640.647634,379.407292L636.533398,407.112363L633.745501,416.229824L633.724809,418.137513L634.635274,421.126100L634.865864,422.828988L634.605549,424.789775L632.601333,429.742943L631.116099,431.935080L628.392041,434.297886L627.202394,435.093932L625.371032,436.319356L622.981863,437.502656L612.870195,438.742845L608.580123,440.605026L606.334782,445.607503L606.403383,448.539206L607.997431,453.334497L608.531691,456.152430L608.031802,459.634076L605.042162,465.023424L604.083535,468.000651L604.328766,471.319217L605.672014,473.670658L609.462842,478.058753L610.908562,481.362150L610.610745,483.713594L609.419571,486.129512L608.198666,489.641508L606.624007,499.536541L606.072361,509.044730L602.552528,519.455579L594.179990,523.225484L584.040603,524.989072L575.139087,529.380975L573.418077,530.924589L569.729917,536.351891L568.316288,537.963774L567.255976,538.790575L559.711304,542.841142L558.863337,543.542785L557.979273,546.209030L558.597483,546.694491L562.273488,547.343037L563.554229,550.312696L564.633958,554.712192L564.564724,560.522563L564.094536,563.234322L563.315702,565.764034L557.453449,577.843699L554.923597,584.833600L554.827216,590.761555L555.807073,596.113024L553.128129,623.776847L551.738074,630.072705L548.983052,634.411539L547.267340,635.238344L545.664785,635.208003L544.019696,634.874246L542.176366,634.790807L540.714228,635.606235L539.793579,637.331908L538.692241,641.481109L536.834263,646.206800L534.560361,649.051317L521.389591,656.924943L519.404104,657.463505L517.491185,657.046309L513.307726,654.888268L511.620864,654.345913L509.273011,654.653121L507.664650,655.601294L506.178328,656.788406L504.143011,657.789677L502.355051,657.979311L500.509585,657.645555L496.947328,656.352247L498.018856,658.476154L501.115010,666.797322L501.491734,668.879511L501.603325,672.945279L500.491922,674.295479L496.629021,677.344806L495.665571,678.842920L494.851152,680.621695L493.835671,682.309445L492.309229,683.549656L489.587954,683.982024L484.612460,683.037642L481.804432,684.361294L478.875362,689.124921L477.921172,695.458727L478.291596,702.137671L480.436580,713.993654L480.337922,716.914035L479.954494,718.167545L479.372673,720.069563L474.158153,728.542463L473.449346,732.107605L473.503993,737.808041L474.252692,743.444002L475.173697,747.047074L475.538476,749.474406L474.818957,751.605908L469.970322,757.378410L457.272147,777.548041L452.688197,787.098090L451.826956,790.109504L451.448195,793.340896L451.683119,796.435750L453.585738,805.045211L453.098178,808.033871L451.492489,809.702665L449.471984,811.295606L446.063149,817.106047L438.024378,826.040880L430.474606,834.431178L422.542939,847.918086L419.941148,850.701942L417.641440,852.666571L416.620598,853.971267L417.374560,854.828422L420.452950,855.488355L422.281879,857.233006L428.778202,867.754013L433.856974,873.958906L435.484393,877.637846L434.329163,880.967856L433.089635,881.544350L431.991301,881.195419L430.824505,880.588584L429.379869,880.436875L427.619242,881.051296L426.141802,882.060160L420.682989,887.696146L418.766763,889.099454L418.400669,890.419321L418.182176,891.830214L417.440717,892.983202L416.560632,893.339718L414.542612,893.430743L413.101246,893.817601L411.776865,893.665892L411.163055,893.847943L410.645954,894.538219L410.189884,896.457337L409.713337,897.223467L402.259636,902.556036L394.355178,910.809004L392.037960,914.533460L391.339559,918.466516L392.194955,920.662503L395.064377,924.295934L395.708470,926.931878L395.397899,930.914240L394.578726,934.820748L390.893190,944.712178L387.859351,949.525148L384.355656,951.747685L379.251161,952.320387L375.859469,955.441801L373.949083,960.406481L373.194877,966.490016L372.398223,969.838994L369.885983,972.505281L366.580114,974.359925L363.388932,975.217081L361.970943,975.126056L359.158353,974.344754L357.740073,974.200630L357.260451,974.519220L355.890877,975.911151L355.117392,976.290423L354.180471,976.138714L352.730469,975.103300L352.033664,974.845394L348.222960,975.296842L340.220190,976.244911L336.740332,975.698758L334.601881,973.480012L332.022542,966.490016L329.779985,955.153554L329.333468,949.422744L329.514707,943.593323L329.074176,936.599536L326.553944,930.701847L322.119630,926.780169L310.045952,924.284556L305.888437,919.611919L303.258628,913.198421L302.030979,906.515640L299.885485,900.659674L295.629246,897.413103L284.975893,892.892177L275.895157,887.468583L272.479195,886.194228L270.128016,884.093059L269.392121,876.871716L266.979815,873.412754L265.131795,877.546821L263.557719,882.879388L262.492488,888.401593L261.793010,899.643225L261.247589,900.128693L260.513414,900.325915L259.701748,901.016190L258.124185,903.428363L257.078985,905.415750L256.556842,907.714141L256.494690,911.013811L223.181870,911.552378L219.605949,910.353877L216.879339,907.964461L215.513868,905.104747L213.597938,894.303070L212.529084,891.921240L210.722084,891.488869L207.697967,893.438329L176.185262,923.780124L173.157651,925.221359L170.639896,924.386960L168.119332,922.995029L165.043036,922.744709L162.638678,925.831988L153.000892,960.975438L152.880205,961.415346L151.269258,962.864168L146.648087,962.895310L145.078318,962.905888L141.244826,963.782008L139.328052,965.610103L136.336903,972.088081L134.301696,974.352340L131.674388,975.842881L126.508381,978.016983L125.735392,978.342289L121.936783,981.031333L118.058322,989.591520L114.458952,992.060586L112.413466,992.197124L110.781192,992.037830L109.257437,992.212295L107.483841,993.315979L105.728930,995.587823L102.077823,1004.405917L98.798003,1009.639882L81.121607,1025.823455L69.238182,1039.867929L69.238280,1039.890685L66.488839,1044.422996L64.865373,1046.399008L62.797234,1047.612681L62.105898,1048.610169L61.842638,1052.789756L61.382528,1054.705083L59.096502,1055.023673L56.269267,1053.874476L53.485115,1053.426934L51.288030,1055.827731L49.559463,1058.323347L44.998995,1061.789901L43.631136,1064.205869L43.884154,1067.183161L45.284924,1069.511896L46.432482,1072.071988L45.872345,1075.758520L43.611024,1078.910277L41.331235,1080.825605L40.349826,1082.934362L42.063821,1086.647443L44.684085,1089.507160L47.583984,1092.036909L50.030511,1094.926968L51.370789,1098.841063L50.809789,1102.383471L48.854619,1105.246980L46.430231,1107.886719L44.501662,1110.742642L43.711540,1113.920948L43.910228,1116.792043L44.376350,1119.629003L44.455482,1122.727660L43.612117,1126.012162L40.853425,1132.220856L40.037697,1135.770848L40.192418,1137.708931L41.276621,1141.255130L41.416488,1142.817733L38.027469,1162.759883L37.097971,1164.652453L35.749089,1165.350315L34.224729,1165.649940L32.782335,1166.393314L31.490237,1167.959709L28.990860,1172.313757L28.195302,1174.274595L26.305594,1180.680506L25.111962,1183.578147L23.196201,1186.625677L23.196285,1186.648433L18.144342,1195.750961L17.364446,1198.405865L13.842066,1201.360393L12.712645,1203.609476L13.138825,1206.734676L13.534267,1208.763781L14.023661,1210.868740L11.824111,1213.299872L11.704016,1213.302082L11.703107,1213.302099L11.701666,1213.302918L11.165219,1213.583638L9.662816,1214.861814L9.430934,1217.800424L9.915329,1223.611943L9.026198,1222.518924L8.305437,1224.322704L8.575087,1226.066757L9.087166,1227.822756L9.051391,1229.626536L8.328406,1230.815120L4.576217,1233.717892L2.331274,1236.692338L1.368654,1238.693220L1.059255,1240.640347L1.699809,1242.999596L2.947804,1244.253880L4.581298,1244.224016L6.357284,1242.742766L3.614069,1247.951032L2.946092,1249.844403L0.921246,1249.480064L0.297928,1252.108087L0.984515,1255.614109L2.973718,1257.865847L4.503588,1258.331724L5.926832,1258.439234L6.968298,1257.865847L7.768977,1254.712219L8.788598,1253.923812L10.232573,1253.935758L11.795345,1254.771947L10.366745,1256.157632L8.771633,1258.164486L8.145519,1259.986184L9.602736,1260.774591L25.787177,1259.394879L28.500357,1257.656800L27.696519,1253.858112L26.364046,1252.585909L24.875060,1251.761666L23.690530,1250.596973L20.375215,1236.979032L18.399277,1232.565145L17.519926,1228.306551L19.635541,1224.609398L20.457203,1230.402998L26.266142,1239.816103L27.666059,1245.239389L28.655202,1247.771848L30.788982,1249.127669L32.921164,1250.029559L33.884673,1251.271898L34.424014,1251.785557L37.001766,1253.499745L37.877830,1253.858112L38.445316,1253.392235L40.150623,1249.844403L39.031450,1249.288935L38.416149,1248.166052L38.220931,1246.625074L38.287952,1244.737675L44.578873,1250.304307L45.050916,1252.621746L46.108342,1253.589337L47.286814,1253.039841L48.037518,1250.770184L47.119151,1247.443345L43.078832,1240.556728L43.577807,1238.645438L44.538427,1239.075478L45.745082,1240.508946L46.762813,1242.157434L47.783202,1244.540573L50.622460,1245.693320L51.638089,1246.756475L51.993428,1248.840976L51.641939,1250.740320L51.089816,1252.538127L50.780026,1254.318016L51.535849,1256.408489L53.218515,1255.381171L56.072247,1251.761666L54.830574,1255.237824L51.491805,1261.772045L50.819562,1265.379604L54.023815,1286.290301L56.288754,1291.946520L59.415516,1296.880034L63.404030,1301.055004L63.091789,1305.247892L60.655359,1314.045789L60.901407,1318.184922L62.486838,1319.409341L73.744988,1325.429896L80.656290,1330.351461L82.639429,1330.709828L83.944847,1330.184224L86.242076,1329.909476L88.603501,1329.909476L90.122589,1330.208115L91.962351,1331.784927L92.305542,1333.481194L92.038507,1335.535828L91.995009,1338.223576L93.290835,1337.966746L97.130845,1338.725288L101.521604,1334.114308L102.282286,1331.551989L103.718039,1329.109125L106.919956,1328.290855L106.923156,1329.204689L104.531730,1332.692788L103.896922,1338.116066L105.358516,1343.127221L109.224662,1345.331174L111.260443,1345.641758L115.693106,1347.027441L118.118976,1347.338025L122.798063,1346.812421L124.841161,1346.191253L126.503883,1345.331174L125.487919,1344.220238L123.438210,1342.942065L123.054756,1341.819184L123.311038,1339.740660L123.822665,1338.331086L124.134377,1337.034994L123.833134,1335.314835L122.901249,1334.132226L119.392845,1331.749090L119.608473,1330.118523L120.268948,1329.079261L121.405457,1328.505875L123.007082,1328.290855L123.117271,1329.634729L123.467319,1330.243952L124.048404,1330.602318L124.788510,1331.211541L126.465146,1334.311410L128.178310,1335.816548L129.086486,1336.252561L130.015009,1336.479526L131.873411,1337.315714L133.666238,1334.526429L132.508444,1332.083566L130.350851,1330.118523L128.868681,1328.356555L127.527891,1324.856510L127.398995,1324.187560L126.088509,1323.267752L124.906795,1322.981059L123.882655,1322.539074L123.310320,1321.678995L122.981772,1321.189227L126.612823,1316.626028L128.107367,1315.969023L129.949620,1318.184922L129.224152,1321.643158L130.532937,1325.023748L132.882926,1327.723441L135.386692,1329.204689L137.150549,1327.197837L137.130820,1330.512726L139.726168,1331.068194L143.253732,1329.945313L146.073028,1328.290855L148.381867,1325.423924L152.572003,1318.149085L154.862829,1316.178070L154.873921,1319.188348L155.759427,1319.188348L156.722903,1317.462216L157.824768,1316.106397L160.252376,1314.081626L162.356891,1313.060282L162.655257,1313.920361L162.091474,1315.389664L161.556777,1316.178070L157.759318,1318.364105L152.186380,1328.010135L150.064863,1330.208115L147.571738,1331.689363L145.485988,1335.063979L144.877359,1338.796962L146.921036,1341.317471L150.833747,1341.729593L163.728603,1339.221028L163.731330,1339.973598L163.542151,1340.134863L163.257442,1340.116944L162.920799,1340.314046L163.546105,1341.227880L163.726946,1341.675838L163.739819,1342.320897L161.009540,1342.380625L157.343191,1343.055548L154.005909,1344.363585L152.336680,1346.334600L153.200322,1349.058183L156.064139,1350.957524L162.166685,1353.442197L160.806432,1353.376497L160.395497,1353.442197L161.381031,1354.863717L161.987254,1356.350936L161.971631,1357.891911L161.218054,1359.450804L160.156221,1357.318525L158.485436,1355.902979L154.112000,1353.442197L152.817378,1357.037805L150.136945,1356.315100L145.206539,1351.351727L142.969076,1353.669162L141.473710,1357.175179L141.107193,1360.920106L142.182598,1363.966218L143.072745,1365.274255L143.444418,1366.044742L143.952595,1366.653965L145.262797,1367.478207L149.337001,1368.786243L150.647071,1369.568676L145.681465,1369.646322L143.434703,1369.341711L141.786957,1368.469687L141.182005,1367.310969L140.127232,1364.121510L139.492377,1363.464506L138.752752,1362.998630L135.493234,1359.450804L136.232589,1362.891120L138.006083,1366.606183L144.185987,1376.282068L148.048378,1386.603012L145.964784,1387.809511L145.370538,1389.816361L146.009464,1391.691810L147.593812,1392.516052L156.458198,1391.614164L159.922760,1390.324046L163.277816,1387.851320L166.899367,1386.244646L171.047721,1387.600464L167.579167,1387.702001L164.726049,1388.944337L154.118281,1398.136426L150.961011,1399.922283L148.095389,1400.639015L160.685701,1410.320869L166.133724,1415.654549L175.816449,1429.332180L179.235395,1436.559225L180.072781,1437.897124L180.993486,1438.912494L182.040021,1439.706871L183.443748,1440.083155L185.457306,1439.903972L185.460506,1440.895451L183.976147,1441.677883L183.154442,1441.934712L181.920531,1441.898875L181.923483,1442.818681L184.212366,1446.282883L189.246786,1467.695236L188.965883,1472.353990L187.375170,1476.367685L184.623606,1480.166361L182.210742,1484.412994L180.235578,1490.493263L178.936895,1497.170808L178.536855,1515.793870L178.047929,1518.206864L175.828749,1524.245322L171.958384,1543.919584L171.543402,1571.221049L170.642492,1573.735579L170.644753,1574.649411L169.014034,1576.387482L170.509232,1578.863787L170.623100,1581.609701L170.215148,1584.643860L170.503752,1587.670434L172.170520,1589.999151L175.178563,1593.002968L178.466830,1595.544076L180.800218,1596.522592L183.052332,1597.121838L191.262255,1601.756516L193.889236,1602.241981L211.332326,1602.241981L219.682818,1602.240347L248.161892,1602.234776L250.103663,1602.234396L288.875017,1602.234396L327.659749,1602.226810L366.431083,1602.219225L367.257576,1600.671804L367.762050,1598.949919L367.984957,1597.152180L367.979989,1595.316514L368.201193,1592.911943L369.013816,1591.235570L370.014326,1589.688149L370.785640,1587.624921L370.565876,1585.675474L369.971087,1583.763954L370.208487,1582.428924L404.807906,1580.987698L408.179926,1579.629912L409.813098,1579.212715L411.622275,1579.432692L412.897331,1580.251915L415.543565,1582.701998L422.208864,1585.174838L424.205700,1585.425156L428.611246,1584.742470L439.972836,1585.144496L449.870138,1584.165980L459.691987,1584.863837L467.312756,1584.203907L469.657473,1584.302517L474.898395,1585.243106L480.525839,1585.516181L483.109748,1584.962447L488.087626,1583.073683L490.645125,1582.656486L491.996967,1582.254460L494.698092,1580.616014L495.930070,1580.449135L497.539683,1581.109065L501.795383,1584.044614L504.141446,1584.583177L511.276219,1582.732340L516.260971,1583.119195L523.503407,1585.789255L525.743112,1586.585722L528.768327,1585.789255L530.836846,1587.549067L533.935468,1588.838585L551.481071,1591.804475L554.105060,1591.220399L555.909621,1589.923297L557.392448,1588.565511L559.024444,1587.791800L561.237121,1588.497242L564.202364,1589.953638L566.763150,1590.590812L567.869493,1588.800658L569.694122,1589.650222L571.342409,1589.801930L572.814134,1589.187513L574.136027,1587.791800L578.039494,1589.377148L580.291501,1589.801930L581.710131,1589.346807L583.488863,1588.383461L585.567099,1588.929610L589.203256,1590.704593L594.720287,1589.923297L595.950964,1589.346807L598.540902,1586.517453L600.037410,1585.296204L601.161096,1584.787983L605.113766,1584.985203L608.733484,1585.789255L610.547167,1587.374603L611.405906,1587.791800L612.611666,1587.806971L614.471001,1586.934650L615.367823,1586.699503L616.830258,1587.374603L618.845074,1589.013049L620.793994,1590.992838L622.032034,1592.714723L622.588191,1594.868976L622.066297,1599.283677L622.117855,1602.909496L644.411460,1603.137058L664.347108,1603.341864L669.782494,1603.393401L690.747057,1603.592182L713.924956,1603.827329L734.530512,1604.032135L748.169337,1604.176257L749.374528,1604.009378L755.073291,1601.498612L763.289993,1602.757788L765.330790,1604.070062L767.844889,1606.694609L769.695261,1607.157318L770.444593,1606.884244L773.091047,1605.040992L783.304708,1602.568153L784.468678,1602.105444L784.879648,1600.838683L784.580268,1599.488482L784.548762,1598.123111L785.750055,1596.841179L786.403239,1595.900589L789.742709,1596.939789L794.048499,1602.355762L797.148609,1603.918354L796.057993,1606.247070L797.319812,1606.975268L800.682035,1606.831146L802.494901,1608.075151L805.063904,1611.060004L806.982672,1611.932325L806.086318,1608.352018L807.022320,1607.821040L810.526208,1609.933573L808.669538,1611.575811L807.866899,1611.932325L809.141391,1612.448131L810.493977,1612.285045L811.631564,1611.932325L812.288036,1611.932325L812.438904,1612.967731L812.329339,1616.248415L812.746979,1616.942478L820.715146,1615.944999L822.642571,1615.406436L823.549003,1614.044857L823.797497,1612.258497L823.791282,1610.434209L824.672418,1609.531547L826.555215,1611.628909L828.266441,1614.499981L828.686646,1615.944999L831.225373,1617.905824L829.845726,1622.009522L829.321712,1625.612585L834.467901,1626.060123L837.280221,1625.696024L838.470388,1625.020924L839.490290,1621.493716L840.750324,1621.690936L846.931669,1627.239652L848.930083,1627.891996L851.445804,1626.966578L852.981763,1629.579747L855.149757,1628.836378L857.218438,1626.428015L858.523494,1624.053786L859.313956,1624.053786L861.219130,1624.861631L862.906060,1620.534163L867.051708,1622.244670L868.790599,1621.417862L870.811319,1620.735176L873.548578,1621.956425L874.194647,1622.836330L874.912278,1625.074022L875.424705,1626.060123L876.136273,1626.503869L880.550290,1628.343327L881.571587,1629.261160L882.312268,1630.402762L882.597200,1631.479888L882.429386,1633.402785L882.204357,1634.233386L882.393897,1634.832632L883.416229,1636.080430L884.046329,1636.201796L887.092696,1637.741631L887.040205,1638.079181L888.566696,1637.809900L891.000532,1636.406602L893.609898,1635.424293L900.213675,1630.979252L905.877981,1630.095553L911.549230,1631.275082L922.601529,1634.984340L934.919423,1636.535553L935.484398,1637.210653L936.840421,1638.056425L938.463983,1638.777037L941.493753,1639.323186L942.433700,1639.948981L947.414597,1647.105800L949.038907,1648.065352L952.500075,1649.426930L955.602529,1651.729097L956.864195,1652.419368L957.738418,1653.454774L958.080461,1655.665916L958.727499,1656.894750L960.268096,1656.826481L962.007441,1656.060357L963.384752,1655.210793L963.794105,1657.528130L965.713500,1658.605256L968.234388,1659.231051L970.475075,1660.224737L971.812323,1659.405515L973.366662,1659.443442L974.802438,1660.118542L975.864411,1661.222217L976.432469,1662.909966L976.249410,1664.351191L975.878571,1665.735525L975.883247,1667.241226L976.989806,1669.793710L982.117371,1677.257736Z "/></g></svg>