<?xml version="1.0" encoding="utf-8"?><!DOCTYPE svg  PUBLIC '-//W3C//DTD SVG 1.1//EN'  'http://www.w3.org/Graphics/SVG/1.1/DTD/svg11.dtd'><svg enable_background="new 0 0 1000 1687" height="1687px" pretty_print="False" style="stroke-linejoin: round; stroke:#000; fill: none;" version="1.1" viewBox="0 0 1000 1687" width="1000px" xmlns="http://www.w3.org/2000/svg" xmlns:xlink="http://www.w3.org/1999/xlink"><defs><style type="text/css"><![CDATA[path { fill-rule: evenodd; }]]></style></defs><metadata><views><view h="1687.07215551" padding="0" w="1000"><proj flip="auto" id="robinson" lon0="13.6125492732"/><bbox h="191.2" w="113.4" x="126.24" y="-219.31"/></view></views></metadata><g class="" fill="#000" id="country"><path d="M983.823986,1685.072156L987.857787,1682.849617L991.658502,1679.472512L993.820704,1677.978793L993.634064,1667.378437L987.430608,1649.331131L984.993780,1634.018700L986.311854,1621.441146L990.929978,1612.421098L998.849043,1606.958556L999.605945,1598.436414L999.703453,1597.310711L993.479589,1583.463130L989.576361,1567.248686L988.030808,1548.667376L988.837286,1543.724387L986.416975,1538.204113L986.233166,1536.999034L983.187571,1522.985475L986.162007,1513.214950L983.641321,1502.946516L976.380980,1492.887346L969.794307,1485.195039L965.937640,1478.238768L962.814089,1475.272972L955.559107,1474.204997L945.845501,1470.640268L932.926977,1455.493779L920.366540,1440.773034L904.293226,1421.924703L891.391674,1405.623636L875.590794,1385.671239L860.994589,1367.234209L852.209351,1349.453836L848.598506,1339.235892L852.834267,1338.261724L859.099354,1338.038026L861.750818,1336.197930L861.863744,1331.435328L855.338716,1317.421731L852.114332,1299.554751L846.726899,1288.665705L829.779845,1271.917207L813.646495,1259.173625L808.501218,1252.628647L805.541899,1243.291047L799.015369,1184.185974L796.159627,1167.408567L791.046482,1160.055371L787.346143,1156.671025L785.944783,1152.500124L786.539268,1141.986278L788.604106,1132.576493L788.478374,1128.896285L792.764666,1120.641073L792.399303,1066.015229L790.026134,1063.229816L787.181555,1058.496056L782.653947,1058.856861L777.522460,1058.366166L772.352913,1050.414028L768.021468,1040.362005L769.219596,1033.268582L773.644556,1027.344166L778.443264,1022.155793L784.570883,1017.826135L802.766234,1009.101874L807.912982,1004.736136L811.105449,999.331280L813.177069,992.035808L823.592052,963.957984L839.113872,935.937897L845.822963,930.157808L852.418616,911.612459L861.457528,888.903434L865.110748,878.360735L867.745844,867.832470L872.774663,859.346359L890.000573,845.368814L902.937145,820.891887L909.647332,808.978153L912.200548,800.095172L912.777813,789.227775L911.669678,781.860174L903.133311,778.187197L897.679617,772.407132L885.143075,738.123647L872.237557,702.873260L854.200078,668.149700L834.705405,645.989287L820.629163,632.488117L816.128893,630.763489L808.937066,626.498825L803.895245,622.580530L778.090411,598.998620L751.334128,572.653017L744.424268,560.602318L730.968895,542.656174L715.997509,524.147205L708.221871,515.726174L704.466721,500.529363L714.559889,486.811838L725.272764,469.457493L738.605643,457.940859L756.008375,457.154323L784.738685,461.880759L815.671018,463.562072L846.266758,459.975753L854.183284,457.479040L862.040775,457.681086L878.570427,461.700361L907.266291,460.812801L921.995493,453.794109L905.882218,441.873429L888.508464,422.895611L872.180354,402.135491L862.205341,383.345328L852.989319,359.114410L844.374079,329.175755L838.864807,290.368811L839.350327,268.374841L841.711928,252.701967L850.013238,227.179416L844.114987,212.206464L845.209863,200.119857L844.134991,182.217234L841.238266,173.110773L829.675626,143.374028L827.414764,140.119651L817.267337,119.575923L812.432305,85.184756L800.984272,62.497774L782.943824,51.515059L772.578874,38.172701L768.546118,14.598016L761.396271,8.385023L733.178195,0.173185L709.744904,0.000000L723.150035,68.826178L724.656565,81.937577L725.685536,87.847442L726.695437,93.295483L728.453844,102.668992L738.282336,106.702701L756.793057,108.528333L770.306464,115.311309L778.499245,126.568155L779.309535,128.437079L783.667964,137.074534L784.714079,143.323517L783.788177,161.363287L781.392855,184.533536L776.973708,199.477644L779.804432,219.804788L779.102797,228.485490L777.149479,234.416941L768.971379,241.235944L757.811619,247.881764L731.165771,267.537800L723.531383,270.438579L712.306659,270.958122L702.590746,275.857698L691.114349,286.465026L666.606948,325.914182L645.666401,365.529323L638.626617,398.311071L630.634941,429.613611L612.040626,449.601665L609.535963,460.848881L608.812153,467.372087L608.309156,482.431758L606.259802,507.384522L603.451909,519.413531L600.463450,522.978219L580.245940,530.562202L568.635639,539.733703L561.800231,557.874676L559.405845,577.494948L555.495041,599.857324L553.335602,619.484861L550.257144,629.645007L543.701448,640.317495L533.441776,651.827049L524.537443,658.278174L501.259417,662.499550L489.466523,688.484479L479.479880,708.790414L479.247851,716.908464L469.768059,759.014125L452.970901,790.743149L451.928989,801.942486L451.915235,811.142974L430.806475,839.076395L425.227623,847.302723L419.855011,858.061897L425.287260,868.453053L431.362020,877.906122L432.246972,881.095631L422.613112,889.993063L405.846010,905.457136L395.817201,914.722593L393.622011,919.781071L392.285122,943.038531L389.383616,949.280451L382.717146,957.795440L372.900181,967.176362L362.892177,974.457400L351.547888,979.501451L340.617982,981.363203L334.495633,978.440685L330.970991,971.376128L324.668287,942.944722L321.530428,936.854341L314.402003,931.319599L300.285744,915.768926L286.016546,900.030638L268.849799,888.975595L265.191869,889.769364L262.372830,892.764040L257.602666,908.574486L252.852590,914.369004L243.859134,916.367861L228.216704,916.512183L216.796933,914.318492L214.185807,911.186709L211.834620,904.331426L208.651275,898.825552L195.077019,909.916678L173.724590,927.372397L166.769280,930.229969L161.470541,933.744205L154.479760,950.023708L146.017159,967.465005L134.866585,976.564500L123.987997,984.213561L117.760278,990.902881L108.828061,998.847802L91.385675,1018.576609L68.228639,1044.742176L60.078768,1058.243493L52.069839,1078.448563L47.439855,1100.811245L42.370755,1125.331535L34.937653,1164.688102L23.895661,1186.942520L14.171003,1204.656172L7.002631,1218.575987L3.223945,1230.042333L5.135433,1230.504162L0.296547,1252.116306L1.192573,1257.138692L5.761795,1263.885720L16.437692,1265.343366L20.775059,1260.335412L16.892008,1242.490063L23.106233,1246.227990L30.182235,1255.933608L36.081259,1256.907778L42.508534,1256.049065L46.815870,1257.008803L50.582365,1259.815855L48.633146,1277.343692L50.074297,1288.773946L52.516155,1298.760984L58.417862,1307.600666L61.494172,1328.115939L76.357464,1335.584564L94.019518,1341.970780L100.324172,1345.650972L102.111214,1350.464085L108.818336,1352.628903L117.035469,1353.134027L121.814145,1350.146578L126.840302,1341.545032L124.576961,1331.882724L128.247906,1332.690923L133.321336,1337.453525L139.817739,1337.677223L148.808366,1330.324054L151.341094,1333.318721L146.195893,1340.419326L145.008775,1346.776677L157.599771,1359.368704L158.072622,1363.388049L143.517627,1360.862428L138.935471,1369.095953L134.167175,1371.498900L142.014303,1386.508302L145.508836,1399.028161L161.591661,1397.245795L149.418123,1409.989349L176.154442,1443.659455L181.258459,1454.021705L185.690560,1477.755293L177.544870,1501.770300L175.290259,1528.606774L169.392355,1557.528677L166.740182,1592.230619L170.056088,1593.212001L170.612068,1596.509731L171.477663,1601.402206L175.821023,1605.702965L190.161926,1612.428314L232.856999,1612.435530L258.333876,1612.449962L296.007504,1612.457178L335.898745,1612.471610L366.193139,1612.478826L367.632275,1602.665013L369.367056,1598.587951L368.714076,1592.930575L396.189807,1592.562557L445.887344,1595.080955L467.602745,1594.734585L473.772404,1595.196412L500.899978,1593.478994L522.890652,1595.643806L532.239730,1598.053964L540.642091,1599.273474L566.976820,1600.752762L601.342829,1598.883808L613.018186,1599.323987L619.507668,1604.086573L622.621100,1613.344751L653.936070,1613.647824L685.161883,1613.958114L719.304565,1613.741633L752.274696,1613.525152L777.996556,1614.354996L790.349212,1607.795617L802.159470,1617.703238L807.927687,1619.911346L809.887761,1619.132014L814.423062,1626.109923L829.051806,1625.330590L831.376969,1626.975847L832.666827,1635.404179L846.239858,1635.187698L852.950212,1637.092732L858.404499,1636.876251L866.277352,1631.962129L871.954549,1633.607386L882.273966,1639.921419L889.646219,1645.391175L899.913215,1643.616030L923.775908,1644.554114L942.236230,1649.785741L960.561270,1664.326054L972.798526,1672.689439L983.823986,1685.072156Z "/></g></svg>