<?xml version="1.0" encoding="utf-8"?><!DOCTYPE svg  PUBLIC '-//W3C//DTD SVG 1.1//EN'  'http://www.w3.org/Graphics/SVG/1.1/DTD/svg11.dtd'><svg enable_background="new 0 0 1000 1375" height="1375px" pretty_print="False" style="stroke-linejoin: round; stroke:#000; fill: none;" version="1.1" viewBox="0 0 1000 1375" width="1000px" xmlns="http://www.w3.org/2000/svg" xmlns:xlink="http://www.w3.org/1999/xlink"><defs><style type="text/css"><![CDATA[path { fill-rule: evenodd; }]]></style></defs><metadata><views><view h="1375.52339406" padding="0" w="1000"><proj flip="auto" id="robinson" lon0="-72.5866688012"/><bbox h="298.73" w="217.33" x="-1207.83" y="-227.69"/></view></views></metadata><g class="" fill="#000" id="country"><path d="M229.964710,839.694923L229.276332,840.113234L229.132059,841.020248L230.072907,843.113265L230.547864,843.950538L230.208212,844.769046L229.740633,845.129826L229.265171,845.600409L229.029009,846.670200L229.633626,848.329789L231.114055,850.638782L232.906760,852.740718L234.460988,853.801098L236.321692,853.173654L237.122127,851.052895L237.099450,848.574492L236.503259,846.905492L234.954899,844.696890L234.865901,844.326698L235.042774,843.831017L234.877969,842.867891L234.361543,842.155742L234.013087,840.742808L232.614637,839.835544L231.121267,840.392986L229.964710,839.694923Z M256.774959,848.078812L258.392578,846.905492L257.284100,845.882758L255.022221,844.395717L254.008440,843.489060L251.536822,839.686751L250.576586,839.009112L249.622581,838.933818L249.330038,840.279685L249.715795,841.904765L250.751260,842.698481L251.964065,842.849068L252.853388,843.357297L252.854600,844.332972L251.400969,845.857661L251.890204,846.428635L251.378689,846.905492L252.609882,847.630189L254.628840,848.176065L256.774959,848.078812Z M252.717884,837.616186L252.511436,837.431090L251.970848,836.822470L251.787902,837.205210L251.851271,838.102455L252.050231,839.009112L252.446412,839.893807L254.258145,842.698481L257.287085,845.352568L259.027629,846.350204L260.172305,846.190206L260.534703,845.041984L259.636291,843.918859L257.067579,841.644376L256.780716,841.076539L256.491324,839.608320L256.235716,839.009112L254.385445,836.860116L254.108525,837.107957L253.867197,837.249132L253.662787,837.475011L253.474889,837.958143L252.717884,837.616186Z M231.189721,820.706875L231.968828,819.988397L233.015895,818.695504L233.106660,817.620368L233.132301,816.543455L233.284546,815.465675L232.716231,815.396285L231.743160,816.330972L231.151522,817.118640L230.796255,818.624795L230.449286,819.772819L229.365843,819.916489L229.347366,820.706877L230.166592,820.994258L231.189721,820.706875Z M2.746076,739.141894L2.548738,739.076013L2.178784,739.223462L1.798426,739.166992L1.434581,739.386598L1.347519,740.064239L1.224941,740.271296L0.829981,740.421883L0.489843,740.864232L0.363762,741.278346L0.427178,741.469717L0.665310,741.651676L1.036400,741.557559L1.883442,740.741880L2.236692,740.779527L2.529194,740.446981L2.842622,740.337178L2.955652,740.170905L2.746076,739.141894Z M291.138930,718.031487L290.210947,716.582087L289.698085,715.324058L289.000432,714.229165L287.986512,713.250349L286.205377,712.196240L285.860479,712.704471L285.762348,712.927214L285.663936,713.250349L286.187141,713.341329L286.454236,713.479367L286.676468,713.636228L287.043128,713.777404L285.810338,714.445634L284.667216,715.261313L284.464952,715.998562L286.076195,716.453460L283.712051,716.453460L284.195409,717.131102L285.203671,717.937370L285.503315,718.558541L284.556067,718.574227L282.918798,718.153839L282.014470,718.031487L281.151697,718.367170L279.614779,719.854217L278.699523,720.186763L278.049505,720.629112L277.687267,721.629888L277.627544,722.699683L277.884969,723.349090L278.174380,723.113797L280.705695,722.247922L281.247242,721.636163L281.693889,720.958521L282.313778,720.412643L283.367008,720.186763L284.217407,720.262056L285.547419,720.591465L289.117506,720.629112L290.746038,720.327938L292.442360,719.612650L293.581728,721.316165L294.433652,721.711456L295.341301,720.798523L296.654237,718.558541L295.339925,718.260504L293.936315,718.630697L292.515839,718.825206L291.138930,718.031487Z M434.542833,248.853614L434.422216,247.926349L433.223805,247.534333L432.419159,247.145632L431.918410,246.754496L431.129999,247.531700L430.703587,248.117171L430.429209,249.093282L430.443356,250.362358L430.652004,251.290103L431.219319,251.290910L431.511588,250.754086L431.741981,249.777858L432.331268,249.387674L433.102199,249.632565L433.750675,249.730925L434.542833,248.853614Z M793.724271,1373.523394L793.793566,1373.356054L793.866163,1373.180746L793.935246,1373.005438L794.008062,1372.838098L794.077364,1372.670758L794.146452,1372.495450L794.219057,1372.320141L794.288580,1372.160770L794.354372,1371.993430L794.428740,1371.818122L794.501353,1371.642814L794.570666,1371.475474L794.643497,1371.308134L794.716329,1371.140794L794.785647,1370.973454L794.858268,1370.798146L796.524439,1358.375162L798.197293,1345.944215L799.881120,1333.521240L801.574314,1321.098270L803.277049,1308.667335L804.986543,1296.244372L806.715102,1283.813445L808.447606,1271.390490L810.191270,1258.967538L811.949815,1246.536621L813.718632,1234.113676L815.499540,1221.682765L817.289654,1209.259825L819.097981,1196.836887L820.917728,1184.405983L822.751235,1171.983050L823.453786,1167.249746L824.393860,1163.377043L824.352328,1161.807243L825.538882,1156.540048L825.448456,1153.009992L826.488146,1145.894100L826.265855,1142.440291L826.262495,1142.387950L827.694852,1138.076979L826.923390,1135.766107L824.313409,1131.088584L824.296633,1130.188141L824.715644,1128.602405L824.856036,1127.741805L824.472411,1124.817357L824.618704,1124.634081L824.337646,1124.052379L824.127460,1123.741607L823.777683,1123.574268L823.092205,1123.454740L822.673752,1123.064282L821.161942,1120.609977L820.523139,1120.155772L819.032398,1119.438605L818.461657,1118.904714L818.001491,1117.868806L818.037873,1117.095859L818.196089,1116.370724L818.113750,1115.470281L817.701139,1114.633586L817.224721,1114.211254L816.728180,1113.924388L816.269103,1113.462213L815.645398,1112.362557L815.474565,1111.589611L815.661580,1109.613418L815.112261,1108.521730L812.525348,1105.246668L811.831299,1103.437814L812.259234,1102.043323L814.363839,1098.409677L814.798960,1096.584886L814.607412,1095.652569L814.213334,1095.007119L813.763278,1094.417448L813.400262,1093.636533L813.257396,1092.879524L813.212700,1090.592558L812.887875,1088.879327L812.333580,1087.333434L811.488211,1085.970817L810.295510,1084.823350L809.136450,1084.122120L803.680857,1081.819218L802.647812,1080.878932L800.604383,1078.360880L799.900306,1077.803084L798.329555,1076.974358L797.646730,1076.432498L797.132127,1075.659552L796.487967,1073.938352L796.047624,1073.213216L794.878481,1072.376522L792.170051,1071.691229L790.897953,1071.125464L790.165816,1070.440171L788.640738,1067.882276L785.166230,1064.288474L782.516957,1060.846074L781.719140,1059.236433L781.323315,1056.519168L781.409663,1052.646467L781.454342,1050.678243L781.580333,1045.498705L781.767577,1038.175636L781.984027,1029.776816L782.201306,1021.377996L782.408251,1014.054927L782.555395,1008.875388L782.613193,1006.907164L782.765223,1001.544350L783.770134,1002.588226L785.049692,1002.181831L786.512310,1001.416853L788.061105,1001.369042L789.669457,1001.727626L790.962326,1001.480602L792.287800,1001.050302L796.957954,1000.731561L799.725732,1000.094079L802.303949,999.034266L804.672998,997.623838L807.286512,995.328904L808.321783,995.229297L810.237928,996.205441L812.422395,996.723395L813.422037,995.432495L814.144355,993.743168L815.503204,993.077797L816.769437,992.906473L818.973327,991.304801L820.320042,990.635445L822.067174,990.388421L823.441020,990.754973L824.672363,991.703227L829.460828,997.205490L829.894036,997.472436L831.275780,996.755269L832.781151,996.285126L834.014797,996.269189L834.645440,997.113852L834.345598,999.233479L835.576097,999.145825L838.067428,999.568157L839.171183,999.488472L839.658765,999.121920L840.393410,997.958516L840.923324,997.583995L841.636094,997.568058L842.909040,998.101949L843.526151,998.205540L844.800925,997.735397L845.228497,996.763237L844.981005,995.372731L844.249959,993.647546L843.747946,993.125608L842.274395,992.340708L841.728866,991.751038L841.531143,990.687240L842.027970,990.013900L842.744336,989.416261L843.212235,988.599488L843.223512,986.830476L842.575904,983.392059L842.738337,981.782418L843.153811,981.503520L843.805730,981.383992L844.313279,981.025408L844.317175,979.981532L843.876619,979.336082L843.076349,978.798207L841.504727,978.108930L840.417282,976.917636L840.823838,974.132637L839.343312,973.088761L839.148939,972.299877L839.085735,971.399434L838.908478,970.686252L838.409782,970.124471L837.262571,969.255902L836.113105,967.614386L835.129088,966.825503L831.742950,964.845325L830.643397,964.618222L829.558491,964.932978L826.313954,967.582512L825.616587,967.439079L824.339386,966.574494L823.995733,966.223879L823.791069,965.877248L823.498401,965.534602L822.890634,965.207893L822.242159,965.112270L820.071260,965.462885L817.832666,965.502728L817.129641,965.407106L814.180082,964.243701L812.604016,964.179953L806.048667,965.271641L805.335885,965.084380L805.245189,963.391069L804.652362,962.976706L803.779323,962.809367L802.901664,962.765540L801.186588,963.295447L798.330031,965.375231L796.775974,965.207893L796.834796,960.594118L796.911108,955.295050L796.993574,950.003951L797.071768,944.704882L797.157878,939.407806L797.243143,934.106745L797.332699,928.811660L797.423090,923.514583L797.521301,918.217505L797.059532,915.227315L798.079890,915.234682L800.370449,915.251221L801.625248,914.832873L804.565645,913.107687L805.741417,912.812852L806.946127,912.848710L808.397972,913.083782L811.195541,912.816836L815.910308,910.404364L818.523892,910.213120L823.462157,911.394454L828.590721,913.870674L831.375923,914.261131L834.636127,914.261131L843.225720,914.253163L855.372911,914.241210L869.298927,914.225273L883.221423,914.209336L895.368611,914.197383L903.961719,914.189415L907.220216,914.185430L912.347268,914.177462L911.191078,913.530019L910.627309,913.055892L910.433487,912.547898L910.513302,911.577730L910.332327,910.904389L909.792039,910.523892L907.246094,910.400380L907.117198,909.007880L907.288131,907.318552L906.663865,906.404164L904.939525,906.161123L904.497071,905.842382L905.851213,903.621155L910.104470,892.084718L910.700269,891.540866L911.016267,892.052844L911.003666,893.598738L911.139385,894.172472L911.679628,894.756167L912.175321,895.023113L913.574488,895.345838L915.129691,896.064998L916.138032,897.128797L916.789581,898.539226L918.217932,903.485690L919.571635,906.844425L921.360488,909.842583L923.615693,911.966196L925.878790,912.723206L928.332572,912.635552L930.769181,911.986117L933.005214,911.075713L935.730954,909.342558L937.829974,907.139260L946.225733,894.744214L951.548316,888.463021L954.194707,887.050599L956.066239,885.241743L957.240272,884.407039L959.624104,884.064393L960.259306,883.717761L961.434769,882.347174L962.081693,881.928826L963.107340,882.040386L966.009160,883.225705L967.087052,883.825337L968.770966,885.741768L970.103182,888.596494L972.177392,894.624686L973.755668,897.889791L981.025505,909.027801L983.571167,915.063960L985.799018,923.171936L986.377409,928.062619L984.463412,950.254959L984.678294,954.275079L985.230322,956.219399L986.649734,956.474392L992.593289,954.613741L997.019416,953.223234L999.636238,952.633563L998.249898,949.334595L997.926608,947.509803L999.208306,944.653087L999.156972,942.808374L998.656050,940.911865L997.954518,939.375932L997.270157,938.549197L996.496585,937.841991L995.868277,937.049123L995.623135,935.979348L996.122939,932.819828L995.874979,931.108587L995.243086,929.451134L993.825027,926.743828L993.183443,925.068445L992.937838,923.550441L992.980039,920.114014L992.807370,918.444608L987.190105,900.852092L986.002649,898.240406L985.845714,897.405703L985.562207,896.812048L984.299423,895.810005L983.786053,894.817923L983.288509,894.192394L982.818117,893.397533L982.659948,892.431349L983.781376,890.839635L984.088872,890.275862L984.344914,888.923204L984.172755,884.747694L983.759147,883.506595L982.744881,882.887042L981.520077,882.458734L980.499363,881.805314L979.931419,880.777374L978.864548,877.498323L978.420844,875.115732L977.385091,872.175344L977.380363,870.752961L978.171353,869.729005L979.507035,868.326543L980.437680,866.748774L980.027503,865.202878L979.659291,864.509616L979.659590,863.047390L979.426419,862.282411L978.898263,861.692739L976.627912,860.126923L974.247314,859.246400L973.632163,858.812114L972.363067,857.349889L971.627865,856.744280L970.886438,856.493271L970.295383,856.094844L969.914262,855.166510L969.623360,854.114664L969.310180,853.329763L968.691419,852.716186L967.198753,851.791836L966.561618,851.226070L966.129293,850.425232L965.796609,849.564630L965.323583,848.879336L964.473854,848.596453L964.201383,848.297633L963.163158,846.783611L962.935518,846.154097L962.659745,845.656063L961.218105,844.855226L960.605028,844.337271L960.334403,843.755568L959.953463,842.301310L959.680606,841.655858L958.672848,840.619949L957.421696,840.181679L954.365670,840.125899L953.570196,839.404747L953.201355,837.711433L952.888140,834.237150L952.422510,832.850625L951.492410,831.117468L950.280074,829.973983L948.974818,830.340535L947.605861,830.906302L945.924898,830.519827L943.148057,828.977915L942.424482,828.033643L941.852941,827.762713L940.533098,828.507771L939.768326,828.579488L938.278453,828.495819L936.909040,828.902214L936.208189,829.834533L935.649040,830.898333L934.632330,831.798778L934.782312,826.523605L935.958167,824.368115L937.696772,822.579178L940.674956,819.523243L943.650183,816.467308L946.629480,813.411372L949.609240,810.359421L952.586105,807.303485L955.570454,804.251533L958.548466,801.191613L961.533861,798.139661L962.839769,796.800945L963.661904,796.358691L965.156919,796.027996L965.866375,795.753081L966.715650,795.035912L970.962808,789.212898L972.793422,785.987629L973.193107,782.766344L970.995447,780.114810L968.464702,778.973315L967.480315,778.190405L966.575692,776.694310L962.300236,763.155744L960.435967,760.237262L957.908550,758.880616L956.513483,758.984207L955.241072,759.251154L953.996583,759.235217L952.699373,758.490157L951.539987,756.848635L951.105448,755.051727L950.815508,751.238774L950.218792,749.340266L947.630020,743.993365L947.351310,742.345866L947.264408,737.566725L946.713218,735.733956L946.270253,735.455057L946.277582,735.413644L946.504409,734.132276L946.094295,732.707896L945.367896,731.829363L944.851926,729.335204L943.615149,727.805241L942.366052,726.619917L941.827594,725.151710L941.581135,722.739228L941.053238,720.344676L940.747881,717.788760L941.169161,714.890195L942.452898,712.360176L942.653185,711.441799L942.458480,710.439752L941.551225,708.742448L941.360390,707.732433L941.478955,707.114869L941.894595,706.041105L941.883400,705.413580L941.625078,704.955388L940.793967,704.618716L940.524538,704.311926L940.028122,701.616559L939.567172,700.598574L938.329476,699.576606L938.315185,700.100539L937.723736,699.616449L937.160338,699.006853L936.723323,698.275737L936.525251,697.421108L936.667076,696.351328L937.074851,695.839348L937.559601,695.468809L937.949587,694.837300L938.068522,694.092239L938.037982,691.631944L938.526847,689.591990L938.860468,685.308884L939.248327,683.631499L939.964910,682.394379L940.526887,681.157258L940.780714,677.760654L941.299506,676.318342L940.971886,675.599179L941.086573,675.148954L941.322751,674.629005L941.374152,673.684729L941.209779,673.160795L940.629763,671.804145L940.510786,671.292164L940.618302,669.495251L941.163662,666.528949L942.128631,663.526787L942.286827,662.062561L942.266534,658.635034L942.425641,658.238597L942.756676,657.852121L943.088307,657.324202L943.256190,656.505430L943.021955,655.979503L941.845631,654.375825L941.442065,653.632755L941.225603,652.861794L941.103590,652.106771L941.063598,651.311904L941.114003,650.431375L941.320882,649.489090L941.985775,647.672252L942.145993,647.004883L942.115581,645.176092L941.891991,643.823424L941.493894,642.669971L940.915723,641.428863L940.346583,638.470525L941.061940,635.227309L942.840010,632.181315L945.441606,629.802690L945.759777,629.738942L946.518330,629.870423L946.833107,629.802690L947.212869,629.444104L947.896692,628.557598L948.272171,628.224909L950.304799,627.356333L950.891093,626.908100L952.192096,625.368169L952.944513,624.772517L953.766830,624.537444L954.151906,624.121085L954.985022,621.332077L955.409888,620.764315L955.903036,620.262294L956.326351,619.630783L956.540953,618.700450L956.324001,618.325926L955.342851,617.204346L955.121622,616.855721L955.048737,615.335711L954.418751,610.803574L954.524672,607.267510L955.168549,603.960544L956.353142,600.902596L958.066909,598.121556L962.257290,593.792617L962.921179,592.571430L966.254382,588.599085L967.248916,587.923747L969.741994,586.742403L970.602789,585.965465L970.908293,584.646662L970.803346,582.873650L970.336668,581.321766L968.632669,579.909333L966.268078,575.460864L966.350202,572.494555L966.686930,571.428756L967.450287,570.530296L968.837437,569.390101L969.280134,569.026224L969.211616,569.019112L966.535688,568.741347L964.698722,567.129699L962.954415,565.161456L961.023043,563.760976L950.445637,560.950054L945.715751,560.493852L944.524227,560.097414L943.933315,560.123312L943.106906,560.577522L941.800743,562.047728L941.065836,562.709121L940.302236,562.858532L939.382942,562.830642L938.595165,563.073684L938.232761,564.047845L938.076788,564.834744L937.696380,565.611681L937.142977,566.203350L936.488816,566.442407L935.827535,566.577874L933.440580,567.492270L930.635911,567.972378L922.001799,567.034076L919.011658,567.492270L911.166277,570.641857L908.654463,570.653810L904.243152,569.261298L902.840861,569.074036L901.366728,569.253329L896.316653,570.926734L892.079255,571.179737L891.321628,571.572190L889.475194,573.345203L888.553580,573.811365L886.927342,573.596213L884.152444,572.108078L882.755535,571.757460L881.233735,571.572190L876.948985,570.076087L875.512485,569.809139L871.167476,570.076087L869.713990,569.739413L868.112883,569.089973L866.593198,568.685567L865.378983,569.074036L862.866621,567.789100L861.470480,567.420552L859.820767,567.492270L858.502887,568.143702L856.515995,570.211553L855.018797,571.185713L850.848258,575.604299L846.895729,578.068587L845.410604,576.773690L842.628912,573.014506L841.292174,572.231591L839.460452,572.598147L836.141776,574.315379L834.428706,574.863220L834.364929,574.863220L833.575150,574.863220L831.698606,572.048314L826.790324,564.681348L821.884968,557.320360L816.982918,549.955387L812.091103,542.590416L807.195448,535.227438L802.301403,527.862469L797.412451,520.497502L792.528489,513.136520L791.420531,511.471086L789.286788,509.303631L787.365149,508.765751L784.829974,508.917155L782.341319,509.614406L778.422811,512.048808L776.290218,511.945217L769.374582,508.128265L768.380167,507.725851L768.172101,507.514684L767.787125,506.821417L767.479607,506.594312L766.826622,506.546501L765.266241,506.777590L764.541853,506.761653L763.474306,506.438925L762.797862,505.984716L759.546743,501.068101L759.081005,500.570064L757.980951,500.789200L756.038361,501.474498L754.923683,501.522310L752.643033,500.928650L752.012395,500.661703L751.087240,499.733363L750.650866,499.482353L748.633972,499.530164L744.509756,500.625844L741.540962,500.872870L738.909605,501.853006L737.499871,501.904802L736.947261,502.315184L736.602771,503.072199L735.833956,504.143973L732.859399,506.458847L729.412574,507.889207L725.711339,508.379275L720.939245,507.793584L720.286591,508.251778L719.702071,508.953013L718.812423,509.646280L717.592224,510.072599L716.936572,509.861432L716.432409,509.355427L715.651726,508.921139L712.340909,508.829500L711.441036,508.391228L711.119611,507.602338L711.103546,506.630171L710.996908,505.733705L710.406181,505.199810L709.375170,505.076297L706.525981,505.685894L705.399122,505.590271L703.237517,504.912941L702.174619,504.797397L701.108384,505.048407L699.286294,505.976747L698.465814,506.227758L697.158738,504.956769L695.662210,504.518497L694.416043,504.885051L694.341299,505.004580L694.355230,505.100203L693.014232,505.004580L692.967498,504.940831L692.859497,504.733648L692.703489,504.311313L692.384971,504.008507L691.793083,504.155926L690.850591,504.753570L690.355948,504.928879L689.887924,504.865130L689.111366,504.235612L688.748799,503.614062L688.207563,503.167822L685.908177,503.072199L685.039084,503.215633L684.575359,503.777418L684.793881,505.048407L682.884155,504.490607L681.271690,504.610135L679.651801,504.924894L677.702119,504.956769L677.822086,506.327365L677.386697,506.606265L676.659290,506.438925L675.906467,506.478768L675.033421,507.096333L674.345857,507.729836L673.596583,508.231856L672.532272,508.431071L670.310883,508.219903L664.727674,506.730502L662.723651,506.195883L662.711692,506.188308L661.962618,505.713784L660.430311,504.191785L659.544788,503.570235L657.713385,502.621974L656.959359,502.052220L655.846455,500.498347L652.419842,492.338521L651.770975,490.163099L651.360240,487.919945L651.264095,485.628979L651.339246,484.967587L652.105236,481.831953L651.966697,481.429540L651.611573,481.178530L649.403078,477.744074L647.157466,477.018934L641.576299,477.114557L638.276669,476.417307L636.603514,475.769110L635.345635,475.281785L632.935235,473.245815L631.212364,469.835267L631.061190,468.018433L631.539758,466.428704L632.181794,464.878817L632.521119,463.181513L632.349629,461.707328L631.549924,458.695210L631.414524,457.121419L632.373327,449.041297L633.927856,444.331879L634.146033,442.977225L634.104112,439.634415L633.876370,438.295698L633.435198,437.443063L632.089423,435.582406L631.809393,434.905079L632.079219,434.004633L632.710571,433.514567L633.496042,433.195825L634.239632,432.789429L635.286662,431.849140L636.130630,430.817212L636.743726,429.605993L637.130943,428.099937L637.871114,426.711418L639.152644,426.526149L640.572573,426.795088L641.737051,426.803056L642.914456,425.038023L642.912191,422.075717L641.680655,416.814486L639.630723,412.019418L639.337704,410.302198L639.473293,409.053130L640.191314,406.531089L640.373056,405.276045L640.241047,403.979166L639.838877,402.686272L639.231213,401.520874L638.468830,400.602501L638.434160,400.580778L637.817062,400.194114L637.183687,400.002869L636.509695,399.700065L635.747260,398.943055L634.228406,396.984789L632.972085,395.357217L631.708869,393.731638L630.449370,392.106059L629.186665,390.478488L627.934784,388.848925L626.672502,387.221355L625.417356,385.595777L624.152083,383.966215L622.976690,382.446220L621.738575,379.854461L621.162626,376.756701L620.540331,373.388013L619.915237,370.021319L619.294549,366.652633L618.667469,363.287933L618.048308,359.921242L617.426551,356.552560L616.805424,353.187864L616.188721,349.821176L615.918807,348.364935L614.841496,346.860883L615.905455,345.087895L615.580332,344.201401L614.488127,343.446388L613.265355,342.061864L612.730272,342.683405L612.229530,342.671453L611.648113,342.444351L610.871000,342.420445L610.023052,342.699342L609.467940,343.012105L607.063126,344.739274L605.663227,345.338903L604.398083,344.968368L603.276764,343.083822L602.986790,341.410440L603.324057,338.173245L603.143023,336.292685L602.970587,335.950040L602.371708,335.226901L602.159398,334.840430L602.184161,334.551573L602.491214,333.870268L602.526513,333.581411L601.819965,330.788461L601.431400,330.212739L599.872069,330.272503L596.776927,333.382199L595.186167,334.360329L593.423889,334.908162L592.191954,335.790671L589.742356,338.264883L587.229127,339.613548L584.385347,340.055799L576.926452,340.262234L575.963787,340.288877L575.090013,339.665343L575.193644,337.989970L576.063227,336.495881L578.666228,334.545596L579.936141,333.254704L580.869275,331.688899L583.529968,325.091006L589.410573,316.080669L590.870909,312.660210L591.922112,311.634272L594.739896,309.713875L595.888938,308.422986L596.673040,307.006595L598.655825,301.785272L602.722758,295.269082L605.106129,290.368496L605.747157,288.372405L605.552531,286.946057L605.028400,285.525685L604.691978,283.541548L604.828693,281.955833L605.553447,278.937795L605.724677,275.931711L609.988547,262.380738L612.283354,245.489789L612.318614,243.981777L612.448960,242.876493L612.492011,242.511614L613.073927,241.003602L614.216732,239.425867L615.413442,238.136986L616.442692,236.714634L617.918508,232.666710L622.402904,227.214365L624.426344,223.857698L628.303986,213.341471L630.071750,209.921059L631.983538,207.640121L635.073923,205.323325L636.414429,203.956754L637.746829,202.076225L640.460115,195.621867L641.061408,194.751325L642.434738,193.201482L642.994097,192.390704L643.227815,191.641679L643.375216,190.171520L643.721332,189.476282L644.982977,188.571875L646.454069,188.318880L649.374266,188.179434L653.230786,186.607678L654.611191,186.290937L655.921262,186.446319L658.396531,187.189367L659.606975,186.846729L660.377017,185.852678L662.650306,181.629455L664.928557,177.402249L667.204413,173.177033L669.481376,168.953809L671.759568,164.730584L674.038993,160.507358L676.319654,156.284131L678.601678,152.058911L679.373080,150.632575L680.663109,148.748058L682.047675,147.755997L683.828731,147.246022L687.868084,146.090610L691.907679,144.931213L695.947014,143.775801L699.982842,142.620388L704.022410,141.460991L708.064964,140.309563L712.101015,139.150165L716.140555,137.990768L718.003280,137.460872L720.778538,136.162028L723.234477,133.942837L724.488612,133.193810L726.523331,133.255845L726.523522,133.255486L726.526674,133.249212L726.863520,132.628055L728.445412,128.499559L728.809657,127.840756L729.715060,127.633704L730.894189,127.150582L731.915529,126.551385L733.386771,124.860458L738.246528,121.986821L740.158434,120.471574L741.047025,119.285727L741.992192,117.651267L742.523002,115.913280L742.187866,114.413717L739.904319,110.156587L739.586530,108.067236L735.999784,100.236867L735.854711,98.768672L735.590548,98.144375L735.318399,97.723995L734.680724,96.425206L733.432159,95.333470L731.263231,94.053504L728.211637,93.382149L726.875752,92.820595L725.608421,91.688076L725.010598,91.368084L722.582059,91.424553L721.722810,91.145345L721.280414,90.806530L720.426478,89.793222L718.430860,88.243458L717.081843,87.515633L715.729071,87.211327L710.822052,87.211327L709.360934,86.881923L707.399340,85.815283L706.099589,85.583132L704.614444,85.893712L703.308677,86.725064L702.226226,87.917191L701.438125,89.316372L701.829777,89.793222L702.477830,89.040300L704.382729,87.283482L705.315397,86.637223L705.008769,87.060742L704.868759,87.503084L704.669637,88.739131L705.075932,88.224635L705.640577,87.892094L706.328204,87.735235L707.090334,87.738372L706.387013,88.249732L705.756952,88.939911L705.595215,89.542248L706.277353,89.793222L706.724469,89.611266L707.323583,89.215982L708.058408,88.848933L708.907982,88.739131L708.185256,89.620678L707.271140,90.075568L706.315731,90.408109L705.490126,90.897508L705.235875,90.994760L704.624934,91.361810L704.250916,91.766505L704.706356,91.951598L704.987995,92.183749L704.842693,92.707657L704.542439,93.244114L704.347335,93.526459L703.926225,93.526459L703.701044,92.453546L703.094760,91.851209L702.731129,91.161030L703.255423,89.793222L702.620299,89.865377L701.946434,90.063019L701.314918,90.408109L700.830558,90.897508L700.541012,91.559452L700.737518,91.788465L701.091937,91.838660L701.260482,91.951598L700.946426,93.347640L700.411073,94.229186L699.540944,94.891129L698.244248,95.634639L697.992324,95.697382L697.046939,95.634639L696.780237,95.794634L696.772785,96.152272L696.824848,96.525595L696.741963,96.735786L695.714625,97.074600L695.367789,97.033817L694.895050,96.735786L694.091455,95.625227L694.368430,94.574275L695.325999,93.677043L696.571595,92.999414L695.800436,92.557073L695.238561,92.685697L694.147106,93.526459L693.800750,93.601751L692.589273,93.526459L692.316622,93.733513L691.962674,94.740545L691.772874,95.107594L689.117965,97.510667L685.864575,99.894916L686.300666,100.949005L686.719067,100.949005L687.172584,100.340394L687.880790,99.957659L688.725304,99.800801L689.602601,99.894916L690.425064,100.274513L690.807436,100.773323L691.132517,101.347425L691.777815,101.949761L691.236485,102.721505L691.424792,103.408544L691.865772,104.104995L692.085844,104.895561L691.739468,105.635933L691.005242,105.748871L690.096454,105.629658L689.217733,105.679853L688.573399,106.056313L687.931564,106.727666L687.422377,107.599798L687.179831,108.603691L686.818930,108.857801L684.743684,109.893065L683.594792,109.281318L682.688553,107.333139L681.715204,106.733941L684.746501,103.452465L685.106028,102.021916L682.762183,101.422717L675.725273,102.799934L673.676228,101.949761L672.031052,102.966204L671.408810,103.628146L671.190488,104.632039L671.430152,104.588119L671.994839,104.995951L672.589400,105.617110L672.935581,106.206897L673.114152,107.788028L673.105460,112.123589L672.901625,113.629427L672.378007,114.558026L670.716247,116.804234L669.864166,119.389254L667.167323,123.630692L666.136790,126.397665L665.977226,127.075290L665.644359,127.878402L664.309635,129.271300L663.386059,130.482241L659.688026,132.101013L656.593092,134.491525L654.362089,135.096995L652.525949,136.715766L651.407246,137.412214L650.125150,137.779261L646.083043,137.939256L644.508696,138.525903L642.949917,139.686649L641.463049,140.499172L640.104101,140.044285L637.943382,141.703838L636.853466,142.252839L632.675020,143.250453L630.135163,144.207284L628.839581,145.044903L616.354007,155.861792L607.868026,160.705547L603.747402,164.834031L601.416698,165.982226L600.628268,166.697495L599.584829,168.190776L598.952897,168.827617L598.148565,169.091137L597.792342,169.370343L596.882825,171.196161L596.330361,171.886333L595.966538,172.200047L594.158468,173.279225L591.988800,175.039163L591.515766,175.694826L590.825425,176.121478L583.289750,177.413981L572.245394,177.426530L570.429402,177.429667L562.752317,178.107290L554.606621,177.451627L552.000760,176.507346L549.897034,175.067397L546.841084,174.320757L546.350952,174.094883L545.244146,172.890219L544.166273,171.974173L542.890939,171.396938L541.192554,171.196161L540.637001,171.312235L540.220781,171.447133L539.937808,171.742024L539.782005,172.294162L539.275047,172.294162L538.757597,171.669870L538.447679,172.131030L538.089020,172.931002L537.407558,173.298048L536.679140,173.006293L536.241527,171.811041L535.605068,171.196161L535.505971,172.777282L535.084421,172.777282L534.961391,172.498076L534.911400,172.460430L534.828940,172.457293L534.610478,172.294162L534.419818,172.742773L533.635325,173.831362L533.368544,173.119231L533.276208,172.789831L533.268692,172.294162L532.761733,172.294162L532.750945,174.138803L532.243854,174.493300L531.387503,174.264288L530.323983,174.352128L529.322725,176.221866L529.188805,177.043798L528.944505,177.382609L528.622416,177.599072L528.236667,178.041410L527.253724,179.446850L526.835155,180.196627L526.627858,181.006010L526.695120,181.209925L526.857792,181.341685L527.020921,181.555011L527.070084,182.006759L526.898165,182.380079L526.204128,183.042017L526.061109,183.349457L526.208625,184.083548L526.728894,185.476440L526.808481,186.241903L526.663116,186.991680L526.193740,188.306143L526.125971,189.140623L526.362423,189.868440L527.227941,191.170354L527.370545,192.083263L527.115655,192.691869L522.477315,199.581035L521.731342,201.297052L521.049701,204.236555L520.802018,204.688304L519.778233,205.946298L519.533803,206.344715L519.374122,206.984693L518.509850,208.666201L518.440616,210.793185L518.349790,211.345322L516.138850,215.379689L515.951071,216.082409L515.639962,216.308284L514.269544,217.710587L513.601272,218.102730L513.120434,218.215668L510.441886,218.385073L509.426401,218.215668L508.864787,217.318444L508.754673,213.604066L508.401593,212.082551L507.614617,211.044156L506.277309,210.774362L506.460595,211.627665L506.063645,212.273917L505.492821,212.970363L505.159697,213.980523L505.224927,215.153815L505.567217,215.887907L506.156989,216.076135L506.951485,215.602426L506.586002,216.929438L505.688855,217.600787L504.585576,217.657256L503.582696,217.136490L503.638142,214.256592L503.799169,213.497403L503.108762,213.472306L502.660680,213.174277L502.461714,212.628414L502.512645,211.822168L501.790183,212.656648L501.403333,214.011894L500.931484,215.222832L499.971631,215.602426L499.587873,215.056563L499.536650,213.927191L499.753836,211.583745L499.973321,210.542213L500.466715,208.979916L501.071235,207.681138L501.619069,207.417618L502.547360,207.932110L504.162613,207.932110L504.592635,208.666201L505.415176,207.775253L506.274891,208.468561L507.190032,209.663813L508.194412,210.291242L506.746741,206.670978L506.128462,204.443607L506.461573,203.445995L507.049457,203.113458L507.133097,202.322898L507.101786,201.428812L507.340158,200.770012L508.127777,200.371595L508.855685,200.412378L509.583588,200.635115L510.366433,200.770012L516.880704,200.973926L520.269969,200.258658L521.306715,199.444793L518.614076,199.794360L514.110634,200.111212L509.550872,199.584172L506.078953,199.103628L502.795933,198.124509L497.958094,196.238403L491.524393,193.188005L487.979721,191.822389L486.485959,191.239976L484.846218,190.334043L484.412567,190.815067L484.529758,191.233641L484.529965,192.584445L484.554969,193.999311L483.396649,195.024396L481.078959,195.274422L479.178263,195.268181L478.951940,196.586063L477.215789,198.060015L476.280610,199.183048L474.947501,199.758660L473.694618,199.838280L472.734863,200.299440L472.066695,200.770012L471.744210,201.447635L471.292444,203.207572L470.947820,203.979309L470.958363,205.212207L469.965245,206.407458L468.532700,207.304681L465.910167,208.007401L461.421677,211.216699L460.665819,211.546099L459.895290,211.753151L459.119299,211.822168L458.363066,212.157842L457.190180,213.644848L454.714215,214.570306L454.081662,215.922415L454.370233,217.362364L455.707235,218.237628L456.032672,217.682353L457.147170,216.656507L457.094496,217.443930L457.129380,218.058810L457.250373,218.617222L457.494083,219.244651L455.944036,220.781852L455.518689,221.396732L455.055539,221.396732L455.067312,221.199092L455.086941,220.869692L454.682042,220.355200L454.749632,220.054034L455.006085,219.821886L455.167044,219.526994L455.062827,219.056422L454.752659,218.849371L454.371270,218.727022L454.048453,218.501148L453.644163,218.623496L453.069350,219.338765L452.325276,220.581075L451.616687,221.183407L447.086078,222.450813L445.372118,223.316665L444.942283,223.451562L444.927223,223.843706L444.449397,224.646815L443.887526,225.333850L443.631836,225.368358L443.392393,226.290679L442.928559,226.441262L442.344479,226.387931L441.746535,226.707919L441.541675,226.861640L441.010154,227.084377L440.786183,227.234960L440.718314,227.589457L441.193534,228.364333L441.161701,228.762750L440.519150,229.418414L439.700046,229.936043L438.830850,230.274855L438.038032,230.394066L437.326736,230.720329L436.622462,231.441873L436.246139,232.166554L436.499703,232.495955L437.323491,232.740652L437.535106,233.361807L437.491405,234.199425L437.549962,235.080964L437.445176,235.269193L437.015400,236.251120L436.947410,236.706006L437.613770,236.768749L438.085838,236.900510L438.347639,237.233047L438.445922,238.807896L438.278184,240.740379L437.766625,242.377971L436.830012,243.074418L435.798384,242.509731L436.115961,241.173306L436.933610,239.585909L437.362515,238.283992L436.701028,238.751427L434.627859,241.204677L434.161477,241.637604L433.310515,242.045433L432.864936,242.500320L432.565411,243.099516L432.124679,244.517507L431.830062,245.176309L432.452998,245.038274L432.821958,244.762205L433.070011,244.288495L433.314061,243.551265L433.777329,243.551265L434.122666,245.587275L434.440197,246.104905L435.039753,245.703350L435.503032,245.703350L435.538018,247.485252L435.782434,249.562046L435.732613,251.293753L434.907663,252.021573L432.359543,253.753281L430.954277,254.117191L430.478734,252.548614L430.077848,253.191731L429.915129,253.866218L430.001192,254.531295L430.328304,255.177549L428.776788,255.108531L428.560613,255.754785L428.784755,256.708479L428.553394,257.574334L427.889698,258.477834L427.463152,259.431529L426.957047,260.184447L426.318948,260.968675L425.348734,261.693545L423.327968,262.937988L422.188577,265.523743L423.443303,265.747978L426.328285,263.985802L429.207079,260.766996L432.114096,258.688403L434.372685,257.332773L434.000417,258.107650L433.900435,258.848019L433.867668,259.619759L433.729969,260.491888L433.452375,261.351469L433.214444,261.803219L432.686728,262.600056L431.877744,264.325493L431.591847,264.749009L431.112563,265.031353L430.581259,265.159976L430.306010,265.409380L429.904069,265.999180L429.870083,267.532166L430.720784,270.185736L430.423725,272.661622L429.246437,277.054833L429.188071,278.647701L428.820710,280.205045L427.931533,282.798345L426.950774,284.926661L426.438584,286.576616L426.394483,288.348720L425.005105,292.597008L424.262149,294.662670L420.240500,298.965475L420.357342,299.732248L421.181566,299.083807L422.098362,298.671326L423.469795,298.613103L424.152604,299.062120L425.034230,299.852312L426.100046,299.843278L426.787129,301.386771L427.240712,301.857716L428.021988,302.978194L428.644361,305.100725L428.349139,309.639754L426.774766,314.532802L424.957681,318.071384L422.247057,320.608715L421.259936,321.376101L419.606720,320.862418L419.546985,320.843595L418.312054,320.445172L416.803378,320.162825L415.242146,320.463995L413.909944,321.188686L411.739562,322.798065L411.703921,322.158078L411.558084,321.885142L411.309788,321.671813L410.941636,321.216921L410.384112,321.640441L409.963256,321.772203L409.562330,321.627893L409.042861,321.216921L409.901913,320.410663L410.870921,320.140865L411.862757,320.278901L412.774073,320.743205L412.831386,319.805186L412.511132,319.174611L412.006984,318.788736L411.498832,318.584819L409.817641,319.331470L407.448285,319.833420L405.233045,319.974594L404.503746,319.188060L402.990326,319.005739L402.452109,320.082949L402.191717,321.969305L400.508637,323.494251L398.519585,324.749133L396.295427,325.492911L393.497993,326.477990L392.899973,326.779160L392.227227,327.296797L391.438347,328.190897L391.143906,328.918725L390.933586,330.261444L390.885113,331.679455L390.545073,332.491988L389.640773,332.846491L389.329560,333.047272L387.383312,333.856668L386.997879,333.944509L386.483637,335.033116L385.365919,341.442408L384.893675,342.584348L384.223523,343.494135L381.824941,345.771741L380.413652,347.528573L379.620366,349.734025L380.078870,352.416331L379.492158,353.269650L376.880098,355.315106L376.214116,356.265678L375.826017,357.015470L375.229926,357.508011L373.962369,357.680557L372.308475,358.734657L368.129239,359.882874L367.510539,360.497766L367.961930,361.413829L367.938074,361.893822L366.315313,363.437326L362.664459,366.185518L359.505974,369.595662L358.548864,370.304671L353.854373,372.224642L352.547346,372.469344L352.519026,373.046590L352.982916,373.046590L352.959540,373.523446L352.377794,373.956381L352.056217,374.715585L351.904654,375.612827L351.847485,376.444188L351.446241,377.084178L350.538908,377.626916L343.825169,379.741395L342.180472,379.888844L335.349486,382.257438L334.411988,383.879377L332.645587,386.084837L331.441567,388.029908L332.206722,388.886368L332.234362,388.312258L334.177823,388.556960L336.591694,389.874590L338.642892,391.502804L339.923204,393.143567L340.290875,394.467471L340.485055,395.841571L340.864607,396.920773L341.805034,397.356846L342.665789,397.959192L342.917980,399.399174L342.407476,410.156693L342.666296,412.669606L343.421464,415.210754L343.607682,416.860932L342.709237,419.455414L342.640969,421.243631L342.810918,423.022436L343.102818,424.252227L343.525485,424.252227L343.366097,423.568312L343.335582,423.147925L343.422862,422.749497L343.621839,422.144013L344.361462,423.973014L344.357161,426.128286L343.730118,430.878043L343.550813,431.605879L342.880558,432.377636L342.705700,433.008218L342.747367,433.739192L342.847467,434.216050L342.848969,434.674085L342.600256,435.351725L342.105169,435.979170L341.376631,436.452891L340.549867,436.776026L339.747136,436.932887L335.525348,436.813672L331.953094,435.521136L330.265429,432.816848L331.706007,428.462380L331.510093,428.396499L331.344335,428.396499L331.262545,428.311794L331.299630,427.982385L332.308965,426.686712L333.899792,426.514165L335.713960,427.078865L337.371873,427.982385L336.959272,427.031806L336.347110,426.460832L335.697821,425.977699L335.173169,425.306334L335.832047,425.215354L336.342876,425.281236L336.727617,425.507116L337.003712,425.874171L337.081600,425.620056L337.083328,425.400450L337.169453,425.268687L336.643211,424.572224L336.249197,424.368304L335.643981,424.252227L335.668079,423.725173L338.075963,422.721262L338.102402,422.144013L337.395253,422.504794L337.147765,422.721262L336.642228,422.721262L336.669389,421.827154L336.920531,420.989516L337.311902,420.227171L337.756988,419.558943L333.585737,419.558943L333.379235,421.045986L331.834254,421.303238L330.243535,420.151877L329.933811,417.403672L330.233476,417.554258L330.999270,417.780138L331.296180,417.930725L331.446634,416.766816L332.150801,415.518202L331.908444,414.727622L330.934952,415.825650L331.007959,414.250765L329.923071,414.890758L329.112437,414.382528L328.700590,413.020975L328.793362,411.088447L329.061373,411.323739L329.276469,411.568442L329.699089,411.568442L329.777248,410.307280L329.412782,409.535524L328.863843,409.519838L328.397534,410.514336L327.787152,410.335515L327.490029,410.250810L325.599248,410.222575L324.668609,410.040616L323.285628,408.782591L318.281032,398.599184L317.592981,397.620373L316.632234,396.801559L313.281772,395.248638L309.025551,391.860446L308.529125,390.241644L308.101726,387.258154L307.683237,385.808762L307.175080,384.673091L306.542174,383.719379L305.751019,382.784490L305.013320,381.322549L304.453971,378.480237L303.469399,377.780639L303.300882,378.062988L303.122725,378.260632L302.995958,378.480237L302.953696,378.834741L302.805696,379.898288L302.069649,380.462060L300.965898,380.585572L299.858235,380.860486L298.711479,381.647377L298.612589,382.235055L298.900391,383.019954L298.910478,384.394523L297.999621,386.318920L295.971274,388.620958L295.182467,389.516289L294.507219,391.803255L294.418624,393.568283L295.010952,394.014521L297.062646,393.799370L298.188896,394.229671L298.861840,394.897035L299.880925,397.052521L300.738023,399.743892L301.048127,405.033004L301.504264,407.780156L302.199445,409.108910L303.045455,409.469486L303.947700,409.529250L304.798034,409.947598L305.265716,410.746444L306.575650,414.242640L308.189226,417.156605L308.773232,418.210973L310.547972,422.474144L311.728209,428.490396L311.769722,430.351052L312.164225,431.474618L312.788319,432.179835L313.487685,432.773492L314.115083,433.562378L314.590285,434.769614L314.186231,435.092340L311.671900,435.060466L309.608017,435.542563L307.288619,436.399183L305.148655,437.634308L303.636801,439.259893L301.701991,443.670489L299.573753,446.539170L299.310803,447.479460L300.119300,449.738546L301.446263,451.232651L301.807834,452.659024L299.724592,454.698976L289.906864,461.380617L286.658010,464.898739L284.888460,466.448625L283.339927,466.627918L282.655201,465.747391L281.998471,461.894589L281.527214,460.874613L279.772603,457.993977L279.600110,457.846558L279.031405,457.691171L278.840491,457.483988L278.856812,457.193136L279.167771,456.507839L279.204808,456.304641L278.582509,455.455989L275.333709,452.188879L274.650797,451.762561L272.977552,452.774568L272.423917,455.607392L272.598639,458.886456L273.104632,461.269057L274.490719,464.643745L274.622233,466.297223L273.925313,468.281396L272.852658,469.707770L271.516086,470.584313L270.005850,470.851260L268.401918,470.444863L265.667239,479.015062L262.466900,489.060761L262.468001,489.061113L262.988516,489.236799L264.048543,490.908945L264.803453,491.624235L265.659115,491.915998L265.174586,492.395995L266.132671,492.750502L266.619047,493.675987L267.004529,494.635981L267.652190,495.078331L268.875424,495.241468L269.585638,495.708916L274.340583,501.751233L275.419065,503.548870L275.924940,503.548870L275.948626,502.974756L275.629987,502.657895L275.435232,502.353583L275.041742,501.440647L275.506144,501.440647L277.441763,505.986504L278.153551,508.988840L277.288176,510.344127L275.379481,511.253926L274.669508,513.481365L274.796272,518.814670L275.416676,518.444476L275.554608,517.835852L275.558362,517.195855L275.808486,516.753505L276.605448,516.461741L276.889610,516.681348L277.161270,517.073503L278.927447,517.562912L279.876625,518.293889L281.731004,520.439760L282.999081,522.529162L285.548519,529.387167L285.196228,530.253045L285.043704,531.172257L284.980543,533.120483L285.400819,533.120483L285.923976,532.825582L286.309215,532.662446L286.861260,532.546368L286.699589,532.019311L286.438397,531.492255L287.287154,530.306378L288.659935,529.155011L290.275210,528.722072L292.522713,530.196575L293.194194,530.416182L293.685165,530.795788L293.848219,531.777744L293.723650,532.762837L293.312021,534.369104L293.247819,535.228708L293.936940,535.705569L294.315657,536.201253L294.612483,536.740858L295.062206,537.330659L297.302600,539.435747L297.775482,540.640448L297.868866,542.362793L297.495463,544.075727L296.571415,545.230231L296.485404,546.811401L296.100352,548.047474L294.993166,550.014524L294.972909,550.541580L295.778419,551.096872L296.347810,551.969025L296.552591,553.048236L296.225411,554.227839L295.986117,553.976860L295.751285,553.826272L295.543982,553.606665L295.379953,553.123530L293.795546,553.769802L293.580622,554.400387L294.751428,556.329791L294.927055,557.164297L294.966232,558.315665L294.853821,559.674090L294.569604,561.117221L293.516162,563.965837L292.777175,565.302302L292.070523,565.854456L290.532658,563.510937L288.073351,561.117221L287.590673,561.594082L288.076080,562.579176L287.967031,563.928190L287.399097,566.670139L287.217819,569.732088L287.429775,570.867769L288.120381,572.223058L292.072340,577.967348L293.702931,581.001061L294.674531,584.370459L295.097728,584.370459L295.174827,582.268507L295.680997,582.268507L298.066177,590.579061L298.054564,592.273172L298.505539,592.652778L298.734350,592.903757L301.326199,597.973541L302.258160,600.684118L302.326147,603.896653L302.148062,604.781356L301.877608,605.697430L301.500638,606.575858L301.022355,607.347619L300.357665,607.915460L299.476092,608.514673L298.702305,609.195455L298.354785,610.026824L298.162339,610.306038L297.743162,610.268391L297.298426,610.171137L296.990678,610.268391L296.923054,610.616625L297.013574,611.501327L296.935016,611.846424L296.636265,612.473872L296.517569,613.016615L296.343326,613.487201L295.892768,613.948376L294.345569,614.519354L293.234680,614.089552L292.240196,613.339751L291.053545,612.941321L290.050300,613.148379L289.379171,613.666024L288.757755,614.343668L287.923990,615.002489L287.255724,615.203272L285.735781,615.313076L285.116761,615.529545L284.264075,616.727972L282.535317,620.511485L281.917881,621.317756L281.032494,621.477755L280.402865,621.920106L280.221444,622.600887L280.664418,623.466766L281.168766,623.523236L281.876237,623.228335L282.682990,623.181277L283.473481,624.000097L283.687856,623.165590L284.153962,622.651083L284.873085,622.418927L285.846967,622.418927L286.814597,622.757749L287.348137,623.407158L287.801339,624.219703L288.539009,625.047935L288.961444,625.233032L290.069169,625.443227L290.380019,625.574991L290.770070,626.136558L290.803382,626.453419L290.727762,626.720084L291.137886,629.107525L291.390378,629.810266L292.073018,630.315362L291.525931,630.776537L291.207598,630.861242L290.973458,630.669870L290.678525,630.315362L290.216460,630.315362L290.152464,631.614180L290.387731,632.498882L290.982175,632.834566L291.999030,632.470646L292.079248,635.545142L292.382072,637.051017L293.002436,637.684740L293.274704,638.465912L293.056381,640.169434L293.066043,641.844720L294.022880,642.516089L293.075438,644.762352L292.385415,647.259595L291.959663,649.888601L291.995563,661.470329L292.374480,662.737772L292.859440,672.629473L293.344336,675.776118L293.665116,675.612982L294.473173,675.358866L294.796620,675.198867L295.172293,677.796497L297.929854,681.736861L298.648281,684.202726L298.224808,684.202726L297.675884,682.929010L296.841668,681.664705L295.678899,680.723535L294.162024,680.469419L294.307959,681.529804L294.335161,682.756462L294.526904,683.772925L296.118538,684.723507L296.310843,685.899969L296.079821,687.161137L295.745357,687.932896L295.260568,687.509369L294.909840,687.048196L294.656221,686.492906L294.457526,685.777617L294.080058,696.343814L293.228139,699.964179L292.975035,702.144554L294.380843,701.620637L294.364616,702.144554L292.817216,702.950823L292.102391,704.136696L291.460442,707.455885L291.017353,708.635484L289.004857,711.716244L291.369220,716.453460L292.268044,717.767959L293.325514,717.953056L299.078540,718.031487L297.045032,720.851855L295.919782,722.006356L294.671808,722.822035L293.701254,723.154581L293.248952,723.003994L292.156662,721.479301L291.382592,721.165578L290.554980,721.438517L289.890569,721.993807L289.608681,722.533410L289.303910,723.562421L288.604733,723.706734L287.694797,723.584382L286.740793,723.825948L285.932038,724.582020L285.485203,725.457307L285.295831,726.520827L285.234988,728.858062L285.431480,731.210983L285.857592,733.297240L286.123938,733.846255L286.877356,734.972519L285.367667,735.094871L285.010859,736.224273L285.272428,737.513674L285.644807,738.134844L289.060243,741.243837L288.602328,742.341866L288.921164,743.389700L289.755454,744.035968L290.844029,743.923028L291.059794,743.348916L291.361396,741.231288L291.590705,740.766978L292.309942,739.923064L292.869817,737.984258L293.142176,735.847806L292.973941,734.398407L293.529176,734.536445L293.813702,734.558405L294.018697,734.649385L294.313836,734.972519L294.533393,734.373309L294.689323,734.247820L294.668271,734.210173L294.345919,733.871353L294.362676,733.297240L294.957018,732.949008L295.558881,732.817244L296.145288,732.930184L296.724276,733.297240L297.036512,732.559991L297.160412,731.731763L297.085383,730.890986L296.816604,730.144326L297.859840,730.916084L298.641985,731.907448L299.423203,732.553717L300.471703,732.296464L300.636101,732.923910L300.776450,733.237633L301.108703,733.331749L301.832309,733.297240L300.652573,735.973295L298.752410,738.395234L298.253899,739.264246L297.918483,740.239924L300.256484,739.716007L300.241412,740.239924L299.252342,740.647763L295.987538,741.243837L296.809625,740.384236L296.765869,739.788163L296.125228,739.537185L295.142732,739.716007L294.428703,740.186591L294.060264,740.867369L293.659526,742.868920L293.375240,743.515189L293.190392,744.073615L293.096837,744.732433L293.140050,745.548112L293.311806,745.739482L293.607796,745.748894L294.418003,746.370065L295.581576,747.028882L295.814102,747.323782L295.559282,747.913580L294.567358,748.525339L294.406033,749.237490L296.979631,750.762182L301.906863,749.824151L305.932874,747.267312L305.795244,743.923028L306.488766,744.362240L307.262321,744.519101L308.985110,744.497141L308.522470,744.798314L308.041162,744.977136L308.026193,745.504190L312.235625,744.497141L312.221988,744.977136L311.210509,745.984186L310.469794,747.405350L309.597500,748.685338L306.441415,749.852386L306.578457,751.282961L306.960447,752.870397L305.932845,753.974701L305.993919,753.174708L305.886809,752.647654L305.582474,752.242952L305.062706,751.819427L303.915121,752.854711L303.811902,753.874310L304.431370,754.796654L305.468169,755.549588L304.952488,756.471932L304.203431,757.024084L303.245186,757.231141L302.126544,757.130750L302.456343,757.820939L302.879980,758.122113L303.434635,758.191132L304.171350,758.184858L304.784498,758.341719L305.259464,758.689951L305.427257,759.031908L305.112813,759.188770L303.609864,759.066418L302.595636,758.693088L300.730999,757.130750L300.334095,758.266425L300.149109,759.653079L300.404316,760.845225L301.296182,761.340906L304.161438,760.456209L305.337284,760.289936L304.678850,761.278162L303.543745,761.776980L302.471410,762.005998L301.987565,762.181682L302.234592,763.376965L302.930335,763.452259L303.848843,763.075792L304.755653,762.925205L305.811205,763.311083L305.353561,763.643629L304.295895,763.944803L303.539632,764.261663L302.799213,765.014596L302.268110,765.300084L301.716129,765.130674L300.952311,764.503229L300.249117,766.743207L299.797072,767.690649L298.545954,769.315731L298.219614,770.021607L298.429857,770.545523L299.391655,770.821599L297.384936,771.511788L296.720005,771.524337L297.068350,770.821599L297.081306,770.338467L295.648563,770.482779L294.277062,770.821599L294.513583,771.605905L294.712877,771.919628L294.170712,772.001195L293.892624,772.148645L293.658174,772.321192L293.265967,772.490602L293.627900,772.729031L294.318978,773.293732L294.670686,773.500789L293.512742,773.412946L292.461441,773.168243L291.692299,773.350202L291.388857,774.554896L292.500500,774.197252L293.898671,774.103136L294.851508,774.510975L294.613532,775.652924L294.076062,775.348613L293.736258,775.213713L293.473566,775.408221L293.169230,776.129782L293.744728,776.148606L295.010671,776.656836L294.724234,776.807423L294.401835,777.061538L294.106597,777.230948L294.704870,777.541533L295.131172,777.968195L295.384524,778.548582L295.448246,779.285829L295.122191,779.047400L294.524974,778.379172L294.214479,778.181527L293.029283,778.074861L292.368405,778.564268L291.936733,778.551719L291.763120,777.993293L291.795860,777.381535L291.872221,776.901539L292.012819,776.506249L292.233237,776.129782L291.542180,776.082724L290.843094,776.129782L291.268088,777.758001L290.864617,779.094459L290.187601,780.412092L289.803481,781.971293L289.933934,782.278740L290.517558,783.263829L290.641123,783.837940L290.432462,784.195584L289.993592,783.819117L289.552458,783.103830L289.325816,782.448150L288.659187,783.376769L288.314850,784.587737L288.379018,785.855175L288.953482,786.990850L291.140279,790.059054L291.428570,790.918653L289.757759,790.190817L288.784670,788.929653L287.338943,785.701451L285.977414,787.059868L285.672674,787.279474L284.702295,787.430061L283.566778,787.756332L282.901024,787.583785L282.075577,788.129661L281.285774,789.014358L280.726763,789.864546L280.611171,791.444461L281.459374,792.333242L279.828300,793.021192L278.674069,793.808508L276.974744,795.433345L276.115296,796.615783L276.315309,797.306335L277.846482,797.110699L278.902953,796.717752L279.935020,797.261638L280.306822,798.051153L279.882396,798.520142L279.266328,798.347595L278.792272,798.366418L278.589944,799.150724L278.504171,799.815815L278.271771,800.587572L277.164119,800.064257L276.168011,800.411896L275.322906,802.084650L273.891913,804.943049L268.579612,809.894612L267.560684,811.081500L265.950766,813.596482L263.367828,816.976416L263.226772,817.908170L263.889223,817.534841L265.639131,815.799958L265.851091,816.675243L266.442840,816.951318L267.208591,816.778771L267.954353,816.279953L267.765269,815.959956L267.766457,815.909761L267.866442,815.781135L267.979310,815.225847L268.294957,815.931721L268.810597,816.028975L269.373892,815.985054L269.812848,816.279953L270.081400,816.988965L269.891909,817.155237L269.534278,817.287001L269.183622,818.300323L268.797834,818.570124L268.772025,818.962276L269.038081,819.310508L269.967518,819.599132L270.190510,820.013245L270.226097,820.863432L270.149849,821.164605L269.847722,821.412446L269.210983,822.115183L268.862195,822.824195L268.779310,823.294778L268.554322,823.442227L267.793235,823.175563L267.089487,822.585766L266.544956,821.820284L265.936328,821.192840L265.008595,821.067351L264.050236,821.901852L263.631253,823.489286L263.645098,825.173973L263.998051,826.331607L265.456505,825.418676L267.541662,825.079856L269.002352,825.641419L268.576458,827.432771L268.373341,826.864934L267.986698,826.450821L267.457015,826.115139L266.802124,825.804554L265.966183,826.871209L265.051514,827.141010L264.056898,827.272773L262.995318,827.912766L262.155625,829.274319L264.646080,829.995880L265.273741,831.646057L264.766844,831.646057L264.627268,831.200572L264.184344,830.573128L263.913268,830.064899L262.962645,830.334700L261.715681,830.234309L260.627232,829.983331L260.160458,829.801372L259.721852,830.334700L258.959752,830.842929L258.681137,831.407629L259.687257,832.119778L260.285562,832.119778L261.417701,831.536255L261.980301,831.646057L262.219887,832.078994L261.825071,832.392716L261.211334,832.587223L260.772351,832.646831L259.832327,833.064081L258.956151,833.848386L258.001472,834.303283L256.817217,833.747995L256.766171,834.547986L256.831346,834.980922L257.114829,835.187978L257.712783,835.329153L257.305349,836.091498L257.163390,836.750314L257.385636,837.224034L258.090199,837.431090L257.714809,838.127553L257.710775,838.817741L258.125979,839.338520L259.016382,839.536164L259.003740,840.116550L257.607649,840.116550L257.597349,840.590270L258.634363,840.925952L259.594029,842.020842L260.332750,843.347886L260.727273,844.326698L260.720376,845.688251L260.064900,847.074902L258.848317,848.147830L257.174356,848.580767L256.394566,848.646648L254.626828,849.060761L253.762946,849.041938L252.396559,848.681158L251.595340,848.580767L250.250829,847.972146L250.203053,846.566672L250.808001,844.957279L251.446009,843.752587L250.154780,844.157288L249.430899,843.940820L248.914433,843.096908L248.236693,841.644376L247.305965,840.683449L245.985456,840.540487L244.450177,841.538186L243.553441,842.179540L242.417641,842.250368L241.159161,842.178527L239.519575,842.249202L238.813979,842.818959L237.310175,842.461898L236.664366,843.174851L237.012207,844.529285L237.676677,845.812286L237.964924,847.023929L238.191808,848.164369L238.113431,850.939955L238.007341,851.244265L237.756904,851.696025L237.814902,851.837199L237.851931,852.320331L237.826016,852.900716L237.723045,853.324241L236.358557,853.801098L235.225068,854.629324L234.575422,854.698343L233.472218,854.328151L231.076527,852.966598L230.493697,852.486604L229.522055,851.259951L229.023818,849.867300L228.429167,848.227742L227.763902,846.944230L228.242033,845.234092L227.789367,842.881033L227.062803,841.525177L226.031192,842.593740L225.439236,843.734001L225.325157,846.086432L225.655653,848.296405L226.329901,850.908583L224.781858,850.861359L223.442628,848.650787L222.413884,846.653828L221.701797,844.585350L221.109524,842.801600L220.291095,842.729087L218.498638,843.939157L217.013933,845.506451L215.787570,846.788781L214.321887,847.428941L212.622554,850.137454L210.868917,852.418457L209.111754,854.842671L207.853744,854.485281L207.061676,856.054669L206.392498,859.786910L205.363827,863.272359L205.076746,861.976688L204.920590,860.652783L205.013719,859.338288L205.469194,858.058303L204.416306,859.291230L203.579942,861.606497L202.033837,864.947634L199.941912,869.051114L199.326129,871.234618L197.476646,872.088556L196.958165,874.055132L196.077847,876.157202L195.262470,878.054946L195.378704,881.374976L195.928290,884.016739L196.460584,887.674271L197.251970,890.299288L197.442368,892.407694L197.533413,894.006204L198.024232,894.617070L198.764980,894.181531L199.506996,891.736330L200.081315,890.735557L200.840363,890.264975L201.514478,890.531638L202.203816,891.196728L202.744183,891.987307L202.954204,892.658671L202.860785,893.577875L202.485039,895.460205L202.376537,896.630387L202.051385,898.196445L202.066763,899.636860L202.476573,900.642424L203.829524,900.645231L204.725038,900.077463L205.162033,899.115596L205.436037,898.809696L205.629415,899.262511L205.634735,899.943287L205.443464,900.451516L205.210110,900.824844L205.092328,901.078959L204.990266,902.233454L205.498899,903.491922L204.988400,905.455813L204.057978,906.584866L203.777220,907.812021L203.680448,908.401044L203.705592,909.480852L203.052480,909.627904L202.362779,909.382328L201.720696,908.842334L201.253348,908.204304L200.909344,908.007962L198.942069,907.732993L197.440784,907.356528L195.160582,907.177706L193.713205,906.778547L192.430262,906.119771L190.948485,905.753812L189.761274,905.916546L188.230754,905.640471L185.040357,906.444767L183.617629,907.730834L182.664998,908.865119L181.234745,910.679300L179.468995,912.644183L178.512708,914.079784L177.409757,916.422011L176.189384,917.705935L174.848778,918.083154L173.773988,918.536033L173.228839,919.291266L172.876322,920.575317L173.460779,921.708457L174.444754,922.917112L176.228676,924.201280L176.832874,924.532364L178.302201,925.460325L178.954697,926.138309L179.835449,926.281062L180.518932,926.994771L181.075919,927.744243L182.420392,927.064513L183.305355,926.590794L183.738448,926.728831L184.223751,927.895875L184.192551,929.357817L184.028570,930.819759L184.090305,931.996215L184.710367,932.871498L185.605006,933.524038L186.436502,934.345988L186.875634,935.726363L185.792289,936.302531L189.749079,939.403822L191.149639,941.658914L193.136515,943.493667L193.821043,944.796520L194.471065,946.501785L195.478604,948.055647L196.800461,949.231004L198.388208,949.788801L199.460321,949.589587L200.419719,949.246941L201.055963,949.462091L201.155138,950.944236L201.406537,951.741089L202.812735,953.446353L203.182629,954.689442L204.173243,954.051961L205.196620,953.956338L208.958435,954.936467L209.436086,955.362179L210.192296,956.036123L216.517398,964.100268L218.110330,965.486791L219.407263,966.203958L223.444346,967.439079L224.830061,968.275774L233.625269,975.861806L236.476654,977.439574L241.303515,977.638787L245.918714,979.614980L246.657647,979.630917L247.007744,979.423736L247.334654,979.471547L247.989920,980.260430L248.226486,981.045330L248.198608,981.901946L248.332890,982.734656L249.048984,983.431902L250.630929,984.125163L252.081625,984.495700L253.461007,984.523589L254.832450,984.204848L260.280807,981.870072L261.962935,981.886009L263.983157,983.694863L264.386107,989.240954L265.816004,991.663384L270.269966,995.161565L272.747732,996.277158L274.739172,995.962252L275.065777,995.910606L277.872895,996.707458L278.769472,1000.444694L279.163827,1008.548679L279.767935,1011.138448L280.057270,1013.441350L280.753278,1015.409575L282.580887,1017.003279L284.956471,1017.991375L292.197328,1019.656796L293.480190,1020.182718L294.481345,1020.764420L295.543082,1021.123004L297.025097,1021.027382L300.461404,1019.569142L301.644792,1019.322118L302.568565,1019.584984L303.997085,1019.991474L306.591124,1023.322315L308.612621,1024.095262L311.336562,1024.151041L312.184317,1024.310412L313.312844,1024.756649L314.004677,1025.314445L315.485552,1027.011740L316.644672,1027.975931L317.622171,1028.374357L318.653279,1028.422168L323.385388,1027.617347L324.243921,1027.712970L326.669546,1028.948090L327.707874,1028.916216L327.542823,1025.848336L328.384926,1025.489753L330.737593,1026.214888L334.055445,1026.629251L335.033058,1026.955960L336.107974,1027.808592L337.923260,1029.729005L339.210352,1030.231022L340.206672,1030.087588L341.972151,1029.059649L348.731613,1028.175144L349.937433,1027.266732L349.247480,1022.150943L349.435825,1016.405640L349.402513,1015.903623L350.046068,1016.039088L351.517605,1015.935497L352.243223,1015.776127L352.877732,1015.513166L354.579658,1013.226200L354.961370,1012.835743L355.317830,1012.596687L356.557649,1011.536874L357.315365,1011.297819L357.993151,1011.640465L359.863240,1013.887588L361.168645,1014.859747L362.524587,1015.529103L363.997802,1015.911592L365.665560,1016.039088L367.147594,1015.951434L367.907564,1016.015182L368.476649,1016.302049L368.881897,1017.122807L369.258381,1019.162748L369.604786,1019.768355L370.847406,1019.696639L372.574043,1019.075094L374.109275,1018.859944L374.760038,1020.015379L375.052725,1020.931759L379.599406,1027.465945L379.935023,1028.438105L380.241520,1029.920250L380.988681,1031.163339L382.678342,1032.932350L386.812845,1035.824922L387.381631,1036.884736L390.110282,1039.171701L392.027359,1040.382916L393.149695,1040.892901L394.469254,1041.259453L395.982552,1041.402886L397.548857,1041.235547L400.486466,1040.478538L401.769474,1040.303230L403.124099,1040.805247L404.200323,1041.904903L405.065525,1043.004559L405.765686,1043.506575L406.979746,1043.960781L410.181992,1047.196000L414.145555,1049.953107L415.782405,1050.598558L417.109834,1051.682276L420.922008,1052.503034L425.247180,1054.295951L426.506222,1055.140614L427.537042,1054.734219L428.613166,1053.793934L429.456967,1052.654436L429.797722,1051.666339L430.029272,1050.176226L430.683623,1049.387343L431.728849,1049.132350L433.094474,1049.299689L436.160315,1050.239974L437.593142,1051.060732L438.889002,1052.216167L441.571138,1056.383703L442.360554,1057.244303L442.939811,1057.475390L444.134730,1057.507264L444.770285,1057.722414L445.196640,1058.088966L447.987721,1061.515429L448.897210,1062.312281L450.357437,1063.037417L452.683204,1063.603181L453.815677,1064.065356L454.496571,1064.001607L455.260691,1063.324283L456.953307,1060.248435L457.762451,1060.033285L459.192012,1061.459650L460.164511,1063.005542L462.501248,1068.344451L460.631420,1069.954092L460.099391,1070.989999L461.306195,1071.460142L462.008595,1071.547796L463.350690,1071.938253L465.045882,1072.121529L465.474204,1072.352616L465.760312,1072.687294L466.233165,1073.085720L466.581019,1073.460240L466.795200,1073.850698L467.200872,1074.137564L468.142494,1074.185376L468.485023,1073.994131L468.913221,1073.627579L469.478670,1073.253059L470.211960,1073.085720L470.866696,1073.675390L472.804382,1077.340909L475.682353,1080.767373L477.462693,1082.353109L481.610347,1085.165996L482.421704,1085.962848L483.326257,1087.102347L483.922692,1088.178097L484.287810,1088.353404L485.215382,1088.393247L485.554892,1088.727925L485.704789,1089.500871L485.783880,1090.355004L485.786694,1090.385377L485.927523,1091.078638L489.226000,1099.023253L489.067416,1099.565113L488.196355,1100.417744L487.885514,1101.079132L487.868536,1102.553308L488.349232,1103.676869L490.675717,1106.569443L491.139185,1106.920057L491.800621,1107.143176L492.978131,1107.183019L493.509635,1107.445980L492.986938,1108.681101L493.385816,1109.581544L494.088565,1110.394333L494.468785,1111.366492L494.066910,1112.219124L493.118444,1112.219124L492.020549,1112.003974L491.177221,1112.179281L490.716021,1113.087693L491.136672,1113.788923L492.846533,1115.079823L493.533870,1116.107763L494.533562,1119.597975L496.076434,1121.853067L497.895023,1122.976629L501.965330,1123.813323L506.128651,1125.606241L507.984501,1125.542493L509.018684,1123.287401L509.805295,1124.100190L511.448103,1129.470974L511.783343,1130.132362L512.340744,1130.650315L513.182095,1131.048742L513.568079,1130.929214L513.919757,1130.530788L514.660329,1130.132362L514.903540,1129.797684L515.138241,1129.303635L515.479444,1129.096454L516.051161,1129.646282L516.134556,1130.283763L515.510405,1131.638412L515.611529,1132.275894L516.547818,1132.841659L518.668213,1132.299800L519.797058,1132.761974L520.198160,1133.479141L521.273605,1136.539054L522.522124,1138.714461L523.193780,1139.519281L524.144196,1140.220511L525.969424,1140.945647L527.061367,1141.208608L527.874547,1141.232514L529.003650,1140.507378L530.077953,1138.555090L531.099406,1138.124790L531.681969,1139.511313L532.647827,1140.682686L533.947964,1141.503444L535.531260,1141.806248L536.288730,1142.053272L537.597054,1143.136991L539.203899,1143.662914L539.563189,1144.348207L539.748387,1145.200839L540.255903,1146.396117L540.369045,1147.240781L540.496107,1147.591396L540.771396,1147.663112L541.675976,1147.519679L541.931909,1147.591396L542.152792,1148.149192L542.290231,1148.794643L542.390112,1150.468033L542.526329,1150.993955L542.853706,1151.615500L543.246691,1152.125486L544.319439,1152.683283L543.999882,1153.496072L542.949106,1154.962281L543.591202,1156.133654L546.132215,1157.472366L546.908690,1158.819046L548.359122,1160.014325L548.895465,1160.843052L549.033429,1161.608030L549.031291,1162.420820L549.139065,1163.432822L549.896427,1166.652107L549.848788,1168.126284L548.209466,1169.233909L547.639116,1170.405282L546.897505,1172.955211L546.790597,1175.935439L548.182591,1177.847886L552.627913,1180.899832L552.730549,1181.186699L552.970653,1182.222607L553.072977,1182.485568L553.390592,1182.549317L554.138485,1182.437757L555.108000,1182.565254L555.860450,1182.525411L556.685694,1182.652908L557.546133,1183.266484L559.206902,1184.947843L559.905374,1185.067371L560.410159,1184.214739L561.490417,1183.003523L562.533427,1182.860089L564.826828,1183.529446L565.255826,1183.266484L565.504443,1181.226541L566.201170,1181.226541L568.053682,1183.537414L568.715937,1184.071305L569.353847,1184.382078L569.929940,1184.796441L570.403281,1185.641105L569.942635,1188.509775L570.321090,1189.577558L571.961623,1191.721092L572.375474,1193.011994L572.235087,1193.721193L571.582503,1195.657545L571.504460,1196.741265L571.783921,1197.952481L572.260905,1198.964484L573.474873,1200.948648L573.959076,1202.390952L574.360831,1204.159966L574.918695,1205.777577L575.853107,1206.749738L573.910104,1210.486978L573.298150,1212.160370L570.868027,1214.686394L570.266786,1215.523090L570.053985,1216.033076L569.979357,1216.798055L570.133336,1217.555065L570.797791,1218.726440L570.946681,1219.188614L571.168064,1219.571104L572.111184,1220.375926L572.333171,1220.790289L572.708614,1223.093195L572.888114,1223.682866L574.022350,1224.535499L577.006984,1225.372195L577.624598,1226.057489L578.073291,1227.699007L578.950155,1226.782625L579.724089,1225.037517L579.874459,1224.208789L584.617353,1227.125272L584.847025,1227.563542L585.853652,1228.543671L587.077192,1232.105605L587.748730,1233.396508L588.292638,1233.882589L588.922246,1233.874620L591.794899,1233.221200L592.727095,1232.838711L593.523278,1231.954203L595.454327,1231.173287L597.125363,1230.217063L598.270016,1230.663301L600.087595,1232.105605L600.249391,1231.157350L600.566820,1230.440182L601.108882,1229.882385L601.941376,1229.428178L602.289262,1229.978007L602.586756,1230.655332L602.794884,1231.444217L603.064691,1233.460256L603.469052,1233.635564L604.590339,1233.205263L605.435343,1232.296850L607.152007,1228.089465L607.980778,1226.846374L609.233683,1227.061524L610.443253,1227.794629L613.587723,1230.623458L614.880423,1231.085633L621.883634,1232.328724L622.503398,1232.926364L622.869093,1233.858683L623.790730,1234.791001L625.007576,1235.516138L626.276754,1235.842848L627.800942,1235.699414L630.505231,1234.886624L632.084834,1234.695379L632.664977,1234.488197L632.848354,1233.946337L632.759202,1232.368567L633.105122,1232.049826L634.849688,1231.643431L635.531048,1231.579682L639.946537,1232.727151L640.956663,1232.368567L643.886273,1228.471954L645.755929,1226.607318L647.640630,1225.762653L649.856594,1225.730779L654.136597,1226.416073L655.330331,1226.081395L656.150720,1225.133139L656.433386,1223.419905L656.922421,1222.822265L660.088737,1220.001405L662.474781,1215.746209L662.791956,1214.949356L663.477106,1214.893576L667.391104,1212.056779L668.863140,1211.291800L669.390783,1211.706164L669.334394,1214.423433L669.940630,1215.730272L671.255977,1215.491216L673.513392,1214.160471L675.126842,1214.487181L676.482754,1215.395593L677.768236,1216.503219L679.190314,1217.363821L683.125546,1218.280202L683.903943,1218.941590L684.259762,1220.391863L684.404037,1223.611150L684.896336,1224.790492L685.990441,1225.380164L686.498567,1224.471751L687.119752,1221.579174L688.047058,1220.479516L688.745021,1220.758415L689.979650,1223.156943L691.635515,1225.475786L691.895968,1226.272639L691.721157,1226.926059L690.798901,1227.882283L690.538594,1228.471954L691.338171,1230.081598L693.632677,1229.531769L698.453752,1226.846374L699.007482,1227.906189L700.264411,1227.563542L701.670720,1226.718877L702.672530,1226.272639L703.418293,1226.463884L704.246747,1227.149178L704.972833,1227.420108L705.705026,1227.244800L706.965549,1226.113269L708.873979,1225.005643L710.111900,1221.356055L711.652674,1220.527328L713.535580,1220.152807L714.427902,1220.176712L716.163212,1221.340118L717.018248,1221.547300L717.815121,1221.443709L718.425835,1221.053251L717.767580,1219.092992L717.588137,1217.339915L718.287534,1216.256195L720.244722,1216.311975L723.155084,1217.698499L724.867883,1218.073020L726.264956,1217.363821L728.356291,1218.790188L731.958576,1223.045384L734.337558,1224.790492L736.862146,1225.802496L738.133017,1226.145143L739.900186,1226.400136L740.257014,1226.782625L740.429577,1227.388234L740.471235,1229.627392L740.732540,1229.778794L742.914950,1231.794833L743.350526,1232.631529L743.454429,1233.412445L743.472148,1234.480228L743.610899,1235.428484L744.086430,1235.842848L746.893935,1235.842848L747.414049,1235.524106L747.460426,1234.791001L747.388276,1233.922431L747.545859,1233.205263L748.719557,1232.352630L749.621217,1232.990113L750.480452,1234.097739L751.545058,1234.695379L752.693287,1234.862718L753.989107,1235.308956L755.195801,1235.978313L756.064049,1236.799072L756.475279,1237.635768L756.729118,1238.424653L757.122969,1239.078073L757.929888,1239.524311L758.637604,1239.460562L760.223695,1238.671677L760.974642,1238.472464L762.436135,1238.456527L763.885339,1238.631835L764.757665,1239.380877L764.468729,1241.054269L764.139136,1241.301294L762.989190,1241.795343L762.670506,1242.153927L762.725031,1242.807347L763.065607,1243.516547L763.505524,1244.082313L763.851158,1244.313400L765.509057,1243.803414L766.854551,1242.863127L768.152218,1242.369078L769.661403,1243.205774L770.543276,1244.632141L771.564472,1247.907210L772.356198,1249.285766L773.629632,1249.827627L774.749114,1249.229987L775.901069,1248.855465L777.271544,1250.050746L777.487052,1250.823694L777.479368,1251.604610L777.612185,1252.281936L778.249836,1252.688331L778.833907,1252.513023L779.188940,1251.867572L779.479036,1251.046813L779.855776,1250.337613L781.225207,1249.293735L781.973146,1249.859501L782.913377,1253.254097L783.366675,1254.393598L783.951417,1255.325917L784.746081,1256.019180L785.127091,1256.162613L785.116040,1256.226362L783.643808,1258.967538L778.495829,1268.402288L773.354517,1277.829071L768.222003,1287.271793L763.092354,1296.706548L757.970874,1306.141306L752.855851,1315.584034L747.750082,1325.010828L742.646963,1334.445592L740.465385,1338.485648L743.433872,1338.852202L752.806790,1344.334567L753.547506,1344.900334L757.208009,1345.920309L759.021320,1345.944215L760.750497,1345.091579L763.353763,1342.326491L764.792717,1341.322453L766.699782,1341.091365L769.344217,1342.127277L771.952738,1344.230975L774.244879,1346.876536L775.939168,1349.506159L776.853507,1352.215468L777.309070,1354.980557L778.093196,1357.522527L779.963570,1359.578415L786.955363,1363.554725L789.046582,1365.435305L790.475235,1367.252137L791.716917,1369.236308L793.724271,1373.523394Z M28.000661,82.797317L29.695311,76.968435L29.449027,76.105709L28.345688,76.949612L27.527390,78.267228L27.214252,79.813859L27.654383,81.373038L26.760605,82.251448L27.132643,82.954176L28.000661,82.797317Z M56.030367,19.620311L56.987483,18.826592L57.477061,17.706600L57.246395,16.357589L56.353657,15.758377L55.376264,16.627391L54.738730,18.265027L54.831477,19.984230L56.030367,19.620311Z M143.842785,0.000000L143.774706,0.025098L143.768632,0.097255L143.802935,0.081569L143.798446,0.134902L143.865996,0.116078L143.878096,0.037647L143.838559,0.050196L143.842785,0.000000Z "/></g></svg>