<?xml version="1.0" encoding="utf-8"?><!DOCTYPE svg  PUBLIC '-//W3C//DTD SVG 1.1//EN'  'http://www.w3.org/Graphics/SVG/1.1/DTD/svg11.dtd'><svg enable_background="new 0 0 1000 1355" height="1355px" pretty_print="False" style="stroke-linejoin: round; stroke:#000; fill: none;" version="1.1" viewBox="0 0 1000 1355" width="1000px" xmlns="http://www.w3.org/2000/svg" xmlns:xlink="http://www.w3.org/1999/xlink"><defs><style type="text/css"><![CDATA[path { fill-rule: evenodd; }]]></style></defs><metadata><views><view h="1355.49656942" padding="0" w="1000"><proj flip="auto" id="robinson" lon0="-83.6349154352"/><bbox h="95.49" w="70.5" x="-1288.3" y="-187.97"/></view></views></metadata><g class="" fill="black" id="country"><path d="M0.369141,1353.496569L4.283996,1353.274137L8.625636,1352.171648L11.476299,1348.854510L11.793547,1345.769474L11.889322,1343.332392L8.946711,1343.990017L5.934596,1345.982235L3.315017,1348.187213L0.369141,1353.496569Z M715.156870,596.105955L715.556166,593.298782L712.546753,593.440130L709.712400,594.985186L710.896449,596.248003L713.493657,596.808286L715.156870,596.105955Z M468.002542,262.972128L475.246933,262.972128L475.349619,261.347450L469.319139,259.229566L462.733898,257.953034L460.965268,258.088424L456.934169,259.577711L459.444644,265.592888L461.219831,267.778467L464.735985,269.461170L468.251878,269.935034L471.828071,269.586889L475.088540,268.716526L477.696143,267.681760L477.788835,266.211813L475.573809,266.279508L473.905569,265.766961L472.819379,264.654830L470.813507,264.103600L469.908541,264.161624L468.002542,262.972128Z M391.139653,0.000000L383.943422,3.260800L377.431390,12.146634L372.956990,21.462329L367.263562,30.672431L367.264495,30.672950L368.980722,31.514297L371.379483,33.641841L373.405252,36.968547L373.723447,40.420971L371.026866,43.012706L366.832998,43.090072L364.824696,40.836809L363.052775,39.695671L359.625469,43.012706L358.125252,44.173185L357.054129,44.424622L357.014796,44.985520L358.627061,47.074382L360.048231,48.254202L363.451226,49.888542L364.876978,51.126386L366.383683,53.882523L366.890661,56.967462L365.833619,59.578539L362.642215,60.874407L362.519076,62.644137L363.438711,63.959346L363.555900,65.574346L362.883446,66.937909L361.485051,67.498807L359.814592,67.082968L358.089770,65.003777L356.714785,64.249466L352.525145,64.017370L348.021174,64.762011L345.625088,66.473717L347.820105,69.123477L347.717435,70.603087L346.040478,72.363147L344.740468,72.363147L342.248708,69.577998L341.413601,69.123477L341.058147,68.369166L341.690919,66.599435L342.102273,64.471891L341.133447,62.644137L338.556538,61.947850L328.184818,62.644137L328.072987,64.249466L329.934977,64.597610L330.865886,65.139166L331.432049,66.038537L332.120678,67.498807L327.104421,68.156411L317.954749,72.662937L313.137884,73.997488L313.015117,75.767218L320.797021,76.889014L326.015660,79.567786L330.630587,82.749432L336.595189,85.341168L338.273638,85.399192L342.340489,84.954342L343.843319,85.341168L344.927485,86.994851L344.317920,88.319731L343.033377,88.957994L342.064484,88.590509L343.598730,90.621347L348.992065,95.978892L350.241207,95.978892L353.541354,93.580569L360.371407,94.847425L367.043405,98.299850L369.894709,102.458233L370.018598,118.115032L368.783397,126.190035L365.087943,129.313659L364.968498,131.083391L366.396280,131.083391L366.296496,132.563002L363.892795,133.297973L363.744535,133.984590L363.084728,135.957405L363.769743,135.502884L364.237050,135.000009L364.548127,134.545488L364.749433,134.332734L366.067827,135.957405L364.214606,136.595669L362.651855,137.843185L360.030043,140.812079L359.930656,142.291690L360.957037,142.194984L361.160539,142.581811L361.088303,143.278098L361.239718,144.061422L370.452132,134.332734L373.012205,136.450609L374.015606,137.959233L374.358982,139.932048L367.574772,147.310766L365.009147,147.039988L364.266322,146.836903L362.105385,150.550439L360.930619,151.594872L359.685751,152.416878L358.870985,153.925503L358.942942,157.049128L357.642514,157.049128L354.475087,156.623619L350.117186,159.263711L345.893375,161.168833L343.163841,158.509399L341.735912,158.509399L339.651832,162.996590L338.011770,164.650274L335.598361,165.153149L335.490269,166.777822L338.329214,166.777822L338.221216,168.402495L337.234879,168.663603L336.650754,169.011747L335.274317,170.027167L337.283431,172.541542L340.142214,176.990052L341.577270,181.254819L336.891136,185.026382L335.135211,188.710910L333.030941,191.234956L329.565724,189.639294L327.598132,193.575260L324.885029,197.607933L321.051809,200.837940L319.351305,203.178245L322.022805,205.093040L326.051990,211.475690L326.377104,213.400156L325.029775,215.682438L321.941440,218.854422L322.972140,221.832994L323.599476,225.923694L323.903634,232.654494L330.607581,255.080836L332.897967,259.558370L334.173775,265.960375L335.283266,268.571465L354.822234,298.130987L356.659093,304.117178L354.886184,308.546380L356.577025,311.302544L357.961331,311.196166L359.574690,310.142054L361.929075,310.026005L363.538145,310.954397L364.530823,312.085875L365.808301,313.014267L371.402407,314.000683L382.949984,318.275156L383.131810,317.810960L383.977951,317.056641L385.216251,316.698823L386.631686,317.462812L387.330624,318.536266L387.558478,319.251902L388.002889,319.629061L389.338823,319.754781L391.601547,320.296343L394.290134,322.617324L396.272879,323.149216L397.659740,322.588312L400.798514,320.238319L402.835463,319.754781L424.757592,328.767925L431.409138,333.187462L436.006132,339.367078L436.075162,341.020779L435.866332,343.187030L436.185048,345.072829L441.275789,347.509862L443.131998,348.873440L443.923384,349.985578L444.867711,353.060882L460.684952,379.626499L465.717142,393.213948L467.256842,393.213948L469.979055,389.500367L472.141214,385.341930L477.689519,368.988644L478.823749,367.102842L483.945457,364.259635L484.784453,363.041117L485.943474,362.721982L492.938742,358.998735L493.504581,358.080012L490.567358,353.486396L489.758038,351.542572L491.455315,348.380231L494.914631,348.699366L501.250703,352.354916L502.221649,350.507800L503.559076,346.126942L504.591887,344.386205L509.708660,341.223865L510.549977,340.256789L512.182291,336.079019L515.554327,333.641988L519.404514,331.872239L522.483659,329.638293L522.574121,328.158668L515.031446,328.419778L511.411314,327.955582L508.420030,326.388919L511.125519,323.458680L512.811197,322.182140L514.552465,321.524529L511.987266,318.565278L509.706599,314.580928L509.730507,311.157483L513.967382,310.026005L514.058706,308.546380L511.803928,306.225401L506.770906,302.492493L504.442007,300.277892L500.569956,302.105663L496.580280,301.989614L492.939510,300.635710L485.193794,295.413508L481.956030,293.875860L480.426929,294.533470L478.891462,293.518042L466.574592,287.715598L462.094028,282.951808L458.419013,279.044841L458.511932,277.565223L459.994535,278.329209L461.742580,278.928792L463.604813,279.199572L465.434227,279.044841L465.221599,277.420162L464.530411,276.781895L462.797568,277.565223L461.496571,277.565223L459.115642,271.617737L457.020282,268.842245L450.793898,266.318191L448.524322,263.213895L448.349885,259.925857L451.195797,257.953034L449.009977,253.543195L448.163360,247.073498L448.315150,236.048907L447.301521,230.246493L441.584342,225.285429L440.618947,220.479098L449.134625,227.519358L452.460802,232.519105L450.983769,236.861245L450.889071,238.340861L455.732867,244.501093L458.906601,247.131522L462.578665,248.214640L476.733465,247.972873L480.587980,246.589963L483.147400,249.394465L483.935981,249.829647L484.833066,250.564620L484.322425,252.179626L482.929470,254.703678L484.671581,256.328356L485.874809,256.125271L486.832447,255.235567L487.911967,254.703678L489.198000,255.206555L491.207708,257.440487L495.612193,259.993551L503.612964,269.035659L506.979417,271.076178L505.909226,272.139955L507.639073,274.383559L510.165328,276.404737L511.495523,276.752883L512.376431,278.029417L518.309189,283.918879L523.104023,286.936141L528.349925,288.992136L534.219934,290.181637L540.856027,290.539454L540.755075,292.164139L533.513544,292.106114L530.197377,292.512286L527.558959,293.643762L527.449071,295.413508L546.098679,293.343969L551.965465,295.413508L550.669855,298.894975L551.470827,301.206284L556.313479,305.964291L553.035069,311.418593L552.363181,315.016112L555.656085,316.650469L557.892789,318.729681L565.481520,332.887668L568.514807,336.572228L569.998013,339.038273L570.522988,341.881477L569.643737,345.304927L568.015560,347.896693L566.431674,349.898541L564.768480,353.921581L560.927674,357.954292L559.533773,360.623424L559.464288,362.770336L559.853846,365.207371L559.928091,367.799138L558.941416,370.497285L562.225478,370.342552L562.707841,371.947901L562.261575,374.433291L562.832323,376.841315L564.983935,378.417651L567.244459,379.452425L568.987927,381.028762L569.533527,384.297486L570.828947,387.836992L578.244354,393.475060L581.512842,396.608395L581.172210,394.886994L580.908282,394.171356L580.428992,393.213948L583.252828,393.939257L584.105861,396.202221L584.765468,399.006750L587.078602,401.327739L589.857952,401.801608L592.677290,401.163336L595.413348,400.205928L597.943414,399.712717L603.265147,400.205928L630.703266,408.987005L635.975997,409.451203L641.369113,410.766431L649.661685,416.481870L655.035292,417.555328L652.402330,415.292362L651.194121,414.712115L649.380260,414.305941L649.473983,412.700589L654.588507,414.712115L659.734736,420.127760L662.361934,426.307400L659.862093,430.688272L663.410366,431.413582L665.220959,433.647537L666.842200,435.185195L669.789757,433.792599L670.465255,435.649393L671.385062,436.664828L672.558588,436.674498L673.975500,435.562356L675.277197,435.562356L694.876798,444.478838L697.324928,446.741807L712.948694,455.174752L728.373544,472.872341L732.975807,474.245597L739.093276,477.872154L743.401552,483.113738L742.572249,489.245039L750.842618,490.927762L755.988243,497.213798L759.821928,505.230915L764.137683,512.106875L765.656332,510.501517L768.850681,514.747012L769.756898,516.826241L774.394599,533.218308L772.192866,535.191159L770.634756,536.912568L769.456025,538.856407L768.368565,541.467534L769.047591,542.279885L770.451170,543.227628L770.740531,544.475167L768.110412,546.196576L770.559498,546.389993L771.633304,547.144319L772.296666,548.246795L773.508536,549.436309L776.423024,551.244757L777.934050,552.569663L779.090624,554.310415L776.533525,554.223378L774.613279,553.536747L770.697249,551.206074L770.990970,555.354867L773.337459,557.598503L775.961839,559.271560L777.133678,561.679601L775.992994,564.358426L773.509503,566.215229L768.172586,569.058459L765.030370,573.033179L763.817499,577.065925L764.511980,579.348246L767.032958,578.052352L769.608320,575.112412L771.241917,573.700468L773.526994,573.468367L778.022359,574.077631L777.943307,575.547601L772.722758,577.027241L766.790398,580.508749L763.404874,584.754254L765.824668,588.525888L764.366361,590.169934L758.808298,598.941403L757.273728,600.585450L756.685427,599.163833L755.692010,598.477202L753.392776,599.453959L749.989706,601.658915L748.406748,603.573746L741.452774,614.637214L741.709569,622.025756L742.963101,622.954159L747.141179,624.927016L748.029804,625.188130L749.082654,627.344734L766.276828,646.435035L770.988083,653.910622L773.604706,657.140695L776.543513,658.755732L780.094743,658.736390L792.998403,656.985961L797.253314,657.682264L809.010499,663.629855L809.185466,660.235376L810.832026,661.985805L812.404401,663.194665L816.334943,665.235221L813.510707,664.858057L812.764366,664.471222L811.871157,663.629855L810.585564,663.629855L813.842445,666.850258L820.852158,670.776636L828.364059,673.552179L833.073751,673.358762L835.683488,667.459524L836.681589,658.813757L835.834027,650.496803L832.928030,645.622682L833.012331,643.997975L834.364177,642.392610L834.906475,639.984562L835.100957,634.124014L832.429231,635.893783L829.914262,633.350344L827.370537,629.569034L824.594818,627.625189L821.477331,627.170658L813.802333,624.501498L811.127883,622.905805L809.577200,620.662164L805.687999,613.041521L804.917193,609.260213L798.231792,596.794472L796.929431,596.794472L796.949312,596.900852L795.293565,598.264443L796.583617,593.535393L799.462921,592.374890L806.320914,593.545064L809.179864,592.926129L810.125334,591.475500L810.469841,589.802442L811.533804,588.525888L813.653793,588.516217L814.972410,589.647708L816.068145,589.850796L817.442366,587.065589L820.870626,588.380825L825.224676,589.415607L828.087476,591.282083L827.021061,595.169768L828.448748,595.053718L829.872619,595.169768L828.312490,600.188944L830.064353,603.757492L836.463022,608.157735L839.526772,606.397638L842.339674,608.099710L844.614897,611.445829L845.979216,614.637214L849.260662,613.911899L853.580605,614.482480L857.394892,614.308405L859.131825,611.387803L860.561931,611.387803L861.946215,614.202025L864.366108,617.238677L867.263793,619.772444L870.052668,621.136036L869.960056,622.905805L863.590011,625.720028L862.698419,625.188130L862.635020,622.006414L862.120873,620.120595L860.305749,616.261919L858.875623,616.261919L858.396963,617.596499L858.021334,618.428193L857.267395,619.656393L860.946076,628.911414L862.401550,630.874601L865.324611,632.122143L871.447620,631.754650L873.870078,632.644370L870.461731,634.994392L867.811441,635.864771L866.257784,637.092971L866.186146,640.603498L867.195528,643.301672L873.534399,652.924193L874.666208,656.734519L873.031347,660.380440L870.595741,663.542817L869.295810,665.979879L868.128754,666.656841L861.548155,675.128533L868.264333,683.010304L893.189424,704.334612L897.929686,710.320894L910.809534,737.931302L911.244739,740.842243L910.119567,744.488172L908.338371,748.491925L907.836413,752.118514L910.562113,754.639625L912.138371,749.221306L913.699906,738.609620L904.030397,711.361918L903.451798,703.820751L902.141602,701.382767L898.590630,699.208848L896.697173,698.907938L894.114908,700.044026L892.794555,699.958052L891.679606,698.907938L889.826966,695.548803L888.786211,694.210062L883.121964,690.322800L881.319915,688.007639L881.708945,685.029247L883.638390,683.340469L893.472166,677.297714L903.242039,667.330854L909.432054,663.848902L915.451275,661.803946L921.067097,658.770288L926.025003,652.340654L928.348011,645.339907L929.395987,636.988140L929.024870,620.419716L927.742935,613.197900L925.465015,607.056902L922.259774,601.505440L916.129707,593.221236L914.435812,590.095470L913.581549,586.736346L914.019013,583.180711L915.819836,581.129619L922.279100,576.757232L924.366128,574.208721L924.571317,570.972419L922.973744,569.817912L922.037059,568.737098L924.237989,565.685026L926.781114,563.713769L948.890650,553.759227L955.379718,549.472818L958.531135,544.184023L958.713275,543.878380L958.001767,541.643062L953.164084,531.387620L950.442087,529.268981L941.129887,525.615097L931.963465,517.625682L927.391605,515.261405L926.209376,514.450796L925.360097,512.989243L924.873918,511.116245L924.221671,509.316938L922.834933,508.101025L920.905126,508.113307L914.485146,511.067117L914.599678,508.437400L916.315714,469.511153L917.598486,441.017078L918.494267,421.329164L919.296118,416.766435L921.242635,413.444178L925.237652,411.890517L936.486332,410.171050L939.718829,408.162958L940.165145,406.228558L939.241816,405.565335L937.902030,405.098623L937.084286,403.729191L936.013394,397.207501L933.772791,392.153500L934.289659,389.948900L936.880435,386.172217L940.979662,382.469226L944.864953,381.977951L956.659202,387.412688L964.901562,395.721391L966.867442,396.568842L968.597781,395.696827L970.579760,398.417268L972.923443,404.146776L974.983985,406.922486L976.979326,408.015575L980.563833,409.280612L984.404533,410.035949L987.208994,409.550814L988.733983,406.511042L990.133999,397.391730L991.767623,394.824813L994.915924,395.402062L997.998550,397.305757L999.630859,397.195219L997.897466,388.282784L997.896166,388.281848L997.700409,388.136787L994.318819,385.719091L989.603284,376.841315L985.678235,374.423620L981.092755,373.998106L976.181970,374.191521L971.231275,373.611275L957.526114,368.118274L954.465647,365.333091L952.792656,360.942560L952.208452,351.368498L951.221294,347.635582L945.771284,349.473027L937.259686,339.821604L926.308824,321.524529L923.345848,319.029474L914.596166,302.782615L912.066987,299.610611L910.735724,296.322558L910.297455,292.618664L910.414571,288.179794L909.385965,286.365569L903.941781,285.282450L902.120259,283.918879L896.954457,287.052190L889.290507,277.913368L877.103755,259.577711L874.068838,256.821562L837.888454,198.188174L824.726299,170.027167L814.218037,136.392585L806.173151,104.972605L804.803560,107.931827L803.557538,113.386079L802.573429,116.180900L801.887089,114.227427L801.644365,112.506049L801.961617,111.055450L802.993693,109.846617L800.136718,111.790420L797.968320,113.859941L795.699469,115.523295L792.460544,116.180900L798.879301,110.378504L799.746587,102.709671L797.481907,83.735839L801.952036,98.947784L804.735913,103.202874L805.721763,95.688772L802.716908,83.977605L798.122321,72.972398L794.295179,67.498807L792.819435,67.334600L791.495076,67.371445L790.284905,67.076684L788.686854,68.286434L788.853129,69.496185L788.678297,70.644527L788.183551,80.850648L789.530559,89.306623L788.493761,95.760675L780.876879,100.004015L766.915378,103.682733L765.821286,103.971016L751.564493,109.878532L746.917035,115.491287L746.104850,116.019401L740.480451,114.742100L739.047663,115.270215L735.987931,117.542337L733.912899,117.990621L731.992643,117.652873L730.634000,116.903687L718.783273,105.745727L718.099482,101.692754L715.913099,99.936465L713.066344,100.464580L710.403095,103.246394L706.900468,102.288418L701.469679,106.028207L699.125233,103.246394L697.689869,103.246394L695.151561,105.291303L692.818995,104.265778L689.225157,100.004015L686.684238,100.476862L684.885114,100.179184L683.418161,99.936465L680.169303,99.862775L677.704508,101.772585L676.712216,100.157537L672.393702,96.012451L671.974289,95.189574L671.190017,94.176331L670.891780,92.837622L671.943762,91.001502L672.851870,90.338288L675.864307,88.637268L675.472793,82.938543L672.094128,79.530362L668.267258,77.245959L666.558580,74.918571L664.455918,73.229832L655.039886,69.047902L652.991214,66.732795L652.522647,65.062480L650.012133,61.144607L649.212744,59.425164L648.982862,56.483689L649.190885,54.082610L648.828142,52.295618L646.925451,51.171840L645.068545,52.363168L633.271697,60.579647L631.227660,61.513059L628.957760,61.255142L626.796915,60.272604L625.006529,59.081275L623.336693,57.392537L619.045360,50.760402L618.221317,50.035779L617.249401,49.421693L616.203867,48.936564L615.100890,48.580394L605.044703,43.428207L600.346571,41.702624L595.827721,41.985104L592.227065,41.395581L584.725644,34.984516L581.151783,33.160679L574.491671,34.910826L558.246233,46.357400L535.594738,62.329794L530.565041,64.307153L525.804678,63.705348L493.061670,49.741018L463.939046,37.275640L456.665062,34.161640L429.290563,22.457149L408.782334,13.669569L402.336191,9.413949L396.869630,3.457308L391.139653,0.000000Z "/></g></svg>