<?xml version="1.0" encoding="utf-8"?><!DOCTYPE svg  PUBLIC '-//W3C//DTD SVG 1.1//EN'  'http://www.w3.org/Graphics/SVG/1.1/DTD/svg11.dtd'><svg enable_background="new 0 0 1000 366" height="366px" pretty_print="False" style="stroke-linejoin: round; stroke:#000; fill: none;" version="1.1" viewBox="0 0 1000 366" width="1000px" xmlns="http://www.w3.org/2000/svg" xmlns:xlink="http://www.w3.org/1999/xlink"><defs><style type="text/css"><![CDATA[path { fill-rule: evenodd; }]]></style></defs><metadata><views><view h="366.758605536" padding="0" w="1000"><proj flip="auto" id="robinson" lon0="-77.955118411"/><bbox h="55.91" w="152.86" x="-1231.04" y="-388.86"/></view></views></metadata><g class="" fill="#000" id="country"><path d="M217.423207,177.061143L217.543319,171.576754L213.729768,155.710870L209.524049,149.777790L207.395903,142.215862L203.766812,140.111755L181.959699,136.480288L172.237697,148.426688L171.194510,153.030041L178.726157,174.807580L175.170652,177.728666L170.434960,179.496268L165.276286,176.842195L159.594556,171.443249L158.844874,174.679415L161.991431,181.413392L168.151313,188.248803L177.956948,191.319388L188.071241,191.036361L207.880919,182.860579L217.423207,177.061143Z M685.557696,135.470951L688.321053,130.600481L690.245785,124.309411L677.320669,121.142494L669.843696,120.159839L663.756805,120.581740L664.834514,126.151878L671.446854,131.535058L674.956172,133.452273L677.598945,133.980975L681.269317,138.819382L685.557696,135.470951Z M667.985820,116.266587L671.762455,113.922081L668.049037,108.223667L667.800031,106.749654L660.971171,103.892410L660.277927,97.173827L658.949298,97.542336L657.560893,103.091311L653.628344,108.202304L655.973274,112.015495L664.831205,116.576339L667.985820,116.266587Z M656.130766,99.027053L653.142001,96.757251L651.170650,87.864880L646.435925,83.020747L641.756855,82.347799L634.707822,83.885965L634.750218,86.219910L638.597332,88.655319L642.169595,95.000151L649.359477,96.773273L653.977148,100.848229L656.130766,99.027053Z M602.766885,69.812640L596.337638,71.810168L598.059428,74.560762L601.993788,76.819977L609.350959,79.463725L620.931353,79.890996L623.998830,81.530646L628.433728,81.530646L634.163273,80.398381L628.935302,71.302775L624.488448,70.336057L620.114244,70.741972L615.446078,72.130627L602.766885,69.812640Z M536.338671,57.597621L533.500711,55.690830L516.655607,41.974510L512.004010,42.140091L514.619965,44.062966L520.637687,52.432710L536.129793,60.465803L536.338671,57.597621Z M654.385208,364.758606L678.375603,364.112384L702.631027,360.571528L722.793424,360.673001L733.517776,357.554071L744.241621,355.492595L769.517651,353.687473L794.839439,350.354952L803.830437,350.071902L840.804025,353.281588L850.702636,356.363114L860.193883,360.859923L885.041782,360.640957L892.157770,357.303062L896.592701,353.393740L899.626540,348.038181L901.777741,353.991886L901.218378,357.190909L901.668397,359.733048L912.747439,356.763660L917.664370,353.553958L928.176820,348.700407L949.285946,342.590860L970.620571,340.711010L985.793955,340.235708L989.603721,336.139577L996.268373,330.516111L998.632978,323.584295L996.448186,316.994314L993.738768,314.884890L990.560356,313.250756L986.759676,314.238712L976.333032,312.807512L964.772602,306.890478L952.278308,291.847044L946.296442,286.261206L932.971291,277.791706L925.925844,275.383300L902.391345,270.876224L890.404100,272.216597L872.910795,270.571836L861.916637,268.729492L853.928934,270.801462L851.502439,268.435785L851.286100,264.131648L853.648916,260.147925L867.518270,257.339029L862.043394,250.722648L864.969056,245.329156L869.604027,240.165292L866.838053,232.876078L859.005834,227.439872L842.365240,227.087427L826.063901,224.988773L809.664826,214.714440L791.690028,209.657366L782.528072,209.822909L773.621356,208.466523L770.438479,202.352096L767.117698,200.333531L763.477288,199.949042L753.368378,203.446820L754.528320,199.687376L757.195685,195.890546L749.269560,189.386255L734.795352,175.165373L730.138013,180.676448L723.030525,187.212813L718.832587,186.705498L717.953121,180.756551L709.777583,172.580714L721.046055,174.647374L727.086597,174.220157L731.193270,169.195016L724.190605,166.044280L717.378736,161.686637L713.904590,156.981858L700.747408,144.255880L692.852943,142.328010L693.506356,144.619024L699.075752,150.883236L699.670511,153.366480L694.949273,154.867104L686.569958,152.378524L666.333815,141.089044L657.300498,133.281380L642.804207,118.247929L594.904025,90.091992L591.687214,91.053332L586.450400,90.038584L581.150840,87.458979L574.938843,86.903534L548.257310,87.790109L539.768583,85.632419L532.529126,81.114058L524.091991,74.448603L516.273635,67.019290L506.547909,48.939550L491.294762,39.736485L495.021505,33.193262L485.014738,35.148228L481.689872,34.298941L471.732946,27.141351L463.110465,26.372169L453.599748,27.947921L444.398302,27.023837L435.945428,23.567847L427.929632,19.016788L422.961107,11.671943L419.776166,9.556599L385.834286,11.004222L372.394829,14.823568L369.255740,14.305421L361.485297,6.762831L362.775968,3.675236L352.817809,6.645310L332.629811,8.087603L308.586445,2.996816L284.084426,0.000000L260.023186,3.990407L236.296104,13.771249L228.617749,16.068185L179.431618,22.691826L171.594647,24.379767L92.778095,57.367952L84.815773,62.559511L67.612881,78.347478L58.662092,88.772817L54.810363,102.263508L57.544567,122.087764L52.568065,126.285390L46.834635,126.792735L41.196231,125.665894L37.401843,126.808756L2.843360,141.793973L1.367022,145.857985L5.584011,149.035485L10.747009,147.465428L21.322799,141.254596L26.903638,138.926190L33.413468,137.543028L38.921885,137.842090L38.822943,146.151704L36.604021,154.696214L41.911600,153.003339L63.127628,141.334701L73.247470,137.980940L83.606350,136.437565L87.247837,132.389528L92.134303,120.143817L95.856539,113.847313L99.175185,111.609610L119.562497,110.536150L123.810642,109.548139L128.023687,107.385189L133.460550,107.363827L138.641680,109.751082L149.207100,105.825725L158.631523,97.050991L169.094284,91.341734L173.857119,87.944993L177.944673,83.196995L188.395189,73.994622L203.574720,65.123221L211.566326,58.206510L216.583342,54.825561L295.281896,55.947206L301.290482,56.662921L305.690641,58.350720L309.523591,60.989230L312.990842,65.475731L314.015989,71.719372L310.911399,75.890656L306.069110,79.164635L285.018120,84.078235L274.637353,87.811472L283.201668,98.402191L293.760296,106.845786L296.710297,108.319798L331.948256,110.114243L338.954503,118.830047L345.733457,118.247929L352.059000,114.584312L355.055825,108.020723L357.293968,100.906976L360.610393,107.582792L361.939597,115.534931L364.608546,119.502954L368.759718,122.167872L375.446828,124.432243L419.368725,123.268015L421.042018,120.683209L421.481298,116.715194L429.000037,126.525711L435.406805,137.500305L442.080377,144.197136L450.299207,148.891296L470.706629,158.370331L520.930313,175.587249L528.489243,178.049078L536.425068,179.122455L571.969113,171.891827L580.640412,174.759518L588.259418,183.202350L592.599499,194.325887L594.795716,207.120816L596.046937,233.709131L598.993124,238.381704L603.016801,242.440169L611.184019,247.513253L627.783224,265.626881L638.475638,270.710680L651.766427,270.902924L676.511533,273.476869L688.419808,273.540951L699.531276,275.415341L710.355449,278.544667L712.228289,282.143934L713.153461,287.708395L719.982580,295.179333L720.909619,299.414129L719.317191,304.380556L714.236547,310.970451L707.581346,316.097141L672.546293,339.968685L654.385208,364.758606Z "/></g></svg>