<?xml version="1.0" encoding="utf-8"?><!DOCTYPE svg  PUBLIC '-//W3C//DTD SVG 1.1//EN'  'http://www.w3.org/Graphics/SVG/1.1/DTD/svg11.dtd'><svg enable_background="new 0 0 1000 978" height="978px" pretty_print="False" style="stroke-linejoin: round; stroke:#000; fill: none;" version="1.1" viewBox="0 0 1000 978" width="1000px" xmlns="http://www.w3.org/2000/svg" xmlns:xlink="http://www.w3.org/1999/xlink"><defs><style type="text/css"><![CDATA[path { fill-rule: evenodd; }]]></style></defs><metadata><views><view h="978.21072605" padding="0" w="1000"><proj flip="auto" id="robinson" lon0="-69.0409678682"/><bbox h="5.87" w="6.01" x="-1017.6" y="-207.79"/></view></views></metadata><g class="" fill="#000" id="country"><path d="M862.854363,976.210726L924.057055,971.786820L976.638873,960.330038L999.488340,943.541878L987.649450,917.905905L906.948242,818.764988L853.369327,765.224339L836.418643,730.853957L832.711331,674.364014L820.319599,638.859285L786.417111,614.584480L483.502112,530.076386L382.590165,473.472958L298.829276,377.621429L279.915330,321.698563L262.657833,192.157102L238.865537,139.750638L197.468675,96.532312L154.956595,66.018579L53.397426,16.107628L40.547283,2.495547L28.568196,0.000000L28.568196,0.000000L15.863998,10.209059L0.511660,35.164536L16.845985,82.579936L17.891367,135.667019L5.765854,235.715711L14.972914,273.602619L41.336619,298.558063L73.610692,318.295549L100.791026,341.436046L167.276554,478.464041L197.049573,522.022590L234.438683,538.243611L281.309226,543.121262L320.255173,561.497521L333.677462,618.214359L361.226576,678.334192L429.639007,744.125689L507.140556,796.985742L630.025367,839.069594L751.729670,936.735868L814.093003,971.106221L862.854363,976.210726L862.854363,976.210726Z "/></g></svg>