<?xml version="1.0" encoding="utf-8"?><!DOCTYPE svg  PUBLIC '-//W3C//DTD SVG 1.1//EN'  'http://www.w3.org/Graphics/SVG/1.1/DTD/svg11.dtd'><svg enable_background="new 0 0 1000 371" height="371px" pretty_print="False" style="stroke-linejoin: round; stroke:#000; fill: none;" version="1.1" viewBox="0 0 1000 371" width="1000px" xmlns="http://www.w3.org/2000/svg" xmlns:xlink="http://www.w3.org/1999/xlink"><defs><style type="text/css"><![CDATA[path { fill-rule: evenodd; }]]></style></defs><metadata><views><view h="371.621354812" padding="0" w="1000"><proj flip="auto" id="robinson" lon0="32.9800796858"/><bbox h="9.53" w="25.72" x="450.5" y="-590.08"/></view></views></metadata><g class="" fill="black" id="country"><path d="M820.820054,130.667538L816.447653,129.613335L813.929146,129.613335L812.816746,130.667538L816.404871,132.707889L818.650537,133.762050L819.777675,136.312383L822.296286,136.312383L824.872432,136.822440L825.523888,138.779927L825.989570,138.855669L826.025782,138.862634L827.677174,138.862634L829.298732,138.352591L831.815794,137.842543L832.655339,137.842543L830.574959,134.782193L827.887551,133.285979L825.760764,133.285979L823.242199,133.285979L820.820054,130.667538Z M804.993008,121.430714L807.783567,120.369553L807.035462,113.736976L803.774510,113.206346L801.265141,114.179164L800.952368,116.566943L800.511006,119.750536L801.219676,121.519143L802.992754,122.403433L804.993008,121.430714Z M895.851202,88.052183L889.622990,85.432277L882.619342,82.880341L872.004191,75.121971L869.451782,78.763052L866.171737,83.390735L859.929721,88.052183L852.549481,89.583258L848.724231,85.942654L844.181229,82.880341L837.371669,86.487054L832.745645,90.603958L830.655310,97.850565L843.932333,103.429672L848.708376,108.055957L849.887097,122.440592L849.887324,122.443359L856.401193,127.572905L866.646450,128.593127L867.922997,139.882712L863.400426,140.970780L857.375259,147.090889L861.868957,149.708793L871.702141,147.566878L886.911025,150.753944L886.918207,150.742381L890.760558,146.137828L895.940983,142.844875L920.581357,135.107240L949.550162,131.358635L956.361479,134.678837L963.109547,141.318827L977.033787,145.174051L991.175373,146.673254L998.650914,146.137828L991.622423,141.693648L983.005916,131.037318L975.606953,119.474815L967.521370,101.476435L958.264917,92.154269L949.996083,85.697777L949.982696,85.687364L947.947205,89.072902L945.154157,91.080281L939.902584,92.134984L932.783992,89.072902L927.278388,85.432277L917.542818,85.432277L908.726285,89.583258L901.060726,89.583258L895.851202,88.052183Z M407.574282,369.621355L410.882707,365.009632L422.202242,363.449730L435.707752,363.449730L435.708165,363.448658L440.057674,352.366724L462.663268,329.103395L469.760704,323.814183L477.897520,321.570176L516.268182,317.028554L555.814048,321.570176L563.502559,320.074139L569.757913,315.585870L574.292509,312.299668L581.988383,308.478963L621.344367,300.142284L635.645015,290.655645L634.129558,272.213775L643.377695,282.023214L655.766775,279.190088L670.625945,271.598976L687.439960,267.321992L694.510454,264.274507L700.225588,257.377158L704.980378,249.784068L709.150554,244.864232L715.871328,243.045958L733.842868,242.858780L741.949783,240.425433L743.912651,236.681685L746.350984,224.968003L749.379757,222.480638L754.287239,220.233921L755.002153,214.804101L752.494885,202.257970L752.151801,190.539376L753.556033,178.685291L756.057912,167.980339L759.125632,159.575958L771.767713,145.388224L782.738645,141.051096L782.744624,141.048750L782.396201,131.143624L781.055364,130.667538L771.993272,124.988283L765.977987,124.002025L759.090406,122.987513L746.586109,116.797548L741.178842,114.246598L735.093900,112.137751L731.077789,114.246598L726.491615,115.266987L719.813953,111.117323L713.767604,110.096880L709.475359,113.736399L706.254829,122.443359L696.919521,126.518661L689.864550,123.491885L685.526322,114.756795L683.741934,98.837142L678.966754,94.176309L674.453206,98.837142L670.861267,102.895966L668.070597,106.048998L668.093821,124.988283L665.496609,135.292260L656.882598,137.842543L650.949814,137.842543L645.108279,131.143624L642.455474,122.443359L644.493920,110.641117L646.244405,95.775311L644.801002,82.880341L644.435993,72.127318L642.327062,60.794307L641.026379,56.675927L632.495336,48.438565L625.877991,41.800442L621.165276,37.681142L618.392192,27.909785L617.468418,19.669667L614.275133,17.626542L605.106853,19.158889L591.408120,20.691211L582.401070,19.669667L577.930411,21.201979L568.264747,33.050950L562.098987,38.191810L561.806026,43.332362L559.715848,46.906737L555.635488,48.438565L543.043230,45.374880L533.572255,40.200406L527.349448,33.050950L519.159627,24.811320L513.389990,22.223505L506.625312,21.746795L499.122141,19.158889L491.566072,16.094167L483.121013,16.094167L471.060198,25.322063L468.332604,30.974093L465.184041,33.595692L457.974061,37.170471L444.521730,37.170471L429.806727,34.106383L416.149373,32.506205L411.180138,33.595692L405.869396,39.179092L394.138707,46.906737L384.920905,51.570219L376.178087,60.794307L367.190142,71.106389L360.555962,75.632413L353.366622,75.632413L344.335371,70.085448L340.464972,65.422990L335.092856,62.870439L331.122218,65.422990L328.559725,72.637779L327.126932,75.632413L320.905402,80.362354L307.027163,84.411512L302.383213,84.411512L296.623497,81.893572L293.026744,76.653286L292.361436,70.595920L289.242614,60.794307L282.776032,55.654810L271.187473,50.480962L259.494831,44.353628L244.611041,39.723795L235.660704,35.127758L230.286353,28.454559L226.022854,19.669667L220.599200,2.225689L203.198860,0.001952L203.183156,0.000000L200.682438,8.397837L197.834657,17.115753L191.574411,21.746795L185.390366,23.245020L177.256458,21.746795L168.696221,17.115753L163.650552,9.602390L158.327917,10.862705L154.720036,10.085066L153.727872,9.468313L149.330711,6.706278L146.562533,5.955418L143.585492,7.323051L142.431020,10.460479L141.713871,13.570982L133.805635,19.791659L129.203146,30.891249L123.368876,51.317200L113.180474,68.603047L98.827389,84.492152L80.393652,94.886738L58.033823,95.904694L47.309983,91.672059L37.507113,84.545736L19.470166,66.861223L7.678452,59.250370L1.902053,63.270273L1.349086,75.275234L5.510471,91.779217L10.965536,101.905014L24.930608,122.286696L28.649286,134.678837L30.197227,149.029090L31.955643,155.935571L44.204775,173.065368L40.443533,181.521866L41.712827,190.030997L45.825229,197.923892L50.986838,204.505180L56.433902,209.641427L68.762861,217.264950L75.409625,222.480638L91.701842,257.056337L92.719545,263.231921L95.252858,266.279444L100.694373,285.283864L104.214423,288.891814L127.676430,306.047516L137.421326,311.738595L147.326825,315.639304L170.619011,318.070477L182.210502,320.822161L192.645953,325.123160L222.265949,342.405125L244.727785,351.805914L267.757305,356.238886L290.124486,353.328105L296.106317,351.111572L294.666875,340.685405L297.779057,336.068165L304.413449,338.012296L315.411332,339.470365L318.369688,329.749437L325.463529,328.534244L327.005694,326.103805L329.244861,322.701076L331.536752,319.784342L333.422491,320.513535L336.258889,320.756598L339.068835,320.756598L343.283754,320.756598L346.415708,320.027407L347.743447,328.534244L351.188573,334.367015L362.297924,342.328392L378.563217,346.481203L380.013750,341.981268L387.127413,345.033981L390.886156,348.154420L393.575388,341.981268L399.598883,335.298842L417.672468,337.876894L420.861212,355.785454L410.268792,355.785454L407.354566,352.190473L401.695398,357.854198L403.541765,367.078156L407.574282,369.621355Z "/></g></svg>