<?xml version="1.0" encoding="utf-8"?><!DOCTYPE svg  PUBLIC '-//W3C//DTD SVG 1.1//EN'  'http://www.w3.org/Graphics/SVG/1.1/DTD/svg11.dtd'><svg enable_background="new 0 0 1000 423" height="423px" pretty_print="False" style="stroke-linejoin: round; stroke:#000; fill: none;" version="1.1" viewBox="0 0 1000 423" width="1000px" xmlns="http://www.w3.org/2000/svg" xmlns:xlink="http://www.w3.org/1999/xlink"><defs><style type="text/css"><![CDATA[path { fill-rule: evenodd; }]]></style></defs><metadata><views><view h="423.536063187" padding="0" w="1000"><proj flip="auto" id="robinson" lon0="32.9765164204"/><bbox h="10.39" w="24.6" x="450.89" y="-590.0"/></view></views></metadata><g class="" fill="#000" id="country"><path d="M440.105202,421.536063L446.913578,400.667630L444.701311,375.337765L463.066293,349.330458L491.681913,335.083586L525.822734,333.373809L592.656037,319.862070L657.233243,297.091990L709.392185,258.916273L801.598988,146.538736L835.075460,144.220450L871.594066,149.260119L935.760694,145.429998L998.816669,133.804172L979.297011,94.451930L966.918468,80.902547L945.630911,86.719294L908.061801,66.981117L886.528318,61.364839L869.130464,79.557579L848.107919,92.636504L828.749550,98.452455L811.300953,100.133291L784.276200,113.511559L749.393188,110.150385L697.900788,99.192027L672.598853,125.577063L665.498925,122.418019L653.583555,55.983637L632.569481,28.769949L608.007526,13.763591L575.769701,20.022148L531.798740,17.734123L498.113506,6.562359L435.960360,25.136349L386.388255,45.657539L350.971182,65.333264L322.493434,64.257099L272.183212,46.094825L233.797086,25.708315L227.598948,8.009381L192.568858,0.000000L140.053180,18.541668L99.169906,63.853533L54.573382,91.527059L1.183331,68.696196L20.000934,157.927639L87.708963,278.442310L111.284876,311.814403L145.055889,327.741372L255.533243,366.792373L288.046366,367.864781L353.451156,358.715400L382.059265,376.309543L402.131406,417.215379L440.105202,421.536063Z "/></g></svg>