<?xml version="1.0" encoding="utf-8"?><!DOCTYPE svg  PUBLIC '-//W3C//DTD SVG 1.1//EN'  'http://www.w3.org/Graphics/SVG/1.1/DTD/svg11.dtd'><svg enable_background="new 0 0 1000 457" height="457px" pretty_print="False" style="stroke-linejoin: round; stroke:#000; fill: none;" version="1.1" viewBox="0 0 1000 457" width="1000px" xmlns="http://www.w3.org/2000/svg" xmlns:xlink="http://www.w3.org/1999/xlink"><defs><style type="text/css"><![CDATA[path { fill-rule: evenodd; }]]></style></defs><metadata><views><view h="457.530020199" padding="0" w="1000"><proj flip="auto" id="robinson" lon0="15.5143464017"/><bbox h="40.1" w="87.83" x="155.09" y="-852.02"/></view></views></metadata><g class="" fill="#000" id="country"><path d="M357.962125,455.530020L366.758365,448.078001L375.121368,446.351432L384.911895,448.623242L405.371946,451.249552L406.586645,437.719283L417.179269,423.683243L422.084792,418.723725L436.951534,419.214208L439.776476,408.733332L441.120589,379.690034L443.996501,376.495289L454.829923,377.103364L465.984438,382.403916L469.561596,386.688338L475.107607,386.343393L482.685405,383.420525L491.092570,381.532553L504.876063,384.627776L534.871005,397.827714L550.189817,402.649159L559.570497,401.722972L568.439773,401.904576L604.323499,422.302528L628.445969,425.163913L650.247146,425.245669L656.719325,419.087045L665.556434,413.873622L675.282363,414.591120L683.972127,417.261384L701.206686,426.126823L709.032065,428.397898L719.288037,429.833262L726.902015,431.804672L734.850253,447.214711L738.872771,451.322254L742.312713,436.792532L752.072894,417.470288L761.713175,406.254176L769.154027,402.558356L785.417677,405.927263L813.018959,408.724251L833.794237,406.108881L852.578305,397.500852L862.515160,389.974520L870.857745,382.068076L873.399486,376.940000L877.199793,374.480530L892.957929,369.915870L897.598981,364.598553L898.749377,354.528181L899.066552,343.299216L901.585038,334.983680L905.148614,328.890895L933.633204,314.251990L935.802719,309.113791L940.103069,304.103118L948.380479,298.504267L956.145722,290.415499L964.720905,285.452612L976.455955,286.005016L987.129406,284.981716L995.242229,282.156472L998.904782,281.866716L997.918580,276.425173L993.244828,262.784296L959.439645,236.088847L954.532539,224.959485L955.307337,220.666120L952.427418,213.590169L945.239927,209.325521L920.206159,204.248497L914.194374,207.166324L908.197605,204.167199L898.637159,197.790565L882.624922,192.607198L880.672912,189.923736L874.640003,185.364662L871.484360,184.750822L869.765346,187.522232L865.650105,191.442423L850.224544,196.399814L843.660801,194.358963L837.459109,190.050137L829.955817,180.770213L819.589797,172.639218L811.424878,169.751963L806.517289,165.484772L805.179800,162.165282L822.014748,155.500401L825.149825,148.629707L821.669029,136.100773L818.907726,134.523775L812.397122,138.759336L798.174447,142.481737L784.889565,144.194383L778.027578,144.194383L737.447984,121.397479L711.845710,114.426835L696.992511,112.409804L695.620396,114.723999L703.479790,127.504925L716.439208,143.283963L716.299136,147.493766L703.155543,153.949392L695.616010,156.762912L686.914579,162.246460L679.842219,169.815119L673.421179,173.252798L667.511697,172.386572L660.974189,168.732470L642.904343,145.375266L621.274274,127.504925L618.530439,123.505213L612.201277,122.586438L603.007052,118.488337L599.534526,113.022102L603.432912,107.313822L609.036495,102.092717L619.525951,98.870503L622.513939,95.846626L624.008118,91.284405L627.450951,85.391468L626.201825,83.268502L617.939541,76.594758L606.052260,70.291175L575.112810,75.020983L566.815962,78.393461L561.560357,74.004819L557.300303,67.593907L549.254887,66.371227L537.868295,60.519251L524.470327,54.812225L511.735199,53.122797L484.857257,44.847800L474.748765,44.398627L468.655335,41.551026L462.036918,35.299844L456.275051,28.448412L452.375590,14.561830L432.589257,8.253522L413.073231,4.305901L411.902269,6.315533L413.906491,20.314952L413.531649,27.792984L401.287233,32.426180L388.780248,32.866192L387.311302,35.928495L383.191991,40.347391L376.981049,41.012079L367.246100,37.715733L360.412655,33.494791L360.985404,22.612923L356.774260,21.903764L351.056319,15.225940L348.428563,8.056129L342.618099,5.131269L322.063400,2.116990L314.993290,0.000000L309.824912,1.524935L306.279570,6.602635L309.192307,11.187661L313.342567,15.656722L325.190759,22.738598L324.262147,25.557457L300.551182,32.453119L285.844061,39.530025L271.928428,43.509284L258.005394,50.840427L230.012104,59.081156L209.166740,61.265291L204.949874,63.440599L198.174943,77.413154L193.101956,80.336184L187.902011,78.816172L183.865599,76.531805L179.125191,78.429436L174.391414,83.052616L169.217302,84.878703L164.582130,84.815733L157.271483,97.025541L133.571751,100.733583L131.223057,107.061747L127.354314,114.408825L123.973504,116.209864L112.925744,113.301242L97.836402,111.689469L89.537113,115.714567L79.371357,117.938966L66.818413,118.614424L53.345241,126.658093L40.626148,140.787219L33.770628,153.255073L29.948309,157.736887L22.409175,146.024322L13.645668,137.993285L7.540534,133.829923L2.345678,133.820912L1.095218,135.524032L1.496931,141.652492L7.740277,151.830417L15.091279,158.774026L16.537253,163.906162L20.862795,173.243774L31.578563,183.441944L47.861011,191.532714L59.135891,199.497487L67.846405,210.545220L68.152332,213.942571L66.279036,218.451884L62.816630,222.708783L60.026186,228.249964L52.061984,239.452840L54.981468,244.354775L62.548688,250.542040L69.388387,257.970103L78.332556,269.988760L90.950402,291.058550L98.746484,299.727246L109.144612,308.687904L119.229696,315.529848L134.374689,315.321400L150.994696,328.383204L169.472493,347.280725L182.910982,355.952413L192.052719,358.592351L199.928939,365.406093L207.187727,375.197484L210.162817,380.869964L216.272330,384.963633L231.946825,384.201150L253.263817,399.625490L266.591498,410.921984L273.856880,420.040771L278.138574,421.357848L290.526466,427.280518L300.509892,433.903340L310.639463,450.640675L331.719549,455.093782L357.962125,455.530020Z "/></g></svg>