<?xml version="1.0" encoding="utf-8"?><!DOCTYPE svg  PUBLIC '-//W3C//DTD SVG 1.1//EN'  'http://www.w3.org/Graphics/SVG/1.1/DTD/svg11.dtd'><svg enable_background="new 0 0 1000 460" height="460px" pretty_print="False" style="stroke-linejoin: round; stroke:#000; fill: none;" version="1.1" viewBox="0 0 1000 460" width="1000px" xmlns="http://www.w3.org/2000/svg" xmlns:xlink="http://www.w3.org/1999/xlink"><defs><style type="text/css"><![CDATA[path { fill-rule: evenodd; }]]></style></defs><metadata><views><view h="460.147073678" padding="0" w="1000"><proj flip="auto" id="robinson" lon0="15.5129981699"/><bbox h="40.43" w="88.07" x="154.9" y="-852.05"/></view></views></metadata><g class="" fill="#000" id="country"><path d="M351.816063,458.147074L353.219884,458.012760L354.346494,457.629006L357.161253,455.638321L364.599402,452.880238L366.773685,450.880099L369.516285,443.556363L371.564789,442.319035L375.354271,445.791286L381.416277,448.362023L383.175941,448.716946L385.348165,448.304468L389.619684,446.529883L391.872272,446.376408L392.867825,447.071846L393.141052,448.256506L393.251137,449.493946L393.782246,450.275752L394.930270,450.381273L397.129272,449.724170L398.100430,449.901635L399.815706,451.652328L400.816337,453.398270L402.064926,454.611822L404.492289,454.746129L406.627621,452.834042L407.250902,452.275874L407.623281,447.450743L407.108965,441.777112L407.253127,436.765742L409.741049,432.996690L417.030556,427.319573L417.498114,423.771649L418.801137,421.595055L419.217303,419.341838L419.944790,417.577680L422.105726,416.868196L429.841342,417.750258L437.636729,420.348584L440.594402,420.118469L442.023027,416.868196L441.677726,416.532633L440.930322,415.334208L440.176935,413.867371L439.796163,412.697764L439.936778,411.403555L440.814288,409.064468L443.004419,397.447216L442.612409,392.319949L441.554843,386.647008L441.195437,381.367530L442.885161,377.458590L442.668511,376.452663L442.599742,375.590457L442.777437,374.967762L443.222868,374.661207L446.408742,374.316336L454.750213,376.644267L466.227347,377.420268L467.514482,380.035773L468.339141,382.555604L468.481466,385.075562L467.723821,387.720218L470.639343,387.768130L481.627766,385.257618L482.353335,384.855181L484.220437,382.823882L484.626306,381.846589L484.787898,379.355537L485.317651,378.598665L486.438705,378.589085L487.243868,379.355537L487.925085,380.275295L488.687096,380.696857L495.560523,380.763924L498.898725,381.539991L506.193743,384.529401L512.864200,386.359545L516.142026,387.863954L523.822129,393.096194L527.277632,394.186078L536.250570,397.015931L548.088582,402.373698L551.435333,403.025484L554.818979,403.025484L557.237867,402.373698L562.265019,400.073338L563.517785,399.814554L568.007758,399.804969L568.902381,400.341708L569.685406,402.622909L570.493300,403.571841L571.524511,403.926496L574.346155,404.099032L576.036755,405.076746L577.163965,405.488925L578.387467,405.421826L577.024552,407.080157L578.845331,406.715895L580.504282,406.773409L581.667122,407.607382L581.983494,409.562953L584.427271,409.026123L585.268336,409.821784L585.376579,411.106370L585.666607,412.026689L601.195152,421.000581L609.223399,423.819592L622.740375,423.138798L643.503458,425.679830L643.659772,425.555173L646.679023,425.171615L648.736881,426.494902L649.575956,426.715452L651.835413,426.149694L653.336565,424.893537L659.867226,414.231680L662.293961,412.812806L666.573915,413.330499L668.086794,413.272977L670.661090,412.333465L671.998569,412.180077L673.382952,412.563548L676.004811,413.905719L684.965201,416.034085L687.706075,416.302533L690.597936,417.251700L691.948158,419.485658L692.729076,422.151181L693.984989,424.346973L696.013003,425.478462L698.381969,425.823666L703.953406,425.631885L706.257617,426.274352L711.833163,429.218279L714.611269,430.062168L717.410751,429.774477L722.911548,428.096309L725.339927,428.249740L729.181510,432.334971L732.310030,444.621059L737.825221,449.561095L737.876191,446.035886L739.989658,443.661872L741.445653,441.076935L747.270191,423.177152L750.421468,418.037890L755.147176,414.385074L757.055208,412.151316L757.603790,408.652262L758.783035,406.926783L766.238550,402.134072L772.701731,400.964715L779.897042,402.498303L797.299619,409.582126L799.812290,409.179503L802.530133,407.613729L805.086645,406.140749L808.498064,405.287628L810.717459,406.150335L815.575869,410.109376L821.013499,410.809187L848.359588,401.549391L850.785532,399.757046L855.167719,392.492447L857.379039,390.853740L860.939730,390.336264L864.075426,390.777076L866.868521,390.642916L869.359787,388.448481L870.316504,385.909189L870.907634,380.169905L871.555307,377.420268L873.186771,374.182219L876.106282,372.534539L879.608909,372.074731L887.523768,372.582436L892.210284,370.724071L896.207381,367.381116L898.839798,363.099799L899.415913,359.029564L898.427513,350.750619L898.294333,349.635906L898.342475,344.666979L899.614224,338.588241L901.804247,332.941061L904.867261,328.194193L908.849332,324.816211L927.921836,318.462927L932.988572,314.957129L936.216997,312.722879L935.707083,303.932680L940.049520,304.726489L943.153023,302.947615L948.752435,296.655280L953.345042,294.523011L954.452407,293.509509L955.029747,291.884140L955.046656,288.442421L955.649317,286.922431L958.498147,285.354710L965.042575,286.129003L969.028898,284.312787L970.023695,284.140729L971.053306,284.312787L976.043921,286.301070L980.382993,287.371729L984.458166,287.180538L989.992840,282.630479L992.639333,281.770239L998.607659,281.636425L998.911024,278.549301L998.096597,274.726610L995.189624,266.843633L994.368958,265.171719L992.316807,261.942767L991.455278,260.166020L989.821290,253.804891L989.069571,252.362823L986.744344,251.025862L984.499245,251.350547L982.303999,252.162275L980.191058,252.305523L978.257302,251.398295L975.106215,248.619469L973.074380,247.339952L970.939729,246.824340L966.410860,246.499699L964.350826,245.382579L963.289446,243.998166L961.278063,238.623393L957.247551,232.820040L954.141856,227.208607L953.575707,222.256503L957.195178,218.449940L953.147392,216.742389L952.283109,214.481702L952.354609,211.648929L951.107642,208.301455L948.844014,207.233394L943.411650,210.237413L940.022860,210.246949L928.693279,205.354846L922.893252,203.714791L917.079018,204.305963L917.395324,204.305963L917.662011,204.410850L917.879081,204.620624L918.076657,204.935289L914.288888,207.843710L912.214579,208.187018L909.126798,206.251194L908.187276,205.002036L906.889286,202.141568L906.169729,201.130937L904.331921,200.082206L900.854705,199.500653L899.074512,198.871445L894.156211,195.639820L891.842086,194.638948L882.392695,193.199660L880.316003,191.407800L880.922984,188.003644L871.963937,183.467855L869.858191,183.046986L867.387460,182.553162L868.451985,186.726689L869.246323,186.993511L870.375802,186.698101L871.627992,186.726689L872.779366,188.003644L873.219335,189.842942L872.562713,190.653032L867.935705,191.808099L862.108571,191.951065L859.514796,192.513402L855.534307,195.639820L850.364387,196.955305L844.973549,196.040178L834.777353,188.375306L832.954299,186.526575L831.593324,184.325407L830.556016,182.048187L829.361664,180.009325L827.596493,178.437404L826.117297,177.322823L825.561642,176.265439L825.928478,175.255722L827.189496,174.312717L827.236511,174.179365L827.252494,174.036489L827.205477,173.865038L827.127429,173.684064L825.046584,173.331643L820.932223,171.731518L818.980422,171.312452L817.460022,171.607703L816.283607,172.188688L814.830848,172.407750L812.476889,171.569606L804.692193,164.284496L804.259659,162.941953L805.145052,161.085349L806.674441,160.428425L813.675148,160.209454L817.432457,158.971822L823.328514,155.954129L826.069407,153.879055L827.160470,151.090315L824.552380,147.683281L822.896520,146.446190L822.381599,144.590653L822.499778,142.906501L823.734956,139.462383L824.007735,138.882061L824.057971,138.330291L823.933593,137.835609L823.531341,137.417039L820.565591,134.487217L819.692877,133.868949L817.155556,133.127044L816.258382,133.621645L816.007604,134.877209L815.345650,136.380152L811.513712,141.222447L809.183128,142.877957L805.887566,143.591568L792.705740,141.726701L785.829005,142.240479L781.972702,146.446190L781.261231,146.855376L780.507753,146.988600L779.712296,146.845860L778.936855,146.446190L777.249921,143.020678L773.875994,140.937024L770.679950,141.136820L769.430080,144.505016L767.375840,143.315636L766.184923,141.422245L765.672706,139.091356L765.619677,136.694068L764.913283,136.227952L764.260518,135.695257L763.689576,135.076962L763.216399,134.382586L765.805041,133.507505L762.699834,132.470760L755.896072,132.632452L752.362869,131.824001L746.986795,129.199073L745.438495,127.943756L744.412813,126.346160L743.281671,123.968948L742.592815,121.972242L742.858392,121.458825L741.121262,121.040493L736.763740,121.782086L734.764960,121.763071L732.826091,120.964433L729.226146,118.663718L727.558755,117.874671L712.312198,114.490573L708.980814,114.813756L706.733902,113.771119L702.446808,111.781679L699.097216,111.439520L695.334648,113.378470L695.593998,115.944926L700.777468,121.506363L702.749710,124.872266L704.203980,128.790138L705.970289,132.356625L708.905560,134.629896L712.611287,136.313564L715.480400,138.672768L717.327806,141.974075L717.964425,146.446190L720.052176,148.482661L720.568965,150.909485L719.786506,152.479892L717.976109,151.937378L716.248621,150.052935L715.466343,148.939459L714.548436,148.454111L712.411448,148.425562L712.053541,148.929942L712.295051,151.156937L711.998421,151.832684L710.697853,151.908825L707.933161,151.128385L706.659076,151.166455L705.008167,152.146768L702.846110,154.878499L701.571486,155.868458L699.973847,156.206279L698.240105,156.572873L695.308120,156.411046L692.453676,156.753739L689.404668,159.028942L687.089909,162.246902L685.744368,164.741546L684.161056,166.788841L681.105001,168.693432L677.086045,173.674539L671.206185,174.026963L664.859061,171.445791L659.501894,167.683983L656.693223,164.960552L655.111683,162.656314L652.876647,156.372970L650.975812,152.889164L646.226544,149.158344L644.127217,146.446190L641.808721,144.124409L637.607854,138.663254L635.299057,136.275514L631.899789,134.439657L625.248523,132.518316L622.408659,129.731648L621.885320,128.124442L621.851428,126.450762L621.588723,124.739144L620.410043,123.027627L618.996254,122.675827L612.374577,122.675827L610.718849,123.122708L609.749891,123.854847L608.701188,124.045016L606.727798,122.827956L605.939617,121.763071L603.628583,117.019104L598.853174,116.344174L597.186563,113.055303L598.060307,110.137455L601.005589,110.669679L600.684065,110.108944L599.791482,108.065677L600.670773,107.999155L601.943587,107.314932L602.715365,107.058352L604.812427,105.547431L607.250511,104.321646L609.286966,102.810867L610.193199,100.435587L612.418261,99.837047L617.165502,100.882125L619.614553,100.435587L620.836234,98.887009L623.600127,96.502551L624.714478,95.096667L624.319214,95.201156L624.203585,94.118287L624.266999,92.703021L624.405402,91.772211L624.936307,90.708466L625.293478,90.195603L625.236898,89.587776L624.552988,88.201220L628.970597,86.691278L627.324225,83.187374L613.990374,72.640220L609.350867,70.609073L604.525048,69.631514L599.257735,69.546098L597.414576,69.868783L596.520865,71.710051L595.688370,74.054514L594.085397,75.848582L591.684365,76.304236L589.404259,75.468876L584.558191,72.640220L578.397854,72.137166L570.046673,79.152235L563.968794,80.063653L563.618928,79.513001L563.461343,78.933878L563.527732,78.345274L563.758124,77.747187L565.717088,76.380179L565.847900,74.196896L564.822653,71.662594L563.337284,69.175964L561.186474,66.290979L559.100517,64.772680L556.678483,64.497496L548.330024,67.097608L544.323280,67.192506L543.370331,66.926790L535.138938,56.897764L534.573553,55.778370L534.145943,54.526216L530.527091,54.251129L518.697413,56.594196L517.134960,56.205253L515.996852,55.370465L513.868430,53.008526L512.142287,52.126404L482.431581,43.970404L476.435122,44.378150L475.206715,45.724701L474.001688,47.678258L472.519200,49.034445L472.270919,48.972688L470.422165,48.512827L469.360475,46.995447L469.326716,45.250557L469.568946,43.410947L469.367049,41.628342L467.327782,38.186702L464.999367,36.726734L462.298874,35.797701L459.247606,33.939723L457.531620,31.949161L455.559696,28.916182L453.929553,25.684507L453.266865,23.078574L453.987282,19.705416L455.074138,17.782129L455.067633,16.010542L452.485681,13.007613L448.493543,11.473110L440.247202,11.368918L438.651221,8.679002L437.734648,5.894627L435.986016,5.212779L434.209754,6.263968L433.118842,8.660060L433.120497,8.679002L432.805139,10.544868L431.198838,10.810077L429.095559,10.004986L427.274216,8.660060L425.890902,6.851135L418.455102,5.563172L415.529593,3.541371L415.257129,5.051790L414.657656,5.894627L412.670993,7.116311L411.861207,7.258370L411.066162,7.570903L410.375523,8.053916L409.771874,8.679002L409.756926,8.679002L410.549116,10.753247L413.024787,12.240351L415.444661,14.807439L416.069673,20.131777L415.701278,21.060318L414.391793,22.348954L414.041957,22.974341L413.995658,23.997731L414.145901,24.698963L414.355399,25.220160L415.083987,31.588979L414.921095,33.171919L398.304099,32.195604L393.167640,33.370977L390.078081,33.285666L388.206962,38.205663L387.010379,40.329384L385.713636,41.628342L383.422059,42.140356L380.270801,42.045538L374.815806,41.078411L368.993880,37.703199L366.851329,36.783615L361.727722,35.646025L360.909046,34.271496L361.142310,30.991844L363.207472,26.376302L363.839926,23.940875L362.887280,21.865709L361.135061,21.837283L353.357084,24.499963L351.608675,23.448129L352.213848,21.211919L353.727486,18.577957L354.663459,16.370535L354.700716,13.613858L354.101554,11.823576L352.873354,10.374378L350.981775,8.679002L349.109055,7.561433L345.141876,6.775371L343.264096,5.771515L341.778194,4.270529L341.192931,3.172064L340.786623,2.068905L339.819610,0.516029L338.776541,3.048963L337.189681,3.730761L331.924250,3.494024L327.993677,4.928681L326.392128,4.900271L324.766148,4.218446L323.741560,3.219411L322.894787,2.201471L321.737794,1.406082L316.241576,0.000000L311.687379,0.582309L308.453485,3.404064L306.855568,8.679002L305.394674,10.544868L307.157189,11.435222L312.087880,11.946713L315.050646,12.884470L314.856891,13.253898L313.687211,13.935931L313.711260,15.858967L317.646203,18.786391L323.089041,20.046504L327.095776,21.837283L326.606495,26.404732L322.596928,29.295288L311.183019,28.574992L306.048416,29.446931L304.579148,30.688542L302.192646,33.892327L300.535239,35.219440L278.639830,43.534216L275.867858,43.685933L270.524836,43.135963L267.735283,43.629039L266.249835,44.520388L264.216170,46.796297L262.805207,47.687742L260.996118,47.905866L259.561630,47.564455L258.337025,47.602390L257.109453,48.920637L256.637337,50.703683L256.940621,52.259195L257.387514,53.549194L257.389493,54.516730L256.491487,55.655049L255.671655,55.892205L254.789578,55.911177L250.762910,58.017202L248.190594,58.444117L241.493550,57.846438L238.383468,58.102584L233.000460,59.743876L230.241908,60.189791L217.221172,60.132865L210.722791,61.129083L205.013738,64.013560L206.909175,66.831892L206.530912,69.308832L204.752971,71.320907L202.453510,72.792088L203.405873,74.263342L203.356376,75.373951L202.553472,76.237786L201.164907,76.892800L198.841114,79.427556L196.520781,81.231449L193.863754,81.772638L190.527914,80.490890L189.494698,79.522495L187.245599,76.759897L186.411968,76.047930L184.603656,75.525832L184.216333,75.753655L184.176977,76.418151L183.365430,77.177593L178.160669,80.291511L177.439642,81.459317L176.177108,85.181414L173.228097,86.434880L170.748931,85.570742L168.294847,84.241350L165.460516,84.032451L161.413617,94.450743L159.556709,97.500009L156.147391,99.656538L148.469720,99.295522L144.458767,100.435587L144.430170,100.454589L144.415168,100.454589L143.116776,100.749113L141.757887,100.834621L140.400650,100.739612L139.102998,100.435587L137.927339,99.751543L136.711778,99.542532L135.514158,99.780044L134.363716,100.454589L133.970173,107.951639L133.271164,111.306460L131.359258,113.273915L128.376532,115.800466L127.274426,116.733920L122.288931,116.505775L108.358787,109.880851L107.121825,109.586234L105.831994,109.804821L103.869969,110.897778L102.990072,111.182904L100.372356,110.888274L98.054292,111.002324L95.732901,111.696139L93.979060,113.188371L91.055970,117.218734L89.525195,118.483091L87.645831,118.654211L79.802977,117.513428L68.980631,118.169373L63.224344,119.566869L59.397444,122.362064L58.369833,123.122708L57.923440,124.035508L57.688565,124.967353L57.356212,125.794630L57.412945,126.174994L57.651555,126.793098L57.792384,127.515820L57.524379,128.191011L56.956671,128.447778L55.647396,128.409738L55.139071,128.656998L53.499777,129.912345L49.369681,131.852535L47.895060,133.108021L43.850582,139.757305L42.295452,141.165362L40.736570,142.088248L39.648889,143.524964L39.460152,146.446190L36.795750,149.434332L36.133522,151.166455L35.908020,154.440643L36.501235,156.725181L37.478816,158.695742L37.591471,160.333220L35.643888,161.532827L33.145040,161.275764L31.543439,159.409747L29.451437,154.335939L29.235820,153.384105L28.906487,152.308571L28.222943,151.109350L27.543968,150.414586L24.860917,148.330396L24.455829,147.902157L24.277497,147.492956L24.387333,147.121826L24.753963,146.769732L24.925180,146.636509L25.113381,146.531833L25.304843,146.474738L25.528320,146.446190L26.103399,145.408978L26.120420,144.562108L25.593821,143.896047L24.524946,143.429815L20.341524,143.344181L18.186273,142.811354L16.484082,141.650587L15.814955,140.213965L15.644165,137.055551L14.671441,135.352815L11.767509,133.745296L4.766821,133.327510L1.088976,133.108021L4.631422,135.942578L5.914462,137.578758L6.633830,140.204451L6.523671,142.563973L5.605058,143.420300L4.156531,144.219561L2.488947,146.446190L4.140089,148.634926L11.572261,152.280017L15.351248,155.459144L17.129928,157.515293L18.391603,159.704874L19.001172,162.475410L18.263295,166.665047L18.541076,169.426733L19.994129,172.217261L22.159341,173.750739L24.565783,174.846130L26.773302,176.332120L28.191192,178.151610L28.620571,180.037906L28.764792,181.714718L29.311075,182.886640L52.006506,192.513402L52.157061,192.513402L54.508566,194.305331L59.900248,194.762863L62.486170,196.669325L63.048880,199.367183L62.211498,201.855537L62.183822,203.857815L68.346046,206.718450L70.470327,207.376436L71.466518,208.711524L71.262423,212.297487L70.282076,215.120782L67.271786,220.205289L66.397774,223.057946L63.423232,222.323290L62.712511,224.928059L62.902505,228.802227L62.642795,231.837012L60.452468,233.764921L54.563738,235.864758L53.033304,238.642485L53.889511,240.589902L55.558677,242.957509L58.817750,246.518796L61.020659,248.075191L63.338761,249.326090L68.327436,251.235952L70.408730,252.104976L71.749703,254.062751L72.023042,256.517296L70.939986,258.780986L71.334261,259.029333L72.528401,259.497376L71.933168,260.949306L71.858134,261.398270L73.454220,262.888493L77.049034,264.464762L78.684266,265.859582L79.848128,267.865930L80.807883,271.964975L81.545099,274.134130L82.632983,276.351203L83.667310,278.004542L84.909989,279.390348L86.589514,280.757093L88.264160,281.168083L89.792501,280.986482L90.929918,281.712890L91.339895,284.828965L92.178703,290.899393L93.109548,293.901521L94.955287,296.578784L97.946273,298.539044L104.867948,301.159261L107.988877,303.674457L113.392524,312.541125L115.842885,314.521337L118.806855,315.391897L127.500334,316.434681L130.216795,316.128540L129.401065,313.746460L131.375985,313.220317L137.060440,314.492638L139.617612,315.592799L141.834000,317.008702L146.200541,320.615659L148.802974,321.486353L149.725769,322.998151L150.047721,324.787505L150.834033,326.509952L155.832375,331.113069L155.833046,331.122640L155.864655,331.141780L157.740456,331.993558L172.541216,347.433807L174.721428,351.081692L177.273146,354.193643L181.565295,356.204557L190.451065,356.549294L193.456387,357.487759L195.335094,358.770997L200.141415,363.722337L206.744638,368.990303L208.611660,372.218421L209.073451,377.420268L211.383500,380.265714L215.832922,383.552074L220.670806,386.321216L224.196068,387.691471L225.480998,384.462329L226.729476,382.421465L228.705391,381.645384L229.662960,381.812264L232.114039,382.239420L234.786196,383.552074L237.392486,385.209708L239.977525,386.359545L242.628399,386.110411L243.245951,389.617557L245.052001,392.990777L247.551766,395.885023L250.205319,397.964763L253.060733,399.057377L258.582168,399.776215L260.715214,400.734681L264.452117,405.172602L272.398982,416.964072L275.449377,419.447306L281.452080,420.770463L284.339148,422.045708L287.139419,423.790826L290.522557,426.025035L300.743590,430.570424L302.120843,431.740390L304.797621,434.876392L305.851943,436.401295L306.639495,436.986330L307.682834,437.331599L308.602215,437.849507L309.065596,438.981246L308.877793,440.141779L308.222015,440.314422L307.499424,440.199327L307.078615,440.467883L306.218959,442.203935L305.402326,442.462909L305.168371,443.000042L306.038624,445.532300L306.751748,446.549068L309.484782,449.196575L310.783749,450.117472L315.913911,451.872966L336.898996,453.829966L351.816063,458.147074Z "/></g></svg>