<?xml version="1.0" encoding="utf-8"?><!DOCTYPE svg  PUBLIC '-//W3C//DTD SVG 1.1//EN'  'http://www.w3.org/Graphics/SVG/1.1/DTD/svg11.dtd'><svg enable_background="new 0 0 1000 1079" height="1079px" pretty_print="False" style="stroke-linejoin: round; stroke:#000; fill: none;" version="1.1" viewBox="0 0 1000 1079" width="1000px" xmlns="http://www.w3.org/2000/svg" xmlns:xlink="http://www.w3.org/1999/xlink"><defs><style type="text/css"><![CDATA[path { fill-rule: evenodd; }]]></style></defs><metadata><views><view h="1079.49716511" padding="0" w="1000"><proj flip="auto" id="robinson" lon0="10.4846712472"/><bbox h="125.89" w="116.73" x="74.68" y="-916.41"/></view></views></metadata><g class="" fill="#000" id="country"><path d="M83.408453,202.068247L82.463362,201.568710L81.254261,201.213490L81.218745,200.375411L83.181499,200.009107L86.850114,198.777032L89.243827,198.510646L87.714790,196.379649L83.725434,196.612719L75.649802,198.510646L74.434217,199.237666L74.911185,200.841624L76.451346,202.440131L78.408289,203.167262L79.055464,203.011843L80.615075,202.379075L81.689754,202.234761L82.616245,202.501187L84.055450,203.755643L85.032256,204.177509L84.227357,202.878627L83.408453,202.068247Z M119.509700,187.252758L115.355868,186.276454L100.841488,187.707639L96.943678,189.194380L119.509700,187.252758Z M147.234061,182.316142L147.151658,181.667241L135.024521,181.467582L129.286131,182.199672L124.483176,184.379423L128.851756,185.289093L141.861042,183.980065L146.770906,182.465891L147.067163,182.471437L147.234061,182.316142Z M155.286219,180.818703L153.224424,180.474858L151.051431,180.729968L149.328023,181.667241L150.891637,181.595142L155.221850,182.599002L156.049016,182.415975L156.395782,182.199672L156.710252,181.667241L155.286219,180.818703Z M235.476750,181.994463L236.521893,181.667241L238.054054,181.667241L235.726927,180.436037L233.309226,180.142110L231.238671,180.840886L229.988447,182.599002L230.036319,183.530796L231.139051,182.965059L231.786731,183.031616L232.395037,183.347762L233.327345,183.530796L233.835135,183.247926L235.476750,181.994463Z M177.060573,178.539432L176.979689,177.946078L174.781822,176.947942L165.246473,177.014484L161.996000,177.108751L160.702795,177.735357L160.237157,179.299166L160.689580,181.134822L161.677878,181.783709L164.806328,181.667241L164.979912,179.276984L168.560095,178.605977L176.367604,178.788977L176.648946,178.666977L176.910331,178.672522L177.060573,178.539432Z M195.219652,175.073769L196.742512,175.073769L196.696662,174.147822L187.632902,173.682089L183.180017,174.441682L180.589970,177.014484L181.444775,177.591181L182.350463,177.602271L183.263969,177.058844L184.187352,176.005294L186.870816,177.313921L189.936247,177.175292L192.882869,176.216001L195.219652,175.073769Z M209.049443,172.867075L207.437979,172.484527L205.674047,172.357012L203.447669,172.551056L201.569000,173.088845L201.142210,173.953766L203.260355,175.073769L203.335070,173.432592L205.254154,173.354971L209.792543,174.147822L210.935288,174.031388L211.960915,174.181089L209.049443,172.867075Z M588.335760,141.516584L585.067032,140.403546L580.726352,141.494434L577.043123,143.992017L575.695477,147.088019L577.406741,148.162566L579.183753,148.943578L580.900235,149.010049L582.391928,148.018552L581.777675,146.146442L582.275303,144.988902L583.162538,145.005517L583.746835,146.583994L583.181697,148.960196L583.337641,149.907413L584.655951,149.874177L585.692855,148.605691L588.335760,141.516584Z M592.439740,136.865389L593.684494,134.672965L598.363434,131.273958L600.026500,129.358747L598.614305,130.443647L591.560837,133.067517L591.062158,134.075063L591.077128,134.396157L591.840663,136.865389L592.439740,136.865389Z M853.290186,134.922095L849.158474,133.759508L841.853548,130.676132L838.832411,128.511892L837.409558,126.751847L834.847083,122.307973L833.793691,120.991002L831.734247,120.360206L829.807923,120.941201L828.283155,122.241570L827.429711,123.779959L828.882965,125.307369L833.542043,128.744360L834.664106,130.836658L834.370709,134.396157L831.865961,138.880807L831.246680,141.516584L833.447354,142.147881L834.851809,141.034816L836.284482,139.456669L839.595781,138.310495L840.472076,137.812173L841.287072,137.994890L841.989911,139.656008L841.772615,140.536443L840.992602,141.339381L840.293490,142.469073L840.229171,144.296617L843.861332,143.233303L844.487227,142.945330L844.710049,141.931909L845.397844,140.874228L846.287555,140.038080L847.165414,139.656008L847.075352,138.642714L845.969177,136.942902L846.970578,135.902029L849.066545,135.553235L851.210249,135.935248L852.993668,136.948439L854.572745,138.393549L855.899628,140.220812L856.966084,142.435846L859.363248,141.660563L861.042655,143.925560L861.558728,147.553281L860.493979,150.898980L861.512313,152.666168L857.804070,151.818568L857.900954,151.054089L858.143204,150.555528L858.546011,150.201002L859.072919,149.874177L854.762667,149.868637L853.439104,150.422580L851.970169,152.666168L851.917172,150.505673L852.532141,147.846844L852.203969,147.088019L852.843955,146.079979L850.888771,145.487358L845.489577,145.238128L845.520758,148.727551L849.985173,154.389151L849.551584,158.323073L848.632151,159.132093L845.070940,160.744666L841.677629,161.309921L839.572954,162.590103L838.224418,162.978050L840.358806,165.001005L844.190564,165.849030L850.941007,165.765889L856.962722,164.529892L859.962363,163.155398L862.260421,161.038376L864.136748,161.991569L866.543072,162.257583L878.565449,161.204983L877.512230,159.079285L875.490235,157.348127L876.485598,157.122944L877.327493,156.665547L878.812346,152.993853L878.809859,152.993028L878.747020,152.970867L876.829888,151.951523L856.673782,136.450143L853.290186,134.922095Z M203.735989,120.072480L203.292444,118.678158L202.614551,118.135941L201.058525,118.235531L201.722665,118.678158L202.220930,119.098660L202.589961,119.707293L203.037621,119.812422L203.222304,120.376806L203.735989,120.072480Z M206.792931,118.783283L206.373929,118.047417L204.530107,118.456844L205.130325,119.176122L206.792931,118.783283Z M306.353406,80.931634L308.781856,79.975798L310.233825,78.445426L311.486874,76.771506L313.360788,75.368366L313.204866,74.617107L313.221600,74.009487L313.431470,73.600732L313.914876,73.435022L309.191178,72.512589L304.998405,72.694864L301.335090,73.970821L298.107919,76.384807L299.009181,77.020102L299.540552,77.843245L299.393973,78.611166L298.261032,79.075244L299.524887,80.605652L301.747812,81.196843L306.353406,80.931634Z M558.004255,79.539330L556.177015,77.252126L555.277742,76.423476L552.435449,74.683394L543.160863,71.766932L538.070066,72.413167L534.117676,75.445702L531.531874,80.931634L531.959132,82.804727L533.180977,82.219027L533.753696,82.241128L534.157258,82.804727L534.582862,83.799343L535.370427,83.799343L536.109153,82.992596L537.232183,82.721845L540.023512,82.788151L541.577085,83.213620L542.146364,84.274560L542.136439,87.037619L543.420020,88.159501L546.232521,88.507681L550.493964,88.297667L550.008976,88.054495L549.493062,87.501841L551.380985,86.672879L564.877141,88.352934L558.004255,79.539330Z M282.900357,76.390331L285.194266,73.490258L285.863503,70.165220L285.564669,68.696145L278.846083,70.861125L278.114061,71.225653L277.351136,71.501815L275.492686,72.606488L274.956896,74.793872L276.155800,76.754933L277.555150,77.649887L279.944767,77.683034L282.900357,76.390331Z M758.793371,63.201619L758.068741,62.406523L756.863279,62.257444L755.398623,62.312658L753.690389,62.654988L752.993049,63.604698L752.566720,67.039388L749.991032,75.953919L749.951547,79.075244L750.108060,80.931634L750.834917,80.931634L750.739159,78.053178L750.823422,76.694166L751.092081,75.368366L751.643485,74.318819L753.065775,73.341120L753.780107,72.584394L754.561852,69.767568L754.442636,67.138791L754.868021,64.918886L757.334745,63.328616L757.570578,66.100604L758.236263,66.100604L758.078350,64.245219L758.504740,64.278349L758.831275,64.559963L758.904484,64.709053L758.793371,63.201619Z M783.003607,56.217700L784.820917,54.959126L786.933596,54.020753L788.481629,53.049295L788.408456,52.210335L785.511257,51.078884L782.551529,51.111999L768.258972,54.252583L767.039173,54.937046L765.993718,55.842330L765.476134,56.758683L765.550510,58.332012L766.245942,58.481069L767.732176,57.675067L772.397040,56.758683L772.758038,57.338320L772.633638,58.602523L772.285917,59.883347L772.015577,60.457528L770.607782,61.473417L769.421636,63.764827L768.884132,66.266270L769.393686,67.873277L771.563800,68.375831L773.391665,67.309985L775.072634,65.846585L777.465703,64.725619L779.025107,62.964192L779.798546,62.312658L781.148195,61.429248L781.428887,61.975855L782.782079,63.328616L783.574155,64.289393L784.013810,65.172896L784.729235,65.846585L786.350634,66.100604L787.399546,66.531336L788.209268,67.492225L788.863427,68.453148L789.471548,68.883917L793.133462,69.033031L794.270479,68.883917L795.006746,68.403444L795.617988,67.679989L796.422790,67.094612L797.740763,67.039388L797.813709,67.873277L796.988063,68.022385L796.576019,68.254334L796.255253,68.541510L795.662601,68.883917L795.743610,69.811751L796.641280,70.584970L797.305117,71.551524L798.299947,73.435022L798.387785,74.440344L797.724304,74.865683L797.254490,75.429130L796.390325,77.224504L797.266240,78.241014L791.798870,78.345982L789.089643,77.633313L786.791177,75.368366L787.296384,73.313502L785.881454,71.457629L783.851824,69.690247L782.509954,67.873277L781.153403,68.883917L781.233592,69.811751L782.176037,70.010577L783.240820,70.623631L784.157389,70.822463L783.646968,72.319269L782.769642,73.175412L781.570110,73.506829L780.033015,73.435022L780.840580,71.468675L781.320930,70.822463L780.790917,70.192835L780.253534,69.878026L779.667017,69.795182L778.993965,69.811751L779.853408,69.049600L780.545838,67.856709L781.491015,65.090066L779.744984,65.592569L777.837504,66.730138L776.030771,68.237766L774.635772,69.811751L775.690701,71.921585L775.425886,73.468164L774.656539,73.976344L774.123724,73.009705L773.399648,71.225653L772.094604,70.529739L770.826258,70.159697L770.185912,69.347830L768.396387,69.049600L760.335926,69.944301L757.972028,70.822463L758.922810,70.816940L759.640944,71.126236L760.098909,71.833212L760.328741,73.009705L760.651090,74.053677L761.170904,74.368534L761.672867,74.473487L761.943093,74.904351L762.834835,75.523039L764.724218,75.362842L767.776694,74.440344L767.953550,75.395986L767.809201,75.832388L767.491663,76.064403L767.155713,76.384807L768.097757,77.589117L769.441613,78.229965L772.464261,79.075244L771.851993,79.705076L771.226236,79.975798L771.098812,80.003423L771.178251,80.931634L769.023173,81.229994L765.920677,82.495299L763.092702,83.025750L762.358507,83.755137L760.755149,86.584458L765.402314,85.656055L766.513914,86.004202L767.251697,86.739195L768.095471,87.396837L769.558716,87.501841L769.631341,88.352934L769.258560,89.767797L769.891164,91.094298L771.233131,92.006305L772.916100,92.144491L769.893641,93.764078L768.438420,93.963079L767.123878,93.067588L766.475444,93.996245L763.092929,92.404281L760.468524,93.316333L758.576154,95.720978L757.358814,98.640008L764.280451,102.427475L764.352577,103.279037L762.689228,102.770309L761.301897,103.168443L760.729577,104.086387L761.546228,105.137084L762.604165,105.043073L765.761228,103.848604L767.341837,104.196985L766.891190,105.933430L768.151467,107.100339L770.089942,107.780598L771.668836,108.001825L772.378757,108.400037L773.425500,109.190947L774.528675,109.727452L775.450115,109.351345L776.188721,108.864625L777.292218,108.693169L779.437213,108.842501L779.094136,108.377914L778.637295,108.001825L779.226812,107.293907L779.882461,106.751920L781.382760,106.055095L780.460105,108.134561L780.025221,109.738514L779.237180,110.457559L783.175839,112.316101L786.625186,113.212230L789.699265,113.571797L791.328402,112.957771L791.422219,111.530630L790.374756,108.427690L789.625258,108.178807L784.594480,108.842501L784.779224,108.975242L785.074876,108.986304L785.315429,109.163293L785.348762,109.854666L783.972160,110.783901L784.076587,107.150113L786.337717,106.232065L788.911035,105.822825L789.971029,103.743537L791.035953,102.327944L796.345614,98.612364L798.173062,97.711191L808.693902,96.782407L809.942860,97.296551L810.844188,98.192181L811.772187,98.501789L813.099991,97.246795L814.090341,96.688425L815.570366,96.577858L818.446603,96.782407L818.528421,97.711191L816.582483,98.335927L810.979701,101.421118L812.990949,100.348449L815.408972,99.767899L820.919719,99.485921L820.172542,101.034068L818.620765,102.007233L814.781530,103.279037L814.862060,104.196985L816.201173,104.644911L817.915481,104.628321L819.512379,104.163806L820.526272,103.279037L821.254112,103.279037L821.815051,104.727861L821.462158,105.640328L820.510743,106.055095L819.262808,106.055095L821.639424,106.668964L822.756054,106.751920L823.010294,105.900248L822.820087,103.743537L823.040316,101.526176L823.941471,99.762370L825.213583,98.474145L826.566623,97.711191L823.892436,96.953787L821.916295,95.173695L818.743007,91.304333L816.421725,90.115997L811.302751,89.204054L809.046438,88.352934L807.832742,87.148147L806.460970,85.125553L805.318084,82.749472L804.728749,80.467525L805.549395,78.478574L807.736830,76.788079L812.244516,74.440344L814.730516,71.153852L813.720941,67.657899L810.280251,65.018281L805.483572,64.245219L791.884577,66.211048L787.352137,65.090066L785.465392,63.969130L783.935270,62.472780L782.860659,60.545865L782.332170,58.138791L783.003607,56.217700Z M248.516024,48.148366L248.446133,47.497181L246.148922,48.131810L244.332811,49.682572L241.489182,53.976595L243.711896,56.107296L245.862424,58.812309L248.442586,60.501697L252.002268,59.530010L253.403599,58.602523L251.335950,57.763395L245.629867,50.350365L246.644968,49.318328L247.771039,48.424296L248.055978,48.264256L248.360030,48.297367L248.516024,48.148366Z M271.276999,50.267580L272.340994,47.662735L273.160845,46.570098L273.109103,45.643045L271.082890,43.215197L268.613509,42.122735L262.694184,41.857902L259.158383,42.078596L256.304728,42.933801L254.007494,44.655327L252.073019,47.497181L258.412249,50.344846L261.892907,51.128557L264.613881,50.350365L265.560827,50.918829L267.210306,51.382440L269.015787,51.542498L270.447574,51.194787L271.276999,50.267580Z M499.684239,1077.497165L501.364318,1077.320992L508.541454,1076.568365L510.942857,1075.759289L515.820134,1073.136122L517.919379,1071.430865L519.813110,1069.123308L522.078353,1064.860078L522.703341,1063.978398L523.825767,1063.314415L526.149751,1062.614147L527.081195,1062.062640L528.832982,1059.954569L530.314182,1057.113552L531.165041,1053.956846L530.982239,1050.945258L530.427435,1049.207239L529.760445,1047.969941L528.752510,1047.062830L527.141168,1046.333512L527.977752,1040.734809L528.047596,1039.435822L527.224443,1037.864700L526.171351,1036.315350L525.945309,1035.103447L527.591381,1034.541037L529.448503,1034.254389L530.288517,1033.967742L530.695377,1034.228990L531.262092,1035.538861L531.152746,1036.090386L530.645392,1036.765278L530.276725,1037.657878L530.537281,1038.862526L531.161193,1039.508391L532.103816,1040.059916L533.885833,1040.742066L538.681986,1041.358904L539.989489,1041.162967L541.359374,1040.190541L543.480763,1037.501855L544.980291,1036.583855L547.686632,1036.612883L562.706520,1041.358904L563.181587,1041.801576L563.591195,1042.527267L564.182648,1043.194902L565.155812,1043.441637L568.443978,1043.100563L572.856606,1041.344390L574.419311,1040.959774L575.973514,1041.050485L577.195992,1041.623781L579.853631,1043.267471L578.970450,1044.232640L575.478226,1046.326256L576.302867,1047.440188L582.187812,1049.711591L588.058910,1054.834920L588.429890,1055.473519L588.517026,1056.416901L588.316524,1057.389309L587.993725,1058.035161L587.728418,1058.049675L588.979490,1059.950940L590.584775,1060.727409L602.268596,1060.872543L604.423593,1060.302891L611.492705,1055.992379L614.278285,1055.335640L616.720455,1056.170171L616.694392,1059.987224L619.393767,1060.248466L621.781087,1059.297835L623.294539,1057.839229L624.678365,1056.141144L626.743627,1054.428539L628.793404,1053.862507L633.646288,1053.764540L635.424110,1053.100540L636.303696,1051.707227L635.815342,1050.662240L634.561710,1049.983724L633.166950,1049.664422L638.141723,1044.501146L640.656077,1043.993162L643.426603,1044.312466L645.998673,1044.994615L651.205051,1044.254411L653.585134,1043.434380L655.507061,1041.511299L655.997143,1040.212312L656.684264,1036.961215L657.359445,1035.473549L660.344164,1033.173112L660.701506,1032.766726L662.773623,1032.824781L667.699830,1033.652067L676.808954,1033.684723L683.173847,1034.784143L684.309977,1034.457583L685.287166,1032.070065L686.508283,1031.431460L695.793059,1029.805920L721.539393,1030.756570L722.419516,1030.600547L725.392793,1027.124514L725.741423,1026.228296L725.775217,1024.914813L725.356814,1021.163060L724.996822,1020.390217L724.410754,1020.067293L723.450436,1019.298081L722.573094,1018.376480L722.166787,1017.600015L721.876065,1016.453463L723.604990,1015.843905L726.177003,1013.942673L727.114760,1013.427456L728.704938,1012.821532L728.979099,1012.774365L728.672878,1013.416571L728.477900,1014.915057L728.154664,1016.025321L727.491249,1016.867092L727.182843,1017.846742L727.891659,1019.396047L729.052795,1020.234197L730.255818,1020.078178L732.681338,1018.971529L735.099630,1018.674005L741.629420,1019.842334L743.507136,1019.581093L747.805555,1018.151523L749.661203,1018.456304L750.232257,1019.265426L751.588789,1022.258829L752.274021,1023.409028L753.233369,1024.327012L756.705011,1026.598394L758.318132,1027.255137L760.620609,1027.305935L762.952580,1026.914066L764.655176,1026.257323L765.669537,1025.449417L769.392281,1022.483789L771.459357,1021.576694L775.391966,1020.763939L779.376900,1020.763939L785.738024,1022.135464L787.641831,1021.925018L786.646246,1024.377809L788.521253,1026.206525L791.527147,1027.832056L793.864476,1029.653526L790.897549,1030.937992L789.745623,1034.192706L790.560368,1037.657878L793.446399,1039.551932L795.185457,1039.805924L796.258294,1040.125228L797.248422,1040.771094L802.671696,1045.557025L808.383921,1049.076615L809.637743,1049.501142L810.567761,1049.221752L811.464838,1048.793597L812.631020,1048.764569L813.738860,1049.254408L814.400222,1049.813187L815.118092,1050.176031L816.317844,1050.128861L817.054916,1049.555568L820.033784,1046.333512L819.921733,1045.165152L819.576191,1044.312466L819.170176,1043.594032L818.864876,1042.824800L818.714722,1041.953971L818.552755,1039.508391L818.805923,1039.141917L819.718574,1036.866875L819.832242,1036.663681L819.594800,1036.743507L819.290954,1033.557727L819.597705,1033.652067L821.267019,1031.641909L821.310541,1031.253666L822.454207,1028.470659L822.711217,1028.165871L822.840713,1026.467771L822.796361,1024.762420L822.364465,1022.962736L821.339078,1020.923587L818.944865,1017.752405L817.476611,1016.340985L816.031952,1015.455675L814.284126,1015.219835L811.524959,1016.275675L809.866570,1016.518773L803.577213,1015.535498L801.649190,1013.964443L803.548078,1011.243235L803.570211,1011.228722L803.569732,1011.221466L804.219895,1010.227325L804.354796,1009.298496L804.329971,1008.398697L804.490309,1007.506157L805.029163,1006.403186L811.580576,996.614574L811.031903,996.171958L808.417891,993.124469L804.140766,985.694652L802.157513,984.134729L801.230886,983.724799L798.852313,981.762230L796.087619,980.405499L795.114690,979.291830L794.418054,977.822672L794.365191,977.620430L793.970517,976.110491L792.091987,972.976395L783.786991,966.041071L782.658873,964.655513L781.556897,962.965303L780.870739,961.115535L780.964983,959.222281L781.578120,958.214011L782.278568,958.007281L783.006067,958.036296L783.668354,957.775164L785.118965,955.675253L785.537397,955.211030L789.797242,952.592572L791.154562,951.185455L793.012388,948.480085L793.963109,947.544469L795.593233,946.786554L801.695432,945.774804L801.523431,945.441184L803.171143,944.266269L806.648723,942.580080L810.565650,939.229569L812.287905,938.152651L823.565770,934.294730L838.745941,932.043163L842.362826,930.284744L852.686408,922.294485L854.085750,920.108574L854.509700,917.132522L854.677320,916.407562L855.132280,915.682610L855.558925,914.718438L855.686316,913.257709L855.201348,909.296166L855.316527,907.991416L855.754638,906.704818L857.061277,904.048357L857.275209,902.682123L856.947157,901.450005L855.818142,900.098331L855.192008,897.569017L854.814529,896.938519L854.709878,896.431227L855.249815,895.456516L856.194169,894.681109L859.742089,893.539759L863.432612,893.119459L875.142018,895.815237L877.145495,896.692119L879.028943,897.815420L880.885512,900.004113L885.563361,901.725417L885.819943,901.939225L886.538690,898.195898L887.365425,896.597908L887.749623,896.670378L890.035474,896.358757L890.896731,896.039891L891.760218,895.275345L892.240537,894.612264L893.896492,891.155688L894.451976,889.315175L894.649767,887.293588L894.559239,884.938798L893.645119,880.410677L893.810390,878.737194L895.204674,877.556374L893.775778,876.998573L893.193976,876.571172L891.870630,874.622565L891.309648,874.796415L891.465174,873.463581L894.354891,867.625659L892.050675,865.749866L886.047749,856.842791L883.224956,853.490462L881.613690,852.766453L877.442892,852.223455L875.285962,851.398113L873.281513,849.827113L871.393233,847.640850L870.028974,845.092776L869.562486,842.443539L867.560061,842.631730L865.607367,841.763163L863.638620,840.511014L861.620118,839.519458L859.768615,839.196792L859.045284,839.070733L857.552712,839.656972L856.609632,841.198605L855.639019,843.637844L852.976095,842.602777L849.321641,840.511014L845.960624,838.028555L844.215652,835.879153L843.866823,831.949767L842.456507,829.511302L837.468545,825.531971L833.837933,821.791813L832.418789,820.822477L830.148620,820.113577L823.436462,819.853168L820.194246,818.334158L818.266721,815.983443L816.619827,813.227894L805.439586,801.564593L804.022638,800.921175L803.998761,800.906717L803.998254,800.899487L800.222592,797.422371L799.628625,796.121264L799.385429,794.769617L798.688365,793.627630L796.722531,792.969923L793.424121,790.245290L791.749899,789.175741L789.818256,788.344698L785.524316,787.383609L784.032495,787.781048L784.648684,789.580431L782.596715,789.811684L776.029810,789.023983L773.790878,788.366377L771.939917,786.870559L767.858095,780.172829L765.500598,778.272893L760.272083,776.293626L758.012744,774.812879L756.618504,772.790521L755.915360,770.522765L755.281738,765.937267L754.972048,763.583437L754.112864,763.034721L752.958380,763.171899L751.693382,762.861445L750.424697,761.829029L749.485999,760.782215L748.704686,759.533310L747.882917,757.858572L747.326037,756.220029L746.601054,753.123681L745.721893,751.608120L744.486666,750.554497L741.771206,749.363810L740.565549,748.238121L740.622229,747.898981L741.071857,746.802218L740.169825,746.448667L739.871996,746.261070L740.690118,744.551117L740.483643,742.696996L739.470694,741.218126L737.898521,740.561680L734.130161,739.119003L732.379106,738.174095L730.715066,736.998421L728.253218,734.308286L726.992359,732.519836L726.345595,731.048790L727.501658,728.950543L731.949904,727.364362L733.604440,725.908052L733.800620,723.615628L733.657102,720.689148L734.193969,718.721549L736.440887,719.276496L737.101101,717.121648L739.375022,713.280898L740.115559,711.148229L740.269729,708.439454L739.517224,707.430952L737.912578,706.933921L733.257740,704.773046L733.278646,703.260559L733.911190,701.380899L733.486128,699.342983L731.532767,697.902875L727.459982,697.557263L725.683696,696.203670L725.569969,696.203670L708.426229,688.931779L708.013576,688.046529L707.904634,686.779894L707.580289,685.355018L706.509238,683.980607L704.841717,682.858115L703.023932,682.030675L701.388368,680.872312L700.290756,678.764396L700.080925,676.678265L700.638305,673.513485L700.177847,671.420670L699.224799,669.766698L697.881214,668.213518L695.026633,665.812060L689.412497,663.058620L688.165252,661.405287L689.424917,659.723329L690.519109,659.119581L691.213014,658.472727L691.296226,656.690384L690.752828,654.706980L689.783641,653.471038L687.107738,651.329862L689.885920,651.495660L695.174119,651.811249L697.367700,653.025541L698.102479,654.311758L698.231491,656.697570L698.736938,657.782770L700.022744,658.659594L701.650784,659.062082L704.810869,659.126768L705.618279,659.478952L706.016063,659.982083L706.003205,660.621794L705.568800,661.405287L705.399990,661.426851L705.255363,661.469980L705.113199,661.549050L704.983865,661.649684L704.706919,661.915650L704.623950,662.195996L704.758659,662.505099L705.064656,662.828584L707.091387,664.402945L707.604272,664.927758L708.120610,665.833629L708.369383,666.646069L708.532256,667.365068L710.112519,671.197736L711.322341,672.607293L713.209928,672.801474L714.681098,671.895311L714.596001,670.658389L713.857553,669.169861L713.409448,667.444159L713.579789,664.970894L714.080025,663.662478L716.092668,661.405287L716.235237,659.198642L717.056853,658.113371L718.234405,657.416239L719.409124,656.352617L722.464254,651.329862L723.578157,650.381489L726.697960,648.915903L727.936255,647.967635L728.320235,647.780860L729.309239,647.809594L729.738076,647.615637L729.940522,647.105609L729.834142,646.559677L729.653901,646.092772L729.611046,645.805451L729.862099,645.180541L730.039520,644.476640L730.376717,643.787128L731.152957,643.212550L734.043732,641.101107L738.391933,640.045463L746.566948,639.549973L752.491306,640.411701L753.910945,640.282440L755.067266,639.327366L757.275318,636.282899L758.600140,635.155692L760.353679,634.631597L762.104704,634.545445L764.082082,634.768004L764.746742,634.552624L766.228822,633.727023L767.203138,633.561906L768.137518,633.784455L778.660111,638.788809L782.426068,638.961146L783.258580,638.256031L785.511681,636.347518L786.955901,634.861336L787.483921,632.327161L787.781197,626.664018L788.650221,626.154478L789.554882,625.975066L790.473097,626.132949L791.361169,626.649664L792.341394,626.879319L793.366627,626.951087L794.393108,626.886496L795.373892,626.664018L795.385224,626.664018L795.406826,626.649664L798.436631,625.788478L804.236212,626.061184L806.811553,624.432179L808.214229,622.128815L811.271187,614.259016L813.412192,614.416814L815.265965,615.421015L817.138685,616.073770L819.366317,615.126923L820.320014,612.315314L820.864665,611.433174L824.796253,609.080973L825.409282,608.507304L825.439011,608.005355L825.731588,607.833261L827.097555,608.227646L827.727266,608.765453L829.426197,610.852272L830.206671,611.583781L832.726507,612.551992L834.733580,612.143187L836.486320,610.780557L838.241673,608.865846L839.290572,608.371060L839.897071,607.718533L839.934461,606.879598L839.215062,605.768238L840.952035,604.656933L842.295061,603.137046L842.580795,601.266008L841.149014,599.137088L845.461535,596.958203L850.370302,596.205678L860.205943,596.248679L862.289705,595.911842L866.355937,594.672038L868.705240,594.478549L873.764073,594.930026L875.707156,594.607542L878.748832,593.016687L879.415138,593.002355L880.034425,592.823212L880.712764,591.963345L880.711268,591.232485L880.373693,590.258042L880.144598,589.083035L880.501226,587.736152L881.428513,586.740371L882.353559,586.711716L883.437147,586.969612L884.803702,586.804844L885.869519,586.131462L887.405714,584.412280L888.527797,583.738970L890.634977,583.366509L894.671004,583.781946L896.764905,583.667342L913.304322,577.386503L914.556299,576.384024L916.359021,573.963939L917.468882,573.026048L921.347473,572.367400L929.969344,572.911499L932.998103,570.728023L933.367697,567.277850L930.341078,565.925126L926.229651,564.973259L923.257263,562.761933L923.239097,561.309304L924.122653,560.794108L924.269012,560.515049L922.030989,559.806683L918.306430,559.420311L916.975056,558.747753L918.078590,557.338310L919.285630,553.353712L921.728458,551.222206L925.168620,550.782340L929.320369,551.844471L930.194342,552.445294L930.833980,553.214228L931.607936,553.968882L932.836173,554.483921L934.045956,554.505381L937.015044,553.421666L940.992460,553.600493L942.191147,553.085474L942.979064,551.172140L943.709529,552.345156L944.016447,553.178463L944.458544,554.008225L945.580970,555.142044L946.999412,555.900339L949.996151,556.494117L951.410772,557.338310L952.839638,558.618968L953.767399,559.713667L954.219997,561.066016L954.191853,563.148362L953.484835,564.815811L952.341459,566.805461L951.884322,568.494655L953.205040,569.289193L959.080391,567.277850L960.403987,567.299322L961.123600,568.866868L960.645854,570.706548L959.085867,574.193049L958.909662,576.670442L959.528077,577.708738L963.398362,578.568053L965.016808,579.262691L969.414592,581.812269L973.535202,582.542820L975.915607,582.614444L977.646626,582.227677L978.626163,581.246467L979.530041,579.642245L980.943453,575.925763L980.735255,573.348220L982.108837,571.300718L985.699480,567.836141L990.309609,557.338310L994.332382,547.456801L994.522036,545.869298L994.313871,543.209407L994.387453,541.847407L994.890907,540.889409L995.681403,540.249575L996.323180,539.327388L996.394195,537.551032L996.213843,534.055915L996.766240,530.175466L997.921329,526.492156L999.536392,523.566654L999.051754,523.180902L998.619730,522.752296L998.831627,518.741650L997.005196,516.031382L994.335455,513.721303L992.072375,510.904537L991.684785,509.951413L990.994749,507.474192L990.983489,507.345698L989.817695,501.491277L989.092288,497.849845L989.863520,496.123100L988.571031,494.221691L986.409509,492.545157L984.617787,491.489359L982.071791,490.554877L976.859085,489.356512L974.274411,488.229535L974.273167,488.215270L971.865085,486.917176L964.591389,485.023660L962.011814,483.034030L961.529567,481.573107L961.203278,480.584669L961.858804,477.903861L963.742082,475.255443L964.782898,472.493284L964.286321,468.861992L962.913450,465.363092L961.301060,462.979724L955.719342,459.513766L953.073769,457.248528L951.645987,453.744254L950.902977,450.108770L949.260514,448.520872L947.202935,447.449280L945.231773,445.302683L944.652694,442.383912L945.870020,439.995775L951.661249,435.010299L953.473613,432.907536L954.927101,430.427869L955.610002,427.735042L955.251416,419.331274L955.716318,417.994344L957.764150,414.663017L958.108474,413.361900L958.198493,412.099956L958.436601,410.866516L959.161961,409.697117L960.983298,407.752986L953.573266,403.623570L952.312724,401.651512L952.657566,398.084457L953.600062,395.583574L953.839916,393.619286L952.103355,391.704883L952.027743,390.852508L953.948839,388.671988L953.732345,385.859623L951.839774,383.445230L948.716934,382.412087L945.591840,381.854705L941.793530,380.384983L939.179009,378.258660L939.606669,375.759852L936.984062,371.763718L933.883990,365.770762L932.798665,360.318432L938.054648,356.484448L940.381024,353.260966L941.880440,350.041459L941.247422,348.577221L939.111022,347.152067L939.663837,343.965272L942.247734,339.042335L938.698141,336.901930L938.029543,336.362192L931.281697,330.914047L924.648867,328.933763L921.258146,325.653716L919.141213,324.913464L917.940925,324.074067L913.753954,318.450490L911.948727,316.938577L899.921329,310.421066L896.874142,309.206967L893.073707,306.000336L890.848897,305.264214L888.442969,305.129733L886.134900,304.584737L884.165505,303.452316L882.761923,301.527320L885.456101,299.613089L886.424304,297.953736L886.643065,295.364095L886.248432,293.651967L884.510487,288.795685L883.744850,287.419969L883.670258,286.567701L888.614915,283.593830L894.933456,280.963258L900.927903,277.085086L903.993672,274.430458L905.218605,271.959892L905.416597,270.814820L907.947156,263.072819L907.547877,261.094416L906.730346,259.158558L906.142690,256.936744L906.279546,255.117758L906.895892,253.447232L907.852368,252.228841L908.942864,251.762690L909.650107,250.862195L912.067587,246.646188L910.580162,245.657611L910.089762,244.895021L908.351763,243.832376L907.618934,242.963935L907.165351,241.622500L906.875721,239.144561L906.605078,237.986860L905.649016,235.419634L902.685079,227.460558L900.928577,220.391355L898.419310,217.506383L897.043746,214.656999L894.165269,211.596380L893.136910,208.782907L892.787167,205.758237L892.625369,200.767252L892.304781,199.420979L889.580708,194.121152L887.724860,191.450507L887.976222,189.329690L887.497917,185.497157L887.500745,185.483475L886.682792,185.555344L884.934022,185.377843L883.329768,184.967377L881.927304,184.379423L886.689046,181.667241L887.441822,180.652326L886.929099,178.445160L885.294627,177.308376L883.557595,177.058844L882.786187,177.480276L881.685237,179.365714L878.735325,180.053378L870.092064,179.570902L868.758984,179.166073L865.960698,177.946078L865.163551,177.790810L862.601131,177.946078L862.156252,177.641088L860.279017,176.005294L856.683036,175.395363L848.377610,170.422187L847.245385,170.605130L845.420298,169.440970L843.703213,167.722542L842.893539,166.231482L841.945119,165.732633L839.931473,165.383445L837.865983,164.640741L836.763521,162.978050L837.722821,161.226795L844.954457,156.472394L846.040823,155.192510L846.566066,153.663379L846.286185,152.367012L844.908053,151.818568L844.302562,151.752091L843.607114,151.552660L842.928942,151.253516L842.324105,150.898980L841.966739,150.788189L840.447159,150.898980L840.009541,150.666319L839.997395,150.134528L840.081690,149.514120L839.917042,149.026666L839.548550,148.395205L839.130452,147.398193L838.571537,146.478759L837.806648,146.079979L834.698751,145.116284L834.042137,144.761830L832.799871,143.377291L829.446286,140.398008L828.095945,139.656008L830.869335,138.310495L831.969928,135.918638L832.615544,133.294488L833.975615,131.296100L833.894009,130.371688L824.963981,125.041726L821.599795,123.779959L821.526025,122.938814L822.574596,122.728532L823.222009,122.296906L823.360355,121.699281L822.812386,120.991002L819.843404,121.754616L814.639309,124.543653L811.576693,125.639426L798.582079,127.582043L798.662253,128.511892L799.590767,129.115205L800.939978,130.670596L801.870576,131.296100L801.950869,132.226079L799.439525,132.192865L797.385343,131.218603L795.674431,129.591222L794.147902,127.582043L792.335671,124.466176L791.695449,123.779959L790.715370,123.580738L790.051125,124.028987L789.298317,124.355494L787.991023,123.779959L788.784152,123.215504L789.241878,122.584656L789.937862,120.991002L787.786567,120.382339L783.944097,121.904021L781.282444,121.920622L782.456606,120.941201L784.038106,120.061414L780.986874,118.152540L777.013938,112.747567L774.187891,111.630196L770.421155,110.966433L764.655104,108.593614L761.191753,108.842501L762.338376,108.256237L763.029470,108.023947L764.024332,108.001825L763.939197,106.995260L759.181172,106.995260L757.963368,106.530704L757.563154,105.380410L757.439224,103.909432L757.011084,102.427475L753.670694,98.767169L753.061755,96.677368L754.845186,93.996245L753.504004,93.084171L748.747707,91.304333L747.380886,89.977822L746.431022,88.253454L746.347046,86.634195L747.615187,85.656055L744.864595,85.059241L740.739281,86.236303L736.685196,88.275560L734.133747,90.281808L733.292939,91.624917L732.376285,93.830411L731.557731,94.924934L730.428513,95.720978L729.373782,95.953162L727.321581,95.853655L726.262690,96.036086L725.893924,96.185348L725.474993,95.936578L723.513171,94.200775L722.774857,93.332916L722.183361,92.354534L721.802460,91.304333L720.949228,92.299259L719.962415,92.934926L718.822559,92.973619L717.507551,92.144491L716.416066,93.194724L715.186636,92.774626L713.997357,91.575171L712.939055,90.281808L712.663608,91.359606L712.253312,92.271622L711.060685,93.996245L711.181853,92.299259L711.678324,90.746085L712.663738,89.668312L714.240038,89.358805L714.157601,88.352934L712.798065,88.242401L711.501725,88.375040L710.285836,88.750857L709.227358,89.358805L709.473047,89.823067L709.842702,90.851101L710.113487,91.304333L704.512695,93.769606L701.393855,94.394251L699.294622,93.067588L699.369808,93.996245L698.463566,93.498747L697.740792,93.448997L695.810585,93.996245L695.885561,94.924934L696.562681,95.052078L698.065121,95.853655L691.353764,98.341456L689.643891,99.485921L689.463024,100.038821L689.497006,101.758409L689.212756,102.427475L688.791261,102.681835L687.643697,102.958316L687.045512,103.279037L684.523527,105.225566L683.612254,106.403505L683.046331,108.001825L685.345244,109.439840L686.639212,109.904446L688.290863,109.854666L686.096338,110.922182L683.464280,110.418841L678.626040,108.001825L679.745484,106.928894L679.416508,105.734341L678.416983,104.279934L677.515920,102.427475L679.250576,102.123352L680.491030,100.945600L680.882577,99.336641L680.051348,97.711191L680.704860,96.782407L681.498111,97.279966L682.137639,97.478992L683.680665,97.711191L682.920687,95.571718L683.447736,93.498747L684.759050,91.923394L686.441153,91.304333L690.315975,91.575171L692.483715,92.365589L694.347061,93.996245L695.173823,92.437447L697.018376,91.475679L699.291260,91.315388L701.401925,92.144491L701.319762,91.558589L701.461267,91.381715L701.755209,91.376188L702.130352,91.304333L701.248221,91.210370L700.558968,91.039026L700.075275,90.519473L699.790707,89.358805L700.454334,89.215107L701.348639,88.607162L701.890701,88.352934L702.630360,89.358805L703.132296,87.546053L704.127344,87.114989L706.911594,87.501841L709.075720,87.501841L709.654128,87.164727L710.687308,85.932362L711.495636,85.656055L714.323147,85.937888L718.972429,87.214464L730.424713,87.943964L733.106176,87.501841L735.594490,85.678159L734.109523,84.164044L731.007570,83.600417L728.644965,84.644794L724.535754,83.202569L700.329822,83.202569L695.629443,81.799098L693.141986,79.075244L693.868761,79.075244L693.801251,78.241014L691.695750,79.058669L690.570782,80.235473L689.170638,83.799343L685.239022,89.485924L684.651392,90.795830L678.804041,97.711191L675.408728,103.279037L673.941256,104.661501L670.103528,107.199888L662.335246,110.479684L660.963434,110.783901L659.520854,111.514036L657.238099,114.700313L655.192804,116.160816L651.852881,119.718360L651.144918,120.991002L652.093835,120.476404L653.159659,120.127812L654.292529,119.972883L655.496357,120.061414L654.728423,121.898488L651.758886,123.204436L650.771440,124.792688L651.437810,126.115381L652.240530,129.646574L653.401045,131.296100L650.740593,129.104134L650.266256,125.888471L650.372765,122.108763L649.524603,118.213400L645.675226,120.138878L620.580086,124.233746L611.589886,123.049490L607.459391,123.497730L604.199079,125.263095L601.828019,128.843989L601.455996,129.209300L601.047968,129.674250L600.761335,130.371688L600.813159,131.069145L601.647454,131.550734L601.628217,132.226079L601.234353,133.233593L600.751607,134.097207L600.092818,134.695110L599.250212,134.922095L597.874371,135.686108L596.240258,139.301628L594.166651,140.503219L593.246537,140.508756L590.457021,139.656008L590.519300,140.503219L591.248771,140.503219L591.323295,141.516584L587.879488,144.296617L588.117663,144.939056L588.491091,146.478759L588.744232,147.088019L587.861577,147.254183L586.872315,147.863461L586.154585,148.860491L586.784115,151.054089L586.156802,153.768643L585.238684,155.957109L585.204198,157.392176L583.987188,157.392176L583.149319,156.987690L578.772512,153.092748L578.689412,152.666168L574.239887,152.666168L573.546981,152.217435L572.312783,150.289633L571.466002,149.874177L567.348339,152.666168L566.473452,152.826827L563.281195,152.666168L561.883053,152.073399L561.546912,150.655240L561.819994,147.553281L561.188713,146.866469L557.336123,146.079979L556.512350,145.127361L555.680686,143.211151L554.887107,142.435846L553.929765,142.164494L541.045690,143.460361L535.526443,145.758743L533.516195,146.079979L531.789107,146.600610L528.833803,149.070980L527.525574,149.874177L527.001321,149.957267L525.754551,149.896334L525.335938,149.874177L523.739022,149.525198L523.243849,148.273346L523.027045,146.650458L522.173336,145.238128L521.091315,144.916903L516.987420,145.238128L514.029351,144.540299L511.891445,143.260993L510.202094,141.300618L508.604118,138.642714L508.545965,137.795563L509.577211,136.881999L513.360246,132.065544L513.760704,131.705729L514.574310,131.296100L515.534020,131.368061L516.331664,131.982510L517.078920,132.370007L517.939427,131.761085L518.774207,131.783228L523.010123,130.665061L524.812792,129.757277L528.802874,125.639426L540.755939,119.596632L541.140692,118.418114L542.103166,117.560540L543.038386,116.321255L543.332677,113.997751L542.334420,110.081441L542.100511,107.769537L542.767055,106.055095L541.743258,103.483637L540.378957,98.076080L539.068647,95.853655L540.726476,96.389895L541.386747,96.782407L542.426621,95.455628L546.138495,92.144491L542.736807,91.193788L535.508473,94.626423L532.922238,93.327388L531.109835,93.780661L529.221546,93.161558L531.878437,93.139448L533.787079,93.067588L533.721576,92.144491L524.898230,93.006785L521.316395,94.162080L517.927434,95.853655L512.142420,100.094111L508.671224,101.758409L503.839563,102.427475L499.407840,101.609116L489.465031,94.924934L472.306807,89.358805L465.607838,85.506850L463.213265,84.644794L458.675494,84.346396L457.474996,84.644794L456.536767,85.374224L456.041722,86.131305L455.380689,86.866301L453.968537,87.501841L449.973064,87.822379L448.943256,88.352934L448.247750,89.491451L447.132635,93.996245L444.907002,98.225353L443.246193,99.850834L440.949381,100.497736L441.912813,99.198418L442.244826,97.915749L441.849939,96.776879L440.646383,95.853655L441.280756,94.958102L441.200988,94.532449L440.822098,94.300277L440.525125,93.996245L442.333908,93.581662L444.176665,92.365589L445.572313,90.674232L446.067572,88.855865L445.361447,86.672879L444.412582,85.009507L444.323600,83.523057L446.339897,81.942757L439.636071,77.754852L437.611575,77.224504L412.243905,81.793573L407.535205,80.003423L407.476245,79.075244L411.908450,78.705086L416.439377,77.583593L420.607628,75.810292L423.879732,73.435022L425.126709,71.987865L426.045955,70.424801L426.648071,68.508374L427.027876,66.100604L427.268093,60.485133L427.024102,57.796518L426.365955,55.914091L427.002295,54.009714L426.360970,53.181764L425.155894,53.247999L424.062925,53.976595L422.361661,52.386956L419.596353,52.502864L416.863760,53.126568L415.303868,53.049295L415.275343,51.801904L415.515623,51.509382L415.975549,51.542498L416.635484,51.194787L416.971630,51.183749L419.497400,49.638421L419.417658,49.340404L420.423715,49.539082L421.765458,49.986112L423.173214,50.118567L424.487234,49.340404L422.397683,47.751031L421.372549,46.724609L420.628884,45.643045L418.878378,41.013764L416.296070,38.724237L412.750279,37.140988L410.255753,37.267865L410.851404,40.086896L406.114347,41.460657L403.365941,41.813763L402.059550,40.550326L400.804895,38.200155L398.209206,36.876202L395.400646,35.999118L393.479297,34.956582L388.978461,33.505923L382.448384,33.252203L377.227034,31.845755L376.577386,26.965100L375.249019,27.792270L374.030952,29.562495L371.490407,30.323561L369.595235,32.176677L363.425600,34.542889L361.949773,34.537373L361.948966,34.537338L361.889611,34.573557L360.346624,34.965850L358.539982,34.811734L356.311938,33.319660L354.414024,33.641885L353.299430,34.412439L351.805934,34.720667L350.823913,35.512266L349.248029,35.729435L341.509636,35.708418L339.601986,35.147988L338.727248,33.536811L338.296004,31.645549L337.731994,30.279717L335.887582,29.117062L313.179063,25.195206L304.709180,22.674302L296.182526,21.595985L293.723996,21.876063L286.622139,23.878706L282.705440,23.752661L278.941553,22.896292L277.722767,26.816212L277.425414,29.959570L278.230187,33.527985L279.785650,35.866731L282.001316,38.580803L283.538165,41.339278L283.080871,43.789033L283.133511,44.721541L286.808912,46.045868L292.755229,49.781912L295.884703,51.194787L297.366041,53.082412L301.495166,60.457528L297.962730,62.312658L298.746825,63.328616L299.904283,62.710202L302.116021,62.240880L304.299899,62.191188L305.312807,62.820632L305.914394,64.261784L307.233594,65.703011L316.309656,72.672770L319.198118,75.788195L319.380761,79.075244L318.790770,81.279721L317.075500,82.290857L313.060707,83.799343L308.739124,86.761301L306.548681,87.811326L303.878732,88.352934L292.191849,88.352934L283.668023,90.115997L281.357466,89.358805L280.355043,90.480783L279.446983,91.901285L279.220322,93.432414L280.212552,94.924934L281.806198,93.216835L283.227539,93.548496L284.749083,94.587728L286.681867,94.924934L286.733847,95.853655L284.225607,95.759675L280.987836,96.251688L278.132562,97.241267L276.702830,98.640008L277.201462,102.173118L279.567650,105.159205L282.715918,107.233071L285.592817,108.001825L286.823616,107.692108L290.225285,105.137084L291.844141,104.644911L295.676036,105.137084L298.935104,104.843991L304.417038,103.566584L307.632628,103.279037L307.440956,103.715888L307.192921,104.683621L307.010824,105.137084L309.255243,104.379472L313.117641,101.774998L315.531828,101.421118L314.583926,103.467048L313.044125,105.623737L311.494567,107.316029L310.407118,108.001825L308.577245,108.134561L304.125568,109.107984L302.859099,109.854666L302.911820,110.783901L303.783118,112.847137L302.795036,114.993514L301.297568,117.339235L300.584090,120.061414L300.925162,120.725402L302.980181,123.779959L306.110735,127.582043L306.830964,127.582043L308.657119,125.971487L312.055745,124.709676L315.748235,124.195007L318.385286,124.792688L318.433936,125.639426L318.219249,127.189080L319.756902,128.578311L321.811676,129.901192L323.133152,131.296100L323.280442,133.399670L322.858156,136.317266L322.144984,139.013697L321.414276,140.503219L319.126120,141.339381L316.800484,140.763478L312.485305,138.642714L309.902275,138.111165L307.903105,138.227440L303.876601,139.656008L313.465382,153.137069L317.227207,156.472394L321.105823,158.633379L323.619033,159.254002L324.660473,157.857620L325.869229,157.259194L328.623280,157.835456L332.765004,159.254002L346.349806,159.486740L350.382099,160.196048L354.526289,162.058072L361.535773,166.464281L365.501725,167.628309L365.820577,170.350119L367.770691,174.746635L370.513090,178.844432L373.232577,180.652326L374.869600,181.096000L380.020148,183.214647L381.135838,183.957879L381.696936,186.331925L382.234511,190.048741L383.751085,194.398647L387.453299,197.417378L395.404653,201.213490L399.399190,202.401277L409.056355,203.244972L413.185251,205.032364L414.629011,206.808778L413.261526,207.252901L407.306321,206.253636L400.013164,205.032364L393.447525,201.707469L392.084045,201.213490L389.516294,200.980379L387.488282,200.303260L385.781556,199.171068L377.933890,190.953061L376.223507,186.831167L374.665798,185.394483L371.550437,183.530796L367.021406,179.698452L355.789860,165.782517L353.304358,163.454677L352.345797,162.978050L348.727451,163.111061L346.956918,162.872749L345.456402,162.046988L343.688327,163.039013L335.232435,162.978050L326.826955,164.552062L324.928591,166.331253L320.634552,166.070741L312.950156,167.528533L308.371834,167.628309L299.925703,166.065198L295.793078,164.474468L291.867066,162.046988L289.116892,159.797060L287.824324,159.375912L285.591966,159.254002L283.198169,159.675148L280.891885,160.744666L278.887729,162.257583L277.452110,163.997822L275.823406,167.633852L273.431916,175.844493L269.835804,183.414319L269.290607,185.422218L269.178692,187.718734L269.640023,189.987714L271.322049,193.089159L272.219406,195.686004L273.270115,197.728150L274.484862,199.576210L275.347050,200.375411L278.379739,205.704056L278.948356,206.386869L278.181225,210.273137L276.037115,211.916651L273.648543,213.238200L272.167262,216.203606L272.294927,220.230220L273.884268,228.757629L273.750000,232.136048L272.167010,229.624417L271.358782,226.246331L270.828457,218.580620L271.271260,214.615350L272.849604,211.672338L275.087463,209.495837L277.560824,207.819168L277.506425,206.808778L273.283652,205.287716L264.066400,203.922168L259.653639,202.234761L258.275912,200.902676L256.870276,199.037872L255.196004,197.361884L253.110706,196.646014L248.649559,196.812494L246.865871,197.361884L245.496686,198.510646L244.690878,200.442013L244.164655,205.076773L243.365591,207.319520L243.259891,209.318171L245.524556,209.606878L249.691609,208.751871L252.939582,211.500210L252.608726,216.181392L250.463306,220.880092L248.352174,223.746390L247.085337,224.729671L245.960894,225.262991L244.663489,225.490767L242.867540,225.529656L241.292674,224.946331L240.100840,223.663063L239.162223,222.379859L238.259937,221.802161L237.472103,221.413333L235.338147,219.613691L234.055069,219.091596L232.254955,219.036055L231.053879,219.435955L229.718229,219.935840L228.200784,218.747242L227.127847,217.031093L224.943378,212.483021L226.781483,211.583497L230.987621,211.294768L232.884688,210.534094L235.136190,209.207131L236.083186,207.952409L236.288315,205.498661L235.011976,204.072042L232.614503,203.555814L230.927093,202.945235L231.744893,201.213490L231.701952,200.375411L228.014181,198.471798L223.386036,194.165597L220.138588,189.222119L220.641001,185.394483L220.589440,184.379423L211.935735,182.493622L180.001705,185.893708L164.341891,188.389976L161.785826,187.929535L160.588934,186.742412L159.411215,186.143324L143.018616,187.552313L134.685386,190.048741L130.856066,193.183484L128.814810,194.276573L125.077904,197.578313L121.709075,199.404162L120.259942,200.908226L120.566641,202.701007L122.009927,203.788948L125.193129,204.987956L126.187263,205.964966L126.456442,207.685928L125.740300,209.018364L124.738789,209.434764L124.212533,210.534094L119.864092,209.817858L117.761605,209.795650L116.927350,211.039357L116.546512,213.071615L114.653762,217.214365L114.284112,219.513714L114.764700,229.629974L116.503662,233.430858L120.534436,234.931363L144.998872,235.592724L149.306525,236.782108L152.016640,239.683547L149.961480,239.060988L146.175788,237.265658L143.831266,236.798782L141.343680,236.832130L139.910880,237.399053L137.345070,240.534031L138.216887,242.040515L137.923580,243.669398L137.028471,245.131590L136.129869,246.132378L134.951502,247.133206L133.914066,247.578031L134.397799,251.458990L134.607243,253.652068L134.369663,255.781761L133.742133,258.134168L132.355095,261.143874L132.137706,262.246111L132.288450,263.881890L132.738283,264.751051L133.292314,265.464775L133.745629,266.659072L135.183087,276.452333L135.234956,281.355705L134.439333,285.718998L132.306516,290.302339L123.940519,301.010711L123.188719,302.805695L122.195844,305.175740L121.459402,309.755605L121.097279,324.548659L120.514220,329.380110L118.677750,332.313451L114.790152,331.381687L113.139234,330.850279L107.845715,331.463171L102.068234,330.124040L91.836433,330.251573L88.259137,331.119524L86.366810,332.207715L84.543933,333.255879L85.506307,334.690848L85.344845,335.920384L84.900665,337.057848L84.980918,338.198908L85.775778,339.081318L89.408290,341.402669L83.512108,343.752597L81.731542,343.876657L83.147414,346.028311L83.626872,348.477954L83.881794,350.895934L84.623998,352.941833L86.835607,354.870880L89.727633,355.952490L98.321212,356.892290L103.974847,358.552099L107.040342,358.938695L109.871317,358.793278L112.548254,358.176150L113.522228,357.438454L114.153243,356.516365L114.823961,356.268117L121.757829,364.585831L123.428527,368.115963L122.726023,373.122896L120.724397,377.048267L120.029772,379.121236L120.069514,381.638146L121.156039,384.574284L121.829152,385.486608L122.117470,385.877377L121.845445,386.583988L117.131506,388.870854L116.012618,389.932688L113.607950,393.157543L111.510716,394.656467L106.932089,396.247846L104.899107,397.970775L102.661174,401.793637L101.335387,402.770768L94.955837,403.334616L94.339975,403.389047L92.635255,404.149480L90.859397,405.645544L90.319893,406.427373L89.505940,408.179473L88.667147,409.043132L87.388438,409.554945L86.248474,409.618922L85.288508,409.981464L84.595434,411.413914L84.903561,413.511205L86.667359,414.467489L89.064892,415.018526L96.272646,418.125900L99.169174,420.451366L99.756715,421.116335L100.063602,422.044477L100.031345,423.726607L99.499153,424.146269L98.674217,424.260077L97.819677,425.024739L95.484944,428.553173L93.057389,430.918801L90.169300,432.167522L80.572940,432.409447L69.885642,435.312742L64.670895,438.536675L62.900508,439.177244L60.690233,439.177244L53.672417,437.558061L54.677056,440.664856L54.280508,442.038667L50.240913,442.932044L49.834338,440.785862L48.042219,439.977980L43.860854,439.479741L43.349441,439.006424L42.085558,437.312524L41.289394,436.721824L40.388752,436.636423L37.022701,437.223563L33.310471,436.038622L29.739960,433.814796L26.192919,432.516179L22.560243,434.088760L23.935548,434.892881L28.107542,438.237749L29.632413,440.045599L27.869550,439.703947L25.292565,439.187920L21.742720,438.447708L17.356090,439.383653L15.820085,440.038481L13.623095,441.351751L11.549926,442.056463L7.139411,442.675773L5.368302,443.683076L5.041330,444.911119L7.563292,446.402656L9.105861,449.069147L9.013764,451.853447L7.292339,453.240216L6.666622,453.744254L6.629072,455.225671L7.719316,455.571111L10.872853,455.514131L12.136077,455.984222L14.613508,457.433728L15.722997,458.309886L14.402074,462.213820L16.985654,464.721803L24.437117,467.276376L23.278541,470.362192L22.765027,472.332911L23.298031,474.025796L30.823518,481.903798L35.356010,485.918692L36.297269,490.440744L36.917487,492.944660L36.623282,495.677164L35.897317,498.613364L35.843479,501.157423L37.543884,502.716825L36.957544,503.930163L36.729741,506.956651L36.206585,508.677075L35.169496,509.894299L32.454164,511.429307L31.348499,512.318231L26.053624,520.520104L23.833835,522.752296L22.771999,524.277456L21.933702,527.031575L21.726896,530.118301L22.594997,532.673027L25.195007,533.809348L30.524421,530.832880L33.052168,531.518898L32.198372,531.922658L29.764292,533.548489L32.114487,535.253057L30.551707,536.972049L24.431858,539.663374L14.554927,545.983709L13.134689,547.335232L11.156985,550.857439L9.854331,552.037591L7.850908,552.209254L6.358285,551.143530L5.014194,549.795355L3.478615,549.115933L0.463608,550.403275L1.194250,553.643412L3.011517,557.624484L3.242887,561.116104L4.725379,560.872818L7.521690,559.749442L8.989540,559.413156L10.508398,559.577721L13.402885,560.336166L17.308473,559.956940L17.559390,560.679622L16.933470,561.845979L16.555447,562.998084L16.782635,564.994729L17.103156,566.096896L17.964630,566.834090L20.585376,568.129607L24.190237,569.124557L23.995057,569.682894L23.445030,570.434523L23.273579,571.350829L24.299546,574.200208L24.304079,575.302829L23.686858,576.727726L22.506932,577.902081L20.036793,577.730220L18.557153,578.417671L17.644190,579.806959L17.787136,581.002961L18.068470,582.277813L17.548532,583.925202L16.017380,585.107100L14.343598,584.770432L14.868033,586.546951L15.744647,587.707496L16.851249,588.316448L17.592800,589.161844L17.417244,590.967375L17.245109,591.225320L17.185839,591.476102L17.205750,591.726888L17.372962,591.984842L19.220554,592.751555L19.322937,594.084410L18.965867,595.546343L19.435685,596.707359L20.888663,596.843531L25.188973,595.883175L27.015304,596.019342L29.178723,597.710754L36.131714,605.911636L34.697778,606.664492L36.046935,608.657891L38.333528,609.611631L45.902231,609.762225L46.180919,610.594098L45.454778,611.827623L44.252392,613.046872L44.270184,613.548935L41.865577,614.725243L38.492671,617.042178L36.565835,619.596111L38.454807,621.454356L37.631182,622.523455L37.800562,623.154895L38.694884,623.456270L39.978000,623.535202L39.147537,624.733572L40.054531,625.393779L41.050745,626.979795L41.943279,627.546769L43.032752,627.589831L46.705849,626.664018L46.936968,626.470248L47.206399,626.398482L47.458252,626.470248L47.714431,626.664018L49.414576,627.309930L54.194580,628.192707L56.192583,628.286011L55.003272,629.254958L54.771060,630.367505L55.133115,631.616496L55.784249,633.023491L56.770159,634.279814L57.556777,634.401860L57.993244,634.875694L57.997050,637.194759L57.331886,640.469151L56.638525,642.329166L56.844703,643.973868L60.848515,649.346947L60.983544,650.230517L61.144955,651.286753L59.814389,652.472275L56.913447,652.903390L55.430592,652.687832L54.168348,652.292646L52.939784,652.206425L51.477909,652.903390L50.426531,653.981215L49.747294,655.317792L49.569610,656.719130L50.101660,657.969631L48.133176,659.450203L43.448500,660.528352L41.197149,661.405287L40.165442,662.756698L37.728378,664.187273L36.634516,665.395067L38.144902,666.717968L38.812661,668.299802L38.798550,669.867371L38.185108,671.183353L37.382142,671.614840L35.194876,671.758671L34.268346,672.233320L34.079621,672.693595L33.769437,674.254290L33.554199,674.937579L34.692599,675.671239L35.108136,676.527208L34.821969,677.462339L33.854755,678.419091L33.162065,680.433446L32.693054,682.347257L32.132659,686.261747L32.329315,686.362496L32.986891,686.312121L33.237942,686.340907L32.844122,686.794287L31.876186,688.420777L33.088896,688.982160L33.843979,690.126564L34.624932,693.034631L34.370444,694.582402L34.886433,695.714094L36.865967,698.075683L38.671382,701.993031L39.588823,703.210145L40.706570,701.294482L42.680494,703.793519L46.543522,710.924887L48.311159,712.351433L52.091518,713.713220L53.725940,714.563478L54.276049,715.327296L54.754084,716.296024L55.463806,717.734209L55.593912,718.202650L56.484212,718.267512L58.106458,717.445943L59.074918,717.467563L60.975797,718.433271L64.227722,720.905378L66.129388,721.878437L68.069098,722.310920L73.352921,722.310920L76.775748,723.132661L77.209265,723.154286L77.820252,723.680505L77.785056,723.651671L77.552856,723.846302L77.583438,725.021333L77.427337,725.115050L77.011675,728.150229L77.035487,729.138008L77.353767,729.758094L77.327472,730.298880L76.284064,731.070423L76.248679,732.317922L76.539848,733.457313L77.099628,734.459734L77.916658,735.325165L76.948458,735.015049L76.443124,735.224197L76.091164,735.902137L76.868625,736.616158L77.095908,736.919083L69.144935,741.232553L67.504118,743.201996L67.714065,743.663719L68.434741,744.060519L69.126300,744.601620L69.261271,745.525126L68.986840,746.152842L68.189895,747.162990L67.138530,749.053519L64.366336,751.968960L62.775788,754.119669L62.201650,755.657029L62.354542,760.081955L62.186170,761.425968L61.620756,765.937267L62.108779,770.168896L62.136184,771.198836L63.083076,771.281070L64.252363,771.093297L66.311502,769.901692L67.203230,769.612825L68.430571,769.786145L78.713664,773.967804L80.662055,775.477400L81.388130,776.640349L81.725777,777.796123L81.776131,778.576296L81.561203,778.634088L82.359180,779.565992L87.893819,784.276541L88.300525,785.114694L87.860754,786.241904L85.898718,786.321388L85.338468,787.600393L86.092844,789.226327L88.009537,791.083613L95.572153,796.952521L95.764773,797.545256L95.586769,798.962086L95.732638,799.525944L96.340735,799.909084L97.888813,800.364521L98.372001,800.769360L99.333837,803.364788L99.709255,803.950415L99.846167,804.261309L100.102805,805.360304L100.417983,805.859203L100.908108,805.815820L102.365467,805.006018L102.811132,804.998788L103.588526,807.218560L103.091903,808.990149L102.844696,810.703983L104.333407,812.663794L105.654040,813.126644L110.585336,813.162805L114.945912,814.486305L116.343163,814.218708L118.176395,812.114167L117.668151,809.792820L116.750401,807.529485L117.319460,805.584446L118.420353,805.360304L123.072091,806.235189L126.287006,805.974890L127.516143,806.126731L134.544072,809.366173L136.938084,809.467410L137.066400,814.406749L138.491890,818.247359L140.988823,819.838701L144.319843,818.059297L144.464633,817.350454L144.082325,816.619928L143.961516,815.846022L144.936986,815.021506L145.545750,815.086599L149.875724,817.639776L151.643481,818.392024L153.401396,818.883887L162.946544,818.956221L165.966366,820.113577L166.667725,820.200380L167.298261,819.643396L168.388352,817.668708L169.058860,816.967107L170.031724,816.685024L172.287575,816.446340L173.109943,816.120865L173.640108,815.346971L174.360943,813.314679L174.848341,812.620402L176.655634,811.752576L177.098588,811.640425L179.226217,811.101721L181.382472,811.253586L181.924904,812.815666L186.716806,813.083252L188.742862,813.690752L189.556077,815.715834L188.750055,816.157029L188.488219,816.475272L188.312240,816.938175L189.922034,818.283525L192.563283,821.661602L194.077905,823.187995L196.543891,824.461246L201.413445,825.163001L203.917344,826.226512L204.764103,827.065769L205.913926,828.881814L206.973930,829.612600L208.087146,829.821033L208.519711,829.902024L209.836122,829.619835L211.110751,829.156761L212.497243,828.910756L213.729221,829.084406L216.104504,829.779018L217.174504,829.909259L218.513394,829.619835L221.063168,828.440456L222.276589,828.165514L231.584330,830.386814L237.868980,829.836903L239.880286,830.025030L257.777096,837.818675L268.750019,839.700397L270.076641,840.706434L270.032708,840.750244L267.848152,842.928495L264.624927,848.386482L260.090705,859.934707L258.797737,861.868177L258.142025,862.353369L254.149390,864.178319L253.176271,864.214529L252.950237,864.562147L252.451753,864.974948L251.967376,865.720897L251.782435,867.039012L251.574437,867.813967L250.962982,868.270255L250.124705,868.516508L247.006990,868.559964L245.760034,868.907618L245.227782,870.160642L245.202428,872.833396L244.755673,873.941658L243.618441,875.274506L242.199927,876.469756L240.910439,877.186921L237.996431,880.229562L236.349168,881.461163L234.533699,881.961057L233.268609,882.729021L228.837490,888.851435L228.083700,893.431060L228.271741,898.308231L229.702971,901.286932L229.742409,902.250878L227.037549,904.091845L225.751512,905.237044L225.228782,906.509112L225.107498,909.180187L224.599736,910.542954L223.912483,911.449067L223.196358,912.779266L222.697853,914.377719L222.031387,918.082233L221.979235,919.923699L222.403797,921.612966L223.200442,923.403783L223.839406,925.274405L223.780553,927.235716L222.334012,929.298599L220.324242,930.233986L218.579403,931.470313L217.926619,934.418006L217.810428,937.267921L217.203487,939.646562L216.110911,941.684420L209.395560,949.992325L208.726288,951.707681L208.587170,953.731338L208.066286,954.833852L207.339591,955.682506L206.582696,956.937370L205.917948,959.077205L205.322499,961.815541L205.894587,967.608009L210.992420,974.775588L211.406402,979.157610L210.411981,980.848067L207.541402,983.514392L207.014872,985.389921L207.242133,987.671788L207.058971,988.299399L206.410176,989.706998L205.987272,990.399918L205.272585,991.005773L204.961724,991.615258L204.857636,992.202978L204.929103,992.558514L205.035179,992.914050L205.036310,993.538054L205.714463,996.150190L205.533082,997.721119L204.048650,998.421330L203.451647,999.096147L202.034710,1003.645782L201.809693,1005.594102L203.384380,1010.510328L203.415013,1012.803391L202.792624,1013.732232L201.009217,1015.401251L200.648893,1016.243020L201.076658,1019.265426L201.492752,1020.778452L201.956460,1021.424302L203.636418,1022.157235L205.218660,1023.949658L207.902039,1028.223926L208.599660,1028.935097L209.336531,1029.464848L209.954181,1030.197791L210.248619,1031.536684L210.002319,1032.041038L209.601292,1033.473914L215.248111,1032.019267L217.770203,1031.794303L216.439401,1035.310268L215.286830,1036.286322L212.651413,1036.266708L212.361634,1036.264552L216.589501,1038.132431L218.242225,1038.862526L220.715434,1039.141917L225.589792,1038.276036L229.968036,1037.498226L232.031599,1036.482259L233.739780,1034.671661L235.666358,1031.968469L237.265241,1032.650616L244.491563,1033.020717L245.197661,1033.623039L245.608947,1034.940166L245.881559,1036.257295L246.206038,1036.852361L260.758825,1036.852361L265.747579,1035.894449L266.808215,1035.266727L267.280085,1034.657147L267.701502,1033.945971L268.610999,1033.020717L269.499095,1032.418396L271.879804,1031.304464L273.903663,1030.785598L274.637813,1030.099823L275.163921,1029.414050L275.728371,1029.094748L281.723816,1028.231182L283.745543,1028.223926L286.677541,1028.978638L287.976589,1029.094748L288.603201,1029.704324L289.261285,1031.057730L290.104335,1032.411139L291.228027,1033.020717L295.510178,1033.978627L302.665821,1034.014912L303.002642,1033.966354L306.088738,1033.521443L306.198705,1032.853809L307.401134,1030.451782L310.738406,1028.528713L314.076642,1028.238439L315.857918,1029.609985L317.269559,1031.511285L317.512856,1031.754387L318.562376,1032.803011L320.046079,1032.374854L320.273231,1032.012815L320.726745,1031.289950L320.807871,1030.237704L320.706476,1029.239885L320.803249,1028.281980L320.735926,1027.799400L320.446223,1027.251509L320.233440,1026.612908L320.453658,1025.836428L320.845000,1025.538898L321.425943,1025.350221L321.910531,1025.335707L322.024365,1025.560669L322.131520,1026.424230L322.873073,1026.736274L323.362508,1023.409028L322.342279,1023.325575L321.817433,1023.145395L320.524418,1022.701492L318.955126,1022.476532L313.560010,1023.260264L311.915995,1023.975057L310.408685,1024.914813L308.788006,1025.640494L306.804001,1025.713062L304.445297,1024.595513L301.500721,1022.741404L300.943133,1022.668837L299.163847,1022.120951L299.814884,1020.600662L299.486371,1019.403303L298.968846,1018.376480L299.051425,1017.338775L300.102939,1016.275675L302.875544,1014.958597L304.024265,1014.015239L304.745976,1011.206953L305.221317,1010.183786L306.652037,1008.297106L307.510195,1007.854464L308.758176,1007.883490L314.728090,1006.867594L316.381642,1006.141956L315.246017,1003.928777L316.985591,1003.065280L319.772756,1003.195893L321.873475,1003.986827L322.091660,1005.009967L322.275422,1006.824056L322.742983,1008.529312L323.870215,1009.222303L325.221595,1008.453120L325.663499,1005.390924L326.639419,1004.491140L328.100169,1004.897494L329.234905,1006.279827L330.184307,1007.905259L331.065084,1009.022751L332.229356,1009.244073L333.454922,1009.026379L334.559718,1009.207790L335.361820,1010.626432L335.085254,1011.156157L333.680311,1013.053742L333.351637,1013.971699L333.876051,1015.118242L334.806712,1016.050719L335.131505,1017.121075L335.391625,1018.035416L341.289962,1017.962849L340.338792,1017.095677L341.220146,1014.341786L344.227622,1014.457891L347.957879,1016.261162L350.949763,1018.579668L348.912307,1018.986043L348.967884,1019.962070L350.609756,1021.303954L350.694861,1021.373505L354.033862,1023.430798L356.799358,1024.040368L361.161609,1023.688414L365.177408,1022.585384L366.881053,1020.945357L368.962096,1020.234197L381.480253,1021.424302L387.659974,1021.424302L389.267275,1023.430798L393.448906,1023.427170L397.832759,1024.279842L429.278390,1040.505433L429.554347,1040.647726L430.035918,1040.758767L436.651828,1042.284160L443.815006,1042.178935L446.806474,1040.945260L448.318897,1038.797213L449.579665,1036.242781L451.898972,1033.833489L453.480569,1033.100543L455.148388,1032.940892L456.755937,1033.427103L458.122401,1034.639005L458.575219,1036.300836L458.440881,1038.009838L458.942645,1039.493877L461.270111,1040.495331L462.168958,1040.437276L463.506893,1039.682557L464.066810,1039.551932L467.484162,1040.611442L470.825067,1040.836406L472.498695,1040.553386L473.804723,1039.631758L474.234299,1041.953971L475.468505,1043.267471L476.927847,1044.457604L478.041223,1046.348026L478.062739,1046.772555L478.119131,1047.200711L478.334158,1048.020739L479.591695,1048.644831L480.556314,1048.281987L481.513284,1047.541785L482.760280,1047.048316L488.615403,1053.906048L489.682878,1055.553343L489.237707,1057.030099L486.778352,1058.717296L488.066983,1059.936427L488.442205,1061.395025L488.623301,1062.904414L489.293540,1064.246893L490.427358,1065.146714L491.178175,1065.117688L492.007010,1064.577070L493.446212,1063.978398L494.004886,1064.040079L495.192896,1064.638751L495.771761,1064.642379L496.230271,1064.330345L497.496913,1063.078574L502.376021,1062.316624L504.484852,1063.263618L504.534516,1065.792552L502.776845,1070.988222L503.079024,1071.909790L503.180281,1072.751533L502.950624,1073.687607L502.429974,1074.144757L500.967315,1074.522087L500.529352,1074.786943L499.580206,1076.372445L499.173633,1077.250453L499.684239,1077.497165Z M251.720748,0.000000L247.494496,4.110111L240.383928,20.695948L239.539445,23.573960L239.107831,38.282904L239.386541,41.857902L240.188249,43.761444L240.831625,43.364172L241.266047,41.493761L241.411911,39.077308L240.649857,31.674779L240.930631,31.123254L240.941624,28.454023L241.172569,27.461399L241.695635,27.086417L244.814110,25.432144L245.492914,25.228124L246.508704,25.195039L247.423294,25.520369L248.401796,26.700411L249.106200,26.965100L256.411213,26.965100L257.996532,26.623211L260.826537,24.930367L262.445563,24.268697L275.721420,24.814574L278.289700,23.259680L255.245674,24.119823L250.089251,23.176975L246.365571,20.668382L246.724312,15.866842L245.656410,13.353389L246.610986,10.636245L248.489172,8.430231L252.698224,6.644795L253.534432,4.782331L252.573763,3.134870L249.633305,2.908971L250.423381,2.242305L256.867615,1.983357L251.720748,0.000000Z "/></g></svg>