<?xml version="1.0" encoding="utf-8"?><!DOCTYPE svg  PUBLIC '-//W3C//DTD SVG 1.1//EN'  'http://www.w3.org/Graphics/SVG/1.1/DTD/svg11.dtd'><svg enable_background="new 0 0 1000 1231" height="1231px" pretty_print="False" style="stroke-linejoin: round; stroke:#000; fill: none;" version="1.1" viewBox="0 0 1000 1231" width="1000px" xmlns="http://www.w3.org/2000/svg" xmlns:xlink="http://www.w3.org/1999/xlink"><defs><style type="text/css"><![CDATA[path { fill-rule: evenodd; }]]></style></defs><metadata><views><view h="1231.72235732" padding="0" w="1000"><proj flip="auto" id="robinson" lon0="42.4956097391"/><bbox h="29.82" w="24.23" x="614.71" y="-213.09"/></view></views></metadata><g class="" fill="black" id="country"><path d="M129.570438,1229.722357L132.685824,1227.149137L135.331773,1223.700307L139.412138,1221.806131L173.771712,1220.197869L190.377715,1215.462429L208.482797,1193.983190L224.602397,1187.925402L257.931992,1183.815397L289.419241,1191.874579L300.916091,1192.017536L309.062613,1189.694490L330.350623,1178.758305L335.541750,1178.150740L346.420316,1178.579609L351.612662,1178.007782L371.195491,1170.466818L385.034334,1172.968560L394.578648,1176.578216L403.765443,1177.114304L416.586206,1170.163036L455.924721,1140.302963L509.963326,1121.611379L533.229690,1119.577016L537.757469,1119.181116L581.235894,1130.671258L595.763496,1131.314563L607.615427,1136.228698L624.256179,1173.897779L634.894735,1183.636701L648.576072,1186.996183L673.795336,1189.873186L688.973591,1194.733712L697.001297,1196.234757L705.852813,1192.553623L711.651121,1184.172789L717.536569,1178.293696L727.149641,1182.028439L878.042927,899.181998L907.529718,843.787657L898.421565,834.078975L879.071596,822.738108L871.989624,817.025463L865.077544,806.585111L864.502480,805.740877L854.295578,765.330233L850.367724,758.097964L843.926910,760.292971L839.675550,769.495118L833.657149,779.034959L821.814425,782.158622L808.393963,773.463017L796.270753,773.040899L783.432355,775.967576L698.579719,777.262068L683.071730,777.515338L677.980134,774.813790L670.999688,769.157425L666.037480,771.268009L661.406599,776.980657L655.273075,782.158622L642.273617,786.098379L601.358723,791.557756L574.078518,803.602153L562.273199,813.170131L557.356455,824.623563L560.612536,828.507036L566.970825,832.080957L571.314224,837.315202L568.077358,846.095228L562.663434,849.415878L556.733666,848.093246L550.941903,845.138430L545.594945,843.534387L538.860997,845.898240L529.590356,855.944614L521.202501,857.689362L513.669834,854.424994L501.107045,841.986626L480.823587,833.319166L476.845200,819.136047L475.891573,802.560932L475.865747,801.857404L472.644848,786.830048L464.764941,788.912491L464.687835,784.128500L471.591771,778.359571L484.752295,777.430915L488.153560,779.879192L494.218828,788.912491L497.676696,791.557756L502.791756,792.233142L518.778806,791.557756L533.418019,794.540714L539.039420,794.203021L557.638909,787.983834L563.240627,784.438053L567.073573,778.500277L606.334267,691.572325L619.736261,674.772062L635.236467,663.881437L690.909041,641.340373L702.391722,639.257927L719.100995,646.011804L727.968827,641.424796L736.787450,634.248801L745.345252,630.618591L778.483113,628.930121L786.847180,625.412476L789.951362,621.303866L791.907070,611.707728L794.443696,606.980012L798.575288,603.912624L804.443537,601.042225L807.985497,599.353754L811.061205,597.102461L855.287574,534.544608L874.435259,518.757395L885.760350,515.267885L911.818154,514.620638L923.823475,512.116071L940.052741,502.660625L956.231149,499.508810L960.961186,497.932902L976.706522,486.254298L989.175634,469.172578L997.207485,448.601340L999.593735,426.482327L993.077738,374.336582L993.244877,334.038271L990.999568,322.387777L966.907893,286.986016L962.766551,277.361686L960.323764,263.347308L958.513428,236.950736L956.189046,224.709250L951.401580,216.266844L945.563080,208.696819L940.385830,199.185039L936.899501,187.562654L935.287569,175.912125L934.289862,151.569825L924.680011,159.224284L915.078142,156.241296L906.075243,146.194819L890.710782,120.726846L828.244450,45.082655L821.289149,33.319520L815.981282,19.642761L809.794537,7.401213L799.613606,0.000000L670.411478,63.298344L664.232700,63.977398L656.434373,57.294084L651.011836,56.543551L641.265533,66.514913L628.692084,103.934302L603.371911,131.882668L606.339497,152.468666L612.861066,174.162580L610.101213,192.782883L602.696551,197.321803L584.728017,201.145934L579.835981,207.364612L572.093481,220.695453L553.177940,226.698459L550.358617,227.593179L542.851707,240.602360L444.007625,146.392938L415.607290,132.490241L398.920847,127.629657L388.346819,129.738293L358.633779,167.372064L324.269328,222.375210L307.557852,267.585676L231.534769,391.208398L223.284797,416.404670L218.782951,424.946382L204.782336,432.809045L198.386492,441.064840L175.806368,492.172118L128.656876,571.955971L106.789352,608.932450L100.358663,616.544917L92.220062,623.799991L83.917535,628.338879L77.164126,630.661932L72.169714,634.736209L69.146304,644.600248L63.449815,653.463587L40.036758,665.186065L31.314475,672.012263L22.520129,693.991905L16.087120,746.421371L0.406265,809.143705L2.200394,846.884308L20.723487,926.386145L30.841281,1001.563509L34.010114,1134.584696L31.191578,1164.123116L20.937004,1183.815397L24.265701,1188.474833L28.915644,1194.983887L44.270568,1201.470545L116.605234,1217.803344L118.797956,1221.341522L120.507056,1225.433657L124.266051,1228.864618L129.570438,1229.722357Z "/></g></svg>