<?xml version="1.0" encoding="utf-8"?><!DOCTYPE svg  PUBLIC '-//W3C//DTD SVG 1.1//EN'  'http://www.w3.org/Graphics/SVG/1.1/DTD/svg11.dtd'><svg enable_background="new 0 0 1000 569" height="569px" pretty_print="False" style="stroke-linejoin: round; stroke:#000; fill: none;" version="1.1" viewBox="0 0 1000 569" width="1000px" xmlns="http://www.w3.org/2000/svg" xmlns:xlink="http://www.w3.org/1999/xlink"><defs><style type="text/css"><![CDATA[path { fill-rule: evenodd; }]]></style></defs><metadata><views><view h="569.415475695" padding="0" w="1000"><proj flip="auto" id="robinson" lon0="9.26251207891"/><bbox h="50.06" w="88.06" x="99.14" y="-958.6"/></view></views></metadata><g class="" fill="#000" id="country"><path d="M455.800258,498.101668L452.299676,496.904468L432.388603,499.970545L430.350151,499.247804L424.891100,504.438710L423.189101,507.286349L423.411044,510.375189L424.399865,511.580125L432.354448,518.459964L434.341521,519.555598L436.660598,520.183776L434.338022,523.938457L430.366601,524.172224L426.044477,523.660861L422.634158,525.187668L421.936844,528.219552L423.548744,530.937501L426.673799,532.910331L434.373735,534.262146L442.085532,536.870924L449.131993,538.010953L465.116908,545.319667L474.106558,550.889885L487.625369,556.672991L490.825517,557.075137L495.873682,553.404802L502.426411,551.058029L509.428519,549.837181L531.576535,553.404802L537.729866,551.869513L541.923893,548.075430L542.163237,544.194030L536.475589,542.366771L537.414689,540.444593L538.614118,539.830687L540.021361,539.392188L541.520606,538.069416L542.799893,535.972081L542.718829,534.919804L542.033852,533.597193L541.430317,530.659852L539.765799,528.935551L532.393076,524.610542L530.090858,521.410945L530.667104,521.177196L532.007711,520.183776L529.638808,519.687076L527.431169,518.459964L523.863203,515.275506L522.796385,512.675555L511.535360,505.468216L511.254580,507.483501L511.210073,509.754479L511.722906,511.996385L513.138804,513.946295L511.757471,514.106967L508.442077,515.275506L504.603931,515.275506L501.667277,517.232893L501.898240,518.781347L503.667150,520.724310L505.251383,523.850795L479.482073,513.398557L476.070269,512.828918L472.609505,511.288016L467.890295,504.460614L465.276096,502.920058L462.747655,502.073144L455.800258,498.101668Z M329.372994,508.483883L327.525978,506.833633L323.962665,502.920058L320.300908,500.583791L308.067919,495.678107L305.901402,493.991927L306.921138,496.794970L309.472959,500.832012L334.924499,520.322561L338.197443,521.410945L339.896091,520.848488L342.745709,518.394227L353.630022,516.509817L352.131788,515.983952L350.758212,515.275506L350.633873,512.456467L348.626083,510.820645L345.869424,509.586524L343.449617,507.928923L345.546019,511.039724L345.266735,512.471072L343.305239,512.850827L340.391199,512.828918L338.799227,511.755391L336.733383,506.388224L334.590176,504.248875L335.777061,507.271745L335.246513,508.710250L333.596995,509.141082L331.473406,509.148385L329.372994,508.483883Z M634.844509,489.522859L629.980318,486.406539L617.553286,484.531033L606.033957,483.983724L601.207645,482.407520L597.842148,478.423523L595.310577,478.423523L593.822018,479.058307L593.441914,480.291424L594.304331,482.086449L595.648802,483.348856L600.416317,485.757034L600.514895,486.983075L599.366302,487.596110L598.836401,488.668947L598.986552,490.116191L599.882026,491.889783L598.250343,492.743765L593.798010,494.145213L592.410104,494.342296L590.276855,493.780248L586.749186,492.043061L584.477666,491.889783L585.699883,494.342296L584.779070,495.678107L582.945143,494.860556L581.172496,495.532115L578.262731,498.130869L579.055964,498.634581L580.502565,500.036250L581.252562,500.569190L579.773823,501.211648L578.552206,502.219162L578.070641,503.635569L578.843602,505.468216L576.856895,505.468216L576.945184,506.585371L586.146807,509.871318L590.263920,510.375189L592.843745,509.214105L599.709823,501.693499L604.234891,498.765985L608.930688,497.123465L613.965376,496.575974L630.755383,499.247804L634.035609,499.160200L636.304869,498.714883L637.494712,497.634463L637.608234,495.678107L634.844509,489.522859Z M249.219606,475.468636L243.351518,474.636932L238.439502,475.205990L226.353217,479.539875L226.436447,480.860569L228.897313,481.904024L231.136653,481.604849L233.421712,480.948131L235.993643,480.860569L235.330706,482.276173L232.776984,483.735614L232.325419,484.531033L233.182162,486.173007L234.705215,486.625475L236.416553,486.807923L237.858352,487.596110L239.784697,487.749371L250.744736,486.983075L250.823298,488.209156L249.210326,489.924277L250.271637,491.356967L256.287002,494.407991L257.313340,495.283928L256.574035,495.678107L256.059984,496.203685L256.683779,497.386263L257.687110,498.612680L258.321486,499.247804L255.533476,499.736931L252.122833,497.634463L248.610502,494.824059L245.404469,493.225507L245.475672,494.342296L246.354391,494.342296L246.280685,500.167659L249.343725,504.876794L254.262917,507.702560L259.758602,507.928923L261.091322,507.344764L263.016953,505.862502L264.395941,505.468216L265.852138,505.563136L272.332259,507.242537L279.330528,511.602033L279.410430,512.828918L275.440237,511.492492L270.859440,509.184896L266.359922,507.768278L262.714754,509.148385L262.793738,510.375189L265.237352,511.609336L271.799141,513.113737L274.203005,514.603591L276.260874,515.158651L278.927771,514.012024L281.564835,512.412649L283.602022,511.602033L287.605151,511.689666L289.544197,511.302621L289.520079,509.542710L283.205966,497.167264L280.989634,494.342296L277.248907,490.357044L273.452894,487.253101L268.851043,485.253493L262.598863,484.531033L258.035935,482.757782L249.219606,475.468636Z M397.352661,501.211648L403.902607,490.422732L406.152479,484.531033L411.259017,462.389704L408.037636,461.324920L403.102255,468.159037L399.037043,477.022658L398.416209,482.086449L391.054002,490.568705L387.803094,492.364215L380.444897,499.072596L377.689014,502.270269L376.014796,506.585371L377.324802,507.359368L378.530199,507.614937L379.722762,507.359368L380.901891,506.585371L381.659420,508.600717L382.103251,510.375189L378.579878,511.273410L377.851925,510.988606L376.463530,510.075786L375.701260,510.937487L374.608529,513.946295L372.575096,516.575550L370.909207,518.087456L368.775641,518.788651L365.383118,518.963952L369.921121,521.637392L371.916325,523.222555L373.583858,525.187668L377.894748,535.752854L379.694339,537.462858L383.015761,537.375163L384.894739,536.607846L386.112323,534.393677L397.352661,501.211648Z M960.468598,448.141650L954.947352,445.458168L951.567286,443.038782L949.457145,441.478904L943.227641,435.480559L941.222233,434.518583L940.175784,436.398832L939.496168,439.481775L938.627907,442.149498L936.240695,445.714054L935.268933,447.675072L934.955431,449.497675L935.406320,460.420607L935.519289,467.957131L934.084068,471.776878L936.448931,473.958451L948.495978,480.781238L959.620275,483.094962L969.672835,487.495148L977.690547,489.769199L983.439239,490.071635L990.445567,491.453034L992.277292,490.094220L993.620580,488.547799L995.662475,486.669575L995.047395,484.531033L994.938469,483.429126L994.266647,481.940509L994.956639,480.152788L997.608109,476.526531L998.849811,474.330520L999.120362,472.805790L998.579097,471.142521L997.292600,468.516459L997.895958,468.049623L998.155906,467.568204L998.391403,466.955499L998.964048,466.065635L995.976750,463.870244L989.225122,462.234448L978.672937,456.993169L976.860201,456.169173L975.222305,454.805610L972.578506,451.203713L969.858261,450.644219L966.062789,451.263411L960.468598,448.141650Z M52.113751,411.344168L51.295586,406.028033L46.618630,406.945556L45.350172,409.494355L46.495990,413.361593L51.354744,421.847669L54.805599,426.233533L58.648728,429.060584L62.050392,428.040489L60.716442,426.561401L59.551628,423.217284L58.384214,421.250301L57.909030,419.458254L59.482494,415.459252L59.410791,413.361593L57.306324,411.912240L54.484212,412.269110L52.113751,411.344168Z M319.109777,380.681713L314.719624,379.226416L312.815899,379.604787L313.531091,383.265014L313.135260,384.618594L311.207340,385.149852L311.100065,384.574929L310.052976,382.035194L309.925499,381.496706L308.799684,381.300233L305.067053,381.496706L301.686654,382.369934L295.766867,385.659285L278.017073,390.040709L264.650180,396.934180L257.503217,398.819744L250.615049,396.147951L249.258953,394.160616L249.093239,392.661090L248.554668,391.714819L245.977597,391.379991L238.518989,392.479112L233.620489,397.370981L231.853351,398.157237L230.310809,398.550372L229.017808,399.292971L228.068656,401.149537L233.303076,401.979562L247.676945,410.921761L244.106837,411.613637L240.100338,409.771093L235.995068,407.265967L232.176489,406.028033L232.248386,407.149454L237.252229,411.438846L239.245444,412.028769L244.828313,412.575002L247.448376,413.711194L249.028175,415.808874L245.423821,415.983686L244.264154,415.808874L252.052319,418.256321L250.783549,420.259565L248.529709,420.929765L245.929041,421.162882L243.616199,421.803959L247.223952,425.009518L249.286155,426.291820L251.174363,426.816412L255.214724,426.495827L257.407396,426.626975L258.892953,427.428445L258.861918,433.593070L259.246464,434.606035L260.748338,437.747132L261.172397,439.715011L260.941911,440.720857L259.749414,442.339015L259.501713,443.432406L259.890606,444.511250L261.293799,446.129577L261.653383,447.106439L262.382126,447.981263L264.019095,448.987337L265.837446,449.803881L271.519604,450.839168L273.734695,451.794283L273.998743,453.216065L273.212126,454.944151L273.016831,456.832743L273.461371,458.750602L275.749824,462.725191L275.985968,464.242211L275.645801,464.964276L275.238334,464.832991L275.336038,465.803056L275.178641,466.532446L275.576776,467.043027L280.539269,467.633852L281.219668,467.407733L281.513102,464.417256L276.301180,458.969376L275.707372,456.169173L277.288438,454.572278L279.146927,455.119152L282.482189,457.503618L284.809268,457.722384L286.419899,457.270269L287.971381,456.613983L290.049394,456.169173L292.758827,457.000461L294.760891,459.355879L296.710492,462.287600L299.307159,464.832991L297.597046,467.393144L287.257511,473.411297L289.782246,474.352406L295.007152,473.367525L297.883056,473.411297L300.275326,474.410770L303.759066,477.241540L305.958906,478.423523L305.777591,474.512908L306.758122,473.148667L310.834365,473.411297L322.182030,478.532968L324.038773,478.671598L327.522869,478.423523L329.172375,478.700784L330.449044,479.364758L331.598849,480.174678L333.002609,480.860569L336.104824,481.531880L345.517861,482.086449L351.181329,484.334001L354.200890,484.618603L356.616087,482.757782L358.240053,481.006505L360.562835,479.634730L363.111570,478.729969L365.428007,478.423523L371.711319,478.423523L377.240673,478.729969L378.929716,478.423523L381.058023,477.066434L382.199520,475.300834L382.990639,473.258096L384.158851,471.069573L387.361781,467.677617L387.751149,466.736678L387.668234,463.148200L387.983988,461.813550L389.854663,458.145336L390.574046,455.119152L390.675460,451.575552L390.139475,447.718814L388.834540,445.057974L384.790016,440.684413L383.837684,438.490540L384.635585,435.298365L386.921969,434.802801L389.558293,436.027147L391.343540,437.922050L392.379287,437.922050L391.340120,434.999568L387.250731,427.268150L386.240036,425.694378L371.409493,411.067418L369.221292,409.698267L359.720062,408.096134L356.922992,407.593662L356.017083,409.428812L356.204576,409.996854L356.917197,410.921761L354.913461,411.853976L352.658054,411.788429L351.282945,410.652297L351.874208,408.372861L353.459392,407.309659L355.819639,406.930992L365.514845,407.586380L371.859864,405.540154L375.791983,403.617827L377.016063,402.613016L377.209094,401.171380L376.147591,398.703259L373.017791,396.541063L372.649137,396.147951L371.890167,395.536452L371.482901,394.116940L371.233645,392.522787L370.880092,391.379991L363.730095,383.403281L359.407390,380.055928L356.758995,380.165076L356.820726,381.365724L358.052443,385.804838L358.207509,388.817932L355.936042,387.194905L355.197055,386.372503L356.330844,389.422037L357.903062,392.566461L358.555235,395.383578L356.922618,397.370981L356.092473,396.548343L354.144014,395.165189L352.364865,394.575545L352.065895,396.147951L352.706828,397.028820L353.889024,397.851469L355.272373,398.463008L356.538884,398.703259L357.225246,399.256569L357.992706,400.479706L358.351189,401.702885L357.776925,402.263523L352.578206,403.479482L343.815454,406.894582L342.225859,406.588739L339.750553,410.564904L334.806015,410.732408L332.304344,407.746588L337.153631,402.263523L338.620251,401.782976L340.013292,401.717447L341.132628,401.309716L341.756268,399.817168L341.386633,398.746941L339.247105,397.545703L338.681439,396.759461L339.171771,394.655620L340.720030,393.723855L342.900785,393.723855L345.230381,394.393558L340.855465,392.238904L338.494678,391.605635L335.923747,391.379991L334.570621,390.863197L333.263147,389.691340L331.385327,387.493303L329.070251,385.535565L319.109777,380.681713Z M632.326863,390.710344L633.739427,389.400202L635.971594,387.980936L638.454247,386.845564L640.537912,386.372503L645.097593,382.260779L644.931242,381.496706L635.590121,366.727891L635.298662,365.956882L635.042930,365.476829L634.374902,364.407642L632.660800,366.153269L630.673178,370.605013L629.361219,372.831096L627.990992,374.089696L626.296166,375.268311L624.617596,376.781651L623.296662,379.051784L623.675431,383.068531L626.080780,387.973657L629.358680,391.343597L632.326863,390.710344Z M355.183899,332.470871L354.356196,330.697875L354.087023,328.815984L354.507460,326.919665L355.616307,325.154221L352.017292,324.369609L348.739327,322.357305L346.291031,319.262803L344.732744,311.774688L342.917524,311.382533L340.923647,312.951179L339.661968,315.282494L339.533004,319.727686L341.465905,321.623607L344.345769,322.495329L346.986475,323.824749L349.054411,326.817950L349.382072,329.855007L348.469671,332.652535L346.725172,334.897989L344.426151,336.351435L342.462971,337.107251L341.117999,338.604398L340.578524,342.223982L342.250180,348.780900L346.283227,352.954131L351.237664,353.928442L355.533991,350.874723L356.673138,347.748576L356.104125,341.787867L356.566724,338.560791L360.044931,335.057865L361.840920,332.441804L361.337113,331.250110L360.427325,332.311007L359.373442,334.214890L357.759049,334.927057L355.183899,332.470871Z M558.385096,567.415476L561.174069,567.203374L561.018318,560.760466L558.648658,550.568222L558.274895,544.866484L560.128121,542.366771L561.554696,541.592041L565.065496,538.215577L566.413239,537.462858L567.040576,535.979388L571.931025,528.212246L573.840897,526.480754L585.668761,518.963952L585.580184,517.846424L581.040903,514.187302L576.750762,509.761782L574.471974,508.235610L571.928917,508.279423L569.260496,508.907410L566.675729,509.148385L564.298504,508.250215L559.485181,504.964411L558.127637,504.248875L557.798260,503.540653L555.543155,500.247965L554.323565,499.247804L550.844650,500.452380L549.632317,500.569190L550.449111,502.262968L550.865593,502.920058L549.165253,503.956823L547.026937,503.766990L545.085050,502.576909L543.901861,500.569190L544.010667,497.999467L545.186033,496.232884L546.031467,494.189009L545.149651,490.773067L546.183473,490.568705L546.679923,490.203774L547.069789,489.785605L547.806935,489.435277L547.371147,489.260114L546.995210,489.267413L546.751114,489.063058L546.775895,488.209156L551.549812,488.858703L559.564216,494.167111L564.578677,495.678107L567.759103,495.196334L572.261400,492.524793L574.379252,491.889783L577.654523,491.751104L580.470871,491.006626L582.196013,489.165235L582.073256,485.757034L576.123855,477.197763L575.074267,476.760002L576.390053,475.811536L579.192719,474.636932L580.347243,473.958451L581.343110,473.579090L582.173047,472.834971L582.818828,471.069573L581.313043,466.911734L575.873504,465.584242L564.064235,464.832991L559.858546,462.513688L559.037033,461.777085L559.198656,459.924702L559.901162,459.297539L560.970739,458.991253L562.154847,458.116167L564.785048,456.657735L567.674807,457.328606L569.474353,459.764264L568.742746,463.614974L570.119168,464.446430L571.372909,464.592301L572.505979,463.935885L573.442910,462.389704L572.368876,459.341294L573.764977,455.695201L576.359569,452.661928L579.813300,450.984986L581.881501,449.220634L610.806340,444.183220L617.792814,440.378283L618.532281,439.817052L620.448533,437.922050L618.072667,433.097530L617.222782,430.503340L616.731739,427.428445L615.137869,424.776376L611.749127,422.007941L605.392464,418.256321L602.986460,417.476908L594.354046,417.032577L591.918430,416.442572L584.774187,412.028769L580.275341,402.613016L586.424917,392.122440L586.445861,392.100603L594.777110,385.353624L597.300825,383.308677L607.031840,379.051784L609.840731,379.117271L611.733515,379.910398L613.461027,380.900013L615.803269,381.496706L618.827034,380.725373L619.989824,378.593380L620.716224,376.403310L625.761124,373.747760L630.706926,365.847778L633.401459,363.076660L631.927615,361.185735L631.351966,360.269400L631.098729,359.411267L631.157678,358.218643L631.693202,355.135462L631.533908,351.340034L631.628703,348.955381L632.071705,347.210616L630.144841,345.044322L627.946411,341.526201L626.099589,337.601448L625.184086,334.243958L624.141163,331.933149L621.940889,329.186541L617.765582,325.154221L617.654520,323.824749L619.269952,321.754364L622.454742,314.650626L624.238253,311.636707L629.466899,306.023541L631.107083,303.213677L623.535343,298.843241L619.301688,297.572871L614.174319,294.400786L611.407741,293.355588L601.517005,293.355588L589.101542,288.384082L577.502513,288.057513L566.791802,292.520904L546.600831,305.544323L533.849701,311.447892L527.006862,315.892584L524.999893,320.272480L527.467720,321.848799L531.433172,321.325773L541.810706,318.187783L544.821928,318.057040L547.422010,319.008572L549.783255,321.492850L553.843171,331.017589L554.557808,333.568139L555.065829,339.890833L562.426236,359.411267L562.327501,363.403946L559.584457,369.084664L558.659107,372.831096L553.846556,371.390673L551.625671,370.146719L550.621636,368.510004L551.167145,368.095382L555.586717,369.171955L554.224966,366.895187L552.107159,365.375000L549.773588,364.844041L547.604303,365.520469L547.412071,368.379070L544.397371,370.845074L540.498303,372.183626L537.637378,371.732586L539.232041,369.230149L543.859262,365.782316L544.694431,363.731235L545.480303,360.778472L547.876088,360.531207L553.016911,361.854820L556.307895,358.058659L555.345550,351.143731L552.284100,343.772233L549.249539,338.560791L548.086102,337.187194L547.385505,336.642132L546.788031,335.828187L546.006997,333.568139L546.144558,332.172943L546.550290,330.167447L546.451911,328.372773L545.053629,327.595353L542.383617,326.629051L537.181428,322.865818L534.678939,322.713264L533.930507,326.113216L537.630886,331.351838L540.949173,337.179927L539.084893,342.223982L536.675336,343.270679L531.827542,344.295601L529.879720,345.887561L527.907220,349.900498L527.033299,352.474257L526.752715,354.524675L527.111507,355.193632L528.582777,357.462365L528.989790,358.742229L528.851549,358.858582L528.574489,359.084018L523.483821,368.342700L521.812806,370.037602L519.460703,371.732586L520.360248,368.728228L521.092191,367.644395L521.114011,366.764259L519.931284,364.407642L516.268210,360.785744L513.808884,359.062202L512.824681,359.963960L511.531363,360.393031L505.298730,360.742109L503.274576,360.523935L501.394505,359.091290L502.328213,357.971396L504.742462,357.229668L515.829913,355.760802L515.863568,354.451963L514.550056,351.572692L512.869553,348.635500L511.828844,347.210616L509.249441,346.977987L506.874605,347.915781L504.772639,349.158942L502.949970,349.769634L496.122965,350.307634L493.780472,349.769634L493.677688,348.439212L496.248736,348.417402L497.804749,347.435976L500.148208,344.775362L502.187469,344.186565L506.594216,345.044322L508.692276,344.775362L510.365845,341.250000L507.344218,336.358702L499.764290,327.595353L501.001272,326.033299L502.746416,325.328582L507.159328,325.154221L506.733019,326.941461L506.489757,327.595353L508.845105,328.467227L511.066523,328.205663L511.879465,327.021380L510.102791,325.154221L511.123975,323.018374L514.761948,319.618729L515.232489,317.831872L513.515121,316.284791L510.695375,316.691528L505.813146,318.943199L496.170215,321.122376L490.416190,321.362094L487.734563,319.618729L466.111937,317.178167L462.493475,317.810081L444.237945,311.636707L445.764900,314.781357L449.060385,316.764160L460.381449,319.800325L469.336220,320.272480L473.459110,321.492850L478.519843,327.399184L478.325969,334.461967L474.846531,339.316655L470.030836,338.560791L467.205033,341.024680L464.040378,342.020461L460.586726,341.598886L456.911310,339.890833L457.893068,341.337221L460.512007,343.903074L461.117960,345.320553L461.067863,346.454578L460.597103,348.919030L460.555377,350.314904L460.075949,352.968673L458.557947,354.633744L456.458368,355.506302L451.744319,356.291623L447.189764,358.756773L444.982212,359.411267L439.963116,359.469445L437.607096,359.047658L436.231121,358.080475L434.425064,359.411267L440.492836,363.076660L437.063510,364.545835L432.924722,363.643958L429.137171,361.200280L426.717817,358.080475L427.916698,357.273299L429.316251,356.880625L430.784827,356.807908L432.338692,356.967885L432.249094,355.760802L427.472583,356.327981L418.950173,358.844038L414.444725,359.411267L392.314643,356.967885L392.395090,358.080475L394.685427,359.018569L401.982527,359.411267L404.357255,360.254855L405.557314,361.316641L406.495163,362.669375L408.062364,364.407642L411.523745,365.985976L420.425524,368.728228L422.972286,371.732586L400.874826,370.394051L400.971928,371.732586L416.428412,374.715376L423.431669,377.669314L430.012193,383.330509L432.161176,386.758229L432.795482,390.120774L431.520525,392.697485L427.914555,393.702017L426.048490,393.811206L424.745621,394.320764L424.034731,395.623808L423.950111,398.033474L424.704332,399.023595L426.269218,398.674137L428.661419,397.370981L431.557501,397.669465L433.790666,398.528531L435.685561,400.035586L437.599867,402.263523L440.866504,408.635025L442.335216,412.662400L441.923635,414.475959L443.701257,415.451968L444.007535,417.593454L442.789949,419.735068L439.916044,420.703936L438.318847,420.944335L436.617304,421.621834L435.084387,422.583467L433.942178,423.756402L432.598201,424.506809L430.606405,424.645235L426.832512,424.368383L426.929424,425.694378L429.199754,429.672655L430.134467,430.474193L432.284880,430.474193L433.222330,429.293753L433.748794,427.785469L434.644636,426.816412L436.065681,426.648833L438.221605,426.728980L440.254894,427.151572L441.412542,428.040489L441.285157,429.862108L439.680480,430.474193L437.668081,430.649076L436.425870,431.086288L437.845118,432.747741L445.919985,437.929338L448.517814,439.044462L449.489803,440.028424L449.425528,444.394617L449.941757,445.371433L453.210616,445.232928L454.673506,444.846573L456.048578,444.044719L455.354653,446.508655L453.731998,447.660492L451.666090,447.594880L449.546496,446.494075L450.868771,451.444314L453.243690,453.988954L456.798333,454.922276L461.649235,455.053527L458.687803,453.828542L458.596891,452.603598L468.243960,452.603598L470.176215,452.093217L473.882823,450.489209L475.658139,450.168415L485.578260,453.347309L487.435591,452.603598L490.059930,453.719170L500.731737,455.651450L506.024585,457.386943L507.879051,457.503618L509.794985,456.191049L511.659213,454.207700L513.897206,452.647346L517.048790,452.603598L519.325769,454.069161L519.712021,456.125421L518.688960,458.225551L516.739924,459.844483L519.313846,462.200083L527.244991,461.762499L530.408035,463.614974L530.883981,465.051800L530.153527,465.773881L518.187126,467.407733L522.147696,471.923081L531.192610,476.701634L534.616118,480.860569L527.200905,479.649323L512.012012,474.593159L504.397142,473.411297L506.578210,475.402974L508.978774,476.978882L511.705563,478.044117L520.595036,478.423523L521.775378,478.795636L523.763813,480.481138L524.545707,480.860569L527.243661,481.240004L536.907751,484.531033L538.691202,486.348156L541.751143,491.824093L543.331933,493.225507L543.418639,494.342296L540.730257,496.466477L538.807650,497.284064L537.817787,496.291282L537.203993,496.028492L534.202724,498.546978L532.738653,499.247804L531.154405,498.685682L528.248659,496.225585L526.197929,495.678107L524.895143,496.101489L519.760311,499.247804L519.861343,500.569190L522.814023,501.562085L524.364977,503.328919L525.027220,505.862502L525.313192,509.148385L526.157713,512.719373L527.824236,514.494041L530.092043,515.764843L532.696548,517.846424L533.697669,519.278035L533.806029,520.242212L533.708152,521.199110L534.115782,522.638155L534.859329,524.135698L535.437015,524.961199L542.338718,529.987657L543.869377,532.048118L544.809254,532.968787L546.463973,533.670264L545.217467,536.629769L545.850655,538.464051L547.905722,539.457963L550.788298,539.911078L547.272473,544.442544L545.801976,547.329819L545.883066,551.058029L547.110802,553.331692L552.230038,560.058470L554.402756,562.105996L555.240348,564.650939L558.385096,567.415476Z M477.598344,189.667956L479.063395,188.134116L480.524289,186.122872L482.281914,184.314307L484.667865,183.489636L485.456548,182.657753L485.887373,182.419042L486.469706,182.390108L486.364325,181.059150L480.513097,182.701155L468.800172,183.590911L467.310316,184.524096L467.885605,187.135713L469.744392,189.045729L472.471802,190.123782L475.323095,190.340844L477.598344,189.667956Z M105.683580,140.824210L107.164459,138.613726L107.873704,137.183497L106.108555,136.750107L104.701649,139.068813L102.802936,141.055381L99.551421,139.610592L95.316000,146.394458L92.697841,148.952337L89.633871,148.208074L85.690089,149.826688L77.653725,150.780554L73.753660,151.835621L72.814110,151.893434L71.583234,151.770582L70.519771,151.821168L70.118630,152.442662L70.470489,155.362405L70.848536,156.822379L71.289149,156.677824L70.242533,158.542632L67.634755,161.173791L66.959175,162.865367L68.505490,163.566602L70.157163,163.956987L71.883415,164.087117L73.605981,163.964217L70.343572,167.123624L60.626706,168.099706L56.914235,170.138731L57.335802,170.818435L57.928251,172.503297L58.252733,174.217176L57.668812,174.998214L56.377729,175.215173L55.174194,175.779272L54.184216,176.538653L53.583856,177.428236L53.233627,179.532958L54.659655,179.699317L58.874837,178.534825L59.757921,178.643316L63.144010,179.843977L66.687918,182.390108L68.280057,183.851332L72.311332,189.696898L73.714066,190.217842L77.494298,188.712915L88.387259,186.556943L88.912916,183.489636L94.437788,180.183932L96.159964,178.534825L97.848722,176.148112L99.685361,172.120037L101.397435,170.138731L100.423856,169.459042L99.370043,168.938438L100.485391,168.989052L101.457190,168.895055L102.309079,168.490148L103.131641,167.600816L100.716640,166.863341L99.393484,165.041416L97.913302,159.120890L97.386750,158.210139L96.708257,157.386149L96.280135,156.244163L96.605207,154.372264L97.139001,153.729050L100.291496,151.835621L101.367873,152.370395L102.473920,153.208707L103.252325,154.567399L103.413906,156.677824L104.387213,156.063473L105.045900,155.261221L106.023086,153.049715L107.320635,147.254287L107.612004,146.878560L107.206239,145.375700L105.675569,142.904809L105.359676,142.139016L105.683580,140.824210Z M414.818551,75.313956L413.567639,74.463351L411.946984,74.038058L408.161121,74.102932L402.768924,76.215705L392.567756,76.167236L390.288925,78.083715L387.150450,78.771281L381.633894,79.010360L378.316003,81.200983L374.033210,84.286987L369.489224,84.989473L369.572131,86.099976L371.920204,87.873981L374.476483,89.518848L378.396887,90.932474L383.297107,91.577495L387.254076,96.363158L390.115599,97.927358L394.317103,97.217430L396.414518,95.302672L397.385595,92.911817L399.098964,90.756405L402.195637,88.200212L402.397747,85.327029L400.619436,82.689274L398.303885,81.369803L408.704213,79.593657L412.016444,80.404490L415.107064,80.846122L416.006051,79.333202L415.968293,77.462201L414.818551,75.313956Z M327.660778,0.000000L323.583164,0.301994L319.957057,1.294280L311.188626,6.040465L295.358089,18.060399L285.977130,23.025188L274.991425,26.508236L262.766664,27.969225L250.070227,27.321487L243.496406,28.249915L240.457446,31.589621L238.699957,32.482193L234.403292,38.831747L225.449001,46.198073L220.600858,51.621376L193.596075,89.950997L183.752651,98.087346L172.325126,103.685954L160.069221,106.947472L147.624601,108.001046L112.973606,104.465223L110.558539,105.258944L104.266531,110.425846L98.854433,112.432224L86.527716,114.438734L80.067980,114.157237L68.424666,111.299110L63.491394,111.234155L59.294182,114.157237L48.651240,126.884904L41.543655,132.329877L18.437096,160.870185L15.644857,166.342780L14.438209,173.674799L15.189855,181.876525L16.444952,185.616464L18.488898,185.370497L18.690982,182.961569L17.767073,179.120682L15.410040,172.568379L17.709768,172.698544L21.701483,174.535374L23.604434,174.998214L24.536633,175.981772L26.438874,182.390108L28.376152,184.835164L31.253196,187.584267L34.305413,189.841603L36.810405,190.774972L40.383098,191.295934L44.345257,192.721386L47.572496,194.856066L48.984773,197.504714L50.568645,199.610762L54.143539,202.867811L58.139059,205.401300L60.939148,205.357867L59.159689,204.561607L59.059807,203.808798L60.242560,203.244202L62.188189,203.027053L64.011853,202.455233L65.356884,201.203056L67.252439,198.590289L66.219321,196.889571L64.000495,194.530427L63.913213,193.032534L64.098223,189.646251L63.639901,188.343930L61.570254,187.757903L51.994374,190.774972L50.624249,190.420433L47.629264,188.799736L45.623743,188.343930L39.109159,189.667956L39.033563,188.343930L40.760637,187.866425L43.435018,186.260327L45.068078,185.913073L46.878451,186.303734L50.213347,187.974949L51.854050,188.343930L53.637102,188.061767L55.384489,187.164652L56.129008,185.652635L54.969219,183.489636L53.675695,183.091776L48.178231,183.489636L48.114895,182.390108L50.100038,180.748120L50.072074,177.927281L48.544186,171.903100L49.443426,169.574732L51.642676,168.360000L53.874378,167.709270L54.866383,166.993482L55.436243,165.974055L56.890049,165.475198L59.990304,165.279996L64.089162,160.465381L64.955590,159.728072L65.543523,158.838988L65.688943,157.299414L65.822374,156.894656L66.310942,151.835621L67.991285,149.870045L70.075045,148.280332L71.803071,146.184923L72.351431,142.745869L73.756340,141.459934L76.925443,140.412441L80.126935,139.913992L85.102345,140.939795L91.792452,138.382574L96.596218,135.081613L94.484343,133.543211L96.771448,132.416542L99.897193,132.178213L102.689404,133.095427L104.011630,135.471642L105.011679,135.132172L107.282429,133.008760L109.988952,131.051594L112.231216,131.224918L114.395512,129.397850L116.667644,128.054698L119.021557,127.679204L121.569106,128.805700L120.774367,129.917795L123.105016,129.888909L124.827979,129.282307L128.080715,127.491459L132.539740,126.177273L133.574864,124.978668L132.554458,122.639358L148.545222,131.788225L151.210751,132.618761L153.924132,132.430986L184.940171,124.415485L196.893327,124.285521L202.334102,122.639358L206.945611,119.484458L209.535233,118.986346L212.141205,120.762262L214.812310,122.162853L217.683713,121.180989L220.198797,119.231791L224.729270,114.590310L225.809500,114.157237L227.314251,114.539785L230.216104,116.199951L234.414005,117.297154L242.923995,122.639358L228.309687,123.852312L221.637001,122.639358L217.221983,124.682635L211.911783,126.090625L209.556908,128.625169L207.492419,131.831557L202.838642,137.465204L201.552733,138.382574L199.676101,138.505373L197.781083,137.833593L196.647319,136.793446L196.698868,135.695551L198.405480,134.864932L198.318853,133.543211L181.928768,128.805700L177.369757,128.704603L157.247134,133.543211L156.834272,134.106560L156.231032,136.620091L155.537615,137.183497L154.341898,137.255729L153.325407,137.501320L152.386245,137.905827L148.307837,141.012036L145.694322,143.880137L143.333958,147.398798L141.041219,151.835621L143.369810,153.526693L144.631568,154.133767L146.263232,154.372264L147.197485,155.304586L147.976689,157.342782L148.218322,159.402795L147.624581,160.320809L147.317796,161.159334L144.371761,164.694395L143.700682,165.279996L143.691969,167.477902L144.341134,169.596424L145.240180,171.396918L146.043819,172.568379L147.065129,173.804969L148.341412,174.983750L149.812788,175.866058L153.317746,176.733925L153.676014,177.963444L153.045443,180.451558L151.793841,183.438999L145.602025,186.195217L144.184049,188.343930L145.540652,190.623026L148.456816,190.492788L151.362966,189.125316L152.647959,187.736198L158.088534,185.913073L160.815347,185.645401L161.560581,186.050527L162.978547,187.135713L166.069579,191.730075L166.083118,191.766253L165.164281,196.802728L163.250435,202.491424L163.419305,209.100551L163.051910,209.165708L162.689153,210.020001L162.832667,211.048078L164.045374,211.533168L165.514958,211.627290L166.135406,211.468006L166.371349,210.924996L170.545301,209.100551L173.715567,210.273397L173.903516,212.525090L172.304545,213.944245L170.262806,212.640938L169.474666,213.531525L167.669519,216.507570L166.312651,216.420674L165.679134,215.660347L165.280617,214.697291L164.671064,213.958727L161.111945,212.510610L159.699462,211.533168L158.668781,210.179278L158.511036,209.100551L158.169290,208.318678L156.633624,207.884312L157.747692,205.546076L160.713631,202.238089L161.008949,200.493752L159.607498,198.250138L157.697354,198.112631L155.612400,198.416594L153.676270,197.504714L150.551974,197.200759L145.661902,197.808671L142.012515,197.200759L142.596934,193.206199L141.652041,193.206199L141.127534,195.630374L140.255127,197.164574L139.261081,198.554102L138.334656,200.493752L139.691952,199.697613L141.006265,199.480487L142.159299,200.110155L143.131331,201.811043L140.969236,202.151232L138.448989,201.796567L136.425436,202.194661L134.938488,208.014621L132.781662,209.918643L130.525327,210.208238L129.373112,208.492426L128.452326,202.838858L128.471768,200.587842L129.611099,198.069208L133.220268,195.290255L134.619561,193.719964L133.957073,192.099099L133.875334,190.774972L137.342859,190.102076L141.116249,185.486246L144.919463,184.806227L142.864602,181.059150L141.042425,179.055586L138.708462,177.312516L136.622212,174.846344L135.543927,170.688278L134.230561,168.533530L131.397958,167.058553L128.184384,166.321090L125.761880,166.386160L124.701003,167.036863L124.078973,167.882797L123.281691,168.620296L121.683356,168.938438L120.119589,168.721523L117.513916,167.817724L115.995216,167.600816L113.459746,168.027403L107.207661,172.568379L102.954497,174.896968L101.404362,176.401240L99.548837,179.185778L98.457755,182.353940L99.933948,183.344959L105.980333,183.489636L109.339363,184.372180L109.093176,184.762822L101.484075,185.001550L95.881184,186.260327L93.853236,187.135713L85.574023,197.895516L79.268710,198.199477L77.505033,199.393637L77.556143,201.217532L79.960981,202.115041L80.673023,203.692982L80.966562,205.234807L81.650691,206.146907L82.722712,206.574011L84.112778,206.668119L88.545687,209.100551L89.323054,210.628155L89.064699,211.207360L88.357353,211.620050L87.821121,212.640938L87.226466,216.290331L87.150396,218.050007L87.270386,220.649869L87.176958,222.308385L86.773458,223.677268L86.082535,224.568160L85.189217,224.894102L76.815942,226.197902L74.451584,226.226876L72.821505,225.517022L69.971530,223.010926L67.631406,221.707254L66.633422,220.041526L66.321745,218.361400L66.807280,217.608269L66.615468,216.246884L61.941192,207.884312L61.085673,207.884312L60.161183,209.802806L58.790308,211.793816L57.100441,213.336028L55.222163,213.958727L48.149385,210.005521L46.848973,209.708688L44.050869,207.630935L37.853678,206.733271L31.141097,206.863575L26.842405,207.884312L26.910886,209.100551L27.827555,210.584715L27.501189,211.786576L26.445578,212.235475L25.156341,211.533168L24.251783,209.860724L24.462200,206.993880L23.863748,205.357867L25.807879,204.503698L24.246542,203.758129L18.533346,203.027053L17.365043,202.259804L16.537711,200.544416L15.901768,198.829120L15.386756,198.069208L12.879264,197.895516L11.927272,197.569847L11.038362,196.961940L10.970709,195.746161L11.962436,194.161375L14.744945,188.394575L14.775769,187.135713L13.455738,186.253093L12.817884,184.697715L11.948340,184.227499L10.018869,186.528005L7.483656,191.295934L2.122932,206.668119L1.300976,209.730408L0.879638,212.713342L5.838554,274.373485L5.627108,278.566616L2.878591,289.712164L2.667951,293.740275L4.003791,306.684293L4.640741,308.833639L5.341201,310.692643L5.969438,311.636707L8.031179,312.101487L8.342099,310.954073L7.671412,307.984050L8.299090,303.932457L8.339508,300.316929L7.788112,292.695097L8.960702,291.192711L11.880954,291.475764L22.790492,294.995983L27.744414,297.485762L31.544916,301.580142L33.484643,307.984050L33.792534,313.517652L39.269897,318.398426L41.640455,321.122376L43.756546,324.144399L44.824266,327.239343L44.205702,330.145649L38.891336,334.352962L33.637669,337.448827L30.544455,338.255542L24.104714,342.078609L17.989286,344.622710L16.772131,344.121144L16.162723,341.671571L16.360042,339.680058L17.585763,337.230800L17.820951,335.522963L17.350511,333.546339L14.600912,328.815984L10.390706,315.122710L9.434062,314.178549L9.015653,313.975195L8.753142,313.517652L8.354867,313.060115L7.506545,312.856767L7.119751,313.234414L7.028960,314.062346L7.210908,314.912087L7.638394,315.282494L8.415667,317.091007L16.972549,352.168886L17.128541,359.411267L15.781324,366.764259L13.523882,373.682283L6.501583,388.941663L6.814309,391.598357L9.045572,393.177910L17.282618,394.277087L20.769072,395.733004L38.035521,405.867833L39.803489,405.365393L38.315115,402.270804L34.987026,399.598752L31.094045,397.800508L27.844299,397.370981L29.518650,395.580130L30.347102,395.150630L31.629661,394.924963L27.307418,391.692982L26.795496,390.011595L28.259115,387.493303L30.594373,385.972225L33.684327,385.382734L36.896865,385.579230L39.620128,386.372503L39.681987,387.493303L36.751788,387.893598L36.707935,389.160014L50.135437,402.940669L56.045260,406.829044L62.848654,408.372861L72.167683,408.554919L77.230962,409.450660L80.858865,411.482544L83.066425,414.912975L84.307684,418.737090L86.030640,426.816412L87.856590,431.304896L88.226048,433.593070L88.029641,435.138034L86.921379,437.659673L86.765183,439.715011L88.248488,447.376174L90.484845,455.053527L93.407247,461.157183L93.920428,464.563127L91.141887,465.401898L83.430805,464.067167L75.038728,463.170080L74.493181,461.164476L76.798271,458.794357L78.261383,457.868229L80.120578,457.503618L77.030533,455.228528L71.070265,453.959788L65.285532,454.601444L62.861108,458.116167L62.595534,462.768950L61.958887,467.108674L62.002933,471.397843L63.846221,475.855311L65.871208,477.825230L68.058107,478.190042L70.172679,477.256132L71.987706,475.249764L73.694522,473.761475L75.051607,473.564500L75.879171,472.667182L75.843377,465.730118L76.284064,464.242211L77.940483,464.110928L92.946135,466.065635L91.673315,470.741305L89.905927,475.154921L88.535810,479.955779L88.327795,485.757034L89.908563,490.313253L92.395382,494.736465L93.840319,499.291606L92.237162,504.248875L93.345091,505.468216L92.400622,508.556904L92.400412,508.557581L97.385290,509.691753L102.572551,509.858686L111.978223,507.206394L115.234290,506.835459L126.526959,508.263578L137.744439,511.602253L167.819515,516.796344L170.262247,518.336161L171.009220,520.145064L171.580358,522.649844L172.738857,524.783680L175.265342,525.525912L185.514040,525.553746L187.601134,525.266129L188.901720,524.217737L190.879699,523.809522L192.355864,522.789003L194.869453,522.362249L197.820267,524.338347L200.212977,524.542457L202.256503,524.022907L202.335113,523.974938L202.164317,523.967678L202.857364,520.183776L204.618181,517.977896L210.239748,514.296852L212.509410,512.215471L213.454032,511.609336L215.742271,511.857631L216.788542,511.602033L217.401808,510.995908L218.196124,509.630339L219.647709,507.636843L221.269400,503.986028L221.979074,502.920058L225.884706,502.029339L229.319159,503.453039L230.202229,505.512025L226.524505,506.585371L225.565453,507.315557L226.591590,508.929317L229.237549,511.602033L229.056440,512.719373L227.957332,513.405860L227.808041,514.121573L230.519124,515.275506L232.355605,515.596861L238.172571,515.275506L239.443791,516.049684L241.655597,519.409512L243.338469,520.183776L245.355523,519.380295L245.844179,517.539657L245.437809,515.458094L244.804930,513.946295L243.785799,512.646343L242.324750,511.580125L240.608241,510.806040L238.822199,510.375189L239.800368,508.147985L241.432554,508.315934L243.463743,509.192198L245.550786,509.148385L246.848122,508.359746L247.041639,507.812091L246.647468,507.001575L242.675964,493.386089L241.437117,490.773067L239.489171,489.741814L231.690940,488.209156L228.668532,486.413836L222.732478,481.809164L219.639205,480.860569L218.064013,481.203520L216.949554,481.984291L216.022517,482.845348L215.032453,483.429126L213.845737,483.604262L210.264688,483.429126L202.472257,485.793523L200.736079,485.757034L199.381577,483.217506L201.827061,481.816460L208.166007,480.860569L210.700848,479.809847L212.991909,478.146264L216.398483,474.636932L212.828619,470.785074L210.698929,469.172957L208.800052,468.516459L204.751882,468.487281L202.977552,468.180920L201.516266,467.407733L203.158435,466.320922L205.050912,465.963521L209.182933,466.065635L209.106046,464.832991L206.690047,464.832991L205.445951,463.520160L205.347465,461.937532L206.427383,461.164476L208.200816,460.916518L210.212574,460.289337L213.487372,458.728725L214.679731,457.576540L215.527903,456.387931L216.629839,455.432697L218.496919,455.053527L226.791853,456.169173L228.694084,455.986875L230.869770,455.447280L232.611157,454.528528L233.279424,453.216065L233.528403,450.328812L234.350501,448.754042L235.258907,447.463656L235.649156,445.371433L234.869598,442.433775L233.132669,441.260235L231.379389,440.720857L225.787320,434.219793L224.278103,433.031944L224.193492,431.698393L226.015243,430.284737L225.482681,428.528674L223.727590,426.867414L221.924071,425.694378L219.008170,424.375668L218.707679,423.042437L219.428316,421.490704L219.687590,419.480108L219.097225,418.059645L217.208669,415.349996L216.343813,413.361593L218.340313,412.575002L223.025022,411.875825L224.874037,410.921761L226.272032,408.780673L226.718223,406.333872L226.021219,404.316843L217.750486,401.127694L216.426845,401.397086L215.189798,401.957719L208.398070,403.268324L205.780948,403.392106L203.255616,402.263523L205.509219,400.698128L210.600684,399.460422L212.490771,397.370981L211.869194,396.883220L211.459180,396.147951L213.296176,396.096992L216.494212,397.087060L218.193523,397.370981L220.100177,396.985140L223.174106,395.310782L231.862599,393.702017L232.290519,392.937697L232.228337,391.263529L232.370536,389.589441L233.501885,388.817932L236.729350,388.504966L238.553654,387.566084L242.201097,383.927243L249.172799,379.764869L251.320675,377.720246L237.985046,377.720246L235.180533,377.174548L233.683100,375.777601L232.549227,373.856889L230.925842,371.732586L223.363074,366.327837L221.496423,365.520469L211.462840,365.418641L208.494926,364.407642L208.543924,363.571227L208.657204,363.033022L208.886658,362.538463L209.285543,361.854820L212.625817,363.018476L227.055987,363.076660L228.358100,363.571227L233.484481,366.727891L242.185071,369.171955L246.285704,368.902809L253.083900,366.175090L268.181703,362.923928L271.558010,364.407642L272.782805,363.382127L273.284193,363.076660L271.500514,360.131224L273.033822,358.124107L278.590543,355.760802L278.507842,354.524675L274.873053,354.590116L272.912626,354.262913L272.480952,352.888693L273.429164,349.769634L275.486572,346.127452L275.859254,344.244717L274.400722,343.445132L254.271134,340.261509L250.585450,337.448827L253.932654,336.845621L261.293978,337.165392L264.837904,336.118879L265.739787,335.203207L266.530653,333.982349L267.581214,332.921401L269.351863,332.470871L282.843536,332.020347L284.640588,332.470871L286.011117,333.648074L286.700695,334.970660L287.197778,336.293296L287.898837,337.448827L290.230086,339.927174L291.590985,340.784824L293.323906,341.111900L294.611522,340.719410L295.276911,339.839956L295.670843,338.967793L296.806384,337.674124L296.145557,335.784584L295.018007,334.025951L294.296043,333.568139L295.174797,332.499937L296.719114,331.395436L298.176746,330.683343L298.856682,330.690609L299.302694,329.426315L302.426983,326.265786L302.867527,324.761912L302.977329,323.388868L302.888482,320.272480L302.353189,315.761849L302.536374,313.481339L305.634445,307.853346L304.880220,306.589899L302.452010,306.807731L299.195780,307.984050L301.463452,304.433435L302.956760,301.311524L303.296892,297.870496L302.070728,293.355588L299.648718,289.690392L297.187227,287.251988L296.081478,284.639609L297.737820,280.460227L300.871837,277.086627L308.064017,272.647055L311.234028,269.513596L314.552033,263.660911L315.501114,262.703693L317.415981,262.486147L318.580692,261.710246L319.232849,260.223756L319.584936,257.838262L321.571298,258.969357L325.075284,257.765757L326.650703,258.505313L328.134727,259.868459L330.037609,260.927111L332.076183,261.507209L333.948169,261.485455L330.300572,267.381271L330.298815,269.600632L332.847782,272.443951L331.159723,274.932055L328.739627,274.242911L326.203851,272.385922L324.165789,271.341411L321.607148,272.052255L317.154769,274.757954L314.075982,274.982835L317.259924,277.725046L319.546261,280.220799L322.038464,281.613858L325.886608,281.069687L328.879584,279.611353L330.132520,279.437228L335.958477,280.677890L337.245640,281.628369L338.380247,283.616483L337.117834,283.979290L334.854122,285.205607L333.806555,286.054622L334.946182,287.796259L336.565738,291.214484L338.071655,292.695097L339.833343,293.152358L342.181938,292.956389L344.342426,292.179778L345.610301,290.931433L344.787021,287.926886L342.634587,283.384288L341.369046,279.234083L345.553642,275.490634L348.405040,271.602536L351.638649,268.657748L355.030553,269.513596L356.755800,270.427491L358.579046,270.659595L360.031273,271.384932L360.586114,273.764146L360.025312,276.020205L358.626241,276.985062L355.088229,277.420344L358.614928,281.555813L363.633690,284.109902L367.970506,283.456849L369.522062,278.029750L368.760368,272.487473L369.334726,270.122856L371.597077,267.685881L377.833331,264.487622L389.642837,251.458455L390.874400,247.500697L390.688834,243.297006L391.027248,238.557629L392.449233,234.456521L395.494227,232.196059L395.412139,231.087621L386.368412,224.894102L381.494928,219.288355L379.310391,217.608269L374.651472,215.812411L370.029409,215.435873L337.422786,219.136275L326.058772,218.187599L315.377246,213.958727L311.106798,211.511447L310.457675,210.924996L310.242822,209.788326L309.232180,205.973172L308.657714,204.843915L305.718935,203.540976L303.358687,204.713619L299.083411,209.100551L293.502647,212.228234L292.270440,214.595919L292.169463,219.483888L292.804655,226.226876L291.281025,227.168544L287.032898,227.327905L288.611931,225.879191L290.015075,223.517924L290.480658,220.961287L289.293639,218.940744L289.654654,217.318608L290.234436,211.533168L291.444338,211.120479L297.927187,205.589509L306.889612,200.493752L308.931552,195.442223L307.843170,189.559428L305.004208,185.645401L301.760125,186.528005L298.173697,188.148586L292.444134,188.394575L285.643631,187.468511L283.214081,187.135713L283.795223,185.457308L284.098756,184.806227L279.495546,183.764524L277.339213,184.126223L276.582486,186.528005L276.066591,187.692789L274.729456,188.691210L273.080406,189.407488L271.613697,189.667956L270.733824,189.465370L268.827028,188.553745L267.688075,188.343930L266.690869,188.727386L266.477760,189.559428L266.455826,190.391492L266.020856,190.774972L264.022452,191.158457L259.538707,193.206199L239.089054,197.758011L232.757909,196.961940L232.677028,195.746161L251.848928,193.770617L257.887935,190.427669L262.860500,189.125316L266.953397,186.643758L268.994988,185.913073L271.200612,185.609229L272.468420,185.240280L275.428978,183.489636L278.836110,182.353940L281.855168,182.766258L284.559678,184.155159L287.008993,185.913073L289.373500,184.176861L291.495736,183.489636L297.713313,183.489636L299.476781,183.786226L302.801728,184.864100L303.922080,184.806227L305.712545,183.243686L305.304160,182.071830L303.881930,181.030217L302.629545,179.843977L298.706972,172.308051L297.465032,168.533530L296.369272,161.390655L294.229507,152.327034L293.026917,149.422027L293.407193,148.121365L293.819619,143.280487L294.316816,140.932571L295.056269,139.480564L298.687020,136.078365L296.046644,135.059945L284.906263,134.864932L281.823988,134.092115L276.293364,130.683285L271.676319,129.108995L257.392443,119.000783L254.487365,118.148957L252.091764,119.008002L249.753719,120.220813L247.030732,122.863173L244.459708,122.639358L247.073704,122.177293L250.667804,117.686959L253.371471,116.582524L256.830186,117.340466L261.653556,120.661191L267.449527,122.300028L276.443277,128.805700L288.366844,134.308791L290.841763,133.774327L292.812809,133.413208L299.322432,133.478209L300.802368,133.153205L301.874896,132.459875L302.953875,131.224918L304.413517,128.401312L307.226800,119.867072L308.263155,112.230137L310.114918,107.409308L314.462030,100.237205L317.568889,97.351522L324.335828,93.701526L326.494215,91.047258L322.270393,72.891958L321.534077,63.659880L324.968567,55.871400L319.180707,47.242324L311.704597,39.911739L307.299895,31.935130L310.648245,21.319796L321.006352,9.233789L327.766672,4.465509L335.087423,2.502326L331.674664,0.647133L327.660778,0.000000Z "/></g></svg>