<?xml version="1.0" encoding="utf-8"?><!DOCTYPE svg  PUBLIC '-//W3C//DTD SVG 1.1//EN'  'http://www.w3.org/Graphics/SVG/1.1/DTD/svg11.dtd'><svg enable_background="new 0 0 1000 2170" height="2170px" pretty_print="False" style="stroke-linejoin: round; stroke:#000; fill: none;" version="1.1" viewBox="0 0 1000 2170" width="1000px" xmlns="http://www.w3.org/2000/svg" xmlns:xlink="http://www.w3.org/1999/xlink"><defs><style type="text/css"><![CDATA[path { fill-rule: evenodd; }]]></style></defs><metadata><views><view h="2170.24470225" padding="0" w="1000"><proj flip="auto" id="robinson" lon0="-61.3424551254"/><bbox h="7.25" w="3.34" x="-901.03" y="-262.16"/></view></views></metadata><g class="" fill="black" id="country"><path d="M125.627500,0.000000L57.991086,215.028454L17.221419,274.043832L50.675858,277.515325L102.194321,298.956895L132.023254,305.491467L105.674743,355.725995L27.942052,412.903492L4.018159,445.576343L0.230495,492.543557L16.003822,519.498650L38.211619,544.003275L53.451214,582.598058L48.214036,704.508515L53.209549,765.157412L79.747212,791.499854L102.767838,807.836256L125.019416,848.268833L140.752771,899.320059L145.496035,947.103998L158.382662,988.761778L250.775523,1099.644944L261.165549,1143.753151L264.719986,1235.645210L270.592375,1271.176794L321.524880,1418.816575L334.664831,1509.483272L333.139160,1633.843587L338.598409,1694.083775L388.735060,1765.555151L408.552385,1822.528026L404.800655,1843.969426L395.950516,1990.587679L372.162162,2112.905580L378.082622,2153.133652L426.225272,2168.244702L480.673612,2151.500024L502.229899,2118.623277L504.437610,2115.356025L521.465067,2078.599403L584.908222,2048.989897L612.287903,1983.644754L637.832908,1959.548728L665.929590,1953.831026L702.504154,1963.632801L747.620094,1957.098286L764.649889,1958.527713L786.529165,1952.401599L820.157259,1925.242516L923.507206,1749.014637L951.198835,1551.549331L952.784573,1511.525314L958.433248,1351.429139L999.769505,1168.257702L978.723266,1158.660090L961.788098,1141.915309L942.403296,1133.951328L983.415625,993.254282L990.091489,809.265687L961.985689,632.628318L956.372927,622.009653L896.989435,514.189313L876.218370,466.201074L838.926829,384.723157L816.969916,308.146140L811.739125,274.043832L601.418105,178.475674L546.088292,190.319593L477.861825,228.301812L424.317367,186.848098L362.369951,71.676168L312.300848,26.955140L264.312877,6.126169L212.034237,3.879902L125.627500,0.000000Z "/></g></svg>