<?xml version="1.0" encoding="utf-8"?><!DOCTYPE svg  PUBLIC '-//W3C//DTD SVG 1.1//EN'  'http://www.w3.org/Graphics/SVG/1.1/DTD/svg11.dtd'><svg enable_background="new 0 0 1000 747" height="747px" pretty_print="False" style="stroke-linejoin: round; stroke:#000; fill: none;" version="1.1" viewBox="0 0 1000 747" width="1000px" xmlns="http://www.w3.org/2000/svg" xmlns:xlink="http://www.w3.org/1999/xlink"><defs><style type="text/css"><![CDATA[path { fill-rule: evenodd; }]]></style></defs><metadata><views><view h="747.72119345" padding="0" w="1000"><proj flip="auto" id="robinson" lon0="-70.1218326057"/><bbox h="40.11" w="53.71" x="-1050.15" y="-334.33"/></view></views></metadata><g class="" fill="#000" id="country"><path d="M98.759143,745.721193L103.578744,743.945136L111.092679,736.346155L115.426005,734.899940L109.239971,727.605438L105.652506,724.484664L102.056373,722.112369L98.402822,728.341231L95.129384,736.181236L94.511554,742.892188L98.759143,745.721193Z M882.096757,549.369640L879.081185,548.151829L875.366295,544.955076L870.902168,542.417973L866.242760,541.415818L862.084416,542.722426L863.700557,550.409854L867.248442,558.782320L873.377515,565.505678L882.644252,568.283823L887.326810,567.598801L896.016918,564.668428L900.916452,564.021464L905.378100,565.023625L913.703380,569.412842L917.723621,570.415005L918.416286,567.966683L916.979919,562.346966L914.544920,556.219836L912.199228,552.223887L908.652549,550.790420L894.586388,551.247100L882.096757,549.369640Z M317.698183,0.000000L312.881964,0.684871L303.609128,5.440925L299.372200,6.582380L295.825858,8.903340L289.738628,19.163792L286.721781,21.472084L282.288569,22.068182L278.562599,23.057451L274.984011,23.273061L270.934988,21.472084L271.583229,23.577451L271.541885,24.389160L271.986265,24.769648L274.204472,25.555992L273.261784,27.610631L271.965772,29.360882L270.209339,30.882840L267.946107,32.303335L265.805145,24.084769L263.830571,21.193060L260.507496,22.537450L258.734583,25.784285L258.257751,28.955027L257.267843,31.352111L254.007988,32.303335L242.066653,31.846747L238.375035,29.893567L233.382481,25.555992L225.860243,28.612586L218.451365,26.938434L194.165604,12.340395L187.475820,9.600897L180.522531,8.522855L152.492239,10.843817L151.444016,11.490643L149.251372,14.420387L148.278841,15.079898L146.246843,14.724777L143.179601,13.126734L141.125620,12.771613L137.544841,13.735512L135.851700,16.208675L135.779416,19.696475L137.215112,23.602818L133.781387,26.710141L131.285410,27.927706L128.816847,28.574537L125.441926,29.982348L123.658221,31.542356L120.227863,35.550186L118.301858,36.374582L115.294579,36.285801L113.873730,36.602876L112.550796,37.554103L107.752065,42.627322L104.301575,47.548357L104.874176,50.871330L112.098222,51.277190L111.850933,53.610884L111.238088,56.692887L114.764142,68.729232L115.136958,74.880604L110.566690,72.179072L105.511720,70.936114L106.991128,79.511587L107.372028,85.028508L106.578979,89.979013L105.269150,98.156421L105.764955,105.235863L111.269275,124.750760L111.926854,149.122475L110.276232,163.040085L106.428569,170.200277L104.743586,171.980260L100.312861,181.484270L97.505302,183.691139L89.721393,188.233751L87.736848,190.198997L88.424569,196.416919L92.471739,203.826899L93.478555,205.097969L101.366076,215.054674L117.935543,224.357436L121.163752,226.169740L117.979215,244.759399L116.031038,250.115631L112.036162,255.632965L102.098419,262.817599L97.574583,266.836815L88.167359,279.232793L74.929372,293.441123L71.121026,295.841404L56.787328,299.933163L51.748606,303.380556L51.979588,308.785240L56.925714,307.955608L63.924762,305.442551L70.243590,305.676136L72.492446,307.867007L75.404393,316.694946L77.549892,319.876555L83.104603,326.078690L84.826336,328.897847L85.721750,334.665047L84.681112,347.302988L85.586950,359.554356L84.569737,365.410223L82.638312,371.169444L80.239969,376.437328L76.384615,382.244901L72.233107,385.652123L64.447515,390.572439L62.450417,391.834541L61.705220,392.305480L57.534912,396.832349L50.875487,407.231288L46.912748,411.379597L36.009924,415.302371L16.052939,411.186277L5.736211,413.514165L0.669594,417.356393L2.547726,422.455206L24.208105,449.947057L25.652686,452.903271L25.839297,457.583278L24.218497,459.290959L22.054247,460.563665L20.675761,463.987086L21.702977,469.754550L25.513426,472.203310L35.793714,475.111214L37.848776,477.326378L41.279703,483.987990L43.192683,486.767021L52.652776,494.234171L66.610131,500.243346L70.190561,503.038502L72.433975,505.479230L72.929691,506.381415L69.116586,512.390951L68.923212,512.695720L54.536112,535.372259L51.788414,541.228455L50.400011,547.366596L50.503541,550.314841L52.502280,559.248199L52.789219,562.736162L52.074603,567.923808L51.749170,576.978039L50.214517,582.375145L46.002522,591.803002L60.533226,598.082419L69.517918,607.101963L73.671540,613.153061L75.137872,618.595252L72.080903,630.393033L71.887865,634.135346L72.278975,635.936733L74.719182,640.833463L78.002233,649.726243L78.661061,654.445387L78.378141,661.156221L76.118514,665.139594L66.458890,674.996556L63.615795,677.216596L72.642948,679.715728L94.652982,676.518869L103.397176,680.400769L107.393544,685.792302L122.663125,719.600528L125.063001,722.112369L125.064467,723.419034L127.162773,725.854759L129.741241,727.250228L142.699546,709.997191L146.078325,704.301165L158.175668,674.996556L162.018087,669.757268L163.284245,667.499174L165.678895,661.283080L166.802414,660.001805L169.002609,659.545112L170.868806,658.238466L172.485080,656.234096L173.843788,653.608119L171.988006,653.608119L173.115235,652.618621L173.615704,651.819411L174.252490,649.561327L175.244827,650.563510L175.964247,651.096317L177.896513,651.870155L180.121626,646.681637L182.358000,642.913940L185.051555,639.869339L188.698886,636.786683L194.411663,633.704029L197.182692,631.750414L198.563269,629.238625L201.529920,622.185326L231.384916,581.058246L237.162768,568.524850L243.332646,559.746423L243.666439,556.029552L242.537711,553.124561L239.837894,536.164022L238.266240,532.738942L236.669969,530.747322L235.569164,528.552737L235.458134,524.556819L236.386993,521.081008L239.258448,516.526941L240.100663,513.901060L242.286576,509.144036L246.715681,507.279284L252.156701,507.393453L263.636839,510.196923L266.377948,511.566946L268.976616,513.901060L270.460706,516.666480L271.566520,519.787094L272.998155,522.311495L275.494727,523.377072L282.019470,522.501777L286.127775,519.990061L294.303166,510.602856L295.724777,509.867103L299.501729,508.547822L300.355613,507.317340L300.825071,505.960004L302.917936,502.103652L303.787459,500.936599L306.751483,498.171192L308.037322,497.359329L311.431802,497.841373L314.035023,497.207105L318.107130,494.289477L320.295975,493.388819L322.763188,493.655211L328.206667,495.583382L331.361405,495.710235L334.379264,494.796891L336.756620,493.236595L345.701185,484.521785L346.651708,481.908615L346.389312,475.388385L349.394253,469.946413L355.362598,468.233906L362.069185,468.804742L367.281817,470.174747L373.289757,472.838649L376.590958,475.642090L381.719269,483.811409L382.852070,487.540887L383.004950,493.312707L382.170673,499.896399L380.276228,506.162970L378.634783,508.306800L376.682031,509.385058L374.937349,510.805822L373.961016,513.901060L374.848745,516.793334L379.662580,520.484793L381.405982,523.541983L383.194899,524.734415L384.850821,526.586491L385.281918,529.960823L383.830843,531.863644L381.106913,533.690352L378.930060,535.783457L379.034562,538.460096L383.202766,540.362921L401.998340,540.413663L408.487637,538.904088L420.348213,531.977813L426.380662,529.960823L461.114127,529.808598L466.095295,530.988346L470.560409,534.223142L474.123381,532.168095L479.273911,531.229370L485.873722,531.026403L487.442763,531.889015L491.514162,528.400511L498.941073,520.091544L509.043457,510.755080L510.493693,507.317340L512.146440,505.046657L518.745833,501.444013L520.436459,498.906942L523.179691,489.545166L528.542520,481.680280L535.195549,475.794313L538.797751,473.891524L541.805075,472.305868L549.282372,469.730764L552.082795,468.335388L559.626293,463.134447L568.601239,458.618515L573.125505,457.197773L574.290569,457.134348L581.900168,456.741107L623.183619,461.764444L625.131585,462.474816L627.064821,464.758154L630.768157,473.257262L632.189992,474.373564L635.614476,475.109309L639.420600,475.121995L641.936386,474.246712L642.973427,471.392530L642.840798,467.878720L643.049112,464.377598L645.063820,461.459999L648.996518,461.967408L654.648017,465.468527L668.363404,476.707652L673.940818,476.555429L684.894890,472.305868L720.429004,469.337521L726.676102,463.591115L731.758733,467.168347L737.173585,466.762420L742.690457,464.783525L748.040365,463.591115L753.865234,465.265563L760.982024,472.572259L765.494161,474.246712L770.783539,475.210791L782.230700,479.612579L787.262742,480.614716L807.128368,479.612579L820.790269,473.739301L831.959877,475.502552L842.707350,480.741569L850.577020,487.185698L857.568243,497.270532L865.144684,511.947508L870.254602,527.043167L869.746682,538.460096L874.248723,540.274123L897.385350,538.282499L900.585271,537.064691L902.414872,533.842578L908.385898,515.702388L911.050896,510.057384L914.864882,505.186196L917.772631,499.097222L916.912950,493.160483L916.701614,488.149782L921.507146,484.864288L925.287492,486.145503L935.273387,493.883547L940.059887,495.710235L946.505579,495.710235L952.184964,494.974486L956.901273,492.475475L960.501998,487.185698L961.303848,484.090485L961.876089,473.257262L962.996816,470.288914L964.992501,468.183165L966.959133,466.483345L996.641420,424.064239L999.330406,411.835874L993.087933,399.353860L978.600491,389.053702L967.640471,376.140501L966.021420,374.897387L962.851971,373.273728L952.027988,364.343620L937.042143,350.720187L926.999042,335.346338L898.709940,303.381189L896.046077,302.239584L891.260130,301.808310L888.932273,300.286171L886.889478,298.561081L886.462101,298.205915L884.111342,297.241895L878.083891,296.988205L868.617167,294.755739L868.110819,294.857214L862.779599,292.726225L861.784349,291.660731L861.682616,290.481078L861.785259,289.352162L861.353941,288.489621L857.107162,285.775153L852.214416,283.783700L846.663331,282.527944L837.008279,281.957146L835.929943,282.045936L834.942071,283.314377L831.783725,286.536219L829.367921,287.424128L826.923752,287.500235L825.870085,288.109088L827.689416,290.620606L824.332123,293.081390L817.380431,296.417404L813.847184,299.309465L812.353558,295.973447L809.016502,294.299098L805.050866,292.954545L801.604188,290.620606L796.925999,280.511124L793.115951,276.325278L788.101578,277.834718L787.829276,280.853603L790.979575,283.060689L792.435508,285.343883L787.024023,288.489621L782.713009,288.819416L772.594036,285.749784L748.190231,278.304040L739.002069,277.048287L734.508316,275.703743L730.318260,271.911119L727.564804,262.334452L723.150500,258.478427L719.024777,257.641264L704.477336,258.478427L704.260547,260.609388L707.216296,261.027969L709.699705,262.080766L711.726861,263.501408L713.221775,265.061579L706.413596,265.886060L694.220256,260.482545L687.552817,262.740350L682.605723,260.660125L667.403526,263.158932L664.311623,260.507913L661.928094,258.478427L661.574155,253.734509L664.893873,241.075651L667.289478,226.247872L669.203564,222.074802L673.213138,220.907865L707.265749,225.575614L716.749209,231.042473L722.063582,232.754833L745.549517,230.814159L766.377108,235.076034L772.458020,233.477830L777.564832,229.748691L781.233283,224.662358L782.974623,219.017936L785.977102,213.652577L791.331728,208.781906L795.403055,203.416570L794.488721,196.579906L789.293039,199.345011L783.194306,201.019296L777.085528,201.057348L771.906495,198.888388L776.793562,190.060360L779.643439,182.627593L778.136922,179.025373L769.957082,181.663618L756.905798,189.071015L751.416133,194.068484L747.664161,200.829036L743.408044,197.176052L728.408353,190.174516L725.227475,192.191260L723.294694,192.774722L722.590486,191.252649L722.333499,189.451532L721.361733,188.500238L719.935049,188.119721L718.365817,188.056301L715.489272,188.386083L708.750382,190.174516L705.261183,189.489584L699.835193,186.407393L697.103817,185.747830L693.932347,186.483496L685.336159,192.318100L679.541913,194.778785L674.014026,196.034496L661.770766,196.579906L656.247942,197.569255L645.284652,201.970595L639.695491,202.959946L630.848968,198.850336L629.935951,197.759515L622.719919,189.147118L607.705348,159.720614L606.484326,154.773955L606.459983,148.584304L608.001513,134.353246L606.510915,128.823198L601.347407,126.337217L607.551696,109.201788L608.521538,101.287319L606.360588,94.045099L598.230744,83.391090L594.385646,80.740279L591.107018,80.283680L583.681799,81.057361L568.708991,80.803696L563.319355,83.403773L552.251254,94.907569L549.604553,97.177895L546.781118,98.281351L542.720264,98.357452L524.952429,94.450967L515.434210,90.544490L503.237168,89.111272L497.876071,87.284870L493.226568,84.545271L489.095414,81.057361L480.389273,69.667791L465.861345,50.643034L455.679723,47.015667L452.863739,47.941532L448.948920,50.008878L445.422503,52.469403L443.817189,54.562119L442.358047,55.462622L426.032318,55.323108L414.170693,53.344539L404.160425,49.349357L394.918253,43.908312L385.598891,34.472129L381.920257,32.379433L371.733349,32.303335L373.478104,29.411614L372.797756,26.443799L362.518305,10.957963L359.448876,8.522855L356.360526,8.370661L348.154604,10.412600L344.256511,10.843817L331.411138,8.522855L331.888028,10.273088L332.737884,15.079898L330.723322,15.079898L325.747462,12.771613L327.656158,7.799933L325.820450,3.893621L321.939064,1.230231L317.698183,0.000000Z "/></g></svg>