<?xml version="1.0" encoding="utf-8"?><!DOCTYPE svg  PUBLIC '-//W3C//DTD SVG 1.1//EN'  'http://www.w3.org/Graphics/SVG/1.1/DTD/svg11.dtd'><svg enable_background="new 0 0 1000 1024" height="1024px" pretty_print="False" style="stroke-linejoin: round; stroke:#000; fill: none;" version="1.1" viewBox="0 0 1000 1024" width="1000px" xmlns="http://www.w3.org/2000/svg" xmlns:xlink="http://www.w3.org/1999/xlink"><defs><style type="text/css"><![CDATA[path { fill-rule: evenodd; }]]></style></defs><metadata><views><view h="1024.34430857" padding="0" w="1000"><proj flip="auto" id="robinson" lon0="0.590962970313"/><bbox h="304.42" w="297.48" x="-124.44" y="-622.62"/></view></views></metadata><g class="" fill="black" id="country"><path d="M581.541559,1022.344309L582.795721,1022.271563L586.756292,1021.213843L586.761351,1021.213843L591.884870,1020.119754L600.241402,1018.327315L603.893997,1017.546337L608.597064,1016.540702L616.956859,1014.749731L625.315751,1012.958768L634.531811,1010.921938L643.746727,1008.883663L652.960527,1006.848306L662.178227,1004.810050L667.044097,1003.737823L677.738755,1001.373697L688.431917,999.013949L693.296053,997.938827L699.587676,996.548011L701.778711,995.641656L703.882589,994.018077L707.700729,990.209385L710.756536,987.154311L713.816838,984.102170L716.871477,981.047144L719.925561,977.995053L722.979037,974.940077L726.031959,971.888036L729.084287,968.834566L732.141072,965.779668L735.182144,962.728240L738.237770,959.673402L741.287794,956.621499L744.334681,953.566709L747.388584,950.514851L750.431803,947.463012L753.479479,944.411193L756.526534,941.356482L759.313332,938.563618L761.136331,936.771536L764.882810,933.207752L768.333855,929.929086L771.784196,926.653343L775.233736,923.371791L778.677556,920.096068L783.462697,915.540323L789.806643,911.196956L793.102981,908.939455L796.388715,906.679046L799.684075,904.421546L802.978909,902.161137L806.263169,899.900727L809.557050,897.643226L812.850433,895.385722L816.133206,893.125306L819.425591,890.867797L822.717476,888.610284L826.003819,886.352768L829.289657,884.095246L832.579988,881.834810L835.864849,879.580187L839.154159,877.319739L842.437920,875.059285L845.726201,872.798822L849.008969,870.541261L852.296213,868.280783L855.583016,866.026114L858.864181,863.765616L862.144862,861.508018L865.430008,859.247499L868.709674,856.992788L871.988725,854.732247L875.272316,852.474602L878.550339,850.216945L881.827781,847.956364L885.109713,845.695770L888.386114,843.438070L891.667000,841.180355L894.942262,838.919715L898.217019,836.661968L901.496252,834.404204L904.769901,832.146423L908.042946,829.885714L911.320504,827.627896L914.592471,825.370060L917.863873,823.112203L921.139637,820.848507L924.414925,818.590610L927.679586,816.332691L930.953674,814.071841L934.222255,811.816788L937.490204,809.558802L940.762543,807.297883L944.034318,805.038395L947.300554,802.783247L950.571118,800.522254L953.841109,798.262690L957.110526,796.004555L960.369268,793.744938L963.637395,791.482384L966.904992,789.224167L970.161934,786.965921L973.428249,784.704736L976.693999,782.446431L979.949114,780.189552L983.213589,777.929731L986.477435,775.669880L989.735658,773.411451L992.993247,771.152990L996.255186,768.893042L999.511406,766.630149L995.635390,758.592597L992.084730,751.237176L986.401457,739.436272L986.324334,739.276111L982.669666,731.689607L979.157012,724.411235L977.873734,722.683282L976.266600,721.764706L974.245764,721.059067L958.759590,715.650374L947.113975,711.584155L937.810635,708.327284L936.759888,708.111806L935.710861,708.239928L930.393694,710.346643L924.787383,712.574154L922.868148,712.779433L921.954548,712.402361L915.482268,706.955787L914.586483,705.914776L913.943764,703.952116L912.993916,698.716229L912.054051,697.190258L904.762492,692.699574L904.128692,691.193896L903.880809,683.375353L903.513425,675.408850L903.170005,667.989614L902.450536,664.415287L900.520744,660.808821L892.922705,649.924841L886.818059,641.184613L879.231354,630.311445L872.269354,620.329675L871.080681,617.197628L872.220805,614.534669L872.876391,613.628566L873.715000,611.388080L875.328356,609.750697L875.735949,608.932007L875.896280,607.970559L875.933624,606.845960L892.794494,598.295068L893.677797,597.158856L895.537578,589.919301L895.402414,588.724876L894.815803,587.157571L894.913188,585.194092L895.993989,579.190211L895.787151,578.380393L895.010372,577.698752L892.826678,576.437434L892.287786,575.927667L891.800794,574.823666L890.736897,568.930989L886.327318,553.896531L886.331622,552.961697L886.535320,552.047260L887.282052,549.825280L887.844902,546.505538L888.504520,545.311632L890.524605,542.929705L890.883078,541.847964L890.379287,540.673064L889.649864,539.412290L889.469264,538.238889L890.631944,537.337744L891.966614,536.573453L892.746213,535.449600L895.752415,524.216402L895.884266,523.723162L895.911990,521.507983L888.443476,502.207051L887.745913,498.933763L889.686197,479.172522L890.605556,469.756106L890.197064,459.083349L888.922388,450.490029L884.789911,437.003901L880.657958,423.523890L874.738273,412.627927L868.387826,403.285492L865.815840,400.250401L862.888219,396.794684L861.721683,394.956074L872.689176,388.684223L871.176615,382.509271L869.664007,376.335360L868.151445,370.165229L866.633942,363.995820L865.116366,357.824075L863.603805,351.655630L862.091197,345.484531L860.578633,339.313515L859.056373,333.145320L857.548859,326.973991L856.031683,320.805165L854.519445,314.632885L853.007325,308.459891L851.490587,302.291819L849.983652,296.116916L848.462164,289.940818L848.318725,289.350745L847.341365,285.329618L846.778197,284.268058L846.099912,283.476210L837.961256,277.672891L827.856411,270.462002L820.148264,264.949857L814.242681,261.229211L812.910833,259.805288L812.843950,259.733773L812.243578,257.880998L811.639674,252.075997L810.795621,244.173398L810.108919,242.375533L805.117444,234.866285L800.469677,227.859313L799.398538,227.211813L798.417867,227.434440L797.424938,227.366052L796.450604,227.066303L795.520709,226.590474L790.192592,222.799214L788.454995,222.212594L786.184951,222.000065L784.434413,221.473093L783.186423,220.135183L782.399864,217.501151L782.150751,210.028124L782.142924,209.793698L781.376640,207.579994L777.609811,201.268703L774.485390,196.030504L774.046084,194.590299L773.492620,191.653804L772.074817,189.020147L771.725113,188.052056L771.007138,184.941245L770.715401,182.742619L771.555915,177.066167L771.600181,172.894267L772.209722,171.362766L773.208520,170.302160L775.058384,168.337009L776.172983,166.806171L777.428256,165.468294L779.233451,164.550395L782.211392,164.070179L783.089070,163.595792L783.659252,162.884162L784.058761,161.963053L785.656376,155.254470L786.528281,153.262368L788.330107,151.928160L792.358813,150.139090L794.284031,148.733946L798.692710,146.691783L799.079098,146.338948L800.967675,144.613858L802.056518,143.941640L802.420041,143.560006L802.613390,143.169545L802.916734,142.180091L803.200280,141.716149L804.860594,140.653085L805.202405,140.015762L803.937183,138.109343L804.044146,137.224999L804.574193,136.375812L806.039565,134.780016L806.100910,134.691465L806.454925,134.180400L806.564696,133.407294L805.533990,127.666677L805.388493,125.548071L805.802950,123.343456L806.838703,120.301767L807.546122,116.104149L808.110124,114.085224L810.255634,111.641139L812.966338,107.293499L813.399418,106.172276L811.751639,104.918092L809.783430,104.310112L807.987313,103.445286L806.850943,101.411263L806.485396,99.069617L806.523736,96.981391L806.975854,94.987230L808.540223,90.932602L808.506942,89.241687L807.912594,84.465274L807.693358,82.703039L806.842828,80.830326L804.451297,77.083992L803.839211,75.080146L803.567805,72.649652L803.709421,68.089445L804.597867,64.504441L804.766372,63.824063L804.826029,60.665760L805.689720,56.445897L806.188267,55.494520L806.581589,54.409716L806.431239,53.375246L806.053357,52.311082L805.798763,51.172755L805.952358,48.804025L807.981868,42.648464L808.020676,42.349658L808.123581,41.557170L808.126760,39.187637L808.003096,38.087339L807.577225,37.031499L806.846724,36.595512L805.958091,36.352306L805.043851,35.889619L800.982479,35.364642L799.052796,34.587546L799.053522,34.551414L799.092492,32.609161L800.152310,31.280313L801.471307,30.431971L804.447896,29.304789L809.985283,25.905357L810.995694,24.757359L811.999403,22.746120L812.338542,20.728938L811.365330,19.557191L809.713955,18.708788L809.985013,17.795126L811.402218,17.089117L813.194716,16.872569L814.939552,16.991226L816.531347,16.661953L819.719509,15.374536L820.533464,14.784226L820.550557,14.087131L818.879826,11.663652L818.703137,11.074849L818.720393,10.382233L818.527575,8.863129L818.499388,8.871908L813.707858,10.889855L812.114844,11.041671L810.505116,10.889855L809.828475,10.544184L809.219741,10.063050L808.617464,9.796793L807.936732,10.072392L807.083564,9.642645L806.024253,9.535208L803.926552,9.642645L803.012424,9.194215L802.169610,8.337070L801.317289,7.797566L794.892874,11.027657L793.985309,11.854474L792.929970,12.417368L786.390993,14.026659L784.429316,13.748710L781.775748,12.959245L780.060344,11.719006L780.044877,11.707328L780.824903,10.072392L780.016828,9.325007L780.186184,8.196939L780.730051,6.928766L781.049452,5.758712L780.617928,6.162739L779.792606,7.106262L779.332266,7.293100L777.105072,7.503293L776.726397,7.082907L776.303675,6.711568L775.822089,6.400954L775.289206,6.151062L774.699945,6.052974L774.253117,6.181423L773.850010,6.386941L773.395401,6.508384L771.306717,6.102018L769.742669,4.938991L768.318703,3.488754L766.616529,2.234726L765.795620,2.519623L765.047509,2.982000L764.624236,2.715782L764.212648,2.603691L763.277791,2.589679L762.641766,2.430884L762.333115,2.061921L762.123046,1.415077L761.776734,0.908351L761.740415,0.679510L761.610441,0.628137L760.982563,0.630473L759.812164,1.291313L759.421988,1.415077L758.950017,1.305324L758.074052,0.791595L757.623467,0.630473L757.389607,0.656159L757.188691,0.784590L756.862802,1.197908L756.577115,1.412741L756.385411,1.314665L756.183226,1.104502L756.007268,1.029778L755.904037,0.987745L755.473782,0.880330L754.598464,0.385287L754.125601,0.238177L753.638363,0.266198L752.741712,0.553414L752.229242,0.630473L752.238435,0.987745L753.637022,2.117966L755.518546,4.063238L755.764707,4.509286L755.864666,5.153845L755.734908,5.695656L755.420262,6.405625L755.061648,7.026856L754.784670,7.293100L754.135030,7.638752L752.209459,9.301651L751.807265,9.857518L751.329891,10.287267L750.227459,10.254569L749.046606,9.964955L748.304085,9.642645L747.027691,10.366678L742.925350,11.637259L741.670026,11.702657L739.844721,11.529819L738.446382,11.011308L738.442324,10.072392L737.942697,9.455798L737.143512,8.815855L736.294707,8.311379L735.695578,8.110525L728.669019,7.720495L727.731914,7.465926L726.811971,6.975475L725.990894,6.662524L725.316115,6.935772L724.540428,5.975906L724.001083,3.797013L723.457666,3.374325L723.035610,3.285585L722.787393,3.026370L722.667775,2.603691L722.631345,2.017552L722.368174,1.926480L720.669621,0.630473L718.782547,0.000000L716.616416,0.056041L714.574891,0.600116L713.065164,1.415077L712.617001,1.837743L711.972162,2.599020L710.134638,4.000185L709.791067,4.371501L709.236246,5.450439L709.271461,6.349574L709.470502,7.297771L709.417905,8.502893L708.465123,9.913572L706.690927,10.997294L699.311909,13.795424L691.517872,15.554224L689.610575,15.621960L686.385456,14.953940L685.220319,15.014669L684.145203,15.407072L682.504995,16.892609L681.646647,17.341076L679.613313,17.943705L678.780889,18.371151L677.969274,19.088236L677.361606,19.971162L676.762220,22.054682L675.851206,22.746073L674.000868,23.465493L673.684191,23.745785L673.110700,24.465201L672.893644,24.607683L671.449768,24.607683L671.182174,24.684763L668.604064,25.427533L665.444188,25.883003L663.798129,25.819938L662.244552,25.427533L656.725511,22.647971L655.392714,21.648256L655.126329,20.739635L656.007837,17.943705L655.140939,17.971734L654.179862,17.817573L653.258094,17.530273L652.471219,17.158886L652.285674,16.948668L651.864043,16.240933L651.525576,15.948965L651.070034,15.888235L650.426253,15.890571L649.863895,15.785462L649.607111,15.397729L648.737005,14.587231L641.109072,11.394352L640.266068,11.244871L636.967577,11.637259L633.468217,11.338296L632.007936,11.403694L631.546361,11.422379L630.114325,12.064683L629.451063,11.786740L627.947345,11.744698L627.378382,11.441064L626.930069,11.104733L626.258717,10.787088L625.550873,10.553527L624.977837,10.464773L619.390889,11.244871L618.722433,11.104733L617.437869,10.530170L616.664605,10.464773L616.077297,10.679650L614.858738,11.464421L614.285866,11.637259L613.659405,11.518141L612.466819,11.006637L611.904796,10.889855L611.301109,11.027657L609.377923,12.064683L608.469879,11.585874L606.326825,11.307933L605.951321,11.258885L604.324101,11.307933L603.324609,11.574196L602.821968,11.637259L602.085785,11.515805L600.412919,10.464773L598.606518,10.142460L596.452138,10.390034L592.486286,11.637259L590.993085,12.669621L588.246798,15.495830L586.508474,16.378743L586.031628,16.406772L585.034193,16.299327L584.576934,16.378743L584.288377,16.621661L584.005364,17.004726L583.653832,17.362098L583.159587,17.516259L582.195276,17.640054L580.406528,18.177282L579.487596,18.301078L573.889074,17.978741L572.137491,17.516259L569.087577,16.121810L568.599501,16.163854L568.559832,17.663412L568.342239,18.511298L567.851383,19.317142L566.413700,20.153353L566.129699,20.165032L564.588433,20.221091L562.797622,19.632473L561.489865,18.513634L560.259314,17.158886L558.681011,16.198890L557.315612,16.012030L556.951496,15.960643L554.910748,16.378743L552.256637,18.317429L551.067886,19.508676L550.784083,20.293500L549.641677,21.986944L548.454524,23.017024L545.423272,24.607683L541.051619,28.057559L539.555120,28.562068L532.863897,28.954461L532.408461,28.893734L531.450836,28.622795L530.949928,28.562068L530.391293,28.398570L530.205945,27.996831L530.110556,27.473633L529.810570,26.959776L528.941760,26.408544L527.927645,26.151613L526.904804,26.212342L525.986948,26.600074L514.372127,30.066234L510.318873,30.556717L509.742339,30.521682L507.566778,30.061563L504.948052,30.220386L502.404684,30.914066L501.873829,30.907059L500.871087,30.619778L500.461223,30.556717L499.946454,30.696854L498.857703,31.222366L498.384471,31.341482L497.656729,31.383522L489.109168,31.869324L487.197222,32.429861L486.101625,32.483578L485.015920,32.243016L482.983651,31.500302L482.129762,31.341482L481.152317,31.509644L478.436056,32.873614L477.375780,33.212267L476.443347,33.312694L474.448458,33.265984L473.334387,33.466838L471.480199,34.471099L470.461417,34.830760L467.097412,34.844773L465.345475,35.993801L463.272412,36.493573L462.480759,36.827529L462.049979,37.329627L461.858208,37.848065L461.738424,38.343144L461.535010,38.789177L461.009333,39.307596L459.941726,40.038508L459.461504,40.568586L458.727108,41.129011L455.815212,41.920596L454.254723,43.004032L453.534602,43.354273L452.935111,43.403306L449.338080,43.699840L448.442908,43.914650L447.658504,44.465677L446.942860,45.254841L446.139659,45.962269L444.371832,46.482905L440.948004,48.805799L440.254287,49.457105L439.465370,49.975336L438.394944,50.180757L436.344705,50.276464L435.205898,50.512229L434.378675,50.965078L434.159005,51.450596L433.936528,52.809058L433.773804,53.315542L433.390609,53.665639L432.365841,54.323805L432.149734,54.704225L431.637327,55.068302L428.652601,56.095148L427.843891,56.669225L425.596265,59.049359L425.201265,59.338688L424.737837,59.588347L424.350397,59.866000L424.187161,60.220645L424.122836,60.864585L423.731959,62.192053L422.152011,65.814629L421.675287,67.258293L420.020013,70.613855L418.544577,72.059367L416.608608,73.476751L414.523980,74.560667L413.093625,74.879997L412.616190,74.987216L411.625365,74.791425L409.617470,73.938301L406.282309,73.234315L405.062007,72.618879L404.298413,71.784265L404.173551,71.173426L404.459566,70.390020L404.300473,69.793109L403.960369,69.587915L403.422511,69.420027L402.920952,69.107564L402.701165,68.461628L402.123671,68.104836L400.834294,68.489612L398.874845,69.438682L398.403268,69.494644L397.429991,69.406037L396.958446,69.438682L396.779864,69.357069L396.540641,69.154200L396.270913,69.009626L396.004639,69.079581L395.941494,69.326755L395.963682,69.706835L396.052455,70.063588L396.162470,70.222141L396.115833,70.837686L393.940081,75.402096L393.612228,75.791325L393.120950,76.084987L392.637949,76.012737L391.993513,75.816963L391.422706,75.910189L390.854521,77.532219L390.069399,78.194020L389.117219,78.650735L388.272060,78.860445L386.491060,78.972289L386.030915,78.860445L385.617207,78.427040L385.405346,77.923712L385.153348,77.504255L384.600201,77.331808L384.069638,77.261896L383.157288,76.972923L382.689508,76.907670L382.075545,76.735214L381.658093,76.350675L381.312981,75.952141L380.933162,75.733058L379.840509,76.040705L378.691658,78.000610L376.907848,79.051511L376.353483,79.289174L376.106869,79.056171L375.849623,78.573840L375.267624,78.524907L374.163118,78.860445L373.448168,79.321794L372.692562,79.978836L371.800141,80.561289L370.103393,80.961999L369.753927,81.316104L369.204641,82.201317L367.764828,83.552297L366.657960,84.360476L366.157925,84.723788L364.944560,86.440036L364.699835,86.714796L363.599320,86.775335L363.046229,87.036116L362.716414,87.627506L361.057617,91.910557L360.509262,92.799522L360.025005,93.828011L359.457322,96.540631L359.052393,97.682668L358.538785,98.387356L357.777163,99.154773L356.886551,99.773309L356.001323,100.024432L354.763316,101.575183L354.526002,101.796032L354.266177,101.937837L353.029556,102.307449L348.579156,102.788617L347.664682,103.102408L342.058314,107.856605L341.669550,108.867030L341.145204,109.215422L338.142055,110.232637L336.594540,112.046101L335.862943,112.570786L335.248072,112.700791L333.837043,112.656682L333.443621,112.747220L332.221358,113.638615L327.816868,114.905881L326.999989,115.564957L326.688268,115.685626L326.299584,115.616010L325.226087,115.260954L322.192145,115.685626L320.613547,115.288802L318.924826,114.564715L317.302312,114.204966L315.914343,114.905881L315.773088,114.659872L315.624922,114.576320L315.461056,114.553111L315.274660,114.481162L314.218874,114.871069L314.269622,117.114872L314.701825,118.626267L315.531928,119.757389L316.957736,120.301767L318.696060,121.562183L320.145423,122.943077L321.718735,123.967530L323.826318,124.164749L324.417147,124.623925L324.596890,125.297916L324.652323,126.074840L324.877404,126.863447L325.517229,127.637257L327.995014,129.184623L329.576309,130.687542L334.490568,133.815904L335.339297,134.688901L335.167048,135.103317L334.555366,135.570610L333.394887,138.135784L330.908500,141.951060L330.519059,142.914120L336.143437,148.733946L337.852448,149.251737L338.380120,149.556822L333.331658,155.641399L335.119436,157.782370L336.293211,160.299236L339.589810,170.743946L339.710972,171.532911L339.822348,172.258002L339.699434,173.391546L337.454549,182.505926L337.281571,185.158888L337.692226,187.938157L338.179895,189.586647L338.142390,190.208591L337.779814,191.042169L337.299128,191.646506L336.748463,192.126737L336.289811,192.697439L336.070594,193.565834L336.350597,194.457504L337.071297,194.959490L338.702702,195.546081L339.522837,196.157443L340.030892,196.824208L342.129003,201.919102L342.336322,203.779665L341.731157,205.316282L341.018681,206.371670L340.117082,209.516827L339.463336,210.936085L338.965504,212.366820L338.928572,217.913257L339.350610,219.765376L341.729986,222.096140L342.571128,223.706018L343.201731,225.475772L344.171295,226.862587L345.388865,227.997539L346.761065,229.002907L347.553387,229.778341L347.853137,230.945044L347.832331,232.258553L347.677586,233.489034L347.564961,234.067875L347.367079,234.595791L347.086416,235.064063L346.730413,235.447976L344.717878,236.902097L351.073079,247.660970L352.619707,248.988947L355.619853,250.106164L368.812052,260.330511L369.542026,261.600873L366.786303,264.688579L365.210939,265.896233L363.450999,266.626304L361.486914,266.912229L360.714368,267.318613L359.944395,268.330182L359.468164,269.324285L358.826332,271.350074L358.052723,276.482604L357.951768,277.152104L357.964628,277.626471L357.894258,278.087772L357.590641,278.686871L357.295525,278.985688L356.511623,279.610873L356.326496,279.963348L356.531115,280.877147L357.297882,280.891652L359.062055,280.183823L359.968527,280.172219L360.957141,280.473919L361.723896,281.164334L361.957332,282.333353L361.014082,284.328969L359.152492,284.778541L355.577861,284.607414L355.176061,284.587111L354.039257,284.532002L352.238505,284.447889L349.857126,284.337670L346.978461,284.201347L343.685822,284.044719L340.055183,283.870687L336.169833,283.687952L332.110649,283.496515L327.958469,283.302175L323.791708,283.104932L319.696090,282.910589L315.749999,282.722046L312.039121,282.548005L308.636963,282.385566L305.629179,282.246331L299.111703,281.941752L290.585579,284.328969L281.777017,285.080185L279.034559,286.631855L282.229636,295.397394L284.173128,300.886533L275.868826,302.062663L265.553769,305.198829L251.646090,307.720815L249.878744,307.877326L247.859080,307.410689L244.605278,309.118690L243.784884,323.619489L240.265569,323.847623L237.627907,325.783145L237.016354,326.539378L236.813310,327.565063L237.066196,331.798083L236.953734,333.078682L235.926860,334.802550L235.597564,335.900602L235.753942,336.874068L236.312595,337.378183L237.104904,337.430333L237.957257,337.050798L239.363248,335.718076L240.074119,335.338539L240.901434,335.555831L241.574508,336.288830L242.854976,338.400897L243.692036,339.226599L245.399382,340.078374L245.952218,340.591177L246.398822,341.628370L246.600011,342.622106L246.652677,343.711448L249.183213,347.913200L246.477178,352.223333L244.123162,354.574363L244.419517,358.100999L244.716135,361.627768L235.674912,366.330387L227.659138,368.289914L220.326087,368.681828L214.644293,370.249509L209.946700,372.993066L204.527582,380.048682L197.790739,385.537254L190.747244,388.673971L185.707990,391.418852L181.662805,394.556167L176.260020,399.262801L171.204939,402.792880L166.459640,407.893410L163.025544,414.564862L158.581631,421.630584L153.472285,428.305439L148.769545,429.876223L144.781754,428.305439L143.187845,423.200994L137.160825,423.986232L131.461274,425.164131L125.445791,425.164131L118.427728,425.164131L111.730598,425.949425L104.678372,427.912756L97.979680,428.698126L93.898834,432.625303L85.604951,429.090820L80.263984,428.698126L76.579779,429.090820L71.186732,431.447093L66.750348,436.160216L61.317493,435.839969L60.316215,436.216081L59.257989,436.340969L58.188155,436.300308L56.081481,435.925646L53.845856,435.823995L52.196716,436.567512L49.214117,439.623096L48.468851,440.222921L46.146627,441.450204L43.163527,444.276774L38.022828,447.808170L33.562651,452.102739L31.942704,453.256385L26.496198,455.719278L23.183374,458.012332L19.941331,461.145553L19.141238,461.633873L17.438654,462.412874L16.705330,463.017485L14.997444,466.023251L14.379652,466.661356L12.176088,467.912888L9.982004,469.695052L3.770921,473.134615L2.854272,473.937129L2.296186,474.998451L2.090040,476.513432L2.034672,479.084095L1.962262,482.457623L1.890226,485.827076L1.818407,489.199720L1.746837,492.574093L1.675577,495.947279L1.604566,499.322181L1.533866,502.695882L1.463506,506.066920L1.393335,509.442564L1.323473,512.816985L1.253862,516.193089L1.184530,519.569412L1.115508,522.944492L1.046825,526.316867L0.978362,529.692351L0.910091,533.072395L0.803662,538.369913L0.698009,543.663493L0.592986,548.960386L0.488594,554.260566L9.892465,560.822204L19.303301,567.378500L28.713344,573.941055L38.132686,580.498166L47.563546,587.061435L56.996085,593.619159L66.435021,600.182941L75.882915,606.743989L85.337116,613.308080L94.795142,619.869336L104.261865,626.430621L113.734720,632.991883L121.760429,638.550837L129.792938,644.109708L137.829675,649.671379L144.693602,654.411486L145.870728,655.224165L151.678482,659.238611L160.011589,665.274649L168.346855,671.307501L176.685417,677.342955L185.029784,683.375353L185.033483,683.381178L185.042157,683.389916L185.048384,683.392829L188.717366,686.081116L192.384704,688.770784L196.056698,691.456008L199.729526,694.144070L205.074668,698.240094L208.911583,701.175498L212.750690,704.113731L216.585771,707.048968L220.425557,709.984122L224.263783,712.919196L228.107955,715.854190L231.951787,718.792018L235.792789,721.729768L239.637236,724.664530L243.477566,727.602129L247.325087,730.536743L251.173510,733.471284L255.022839,736.404299L258.870534,739.340155L262.716600,742.277397L266.573590,745.211661L270.757295,748.404927L274.945789,751.598116L279.134070,754.786863L283.324612,757.976992L287.516160,761.167048L291.706193,764.358490L295.897214,767.551318L300.094254,770.741167L304.289772,773.929496L308.486260,777.119215L312.678693,780.310327L316.879615,783.502833L321.076471,786.696734L325.276815,789.883301L329.475585,793.072723L333.680320,796.262089L337.880973,799.449947L342.085057,802.642118L346.285041,805.835693L350.493498,809.023400L354.700362,812.209606L358.905613,815.401585L363.111778,818.590610L367.323868,821.782503L371.531830,824.974354L375.743206,828.163257L379.952961,831.349212L384.166113,834.538041L388.382662,837.726835L392.595058,840.918506L396.810844,844.110145L401.026247,847.298844L405.242517,850.487515L409.460909,853.676160L413.681421,856.864779L417.900274,860.056283L418.589053,860.577116L422.121241,863.247766L426.345578,866.436319L430.561951,869.621943L434.785465,872.810459L439.008563,875.998960L443.233764,879.190355L447.457285,882.381737L451.681644,885.573109L455.911868,888.758652L460.137888,891.947096L464.364739,895.135534L468.597461,898.326876L474.319763,902.641147L474.946736,903.778624L475.860411,907.391788L475.968469,908.631085L475.364228,914.783942L474.288875,919.857516L474.255466,920.962999L474.388980,922.359400L474.748282,923.072147L475.429661,923.371791L476.539505,923.534705L477.573382,923.517250L479.514256,923.060510L480.543061,923.037237L481.683512,923.371791L482.360516,923.976899L483.388243,925.934775L484.141900,926.993717L484.975466,927.636646L487.085390,928.349397L489.053392,928.704318L489.946867,928.998146L490.810798,929.611985L492.612364,929.929086L494.536845,931.025853L497.665753,933.629587L498.658510,935.238380L498.961107,937.245739L498.931082,941.464124L499.417541,942.284530L505.239727,947.532835L506.270758,948.062323L507.330871,948.135055L508.208734,948.004138L508.996267,948.065232L509.760162,948.700910L510.237827,949.854442L510.412415,950.919242L510.782844,951.614565L511.858130,951.653840L512.387338,951.370184L513.212738,950.526488L513.898592,950.312655L514.479309,950.397024L514.894033,950.677771L515.273683,951.044342L515.764301,951.380366L518.841957,952.557179L519.569165,952.657550L520.849426,952.042232L522.831754,949.985360L523.959834,949.185306L524.988854,948.984565L525.888130,949.243491L526.737912,949.796256L529.744901,952.394258L531.554296,954.520965L533.112426,956.915342L535.105452,960.869150L535.678181,961.480117L536.426535,961.776873L537.609133,962.069265L538.559913,962.480942L540.326048,963.532684L541.276243,963.766890L541.806617,963.810531L546.269112,964.755556L548.951023,964.876296L562.361529,967.948643L568.561605,970.919186L571.401386,973.377685L572.211470,973.787921L573.982080,974.362544L574.746737,974.768417L575.432075,975.487061L575.632745,976.258078L574.782120,987.612570L574.847964,989.787492L575.484368,991.848951L575.743718,992.186467L576.007353,992.361044L576.261097,992.580721L576.470640,993.069538L576.442039,993.431786L576.179477,994.549086L576.171911,995.084459L576.606454,996.117383L577.232171,996.955363L577.762197,997.860266L577.894527,999.102694L577.420456,1000.390225L576.529327,1001.156926L575.495903,1001.775234L574.589906,1002.623409L574.149836,1003.653442L573.917357,1005.837179L573.704429,1006.798841L572.648217,1008.006378L571.993033,1008.471935L571.747615,1008.982594L571.378470,1010.081021L570.661020,1011.320574L570.220567,1012.321530L570.295985,1013.337038L571.121094,1014.615882L572.000359,1015.560105L572.975176,1016.376299L574.015019,1017.026636L576.280861,1018.093076L579.178825,1021.208024L580.330901,1021.999495L580.822661,1022.223551L581.541559,1022.344309Z "/></g></svg>