<?xml version="1.0" encoding="utf-8"?><!DOCTYPE svg  PUBLIC '-//W3C//DTD SVG 1.1//EN'  'http://www.w3.org/Graphics/SVG/1.1/DTD/svg11.dtd'><svg enable_background="new 0 0 1000 1023" height="1023px" pretty_print="False" style="stroke-linejoin: round; stroke:#000; fill: none;" version="1.1" viewBox="0 0 1000 1023" width="1000px" xmlns="http://www.w3.org/2000/svg" xmlns:xlink="http://www.w3.org/1999/xlink"><defs><style type="text/css"><![CDATA[path { fill-rule: evenodd; }]]></style></defs><metadata><views><view h="1023.63437759" padding="0" w="1000"><proj flip="auto" id="robinson" lon0="0.587854105709"/><bbox h="304.21" w="297.48" x="-124.46" y="-622.59"/></view></views></metadata><g class="" fill="#000" id="country"><path d="M582.730645,1021.634378L584.904878,1021.532648L586.757192,1021.098237L598.721006,1018.538517L609.799961,1016.165770L625.315467,1012.841747L635.970291,1010.491026L646.990901,1008.055087L663.113376,1004.491932L680.562771,1000.637381L699.585994,996.430956L703.881797,993.901624L718.132646,979.666184L724.560525,973.238693L737.323510,960.469813L747.172454,950.611982L759.676720,938.087944L772.918223,925.478941L783.462012,915.423742L800.084114,904.024427L825.123522,886.838829L850.133692,869.652971L875.109008,852.466609L900.053224,835.276747L924.970109,818.088641L949.853704,800.899295L974.697948,783.705716L999.511067,766.513159L994.705484,756.546527L989.331796,745.407479L982.121099,731.486446L977.712654,722.972399L976.265108,721.646407L956.769173,714.903412L936.186634,708.292067L924.287891,712.300742L922.195330,711.998102L918.750436,709.483405L915.298359,706.057929L913.405571,701.256569L908.483909,694.831473L903.779959,680.133122L903.115294,668.435784L902.146622,664.290518L891.206310,647.818438L881.259447,632.829007L874.641281,622.849570L873.303782,618.342987L873.944050,612.793062L876.427595,607.818551L885.646101,601.927411L893.924738,595.516132L894.979407,591.070473L895.257674,578.829721L892.412622,575.003856L890.246037,567.735071L887.966597,557.896505L887.588413,551.611416L891.048504,539.095080L895.110262,525.984228L891.993323,511.473933L889.255340,482.373154L889.984873,459.486216L888.729093,451.174151L887.902395,447.679161L884.787914,436.886426L881.001742,425.757440L879.347461,421.856743L874.628715,412.897131L866.933460,401.797169L862.904247,394.973910L868.098435,391.379128L872.690782,388.568267L869.446543,375.330726L866.672247,364.035571L864.387719,354.721617L860.361794,338.326465L856.950652,324.402881L853.545662,310.515293L850.454236,297.905588L847.342774,285.211629L846.102155,283.358969L837.648433,277.367011L829.865166,271.845123L821.752328,265.561998L812.970398,258.747248L811.368007,250.164702L806.624204,237.203855L801.786580,229.964433L799.994095,228.064608L790.507243,223.386712L785.012614,219.950747L783.483563,217.955848L782.307650,212.668435L778.198899,202.157867L773.573960,192.599601L771.806518,186.126703L771.392694,177.981082L772.108875,172.095177L773.959006,169.576589L782.904806,162.240586L786.898870,153.405054L792.036085,150.090973L796.490383,147.593408L800.069489,144.684579L803.199939,140.004286L805.544645,135.012829L805.822996,129.615016L806.626796,121.041803L808.113553,115.049000L811.772092,108.245222L810.007672,102.777270L807.806325,96.861949L808.107136,86.618329L807.477769,82.457040L805.729581,78.772345L803.920747,74.045995L803.745661,70.106976L805.066661,59.764795L806.075474,51.861953L807.736702,41.580234L806.965362,38.699593L805.446193,36.550178L801.002253,34.282949L800.908311,32.915275L801.943182,31.404630L808.265977,26.396013L811.521541,19.035515L814.384578,17.499505L818.703093,14.833940L818.447406,11.966633L817.372639,8.906045L796.513819,10.447533L786.520549,13.547426L780.952655,12.174041L772.211574,5.315944L763.969696,1.899867L753.315677,0.000000L755.088401,7.109562L750.706160,8.552910L740.697405,9.926226L724.226984,5.128179L719.961858,0.381086L712.637164,2.659282L709.115804,8.841584L700.631811,13.093365L684.922363,16.804380L671.055918,23.932257L665.068779,25.493481L660.390713,23.853775L650.935446,16.319476L645.409493,13.199873L639.805926,11.251924L594.257283,11.260332L582.304286,17.062249L556.821925,17.673287L550.966684,20.291235L539.255470,28.223477L527.582930,27.671317L510.442122,30.123776L477.037636,32.878840L463.746680,37.219955L455.330213,42.235911L442.475707,47.671308L433.024540,53.377231L425.535005,59.067617L420.694447,68.388897L416.199701,72.269663L409.613569,73.055754L402.063011,70.529468L398.542318,70.624597L375.547458,81.685533L367.568254,86.811123L362.043556,91.565552L355.903741,99.083456L348.960840,102.579229L340.028355,109.429775L328.765977,114.500360L323.864193,115.023937L314.409642,113.932180L315.731213,118.175731L318.472999,121.534289L328.314394,129.239825L334.165480,133.999135L334.316216,135.632086L332.403665,139.529714L331.577794,142.218560L333.113301,145.072856L336.717739,148.535979L336.997420,150.185205L336.114383,152.102862L334.215252,155.809398L338.144225,166.683878L338.757100,177.202041L337.678774,184.672053L337.682499,188.988439L338.186962,192.660281L341.523425,201.135466L339.187246,215.129401L341.701919,222.754060L345.183946,228.936197L347.055895,239.965059L349.869783,245.186567L354.478908,249.766619L357.110961,251.323205L362.214807,255.100129L365.857761,258.258814L367.996649,262.977955L363.386091,266.862117L359.690982,270.320458L358.644885,274.052401L360.337204,280.036990L360.325273,283.254821L357.978304,284.277094L348.414853,283.948217L340.919043,283.685112L332.298427,283.391857L320.172334,282.816300L312.661944,282.462736L302.370141,281.977606L298.819312,282.218802L289.352954,283.898885L282.665294,285.080083L281.534773,285.408946L279.451609,286.886034L277.976570,291.294900L276.645881,296.330437L275.242340,298.571238L255.119235,305.848749L247.283472,306.845636L242.749346,306.097973L239.517584,306.689532L236.717610,308.239594L235.744686,310.597446L235.573805,313.595938L236.131103,316.627112L238.016776,320.846398L238.315823,325.068164L237.047881,328.038604L236.717487,331.030861L236.110339,334.263956L237.117666,336.013252L239.056658,336.281531L240.982666,337.762535L243.712008,339.109394L245.969159,341.666228L245.817492,345.301639L243.896946,347.371206L242.209438,348.466221L234.674042,349.432575L228.700014,350.201830L220.850037,356.030222L212.483278,362.236761L202.601409,366.349180L198.274263,367.512862L190.662158,370.450924L181.549402,375.330726L176.974493,383.125315L171.207316,392.116132L165.701810,398.149868L158.210925,403.858342L151.274903,406.045782L142.553413,408.792683L131.564614,410.914742L123.802849,411.605682L121.487682,412.069061L114.660808,412.203415L111.322519,411.764711L108.837177,411.526168L107.815976,412.156802L107.455266,413.579897L107.266013,416.823963L106.730297,420.540177L104.518817,423.686327L102.960586,425.085340L101.152758,425.655938L95.440149,424.811018L90.655421,423.812509L79.235457,422.487620L76.957993,422.803064L76.100840,423.192574L72.488398,425.313029L66.909718,429.817814L63.106188,433.736072L60.292777,435.577397L53.629562,436.535151L50.703669,437.978701L38.123249,447.802700L35.437428,450.182996L22.508047,458.725495L18.841325,461.557002L15.962642,464.369517L8.206106,470.687507L3.277721,473.459531L2.354993,475.102514L2.035255,478.965729L1.852749,487.493086L1.679103,495.686851L1.429531,507.605030L1.183505,519.523414L0.904230,533.265550L0.716603,542.630466L0.488933,554.143004L9.420680,560.375998L18.358619,566.609432L27.302686,572.843261L36.255174,579.077443L45.211316,585.311934L54.173401,591.546690L63.143723,597.781668L72.119866,604.016825L81.099413,610.252117L90.084655,616.487502L99.077926,622.720181L108.074338,628.958372L117.076297,635.193771L126.086065,641.429089L135.098859,647.664281L144.116978,653.899305L151.677924,659.121148L163.290661,667.535728L174.121685,675.374521L185.028510,683.256984L199.729513,694.027963L213.046032,704.225459L228.826472,716.287259L244.617878,728.350488L260.426957,740.412479L276.250951,752.473318L292.087117,764.533087L307.942210,776.594623L323.808823,788.649758L339.688984,800.709578L355.580062,812.765916L371.486541,824.818859L387.405795,836.876737L403.335245,848.931389L419.281822,860.982898L435.235845,873.039596L451.201916,885.093321L467.184670,897.146905L474.317348,902.523577L474.987992,904.761107L475.658006,909.293892L475.242978,914.398435L475.331228,918.557394L477.442357,921.380435L481.417577,924.404147L497.074926,933.299412L498.318600,935.055936L498.880629,938.744927L500.751376,943.275103L504.067471,945.908560L507.940234,947.863045L512.651155,949.223767L526.844205,950.625727L529.856080,952.736921L536.005022,960.981130L539.336304,962.605801L548.802099,964.974943L555.654695,966.297240L558.482753,967.055982L564.686357,969.271739L571.437122,973.010516L575.042288,976.416686L575.033016,977.483354L575.013568,980.435951L575.003050,989.326872L576.267792,994.215040L577.693532,997.742366L577.632220,999.900566L575.939023,1001.431932L574.615118,1003.309720L573.886214,1005.781373L571.975453,1008.934883L570.433795,1012.429339L571.114836,1015.071507L573.789276,1016.776140L577.805246,1020.133185L581.114644,1021.535398L582.730645,1021.634378Z "/></g></svg>