<?xml version="1.0" encoding="utf-8"?><!DOCTYPE svg  PUBLIC '-//W3C//DTD SVG 1.1//EN'  'http://www.w3.org/Graphics/SVG/1.1/DTD/svg11.dtd'><svg enable_background="new 0 0 1000 451" height="451px" pretty_print="False" style="stroke-linejoin: round; stroke:#000; fill: none;" version="1.1" viewBox="0 0 1000 451" width="1000px" xmlns="http://www.w3.org/2000/svg" xmlns:xlink="http://www.w3.org/1999/xlink"><defs><style type="text/css"><![CDATA[path { fill-rule: evenodd; }]]></style></defs><metadata><views><view h="451.576709318" padding="0" w="1000"><proj flip="auto" id="robinson" lon0="-78.2813813724"/><bbox h="111.94" w="248.44" x="-1362.68" y="-27.91"/></view></views></metadata><g class="" fill="black" id="country"><path d="M710.492085,313.985378L710.831327,313.015321L711.713741,312.051730L711.639473,310.475509L712.401135,309.464662L713.355071,309.019642L713.721719,307.928337L714.434880,306.392471L715.110568,304.775784L715.712522,303.550418L715.838074,303.539457L716.317914,302.953039L716.782484,301.917216L717.118930,300.881393L717.301692,300.519677L718.117945,299.615387L718.293041,299.023488L721.250113,297.565663L721.898683,296.935401L722.201697,296.535321L722.431273,296.096878L722.587290,295.614590L722.669879,295.093938L720.098433,294.365026L715.947892,291.509662L713.247897,291.411012L712.010041,291.887820L708.799101,293.712841L705.208779,294.902119L704.375197,295.592668L703.588206,298.316498L701.681760,302.492673L701.492179,303.403371L701.471490,311.491852L701.169594,313.879364L701.557691,315.366476L702.424239,315.876167L703.830285,316.287208L705.282663,316.418741L706.282978,316.073466L707.449137,315.289748L709.582717,315.530367L710.492085,313.985378Z M726.685214,289.609063L726.890073,286.648130L728.938596,285.421767L730.155205,283.276622L729.402228,281.847547L727.945081,281.235891L727.276151,279.500156L725.722230,282.768553L724.539389,286.444926L723.783951,288.997738L724.088984,290.529021L725.264350,290.630601L726.685214,289.609063Z M140.573753,202.335813L139.837829,202.500229L137.042943,202.544073L136.105799,202.335813L134.905243,203.716907L139.747427,206.205070L141.702154,206.479097L143.478732,205.810472L143.380531,204.352650L142.164807,202.922230L140.573753,202.335813Z M92.244328,194.027322L91.561721,194.399998L90.994518,195.457741L90.626761,197.491020L90.262013,198.450113L89.763309,199.337960L89.223368,200.033988L90.476447,200.867029L91.302131,201.765837L92.161464,202.467345L94.342425,202.829061L94.728294,202.730411L96.660223,201.376719L96.988403,200.954718L97.032588,200.647808L96.910080,199.831208L96.968983,199.535259L97.247588,199.376324L98.023532,199.124219L98.179872,198.872114L98.249530,198.652893L98.394668,198.466555L98.536363,198.203489L98.571360,197.743124L98.407771,197.271798L98.115756,196.970369L97.834591,196.756628L97.703857,196.570290L97.073611,195.759171L95.621162,194.997376L93.989917,194.630180L92.813299,194.980935L92.244328,194.027322Z M161.112794,158.261359L160.389044,157.932527L158.551049,158.480580L157.643707,158.529905L157.010062,159.247855L154.872218,160.135701L154.410773,160.563183L154.083603,161.133158L152.526036,162.810201L151.997446,163.588437L151.112684,165.747767L150.422172,166.515042L147.954316,167.194628L147.337756,167.271355L146.731448,169.573179L145.941639,170.285649L143.586244,171.557132L143.097545,172.094225L142.381005,173.097162L142.012854,173.820593L142.106068,174.439893L142.629397,174.735842L144.753229,175.086596L145.329945,175.393506L146.624485,176.314235L147.204981,176.511535L148.025669,176.286833L149.250263,175.305817L149.865306,175.086596L151.891584,175.119479L152.798125,175.004388L153.721865,174.670075L154.589098,174.001450L155.378509,173.036876L156.564505,170.987157L157.246037,169.025126L157.354143,168.394865L157.669847,167.967383L159.781671,167.271355L161.527758,165.692962L163.228521,163.265085L164.300799,160.519338L164.138892,157.987332L163.413622,158.436736L162.634312,158.776529L161.857396,158.787490L161.112794,158.261359Z M105.559833,146.231590L105.425477,145.573926L105.176929,145.272496L104.846184,144.987509L104.491539,144.757326L104.161576,144.614832L102.863258,145.349224L97.227264,146.072654L96.845883,146.264473L96.170996,146.774162L95.610450,146.955020L95.159844,146.889253L93.816751,146.522058L93.167878,146.494655L92.479126,146.691954L90.869092,147.475670L90.295553,147.914113L89.367940,149.043103L88.515000,150.468041L87.864648,152.101240L87.527790,153.855010L87.449288,157.132369L87.557268,157.987332L88.201480,158.677879L89.244064,159.225933L90.357367,159.521881L91.225504,159.412271L91.748622,160.075415L93.033682,162.179940L93.482758,162.634824L93.796173,162.777318L94.082075,163.106150L94.481759,163.434982L95.767011,163.719970L97.802036,164.509166L98.896951,164.607816L99.950639,164.410517L100.731625,163.730931L101.032977,162.404642L101.326464,162.179940L104.234201,162.262148L104.545522,162.147057L105.086665,161.714095L105.802588,160.727599L106.419905,159.488998L107.130836,158.436736L108.124752,157.987332L108.097951,157.636578L108.600372,156.156834L108.739397,155.965016L108.651763,155.208702L108.310937,154.227687L108.276501,153.433009L109.015798,150.610535L109.151286,149.026661L108.466975,148.336114L107.803345,148.270348L106.632458,147.974399L106.024537,147.914113L105.570319,147.645567L105.508528,147.004345L105.559833,146.231590Z M33.206185,129.433758L32.507652,128.951471L32.103189,128.874744L30.729885,129.433758L27.965258,130.151708L25.759259,131.428672L20.547160,131.275217L20.382950,132.124699L21.147294,134.662186L21.559222,137.753206L22.059726,139.265833L22.847998,140.641446L23.875396,141.852644L24.026896,142.137632L23.984485,142.367814L23.995251,142.581555L24.286927,142.817218L24.563101,142.861062L25.187166,142.773374L25.468180,142.817218L27.253952,143.628337L28.357003,143.946207L29.625687,144.899820L30.186014,145.113561L30.788562,145.080678L31.820809,144.834054L35.925907,142.959712L36.504948,142.587035L36.478249,136.794113L36.722401,134.245665L36.557507,132.820727L35.836437,132.195946L35.283285,131.823270L33.206185,129.433758Z M73.548293,122.035040L73.304370,122.363872L73.127712,122.391274L72.696230,122.035040L71.578308,122.276183L70.601925,123.142107L70.112838,124.314941L70.471251,125.509697L70.320848,126.408504L67.804506,130.354487L69.303785,130.650436L69.923274,132.091816L70.316592,133.818184L71.146263,134.958134L72.472913,134.355276L73.587916,134.760835L74.648609,135.511668L75.800018,135.922708L79.951372,135.922708L82.498952,136.794113L83.845625,136.991412L84.921113,136.580372L85.363424,135.188317L86.609355,133.018026L87.002216,131.801348L86.196863,131.275217L86.558999,130.973788L86.716046,130.880619L86.970006,130.814852L85.274244,129.576252L82.168031,125.641230L80.234506,124.797228L78.783992,124.534162L74.721546,122.983172L73.548293,122.035040Z M40.091014,101.729669L39.463614,101.992734L38.359890,101.943409L37.655076,102.184553L37.194364,102.666840L36.839979,103.294361L36.432526,103.836933L34.490376,104.428831L33.359102,105.100196L32.179821,105.472872L30.708699,104.941260L30.280002,107.632202L29.143860,108.963971L25.122378,111.490496L24.669701,111.696016L24.335641,111.989224L24.207367,112.575641L24.393814,113.044227L25.611980,114.869244L26.791208,115.573492L27.836774,115.315907L29.891230,113.721073L31.946169,112.833226L33.783440,112.898993L35.105369,114.011541L35.619709,116.250338L35.678296,116.891560L35.928615,117.979446L35.989755,118.571343L35.992781,120.895089L36.159239,122.056962L36.574940,123.054419L37.660461,124.797228L36.238189,125.279515L36.125244,126.660609L36.889151,128.140352L38.077465,128.935030L38.011300,131.072437L39.387059,132.776883L43.006594,134.958134L43.577273,136.043280L43.789038,136.333748L44.165036,136.531047L44.944856,136.624216L45.417575,136.794113L46.143951,137.418893L46.323616,138.109440L46.242813,140.055029L46.808066,142.313009L47.951069,144.724443L49.374268,146.872812L50.791639,148.336114L51.498205,148.697829L53.254313,149.289727L54.050867,149.711728L54.805774,150.435158L55.254337,151.312043L55.217353,152.320461L54.515578,153.433009L53.624524,153.032931L52.801357,154.074232L52.276233,155.477248L52.266816,156.189717L51.941508,156.392497L51.377610,157.395435L51.075639,157.800994L50.465209,158.064060L49.823350,158.009254L48.789240,157.614656L48.482742,157.411876L48.221755,157.143330L47.844432,156.852862L47.189396,156.650082L46.487513,156.661043L44.424908,157.280343L42.919753,157.987332L41.995966,158.102423L41.795001,158.414814L41.798425,158.864217L41.487971,159.412271L34.587344,164.509166L32.818242,166.493119L31.217802,169.375880L30.707268,172.444979L32.214922,175.086596L32.863311,175.294856L33.550786,175.300337L34.099774,175.492155L34.332705,176.253949L34.351616,177.832343L34.465800,178.555774L34.729954,179.262763L35.635994,180.227336L36.894718,180.676740L43.583681,180.567130L48.937480,181.422093L49.851323,181.104222L51.176892,181.465937L57.967566,178.912008L59.860537,177.322654L60.996931,176.971899L62.883089,176.796522L63.866941,176.906133L64.879338,177.432264L65.531302,176.347119L67.036597,174.412490L67.717729,173.288981L69.009862,173.738385L69.121230,172.505265L68.873063,170.855624L70.680228,164.257062L71.178510,163.928230L72.608358,163.265085L72.900359,162.865006L72.831582,161.851108L72.628823,161.620926L72.263320,161.620926L71.706380,161.292094L69.606099,158.908062L68.804444,158.529905L69.204239,157.614656L68.798958,156.814498L68.242777,156.222601L67.550319,155.860885L66.716744,155.734833L66.802995,154.227687L65.563518,153.498776L63.042574,152.972645L62.767101,151.947785L62.717829,150.687263L62.322036,150.106326L61.001803,151.092822L61.476773,150.029599L63.072099,148.473127L63.413172,147.201644L63.150766,144.417533L62.607467,141.852644L62.676694,141.655345L62.844480,141.315552L62.992604,140.909993L62.971364,140.515394L62.021224,140.246848L61.754063,140.055029L60.970417,139.134300L60.629091,138.586247L60.485972,137.961466L60.042254,137.216114L53.969257,132.886493L53.774922,132.689194L53.358198,132.579583L52.938347,132.261713L52.744570,131.494438L52.751751,130.710722L52.699713,130.321604L52.466400,130.014694L49.982970,127.471727L49.326472,126.298894L48.214194,118.779604L48.351853,115.641999L48.259099,113.989619L47.837643,112.805824L47.440633,112.548239L46.845146,112.405745L45.569468,112.345459L45.155534,112.057731L44.313296,110.788988L43.943009,110.504000L43.422785,109.851817L42.722606,106.974538L41.934083,106.322354L41.707193,105.694834L41.493498,104.256194L41.043109,102.705203L40.091014,101.729669Z M92.762773,94.078846L94.101585,93.223883L95.150819,92.133257L95.546296,91.152242L95.013759,89.804031L93.860720,88.743548L92.435632,87.962572L91.091741,87.474805L89.817287,87.773494L88.504858,88.496924L87.558930,89.623173L87.420275,91.152242L87.639057,91.585204L88.096910,92.199023L88.666367,92.752557L89.244123,92.993700L90.015694,93.185519L90.794739,94.100768L91.508024,94.369314L92.762773,94.078846Z M75.617525,72.663666L74.894801,69.619230L72.480284,68.076460L72.045700,69.284917L72.428007,72.167677L71.997666,73.592616L74.647966,74.798333L75.617525,72.663666Z M780.668031,26.462767L780.988811,23.686876L780.958064,21.428896L780.687077,20.634218L780.610345,20.184814L780.608640,19.543591L775.849342,23.977344L774.960820,25.426946L775.144709,26.673768L776.020140,27.786316L777.213609,28.827618L777.871804,28.202837L778.449266,27.446523L779.861108,28.224759L780.668031,26.462767Z M12.631705,19.664163L12.742897,19.340812L12.534881,18.833862L12.263068,18.718771L11.891533,18.968135L11.888361,19.351773L12.042254,19.754592L12.329798,19.954632L12.631705,19.664163Z M12.368126,18.157016L12.101608,18.176198L12.190479,18.387198L12.368126,18.157016Z M776.971008,449.576709L778.629841,447.969708L780.101356,446.125222L780.480780,444.712276L781.029852,441.430483L781.627049,440.323791L782.808463,439.982735L784.370681,439.968814L785.734552,439.620798L786.319705,438.284416L785.962686,436.676582L784.522969,433.648841L784.419568,431.804356L785.028443,429.952911L786.083504,428.219791L788.700029,425.393901L791.131289,423.806948L796.493279,421.349956L797.118319,420.870682L798.699128,419.658598L799.200340,418.572789L799.231343,417.278169L799.133474,415.934828L799.247816,414.695892L800.056666,413.129821L800.934741,411.856083L801.060354,410.770274L799.617308,409.795829L798.853909,408.508171L798.297072,406.009418L798.146645,403.482824L798.595936,402.069880L799.657488,401.039754L800.129971,399.724255L800.606654,396.780043L803.970542,388.204939L804.517499,385.218967L804.340924,381.209829L804.595659,380.103140L805.179953,379.393188L805.836135,379.198300L806.554537,379.135657L807.314455,378.864205L808.128712,378.349142L808.366317,378.070730L808.348148,377.604389L808.790845,372.620810L809.179351,371.333153L809.754950,370.031576L810.105592,369.725322L810.827057,369.335545L811.288841,368.994490L812.693221,367.393620L813.019106,366.099003L812.136936,361.748813L812.110227,360.899656L812.134344,360.551641L812.413847,360.440276L813.166963,360.294110L813.609229,359.904333L813.629506,359.250064L813.344364,357.878884L813.250179,355.456699L813.352653,354.148162L813.714289,352.763062L814.736346,350.062465L814.810557,349.770420L815.506059,347.034734L815.883380,344.125328L815.899208,343.387537L815.501867,342.065080L815.435230,341.633541L816.051588,340.359806L817.042629,340.018752L818.293439,340.213640L820.890650,341.027995L821.651775,341.703144L822.123731,342.712388L823.060137,347.041694L823.661154,348.266707L824.458884,347.828208L825.377225,346.958171L826.424044,346.700640L827.327826,346.262141L827.838100,344.884001L827.663308,343.032561L826.891395,342.065080L825.934729,341.313367L825.216121,340.088355L825.183874,338.612771L825.861135,337.659210L827.979941,335.835612L828.683464,334.638441L830.419189,330.650190L831.228683,329.613106L834.033602,326.912511L839.819605,317.794523L844.094401,313.465220L845.197474,312.817912L847.473846,311.909112L849.102797,311.258806L856.509339,308.300682L863.919966,305.342557L871.328380,302.377473L878.737973,299.419348L886.148436,296.454264L893.566225,293.496141L900.978899,290.538017L908.395532,287.572933L913.826246,285.408283L914.701385,284.798723L917.303983,282.986103L920.612424,280.062781L924.100041,276.986334L927.588678,273.909886L931.075404,270.840400L934.569040,267.756992L938.057702,264.680546L941.553682,261.611060L945.044435,258.534613L948.536245,255.458167L951.439865,251.539526L954.342217,247.627846L957.249224,243.709207L960.154873,239.790567L963.062251,235.871928L965.975981,231.953288L968.886856,228.034649L971.798062,224.122971L974.148167,220.963003L977.368718,217.531585L978.291530,216.245076L978.741754,215.617507L979.484208,213.278853L980.309193,209.388056L981.999576,201.453337L983.697337,193.511659L985.402693,185.569981L987.115832,177.635264L987.840739,174.308251L988.203210,173.716627L989.903890,175.470617L990.724405,176.528579L991.076030,177.203726L991.667869,177.746628L993.023810,177.781429L995.546149,177.440376L998.358868,177.440376L998.890311,177.398614L998.872582,176.946196L998.434975,176.278009L997.859971,175.714227L997.393984,174.948596L997.279657,174.322171L997.365433,173.159805L997.342097,172.554261L994.624689,162.392256L994.643631,161.550063L995.013778,160.338974L995.135367,159.649907L995.100282,158.967800L994.837394,157.728871L994.771863,157.067644L995.037560,156.267213L995.669510,155.786953L996.387932,155.369337L996.388287,155.368909L996.919105,154.728991L997.038636,154.130408L996.952757,153.622307L996.811692,153.135088L996.759426,152.578266L996.929795,149.933361L996.705215,148.687471L996.024563,147.490304L995.756608,147.385900L995.200233,147.713033L994.898629,147.643430L994.666521,147.323257L994.355429,146.550667L994.100343,146.237454L991.771646,144.198093L991.527052,143.801357L991.186422,143.585589L990.453536,143.655192L989.842803,143.536867L989.165997,143.063568L988.052823,141.880321L986.340877,139.228456L985.230189,136.374743L983.302561,128.767161L982.620947,127.785762L981.669573,127.110616L980.397414,126.637317L979.660292,126.212740L978.412737,124.883327L977.689430,124.389148L977.109788,124.298664L975.835723,124.410029L975.274442,124.270823L974.733753,123.567835L974.150728,122.252343L973.862853,120.762844L974.195072,119.593518L975.063196,119.266385L976.133351,119.586558L977.219085,120.080737L978.147724,120.282585L979.211256,120.157300L980.045918,120.171221L980.850072,120.386989L985.046720,122.941410L986.579466,123.108457L988.179367,121.904329L988.675784,121.855607L990.711362,122.182740L991.661213,122.127058L992.452405,121.827766L993.212704,121.403190L994.556342,120.324347L995.260756,119.294226L994.161019,118.556437L990.383104,116.990375L987.053278,116.273466L985.893806,115.326869L984.464064,114.763087L981.002004,112.354831L978.204933,109.528959L977.144486,109.132224L976.532916,108.693726L975.777187,107.733208L974.837135,106.772690L973.653908,106.334193L972.533237,106.487319L969.967319,107.148545L968.599197,107.294711L967.277374,107.169426L966.124776,106.849253L965.144448,106.403796L963.469935,105.345834L961.086536,103.348235L960.589717,102.422518L956.978347,99.895938L955.502476,98.350757L954.849852,97.264954L954.582135,95.970342L954.288984,95.121189L950.317587,89.413762L950.061933,88.613331L949.493509,87.604091L948.152528,87.792018L946.644360,88.334920L945.558967,88.397562L945.256391,87.868581L944.927544,86.086750L944.573571,85.369842L944.076491,85.119272L943.412679,85.063590L942.118164,85.140153L940.661425,85.028789L939.374613,84.694695L938.190237,84.110032L937.050003,83.260878L935.416533,81.298081L934.824506,80.998789L934.162662,81.207597L933.079716,82.133314L932.768358,82.342122L932.434944,82.683175L930.948360,84.680775L930.394134,84.910464L929.760327,85.049669L928.474982,85.140153L927.912854,85.021828L927.941951,85.460326L927.777437,90.478685L928.380092,94.947182L927.326842,95.740653L921.422644,96.513244L919.880548,97.411119L919.010291,97.536404L917.886052,97.097907L916.300452,95.420481L915.361543,94.675731L914.507626,94.390360L911.609577,94.028425L909.554588,93.395040L908.819035,93.708253L908.963203,96.387959L908.056253,96.415800L905.937539,95.336957L905.187634,95.253434L901.054271,95.956422L900.153628,95.914660L899.299809,95.566646L898.287351,94.724453L896.993849,93.241914L896.389552,92.754695L895.403816,92.364919L894.663327,92.225714L892.284041,92.176992L890.518321,91.501845L888.252501,88.592450L887.004730,88.237392L886.197840,88.007787L885.164184,88.223555L882.162668,89.497286L880.868170,89.580809L879.940772,89.267597L879.066292,88.759496L877.945749,88.300118L871.621065,86.845421L869.546060,85.982346L867.949696,84.590291L867.341753,82.871103L867.089026,80.859583L866.561356,78.597493L866.216898,71.518892L865.433762,68.254523L862.981825,67.558495L862.696545,67.603606L860.957079,67.878668L858.792820,66.904229L854.902410,63.848667L853.653436,61.732743L853.301471,56.888390L851.536864,55.308407L850.067573,55.294487L845.308588,57.333848L844.110672,57.612259L842.905820,57.587898L841.638679,57.264245L840.256894,56.658701L839.631407,56.049677L839.514115,55.322328L839.538466,54.574098L839.331832,53.888511L838.759476,53.199443L838.473929,53.157682L838.168130,53.338649L837.522692,53.324728L833.491447,51.598579L829.275321,51.424572L826.784717,50.046438L819.102353,43.420253L817.891970,42.689424L814.365692,41.610581L813.232858,40.984156L811.841477,39.773067L806.316680,32.729265L805.656152,32.140594L805.238937,31.768747L801.953099,30.912633L801.059208,30.996156L800.193935,31.552978L799.870843,30.467175L798.642569,28.977675L798.422979,28.281647L798.336353,26.987035L797.780612,26.799108L796.942604,27.098400L796.006144,27.272407L794.619292,26.785187L793.464688,25.758546L792.584631,24.401292L792.016855,22.911792L791.418940,21.773786L789.683460,20.171182L788.460110,18.201422L785.003966,15.492533L785.002193,15.493476L784.881306,16.233348L785.080148,17.148597L785.093831,18.167977L784.738907,19.061304L782.486044,21.565909L781.953671,22.352366L781.737218,23.240212L782.139787,24.185605L783.088071,24.635009L784.330450,24.777502L785.391656,25.095373L785.813495,26.068168L783.314919,25.100854L782.322860,25.281712L781.337710,26.528533L781.111502,27.251964L781.132045,27.780836L781.041879,28.257642L780.498072,28.827618L779.898812,29.167411L779.416690,29.208515L779.071161,28.942709L778.881648,28.367253L778.240761,29.389373L777.706189,30.005933L777.329673,30.778688L777.108575,33.738177L776.833742,34.998700L776.203601,35.998897L775.058900,36.681224L774.955368,34.782218L774.573606,33.138058L773.840724,31.759704L772.691052,30.663597L771.230656,30.093621L770.355735,30.630714L765.793699,37.363550L764.690496,38.021214L763.176260,38.402111L761.463076,39.070737L759.775770,39.336542L758.353937,38.481579L757.681891,38.876178L756.930141,39.015931L755.303936,38.983048L754.721646,39.120061L753.360131,39.722920L752.840756,39.862674L748.657153,39.487257L747.375388,39.862674L743.292491,44.038841L740.463025,45.839196L737.907505,45.006155L736.841022,45.683001L736.311896,46.628393L736.167123,47.910838L736.241680,49.598842L736.180230,49.982479L735.869869,50.601780L735.864212,50.977196L736.109861,51.404678L736.870903,52.141810L737.819067,55.161583L737.404477,54.646413L736.620749,52.818655L735.953856,52.103446L735.333502,51.615678L734.844758,51.026521L734.577528,50.020843L735.811175,45.806313L735.792713,45.189753L735.479701,44.499205L733.909139,45.756988L730.336862,47.033952L728.914263,47.762863L728.474136,48.256111L727.700530,49.511153L727.267633,50.020843L725.443050,51.648562L725.000396,51.897926L724.253068,52.111667L723.124359,53.065279L721.235773,53.426995L719.739287,54.087399L718.888428,54.240854L718.080112,54.520361L716.901044,55.753481L716.012838,56.041209L714.038546,56.238508L713.168094,56.120677L712.156118,55.539740L710.381424,57.123614L709.087331,59.535049L708.391217,62.379446L708.392947,65.278648L708.582125,66.314468L708.919070,67.355770L709.441580,68.166888L710.201987,68.495720L711.275620,68.671097L712.107565,69.178047L712.640015,69.980945L713.035239,71.907352L713.454537,73.082926L713.768911,74.447579L713.645203,75.853336L713.124071,76.924780L712.593166,77.560521L712.177833,78.333276L712.001235,79.823981L712.152333,81.180413L712.570065,82.512182L713.972871,85.134617L714.775459,86.030684L715.119374,86.622582L715.256643,87.474805L715.104445,88.069442L714.489931,89.387510L714.397606,90.231512L713.954632,90.231512L713.682005,89.220354L713.458571,88.724366L713.186196,88.390053L712.543541,88.039299L712.392578,88.291404L712.371208,88.872340L711.823153,90.650773L711.944510,95.747668L712.402938,98.616726L712.484618,100.236224L712.137619,103.772536L711.621890,106.026414L710.721189,108.570880L709.482950,109.016036L709.093162,109.161270L708.797726,109.446258L708.676417,110.273818L708.254997,111.611068L707.248058,113.003123L704.423673,117.129477L700.887973,121.494917L699.218675,122.876813L697.806152,124.113026L696.520869,124.839810L695.427564,123.749207L694.656885,125.202738L693.888564,126.583875L692.606250,127.093407L692.094150,128.183403L691.568343,129.652979L691.418275,130.562748L690.819428,131.746195L688.970080,134.929411L687.046910,136.684881L685.828207,136.817319L685.188487,137.770487L685.905781,140.613564L687.004092,142.066859L687.857456,144.192831L688.050096,146.141510L688.699738,148.037282L688.773328,149.634218L689.226028,150.362392L690.062286,150.726237L690.846019,152.319933L691.499837,154.210199L692.339299,154.937322L693.560305,154.936936L695.361104,155.373414L697.027213,155.884964L697.031663,156.684577L693.826893,156.609773L692.283192,156.392085L690.670380,155.593956L689.828150,154.211970L689.689642,152.466848L688.921607,152.756318L688.087368,152.901924L687.575944,153.338555L687.288820,153.701555L686.561723,155.666649L685.233495,158.718991L684.165150,162.062829L683.416656,166.416392L683.201898,167.731720L682.380677,171.922086L681.045860,173.521715L679.772426,174.831278L678.300916,175.485861L677.207436,175.340814L676.692100,175.195595L676.105486,174.250526L675.464972,174.468709L675.021190,175.123035L674.573297,175.341297L673.870955,176.036785L672.970453,175.964484L671.872282,175.383309L671.993669,174.793383L671.288853,175.084847L670.584479,175.375839L669.681644,175.158742L668.913314,175.522766L668.081853,176.105900L667.244612,176.107335L666.404070,175.818239L665.763014,176.109817L665.574463,176.692870L664.874520,177.640201L664.114149,178.584083L663.669451,179.239848L663.221254,179.898864L662.457057,180.846598L661.630545,181.645540L660.920471,182.456516L660.543645,183.844473L661.333113,185.814561L662.624562,189.248296L665.577702,195.004168L669.176824,199.806402L670.982756,202.583073L671.098256,204.225518L670.073304,204.793549L669.831440,205.755933L670.119690,207.303012L669.830207,208.466174L669.720634,209.777400L669.763843,210.738990L669.518283,211.611089L668.536256,211.602781L667.810179,211.811427L667.112566,212.539868L666.583458,213.099584L666.596142,215.050655L666.874208,216.623214L664.812551,218.284171L664.584078,219.051447L664.688041,220.037943L664.971854,220.903868L665.807621,222.098625L667.265673,226.006248L667.991665,227.255810L668.565171,228.028566L669.104155,229.064387L669.511036,230.308469L670.451727,233.142437L672.209401,240.310450L672.405651,242.020378L672.257378,243.663173L671.429189,244.170748L670.788329,244.315663L670.536265,245.018233L670.724985,245.566287L671.235548,247.665636L672.111114,249.705859L671.736357,253.707318L669.662036,256.396318L667.369792,257.704459L664.394922,260.467820L662.284507,261.340440L660.802510,261.412811L660.010534,260.466196L659.688987,259.316960L659.367884,259.103219L658.653072,259.053894L657.132773,258.642853L656.930781,258.456515L656.798881,258.138644L656.575660,257.853656L656.098857,257.722123L655.877021,258.018072L656.015411,258.675737L656.309668,259.382726L656.562400,259.815689L658.805617,261.816086L659.647078,262.775181L660.650746,264.348096L661.128144,265.361996L661.524389,267.636420L661.986700,268.244760L662.698791,268.398215L663.635032,268.387254L664.957944,268.951750L667.508359,271.450877L668.616069,272.015373L671.788693,273.199832L673.717657,273.125699L675.472940,274.071159L677.403486,274.777565L682.422100,279.967639L688.919923,288.391233L691.221081,290.035396L691.783901,290.210773L692.847329,290.375190L693.222627,290.495762L693.577883,290.802672L694.366403,291.657637L695.254804,292.216652L697.820764,294.633572L700.350215,295.746123L701.719553,295.954383L702.303214,295.340562L702.340384,293.882738L702.277253,293.120942L702.056616,292.561927L700.393756,290.693061L700.161927,290.495762L699.923827,289.142067L700.107378,288.029517L700.667324,287.525307L701.548006,287.963751L701.857924,288.413155L702.089709,288.829676L702.405465,289.103704L702.974307,289.114665L703.515447,288.747468L703.946773,288.117206L704.372616,287.234838L706.282746,286.286704L708.068108,284.039682L711.989195,277.600045L714.402844,270.102664L714.913864,269.280582L715.576158,268.759931L716.126559,268.694165L717.333804,268.803775L717.822851,268.573593L718.432550,267.839200L718.733313,267.630940L719.276931,267.466523L718.110498,269.647779L717.670979,270.173911L717.047680,270.464379L716.373123,270.612354L715.842566,270.941186L715.636801,271.774229L715.415643,273.390988L714.356983,276.268273L714.138562,277.748019L714.492223,278.690672L715.347311,278.389243L716.521051,277.704175L717.821725,277.534278L719.257387,279.074310L720.066944,279.370260L720.303468,277.956280L720.672112,278.690672L720.730168,279.381221L720.473589,279.951197L719.913065,280.334835L719.246729,280.290991L718.785679,279.770339L718.417870,279.194882L718.034526,278.915375L716.436839,279.112674L715.834819,279.710053L715.590090,280.723954L715.078155,282.137933L713.333538,283.491628L712.560141,284.543892L712.901075,285.650961L713.672706,286.308627L714.102136,286.473043L715.371389,286.314107L715.849568,286.494965L716.217718,287.399255L716.822671,287.733568L717.674770,287.530788L719.706887,286.182574L720.657916,285.853742L721.226944,285.426259L722.811097,283.371056L723.209148,282.636663L723.780248,279.901872L724.437054,266.786936L724.261457,264.742695L722.382487,261.174863L721.982381,259.223791L722.028043,257.278199L722.483740,254.581773L722.961889,252.943092L723.053945,252.416960L723.481711,251.852465L725.407738,251.704490L725.839466,251.490749L725.854352,250.301472L725.998631,249.709574L726.375116,249.380742L729.863290,247.111799L729.458269,248.569622L728.489007,249.314975L727.515496,249.819185L727.078937,250.575499L726.817036,252.153895L726.095071,252.641662L725.161821,252.954053L724.262296,254.050161L724.739730,254.877723L724.613035,255.486062L724.231678,256.061519L723.947801,256.801392L723.926670,257.612512L724.070824,258.072877L724.253868,258.412671L724.352083,258.873036L724.539514,259.059374L725.316335,260.210288L725.418345,260.484315L725.701943,260.889875L725.624978,261.799644L725.288086,263.279390L725.329287,264.156277L725.790003,267.291146L725.817549,271.215213L725.945723,272.168828L726.322966,272.990909L727.092913,274.317200L728.314517,277.928877L729.059185,279.172960L729.543804,279.436026L730.217857,279.501793L731.517804,279.414104L731.719208,279.786781L732.572248,282.137933L733.018968,285.146751L732.974225,286.768992L732.492133,287.963751L730.754249,290.029915L730.097501,291.186310L728.922260,295.110380L728.737560,296.677815L728.187298,298.119198L728.061961,298.563123L726.864924,301.111576L725.168002,307.978699L725.065593,309.162497L724.344949,311.793159L724.166540,313.316751L724.787820,314.489588L724.312754,315.837803L722.401501,319.460445L721.494591,321.893808L721.284272,324.491587L720.996225,326.009699L720.453993,327.418200L719.603080,328.574596L717.746067,329.922811L717.216796,330.410580L716.761530,331.139493L716.444770,331.890328L716.067434,332.542514L715.439951,332.969997L715.777389,329.752914L715.460281,328.147113L714.122461,327.862125L713.517998,328.815740L711.408205,334.109951L711.146592,334.373017L709.839537,336.181599L709.275167,336.428223L708.839024,336.400821L708.346768,336.263807L707.604385,336.181599L703.329816,337.179059L702.532056,337.562697L700.857735,335.721233L700.274240,336.707732L699.996658,338.823224L699.299749,339.448007L698.892809,338.066908L699.091162,337.612022L699.643396,335.721233L699.097449,336.663887L698.827348,337.606542L698.480812,338.401222L697.697026,338.943796L697.534060,339.634345L697.620130,340.138556L697.761268,340.620845L697.761266,340.621546L698.173454,340.860948L699.156486,341.431692L701.426459,342.106841L702.283294,342.837673L702.189158,344.013964L701.864657,345.412984L702.036631,346.818965L702.407861,347.194821L703.400383,347.654201L703.794655,348.141422L703.952396,348.740008L703.972118,349.401236L703.897048,350.688892L703.485074,352.505531L703.494981,353.027553L703.890409,353.493894L704.483140,353.709663L705.006774,353.981115L705.185728,354.614502L705.215972,355.366215L705.593064,356.653871L705.684472,357.391663L705.609619,358.059852L705.259572,359.368389L705.178047,359.960015L705.197218,360.635164L705.268891,361.157187L705.668801,362.417002L705.747598,363.078231L705.564422,363.600254L705.324381,364.066594L705.228589,364.581657L705.545630,365.938916L706.801313,368.096611L707.365958,369.453870L707.458837,370.059417L707.495191,371.305312L707.671804,371.883017L708.209329,372.565127L708.753660,372.954904L709.124667,373.351642L709.125636,373.431934L709.133250,374.061593L708.224270,375.265726L703.663936,377.673992L702.854534,378.857245L702.038064,380.416354L701.080305,381.815376L699.860225,382.504446L698.737599,382.246915L696.184094,380.722607L694.943956,380.284108L693.731560,380.207544L692.532058,380.304989L691.446455,380.666925L690.580387,381.383836L689.965044,382.469645L689.324761,384.098357L688.863181,385.789712L688.860075,385.846197L688.792037,387.084330L689.115436,387.919567L690.140247,389.443875L690.489197,390.306953L690.528625,390.940341L690.339272,392.221039L690.354001,392.847467L691.703903,395.826480L693.784628,396.077051L696.331347,395.213972L699.061917,394.831155L698.452460,396.320662L690.966040,408.132314L690.780097,409.280766L691.345836,410.693710L692.178031,411.508067L694.898450,413.220305L695.898673,413.624003L696.952322,413.589202L697.419028,413.540479L697.971352,412.955813L700.357484,411.480226L704.800123,407.512846L705.698955,406.371354L706.108974,405.306426L706.644111,402.946880L707.119519,402.000277L707.604342,401.547857L708.204760,401.206802L708.846408,400.956230L711.256718,400.601254L711.423442,400.531651L711.825572,401.262484L712.825306,401.610500L714.043093,401.861071L715.078794,402.278690L716.183090,403.315777L718.180193,405.689244L719.409471,406.642807L721.050065,407.638132L722.601280,407.846941L724.128117,407.867822L725.702180,408.313282L727.258297,409.886313L728.573690,411.995289L730.105835,413.721448L732.324572,414.111225L736.270417,412.719162L738.274680,411.341019L740.412244,411.013885L742.084492,411.939607L745.191549,415.294479L745.663231,415.545051L746.533457,416.255003L746.905997,416.477733L748.336449,416.463812L749.570394,417.264249L749.922351,417.897638L749.805209,418.886003L748.524709,421.642289L748.531704,423.090035L750.356697,425.957687L751.170563,429.952911L752.834724,433.266024L752.850271,433.352930L753.073844,434.602405L753.547859,436.029272L754.604012,436.954994L755.853281,437.685828L756.913548,438.548908L757.254302,439.147496L757.685457,440.476918L758.022499,441.054625L758.553993,441.479205L759.729461,441.973388L760.265943,442.363166L761.093226,443.643866L761.774946,445.067252L762.641981,446.201785L764.018861,446.612444L766.782425,446.498199L768.228055,446.438436L769.278392,446.633325L771.291100,447.419842L772.337637,447.684335L772.941476,447.656493L773.891699,447.385041L774.510030,447.468564L775.161582,447.809620L775.828906,448.345566L776.971008,449.576709Z M1.443073,0.000000L1.109689,0.386378L1.392091,0.994717L1.800515,0.887847L1.810681,0.295949L1.443073,0.000000Z "/></g></svg>