<?xml version="1.0" encoding="utf-8"?><!DOCTYPE svg  PUBLIC '-//W3C//DTD SVG 1.1//EN'  'http://www.w3.org/Graphics/SVG/1.1/DTD/svg11.dtd'><svg enable_background="new 0 0 1000 455" height="455px" pretty_print="False" style="stroke-linejoin: round; stroke:#000; fill: none;" version="1.1" viewBox="0 0 1000 455" width="1000px" xmlns="http://www.w3.org/2000/svg" xmlns:xlink="http://www.w3.org/1999/xlink"><defs><style type="text/css"><![CDATA[path { fill-rule: evenodd; }]]></style></defs><metadata><views><view h="455.38629592" padding="0" w="1000"><proj flip="auto" id="robinson" lon0="25.4942371997"/><bbox h="33.42" w="73.54" x="261.86" y="-988.34"/></view></views></metadata><g class="" fill="#000" id="country"><path d="M260.055225,396.281735L260.406519,393.511084L259.376067,391.592409L257.513644,390.379311L253.779476,388.469412L251.235109,388.228532L250.827870,389.501777L250.787439,391.231056L250.947434,393.046462L253.182491,394.999636L256.832226,396.548486L260.055225,396.281735Z M368.580953,328.061452L371.040553,323.561800L368.765746,318.573385L363.880528,317.809304L359.352661,318.933969L357.036728,321.999085L358.766493,327.082469L363.714052,329.950798L368.580953,328.061452Z M130.041612,226.846380L127.992611,224.877308L126.889145,224.432143L124.895383,223.302137L121.089785,218.371662L119.136351,217.241868L113.957251,218.277511L101.001540,225.990247L78.324296,227.702535L73.371194,230.956132L73.312110,235.117786L74.051691,240.907311L73.138850,245.121635L68.185106,244.530569L65.637945,243.322771L64.795355,242.089322L64.174851,239.571175L63.809666,238.594803L63.095575,237.335840L62.368699,236.248204L61.859175,235.785756L58.897736,235.897085L57.883649,236.522251L57.399819,238.080935L56.004986,241.010092L54.160871,242.680344L49.225520,244.573399L47.297940,245.969705L46.036292,248.239900L45.617030,250.647335L45.551211,256.173969L46.937146,259.284718L47.195086,261.110170L45.838760,261.932942L44.847245,261.864377L43.904579,261.598688L43.112646,260.938762L42.667416,259.696078L41.861393,256.816662L40.612251,254.665834L32.143604,245.704145L27.617008,242.911616L22.737449,241.849490L16.499913,241.678183L15.225011,243.451258L15.316607,244.556267L15.074349,245.301527L12.753844,245.969705L10.084892,245.926873L1.100385,243.237114L6.117534,247.254702L11.195808,250.287494L13.677040,252.198126L18.178016,256.713830L22.155267,259.807489L30.818515,269.355964L33.496886,273.891173L35.343620,276.309063L31.834161,275.485932L28.281160,276.180448L26.487746,278.392706L28.435803,282.071556L25.626859,283.726744L22.724745,282.028677L19.690834,279.301661L16.566544,277.878214L13.263123,278.907206L14.676620,281.454099L17.969741,284.747341L20.346672,287.946559L11.510918,286.231122L9.646938,287.226065L10.003217,289.027329L11.616838,291.497794L14.871288,295.143781L19.993669,298.069438L25.459618,299.253501L36.067100,299.339305L40.177125,301.621754L47.615781,311.594282L51.114691,313.860400L62.680720,315.199542L69.248940,317.028071L73.367410,319.758174L68.191498,326.301020L67.527795,328.362023L67.254094,332.767837L66.581688,334.176445L64.680449,334.777698L62.634135,334.185034L60.385836,333.231641L57.942212,332.733482L56.351960,333.540846L55.096305,335.482036L52.964158,339.931732L47.830689,346.495671L47.158397,348.437603L46.073376,352.888998L45.153508,354.350007L43.918240,354.625028L39.564409,354.350007L39.509939,355.209454L39.728079,356.197844L40.094184,357.022957L40.587432,357.375355L42.980810,358.054376L44.872456,359.799265L45.827739,362.120191L45.499502,364.578825L50.564863,369.040923L55.698215,368.911953L76.618811,354.392979L78.416098,352.253049L76.937816,347.526771L76.859933,345.481786L78.191969,343.608756L79.763212,341.907653L80.803342,339.957504L83.961879,331.290580L84.640075,326.687449L84.647674,322.050601L83.726842,314.195180L84.053424,313.139346L85.127027,312.444059L86.926028,310.272451L91.093847,307.371472L95.710895,305.225939L96.941454,305.028557L99.858698,303.818544L100.957795,303.123450L102.638294,302.917499L104.646643,303.698404L106.625167,304.204714L108.207684,303.123450L109.703724,301.578849L112.131821,300.137286L114.846748,299.253501L117.170321,299.339305L117.368975,300.008578L118.732139,303.174938L118.913738,303.904359L120.026153,303.801381L120.471357,303.509612L120.926545,303.029056L121.987842,302.351141L122.815964,298.773007L124.040273,297.365884L126.546121,298.687205L128.730283,300.909544L129.556412,301.347165L130.396114,300.446187L132.599818,298.687205L135.123826,297.777719L138.168566,297.640440L141.266603,298.172398L143.921506,299.339305L147.023382,304.230458L155.695817,303.406635L160.598818,299.854129L152.483280,296.585128L153.865374,293.934127L157.291327,293.196345L164.819641,293.711075L168.440717,293.282133L170.475089,292.063968L174.564881,287.946559L177.123534,286.694281L179.646370,286.128199L182.055213,285.184749L191.301460,274.997207L187.296755,272.373652L188.203289,270.599012L191.881896,270.470419L199.751272,274.354160L202.810817,272.613707L205.807433,269.673151L209.220211,267.667208L208.637715,266.612851L208.113181,265.344238L207.694022,263.989963L207.405317,262.704310L207.620996,260.364550L208.907285,259.961751L210.498445,260.373121L211.618053,260.493104L213.814318,259.087609L214.796162,258.282048L215.815340,256.893786L216.201178,255.685532L216.576166,252.626534L216.768177,251.855404L217.534474,250.707309L217.742670,250.278926L220.247926,250.287494L221.974147,250.878664L223.230449,252.240967L224.123640,253.731853L224.910459,254.734384L228.465890,256.945202L231.799741,258.204920L238.940317,258.916211L237.525860,256.919494L235.768114,255.736946L233.798521,255.119981L231.681449,254.734384L235.221503,252.729353L246.387041,257.699313L247.250751,254.734384L244.267614,251.341327L238.875021,248.034291L233.019920,245.532818L228.868696,244.530569L221.842281,243.357035L214.889518,241.010092L212.236424,239.442704L210.768524,238.158015L207.702347,233.816142L203.883072,230.613633L194.547898,227.830961L186.349404,224.132517L178.624780,222.360495L174.804953,220.836806L171.069298,220.237622L162.635814,221.675682L156.622829,219.672687L153.538544,221.384641L148.961348,225.990247L145.605006,227.009048L142.719792,226.349820L139.820617,225.108454L136.377238,224.432143L135.413746,224.860186L132.873782,226.846380L131.304045,227.291578L130.041612,226.846380Z M243.812091,219.201915L243.626974,217.122043L242.418514,215.093655L239.932775,213.339245L232.655070,210.515274L217.447442,207.546092L213.860279,207.443416L210.600584,208.530084L207.834322,211.499357L207.399032,213.039722L207.004299,217.413046L206.765945,218.542847L204.499581,219.407342L199.318824,218.226156L197.448562,219.330307L197.604836,223.772968L201.939913,226.495363L210.656432,228.729952L226.697972,238.080935L228.526859,238.252223L233.054824,236.316716L235.231479,235.785756L241.010250,236.145437L243.914000,236.813428L246.731454,238.080935L249.312134,238.714707L250.628866,237.387226L251.673713,235.537407L254.710168,233.884648L253.919539,232.146345L250.826235,228.729952L249.370240,227.368632L245.963253,224.851625L244.332984,222.993960L243.785930,221.204881L243.812091,219.201915Z M206.506506,131.203994L200.316065,130.828424L196.808573,131.135708L194.208839,131.912469L192.441833,133.423366L192.069952,135.881931L193.124037,137.077137L199.262111,145.905996L201.864984,146.973482L203.653382,147.101583L209.426979,146.128030L209.973219,145.205744L210.211855,144.257867L211.089149,143.822366L214.581869,144.368878L220.491791,146.606263L223.808085,146.563563L228.344973,144.266406L229.998498,143.822366L231.745717,144.257867L233.824664,145.180125L235.831525,145.590026L237.357507,144.539665L238.257953,141.243639L237.203934,138.878568L232.300694,134.379452L228.736267,132.211228L225.148164,132.270980L218.249238,133.662385L206.506506,131.203994Z M128.655642,138.016259L125.103816,135.216051L122.971511,131.818574L125.655452,125.861077L122.482727,123.847051L117.452607,122.643819L113.245490,122.208618L113.137336,122.191552L106.125168,121.679559L104.511211,122.208618L103.364493,124.000659L103.342384,125.741597L103.627396,127.508236L103.362237,129.377399L101.635227,132.399021L99.516860,134.140427L96.796132,134.925800L93.157801,135.087998L90.764002,137.008838L92.096973,144.411575L90.218614,144.539665L86.407463,143.139239L84.461575,143.668661L84.932707,145.128888L88.327487,146.563563L41.227646,150.867982L29.050461,149.680792L22.882223,150.381143L21.672824,153.848966L24.903038,156.018685L47.638091,163.964204L52.863134,164.288902L63.090614,162.451838L68.427550,162.152791L73.410000,163.109751L78.172536,165.169021L86.933310,171.433103L88.901890,173.757879L89.838766,176.732473L90.648882,181.810440L92.302568,185.221853L95.530310,189.471667L99.107053,193.337180L101.711443,195.578023L99.495254,198.255266L98.231372,199.281744L96.866764,200.008853L103.873459,204.568629L112.900711,206.202777L121.800527,205.466972L128.498959,202.883233L132.009754,198.409236L135.596025,186.222261L138.254958,181.092295L140.641691,179.271355L144.289553,177.330844L148.085810,176.065729L150.883852,176.219592L152.469878,178.425039L150.203816,180.168988L146.930715,181.895935L145.503225,184.093225L147.786135,186.444579L152.278016,187.504882L156.922335,187.385168L159.687331,186.188059L161.223445,184.990994L162.487462,184.965343L163.157030,184.452330L162.965132,181.810440L162.466619,179.963813L161.646326,178.818274L160.514018,178.271165L158.976517,178.236971L160.551407,175.578502L163.043527,174.988711L165.813686,174.971616L168.356867,174.048488L170.667537,175.262236L171.332230,174.561334L171.522524,173.219405L172.579000,172.492906L174.312914,172.680939L176.095749,173.168122L183.309034,176.339264L185.617573,176.082825L186.393267,173.886088L185.458001,169.629809L184.843521,169.424701L183.704010,169.399063L182.541105,168.988853L181.799485,167.604431L181.488062,165.220291L181.151851,164.135097L180.518503,163.169562L179.177137,161.990453L176.604453,160.221871L175.352150,158.940353L173.850042,157.744315L170.134256,155.839293L168.357490,153.848966L167.733531,151.969803L168.020306,148.724239L167.165511,146.563563L164.208577,143.805287L147.663139,138.648048L131.502139,139.390843L128.655642,138.016259Z M404.081777,25.720751L404.879921,23.636760L400.827363,18.159529L397.878846,15.208704L395.468549,15.591360L394.000333,19.299119L394.986681,23.245496L399.936432,26.460816L404.081777,25.720751Z M799.561208,453.386296L802.050740,453.079810L804.033915,451.678765L806.090252,450.770304L807.703720,451.054880L811.022905,452.587249L812.669606,452.959405L814.251134,452.423063L814.793229,451.126024L815.083260,449.566357L815.883529,448.198284L820.185699,445.210596L825.138852,443.000089L830.404640,441.752636L843.233248,442.234104L846.022370,441.632271L849.009988,439.542346L850.432716,436.610095L851.527911,433.470231L853.588681,430.784611L856.441336,429.805587L858.659715,430.883062L860.771262,432.387207L863.375936,432.715392L866.174881,432.266873L869.031727,432.310631L874.946738,433.656208L879.212143,435.789546L886.440386,442.239576L890.264069,444.947955L894.421785,446.266655L907.713721,446.846680L934.268615,453.320620L939.222856,450.890702L937.495923,448.668895L935.318409,445.320031L933.497173,441.790935L932.908213,439.126564L933.972150,437.310311L935.897128,436.817970L938.116103,436.714032L940.001520,436.013827L940.994620,434.990896L941.280219,434.082865L940.797381,429.707139L940.348925,428.952382L939.836649,428.263270L938.880206,425.457738L938.347380,424.615575L937.993390,423.554697L938.042570,421.493187L938.537178,419.814540L939.413412,418.584313L941.728914,416.725385L954.653928,413.417831L957.089978,411.269455L956.763539,408.585538L953.810651,402.617162L953.881988,399.048650L955.161584,397.196228L957.171799,395.934016L961.405432,394.349485L957.500445,392.169507L956.107032,391.699655L958.067131,390.798213L961.070760,390.475941L984.235994,387.990235L993.944357,385.067777L997.404208,383.183332L998.899615,380.332281L996.702188,376.148982L993.609761,374.068445L976.131635,369.394521L974.568104,368.215220L973.081898,365.245310L973.238587,362.816071L973.972952,360.490713L974.226451,357.777997L972.243100,352.675181L968.895584,350.961680L965.611455,350.099505L964.198888,344.010333L964.185480,338.478646L961.993047,332.337022L952.171352,324.408016L943.818768,314.714699L939.560817,309.923841L934.509327,304.239470L930.548327,294.290500L930.311474,283.560279L937.123958,267.607547L922.305371,238.270381L909.167493,212.187293L903.770689,201.492029L898.948311,191.935537L902.116846,178.486507L904.909204,166.606319L923.148587,154.160833L935.881821,145.505058L936.069449,145.243381L938.284211,142.154026L939.140570,137.426317L944.345549,128.720961L946.239187,124.266232L952.133678,106.648666L954.014796,90.870714L955.901857,86.356479L953.793612,82.665476L956.666401,79.580961L965.008310,76.215406L983.942529,76.464293L986.616792,73.499424L982.813334,73.596806L970.471049,70.502385L975.249115,68.782196L988.213624,68.057366L994.527219,64.163050L998.786386,65.828891L998.737206,61.880779L996.649744,60.431464L992.007198,58.062956L989.800971,56.559752L987.897636,54.656521L982.834301,48.428601L978.888157,45.985358L971.140567,43.455836L967.198317,39.529783L962.877206,46.806956L958.876519,50.739912L953.198767,53.592050L946.804033,55.039507L920.770107,50.952749L895.732548,49.922633L870.042827,45.776981L848.634453,46.806956L823.206163,47.836967L794.070955,46.151513L790.649802,45.300310L783.365826,42.465975L775.115948,40.534014L766.653129,35.181339L758.969286,30.314550L752.424312,27.056283L745.992140,24.853113L739.503230,23.577219L732.724121,23.177450L730.529855,23.840899L725.638809,26.792575L723.089707,27.456104L719.515077,27.354022L712.812168,26.120554L703.103077,22.531027L692.878550,20.974565L685.763727,18.108504L682.533257,17.462190L652.138362,17.810858L650.577812,17.462190L650.064903,15.922999L649.529118,14.749524L648.741184,13.907713L641.861468,9.954066L635.921308,7.990191L633.717766,7.633137L631.964840,8.279238L630.332518,10.336654L630.418173,12.190150L631.454435,14.009749L631.381919,15.370269L628.181456,15.922999L624.933566,13.703641L620.582825,9.792530L616.849039,8.262235L615.477365,13.193467L616.937493,14.621976L615.114918,17.708808L612.743475,19.545752L611.557213,19.724350L609.873759,19.979492L606.641506,18.890903L604.020148,16.645814L601.738450,11.577974L599.261599,8.908350L600.164399,7.352597L590.106068,1.053902L584.970313,0.000000L581.701818,3.212819L582.502434,3.501820L584.108623,4.317837L585.163974,4.496344L585.024082,8.823334L587.248571,11.484448L590.140763,13.856695L592.045147,17.402662L590.723206,21.229717L586.152671,21.901628L580.735400,20.693900L576.821508,18.890903L570.955940,13.550588L567.796272,11.280392L564.187401,10.336654L560.932983,8.755322L554.355058,1.801856L551.233224,0.220976L550.916244,4.045829L553.020392,12.479238L557.009480,20.898019L562.334335,24.742533L564.135593,25.406017L565.562785,26.886149L565.901224,28.366353L564.327988,29.012902L549.316269,28.995888L545.587016,30.050813L543.911751,32.722321L545.945125,37.589500L545.669512,37.589500L510.016655,30.978157L501.558571,27.532666L497.766554,27.456104L495.881579,29.650958L498.239480,35.062213L495.432973,36.159897L491.979566,35.496176L484.778353,32.535138L480.853396,31.871497L468.698303,34.032638L464.498921,33.300896L452.000506,24.334243L445.247151,20.974565L440.670707,23.177450L441.618609,24.810582L442.235387,26.205619L442.657502,27.685790L443.036638,29.659465L443.928403,31.565206L445.379714,32.637238L446.978317,33.505101L448.247279,34.730362L450.266303,37.946911L450.057321,39.053211L447.254716,44.304432L446.464489,45.172632L444.774869,46.151513L440.326665,46.755882L437.303927,44.381037L434.610174,40.755289L431.132556,37.589500L429.171447,36.747047L427.310886,36.542820L426.053428,37.368247L425.896063,39.657438L425.550810,41.555300L423.976403,42.151066L419.685004,41.861692L419.962847,43.427747L423.107102,44.278897L426.059821,46.194074L427.034758,48.134910L424.301624,49.011732L421.346952,48.492446L411.255422,44.074619L408.088154,43.461792L405.770013,44.755552L403.565002,46.543075L400.746780,47.462414L397.348657,46.509026L390.727698,42.014890L387.285468,40.431887L383.546148,40.142530L373.228755,41.861692L372.795335,43.283054L372.081890,50.152490L370.652195,52.638470L365.273871,54.102909L351.131740,54.801097L348.175471,56.154946L352.499010,58.581808L357.387803,62.439640L359.390418,66.016875L355.127839,67.575659L350.218465,66.246855L340.021598,59.808086L335.104132,57.585494L332.197429,57.185275L329.889202,57.662133L327.967519,59.007594L326.312418,61.213257L326.245377,63.487216L328.011727,65.497298L339.961370,74.936238L341.917616,78.719447L339.601623,83.576956L332.021459,78.975086L323.875512,79.469328L315.832102,81.633860L308.349633,82.017356L301.115790,80.781664L286.845224,80.994711L283.505288,82.230411L282.141772,84.880944L284.336857,86.031568L285.791673,88.009038L286.056511,90.259416L284.482755,92.143383L282.512524,91.930259L282.017045,91.879109L272.466734,86.304315L269.197150,86.491830L267.168579,88.026085L265.490037,89.765001L262.036153,91.043678L260.052249,93.004419L258.706223,93.447735L256.747845,93.226076L253.196525,92.296833L251.368206,92.143383L243.158088,95.971344L246.972112,103.935708L254.077477,114.239555L255.715529,125.075933L252.534646,122.532885L250.734878,121.935554L249.211936,122.908355L242.828325,128.686052L242.344456,131.306423L244.123946,135.087998L243.006715,135.028241L240.731382,135.216051L239.602739,135.087998L244.650760,139.655521L249.337244,142.054805L260.063570,143.822366L261.212522,144.539665L262.261210,145.837678L263.421200,146.777062L264.954728,146.563563L265.472961,144.232249L265.237061,142.985537L265.339222,142.259734L268.179239,139.390843L269.267800,138.887106L272.211325,138.673661L273.483110,138.084560L270.986861,135.318493L265.649953,132.117332L263.172370,129.377399L267.291893,131.067423L271.277634,133.602630L274.500709,137.239347L276.401880,142.259734L276.769193,144.830006L276.539322,146.204888L275.394582,147.238225L270.670330,150.201783L267.941797,150.919228L265.041881,150.774030L262.039169,149.544139L259.035378,152.712913L248.185401,152.200421L245.214049,155.420716L245.968158,159.623823L252.173230,165.015212L254.219831,168.971761L265.918588,178.296811L264.980129,179.792834L259.710374,180.425460L256.918839,182.297763L252.150866,189.839384L260.816809,187.214150L263.898348,186.837913L269.213742,187.812719L270.173179,187.624596L271.180923,186.461680L272.659152,185.427062L275.685485,184.093225L279.330644,183.537476L291.299431,184.093225L297.964611,182.648297L301.317552,182.870590L304.712026,185.529668L308.463839,182.246465L313.611780,182.460205L319.180465,184.922592L324.143249,188.402747L320.968653,188.069251L314.236487,185.683576L311.502274,185.529668L309.491549,187.077336L308.937258,189.505873L309.933753,191.729343L312.650263,192.712851L313.701239,193.379942L314.242001,194.859567L314.295197,196.347814L313.932080,197.014982L308.949183,197.014982L306.150494,196.407688L299.410589,193.585204L296.078967,192.712851L289.973466,193.183234L284.199499,194.765485L278.268292,195.492491L271.698902,193.431258L269.581262,193.491126L269.053249,195.868831L269.956402,198.665853L272.886892,200.462235L273.117299,201.446011L272.727773,202.438372L271.612195,202.883233L268.051089,202.061955L266.748274,202.335712L265.628411,204.183632L265.700262,209.060597L267.890308,214.588718L270.621845,219.792521L272.213865,223.713044L271.793937,225.801901L270.691870,228.087813L270.035219,230.348198L270.931262,232.394668L273.628539,234.047351L274.819777,233.011203L275.742349,230.759195L277.588457,228.729952L279.922870,228.045004L280.760817,229.260796L281.348554,231.675392L283.016213,234.612537L285.025405,236.102618L288.409907,237.978162L291.774928,239.417009L293.839891,239.571175L298.265740,237.926776L301.152709,240.461926L302.889350,245.618481L303.773156,251.855404L303.680959,257.013757L304.029764,259.181878L305.456639,261.932942L307.537314,263.835682L309.914625,265.052807L312.045614,266.698570L313.337522,269.827459L313.947977,271.893547L315.021804,274.431325L316.340906,276.849254L317.627959,278.598505L319.003417,279.447440L320.123033,279.241635L321.017483,278.324107L321.792442,277.089342L323.098182,276.094704L324.755757,276.489126L326.498129,277.389454L328.052273,277.878214L329.156243,277.500925L329.935962,276.772084L330.831467,276.180448L332.325214,276.309063L333.211637,276.849254L335.320592,278.667105L336.278915,279.318812L339.541304,280.262094L346.147383,280.656566L357.501463,283.795354L362.516813,287.569155L370.833938,292.261274L376.748185,298.035118L378.694688,299.339305L381.693083,300.111544L383.045056,299.236341L385.177530,294.431710L387.647420,292.561523L390.608566,292.570102L396.775174,293.711075L399.623866,293.136294L401.767108,291.849507L403.476010,289.885109L407.487617,283.769625L407.800545,281.874312L407.479345,278.598505L407.621502,276.094704L408.581422,273.333883L410.009265,270.830482L411.517297,269.107360L416.860966,267.178599L423.666582,267.590059L430.682184,269.527416L445.762877,277.003596L450.000132,280.570811L452.305092,285.081829L451.206028,289.936576L447.279245,292.715938L442.759786,294.912142L439.950303,298.026538L439.808569,300.368962L440.286299,302.685806L440.591349,305.002811L439.294550,309.517142L439.739359,311.877539L440.898559,314.143675L442.494929,316.092332L443.753281,318.315828L443.957384,320.900075L443.554749,325.528177L445.303828,335.739725L443.069381,339.467837L436.308875,346.066055L434.920634,354.392979L429.431650,367.596481L429.261795,369.969525L429.291137,372.497514L429.125297,374.896696L428.201029,376.909042L426.806091,378.818300L426.807547,378.826901L426.807019,378.827866L434.269361,380.845671L438.910383,380.676361L442.481622,379.190834L443.945565,377.055502L445.779868,372.031715L447.547192,370.393682L453.636807,368.024134L461.295556,362.581344L464.490257,362.084603L476.095102,362.816071L485.904456,362.051851L488.216338,360.654466L490.217460,354.814450L492.239280,352.626067L497.499533,353.531964L502.084294,355.414780L506.428511,355.905966L507.972378,354.805941L511.016103,352.636981L514.666104,350.885284L527.000518,349.619315L530.827395,347.633150L539.429237,340.721236L541.431982,339.111416L544.721050,337.545876L548.434611,336.765861L556.058816,336.618587L560.642404,338.576834L563.653422,342.919199L566.073430,348.124224L568.868564,352.675181L571.513374,354.066782L574.082200,354.066782L578.992825,352.205869L581.716812,349.259178L580.005873,345.887166L574.418039,340.169697L573.958205,336.514950L575.804432,335.113160L578.841107,335.478602L582.054131,337.125866L583.425632,338.576834L586.045066,342.400923L587.294770,343.639343L588.891491,344.261299L589.876078,344.097625L590.870719,343.704812L592.514594,343.639343L599.502931,346.083584L610.872651,354.345110L617.826444,357.188542L623.763726,358.067270L625.488878,358.831400L627.174211,360.414296L627.635693,361.569260L627.723827,361.789837L628.109254,363.192728L629.287289,364.868630L633.293755,367.991376L637.186480,369.525557L641.114463,369.929587L645.164100,369.689352L653.577083,367.597659L655.331101,367.161528L657.843523,367.216122L660.841727,370.164364L663.133447,374.450686L665.988930,378.672007L670.591640,381.408225L705.372560,383.521978L707.422322,384.188356L708.827759,385.220722L709.734506,387.236381L709.388654,388.503739L708.685297,389.760218L708.545533,391.699655L709.825538,396.059688L711.719419,398.666136L731.724971,409.154008L737.976297,413.538100L756.704780,431.151069L763.119375,435.740314L770.537615,439.126564L772.735065,439.751174L786.472547,443.655535L786.515018,443.667604L789.586837,445.527958L796.084322,450.989209L799.561208,453.386296Z "/></g></svg>