<?xml version="1.0" encoding="utf-8"?><!DOCTYPE svg  PUBLIC '-//W3C//DTD SVG 1.1//EN'  'http://www.w3.org/Graphics/SVG/1.1/DTD/svg11.dtd'><svg enable_background="new 0 0 1000 880" height="880px" pretty_print="False" style="stroke-linejoin: round; stroke:#000; fill: none;" version="1.1" viewBox="0 0 1000 880" width="1000px" xmlns="http://www.w3.org/2000/svg" xmlns:xlink="http://www.w3.org/1999/xlink"><defs><style type="text/css"><![CDATA[path { fill-rule: evenodd; }]]></style></defs><metadata><views><view h="880.581227715" padding="0" w="1000"><proj flip="auto" id="robinson" lon0="29.4642341269"/><bbox h="161.91" w="184.08" x="350.87" y="-530.72"/></view></views></metadata><g class="" fill="#000" id="country"><path d="M745.003256,447.312087L744.285111,445.484892L742.480251,441.993617L742.089551,441.938024L742.082939,441.934318L740.883231,441.993617L743.414936,447.089710L744.040080,448.346145L745.211499,449.446922L745.003256,447.312087Z M739.906034,376.477240L738.884837,376.036400L738.458271,375.677061L737.786922,375.099157L737.067912,374.639800L736.428862,374.232307L734.645374,373.991517L734.003119,374.028562L733.448330,374.213785L732.965201,374.587937L732.574710,375.176952L732.574999,375.180656L732.953407,376.140127L733.580804,377.210743L734.349527,377.821999L736.033022,376.940309L736.039348,376.940309L736.877990,377.555268L737.690862,378.488827L738.487202,378.966724L740.181291,379.518715L740.686394,380.074413L742.221817,381.756344L743.253644,381.926762L743.810971,382.015675L743.767104,381.452558L742.683825,380.378196L742.281199,378.703695L741.660554,377.155174L739.906034,376.477240Z M793.285235,339.204234L792.977809,335.727982L789.076091,335.585822L787.737131,338.178120L789.344180,339.547288L791.231577,340.166644L793.285235,339.204234Z M778.117587,332.188182L777.780441,331.543896L777.299957,331.077348L775.886456,330.325692L775.879835,330.321989L775.386119,330.540450L774.962916,330.925535L774.629464,331.480949L774.408281,332.173370L774.403177,332.188182L774.216005,331.677196L774.208777,331.666088L774.108674,331.754955L773.872547,332.188182L774.309811,332.899123L774.720317,334.672801L774.707720,335.909585L774.861841,336.094733L776.578508,338.161021L778.920260,339.138637L781.650169,339.297871L784.601636,339.075684L784.546175,338.398018L782.951055,337.050107L781.607300,335.916991L781.600376,335.909585L781.490992,335.654080L781.093390,334.965332L780.677792,334.365460L780.513235,334.361757L780.328090,334.184018L779.378331,334.543199L777.148505,334.932006L775.822638,334.787592L775.485506,334.450627L775.086365,334.050714L775.291201,333.080563L776.137369,332.614005L778.117587,332.188182Z M632.950577,51.898082L632.596399,51.330442L632.121847,51.208804L631.598914,51.632692L632.012577,51.640064L632.316613,52.075009L633.213501,52.823262L632.950577,51.898082Z M666.467797,43.888415L664.288813,42.764175L661.936641,42.307106L660.088326,41.820548L655.952083,39.918542L653.536374,39.837448L655.791456,40.198683L668.264931,45.462344L670.035854,46.634494L666.467797,43.888415Z M640.648420,37.706888L638.755426,38.901184L637.938846,39.778471L634.115353,41.654676L633.162388,42.417688L632.265418,42.981651L630.854671,43.799950L629.149849,44.684595L628.381145,46.074221L629.876528,44.695653L638.659298,39.660516L640.597296,38.934358L641.887838,39.218187L644.437521,38.480969L646.759062,38.820090L649.074048,39.155523L651.494251,39.608911L652.463654,39.608911L652.913850,39.218187L640.648420,37.706888Z M555.051640,878.581228L556.059709,877.909009L559.520847,869.362834L559.763152,868.765492L562.928915,860.957560L564.842780,858.560059L566.272135,857.713879L567.769472,857.422417L569.293749,857.676271L570.779519,858.466039L572.600927,860.290022L573.399830,862.311438L573.414597,864.586699L571.880683,870.415834L569.764361,878.491912L574.424972,878.488685L576.553494,878.487211L584.603158,878.487211L592.660953,878.487211L600.710617,878.487211L608.768411,878.487211L616.818075,878.487211L624.875870,878.487211L632.925534,878.487211L640.983328,878.487211L649.032992,878.487211L655.441265,878.487211L657.086722,878.487211L665.144516,878.487211L673.206377,878.487211L681.256040,878.487211L689.313835,878.487211L697.363499,878.487211L705.416976,878.487211L705.421294,878.487211L707.098791,878.486780L723.715740,878.482510L742.022625,878.482510L760.325445,878.482510L778.142587,878.482510L778.636396,878.482510L796.939216,878.482510L815.241783,878.477810L833.552477,878.473109L851.855293,878.473109L870.158110,878.473109L888.460926,878.473109L906.771612,878.468408L925.074427,878.468408L943.385373,878.468408L961.687921,878.463707L979.990466,878.459006L998.380056,878.458932L998.387975,878.373798L998.969105,877.455840L999.431548,876.478658L999.424490,875.353415L998.935851,872.053125L997.050010,871.327257L993.893841,869.349619L992.641663,868.168840L991.887909,867.084298L990.648788,864.352576L990.196902,863.730719L989.521002,863.108861L988.102663,862.153863L987.458792,861.976189L987.196813,862.316731L987.075845,862.883067L986.812775,863.427193L985.654930,863.549344L984.107373,862.683184L976.575716,855.366210L971.574156,851.080699L969.751318,849.831824L967.073986,848.226833L961.588473,845.643649L960.035916,841.898993L960.301154,839.311745L958.512870,837.261939L958.095993,837.262518L958.430029,838.689611L957.231278,838.155795L955.988414,837.563887L953.409421,835.574145L950.941256,833.346786L949.441307,830.582366L948.739441,826.380792L947.364599,824.181894L943.318806,820.261606L941.007512,818.784547L934.818504,816.600413L928.411610,815.282523L924.018879,814.953050L922.826653,814.571749L921.718123,813.979436L920.676894,813.224235L920.426544,812.876250L918.981418,812.376250L916.065116,811.140839L912.903068,808.657579L911.378021,806.671693L910.287215,805.390787L909.665278,804.257958L908.953884,803.236187L907.612848,802.269945L907.334379,801.548038L906.230373,797.075881L905.607714,795.495062L904.846076,794.162282L903.794886,793.344100L902.257948,793.292269L904.719191,797.468307L905.747513,798.882521L903.585605,797.649712L900.050188,793.269008L898.277147,790.130587L897.623403,788.675610L896.103256,780.383174L894.375709,777.000570L893.118117,774.419408L889.081860,767.752237L888.333011,764.761875L887.411403,761.426023L886.533780,757.045658L886.366789,752.743140L885.970727,751.243536L885.400665,749.825385L883.893407,747.151980L882.047210,744.578523L881.236743,743.201065L880.850271,741.868034L880.946262,740.490560L881.560130,737.961469L881.646327,736.532132L881.315079,728.629889L881.452637,724.858612L881.195053,722.824588L881.064024,721.772470L880.849624,720.249661L881.061328,719.597601L881.044599,718.264345L880.315271,717.143440L878.843791,716.798309L878.039057,714.484035L878.391073,711.714211L878.881641,707.923695L878.081098,703.573872L878.489391,700.862443L879.430871,698.730466L880.102090,698.173645L881.805455,698.658615L883.038167,699.232872L883.137103,699.695820L883.965350,699.988402L884.932942,701.112928L885.509875,701.884459L887.003225,702.515674L888.205987,702.726064L889.254736,702.585745L890.726018,702.866225L892.217148,703.495405L893.847896,704.199248L895.000073,703.570116L897.757743,702.170243L898.886494,702.241716L900.586952,704.068728L901.886466,705.825739L902.363694,704.984285L900.852819,703.016405L898.946330,698.943556L897.673452,697.609399L895.963200,696.695785L893.868682,695.992807L891.916139,695.430809L889.500134,695.921228L887.023585,694.378194L886.658149,691.712709L885.375122,689.188077L882.331642,686.032909L880.086321,685.052105L878.386395,683.298706L877.601338,683.439691L878.410585,684.703309L879.071811,685.966199L877.778144,686.178553L874.507321,681.619208L872.230371,679.164649L868.791725,670.350218L866.993512,668.227737L855.864353,659.667792L851.473050,651.880463L848.165521,650.556402L847.996537,648.055582L849.085310,645.249252L848.960675,643.781596L847.778592,642.754600L846.100940,639.862593L844.584168,637.484110L844.073876,636.291150L841.788303,629.140623L840.268118,626.528564L838.113896,624.546335L836.823473,623.701565L835.864150,622.856790L835.167220,621.837867L834.638960,620.478058L834.316992,618.769943L834.023448,615.364774L833.659119,613.697362L831.977432,611.749015L830.605946,610.134286L829.607472,607.664888L829.108528,604.740864L821.567506,592.404428L817.503223,585.774476L816.306071,581.879408L813.709081,578.080625L813.142293,576.846469L812.224668,574.189117L811.676928,573.051302L807.979947,568.522220L806.396803,566.001909L805.259378,561.354095L803.100945,557.499388L801.736685,553.185024L793.969089,539.007296L793.253750,538.039857L790.179346,534.763155L784.370699,526.541665L783.427698,523.961774L782.760653,522.783029L775.980858,513.797837L772.486589,505.961718L769.104928,501.254119L761.374108,485.278066L759.278041,482.338657L758.072074,480.044224L756.301878,477.494042L754.973587,475.092140L751.726198,467.056247L750.434352,464.558040L747.648817,461.059099L746.669211,458.242184L745.764274,456.967168L744.477824,456.196231L741.895094,455.384526L740.734593,454.428273L739.817482,451.778212L740.950377,446.244677L740.756944,443.883791L740.364175,442.686679L740.093506,441.085599L739.973410,439.465999L740.074095,438.261500L740.833925,436.549270L741.566770,436.860583L742.478728,437.705579L743.753485,437.635163L744.261386,436.627098L744.083398,435.174307L743.354920,432.290995L742.881801,431.301487L741.886544,430.615877L740.711734,429.985858L739.661338,429.155720L738.821155,427.917931L737.637084,425.220025L736.868528,423.841441L735.140002,421.573472L734.501677,420.328326L734.379107,418.868255L735.556708,419.031308L734.872762,417.519370L733.302666,415.510885L731.867729,414.202790L730.323507,413.124454L729.418336,411.871963L728.971067,410.311922L728.742674,408.299827L728.606685,407.758827L728.160334,406.965857L728.069192,406.432272L728.221141,406.098783L728.884039,405.491093L729.038210,405.187249L728.939947,401.733851L728.702476,400.777883L727.570680,399.217965L725.952647,398.087870L722.534659,396.427944L719.372291,394.301195L716.600596,391.737287L715.972651,390.477583L715.093044,386.431797L714.457810,384.586786L713.837877,383.682816L712.408799,382.212026L711.825255,381.452558L711.508641,380.544907L711.253511,378.548101L710.961754,377.718270L709.724134,376.599490L706.202730,374.984318L704.835752,373.991517L704.690049,373.006135L704.724226,372.139302L704.863543,371.405833L705.122381,370.827953L702.599999,366.760653L701.171388,364.975240L699.280095,363.989943L700.000105,362.434230L701.406850,361.174862L702.767296,361.026702L703.392687,362.804636L703.968069,362.804636L703.600794,361.986041L703.291098,361.500814L703.238532,360.826686L703.813880,360.826686L705.844688,363.275053L706.716058,363.989943L706.667568,363.367655L706.280538,362.863901L705.397256,361.185974L705.141605,360.826686L704.628830,360.656303L703.141418,359.582154L702.784072,359.296951L702.321690,358.719139L701.986741,358.396900L702.620700,357.448707L703.037433,356.230145L703.238180,354.919004L703.254688,353.678252L702.743118,353.522696L701.672406,354.056031L700.581109,354.407886L700.024583,353.678252L699.562331,352.296777L698.658351,351.167168L697.054949,349.582036L696.452134,348.585786L696.248077,347.919157L696.390053,347.152540L696.761758,345.852638L697.286289,345.852638L698.982584,346.848857L701.119088,347.656210L703.042611,348.807997L704.092614,350.826436L705.154475,350.826436L705.685406,350.826436L705.641099,350.263491L705.200439,349.563518L704.764183,347.796942L704.329785,347.096988L704.285080,346.530362L704.027911,345.434155L702.003479,341.249437L701.386465,340.319938L700.387529,339.434886L698.304321,335.554100L692.392518,330.321989L688.815691,329.348179L687.047857,328.563215L686.271154,327.215465L685.468911,327.452431L684.528510,327.222871L683.902688,326.660081L684.001092,325.912169L683.957480,325.364198L683.791154,324.623703L683.853095,324.053526L682.087535,323.057578L679.249753,319.781038L677.867858,319.081320L676.546699,318.825869L676.239177,318.137266L676.209291,317.130288L675.739742,315.916010L675.056078,315.419938L674.134474,315.027525L673.319424,314.546267L672.260561,312.595353L668.253760,308.519702L666.301034,305.972998L665.961081,305.669472L665.757736,304.866247L665.288054,303.733602L664.675783,302.712017L664.041457,302.201230L663.991474,300.246949L662.351038,298.292722L658.675972,295.365188L658.942517,295.305972L659.163957,295.313374L659.268574,295.202345L659.217684,294.806342L658.464433,294.151278L655.877743,289.702932L655.198301,287.856326L654.900691,287.297544L654.159387,286.868284L653.271476,286.653655L652.496832,286.357616L651.639441,284.729427L650.601756,283.523114L648.576529,281.650782L644.704655,279.482498L643.852652,279.164292L643.416455,277.288389L638.860523,263.803546L637.569491,261.051455L635.677654,259.120631L632.901677,258.624989L629.290225,253.942492L628.957503,253.727979L627.042297,251.741925L626.688602,250.813644L626.480678,248.979318L626.155624,248.017800L625.242573,246.878793L622.658603,244.349393L622.067035,243.365768L621.934821,240.170962L622.107666,237.471793L621.435797,236.510478L621.639605,235.704466L622.438298,235.312556L622.760236,234.262548L623.468140,233.537907L623.834084,232.791093L623.612957,230.820591L623.324136,229.925941L620.447929,220.995083L620.594768,219.372468L620.546876,218.803271L619.351022,217.158551L618.095981,214.364500L617.062943,211.371050L616.571858,209.135322L615.628286,207.354204L613.532351,204.745467L611.138108,202.402898L608.595875,200.910217L604.678101,196.624567L603.623790,195.763790L599.464188,193.144615L598.540774,192.195247L597.748788,190.278101L596.941965,189.000049L595.961577,187.751582L595.080292,187.075651L595.022653,186.399731L595.991207,185.151336L596.312877,183.618591L596.041581,179.862668L596.367436,178.385499L598.238540,174.197999L598.948996,173.326577L599.270232,172.606559L604.919639,163.336037L606.207013,162.176904L604.429575,161.748697L603.260454,160.803705L602.671532,159.452698L602.614177,157.787995L603.170577,156.248849L604.336891,154.576894L605.757142,153.584088L607.081036,154.071261L608.010226,153.495511L608.880451,153.536109L609.538119,154.159839L609.820993,155.307674L610.392522,155.307674L610.205897,154.111859L609.771056,153.451223L609.299913,152.949295L609.036032,152.233319L609.038928,151.266404L609.843388,149.063982L610.326884,149.063982L610.213074,149.838948L610.259871,150.369629L610.500462,151.033905L610.549507,151.591167L609.960075,151.672358L609.665351,151.819979L609.424431,152.008196L609.356955,152.240701L609.533185,152.602377L609.998500,153.037870L610.406204,153.532418L610.767556,154.071261L611.222090,154.241035L611.387733,154.410810L611.251593,154.576894L610.826550,154.742979L611.308958,155.230166L611.409346,155.658305L611.145120,156.082758L610.501306,156.547816L613.940231,159.736923L615.087571,161.505064L615.321607,164.037439L614.919555,164.325386L614.188870,165.167090L613.876310,166.049420L615.567828,166.857932L617.502911,168.729750L617.904664,169.302019L618.257353,170.321046L620.350212,172.706253L620.879645,173.518584L621.246170,174.264464L621.519768,175.242990L621.708786,176.768057L621.632924,177.632162L621.127345,179.485985L621.054504,180.822854L621.292669,182.122831L621.685137,183.463473L621.858671,184.745061L621.487429,185.834625L621.536151,186.399731L624.127862,188.165271L625.353225,191.881258L625.592201,196.129526L625.299507,199.469308L626.343660,199.469308L625.871401,199.022266L625.706964,198.423753L625.828637,197.714415L626.126970,196.938588L626.604975,196.938588L626.706266,197.533387L626.600768,197.843720L626.408711,198.024749L626.237417,198.227945L626.801046,198.346169L627.228515,198.490254L627.590039,198.819066L627.941341,199.469308L627.350073,199.469308L631.355109,202.240326L633.525864,203.274881L633.953618,204.819367L633.959442,208.204107L634.096929,208.266927L635.995159,212.158199L636.565871,212.875144L637.308101,213.167098L638.380697,213.865579L639.073073,215.495406L639.590954,217.369220L640.134324,218.803271L641.234176,219.897317L642.974774,221.124451L644.783499,222.115051L646.039488,222.525343L649.842463,226.247688L650.014217,226.491665L650.277948,227.227298L650.426388,227.493459L650.665242,227.637630L651.333087,227.940761L651.586726,228.110811L653.056658,230.155148L653.302755,230.310417L653.604396,230.750350L654.809617,231.674590L655.090751,232.169989L655.280858,232.706061L656.437168,234.990897L657.311546,235.800595L659.500939,236.968949L660.396857,238.033800L661.146905,237.741704L661.830347,238.004221L662.354403,238.691948L662.594441,239.671790L663.061221,239.605234L664.040050,240.607278L664.697727,241.834900L664.181227,242.433930L663.868746,243.062549L664.121695,244.423350L664.533998,245.732413L664.731838,246.213150L665.216057,248.306254L665.162027,249.090263L664.559071,249.940852L664.605788,250.499290L665.018234,251.664259L665.601078,255.703007L666.238821,257.382204L666.879720,257.888931L667.582538,258.155242L668.180093,258.595398L668.748095,260.422636L669.248956,261.140231L670.313845,262.349805L669.672972,264.425003L669.010735,268.608912L668.390975,270.417960L669.991240,273.155680L670.616751,274.702177L671.238620,278.353984L671.805036,280.030112L672.733129,281.195658L674.069695,281.650782L672.523368,280.329822L673.079339,279.112491L674.403038,279.334495L675.178512,282.327923L674.610864,282.327923L674.555339,281.650782L674.125209,282.327923L675.066270,282.805257L676.002370,283.837641L676.738490,284.969953L677.045384,285.713737L677.448039,286.394621L678.327522,287.275341L683.596773,291.075892L683.625881,291.586596L684.636786,292.685734L686.249338,294.121671L688.303630,297.415559L688.648023,297.537695L689.224320,298.492584L699.879303,304.795918L700.751448,306.283928L702.804874,309.104568L703.504030,310.329841L704.027402,309.933753L704.498129,310.600070L706.007148,315.042333L706.169415,315.331090L706.917496,316.149238L707.193654,316.597188L707.768227,316.597188L707.713117,315.916010L708.199284,315.916010L708.408384,316.471318L708.683408,316.748973L709.013786,316.930375L709.409677,317.219139L709.358981,318.544503L710.433668,320.514082L711.910361,322.380045L713.082904,323.372282L713.250272,324.979139L717.162590,327.367271L717.301526,329.644394L718.550150,329.933204L719.164746,330.192394L719.737081,330.633018L720.013490,331.006995L720.353903,331.784577L720.676899,332.188182L720.896066,332.321483L721.559960,332.643628L724.448890,335.028282L725.220854,335.909585L725.693743,335.346735L726.962610,337.775903L727.795850,337.057513L728.818391,337.124168L729.854596,337.675920L734.623239,341.908609L735.287700,341.841951L735.709831,342.141913L741.429933,348.708002L743.395024,349.967205L750.947229,350.826436L752.142842,351.233833L752.966439,351.652343L753.675488,352.219000L755.283826,353.833808L756.788220,355.730131L757.231440,356.530154L757.813035,356.530154L757.758865,355.852356L757.376315,355.811615L757.275866,355.741243L757.262543,355.574572L757.127834,355.233824L757.448737,355.452347L758.239303,355.852356L757.761760,354.781965L757.462776,354.363441L757.028278,353.989364L756.978466,353.367140L757.560005,353.367140L757.514907,352.804180L754.706021,352.774550L754.422537,352.233815L753.998298,350.804215L754.203612,350.763475L754.929207,350.826436L755.951014,350.563481L757.418959,349.874616L758.320045,348.896881L757.591465,347.774721L758.222151,346.737754L758.583999,344.719406L759.076619,344.167609L759.621966,344.582382L760.285080,344.811990L760.570395,345.293427L761.101237,345.293427L761.785372,344.452765L762.358735,341.697525L762.828435,340.319938L762.484556,340.131077L762.406031,340.097748L762.386188,340.008873L762.198496,339.642262L762.953115,339.520058L763.997489,339.153449L764.578782,339.075684L765.198886,338.775733L765.565275,337.453738L766.523716,336.809411L766.801547,336.031783L766.972809,335.187508L767.183536,334.672801L767.790208,334.365460L769.786081,334.050714L769.149222,333.369385L769.912774,326.955716L768.362768,324.407644L769.075226,321.858660L769.519478,318.662973L769.488628,317.526414L769.572074,317.237649L769.758683,316.974800L769.928855,316.589784L769.879360,315.916010L769.616964,315.416236L768.831055,314.694346L768.027625,313.228377L766.901048,311.977143L766.150314,310.614877L766.616613,309.086059L766.569490,308.519702L766.057670,307.527661L765.632952,306.520828L765.319616,305.336336L765.116024,303.803929L765.277287,302.712017L766.187495,300.465322L766.340496,299.428980L766.486988,299.369761L767.274428,297.848588L767.474483,296.849295L767.866385,292.807861L768.339732,291.612502L769.348048,291.075892L769.121283,290.631805L769.048448,290.591097L768.805078,290.398660L770.204826,288.822180L771.855236,287.452966L772.638183,285.676732L771.391950,282.886663L771.762179,282.938467L771.838525,282.797856L771.812706,282.568440L771.867934,282.327923L772.636898,279.730404L775.336652,274.868668L776.054518,270.669529L777.642253,268.020705L777.919550,266.411491L778.050483,265.956479L778.370513,265.501471L778.676455,264.883702L778.764144,263.929316L778.574815,263.270873L778.356611,262.716011L778.433142,262.216639L779.096799,261.728369L778.524491,260.651969L778.236784,260.241389L777.931560,259.919585L778.292282,258.846917L778.177291,257.522755L777.843044,256.287391L777.544765,255.466296L777.495204,254.896714L779.427419,253.350734L778.866858,247.943838L778.314321,246.094814L778.215305,245.540119L778.336361,244.334601L778.564397,243.846485L780.195015,242.689075L780.876779,242.419139L781.412045,241.916249L781.551346,240.851321L781.284847,239.756834L780.417340,238.632789L780.182912,237.760191L779.885776,232.262415L779.603500,231.208771L780.220327,230.070119L780.580741,228.669021L780.741214,227.216208L780.715868,225.940871L781.083975,225.408566L781.933210,224.765371L782.752311,223.926273L783.068467,222.813658L782.649530,218.130592L782.943001,216.981146L783.434093,215.720852L783.575254,214.419936L782.789251,213.167098L782.739053,212.609060L783.349964,212.195155L783.677312,211.707342L783.874453,211.171494L784.140119,210.628260L784.492968,210.284584L785.282551,209.830050L785.625397,209.445731L787.145117,206.559744L787.964489,205.672919L787.433252,205.225818L787.344818,204.874792L787.662436,204.630922L788.385435,204.486818L788.036540,203.969524L788.177661,203.444846L788.644287,202.971902L789.273945,202.631977L789.270059,202.173820L789.138448,202.040807L788.917605,202.033418L788.639721,201.952133L789.591739,201.560488L789.960582,200.843713L790.127107,199.908965L790.458235,198.848622L790.934267,197.998888L791.429444,197.359750L792.037014,196.849923L792.874002,196.373352L792.089554,195.080426L789.980303,191.320203L789.238125,189.148187L788.805012,182.874325L785.954055,173.532025L782.137333,165.002846L777.869536,155.519160L776.921264,150.593009L776.908775,150.036013L776.809857,149.492352L776.624083,148.958072L776.361198,148.451919L772.547733,139.712355L766.729409,126.341464L763.459459,118.865758L762.483190,117.568381L757.919031,113.816914L757.303893,112.964552L757.036715,111.920189L757.019617,110.327918L757.492622,107.621142L757.390260,106.389546L756.518325,105.270357L756.517875,105.265674L755.128306,103.565849L754.518312,102.025268L753.990154,98.279297L751.614266,91.073423L745.639527,78.381183L740.691536,67.862064L736.968538,59.974167L733.793103,52.339146L729.822961,42.794143L728.789337,40.320648L726.980106,35.992180L726.387027,34.498811L724.169756,31.006322L724.042294,31.093908L713.160012,38.713193L698.933348,44.666165L683.475922,48.853462L680.939732,49.023018L679.142479,48.488549L679.202748,49.111481L677.638472,48.462747L671.969655,47.872989L670.485569,47.404868L667.263347,45.779341L666.259599,46.074221L665.734118,46.074221L665.446503,45.816201L664.573994,45.395996L664.732403,47.039954L663.527972,47.135790L662.565190,47.467530L663.398970,49.111481L655.061545,49.789702L655.967642,49.974001L656.701891,50.062465L657.454603,49.951885L658.224447,50.346285L657.125483,50.434749L657.239367,50.578502L657.351967,51.492625L657.356551,52.259308L656.787147,52.259308L656.398080,51.463137L655.816671,51.076109L655.190015,51.131399L654.669305,51.640064L654.046934,51.020820L654.545488,50.346285L653.982382,50.346285L652.944927,51.208804L649.019473,52.823262L649.083801,53.497795L649.553111,53.497795L649.488771,52.823262L650.014386,52.823262L651.129994,53.497795L651.183448,54.058063L650.478660,53.951169L650.115369,53.947483L649.606533,54.058063L648.570385,53.888508L647.175257,54.220245L644.529160,55.348153L645.227386,53.807416L645.126699,52.421490L644.327086,51.253036L642.951762,50.346285L642.898709,49.789702L643.280995,49.730727L643.389254,49.881852L643.412096,50.121441L643.527381,50.346285L644.564783,49.546427L645.510622,49.295780L645.782188,48.798172L644.808837,47.253742L641.699854,43.589846L640.674078,42.871070L640.620125,42.307106L642.759282,42.307106L642.699970,41.687851L641.385777,41.680479L640.539941,42.122804L639.199823,43.545614L638.353841,43.987937L636.484606,44.327051L635.602406,44.784118L634.531130,46.343300L633.735061,48.167868L632.546658,49.553799L630.247858,49.789702L631.533535,50.283624L633.373880,50.556386L635.128580,50.585874L636.131923,50.346285L635.598104,49.996117L635.571476,49.715983L635.802061,49.443220L636.014515,49.111481L637.491642,47.869303L637.927228,47.253742L638.452733,47.253742L638.222240,48.248960L637.881624,49.008274L637.775141,49.664379L638.221671,50.346285L637.532094,50.858637L634.628018,51.640064L634.686784,52.259308L635.068550,52.392003L635.841572,52.823262L635.905568,53.497795L634.949986,54.375056L633.767312,54.441404L631.124860,53.497795L632.188630,53.497795L632.007671,53.040734L631.760458,52.148728L631.524529,51.640064L630.708490,50.556386L629.438624,49.701239L628.103711,49.347384L627.107044,49.789702L627.159767,50.346285L629.262030,50.346285L629.325957,51.020820L627.595221,51.971802L626.815251,52.259308L626.756667,51.640064L627.337851,51.566344L627.552166,51.120341L626.429645,50.829149L626.058582,50.346285L625.583070,50.346285L624.856445,50.998704L620.996072,52.259308L616.556334,55.348153L616.111697,55.278120L615.780008,55.344467L615.521724,55.259690L615.409942,54.736282L614.934353,54.736282L614.528673,55.613543L613.672920,55.963711L611.320241,55.967397L612.363539,55.348153L612.306093,54.736282L608.576468,54.736282L615.022411,53.011246L619.039628,51.020820L621.468565,50.305740L625.443937,47.028896L627.805617,46.074221L627.741185,45.395996L627.215716,45.395996L626.414746,46.052105L623.403050,47.673945L622.175137,48.713395L615.670535,52.119240L610.087880,53.637862L606.898403,54.058063L603.509291,53.951169L603.360881,53.903252L600.668675,53.084966L598.236062,51.629006L596.043011,49.789702L593.510009,45.989443L591.980463,44.887326L588.415424,41.687851L586.794348,39.807959L585.832637,38.956475L583.409518,38.326153L582.193532,37.563130L581.284195,36.402003L580.954458,34.887000L580.074556,34.772729L579.593069,34.772729L578.493232,33.980204L575.060408,33.313005L573.187582,32.944387L572.167061,32.863290L571.199369,32.745332L571.885823,34.267725L572.791680,33.924911L574.384971,34.179257L576.066683,34.776415L577.286020,35.443608L576.394854,36.143974L576.656290,36.932805L578.106705,38.598924L578.657989,40.147078L578.751454,41.415083L578.621373,44.109576L578.429247,44.061658L578.358721,44.043228L576.519602,44.109576L578.031929,45.436542L578.412611,47.106302L577.698056,48.706023L575.953059,49.789702L574.887766,49.974001L573.683756,49.944514L572.667976,49.583287L571.690150,48.079404L570.852741,48.156810L570.311933,48.801858L570.703769,49.789702L570.254088,49.730727L569.913731,49.771272L569.684510,49.660693L569.589850,49.111481L568.726116,49.715983L568.623050,49.819190L568.757501,50.055093L568.751011,50.187788L568.826315,50.257822L569.178621,50.346285L569.241032,51.020820L568.842756,50.976588L567.620497,51.020820L568.348152,52.259308L568.055214,52.204018L567.317125,52.071323L565.691498,51.271466L564.517079,51.020820L564.855823,51.979173L565.414360,52.878551L566.238428,53.468307L567.367493,53.497795L567.419195,54.058063L566.531740,54.680992L565.501733,54.640446L564.482395,54.172328L563.650556,53.497795L563.588381,52.823262L564.113995,52.823262L564.061983,52.259308L563.496603,51.828048L562.848321,51.651122L562.171942,51.780131L561.477768,52.259308L560.823811,51.816991L560.419571,51.640064L560.631151,50.880752L560.963530,50.346285L561.494328,49.996117L562.257355,49.789702L562.194734,49.111481L561.437886,48.842404L560.927947,48.333738L560.710688,47.810327L560.621783,47.592853L560.433134,46.634494L559.957688,46.634494L559.795132,47.312718L559.382816,47.725549L558.761702,47.909849L557.932488,47.872989L557.875346,47.253742L559.341900,45.860433L559.214061,44.883640L558.623275,44.109576L558.571101,43.545614L559.098354,43.294964L559.342524,42.959535L559.445536,42.450862L559.499943,41.687851L559.276501,41.909014L558.456465,42.307106L558.469571,41.098082L558.572905,40.795825L558.854637,40.394044L558.803025,39.837448L557.644857,39.218187L557.332901,39.631028L556.887194,40.018065L556.715634,40.394044L555.563315,39.837448L555.505948,39.218187L556.606673,39.218187L554.805768,38.613669L553.438571,39.653144L552.357063,40.943268L551.474246,41.068594L551.179647,42.484036L550.546411,42.535641L550.098108,41.676793L550.361168,40.394044L549.835798,40.394044L549.898098,41.068594L549.526485,40.972756L549.420203,40.770023L549.424457,40.545173L549.310429,40.394044L549.044170,40.626267L548.889463,40.847430L548.691780,41.009617L548.334459,41.068594L548.203272,40.460394L548.308411,40.176567L548.514378,40.036496L548.746167,39.837448L547.695450,39.837448L547.638267,39.218187L548.688959,39.218187L548.305161,38.584180L548.153190,38.090243L548.213275,37.522583L548.454468,36.682149L547.908233,37.131855L547.564231,37.740063L547.112921,39.218187L546.281424,38.340898L545.054806,37.518897L543.798960,36.921747L542.913848,36.682149L542.585222,36.306164L542.502716,35.480470L542.300345,34.643713L541.646554,34.267725L540.923719,34.227177L540.387917,34.112906L539.257023,33.648448L539.412715,33.980204L539.520930,34.068672L539.624721,34.109220L539.789427,34.267725L539.681639,34.319331L538.892308,34.710064L538.027402,34.485208L537.472463,33.688996L537.516950,32.409888L538.115103,31.845898L538.969989,31.624725L539.478031,31.304023L538.960591,30.441444L538.909087,29.884820L539.832972,29.464586L539.690399,29.140193L539.122710,28.815801L538.768136,28.362387L538.839381,27.444496L539.170819,26.906293L539.678974,26.858370L540.242513,27.407633L540.717614,27.407633L541.299153,26.803075L542.005445,26.869429L542.874595,27.208572L543.918293,27.407633L543.855289,26.729348L542.201559,26.692485L541.453268,26.106356L541.575840,25.070486L542.523116,23.695458L541.984644,23.013467L541.682194,22.718552L541.307831,22.456813L541.547889,22.349906L541.780516,22.364652L541.914319,22.257744L541.820051,21.782189L542.345050,21.782189L542.936790,22.364652L543.716472,22.548975L544.479198,22.349906L544.970045,21.782189L544.159674,21.737951L543.539068,21.516762L543.060289,21.140740L542.709799,20.598823L542.647602,19.931561L543.222560,19.931561L543.164796,19.312220L542.568291,19.349086L542.121269,19.179504L541.537012,18.744488L541.267447,19.271668L541.021530,19.382265L540.540047,19.312220L540.884385,17.911318L541.384137,17.306712L541.698592,17.395191L541.474432,18.073528L542.556848,18.154634L543.384787,18.656010L543.969076,19.492861L544.334723,20.598823L544.859699,20.598823L544.704905,20.145380L544.420928,19.714055L544.214695,19.312220L544.739645,19.312220L544.686642,18.744488L544.161704,18.744488L544.270648,17.502103L542.896400,15.367526L543.227160,14.361051L541.652609,14.361051L541.955010,13.719556L542.051460,13.214468L541.953626,12.502916L542.264184,12.683570L542.813542,12.878970L543.106053,13.066997L543.117651,12.790487L543.003760,12.174790L542.995220,11.883530L544.102861,12.502916L544.330246,11.595956L544.799972,11.275200L546.144025,11.883530L546.132699,11.496411L547.055099,12.005195L548.298968,13.476230L549.260636,14.936181L553.585764,19.813591L552.659379,19.931561L551.659452,19.931561L552.428136,20.532465L553.133824,21.395108L553.715414,22.467873L554.061437,23.695458L554.636478,23.695458L554.952148,23.662280L555.843390,24.370071L557.992163,25.490733L558.402377,25.866743L558.641012,26.279614L559.021401,26.604013L560.613239,26.780957L561.168429,26.968960L561.561994,27.367084L561.811250,28.026934L561.163542,27.518223L560.946906,27.407633L560.613470,27.451869L560.177992,27.407633L568.225243,32.232950L570.624130,32.745332L569.800520,32.229264L566.514129,29.781604L565.359257,29.265527L564.857261,28.911644L562.740059,26.729348L561.898119,26.349655L561.754385,26.283301L559.839409,25.859370L558.992302,25.490733L556.318488,23.234654L554.954462,21.682654L553.693407,19.094713L550.957456,15.773062L550.468737,14.692857L549.142791,12.281707L546.575024,11.017119L543.607871,10.954442L540.896018,11.883530L534.386901,15.846796L523.113414,19.208996L521.138497,19.275355L520.004514,19.312220L517.408255,18.740802L509.069032,14.980422L505.691535,12.502916L503.399219,11.492724L493.078341,6.939341L485.786681,4.671772L483.363551,4.402609L476.927759,5.398139L475.088759,6.120811L474.396342,6.541138L477.873856,6.659124L481.674163,8.255607L484.979039,10.578380L486.648298,12.639328L486.116063,12.558219L485.669235,12.727812L485.206663,13.066997L486.664674,13.774858L486.413779,14.379485L485.983894,14.803459L485.381469,14.980422L484.639304,14.858760L484.469530,14.504834L484.456145,14.084546L484.218644,13.741677L482.860032,12.890031L482.109696,12.609834L479.297425,12.395999L478.863585,12.502916L478.452397,12.926899L478.515696,13.347193L478.639251,13.811726L478.464359,14.361051L477.330422,15.426513L477.116059,16.023757L477.634352,16.775836L476.944711,18.608085L476.478101,19.319593L475.821174,19.931561L475.240282,19.245862L472.503046,18.073528L472.373217,18.364770L472.370408,18.471681L472.340263,18.552786L472.095166,18.744488L472.106906,19.150011L472.232991,19.231116L472.419137,19.216370L472.615302,19.312220L471.681088,20.244916L470.450599,21.081756L469.183026,21.509389L468.119569,21.221843L468.043441,20.794208L468.146278,20.687299L468.359102,20.690986L468.588263,20.598823L467.619340,20.112201L466.554066,20.219111L465.592584,20.506660L464.875936,20.598823L463.692933,20.093768L462.632818,19.426503L461.746989,19.028355L461.085156,19.312220L459.994659,19.902068L458.688816,21.155486L457.643825,22.740670L457.297639,24.314775L456.772589,24.314775L455.771554,23.050332L454.044828,21.708459L452.469302,21.284513L451.906125,22.740670L451.047176,23.618043L449.023820,24.266852L446.877909,24.384817L445.653723,23.695458L445.128686,23.695458L444.680649,24.137828L444.135864,24.126768L442.516000,23.695458L442.455802,23.020840L443.464545,21.229216L443.807628,21.221843L444.435166,20.831073L447.464250,20.598823L448.759723,20.130634L451.487302,18.073528L452.084425,17.833899L453.118351,17.656941L453.531292,17.454177L456.608942,15.201624L460.499687,13.243963L466.123039,9.804129L472.967441,7.105258L474.114139,6.939341L474.057575,6.319914L451.974350,14.526954L441.433308,17.454177L438.146420,17.874452L435.343539,17.557403L432.893295,16.569383L430.677006,14.980422L427.735749,13.387747L427.384444,14.984108L428.765971,17.656941L431.063031,19.312220L429.486288,19.009922L428.315683,17.793346L427.483609,16.097490L426.947784,14.361051L426.422933,14.361051L427.353403,17.513163L427.384282,21.306632L426.639363,24.959895L425.220464,27.717284L420.901916,31.989660L418.335870,33.526804L415.549552,34.267725L415.603816,34.887000L420.116925,34.654772L421.321025,34.267725L421.375424,34.887000L421.128214,34.920175L420.558638,34.842766L420.324904,34.887000L420.373760,35.443608L421.708477,35.119227L422.795365,34.536815L423.860048,34.271411L425.096017,34.887000L424.521923,37.319847L424.268241,37.920682L423.681782,37.651597L423.269136,37.153972L423.048072,36.416748L423.000116,35.443608L422.518618,35.443608L422.500775,36.166091L422.395560,36.534704L422.259498,36.836966L422.117816,37.360394L421.843308,37.153972L421.783791,37.117111L421.533009,36.682149L419.409271,38.923300L419.161981,39.527818L418.811941,39.601539L418.137067,39.465154L417.667293,38.956475L417.970652,37.920682L414.942425,39.837448L414.086891,39.350886L413.190910,38.687390L412.854252,37.983346L413.719123,37.360394L413.442805,37.275614L413.204843,37.271928L413.080680,37.139228L413.090756,36.682149L413.701343,36.298792L414.482172,35.288790L415.078556,34.887000L412.237572,34.577363L409.277274,33.688996L408.994738,33.604214L406.672330,31.856957L406.670660,29.265527L404.672909,30.441444L404.668779,30.894852L404.798203,31.016497L405.004525,31.016497L405.257060,31.116026L404.572576,31.654215L404.119574,32.266126L403.556516,32.763763L402.511901,32.973876L401.929699,33.467825L400.585822,35.627915L399.615742,36.121858L398.619770,36.822221L395.325097,40.080729L394.528704,41.068594L393.965794,41.068594L393.413825,40.110217L392.815003,40.128648L392.270027,40.770023L391.917752,41.687851L392.526116,41.345048L392.814350,41.278699L393.591228,42.307106L390.314840,45.513948L388.173510,46.582890L385.990316,46.074221L385.000421,48.462747L374.388100,56.822543L373.856449,57.489704L373.375419,58.385397L372.956689,58.613928L369.888508,60.298423L366.069030,63.398349L355.187142,68.979016L345.091436,74.146950L342.841732,74.581918L330.488376,75.142216L316.531814,67.994835L315.062051,67.556194L314.503450,67.158100L314.133892,66.317682L313.402949,63.899647L312.897868,63.390977L311.010937,63.129271L309.456197,62.491591L306.591488,60.917670L292.522790,55.967397L291.175691,55.259690L290.329354,54.935324L289.280526,54.736282L286.543243,54.780513L285.836075,54.397172L284.836372,53.420389L283.570411,52.554186L282.141715,51.916512L280.629948,51.640064L278.899393,51.979173L275.695563,53.667349L274.169217,54.058063L272.670290,53.862706L269.316563,53.018618L267.548654,52.823262L265.286242,53.088652L264.307366,52.823262L263.645809,52.380945L262.984238,51.783817L262.246712,51.253036L261.326906,51.020820L247.532241,51.042935L243.784922,50.504783L241.383059,49.111481L241.104263,48.366912L240.558794,45.395996L238.943771,42.119118L238.665142,41.378222L238.415530,39.601539L237.911741,38.318781L237.061852,37.706888L235.759556,37.920682L227.182816,42.329223L222.700956,43.147523L218.656879,41.068594L217.028576,41.982735L215.286857,41.632560L213.309495,40.836372L208.447125,40.095473L205.941156,39.255048L203.626483,37.987032L201.661975,36.402003L200.787261,35.152403L199.808948,32.443064L199.184020,31.425669L198.935441,30.894852L198.714575,29.534625L198.468071,29.265527L198.064016,29.059095L197.673981,28.557760L197.007192,27.407633L196.787865,26.773584L196.905187,26.441814L196.904319,26.117415L196.279245,25.490733L195.687266,25.122095L195.149265,24.959895L190.343231,25.048368L189.421530,24.934090L189.137426,25.291669L188.436447,25.752465L187.994463,26.169024L186.669039,25.221628L184.711535,24.657610L179.467190,24.104650L174.499017,22.456813L172.301369,21.221843L171.423158,21.022772L170.706602,20.971160L169.905422,20.639374L168.762617,19.621891L167.380654,18.740802L166.040997,18.869832L163.337470,19.931561L159.810405,19.902068L156.582459,18.906698L150.878590,16.219150L149.310242,16.060623L145.507434,16.333437L144.255489,15.905783L142.925427,15.197938L120.542135,12.193224L89.534432,3.613551L81.984816,3.222706L78.591098,3.764726L64.566356,8.679610L52.358130,12.322262L50.146989,12.580339L48.290809,13.074371L46.946098,13.892834L45.995686,13.715870L45.077406,13.299264L44.322835,13.066997L40.851001,13.597893L39.263178,13.586833L36.180139,12.034690L32.257313,11.791359L30.561040,11.326816L29.039202,9.505488L27.974789,6.607505L26.585857,0.689538L26.646967,0.000000L22.142086,3.892673L20.221328,6.987900L17.971733,14.685669L6.249353,25.018656L5.513007,27.893195L5.728996,31.207740L7.041209,38.829084L7.646182,46.253583L10.118687,55.934297L10.782118,57.769323L13.877426,63.391457L15.207726,68.011865L19.079975,75.291397L20.388364,78.942968L20.124052,82.070279L19.189566,85.178933L18.489502,88.802674L18.027242,93.789023L16.130606,100.030518L16.001264,101.833283L15.489415,104.895736L14.199881,108.005142L10.180012,114.964343L8.012318,117.385720L6.110124,120.088222L5.463548,121.352866L4.384812,124.463075L1.588449,130.342045L0.568452,133.527745L0.780484,137.027571L1.605504,138.981403L4.051571,142.992412L11.832587,159.995865L12.319422,162.035152L12.343424,163.835434L11.364625,168.566231L12.133156,172.343277L16.543142,179.178438L17.906557,182.911848L18.043735,185.121087L17.779758,191.697853L18.184480,195.207102L19.155717,198.345948L26.597768,214.296758L28.279324,219.178312L29.151096,224.407737L29.868031,235.624162L30.833310,250.868010L33.086397,287.110594L35.261352,323.028490L35.685148,330.139779L37.566786,362.181188L37.770783,365.702218L38.569112,379.573748L40.307088,410.298286L40.757594,418.384839L41.708356,435.623449L42.676457,453.425065L44.096183,480.007232L45.485279,506.595503L46.843486,533.183881L48.170100,559.756956L49.466301,586.336975L50.731774,612.918268L51.966897,639.492356L53.173019,666.055169L54.352393,692.618813L55.506718,719.183631L56.637398,745.742915L57.745959,772.292306L58.834799,798.848610L59.905048,825.398064L60.958615,851.945716L61.997213,878.491912L69.648643,878.496613L77.308021,878.496613L84.967400,878.496613L92.634909,878.496613L100.286157,878.496613L107.941657,878.501314L115.601036,878.501314L123.252284,878.501314L130.903532,878.501314L138.563101,878.506014L146.230803,878.510715L153.882053,878.510715L161.541433,878.510715L169.192875,878.515416L176.844126,878.515416L184.503507,878.515416L192.162889,878.515416L199.822465,878.520117L207.473913,878.524818L215.133295,878.524818L222.784547,878.524818L230.443930,878.524818L238.103313,878.524818L245.754764,878.529519L253.414148,878.529519L261.073531,878.529519L268.732915,878.529519L276.392298,878.529519L284.043551,878.529519L291.703138,878.534219L299.362727,878.538920L307.022112,878.538920L314.669301,878.538920L322.332958,878.543621L329.992344,878.543621L337.639533,878.543621L345.302984,878.543621L352.962370,878.543621L360.621755,878.543621L368.281352,878.548322L375.932819,878.553023L383.592206,878.553023L391.251593,878.553023L398.902849,878.553023L406.550040,878.553023L414.213708,878.557724L421.873096,878.557724L429.532483,878.557724L437.191871,878.557724L444.843346,878.562424L452.494823,878.567125L460.154212,878.567125L467.801405,878.567125L475.472990,878.567125L483.132379,878.567125L490.783860,878.571826L498.435119,878.571826L506.094509,878.571826L513.753899,878.571826L521.405158,878.571826L529.068613,878.571826L536.732295,878.576527L544.391913,878.581228L552.039108,878.581228L555.051640,878.581228Z "/></g></svg>