<?xml version="1.0" encoding="utf-8"?><!DOCTYPE svg  PUBLIC '-//W3C//DTD SVG 1.1//EN'  'http://www.w3.org/Graphics/SVG/1.1/DTD/svg11.dtd'><svg enable_background="new 0 0 1000 883" height="883px" pretty_print="False" style="stroke-linejoin: round; stroke:#000; fill: none;" version="1.1" viewBox="0 0 1000 883" width="1000px" xmlns="http://www.w3.org/2000/svg" xmlns:xlink="http://www.w3.org/1999/xlink"><defs><style type="text/css"><![CDATA[path { fill-rule: evenodd; }]]></style></defs><metadata><views><view h="883.076696762" padding="0" w="1000"><proj flip="auto" id="robinson" lon0="29.4551782045"/><bbox h="161.88" w="183.52" x="351.06" y="-530.69"/></view></views></metadata><g class="" fill="#000" id="country"><path d="M552.627779,881.076697L556.656025,880.399496L563.544380,863.397940L566.779333,862.137060L571.874327,863.135071L573.796791,867.122643L572.524111,872.883409L570.401701,880.987591L585.174523,880.987591L611.067199,880.983136L636.951940,880.974226L662.852536,880.974226L688.737264,880.965315L714.629919,880.960860L740.522569,880.956405L766.415215,880.951949L792.300150,880.947494L818.192787,880.943039L844.085419,880.938584L869.978047,880.934128L895.870670,880.929673L921.755583,880.925218L947.655903,880.920762L973.540806,880.916307L999.433156,880.907397L999.256378,879.169840L995.613725,871.698291L961.309817,844.640343L945.495260,823.230762L919.978848,813.115941L914.409852,808.913974L910.259076,803.161250L901.901327,794.266835L889.644741,764.613934L885.437733,748.966223L882.131498,718.224984L882.627570,712.421256L884.200904,705.320167L888.245836,703.318624L891.203733,702.609833L903.214008,703.755488L889.967985,692.048993L877.915364,683.944094L870.905603,673.426833L853.773119,654.691336L823.049478,593.984654L807.546984,566.326872L797.040954,543.609549L776.445245,513.163424L751.108631,465.067492L743.384810,456.086875L735.509861,419.503269L731.159217,407.130519L726.861839,399.526310L718.209278,392.863507L714.475373,384.693810L704.838241,368.547891L704.871249,359.978763L702.544460,342.000361L697.930990,335.033760L687.828914,328.085567L673.439947,313.691954L657.775701,292.342906L647.178900,281.127535L643.452826,275.164320L640.812876,268.573831L636.689521,260.937779L625.876457,248.072299L623.290012,242.192555L622.332649,224.881985L618.230678,212.149759L615.098668,206.283010L600.951163,192.853152L597.292522,184.032488L600.147534,173.231336L605.603658,163.930285L603.746708,157.203526L610.533569,152.787743L618.237755,168.760534L626.175182,193.946963L630.240810,200.483686L634.120972,205.037697L639.571264,215.401461L657.136700,234.827081L662.086563,243.465482L669.324691,261.743637L669.808416,269.228395L674.329336,280.900397L688.747187,297.127163L703.592596,309.378860L718.054669,328.352965L741.839959,348.325609L755.944372,354.218875L762.696520,342.838352L768.072001,331.240927L769.530084,322.982881L769.131946,300.094105L779.289212,263.555743L784.427572,216.824982L791.792667,202.111339L795.740407,197.993397L792.346502,190.109848L784.161485,167.516259L778.377568,152.054787L770.664741,133.007541L758.491405,109.861268L757.035478,104.286834L754.106402,96.205492L745.194198,75.164137L738.115370,59.972674L729.786895,40.593274L726.500304,32.961929L725.119937,30.206585L723.603231,31.905941L703.606448,43.077848L685.855203,47.669828L663.598751,47.621024L649.845160,51.840289L646.583987,48.051382L644.148943,44.240267L627.038877,49.440058L623.350733,48.823362L610.620982,52.794169L604.399538,53.273327L598.689770,50.367320L581.232902,36.254089L575.279527,32.722336L572.640352,32.828822L575.088985,37.119270L578.487690,41.267660L573.374553,48.703572L565.514474,51.086058L562.223005,45.620080L557.250481,39.484083L548.879830,37.696056L538.346626,32.935307L545.399209,21.926935L546.071960,15.679110L561.410225,28.218804L566.059471,28.529396L551.455183,13.895216L545.321947,10.322888L541.622887,11.694146L524.297604,18.106398L517.950854,17.880090L491.419329,6.124662L482.739903,4.695618L480.454690,5.765184L479.527904,13.398204L477.656950,17.467410L465.494442,19.548544L454.933929,22.823257L444.234671,21.629639L468.110140,12.053598L470.772848,8.010783L444.395910,16.539983L430.974465,17.937776L427.460862,22.925313L425.405855,27.078480L421.875238,30.730148L419.286261,36.041120L411.976754,36.289583L405.877795,35.402214L396.956686,38.849623L372.560807,58.473082L360.622827,66.113057L349.536832,71.610215L340.600471,74.551846L333.848730,74.942292L325.984996,72.537512L312.546455,64.728801L289.210252,54.937070L246.656532,50.669013L235.333351,41.800070L219.178235,42.097331L212.853121,40.193966L189.155378,25.183836L151.562764,16.779606L127.289808,12.985506L83.098092,3.097898L44.493659,12.923379L32.282031,11.015176L25.689648,0.000000L22.917565,2.552003L19.101563,7.979718L16.795646,12.812438L10.233645,20.675624L4.894269,29.097335L6.340422,41.422947L8.594164,53.956571L13.474687,66.201791L17.869302,79.822941L17.531598,88.732769L15.332978,99.684679L12.450244,108.818248L2.059440,127.630750L0.566844,132.132830L1.643187,138.455970L10.266176,160.788922L11.285571,167.822880L16.982797,189.531864L22.024870,207.199226L27.231482,221.086891L28.143786,224.908680L29.447711,245.374927L30.733328,265.848783L32.000635,286.329660L33.249630,306.816967L34.480310,327.310116L35.692672,347.808518L36.886714,368.311584L38.062433,388.818724L39.219827,409.329351L40.359138,429.847334L41.479869,450.363166L42.582267,470.880715L43.666330,491.399394L44.732054,511.918614L45.779437,532.437785L46.808476,552.956318L47.819170,573.473624L48.811515,593.989115L49.785455,614.502527L50.741431,635.012889L51.680132,655.520697L52.602343,676.026109L53.508847,696.529282L54.400427,717.030374L55.277866,737.529543L56.142133,758.031403L56.993638,778.527199L57.833351,799.021545L58.662056,819.514600L59.480537,840.006521L60.289577,860.497465L61.089959,880.987591L91.236865,880.992047L121.383776,880.996502L151.530873,881.005413L181.677798,881.009868L211.824728,881.014323L241.971662,881.018778L272.118603,881.023234L302.258036,881.032144L332.412696,881.036599L362.559655,881.041055L392.698913,881.045510L422.846087,881.054420L453.000563,881.054420L483.140047,881.063331L513.287248,881.072241L543.434244,881.076697L552.627779,881.076697Z "/></g></svg>