<?xml version="1.0" encoding="utf-8"?><!DOCTYPE svg  PUBLIC '-//W3C//DTD SVG 1.1//EN'  'http://www.w3.org/Graphics/SVG/1.1/DTD/svg11.dtd'><svg enable_background="new 0 0 1000 927" height="927px" pretty_print="False" style="stroke-linejoin: round; stroke:#000; fill: none;" version="1.1" viewBox="0 0 1000 927" width="1000px" xmlns="http://www.w3.org/2000/svg" xmlns:xlink="http://www.w3.org/1999/xlink"><defs><style type="text/css"><![CDATA[path { fill-rule: evenodd; }]]></style></defs><metadata><views><view h="927.232871362" padding="0" w="1000"><proj flip="auto" id="robinson" lon0="-12.5859741211"/><bbox h="114.92" w="124.07" x="-248.4" y="-463.8"/></view></views></metadata><g class="" fill="#000" id="country"><path d="M6.299057,925.232871L4.756639,912.724864L7.657743,897.989438L12.387450,879.846953L17.869455,854.633249L32.855273,854.613479L59.653900,854.580528L86.452668,854.540987L113.251408,854.501447L140.049961,854.468496L166.854355,854.428956L193.647308,854.389415L220.451494,854.356464L247.250102,854.316924L274.048681,854.277383L300.852794,854.244432L327.651321,854.204892L354.449821,854.165351L381.248154,854.132400L408.052307,854.092860L434.850726,854.053319L461.648986,854.020368L479.322319,854.000598L478.638869,836.068833L478.088611,821.860392L477.358958,802.728892L476.635558,783.702565L475.920664,764.675912L475.242115,746.802238L474.571599,728.947950L473.945774,712.371876L473.379599,697.153161L472.047720,688.413271L466.742986,671.058333L465.696667,662.430095L467.432616,653.346890L471.388869,644.764495L482.142011,629.082439L498.185190,617.025546L516.698102,603.096087L530.803147,592.482225L537.966087,589.851790L559.757003,586.179700L577.007165,578.149766L593.795098,570.324043L600.857907,565.985872L601.987249,551.283173L602.323870,534.885309L602.704654,516.501866L603.089313,498.110767L603.477694,479.725149L603.870059,461.338366L604.266676,442.943769L604.667384,424.554499L605.072595,406.157310L605.482143,387.765344L605.896295,369.371952L606.315133,350.976568L606.738961,332.573646L607.167437,314.176094L607.600868,295.770910L608.038942,277.371485L608.481814,258.971414L608.929644,240.564293L609.325209,224.466919L626.651814,224.466919L648.218208,224.466919L669.790256,224.466919L691.362303,224.466919L712.934501,224.460319L734.500893,224.460319L756.072938,224.460319L777.644983,224.460319L799.217028,224.460319L820.789073,224.460319L842.355465,224.460319L863.927510,224.460319L885.499686,224.453719L907.071728,224.453719L928.643770,224.453719L950.210160,224.453719L971.776549,224.453719L995.327159,224.453719L995.614454,209.049280L996.015186,186.919545L996.550278,156.573629L997.085896,126.104039L997.566209,99.319058L998.053253,72.569681L998.464534,50.052253L999.010357,22.451737L999.460179,0.000000L983.957695,0.000000L983.961840,0.072547L984.290559,5.751134L987.446777,16.963826L988.432402,26.462249L986.629027,32.405633L984.895596,39.919256L985.429424,47.043962L987.866855,54.828669L990.075071,62.877585L989.968867,68.287687L985.153579,72.378342L974.235029,74.621636L961.169964,76.469072L951.642464,76.469072L937.350128,75.149473L928.437521,75.413392L920.657828,75.413392L913.696053,76.732992L905.012562,81.879503L895.313173,89.929396L883.127374,100.750961L875.820376,107.481662L866.255976,108.933402L856.728196,108.933402L847.538922,103.522407L841.615500,100.750961L837.667153,101.014907L831.090085,104.842153L823.359799,107.481662L816.195828,107.481662L804.365754,102.070694L790.225207,94.020423L781.968589,89.929396L770.107001,88.609723L758.215491,85.970399L749.833023,87.290058L739.125040,87.290058L724.670315,92.700730L712.617458,96.659830L699.431691,100.750961L684.443366,104.446228L687.756999,116.588147L692.728466,123.187212L692.527577,131.370226L689.927133,138.233537L682.593850,144.964972L674.197828,153.544396L669.295622,160.276047L664.266056,169.647689L660.569854,175.059542L654.196602,183.903381L648.451262,194.991287L646.583143,201.855272L644.192281,209.775281L639.890125,212.151287L625.256564,214.263293L615.924432,217.035300L607.770502,219.675308L604.641935,224.341519L604.137296,225.087320L601.578701,234.591318L601.412905,241.323288L598.967079,246.735238L595.181734,260.198982L590.249396,272.474534L586.347681,288.709526L582.565256,302.172244L577.410983,323.823732L572.288976,344.008820L566.058477,363.011773L561.128304,375.151381L557.457690,381.880672L549.161498,390.061118L542.065619,395.338676L533.803701,402.199329L524.341593,408.927859L511.399067,416.975468L500.739619,423.835523L496.401505,426.922487L491.284250,430.563474L482.945244,439.929547L475.646158,453.516362L470.738586,464.332565L462.211052,481.875033L456.198528,491.371265L452.560854,496.646818L443.116244,502.054164L432.571287,506.142582L420.801466,511.549762L411.364612,516.956849L398.455871,522.363844L390.203787,527.770749L384.154765,535.815004L379.275293,545.309615L373.156348,558.891730L368.140537,573.660049L365.591727,583.153661L357.832732,615.588453L355.063306,634.441688L352.456443,646.570633L348.637095,661.467731L345.785351,684.405798L345.358465,703.256509L342.774061,714.065751L341.394158,722.238477L335.373199,731.597450L330.550263,738.320020L322.194278,747.810608L315.057448,753.214922L312.604661,758.619202L305.436954,765.334964L298.187013,776.149942L292.214362,782.872175L293.232470,788.276293L294.221674,797.766390L290.466889,807.256417L286.750628,818.064426L277.087605,831.508436L266.438707,838.230405L251.181215,839.548436L230.179646,839.548436L213.841551,838.230405L193.981403,838.230405L176.534534,835.594341L160.227354,832.826471L140.406321,831.508436L126.366810,831.508436L108.793688,834.144505L63.210773,834.144505L45.653756,835.594341L19.789932,840.998269L13.697436,842.283347L13.685854,842.289938L12.769110,848.174930L0.539821,918.385755L6.299057,925.232871Z "/></g></svg>