<?xml version="1.0" encoding="utf-8"?><!DOCTYPE svg  PUBLIC '-//W3C//DTD SVG 1.1//EN'  'http://www.w3.org/Graphics/SVG/1.1/DTD/svg11.dtd'><svg enable_background="new 0 0 1000 932" height="932px" pretty_print="False" style="stroke-linejoin: round; stroke:#000; fill: none;" version="1.1" viewBox="0 0 1000 932" width="1000px" xmlns="http://www.w3.org/2000/svg" xmlns:xlink="http://www.w3.org/1999/xlink"><defs><style type="text/css"><![CDATA[path { fill-rule: evenodd; }]]></style></defs><metadata><views><view h="932.475365841" padding="0" w="1000"><proj flip="auto" id="robinson" lon0="-12.5892274199"/><bbox h="115.66" w="124.17" x="-248.49" y="-463.89"/></view></views></metadata><g class="" fill="#000" id="country"><path d="M5.790859,930.475366L3.321997,915.932880L3.862592,911.918716L6.912250,899.653230L7.798516,895.346376L13.154108,879.903025L15.731600,866.968506L18.060303,855.267476L19.199373,854.152427L32.747083,854.152427L37.580810,854.152427L51.219215,854.145458L72.412780,854.145458L99.906483,854.145458L132.451495,854.131519L168.761928,854.124550L207.594660,854.124550L247.682908,854.110612L287.770832,854.110612L326.597673,854.103643L330.204643,854.102951L362.914110,854.096674L395.446840,854.089705L422.946699,854.082736L444.149299,854.082736L457.784499,854.082736L462.615342,854.075767L479.720441,854.075767L478.876774,832.241610L478.418669,820.561372L476.245429,764.799850L475.011107,731.077316L473.786926,697.353251L472.452103,688.619624L467.152128,671.277443L466.110138,662.658426L467.841383,653.579202L471.797672,645.008681L482.080560,629.951519L482.080709,629.944548L484.369399,626.870317L496.212216,618.229594L511.009020,607.462434L523.741812,598.169480L531.162066,592.763017L538.321697,590.138189L557.986226,587.136871L562.204839,585.794810L587.988578,572.726035L599.907354,569.267911L601.508085,567.106567L602.070597,562.494495L602.292674,551.600288L602.501580,541.406490L602.711801,531.201927L602.923144,520.997050L603.135484,510.798823L603.349134,500.593290L603.563895,490.390903L603.779715,480.195139L603.996910,469.992043L604.215353,459.788579L604.435066,449.584737L604.655995,439.383998L604.878311,429.179377L605.101808,418.981328L605.326889,408.772403L605.553269,398.566545L605.781047,388.360256L606.010087,378.160505L606.240722,367.953330L606.472855,357.741706L606.706269,347.540572L606.941079,337.342503L607.177608,327.133574L607.415779,316.917308L607.655266,306.707694L607.896067,296.504765L608.138511,286.294599L608.382433,276.084206L608.627665,265.880599L608.874542,255.669853L609.122898,245.458980L609.372561,235.254993L609.624044,225.036987L621.275573,225.030008L632.932908,225.030008L644.572309,225.030008L656.229644,225.030008L667.881001,225.030008L679.538336,225.030008L691.189693,225.030008L702.841050,225.030008L714.498385,225.030008L726.143763,225.030008L737.801098,225.030008L749.452455,225.030008L761.103812,225.030008L772.755169,225.030008L784.406526,225.030008L796.063861,225.030008L807.715218,225.030008L819.360596,225.030008L831.017931,225.030008L842.669288,225.030008L854.326623,225.030008L865.972002,225.030008L877.623359,225.030008L889.280694,225.030008L900.932051,225.030008L912.583408,225.030008L924.234765,225.030008L935.886121,225.030008L947.543456,225.030008L959.188835,225.030008L970.840192,225.030008L982.503631,225.023028L992.316715,225.023028L994.591519,224.346014L995.415255,222.573214L995.524637,216.459144L995.552076,214.595609L995.646507,209.340022L995.784956,201.167007L995.965376,190.558190L996.182217,178.023157L996.421618,164.029653L996.681215,149.059404L996.958256,133.601114L997.237618,118.150423L997.504275,103.181956L997.760542,89.184191L997.984615,76.645477L998.172383,66.054041L998.331947,57.877086L998.429006,52.616660L998.453499,50.760894L998.703574,38.064032L998.955163,25.375046L999.208261,12.693998L999.463217,0.003513L991.379476,0.003513L984.010128,0.000026L983.952920,0.000000L983.952920,0.000000L983.952811,0.000179L983.784168,0.279003L984.294189,6.493348L987.442803,17.695150L988.430726,27.188697L986.625969,33.125053L984.896929,40.634727L985.431037,47.754031L987.865706,55.532900L990.073072,63.577199L989.967009,68.980938L985.153702,73.069589L974.241763,75.312798L961.190735,77.154827L951.669815,77.154827L937.388687,75.836100L928.482525,76.101241L920.708556,76.101241L913.753462,77.419969L905.077782,82.562384L895.385096,90.607658L883.209793,101.419984L875.908587,108.143449L866.353764,109.594928L856.829909,109.594928L847.648184,104.186809L841.732445,101.419984L837.784094,101.681663L831.215536,105.505683L823.491547,108.143449L816.333194,108.143449L804.507669,102.735356L790.378146,94.693193L782.130145,90.607658L770.276402,89.288857L758.395109,86.651276L750.021421,87.970063L739.317844,87.970063L724.874523,93.374371L712.832010,97.330857L699.657317,101.419984L684.683451,105.107926L687.990458,117.243222L692.958966,123.837929L692.758200,132.016935L690.161390,138.870129L682.833841,145.597816L674.444874,154.171574L669.545124,160.895986L664.517393,170.262136L660.828375,175.671113L654.459703,184.507016L648.716524,195.583410L646.852284,202.444257L644.460661,210.359033L640.165537,212.732074L625.542298,214.839892L616.215444,217.610767L608.071651,220.249030L604.940309,224.911355L604.940235,224.911465L604.437582,225.658165L601.883030,235.157280L601.717519,241.878520L599.270345,247.287592L595.492941,260.740347L590.560666,273.006392L586.660923,289.232751L582.886524,302.680989L577.732542,324.314366L572.613414,344.484335L566.392158,363.474030L561.464722,375.603521L557.799011,382.325573L549.507382,390.502008L542.418296,395.776078L534.158328,402.630104L524.707012,409.351397L511.771859,417.394385L501.123596,424.251301L496.786235,427.334411L496.786139,427.334480L491.673677,430.972015L483.345032,440.329109L476.049849,453.909037L471.148076,464.712511L462.625264,482.245479L456.619181,491.733342L452.980730,497.001922L443.546821,502.406392L433.010615,506.492806L421.250140,511.893623L411.815551,517.301320L398.916989,522.698467L390.672448,528.102496L384.629192,536.142132L379.752743,545.628376L373.637300,559.200121L368.630045,573.953104L366.079931,583.441836L358.330979,615.852407L355.563238,634.688304L352.955113,646.810629L349.140807,661.693004L346.288032,684.615217L345.861500,703.452078L343.281251,714.252088L341.905033,722.417322L335.887448,731.770809L331.067168,738.486149L322.716190,747.968375L315.588855,753.369816L313.134699,758.771222L305.976519,765.482860L298.727913,776.285501L292.764295,783.003989L293.781727,788.405233L294.764948,797.886970L291.017801,807.368636L287.300997,818.170898L277.648995,831.600451L267.008929,838.318676L251.759725,839.635836L230.778317,839.635836L214.449218,838.318676L194.608478,838.318676L177.171334,835.684354L160.875829,832.917615L141.071489,831.600451L127.045132,831.600451L109.484846,834.234778L63.935323,834.234778L46.396480,835.684354L20.549743,841.085408L13.090538,842.404530L12.774778,847.818202L12.466716,849.810149L11.252715,854.683007L5.417571,894.872920L3.085257,901.830967L2.544489,904.190558L2.379155,910.638280L2.111624,912.542417L0.964460,915.741588L0.536783,917.585365L0.969152,920.943675L4.537506,927.029248L5.790859,930.475366Z "/></g></svg>