<?xml version="1.0" encoding="utf-8"?><!DOCTYPE svg  PUBLIC '-//W3C//DTD SVG 1.1//EN'  'http://www.w3.org/Graphics/SVG/1.1/DTD/svg11.dtd'><svg enable_background="new 0 0 1000 944" height="944px" pretty_print="False" style="stroke-linejoin: round; stroke:#000; fill: none;" version="1.1" viewBox="0 0 1000 944" width="1000px" xmlns="http://www.w3.org/2000/svg" xmlns:xlink="http://www.w3.org/1999/xlink"><defs><style type="text/css"><![CDATA[path { fill-rule: evenodd; }]]></style></defs><metadata><views><view h="944.954455693" padding="0" w="1000"><proj flip="auto" id="robinson" lon0="38.1057453636"/><bbox h="94.39" w="99.99" x="534.08" y="-301.92"/></view></views></metadata><g class="" fill="#000" id="country"><path d="M539.919428,386.827797L537.787446,370.221199L532.201055,362.981371L523.952547,356.780476L511.272927,354.449005L518.198372,364.691116L515.296860,368.323301L510.444506,371.260134L510.051437,378.720835L521.323693,380.610551L529.736938,390.100031L528.798806,391.899759L523.096586,393.617681L511.562081,386.827797L516.327780,400.849311L534.063335,404.456943L548.740602,403.246218L564.855735,406.731141L578.643614,406.305752L579.568114,398.043373L555.793682,385.600709L553.769800,391.899759L550.604213,394.869309L546.417490,395.744631L539.919428,386.827797Z M527.119350,322.111073L522.784330,318.413439L521.660983,322.356491L515.708196,328.770086L518.267588,332.124135L532.874182,338.308673L527.119350,322.111073Z M936.119983,942.954456L941.032091,942.324612L950.118077,935.200011L957.617934,910.660594L963.219785,901.703692L965.784320,901.957266L983.479282,895.086213L999.470313,887.331732L993.691028,867.896423L980.838080,855.348519L977.150197,870.620313L951.293411,861.254379L941.133601,835.397803L908.598223,801.410301L890.523300,802.899047L881.417363,771.823456L865.137439,740.068776L776.039126,673.826752L747.849385,630.128486L700.429981,567.067137L644.173078,546.510038L618.879309,523.056987L605.564760,514.582116L589.237297,509.493912L569.926706,507.808750L554.781433,501.093277L536.083606,477.999870L531.704794,467.087110L528.280515,447.412995L518.615884,437.596363L501.203940,424.662927L494.310059,434.168719L491.699815,450.038942L496.004393,462.358785L496.920256,469.737588L492.574722,482.540029L482.373710,467.659744L467.307828,427.640646L459.052288,415.917914L448.393325,414.306344L433.935835,371.660984L414.754570,349.139793L401.259244,303.467474L384.896512,213.759295L365.926219,154.049951L344.916126,96.820133L295.526040,0.000000L283.504604,11.149328L269.908687,30.347900L266.633455,37.979930L265.184217,42.519894L263.768069,48.205088L260.226420,53.857573L252.254010,61.661460L249.145164,65.064420L247.423095,70.414275L242.579053,73.899049L237.116314,74.087194L232.427230,76.484001L225.384252,80.181469L214.536478,78.283653L203.740936,81.653913L199.946713,85.899465L191.447533,89.596945L182.780073,90.390431L179.796090,91.650194L171.887552,97.932653L162.239350,106.685580L150.740050,112.256381L146.672001,114.080595L141.539247,120.109509L134.737908,150.172430L129.023557,158.042002L118.750839,158.819144L105.373245,158.851866L93.923311,161.445065L77.978216,158.115626L70.324790,158.516468L68.639119,164.938116L67.101462,190.739330L68.083727,201.791191L62.459202,214.896388L56.264092,231.265653L60.210618,258.932327L62.759850,286.296395L51.888650,327.493912L50.523803,336.934331L39.047508,369.615835L32.982583,381.764014L19.207110,442.791000L13.569859,461.548916L0.529687,481.329321L5.068514,513.494124L9.854445,547.606201L14.363533,579.795637L21.053117,627.960741L23.693157,627.731696L43.402478,619.461534L62.826110,618.209965L81.953813,623.985175L94.300690,625.424887L99.894360,622.529103L104.851741,615.036051L109.213660,602.962068L116.634257,596.270647L127.145483,594.969990L141.868450,608.590053L165.897915,644.787325L171.786164,646.889622L175.330529,646.014347L185.438166,616.950216L193.267229,594.389194L207.840598,552.293521L216.130823,528.202436L225.129554,535.196637L234.335497,547.499856L244.466576,553.258798L255.187318,556.817231L260.345713,557.267147L267.074868,562.150784L291.187536,592.180531L299.482880,599.182807L310.209151,599.886306L354.882057,590.184553L381.028702,572.670626L384.839193,565.741931L392.225315,565.741931L401.551054,573.505014L405.278518,580.940873L411.498858,590.675367L422.132974,592.196891L447.618698,585.235506L459.999824,581.071757L470.865228,584.532004L484.638366,587.386910L493.171072,587.386910L513.988428,597.162291L538.330677,594.070165L549.865407,594.585519L561.911168,598.757435L581.923787,614.348915L607.899803,633.261489L644.459983,646.783280L652.127504,652.280331L670.470081,673.818572L699.267444,715.193343L736.291032,754.784579L776.110608,786.040209L797.592779,807.700660L812.588057,834.179000L827.184529,858.227831L841.482513,868.567170L854.703757,876.804278L868.781812,895.143472L878.946958,910.513357L892.662454,927.903630L896.894461,923.216603L902.797268,918.701349L907.168919,919.993759L936.119983,942.954456Z "/></g></svg>