<?xml version="1.0" encoding="utf-8"?><!DOCTYPE svg  PUBLIC '-//W3C//DTD SVG 1.1//EN'  'http://www.w3.org/Graphics/SVG/1.1/DTD/svg11.dtd'><svg enable_background="new 0 0 1000 946" height="946px" pretty_print="False" style="stroke-linejoin: round; stroke:#000; fill: none;" version="1.1" viewBox="0 0 1000 946" width="1000px" xmlns="http://www.w3.org/2000/svg" xmlns:xlink="http://www.w3.org/1999/xlink"><defs><style type="text/css"><![CDATA[path { fill-rule: evenodd; }]]></style></defs><metadata><views><view h="946.445958192" padding="0" w="1000"><proj flip="auto" id="robinson" lon0="38.084178272"/><bbox h="94.66" w="100.12" x="534.05" y="-301.92"/></view></views></metadata><g class="" fill="#000" id="country"><path d="M521.117846,355.075847L515.385025,353.666540L510.020814,353.183154L510.033403,353.196771L511.948918,356.001768L513.635678,356.893649L518.718261,356.519195L518.730501,356.526003L520.243461,357.506391L522.026565,359.814386L523.137599,362.469602L523.137947,362.476410L522.659236,364.512075L522.468252,364.498458L520.868330,364.375910L517.047045,364.770788L514.248426,366.329876L514.248773,366.336684L514.444079,366.901768L515.395356,369.699956L517.291312,372.600266L516.788251,373.934681L514.840537,373.757667L513.903729,373.110884L510.303045,370.598643L508.413903,370.870973L507.224480,372.743239L507.189805,376.045235L508.339339,379.013627L510.079047,379.544670L514.839738,378.428119L519.819316,379.517437L524.321949,382.458595L528.111956,386.829481L531.057129,392.139901L525.028814,394.318534L523.190070,394.420658L523.178517,394.427466L521.499097,393.678561L519.399993,392.391805L517.429941,391.540777L516.080237,392.139901L515.009609,392.139901L514.997713,392.139901L514.562571,390.587625L514.284601,390.029350L513.928039,389.328102L512.985366,388.327292L511.769572,387.571578L512.579141,386.407370L512.550536,386.312055L512.376148,385.685698L511.334930,385.324861L509.667544,385.284012L514.184726,397.967744L515.208985,399.411087L516.539940,401.276541L516.563734,401.276541L519.807223,400.479978L521.828461,400.929321L522.598410,401.099527L528.640191,403.666226L532.259886,404.435555L534.722502,404.197268L536.340271,402.774349L537.522575,400.030636L537.535158,400.044252L538.171753,400.636568L538.533919,400.976979L539.159413,401.821198L540.090319,403.060295L540.703793,403.666226L541.509125,403.829624L542.974972,404.115569L550.134764,402.420322L553.505301,402.964980L558.736118,405.715501L561.924215,406.886514L564.944980,406.627802L571.937295,404.680651L573.310801,405.021062L574.347054,405.279775L577.454420,406.968213L577.503387,406.995446L579.508375,405.708693L580.257601,402.651802L578.753150,395.986550L577.981175,395.544015L575.823806,395.462316L573.917897,394.944891L570.756160,392.657326L568.659952,392.139901L567.372326,391.615667L566.867750,390.349336L566.576682,388.837909L565.941196,387.571578L564.958793,386.734165L564.407892,386.427795L563.832160,386.101000L562.487850,385.631232L560.828621,385.284012L557.830799,385.045724L554.559873,385.284012L551.990731,386.223548L550.990841,388.082196L551.003083,388.089004L552.360146,389.981692L555.372302,390.968885L557.388490,391.785873L556.181192,392.139901L555.388406,393.161135L553.389259,397.845195L544.695255,395.067439L543.261516,394.944891L542.657983,393.596862L539.818471,388.735786L539.629497,388.293251L538.744599,386.325672L538.198307,383.765776L538.363758,370.203765L538.330578,370.019943L537.887226,367.861730L536.304237,366.908576L536.303889,366.901768L534.782830,367.391962L534.957099,368.474472L535.728455,369.604640L536.009521,370.217382L534.845462,370.945864L533.496022,371.538181L532.113223,371.476907L530.942846,370.217382L531.146335,368.379157L532.574397,366.534123L533.175885,364.110388L533.187429,364.103580L532.449931,362.939370L530.948662,360.563293L529.923200,359.814386L526.563872,357.383842L521.117846,355.075847Z M533.129590,337.796512L532.336536,336.257847L530.777759,335.086828L529.685509,333.970275L528.385691,333.207751L527.420801,332.254596L527.753186,329.721927L529.802536,327.516054L532.179803,326.590131L533.099177,325.065083L531.853706,323.063458L529.146753,321.763082L527.676865,321.388628L526.571115,320.700995L522.718800,317.494309L521.696917,318.188750L521.519145,320.026978L521.669928,321.783506L522.052059,323.417487L522.624235,324.819986L521.376412,325.745908L518.110599,326.045471L515.587148,327.134791L514.555279,329.708310L514.662593,332.472460L516.211250,334.140481L522.526765,334.868964L526.205731,337.033988L530.567886,338.613502L533.129590,337.796512Z M936.503046,944.445958L938.319015,941.298954L939.001028,941.082515L943.576818,939.630350L945.449779,936.405534L946.633194,934.901196L950.979897,933.976114L952.771132,932.878120L953.438759,928.373749L951.861149,923.125852L951.143271,918.145968L957.268383,911.385079L960.309981,902.333089L962.667674,899.920952L963.979421,900.102511L965.865886,901.719247L967.360572,901.554980L998.615395,886.242705L999.471149,885.003720L995.224267,877.106889L994.736782,874.594878L994.333047,869.536817L993.237789,867.344762L991.677773,866.024083L989.785463,864.751057L988.197231,863.328263L987.478921,861.585511L986.570111,859.856373L984.470826,857.643893L980.140456,854.056271L979.437979,855.227184L979.153461,856.684017L979.424959,858.304233L980.390847,859.972103L979.031703,860.863902L978.784256,861.789740L978.891334,862.912998L978.573857,864.444714L977.313121,866.827383L975.685448,869.005822L975.235188,869.087514L972.585066,871.088954L972.748557,871.286375L971.329602,872.184981L970.210746,872.552593L968.808690,872.430056L970.014186,869.856775L970.670962,869.005822L965.390050,868.631403L961.321095,867.263071L958.328074,864.505983L956.155627,859.972103L954.105904,860.911556L952.233285,862.089275L950.350537,862.742808L948.248617,862.157352L947.102084,860.441829L946.440128,857.759623L945.858460,853.021511L945.152918,849.883190L942.483063,843.776737L940.676363,834.409415L939.408519,831.829315L937.647932,830.011671L935.571144,828.336988L933.119657,827.111610L930.175296,826.641881L928.230956,825.273542L922.690066,815.736006L915.002985,808.771759L913.751487,806.593302L913.342747,804.864153L912.504677,803.972347L911.488000,803.366463L910.581253,802.542734L909.975400,800.949737L909.865843,799.520123L909.259305,798.464932L907.292928,797.974779L906.485918,800.561699L905.565910,802.746964L903.936763,804.265077L901.156611,804.830114L894.457646,804.183385L891.310280,803.148617L886.669141,800.126007L886.266730,799.649469L886.365135,798.887009L885.226312,790.758630L882.965157,786.769321L879.842288,767.421823L878.582049,763.173807L877.068985,761.322107L875.458792,760.246487L874.046914,757.714013L872.156452,752.179330L871.866788,745.364786L870.753208,741.239295L868.023349,739.401204L865.852545,738.332388L860.089676,730.265202L854.876328,725.704003L852.946223,725.751657L851.623000,726.568589L851.308039,727.528483L852.473749,727.991410L855.630532,728.168412L858.201599,729.652503L860.254133,731.545060L860.344519,735.983714L859.846258,736.044984L857.801075,735.922445L857.338598,735.983714L857.428860,737.209109L857.848816,737.801383L858.326425,738.080501L858.625713,738.373234L859.171154,739.373973L861.405322,742.410227L862.196535,743.036539L862.332560,743.683274L861.447037,744.697628L860.290526,744.711243L859.628231,742.417034L859.012619,742.253649L855.486440,739.401204L854.838484,737.971577L853.831629,734.104775L853.178067,732.552607L852.168245,731.572291L849.552184,729.611657L848.992550,728.563262L848.354314,728.427107L846.893312,729.366578L845.128010,730.169893L843.592573,729.706966L842.486123,727.896102L841.438587,724.199487L840.708450,722.272890L840.339075,722.014195L838.997886,721.360649L838.653886,721.135993L837.549702,718.848583L833.957312,713.735946L833.312069,713.708714L832.271511,711.516610L825.989452,706.274618L825.183448,703.735314L824.597889,700.270149L823.720165,697.206641L822.015131,695.892737L820.082149,695.075801L814.747820,691.297471L812.169295,690.180992L811.031963,690.344379L807.819139,691.283856L806.211196,691.324703L804.088188,690.786886L802.971672,690.092490L800.485913,687.335328L797.386730,681.834616L796.194294,681.044910L794.382054,681.310415L789.751998,683.332336L787.790348,683.196179L778.336225,680.064584L776.947495,677.572922L775.083271,670.656172L769.253431,659.423240L766.920877,656.386941L764.271207,653.976962L759.255993,650.675152L757.174546,648.959572L755.875760,647.155489L755.128723,645.167593L753.757310,639.721299L752.618384,636.739450L751.244773,634.356693L747.178928,629.434594L740.128158,622.864980L736.887182,618.780240L734.655513,612.067645L731.753423,608.364140L731.051310,607.111483L729.864851,605.695436L727.375838,604.456394L724.891526,602.808876L723.648820,600.194633L722.512634,594.019837L719.941853,588.267126L716.224391,583.474328L711.704578,580.111198L704.958233,575.018841L702.905111,572.173110L700.254655,566.039123L698.370583,563.499745L696.665810,562.723635L679.496433,558.400561L669.591767,558.032929L665.432765,556.746218L660.756343,553.097130L656.321387,550.516897L648.525902,550.904953L645.088445,549.257416L645.241616,552.477602L643.566419,551.817226L642.071376,551.939770L640.699427,552.647802L639.202599,553.737083L639.037453,550.510089L637.719620,548.597039L633.838576,545.635553L632.481561,543.402524L632.428026,541.530319L633.461471,537.731441L633.434011,533.176868L633.183397,531.924189L632.377065,530.508118L631.671933,530.208564L631.185777,530.501309L631.132936,530.889368L623.740744,522.780985L624.590758,521.637232L626.919536,522.515471L627.565979,521.596384L627.066064,520.119036L626.028648,519.349725L622.025180,519.056979L620.842556,519.969258L621.644784,522.780985L617.323170,520.827074L616.757800,519.472270L615.905739,512.916105L615.210529,511.343440L613.758948,510.628593L611.059974,510.220108L609.746121,510.383502L608.948173,510.873683L608.217786,511.037077L607.059003,510.220108L606.238422,508.763180L606.154745,507.279019L606.203310,505.822090L605.777184,504.399200L601.744825,503.255442L601.135379,502.473156L600.345083,500.662201L599.483232,499.831613L599.670740,502.962694L600.056839,504.297079L600.860311,505.645079L600.350055,506.666292L599.684967,507.687504L598.870048,508.565746L597.930188,509.076351L596.534378,509.021887L595.921419,508.164069L595.433184,507.176898L594.349759,506.686716L592.538020,506.155686L592.184759,505.005120L592.437412,503.827321L592.647895,503.255442L591.063556,502.010205L590.627944,502.112326L589.061177,502.214448L586.463961,502.921846L586.257122,504.555786L586.682522,506.462049L585.979448,507.932594L583.609666,508.422776L582.192203,507.176898L581.557017,504.868958L581.619380,502.214448L579.692850,504.977887L578.005714,508.763180L575.856594,512.112752L572.614783,513.542447L569.429829,516.660541L567.266048,517.232418L566.118877,514.161981L565.001196,513.202044L562.593716,511.915318L551.564528,507.633039L548.079573,505.726777L546.495783,502.745480L546.630060,501.574487L547.331184,499.069106L547.341136,497.544090L546.886813,496.516066L546.199955,496.345864L545.541930,496.032691L545.188930,494.637028L544.464259,492.941809L542.795863,491.675499L540.773017,491.205739L538.986891,491.941016L538.265567,490.068784L538.303561,487.896994L538.602690,485.711586L538.595744,483.846160L537.812939,481.694791L535.697801,477.358009L535.177620,475.227062L534.321768,473.783735L530.755294,470.944739L529.913926,469.555877L529.750190,469.126963L529.027276,468.459765L528.730230,467.738101L528.930510,467.207065L530.399461,466.573907L530.732313,466.076911L530.362217,464.347640L529.466217,463.305992L528.208678,462.904311L526.585945,463.067706L528.491764,456.770156L529.211111,455.177045L530.446177,453.665631L532.950536,451.344045L533.911976,449.356058L534.094501,447.504234L533.531856,445.747724L532.354324,444.072911L530.575187,442.507029L529.061623,441.499418L527.872479,441.036461L524.464217,440.219479L522.262257,439.007621L507.718644,426.221832L504.618934,422.742840L502.250246,418.412821L500.986118,420.271461L499.224195,423.852577L497.676035,425.268684L497.653947,423.621098L497.568143,423.090058L496.687616,423.090058L495.895420,426.317147L495.818603,427.651554L494.819047,427.651554L492.665769,425.976736L491.772444,427.644746L491.078731,433.363631L490.271870,434.378052L489.312138,434.704845L488.535746,435.372048L488.302939,437.414505L488.561162,439.279949L489.454652,442.452564L489.736479,444.318006L489.802049,452.964390L490.317721,456.218695L491.771501,459.677243L492.677960,458.247528L493.730623,455.667233L495.672355,455.701274L496.991289,458.097749L498.900863,464.810595L502.103882,470.474977L501.951921,473.729270L499.433919,479.271095L497.725405,480.625914L497.217999,481.708407L498.030794,483.260661L498.311868,484.649519L498.055775,486.753229L497.339965,488.707160L496.368464,489.551367L493.192586,490.109633L490.931282,490.872142L489.229442,490.388765L487.627334,487.263838L485.611538,488.428027L483.702418,488.339522L482.246259,487.018746L481.612027,484.465699L481.248983,483.846160L479.827667,482.756859L479.473575,482.076046L479.532453,467.724484L481.268711,458.601553L479.640354,456.933552L478.251624,454.564310L477.247256,451.779768L476.771015,448.845445L476.124243,448.273558L473.318879,447.122976L472.682018,446.510240L463.697209,419.100449L459.903777,413.844511L457.632846,412.673498L454.637947,412.019910L452.053164,412.442019L451.043802,414.409593L449.717204,415.737194L446.525807,416.166111L443.119028,415.846125L441.006149,414.981482L440.612963,413.762813L439.668562,408.125610L436.771332,403.427939L436.360040,401.848431L437.929751,401.834815L441.190677,401.378664L443.947145,399.867238L444.099249,396.701414L442.574815,395.230837L441.016587,395.952509L439.769056,397.661373L439.221375,399.091101L438.199074,396.469934L438.684700,394.032589L440.339914,392.391805L442.849303,392.139901L438.655066,387.224358L437.712385,384.541914L437.275849,380.089328L436.746925,378.788955L434.552608,376.297140L433.990200,374.329559L434.353451,372.559417L435.173364,370.884590L435.795713,369.066789L435.615558,366.901768L434.081833,365.492462L428.595764,362.823630L427.386337,361.713886L425.900018,359.119945L416.872096,353.183154L413.747896,347.355294L407.506900,325.568894L403.670936,317.249212L403.042354,314.716542L402.057974,307.322783L396.466293,285.481930L396.319546,283.099045L396.996964,278.959635L397.104851,276.910355L396.747785,274.833843L395.290808,272.171822L394.699713,270.626353L394.388932,268.529416L394.247144,261.911815L393.901817,259.842113L393.255643,258.385152L392.547021,257.098397L391.932547,255.566546L391.637776,254.014271L391.547850,248.193241L390.733853,247.621350L389.127484,247.573693L387.664127,246.852021L387.350030,244.251282L388.407757,245.395063L388.836827,241.105886L386.085137,233.480690L388.616527,230.335298L388.076235,225.481050L387.086874,221.804623L383.783174,214.336036L385.838870,215.479812L381.978667,202.442143L376.522633,190.248717L375.651816,187.491413L374.482584,180.690071L371.943992,175.829058L371.002618,172.424991L370.153392,165.637287L369.339774,162.410239L364.466836,152.545289L362.918854,146.921802L361.823641,140.454122L359.518721,135.334450L355.284425,130.752622L352.306874,125.707853L353.712732,119.212979L351.871248,115.877043L347.566821,101.675523L336.392688,82.245556L324.785566,56.205255L309.841631,33.160663L308.974423,30.314995L308.470936,29.348285L305.613639,25.236370L305.185790,23.486766L304.819811,20.055640L304.241879,18.380926L297.512919,8.741132L296.162229,3.574057L294.698845,1.749585L294.294483,0.000000L274.614418,19.087166L270.932849,25.571587L263.544366,51.198196L259.910659,58.374387L257.094219,60.890381L250.072414,64.755161L247.694025,67.305746L247.133255,70.608540L247.504172,74.153430L247.305055,77.464879L244.993989,80.162460L241.574698,80.733102L238.905253,78.986591L236.558095,76.505164L234.105647,74.871054L229.065390,76.678085L228.215043,76.833715L227.632068,78.329488L227.869597,79.392957L228.307569,80.542888L228.355994,82.298046L227.004917,85.497106L224.717338,87.805618L222.534181,87.831557L221.513247,84.217481L221.545950,80.871439L221.246919,78.087398L219.787098,76.418703L216.441940,76.401411L213.095589,77.776138L212.961167,77.879839L203.500927,85.177200L199.279113,91.653144L196.544528,94.074061L193.110712,94.955968L189.721607,93.831970L185.107633,89.197644L182.091704,88.289801L177.158579,91.307299L171.477505,103.896090L165.704602,107.311327L159.860290,108.219176L140.901814,114.833509L139.389447,115.888345L139.127135,117.799155L141.152677,125.459701L141.446209,128.503173L141.129439,135.480688L140.387098,138.904604L137.516533,145.199084L137.015656,148.934275L135.981511,152.271740L128.321867,163.114199L114.445035,158.860217L110.259177,159.257947L103.565918,163.996123L99.164308,164.307390L96.975214,163.952891L89.132044,165.370887L87.671047,165.102851L81.838230,161.281182L80.299414,160.667294L76.509440,159.958297L73.841579,158.782400L71.555338,157.105018L69.176181,155.972353L66.228239,156.404668L65.326991,157.658381L65.314126,157.732351L65.081852,159.067728L65.488895,160.554892L68.608689,164.999095L69.298300,168.198232L68.783324,171.431957L65.523664,177.052073L66.112353,178.859158L67.718106,180.501963L69.088859,182.568440L69.557869,184.695442L69.624270,191.413662L69.852457,192.053493L70.787612,193.557960L71.017636,194.535000L70.780896,195.226709L69.792452,196.566897L69.558278,197.310485L69.501476,207.322994L66.412804,217.370107L64.958915,219.678697L60.337187,223.509056L58.229462,225.722538L57.058289,228.878480L56.963676,231.844202L57.504851,237.300096L57.226896,240.533861L55.760213,247.208909L55.767683,249.508862L56.953830,253.382469L59.000216,256.339553L61.426176,259.037245L63.643992,262.106735L63.822526,262.588765L64.896101,265.487499L64.965336,268.444587L64.598871,271.444908L64.561904,275.015896L65.488100,278.535006L68.474480,285.313836L69.040061,288.876181L67.752174,293.130244L61.977617,300.133887L59.818691,304.509003L55.690590,319.770035L50.083508,340.573462L44.116841,362.630617L40.524769,369.781247L33.691276,378.073206L32.065316,381.765245L25.610987,413.821943L25.556124,420.894720L27.898334,428.196619L23.269306,431.758941L20.646931,436.929491L14.333764,461.277706L11.878652,465.890539L1.629750,477.515550L0.578966,480.429364L0.528851,484.099729L2.902554,499.974346L7.096277,528.009159L8.476666,537.262053L10.892566,553.485154L14.003742,574.495275L17.078915,595.224298L21.585448,625.978298L24.418456,626.038820L25.358767,622.757654L27.135679,621.058709L29.576564,620.418903L32.690649,620.323797L34.697345,619.800712L39.125550,617.436021L42.039736,616.899967L48.638807,616.899967L49.864198,616.519541L52.173058,614.889762L53.580025,614.509337L63.584396,614.509337L68.321227,615.226958L78.001940,618.365470L82.890284,619.083091L83.779224,619.714251L86.595491,623.751947L87.800573,624.707333L88.980668,625.424953L90.271113,625.883192L91.776077,626.038820L92.625604,625.718917L94.678264,623.751947L95.869365,623.639549L98.548428,624.002682L99.673236,623.751947L101.445784,622.333999L102.933396,620.254628L103.923348,617.496543L104.185609,613.990574L104.108557,609.978808L104.465163,606.572263L105.507050,603.273791L107.579540,599.659734L111.622377,596.127813L116.622849,594.852517L127.468277,595.094607L130.609207,593.866864L132.607726,593.533989L136.323388,596.931899L139.169260,598.734605L145.086034,607.657343L147.430940,610.143083L148.048035,611.496190L148.365099,613.990574L148.449918,617.803478L148.933442,619.584561L151.109664,620.946311L157.259752,626.471121L157.937341,627.469737L159.143643,630.612564L160.060254,634.797232L161.016710,636.677738L162.926435,637.460201L164.452845,637.762811L165.986119,638.592827L167.174286,639.859466L167.679943,641.458975L168.024341,645.734417L168.821027,648.514101L170.433297,650.519968L173.146232,652.417760L174.718811,650.545906L179.414831,636.452942L186.884044,613.990574L195.021767,589.466006L203.355960,564.297165L211.752951,538.916345L217.013437,522.912211L219.665334,525.389354L221.563806,528.268545L224.635838,534.398707L225.297537,534.990972L226.727457,535.172542L227.267188,535.743191L227.373276,536.426241L227.406693,538.194388L227.520555,538.713160L228.134115,539.923626L228.501398,541.038985L229.172475,541.843080L230.834924,542.150020L232.325785,543.360486L232.701473,544.666059L232.872450,546.131586L233.777544,547.778683L235.036054,548.868101L251.242043,556.126555L253.913636,556.671263L262.178353,555.071724L265.653463,555.313816L267.953292,556.342709L269.541438,558.378879L270.573207,560.902148L270.899017,561.698999L271.813737,566.298746L272.612386,567.937189L274.068306,569.385416L275.824571,570.440243L277.409772,571.732839L278.442822,573.885724L280.114423,580.236295L281.438920,583.175971L283.257092,585.644432L285.629372,587.637357L293.690932,592.384060L294.925763,593.629096L296.067377,597.243157L296.919797,598.743251L298.802394,600.269282L300.034623,600.416266L301.258407,600.022870L308.479738,600.083392L319.600918,598.656790L324.977977,597.039974L333.812600,591.813419L336.677228,591.917172L339.384431,592.911471L342.060755,593.205438L344.757295,592.928764L347.509236,592.193846L356.062603,588.173415L362.553440,587.473082L365.168450,585.367757L369.775729,580.439479L375.731842,577.270679L378.634153,575.182642L380.571554,572.165146L380.871694,569.082801L380.503937,565.957224L380.605253,563.173167L382.403195,561.111062L382.641193,561.690353L387.906133,562.360430L392.129877,563.423905L393.627139,564.081012L396.920515,566.316039L400.006175,569.311924L402.688778,572.766051L404.862626,576.349868L409.737323,590.226862L413.040548,596.421780L416.700826,596.378550L419.639669,590.693750L421.531897,588.683535L425.149642,588.035078L433.142785,589.457360L435.918767,589.271469L447.751194,585.557971L453.581635,582.315683L456.007288,578.411966L457.005242,575.065919L459.533817,575.104827L462.521868,576.929157L464.840223,578.999901L468.003588,583.020341L468.939676,583.975735L469.794065,584.464240L477.443972,586.984577L481.380998,587.377975L487.952594,586.125758L489.707180,585.791416L494.359722,585.614171L498.821535,587.230991L502.990985,590.071232L511.031698,597.519831L513.309787,598.700020L516.103103,599.227431L518.922528,598.328239L523.238866,594.074370L525.882918,593.317837L528.841864,593.902225L532.296406,594.584488L534.381983,594.523966L541.506695,592.141970L544.092786,592.107386L557.406289,595.673894L563.878748,598.553037L569.819454,602.378923L581.569689,613.979151L591.988885,624.266386L600.733104,629.177325L616.639976,637.494785L620.839780,638.981897L634.165630,641.087197L644.299538,645.245919L653.536556,652.339946L669.730264,671.754446L686.111252,691.402313L698.491496,713.872987L709.745970,734.337737L714.381891,739.231283L734.763127,753.341274L760.999273,771.493143L776.969438,785.620354L788.591315,795.895849L794.586303,802.522822L799.882469,809.841449L804.916133,818.504481L817.467989,846.080001L825.636611,858.093198L837.423176,866.323892L845.951611,870.179866L854.319663,875.298106L861.586403,882.037406L871.899052,900.284070L884.599027,918.439919L891.939548,926.731080L899.127323,917.627230L901.685248,917.117137L905.721806,918.292943L912.592028,921.656095L936.503046,944.445958Z "/></g></svg>