<?xml version="1.0" encoding="utf-8"?><!DOCTYPE svg  PUBLIC '-//W3C//DTD SVG 1.1//EN'  'http://www.w3.org/Graphics/SVG/1.1/DTD/svg11.dtd'><svg enable_background="new 0 0 1000 846" height="846px" pretty_print="False" style="stroke-linejoin: round; stroke:#000; fill: none;" version="1.1" viewBox="0 0 1000 846" width="1000px" xmlns="http://www.w3.org/2000/svg" xmlns:xlink="http://www.w3.org/1999/xlink"><defs><style type="text/css"><![CDATA[path { fill-rule: evenodd; }]]></style></defs><metadata><views><view h="846.450284528" padding="0" w="1000"><proj flip="auto" id="robinson" lon0="-3.49458512419"/><bbox h="269.69" w="318.99" x="-259.96" y="-733.33"/></view></views></metadata><g class="" fill="#000" id="country"><path d="M8.216981,844.450285L12.915795,835.878991L11.366517,833.747921L5.858598,838.056311L0.591401,838.405101L1.619810,840.167036L2.889892,841.241665L8.216981,844.450285Z M125.035397,818.140846L124.391856,817.512776L123.610275,817.779384L122.678019,818.689453L112.414625,817.789638L110.527430,822.509381L106.425218,826.168093L106.311369,831.783619L110.457884,837.217686L112.852922,838.566673L117.151310,839.166804L122.767855,835.820007L125.023013,832.458038L125.517833,826.255269L124.613295,822.176085L125.035397,818.140846Z M44.885973,824.724572L48.761687,821.496684L48.700897,820.043055L47.638764,817.689660L43.939953,815.415857L41.968080,815.210785L40.488603,816.620676L38.812885,819.699523L40.923435,823.868224L43.043872,825.168136L44.885973,824.724572Z M83.704716,805.932323L93.646899,798.147262L93.545517,795.643980L84.771703,796.576606L75.587785,804.212710L73.798952,804.853392L64.999090,806.462830L60.940170,806.132224L58.075694,808.049268L59.735031,810.481584L62.619112,818.045994L68.443727,825.501453L73.656634,824.193840L75.802349,822.627316L79.481388,817.928070L83.704716,805.932323Z M178.972984,816.989819L191.153403,812.570569L194.340132,804.389537L196.237429,795.162304L196.447887,789.597874L195.188137,787.141299L193.901637,786.792936L190.862151,786.961994L188.598534,788.785827L187.317825,793.468802L181.378608,804.530487L177.480540,814.546871L171.792287,819.068868L165.640105,820.578867L166.644977,821.553087L172.687255,822.937540L178.972984,816.989819Z M16.857452,799.987038L20.443039,796.005242L21.160274,793.543099L21.004898,789.736205L22.207816,787.853406L21.549112,784.595254L19.320291,781.437299L13.450453,781.552548L10.030159,786.080851L14.882028,796.240960L15.717549,800.381653L16.857452,799.987038Z M201.814863,778.056856L209.107960,775.488467L212.619730,773.055989L213.959819,765.465331L215.418644,763.046452L213.677428,760.965609L211.941163,762.327226L210.317563,765.836499L205.135481,767.162503L198.854298,770.459848L197.192409,772.702655L195.306957,780.266909L198.656430,781.506448L201.814863,778.056856Z M883.146778,262.482244L883.082568,260.923260L878.958188,260.369173L876.337102,257.384788L875.522285,258.898780L874.875168,260.395063L875.050643,262.539225L879.319470,262.539225L882.172065,263.184186L883.146778,262.482244Z M876.674421,249.415624L878.789442,248.684485L884.301200,243.063762L883.836106,240.496992L881.732722,238.720427L872.478573,240.845165L870.512779,243.468897L870.408675,246.081160L868.539726,246.522699L867.143449,250.201135L868.593645,251.516621L875.135356,252.666979L876.674421,249.415624Z M949.155526,203.545608L949.696416,201.113747L951.058002,199.816770L951.368355,198.328913L950.002919,197.395187L949.883051,196.533122L951.273158,194.608305L949.605030,194.116444L938.789441,197.364577L933.697386,200.158838L916.125162,212.820733L916.091501,214.973329L917.149266,216.637298L919.915814,217.157916L921.688479,219.921178L924.932441,217.147657L927.411861,215.806505L930.268944,216.544979L932.233036,218.219887L933.312727,223.477508L934.612910,224.803266L938.923288,225.682202L946.374314,229.215237L949.859128,227.530631L953.688293,224.721036L955.693711,219.964811L958.027564,215.834708L960.799475,212.082983L962.767188,208.381076L962.168420,205.056149L959.887354,204.215176L957.582166,203.721932L953.278060,205.293907L949.155526,203.545608Z M998.244810,200.837971L999.408599,197.928348L999.093683,196.897815L995.167212,190.889084L988.009392,188.662235L979.227710,189.290692L978.907739,190.675242L978.840998,193.810660L979.903628,194.730644L984.210906,195.403592L997.470078,201.443175L998.244810,200.837971Z M492.240804,0.000000L485.657767,2.918591L479.268657,3.557246L473.590291,6.869264L468.480687,9.361882L467.052844,11.403980L468.500657,13.567369L468.526871,16.483276L463.971211,18.641790L461.174679,19.198755L456.228098,21.671740L450.788775,22.708991L442.092872,21.805418L435.553607,26.645318L432.515508,27.900572L428.960406,29.938295L426.234554,36.948931L426.122484,39.936102L428.322865,43.280500L430.421278,45.602135L433.913122,48.201671L438.696688,48.984841L438.207201,50.603358L433.861802,55.901432L433.796938,59.380973L435.689476,59.797694L443.234644,57.019835L443.639788,59.073403L443.139290,60.980965L442.853828,65.670656L444.296518,67.462723L446.195614,68.636926L444.423986,71.360730L442.662076,72.565217L442.312422,75.069075L445.973693,74.979639L447.563846,75.633037L443.989163,78.868462L438.922150,84.231341L438.968915,92.303923L440.026630,93.322352L443.237121,92.600223L447.358667,89.162415L451.393723,86.907946L453.606994,86.062076L462.807984,83.731448L465.239023,82.594993L467.470781,82.783976L467.804354,83.895588L469.017006,86.059589L470.410048,87.559830L470.762985,88.669657L467.063622,93.312391L466.520303,94.906324L468.249233,97.910921L468.543526,98.778175L469.419290,99.186922L471.881439,99.072271L476.331851,97.148431L479.358234,95.529056L480.369449,96.196689L489.006678,95.282447L491.028621,96.022301L492.357950,96.839474L496.552156,97.960760L501.161634,98.077884L506.930806,96.510599L509.477019,94.936214L510.011584,93.195352L510.180955,91.878169L510.945940,91.039186L512.265018,90.556256L514.267122,91.420077L517.148929,92.112206L524.118071,92.386089L525.515698,91.422566L527.871724,91.711360L530.951229,92.931397L534.574353,92.532994L536.345223,94.027124L537.039827,96.014827L537.119724,100.331052L536.718871,104.697615L537.382662,106.309369L539.807551,106.723604L543.748161,106.673695L547.258333,107.859159L549.952076,109.923688L550.801291,112.038914L551.149797,113.492812L549.776749,114.317355L547.779659,117.434254L542.836712,121.513715L535.820552,125.188232L530.410865,129.765133L526.608719,135.249613L521.989366,137.578769L520.560554,138.831684L519.965147,140.318561L522.771284,147.053473L523.545243,152.252078L524.103372,158.625277L523.561338,160.432200L523.105313,167.466057L522.347368,169.532721L522.473451,171.205616L523.537538,173.005909L523.983567,174.726010L521.840316,176.926105L517.943463,179.477693L515.048367,181.726458L514.221010,183.829335L514.386546,185.145559L519.016614,189.613871L519.832140,191.439029L519.060398,195.859947L516.106264,203.111223L513.354675,207.531650L512.884260,207.971689L509.840055,209.223023L495.435048,209.276771L491.911088,210.277648L492.375322,211.161000L495.590358,216.857847L499.031214,219.898079L500.178385,220.591119L501.254735,227.273499L506.668253,237.972876L512.183713,239.457786L514.042770,242.132340L513.582649,245.895261L511.758914,250.033170L508.226986,254.272735L504.083186,257.263170L501.349574,260.229365L501.044369,263.686736L500.078784,268.066442L498.696954,271.538779L498.320122,273.878961L508.114753,288.584617L513.808257,287.869552L514.542373,288.217975L513.435315,291.729080L511.526164,295.845522L509.362650,296.628967L504.454991,297.891480L499.701501,303.219418L495.784038,309.626758L492.888994,312.728918L490.104542,320.354894L490.336900,323.663335L491.446108,328.770993L493.731112,342.065218L503.787390,340.495374L512.449120,341.049117L514.427601,340.166268L517.359017,336.744900L517.509912,338.335378L516.343750,341.273753L533.034174,354.093881L537.057757,360.676551L540.414740,356.563288L544.937992,356.291517L543.071804,357.072861L540.022308,359.793255L536.235885,366.177665L537.346002,371.093388L542.300234,373.249353L542.750471,374.955794L542.349050,377.007123L543.954890,382.361085L546.273889,387.319800L551.753897,395.095680L555.226263,395.453457L561.752112,400.448597L569.648747,403.784870L572.893228,403.095743L576.793029,401.226598L577.692806,397.119520L579.284037,396.675599L580.374790,398.002111L581.274438,397.957721L582.733902,392.564949L587.181870,385.188013L589.796650,382.504788L600.134292,378.316276L611.486241,378.081101L619.057735,371.514131L622.043322,367.709102L625.010832,366.752608L648.438142,364.722016L659.232963,365.589656L665.616922,367.298803L673.118165,364.737696L677.892240,364.591347L688.617453,365.411947L693.563799,366.932931L698.656769,365.176743L701.936726,362.022416L708.147618,360.702685L714.532071,361.308975L719.615565,365.289118L722.934145,363.619175L730.470260,354.564236L736.714022,339.207709L743.547072,330.966463L757.157349,321.656779L774.001654,321.111485L779.015969,320.607956L781.193102,319.780957L783.372665,317.921056L778.996976,313.618016L779.371392,310.505179L782.058351,306.218035L782.546548,304.303086L785.080588,298.654282L786.673407,290.137184L790.823542,287.406746L792.124027,281.330549L798.147265,275.036396L812.298808,267.065822L820.433308,261.171840L823.237052,257.863527L821.227444,254.394286L813.101678,250.870466L808.820625,246.729280L805.768098,241.807289L800.466553,223.117881L800.557404,217.714517L811.354487,199.056172L816.409308,191.849000L821.335561,187.021680L830.088166,175.975436L839.967711,160.669484L841.289851,160.270654L842.693379,160.730069L845.270502,159.844102L851.163870,156.962932L852.516832,155.097089L848.455885,150.894528L844.985951,149.912534L849.325197,146.369196L858.476312,137.596342L865.818466,135.771562L881.115368,130.735176L902.991322,126.024634L905.649300,124.314417L912.590440,116.846730L941.816395,101.460428L947.760902,96.682509L951.980068,92.438377L951.454215,85.405349L950.862669,83.932893L948.755585,82.667105L947.687746,81.319475L948.294473,76.532471L950.498044,76.336178L954.195784,74.880267L953.357502,72.095821L951.310854,70.866564L950.063398,67.648898L947.562508,67.656345L943.352249,66.832237L939.852746,65.814606L936.544261,66.382977L933.365246,67.745711L930.582220,68.569895L928.578349,68.800779L927.244742,69.587810L926.621227,71.159584L926.502867,72.259734L922.966784,71.989031L914.771579,69.726851L907.411640,68.167724L903.123013,69.940381L900.369133,71.596648L898.417066,71.343347L896.921490,69.600224L895.913003,67.894655L893.023445,66.330855L886.520409,63.980641L885.361607,64.318126L881.492931,66.387941L879.289955,67.112724L877.273687,67.480100L875.694636,67.328680L874.813100,66.114920L874.891356,64.258569L874.530153,62.583667L874.223642,61.690492L874.775749,59.276795L871.419234,54.463279L869.047600,53.483938L865.467683,53.322788L861.366872,51.855170L857.100968,49.981211L846.748021,46.982388L843.902160,46.623064L842.765013,47.098860L842.010001,48.890660L841.614118,53.957483L841.179693,54.517826L836.378749,54.686430L830.461071,53.982277L827.750441,54.331869L825.331321,54.349225L823.050791,53.007931L812.834422,54.542621L811.135510,53.793848L808.670709,51.505643L805.923025,49.658994L803.787960,48.712214L801.968048,47.626712L800.315663,47.450760L797.793633,48.501551L794.310174,48.947664L791.419991,48.811350L789.877698,48.965013L783.423361,43.354827L782.483790,41.818799L779.264468,41.392698L775.283883,41.325811L765.140386,37.691968L760.526266,35.740312L759.855989,34.581287L759.925405,33.642716L759.133989,33.845781L757.699000,35.505035L756.943016,36.857291L755.951768,37.109920L754.493418,36.899396L753.149806,36.139050L752.331437,35.155839L753.228018,33.439653L754.790553,31.201109L755.449031,28.767145L755.322121,26.588374L752.768561,25.189575L749.004337,24.605313L746.248066,24.439443L742.660148,23.194204L740.970322,22.298049L739.334924,19.872071L739.294700,18.109582L737.845431,18.438808L730.987883,21.265758L722.355596,22.439155L716.464039,22.129712L705.184967,17.834816L693.971025,15.720876L690.912829,16.468424L686.755676,19.921579L671.199391,15.859494L666.813725,12.852013L663.424336,12.423791L656.283847,14.532731L651.467075,13.441129L646.148816,15.282746L633.621531,17.733326L624.801212,17.683819L600.480144,13.317365L591.721247,10.715855L577.084687,9.230692L569.592960,6.057360L559.737354,8.599496L553.715773,8.146518L543.133507,9.411387L537.219809,8.728210L525.330489,9.069799L518.557112,10.676251L510.203542,8.614347L504.628963,3.485460L500.340950,1.247660L496.508220,1.886333L492.240804,0.000000Z "/></g></svg>