<?xml version="1.0" encoding="utf-8"?><!DOCTYPE svg  PUBLIC '-//W3C//DTD SVG 1.1//EN'  'http://www.w3.org/Graphics/SVG/1.1/DTD/svg11.dtd'><svg enable_background="new 0 0 1000 847" height="847px" pretty_print="False" style="stroke-linejoin: round; stroke:#000; fill: none;" version="1.1" viewBox="0 0 1000 847" width="1000px" xmlns="http://www.w3.org/2000/svg" xmlns:xlink="http://www.w3.org/1999/xlink"><defs><style type="text/css"><![CDATA[path { fill-rule: evenodd; }]]></style></defs><metadata><views><view h="847.305733683" padding="0" w="1000"><proj flip="auto" id="robinson" lon0="-3.4762408883"/><bbox h="270.23" w="319.31" x="-260.06" y="-733.79"/></view></views></metadata><g class="" fill="black" id="country"><path d="M13.311485,837.136485L13.610346,836.265399L13.425973,835.580069L12.896640,834.911828L12.130121,834.427199L11.244874,834.296969L9.649004,835.336683L8.679256,835.782892L8.476977,836.043360L8.398620,836.604865L8.024743,837.089515L6.215895,838.853080L5.533409,839.309993L3.718326,838.844539L1.812859,838.665191L0.590803,839.254480L0.818612,841.101388L1.403904,841.825222L2.267492,842.260808L5.553231,842.734832L6.129193,843.253701L6.507797,843.960480L7.143205,844.716381L8.088196,845.305734L8.744951,845.290786L9.137192,844.669403L9.308534,843.445876L9.480217,842.956899L9.830875,842.589635L10.176492,842.299242L10.338984,842.030203L10.432550,841.709921L10.639423,841.556185L10.891530,841.453696L11.120444,841.295691L11.278713,840.996764L11.291925,840.680757L11.274434,840.358347L11.341123,840.027398L13.311485,837.136485Z M124.536252,819.111542L124.876703,818.469142L125.260155,818.287736L125.286234,817.877972L125.071055,817.201445L124.894446,817.105409L123.569165,817.361506L123.666971,819.141421L122.594629,819.493571L119.821285,818.795677L116.434184,818.795677L114.062153,817.937729L113.407661,818.112732L113.007490,817.865167L112.566267,817.741386L112.090570,817.711507L111.590296,817.754191L111.836453,818.513961L111.884584,819.555465L111.668896,820.498815L111.133890,820.979035L111.325118,822.236169L110.522119,823.550968L109.379522,824.648085L108.556713,825.275630L106.760543,826.270328L106.336781,826.742070L106.109273,827.369644L106.027280,828.195748L106.073348,829.006923L106.229427,829.604640L105.961306,830.637854L106.196116,831.713785L107.385218,834.706874L107.554308,835.010036L107.951590,835.349493L108.869125,835.906721L109.034396,836.265399L109.382681,836.799151L111.719327,838.951294L112.430768,839.275831L113.275742,839.487209L115.207196,839.634532L115.625856,839.845911L116.036334,840.232373L116.488634,840.471511L117.032136,840.206751L118.262779,838.831729L118.477502,838.789027L119.001297,838.513600L122.190411,837.486632L122.831545,836.886687L124.342036,835.016441L124.906533,834.619342L125.672787,834.284159L125.785627,833.481437L125.517311,832.542097L125.147612,831.788504L125.621797,830.667741L125.964319,830.213038L126.465106,829.963274L126.478143,829.604640L125.924199,828.763569L126.073313,827.820050L126.459165,826.876550L126.608616,826.024854L126.443706,825.704671L125.749957,825.258554L125.397164,824.949049L125.060637,824.295894L124.895738,823.580850L124.814647,822.963999L124.724075,822.605419L124.514831,820.528696L124.536252,819.111542Z M44.155810,825.133990L45.156813,824.875597L46.160460,824.172956L47.540672,822.873882L48.441004,822.286988L49.177681,821.248584L48.963385,820.080373L48.483705,818.863972L46.131216,817.034982L44.291306,815.757798L42.240634,815.114420L39.959056,815.670315L38.576743,817.562123L38.290491,819.539017L38.219682,821.411356L39.606736,823.729175L41.879237,825.245398L42.994250,825.531999L44.155810,825.133990Z M94.016686,796.533261L92.986068,795.938151L90.204149,796.955603L85.855818,796.819088L85.142002,796.533261L84.819070,797.510201L83.986474,797.870694L82.982741,798.056275L82.166047,798.517031L81.788999,798.805006L80.926549,799.272171L80.748182,799.592151L80.613815,800.353713L80.322925,800.803831L79.417616,801.610217L77.240200,803.548697L76.306063,804.290056L75.360840,804.396433L74.871753,804.618315L73.724450,804.751394L72.793374,805.497825L71.906558,805.572938L70.112117,805.742678L69.237117,805.517368L68.191644,805.934046L66.721750,806.433129L65.719793,806.946017L64.427512,807.323668L63.872220,807.336470L63.358644,807.174314L62.335278,806.417334L61.472079,806.023041L58.987790,807.198972L57.879908,807.916651L58.259728,808.955930L59.679837,810.524244L60.175549,811.749065L60.758168,812.764797L60.883560,813.259869L61.095226,815.573126L61.529322,816.266701L62.227796,816.994434L62.869624,817.865167L63.124487,818.992025L63.451276,819.826516L65.125189,821.612934L65.706719,822.411189L65.779177,822.784709L65.821742,823.770816L65.941178,824.199843L66.277721,824.526419L66.680476,824.699313L66.581161,825.327716L66.660188,825.816478L67.117704,826.542314L67.843326,826.686602L68.702689,826.342615L69.749293,825.922795L72.236080,824.943088L73.741795,825.275630L74.189899,824.620903L74.894823,823.514130L77.912134,820.477472L78.652291,819.570405L79.283695,818.683372L79.308868,817.738417L79.790061,815.446610L81.352955,812.635204L81.703666,811.410554L82.125037,810.950304L82.572497,810.567234L82.737976,810.031954L82.648234,809.510175L82.436164,808.626890L82.495037,807.524137L82.992669,806.543878L83.634388,806.009823L84.440062,805.688162L85.723205,804.624134L87.004032,803.284320L87.964395,802.350706L88.764265,800.919789L92.145852,799.028920L93.541179,798.015264L94.016686,796.533261Z M176.897786,819.756085L178.399022,818.112732L179.338345,817.572787L181.127292,817.092604L182.659784,816.017013L184.738053,815.370391L189.496037,814.576532L191.004043,813.725071L192.064911,811.992326L192.619599,810.216978L193.013668,809.320798L193.807343,808.226205L193.972276,807.758932L194.065967,807.246858L194.104018,806.766794L194.289231,806.453156L195.117065,805.691473L195.350370,805.192227L195.299776,804.806062L194.910193,804.065746L194.790753,803.726528L194.756902,803.169705L194.869275,801.413952L195.055629,800.692901L195.916181,798.700482L196.244286,797.608323L196.733034,793.148303L196.670652,790.783075L196.233552,789.017256L194.988236,787.511690L193.483273,787.004162L191.834616,787.234468L190.147304,787.946719L189.378553,788.420140L188.894859,788.951146L188.630968,789.639974L188.348724,791.533788L187.648182,793.124842L187.041442,795.731251L185.186690,798.418906L184.080475,801.012892L182.678581,803.269975L182.084493,803.726528L181.816205,804.332429L180.574591,808.053377L179.538943,809.653663L179.119031,810.594660L178.784091,813.191583L178.474320,814.211618L177.957224,815.069491L177.224210,815.961527L175.836938,817.303884L172.584501,819.478632L169.959645,820.699440L168.280201,821.260767L167.403882,821.335469L165.884309,821.062274L165.560685,821.156185L165.573453,821.365350L165.426097,821.992850L165.218971,822.611822L165.048627,822.799650L165.588626,822.976806L168.558422,822.799650L169.459182,823.021629L171.188620,823.871135L172.344515,823.875404L174.246761,822.974671L175.637199,821.491276L176.897786,819.756085Z M16.546972,782.458081L15.452122,782.285049L14.559622,781.673379L13.398363,782.475139L11.801238,783.895190L10.556734,785.630891L10.244930,787.230203L10.660566,787.805974L11.357408,788.351899L11.532008,789.170173L11.685491,789.999701L11.807127,791.322967L13.391998,794.108852L13.588641,795.263935L14.456168,796.556336L14.750785,797.394963L15.236034,798.020819L15.459043,800.604667L15.729438,801.603163L16.699423,802.145684L16.937350,802.651291L17.213755,802.651291L17.671520,801.580350L18.570338,799.816703L19.551947,797.764815L20.666010,796.285200L21.003102,794.911524L21.406417,793.922877L20.956232,792.046926L20.657341,791.005352L21.341417,789.829463L22.754622,788.222572L22.759798,787.259044L21.907254,786.793515L21.537259,785.910425L21.271481,784.658546L21.408646,783.617998L21.021776,783.046563L20.316203,782.372795L19.444489,782.003934L17.613686,782.730999L16.546972,782.458081Z M213.829594,766.387766L214.739751,765.780418L215.088819,765.077189L215.292421,764.224812L215.766265,763.165769L214.525267,761.906474L213.705856,761.365271L212.915962,761.542120L212.331939,762.319841L211.958216,763.206255L211.414810,764.955724L210.829612,766.236461L210.312306,766.867260L209.682506,767.078240L207.399532,767.076108L206.686517,767.174140L205.848983,767.459712L204.952444,768.030864L203.403600,769.347964L202.559720,769.603718L201.551696,769.674051L200.691197,769.885051L199.953021,770.230326L199.309939,770.709881L198.493004,771.590150L196.905700,774.088292L196.748913,774.778940L196.478601,777.362610L196.277922,778.219617L195.779050,779.087305L195.385624,779.483849L194.884009,779.650143L194.726982,779.933698L194.824935,780.560511L195.086378,781.187337L195.416058,781.473037L197.538658,781.492226L198.449320,781.786457L198.898197,782.513518L199.176109,782.513518L200.011055,780.903771L201.001142,779.532884L202.229187,778.577775L203.799697,778.219617L204.513472,778.164188L205.546053,777.921154L206.249063,777.861462L206.801471,777.639749L207.168952,777.145165L207.621547,776.656983L209.733822,776.113384L211.214675,775.288410L212.523206,774.137319L213.302338,772.856248L213.360728,772.423553L213.319679,771.502762L213.363641,771.067954L213.524500,770.665122L213.923945,769.974566L214.023804,769.603718L213.961943,768.657438L213.759442,767.896599L213.638703,767.186927L213.829594,766.387766Z M212.518166,761.399362L213.190688,760.163581L212.832332,759.202692L211.883398,758.949159L211.418858,759.784335L211.029781,760.951918L210.312236,761.706185L210.298702,762.093980L211.370684,762.258048L212.518166,761.399362Z M626.521993,450.353507L626.443652,450.334210L626.385055,450.328267L626.341151,450.318801L626.304700,450.331422L626.345694,450.362973L626.412732,450.385058L626.485178,450.391368L626.521993,450.353507Z M708.168372,449.829078L708.043847,449.620417L707.831869,449.663380L707.759570,449.878192L707.952513,450.007076L708.168372,449.829078Z M643.791194,448.055788L643.775243,448.032376L643.747199,448.064021L643.739620,448.078428L643.765595,448.091806L643.791194,448.055788Z M643.880295,447.928348L643.846278,447.930149L643.822489,447.940955L643.820798,447.957163L643.834029,447.962566L643.856293,447.955363L643.885806,447.958964L643.880295,447.928348Z M686.987230,444.787258L686.986974,444.786870L686.974716,444.769552L686.595089,444.198039L685.491952,441.974966L684.650216,442.821213L684.773047,444.292277L685.667474,445.268250L686.987230,444.787258Z M578.400819,410.854975L578.280841,410.744667L578.189607,410.815579L578.212659,410.957404L578.314689,410.996799L578.400819,410.854975Z M582.246695,411.350842L581.529205,410.790418L580.577587,410.256040L579.753907,410.180009L579.157348,410.269074L579.156263,410.269184L579.531835,411.468006L580.004284,412.554848L580.661453,413.509208L581.610448,414.386706L581.849898,413.585785L583.779251,412.082832L584.182219,410.953334L583.029573,411.533300L582.246695,411.350842Z M782.123253,315.263525L782.052828,314.032734L782.449523,312.847655L782.243113,312.532957L781.981160,311.981716L781.837761,311.756019L781.785406,311.634491L781.785802,311.491264L781.733366,311.400121L781.513759,311.426162L781.690467,312.938810L781.646986,314.686100L781.828877,316.259976L782.708242,317.252168L782.123253,315.263525Z M875.844458,259.600405L875.801803,259.475435L875.801095,259.348314L875.751748,259.277214L875.577066,259.303068L875.434754,260.124015L875.018478,260.731724L874.584905,260.912096L874.281268,260.602758L873.752065,261.196579L873.505420,261.595992L873.663905,261.802919L873.976152,261.986142L873.960929,262.406500L873.764174,262.891567L873.542225,263.247309L873.544542,263.798726L873.722546,264.202662L873.530551,265.279494L874.134494,265.460494L874.812113,265.047069L875.505487,264.066679L875.920182,263.784199L876.748778,263.197779L877.444394,263.555143L879.568020,264.890480L881.031366,264.920230L882.057605,264.696380L882.092515,263.538388L881.370121,262.660260L879.685341,263.387113L877.948587,262.497043L875.844458,259.600405Z M881.781027,240.802861L881.009295,240.753490L880.715491,240.656894L880.007070,240.109559L879.388998,240.064487L878.786582,240.302729L878.398613,240.802861L877.504136,240.652601L876.305174,240.966006L875.128655,241.558529L874.280663,242.241312L873.790261,241.940703L872.948847,242.569856L872.552576,242.241312L872.283763,242.241312L871.249070,243.317218L870.609288,243.826266L870.048267,244.045366L869.551691,244.582420L869.533525,245.817873L869.918552,248.042484L868.884577,248.029585L868.472923,248.132780L868.159893,248.403676L867.655484,248.115580L867.166781,248.180078L866.734912,248.442377L866.380159,248.764894L866.774464,249.403541L866.638438,250.177768L866.123933,251.453352L866.320663,252.412940L866.819508,252.965969L868.186711,253.850508L868.470032,253.191931L869.192279,252.965969L869.916755,253.185475L870.241647,253.850508L870.667480,253.747196L870.706122,253.785938L870.853235,253.850508L871.146797,253.850508L871.774619,253.613755L872.521926,254.166912L872.948465,255.230581L874.342229,255.205811L874.379806,253.910774L874.824433,252.119747L875.416508,251.804032L876.117381,250.928452L876.265426,251.158627L876.546371,251.410325L876.708272,251.616856L877.169910,251.081183L878.357744,250.468134L878.893185,250.029365L880.229713,248.042484L881.725778,247.088034L881.947305,246.765627L882.081912,245.946808L882.447854,245.269937L883.010853,244.840228L883.722930,244.797259L883.020458,243.046608L882.751940,241.990087L882.968894,241.519884L882.621024,241.159212L882.266924,240.914486L881.781027,240.802861Z M941.978071,238.993807L942.092416,237.570595L941.875198,236.548817L940.161755,237.267255L939.024325,238.319957L939.784825,240.101762L941.128060,240.213252L941.978071,238.993807Z M949.872291,195.480314L945.462516,197.184377L943.102319,197.755422L940.706244,197.974101L939.392735,198.311700L936.839235,199.930100L935.587175,200.499484L935.184668,200.573851L934.290110,200.499484L934.134860,200.605723L933.869027,201.073213L933.717241,201.179470L933.086023,201.328235L932.592945,201.698049L932.107995,202.174191L931.501144,202.639768L930.248778,203.239371L929.936655,203.322302L929.653987,203.551970L928.794731,204.489936L928.608144,204.604807L928.475302,204.862215L927.452876,205.853731L927.265509,205.900547L926.773930,205.806915L926.576123,205.853731L926.480542,206.023976L926.181347,206.673111L926.003087,206.922155L924.688244,208.276234L923.970315,208.838455L923.234918,209.068479L922.380034,209.189887L921.749973,209.515790L919.662355,211.650860L918.904717,212.124067L918.004968,212.315925L914.955405,214.139070L914.708805,214.932574L914.677155,215.995107L914.895034,216.929869L915.674014,217.531823L916.041844,218.473365L916.462636,218.761638L916.737208,218.697575L917.915164,218.044198L918.143109,218.554506L918.443964,218.684763L918.769506,218.492582L919.113391,218.044198L920.267048,219.156713L919.906889,219.370284L919.774307,219.699206L919.893450,220.117874L919.985141,220.228957L920.806907,221.570741L921.983237,221.433978L923.031617,220.376360L923.476840,218.955967L924.045364,218.353791L926.785149,216.897853L927.715473,216.611854L928.847339,216.929869L930.287523,217.723956L931.514860,218.780857L932.014670,219.870086L931.370353,221.147646L931.254302,221.998157L931.885779,222.382870L932.367141,225.250144L933.448008,226.527277L935.118172,227.175622L938.854926,227.434560L939.272630,227.378919L939.946096,227.134964L940.454373,227.075047L940.832301,227.194881L941.507774,227.708496L941.927598,227.830489L942.236838,228.033819L942.382172,228.523991L942.479753,229.101996L942.680873,229.590152L942.941406,229.797849L943.614466,230.091212L943.888718,230.277519L945.080747,231.943936L945.261132,232.149606L945.653527,232.008207L946.040845,231.738276L946.216637,231.569043L946.541492,231.044247L948.170692,229.692929L952.067159,227.370359L953.401811,225.988137L954.066933,223.813045L954.236159,223.960581L954.657595,224.204347L955.016161,221.280125L956.330697,218.755231L958.107118,216.699359L959.824064,215.182179L959.499265,214.356627L959.623826,213.544051L960.095690,212.923541L960.812884,212.674087L961.375996,212.362826L961.821794,211.633809L962.385974,210.174077L962.115683,209.520051L962.236274,209.187757L962.497876,208.983283L962.657574,208.710669L962.578503,208.289011L962.433741,207.897211L962.389326,207.465002L962.632141,206.922155L961.151659,206.802952L958.711094,205.445175L957.481843,205.109004L956.880360,205.389854L955.596192,206.641183L954.855382,206.922155L951.922135,206.922155L950.676319,206.645440L949.288884,205.906931L948.158834,204.879234L947.646363,203.711470L947.695026,202.627012L947.999392,202.225210L949.347996,201.893600L950.039804,201.606655L950.281209,201.451502L950.531500,201.179470L950.668870,200.784212L950.625519,200.397498L950.673081,200.049068L951.096898,199.755904L951.092620,199.433029L947.831943,200.299764L946.312630,200.049068L946.384929,198.362662L946.701306,198.362662L947.180811,198.611110L947.686536,198.197040L948.252448,197.602568L948.877627,197.292635L949.425268,197.169518L950.918165,196.503072L951.365921,196.193241L950.812975,195.911022L950.688690,195.974678L950.465654,196.193241L949.872291,195.480314Z M989.824222,190.746008L989.434952,190.330800L989.306305,189.716557L988.851938,189.960123L988.145600,190.504503L987.545291,190.750245L987.060136,190.822276L985.346190,190.750245L981.235830,191.144317L980.208008,190.750245L977.244084,191.371036L976.726121,192.008897L976.631904,192.640523L976.469346,192.907623L976.483866,193.166264L976.900320,193.789630L977.294549,194.105820L978.168132,194.404851L978.520281,194.693303L978.040621,195.126030L977.905558,195.811297L977.882782,196.564617L977.711899,197.186500L979.371938,197.736315L982.439037,197.150415L984.149951,197.186500L985.598057,197.723577L992.597397,202.027516L995.654663,203.430755L997.868972,203.154314L997.929710,199.715543L998.311894,199.893986L998.657281,200.153168L998.940851,200.454865L999.120566,200.782087L999.409197,200.782087L999.039309,199.932224L998.096147,198.517674L997.894491,197.736315L997.670636,196.878727L997.150237,196.740770L996.476658,196.785340L995.807252,196.475483L996.563276,196.180508L996.591481,195.418789L996.214830,194.561800L995.763255,193.984942L995.458224,193.832040L994.823621,193.711172L994.588776,193.596670L994.140413,193.195945L993.948529,192.954261L993.694909,192.559973L992.483403,191.828758L992.219879,191.460032L992.374574,190.767193L992.112623,190.487556L991.831400,190.697282L991.928035,191.460032L991.517811,192.047046L991.207783,192.403119L990.942941,192.559973L990.647999,192.381923L990.616957,191.991943L990.700716,191.610484L990.788453,191.460032L989.824222,190.746008Z M897.792403,68.532785L898.209845,68.452740L898.353094,68.398939L897.880280,67.673313L897.445563,66.820473L897.005041,66.276005L896.527809,66.475421L896.074434,67.387276L896.158629,68.026278L896.715309,68.408125L897.674788,68.532785L897.792403,68.532785Z M492.088515,3.136744L492.137650,2.407190L493.139924,1.356120L493.329591,1.059343L493.224675,0.535858L492.944495,0.150453L492.648843,0.000000L492.504514,0.175185L492.188583,0.939808L491.448764,1.659077L490.538550,2.196977L488.861313,2.576183L488.006019,3.004848L487.225783,3.563343L486.616795,4.138320L486.696651,4.323796L486.789970,4.694745L486.877345,4.861672L485.855909,4.540183L485.346112,4.558731L484.851098,4.861672L485.577289,5.968323L485.179968,6.343386L483.083905,6.244468L483.097058,5.898256L483.295399,5.832311L483.408905,5.758122L483.683626,5.519070L483.991142,5.762244L484.123642,5.815825L484.567409,5.519070L484.329744,5.139882L484.368268,4.707110L484.579459,4.255788L484.890380,3.823011L485.108437,3.909567L485.523294,4.014670L485.760394,4.138320L485.772288,3.823011L485.171079,3.153231L484.888287,2.258805L484.422307,1.529239L483.269154,1.372607L482.412657,2.363911L481.342048,3.206813L480.136693,3.829194L478.878538,4.138320L477.476324,4.119773L476.851314,4.255788L476.574037,4.688563L476.399720,5.275895L476.177682,5.819946L476.274249,6.359872L477.059166,6.936889L476.862327,7.050231L476.654892,7.217153L476.472386,7.311948L476.460096,7.629304L476.590291,7.654033L477.032395,7.629304L476.535818,7.829197L476.074036,7.790043L475.734592,7.495355L475.602986,6.936889L469.347175,11.037750L468.122162,11.594141L467.135646,11.462256L466.851601,11.577656L466.128572,11.462256L465.963283,11.462256L465.917665,12.008344L466.107088,12.515278L466.428215,12.925358L466.755024,13.193250L466.180546,13.881527L465.707021,13.702245L465.465365,14.462648L465.269326,15.532160L464.912892,16.304933L466.765717,16.230746L467.606307,15.927819L468.130276,15.266327L468.530876,15.482703L468.686005,15.612528L468.381318,15.729989L468.262214,15.810358L468.101692,15.989641L470.663604,15.612528L471.645235,15.229234L471.848355,15.266327L471.900100,15.643439L471.699513,15.977277L471.383358,16.214260L471.093376,16.304933L466.847661,16.787145L466.043103,17.339424L466.722268,17.584653L467.688772,18.542908L468.418761,18.757228L469.841407,18.662432L470.602044,18.748985L471.412082,19.099318L470.615491,19.581543L470.146040,19.940122L469.926831,20.397623L469.872408,21.176617L470.115303,22.728451L470.105214,23.509536L469.749213,24.321548L469.482240,23.556938L469.071727,23.060256L468.139403,22.211168L467.887949,21.665038L467.753672,21.090061L467.503664,20.638739L466.908851,20.453265L465.718176,19.767015L464.880678,19.639245L464.469101,20.294582L464.532224,21.493987L464.365425,21.955620L463.806882,22.528544L462.907805,21.801055L462.552193,21.308511L462.427109,20.640800L460.111200,21.176617L459.855321,21.345606L459.743568,21.578482L459.554499,21.782507L458.697394,21.967985L458.263273,22.240021L457.904555,22.629528L457.748223,23.076743L457.382146,23.394125L455.144823,24.321548L453.737560,23.765092L452.146861,24.187586L450.633183,24.931597L449.454653,25.325247L448.677513,25.216014L447.072513,24.741986L446.319348,24.632754L445.617393,24.360706L444.348078,23.175667L443.815228,22.903627L443.341143,23.019038L442.997982,23.266348L442.668697,23.629070L441.338177,23.940272L439.511370,25.003731L437.789823,25.671498L437.372046,25.702413L437.061882,25.850807L437.393433,26.159963L437.898168,26.411411L438.083220,26.394923L438.663149,27.526461L439.143886,27.823263L440.031934,27.775857L439.287141,28.268471L438.160534,28.664216L437.035769,28.695134L436.293244,28.093273L435.979110,28.093273L435.728212,28.847662L435.269826,29.542292L434.719724,29.826744L434.172537,30.241059L433.627534,30.445127L432.867121,30.574989L432.142508,30.587357L430.594398,29.979278L429.217162,30.626522L427.148391,32.318904L427.497448,33.203270L428.088945,33.271300L429.456291,32.665226L429.392594,33.108442L430.071846,33.162040L431.021477,32.968261L431.745192,32.665226L431.729054,33.038351L430.967215,33.116688L430.656160,33.199147L430.309420,33.355821L429.916835,33.623818L429.742086,33.871202L429.618403,34.122712L429.381239,34.390717L428.750039,34.840147L428.197820,35.005077L427.651977,34.866948L427.057723,34.390717L426.833561,34.984461L426.331090,35.299893L425.818398,35.730784L425.552334,36.654443L425.245517,37.103915L424.690897,37.124533L424.324896,37.402881L424.583148,38.604970L425.187521,39.011180L425.439823,39.339040L425.259628,39.784444L425.084757,40.069012L424.933881,40.469065L424.825558,40.873249L424.779339,41.186705L423.819078,43.315036L423.520756,43.799719L423.507091,44.111161L423.873408,44.416421L424.237401,45.596258L424.427902,45.699395L424.729809,45.249724L425.195012,44.232852L425.526915,43.799719L425.904699,43.490345L426.393623,43.220163L426.806591,43.279974L426.956823,43.954408L427.159908,44.003909L427.559022,43.911095L427.814686,43.616157L427.592062,43.071668L427.605682,42.758182L428.118308,42.964422L428.732825,43.898720L429.113586,44.111161L429.832679,44.173038L430.114988,44.368981L430.135323,44.690746L430.060846,45.148653L429.941452,45.458056L429.541455,45.847913L429.447375,46.045938L429.482460,46.342981L429.672360,47.017536L429.701398,47.415681L430.488006,47.704497L431.054704,48.055209L431.371805,48.641123L431.100292,49.146594L430.790809,49.499402L430.389041,49.689220L429.865704,49.680967L430.227450,50.582637L430.418590,51.393568L430.671195,52.049775L431.207301,52.483135L431.999254,52.619337L432.540520,52.371698L433.548961,51.443092L433.446408,50.595017L434.326065,50.436138L436.451855,50.718821L437.565261,50.576447L438.546368,50.200917L439.228402,49.487023L439.451606,48.327533L440.306587,48.750468L440.388769,49.567489L440.085126,50.361857L439.779220,50.718821L438.762162,50.931352L438.103397,51.455473L436.963256,52.798878L435.721576,53.418002L435.612689,53.523256L435.111070,53.684234L434.769017,54.039218L434.553477,54.398340L434.049846,55.009281L433.748739,56.012443L433.583128,56.767962L433.584817,57.374887L433.021253,58.142876L432.363048,59.443612L432.095115,60.670150L432.706024,61.215320L433.636324,61.584976L433.802896,62.429655L433.856168,63.361147L434.453564,63.991136L435.090869,63.346688L435.435094,63.067853L435.793109,62.950124L436.179074,61.797689L436.311919,61.531282L437.839594,61.143042L438.349386,60.794050L437.780097,60.147720L439.208225,59.181389L439.806689,58.921236L439.558367,59.453936L440.143932,59.875157L440.651091,59.586082L441.616200,58.415399L441.212771,57.981842L441.340050,57.350114L442.019413,56.291113L442.560315,56.712226L442.959170,57.504947L443.445014,58.142876L444.226930,58.415399L444.979987,58.182102L445.569674,57.587525L446.016522,56.798927L446.339219,55.987673L446.601249,55.987673L446.225989,57.120966L444.551350,60.234446L443.982047,60.870456L443.420824,61.017073L442.888612,61.415635L442.478085,62.020731L442.297812,62.776632L442.318360,63.650318L442.765345,65.410296L442.234699,65.806951L442.206945,66.356508L442.295557,66.953617L442.103881,67.486705L441.657053,67.635478L441.046977,67.542495L440.466042,67.325536L440.104621,67.108581L440.673331,66.790390L440.706843,66.311055L440.379810,65.885458L439.870419,65.724314L439.244126,65.860666L438.356508,66.178829L437.566889,66.612703L437.227303,67.108581L437.520839,67.306939L438.965709,67.530097L439.499728,67.802851L439.804966,68.342183L439.955377,69.309334L440.278223,69.881816L441.263845,70.439864L442.629868,70.592815L443.968997,70.481202L444.893925,70.262112L445.496434,69.956221L446.573092,69.208068L447.523266,68.699687L447.622736,68.614960L447.760229,68.565364L448.130459,68.528166L448.546342,68.676956L448.888431,68.699687L449.279508,68.528166L448.944663,69.261801L448.317780,69.792945L446.895373,70.609351L446.152646,71.200513L444.492328,72.879120L444.156631,73.538655L443.941981,73.668913L442.439714,73.352574L441.827623,73.466290L441.676517,73.594480L441.760032,73.817783L441.827101,74.233389L441.730663,75.877392L441.471197,76.262070L440.913453,75.463778L440.649141,75.463778L440.613604,76.162797L440.136687,77.285894L439.947378,77.925069L440.767180,77.693388L442.977838,77.831982L443.436562,77.738896L443.921907,77.285894L446.241499,76.340662L447.103637,76.158660L448.164989,75.759510L448.793407,74.855800L449.289951,73.900489L449.950258,73.352574L450.304277,73.253333L450.460402,73.296751L450.491450,73.635832L450.429283,75.190803L450.264905,75.610608L449.976438,75.871187L449.100294,76.404778L448.333996,76.679858L446.938977,77.817502L446.742368,77.925069L446.181222,78.131932L443.907881,79.662875L443.083182,80.562952L442.883331,80.705732L442.429802,80.920941L442.188907,81.396904L442.066334,81.877034L441.951178,82.090204L440.830755,82.609701L440.614024,82.785634L440.779415,83.110602L441.569178,83.458354L441.748688,83.859944L441.415291,84.327801L440.628952,84.526545L438.954421,84.555529L438.479491,84.909555L438.312791,85.791588L438.747872,95.702029L438.612631,96.407046L439.305421,96.631008L439.998110,96.091853L440.702201,95.353695L441.429163,94.984646L442.308635,94.756592L443.106062,94.171979L443.777323,93.386354L444.281970,92.551077L444.768284,92.238692L445.740166,91.797848L446.839443,91.500458L447.724777,90.980713L448.066120,90.467584L448.559429,89.370399L448.946481,88.858699L449.683884,88.373341L450.426973,88.239182L451.974960,88.201039L452.762246,87.913003L454.251084,87.014768L455.056193,86.741242L461.615745,85.794497L462.338108,85.451331L463.456436,84.566532L463.840008,84.349621L464.161165,84.281262L464.886631,84.252341L465.671968,83.968397L466.968310,83.152115L467.328299,83.641085L467.681917,84.415351L467.470502,86.604483L467.581208,87.430336L468.103813,87.810417L468.749409,87.648650L469.511916,87.336963L470.392202,87.259372L471.190437,87.567111L471.813347,88.130016L472.127872,88.887638L471.998825,89.775575L471.524181,90.416273L470.833857,90.925451L469.579993,91.642572L468.306536,92.732208L466.594488,94.908040L466.158011,95.827019L466.058975,96.776411L466.503308,97.686426L467.997599,98.219851L468.301651,98.621594L468.346402,99.297369L468.136886,100.520224L468.120219,100.617506L471.754095,100.820425L473.591622,100.348174L473.671548,100.327632L475.109069,99.027314L475.546724,98.412158L476.082659,97.916913L476.692702,97.665354L477.368550,97.766767L478.155776,97.749645L478.577429,97.087198L478.813649,96.235202L479.033662,95.649270L479.876425,95.359615L479.942489,96.736905L480.175651,98.209314L481.519404,98.211948L481.822970,97.911645L481.981211,97.581064L482.190089,97.300544L482.638382,97.167531L483.781001,97.230745L486.423127,96.657895L487.631177,96.103527L488.287742,96.256270L489.432085,97.016085L490.161281,97.344004L492.432713,97.432242L491.723706,99.035218L491.733279,99.514738L492.403129,99.861227L493.148250,99.928419L494.052862,99.807210L494.925686,99.529230L495.580209,99.115575L495.813533,98.748050L495.871306,98.401620L495.964824,98.096040L496.287919,97.849742L496.613398,97.852376L497.239617,98.262000L497.649208,98.297563L498.230641,98.484604L498.749513,99.162999L499.125914,100.049629L499.277678,100.859956L499.849789,100.423816L500.906068,99.368507L501.488212,99.019410L502.129731,98.917978L503.664576,98.960131L504.430980,98.848162L507.464367,97.915596L508.877634,97.133291L509.289240,96.617819L509.791366,95.988973L509.914064,95.180561L509.695334,93.531118L509.810526,92.819070L510.130514,92.519005L510.791575,92.072879L511.546323,91.697839L512.156287,91.608359L513.491646,92.375557L514.745438,93.375804L516.057773,93.924684L517.577308,93.331053L518.587370,92.683513L518.958094,92.855877L519.538507,93.125729L520.546101,93.856236L521.723006,94.073429L524.356678,93.877297L525.376703,93.316575L525.690606,91.797848L526.974685,92.004449L528.449945,94.151094L529.704044,94.493355L532.717373,94.380143L534.164562,93.978653L534.760985,92.890140L535.777802,93.281038L536.329372,93.894409L536.474429,94.736897L536.063226,96.937071L536.386768,97.295276L537.137528,97.396683L538.220192,97.725938L537.704323,98.686139L536.548517,102.852611L536.354980,103.331101L536.040641,103.754258L535.776944,104.238091L535.892734,104.681088L536.161730,105.120162L536.342067,105.600146L536.423219,106.548358L536.614475,107.546846L537.172128,108.363436L538.350119,108.771113L538.793085,108.660285L539.436036,108.368713L540.026389,108.004597L540.315529,107.691951L540.615345,107.462423L541.196702,107.478253L544.612169,108.123328L546.659664,108.810695L548.526784,109.929652L550.264195,111.632252L550.833819,112.388686L551.250907,112.890390L549.154948,115.587159L548.028559,116.636110L547.744635,117.154055L547.763878,117.558403L547.868125,117.899347L547.838804,118.240313L546.158180,120.595952L546.141376,121.034941L544.815789,121.124858L544.220600,121.333791L543.661497,121.735812L543.787873,121.759617L543.805336,122.069090L543.743561,122.468523L543.632523,122.751583L543.460278,122.799202L542.941577,122.703964L542.767139,122.751583L541.378569,124.720208L539.978812,125.995988L538.563110,126.978188L536.048695,127.968526L535.657741,128.220114L532.881366,128.259839L532.125948,128.379018L531.620088,128.879600L530.050145,130.953986L529.709433,131.719853L529.455840,132.135963L527.922942,133.310278L527.353086,133.957204L527.182103,134.320475L527.249522,135.588169L526.870616,136.521921L525.121523,138.804044L524.526306,139.332279L523.364092,139.446428L520.756778,139.231405L519.868828,139.642484L519.850773,139.650843L519.654497,140.617290L519.179556,141.291802L519.247596,141.939855L519.646986,142.521589L520.940167,143.823464L521.509720,144.740322L522.362629,146.829888L522.685932,147.914948L523.022386,148.343197L523.654824,148.497484L524.109382,148.798093L524.300022,149.479199L524.104960,150.128479L523.404575,150.333396L523.306416,151.637648L523.349018,151.978418L523.473594,152.518915L523.421097,152.806499L523.296231,153.088777L523.201998,153.597458L523.172341,154.596363L523.242933,155.329048L523.731789,157.010730L524.023767,158.741119L524.082448,159.661278L524.061814,160.288176L523.736879,161.166002L522.702147,162.839486L522.423277,163.643123L522.484718,164.545745L522.836716,165.071927L523.300509,165.539409L523.726590,166.244747L523.936005,167.137296L523.798904,167.762740L522.765715,169.072768L521.926661,170.888854L522.126141,172.577359L523.071318,174.076527L524.468907,175.329878L523.686107,176.578307L523.298938,176.940058L521.422612,178.205134L521.147825,178.486621L520.979689,178.888784L520.939278,179.334319L520.901864,179.746886L520.767214,180.058000L519.967921,180.564959L519.139915,180.618610L518.306777,180.546182L518.020200,180.590865L517.480966,180.674944L515.609755,181.799137L514.833201,182.121168L514.435375,182.604271L513.980946,183.806953L513.599221,184.413823L513.929501,185.173905L514.183682,186.947191L514.670103,187.654077L515.181983,187.796547L516.308960,187.947088L516.762987,188.108390L517.208328,188.492856L517.763328,189.356050L518.679528,190.472347L520.312587,193.373785L519.544816,194.523983L519.328081,195.078916L519.391325,195.644720L519.210232,196.110907L518.923920,197.399325L518.787890,197.601528L518.364377,197.898114L518.231821,198.132705L518.227737,198.429338L518.365014,198.955251L518.348696,199.216890L518.262640,199.678178L518.204529,200.552370L518.044367,201.057020L516.925479,202.574116L516.512599,202.800928L515.523076,203.187082L515.181947,203.451744L514.852352,204.159408L514.895835,204.721319L515.065372,205.202257L515.119083,205.640021L514.943538,206.137300L514.408565,206.994189L514.197785,207.486250L514.170554,207.972970L514.286269,208.329940L514.321665,208.713992L513.796654,209.836632L513.164039,210.085554L506.849944,210.827007L505.518788,210.770175L504.606435,210.228962L503.868370,210.448143L502.163587,210.396729L501.361009,210.553680L500.649486,210.843245L500.063549,210.997508L490.843703,210.580741L490.900002,210.716583L491.203758,211.449510L492.478436,215.089183L493.227660,215.755756L494.452508,217.371186L495.149472,218.021887L496.574535,218.737785L496.930371,219.190713L497.303020,220.340898L497.940537,220.848279L498.837517,221.263458L500.622836,221.719392L500.923803,222.243237L500.886367,223.364441L500.627540,224.564721L500.268833,225.322547L500.023462,226.064212L500.011414,227.227237L500.182228,228.347094L500.480679,228.966950L501.268762,229.578740L503.322410,232.067594L502.716482,233.030883L502.622513,234.135936L502.922100,235.192258L503.496523,236.017344L504.543689,236.586553L505.724965,236.886166L506.720356,237.335623L507.216933,238.343659L507.110943,238.877736L506.611909,239.907920L506.659242,240.349499L507.088331,240.773400L507.709024,241.085557L508.359891,241.193250L508.883943,241.002404L509.926982,240.404018L511.060803,240.281351L512.171842,240.578482L513.142387,241.228693L513.814097,241.868088L514.388774,242.814389L514.630822,243.848176L514.308895,244.751218L514.788713,245.123671L514.844326,245.602581L514.592385,246.137489L514.156467,246.668361L512.645340,249.357726L511.649518,250.638759L510.703902,251.380487L511.269957,252.417448L511.029858,253.240063L511.060109,253.995837L510.701385,254.209058L510.163929,254.625960L509.627972,255.148158L508.924250,255.474901L506.930583,255.893270L506.508334,256.230997L506.254631,256.732843L505.654553,257.396117L504.921399,257.973300L504.266302,258.218143L503.635714,258.706618L501.678939,260.222440L501.597818,260.422226L501.211574,261.127008L501.056512,261.507490L500.710172,263.317189L500.589528,264.526258L500.594390,265.064464L500.649182,265.486300L500.850924,265.817764L501.130833,265.976654L501.378881,266.162944L501.500756,266.571161L501.246883,267.306843L499.376250,269.829678L498.523281,272.503024L498.083434,273.125600L498.559638,273.822298L498.495732,274.436773L498.063434,275.026615L497.427489,275.661785L498.008692,275.948523L499.205179,276.818419L503.601356,282.505716L503.775319,282.816093L504.034144,283.523418L504.212032,283.854443L504.499827,284.153890L505.219718,284.685507L505.438069,284.921794L507.057704,289.239487L507.469726,289.626088L508.039311,290.160513L508.693572,290.171511L509.788154,289.950179L510.848998,289.488291L511.397728,288.774893L511.627279,288.849116L511.751651,288.860112L512.882381,288.527487L514.087050,288.428527L514.662929,288.841250L514.792816,288.934336L514.316808,290.449215L513.957715,291.238389L513.329996,293.015007L512.483690,294.629704L512.064975,296.241968L511.642080,296.907873L511.253949,298.199934L510.156736,298.325160L507.743217,297.342667L506.998821,297.271117L506.611507,297.677032L506.154204,298.784796L505.693050,299.366945L505.364488,299.572013L504.794289,299.730291L504.252172,300.004187L503.721387,299.938121L503.177676,299.772958L502.619538,299.730291L502.147783,300.037220L500.770001,300.309749L500.465047,300.626334L500.477917,301.055805L500.595677,301.562388L500.601014,302.106169L500.348157,303.049259L499.335690,305.536164L498.809336,307.354241L497.564676,309.424770L493.507636,312.694646L492.714769,313.786202L492.086197,315.390649L491.636420,317.957674L491.386734,318.761532L491.078128,319.190370L489.904585,320.390091L489.488767,320.656251L489.591383,320.983098L489.550688,321.245133L489.452558,321.485106L489.393964,321.748530L488.919759,322.268498L488.775414,322.483663L488.784587,323.042281L488.848705,323.105730L489.018617,323.097454L489.225103,323.829901L489.253133,324.191311L489.336122,324.503069L489.369849,324.556691L489.712711,325.101775L490.035998,325.446663L490.760940,326.049546L490.990981,326.376521L491.269784,327.374046L491.491158,328.679343L491.584374,329.853652L491.471990,330.455329L492.173236,332.116954L492.385101,336.360053L492.764945,338.113334L492.454769,338.925140L492.632571,340.131860L493.217501,342.479474L493.895524,342.873077L494.627264,343.168828L495.431047,343.073143L496.309158,342.296809L496.975236,342.011941L507.467604,341.748823L506.893943,341.459613L505.670621,341.307398L506.822040,340.799600L508.511303,341.350888L509.897914,341.801011L513.648199,343.640731L514.220460,343.573316L514.164441,342.994857L513.726433,342.059781L512.818747,340.620272L512.827099,340.287589L514.186307,340.285414L515.404391,339.446118L517.661801,337.006691L517.143756,337.952424L515.590257,340.183219L515.060004,340.620272L514.745763,341.290003L515.003294,342.686060L515.751957,343.882123L516.590376,344.304020L517.457465,344.708526L519.207522,346.172191L519.939523,346.491902L520.937114,346.757243L522.074406,347.366232L532.517230,354.942510L533.721469,356.228197L534.656027,357.907685L535.978537,361.458236L537.166625,363.042102L538.708739,363.020346L538.972816,362.415515L538.795170,359.186909L539.155526,358.064323L539.983813,357.455176L541.835028,356.745962L542.621649,357.442123L543.722380,357.416017L544.842923,356.972213L545.687342,356.415288L544.419789,358.007759L540.911697,357.746696L539.416496,359.001986L539.148002,360.274702L539.468248,362.502541L538.988730,363.747016L538.402649,364.236541L536.766722,364.810918L535.967354,365.209067L535.132298,366.088041L534.912908,367.045342L535.165423,368.046156L535.746340,369.042617L536.185442,370.071710L536.670494,372.199499L537.301358,372.876120L538.080713,373.074101L541.020871,373.272083L541.478101,373.511400L543.530690,375.469425L543.893296,376.489754L543.578672,378.119199L543.912219,378.939343L544.671159,379.043763L545.560421,378.758782L545.868692,378.795764L544.916835,379.848664L544.435067,380.560011L544.100033,380.858033L543.558617,380.979852L542.916048,380.233706L542.604099,379.718140L542.836553,379.265656L542.476241,378.782711L541.121089,377.525294L540.762565,377.446977L540.221997,377.694982L540.585003,378.130076L541.514312,378.915413L542.450141,380.779721L543.068758,382.380744L544.045821,384.734302L545.493483,386.430853L545.864331,387.346517L546.133195,388.323050L546.225503,389.210382L546.491824,389.980249L548.842638,391.241566L549.788152,392.846389L550.606332,394.633744L551.692970,396.114399L553.992404,396.784030L555.938389,396.418780L556.884873,396.405735L557.712103,396.949260L560.488271,399.701440L561.394948,401.066510L562.044570,401.670759L563.877721,402.201090L564.727180,402.731404L565.623638,403.035676L566.664567,402.653162L567.420884,403.248662L569.227195,404.274437L569.976357,405.893375L571.322171,405.491372L571.956549,405.082840L576.339639,403.529018L577.259501,403.170423L577.563940,402.883541L577.866212,402.522758L578.013699,401.922886L577.894451,401.488182L577.663613,400.966524L577.560633,400.138360L577.785587,399.747089L577.512077,399.051474L577.489247,398.290616L577.694818,397.612341L578.103103,397.157970L578.254403,396.636191L579.095756,396.664455L580.112924,397.034048L580.795406,397.523206L581.130915,398.700944L581.983587,398.700398L582.234765,396.205714L582.450118,395.653472L583.920335,393.022521L584.425048,392.304936L584.251808,391.822185L584.211507,391.417710L584.932538,391.143707L585.292340,390.900147L585.615880,390.608741L585.836001,390.365175L586.239510,389.564872L587.003251,387.616209L587.047748,387.113798L588.278703,385.017067L588.861267,384.266648L589.427390,383.933849L590.127883,383.692404L591.719724,383.498812L592.258364,383.313920L594.287358,382.074031L597.258218,381.813251L600.361407,379.687685L600.860781,379.304813L601.276389,379.169938L602.245243,379.215621L607.273730,379.842138L609.072706,379.894347L610.923557,379.476671L611.842662,379.111201L612.256314,378.871904L613.782275,377.885813L615.000966,375.572796L617.739455,375.204006L619.052109,373.074101L619.249320,372.212553L619.724056,371.435848L620.323557,370.802733L620.577737,370.352371L621.821279,368.255021L622.390105,367.763317L623.136297,367.550100L630.866332,368.163643L632.070417,368.002642L635.844324,367.450132L637.168298,366.496687L638.179691,366.259920L642.315583,367.393447L645.429039,366.506087L647.642502,366.047235L649.157950,366.554961L652.273590,367.537572L654.508373,367.285701L655.129535,366.720926L656.572492,366.618839L657.931429,366.550899L658.557957,367.404864L660.134267,368.164484L660.735512,367.841864L661.608825,367.700698L663.255960,369.034790L665.963940,369.065787L667.553516,368.083143L668.448748,367.439140L669.059150,366.851706L669.706419,366.425272L674.121612,365.894406L677.201909,366.445274L680.685005,366.165601L684.525386,366.841846L686.895023,366.064109L687.730565,366.135906L688.930443,366.986598L690.100242,368.561792L690.552988,368.814171L690.952988,368.696684L691.351491,368.198454L691.742619,368.083143L692.536730,368.435603L693.382387,369.114415L694.515008,369.875900L695.406363,369.499509L696.181886,369.786698L697.653998,369.575657L698.763199,369.103536L699.258474,368.603130L699.471655,368.450833L700.588669,367.306424L701.498142,364.917526L702.375926,362.874577L703.078044,362.474258L706.522680,361.878132L707.043708,361.995617L708.212211,362.500365L708.611653,362.609148L709.497034,362.408988L710.910739,361.673623L711.716324,361.512626L712.692267,361.647515L713.590711,361.986914L715.124489,362.939847L716.270112,364.153865L717.318764,365.613743L718.524765,366.840827L720.147646,367.352113L720.990266,367.225924L721.860987,366.879990L722.542407,366.360002L722.994589,365.341783L723.403343,365.176431L723.885893,365.050242L724.284680,364.797864L724.515466,364.358378L724.746871,363.348870L724.917424,362.939847L725.633768,362.178370L726.318199,361.673623L726.830722,361.031814L727.290840,358.825765L727.897206,358.105658L729.424279,357.065760L729.967429,356.534940L730.232724,356.410937L731.204578,356.339146L731.536890,356.208618L731.750321,355.930159L731.825806,355.455911L731.749635,354.990369L731.593754,354.583567L731.475372,354.107157L731.516870,353.448022L732.441631,351.957935L733.753299,348.690823L733.995720,347.203108L734.528490,345.750265L734.861273,343.892997L735.638013,341.718379L736.751710,340.213660L739.307923,337.691528L740.596981,335.874045L741.173893,334.776245L741.422416,333.843710L741.826479,333.369853L742.606303,333.479300L742.908329,333.052596L743.097833,332.422842L744.091304,331.822298L746.301098,330.879054L746.940353,330.759522L747.340524,330.609565L748.201269,329.879360L748.587837,329.635966L748.883193,329.664217L749.114382,329.846762L749.367256,329.924997L749.739977,329.635966L749.787604,329.286093L750.256150,327.525981L750.368348,327.265241L750.508608,327.017542L750.830309,326.711183L751.174565,326.459148L751.405495,326.352686L752.264598,326.170182L752.987893,325.720449L754.920894,323.860834L755.610582,323.404658L756.889400,322.759892L758.355309,322.950669L759.569765,322.991015L759.745044,322.491778L760.394662,321.841110L760.986000,322.007985L762.247890,322.515733L763.160876,322.658865L763.382516,323.129037L763.654334,323.733379L764.944336,324.040603L766.300048,324.353759L765.824841,323.432897L765.691577,322.918087L765.923974,322.403296L766.410826,321.990609L767.088552,321.751690L767.858836,321.660468L770.602550,321.721283L772.023665,321.990609L773.740044,322.811651L774.108294,323.085344L775.170691,322.383747L775.772808,322.103553L776.326899,321.990609L777.945886,321.990609L779.176530,321.347711L779.888890,321.186991L781.076578,320.752624L781.488570,320.500698L781.869265,320.761311L782.259469,320.761311L782.637936,320.548476L782.992225,320.168423L783.615652,319.688486L783.793023,319.058732L783.502911,318.435525L782.706295,317.981710L782.342548,318.630952L781.481732,318.526724L780.493688,318.057707L779.104598,317.160979L778.679191,316.637737L777.270884,314.126070L777.122960,313.127635L777.483560,312.402740L778.445183,312.120609L779.013887,311.656192L780.075866,308.844087L781.248306,310.267404L781.449982,309.737977L781.262794,307.616199L781.255954,307.551121L781.349690,306.683452L783.095520,302.437331L783.509792,301.730554L784.327953,300.885093L785.473081,300.451555L785.856762,299.970352L785.946881,298.988518L786.148387,295.471737L786.283610,293.223331L786.469730,292.391709L786.745056,291.638126L787.208239,290.754707L787.821993,289.923345L788.603458,289.306376L789.575095,289.063932L791.124427,289.172165L791.875012,288.994664L792.368754,288.371277L791.742026,283.509358L792.131551,281.398574L793.658881,281.485069L793.823228,280.680708L794.270643,280.246132L794.887484,280.066688L796.273035,279.993183L796.432764,279.772671L796.426617,279.221421L796.603357,278.183898L797.073870,277.392896L798.645179,275.683703L798.985127,275.467655L799.255557,274.851957L799.907377,274.404804L804.015833,272.726638L805.385351,271.774365L806.467257,271.368451L808.413638,270.938816L810.200471,270.938816L810.835821,270.694866L811.497493,270.017038L811.774139,269.261587L811.711300,268.529968L811.725460,267.759599L812.232983,266.887929L812.841844,266.413311L813.445389,266.214846L814.725907,266.197588L815.514841,266.057373L816.085073,265.800680L816.678046,265.662631L817.543990,265.865391L817.223659,265.112625L817.648440,264.278010L818.106560,263.924359L818.606663,263.663448L819.176570,263.120102L819.484300,262.977806L820.313222,262.932530L820.481001,262.742809L820.564865,262.609145L821.067811,261.492532L821.675944,260.936464L822.333134,260.598108L823.060352,260.423551L823.864591,260.378296L824.157957,259.971021L824.136226,259.143633L823.862926,258.490862L823.439971,258.600729L822.275037,257.696008L821.935676,257.347085L821.421630,257.120944L821.854895,256.812976L822.040107,256.726834L820.693392,255.273403L818.847473,254.272385L816.788823,253.697693L814.828261,253.510448L813.661049,253.226365L812.749044,252.535591L811.135079,250.915545L809.531905,249.693862L808.899952,248.921860L807.298235,246.226180L806.183552,244.107903L805.070176,242.184984L804.356334,240.439046L803.937704,238.526081L803.695181,237.565374L804.309855,237.092532L804.840320,236.744986L804.312693,235.822846L803.846891,234.973967L801.168320,229.363195L800.344641,225.885452L800.056167,223.649245L799.925952,221.036930L800.238372,219.156713L800.694160,218.223546L802.033853,216.368558L802.316677,215.715577L802.545747,214.830177L803.065550,213.910861L803.653012,213.134631L804.675815,212.068644L805.142868,211.403623L805.434257,210.525638L805.534487,209.264437L805.762885,208.714929L810.178287,201.787321L812.854800,198.974259L813.955249,197.400896L815.809256,193.702690L816.905231,192.189047L819.076223,190.917614L820.249779,189.746208L822.837050,184.925079L825.372948,182.937664L826.825056,181.016877L827.390056,180.459223L828.534094,179.584899L829.029533,179.038029L831.990376,173.679351L833.091290,172.633861L833.366159,171.306352L833.940041,170.446886L834.673535,169.703442L835.434119,168.711711L836.117034,167.152005L837.433981,164.154377L838.069311,163.239780L838.777797,162.535583L839.611366,162.016451L843.117463,160.957384L844.405688,160.856535L845.265101,160.982596L843.720029,163.222962L842.315704,164.030316L841.354207,163.403761L839.303754,163.649745L840.305519,165.130188L841.670336,164.951411L842.909637,164.524483L844.181914,163.582466L846.271638,160.543501L847.446013,159.577244L850.179311,158.833807L850.592791,158.271072L851.198199,157.196217L851.249533,156.121651L850.417634,155.853054L849.891600,155.905513L848.787707,155.066252L847.765921,153.891577L847.276425,153.463744L846.697461,153.178547L845.984317,153.128220L846.553230,153.520366L846.713709,153.899967L846.506877,154.155850L845.987748,154.181019L844.767922,153.732183L843.630806,153.128220L844.449860,151.622891L849.050593,147.277670L851.364122,144.439118L856.144786,140.073935L857.289530,139.453075L858.910804,138.780050L860.692582,138.472833L862.561963,138.428947L862.876982,138.535529L863.892461,139.099829L864.344158,138.899181L864.556885,138.604495L864.717236,138.209521L865.457128,136.983018L865.784056,136.736503L868.765965,136.141162L879.403196,132.489306L883.013996,132.247201L891.290897,129.941559L892.741535,129.999969L893.154970,129.891493L894.014121,129.409643L896.860076,128.733881L899.757645,128.469024L901.476195,128.020677L904.441203,126.532039L905.817359,125.354368L907.017061,123.812348L909.040651,120.525636L910.167999,119.109944L911.404232,118.256547L914.553512,117.034968L916.978139,115.514100L917.837742,114.682066L926.368143,111.101568L931.704241,109.043751L932.260902,107.847373L932.757175,107.866070L933.155676,107.780895L933.316252,107.406969L933.444333,107.186779L934.084928,106.644649L934.283332,106.538721L934.743193,106.409948L935.847516,106.165589L936.843806,105.923216L938.199233,105.629340L938.943842,104.516061L942.689699,101.832075L943.895764,101.210549L944.281022,99.806042L945.881335,98.737857L947.292641,98.850946L948.471252,97.327827L949.153147,96.662114L949.663856,95.355768L950.685465,93.720078L950.818660,92.727244L950.596357,92.345900L949.796709,91.755272L949.624160,91.479663L949.581341,91.139828L949.338887,90.083128L949.086659,89.285014L949.244312,88.619521L949.792405,88.120858L949.845908,87.492344L948.890032,86.240965L948.065370,85.269810L946.596888,84.474788L945.907149,83.820612L945.639790,82.907754L945.663159,81.665939L945.695568,79.861504L946.164056,78.773239L947.051064,77.904383L947.831787,77.759582L948.199756,78.266395L949.532679,78.773239L951.090522,78.469129L951.764598,78.767033L952.065762,78.245709L952.442631,77.964372L952.759754,77.594098L952.888806,76.824641L953.035568,76.317912L954.007243,74.541487L952.985405,73.931504L952.431399,73.836391L951.984270,74.225118L951.695969,74.225118L951.129238,73.513844L950.144813,73.548993L949.206687,73.697860L948.488811,73.193375L947.935899,72.467709L947.923098,71.599465L947.729493,70.801578L948.073664,69.714408L948.158291,69.029312L946.343787,69.310967L945.242283,69.358211L944.164646,69.247975L943.294213,69.002574L942.784814,68.716499L942.369847,68.329392L942.032076,67.854387L941.754113,67.294119L941.474362,67.223267L940.241362,67.194402L939.791547,67.107807L939.078741,67.530293L937.709031,67.061885L936.337029,68.024966L935.632790,68.129940L934.909412,68.107633L934.230746,68.171929L933.560305,68.530161L932.302744,69.635118L931.632437,70.018339L930.753965,70.143020L929.099828,69.915970L928.237916,69.973716L927.497174,70.314951L925.734980,71.569750L925.404825,72.008182L925.800258,72.979629L926.329750,73.506091L926.349908,73.726662L925.221738,73.784432L924.291457,73.628192L922.344834,73.034768L921.530072,73.054461L921.206359,73.322285L920.862998,74.145500L920.582583,74.393661L920.142470,74.405478L919.670060,74.263671L918.810734,73.830385L918.028420,73.645260L917.206830,73.068902L916.535442,72.277289L916.216799,71.456864L915.545420,71.427987L914.230976,71.170717L911.766679,70.140395L911.257272,69.766356L910.074694,69.174485L908.751676,69.301781L906.153894,70.028838L904.160597,69.804416L903.492473,70.089210L903.294666,70.354325L902.983953,71.103776L902.786403,71.399109L901.786485,72.088256L901.082664,72.766952L900.597241,73.049209L899.905764,73.206752L898.808490,73.317034L898.236786,73.235635L897.715398,72.937618L896.881460,72.293041L896.473407,71.508057L895.902851,69.607558L895.320128,68.754554L894.664408,68.497355L893.875610,68.457989L892.884990,68.251973L890.507498,66.807353L889.620627,66.478045L887.000613,66.156619L886.223137,65.869312L886.243664,65.713199L886.212165,65.585949L886.128600,65.482313L886.001731,65.408850L885.604452,65.831268L885.135670,66.026740L884.626189,66.031988L884.124115,65.869312L884.014026,65.711887L883.896124,65.669908L883.770272,65.726318L883.619077,65.885055L883.172287,67.254757L881.825888,67.762537L879.171111,68.070892L878.937605,68.309709L878.756734,68.601021L878.493063,68.889718L878.006856,69.129867L877.662996,69.171861L875.108099,68.868721L874.622413,68.548532L874.618157,67.912121L873.391806,66.222216L874.104098,65.932283L874.343248,65.877184L875.171408,65.343259L875.022290,64.540455L874.278160,63.952820L873.329752,64.065622L873.465280,63.488505L874.154702,62.413050L874.157753,62.217643L873.803747,62.005191L873.852807,61.526533L874.084438,61.013801L874.269552,60.708270L873.655540,60.000205L872.934779,58.260381L872.119038,57.265371L871.367471,56.073822L871.014042,55.904734L870.618068,55.885073L870.403643,55.681908L870.581797,54.961025L869.592974,54.722487L864.408375,54.708070L863.005715,55.111751L862.540023,55.059324L861.815492,54.590113L861.381219,53.891569L861.059616,53.105259L860.642705,52.376651L859.896109,51.783048L859.016589,51.539324L855.428593,51.324431L855.106070,51.152781L854.408158,50.647015L854.051122,50.525162L853.621281,50.649635L853.226914,50.935273L852.827742,51.121334L852.374865,50.953617L851.702849,50.362693L851.336637,50.113752L850.087251,49.681391L848.266554,48.724999L847.544610,48.612332L846.727735,48.683076L845.992667,48.540278L844.539227,48.031980L843.800159,47.966479L842.648670,48.041150L841.680521,48.380451L841.482825,49.108859L841.577440,50.192364L840.990491,51.612703L841.457470,52.185333L841.145062,52.404170L840.989169,52.619080L840.734130,53.128847L841.330474,53.318869L841.836679,53.883706L842.126117,54.651712L842.085173,55.468260L842.001787,55.592373L841.721459,56.009595L841.169540,56.187860L839.676935,56.009595L834.431081,56.145915L833.732316,55.885073L832.127926,56.261264L831.306906,56.300588L830.464876,56.153780L830.259018,55.979447L830.228193,55.771038L830.241950,55.560010L830.149220,55.394860L828.984195,54.512786L828.221273,54.756563L827.476340,55.423696L826.297397,56.907501L825.672120,56.988775L825.015432,56.294034L824.111180,54.874521L823.438873,54.578317L821.198540,54.058011L820.515799,54.152372L819.726727,54.628121L817.145486,54.970199L813.898527,56.033189L812.441234,56.153780L810.779703,55.569185L810.536200,55.345054L810.340569,55.089470L810.050337,54.858793L809.514331,54.722487L809.070788,54.545552L808.953543,54.217901L808.899386,53.860116L808.641877,53.579661L807.948579,53.072497L807.441434,52.321614L807.196431,51.444980L807.290578,50.564469L806.533889,50.848795L805.315198,51.146230L804.188191,51.026993L803.689310,50.083617L801.247410,48.766289L801.151455,48.714518L800.505734,48.173463L800.275692,48.676526L799.983867,49.063005L799.654424,49.175675L799.289846,48.845527L797.266025,50.261806L796.247689,50.801626L794.962805,50.890724L792.695629,49.948667L791.624133,49.922463L791.547191,51.129196L791.177353,51.240571L790.471885,51.670358L790.141319,51.716220L789.735433,51.477739L789.742778,51.175056L789.802365,50.846175L789.559743,50.539575L789.375120,50.488475L788.692583,50.488475L788.414678,50.374485L788.423918,50.184503L788.504972,49.964389L788.444732,49.748209L786.818366,47.804037L786.072586,47.248604L784.632408,46.453477L784.206769,46.390602L783.795949,46.444307L783.383293,46.398461L782.956563,46.029075L782.723549,45.566700L782.770129,45.294258L782.912152,45.061114L782.935117,44.706165L782.763079,44.309202L782.153055,42.901405L781.029318,42.558286L777.786952,43.075587L774.439006,42.830685L772.834009,42.367084L771.374954,41.394083L770.865067,40.863733L770.168947,40.685643L768.715002,40.524578L768.401368,40.291494L767.708636,39.898663L767.344560,39.771649L765.767663,39.899972L764.403245,38.908761L762.963704,38.200407L760.530509,37.816780L759.743013,37.392572L759.037760,36.668556L758.853171,35.990384L759.197998,35.326633L760.080922,34.657663L759.134093,34.435113L758.190422,34.750611L757.463243,35.473259L757.165932,36.489192L757.055389,37.816780L756.692810,38.501553L755.977266,38.709739L754.827312,38.623322L753.800012,38.379785L752.874211,37.905812L752.117660,37.142502L751.597992,36.044061L751.946051,35.615958L753.686833,33.967766L754.222677,33.335485L754.873412,31.733249L755.342353,29.714870L755.194253,27.861528L753.996249,26.763442L753.493337,26.758207L753.028395,26.904791L752.561781,26.978083L750.818078,26.167950L749.515627,25.823746L748.683444,25.797571L748.054473,26.133922L747.716293,26.999024L747.474465,27.442707L747.015234,27.675676L746.485755,27.735881L746.033083,27.675676L745.523029,27.467575L745.316704,27.235916L745.017809,26.369500L744.951924,25.925829L745.071399,25.616963L745.079779,25.377463L744.667844,25.115716L743.875054,24.780681L743.491740,24.741420L742.637366,25.060749L741.734831,25.166756L741.241046,25.380081L740.787474,25.446826L740.689512,25.254828L740.578475,25.037192L740.445839,24.051728L739.928827,23.424864L738.730541,22.907935L738.725003,22.290245L738.764484,21.223697L738.869068,20.634504L738.152242,20.175055L736.631240,20.892221L735.047094,22.153464L733.331354,22.831496L733.616114,23.037586L733.974519,23.402368L734.206939,23.550755L733.614791,23.927906L733.286013,23.680594L732.991956,23.185972L732.495301,22.831496L731.877858,22.808826L731.396567,23.004612L730.434156,23.550755L727.450556,24.504974L726.573904,24.624510L726.050124,24.781145L724.828136,25.628216L724.533975,25.518982L724.411776,25.284027L724.320325,25.047012L724.120077,24.935719L723.839617,24.991365L723.637025,25.108842L723.499282,25.226319L723.387774,25.281966L722.875722,25.121208L722.502279,24.762596L722.214194,24.403987L721.970137,24.243232L721.483371,24.282390L720.085495,24.624510L718.257392,24.814120L716.480974,24.645120L714.793116,24.195830L710.744796,22.497631L709.957454,21.413614L709.018006,21.083879L707.223986,20.756206L704.802998,19.830900L703.499070,19.624820L703.030618,19.443470L702.534137,19.321883L702.040208,19.402254L701.834556,19.612455L701.789982,19.896845L701.799778,20.197723L701.762551,20.440900L701.426504,21.372397L701.255074,21.570239L701.105036,20.502724L700.635303,19.233269L700.279138,18.685101L699.461464,17.961772L698.592607,17.380639L698.058684,17.267298L697.329161,17.502223L696.443371,17.815458L694.461208,17.988562L692.323921,17.906131L691.282319,18.005048L690.581450,18.367742L690.577038,18.680979L690.860138,18.680979L690.854810,19.060163L690.182221,19.225026L688.344865,20.212149L687.853002,20.729415L687.291141,20.892221L687.079539,21.133339L687.076588,21.337363L687.316979,21.702134L687.451253,22.328638L687.930199,23.550755L687.924729,23.932028L685.864400,22.338943L684.547877,21.603213L683.579466,22.252386L682.778884,22.165829L681.970158,21.941194L680.882907,21.636186L679.928825,20.659347L679.492076,20.440900L678.947628,20.350224L677.053892,19.717556L674.486827,19.402254L672.496181,18.784018L671.892419,18.680979L670.640362,19.010704L670.056158,18.963306L669.612313,18.367742L669.006918,19.295093L668.618266,19.076649L668.151930,18.505814L667.320306,18.367742L667.991133,18.023595L668.333407,17.745392L668.481475,17.454826L668.666739,17.182807L669.060692,17.281723L669.452512,17.510466L669.624268,17.642354L669.966532,17.568167L670.228187,17.625868L670.396481,17.553742L670.465164,17.108620L670.422489,16.799509L670.292052,16.539856L670.080237,16.356451L667.207937,15.915455L666.819245,15.711443L666.369545,15.284873L665.813257,14.913944L665.092805,14.876851L665.187760,14.005170L664.138946,13.937166L660.912083,14.827394L660.448240,15.031405L660.025870,15.396152L659.543874,15.659925L658.304807,15.736172L657.843003,15.915455L658.148282,16.292568L657.963044,16.354390L657.906780,16.354390L657.830650,16.607861L657.545484,16.440941L657.304667,16.368815L656.719527,16.292568L656.713862,16.607861L656.987419,16.851028L657.224463,17.324999L657.313474,17.782486L657.130733,17.988562L656.749077,17.875220L656.365767,17.380639L655.999495,17.267298L655.833195,17.411550L655.261239,18.110146L654.964955,18.367742L654.344439,18.635642L653.964708,18.697466L653.501134,18.680979L653.495053,18.454294L653.560838,18.400714L653.675022,18.404836L653.818952,18.367742L653.594326,18.248218L653.404191,18.108086L652.974487,17.642354L653.543918,17.090074L654.319412,16.640832L656.155167,15.915455L654.999791,15.229234L653.759286,15.012859L652.495168,15.247780L651.265556,15.915455L651.060114,15.686714L650.938479,15.626953L650.407999,15.915455L649.724179,15.742354L648.992667,16.020552L647.527530,16.949943L647.521497,17.267298L647.899723,17.553742L648.083912,17.642354L647.825564,17.687691L647.622602,17.689752L647.433851,17.751574L647.221300,17.988562L646.217105,17.353849L645.922068,17.267298L645.578977,17.374457L645.504546,17.609382L645.464059,17.852551L645.219291,17.988562L643.343474,17.988562L642.344961,18.122511L639.680351,18.854085L638.506341,19.653671L633.289086,20.140021L631.341877,19.942183L630.944169,20.119413L630.490778,20.756206L630.226375,20.756206L629.430372,20.078196L628.278227,19.793805L627.088591,19.991642L626.197212,20.756206L625.107265,19.802048L624.933600,19.787623L615.618510,19.060163L614.782945,18.829355L611.398146,17.405368L608.432119,16.855149L607.494697,16.405909L607.045557,16.292568L606.561051,16.377058L605.939604,16.842785L605.599450,16.949943L602.690816,16.162742L602.180880,16.451245L601.749864,15.804176L600.751725,15.556889L597.143102,15.400274L595.729264,14.944855L592.753544,13.166461L592.094237,12.954208L590.335833,12.803777L589.711126,12.906812L589.477678,13.170583L589.347984,13.508539L589.032705,13.838252L588.599886,14.031959L587.711718,14.299851L587.276183,14.530651L586.997090,14.184451L587.735604,13.574481L588.293307,12.768745L588.180295,12.063983L586.916779,11.765180L578.474859,12.078408L576.310608,11.765180L575.843890,10.883196L575.532875,10.666821L575.295118,11.386010L575.007141,11.386010L574.259206,10.326803L572.025807,7.921931L571.145458,7.239821L569.801242,6.646320L569.138084,6.609226L568.838690,7.081142L568.633936,7.699370L568.140171,7.934295L566.791193,7.932234L566.872037,8.084730L566.977356,8.455663L567.054452,8.620522L566.518281,9.146009L566.684059,9.547851L566.952838,9.922902L566.721741,10.382443L561.859077,10.382443L561.193589,10.652396L560.554006,11.085146L559.919759,11.332431L559.267027,11.043932L558.610370,11.357160L555.368422,11.043932L554.831342,10.883196L553.526791,10.005331L552.953637,10.085699L552.632556,10.339168L552.369018,10.605000L551.360397,10.829618L550.252740,11.285035L549.639657,11.386010L547.482390,11.386010L545.313458,11.765180L544.723997,11.649780L543.754615,11.146967L543.180170,11.043932L543.249754,11.272671L543.337839,11.839366L543.405414,12.078408L542.345697,12.070165L541.865329,12.173200L541.418489,12.457578L539.912635,11.730148L537.793768,11.052175L535.666614,10.858468L533.326270,11.946522L532.244340,11.835244L530.534382,11.386010L528.020287,11.563231L527.388793,11.386010L523.279392,11.519956L520.859171,11.991858L520.442687,13.178825L519.869336,13.553874L519.603997,14.246273L519.442593,15.091166L519.179574,15.915455L518.947710,15.915455L518.917022,15.915455L518.568174,15.037587L518.810160,14.332823L519.276901,13.735217L519.583694,13.178825L519.556084,12.177322L519.065985,11.853791L518.345512,11.742512L517.614635,11.386010L516.909632,11.773423L514.347138,11.859973L512.766313,11.645659L511.914818,11.383949L511.301306,11.386010L510.795308,11.579716L510.467128,11.853791L510.123211,11.991858L509.572159,11.765180L509.585376,11.386010L509.839184,11.241760L509.963413,11.099571L510.057686,10.936775L510.208057,10.728643L508.254851,9.869324L505.765205,5.741636L504.087512,5.176976L500.696436,3.449996L500.204822,3.297492L498.562931,3.130561L497.954574,3.334587L497.536704,3.730273L497.155876,3.996122L496.654828,3.823011L496.286211,4.546366L495.736805,5.183159L495.364250,5.312990L495.516034,4.515453L494.552336,2.753420L494.434643,2.065079L493.711666,2.376276L493.434763,2.407190L493.102350,2.512296L493.023885,2.747237L493.038666,2.992482L492.967177,3.130561L492.592275,3.278944L492.272881,3.353135L492.088515,3.136744Z "/></g></svg>