<?xml version="1.0" encoding="utf-8"?><!DOCTYPE svg  PUBLIC '-//W3C//DTD SVG 1.1//EN'  'http://www.w3.org/Graphics/SVG/1.1/DTD/svg11.dtd'><svg enable_background="new 0 0 1000 870" height="870px" pretty_print="False" style="stroke-linejoin: round; stroke:#000; fill: none;" version="1.1" viewBox="0 0 1000 870" width="1000px" xmlns="http://www.w3.org/2000/svg" xmlns:xlink="http://www.w3.org/1999/xlink"><defs><style type="text/css"><![CDATA[path { fill-rule: evenodd; }]]></style></defs><metadata><views><view h="870.517752396" padding="0" w="1000"><proj flip="auto" id="robinson" lon0="38.9619408806"/><bbox h="192.44" w="221.32" x="487.17" y="-249.51"/></view></views></metadata><g class="" fill="#000" id="country"><path d="M440.957277,868.517752L443.089091,868.390649L444.188089,866.400009L445.577318,861.360834L447.271570,859.014303L451.593693,854.487453L456.772030,849.049367L458.022495,847.144765L459.094156,844.811921L460.878564,839.233041L462.133100,835.275223L463.452071,833.405819L469.128938,830.271242L474.832899,827.136665L481.255051,823.595355L484.252939,821.894118L484.549974,821.450233L484.494547,820.978970L484.552127,820.677832L485.195147,820.748228L485.397276,820.877287L485.598401,820.939862L485.784598,820.928129L492.508770,818.256991L497.743796,816.182264L498.096858,815.798997L498.471543,814.576844L498.845017,814.175978L507.414892,810.415657L514.421120,807.347563L519.939371,804.932588L524.099950,801.798008L525.605058,803.999840L529.677920,807.091400L531.354054,809.211102L532.508968,811.551770L533.211206,812.318305L534.437010,813.020310L537.645194,814.252240L538.733332,814.979666L540.508046,816.802140L544.899544,823.595355L547.907853,826.211740L551.168065,827.699833L554.668008,828.159362L561.481493,827.719387L568.963780,827.230526L572.302271,826.166765L574.067743,826.057260L579.394389,824.561345L580.458711,824.643473L582.238740,825.474537L583.194437,825.673993L584.157032,825.427607L586.958752,823.595355L590.152349,824.768622L593.120347,826.528522L596.105761,827.187507L599.351979,825.085404L600.226075,823.595355L601.131042,822.758425L601.468255,821.813945L601.376490,819.494788L601.808772,818.022338L602.977219,816.837338L607.639387,813.561968L611.360132,810.151672L613.644271,808.839568L615.801528,808.219692L621.577646,808.153206L626.615345,808.094543L634.452265,806.582984L644.655592,804.604073L654.665953,802.664271L659.399257,801.747167L662.173392,800.481993L664.633916,798.632141L664.716030,798.525769L666.639897,796.033353L667.606213,793.596867L668.702854,788.305429L669.556211,785.759437L669.983884,784.947927L670.495567,784.206812L675.424870,779.550893L680.930106,774.343536L688.438414,770.272294L695.990240,766.173675L703.418357,762.149362L707.989612,759.671809L715.433762,757.720271L720.481125,756.400343L727.039033,754.683459L729.030418,754.163309L734.803752,751.828503L737.240869,751.165606L741.261562,751.431547L744.729543,751.658379L748.190597,751.883256L751.658670,752.113999L755.119704,752.336920L758.587721,752.563752L762.048919,752.794495L765.516916,753.019371L768.974645,753.248159L772.439209,753.473036L775.907268,753.699868L779.207126,753.914266L779.368399,753.924744L782.836475,754.151577L786.297586,754.374498L789.765680,754.601330L793.226919,754.830117L796.691579,755.056949L800.315171,755.295514L802.229842,754.380364L807.388456,747.917604L807.405705,747.917604L811.109893,743.211771L818.098816,734.343798L825.088161,725.471911L832.067601,716.600022L839.047511,707.732043L839.802841,706.772159L846.024308,698.864062L852.997773,689.988258L859.968176,681.120275L866.935300,672.252292L870.890395,667.522049L874.858265,662.789851L878.821745,658.059608L882.791129,653.329366L886.759511,648.599123L890.726882,643.868881L894.679400,639.136684L898.637875,634.408398L901.436244,631.263409L902.806589,629.723133L904.129865,628.235033L907.041584,624.969427L909.956192,621.701865L911.278988,620.217677L914.434318,616.670486L917.589036,613.123296L920.739643,609.574151L923.896712,606.032827L927.056365,602.481727L930.208592,598.934539L933.360284,595.391261L936.504253,591.840163L939.654571,588.292975L942.811037,584.741878L945.960161,581.198602L949.108533,577.651417L952.263240,574.108143L955.417187,570.560958L958.563475,567.009864L961.709197,563.462680L964.854245,559.915498L967.998617,556.368316L970.541159,553.496242L971.142203,552.817225L974.285313,549.273955L977.434518,545.726776L980.576141,542.179597L983.713728,538.636330L986.857289,535.085242L989.993471,531.541977L993.135723,527.994802L996.287594,524.447628L999.424969,520.900454L989.930041,520.904365L977.748702,520.904365L969.062998,520.904365L958.565763,520.904365L948.202843,520.904365L938.707804,520.904365L932.784060,520.900454L928.810817,518.702537L924.557987,517.102985L918.912862,514.971554L913.254209,512.847944L907.609142,510.716513L901.950439,508.588993L896.295209,506.461474L890.646897,504.333955L884.988340,502.208392L879.336702,500.082829L873.681652,497.957267L868.033356,495.825839L862.381759,493.698322L856.730195,491.570805L851.085551,489.443289L845.427224,487.317728L839.775763,485.190213L834.120894,483.062698L834.117451,483.062698L828.175096,480.872610L822.246555,478.682522L816.307896,476.498301L810.376167,474.314080L804.437263,472.118127L798.512454,469.931952L792.570478,467.745777L786.642263,465.557647L780.707154,463.367563L774.778977,461.177479L768.837193,458.991306L762.909113,456.801223L756.974255,454.613095L751.039391,452.423013L745.104691,450.236843L739.169930,448.046762L733.770993,446.056135L731.119242,444.331447L726.327488,439.550426L717.593072,430.831180L711.477679,424.741988L706.197616,419.464300L705.230575,418.879629L704.166312,418.957846L702.563233,419.659843L701.320643,419.526874L696.090587,416.050133L692.545599,413.703628L691.663851,412.520598L691.332301,411.100963L691.087426,408.562827L690.640455,407.201855L689.026583,403.774006L688.397179,403.097431L687.025186,402.096257L686.365392,401.439236L685.896731,400.619916L685.213660,398.973455L684.551006,398.224530L683.991440,397.923396L682.176642,397.407166L680.666172,395.592539L679.673483,392.606619L677.373929,380.541715L676.025452,378.111138L673.499466,376.849898L670.447386,376.249587L667.977912,375.144780L666.062490,373.066178L664.679424,369.552307L664.057436,367.066266L663.133042,364.592682L661.864979,362.347880L660.232383,360.537178L653.701563,355.875503L651.893518,353.534889L649.874220,348.916237L648.472005,344.057073L647.393490,337.148656L646.603535,335.079847L645.530037,333.589836L641.726106,329.573454L639.848151,326.431134L638.408383,323.040481L638.265383,321.437058L639.107634,320.725294L640.418922,320.267732L641.683526,319.444511L642.438551,318.187193L642.876315,316.697183L643.411441,313.621350L643.981338,311.783281L644.723521,310.568982L647.027695,308.406317L648.023024,307.166598L648.409343,306.007051L648.627552,304.757555L649.097865,303.247992L650.080467,302.049336L652.825189,300.737268L653.901922,299.683312L654.365952,298.402530L654.931842,295.316921L655.699739,293.695901L654.647822,293.287224L654.003803,293.930548L653.369319,294.847627L652.400735,295.250438L651.522297,295.086185L649.861406,294.554318L647.101770,294.239500L645.604680,293.871886L644.440548,292.806198L642.619622,288.684231L641.322715,288.146499L639.733022,288.076104L634.975364,286.818787L634.479908,286.862109L631.933970,287.084721L626.020756,289.130061L621.716111,292.397521L620.313190,293.158168L619.307918,293.099507L618.263525,292.704517L616.749199,292.430762L614.606334,293.255938L614.038158,293.318510L612.847763,293.271581L612.279720,293.338064L609.950264,294.534764L609.058825,294.788965L607.800774,294.773322L604.355259,293.891440L600.708144,294.341181L598.944245,295.004058L596.963083,297.354440L595.145959,297.872619L591.386138,298.048604L590.939641,298.255875L590.650106,298.633266L590.309203,298.914843L589.728767,298.820984L589.317436,298.445548L589.130416,297.997764L588.890476,297.610596L580.975203,295.823368L579.294979,295.113560L578.786156,294.401302L578.421911,293.891440L579.544025,291.736598L579.852445,288.504335L579.505694,273.948396L578.398547,265.722058L576.371644,257.022512L576.175320,252.892719L577.891209,246.029283L578.595146,240.292150L579.557473,237.887012L580.511915,237.140051L583.073906,235.857310L583.697248,234.887433L584.028087,233.808053L584.574604,233.362222L585.313601,233.108021L586.222111,232.611350L587.112683,231.817458L587.816366,230.984458L590.209236,226.938280L595.368603,218.207874L597.839449,212.615424L598.539319,211.712027L600.071347,210.851650L600.563964,209.916967L601.466724,207.159846L609.785604,193.632341L611.614270,188.685153L615.374625,182.666394L612.054160,178.915909L606.309360,170.703159L601.644460,162.449329L598.357369,159.400824L594.572103,157.085602L590.714288,155.341362L585.382667,151.618230L581.687613,146.184092L576.009814,133.710379L573.732849,129.791679L571.337143,126.481118L568.625326,123.483424L563.368200,118.835331L556.144139,112.444925L544.276288,104.233975L535.056890,97.851358L532.959843,95.637776L527.868912,86.380600L522.268741,76.216050L514.858845,67.328390L507.533664,58.546292L503.355323,55.337328L498.771277,53.456141L492.743364,52.503814L490.843594,51.831123L483.648163,48.068742L479.692739,45.847292L474.979643,41.193888L469.664455,35.946556L466.977192,34.215927L464.049393,32.913554L458.027065,31.300253L456.857254,31.315898L453.634409,32.393387L452.691004,32.420764L451.128351,32.112144L449.789880,31.847798L448.593850,32.190013L446.641366,34.114240L445.366006,34.520987L444.102457,34.282414L443.071970,33.748559L439.434775,30.379205L437.548735,29.094429L435.530446,28.363065L433.425881,28.443241L432.632198,28.594480L429.659554,29.160917L427.878651,28.982965L424.418236,27.842897L424.031755,27.621923L423.608318,27.189753L422.177379,25.371118L421.128677,24.434422L419.777040,23.609191L418.633246,23.591591L418.181824,25.105167L417.084586,26.871003L414.447202,28.337643L409.094835,30.017434L407.839127,30.101521L404.223450,29.458156L402.586972,29.751484L401.731028,30.660799L400.401650,33.232303L398.745933,33.251858L397.251728,30.449603L395.046672,24.172382L394.063337,22.551252L392.849869,20.988787L391.454079,19.633606L389.964329,18.622598L389.287047,18.325357L387.376447,17.844297L384.994866,17.541190L384.887208,17.279149L384.073913,18.211936L384.028084,19.471297L384.194437,20.885144L384.058670,22.279434L383.182292,23.644390L381.869439,24.588909L379.175207,26.022307L377.091117,28.251600L375.908224,29.203938L372.972111,29.520732L369.103018,31.339364L367.858185,31.671802L366.638412,31.796955L365.427784,31.663980L364.203188,31.214211L362.907381,31.167278L358.911063,33.531497L356.478765,34.262859L351.448128,34.908179L348.181578,34.880802L347.628003,35.058753L347.070607,34.992266L346.219020,34.301970L345.833430,33.623406L345.317024,31.988595L344.758451,31.425407L341.111826,29.278248L340.038731,28.376754L339.216286,27.260152L338.617153,25.930397L337.861009,23.057733L337.393711,22.083882L336.676650,21.499179L335.882208,21.022031L335.223627,20.366929L334.862360,19.625784L334.448589,17.545101L334.301210,17.184647L333.834492,16.043253L333.116098,15.122197L332.075776,14.656780L330.503819,14.547270L326.765297,15.270817L325.556809,15.024420L318.226073,11.741078L317.656789,11.248282L317.247372,10.503223L317.170031,9.840295L317.000090,9.249723L316.325703,8.702172L315.573698,8.563328L315.270138,8.199598L315.103999,7.695068L314.826456,7.147517L314.774952,6.912852L314.759835,6.113035L314.711847,5.804060L314.467701,5.545928L313.820880,5.463795L313.521562,5.195886L312.131937,2.422923L311.273168,1.120529L310.073590,0.000000L307.694023,7.239427L303.895666,18.720374L300.125716,30.105432L296.444639,41.199056L293.065960,51.359848L290.941728,57.734763L290.230376,58.581491L289.003187,57.723030L288.273881,56.815681L287.913502,55.558299L287.757715,53.624314L287.528982,52.900780L286.991518,52.327820L286.297945,51.952364L285.607478,51.815479L284.743619,51.461534L284.310969,50.610892L283.896342,48.717968L283.350675,47.296319L283.044169,46.844598L280.262193,44.345465L279.277785,43.729481L279.059064,42.923813L279.020696,41.199056L278.877273,40.070728L278.598132,39.458653L277.537420,38.334235L274.860983,34.298058L273.573660,33.482609L271.892890,31.945574L270.988866,32.096149L269.568074,32.651515L264.662173,32.542006L262.400224,33.118883L260.571457,34.716538L259.633971,36.351347L259.162677,37.843402L259.001367,39.384344L259.036221,41.199056L258.917588,42.784972L258.469786,44.032584L257.796868,44.973182L256.995061,45.614587L256.486257,45.728006L255.274390,45.563744L254.735599,45.614587L253.807084,46.504341L253.422802,46.649048L252.742036,46.578650L252.158306,46.371367L251.624494,46.046753L251.079378,45.614587L249.805447,43.788146L249.403337,43.502642L247.192108,43.178028L242.813063,41.758331L240.670370,41.433717L236.144920,41.433717L235.508482,41.605801L234.464075,42.343027L233.909772,42.515112L230.924700,42.515112L229.606476,42.757594L227.603389,43.827256L226.695666,44.063872L225.287018,44.106893L224.182890,44.396308L223.379108,45.164821L222.953761,46.649048L221.672257,46.621671L216.552561,67.230616L216.322085,68.841934L216.425801,70.766129L216.862359,72.623836L218.162308,76.403776L218.495524,80.177844L217.417522,83.505039L214.959666,91.083500L214.778526,92.604852L214.710125,96.887316L214.182258,99.030501L204.932016,114.877504L199.436146,139.791784L199.584313,141.238805L200.155758,142.445307L200.391613,143.092555L200.435512,143.741759L199.878827,144.854399L198.930821,145.957262L198.208958,147.249802L198.330550,148.927560L199.987902,151.944786L200.316024,153.073068L200.395172,154.918990L199.387970,163.327313L198.870594,164.813434L197.851025,165.278824L196.020541,164.719574L195.404059,164.351954L195.008724,164.031265L194.560969,163.780971L193.746211,163.628448L193.184544,163.651913L173.280113,166.890091L171.600534,167.519736L171.509875,167.567308L170.616732,168.035967L170.384831,168.274528L170.412390,168.677344L170.025890,170.609298L169.957563,171.418842L169.743933,172.193187L169.112847,172.998819L168.545905,173.272578L167.266717,173.382081L166.706221,173.644107L166.135051,174.398898L154.426526,197.723055L153.789031,199.838806L153.679525,201.946735L153.518239,202.893152L152.940782,203.917784L152.268182,204.551336L150.847539,205.399982L150.215542,206.017890L149.742249,206.874357L148.668563,210.182901L148.142970,214.332267L147.623932,216.131238L146.379933,217.805062L143.945879,219.408491L143.369492,220.065506L143.199482,220.765539L143.200847,221.114969L143.206183,222.494114L143.092252,223.233255L141.166983,225.751810L136.776517,227.670914L135.342400,228.297740L132.833073,230.171012L131.862451,231.633650L131.010177,233.373955L130.346639,235.227672L129.935300,237.026638L129.941236,238.555758L130.530635,241.422370L130.501749,244.515806L131.029979,246.072301L132.511051,249.154005L132.718864,250.569710L132.516776,252.059721L124.761813,272.802536L124.617413,274.439199L125.323210,276.492361L126.526708,277.947173L127.416918,279.497799L127.231166,281.854047L123.255898,296.331770L123.231370,297.162811L123.898437,298.150284L125.916744,299.777171L126.313073,300.913253L125.877557,303.504148L124.808103,305.310931L121.299840,308.390674L120.126116,309.679278L119.876264,310.580714L119.894858,311.497793L119.533569,312.845059L118.716077,314.102377L117.990374,314.206013L117.171929,313.938124L116.055045,314.063269L115.259401,314.870846L114.436706,317.195809L113.917211,317.801981L113.214934,317.508672L113.088366,316.403875L113.293774,314.127797L112.842893,312.981937L111.939204,312.115697L109.948173,310.701948L101.679203,302.739590L100.851152,302.371976L99.737494,302.853003L91.896040,309.067240L90.779166,310.191591L89.771128,311.779370L87.353279,317.383527L81.872482,326.485885L81.428422,329.166732L81.807203,332.297319L85.482237,348.951434L85.639284,352.363605L85.157842,355.564594L84.955966,356.004560L84.335501,356.747612L84.160205,357.152379L84.168330,358.006889L84.442439,359.852788L84.360633,360.689700L82.918924,363.219989L79.102355,367.312647L71.515754,393.519798L69.700666,404.761492L70.091247,410.557346L71.355917,429.437464L72.807989,451.330179L74.245007,473.222947L73.979363,475.116747L73.743502,476.797482L72.919811,478.524131L71.579719,480.256647L65.138477,486.934463L63.794438,487.855474L62.563020,488.238739L58.796755,488.254383L56.516890,488.553565L55.408479,488.893811L54.352013,489.413957L53.667578,489.943881L50.962066,492.628697L50.674954,492.730380L49.954577,492.859439L46.915581,492.421420L45.257781,490.346701L43.895633,487.757702L41.771352,485.774889L40.413164,485.528504L39.441156,485.970432L38.506940,486.574662L37.245155,486.824958L36.229787,486.341965L35.205390,485.424865L34.067960,484.701354L32.712863,484.767839L33.096486,485.334915L33.074594,485.606721L32.456277,486.005630L27.979192,486.605949L27.110449,486.384985L26.574571,486.443648L26.081379,486.735008L25.182173,487.538693L24.553517,487.773345L17.279237,485.966521L16.112607,486.158154L14.237365,488.054928L14.305520,488.356066L14.514241,488.796039L14.028796,489.300542L13.028210,489.533239L12.122536,490.029920L11.830465,490.563755L11.732192,491.146475L11.765166,492.425331L11.696431,492.769488L11.376324,493.281813L11.336435,493.690500L11.485898,493.929063L12.094903,494.415967L12.217295,494.677996L12.084495,495.599008L11.534924,497.024522L11.415515,497.589644L11.647059,498.483280L12.130113,499.214614L12.609766,499.777781L13.115749,500.622530L13.729816,501.021440L14.633559,501.441860L14.560303,502.421535L14.099939,502.816534L13.481393,503.051186L12.899288,503.557645L12.406552,504.400440L12.151741,505.088755L12.056839,505.853332L12.057382,506.915136L12.272148,507.323823L13.195910,508.059069L13.410590,508.463845L13.261367,509.963668L12.758940,511.021562L11.940650,511.782228L10.802415,512.386460L8.812403,512.757994L8.544473,513.141260L8.419340,513.780690L8.117660,514.549178L7.732269,515.264870L4.036265,519.621595L3.214361,520.920009L2.891613,521.678720L2.626342,523.270451L2.312762,523.794510L2.003257,524.173866L1.720114,524.874383L1.671299,524.995152L0.810536,526.078467L0.575031,526.903664L2.352674,531.944799L2.940070,533.121976L4.105287,533.896332L4.375793,534.533807L4.592224,535.226034L4.842209,535.691430L5.315199,535.929994L7.124406,536.156826L8.612723,536.895984L9.504153,537.040687L9.898659,536.414945L10.239668,536.235044L12.388934,535.691430L12.952544,535.804846L14.870482,536.673063L17.040782,537.048509L17.609266,537.236232L18.654943,538.241330L19.728443,539.621875L20.957311,540.842072L24.680596,541.909746L25.524077,541.886280L27.140325,540.662171L27.726582,540.337568L30.593414,539.668805L32.314332,539.598409L33.470597,540.079449L34.076635,540.607419L35.307034,541.002419L35.978889,541.370043L36.639518,542.050538L37.589036,543.427171L38.299297,544.002072L39.737661,544.463558L44.055335,544.002072L44.761947,544.205439L46.606520,545.550786L48.720831,546.231281L49.361476,546.587172L50.275441,547.725242L52.447180,551.053412L55.862896,553.865344L56.528042,554.060889L57.909594,554.248612L58.608896,554.428513L60.625205,555.750395L69.080731,565.296891L70.263616,567.377488L70.773072,569.931304L70.938750,576.994386L71.111295,577.381565L71.542743,577.608397L74.652424,580.314739L76.519047,582.884200L77.820557,583.955787L79.062266,583.646826L80.160812,583.048458L81.081865,583.666380L81.740467,585.003908L82.092846,586.556535L82.136135,588.924094L82.151019,589.740009L82.347548,591.449072L82.878032,592.196055L83.398420,592.387689L83.819974,592.829621L84.499154,593.795613L87.269584,596.063936L87.601733,596.517601L87.963144,597.827753L88.431503,598.191467L88.890568,598.422210L89.102354,598.699884L98.591110,601.249793L102.953332,604.644457L103.550267,605.641737L104.018959,606.791543L104.325279,608.113428L104.448351,609.597616L104.307374,609.808805L103.695770,610.299623L103.552342,610.373930L103.629441,610.831506L103.946514,611.603910L104.034948,611.924604L104.545012,615.023995L105.330209,615.765112L106.514104,616.054519L109.361132,616.058430L110.819209,616.259841L111.965646,616.768259L116.561815,620.166835L116.983139,620.992036L117.331671,622.380408L118.156554,623.418753L118.624228,623.747269L119.347242,626.834929L120.090181,629.891302L121.647598,634.203076L122.267833,638.563736L122.859517,640.088990L125.609535,645.245521L126.070621,647.208796L126.194847,651.667230L126.551497,653.180751L128.980924,657.801488L130.305125,661.507073L131.439394,662.942376L132.723286,664.254486L133.887899,665.857958L134.443447,667.330415L135.079129,671.386356L135.214800,672.252292L134.537888,673.855764L134.317511,674.710297L134.304457,675.592207L134.655899,676.413498L135.774423,677.751028L135.995219,678.597740L135.867992,679.671284L135.668348,680.535594L135.557796,681.366662L135.691293,682.361988L136.380636,684.033901L141.921483,692.704383L142.905802,694.722411L143.555614,699.114360L144.275570,700.573128L147.294944,703.056554L152.696890,706.588103L155.307166,708.942468L155.821012,710.463811L156.124981,711.365275L155.738414,712.221763L155.171395,713.009811L154.708260,713.825235L154.646924,714.750164L154.920023,715.448261L157.175154,719.370899L158.188297,720.636077L159.426458,721.291154L161.036411,721.015435L162.521724,719.828475L165.186791,716.459230L166.638649,715.350488L167.834718,715.082591L169.241962,715.082591L170.638657,715.287913L171.837592,715.637939L173.371166,716.646953L176.289293,719.277037L177.918290,719.775678L179.498924,719.394364L180.682444,718.766664L181.912068,718.438148L183.610346,718.954388L188.046135,722.014671L191.727626,723.614231L192.069394,724.288862L190.308601,727.259195L189.887759,729.021057L190.117697,730.491557L191.486969,733.358250L192.108514,735.174865L192.146470,736.733360L191.624896,738.250791L189.128410,741.905530L188.805306,742.881300L188.762387,758.703862L189.376350,762.384016L191.058561,765.528377L200.322413,776.490618L200.472658,777.796856L201.382017,779.578269L201.472286,781.037033L201.294208,782.554460L201.292190,783.843099L201.756254,784.912729L202.962424,785.759437L205.587455,788.324983L207.024215,789.371147L208.562284,789.783747L208.828012,789.781256L218.575038,789.689885L220.868126,789.335949L221.572023,789.332038L222.230580,789.533449L223.454864,790.198301L224.319479,790.331272L236.724364,790.049687L247.169744,789.807212L247.751587,789.951915L248.748302,790.622633L249.143511,790.730034L249.309555,790.775158L262.179134,790.650009L266.179625,791.895629L270.967696,794.607833L273.704233,795.315704L274.361088,795.869096L275.439374,797.871473L275.934759,798.239096L277.272070,798.125681L277.771625,798.305582L278.223167,798.980211L278.496103,799.713503L278.865603,801.395186L279.085456,801.801919L279.431859,801.891869L279.832006,801.880137L280.227120,801.997464L283.881824,804.627538L290.458815,809.369493L297.035554,814.113403L304.734601,819.655134L310.201874,823.597311L316.387235,828.063546L323.353124,833.085126L329.774782,837.715617L336.502836,842.567072L338.580428,844.064942L339.842049,845.466995L341.581870,848.550729L342.629028,849.931271L343.492268,850.467063L345.496761,851.161245L347.056528,852.676713L347.873250,852.831193L349.971067,852.238694L352.060457,852.050971L359.162958,852.960252L366.313827,853.869533L370.050954,853.507776L373.431967,851.822185L373.508964,851.388076L373.444629,850.713449L373.574196,850.083796L374.212258,849.788524L374.566711,849.962558L375.846170,851.149512L376.394412,851.871071L376.533648,852.469436L376.801971,852.913322L377.737584,853.179262L378.608958,853.288767L378.974106,853.232059L379.914318,852.813594L380.041986,853.065846L380.116498,853.472579L380.472124,853.734608L384.377172,854.053345L384.356390,853.535153L384.431823,852.473347L384.397443,851.972754L386.242660,854.671265L387.301285,855.871907L388.533469,856.630618L395.153889,858.648635L400.152152,860.173880L401.891600,860.142593L404.686544,859.530540L405.807325,859.702619L406.814053,860.123039L407.849478,860.107395L411.675943,859.190293L412.320393,859.366283L413.188115,859.814460L419.244831,862.942787L421.856121,863.570484L424.402836,863.496177L426.969242,861.808203L427.393726,861.529002L428.271356,861.587665L428.592555,862.371798L427.996720,863.767983L436.340945,864.049567L438.408921,864.833699L439.000206,865.682361L439.365960,866.707013L439.883397,867.717977L440.957277,868.517752Z "/></g></svg>