<?xml version="1.0" encoding="utf-8"?><!DOCTYPE svg  PUBLIC '-//W3C//DTD SVG 1.1//EN'  'http://www.w3.org/Graphics/SVG/1.1/DTD/svg11.dtd'><svg enable_background="new 0 0 1000 1073" height="1073px" pretty_print="False" style="stroke-linejoin: round; stroke:#000; fill: none;" version="1.1" viewBox="0 0 1000 1073" width="1000px" xmlns="http://www.w3.org/2000/svg" xmlns:xlink="http://www.w3.org/1999/xlink"><defs><style type="text/css"><![CDATA[path { fill-rule: evenodd; }]]></style></defs><metadata><views><view h="1073.56146128" padding="0" w="1000"><proj flip="auto" id="robinson" lon0="27.4162636251"/><bbox h="151.22" w="140.99" x="222.01" y="-1141.72"/></view></views></metadata><g class="" fill="#000" id="country"><path d="M311.264094,1067.176540L316.107571,1065.297039L316.674082,1064.751849L316.409855,1064.472614L315.402477,1064.326349L314.545680,1064.432723L313.917648,1064.685364L312.001868,1064.831632L310.159074,1065.509801L309.668804,1065.602885L309.181356,1065.629481L308.583828,1066.112643L308.915497,1067.016951L309.959835,1067.389328L311.264094,1067.176540Z M433.178683,1055.420166L432.993269,1054.512117L433.250550,1054.343802L432.475875,1053.892017L430.493900,1053.559831L428.721699,1053.962884L427.544707,1055.043651L427.147280,1055.938443L427.439005,1056.164364L427.909715,1056.084626L429.255999,1056.802277L430.515243,1056.664946L431.165390,1056.478887L431.258963,1056.310550L431.228482,1055.978311L432.302368,1056.031469L433.178683,1055.420166Z M345.000758,1049.800947L345.184350,1048.897661L345.718239,1047.396732L346.252169,1046.918591L346.727626,1046.825621L347.038179,1046.480309L347.390071,1045.648050L347.456157,1044.656482L347.914435,1043.890718L347.111396,1043.532194L344.584835,1043.629570L342.661414,1044.196134L342.106572,1044.957487L342.745714,1045.355885L343.857662,1045.400152L344.642457,1045.772001L344.691664,1046.312083L342.412531,1046.506871L342.267232,1047.967865L343.275245,1049.761095L344.436716,1050.345602L345.000758,1049.800947Z M307.924302,1043.771209L306.055247,1042.098185L304.434948,1041.735278L303.771221,1042.762061L304.724626,1045.258498L302.972121,1045.382445L302.477818,1044.275808L302.184151,1042.894840L301.064728,1042.217680L299.833303,1042.775339L299.555781,1044.125312L299.882016,1045.833976L300.465513,1047.489706L301.213123,1048.729408L302.485423,1050.509444L303.652759,1051.810439L304.049332,1051.606725L304.414016,1050.456306L305.592500,1049.986924L306.986479,1050.252610L308.006388,1051.274589L308.579420,1051.274589L308.765256,1049.659252L308.602780,1047.790767L307.924302,1043.771209Z M350.401464,1040.465173L350.141565,1039.646521L349.677562,1038.951808L348.907520,1038.097842L347.768031,1037.478415L346.024043,1037.398777L344.006943,1038.049172L343.110425,1038.637649L342.641560,1039.053580L342.028677,1040.035928L341.575356,1041.036043L340.713773,1041.673319L340.812045,1042.058353L342.183091,1042.186700L342.910400,1042.133590L345.312564,1042.191125L346.594869,1041.788385L347.577038,1041.221912L348.029846,1041.239614L347.991155,1041.660042L348.436419,1041.876899L349.253177,1041.788385L350.056835,1041.336976L350.401464,1040.465173Z M268.440432,1038.814639L270.029793,1038.442963L270.324959,1037.650967L269.168596,1037.027135L268.454864,1036.867862L267.241527,1036.779378L265.850064,1036.005167L264.920253,1036.239638L263.757580,1036.721864L263.390775,1037.451869L264.318953,1038.354469L264.749466,1038.659773L267.088908,1038.885436L268.440432,1038.814639Z M238.651147,1035.903416L239.388171,1035.222147L239.775611,1034.054330L236.220438,1032.634493L232.558398,1032.475267L229.292646,1033.665078L226.924959,1036.283878L229.947913,1036.098070L231.344506,1036.487385L232.309592,1037.770428L228.977230,1037.637694L227.386134,1037.832370L226.075750,1038.513757L227.068020,1039.018181L228.090500,1039.801398L229.065542,1040.412070L229.882553,1040.363392L230.666439,1039.973977L232.873969,1039.407572L233.719388,1039.323498L236.068232,1039.827948L237.250887,1039.894325L238.264801,1039.323498L238.849809,1038.367743L238.877196,1037.549206L238.229185,1037.027135L236.801532,1036.960771L238.651147,1035.903416Z M258.825750,1031.020199L255.739477,1029.605071L251.227975,1029.622759L246.653609,1030.272818L245.086434,1031.037889L244.009761,1032.320466L243.941836,1033.523534L245.483715,1034.054330L245.591150,1034.731122L245.176243,1034.863830L244.057398,1035.540659L244.628419,1036.907680L244.470312,1037.199681L243.838523,1037.770428L246.019510,1038.633225L248.665415,1038.473935L251.129082,1037.597874L252.800375,1036.283878L252.335944,1035.806090L251.932367,1035.624711L252.798258,1035.500844L253.585417,1035.182334L254.269616,1034.731122L251.259935,1034.054330L257.649197,1034.054330L256.151082,1032.820258L255.575791,1032.501804L256.309488,1032.063942L257.114383,1031.816267L258.004140,1031.758772L258.954566,1031.825113L258.825750,1031.020199Z M295.966423,1035.027505L297.041113,1034.850559L296.636389,1034.248960L295.343649,1033.589882L295.348579,1033.160834L297.293026,1032.638916L299.123069,1031.710122L300.283069,1029.768688L299.241570,1028.813542L294.281487,1030.126884L293.615973,1030.471821L293.296994,1031.188254L293.387610,1031.869340L293.372540,1032.236431L293.036887,1032.475267L292.893323,1033.098911L293.162940,1034.001249L293.231793,1034.465710L292.950542,1034.704581L293.868278,1035.027505L295.966423,1035.027505Z M217.423812,1030.246284L215.195047,1029.622759L213.641836,1028.048585L209.743859,1028.198920L208.066095,1028.835651L207.077782,1030.272818L208.667034,1030.246284L209.679899,1030.803499L210.604563,1031.493412L211.922952,1031.825113L214.583477,1032.028559L215.920002,1032.475267L216.745336,1033.311221L217.317471,1033.311221L217.617753,1031.573020L218.784738,1030.936172L222.107443,1031.020199L221.990215,1030.272818L217.423812,1030.246284Z M269.812123,1036.071526L271.878588,1034.054330L271.300278,1033.762390L269.968153,1032.806989L269.401424,1032.501804L274.021462,1029.605071L272.674057,1028.048585L271.231863,1028.013212L270.057813,1028.627826L267.898719,1030.272818L264.096827,1031.276705L262.945375,1031.825113L264.701173,1034.788629L267.200017,1036.266182L269.812123,1036.071526Z M590.227703,1029.277842L591.061668,1028.791433L591.890795,1027.380937L588.876457,1027.208503L587.376142,1027.482630L586.899647,1028.420004L587.652145,1029.556428L588.929217,1029.684668L590.227703,1029.277842Z M290.542161,1029.702357L292.400328,1026.943224L291.547313,1024.343737L289.727877,1023.495023L287.746280,1024.573606L286.125589,1026.660265L285.369142,1028.791433L287.636768,1030.887525L290.542161,1029.702357Z M233.276810,1023.057424L233.996441,1022.659617L233.680336,1021.780061L232.187220,1021.718184L231.090832,1023.176768L230.630146,1024.913994L230.967390,1026.403837L232.251126,1026.903432L233.031519,1026.801743L233.453927,1026.890169L234.229597,1026.801743L234.526544,1026.182783L234.719572,1025.466589L235.537242,1024.569185L235.802924,1023.539226L234.853038,1023.256331L233.566352,1023.296113L233.276810,1023.057424Z M571.588537,1027.261559L572.219927,1026.200467L573.444971,1025.510798L574.794566,1025.086401L575.274288,1024.343737L567.146413,1019.398005L565.643476,1018.783770L564.569735,1020.750294L565.457413,1022.946921L567.602714,1024.626653L570.220771,1025.086401L569.361310,1026.819428L569.102158,1027.579902L569.874252,1028.030898L572.059288,1028.791433L571.588537,1027.261559Z M337.799850,1030.007484L338.184696,1029.131917L340.329778,1028.442113L340.700694,1027.566637L340.884006,1026.465733L341.300721,1025.417960L342.910000,1024.096191L344.739539,1023.035323L346.090462,1021.598852L346.257758,1019.154959L343.209881,1018.748419L340.923295,1019.959234L339.182250,1022.155744L337.752735,1024.715065L335.631820,1026.319836L319.662915,1028.048585L318.195504,1028.561500L315.461386,1029.980951L307.256869,1031.020199L305.877337,1030.498355L306.081091,1029.251310L307.431129,1026.571841L305.046202,1026.929960L304.253621,1029.317639L304.100397,1032.369117L303.574746,1034.731122L319.198875,1035.540659L319.321587,1036.283878L310.996216,1036.283878L309.346751,1036.611260L306.454949,1038.088993L304.773305,1038.513757L306.008830,1039.566871L308.399508,1040.389944L309.512147,1041.106850L309.893141,1042.058353L309.843702,1043.253348L309.898487,1044.585659L310.610690,1045.935794L310.335321,1047.126669L310.371216,1048.428328L310.864725,1051.274589L312.165051,1050.801709L315.707268,1050.106483L316.846696,1048.738264L319.487502,1046.799059L320.340887,1045.935794L320.267588,1047.436578L319.677556,1048.326494L319.315189,1049.150045L319.886227,1050.465162L320.815922,1049.814231L321.495217,1050.128623L321.912195,1051.168307L322.025812,1052.687324L322.544333,1052.687324L322.244650,1051.447299L322.427971,1050.987699L322.864849,1050.823851L325.209115,1048.618716L325.752443,1047.489706L327.233367,1049.229745L328.655995,1051.274589L329.583223,1050.447450L330.437761,1050.252610L332.519321,1050.465162L332.896691,1050.066630L333.677783,1048.153819L334.386007,1047.489706L333.251485,1046.816767L332.717508,1046.639683L331.946739,1046.679527L331.823475,1045.935794L338.108169,1042.071630L340.405425,1038.925259L338.682521,1035.540659L338.838690,1035.129249L339.047579,1034.054330L337.665173,1033.443916L337.166256,1033.311221L337.566749,1033.098911L337.881971,1032.824681L338.231801,1032.594686L338.788392,1032.501804L338.040088,1031.201522L337.799850,1030.007484Z M265.043720,1020.021103L266.057621,1019.769209L266.830005,1019.243339L266.929964,1018.682136L265.950666,1018.810283L264.622024,1019.557091L264.180110,1019.981330L264.520185,1020.065296L265.043720,1020.021103Z M262.616106,1017.069349L259.737366,1017.016329L258.379442,1017.369800L257.242696,1017.237248L255.951817,1017.246084L255.683022,1017.860256L256.753566,1019.530577L257.675219,1019.508481L258.985542,1020.551420L260.395235,1020.856361L261.956840,1020.878459L262.908845,1020.410001L264.083169,1018.112118L263.835782,1017.378637L262.616106,1017.069349Z M294.820135,1019.888527L293.096426,1018.708649L286.861969,1017.144461L276.946345,1016.689375L274.876632,1016.927962L273.169660,1018.231422L272.886358,1020.180196L273.418738,1021.704925L274.200856,1021.744703L275.856462,1021.506039L278.292784,1022.473978L280.560268,1022.818739L281.767800,1020.701680L278.338772,1020.701680L279.632801,1020.374646L281.660603,1020.418839L283.654000,1020.962429L284.903120,1022.115966L283.783558,1023.349155L285.030068,1023.481762L288.732623,1022.858519L289.078466,1022.725918L289.988852,1022.049668L290.265692,1021.744703L290.888283,1021.307155L291.590862,1021.567914L292.287611,1022.001050L292.946006,1022.115966L294.464935,1021.709345L294.824340,1021.161308L294.820135,1019.888527Z M301.437787,1014.705717L299.020132,1013.897308L298.892079,1013.614596L298.897711,1013.111029L298.831447,1012.625147L298.490656,1012.413131L296.473258,1012.589811L294.614442,1013.194956L293.053747,1014.334638L291.964722,1016.115015L295.249940,1016.905871L296.846646,1016.813087L298.241946,1016.115015L297.833267,1017.727699L297.506816,1018.474452L297.026571,1019.154959L299.308655,1019.132864L301.754356,1018.492128L304.013582,1017.422822L305.709327,1016.115015L304.826366,1014.966360L303.820966,1014.683628L302.694559,1014.780817L301.437787,1014.705717Z M282.322012,1013.698526L289.362399,1012.095113L290.034827,1011.052766L288.672932,1010.248973L286.247099,1010.337299L278.828063,1011.697599L278.288707,1012.059778L278.415768,1012.757659L279.632585,1013.592510L281.423174,1013.857551L282.322012,1013.698526Z M282.198535,1010.187144L281.965947,1009.427558L277.041548,1009.657196L276.317559,1009.802930L275.130161,1010.611116L273.949574,1012.510305L274.657746,1012.642816L282.198535,1010.187144Z M210.852363,1010.743610L209.442784,1009.339237L207.782035,1008.456052L206.808653,1008.663595L206.507817,1009.303908L206.040451,1009.966330L206.017828,1010.734777L206.912709,1011.414929L208.529969,1011.149931L209.167366,1011.313346L209.449438,1011.551847L209.540488,1012.307124L209.984602,1012.625147L210.584042,1012.545641L211.212904,1012.784162L211.420902,1012.766493L211.462495,1012.077445L210.852363,1010.743610Z M644.730378,1009.882422L645.190598,1007.815775L646.205047,1006.954757L651.296524,1005.921602L652.255515,1005.197553L652.385986,1004.614808L651.567159,1004.076231L647.750885,1002.487100L647.042934,1002.548896L646.439999,1003.078590L646.182258,1003.776049L646.376516,1004.561832L645.992727,1005.171064L644.942798,1005.709682L641.098456,1006.310131L640.740300,1007.157865L642.710735,1009.144931L643.879957,1009.913335L644.730378,1009.882422Z M260.253423,1007.299159L258.347705,1005.003302L257.588958,1004.932666L256.696320,1004.663369L255.919872,1004.102718L255.495349,1003.153631L254.587160,1002.195778L250.664622,1000.611263L249.199119,999.816862L247.975422,999.724185L247.252511,1000.297911L246.909012,1001.374810L246.835810,1002.782842L251.292022,1005.745002L251.411062,1006.486738L249.977995,1006.491153L248.382780,1006.968003L247.139976,1007.864347L246.762232,1009.114019L247.695534,1010.359381L249.563906,1011.414929L251.597049,1012.139282L254.250366,1012.532390L255.207782,1012.863669L257.223180,1013.897308L257.291541,1014.153520L257.375287,1015.182831L257.472265,1015.447901L258.022693,1015.487662L258.472271,1015.196084L258.823478,1014.842665L259.053064,1014.705717L260.747543,1015.178413L262.415199,1015.399305L263.987993,1015.284441L265.390712,1014.705717L265.260271,1013.897308L264.460059,1013.910560L263.729399,1013.764786L262.295554,1013.221459L263.120780,1013.194956L265.020739,1012.413131L264.082589,1011.233846L262.871758,1010.849605L260.169333,1010.995351L260.718897,1010.187144L259.459990,1009.418726L256.917504,1008.570863L255.699545,1007.970322L256.638458,1007.343313L257.824058,1007.405130L260.361621,1007.970322L260.253423,1007.299159Z M238.408952,1001.057028L239.417298,999.843342L240.133632,998.673883L241.864773,996.507321L242.492489,995.382246L242.559047,993.891102L240.687944,993.820520L238.689069,995.752849L237.172184,998.413526L236.729577,1000.492100L237.425432,1001.533704L238.408952,1001.057028Z M206.663282,998.629755L204.756021,995.646962L204.372854,994.632244L201.769987,992.100165L199.116779,990.194777L197.359364,990.194777L198.437224,992.139864L199.824052,993.282336L200.660248,994.548422L200.159094,996.855891L201.611682,997.764859L204.502868,998.016380L206.188081,998.673883L206.663282,998.629755Z M217.117029,992.417754L212.808024,992.034002L211.120131,990.194777L207.612706,989.983082L206.128354,990.468220L205.711985,992.007537L206.239413,993.939628L206.964361,994.579304L207.808233,994.204318L208.732315,993.088242L210.085571,995.779321L212.151033,997.773684L214.479475,999.106352L216.676290,999.816862L215.506857,998.731251L215.615627,997.870762L216.615332,997.407443L218.026038,997.526580L217.450250,996.847066L217.206973,995.951391L217.230686,994.941063L217.451701,993.891102L218.117818,994.111676L218.451625,994.076384L218.683237,993.952863L219.046788,993.891102L217.117029,992.417754Z M203.027421,989.387708L202.911129,988.646831L201.454708,988.488077L201.011674,987.350386L201.181096,985.749832L201.589933,984.206763L200.674662,983.646890L200.035695,982.945976L199.620131,982.112858L199.406334,981.182820L198.381062,980.697989L197.947813,981.134336L197.741528,981.980622L197.378269,982.734386L195.454293,983.395615L195.126531,984.074508L196.131874,985.688106L197.114892,986.508200L198.103459,986.843305L199.822632,987.165189L200.374749,987.831028L200.817195,988.792357L201.571696,989.493550L203.027421,989.387708Z M192.047859,958.752044L191.643299,957.814696L190.326430,957.357046L188.950573,957.643076L188.755122,958.078732L189.592277,958.540806L190.132995,958.967687L190.291887,959.332967L190.563847,959.513409L190.901443,959.293358L194.467751,960.626923L195.596329,960.917419L195.833492,960.103165L195.587082,958.668429L194.902835,958.448390L194.375459,959.095314L193.886666,959.214140L193.531218,958.976489L192.969430,958.932480L192.264253,959.095314L192.047859,958.752044Z M199.802152,954.514658L199.610899,952.279860L200.384660,951.571660L201.675955,951.228569L203.118097,950.089390L199.748840,948.325820L198.328514,947.296804L196.656912,945.661083L194.990633,945.595131L193.815843,946.030423L191.897109,947.877265L193.696494,948.013589L195.340314,948.748002L198.092653,950.889885L197.668405,951.285750L197.038092,952.046722L196.563758,952.297456L196.764337,952.710956L196.899698,953.054082L197.078422,953.414813L197.429900,953.841543L195.709464,954.554254L191.470295,953.406014L189.534518,954.514658L190.802823,955.095410L192.096308,955.319798L194.815600,955.319798L195.693747,955.183405L197.604522,955.632187L199.311410,955.517790L199.802152,954.514658Z M199.855272,921.819234L199.420715,920.871128L199.737464,919.940641L198.724544,919.466643L197.415843,920.054754L196.992727,920.699949L197.094946,921.002805L196.811120,921.252996L196.244687,921.380288L196.051869,921.990426L196.552881,922.934217L196.834435,923.346870L196.702331,923.364430L196.586512,923.399551L197.085238,923.566372L198.493583,923.557592L200.021631,923.030794L203.054625,923.987824L203.733653,924.058068L203.518115,923.891240L202.833003,923.487351L199.855272,921.819234Z M202.296621,875.953043L202.446023,875.506776L202.741076,875.213647L203.336987,875.161147L203.615702,874.767404L203.364226,874.334299L203.127744,874.242430L199.986746,873.546871L199.041429,874.636159L198.151814,874.741155L198.368100,875.082398L199.817289,875.655530L201.738126,875.988045L202.296621,875.953043Z M154.737018,730.807728L153.843247,729.639157L152.746059,728.764962L151.770506,728.228356L149.657807,727.704754L149.230458,727.440798L148.884803,727.068671L148.364354,727.085979L147.697931,727.466760L147.321325,728.081226L147.579038,728.929410L148.418121,729.807944L149.503419,730.327303L150.120999,730.781759L149.885696,731.612805L149.611094,732.041334L149.384987,731.833560L148.820758,731.543549L148.401064,731.651761L148.435476,732.106264L149.471799,733.136528L151.348096,733.911444L152.476284,733.474195L153.105636,733.067264L154.631364,733.885468L155.272653,733.794554L155.635639,733.339993L155.401532,732.275083L154.737018,730.807728Z M138.156510,697.596626L138.570083,698.710484L140.318136,702.082871L140.992471,703.093465L141.979662,703.996157L144.585493,705.780131L145.720182,706.289884L145.849890,707.080472L144.144208,707.080472L145.537559,708.804384L146.712182,708.830309L147.752055,708.156269L148.752453,707.806302L150.404126,708.683400L151.609033,710.139601L152.770801,711.332340L153.903950,712.149171L157.136837,712.019512L158.531020,711.570037L159.759129,710.636563L158.013040,710.074782L157.428628,709.979714L157.309530,709.258083L162.630448,706.251004L164.078017,706.289884L162.944176,707.585956L164.103991,707.961842L166.263388,707.706930L168.096480,707.080472L167.201618,705.991806L166.604212,704.743409L166.407594,703.361243L166.733827,701.944677L164.394522,700.472133L161.116735,700.467815L158.007232,701.400550L156.231559,702.730679L156.256815,703.283500L156.693252,703.844984L157.060400,704.466964L156.949482,705.235842L156.366232,705.706694L155.741356,705.525263L155.082480,705.097613L154.405172,704.838438L149.911602,704.644061L148.664984,704.177566L148.898893,703.711089L148.943025,703.698132L148.794718,703.559920L148.427009,702.730679L149.631866,700.135328L150.473734,699.310627L151.732821,698.973853L151.624547,698.317601L148.062480,698.347822L144.933823,699.086110L141.787438,699.276085L138.156510,697.596626Z M215.005671,693.957836L214.415798,693.944888L214.070094,693.815413L213.721999,693.517626L213.248828,693.530573L212.855013,693.660045L213.295002,694.147735L214.575397,694.877148L214.970048,695.408048L214.331828,695.537539L212.633980,694.877148L211.612935,695.200865L210.907326,696.444015L210.850997,697.700237L211.291130,698.421217L211.838160,698.723437L212.279987,698.680262L212.617401,698.412583L212.612584,697.920412L212.713472,697.467114L213.222584,697.238313L213.566342,697.549138L213.610361,698.308966L214.219159,698.662992L215.519816,698.697532L216.800737,698.192399L217.501325,696.845474L217.586839,696.072784L215.005671,693.957836Z M231.830130,694.838302L231.463411,693.595309L231.245981,692.986804L230.750722,692.184140L230.314456,691.989955L229.976188,692.210032L229.564111,692.805553L229.326388,693.608256L229.244837,694.398062L228.902872,694.941891L228.390809,695.265609L227.967237,695.183600L227.539845,694.734715L226.855982,694.406694L226.112439,694.268582L225.727850,694.527543L225.753264,695.058428L225.330063,695.131805L224.414799,694.648393L223.646612,693.944888L222.938568,693.552152L222.237128,693.504679L221.107571,693.232792L219.788177,693.854256L218.679157,694.009627L217.968745,694.333322L218.363683,694.941891L219.332944,695.856957L220.002348,696.871375L219.673204,697.570724L219.085633,697.764994L218.559761,698.011074L218.516449,698.529152L219.523433,699.008393L219.979889,699.435840L219.744900,699.876254L220.322588,700.355546L224.669951,701.547375L225.282091,701.456689L225.219139,701.167360L225.565321,700.990311L226.245719,700.912583L226.597357,700.191462L226.031238,699.051569L224.353723,698.516200L222.276002,698.188082L222.266829,697.980853L225.601587,697.514602L228.373607,699.112015L230.115489,699.137921L231.128797,698.425535L231.838436,697.026783L232.486588,696.038251L232.547564,695.550489L231.830130,694.838302Z M160.334785,694.639760L161.289987,692.758083L161.043294,691.075166L158.491106,689.539159L155.802711,690.402062L153.271241,691.977009L151.232847,692.585466L150.313365,692.654512L149.957518,692.818499L149.631901,693.245739L154.033382,696.146166L155.248920,696.068467L156.260377,695.675665L157.052720,695.874223L157.602162,697.596626L160.334785,694.639760Z M216.808454,687.265691L216.379204,687.071581L215.939059,686.929235L214.826269,687.019819L213.634792,687.459805L212.330879,687.244123L210.865339,687.317455L210.190889,688.042162L210.036703,688.529638L209.674209,688.995561L209.214074,689.392472L208.855248,689.957660L208.567566,690.591908L208.246705,691.070851L207.953028,691.670634L207.827133,692.054683L207.726054,692.274761L207.939808,692.714928L208.646400,692.947964L209.338039,692.783976L210.659140,691.938173L211.575934,691.161464L211.867897,690.553076L212.566326,689.543474L213.670385,689.284614L216.454782,690.164758L217.781074,689.931773L218.380364,689.194015L217.864314,688.495125L217.739031,688.150009L218.490451,688.068045L219.022224,687.783333L218.964371,687.446864L218.395320,687.399414L217.618224,687.446864L216.808454,687.265691Z M268.266340,645.729412L267.677923,645.084520L266.901378,644.379477L265.436492,644.272004L263.404605,644.891059L262.098322,645.600431L261.544439,646.180857L260.928991,646.563522L259.313017,647.234290L259.534676,647.741690L259.915948,648.111503L260.411601,648.532931L261.549691,650.089757L263.054955,651.122014L264.813772,651.767218L266.146782,651.534941L266.703365,651.079002L267.615625,650.958568L267.854827,650.309105L267.451395,649.522052L267.788307,649.199504L268.775784,649.685480L269.530843,649.900519L269.953520,648.954373L270.043992,648.283512L270.243484,647.965296L270.431377,647.251490L270.404132,646.658116L270.440357,646.382937L270.769127,646.236751L270.973205,645.871293L270.477475,645.561737L269.223388,645.531642L268.965382,645.669221L268.670927,645.897090L268.266340,645.729412Z M409.327929,510.373539L411.100601,509.685949L409.691754,508.172318L405.656208,507.347475L398.437661,508.551741L391.593404,508.870526L386.778984,512.092480L385.194798,513.368171L386.058091,514.858794L387.059821,516.257275L388.874314,518.034342L392.113781,520.614708L394.163767,520.180688L395.693751,517.610940L396.982970,518.648982L397.874168,519.708391L398.310947,520.078568L397.825488,521.627483L398.951878,522.299878L400.689291,522.384994L402.033176,522.155182L402.678156,521.806217L403.336033,521.031723L403.982827,520.725343L404.976083,520.627474L405.933997,520.678536L406.825057,520.589177L407.619333,520.078568L406.298759,519.427553L401.451497,519.765096L398.615940,516.891733L404.497759,514.717546L405.545508,512.730314L410.104837,512.523949L417.086259,513.618780L422.333906,513.635511L424.842743,512.709484L422.298085,511.243133L419.148915,511.494791L414.508330,511.072837L412.109900,510.932768L410.250884,511.073104L409.327929,510.373539Z M350.726267,1071.561461L355.613692,1070.789908L357.114316,1070.200184L358.996794,1069.934150L364.239931,1070.519430L365.174726,1069.858775L379.247245,1068.302578L379.121489,1067.557788L377.524023,1067.118910L376.310933,1065.394554L375.986525,1063.391177L377.012314,1062.105963L384.040621,1059.380780L386.862977,1056.948469L389.152936,1053.803433L389.816799,1053.134644L391.526043,1052.235589L392.216896,1051.606725L392.550778,1050.447450L392.598932,1049.092483L392.773484,1047.959010L393.538875,1047.489706L394.715623,1047.073543L395.126974,1046.090735L395.316212,1044.966340L395.845538,1044.116459L396.715751,1043.664980L399.655824,1042.961230L399.122526,1044.143018L399.045033,1045.161111L399.357626,1046.108443L400.077123,1047.082397L400.049439,1047.835041L398.995603,1048.410618L396.666213,1048.906517L395.580238,1049.774379L392.712294,1054.069186L392.060032,1055.725814L394.020197,1055.654939L397.381013,1054.476682L402.771352,1053.440246L403.745533,1053.431388L404.693447,1053.905305L405.815559,1055.234122L406.998738,1055.725814L420.508844,1054.489970L423.090776,1055.725814L428.570243,1051.757296L434.120468,1051.075311L435.267934,1050.615722L436.400958,1049.721243L437.148779,1048.614289L437.661729,1047.569398L438.420463,1046.838903L439.933687,1046.679527L440.075556,1047.489706L438.899707,1048.720553L439.684581,1049.854083L441.263018,1049.986924L442.483665,1048.233515L443.582474,1048.782541L444.397807,1048.764830L447.352209,1047.529552L448.081720,1047.489706L449.596382,1047.959010L451.041583,1048.614289L452.474435,1048.888806L453.927627,1048.233515L451.660803,1047.250632L451.537970,1046.320937L452.955767,1045.776427L455.281744,1045.935794L458.359063,1046.719370L459.477170,1046.679527L460.164753,1046.480309L462.559985,1045.258498L461.271081,1044.448438L462.492625,1043.147123L464.413290,1042.753209L468.492607,1042.961230L468.122147,1044.213839L468.228031,1045.347031L468.454006,1046.312083L468.365783,1047.082397L467.418945,1048.087407L466.372130,1048.645282L465.555651,1049.464423L465.337697,1051.274589L466.657187,1050.637863L468.121634,1049.203178L469.475086,1048.605433L470.398767,1050.465162L473.675428,1047.144378L475.555862,1045.833976L477.080931,1045.935794L476.318057,1046.896456L474.550590,1050.451878L474.140787,1051.943297L476.586254,1051.845867L478.388658,1051.394157L479.843354,1050.372170L482.570243,1047.157660L487.737609,1044.448438L487.616113,1043.771209L485.752929,1042.961230L487.235087,1041.761832L487.810472,1041.018341L488.082712,1039.991677L482.672063,1041.478593L483.076480,1040.159833L484.030813,1039.628821L485.154681,1039.283673L486.099995,1038.513757L486.626802,1037.159863L486.025659,1036.620109L484.781404,1036.292726L483.283879,1035.540659L482.123031,1034.386087L482.483449,1034.041060L483.781713,1034.253383L489.277668,1036.177702L490.392860,1036.960771L490.879977,1037.850068L491.388358,1039.084554L492.128851,1040.018228L493.282640,1039.991677L493.579793,1039.522621L493.024437,1038.142088L493.067302,1037.358957L493.507044,1036.850165L494.134483,1036.589140L496.798377,1035.947655L501.050785,1035.540659L502.081104,1035.098284L504.071281,1033.788930L505.224276,1033.311221L502.956798,1030.272818L505.859742,1029.835020L508.360238,1031.453609L508.894343,1033.417377L505.931289,1034.054330L507.096185,1035.368131L508.884428,1035.761851L515.951087,1035.399097L516.648889,1034.518792L517.653021,1029.313218L518.578504,1027.858457L520.308473,1028.048585L521.111870,1029.313218L521.051710,1030.993664L520.433454,1032.528342L519.500421,1033.311221L520.801352,1034.540909L522.424036,1034.921337L523.581096,1033.948169L524.907391,1033.974709L525.317133,1033.311221L523.558557,1032.634493L524.289853,1031.718968L527.620192,1030.272818L527.484276,1030.719473L527.416578,1031.055579L527.333053,1031.825113L529.211245,1031.891454L534.079001,1031.068846L535.614345,1030.272818L534.102232,1029.198246L535.205529,1029.162871L535.913236,1028.791433L534.688951,1027.911515L531.430735,1026.669107L531.365161,1025.758368L532.997842,1026.492260L534.016889,1026.739846L534.298369,1026.235836L534.338968,1026.160678L534.065806,1024.900732L534.132912,1024.489615L534.555190,1024.343737L542.319485,1024.264168L544.781420,1023.667414L544.533356,1023.136986L544.020783,1021.877296L543.730031,1021.373449L546.939364,1021.948012L548.131745,1022.725918L548.282487,1024.343737L560.063934,1024.237645L560.682582,1023.906113L561.071192,1023.327054L561.178286,1021.497199L561.666603,1021.161308L562.233739,1021.028722L562.546755,1020.701680L562.665085,1019.225663L562.512017,1017.754210L561.856443,1016.614265L560.497978,1016.115015L560.373104,1015.447901L566.538433,1014.202113L568.563975,1013.221459L569.792701,1012.271789L571.512984,1011.370762L573.351111,1011.565097L574.973850,1013.897308L570.404539,1013.897308L570.556637,1014.705717L572.436497,1015.408140L571.526456,1015.920621L571.076643,1016.927962L571.253771,1018.412590L571.901868,1019.146121L579.505851,1024.118293L581.858597,1024.865367L583.311937,1024.343737L583.184273,1023.667414L588.607113,1022.115966L582.577309,1020.273001L579.334946,1018.845634L578.442535,1016.927962L579.524247,1016.137105L581.046874,1016.852851L584.005545,1019.154959L585.742218,1019.596863L587.534421,1019.720598L589.244194,1020.127165L590.752677,1021.373449L590.274209,1022.115966L591.632053,1023.176768L592.783571,1023.866330L594.065393,1024.237645L595.827802,1024.343737L594.664680,1022.160164L591.714310,1019.305205L590.621825,1017.670258L590.447995,1016.216631L591.933571,1013.941482L592.350786,1011.737350L590.711363,1011.088099L588.703725,1009.931000L585.227142,1007.299159L587.432686,1007.855516L589.362493,1008.712170L594.949762,1011.997942L595.742884,1012.307124L596.721688,1012.413131L597.441169,1012.121614L597.962255,1011.538597L598.585120,1011.026267L599.612493,1010.995351L599.151346,1012.426382L603.308174,1015.929457L603.884230,1018.412590L608.027684,1017.670258L608.628590,1017.078186L608.930867,1015.779245L608.826677,1014.489253L608.148948,1013.897308L607.028155,1013.619014L606.139039,1012.916675L604.180639,1010.995351L600.799748,1009.630699L599.718532,1008.773992L599.022024,1007.475778L599.881845,1007.352144L601.160992,1007.466947L601.682365,1006.888527L601.443851,1005.961338L600.966026,1004.848786L600.189968,1003.917310L597.935461,1003.140389L595.805010,1001.233573L594.766856,1000.492100L589.939680,999.075461L589.785711,998.267905L592.235091,998.400288L595.302347,999.313764L598.305842,1000.743667L601.788577,1003.467044L602.983743,1004.032086L605.873863,1005.003302L609.630272,1007.228511L610.438666,1007.970322L611.079283,1007.696554L612.491329,1006.486738L613.184441,1006.380773L621.250765,1007.299159L618.240210,1004.901763L616.809451,1003.365515L616.757899,1002.041291L617.907511,1002.014808L619.527424,1003.087418L621.120562,1004.372004L622.207252,1005.003302L623.109881,1005.806811L624.380409,1007.599412L625.872891,1009.378981L627.538083,1010.187144L627.994851,1009.842676L627.900583,1009.074276L627.957519,1008.314747L628.842312,1007.970322L629.770756,1007.921750L630.320041,1007.670061L630.470323,1007.007742L630.123657,1005.745002L632.025152,1007.246173L632.979044,1007.749541L633.966518,1007.970322L632.978269,1006.239488L633.470077,1005.762662L635.817615,1005.745002L636.492718,1005.268191L637.080618,1004.553003L638.094833,1002.782842L634.986683,999.446157L635.079108,995.805793L640.603174,986.737481L643.030015,982.752018L644.695065,981.182820L648.149450,980.235211L651.732460,981.491357L655.028768,984.453643L657.639541,988.646831L649.740215,985.150220L646.200119,984.806336L642.823176,986.781574L642.006411,987.910401L641.940051,988.818817L642.684673,991.270938L642.491974,991.985482L640.828474,995.002828L639.418683,996.057280L637.429184,996.891190L636.273655,998.069332L637.332131,1000.156684L639.257343,1001.776461L641.655442,1003.206602L643.974855,1003.952626L645.650773,1003.524430L645.655055,1002.398820L646.989822,1001.860323L648.864282,1001.789702L650.489372,1002.041291L651.920795,1002.968235L653.746749,1004.451467L655.473160,1005.563988L656.611381,1005.374147L657.252653,1004.729589L658.881807,1003.961454L659.386969,1003.524430L659.406849,1002.796084L658.876776,1000.929035L659.010139,1000.156684L660.028084,999.221090L661.538463,998.545911L663.184395,998.214952L664.668314,998.267905L664.300990,999.883061L663.992122,1000.624503L663.507129,1001.299778L665.959754,1001.268882L673.246785,999.446157L674.210667,1000.267017L677.114979,1002.173708L677.814310,1002.412062L677.816455,1001.189437L676.768702,1000.015459L674.405497,998.267905L678.241519,998.470893L679.924175,997.985491L680.589101,995.660198L681.237339,995.130770L681.646573,994.526364L681.175565,993.489667L681.074073,992.775050L681.696804,992.153096L682.594746,991.720832L683.339623,991.610563L684.129801,992.034002L685.782295,993.582305L686.631228,993.891102L687.168181,993.520546L687.684524,991.959017L688.191782,991.610563L689.220023,991.967839L690.673996,993.538191L691.762656,993.891102L693.350266,993.582305L693.935237,993.961686L694.380605,995.373422L696.052898,994.164615L695.447957,992.669183L694.019937,991.028354L693.182459,989.387708L694.079912,988.042691L695.873013,987.478262L697.082023,988.060330L696.193949,990.194777L702.789301,992.726527L704.957757,993.891102L700.581522,993.494078L698.498035,993.833754L698.942471,995.373422L700.398989,995.832266L706.818008,996.052868L710.671782,996.917664L718.719124,1000.624503L723.018982,1001.299778L722.363400,1000.509754L721.598626,999.918367L720.718066,999.459396L719.730494,999.075461L720.117880,998.673883L720.680808,997.831048L721.128464,997.526580L720.345713,996.476435L719.954495,996.220529L719.119493,996.052868L721.930620,995.183712L729.739853,999.141656L732.980446,999.816862L731.832860,998.413526L730.949177,997.539818L730.559791,996.692635L730.936633,995.373422L732.076644,994.336665L733.684178,994.230787L737.098838,994.632244L736.014732,995.474896L733.609754,996.299948L733.085269,997.526580L738.987329,998.267905L740.006272,997.936952L742.520826,996.052868L741.942931,995.982275L740.671330,995.373422L741.099134,995.241066L742.230602,994.632244L740.920755,993.370561L740.020749,991.888443L740.000955,990.662280L741.323565,990.194777L740.946081,989.841955L740.243726,988.995215L739.867193,988.646831L741.613843,987.998594L743.053154,988.699750L744.440863,989.943390L746.035150,990.935732L751.988484,985.385433L758.316141,980.486873L759.882952,978.889495L769.801040,968.767784L777.008114,965.102085L783.121170,957.767875L793.484609,949.758716L796.878820,947.946307L803.933137,946.681387L806.502423,943.467928L806.500640,943.459553L806.506843,943.448387L806.506249,943.445595L807.430925,941.220888L808.606028,939.610493L812.899767,935.941031L814.893057,933.176301L816.014918,932.110725L820.448293,930.400949L825.507873,926.594434L829.553648,924.419739L840.861831,919.530676L846.152263,916.027975L849.996899,911.217003L850.888724,909.699823L851.623922,908.448720L853.511099,906.054062L863.718708,897.931964L864.664429,895.675421L865.585529,893.040927L866.695025,891.338645L868.333760,890.273433L873.326912,888.741116L875.590731,887.459216L885.514763,878.636481L886.677465,876.858156L887.800747,873.102191L889.104304,871.427335L898.626776,864.119221L909.484903,850.986474L921.974485,835.839575L921.987232,835.839575L922.001681,835.828494L931.695234,827.692080L940.007589,818.738791L941.473437,815.233814L942.298106,814.296172L943.580715,813.541127L946.462761,812.410021L952.775410,807.850609L961.098377,803.582915L962.348526,802.596342L963.363742,801.261682L964.582202,797.670088L965.423106,796.534792L975.185211,788.410982L976.130753,786.092378L976.781510,784.935986L977.842509,784.011498L981.779472,782.347580L981.805772,782.333784L981.822684,782.333784L983.293135,781.092190L984.079768,778.796928L984.809590,773.658855L985.748754,771.199462L988.509921,767.646281L989.273057,765.273432L990.688510,755.150216L992.106896,750.657180L994.353986,746.674752L999.533826,738.174525L996.436725,736.728112L994.477029,734.209648L992.701864,731.548744L990.213013,729.619379L989.051541,729.064259L986.864841,727.959586L980.458453,723.069378L977.748918,721.553239L972.040480,719.158542L969.539494,717.472633L968.186176,715.891265L966.846173,713.739158L965.764306,711.455684L965.192098,709.490902L964.069540,707.334379L961.878742,705.567727L959.432377,704.234668L941.323792,697.450839L926.626583,688.276192L897.506037,679.113629L894.999910,677.974932L892.938807,675.993407L886.973962,671.664688L874.569600,666.440464L851.726937,652.315840L849.431285,649.546352L850.718891,648.958324L854.572914,647.197957L865.988186,644.145704L870.204427,640.128135L873.646746,633.231426L885.812844,623.166068L885.811535,623.160618L885.810227,623.155168L888.508097,619.967155L890.031510,616.872575L889.656690,613.332198L886.616049,608.829223L884.737319,606.831456L883.362190,605.127896L882.914806,603.375599L883.844297,601.302553L883.975635,599.110187L881.804369,597.532798L878.940048,596.575586L874.144754,595.841411L871.832579,594.378632L869.571929,592.437595L866.811312,590.572969L862.421886,588.801024L849.229677,586.252268L843.019401,584.220169L839.374377,582.449152L837.255788,580.466573L837.293385,577.734948L838.400262,575.058229L838.421286,572.593785L835.154515,570.536848L831.207501,569.201927L831.275262,568.512819L831.064096,568.252379L830.144446,568.008221L829.929698,567.715239L829.797784,567.422263L829.783386,567.118444L829.863966,566.830909L829.051840,565.838150L828.536095,564.872594L827.976342,563.044760L827.671342,562.876636L827.127551,562.713936L826.729735,562.399390L826.897016,561.781169L827.365579,561.385307L840.107988,557.530407L841.758319,556.408327L842.971678,554.657660L843.036204,552.603799L841.167846,550.577380L837.542077,548.529638L836.480190,547.722557L835.289968,546.552656L834.964846,545.973164L834.990381,545.339547L834.834384,544.002022L834.890330,542.962430L835.146056,542.204451L834.862049,541.538553L833.317238,540.748186L829.951568,539.838787L815.173872,539.768420L807.108616,538.642601L799.476779,534.080882L792.622130,526.963141L786.903593,518.147648L786.654380,513.660707L788.269357,510.750008L791.107113,509.108673L802.876955,507.467569L804.518051,505.967024L804.546662,504.558417L803.496740,504.213037L802.042518,504.034954L800.855738,503.117604L800.681653,502.081624L801.214790,501.353256L801.984190,500.684277L802.541676,499.818438L801.101915,495.840730L795.513625,494.551977L784.417066,494.775746L780.207344,492.670333L782.148499,489.123543L789.007559,482.900449L788.930384,479.119757L785.725235,469.869907L785.445503,466.010191L785.439037,465.983298L785.716273,465.419833L786.457571,463.912781L791.807758,459.692259L792.499026,458.348477L789.474172,456.271308L782.979319,453.791571L780.128040,451.642733L784.521592,449.698392L802.669093,446.575805L807.971398,448.286004L810.782004,448.836438L811.769875,447.888634L811.406820,445.633563L810.416735,443.056900L805.832172,433.442672L804.708236,431.555150L800.792617,427.137904L797.181003,421.921531L795.848810,420.279708L791.658445,415.891126L790.459249,414.089618L786.265387,406.078826L783.661553,401.998132L781.060532,399.356939L773.327792,394.466575L759.493878,383.406090L753.499462,377.413378L750.841145,374.084977L748.554391,370.512390L747.643158,368.534408L745.644483,364.196702L744.450295,362.425266L733.488369,354.464207L732.658075,353.665776L732.012438,352.593316L731.685565,351.582165L731.229344,350.672214L728.518582,348.684969L728.353754,348.482976L723.859791,342.975446L701.696349,326.784391L697.010659,319.569851L698.715392,311.019418L698.713461,311.011468L698.728952,311.008818L698.728309,311.006168L718.338845,286.266016L721.738172,283.810482L722.345297,283.176214L722.651365,282.431001L723.092239,280.607849L723.721211,279.577522L749.155581,258.134631L750.020733,256.273891L750.906246,251.663136L750.935864,250.325117L749.946931,243.743118L749.941042,242.427266L750.464942,241.385241L751.787597,240.022362L726.153303,229.168459L720.511290,226.010353L703.844322,212.103252L700.109298,208.992890L700.107979,208.987645L692.071354,202.335102L689.404723,200.715945L686.690471,199.793834L663.511995,195.187290L640.355355,190.583069L637.251320,189.520685L634.686360,187.411987L614.191084,161.269513L611.952086,158.395576L610.321051,155.991780L609.988222,154.495603L610.595978,153.213367L625.606242,134.522269L627.160914,131.282721L629.406139,123.705957L623.062160,120.735264L616.584117,120.070634L601.334978,120.657375L599.881330,120.179671L598.601462,119.224342L597.920044,117.371099L601.393932,117.210192L619.318748,110.392577L628.078352,108.743466L636.194554,104.451047L626.116062,99.135178L624.931695,98.083797L624.476288,96.473312L623.891776,89.020400L623.938775,86.790981L624.565737,85.482572L648.171645,69.462101L654.657252,60.723526L640.776469,48.600824L634.513123,40.841013L633.041557,39.817558L606.993718,34.270521L580.976856,28.727288L577.939873,28.157255L574.782955,27.084059L572.399381,25.086961L571.652540,21.725360L556.401252,18.762676L554.537956,17.939475L537.585131,6.509082L532.433741,2.182749L529.747628,0.457995L527.342320,0.000000L522.118421,1.622290L512.305021,0.695958L508.501872,1.312648L505.884375,3.408730L505.738311,5.123886L497.333772,7.141590L493.193539,10.011869L492.050011,10.260368L490.864344,10.306482L489.829764,10.570362L489.190086,11.456857L489.798073,11.677215L491.061847,12.343452L491.665511,12.545896L489.068686,14.452714L473.776020,17.203540L472.303435,17.085591L466.268628,15.149945L464.251207,15.067914L462.063624,15.378096L457.540691,13.970841L455.102535,13.599203L448.336292,14.560371L443.277572,13.899075L430.442411,14.873096L428.101579,15.560109L427.065886,17.436878L424.828532,19.188414L424.248570,19.934793L425.583175,21.740754L423.861754,23.767814L417.115093,27.813200L414.299192,31.454761L411.489983,34.075236L410.793709,34.974615L410.005127,35.714750L408.827644,36.131106L397.854081,37.580807L395.989633,38.310897L394.524272,39.750704L393.846951,40.913019L393.552517,41.972620L393.983743,42.955189L395.464278,43.870988L397.803476,46.124910L398.263759,48.482416L397.418137,50.650070L395.837047,52.318678L391.665943,53.977323L390.895323,55.090143L391.332034,55.692983L392.285801,56.259796L392.829503,56.986405L391.998819,58.079015L391.782883,59.254249L392.402230,61.641313L391.891112,62.456063L391.142970,63.059443L389.821990,65.375385L393.078719,69.240170L393.629235,70.065991L388.057171,75.864535L387.455517,77.259266L386.450341,85.322268L386.824503,88.011657L388.622463,90.629465L389.159744,91.193487L390.547350,92.937535L390.927485,93.641467L391.007873,94.412753L390.839011,94.883842L390.619498,95.235881L390.561345,95.639709L391.202743,98.959076L391.217984,99.653148L390.843720,100.611475L391.049707,101.243512L392.544526,102.834174L392.686753,103.253910L392.691434,103.658119L392.887989,104.108991L393.614643,104.637629L395.237553,105.363265L395.974304,105.866063L396.409865,106.571067L396.022407,107.856812L393.158190,109.355363L392.589215,110.610408L392.488462,111.948633L391.871922,112.960221L389.845103,114.651655L388.884909,115.964561L388.294627,117.485293L387.494355,118.881696L385.880428,119.821411L383.990554,120.023904L374.364179,118.456003L370.849506,118.845355L367.487047,119.779874L354.646555,126.002192L352.317482,128.823965L351.753111,130.830424L351.874440,133.045343L352.767694,137.742211L352.603620,138.512260L352.268464,139.079433L352.355131,139.693480L353.470179,140.557380L353.015432,142.608184L352.094258,143.612940L350.667757,144.008627L348.659444,144.242924L344.117136,145.940460L342.141144,145.888384L340.102103,146.898724L339.422483,148.591563L338.964169,150.394144L337.576269,151.748926L335.632558,151.962584L334.043002,151.097563L330.974926,148.002939L324.242728,143.592115L316.679936,140.749948L302.234206,138.423805L290.421962,136.467617L278.510591,132.852945L276.520892,131.818229L273.577964,129.671195L257.270363,125.643690L251.419628,125.596930L246.769030,127.296040L246.211764,131.703846L244.515371,135.780974L237.801491,137.841065L225.741517,138.782833L205.361148,145.591554L203.584618,145.227039L196.671703,140.343999L194.427823,139.261561L190.312464,138.673562L177.693472,139.781947L157.178877,134.855132L155.118345,134.636689L153.052790,134.714704L144.623631,136.321961L143.072187,136.035858L141.743606,134.132212L138.024490,124.999462L136.711446,123.981265L130.143659,121.498614L123.263751,116.374562L122.181011,115.352193L120.603197,112.835711L119.319826,111.590715L107.725793,105.980104L100.815063,100.596473L75.445839,80.819468L73.457651,80.002916L48.336769,77.998051L32.938576,83.192054L31.688989,84.127834L30.704963,85.648052L29.088900,89.025573L40.184521,98.399715L36.625632,102.792720L34.660946,103.507834L31.608356,103.072540L8.471776,96.721856L6.454521,97.281105L0.466174,103.538927L4.786401,105.363265L14.060383,106.057860L19.754900,108.561980L23.462573,109.122007L25.498513,110.501491L25.804834,112.301378L24.845475,113.914854L22.648746,114.506365L22.785498,116.551023L24.626157,117.765594L37.805684,120.293902L44.489144,123.077456L49.820411,125.539779L55.103103,129.645205L56.187410,130.289778L56.632392,130.471722L57.353855,131.376302L57.757634,131.719443L58.502302,131.896218L63.955865,131.917016L65.615028,132.416166L66.485360,133.435352L67.155624,134.569077L70.056386,137.690183L71.163055,138.657952L73.830851,139.802763L79.866143,140.619834L87.332553,144.029454L91.841935,145.471783L93.989871,148.628028L108.330253,150.612979L112.171028,152.759938L112.739991,153.374939L115.224279,154.886566L116.451888,155.835374L117.495121,156.440161L117.864988,156.549653L118.482831,156.836424L118.710249,157.488210L118.791933,158.207837L119.008350,158.677191L121.819694,159.814173L139.562706,159.902843L144.935082,160.685262L145.248277,160.909568L145.392373,161.900756L145.745286,162.125093L151.846534,162.359870L157.066199,163.732136L160.469595,163.925209L163.956427,165.073299L165.350685,165.057642L166.656476,164.833232L168.099348,164.822794L170.461511,165.897927L173.033057,167.714466L175.567766,169.056228L179.963782,168.106010L182.095308,169.129326L185.975955,172.534257L188.465710,173.996894L200.648804,177.879261L201.945575,178.684160L202.621578,179.525722L203.007200,180.346451L203.576129,181.209082L204.790484,182.197287L208.696288,184.357074L210.203093,186.051796L210.228656,188.421799L211.076878,189.164841L211.332618,189.970744L211.428833,192.498812L211.250283,193.404482L211.327549,193.954209L211.686730,194.880968L211.948228,195.074709L212.290426,195.153254L212.927439,195.713560L214.588285,195.692613L220.669154,193.388775L223.308772,193.325952L224.484848,194.069394L225.549713,195.132308L229.860255,201.145596L230.311168,202.004960L231.118164,202.890608L237.398555,205.621455L239.683580,206.475995L247.421266,210.797087L252.991295,211.825217L254.721480,213.121034L255.009817,214.905047L253.466554,216.873106L251.149654,217.938656L245.879180,218.936079L243.499325,220.054371L242.497412,221.834464L242.619336,224.203198L243.345464,226.677618L244.151077,228.790060L245.342037,234.798936L245.888696,236.055871L247.065893,237.665413L248.744991,241.711520L249.703129,243.385188L252.076281,246.048932L252.997296,247.654909L253.730641,250.088086L252.531563,251.109995L249.958955,252.200504L248.167852,253.354366L249.285440,254.582144L248.248950,256.674473L246.858526,258.482572L246.299381,260.441291L247.756627,262.941018L250.704685,264.697544L253.566038,264.594675L256.494775,263.861440L259.624649,263.697920L265.268123,265.473049L270.656607,265.963707L272.434541,266.383161L273.561976,267.121865L273.870034,269.422763L273.518564,272.283819L274.002512,274.665157L276.840399,275.555009L275.730156,278.726924L273.910032,280.444046L265.524689,282.557842L264.182156,283.453701L263.867590,285.073855L264.019208,287.059109L264.572440,287.780878L266.069391,288.188054L265.716347,289.494303L265.197675,290.615595L264.526145,291.575670L263.710872,292.379772L264.684879,294.416773L266.313736,295.731788L268.220468,296.861730L270.766530,298.981712L271.656369,299.447586L272.448801,300.072317L272.950937,301.184222L273.243603,302.500138L273.569656,303.373982L274.038286,304.112837L274.776391,305.031848L278.285674,308.380205L280.438361,310.004457L281.971006,310.696104L284.451618,311.244685L286.645518,312.622896L292.129797,317.840617L295.591491,320.020774L297.530464,321.524881L300.229048,324.284322L304.401793,329.364728L304.768337,330.108157L304.571075,331.024243L303.482716,331.364146L301.643920,331.305724L299.987678,331.555346L299.226246,333.419735L297.145111,335.688272L297.238097,336.442792L298.868005,340.216232L299.303459,342.332094L299.386153,344.384581L299.180018,346.288550L298.745955,347.942844L299.673695,349.767664L300.364825,351.624738L300.576217,353.391663L300.134714,354.972573L298.695343,355.893551L294.807612,357.474844L294.911150,358.619702L293.518634,359.620890L291.234832,360.297280L289.529774,361.197426L289.852193,362.843458L287.973569,363.274985L285.858426,364.199366L284.248912,365.763275L283.907743,368.092256L284.493816,369.350229L286.375814,371.258800L286.923176,372.317194L287.308698,373.711664L288.096414,375.586360L288.321560,376.991935L288.264414,378.074917L287.853866,379.430134L287.922184,380.449330L288.396333,381.591374L290.002372,383.913199L291.215996,386.598612L294.961867,391.803207L297.337864,393.558230L300.398879,394.899402L308.885978,396.510635L310.880959,397.801400L316.508031,404.736251L317.395224,405.645546L318.357535,406.314195L320.490998,407.426919L321.433382,408.117079L322.515948,409.561745L325.543518,414.721316L325.980598,416.281983L326.260899,418.581901L328.338575,420.643941L330.815528,422.658155L333.371553,426.773454L337.024055,429.689396L337.368227,431.566126L337.507740,432.275429L338.531037,433.487262L340.019323,434.935725L341.676034,436.126733L343.209641,436.527988L344.630641,435.835305L344.920233,434.530305L344.383619,432.984779L343.312356,431.566126L346.711645,432.946777L349.927705,433.689951L350.904268,434.137569L353.599284,436.080273L357.576193,437.115115L358.385875,436.849003L358.853292,436.350590L359.005849,435.822634L359.060720,435.353831L359.199788,435.049753L360.814632,434.238919L362.431159,434.213581L364.126981,434.424730L366.038927,434.331824L367.733373,432.989001L370.234095,428.286196L371.955191,427.247967L372.148591,427.058058L372.129261,426.576969L371.871449,425.484049L371.938644,424.665485L372.480441,424.450306L373.208038,424.488278L373.811599,424.420772L377.685933,423.134008L378.782984,422.294529L378.807332,423.627601L378.122534,424.121217L376.022935,424.420772L374.837051,425.045224L374.340602,425.678150L373.647083,427.636236L370.259516,433.073450L369.470602,435.049753L369.216814,437.710720L369.945604,439.620256L371.262356,441.120233L372.836369,442.552796L373.987770,443.351563L379.279590,444.818231L380.004537,445.253619L380.352749,446.027216L381.223607,450.022876L381.795513,451.012499L382.766343,451.418524L384.296319,451.236657L385.173854,450.758741L386.968384,449.358947L389.564505,448.487865L392.619528,448.234164L395.821760,448.551291L398.865498,449.358947L399.816969,449.921381L401.567111,451.532721L402.738392,452.192550L404.351668,452.327905L408.040276,451.888009L409.559737,452.514019L410.761283,453.224669L412.668852,452.903179L413.804436,453.224669L414.884297,454.159580L415.603208,455.221496L415.777367,455.538822L416.174296,456.253895L416.759175,457.100195L418.938035,458.742198L420.723765,458.958047L422.500631,458.623695L424.633699,458.581373L426.483096,459.140040L433.091030,462.488391L435.849897,464.393715L438.573411,466.752529L439.512645,468.688226L439.177851,472.539430L440.406683,474.281164L439.838135,474.912661L438.844174,476.497918L438.262315,477.065951L437.192828,477.430525L435.068591,477.472918L434.038578,477.841744L440.233944,481.399199L439.449530,482.433996L439.004827,482.663021L438.300510,482.824189L438.667643,483.133809L439.351651,483.918498L439.727903,484.240873L438.960144,485.708641L438.532324,488.941789L437.603001,490.002732L438.337300,489.985756L439.019038,490.155515L440.453454,490.715740L440.165915,491.242037L439.801907,492.855031L440.435906,492.948422L441.543950,493.398407L442.120632,493.559726L441.328440,494.056435L440.441554,494.311166L439.476886,494.374849L438.473775,494.281447L439.262138,495.865145L439.293726,497.262206L438.743152,498.408857L437.855170,499.266796L435.521930,500.889410L435.150173,502.027923L435.070669,504.322283L444.336739,505.779863L447.121708,507.169620L447.885544,507.768924L448.532766,508.432020L449.054310,509.273697L449.409965,510.383272L450.006867,511.403664L451.117491,512.271068L453.273697,513.589305L453.157625,514.197444L453.246055,514.695037L453.589666,515.171385L454.254720,515.728566L454.089221,517.398237L454.895579,518.393717L456.036932,519.312697L456.902557,520.725343L456.766302,522.159438L455.531059,522.597786L453.674977,522.282855L451.659819,521.440241L448.429708,519.631804L446.821607,518.968071L438.645851,518.240561L437.371930,518.648982L438.100537,519.299933L437.747001,519.606275L437.097970,520.410462L436.752552,520.725343L439.938073,523.640526L441.562671,524.674845L444.783048,525.377212L447.184831,526.782072L448.468005,527.216335L449.499710,526.986429L450.440577,526.501086L451.385417,526.547917L452.367825,527.867760L452.368346,528.574575L451.839110,531.828176L451.918540,532.765242L453.249957,534.716284L452.739125,535.082672L445.403366,536.454600L442.520840,535.798441L443.720705,535.236048L444.347228,535.086933L445.106982,535.082672L444.974551,534.426589L443.056257,534.294525L441.527788,533.838701L440.155716,533.029338L438.698422,531.828176L438.323909,531.291525L437.700554,529.809475L437.402591,529.362341L436.469656,528.923741L435.849454,529.102585L435.318186,529.400666L434.686740,529.362341L433.407042,528.361675L432.532468,527.178017L431.582177,526.198822L430.097136,525.790138L428.469285,526.028535L415.257551,530.524924L405.519444,531.291525L402.797762,532.381888L402.831507,534.426589L399.494260,534.545874L398.082083,535.065631L397.805779,536.863653L398.153196,537.438907L399.192916,538.227264L399.269988,538.717350L398.731522,539.318266L397.961144,539.369409L391.158440,537.349421L389.397211,537.221586L388.019191,537.622142L389.128711,538.538360L392.449488,540.149370L390.221796,541.227761L389.275410,541.875696L388.594009,543.013929L388.720029,543.657697L389.118808,544.032889L390.107034,545.158538L389.163279,546.787505L387.826354,547.606337L384.797990,548.732323L382.786847,550.639066L381.890081,550.882229L381.433944,551.214987L381.223698,552.008525L381.087187,552.947186L380.806816,553.749373L379.173631,556.139187L378.832254,557.334272L378.641084,559.472921L378.910460,559.652226L379.353585,560.424977L379.469508,561.291713L378.102096,562.038949L378.314712,562.867368L378.859387,563.828236L379.079076,564.558546L378.075095,566.412283L376.725983,567.057314L375.225800,567.326443L373.738775,568.069783L373.431643,568.573913L373.222301,569.889878L372.873184,570.684655L372.048661,571.111975L369.733632,570.778664L368.837717,571.005144L368.514848,571.633327L368.531502,572.466682L368.902606,574.261796L368.574341,574.659322L365.650414,574.659322L362.661977,575.856253L362.298801,575.698080L361.686438,576.488964L360.903244,576.865187L359.992606,576.950694L358.948085,576.813883L359.621636,578.596817L358.512505,579.558941L355.204048,580.392844L353.690140,581.290957L353.208660,582.261850L352.855849,585.423138L352.102930,586.963442L350.042797,588.919054L349.390139,590.511163L349.394057,592.189095L349.874642,593.691726L350.689870,595.027554L351.629652,596.260756L349.954281,595.425762L346.281262,594.226896L344.597819,594.038514L343.664645,597.378453L343.194479,598.354916L342.159926,599.010218L338.662546,600.243823L337.440009,600.179570L335.541626,599.477089L334.775939,600.243823L334.665798,601.786005L334.766971,603.444067L335.316765,603.444067L334.141872,604.545282L333.992400,604.690976L332.225928,605.886585L330.917800,607.155172L330.830812,608.548198L330.038278,609.144033L328.550640,610.966010L328.007600,611.356162L325.575229,610.815954L324.644450,610.953148L324.250610,612.076477L325.741935,613.332840L328.156278,615.815930L329.722885,618.248043L328.693982,619.342007L323.281756,618.895830L320.534648,617.866251L319.784437,618.097899L319.112023,618.466828L318.302776,618.556917L317.461479,618.260913L316.429170,617.463023L315.845982,617.179913L312.890752,616.330623L311.385043,616.339201L310.340635,617.179913L310.268544,621.916424L310.187859,622.547238L310.651924,623.572916L311.294631,624.499962L311.648859,625.534387L311.263541,626.899446L311.447384,627.899727L312.728753,628.766988L315.494218,630.209696L314.018123,631.639689L312.494695,632.743429L310.750535,632.932407L308.553303,631.652572L307.268547,633.417747L304.850704,633.980423L298.581328,633.800020L296.183379,634.186601L295.254582,634.530238L294.339379,635.346414L294.444590,636.033761L295.306852,636.514927L295.518045,636.665296L294.714456,637.193747L294.041137,637.825340L293.191011,638.134704L289.298166,637.309751L288.403715,637.773780L287.398743,639.006978L283.301578,641.744514L283.778213,642.711605L283.896004,643.291896L283.830155,644.676106L283.832480,644.689003L284.988250,646.142161L285.089240,647.212791L284.272311,647.457888L282.727375,646.434533L280.824542,644.078555L279.721687,643.317687L278.042688,643.188731L276.569160,643.910903L276.486865,645.136111L277.415910,646.284046L278.966967,646.795707L279.304072,647.135393L279.498057,647.922295L279.540818,648.782354L279.425829,649.350025L278.611208,649.792999L277.437835,649.702683L275.237668,649.018881L275.919194,649.483346L277.822354,651.186533L272.259294,651.186533L276.740683,652.636146L278.211131,653.354562L277.202524,654.443019L274.809303,655.294921L273.765690,656.301790L273.495251,656.887015L273.408317,657.394807L273.472609,657.975780L273.613266,658.763364L273.464248,659.624168L272.791894,659.839379L271.971104,659.886725L271.390607,660.248288L270.580936,661.023101L269.302182,661.604242L267.892057,661.965855L266.721271,662.082089L266.114792,661.595633L264.010800,659.236799L263.008564,658.410451L263.107818,656.968777L262.499196,655.690775L261.370200,654.593604L259.959277,653.685821L259.098655,653.431998L258.216658,653.539550L257.571047,654.090228L257.457561,655.157236L257.229264,655.725197L256.397777,655.264803L255.005242,654.012787L253.359354,653.483623L252.969827,653.586873L253.305435,654.554882L253.863637,656.633127L253.564804,658.479312L252.157149,658.892481L248.650299,658.410451L248.945313,658.815011L249.133043,659.133503L249.462942,659.847987L248.738385,660.218158L248.192946,660.708866L247.045702,662.082089L250.981291,665.815088L251.853613,667.141495L248.213761,665.879683L247.738269,666.021792L247.637497,667.322380L246.996780,668.024408L246.174224,668.554186L245.548185,669.303666L244.804516,673.180995L244.585947,673.249936L244.465935,674.409064L244.055600,675.378676L243.964930,676.292335L244.735158,677.266402L244.860297,677.981915L243.966877,678.490557L242.853020,679.663098L241.915988,680.150252L241.625607,677.542257L240.124320,676.645749L238.082066,676.425941L236.183281,675.818258L235.843792,674.852922L236.110362,673.659281L235.957264,672.629480L234.419394,672.198625L232.182510,671.953045L231.371350,672.327880L230.776793,673.646354L231.962655,676.413012L235.560208,679.283735L243.101901,683.772159L240.104790,682.698415L237.493442,682.474190L234.939493,681.896400L232.120939,679.792429L229.603619,678.318134L226.877364,678.184507L225.285861,679.503592L226.160470,682.387951L227.191368,683.543604L228.309529,684.173220L229.543965,684.444913L230.977851,684.496665L231.463338,685.014194L236.134786,688.590034L238.684470,689.970603L239.939109,691.075166L241.048406,692.671774L241.731433,693.448575L242.625820,694.035522L241.172814,695.705880L239.777191,698.015391L238.100702,698.861597L235.787559,696.146166L235.232801,696.146166L234.577500,697.855654L233.148777,699.794215L230.272347,702.730679L230.111067,702.523377L229.538423,702.229705L228.869004,701.987862L228.425443,701.944677L228.382664,702.195156L228.489394,702.661578L228.493357,703.145292L228.129779,703.451943L226.856644,703.542643L225.143749,702.881838L224.119904,702.730679L223.106413,703.063232L221.149597,704.177566L219.887213,704.177566L218.906047,703.503772L218.111929,702.570883L217.181093,702.074234L215.799897,702.730679L215.220487,703.516729L215.082345,704.333063L215.032346,705.240161L214.755427,706.289884L214.113280,707.292168L213.367919,707.845186L211.197236,708.532172L212.877337,710.632241L214.223538,712.944443L207.272390,709.521668L205.224030,709.258083L205.773236,708.169231L205.747046,707.274887L204.324665,703.102103L204.298408,702.091509L204.846233,700.493723L202.863371,700.605993L199.201305,702.272891L197.415260,702.730679L194.106167,702.506102L192.974399,702.730679L189.887427,704.177566L189.998705,704.838438L191.317029,705.287678L193.921502,705.758532L195.240724,706.289884L193.580523,706.950864L191.284734,706.665731L188.976104,705.831970L187.182950,704.838438L185.887698,707.162558L183.191180,706.497247L178.027860,703.451943L176.945729,703.620387L175.366594,704.216440L173.974473,705.063056L173.450093,705.961566L174.099535,707.715571L175.196711,708.506247L178.496124,709.258083L178.616680,709.979714L176.186355,709.880325L175.298935,710.269242L174.917317,711.431740L175.984395,711.643508L176.255157,712.434426L176.353610,713.540928L176.876034,714.690754L177.907848,715.442951L179.070996,715.633169L180.190521,715.442951L181.131225,715.053878L179.831704,716.623211L180.586694,718.054367L182.377240,719.265136L188.298425,722.292557L192.282955,725.286075L189.863804,726.263876L187.234033,725.627864L184.575324,724.459760L182.007306,723.832488L178.199952,721.366956L175.758766,720.540891L174.952198,721.981132L175.073852,723.590239L174.650071,723.590239L173.895123,723.071151L173.027578,723.110082L172.151306,723.815184L171.935036,724.148283L172.074741,724.511673L172.275954,725.286075L172.670494,727.626865L173.300181,729.548273L175.279439,733.335664L172.506103,734.119250L172.108011,734.357366L172.063969,735.093388L171.546192,737.336347L171.000612,738.730813L170.896792,740.151417L170.635710,740.900761L170.086401,741.511530L168.734607,742.486220L168.221081,743.114393L166.580775,743.547633L160.777613,742.100667L158.813725,742.057347L157.645263,743.227034L157.536725,744.591800L157.731295,746.147374L157.535304,747.872154L157.136964,748.643612L155.971817,750.208337L155.731886,750.446747L155.431262,751.331067L154.389935,751.092641L152.574167,750.052290L150.856455,750.429408L149.755434,751.456784L149.542335,752.965482L150.540222,754.816909L151.161061,755.450010L152.783123,756.603545L153.497002,756.868092L154.044979,756.724976L154.444463,756.894113L154.685945,758.052113L154.044406,759.704716L152.326849,761.157963L150.294247,762.147131L148.710986,762.424805L149.385291,764.455477L148.810609,768.630617L149.010555,771.226640L150.195183,769.420657L150.963084,768.700069L151.892066,768.318087L153.383732,769.767942L159.410957,770.679609L161.020783,772.685498L159.249873,772.390240L157.704732,773.362879L156.252026,774.743803L154.758318,775.668842L156.883158,777.653767L157.495027,778.513849L156.247970,779.239314L155.321124,780.381894L154.853874,781.898245L154.947219,783.753729L155.535424,785.705091L156.273466,786.274473L157.257753,785.935449L158.579013,785.209618L158.445222,787.100338L157.510907,790.347785L157.910563,791.708731L158.906784,790.656486L160.329289,789.852140L161.869712,789.613019L163.311798,790.247785L162.748170,790.717358L162.412132,791.234776L161.951895,792.508841L162.439534,792.639298L163.284082,793.039374L163.784384,793.165488L163.486492,795.031238L163.406372,797.214800L164.045707,798.859231L165.861441,799.076764L164.496161,797.562811L164.534567,796.440508L169.021001,790.978238L169.829546,792.508841L169.025486,793.713444L168.855020,795.126925L169.243359,796.492707L170.088343,797.549761L171.358504,797.980436L175.580914,796.884198L175.388154,798.485084L176.136615,803.454266L176.077368,805.264863L175.572456,808.359980L175.534034,810.097214L176.771840,809.087066L177.407079,807.615520L178.226495,806.457552L180.014827,806.374844L178.898534,810.097214L181.408225,811.612579L182.318065,812.649047L182.068762,814.112431L181.153142,814.970501L178.815304,816.120487L177.840788,817.401268L178.576212,818.599388L178.546407,820.146209L177.666452,823.253454L175.993616,820.969799L175.545891,821.919823L175.965748,826.915078L175.725204,829.566012L173.593517,836.553345L177.301443,837.137966L178.628181,838.019307L177.539105,840.148722L178.627721,840.423651L180.619025,841.396854L180.978432,841.466683L181.738838,841.615070L185.478869,841.475411L186.251315,841.615070L186.928925,842.409408L187.277523,843.404576L187.749440,844.251400L189.547355,844.932389L189.491339,845.661433L188.922371,846.407980L188.217101,846.809648L189.179373,848.202479L190.679956,849.691523L193.549703,851.936311L193.460640,853.578644L194.475919,854.260096L195.924670,854.596465L197.142625,855.203699L197.593805,856.496891L197.246514,857.951876L196.720091,859.420125L196.711199,860.731193L198.696776,863.174483L204.885523,865.714388L207.353523,867.397714L206.111226,867.681932L203.076054,866.265272L201.492938,865.937362L201.600724,866.601934L203.952859,869.269288L204.337088,870.065221L203.937468,871.657224L204.200886,872.536403L205.587832,873.511875L207.390999,874.071818L209.052119,874.872401L211.651909,879.462425L214.886915,882.167265L221.103951,885.757021L221.234632,886.558275L218.713319,886.019722L213.095846,883.716875L203.143897,881.108026L201.060173,881.353132L199.815922,881.720799L199.327087,881.939653L199.555412,882.438653L200.410685,883.616189L204.212886,886.558275L205.405277,886.781583L207.533818,886.308699L208.784287,886.558275L209.335052,887.136257L211.571430,890.232373L208.735792,891.327344L197.523128,890.232373L199.349022,891.340484L205.281220,893.175849L208.200837,894.884400L209.682349,896.058602L211.144647,897.653570L208.740288,898.516857L203.408994,898.175042L201.165343,899.121627L202.331058,899.590561L204.735996,900.147167L205.911882,900.594220L207.281115,901.405088L207.874609,902.080117L208.766512,904.271992L208.939170,904.841935L208.949982,905.828430L209.122584,906.481746L209.491638,907.016699L210.183441,907.297338L210.490101,907.946338L210.665361,909.033917L210.776954,910.981244L211.073042,911.564617L211.202317,912.367342L207.806171,912.367342L208.436121,913.771125L207.794883,914.394098L206.740401,914.920575L206.132027,916.043792L210.302268,917.246084L212.071896,918.272940L213.648479,920.528772L211.116369,921.011584L208.776531,921.937751L209.028740,922.332817L209.579664,923.412721L206.882460,923.333700L205.655564,923.548812L204.669570,924.216116L205.802828,924.216116L204.915288,925.752792L205.507247,926.121619L206.103750,926.349945L206.685243,926.442154L207.288952,926.420200L205.336713,927.122768L204.525897,927.157897L205.553862,927.974679L206.251505,929.046226L207.558069,931.646380L206.683997,932.766525L207.265389,934.123994L208.575291,935.349781L209.852605,936.074758L207.584277,936.628402L202.474367,935.072981L200.283924,936.074758L202.347528,936.312031L203.828761,937.089788L203.906625,937.366627L204.051400,937.893953L202.320118,938.219148L200.325131,937.735753L196.413190,936.065970L194.618347,936.074758L195.142957,937.595132L196.072002,938.513587L198.542577,939.695799L198.075220,939.985874L197.084193,941.234140L198.642858,942.073703L203.170262,947.138500L203.710395,947.943228L204.019575,948.655648L204.491307,949.157002L205.509118,949.350512L206.263038,949.755131L206.840248,950.749135L207.401175,951.980740L208.093461,953.102472L207.067118,953.027687L206.250075,952.482209L205.508435,951.857575L204.723863,951.558464L204.004191,951.795993L202.683840,952.851724L201.851147,953.102472L203.856266,955.042614L204.495469,955.319798L206.578907,955.319798L207.555274,955.504590L208.552852,955.992982L207.040874,957.207433L204.940207,957.357046L200.711258,956.798204L199.610217,957.194232L201.440335,959.354972L200.735712,960.420058L201.104527,961.212322L201.567376,961.828557L202.128629,962.339172L202.812775,962.770567L203.957946,962.436014L205.222500,963.369259L206.014030,964.905723L205.701780,966.398317L206.825282,966.437945L207.948226,966.944319L210.034960,968.617678L209.151551,968.556025L208.485172,968.710159L207.258791,969.348733L209.002421,970.308848L210.835439,971.062010L212.690319,971.524497L214.497579,971.643425L214.603154,972.308557L210.619663,972.308557L211.578205,973.612480L212.561581,974.687423L213.129122,975.788881L212.788351,977.145992L211.715797,977.220901L205.483397,976.079680L205.826072,976.705357L205.817207,976.863984L205.688955,976.996175L205.715520,977.551387L206.764521,979.045277L208.416568,980.750879L210.326085,982.152529L212.221684,982.734386L216.606826,984.947416L216.108778,985.657243L214.642835,985.608745L212.008467,984.947416L213.384946,986.490563L212.709823,986.940310L212.368579,987.099048L211.836336,987.165189L211.963686,987.972136L212.824758,988.183802L214.293970,989.109875L215.029917,989.387708L216.021022,989.348017L218.535740,988.646831L224.316505,988.862916L226.367491,989.387708L226.495820,990.194777L222.589273,989.308326L221.292383,989.387708L226.325465,993.820520L227.868432,996.141110L225.949713,997.526580L227.838253,998.003142L230.510279,997.897238L232.842020,997.147108L233.686243,995.713141L233.512046,994.535187L233.501570,993.873457L233.683517,993.397029L234.089110,992.748583L234.281071,991.782583L233.308856,990.282984L233.301663,989.387708L234.574747,988.395470L238.886642,987.826618L240.598492,986.825667L242.014246,985.419161L247.129817,982.734386L246.532014,983.990746L246.515952,985.154629L247.088609,986.226012L248.304813,987.165189L246.149093,987.469443L245.336686,988.492486L245.363773,989.969852L245.654492,991.610563L245.808065,993.961686L245.210328,997.217707L245.155030,999.075461L246.740413,998.206126L248.638007,998.267905L252.556902,999.075461L249.975595,996.282299L249.389688,995.002828L250.011836,993.891102L251.656944,993.485255L254.098203,993.555837L256.542183,993.979332L258.208861,994.632244L257.936320,995.382246L257.665183,996.772057L257.427139,997.526580L261.473849,997.526580L261.281266,998.770967L261.582789,999.207851L262.201425,999.379960L262.985159,999.816862L263.349361,999.927193L264.298715,999.750664L264.696529,999.816862L264.780157,1000.081658L264.839433,1001.034961L264.936642,1001.299778L267.682984,1003.325787L269.179693,1003.590645L270.510108,1002.412062L271.782036,1000.792216L272.466193,1001.365983L272.929214,1002.751943L273.530299,1003.524430L277.280462,1003.776049L279.052245,1004.226324L285.190856,1007.034234L288.068183,1009.003620L289.087653,1009.418726L291.987473,1009.445222L304.778376,1007.299159L303.542225,1010.187144L310.312091,1010.513955L313.371407,1010.147397L316.583778,1007.634737L317.346740,1008.668011L317.289408,1010.204809L314.890180,1011.476763L311.189061,1014.705717L311.008268,1016.327084L308.697077,1018.271190L307.203293,1020.021103L305.837032,1020.896136L305.384886,1021.373449L305.193534,1022.195523L305.311575,1022.871780L305.302488,1023.561327L304.736952,1024.343737L309.229306,1024.140395L311.125423,1023.587849L314.737103,1021.559075L316.641454,1021.019883L320.745790,1020.701680L317.002081,1021.841937L316.210685,1022.487238L315.031778,1024.617811L315.293084,1025.457748L317.010383,1025.758368L312.858086,1027.778869L311.792730,1028.791433L314.148209,1028.707418L318.713716,1027.084705L328.840343,1025.104084L339.483741,1018.271190L344.556167,1016.601011L349.490475,1017.670258L350.220413,1015.788081L351.826158,1013.619014L353.762887,1012.165783L355.497614,1012.413131L355.856296,1013.406983L355.125126,1014.188860L353.114424,1015.447901L352.607119,1016.309411L352.338723,1018.103280L352.026453,1019.154959L350.828705,1020.887298L346.000514,1024.343737L344.473308,1025.868891L340.788201,1031.020199L341.903175,1031.701277L342.589176,1032.585840L342.693460,1033.616422L342.035199,1034.731122L343.148883,1035.239842L345.138778,1036.668774L348.121245,1037.146590L349.576390,1037.779277L350.576333,1038.947383L350.978323,1040.735117L351.600164,1040.257187L353.091418,1039.721747L353.706026,1039.323498L353.948391,1038.819064L354.567957,1036.991741L354.912206,1036.283878L356.879289,1037.770428L354.476462,1039.934151L353.388591,1041.248465L353.068303,1042.589450L353.864834,1044.249250L355.433685,1045.391299L357.416167,1046.152712L359.509459,1046.679527L363.443109,1046.754787L371.532095,1045.594929L376.113919,1046.679527L374.879194,1047.401159L373.370706,1050.093198L372.370127,1051.274589L366.310407,1052.842334L365.059847,1053.803433L365.078299,1054.237498L364.778857,1057.488949L365.234824,1058.658578L365.938815,1059.354196L366.530615,1059.301026L366.610434,1058.233248L367.353613,1057.214276L370.776577,1057.923119L370.386505,1057.147824L371.120559,1056.563056L371.998276,1056.425728L372.949455,1056.642796L373.874226,1057.147824L373.739041,1057.559833L373.675923,1058.277553L373.613635,1058.636425L375.272393,1058.636425L377.141576,1056.611786L381.323760,1048.565585L382.604565,1047.755348L382.445176,1049.986924L381.545007,1053.240939L380.638556,1055.499900L378.971221,1057.945271L377.395916,1059.447242L375.444187,1060.138465L372.667715,1060.191637L371.616870,1059.992242L370.670269,1059.965656L370.410885,1060.776545L371.389168,1063.098671L368.020953,1063.373449L356.826273,1067.123343L353.503573,1067.557788L352.360102,1068.116377L350.648850,1070.643583L349.269481,1071.348615L350.726267,1071.561461Z "/></g></svg>