<?xml version="1.0" encoding="utf-8"?><!DOCTYPE svg  PUBLIC '-//W3C//DTD SVG 1.1//EN'  'http://www.w3.org/Graphics/SVG/1.1/DTD/svg11.dtd'><svg enable_background="new 0 0 1000 30" height="30px" pretty_print="False" style="stroke-linejoin: round; stroke:#000; fill: none;" version="1.1" viewBox="0 0 1000 30" width="1000px" xmlns="http://www.w3.org/2000/svg" xmlns:xlink="http://www.w3.org/1999/xlink"><defs><style type="text/css"><![CDATA[path { fill-rule: evenodd; }]]></style></defs><metadata><views><view h="30.3829382412" padding="0" w="1000"><proj flip="auto" id="robinson" lon0="177.985615095"/><bbox h="154.86" w="5270.53" x="-2635.26" y="209.19"/></view></views></metadata><g class="" fill="#000" id="country"><path d="M964.232916,28.382938L964.271552,28.356685L964.291308,28.316930L964.289988,28.276674L964.263504,28.251171L964.209658,28.252671L964.185436,28.292176L964.192757,28.343933L964.232916,28.382938Z M24.001082,25.172595L23.980678,25.151342L23.964777,25.125839L23.955764,25.099337L23.947896,25.123089L23.952142,25.146342L23.968020,25.168094L23.994936,25.187346L23.995044,25.187346L24.017061,25.189847L24.024355,25.188346L24.001082,25.172595Z M24.639257,22.596978L24.640896,22.578474L24.639403,22.557970L24.625096,22.579474L24.616410,22.600479L24.617183,22.619483L24.631054,22.634236L24.639257,22.596978Z M23.604606,20.580951L23.630028,20.578450L23.646270,20.562445L23.637880,20.502927L23.612936,20.444909L23.595867,20.463164L23.573259,20.567447L23.572494,20.586953L23.575217,20.594455L23.584893,20.601957L23.604606,20.580951Z M980.104891,20.570448L980.112239,20.507928L980.111691,20.453912L980.088327,20.430404L980.028524,20.445409L980.021905,20.482921L980.036052,20.530685L980.040461,20.577450L980.029137,20.570948L980.001455,20.562195L979.989497,20.556443L979.974176,20.579950L979.971423,20.585452L979.966115,20.587453L979.943941,20.598206L979.941821,20.625214L979.949522,20.637218L979.986421,20.643970L980.018503,20.640969L980.103988,20.619212L980.104891,20.570448Z M23.160647,20.418150L23.168512,20.388391L23.096083,20.395643L23.068464,20.447910L23.075324,20.506928L23.105929,20.535437L23.216011,20.590704L23.268193,20.597456L23.261740,20.535437L23.224240,20.542439L23.168735,20.517181L23.115951,20.474918L23.086703,20.430404L23.086811,20.430404L23.119969,20.423402L23.144462,20.424402L23.160647,20.418150Z M22.050504,19.965004L22.027960,19.881227L21.980677,19.826708L21.943765,19.831460L21.925699,19.876725L21.935477,19.945748L21.981236,20.012270L22.027277,20.013771L22.050504,19.965004Z M976.521836,19.822207L976.488996,19.838962L976.466842,19.837212L976.446707,19.827709L976.421400,19.822207L976.397751,19.828709L976.381801,19.843214L976.368591,19.857219L976.354594,19.864221L976.313161,19.867222L976.291102,19.880976L976.246290,19.968756L976.180347,19.936495L976.072421,19.942747L975.967380,19.983010L975.911694,20.050783L975.897234,20.106301L975.871315,20.161569L975.840650,20.188327L975.812520,20.157818L975.778661,20.181825L975.763016,20.211835L975.751065,20.241845L975.728333,20.264852L975.702600,20.269353L975.563624,20.226340L975.532717,20.227340L975.500684,20.241845L975.471566,20.274355L975.444321,20.341376L975.409723,20.367384L975.362691,20.344377L975.309294,20.364133L975.205701,20.451411L975.229562,20.477419L975.254421,20.497925L975.279759,20.504927L975.304295,20.491673L975.322550,20.491673L975.323564,20.536937L975.356096,20.532186L975.424688,20.491673L975.457697,20.498425L975.518971,20.528435L975.558867,20.535437L975.600811,20.527934L975.624895,20.508929L975.646287,20.481920L975.679675,20.451411L975.717706,20.451411L975.733529,20.444909L975.781914,20.409398L975.753987,20.488922L975.750912,20.515681L975.768571,20.535437L975.791649,20.536937L975.818732,20.523933L975.842341,20.503427L975.855759,20.481170L975.881277,20.403396L975.876111,20.377388L975.839167,20.367384L975.823913,20.353380L975.826525,20.320870L975.844719,20.286109L975.875691,20.264852L975.876992,20.309866L975.885469,20.294861L975.901424,20.230341L975.922897,20.198831L975.957390,20.191578L975.999534,20.190828L976.044178,20.178824L976.185799,20.075791L976.262916,20.044281L976.326521,20.073790L976.313871,20.082293L976.295744,20.101799L976.279486,20.115804L976.294310,20.127308L976.308351,20.131809L976.326588,20.128558L976.353823,20.115804L976.343128,20.136811L976.325519,20.179324L976.313649,20.199831L976.362120,20.187327L976.427326,20.184826L976.486009,20.189828L976.514480,20.199831L976.540870,20.185326L976.556111,20.166070L976.560963,20.143313L976.556185,20.115804L976.606263,20.126307L976.630649,20.135310L976.644860,20.153316L976.691555,20.124307L976.755596,20.093797L976.773623,20.043030L976.774583,19.986011L976.764865,19.945748L976.739104,19.931993L976.646474,19.913737L976.625149,19.915488L976.617158,19.867722L976.530570,19.862970L976.521836,19.822207Z M19.659802,19.829709L19.557846,19.817705L19.556251,19.945748L19.556299,19.947999L19.555146,20.033777L19.601525,20.071289L19.635605,20.059536L19.597007,19.999516L19.575108,19.939746L19.610177,19.895731L19.669021,19.906235L19.719433,20.011270L19.750535,19.915738L19.659802,19.829709Z M976.955517,19.747181L976.963834,19.721923L976.960889,19.698165L976.945093,19.673656L976.971460,19.624139L976.933275,19.614636L976.873996,19.631892L976.838468,19.663153L976.826871,19.685160L976.790109,19.731176L976.774733,19.767688L976.833580,19.822207L976.856473,19.826958L976.879226,19.794698L976.905304,19.764687L976.937657,19.778192L976.955517,19.747181Z M22.023474,19.696664L22.041888,19.688912L22.058585,19.675407L22.070325,19.660402L22.079978,19.643646L22.087655,19.625140L22.093092,19.605133L22.058043,19.615386L22.027647,19.635143L22.001948,19.661652L21.979839,19.690662L22.003081,19.697665L22.023474,19.696664Z M22.979515,19.010421L22.983701,18.982911L22.970301,18.950900L22.934201,18.927391L22.905812,18.940396L22.901477,18.977409L22.938058,19.024176L22.938166,19.024176L22.962782,19.026427L22.979515,19.010421Z M980.807068,18.853397L980.866019,18.811189L980.903365,18.780872L980.971629,18.764193L981.001893,18.727066L980.994466,18.711597L980.987658,18.689603L980.944227,18.694652L980.831538,18.722126L980.719469,18.765076L980.659876,18.790884L980.657547,18.824526L980.701979,18.857715L980.714212,18.888388L980.737535,18.912340L980.725555,18.964898L980.740414,19.015904L980.791771,19.003831L980.811050,18.940990L980.874661,18.893344L980.874036,18.859103L980.861595,18.858996L980.819533,18.877436L980.807068,18.853397Z M974.886435,18.641534L974.904266,18.568756L974.909475,18.528991L974.904196,18.494478L974.895152,18.490727L974.886963,18.488726L974.879071,18.484724L974.873040,18.473470L974.820498,18.528991L974.809548,18.553000L974.804561,18.599518L974.805745,18.650788L974.816151,18.709310L974.835938,18.760079L974.866950,18.788339L974.886435,18.641534Z M976.287638,18.245632L976.326487,18.201114L976.352383,18.135839L976.350936,18.079566L976.328309,18.051555L976.295753,18.060559L976.267689,18.114830L976.260919,18.133588L976.256504,18.149094L976.250146,18.162849L976.235197,18.177855L976.242977,18.195862L976.242827,18.206616L976.231173,18.213869L976.204392,18.219872L976.243689,18.256636L976.287638,18.245632Z M21.920957,17.735428L21.945806,17.712669L21.948963,17.660898L21.925227,17.604375L21.868794,17.567609L21.868730,17.567359L21.792035,17.508835L21.711501,17.561107L21.678898,17.647892L21.745684,17.693161L21.759495,17.699914L21.779368,17.714169L21.803503,17.728925L21.829657,17.735428L21.920957,17.735428Z M21.022343,16.989083L21.011790,16.948778L20.983001,16.876337L20.925479,16.844448L20.898129,16.833893L20.857832,16.877301L20.900659,16.946993L20.936870,16.981838L20.976777,17.002917L21.022343,16.989083Z M979.782788,16.818293L979.749745,16.789031L979.715091,16.784029L979.699673,16.777026L979.684919,16.778526L979.613433,16.830048L979.595180,16.829048L979.571499,16.810040L979.570037,16.840553L979.582744,16.888073L979.584488,16.902580L979.559127,16.990868L979.547806,17.078655L979.554501,17.100164L979.580150,17.092661L979.593140,17.071652L979.601711,17.009125L979.620592,16.976111L979.620153,17.028133L979.628458,17.064649L979.661499,17.134679L979.667896,17.170944L979.666654,17.255730L979.684166,17.292745L979.749136,17.345017L979.813860,17.224967L979.850504,17.059647L979.830701,16.976111L979.814813,16.947099L979.782788,16.818293Z M23.014442,16.862062L23.067765,16.834050L23.078983,16.777776L23.046510,16.726504L22.989644,16.676482L22.931338,16.637965L22.894317,16.619457L22.777184,16.629461L22.745974,16.716499L22.785138,16.813041L22.878647,16.852058L22.943312,16.867064L23.014442,16.862062Z M980.182631,16.491401L980.193034,16.465890L980.195931,16.435626L980.194461,16.407114L980.191110,16.386855L980.209928,16.369347L980.215853,16.360593L980.219343,16.346837L980.177539,16.331330L980.138741,16.304819L980.115560,16.343836L980.113864,16.384854L980.124813,16.422371L980.138135,16.451383L980.141739,16.504907L980.153260,16.520414L980.182631,16.491401Z M20.155978,16.242791L20.142558,16.179013L20.080848,16.129240L20.022647,16.134243L19.997170,16.180763L20.006426,16.237539L20.051815,16.273555L20.124837,16.285810L20.155978,16.242791Z M978.498017,16.260799L978.456088,16.248293L978.410055,16.210206L978.386101,16.133759L978.363085,16.091556L978.365244,16.149527L978.376754,16.265471L978.410038,16.272804L978.418088,16.291813L978.434439,16.296065L978.456118,16.281808L978.468601,16.304819L978.479475,16.292813L978.485923,16.282809L978.498017,16.260799Z M978.532940,16.181431L978.569974,16.168315L978.642704,16.147343L978.667554,16.115767L978.685848,16.081547L978.704395,16.036791L978.705424,15.994658L978.711254,15.952627L978.709863,15.910595L978.703763,15.839455L978.661233,15.807658L978.617039,15.820861L978.595750,15.839109L978.516846,15.883748L978.462258,15.975850L978.467060,16.097726L978.468864,16.149759L978.481954,16.202773L978.532940,16.181431Z M979.282420,15.923148L979.286190,15.879628L979.278236,15.783084L979.268787,15.753070L979.240271,15.729560L979.215032,15.741565L979.203559,15.775080L979.214596,15.816099L979.236762,15.837109L979.251422,15.859369L979.260027,15.886631L979.262596,15.923148L979.282420,15.923148Z M20.315296,15.347634L20.320379,15.300862L20.295792,15.244336L20.258203,15.210320L20.204501,15.214322L20.189986,15.257842L20.211184,15.313868L20.264874,15.355137L20.315296,15.347634Z M977.459614,14.987465L977.445069,14.937942L977.393681,14.890170L977.329625,14.852152L977.277302,14.830141L977.230626,14.918433L977.137483,14.972458L977.032830,14.991968L976.949797,14.976961L976.902629,15.000221L976.838461,15.003223L976.799268,15.029485L976.763285,15.059499L976.724275,15.085011L976.637084,15.125530L976.573342,15.143539L976.491409,15.154044L976.415244,15.144789L976.368488,15.103020L976.323698,15.136035L976.280378,15.176304L976.237785,15.201316L976.197795,15.188560L976.221612,15.162798L976.240195,15.135285L976.254476,15.105771L976.264950,15.072255L976.271456,15.032737L976.264375,15.025233L976.250409,15.033237L976.216588,15.047494L976.205902,15.062501L976.191790,15.077258L976.134581,15.088263L976.112991,15.099768L976.091715,15.113525L976.066950,15.125530L976.051031,15.140537L976.029472,15.176554L976.014510,15.212321L975.996690,15.228829L975.902591,15.190811L975.884605,15.198314L975.781062,15.253840L975.756798,15.270848L975.736011,15.309866L975.727980,15.344882L975.729564,15.380649L975.736438,15.419667L975.715217,15.438426L975.707541,15.406161L975.702518,15.349134L975.707262,15.294859L975.728686,15.270848L975.739360,15.267346L975.731289,15.260343L975.713691,15.253090L975.697280,15.249838L975.674748,15.256341L975.665270,15.270848L975.659837,15.284855L975.649603,15.291858L975.638781,15.303863L975.511741,15.375897L975.374003,15.480445L975.357442,15.480445L975.342168,15.445429L975.314036,15.458685L975.280751,15.497953L975.250485,15.543474L975.253827,15.579991L975.233477,15.614507L975.204531,15.624011L975.183606,15.585494L975.147941,15.613256L975.139417,15.644020L975.136026,15.677786L975.116663,15.713552L975.090174,15.728059L975.026708,15.744066L975.009118,15.764826L974.970756,15.819100L974.915439,15.844362L974.872474,15.875126L974.873330,15.944157L974.889743,15.967418L974.911891,15.978172L974.928248,15.991178L974.928966,16.019691L974.923953,16.050205L974.920267,16.110232L974.914306,16.144497L974.914019,16.170009L974.917751,16.190768L974.909812,16.212027L974.873887,16.239790L974.853346,16.241791L974.766706,16.212027L974.751129,16.203774L974.738765,16.210527L974.725102,16.250294L974.698265,16.357342L974.694870,16.389106L974.695256,16.411866L974.684993,16.437127L974.649567,16.472393L974.627076,16.483898L974.547541,16.514411L974.424004,16.524165L974.373980,16.548176L974.341065,16.608953L974.340079,16.639716L974.348543,16.661475L974.355132,16.685486L974.347053,16.724503L974.327794,16.756016L974.278599,16.809540L974.264835,16.833050L974.266002,16.865564L974.277887,16.891825L974.283399,16.916586L974.265662,16.944598L974.262865,16.960855L974.303778,16.991118L974.312301,17.007375L974.306855,17.047892L974.312488,17.070401L974.321604,17.085158L974.326511,17.101915L974.321856,17.136680L974.308157,17.197705L974.312244,17.229719L974.336293,17.206959L974.371300,17.304250L974.443061,17.345767L974.618377,17.397789L974.629443,17.410795L974.638367,17.428802L974.651643,17.446810L974.677100,17.460565L974.701053,17.464817L974.837916,17.457314L974.868770,17.461816L974.940687,17.502583L975.007570,17.492078L975.131269,17.567109L975.200732,17.588368L975.266465,17.598622L975.476178,17.665650L975.584405,17.700414L975.591447,17.717171L975.594420,17.737929L975.632884,17.788450L975.646010,17.796703L975.664415,17.787699L975.681293,17.774444L975.706454,17.759438L975.727638,17.753185L975.732894,17.766691L975.732971,17.819212L975.768184,17.807457L975.815002,17.780947L975.848098,17.787699L975.874836,17.805707L975.914634,17.796453L975.952558,17.774944L975.974480,17.756437L975.989055,17.770943L976.004663,17.775444L976.044043,17.777195L976.126813,17.793952L976.345092,17.715670L976.389431,17.777195L976.410409,17.756437L976.432826,17.756437L976.485774,17.743431L976.542989,17.698413L976.645729,17.597872L976.672979,17.582366L976.733860,17.559606L976.760982,17.544600L976.777525,17.525842L976.803356,17.480073L976.819000,17.460565L976.839676,17.441807L976.856798,17.429302L976.877612,17.422800L976.912080,17.420799L976.947937,17.410795L976.973923,17.388285L976.995772,17.365776L977.019719,17.355522L977.035287,17.352520L977.070731,17.339015L977.090101,17.334763L977.103590,17.340765L977.113951,17.354771L977.119240,17.369027L977.116020,17.376530L977.142956,17.370778L977.165227,17.360274L977.184495,17.342766L977.204954,17.313754L977.199147,17.307501L977.197289,17.306251L977.193548,17.292745L977.229197,17.291245L977.254315,17.297747L977.273602,17.311753L977.306054,17.357772L977.308418,17.367276L977.301030,17.384284L977.286453,17.430303L977.314203,17.433304L977.377010,17.415797L977.434054,17.376530L977.444196,17.313754L977.481691,17.300749L977.569827,17.256480L977.595211,17.260232L977.613784,17.278739L977.627116,17.280240L977.637288,17.284742L977.644688,17.313754L977.638231,17.326259L977.594051,17.376530L977.628082,17.370278L977.714428,17.334763L977.698333,17.397789L977.781943,17.325259L977.936372,17.250728L977.967076,17.230219L978.006449,17.196205L978.043597,17.154687L978.064822,17.112419L978.070845,17.083657L978.083491,17.039138L978.094619,17.019380L978.127524,16.977362L978.139720,16.955102L978.123390,16.955102L978.114001,16.970609L978.097768,16.991618L978.078623,17.010376L978.060165,17.017879L978.032407,17.014878L978.027977,17.006624L978.030326,16.993118L978.024638,16.976111L978.005124,16.939846L977.997431,16.913584L977.978638,16.897578L977.927562,16.892075L977.904035,16.847556L977.879388,16.752515L977.891353,16.664977L977.981770,16.642467L977.981722,16.591945L977.979952,16.577439L978.002973,16.591445L978.011217,16.598448L978.037923,16.560932L978.043289,16.529418L978.030293,16.505907L978.001731,16.491401L978.035049,16.469892L978.043075,16.447632L978.028027,16.437377L977.991817,16.451383L977.973039,16.424872L977.982837,16.393858L978.000453,16.360343L978.007715,16.323827L977.998526,16.309321L977.958650,16.270553L977.942851,16.250294L977.939632,16.226784L977.950546,16.200772L977.965850,16.173760L977.977797,16.144497L978.008834,16.088722L978.054786,16.037699L978.097048,15.979673L978.113418,15.904139L978.097397,15.845612L978.059728,15.805594L978.008821,15.783584L977.952750,15.776081L977.938910,15.753070L977.894944,15.643270L977.857297,15.606503L977.824995,15.599750L977.796700,15.600500L977.770683,15.596499L977.679590,15.511960L977.672407,15.501455L977.668680,15.490200L977.631851,15.443928L977.623418,15.438426L977.624922,15.416666L977.641682,15.380899L977.644241,15.354887L977.628462,15.298361L977.594649,15.259093L977.544459,15.236582L977.482751,15.228829L977.429273,15.252840L977.332467,15.347634L977.295141,15.354887L977.322006,15.337129L977.339718,15.312367L977.340244,15.288356L977.316050,15.270848L977.349505,15.233581L977.435488,15.158546L977.461774,15.125530L977.472079,15.085762L977.458132,15.024233L977.459614,14.987465Z M20.185133,14.757857L20.183736,14.720589L20.156562,14.681321L20.121029,14.668565L20.098320,14.687324L20.110891,14.744601L20.139017,14.773614L20.167243,14.777116L20.185133,14.757857Z M974.530853,14.660311L974.479456,14.688574L974.445368,14.691576L974.382835,14.660311L974.377259,14.683072L974.402288,14.704582L974.391045,14.737097L974.368530,14.779117L974.361019,14.830141L974.381765,14.860155L974.418411,14.849400L974.462753,14.812633L974.515539,14.752104L974.522184,14.738348L974.532792,14.727092L974.552023,14.723341L974.530853,14.660311Z M980.508142,15.061000L980.561755,15.007725L980.604962,14.947197L980.639658,14.877914L980.664838,14.798626L980.681445,14.690575L980.686477,14.672066L980.664161,14.649556L980.641550,14.647555L980.614059,14.655558L980.499845,14.673067L980.472279,14.705082L980.463930,14.746602L980.444956,14.787871L980.454500,14.830141L980.456813,14.875163L980.450213,14.924436L980.404742,15.106771L980.420203,15.124280L980.508142,15.061000Z M20.600258,14.813133L20.625278,14.751854L20.665838,14.703081L20.711239,14.683072L20.711123,14.666314L20.727131,14.565766L20.699291,14.524996L20.650130,14.494982L20.553944,14.450210L20.497656,14.446959L20.459509,14.416944L20.426345,14.381928L20.384807,14.364669L20.394543,14.388681L20.413341,14.448960L20.429472,14.471471L20.458188,14.486228L20.519362,14.498233L20.549558,14.513241L20.587504,14.538002L20.597187,14.556011L20.606954,14.597281L20.599436,14.614039L20.581231,14.625044L20.572077,14.643553L20.591561,14.683072L20.564673,14.717088L20.546405,14.776616L20.553109,14.836144L20.601334,14.870160L20.600258,14.813133Z M975.045004,14.128806L975.054255,14.086285L975.045904,14.049767L974.998747,14.134308L974.983726,14.154818L974.966936,14.154818L974.958595,14.139811L974.940819,14.083784L974.940927,14.070778L974.917065,14.081033L974.844609,14.133308L974.820406,14.154818L974.804188,14.183832L974.791643,14.218349L974.774485,14.247613L974.747794,14.259619L974.723494,14.276127L974.709927,14.313895L974.704911,14.355915L974.707895,14.385679L974.698432,14.386930L974.669740,14.385679L974.664184,14.408440L974.734044,14.427700L974.743267,14.389931L974.760134,14.361918L974.784290,14.340658L974.814628,14.322649L974.818581,14.340408L974.824477,14.348412L974.832013,14.354164L974.841222,14.364669L974.863300,14.314395L974.958757,14.252866L974.993400,14.196588L975.022522,14.168325L975.045004,14.128806Z M975.444938,13.694594L975.465539,13.674334L975.483787,13.652074L975.498312,13.628062L975.468924,13.607052L975.502181,13.572284L975.602003,13.500249L975.564237,13.484992L975.511904,13.479489L975.474794,13.494997L975.482375,13.542270L975.409258,13.579538L975.386673,13.608052L975.405763,13.668081L975.417930,13.695345L975.421294,13.712103L975.444938,13.694594Z M977.939212,13.267384L977.920725,13.250876L977.903927,13.250876L977.885333,13.360430L977.895799,13.397449L977.946905,13.376438L978.016396,13.380440L978.024413,13.368935L978.017800,13.334918L978.043612,13.271386L977.969298,13.272887L977.939212,13.267384Z M982.194727,13.912201L982.231523,13.902696L982.270102,13.885938L982.315532,13.858174L982.351985,13.829660L982.378034,13.797641L982.382144,13.792017L982.515538,13.246673L982.512296,13.251281L982.423240,13.378439L982.398569,13.429464L982.373157,13.470985L982.237882,13.628062L982.160520,13.682088L982.119321,13.719357L982.094473,13.764629L982.095122,13.806399L982.132235,13.854172L982.133823,13.902696L982.161395,13.912951L982.194727,13.912201Z M17.887571,13.487993L17.876104,13.416458L17.876917,13.388944L17.890129,13.334418L17.960288,13.230116L17.968799,13.206354L17.948163,13.179341L17.918261,13.156830L17.879572,13.134069L17.870431,13.101803L17.848102,13.049777L17.802419,12.962984L17.771228,12.926966L17.733607,12.916210L17.682861,12.933719L17.642164,12.967486L17.501046,13.203103L17.485520,13.250859L17.485498,13.250927L17.618885,13.796201L17.618899,13.796144L17.640750,13.698596L17.705886,13.617307L17.840834,13.500249L17.861558,13.489994L17.878760,13.492996L17.887571,13.487993Z M975.783506,13.299900L975.988601,13.149826L976.003724,13.134069L976.018925,13.107055L976.071226,13.071788L976.098112,13.038771L976.128831,12.984244L976.131300,12.941973L976.107106,12.917211L976.056570,12.913209L976.071590,12.982744L976.018124,13.050277L975.868286,13.164834L975.739524,13.281391L975.682522,13.308905L975.657940,13.271386L975.639616,13.271386L975.629865,13.302902L975.595563,13.378439L975.589244,13.397449L975.605159,13.414707L975.628710,13.410205L975.652970,13.393697L975.669556,13.376438L975.677446,13.384442L975.700929,13.397449L975.734906,13.344172L975.783506,13.299900Z M982.391137,12.847676L982.441319,12.843174L982.479654,12.813659L982.505579,12.764135L982.518167,12.701103L982.492190,12.734620L982.459552,12.754130L982.427146,12.763635L982.401667,12.766136L982.388899,12.775641L982.380354,12.819162L982.368118,12.829167L982.348433,12.831168L982.299495,12.847676L982.391137,12.847676Z M978.979943,12.594050L978.952670,12.609558L978.928104,12.615561L978.906604,12.610558L978.887853,12.594050L978.802704,12.638072L978.808803,12.649077L978.815959,12.653830L978.834124,12.659082L978.882583,12.663585L978.922114,12.651579L978.953723,12.627066L978.979943,12.594050Z M982.694776,12.497050L982.697010,12.496505L982.715249,12.420547L982.735178,12.337431L982.731565,12.342996L982.679495,12.425966L982.663310,12.462484L982.657799,12.487247L982.662590,12.500003L982.675580,12.502254L982.694776,12.497050Z M17.302919,12.495991L17.418214,12.440473L17.455372,12.402954L17.479913,12.361934L17.458217,12.342424L17.431858,12.329418L17.423712,12.300403L17.427901,12.271389L17.438104,12.258382L17.460979,12.256381L17.474139,12.251629L17.484430,12.245376L17.499424,12.239623L17.493985,12.216861L17.473464,12.200853L17.467432,12.188847L17.476413,12.179843L17.500310,12.174340L17.495415,12.153830L17.458749,12.159332L17.362073,12.194600L17.343274,12.206356L17.335876,12.238872L17.277751,12.295150L17.265158,12.338641L17.265149,12.338672L17.265132,12.338722L17.302872,12.496013L17.302919,12.495991Z M981.175528,11.874939L981.212239,11.858181L981.180742,11.843674L981.143976,11.836670L981.052289,11.836670L981.047202,11.858181L981.085211,11.874689L981.130625,11.880192L981.175528,11.874939Z M982.665957,11.543272L982.690527,11.533517L982.738933,11.531016L982.762612,11.522262L982.965592,11.354999L982.969002,11.352151L982.983322,11.291174L982.980155,11.291145L982.938156,11.291145L982.721394,11.385693L982.695392,11.412706L982.581288,11.496749L982.537575,11.543272L982.526119,11.533517L982.495871,11.534018L982.469602,11.522262L982.494039,11.507504L982.511061,11.488995L982.510657,11.471236L982.484030,11.460981L982.443188,11.471236L982.371943,11.529015L982.336270,11.543272L982.322701,11.507254L982.333779,11.436969L982.327898,11.390445L982.236270,11.441221L982.163650,11.471486L982.145582,11.490746L982.129878,11.518510L982.105664,11.526764L982.055633,11.522262L982.046254,11.518510L982.039505,11.511006L982.030135,11.503502L982.012106,11.501251L982.010029,11.511006L982.003421,11.533517L981.990915,11.556029L981.971965,11.566034L981.953896,11.563032L981.937285,11.564033L981.922798,11.581041L981.911537,11.628815L981.905070,11.596049L981.893258,11.578540L981.872859,11.580791L981.843132,11.607805L981.821371,11.588045L981.794388,11.576539L981.774376,11.559531L981.770047,11.522262L981.747470,11.562532L981.698365,11.670837L981.692745,11.633568L981.682352,11.603553L981.662360,11.585544L981.627049,11.585294L981.655524,11.639571L981.613962,11.656579L981.520559,11.648075L981.474237,11.675089L981.453123,11.714609L981.437081,11.763133L981.405991,11.816160L981.372858,11.786395L981.334818,11.813408L981.298283,11.868186L981.272966,11.920712L981.251635,11.905705L981.223490,11.901953L981.190818,11.912708L981.156221,11.941723L981.179083,11.962233L981.195663,11.997251L981.202141,12.040773L981.195356,12.086796L981.178030,12.079792L981.166878,12.080793L981.154259,12.084295L981.131182,12.086796L981.113141,12.077291L981.106034,12.035520L981.089577,12.025765L981.051806,12.043274L981.022990,12.074540L980.996068,12.086796L980.964715,12.048777L980.912291,12.090298L980.838171,12.079792L980.764893,12.056531L980.715782,12.059282L980.697136,12.069787L980.648506,12.078792L980.625870,12.086796L980.613614,12.099802L980.582759,12.143324L980.573278,12.153830L980.545083,12.158582L980.463706,12.153830L980.378310,12.173339L980.224665,12.228367L980.096210,12.245376L980.015695,12.271889L979.973532,12.279393L979.965932,12.266386L979.946861,12.245626L979.921007,12.247877L979.893631,12.302404L979.883055,12.296401L979.854345,12.285896L979.844542,12.279393L979.843590,12.321914L979.852349,12.369438L979.851123,12.408457L979.819152,12.424465L979.783304,12.451229L979.739538,12.502004L979.702174,12.530518L979.683997,12.491499L979.665665,12.491499L979.659328,12.523515L979.649605,12.545026L979.633837,12.560783L979.608922,12.575541L979.611643,12.555031L979.606592,12.527767L979.605773,12.512009L979.494814,12.636571L979.475127,12.669588L979.465771,12.746876L979.451267,12.769137L979.412034,12.787146L979.424834,12.697352L979.406868,12.667587L979.361827,12.687096L979.178514,12.829167L979.156167,12.853179L979.145416,12.870688L979.129757,12.883194L979.092367,12.891698L979.066415,12.886196L978.997410,12.829167L978.916802,12.815911L978.891212,12.806156L978.875498,12.786146L978.856377,12.736621L978.839993,12.722114L978.812555,12.724615L978.701148,12.766136L978.711026,12.824165L978.729488,12.858182L978.767049,12.861683L978.832672,12.829167L978.813076,12.877191L978.761496,12.950227L978.737220,12.996750L978.712194,12.979242L978.694946,12.999252L978.675831,13.034269L978.647436,13.059782L978.662603,12.996750L978.552778,13.077791L978.513750,13.129316L978.506959,13.187345L978.488633,13.187345L978.469378,13.168586L978.452758,13.186845L978.450200,13.221862L978.473301,13.250876L978.465249,13.261632L978.464088,13.264633L978.450023,13.271386L978.504135,13.335418L978.585980,13.319910L978.773001,13.229366L978.773681,13.269886L978.792162,13.290896L978.844090,13.313407L978.797325,13.407453L978.815622,13.477738L978.854480,13.536017L978.866722,13.596046L978.853936,13.679087L978.849868,13.778135L978.859335,13.862676L978.885543,13.902696L978.922122,13.923456L978.955913,13.927958L979.034580,13.921955L979.044930,13.909949L979.157616,13.837914L979.129675,13.807650L979.140613,13.789641L979.169077,13.774884L979.194642,13.754124L979.250020,13.636066L979.268425,13.607052L979.402582,13.500249L979.440781,13.479489L979.469508,13.468984L979.497085,13.473986L979.532147,13.500249L979.546913,13.439469L979.565672,13.439469L979.558672,13.470985L979.560300,13.497498L979.570947,13.516507L979.619575,13.530014L979.625096,13.546772L979.622804,13.570534L979.627935,13.596046L979.657350,13.618557L979.754381,13.653574L979.785252,13.670082L979.804009,13.670082L979.839733,13.638067L979.930020,13.579038L979.964711,13.542270L979.917598,13.531514L979.885915,13.538018L979.806161,13.584290L979.925364,13.364933L980.000208,13.288395L980.075293,13.313407L980.119400,13.291646L980.162441,13.259881L980.188886,13.217360L980.184149,13.164834L980.282460,13.090297L980.342772,13.053779L980.568122,12.966235L980.597164,12.965235L980.619916,12.953229L980.657724,12.980993L980.710748,13.038771L980.790658,13.059281L980.817090,13.080792L980.799673,13.124814L980.805870,13.164083L980.765400,13.184343L980.712423,13.203103L980.678735,13.240371L980.651378,13.283893L980.619106,13.305403L980.614727,13.312657L980.830422,13.294898L980.904710,13.298900L980.988354,13.334418L981.037021,13.307404L981.086840,13.295398L981.172646,13.292397L981.291606,13.263382L981.345038,13.266134L981.379575,13.313407L981.432305,13.257129L981.547108,13.186845L981.590301,13.124814L981.608409,13.124814L981.609230,13.135819L981.615280,13.164834L981.632491,13.128066L981.654275,13.109306L981.682093,13.102553L981.715218,13.101803L981.748381,13.092798L981.802830,13.051778L981.832380,13.038771L981.868476,13.043774L981.916255,13.057281L981.972882,13.061282L982.035282,13.038771L982.052050,13.080292L982.086079,13.098301L982.181223,13.101803L982.159676,13.143823L982.165285,13.183593L982.194325,13.197850L982.240964,13.164834L982.253707,13.174338L982.290468,13.187345L982.285368,13.168836L982.277959,13.120312L982.272853,13.101803L982.345289,13.136820L982.384273,13.146074L982.415618,13.124814L982.422043,13.076790L982.391304,13.047025L982.345720,13.035270L982.308218,13.038771L982.318112,12.968236L982.307443,12.910458L982.270710,12.874690L982.201467,12.868687L982.277457,12.787146L982.289092,12.784145L982.321246,12.790148L982.332444,12.787146L982.338444,12.773139L982.342672,12.736621L982.348134,12.722114L982.485309,12.533020L982.538196,12.445476L982.559037,12.420463L982.584198,12.397452L982.602938,12.368437L982.590747,12.295401L982.596911,12.269638L982.592105,12.256881L982.551150,12.258382L982.529670,12.267887L982.513439,12.284645L982.498890,12.304405L982.481069,12.321414L982.321792,12.395951L982.292116,12.415961L982.257924,12.462985L982.194872,12.512009L982.090573,12.575541L982.045225,12.590798L982.018327,12.605556L982.002996,12.627567L981.988167,12.653830L981.964547,12.665836L981.935817,12.674590L981.906651,12.690598L981.882508,12.718362L981.836529,12.794150L981.808224,12.829167L981.796302,12.835170L981.761204,12.843174L981.748771,12.847676L981.741133,12.859432L981.721881,12.901203L981.714616,12.913209L981.687422,12.923714L981.655643,12.929717L981.625931,12.945225L981.605538,12.986245L981.586614,13.015760L981.552778,13.039272L981.515546,13.054279L981.486941,13.059782L981.445345,13.074789L981.365563,13.152828L981.318575,13.187345L981.299134,13.146074L981.256218,13.136820L981.203372,13.152328L981.152339,13.187345L981.137946,13.164834L981.176092,13.119061L981.199246,13.061282L981.203032,13.007756L981.183717,12.975740L981.201575,12.963234L981.250060,12.944975L981.268706,12.933719L981.314862,12.877191L981.332540,12.858182L981.367833,12.832169L981.448383,12.783144L981.485559,12.755631L981.516549,12.712109L981.533940,12.661584L981.544670,12.613310L981.557887,12.575541L981.582674,12.532269L981.599383,12.509008L981.619829,12.491999L981.923120,12.299903L981.986951,12.279393L982.055992,12.244375L982.142399,12.163084L982.211360,12.071538L982.227032,12.004755L982.281653,11.968737L982.429532,11.798151L982.481497,11.727115L982.506046,11.712858L982.506307,11.701602L982.531433,11.676590L982.578623,11.638570L982.602515,11.615059L982.638638,11.566534L982.665957,11.543272Z M17.031507,11.354175L17.083231,11.333166L17.123272,11.308404L17.149937,11.269884L17.161403,11.205602L17.076065,11.235617L17.042188,11.257378L17.016705,11.291138L17.016700,11.291145L17.016678,11.291171L17.031477,11.354188L17.031507,11.354175Z M977.344379,0.000000L977.263894,0.049520L977.230072,0.056273L977.191801,0.043768L977.191090,0.059774L977.196651,0.105043L977.239909,0.098290L977.283814,0.102042L977.325007,0.112796L977.359779,0.127802L977.407638,0.126301L977.470975,0.111045L977.517705,0.081033L977.514098,0.033264L977.480270,0.016507L977.383297,0.016507L977.344379,0.000000Z "/></g></svg>