<?xml version="1.0" encoding="utf-8"?><!DOCTYPE svg  PUBLIC '-//W3C//DTD SVG 1.1//EN'  'http://www.w3.org/Graphics/SVG/1.1/DTD/svg11.dtd'><svg enable_background="new 0 0 1000 404" height="404px" pretty_print="False" style="stroke-linejoin: round; stroke:#000; fill: none;" version="1.1" viewBox="0 0 1000 404" width="1000px" xmlns="http://www.w3.org/2000/svg" xmlns:xlink="http://www.w3.org/1999/xlink"><defs><style type="text/css"><![CDATA[path { fill-rule: evenodd; }]]></style></defs><metadata><views><view h="404.565515082" padding="0" w="1000"><proj flip="auto" id="robinson" lon0="-58.7512781027"/><bbox h="16.71" w="41.41" x="-775.59" y="855.77"/></view></views></metadata><g class="" fill="#000" id="country"><path d="M502.494433,373.033864L495.810566,353.087003L468.409389,338.122964L455.180715,335.326283L460.492468,343.829343L467.594354,362.607834L479.052232,377.113174L485.710757,380.474643L502.494433,373.033864Z M851.380121,287.651317L843.462949,283.982599L832.024720,283.150490L822.439293,294.383079L836.963138,310.907045L865.203444,321.719140L851.380121,287.651317Z M32.250911,200.341212L26.169582,211.284958L1.238956,221.166847L15.242407,235.059565L50.337115,261.095809L76.651654,262.571394L79.275444,243.461915L77.088171,203.635888L56.039859,205.680776L32.250911,200.341212Z M211.327513,74.640888L153.909555,50.352233L126.145111,32.813172L110.458050,34.180024L135.515368,61.397113L139.026179,75.134156L147.298338,83.784718L183.377356,106.923087L222.670131,120.688399L248.342814,143.358791L239.771572,150.029511L188.493036,165.983415L169.774095,165.680289L155.395487,172.007749L186.718013,189.016870L220.586194,180.721213L233.929550,174.205167L249.529908,173.523217L263.653206,180.190862L268.852545,195.001214L257.584075,206.362391L248.921824,221.204706L218.953314,235.778727L186.234232,264.614457L133.179569,262.647064L88.140620,305.575961L146.470832,340.579412L190.583013,356.298545L245.718508,358.754327L249.680785,349.308520L258.039440,345.416461L277.817142,342.997980L285.214552,337.556079L295.787036,311.927842L296.352939,278.119793L311.885094,276.682381L332.203141,280.994524L374.342862,277.211957L393.183921,271.575534L433.846530,208.861587L459.732635,159.655373L470.348151,138.582742L489.349903,125.427846L498.021929,111.246392L503.581719,93.685917L517.640015,81.091027L518.665518,61.283258L496.539438,44.202716L472.875361,35.015308L455.971151,54.679319L445.260057,48.909806L384.401659,65.837306L361.692581,68.455738L339.566663,51.870542L314.343002,45.948935L289.333083,54.679319L258.278937,82.039523L211.327513,74.640888Z M255.741850,48.985724L259.249622,28.256789L256.546877,14.775599L220.674296,1.367551L189.751523,4.140550L200.918734,36.268213L213.720715,49.023683L255.741850,48.985724Z M600.547828,402.565515L601.485293,359.245473L625.651127,354.258289L656.740070,361.474473L681.659523,350.366517L621.277481,290.223082L639.647994,286.441041L798.118996,321.794743L792.327490,292.303113L786.843403,281.372768L766.525760,258.674265L862.842657,230.593016L893.441374,214.579086L906.167790,192.463616L948.162599,183.941114L994.284254,170.643797L993.158587,161.095341L998.761044,142.297477L971.751359,130.053213L940.105237,121.750065L947.327432,102.561567L977.982679,96.417015L927.909036,51.946456L908.822665,44.506410L841.021534,52.401941L826.489317,57.222295L822.651647,72.933390L833.130278,91.789252L849.889679,109.274394L855.585316,119.967973L843.716808,118.451260L773.033239,92.965191L758.837177,83.063882L747.702057,59.879029L761.965471,55.172740L781.442616,57.715697L784.000149,40.102713L763.054729,21.117808L736.241839,14.851558L680.293688,22.788704L625.619217,0.000000L605.259433,0.835729L626.214099,34.217991L579.837205,86.098927L592.285274,124.290410L610.919173,147.755479L617.500947,161.436381L609.059425,168.673595L584.321480,171.931975L562.708509,181.554614L554.248741,198.296157L494.104493,254.474189L510.769802,271.991662L491.213544,313.288881L499.286573,335.401871L548.991346,374.884693L600.547828,402.565515Z "/></g></svg>