<?xml version="1.0" encoding="utf-8"?><!DOCTYPE svg  PUBLIC '-//W3C//DTD SVG 1.1//EN'  'http://www.w3.org/Graphics/SVG/1.1/DTD/svg11.dtd'><svg enable_background="new 0 0 1000 475" height="475px" pretty_print="False" style="stroke-linejoin: round; stroke:#000; fill: none;" version="1.1" viewBox="0 0 1000 475" width="1000px" xmlns="http://www.w3.org/2000/svg" xmlns:xlink="http://www.w3.org/1999/xlink"><defs><style type="text/css"><![CDATA[path { fill-rule: evenodd; }]]></style></defs><metadata><views><view h="475.154096541" padding="0" w="1000"><proj flip="auto" id="robinson" lon0="-58.6174117015"/><bbox h="22.21" w="46.83" x="-779.96" y="851.86"/></view></views></metadata><g class="" fill="black" id="country"><path d="M555.760954,473.154097L556.186555,468.169881L560.068110,463.871543L565.449811,459.914169L560.658332,455.680015L554.416186,458.573794L544.309797,459.712248L537.177111,456.557708L538.647803,451.922294L542.209019,447.983216L540.483191,443.368477L546.341040,441.902201L543.967700,438.003998L534.842817,438.068912L528.661736,439.890270L526.350558,445.954231L528.721359,449.852941L522.404146,451.316046L516.172641,456.688976L523.434202,460.202697L528.222329,464.441572L534.807630,463.688133L540.248956,467.211152L547.387396,470.366900L555.760954,473.154097Z M499.479325,381.567029L495.678641,378.753312L496.744586,385.244162L500.443432,391.121529L505.181413,393.795399L510.296864,395.995680L515.273191,400.395999L518.384772,406.466789L519.177998,412.035776L518.309175,416.490591L516.318502,419.051958L517.025902,419.553082L517.535958,420.054202L517.947346,420.555318L518.280199,421.112108L519.978343,425.232195L523.088708,427.709677L525.649206,427.848859L525.958629,422.671093L527.598658,420.778034L529.908817,419.525242L532.018283,419.051958L536.140537,417.047419L538.306747,412.536959L537.244843,407.859085L531.583621,405.297236L531.071603,402.234010L530.988405,399.476972L531.242492,397.137567L531.901162,395.494358L526.228577,390.982262L520.067839,389.868111L507.193017,391.037969L499.479325,381.567029Z M844.143240,335.750829L842.473155,334.245312L840.347766,332.600352L836.833524,331.568744L832.743385,331.401454L832.120096,332.349423L834.600900,333.910748L834.032374,334.356834L831.674651,334.775036L829.493396,336.196900L825.876712,337.033275L822.666091,338.650233L820.015027,340.545919L818.886452,342.803937L822.185976,345.786618L826.525610,348.323172L828.813262,351.082595L829.959477,354.092728L831.235727,355.848568L838.320811,358.356820L843.020471,360.669891L847.917915,362.453402L850.541657,361.673122L852.077340,361.700990L852.735557,364.041796L851.449162,365.908801L854.204597,367.720018L860.075559,368.528082L860.862518,367.051267L858.173398,364.459787L857.242487,362.341934L857.534683,360.892833L857.071319,358.886326L853.375848,354.928849L851.799080,351.751527L851.248555,348.462540L851.416006,345.340620L850.678572,344.615864L849.096160,346.678606L846.524956,347.737823L843.163449,346.232613L843.159035,345.312744L846.264618,345.619369L847.040862,344.169857L844.221214,340.796815L843.722549,339.375061L846.130255,339.319306L851.810374,341.047709L854.933081,340.964077L854.767563,338.204180L854.280208,335.778708L855.302889,335.248994L855.081955,334.775036L850.501279,332.014847L848.890132,331.429336L847.842920,331.763914L849.005134,334.078030L848.014443,335.639310L845.683495,335.945985L844.143240,335.750829Z M507.881535,323.900816L505.689277,322.255566L503.614343,321.307435L501.268868,318.741828L501.173322,315.952996L500.256379,313.693946L497.240018,312.940910L494.805172,315.506771L495.103334,319.076478L496.557175,321.697844L496.460443,325.880631L498.047997,327.246944L499.573146,326.995991L500.976336,327.079642L502.325238,328.055563L503.383458,329.170881L504.215022,330.174650L505.902620,330.592881L508.302695,329.840062L509.743039,327.386362L507.881535,323.900816Z M68.946393,276.225609L75.545409,272.095087L78.240470,271.341515L75.631977,268.410861L73.058714,266.149971L70.568978,264.782229L68.030731,264.307699L65.474893,265.173016L65.092611,267.322296L65.419869,269.666874L65.150924,271.341515L65.740027,275.667447L65.017728,277.062841L59.244562,273.602204L52.969733,272.262547L50.213444,271.341515L47.606845,272.095087L46.530056,272.820741L45.597722,273.881295L56.282336,281.388349L68.115787,286.745953L77.516463,286.773856L80.795661,278.346574L78.224267,279.407027L75.516882,279.853528L72.667215,279.518653L69.720757,278.346574L68.946393,276.225609Z M168.478245,285.574019L167.703807,281.806930L165.216584,273.378929L165.600642,270.253004L166.235965,268.243391L166.664900,265.117189L166.654847,261.627926L166.058918,258.585118L163.607307,254.062485L160.777058,252.080232L157.883168,252.415266L155.337786,254.927954L153.769263,258.920114L155.549632,260.371741L158.551705,261.460436L160.760879,264.307699L161.088016,272.095087L157.974024,275.667447L153.502222,278.011690L147.437589,283.927692L129.772603,289.229259L128.081406,288.420103L127.704467,285.574019L130.442036,279.741903L141.504028,273.685931L145.371860,270.253004L145.252797,266.652399L142.019854,264.140217L135.750861,261.962905L134.830816,261.125455L134.163286,259.953006L132.939018,258.640951L130.423040,257.468451L129.119795,257.273033L126.203993,257.273033L125.031581,257.468451L121.704142,259.031779L119.447970,261.544182L116.667510,267.908449L115.458279,273.685931L114.008149,273.992931L102.948187,273.825476L98.829753,274.355747L95.844427,276.365148L92.785713,280.886048L98.271861,282.058077L103.544390,284.876428L107.172798,289.759389L107.833395,297.292299L109.163586,297.292299L110.156409,297.933946L111.098801,298.798764L112.382774,299.635673L115.431693,300.639947L121.309912,301.114182L124.296700,301.978953L126.206802,303.959509L128.016598,306.748911L130.503648,308.924553L134.413842,309.008230L134.179751,310.263369L134.278831,313.693946L148.521707,317.849416L154.075338,318.072520L161.102025,316.008774L172.906315,313.693946L175.904190,311.546372L176.660366,309.036122L176.276289,302.787921L177.261970,299.635673L166.027382,299.635673L168.233123,289.619881L168.478245,285.574019Z M62.820173,228.958255L57.354878,228.036535L46.304681,224.349510L40.520463,224.461242L35.438526,226.444440L33.134089,229.433074L32.730750,234.013484L33.548510,240.855497L36.576203,244.876547L40.327140,247.529171L44.338160,249.204450L48.049023,250.237514L44.284467,239.989817L43.645994,235.996355L44.466304,232.561199L48.137300,230.606140L58.965189,231.136806L62.820173,228.958255Z M517.028238,112.621199L514.119380,109.430550L509.229673,107.527270L504.003155,106.687568L500.158913,106.743548L501.221820,108.338971L503.260182,112.229374L504.313523,113.796656L501.952095,113.544774L497.415805,114.020550L495.053060,113.796656L497.316236,118.106458L501.013781,128.236007L503.451481,130.194552L507.032303,131.033907L511.522832,133.216174L515.801039,136.181686L518.777009,139.398812L494.887421,147.454819L481.824922,147.286997L467.608897,141.748598L473.614791,138.895273L488.847371,127.900249L488.026913,125.549893L482.857497,126.641142L476.058199,133.328083L471.773817,134.894785L424.059736,144.294091L409.610152,144.294091L399.407925,137.300707L409.060828,137.300707L413.383638,136.573346L417.085892,134.894785L407.976143,131.761339L381.132142,127.900249L381.540509,126.613161L381.648629,125.382007L382.037707,124.290734L383.188293,123.199440L382.362899,120.848889L373.623550,118.778086L365.765970,121.856280L353.220041,132.768537L348.222555,124.122843L346.490725,122.024177L342.444599,119.589626L341.170110,121.016789L341.254415,125.549893L336.514475,130.166573L332.934328,136.125734L333.097451,143.930456L352.797003,145.273096L361.457247,151.342555L319.294792,158.194397L293.928071,155.257994L268.701993,146.447880L234.359410,127.816310L223.276377,123.199440L189.791113,113.740682L179.132762,108.870768L177.298260,110.606073L175.000261,111.501693L172.244113,111.697608L169.086056,111.445717L175.784434,118.834054L178.647435,122.975582L178.987961,126.725083L179.592803,129.355183L182.589951,132.041118L186.349896,134.111439L189.309633,134.894785L193.224533,135.510263L203.102819,139.398812L206.892461,139.818423L214.214678,139.314889L224.927802,140.405875L233.200801,142.391975L241.527737,145.524837L248.747310,150.167871L255.070186,157.159681L252.813020,158.781660L238.804069,156.041049L222.913579,156.041049L221.035909,157.858816L223.107314,161.969551L228.484079,169.071760L232.677733,171.588079L277.627461,186.124655L284.877392,186.739584L295.558610,195.934767L299.112589,197.807162L305.185709,199.483882L308.539105,200.825224L329.599072,215.130921L335.731430,217.226184L342.899024,217.561419L350.969044,219.069953L358.741980,222.589711L364.953062,228.958255L349.421193,227.701361L342.102228,225.271289L327.542697,216.220467L321.656998,215.466168L304.771104,221.500285L282.810765,219.768334L277.133834,221.444417L267.473712,229.209630L261.909613,231.499890L254.121948,231.304383L224.694882,224.628839L218.421484,221.388548L213.829971,220.746055L212.128887,226.612031L214.384965,233.678345L219.894530,240.604172L226.870195,245.853844L233.536322,247.892152L239.423328,250.823840L244.179706,256.910110L248.783345,261.990819L254.219219,261.962905L255.418008,259.701764L255.743440,256.603020L256.775065,253.783299L260.150465,252.582782L272.332071,252.582782L275.623243,251.605599L285.515755,245.351236L288.617603,245.714231L291.406769,247.138266L293.387755,247.138266L294.132687,243.201143L289.930821,236.024282L296.233752,234.320694L312.777688,236.191846L318.864934,234.990965L324.527095,232.784629L330.789383,231.639537L338.751640,233.650417L340.019298,238.677311L342.893226,245.853844L344.380486,252.163991L338.224294,258.110537L336.062853,259.478436L334.565400,258.585118L332.390612,255.095463L330.374977,255.458397L328.500604,257.105530L326.782203,257.468451L324.219951,254.955873L320.333022,249.483658L317.979961,247.892152L315.094566,247.640858L312.313297,248.478502L310.555905,250.544638L310.684018,253.755380L314.175813,264.893883L316.579573,268.829535L321.606676,273.881295L316.416707,273.518476L313.577928,275.779080L312.970315,280.020965L314.562290,285.574019L304.636101,279.965153L300.886012,278.346574L302.548104,268.689978L302.131183,265.480061L299.751833,262.716599L296.341304,262.716599L288.629252,264.307699L292.067810,260.315910L293.431498,257.803454L294.489235,254.927954L288.418022,253.587867L281.633501,255.346726L276.633590,259.618016L275.970713,265.480061L277.945275,270.169271L282.016005,277.620989L283.522928,280.886048L283.683347,283.648648L283.081042,285.880956L283.772677,288.559614L287.750701,292.605269L286.243237,294.307151L284.704870,296.957524L283.768027,300.054123L284.018885,303.150558L283.607380,304.991604L279.020387,306.804698L277.445753,307.920421L272.791236,310.151802L250.934778,309.008230L263.847820,313.889176L277.324557,314.112295L288.857092,310.207586L296.087984,303.150558L299.152083,301.225766L302.728039,302.787921L305.211958,305.465803L304.891380,306.860485L303.971944,308.422489L300.643478,318.546614L296.058055,322.088250L289.662595,324.542172L282.451460,325.713325L275.534389,325.573904L276.384082,327.916147L280.854189,330.063121L279.863348,334.022270L277.515278,333.938628L271.637491,330.063121L266.102662,327.163293L262.929251,326.047936L255.039054,325.044098L251.867724,324.207552L249.324636,324.374862L247.384248,326.745037L245.353150,328.501693L242.787726,327.246944L240.308795,324.235437L238.571382,320.693930L236.344336,323.817160L235.801550,325.406597L235.659496,327.916147L233.813871,327.916147L226.217904,320.805477L213.062033,318.379287L189.685192,318.546614L198.450599,327.163293L205.732051,329.840062L213.412361,330.899583L223.404117,334.747155L224.257354,337.089033L209.099410,342.385792L191.538619,344.309234L199.662554,355.987918L194.557357,356.378096L192.338567,353.674663L191.053278,349.800455L188.644316,346.455610L185.292924,344.978243L173.286768,344.309234L156.970349,339.486572L149.776122,338.315693L148.230343,341.772508L149.420802,349.995565L154.939868,353.758277L168.174767,355.987918L174.150817,359.053537L186.520149,368.750994L192.600624,372.373199L196.530325,373.153337L200.144085,373.041889L203.797447,373.487678L207.869112,375.883739L224.870351,388.976776L227.121647,391.316503L229.951280,392.959828L234.618029,393.600433L250.271919,393.600433L245.574424,388.113281L238.121264,381.901324L230.143695,376.775272L223.934845,374.713582L220.396291,374.490692L216.619176,373.766295L214.486309,372.317474L215.785244,369.809815L218.939006,368.890314L246.429183,369.809815L251.245129,371.425874L251.088620,374.992193L248.733345,378.335421L247.079468,379.394071L251.833441,384.770605L260.194150,391.427916L269.003079,397.332520L275.191993,400.395999L272.831287,401.677043L270.336777,401.454255L267.407913,400.674489L263.807083,400.395999L278.057447,413.845585L293.055740,415.098497L305.721479,408.360303L312.967451,398.056630L309.038242,392.040685L303.860507,385.968419L298.039694,381.260591L289.739819,378.391140L288.103854,376.162344L287.733300,373.822018L288.873280,372.373199L292.461283,372.401061L299.069406,376.078763L302.552359,377.053873L304.660525,378.502578L312.032482,384.909887L317.444798,387.416906L319.998784,389.366736L322.360585,390.759433L323.867739,389.868111L323.810734,388.447539L323.204657,386.302688L322.193033,384.519897L320.902175,384.018477L326.685100,383.628481L336.812261,388.419684L342.859977,388.698230L345.291398,386.636956L359.540101,366.410374L361.297489,362.174731L360.822716,357.046968L356.388426,349.410233L351.213474,343.668094L347.735945,338.427206L348.311914,332.182135L351.544776,329.059350L367.206416,323.231567L366.596133,326.047936L363.209422,330.118885L363.053543,332.182135L365.785820,335.276874L368.871448,334.970195L374.126242,332.182135L397.937425,333.604062L402.458957,331.122637L402.041307,327.888263L396.303959,320.861251L395.635076,317.291652L396.695444,315.534660L398.846872,313.693946L401.456171,313.554495L403.942344,317.291652L406.075135,318.853378L410.061121,319.885210L417.153195,320.693930L418.542341,322.144022L424.217023,332.182135L437.805954,322.060364L448.804037,319.578451L451.855816,316.566551L453.199057,312.187864L453.852270,306.860485L456.129105,298.045536L472.997972,265.228842L486.295871,252.331508L491.161198,245.351236L496.954121,227.785154L502.866133,218.148075L502.668694,214.404545L495.336188,214.879484L505.980967,203.144552L510.328949,204.793175L513.892159,201.803265L519.499864,193.782834L519.675154,197.415920L521.092342,201.132610L523.631302,204.122554L527.153311,205.491730L530.535867,204.178440L534.854829,197.471812L537.664383,195.934767L538.816234,193.754887L536.354103,184.223928L536.559553,182.043604L541.776323,172.454786L541.022950,170.301974L535.809301,171.532162L534.203199,172.454786L534.613616,166.918821L534.240037,164.905610L532.611986,163.088068L531.790520,160.739158L534.281801,158.781660L537.313691,158.054572L540.577528,159.285022L543.703856,163.088068L548.570888,159.061306L557.181316,147.706551L563.216953,144.294091L558.981717,143.566818L554.933499,144.769609L551.390775,144.573808L548.583819,139.398812L548.986000,134.027509L553.138808,132.264940L564.942781,132.768537L559.138737,127.816310L550.444275,123.787062L519.848972,114.860144L517.028238,112.621199Z M420.606502,109.905692L415.865201,106.987125L410.994596,103.701076L405.317158,103.354859L405.218364,109.595564L397.618895,110.352467L390.480090,111.105771L393.630499,114.766838L403.386615,118.774970L413.501746,117.274212L420.498027,118.716139L416.251224,122.401363L417.151086,127.534021L426.451305,131.534782L434.056824,130.771002L441.080514,127.071298L449.823469,122.991880L457.167486,121.485335L454.801457,117.457819L444.230762,116.409535L437.171597,113.505537L433.825599,108.012259L427.554075,107.305853L429.570008,114.274241L420.606502,109.905692Z M365.044342,107.135411L367.001413,103.776504L361.834368,99.745553L360.931584,97.170074L362.639355,97.002104L365.875052,94.986424L364.056829,94.902436L351.778736,90.114902L347.280650,89.190945L343.105031,89.218944L331.447664,92.410729L336.088519,97.673981L341.626015,102.376901L347.685422,106.239722L353.908100,108.870768L359.486391,109.038703L365.044342,107.135411Z M282.607101,94.734459L274.870923,92.802690L267.941219,89.022951L265.024778,85.914978L262.242991,82.498810L259.034536,80.286591L254.742111,80.706639L252.598768,82.806834L253.715513,85.130957L259.888769,90.114902L264.653524,93.138654L280.008458,100.585358L291.357601,103.216667L308.624347,109.990326L314.887937,113.796656L312.453867,116.035555L309.721959,117.490792L306.489780,118.246381L302.572388,118.498242L299.225037,116.987060L291.410125,110.382165L287.896824,108.870768L275.461518,110.606073L269.769426,113.460813L267.702008,118.386304L270.105813,123.031546L275.107177,126.221433L280.696024,127.984189L284.900397,128.515803L303.206782,125.549893L306.656690,126.445278L315.767233,129.998700L318.649927,130.194552L319.469295,128.795598L320.915462,120.848889L327.868565,111.445717L330.381952,109.710438L328.422782,105.959816L325.036165,102.292923L323.319940,100.865290L317.940944,93.726588L310.651860,92.214747L296.984132,94.986424L290.298118,95.378367L282.607101,94.734459Z M198.518882,98.905736L198.495863,95.378367L196.058028,91.234829L191.318951,88.014979L188.772679,86.810988L183.685977,83.170859L174.443257,78.242313L171.719043,81.126684L177.121952,88.434969L183.879214,92.018765L189.557417,93.054663L193.193745,94.062547L194.612239,95.574338L195.561102,97.506013L197.106274,99.437622L198.518882,98.905736Z M685.142424,103.468594L658.885204,92.578712L644.727238,88.658963L638.532529,87.986979L633.746973,86.082981L622.255273,77.850251L615.864338,76.001922L622.782639,86.474985L624.628579,87.986979L626.955298,88.938954L630.636471,91.290825L634.101978,93.978557L639.016148,99.941509L649.921134,109.094682L653.132143,113.796656L652.286271,118.414288L647.886196,121.268637L642.007628,122.779705L623.812084,123.199440L623.476904,124.654493L623.735632,127.984189L623.509372,131.313690L621.652259,132.768537L613.505222,134.950738L610.109887,134.894785L607.537718,133.999532L601.091530,130.810080L599.223018,130.194552L596.005458,132.432806L594.015226,136.965003L593.358030,142.503866L594.184954,147.706551L600.639581,150.727248L628.441434,159.676524L637.523403,165.408920L626.088201,162.137330L623.439737,166.219797L627.939407,174.048374L637.932256,182.043604L635.436384,191.323384L624.284442,184.056213L603.242725,163.088068L604.661969,174.943000L599.436578,182.015650L596.641832,187.801716L605.468102,195.934767L620.595194,204.318153L641.728422,210.101978L648.338045,212.784135L650.949815,212.504750L653.214640,212.840012L655.174268,216.052845L655.095791,219.042017L652.748381,219.824205L649.782246,220.159425L647.997324,221.919298L648.838905,229.042046L653.299497,233.008060L657.831049,235.856718L660.011308,244.904470L664.750735,251.075121L670.094431,257.021779L673.105201,261.962905L672.394365,266.736136L668.630830,268.829535L663.792053,269.834340L659.790262,271.341515L659.823547,268.997004L659.560614,266.122058L658.716133,263.219056L655.388100,258.194287L655.422145,255.346726L655.829327,252.275669L655.494693,249.064845L653.727312,245.909689L651.260866,243.396610L648.608619,241.106820L646.254691,238.537681L644.770351,235.465734L643.994490,232.309838L642.872774,229.265491L640.390867,226.612031L635.698006,225.913731L616.110246,228.958255L612.708600,231.499890L610.924126,236.135991L608.209907,238.342198L602.058644,233.650417L581.050565,247.892152L583.288840,251.493920L590.731775,259.618016L581.707666,261.544182L577.114258,260.874218L571.664504,257.468451L573.645047,273.155654L571.596401,276.783765L564.692115,272.597464L546.549811,278.541922L542.696356,280.886048L546.554304,282.058077L549.221328,284.429966L550.400756,287.443521L549.718913,290.261613L546.441885,291.405552L542.036971,290.735932L538.630902,290.959140L538.396397,294.753538L543.613246,298.882456L552.255118,303.122663L557.774790,307.362562L553.592353,311.546372L546.164774,310.347044L535.549590,306.246829L525.689619,303.652667L520.402716,306.860485L522.928401,313.666056L531.296403,317.347428L547.631201,320.693930L548.535915,323.231567L544.639018,324.904674L535.473661,326.159473L531.607603,327.916147L535.409195,330.286178L538.482579,332.739757L545.112940,339.430817L537.911737,339.932616L533.891135,339.653839L530.789640,338.259937L527.048791,335.416273L524.748394,334.942315L523.894910,336.364176L524.662499,339.430817L528.463085,344.281359L534.398273,348.406793L540.927185,351.584295L546.427784,353.423823L545.718819,358.496164L541.726244,361.171509L531.265468,363.010738L536.603293,367.915069L537.417616,371.927401L534.827947,374.434970L529.956591,374.713582L527.630853,373.738434L520.135955,368.639538L517.807688,367.413508L515.034499,366.354644L512.575417,366.048127L511.162848,367.218456L511.892063,370.896480L515.185020,374.713582L519.352146,378.001107L522.681364,380.118400L534.799214,386.079842L545.940659,393.600433L546.960568,395.215843L548.367567,399.644069L549.717326,401.565649L554.155571,403.292233L562.552493,400.841583L567.807108,402.735276L563.380577,408.415994L565.035059,412.676176L570.729699,415.488286L584.001206,417.938333L590.256964,420.332600L595.112642,424.564092L596.435000,431.189114L603.740562,435.252839L618.221439,437.423757L625.465977,440.318191L637.688141,448.945001L643.819805,451.004120L643.694587,444.993520L642.087106,444.576095L634.146145,439.316288L633.073843,437.980390L629.159746,436.421805L629.438133,433.081842L631.444103,429.880870L632.638152,428.628268L631.508245,422.002962L628.012009,416.936054L622.326026,413.038139L614.559909,409.975312L607.997887,409.474107L604.451062,408.666601L602.228530,406.355404L601.909618,403.236538L602.633082,400.117507L603.749531,398.000929L604.778626,398.056630L592.533885,388.809649L587.746296,382.737051L592.562043,379.394071L599.303350,385.104881L603.235382,387.444761L603.851688,385.244162L602.797346,378.558297L602.538527,374.490692L602.933736,372.373199L608.490319,373.487678L622.791988,383.349910L626.868790,381.678461L631.235372,385.299874L634.938956,386.636956L638.438430,387.249775L642.082833,388.698230L645.854631,391.762155L647.901265,394.603107L649.520220,397.443922L651.957913,400.395999L658.898660,404.990920L664.562394,405.464316L670.350415,404.628909L677.630050,405.297236L691.301416,411.089085L698.785820,413.316569L704.217469,412.314212L706.088155,406.800943L700.794214,402.289706L693.195206,398.112330L688.174951,393.600433L699.671214,386.915510L701.503791,384.018477L699.462884,380.564136L694.264180,380.787003L680.311834,385.021312L674.238682,385.467011L669.596716,383.433481L669.397128,377.053873L672.020045,374.434970L681.323233,371.063658L684.657317,367.692154L679.799032,365.295761L674.764395,364.626983L665.151471,365.128567L671.101048,355.987918L665.218791,353.646792L661.738500,353.925502L658.549071,355.207553L653.512681,355.987918L650.655600,353.758277L649.021267,348.852768L646.760625,343.974727L642.024584,341.772508L626.878010,338.956892L620.353284,342.999070L615.479546,340.629551L612.541214,336.754484L614.650140,334.747155L616.690256,333.966509L619.515080,330.788055L621.190924,330.063121L624.500008,330.564999L626.989974,331.791796L629.365876,333.408898L632.246820,334.747155L636.623644,336.029624L640.312352,336.642968L643.654537,336.280538L646.976625,334.747155L648.349205,332.795520L648.462073,330.760173L649.069493,329.003585L651.935738,327.916147L654.094394,328.334395L656.065030,329.617003L658.962634,332.182135L668.962219,338.204180L673.296152,339.152038L677.463603,337.089033L681.554771,343.054823L686.240846,343.138451L691.800403,341.967644L698.450289,344.309234L702.370018,349.298740L706.473240,355.486256L710.542911,358.356820L714.416160,353.423823L721.570961,364.877776L725.815737,368.862449L729.381883,366.382509L731.944493,363.205804L738.892010,359.109275L741.443536,355.987918L740.500396,353.507437L737.950648,350.302165L736.829060,347.626327L739.918341,346.455610L742.079042,346.790103L746.603369,348.406793L749.113071,348.797021L751.821946,348.072309L752.401839,346.511359L752.574417,344.978243L753.985555,344.309234L755.945798,344.978243L760.288251,348.072309L762.948833,348.797021L768.147014,349.493852L772.664111,351.528551L776.856566,354.510790L781.221325,358.105999L794.086267,370.729302L797.147247,372.373199L801.675771,372.206025L803.317288,370.980069L802.218654,367.524966L795.796542,355.820698L793.180668,351.918759L790.136042,348.824895L786.138782,346.455610L789.080913,342.274287L800.469758,334.747155L791.441681,330.063121L788.850802,323.064254L779.624117,318.630277L768.643091,316.399218L760.692888,316.008774L746.541366,319.355352L738.825657,317.570535L740.518705,311.546372L733.035390,305.019498L720.992813,298.938250L708.486725,294.418748L694.829357,291.349751L689.138372,288.113179L684.113908,283.927692L681.161592,279.630278L680.805300,276.365148L681.071878,271.146142L682.335036,266.317447L685.006903,264.307699L688.160187,265.675452L690.650704,268.634155L692.875304,272.150907L695.247443,275.053464L698.858385,277.537267L705.579115,280.076777L713.044898,284.206733L726.850506,287.917863L738.453023,294.753538L745.731243,296.790135L788.825436,297.292299L797.677349,294.753538L811.356894,293.944459L837.358732,297.097013L848.731854,292.605269L865.749230,282.392937L876.385904,279.741903L882.767312,276.867488L888.226809,273.044017L890.598176,269.192383L872.519692,269.304029L857.961744,275.779080L852.512948,276.113977L845.907100,273.881295L853.088818,273.658022L868.585973,264.307699L876.008056,262.995743L892.229803,263.805251L899.172049,261.962905L898.360515,259.618016L883.878623,258.752616L878.977707,257.468451L868.028044,253.113246L864.521025,252.582782L863.708532,250.237514L874.212116,249.902469L896.126327,252.554863L935.898336,248.701871L939.073595,247.473328L941.660785,245.016162L940.978297,242.363423L944.210770,241.330219L962.464635,241.023046L967.746230,240.185294L991.520960,229.461004L998.945490,228.958255L998.142005,226.612031L991.589663,225.355086L986.495917,225.913731L976.771610,228.958255L970.761246,229.153769L952.888325,224.461242L952.015754,221.919298L970.255767,219.042017L980.370598,215.745539L983.847755,211.359255L977.593971,203.507812L967.525381,198.869091L956.608704,196.521644L930.603721,194.453575L921.760786,190.736455L907.235479,193.782834L899.112140,192.329536L887.825558,188.724079L876.907084,183.497162L869.946432,177.151550L884.690505,170.190138L900.818703,175.054828L894.627592,166.723095L896.071927,163.982865L902.038999,164.989495L928.533071,175.837613L963.544459,179.499788L969.470724,177.291328L970.517799,173.377395L967.301461,170.246056L960.408468,170.301974L961.206631,166.723095L965.523545,164.150638L966.578769,160.739158L958.559969,158.949448L954.198683,157.215613L950.532069,154.866462L938.349951,143.566818L934.874677,141.748598L932.363156,139.650579L922.981543,125.549893L918.870975,122.024177L915.191551,120.093334L907.454265,118.498242L899.312470,118.442273L885.666995,122.192073L829.981121,125.549893L826.712588,126.641142L821.163324,131.677405L818.480487,132.768537L816.211621,135.873951L810.718374,156.041049L807.663487,161.046758L807.432272,164.094714L811.015320,165.408920L814.040455,165.325035L817.121632,164.570068L819.165340,162.752515L819.134681,159.452809L818.801062,156.264778L820.698384,156.684266L823.356183,158.837589L825.299051,160.739158L827.556250,164.262486L828.249170,167.114546L829.394674,169.742789L833.027424,172.454786L837.234914,172.958029L844.467114,169.910545L848.468941,171.420328L851.291973,175.725787L849.751528,178.493412L846.898100,180.645916L845.933454,183.161729L850.535555,187.186800L858.197415,189.311029L865.891666,192.748760L870.674803,200.825224L857.139302,195.236096L850.983684,194.285891L849.529441,198.477856L859.698962,207.531461L863.695861,212.672381L859.721148,214.879484L855.077564,212.784135L848.719708,207.699107L842.874032,201.831209L839.677727,197.192353L836.934656,190.540810L833.550778,185.705383L828.933116,182.183371L822.322406,179.499788L821.403859,182.882200L818.307336,184.866828L814.087795,185.062492L809.795924,183.161729L808.162789,181.204996L804.712636,176.117177L803.222424,175.054828L801.797333,175.781700L800.999579,178.968647L800.124543,179.499788L795.970717,179.471833L794.301416,177.347240L791.961362,171.420328L791.150731,167.338231L790.649825,162.808441L789.612024,158.446082L787.189980,154.866462L780.743467,154.335093L766.152244,161.885662L761.774372,159.452809L759.954719,144.238147L756.703122,139.594631L747.479739,139.398812L752.086261,130.334445L755.106243,126.501239L759.359064,125.549893L764.340665,128.683680L772.901444,140.377901L776.905346,144.294091L782.357926,145.524837L789.107548,145.105268L795.613831,143.622763L800.265510,141.748598L805.256684,137.580459L805.213676,133.719763L802.435923,128.991453L799.058139,122.024177L795.642935,117.266911L779.379494,105.567945L773.311198,101.929020L761.234008,98.961724L755.754232,96.078260L750.316945,94.062547L725.192198,96.050264L719.773989,98.765765L716.921563,102.488870L719.397061,106.743548L720.127175,108.870768L715.975594,108.674843L712.460814,107.247371L709.139686,105.483973L705.651682,104.392318L691.829925,104.392318L685.142424,103.468594Z M410.276842,78.914413L401.952567,75.441811L394.331661,73.481378L389.057733,76.001922L385.282833,76.422002L384.709993,78.578363L386.320810,81.546727L389.149258,84.458931L392.141879,85.690973L404.374106,87.986979L435.673469,90.114902L443.560018,92.718698L456.584529,104.140395L463.884162,106.743548L479.466724,106.127759L484.817758,103.328635L490.960632,102.040991L487.094835,94.258522L481.772197,87.426986L475.474164,82.554814L468.713138,80.706639L466.137458,80.986670L464.413375,81.714742L462.254326,83.478879L461.926458,84.822946L461.900607,87.034988L461.480032,89.190945L459.924204,90.114902L455.721915,89.526931L453.540418,87.986979L451.895500,85.830976L449.287828,83.478879L447.964561,81.770748L447.754322,80.118571L447.128250,78.858405L444.555978,78.354330L417.484683,80.706639L410.276842,78.914413Z M1.054510,0.000000L1.951013,2.972507L4.990299,6.309380L5.774891,7.963722L4.728916,9.477823L3.048062,11.104034L3.827374,12.898418L6.569837,13.739516L10.535744,14.412386L20.644190,17.720543L24.668102,18.589603L26.634002,18.113024L25.774353,16.402911L23.623727,14.888997L19.803954,13.347005L18.807504,12.281605L16.909984,9.982514L14.944633,7.991761L9.634915,3.645506L5.017761,0.757163L1.054510,0.000000Z "/></g></svg>