<?xml version="1.0" encoding="utf-8"?><!DOCTYPE svg  PUBLIC '-//W3C//DTD SVG 1.1//EN'  'http://www.w3.org/Graphics/SVG/1.1/DTD/svg11.dtd'><svg enable_background="new 0 0 1000 397" height="397px" pretty_print="False" style="stroke-linejoin: round; stroke:#000; fill: none;" version="1.1" viewBox="0 0 1000 397" width="1000px" xmlns="http://www.w3.org/2000/svg" xmlns:xlink="http://www.w3.org/1999/xlink"><defs><style type="text/css"><![CDATA[path { fill-rule: evenodd; }]]></style></defs><metadata><views><view h="397.309752604" padding="0" w="1000"><proj flip="auto" id="robinson" lon0="158.247330651"/><bbox h="148.53" w="374.77" x="2036.61" y="-163.92"/></view></views></metadata><g class="" fill="#000" id="country"><path d="M683.793773,395.309753L683.980013,395.129968L683.845762,394.970159L683.600392,394.879358L683.398834,394.912046L683.227571,395.028271L683.357429,395.307937L683.793773,395.309753Z M680.605593,393.128725L680.170783,393.032476L679.894538,393.194101L679.907466,393.381150L680.370018,393.413838L680.605593,393.128725Z M683.115346,393.183205L682.975603,392.901724L682.626432,392.750995L682.396871,392.830899L682.387917,393.048820L682.610126,393.277638L682.950833,393.313958L683.115346,393.183205Z M682.184164,268.350489L682.048358,267.638611L681.479016,268.121671L681.618149,268.837182L682.184164,268.350489Z M678.110993,267.738492L677.976841,267.057485L677.290929,267.518754L677.424906,268.197944L678.110993,267.738492Z M630.075255,200.215767L630.678962,199.905227L631.187063,199.507517L631.277710,199.095280L630.882974,198.989950L630.292992,199.313203L629.794344,199.850746L629.672425,200.370129L630.075255,200.215767Z M998.637826,199.258722L998.738361,198.695754L998.602491,198.365237L998.340677,198.243564L998.065196,198.154579L997.875492,197.922127L997.841110,197.622483L997.856622,196.948738L997.785584,196.674518L997.141947,196.189639L996.376084,196.407562L995.658959,196.990506L993.925366,198.808348L993.508372,199.560182L993.723650,200.330177L994.335457,200.553548L994.918177,200.638901L995.769773,200.631637L996.322405,200.744231L996.808623,200.958522L997.295796,201.096540L997.824637,200.965786L998.057550,200.638901L998.637826,199.258722Z M765.690059,178.510625L765.739754,178.445248L765.738338,178.381688L765.615882,178.327207L765.522179,178.359895L765.545617,178.418008L765.618414,178.494281L765.673973,178.597795L765.690059,178.510625Z M454.099139,137.165157L454.226548,136.947234L454.246373,136.703886L454.136350,136.395162L453.968888,136.591293L453.909685,136.821928L453.898057,137.088884L453.909085,137.401240L454.099139,137.165157Z M793.270312,136.255328L793.354879,136.113678L793.359168,135.850355L793.094407,135.901203L792.993841,136.042853L792.918535,136.496860L793.270312,136.255328Z M802.426978,125.212082L801.577725,124.814373L801.557207,125.836795L800.902452,126.045637L800.145285,126.061982L799.812952,126.492379L799.675928,128.006944L800.014725,128.698849L801.102836,128.775122L800.961640,129.236392L800.864132,129.412547L801.288648,129.864737L801.453589,130.391384L801.442812,130.961616L801.330734,131.546376L801.766306,132.018542L802.198964,132.690471L802.756836,133.093629L803.578346,132.766744L804.022744,133.269783L804.779387,133.324264L806.643103,133.020988L807.101384,132.832121L807.432103,132.414435L807.520714,131.698922L807.400232,131.166826L806.970334,130.336903L806.854048,129.857473L807.017609,129.744879L807.885477,129.828416L808.186814,129.717639L808.133971,129.270897L807.420086,126.948201L807.036698,127.187917L806.648147,127.249662L806.301433,127.082587L806.050529,126.643109L806.433943,126.519620L806.531717,126.425186L806.246274,126.032925L806.122238,126.003869L805.428841,125.517174L805.392326,125.424557L805.023387,125.375525L804.044916,125.424557L803.647652,125.342836L803.354516,125.204818L803.067252,125.175762L802.703906,125.424557L802.426978,125.212082Z M551.796687,109.274664L551.887870,108.755282L551.856497,108.225003L551.699956,107.729229L551.349053,107.358761L551.358327,108.083354L551.637379,109.745014L551.796687,109.274664Z M446.433977,107.088174L446.481347,106.924732L446.436386,106.844827L446.185103,106.862987L446.411980,107.287936L446.433977,107.088174Z M542.710307,106.597848L542.142660,106.390822L540.845142,106.754026L541.211978,107.238904L542.045033,107.099070L542.251727,107.543995L542.066422,107.854535L541.053471,108.101514L540.705623,108.304908L540.412276,108.355757L540.296122,108.421134L540.191017,108.580944L540.772227,108.682641L541.307371,108.846083L541.760802,108.873323L542.069278,108.580944L542.338058,108.580944L542.847348,109.241976L543.220051,108.875139L543.395858,108.065194L543.317159,107.389633L542.710307,106.597848Z M551.619530,103.187360L551.502949,103.132880L551.327109,103.096559L551.149966,103.917401L551.143550,104.373222L551.212218,104.923476L551.821804,104.829043L552.525786,104.449495L553.144207,103.928297L553.499739,103.401651L552.927158,103.365330L552.487387,103.234577L552.150498,103.185544L551.890375,103.401651L551.619530,103.187360Z M489.716609,53.390397L489.758080,53.254196L489.729106,53.150683L489.538003,53.090755L489.694208,53.559286L489.716609,53.390397Z M460.871489,53.281436L461.151139,52.720289L461.326517,52.139166L461.229074,51.750541L460.766985,51.732380L460.514699,52.277183L460.485597,53.019931L460.674049,53.595606L460.871489,53.281436Z M476.777118,35.586270L476.942397,35.544502L477.068757,35.464598L477.142066,35.235782L476.918453,35.172222L476.802584,35.261206L476.603349,35.671623L476.777118,35.586270Z M5.526510,10.318464L5.362334,9.677418L5.710036,8.912885L5.701788,8.333583L5.360133,8.335399L4.928100,8.624142L4.611052,8.912885L4.434023,9.196180L4.305847,9.588435L4.227097,10.029721L4.198540,10.461928L3.973711,9.292428L3.703870,8.980077L3.155441,9.354172L3.008492,9.849938L2.826407,11.340869L2.581704,11.653220L1.977434,12.247050L1.476449,13.619942L1.261639,15.150826L1.533169,16.224080L1.936409,15.626617L3.711090,11.769443L4.037958,11.348133L4.520311,11.148373L4.904238,12.083610L5.470463,12.290634L5.863737,11.994627L6.338781,11.353581L6.730557,10.645343L6.872621,10.131417L6.070402,10.558175L5.526510,10.318464Z M96.638509,0.000000L96.268627,0.038136L96.002632,0.346854L96.080311,0.642860L96.429665,0.495765L96.718847,0.163439L96.638509,0.000000Z "/></g></svg>