<?xml version="1.0" encoding="utf-8"?><!DOCTYPE svg  PUBLIC '-//W3C//DTD SVG 1.1//EN'  'http://www.w3.org/Graphics/SVG/1.1/DTD/svg11.dtd'><svg enable_background="new 0 0 1000 194" height="194px" pretty_print="False" style="stroke-linejoin: round; stroke:#000; fill: none;" version="1.1" viewBox="0 0 1000 194" width="1000px" xmlns="http://www.w3.org/2000/svg" xmlns:xlink="http://www.w3.org/1999/xlink"><defs><style type="text/css"><![CDATA[path { fill-rule: evenodd; }]]></style></defs><metadata><views><view h="194.46941233" padding="0" w="1000"><proj flip="auto" id="robinson" lon0="158.243793364"/><bbox h="72.37" w="374.09" x="2036.56" y="-160.87"/></view></views></metadata><g class="" fill="#000" id="country"><path d="M997.415612,192.469412L996.857405,190.307216L995.844414,189.893503L994.439607,190.655606L994.840070,191.419887L997.415612,192.469412Z M808.229559,123.954120L807.864679,122.127250L808.728487,120.409252L806.929530,117.826812L802.567174,116.637931L800.670726,118.105524L800.538995,119.897554L801.924118,120.870869L803.109131,124.507189L806.021021,124.964451L808.229559,123.954120Z M544.301310,100.207005L544.346903,99.464500L544.001969,98.732882L543.419371,98.234250L542.489648,98.310460L542.022350,98.732882L542.623687,98.904900L542.553092,99.714905L541.427899,99.978375L541.238441,100.237489L541.603566,100.568459L544.024075,100.794912L544.301310,100.207005Z M553.161706,96.379077L554.303513,95.405765L554.199254,95.124876L553.045290,94.815680L552.400455,94.857051L552.222532,95.248989L552.161336,96.389964L552.506282,96.614240L553.161706,96.379077Z M6.812182,0.000000L5.329686,0.433302L4.293979,1.922644L3.283920,4.402703L2.584388,6.580105L2.900933,7.771144L5.517929,4.130528L7.052196,3.832224L8.099096,2.055465L6.812182,0.000000Z "/></g></svg>