<?xml version="1.0" encoding="utf-8"?><!DOCTYPE svg  PUBLIC '-//W3C//DTD SVG 1.1//EN'  'http://www.w3.org/Graphics/SVG/1.1/DTD/svg11.dtd'><svg enable_background="new 0 0 1000 951" height="951px" pretty_print="False" style="stroke-linejoin: round; stroke:#000; fill: none;" version="1.1" viewBox="0 0 1000 951" width="1000px" xmlns="http://www.w3.org/2000/svg" xmlns:xlink="http://www.w3.org/1999/xlink"><defs><style type="text/css"><![CDATA[path { fill-rule: evenodd; }]]></style></defs><metadata><views><view h="951.793463233" padding="0" w="1000"><proj flip="auto" id="robinson" lon0="-6.78828915472"/><bbox h="15.21" w="16.0" x="-88.6" y="-1029.92"/></view></views></metadata><g class="" fill="black" id="country"><path d="M665.927986,949.793463L682.648222,948.055902L689.362459,936.472774L686.613224,920.258216L676.368290,906.400312L660.518134,902.154469L664.252014,892.698340L666.205967,889.186248L637.292565,887.874063L624.257123,891.347524L615.324142,902.154469L612.247246,893.277266L607.100221,887.256570L600.159385,883.899001L591.923914,882.702648L592.285297,875.601953L608.682528,878.843524L621.443827,877.840171L646.829621,869.119066L655.084854,868.733191L663.384950,869.813644L670.003733,868.385904L673.046210,860.282822L643.273662,850.328335L643.600431,843.846775L651.706904,840.490387L654.154775,835.398112L651.496312,829.380238L644.610081,823.825539L637.577367,822.359757L621.525431,824.751305L614.317532,823.825539L607.917236,817.499659L602.492122,808.319996L594.402065,800.336561L580.430727,797.984053L586.455500,791.890882L597.484919,790.965364L609.330533,794.358966L617.937978,801.493549L627.230719,806.815831L639.208441,805.311684L647.642539,797.752662L646.567850,785.026784L631.180339,774.422894L586.584298,770.258707L568.042485,754.412954L503.439088,759.116345L503.743826,753.256410L539.930040,733.249921L531.756604,733.982278L523.970400,733.519736L516.737640,731.515408L510.061126,727.352678L515.378080,724.654686L530.577237,714.479942L520.292776,708.044082L507.455755,709.200200L480.165636,720.338025L483.134526,722.958837L483.352406,723.883843L484.768540,727.352678L469.918390,727.352678L475.739369,741.614472L478.813224,746.201726L480.047254,763.357264L495.523487,786.684931L516.797867,809.129940L535.254867,823.825539L530.637274,847.897710L560.503087,876.026439L624.630452,915.046845L650.251357,940.179257L665.927986,949.793463Z M570.855146,471.732796L540.555242,463.232936L523.926745,461.348433L529.126323,476.463747L543.539929,499.428795L545.781064,515.934009L549.227319,528.016174L558.531839,534.750388L570.036303,537.790527L636.143394,545.256508L645.540548,552.068655L689.746432,613.626211L694.754125,616.283242L702.116441,613.241139L709.068754,606.579583L714.690747,599.918392L718.299434,596.876698L721.256315,569.658845L719.912000,564.654812L717.666429,561.729472L722.860736,555.301671L733.461436,545.256508L729.081024,536.020310L708.721594,522.859944L704.612990,509.470160L696.184413,502.775824L641.524706,492.965828L633.604007,489.734474L623.913792,478.425414L617.315015,473.617461L608.704302,471.232788L585.391612,473.617461L570.855146,471.732796Z M70.823948,284.605515L77.810975,282.915819L71.260319,280.074113L61.659488,274.467700L41.570245,267.479252L20.394208,268.132002L0.525877,275.158887L2.636297,281.917374L61.767249,285.411968L70.823948,284.605515Z M352.060365,251.046493L344.280192,247.975200L335.121618,246.439582L307.755929,234.500834L308.141658,227.476342L313.026723,227.476342L313.348942,221.603723L262.114729,229.625870L248.948831,238.838570L240.472848,240.949913L238.299414,242.984516L237.465172,247.399341L235.394591,251.814328L229.629617,253.849116L212.782898,254.540184L207.434673,253.849116L198.782314,250.662577L173.965866,234.500834L156.558933,236.305006L156.951824,254.885720L169.340916,276.387675L188.347836,286.602458L224.873546,291.671772L243.154377,297.624650L258.861663,305.421447L189.766791,305.421447L189.409593,311.797532L199.562080,312.488935L228.128575,325.280608L272.816972,331.158322L304.339435,345.143060L312.059019,344.067253L313.796518,335.999008L307.672453,327.854474L299.102418,321.362293L293.264037,318.250781L304.297629,313.641282L314.119083,319.326356L321.733409,330.927819L326.025020,344.067253L322.607865,347.294703L315.859822,357.553959L328.706118,351.098594L371.717568,338.188907L364.718014,337.958390L358.357718,336.805808L352.531511,334.500680L346.938714,331.158322L360.049256,325.165362L371.782715,326.087336L383.434371,329.621637L396.313929,331.158322L411.880572,326.548327L421.123097,316.791087L428.374874,304.576450L437.972702,292.516678L424.486118,278.768486L406.771152,276.387675L387.623097,277.117273L369.847466,273.162135L362.788542,266.519333L352.060365,251.046493Z M960.628089,142.984593L970.143901,139.532528L976.906648,134.623099L980.571022,128.716711L980.902525,119.972728L976.604974,110.309076L998.420196,96.658594L999.474123,90.600738L988.473162,85.923365L966.747295,85.539981L941.325202,100.799585L928.979406,104.480588L920.041135,111.804590L922.147999,122.273713L929.040776,134.699807L937.135296,144.212017L949.092298,145.631243L960.628089,142.984593Z M339.425567,83.929787L335.942072,79.406023L324.735319,116.521334L323.619117,136.310692L336.615877,150.234254L324.893699,153.801710L321.357831,160.361507L320.180186,170.029234L315.470251,182.959131L311.179334,186.105491L306.340450,186.374086L302.080777,188.944960L299.816876,199.075510L300.222554,206.136706L302.293784,209.667461L308.818343,215.155690L314.988492,220.682553L334.657011,232.312833L342.248219,234.500834L354.315440,230.700648L366.281795,224.405656L376.233820,223.215785L381.831948,234.500834L370.122712,238.224367L368.931123,247.168998L375.803102,256.152692L388.237001,260.299241L444.772573,266.096971L455.280788,270.551047L468.150655,278.230880L478.884091,287.370522L483.108398,296.011583L483.441488,311.413421L486.453810,322.399481L492.852642,328.968552L503.077520,331.158322L528.224478,340.378845L564.644256,381.111297L609.345916,400.252629L629.239646,419.935247L650.610237,434.545518L674.512363,429.047234L672.424789,413.245872L676.760485,401.021422L678.548037,393.103100L655.016705,384.570348L654.170527,371.119039L660.676019,355.671109L668.928645,344.067253L649.761562,331.696167L600.760796,332.426102L575.501289,325.280608L575.866500,318.250781L618.106643,318.250781L624.288030,313.756517L621.387526,303.731458L611.987630,289.559532L601.819924,277.770075L538.390003,279.613301L546.587635,277.693275L556.827089,273.315730L566.743541,267.210475L573.992423,260.299241L579.106115,250.278662L578.825226,242.101572L572.785300,236.573715L536.606982,229.433945L496.430399,207.326405L472.395526,202.299048L473.665454,180.656970L441.067200,138.036665L433.096124,115.140804L423.381284,102.333322L399.457269,93.131197L350.368935,85.846688L346.208981,84.543192L342.724885,84.849896L339.425567,83.929787Z M558.615713,72.965707L549.673781,72.045691L543.106297,68.442362L536.999174,63.919190L529.735860,60.162789L521.020408,58.322963L487.735769,62.769259L460.773862,75.265780L444.861998,79.406023L437.254613,77.719239L429.236412,73.847397L421.712111,72.812371L415.274093,79.406023L416.013302,85.846688L422.240841,91.329198L430.215414,96.581910L436.052215,102.256635L458.596774,150.004100L501.495555,197.233528L509.877010,202.299048L515.243869,204.294614L529.902116,214.234571L534.186138,218.379663L541.548271,222.755194L571.005554,221.603723L625.656213,266.020177L654.256893,280.688529L668.253733,260.299241L661.829603,235.690817L644.100954,219.876537L623.197060,208.132337L606.886274,195.852059L627.308296,192.321714L648.559832,204.678381L666.933210,223.945059L678.660586,240.949913L683.181565,263.716411L682.189471,287.255312L688.318474,306.881003L714.251571,318.250781L711.449545,311.912765L711.358544,307.303509L714.293657,303.424190L720.589777,299.468182L720.940626,292.516678L717.445289,291.172512L714.434144,288.407416L711.374621,286.602458L720.358163,277.808475L733.957672,273.200534L748.919077,271.933381L761.929731,273.162135L762.283541,266.096971L738.884040,250.201879L724.527145,243.061294L708.740372,240.949913L709.067254,234.500834L745.865514,244.827206L783.383311,247.975200L758.195257,231.391582L671.218033,202.299048L671.547745,195.852059L685.069976,192.014733L728.266269,195.852059L746.534183,194.700848L756.270524,191.208909L754.337790,185.184596L724.408455,172.100993L685.340343,163.085271L677.986311,164.274539L663.992887,169.338656L658.044038,170.067600L650.645164,167.535499L637.381404,158.980467L629.119010,157.254189L629.481640,150.234254L644.327966,147.434068L657.848110,138.381862L664.333982,128.870119L657.681656,124.459691L601.546073,118.592158L615.442524,112.494834L621.192349,111.574509L610.450858,99.380896L592.679450,98.652386L538.284814,110.309076L534.490826,121.506713L540.239914,150.234254L529.247563,141.220192L523.947509,130.787748L522.503547,118.055274L523.044600,102.256635L531.532457,95.124931L548.239094,89.258850L561.224897,82.587974L558.615713,72.965707Z M917.495159,130.902807L879.479666,116.598030L849.664075,97.770513L826.287078,71.432350L807.922816,34.407828L813.647178,27.395172L792.276408,35.442516L787.860386,49.124261L793.041721,66.487411L800.887926,85.846688L802.086048,93.629627L802.877270,119.589235L801.062604,127.681205L798.240339,134.162851L797.917394,139.455817L796.588887,143.099663L790.792248,144.365446L788.153719,142.447598L786.374371,139.225683L783.612015,138.611995L778.266836,144.365446L774.283772,160.476594L781.856959,174.863393L805.254018,195.852059L807.531683,199.152260L808.801603,202.606055L810.618377,205.714558L817.630593,209.667461L824.364441,212.123700L829.260108,211.893426L826.822927,205.254034L820.791717,195.161331L806.884329,163.085271L818.146468,159.555898L829.103328,166.921665L847.628208,192.628696L858.215116,201.071023L872.341490,203.373579L887.162459,201.109398L899.510322,195.852059L899.820852,189.482165L894.833286,184.992745L892.567836,179.582643L891.226975,163.085271L877.171224,168.456257L863.453675,160.936944L837.743267,137.921599L843.029514,130.902807L857.745622,141.296904L880.611209,147.472426L903.295886,145.362740L917.495159,130.902807Z M778.294283,124.459691L778.257457,110.539154L775.358197,102.716760L768.128736,88.683759L739.322611,44.180254L733.672639,30.499083L722.323663,23.256752L710.012623,30.882288L706.427368,51.653832L713.253738,73.349049L731.262348,102.946823L737.979533,111.919630L751.902688,124.919902L767.357551,129.752225L778.294283,124.459691Z M730.999089,151.116519L734.498734,141.220192L728.488293,131.017866L723.986796,127.029225L676.788285,65.989094L658.485258,34.637757L649.416488,23.716569L639.718009,18.198880L632.344825,22.222170L632.981222,35.442516L644.585784,59.242872L649.352562,67.062393L667.308277,89.258850L680.888689,102.946823L685.696578,108.928619L692.214266,122.887317L697.168334,138.151730L707.025903,148.393028L719.845757,153.034507L730.999089,151.116519Z M811.345134,0.000000L801.339841,7.509092L807.665431,19.578278L816.651898,25.440900L822.215149,49.354219L832.124519,65.107464L848.388965,83.738099L869.217286,96.965329L892.086280,102.256635L905.109162,98.575702L910.125529,92.134343L913.996878,83.853111L909.467686,74.307411L904.129645,70.512346L899.647746,68.442362L890.993456,68.787357L882.746761,75.189109L874.990507,76.377498L871.173430,70.359012L871.578649,63.919190L867.844506,55.639934L857.947663,46.671394L849.589603,36.323926L844.720970,22.567030L838.177249,10.650793L828.145933,3.371370L811.345134,0.000000Z "/></g></svg>