<?xml version="1.0" encoding="utf-8"?><!DOCTYPE svg  PUBLIC '-//W3C//DTD SVG 1.1//EN'  'http://www.w3.org/Graphics/SVG/1.1/DTD/svg11.dtd'><svg enable_background="new 0 0 1000 707" height="707px" pretty_print="False" style="stroke-linejoin: round; stroke:#000; fill: none;" version="1.1" viewBox="0 0 1000 707" width="1000px" xmlns="http://www.w3.org/2000/svg" xmlns:xlink="http://www.w3.org/1999/xlink"><defs><style type="text/css"><![CDATA[path { fill-rule: evenodd; }]]></style></defs><metadata><views><view h="707.175280935" padding="0" w="1000"><proj flip="auto" id="robinson" lon0="2.19405261415"/><bbox h="1211.3" w="1715.29" x="-904.48" y="-852.98"/></view></views></metadata><g class="" fill="#000" id="country"><path d="M997.556307,705.175281L998.774071,704.885560L999.036965,704.285154L999.291960,702.926143L998.543365,701.783470L997.984224,700.658904L997.452582,700.398729L996.229590,700.257681L995.021149,700.637937L994.422925,701.597631L994.232239,702.143712L994.758359,703.695232L995.154795,704.244174L996.732537,705.070448L997.556307,705.175281Z M913.952025,623.252813L913.969204,622.700839L914.250525,621.995381L914.223963,621.764677L914.416379,621.060173L913.882188,620.677892L913.678142,620.640713L913.339152,620.092555L912.892263,620.563494L913.292409,621.391929L913.226215,621.869542L913.038700,622.460602L913.167649,623.074542L913.411842,623.332892L913.952025,623.252813Z M76.962729,448.972419L76.963081,448.327490L75.572950,447.554935L72.950737,445.093428L71.828745,443.613853L68.661778,442.459842L67.081779,442.262502L63.753423,440.127033L63.123943,440.256210L62.501637,441.163784L61.614875,443.743030L60.994186,444.258784L60.252489,444.949474L59.441700,445.933791L58.363847,447.631678L58.397310,448.165424L58.159487,448.595853L58.087345,449.358996L58.141618,450.210321L58.395227,450.769927L58.493502,451.833845L58.269765,452.790513L58.334628,453.346781L58.528026,454.229089L58.678410,455.168596L58.651910,455.548499L58.897425,455.856424L59.123757,456.158153L59.032418,456.997084L59.822515,458.490952L60.309815,459.141600L61.026890,459.776040L61.280380,460.395705L61.677595,461.143115L61.919961,461.230821L62.047243,461.532073L61.903114,462.108361L61.857251,462.908680L61.378444,463.838176L60.272521,465.542251L60.135686,465.938359L60.391396,467.349761L60.222739,468.509008L60.149936,469.065275L59.606377,470.081999L58.317881,472.543967L57.591458,472.987264L57.147232,473.697969L56.867225,473.705119L56.553158,473.771376L56.452618,473.859558L56.660511,473.986351L57.015144,474.188456L57.314119,474.653203L58.016005,475.023571L59.216559,475.543610L59.777553,475.552667L60.297931,475.711396L60.617567,475.867742L60.968877,475.580314L62.214593,474.779042L62.822366,474.332885L63.232631,473.994454L63.541290,473.671753L63.770593,473.585477L63.919931,473.779002L64.049483,474.037354L64.487320,474.189886L65.515445,474.492567L65.988289,474.578367L66.656704,474.321445L67.229876,473.884345L67.504231,473.732766L67.920228,474.167483L68.199315,474.781902L68.389107,475.049310L68.818415,474.986391L69.660349,475.080294L70.283400,475.275249L70.670459,475.257612L71.203012,474.984484L71.494859,474.446331L72.251364,473.952984L72.970816,473.499201L73.388092,472.893361L74.006839,471.886171L74.215811,471.454314L74.267525,470.726925L75.151060,468.613397L75.479863,468.225869L75.680161,467.558540L76.035126,466.783961L76.045660,466.138081L76.303863,465.513174L76.801056,464.972637L77.166968,464.635159L77.758594,463.727113L78.174104,462.871977L79.212936,460.972469L79.299390,460.434314L79.704208,460.111136L79.844758,459.702634L80.279961,459.198799L80.735565,458.798401L80.938198,458.209243L81.278945,457.596729L82.008438,457.137700L82.278816,456.927014L82.237964,456.563795L82.287343,456.170547L82.196704,455.291576L81.925427,454.725298L81.232989,451.955871L80.885580,451.319522L80.430985,451.338589L80.069927,452.406797L79.982191,453.267655L79.741293,453.629444L79.317202,454.086089L79.334521,453.754807L79.535949,453.328668L79.703268,452.503560L79.296370,451.218946L78.916815,450.522060L77.553619,449.102549L76.632879,449.999635L76.962729,448.972419Z M7.631587,355.077817L7.339680,353.913754L7.196961,353.612965L6.845367,353.206352L7.007892,352.726328L6.949118,352.532792L6.733030,352.522305L6.145183,351.839687L5.323355,351.360137L4.864861,351.393029L4.570716,351.620887L4.484999,352.052290L5.050407,353.536219L5.343347,353.840344L6.124136,354.029111L5.399758,354.734128L5.398527,354.930521L5.584416,355.345236L6.992662,355.279930L7.279223,355.743742L7.504502,355.635059L7.631587,355.077817Z M5.191524,341.454369L5.446165,341.148801L5.399704,340.771252L5.114527,340.318383L4.891135,340.416584L4.491658,340.820352L4.510716,341.408128L4.713083,341.492505L5.191524,341.454369Z M2.220376,340.312185L2.471065,339.913661L2.516256,338.162249L2.744246,337.735123L2.380354,337.527280L2.028085,337.197401L1.143551,336.911379L0.969103,337.055820L0.708040,337.441473L0.815242,339.773986L1.167285,340.614893L1.495790,340.750277L2.220376,340.312185Z M4.631458,338.130310L5.968586,337.879564L4.494760,336.834153L4.188053,336.343625L4.143947,335.807811L3.622988,335.433600L3.263759,335.716284L3.073161,336.144840L3.255945,336.863232L2.872201,337.454821L2.967604,338.153669L3.619867,338.238999L4.631458,338.130310Z M601.478053,78.699363L601.441089,78.179629L601.266319,77.380390L601.270314,77.042787L600.877572,76.661006L600.472335,76.699689L600.250996,77.393748L600.242943,78.617802L600.382513,79.062957L600.208952,79.569954L600.015431,79.745123L599.740399,79.576869L599.299134,79.418766L598.826526,79.383736L598.450040,79.647396L598.117065,80.056309L597.741803,80.210765L596.345455,80.563978L595.570382,81.113279L595.044635,82.277406L594.648054,82.667455L594.486788,82.928305L594.701674,83.051126L594.965061,83.063593L595.376998,83.625177L594.856087,83.867235L594.543520,84.242404L594.734767,84.791000L595.173576,85.194603L595.648731,85.408701L595.680898,85.905924L595.312622,86.356585L595.025219,86.701856L595.088844,86.971287L595.499130,87.050460L596.023549,87.024069L596.187970,87.543206L595.897932,88.173318L595.908569,88.577507L596.335285,88.808402L597.261282,89.154369L597.212021,89.459613L596.839797,89.848017L596.679212,90.221702L596.962844,90.502169L597.396328,90.908608L598.263129,91.285463L599.743002,92.158212L600.244215,91.442566L600.788202,89.853122L601.109039,89.362186L601.250164,88.864510L601.218613,87.013882L601.416359,86.575956L602.312548,85.085485L602.344813,84.790076L601.943192,81.086064L601.797682,80.774734L601.501935,80.491578L601.334720,80.085355L601.478053,78.699363Z M518.209103,49.404152L517.394634,48.465118L516.601830,48.010807L516.599193,48.176824L516.749877,48.798473L517.425053,49.470149L517.933164,50.236400L518.209103,49.404152Z M547.807416,3.264185L547.126921,2.690973L546.579399,2.083007L546.444375,1.745302L546.603059,1.335465L546.400228,1.021836L546.103701,0.448090L546.014448,0.000000L545.430445,0.288141L541.478189,1.002524L540.407243,1.519901L539.702541,1.997424L539.241989,2.615022L539.025038,3.371485L538.854096,7.577423L539.165418,7.972340L538.835951,8.175613L538.581155,8.418192L537.791390,9.521621L536.587721,10.377017L534.186623,11.211519L531.882223,11.659739L528.666272,13.177134L528.215781,14.140651L528.087037,14.559052L528.237658,15.025347L529.351580,15.454628L530.565480,15.360410L530.398028,15.596196L528.289011,16.041857L527.181851,16.719829L526.036464,17.037997L523.349936,16.488549L521.511078,16.439325L520.057313,16.121252L518.708715,16.171397L518.287969,15.630081L518.010874,15.154353L517.772293,14.172190L517.824915,13.394086L517.023636,13.136806L515.351648,13.512773L514.475928,13.386669L513.341176,13.359780L513.193973,13.857289L513.230394,14.201874L513.645664,15.199368L514.554828,16.881926L515.352184,17.936097L515.453317,21.716294L516.086736,22.745056L516.868971,23.174352L516.406037,23.280986L513.481210,23.384830L513.278940,23.019296L512.875621,22.749712L512.360296,23.341056L512.124068,23.846810L511.558321,23.246527L508.788398,23.215329L506.914113,24.278574L506.163113,23.665643L504.602305,21.857786L502.888208,21.379814L501.072494,21.645551L500.501837,22.096104L499.217487,22.622145L498.150804,22.772526L496.618825,22.650545L493.032655,23.485417L491.581680,24.249229L491.244797,25.104517L491.340903,25.488432L491.550436,25.935756L492.568300,25.989345L493.025049,25.848151L494.020199,25.892885L494.235479,25.996801L494.707530,26.089068L495.155167,26.503363L493.927036,26.604496L493.212325,26.545307L492.966621,26.445574L492.610243,26.633391L492.848980,27.044471L493.088460,27.209005L493.673562,27.321339L494.459994,27.779554L494.084433,28.172538L493.057323,28.478832L492.169387,28.583264L491.782600,29.025253L493.669487,29.699012L494.051064,30.572878L494.517741,31.093783L495.165790,31.220631L496.356065,30.855479L497.643244,30.953878L500.613983,31.760216L501.092162,32.162234L501.458869,32.072689L501.969051,32.140314L502.450307,32.409885L502.779454,32.323603L503.256440,32.318473L503.964741,33.018995L504.723363,33.212550L505.521403,33.084757L506.071718,32.978884L506.479956,33.205554L505.986940,33.822136L506.185150,34.045542L506.981135,33.928009L507.832419,33.919614L508.373362,34.066996L508.787320,34.455974L508.410193,35.009586L507.997377,35.309008L508.193868,35.973131L508.714844,36.174602L509.333725,36.291193L512.214704,35.986190L513.980999,36.890918L513.381362,36.801381L512.618934,36.464211L511.813363,36.340627L511.197155,36.442292L510.886089,36.814905L510.510000,37.397349L510.914362,37.747080L511.382952,37.887434L511.856690,38.593833L511.300103,39.712271L511.277772,40.241814L511.525342,40.764314L512.568177,41.961983L513.585746,43.583651L516.592245,45.154768L517.201630,45.375891L517.768603,45.398701L518.477262,45.523918L518.583442,46.083375L518.547548,46.539423L518.778414,49.201503L519.067390,50.340466L519.254297,50.654492L519.327894,50.955001L518.693680,50.693974L517.958365,50.671214L518.062634,51.208099L518.261343,51.479274L520.481900,52.883751L521.171787,53.550338L521.613351,54.342303L522.313897,57.135200L522.767321,57.503036L523.027084,57.984089L522.367698,57.543284L521.927796,57.104196L521.352202,55.009248L520.894485,54.379852L520.007795,53.654223L518.938315,52.938498L518.403817,54.740927L518.085403,56.459439L517.623404,61.143099L517.817359,60.954773L517.973812,60.578062L518.343576,60.222974L518.927513,60.924307L518.199378,61.189254L517.615013,62.152719L516.803121,67.245879L515.692909,71.548783L514.541193,72.733855L513.270503,73.023342L513.277982,73.351035L513.582046,73.802089L513.896230,73.968709L514.563319,74.200232L515.075784,74.231071L515.775653,74.339701L516.250428,74.599775L516.274024,75.004867L516.151595,75.457406L515.861078,75.873611L515.694380,76.192695L515.846537,76.375500L516.096350,76.516869L516.367496,76.556011L516.551795,76.509041L516.692353,76.257620L516.959156,75.949121L517.106301,75.911365L517.093395,76.085871L517.218017,76.301364L518.075905,76.664229L519.961852,77.339858L520.701948,77.352294L521.300506,77.431517L521.475197,77.717106L522.675231,78.760189L522.961984,78.731619L523.499346,78.756963L524.147014,78.674019L524.615927,78.478649L524.923149,78.511363L525.261519,78.713187L525.658485,78.889218L526.169352,79.232560L526.627625,79.657998L526.943498,79.797215L528.842993,79.511875L529.267004,79.761257L529.716783,79.758030L530.220761,79.693032L531.321015,79.823953L532.213639,79.792605L532.294410,79.688422L532.368015,78.746365L532.508392,78.413221L532.719818,78.324758L533.248940,78.391566L535.173828,78.949127L535.966973,79.297546L536.729424,79.570415L537.395026,79.600377L537.835976,79.782463L538.460041,80.677424L538.697936,80.433937L539.029421,80.235202L539.553322,80.308054L540.665921,80.596720L540.900004,80.866053L540.907601,81.047318L540.704027,81.341159L540.643686,81.551994L541.852774,81.988962L542.390020,82.279714L542.577525,82.596825L542.855592,82.920918L543.218533,82.968013L543.730553,82.660069L544.527923,82.330485L545.896332,82.620368L547.420039,83.040967L548.077491,83.091298L548.099497,82.886751L548.215425,82.594516L548.463379,82.448186L548.835951,82.405259L549.353390,82.252021L549.944454,81.998653L550.559589,81.892977L551.210240,82.082182L551.993040,82.235406L552.458022,82.234021L552.347313,81.950198L551.490935,80.724926L551.082589,78.392948L551.140124,77.664132L551.986151,76.101986L552.720023,75.041695L556.781820,72.511564L557.371650,71.995656L557.747114,71.555227L558.846791,71.272652L559.023890,71.378502L559.323434,71.555687L559.722012,72.115313L560.205510,72.341742L561.394995,72.560809L561.658812,72.647331L563.378955,73.213882L564.032557,73.344132L564.631780,73.291203L564.612452,73.079031L564.773139,73.043132L565.053667,73.149448L565.285209,72.982841L565.579681,72.838327L566.079379,72.838327L566.728940,72.672644L566.746036,73.033007L566.851091,73.407186L567.223960,73.573338L567.840421,73.540200L568.784141,73.611540L569.486103,74.708871L571.568705,75.186707L572.666607,75.940372L574.393612,75.911365L575.068443,76.181184L576.530506,75.555468L577.995731,75.267270L578.581996,74.986453L579.242898,74.396318L579.456595,73.709115L579.672688,73.341370L580.808580,72.731093L583.207104,70.649966L583.818733,70.301566L584.711868,69.965584L584.722928,69.763070L584.835191,69.648924L584.984607,69.596453L585.162636,69.685285L585.180044,69.789305L585.598620,69.631893L585.559119,69.105787L585.478744,68.710377L585.779023,68.274891L586.281334,67.762484L586.738227,67.119250L586.920523,66.652304L586.814933,66.342356L586.581678,65.881759L586.286932,65.848593L584.525952,66.235042L584.115785,66.135095L582.781101,65.533966L581.341908,64.794946L580.803592,64.269129L580.588849,63.737673L580.725126,63.396521L580.595907,63.065002L580.304656,62.617212L580.537422,62.108433L580.955660,61.474468L581.161184,61.044323L581.525625,60.932616L581.692819,60.670401L581.363081,59.624371L581.204012,59.456668L580.944287,59.326835L580.553273,59.312049L579.863266,59.095789L579.364992,58.733902L579.244754,58.245238L578.972004,57.775498L578.520344,57.343883L578.450746,56.871875L578.941102,56.622390L579.620945,56.612669L580.102082,56.704322L581.149309,55.946399L581.541976,55.879709L581.890528,55.715290L582.151424,54.680213L582.368761,54.369654L582.416596,54.187463L582.198245,53.971405L581.306711,53.241893L580.885704,52.480989L580.233405,51.627383L579.642015,51.250357L579.514240,50.956858L579.488272,50.583887L579.595234,50.255913L580.626170,49.743875L581.224413,49.197319L581.081467,48.882618L580.676759,48.327486L580.231992,47.997785L579.918386,47.639203L579.503309,47.246146L579.234470,46.917699L579.542339,45.868821L579.279791,45.499248L579.133355,44.972736L579.187968,44.615626L579.047363,44.528553L577.662360,44.322737L576.520512,44.387929L575.711511,44.739013L575.061228,45.321426L574.985000,45.447113L575.029410,45.551847L575.378490,46.087564L574.831779,46.651562L573.979556,47.090302L573.367046,47.134962L573.094723,47.050292L573.065633,46.445428L573.566174,46.222524L574.012730,45.828794L574.149432,45.273478L574.193723,44.882880L573.696781,44.410281L573.747165,44.120634L574.029743,43.572007L574.188423,43.086183L574.413261,42.665985L575.343864,41.978758L576.277957,41.288158L576.398500,40.554575L576.442840,39.660992L576.570906,39.446549L577.840352,38.911808L578.154586,38.700137L578.306158,38.397074L579.283842,37.395018L580.250734,36.401720L580.440696,36.068737L580.601951,35.873328L580.596222,35.711496L580.466079,35.586506L579.986343,35.503490L579.814658,35.188213L580.312360,34.624810L580.947511,34.279675L581.576118,34.275011L581.834589,34.433587L581.827994,34.620146L582.106663,34.820696L582.585688,34.886924L583.172707,34.816965L583.749908,34.606154L584.091448,34.104775L584.286570,33.725591L585.188078,33.292304L584.801222,33.160313L584.502486,32.517155L584.535565,31.564340L584.901935,30.303342L584.981349,29.377745L584.773850,28.788403L584.984939,27.905418L585.612856,26.728934L586.013036,25.488432L586.184436,24.183088L586.475697,23.332209L587.091186,22.736210L588.539474,21.070362L588.657076,20.945196L588.579951,20.114778L588.166401,19.997565L587.557873,19.758968L586.023103,19.464126L584.596958,19.274869L583.943876,19.040527L583.354777,18.413874L583.005241,18.405507L582.330312,18.629557L581.481754,18.781106L580.855331,18.648616L580.467329,18.674184L580.253301,18.789938L580.139890,18.687665L579.963856,18.150340L579.633735,18.009988L579.124284,17.887303L578.812433,17.940280L578.605390,18.207042L578.277773,18.395281L577.968263,18.333927L576.961988,17.094204L576.704762,16.820151L576.632678,16.567962L576.375587,16.106858L575.787088,15.648649L575.211969,15.503363L574.929090,15.554885L574.417772,15.319104L574.148290,15.159457L573.687685,15.115836L573.232889,15.246240L572.898448,15.536783L572.430284,15.624047L572.037138,15.536783L571.800507,15.319104L571.589934,15.203080L571.000013,15.057365L570.737063,14.741844L570.141404,14.733029L569.390831,14.837423L568.887584,15.000753L568.624346,15.002145L568.066477,14.587815L567.439125,13.967196L567.043632,13.671344L566.862606,13.415412L566.381198,13.307858L565.690687,13.001924L565.208383,12.669169L564.797092,12.462042L564.221857,12.358721L563.750028,12.369377L563.596758,11.809792L563.522620,11.170778L563.125897,10.743529L563.608630,9.073123L563.290981,8.909479L562.952125,9.043074L562.467503,9.440696L562.243953,9.916135L562.113090,10.337130L561.291429,10.737049L559.975320,10.881920L558.529384,10.737049L558.326599,10.629678L558.231689,10.507507L558.226853,10.360265L558.322505,10.134019L558.567511,9.859704L558.620489,9.468442L558.354816,9.129987L558.183828,8.998233L558.242687,8.670516L558.423637,8.260165L558.455387,8.026390L557.464551,7.318360L556.756324,7.180303L556.071842,7.155371L555.551005,7.075961L555.249124,7.108741L555.035438,7.315127L554.818277,7.462894L554.649799,7.285576L554.321561,6.032947L554.083860,5.843805L553.196183,5.634855L551.996004,5.560139L551.672064,5.331861L551.486195,4.768924L551.363087,4.091467L550.957029,3.442869L550.751967,3.280302L550.389170,2.992515L549.766149,3.110847L549.021552,3.486622L548.579723,3.590713L548.411672,3.630786L547.807416,3.264185Z "/></g></svg>