<?xml version="1.0" encoding="utf-8"?><!DOCTYPE svg  PUBLIC '-//W3C//DTD SVG 1.1//EN'  'http://www.w3.org/Graphics/SVG/1.1/DTD/svg11.dtd'><svg enable_background="new 0 0 1000 1219" height="1219px" pretty_print="False" style="stroke-linejoin: round; stroke:#000; fill: none;" version="1.1" viewBox="0 0 1000 1219" width="1000px" xmlns="http://www.w3.org/2000/svg" xmlns:xlink="http://www.w3.org/1999/xlink"><defs><style type="text/css"><![CDATA[path { fill-rule: evenodd; }]]></style></defs><metadata><views><view h="1219.50474456" padding="0" w="1000"><proj flip="auto" id="robinson" lon0="11.6204662101"/><bbox h="104.28" w="85.58" x="128.91" y="-38.6"/></view></views></metadata><g class="" fill="#000" id="country"><path d="M418.452929,1217.504745L428.919847,1187.295274L436.653974,1173.356857L445.991303,1163.624822L483.415809,1139.973496L489.032211,1140.891251L514.644358,1171.636064L522.869629,1174.083413L532.036712,1173.242137L542.865705,1174.504051L548.206886,1168.481279L549.083815,1160.546516L541.289818,1151.674879L540.197988,1142.153165L545.741809,1131.809296L548.910018,1120.375595L556.997699,1106.819585L557.866593,1100.471779L549.403758,1093.550376L532.042500,1082.957954L520.164362,1072.747931L515.643214,1062.958546L518.963547,1050.454138L528.588064,1040.301478L528.033880,1034.794950L519.625978,1025.674765L513.498584,1015.904504L507.189269,1009.786142L489.695983,1006.134245L493.082409,992.998887L499.611363,973.687810L501.194972,958.889027L496.434687,920.056568L496.894466,912.982217L501.699914,909.387682L512.138288,913.689652L522.639165,919.597691L551.299044,911.127590L561.314962,909.827439L569.582302,917.265067L581.011333,923.096627L647.093196,906.921219L648.426983,890.401655L652.253594,875.449921L652.775796,864.245682L650.044054,857.056614L646.800504,851.626574L644.872709,840.422337L644.854357,828.395946L651.184496,822.736468L672.278226,808.415696L678.845484,808.951052L693.566518,816.751953L707.346188,828.969542L719.532378,854.704872L727.959557,876.826551L741.433318,903.670841L770.201133,914.588286L804.535466,921.567038L823.147303,919.731530L849.782949,896.864169L864.885567,879.025336L869.796126,869.427165L878.526417,874.379209L888.342649,897.858402L894.693503,906.959459L896.250228,915.639878L891.737602,926.480844L896.051474,933.440477L914.520344,938.373403L930.711431,933.727275L938.073828,924.148220L950.224338,911.662946L950.362838,901.166139L943.903298,894.302107L943.935466,884.914254L950.680370,877.533986L957.298157,857.343412L959.388184,842.602000L965.800013,833.214150L977.960673,826.694279L982.368847,820.786243L989.258167,785.835149L985.780207,773.196926L985.807899,762.700128L993.508698,749.335353L994.997282,727.424007L991.850911,691.516936L989.670146,666.871457L987.401953,641.059670L993.381504,607.141073L999.589661,571.807611L998.484190,563.012486L989.948515,552.286257L979.418072,542.477781L952.266213,534.409210L942.175132,521.598919L934.312392,507.985596L928.538302,503.626273L898.899485,498.234480L892.332392,490.548306L895.006575,468.522255L897.624913,435.999415L896.572520,413.380650L901.851473,395.140327L907.805963,381.469644L920.885565,366.995928L927.830141,349.912353L931.626424,345.686869L956.434151,342.838014L965.446000,335.725434L972.548792,328.526815L975.527237,318.813937L984.002596,302.781953L991.570944,291.864524L992.371045,284.493826L990.751178,274.245592L983.202930,254.083719L974.188551,237.286938L968.739403,231.292867L957.715923,191.800828L947.512115,182.470343L927.674905,177.441823L890.512499,172.967779L868.017385,180.109042L833.831182,193.359095L807.741133,202.527061L790.762103,207.765899L780.761689,206.312791L776.224072,200.280480L782.817060,195.156361L786.085661,183.158657L781.793160,165.950795L775.154814,150.196039L771.319601,128.064812L772.887730,100.560904L779.267959,74.749099L792.863943,41.212866L793.666076,27.532605L789.541349,15.267212L780.943972,8.957657L765.476260,8.374501L719.947585,10.850524L685.058886,8.890737L673.927295,7.275109L661.541477,4.082091L632.407856,1.214111L596.468783,3.489376L588.295114,2.877540L559.526180,3.336417L493.686035,0.000000L457.285718,0.487557L458.150796,7.982544L455.852528,13.383906L453.945937,26.385413L454.297691,71.718601L454.572208,110.034791L454.861572,151.505749L455.160773,194.726164L455.405137,231.311987L455.556867,255.011031L420.158379,254.877193L373.157446,254.705114L326.173412,254.533035L279.172488,254.351397L255.562250,254.255798L229.553860,254.169758L221.127955,255.402988L215.409668,261.387499L208.503796,262.764127L200.475902,257.649570L190.711512,255.202230L188.070731,249.925154L183.195273,240.326993L173.516990,239.294521L168.654419,240.326993L161.686137,245.814387L153.853300,248.691924L151.194036,256.655338L159.967500,298.135832L159.889862,327.073707L158.630786,337.866856L155.710093,339.587641L148.021970,334.406165L144.955867,321.777512L137.405500,320.572962L108.819802,331.146233L107.932257,342.646815L120.741980,355.447546L133.083296,379.882698L146.295907,392.798147L186.110611,413.055613L215.125604,407.692499L224.990395,412.568057L192.345437,426.152700L189.594090,442.079523L179.493441,434.106552L151.117064,421.583060L132.757641,419.460758L122.892409,411.497346L118.566346,402.597063L116.772185,390.589806L113.155138,383.467667L103.988053,394.251254L108.049494,428.064684L110.432085,462.145790L103.088384,519.514857L75.367076,562.993366L65.851821,572.973922L58.300669,575.402141L50.920373,575.000624L42.468194,585.593015L20.847280,589.436102L9.763981,571.138417L0.410339,566.454057L24.764837,629.606885L30.348755,635.973792L36.007288,651.422624L41.621095,660.523669L62.794107,704.939067L86.835710,721.401255L96.582151,719.795188L102.901889,717.194888L106.574430,711.707493L111.558505,710.158785L100.012053,740.884380L102.703642,747.404248L108.726195,751.189978L120.227656,750.329585L129.083270,746.161458L138.187290,755.224267L142.023120,763.675240L121.780548,770.768705L113.184212,771.361421L106.650953,770.271589L57.893849,707.004010L60.728582,720.751180L78.787667,749.851589L96.165814,788.722246L94.340134,799.104327L97.379820,808.071539L110.616811,808.912812L134.975062,821.684876L137.053003,829.581377L134.880741,834.934937L110.643168,821.493678L103.108564,823.329184L115.457471,837.420519L120.923897,847.726123L143.508705,874.398329L150.536955,887.342476L153.445895,899.713029L159.219173,914.186768L168.144014,923.689343L184.100030,923.192226L200.023217,928.966427L216.983624,938.220444L234.746791,949.979166L229.972261,955.007692L224.343574,957.512396L183.208827,935.084786L176.019760,933.861114L182.460278,943.841687L224.982213,988.830753L283.858654,1040.664756L324.788239,1092.537022L334.258945,1116.035377L370.056907,1148.003856L387.043866,1167.735602L401.565268,1199.914418L418.452929,1217.504745Z "/></g></svg>