<?xml version="1.0" encoding="utf-8"?><!DOCTYPE svg  PUBLIC '-//W3C//DTD SVG 1.1//EN'  'http://www.w3.org/Graphics/SVG/1.1/DTD/svg11.dtd'><svg enable_background="new 0 0 1000 1495" height="1495px" pretty_print="False" style="stroke-linejoin: round; stroke:#000; fill: none;" version="1.1" viewBox="0 0 1000 1495" width="1000px" xmlns="http://www.w3.org/2000/svg" xmlns:xlink="http://www.w3.org/1999/xlink"><defs><style type="text/css"><![CDATA[path { fill-rule: evenodd; }]]></style></defs><metadata><views><view h="1495.68582237" padding="0" w="1000"><proj flip="auto" id="robinson" lon0="-61.6786652734"/><bbox h="8.84" w="5.91" x="-909.37" y="-210.1"/></view></views></metadata><g class="" fill="black" id="country"><path d="M237.272744,1493.685822L242.510763,1466.924374L253.819042,1445.699775L270.602261,1429.781323L292.512957,1418.130864L291.334219,1439.240114L401.429671,1376.719814L416.616961,1351.342567L418.724533,1328.156989L423.002108,1306.009569L431.228392,1289.283652L444.561325,1282.593285L451.329387,1273.826597L439.962513,1227.455427L440.397483,1205.307998L459.439480,1161.935943L471.476596,1142.326237L478.567198,1122.485825L495.248516,983.141492L493.129324,941.961073L475.009514,893.859564L491.541359,877.248969L493.659397,868.482265L441.965933,830.647016L385.670372,822.111012L332.952378,832.492639L177.022339,1029.282010L172.620154,1078.421649L114.713950,1189.620233L97.797976,1252.717333L102.199112,1291.475324L112.615530,1324.119701L117.940228,1357.340827L106.813425,1398.751877L90.058718,1415.939193L0.334518,1477.998077L36.953345,1489.417832L83.072195,1492.070906L125.842891,1482.150717L152.967756,1456.888830L171.854890,1470.384906L192.415572,1481.112557L214.358719,1488.841079L237.272744,1493.685822Z M986.385828,0.000000L945.853767,37.374004L914.915058,104.624122L879.889813,153.533281L827.218705,135.307698L810.948324,162.761422L806.647924,174.065894L832.835675,172.681674L840.445699,174.065894L830.939883,191.368659L811.650836,236.009781L802.045599,253.312540L845.388367,235.317672L888.263124,211.439863L931.021269,198.289763L973.993957,212.824083L979.029340,153.994687L992.410110,97.933717L999.665482,46.371448L986.385828,0.000000Z "/></g></svg>