<?xml version="1.0" encoding="utf-8"?><!DOCTYPE svg  PUBLIC '-//W3C//DTD SVG 1.1//EN'  'http://www.w3.org/Graphics/SVG/1.1/DTD/svg11.dtd'><svg enable_background="new 0 0 1000 424" height="424px" pretty_print="False" style="stroke-linejoin: round; stroke:#000; fill: none;" version="1.1" viewBox="0 0 1000 424" width="1000px" xmlns="http://www.w3.org/2000/svg" xmlns:xlink="http://www.w3.org/1999/xlink"><defs><style type="text/css"><![CDATA[path { fill-rule: evenodd; }]]></style></defs><metadata><views><view h="424.022908862" padding="0" w="1000"><proj flip="auto" id="robinson" lon0="43.638454165"/><bbox h="41.18" w="97.36" x="535.87" y="-730.27"/></view></views></metadata><g class="" fill="black" id="country"><path d="M976.062987,422.022909L979.079364,421.901149L979.941951,420.144432L980.176785,417.501052L981.191178,414.805983L983.784899,413.119637L986.559076,413.363015L989.339968,414.023634L991.989204,413.623782L993.395758,411.162167L993.965644,410.164640L994.016227,404.760219L993.558698,398.992966L993.974076,394.469252L994.577416,393.427507L996.090986,391.856337L996.688654,390.788725L996.754703,389.686469L996.295486,386.744599L996.300129,385.451736L997.248987,384.141624L998.430405,384.297791L998.818031,384.089569L997.433716,381.643163L991.802518,375.554767L988.547608,372.814856L987.314934,371.375717L987.128259,371.275578L986.038255,370.690869L984.045342,371.462408L980.874879,366.781702L973.286607,363.081397L958.687609,357.891920L951.045006,352.400914L948.087004,351.768780L946.323448,351.084715L938.116923,346.530728L935.148611,343.743500L933.156552,340.099981L930.687323,333.565554L930.230274,332.356674L926.032165,327.011786L925.521748,326.077884L923.615245,326.147060L922.961296,327.409573L922.595223,328.953240L921.565962,329.861338L917.242524,327.037728L913.901594,319.511596L912.063669,311.029298L912.174893,305.301592L914.314766,302.731997L917.273773,302.429714L924.044013,303.768433L926.877848,303.517957L928.885792,302.541990L930.562051,300.909725L935.137132,294.347427L937.191591,290.005356L940.397735,280.193625L936.156461,276.087296L932.403403,274.383737L924.041155,273.754100L919.758921,272.149899L912.331986,265.626451L908.155417,262.996898L906.732309,262.660681L905.545406,262.561541L904.393343,262.660681L903.281420,262.949482L903.243066,262.971035L903.203798,262.988277L895.397038,264.497000L891.127985,264.402163L887.483590,262.996898L885.784447,259.354807L884.248917,258.518714L882.452778,258.953996L879.982361,259.109148L878.709113,258.566121L876.007144,256.743191L875.025889,256.329496L873.914799,256.588055L872.356794,257.880890L871.443482,258.229967L868.810265,258.087750L866.754624,257.156894L864.889929,255.299598L859.133929,246.588149L856.867841,244.895330L846.744124,242.651337L829.544887,233.109022L823.495685,230.784257L818.815076,228.373603L816.610833,224.491181L824.634973,187.359109L824.243289,183.515052L824.229399,183.378853L817.299348,177.370673L805.722567,173.580641L793.767030,171.754523L785.788352,171.591251L775.282608,174.577526L769.561583,175.312317L764.611411,173.623609L762.805491,171.694370L760.651200,168.680920L759.098193,166.508705L757.111940,164.266250L740.413147,149.564634L735.788633,146.503008L731.004035,145.004481L728.435946,145.292160L724.913947,146.810261L723.773800,147.301671L721.255815,147.726773L718.632809,147.250144L715.966627,146.163795L698.894859,136.563888L692.658072,135.494974L690.008153,139.719262L689.710157,142.398285L687.335175,150.079937L687.025560,159.236242L686.050570,160.400259L684.005948,158.806725L678.567278,149.113749L676.458233,146.872280L671.589192,143.020838L669.108099,141.449446L663.463837,138.856341L662.928600,138.711772L657.408374,137.220702L651.386595,136.559595L644.568475,137.027521L640.795057,138.023489L631.134157,143.136763L625.858237,144.759741L613.679816,144.987306L611.162728,148.375167L609.583214,153.060231L607.478894,155.415736L605.914958,157.166012L604.406918,157.597604L599.851698,158.901218L586.758730,159.459594L581.262804,161.950904L579.777034,163.772240L577.222242,167.990863L575.510383,169.584785L573.004086,169.949979L570.158904,168.802852L568.168472,167.609970L564.581949,165.460491L558.746935,164.158856L551.914796,163.694917L545.394939,162.212930L540.571334,157.870393L539.993657,152.961457L543.180020,149.594693L547.368247,146.533065L549.719698,142.514208L547.182953,137.662877L544.459139,136.541174L540.459461,134.893989L527.055196,132.116683L524.207878,130.665853L517.276077,124.648378L514.600173,122.850145L504.271713,118.726035L498.822822,117.563104L485.295172,114.337876L457.524897,107.715657L454.631623,106.435370L451.659174,105.119991L434.361257,92.739522L426.709091,88.548876L425.103820,86.811782L424.941644,84.131163L425.434330,81.386307L424.969688,79.177626L412.453804,75.313651L407.989650,73.006500L403.460983,69.751719L399.174259,67.543337L393.637375,66.312668L388.140092,66.184027L382.085231,67.929264L377.797386,68.019314L375.614926,69.031309L372.542302,72.105956L370.739078,72.817814L367.978724,72.311794L358.753142,68.156533L354.235469,65.420764L349.963214,62.209120L341.207838,57.548336L332.710684,56.518818L331.582297,56.382098L308.678443,58.131459L305.360311,59.083328L304.678829,59.455469L294.883321,64.803298L290.648383,65.583708L286.200344,65.369309L281.626948,64.241578L276.929182,62.346331L272.756676,61.372994L268.685629,61.192906L259.300291,62.153378L254.904149,61.767473L245.502625,59.499238L240.403823,59.006150L230.566906,60.198141L225.462731,59.820818L221.394322,57.998541L214.186741,52.437557L210.189515,50.538219L202.625226,48.553161L200.372131,47.211227L198.758983,45.513462L196.062886,41.637830L194.489326,39.995859L190.034392,38.572544L180.541772,40.257373L175.397721,38.431071L170.560763,35.348692L165.729041,33.372394L160.876391,32.515004L146.894655,34.178344L142.497446,33.252359L121.103947,19.941707L116.231754,17.661160L101.321021,13.365873L93.529174,8.745373L92.147701,7.926067L87.796084,6.117090L82.905278,6.635778L74.820388,10.716697L70.732462,11.724069L65.157021,11.132506L29.157228,0.012860L19.712168,0.000000L10.860806,2.190494L7.954281,4.110926L6.587724,6.742944L1.361724,28.125216L1.181969,31.000225L1.187226,31.001244L4.571844,31.635844L9.126836,33.188594L15.638479,34.099996L17.779667,34.950642L22.943418,38.859609L30.849961,40.858008L35.422474,42.606627L38.101150,45.030420L41.980166,49.513530L45.063575,54.395159L45.464982,59.641610L47.175201,61.444501L50.832276,64.240057L52.519239,66.387420L55.399715,70.851118L57.040975,72.174737L59.839119,68.089138L65.041684,68.609113L76.979061,73.309283L81.473931,73.984615L82.925155,74.430337L84.293766,75.261007L87.073118,77.489674L87.775838,77.942168L89.275165,78.462202L92.369391,80.812526L94.105292,81.339333L95.757291,81.197500L99.999316,80.204677L106.355379,79.900754L120.461470,81.582475L131.171525,85.087866L132.242852,85.763297L136.422579,90.694135L136.632139,91.545246L139.279930,92.842197L144.459735,98.422074L148.136472,99.475954L153.137955,97.307412L156.526182,97.219591L159.812628,101.975613L167.239830,110.806317L172.382046,121.030584L180.288373,129.492640L181.911856,130.290257L183.598422,129.965801L186.074821,128.451702L187.597087,128.032629L190.423759,128.384109L194.150657,129.560234L197.801448,131.209562L200.375044,133.027944L202.834726,134.143343L213.667940,135.867195L219.860429,138.753948L225.262356,143.108094L229.844491,148.666351L233.528293,155.260137L248.115015,194.194450L248.116129,194.197429L249.155493,196.960063L249.865009,198.131548L254.215115,201.449866L255.432413,202.689248L256.164229,203.684854L267.888723,226.532167L270.449398,234.057189L271.809291,239.732884L273.093587,242.906936L274.781256,244.310970L276.455484,245.409834L281.920605,252.010822L289.208995,260.839811L290.281553,263.147697L291.242806,266.935839L294.906008,277.441371L295.043395,278.161387L295.043549,278.162195L297.620529,291.689882L297.614317,293.198863L297.113726,294.599185L295.387803,297.386514L294.823296,298.868709L294.871826,300.194617L295.146825,301.704215L295.158436,303.669581L290.482667,313.301966L289.097120,318.337706L281.664839,323.279447L278.518824,328.283753L272.202729,343.100291L288.038169,348.746971L289.859372,349.049994L293.950330,348.755629L297.165708,347.309844L298.228882,347.318501L298.538598,347.976449L298.615848,349.231811L298.843212,350.599824L299.629119,351.656210L301.362186,352.253703L305.508498,352.712660L307.448818,353.266889L313.847390,357.935232L315.662380,358.584915L316.865553,357.883258L321.622593,353.561330L324.907157,347.907190L326.564184,346.574011L331.762588,344.548463L342.351745,347.985106L346.991415,346.574011L348.837736,345.717020L350.741129,345.465990L352.747645,345.760302L354.881146,346.574011L359.027304,345.440022L361.147415,345.500615L363.330330,346.574011L366.013858,348.547844L369.389688,348.798917L376.151028,348.443952L402.137558,357.069025L403.951005,356.983019L405.607608,356.904451L408.162121,355.172184L411.235085,349.465578L413.695505,346.574011L414.570630,343.873330L414.570304,337.054179L415.450896,334.242453L417.859118,332.296125L418.043807,332.237247L418.601491,332.059462L421.169259,331.240867L428.062947,330.704612L447.768179,332.218276L450.628495,333.368743L449.855164,334.934530L449.721615,336.621578L449.754998,338.282822L449.468074,339.771148L448.584350,340.991321L446.249527,343.094363L445.407194,344.756201L449.334023,346.677892L452.479463,349.309733L455.240282,350.088971L457.968414,346.522071L459.626522,345.448678L460.826392,346.539384L462.002809,348.625763L463.513851,350.513238L464.685518,351.084715L469.016225,352.340298L470.001135,353.059051L470.707435,353.821135L471.508522,354.479325L472.827546,354.921019L474.118819,356.038296L479.631293,363.133386L482.027246,365.143763L493.467766,371.488416L501.202821,376.846844L505.845826,378.702757L510.003078,379.188452L510.356567,380.055799L508.949287,382.484616L507.226951,384.098245L500.381698,387.612351L504.368945,388.705785L507.368673,388.393368L510.163324,388.697107L513.530900,391.613297L518.294607,399.079806L520.553513,400.408524L532.715954,397.143382L536.717759,396.882895L541.307066,397.959603L545.489498,399.982974L549.860071,403.170536L552.598990,407.140709L551.856697,411.511699L553.312736,411.833273L554.690551,411.859347L556.002810,411.581228L562.975839,408.782942L568.843253,408.574394L592.088567,411.494317L595.437856,411.233587L597.958620,410.182020L603.431815,404.968715L608.956187,402.701480L621.783452,402.449586L624.696898,401.768663L624.754231,401.755263L627.803771,401.042527L632.944842,398.741132L635.665514,398.471934L641.851961,399.982974L644.688316,399.496647L647.155264,398.150640L648.950136,396.162236L649.339984,394.521341L649.154423,393.097635L649.268571,391.847657L650.711256,390.780045L652.187484,390.762686L656.237806,392.186183L663.798054,396.448759L666.545471,397.343092L669.717081,396.848163L670.846097,396.049365L671.638184,394.998833L672.590544,394.069908L674.139916,393.583764L675.892606,393.766066L684.114483,397.872769L687.353459,398.888758L690.518069,399.088491L693.718571,398.194058L695.957013,395.337426L696.737074,394.703654L698.222689,394.660246L699.205668,395.927812L700.047845,397.647003L701.061237,398.923494L704.060887,399.670333L705.779351,398.003020L706.948121,395.337426L708.313056,393.158400L711.057243,391.925777L713.941739,392.272985L720.170933,394.382437L740.626494,394.764426L744.185964,394.312986L745.216205,392.559438L744.536739,391.859263L743.354614,390.641174L737.684012,388.349977L736.063188,385.981016L738.267124,383.490946L752.069497,385.434383L757.309469,385.278205L758.792607,384.219707L761.418721,381.625814L762.940484,380.619599L774.194607,370.641060L792.068231,354.782447L796.236934,353.370809L800.822106,353.587310L803.662405,354.807144L810.986021,357.952556L813.224988,358.342364L815.977508,358.117141L820.310368,356.843818L822.431186,357.181630L824.867159,359.277938L830.176459,363.150716L851.585614,370.231429L860.971285,371.904542L864.456551,373.083625L864.841138,374.124061L863.061354,375.112535L860.084113,376.144427L857.710187,379.648140L862.001521,384.436607L868.658797,388.922745L871.637801,390.416818L879.440352,394.330349L901.458160,401.138064L908.322934,401.893695L911.628978,401.615758L914.185972,400.695125L917.399504,398.555098L920.523090,396.474807L923.486200,395.823625L933.929796,395.780214L936.593478,396.578999L939.193960,398.541404L944.176493,403.153163L953.759556,409.947383L956.970704,411.520390L965.756204,413.988863L968.410380,415.823097L973.281763,420.622725L976.062987,422.022909Z "/></g></svg>