<?xml version="1.0" encoding="utf-8"?><!DOCTYPE svg  PUBLIC '-//W3C//DTD SVG 1.1//EN'  'http://www.w3.org/Graphics/SVG/1.1/DTD/svg11.dtd'><svg enable_background="new 0 0 1000 797" height="797px" pretty_print="False" style="stroke-linejoin: round; stroke:#000; fill: none;" version="1.1" viewBox="0 0 1000 797" width="1000px" xmlns="http://www.w3.org/2000/svg" xmlns:xlink="http://www.w3.org/1999/xlink"><defs><style type="text/css"><![CDATA[path { fill-rule: evenodd; }]]></style></defs><metadata><views><view h="797.732001517" padding="0" w="1000"><proj flip="auto" id="robinson" lon0="-2.57002754317"/><bbox h="5.22" w="6.55" x="-34.5" y="-830.8"/></view></views></metadata><g class="" fill="black" id="country"><path d="M590.118819,795.732002L607.777547,780.027261L628.272276,755.305955L624.828235,724.000805L610.462516,707.893094L605.783843,710.628329L598.301008,719.745886L592.727708,729.775394L587.039600,736.259221L586.077297,748.821879L591.325601,764.120380L587.799679,776.785054L581.187485,792.793658L590.118819,795.732002Z M451.093628,638.808116L446.279976,615.511856L434.685177,620.677454L431.737089,637.693922L432.562468,659.876994L434.671875,669.803990L451.093628,638.808116Z M259.243107,747.606124L274.958998,734.334326L277.612894,727.647907L277.427452,717.821054L290.209912,678.920795L299.987698,625.437952L332.775572,580.569558L341.072024,558.997749L308.882080,536.920560L269.394561,551.098455L227.016867,577.227385L186.159864,591.507748L97.852064,660.889944L71.608456,665.549539L47.346601,665.954723L34.785210,676.590929L43.563572,711.945299L21.655185,715.491006L6.102646,727.951832L0.627564,741.122148L8.620873,747.606124L197.988792,747.606124L214.195370,751.050772L226.206210,756.825674L239.241318,758.041450L259.243107,747.606124Z M991.300311,0.000000L983.135478,1.213793L951.150549,16.386503L931.711902,18.106108L904.459103,31.559743L888.946407,58.569428L907.182720,70.506826L938.752054,63.829938L964.313120,51.589237L999.208812,20.331494L999.372436,6.574757L991.300311,0.000000Z "/></g></svg>