<?xml version="1.0" encoding="utf-8"?><!DOCTYPE svg  PUBLIC '-//W3C//DTD SVG 1.1//EN'  'http://www.w3.org/Graphics/SVG/1.1/DTD/svg11.dtd'><svg enable_background="new 0 0 1000 285" height="285px" pretty_print="False" style="stroke-linejoin: round; stroke:#000; fill: none;" version="1.1" viewBox="0 0 1000 285" width="1000px" xmlns="http://www.w3.org/2000/svg" xmlns:xlink="http://www.w3.org/1999/xlink"><defs><style type="text/css"><![CDATA[path { fill-rule: evenodd; }]]></style></defs><metadata><views><view h="285.568785173" padding="0" w="1000"><proj flip="auto" id="robinson" lon0="-14.3551665228"/><bbox h="12.54" w="44.07" x="-247.25" y="-231.61"/></view></views></metadata><g class="" fill="#000" id="country"><path d="M574.889574,0.000000L521.223944,8.719299L468.592344,32.266931L440.213880,85.637702L387.905650,84.860190L276.853748,83.157068L174.866564,81.602043L90.581456,85.230434L100.438006,134.269161L129.511828,173.996145L158.926498,177.717073L231.474646,137.953075L326.409514,133.510163L419.795735,118.385741L463.342748,124.698384L466.788434,130.326076L452.179073,134.009991L403.557470,133.454627L341.280040,146.616748L280.734255,152.892355L223.443415,162.296504L213.279490,184.233324L213.947251,200.709058L185.235153,196.506822L137.999472,205.633263L90.676373,192.933995L77.102685,172.607739L72.146329,142.858788L54.287648,127.808425L27.034049,146.616748L1.757044,178.587141L18.939310,251.598605L20.396332,283.568785L40.288782,262.502165L59.039636,249.451214L131.479804,248.247934L198.806831,247.118702L263.685334,247.859182L329.732755,248.581150L337.367144,184.622077L358.328053,179.605305L389.745507,172.996492L448.175272,165.202903L513.280448,157.761039L527.332262,145.209827L538.438813,123.994923L545.553399,104.964423L559.127263,96.911626L577.207842,103.298328L600.893615,113.276386L625.339698,128.715519L653.440117,143.025397L672.167668,152.022286L717.118185,174.551507L794.183527,205.947968L857.731876,218.480617L935.114070,195.525683L990.939898,180.771566L998.242956,153.281109L989.949890,126.457038L948.930259,101.854378L892.559199,104.631204L875.171288,111.221536L848.805551,119.403910L832.974547,122.662048L806.507916,116.923281L773.108611,95.689822L752.222139,74.289721L722.714835,64.256097L687.712269,54.222467L632.026772,10.200283L602.708071,2.314040L574.889574,0.000000Z "/></g></svg>