<?xml version="1.0" encoding="utf-8"?><!DOCTYPE svg  PUBLIC '-//W3C//DTD SVG 1.1//EN'  'http://www.w3.org/Graphics/SVG/1.1/DTD/svg11.dtd'><svg enable_background="new 0 0 1000 286" height="286px" pretty_print="False" style="stroke-linejoin: round; stroke:#000; fill: none;" version="1.1" viewBox="0 0 1000 286" width="1000px" xmlns="http://www.w3.org/2000/svg" xmlns:xlink="http://www.w3.org/1999/xlink"><defs><style type="text/css"><![CDATA[path { fill-rule: evenodd; }]]></style></defs><metadata><views><view h="286.974472594" padding="0" w="1000"><proj flip="auto" id="robinson" lon0="-14.3401687585"/><bbox h="12.66" w="44.27" x="-247.32" y="-231.74"/></view></views></metadata><g class="" fill="#000" id="country"><path d="M25.150085,284.974473L25.801150,276.281382L27.069125,272.058395L29.224164,268.976492L34.553250,263.222304L35.657388,259.594239L40.703071,250.368027L52.292583,247.490931L66.686196,247.646977L121.201432,248.202890L171.460323,248.710039L244.643658,249.451258L287.757314,249.880384L309.025903,250.101002L317.844424,250.192476L330.238464,250.309510L332.490350,248.485724L333.537429,221.597037L333.755612,215.709561L334.749206,188.944337L336.151971,183.619248L340.019435,181.259044L363.119570,178.781804L378.059676,173.495724L382.232445,173.378688L404.500762,175.807165L409.912140,175.202484L419.920340,171.486622L427.635759,166.834479L435.431094,163.586756L445.747300,164.093908L481.695063,172.676478L493.883196,172.656973L504.687167,170.443060L515.595041,165.966469L525.209998,158.915105L532.168867,149.025633L534.333502,138.589990L535.951426,115.241431L540.716385,106.853886L548.334819,98.194029L555.353911,90.215321L562.961419,86.821286L571.947919,93.424050L586.552922,108.980031L602.768146,122.273311L602.819114,122.292817L602.886562,122.351335L602.937224,122.390347L624.365429,134.718073L635.492738,137.985308L648.140023,139.136155L653.088634,140.764896L664.030742,148.333175L670.064728,150.537338L676.811264,151.980772L680.312132,154.419005L686.819862,164.805871L695.910560,174.002875L706.891317,179.220685L718.952564,180.829916L731.233273,179.220685L741.996354,176.216787L745.751572,177.718736L755.072963,187.557720L758.086968,190.738872L762.438754,193.528203L767.202243,195.078914L777.606099,195.547054L781.987522,196.931966L785.625236,201.213490L788.099277,205.007367L791.181414,208.147800L794.646504,210.829846L806.605212,217.803163L815.215746,220.543725L824.154247,221.323956L842.995667,219.470907L860.900702,223.235522L870.480039,222.864912L877.769378,218.875981L893.853154,205.495012L898.846721,203.008023L904.572532,203.086046L918.852822,197.341588L932.189465,197.166036L945.529407,193.177098L970.556212,190.777884L987.055179,182.780498L996.702169,166.756456L998.251592,147.445658L990.577413,129.597776L987.280511,126.515845L979.848991,121.571099L977.557835,119.355231L976.874125,118.693977L975.202622,115.514514L973.195960,108.355842L971.534778,105.069094L966.071151,100.026810L958.198859,95.520938L949.847271,92.253693L942.920220,90.907783L938.473769,91.707526L931.675480,96.125623L927.759148,98.056711L924.298114,98.661395L918.555474,98.115228L914.998796,98.251770L908.263394,100.124340L892.838402,108.872749L873.685540,113.690711L867.368247,116.723881L848.848578,129.480741L829.308753,137.224579L823.551472,138.765543L817.523457,137.829261L809.638044,133.664754L785.930835,114.495545L783.271208,112.344802L779.991632,108.277818L777.923608,103.216030L773.755502,86.821286L770.721403,79.604081L766.348494,73.352418L760.036864,67.627413L745.951100,60.215139L732.367163,59.064285L718.908231,63.072766L698.410711,75.741899L694.303809,77.204847L689.701803,75.342027L676.259925,66.164465L674.015198,63.287332L667.975544,38.797542L665.129498,31.843642L661.045404,25.406649L655.720101,20.529960L649.543496,14.873380L637.535850,10.396738L604.178957,8.719216L584.632089,0.390121L577.565498,0.000000L553.298421,9.889581L528.098923,27.649843L521.029188,29.512670L518.265580,27.152440L512.013569,17.662746L508.974831,14.385729L494.699517,11.830434L479.284756,18.296693L465.120057,29.746743L454.612584,42.162330L450.833189,48.589562L447.285933,56.489493L444.552416,64.789293L444.103903,67.363167L443.213254,72.474649L442.301853,87.464982L437.074914,89.415578L420.892358,89.357060L400.369783,89.259530L379.812721,89.181506L359.290170,89.083976L338.733129,89.005952L318.193513,88.908423L297.670673,88.830399L277.113992,88.732869L256.574084,88.654845L249.520859,88.634734L236.050944,88.596327L215.511387,88.498798L194.988599,88.420774L174.431977,88.323244L153.892121,88.245220L133.369702,88.147691L112.829868,88.069667L92.115567,87.975749L92.118258,87.981043L94.233433,91.697925L96.017340,96.674244L96.290675,102.633538L93.190234,118.484018L93.056546,126.224943L93.731972,127.637969L96.977019,129.880379L98.991084,134.058019L104.999998,139.157195L106.300513,141.798936L107.005225,144.655702L110.147691,152.135511L110.785036,157.372911L109.990659,161.335518L105.780573,170.658390L103.718371,173.991277L114.406559,174.713146L139.928799,181.732173L147.011613,182.361889L158.459609,181.947198L169.756564,180.104128L176.360941,176.356551L174.757111,175.680759L173.242044,174.528839L171.676291,173.991277L171.719661,171.410978L173.139629,171.011645L176.482942,169.091779L174.576492,164.806637L175.315670,161.673414L180.997429,155.959889L182.324233,160.291110L181.644170,164.714484L180.595821,168.631011L180.737574,171.410978L183.525444,173.714816L186.046963,172.639692L188.535229,170.335852L191.086471,169.091779L194.280003,166.465402L208.405612,150.799283L217.821959,143.058370L223.858295,139.433656L230.101236,137.928477L236.596206,139.049682L246.996645,143.242678L353.106502,133.965865L364.975050,129.941815L379.679834,121.171840L385.679812,119.651301L391.440483,120.419250L400.259231,125.119097L405.916430,124.811918L409.251522,122.477353L414.229646,115.105041L417.642210,112.140756L424.188670,110.098010L428.504835,111.142422L432.210465,113.323399L436.766950,114.490682L438.180462,115.289349L440.143264,117.070991L442.657852,118.852633L445.632469,119.651301L448.295986,118.883351L451.197202,117.562479L454.140817,116.948119L457.022796,118.484018L464.900362,126.532123L470.280691,130.894071L474.974368,132.767865L480.089061,133.566532L491.377503,137.114453L497.582187,137.928477L501.251360,136.546171L504.767807,132.921455L507.270254,127.899071L507.993170,122.231609L508.073915,122.231609L508.719875,122.231609L510.442434,122.231609L506.872715,137.652016L494.955897,143.119806L480.463949,142.106115L469.145093,137.928477L465.707561,134.088736L462.669213,128.866687L458.706808,124.212917L452.467541,122.231609L449.372384,123.060994L445.943069,124.581533L442.379592,125.241969L438.989173,123.521764L436.084241,120.910737L432.367460,118.576172L428.272948,117.132427L424.313763,117.301376L421.083202,119.835608L415.685620,129.020277L412.758299,132.767865L408.969143,135.716787L405.795531,137.221965L402.340277,137.836324L397.682257,137.928477L394.472776,136.669043L389.851493,131.201251L386.642145,129.941815L383.530301,130.955507L377.258427,135.931812L374.103559,137.928477L354.722373,144.594266L347.912531,145.408290L326.627064,142.597601L319.405289,143.089088L318.383260,143.857036L317.025579,145.392931L315.221739,147.051698L312.739091,148.249697L309.619525,148.894773L307.965633,148.802619L306.100710,148.449363L302.483640,148.249697L296.160394,148.925491L278.371244,153.609970L232.025638,150.799283L226.669564,148.357209L223.450563,147.696775L221.993077,149.539849L220.876952,153.502457L218.350658,156.482092L204.900513,168.815318L202.103121,173.515150L200.937596,180.442024L201.047116,183.559884L201.616886,186.524154L202.642141,188.812632L204.282682,189.718808L206.330039,191.254698L206.982204,194.940836L207.087351,199.149175L208.423516,209.501069L209.786916,211.712749L212.966019,209.132456L215.680056,206.183549L218.770227,204.094739L222.183699,202.804592L225.825493,202.359184L225.779090,205.169862L214.358670,212.019927L206.291327,214.707732L200.398563,212.880025L199.647214,206.229626L201.217825,197.567208L199.942317,190.087421L190.788987,186.877409L184.145895,188.920144L171.799861,197.951181L165.613927,200.009273L160.179539,203.004258L155.596039,208.241640L151.772022,209.915759L148.627441,202.359184L144.564798,204.616942L140.015578,205.384887L130.286894,205.169862L130.243562,207.750156L134.854468,207.320107L138.384763,208.717766L140.647611,211.850979L141.402058,216.642951L142.650496,217.656637L148.580229,224.522056L150.455063,228.346415L146.195189,224.660286L143.243984,224.844592L136.640469,230.926705L138.693261,225.689330L138.658043,218.931424L136.858395,213.048972L133.696563,210.545474L126.977822,209.838965L123.616060,208.026616L121.075965,205.384887L116.805959,202.359184L112.079927,200.838653L95.362191,200.009273L92.719928,197.859027L80.799006,181.732173L81.687662,175.404298L79.511092,164.161562L75.335932,153.348868L70.282468,148.249697L74.155319,143.749523L79.613115,143.334831L83.266973,142.167551L81.594286,135.363531L78.139098,131.262686L73.063897,129.020277L67.177524,129.327456L61.290666,132.767865L57.931224,130.924789L55.114413,128.835969L53.304737,126.102072L52.685704,122.231609L44.071122,130.064687L24.269760,156.651041L20.443721,159.968572L16.090731,162.625668L12.034320,163.700794L8.546649,166.127506L4.792143,177.738854L1.748408,181.732173L4.709660,190.302446L5.887192,192.268386L3.198495,198.319794L4.566100,203.326795L10.095790,210.545474L11.867664,215.552470L12.550887,220.467312L11.441846,238.130012L11.607869,242.614799L17.713562,261.260441L18.223166,266.958570L15.802231,272.395596L14.362898,275.513438L15.112249,278.185874L20.195756,280.136444L25.150085,284.974473Z "/></g></svg>