<?xml version="1.0" encoding="utf-8"?><!DOCTYPE svg  PUBLIC '-//W3C//DTD SVG 1.1//EN'  'http://www.w3.org/Graphics/SVG/1.1/DTD/svg11.dtd'><svg enable_background="new 0 0 1000 845" height="845px" pretty_print="False" style="stroke-linejoin: round; stroke:#000; fill: none;" version="1.1" viewBox="0 0 1000 845" width="1000px" xmlns="http://www.w3.org/2000/svg" xmlns:xlink="http://www.w3.org/1999/xlink"><defs><style type="text/css"><![CDATA[path { fill-rule: evenodd; }]]></style></defs><metadata><views><view h="845.549545376" padding="0" w="1000"><proj flip="auto" id="robinson" lon0="-9.67121106546"/><bbox h="91.52" w="108.37" x="-221.76" y="-212.52"/></view></views></metadata><g class="" fill="#000" id="country"><path d="M802.994867,843.549545L811.885166,842.070399L822.229472,836.908479L824.362287,834.478453L827.427662,835.784026L834.067210,836.319839L838.759589,827.029895L842.567839,816.343821L850.628522,804.774790L854.585855,800.307168L855.659033,792.911444L856.137977,783.372471L859.057144,775.086245L865.686853,770.528067L872.825412,770.595987L876.692402,772.278890L878.620914,780.308529L884.328111,786.421319L889.187386,790.602167L896.903777,783.900737L907.544675,785.644014L923.839900,790.873846L927.393661,785.696840L939.839676,759.343931L939.559745,749.563475L938.361978,742.809227L945.664964,724.772752L951.426769,717.769471L954.439784,710.230381L953.551919,699.966958L949.237893,696.133269L943.526487,696.842652L936.721145,694.322077L926.337963,688.413066L921.061811,683.153066L922.809887,659.320828L923.824124,651.940235L927.519759,647.676396L933.265522,646.529311L949.412593,645.812382L962.460042,648.529164L973.932243,650.106407L980.077604,650.083767L984.966378,657.147401L991.522515,664.369517L997.356148,664.316691L999.407968,658.943497L998.191744,635.428242L994.359451,622.983884L985.650451,610.992329L962.992523,600.759139L962.521496,586.443247L964.886613,570.935005L969.824336,565.169414L986.756144,555.313578L983.815242,550.030973L978.459505,544.378587L967.792466,538.673377L970.348528,520.101272L970.955997,503.536573L961.903730,505.393026L952.610623,506.351439L944.798478,501.249966L938.289397,491.197958L937.212911,463.517237L937.426182,431.535051L936.242601,417.400428L938.809334,409.848898L946.840023,402.891038L955.632213,393.895632L958.778284,388.145216L961.036348,377.783907L959.555943,370.229890L956.664430,363.513535L926.314594,345.568046L921.585980,338.149878L916.974896,317.812183L914.044846,297.421676L914.455916,285.453011L916.609414,274.767244L915.796628,266.473701L912.491237,260.157327L903.423450,254.082440L893.909797,251.229884L881.794670,259.221568L875.989626,260.723311L870.563542,260.179967L867.799740,257.244400L868.206516,253.169320L881.480754,231.352549L887.922301,222.243990L895.680186,215.323899L900.896291,211.611047L904.274740,206.253069L904.596177,202.057244L903.405075,199.008479L894.851419,195.001314L881.618392,184.821152L874.515833,183.734463L868.605976,179.116034L862.417117,163.230746L859.498372,160.181977L853.183441,158.521756L847.475321,154.657968L847.900943,133.965564L848.279543,116.133251L835.548398,87.381151L830.683731,69.292201L824.316686,50.697607L818.405251,41.973833L807.974849,34.615974L795.129577,29.529614L783.687090,28.382542L774.834404,30.080511L770.723108,32.344469L770.924087,35.808325L777.983828,47.588442L779.184806,54.123723L777.957837,60.455244L775.491102,64.681288L769.130353,65.141624L758.000266,68.816771L744.249942,75.955760L734.627075,82.038235L726.833884,97.591549L721.491785,99.530996L712.461808,97.591549L686.802217,86.158620L665.671320,76.733049L651.107713,71.292023L642.254416,74.748320L637.781931,76.408550L625.099500,82.724966L608.104193,105.658740L604.031155,113.242951L600.656399,115.665370L596.053958,119.702734L591.727442,119.808385L588.269504,117.069014L587.185986,115.401243L578.736095,98.859359L569.465026,80.687413L561.812968,72.446638L552.141967,72.084406L543.773652,77.759372L535.052148,89.471529L524.034100,100.315830L517.080120,103.530632L511.064227,101.772301L496.356828,88.082975L485.909262,78.355546L484.636621,73.457869L488.464137,65.956647L492.244334,54.818002L496.339915,45.784825L500.270418,41.656879L491.162625,39.619319L475.321338,38.268491L443.469873,44.298161L432.586630,41.822903L411.722638,42.637927L396.828240,45.950848L377.859562,53.459630L363.255135,51.595642L355.418610,45.679174L344.992868,46.079139L333.291612,42.924695L320.853596,37.211978L309.461852,34.314113L297.270156,23.786704L291.527664,21.892524L287.448936,24.662102L284.003135,28.171239L280.414918,30.337093L273.745682,28.427821L271.318980,21.273708L273.497029,14.353533L274.191553,9.101138L271.090051,6.240997L263.569834,5.282586L251.423926,5.305225L231.866565,3.139366L227.383052,1.803626L183.558020,0.000000L182.935922,12.534816L190.715220,30.201256L189.347337,43.354846L185.724849,55.829235L182.655904,60.757105L178.593666,63.609684L166.431128,63.511579L161.240910,66.001926L153.066355,70.892059L152.780884,76.619851L159.181123,82.075967L164.408505,89.735656L170.518725,95.735114L181.055785,102.662786L181.953977,110.360196L182.000329,129.792367L181.246589,144.953218L151.199057,155.993692L128.230463,157.948225L108.805976,156.718152L100.300134,161.374317L83.248479,172.746827L62.487622,179.636739L51.872314,180.119712L46.757687,184.224983L38.596815,196.035178L15.539363,247.554765L7.975897,259.915841L1.903959,267.960351L0.592032,284.275766L5.807406,288.947016L10.885068,289.090398L17.964669,267.220799L23.179471,263.643785L29.858900,264.496533L38.155521,269.273432L40.546908,280.027117L49.020030,298.734758L51.101609,306.779272L62.627364,294.765327L63.399292,299.678064L59.629565,317.774451L60.060133,328.279114L84.357440,374.878516L119.010991,393.382472L130.440843,393.593773L136.070062,391.427934L138.078087,395.465300L139.064883,405.864353L148.076436,418.094707L166.231461,430.689841L175.230756,433.308484L180.893035,425.165790L184.006187,424.418685L182.435358,436.244080L188.002451,447.820450L188.008775,469.033756L183.202297,485.002242L199.948364,483.824980L217.713920,502.849836L221.804787,512.071730L223.027236,519.233418L236.517749,534.039782L240.043769,541.450516L235.408650,555.698453L236.723618,560.203762L244.700863,556.973825L252.285240,558.400129L258.861482,560.460346L266.043082,557.049291L272.788862,551.804418L276.844541,545.103058L282.419935,527.112032L299.834943,521.097419L310.162368,510.071892L320.024900,492.978944L324.585275,480.964839L328.647658,474.980430L331.216134,469.788410L333.138742,464.083227L337.532906,458.853478L342.199774,446.145121L345.416775,434.561206L355.454728,428.999421L375.918157,424.109278L394.245864,432.516099L424.153045,425.195976L425.833602,414.336544L453.154476,414.155428L485.518571,413.959219L512.467606,413.793196L521.680654,416.698602L524.985533,424.796011L533.742385,437.496803L542.943829,446.280958L554.261780,465.554802L567.451987,487.990675L581.739524,508.253171L590.913922,519.240964L591.948241,523.089712L591.246022,527.451628L586.603409,537.752695L582.618839,548.898986L582.987268,553.087337L585.714822,555.185286L600.770979,558.664259L602.071959,571.085937L601.972853,588.277069L609.189311,604.321133L616.077855,616.101379L615.697710,620.312385L598.511342,640.454286L591.728923,660.452821L588.316847,666.075054L586.932090,670.550201L590.340107,672.648162L595.019624,671.319957L601.626391,672.987760L607.921300,673.576397L616.305912,666.399558L630.303195,648.031087L634.994685,645.782196L645.441129,647.382078L652.267538,646.816082L663.950309,642.039075L670.706296,644.182314L673.655823,650.559204L675.163666,655.924849L710.572267,642.122088L713.685521,639.261921L715.549304,639.744905L719.918064,652.204366L722.467148,651.442158L724.628064,647.842422L726.981935,647.495278L729.735493,649.178173L732.471172,654.973975L736.938025,660.181142L744.570131,663.848800L749.390838,668.874851L748.775417,682.179551L750.568175,695.122020L753.866978,698.102940L755.590740,705.830692L756.440079,714.313111L758.242608,718.773174L759.497553,727.323516L758.788807,736.507780L760.122392,742.967707L765.697836,754.106557L769.131784,768.143325L769.105458,778.074720L767.002700,788.534383L763.209671,798.103544L756.580155,808.525480L756.006776,812.645957L759.901859,815.340115L765.815978,815.883474L770.773269,813.755316L783.280680,818.539899L789.794528,825.407363L795.516290,833.889813L800.674292,838.191412L802.994867,843.549545Z "/></g></svg>