<?xml version="1.0" encoding="utf-8"?><!DOCTYPE svg  PUBLIC '-//W3C//DTD SVG 1.1//EN'  'http://www.w3.org/Graphics/SVG/1.1/DTD/svg11.dtd'><svg enable_background="new 0 0 1000 843" height="843px" pretty_print="False" style="stroke-linejoin: round; stroke:#000; fill: none;" version="1.1" viewBox="0 0 1000 843" width="1000px" xmlns="http://www.w3.org/2000/svg" xmlns:xlink="http://www.w3.org/1999/xlink"><defs><style type="text/css"><![CDATA[path { fill-rule: evenodd; }]]></style></defs><metadata><views><view h="843.954609884" padding="0" w="1000"><proj flip="auto" id="robinson" lon0="-9.67587338874"/><bbox h="91.94" w="109.07" x="-222.19" y="-212.51"/></view></views></metadata><g class="" fill="black" id="country"><path d="M800.676959,841.954610L802.236740,840.391377L803.300698,839.994204L804.064840,839.708951L805.968279,839.343932L807.768165,838.709117L809.649382,837.169690L811.363805,835.423948L813.236135,834.265410L815.556165,834.479660L816.650243,833.773428L819.654374,832.765659L820.256000,832.686307L820.715162,830.281945L821.338453,830.059760L822.761114,830.781862L823.505791,827.171351L825.233720,828.369564L827.777020,832.987844L829.567909,832.749789L835.438694,830.218463L836.939527,829.234500L837.828103,826.187387L837.226978,823.275173L836.240709,820.505793L835.973763,817.895116L836.624939,816.244597L837.851667,814.117967L840.332581,810.682032L841.605805,809.769485L843.818315,809.047384L844.970501,807.865041L845.487441,806.500189L845.705427,803.365791L846.194724,801.937458L847.009273,801.183616L850.796487,798.620552L853.102822,795.835303L854.458489,793.050054L854.997608,790.002944L854.868324,786.424178L854.508274,785.725882L853.901133,785.527502L853.357291,785.249771L853.208191,784.297549L853.457160,783.416745L854.261789,781.829709L854.461793,780.956839L854.819956,775.648205L855.768769,772.466199L859.336424,767.601936L860.420937,764.538958L876.533407,765.483244L875.778487,771.236246L876.603832,775.433955L879.117252,778.909563L883.454380,782.535940L887.522333,785.479891L893.696946,779.044461L897.117380,777.044796L900.333826,781.210765L902.851197,780.980645L907.660711,779.361868L912.190851,780.671173L917.293390,785.162484L922.203030,787.582714L926.112058,782.662902L926.179947,781.583718L925.751117,779.092072L925.812434,777.925601L926.463562,776.179862L929.186514,772.291625L929.790400,771.688551L931.325599,770.712525L931.880663,770.085646L931.967477,769.450832L931.597045,767.943148L931.690853,767.308334L936.064288,761.674360L936.717604,759.452511L937.230658,754.334325L937.766337,751.866486L938.399294,751.017423L939.289685,750.414350L940.058917,749.565287L940.328182,748.025863L939.644130,746.351542L936.638898,743.399659L935.640056,741.804690L935.983649,735.639065L942.767861,724.109269L944.179841,718.134091L944.421134,714.420436L944.175824,713.111134L946.236803,713.190486L951.901749,712.147012L953.227123,712.627089L954.527809,713.896715L956.164410,715.063184L958.560187,715.277433L958.162798,713.472156L957.821331,711.920860L956.188209,708.548417L953.951615,705.731436L951.437313,704.021409L950.693089,701.843208L950.648266,699.530110L951.481204,694.856303L952.496398,692.971704L953.296174,690.841115L953.184596,689.345339L951.507621,689.369144L943.345581,692.519400L942.051982,692.725714L928.903838,688.174904L917.717566,679.835059L917.914296,678.220256L920.135187,675.597690L920.542270,673.832119L920.242353,670.951661L920.256835,668.075170L921.970694,659.330640L921.770143,656.172454L921.074473,654.224376L920.139998,652.534191L919.442840,650.887650L919.438296,649.042730L920.191298,647.959583L926.787708,642.083614L928.675228,641.797949L933.510503,642.904900L936.271402,642.579560L940.773182,640.568003L943.512647,640.329948L944.663078,640.758446L946.129586,642.234381L947.010797,642.722392L948.117593,642.801743L950.493754,642.579560L951.736093,642.793808L955.772593,641.607505L957.848795,641.298035L959.774798,641.694792L961.443901,643.190565L962.369949,645.217993L963.085563,647.427929L964.123407,649.463292L965.597158,650.935261L967.522775,652.149337L969.716179,652.891273L971.979143,652.978559L974.283236,651.788288L974.538215,649.629930L974.194280,647.094653L974.701563,644.773625L977.666062,644.230068L980.536748,648.630103L984.737822,658.255429L987.794252,660.437593L991.522033,661.016858L999.406848,660.044803L996.629333,653.526084L995.785660,650.248871L996.222303,646.574902L997.211720,642.714457L997.231459,640.048251L995.578673,633.664435L995.286966,630.422933L995.636790,624.531098L994.945274,621.658581L993.987829,620.333415L990.233556,617.476769L988.974007,615.814359L985.772890,609.184562L984.843418,607.887169L982.306681,605.367768L981.664872,604.518710L980.595464,602.586508L979.718778,601.923925L978.926201,601.900120L977.500857,602.713469L976.899783,602.800756L968.812188,600.031398L965.818006,599.642578L959.640960,597.527868L958.310379,592.790603L960.844249,579.479448L961.455976,571.945061L962.131266,568.318716L963.463468,564.597151L963.470451,564.597151L963.470534,564.581281L963.477517,564.581281L965.522170,562.157107L977.680391,555.174216L980.279660,554.833007L982.946985,554.833007L986.175729,554.285485L988.346367,552.474319L988.538969,552.313613L986.847302,549.976726L981.237966,546.425770L978.235414,543.787350L976.778014,542.097175L974.948405,538.169303L973.825648,537.915380L972.460779,538.558123L970.783389,538.883461L963.929444,535.816548L963.812666,530.226277L968.708347,516.891364L969.160265,513.344383L972.786598,501.108492L972.088780,499.775399L966.511322,499.767464L963.652569,500.441945L958.496897,503.711197L955.719094,504.885588L953.246456,505.147446L950.217667,504.988744L947.282530,504.306327L945.076825,503.008942L942.830333,500.267374L935.040918,487.714091L934.042702,485.262155L933.416033,482.536459L932.975258,479.045031L932.917822,475.660727L933.101099,474.252682L938.300800,434.323080L937.699037,431.037974L935.164586,431.276025L934.607648,431.053844L934.064623,429.657278L934.465628,429.105792L935.115756,428.907417L935.341207,428.542405L935.136789,427.709226L934.838600,425.035119L934.348250,424.178136L933.575029,423.955955L932.821706,423.908345L932.369986,423.598878L931.888970,422.349111L931.465680,420.781942L931.592389,419.425052L934.495529,418.179252L936.165071,416.687466L936.690310,415.191713L934.991870,414.509301L933.704185,412.815173L935.178548,408.961255L937.931529,404.803314L940.479906,402.180797L947.369529,399.280555L950.485859,397.328545L953.096697,393.555455L953.563439,391.329689L954.266446,389.262623L955.275422,387.362192L956.660121,385.628397L959.627211,378.256792L960.381075,374.686048L960.132689,370.742360L959.260940,367.231131L957.889226,363.358860L955.921016,360.097583L953.308656,358.395530L945.973022,358.006716L942.462075,357.260828L939.859191,355.185831L939.138974,353.221924L939.003794,349.159217L938.569039,347.290530L937.230933,344.886233L936.340397,344.529159L935.184641,345.314722L933.099959,346.302626L929.984871,346.989001L927.076780,346.921554L924.616756,345.485324L921.286243,338.359718L917.205066,331.999839L915.731511,327.976810L913.823690,297.597799L913.242085,294.864205L909.696331,293.304986L910.003255,290.138937L912.884027,281.592985L913.847135,280.406709L914.658201,279.018091L914.977088,276.161506L914.888605,260.291591L914.096425,256.827982L912.036122,253.288992L909.260973,250.329253L906.303082,248.623237L904.685524,248.670847L902.067229,250.297513L900.741255,250.515724L898.238502,249.535757L897.013169,249.313578L895.588311,249.718261L892.847989,249.829350L890.150086,248.853351L887.898562,248.845416L884.348571,257.097771L882.993777,259.442551L880.554750,261.311233L878.381455,262.057119L875.988079,262.370550L873.555532,262.303103L871.285751,261.890485L868.620507,262.199948L866.282477,263.560794L864.158121,264.274940L862.105886,262.672078L861.516447,260.259851L862.051473,257.557998L863.177876,255.022780L864.390672,253.082683L870.662412,246.004701L872.109684,242.937840L872.219650,241.196117L871.888570,239.724183L871.941160,238.212573L873.195030,236.367696L874.303213,235.891599L877.032416,235.843989L878.229348,235.137777L879.389628,232.721583L880.202246,227.250430L881.859114,224.592219L882.832553,223.941552L885.609147,222.592609L886.757964,221.779276L887.240226,221.588837L888.579360,221.453943L889.034924,221.096870L889.279757,219.989943L888.986610,219.069488L888.573831,218.311699L888.473413,217.732447L889.919663,214.296610L891.188918,213.201586L896.392529,214.530691L898.773805,214.848090L901.500005,214.681456L903.973784,213.741163L905.563182,211.705846L906.357826,207.730431L904.982888,207.032155L902.512645,207.484447L900.035325,206.968675L898.957532,204.671504L900.581554,202.675861L903.393432,201.211861L905.830603,200.497714L902.840055,197.696673L898.799911,195.518526L890.673791,192.737321L886.946556,192.618297L885.362690,191.939858L884.305995,189.682361L883.799949,186.884116L883.207582,183.608146L882.469086,181.691852L878.990602,184.738878L875.355324,184.461154L868.024815,180.723786L866.529304,178.505963L865.059952,175.593830L863.961374,172.495225L863.529251,169.729889L860.623895,158.668540L858.795619,157.224375L856.924641,157.732214L854.735420,158.858980L851.945264,159.303338L849.527828,158.382881L847.316975,156.875237L845.054596,155.732601L842.531159,155.923040L849.607683,116.724235L849.510627,114.899188L848.798181,113.391539L847.897336,111.931501L847.245527,110.249283L847.066200,106.956260L847.221552,104.059987L846.657283,101.457308L844.224900,99.076809L841.429830,98.513424L838.341465,98.918109L835.369246,98.735604L832.908624,96.434454L832.368077,93.530244L832.980162,90.189608L835.048730,84.151069L835.202083,80.715210L834.171435,77.319026L832.424873,74.629057L830.416313,73.327714L827.753484,74.533836L826.116656,74.597316L825.142342,72.851613L824.702432,71.320156L823.410217,68.876171L822.980814,67.344712L823.237113,63.321658L824.698365,60.084169L826.492269,57.029184L827.739132,53.617123L827.544702,50.228866L826.069863,46.785062L823.678516,43.896710L819.130598,41.249873L803.105941,31.922736L797.444161,29.812014L787.177564,27.360085L785.415455,27.479110L784.404590,28.447186L783.361566,29.113730L781.468263,28.320225L779.682762,27.145838L778.904426,27.003007L777.976967,27.193449L775.712765,28.986769L769.328102,30.732479L767.361587,33.478004L768.064619,35.049143L769.990468,37.675641L772.404002,40.270399L776.094607,42.523949L776.446580,43.666594L776.504233,45.031420L777.135401,46.491466L778.142566,47.150074L780.407162,47.713461L781.159422,48.467289L781.232937,50.419307L780.615864,53.331462L779.390279,55.767515L777.610047,56.330902L777.996105,59.981013L777.317497,61.964769L774.139599,65.527593L765.889013,63.924719L763.546494,64.281795L758.034565,67.186012L755.826295,68.899976L753.142778,71.605816L737.927484,77.271416L733.610488,80.397810L731.548732,82.825922L730.566778,85.198490L730.355613,87.817042L730.613118,90.991043L729.955319,92.935119L728.246852,95.569539L724.953084,99.497364L717.454355,99.306924L715.038570,98.434074L713.674959,97.497744L711.505278,95.585409L710.076504,94.934739L709.136228,94.950609L706.374166,95.434644L705.079149,95.402904L702.660406,94.101564L698.059898,89.951558L695.594964,89.158057L692.897592,88.658152L688.229488,85.872965L685.661040,84.992180L684.032766,84.103459L681.304384,81.691216L679.683665,80.746950L678.315192,80.389875L676.074045,80.278785L675.625729,80.124259L674.692762,79.802684L673.634445,79.040923L671.812593,77.271416L670.495800,76.604875L669.529334,76.454109L666.241349,76.604875L663.614644,76.033554L658.910357,73.518155L654.477357,72.526278L653.636805,71.582011L652.991830,70.574264L651.925420,69.955333L646.779024,72.248552L645.947113,74.065671L645.599115,74.049801L645.217553,73.169014L644.271101,72.383448L643.996303,72.724653L643.404722,74.160891L642.123251,74.922652L640.896778,75.025807L640.125104,75.628868L640.201603,77.834801L638.210507,77.065105L637.324068,76.557265L636.447554,75.739958L634.659469,77.049235L629.987550,81.381751L629.028482,82.643417L627.698140,84.865219L621.262396,84.293899L618.808844,85.269905L618.655404,86.745816L619.733043,89.832533L619.253966,90.411788L617.987297,91.062458L617.924426,92.538369L618.284927,94.165044L618.246463,95.275944L615.488764,97.458069L612.772964,98.894304L611.264877,100.751094L612.179683,104.139337L610.083247,104.885227L607.282162,106.488096L604.819719,108.360754L603.760319,109.900143L603.238634,112.018786L602.013667,114.851578L600.505179,117.470124L599.154134,118.914292L597.138052,119.977581L591.556556,120.231500L587.692648,115.700621L582.324882,103.980637L578.757255,99.894114L578.146406,98.267439L578.346645,97.021644L579.696420,94.307874L580.071939,92.943054L579.250494,88.666087L576.849156,86.436351L573.704289,84.762064L570.596759,82.143512L565.281154,72.669108L562.891809,70.701224L559.608500,69.701412L556.926469,69.836308L551.048691,72.010502L547.909725,71.883542L546.081169,72.304097L545.055791,73.851425L543.241024,80.445420L541.668072,82.429172L537.280315,85.936445L537.160993,86.094627L536.532108,86.928321L534.582559,90.332438L533.504264,90.911693L532.361481,90.983108L531.457915,91.498883L530.570287,95.934549L529.098990,98.870499L527.076812,101.187518L524.939157,101.838188L522.737075,101.973083L518.377829,103.988572L515.752418,103.972702L513.109671,102.925283L510.367863,101.354153L507.755636,99.378339L505.535618,97.196214L500.174525,89.007292L497.794682,86.833101L489.585852,82.730702L487.077985,80.183565L484.692507,73.978386L486.912608,69.479232L490.789377,65.019752L493.367288,58.949460L493.363196,55.410439L492.543966,49.332207L493.151733,45.888404L495.261042,44.594993L498.503431,44.753694L501.062479,44.364877L501.122225,41.381304L497.406624,41.214668L488.604227,37.643901L484.064230,37.120188L472.449162,38.104133L466.839537,39.270584L456.426531,43.595179L451.327250,44.539448L440.312834,44.023671L437.549650,43.349193L429.447629,39.516570L429.269483,39.262649L429.006823,39.096013L428.073921,39.103948L427.486231,39.365804L425.983405,40.532255L420.824559,43.666594L419.030894,44.071281L416.166321,43.753879L408.076527,40.730631L404.733714,40.849656L402.303022,42.174807L397.788722,46.737452L392.768689,49.847984L369.941091,56.473733L367.772728,55.235869L364.023150,48.665665L361.636988,46.721582L355.823690,44.364877L353.002838,43.595179L350.672129,43.476153L348.396617,43.991931L345.751719,45.134576L341.789923,47.554760L340.778255,47.886820L340.605337,47.943577L338.684650,47.880097L338.200866,47.284969L338.112560,46.213740L337.409279,44.753694L333.674713,40.032348L331.481424,38.024783L328.868045,36.810722L326.105246,36.453645L317.397210,37.001163L314.624566,36.596476L313.846196,35.334804L313.283134,33.827146L311.149662,32.668630L307.161484,32.343293L305.880447,31.787840L304.481546,30.335727L304.212081,29.026444L304.440424,27.994888L304.506936,27.391825L301.202450,24.106714L295.974401,21.043785L291.076970,21.107265L288.746431,27.225189L288.268060,30.184961L286.697275,31.692620L284.488514,31.867190L282.099883,30.819765L279.485538,31.145101L277.149907,30.883245L275.177487,29.677118L273.655900,27.201384L273.094327,24.217805L273.613044,21.686524L275.682666,16.465258L276.227215,13.822884L276.411963,10.736145L275.866998,7.847782L274.167291,5.752925L272.118587,5.403782L269.785189,5.832276L267.316889,5.919561L264.909098,4.522989L263.624356,6.229029L262.566385,5.411717L261.680237,5.316496L260.728237,5.475198L259.524320,5.467262L257.811961,6.038587L257.267798,6.141743L256.659778,5.792600L255.391906,4.245262L254.652380,3.840574L253.635173,3.927860L251.346815,4.642016L250.174973,4.848327L249.005011,4.634081L247.360555,3.427950L246.230615,3.078807L245.046278,3.174028L241.001023,4.126236L240.347148,4.372223L240.028371,4.808652L239.654730,5.181600L238.867478,5.245081L238.220215,4.975288L237.073261,4.054821L236.457633,3.761223L236.034574,3.631706L230.003793,1.785391L186.457746,0.000000L186.457746,0.000000L185.242135,10.101340L185.423354,13.521351L186.656240,17.695192L193.318532,27.225189L194.799084,30.343662L195.127123,32.970162L194.591949,35.604596L192.140237,41.928821L191.838402,43.206362L191.677390,45.174251L192.041752,49.609934L191.886654,51.395315L190.769556,54.370951L190.178412,58.417814L187.865988,62.321845L183.935877,63.948524L174.809908,64.075485L176.588030,60.599945L174.313951,59.854053L170.614670,60.845931L168.037455,62.559896L164.740470,65.559333L156.497481,69.828373L153.510979,73.573700L153.149499,75.152767L153.093416,78.437862L152.511218,80.128020L153.538052,80.691405L157.061345,81.246856L159.778221,82.246667L162.328680,84.016174L164.924740,86.864841L166.265599,87.936067L169.927652,89.380237L170.546463,90.284828L170.872894,91.459208L171.602836,92.943054L174.506164,96.601089L176.089026,97.831014L178.265960,98.894304L183.001656,99.727479L184.274189,100.441629L185.722679,102.972893L185.867785,105.877101L184.614021,112.090201L184.089752,118.469933L185.927254,136.561697L185.866032,139.315135L185.086180,145.917037L184.364969,147.956326L182.208249,149.741695L178.923358,151.201730L175.452359,151.915878L172.751021,151.487390L171.967081,150.352688L172.273511,149.210052L172.201837,148.226115L170.265718,147.607187L169.139837,146.813689L168.731357,143.742853L167.562096,142.798591L165.538908,142.758916L165.124892,143.576218L165.713244,145.313978L165.381344,148.829173L164.980245,150.305078L163.206712,153.217214L160.864345,154.780404L158.153618,154.835949L155.250998,153.201344L154.170393,154.121801L148.311721,158.089287L145.780605,159.120834L139.903105,158.057547L137.770661,158.105157L133.713162,158.898655L131.837993,158.985939L129.640100,158.406686L128.361889,157.541774L127.216014,156.399138L126.046716,155.462811L124.684670,155.185087L121.571705,155.653251L110.295851,154.828014L109.528486,154.351915L108.826137,154.248761L107.373130,155.121608L106.301122,156.446748L104.694522,160.136510L103.773315,161.660025L102.036861,163.191474L89.396387,170.874367L77.348762,178.196499L71.764029,179.315329L60.574585,177.863231L54.985000,178.529768L51.684617,180.549216L49.228820,183.552601L35.572826,205.544350L33.472629,211.317033L30.639262,223.378170L17.356108,251.459984L12.757824,257.510389L12.757533,257.534194L8.873578,261.945498L8.982672,262.451586L8.949962,262.882697L9.089557,263.138865L9.693992,263.088881L9.682332,264.044825L9.054036,264.700865L8.477509,265.613073L8.047372,266.675232L7.879972,267.799872L7.323799,268.393432L4.650434,269.293143L3.660959,269.855463L1.544727,272.785774L0.593152,275.647358L0.781829,278.646397L2.092246,281.957836L4.322950,285.450468L7.121435,288.768156L9.485446,290.330156L14.383468,291.186132L16.788574,292.535700L18.432598,289.567900L18.678218,288.768156L18.121904,287.081196L16.865053,286.131500L15.604929,285.456716L15.044450,284.581996L15.107422,279.339925L14.979578,278.558925L14.354963,277.090645L14.223609,276.147197L14.519918,275.703590L15.153046,275.553638L15.788046,275.703590L16.062674,276.147197L17.184841,275.959757L19.679077,273.979142L22.266100,271.130055L23.617440,268.324704L23.203226,265.806760L21.613942,263.776161L17.181315,259.939890L19.293750,260.014866L20.899376,260.689650L23.680770,263.088881L24.653711,260.714642L25.405865,257.990515L25.078006,255.160172L22.804996,252.504773L26.062390,252.304837L28.629324,261.052034L32.817811,261.945498L36.657960,256.228580L37.334790,254.729060L38.597998,255.122684L39.354800,256.997084L38.539840,259.939890L39.867929,259.964882L40.791470,259.852419L41.487172,259.515027L42.154525,258.796507L44.535261,259.839922L46.613762,258.627811L48.088347,256.053636L48.668692,252.985869L49.112327,252.610989L51.237090,251.655046L51.996970,251.455110L52.984453,251.042742L53.655609,250.005574L54.089473,248.618519L54.353871,247.175231L55.394457,249.643190L56.058240,250.586638L57.063253,251.455110L54.879807,252.729701L52.319830,256.103620L50.038943,256.803396L49.445318,257.784331L48.832113,259.939890L47.889499,262.101698L46.285775,263.088881L44.076148,263.332553L41.543033,264.001089L39.170606,265.000769L37.459676,266.225376L36.349890,268.131016L35.921209,270.461519L36.690240,272.254694L39.223234,272.523358L38.028705,273.716726L37.453464,274.997566L37.530538,276.359629L38.326273,277.765429L37.601647,279.146237L37.237797,280.658252L37.135695,282.320220L37.246834,284.057164L38.251505,284.057164L42.145637,282.057804L42.806936,281.383020L43.153518,279.933485L44.030251,278.683885L46.541598,276.622045L46.258224,278.296509L46.052591,278.971293L45.663277,279.858509L45.881569,280.895676L45.709982,282.870044L45.254373,285.188052L44.571748,287.206156L43.648677,289.130540L42.383455,291.204876L40.802178,292.610676L38.985778,292.535700L39.245756,296.103308L40.588076,298.215132L42.278709,300.127021L43.550557,303.113565L45.443273,301.364125L47.086112,295.628460L48.686952,293.016796L54.843219,287.718492L56.663634,285.106828L57.753213,285.825348L58.452352,286.131500L58.184580,286.493884L57.809642,287.568540L57.081875,288.768156L56.154776,289.642876L54.232923,291.073668L53.387947,291.967132L51.915782,294.378860L50.831034,296.996772L49.079614,303.113565L50.895736,305.112926L51.965232,304.269446L52.793547,303.863325L53.601107,303.825837L54.602995,304.075757L53.096650,304.713054L51.914446,305.806454L51.137160,307.493415L50.840388,309.886400L51.615029,311.748305L53.474410,310.973552L57.328499,307.212254L61.188037,302.026413L63.082203,298.714972L64.704773,293.735316L66.635833,289.617884L68.964722,285.756620L70.949974,284.057164L71.495428,283.419868L76.066165,279.858509L76.390774,277.446781L75.949578,275.741077L76.320377,274.547710L78.987619,273.672990L77.643788,275.922269L77.108593,276.622045L77.831130,278.683885L77.626832,281.139348L76.554248,283.201188L74.672198,284.057164L71.325811,291.392316L69.489446,298.252620L68.953984,298.977388L67.826412,299.627180L66.791382,300.820549L66.501358,303.113565L65.666783,303.113565L64.211472,302.188861L63.115823,304.350669L61.369837,312.922929L61.172974,315.722035L62.237437,317.708900L65.498145,317.796372L63.458493,319.452093L61.465314,321.845079L59.634369,323.494553L58.147097,322.938480L56.659934,327.180876L56.274000,329.242718L56.122470,331.941857L56.361040,334.628500L57.000172,336.865287L57.882048,337.552568L58.837632,335.609438L59.760231,335.609438L60.882573,337.371376L62.964416,337.814985L65.275449,337.415112L67.118129,336.665351L68.648688,335.347021L69.906912,333.828755L71.402532,332.685370L73.563110,332.472938L73.618096,332.466690L73.539947,332.579154L72.178468,334.491044L71.463432,338.008673L71.370052,341.926175L71.723898,345.150148L73.136134,348.524074L81.387540,358.245983L82.286899,358.870784L83.028836,359.826730L83.605470,361.832343L83.633510,363.781724L82.513757,368.730154L82.509252,372.160316L82.907641,375.927872L84.252234,377.552358L87.064763,374.503324L88.861135,375.496759L90.626724,375.278078L92.478967,374.665772L94.524072,374.503324L96.408213,375.003165L97.795174,375.765424L105.840554,384.125277L108.787136,385.974692L110.093296,383.512971L110.319288,382.925657L110.901399,382.425815L111.645302,382.207134L112.367192,382.507039L112.871759,383.612939L112.323248,384.568887L111.445014,385.537331L110.982733,386.649479L111.392524,388.923760L112.324703,390.635719L113.255794,391.935309L113.673039,392.997474L115.143458,394.209591L118.153631,393.191163L120.570493,390.610727L120.277223,387.174313L122.481337,387.049353L124.574580,386.499527L126.137001,385.237426L126.688128,382.988137L128.567320,385.537331L126.576909,388.317702L123.230028,391.060585L121.039227,393.566044L120.869544,396.640074L122.096160,399.632880L124.406637,401.957148L127.488769,402.994321L129.766556,402.669423L131.514217,401.551025L132.651394,399.970274L133.065046,398.233321L132.891945,391.148058L133.158812,389.273650L134.045219,388.561375L137.756758,386.649479L139.228967,385.599811L141.933398,382.288359L143.348701,380.901298L145.331858,379.839134L141.605291,386.861912L139.297791,390.042157L136.355908,391.372987L135.960977,392.366423L137.508130,394.134615L139.543230,394.946858L140.579843,392.997474L141.380559,392.597600L143.169027,394.409528L144.993851,396.958723L145.963522,398.808140L142.405340,396.002775L138.898583,398.295802L136.725671,402.806880L137.164130,406.618179L139.221050,408.530078L140.654329,409.123641L142.080042,409.386059L144.091971,410.342008L146.718543,413.507269L147.730904,414.438229L148.858721,414.825608L151.131867,414.963065L152.323330,415.575374L153.934674,419.199246L154.670336,420.336392L158.292388,422.916840L160.243068,423.985257L162.509534,426.434496L164.383798,429.102418L165.157713,430.826882L166.004352,431.876557L168.040031,432.707549L170.468408,433.282370L173.301209,433.526045L173.845489,433.494805L178.580067,431.464185L179.167152,430.995580L179.003286,430.345782L180.930076,429.421069L183.638304,425.059923L185.098778,424.060234L185.492647,422.579445L185.752655,419.649106L186.251199,417.593496L187.410218,418.718146L187.804737,423.785320L185.551546,428.808759L179.857503,436.731301L178.472282,441.229908L178.780848,446.159632L181.212411,449.796008L186.174433,450.364582L190.360958,448.190254L191.845351,444.741321L191.448246,440.405163L190.012037,435.587905L190.919077,434.988091L191.316541,434.800649L191.856681,434.631952L192.301073,436.375161L198.119857,444.253971L199.435253,445.166189L201.132083,444.716328L203.940050,443.016854L203.183585,445.653538L201.252350,447.040609L199.252700,448.115277L198.329256,449.839744L197.951497,450.826939L196.097239,451.639188L195.463751,452.363964L195.293837,453.451129L195.389968,462.260911L194.993157,464.660172L192.935974,468.277808L191.292044,472.357803L188.465780,475.944201L184.012778,482.967045L183.126956,483.641838L182.234559,483.854273L181.526996,484.279143L181.228774,485.578744L181.737713,486.384747L182.828636,486.103583L183.813568,485.410046L183.992843,485.053905L187.764220,483.791792L192.481411,480.742728L195.777253,478.618380L199.923249,476.668978L200.289844,479.730538L201.642966,483.092007L203.490618,485.897397L205.357580,487.246983L207.855289,486.403492L209.696195,483.516877L212.745147,476.668978L213.668455,476.668978L213.410849,479.505608L212.734036,481.923615L211.714871,483.929250L210.402270,485.578744L208.961232,488.027994L208.922217,490.427259L209.808158,495.013355L211.779018,498.212376L216.325966,499.843128L221.331460,499.449498L224.633860,496.587873L225.645207,496.587873L224.713685,499.843128L221.721927,504.185551L220.771876,507.072170L220.904382,509.996277L221.822891,512.932882L223.120077,515.344647L224.449014,516.694236L223.367051,518.999784L223.924311,519.980735L225.305145,520.468087L228.401083,522.167570L229.304718,520.724259L230.732603,513.620172L231.417699,512.033156L232.380310,511.358362L234.128881,511.295881L235.571619,511.014717L236.687786,510.377411L237.511503,509.259002L238.434965,509.259002L238.113552,510.752297L238.040075,512.183110L238.377801,515.550834L236.022121,513.457722L235.094852,516.294358L235.091999,520.855469L235.454406,523.942030L235.792527,524.241938L237.082325,525.079184L237.363342,525.616520L237.218260,526.466262L236.906521,527.509695L236.575492,528.253219L236.427289,528.228227L236.803631,532.233260L236.526987,533.657827L235.360133,534.426344L236.274282,536.094588L237.667114,537.106781L240.934859,538.712544L242.359953,534.257645L243.182320,530.202627L244.524200,526.460014L247.534795,522.992319L246.819082,526.178850L245.719379,529.277908L245.701518,531.277300L245.282185,532.064561L244.083697,533.301686L243.830960,533.901503L245.466070,535.488522L249.354546,535.913393L257.570905,535.569747L257.562457,536.525707L255.064439,537.387945L250.735602,536.400745L248.343057,536.525707L246.015594,537.987764L244.401088,540.262074L241.802540,545.010635L238.075591,549.290589L237.927725,549.846671L238.086805,550.508970L238.120430,551.058804L237.596026,551.296232L235.578940,551.221255L235.209913,551.296232L234.699813,553.645521L235.250991,555.357504L236.487816,556.632118L238.001552,557.681801L241.229747,555.055190L247.158600,552.988096L250.691004,552.273937L252.815645,552.845264L257.909084,556.479541L260.977923,557.685676L263.027136,557.304791L267.155261,553.920471L272.392365,551.071770L274.858413,549.314145L276.720577,546.739206L278.546356,541.922603L279.679462,539.684906L280.999806,537.594009L281.771689,537.149644L283.892702,536.919526L284.386445,536.744954L284.254333,535.479307L282.423048,532.912305L281.839598,531.368930L282.499605,526.957020L284.681021,522.219773L287.524752,519.970177L290.129683,523.052957L293.101761,521.287401L295.742519,521.081089L298.337783,521.287401L301.187321,520.755750L303.460786,518.633115L306.738754,512.598485L309.092642,511.253489L310.958206,510.666293L311.048777,509.487933L310.519895,508.099295L310.499141,506.881260L311.598801,505.266472L312.373361,504.504704L314.661769,503.056553L315.240196,503.167644L315.923250,503.687391L316.585033,503.846093L317.120509,502.881981L317.477667,501.953577L317.932954,501.378284L318.876139,500.489556L319.505854,499.525444L324.255859,482.869732L324.290582,482.100031L324.031484,481.405713L324.124350,480.770908L325.165852,480.207518L325.935957,479.945661L326.371027,479.683804L326.664306,479.275148L327.026422,478.580830L328.250616,473.546033L328.897279,472.248650L330.151277,471.724937L331.465312,471.907443L332.551484,471.812222L333.111164,470.483100L333.332979,463.980320L333.738601,463.496282L335.983057,459.120099L337.234457,457.707660L341.454563,454.827236L341.895053,454.735983L342.074731,454.152757L342.067065,452.276118L342.338929,451.530223L343.008970,451.522288L343.705793,451.641314L344.127820,451.272334L344.078795,450.510569L343.584710,448.792631L343.505085,448.332399L345.449804,436.937675L345.450416,435.322895L345.288837,434.283405L345.388159,433.331200L346.210218,431.938601L351.099429,428.732846L357.245269,426.221407L377.576947,421.361199L380.701802,421.492127L383.114115,423.281477L385.551698,425.769110L388.738346,427.994888L391.269017,429.050247L393.490148,429.601732L395.784946,429.712823L400.053081,428.668754L425.497575,422.444331L426.431002,421.019993L427.168507,411.648724L484.584854,411.291423L513.238719,411.113110L516.661288,411.513828L521.218802,413.053223L523.087219,413.239697L524.568360,414.707677L525.524294,418.119739L527.277166,428.240873L528.260485,430.038159L538.237654,437.191597L543.730840,443.186521L548.380672,450.002726L551.536871,456.910187L553.080510,462.127485L553.892700,463.591502L554.642344,464.123151L556.833770,465.035683L557.707068,465.825221L558.284089,467.023414L559.160442,471.046489L560.146975,472.550183L563.588202,475.252071L564.888794,476.771635L565.353774,478.037278L566.012684,482.258732L566.965121,483.683076L568.362460,484.428973L569.381031,485.420856L569.217971,487.603000L568.456249,491.423736L569.008170,494.145465L570.463752,496.450603L572.455419,498.954119L574.559029,500.497491L574.817854,501.362414L573.364436,502.493162L572.056009,503.838158L573.726729,504.465029L576.113268,504.584055L576.987277,504.393613L578.312153,504.591990L579.750310,504.576120L581.004444,504.901458L582.603994,507.611287L584.204696,509.226076L585.995788,510.586942L587.400481,511.332839L593.118585,516.994520L593.279198,518.910843L592.750235,520.612919L591.955984,522.314994L591.320699,524.239253L591.325131,525.556477L591.850889,528.159186L591.666103,529.579567L590.578026,531.368930L589.139536,532.372719L587.619001,533.134487L586.291859,534.185887L583.848565,538.978683L582.327695,545.608455L583.251358,551.182861L588.092302,552.845264L593.679842,552.623082L599.044924,553.249955L602.193884,554.261680L603.789444,555.745544L603.917920,556.740997L604.036028,557.656075L604.087474,558.054658L601.950061,567.148288L601.270555,572.476713L601.430631,583.661252L601.643535,585.196697L602.842851,589.537205L602.873122,590.215657L602.715328,591.842356L602.781340,592.401782L603.237931,593.036591L604.203806,593.750752L604.578308,594.135605L610.060271,602.435740L612.088377,604.106083L612.818767,605.582016L618.557152,614.346361L617.480604,617.635471L615.616774,620.627015L613.061067,622.622699L609.944001,622.900429L607.201885,623.511434L604.587198,625.959422L602.421137,629.212826L600.232963,633.688240L598.136577,635.914046L597.181200,637.774835L596.853346,639.810197L596.855240,641.631311L596.469984,642.845387L595.008631,643.055668L592.972014,656.327189L590.956595,660.044803L588.476046,663.314083L585.333245,668.491765L583.910252,673.490908L586.610261,676.208696L587.628922,671.058785L590.318675,667.845051L594.163329,666.432595L598.632742,666.702390L600.631554,667.662542L604.483725,670.479519L605.913619,670.836601L608.393962,669.721713L613.160310,666.198508L621.202082,657.390498L622.873047,655.013923L626.190865,647.499345L627.517672,645.408436L629.107149,643.746025L630.819632,642.504176L632.858031,641.631311L636.976681,640.972695L637.884270,641.052046L641.571465,642.309765L642.649780,643.000122L643.799636,643.428619L645.351932,643.190565L646.825357,643.269917L648.245178,642.992187L651.033050,641.790014L652.078517,644.353063L654.358104,642.889030L658.958744,637.822446L661.254855,637.044802L663.538683,637.100348L671.215733,639.278543L673.233179,640.599743L674.141166,642.845387L672.733931,650.050493L673.307994,652.093791L675.106048,652.780181L677.987506,652.244559L683.444886,648.614232L688.754750,643.968209L691.054332,642.619235L693.224649,641.837624L695.497015,641.496414L698.130757,641.456738L698.802040,641.345646L700.712568,640.774316L701.339105,641.123462L701.963500,641.821754L702.614018,642.817614L703.824981,642.412922L706.278652,640.980630L709.638428,639.869711L709.826187,638.865916L709.379358,637.687548L709.383403,636.457602L710.317144,635.120532L711.295019,633.989776L711.952670,632.680479L711.887456,630.787949L714.183300,631.152966L715.595989,633.156587L716.355150,635.806921L717.177565,643.000122L717.782710,645.733777L719.170508,648.431724L721.021936,650.713077L721.555283,650.308385L721.596552,648.094481L721.950976,644.924393L723.619445,642.785873L726.287694,642.817614L728.982572,644.230068L730.723919,646.233691L731.437758,649.518838L730.309077,651.355823L728.526383,652.748440L727.243289,654.704453L727.045068,657.485720L728.244095,657.914217L730.273080,657.398433L732.606798,657.327017L733.695754,657.469849L734.849417,657.303212L735.851690,656.747752L736.507368,655.736021L737.485639,654.514009L738.577154,655.402745L740.300498,658.136401L747.057984,661.358070L749.422006,663.282342L750.379269,664.452776L751.082468,664.865403L749.406217,665.992194L748.845751,666.261989L747.941227,666.829352L747.098443,667.591126L745.614382,669.301150L746.850258,670.622352L747.525519,672.241122L748.039676,673.935276L748.792312,675.470727L749.445189,676.137280L749.657806,676.823670L749.430205,677.521963L748.776516,678.204386L747.435049,680.632542L746.536519,685.004810L746.750411,689.123154L748.704399,690.753828L751.983971,691.507668L753.320862,692.317054L753.757627,694.146107L753.754584,695.911679L756.158209,707.044704L755.869771,708.635704L754.379829,711.409042L754.174230,713.182550L755.814955,710.932932L757.261533,709.659339L758.692958,709.841848L760.260418,711.940698L760.943009,713.587244L761.178695,715.182211L760.869701,716.713697L759.890502,718.134091L759.705661,718.609952L757.922204,725.275738L757.557929,731.758768L758.843589,738.146578L761.918391,744.566129L765.406214,749.628768L766.566182,752.247374L769.991854,757.238598L768.495997,761.190314L767.131842,766.657650L767.314003,771.823449L770.159735,775.584723L768.678310,776.838481L767.507544,778.822276L766.712455,781.139348L766.030276,785.241836L765.053028,786.979640L762.617723,790.169583L763.116803,792.296212L761.953223,795.573442L758.857402,800.747181L756.055800,803.127736L754.761839,804.603680L754.206566,806.516060L754.111715,808.610948L753.745740,810.420171L752.898708,811.983402L751.402211,813.419671L751.888181,813.854623L751.951900,813.911652L753.073670,813.284773L757.031910,808.960097L758.555058,806.428773L761.149473,811.618384L762.679665,813.110199L764.738256,809.761550L765.522631,809.483819L766.210330,808.975967L766.512566,807.309578L767.067566,806.777921L768.313300,806.500189L770.578562,806.428773L772.499409,806.722374L773.476021,807.119134L774.604423,807.904717L775.541318,809.229893L776.462407,812.277004L777.267909,813.332384L779.391067,813.721208L784.008411,812.340486L786.086735,812.610282L788.028282,815.728810L789.818344,825.346257L793.156566,828.829805L793.973686,828.996444L796.997987,828.861546L797.753394,829.488426L797.817079,832.146714L798.861025,833.098937L801.496149,834.622494L801.968472,836.661838L800.676959,841.954610Z "/></g></svg>