<?xml version="1.0" encoding="utf-8"?><!DOCTYPE svg  PUBLIC '-//W3C//DTD SVG 1.1//EN'  'http://www.w3.org/Graphics/SVG/1.1/DTD/svg11.dtd'><svg enable_background="new 0 0 1000 1038" height="1038px" pretty_print="False" style="stroke-linejoin: round; stroke:#000; fill: none;" version="1.1" viewBox="0 0 1000 1038" width="1000px" xmlns="http://www.w3.org/2000/svg" xmlns:xlink="http://www.w3.org/1999/xlink"><defs><style type="text/css"><![CDATA[path { fill-rule: evenodd; }]]></style></defs><metadata><views><view h="1038.8535783" padding="0" w="1000"><proj flip="auto" id="robinson" lon0="10.4729592911"/><bbox h="88.0" w="84.79" x="83.12" y="-63.26"/></view></views></metadata><g class="" fill="#000" id="country"><path d="M3.433255,1036.853578L5.849773,1034.313237L6.464924,1029.489804L4.168522,1025.020090L2.377925,1026.434964L1.651851,1028.428649L1.876948,1030.711741L2.968257,1033.010910L2.115839,1033.412863L1.362493,1034.168534L0.481764,1034.474018L3.433255,1036.853578Z M760.794058,316.799363L749.743865,310.561293L746.712620,309.754734L743.571984,308.437695L739.146122,305.017476L735.097430,300.974471L732.854034,297.840121L732.465585,293.766488L733.014670,289.682644L732.861409,285.986766L730.848938,282.653769L727.405602,285.395090L725.170697,288.827769L726.572783,293.257292L728.071824,296.698011L728.593566,301.151651L727.202186,325.678826L726.821222,326.739982L726.014131,327.728786L725.207791,329.055231L724.829089,331.137348L725.018492,333.299855L725.561793,334.988057L727.231238,338.694064L732.108083,354.836495L732.806956,363.020256L730.960759,369.708753L724.798141,376.622343L723.836340,378.487404L723.469221,379.516403L722.647583,380.481090L721.855043,381.799496L721.211332,386.574696L720.645957,387.901140L719.852401,388.729163L719.116376,389.935022L717.633028,393.858082L716.883138,395.256878L715.522954,396.816455L711.949752,399.517578L711.085664,400.626968L710.067430,402.829669L709.600223,403.569262L699.369051,415.081191L697.589426,420.419124L700.226147,425.885682L707.809095,434.021207L710.906221,434.857269L718.025261,429.390711L721.546582,429.189734L717.659525,431.368318L714.624547,433.603176L711.333092,435.355690L706.676552,436.047049L703.379811,434.736683L701.188950,432.413396L698.915422,431.561256L695.342327,434.696487L692.540526,440.524802L690.505064,446.176258L690.125113,448.282490L689.317837,449.600896L688.509975,450.565582L688.128281,451.626737L687.574991,451.956339L684.557393,456.401936L677.695344,463.460226L672.899150,465.839786L672.222461,469.079525L672.688246,476.644274L671.813056,480.221653L669.945022,484.699406L667.507895,488.517957L664.840371,490.133806L662.854356,491.661227L661.325613,495.246644L658.499048,505.359773L657.025916,508.245793L654.983952,510.569080L652.258932,511.839250L654.521217,515.167418L654.963441,516.726994L654.625100,518.704601L656.871225,520.537505L660.967656,525.714655L662.502758,526.807966L665.143457,526.164842L670.295173,523.383330L675.846471,522.193550L677.890171,521.148473L680.161655,520.553583L683.343863,521.405723L686.143603,523.029611L688.034790,524.934867L689.458051,527.435012L692.196262,536.921093L693.761203,539.252419L698.090250,537.178343L703.839986,535.570533L705.031212,534.155659L706.447888,531.301796L709.822409,526.912473L713.793813,522.949221L717.029770,521.405723L715.951461,522.185511L714.590328,523.913907L713.826148,526.044256L714.538712,528.021863L716.399779,528.552440L723.555163,526.807966L725.671965,527.418934L730.035362,530.216524L731.825545,530.843570L733.970225,531.036507L736.498770,531.567085L738.630032,532.387068L739.682240,533.424106L737.452798,533.592926L734.854559,534.123503L732.583399,535.015838L731.235750,536.245813L730.855155,538.593216L732.196142,543.641741L732.441537,547.026182L732.172906,548.063219L732.172661,548.064114L737.362729,548.741074L740.069461,549.864129L742.957909,552.171498L747.491625,558.031805L750.380242,560.563785L753.466098,562.054386L756.568938,562.585285L759.345781,561.891032L761.399423,559.624502L762.027792,557.031265L762.039140,551.181167L762.955613,548.291851L766.378741,547.789856L771.449199,547.046281L790.495536,547.127957L838.741172,547.297584L842.764705,547.311730L894.997841,547.515922L934.511292,547.654895L947.249000,547.699695L999.518236,547.903887L999.170076,496.141231L998.805714,444.383671L998.503137,402.998515L998.425824,392.631202L998.031015,340.858300L997.917912,324.992573L996.563530,317.422149L944.379034,317.432359L892.176506,317.442568L839.991982,317.442568L837.378445,317.443080L799.046874,317.450579L787.807483,317.452778L764.329857,317.452778L760.794058,316.799363Z M545.829806,0.000000L538.684815,2.267021L532.561480,9.116319L528.017919,17.557355L525.768494,24.511160L524.631304,42.783989L523.616966,45.300221L521.212163,47.945078L518.479667,50.171903L516.312152,51.490312L517.895611,54.263794L518.402989,57.905496L517.447116,61.064854L514.513190,62.407379L508.293203,61.121127L505.354942,60.968385L503.145075,62.407379L499.011372,61.113088L495.770680,64.384993L493.499847,69.361181L492.332708,73.195821L491.277542,81.556461L490.601353,83.373292L490.039745,85.567959L491.182360,88.148503L492.779169,90.737085L493.579907,92.875479L494.986857,98.679691L498.344636,101.638071L502.492136,102.731385L506.239616,102.876088L508.512129,103.438823L512.209838,106.115835L514.085942,107.040329L515.846060,107.080524L519.845849,106.067600L521.107716,105.577217L525.956195,108.624026L528.485546,109.661067L529.591177,109.130488L530.503125,110.408700L534.511116,112.338078L536.189532,113.616291L537.801442,111.397506L543.745689,100.287506L551.551144,90.061803L552.634676,86.830094L552.693352,77.729860L553.294314,74.546386L558.294387,71.169974L558.689831,70.510769L559.169238,69.449611L559.978600,64.803025L562.979330,62.101895L566.438650,51.490312L566.933373,50.831107L572.699986,43.065357L574.471308,37.598783L580.752680,31.255949L582.149465,28.643248L583.246729,25.564280L583.945427,22.115514L584.203059,18.321068L583.494425,14.140746L581.752376,10.764331L577.105483,4.284831L575.685509,4.003463L575.145208,3.673861L574.617378,2.805640L569.771010,4.960114L563.854017,5.136974L558.203042,4.172284L554.267898,2.805640L552.555326,4.236597L550.170825,4.091893L544.745931,2.805640L545.449008,0.747635L545.829806,0.000000Z "/></g></svg>