<?xml version="1.0" encoding="utf-8"?><!DOCTYPE svg  PUBLIC '-//W3C//DTD SVG 1.1//EN'  'http://www.w3.org/Graphics/SVG/1.1/DTD/svg11.dtd'><svg enable_background="new 0 0 1000 539" height="539px" pretty_print="False" style="stroke-linejoin: round; stroke:#000; fill: none;" version="1.1" viewBox="0 0 1000 539" width="1000px" xmlns="http://www.w3.org/2000/svg" xmlns:xlink="http://www.w3.org/1999/xlink"><defs><style type="text/css"><![CDATA[path { fill-rule: evenodd; }]]></style></defs><metadata><views><view h="539.419488188" padding="0" w="1000"><proj flip="auto" id="robinson" lon0="-36.4920919007"/><bbox h="86.22" w="160.13" x="-474.97" y="899.07"/></view></views></metadata><g class="" fill="#000" id="country"><path d="M949.425185,537.231809L949.631118,536.481067L949.574100,535.495656L950.116226,534.658784L949.987824,534.001765L943.003991,534.103448L942.154206,534.338100L941.779180,534.916890L941.780054,536.027473L943.319722,536.958106L944.904050,537.333469L949.425185,537.231809Z M937.666191,537.419488L938.449851,537.341289L937.226568,536.825162L936.692423,535.980549L936.362695,534.979460L935.772156,534.001765L935.495612,533.485514L935.489442,533.070935L935.361633,532.789327L931.920740,532.687634L929.841300,533.477692L930.657843,534.619676L932.952147,535.792851L935.276262,536.629654L936.069679,537.075408L936.871315,537.333469L937.666191,537.419488Z M985.204102,498.100611L986.878589,497.434046L988.407751,496.414534L989.850542,495.112590L984.681473,492.680933L982.160743,492.100412L979.651987,492.492659L977.945351,494.202728L978.598257,496.312579L980.690070,497.967301L983.319053,498.406437L985.204102,498.100611Z M998.928578,442.529871L999.030018,440.514624L998.712529,439.884804L997.440841,438.310138L996.940446,437.514869L997.348292,434.207360L994.775275,432.695116L992.030300,432.230385L984.379460,432.214631L983.210791,432.513951L982.811411,433.214967L982.794311,434.349126L982.460360,435.302068L982.086870,436.042330L981.946442,436.546316L984.471391,439.034504L994.587214,441.435688L998.237418,442.970671L998.504800,443.017898L998.762552,443.128096L999.071356,443.513781L998.928578,442.529871Z M974.519783,374.265503L973.390634,373.719954L972.648178,372.929270L971.662588,371.015652L971.190864,370.398817L969.519501,369.805685L968.209903,370.430451L966.040274,373.119038L967.308958,374.668723L969.160794,376.044338L971.307788,376.929728L973.437678,377.024588L975.954063,376.123392L977.097851,375.498850L978.102289,374.447349L975.686037,374.463161L974.519783,374.265503Z M943.307334,305.667502L941.645674,303.976306L939.751061,302.816985L937.981038,302.610523L936.690054,303.674573L939.505900,305.286402L940.838860,305.818352L941.757321,305.667502L942.398280,306.342345L942.629021,306.104168L942.770412,305.865988L942.951143,305.691320L943.307334,305.667502Z M821.495536,270.141125L821.067417,269.051132L819.407393,268.971568L818.059958,269.942226L818.508514,271.024208L820.277878,271.143540L821.495536,270.141125Z M902.118891,270.021786L903.082425,269.210259L902.756021,268.175906L901.210638,267.205150L899.353232,266.488984L898.116033,266.202509L896.895865,266.377578L895.437626,266.870943L894.267761,267.618921L893.875590,268.541915L894.453637,269.862666L895.427748,270.483225L897.951971,270.944652L902.118891,270.021786Z M860.606931,230.484288L861.376049,229.144668L862.446308,228.658233L862.311844,227.932545L860.469136,227.031375L858.688976,226.736291L857.185951,227.198852L856.203443,228.658233L856.863684,229.088848L858.665884,230.723496L859.829079,231.441100L860.606931,230.484288Z M95.606154,51.889517L92.720570,49.716772L90.965578,48.702743L89.857098,48.863703L89.242332,49.217812L88.458138,49.443150L88.036406,49.958200L88.523059,51.213577L92.016018,52.565434L90.478779,52.565434L90.656132,53.305697L91.638796,53.555128L92.543683,53.611450L94.357248,53.305697L94.679231,53.032125L94.895885,52.726363L95.189203,52.517155L95.767764,52.565434L95.606154,51.889517Z M2.548401,2.968843L5.315073,1.686165L2.469567,1.549019L1.348811,1.936254L0.928644,3.097913L1.764430,3.114047L2.548401,2.968843Z M28.973511,0.000000L27.312931,0.080681L27.542376,1.008490L26.435383,2.113734L25.009099,2.968843L23.423793,3.517384L21.824568,3.719049L20.417099,3.404450L17.500390,2.000792L15.760507,1.686165L14.193724,1.839446L10.477740,3.097913L6.470508,3.138247L5.327203,3.719049L6.169433,3.670650L6.741862,3.840047L7.211937,4.291767L7.774831,5.074186L6.886736,5.324231L6.435664,5.993689L6.289305,6.888952L6.325529,7.832564L7.901145,7.889017L10.361704,5.517811L12.030524,6.114673L14.316996,7.251885L16.679284,7.017996L20.721190,5.751719L21.653851,5.921098L23.526906,6.816365L24.761796,7.098648L29.148410,6.485686L38.460854,6.485686L37.649191,8.582581L35.678780,9.985760L31.226945,11.896824L32.782871,12.477363L35.413762,12.259663L36.741063,12.574118L35.904539,13.759326L34.717105,14.654230L32.207263,15.960233L35.473425,18.209255L36.628942,18.717063L36.367268,19.007233L36.145272,19.579500L35.880771,20.014734L37.482653,19.885777L40.571280,20.119511L46.443680,19.176497L47.764201,18.717063L45.904173,18.233437L45.146671,17.290332L45.608213,16.371364L47.386253,15.960233L54.590270,15.960233L55.567471,16.161769L57.621404,17.112990L58.668854,17.370941L61.206390,16.726059L68.292367,16.709936L70.377180,17.370941L64.479118,19.950255L61.085961,20.804578L57.835085,20.748162L59.441748,22.642051L64.085507,23.915286L65.944774,25.430166L64.764865,25.486569L59.386626,27.347772L59.236627,28.024530L60.456041,29.474645L61.158544,29.087958L61.918173,29.136294L62.654841,29.522980L63.285047,30.215774L64.484621,29.361862L65.861997,28.959061L70.481074,28.556251L72.473117,27.541134L73.842097,27.444453L75.758290,27.815060L77.245575,28.491801L78.114156,28.652926L79.480703,28.242054L80.158922,28.491801L81.200477,29.232967L82.567707,29.990216L83.946914,30.586328L85.020669,30.827989L85.858089,31.190477L85.979334,32.004034L85.847916,32.922267L85.946091,33.598832L86.357597,34.001538L87.225295,34.597529L89.008284,35.539800L92.280097,36.747775L93.345044,36.981309L99.144930,35.982733L102.188467,36.047159L104.431516,37.657734L103.342446,37.520840L102.429210,37.593314L101.800152,38.052305L101.588212,39.058828L103.319780,39.670768L102.900186,40.347102L104.494033,40.419565L106.182348,40.717465L107.810817,41.361559L109.217511,42.440368L109.704893,42.714087L110.035083,42.617480L110.286141,42.665784L110.560164,43.422517L110.556081,43.857223L110.305545,44.581711L110.417662,45.080788L110.358153,45.241778L110.234138,46.352572L110.251000,46.795262L110.609377,47.189651L111.241015,47.221846L111.936631,47.125262L112.495784,47.157456L120.996563,49.958200L122.342531,50.972165L123.504628,52.114825L125.106433,53.305697L126.156058,53.708003L127.304030,53.820647L128.321666,53.595358L129.549970,52.195292L130.297446,51.905611L132.486224,51.889517L133.860142,52.291851L136.126594,53.273513L138.340126,54.593047L139.521672,55.944674L139.470726,56.716991L138.659566,57.923677L138.660826,59.009632L139.287012,59.781831L140.460633,60.312701L141.771814,60.626390L142.786184,60.722908L144.037236,61.462869L151.280146,67.478062L154.757404,71.047727L155.895893,73.089548L156.983707,74.809662L157.040672,76.304596L158.575825,77.775310L159.333823,77.590472L159.783627,79.004842L163.168551,81.391366L165.226042,82.508196L166.836510,82.982227L171.118952,86.412599L174.583140,87.705867L173.734867,88.211907L173.297192,88.380584L172.597510,88.436809L173.403070,89.537189L174.439947,90.219876L175.600767,90.509007L177.848413,90.492945L178.503797,89.994993L178.938765,89.400648L179.348160,89.111502L180.240710,89.248044L181.988736,89.737982L182.961589,89.721918L182.492967,88.862511L182.347843,88.324358L182.330274,87.031129L183.183891,88.099455L184.125429,88.485002L186.353382,88.436809L186.100378,87.987002L185.614539,86.878506L185.348346,86.412599L186.163596,86.862441L186.987072,87.079325L187.819408,87.119489L188.659354,87.031129L188.514622,86.412599L187.502165,85.978813L185.667085,84.621165L184.861089,84.331950L182.823414,84.243578L181.940011,84.066833L181.024579,83.713338L179.911861,82.974192L177.969005,81.294946L176.906247,80.957473L175.770522,80.764629L174.561843,80.234298L173.397067,79.422705L172.394995,78.394103L174.825969,78.586970L177.256645,79.503062L181.605950,81.688658L183.901927,82.476057L186.499585,82.861711L188.694538,82.331435L189.775295,80.338759L192.423874,80.861052L193.951664,80.957473L194.545467,80.660171L194.705223,79.848594L195.389807,79.117344L196.328729,78.586970L197.280262,78.394103L197.108285,77.654764L194.031884,77.092205L189.903499,75.645553L186.059571,73.507533L183.833195,70.919101L185.877283,70.742240L185.118172,68.523300L182.244577,64.100770L182.496832,63.859513L183.731008,61.398526L184.367527,58.406331L184.412105,57.296209L183.502157,57.038781L182.664290,57.376655L180.990933,58.712006L179.960893,59.210729L172.856526,59.500304L171.581120,59.323342L170.646174,58.824622L168.854918,57.328388L167.794665,56.684812L170.490487,53.699957L172.022779,52.678084L173.151903,51.776862L172.208310,51.390611L171.433049,50.658324L170.929626,49.523628L170.435011,48.670551L169.633995,48.396915L167.763813,48.525685L166.208690,47.463304L165.573361,47.157456L164.584485,47.769147L164.146296,47.849631L163.110550,47.624274L162.025833,47.270138L161.219420,46.690627L161.029334,45.821330L160.107325,45.692542L159.258802,45.338371L158.516608,44.710506L157.914826,43.792822L159.192432,43.309814L159.396808,42.279356L159.156032,40.975105L159.066716,39.670768L152.749329,39.896216L151.590962,39.364800L151.787841,37.424209L152.679160,36.755828L152.620752,36.288754L149.981031,34.951893L150.620708,34.339805L150.601084,33.727699L150.231589,32.954485L149.844432,31.875156L149.379859,31.005206L148.651553,30.682993L147.774236,30.682993L146.905475,30.827989L146.012178,29.297415L143.409035,28.217885L138.014250,26.783790L138.347034,27.992304L138.674800,28.773769L139.142281,29.410198L139.879662,30.215774L142.054216,31.810717L142.492392,32.551757L143.399021,34.500883L144.558946,36.224329L145.019101,37.544998L143.840573,38.318032L142.137799,37.995938L140.464758,36.723617L137.777667,33.896836L136.301494,33.453856L134.824376,34.259266L132.412573,36.981309L132.775569,35.974680L132.828946,34.911624L132.436312,33.856565L131.459927,32.922267L131.623307,31.842937L131.275829,31.383800L130.750262,31.093814L130.370005,30.521884L130.462681,29.692153L131.090886,29.490757L131.870482,29.450477L132.402879,29.136294L132.428963,27.589474L131.486944,26.397050L130.268138,25.978073L129.493954,26.783790L128.095051,25.704122L126.210511,26.284249L121.733612,29.748544L120.487692,30.247996L118.996874,30.376885L117.005423,30.215774L117.443699,29.249079L117.118333,28.483744L116.575860,27.895625L116.352863,27.444453L116.655126,26.864360L117.040213,26.622649L117.530771,26.453450L123.213228,22.779048L124.153544,22.102110L126.308125,21.336496L127.584013,21.376792L128.925367,22.102110L129.137818,21.417088L129.174916,21.062479L128.971988,20.707864L128.437237,20.014734L127.419786,20.836816L126.406586,20.272646L125.477843,19.273218L124.690671,18.717063L120.346603,19.402179L116.062878,20.772340L113.598050,20.981885L111.383954,20.014734L112.221627,19.627860L114.150320,19.676219L114.995664,19.402179L115.206256,18.765425L114.246054,18.402708L111.967834,17.983559L112.970821,17.048502L114.243611,16.629324L115.664684,16.734120L117.122022,17.370941L117.156712,16.548712L117.254342,16.129524L117.694246,15.283058L117.535602,14.605858L116.661906,14.194690L115.742445,14.033445L114.204747,13.985071L114.614246,13.251389L106.685157,12.041961L104.860133,12.574118L104.628771,13.444890L104.912213,15.911865L104.804976,16.637386L104.000691,16.951770L103.153242,16.734120L102.625975,16.145647L102.798794,15.283058L102.318138,14.194690L102.973962,12.953070L102.576901,11.896824L101.965584,11.501725L99.609297,10.542166L95.403369,9.622879L93.552651,9.469660L91.976692,9.864801L92.452985,10.155103L93.398059,10.905030L93.889493,11.219507L88.365147,14.323685L86.734994,14.605858L85.483995,13.686764L86.566539,12.291915L89.327571,9.864801L88.321908,8.163220L86.151437,7.889017L83.798552,8.461612L82.218805,9.187412L80.820930,10.759885L79.747668,12.525741L78.453378,13.823825L76.415426,13.985071L76.703608,13.162700L76.845835,12.324167L76.714980,11.453345L76.176314,10.542166L77.826589,9.663199L78.394234,8.897095L78.186246,7.832564L77.375959,7.695460L76.150503,7.727720L75.560323,7.292211L76.634008,5.751719L75.566017,5.888836L73.953181,5.848507L72.820975,6.114673L73.187229,7.098648L72.146736,7.590616L70.759938,7.582551L69.675625,7.929342L69.571464,9.526109L68.833989,9.429339L63.638106,7.098648L59.129150,7.098648L58.482580,7.211560L57.280895,7.727720L56.629296,7.832564L54.774572,7.824499L53.361050,7.598681L51.937159,6.985735L50.004189,5.751719L51.597993,5.751719L51.819087,4.453093L51.112452,3.719049L55.400645,1.686165L55.239183,1.008490L52.233619,1.339263L47.072417,2.775237L31.805846,3.097913L31.774957,2.113734L31.865119,1.540951L32.192022,1.242452L32.850799,1.008490L31.245340,0.435674L28.973511,0.000000Z "/></g></svg>