<?xml version="1.0" encoding="utf-8"?><!DOCTYPE svg  PUBLIC '-//W3C//DTD SVG 1.1//EN'  'http://www.w3.org/Graphics/SVG/1.1/DTD/svg11.dtd'><svg enable_background="new 0 0 1000 446" height="446px" pretty_print="False" style="stroke-linejoin: round; stroke:#000; fill: none;" version="1.1" viewBox="0 0 1000 446" width="1000px" xmlns="http://www.w3.org/2000/svg" xmlns:xlink="http://www.w3.org/1999/xlink"><defs><style type="text/css"><![CDATA[path { fill-rule: evenodd; }]]></style></defs><metadata><views><view h="446.527041314" padding="0" w="1000"><proj flip="auto" id="robinson" lon0="-36.4673322697"/><bbox h="70.87" w="159.06" x="-474.08" y="899.26"/></view></views></metadata><g class="" fill="#000" id="country"><path d="M998.877734,444.527041L997.527361,438.965431L995.774185,435.713083L993.608720,433.810803L986.263058,433.905923L983.094768,437.035028L986.227119,439.421845L998.877734,444.527041Z M50.240565,0.000000L38.453022,0.964467L6.448968,1.149561L1.122266,2.386724L9.811468,4.471215L33.116279,5.786082L28.461364,9.243272L29.599407,15.026608L35.181030,18.287500L45.312628,17.129216L74.586117,28.650621L81.413227,32.638727L88.045824,35.566069L97.431027,35.420198L100.732250,38.065151L103.806829,41.876376L112.208544,48.077781L121.228149,51.012571L131.055774,52.518670L134.286242,54.831041L137.185561,58.435089L150.519649,70.670444L157.184429,79.230802L168.845726,86.487794L172.131879,87.865168L182.760825,84.634983L187.380926,80.472823L192.025101,77.600535L181.888256,72.369214L179.547567,65.078058L179.676258,56.851719L174.584258,58.172821L169.244877,58.133966L165.812198,56.783718L160.181324,47.251686L154.073697,39.679178L148.652034,37.510907L143.114763,30.362687L139.027144,26.627078L135.037365,29.389940L133.975071,31.821717L130.824371,32.327489L122.204778,26.315746L114.232638,27.736161L115.700968,20.516276L106.216371,12.368823L101.810806,12.329878L98.137871,11.706754L94.332971,10.070959L87.988736,9.681463L82.738447,12.982190L73.986807,8.133143L63.741978,7.626747L51.891404,2.503617L50.240565,0.000000Z "/></g></svg>