<?xml version="1.0" encoding="utf-8"?><!DOCTYPE svg  PUBLIC '-//W3C//DTD SVG 1.1//EN'  'http://www.w3.org/Graphics/SVG/1.1/DTD/svg11.dtd'><svg enable_background="new 0 0 1000 1121" height="1121px" pretty_print="False" style="stroke-linejoin: round; stroke:#000; fill: none;" version="1.1" viewBox="0 0 1000 1121" width="1000px" xmlns="http://www.w3.org/2000/svg" xmlns:xlink="http://www.w3.org/1999/xlink"><defs><style type="text/css"><![CDATA[path { fill-rule: evenodd; }]]></style></defs><metadata><views><view h="1121.38588009" padding="0" w="1000"><proj flip="auto" id="robinson" lon0="-90.2860820862"/><bbox h="68.54" w="61.17" x="-1353.57" y="-298.75"/></view></views></metadata><g class="" fill="black" id="country"><path d="M494.143459,1119.385880L490.803648,1100.937470L491.108944,1096.627989L492.135109,1092.176980L493.831954,1087.846266L496.118849,1083.890596L499.306877,1080.614253L506.267994,1076.715190L509.467466,1074.089867L512.068352,1070.233260L514.043802,1066.249276L516.458243,1062.406818L520.350462,1058.918176L545.156239,1040.979598L550.820140,1035.311424L553.562614,1033.450337L564.619719,1028.956837L568.184140,1028.687935L572.409399,1029.947530L578.117437,1035.339729L581.480857,1036.924837L585.193976,1034.830230L585.436703,1033.308810L585.301625,1032.844837L584.145290,1028.871921L584.117208,1026.770236L585.019537,1024.534099L597.260924,1004.408840L602.642189,998.577883L609.202463,993.419181L615.828571,990.213567L642.257709,983.363596L643.969846,981.665255L644.360117,977.391095L643.703921,976.273020L640.831144,974.588830L639.899883,973.435373L639.632683,971.652112L639.618816,967.469941L639.437774,966.189107L638.340038,963.245309L637.750953,962.205072L636.510214,960.747326L634.939079,959.926459L630.002314,959.190509L628.912964,955.312618L630.563459,953.012773L633.159577,951.102132L634.947337,948.427234L634.576481,945.235754L633.098157,942.525471L632.383497,939.433059L634.384424,935.095187L638.068448,932.299983L641.559274,932.625501L643.879348,935.576387L644.058496,940.650210L647.580853,938.038996L654.313693,930.099202L656.043230,929.319664L658.772608,928.089484L662.519019,928.641449L665.064331,930.226579L667.657898,931.337584L671.517869,930.467179L677.602708,924.218654L680.149969,923.164259L679.927756,928.457461L681.379876,926.355749L681.703271,925.733019L688.081365,931.351737L688.425796,922.838741L689.300812,918.500861L691.219364,914.927237L693.853513,913.143963L699.332899,911.636672L701.545951,909.308507L704.416663,904.546029L708.164823,900.533656L716.406435,893.343931L718.887003,890.350569L720.270563,888.213463L722.224379,886.854773L726.365136,886.267423L729.245885,886.854773L735.027460,889.161716L737.819919,888.921115L740.943076,885.941903L742.523833,881.405858L743.148127,876.544290L743.570031,862.745060L744.602411,861.025461L747.464331,857.961320L748.293335,855.817128L748.343988,851.153685L748.006762,850.453826L747.157455,848.691046L745.188968,846.546851L742.972490,842.803354L739.717607,830.695357L737.897076,826.562639L733.746619,820.101725L732.031711,816.570511L731.294104,812.756231L732.072099,807.604473L734.285672,804.398776L740.829075,798.702113L743.512068,795.074865L745.660693,792.170406L749.449844,784.393207L750.229443,777.175052L746.078931,772.334638L751.215192,759.703876L754.609157,754.764370L758.253935,751.740766L759.940793,750.341456L767.734520,746.215759L793.020757,737.193000L801.838717,732.812535L834.912149,706.819836L857.455926,689.109508L880.157109,671.280545L902.895797,653.411775L925.781443,635.443901L925.783003,635.429747L934.330649,628.641401L952.286549,614.383452L964.737342,602.303401L973.511634,588.510760L975.083415,586.500954L980.140897,586.387726L984.118201,584.816680L987.875843,582.665338L992.215716,580.726299L993.465963,582.764413L995.468315,579.112792L995.602315,576.140542L996.625481,573.677821L999.553725,572.519663L999.550437,572.518006L999.411880,572.451139L991.532005,568.483680L982.138615,558.230692L979.739326,556.971357L972.560148,548.880410L949.349675,536.075309L938.147462,524.473818L933.488607,521.275327L927.461359,513.173226L924.906908,511.334373L918.497248,508.057869L915.117430,505.695220L911.160978,510.175337L913.636350,514.243105L923.202676,520.662376L924.575547,522.969301L925.817299,526.089780L927.355428,528.831343L931.521520,531.060256L934.304258,533.645795L939.187116,539.351811L935.623721,540.822893L928.833013,539.329522L925.746562,541.402410L924.257294,541.402410L924.269276,540.521990L924.681002,537.657837L922.909490,537.657837L922.660116,541.926204L923.757213,548.412338L922.989854,552.624981L921.336169,555.032205L918.814035,557.372561L916.362740,560.381591L914.942617,564.783689L913.715452,567.213201L911.518899,567.614405L909.330606,567.335791L908.086834,567.748139L907.825947,569.809881L908.452332,571.080359L909.151497,572.049935L909.092045,573.186679L909.624181,573.476437L909.666716,575.527034L908.644921,577.867388L905.921827,578.970698L899.467045,578.970698L899.176731,577.131848L903.513741,564.783689L881.285134,547.999989L875.965751,547.008124L875.711904,541.257531L868.164209,535.975008L857.871818,533.356036L849.339965,535.629527L842.108934,528.095801L838.961007,526.424117L829.447202,530.339538L808.980821,524.295952L801.304498,524.352566L794.334171,525.640544L776.136199,524.692253L771.524426,526.702064L769.338898,526.843600L766.420994,527.876813L764.014907,529.136483L763.376894,530.014006L761.808601,526.433146L762.320103,522.988041L764.293492,509.717743L777.748500,446.398077L788.060010,389.841800L793.508224,361.563716L807.091629,284.564036L819.736052,213.556164L828.960262,135.565215L837.098815,59.643178L843.514949,0.467040L791.101595,0.410429L738.675953,0.353818L686.252146,0.283054L633.849423,0.240596L581.417725,0.183985L529.006361,0.113222L476.599385,0.056611L424.167798,0.000000L413.889536,0.000000L408.779089,1.500188L406.554090,3.849538L396.779721,79.171025L387.111068,154.493758L282.478257,153.658720L280.644888,154.012550L279.089191,158.315121L284.286010,161.117455L291.450060,162.801687L294.849221,164.995435L295.950701,171.520072L300.693544,172.454185L307.226507,171.321927L313.704348,171.704064L315.997263,174.166727L317.524870,178.497620L318.260929,183.437105L318.208693,187.683085L318.926004,189.438091L323.623570,190.839265L325.640376,192.268746L326.412471,194.179439L327.025528,199.034018L327.703969,201.793911L329.425512,205.586997L336.636014,215.819848L338.879763,216.923808L344.716586,216.230294L347.180872,216.753968L348.240006,218.452368L348.808877,223.689104L349.434683,226.095174L356.467328,237.318790L357.452160,240.220233L357.809218,245.895740L360.314465,248.683958L369.000465,252.293074L370.228602,253.538574L372.782993,257.133539L373.947414,257.897823L376.436013,256.737244L376.499050,254.232090L375.932788,251.726938L376.482007,250.580513L380.639524,250.594667L383.820751,251.217416L384.134648,253.368733L379.723732,257.897823L384.346061,260.544512L390.336136,268.314740L394.393785,271.145426L410.154413,276.778494L412.965337,276.806801L415.455481,274.726246L418.461847,276.778494L418.233917,278.632596L417.020948,281.873735L420.153448,285.114876L428.126678,289.856285L431.210368,292.899280L444.214295,318.644468L446.287873,328.495310L442.360481,334.906854L442.154350,336.605276L444.202820,336.208978L445.504927,335.756065L446.417472,334.850239L447.330580,333.024436L450.315243,335.189924L449.063512,339.096296L446.946722,343.724500L447.262391,348.154557L444.793792,352.329850L446.745237,353.348905L450.382158,353.603669L452.910297,355.471937L452.699158,358.345106L450.794875,360.411524L448.433320,362.378867L446.870147,364.997274L449.934441,364.063140L453.756500,364.218829L457.023556,364.983121L458.327408,365.846487L459.695388,365.152963L466.142407,363.100698L468.456302,363.114852L468.863776,368.960269L470.045009,371.408835L476.143397,368.351667L478.710577,369.186726L480.776427,370.955921L482.008486,372.470352L482.891957,375.499214L482.288692,377.848705L482.719356,379.405597L490.112075,380.481268L492.419496,381.684321L494.037491,382.972296L495.360724,383.679974L498.122708,383.255367L500.368150,382.193849L501.682683,382.561842L501.693111,386.496534L501.312281,390.091541L501.439341,391.662588L503.581503,396.786182L500.066711,395.653896L496.842378,395.399132L494.406625,396.814489L493.325810,400.692570L494.950158,400.692570L495.193527,398.654455L496.824031,398.654455L498.410595,402.178696L496.477390,406.580460L492.497443,410.331160L487.906385,411.902208L486.111139,412.921266L488.306005,414.874461L491.613381,416.303974L493.167090,415.652908L492.811285,418.540241L491.254236,419.219613L489.339348,418.596855L488.052808,417.521182L487.714817,418.285476L487.632330,418.979002L487.290394,419.361149L486.220099,419.219613L486.948576,420.677433L488.044697,423.720455L488.767212,425.178275L485.727983,424.711207L485.037179,424.286599L484.118810,423.126004L481.027666,426.423791L481.088014,429.141281L483.192990,431.236013L486.255862,432.651373L483.267315,434.151654L480.037828,436.642687L477.902627,440.379237L478.189951,445.573608L484.631031,449.932917L485.880589,452.692870L480.334678,455.084828L480.134348,456.783261L482.819520,460.052743L476.408238,465.388652L476.791743,470.059341L478.571172,470.059341L479.549326,469.096897L480.005601,468.842132L480.632733,468.658135L482.079260,468.021222L481.106997,470.299953L479.037070,474.192194L477.998171,475.552276L477.912702,475.664169L477.899822,475.669140L473.401718,477.405063L468.646725,478.013668L447.184288,478.041975L414.218023,478.112743L381.253401,478.169358L348.274731,478.240125L346.885542,478.241318L315.288697,478.268433L282.309984,478.339201L249.345281,478.395815L216.369882,478.438276L183.378743,478.509044L172.525303,478.537351L168.427792,480.674546L165.070486,484.694170L158.438293,495.068763L153.012753,503.518465L138.728209,525.838695L118.549580,557.372897L95.430686,593.521121L72.368407,629.683419L61.457444,646.792071L52.268382,661.210348L38.069538,683.516211L32.690214,691.972894L30.561110,696.749678L30.070069,701.873217L31.383111,706.310314L57.406264,751.077429L51.324867,763.206820L48.525321,766.370082L45.210095,767.870331L42.078488,768.266624L38.985027,769.214894L35.796107,772.377098L34.000766,781.385643L32.826726,798.433202L29.214155,806.642057L23.535317,813.095908L22.015540,816.372366L21.587642,822.139780L21.859837,824.425514L23.351411,831.176563L23.255116,833.327839L22.513959,837.326098L22.474348,839.300458L25.251589,852.788367L24.921253,857.947167L23.530139,862.150630L17.287487,872.715890L10.297336,888.892808L5.360826,894.688467L0.446275,895.527265L43.593310,933.392488L73.959414,967.404023L105.964027,995.795501L133.935656,1016.537724L153.074251,1029.453520L206.745937,1057.278485L242.101705,1065.214233L271.011830,1068.806975L302.942200,1069.477893L330.494354,1067.553830L333.375226,1066.628709L352.121830,1064.615718L368.556668,1066.404248L382.128144,1068.893928L400.865808,1073.979083L423.656298,1083.869015L459.175751,1102.454504L492.926941,1118.698171L494.143459,1119.385880Z "/></g></svg>