<?xml version="1.0" encoding="utf-8"?><!DOCTYPE svg  PUBLIC '-//W3C//DTD SVG 1.1//EN'  'http://www.w3.org/Graphics/SVG/1.1/DTD/svg11.dtd'><svg enable_background="new 0 0 1000 1124" height="1124px" pretty_print="False" style="stroke-linejoin: round; stroke:#000; fill: none;" version="1.1" viewBox="0 0 1000 1124" width="1000px" xmlns="http://www.w3.org/2000/svg" xmlns:xlink="http://www.w3.org/1999/xlink"><defs><style type="text/css"><![CDATA[path { fill-rule: evenodd; }]]></style></defs><metadata><views><view h="1124.23349882" padding="0" w="1000"><proj flip="auto" id="robinson" lon0="-90.2735584426"/><bbox h="68.42" w="60.91" x="-1353.4" y="-298.76"/></view></views></metadata><g class="" fill="#000" id="country"><path d="M493.298359,1122.233499L491.953599,1109.447807L493.613450,1095.211616L509.099679,1076.153888L537.016576,1050.488341L555.175109,1037.219049L563.322848,1034.613537L574.324016,1035.983445L585.731835,1028.583253L596.690942,1010.895289L607.418479,999.506207L632.895563,987.969373L638.913122,983.402985L638.012277,973.504658L634.668224,954.298913L636.665429,942.466538L645.188357,937.013701L654.840505,935.952681L675.071637,931.184802L683.543346,932.138378L688.190865,935.334871L695.024093,923.032393L709.649923,903.987688L739.485492,882.834306L743.559386,865.683232L739.754784,832.818056L734.741276,811.543578L739.655493,802.047940L752.340381,763.730519L759.966367,754.812332L802.008800,735.458215L806.008867,732.772004L840.456091,705.654658L878.708787,675.542078L918.692811,642.340232L963.353907,605.256670L988.145761,583.565227L999.554857,574.176786L918.586697,513.306299L916.893936,519.618997L922.417906,526.845022L929.305546,541.001579L910.521746,564.506285L886.542827,552.847953L866.737072,537.455725L856.933931,535.669366L844.625727,529.719314L834.243529,529.934214L792.203230,526.952472L763.180672,530.256564L762.235871,528.671675L772.487046,460.346775L788.572226,354.629387L800.551896,277.104662L812.388392,201.272916L821.345383,144.460110L833.614067,67.152687L844.300296,0.429774L793.992985,0.389482L708.431748,0.295469L599.517198,0.188026L494.520643,0.080583L406.595592,0.000000L399.386210,53.816077L393.032669,101.481544L385.922678,155.124220L337.425081,154.667570L286.156906,154.184059L289.624936,159.529552L305.889703,169.602731L325.644540,193.684413L347.899930,231.116632L376.832697,260.920177L412.435162,283.121806L435.041424,304.853399L444.625797,326.088084L448.569644,344.179905L446.829994,359.142277L459.399479,370.948324L483.592645,378.725008L494.979185,392.075662L493.674122,402.995268L482.768404,427.735648L477.209921,454.974265L477.356228,479.634088L459.341607,480.050458L415.806250,480.090751L349.423501,480.157908L288.367946,480.198202L240.280844,480.251927L167.598969,480.332514L143.203922,518.235576L102.711666,581.268484L66.095044,638.391463L35.370383,686.434731L29.834072,699.059985L28.654379,709.321347L54.786113,754.288522L47.587710,767.343456L35.889154,774.166394L31.286477,784.722059L30.103774,801.846477L20.230935,824.665534L20.918666,840.352751L22.821391,859.693105L14.495713,876.454702L7.478568,892.705892L0.445143,899.743586L91.516089,986.988943L131.247087,1018.147762L191.276620,1052.462617L245.222739,1070.231076L375.172945,1069.290947L405.206466,1077.013434L493.298359,1122.233499Z "/></g></svg>