<?xml version="1.0" encoding="utf-8"?><!DOCTYPE svg  PUBLIC '-//W3C//DTD SVG 1.1//EN'  'http://www.w3.org/Graphics/SVG/1.1/DTD/svg11.dtd'><svg enable_background="new 0 0 1000 651" height="651px" pretty_print="False" style="stroke-linejoin: round; stroke:#000; fill: none;" version="1.1" viewBox="0 0 1000 651" width="1000px" xmlns="http://www.w3.org/2000/svg" xmlns:xlink="http://www.w3.org/1999/xlink"><defs><style type="text/css"><![CDATA[path { fill-rule: evenodd; }]]></style></defs><metadata><views><view h="651.462762555" padding="0" w="1000"><proj flip="auto" id="robinson" lon0="-14.3552901186"/><bbox h="29.37" w="45.16" x="-246.11" y="-212.61"/></view></views></metadata><g class="" fill="black" id="country"><path d="M263.545026,569.887088L260.376297,560.971595L255.489719,553.730585L249.239952,548.390341L245.677653,553.217681L245.123728,558.014850L246.762419,566.357096L246.978608,572.059391L246.562300,576.494510L245.007398,580.854200L242.045991,586.360385L244.089647,589.166275L246.429066,591.655372L246.959327,585.591027L250.285630,583.569579L253.938157,584.957439L255.367723,589.121019L253.409177,590.931271L244.202245,595.728440L240.809849,596.724079L238.340763,597.040873L237.306667,598.081768L237.148401,600.042875L237.188735,603.029791L238.146090,604.809872L240.235041,604.176284L242.282833,602.637569L243.049292,601.792785L251.616170,603.376756L255.032756,603.572867L257.640248,601.792785L260.939577,602.848766L265.383884,602.486715L269.310401,600.163558L271.043182,595.336219L270.037639,592.168277L267.779746,589.513240L265.533374,585.983249L263.545026,569.887088Z M240.120345,563.596462L239.877821,553.911611L239.228475,548.933416L237.944387,545.855987L220.490685,552.010846L215.756980,556.219683L213.042994,561.997405L213.247353,567.548846L216.829702,571.199521L224.277406,571.169350L220.826334,577.595746L221.120824,582.377829L222.955425,586.948717L223.991364,592.801865L225.577012,597.176642L229.388854,594.521605L236.417363,585.093208L239.684052,579.556853L240.665324,574.488146L240.120345,563.596462Z M210.213782,558.527755L212.287049,556.083914L213.269312,553.971953L211.186879,551.150976L205.767744,546.172781L199.271424,545.448680L194.288739,549.431236L193.305500,558.527755L188.325439,555.389984L186.681740,553.459048L184.680009,557.471774L181.680726,558.799292L178.908006,561.016852L176.168717,573.598106L172.977117,576.419082L169.254689,578.304762L166.309187,581.548130L165.321221,580.115014L164.752680,579.028863L164.423687,577.867284L164.153971,576.238057L166.173871,575.815665L170.654674,573.703704L165.796315,572.346014L160.240294,574.593744L154.854877,578.938350L150.535533,583.826031L154.749647,592.741524L161.662734,602.034152L169.615229,607.947643L177.104119,606.861491L178.580165,609.486357L179.640062,610.512167L183.716819,611.900027L181.742539,606.861491L186.073797,599.032150L188.127913,599.032150L186.941649,602.547057L186.542900,605.639571L186.900383,608.671744L187.957714,611.900027L194.647830,609.079051L200.406789,609.531614L206.175495,609.244990L212.919971,604.296968L210.816801,600.978172L212.506435,595.456902L213.881189,588.698627L210.782161,581.548130L210.818976,578.772410L215.457067,578.772410L210.865955,571.244777L209.480568,567.805298L208.997378,562.299114L210.213782,558.527755Z M281.773910,548.118803L284.752788,543.291463L285.287757,527.904316L288.955449,514.131309L287.270603,510.314693L278.829348,510.420291L271.008834,518.611685L265.737021,530.423584L265.719194,541.737663L273.687422,548.390341L281.773910,548.118803Z M342.417586,517.118226L343.512761,510.420291L338.476099,509.560420L330.146253,509.258712L322.295806,511.777980L318.726490,519.184932L317.901119,520.482279L315.994756,520.361596L313.814538,519.909033L312.258737,520.331425L311.919998,521.900311L312.484543,526.305259L312.158687,527.904316L305.175614,535.959940L305.144990,538.283098L310.205516,540.379973L308.857807,543.110438L305.083268,545.991756L302.785875,548.390341L303.355325,553.459048L305.476044,558.467413L308.538447,560.383263L311.786444,556.219683L313.787334,556.219683L314.973995,556.672246L315.517284,556.672246L316.275942,556.415793L318.239645,556.219683L318.922419,557.713141L319.946186,559.478137L320.588055,561.062108L322.046801,555.902888L322.838112,550.110081L322.577392,544.724579L320.853481,540.787280L324.875292,539.248565L325.750795,540.183863L327.527736,543.110438L330.023156,540.757109L331.805619,538.207670L334.335651,533.214390L334.368917,530.680036L331.930906,530.680036L331.967384,527.904316L336.637885,528.417221L339.595762,533.229476L341.528563,537.408142L343.177300,535.959940L343.900257,529.322347L342.417586,517.118226Z M165.081456,507.659655L162.619145,510.420291L157.631347,509.892300L151.275565,513.482635L146.690749,519.335786L147.055413,525.626414L143.783391,526.546626L141.549755,529.050809L140.281206,532.686400L139.836571,537.121519L141.332416,537.227117L149.987229,541.933773L154.188810,542.823814L175.562808,540.787280L174.217184,535.447035L175.721847,531.962299L178.932487,529.699483L182.799278,527.904316L183.128756,525.098424L182.823581,520.240912L181.948364,515.413572L180.567151,512.728363L175.890396,511.732724L171.641133,512.426654L167.963546,512.004262L165.081456,507.659655Z M342.233661,439.322584L343.966186,436.577031L343.914160,435.521050L342.304915,434.027590L337.287395,437.738611L335.583713,439.322584L333.183484,436.561946L332.128542,440.137198L330.706569,443.425827L328.811367,446.442917L326.336536,449.218640L324.642917,449.067785L321.925157,448.238086L319.257588,448.600136L317.609355,451.964192L319.279150,455.856238L323.880115,458.511277L329.152651,458.511277L332.942270,454.498547L335.379798,454.498547L335.771864,455.886409L337.315097,459.356062L344.555993,452.839148L346.198927,449.852229L344.357053,446.925651L346.019236,444.481808L346.391887,443.365485L346.653622,441.630658L344.557963,441.826769L343.480425,441.178094L342.897896,440.167369L342.233661,439.322584Z M166.113824,455.705383L166.937924,453.593420L168.073279,451.964192L170.004935,450.229365L179.821691,438.719166L181.022962,435.204255L179.484930,431.493234L173.777507,430.407081L164.674141,431.568661L156.277390,434.299128L152.530801,437.934722L150.066409,443.667194L144.640143,448.057060L138.670470,451.511628L134.694371,454.498547L139.319442,456.278630L143.205397,456.912219L150.042374,456.821706L160.550617,459.476745L163.321038,459.356062L165.091436,457.787175L166.113824,455.705383Z M154.719319,408.412486L154.152416,407.281077L152.975580,406.194924L151.089243,407.522444L148.891794,408.367230L146.462285,408.759451L144.038722,408.729281L143.422055,407.371589L143.454926,406.919026L143.166496,406.707829L141.650467,406.194924L132.656808,417.448675L120.285642,419.274015L106.849508,419.590810L94.672169,426.424521L96.069679,426.892171L99.285858,428.958878L97.629464,430.874730L97.177411,431.930712L99.178553,436.561946L97.725416,439.096302L96.682941,441.630658L100.238443,441.253522L102.872726,439.503609L105.854946,436.561946L122.900417,436.788228L123.645415,436.561946L124.929423,437.572671L129.092355,443.003434L131.018991,444.481808L132.288433,443.697365L133.368871,442.218990L134.874010,441.630658L138.197817,439.820404L141.536254,439.805318L143.562010,438.930362L144.239146,436.923997L144.587653,434.736606L145.917958,431.493234L151.382558,423.422516L153.949833,417.931410L155.103539,411.233467L154.719319,408.412486Z M256.186701,408.095691L253.802580,404.248899L253.486549,398.365570L249.376609,397.686724L241.879148,406.330693L236.574127,408.729281L233.208694,411.670945L229.840732,418.625341L227.213720,426.605547L226.148608,432.760412L224.798071,432.715156L217.310022,441.630658L205.905755,449.218640L207.281460,453.216284L218.367197,462.086528L221.414211,466.928956L224.476053,465.842804L227.762204,463.851525L230.704247,460.864606L232.667145,456.821706L233.694734,458.209568L236.031659,460.728837L237.046250,462.101613L237.705597,460.381872L238.684332,458.556533L239.145181,456.821706L241.556229,456.821706L244.088687,464.439858L251.269768,462.433493L259.781532,457.063073L266.254670,454.498547L262.846783,446.955822L261.460553,437.874380L262.577474,428.853279L266.706932,421.370894L263.082658,418.097350L264.265401,408.186204L260.304202,403.434285L258.938503,408.337059L256.186701,408.095691Z M405.349756,388.228139L401.966357,388.665618L397.749980,390.958608L392.813624,392.618009L387.338839,390.988779L384.286333,395.363563L380.210651,398.999159L376.897081,403.087319L376.185231,408.729281L368.558479,408.518084L364.403634,413.104063L361.348027,418.685683L357.020067,421.370894L352.970012,423.090636L353.798142,426.515034L356.547227,428.943792L358.127155,427.691699L359.707001,428.415801L363.387183,429.577381L367.791409,430.090287L371.489128,428.958878L374.529626,433.378915L379.157787,430.029945L380.480539,424.237130L373.591163,421.370894L373.625213,418.836537L380.891501,419.274015L382.526653,418.836537L388.973037,412.259278L389.476908,411.233467L392.490008,410.765817L395.280035,413.104063L399.364157,413.767824L405.616749,412.742013L405.334986,410.041715L402.325534,406.285436L400.513162,402.167106L401.502175,397.566040L405.135835,393.296855L405.349756,388.228139Z M239.993396,293.627108L239.373734,292.510781L237.036162,289.297571L232.301946,288.860091L228.021470,289.101459L223.331797,289.252314L222.687766,289.840649L222.644365,290.097102L223.867888,291.575480L214.084298,296.976087L209.210306,298.891945L204.869594,299.631134L193.351269,297.639849L187.064862,297.398481L181.351918,299.631134L182.728167,303.372336L183.294136,308.214777L183.278669,318.518165L184.509905,323.164494L187.676092,324.009281L191.648937,324.009281L195.406234,326.121249L203.316497,339.788693L207.394120,342.685105L210.341013,342.202370L214.005399,340.618395L217.827403,340.060232L221.127617,342.685105L225.108232,337.465530L227.112628,331.521851L230.177258,317.130300L232.793594,311.940893L236.097198,307.777298L238.717576,303.236566L239.993396,293.627108Z M528.437788,649.462763L536.766121,644.725936L549.532699,634.694120L558.910290,624.043277L558.910993,623.985802L570.013287,609.377443L602.084710,541.575497L608.925712,512.454565L613.996521,498.516748L646.968142,445.418919L652.897525,438.167417L660.866112,433.291573L674.361849,431.682257L701.378125,435.188267L714.862148,432.486915L743.950453,414.808043L774.470161,396.258133L778.662731,392.560536L780.886934,388.882096L784.765979,379.973375L787.354281,376.773898L790.862484,374.666459L792.558264,374.915520L794.411024,376.065032L821.635934,378.057521L829.152010,376.927167L832.440593,377.597716L835.263798,379.858424L838.030449,382.617253L841.116615,384.705534L846.423303,386.104108L850.950793,385.893364L860.747395,383.977510L865.896060,383.862559L880.086950,386.429803L886.198187,383.939193L900.343617,374.359922L902.952676,372.137531L909.960887,376.084191L916.505784,375.950081L922.161297,372.175848L926.443392,365.144662L927.411822,361.581172L928.213175,353.093934L926.792632,348.898211L927.792251,346.924880L932.677125,347.020673L935.500239,349.300541L936.486490,356.714900L939.204865,358.630755L943.879515,360.125122L944.052567,362.500782L943.312710,365.259613L945.205488,367.999285L951.727715,369.033847L960.108247,367.309577L968.039429,363.784405L973.246708,359.473731L974.988031,354.549984L976.870939,338.610067L977.018755,331.962048L972.582211,288.280509L973.848029,272.877008L976.875170,257.875831L976.524821,250.863785L973.027524,244.752191L969.955066,243.027917L958.520995,241.016264L953.264913,238.449011L949.443183,235.479427L942.433261,226.647307L940.670858,223.064647L939.882709,220.229172L938.388625,218.045090L929.546806,214.558221L926.309377,211.971808L920.041338,205.093862L913.883400,200.821488L907.323657,198.407501L898.816864,197.066397L896.337634,195.706135L897.743316,191.625346L897.878726,183.693670L898.751499,179.881101L905.962238,170.838222L925.864468,160.530868L933.824852,153.288896L940.047391,149.150626L948.979095,146.755793L954.469728,148.556707L950.176554,156.948200L972.210689,156.641661L981.699720,152.714136L987.282936,143.288074L988.710219,133.517153L991.407388,126.332650L991.781865,122.021947L990.902134,111.312243L991.290888,106.560887L992.019651,103.476338L997.939171,88.206853L999.231316,81.846162L998.439287,75.504628L994.864576,67.975251L978.778850,44.965614L975.802117,34.888113L975.364575,26.630690L978.299598,2.241577L863.046718,1.705132L778.396025,1.311210L747.769002,1.168686L632.533934,0.613081L606.382834,0.491369L517.273763,0.076636L501.379353,0.000000L492.030670,1.571020L483.532473,5.862587L464.422281,21.036332L444.494726,31.171315L427.022677,45.346512L426.075267,46.115138L343.343968,89.030678L332.094641,91.655420L276.062687,87.959620L272.839879,87.747045L246.993118,89.797026L240.760155,88.513393L220.538666,80.907385L209.009821,79.757862L184.365389,84.528382L182.147285,85.601269L180.716768,86.827427L179.176786,87.517140L176.512342,86.999855L169.534435,83.896144L166.066241,83.187272L162.642086,83.991938L139.978881,97.594618L113.685311,113.304746L103.766655,117.787879L87.375838,117.941148L70.325980,122.673342L64.321055,122.941564L20.282613,119.646271L8.281307,122.864929L0.768684,128.612226L0.772813,128.621582L3.117396,131.895151L6.990379,130.522364L10.386081,128.350042L14.092831,126.600115L18.937028,126.600115L22.544416,128.681924L34.491387,139.241822L36.198890,141.806368L39.127309,147.599224L41.005900,149.379320L43.465309,149.545261L48.394813,147.463454L49.936029,147.086315L52.962984,149.077609L59.732659,155.594570L61.975086,156.967356L62.138291,159.275446L69.769957,169.201739L71.765815,171.132690L72.297418,175.341557L74.094921,179.007345L77.127545,181.541716L83.382498,182.839072L85.196040,183.714034L86.554032,184.951048L87.087648,186.429431L87.948573,188.149183L89.945180,186.550116L91.904798,183.895061L92.706811,182.507191L97.643531,182.567533L101.689207,182.024453L104.290561,179.821964L105.026763,174.904076L108.680804,178.373752L109.596530,179.972819L111.858674,177.438448L118.085703,180.591327L123.037320,178.781061L126.308194,173.425692L128.484521,159.909039L132.764959,152.577459L134.515900,147.086315L134.644545,154.327383L132.096407,162.654610L131.516119,169.533621L137.575308,172.399875L148.800122,158.340141L152.064589,155.157089L163.397477,147.086315L170.212385,144.567026L186.988382,140.659865L193.656516,135.560944L198.266981,129.104320L202.802478,124.110996L208.627189,121.395592L217.277646,121.757646L214.013914,123.160604L206.837318,125.121729L203.876813,126.600115L200.935131,129.466374L197.187316,135.772142L194.620391,139.241822L189.199649,144.129545L165.097880,159.878868L159.018848,162.745123L153.415243,166.561768L149.674146,172.399875L149.480680,176.472973L152.284219,181.964111L151.920491,185.041562L149.024538,188.375466L146.573127,187.651360L145.046817,184.377798L144.940718,179.972819L140.713428,182.039539L136.675621,184.709680L132.863173,188.239696L129.378159,192.886042L120.200032,214.398011L120.825446,219.512004L123.888626,228.970627L124.859016,240.314936L126.012224,245.594866L127.970226,250.180861L130.699729,253.635443L134.407943,255.370277L143.097913,256.878828L146.192978,258.900286L152.627089,275.252972L156.417818,279.537254L165.412125,283.851707L175.801390,286.039104L183.775711,284.002562L188.794510,290.398812L191.615769,293.099116L194.749047,294.366297L198.445229,293.325398L201.210788,290.700522L203.315562,287.985133L205.054549,286.763208L207.660298,286.039104L214.196988,282.675038L217.365779,281.468198L241.470515,281.075975L245.963046,278.964005L250.786369,274.091388L253.635692,269.294199L254.310747,264.693120L253.310180,259.684732L253.255457,257.964984L255.058789,259.624390L257.644207,261.223454L257.601394,259.594219L258.017481,259.201996L258.784778,259.247253L259.901957,258.900286L258.996790,257.391735L258.522934,256.275407L257.753227,253.635443L264.356193,252.986767L271.853123,250.935137L277.946030,247.073246L280.350746,240.963613L282.561791,240.963613L284.814906,245.413840L288.992739,246.756451L301.320816,245.715550L302.731581,245.202643L304.083780,245.081958L306.930039,246.032346L309.419812,247.842607L311.582888,252.141978L313.494705,253.635443L319.570053,253.771213L324.126549,250.844624L327.246699,247.435298L329.146720,246.032346L331.516763,248.823166L330.221000,253.363904L327.775065,258.719260L326.667969,263.969016L323.855409,262.490636L321.033899,261.645848L314.578506,261.223454L311.421352,259.775245L309.759666,256.516776L308.578139,253.016938L306.861389,250.844624L301.170921,250.648513L293.886221,252.685056L286.956656,255.807757L282.304798,258.900286L279.569977,262.188926L270.945986,276.399470L268.672417,285.420598L267.382136,286.763208L265.189780,287.291200L262.841670,288.528211L260.779926,290.112188L259.434940,291.575480L257.391330,296.538608L252.411531,317.130300L246.569447,330.390440L244.584237,337.812495L245.327975,345.189294L246.578787,348.538270L247.853161,350.212757L249.767883,349.669680L253.096987,346.486645L256.147861,344.253994L263.393174,341.342498L265.396404,340.150745L267.689651,333.392450L267.951650,326.060906L269.334425,320.026713L274.817957,317.130300L272.493188,330.827919L273.751245,335.549674L280.095683,337.375017L283.476845,335.187622L294.341849,312.106833L295.076160,305.092081L296.543031,298.726004L301.821789,294.366297L308.073167,294.275784L315.558725,301.531906L321.683851,301.954299L321.648332,304.488662L318.202634,304.684773L315.214994,304.322721L312.751425,303.417592L310.943089,302.059898L303.029961,302.602975L296.855685,315.093760L289.773422,345.189294L296.022697,343.409208L311.670386,334.327750L314.826636,331.159799L318.034587,329.032747L339.151035,324.703213L340.057413,324.280820L346.309108,321.339150L360.905412,311.578841L367.449096,309.527215L370.185030,307.038109L380.013338,291.575480L382.058175,290.217786L386.788694,288.075646L388.766669,286.763208L399.122437,275.252972L401.828826,273.925448L405.446973,273.684080L412.459046,274.091388L414.552323,273.050489L419.944860,268.027017L422.365511,266.292184L429.533418,264.044443L437.165038,263.682392L444.448214,265.537908L450.489746,270.063560L455.087405,274.649552L459.083034,276.806779L471.682813,279.160117L484.711436,284.062904L490.850386,285.405513L498.284660,284.002562L503.035801,280.291529L512.448353,268.751121L515.288886,266.292184L520.527081,264.723291L530.669045,257.934813L535.298044,256.365921L538.846579,257.331393L546.004750,260.620034L548.594213,260.061870L551.792978,258.508063L555.483792,258.749431L558.830949,259.926101L558.786926,261.223454L561.096065,262.792346L563.060781,265.356882L563.107874,267.755478L559.796880,268.796377L554.987206,269.037746L553.543753,270.033388L553.287708,272.326385L547.072071,290.428983L544.908254,294.773605L540.745534,299.072971L537.746061,303.523191L539.138766,308.290205L541.819211,311.835295L543.369568,314.731708L545.215143,317.341497L548.902306,319.890944L551.789186,320.886586L561.385944,322.199023L565.739729,326.422958L570.118460,334.780315L575.921216,340.633480L584.426660,337.375017L580.929620,343.469550L573.347693,344.978097L565.797858,343.047156L562.397939,338.762881L559.386526,332.155441L552.191858,329.440055L543.961947,327.901335L537.714203,324.703213L534.462497,318.306968L532.399357,309.210420L532.285220,299.963015L534.802685,292.963346L538.137360,287.230858L540.463464,279.703195L539.201950,274.091388L531.734023,274.091388L526.502199,278.119217L522.132770,283.972391L516.658384,289.282485L508.086505,291.575480L506.321438,292.842662L500.791036,298.363952L499.078910,299.631134L458.876395,299.631134L451.765848,298.635491L438.764386,294.622750L431.259837,294.366297L429.169681,295.180914L427.267638,294.833947L425.633463,296.191642L424.341428,299.631134L422.980450,298.454466L421.824089,297.805789L420.832035,296.764890L419.977872,294.366297L417.951885,294.366297L413.718962,298.846688L411.767647,302.074983L410.922448,305.755843L410.666343,309.934523L409.774725,311.216790L407.750273,312.061577L404.123626,314.822221L391.709110,328.761208L389.419072,332.547663L386.671170,340.754164L380.507424,350.831262L380.462236,357.046477L382.154857,363.065580L383.196230,369.265708L384.550609,371.935836L387.478205,369.944554L389.999388,366.671007L390.095257,365.464169L392.239566,363.608657L394.176267,361.436349L396.818913,359.942887L401.080440,360.169169L400.517560,364.559041L400.464613,372.373314L398.858457,375.571433L404.599295,380.036732L410.271493,376.838613L421.007459,365.464169L420.202696,374.062887L417.052514,380.791005L413.637633,386.523482L411.959520,392.135274L408.157315,395.152366L406.727642,398.048775L408.500262,402.167106L410.867830,406.375949L411.715870,410.313254L412.943334,413.616969L416.301305,416.090984L416.399587,408.729281L417.539883,409.634408L420.392893,411.233467L420.210261,407.054795L420.648629,402.996806L421.613031,399.225441L423.036003,395.831212L425.261226,395.831212L425.308731,402.182191L427.563114,405.953556L430.319033,405.893215L431.842686,400.899927L436.958830,402.634755L438.484667,403.434285L436.465356,396.932451L433.249156,390.807753L431.053469,384.652884L432.147967,378.105792L438.516045,389.178523L442.816427,394.458435L447.651889,398.365570L449.944653,393.296855L446.167306,389.510403L444.660234,385.331730L443.519458,375.571433L447.956419,375.571433L445.799321,370.502716L448.607471,369.491990L450.231188,368.903657L452.177202,373.912032L454.462628,388.228139L455.183415,384.833909L456.180156,381.605620L457.466691,378.498014L459.068691,375.571433L460.851307,378.950578L463.903564,380.489296L466.820478,379.267373L468.158201,374.304254L466.626438,370.985451L462.899725,368.390751L459.204027,365.464169L459.241057,362.703528L454.838297,360.169169L457.831395,359.188614L464.623988,359.309298L465.939199,359.007588L466.345096,354.421604L467.510680,350.469210L469.592396,347.331431L472.799668,345.189294L470.386285,356.262032L471.000671,360.817845L474.789752,362.703528L471.376548,368.360580L470.456462,371.800067L472.426631,373.037075L475.278678,371.709554L478.228785,367.002888L481.626631,365.464169L481.280879,358.630451L483.097108,353.546647L485.386720,348.719295L486.368196,342.685105L488.606346,342.685105L495.109362,346.607329L497.964549,349.986475L499.326615,355.100451L495.351269,354.270750L494.099142,353.818186L492.695754,352.792373L490.695933,352.792373L488.909768,356.624083L488.532329,360.093742L489.684050,363.110836L492.526692,365.464169L484.413015,370.050152L482.713219,376.355878L485.387059,378.467843L490.459714,370.502716L492.301552,375.420579L495.599935,377.381690L498.016639,375.918399L497.121689,370.502716L500.477551,370.125580L502.520578,368.873486L503.531921,366.520153L503.874024,362.703528L505.900387,362.703528L508.412018,365.056862L511.390782,365.147375L514.473624,363.382375L517.257805,360.169169L515.763294,367.002888L511.777681,369.929468L507.135406,372.433656L503.669629,378.105792L508.219836,378.558356L513.078950,381.696133L516.986879,380.640150L521.604124,367.998529L523.829182,367.998529L526.186348,373.037075L526.152904,375.571433L521.316867,381.726304L518.979917,383.174509L518.943735,385.920063L522.957773,385.859721L525.756147,387.594549L530.144887,393.296855L530.768903,388.137626L532.715268,384.155063L535.681218,382.209039L539.363868,383.174509L537.950125,387.956601L538.003487,389.947882L539.231157,393.296855L536.897614,393.477880L534.689408,394.201982L533.004485,395.423905L532.320280,397.098391L533.289832,400.945183L535.701937,401.850311L546.567198,400.537876L549.936616,399.134928L552.900719,397.324673L556.999778,395.831212L555.862035,400.809414L554.135657,404.203643L551.508088,406.617317L547.732043,408.729281L544.717774,409.302528L534.363707,409.996459L532.645934,410.690390L528.816048,409.815434L524.982470,410.237827L521.714538,420.088630L518.928695,420.405425L517.144056,417.086624L518.611416,411.233467L515.799119,410.539536L514.592944,409.589152L513.869560,408.186204L512.385651,406.194924L517.126837,406.255265L530.012099,403.434285L527.592253,399.074586L525.027805,395.650187L521.690230,393.613649L516.820125,393.296855L517.440229,394.488606L518.160723,397.113476L518.780062,398.365570L512.455159,400.899927L512.641149,396.826853L512.258246,392.708522L511.148044,389.510403L509.098712,388.228139L505.506199,387.458780L502.098451,385.739037L499.644781,383.989123L498.953580,383.174509L496.236432,384.321004L493.383687,386.704507L491.093679,389.600916L490.172718,392.135274L490.983233,393.945529L495.060041,400.175825L496.686047,403.434285L493.562280,409.302528L491.117895,409.845605L483.148994,403.434285L484.015548,401.005525L484.959552,395.725614L485.693692,393.296855L481.222958,395.831212L478.703228,394.066213L471.639409,392.376641L467.935935,390.988779L469.129325,395.876468L471.432862,396.962622L474.175264,396.917366L476.738941,398.365570L477.577482,402.061508L476.842441,405.561334L477.100967,408.050435L481.052508,408.729281L475.045772,411.218381L469.772642,408.306888L465.750209,402.981720L463.400753,398.365570L460.288339,401.337405L456.896119,403.434285L449.773010,406.194924L449.739354,408.729281L453.661685,407.612957L454.846565,407.160393L456.223688,406.194924L460.840086,410.675305L464.579533,416.377608L464.685431,421.401065L458.426621,423.905250L458.328450,417.297820L454.568543,417.146966L450.016130,417.825812L447.447182,413.767824L445.221852,413.767824L444.032716,418.534828L442.908945,421.370894L445.407071,426.786572L443.603039,427.978323L438.179292,426.424521L433.599817,426.137898L430.060175,425.353454L427.085712,423.905250L426.552477,425.157343L426.636791,425.790932L426.393750,426.137898L424.853357,426.424521L426.816349,429.230416L428.245936,432.307848L429.049390,435.656819L429.305589,439.322584L426.881405,439.322584L424.641550,434.404726L421.927220,435.309854L419.460739,439.503609L417.952123,444.391295L416.236089,438.930362L416.029046,436.561946L413.045032,439.820404L410.084406,441.313863L407.199367,441.102667L404.666340,439.322584L403.679009,444.843859L403.489540,449.143212L405.469368,451.692654L411.162135,451.964192L401.847202,467.155238L400.833441,469.689593L399.178815,472.601084L394.113941,485.996960L393.068388,489.949346L394.396010,497.823947L397.111866,498.849757L400.769509,496.752880L405.055575,495.229251L411.776043,493.962074L414.655233,490.598020L416.362562,485.665079L419.486113,479.827013L423.254326,477.368085L428.580858,475.286294L433.306029,472.585999L435.402107,468.316818L436.467462,461.830075L439.305718,455.524358L443.619358,450.862954L449.204812,449.218640L450.888768,451.119407L448.212766,455.162307L444.337367,459.748283L442.355778,463.368791L440.605014,474.667790L441.594728,479.027484L446.545919,482.361367L453.129375,478.363724L471.252365,462.101613L469.520301,466.928956L466.079192,472.782109L462.146230,477.745221L458.807113,479.827013L455.532927,480.988592L450.870244,486.027130L447.582955,487.173624L443.831154,486.343925L437.318146,482.889358L435.218534,482.361367L431.706705,485.484054L423.290759,497.914460L421.642862,501.353940L421.207627,505.276155L419.474911,510.148753L419.039183,514.116224L419.075694,516.409211L419.444876,517.570790L420.486319,517.978097L422.539425,518.023353L424.274122,519.124590L424.413973,521.628773L423.554063,525.626414L422.980913,543.366890L424.018472,552.342725L428.805375,556.219683L432.456652,556.687331L435.670419,558.210960L437.968136,560.911254L438.804041,564.984321L440.513269,569.162987L444.506170,569.872003L452.114913,568.634997L453.455833,569.479781L455.252335,570.973240L457.710287,572.557210L461.127913,573.703704L472.659779,573.462337L481.027366,577.203525L483.493213,570.807300L483.964084,561.846551L483.584705,556.219683L481.969065,549.868714L480.986557,542.718216L482.964447,537.227117L490.307957,535.959940L486.695098,544.996117L489.798830,576.238057L487.024719,592.439815L485.314576,596.724079L481.818355,599.710995L472.009277,605.187008L468.394640,608.098497L468.729170,612.081052L472.397755,617.587236L477.359798,622.474917L481.535181,624.556707L485.544436,622.942566L489.170732,619.080694L497.772573,606.227903L502.700175,595.773696L506.504460,590.388196L511.005328,586.526324L514.373801,584.203167L516.297552,580.839115L516.532503,573.703704L519.865149,575.302760L521.152119,576.238057L521.342803,573.703704L522.026121,572.044306L522.932453,570.565933L523.672180,568.634997L527.254922,571.425803L530.497879,570.656445L531.961372,567.005770L530.220301,561.062108L538.179772,559.297112L544.740512,554.937421L549.677862,547.937778L552.740438,538.283098L557.222169,542.265653L557.510558,548.873075L554.839265,555.872718L550.441464,561.062108L552.651106,562.389626L554.774125,564.290391L556.412442,566.809659L556.983571,569.902174L543.438123,571.169350L543.170758,572.421441L543.586455,577.354379L543.343555,578.772410L541.599897,579.390913L537.535187,579.104290L535.627057,580.160270L533.640144,584.354022L532.008198,589.845120L529.907464,594.672459L526.436428,596.724079L524.418961,601.249710L518.277964,628.463835L519.270138,631.842973L521.907940,633.970019L525.475280,634.875146L529.307779,634.694120L532.823362,633.336431L535.210783,631.028359L536.917350,628.041443L538.325211,624.556707L540.750549,624.556707L540.719457,627.091061L538.627333,629.097424L533.713900,637.454755L530.835911,639.777913L527.939528,641.437310L525.642462,643.941493L524.681388,648.829174L528.437788,649.462763Z "/></g></svg>