<?xml version="1.0" encoding="utf-8"?><!DOCTYPE svg  PUBLIC '-//W3C//DTD SVG 1.1//EN'  'http://www.w3.org/Graphics/SVG/1.1/DTD/svg11.dtd'><svg enable_background="new 0 0 1000 1734" height="1734px" pretty_print="False" style="stroke-linejoin: round; stroke:#000; fill: none;" version="1.1" viewBox="0 0 1000 1734" width="1000px" xmlns="http://www.w3.org/2000/svg" xmlns:xlink="http://www.w3.org/1999/xlink"><defs><style type="text/css"><![CDATA[path { fill-rule: evenodd; }]]></style></defs><metadata><views><view h="1734.82085109" padding="0" w="1000"><proj flip="auto" id="robinson" lon0="-58.9516606342"/><bbox h="123.62" w="71.3" x="-907.74" y="-143.51"/></view></views></metadata><g class="" fill="#000" id="country"><path d="M619.363669,388.591593L629.830169,385.043279L641.790478,375.373887L642.048839,374.369647L632.785483,372.762864L626.357552,372.408989L624.425139,372.762864L623.656144,373.652333L621.644298,376.865900L618.400196,379.591693L616.081601,384.297273L614.679222,389.643653L615.173100,393.622356L619.363669,388.591593Z M509.594740,1732.820851L513.341795,1732.480751L517.502484,1731.411866L522.509503,1729.189070L526.505686,1725.970269L529.844205,1721.889070L535.674835,1712.499885L538.074486,1710.434993L541.220779,1710.107040L562.389653,1712.390567L563.714612,1711.771100L566.384482,1709.475425L567.310730,1709.062447L568.271629,1709.596890L569.421743,1710.580750L570.239512,1711.540318L570.171147,1712.001882L571.828288,1712.669935L573.460223,1713.775260L575.166886,1713.678088L581.769481,1702.114692L583.157892,1698.021348L583.080751,1692.336821L581.806277,1687.441812L577.966564,1678.204456L576.629242,1673.339812L579.134567,1669.837274L579.739661,1668.991392L594.808772,1666.070811L597.506913,1665.547880L603.170591,1661.278412L603.289460,1659.037396L602.137788,1654.075581L602.461823,1651.743467L603.957751,1650.225164L608.723928,1647.838391L610.583490,1646.441552L612.093495,1643.581069L613.277350,1640.125410L614.725981,1637.021998L617.116243,1635.181815L618.011604,1635.728404L620.010062,1639.518089L621.471867,1641.303614L625.023237,1643.325994L629.460110,1644.795712L634.010701,1645.645961L637.935551,1645.797792L640.584060,1644.880737L642.508050,1643.483897L644.689958,1643.083065L648.123018,1645.147958L649.708943,1647.413266L651.180156,1652.539058L652.598043,1654.488560L659.261476,1656.492720L669.073955,1656.857113L677.792834,1655.010856L681.175030,1650.468093L684.900179,1642.876576L686.318083,1638.564594L686.993597,1634.501615L685.857443,1627.335222L685.639938,1623.618416L686.902875,1621.905769L690.190617,1622.428066L696.414018,1625.288549L699.898437,1625.482892L703.411018,1624.055687L710.501040,1619.191043L727.349632,1610.803934L734.001494,1608.799773L741.409513,1609.224898L758.919647,1612.862754L765.294239,1612.644118L775.022687,1609.856513L781.282175,1604.548523L795.313920,1584.761990L797.541201,1580.510740L802.876303,1564.884357L804.971929,1562.795171L807.882767,1561.598747L812.279976,1559.029777L815.593302,1555.634850L818.255981,1551.960554L821.341980,1548.772116L825.946657,1546.822613L831.045920,1547.363130L838.488895,1552.677194L842.672439,1553.545663L860.582406,1540.931594L870.690531,1536.407048L876.936686,1542.115871L878.151275,1548.808555L880.548025,1553.654981L884.343234,1557.341423L889.763856,1560.590594L893.475574,1561.465137L896.875318,1561.525869L903.804680,1560.663472L908.288146,1560.699912L910.032441,1561.938847L911.378426,1564.192010L914.688616,1567.258984L917.389855,1568.327870L932.127525,1571.164062L934.980806,1571.176208L937.506324,1569.876540L946.526342,1561.902408L949.335007,1561.161476L953.487768,1561.938847L957.669282,1562.108898L960.657198,1560.286933L963.437606,1557.888013L966.953937,1556.290757L970.959292,1556.831273L974.213461,1559.175534L977.152102,1561.902408L980.295458,1563.669714L983.608096,1563.390346L989.969863,1559.309145L999.711620,1555.173285L999.063559,1552.446411L997.825557,1550.168955L996.022353,1548.504894L991.686700,1546.919785L989.952879,1545.729434L988.497811,1544.120032L987.364148,1542.115871L979.596503,1537.500227L959.252512,1537.123687L953.600588,1534.481838L934.033252,1502.439546L932.614987,1495.431053L931.107771,1490.305257L929.206771,1479.944347L926.637010,1475.377287L924.802375,1474.259815L920.027314,1473.251661L918.117320,1472.158482L917.256597,1470.057148L917.489162,1461.591081L915.247497,1456.343820L907.925959,1449.007371L906.406091,1444.743972L907.790939,1441.367261L908.196914,1438.925827L907.227807,1436.642297L903.843802,1433.034804L902.893183,1430.969909L902.271159,1427.738956L902.734452,1425.455426L903.792509,1422.856088L904.110100,1420.293188L902.416294,1418.118976L898.126425,1421.641443L895.181157,1422.783209L893.873554,1420.596850L895.088117,1412.677370L894.738982,1410.964722L889.600940,1404.053397L888.625758,1401.927769L888.548575,1397.931590L889.583355,1394.858540L890.184543,1392.089151L888.826874,1389.088980L884.471988,1391.846222L882.842174,1390.461528L881.744963,1381.205938L879.754833,1376.893950L874.495874,1370.480628L873.462524,1367.407577L874.315531,1365.075460L875.790456,1362.099581L876.304096,1359.548827L874.316765,1358.443501L867.197251,1359.658145L866.502119,1360.192589L865.202293,1355.759136L868.924478,1347.293064L867.502410,1345.750465L865.038051,1346.260615L860.840424,1348.459122L858.891046,1348.957127L856.419790,1347.948972L855.534162,1345.750465L854.906218,1343.539812L853.260652,1342.543803L852.454220,1340.114514L849.903963,1327.955919L851.874078,1325.623801L855.162588,1322.708654L857.482047,1319.404820L856.544806,1315.918789L849.663693,1315.092830L847.044783,1313.368034L848.792255,1310.307129L849.923696,1308.145061L849.827211,1306.298801L849.262565,1304.246051L848.947770,1301.403781L849.627131,1300.577823L852.530224,1300.747873L853.222661,1299.788303L853.039386,1298.014922L852.105309,1295.039041L851.912116,1293.229220L850.063881,1288.006246L846.548800,1284.277285L844.738310,1279.989588L848.025697,1273.102549L847.325658,1272.677423L847.188455,1272.555958L847.149297,1272.349469L846.776014,1271.644974L845.344704,1273.114695L843.507921,1274.475098L841.435489,1275.228178L839.362218,1274.839491L837.091217,1272.932498L837.505180,1271.389899L838.879486,1269.519345L839.510195,1266.677075L837.378931,1261.247610L836.954542,1258.660415L837.179010,1255.781706L838.383347,1250.947417L838.703132,1248.153732L838.015351,1245.347901L836.753847,1243.416614L836.329231,1241.461035L838.099757,1238.521592L838.427502,1237.051871L839.063503,1228.889452L838.482506,1225.591689L833.553879,1213.578842L826.880771,1219.396995L821.317023,1220.465884L815.810480,1218.534597L809.320691,1215.321858L809.464449,1219.579192L807.977692,1221.638017L802.080011,1223.350667L801.550322,1224.140187L800.051011,1225.737446L798.477367,1226.733456L797.778806,1225.688860L797.319391,1224.474215L796.099618,1223.775793L794.476308,1223.435693L792.805254,1223.350667L791.634526,1222.330365L789.020093,1220.550909L786.361636,1219.955732L784.247080,1224.571386L782.332269,1224.899341L780.083631,1224.176626L773.717781,1220.110706L773.674827,1220.083270L770.221740,1217.872615L764.393554,1216.512212L762.650997,1215.686252L761.651322,1214.702389L760.977425,1213.505963L760.130552,1210.718351L759.749238,1208.258693L759.915678,1206.309186L761.048908,1202.063998L761.197606,1200.484958L760.804064,1197.575881L760.801826,1196.045427L764.090000,1189.115871L764.472102,1184.961781L761.159538,1180.607275L756.895332,1177.758929L756.099918,1177.321656L755.674356,1176.617162L753.451067,1176.277061L752.452929,1175.791202L751.543530,1174.619068L751.291731,1173.805256L751.126200,1172.967149L749.544476,1169.499334L748.587141,1165.381683L747.870863,1163.681178L740.074368,1157.948047L730.028829,1153.186633L726.627355,1150.696607L724.389941,1146.336026L723.258738,1141.374195L722.921192,1130.709597L722.135714,1126.197184L717.942222,1115.496145L707.793813,1098.053813L704.512291,1093.577839L691.127016,1081.394927L686.253969,1074.240654L684.386796,1065.938538L682.113037,1045.951512L679.721855,1035.827422L680.194569,1030.962757L683.189471,1025.964481L701.720035,1005.060386L704.114775,1001.070267L705.559842,996.430310L706.133950,990.514972L705.644074,986.622024L704.600571,983.044884L704.031620,979.346279L704.955723,975.046423L707.086021,971.432843L709.534395,968.438734L711.566847,965.359600L713.279901,957.573701L717.338508,947.127720L721.009383,940.471443L724.569932,928.507149L728.420964,922.446048L730.178607,918.364827L730.573680,913.907063L728.947117,909.752962L723.577256,901.711982L721.033562,892.043370L717.656295,889.444019L714.242929,887.458067L712.756502,884.221025L714.372732,876.319727L717.836174,870.920608L721.730266,866.329230L724.622303,862.411984L729.038358,854.449951L730.643437,852.785880L733.265448,852.038870L735.253254,852.688708L737.218927,853.806187L739.797715,854.389218L744.896057,853.593623L747.359154,851.455838L750.640980,844.763114L756.350637,838.702009L763.399595,834.836258L771.201635,834.326105L779.246102,838.337613L788.433630,834.641914L793.214000,833.700559L798.546883,833.384749L799.642279,834.156053L802.740950,837.560237L804.093400,838.337613L806.778603,838.070390L810.301148,836.861813L826.751954,834.957723L832.008426,833.384749L834.250409,832.400882L835.817082,831.429161L837.625582,830.645710L840.583663,830.171996L842.384897,830.560684L843.983617,831.344135L845.682470,831.538479L847.794508,830.171996L840.419537,822.446811L839.552036,819.817090L839.885860,816.701509L840.594412,814.035348L843.875794,806.109744L845.425185,799.356279L846.866493,796.107085L849.236486,794.722382L852.918375,794.868140L855.520307,795.791276L857.227650,798.226653L858.236770,802.903063L861.499065,801.390821L864.819562,799.259107L867.415586,796.532213L868.514604,793.258726L867.078118,788.551949L860.405016,779.047295L859.096178,775.060052L858.941737,774.589522L858.088769,773.144085L856.028382,772.427440L853.668128,772.561052L851.892929,773.714972L851.472196,775.968152L852.486645,778.239552L854.536651,781.087911L853.951271,782.648740L852.554776,783.656901L850.758959,783.924124L848.952234,783.341091L847.945204,782.053560L847.616555,780.201215L847.707345,763.785189L847.059672,763.129277L845.750851,763.202156L843.676371,762.625196L840.652682,764.003826L838.810046,764.003826L838.040158,761.823525L838.812404,759.242389L840.568761,756.721985L850.940245,745.249591L853.167461,741.496315L854.132329,736.000011L854.496705,730.959203L855.245701,727.224146L857.292784,722.324646L857.334512,720.698733L868.293862,703.559694L870.767528,698.251565L873.445850,693.521203L876.086126,686.132881L876.820612,673.438716L872.191204,664.389756L872.829872,658.861811L875.064748,653.195374L875.315934,648.356595L876.339308,645.600658L877.948076,641.545438L878.999891,637.193727L882.621546,628.972109L882.278011,620.552022L882.032462,616.729175L882.110654,611.660603L880.964987,608.328951L877.496184,599.922045L878.996330,601.509702L881.909934,606.432467L881.809512,603.838041L881.383957,601.824259L880.384532,599.423748L879.741202,596.635058L879.260845,590.826492L877.683590,581.252729L873.905413,572.772492L869.783249,565.676436L853.265741,546.082512L845.038652,539.112572L838.025847,533.684773L835.504455,532.073622L829.126262,527.742451L825.018437,525.395319L821.619747,523.605211L817.364415,521.832996L813.293211,521.457197L812.344058,521.594481L811.565017,522.557977L809.469075,523.917103L806.714993,527.199231L806.602474,531.160431L806.187267,533.767723L805.767407,535.915682L803.928211,538.802892L803.025448,536.934898L802.501345,532.349895L800.325296,529.063504L794.504855,512.371375L790.568427,500.833648L786.650217,495.866850L783.628148,492.318540L780.914180,488.948791L776.661302,484.688742L770.270757,478.652301L758.702340,467.819863L754.325352,462.496811L750.623197,460.663522L748.830454,457.130448L742.435661,449.579664L731.641564,437.559316L726.247678,432.891034L718.743949,424.286026L712.736072,419.041771L708.738106,415.155323L696.067420,408.116770L678.358344,405.644541L676.577764,406.275777L675.778650,409.020699L674.921273,410.063196L674.100664,409.604115L673.180645,409.087649L671.510497,407.452172L670.903732,406.610524L669.904078,405.941030L665.970977,401.656274L653.821395,394.291849L645.965190,391.556491L637.232482,391.040025L628.034550,393.622356L620.300151,399.628666L614.523132,408.083409L591.369951,451.600480L588.961458,461.470727L587.237345,492.324820L583.532244,501.735989L585.041235,503.189747L582.600385,503.342774L582.569316,503.344563L581.603922,503.400159L579.832311,503.151490L577.073965,501.755117L576.217115,502.520253L575.621809,503.859240L574.962030,504.806096L572.812487,506.250290L566.248274,512.830457L565.724921,511.979243L564.874567,511.357571L579.295499,489.168635L579.979956,486.519353L581.291820,481.450330L582.531718,439.587853L583.065029,436.976829L585.091119,434.059751L585.602010,431.640010L585.628383,416.212970L586.216319,411.268284L591.551002,397.141977L593.040482,388.113383L594.552960,383.312161L596.954975,378.644838L600.204810,374.369647L603.614930,371.462135L608.340964,367.426048L611.019090,363.667324L615.446231,338.915218L615.326113,308.749795L616.717361,298.650025L615.246007,300.400269L617.552036,292.825442L616.276793,285.021076L612.750941,277.800125L597.094988,259.650759L593.979651,254.377471L588.985417,247.156922L584.902917,239.199035L581.693383,233.391916L578.444565,228.657041L574.609026,224.347935L570.385363,220.251365L565.319334,218.292849L562.472568,218.061709L561.994437,220.629943L563.869184,226.425782L563.051266,227.920655L559.836132,222.331126L555.143814,210.520105L550.115102,202.562711L544.397648,192.671317L534.091019,183.178343L507.022050,147.377021L496.250576,135.674580L493.365362,131.152776L490.438697,127.958449L478.320100,117.351816L441.397261,91.949467L420.056551,74.131490L401.509591,64.462156L388.218011,55.299723L381.799773,48.891760L377.806534,45.726036L369.482091,42.885492L362.399278,36.286249L359.051943,34.583836L354.119102,35.463735L353.527098,38.505125L355.839308,45.008727L357.444780,47.610168L369.709900,55.299723L388.216725,70.181504L403.494399,77.354601L411.926629,83.839083L418.865181,91.853826L423.322592,100.528497L405.485958,82.624438L402.909485,78.865734L401.452923,77.220704L389.904000,74.523619L388.610077,74.676645L387.816861,74.255823L387.598952,72.362126L387.228531,71.893484L385.481490,68.278243L379.395102,66.834060L373.582711,63.180563L362.571935,53.845976L357.476203,50.890662L347.485389,47.791886L341.734152,44.358367L334.281970,35.913248L323.207386,15.570373L316.138391,7.153954L309.515413,2.142360L305.479078,0.000000L305.480625,0.007850L317.370378,21.117560L337.898501,48.392371L345.627985,63.520760L345.232926,68.355044L342.429699,73.547649L338.314186,77.628854L333.964017,79.183599L329.702325,79.475114L319.263169,82.165552L315.604566,84.115057L313.306937,86.878374L307.833734,91.548684L306.177789,95.210839L306.082896,98.593626L306.509934,101.296211L306.138986,104.035237L303.595879,107.551635L301.510358,116.983359L299.267591,121.094936L295.687292,123.420982L291.222665,123.694278L282.997057,122.801513L278.528533,124.386626L274.143230,127.994125L270.706330,131.856700L266.992661,135.233417L256.895909,139.593998L254.323179,142.776372L252.061603,146.541776L248.907741,149.666298L248.076949,150.489378L237.770180,158.250972L233.037967,162.939510L231.190624,168.344690L226.002704,172.620249L216.912431,173.616260L199.375365,173.264012L194.660317,175.025251L191.636127,178.146895L187.246003,186.855919L182.368812,193.135648L181.277497,195.297722L181.056173,197.362624L181.586648,201.820382L181.477152,204.371144L178.081113,210.711608L178.458703,214.197649L177.568472,217.222124L175.564597,218.874046L172.584805,218.254575L171.192219,219.396345L169.054427,222.615164L165.921697,228.651968L162.552746,233.158316L153.048100,236.559333L149.923340,242.705457L149.984806,246.252233L151.083533,249.665398L155.546396,259.613376L158.102714,260.755147L160.961461,261.496083L163.696321,263.694599L164.542545,265.419402L164.586606,266.816249L164.312186,268.298121L164.170917,270.278000L164.929491,272.549396L166.564293,273.739753L168.414212,274.577861L169.842517,275.865390L171.186559,278.877722L173.338381,285.436832L175.052233,288.607068L175.383701,290.550509L175.300305,292.421070L174.771941,294.158020L173.780530,295.822091L168.571282,300.935769L165.782832,307.288390L165.654551,314.284778L168.459332,321.281166L170.608122,323.807639L184.609504,336.707232L187.324499,336.646500L192.189951,327.378713L195.673592,323.759053L200.143348,321.900638L205.487741,321.937077L208.015622,323.018116L210.114119,324.633602L212.335312,325.933278L215.301557,326.042597L218.696583,325.471711L221.412339,325.714641L223.829444,327.245101L226.181033,330.319830L226.319114,330.500366L233.369309,335.043160L235.951660,337.763979L237.405469,341.468664L237.432451,345.452720L236.427545,349.582534L234.691782,353.481565L232.548303,356.748977L229.533297,359.494089L225.924426,362.069150L222.698448,365.057192L220.833406,369.004810L218.547642,380.653319L215.132225,378.321188L209.541244,379.790916L182.488687,398.387236L167.456002,402.432026L163.488623,404.351177L160.024984,407.442466L153.854869,416.971412L150.374428,420.955471L145.931293,422.692424L142.875046,421.495991L135.470222,415.938957L131.271094,414.669646L128.831284,414.985456L124.017661,416.242621L122.079793,416.424818L119.622865,415.580635L117.824434,414.050173L116.387129,412.440759L115.036463,411.311133L110.489077,409.889990L107.804994,409.634913L106.570908,410.582342L106.948394,413.212064L108.889445,416.503771L109.281474,418.677998L109.135262,420.609295L108.740848,421.581017L102.910870,428.291971L101.751153,429.263692L97.425816,429.968191L88.009536,428.644220L84.090920,431.917708L79.707160,430.381173L75.346350,429.652381L73.312336,433.934031L69.489259,432.610060L64.965216,432.136345L61.030955,432.998749L58.982847,435.677057L52.226642,444.124964L47.919647,452.499993L44.625557,461.209052L42.887987,469.292566L43.216390,474.102590L45.131087,476.422577L47.965630,478.250630L51.027876,481.560559L52.542320,485.076978L54.308460,492.109818L56.455371,495.620165L56.985921,497.539317L57.173732,499.464542L57.029140,501.407986L56.530726,503.369651L54.614388,506.193719L53.504002,509.455062L51.899107,520.787775L52.115300,523.393205L53.476639,529.952332L54.504499,532.102268L58.079199,534.665186L59.052123,536.329261L59.582900,537.920456L60.274040,538.442757L60.904595,539.201915L61.237089,541.521903L59.896489,550.431384L59.737137,553.644141L58.962668,557.385273L56.633555,558.114065L53.608215,557.761815L50.739439,558.271970L47.995119,560.913841L45.590259,566.938520L43.480811,570.029813L40.936850,571.693888L37.500705,572.926761L30.583413,574.372198L27.781936,576.054493L25.783375,579.388716L22.945802,586.883126L12.718595,604.361987L9.598116,607.088883L2.526499,611.461635L0.288380,614.048846L3.560238,623.517068L10.002742,631.892102L25.144079,651.533044L40.297983,671.143619L55.462662,690.784559L70.623167,710.413350L85.789626,730.048213L100.978365,749.677000L116.157163,769.299711L131.613058,788.794879L140.935736,786.493114L145.549283,786.238037L157.839127,787.197612L160.267232,787.750279L162.735540,789.013517L164.833540,790.507539L167.105151,791.716118L170.089385,792.104806L181.837370,790.252462L185.942714,791.193818L187.459560,792.384176L188.847581,793.993591L190.218254,795.244682L191.747447,795.354001L193.832527,793.671708L196.378772,789.116762L197.998938,787.598447L202.328555,787.343370L211.346979,790.902301L215.893211,790.762616L219.916911,787.671326L228.528692,778.166673L232.425746,776.028885L241.154179,773.496335L243.851960,774.383031L245.645591,779.909699L248.550304,782.915963L257.944476,779.095882L259.678406,781.810629L265.815169,799.113349L266.322927,799.782166L268.922914,803.206726L273.101819,806.905341L282.093822,812.796403L287.794040,816.106329L287.953585,822.811207L283.903049,837.037937L283.479123,846.099230L282.666742,850.447678L281.021104,854.705028L279.404497,861.634608L278.529818,875.724549L275.353186,886.182684L276.020251,896.391816L275.416746,900.843507L274.066864,904.936876L272.193475,908.756949L266.026967,918.504511L264.912971,921.316425L264.322988,923.958287L264.039404,926.345073L263.277957,928.555734L261.281318,930.663151L259.382127,931.416233L255.216623,931.501259L253.423979,931.841361L247.720716,938.503711L246.926120,942.967547L247.828302,947.297771L250.069684,950.771667L253.324249,952.684739L255.785659,953.273844L257.633188,953.322430L258.864115,952.277831L259.416548,949.599530L260.549936,947.716824L262.792499,947.826143L265.022018,949.137964L266.083699,950.880985L267.078782,955.162623L269.270992,955.806387L272.494670,954.786081L276.551733,954.093732L281.424943,956.000730L283.991311,956.462297L285.202285,954.907546L286.149518,952.958035L288.212306,952.302124L290.604063,952.447882L292.629185,952.909449L294.467276,954.239489L297.339000,958.715471L298.426180,959.857240L300.355175,959.638604L304.443584,957.415796L307.117236,957.427943L307.942606,958.314636L307.281637,961.296600L308.087739,962.766325L308.991296,963.076060L311.247874,963.051767L312.225603,963.173232L316.630916,964.497199L318.417123,963.974900L320.139143,961.879631L322.811012,966.003363L334.723053,973.673870L336.344814,975.562649L337.860253,977.870481L339.646548,979.832139L342.021273,980.706686L344.399357,980.986055L345.152814,981.757357L345.021072,984.040895L344.926164,985.686745L343.503241,991.274128L336.218329,999.594469L333.902360,1003.991496L334.247499,1005.048240L336.285900,1007.726539L336.678336,1009.287362L336.204178,1010.781379L334.290585,1013.568997L333.755012,1014.941550L333.122978,1019.095646L333.097292,1021.136255L333.445638,1023.693089L335.736609,1029.875647L339.075065,1032.699704L347.913146,1035.961033L352.219246,1039.847906L351.558956,1043.194261L349.165759,1047.099354L348.387130,1052.613854L350.287849,1056.263870L357.148163,1063.661074L359.934804,1069.673579L361.158032,1070.821421L362.027628,1072.206119L361.705659,1078.255063L362.987637,1079.178195L364.983643,1079.081024L371.533128,1080.301744L373.971271,1081.297755L375.429247,1083.235117L375.779818,1085.567240L375.413421,1087.358845L374.252276,1088.488467L372.197579,1088.816422L368.304960,1090.583733L364.342531,1095.047562L361.205099,1100.525620L359.820593,1105.274890L360.284411,1110.576825L361.095222,1114.475841L360.358902,1117.797901L356.197452,1121.375036L347.636104,1125.668813L344.940347,1128.650770L343.082949,1134.553954L342.894472,1137.365861L343.102429,1139.436833L342.941363,1141.471366L341.619234,1144.167882L339.750417,1145.850168L335.016549,1148.164069L326.979287,1156.411519L309.801605,1163.189246L304.434680,1169.669385L304.259601,1176.568576L307.348473,1181.718676L311.001226,1186.583334L312.578851,1192.547246L308.816661,1202.270488L308.148812,1206.412431L311.770382,1204.936636L310.620889,1216.281429L310.878918,1217.860468L312.082424,1220.963888L311.889416,1222.585441L310.822331,1223.678622L309.388570,1224.067308L308.078528,1224.164480L307.409778,1224.364897L305.066390,1232.272240L299.497439,1242.335580L298.540151,1244.691992L295.509328,1255.307994L294.095462,1257.457916L292.560217,1258.951930L291.453235,1260.761752L291.357163,1263.822658L291.933807,1265.353111L293.655637,1267.563766L294.087406,1269.106366L293.550044,1270.017350L290.914140,1270.478915L290.242463,1271.122677L290.499469,1272.555958L292.007239,1275.045981L292.201488,1276.685752L291.497328,1278.204059L290.260715,1278.957139L288.877410,1279.528022L287.759335,1280.536178L282.024018,1290.775637L279.877602,1296.363004L278.782449,1302.254033L279.277076,1315.700153L278.656519,1320.668050L274.007269,1339.944463L272.026646,1378.315084L272.701282,1382.845708L278.982799,1397.263536L278.903068,1398.526765L277.831483,1401.417619L277.669027,1402.170698L278.683765,1403.081681L281.341460,1404.199154L282.178491,1405.158723L283.835654,1409.118463L284.118034,1410.891843L284.011902,1413.819136L284.701378,1418.313319L290.492517,1433.617833L290.806461,1436.180732L290.941975,1441.270090L291.364735,1443.760110L291.388920,1446.371594L289.189077,1450.294894L288.818626,1452.432667L290.890241,1456.926849L294.799894,1460.121362L302.991745,1464.955644L309.255229,1471.126034L311.812421,1472.644339L313.747385,1473.081611L317.810754,1473.203075L319.674223,1473.761811L324.063769,1479.446344L324.252673,1487.511577L322.975169,1496.597111L323.012573,1505.366837L324.808470,1512.369256L324.871932,1514.768177L324.180306,1517.094219L321.785253,1521.242226L321.102716,1523.714025L321.371835,1526.817439L323.601559,1531.718524L324.253655,1534.299641L324.083277,1536.224851L322.841170,1540.117783L322.439471,1542.115871L322.884749,1548.274112L322.647819,1550.417957L321.671747,1552.907976L319.017626,1557.450741L318.221928,1560.129029L318.051329,1563.864057L318.313469,1569.050583L319.251442,1573.854496L321.102698,1576.399173L323.627465,1576.520637L327.858900,1574.814064L330.276012,1574.965894L338.037648,1578.421554L340.625032,1579.126047L341.949230,1578.737361L342.497678,1579.065314L342.666378,1581.950092L338.191004,1591.491112L334.811007,1596.544027L335.126204,1598.475309L339.605366,1603.953348L341.484870,1605.617409L343.578602,1606.850272L345.957507,1607.542618L350.160553,1607.263250L353.778295,1606.109340L357.490749,1605.580970L361.881782,1607.141786L366.141973,1611.241205L371.814704,1621.917916L375.250507,1626.989049L381.671936,1632.807188L383.566025,1635.230400L387.554681,1643.471751L389.405652,1645.979988L390.382286,1646.453699L392.948566,1646.745213L393.998909,1647.352534L394.746388,1648.712934L396.183046,1652.417594L396.939073,1653.486480L399.453023,1654.178826L403.688110,1652.854865L405.578218,1653.182819L407.955588,1656.735648L408.372141,1661.144801L409.243354,1665.195634L412.984186,1667.679578L414.696920,1670.230327L419.028980,1681.502210L421.587862,1685.431578L425.257039,1687.696887L438.536277,1692.555457L473.114498,1699.503212L481.193742,1703.089415L482.336294,1703.596556L486.572132,1706.220184L490.382296,1709.694061L493.605504,1715.330002L494.656215,1720.431499L496.396178,1725.302215L501.698978,1730.136492L505.855997,1732.140651L509.594740,1732.820851Z "/></g></svg>