<?xml version="1.0" encoding="utf-8"?><!DOCTYPE svg  PUBLIC '-//W3C//DTD SVG 1.1//EN'  'http://www.w3.org/Graphics/SVG/1.1/DTD/svg11.dtd'><svg enable_background="new 0 0 1000 1731" height="1731px" pretty_print="False" style="stroke-linejoin: round; stroke:#000; fill: none;" version="1.1" viewBox="0 0 1000 1731" width="1000px" xmlns="http://www.w3.org/2000/svg" xmlns:xlink="http://www.w3.org/1999/xlink"><defs><style type="text/css"><![CDATA[path { fill-rule: evenodd; }]]></style></defs><metadata><views><view h="1731.54320655" padding="0" w="1000"><proj flip="auto" id="robinson" lon0="-58.9518048999"/><bbox h="123.22" w="71.2" x="-907.65" y="-143.36"/></view></views></metadata><g class="" fill="#000" id="country"><path d="M511.693178,1729.543207L518.894391,1727.830781L530.797597,1718.648044L540.367043,1710.752498L556.899317,1711.200717L576.289091,1709.902032L579.706177,1703.408606L581.618553,1695.053349L577.829670,1673.653775L584.775047,1667.160348L600.849112,1663.517134L604.171130,1652.104793L607.909460,1645.875700L612.562962,1638.612256L618.075419,1637.577905L624.903932,1641.726802L635.423445,1644.324173L647.302906,1647.955895L653.644464,1655.219339L664.225401,1655.839950L676.014146,1654.449322L680.821597,1649.817727L684.365949,1641.726802L687.108290,1624.280744L694.696100,1623.775062L709.893199,1619.844527L726.147057,1612.144356L747.759325,1611.018062L767.987075,1611.178961L778.164223,1606.007204L787.710302,1594.767252L806.324025,1562.966690L815.954484,1555.622794L826.273522,1550.129237L834.969566,1551.129111L852.908522,1545.865410L867.700790,1538.245686L873.126909,1540.164983L884.373504,1556.484753L890.054387,1560.070506L898.464954,1561.208292L925.973491,1569.483105L940.650338,1566.908719L956.597059,1561.702483L971.875821,1559.737215L982.824518,1563.368938L990.797860,1558.656892L999.711073,1555.151589L991.583639,1547.462909L983.288254,1540.337375L969.912856,1537.762988L953.937267,1532.947507L942.371087,1514.490074L930.523741,1488.183057L926.384616,1476.299502L917.006364,1464.806701L907.873847,1448.475429L905.234837,1434.005991L898.350400,1420.731802L894.714042,1416.272594L889.512900,1398.194411L888.481557,1391.482612L885.795650,1390.632145L882.041148,1384.851263L874.782162,1365.508868L873.145693,1360.704874L869.845443,1358.992445L861.242219,1345.407944L854.309462,1340.695892L851.839209,1333.742742L852.762326,1314.779602L849.170466,1305.435945L848.327130,1287.668055L848.231429,1280.531017L844.771113,1272.669931L838.848514,1267.486670L838.048566,1254.649194L837.180701,1222.929012L834.435072,1217.400966L809.095102,1217.791722L806.479287,1220.894783L795.496873,1222.768113L783.224679,1223.112898L772.268126,1218.849061L763.233956,1213.298028L761.418900,1206.425321L763.229959,1184.382086L748.832331,1167.694503L725.918605,1147.053386L719.419652,1120.861227L711.211928,1104.518420L686.079662,1070.327237L682.008646,1046.858863L682.334722,1030.320666L691.761864,1015.127129L705.033571,988.417758L710.793986,964.133371L714.920346,951.502729L721.858089,934.953023L728.326572,913.518850L724.099024,900.302065L716.724038,887.361107L714.433033,877.684119L722.239120,863.513421L729.995389,853.526124L738.505635,852.112501L749.469697,846.124719L758.176578,837.516563L771.158290,835.255385L787.360571,834.358941L820.319798,834.335955L837.258819,830.669728L842.669636,823.751017L842.205007,810.499729L850.866322,798.455192L859.801037,793.398325L863.437711,789.421788L864.064849,784.997029L861.855396,780.917056L858.424804,778.250707L849.243579,777.331277L841.689251,756.483187L847.453928,747.392315L855.016351,730.635688L857.254676,721.200028L868.664682,706.328232L866.583866,702.524086L876.461321,627.107742L873.040393,577.136651L865.824329,558.046959L842.344309,535.992102L801.969429,522.005255L788.774551,494.031564L751.339960,459.162146L713.292232,415.063953L695.032863,406.892515L674.129833,404.823796L648.436099,393.078074L624.059727,399.697972L605.117906,427.280886L590.430535,452.404330L584.128794,493.767228L567.332263,508.064381L580.437810,481.757160L582.950592,435.912041L589.175640,401.467875L611.808568,355.691748L614.620192,287.987263L608.160560,270.977829L585.340575,236.177463L570.374190,221.880357L548.480224,191.527754L470.662096,111.733027L414.829160,69.508429L376.548668,43.948435L361.531656,39.856999L361.044159,49.568414L357.570169,49.384529L341.333305,41.305091L312.864519,3.930532L305.363745,0.000000L341.759928,57.280084L342.096655,63.589634L337.657012,70.761145L313.178109,84.196240L307.563592,91.160885L298.007009,116.686433L267.299330,130.696185L245.798988,148.257226L231.189233,163.657622L223.957784,169.863753L196.266828,173.265632L187.071985,182.954095L174.919720,212.065466L166.343047,224.236391L151.510656,238.522005L151.091497,247.291052L169.824530,279.149252L173.056186,289.148042L166.410284,304.272651L166.655781,314.984002L176.623160,327.901985L188.972616,330.844160L201.227918,325.465497L216.259997,325.936705L225.961155,329.361580L229.899784,333.131241L230.290212,343.003617L223.390050,363.989603L214.057772,377.528211L173.771441,398.307334L155.770309,410.340379L145.769611,419.201390L124.567497,414.454830L113.667930,414.822602L105.107240,421.672360L99.858464,427.568208L85.481042,429.016311L65.101217,432.602091L56.509585,436.567135L49.626172,446.830281L43.700032,461.552666L47.725539,479.205739L53.586992,494.939502L52.885656,509.397556L56.576777,549.599684L49.916124,558.989376L36.015607,569.631793L19.244297,588.388191L0.288927,614.454069L2.981515,621.935941L44.932558,676.722550L87.646106,732.463057L130.143537,787.858756L149.106960,783.365040L164.489288,790.111361L188.730282,791.145720L199.399201,785.950938L214.608659,788.502358L234.393966,774.699407L246.713239,779.204617L254.954495,779.204617L262.170846,789.697617L267.651094,801.523791L285.424832,815.912875L283.058545,837.803885L279.220245,857.180854L276.316009,879.499991L274.847750,896.486437L266.701182,913.875129L254.753101,930.114532L251.195040,936.711429L249.384536,945.273604L257.046383,950.468373L270.738947,952.019908L287.890277,952.697986L299.450956,957.731854L314.535500,958.766211L332.384766,972.718529L341.019302,981.085322L341.606521,987.578780L335.472978,1003.082629L332.838044,1017.414204L337.131678,1026.493550L342.316364,1033.032976L356.332315,1065.339346L363.100658,1076.579340L368.974286,1080.199583L370.216264,1086.428700L364.916603,1098.220348L358.555250,1113.229987L344.553184,1128.986658L342.462200,1141.444885L331.361688,1149.271502L305.469727,1167.878389L309.297071,1197.380469L309.878295,1212.344124L309.160062,1223.963366L300.149299,1239.524644L284.183989,1285.484420L278.220774,1308.401091L272.380874,1361.371457L272.403604,1379.127845L278.978918,1403.044375L292.930578,1456.106650L301.226971,1464.553859L320.558916,1477.012055L322.484292,1512.904067L320.268015,1550.382079L319.158991,1564.920465L322.298630,1571.149560L331.031154,1574.137687L337.218030,1578.642862L338.068487,1589.733409L337.343738,1601.249188L351.811942,1607.903515L364.430998,1612.144356L375.946526,1628.050380L396.836986,1652.782867L405.195520,1657.288041L409.304761,1667.551103L426.938521,1688.399024L454.062370,1696.018743L481.397329,1705.212974L492.073616,1718.326246L503.231679,1728.980060L511.693178,1729.543207Z "/></g></svg>