<?xml version="1.0" encoding="utf-8"?><!DOCTYPE svg  PUBLIC '-//W3C//DTD SVG 1.1//EN'  'http://www.w3.org/Graphics/SVG/1.1/DTD/svg11.dtd'><svg enable_background="new 0 0 1000 922" height="922px" pretty_print="False" style="stroke-linejoin: round; stroke:#000; fill: none;" version="1.1" viewBox="0 0 1000 922" width="1000px" xmlns="http://www.w3.org/2000/svg" xmlns:xlink="http://www.w3.org/1999/xlink"><defs><style type="text/css"><![CDATA[path { fill-rule: evenodd; }]]></style></defs><metadata><views><view h="922.865382891" padding="0" w="1000"><proj flip="auto" id="robinson" lon0="114.113782952"/><bbox h="6.2" w="6.73" x="1649.76" y="-378.37"/></view></views></metadata><g class="" fill="#000" id="country"><path d="M814.184556,920.865383L860.706974,882.568229L875.226997,825.304671L868.927874,750.533427L726.109777,668.223789L614.167273,679.166015L634.112275,738.618621L814.184556,920.865383Z M356.449637,882.689807L338.483819,715.761618L400.881515,576.673467L75.169329,708.953142L0.542379,805.000975L37.336847,857.887786L97.289980,882.811386L356.449637,882.689807Z M466.054090,0.000000L418.509951,34.165948L320.181783,54.835687L263.991697,125.842023L259.049046,132.164483L252.966612,201.589724L40.960627,340.682114L68.425861,420.562230L157.213150,498.010184L357.838909,470.897376L598.816170,539.226401L899.982983,670.898556L929.498207,596.855931L913.345956,476.125411L999.457621,420.197482L959.215567,317.702803L862.662099,267.367014L857.777337,163.168802L794.620607,70.277172L784.939230,59.820736L697.735850,27.478671L606.589095,0.000000L466.054090,0.000000Z "/></g></svg>