<?xml version="1.0" encoding="utf-8"?><!DOCTYPE svg  PUBLIC '-//W3C//DTD SVG 1.1//EN'  'http://www.w3.org/Graphics/SVG/1.1/DTD/svg11.dtd'><svg enable_background="new 0 0 1000 585" height="585px" pretty_print="False" style="stroke-linejoin: round; stroke:#000; fill: none;" version="1.1" viewBox="0 0 1000 585" width="1000px" xmlns="http://www.w3.org/2000/svg" xmlns:xlink="http://www.w3.org/1999/xlink"><defs><style type="text/css"><![CDATA[path { fill-rule: evenodd; }]]></style></defs><metadata><views><view h="585.005200348" padding="0" w="1000"><proj flip="auto" id="robinson" lon0="73.5179084705"/><bbox h="3.69" w="6.32" x="920.72" y="882.95"/></view></views></metadata><g class="" fill="#000" id="country"><path d="M308.849206,583.005200L460.294736,570.481794L526.200164,550.977460L667.901850,467.202161L999.143843,396.145571L950.936270,401.280082L898.897155,397.172478L853.313366,380.741693L795.956540,351.575615L787.353833,324.872666L758.197202,277.419774L746.893760,268.586014L736.114692,225.031052L728.695389,208.388683L710.755926,197.087969L672.828111,182.499362L659.337714,164.622554L624.496176,139.347261L513.884209,135.648321L481.614734,120.646762L432.350093,151.471354L378.815290,167.910294L339.504774,160.923817L332.468549,120.646762L366.722311,105.028181L351.607049,78.927528L327.252291,74.200479L298.717315,91.464248L272.744052,130.099858L253.391796,139.963749L229.885133,120.235755L211.652930,88.175959L209.270731,61.046697L197.946192,58.580320L156.970789,0.000000L86.671887,34.532461L12.666843,51.592183L0.856157,102.562042L9.870056,135.031830L36.632812,151.882336L147.680505,160.307357L174.420080,170.787049L204.262288,191.129298L175.959099,208.594148L165.578648,227.496538L170.108256,245.576358L186.401327,260.162970L159.844164,285.842506L155.988101,325.488906L165.632149,448.720280L187.831484,514.224960L197.995241,534.346801L245.418321,574.587868L308.849206,583.005200Z "/></g></svg>