<?xml version="1.0" encoding="utf-8"?><!DOCTYPE svg  PUBLIC '-//W3C//DTD SVG 1.1//EN'  'http://www.w3.org/Graphics/SVG/1.1/DTD/svg11.dtd'><svg enable_background="new 0 0 1000 806" height="806px" pretty_print="False" style="stroke-linejoin: round; stroke:#000; fill: none;" version="1.1" viewBox="0 0 1000 806" width="1000px" xmlns="http://www.w3.org/2000/svg" xmlns:xlink="http://www.w3.org/1999/xlink"><defs><style type="text/css"><![CDATA[path { fill-rule: evenodd; }]]></style></defs><metadata><views><view h="806.661732525" padding="0" w="1000"><proj flip="auto" id="robinson" lon0="-87.2299022789"/><bbox h="74.44" w="92.39" x="-1311.46" y="-292.09"/></view></views></metadata><g class="" fill="black" id="country"><path d="M256.350857,755.150784L258.245643,752.539754L258.801681,749.722200L258.415118,748.409308L253.708115,748.276544L251.650557,748.586327L248.992456,749.537805L249.507038,750.504034L250.290570,752.510250L250.812431,753.469103L249.713472,753.469103L249.613204,754.590224L250.245696,755.180287L250.882542,755.504822L252.760591,755.829357L256.350857,755.150784Z M258.562350,734.129750L256.711483,733.296283L255.182590,734.336273L252.808624,737.721769L252.124055,740.871239L255.326174,743.142987L262.435346,745.820403L265.051076,743.253624L263.813453,736.106467L266.696085,734.675560L266.796618,733.561812L264.465046,733.613443L260.086399,734.646057L258.562350,734.129750Z M345.636260,804.661733L346.754302,801.706381L350.224999,799.893828L354.538188,797.032148L356.533904,794.854272L360.818562,788.362794L361.790820,787.571265L364.244642,786.269222L365.130667,785.337183L365.712589,783.562095L365.145785,782.906390L364.289204,782.466131L363.986732,781.323329L366.193750,771.787491L365.946292,771.333180L365.003749,768.419969L364.800953,767.366155L365.114396,766.883742L366.714174,761.778594L368.062008,759.347793L369.500235,757.568016L377.783950,750.252189L380.028727,748.641020L382.654746,747.821384L385.365648,748.078984L394.065117,753.109203L395.504662,753.633769L397.046042,753.193508L398.254743,752.331396L399.482255,751.455882L401.856684,749.212423L403.299661,746.828454L403.892056,744.041692L403.410033,738.852224L403.171622,737.751569L402.228486,735.442535L401.294443,734.412134L400.236412,734.126432L399.341813,733.573762L398.896125,731.765876L399.374396,729.175822L401.843022,724.169005L402.359646,721.344765L399.198158,699.598547L399.397295,696.512011L400.911989,690.708946L401.070623,687.809753L400.570625,686.638835L399.291334,685.467650L398.693082,684.919926L398.155368,683.983191L398.002698,682.339221L399.350507,672.678211L399.790089,669.534036L400.392898,667.009528L400.766031,665.904178L401.589463,665.164155L403.549864,663.754364L407.339082,661.735693L410.691622,661.417202L417.527111,662.382043L430.729298,659.632715L437.035975,659.220550L441.997297,662.438247L444.729734,663.323465L447.111128,662.503819L449.360523,661.248589L451.716308,660.883261L453.953380,663.754364L454.827751,664.503755L456.279558,665.042379L457.370822,665.220359L465.621734,664.634898L468.607994,663.838671L471.098117,662.550655L473.159230,660.222860L474.331112,657.487583L476.075991,652.115382L478.997152,647.693968L490.559823,635.249355L496.931322,625.732042L498.712212,624.500223L500.658155,623.694623L502.682387,622.579897L504.739295,620.420700L506.096874,618.111623L506.884919,616.364593L507.861356,614.795543L509.811020,612.996991L512.111800,611.737067L524.448906,609.727745L524.218131,611.737067L522.136361,615.633931L522.135276,620.439435L532.499511,629.497752L535.464471,634.556165L536.427910,635.661522L538.556133,636.504590L540.048628,636.157995L541.554375,635.492908L543.734045,635.343029L547.061419,637.052584L548.631554,640.195354L549.837089,643.914218L552.051039,647.338006L555.441380,648.691596L559.161793,648.560452L562.366558,648.860209L564.234950,651.506501L564.521158,651.638605L564.620552,651.684481L564.997206,651.333904L566.195624,650.218483L567.778567,647.291169L568.374322,644.485630L567.666573,642.382646L565.363842,641.558313L564.911318,639.979903L565.896094,636.485855L567.974293,631.034012L568.533369,627.062219L569.397162,626.069270L571.002490,626.490805L573.800095,626.706256L575.920934,625.647735L579.434776,622.542427L580.746197,622.992065L581.726427,622.992065L581.732285,622.139627L581.998074,621.928859L582.431941,621.938227L582.932542,621.760245L582.594116,619.853969L588.336694,617.961744L590.049161,616.186611L591.786933,613.662080L595.384669,612.383422L596.767434,612.111756L599.437453,611.587187L602.504536,610.500561L604.218254,608.018182L604.842832,605.128316L605.983679,602.725558L611.856239,600.983206L614.727532,599.236170L619.175215,595.648422L621.252774,593.105147L623.334998,589.606385L624.969993,586.159143L626.562836,581.522224L628.358763,578.679182L630.436446,576.023488L632.121718,574.388854L632.823928,574.248341L634.496817,574.548102L635.176212,574.388854L635.679434,573.798700L636.256990,572.473194L637.524462,570.965021L638.285012,569.742557L639.250948,568.730863L640.779514,568.309323L644.750819,566.225045L646.436593,565.831608L652.442718,565.831608L656.444239,565.058786L660.552670,563.597448L664.026455,561.400757L666.154235,558.407822L666.391276,554.276727L664.702014,550.660845L662.146342,547.789682L659.773040,545.920850L664.469096,542.206602L664.760545,541.059072L664.659879,538.290947L664.960193,537.138733L669.044865,532.810900L669.724806,531.635265L670.937573,522.473733L672.118180,517.443314L673.629264,514.862528L676.438188,515.682197L678.667358,518.782886L681.141585,521.017066L684.666191,519.255951L690.929397,512.965580L692.119415,510.502906L692.405125,509.911726L688.290174,509.916410L689.369828,508.520629L693.222403,504.848507L689.080847,501.298161L688.398612,499.532354L690.964499,498.778257L691.826132,498.352027L692.449302,497.270061L693.944766,490.562797L695.635315,487.729069L698.027904,485.462086L698.375824,485.219466L701.030331,483.368403L704.093332,481.120153L712.139768,473.312158L714.909254,471.630650L724.580897,469.714948L728.775743,469.513542L732.755643,470.890599L735.950379,473.775860L737.854667,478.066278L737.312267,478.576818L735.894476,480.352000L735.773089,480.707974L738.884251,481.148256L739.105708,483.335616L738.706934,485.747801L741.706538,488.188087L743.062544,491.218536L744.843937,497.424627L747.966038,495.471466L750.966447,495.836805L756.819691,498.778257L760.309238,499.630715L771.851927,500.014790L771.123726,501.298161L770.300696,504.848507L772.786851,504.024152L774.362553,505.049911L775.867926,506.628363L778.219349,507.433981L780.033207,506.862554L784.388362,504.314550L790.527461,502.005420L793.840874,498.005423L796.490278,493.429310L798.920647,490.005419L800.293656,491.752494L800.966235,496.464440L802.085058,497.424627L804.474302,497.672871L808.231717,498.637741L809.975907,498.778257L813.416108,496.871934L814.618569,492.881301L814.635311,484.375432L815.724047,482.225543L817.735120,482.066292L819.843586,482.914070L821.184938,483.813370L822.292947,484.960913L825.605495,489.443358L827.440782,490.323921L829.792028,490.122516L833.782793,488.871928L834.780887,488.263028L835.505640,487.391832L836.391006,486.637732L837.871442,486.291127L839.178246,486.544055L839.881648,486.974970L840.545344,487.059279L841.706599,486.291127L841.840067,484.932810L840.598461,483.433977L839.664040,481.771209L838.244093,477.513582L840.140320,475.902334L841.309042,475.808657L844.686285,478.370729L845.013357,479.209139L845.548319,479.850828L847.191427,480.099072L849.876586,480.000711L850.643046,480.497200L850.808419,481.897673L853.497165,482.263014L869.264426,481.335610L868.595503,479.846144L868.792794,478.174006L869.984195,474.024105L871.779764,475.218490L874.033402,478.253632L876.002063,478.857850L875.880954,478.089697L875.265744,476.389456L876.365383,476.914048L876.968782,477.110770L877.477645,477.560421L878.267796,478.857850L880.387820,476.923416L883.382677,475.176335L886.639905,474.052208L889.567944,474.024105L888.426097,473.096700L887.730818,472.211449L886.809342,470.089658L895.709587,469.490123L899.144424,468.061542L899.098801,465.246536L901.115999,465.106019L902.725610,465.358948L903.820416,466.178626L904.265970,467.724304L905.441759,467.724304L904.452369,462.520520L905.266205,460.506453L908.378889,458.942038L911.568742,458.459598L915.067261,458.665689L917.888953,459.625884L919.048165,461.532223L920.227997,461.532223L921.131262,459.316748L921.708812,456.876446L922.681669,454.913899L926.725351,453.297959L931.021597,449.799094L933.378148,449.044988L933.130146,448.407979L932.831759,447.124592L932.534472,446.571893L934.814302,447.330684L935.659306,447.813124L935.417781,445.382184L935.832494,443.274431L936.794728,442.496904L938.191649,444.098796L938.559832,441.349349L938.929066,440.234580L939.884768,439.030818L938.991093,437.275050L939.618925,436.361688L941.236442,436.160280L943.281919,436.553728L944.032213,437.448355L945.633375,440.735757L947.002862,441.625699L950.770582,441.138573L954.194246,439.007398L956.965923,435.982291L958.799468,432.839385L960.601742,434.600537L962.548507,435.490480L964.089657,436.628671L964.673439,439.030818L967.243627,437.284418L969.987472,437.083010L976.893404,437.902694L974.903085,438.927772L974.685099,439.883288L975.758424,440.787280L977.604281,441.625699L978.272216,441.499233L985.280235,441.625699L989.678144,439.494524L991.931966,439.030818L997.246828,439.377426L999.378912,438.994527L999.379392,438.993862L980.682663,430.364359L976.282045,426.064004L972.763395,419.159824L970.711379,411.872067L969.336220,400.224911L967.819485,396.809686L960.301479,390.156260L939.893557,381.216168L923.793846,371.324515L922.156551,370.697527L920.389107,369.458303L918.404735,367.075747L916.090550,365.578351L913.346746,366.987231L912.061595,370.313958L914.353358,371.907246L917.538911,373.087458L918.990878,375.138078L920.277842,376.288784L926.842940,379.091787L929.356677,379.475356L928.552864,381.275178L928.128587,381.953800L928.975763,383.185645L931.898075,381.850531L934.179490,382.425884L938.565710,385.553442L941.676573,383.886395L943.433134,385.937010L944.239231,389.403877L944.512299,391.970832L944.989099,393.807532L945.790766,394.862343L946.609341,395.688488L947.159337,396.809686L947.678452,398.742276L947.671980,399.376638L940.283624,402.216511L938.942696,403.101666L937.884360,404.252367L936.170432,406.907830L935.213752,407.947886L931.974794,409.364132L930.105465,408.147046L929.345421,404.960490L929.468697,400.512587L928.288636,400.512587L927.518014,401.685418L927.093268,402.754980L927.134521,403.935186L927.784755,405.469454L926.810965,406.295598L925.680874,406.819314L924.815197,406.516887L924.604014,404.849846L925.018185,402.932011L925.637732,402.039480L926.393448,401.456753L927.205302,400.512587L928.476721,397.842368L929.502002,396.197453L930.525860,395.452447L931.888789,395.555715L933.498479,395.895025L934.809542,396.507258L935.295942,397.429295L935.813942,400.512587L937.552894,401.294474L939.499752,400.158525L940.602866,397.429295L941.159342,391.970832L940.978961,390.643096L940.538063,389.846455L940.509526,389.116201L941.561763,388.031883L941.677195,386.903307L938.919399,387.515541L928.876274,385.287895L927.726553,384.867445L926.729796,384.778929L925.592986,385.553442L925.219180,386.999199L925.126816,391.115180L924.342969,391.970832L918.591480,392.789601L915.198602,393.873918L912.574159,395.452447L909.365767,400.733876L907.951708,401.574773L906.905467,398.048904L905.718980,398.048904L905.507442,400.438824L904.569070,401.737052L903.361384,401.818191L902.327299,400.512587L902.156242,398.712771L903.199992,391.970832L902.583716,386.659889L900.850842,386.895931L898.463324,388.673622L895.924238,388.031883L896.040069,386.903307L896.992365,386.482857L898.405750,385.214132L899.544248,384.424866L898.396519,382.167713L896.986973,380.139225L895.261236,378.678713L890.857625,377.616523L888.311037,376.303537L886.314704,374.533219L885.617552,372.607997L883.716298,368.927207L870.293900,362.037708L866.607469,363.453966L864.958749,364.368632L863.410031,365.748007L865.087239,367.289661L868.151772,373.175974L869.979559,374.577477L881.596100,379.335206L883.283753,379.475356L884.723702,379.829420L885.274183,380.744083L885.679031,381.946423L886.692678,383.185645L893.015749,387.220489L894.799250,389.381748L892.182400,391.321717L888.474264,392.900246L884.679440,393.940305L881.757099,394.331249L878.513012,393.519856L876.125488,391.461867L874.468285,388.636741L873.469973,385.553442L873.586131,384.424866L875.440132,383.451192L876.505926,383.119258L878.027161,383.185645L878.154043,381.953800L870.299604,383.030742L867.301251,382.470142L865.443874,379.475356L867.044940,376.583837L866.586996,373.780833L864.958851,371.324515L863.024089,369.465680L863.981699,374.784014L862.297564,376.480569L859.012321,375.580657L855.173846,373.175974L852.807930,370.004152L850.628999,365.039878L849.894074,360.459171L851.780901,358.438053L855.358198,356.711988L854.850423,352.625491L852.786861,347.830861L851.262806,341.900269L849.890686,340.911837L848.338736,341.450311L846.380296,346.473612L843.035684,348.125915L842.255132,350.899424L841.172215,350.899424L841.728222,348.730776L842.463866,346.694902L842.583139,345.190125L839.801925,344.054166L838.931609,342.645282L838.140134,338.529272L839.996528,338.772692L842.640356,339.495575L844.506875,339.643103L847.314602,338.625164L849.443018,338.182583L851.211215,338.529272L852.737044,340.690546L856.410404,350.899424L857.493321,350.899424L857.906233,350.279811L858.082549,350.073273L858.269712,349.947875L858.704601,349.549552L856.980674,346.930946L855.486921,343.596832L854.795505,340.484008L855.445782,338.529272L856.652430,338.271099L858.513031,338.352239L860.182011,338.662046L860.898353,339.082499L860.406923,340.262717L859.433441,341.369171L857.201208,343.353412L861.416024,345.079480L862.342671,345.831868L864.749183,344.150059L866.061306,342.578894L867.668656,341.450311L870.964389,341.000353L872.882479,342.069926L874.888100,344.150059L876.869122,345.544191L878.702650,344.592640L879.785513,344.592640L884.312629,351.105962L885.450101,353.363126L884.666679,353.643427L883.939368,354.189277L883.165765,354.499083L884.811652,356.520203L886.853677,357.029171L891.657201,357.080805L893.062324,357.825816L895.821688,360.178870L900.117814,361.890181L905.581723,367.142134L908.230202,368.337101L910.624064,368.005166L911.758135,367.075747L911.808004,365.659491L910.908318,363.889170L909.587819,363.070396L904.118671,362.037708L901.384099,360.621450L898.655922,358.710977L887.370661,350.500046L878.967018,341.851871L863.943785,326.014822L848.438811,309.799280L837.943509,299.347721L830.203071,291.433096L827.102815,290.219655L817.776267,289.673666L803.726581,288.028274L782.449316,283.490278L776.245566,282.025102L777.325262,284.886056L781.076350,287.048810L785.565742,289.335608L797.813209,291.673637L801.692802,292.650782L804.858290,294.218025L802.245556,295.388899L800.629818,297.280199L792.991837,296.159806L789.273386,295.660069L785.204270,296.348502L782.642514,294.192620L781.819114,291.928462L780.322525,291.800570L779.703371,293.461547L778.748877,297.141997L774.705004,298.545728L771.629581,298.052806L768.686326,294.468374L769.195994,289.951753L769.517730,287.099255L771.835656,283.782691L773.061818,281.530199L771.009309,279.614782L762.349343,276.201902L743.897947,269.907542L729.488399,262.247214L722.020566,259.358511L709.982774,259.665690L701.833556,264.682269L689.329935,273.950662L679.701076,278.185920L662.584271,278.725228L650.658619,280.057123L642.313411,280.817852L630.746936,277.317649L624.078145,274.018785L621.036124,271.304878L618.500024,268.785035L617.349399,266.459945L614.745507,266.388220L614.336862,266.764417L613.826032,267.074226L613.440534,267.649585L613.390170,268.866691L612.211337,268.866691L612.017756,266.882439L612.315279,264.418722L612.132672,262.338577L610.467156,261.438656L607.975174,260.848544L600.775747,258.698566L593.574806,256.348939L587.716816,255.589311L579.434899,253.839991L567.498184,251.163329L563.327774,251.539526L562.337278,253.553283L566.979277,254.903165L576.824574,256.496467L578.948607,260.169915L577.039938,264.551497L573.249738,268.652775L566.540769,273.639221L564.837431,274.539141L562.776870,275.173512L540.044941,276.088185L534.373995,277.563464L528.634175,280.012428L526.657695,281.635236L522.212126,286.429892L506.020823,296.801100L503.231695,298.143603L500.039537,298.696833L496.222073,298.431283L493.828099,297.701020L490.442627,295.089778L490.140003,294.853733L485.528823,292.670321L480.282818,292.508041L449.034123,295.488103L442.377570,294.853733L441.673649,294.226740L439.907442,293.009635L438.059364,292.242490L437.066013,293.068646L436.424496,293.393208L433.530177,295.679889L433.032571,296.218366L430.168778,296.712584L420.097281,299.928690L413.984956,300.607317L408.399233,300.076217L392.012243,295.783158L377.526434,293.998072L363.883311,288.465777L347.989318,284.305491L344.798568,284.666934L342.249015,286.267612L340.970899,289.350945L340.044669,290.088584L335.956357,289.889421L334.408164,290.022196L333.562932,290.899987L331.618661,293.835791L330.622628,294.853733L325.422303,295.960192L320.889805,293.673511L307.749359,278.787946L307.020412,277.533959L305.789066,276.279971L307.193634,273.469564L310.739263,268.866691L304.831546,272.591772L302.962172,274.664540L304.390756,276.397994L304.263166,277.533959L301.601826,277.253656L295.092215,272.584396L292.542406,271.544324L289.765759,271.145998L288.747532,271.492689L287.435890,271.927896L286.232864,274.487507L283.285019,275.380051L269.556635,276.412747L264.690049,278.153576L261.863015,280.204215L259.102743,281.089382L252.397319,281.251663L251.765639,281.827022L252.278372,283.110515L253.577177,284.394008L255.279428,284.954614L256.075689,285.780770L255.540233,287.565857L254.117824,290.022196L244.184298,296.218366L238.060386,295.266811L236.410920,295.842169L236.935345,298.696833L232.729363,301.448225L222.335249,312.306265L217.930313,314.364275L214.201369,313.014397L207.655095,307.349335L206.778842,306.907848L204.840688,307.674413L204.163472,309.304447L204.074779,311.271728L202.749457,313.688673L201.921939,312.339681L199.049452,313.623097L196.562332,315.047034L193.929823,316.086882L190.582362,316.161826L189.542027,317.492083L183.734473,326.621196L175.493506,334.616775L163.608802,344.053868L157.951262,348.546959L157.950229,348.556327L142.802611,360.448956L127.752262,372.275989L112.726736,384.076675L97.805396,395.798839L75.914656,413.002962L70.078198,415.902317L53.341670,421.874327L48.183135,424.605055L47.066633,425.531235L44.654217,427.532507L42.407810,430.801882L39.008206,439.161967L41.755359,442.365754L41.239356,447.143328L38.731382,452.290923L37.309243,454.213335L35.533416,456.614149L31.202449,460.384673L29.737323,462.506469L29.222382,465.916329L29.710591,468.440936L30.845659,470.778186L33.592776,475.054555L34.797754,477.789930L36.952106,485.804007L38.419155,488.281764L39.722063,489.700969L40.284205,490.867723L40.507409,491.330948L40.473882,494.417601L39.925178,495.836805L38.030923,497.864908L37.347608,499.003081L37.068357,508.136555L36.655147,511.354344L35.608871,514.356676L33.541707,516.328565L31.693426,516.487814L27.866700,514.960889L25.959982,514.572131L23.219286,514.960889L21.926088,515.860182L21.010333,517.274696L19.368488,519.255951L13.913506,524.014707L11.432663,526.670428L9.532587,529.822632L8.067806,531.363604L4.441094,532.361254L2.697595,533.541573L1.427738,535.906893L0.848581,538.778062L0.620608,544.412669L3.021909,544.848103L9.041252,545.939585L13.701790,548.534405L21.599708,550.454758L25.305879,553.620997L32.387253,556.047197L34.045410,554.520284L36.822512,549.621044L38.226113,548.183121L39.671556,547.752212L40.582217,547.948931L41.279757,548.754543L42.052304,550.117525L42.675880,551.780270L42.838636,553.583527L42.513591,555.428937L41.711090,557.213458L43.345406,558.941773L48.686320,559.644340L51.082613,561.054157L51.870519,563.297686L51.946627,568.852641L52.497845,570.477909L56.185655,573.873640L57.454132,575.836138L58.611147,578.510566L58.984372,580.782190L58.989907,581.628333L58.999686,583.110018L59.325749,585.035042L60.612767,586.159143L62.187904,585.779759L64.190861,584.557299L66.514317,583.494086L68.989409,583.550291L72.641955,586.337126L75.503949,590.992776L77.353171,596.411872L77.892900,601.526520L80.726398,601.067514L87.628507,601.648298L89.599227,600.828643L91.345543,599.704545L92.747189,599.545297L93.680815,601.610828L93.249551,604.678677L92.002680,607.662218L91.663518,610.214853L93.976289,612.027458L97.330948,612.533301L98.039979,612.833060L99.078052,613.924369L99.747113,615.142139L99.956986,616.654984L99.808371,617.590215L99.756784,617.914906L100.769222,617.498055L104.880286,616.804863L108.894994,617.104622L120.506214,621.376180L127.441952,621.966329L128.910733,622.682939L130.180144,624.233251L130.001968,624.804665L129.910282,625.244935L129.809638,625.334443L129.668024,625.460386L129.623959,625.453780L128.980716,625.357344L129.113657,625.781757L129.733471,627.760093L129.415258,629.872450L128.661684,632.078480L128.076653,634.752881L128.354260,636.476488L129.617116,641.235137L129.446174,644.139036L127.802810,646.701022L132.058456,646.466837L135.220056,644.457528L138.241641,643.099253L144.787321,641.520844L146.300176,641.614518L148.724608,642.729240L149.872937,642.860384L150.111701,642.335809L150.214127,641.263240L150.436385,640.139149L150.994494,639.492797L152.035322,639.417858L153.279511,639.661411L154.502597,640.082945L155.474219,640.560683L156.794715,638.289084L158.580558,637.586527L160.519527,637.427281L162.309094,636.771562L163.691959,635.436704L164.325061,634.388630L165.081182,633.137000L166.246006,631.853662L168.231735,630.949705L169.614332,631.202626L170.656681,630.940337L171.653200,628.462651L171.416966,627.975544L170.137789,626.518907L169.871804,625.872554L170.061211,622.284822L170.193692,621.675938L171.815385,621.020217L174.171177,621.301240L174.543640,621.395672L178.290878,622.345711L180.815107,622.411283L189.197553,621.310608L193.355679,621.572896L195.019114,623.254353L196.698994,629.984859L198.706481,633.052693L201.347820,636.017484L203.612392,639.455328L204.505449,643.951687L212.123363,639.933066L214.566088,639.221142L214.905792,639.299378L215.786301,639.502165L217.967203,641.197668L219.020815,641.548946L219.785581,641.141463L221.994878,639.389756L223.274532,638.916701L224.851691,639.024427L227.888192,639.745718L229.428868,639.633309L231.082401,638.420228L232.571453,636.565478L234.307517,635.090109L236.701321,634.977699L238.073600,636.289139L239.166801,641.057156L240.250849,643.206978L241.022505,643.764339L243.151141,644.719815L244.063323,645.309962L246.345692,647.710628L250.436327,652.012340L253.112034,653.262888L251.432003,655.899810L247.455892,664.119692L246.378591,667.079784L247.127536,670.082027L246.161901,672.030440L244.413083,673.711882L242.822962,675.936631L241.950629,679.135585L241.457116,685.861345L240.790075,689.163334L236.036612,699.401833L234.644010,704.413352L235.925968,708.553707L237.503259,709.209419L240.982522,707.963566L243.201067,708.965869L244.279020,710.548945L244.896874,712.722161L244.959654,715.134243L244.373769,717.462018L241.316003,720.932604L228.228748,727.300407L230.391414,728.236473L231.438900,728.516755L232.982090,728.605264L233.493548,729.165826L233.381174,730.404964L233.520950,731.644101L236.456633,732.772600L239.937263,735.309880L242.726650,735.914696L247.327957,734.564923L251.952910,731.024532L254.721973,726.215499L253.735447,721.067174L255.473876,719.009319L257.872355,716.944086L259.892364,716.479409L260.509836,719.208466L259.431224,724.319913L259.754675,726.311384L261.840776,727.255490L259.660497,731.776865L259.208307,733.561812L260.281271,733.561812L262.538681,731.326941L265.300464,731.592470L268.290353,732.838983L271.237137,733.561812L271.136636,734.675560L268.861419,734.675560L268.749653,735.914696L270.202810,736.644901L271.635955,736.593271L274.179191,735.914696L279.680797,736.047461L280.681710,735.914696L282.363281,734.469037L282.329594,733.480678L281.911573,732.167783L282.422262,729.733764L283.372181,727.948817L284.292705,726.989960L287.207623,724.777214L288.565121,726.488404L289.798113,726.790813L293.044595,726.126989L294.468152,726.466277L295.476629,727.321872L297.604970,729.733764L297.279848,730.972901L297.177591,732.035019L297.259743,733.561812L291.960618,735.774556L289.390939,736.460506L287.294112,735.914696L286.018596,737.087450L282.393959,742.102998L280.855197,743.474898L278.068924,744.846797L276.630620,745.820403L275.119796,747.531588L274.707761,749.028875L275.107165,750.489283L276.066193,752.126709L276.834423,752.355359L277.910528,752.104582L278.840869,752.038200L279.167999,752.790530L279.349418,752.930671L280.079849,755.829357L282.781614,760.335963L285.284195,766.664385L286.823735,773.818888L286.647324,780.811118L287.636561,780.811118L290.672439,779.815390L295.821443,780.449706L304.776587,783.171363L303.120047,783.702418L298.177608,784.543255L297.131437,784.971050L296.601367,787.847596L296.749565,788.813821L297.627357,790.606130L299.471016,793.261403L301.736110,794.795560L304.836991,795.496257L309.213401,795.658523L309.115125,796.787013L306.863490,797.694231L305.043436,798.992363L303.737870,800.769919L303.038790,803.085903L301.395421,804.288150L301.326812,804.339380L338.005675,801.734483L340.334180,802.015499L343.771847,804.521225L345.636260,804.661733Z M426.602964,238.217745L428.305036,235.237679L427.454641,234.101713L425.598759,233.998444L423.404926,234.662320L421.075359,235.045893L416.864614,236.051655L409.392718,239.866192L407.784831,241.952231L410.581822,243.070749L412.756777,245.137623L416.751616,242.761608L421.239670,240.828991L423.787665,240.165115L426.756156,240.283137L426.602964,238.217745Z M540.587837,180.586045L543.943437,179.542936L536.152974,179.432321L531.241728,179.115676L525.010243,178.694868L520.180341,179.321238L513.076022,181.517541L502.370214,185.285922L492.366642,190.295909L487.248728,192.603281L480.465701,196.906990L475.416628,201.102246L473.774524,205.501815L474.408437,208.326191L477.824748,205.911894L480.813529,203.079639L483.587978,200.457885L487.257993,200.030122L492.888420,198.167369L499.430984,193.449764L505.407501,191.143824L511.573454,188.002921L514.691719,185.701226L517.043725,185.107705L518.460230,185.048693L519.492657,184.576605L521.852285,182.968553L522.993086,182.393196L525.863466,181.891602L529.121206,182.670610L534.021974,181.418129L536.946290,182.465944L540.587837,180.586045Z M589.366125,178.043566L591.776670,175.405751L594.908105,175.192929L597.371734,172.114016L598.482132,169.472045L602.042013,169.039853L603.102031,166.838037L600.953818,164.628421L598.087417,163.410221L592.567160,166.017639L590.467840,168.571859L587.399265,173.412388L584.841621,174.728618L582.114401,179.238826L580.142408,182.428450L580.552049,184.081421L589.366125,178.043566Z M918.914234,0.000000L919.459665,1.106418L920.428014,1.674380L921.745101,1.733389L923.305012,1.364583L922.325917,0.833502L921.236631,0.420439L920.093266,0.140146L918.914234,0.000000Z "/></g></svg>