<?xml version="1.0" encoding="utf-8"?><!DOCTYPE svg  PUBLIC '-//W3C//DTD SVG 1.1//EN'  'http://www.w3.org/Graphics/SVG/1.1/DTD/svg11.dtd'><svg enable_background="new 0 0 1000 855" height="855px" pretty_print="False" style="stroke-linejoin: round; stroke:#000; fill: none;" version="1.1" viewBox="0 0 1000 855" width="1000px" xmlns="http://www.w3.org/2000/svg" xmlns:xlink="http://www.w3.org/1999/xlink"><defs><style type="text/css"><![CDATA[path { fill-rule: evenodd; }]]></style></defs><metadata><views><view h="855.062062284" padding="0" w="1000"><proj flip="auto" id="robinson" lon0="15.3218589458"/><bbox h="67.16" w="78.63" x="178.7" y="-778.64"/></view></views></metadata><g class="" fill="black" id="country"><path d="M623.595207,779.981279L621.296619,778.699227L610.438829,777.291516L605.358963,777.919954L602.392022,779.076298L601.347379,781.514751L602.515230,781.514751L603.963052,780.308081L604.938975,781.397435L604.778879,783.241004L602.737678,784.330414L604.838569,787.162980L607.230315,788.218944L609.467722,787.674198L611.108209,785.738299L613.907295,786.844518L615.317735,787.095935L615.904822,788.537413L619.370460,788.051329L622.494258,786.065134L624.265126,783.157204L623.595207,779.981279Z M699.689012,774.442680L700.565985,773.948338L701.389203,773.646707L698.204252,773.453999L692.855090,775.355969L689.853874,775.883839L691.865052,778.045643L695.389490,780.861135L698.921801,782.235414L700.809152,779.981279L764.125161,795.711849L760.658276,791.822783L751.643669,788.436843L747.929520,785.738299L746.170539,786.660147L736.263557,785.738299L736.678176,784.866747L736.822117,784.757804L737.315138,784.330414L733.249478,782.746587L724.449474,781.238220L717.718937,777.668578L709.314861,777.576407L706.284660,775.883839L705.121084,777.291516L703.511678,776.311166L701.733603,775.816808L699.904374,775.716261L698.027565,775.883839L699.689012,774.442680Z M592.069102,738.541403L587.294450,736.816320L583.572154,734.873553L579.654574,734.848431L575.736382,734.287383L571.968274,734.396243L568.544067,736.405990L571.455200,737.402509L578.252055,738.189684L581.572903,739.094107L581.693935,740.626627L570.471042,746.254506L573.511627,748.004931L576.514976,748.926224L576.476204,747.904427L579.619382,747.602915L588.049434,749.872656L607.377499,753.264838L615.364681,752.209475L627.689682,747.912802L634.894798,747.519163L650.856359,750.467323L658.535311,749.060231L662.145802,748.875971L665.525347,750.467323L666.567055,748.926224L660.112744,744.872621L657.260820,742.586287L654.103213,739.094107L650.649486,740.174405L636.861613,736.405990L617.110618,738.072444L613.345823,739.965044L611.023921,740.626627L601.705540,740.626627L592.069102,738.541403Z M896.843285,853.062062L896.817361,850.003262L895.769199,847.690601L892.665485,846.156004L891.275650,845.420697L888.881326,843.081656L886.825643,840.359157L885.331103,837.168037L884.899513,833.588300L885.282153,826.941001L884.199025,823.601748L881.327647,822.691085L875.160250,822.094638L872.506779,820.630179L872.374591,820.474735L872.373058,820.472933L868.535587,815.960196L866.552111,814.676964L861.944627,814.943192L852.390335,812.126577L846.521442,809.411283L815.129759,791.552572L805.445684,786.262662L801.184527,783.272011L793.216778,775.891842L788.811956,773.061339L782.701954,771.566333L780.741391,770.502295L774.768048,763.059855L774.217551,760.708671L773.994474,755.745928L773.332264,753.746040L771.157264,751.379226L769.608779,751.427094L768.337438,752.464228L767.034313,753.123746L763.352594,752.559964L755.998623,750.065546L752.184984,749.395419L748.475475,750.182553L746.344935,752.347217L744.441537,755.276798L748.971266,757.653983L753.730377,756.079219L754.907234,757.360806L753.118402,759.898924L754.864233,762.336613L760.374141,765.913733L755.939770,764.900056L748.183852,758.541898L745.698300,758.893717L744.628437,758.893717L742.548550,756.606929L739.236074,755.199713L732.393060,753.264838L729.582708,751.539411L727.949103,750.768846L725.812665,750.467323L724.931304,750.224430L723.232599,749.169112L722.198487,748.926224L721.554577,749.370124L721.797963,751.304890L721.194280,751.732054L719.261324,751.539411L717.783455,750.969862L714.572605,748.926224L713.728118,748.792217L711.756901,749.143986L710.947186,748.926224L710.275417,747.854175L710.021822,746.631388L709.900822,745.500747L709.557437,744.705122L704.408960,740.877862L698.096790,737.410883L671.706971,728.141219L657.659298,726.449847L643.197074,727.856531L640.118692,726.868501L634.239158,722.816020L630.527513,722.229932L631.726593,723.502584L632.660642,724.758508L633.745120,725.813498L635.392817,726.449847L635.506231,727.856531L633.928384,729.983346L635.736642,732.093468L639.057231,733.843571L641.931188,734.873553L647.634205,736.029159L665.812415,736.054281L667.882223,736.405990L669.234535,736.983802L672.097458,738.717263L678.008970,740.367018L692.292251,748.926224L703.792063,751.103873L708.353104,753.692014L708.392044,758.893717L723.290675,763.986922L732.782363,765.503234L742.211810,769.273226L750.026534,770.655615L758.867790,773.839415L762.471834,775.883839L762.796303,776.939594L762.662281,778.498123L762.767184,779.755033L763.884354,779.981279L764.980168,779.285783L764.904579,778.380813L762.227814,773.294806L760.505233,771.309118L757.095857,768.594611L759.587581,769.474299L763.879265,772.431820L765.059769,773.085342L765.499293,773.521027L766.592360,774.291864L767.704617,774.627013L768.508186,772.934528L769.589727,772.239115L770.868055,771.736412L771.977741,771.543711L776.896242,772.515604L782.337718,776.068176L787.062410,775.883839L785.373802,780.433775L789.238682,783.903028L799.807371,788.537413L807.496668,794.454577L811.943370,796.382406L814.301337,794.169599L815.293515,796.524901L816.803224,798.092367L820.724972,801.202293L817.316897,801.202293L818.623213,803.323187L820.792148,804.622593L823.516511,805.251350L826.439067,805.427404L829.256695,806.005869L836.605893,809.644488L845.533412,811.053059L846.644271,812.168206L846.809544,814.759137L846.662173,817.601778L846.767251,819.488582L850.265748,823.631435L881.314606,840.752058L881.773969,843.671888L884.369577,845.031189L890.209554,846.541577L892.638475,847.900973L896.843285,853.062062Z M492.529489,717.516252L493.310863,716.486474L488.142199,714.778574L481.316895,714.627879L474.981151,715.799961L471.195016,718.018586L469.998415,718.160915L469.168386,718.378595L468.462754,718.772093L467.803968,719.416765L470.460824,722.229932L471.515720,722.229932L473.153282,721.861536L474.699847,724.306373L474.498004,727.488111L470.994571,729.246491L475.183121,730.469005L480.984118,730.075454L495.844272,725.980958L497.718710,724.540813L499.553763,722.229932L501.453268,720.940553L502.517896,719.986090L502.892399,718.721860L502.494862,716.804616L501.859714,716.486474L501.158663,717.114386L500.506609,718.018586L498.179760,716.637172L496.062570,716.536707L492.262724,718.018586L492.529489,717.516252Z M552.799789,685.714928L548.091860,685.974394L545.603278,685.714928L547.219967,687.229884L551.946204,689.665566L556.948294,694.009729L552.133628,694.160396L547.112011,690.795537L541.674971,687.958073L535.651728,689.665566L535.552114,688.393314L533.791035,690.343547L533.344699,691.197306L532.157083,689.665566L528.164578,691.992479L526.257743,692.260328L524.039115,691.197306L522.158904,691.272638L521.414872,691.691150L520.764738,692.603510L528.556576,695.415964L530.501989,695.817749L533.699279,697.684389L538.914786,698.571681L553.693556,703.410055L572.790170,707.009673L576.673549,706.641335L619.315913,706.641335L661.958277,706.641335L655.246291,703.954176L647.447254,703.242634L631.930580,703.845352L621.542365,701.467984L610.932779,700.982472L607.744460,700.145386L605.193537,698.086181L602.526570,699.425497L586.012377,699.509205L581.959622,698.956735L578.127264,697.684389L574.618395,695.415964L575.143383,695.215072L575.614956,695.215072L575.830816,694.963958L575.671876,694.009729L573.450299,692.754176L571.928706,691.055013L570.733471,689.447943L569.498889,688.393314L567.132649,687.581423L562.026231,686.836496L559.878239,686.853236L558.741208,687.204774L557.152505,688.334724L556.505373,688.393314L552.799789,685.714928Z M592.514986,662.373042L590.635328,661.569644L592.963262,661.569644L592.851157,660.172074L571.662353,655.268088L538.589587,654.180186L531.513508,651.753343L530.407293,651.602712L526.886629,651.753343L529.546832,656.523365L532.174842,660.172074L530.197210,660.573770L529.124575,661.561275L529.118712,662.900273L530.177174,664.381549L529.264444,664.582401L528.462737,664.431762L527.979592,664.632614L527.998072,665.929787L526.833963,665.929787L525.818767,665.176588L524.384598,664.381549L527.372274,667.494773L541.340790,674.349067L552.341162,677.261595L563.396203,678.567228L594.827364,677.738652L600.363072,676.583675L603.165672,672.817499L604.571434,673.579097L605.706811,672.357195L607.580398,668.599478L606.185189,666.590929L604.899799,666.289649L603.431069,666.465396L601.544807,665.929787L598.084031,662.699423L596.455162,661.569644L595.504579,662.674317L594.159333,662.833323L592.514986,662.373042Z M504.929653,649.795146L501.195323,648.088010L491.446730,647.410178L489.018147,647.887170L488.238787,649.092206L488.850175,650.548297L490.619651,651.753343L490.135201,651.937447L489.707053,651.954184L489.492929,652.230341L489.675655,653.159236L494.014996,653.736658L502.679410,656.841370L514.560453,663.151336L519.300862,664.230910L521.725729,661.569644L517.276005,658.531822L513.924441,655.000297L510.541396,652.657130L505.967347,653.159236L504.929653,649.795146Z M509.479479,629.661419L505.323109,628.381117L497.433071,627.326752L494.724111,628.272334L495.563627,629.987771L494.162304,631.017034L491.844553,630.765994L490.689786,630.514954L489.936327,630.439642L488.753067,630.891514L488.785349,632.021195L490.008110,632.791052L492.162035,633.427022L494.876747,633.795216L496.947473,633.360078L498.347858,632.673900L500.823095,632.456332L509.664871,633.803584L515.986804,633.201085L516.653879,631.996091L509.479479,629.661419Z M395.740256,599.536592L394.057537,597.946638L392.537734,595.946634L390.470525,594.390138L385.247013,593.896409L384.517808,593.578414L383.733379,592.524007L382.561382,594.047038L385.347479,595.235333L393.092608,600.013577L394.742028,601.712309L396.274311,601.118172L406.516383,603.754127L395.740256,599.536592Z M340.629929,570.313514L338.262631,568.204482L336.070487,565.844344L322.466017,556.554102L321.442924,554.478364L317.754907,551.666025L315.653764,552.963391L316.791971,555.482757L319.450398,558.194583L321.856011,560.094504L326.687323,563.032222L330.471303,567.124849L333.845998,569.033033L344.162909,573.041828L345.709480,573.954047L340.629929,570.313514Z M351.760328,547.899404L350.330241,545.388261L348.701133,543.170042L347.239335,541.713528L345.883303,540.935039L343.525589,540.056094L342.427213,539.026463L341.971047,537.904741L341.231549,534.455791L340.715845,533.275422L339.767800,532.965677L334.837170,532.011323L325.307359,525.983614L322.495097,524.911983L319.261415,524.861750L320.942849,527.071977L325.849788,531.642973L326.980569,534.053965L328.261018,535.686376L331.105853,537.745690L334.305226,539.553836L336.621252,540.432786L336.266517,541.236391L335.556136,541.713528L337.182686,543.722508L339.545265,544.852544L343.984075,546.041163L344.684217,546.727544L345.099171,547.665033L345.755301,548.502071L347.135073,548.853625L348.606071,548.945699L349.936973,549.196808L351.211915,549.623693L352.503721,550.276573L351.760328,547.899404Z M312.407534,513.508384L283.291307,493.812143L285.041812,497.011451L285.815174,498.158813L285.252028,498.569179L285.105193,498.636177L285.062853,498.812048L284.759216,499.565773L288.030634,501.676164L294.395043,508.157721L299.201074,511.423425L303.014383,515.065789L306.476637,517.301372L307.993523,515.032297L308.451561,515.819363L308.820916,516.338488L309.193358,516.899474L309.468689,517.828860L310.517529,517.828860L312.235184,516.790626L313.887000,518.607528L315.722765,521.420725L317.998256,523.455215L316.319138,517.527439L312.407534,513.508384Z M244.975438,496.056698L243.508409,494.641296L242.507812,492.421824L242.297932,495.646318L245.072421,497.982941L248.688227,498.971168L250.840868,498.217437L249.817837,496.651327L248.656622,495.847321L247.495093,495.805445L246.257644,496.626202L244.975438,496.056698Z M271.235351,508.417307L269.660350,507.244976L267.295273,506.591812L265.851573,505.896773L264.767741,504.263826L263.859541,502.387989L262.901948,500.972707L252.881646,494.381664L249.328157,490.997975L248.701579,490.914218L247.949690,490.813710L247.011441,490.997975L249.488838,493.996400L250.449567,495.847321L251.002161,498.158813L266.373299,511.582520L271.258183,513.491637L274.861663,516.371979L282.521824,529.106348L286.920612,533.400993L294.319983,542.475271L297.012622,545.120403L299.725151,547.087474L306.049629,550.276573L306.568283,550.946190L308.278516,552.419336L310.031290,553.340043L310.729457,552.310524L310.210791,550.510939L309.226686,550.276573L307.936817,550.393756L306.536891,549.573471L305.481728,548.744811L301.016104,546.041163L300.223921,545.028327L299.709212,544.032223L298.913307,543.345827L300.944518,542.793359L309.856669,548.694589L313.965392,547.464143L313.210164,545.078550L300.391489,537.494556L295.272366,531.492284L294.659381,530.470943L292.154852,530.203048L290.236593,529.265412L281.734842,521.697016L279.985370,519.654115L279.111605,517.125542L278.713987,514.312210L277.890002,512.277510L276.396830,511.096860L274.015519,510.795415L274.345950,510.025049L274.971488,507.998619L272.758382,509.062083L271.235351,508.417307Z M231.517673,472.585745L233.093655,472.267380L235.514582,472.200355L235.762423,471.044173L232.489119,468.446870L230.071914,467.022496L228.971284,467.240343L229.081615,468.782012L228.537577,469.460669L226.829272,469.469048L226.699789,471.127955L228.617906,473.281115L230.574508,473.658120L231.517673,472.585745Z M213.168097,463.603857L209.900369,460.084461L204.582672,456.983862L201.377143,455.684911L202.142205,457.344210L209.635537,462.950271L212.542975,464.307711L213.168097,463.603857Z M237.922912,455.081517L236.722890,451.419110L235.254807,449.390851L235.008375,448.644902L235.410232,447.337370L236.199291,445.669382L235.751649,443.657668L234.186288,441.805146L232.110164,440.891434L230.225519,441.109385L229.472427,441.360866L228.872000,441.629111L230.144454,448.041430L228.558106,450.505564L228.404531,452.206925L231.618858,454.578684L233.561574,455.735193L236.303902,456.514567L237.922912,455.081517Z M142.753689,400.989548L141.661755,398.338214L140.395563,396.542594L139.954796,395.938442L139.822894,394.830808L140.102370,393.706360L139.752764,392.632232L139.782829,391.876968L140.119369,391.574859L140.348229,391.306315L142.558066,390.853144L143.460540,389.594308L143.389184,387.580087L140.886354,387.177230L137.487669,390.903497L136.318472,394.864373L136.080520,396.391556L136.041087,398.203965L137.339796,399.479315L139.487208,400.100195L141.557285,401.190908L142.753689,400.989548Z M239.956064,403.464535L227.900687,389.241826L220.880267,382.619628L220.335576,382.309054L219.578286,382.292266L221.605566,386.975801L224.940594,391.482547L243.959757,410.511166L245.929236,411.870028L246.164990,413.606290L251.463206,419.879757L253.799613,423.250969L252.849184,423.619943L251.275155,424.500436L250.332957,424.793930L250.424679,426.060126L259.603264,430.764042L261.165806,431.049113L272.194016,438.611273L275.570567,444.118693L277.503913,445.887314L278.998664,445.987897L281.575960,444.697064L283.157509,444.479128L284.649867,444.923381L289.158226,447.429569L288.419347,448.996924L287.604256,449.902113L286.416134,450.228984L284.616317,450.103264L286.160914,452.760065L287.091412,453.614907L288.507417,454.327266L288.619917,455.860900L286.305531,455.860900L286.399494,457.143086L289.084670,460.319094L292.251399,462.916754L295.857336,464.735046L299.831808,465.564571L299.738053,464.290953L292.392454,459.958765L292.298299,458.676643L296.331509,459.003461L304.052172,461.877704L307.727736,462.765925L306.812483,462.313437L306.087058,461.819048L305.580420,461.115164L305.205738,459.958765L308.677725,459.958765L306.597545,457.536954L303.820595,455.190464L300.718377,453.472435L297.660890,452.919301L297.557215,451.511301L301.446348,453.070157L305.786802,455.886041L309.891146,457.922440L313.098569,457.143086L310.726280,454.872004L305.683792,451.134152L303.107060,448.695191L299.149951,446.583010L282.287628,432.046848L275.002768,429.003272L276.935383,433.405076L279.551067,436.976536L282.438065,439.734600L285.264582,441.662641L276.664507,436.666349L261.519859,419.267545L251.921481,414.814084L251.819256,413.404988L254.763750,413.404988L257.120966,414.411490L259.040089,415.636037L262.505738,416.743133L269.743914,420.324234L269.389221,421.120928L268.801514,423.250969L272.345733,423.536085L277.294409,427.024424L280.644277,427.468834L278.053075,424.039227L276.140661,420.852570L274.181002,418.521139L267.749152,416.751520L265.086313,414.579238L260.831037,409.051601L255.774232,404.781672L249.759377,401.509727L245.727679,401.677525L246.787876,407.768150L239.956064,403.464535Z M166.385831,403.372250L165.246389,401.442607L164.096943,395.837749L163.124903,392.565098L162.186551,390.752439L163.043817,385.918277L160.092209,383.232375L155.680917,381.486439L152.173432,379.488589L152.640230,383.022531L154.353641,389.443245L155.354907,392.162292L160.317849,398.824864L161.717389,402.902432L158.936121,406.207825L159.671522,407.281603L159.909555,407.734596L159.911902,407.768150L158.756307,407.768150L158.846019,409.051601L160.897849,410.259521L162.934714,410.662153L164.644641,409.932379L165.689876,407.768150L168.910099,408.959328L171.644058,410.863468L176.767903,416.223137L175.575449,415.703134L171.949103,414.814084L172.048075,416.223137L174.471465,417.615371L180.525926,424.055999L185.349098,427.846159L189.107818,427.468834L187.514069,423.418685L172.904123,410.586660L166.385831,403.372250Z M220.773915,352.851449L218.257902,351.288879L215.025889,351.036844L215.877791,353.145474L216.392606,354.002330L212.944312,353.036265L209.368090,352.582625L210.195194,354.733161L210.627957,355.405176L213.047592,356.774366L214.573515,358.513077L217.007883,362.569736L215.853793,362.569736L215.088014,361.662697L212.180227,359.621775L212.581097,360.806028L212.638786,361.419136L212.822424,361.872662L213.449440,362.569736L213.541570,363.854668L211.642691,363.048441L209.588735,362.569736L207.475829,362.418564L205.370811,362.569736L212.888005,369.497749L214.620973,368.943557L217.153061,368.993938L219.894706,369.665684L222.219336,371.034330L220.217738,369.380194L219.735492,368.406150L219.620240,366.802280L225.369510,370.505350L234.151218,378.691098L239.167742,382.292266L240.550899,379.371065L238.933594,375.257500L233.559207,368.213017L231.602050,366.609138L227.371506,364.534907L220.326237,358.849050L218.993690,358.084707L218.902515,356.816365L221.405796,354.951567L220.773915,352.851449Z M171.563940,330.531692L171.720351,326.916736L170.292072,324.377612L168.171178,323.494756L164.253621,323.015481L161.918561,321.426252L160.930544,320.260132L156.272380,312.943345L152.697721,305.406110L151.324610,301.670478L150.550567,296.697374L150.573273,288.424011L149.074525,286.016517L144.880085,284.652753L141.858915,285.359897L139.633240,287.447566L137.977612,290.242142L136.441040,294.551383L136.789503,297.580977L138.475344,300.122250L148.130219,309.519846L149.234613,311.185378L155.177092,323.721779L157.914482,327.328694L161.466978,330.027304L160.330903,331.439570L157.853424,329.195047L157.779637,331.271446L158.774491,334.490859L159.474340,335.659182L159.009438,338.617626L158.104683,339.811014L156.387068,339.987497L153.428009,339.886649L151.787250,339.004221L148.474332,335.020392L147.217688,334.129426L143.123140,332.700468L141.643970,333.339304L143.427606,337.062796L142.627271,338.382305L142.489824,338.970605L142.388960,339.886649L145.967077,342.953954L149.481136,355.312775L152.408590,358.084707L154.205034,358.235897L155.097725,359.017035L155.481478,360.965605L156.152185,367.600025L157.004664,370.354212L158.180689,371.840379L159.649633,371.034330L160.323795,371.437357L160.775141,371.798398L161.278522,372.117455L162.047347,372.302171L162.231013,381.385710L168.606835,391.910536L176.752271,399.395412L181.703626,399.395412L183.594888,399.689073L184.738575,399.135310L185.839492,397.977418L186.918352,396.509030L185.564273,393.697969L183.530172,394.881155L182.397523,394.226631L182.198807,392.581882L183.059568,390.752439L180.695303,387.454195L177.839186,384.583743L175.339968,381.310163L173.991211,376.802238L174.073005,374.258423L174.950629,371.697643L174.630521,369.497749L173.897235,367.868735L171.622976,364.845630L170.596988,362.569736L172.981768,361.318352L172.451543,357.891519L169.838644,351.809744L168.783890,345.029476L168.823131,342.080011L170.134701,338.483157L168.798869,337.062796L170.398051,334.238697L171.563940,330.531692Z M182.777550,269.361342L180.353552,269.571898L178.079158,271.887932L179.695072,272.258483L180.626746,273.412217L180.919984,275.222744L180.782581,277.529973L179.030598,279.298180L178.977398,280.864229L179.674486,282.379690L180.188679,284.021362L179.943590,285.780808L179.159600,287.481237L177.175733,290.242142L178.875734,293.137476L176.245590,294.332568L169.907027,294.475639L168.406306,295.359302L168.338006,297.303276L168.585090,299.247132L168.002954,300.130665L166.069228,300.130665L164.468742,300.383098L163.099983,301.199286L161.866128,302.957806L164.415970,306.440904L168.287874,310.184387L172.750600,313.153621L177.075756,314.364786L190.721200,316.206676L195.132594,315.920728L192.716579,314.364786L192.616417,312.960167L195.481932,311.589131L196.524255,313.313431L196.627985,320.722630L196.986288,324.007657L197.835454,325.521084L202.841672,327.202585L211.367616,332.019589L214.286701,332.717280L217.409693,332.431481L219.848712,331.607692L220.411913,330.279499L218.004449,328.488872L217.911857,327.202585L220.106817,325.664015L222.106070,326.933551L224.236334,327.353916L226.319649,326.933551L228.176830,325.664015L229.219893,325.664015L226.253345,319.940584L215.585195,311.849885L215.239969,305.910892L207.731521,305.835175L204.654152,305.002279L202.354244,302.957806L200.973532,298.616023L202.468863,291.353172L201.250765,287.556996L197.691876,288.592361L192.404967,288.087309L189.748698,286.597362L194.056842,284.728519L191.516131,280.055955L188.749413,276.241649L187.932084,275.542734L187.167090,274.616439L186.546760,273.412217L186.136598,271.887932L186.679919,271.820558L188.438724,271.887932L182.777550,269.361342Z M460.932847,0.000000L460.339230,0.656059L458.762371,2.398604L455.609113,3.328985L453.163924,4.689580L448.058228,6.464234L447.593724,6.952382L443.585118,11.164181L443.606977,12.922032L443.622875,14.202322L444.491312,17.046770L446.940112,22.778350L447.196763,24.461177L447.155812,27.810582L447.745054,29.547049L448.849961,30.606112L451.832249,32.229618L452.689752,33.218755L453.037951,35.026543L453.136011,35.535647L452.409470,36.169956L448.585566,36.116201L442.724455,37.379428L441.311507,37.433182L438.449377,36.874140L435.967249,35.664659L431.693669,32.369388L430.014575,31.686661L427.985681,32.030714L426.688651,33.315518L425.536102,34.895956L424.038406,36.051696L422.109868,36.358098L421.144499,36.186555L415.938865,35.261494L416.148560,38.981273L416.766264,41.964472L416.964115,44.668050L415.980941,47.522004L415.599916,47.908993L413.901167,49.634172L410.757369,51.633412L407.401918,53.148924L406.619889,53.342177L404.705246,53.815307L399.205059,54.675147L394.402511,57.041397L388.733577,59.833938L388.263047,59.846171L388.000633,59.852993L380.465996,60.048878L377.848778,60.639961L375.387829,61.682401L374.821217,62.078444L373.173730,63.229908L370.168241,68.162327L367.106757,69.946065L355.029949,69.178740L352.224371,69.000476L348.748972,70.590777L346.734838,73.181929L346.168090,73.910931L343.467026,79.046592L341.515053,84.933776L341.900499,90.165122L344.598188,94.848209L348.143832,97.876586L349.565375,99.090569L351.689820,100.143052L356.512777,101.829130L358.656686,103.128556L360.309040,105.104390L361.252145,106.232013L360.692624,108.401103L358.932235,110.945912L357.974841,115.144035L357.960006,115.176245L358.487099,119.471841L359.269334,125.847147L359.276232,129.303429L358.610118,131.900847L357.621070,134.358607L357.154330,136.848437L358.069390,139.499106L360.367653,143.673340L360.700067,146.634784L359.178531,148.716265L355.865635,150.282680L352.650778,151.098052L346.163239,151.301893L339.791920,150.373271L335.342898,149.724785L333.784205,150.432881L330.832790,152.664385L329.207115,153.179332L327.260021,152.889676L325.310725,152.342540L323.405730,152.149432L321.625279,152.911132L320.974887,154.852871L321.798432,157.019797L322.208421,158.993540L320.414332,160.337869L320.304504,160.420159L304.207786,165.154362L299.735480,166.469377L293.214430,169.740328L291.899314,171.177325L291.193712,173.196759L291.056263,173.590085L291.451031,174.458646L292.722512,174.984063L294.440137,176.367274L296.315313,179.155004L297.276899,180.173553L298.840395,181.117028L301.080546,181.824621L301.743416,181.406500L301.906201,180.570244L302.627977,180.012731L304.623182,179.540983L305.226215,179.251499L305.776764,179.648199L308.694032,182.349426L309.041983,182.671573L312.082117,186.616643L313.140493,188.449688L309.666730,188.428249L307.376288,189.135719L305.365516,190.100431L300.537012,191.461708L299.680530,193.005149L299.178457,194.644992L298.097522,195.513118L296.066279,196.445528L296.367562,198.149534L297.732813,200.378565L298.824011,202.701628L298.910658,202.886078L300.322836,208.286340L302.013565,212.764570L304.693702,216.299653L313.527756,221.248227L312.003499,222.469206L309.271450,226.121199L307.899976,227.299186L306.059038,227.781079L300.594295,227.684701L291.446873,230.694313L284.612748,232.942303L276.982751,232.021473L264.011341,222.926471L262.244810,221.687356L254.028416,221.494568L252.263369,220.177161L250.330829,219.416687L248.811577,219.238301L246.317072,218.945399L243.242657,216.588873L239.261904,214.425028L236.211922,214.532152L235.926109,218.945399L233.047127,223.786534L226.015077,226.024816L218.917871,224.739694L215.856607,218.945399L215.838455,218.934687L215.818751,218.902554L215.801375,218.902554L199.769606,212.957401L196.256019,210.482665L196.126864,209.411302L196.453908,205.747022L196.025642,204.139775L194.971319,203.003948L194.906863,202.972655L193.801569,202.436023L192.589761,202.007394L186.537938,198.020932L184.225981,196.048989L182.493298,193.433873L182.136720,190.636372L182.055161,186.831039L181.462564,183.647155L179.556592,182.725177L177.618450,183.462962L176.768428,183.786522L175.555404,185.030084L173.754906,189.232191L172.143069,191.461708L168.199632,195.577423L166.779379,197.581540L165.908250,200.228538L165.841458,201.111009L165.487123,205.789881L164.809728,208.725615L162.833964,212.218211L156.545910,216.406772L153.614329,218.934687L147.374413,222.115769L139.684144,222.726249L131.791451,221.441016L124.924002,218.902554L121.185026,218.109919L116.951821,219.202465L109.183646,222.447786L104.887312,223.143941L104.488374,223.125018L104.391592,223.120427L100.371538,222.929741L95.866682,221.612383L91.460445,218.945399L91.459708,218.934687L89.100803,216.974496L86.609876,215.871176L82.102555,215.055259L79.449641,214.575001L78.331775,215.249874L77.841462,216.717415L77.993895,218.945399L81.809178,222.640569L79.829478,225.200201L72.154558,228.102338L69.846109,230.190453L68.504955,232.192792L66.793169,233.349175L57.729008,232.214207L55.037527,231.486096L52.661951,229.515843L44.424834,225.157364L27.767181,225.818722L22.576094,226.024816L15.523710,219.837618L11.980419,219.432794L4.119655,216.227790L2.400293,215.055367L1.346895,215.055367L0.585438,217.813457L1.307371,220.866525L4.395575,226.381673L4.005649,227.933191L3.658465,228.270469L3.722698,228.413811L4.591026,229.332875L4.258345,229.889362L3.754714,230.344663L3.438776,230.740939L9.273205,243.183539L11.379850,245.012482L11.465959,246.310385L9.101509,247.203720L9.370513,249.403252L11.107948,251.855445L13.093221,253.498573L14.673007,253.776633L19.201631,253.911449L21.218506,254.787743L18.809094,256.658220L17.375169,257.340667L15.667770,257.618697L16.359177,259.160461L17.398098,260.365179L18.787350,261.275009L20.547357,261.991063L20.633110,263.279922L18.838449,263.279922L17.565253,263.911698L16.717284,264.964633L16.239455,266.228112L18.463257,267.323091L19.762521,269.142362L19.985830,271.264724L19.011310,273.302741L20.011208,275.357477L20.164250,277.041595L19.577169,278.313048L18.243209,279.070844L18.328737,280.359060L19.792799,281.352552L20.498561,282.278662L20.458265,283.322609L19.770303,284.728519L21.555172,285.595608L21.852563,286.976168L21.519306,288.769127L21.335106,290.949165L22.228484,292.632494L24.154795,292.733491L28.278145,291.647757L36.129682,291.370006L40.055139,291.841340L43.437241,293.204806L28.717818,294.130583L24.511048,296.646882L28.945891,301.670478L28.358439,302.528702L27.590999,304.598443L26.923941,305.910892L30.429575,306.440904L33.424372,308.358968L35.676756,310.453564L37.086357,311.429313L46.469528,322.056908L53.873329,328.488872L58.230731,336.533296L60.284152,338.483157L59.568361,339.474853L58.851087,340.853091L58.204155,341.441346L58.289560,342.710261L60.152703,344.684965L61.936460,345.071489L66.431432,344.121976L65.195439,347.172086L62.885188,348.348364L60.358682,347.743426L58.479578,345.533632L57.302665,346.819195L59.508524,348.986897L62.379987,350.633586L65.084577,351.431697L66.898372,351.036844L68.156496,352.582625L67.098590,354.002330L67.649722,354.027531L68.863693,353.901524L69.406198,354.002330L69.093909,354.665959L68.752525,356.119178L68.442462,356.816365L70.296830,357.017959L75.417129,358.790255L76.709869,359.621775L77.383592,362.670516L77.556845,366.038107L78.322662,368.011487L80.741539,366.802280L79.913952,365.945733L78.173633,362.569736L78.855010,360.461675L77.887061,358.748259L76.043277,357.488340L74.184478,356.816365L75.270254,355.405176L76.925734,356.320776L78.602301,355.925979L80.153854,356.320776L81.408263,359.621775L82.174258,359.168221L82.186330,358.941442L82.457830,358.084707L85.024811,359.470591L88.019657,359.873747L94.102169,359.621775L92.980666,358.084707L92.146620,357.135555L91.075113,356.732368L89.295046,356.816365L89.783241,355.111171L89.760903,354.581956L89.441530,354.128336L89.006530,352.582625L90.284281,349.969879L90.992064,349.070914L92.151891,348.356766L92.046933,346.819195L90.893369,346.819195L90.805652,345.533632L91.959174,345.533632L90.598783,343.306886L89.670644,342.382533L88.247095,341.441346L90.915454,341.508575L94.587039,340.584171L96.320792,341.441346L96.470408,340.617786L96.397019,340.147171L96.590323,339.962285L97.450147,339.886649L97.354078,338.483157L96.402347,337.415791L96.334055,336.819059L97.026177,336.701392L98.410089,337.062796L99.016712,335.096039L99.078168,333.188002L98.713003,331.464788L97.928194,330.027304L98.875305,330.027304L99.645645,331.052884L100.644261,330.002085L102.726400,325.941468L104.458045,324.377612L103.621229,322.384844L102.338354,321.888734L100.735523,321.728968L98.909732,320.722630L98.055160,319.066016L98.517263,315.399286L97.705180,312.960167L99.680337,313.153621L99.941672,314.162929L99.781980,315.634777L100.396987,317.199065L104.158094,320.016267L105.792292,323.822677L105.198856,325.571531L103.979752,327.404359L103.790193,331.439570L104.943244,331.439570L105.629633,329.842360L107.063174,327.934010L108.915377,326.328216L110.887160,325.664015L112.755808,326.092805L114.093486,326.782218L115.462701,326.933551L117.310231,325.664015L119.135320,321.888734L119.215420,317.098146L117.770698,312.674189L114.966711,310.016150L114.878391,308.737520L115.512197,309.174952L116.697068,309.646026L117.381131,310.016150L116.413418,306.138041L116.355112,304.699402L116.893048,302.957806L118.041948,304.497483L120.578513,302.108007L122.515058,299.179815L122.670577,296.083046L119.783479,293.204806L124.932497,294.888018L128.537225,290.132720L128.730735,289.366758L128.818752,289.055318L130.552786,282.455462L131.362478,268.114822L133.140696,261.005433L135.865126,254.711911L139.017198,249.849884L141.939353,247.776791L144.684989,248.265580L147.772109,249.715052L154.378497,250.962225L173.150153,259.008815L175.654121,261.283434L177.178066,262.294328L178.904779,262.302752L180.294546,261.426646L180.768438,259.809160L180.207816,259.438476L176.973167,256.329630L183.390446,260.272510L185.430820,261.991063L183.281715,263.936969L184.730170,266.767183L187.736517,269.344497L190.160188,270.473064L199.487549,280.359060L218.574251,292.615661L229.276897,297.454749L231.953875,299.196644L233.860106,301.653650L234.734931,305.204195L245.918144,324.848459L247.493792,329.522909L246.638465,333.423361L245.248496,336.583725L242.571141,349.625419L242.420117,353.221079L243.660651,364.635682L244.584292,368.842793L245.930780,372.436509L246.372525,375.492573L244.635870,378.078278L248.105820,384.978233L266.670251,408.003033L267.820610,409.814943L269.178690,409.949156L274.964380,413.807591L275.739820,414.814084L280.629111,416.751520L285.699271,421.330583L294.356349,431.049113L319.387506,452.039306L321.943744,454.184795L339.063281,461.140303L340.490002,461.978258L346.021281,467.759823L346.923412,468.396599L358.137502,469.812562L360.584495,471.194980L360.177850,473.482185L356.534229,473.783788L343.002242,471.982525L340.234512,471.094442L327.656189,465.045072L322.744456,463.478168L317.711668,459.715750L314.369404,458.676643L315.849512,461.173821L317.582992,463.369237L319.586964,464.936144L321.907270,465.564571L321.158828,466.620313L320.720552,467.399539L320.019278,467.977668L318.561997,468.396599L321.379760,475.543111L318.702714,475.316915L316.712616,473.942967L312.886732,469.921481L304.147963,465.045072L304.734624,465.899729L305.828301,468.396599L304.560443,468.396599L303.750610,467.692794L303.684176,467.726308L303.518415,468.094969L302.245226,468.396599L306.226602,470.993903L304.793612,474.177545L301.293964,475.693907L299.165999,473.373272L297.608490,469.435534L294.709949,468.999853L291.710910,470.574991L289.856539,472.728171L293.586978,474.730477L297.380325,478.709768L299.106863,483.258426L296.686422,486.910530L306.156766,494.934429L308.956942,496.626202L308.447853,498.703176L309.245435,500.168748L310.872385,501.282564L312.847586,502.253999L321.027043,509.522633L320.952375,510.192521L328.623837,517.828860L332.121979,519.034537L335.463648,521.847720L340.299689,527.674758L350.308386,537.494556L351.609410,539.202254L352.406594,540.633687L353.415419,541.939540L355.377226,543.245379L356.700978,543.772732L358.223177,544.182895L360.844662,544.517720L363.371307,545.430114L365.689497,547.614811L369.480771,552.310524L369.787180,552.528147L374.664421,556.035171L386.024306,560.847771L390.859378,564.312748L391.014467,564.170468L391.371781,563.961232L392.058922,563.911015L393.084204,564.312748L393.199866,565.844344L390.501225,565.610003L387.775498,565.015778L382.554681,563.032222L385.427151,566.128902L389.835964,567.233649L393.980172,568.857280L396.113914,573.502123L398.610036,575.803579L409.653540,576.514933L413.333514,577.644726L415.381033,579.301744L422.524005,582.691061L423.765330,583.921245L426.349665,587.168233L427.492289,588.189185L428.539839,588.507186L430.122881,588.774976L431.295735,588.741502L433.788581,590.599287L438.173041,593.678834L439.607278,593.444521L439.186695,589.578344L441.260984,591.201810L441.731438,593.009370L440.756183,594.540767L438.465818,595.335752L440.315373,596.189313L441.917497,597.603542L442.283516,598.950820L440.530152,599.536592L439.214909,599.160024L437.767914,598.507306L436.084627,598.381784L434.139500,599.536592L436.959427,599.511487L444.704702,600.942441L444.822080,602.473808L438.561556,602.373390L436.849499,603.503084L438.162637,606.565798L437.034416,608.097149L438.387055,609.502977L437.239530,610.783282L437.966305,611.059426L439.753308,612.172369L439.014202,612.640976L438.219940,613.293679L437.463114,613.712078L437.560193,614.984010L440.521016,614.975642L442.113452,616.255941L441.831471,617.636655L439.030539,617.929534L442.995220,619.101048L444.457307,620.121938L445.164511,622.130248L446.060038,621.352028L447.031623,621.025677L449.791862,620.741167L449.053559,622.305975L449.468417,623.385441L450.014020,624.364492L449.544504,625.644790L448.034289,626.531795L446.702790,626.498323L445.832412,626.883250L445.701797,629.159340L446.533725,629.176076L446.705566,628.707468L446.645665,628.104974L446.757232,627.753519L448.096429,629.335067L451.885897,629.284860L454.032954,630.565162L453.925216,629.159340L454.977371,629.159340L457.556486,631.017034L459.532608,631.870571L464.077361,632.096507L469.726737,634.079729L472.237093,634.314034L471.678422,632.096507L482.145457,632.096507L480.642463,629.134236L478.117751,627.636367L472.397805,626.347700L472.289283,624.941882L492.992145,624.515115L499.899665,622.565381L502.966196,622.130248L504.127791,621.762057L507.159321,619.996419L509.123620,619.452502L525.658230,619.745380L529.623935,620.540336L532.572951,622.130248L529.746140,624.021406L526.178748,625.477431L522.354720,626.314228L518.965805,626.347700L519.076155,627.753519L531.853790,627.753519L538.402156,629.159340L539.256477,628.933404L540.717716,627.979454L541.738115,627.753519L542.684909,628.171918L543.186266,629.084028L543.414062,630.037979L543.691148,630.565162L559.956333,640.456205L571.710059,642.665396L581.991222,646.531510L604.031174,649.318151L605.453815,650.297246L606.796092,651.652922L608.663187,653.159236L613.642296,655.971043L631.178501,674.349067L631.930552,674.734054L634.136500,675.269688L634.914283,675.629569L635.254751,676.407918L636.040661,679.086137L636.430220,679.956567L638.393593,682.450713L639.656870,683.664323L640.820785,684.166510L642.562574,684.442713L644.340489,685.162517L645.704730,686.250601L646.979370,688.962478L648.314918,689.866449L651.266273,691.197306L657.463093,695.415964L682.908323,706.641335L693.122988,717.625091L699.248479,722.229932L702.694440,719.416765L702.989804,720.304243L704.203717,722.229932L703.043549,723.644921L704.241590,725.378104L705.737766,726.181910L707.422948,726.416355L709.091537,726.449847L705.947265,728.718973L704.783002,729.246491L708.065232,728.141219L711.057883,726.558697L713.757293,725.629292L716.212924,726.449847L712.472220,728.216578L711.209240,730.067080L712.056298,732.587513L714.704736,736.405990L716.632410,738.558151L719.774622,741.288216L723.137410,742.988275L725.640746,742.025183L731.056716,744.696747L731.158112,744.746997L731.161729,744.748777L740.206085,743.034839L744.758472,739.886660L743.700430,734.186228L743.681908,734.175593L743.661165,734.138372L743.643087,734.133054L737.514789,723.243783L731.880140,717.826103L729.906565,715.928307L705.509812,702.344289L703.928828,701.463758L701.095224,698.731605L698.794453,694.771690L697.019282,690.562093L695.711297,688.377621L693.794906,686.926641L690.182461,684.981395L682.772528,679.262735L675.440184,670.403466L670.792918,660.141697L672.568294,642.855481L669.420731,637.541720L663.887159,634.417255L647.243515,632.169561L636.941956,627.254412L632.912343,624.270317L627.155729,620.006587L618.204283,611.531298L589.363104,587.342885L569.405578,574.137287L566.691668,570.730799L564.901258,566.362323L564.008909,562.902538L562.487378,559.910373L555.028560,554.207555L548.963994,547.489298L540.051068,539.999926L534.738390,533.748832L532.696624,531.345866L529.850519,528.634680L526.709196,526.614533L519.088523,524.254097L517.511152,521.829804L516.499263,518.799349L514.058583,515.651820L512.310522,515.045695L507.916886,515.332808L506.081617,515.173301L504.351100,514.343861L502.338325,513.046516L498.852906,510.185907L496.078474,506.559490L491.676690,498.508463L488.928429,494.753861L481.027632,487.829138L477.983294,484.297370L474.119055,475.445848L472.003203,469.008568L471.600031,465.880124L471.913681,463.634778L473.366788,460.303845L473.826135,458.579771L474.009795,455.131466L473.960818,454.981076L473.340843,453.077282L471.397592,451.501999L467.725102,449.511544L464.592153,448.819657L462.697997,448.755790L462.119170,449.405100L462.080654,447.797777L463.132506,446.935550L464.502473,446.115890L465.401627,444.646856L465.117605,441.474452L463.674197,437.567228L458.716904,427.419782L457.508926,423.383633L456.106419,419.762516L453.972884,417.515149L450.349389,416.993233L444.384026,419.379087L440.858669,418.995655L437.126945,415.736349L438.197807,412.434196L440.749317,409.302249L441.288625,406.585581L442.637215,405.956994L442.884298,405.765220L442.056537,402.995054L441.016726,400.416506L439.537837,398.477163L437.391147,397.603363L433.229254,397.091861L431.068593,396.484445L429.279051,395.482723L426.802451,392.605296L425.128547,387.468044L423.138792,385.229614L421.855928,385.123019L420.512860,385.815882L419.106718,386.146320L417.724608,384.984445L417.009688,383.193597L416.389766,381.050868L415.611823,379.121243L414.368857,377.948495L412.247549,377.831218L411.160268,379.121243L410.389296,380.890958L409.234448,382.212860L407.818306,382.639271L404.813546,382.841814L403.226016,383.310858L400.772258,383.641317L399.200657,382.276822L397.940004,380.187346L396.502198,378.289661L392.338670,375.901429L391.315035,374.845868L386.584349,368.693161L384.424988,365.109827L383.950791,361.654132L386.192539,358.806131L389.592356,357.867414L392.448915,356.672646L392.970740,353.024085L391.081432,349.097716L388.092651,345.384320L385.454432,341.232938L384.480795,336.045645L384.915564,334.556903L385.543718,332.405508L389.239806,326.063632L389.603631,322.411669L387.117036,316.145283L386.890065,312.289209L390.157676,303.368226L390.641282,300.151787L389.067397,287.870809L389.101248,286.277899L390.668126,281.766022L392.282904,280.385395L395.795089,277.381862L404.797849,276.087890L420.945035,276.472879L424.757991,275.820535L426.608776,275.895395L428.696436,276.772311L430.320027,278.611623L430.375426,280.429448L429.867695,281.947792L429.837779,282.899395L431.374665,283.850970L435.119070,284.535233L437.336423,285.946479L440.205508,289.666749L444.428177,297.747261L447.638282,301.134919L464.112145,314.511049L469.074016,317.095876L475.697688,319.530971L482.016973,320.759126L486.052366,319.787286L486.728095,316.878574L486.728596,316.876420L488.101199,310.964576L491.087410,305.387686L491.737077,303.710155L491.891334,301.284523L491.435228,299.938058L491.307175,298.773214L492.407999,296.860213L493.899196,295.909014L498.225716,294.701271L499.944127,293.546927L501.989322,290.393649L506.652122,279.755795L514.192083,275.050539L523.996869,275.339289L558.266508,284.032729L562.508737,283.540909L564.481567,281.915715L564.618692,280.408063L564.349093,278.611623L565.103194,276.141361L566.671742,274.686924L568.493260,273.981071L570.064644,272.986436L570.813900,270.676204L572.110385,269.938180L573.726669,268.226759L574.959074,266.504557L575.385006,265.552494L579.715228,262.161230L581.205423,263.348745L582.923245,267.702620L583.302446,269.339192L583.346010,271.125428L584.415388,272.269853L587.868514,271.938294L587.297143,270.505069L586.485726,269.114570L589.038969,269.895395L591.275425,272.098726L593.138543,273.157558L594.537380,270.515765L595.296427,272.109422L595.658899,273.328679L595.589831,274.590672L595.019424,276.312467L595.984063,275.563871L598.523230,274.077325L599.489495,273.350070L603.279463,279.563320L610.862573,284.278636L615.426407,286.057717L626.305233,290.297443L628.039750,289.388812L636.024256,288.886382L636.659731,287.956332L639.380247,281.819484L646.243112,285.572290L649.490262,286.705534L655.294318,289.859165L656.941972,291.013640L659.371502,292.146695L662.446515,291.858091L667.920570,290.297443L668.209614,289.602610L668.535594,288.319803L669.232433,287.507333L670.618566,288.244971L671.711235,289.623990L672.003078,290.799851L671.578253,291.943604L670.470508,293.247646L672.648787,293.878271L674.642359,293.568304L678.506893,291.719132L677.325167,296.026579L676.568508,297.362520L677.789575,296.977775L686.170240,296.005204L689.890680,296.336522L691.718353,296.122768L695.037870,294.220300L700.760271,288.480157L704.256307,286.823132L709.870030,287.111781L715.098076,289.581230L719.961545,293.461419L730.339934,304.073449L733.600279,306.509553L737.100574,307.695484L738.758097,307.524542L743.582857,305.718909L748.130972,304.938929L749.516979,304.255095L752.105701,301.989792L761.406457,291.280873L763.830688,290.137098L766.458047,290.115719L769.250682,291.377077L779.212691,298.687719L783.075040,300.215905L786.399654,300.782277L788.400497,300.817130L788.401559,300.817149L790.080447,300.846394L793.609650,300.183846L796.428123,298.580850L797.384716,296.411336L797.274729,293.803451L797.428728,291.227427L799.095621,289.217773L803.171969,288.458776L807.353783,289.859165L815.443450,294.647830L818.037244,295.609754L830.010413,296.486149L833.347623,297.768635L836.446607,299.884626L840.566012,303.451786L840.568164,303.453648L843.172386,305.708224L845.938308,307.181211L847.546122,308.037366L852.100578,309.468955L856.170534,309.586470L855.593823,306.680501L854.546789,304.158930L854.485476,302.737796L854.467494,302.321049L856.859567,301.423441L858.224943,301.498243L860.995463,302.085964L862.357965,302.128706L863.455221,301.744018L865.693046,300.493749L866.792218,300.322768L868.109359,300.825022L868.943852,301.765390L870.339425,304.468795L871.449192,306.135602L872.740855,307.503174L874.167711,308.058733L875.684894,307.310863L876.116960,306.317236L876.351415,305.067146L876.711667,303.859747L877.526955,303.058351L878.666841,302.951497L879.708464,303.485765L880.630407,304.426055L887.941716,315.611229L890.156513,317.726029L892.212511,318.484331L896.953897,318.879495L898.156748,319.263974L898.888321,319.830005L899.438219,320.695050L900.041908,321.952473L900.169224,322.390311L900.270146,323.490217L900.430569,324.098886L900.850479,324.686187L901.797641,325.700590L902.124762,326.415992L901.806438,328.455330L898.367966,330.878875L897.332540,332.896577L899.689675,338.831516L905.992935,344.242475L910.313409,346.577212L910.315995,346.578609L913.260265,348.169405L918.614882,349.684566L932.978654,349.361082L938.039870,349.247097L939.826742,348.766942L935.640153,342.737741L934.767145,338.586028L939.112064,336.365873L941.454608,336.995643L945.155261,340.229699L947.638769,340.496521L949.562173,339.429220L950.951031,337.678771L953.237109,333.771942L954.760398,332.907252L956.627791,332.181321L957.691136,330.686707L956.717208,327.537110L955.045762,326.063632L951.701064,327.206117L949.734525,325.743301L949.189939,323.639716L949.512815,321.119497L950.082444,318.633853L950.267169,316.690008L949.873330,314.521731L947.910847,308.421978L946.820630,303.453709L946.111839,301.455499L944.582977,298.880082L943.203571,297.533516L941.396337,296.080018L939.906182,294.476819L939.508724,292.638387L941.883337,290.650198L951.397769,291.473280L954.976083,290.821230L955.343193,287.485952L952.801024,283.572985L951.349815,280.525684L954.985534,279.755795L957.075442,280.696767L960.615358,284.663530L962.576305,286.267208L965.914946,287.336284L969.537057,287.528714L976.512964,286.726915L977.299326,286.203063L977.716600,285.272937L978.257721,284.364168L979.432026,283.893737L980.250715,284.267944L981.779059,286.074771L982.644740,286.577244L997.145123,285.999934L997.647375,285.526750L999.414562,283.861662L999.371872,279.007275L997.200913,274.836648L993.840066,273.531885L990.950953,269.670776L956.390566,262.054245L949.856662,259.347406L945.069201,254.842680L944.455369,252.927195L944.096231,250.572827L943.338302,248.603600L941.590786,247.768786L934.651864,247.768786L931.251061,247.105202L928.158235,245.264229L925.401440,242.545411L922.943002,239.291127L931.477966,235.726070L932.760038,233.627557L931.560020,231.196990L928.022531,228.203843L926.333464,226.774450L924.865335,222.951161L926.609877,217.799288L928.023054,217.978311L938.109708,219.256021L942.604319,215.110616L940.448167,212.121794L938.194740,211.061189L935.719572,210.600513L932.780880,209.454158L930.977840,208.189913L930.144899,207.268490L929.523801,206.197040L928.327668,204.546951L926.706272,203.550435L925.249547,203.946901L923.890816,204.836257L921.080116,206.175611L919.558712,207.932774L917.524821,209.411302L914.419327,209.454158L912.659131,208.082772L908.870400,203.378989L907.352824,202.371729L907.761017,200.592888L907.608628,196.702741L907.941254,192.801504L909.809493,191.043683L911.540315,189.864614L915.642670,184.322544L916.413331,182.532203L915.164820,179.562427L912.544021,177.696829L909.547830,176.270772L907.092242,174.683826L905.438613,172.013763L904.159856,165.718632L903.087272,162.576092L897.730047,157.373790L896.368100,155.593070L893.589415,153.308069L892.846767,152.031421L893.059055,151.140966L893.584462,150.261222L893.818878,149.048864L893.778943,143.383624L899.078117,142.943681L901.156387,142.546655L902.243223,141.183867L901.590717,139.574224L899.664795,137.878674L895.995795,135.517682L897.378521,133.982975L898.594029,132.888259L901.320360,131.267605L900.067412,128.047603L897.604190,128.208608L896.095151,129.872297L894.307159,130.773885L891.024535,131.632525L888.322969,133.339027L887.338304,133.368999L886.560001,133.392690L884.236404,131.696923L882.758801,133.897116L882.189193,135.796714L881.577799,137.245510L879.905336,138.093304L877.837984,137.857211L870.939056,134.852290L862.408378,132.373090L859.324473,132.952655L855.826928,136.204528L855.299335,137.256242L855.025842,139.756653L854.692138,141.033636L854.454341,141.087290L852.198211,143.523117L849.087595,149.703327L847.270067,151.827584L840.509753,157.191430L836.267647,158.607380L832.364289,157.073432L829.768893,158.671740L824.506227,164.914249L821.510041,167.080688L820.304383,167.370253L819.168005,167.466775L818.014178,167.370253L816.879558,167.102137L816.825570,167.080688L813.751533,163.970420L811.058676,163.927519L808.454818,165.257454L805.645385,166.233430L802.680506,165.289629L799.539423,162.576092L795.719100,162.533189L790.267016,159.186619L787.067938,158.328484L773.260963,158.328484L771.822907,158.736100L769.088442,160.559601L767.320464,161.160267L765.377613,161.160267L747.361455,156.923253L735.759505,156.923253L733.000017,156.923253L731.504995,157.674145L730.850392,159.304611L730.027325,160.795578L728.047117,161.160267L727.954453,160.302170L724.208583,155.367793L719.066262,152.299628L698.146402,146.860103L694.330379,146.645513L692.892527,145.862251L692.460691,144.472418L692.122408,143.383624L691.724784,141.001443L690.589549,137.910868L690.252527,136.225992L688.850340,134.251284L680.284191,127.006424L673.906983,124.601967L666.692185,123.324553L652.347113,122.744875L650.992592,123.517777L650.583683,124.204792L649.997784,124.848859L649.149166,125.460715L647.767622,122.079310L645.944165,121.424472L642.054668,122.744875L638.728836,122.959571L638.139407,122.347684L638.241534,120.501243L636.967662,116.947727L635.389600,119.567261L633.591230,119.202253L631.809104,117.928756L631.487947,117.699247L628.963791,116.947727L628.843024,115.530546L629.965334,115.283609L631.973626,114.456898L633.202562,114.242165L631.540644,112.427641L628.776295,112.105530L626.088438,111.257293L624.632575,107.789042L624.055913,105.695096L621.393617,99.036870L620.309533,97.082202L612.967486,89.531371L610.999468,88.575360L597.376672,88.167171L594.777859,87.114458L586.251988,81.861344L584.143486,80.045737L583.123790,77.800323L581.608333,76.242448L572.172200,69.989046L570.425504,68.140836L565.749897,61.478213L558.959154,55.148054L557.673139,54.245229L556.429386,53.019945L554.423671,48.880930L552.898128,45.732250L553.179014,42.475097L551.288338,39.088778L550.178725,37.919056L548.540048,36.191458L546.243907,34.358396L545.361617,34.347645L545.078092,35.299123L544.686597,35.992565L543.509649,35.143232L542.716544,34.336894L541.955092,33.702567L541.171647,33.218755L540.405244,32.939218L535.822322,32.068344L534.574042,31.396366L533.576051,34.358396L532.435426,34.358396L530.089472,30.665247L524.766706,27.950361L521.329810,24.423542L518.306128,20.455663L514.998878,17.229586L511.211914,15.089543L506.711264,14.342127L505.140319,13.514046L503.811728,13.320467L502.833926,14.030253L502.261305,15.885345L501.242214,15.885345L498.855224,13.954973L491.317874,10.083326L490.296490,9.421900L486.026278,6.625564L484.319742,5.818910L482.537317,5.560779L478.943694,5.958731L477.481788,5.818910L476.011957,4.947715L472.987637,2.377093L471.436095,1.559639L469.526382,1.430566L467.415016,1.581151L465.271237,1.333762L463.229035,0.000000L462.319979,1.559639L462.239174,1.468790L460.932847,0.000000Z "/></g></svg>