<?xml version="1.0" encoding="utf-8"?><!DOCTYPE svg  PUBLIC '-//W3C//DTD SVG 1.1//EN'  'http://www.w3.org/Graphics/SVG/1.1/DTD/svg11.dtd'><svg enable_background="new 0 0 1000 852" height="852px" pretty_print="False" style="stroke-linejoin: round; stroke:#000; fill: none;" version="1.1" viewBox="0 0 1000 852" width="1000px" xmlns="http://www.w3.org/2000/svg" xmlns:xlink="http://www.w3.org/1999/xlink"><defs><style type="text/css"><![CDATA[path { fill-rule: evenodd; }]]></style></defs><metadata><views><view h="852.296313632" padding="0" w="1000"><proj flip="auto" id="robinson" lon0="15.3396556886"/><bbox h="66.69" w="78.33" x="178.92" y="-778.44"/></view></views></metadata><g class="" fill="#000" id="country"><path d="M738.679544,780.762782L707.987574,774.282922L700.750564,774.646260L693.103883,776.351959L763.258348,794.966553L738.679544,780.762782Z M570.853336,733.742957L574.126360,741.318493L579.706080,746.735811L587.326127,751.063899L606.768589,754.625438L627.972393,747.956527L647.344896,750.619981L664.259153,750.176065L660.835776,746.957758L647.255937,740.400513L625.978145,736.859834L602.973085,739.512806L570.853336,733.742957Z M900.697621,850.296314L892.825835,840.320368L885.455462,831.660292L884.498649,824.052558L868.612104,818.476383L861.077354,815.840054L828.566236,796.985869L814.057508,786.506442L791.348820,772.829592L777.401173,765.048806L769.663348,753.233087L758.858548,750.498912L746.725745,754.292482L757.133283,763.888330L667.833205,727.691106L651.851721,727.751622L638.150539,729.960499L675.373549,739.553156L733.595690,766.683599L775.231450,774.898579L835.861065,808.679266L867.323725,830.639790L900.697621,850.296314Z M661.736670,707.057339L638.687774,703.316284L575.914355,696.903337L568.212128,688.887627L544.942543,685.691561L520.404760,688.887627L525.697043,692.275337L551.189613,703.316284L573.670882,707.601870L649.944182,709.195143L661.736670,707.057339Z M589.390023,677.142177L604.049284,671.506688L606.793655,668.058945L596.460931,660.589039L556.161466,654.177817L529.994147,653.109295L527.146420,662.121307L526.718408,667.524652L538.708024,673.936277L562.447206,677.676500L589.390023,677.142177Z M336.918479,531.967096L319.093450,524.343228L326.423968,534.659517L338.305469,544.158094L349.270994,547.314032L336.918479,531.967096Z M311.675102,513.692988L282.114262,493.992535L283.908362,498.088381L292.623149,507.288100L314.871383,520.974820L311.675102,513.692988Z M306.598329,542.595218L263.448829,502.355491L247.805178,491.863816L252.905822,500.630517L297.809295,545.710866L300.119878,544.773155L309.166923,547.677010L309.249016,545.620120L306.598329,542.595218Z M300.269778,457.189339L304.354374,454.746442L308.794473,454.201318L285.923900,436.512073L266.342669,416.139482L246.794073,400.285598L239.442618,398.749410L230.241032,392.452470L219.015334,382.373304L222.647276,389.126728L245.515290,413.967362L251.172448,426.150108L266.092361,436.804924L273.931244,445.347340L284.546299,452.555818L296.276070,462.680429L300.269778,457.189339Z M233.279030,369.621482L220.875981,356.683144L218.904834,351.826260L208.068018,351.138147L205.359837,356.065953L203.671775,361.154933L207.144112,367.355835L221.656136,370.511519L238.211081,378.753474L233.279030,369.621482Z M176.521501,390.097186L175.090990,383.202379L172.090415,376.579390L167.440519,346.776401L168.476263,325.830045L155.120657,313.171277L150.232028,302.855997L147.122151,284.902771L142.599975,285.409773L135.216319,289.637865L146.194758,315.511505L147.140021,323.814672L140.999978,332.007026L143.249900,340.308650L158.266722,369.752966L164.744846,387.974279L175.779599,398.132898L176.521501,390.097186Z M226.420685,324.412208L213.064838,306.068482L206.271186,300.970919L192.921474,282.702295L182.273213,272.996166L175.564609,289.181622L161.604712,299.187087L164.004015,303.220838L175.024054,312.310111L192.309431,314.376871L195.370948,320.907850L205.875763,328.857928L226.420685,324.412208Z M456.165213,0.000000L453.032096,2.764629L446.086166,5.580166L442.855699,10.609112L447.236680,30.395154L443.166264,33.790863L422.699276,31.832997L416.176167,34.106971L406.219436,47.881737L395.360518,53.672184L381.283031,57.800613L371.042233,62.784943L357.925103,67.116596L346.657004,69.725630L342.591696,75.738200L340.347680,82.402256L341.564378,88.821021L354.201838,101.493345L356.823205,115.007852L356.833212,131.532026L354.832553,140.346710L350.678782,146.208690L322.506372,153.799668L293.698033,167.340201L293.239578,170.442446L307.758588,182.483146L308.527999,185.482621L297.778734,192.324684L297.189694,199.185937L299.069676,207.123206L305.664249,215.292562L308.374419,222.627263L292.338409,227.959784L269.970753,226.009692L242.911601,215.790391L233.808885,217.293997L225.259691,222.566315L215.980102,220.301034L205.487511,214.002242L190.357233,200.893446L182.878847,192.853296L179.432452,184.282857L175.474417,183.042387L169.774241,185.533458L165.658426,195.953668L153.848125,214.571208L144.514295,219.630566L129.769810,218.553730L109.238342,218.858498L96.570117,220.382302L80.461017,213.809199L76.757018,215.069045L77.019632,219.386757L71.667486,226.212831L62.359620,230.671463L17.205196,220.605788L10.353173,212.254655L0.587340,219.559456L18.590462,271.616595L21.246644,285.734250L24.685449,297.200431L45.456502,321.414285L67.636210,353.364347L74.367787,355.033903L85.464512,353.728620L97.070442,334.750845L104.301601,320.148183L126.625655,286.515010L130.295005,260.994075L136.949430,249.505545L149.291161,248.602138L177.711477,257.838146L192.601573,273.381625L232.361748,302.845862L242.806916,325.586992L241.508169,357.330678L244.875545,380.462319L261.046251,401.922788L313.361717,447.316138L333.160867,458.733761L349.269558,470.371130L331.787369,466.798407L317.269199,466.889242L308.537474,470.482144L300.579595,470.179379L290.331694,473.509707L302.311721,491.006257L359.726125,545.398296L387.864740,565.532338L417.165088,581.087380L439.036745,597.457872L441.121161,607.709216L440.604900,615.561418L448.717199,625.711782L459.265017,628.655091L473.777451,628.493813L496.922681,623.343027L518.068574,620.843236L554.598498,637.212914L607.518322,652.000456L649.238362,689.432074L685.168868,709.306068L723.287368,740.834282L731.894109,745.767323L741.513866,741.348756L743.622635,737.152363L741.910816,731.675192L736.888758,724.201399L696.119165,691.952694L675.628567,669.923944L671.939691,662.030580L669.953497,640.992909L665.132853,635.942842L636.429064,626.377050L603.013555,599.030364L568.719159,572.236382L563.722611,564.756063L545.538998,544.490832L523.890461,526.027387L506.862163,514.247719L492.623517,500.842358L476.547559,482.117291L466.772465,453.827804L458.079367,428.654957L452.753720,418.877214L443.252097,415.442394L412.267009,385.568181L386.606210,368.195354L385.397699,349.427923L386.974439,318.094670L388.725996,282.509619L394.221577,277.560524L405.074410,274.872699L417.816425,275.897141L429.172838,280.298843L452.908028,304.670027L466.132860,314.133730L476.970625,317.821168L488.282008,307.547940L501.523140,286.028305L513.651353,274.669836L557.967912,278.787724L578.210510,262.232015L614.968967,284.000289L629.659365,287.265333L637.530488,284.253798L648.710125,285.622711L673.776489,291.989949L679.671458,294.676391L687.015906,294.220218L704.419570,285.724110L710.703388,286.778639L732.895568,303.443794L743.337001,303.626212L755.263901,296.440198L762.778704,290.225902L787.023492,294.879132L800.434027,292.071053L811.739173,291.787190L824.283052,294.635843L835.845466,298.487717L847.035014,301.842528L876.684672,303.585675L891.778713,314.153992L898.351664,324.371698L899.054815,330.599589L901.058321,337.302085L909.798040,343.861512L927.909606,347.606289L938.982810,346.776401L936.345389,339.559565L938.431270,336.370703L943.213386,336.755408L947.226007,338.111961L951.105763,334.841964L952.693851,325.090752L943.254050,291.178905L954.269764,288.167726L953.989754,283.229611L954.626901,278.919570L966.854808,284.831791L983.278613,284.933192L997.549338,283.746779L999.412660,280.410400L998.785881,275.542140L995.441170,271.778901L990.066132,268.705112L985.907359,263.997525L976.009221,261.937755L944.484135,249.688254L928.344074,236.673019L927.554923,222.881209L931.184327,215.312882L936.159803,212.650917L934.372591,210.100544L916.673947,203.698483L909.800762,194.784703L913.694007,183.337256L902.652023,160.158430L891.981242,145.852514L900.581511,139.644445L901.031429,130.870350L901.286612,125.841325L900.431878,125.841325L889.510734,130.198486L871.006891,132.590687L861.464128,130.900889L846.193128,150.533462L841.287790,154.104909L825.611356,160.107564L812.569270,163.088245L800.951943,160.707785L796.440845,160.494148L745.790217,159.497161L719.014809,155.295329L701.385512,147.623189L689.391711,139.054127L683.079154,129.587693L669.481630,123.845862L648.630278,121.809591L631.722050,112.411139L618.776764,95.626140L602.082416,82.330932L581.607184,72.528175L564.855883,58.677232L551.862318,40.795889L529.800507,24.694476L498.729329,10.364303L489.464265,7.253118L474.189599,2.132140L456.165213,0.000000Z "/></g></svg>