<?xml version="1.0" encoding="utf-8"?><!DOCTYPE svg  PUBLIC '-//W3C//DTD SVG 1.1//EN'  'http://www.w3.org/Graphics/SVG/1.1/DTD/svg11.dtd'><svg enable_background="new 0 0 1000 806" height="806px" pretty_print="False" style="stroke-linejoin: round; stroke:#000; fill: none;" version="1.1" viewBox="0 0 1000 806" width="1000px" xmlns="http://www.w3.org/2000/svg" xmlns:xlink="http://www.w3.org/1999/xlink"><defs><style type="text/css"><![CDATA[path { fill-rule: evenodd; }]]></style></defs><metadata><views><view h="806.789442355" padding="0" w="1000"><proj flip="auto" id="robinson" lon0="-72.2779401123"/><bbox h="34.6" w="42.94" x="-1086.61" y="-336.88"/></view></views></metadata><g class="" fill="#000" id="country"><path d="M256.999743,773.226422L255.124549,772.671016L253.422589,774.273758L251.921988,778.161601L259.546355,786.825948L264.376251,790.285344L270.165775,791.713535L283.292834,792.459369L290.288246,791.745273L294.825018,788.793677L295.405104,783.271342L290.893753,780.065852L284.341061,778.542451L278.662780,778.161601L268.110112,778.161601L265.940708,776.463645L264.866075,773.813565L263.113385,772.750360L258.905901,775.717814L256.999743,773.226422Z M270.553351,580.409739L271.353114,571.761690L263.424129,566.541134L252.432495,565.573190L243.912928,569.746459L243.499912,580.187586L251.382962,585.455765L262.196252,585.519237L270.553351,580.409739Z M577.905973,541.660291L582.693960,533.964401L584.702586,524.110513L584.553655,514.050372L582.881859,505.608763L574.436483,492.359284L551.496686,481.299579L527.190574,467.034675L504.845779,458.735988L460.075979,437.140458L452.155764,436.140815L444.754609,437.251530L437.528827,440.202857L431.132778,444.550518L426.389641,449.691554L424.772664,453.975756L425.361021,458.275832L427.180118,462.290299L429.300025,465.685939L430.896305,467.399628L436.702327,472.318554L442.407475,482.838732L449.899447,488.646266L479.128944,497.611466L506.771237,518.683746L517.307523,521.587542L527.535326,522.460267L556.971491,529.822909L564.558353,530.362413L567.071703,531.124067L569.673621,533.916798L571.968716,540.914503L574.116203,543.310545L577.905973,541.660291Z M215.387592,804.789442L220.002320,803.599279L221.132881,800.600070L220.212967,792.935433L218.712090,786.857685L206.188909,770.179626L213.226302,759.515855L220.091812,752.835142L245.671820,740.521075L261.871945,727.572298L262.389050,726.207601L262.173109,724.462059L262.199438,722.906940L263.485114,722.240461L267.040136,723.097363L268.938083,723.954265L269.113636,724.906378L272.194151,721.891352L276.603020,716.369099L279.518101,714.004688L275.287181,722.938677L273.673992,727.619904L272.884427,732.872406L278.201669,728.683099L283.491485,718.479614L288.476801,716.908629L286.100963,723.319522L287.059456,728.365727L290.217908,730.365168L294.517476,727.572298L296.630321,727.572298L300.937513,730.333431L304.053669,724.620745L307.315791,717.003840L312.161759,714.004688L314.416112,716.194545L316.588324,723.351259L319.130887,724.906378L323.370740,723.986002L335.040154,716.908629L343.291492,714.480744L370.795845,714.242716L393.189110,716.908629L392.933642,719.336516L380.682974,719.225436L375.977441,721.161399L373.661586,726.239338L376.696132,727.191453L397.180997,724.906378L441.418683,732.872406L444.271283,733.983207L453.423533,740.870184L456.190946,741.346243L465.217463,740.870184L500.557289,745.234058L513.011455,748.963189L524.462464,754.104635L532.795150,759.753885L542.367879,755.897795L560.885767,757.913117L570.968308,751.280013L573.173026,753.184252L575.126618,753.787262L580.126315,754.183979L579.650119,752.390819L579.127414,747.995202L578.637527,746.202045L586.767667,746.773316L627.097774,742.758551L632.183188,743.790012L641.042563,747.709566L645.016104,747.614354L648.617554,743.790012L647.886181,728.778310L649.867551,727.254927L653.780145,728.936996L660.192828,732.872406L687.382410,727.572298L736.921891,726.858213L772.180938,727.223190L799.790487,722.240461L813.002547,722.272198L823.543366,726.905819L833.938750,733.221515L859.600899,743.234610L870.676209,751.422831L879.981756,761.658128L900.229519,795.458573L905.358495,799.600334L910.627381,787.806800L912.547115,781.055430L912.954208,769.729273L913.848138,763.239922L913.489199,758.876746L910.988929,747.701793L910.859420,744.013762L912.596206,736.335413L916.033368,729.009756L934.030538,700.643126L934.272436,700.261884L939.042341,692.744409L938.422237,691.615845L935.615897,688.562679L931.137050,685.066151L913.677459,677.549130L901.843600,668.208292L899.450607,664.731934L895.158777,656.398763L892.588050,653.627761L879.728191,649.990194L874.961608,646.926982L873.676638,639.712321L875.401020,635.429881L878.108333,633.837822L880.135831,631.701643L879.902395,625.847310L878.095332,622.149310L850.999843,587.759091L848.650442,581.380862L854.988395,576.574527L867.893839,573.662516L892.858513,578.811437L906.497119,573.904343L911.454204,568.715124L919.784640,555.706841L925.001378,550.044071L925.933564,549.454962L928.431782,547.876169L938.170967,541.721226L943.364188,537.459049L948.186943,530.194217L951.187089,523.604493L953.603155,516.400145L954.875611,509.074900L953.742477,493.749368L955.044236,477.940262L953.924141,470.725934L951.770384,467.199382L944.821861,459.440981L942.138005,455.461030L938.495380,444.417948L935.682231,441.677335L927.777857,441.385137L919.022579,444.528781L912.835350,445.566588L912.546409,438.805739L918.849469,434.493312L936.779838,429.374831L941.543789,426.372262L958.103507,408.598719L969.871230,393.092291L975.530206,388.064557L987.961568,379.077125L992.958855,372.175359L995.395876,365.475119L999.379491,342.220866L995.341246,339.953811L974.614100,328.316762L964.747409,315.861680L963.487960,314.271667L958.425256,305.002345L957.564971,297.224196L960.047486,294.765822L969.784565,289.083359L973.296608,286.322733L978.839109,274.433939L980.946894,272.207314L985.760030,263.250457L987.824832,245.840584L987.002250,215.353417L980.116764,190.941762L979.496549,182.085917L981.135046,171.856600L982.127090,165.663894L981.650613,158.762645L979.799987,148.035378L965.626183,147.638734L957.092387,145.496857L953.251931,145.211273L950.404785,147.638734L949.439836,151.541715L950.288641,154.968728L952.431559,157.364466L959.672604,159.490488L960.106784,162.282876L957.721736,167.629674L955.923666,168.867214L952.421389,166.296940L946.898619,160.696291L941.789995,161.584779L935.220212,163.520413L929.430770,162.774718L926.634323,155.635092L936.069166,155.777884L940.169037,155.048057L943.323678,152.969637L945.896235,148.067110L943.680551,146.099756L934.733918,144.735301L918.737733,139.452012L909.145316,139.372684L902.142631,144.735301L898.133326,145.909366L895.670458,148.733472L893.639933,151.636910L890.880955,152.969637L887.884682,152.128749L883.671804,148.479620L880.682422,146.797849L879.802064,144.973287L878.494713,143.148726L875.843009,142.307843L864.162063,142.307843L861.003619,141.181376L856.698513,135.818766L854.539398,134.105272L852.696023,133.565839L851.549133,133.470645L837.886678,136.040886L832.417059,135.406258L827.072483,131.661958L830.952926,122.269500L826.854509,118.080983L820.154168,118.271370L816.342405,122.110844L813.029836,127.854201L806.625449,130.043660L799.785455,129.345572L795.076525,126.362831L792.969143,126.362831L793.854253,130.456168L794.510603,131.661958L794.249691,134.105272L793.835143,133.343719L792.873150,134.612974L791.994459,136.263006L791.860986,136.738976L792.949382,136.865902L795.173610,136.675514L796.282558,136.738976L791.266348,142.307843L792.172828,145.687246L790.851333,146.194950L785.015112,144.735301L783.710432,143.021801L780.640124,131.661958L785.780648,133.311988L787.307490,134.105272L787.568476,131.661958L772.992889,115.066524L771.502631,108.910692L767.128461,110.275128L757.814069,107.609719L748.029275,103.294302L742.243280,99.708704L736.672357,103.373630L727.648212,99.676973L719.302271,92.997620L713.273900,83.462516L712.249415,81.844250L692.900313,75.053887L686.255468,71.404868L678.362512,65.661640L644.773075,56.872306L634.324879,56.205968L622.880145,57.760757L611.768542,60.822743L602.299416,64.868377L596.042633,62.234748L588.187428,63.059740L581.406271,66.819804L578.330549,72.864475L575.131904,69.199594L570.641714,67.295761L565.515505,66.819804L560.439846,67.533741L553.466198,69.501034L551.182221,69.865935L547.137227,69.961127L542.497995,69.183729L533.955556,65.661640L529.097860,64.868377L519.355953,66.074136L515.641015,64.646264L512.171138,59.299682L504.288940,69.532765L491.192136,79.083680L447.726064,99.708704L440.857250,100.184668L434.024498,99.565915L427.498251,100.311592L421.543556,104.801524L440.232766,104.801524L439.918019,107.704913L421.259921,116.684812L417.930263,116.780005L415.661299,121.190639L401.290800,142.307843L401.773201,146.877178L401.520772,155.048057L402.551396,162.822315L406.874135,166.281074L409.987838,167.931126L415.174467,175.245310L417.387762,176.942965L421.092099,177.339614L427.287035,179.164198L459.360477,180.941185L474.133557,178.862745L481.750117,171.612014L485.850954,175.991009L492.676438,180.401743L499.790936,183.797061L504.674114,185.145670L508.376179,184.288906L510.815165,182.369123L512.591117,180.465207L514.395297,179.576713L514.844802,179.624311L518.206642,180.005094L524.679692,181.813814L528.105338,182.242195L548.165114,190.682906L551.732057,189.032840L553.928369,189.619882L564.680330,200.710251L569.929235,203.534415L576.169155,205.216222L592.834346,217.337955L613.260293,228.079379L619.090705,233.077250L622.916047,239.042973L625.335004,244.247125L629.395127,247.769453L646.767967,248.975296L649.961559,251.069657L654.976757,265.254228L650.742059,265.159029L647.688058,263.302655L645.553505,261.097221L643.983966,259.923106L639.220889,258.971121L638.483077,258.653792L639.155851,260.351499L638.761709,269.316043L639.616228,272.536938L639.117797,275.392908L635.067016,278.344080L631.656678,278.915275L628.524441,277.788752L625.924774,275.678505L624.048267,273.250930L622.064288,278.137815L620.674667,286.229753L621.183199,293.845715L624.850080,297.193572L631.560568,297.859970L634.832793,300.001966L638.574845,310.521568L634.684488,309.775834L629.198607,310.029701L623.698773,311.187970L619.776987,313.187175L617.158889,316.788921L612.477187,325.769506L608.805801,329.164998L608.282129,331.227683L608.572985,331.989290L608.236465,332.687430L605.727149,334.496248L607.215148,340.700183L613.674421,356.392548L616.731127,361.343038L621.970833,364.960709L627.846332,367.531162L632.376770,371.339244L633.609094,378.669815L629.855240,384.397828L622.392235,387.015898L609.287440,387.967924L594.271600,394.298905L594.833690,404.295216L625.907973,446.168991L631.851293,449.691554L637.428935,451.722582L644.035101,456.673220L650.179171,462.734588L654.413047,468.081930L668.671065,497.611466L670.744098,505.021659L673.271079,508.528415L684.044933,516.255985L692.392184,515.208715L698.353672,520.825890L703.613438,528.918446L709.804926,535.376635L713.652344,536.709531L721.873645,536.995152L725.957284,537.788542L740.572051,546.039815L743.369952,548.435861L744.703286,553.085147L743.168675,556.004838L740.217019,559.146682L737.288959,564.430699L736.262009,568.826118L734.339467,592.564645L732.616106,601.641179L729.171352,608.178837L723.024326,609.940198L719.990039,607.940815L713.844591,599.276835L712.816262,598.816661L712.256874,597.832840L711.366255,596.849020L709.290681,596.372978L708.044837,597.198118L707.299823,599.038814L706.237376,600.879511L704.094392,601.704652L648.099917,596.182561L637.059319,598.800793L627.648694,609.940198L620.523443,623.634410L612.484822,635.646638L602.379817,644.199621L588.965426,647.452616L565.330858,642.993634L560.618588,640.676869L554.624160,640.708606L545.172029,644.215490L538.552465,645.596028L540.976747,639.216991L512.418943,631.457429L488.060002,636.122686L479.325677,637.788850L473.655954,637.360407L468.746927,635.218197L462.874575,631.219406L451.423212,626.332001L438.278494,625.062547L410.985268,626.141583L403.626708,624.459556L390.910498,616.938046L384.228832,615.256022L331.056224,610.749472L316.267968,612.748856L303.535933,620.587722L298.518597,617.667980L287.556001,619.381741L281.890179,616.462001L280.723987,613.415318L281.179839,610.432109L281.050654,608.147100L275.619661,606.655498L270.338563,603.370801L268.280327,601.704652L275.982843,598.848397L282.625038,598.039125L289.050127,599.007078L296.077690,601.704652L296.336392,599.276835L305.172977,600.800171L312.585499,595.738255L313.105739,589.041939L301.367723,585.741390L296.880279,586.407846L280.985964,591.279333L278.296630,591.390409L275.535829,591.136520L272.830999,591.263465L270.419965,592.517040L265.492373,598.340619L264.978421,599.276835L263.487659,600.054371L258.779636,603.561218L256.597564,604.608513L253.566152,604.560908L249.610775,602.307639L246.293635,601.704652L244.409326,602.418716L243.130162,603.799240L241.329400,604.894139L237.867927,604.608513L235.862204,603.227988L229.293318,596.372978L225.521962,594.468811L221.987370,593.707144L206.802819,593.088290L202.611125,591.374541L193.360107,585.741390L191.207539,585.995278L188.704767,587.328192L186.790203,587.550344L186.342029,584.519552L185.959504,583.710284L184.042137,580.996855L183.401222,580.409739L163.975203,579.457659L121.916049,557.845514L108.761872,554.671935L89.845394,553.497712L85.828341,553.767466L81.932854,554.957557L79.958553,557.655099L78.181349,560.828681L74.703952,560.955624L67.105393,558.861060L60.555112,560.098757L44.766856,566.763285L32.480443,574.094281L29.468084,577.712180L29.890885,581.853726L30.889010,584.884516L31.700949,589.771869L31.788205,594.341866L30.644688,596.372978L25.162467,600.371733L19.229423,618.429652L12.498928,623.253574L13.583410,627.030202L14.437619,628.585285L0.620509,647.452616L8.121053,659.623599L9.764812,665.018831L9.707227,672.635642L11.822270,679.824020L23.823533,686.885463L26.256020,691.249282L28.684998,694.486446L34.841935,698.501166L42.221823,701.928757L48.324281,703.356920L56.048347,700.849700L63.733144,695.993949L70.861995,692.851995L77.000968,695.359210L79.601328,692.471152L82.250858,694.296024L90.606977,698.025112L94.031748,699.056563L96.895577,699.262853L98.679508,700.532330L98.954341,704.689873L100.136173,708.371365L103.522417,711.322908L107.662577,713.290604L117.816391,715.194828L123.378493,718.336797L153.434957,744.805605L159.074159,751.280013L159.809196,752.946222L159.843846,754.183979L159.994039,755.374129L161.039353,756.849916L162.158610,757.627481L164.596486,758.865238L165.579722,759.753885L183.685354,793.903429L184.378276,799.647940L186.565009,802.361510L189.684319,804.091213L192.908526,804.694229L215.387592,804.789442Z M635.452933,0.000000L625.625937,0.491809L608.254434,3.030176L591.985455,8.741513L589.811262,10.645294L588.820304,11.152970L587.335201,11.137105L591.629491,15.991755L598.699477,20.132494L606.662255,23.146829L613.571104,24.701593L617.308558,24.003535L621.504857,22.369447L625.474503,21.560336L630.776946,24.352564L646.781518,28.382262L659.470004,34.061925L687.672205,38.357693L692.891337,40.911972L697.713984,31.793231L685.105522,22.417042L654.554947,8.741513L647.404696,3.807552L641.870369,0.999482L635.452933,0.000000Z "/></g></svg>