<?xml version="1.0" encoding="utf-8"?><!DOCTYPE svg  PUBLIC '-//W3C//DTD SVG 1.1//EN'  'http://www.w3.org/Graphics/SVG/1.1/DTD/svg11.dtd'><svg enable_background="new 0 0 1000 809" height="809px" pretty_print="False" style="stroke-linejoin: round; stroke:#000; fill: none;" version="1.1" viewBox="0 0 1000 809" width="1000px" xmlns="http://www.w3.org/2000/svg" xmlns:xlink="http://www.w3.org/1999/xlink"><defs><style type="text/css"><![CDATA[path { fill-rule: evenodd; }]]></style></defs><metadata><views><view h="809.629877484" padding="0" w="1000"><proj flip="auto" id="robinson" lon0="-72.2684355254"/><bbox h="34.45" w="42.6" x="-1086.41" y="-336.94"/></view></views></metadata><g class="" fill="#000" id="country"><path d="M586.562831,517.288182L550.872080,484.348983L502.596617,456.611967L469.404086,442.753142L432.691311,447.954993L427.261050,470.490044L493.667763,512.086225L577.601166,545.025682L586.562831,517.288182Z M910.743863,807.629877L918.945659,742.841151L930.722089,716.561187L925.146341,688.841661L890.347970,659.394663L871.087671,621.501645L854.061060,587.966437L859.196242,583.071511L900.504957,581.574241L916.246034,569.250580L947.520526,534.890432L955.929368,507.248987L955.860411,486.345289L940.455814,461.333962L936.125623,434.998368L960.777718,412.002883L993.337819,378.488892L998.693299,365.609326L999.381670,352.864175L969.195285,317.527371L968.511092,302.344765L988.343885,264.014317L989.474051,238.620917L982.171831,159.371209L975.971455,147.586637L956.148008,156.012409L916.378958,146.204736L826.724347,137.184013L757.910920,110.198804L690.948365,75.767166L610.390407,65.076948L527.053259,74.615614L492.080848,82.522946L457.556501,93.961752L426.474063,112.501940L409.924760,146.031999L421.571179,170.963901L448.243037,179.370553L536.814236,189.811729L597.856420,223.093244L648.970100,256.509517L631.626631,295.511659L618.436530,335.301290L622.993656,378.258556L596.619403,401.752862L644.549360,471.507388L701.145370,530.705811L738.503083,557.675589L736.706923,577.811873L724.642435,597.180432L709.617268,603.380695L640.919217,606.490428L625.195650,620.426671L610.860239,638.950817L594.921919,649.201521L577.552594,652.080937L534.663994,643.865009L306.835274,617.662453L276.009865,600.770056L216.429096,596.796515L178.722361,586.584340L137.876455,570.978193L95.235543,562.493698L75.583347,564.854766L39.003460,577.427958L0.618330,646.110950L4.426667,668.493648L16.446753,686.922033L89.980526,717.194668L125.088743,738.445149L154.916866,766.740887L186.469345,806.554857L202.819199,800.143135L210.400992,775.149016L239.724599,748.235377L276.670033,732.974148L321.548791,726.562528L366.157716,724.278150L404.050482,731.208072L441.287138,742.188469L536.038771,763.362282L577.753549,761.634587L620.309106,753.744790L634.913658,749.540743L649.023497,741.094267L666.484427,736.563892L818.639727,733.166113L837.746950,739.673725L855.840791,749.867084L885.010486,776.185636L910.743863,807.629877Z M625.951794,0.000000L606.769162,3.070705L587.482839,12.340419L606.993768,24.450592L613.952308,26.024343L625.950012,22.876842L660.219337,35.466870L693.902919,42.372384L700.346629,31.244597L687.492454,22.070775L646.493791,0.690908L625.951794,0.000000Z "/></g></svg>