<?xml version="1.0" encoding="utf-8"?><!DOCTYPE svg  PUBLIC '-//W3C//DTD SVG 1.1//EN'  'http://www.w3.org/Graphics/SVG/1.1/DTD/svg11.dtd'><svg enable_background="new 0 0 1000 528" height="528px" pretty_print="False" style="stroke-linejoin: round; stroke:#000; fill: none;" version="1.1" viewBox="0 0 1000 528" width="1000px" xmlns="http://www.w3.org/2000/svg" xmlns:xlink="http://www.w3.org/1999/xlink"><defs><style type="text/css"><![CDATA[path { fill-rule: evenodd; }]]></style></defs><metadata><views><view h="528.759259996" padding="0" w="1000"><proj flip="auto" id="robinson" lon0="19.1147039893"/><bbox h="45.9" w="86.97" x="211.22" y="-811.55"/></view></views></metadata><g class="" fill="#000" id="country"><path d="M361.120873,526.759260L372.859326,524.076515L386.968810,518.673861L391.383832,515.459400L405.128407,497.789217L413.717315,499.310110L430.371591,497.157023L440.201105,493.235385L440.970402,493.235385L444.379044,493.299527L457.196008,487.984616L461.628605,483.677246L463.964867,478.636196L467.041581,477.389598L476.489119,482.861550L485.941033,483.347304L496.171478,479.882761L503.609493,475.070470L512.704670,471.073605L516.743158,468.323275L521.814477,464.023281L531.671158,451.286155L543.929631,448.653970L561.042612,451.900618L579.296006,453.028643L592.571173,450.103064L627.329967,453.780646L635.000276,456.761036L640.115097,460.034679L645.581982,455.449686L679.305180,449.075862L695.914438,455.357982L702.847736,453.074497L709.344074,447.975267L712.753742,443.912035L713.018797,439.582472L715.919735,434.179208L727.264526,431.647106L758.272297,434.931477L769.857030,427.380806L774.001923,423.261002L775.838827,414.176220L778.302859,406.870695L788.882020,402.969781L787.987036,396.305552L785.554212,389.043896L790.224598,372.856200L793.394663,366.207463L799.338302,363.773734L806.293046,358.676434L818.131491,348.058333L814.123596,338.826132L816.008873,331.981757L827.732876,315.305210L836.299569,299.232662L835.248629,291.181809L835.982846,284.150705L844.222056,276.448270L852.699032,266.410650L861.855514,235.071992L865.760818,229.804075L873.369622,223.837351L878.868640,217.916510L877.231049,197.331033L882.307589,191.382418L892.645624,184.716659L902.400440,173.977944L909.891129,161.299467L916.108637,155.378665L925.041870,153.797348L934.360421,148.823600L945.217363,146.957315L956.204989,149.402795L962.873995,148.134085L972.396883,141.974482L995.873850,118.716471L999.052598,114.065186L995.681728,111.610900L993.436328,104.689458L994.322892,98.577149L990.501836,92.786776L981.656501,86.215457L979.381951,83.504310L969.340768,83.991393L966.658049,84.634713L965.633869,84.487668L950.943841,78.909279L940.069801,65.483628L924.859934,58.344167L913.588281,55.946081L907.921083,50.194584L903.812658,42.541771L899.718303,36.763541L899.247504,36.221564L895.887581,27.476919L892.418781,26.576787L891.793961,26.337978L877.755567,27.862693L874.956459,30.113077L824.776214,40.511540L817.805320,38.913109L810.136427,32.933031L805.771175,28.588320L803.006183,25.382749L797.591383,16.887221L791.030255,10.862846L781.757196,5.940848L773.169129,0.229544L762.870659,0.000000L736.047017,8.062042L716.902990,8.943595L703.781008,6.354063L686.175524,1.469098L652.799789,0.706999L630.444330,4.995055L628.843818,10.973043L611.775898,48.513300L582.599218,62.350291L557.452626,76.538311L550.016256,79.414724L536.325612,74.957692L520.395573,66.531157L507.436298,62.148144L498.503600,64.077750L489.492958,73.625211L485.915738,83.302125L456.457340,90.387977L404.405938,94.569818L387.049991,104.082812L381.904798,115.535935L382.490076,124.342290L387.654468,131.834429L382.894853,140.567905L380.787442,144.208473L343.839371,146.120708L294.558467,148.676504L264.896191,148.023763L236.978948,147.407797L217.334703,139.924376L192.878200,125.298328L166.697342,105.847607L164.305122,105.388023L160.484714,103.319912L145.008546,101.867655L141.036026,103.016591L133.019255,110.985844L132.361734,122.797932L127.166553,128.056152L126.279738,134.803776L129.183503,140.935637L129.809366,148.612149L133.876975,159.194079L120.119098,161.501732L103.494673,161.133977L97.607038,161.749966L92.294161,164.636848L86.420549,163.202599L70.577457,153.273309L61.923827,151.103609L55.992007,151.701194L51.880207,156.013033L44.636137,161.547701L37.718450,165.427525L39.629533,168.847679L71.502242,177.775097L78.185718,191.492748L73.140749,202.682015L71.565473,208.152495L64.629566,212.464494L55.990946,216.252410L45.280621,217.199385L44.507938,223.239754L50.223177,240.992545L47.109027,244.835320L44.132402,250.351161L48.570523,264.949080L55.337618,265.987807L57.097688,269.324562L56.398321,275.234963L55.744011,281.521994L53.929688,288.185591L52.997809,291.135855L48.711852,292.983185L34.771940,291.999784L23.302979,297.697892L0.947402,318.144547L29.737435,319.274748L33.938172,324.787747L36.136498,333.341484L39.631521,344.797318L44.675057,347.966476L47.664417,352.476583L47.810834,360.403124L53.906553,366.317668L68.377945,382.332373L70.312081,386.500755L78.651048,389.300959L106.616482,402.198749L126.473088,416.690733L138.167871,432.784731L153.244782,445.251193L171.673397,454.074107L186.699048,466.040383L198.350378,481.147624L213.568530,489.606647L232.335669,491.439380L244.574043,496.607282L250.255623,505.127491L261.050574,512.840026L276.917721,519.745291L301.016772,523.527126L346.604576,524.424458L350.664764,524.616741L361.120873,526.759260Z "/></g></svg>