<?xml version="1.0" encoding="utf-8"?><!DOCTYPE svg  PUBLIC '-//W3C//DTD SVG 1.1//EN'  'http://www.w3.org/Graphics/SVG/1.1/DTD/svg11.dtd'><svg enable_background="new 0 0 1000 533" height="533px" pretty_print="False" style="stroke-linejoin: round; stroke:#000; fill: none;" version="1.1" viewBox="0 0 1000 533" width="1000px" xmlns="http://www.w3.org/2000/svg" xmlns:xlink="http://www.w3.org/1999/xlink"><defs><style type="text/css"><![CDATA[path { fill-rule: evenodd; }]]></style></defs><metadata><views><view h="533.925159089" padding="0" w="1000"><proj flip="auto" id="robinson" lon0="19.1164711454"/><bbox h="46.35" w="86.97" x="211.23" y="-811.8"/></view></views></metadata><g class="" fill="#000" id="country"><path d="M367.117857,531.925159L368.144564,531.837953L369.233865,531.576333L371.940891,529.618975L376.695662,523.978926L379.040579,522.534869L382.567227,523.920777L386.399931,522.641479L392.507813,517.795293L394.149933,515.876046L396.960346,510.292283L398.998739,508.091535L399.213586,508.043059L399.515085,506.889317L399.762183,504.630219L400.238859,503.680005L403.398859,500.741967L406.185139,500.218336L413.892528,502.458270L420.125647,505.173189L421.993481,505.386497L423.504536,504.620523L424.056925,503.311549L424.571560,501.595279L425.906561,499.607424L428.005910,501.139535L428.709100,501.118130L429.598736,501.091051L432.039576,499.549242L435.005397,498.773468L436.620831,497.958891L437.984234,496.455764L440.209732,496.310297L449.567366,496.921254L452.571032,498.065563L453.397791,497.697060L453.529467,497.095812L453.110639,496.300599L451.802409,494.700434L451.564914,494.002163L451.657106,493.313578L452.063307,492.634682L455.457061,490.423350L459.336985,490.898601L461.953876,490.258465L461.603409,484.690843L463.648768,481.140406L467.018157,479.859854L470.533883,480.965787L473.120260,484.661742L473.123004,484.690843L476.648304,486.388360L490.034712,487.581435L494.179097,486.883054L495.719370,484.972150L496.206138,482.682842L497.112521,480.364318L498.732025,479.244680L499.961022,478.394938L502.664292,477.861348L508.263548,477.832243L510.726224,477.075504L512.134328,475.600800L513.080824,473.718545L514.160817,472.088492L515.980452,471.321960L517.633054,471.098790L518.886897,470.633041L521.264623,468.837925L522.219146,467.537638L522.850461,466.130572L523.792868,464.869030L527.602093,463.005772L527.061605,461.453003L525.770222,459.735198L525.355843,458.192035L527.339492,456.056764L530.662146,454.028174L534.258508,452.572199L537.015919,452.145105L540.245190,452.232466L548.887902,450.747320L552.153992,450.892925L555.382452,451.776249L558.856577,453.595924L568.597591,458.696722L571.286008,459.162583L583.433953,454.669834L585.667055,453.843753L591.635679,452.688679L601.390640,453.465202L608.028597,456.551766L612.285561,456.115000L615.936287,454.455252L617.406306,454.299951L619.927935,454.814383L620.796984,455.377341L622.529356,457.231174L623.740602,457.774693L624.839304,457.658225L628.481677,456.076176L631.298342,457.037058L640.130035,463.102818L645.573769,456.396472L669.862068,455.814114L673.035044,450.698785L679.333562,451.912144L685.541505,454.076706L690.306055,457.570874L691.897093,458.454085L693.787987,459.055824L694.916926,459.084940L703.297099,457.532051L706.119764,456.231471L708.207763,454.018468L708.831177,452.164519L708.815361,451.752057L708.728031,449.475691L709.335355,448.077835L710.439777,447.718658L711.890487,448.145787L713.348622,448.339936L714.460494,447.291525L714.321813,445.786824L712.486924,441.612274L712.227560,439.845274L712.776395,438.796698L718.263272,434.553646L719.539500,433.930035L721.164428,433.135986L724.257320,432.368882L727.300573,432.485405L728.770947,433.106856L731.696306,435.107105L732.983943,435.621721L734.472053,435.505205L736.580558,434.437127L737.582739,434.155539L740.337285,434.650744L746.196841,436.757743L749.171549,436.660648L750.493289,436.146042L751.790317,436.146042L753.031445,436.660648L754.191520,437.748102L757.374469,439.952072L760.000865,439.058844L766.431448,431.494953L767.354513,431.057983L771.779222,431.087114L773.129621,430.106349L774.564811,427.251351L775.480758,423.619280L775.228420,415.256899L776.330437,411.177270L778.605960,408.612795L781.461703,407.709375L787.837645,407.471375L791.092219,405.173902L789.704054,401.045044L784.522713,393.801914L784.488536,389.929846L786.295381,386.946700L788.601242,384.114051L790.108560,380.669048L789.937862,373.462682L790.418930,369.910267L792.472910,367.519219L795.624987,366.809666L801.214796,367.179023L804.314951,365.691864L807.070178,362.143954L807.823591,359.695749L808.042353,358.984725L809.427652,356.778052L813.475817,356.155895L816.342233,354.687977L818.708883,351.178480L818.824693,347.464673L814.502138,345.077837L814.011757,344.718105L813.574847,344.275729L813.190886,343.745848L813.209692,342.613156L813.434637,341.514479L813.840802,340.508158L814.414687,339.613641L816.823895,332.024490L818.425546,328.961436L821.298766,326.433130L826.658212,325.164091L828.089731,324.002007L829.091358,321.600003L828.824516,319.562632L828.093804,317.554399L827.705651,315.259230L827.699388,313.041818L827.831462,312.536087L828.477540,312.322123L834.832363,307.488376L835.959536,306.116996L837.812128,296.818439L838.367570,296.633629L838.253085,296.439091L836.660820,294.240792L835.539418,293.511260L834.066528,293.268082L832.717496,292.733089L832.251203,291.727997L831.966128,291.113505L837.188319,285.082459L840.250475,282.363544L847.205147,278.141592L849.971446,275.578209L850.800139,273.919529L851.182139,270.597255L851.663223,268.889883L852.895495,267.090072L855.923334,264.380595L857.015632,262.867746L857.677140,260.547373L857.439483,258.810724L856.894846,257.108114L856.701077,254.923888L857.092637,252.836935L858.524552,250.044572L859.127829,248.332166L860.107469,241.589457L860.780625,239.390500L865.788202,232.175673L868.229200,229.553388L870.773077,228.142503L877.274637,226.459166L879.703631,221.238832L878.801673,214.957819L876.755939,208.438345L875.713821,202.575644L878.051819,197.968178L882.023684,193.842373L890.670597,187.887205L897.838532,186.305973L898.621527,185.765996L899.722149,185.006932L900.352148,183.586259L900.366563,183.384072L900.454103,182.155857L900.405450,180.764378L900.714106,179.518861L903.922972,175.013607L904.203782,173.388608L904.323773,169.934283L904.722605,168.533098L905.689885,167.365447L908.052055,165.798852L909.086485,164.816084L911.890534,160.602856L913.424349,159.114127L916.046740,157.805413L918.616517,156.988077L920.503035,156.832394L927.524662,157.717841L929.658343,157.557293L931.560993,156.866449L933.120106,155.475037L934.713465,148.041294L939.205645,147.131549L950.874497,152.093830L956.127700,152.813854L961.774224,152.113290L967.006886,150.113773L971.010832,146.868842L974.230395,142.743406L975.914363,141.522328L978.824496,140.335309L982.025499,140.053150L982.863946,139.547210L983.885847,137.431029L983.431256,136.054306L982.531287,134.838125L982.281501,133.227913L983.593185,130.683704L985.824670,129.263241L991.604878,127.375791L993.824950,125.468901L996.889370,119.563497L999.061782,117.131343L993.114254,113.356706L991.593468,111.070563L993.829280,108.395330L993.760579,105.447761L994.545174,103.711348L994.856247,101.760949L993.416824,98.200685L991.551376,95.613226L989.305698,93.468397L984.476992,89.981298L978.816849,87.428041L978.187049,86.538061L975.591322,85.215261L973.097338,85.808574L970.726017,87.184877L968.066347,87.948415L957.300976,87.948415L955.447907,88.877312L955.057219,88.838405L954.164331,88.069998L951.095387,83.610411L948.283168,77.643477L945.868663,73.758081L933.334264,61.446321L932.702963,61.193488L932.073250,61.086520L931.448519,61.154591L928.704515,62.370139L926.410146,62.545180L924.000462,62.127029L920.950947,61.115693L920.309238,61.037898L919.716472,61.115693L919.142905,61.358802L918.061601,62.146477L916.936405,62.423624L915.827420,62.175651L914.759354,61.349077L906.342227,51.829392L904.294973,48.008168L903.855078,45.412160L903.942788,43.244014L903.728364,41.396757L902.434157,39.812035L901.382998,39.656481L897.290245,39.865507L896.973358,36.866279L898.533250,31.179214L892.941494,28.953101L887.792492,28.413594L883.094230,30.036987L881.771205,31.393080L881.626577,31.410201L881.618930,31.411107L881.360618,31.441686L877.771113,30.926465L875.300527,33.964370L872.895025,35.699670L870.198210,36.380190L861.186619,35.641340L858.505320,35.787165L855.852351,36.584347L848.105266,36.924609L846.013478,37.644026L841.714420,39.831479L835.376266,40.638420L828.027477,43.958621L823.530922,44.289190L818.706366,42.947478L814.481195,40.492587L810.559253,37.031549L800.987058,26.250740L799.542440,24.238609L796.724061,16.472459L795.188421,14.334232L792.592176,13.853139L787.099535,13.916313L784.624216,13.002731L783.474078,11.680972L781.708179,8.036539L780.540771,6.423328L779.152490,5.446672L776.357282,4.557490L771.070407,2.050348L768.836918,1.496457L761.336986,3.551708L756.265340,3.644025L753.818325,4.071603L751.068771,5.514698L750.016957,7.268801L749.393030,9.270766L747.887378,11.379692L745.800294,12.419599L744.036606,11.797597L742.042777,10.490437L739.237015,9.499150L734.397169,10.441844L723.370824,15.068026L719.515393,14.334232L716.237065,11.846190L711.903992,10.266910L707.441306,9.606052L703.740422,9.849014L698.382582,9.450557L689.810031,5.291186L685.082498,4.873319L682.874928,4.402006L678.086029,1.020308L675.664956,0.000000L673.251180,0.034010L642.390045,6.141506L633.205640,6.666279L629.063926,8.114285L629.046660,9.533164L629.168199,11.097851L629.810334,14.358530L629.973577,15.019430L630.060305,15.685196L630.070512,16.355827L630.018038,17.016744L628.283930,19.529255L627.977586,19.829954L623.876608,23.854657L621.905786,26.328505L620.490735,29.249589L616.280104,44.182241L613.739662,49.612480L610.514222,54.415854L606.566541,58.091472L603.314251,59.588985L601.440923,58.942329L599.595010,57.381620L596.484437,56.117512L594.868097,56.739840L590.729818,60.240507L588.327798,61.174039L585.680127,60.940655L584.102667,60.464165L582.844282,60.678099L581.172097,62.545180L580.723707,63.867715L580.258716,67.251927L579.338202,68.934348L578.188971,69.756119L575.459866,70.675147L569.837398,73.745047L569.368166,74.001219L563.842101,75.498956L560.584791,77.293348L554.371184,82.618333L550.962411,83.707675L547.755374,82.705869L541.627253,78.368052L537.851239,77.380880L532.640533,79.116946L531.204079,78.961332L529.616454,77.176639L529.824295,75.586486L530.507142,73.962317L530.240726,72.114487L527.307876,69.401152L523.754323,68.914898L516.985344,70.043010L515.421149,69.386565L511.835431,66.007147L510.013921,64.791555L508.479303,64.422019L506.885280,64.378258L493.461876,67.456150L491.011716,68.715535L489.652242,71.453167L488.982652,78.737636L487.506920,81.713799L487.469413,81.801334L487.447347,81.888869L487.489989,82.005583L487.549053,82.132024L487.884546,83.163003L488.064626,84.184264L488.087319,85.176355L487.953590,86.149001L480.434667,90.944253L460.225170,90.584360L451.776932,95.418683L450.167287,95.700771L431.439591,93.789389L422.603436,94.893416L419.655338,94.775592L416.275451,94.640510L414.166509,95.506227L407.091753,96.874008L393.133392,99.572251L390.696714,101.371844L387.374611,108.395330L386.053316,109.436233L383.187860,109.854542L381.892457,110.525784L380.140498,112.554121L380.408547,113.249695L381.517023,114.003642L382.221475,116.177948L381.470737,123.951185L381.481160,127.915755L382.794917,131.442585L387.522037,135.071632L393.620055,138.627763L393.396650,138.696665L389.818477,139.800180L386.502901,140.559091L384.060412,142.193677L379.568902,146.995330L376.099325,148.907258L371.771788,149.296456L367.228164,148.556980L361.586048,146.518567L354.830006,146.105048L324.455820,149.131046L313.610985,152.993860L308.095462,153.441444L289.477644,151.821389L255.338559,153.697651L246.721531,154.171201L233.919684,151.276508L230.370713,149.715813L223.731691,146.795868L222.034798,145.316931L220.683553,143.380704L217.711361,141.142870L214.430762,139.255321L212.117559,138.311553L210.450404,138.525603L209.005715,139.148296L207.462844,139.196944L205.493906,137.606161L199.857025,131.179895L198.394915,130.401556L194.575956,129.730241L192.980318,129.185407L191.407968,128.037369L174.496478,110.642523L169.487582,107.344705L159.624300,106.099529L158.043339,105.733795L151.719106,104.270695L146.238657,103.288192L141.030251,106.080073L132.233548,112.724366L133.946374,114.271173L133.987200,115.438583L133.364054,116.615730L133.088518,118.230672L132.822525,118.546853L131.501441,119.349466L131.146389,119.884544L131.372732,120.701756L132.148248,121.081178L132.955650,121.295211L133.297800,121.669769L132.973411,125.021368L132.323645,127.487675L131.005518,129.389720L128.690087,131.033956L123.593603,132.011748L121.794450,132.843604L122.019901,134.896502L123.037422,135.742963L126.285452,136.973742L127.526715,137.722915L129.272892,141.240167L130.351868,142.432054L128.292792,144.548277L128.776652,147.788316L130.115388,151.602464L130.930116,157.751897L131.838633,159.649290L133.233384,161.084505L135.015563,161.989422L132.040067,163.205711L121.230549,164.446331L109.570737,166.971365L103.810703,166.085899L101.202601,161.152616L99.343216,162.578106L96.742373,166.552958L95.204194,167.939542L93.910672,168.207129L85.373345,167.078400L83.691210,166.241585L81.892812,164.767433L80.580782,162.821364L79.853927,160.836382L78.904285,159.143318L76.919500,158.019477L64.583894,154.054439L58.241968,153.383063L52.925021,155.494497L52.180812,157.314038L52.653555,159.795244L51.969669,161.415334L50.787767,162.456477L45.036102,165.137186L43.369651,166.499441L42.422204,167.020017L41.715066,166.898387L40.922268,166.309698L39.977024,165.380446L38.956659,166.324294L36.942573,169.457491L35.744147,170.868409L38.566048,172.196621L47.204081,175.081721L51.289465,174.293547L61.446672,177.718703L66.327959,176.998640L69.704907,178.273346L72.576610,181.260640L74.169866,185.065316L73.642256,188.714311L76.287181,189.930644L78.516422,191.725952L79.879195,194.085640L79.954657,196.985380L78.561522,199.388855L74.321806,200.955491L72.749028,202.526991L73.994411,210.112006L72.025231,211.499699L66.702705,215.249734L51.093776,221.525879L49.086090,219.034891L46.985713,217.847775L45.145011,218.285646L43.823119,220.669603L44.796360,227.889517L44.516584,228.444141L43.799153,228.774970L43.189379,229.280942L43.188844,230.395051L43.667737,231.115085L44.376539,231.426450L45.062148,231.645379L45.496849,232.019990L50.739429,240.178624L51.602421,243.272717L50.818232,245.792724L48.829016,247.456499L44.333281,249.611607L44.334490,249.626201L44.334894,249.631066L45.104006,252.914770L43.131089,257.040009L43.916448,260.148480L44.872285,260.810058L46.061339,260.722496L47.328246,260.824652L48.438875,262.040782L48.622500,263.694707L47.660758,266.905226L47.700282,267.946201L49.814756,269.084457L54.723802,267.002514L57.211576,267.206818L59.235309,269.493059L58.703491,271.696580L55.590202,275.573345L52.558556,277.256330L51.806618,280.004518L53.131645,282.490007L56.235164,283.355784L58.071352,284.124279L58.681048,285.101915L58.160085,286.133047L56.542104,287.062032L50.002080,289.401492L48.239922,290.850868L52.585202,291.303187L54.782083,291.916004L57.084741,293.618259L57.922163,295.656073L55.124318,296.244552L51.207713,296.283460L48.736252,296.682263L48.737856,296.701717L48.127019,297.217241L47.408737,297.372870L46.615749,297.188060L45.764437,296.672536L43.029153,294.999501L39.812980,294.663919L33.736907,295.301038L28.042669,294.333199L26.009030,294.571512L24.747982,296.653082L24.327576,299.507893L23.184346,300.368701L21.713858,300.650773L20.280326,301.769325L19.984797,302.917047L20.194356,303.962632L20.209555,305.105471L19.309722,306.476863L18.323322,307.167416L15.273258,308.315088L11.639875,310.717380L10.022071,312.263769L5.075244,318.653340L3.273211,320.243381L0.938218,321.211009L6.484614,322.352407L7.270527,322.514132L13.875075,322.021229L27.727678,320.987337L29.330676,321.745875L31.810836,324.173190L32.545167,324.891805L33.917775,325.494723L36.137445,325.601692L36.884389,326.549822L36.679192,328.232123L36.010029,330.527009L35.139528,332.646813L34.635241,333.490397L33.453675,335.466665L33.162086,336.879019L33.018036,337.576638L33.417712,338.276711L35.930159,343.687512L37.797981,345.578543L39.267870,347.746616L40.786340,349.170905L42.848965,348.859799L43.153917,352.024272L44.365002,352.456710L44.494422,352.502920L45.304835,352.792283L48.121884,352.938107L50.487752,354.235931L51.604434,357.789046L50.494702,358.778182L49.657626,359.524232L46.885913,360.705305L45.649986,362.561936L46.326508,363.813299L47.063649,365.176698L49.962323,367.072104L55.566386,369.822791L61.744713,377.287051L67.136301,381.028618L69.985445,389.133058L70.908256,389.730650L77.718182,393.228648L79.874807,394.972721L80.795546,394.972721L81.312904,393.296663L82.196339,392.655377L83.396709,392.830274L84.816043,393.578438L88.882339,394.253721L92.303827,396.187230L95.291897,399.101962L98.023766,402.686904L101.128970,405.873353L105.938041,408.326227L108.057589,411.662954L109.088133,411.662954L109.989809,408.986787L111.117618,409.593913L115.258246,410.380740L115.950685,410.633299L116.658520,411.070419L117.346485,411.643527L118.063048,412.372046L119.126410,413.139411L119.480122,412.512893L119.736285,411.653241L120.533425,411.662954L122.607968,413.319109L124.088498,414.879978L125.091022,415.936811L126.799231,418.996319L126.545453,421.939128L127.923768,424.783931L129.735913,428.523493L130.859632,429.630526L132.021535,430.446220L138.156909,436.165461L142.381278,442.185080L143.959401,443.854921L152.484862,449.504813L153.854063,450.912338L154.775349,452.941050L156.680362,454.581434L164.383408,459.327575L166.731412,460.278691L179.039484,460.647486L180.817570,461.511233L187.451043,468.333340L188.430503,470.099365L190.835862,476.115011L191.356872,478.006873L192.672230,481.140406L195.100684,481.906780L197.598249,482.197805L199.099776,483.837211L197.989444,484.031219L196.174971,484.778145L195.160974,485.001251L195.270086,486.281661L197.550637,486.960652L197.840800,487.168012L199.450934,488.318604L201.075745,488.648386L202.501510,486.281661L203.652441,489.492230L203.560171,491.160473L204.092714,491.713307L207.097573,491.519331L210.611698,490.326359L212.259175,490.917999L213.507387,493.973068L214.274106,493.420261L214.803460,492.838352L215.172906,492.217641L216.396703,491.519331L229.357345,492.043064L235.875849,493.197197L241.637598,495.369601L249.377036,501.915267L250.643899,503.699397L250.948395,505.221668L251.974070,508.013974L252.333320,510.166252L252.638955,511.149968L253.029115,512.405670L254.328201,513.113339L257.775943,513.307219L276.676845,518.221780L281.322886,520.993840L284.707245,525.452004L284.790966,526.227287L286.580066,525.897794L287.323699,524.550719L287.915127,523.077608L289.265866,522.399184L291.759038,522.399184L302.241294,522.399184L318.518729,526.227287L320.274077,526.227287L321.871429,525.684591L324.341993,524.037075L325.641263,523.668797L338.115739,523.668797L341.006077,524.444114L345.931985,527.467709L349.383612,527.506472L352.221552,529.958128L354.900293,530.810843L357.438590,529.929058L359.791152,528.727474L362.224124,528.766235L365.001488,531.576333L365.050265,531.595713L366.075384,531.837953L367.117857,531.925159Z "/></g></svg>