<?xml version="1.0" encoding="utf-8"?><!DOCTYPE svg  PUBLIC '-//W3C//DTD SVG 1.1//EN'  'http://www.w3.org/Graphics/SVG/1.1/DTD/svg11.dtd'><svg enable_background="new 0 0 1000 1099" height="1099px" pretty_print="False" style="stroke-linejoin: round; stroke:#000; fill: none;" version="1.1" viewBox="0 0 1000 1099" width="1000px" xmlns="http://www.w3.org/2000/svg" xmlns:xlink="http://www.w3.org/1999/xlink"><defs><style type="text/css"><![CDATA[path { fill-rule: evenodd; }]]></style></defs><metadata><views><view h="1099.76886837" padding="0" w="1000"><proj flip="auto" id="robinson" lon0="-7.95822881134"/><bbox h="62.87" w="57.22" x="-132.59" y="-921.48"/></view></views></metadata><g class="" fill="#000" id="country"><path d="M136.509495,1043.388205L128.985880,1042.403792L123.774488,1042.781529L119.415170,1044.017782L116.067517,1046.158406L115.384120,1048.882977L118.667808,1050.302564L120.955496,1051.161206L138.662795,1046.559068L140.068612,1045.975247L141.971241,1043.983441L140.277506,1042.999016L138.088220,1043.399652L136.509495,1043.388205Z M30.198016,961.671292L28.648047,961.397041L24.550860,961.248489L22.412482,962.768312L10.723700,968.836654L6.708754,972.848353L7.242949,974.974347L11.743150,974.459985L13.969218,972.848353L21.682257,972.231147L30.488362,969.076661L34.625347,966.985214L36.280451,964.825291L35.517400,963.031143L33.089561,962.825449L31.836917,962.985433L30.198016,961.671292Z M177.287452,624.214676L171.931623,621.036885L166.734248,621.127677L164.335179,623.601801L171.268363,627.540218L196.637634,636.700762L200.653226,635.815285L201.112652,633.658417L200.220109,633.363274L199.491229,633.613010L194.530188,631.524342L194.491116,629.651424L196.540544,627.619670L194.994957,625.576647L189.475531,623.896888L185.338049,623.420210L179.942616,624.271424L177.287452,624.214676Z M199.501184,597.096285L204.186674,591.969225L199.267162,585.164179L197.431347,583.689871L194.554432,583.224905L191.423820,583.712552L188.822790,585.164179L186.533854,587.784015L186.679486,589.349176L187.732130,591.390761L188.199745,595.440143L191.934016,598.843232L199.501184,597.096285Z M147.787012,379.163200L143.731743,377.739814L124.750869,377.287953L120.167176,379.140606L114.486405,382.337711L108.845994,383.523965L104.415032,379.163200L102.390162,380.744784L100.467997,381.287052L98.692997,380.789972L97.124358,379.163200L94.170110,384.676350L90.283343,387.489629L85.503023,388.506513L79.875488,388.653398L79.751309,390.551638L85.505458,390.642032L96.044764,393.738120L101.961552,394.337018L118.606869,391.557280L123.023582,392.608140L125.224572,395.048926L125.325483,397.625430L124.449971,400.778426L123.727821,404.858384L124.485142,407.570992L126.788017,408.023107L129.758981,407.593598L132.583144,407.797049L137.267390,411.097588L141.167591,415.031372L145.154396,416.772276L150.080871,413.471388L149.483812,409.729874L150.404274,404.847081L152.125753,400.473290L154.017929,398.303478L154.136455,396.427566L152.490760,394.981124L150.352849,394.732521L147.860639,395.320131L145.220143,396.427566L145.352801,394.337018L146.701600,392.913232L147.513245,391.014909L147.738752,388.856778L147.315040,386.597047L151.780774,386.597047L147.787012,379.163200Z M483.011688,113.412945L482.346461,108.927106L480.672833,106.461787L478.059058,105.112782L474.696184,103.966153L473.581511,102.684653L472.324484,102.066396L470.758712,102.414867L468.791778,103.966153L469.134408,104.438291L469.761344,105.168990L470.162367,105.854731L468.946621,106.225709L465.636298,107.915311L466.000680,110.040101L466.164466,110.411104L466.020083,110.478560L465.424836,111.692770L465.328563,113.412945L468.786938,115.380529L473.501831,115.627887L483.011688,113.412945Z M137.234934,1097.768868L143.874351,1093.116333L145.905119,1092.531934L145.082381,1095.683192L160.586258,1089.907958L159.589252,1089.644422L159.006746,1089.243393L157.659509,1087.994495L170.264969,1079.253141L171.904083,1076.801730L174.950117,1078.199247L177.482040,1081.338087L177.593875,1084.144891L181.384635,1084.213631L183.953954,1083.354386L188.409709,1080.123767L189.937101,1079.951931L193.826190,1080.192501L194.655988,1079.253141L195.126944,1076.503903L196.058595,1075.358435L211.956354,1072.609425L218.431597,1070.192720L216.722246,1066.837027L219.728190,1065.726151L223.743252,1066.275860L227.253473,1067.787592L228.709575,1069.539888L227.593037,1073.548652L225.930419,1076.652816L225.491991,1079.344785L228.006690,1082.220207L232.792813,1078.989665L234.987787,1077.030828L235.944172,1075.415708L243.232505,1071.990920L245.165990,1070.501960L245.645927,1071.464052L245.836650,1071.773300L246.096899,1071.968013L246.720971,1072.609425L243.842409,1074.694076L238.196580,1077.649399L235.684209,1080.123767L233.455748,1083.995954L234.280272,1084.935409L236.942567,1084.007411L240.257366,1082.220207L238.665007,1085.049978L236.875235,1087.032064L234.742635,1088.510091L232.117321,1089.907958L239.271310,1089.793377L242.407658,1088.956945L245.088572,1087.032064L247.017375,1085.966539L248.756168,1086.058196L250.043079,1085.657198L250.684580,1083.182539L256.922953,1080.123767L257.292056,1081.635944L257.806455,1082.804478L258.203728,1084.133434L258.234242,1086.058196L260.895723,1084.969779L262.927658,1085.485342L264.889865,1086.287340L267.332831,1086.058196L269.216333,1084.316741L270.426077,1082.002540L272.049176,1080.226868L275.243741,1080.123767L275.338660,1078.371076L274.840949,1075.553163L276.635574,1075.106436L282.335357,1076.274808L285.759550,1075.759346L289.201776,1074.235903L292.096276,1071.807661L294.040094,1068.577835L292.206001,1067.249318L291.243837,1066.837027L291.356065,1064.752724L294.123413,1065.348230L298.977351,1067.787592L301.779789,1068.577835L314.137576,1066.482002L317.522528,1064.981764L320.126378,1064.752724L322.584720,1065.394039L326.871507,1068.005194L328.340398,1068.577835L328.863302,1069.791857L330.642112,1071.853476L332.575465,1072.529248L333.672272,1069.539888L334.951168,1068.921423L342.899617,1066.837027L345.175464,1063.561735L347.759529,1058.706477L351.070507,1055.477549L355.537521,1057.069085L357.098888,1055.695094L358.517560,1055.843941L360.175477,1056.599633L362.498405,1057.069085L370.678120,1057.069085L372.403519,1058.271360L373.860547,1060.126359L375.421757,1061.191299L377.432366,1060.023302L385.784126,1060.905022L384.920788,1057.675944L385.278388,1055.111159L386.785410,1053.015925L389.301965,1051.298590L384.860588,1049.546972L386.326459,1048.425055L387.829925,1047.623702L387.937665,1045.528801L379.833262,1045.517353L376.180022,1044.429873L373.136529,1041.682666L399.524675,1043.800290L410.530142,1041.419400L414.162721,1041.682666L417.158991,1043.640035L420.040849,1049.295111L422.756008,1051.298590L422.513353,1048.058721L421.698987,1043.811737L421.638656,1040.721181L422.324557,1038.935618L426.062998,1032.274689L427.468049,1031.965700L429.368212,1031.141738L430.956982,1029.871491L431.498422,1028.257984L430.596537,1026.106726L429.236244,1026.427120L427.077916,1028.257984L424.783383,1027.605730L420.291892,1027.228114L418.108675,1026.163939L418.197591,1024.413251L428.386147,1024.504789L433.008549,1026.575875L434.309481,1032.274689L437.709612,1030.683987L438.928756,1027.605730L437.974008,1024.344598L434.810578,1022.319376L437.515030,1021.632880L441.031172,1022.742721L444.025007,1025.099788L445.247099,1028.257984L448.311546,1025.065461L451.143381,1023.452117L459.531246,1021.838828L465.611948,1019.264544L468.176382,1016.289990L475.817799,1009.838135L476.900003,1007.641959L476.474138,1006.040645L475.622305,1004.668132L475.392643,1003.112666L476.147831,1002.060467L480.219545,997.371605L472.503585,997.371605L473.970257,996.513936L475.452592,995.884988L478.673347,995.278920L477.767001,994.832949L475.866593,993.529368L475.970157,991.436852L477.484262,991.436852L477.570795,989.687441L475.041943,989.070017L466.702192,989.687441L471.160083,980.861327L465.809588,977.580532L456.583436,976.517466L449.323475,974.345683L453.966471,972.299724L458.493900,971.831110L467.571229,972.242576L471.726596,971.282493L475.891552,969.762401L479.727174,969.065232L481.546800,970.516726L481.461368,972.242576L490.571704,971.991124L495.027857,972.779774L497.842629,974.345683L499.866692,972.196857L501.631957,971.282493L503.077900,971.922546L504.031388,974.345683L502.155718,975.305827L501.036761,976.448881L499.199995,980.106839L501.339851,980.198291L502.701109,980.735578L503.820891,981.421486L505.169878,982.027379L502.205430,984.611083L499.149627,986.291710L496.001011,987.286394L492.778353,987.766594L493.666588,990.419213L494.112385,991.436852L492.061564,991.905659L490.067099,992.877591L488.500154,994.318374L487.824952,996.319533L488.739995,997.325862L490.948454,997.508833L493.488111,997.371605L499.577253,997.829034L513.583128,996.754081L522.146911,994.123980L539.007091,991.368246L542.728339,989.687441L538.721491,985.845823L542.183430,982.416068L553.989914,978.369274L563.263008,976.791803L568.370818,975.077220L570.909541,972.242576L568.280939,971.442505L561.958018,966.676647L566.625725,966.436653L570.457536,964.631017L573.783371,961.705574L576.877290,957.957610L577.547835,955.569579L578.114299,948.886007L578.410163,948.337653L578.882028,947.492285L581.337737,948.680374L582.198327,951.250857L582.437852,953.821478L583.067476,954.986871L606.415886,957.477709L607.786958,956.060887L607.866510,953.170241L609.893133,949.251580L614.586509,947.423743L626.278374,948.440469L630.546068,946.452732L632.426008,945.298969L634.654899,944.979118L636.526660,944.396540L637.389604,942.443238L638.614811,933.911322L645.788410,929.902870L647.239330,926.477107L646.933831,925.278147L645.326915,925.004104L638.848278,922.663377L634.848829,921.795624L631.420684,922.206663L629.164880,924.319001L628.547798,919.729065L631.388845,916.030030L635.710873,913.564164L639.583282,912.662327L640.255743,913.495669L640.818444,915.356471L641.663849,917.331510L643.152553,918.416103L645.380304,918.085014L646.620303,916.726431L647.513604,915.276557L648.606492,914.580177L656.875860,913.096120L672.381477,906.646709L714.897534,903.085633L723.181779,904.660692L727.290837,904.660692L731.755637,903.085633L733.248738,901.613341L734.356372,899.696005L735.910582,898.052634L738.665417,897.333676L740.423119,897.641799L743.208029,898.942786L745.496262,899.250919L744.774479,898.052634L744.339128,897.094026L743.755571,896.238143L742.523360,895.416509L742.598345,893.670583L745.676203,893.373896L748.412066,893.716227L753.211408,895.416509L746.690126,902.024208L745.242607,905.174309L750.022047,904.215561L760.003526,903.975877L764.959356,903.085633L768.888214,900.745965L775.552150,893.853161L779.152559,891.593812L779.233017,889.676871L773.747637,889.745331L773.349791,887.029791L776.472700,880.093298L775.834264,877.332667L772.959068,872.655920L772.332740,871.321419L772.298686,868.515662L772.081029,867.078630L771.624658,864.067843L771.125653,860.794963L773.793215,863.759932L776.648079,872.519046L779.058743,874.366873L781.343891,875.359253L783.817223,877.652071L785.899671,880.275825L787.085994,882.203804L790.429953,893.602116L790.269541,896.375083L787.692414,898.463471L784.828477,899.878605L782.126004,901.727471L779.949797,905.174309L783.598883,906.932063L786.690709,904.592210L789.346084,901.065523L791.660156,899.250919L807.950650,891.593812L806.375864,889.676871L807.113796,889.654050L808.654042,889.790972L809.395731,889.676871L809.481200,887.600270L807.966651,887.714367L806.461505,887.600270L808.152540,885.820397L808.902274,884.200313L809.790351,880.093298L808.424579,880.093298L807.619835,880.869041L805.174534,882.203804L805.852886,880.138930L805.862218,879.260529L805.575994,878.359330L805.426299,876.112107L807.007763,874.366873L811.274592,875.906782L815.682027,874.469532L819.548461,871.538130L822.309013,868.618309L821.726478,872.975293L819.345628,876.488538L816.055018,878.952523L812.665661,880.093298L812.578884,882.203804L816.805914,882.990989L832.498654,881.142836L848.714814,885.021757L852.690778,886.721735L858.233190,891.525348L862.064717,891.913309L871.573680,887.600270L882.201576,885.866034L886.054948,883.846639L888.321713,883.789596L891.260231,885.866034L886.739890,885.866034L886.672155,887.600270L896.281672,887.543222L896.939366,887.269391L897.356029,886.721735L900.104346,884.907667L902.111252,882.740001L903.461889,882.203804L906.040581,882.443381L906.289627,883.675508L904.161734,887.121067L902.493829,888.421772L901.961526,889.870843L904.744237,891.593812L906.835175,891.913309L908.445391,891.411242L910.723036,889.676871L913.673066,886.573412L920.474855,874.366873L909.462867,865.447764L905.302132,859.004664L909.236830,853.155293L909.304228,851.410878L903.757560,858.309088L900.949542,860.783559L899.878417,857.841576L897.938177,855.549688L891.089357,854.341074L892.604630,851.410878L891.096806,847.728430L888.704364,844.639035L885.720008,842.461756L882.437070,841.492841L882.505853,839.748841L884.264172,838.403838L886.083851,837.321024L888.027742,836.500380L890.051896,835.919099L888.552697,840.957096L893.094215,842.108385L905.925801,841.287661L907.904882,841.869006L909.603597,843.202704L911.047649,845.323017L911.578508,841.572633L911.363176,836.694142L911.704681,831.576807L913.936327,827.234897L919.273273,820.056202L922.834319,816.330529L926.582459,814.724134L930.708656,810.964688L944.740198,793.811578L947.820789,788.926421L948.856429,776.983155L948.437492,772.680185L946.455511,764.735465L946.373284,760.547356L947.727570,755.324092L958.580982,741.113663L962.673756,734.186263L963.420359,732.900988L962.330923,726.691188L968.058199,713.387058L970.643564,709.339662L973.326082,706.736313L983.001236,699.813648L981.434111,697.733624L989.395286,684.425770L991.880999,682.471367L993.050952,681.289672L995.443922,676.051912L996.668459,674.836284L999.544945,673.881979L998.952465,671.791660L990.052513,663.726562L987.329486,659.410557L988.417489,654.924571L990.333509,650.734221L991.814324,644.091691L992.362821,637.313794L991.516594,632.750289L992.285764,632.228123L992.499502,632.239474L992.639740,632.069204L993.054100,631.013540L985.987868,618.926034L983.169186,615.623746L984.911664,610.585612L983.725212,607.533470L981.247898,605.139537L981.197412,605.060120L979.053681,602.110408L977.971182,597.992439L977.751341,594.169715L978.226354,588.022189L978.992342,586.865357L980.211424,584.574451L980.296104,582.351689L977.678767,581.353745L976.051353,581.036222L973.807158,579.607390L967.701903,578.496104L964.889883,576.557080L960.785138,571.658817L955.831827,567.543273L954.427221,565.185202L955.168913,562.147077L968.233542,554.529872L969.821744,554.212512L973.695454,552.807087L975.791451,552.478404L976.622688,553.090436L979.243022,555.810663L980.108726,556.456738L983.159417,557.714906L986.058491,559.687232L988.824236,559.551207L991.454602,554.529872L987.541163,552.546407L978.547113,552.127056L975.038956,550.744354L975.856343,549.860351L977.359006,547.820401L978.167378,546.936447L976.205891,544.930608L975.548022,541.667034L974.615930,538.596289L960.772287,533.452345L964.395642,531.345061L968.871927,530.178160L972.679520,530.653981L974.208869,533.452345L976.246720,531.367719L978.985603,526.315112L980.677425,523.958906L981.269700,521.738732L982.353725,519.915088L986.235827,515.395897L987.823423,511.556588L987.466251,507.411809L986.044097,503.686318L984.407766,501.149964L980.117410,498.749598L973.650776,496.326699L967.807465,493.213324L964.295171,486.421143L961.961456,485.198643L958.740217,483.500774L956.676596,481.972738L955.236574,479.052615L953.962688,475.080149L953.058718,470.972185L952.565328,458.729400L952.275511,451.466531L953.697361,444.023686L958.321393,440.200865L953.592397,437.260421L951.578647,432.997064L951.986836,428.078228L954.533172,423.148540L954.615672,421.068257L938.539412,419.417655L931.347173,416.546182L926.724307,411.572339L925.610094,406.689379L925.963567,401.693847L927.457741,393.489522L929.098166,388.879376L931.949081,385.218657L933.374880,382.608853L930.807437,381.253160L930.892213,379.163200L942.344394,380.315492L957.382751,385.320341L960.510180,384.879715L963.412058,386.777822L968.445261,389.240941L973.784111,390.709828L977.575937,389.602510L984.912370,383.252819L985.851927,379.829719L981.841847,375.220738L980.281519,374.350950L978.424118,373.831343L973.796238,373.492472L972.502356,372.611416L969.522179,368.680727L968.016076,367.799749L964.667866,366.478310L951.388539,356.438681L951.388991,356.427389L948.258331,354.401960L944.996015,354.731792L941.855721,355.936411L938.934769,356.438344L936.417077,355.032944L934.819921,353.111334L933.052443,352.896232L930.012652,356.596095L929.672754,358.317048L929.956832,360.453973L930.020315,362.763094L929.004234,365.072313L927.581265,366.047665L922.437285,366.707472L916.774185,368.227927L915.220936,368.256615L913.856996,367.510726L912.614414,366.277162L911.796908,365.100999L911.670807,364.613330L905.646051,364.814134L886.827306,370.020971L885.124310,369.863181L881.839715,368.801695L880.108040,369.059892L878.931576,370.020971L877.806809,371.263132L876.489537,372.717822L875.274190,373.262946L872.245514,372.000561L866.669511,366.635753L863.438026,364.613330L867.078070,358.087584L867.493398,354.932560L865.313153,351.749039L870.404292,347.017123L872.665462,341.941524L871.617689,336.981085L869.921206,335.413047L866.872067,332.594483L862.447093,329.670277L860.164677,328.666909L857.591992,328.408903L855.221563,329.455268L853.503554,331.261369L851.690343,332.666156L849.102461,332.494140L844.481929,330.229304L839.970614,327.276558L835.885801,323.578684L832.474743,319.135831L831.338736,316.355649L830.704487,313.661586L829.818869,311.325883L827.948849,309.678055L820.367896,306.683432L824.240651,305.164690L826.103749,302.370888L825.899527,298.345197L823.608476,293.170188L821.695488,288.848025L820.387289,287.730818L817.802410,287.573265L816.087066,286.785507L814.320789,282.102158L812.889915,280.226066L799.796187,271.805914L792.599110,269.013800L785.760185,269.471983L779.200732,274.125624L768.097491,286.584989L760.775620,290.624144L759.000691,290.667115L755.209979,290.137138L754.360011,290.483913L753.700309,290.753058L753.313920,292.070864L753.774390,293.761139L754.539956,295.164967L755.092462,295.594716L755.163081,295.766618L753.361088,298.330871L753.082482,298.287894L751.840399,299.419641L750.231483,299.018513L749.178357,299.219077L749.567840,302.198966L756.728057,304.906795L755.248080,308.761024L762.758809,313.661586L759.603967,316.828557L760.787338,321.385876L756.033347,323.650345L744.017650,326.015240L741.479209,327.462892L739.629826,328.824580L738.152180,330.644995L736.798909,333.411568L737.792488,334.515370L739.755030,335.805556L739.956840,337.267803L735.622776,338.887790L736.471782,341.654781L735.767323,344.479264L734.081116,346.902415L731.979138,348.594383L728.935667,349.741509L728.210256,348.666077L728.552873,346.142480L728.679697,342.945136L729.098298,340.479151L729.821324,338.472037L729.111828,337.783900L722.356146,340.708540L720.726787,342.142245L720.639974,343.991780L725.243409,351.777719L723.897080,351.889289L721.609550,352.078855L711.180905,349.383030L707.949524,349.970938L706.992305,349.770188L706.622148,348.565705L705.141483,346.128142L703.361512,345.741010L701.168118,346.013436L700.423587,345.597628L702.955044,343.174536L697.543181,342.830437L688.341317,348.178555L683.620405,348.881162L660.608430,344.780360L658.114439,343.375261L657.519755,341.052626L657.279840,338.601063L655.849023,336.837727L640.609995,328.007563L636.761368,327.462892L623.799540,328.107898L611.929917,326.903893L607.793895,324.940275L605.134628,320.654960L604.888959,308.402812L603.675975,303.975516L600.574578,302.155986L592.120565,301.196101L590.416450,300.690250L588.549154,300.135948L584.972123,296.998591L582.348201,293.016266L578.200383,284.322045L571.874297,284.293401L566.529100,282.116480L561.642332,278.149549L552.929949,268.441076L547.963523,264.145834L545.982429,261.840858L545.645871,259.607556L545.096728,257.474550L542.451406,255.556346L543.641751,255.075598L547.696789,253.437810L559.352601,250.889948L564.809925,248.542582L567.388063,246.810748L568.558575,245.637139L571.436839,241.572635L576.085530,236.735687L580.853357,232.929390L597.133639,235.805553L605.634725,236.063127L614.059584,233.630531L636.413020,218.336214L645.492539,216.118956L645.484267,215.967766L645.483427,215.952422L645.188222,210.554739L642.904341,210.111342L639.443083,211.942166L635.738636,213.258108L632.406580,212.285452L625.700605,207.636964L622.777135,206.349758L621.124095,206.721615L617.669516,208.623842L615.859025,208.566631L614.227451,207.193590L612.223361,203.689627L610.443562,202.817245L606.734517,202.030683L603.241913,200.300286L601.609347,197.440241L603.490123,193.279135L602.197757,192.735783L598.754598,190.505234L609.686241,186.544798L617.373556,181.012090L620.342833,181.126456L626.325054,185.129403L633.342692,187.931634L640.701399,187.531307L648.287417,184.371680L656.089500,178.867775L660.031766,177.180970L667.381785,178.710528L673.941658,177.223855L677.918970,178.896365L680.185083,178.982136L683.059443,178.067251L683.099351,177.481161L681.982554,176.537711L681.368557,174.465035L682.131633,167.575720L683.689796,163.845547L700.086687,149.413081L703.732747,144.512589L706.254879,138.583985L706.394944,135.698477L705.820516,128.671016L706.783444,125.400398L708.652479,123.700892L713.003564,122.387023L713.320245,122.023149L714.942358,120.159228L715.321509,117.860119L714.435148,110.806283L715.400414,108.850211L716.564430,108.550380L717.156391,108.079222L716.380295,105.663061L722.821835,98.667787L725.075008,96.826315L727.723532,95.341761L741.586901,93.771601L743.418132,92.329946L745.172618,90.388766L747.151635,88.647469L751.394501,87.498188L751.904222,86.364890L754.885217,81.274345L758.480801,76.723578L768.383546,67.016491L771.356661,65.005623L777.279430,63.713762L784.428628,60.950403L792.013920,55.570100L798.991104,52.290500L806.307466,49.999386L812.400214,49.123397L818.950167,46.293369L819.901170,40.633739L817.085743,36.423074L812.235439,37.983791L807.869295,35.491156L798.226626,32.414814L790.209401,31.370692L779.666799,27.733259L776.515957,25.577854L766.059218,13.174665L763.253023,11.378956L755.131973,8.057048L751.645960,7.675490L736.995360,3.747841L729.866070,0.662025L726.000683,0.000000L722.520228,1.683131L724.289080,3.489748L726.800537,5.161763L732.390168,7.675490L732.577499,14.117435L738.752954,20.156031L752.135057,28.238444L747.749166,30.494992L742.968472,30.371497L738.295338,28.743633L734.291869,26.509607L735.747064,26.689224L740.296336,26.509607L737.216711,21.480568L732.981785,19.886637L728.568370,20.896870L720.037898,27.430150L715.281846,27.531186L710.806746,25.476822L706.654586,22.749011L707.030408,24.197092L707.123819,24.971661L707.277552,25.589080L707.810858,26.509607L704.341136,28.260896L701.309900,27.867974L698.205714,26.823937L694.574735,26.509607L696.671862,30.899160L695.826180,36.479214L693.247789,41.273788L688.283271,44.474140L688.114503,47.169315L688.811253,50.100463L689.631757,51.953566L691.220738,53.525944L696.153945,56.670830L704.302757,66.555895L705.824300,67.027725L705.501049,73.633759L703.045849,77.521341L702.027597,80.027061L702.998740,81.173213L706.877973,82.825059L707.638777,86.668315L706.094403,91.141200L703.135525,94.535431L699.357759,95.805510L694.358771,96.715937L689.947862,98.165907L687.938625,101.144642L685.660758,101.549313L664.429851,116.246287L660.417214,118.270188L656.069775,119.248432L656.164535,117.359423L659.249384,115.436746L666.831860,107.915311L677.826183,102.212528L680.483072,100.189182L683.126124,94.355599L679.035248,92.714660L666.023935,94.535431L666.118352,92.647225L678.185728,87.005454L682.283294,83.533008L684.921400,81.858667L688.186461,81.173213L690.403965,79.116899L691.883890,74.566305L691.668413,70.038543L688.839584,67.960163L686.515195,66.690703L684.156759,63.635128L682.585824,59.928218L682.642431,56.670830L676.562533,54.379539L673.847796,52.526356L672.795349,50.066771L673.400334,48.494489L674.539630,44.305696L675.141231,39.993698L674.136943,37.983791L672.304822,36.748687L670.723735,34.009102L668.560956,31.337011L664.966530,30.292909L662.211461,31.033883L654.247856,35.940271L650.797899,36.883425L643.138586,35.940271L643.058945,37.500974L636.725171,46.293369L635.775711,49.763542L638.291438,51.515554L644.563529,52.896987L646.461673,54.559244L648.133496,56.536046L650.141344,58.119783L653.102372,58.557846L651.936414,55.592564L650.730378,51.347089L650.509864,47.393918L652.313956,45.372517L654.949474,46.327059L656.638097,49.359239L657.475246,52.930681L657.663191,55.637491L658.603567,57.344757L660.406009,61.624380L661.590185,65.994197L660.736512,67.960163L659.122517,69.510515L655.322854,76.802231L653.520718,79.285447L653.954452,76.779758L655.309993,71.836123L655.479985,69.858788L654.947845,67.881523L653.226169,64.264204L652.864842,63.253193L651.206614,60.647115L647.241462,57.861440L642.898073,55.626259L640.054411,54.615403L638.057908,54.884962L635.841736,56.704526L633.922016,56.670830L632.484150,55.794737L631.495837,54.536781L630.852759,53.391167L630.439478,52.896987L630.874850,50.909082L636.484079,37.983791L635.699663,37.377464L635.482751,37.332551L634.984190,35.940271L629.290808,40.768485L623.463519,43.912662L619.867823,47.304077L620.877233,52.896987L625.470315,58.086086L625.930297,61.085197L623.128252,66.084069L620.874555,68.263489L618.971811,68.398302L616.560865,67.836586L612.596179,67.960163L612.693322,66.084069L615.279858,65.791987L617.508555,64.780950L619.286841,62.972360L620.496481,60.276433L617.119727,61.096430L613.812741,62.938660L611.987009,63.455394L612.994135,60.276433L613.083179,58.557846L610.339713,54.615403L608.239516,55.693650L604.744749,56.760687L601.486746,56.985328L600.118235,55.637491L598.802938,54.952353L589.524413,58.557846L589.623552,56.670830L599.695488,51.639096L601.679647,48.584333L596.111366,45.372517L591.166726,46.001390L588.323873,50.021848L586.104791,54.514318L583.008175,56.670830L578.755552,57.782814L565.364467,63.915965L558.570064,70.690159L555.940492,72.263056L554.881490,70.892387L555.483748,68.330895L556.720862,66.533427L558.273793,64.736015L559.754874,62.309599L556.195372,62.904960L549.421795,65.499908L545.476224,66.084069L533.507344,62.163568L530.164845,62.309599L527.867321,65.185363L523.962192,73.723642L521.345456,75.510102L520.279720,77.667411L520.859886,82.487943L522.867819,90.612977L520.969061,92.096510L519.314137,97.165536L518.022475,98.300790L516.066117,96.963216L515.811998,90.511828L513.845271,88.893475L512.260601,89.927418L507.679099,96.603538L505.177237,97.693820L503.044894,97.491498L501.294207,98.177148L499.999176,102.077637L501.343406,102.077637L500.699154,103.089334L498.315340,105.854731L495.942352,104.269670L493.518338,103.932429L491.244299,104.539465L489.335209,105.854731L489.221592,107.915311L497.013391,115.470477L501.670905,119.012303L507.954579,120.968833L502.456811,123.600134L499.545735,124.421035L496.539237,124.735904L493.764711,123.870018L491.821216,122.284468L489.807505,121.497333L486.911136,123.004145L489.359323,128.188332L492.977868,133.856613L497.796792,137.871985L503.931818,138.108192L504.136226,137.264600L504.304921,135.464977L504.763025,133.519200L505.728218,132.270788L506.867336,132.023358L510.819850,132.270788L513.666773,133.283012L515.817686,138.209424L518.570482,139.997884L515.351568,140.639043L506.915922,139.514207L503.725342,141.887638L503.369735,146.466052L506.659616,149.379779L511.363403,150.898576L515.140685,151.337347L515.038822,153.216226L510.588775,153.171222L498.736947,149.616034L488.470351,151.033582L483.744548,150.729819L479.661416,147.557276L477.166684,149.076024L474.137470,151.978634L471.956995,153.216226L469.290286,153.700019L467.153880,153.666266L465.524824,154.318830L464.495662,156.996672L469.543436,157.379231L477.116098,161.598804L485.131712,163.725588L496.151509,172.267281L492.072303,173.764179L488.261343,172.132225L484.953097,168.890964L482.415124,165.582368L479.954294,164.873408L470.207574,165.233514L466.787493,166.426380L470.685946,169.464924L485.674230,172.267281L485.579574,173.989280L479.721102,173.887985L468.518331,171.085547L446.822572,170.657878L441.211828,172.267281L425.341467,180.573876L422.766136,182.656343L421.969804,185.977193L420.172284,188.003570L417.570861,188.983012L414.393081,189.253205L411.327272,190.030020L410.740560,191.820111L412.073583,193.779143L414.799535,195.107721L414.702078,196.819156L413.501490,197.787490L412.813185,198.733322L412.307326,199.724210L411.516253,200.771417L415.344490,200.703855L432.978658,205.838824L434.937799,207.359135L433.041756,210.039487L436.710546,211.886527L453.103746,211.931578L457.338231,214.251728L460.065629,214.826149L462.569243,211.008050L465.147756,210.287258L470.414856,210.039487L471.779490,209.588999L474.118713,208.406485L475.578463,208.147461L477.280598,208.609200L477.423878,209.690359L477.144840,210.917950L477.999198,212.855121L479.974217,215.096466L482.181581,216.481865L483.337153,214.859938L485.422164,209.622786L489.242784,205.838824L492.045414,205.838824L491.025486,211.931578L492.506391,211.931578L495.890023,209.363756L498.438577,211.773901L498.859776,215.704686L495.837212,217.788451L491.692752,218.610715L488.292841,220.649531L482.762453,225.358240L482.669382,227.059330L485.857926,226.484784L488.984769,225.099138L491.994815,223.262928L502.571748,214.882465L508.202954,212.798807L514.035328,207.460491L517.352427,206.255498L520.445242,207.088855L521.837205,209.070942L521.402765,211.582437L519.024923,214.003940L518.932984,215.715949L523.532637,213.947625L531.670196,209.138515L546.559313,207.269042L550.947202,205.624858L555.245470,202.663196L555.648635,203.541543L555.788368,203.732980L556.004535,203.811807L556.635259,204.386121L555.372054,206.784791L552.415797,215.715949L549.731309,215.299206L548.145721,214.274254L546.686153,213.035327L544.417392,211.931578L544.679620,218.802203L534.273659,225.639874L534.525978,231.013719L522.294407,238.405009L524.977906,241.019235L528.103437,242.134826L535.265066,242.348932L535.155095,244.422420L528.175709,245.583157L518.092296,250.654619L515.299476,251.060356L497.472911,253.663905L496.920827,253.754074L490.338119,256.166132L483.842947,259.547699L483.776151,257.856890L483.483403,257.721627L482.631265,257.484919L482.125081,255.760358L480.700610,252.750959L479.124118,251.883110L478.087480,256.639539L477.573820,262.162918L476.836350,264.349877L475.481627,265.229194L471.864105,266.153619L445.892088,279.458031L439.543105,280.856308L436.858170,282.119297L434.565621,283.946173L433.495183,286.032494L433.650340,288.953475L434.785234,289.833183L456.335327,289.821904L460.974862,290.769298L465.493058,292.968667L466.968098,295.562907L462.511472,297.548147L457.672513,294.423682L455.018367,293.679251L453.677624,296.521679L454.171326,298.788958L455.685792,299.533458L460.118372,299.285291L464.210854,299.759066L468.305931,301.157858L472.127500,303.526859L475.348808,306.866196L460.156437,304.711398L457.598691,305.895962L456.224859,307.249782L453.328655,306.708250L448.634638,304.948309L446.640227,306.008779L443.938693,309.303138L442.397484,310.634476L442.283212,312.699242L445.625243,312.699242L449.554718,313.590613L452.763859,315.204144L454.017147,317.336786L455.280485,320.417415L458.591618,321.963437L462.468890,322.866244L465.516074,324.073771L465.413225,325.958470L458.333286,325.710183L454.941317,326.274474L451.944680,328.012527L447.701890,322.821103L445.291089,320.992937L439.256803,319.130977L438.044469,316.434070L437.584934,313.240832L436.456459,310.634476L430.484523,308.332861L417.112171,310.329845L411.295424,306.866196L406.687386,309.573916L401.906568,310.634476L391.209187,310.634476L387.936142,310.047780L383.221983,307.452858L379.793263,306.505177L376.126517,304.779087L373.727129,303.154581L372.532525,303.639671L371.294265,304.576021L369.752498,304.948309L356.716532,302.624370L349.341691,303.289954L345.856290,307.892858L343.931565,315.136442L339.865639,320.722102L334.794932,324.412335L329.822263,325.958470L330.910576,330.032802L330.365635,333.904262L329.285060,338.159799L328.814964,343.172050L327.461021,343.172050L327.780129,337.719556L326.267467,333.486628L323.702313,330.314969L313.606958,323.159660L312.733110,320.586686L317.037007,318.386211L317.158847,316.321232L312.539182,314.594833L312.651330,312.699242L313.951503,311.345288L314.616391,309.370832L314.412586,307.136962L313.110101,304.948309L312.620031,305.760582L310.357689,306.347232L306.463920,306.866196L305.413003,305.659048L303.954533,300.458458L302.407031,299.285291L300.499980,299.104805L290.985913,295.641864L288.355153,295.303477L286.240674,296.521679L284.510202,298.112148L281.927057,299.623702L279.209074,300.729192L277.079727,301.157858L259.932349,299.285291L258.261847,298.416712L255.414461,295.980252L253.561790,295.495229L251.119812,295.833617L246.960343,297.232308L244.528398,297.548147L207.398067,295.495229L203.246744,294.615431L195.239099,290.701626L190.691125,289.821904L177.831169,292.404718L177.260823,294.434961L178.299082,298.416712L180.479869,301.248103L191.735073,303.154581L195.679663,304.948309L190.981141,304.181173L188.931499,304.305267L186.769623,304.948309L186.648910,306.866196L190.982322,308.806715L192.584817,310.318562L193.708640,312.699242L188.946065,312.089958L181.599198,307.881575L176.942780,306.866196L173.548646,308.535941L169.791555,312.439731L168.093578,316.907994L170.842196,320.281999L167.520672,321.760308L164.448086,324.886328L161.322877,326.883915L157.859135,325.021756L154.019220,323.656212L148.889202,323.385365L145.625076,321.737738L147.351386,316.321232L152.594605,320.203007L157.966969,320.688248L163.346373,317.585035L168.615241,310.634476L167.567234,310.431388L167.350266,310.228301L167.413561,309.788283L167.106257,308.919538L164.901391,310.228301L162.965276,310.228301L161.272557,309.043644L159.820036,306.866196L156.639383,308.502094L152.825070,308.152346L149.161926,306.685686L146.462299,304.948309L145.761017,303.617109L145.574892,301.834705L145.203362,300.187724L143.988663,299.285291L141.842649,299.398094L140.862670,300.481019L140.249753,301.902390L139.290382,303.075613L129.418686,307.294910L126.926807,308.919538L124.966093,312.168939L123.536580,315.813462L121.409149,318.352359L117.268509,318.386211L119.559260,320.834950L122.251229,321.873157L129.053632,321.986007L126.302747,325.416754L123.728666,327.199924L121.739956,329.502331L120.683077,334.491213L119.388249,337.685691L113.957505,345.576740L112.452511,348.862192L112.453260,354.180303L114.263130,356.991998L117.411934,358.132527L121.453595,358.335792L125.240986,357.263013L124.919204,354.835223L122.394784,352.249464L119.631922,350.759038L123.971860,348.929935L125.834890,348.862192L125.627305,343.567180L124.653962,341.918945L121.874778,341.106134L121.985595,339.390241L126.757564,337.426062L129.449824,336.974536L132.507045,337.313180L132.628983,335.416802L131.671097,334.491213L129.918249,331.624243L134.038410,332.346615L137.762277,331.251774L139.115257,328.915434L136.200492,325.958470L139.617194,323.024237L144.459653,324.468763L155.271714,331.624243L153.778243,333.960699L151.641358,335.145896L149.090278,335.055595L146.251129,333.520490L153.355201,339.909519L155.899672,343.172050L154.513709,342.562428L151.581164,341.783475L150.208509,341.106134L151.255060,344.402606L153.740488,347.067024L160.126499,350.759038L156.113415,352.486581L146.148328,354.677138L141.933718,354.552929L145.880127,361.802706L151.134574,365.224667L157.323787,364.253395L163.975730,358.335792L162.488385,358.335792L162.608381,356.438681L164.884385,356.145087L166.058055,355.783742L166.370826,354.756180L165.965383,352.486581L171.713438,351.030022L174.229673,351.131641L176.233382,352.486581L169.894195,356.438681L171.403603,358.335792L168.512782,359.532812L166.502362,361.226754L166.445443,362.830401L169.428036,363.835528L166.755188,366.342780L163.824851,367.031729L161.353198,368.308004L160.099291,372.453280L160.565104,376.576280L161.997112,378.869482L163.488069,380.371978L164.095299,382.123059L164.779005,383.083353L168.468221,382.744424L169.854547,382.959079L170.815553,384.303517L170.760200,385.467217L170.525154,386.811717L172.634647,393.726820L173.996874,395.749542L176.453825,396.427566L175.219735,394.337018L175.327953,392.608140L178.318478,392.969731L180.300908,394.574320L181.953302,396.642276L183.897190,398.303478L182.814744,401.592133L182.996974,404.643641L182.926428,406.915432L181.009661,407.797049L178.584780,406.305091L178.113564,399.795214L175.654024,398.303478L172.703083,397.727137L168.038515,395.082826L166.171029,394.337018L155.616599,396.427566L155.498154,398.303478L157.120196,398.303478L157.011124,400.032540L156.199228,401.942482L156.193151,403.163073L156.651934,405.728664L152.879737,407.763140L151.034250,415.506158L148.236903,417.111420L155.067610,422.854582L167.005211,420.751699L189.029680,411.572339L220.118148,411.707984L226.235357,413.471388L227.478697,412.567071L228.395716,412.069703L229.343284,411.798413L230.820110,411.572339L230.185182,414.138332L229.130181,416.320088L227.696708,418.015814L225.888192,419.168939L229.823874,420.955200L231.590904,421.068257L223.756326,425.771620L221.287982,428.281758L222.089834,430.554551L221.974080,432.454273L220.568006,432.669127L219.535065,433.166687L218.592797,433.777334L217.386380,434.354063L225.932332,437.690168L229.205255,438.153846L229.081072,440.200865L188.253217,445.742913L185.870916,444.939846L181.586200,442.756922L180.317512,442.892645L177.971377,444.657079L175.590242,445.267858L170.394944,445.742913L164.376173,447.462197L156.031786,448.604645L153.885781,449.701872L155.511374,454.781082L153.903315,459.046184L151.202033,463.605809L149.532694,469.546355L151.863439,481.972738L169.074070,490.281258L178.404156,493.043508L193.681540,492.047270L197.375649,493.552956L197.269724,495.285113L180.221049,494.424688L169.865546,492.998224L165.426493,490.485026L163.179295,489.749202L160.216056,489.952968L152.490338,493.552956L146.187780,494.843577L129.247746,493.552956L120.828420,494.990755L123.868226,498.364644L136.733862,505.113071L134.341361,506.256766L131.053539,509.755947L128.927073,510.480726L125.969199,506.200146L124.784162,505.113071L115.094065,503.131480L105.390540,503.052218L105.763155,504.320425L106.279965,507.513726L106.654152,508.759393L101.174744,508.510257L95.972568,507.264597L90.883434,507.174004L85.656066,510.480726L87.690704,512.032240L90.262753,511.862363L96.709470,510.480726L98.699921,511.896339L100.328847,515.078775L101.345395,518.385995L101.446290,520.152952L105.754554,524.162804L113.866089,526.858867L121.999185,528.104994L126.344528,527.765138L124.291031,530.846576L119.914921,530.257463L114.657579,528.410865L109.929664,527.765138L110.969263,530.314108L112.481358,532.149444L114.523584,533.203092L117.043870,533.452345L116.912244,535.537054L113.456631,538.256365L110.115552,538.596289L101.852582,537.259268L97.248001,537.735153L93.918730,539.423446L91.402776,542.448914L89.167008,546.936447L93.211333,546.891116L95.011414,546.301823L96.890306,545.032598L99.826253,547.718405L105.062225,548.115055L113.949739,546.936447L116.944167,547.729738L118.420921,549.724352L119.582318,552.206393L121.671001,554.529872L124.136020,555.685983L126.958710,556.252713L135.646692,556.150701L139.432070,554.847233L141.918198,554.529872L144.361767,553.464459L144.432070,550.903023L143.996072,547.752404L144.815213,545.032598L147.384037,543.230805L149.365164,543.434778L151.135446,544.454657L153.111278,545.032598L155.309637,544.318672L156.898356,542.811528L158.676455,541.406411L161.501101,541.066469L159.460314,543.842727L155.017170,546.165833L153.686931,548.670370L154.739558,551.798378L158.052497,552.070387L161.043087,550.642353L161.031317,548.670370L166.094668,545.814527L168.572935,545.032598L171.830832,545.032598L171.713799,546.936447L167.004751,548.670370L166.877035,550.744354L174.471137,550.744354L174.364753,552.478404L170.936717,554.801895L161.731284,559.403847L158.010615,560.242671L155.066280,560.333355L153.117489,560.741437L151.536189,561.829671L150.635016,563.870171L149.985615,567.021767L148.662043,570.559039L147.631857,571.658817L150.945788,573.529626L160.609459,571.828888L164.722905,574.618129L168.166383,577.883773L171.739184,577.883773L182.318817,574.311985L185.920003,571.057904L191.610887,563.892844L194.229800,559.483195L196.121609,557.363523L198.847918,556.456738L202.018145,553.509795L203.434573,552.467071L204.348842,552.954428L205.204225,553.974494L206.426087,554.529872L206.435738,556.728772L203.913689,561.625625L202.601789,566.829038L206.323931,569.946802L210.596550,568.665662L212.784465,564.573028L212.655088,559.766580L209.978258,556.456738L213.386146,554.722555L217.287921,554.246515L225.159641,554.529872L216.759094,558.156973L214.238281,560.242671L222.677297,566.840375L222.046857,567.849377L221.324350,568.461589L219.752556,571.057904L218.843567,571.658817L217.274234,571.386705L215.181035,570.196231L214.474484,569.946802L209.974665,572.339103L211.009100,584.926019L206.437885,590.698881L206.313798,592.763205L209.642121,596.120743L213.055394,595.689696L215.817276,592.139362L217.158068,586.116832L219.515030,580.979521L223.199136,580.911481L224.601287,584.143500L220.124261,588.974894L222.889703,591.322707L224.634250,594.056285L226.996791,596.597168L231.549172,598.298722L240.667792,598.321410L245.594850,597.311814L248.976702,595.440143L256.030036,592.819918L327.341293,588.362439L335.117628,585.753914L339.562174,585.164179L356.860055,587.069502L356.753637,588.974894L353.787253,590.063722L348.046185,591.356734L345.917214,592.763205L345.819183,594.510005L351.951984,594.510005L351.846659,596.392985L347.556287,596.597168L337.499098,598.525601L333.543492,600.374695L336.578970,601.565864L358.196067,602.110408L360.087344,601.770067L364.271877,600.431416L366.584127,600.374695L359.040393,604.560926L355.411900,607.590200L352.358471,611.811059L353.743392,613.524463L354.696064,615.635094L356.314634,621.331958L353.125851,620.764513L350.467745,619.640990L348.208508,617.927381L346.151996,615.623746L347.469546,612.957105L345.776224,612.616692L343.221777,613.479075L340.575517,615.657789L337.760213,615.283316L332.802099,613.524463L332.683837,615.623746L341.576085,619.606944L341.479415,621.331958L337.255441,620.934745L330.804800,616.679093L327.439282,615.623746L314.487764,617.518847L314.369109,619.606944L323.842833,621.967504L326.832526,624.475718L325.965224,628.936329L320.880300,626.552748L315.933065,627.574269L311.292570,629.787635L307.046850,631.013540L302.328595,629.413058L292.469268,621.944806L287.420822,619.606944L282.706690,621.070932L278.598296,625.939845L275.256452,631.887583L271.344805,636.564534L266.358733,640.515301L253.629656,657.684257L255.161746,659.592276L252.686034,660.852971L250.507832,662.829257L243.511988,671.280454L240.752637,673.859258L234.280263,678.653682L239.950514,680.244349L257.237104,679.539905L261.306134,680.562488L258.526768,685.971165L244.279376,696.131041L243.689620,699.813648L243.578535,701.723254L241.685086,702.916794L240.724125,704.678738L239.917448,706.861361L238.485382,709.339662L236.333709,711.886301L233.928713,714.171563L231.445992,715.945272L229.042693,716.968593L230.567034,719.049411L229.818355,720.993861L229.213628,721.391857L229.240778,721.539684L230.353947,722.699580L228.546793,725.303755L227.637441,728.465338L226.596167,731.126681L224.391678,732.252676L221.920438,732.582518L217.730268,733.992901L215.249235,734.334128L208.396532,733.685798L205.512510,734.334128L203.364022,735.255454L200.087236,737.246031L197.645121,738.133285L198.393276,740.920274L198.904961,741.955482L152.375809,775.127596L140.883311,777.461286L131.193625,782.698258L127.109093,784.144215L127.003322,785.886251L166.655103,781.616664L172.725722,778.235412L174.281883,778.736324L176.228121,779.760932L177.939728,779.305548L178.908243,775.366652L181.102863,772.202100L185.977551,770.517456L195.831006,768.855634L212.830182,762.777936L212.034299,760.615638L210.726955,758.931386L209.038470,757.793410L207.011554,757.235812L207.123844,755.324092L215.176251,755.130649L217.482913,756.723737L216.092183,761.059470L218.937014,763.415263L226.412800,764.234695L227.842880,765.828074L229.535776,768.297912L233.698690,769.732068L238.433881,770.415014L249.640325,770.107687L265.945948,766.146756L273.106066,762.777936L272.952726,766.579256L269.141302,769.493039L264.180406,771.974442L260.529524,774.410435L262.736989,775.605709L265.344263,776.391190L268.107523,776.641636L270.830179,776.345655L273.104020,775.116212L276.810371,771.371154L277.983623,770.585752L297.681331,768.855634L301.952558,767.125577L322.586409,746.710884L330.302753,736.222296L330.985373,732.628014L336.327779,728.908885L343.377601,726.008839L349.225010,724.780635L347.446394,726.372757L344.803848,730.000711L342.818445,732.252676L346.142819,733.310453L346.520177,736.210921L346.014655,739.543824L346.795051,741.955482L346.690029,743.866689L343.790733,745.800724L343.961684,747.575551L346.341564,748.906713L350.055788,749.418708L364.493157,747.677947L371.699699,748.838447L385.783661,753.310039L389.783017,753.366932L382.236850,755.324092L343.522753,759.147604L341.028701,760.205949L339.140657,762.618605L337.619827,765.190716L336.242298,766.784126L332.989484,767.945071L328.472323,768.639374L324.497693,767.945071L322.858612,764.872040L318.727097,767.011760L291.553957,773.636368L288.302927,775.366652L285.173085,777.802811L281.543973,778.918475L273.625027,780.148012L259.605688,779.920317L256.330119,781.104339L254.526856,780.671712L253.685848,780.648943L237.010606,780.170781L235.204015,780.421246L233.738879,781.275113L232.019919,783.108132L229.728705,784.451629L227.555791,783.905117L225.583873,782.675488L223.890042,782.060684L206.380055,782.060684L197.477650,780.148012L195.098716,780.831101L193.274904,782.128996L191.830667,782.914580L190.671248,782.060684L185.176153,786.945165L184.243482,788.926421L184.583492,792.274238L184.110164,793.914068L182.208104,795.610894L182.095048,797.524164L183.329514,798.936386L183.664169,800.405596L183.113251,801.840680L181.756006,803.264415L185.460653,802.934105L188.925332,803.480827L191.397215,805.360229L192.089096,809.153422L188.491757,807.649779L182.821789,806.476514L177.071608,806.362606L173.200807,808.128206L169.674374,811.944395L166.618378,813.869689L144.222760,821.799503L129.292505,822.585718L125.016165,823.725182L121.554690,826.368840L125.358089,829.798971L131.400501,832.123846L142.927846,833.833383L146.400356,836.694142L144.883640,850.373381L147.063791,855.070799L141.351735,856.746929L139.148327,856.803941L139.024332,858.879232L140.899267,859.061679L142.319908,859.483591L145.088544,860.794963L141.628041,862.049351L139.337911,862.049351L137.339776,860.920400L134.785715,858.879232L135.142699,861.467767L135.869042,863.588871L136.988291,865.299506L138.557193,866.702272L142.003725,864.786309L145.279240,865.436360L152.284909,868.618309L159.240970,868.709551L162.340438,869.462302L165.650808,872.279519L149.567800,873.990458L146.040000,872.279519L147.485098,871.241578L149.046404,870.363337L146.404401,869.473707L143.769500,870.580045L138.892757,875.233779L135.681857,876.648237L126.533492,876.534166L119.144229,875.256592L112.527817,872.792794L108.974406,872.279519L105.881278,870.842376L105.204076,867.340943L105.298863,862.961653L104.504749,858.879232L105.730448,855.994374L103.316553,854.933975L95.577165,855.070799L100.492368,860.475669L98.175355,866.382940L92.011917,871.424071L85.346276,874.366873L70.792839,876.112107L70.466776,874.401093L73.797872,863.759932L70.454296,861.467767L47.191802,866.702272L44.642930,867.968217L39.403665,874.058897L36.724132,876.112107L32.436455,876.864972L29.136567,876.762308L26.451308,877.891625L24.141406,882.203804L25.053778,882.557465L27.196613,883.926501L24.461752,886.413681L24.443133,888.433181L25.075963,890.384304L24.314401,892.643597L22.038924,893.670583L19.320501,892.871814L14.649566,889.676871L16.515808,885.866034L12.276620,886.824420L7.399772,888.912398L4.680568,891.411242L6.830080,893.670583L6.720020,895.416509L2.432949,898.394998L0.455055,899.250919L2.060611,904.866138L2.157613,909.603058L3.436177,913.004795L8.679326,914.580177L13.432146,913.940885L22.377146,910.687479L27.169169,910.561913L24.949543,909.671547L24.329251,908.804027L24.249015,906.920649L29.427654,906.932063L39.733881,909.808526L45.289702,910.561913L45.397008,908.826857L41.847732,907.331562L40.012572,906.909235L37.826826,906.920649L37.935243,905.174309L44.207116,903.644887L46.669790,903.804675L52.065778,908.301786L53.756387,907.571263L55.344146,905.881969L57.680578,905.174309L59.899333,906.817922L61.918248,909.523155L64.216361,911.201160L69.645483,908.598564L99.692574,902.731822L106.360490,903.085633L109.474446,903.781848L112.316281,904.968862L114.352243,906.852164L115.393441,911.383803L116.484182,910.139558L118.070792,906.920649L115.520473,901.168238L159.533947,899.250919L151.621124,903.085633L152.776781,903.918810L154.560961,905.836313L156.061689,906.920649L139.531236,908.644223L132.623421,908.370273L125.980012,905.174309L120.315299,921.727118L120.871298,924.319001L117.779467,924.421766L114.715510,923.907944L112.768714,921.715700L113.097388,916.680766L111.451428,916.680766L106.102002,926.225894L96.872822,930.382496L75.675663,933.911322L61.281335,939.153645L55.441858,942.214787L49.164806,943.299939L44.451487,945.150467L45.918596,949.251580L43.164216,950.416863L37.596249,951.947768L34.959018,953.250217L34.851837,954.986871L39.002095,955.432471L41.082223,958.208989L42.798780,961.339906L45.840764,962.836876L46.552286,963.716797L46.587694,965.636679L45.749488,967.556638L43.912874,968.425217L40.057902,968.425217L21.354844,973.591297L14.011358,974.345683L13.892138,976.265991L14.637036,976.311714L16.168040,976.174546L16.919112,976.265991L16.646306,977.614825L16.194119,978.369274L15.692115,979.055148L15.167414,980.106839L15.472834,980.266881L16.030026,980.289744L16.528512,980.678420L16.562065,982.027379L14.829998,985.114122L17.683093,985.605732L22.173087,985.274180L25.381802,985.845823L26.557152,989.584537L23.420184,997.783291L24.424299,1001.385700L27.915854,999.727414L35.099050,994.604248L37.850865,993.529368L40.468299,991.997134L46.448822,985.274180L49.082766,983.753644L57.826679,987.103462L61.187009,994.249764L58.767075,1001.008292L50.174066,1003.112666L70.664065,1010.924823L69.142290,1014.631185L74.635671,1013.258424L80.708981,1010.478706L86.487426,1006.887047L91.157903,1003.112666L96.045010,1005.217132L101.271444,1003.444342L111.313746,997.371605L113.932354,996.685468L119.307018,996.033648L122.001549,995.278920L123.430674,994.123980L124.764794,992.591726L126.671422,991.436852L129.807784,991.436852L129.301469,992.843287L128.500939,996.033648L127.944523,997.371605L130.415525,996.891308L137.246672,993.529368L135.999394,991.436852L139.458358,990.544987L146.757667,990.556421L148.243270,988.727008L150.196020,986.920530L154.549834,984.885467L178.181096,977.923462L194.312381,976.265991L194.192067,978.369274L187.039177,980.244018L173.750601,986.005885L166.457766,987.766594L160.648460,987.400727L158.896998,987.766594L157.664757,988.967114L154.877638,992.728941L150.375838,994.661423L144.413127,999.841777L141.330094,1001.385700L141.229225,1003.112666L145.567471,1004.782506L147.292864,1005.034131L147.181668,1006.944237L138.685977,1007.138683L134.840422,1006.601099L132.029068,1005.034131L131.285308,1009.723749L128.595472,1012.537741L124.830250,1014.001998L120.861377,1014.631185L122.107884,1013.063953L123.468414,1010.169858L124.238733,1008.877296L118.328434,1010.021155L110.515766,1012.983877L103.319708,1017.239539L99.230215,1022.319376L108.304342,1022.319376L108.180588,1024.413251L97.307301,1032.377686L92.338595,1034.002778L83.360303,1033.407668L78.495650,1034.185891L75.472241,1037.665162L78.921218,1037.482036L82.121933,1038.283217L83.778872,1040.309122L82.686372,1043.800290L83.373969,1044.075016L83.918893,1044.017782L84.173289,1044.292509L84.099669,1045.528801L80.616091,1047.188688L65.280239,1050.508637L63.914903,1051.298590L63.056868,1052.809842L62.836410,1054.527232L62.292227,1056.072937L60.553156,1057.069085L61.926108,1059.164499L65.977082,1056.050037L71.086173,1054.252446L81.366890,1053.222010L83.594976,1053.554037L87.869640,1054.996663L90.396497,1055.317253L95.932503,1051.928272L110.090860,1048.333471L111.360165,1047.623702L112.174883,1046.662096L112.417982,1045.597485L112.532705,1044.567237L112.974908,1043.800290L116.360304,1041.785683L125.693117,1038.523574L153.858750,1035.364694L161.647654,1032.824008L176.225953,1031.599492L181.003510,1030.409339L185.447623,1028.257984L191.868410,1023.223278L194.978632,1021.507023L199.505636,1020.568830L197.297847,1017.514111L197.289962,1015.111660L197.744060,1012.514863L196.994951,1008.877296L199.197327,1009.472099L201.322315,1010.478706L203.145908,1011.714116L204.467232,1012.903801L204.612473,1014.001998L203.987889,1017.548432L204.142199,1018.646737L205.004722,1019.024285L206.931631,1018.921317L211.847593,1022.113426L215.685503,1020.912070L219.222257,1019.287426L222.325185,1020.568830L222.227039,1022.319376L221.188636,1023.143185L220.130397,1024.802287L218.998573,1026.163939L218.283606,1030.706875L211.657048,1033.030005L203.405659,1034.552118L194.973785,1037.974189L187.685397,1038.718150L184.497752,1042.403792L156.498150,1054.080705L147.672678,1056.519483L145.533602,1059.164499L143.810311,1061.798211L141.592381,1062.989155L139.501502,1063.699156L129.844776,1068.577835L143.766886,1067.707423L187.577340,1050.474291L197.767185,1051.298590L193.000962,1053.691428L184.847117,1056.588183L180.511511,1059.164499L170.303476,1067.959383L166.229711,1070.501960L161.260541,1072.426164L153.378830,1074.098452L149.234158,1076.274808L140.957615,1082.575351L136.786775,1084.866668L131.856918,1086.058196L133.381740,1088.750704L134.265655,1089.403804L136.188346,1089.907958L136.087774,1091.649620L135.213359,1092.864239L134.713172,1094.170562L134.216193,1097.768868L135.854944,1095.683192L137.234934,1097.768868Z "/></g></svg>