<?xml version="1.0" encoding="utf-8"?><!DOCTYPE svg  PUBLIC '-//W3C//DTD SVG 1.1//EN'  'http://www.w3.org/Graphics/SVG/1.1/DTD/svg11.dtd'><svg enable_background="new 0 0 1000 3261" height="3261px" pretty_print="False" style="stroke-linejoin: round; stroke:#000; fill: none;" version="1.1" viewBox="0 0 1000 3261" width="1000px" xmlns="http://www.w3.org/2000/svg" xmlns:xlink="http://www.w3.org/1999/xlink"><defs><style type="text/css"><![CDATA[path { fill-rule: evenodd; }]]></style></defs><metadata><views><view h="3261.10598358" padding="0" w="1000"><proj flip="auto" id="robinson" lon0="34.6646761511"/><bbox h="65.49" w="20.09" x="485.07" y="-560.01"/></view></views></metadata><g class="" fill="black" id="country"><path d="M599.445140,3259.105984L604.963933,3258.902696L606.976765,3255.683996L607.698227,3250.330845L609.978592,3244.367919L614.820837,3235.525328L625.608923,3219.839502L629.435271,3212.521909L631.412732,3201.410254L631.415012,3201.409945L632.362172,3178.749841L635.733246,3160.509400L643.727393,3144.786275L648.541761,3124.009449L647.936640,3077.233240L651.277085,3056.481410L675.642931,2965.594848L677.056072,2948.697072L672.954066,2898.137205L675.480507,2869.893700L677.581127,2862.714945L680.481870,2856.267080L682.418944,2848.916650L681.908682,2838.901386L686.986570,2806.113208L712.845467,2759.783923L721.649239,2731.808447L719.137359,2705.596569L699.777382,2654.724236L697.781831,2630.965700L701.444611,2616.659595L703.908494,2573.357133L707.139212,2562.961648L711.059427,2554.413446L714.064639,2545.478786L714.476810,2533.924082L711.356509,2522.111898L699.565422,2505.274587L695.227553,2496.727260L693.282238,2476.755335L702.252417,2442.954838L703.674865,2423.156370L724.192083,2321.423844L757.047032,2236.104786L757.074388,2235.949228L760.541348,2216.225177L761.659273,2195.229563L763.132987,2185.869661L766.798784,2175.822864L771.617886,2169.296777L782.490447,2158.391403L785.784490,2150.491494L786.350243,2132.115761L784.120505,2113.525545L784.127715,2094.720833L791.205631,2075.916272L798.953424,2067.504381L816.114104,2048.868841L822.466032,2033.799653L819.756553,2007.739955L821.809149,1983.397633L848.155887,1917.111082L849.093248,1893.455632L841.817033,1870.744579L829.203816,1850.008283L819.989870,1833.307521L811.101007,1811.969888L804.905546,1789.215244L811.640198,1768.993441L819.750592,1751.562144L819.066275,1733.615435L813.203568,1727.604526L823.841203,1703.689438L832.907525,1670.284842L833.792759,1651.435290L833.100711,1643.113835L829.077490,1594.841602L828.759570,1594.583960L781.291851,1598.620345L743.042612,1622.108321L672.911668,1686.729637L633.376287,1702.315488L545.416748,1701.542641L503.856029,1707.381922L486.583316,1713.650532L467.529828,1716.741891L448.588294,1713.779339L431.792707,1701.843192L420.725004,1673.934490L428.156718,1646.153922L454.404248,1592.522820L455.630643,1565.469905L453.534015,1542.238047L454.346597,1519.735552L463.245996,1497.863581L464.446021,1494.913303L475.733934,1479.538532L527.859348,1436.461510L549.741891,1411.206612L561.253156,1400.941135L573.925462,1394.154656L616.348919,1384.704991L620.747766,1388.527828L624.572048,1390.331855L627.663688,1389.300983L629.787243,1384.576130L628.935143,1366.707239L626.250350,1352.875630L619.644596,1342.566125L606.943098,1335.134565L556.804174,1323.535964L518.238550,1305.793891L508.105044,1304.118457L503.221900,1307.469320L492.201188,1320.958462L485.680027,1325.340209L480.771701,1326.371202L469.781390,1326.242328L446.162117,1322.118340L438.096304,1308.199632L439.074299,1304.527121L442.065298,1293.292438L460.399387,1286.504574L478.523089,1275.635201L467.250386,1247.794713L449.965989,1215.311996L450.328622,1190.389760L450.611866,1187.553689L450.513732,1184.545715L449.979638,1181.537719L449.109357,1178.787531L448.564677,1178.443757L448.083612,1178.014038L447.811458,1177.498375L447.752731,1176.939740L447.048610,1158.504338L445.052076,1142.990450L427.918764,1064.595009L422.946795,1050.538817L408.826950,1024.832177L409.359424,1016.836080L417.427929,1004.605134L442.033155,979.282018L446.091554,968.984548L447.433652,958.407269L445.265805,949.635605L439.739122,943.400700L430.662176,940.627203L431.678125,929.726481L431.352584,903.537403L433.127928,892.979438L435.605924,891.044130L444.596046,887.582049L446.996662,885.603699L450.244726,868.486129L451.487285,854.301022L455.263265,811.083398L466.447931,786.927365L483.498924,773.525563L503.444516,763.457648L523.708443,749.645928L539.097591,729.013078L548.072980,721.503959L560.532425,720.729366L561.814752,721.372667L571.726851,726.345106L593.539568,742.954949L606.796183,747.516020L650.720818,745.343066L671.873406,747.817220L694.172733,760.833045L702.536939,780.409395L705.044460,806.179225L711.165315,827.171936L729.962676,832.613442L746.777840,833.151134L763.713892,837.474147L822.044000,852.206321L818.580939,847.044768L814.776109,843.410120L812.812911,840.700234L808.694692,831.516545L815.368334,830.183058L818.089617,827.860195L817.071508,824.504913L812.243920,820.138689L811.681818,814.976563L816.904320,814.976563L815.392206,811.083398L814.170745,810.524154L812.750539,810.803776L811.068010,809.341135L819.962477,803.103318L814.991596,797.424633L819.543950,795.273585L823.639684,792.262092L822.961385,786.045404L819.772369,785.400066L817.764658,784.281475L816.000113,782.732650L813.187378,780.882653L813.884751,775.311073L815.875501,769.631819L819.599995,765.221711L825.702285,763.328570L825.133308,758.122363L817.779521,751.216454L815.943533,747.688134L810.128656,740.265601L807.214100,740.136512L803.563076,740.566809L802.946800,734.929857L812.518036,734.929857L809.974235,729.572488L805.674077,712.144154L810.648536,717.846143L812.860772,708.916557L814.202979,705.947133L815.477883,708.981109L816.054892,710.939189L817.018058,710.465808L819.422989,705.947133L814.378335,695.639955L809.848016,674.163546L805.039235,666.674351L804.356491,660.454707L809.213029,660.454707L808.643398,655.267966L802.312081,651.738338L798.825713,645.733550L798.436123,638.889208L799.655391,636.134198L804.422102,634.003350L810.044361,628.450142L819.073686,614.351316L830.946308,605.030572L831.024526,605.039844L847.834746,607.032517L858.421203,601.177320L879.374876,580.295481L915.217851,555.880766L926.970977,552.758771L927.074166,552.704319L942.618225,524.701978L973.035582,483.030261L976.009765,461.663743L972.170220,451.281273L977.575391,426.443171L987.264139,405.631224L992.115085,404.338489L999.846631,385.485192L980.342999,358.139475L975.264803,347.730334L957.062017,268.296997L957.985627,257.236288L930.548712,246.196504L929.150672,233.797548L935.425103,221.440914L941.249435,205.115109L936.283282,181.022767L919.407885,171.229636L912.170303,132.202876L891.019291,118.480015L885.364214,111.963444L905.021783,78.729502L876.195171,60.426555L890.716781,53.346593L895.468773,47.453597L906.002507,39.013094L906.397540,27.873582L908.042501,23.275081L907.572748,9.629969L910.815308,4.469583L909.366382,0.000000L900.061130,12.847033L889.291612,40.804847L879.317154,53.540864L871.604126,58.829272L862.404372,63.124634L852.746136,65.930592L843.595324,66.837123L831.616894,70.225779L808.167277,98.131119L795.477035,109.330853L784.680396,111.775140L774.888817,113.991806L769.380367,120.292529L773.278037,135.633427L773.282897,135.676578L773.287757,135.719729L773.179126,138.999993L773.172719,139.193363L768.731840,135.719729L768.575061,135.611851L768.505174,135.633427L758.871879,129.074329L743.962497,109.050329L739.354277,104.087135L731.288209,105.015047L727.479723,112.934471L724.642196,124.349041L719.556870,135.719729L716.202441,154.144327L719.155059,195.301686L717.774973,216.567044L713.338645,230.584470L702.927461,253.958918L700.871818,266.658413L679.583141,268.469478L647.685825,282.892715L609.319323,293.197454L599.910350,291.882444L592.452304,283.367004L586.505475,273.471380L578.618162,264.998255L570.099734,258.659338L565.835808,256.800069L562.039834,255.144815L553.501935,255.144815L528.547596,263.704615L523.514292,263.338083L513.317098,260.772334L509.086968,260.470479L504.719476,262.195358L497.642967,268.210755L494.747001,269.504365L438.246420,265.299249L437.607702,265.706693L434.446317,266.487622L439.861918,272.191712L436.902736,274.806031L433.719015,280.034563L431.036112,283.090133L435.479596,297.552516L434.277828,313.541380L427.786540,340.526038L428.519841,391.328915L425.601854,403.713828L434.743475,408.056857L437.098218,418.099769L435.410454,428.718952L431.874602,450.600269L429.627440,457.690018L407.937064,484.147335L401.807883,485.470117L390.856862,483.367229L375.636382,474.005741L366.503501,471.834904L356.702619,477.668979L352.890628,494.525876L357.177699,569.230526L348.432456,637.166309L351.011768,649.436117L348.671805,660.552990L348.450912,697.729951L345.318558,705.761093L335.246243,814.242540L323.534411,938.765829L285.659736,1116.882754L276.594383,1122.060439L276.551481,1126.019798L278.423027,1135.156628L278.379801,1139.115855L263.959925,1212.506873L252.975795,1233.415412L238.342401,1277.123994L208.035552,1367.201382L203.833985,1373.661464L152.477088,1482.220835L137.556230,1504.437736L133.171489,1518.775216L133.167391,1518.787948L156.253325,1536.698372L171.347653,1553.489049L171.611634,1571.138206L150.856051,1592.522820L150.710499,1592.522820L140.823917,1599.822669L68.963411,1676.940075L56.742722,1706.093847L57.938228,1720.219661L66.618301,1748.771402L65.998291,1762.982670L43.987433,1789.859247L10.414385,1817.035983L0.153369,1827.624104L9.632844,1850.308810L46.043466,1937.847110L75.165737,2007.868750L109.309775,2080.209538L154.688357,2176.681563L209.483362,2293.083531L231.272902,2359.169411L236.116700,2393.524139L241.711022,2407.652978L254.454914,2423.242263L254.459042,2423.285209L262.455655,2433.549420L263.394427,2444.844527L259.056449,2469.668678L259.213259,2484.271574L261.663573,2493.849544L267.305072,2501.666655L309.163489,2536.071778L318.116966,2547.970168L348.106041,2616.530712L401.466549,2739.156659L436.440264,2819.308187L438.851220,2823.950179L440.554966,2828.850121L441.462157,2833.836094L441.576696,2838.944370L450.273407,2884.122658L489.413850,2971.098611L524.417443,3049.320668L550.563892,3134.999957L554.536021,3192.538256L561.342614,3212.458055L580.686796,3246.943491L587.881060,3258.801053L592.804464,3258.394478L599.445140,3259.105984Z "/></g></svg>