<?xml version="1.0" encoding="utf-8"?><!DOCTYPE svg  PUBLIC '-//W3C//DTD SVG 1.1//EN'  'http://www.w3.org/Graphics/SVG/1.1/DTD/svg11.dtd'><svg enable_background="new 0 0 1000 3230" height="3230px" pretty_print="False" style="stroke-linejoin: round; stroke:#000; fill: none;" version="1.1" viewBox="0 0 1000 3230" width="1000px" xmlns="http://www.w3.org/2000/svg" xmlns:xlink="http://www.w3.org/1999/xlink"><defs><style type="text/css"><![CDATA[path { fill-rule: evenodd; }]]></style></defs><metadata><views><view h="3230.15576095" padding="0" w="1000"><proj flip="auto" id="robinson" lon0="34.6725453364"/><bbox h="66.12" w="20.48" x="485.04" y="-560.43"/></view></views></metadata><g class="" fill="#000" id="country"><path d="M591.795473,3228.155761L634.054214,3164.694733L651.574148,2975.208806L663.646211,2885.522428L667.646705,2819.447339L705.890534,2685.785334L695.458466,2642.048905L691.325091,2487.888678L683.208498,2458.065402L698.149333,2374.058250L729.504637,2252.125546L761.467452,2147.163334L772.152477,2099.919027L805.659169,2000.418782L832.135342,1878.035796L804.828994,1811.172017L797.273835,1798.077673L805.165215,1721.181420L804.647532,1720.743594L810.822201,1595.280033L781.571814,1592.334321L695.418039,1641.335447L578.881713,1687.468432L446.475638,1699.608392L426.179169,1685.876298L418.464399,1662.471674L445.811721,1548.585326L455.336664,1495.000448L507.142479,1437.151230L583.925324,1387.220604L617.317007,1374.558083L611.161041,1353.094840L558.779391,1320.121773L505.958178,1302.837932L459.307570,1320.081949L443.655957,1314.745528L437.077780,1300.129810L451.848852,1279.619274L455.730368,1241.383639L441.481134,1177.490862L428.155367,1099.563131L411.151247,1039.313378L430.752245,941.265275L433.377933,894.622030L460.200254,794.772624L541.946370,734.343003L619.941326,751.894939L660.558430,756.362518L678.782346,768.169325L693.501404,802.788999L754.126097,842.787646L800.872752,847.812000L792.941898,664.522236L793.677098,647.363276L806.151409,625.174537L816.373189,613.680278L896.916754,575.401931L932.710059,570.491945L938.140218,531.727270L968.912442,466.278995L999.845161,394.897828L973.776746,355.221973L962.931565,321.453288L955.841474,281.162944L977.977273,242.583307L960.238933,196.077150L934.555721,149.318977L916.942148,125.835222L912.140500,82.980153L918.332053,50.241363L924.660617,0.000000L906.668966,13.172329L874.438709,50.801739L841.509575,81.259324L773.252662,128.435794L759.739545,156.639504L740.669017,131.356389L710.494954,148.558905L695.498756,255.857199L643.220772,291.715997L572.568046,288.558137L512.675777,278.364688L434.609255,285.160382L423.436142,380.514738L387.080682,495.511533L348.147944,669.270666L303.238706,1010.420106L242.452567,1255.722376L133.665655,1503.161845L129.694774,1509.213161L165.583364,1544.445173L167.921061,1557.502505L60.121998,1690.294466L64.531111,1747.211910L0.154839,1816.186852L74.866007,1990.031123L138.367131,2126.307217L218.314685,2315.060176L244.590168,2387.554420L257.650665,2437.560275L366.852435,2645.195551L436.040895,2816.060215L487.925931,2954.758441L561.350205,3157.435830L591.795473,3228.155761Z "/></g></svg>