<?xml version="1.0" encoding="utf-8"?><!DOCTYPE svg  PUBLIC '-//W3C//DTD SVG 1.1//EN'  'http://www.w3.org/Graphics/SVG/1.1/DTD/svg11.dtd'><svg enable_background="new 0 0 1000 950" height="950px" pretty_print="False" style="stroke-linejoin: round; stroke:#000; fill: none;" version="1.1" viewBox="0 0 1000 950" width="1000px" xmlns="http://www.w3.org/2000/svg" xmlns:xlink="http://www.w3.org/1999/xlink"><defs><style type="text/css"><![CDATA[path { fill-rule: evenodd; }]]></style></defs><metadata><views><view h="950.134441581" padding="0" w="1000"><proj flip="auto" id="robinson" lon0="-4.51068615075"/><bbox h="5.75" w="6.06" x="-59.71" y="-906.17"/></view></views></metadata><g class="" fill="black" id="country"><path d="M894.570675,0.000000L857.557683,8.623230L818.752976,24.486086L741.393977,38.326557L630.673836,86.664607L556.105972,138.414701L505.660063,208.913825L411.045458,372.738679L381.298651,401.930065L317.268891,443.908878L273.109781,485.464858L222.739344,511.039429L177.061681,519.244871L172.650740,529.794919L174.541526,547.378808L166.852439,572.423560L146.543947,611.431850L137.587846,645.113512L134.203738,723.783689L114.249557,770.053338L42.802290,843.624263L43.679352,894.383689L28.364599,897.582980L19.551746,901.422157L12.224169,905.901232L1.123948,910.700286L0.526796,930.216898L49.331639,942.161859L92.374948,920.831768L133.599379,890.331281L178.206789,874.975080L208.377117,883.719525L245.620114,921.684955L275.385075,930.216898L302.696129,922.858088L327.592130,912.299979L349.089287,914.859501L365.835668,948.134442L395.004083,877.534413L412.025144,858.766255L435.608959,849.915599L468.145279,843.624263L497.277879,833.600939L510.244658,813.128371L540.808556,785.299780L654.772798,728.367825L653.859659,696.066537L713.794429,654.173828L785.035792,625.501138L830.893014,587.131259L815.705580,515.515110L872.500838,491.432145L885.471222,481.522224L898.023226,462.661933L909.807331,438.368330L922.913955,417.485268L938.447275,408.322557L968.593690,362.937562L980.677338,354.628061L999.473204,345.040344L997.413335,322.989262L985.380650,299.447838L974.940062,284.748304L959.819322,276.333541L922.365441,272.818552L906.719156,265.362597L895.860554,247.894776L883.814703,204.440789L873.350522,184.951572L870.345118,149.489462L915.057964,51.315639L927.956154,13.626898L894.570675,0.000000Z "/></g></svg>