<?xml version="1.0" encoding="utf-8"?><!DOCTYPE svg  PUBLIC '-//W3C//DTD SVG 1.1//EN'  'http://www.w3.org/Graphics/SVG/1.1/DTD/svg11.dtd'><svg enable_background="new 0 0 1000 1183" height="1183px" pretty_print="False" style="stroke-linejoin: round; stroke:#000; fill: none;" version="1.1" viewBox="0 0 1000 1183" width="1000px" xmlns="http://www.w3.org/2000/svg" xmlns:xlink="http://www.w3.org/1999/xlink"><defs><style type="text/css"><![CDATA[path { fill-rule: evenodd; }]]></style></defs><metadata><views><view h="1183.27928564" padding="0" w="1000"><proj flip="auto" id="robinson" lon0="80.2337446849"/><bbox h="482.16" w="407.83" x="984.81" y="-595.33"/></view></views></metadata><g class="" fill="#000" id="country"><path d="M986.884257,1177.895202L984.831318,1181.279286L979.998282,1170.926439L978.111026,1170.294556L977.804718,1165.357850L978.714193,1163.412053L983.609010,1161.233565L984.993130,1162.457209L988.029015,1172.043767L986.884257,1177.895202Z M980.140589,1156.308898L976.896956,1160.196476L975.286082,1157.859516L975.818122,1156.242701L977.235185,1155.346030L978.537883,1154.086279L980.140589,1156.308898Z M968.476568,1134.891139L965.674009,1134.943294L964.744525,1133.186066L963.464110,1131.350605L964.275210,1129.587359L965.734157,1129.136016L967.996864,1131.992515L968.602092,1134.016537L968.476568,1134.891139Z M971.485954,1127.545284L969.874825,1129.073831L969.435927,1128.867217L969.138574,1127.707768L969.018850,1126.887327L968.629310,1125.410936L968.310699,1122.811204L969.548528,1120.642755L970.933785,1121.090086L970.334525,1123.308683L971.485954,1127.545284Z M230.596120,1118.817328L230.110064,1119.326843L229.595898,1119.521421L229.218626,1119.457230L229.012365,1118.947715L229.090649,1118.562570L229.575961,1118.991847L230.169334,1118.592660L230.810621,1117.286777L230.947429,1116.869537L231.105805,1117.094205L231.000940,1117.832399L230.596120,1118.817328Z M956.710686,1119.621719L957.878301,1121.160294L955.860515,1120.895507L953.885813,1118.576612L954.242815,1116.402147L954.895414,1115.519523L956.710686,1119.621719Z M941.780749,1083.175467L940.206752,1083.410163L939.145453,1082.008004L938.923599,1080.373154L939.771616,1079.314013L940.588232,1078.770401L941.451126,1078.908811L942.474207,1081.666992L941.780749,1083.175467Z M927.596547,1024.913766L926.607830,1026.315903L922.805661,1025.220671L922.774296,1020.982166L921.594708,1016.851983L922.111685,1015.110847L924.677334,1012.152121L926.835509,1010.840252L928.709393,1014.852084L929.731616,1018.777663L927.596547,1024.913766Z M213.936963,998.309295L213.688600,998.572070L213.622198,997.825870L213.887914,996.632350L214.230378,995.833995L214.352412,995.928273L214.290496,996.704562L214.174824,997.757668L213.936963,998.309295Z M931.909289,990.969647L930.218656,991.784049L928.376029,990.753008L929.623045,989.096120L929.583668,985.712137L931.529580,987.589676L931.597035,989.734002L931.909289,990.969647Z M941.408547,964.034140L943.494049,969.678814L940.390150,967.211527L939.291508,965.446312L940.647823,964.240751L941.408547,964.034140Z M927.621002,930.015438L926.716412,932.683353L925.976866,926.960371L926.441898,926.240233L927.007727,926.043649L927.785065,926.579240L927.621002,930.015438Z M932.472086,984.604870L931.756638,985.571723L930.501261,984.496551L926.560686,977.122791L925.599625,972.388816L924.534764,970.747971L925.516679,968.401040L926.930778,967.620735L927.586814,964.976926L927.563598,960.936989L928.575836,957.643253L929.155852,956.726543L931.838766,956.690436L932.489322,956.271196L931.834421,953.117871L930.145920,951.745813L929.524214,950.867214L928.926228,943.310848L929.063650,940.255799L929.845918,938.059290L928.747969,933.517827L929.065872,931.822800L930.790803,929.439730L931.182091,924.356640L930.253652,922.838129L931.362086,914.992806L930.762109,909.753209L932.679375,904.505572L936.219640,902.122465L937.397763,902.056267L937.990399,906.533617L938.490711,908.003999L936.561537,910.653892L938.972045,914.108174L938.813042,915.361904L938.238012,918.102053L937.111604,920.794056L935.294174,921.897334L934.135245,925.483988L933.405032,926.836002L936.589217,930.607194L938.648869,943.423180L936.881931,946.933573L934.458552,947.633645L935.769692,956.182935L935.489570,958.092581L933.381682,962.290990L933.081827,964.122401L931.835393,965.843486L932.602968,967.993837L933.864417,968.934616L934.038666,970.695817L933.308287,975.215160L933.642959,980.370375L932.472086,984.604870Z M312.834964,148.837326L312.711217,148.699425L309.962457,145.657410L312.834964,148.837326L312.491987,152.198647L313.339207,154.864206L316.121161,157.811213L318.299026,159.868956L317.284734,162.641721L317.045602,165.851730L318.482063,167.293862L319.021060,171.907626L319.715121,172.778412L320.970024,173.139905L322.732460,172.818356L324.359544,171.598055L325.916777,171.358387L326.966352,171.709900L327.450710,168.212650L328.467218,167.717306L330.887970,168.682025L336.757073,175.262897L341.715235,180.826839L342.669995,181.593717L343.027164,181.881296L343.828151,182.524354L348.119785,185.408134L351.044327,187.233475L354.326291,186.572436L358.825680,186.448616L361.915343,188.234025L363.752099,189.478232L363.859918,189.653979L364.077297,189.699913L364.080689,189.699913L370.521683,194.069746L372.810219,193.746195L374.655207,194.998467L375.798138,198.086317L375.793890,201.294204L376.305975,202.804348L378.795669,203.093999L384.440462,205.215509L389.433635,207.095409L391.928847,207.694763L394.788483,209.087304L397.535477,211.315108L402.583538,214.172558L406.965650,216.360824L408.488055,219.332799L406.810467,218.697199L404.847076,219.028988L403.066938,220.346201L402.268162,221.181745L398.657851,226.299393L396.520501,227.875053L394.792915,230.170798L391.156804,237.115731L389.572183,243.598834L388.691219,249.695631L389.629776,254.014088L389.876484,259.074385L388.252637,261.958476L387.089200,262.939950L386.374368,267.296979L386.252941,272.380156L387.250322,274.027348L390.455314,276.247817L393.580111,278.412351L397.483377,280.749442L401.208164,282.982491L403.384753,283.275166L403.715995,282.006262L404.246942,280.799554L406.793470,281.438982L410.179563,283.629989L412.446294,285.368080L413.423549,285.951477L419.089386,288.872646L423.787503,291.294808L429.726123,294.356869L431.401448,296.229947L432.938870,298.223471L435.975377,300.872997L443.027881,305.562821L448.919303,308.921096L453.714161,311.659698L457.429479,313.579845L458.922024,313.276869L460.419832,312.257602L461.793703,311.661705L463.627441,312.203429L466.536770,313.668130L473.559483,318.122750L479.968430,321.604503L486.110250,320.978369L487.882652,321.538277L489.662313,324.693157L491.062694,327.886384L498.462160,329.995915L503.249618,330.947339L508.837659,332.683634L511.745367,333.970335L514.236476,332.356444L514.476625,330.935296L516.533402,330.092261L520.271527,330.461589L527.601660,332.944585L530.616653,333.689306L532.566030,331.334739L536.836364,330.242802L538.925093,329.022428L544.298784,331.633821L553.741825,334.907779L558.671775,336.943311L560.128938,338.950809L560.984766,340.849963L561.822940,345.453537L563.323949,347.537594L573.055329,352.229947L576.341548,354.219812L578.822938,354.860353L580.176793,354.940672L581.207006,355.531019L582.498260,358.207705L583.234187,358.824177L585.061041,359.490854L586.986511,359.874396L592.304915,357.563125L595.915307,355.810129L598.810641,356.255905L600.984515,358.203689L601.777725,361.041096L603.384665,364.039227L605.668134,365.503178L607.848637,365.665840L612.808813,363.643622L617.389860,365.191911L621.441589,365.756208L626.001588,366.726162L627.840285,367.471203L632.844801,369.951353L638.856945,372.457649L640.956101,372.174484L649.024370,367.507350L649.886207,368.075673L652.531901,372.533963L655.546652,374.136564L660.049113,375.532324L664.013170,372.955699L667.652454,373.694743L671.931529,373.935736L675.763037,372.694624L679.237538,372.381335L684.790511,374.624577L685.814078,374.104432L686.528140,372.664500L687.310666,366.232147L687.985906,360.541080L687.183338,357.147463L684.596310,352.165694L679.189472,345.684427L678.494167,343.716870L677.642934,332.412648L677.862697,325.897366L678.556908,322.812646L679.109234,318.423755L678.946843,316.391009L678.426960,314.557008L676.773436,313.435379L676.103708,312.040911L676.212778,310.871202L677.202569,310.217143L681.731175,309.398582L686.646599,307.639138L688.557523,306.702273L689.953728,305.761420L691.262973,304.282986L692.788524,304.345172L697.978002,306.487620L699.925686,307.833736L701.660222,311.928553L702.701392,313.515638L702.904734,317.677267L702.145616,327.767964L703.470009,331.549516L706.403436,334.305565L708.858802,336.228659L708.669840,336.993498L705.064284,340.255718L704.654914,342.004340L705.936323,343.704824L707.907911,345.152378L708.938376,346.527682L710.570917,350.808357L712.969124,352.011085L717.790219,354.774010L721.955374,356.784012L728.159426,355.448691L730.166858,356.356306L733.532205,357.308105L736.068893,357.603286L737.649881,358.314132L738.594680,359.002894L738.657316,359.870380L738.964763,360.761970L742.559930,360.988885L744.520192,361.496935L750.646311,360.577226L756.721672,359.316152L758.891406,355.494875L760.114526,355.221789L763.458559,353.733887L767.358272,355.360340L771.744286,357.589230L774.002622,358.261923L778.268095,358.613331L782.301565,358.364333L791.870833,357.308105L797.347813,357.862322L801.643957,354.689675L802.668585,354.697707L805.328956,357.147463L810.787350,357.366338L813.437755,356.183617L816.361118,355.269980L818.290211,354.978823L819.869782,354.946696L821.837425,355.187653L823.478206,354.370409L823.979554,352.725903L823.290093,350.244146L821.428651,347.545625L819.972477,345.963503L819.575691,345.116239L819.534675,343.164760L819.971340,340.412309L821.154578,337.274544L819.167850,334.229285L816.531104,330.714500L815.062501,330.381300L811.732835,331.190217L807.901154,331.029637L804.478248,328.930099L801.699270,326.296769L800.690571,324.087050L800.762248,321.391777L801.223392,318.913395L801.236472,317.982282L804.066665,317.988302L808.116318,318.538138L811.233394,319.226446L813.621515,319.198351L817.273848,316.023801L819.208506,315.833175L821.344681,315.229198L822.204676,314.631250L822.993402,315.094759L825.563743,315.484031L828.118086,315.325513L830.235472,314.448656L832.252423,313.082243L835.750796,310.217143L836.210753,308.572014L835.867601,307.061368L834.882225,306.070354L833.999466,305.590905L834.028229,304.282986L835.265682,302.074479L840.827024,298.746941L845.269423,294.659683L847.525002,291.593581L848.028225,287.880178L848.808609,283.852506L850.030940,282.264849L853.596502,281.256573L863.898951,279.771287L866.870587,278.147788L871.111677,275.133551L873.050176,272.770903L873.981978,270.853291L873.628391,268.719442L876.748343,268.048270L878.786283,264.600535L881.435911,261.125257L886.829552,258.189201L891.278051,254.244350L893.318102,254.875079L895.741337,256.737335L897.282055,258.802017L897.757388,259.843441L904.992815,261.149292L906.036612,260.938989L911.583651,262.789721L916.821547,265.025215L919.544162,265.586125L920.791648,265.524023L921.704929,264.830903L922.494594,262.861831L923.446471,261.437711L924.116184,260.856871L923.520064,258.593738L929.224889,254.186283L934.537256,251.024911L939.205637,248.718743L940.986489,249.663602L943.132735,251.415303L946.557952,255.882280L948.234458,256.975635L951.650086,256.352857L952.422908,256.841466L952.259913,258.451549L950.334762,260.444283L947.643647,262.230881L945.958839,263.691105L947.813738,268.557157L948.071411,270.234156L949.077131,270.763125L954.353000,265.932693L957.224230,264.979141L958.605781,266.145044L959.589479,268.727457L963.431922,274.051395L965.165636,276.756867L960.233923,283.207009L958.637849,286.538895L959.004552,287.711763L959.149162,288.872646L957.885829,290.530843L958.130441,291.192544L959.720515,292.241267L961.536867,293.031343L962.323956,293.005274L963.310020,291.441186L968.909607,289.227537L970.765270,289.644589L975.871703,293.041369L977.920168,293.231873L983.336043,294.246574L986.342727,292.963163L989.061720,294.138284L995.117673,298.389938L996.455542,299.164119L996.631550,301.741510L997.031202,304.585890L998.833454,306.850725L999.448931,308.844860L999.577088,310.676588L998.850214,311.936579L996.203658,312.636814L994.310339,314.821870L991.238241,317.980275L988.763811,320.516802L987.054707,322.754445L986.779448,325.102584L987.675256,328.056990L989.006462,331.150072L998.584750,342.508257L998.954335,344.477786L996.826380,345.027899L993.573527,343.742970L990.606675,341.911989L986.650277,337.045692L984.007283,335.594312L981.622850,335.275133L968.422940,337.778422L965.646986,338.481048L961.496298,340.297877L959.104620,343.957792L957.515174,347.306699L955.414007,348.655943L952.489723,351.262139L944.514182,359.255910L939.643038,362.701806L936.259867,363.970950L934.072852,365.786331L933.293927,368.738384L932.679390,370.857070L933.417181,376.068538L935.334198,382.491141L937.533852,386.592173L938.439822,387.455761L938.785330,388.654743L937.829765,390.873963L936.357637,392.765820L935.686152,393.932663L935.997241,399.792935L934.917609,402.680851L932.739813,406.918258L930.687431,410.121342L926.987931,412.607446L925.777169,414.617578L924.946854,418.326486L924.623890,421.467001L924.784071,422.607519L925.441350,423.603452L927.376559,424.709807L929.677265,425.780006L930.984116,427.454546L931.487011,429.474386L930.789809,434.315084L929.185600,441.048320L926.905260,446.375845L924.470864,451.456114L923.972068,453.114003L922.059514,459.355869L920.905971,467.933153L920.114252,473.708398L919.252766,477.661362L917.412335,477.841950L914.941046,476.573812L909.166673,474.890292L905.419271,473.533822L902.655191,472.315791L900.890405,472.363951L898.570381,473.156575L896.171277,473.700372L894.601296,473.102396L890.599074,469.538540L889.629539,469.945902L889.244719,471.685700L893.206881,481.864969L895.315009,485.649066L896.080851,491.978992L896.707126,499.738921L897.129613,508.228519L896.842170,510.182329L895.718634,512.424963L893.880402,513.036767L891.986170,512.152158L890.608395,512.356762L890.359008,513.782963L891.326667,517.453707L890.251773,521.653888L889.531958,525.248221L890.390767,528.738177L891.517783,532.276198L894.675496,539.953711L895.102360,542.759500L895.072925,545.276456L894.171781,546.321336L892.339704,546.146855L891.511053,547.191731L890.994812,548.764050L889.801887,554.593979L887.933631,555.203637L885.847683,554.331264L882.340232,550.444655L880.386026,549.309546L879.257266,549.369711L878.899518,550.394518L878.452579,552.722880L877.886962,554.283133L876.113421,555.648848L875.213610,552.775023L872.004320,537.895975L870.516309,533.156681L868.899006,526.596075L867.642624,524.582313L865.900027,520.991976L864.112897,517.903016L862.796402,516.589185L861.196860,510.804172L859.850244,503.714982L859.348548,500.368841L856.684500,493.439537L853.918749,485.586868L851.882533,485.917920L850.350504,484.013856L849.460722,484.049971L846.802236,485.825627L844.389985,485.241770L842.696557,485.488555L843.259518,489.093957L844.157172,492.937978L843.707916,494.320268L839.833087,498.840177L839.028280,501.869400L839.646141,505.053012L840.857610,509.313750L840.374137,511.474155L838.688115,513.474054L836.170280,514.507090L833.756514,514.019658L831.997354,512.288561L829.918526,507.869448L828.307437,505.460235L826.915540,504.886511L825.993466,505.538470L826.278271,508.312770L826.690259,510.609596L826.399703,510.864351L825.619292,510.509299L824.612108,509.383958L820.755067,498.322593L816.314271,489.800176L815.625696,486.529861L816.101972,482.328458L816.478386,475.853454L819.527372,471.812120L819.739362,470.098412L820.118596,468.741871L820.980074,468.470961L825.771741,468.854248L827.259339,468.204064L828.357319,466.303656L830.146270,464.772462L832.090649,464.156365L833.676713,463.927585L836.521872,465.380528L837.475634,464.557732L837.815955,461.870544L838.509730,459.205348L839.026276,457.922892L840.677041,457.340863L842.883991,457.198366L843.542230,456.712669L843.989978,455.813519L843.949013,452.283056L845.463753,444.398643L845.875328,440.893748L845.905763,440.267425L845.151775,436.356803L845.864551,435.792676L850.916240,437.695834L852.967576,437.669736L853.956028,436.884790L854.076412,435.453395L853.180381,433.775032L849.317837,430.855714L842.666977,426.916449L836.770738,424.509018L826.731768,424.872446L816.848345,425.633432L813.849893,425.243905L810.005651,424.159644L801.037355,424.320276L790.266996,424.920636L786.074872,424.581302L784.042296,424.627484L780.014234,424.992920L773.149655,423.872513L768.284105,422.432828L763.921688,420.854569L758.819698,419.422867L757.657749,419.438931L756.888438,418.920863L756.202024,417.655800L755.753797,416.023243L755.421420,408.442493L752.457565,396.949170L752.513671,392.761803L746.778666,383.308533L745.078974,381.557266L743.238808,381.480949L742.294210,382.700007L742.248557,384.909181L743.362791,387.373419L742.410662,390.134893L739.650668,391.028606L736.057040,390.100751L732.984126,388.805369L728.843535,385.993686L725.357999,382.033240L724.319497,377.669156L722.552042,374.849505L720.598899,373.477850L719.286149,373.096278L718.237099,373.401535L717.544293,374.923812L718.680019,376.450115L720.251695,378.582938L720.130428,380.032945L719.127481,380.259886L717.453956,379.637305L715.107368,379.978720L712.571407,378.860086L711.153429,378.759670L709.692335,378.353990L709.145848,375.833568L706.415028,372.638393L702.154751,369.055683L698.214095,366.844645L696.574832,367.149891L696.191087,369.589872L696.559222,370.503619L697.868037,370.957482L699.911052,372.373302L700.581386,373.857414L700.563037,375.154765L698.807330,377.518533L697.672793,379.759813L694.795893,383.027366L692.509167,386.766899L692.257856,389.602682L691.603495,392.147252L691.656894,394.948879L692.781873,396.886912L694.438711,398.107967L698.314825,398.997648L702.868110,402.765198L706.914240,407.856096L708.951086,409.394379L712.461551,411.109363L718.692920,411.308171L719.865911,412.715885L721.394363,416.446948L722.838713,417.762227L726.295973,419.521260L726.784817,420.816417L726.269528,422.308335L725.072033,423.484985L722.628491,424.231928L720.218465,424.531105L717.666128,424.057240L713.953476,423.752038L709.799725,423.729951L708.432940,433.060310L706.874485,436.336728L705.676957,436.332713L702.212381,434.742706L700.873495,434.987633L698.539149,443.276533L698.339706,445.273837L698.342279,446.779308L700.826833,449.982850L703.597553,452.618246L706.573284,453.651907L708.643070,452.867128L710.595052,453.930892L713.122335,456.586226L716.992721,458.338338L722.211010,459.187285L725.418072,461.286536L726.060429,463.094740L726.101823,464.931001L726.401664,469.723158L726.337440,472.480337L724.721852,479.720049L723.720992,485.964066L725.183304,488.931446L726.088627,490.141245L726.914256,491.076173L729.459064,493.417468L731.335194,495.734639L730.910077,501.642712L731.863342,503.197420L734.965439,504.236555L738.252658,505.028939L739.497440,506.005873L737.629671,512.007732L738.819415,516.184001L740.546755,520.101399L742.309702,526.507823L742.530878,527.181746L742.538725,528.788320L745.048535,533.762387L749.205229,543.469465L749.921647,547.099477L750.298644,550.921961L750.350788,557.327405L747.553948,557.297323L750.642220,561.580913L751.859674,564.659208L752.791285,568.954744L749.856885,569.478146L747.670467,568.996856L745.383066,565.234757L745.027739,568.655943L742.281957,571.818410L740.933589,570.274278L740.058642,568.613830L739.535718,565.693991L739.744212,554.525793L739.216350,553.266363L738.321914,552.442114L736.529852,551.998904L735.578597,549.738722L734.561169,561.643081L736.397809,566.504168L736.161956,568.724125L731.486465,570.591127L725.884154,566.111112L725.050986,564.679262L725.098116,567.198032L724.606981,570.260241L719.853146,569.706759L717.210605,567.310333L718.170036,563.227353L719.727079,553.396718L719.664744,549.016743L715.343917,545.805916L711.780650,543.836480L709.278158,539.374098L710.676266,544.273688L712.661241,546.014491L715.397188,547.243875L718.451417,549.748750L716.912310,552.803099L715.279281,554.704279L712.627533,561.917822L708.741947,565.946671L703.979375,568.978808L687.602233,573.440747L684.288138,575.251581L679.813137,580.814400L677.146928,586.096439L677.234110,591.450650L679.893644,597.231989L682.622601,606.288046L684.148493,608.132956L682.761571,611.433753L680.061579,614.943125L678.056597,619.673797L678.631209,622.270776L678.185431,624.023495L669.965701,629.839219L668.514489,633.236454L666.478367,636.611670L663.276527,634.680391L661.554009,634.710473L664.273542,637.389417L664.179355,639.160280L663.476162,640.197133L661.343984,641.167808L648.935090,645.441627L639.537953,649.500915L636.731038,649.336457L637.084055,648.105027L638.680494,647.013992L637.924406,642.355084L635.998983,641.500726L634.382753,641.163797L627.564037,646.841513L625.209201,652.459179L625.984383,653.528173L627.654436,653.263432L632.331635,650.076521L634.800036,650.981046L635.124208,652.226528L628.029615,657.082156L613.771758,672.812846L613.399002,675.905725L611.727452,679.413829L609.226973,682.715372L604.974739,690.708599L596.381435,702.587422L594.143313,707.020504L579.161007,716.173651L576.551964,718.895758L571.016222,727.808398L565.087074,735.108319L557.863370,741.154539L545.015636,748.873874L537.481169,756.176014L535.411947,761.028759L535.441240,762.754006L536.612129,765.117198L538.389729,767.309875L538.933835,769.051180L538.526251,772.184733L538.305288,773.918019L536.328569,778.211121L532.459710,781.272469L519.544969,787.676036L517.722993,787.471410L506.476041,786.207548L502.450854,787.365085L501.066619,790.368266L498.559599,802.784233L495.241685,806.084324L494.236767,809.071456L493.920879,811.141785L491.728337,811.087619L489.729984,810.160786L488.407494,810.830834L486.394128,806.664097L483.649813,805.811490L481.423290,805.526619L472.463819,809.727462L469.527024,813.097762L464.211332,829.002304L463.498376,839.257512L466.201683,850.587706L469.446473,859.643065L470.299733,863.731392L470.472587,869.027338L469.486839,871.609102L468.879020,874.664283L470.585932,880.961180L474.211394,889.207882L475.221278,892.688292L475.589049,896.289052L478.471830,904.537668L476.874206,903.049229L475.421919,899.578875L472.268502,895.141624L469.255249,899.558815L471.400149,902.744320L478.054068,906.523588L480.185062,909.620815L478.313754,937.186704L475.963455,946.977704L472.640191,953.394690L470.814105,955.874022L467.110585,966.007972L464.839238,978.272183L464.543630,982.994118L466.322227,988.277706L464.931321,991.402925L463.080146,993.787960L466.827376,992.714795L468.327363,995.583255L469.007430,998.539976L470.207543,1016.123835L470.913011,1034.457933L468.024107,1035.206141L464.801590,1035.396704L461.924124,1034.877170L459.825133,1034.167074L454.787758,1035.139946L452.165411,1037.163921L450.164938,1040.527855L450.654084,1046.262796L442.033500,1060.726929L440.265712,1065.547206L439.768819,1070.184948L441.129136,1072.612142L443.677676,1075.095504L446.880144,1076.098478L453.022601,1077.097440L456.016955,1078.431396L458.139280,1080.886677L450.823216,1078.272926L442.363019,1077.757397L422.544628,1084.475323L417.476129,1089.193323L414.719205,1093.273434L413.147595,1102.619188L413.105048,1108.865747L410.962410,1114.073224L400.858069,1122.073009L394.349345,1124.536335L391.928521,1126.654635L383.983494,1123.902449L375.136110,1116.893608L371.377184,1113.140451L357.857872,1095.072776L355.434911,1092.783981L352.496991,1085.061061L351.947609,1082.182521L351.186264,1081.035118L349.942328,1080.252797L349.305541,1079.061264L346.006065,1070.217043L344.348993,1060.999737L341.978267,1050.703260L343.545143,1051.411355L345.842154,1054.801387L347.166531,1059.729977L347.656859,1066.610356L349.287465,1067.408722L350.671584,1066.760802L345.750355,1050.907865L341.999234,1046.970888L341.046378,1046.712124L339.922697,1044.170615L339.636062,1040.981194L339.867111,1039.466721L336.747016,1034.275394L335.583513,1031.184270L328.385602,1015.497989L324.882800,1004.262854L319.734094,991.765996L316.647321,987.385073L311.630271,977.742620L307.658716,973.261392L303.359644,967.253651L300.118720,964.587776L298.829355,963.183627L288.319776,942.354014L284.702857,930.849914L281.948188,925.415785L280.472366,921.287522L275.947657,903.638988L275.676102,900.483575L275.017762,897.037287L272.175564,889.558932L267.564284,881.478732L266.005397,876.445632L265.853761,874.487753L262.686421,866.644165L261.845413,863.057361L259.866858,859.741362L257.639826,856.698177L255.368936,854.258807L249.851262,846.316774L247.950894,844.378900L244.210718,839.227421L241.023035,829.708455L237.686486,825.989118L242.395831,825.989118L239.202230,822.476403L237.622674,820.171368L235.980907,818.755044L237.842832,815.208211L234.262759,815.308517L232.164250,813.173995L228.949672,806.509624L223.513855,798.984613L222.327704,794.964319L216.942048,782.319668L210.400316,751.971258L205.798328,738.458408L205.651734,734.576720L200.547780,722.875636L197.828389,715.030251L196.352425,708.392562L194.860809,704.023656L193.021719,695.376241L191.242413,692.636226L190.903657,690.983400L191.480524,687.043928L193.623374,680.954278L194.237259,677.097152L192.461122,671.665560L190.521445,677.367932L188.334593,678.966539L186.751284,674.706278L186.129676,668.977878L185.690551,667.607971L186.094825,665.684496L192.455508,666.567007L184.966473,663.053024L183.892073,660.991186L183.459492,659.456850L184.687393,656.610830L181.831215,654.210085L180.005074,646.863574L179.058969,645.186920L178.620902,643.831165L178.998859,633.683673L182.979863,613.757958L182.939618,609.257953L181.714562,602.860935L179.792692,597.769415L178.626306,592.385129L178.103184,591.005469L175.832754,590.514165L173.509011,588.522881L170.192582,580.541675L172.132552,577.922702L173.688337,576.482865L171.395063,577.094495L169.409931,576.851849L172.710476,573.178045L175.701241,570.358504L182.866879,567.085730L185.832011,564.998120L181.302516,566.877170L176.430078,567.593092L165.843325,567.210064L166.767213,559.776037L168.319828,557.295318L170.157238,555.901534L167.266321,556.320673L163.816897,555.725055L164.055005,548.178443L166.529242,546.549965L169.364862,546.239110L172.806642,545.166152L168.857003,543.920713L164.819008,543.325066L160.196061,544.558475L155.713463,543.649964L150.397229,543.670020L152.633848,544.678807L155.162610,546.977141L154.487584,551.062345L153.706893,553.613308L150.969993,555.372095L148.878088,558.035324L148.469773,560.375658L147.288864,562.016087L149.754217,563.185240L152.262000,564.017481L153.874473,565.910574L155.824961,568.661959L156.322849,574.010268L151.395301,586.615818L149.519306,589.423270L134.538898,597.027446L128.768633,601.166433L116.104366,606.542724L111.051190,607.543387L105.230114,606.478553L96.458253,602.381661L82.625568,591.929922L78.953034,588.474753L67.360438,575.049040L59.265292,567.950050L52.994915,561.338258L45.441359,555.097348L38.035019,546.666286L36.238100,542.825683L36.293939,538.918829L38.479862,536.786875L41.403038,537.651292L43.996178,540.944466L45.741643,542.418556L47.145833,543.022228L56.270384,537.974194L60.053386,538.174754L62.341280,535.641666L65.650033,536.193212L71.840580,532.252131L74.593034,532.013457L77.806756,531.223223L82.015648,521.240695L85.284077,514.892219L87.721392,513.570337L87.396958,512.023779L86.448466,509.995776L84.568995,510.505287L83.435382,512.434993L82.699824,514.761837L81.848187,516.147896L78.570826,514.868149L76.486769,515.082778L73.970742,515.849022L64.875321,519.569859L61.346211,522.907501L58.760551,523.569405L43.141414,519.894801L27.338743,511.466131L20.451771,505.869464L15.681455,498.715796L10.738478,490.193409L11.747027,487.809910L17.282447,482.687611L22.100600,478.662620L17.557263,480.454423L12.700220,482.940421L10.357241,484.683994L7.896457,488.329550L4.152790,489.146121L1.998420,483.724932L0.422912,478.447922L2.659625,476.672133L4.236343,475.544440L7.618143,474.603348L11.339206,473.931133L14.808523,473.957219L19.683729,474.035477L18.322524,461.667848L18.596716,460.584116L19.203323,459.957953L19.954303,459.691030L20.644339,459.881690L21.874174,461.734076L23.104908,461.631724L24.292784,460.566054L27.354060,461.360792L29.656036,460.816919L32.149585,461.543420L36.237278,461.559475L43.571038,461.266467L47.675334,461.360792L50.572574,463.329543L53.742013,465.490902L56.926492,465.793930L61.444575,465.541073L64.429672,464.712257L65.736039,462.697380L66.665184,460.768753L73.056453,457.940955L79.843144,455.644928L81.844480,455.392039L82.660565,456.728725L82.621628,458.976554L83.721230,461.115949L86.727764,462.470603L88.779952,462.803745L90.544357,462.498700L91.794936,461.818365L94.237659,458.456749L95.621420,457.692088L97.562032,457.746277L99.521286,456.140666L99.408317,454.912353L97.951388,454.322274L96.556297,452.552011L96.583987,451.110883L95.985668,449.079609L95.965979,447.152660L96.695085,445.707416L98.120756,444.316342L96.783051,441.441775L93.585969,435.935214L90.057244,428.888116L86.532364,423.013122L82.369529,417.864637L80.066056,414.087437L79.081565,405.743442L78.532578,404.050488L77.202930,403.024265L75.523515,402.445883L73.399044,403.295381L71.401032,403.458051L67.027117,403.277307L64.771879,402.421784L57.786258,394.051155L56.553817,390.761496L56.036325,387.391494L57.113330,381.517099L56.893450,376.056488L56.403593,370.961499L55.865106,369.521592L54.447063,367.810589L52.312610,366.547433L47.062355,366.244196L40.636404,364.561348L35.429620,361.597341L31.865808,359.806122L30.786562,358.641444L30.183266,357.265937L30.105673,351.109540L30.526578,344.168600L31.283250,342.044492L32.822466,339.846174L33.983146,338.348552L35.899830,336.367172L40.867505,329.751036L44.785580,320.663299L47.067731,314.322246L48.488748,312.438179L49.987609,310.825056L52.260551,308.872947L54.950150,307.089454L57.937265,307.167693L61.035325,308.784673L63.452131,310.688626L64.852757,314.884073L66.794155,317.611046L68.671891,319.254540L70.926928,320.051226L73.593255,319.852555L83.659514,315.036570L87.191406,314.065414L95.954908,313.465476L101.731518,311.607533L106.785142,309.659396L106.838983,306.168652L107.993891,300.834888L113.104317,293.891625L114.333578,290.793517L115.198455,284.878918L116.264583,279.482658L117.605379,277.239873L126.447316,271.320157L135.151199,265.878604L136.279867,263.414677L140.428611,252.132040L142.552879,244.477415L143.007931,242.015882L143.788897,235.365258L144.732779,228.754921L147.421345,227.227176L153.557849,224.708205L158.330485,222.245214L160.458408,219.434737L161.593462,216.976372L160.792721,214.538254L158.747043,211.652791L158.706084,209.938445L158.628357,208.248176L161.733488,204.797989L166.795347,194.599016L170.020800,189.504194L171.446831,189.510186L175.365875,186.800105L178.983998,183.732585L178.441293,182.338626L177.518649,180.535265L174.893719,179.724449L173.662058,177.559595L173.592880,174.460041L173.823917,166.115392L172.879750,163.720408L168.686752,155.987100L168.768724,153.851165L169.308223,151.665103L171.435046,148.751388L174.483939,146.333006L184.676282,140.579727L186.860574,139.947921L190.518969,138.492286L192.260378,135.422658L191.964814,132.804528L190.524950,131.178229L187.641090,128.997554L182.708512,127.020661L178.278774,125.305662L171.464661,125.485777L167.563830,124.010766L166.362552,122.979964L165.026513,119.340475L164.292946,113.190123L163.102168,112.647230L161.746934,113.372417L157.958746,112.643223L153.535572,112.737380L151.444798,111.024403L151.811806,108.956454L150.923135,106.200568L149.653708,103.580290L148.835997,103.032892L146.569644,102.409264L142.739783,100.145015L139.429751,97.352572L137.426610,95.460376L136.640590,94.155875L136.590065,93.292793L137.954803,90.863666L139.473588,87.455708L139.635792,84.524593L139.388772,82.400429L138.372163,80.832564L135.800200,78.912504L133.141478,77.235325L131.885014,75.777042L131.324316,73.573989L131.510080,70.816719L133.674601,68.734979L137.916402,66.759370L138.537514,64.303669L137.948425,62.483980L136.528793,61.937775L133.215310,61.925681L127.477689,61.302830L126.291211,60.300905L125.340351,58.954009L125.012433,57.618935L125.826609,56.100000L126.777082,54.177105L126.079645,52.304084L123.928569,50.186156L119.619998,48.635097L118.560905,46.447178L118.720641,44.620261L119.389862,42.014294L120.080089,40.202157L121.497711,35.045691L124.462993,33.917831L128.030159,32.248897L131.973330,30.403149L139.080515,31.787013L142.541744,32.461593L149.598835,34.039335L155.513490,35.361531L161.314294,35.736061L163.657105,35.644962L166.668612,37.205594L173.794386,39.884568L179.390309,41.292340L182.938561,41.278183L187.588107,38.909441L189.654873,36.742106L192.576461,34.363333L197.102281,34.454454L205.911326,30.788154L207.894423,31.420314L210.840353,31.628991L213.788938,29.509423L214.952067,26.991584L214.921624,25.734237L215.553059,24.805226L218.865947,23.204418L222.032844,20.990050L222.298071,18.064183L222.402102,16.085352L225.839109,13.520322L229.400270,10.854451L233.131637,8.061198L237.362948,4.885962L240.939812,2.195963L243.859801,0.000000L244.378319,0.474696L246.026273,1.464732L247.636199,1.955622L249.128196,1.012511L251.093911,0.236333L252.342749,0.672307L252.840784,1.939328L253.097975,7.880090L253.813165,10.209658L257.253617,15.044851L262.130666,22.881761L266.697885,30.218741L269.517593,35.027469L271.566879,36.997130L278.555735,39.004533L284.298450,40.653223L288.162698,43.354826L292.323525,45.946045L295.189993,47.534167L296.873870,49.574262L297.584616,51.415815L297.685921,52.651282L296.770613,54.273970L291.711165,58.457927L291.320063,59.784762L291.591296,61.526580L294.120332,66.717073L295.705830,69.967186L297.572696,76.497167L299.546888,82.699896L302.431193,85.523179L304.667526,87.347241L306.175356,89.002212L308.952269,91.267229L311.231515,92.955566L313.063990,93.947137L314.402678,96.180781L314.592090,98.803061L314.510186,101.085675L315.013563,102.313009L316.502189,103.183279L319.022776,105.458859L320.099892,108.792123L320.526792,111.082509L321.806035,113.144048L322.573249,115.429535L323.368846,121.132322L324.095489,123.712542L322.427080,123.870662L321.169797,124.749292L319.954523,128.339287L317.786544,129.283661L315.134838,129.567761L311.802577,127.364836L308.946206,125.065505L308.022972,123.786599L306.855675,121.362541L305.233812,119.778950L303.019248,120.519719L299.468194,120.854052L295.665574,121.390567L295.075739,121.923057L295.250625,122.941932L296.736908,125.121542L298.242946,127.963121L299.677599,131.938390L301.371399,134.564662L301.908794,135.402659L310.072948,143.294650L312.109122,144.901836L312.700409,145.959232L312.834964,148.837326Z "/></g></svg>