<?xml version="1.0" encoding="utf-8"?><!DOCTYPE svg  PUBLIC '-//W3C//DTD SVG 1.1//EN'  'http://www.w3.org/Graphics/SVG/1.1/DTD/svg11.dtd'><svg enable_background="new 0 0 1000 2095" height="2095px" pretty_print="False" style="stroke-linejoin: round; stroke:#000; fill: none;" version="1.1" viewBox="0 0 1000 2095" width="1000px" xmlns="http://www.w3.org/2000/svg" xmlns:xlink="http://www.w3.org/1999/xlink"><defs><style type="text/css"><![CDATA[path { fill-rule: evenodd; }]]></style></defs><metadata><views><view h="2095.43221834" padding="0" w="1000"><proj flip="auto" id="robinson" lon0="71.348171764"/><bbox h="36.98" w="17.66" x="1053.33" y="87.65"/></view></views></metadata><g class="" fill="#000" id="country"><path d="M942.959732,2093.432218L952.627148,2086.556616L977.464627,2062.839651L984.492474,2053.878191L987.724423,2046.230049L988.382512,2039.972478L987.370064,2034.641953L985.200484,2029.311430L982.714677,2037.036827L980.122847,2040.590509L977.304983,2042.985383L973.788238,2047.543366L952.203574,2078.444951L943.219959,2086.942886L951.548481,2006.135236L947.353952,1983.190803L937.195079,1971.602705L897.279751,1939.619551L886.255518,1937.842709L903.225938,1964.881608L910.499023,1970.289388L917.488806,1972.529754L936.078087,1984.349614L941.379790,1989.680139L946.198508,2012.315555L939.065310,2066.625095L942.959732,2093.432218Z M981.498001,2018.032349L980.834479,2012.470063L980.687129,2005.903475L985.950011,1989.911901L995.027790,1977.242246L999.761272,1964.263576L991.720882,1947.267698L965.122943,1905.396027L956.414344,1898.365912L969.648475,1925.327560L985.861449,1947.422205L992.719810,1970.212133L978.358597,1999.414140L975.833423,2006.444252L977.561970,2014.324158L981.016280,2021.586032L984.216188,2026.684795L981.498001,2018.032349Z M75.503527,1353.647407L65.712940,1353.261136L65.679317,1354.188185L66.761134,1356.274047L69.666466,1356.892079L75.503527,1353.647407Z M3.188546,1100.176544L5.609866,1097.163631L6.786188,1092.760144L5.829186,1085.111982L1.544912,1088.820182L0.251486,1092.682890L0.238728,1102.725931L3.188546,1100.176544Z M81.517696,923.959782L86.595455,912.989689L90.169154,902.174105L84.073159,903.178409L78.703947,906.809356L74.562133,912.371656L71.037310,919.788057L76.056136,928.286016L81.517696,923.959782Z M459.720573,200.397216L460.132932,198.156846L457.819980,195.916476L450.034177,194.371392L451.877639,196.380000L458.838691,202.405823L459.720573,200.397216Z M838.755699,95.640604L840.814534,95.177079L843.341201,92.859456L845.756846,87.606175L837.526793,95.717858L838.755699,95.640604Z M434.833248,55.004934L437.748518,53.305342L440.469023,49.133620L442.094162,40.790174L433.256360,55.313949L434.833248,55.004934Z M459.227687,11.588118L461.149381,6.798363L454.126589,9.115986L456.129609,10.429305L457.577825,12.051643L459.227687,11.588118Z M623.942793,0.000000L622.964827,2.935656L623.816678,4.017214L625.349915,5.098772L626.571764,7.416395L626.663969,4.480739L627.488700,2.085861L627.062655,0.463525L623.942793,0.000000Z "/></g></svg>