<?xml version="1.0" encoding="utf-8"?><!DOCTYPE svg  PUBLIC '-//W3C//DTD SVG 1.1//EN'  'http://www.w3.org/Graphics/SVG/1.1/DTD/svg11.dtd'><svg enable_background="new 0 0 1000 962" height="962px" pretty_print="False" style="stroke-linejoin: round; stroke:#000; fill: none;" version="1.1" viewBox="0 0 1000 962" width="1000px" xmlns="http://www.w3.org/2000/svg" xmlns:xlink="http://www.w3.org/1999/xlink"><defs><style type="text/css"><![CDATA[path { fill-rule: evenodd; }]]></style></defs><metadata><views><view h="962.094674054" padding="0" w="1000"><proj flip="auto" id="robinson" lon0="42.4921164978"/><bbox h="140.05" w="145.72" x="544.92" y="-627.43"/></view></views></metadata><g class="" fill="black" id="country"><path d="M797.117010,960.094674L801.280695,959.160345L803.770565,958.601597L805.444115,958.226029L809.606919,957.288761L813.779560,956.351505L816.229284,953.089017L828.900076,936.191922L833.738251,925.619466L839.137712,918.570204L840.316379,916.323389L842.256427,908.528375L848.022188,896.150391L849.393961,891.845253L849.492285,890.689766L849.433666,887.223450L849.732421,885.576286L852.448989,878.757081L858.013568,857.120316L860.729948,852.259687L865.385777,848.718916L880.239311,842.088009L885.759595,841.389443L910.940258,841.389443L916.663977,842.496497L939.178358,853.323520L938.875278,850.620279L938.005595,849.603922L937.925072,848.373131L938.164919,846.983864L938.210039,845.501398L937.893140,844.102881L936.209482,840.373679L938.131403,842.522601L939.211137,845.697193L939.995311,849.165683L941.076481,852.177488L947.339039,848.419752L950.920210,847.412762L955.102304,847.487353L959.758876,848.340497L964.190243,849.837030L970.049020,853.332845L973.593681,854.414551L977.438023,857.062963L985.232187,859.697522L995.967911,860.788689L998.451751,860.121862L999.479760,858.760257L998.910908,857.627167L996.558634,857.659807L996.490282,857.137568L996.505540,857.072289L996.506090,857.069916L995.779072,856.753167L992.646457,855.876757L991.077666,854.976675L989.584840,853.887124L988.863995,853.229852L988.312102,852.478773L987.153036,850.246510L986.755788,848.754441L984.229294,843.058913L983.936658,842.863547L983.227590,841.685444L980.988157,839.441790L979.419091,836.783855L979.123085,835.990642L979.166554,834.717971L979.805995,833.764966L980.629046,832.906682L981.208205,831.918191L981.298541,830.698876L980.948410,829.461830L980.295480,828.295832L979.527439,827.325169L975.273939,823.797763L971.661303,820.169938L969.236345,816.808599L968.219907,816.015631L966.987950,815.607314L965.752150,815.548138L962.270191,816.157654L961.098863,816.204995L959.927850,816.027466L958.780598,815.536303L957.888906,814.696007L957.315629,813.601271L955.844391,808.559768L954.635949,806.062804L953.088133,803.814419L951.219502,802.027586L950.128015,801.388595L948.990842,801.009936L938.488927,799.513066L937.869482,796.004687L937.868691,795.998771L930.730871,740.865157L930.218139,739.398424L929.090980,738.759686L897.159559,738.753771L893.700667,711.078097L891.220804,691.467849L900.292948,650.942952L900.500021,648.351105L899.883139,645.918947L898.264337,643.871373L894.031420,640.977444L892.225326,639.231558L891.756573,638.367476L890.969478,636.361104L890.280883,635.325342L889.441098,634.632851L887.524239,633.478684L886.732408,632.561253L882.374810,626.310521L881.630278,624.291914L881.627733,624.274155L880.380952,622.243636L876.760060,620.580095L875.028749,618.869142L872.106186,613.878057L870.378740,611.808496L870.124347,611.503722L868.141310,610.722121L866.654399,610.538561L865.652871,609.555618L864.704128,608.383167L863.344720,607.589675L861.766336,607.151472L861.032128,606.636282L860.811868,605.730246L860.781951,604.131319L860.983038,602.887671L861.413142,601.880886L861.767785,600.767474L861.687292,599.168380L860.968323,597.684726L858.874943,596.239524L858.144729,594.782430L857.137744,594.317453L856.423362,593.662923L854.369449,591.278694L853.912561,590.641891L853.366545,590.011002L850.083564,587.250384L849.543682,586.592786L848.674952,585.043539L848.607685,584.474776L848.934510,584.039312L849.476192,581.912285L849.924066,581.278303L850.164831,580.525808L849.822950,579.201500L849.161710,578.363045L846.290986,576.380904L844.364573,574.294957L843.023701,572.525963L841.581530,571.091744L839.354608,569.998265L833.605746,568.110531L832.234168,568.021624L828.164402,570.478333L826.549867,571.127304L823.195986,571.494753L820.051408,570.822081L816.885087,569.272224L813.469125,566.996220L813.462845,566.987329L813.442865,566.987329L780.671730,541.547267L776.006652,536.976634L769.124091,533.146999L764.167099,529.551281L763.768548,529.338120L754.005173,524.115365L750.905718,521.385165L740.619310,516.793701L729.910183,513.608630L718.720937,514.888044L712.972206,514.202333L710.254306,509.603779L710.251733,509.585965L711.235472,508.181607L712.652362,506.878132L713.867902,505.390493L714.228488,503.439513L713.447176,501.865562L711.876209,500.621184L709.950052,499.848988L705.642984,499.361898L704.130023,498.206511L704.022111,496.807503L705.803617,495.723296L707.899018,495.533184L709.531769,495.657945L711.051315,495.346041L712.861034,493.807258L715.086339,491.222612L716.176014,489.603363L716.648467,488.126637L716.437109,487.086638L715.218043,486.379414L714.633646,485.309626L714.561038,484.367581L714.821691,482.159430L714.629068,480.976518L713.488868,479.035587L711.944324,477.668224L708.513305,475.182993L703.885735,469.756810L700.203517,466.640283L699.460244,464.962897L699.124230,463.041487L698.488081,460.703457L697.392873,458.528816L696.006490,456.541411L692.178015,452.494656L691.851224,452.268492L691.522778,452.098868L691.132477,451.896683L691.005755,451.831037L690.499130,451.735808L690.029960,451.828061L689.591512,452.095892L688.058992,453.795053L685.196700,454.164031L682.242105,453.494510L680.383494,452.083988L681.596108,450.101965L685.754558,447.310164L686.683926,445.574782L685.632923,443.026527L683.387194,441.624262L681.431240,439.891402L681.288578,436.350807L679.285751,436.868980L674.620832,436.940451L672.974802,437.687905L670.570083,440.385669L669.142644,441.439669L667.522699,441.859468L666.748341,441.055590L666.172864,436.958319L665.724708,436.106863L665.255886,435.216143L660.242347,431.957737L658.566240,430.498140L656.979035,428.627322L655.739433,426.753355L654.774028,424.715332L654.018712,422.382081L653.046136,420.465813L651.579372,419.076926L649.915388,417.833998L648.412285,416.400213L637.566892,400.851348L637.364310,400.690247L637.141593,400.594779L636.897863,400.558978L634.120857,400.997531L631.598310,400.836431L629.236159,399.604269L626.839522,396.820418L628.758818,395.889392L629.598526,395.250776L630.272269,394.430093L630.292136,394.430093L630.290377,394.418156L631.282244,391.209681L631.656194,388.260376L632.359611,385.695765L634.399199,383.641426L635.585880,382.133368L638.996438,378.952592L639.780585,377.647265L639.589371,376.359766L638.890624,375.364951L638.036669,374.361117L637.379290,373.043499L637.413850,371.973794L638.438400,369.786373L638.759579,368.743367L639.210563,363.177606L638.978116,360.322284L638.060349,357.696757L636.247678,355.423760L634.075135,354.161516L631.934208,354.173481L630.248536,355.707902L628.277435,354.397820L626.673956,351.894022L622.285976,342.365942L622.990286,340.842249L627.858349,339.713607L628.457338,339.078897L628.972968,338.351346L629.392622,337.512975L629.710862,336.593710L629.329879,333.161718L627.827638,328.470725L627.745861,325.288679L631.646991,326.385389L635.197948,328.117196L638.268734,328.830237L644.938379,329.351516L647.161590,330.094458L647.713443,329.974631L647.991968,329.225692L648.063393,327.991362L647.900921,326.750942L647.504461,325.995856L646.207009,324.491567L645.602857,322.525584L645.228521,320.343529L644.594558,318.149172L644.075836,317.339699L643.499267,316.770045L642.922561,316.068440L642.438480,314.833059L641.958291,313.885465L641.127901,313.045775L640.164443,312.373990L639.303922,311.924117L637.632499,310.304464L638.082137,308.432647L640.283554,305.378444L640.378631,304.046159L639.799821,301.699366L639.890471,300.306719L640.630567,298.985984L641.766837,298.481672L644.450737,298.193486L646.823680,296.350161L646.877204,293.515670L646.239791,290.566491L646.532539,288.331681L648.733070,288.223536L650.590814,289.136260L651.814651,289.737489L654.534702,290.632569L655.694211,288.698166L655.991210,285.850153L656.478163,283.728796L656.395592,281.541002L655.048750,278.529227L655.045987,278.511190L654.525498,276.924908L654.309352,275.385538L654.568695,274.044467L655.428600,273.040084L656.024452,272.829576L657.349467,272.697255L657.877959,272.402536L657.991751,271.855184L657.504808,270.423550L657.519628,269.876124L658.505331,267.698247L659.131294,267.427494L660.620563,267.914846L662.839077,269.220388L663.891107,269.629475L665.107724,269.533220L668.166925,270.772449L669.625032,270.381441L670.827498,269.069986L673.155676,267.523763L674.104195,267.421477L675.884860,267.872730L678.193376,267.066483L679.343934,266.831820L680.286939,266.278243L680.830739,264.870140L678.496480,262.565139L679.273363,259.278557L680.797143,255.744403L680.682618,252.679224L679.051610,251.468648L675.350446,251.504786L673.872258,250.577221L673.330462,248.740004L673.950599,247.258035L674.916846,245.842208L675.234104,244.666094L675.362153,244.191264L674.136755,240.756304L671.444021,238.116344L665.425841,233.402008L657.791812,223.625839L656.023679,220.259407L655.816016,219.179373L655.906366,218.238066L656.290493,217.471713L656.955475,216.892403L657.263133,216.427736L657.317142,215.950989L657.101765,215.456126L656.655331,214.967286L655.237839,212.746238L654.040438,210.386115L654.455891,210.265386L654.914861,210.265386L657.970134,211.152731L657.984869,209.540995L656.355008,205.049227L656.058620,203.123039L656.073693,201.075908L656.538116,199.221857L657.541523,197.881050L659.397795,197.198538L666.109157,197.403898L668.001249,196.950896L672.386730,194.413926L676.168654,194.625350L678.125156,194.395804L679.389826,192.970150L680.389560,191.055052L682.998187,189.212311L684.297100,187.852825L685.109307,185.943381L685.011617,184.112358L684.053642,182.547126L682.287041,181.416960L680.193721,181.211470L678.620918,182.051551L677.168777,183.187734L675.464424,183.852500L671.550880,184.734800L669.517053,184.813359L667.464415,183.991494L666.584318,183.350906L665.900495,182.704258L665.363482,181.894415L664.513324,179.507053L663.989004,179.089998L663.275788,178.975156L660.161251,177.856932L658.579058,177.826709L657.132587,178.406983L655.454696,179.458699L653.640014,180.081248L647.522717,179.803218L644.622606,180.860925L643.620468,180.758178L642.590040,180.443891L641.612204,180.401583L639.610201,182.377906L637.909368,183.290472L635.968845,183.429469L634.250072,182.371863L633.151056,182.154293L629.721305,183.236081L627.929896,182.752606L626.515401,181.211470L623.135855,175.179058L617.737412,168.939806L614.486587,166.339739L611.818027,165.849935L610.464934,165.075909L606.433355,161.828423L602.546686,160.487806L600.314184,159.717690L597.828136,159.760027L594.910391,161.326456L593.289371,161.798184L593.272499,161.816328L593.263590,161.822376L593.238957,161.822376L593.234975,161.828423L591.554125,163.116570L589.546911,163.830170L587.452977,163.545942L585.510056,161.828423L585.489406,161.822376L585.478610,161.816328L585.477667,161.810280L585.474837,161.792137L584.559789,159.905181L584.744718,157.491904L585.540958,155.084509L586.422816,153.227440L586.449537,150.880261L584.867775,148.514788L581.314519,144.691013L580.446103,142.228364L579.834583,136.824572L579.038961,134.579361L577.436166,133.211608L575.447656,131.831712L574.684722,130.421517L576.754506,128.938653L574.611211,126.668885L573.630827,124.629042L572.594334,119.580585L571.704181,116.868540L570.217717,113.932390L568.213896,111.831609L565.776532,111.656037L560.778853,113.768930L558.039417,113.986876L555.272753,112.782113L553.985641,111.541007L553.463806,110.475456L553.124323,109.319075L552.427607,107.799410L551.488023,106.673266L550.548755,105.892223L549.787360,104.929533L549.437269,103.270537L548.010858,101.956640L546.303040,100.669984L545.913250,100.376311L544.254018,98.614309L544.151334,96.749346L544.529076,96.464755L545.635944,96.004564L545.885602,95.780523L545.583531,93.309996L545.967262,89.307421L547.142659,85.068605L546.947002,82.876506L545.534011,80.351338L542.555660,76.136646L540.850633,74.247299L539.122779,73.387404L537.879513,73.351070L536.713868,72.999846L535.621046,72.303452L534.582361,71.267947L533.230403,70.238498L531.818996,70.008387L528.898938,70.171887L526.335799,69.614775L524.241544,68.361274L523.171163,66.320559L523.732124,63.426036L526.452417,59.332588L527.428673,57.237455L527.488537,54.415731L526.617137,51.787825L525.438297,49.877481L524.566833,47.803689L524.596353,44.679456L525.428594,43.383776L525.381643,42.112333L524.584812,41.058866L522.342152,39.981195L521.076672,38.818779L520.355337,38.449473L519.445041,38.491852L517.663829,39.067002L516.750961,38.879321L516.221314,38.298119L515.454339,36.512161L514.964195,35.749357L514.198040,35.252934L513.452052,35.034993L512.731222,34.729272L512.046467,33.945300L510.959146,31.874928L510.759785,30.724749L511.507324,27.353029L510.015935,25.334324L507.961666,24.387040L497.794696,23.006999L496.037926,23.085685L493.223252,24.483886L489.963574,27.147221L487.058049,30.316138L485.223756,33.200685L483.162415,35.034993L480.877367,36.391080L473.230513,39.006459L472.685020,40.329317L472.642714,42.166823L471.567077,44.667346L471.568994,44.679456L471.555235,44.685510L471.545425,44.685510L470.977598,46.647227L470.219669,47.500949L469.056595,47.591770L464.953098,46.583652L463.990538,45.893414L463.178850,44.667346L458.004727,36.136812L456.915277,33.715255L456.578506,31.218113L457.015575,28.842133L458.280079,26.802192L459.384224,26.100032L460.435803,25.900281L461.309112,25.473543L461.870380,24.102555L461.810825,22.958578L461.475122,21.496863L460.590802,18.930637L459.353698,16.243500L457.908573,14.219167L456.113550,12.642728L453.769391,11.278138L444.030415,7.532539L442.180283,7.232063L438.926346,6.703589L434.747211,7.375219L431.745096,10.306914L429.576859,14.334149L427.203297,17.632441L422.261101,18.546319L420.828022,20.271232L419.681862,20.585959L418.914324,20.132027L416.565302,18.165030L415.523193,17.523503L413.185152,16.960661L410.674265,16.730684L401.055982,17.390357L398.726766,17.099858L396.173962,16.134565L394.236320,14.842495L393.396527,14.424925L392.142107,14.237322L390.995632,14.424925L388.792200,15.308484L387.602644,15.471883L385.956499,14.848547L380.986887,11.278138L376.826055,9.362941L375.389179,8.381710L372.590717,6.470639L371.417780,6.237690L369.705461,6.500892L368.932008,6.879059L368.184718,7.768520L367.367748,7.931893L366.562028,7.822978L365.868686,7.586996L352.377133,0.964932L350.680283,0.511199L347.774250,0.780414L344.120961,1.784690L340.724260,3.306278L338.585976,5.112294L334.762550,6.479715L330.855437,5.923060L322.620512,3.357705L321.715982,2.767817L320.991470,0.750165L320.073417,0.136117L318.916160,0.000000L318.084656,0.069571L313.693146,1.941989L313.141647,2.365488L312.700975,3.315353L312.632388,4.138185L312.640249,4.948932L312.420464,5.871631L303.166809,22.982789L302.487593,26.166616L302.261270,26.802192L300.844321,27.474093L292.883992,28.830026L287.722461,30.606706L283.560504,31.094015L284.379102,32.480293L285.276580,33.675906L286.014984,34.986562L286.302606,36.687727L286.270732,36.715187L283.674001,38.951971L278.466147,44.667346L278.467975,44.679456L278.468889,44.685510L278.439457,44.685510L270.209817,55.072716L254.223055,75.191973L243.416521,88.756380L241.213423,90.881818L238.788762,92.104994L210.201876,98.335778L204.176994,99.359076L201.562332,100.648783L200.032386,103.252372L200.034140,103.264482L200.025185,103.270537L200.026940,103.282646L193.980127,119.580585L193.654451,122.722299L194.784116,152.108313L195.071907,154.062225L195.734337,156.088618L198.987959,161.792137L198.996954,161.786089L198.998671,161.798184L208.637100,177.778352L210.203721,181.531792L211.200131,185.369312L213.872478,201.444284L213.864381,205.103568L212.850784,208.635471L210.306589,213.476792L206.747187,220.241307L206.749716,220.259407L206.739843,220.259407L206.729969,220.259407L206.341585,223.770618L207.089087,235.156465L205.096956,249.559247L205.139851,256.653605L205.591087,259.360998L208.784393,278.553275L212.385319,298.865911L212.584336,301.909452L212.154205,304.772329L200.020989,336.575743L200.023418,336.593710L197.599778,344.200768L195.834074,347.289275L193.273280,349.117564L170.551294,355.435724L157.604126,363.942930L147.834140,370.357161L138.056594,376.760065L128.272683,383.160653L124.826738,385.415722L118.483194,389.564935L108.686961,395.963995L98.893935,402.357877L89.074702,408.749609L79.269784,415.145194L69.447084,421.526786L59.619215,427.915294L49.784664,434.298837L39.944194,440.683414L30.097435,447.066088L20.245136,453.452851L10.385452,459.828865L0.520240,466.209051L7.020788,482.623069L12.834290,497.377808L17.666687,509.603779L24.049397,525.916566L30.650264,542.766191L40.028005,566.744310L32.847576,569.100343L32.722662,569.141832L32.692626,569.224809L32.749605,569.367055L32.901817,569.553752L39.585869,586.038855L40.510070,587.756906L41.555998,588.313776L59.271175,583.227618L61.400062,584.394793L63.251265,587.916859L66.195005,595.647215L64.157870,599.274988L53.700255,609.247704L53.824661,610.129991L54.094251,610.041171L54.363137,609.946429L54.622019,609.851687L54.881599,609.762867L74.420202,613.060967L93.952916,616.364777L113.489036,619.668383L133.017833,622.965870L140.943954,624.297834L140.963970,624.297834L140.974690,624.303754L140.995418,624.309674L174.787730,630.714514L180.251701,632.768416L186.031818,635.940882L196.721005,641.942101L205.833742,647.066983L214.965694,652.173752L224.091105,657.297934L233.207089,662.415882L242.334390,667.533534L251.462260,672.644996L260.582096,677.762122L269.723957,682.884934L278.846299,688.001622L287.969873,693.118123L297.104697,698.234460L306.250764,703.350655L315.377249,708.460814L324.505632,713.576788L333.655258,718.692686L342.785971,723.808528L352.078437,729.007135L359.198647,734.667040L368.293225,741.870582L377.368298,749.074210L386.443922,756.277986L395.530118,763.481970L405.722674,771.608958L415.905033,779.730461L426.099387,787.864313L428.194579,789.533844L436.292812,795.986938L436.303578,795.992854L436.314343,795.998771L436.325108,796.004687L447.634152,804.536262L457.065595,811.660371L466.486048,818.773306L475.912689,825.892878L485.344787,833.013227L497.597409,842.265612L509.860711,851.519539L522.124547,860.774187L534.379511,870.037338L539.571323,873.960442L546.639969,879.302112L558.900148,888.562548L571.156003,897.827500L583.412531,907.096933L593.611123,914.805799L603.815624,922.521602L614.029690,930.232462L624.214279,937.950220L632.449493,944.174336L633.103671,944.417501L633.759217,944.672529L634.399616,944.927558L635.069639,945.176656L644.103988,946.004027L651.986321,946.736512L659.847005,947.454177L667.704272,948.183712L675.570875,948.904358L685.700401,949.841507L695.819229,950.769773L705.949628,951.706948L716.074375,952.635240L726.199554,953.563545L736.331259,954.500761L746.462703,955.432059L756.584478,956.363369L764.122524,957.057412L771.640253,957.748495L779.174424,958.448484L786.707787,959.139583L797.117010,960.094674Z "/></g></svg>