<?xml version="1.0" encoding="utf-8"?><!DOCTYPE svg  PUBLIC '-//W3C//DTD SVG 1.1//EN'  'http://www.w3.org/Graphics/SVG/1.1/DTD/svg11.dtd'><svg enable_background="new 0 0 1000 811" height="811px" pretty_print="False" style="stroke-linejoin: round; stroke:#000; fill: none;" version="1.1" viewBox="0 0 1000 811" width="1000px" xmlns="http://www.w3.org/2000/svg" xmlns:xlink="http://www.w3.org/1999/xlink"><defs><style type="text/css"><![CDATA[path { fill-rule: evenodd; }]]></style></defs><metadata><views><view h="811.247119599" padding="0" w="1000"><proj flip="auto" id="robinson" lon0="54.0612101626"/><bbox h="247.03" w="304.89" x="602.85" y="-667.96"/></view></views></metadata><g class="" fill="#000" id="country"><path d="M666.464021,709.213639L670.548663,707.511479L667.124102,704.697874L660.689181,705.793238L653.341005,709.836518L646.058471,707.755794L645.694070,708.673993L647.935511,712.730801L647.206098,715.217040L637.030930,720.823334L628.751400,724.236084L626.313762,723.707116L626.365384,724.716721L627.446711,727.278351L628.851400,727.656960L632.786934,727.801959L638.178670,725.908921L643.909462,722.152445L647.282096,721.787274L651.747656,719.679503L653.923588,719.598952L656.960114,721.312016L662.901569,715.810416L666.464021,709.213639Z M924.627056,809.247120L927.980678,806.412048L929.727083,804.111181L932.267950,803.735306L933.018256,799.128049L932.195482,782.714118L932.938837,776.787767L932.086131,773.549294L932.287081,772.574523L935.183375,769.709272L935.816938,768.484753L936.001228,760.098340L936.185564,750.780057L937.281863,747.444825L938.456282,746.537173L948.233771,742.366828L949.605538,739.576777L955.028015,740.234679L955.422302,739.563350L955.473100,736.359791L957.487708,732.874320L960.531108,730.027982L962.945311,729.015662L971.978936,727.221963L977.056383,724.719406L978.669950,724.458949L993.164305,725.095324L996.083418,724.136734L996.446947,723.266758L995.996443,713.807449L998.397028,712.314643L998.699468,711.517234L996.897409,704.979768L996.783259,700.606473L999.382904,698.029303L999.003702,696.550148L996.434931,693.446956L993.327994,691.465912L991.885363,690.996159L980.347523,692.869818L975.386783,692.263156L972.941638,691.122321L972.340033,690.274088L972.528954,688.373648L972.169059,685.265403L973.197366,680.439561L973.304725,677.554414L969.482589,660.874134L965.846653,649.802289L965.263053,638.816056L964.707550,636.536527L964.227439,636.024319L962.737425,636.029683L955.717716,636.997787L948.528499,629.929247L944.318220,627.135409L933.370365,623.617912L928.702730,622.947692L921.538994,619.899676L914.354088,613.249571L906.995921,606.447925L903.784375,602.096415L899.818865,594.680841L889.611410,580.478685L889.102938,576.816066L887.761909,574.578024L878.513401,565.252948L871.945126,558.638441L861.312741,547.941539L862.239062,546.534877L871.025416,533.173321L879.453311,520.295969L887.846324,507.404404L896.078304,494.684044L896.535055,490.235133L895.153142,481.524503L890.330110,469.889700L884.973301,464.578000L870.043801,462.433463L858.825285,460.820343L846.614083,459.062958L844.949606,458.411270L841.979193,449.361590L841.838763,445.319627L839.646309,437.509597L838.663329,431.493786L838.572512,421.591893L837.844069,417.131488L828.777923,397.920073L823.731995,387.258944L818.515323,376.255018L817.173041,372.745079L816.282658,368.402583L821.581554,358.196065L823.402521,355.980745L826.670958,350.895925L828.803386,348.200785L827.979176,346.343614L823.144749,345.257649L816.140448,345.163562L812.126938,343.625798L808.689272,340.840028L806.762815,336.818657L807.254566,329.648689L802.620183,315.699179L805.135271,308.801051L807.499589,303.960575L818.684187,303.282732L813.671425,297.828180L811.143972,294.660148L809.747433,293.743555L809.001952,292.277858L809.312468,290.811878L812.084398,290.262739L813.685432,288.431081L816.350174,285.865460L817.796664,284.763701L817.471499,281.647014L818.537632,279.444755L820.251137,276.691652L821.431879,273.568720L820.233334,269.896394L820.999979,265.484224L821.191191,262.725537L821.911722,260.332517L820.137388,256.837971L818.626569,253.891048L817.603913,250.390788L819.225751,249.468550L821.226591,248.178873L821.111108,245.413824L821.595436,241.909964L821.927442,239.142928L822.974720,236.928160L822.666485,234.715607L820.993232,231.022387L819.475421,228.805828L818.784675,226.220639L819.183536,223.078358L817.646205,217.165312L814.643282,212.912422L811.843010,211.064022L811.868778,209.769738L812.299226,206.809427L813.108887,204.220103L812.008406,199.105974L809.150023,193.556117L806.772693,185.550435L805.533599,177.737236L802.401848,173.800205L783.693015,173.778332L767.101859,174.076349L765.976383,173.185031L757.413246,163.336671L750.573025,155.864730L744.450468,151.458041L731.434494,146.035136L725.283626,143.772234L719.537462,139.635025L714.596949,135.107921L712.233301,128.899568L710.988574,126.862474L709.491512,125.213330L708.082476,124.481648L706.611551,124.648184L691.316991,117.442503L685.400669,115.551660L680.544769,117.074135L678.313423,117.336084L673.363629,115.289748L668.770776,118.064660L666.591496,118.242035L663.348824,117.578938L660.569037,116.539338L652.255089,109.989989L645.891712,107.342401L641.353255,105.646761L632.795729,103.166502L623.956130,101.872105L619.337703,100.798566L615.865235,99.368275L614.855742,98.442107L614.386666,96.045397L613.473714,92.900687L611.928056,90.611622L609.173691,87.868837L605.726814,85.817798L600.636795,86.176828L592.824622,86.005471L586.426975,83.944041L581.626747,83.576957L576.033165,83.968514L571.371103,83.979391L568.364543,85.477823L566.806475,87.226811L566.717003,92.593083L565.762414,93.396142L563.892255,93.788170L561.233035,93.510482L555.785624,93.556762L546.153028,92.603972L534.227966,92.318155L525.873924,95.029710L519.627402,98.921524L513.795392,103.321841L507.282130,110.276326L505.580620,113.363774L503.381272,125.702048L501.662382,127.476852L499.240221,128.899568L496.540392,129.150809L491.460061,130.977882L484.860994,133.996107L480.193006,135.178948L467.506149,134.558835L470.981677,143.613728L476.420878,156.447035L477.273333,159.312169L477.482926,162.204762L475.726897,163.960046L472.887756,164.274468L466.584335,163.951844L462.162789,162.010644L468.577261,160.438573L472.042765,157.688212L465.338817,157.688212L448.136831,161.135749L396.954419,174.967661L377.576868,175.372303L347.048601,168.200690L337.687548,164.413908L317.741800,153.021653L307.515059,145.436597L299.971513,134.780107L297.843427,132.491029L295.498531,131.002462L288.332257,128.891375L276.486076,126.897970L264.698288,125.994194L260.043902,124.691866L250.125227,120.185128L245.368951,116.441112L241.306596,110.379955L237.649079,104.011358L234.803286,97.036687L232.419072,89.871415L228.474640,76.013631L227.941796,73.623729L226.642994,73.525978L217.811822,75.668674L215.752477,74.981527L206.049528,65.246816L204.222228,64.170306L200.733329,63.733790L198.444293,62.134400L196.333126,59.530197L195.049135,57.593368L185.903416,52.330657L184.340443,50.407106L183.852830,48.716782L184.765684,47.191891L185.907499,45.907970L189.638511,44.600047L194.074679,43.476145L195.409146,42.665792L195.907968,41.269587L195.434914,39.034308L194.256654,36.832413L186.817627,32.827863L185.756606,31.105737L185.137915,28.993705L185.096625,26.788431L185.804393,25.065893L190.789350,22.717325L193.232460,20.289384L190.892723,17.578068L183.833659,11.409632L175.557129,4.637444L170.904144,4.575860L165.944295,6.576515L158.503169,12.353887L154.241961,14.828237L148.849922,18.924104L142.982250,23.489281L138.378035,28.344667L135.690445,32.356169L129.894258,34.108413L127.403797,37.479926L118.992843,47.602811L116.084959,47.475747L108.253500,47.145935L102.049975,49.560526L99.459684,49.076439L90.500661,47.408161L74.263818,43.816532L69.649484,41.966291L64.699761,37.010470L61.858842,34.620731L57.734656,31.555746L54.593843,30.399822L51.992353,28.266573L50.161762,25.108948L47.793898,22.281647L43.983955,18.942914L34.669368,7.645562L33.515070,6.474717L31.938144,6.439892L29.072167,4.757938L22.027943,0.000000L19.248284,2.043733L17.170398,5.580075L16.602313,19.020842L14.440257,20.456043L10.170989,20.415722L4.867215,19.950711L1.394768,20.625396L0.617096,21.480330L1.346905,22.935180L2.801698,25.149313L4.048582,27.954211L4.666290,30.251648L6.924647,32.331912L9.818201,34.307941L10.286996,36.338742L10.395409,39.201649L10.186940,41.385698L9.760698,42.622577L11.516180,45.943105L14.966941,49.882373L16.992259,51.389088L17.622076,58.896255L19.232321,62.223846L20.811748,66.825308L21.791077,74.479110L22.456142,76.361321L23.515400,77.005137L26.094624,77.290390L28.697525,78.002216L29.767773,79.257591L29.908930,80.173445L27.399962,83.691159L27.452972,86.190428L26.966256,89.713585L26.430152,91.787378L24.309284,95.715898L23.205435,99.711525L22.954461,103.011166L23.735007,104.567365L28.930108,105.036180L32.100503,107.410559L40.266181,112.136333L41.878790,114.051197L40.338763,116.967719L40.573607,118.187458L41.780605,119.734807L42.673133,122.442413L42.981862,125.450861L43.666388,129.421171L45.133920,130.073880L50.765612,133.799429L54.949000,137.533912L55.255071,138.686904L53.987997,141.635226L54.916314,145.034845L54.970788,145.813757L55.050866,146.229186L57.186923,150.211570L63.292142,165.023617L65.722121,166.893767L68.407826,168.474106L70.473985,170.675098L71.495004,172.887012L71.830757,176.321018L72.538984,180.323538L74.023150,183.371722L75.784368,185.700781L77.268485,186.862526L79.234863,186.969132L81.656516,187.540422L83.592623,189.847352L91.235660,206.708374L92.068521,208.906824L94.277877,209.608628L97.692919,209.286402L101.513220,211.039448L105.740992,213.769653L110.117879,218.895575L112.660695,219.725147L120.065354,218.966527L130.502289,219.796095L135.751037,222.439981L135.509152,224.065866L132.078829,225.896084L125.866301,228.031425L124.501193,231.663003L124.140518,236.347822L124.748241,238.990390L126.809186,241.890903L132.337286,247.640087L132.919811,249.724284L134.190438,252.621127L135.363251,254.600698L135.003417,258.446867L131.204882,261.087724L126.117810,263.961111L116.960186,276.743147L116.550966,279.498939L117.759498,287.045539L116.983692,289.199512L113.465252,289.161633L110.654277,288.769308L110.912530,291.412369L109.680755,294.930509L109.139491,297.987628L114.310280,305.205389L115.610005,309.027751L115.477612,312.508451L112.576774,318.500540L110.921194,322.540578L111.601313,323.443204L114.788712,325.043459L125.938786,338.209510L129.584575,342.827253L133.296833,341.617217L134.763937,341.697890L136.019204,342.445435L136.952853,343.999507L137.242977,345.975367L136.687374,348.929050L141.825091,350.132863L144.052556,353.125692L151.349082,363.358121L151.570943,366.393099L149.491315,371.221754L149.941297,374.423747L150.937278,377.297899L151.991127,378.297810L160.601050,378.705259L164.402100,379.857844L174.056220,385.088851L185.328482,393.095208L194.564162,399.652075L202.429706,405.232382L209.935627,404.825628L212.144354,405.839821L214.314483,407.581749L217.144428,412.164586L222.973754,422.530392L227.149341,425.971237L234.031714,434.268001L240.484353,442.038722L238.457149,452.601827L236.546784,463.584523L238.507942,477.754004L239.550170,485.361751L246.876737,485.687531L255.020376,486.050695L256.326535,495.138023L257.633807,504.282189L259.102503,514.720559L261.540832,515.155985L265.627596,517.389285L267.700330,520.771532L269.981313,522.615067L272.475484,522.916988L275.123389,524.578940L277.925016,527.603800L279.101327,529.894017L278.666287,531.452107L279.542924,534.202358L281.735070,538.145143L284.024726,539.995121L287.488510,542.264567L289.681286,541.569408L292.809633,538.653071L300.281238,538.260095L301.841799,536.787154L303.699098,533.584931L302.330359,526.986512L300.882528,522.270399L301.558240,518.460565L306.759692,515.548674L304.706408,512.482055L310.657174,512.324456L315.313489,514.354591L316.819157,517.627048L314.446982,519.657441L309.833498,517.939615L307.709901,518.460565L305.693145,519.737591L307.210721,521.952452L308.624734,523.403274L327.415895,533.061064L333.980024,538.618318L352.581774,528.742206L356.781844,529.335476L360.575007,537.570395L363.381159,544.515947L366.591450,547.163319L375.322576,557.782313L383.584986,564.963932L389.462352,571.976115L390.898855,576.374334L390.793803,583.373221L392.621212,586.972362L398.448528,588.571222L402.588227,591.573655L403.002260,594.771918L402.010132,598.972457L403.538914,602.136605L411.366119,606.970464L413.666611,610.041543L416.642133,621.789579L418.789744,626.014710L427.180338,637.893503L427.905591,642.699567L440.622476,654.859043L444.233540,657.375533L447.983281,658.432602L456.197742,658.252845L465.207601,659.562132L473.480933,665.448940L487.474292,670.987485L494.241045,677.755700L496.579674,683.327512L499.538659,687.098661L514.387098,697.073621L532.155606,704.630757L537.876270,707.997424L540.918878,713.028825L551.068509,719.966802L556.675172,720.949532L568.120304,719.593582L576.708696,721.559042L590.335721,727.468998L596.630909,731.880783L602.035764,732.092916L608.125376,729.254644L619.195119,719.977542L625.356362,716.648127L631.564809,717.493898L635.613549,714.228982L638.361364,708.609557L640.812859,706.112722L654.069281,702.810547L661.657265,697.009193L669.139260,694.397229L672.443298,693.868403L690.419585,697.857494L694.664083,699.929959L699.910394,705.175752L703.899307,710.075468L707.148468,715.837265L709.660615,722.469285L713.254021,739.442511L719.225204,751.134527L720.215365,757.823819L723.588141,764.333182L727.872983,771.333901L747.054573,774.999361L750.509423,778.952097L756.887944,776.828046L761.254537,779.623412L770.081557,782.330132L775.399292,782.920880L785.538365,782.284483L798.370393,784.365520L810.956033,791.916123L819.434112,791.341516L829.880680,788.385211L837.929176,792.686738L847.489398,792.818305L851.454078,794.966336L857.331391,793.739277L875.514700,797.729191L879.904571,790.828664L883.688251,792.122874L885.537333,796.725011L888.145259,799.342843L909.768156,804.750166L916.381113,807.053704L924.627056,809.247120Z "/></g></svg>