<?xml version="1.0" encoding="utf-8"?><!DOCTYPE svg  PUBLIC '-//W3C//DTD SVG 1.1//EN'  'http://www.w3.org/Graphics/SVG/1.1/DTD/svg11.dtd'><svg enable_background="new 0 0 1000 812" height="812px" pretty_print="False" style="stroke-linejoin: round; stroke:#000; fill: none;" version="1.1" viewBox="0 0 1000 812" width="1000px" xmlns="http://www.w3.org/2000/svg" xmlns:xlink="http://www.w3.org/1999/xlink"><defs><style type="text/css"><![CDATA[path { fill-rule: evenodd; }]]></style></defs><metadata><views><view h="812.883576704" padding="0" w="1000"><proj flip="auto" id="robinson" lon0="54.0794248214"/><bbox h="247.8" w="305.22" x="602.74" y="-668.01"/></view></views></metadata><g class="" fill="#000" id="country"><path d="M619.636839,766.652902L619.355554,766.022521L619.238461,765.490498L618.960935,765.099303L618.174480,765.327314L617.540347,765.718508L617.768965,766.255002L617.963545,766.590311L617.974493,766.927855L618.172831,766.749024L618.675351,767.200572L618.920662,767.030683L619.303553,766.994917L619.636839,766.652902Z M595.833239,764.717050L595.647389,763.735710L595.356122,763.252863L594.276859,763.603821L593.702868,763.952544L593.954598,764.562808L594.746083,764.929413L595.403632,765.090362L595.833239,764.717050Z M592.388874,745.374073L593.134179,743.259400L592.918412,742.879385L592.658801,742.584316L592.365301,742.360778L592.025923,742.204302L591.497522,741.667813L591.034465,741.567221L590.660902,741.779581L590.418821,742.204302L590.300268,742.839149L590.300524,742.841384L590.378287,743.353286L590.552198,743.903189L590.695995,744.625218L590.985355,744.947114L591.570910,745.248891L592.142423,745.427723L592.388874,745.374073Z M568.375036,732.084935L568.436570,731.756347L568.505732,731.427760L568.416520,731.085762L568.338040,730.770587L568.206825,730.661059L567.986254,730.473295L567.631312,730.281062L567.623146,730.276591L567.536882,729.894360L567.522253,729.834008L567.521995,729.831772L567.483700,729.335543L567.482924,729.328838L567.427403,729.212604L567.312015,728.975666L567.311756,728.973431L566.610178,728.694024L564.845174,728.510733L564.020476,728.224621L563.104152,728.170975L562.294414,728.443676L561.665297,728.989078L561.283703,729.758009L562.423848,731.387525L564.030518,732.154229L564.392614,732.176582L567.885329,732.382229L568.375036,732.084935Z M654.072377,724.947774L654.603024,723.767588L654.354720,722.471181L653.921279,721.890036L653.474151,721.986148L652.787922,722.603056L652.331919,723.830173L652.377496,725.097533L653.187527,725.537870L654.072377,724.947774Z M548.992594,722.471181L548.522477,721.648638L547.936498,721.375949L547.440028,721.248545L546.507336,721.282072L546.202202,721.881096L546.746863,722.556117L547.619587,722.994213L548.459106,723.112677L548.992594,722.471181Z M535.115932,715.095288L534.687211,714.728738L534.003378,714.140921L532.858017,713.691678L529.306681,713.419004L525.195240,712.142809L524.747727,712.171864L524.390178,712.317140L524.063544,712.399835L523.907714,712.636746L524.391457,713.148566L526.012196,714.433712L526.688298,714.858372L526.795453,714.925423L527.663531,715.291973L530.395400,715.779218L531.300913,715.776982L532.090066,715.267387L532.635467,715.126578L534.458064,715.287503L535.115932,715.095288Z M675.624708,713.141861L676.874845,711.847789L676.428426,710.155905L674.685354,710.334703L673.564331,710.909092L673.015871,711.912604L672.982510,713.376539L673.907443,713.749789L675.624708,713.141861Z M665.407559,709.400488L666.326237,708.426052L669.125198,707.643828L669.825871,707.194610L670.526480,706.745395L670.024547,705.719580L669.722531,705.502797L668.898988,704.901618L667.630820,704.349609L666.677491,704.117185L664.840827,704.152942L658.819403,705.619011L654.281279,708.962438L652.558582,709.400488L645.679604,706.805737L644.576471,707.527612L644.951217,707.965657L645.812657,708.602612L646.713477,709.404958L647.195390,710.343643L647.713505,712.797668L647.671436,713.830250L647.057621,714.688507L647.310001,715.066232L647.496306,715.435017L647.061915,715.602647L646.628739,716.031781L646.303517,716.186001L645.839127,716.232938L644.854495,716.150240L644.377280,716.186001L641.455647,717.433180L640.615510,718.228878L638.612843,719.623594L638.605468,719.625829L638.445634,719.695118L637.882242,719.936513L636.982114,720.048270L630.962126,722.187314L628.655321,723.644652L628.651765,723.646887L628.509055,723.604419L628.208077,723.517246L627.725135,723.763117L625.409994,722.945039L624.966009,723.517246L625.650786,725.220470L625.929556,725.506577L625.915555,726.127968L625.713221,727.095823L626.099841,728.452617L626.415467,729.082959L626.598030,729.203663L626.814099,729.348955L626.817923,729.348955L627.241850,729.279662L627.793492,729.094135L628.271208,728.801316L628.440804,728.425794L628.587751,727.956391L629.065747,727.956391L629.619318,728.141917L629.882164,728.197798L630.023014,728.224621L630.026838,728.224621L630.438237,728.050272L631.241263,727.471343L633.231788,726.879005L636.092968,726.534780L636.863907,726.074323L638.311302,724.844954L640.797786,723.675945L643.099923,721.773808L644.042243,721.282072L644.967423,721.060792L647.144016,721.389360L648.150497,721.398300L648.958899,720.875274L649.736377,720.097443L652.669164,718.403216L653.989882,719.395611L655.146361,720.484123L656.286437,720.964680L657.564476,720.124265L659.592889,717.788561L659.961242,717.518114L660.305301,717.017453L661.974649,716.072012L662.320982,715.622763L662.536951,714.889662L664.223427,712.813313L664.645071,711.861198L665.407559,709.400488Z M679.022524,701.737104L679.301069,701.582904L679.615272,701.408591L679.993707,700.894592L680.081684,700.197346L679.837888,699.504575L679.801463,699.397307L679.307357,699.021872L678.737490,698.802869L678.197679,698.458723L677.395362,698.637500L676.681887,699.886716L676.748724,701.270034L678.305762,701.868957L679.022524,701.737104Z M375.827341,583.087565L376.027666,582.260584L375.768833,581.310554L375.857546,580.363312L375.314143,580.061162L374.422993,579.672327L373.890448,579.456349L373.387899,579.800289L373.807608,580.446744L374.240370,581.523925L374.857649,582.730607L375.375350,583.161939L375.827341,583.087565Z M924.226076,810.883577L925.145082,809.328955L924.403004,808.826120L926.878609,808.014875L927.512801,807.632715L927.840770,807.257259L927.868937,807.040477L927.834680,806.749944L927.984823,806.168875L928.602930,805.165407L928.793487,804.635733L928.349361,804.157460L927.856676,803.884798L926.699602,803.509329L927.621506,802.677928L928.401349,802.686868L929.203519,803.013171L930.226822,803.133858L929.932394,802.883544L929.395343,802.302455L929.103668,802.043199L929.209325,801.705718L929.173325,800.822899L929.270318,800.510000L929.692549,800.190395L929.939386,800.362490L930.125371,800.699975L931.020560,801.323537L931.229859,802.244346L931.624441,803.046695L931.626778,803.044683L932.578103,798.466189L932.304764,793.836521L931.974521,788.369287L931.683556,783.665502L931.484971,780.457663L931.548554,779.668471L931.761000,779.140449L932.362954,778.416545L932.606976,777.987879L932.508917,776.091522L931.718710,773.916940L931.233922,771.895643L932.046472,770.450636L933.012381,770.197972L933.925074,770.220683L934.717658,770.021958L935.318205,769.104985L935.459684,768.136909L935.473823,764.301490L935.489182,759.730755L935.501787,756.312630L935.498517,753.357257L935.502250,750.015789L935.681390,748.312412L936.175724,746.833316L937.192204,745.899301L942.644428,744.207291L944.179816,743.029134L944.995320,742.574905L945.919191,742.262623L947.820557,741.919114L948.174297,741.354169L948.167374,740.002847L948.789124,738.668564L950.590191,738.915547L952.781742,739.693406L954.579521,739.951746L955.525264,739.383966L955.381207,738.603269L954.788887,737.592625L954.365057,736.332163L954.610244,735.650835L955.885635,734.129209L956.244501,733.172519L956.155552,732.831859L955.934723,732.522427L955.745949,732.161896L955.769215,731.679297L956.010361,731.264831L956.382459,730.995144L957.249392,730.611905L957.602444,730.381962L958.147460,729.916400L958.511759,729.734717L958.947288,729.686458L959.944526,729.734717L960.412385,729.601294L960.649464,729.340126L960.937467,728.624754L961.266289,728.323844L961.694842,728.187583L969.440022,727.313245L970.354217,726.961240L970.701965,726.640462L971.018403,726.231683L971.386260,725.970520L971.905826,726.078392L972.466627,726.348071L972.871463,726.379298L974.276723,726.032972L974.660748,725.874003L974.983554,725.675292L975.265071,725.422645L975.623643,724.483030L975.915351,723.983418L976.404044,723.827290L979.615379,723.912451L983.308594,724.006128L987.572257,724.116837L989.442947,724.412063L991.305141,724.465998L992.630788,724.145224L993.085727,724.187805L993.517833,724.383676L993.892112,724.636321L994.285757,724.835030L994.762283,724.857740L995.668653,723.776194L995.864298,721.581897L995.141398,713.605496L995.363794,712.739759L996.079284,712.316827L997.942020,711.996081L998.552730,711.326208L998.563570,710.321405L998.047350,709.435823L997.335748,708.541733L996.770409,707.514248L995.664236,701.312652L995.641115,700.665551L995.762457,700.114951L996.156826,699.368524L996.253357,698.815094L996.642795,697.932450L997.505244,697.515255L998.529719,697.506741L999.384148,697.838794L997.262143,694.140870L996.444180,693.110702L995.863641,692.540283L995.396598,692.256494L994.175246,691.816623L993.593056,691.473242L992.212455,690.306891L991.597138,690.088380L991.120029,690.074191L988.676712,690.925537L988.075959,690.945402L987.280896,690.860267L986.044236,690.925537L983.698675,691.717298L982.509943,691.915949L979.857916,692.480687L978.593631,692.557310L977.064684,692.219602L975.873786,691.581081L975.477155,691.450539L975.156316,691.512972L974.566900,691.904597L974.197613,691.915949L973.435219,691.512972L971.139644,689.628656L971.876933,689.580414L972.287992,689.214340L972.484616,688.601382L972.591125,687.815328L972.551697,686.924287L972.234241,686.328373L971.147634,685.164937L972.784638,679.384920L972.741771,677.100852L972.076898,674.240911L970.891801,669.178165L970.255069,666.422130L969.215722,661.986930L968.449882,658.723515L966.447558,653.448007L965.017202,649.653377L964.833132,643.411875L964.669820,637.773684L964.152054,635.855697L963.013699,635.203629L955.601161,636.811136L954.562366,636.191657L951.107283,632.878943L950.246026,631.693969L949.796699,630.740060L949.388447,630.184450L948.851384,629.862710L948.033596,629.601918L947.207134,629.156875L946.627344,628.490736L946.114256,627.755161L945.470202,627.096131L944.065994,626.396012L937.693492,625.103516L933.529588,623.303728L931.985654,622.969288L928.837564,622.697204L927.352026,622.238065L924.919432,620.906027L921.998986,620.096907L921.060170,619.610876L919.312773,617.846763L915.912742,615.005934L913.573041,612.407578L908.059899,607.891356L906.438656,606.174548L904.635310,603.157588L903.048547,601.606719L902.680075,600.786698L902.426178,599.866146L901.990665,598.802586L899.289178,594.130970L898.790618,593.564587L898.203003,593.138390L897.555746,592.855206L897.149011,592.567777L896.992825,592.247785L897.070535,591.912221L897.352743,591.558255L897.708138,591.086778L897.789157,590.588408L897.579920,590.115530L897.067899,589.741763L896.212188,589.390652L895.730566,588.596420L895.337958,587.663472L894.738049,586.884856L894.188498,586.610222L893.750422,586.553596L893.301126,586.395046L892.713749,585.818892L892.374311,585.194619L892.033289,583.827209L891.791655,583.212885L891.044888,582.270191L889.294333,580.590117L888.673978,579.473422L888.503846,578.400642L888.753206,576.481623L888.669662,575.411782L888.019742,574.025010L887.104406,573.422209L886.057983,573.024594L885.025117,572.259094L880.439862,567.568912L876.075354,563.095934L871.872720,558.801886L868.226419,555.069908L865.279379,552.094889L860.780144,547.542533L862.944567,544.330930L865.785525,540.105027L865.797624,540.090895L871.540742,531.347815L874.599270,526.677637L876.688598,523.474182L880.681623,517.353416L883.675780,512.750057L883.675297,512.747233L887.873989,506.227058L892.495830,499.035663L895.508708,494.343401L896.150067,493.487975L895.983934,493.197189L895.911181,493.137902L895.805308,492.152620L895.852933,491.768673L896.103283,491.610577L895.268556,487.878432L894.954593,487.240417L895.527678,485.464711L895.655056,484.315729L895.460165,483.242971L895.042109,482.156099L894.159729,480.371934L893.041101,478.635758L892.825086,478.068324L892.463182,476.467645L891.851220,475.239604L890.239316,473.161798L889.589607,472.046660L889.375851,470.959745L889.275989,468.613669L888.773623,467.602949L886.734191,465.474191L885.693456,464.745771L884.415501,464.268624L881.804548,463.895387L876.318036,463.111037L866.996713,461.769906L858.932364,460.609203L858.855650,460.598161L850.892370,459.451806L846.093076,458.760030L844.435664,458.107777L842.974167,452.988310L841.806575,450.347892L841.466555,449.068575L841.326874,445.029852L839.770933,439.970949L839.190123,437.323974L838.919295,433.945012L838.621699,432.758328L838.333432,432.173444L838.006121,431.636584L837.807897,431.074282L837.984405,429.870521L837.655804,429.562508L837.227549,429.336441L837.008412,429.000163L837.213049,428.160862L838.134507,426.595225L838.244012,425.682362L838.064288,421.329546L837.337419,416.874124L834.682454,411.017902L831.237663,403.427094L828.178992,397.089770L825.399699,391.321958L822.762810,385.846570L820.197410,380.537723L818.026435,376.041750L816.689004,372.535171L815.796055,368.198107L815.930289,367.430919L817.580043,364.417005L819.433590,361.039103L821.088491,358.000855L822.379039,355.621914L823.477493,354.443612L824.802279,353.503720L825.161060,352.877555L825.205064,351.779904L824.936216,350.834102L824.597018,349.918045L824.576815,349.128326L825.283861,348.585716L827.436018,348.439405L828.067308,348.192235L828.303698,347.584798L828.336530,347.500412L827.774563,346.711934L826.864515,346.014330L826.070994,345.598019L824.451558,345.208689L822.649767,345.077961L819.308136,345.259842L815.654137,344.982757L811.647182,343.447995L808.210539,340.664940L806.285949,336.648188L806.305468,334.846159L807.101421,331.650889L806.778246,329.486429L803.814685,321.065669L802.373805,316.285984L802.151631,315.549564L801.939887,313.080354L802.715532,310.480632L803.790153,308.607704L805.065700,306.939826L807.015009,305.782528L807.575188,305.001865L807.024207,303.825733L810.225143,303.633026L814.823734,303.348952L818.197945,303.147667L817.470406,302.112612L813.189354,297.699623L812.177736,296.262366L811.604491,295.620800L810.950398,295.119227L809.725820,294.604759L809.241627,294.218886L808.584863,292.899623L808.215367,292.519381L807.778552,292.299232L807.277150,292.229184L807.716031,291.065424L808.738817,290.479187L811.178668,290.141722L812.254563,289.821403L813.026349,289.212187L814.626643,286.843491L814.769695,286.402853L814.993332,286.033727L815.537280,285.681753L816.155013,285.578733L816.760748,285.627381L817.269225,285.498605L817.619330,284.866137L817.531684,283.518024L817.091275,282.086633L816.883557,280.778094L817.515730,279.813001L818.733873,278.684507L819.299751,277.091707L819.373748,276.174825L820.682076,275.704877L820.674550,273.876363L820.474299,271.915478L820.343219,271.433772L819.929959,270.401431L819.767107,269.833578L819.771610,269.136602L820.205997,268.092438L820.239497,267.561689L820.169429,266.477110L820.409814,264.394030L820.214277,262.097350L820.382067,261.301947L821.169272,259.751083L820.584212,259.245543L820.419831,258.788803L820.441302,258.294686L820.401420,257.662628L820.225677,257.427029L818.153680,255.240193L817.803926,254.685480L818.026309,254.435415L818.434476,254.193965L818.343581,253.659297L818.012010,253.124593L817.707623,252.883101L817.563574,252.342593L817.357291,251.155068L817.382559,249.970240L817.927000,249.429532L818.893987,249.406523L819.945723,249.222443L820.719959,248.721956L820.879734,247.735273L820.076119,244.869489L820.052284,243.726934L820.189015,243.110986L820.879955,241.824263L821.011834,241.254245L821.045803,239.506545L821.328055,238.435302L822.127787,237.133520L822.517352,236.082172L822.559378,234.924118L822.211993,233.797621L821.256384,231.515433L820.813870,230.996684L819.349005,229.278865L818.464693,228.019149L818.036035,226.528637L818.145174,226.194181L818.639715,225.585793L818.694955,225.196524L818.455308,224.207431L818.423159,223.895980L818.447597,222.572220L818.322895,222.021332L817.945301,221.611755L817.974972,220.359867L817.756907,219.454045L817.416167,218.614517L816.789577,216.615015L816.295323,215.628139L815.693663,214.690254L815.060652,213.916813L814.143996,213.024996L813.195461,212.294763L812.170312,211.804073L811.018485,211.627998L810.334033,211.348005L810.721862,210.686972L811.488696,209.927760L811.919681,209.338840L811.837844,208.816301L811.441304,207.693217L811.430529,207.017599L811.661335,206.751964L812.053893,206.584496L812.380353,206.304417L812.426927,205.700933L812.337802,205.189832L812.301825,204.641177L812.337290,204.141597L812.481750,203.757519L812.829321,203.133735L812.845925,202.790067L812.710213,202.504154L812.236192,200.820361L810.817971,197.345485L809.923662,196.253517L809.657977,195.710403L809.363554,194.413237L809.159615,193.829635L808.851681,193.243130L808.593727,192.913758L808.239982,192.575714L807.816840,192.286784L807.340071,192.098977L807.379796,191.711804L807.417036,191.555777L807.515269,191.333293L806.526241,189.732516L806.204340,186.990204L806.217989,182.487636L805.766232,181.649494L805.546821,180.976081L805.616877,180.383586L805.807293,179.958720L805.935933,179.421130L805.980201,178.796826L805.898131,178.108929L805.672131,177.406573L805.392016,176.889195L804.831487,176.027856L804.051583,174.125944L802.154779,173.877364L799.814214,173.484258L795.179012,173.565192L789.819872,173.660578L780.177017,173.836897L773.855148,173.949625L766.669142,174.079697L764.992039,173.250129L763.712902,171.622777L761.665135,168.191721L760.382954,166.662632L754.341745,160.864346L751.570523,157.697986L749.103628,154.118512L747.378465,152.341160L745.517874,151.612901L741.659709,150.956902L739.790800,149.991709L736.285993,147.509497L729.317258,145.414651L728.828428,145.382869L728.450242,145.605348L728.098079,146.430272L727.851878,146.766893L727.440457,146.856467L726.730940,146.384041L726.219161,145.457991L725.777400,144.400512L725.267841,143.529423L724.337335,142.724811L723.643492,142.609249L722.327202,143.169728L721.948245,143.148060L721.524044,142.958825L721.097216,142.669919L720.738096,142.369461L719.952733,142.175898L719.736020,141.775777L719.772951,141.314996L719.748583,140.939445L719.781248,140.786337L719.904401,140.597120L719.902290,140.325575L719.554777,139.948595L718.502605,139.012672L715.170331,136.693257L714.476843,135.924990L712.759579,132.072558L712.400000,130.903127L712.415365,130.280906L712.577106,129.730887L712.656213,129.231411L712.429934,128.768037L712.026938,128.157443L711.899033,126.917560L711.529162,126.180028L710.397947,124.990814L709.307458,124.140815L708.207193,123.870961L705.917685,125.013905L704.931210,124.924429L697.977436,120.656196L696.176866,119.155843L695.617838,118.881759L694.263462,118.687018L693.619539,118.495165L692.887050,118.045115L690.929115,117.240257L687.251607,116.449872L684.223045,114.967315L684.059228,115.353801L684.126786,116.184499L683.683716,116.921501L683.241723,117.080157L682.787261,117.116215L681.786199,116.934482L681.272910,116.935924L681.006122,117.192659L680.793148,117.525846L680.451293,117.759514L679.456358,117.866253L678.401443,117.716242L676.280098,116.928712L673.586073,114.955778L672.767682,114.580841L671.899684,114.647175L671.306582,115.144693L670.934170,115.930668L670.719272,116.863808L670.310871,117.788362L669.605655,118.157626L665.600406,118.555750L664.934782,118.391306L663.564883,117.554693L662.938384,117.289297L659.307003,116.771501L658.475202,116.484487L657.570278,115.855674L657.215011,115.221125L657.044782,114.448174L656.709874,113.430146L656.462116,113.014884L655.467724,111.708637L655.337841,111.277580L655.350081,110.878253L655.262411,110.491914L654.835922,110.114238L653.996606,109.748106L653.233346,109.583782L651.684582,109.455497L648.560590,108.770851L640.769253,105.444816L639.118149,105.032737L638.397562,105.087488L637.674320,105.260387L636.944690,105.316580L636.209324,105.041382L635.869309,104.695595L635.278087,103.852787L634.895095,103.545935L634.502505,103.455178L633.801752,103.623728L633.636416,103.608466L633.411581,103.587713L632.756330,103.229010L632.088823,102.747879L631.404072,102.382004L630.720725,102.370480L630.080954,102.540452L627.889611,102.586546L625.451705,101.938363L624.675275,101.840419L623.936072,101.959968L623.276887,102.170264L622.584322,102.268211L615.554639,99.747824L614.095585,98.266148L614.355599,95.323662L614.268539,94.396778L613.835595,93.422503L612.583070,92.082875L611.703096,90.418347L609.891428,88.863457L609.197686,88.086842L607.966959,86.160011L606.557737,84.443515L606.261191,83.954800L606.153064,83.540854L605.949323,83.180106L605.383042,82.865365L604.350254,82.546325L603.843681,82.485968L603.363215,82.546325L602.661169,82.917102L602.358447,83.331250L602.251453,83.477614L601.674962,85.014201L601.260548,85.576303L600.005874,86.519459L599.494609,87.065851L598.774685,87.508744L597.826839,87.367821L595.883927,86.648864L588.837717,85.412412L588.091404,85.189584L586.364792,84.325645L584.300414,82.928600L583.850142,82.848119L581.771125,83.205976L578.488083,84.749696L577.788966,84.877635L577.124949,84.603073L576.463195,84.164656L575.754739,83.790943L574.947146,83.606968L570.844632,83.736325L569.335458,84.345769L568.037650,85.380784L565.741234,87.945909L565.617980,88.705252L567.133691,90.077425L567.552526,91.044124L567.612470,92.077120L567.345838,92.954832L566.745920,93.468552L563.016330,94.103189L562.263456,94.002450L560.742264,93.437516L560.504221,93.349113L558.634326,93.121752L552.425144,94.267252L551.723506,94.232712L551.052746,94.034110L549.694446,93.400918L548.886622,93.170677L546.584433,93.147654L545.876941,92.928931L543.907154,91.933241L540.990326,91.331854L539.647856,91.328977L531.115130,93.156287L528.274363,93.277163L527.269201,93.710313L524.442255,96.239128L523.606457,96.705533L522.827642,97.448375L522.329130,97.517480L520.412889,98.194158L519.544244,98.729776L519.315410,99.611022L518.804425,99.824146L516.297478,100.308013L515.484687,100.596040L515.184569,101.019457L514.898813,102.036308L514.660037,102.464108L514.212201,102.645605L513.598887,102.747879L513.113381,103.041740L513.030530,103.799483L512.795034,104.381514L511.156762,106.685472L505.305694,111.257397L504.244155,112.700564L503.843622,113.629130L503.774340,114.511623L503.797524,115.622041L503.404290,117.355645L503.687420,118.531227L503.907373,118.835598L504.534256,119.305871L504.813656,119.673734L504.948236,120.064691L505.161832,121.407877L505.181157,122.202885L504.845558,123.605441L504.876394,124.459739L504.746407,124.860930L503.790355,125.804781L501.917991,127.193242L501.457262,127.718638L500.634823,128.070835L499.756895,129.248733L499.141751,129.563431L498.144413,129.577867L495.274035,128.986008L494.281442,129.141911L487.492683,133.507742L485.983211,134.033330L484.983214,134.036218L483.913861,133.900488L482.936421,133.946694L482.207938,134.498286L481.526978,135.292491L480.776129,135.636175L479.887658,135.683829L467.335434,134.621411L468.686235,139.358372L469.046978,140.152193L471.126485,143.800923L473.051697,148.524083L474.171570,150.578745L475.567707,152.233026L474.902422,154.135420L474.930380,154.950107L475.854949,155.289184L476.596551,155.673778L477.027773,156.629587L478.116593,162.410266L477.985533,163.343405L477.532236,163.789494L472.150545,165.328056L471.324254,165.059489L470.540090,164.663468L463.373040,164.042127L461.365030,163.225056L459.994398,161.782108L460.343621,161.736590L461.189886,161.433892L459.716446,161.504446L459.038711,161.297337L458.564872,160.669188L460.889135,160.669188L463.611904,161.017400L464.281827,160.874019L465.444458,160.393805L466.106517,160.286838L467.392076,160.662360L468.060546,160.762499L468.574713,160.480288L470.526015,159.843041L473.674283,159.447041L476.071245,158.559461L475.765637,156.433873L473.911235,158.279534L470.802145,159.051042L453.153876,160.054698L451.188422,160.389253L436.772961,163.725767L429.711462,166.015406L422.373430,168.305066L414.923378,169.870960L407.123847,171.395882L399.673995,173.307711L392.707118,176.016089L384.509825,177.124454L376.004573,174.800741L367.342260,173.307711L358.833051,170.979374L345.716451,168.493975L341.601312,166.780142L334.249609,162.198604L326.404390,158.345533L325.625867,157.772028L324.028166,156.338291L323.346145,156.053824L322.366686,155.837630L316.749848,152.483336L315.823484,152.233026L315.064612,151.827982L312.342417,149.145247L308.629143,146.708444L306.777981,145.213695L305.018263,143.002434L303.405833,139.979324L302.568256,138.976257L302.009223,138.168832L301.053156,136.149267L300.514088,135.371515L300.327388,133.354507L298.651848,132.017535L296.383814,131.205850L290.259875,129.873587L286.225299,128.430042L286.496720,127.979955L286.765010,128.018598L287.290269,128.154987L287.708396,128.086793L285.943308,127.263933L284.534155,127.527607L283.105523,128.150441L281.290592,128.430042L263.491245,126.122911L259.904159,125.000155L251.942302,121.273401L248.220816,118.946957L244.621608,115.848701L241.723991,112.483295L240.403867,110.385513L239.533605,108.197337L239.530580,107.795613L239.580037,107.298587L239.460339,106.719886L237.405113,104.180792L236.903997,103.323224L236.490226,102.118670L236.303383,100.850759L236.465185,99.784845L233.412758,93.287700L231.530372,86.478430L230.300503,84.422734L229.669617,81.485039L229.134895,80.299423L229.342419,78.670645L228.302495,73.786841L225.286817,73.199782L223.845099,73.189736L222.936910,73.722217L222.209873,74.592074L221.198319,75.284019L220.072883,75.789384L219.043982,76.088026L216.934596,75.921226L216.701684,75.902809L215.013179,74.547574L213.415791,72.553970L212.697847,71.837779L211.327077,70.470574L210.486989,69.552481L209.580101,68.750689L208.632683,67.630643L207.793647,66.993982L207.072525,66.241255L206.485345,64.771906L205.745673,63.570880L204.688170,63.570880L202.599226,64.598473L201.210360,64.566941L200.258667,63.823105L199.364362,62.812836L196.870981,61.126563L196.612995,60.189789L196.597180,59.107098L196.236140,58.299528L196.031250,57.841346L195.378688,57.381792L188.898950,54.546539L185.557876,52.297669L184.371314,50.718856L183.838589,48.442970L184.138521,47.814127L186.229005,46.413789L186.291815,46.056620L186.204077,45.639477L186.290040,45.282361L194.314739,43.872707L195.955677,42.773245L195.955407,42.771817L195.958423,42.763251L195.957882,42.760395L195.964842,42.760395L196.259842,42.175066L196.472911,41.464196L196.475358,41.437597L196.544033,40.690633L196.421018,39.921470L196.049408,39.223761L194.166434,36.448176L193.370978,35.815120L190.612610,34.797272L187.605812,32.427418L186.229117,30.947402L185.344188,29.470707L185.065252,27.578900L185.589622,26.013671L186.659821,24.832999L188.026495,24.087773L190.729945,23.550266L192.794535,22.034793L193.888809,21.680974L194.333052,21.537334L192.950944,19.545231L191.372596,17.903373L187.779908,15.211893L178.585447,6.649658L175.368986,4.228967L174.393924,3.665774L173.751588,3.517816L173.730513,3.512962L173.356220,4.245949L172.968956,4.653539L172.444140,4.783751L169.028497,4.721475L168.017952,4.993231L167.264154,5.562282L166.698666,6.235179L165.138379,8.091468L160.309636,10.963879L159.587398,11.393477L157.657840,13.676719L157.151307,14.051237L156.167696,14.159059L153.229074,15.174996L151.542316,16.157119L150.302323,17.324046L148.594545,20.050984L148.590352,20.056000L147.383181,21.500382L146.175119,22.228119L145.707898,22.509565L141.555818,24.167410L139.646646,25.419028L139.299969,25.891322L139.250289,26.440498L138.092434,28.914044L137.727945,31.004371L137.572525,31.413150L137.203510,31.944473L136.927612,32.110104L134.512013,33.560182L133.985272,33.657086L133.280691,33.483231L131.929600,32.948883L131.228370,32.967406L130.544075,33.296295L130.534631,33.300834L129.954150,33.845198L129.469736,34.520752L128.672165,36.436769L128.479579,36.774717L128.173604,37.051367L127.502937,37.437849L127.206164,37.714537L126.811661,38.530430L126.366332,40.205433L125.753615,40.884726L123.384548,42.157936L122.686716,42.818932L122.224293,43.562834L121.418840,46.076621L121.047921,46.868144L120.546666,47.531172L119.950729,48.082805L119.306048,48.520152L118.402011,48.897499L117.600199,48.943239L116.753240,48.727403L111.710042,46.720974L111.073767,46.590954L110.606569,46.650963L109.579741,46.991026L107.848934,47.058184L107.278061,47.186787L106.481369,47.594049L104.439963,49.220552L103.721309,49.586512L100.797196,49.965363L100.366402,50.022551L97.643308,49.389233L94.440003,48.097097L84.631906,46.182341L83.528835,45.793379L81.074913,44.928126L77.067325,44.888133L74.402834,44.286851L73.151754,44.245435L72.798495,44.172408L72.578366,44.126901L71.562385,43.608529L70.823217,43.428311L70.262212,43.291533L69.155266,42.808938L68.092212,42.195052L67.469911,41.606933L67.282688,41.013174L67.331267,40.545068L67.431853,40.082713L67.429751,39.513391L67.147929,39.143866L65.993471,38.680216L65.515199,38.379223L65.204691,37.914219L64.639671,36.727660L64.375960,36.291330L63.876763,35.860743L63.417236,35.625505L62.977360,35.344659L62.578047,34.785869L62.819114,33.972035L62.457879,33.380632L61.795300,33.021551L61.147934,32.901863L60.670916,32.698117L60.595446,32.226541L60.618107,31.708006L60.430692,31.361873L60.000420,31.314869L59.619917,31.467277L59.345961,31.670970L59.248506,31.773532L54.311145,30.297996L53.198541,30.645474L52.759108,29.811002L51.797748,27.066583L51.380233,26.471800L50.902675,25.942538L50.528771,25.366900L49.392692,23.618517L48.935929,23.089597L48.481337,22.867811L47.935800,22.347512L47.466705,21.776107L47.247627,21.383843L46.951321,21.102459L45.145062,20.050984L44.952685,19.857768L44.810229,19.607736L44.611425,19.391812L44.245386,19.300900L43.761766,19.315105L43.519713,19.269650L42.236080,18.482779L41.998503,18.090819L42.250407,17.423435L41.170506,16.636910L40.419025,15.529782L38.118157,10.253761L37.365561,9.069029L36.305587,8.431462L36.451906,8.269961L36.540558,8.020640L35.503868,7.992309L34.514330,7.816662L34.323079,7.721092L33.618621,7.369080L33.470453,7.207920L29.379659,4.718644L28.383199,4.022359L25.493424,2.845190L24.759933,2.183194L23.238047,0.458025L22.465537,0.000000L21.417145,0.308171L17.337036,3.999717L17.250723,4.619572L17.806365,6.408937L17.837312,7.064403L17.847133,7.272772L17.708755,7.978144L16.735962,10.803733L16.665105,11.540927L16.739406,12.442757L16.966503,13.217131L17.246095,13.923557L17.335962,14.579025L17.005851,15.228922L16.998908,15.228922L16.999417,15.231760L16.996879,16.458047L17.339693,17.494428L17.498830,18.488460L16.939319,19.582166L16.184900,20.181693L14.043846,21.187725L13.097304,21.412267L11.941867,21.321312L8.586237,19.857768L7.494083,19.744115L5.171299,20.355032L4.157747,20.463017L3.141496,20.346507L2.445260,20.363557L1.814996,20.596582L0.998609,21.139407L0.615852,21.804534L1.006465,22.469762L2.416585,23.794838L2.428615,23.816654L2.716117,24.338064L3.186015,25.507224L3.905873,26.597011L3.968640,27.006817L3.921440,27.371120L4.026455,27.863546L4.261830,28.333250L4.995602,29.425146L5.118052,29.912099L4.982632,30.911796L5.116886,31.387511L6.424571,32.237938L8.598132,33.240986L10.533155,34.416705L11.136675,35.773775L10.538161,37.446406L10.463488,38.322165L11.257449,40.499401L10.940062,41.155898L10.314577,41.735400L9.857141,42.763251L9.858873,42.773245L10.171337,43.157316L10.375340,43.531420L10.710865,44.383965L11.050801,44.779583L11.511583,45.082387L11.909923,45.426633L12.029116,45.928045L12.085421,46.388072L12.307265,46.812419L12.574528,47.231084L13.219858,48.468697L13.976644,49.303462L14.822145,49.979660L17.393636,51.079198L17.889478,52.703886L17.358948,56.713284L17.367567,57.821303L17.570785,58.520007L17.906979,59.181562L18.303230,60.181196L18.174729,60.585107L17.849416,60.966126L17.767935,61.305626L18.377950,61.584976L19.234312,61.837119L19.615896,62.057752L20.007503,62.418805L20.484887,63.337295L20.671221,64.485244L20.835675,66.681410L21.728652,69.503711L21.836600,70.456228L21.645539,72.694608L21.751462,73.349045L22.128739,74.757159L22.187264,75.269663L22.191786,76.179918L22.406160,76.665244L22.865401,76.946691L23.578857,77.245382L25.896496,77.646050L27.239832,76.808838L27.792343,76.691091L28.539655,76.955307L29.266219,77.482333L29.946851,78.233449L30.438628,79.106738L30.606457,79.991624L29.834861,81.408240L28.413604,82.646922L27.379669,84.046791L28.019677,86.715006L28.044400,87.796350L27.949752,88.889346L27.792073,89.703435L27.529541,90.140718L26.783336,90.471572L26.463072,90.786615L26.480859,91.271430L27.020840,92.318841L26.829429,92.667048L26.028734,93.078583L25.512876,93.536187L25.210905,94.244225L25.031725,95.412902L24.776842,96.266478L23.887619,97.471410L23.602575,98.271907L23.602813,98.273347L23.599102,98.279106L23.599577,98.281986L23.335354,98.997597L23.172090,99.675823L23.207461,100.385779L23.562850,101.170682L23.716531,101.877868L23.418444,102.475632L23.046057,103.047502L23.016887,103.246275L22.954710,103.669827L23.945346,104.888658L25.558206,105.137917L28.427703,104.802211L28.995324,104.963579L30.742387,105.730110L31.285809,106.070169L31.635618,106.580277L31.909714,107.225873L32.279292,107.913304L32.887140,108.546009L33.253218,108.658429L33.545504,108.548891L33.829508,108.488358L34.212756,108.747790L34.291366,109.027408L34.258016,109.918197L34.282578,110.252622L34.717756,110.885461L35.363085,110.950333L36.045259,110.699498L36.566695,110.379475L37.773593,110.241090L39.129071,110.807615L40.413762,111.766305L42.399797,113.754579L42.588223,114.276574L42.245600,115.004809L40.884457,116.242188L40.591231,116.732559L40.669520,118.424483L41.742580,119.432819L42.884418,120.190203L43.217639,121.143846L42.989759,122.266373L42.920283,123.645846L43.059368,125.031223L43.485411,126.171369L43.486819,126.180028L43.822219,127.122517L43.489523,128.786802L43.918348,129.702015L44.581427,130.044150L46.289142,130.198618L47.069905,130.718335L47.964549,132.315117L48.465780,132.782917L50.071596,132.537465L50.565431,133.045699L50.960211,133.836955L51.461322,134.592145L54.332858,136.239802L55.548169,137.419671L55.700748,139.229317L55.280055,139.911042L54.713673,140.270689L54.226241,140.743005L54.071959,141.743999L54.398393,142.869264L54.977777,143.822672L55.410660,144.767447L55.303736,145.848055L54.946912,147.457485L55.042074,148.006502L55.561087,148.994756L55.887942,149.368972L56.232018,149.514902L56.588102,149.618932L56.953812,149.855891L57.187773,150.220001L57.553875,151.072496L57.806692,151.349922L58.242433,151.439509L59.092662,151.164971L59.527176,151.144742L59.871493,151.321024L60.475546,151.875882L61.546039,152.390289L61.926392,152.893143L61.948804,153.500043L61.551549,154.118512L61.537458,155.609808L61.953435,156.599696L62.516133,157.511564L62.932080,158.765948L62.903505,160.112847L62.437507,161.112921L61.139024,163.066854L60.871260,164.448502L61.382187,165.422601L62.381842,166.020937L63.605310,166.286864L64.999147,166.208820L65.672856,166.318660L66.318189,166.810049L66.813987,167.304329L67.335626,167.636739L67.892025,167.804390L68.485476,167.821733L69.310236,168.232189L70.124100,169.134035L71.545762,171.145841L72.220228,172.351185L72.313621,173.397544L71.752566,175.420867L71.569399,177.331423L71.713588,178.510685L71.594418,178.617627L71.066074,178.837290L70.885766,178.973135L70.934780,179.863342L71.726785,180.704401L71.912844,180.844581L72.728040,181.458743L73.408912,182.085908L73.576021,182.877800L73.939460,183.337322L74.387802,183.710139L74.836296,184.247683L75.168860,184.973068L75.330906,185.525046L75.579995,186.033667L76.194375,186.626087L77.514992,187.201159L78.822612,187.097126L81.208164,186.088575L82.371596,186.172381L83.328083,187.175151L84.037620,188.576669L84.462519,189.871215L84.957270,192.281005L85.425239,193.254687L86.448302,194.338120L85.460328,195.045938L85.824500,195.719069L86.773680,196.377738L87.538745,197.030610L87.918521,198.102321L88.210419,200.681724L88.624942,201.857225L90.321025,203.682435L91.076050,204.811550L91.063295,205.931934L90.642356,206.818373L90.262286,207.967499L90.174013,209.119434L90.610795,210.020138L90.612145,210.028798L90.612595,210.031685L90.617749,210.034572L90.627606,210.037458L91.555024,210.857285L92.554525,210.992956L93.512633,210.652332L94.314957,210.037458L94.316857,210.034572L94.328615,210.034572L94.332868,210.031685L94.340921,210.023024L95.114686,209.797853L96.507419,209.050147L97.694089,209.029938L98.759734,209.397539L100.614965,210.037458L102.539367,211.587587L103.185241,211.957055L104.459030,212.190854L106.010753,213.431949L108.587602,216.410143L110.200768,219.289606L110.875951,220.025239L111.731048,220.256018L113.368178,219.739646L113.892773,219.843499L114.713198,220.348328L115.639472,220.281980L116.451334,219.846383L117.406954,218.903021L117.873706,218.923216L118.365563,219.073235L118.843915,219.122280L120.228231,218.617402L123.148212,218.750115L124.014418,218.452952L124.815329,217.950935L125.505776,217.673951L126.261007,217.688378L127.747675,218.222142L128.088116,218.276960L128.338390,218.476033L128.744198,219.615598L129.000531,220.002161L129.326942,220.310827L129.747041,220.616601L130.726830,221.008903L131.697641,220.971404L133.565700,220.550254L134.379242,220.232940L135.072396,219.690604L135.823145,219.289606L136.822354,219.387693L137.665609,219.927157L138.122881,220.674293L138.169511,221.548298L137.781819,222.459737L137.161806,223.108663L135.916625,223.988262L135.439420,224.902400L134.835753,225.582910L133.901852,225.692480L132.096619,225.591560L130.003288,226.802537L129.100133,227.018769L125.896585,226.920744L125.010527,227.246529L124.531569,227.886539L124.309885,228.771537L124.302690,229.748698L124.444165,230.668129L125.222150,232.812194L125.215117,233.581527L123.756737,233.157969L123.537656,233.157969L123.339347,233.215597L123.910905,234.342159L124.587519,235.402336L124.800616,235.635675L124.903423,235.871889L124.877643,236.099455L124.730787,236.321256L124.413370,236.597779L124.230014,236.963584L124.186887,237.412899L124.286011,237.928435L125.129998,239.535340L128.773964,244.201818L131.646634,246.452121L132.931962,247.712258L133.516883,249.351875L133.455761,249.578526L133.304324,250.139923L132.843103,250.815742L132.547092,251.523134L132.805709,252.400096L133.511295,252.842852L135.277979,252.825602L136.056511,253.403449L136.111178,254.866557L135.383829,256.553521L135.012998,258.122312L136.127214,259.222563L135.867641,259.894696L135.417514,260.158936L134.868316,260.270947L133.766388,260.655795L132.916420,260.440398L132.463661,260.489222L131.352347,261.227284L130.778372,261.853283L130.082371,262.039924L128.622117,261.448400L128.041387,261.494345L127.539219,261.299075L126.480251,260.675898L125.769375,260.443270L125.470583,260.572509L125.000076,261.612079L124.993002,261.873383L125.225435,262.556748L125.171118,262.818016L124.918853,262.958695L124.286380,263.021856L124.001961,263.122338L123.591501,263.601762L123.467709,264.241899L123.570882,264.976689L123.819328,265.733872L123.820647,265.742482L124.463537,267.180098L124.502951,268.224402L124.270513,269.236994L124.128746,270.596441L123.575275,271.519794L122.276908,271.092543L121.692731,270.805557L120.805971,270.369885L119.755587,270.421506L119.615849,271.488253L119.920107,272.895990L119.894558,274.248983L118.761876,275.128861L117.480765,275.266421L116.938387,275.507145L116.585116,276.137574L116.541846,276.802329L116.818130,277.922529L116.772747,278.558471L115.721940,280.016340L115.507314,280.909818L116.305137,281.682930L116.715891,281.897669L117.175781,282.218333L117.572152,282.619144L117.801362,283.071461L118.032429,283.661148L118.307709,283.996046L118.582924,284.267960L118.830527,284.654348L119.133138,285.701784L119.311820,286.743349L119.600201,287.681776L120.219517,288.399821L120.408759,288.760248L120.486313,289.352339L120.452219,289.941524L120.319270,290.299017L120.055853,290.356214L118.994643,290.001584L115.811009,289.752761L114.345225,289.412404L112.650239,288.585757L110.788105,288.062262L110.827140,289.581155L111.544208,291.820315L111.726063,293.458515L111.574157,293.897309L111.373843,294.297491L111.127716,294.644774L110.841800,294.947741L108.518118,295.486479L108.181927,296.213786L110.276451,300.761843L111.041843,301.956986L111.982712,302.582330L112.787337,301.849901L113.809270,301.844190L114.846294,302.446700L115.711540,303.531674L116.149619,304.784922L116.260574,306.147858L116.045305,308.804574L115.891996,309.302434L115.402945,310.346560L115.386449,310.857164L115.700237,311.486106L116.107857,311.965267L116.441391,312.440124L116.532664,313.054689L116.158365,313.677763L114.530397,315.196049L113.963956,315.915893L112.990396,316.896495L112.654632,318.120666L112.476134,319.528464L112.002684,321.059971L112.003524,321.065669L111.994041,321.065669L111.672442,321.457407L111.271622,321.762239L110.355481,322.206648L111.499472,323.535468L112.627002,324.123619L113.831095,324.200517L115.156648,323.991182L115.272989,324.008270L115.379298,324.053840L115.475997,324.130739L120.652850,331.552710L121.370329,332.237101L122.164602,332.830390L122.864735,333.493350L123.328977,334.408046L123.689513,335.521781L124.150332,336.494595L124.742034,337.389099L125.499657,338.282101L126.299717,338.978813L128.692839,340.534154L128.916623,340.959323L129.130542,341.365750L129.405235,343.321509L129.774861,343.705226L130.548113,343.504842L131.229475,343.001734L132.377324,341.714005L133.163027,341.357221L135.389742,341.323106L136.345755,341.075766L136.413852,342.765805L137.347492,343.592954L138.419450,344.262300L138.921127,345.478664L138.477510,346.307017L136.492549,347.639633L135.913730,348.585716L136.800904,349.259003L138.211227,349.578587L139.577490,349.402462L140.309011,348.591398L140.518296,348.463554L140.742246,348.419518L140.984075,348.464974L141.044563,348.496309L141.230866,348.592818L141.387644,348.673785L141.543631,348.781741L143.371085,350.713386L144.032850,351.662038L144.555628,352.700064L144.859282,353.816080L145.019672,354.733230L145.374460,355.533900L147.132100,357.021518L149.340987,359.611609L150.978722,360.797889L151.715983,361.450575L152.260237,362.377044L152.352182,362.941685L152.227764,363.995706L152.262422,364.445374L152.541373,364.956018L153.123272,365.293599L153.224160,365.790024L152.998644,366.494912L152.478507,367.267832L151.416298,368.501566L150.552461,369.236076L149.827133,369.384958L149.047769,369.325405L148.047567,369.416152L147.197197,369.933679L147.248707,370.601470L147.970891,371.152973L150.026793,371.385477L150.946209,371.754071L151.696082,372.348052L152.069027,373.099349L151.896908,374.030614L151.316691,374.740712L150.640365,375.362902L150.170795,376.033247L150.172023,376.041750L151.469364,378.236787L154.213416,378.564099L159.554401,377.953394L164.666210,379.473730L169.576241,381.665382L171.055710,382.968594L175.716081,385.461582L175.906322,385.563330L178.272453,387.279681L181.557719,389.107689L183.784510,391.289398L199.427220,403.432753L199.436757,403.432753L199.439755,403.436996L201.070303,404.523406L202.581689,405.263202L204.082697,405.584290L205.683611,405.408895L206.454280,405.099120L208.396909,403.926455L209.051607,403.968893L211.795723,404.869968L212.858704,405.391921L213.547098,406.076519L214.187139,406.920917L215.106678,407.916606L216.476966,408.862745L216.792597,409.262966L216.955788,409.895101L216.840863,410.254291L216.627078,410.556911L216.368516,411.572209L216.212512,411.780070L216.244621,412.051559L216.659294,412.791064L216.916997,413.104956L218.484068,414.422687L218.744699,414.723831L218.962787,415.027797L219.943185,416.165866L220.284182,416.478294L220.764848,416.700242L221.113403,417.395760L222.112640,418.085601L222.455827,418.793796L222.494249,419.557095L222.324966,420.088562L222.119664,420.569133L222.023679,421.162766L222.037959,421.925985L222.143096,422.358465L222.493557,422.604381L223.246970,422.813550L223.895859,423.192309L224.348724,423.751957L224.826786,424.221147L225.536536,424.308766L226.483103,424.681849L226.604532,424.827328L227.429098,425.815196L228.824130,428.197600L229.650541,429.014293L231.378908,429.808354L231.974037,430.777585L231.975251,430.786062L232.330640,431.749608L234.410661,434.733282L234.788628,435.171201L235.703605,435.722122L236.104461,436.052670L236.433150,436.547072L236.808855,437.504778L237.032606,437.917232L237.894713,438.750599L239.915219,440.131964L240.687925,441.109336L240.982383,442.270283L240.883540,443.507455L236.553116,462.851283L237.736834,472.211881L239.387874,485.422365L254.629761,485.425188L255.167790,485.730078L255.412533,486.430197L258.819643,512.747233L258.820021,512.750057L259.115702,514.424718L264.128601,515.139222L264.671410,515.319968L265.192412,515.624979L266.084369,516.477891L266.823191,517.551117L267.400019,518.742998L268.102288,521.149468L268.375932,521.672021L268.801565,522.073121L269.349185,522.307569L269.908147,522.392309L270.467259,522.369712L272.129309,522.078770L272.719196,522.107017L273.307248,522.301920L273.792427,522.680429L274.949937,524.284903L276.674364,526.016580L278.704695,527.700324L279.071306,528.163652L279.382970,528.720220L279.550098,529.310702L279.506978,529.892720L279.230527,530.364558L278.837659,530.774244L278.532433,531.229144L278.511684,531.836631L278.652977,532.215257L279.401942,533.483974L280.470896,534.554942L280.809356,535.117288L280.949041,535.210542L282.155017,537.929200L282.344636,538.641412L282.897896,539.706943L283.161331,540.065457L283.505414,540.379194L284.217988,540.899271L284.966822,541.328909L286.462119,541.747248L286.809148,541.898442L286.840346,541.763807L287.046876,541.432179L287.095845,541.806095L290.555187,542.135501L291.580020,541.806095L291.942344,541.536786L292.312169,541.151747L292.591018,540.679915L292.656540,540.141325L292.432319,539.387316L291.671841,538.356938L291.358436,537.702682L291.358354,536.754708L292.134718,536.928278L294.257729,538.038710L297.510869,538.014231L298.469102,538.445954L299.232910,538.065414L302.441215,538.445954L303.359478,538.174457L304.107762,537.477924L304.595595,536.503256L304.743731,535.424043L304.635257,534.807688L304.231651,533.766369L304.127789,533.185651L304.177818,532.567122L304.440455,531.443570L304.439447,530.756112L303.849029,528.295635L303.381054,527.063248L302.860835,526.091164L301.985872,525.239226L300.945723,524.509646L300.019257,523.668870L299.516969,522.494487L299.636920,522.205346L299.884606,521.769415L300.020981,521.377971L299.425419,520.888673L299.567814,520.205890L299.887719,519.549807L300.039997,519.305169L302.255429,516.896681L302.774496,516.736565L305.332986,517.085708L306.117632,517.099051L306.913554,516.138360L306.418579,515.168798L305.151592,514.417179L303.636360,514.119204L302.304751,513.558838L302.492648,512.440352L303.700906,511.597613L305.401550,511.842206L306.130920,511.397493L306.923958,511.446411L307.797299,511.695450L308.747401,511.842206L308.973890,511.784393L309.373968,511.530906L309.660328,511.468647L310.001030,511.637637L310.621842,512.389209L310.925219,512.589333L311.549823,512.429234L311.976873,512.069011L312.360442,511.971173L312.830738,512.589333L312.681832,512.827260L312.639037,513.011821L312.666192,513.707824L313.317000,513.158581L313.930120,512.362525L314.442970,512.104588L315.079432,514.101415L315.625468,514.941976L316.380093,515.400067L317.313504,515.202154L317.395830,516.136137L317.211013,516.720999L316.085219,518.504547L315.420633,520.096913L315.248317,520.833071L314.531163,519.981264L313.824988,519.405248L313.000483,519.071653L311.953722,518.967127L311.267362,518.731388L309.222157,517.708390L308.244635,517.472659L307.411836,517.606091L305.952289,518.137601L304.968330,518.188751L303.024831,517.857390L302.274667,518.070884L301.900549,518.967127L303.448118,519.362993L304.753031,520.005728L305.718984,521.106632L306.263368,522.868150L306.980884,523.475361L310.303443,525.303732L311.433686,525.688548L312.249824,525.764177L312.823684,526.315831L313.315150,527.014309L314.227155,527.548188L315.006236,527.432514L315.588718,526.785189L315.953411,525.870948L316.096380,524.941164L316.707490,525.319303L316.777104,525.666304L316.631625,526.017759L316.615617,526.431501L316.703707,527.252329L316.766323,527.548188L317.006300,527.868521L317.712312,528.333453L317.874824,528.500296L318.114179,530.756112L318.616637,531.227765L319.843581,531.316757L320.774245,531.116525L322.414019,530.364558L323.353154,530.199929L323.762370,530.315614L324.501582,530.829529L325.035411,530.942993L325.587476,530.882924L326.559730,530.627077L327.043950,530.569233L328.060631,530.642650L328.514398,530.751663L328.994427,530.942993L329.535506,531.250013L329.744948,531.483617L329.902234,531.779519L330.305174,532.268987L330.796704,533.219025L331.148158,535.688835L331.381058,536.576689L332.953384,538.530520L334.497663,538.864333L336.089082,538.138851L349.397918,528.633772L351.010263,528.026463L352.706899,527.759518L354.399386,527.959727L355.699826,528.446906L356.102776,528.598178L356.846333,529.080919L357.201217,529.654879L357.573414,530.549211L358.338992,531.663827L359.205407,532.658343L359.932277,533.185651L359.854579,534.614106L361.343806,537.711583L361.091513,539.563130L361.763270,539.880937L362.089325,540.274859L361.962335,540.595342L361.243491,540.684366L361.488460,541.263029L361.665592,542.264594L361.891276,542.925649L362.087515,543.172715L364.159655,545.082549L366.242343,546.284617L367.219278,547.068219L368.565231,548.735680L371.211628,552.696617L372.701709,554.540363L374.151935,555.974479L374.970033,557.018938L375.407328,558.107982L375.907680,558.675906L378.810627,559.805108L380.544367,561.377606L381.420538,562.433415L381.864110,563.373431L382.360232,564.081805L385.093695,566.160255L386.684762,568.205442L387.037825,568.809224L386.843872,567.173918L387.603615,567.525924L388.675284,568.800312L389.439672,569.932159L390.000690,571.420562L390.526458,573.593147L390.826224,575.725782L390.668855,577.069622L391.372051,578.119331L391.707241,578.446955L392.175240,578.600739L392.111342,578.981859L392.198975,581.217416L391.391271,580.439521L391.018612,580.840725L390.833739,581.750140L390.600341,582.492404L390.265271,583.154438L390.227088,583.823174L390.486657,585.147314L391.098841,586.674382L392.249018,587.608494L393.568746,587.771242L394.708756,587.017704L395.531113,586.859419L399.146868,586.634254L400.288715,586.830437L400.498196,587.126944L400.648825,587.583970L400.826434,588.511421L401.029196,588.756665L401.399712,588.627354L401.798650,588.395488L402.070945,588.328604L402.706091,588.832468L403.093758,589.389849L403.691407,590.979554L404.523979,590.752130L405.082185,591.541432L405.360649,592.810153L405.355881,594.005339L405.114728,594.578419L404.284734,595.445863L404.001673,595.842799L404.011814,596.451592L404.283198,596.906521L404.395415,597.305705L403.958383,597.747265L403.385318,596.837390L402.489745,595.842799L401.467771,595.046702L400.513813,594.718903L399.625442,595.312066L399.624992,596.665676L400.100211,598.175451L400.612995,599.210255L403.176266,602.073974L403.672149,603.157967L404.142080,603.742357L405.102171,603.998866L407.008792,604.108163L409.038530,604.585501L410.666264,605.544657L412.042354,607.003518L413.347620,609.011223L414.242232,611.380459L415.172414,618.368585L415.772950,620.086809L419.545297,627.388980L419.969390,627.951427L421.721023,629.638814L423.698996,632.290559L424.366300,633.004862L426.185844,634.538422L427.346064,636.159098L427.599089,637.619097L426.931187,640.568262L427.297923,641.670889L428.390079,642.709818L429.290113,643.499259L431.420610,646.487868L432.384495,648.479341L433.472078,649.849101L434.788966,653.125770L435.740239,653.044116L435.916376,651.510391L437.127469,652.258555L438.432573,654.126484L439.567548,655.248249L441.643646,655.874679L443.130733,656.094025L443.406919,656.359789L443.613080,656.770721L443.733690,657.293323L444.013065,657.648427L444.583290,657.793596L448.741818,658.676461L450.621446,658.976387L453.479369,658.409012L455.231217,657.962048L456.890797,657.836031L457.841705,658.414478L458.614850,658.660153L461.815170,658.244740L464.079405,658.559649L466.118441,659.401650L467.980904,660.607722L474.158121,665.941548L476.035775,666.866306L484.618137,668.773946L486.423714,669.542379L488.119044,670.815677L492.096695,674.588813L492.484398,675.145084L493.453699,676.947972L493.902718,677.602564L494.686114,678.214714L496.681127,678.972090L497.509940,679.644575L498.080192,680.927007L497.561959,681.472159L496.560429,681.583871L495.679081,681.552592L494.710536,681.653133L493.971477,682.012847L493.612663,682.712173L493.823775,683.838257L494.916143,684.899563L498.749793,686.577575L501.391428,687.732765L503.200953,688.919256L507.401530,692.458721L509.638221,693.129092L510.669001,693.739134L511.215417,694.932415L511.715108,695.475430L514.597270,696.210630L515.274606,696.963712L515.874543,697.837475L516.587053,698.565989L517.630911,698.867676L518.669277,698.961535L535.301584,704.635670L536.919058,705.619011L537.837828,706.638119L538.341149,707.730990L538.759448,710.343643L539.156702,711.416434L539.930931,712.283614L544.911510,715.884266L548.697602,718.063480L551.411158,720.289665L552.009025,720.499769L553.037520,719.878399L554.195759,719.976745L556.377294,720.687521L557.404466,720.645053L559.250006,720.081797L561.369597,719.771113L564.280475,718.255699L565.226389,718.043364L565.717997,718.063480L566.132289,718.271345L567.122561,719.022344L567.646801,719.189979L568.472905,719.324086L571.814867,720.309781L572.814493,720.423774L576.361994,720.164497L577.236116,719.894045L578.157772,719.735351L579.179155,719.936513L580.710099,721.121141L581.794648,722.801987L582.696629,724.558848L583.707083,725.971503L585.510104,726.838771L589.764654,726.664423L591.914476,727.095823L593.450041,728.452617L594.213638,730.044123L595.162672,731.293643L597.264034,731.635642L601.254563,731.255643L601.826544,731.371878L602.679576,731.863641L603.281643,731.975406L603.759599,731.843524L604.071543,731.535054L604.323636,731.172938L604.610590,730.880116L609.348582,727.755219L613.413165,723.910640L613.892239,723.566420L616.619140,720.687521L617.277567,720.343309L619.265836,719.708529L620.169858,719.596772L621.274677,719.310676L621.643226,718.590966L621.781218,717.607518L622.213436,716.561495L623.887802,715.676404L626.079441,715.975904L630.028465,717.346011L632.153102,717.468942L634.067185,717.050979L635.723488,716.114479L637.086982,714.688507L637.612901,713.575456L637.981467,712.019884L638.063541,710.374932L637.708033,709.029486L637.407091,709.380374L637.137210,709.547995L636.489344,709.780431L638.668143,706.825851L639.135814,706.403455L639.690279,706.065987L641.075371,704.532867L641.914119,704.117185L642.385601,704.130594L643.908530,704.492639L645.661821,704.492639L646.060006,704.376427L646.691124,703.857943L647.196782,703.746201L648.773582,703.802072L649.267045,703.746201L651.146238,703.252304L653.207482,702.995299L653.697107,702.816514L654.456599,702.043271L654.679364,701.868957L654.670387,701.643243L655.679485,700.637594L658.585327,698.646439L659.305381,697.931332L659.674878,697.649760L660.027559,697.569312L660.256611,697.386067L660.279195,696.805050L660.402093,696.536890L661.083225,695.727945L661.431328,695.459788L662.639612,695.200570L665.672832,695.062023L666.613295,694.556999L667.595588,693.779356L669.026623,693.381599L671.906354,693.209537L673.393333,693.435229L675.981684,694.458676L677.407664,694.744707L680.356497,694.905599L681.803902,695.209509L683.025563,695.870962L683.294169,695.459788L684.400117,695.810627L689.276029,695.870962L689.752853,696.107835L690.171102,696.635215L690.673613,697.164833L691.406552,697.403945L692.677553,697.399475L693.248971,697.178241L693.723745,696.617338L694.178830,697.855353L695.084163,699.001760L696.307449,699.795091L697.707480,699.993984L697.759288,700.402944L697.397753,700.744862L696.690665,701.676765L696.485791,701.868957L696.068433,702.072324L696.103939,702.474588L696.461156,702.762879L697.046583,702.619851L697.094166,703.178555L697.269502,703.629990L697.568183,703.817716L698.425429,703.346167L698.778010,703.567415L699.071952,703.929458L699.336265,704.117185L699.580666,704.237867L699.808154,704.497109L700.115571,704.754117L700.565398,704.868095L701.030488,704.769761L702.392057,704.117185L702.154616,704.566389L702.057991,705.102756L702.184159,705.619011L702.628727,705.994471L702.090033,706.267127L701.655697,706.580012L701.170486,706.792328L700.480768,706.745395L701.024573,707.272832L702.594970,708.278547L702.644863,709.163583L703.322816,710.030747L705.097980,711.483484L705.862876,712.466885L710.501715,725.220470L710.976499,727.779807L711.009219,734.633182L711.086088,735.140600L711.410478,736.396853L711.603360,736.884156L711.875006,737.295458L712.888942,738.214184L713.528317,739.199973L714.010009,740.433891L714.580757,742.919622L714.969783,743.259400L714.893114,744.725811L718.435285,748.327031L719.287553,750.081823L718.905494,751.181643L717.642735,752.862672L717.478900,754.000497L717.659751,754.655473L718.245453,755.724001L718.541228,756.640520L719.412928,758.612155L719.615527,759.260424L719.726570,759.488436L719.925393,759.551028L720.510163,759.443728L720.722203,759.488436L721.927191,760.814035L722.028707,761.026398L722.547851,761.469009L723.065208,762.517415L723.911362,764.741640L725.377570,767.526939L725.958116,770.216100L726.394733,771.074482L727.129669,771.465671L733.479231,771.903802L733.165873,772.241341L736.499771,773.303135L737.683655,773.401491L738.159707,773.343372L739.064812,773.086306L739.598584,773.030422L740.159994,773.146661L741.200815,773.663027L741.788797,773.777029L744.321135,773.146661L745.368977,773.030422L746.550480,773.075129L747.566936,773.347842L748.381132,774.022917L749.009873,775.279179L749.132480,775.708364L749.128988,775.909543L749.034145,776.182254L748.923231,776.812616L749.007861,779.235694L749.748329,779.242400L750.704898,778.565103L752.151331,777.188150L753.939973,776.155430L755.821009,775.623421L757.658742,776.070487L759.339754,777.939216L761.110833,781.086516L762.320459,782.566268L763.657094,783.187671L765.247142,783.446961L766.796057,783.947657L768.365509,784.260592L770.069026,783.974480L771.584447,782.758500L771.844912,782.624385L772.062160,783.011085L772.483133,783.071437L772.947492,782.910498L773.290015,782.624385L773.779299,782.083450L774.008247,782.074509L774.195152,782.298036L774.537032,782.436622L775.227704,782.244389L776.201919,781.292162L776.797137,780.938987L778.270624,780.623812L779.639514,780.529930L779.404452,781.408396L780.337504,781.850981L782.884543,782.032038L785.759291,781.538043L794.507136,783.187671L798.543554,783.187671L799.104929,783.366491L799.409601,783.809072L799.641906,784.354473L799.993975,784.875284L800.457312,785.101043L802.093646,785.063044L804.036976,785.948196L805.366565,787.423439L807.970923,791.098078L808.647333,791.641220L809.482488,791.998843L810.437335,792.197770L811.525706,792.258119L811.948890,792.137422L812.361192,791.922848L812.756271,791.824502L813.123970,792.052486L813.514610,792.412344L813.923000,792.495044L814.892583,792.258119L817.421164,790.917030L819.997853,790.487879L821.295216,790.268833L826.751882,789.328045L829.356476,788.791809L831.194781,789.788320L833.715680,792.189728L837.399644,793.067153L839.529299,793.089973L844.941367,792.732521L847.130104,793.318472L849.333489,795.303895L851.402632,796.028604L852.986301,794.652729L855.499787,794.546252L857.853403,794.161272L859.569994,794.046386L860.368361,794.475359L860.970021,795.190591L861.372272,795.481152L863.012427,795.731482L863.551419,795.912523L864.576562,796.576340L865.861334,796.587497L866.060303,795.566270L864.992089,794.855326L864.841417,794.584879L864.803574,794.263024L865.166254,793.760124L865.429740,793.652839L866.702017,793.384625L868.398265,793.297455L869.268997,793.429327L869.994457,793.760124L869.816499,793.974695L869.478660,794.850856L870.980628,796.029259L873.018455,795.990751L874.039960,796.556225L876.056913,797.396257L877.649420,798.064996L878.212414,798.203096L878.262490,797.499420L876.809773,796.757381L876.803242,796.636687L877.328537,796.714051L876.765588,796.153912L876.536589,795.805239L876.320565,795.664429L875.914818,795.671134L875.361361,795.400689L875.034990,795.364928L874.787231,795.215177L874.471606,794.099861L874.284712,793.751184L874.253711,793.391330L874.562021,792.787846L875.186902,791.846853L875.546787,791.098078L876.300160,790.628694L879.403532,789.575929L880.236693,789.488757L881.077942,789.598281L881.864602,790.054257L883.792114,791.849088L883.999015,792.331879L884.375694,795.414100L884.612676,796.153912L885.955868,797.883849L885.314356,798.592356L886.146131,799.043832L890.656405,799.624937L897.400868,801.260957L905.287570,802.624289L912.164681,805.114848L913.041900,806.478773L913.128087,807.377240L915.957773,808.001358L924.226076,810.883577Z "/></g></svg>