<?xml version="1.0" encoding="utf-8"?><!DOCTYPE svg  PUBLIC '-//W3C//DTD SVG 1.1//EN'  'http://www.w3.org/Graphics/SVG/1.1/DTD/svg11.dtd'><svg enable_background="new 0 0 1000 379" height="379px" pretty_print="False" style="stroke-linejoin: round; stroke:#000; fill: none;" version="1.1" viewBox="0 0 1000 379" width="1000px" xmlns="http://www.w3.org/2000/svg" xmlns:xlink="http://www.w3.org/1999/xlink"><defs><style type="text/css"><![CDATA[path { fill-rule: evenodd; }]]></style></defs><metadata><views><view h="379.738887989" padding="0" w="1000"><proj flip="auto" id="robinson" lon0="-18.4700340488"/><bbox h="46.03" w="121.53" x="-273.9" y="-1091.08"/></view></views></metadata><g class="" fill="#000" id="country"><path d="M497.871161,377.738888L531.637231,371.901983L539.527869,369.577456L536.133726,364.588155L536.393018,363.282713L537.705965,362.647998L540.835271,362.504293L547.385034,366.660336L553.273273,366.738198L566.435410,361.905537L573.616633,355.231070L573.330671,353.184446L570.440055,351.610775L571.169486,349.570642L579.035644,343.936337L581.761897,340.187327L599.389825,336.074696L650.766063,328.545876L666.452472,324.532111L684.700275,323.206381L694.206269,321.528492L711.108822,315.308280L734.666294,300.544601L752.189267,291.509014L774.395945,283.527197L807.091907,273.586005L829.915505,268.867879L851.696164,268.992802L860.801257,266.096048L874.480294,258.770579L889.986330,254.372381L897.947887,250.724114L905.277829,244.879368L909.871801,239.488219L911.941218,234.045755L909.281118,231.891912L908.188458,227.656405L917.120725,222.586179L917.154926,214.359181L925.027599,216.889586L939.884082,218.051239L948.656103,214.762119L957.811245,209.696633L968.003861,200.175027L970.835180,193.890134L971.610278,188.560305L969.660801,184.338148L977.028906,181.816115L988.648822,181.437793L993.752125,179.126714L996.912259,175.232463L998.553912,171.658304L998.679829,168.392174L996.873006,166.171895L981.483059,160.186060L986.158640,157.453773L989.563627,156.521501L991.838406,154.816437L992.974135,152.338879L993.062856,150.221523L992.117935,148.470093L985.749137,148.293194L981.680799,144.484537L979.063064,140.588579L981.234996,138.873779L988.325192,137.353627L992.257436,135.256342L994.046529,130.150029L998.187455,124.621907L998.444255,120.743611L994.030000,117.107656L990.847111,116.984122L983.254364,119.096127L978.875169,112.719979L970.590690,109.092153L949.713027,105.935538L937.091632,107.710671L920.657774,113.996134L935.129232,104.013733L936.431856,100.858364L933.791763,97.774256L932.524140,94.332680L932.628651,90.528058L931.124074,88.479434L928.011632,88.174223L897.175595,92.295188L890.925455,91.261886L890.048767,89.260103L898.759027,82.904621L905.553948,75.315082L908.217302,67.765266L908.158051,64.161946L906.417274,60.524524L903.001103,56.853032L898.853147,55.863612L888.782964,58.404647L878.507986,55.600171L869.429215,50.666061L869.684128,47.886733L878.430837,41.628216L890.731003,28.892895L902.710834,23.251275L910.750194,21.955122L921.016195,18.166711L920.947151,17.262104L913.150479,17.909913L897.261843,17.273776L886.579498,19.871058L867.899974,29.202501L860.409160,31.901657L842.798681,36.009955L832.404330,35.565748L823.367238,31.942558L818.733194,28.717651L818.858251,20.005315L815.184858,16.048285L807.532084,11.130063L796.589483,1.363739L792.182120,0.000000L772.739105,0.378801L749.885870,5.362601L745.023866,9.473603L752.541954,29.599742L751.301686,32.690483L746.020002,39.464794L732.879418,42.382579L720.941809,47.167134L712.660270,47.933537L704.986931,45.751462L701.362707,42.885514L693.387025,39.312784L688.711707,38.237075L685.222511,38.640455L666.757236,52.292989L658.102166,59.886181L653.109303,62.990358L646.165844,65.550420L644.882251,67.220307L642.096787,66.382406L637.814678,63.048935L622.872750,49.267542L615.431339,45.769010L590.840298,43.704288L580.085388,44.078603L577.651120,47.506452L577.273419,51.777967L589.122171,74.347656L592.358124,83.327048L590.967101,90.099522L589.170779,92.911686L586.722654,94.890552L584.771232,94.591060L583.326680,92.013370L577.043507,76.786886L562.202948,67.202728L551.352575,54.394264L542.373957,46.675726L536.474103,42.715917L530.519008,40.903135L524.500315,41.236433L516.595524,43.727682L506.794993,48.378190L497.032421,51.210297L479.481301,53.873302L474.737426,58.392936L471.058163,64.759498L469.858802,85.228141L468.494393,88.426609L466.500499,90.287372L463.864720,90.803973L454.561361,89.483160L450.005582,86.871290L441.704752,78.821892L431.743229,71.334452L420.243836,57.040387L413.862115,53.299684L404.680016,50.946954L396.643028,52.831443L389.738205,58.960934L386.446833,69.224466L386.785322,83.632142L383.473175,96.699398L376.502927,108.410211L371.517448,114.513689L368.526459,115.007738L363.121179,113.496243L355.331690,104.501504L352.801775,103.431959L347.133362,104.013733L340.760918,106.640860L326.884183,115.219479L321.370589,126.546770L319.066045,129.761394L316.673459,131.480894L314.201375,131.710571L310.710972,136.947105L306.194160,147.202367L303.300363,151.235924L301.008806,146.689415L297.247149,132.646985L290.446498,128.053895L285.730363,127.194341L280.471073,127.635886L279.773117,126.199450L283.641993,122.873883L286.429027,118.690172L288.139745,113.649148L286.428390,111.937882L281.301159,113.566814L279.978617,112.872876L282.473518,109.862319L280.014725,106.793685L267.759010,101.304887L264.255276,96.153194L282.219182,99.201665L286.550016,97.386592L290.624173,93.950993L299.973877,77.777957L299.880036,75.514440L293.562859,70.296998L283.878484,68.339549L282.387638,66.839436L290.532859,64.138513L294.219497,61.836451L293.638214,59.880324L275.045670,52.193494L257.792588,38.956153L248.816374,34.040371L247.460237,32.158750L230.034400,26.159362L218.071568,16.789400L209.441515,11.456715L197.665534,9.631074L182.431587,11.141729L167.558090,10.202651L162.291939,11.538380L150.503249,16.923623L144.677975,20.168760L144.528240,22.381319L157.393890,24.121292L171.127107,24.057061L183.719661,22.503927L184.416383,25.347597L186.569213,26.825166L196.643194,28.478153L200.515125,31.042770L198.052626,32.065261L175.644794,31.948401L165.812783,32.819038L158.989189,35.004668L157.077047,37.453737L163.335067,42.324100L168.626120,44.657644L199.753069,54.552313L200.591436,56.033389L200.097872,63.177805L198.241000,71.662703L196.526526,73.954843L186.413995,74.300752L179.678522,78.857082L179.503981,77.719312L182.470887,69.646435L182.667894,65.773059L182.104040,62.955212L179.182953,59.839331L173.675752,58.269971L164.031695,64.929396L160.563947,65.433243L154.151654,63.570281L145.387391,65.093437L144.818657,63.300818L146.712353,58.878953L146.357989,55.313318L143.760530,52.609035L123.920660,42.979085L117.284506,41.166264L110.338622,41.253975L103.079465,43.242259L102.444630,45.564278L99.835796,48.372339L95.352066,49.899489L95.449470,51.748705L104.441175,56.683244L108.381366,60.044299L103.454936,59.821762L81.782240,54.622558L79.757355,55.658713L78.127114,57.737136L76.903956,60.840780L77.409835,63.312534L85.473493,68.433312L96.793067,77.349852L77.102933,76.804478L70.295751,78.686997L67.924477,81.050805L72.361735,86.202268L78.051685,89.224884L90.054904,91.326465L113.232399,91.502591L115.753619,92.976273L105.356482,95.800816L97.389349,99.612883L83.841518,101.445897L58.970014,91.103376L48.064742,89.089878L42.412478,89.794272L40.251028,91.807882L43.379709,97.768382L47.278604,100.082861L47.289716,105.471223L46.220812,109.074516L58.472042,118.448958L47.632850,116.448821L32.622832,110.062217L24.270638,109.221490L15.489365,110.879479L1.320171,120.037521L2.646817,123.032784L23.540263,124.616021L41.385942,129.702511L51.460734,134.219605L61.322752,132.387845L80.025070,126.858778L125.854389,118.884323L147.040180,113.378624L154.550986,117.360610L170.522359,114.907750L193.123932,118.807839L199.117443,125.398882L227.481366,123.862635L241.326027,129.419876L240.237479,132.535083L234.554980,135.167981L211.057721,141.944077L194.778578,148.216538L178.680521,156.037689L174.738178,159.672607L183.948877,164.199934L210.987400,168.203200L216.438156,168.321308L241.741095,160.770358L242.944321,162.458473L238.122692,170.660071L234.847164,173.903119L228.448831,177.572425L189.953586,177.950638L172.647665,178.689367L162.630753,180.361999L154.863585,180.285159L145.697223,177.850174L142.493676,179.469509L141.492186,180.852598L134.445779,183.110763L114.281323,187.608135L112.134403,184.710638L106.860815,183.217178L103.102580,184.290848L95.094022,188.560305L91.456767,189.193150L79.045162,190.033046L59.072414,194.043967L43.566496,192.659534L37.758538,193.742220L29.684205,196.020283L27.145786,200.021125L30.133060,205.758102L33.815679,210.318610L38.188048,213.701471L43.439304,215.093958L55.789043,212.984543L76.753690,206.587173L89.077896,204.757363L146.276037,209.068761L169.852121,208.322461L183.333299,215.781366L188.699157,216.581409L189.714059,218.151999L180.257755,226.256718L179.339908,229.026574L182.282042,233.624453L184.773809,235.410622L192.780868,239.428857L197.664786,240.129347L215.142326,236.544157L240.071423,226.197412L244.707122,227.164126L247.442351,228.789305L244.687455,230.776555L236.480359,232.259762L211.728015,242.326030L205.430561,249.963683L204.892183,254.711112L207.054136,256.963584L213.673622,257.338041L203.070471,262.319862L198.562461,265.203944L197.884525,266.797876L207.386021,266.797876L237.466178,256.577251L245.784094,256.577251L254.118537,258.853802L240.594702,260.381616L234.403268,262.522026L228.820064,265.840305L223.858062,270.337289L216.121419,280.020194L212.505465,283.080586L205.467877,286.320322L198.263407,292.653046L192.426679,296.377744L179.529195,300.300159L148.416080,306.132127L144.182361,303.824101L140.999001,299.030323L137.139101,295.650606L132.583159,294.929465L128.794236,299.179359L127.289982,302.720912L127.247400,310.039327L128.660532,321.158308L131.588413,326.144650L136.031019,324.980020L158.074155,324.185737L244.734112,322.394282L250.733931,320.632902L265.220925,312.974903L274.169081,311.865042L278.409805,312.437863L279.412454,313.100216L273.088370,316.472126L274.497225,318.782193L285.499798,324.842660L296.899529,329.059623L310.606246,330.350045L310.327113,333.726000L316.886100,337.198381L322.268881,337.449428L335.573493,330.499407L340.386047,328.904302L344.362100,333.827590L343.410729,334.694119L337.149132,334.801692L334.030244,335.877463L331.742735,337.861873L330.288407,340.773233L330.582660,343.326384L338.363593,349.480907L355.739611,359.444908L378.747005,359.905870L394.736418,361.803751L421.004803,368.924498L442.509128,373.405933L497.871161,377.738888Z "/></g></svg>