<?xml version="1.0" encoding="utf-8"?><!DOCTYPE svg  PUBLIC '-//W3C//DTD SVG 1.1//EN'  'http://www.w3.org/Graphics/SVG/1.1/DTD/svg11.dtd'><svg enable_background="new 0 0 1000 381" height="381px" pretty_print="False" style="stroke-linejoin: round; stroke:#000; fill: none;" version="1.1" viewBox="0 0 1000 381" width="1000px" xmlns="http://www.w3.org/2000/svg" xmlns:xlink="http://www.w3.org/1999/xlink"><defs><style type="text/css"><![CDATA[path { fill-rule: evenodd; }]]></style></defs><metadata><views><view h="381.374801603" padding="0" w="1000"><proj flip="auto" id="robinson" lon0="-18.4691882421"/><bbox h="46.73" w="122.85" x="-274.67" y="-1091.63"/></view></views></metadata><g class="" fill="#000" id="country"><path d="M348.713186,377.867720L349.776085,376.711572L350.690744,375.392491L350.411836,373.999434L350.115563,373.554869L350.668547,372.947320L350.523752,372.739870L348.302914,372.833716L346.359121,373.396805L345.868475,374.755225L346.339489,376.173057L346.791942,377.111767L347.071487,378.188888L347.672405,378.643477L348.713186,377.867720Z M588.297385,342.203090L588.382593,341.182862L587.790432,340.428827L586.478803,340.271126L585.775360,340.399258L584.114553,340.990653L581.056322,342.631903L580.675590,343.632517L584.830296,342.804418L585.836675,342.720625L586.559751,343.075517L586.608727,343.780397L586.052381,344.421228L585.330521,344.924053L585.920134,344.776161L587.543226,343.563507L588.297385,342.203090Z M571.576481,68.945667L571.782838,67.569301L570.702968,65.990291L569.996867,65.328808L569.291395,64.565975L567.710349,63.513534L567.114008,63.957673L567.746772,65.642646L568.054935,67.091231L568.114955,68.013585L568.559375,68.728336L569.275525,69.177491L570.320059,69.375511L571.576481,68.945667Z M491.295528,379.374802L511.294886,376.242223L523.264876,373.001652L543.386423,371.223598L541.866879,371.045804L539.680071,371.045804L535.818539,370.897645L535.608619,370.117363L535.591415,368.408790L535.390026,366.695482L534.601305,365.925300L534.028350,365.495793L532.338885,363.422491L531.550209,362.682098L531.900103,362.267494L532.217980,362.050326L532.935428,361.862774L532.496097,360.949726L534.354531,361.201425L540.354507,363.511341L542.873325,363.555766L547.976021,362.652483L550.606230,362.682098L550.488987,363.511341L547.526017,363.644616L546.275745,364.236967L544.848367,365.545161L543.754111,366.206708L541.065394,366.769540L539.764877,367.658267L542.452751,370.137116L548.361490,369.346999L554.824963,366.651047L564.684816,364.103686L569.326395,361.359357L573.190537,357.604024L576.063781,353.504375L574.650133,354.175237L567.715749,354.407086L568.219379,353.020980L568.030841,352.187407L567.261708,351.837223L566.054597,351.921069L567.586789,351.240449L570.174607,351.393339L570.197143,350.263963L573.990035,350.263963L573.754853,350.732470L573.696871,350.796583L573.591299,350.796583L573.251080,351.018514L575.594095,351.817494L578.184484,350.574656L582.798431,346.057940L580.217868,346.536171L572.972827,346.057940L571.523539,346.314309L569.520675,347.453237L568.307938,347.714562L566.849353,347.364486L566.495025,346.506589L567.082625,345.436756L568.426528,344.401509L569.983403,345.525495L571.689415,345.131104L573.151581,343.652235L573.949389,341.508144L574.701626,340.172563L576.245439,338.832178L578.026688,338.107831L579.474299,338.610436L580.545512,337.925519L581.634482,337.679154L583.961676,337.708717L584.066779,336.954865L582.298329,336.053251L584.804232,336.122225L587.033085,336.747932L589.266298,337.018916L591.780473,336.053251L591.528380,335.048240L591.537214,334.388124L592.238716,332.752745L594.236470,334.200933L600.102767,336.053251L599.978262,336.954865L597.328448,337.107603L594.267256,337.782626L591.664769,339.275674L590.385990,341.922151L603.141729,336.954865L603.265992,336.053251L602.926596,335.619708L602.902039,335.388162L602.933538,335.077798L602.807544,334.407829L604.052742,335.235443L605.421906,334.890598L606.690258,333.718187L607.616433,331.994229L607.973038,333.205904L607.836303,334.501426L607.102575,335.565516L605.962109,336.437539L614.750480,335.235443L627.784933,332.752745L639.764564,328.620798L639.824193,330.689085L640.764981,330.718634L642.129877,329.891281L643.452833,329.374211L646.589118,330.822056L647.963632,331.097853L654.570315,331.206203L658.061237,330.743258L659.933696,329.374211L658.507406,328.413986L658.059291,327.119016L657.759929,325.725702L656.797003,324.485126L657.957565,322.978858L659.515940,322.801660L661.236392,322.875492L662.849683,322.087971L662.214124,321.015042L662.226782,319.735509L662.892998,316.601139L663.479146,315.927118L664.467148,316.468300L665.343989,317.393277L665.595615,317.875469L665.766615,318.652916L665.430640,320.414631L664.480032,323.658135L664.740083,323.682748L664.976864,324.278374L664.835659,324.972482L663.943971,325.312164L663.601080,325.514008L663.289869,325.986630L662.765866,327.040239L663.164613,328.059458L662.937723,329.256026L661.530879,331.994229L663.409004,331.826770L664.953953,331.304704L665.504188,330.477318L664.408633,329.374211L665.044733,327.985599L665.402955,326.478961L665.798959,323.244658L666.209645,322.447272L666.780260,323.220047L667.262235,324.632808L667.421898,325.725702L666.530689,328.783296L666.583956,329.856809L667.766747,330.275403L668.432329,329.541641L668.693203,327.970827L668.686081,325.725702L668.949433,323.938716L669.344963,322.885337L670.143608,322.535868L671.585839,322.836115L672.463371,323.367716L675.573200,326.139251L677.115631,327.025468L677.302060,327.409513L677.083972,329.063977L677.148072,329.891281L677.549126,330.275403L678.656285,329.699224L679.334176,328.266265L679.607897,326.587276L679.467290,325.312164L680.993844,325.090631L682.789024,324.485126L681.890263,324.396517L681.103434,324.086392L680.404065,323.569532L679.793488,322.836115L681.246093,323.859956L683.055512,324.174999L695.730852,322.087971L710.538082,315.405635L709.835953,316.822539L708.760616,317.752460L707.522948,318.337996L706.325154,318.702123L709.317597,317.806584L714.259975,313.772435L721.323968,310.457422L722.711087,309.429630L725.460424,306.626941L724.449209,307.305436L723.160559,307.949545L721.652909,307.900375L723.359642,305.904233L725.963129,304.232804L731.229262,302.055327L730.430077,303.780569L732.484472,303.456148L738.311047,301.229645L738.406882,300.477727L737.152922,300.477727L737.258249,299.652137L738.392146,298.767630L739.385088,298.281175L740.278452,298.487548L741.094945,299.652137L741.931985,298.620218L742.892846,298.030584L745.195345,297.101960L748.635829,294.950147L749.573150,294.630842L751.603566,294.242774L757.835655,291.330146L757.929154,290.588578L753.585267,290.588578L757.146953,288.850222L781.544901,284.652540L784.821873,283.170150L783.103221,282.429014L775.244249,283.916234L783.892607,280.146954L786.720343,278.076247L786.876537,278.660135L787.393638,279.204793L787.757343,279.808358L790.311050,278.674856L796.019644,277.477663L801.345923,277.188193L807.392894,275.966599L809.857975,274.862841L806.834837,274.862841L805.460676,274.612668L804.243922,273.965183L806.455989,273.092105L811.489889,273.891607L813.823578,273.214725L815.460164,271.493241L816.480717,269.384590L816.380579,267.531202L814.634527,266.560479L814.744519,265.658453L815.455905,266.271236L816.217096,266.506552L817.026496,266.315357L817.888790,265.658453L817.199470,264.648646L815.874970,261.698078L815.054149,260.360236L813.221916,259.831015L810.157917,259.066621L808.680576,258.331667L810.979262,258.713838L814.514903,259.537013L816.262718,260.727762L818.107257,261.742184L820.137381,264.065344L821.184584,266.599699L820.085097,268.286256L819.994615,269.031545L821.132051,269.624862L823.685501,270.183878L824.873753,270.669358L824.744156,269.418914L824.474931,268.580444L824.020622,267.972463L823.335035,267.389021L823.435426,266.560479L824.602126,265.952586L825.786401,266.374186L826.654084,267.619453L826.848884,269.477756L827.363697,270.330991L828.797712,270.394741L831.820175,269.923982L831.730470,270.669358L829.505966,273.965183L831.792531,274.014233L832.877365,273.808221L833.933776,273.214725L832.849369,272.326982L834.140940,271.552092L835.199510,271.718836L836.195432,272.189656L837.298818,272.326982L838.236523,271.846348L840.151932,270.267242L841.016799,269.923982L842.870205,270.301569L844.526943,271.198991L847.196992,273.214725L848.878198,274.102526L850.695551,274.602858L854.939068,274.862841L856.807264,274.333069L859.758114,272.307364L861.815731,272.326982L861.195064,270.728205L860.945655,269.031545L860.013672,269.536598L859.103061,269.796487L857.095912,269.923982L856.198679,269.531695L855.602337,268.653992L855.436651,267.776345L855.823186,267.389021L856.943661,267.094859L858.589636,266.344772L860.132218,265.295698L860.902772,264.094754L861.527799,264.094754L861.430663,264.918248L860.925683,265.423152L860.546169,266.006510L859.885140,267.389021L861.237855,265.918270L863.288460,264.462379L865.523967,263.212494L870.831354,261.355029L871.967509,260.727762L874.073362,258.655042L874.533921,258.331667L875.685378,258.081792L877.781396,256.950059L878.484966,256.690410L878.872825,256.347485L878.884564,254.740752L879.063692,254.231338L879.811440,254.040313L889.920387,254.966075L892.164782,255.867405L887.878496,256.837380L879.500157,258.184681L875.306584,259.978019L877.766492,259.385114L884.537342,258.037696L894.153165,257.435076L894.569800,257.033343L895.799100,255.162011L896.068365,254.642786L896.334228,253.893373L896.793668,253.540721L897.330204,253.330115L897.833548,252.952990L897.986944,252.497515L897.874573,251.655171L897.818401,251.234018L897.803210,250.489686L898.348236,249.392849L901.695372,246.386788L902.182543,245.432232L902.740615,242.950695L903.186449,241.834883L904.530830,240.440246L913.606934,234.652790L915.171061,233.312679L914.655793,232.725811L911.669769,233.899573L905.450070,238.713049L901.603709,239.295281L901.142019,240.190694L899.357707,240.117297L897.466041,239.324637L896.671210,238.091702L895.713537,238.106380L894.047699,236.756148L893.106232,235.151697L894.317537,234.364215L906.550810,234.364215L908.371603,233.689266L909.449267,232.755153L909.688749,231.610830L908.959135,230.261237L907.317726,229.087787L903.766348,228.012212L902.388731,226.985606L907.353058,224.888636L922.388794,227.806885L921.855422,226.985606L923.016087,225.636470L921.436806,224.600267L916.884650,223.700985L915.755084,223.011902L914.219655,221.374857L913.174154,219.469291L913.495911,217.964571L913.590079,217.143884L912.087943,217.046187L907.622332,215.624768L906.322790,214.613746L906.639293,213.744425L907.403371,212.386833L907.670043,211.141678L906.475125,210.585058L904.299286,210.619236L903.343499,210.379993L902.518050,209.691583L909.604426,210.585058L910.887925,211.214919L913.036087,213.983727L915.221732,215.331711L917.305851,220.016503L918.426048,220.817818L920.170957,221.472585L923.381941,222.058971L944.017493,219.606092L948.459353,217.456521L949.985273,217.143884L948.780906,215.512429L947.441919,214.188846L944.844818,212.225689L944.945049,211.332106L946.877415,210.677826L947.680134,210.262814L948.314030,209.691583L951.145437,210.355581L961.567820,210.599705L964.233748,210.140754L964.320343,208.851869L962.755338,207.948745L953.087650,205.669236L955.967208,204.322212L965.296697,206.420895L966.545316,206.040179L969.011037,204.346613L970.546552,203.961076L971.582611,203.512109L971.397583,202.487351L970.647433,201.389481L969.995318,200.686891L964.388904,197.940310L951.480764,196.238003L946.322467,194.067752L947.940643,193.604485L953.402736,194.955318L962.608557,194.067752L970.369097,196.252636L974.810704,196.633076L978.797321,194.955318L977.171413,193.229006L968.015497,190.791089L963.996787,188.602216L963.286963,187.963659L962.938556,186.784113L961.948721,185.626494L960.782747,184.715178L959.901996,184.247361L931.274335,182.692961L931.376669,181.796461L950.016400,181.396953L953.534618,179.350880L952.537492,179.000156L951.495290,178.357186L950.652851,177.392789L950.221506,176.077815L952.959307,176.701194L957.712262,179.467790L962.401805,180.359263L965.296221,181.528497L966.749105,181.796461L968.114774,182.449341L968.909403,183.930619L969.484149,185.587505L970.230520,186.701256L972.030046,187.271516L977.769778,186.701256L984.259784,187.593212L985.693399,187.198405L988.738290,185.460795L990.204427,185.070925L990.502282,184.554364L989.792367,183.428720L988.342678,181.796461L990.265467,180.929252L994.202334,180.295932L996.155209,179.350880L997.919011,177.714247L998.685507,176.262877L998.310854,175.128191L996.688215,174.441583L996.785002,173.550505L997.478869,172.119063L998.040754,169.680123L998.353880,167.139428L998.291938,165.387508L994.292728,167.830526L991.328092,170.712114L991.091444,171.179458L990.286243,171.549450L988.644557,173.185327L987.691156,173.550505L987.331090,173.311921L986.862468,172.776339L986.212501,172.235909L985.344933,171.987611L982.508370,171.987611L983.277575,171.271955L984.081532,170.746191L984.920269,170.410297L985.807066,170.278863L985.887688,169.543828L984.326748,168.716353L977.175671,169.543828L977.274605,168.648211L980.215092,168.000873L983.306925,167.830526L986.859395,166.944758L987.381978,166.409433L987.433202,165.942257L987.411331,165.397240L987.735223,164.643012L989.293318,163.324433L989.819586,162.448696L988.951271,162.044904L985.527378,162.044904L979.148800,162.935209L965.217719,162.044904L954.468733,163.285510L951.804070,162.044904L957.405456,162.044904L962.778560,161.300596L974.970973,161.300596L986.696470,159.675913L988.758561,158.965785L992.818824,155.717195L995.090751,154.773892L994.707588,154.107786L993.998044,152.868044L991.823842,151.468005L987.492817,149.805652L984.786315,149.348785L975.848303,150.622220L971.478167,150.398631L956.697938,153.373650L955.400739,152.255508L957.838414,151.409673L965.531399,150.622220L969.511352,149.295323L971.471824,148.959975L976.009197,148.940535L978.990674,148.216408L981.217647,146.875177L981.141855,144.917032L974.213690,143.537276L972.088694,142.468550L975.824060,141.380484L984.034536,142.070230L987.243588,140.841342L987.354489,139.500869L987.798219,138.398481L987.916943,137.490418L987.068326,136.762070L990.332305,135.523974L990.986883,135.057897L991.067504,134.023850L990.274572,131.752148L990.121781,131.058097L991.202959,129.975839L993.000517,128.835442L994.477134,127.180831L994.619262,124.546507L994.103427,123.993513L991.118844,122.029122L990.586257,121.898173L989.253059,122.121272L988.697711,122.029122L988.629247,121.645979L988.727218,120.928224L988.700672,120.166865L988.282965,119.667399L985.585991,119.294025L983.148918,120.239604L978.539288,123.658818L976.986835,122.829393L976.273209,122.169772L975.749887,121.296796L976.343363,119.890459L976.694553,118.799442L976.691253,117.970331L975.921207,117.257629L974.691603,117.020070L971.832729,117.078248L971.916626,116.331661L973.131295,116.108663L973.730473,115.279726L973.745159,114.063079L973.232991,112.638151L972.234730,112.056593L970.558572,111.920900L960.430548,113.302128L957.914215,113.084030L938.721104,106.581557L939.580296,107.899227L941.980092,109.435065L943.274775,110.568895L936.410749,107.661842L934.021550,107.317885L931.961330,108.083324L919.645768,117.286718L917.763858,119.221291L916.733141,120.006840L913.487941,121.709027L912.407970,122.029122L911.376203,122.567481L909.133064,125.167441L907.865458,126.103749L908.584701,124.109931L909.852769,122.320124L911.411538,120.821534L918.841576,116.297726L920.982821,113.752877L926.027540,110.719111L928.600912,107.647309L931.375935,106.513740L936.402873,105.690270L934.846142,104.537502L929.348546,102.435665L927.391358,101.564037L927.005813,101.263823L926.673325,100.857094L926.125871,99.859694L926.019772,98.843008L928.406144,97.613411L932.919825,92.618799L930.214842,90.905987L926.449639,91.423677L919.203755,93.509166L899.408972,96.374253L892.033835,98.610634L888.719270,99.118957L885.616853,98.233035L886.940775,96.093523L889.865367,93.426902L891.555503,90.993074L886.966653,93.983410L884.431463,95.038422L881.716822,95.135217L886.618164,92.410733L888.603570,90.712464L888.688051,88.637112L890.895453,87.200531L897.896088,84.501944L904.233471,80.547003L905.339385,80.044264L905.763512,79.237023L908.200022,76.313026L908.342106,75.800793L908.360404,74.505807L908.480759,73.959827L908.959123,73.467017L910.190762,72.829291L910.521245,72.341356L910.550465,71.046730L909.972773,68.395102L909.925684,67.033284L909.392770,66.598693L908.142900,66.439347L906.930638,65.966149L906.520351,64.570803L906.357237,61.881947L905.299519,60.096137L903.652667,58.995821L901.704539,58.416746L897.055855,58.715931L889.182115,62.354989L885.059737,62.543245L879.354052,61.066234L869.186816,60.878000L867.406729,60.110615L868.552756,59.700398L870.324117,58.778665L871.316960,58.416746L871.086878,56.168266L870.050429,55.246798L864.716653,55.058653L863.390529,54.730613L860.757989,53.563246L862.743012,50.920199L865.264714,49.777306L870.862712,49.589245L872.431264,49.198667L881.611619,44.739242L882.462458,43.847552L883.822215,41.857151L884.404493,40.459728L883.852546,39.814076L883.539646,39.284089L881.839732,37.174007L881.409632,36.942787L881.069727,36.008320L880.058173,35.406252L877.905493,34.958334L880.342113,32.892343L883.331064,31.635584L891.753025,30.523390L899.221758,27.620611L915.671915,23.736893L920.216234,21.220605L902.878339,22.769768L900.820436,22.250150L897.550594,20.677002L895.465607,20.354701L887.657540,21.124390L885.142751,22.033650L881.395328,23.963048L879.714860,25.406690L878.861059,27.216300L877.681981,28.631450L871.029329,30.845964L870.416574,31.765588L870.192904,32.858635L869.584295,33.773597L863.103467,34.958334L852.005616,34.958334L849.276575,35.777122L848.537990,36.923519L848.723091,38.599958L848.786216,40.984948L848.234704,43.298111L847.269639,45.163420L845.927433,46.464966L844.263050,47.086866L844.480113,47.549695L844.741033,47.781116L845.444379,47.969149L843.187083,48.981684L841.530194,47.969149L839.974287,46.334806L837.211341,45.105576L834.718869,43.486075L832.255030,42.859540L831.443604,42.141474L831.003703,41.100595L830.965832,39.814076L830.034786,40.324813L829.472024,40.536823L829.081842,40.546460L828.283772,39.727350L827.900794,39.192548L826.853467,39.033558L823.576222,39.814076L816.992892,39.650260L815.674506,39.004651L816.609468,37.385962L817.170707,36.104653L816.959609,35.266577L814.082099,34.573041L812.926103,33.869913L811.873325,33.503917L810.711654,34.149233L809.697942,32.463779L812.580471,31.269656L814.899871,29.748284L819.143884,26.003446L817.769756,22.769768L817.864901,22.033650L818.189216,20.941585L817.492240,19.873670L816.133164,19.055961L814.548323,18.738513L805.953446,18.738513L806.177632,18.170975L806.583904,16.853237L806.822598,16.314641L805.183779,16.752248L801.630936,16.314641L798.337585,16.747439L797.137416,16.574318L798.331382,15.511601L797.915562,15.165397L797.141869,14.227811L796.702293,13.896068L798.659039,13.016271L798.755646,12.280753L798.452635,12.247103L797.525918,12.280753L798.327729,10.468592L799.594669,9.738038L801.063452,9.252628L802.416358,8.171342L798.266984,7.258332L791.224665,3.251529L786.920987,4.212269L785.857412,4.510115L780.889791,3.337992L778.399442,3.337992L776.340072,3.861590L775.492150,4.404427L774.458733,6.633681L773.401679,7.315993L772.386116,7.114179L771.938523,5.759225L771.817520,5.461349L770.664861,6.201250L769.590875,7.335214L768.483549,8.171342L768.365466,9.050781L767.801798,9.161316L765.984801,9.613079L764.289344,9.786099L762.840649,9.050781L763.443766,8.892188L764.803074,8.171342L763.252995,8.027177L762.274850,7.277552L761.409715,6.369416L760.168000,5.759225L759.297084,5.951408L756.483160,7.147814L755.024055,7.440928L755.253118,8.099259L755.291906,8.623067L755.287454,9.142092L755.375859,9.786099L754.490188,9.382389L753.828939,8.565399L753.670891,7.464954L754.304800,6.162812L754.401992,5.230740L752.948508,5.187501L750.347039,5.759225L749.103580,6.268516L748.282383,7.383266L747.758455,8.517343L747.440679,9.050781L746.448798,8.892188L746.314204,8.161731L746.367201,7.263137L745.935451,6.566413L743.979097,6.748999L741.928011,8.185758L740.892991,9.814936L743.223201,11.401076L744.433892,15.165397L745.837043,16.314641L745.727129,17.122544L743.826796,17.122544L744.445733,18.627889L744.816465,19.132920L745.407902,19.469619L745.024649,19.864049L744.319942,20.763592L743.948266,21.153255L744.888187,21.109958L745.178993,21.153255L744.245435,23.250915L744.732112,24.198831L747.082334,25.267130L747.173790,25.916819L747.102235,26.985271L747.132123,27.981615L747.545592,28.419648L748.090987,28.506294L748.565936,28.761421L748.953027,29.151343L750.144214,30.942256L750.907526,31.751143L751.374945,32.743066L751.357999,34.553776L750.976873,35.666342L750.217669,36.807911L749.300520,37.732806L748.915639,38.301265L749.035541,38.445794L748.908756,39.004651L747.203698,39.785167L745.683517,40.960855L744.541196,42.488454L743.944458,44.295799L744.460377,45.611714L745.888735,46.942235L748.834351,48.706845L748.715577,49.589245L746.375915,49.401187L743.252272,46.537279L741.201707,45.467101L739.329994,45.409257L731.186695,47.086866L733.874753,45.626176L742.198640,43.119789L740.102037,43.153526L736.220438,44.411478L729.916094,45.500844L725.591255,47.086866L727.144944,47.969149L727.378361,48.894892L727.244737,50.061814L727.737990,51.614667L728.594316,52.473161L729.918668,53.322069L732.654065,54.441173L732.553128,55.184083L729.657605,54.807798L727.903530,53.013368L726.324523,50.910554L723.960043,49.589245L722.842064,49.868926L721.635202,50.823748L719.481382,53.191835L718.817994,53.341363L717.433074,51.629136L716.337411,51.209556L717.747533,50.355973L719.190897,49.820705L720.658866,49.560313L722.109162,49.589245L718.841091,49.025080L707.237830,50.717653L703.840026,52.019792L705.056201,52.733615L705.641621,52.830081L704.493495,53.481245L703.349634,53.597012L702.254248,53.336539L701.266526,52.830081L701.378987,52.019792L702.613179,52.019792L702.637016,51.450692L702.625051,51.219201L702.663511,50.968425L702.847979,50.327039L700.061536,45.250185L698.588618,43.201721L698.520637,43.110150L696.275801,42.233038L687.273453,41.736678L685.062901,40.546460L683.824517,42.618574L678.143166,43.736698L675.490385,45.105576L673.419523,46.768681L672.855842,47.612371L673.796739,47.969149L674.077594,48.605590L673.796779,49.994303L673.082556,51.383173L672.015479,52.019792L669.698219,52.482808L666.861646,53.679013L664.346511,55.246798L662.988122,56.867857L662.619419,58.402270L662.567756,60.240923L662.412300,60.921439L661.829630,61.814371L661.169450,62.398432L659.607653,63.272162L659.658808,64.826685L658.930564,66.043404L657.778091,66.931878L656.538833,67.472720L656.433018,68.216415L657.142733,68.916689L657.365163,69.732920L657.133524,70.611998L656.528366,71.452494L655.972737,71.452494L654.989631,69.259596L654.578896,67.907342L653.604405,67.337507L639.199155,67.472720L641.250620,68.453055L649.583496,68.216415L647.860374,68.998793L645.757006,69.583193L643.642083,69.887479L641.891773,69.829519L642.590206,71.578090L643.546663,73.172306L644.051625,74.940675L643.363488,77.202235L642.281746,75.655825L639.917158,70.718265L637.942082,68.284026L636.568249,67.096060L633.834861,65.927521L633.030947,64.339065L632.069295,60.921439L631.119162,59.613530L628.008194,56.636264L626.882686,56.062125L625.269108,55.560379L622.698776,53.331716L621.192372,52.830081L617.501414,53.100190L616.541768,52.830081L615.887962,51.952270L615.293654,49.618177L614.685599,48.706845L610.970513,47.776295L601.884638,49.029902L598.659817,47.969149L599.117199,47.757010L599.187383,47.679869L599.210969,47.520768L599.458873,47.086866L598.083428,46.879562L594.197544,47.086866L592.983743,46.879562L590.962553,45.857561L589.790970,45.467101L581.739035,45.182701L580.495977,45.467101L577.559695,48.885248L576.241583,54.436349L576.541438,59.961005L578.501718,63.272162L578.368203,64.165264L577.695269,64.165264L577.573983,64.976354L578.555520,66.111003L580.013756,68.564133L582.483145,69.496256L583.454209,70.684453L583.559319,72.278554L582.459156,73.959827L583.253685,74.829541L585.765041,76.757623L586.925057,77.202235L587.279012,76.975094L588.190897,75.839451L588.677925,75.583342L589.132640,75.694483L589.355262,75.931265L589.449157,76.192214L589.526988,76.313026L590.151651,76.718961L591.621402,78.831006L592.091023,78.942176L592.751695,78.806838L593.306863,78.787504L593.472510,79.237023L593.162341,80.890231L593.173728,81.262474L595.074397,86.890986L595.071924,88.787068L594.216823,90.993074L593.713878,91.380132L592.044328,92.154285L591.500382,92.618799L590.963491,93.886624L590.922925,94.738364L591.012034,95.561122L590.902853,96.679191L590.494778,97.347175L589.927434,97.894175L589.549304,98.659045L589.746001,100.004942L590.212581,100.469745L591.978919,101.254139L592.643352,101.704462L593.346600,103.123324L593.801978,105.278555L593.560148,107.458374L592.202181,108.940864L590.763587,108.655011L589.918958,106.964249L589.780231,104.842636L590.501448,103.249238L586.578928,100.818359L584.240816,98.712297L583.508152,98.378264L583.326785,97.608570L584.079102,92.618799L583.704909,91.709141L582.353975,89.580411L582.196472,88.230789L582.881454,84.927489L582.783170,83.950692L582.096552,82.471134L581.546056,82.036003L580.742759,81.939309L579.065213,82.074680L578.362645,81.919970L578.118910,81.528369L578.027212,81.006253L577.457651,79.440037L577.191613,78.062509L576.673686,76.844611L574.716861,75.945762L573.486976,74.003311L572.654134,73.075681L571.808126,72.679526L565.175586,72.148119L561.221834,70.718265L554.873238,69.829519L554.791439,68.911859L555.820964,66.825644L558.028518,63.272162L557.337107,61.428230L556.980888,59.024775L556.417258,56.949880L555.140967,56.062125L554.192802,55.652043L553.162337,54.865687L552.059320,54.363990L550.932869,54.812622L549.918013,55.492838L548.624561,55.927038L547.302423,56.115196L546.167740,56.062125L549.184354,53.051956L550.518156,51.170975L549.794835,50.327039L548.236511,49.589245L546.619476,48.036649L544.660712,46.609591L542.067625,46.281777L535.009508,49.917148L534.000974,49.955725L534.559327,48.190935L536.475926,45.616535L537.453160,43.847552L533.112803,42.647490L530.704318,42.416166L528.943889,43.119789L529.149035,43.572829L529.372310,44.739242L526.921781,47.289351L525.556158,48.330759L523.772022,48.706845L525.015389,44.903127L522.263802,44.160841L513.954194,45.756329L510.597214,47.245961L509.602940,47.969149L508.812029,49.222776L507.407258,52.005323L506.433378,52.830081L506.318679,53.563246L506.780782,53.756192L507.559867,54.248217L508.033048,54.441173L507.916981,55.184083L507.299707,55.184083L507.596664,56.293707L508.057102,57.157354L508.774116,57.837699L509.823118,58.416746L508.009921,58.165823L505.213410,56.448098L503.462237,56.062125L504.008059,54.899456L504.333329,54.441173L503.481484,54.320575L502.679380,54.421877L501.913896,54.711317L501.134320,55.184083L501.021928,57.142879L498.806972,56.925756L494.851356,55.184083L482.632845,56.284058L477.237523,57.770146L475.436021,58.860701L474.407114,59.806570L473.966804,60.125094L473.913337,60.530499L474.376664,63.050103L474.903624,64.223198L475.627059,65.179135L476.512007,65.859923L474.946115,67.221612L473.077701,68.216415L471.182125,68.824927L469.505429,69.027771L468.326140,69.433468L467.402771,70.380147L466.827676,71.495969L466.733523,72.341356L471.543859,75.583342L471.667983,76.332356L473.589141,80.450321L474.445761,83.370452L474.600114,86.170357L474.077209,89.154708L472.896306,92.618799L471.343100,96.011242L470.248244,97.666659L469.173174,98.378264L467.419170,98.973720L466.653575,98.939832L466.482138,97.971628L466.840087,97.434306L467.568282,97.027700L468.409929,96.766317L465.831552,96.838923L464.835260,96.679191L464.231721,96.345212L463.144117,95.343328L462.826815,95.135217L460.069822,94.941628L459.285108,95.841840L458.317677,98.378264L456.727521,96.897008L452.223134,96.141925L450.496862,94.689968L450.117663,93.325281L450.130155,90.112560L449.971929,88.637112L449.577756,87.761600L447.961259,85.386901L447.810619,84.603494L447.799626,83.776617L447.691538,82.935290L447.262482,82.074680L446.811827,81.876459L445.632993,81.992490L445.162070,81.668571L444.193752,80.682359L443.217320,80.571174L442.122572,80.600178L438.709531,79.295027L433.904657,78.860006L432.406112,78.019010L432.958264,75.839451L431.527274,74.336696L429.416080,73.037031L427.914850,71.452494L428.290267,71.090204L428.987609,70.196602L429.363754,69.829519L428.367559,69.327213L428.016481,68.568962L427.858547,67.641738L427.477605,66.593864L424.309926,62.683232L423.406913,60.921439L422.840659,59.126116L422.321647,58.233379L421.458305,57.760495L422.222032,56.867857L420.199473,56.115196L418.605171,55.217852L417.650108,53.741721L417.603871,51.209556L415.509828,52.193421L414.483511,52.135544L413.508629,52.077668L409.229606,51.209556L407.715770,51.701478L404.098998,53.910550L402.273281,54.441173L399.117906,54.238569L397.901221,54.441173L396.956549,54.841567L395.156623,55.854670L394.218163,56.062125L390.510727,55.796776L388.308955,55.999406L386.344878,56.867857L387.263250,58.387793L386.522644,60.313316L384.949944,62.113638L383.373884,63.272162L384.770601,64.310098L385.879584,65.531595L386.602654,67.062258L386.841599,69.027771L386.746192,73.114331L387.198815,74.220735L389.933741,78.410501L391.636482,82.268071L391.978665,85.720589L389.367228,86.939352L389.220664,87.824480L391.158214,89.077309L393.035548,91.278528L394.337202,94.070517L394.553870,97.119669L394.035804,99.056021L393.203401,100.750572L392.120631,101.970789L390.866976,102.435665L389.507260,103.229866L389.400249,104.886227L390.398600,106.353885L392.376552,106.581557L390.456409,106.877052L388.786604,106.862519L387.858812,107.317885L387.259355,108.199597L386.832756,110.137640L386.349248,111.009856L384.711770,112.429756L381.410655,114.751367L380.115252,116.331661L380.905329,118.125482L380.098673,119.497682L379.024374,120.923374L379.040035,122.843944L378.006785,121.131907L379.244598,115.832344L378.277179,114.712589L376.924895,114.959800L374.238424,116.079576L372.992237,116.331661L370.107584,116.438313L366.975303,117.078248L368.101447,117.883059L369.570368,118.115785L372.720535,117.970331L373.692328,118.304878L374.820521,119.905006L375.780084,120.404481L374.293557,122.955501L373.522798,124.798758L372.517543,126.069789L370.692528,126.729610L370.370011,126.846053L369.198553,126.952792L368.077267,126.846053L367.038366,126.554948L366.100061,126.103749L365.221293,125.361489L364.885825,124.643526L364.686940,123.838291L364.216445,122.843944L363.738667,122.538380L362.134037,121.985472L361.808877,122.029122L361.914258,121.374391L362.247160,120.574210L362.771512,119.667399L362.652343,118.275786L362.812245,117.582461L362.802769,117.107336L362.137767,116.331661L360.165164,115.400912L358.840545,116.297726L358.360097,118.222452L358.926997,120.404481L356.821808,120.860330L356.055232,119.609210L356.457698,117.533978L357.884858,115.517252L357.467046,113.752877L357.946885,111.349067L359.380086,106.581557L359.663371,106.300601L360.117667,106.232785L360.438566,105.903398L360.344731,104.876540L360.052555,104.769984L358.861946,104.915288L358.477222,104.876540L357.002067,103.505911L356.192138,103.142695L354.978629,103.249238L354.471752,104.421262L353.111769,104.915288L351.327797,105.186526L349.563650,105.690270L343.296705,109.754853L332.310677,114.160019L329.044938,117.078248L328.625081,117.853968L327.091007,121.296796L326.590988,121.869073L325.289357,123.004005L324.775210,123.658818L324.111392,125.434258L323.812323,127.370057L323.669243,130.174813L323.828116,133.688894L324.778144,137.606957L326.301677,141.273625L328.212109,144.018231L327.379006,144.917032L326.235772,144.295152L323.222018,143.741315L322.753527,142.876599L322.500740,142.050800L320.336028,139.136633L318.418591,134.057831L316.831086,131.926881L314.178528,131.058097L312.725190,132.747182L312.446969,136.529008L312.797157,145.568095L312.563733,147.225050L311.758845,149.062037L310.948636,149.795932L309.916452,150.461819L309.201997,151.220097L309.352099,152.255508L308.762982,152.624971L307.193796,153.961928L307.733533,155.017005L309.028632,156.821042L309.622322,158.041703L309.729632,158.917148L309.665366,160.848194L310.499430,163.762323L309.501800,165.402106L308.492484,165.840065L307.868223,166.107713L306.506093,165.387508L306.632441,164.643012L307.820199,162.541132L307.252207,160.206102L305.750835,158.216788L304.113040,157.142002L304.370391,156.806453L304.410851,156.699468L304.513083,156.621662L304.916569,156.407696L303.886929,155.182324L301.415184,148.901655L301.572486,147.720719L302.396740,145.325157L302.697474,143.478979L302.604181,140.841342L302.816509,139.340604L303.246821,138.102261L303.204384,137.203930L301.995689,136.762070L303.008558,134.781172L302.275688,133.616079L299.123227,131.805539L296.968469,129.427465L295.759947,128.777211L293.758463,128.544292L291.714791,128.942198L287.895082,130.669833L278.382284,132.620979L278.523825,131.805539L283.053797,130.834844L288.942324,127.777631L294.215874,123.576358L296.885529,119.221291L295.752170,114.101855L290.888453,114.693200L284.854483,117.446709L280.222702,118.775198L280.362758,117.970331L282.380637,116.884325L287.779454,112.812623L288.938252,111.455678L288.004506,109.900214L285.530315,109.158892L270.343229,109.376923L268.873683,108.577492L268.458934,108.248045L267.499222,107.763578L266.616508,106.862519L266.417936,105.283399L266.205862,104.663429L265.558638,104.062863L264.240496,103.249238L265.540462,102.300074L266.410816,101.505931L266.861932,100.556898L266.882641,99.118957L266.526006,98.944673L264.964830,97.003498L264.833927,96.679191L263.514968,95.919280L259.517069,94.399597L257.785668,94.244735L260.562202,93.368833L263.486252,93.325281L266.126761,94.157626L268.075050,95.866040L268.059196,96.877646L268.866131,98.538018L270.219990,100.111458L271.844553,100.818359L272.203670,101.147614L273.426222,102.697164L274.204015,103.249238L286.458525,103.549498L289.316598,102.435665L297.595916,97.565004L296.299564,96.809881L291.774316,95.135217L290.294885,94.864194L286.856420,95.212653L284.908173,95.135217L285.063683,94.244735L294.594423,92.318798L297.497414,90.993074L299.398213,89.449796L304.876403,83.762111L305.029789,82.877269L300.989711,81.262474L303.865444,80.353639L305.206301,78.802005L305.277649,76.757623L304.375339,74.365686L302.182006,73.264100L292.180374,74.771558L292.322342,73.959827L296.482291,72.457299L297.750604,71.452494L295.234582,70.626489L286.612277,71.452494L281.253265,72.945238L278.688123,73.133656L277.321139,71.452494L278.665339,71.466986L288.477288,69.945439L291.087756,68.863563L303.929074,68.216415L303.272097,65.695758L301.880922,64.310098L299.864476,63.643878L297.333496,63.272162L287.283791,64.739781L285.169216,63.716291L283.713196,62.108812L283.464754,61.244817L284.260215,60.110615L285.130054,59.951353L287.204012,59.111639L288.455010,58.185124L286.861241,57.760495L286.576164,57.355181L286.346752,56.467397L286.009156,55.589325L285.404549,55.184083L281.365837,55.333635L277.999912,56.206863L276.762095,56.867857L278.195089,59.237110L278.124829,60.154051L277.730002,62.137773L277.106895,62.750813L275.771450,63.441122L274.240008,63.991466L273.054595,64.165264L273.994736,62.905284L275.316645,61.544071L276.373803,60.057528L276.487824,58.416746L275.488765,57.562662L273.910422,57.779796L272.232260,58.310586L270.930734,58.416746L269.807528,57.808748L269.349999,57.012605L269.296472,54.730613L269.495372,52.786671L269.458260,52.830081L269.405884,52.236828L268.883590,51.064877L268.677114,50.327039L269.993966,49.676042L270.271867,48.239150L269.624825,46.821711L268.164432,46.281777L268.767739,45.163420L269.111369,44.739242L263.737102,43.119789L262.747676,43.254736L260.808487,43.876471L259.921744,43.847552L259.265634,43.514993L258.294935,42.604116L254.419738,40.724744L253.123499,40.546460L251.696198,40.912668L250.374102,41.529465L249.159061,41.857151L248.037287,41.423451L253.773774,39.033558L254.779479,38.195279L252.043899,35.401436L251.614038,34.958334L251.008379,34.534512L250.317257,34.178128L249.510839,34.216656L248.588352,34.958334L247.021641,34.597121L240.534524,34.958334L241.377332,33.243874L240.698956,32.415626L239.210557,32.656390L237.604526,34.149233L236.747914,34.967966L235.943531,34.611570L235.364598,33.802491L234.632263,33.272767L233.244406,33.282398L231.686118,33.643572L230.144240,34.235919L228.783858,34.958334L227.761685,34.149233L227.921771,33.272767L229.475494,32.434887L229.475932,31.548916L228.834411,30.725599L228.498891,30.114166L228.722105,28.852883L229.039737,27.837213L229.821151,27.331816L231.417636,27.620611L231.565316,26.812002L227.827511,26.349963L226.796265,25.637689L228.294607,24.458679L226.430416,22.235717L219.501478,20.075700L218.247420,18.334500L217.935061,15.540452L216.255211,13.218186L213.751024,11.737557L210.912492,11.473178L211.384840,12.598030L213.581825,13.463373L214.017366,14.631685L213.341685,16.088630L211.955813,16.237701L206.047947,14.612453L203.543439,12.843204L200.868250,11.602963L197.202917,12.280753L197.344732,13.463373L197.461727,13.896068L195.194375,14.708615L191.268553,16.910945L188.922259,17.122544L187.224857,16.449288L184.375944,14.343203L180.475447,13.516257L177.608753,11.848117L176.087429,11.473178L167.095712,11.473178L171.141751,13.593180L172.556055,13.896068L173.914238,14.497059L174.020745,15.679899L173.038464,16.579127L171.147858,16.314641L170.700390,15.814538L170.218632,14.372051L169.759474,13.896068L169.145249,13.756642L159.121623,14.631685L159.741506,15.223097L160.086881,15.795304L160.501480,17.122544L157.928911,16.362729L155.357562,15.021148L152.663291,14.328779L149.684931,15.511601L151.268912,17.324528L153.582347,19.003053L156.205882,20.152665L158.709374,20.354701L156.035937,24.040038L152.127626,24.343190L147.945302,23.448191L144.462034,23.578106L143.043620,24.675223L143.512293,25.445190L144.838574,26.215205L146.960358,27.928668L150.463763,29.050251L164.354067,31.043364L166.782952,29.671258L167.547680,29.425740L171.783719,26.003446L173.516406,24.954330L175.175477,24.256574L178.387815,23.578106L178.222573,24.458679L176.822533,25.358566L175.124575,26.985271L174.225105,28.535176L175.198274,29.228366L178.993925,28.905835L180.760962,28.414835L188.650682,24.319130L191.815609,23.202799L195.808888,22.769768L191.326774,23.741704L189.961984,24.458679L189.463741,25.204570L188.537365,27.577292L188.050366,28.419648L185.972769,29.594232L185.031958,30.451173L184.913849,31.731883L185.623385,31.996709L189.752905,32.463779L195.134311,32.194128L199.960026,30.845964L203.894080,28.843256L205.130867,28.617009L207.019197,29.228366L206.855542,30.114166L205.378977,30.090095L203.808483,30.494503L202.357712,31.202250L201.236772,32.088195L199.633158,32.906790L198.165031,32.993467L197.761547,33.152379L199.347999,34.149233L202.896258,35.189516L215.337115,34.149233L213.086697,35.059475L208.541356,35.305108L204.268127,36.995775L201.921414,37.328156L197.470786,37.313704L197.981491,38.874570L198.322776,39.409357L198.856956,39.814076L197.496702,40.522368L196.251891,40.348905L194.075767,39.004651L193.754417,38.561417L193.560946,38.002580L193.167013,37.516027L192.236142,37.313704L189.749044,37.313704L180.477213,35.695241L177.662901,35.622993L163.918403,37.559383L159.434476,39.004651L162.208419,44.266879L167.842145,47.853436L188.377577,52.830081L192.910761,55.652043L200.106082,57.663991L201.842115,57.316580L203.703055,56.428799L208.381569,55.222677L210.244141,55.184083L208.897973,56.795483L207.238180,57.229729L205.423163,57.287630L203.612751,57.760495L202.096389,58.952389L201.333340,60.284359L200.670229,61.732315L199.453362,63.272162L201.263795,63.745257L202.958050,64.932901L204.387183,66.526263L205.394536,68.216415L205.784502,70.307695L205.959953,72.930745L206.572165,75.220932L208.231827,76.313026L208.069664,77.202235L204.953713,78.439501L200.214784,85.067729L196.557857,86.126830L196.693250,85.386901L197.804245,84.066743L200.313849,81.784601L201.309092,80.450321L202.669126,76.395178L202.810242,75.583342L202.196284,75.317573L201.427232,76.221209L200.785424,77.414881L200.516554,78.019010L199.386684,77.453545L199.610914,76.651304L200.265870,75.728309L200.492622,74.771558L199.941505,73.761734L199.382966,73.756903L198.807195,74.046796L198.168013,73.959827L197.046103,72.452468L196.310676,70.766568L195.288653,69.641152L193.318802,69.829519L193.155253,70.718265L192.128031,73.061187L184.524213,81.745924L181.553870,86.329956L180.340016,86.518575L179.870620,85.507801L181.228009,83.322100L187.178630,76.313026L186.850111,76.018248L186.698372,75.583342L187.523932,74.998659L188.288861,73.843870L188.912906,72.534595L189.799597,69.959929L189.817497,69.423809L189.366107,68.998793L186.714089,65.671616L183.622670,63.696981L182.946689,63.098376L182.553842,62.123292L182.638629,60.516020L182.094569,60.139572L176.030776,59.835527L175.499512,60.023745L174.604566,60.921439L173.283024,62.905284L171.997011,65.744041L171.052884,68.800779L170.728785,71.452494L166.574716,77.202235L166.401825,75.520523L167.749939,72.727837L168.942937,69.423809L168.277920,66.222060L167.214618,66.598693L165.563570,68.409590L163.266438,71.452494L161.564675,72.486285L159.825665,72.950070L156.169833,73.075681L159.373207,71.945225L162.398092,69.699111L165.039327,66.922221L167.095019,64.165264L165.876867,63.383193L164.306300,64.034916L162.659072,65.174307L161.228907,65.859923L161.483331,65.502625L162.004725,64.976354L161.211605,62.181216L160.694184,61.293084L159.683042,60.921439L158.639034,61.254471L157.902524,62.123292L157.291544,63.204578L156.603863,64.165264L154.494595,65.763355L148.937524,69.027771L146.676886,70.718265L146.113935,70.718265L147.219741,69.554214L152.051704,65.415716L152.452902,65.179135L154.263801,63.643878L155.027275,62.770122L155.107064,61.621299L154.981932,59.705224L155.281938,57.972808L155.218879,57.331056L153.811384,56.062125L152.831022,54.595540L152.111385,53.871961L151.199733,53.563246L149.353482,54.002202L144.189970,57.760495L144.056246,55.184083L144.746696,53.418539L143.597437,51.281896L141.659551,49.473517L140.020371,48.706845L137.373630,48.374153L128.877118,44.739242L115.127181,42.560743L112.971601,43.119789L112.537740,44.686220L110.989852,45.365873L107.233259,45.467101L106.552773,45.626176L105.640829,45.843099L103.947666,46.739755L102.426326,47.810044L101.364291,48.706845L101.193641,49.589245L103.174369,50.437953L111.863197,50.327039L113.778213,50.987715L116.725831,54.117973L118.667195,55.184083L111.332658,51.633959L105.471749,51.113103L97.524112,51.527857L94.351610,52.830081L96.943414,55.116544L101.736275,57.678466L104.098485,59.705224L105.027602,60.110615L107.139836,60.366405L111.080661,61.476497L113.097728,61.732315L114.809175,62.509455L116.874392,66.207574L118.166490,67.472720L118.024499,68.216415L116.266389,67.830074L114.906259,66.729069L114.100447,65.135681L114.038054,63.272162L110.613431,64.276303L105.944510,63.600430L90.598761,58.257506L86.031728,57.683291L82.166094,58.416746L80.544617,59.835527L79.652245,61.756449L78.951005,65.415716L79.568586,66.381403L82.727846,69.148513L86.455985,71.268932L88.323888,71.713349L89.319752,72.824459L91.653725,73.582970L95.866529,77.202235L97.781248,78.043176L106.923964,79.251524L110.773595,81.325322L112.969358,82.074680L120.381015,82.456629L122.460429,84.076414L129.698273,85.386901L126.392611,86.228392L123.047276,85.449769L117.085444,82.877269L113.376210,82.877269L102.658395,80.450321L96.775587,81.378500L95.085330,81.262474L93.560241,80.537335L91.058669,78.613502L89.479666,78.019010L82.900048,77.202235L78.093470,75.525355L76.300593,75.583342L71.986630,77.946513L70.973996,81.542873L72.158896,85.415917L74.441278,88.637112L79.090440,91.830102L80.109224,93.063975L81.091403,93.572075L86.045946,92.618799L88.885421,94.244735L93.478268,95.309449L117.843233,95.633721L122.100144,93.717251L125.095769,93.005908L130.138599,92.618799L128.668248,93.514006L124.092200,95.135217L123.954046,95.866040L124.720154,95.851520L125.249666,96.054802L126.275009,96.679191L124.239742,97.613411L122.319818,97.506916L118.511727,96.679191L116.602478,96.945412L114.025242,98.107172L106.521936,98.654204L105.242957,97.971628L104.067328,97.695703L98.152007,99.118957L97.130664,99.714448L97.760596,101.050773L99.104736,102.455035L100.207768,103.249238L103.554808,104.508442L108.299521,105.370584L119.155547,104.876540L117.750386,105.612770L116.347939,105.709645L114.915697,105.593394L113.428334,105.690270L109.078591,107.254908L107.486660,107.317885L107.961716,108.432147L108.283098,108.703460L109.035524,108.940864L108.881091,109.754853L106.620682,110.127949L101.816672,109.449601L100.617699,110.568895L99.370557,109.536815L99.122311,108.940864L94.856761,111.790054L92.600773,112.696308L91.068380,112.192287L92.161739,110.394453L93.357928,109.158892L94.021467,107.812024L93.496943,105.690270L92.977928,105.104186L90.708292,104.062863L89.439181,102.290389L88.688188,101.704462L52.709280,90.102884L48.845484,89.957751L44.647423,91.815587L45.308402,93.218822L45.137262,94.617375L44.748382,96.054802L44.750986,97.565004L47.658928,101.704462L50.403183,104.203315L52.198472,105.254337L56.235586,106.092310L60.608839,107.807179L64.398564,108.596872L66.780318,109.682173L68.905603,111.237611L70.284822,113.084030L67.544681,112.604226L59.208036,109.754853L45.822533,108.209287L47.080712,109.914750L49.561807,112.037208L51.585091,114.392677L55.529538,117.078248L57.245804,117.601854L58.405696,118.823686L59.409217,120.225056L60.687571,121.296796L62.309722,121.796325L64.395470,122.116422L68.559674,122.029122L63.111950,123.498749L60.441596,123.600611L57.848698,122.843944L56.502132,121.723577L55.442156,120.385084L54.154521,119.250384L47.990672,118.319423L44.655872,117.078248L40.357040,113.592932L38.897978,113.084030L36.395109,112.851395L28.128115,109.987431L25.866202,109.754853L24.528703,110.021349L22.711437,111.184306L19.720518,112.192287L18.852047,113.970987L18.442688,116.118358L17.707512,117.970331L15.892418,119.003091L10.220011,120.850631L8.912876,121.665378L7.800342,122.877896L5.563670,123.978961L1.314493,125.288721L2.884269,127.273018L6.136961,127.617511L32.343024,126.103749L45.684885,129.277030L47.513904,131.058097L48.741192,129.480846L50.847299,129.320705L52.308438,130.427173L51.617043,132.620979L50.967496,132.116176L50.312541,131.868636L48.667351,131.805539L49.615930,132.465653L50.379263,133.242301L50.595714,134.111231L49.901629,135.057897L49.729495,135.946370L53.145241,137.344745L57.304051,137.621525L74.481509,135.057897L78.523165,131.805539L79.375321,131.373570L80.012639,131.252234L80.492949,130.791164L80.848140,129.359527L83.468326,130.242755L96.005528,128.874262L101.199925,126.700500L103.923666,126.103749L103.392493,125.608905L103.156602,125.448812L102.776517,125.288721L103.806611,124.769652L104.274132,124.604719L104.898896,124.546507L105.414622,124.517402L106.212766,125.574945L107.125493,126.457915L108.464734,126.846053L109.900700,126.977052L112.274181,127.588398L118.254268,127.981422L119.754213,127.733961L121.092987,127.064385L123.503350,125.215953L124.804710,124.546507L124.971244,123.658818L123.548256,122.101872L124.155727,119.497682L126.142963,117.141273L128.825772,116.331661L128.685708,117.078248L128.087650,118.828534L130.485146,120.312344L135.243912,121.665378L137.950125,120.870029L143.545411,120.137769L145.728004,118.775198L146.206972,117.650337L147.357521,113.888590L147.743622,113.084030L148.624854,113.568698L148.947038,114.756214L149.086817,116.210466L149.431106,117.519433L151.153898,118.270938L153.664356,117.126729L155.933781,114.848312L156.924537,112.192287L159.921172,113.302128L161.282760,114.208489L161.949684,115.517252L159.402455,116.166836L154.783810,119.201895L152.362119,120.404481L152.196760,121.296796L154.478707,121.388940L155.238688,121.296796L155.108141,122.421976L156.079297,122.567481L159.187702,122.029122L160.370815,122.227972L161.301821,122.751789L161.596966,123.556956L160.896937,124.546507L160.760099,125.288721L162.392187,125.380894L163.985132,125.846622L165.504239,126.030977L166.912674,125.288721L166.104318,116.186227L165.504160,114.712589L165.166395,112.138979L165.237125,111.455678L165.784224,110.772413L166.342447,110.568895L167.871187,110.568895L170.133913,111.455678L170.949545,111.378142L171.474996,110.971089L171.964106,110.801488L172.670936,111.455678L170.205520,113.694715L169.180444,115.691764L169.218068,117.635792L170.604102,121.374391L171.152264,122.334674L171.761148,122.843944L172.926901,122.897297L173.993786,122.441377L174.853766,121.500485L175.995447,118.397001L176.731315,118.595795L178.040553,120.850631L179.175694,122.000022L180.329247,121.917573L181.468718,121.102809L183.596628,119.003091L184.277599,118.086694L184.444463,117.112184L183.459533,114.576868L183.558755,113.306975L183.861006,112.017823L183.915233,111.378142L185.250958,110.273314L186.070011,111.731901L187.062730,115.924450L187.884652,117.941240L187.636417,119.424947L187.022153,120.889427L186.758481,122.843944L187.347154,124.910332L188.620466,125.288721L193.839482,124.177842L195.325784,123.280477L195.985961,122.208572L195.046183,121.296796L195.208134,120.404481L196.790324,120.545114L197.723230,121.209501L198.784875,121.694478L200.734552,121.296796L203.400045,119.555871L204.879678,118.852778L206.778309,118.775198L206.617233,119.667399L205.288754,120.516017L201.171271,122.029122L201.023876,122.843944L207.481104,122.582031L210.575470,121.820574L213.923930,120.404481L221.542608,115.119762L224.301177,114.712589L222.158429,115.599660L221.038790,116.239552L220.105056,117.078248L219.706753,118.144876L219.443396,119.551021L218.954398,120.773039L217.855102,121.296796L215.615556,121.665378L211.110245,123.285328L200.833704,124.488296L198.718232,125.288721L196.576323,127.234202L196.896065,128.287116L200.526534,129.359527L205.390721,132.048224L207.453664,134.154922L208.928268,134.494744L212.390838,134.315122L213.355525,133.805400L214.291995,132.688934L215.058159,131.572565L215.483318,131.058097L216.334139,130.893083L217.335447,130.465999L219.138898,129.359527L220.695239,128.020240L221.765278,126.545245L222.281739,124.856970L222.168748,122.843944L223.183583,123.804337L224.377365,126.661686L225.021650,127.733961L225.894813,128.146399L227.158971,128.316230L228.064935,127.777631L227.849362,126.103749L229.120607,126.191077L230.431864,126.074641L231.738070,125.778702L233.012182,125.288721L233.143393,127.108052L234.144631,128.403573L237.111031,130.174813L234.923766,131.577419L232.808438,133.426761L234.570725,133.504430L240.121893,132.620979L246.465649,133.426761L249.648061,133.383073L258.656945,131.805539L256.345231,132.519046L252.701827,133.650060L240.532194,135.698757L234.571855,137.504985L234.890828,138.107117L235.378388,139.952534L234.022052,139.855400L232.033419,138.481036L230.682974,138.393625L230.561357,138.932666L230.702437,139.034649L230.933430,139.005511L231.117468,139.136633L228.803487,140.409072L222.680832,142.065372L218.987087,144.338877L209.750491,147.997719L199.304875,149.591798L196.692289,150.622220L193.476696,153.495193L192.580794,153.961928L189.347017,153.641046L187.950902,153.961928L187.843420,155.911698L186.051580,156.923165L181.610997,158.041703L178.136783,160.269337L176.168328,161.981660L174.912288,163.752591L179.477632,162.798984L181.762240,162.925479L183.630989,163.752591L183.470185,164.643012L181.795733,164.628414L181.158769,164.375393L180.577589,163.752591L178.313375,164.803586L175.560905,165.270721L174.070229,165.776803L175.587814,166.944758L177.929720,167.538508L186.372896,166.818225L187.769077,166.278038L188.227533,166.205042L189.173665,166.453231L195.186376,169.427005L220.698743,172.235909L225.444690,171.179458L240.350265,164.643012L240.506602,163.752591L239.831367,163.752591L239.974948,162.935209L243.083489,161.329784L247.075930,161.110877L249.695376,162.803849L248.671098,166.944758L243.782468,173.058734L242.370845,174.441583L240.570234,175.308371L239.193191,175.600560L238.016519,176.126515L236.817012,177.714247L239.527233,177.977264L240.946397,179.165775L240.593670,180.651562L237.966942,181.796461L227.678595,182.697833L225.444082,181.796461L223.725930,182.605257L223.534947,182.697833L221.683273,182.303171L219.870899,181.455417L218.104820,180.977970L211.245609,180.977970L210.341351,181.299514L208.752964,182.376256L207.767651,182.692961L200.008848,180.334905L187.906038,178.956316L180.248545,179.950055L172.661593,179.745456L170.868775,180.208244L170.402952,181.796461L168.562844,181.820821L167.096815,182.405490L164.287643,184.247361L166.145686,186.462437L167.035817,187.213027L168.104656,187.593212L167.969724,188.338990L166.501403,187.988031L162.801079,185.884792L159.908413,185.090418L159.308782,184.115790L159.121229,181.796461L157.684231,182.463958L156.052074,182.814772L154.516835,182.878115L153.342806,182.692961L154.477868,181.991347L157.391361,181.133869L158.859390,180.091327L158.795930,179.623672L158.753121,179.613929L158.834408,179.453176L159.143239,178.532539L157.706304,177.957781L156.123677,177.714247L156.853601,177.378178L157.465266,176.896006L153.765929,177.383048L146.219375,181.309258L142.291546,181.796461L142.127089,182.692961L148.867118,182.171619L150.224852,182.692961L144.404293,184.807769L138.657724,185.577759L136.604683,186.350340L134.926349,187.593212L133.233663,185.480289L130.973475,184.291218L128.333585,184.437410L125.470516,186.291854L124.915368,187.022938L124.051695,188.558345L123.336185,189.231054L122.545872,189.523547L120.778778,189.708796L120.142532,189.972048L119.037301,191.161624L118.389942,192.448825L118.178053,193.955591L118.388421,195.774662L114.104468,191.610180L114.995357,190.576574L115.776015,189.816046L116.629806,189.362675L117.725107,189.231054L117.518037,188.061146L117.340805,187.593212L120.141987,186.540418L121.450949,185.616747L122.392077,184.247361L115.047262,183.589521L111.174482,183.969602L108.308942,185.884792L107.728112,187.563966L107.889188,189.274928L108.291456,190.830093L108.405981,192.053875L107.620243,193.238759L106.056635,194.365226L104.318645,194.828519L103.035564,194.067752L101.126846,195.306459L100.812556,194.438377L101.110630,192.760892L100.994346,191.610180L99.978855,191.571175L99.107062,192.375685L98.199197,193.014452L97.088834,192.507337L98.124407,190.469317L96.995268,189.825796L93.137699,189.972048L93.357021,190.508320L93.469959,190.917850L93.672885,191.264011L94.132453,191.610180L93.964474,192.507337L85.829616,191.697943L81.937337,192.419569L78.049413,195.364984L77.023710,195.891715L73.261992,195.774662L72.295607,196.320919L70.337266,197.842751L69.411181,198.154943L59.533164,197.145223L52.696721,194.438377L50.779034,194.311583L40.541571,195.901470L38.674971,196.516016L34.882093,198.769592L33.072746,199.218401L31.431439,198.154943L30.641869,199.047657L32.185237,204.146523L33.216892,206.162202L34.528563,208.061022L37.772360,211.566483L38.082017,212.635877L38.074687,214.662586L38.925149,215.243795L40.181066,215.536850L41.372770,216.694482L47.583881,218.863475L49.468286,218.716910L53.718586,217.456521L55.760894,217.143884L62.554037,217.036417L65.280066,215.864103L67.507302,213.046078L68.375005,210.658296L71.502453,208.651712L75.203037,207.592394L76.673277,207.953627L75.509649,208.061022L74.372562,208.363686L73.293653,208.871396L83.594371,210.731535L84.729155,210.580175L85.820259,210.204225L86.884720,209.691583L87.601842,209.203371L89.502777,207.582631L89.622520,207.240933L98.690592,206.103631L103.723557,206.313512L108.460023,209.471886L120.972963,209.994284L131.887699,209.994284L143.261063,210.585058L142.635203,210.585058L145.210772,210.843835L149.127351,212.992361L151.573139,213.046078L151.721876,212.225689L147.197704,210.570410L145.927040,209.691583L155.619665,209.691583L156.356424,210.087048L157.334710,210.980549L158.099830,211.962002L158.242569,212.635877L157.376428,213.119330L156.259538,213.216999L154.133009,213.046078L156.157053,213.969076L164.760010,213.046078L163.101970,212.342884L162.404006,212.225689L162.565201,211.332106L164.129997,210.980549L167.142410,209.271719L168.641107,208.871396L173.544690,209.691583L173.691937,208.871396L174.742950,208.266052L175.627855,208.129365L176.295951,208.578484L176.673747,209.691583L177.479333,208.646830L178.342746,207.860877L179.261837,207.387374L180.234032,207.240933L179.188109,208.651712L177.078264,211.009845L176.219609,212.225689L178.090006,212.225689L176.488338,213.866517L182.398523,213.720007L185.078531,214.154660L186.887133,215.507544L185.524511,216.587018L184.952931,216.928951L184.090852,217.143884L184.630454,217.964571L183.519189,219.200579L182.300709,220.075134L180.242037,221.164743L177.321168,223.217157L176.037546,223.700985L177.673574,224.815322L180.444068,223.774294L183.563698,222.068744L186.223020,221.164743L189.228670,220.827590L192.417608,219.918785L198.590780,217.143884L198.445512,217.964571L195.466899,219.879698L184.317988,222.879954L184.171837,223.700985L184.518957,223.867153L185.282666,224.522067L183.976129,224.947289L182.774201,225.538711L181.736542,226.443003L180.934027,227.806885L182.877850,227.806885L180.342983,228.862887L178.070465,228.026878L175.922436,226.662974L173.737849,226.091055L174.505012,227.142036L175.575061,228.232209L176.745194,229.097565L177.863280,229.439811L178.262959,229.918970L178.883811,230.916457L179.888859,231.811324L181.447479,231.987370L181.316129,232.725811L179.794144,233.958264L179.123332,235.860958L179.441039,237.832409L180.835410,239.295281L182.815223,239.398030L185.543182,238.693478L190.079896,236.902905L189.947475,237.651395L188.808092,238.898969L188.349559,239.295281L189.235268,239.270817L190.015999,239.417601L190.701849,239.720962L191.324730,240.190694L190.349521,240.826815L189.924458,241.012764L190.615908,242.363414L189.922432,244.174276L188.462801,246.049015L186.884895,247.576405L187.812997,247.400159L188.600259,247.111316L189.395318,246.651139L190.309997,245.936425L190.794958,247.826091L191.945627,249.397746L193.412704,250.470099L194.834493,250.866744L195.591061,250.773703L196.548850,250.514170L197.390955,250.146915L197.797353,249.706222L198.396378,249.275336L201.697240,249.294922L202.562694,248.580071L202.814265,247.870153L202.962803,247.023196L203.538320,245.936425L206.149889,243.635887L206.602281,243.058365L206.937399,241.188928L207.521373,239.349102L208.660965,238.003640L210.627114,237.651395L208.685482,240.293450L208.342729,241.482540L209.124978,242.647263L210.521144,242.994742L212.054174,242.495550L214.487282,241.012764L220.300811,238.409711L222.944467,238.003640L225.572355,238.546701L225.286771,236.902905L226.840437,236.213157L231.790157,235.185936L235.977601,233.058366L236.942178,232.725811L238.166468,232.099845L239.251429,229.322469L240.202099,228.701548L241.326339,228.349542L245.376269,226.091055L244.636589,227.264249L243.603349,228.149099L240.981194,229.439811L240.839242,230.261237L243.202806,230.080324L249.601719,226.985606L251.866347,226.941610L258.854848,227.806885L258.701570,228.701548L251.567788,228.026878L250.009722,228.256653L248.142355,229.263798L242.578231,231.082712L242.422083,231.987370L251.872270,231.987370L251.745433,232.725811L247.831925,233.625686L249.401660,234.222375L251.102093,236.081081L252.282815,236.902905L253.848523,237.157290L257.084083,236.971393L258.476319,237.651395L250.884140,237.372541L249.844218,236.491987L248.889479,235.269089L246.538778,235.239741L244.747702,234.887567L245.485963,232.725811L241.668462,232.569317L240.413440,232.725811L239.448330,233.126835L237.780548,234.158792L234.569886,234.936480L230.590648,237.646503L228.761554,238.546701L228.631676,239.295281L229.956789,239.148497L231.073987,239.339316L231.839936,239.941147L232.091385,241.012764L226.580710,241.321053L215.722070,244.340692L213.188191,245.564397L212.842705,246.837166L211.374844,248.501734L210.704701,249.471192L209.865690,251.557227L209.245298,251.513152L208.562921,251.160562L207.924129,251.307474L206.889317,253.163591L206.554872,254.863209L206.092915,256.308294L204.661671,257.435076L206.025509,259.478213L207.315598,260.125024L208.799283,259.855516L210.693879,259.159718L213.314410,258.655042L221.423308,259.159718L219.531056,259.845716L215.334827,260.590551L213.456357,261.624566L211.587657,260.923780L209.496595,261.629467L206.005663,264.094754L201.987249,266.080045L197.895079,267.389021L197.738090,268.286256L205.703467,270.080900L210.003373,270.419260L213.747367,268.653992L215.212776,267.717511L219.681011,265.977097L221.184801,265.658453L222.066640,265.624138L223.913977,265.266286L224.756404,264.918248L225.671683,264.256508L226.234010,263.535983L226.640185,262.874309L227.085763,262.374398L234.652295,258.787334L242.682342,257.729034L259.285473,258.331667L258.709387,258.331667L258.941261,258.463956L259.184417,258.463956L259.290351,258.610945L259.144660,259.159718L257.573912,259.816315L256.793958,260.002520L255.918912,259.978019L255.791247,260.727762L257.891290,261.315824L262.253014,259.978019L261.082245,260.923780L259.282971,262.374398L257.084571,262.648857L244.749815,260.727762L242.536932,260.933581L240.440978,261.482446L236.406682,263.271309L237.136452,263.271309L237.857004,263.717336L239.609763,264.168278L237.895607,264.168278L233.863861,263.825169L231.818896,264.094754L230.151523,264.648646L229.153169,265.359425L227.143676,267.830277L224.767393,269.884753L221.692960,271.684506L215.657767,273.965183L215.806495,275.745841L214.740349,276.731923L211.805891,278.076247L215.189469,278.488401L215.949151,277.909426L216.823366,277.556164L217.719458,277.379537L220.307526,277.320662L222.092871,277.570883L222.980491,278.508028L222.057304,280.559170L224.181878,279.931037L227.056544,279.690587L229.811966,279.881965L231.550927,280.559170L228.495431,281.393453L226.895454,282.109994L226.010975,283.548095L226.615785,284.348195L228.358575,284.220569L231.732908,283.170150L229.378750,285.595068L227.507238,285.619614L226.266495,285.639250L223.109456,285.050161L220.632271,285.565613L222.380114,286.390375L221.529361,286.714402L220.775481,287.107172L219.515986,288.040045L220.287997,288.609620L221.162837,288.909146L222.138280,288.972981L223.207043,288.864953L221.676067,289.719374L220.195933,289.797943L217.491060,288.864953L217.027910,288.462314L216.654815,287.907475L216.063646,287.421396L202.465092,285.977988L199.467478,287.215186L202.623351,287.333020L205.563241,288.285549L210.763693,291.330146L210.162545,291.487304L208.737697,292.155247L210.621051,292.155247L210.463986,293.063897L208.822940,293.505964L206.964538,293.707355L205.123526,293.569820L203.541559,293.063897L205.414068,292.282946L206.164030,292.155247L204.496117,291.605174L201.926660,291.732868L199.477198,292.680784L198.177691,294.630842L199.809221,294.095409L201.942794,294.493298L204.011344,295.397186L205.435779,296.360088L205.307340,297.101960L204.658618,297.662075L204.075919,297.927400L203.498334,297.794737L202.841429,297.101960L200.322872,299.136168L197.651217,300.123897L189.795871,300.993745L184.916409,303.264449L182.385266,303.780569L181.209142,303.505303L179.024446,302.320735L177.918185,302.055327L176.848538,302.266670L173.214508,303.780569L168.756675,304.208226L167.336302,304.596569L166.117822,305.181561L164.711748,306.041889L163.992646,307.010434L164.865167,307.900375L163.271503,308.736282L160.996457,309.046071L152.033940,308.780537L149.857883,308.382245L148.570537,307.084184L149.892821,307.084184L149.198895,303.947698L147.461985,301.023232L145.351266,298.856079L142.371465,297.568721L139.894323,295.741072L138.613030,295.456138L137.374528,295.917931L136.243721,296.762954L135.509884,297.779997L135.448311,298.752889L135.196080,299.868358L134.894213,302.394461L134.548608,303.780569L134.012205,304.763707L132.177226,307.084184L132.402005,309.355868L133.705892,310.890199L135.504536,311.760710L137.230948,312.026300L139.515345,311.185281L140.454795,311.185281L140.622346,312.439451L139.920033,312.837857L135.847131,312.852613L134.836107,313.821625L132.192357,318.229744L130.540096,319.459932L131.415376,320.434317L132.322198,320.916612L132.984139,321.507201L133.145987,322.836115L132.759214,324.204534L132.053056,325.021711L131.195826,325.799549L130.395232,327.040239L131.352943,327.409513L132.476305,329.004886L133.535891,329.374211L134.297910,329.152615L134.971694,328.665116L135.551702,328.133317L136.056147,327.793568L138.190975,327.320886L147.037714,327.916664L148.052938,327.793568L149.164613,327.379971L151.115710,326.346030L154.173245,325.799549L157.880250,324.490048L160.059345,324.485126L158.593355,325.312164L160.435363,326.134327L162.321972,325.139861L164.287734,323.628601L166.375306,322.836115L190.821101,326.139251L195.726341,325.253089L197.019595,325.302318L200.816473,325.189090L216.744122,321.945237L219.768722,322.206096L222.439160,323.397250L225.220221,325.312164L228.270000,326.626664L255.720817,324.485126L256.119852,324.214380L256.417666,323.919026L256.734008,323.692592L257.179915,323.658135L256.313673,321.556418L258.010566,320.296521L260.710130,319.671535L265.038941,319.376276L269.158978,319.745351L270.982714,320.355576L270.111601,318.520059L267.923651,317.368676L263.422751,316.158348L263.548758,315.405635L264.661659,314.977640L267.856145,313.182168L268.814607,312.439451L269.880103,311.932851L274.748606,311.200035L276.326315,311.406597L280.486612,312.852613L287.428255,312.852613L284.488655,314.239747L280.438706,314.771026L273.284582,314.505384L273.781237,317.324393L273.717582,318.520059L273.027191,319.459932L274.606134,321.339865L276.667108,322.314379L278.800961,322.919792L282.529787,324.618039L293.931558,327.187947L301.743792,330.428070L305.101929,332.752745L304.854804,332.260197L304.185190,330.275403L306.565840,331.117553L309.106918,330.792507L311.478344,329.797715L315.369843,327.089475L317.433296,325.134938L317.997843,323.466162L315.500997,322.836115L315.622732,322.087971L318.985205,322.806582L319.757699,325.927551L318.236914,329.595810L314.700849,331.994229L314.577657,332.752745L316.869083,332.969471L323.600008,331.994229L323.477388,332.752745L323.145082,332.782298L322.487493,332.728117L322.159746,332.752745L322.025896,333.580263L324.608655,333.580263L324.474995,334.407829L321.418513,334.309307L320.162711,334.530983L319.860418,335.235443L318.481553,335.146768L316.459100,333.895520L315.422164,333.580263L309.390705,333.580263L315.392627,336.570564L318.381343,337.393376L322.128781,339.467860L326.064814,340.872372L326.553608,340.621028L327.448543,339.438293L327.863633,338.240872L328.010546,336.861252L328.294204,335.708387L329.100914,335.235443L331.423215,334.796998L333.361007,333.728039L336.237265,331.994229L340.725152,328.960568L342.014865,327.793568L342.135605,327.040239L341.984732,326.080172L342.873616,325.651855L343.833547,326.094941L343.911472,327.793568L343.291846,328.960568L340.020537,331.994229L346.697320,334.407829L347.830755,335.186179L349.730639,337.442647L351.085213,338.610436L348.067437,338.378841L343.438644,335.196032L340.639082,334.407829L334.326537,334.959566L331.235373,335.964571L328.359872,337.708717L329.321453,339.620625L329.915089,340.192275L328.898404,340.892086L328.511766,341.094150L329.822365,343.933208L332.302964,346.087521L337.934356,349.361512L336.974301,347.349694L335.423660,345.357878L332.624174,342.676264L332.745212,341.922151L335.063818,341.818648L336.030427,342.557969L336.603111,344.017008L337.768891,346.057940L339.217119,347.231361L340.904535,348.089300L342.421134,349.169193L343.366854,351.018514L340.320012,350.263963L340.199625,351.018514L342.104592,352.054237L343.723716,352.305782L345.348073,351.718852L347.276160,350.263963L347.002971,350.796583L346.259302,352.675707L347.429793,352.808883L349.452373,353.371193L350.619201,353.504375L349.072968,354.288694L347.508819,354.495880L346.062296,354.199901L344.867967,353.504375L346.097450,354.500813L359.093043,361.448194L362.483575,361.941743L369.617449,361.862774L369.244863,360.194655L369.827825,360.303225L370.080958,360.421666L370.451072,360.949726L370.827797,360.712837L371.088985,360.490757L371.354532,360.313095L371.780606,360.194655L373.142146,361.694966L397.467378,362.682098L388.357313,361.556773L388.179758,360.949726L396.925800,361.862774L398.102809,361.645611L399.775536,360.905309L400.900789,360.949726L401.996876,361.477806L401.999297,362.075004L401.213809,362.543895L399.939490,362.682098L402.638960,364.222158L417.180112,366.591801L427.363261,370.897645L434.837996,371.796503L439.357214,373.969796L440.489129,374.280999L452.752060,375.851933L454.864026,374.280999L456.122851,375.036804L457.696835,375.580218L460.949642,376.014964L460.415305,376.509009L459.967995,376.696751L458.932964,376.770860L461.555210,377.230345L469.247110,376.014964L486.576418,379.261147L491.295528,379.374802Z M613.224011,0.000000L612.224154,0.331356L612.145062,2.262047L613.502824,3.631012L615.342735,2.963322L615.877672,1.873002L615.227296,1.599237L613.224011,0.000000Z "/></g></svg>