<?xml version="1.0" encoding="utf-8"?><!DOCTYPE svg  PUBLIC '-//W3C//DTD SVG 1.1//EN'  'http://www.w3.org/Graphics/SVG/1.1/DTD/svg11.dtd'><svg enable_background="new 0 0 1000 1165" height="1165px" pretty_print="False" style="stroke-linejoin: round; stroke:#000; fill: none;" version="1.1" viewBox="0 0 1000 1165" width="1000px" xmlns="http://www.w3.org/2000/svg" xmlns:xlink="http://www.w3.org/1999/xlink"><defs><style type="text/css"><![CDATA[path { fill-rule: evenodd; }]]></style></defs><metadata><views><view h="1165.82877722" padding="0" w="1000"><proj flip="auto" id="robinson" lon0="12.6867069835"/><bbox h="192.25" w="165.04" x="87.6" y="-787.46"/></view></views></metadata><g class="" fill="black" id="country"><path d="M534.070078,1163.828777L534.914658,1163.509942L535.093454,1162.553400L534.844518,1161.869525L534.879069,1161.714286L535.034319,1161.491914L534.821907,1161.340867L534.099339,1161.139470L530.211252,1160.757647L529.254262,1160.531067L527.412722,1160.489108L526.782305,1161.001007L527.644514,1161.420586L529.312111,1161.890503L532.598515,1163.291788L532.969791,1163.304374L533.380885,1163.606432L534.070078,1163.828777Z M554.487111,1126.363163L554.820419,1125.993307L554.546000,1124.900519L553.929977,1124.299466L553.326947,1124.303669L552.796723,1124.404546L552.261666,1124.707175L552.191229,1125.287204L552.647138,1125.989104L553.170895,1126.363163L554.487111,1126.363163Z M475.145434,1025.545237L474.365255,1025.338921L474.007801,1025.119974L473.161176,1024.151555L472.619080,1023.924188L472.186842,1024.033661L471.592813,1024.513659L471.222352,1024.631553L470.238335,1025.414711L470.542192,1027.111560L471.282651,1028.799999L471.681432,1029.511588L473.785219,1031.949526L476.803639,1034.046413L479.714963,1034.416948L481.518030,1031.696890L481.253905,1029.347375L480.014521,1027.663144L476.690337,1024.631553L476.183789,1025.722079L475.718113,1025.848396L475.145434,1025.545237Z M498.573921,910.474286L497.955260,909.870068L497.228202,910.012729L496.545853,910.390366L495.716608,910.675697L494.564030,910.574991L495.067837,911.640821L495.864715,912.429744L496.867284,912.664749L498.055050,912.047867L499.086155,912.757073L500.441923,913.285847L501.735638,913.201914L502.613278,912.047867L501.422972,911.867423L499.899788,911.242177L498.573921,910.474286Z M478.165975,908.451913L477.661086,907.646385L476.924155,905.758574L475.985453,905.120960L474.524983,905.263582L474.094059,905.951541L474.700279,907.050654L475.636302,908.384784L477.115432,909.408526L478.327119,909.467267L478.165975,908.451913Z M773.839617,877.325519L774.300717,876.864932L774.526755,875.985671L771.526235,875.479075L766.678599,873.431943L764.113532,873.172410L762.828452,873.691480L759.678168,876.756068L756.503759,878.263489L755.564933,879.147080L753.784964,880.382523L747.361103,882.614966L744.948511,883.012905L743.473415,882.962638L742.073510,882.686176L741.014215,881.961533L740.550218,880.617060L740.875790,878.142052L740.549262,877.065914L740.047356,877.065914L740.364361,877.388328L740.100826,878.229989L740.040677,878.481241L740.182570,878.707371L740.485883,879.498856L737.707045,885.455228L735.708039,888.233176L731.223648,889.804640L729.829164,890.584146L728.407457,891.124794L726.787978,890.810462L726.307657,890.357834L725.385371,889.050317L725.026147,888.698313L724.189478,888.543266L721.551674,888.698313L719.383310,888.032041L718.373338,887.931474L717.792844,887.504072L716.179898,885.610243L715.348435,885.182908L712.983924,885.002760L712.193407,885.182908L711.425607,885.526451L710.298450,886.238699L704.055692,887.818337L702.351955,887.931474L699.605176,887.713581L698.703672,888.099085L695.763052,891.866645L693.531823,894.117560L690.869252,895.941162L680.826667,899.765109L676.894982,900.507360L674.138364,899.249327L670.303857,901.295777L665.913224,902.482665L661.087627,902.780449L650.847484,901.362878L648.342126,902.008738L647.126311,902.130364L645.191670,901.882919L643.425591,901.224482L639.818447,899.249327L638.764976,900.394133L633.084990,901.362878L631.981378,902.075842L630.985606,903.036295L629.861398,903.879358L626.473310,904.676322L622.858512,906.614356L621.054450,907.059044L615.670972,906.308115L613.866805,906.354261L614.031304,905.985100L614.066476,905.876032L614.397815,905.582389L613.186345,904.999312L609.256396,904.240085L606.784569,902.772060L603.712331,900.306069L601.188599,899.274487L600.309740,898.544870L599.707529,897.379229L599.529858,896.419106L599.602788,894.645754L597.202067,892.948050L587.052325,893.706754L585.685140,890.810462L585.351460,889.842357L585.069838,886.536178L584.559235,885.828105L581.298115,883.716655L581.077589,883.243295L580.960614,882.535380L580.778741,881.886138L580.337462,881.609696L579.685101,881.722785L578.578649,882.250548L576.964231,882.661043L576.068181,883.193028L575.118818,883.473690L573.813557,883.012905L573.202485,885.316972L571.319280,886.196802L568.998079,886.184232L567.114480,885.828105L564.173215,884.663418L563.336359,884.479088L562.386564,884.755585L561.477749,885.451038L561.032972,886.339255L561.545327,887.235905L558.776827,889.725015L558.999323,890.663775L559.828736,891.661270L560.044259,892.595956L560.222740,893.882812L560.395280,894.494840L560.281707,894.947587L559.627914,895.735734L556.896400,897.907531L550.105565,900.951888L546.537614,901.446754L543.838063,899.953814L543.733356,899.048051L542.699427,898.301672L540.294446,897.136048L539.385642,896.305907L536.890954,892.273211L534.609292,887.579495L534.084460,885.694036L533.115537,885.580916L532.157474,885.694036L531.597117,884.479088L530.691822,886.259648L531.155031,888.849171L531.390617,891.363692L529.734113,892.918708L528.668895,892.784577L527.327022,892.398955L526.191565,892.357040L525.773633,893.275001L525.410012,894.909858L524.389301,896.146592L521.947182,897.907531L519.227145,896.947376L517.082234,898.687437L515.009071,901.098669L512.511038,902.130364L513.497251,903.183094L513.463523,904.642765L513.012832,906.337481L512.631186,909.081258L510.856036,912.983688L510.655161,913.193520L510.627026,913.319421L510.734806,914.032872L511.008174,914.947809L511.808996,916.102037L511.994809,916.593130L511.954478,917.483006L511.600381,919.376230L511.420593,919.455993L510.954398,922.310883L511.131458,922.613190L510.768869,923.003676L509.600117,923.746881L509.458055,923.318590L508.055830,924.011418L508.079932,925.275366L508.920630,926.707375L509.955678,927.929491L510.703921,929.122278L510.998823,930.361335L511.169944,931.718081L511.620934,933.247146L512.482782,934.986378L513.802946,937.078676L515.319422,938.851818L516.808921,939.591367L520.144357,939.650196L521.368987,940.246897L522.851163,941.705094L526.586566,947.454689L528.600647,949.220179L531.823818,949.468198L538.722497,948.282773L545.502268,948.055783L552.270047,948.871275L554.957555,950.014689L557.229289,952.284848L557.617499,953.150922L558.240572,955.236339L558.824182,956.203420L559.641708,956.649129L560.504950,956.480936L561.708303,955.879654L572.026505,957.292476L572.484702,957.620463L573.378462,959.079627L573.843508,959.407633L574.816293,959.676770L575.512563,960.282335L576.518752,961.527147L578.407184,962.570137L578.924870,962.999119L581.184593,966.935930L582.147047,967.407033L583.233237,967.760365L584.033945,968.265132L585.639016,969.771064L589.308626,971.853396L593.595604,975.134895L596.276211,976.746301L599.339449,977.814999L603.206960,978.467172L606.160048,979.363401L608.725204,981.097009L616.155249,988.065809L618.959747,989.926018L622.022212,991.205478L625.658177,991.946232L628.911683,993.217325L634.279040,997.224405L637.999910,997.729519L638.830474,997.430660L640.350031,996.458324L641.096095,996.243655L650.466281,995.473377L653.651810,996.041614L660.702192,999.261725L666.790164,1003.100818L674.798692,1010.438597L677.014957,1013.343571L684.570203,1027.839988L685.601069,1029.035792L692.277003,1030.593711L693.626551,1030.282127L695.177908,1031.233723L700.213076,1033.128498L701.332557,1034.172732L702.513455,1036.004352L707.563536,1036.715947L709.026631,1038.054924L710.057856,1037.659126L710.295773,1037.899131L710.730134,1038.762307L716.130602,1035.979089L719.070789,1035.524342L722.189252,1036.640156L725.553973,1038.922310L727.713588,1039.848643L728.617483,1039.115998L728.931523,1038.467564L729.713900,1038.408615L730.893823,1038.762307L731.934671,1039.326528L732.610941,1039.970751L733.916033,1041.650777L735.527700,1042.926582L737.258693,1043.360270L738.959790,1042.846581L740.535432,1041.263404L740.521082,1039.970751L738.703516,1033.819040L736.988374,1030.475814L736.467493,1028.395783L737.475722,1027.461037L737.500432,1026.265239L741.173510,1015.494990L742.427217,1013.440405L744.173838,1012.556272L745.462156,1012.156310L746.677749,1011.297449L748.124096,1010.543848L750.096850,1010.438597L750.054878,1009.668162L749.662973,1008.986143L749.841138,1008.750385L750.554250,1008.316760L749.942663,1007.609493L752.814126,1005.980277L753.268974,1005.816094L753.742521,1006.367581L754.644809,1006.775937L755.268251,1006.451778L754.931346,1004.784698L754.157999,1003.492316L753.399957,1003.100818L751.699601,1003.311300L750.981202,1002.646177L750.767518,1001.358044L751.219266,1000.516140L752.497315,1001.189662L752.789835,998.689248L752.318477,997.182313L751.070981,996.441487L749.035122,996.243655L747.476577,995.422868L746.141339,993.697149L745.839823,992.173512L747.368015,991.946232L747.329263,991.239148L746.094479,990.599414L744.744835,991.596898L742.798570,989.412559L741.681960,986.193048L742.876392,984.109955L742.288389,982.830689L743.311013,982.342558L744.183222,982.342558L744.714969,983.091589L744.690454,984.880057L745.355306,983.832216L745.854785,982.628703L746.607536,982.191071L748.047359,983.466109L747.134582,980.996020L745.756823,979.237171L744.090601,978.176849L740.923879,977.579378L734.943726,974.364978L734.299430,973.544593L733.648586,972.105809L733.165085,970.364200L732.393342,960.139353L732.461116,958.276447L732.793454,956.522984L734.241151,953.647035L737.989643,948.955348L739.010951,945.172344L739.390834,942.953247L740.242419,939.927534L740.313870,937.797160L740.516637,936.801372L741.613923,935.629172L741.902835,934.595669L741.701144,933.423584L740.727878,931.466047L740.523147,930.361335L740.987588,928.945875L743.141656,925.426541L745.139897,923.738483L746.451204,921.567732L747.877835,918.322550L754.720055,906.798942L763.062417,895.584809L764.977824,890.244679L768.673954,883.716655L767.339853,883.758545L767.509932,882.263114L767.989723,880.960496L769.081760,879.574238L772.330808,877.388328L773.183089,877.463698L773.839617,877.325519Z M719.539753,866.137619L720.233000,865.455680L719.685540,864.058445L718.945495,862.849582L717.955000,861.883410L716.576275,861.239335L716.492794,859.775651L715.869295,859.775651L714.865264,861.900139L715.201853,863.527201L716.562611,865.045698L718.604299,866.853064L719.539753,866.137619Z M716.372494,857.668244L716.328788,856.903142L715.877762,856.480893L715.573195,856.012673L715.070040,854.796221L717.292445,854.796221L717.256308,854.165051L716.807846,853.905904L716.045648,853.136856L715.464740,852.693840L715.982981,851.214450L715.264771,850.621074L712.512485,850.587645L711.293732,851.310563L710.639218,853.019832L710.637116,854.766960L711.373469,855.561192L712.555386,856.087922L713.699148,857.133086L714.923554,857.927469L716.372494,857.668244Z M665.472240,848.874545L665.098659,847.625391L663.922058,848.030620L664.295334,849.275639L665.472240,848.874545Z M707.235228,847.850981L707.635407,846.672948L707.858120,846.184224L708.252998,845.745643L707.351988,844.555292L706.036295,844.166888L703.008719,844.279650L701.319096,845.532624L703.947260,847.562728L707.156650,848.849477L707.235228,847.850981Z M684.062259,846.986243L684.021602,846.622821L683.524579,846.092329L683.166267,845.014711L682.118602,844.204475L680.622630,843.853669L680.317409,843.966427L680.489685,845.231898L681.220823,846.560163L683.078511,847.078144L684.062259,846.986243Z M566.112686,833.075843L567.751958,831.507211L567.613526,831.181832L566.729243,830.564472L565.363374,830.589500L564.454481,831.348692L564.094608,832.124624L564.167683,832.896440L565.161698,833.276110L566.112686,833.075843Z M735.937387,824.488726L736.319188,823.850913L736.511267,823.208971L736.890290,822.525388L736.990272,821.700146L736.581705,821.312556L735.998387,821.058338L735.223829,820.887473L734.691748,821.041668L734.441974,821.508433L734.041867,821.950212L733.271483,822.308651L732.715345,822.858837L732.737715,823.238149L734.404303,824.651312L735.364859,824.876435L735.937387,824.488726Z M164.085248,789.578123L162.965118,791.663534L162.988112,792.361549L163.609655,792.361549L163.634717,793.121949L163.354942,795.295465L164.762180,798.633630L167.953185,803.586971L168.280951,804.302530L168.385926,805.026465L168.720924,805.550729L169.725815,805.683879L170.596799,805.446706L170.960641,805.001501L171.659615,802.226725L172.159892,798.770841L172.895083,797.307364L172.532290,796.559086L172.901209,795.869061L174.504765,794.518259L174.104548,794.268902L173.954287,794.422671L173.883159,794.518259L173.356645,794.938025L172.797223,794.979587L172.361989,794.692813L172.167615,794.131759L171.129198,791.152522L168.880004,790.757857L166.250635,790.915721L164.085248,789.578123Z M159.604926,790.965573L160.065545,789.357978L159.456889,785.226097L159.307142,781.909548L158.033792,782.407571L154.324397,783.167113L153.082071,784.001441L152.688719,785.608058L153.400376,786.928446L155.512538,788.938473L155.533417,789.578123L155.353972,790.703852L156.593137,791.414256L158.313545,791.551358L159.604926,790.965573Z M619.480002,628.656367L620.048798,628.311100L619.719972,627.527198L619.704945,626.946430L619.929389,626.337280L618.260262,625.326195L612.957915,623.608866L611.283158,623.608866L611.703530,624.583191L611.968156,624.972954L611.286076,625.439884L610.899020,626.357584L610.440013,628.311100L611.356187,629.062583L613.241540,629.883204L613.943884,630.419498L615.007735,629.834452L616.321066,629.387571L617.553904,629.273823L618.388995,629.676009L619.480002,628.656367Z M575.237716,620.771828L575.591147,619.712764L574.955279,619.834489L574.553615,620.297058L574.261875,621.266918L575.237716,620.771828Z M154.784073,589.434663L154.398011,588.755478L154.209441,588.173361L154.201102,587.401306L153.172159,588.149107L152.748211,588.622073L152.591707,589.095064L152.298786,589.495307L150.834394,589.313376L150.303881,589.434663L150.160547,590.453536L150.390709,591.812216L150.253515,593.001232L149.048136,593.510859L147.501686,594.760784L146.508838,595.788364L146.069731,596.593522L146.104414,597.552525L146.018517,598.507587L145.717624,599.438470L145.095092,600.357310L148.127087,600.571855L148.420791,598.337611L148.334315,595.586075L150.225212,594.242994L154.933855,593.510859L155.634930,592.568476L155.871487,591.363343L155.601702,590.210937L154.784073,589.434663Z M247.997307,581.097970L248.558294,578.384019L248.548105,577.665277L248.436710,577.241326L248.110918,576.486337L247.535245,575.985736L246.868467,575.860590L246.402410,576.696274L245.850708,578.040792L245.647184,578.925130L246.021442,579.563198L245.218659,581.461506L245.611643,581.748306L246.182844,581.501900L246.831448,581.986639L247.519687,582.778435L248.016709,582.834994L248.354520,582.123986L248.293560,581.627122L247.997307,581.097970Z M244.949204,578.375943L244.847450,578.020603L244.556049,577.604711L244.383251,577.148463L244.462024,576.316776L244.433359,575.473051L244.146979,574.698021L243.664401,574.023958L243.029939,573.870586L242.533379,574.298421L242.061531,574.358966L241.720168,574.504274L241.614245,575.327728L241.282570,576.026106L240.731932,576.441928L240.141633,576.708386L239.783725,577.100013L239.816653,577.891392L240.172874,578.743410L241.687827,579.013972L244.949204,578.375943Z M228.640456,575.218738L228.160204,574.750495L227.956229,573.850405L226.487405,574.528492L224.662277,574.992687L223.145363,575.808110L222.541127,577.544146L222.754320,581.639240L222.334511,583.154157L221.109120,584.754182L220.564145,584.006661L218.361263,586.075626L217.168219,586.499984L211.583983,587.130495L210.033584,587.821684L208.913449,590.259456L207.740808,591.719204L206.392754,592.976964L205.390517,593.510859L204.895745,593.854672L204.088110,595.598212L203.559765,596.281970L202.786451,596.690631L200.192424,597.584898L200.540874,597.771047L200.596607,597.827702L200.601033,597.941012L200.783143,598.321423L199.777758,599.130863L197.020221,603.758281L195.669864,605.179805L191.019483,608.517889L189.914790,607.987109L188.480873,607.772376L186.448545,607.837201L180.930383,610.244170L180.437398,611.727601L179.183008,613.264004L177.591909,614.577675L171.280210,617.169149L169.682299,617.420635L167.774108,617.250272L163.120602,615.992947L153.890345,614.808806L151.172237,613.336981L147.336431,608.886618L146.974002,607.744015L147.121699,606.455736L147.400012,605.264861L147.423737,604.438639L146.806923,603.665141L146.064992,603.689438L145.451942,603.576052L145.168610,602.397729L144.552992,602.397729L143.844718,603.543656L143.027315,605.382321L142.807297,607.087697L143.925150,607.837201L145.393048,608.453059L145.988364,609.932116L145.973051,611.743815L145.561499,613.336981L139.802824,626.950491L140.804630,627.238839L141.443290,627.868368L142.713295,629.676009L143.212156,630.139158L143.642101,630.358554L144.729888,630.419498L145.175852,630.712038L145.042737,631.305279L144.691405,631.792907L144.476656,631.784780L144.299767,634.174607L143.407440,635.670662L142.112943,636.601779L140.730012,637.309343L140.751550,637.923431L141.391874,640.506405L141.921990,642.048479L142.688573,643.448422L142.971291,641.185855L143.758570,639.168029L145.101239,638.077978L147.010510,638.606714L146.156289,640.046693L145.454790,642.019995L147.157460,642.764696L151.278667,640.420970L153.265390,640.290784L155.016833,642.019995L155.720733,644.266534L156.164706,646.745846L156.880561,648.761668L158.406265,649.596666L159.737544,650.619160L161.002331,652.966147L161.969167,655.607423L162.371092,657.462606L161.651292,662.680109L161.924056,664.684107L163.806771,666.084390L164.397770,665.337265L166.555549,666.725430L168.402430,668.424271L169.570827,670.670978L169.705605,673.682723L168.487461,678.319421L168.985698,683.634720L169.374163,685.489326L170.941219,688.167761L171.393287,689.540167L171.224855,691.044001L170.594069,692.593274L169.776299,693.802621L169.060681,694.290524L168.459902,694.413530L167.025650,694.926083L164.523016,695.077806L164.266218,695.040900L162.902358,695.840578L162.325981,696.664966L162.580947,697.034130L163.749653,696.418869L164.834609,697.829954L164.831184,699.077220L163.917918,701.236323L163.877860,702.402145L164.653251,706.122700L164.556172,706.812841L164.282007,707.441425L164.075956,708.094725L164.184101,708.883703L164.519305,709.623456L164.727591,709.808407L164.965240,709.870059L166.220479,710.942889L167.295139,711.658207L167.863141,712.509290L167.175813,713.644237L167.754005,714.400977L168.431269,711.818548L168.990734,710.881228L169.924704,710.264643L169.300638,710.313967L168.814001,710.252311L168.454227,710.355071L168.196984,710.889449L167.609955,710.264643L169.844280,708.735762L172.420596,708.908360L174.891081,710.276974L176.766848,712.328374L177.505377,713.804626L177.680170,714.943908L177.538014,718.169501L177.317081,719.544139L176.714317,721.359583L175.864663,723.051963L174.930476,724.065120L175.484432,723.731503L175.932756,723.266114L176.296508,722.693687L176.554910,721.997780L177.107004,721.997780L176.342044,723.224931L175.103645,724.781834L174.086105,726.499778L173.943877,728.218147L174.806560,729.009481L179.094464,730.287344L176.835655,730.798555L175.049365,730.180160L173.578610,728.753936L170.863078,724.831265L170.109668,724.271065L168.971290,724.065120L168.822200,724.621185L169.115854,727.270313L168.798392,728.218147L168.822297,728.910560L169.236466,729.982285L169.637053,734.567809L170.813492,738.797183L171.022145,740.749718L170.408766,742.120519L171.055032,742.884480L170.149028,744.767879L168.908894,748.126965L167.853945,749.813273L165.682474,752.583269L165.088351,753.757721L165.028852,754.191982L165.329729,754.514593L166.607725,757.207673L166.738688,758.089022L166.485901,759.591268L166.041788,760.423214L164.647322,762.083230L164.334284,763.006531L165.067703,764.956993L168.053326,767.061208L167.977691,768.623155L169.415800,770.848514L169.006934,772.738678L165.037375,777.366419L164.650148,778.104772L164.766916,778.975945L165.423740,780.452994L165.880155,780.776651L166.468838,780.813997L166.985076,781.108620L167.245266,782.229110L167.356318,783.129757L167.602820,783.839550L167.991402,784.354290L168.516146,784.698851L168.226295,783.702568L168.734127,783.540683L169.545136,783.964081L170.150476,784.698851L170.464330,786.006645L170.494326,788.523141L170.880779,789.578123L171.857477,788.888632L172.774487,789.445205L173.498043,790.678927L173.907030,792.403100L174.306915,793.047153L174.373895,793.433606L176.135085,792.361549L177.295631,793.121949L176.598823,794.705281L176.230827,795.216494L177.602820,795.428469L179.581816,796.409437L180.211745,795.852434L180.833391,795.852434L182.035980,800.255342L182.867564,805.683879L184.779058,805.234503L185.852892,807.007166L185.897078,809.521080L184.698097,811.265386L184.721735,811.969024L186.037619,812.289634L187.499531,812.327108L188.323632,812.901735L187.718969,814.825729L188.256538,815.525456L189.409736,814.825729L189.048492,812.739337L190.409380,810.790770L192.501924,809.292137L194.301788,808.538744L196.215241,808.738533L198.502664,809.787493L200.587176,811.419432L201.850906,813.363959L201.778748,811.265386L203.705475,813.018330L204.863980,813.863686L205.853643,814.126052L206.508767,813.709601L207.378884,812.277142L207.787462,811.969024L208.657035,811.889915L209.209612,811.640098L217.365356,803.403929L218.009688,802.126898L218.641534,802.601085L218.902062,802.705076L219.760276,802.126898L219.145204,802.126898L219.930923,798.554631L221.152074,796.409437L221.031415,795.677858L220.512308,795.141681L220.010384,794.518259L219.336081,792.847699L218.784862,791.027889L218.482812,788.996621L218.597511,786.720825L219.183048,784.773577L220.159153,783.366348L223.386161,779.967531L223.445015,779.540180L223.415369,778.718732L222.990820,778.179440L220.940440,778.610871L219.993340,778.370263L219.922354,778.461527L219.681076,777.947141L218.979342,777.582111L218.476141,777.105108L218.838049,776.279749L218.810626,775.516674L217.700379,775.052229L217.802924,774.712204L218.670270,774.616834L219.868006,774.886361L220.619749,775.516674L221.312396,776.379285L222.010679,776.835509L222.760210,776.279749L226.258875,780.054663L228.260210,781.805796L230.704473,782.544533L230.985091,781.905398L231.865512,780.494488L233.184177,779.071364L234.724862,778.370263L237.733160,778.660653L239.310182,779.133595L240.503474,779.818163L241.042593,779.058918L241.682443,779.747629L242.760594,780.419799L243.934559,780.942634L244.813287,781.150117L245.525091,781.589998L247.495636,783.557286L248.322517,784.001441L248.815427,784.362592L250.996839,786.720825L252.707272,787.489048L253.477005,788.024768L253.916395,788.938473L254.537836,788.938473L255.752115,788.174277L257.014708,787.800509L258.319046,787.999850L259.644462,788.938473L259.317365,789.760888L259.295872,790.267667L259.612967,790.616613L260.274598,790.965573L260.540973,788.888632L261.904115,787.958320L263.395134,787.376925L264.074298,786.405250L264.210727,785.371406L264.909864,783.328991L265.048880,782.544533L264.698255,781.847297L264.083228,781.299508L263.790755,780.710259L264.391532,779.818163L263.824694,777.341532L264.903231,774.467561L266.920649,772.154173L269.157360,771.345884L269.132968,770.711743L267.170681,769.348299L266.464727,768.362119L266.150548,766.858219L266.228181,765.367024L267.055323,760.919940L268.910216,755.519734L269.271340,752.318629L267.838900,750.507744L269.617029,743.900465L269.736038,741.088265L268.993151,736.581094L269.121238,735.211339L269.463711,734.155321L269.816524,733.363410L269.974032,732.744791L270.097687,731.268571L270.799115,729.586552L270.940533,728.564345L270.783395,727.146692L270.260889,724.666496L270.115672,723.381429L270.138477,720.902589L270.474913,718.358806L271.110559,716.235605L272.085337,715.026175L272.060345,714.400977L271.661932,714.199445L271.304722,713.849865L270.912892,713.644237L270.887918,713.019170L271.439766,713.019170L270.904928,711.929555L270.897940,710.745574L271.271987,709.500158L271.811686,708.193342L272.198257,707.934476L272.756197,707.922149L273.271573,707.687946L273.502999,706.751218L273.302283,706.110377L272.810348,706.089838L272.224315,706.406142L271.753788,706.751218L270.869089,703.987019L271.244689,700.784829L273.989054,693.158974L274.087409,691.609566L272.214833,690.359652L270.266881,687.909699L269.572321,687.356743L268.340447,686.812025L267.427111,685.501610L265.274881,680.311650L265.068779,679.370688L264.547374,675.129816L264.592213,673.588713L265.210850,671.627073L266.055582,670.274687L268.022086,668.608065L269.042308,667.452287L270.387247,664.565728L271.284981,663.218806L272.496870,662.655624L274.287478,662.129213L275.251879,660.782759L276.448472,657.120074L278.162037,654.286663L278.795818,652.758310L278.986830,650.594716L279.192437,649.580372L280.066292,647.869751L280.003980,646.868001L279.492601,646.192101L277.072025,644.132211L276.586646,643.114691L276.462679,642.239735L276.115147,641.629362L274.965495,641.397433L274.416263,641.092275L273.967760,640.311126L273.650345,639.298195L272.987960,633.109660L272.617174,631.784780L269.927862,627.117001L269.529171,625.285591L268.948494,623.905210L266.508140,620.990962L265.958748,619.712764L265.924941,620.820524L264.987537,619.871007L265.270664,618.958115L266.294963,618.471282L267.567210,618.783663L267.540867,618.158913L266.764068,616.889278L267.567231,616.244396L270.235984,615.380579L269.156367,615.185928L268.192155,614.869631L267.377537,614.289785L266.788245,613.336981L265.879114,614.005959L265.184819,614.054614L264.705432,613.482935L264.494008,612.278890L264.011012,611.938384L260.993663,610.552183L260.967614,609.932116L261.766314,609.822698L262.378161,609.409351L262.818569,608.740746L263.182089,607.837201L261.562530,607.525237L260.362345,608.112711L259.170746,608.906879L257.578816,609.255364L257.075160,609.056807L255.565789,608.177538L254.708199,607.837201L253.883956,607.974954L253.165220,608.396333L252.501875,608.380126L251.817463,607.213285L252.495785,607.107953L252.382792,606.966162L252.415928,606.475990L256.176861,606.783864L257.286020,606.419278L256.840471,605.050197L257.808653,603.721835L258.034746,601.936163L258.383165,600.357310L259.726089,599.677278L261.006845,600.061813L262.378559,600.697346L263.635072,600.822839L264.523195,599.677278L262.979755,598.778747L260.598140,597.989574L258.325651,597.880310L257.148401,598.997300L256.766885,598.993253L256.520081,598.851598L255.996039,598.321423L255.900050,598.584483L255.937521,598.839456L255.877418,599.001348L255.462450,598.997300L255.798750,597.447313L255.477822,596.496413L254.558383,596.265785L253.073387,596.905085L253.748186,598.321423L252.075676,598.321423L252.780823,596.787742L253.993929,590.793187L254.153763,591.254162L254.421454,591.735380L254.615417,592.212581L255.435719,591.205637L255.878328,590.283716L256.070391,589.289119L256.126147,588.076345L255.837295,587.886359L255.737683,587.902528L255.687806,587.829768L255.535984,587.401306L254.974350,587.401306L254.454595,587.918697L254.005120,587.724672L253.454942,587.203250L252.645741,586.722275L253.229846,585.986716L252.508765,585.057248L252.058590,585.162314L251.712492,585.675536L251.244219,585.986716L250.112892,585.792732L249.036335,585.469435L248.017611,585.408818L247.012225,585.986716L247.505086,586.261533L247.738905,586.576775L247.894866,586.948613L248.181249,587.401306L247.415600,587.959119L246.929512,588.808032L246.089491,590.793187L245.491110,588.468457L245.469548,587.470020L245.919747,586.722275L245.058340,585.946302L244.515193,585.105740L243.957247,584.390515L242.998674,584.006661L243.261935,583.586460L243.427269,583.222839L243.634386,582.899634L244.062920,582.596639L244.037126,581.978560L243.208289,581.978560L242.529149,581.881610L241.911811,581.663477L241.201547,581.299933L241.229774,581.978560L238.152837,579.345119L236.751350,578.908977L236.669845,581.299933L235.283166,580.415369L234.929476,579.942828L234.361514,580.269969L233.886292,580.415369L232.722646,580.560771L232.697208,579.942828L232.926030,579.494543L232.994084,579.199736L232.613372,577.907543L232.038660,577.907543L231.796209,578.836289L231.718849,579.555121L231.828653,580.112455L232.147851,580.560771L231.223864,579.870132L231.135834,576.429816L230.240750,575.138005L229.353198,575.327728L228.640456,575.218738Z M312.064535,467.416345L311.236727,466.355991L310.504317,467.012202L310.370894,468.668845L311.924601,469.073025L312.064535,467.416345Z M363.029359,468.410193L362.146941,467.436560L361.899735,466.183636L360.660347,464.026338L359.165832,462.899270L358.089580,462.363217L357.531953,462.891269L357.637663,464.105190L356.491580,464.907609L357.358061,466.109809L360.540833,468.940965L361.747500,469.583656L363.029359,468.410193Z M292.973642,444.202112L293.147191,443.522679L293.128320,443.123022L292.962938,442.851259L292.581390,442.355700L292.218310,441.548443L291.896802,440.497452L291.502485,440.573378L291.007955,441.900116L290.244212,442.723372L289.429054,443.019112L289.276022,443.714517L289.980014,444.298034L291.069627,444.617776L292.211858,444.645754L292.973642,444.202112Z M319.152735,420.720839L319.135998,419.570880L319.483958,418.564703L320.044692,417.846025L319.599000,416.863859L318.946338,415.981534L318.187091,415.354739L317.386917,415.107218L316.395491,415.550362L315.811990,416.616327L315.060462,419.123686L314.549518,419.646744L313.854042,420.054017L313.237430,420.585078L313.003987,421.503476L312.418877,421.731084L311.232514,421.719104L310.337354,421.156079L310.652252,419.730594L307.601626,419.790487L306.195907,419.622787L306.201122,419.730594L306.236658,420.465289L305.202595,421.136113L305.508594,421.299829L305.640116,421.279863L305.691502,421.383683L305.794533,421.870844L303.872762,421.994632L302.416024,421.870844L301.406224,421.535421L299.555242,420.648965L298.698560,420.465289L296.969950,420.609036L294.941640,421.136113L293.255878,422.182311L292.501639,423.875476L293.063021,426.487304L294.600754,427.889169L296.450358,428.460320L303.172385,428.644050L303.620725,428.596120L303.983481,428.008990L304.348175,426.499286L306.038353,427.745384L309.153694,426.255664L309.982205,427.901151L310.799268,425.756446L311.846178,425.756446L312.976565,426.655045L314.064794,427.230163L314.321639,427.605595L315.229600,429.374986L315.586865,429.906227L316.575350,430.333623L317.393876,430.265719L318.021374,430.357590L318.436079,431.248356L319.605343,429.950164L319.064903,428.116829L317.587517,426.499286L316.000499,425.888239L317.445108,425.349091L318.495940,424.618264L319.237333,423.524056L319.699413,421.870844L319.152735,420.720839Z M268.811433,401.854592L270.295025,400.236670L271.237785,398.342068L270.578355,396.939211L270.277619,396.731717L270.093163,396.464371L269.946251,396.292791L268.738964,395.365305L267.245777,396.171574L265.601796,399.894798L267.069939,401.918722L268.811433,401.854592Z M464.680438,163.943951L463.195403,163.658656L461.857837,164.514526L460.388557,166.431042L458.648703,169.709126L458.123508,171.496546L458.277551,172.103021L462.223984,164.743554L464.515455,164.771681L465.603325,164.960526L466.649137,165.422587L464.680438,163.943951Z M460.231238,163.614455L460.995717,163.204586L461.063831,162.067352L459.678558,161.163140L458.289348,161.163140L457.320069,162.718357L457.725009,164.024314L459.070319,164.265404L460.231238,163.614455Z M436.605298,0.000000L432.876302,0.633875L431.548708,0.859533L423.727974,4.441247L418.081847,4.672154L414.641116,5.708662L411.362329,7.268528L408.732599,9.131087L405.159579,9.623656L404.310055,10.105960L402.815196,11.196262L401.906802,11.378405L400.393089,10.896110L397.728903,9.264492L396.211306,9.131087L395.616521,9.202920L395.014831,9.156742L394.914868,9.131087L394.873841,9.131087L390.746095,8.417882L388.867752,8.569246L386.595582,9.146480L386.587376,9.146480L386.571560,9.156742L386.563355,9.156742L385.836567,9.500514L385.096690,9.618525L384.368079,9.505645L383.683289,9.156742L383.236980,8.674431L382.756034,8.302434L382.224185,8.043318L380.812982,7.758545L380.026140,7.915042L379.346935,8.374268L378.784125,9.146480L378.776509,9.156742L376.204876,11.391232L373.769756,11.286051L371.240911,10.254755L368.379883,9.726274L362.861338,10.521560L357.448996,12.050534L356.069974,12.779093L351.175539,17.155404L350.586564,18.376406L349.942649,21.867408L348.617295,24.927308L348.572569,25.306898L348.719909,26.337933L348.607760,26.835490L348.280458,27.156078L347.420312,27.497182L347.106428,27.763908L345.467706,30.379803L344.413584,31.382527L343.287118,31.518445L341.918341,31.131207L339.136576,30.897837L337.781573,31.061965L335.169401,31.831310L334.383349,31.882599L333.554142,31.592814L332.144322,30.595224L331.412284,30.277222L330.598321,30.266964L329.106465,30.636256L328.324521,30.610611L325.980493,29.497595L325.046125,29.233442L323.394464,29.687374L322.538632,29.661728L322.015554,28.792330L322.359006,28.302486L324.059311,27.074008L324.408464,26.386663L323.582479,25.383841L317.337983,22.264974L316.099621,21.987960L314.702470,22.121337L306.722204,24.027053L303.412371,23.714141L300.739763,21.921272L300.487996,25.117103L300.247136,26.009645L299.811864,26.640571L298.171842,28.430718L298.396621,29.907926L299.038723,31.351753L299.307109,32.718605L298.410872,33.972588L297.101564,34.713679L296.828135,35.621435L296.960766,36.752259L296.861146,38.159980L296.157342,39.331766L295.330618,40.036874L295.001214,40.980420L295.765305,42.877704L297.278647,44.313431L300.682986,44.626208L302.406664,45.826019L303.106704,47.738466L303.182525,50.299364L302.676971,52.757566L302.226432,53.451524L301.648485,54.341601L300.220829,54.579969L294.451916,53.290711L291.690622,53.516271L290.662966,53.372733L289.747856,53.016450L289.222602,52.560198L288.777421,52.060365L288.127762,51.583595L284.795762,50.614658L284.387205,49.538033L284.719358,47.500056L284.505996,46.379766L283.194019,45.487614L281.147002,45.502996L273.707443,47.366751L272.960666,47.728212L272.652008,48.461379L271.835284,51.696380L271.215081,52.455105L269.569226,53.931501L268.930250,54.813210L268.858809,55.525739L268.950963,57.704250L268.657892,58.760141L268.802369,59.677613L269.027569,60.397735L269.442177,60.953834L270.153864,61.358730L268.848457,63.413889L270.166844,64.756596L272.544485,65.540672L276.139814,66.135122L277.538969,66.611700L278.179074,67.713439L277.686552,69.875818L277.143432,70.541924L275.536012,71.833108L274.982873,72.796338L274.646339,74.138663L274.642246,75.045469L275.005341,75.880526L275.785815,76.987071L279.218561,79.871072L280.329391,81.638219L279.377713,83.533302L277.212437,84.741994L273.903666,85.843089L271.263046,85.796997L271.085920,83.558911L270.194405,81.873830L266.926608,79.466406L265.689001,78.103822L265.062568,75.931756L264.932684,73.969594L264.325715,72.355715L262.276615,71.228512L260.619377,70.862163L259.065896,70.762249L255.615013,71.277188L250.424020,73.623770L248.790517,74.087430L247.759747,73.897868L245.766750,72.888560L244.909118,72.870628L244.084664,73.713429L243.982589,74.845666L244.160261,75.970178L244.164870,76.751421L243.015165,78.206274L241.540354,78.728774L232.396559,78.636569L230.514737,78.052595L228.778786,77.063913L227.708568,75.860034L225.950286,72.283985L225.218253,71.781871L223.415919,70.939020L222.816526,70.452257L222.633997,69.896313L222.678517,68.384714L221.755223,58.872904L221.470871,58.250139L220.850984,58.370592L219.605096,59.185564L219.091411,59.818563L218.844447,60.523307L218.485293,61.117843L217.634774,61.415107L217.023317,61.189597L214.912606,59.523848L214.797959,58.296270L213.200916,57.934908L209.343269,58.344964L207.876493,59.559727L206.603303,61.948127L206.089034,64.377364L206.916278,65.717470L208.007607,66.350351L208.209753,67.344489L208.061300,68.594805L208.134598,70.011602L209.367059,73.528988L209.532786,74.804681L209.138639,76.987071L206.998793,81.187478L205.973888,84.736873L205.294150,85.740663L204.404540,86.483241L203.465798,86.872446L202.625148,87.425518L202.224488,88.408731L201.905180,89.550649L201.365021,90.503803L201.324811,90.574750L195.678799,93.954014L194.287797,95.863624L194.031602,97.143446L194.304788,99.375308L194.103495,100.593537L193.509477,101.519967L192.767359,101.903837L191.038925,102.379827L189.052804,103.746331L188.756101,104.872234L190.329177,108.321273L187.796331,110.414000L187.633795,110.659589L187.587311,110.915408L187.656207,111.166109L187.840714,111.416807L188.732851,112.168884L189.473356,113.969681L190.241475,114.900720L191.034921,115.284380L192.791176,115.586188L193.561299,116.000527L194.543181,117.642468L194.312560,119.325207L192.470364,122.674970L190.036930,125.385097L187.614686,124.996496L184.950473,123.989167L181.821759,124.822645L182.052552,123.298840L182.480304,122.122677L182.748742,120.895311L182.541397,119.182000L182.038532,117.887982L181.312692,116.593890L179.831653,114.460783L178.977944,112.880010L178.430176,112.250741L177.877538,111.887497L173.202240,109.764199L171.964035,109.390684L170.590090,109.313934L170.710698,109.047864L170.995617,108.572001L172.278563,105.788272L174.460793,103.388079L175.539809,101.064434L173.409104,98.750815L172.188628,98.387374L169.740239,98.438563L168.454671,98.284996L167.828628,97.926667L167.202869,97.000109L166.945885,96.919495L166.533790,96.790221L166.047360,96.989871L164.850473,97.936905L164.293022,98.213330L162.887703,98.151903L159.086638,96.278293L157.524275,95.817549L156.734217,95.474545L151.422791,89.053946L149.070569,87.046563L146.828878,86.088909L144.712716,85.366806L143.201582,84.322031L142.261309,82.729187L141.847288,80.311588L142.012847,77.760604L143.091814,72.624700L143.244063,69.768214L143.077524,66.775682L142.654316,64.536232L141.502183,63.173017L139.198936,62.827079L138.151661,63.022715L134.795419,63.649636L132.671914,64.664351L131.039427,66.211990L130.424133,67.470035L130.746121,67.890227L131.287434,68.236112L131.361706,69.240441L130.921290,70.147386L130.164117,70.964639L129.274473,71.566677L127.057591,72.550409L123.317223,77.007562L121.709180,77.996246L118.274859,78.662181L116.580017,79.348591L115.076926,80.711120L114.316136,81.679195L114.011540,82.514070L114.307156,82.898207L116.226166,84.296423L118.741653,88.219261L119.110414,91.854823L117.506974,95.064983L114.121428,97.675834L113.265066,97.926667L111.620967,98.080237L110.841705,98.612606L110.312676,99.631243L110.184337,100.767565L110.220011,101.878245L109.910534,104.698234L109.769837,104.897822L109.052044,106.371653L109.002733,106.586579L108.047951,107.707236L107.494391,108.116596L106.734609,108.321273L101.113842,109.426501L99.992692,110.226547L99.180320,111.660777L99.036274,113.543073L97.394152,113.608170L97.302012,113.770167L97.093575,114.788179L97.179614,115.304842L97.002481,115.637341L96.021170,116.107948L95.557809,116.087487L94.114242,115.708956L91.918449,115.744763L88.031373,114.532401L87.249646,114.609135L86.656035,114.854681L85.992250,114.992799L84.998304,114.701215L84.873175,114.450552L83.298425,112.557704L82.064666,111.595875L80.785957,110.971688L72.578554,109.211599L71.263166,109.810249L70.528687,110.935874L69.689888,111.923310L68.020286,112.107491L65.674612,112.997677L61.059457,115.985182L58.526991,116.762689L52.501751,116.210252L51.463871,116.522278L49.259910,117.724306L44.389920,119.473528L41.991120,119.862225L39.381722,119.903141L36.912694,119.468413L35.020315,118.506869L31.314955,115.038839L30.183100,115.509457L29.371959,116.419975L28.768658,117.611778L28.310622,118.946729L27.274461,120.532202L25.703674,121.713562L23.921247,122.511329L22.233736,122.945998L20.258194,122.930656L19.706947,123.002248L19.666114,123.508884L19.606322,124.192950L19.538429,124.637581L19.045526,124.774389L18.553718,124.124544L18.019351,123.850920L17.320322,123.611495L15.168277,124.178365L13.958273,124.817532L12.990367,126.274764L12.614787,127.900614L12.615726,129.664369L12.889648,131.433090L13.927728,135.532272L15.610878,137.637772L17.816525,139.032801L19.921716,139.400705L21.000552,139.748164L22.873442,141.311654L23.964606,142.016717L26.581969,142.588924L27.586963,143.186659L28.125446,144.657928L27.954337,145.219842L27.095076,146.956566L26.907951,147.778901L27.092381,148.575665L28.009493,149.740107L28.349167,150.475507L28.927583,154.560545L29.581106,155.995204L33.302265,157.771780L36.867784,160.053509L37.150434,160.424531L37.692163,161.135571L38.289838,162.365572L38.974460,163.473012L40.067651,164.177246L43.543058,165.478476L44.178945,165.891787L44.139196,167.121460L43.479281,168.626543L41.911995,171.207840L39.411164,173.895854L39.016864,174.477266L39.522405,177.338134L40.453483,179.316487L40.507364,180.866371L38.381367,182.456891L36.938899,184.878056L36.416244,185.357149L35.988615,185.224635L34.948414,184.164487L34.301487,183.924924L31.496211,184.602826L28.664828,185.739394L27.657133,186.600685L26.335205,188.720590L25.188364,189.647959L24.463343,189.800817L22.588779,189.821198L21.966379,190.065767L21.571242,190.901350L21.962624,191.436303L22.442574,191.889726L22.305443,192.501061L19.727906,193.596310L16.810201,192.709928L13.818193,191.324219L10.991473,190.911539L10.394589,191.181566L8.982601,192.154640L8.296851,192.501061L7.669131,192.592759L6.215315,192.546910L5.505257,192.658985L2.766007,194.049669L2.506051,194.243888L1.347797,195.109155L0.429248,196.224592L1.900993,198.098751L3.240378,199.081574L3.387364,199.774094L3.321618,200.563326L3.566388,201.454344L4.576718,202.905317L5.444281,203.536574L8.266997,203.765652L10.420152,205.099328L11.027906,207.922791L11.051037,213.433373L12.523156,215.493608L15.223199,217.477282L20.860931,220.289608L22.393441,220.625223L26.335471,219.933644L27.735456,220.035349L31.816363,221.479486L33.309969,222.857400L33.659387,223.350574L33.853797,223.930161L33.839102,224.230115L33.773299,224.494477L33.797767,224.967268L33.650522,225.038439L33.304298,226.588890L33.250422,226.715970L34.237984,228.845688L34.753550,231.274977L35.090017,232.113462L37.674181,236.142725L38.184156,237.422961L36.745392,237.448362L33.815512,236.696489L32.334680,236.706649L30.517339,237.590605L29.089843,239.180603L28.583007,241.176803L29.560862,243.264212L28.461903,244.000593L25.838341,248.179676L21.824632,250.926339L21.010702,252.246235L21.362215,255.301992L23.261721,258.052829L25.786799,260.306035L27.946763,261.843572L25.281879,263.147609L24.743444,263.994942L24.170554,267.059304L23.990102,267.647781L23.990004,268.144932L24.320258,269.047896L24.668655,269.494293L26.505549,271.315314L27.171578,272.279035L28.189131,274.272307L28.664362,275.012774L29.412321,275.677148L31.047782,276.686359L31.815836,277.447047L32.357230,278.410557L32.655197,279.328398L33.051249,280.185361L33.836046,280.940889L34.925421,281.326251L35.880288,281.189347L36.838478,280.905395L37.920358,280.824265L38.947084,281.082865L43.770678,283.293554L47.044206,284.327859L55.793946,288.956481L57.332994,289.519173L59.447549,289.828396L60.520469,290.188308L61.105108,290.903052L61.568153,291.719160L62.350921,292.367978L63.132977,292.525112L66.383368,292.596076L80.305609,289.052798L82.628606,288.890580L85.880676,286.989522L88.390936,287.384951L87.398829,290.573562L88.451540,292.398392L90.296451,293.964631L91.311277,295.748627L91.654489,296.351881L91.558969,298.049730L90.696096,299.103881L89.555851,299.889409L88.702693,300.761075L88.228992,301.957052L87.641859,304.156349L87.056889,305.286361L85.316692,307.044668L81.251214,310.135489L79.704510,312.420552L76.324436,315.807446L75.135191,317.838986L75.617631,320.318798L77.370647,325.023855L78.227243,325.031833L79.074768,325.334971L79.729913,325.781700L80.783877,325.781700L83.018885,325.111606L92.972301,325.123572L96.312563,324.433530L100.210347,322.108083L114.168159,319.080508L119.837636,315.681806L121.782106,315.235015L122.738870,314.784231L123.136471,314.006322L123.314680,313.511646L123.787056,312.965104L124.388037,312.510314L126.464304,311.744342L128.750921,309.302736L130.617929,308.919729L130.594171,308.317285L129.277569,306.298445L130.515957,304.000217L134.181401,300.217462L134.739858,299.044262L135.179973,297.543795L135.248111,296.777577L135.086869,295.205187L135.315005,294.494798L137.104902,292.064205L138.116003,291.046421L139.301234,290.112430L141.579962,288.914968L146.043528,287.633638L148.039140,286.767415L149.098672,285.673627L149.082671,284.635692L148.874645,283.561794L149.260294,282.384057L149.679430,282.028731L150.871924,281.306089L151.105373,281.070528L151.168771,280.371819L151.382723,279.820826L152.165453,278.722802L151.666553,276.806153L153.324906,274.805515L159.168717,271.295064L161.075119,269.613560L162.019829,269.282039L163.389487,269.066349L168.207663,265.930645L168.820954,265.842760L169.480855,265.926650L170.098012,265.930645L170.628644,265.595081L171.439571,264.748163L173.704285,263.054240L174.681783,262.582797L176.702174,262.255178L181.928032,262.614759L182.841790,263.721436L183.474321,264.084990L185.347480,264.452534L189.072235,264.532434L189.796052,264.272758L192.202402,265.427298L196.154922,266.657683L204.345458,267.963903L206.649871,269.006434L208.248322,271.295064L208.140743,272.421333L209.669485,273.427746L213.410327,274.701685L213.269912,273.176146L213.529924,271.942075L214.074215,270.899660L214.806547,269.953065L217.469602,271.650523L226.127056,275.771909L226.779691,277.992094L230.709279,279.465470L231.303796,280.399767L231.949641,281.162357L233.337336,281.338029L234.832286,281.130416L235.773290,280.735149L236.265288,282.004776L237.055267,282.895080L238.070642,283.541833L241.792521,285.022926L243.165368,285.861250L243.781568,287.102730L244.293178,287.222484L247.247271,290.112430L248.065959,290.471660L249.062405,290.695179L251.435776,290.842861L252.270541,291.261954L254.546251,293.105907L255.466664,293.524974L259.740295,296.865373L263.694761,298.437697L264.264246,299.211864L264.799241,300.504772L265.633303,300.616503L265.918507,300.113711L264.832638,299.547066L265.247720,298.733000L265.457272,298.437697L265.917100,298.150373L265.888211,297.543795L265.121316,297.320316L264.490763,296.921244L263.969310,296.326619L263.537040,295.532441L263.882248,295.324915L264.242996,295.029587L264.609807,294.861967L264.022960,294.135607L265.495835,293.999911L268.183759,296.039280L269.060370,295.532441L270.443594,296.817484L273.244930,298.733000L274.576112,299.882266L275.331584,300.273328L276.129008,300.169577L276.760511,299.762552L277.010164,299.211864L277.345075,298.792858L278.162110,298.960461L279.505864,299.547066L281.183398,299.962075L284.237115,301.757737L285.756713,302.164744L287.028114,303.010667L289.690836,306.741320L293.376642,309.039419L295.928128,312.474409L299.641714,319.690820L300.823088,323.340618L304.480534,346.947628L306.668708,354.389446L307.484010,355.932855L310.199762,357.069480L311.413447,358.253967L316.890530,364.587308L323.972898,376.525037L324.983056,378.487560L325.467292,380.501994L325.793915,384.515093L326.214496,386.577594L326.966344,388.257173L326.441404,389.525868L326.249601,391.640429L326.353694,393.723161L326.690093,394.896235L325.175474,400.339065L324.093868,402.138866L322.124605,403.659383L324.152615,408.520661L325.775718,410.013501L328.006667,409.083462L327.735442,408.688303L327.327511,407.674481L330.869769,406.636740L334.880087,406.756477L338.904681,407.682464L344.662512,410.013501L345.736740,410.700070L346.555234,411.694022L347.006230,413.011354L346.786891,413.646087L346.331647,414.069249L346.114082,414.739933L346.287763,416.987626L346.262720,418.844193L345.567873,420.425359L343.680196,421.870844L356.874641,425.848302L361.273896,427.901151L363.729253,430.153876L364.470617,430.521361L365.216920,431.112542L365.746396,432.510661L366.206055,434.096622L366.710819,435.271178L370.708590,437.320795L372.766551,438.775211L373.118023,440.693260L374.493936,441.264710L375.378628,442.847263L376.184272,444.693716L377.290145,446.060670L377.982322,445.976732L378.889182,445.557045L379.687467,445.473109L380.395710,447.223849L382.224339,449.718303L382.479497,451.301476L382.561720,453.702875L381.969344,456.038816L380.790213,457.677175L378.970320,457.778497L376.583117,457.035365L375.467974,457.379455L374.541567,458.696603L374.583202,459.787176L375.293148,461.323158L376.340677,462.451224L378.654201,463.147300L379.801611,464.403503L380.491798,464.907609L380.603872,464.763577L381.193458,464.607544L382.003634,464.607544L382.769627,464.907609L382.902340,463.627367L384.014956,462.039192L384.214441,460.515152L384.738107,459.735179L386.035698,459.411199L387.522166,459.399200L388.625113,459.543190L394.764827,461.535165L397.136230,461.555166L396.496548,460.883150L397.395910,460.815150L398.290873,460.915150L399.140990,461.171154L399.918237,461.555166L399.956801,462.283210L401.988534,462.907271L407.729212,465.587774L411.848891,466.620073L421.941508,473.455586L424.039666,476.133708L428.896179,484.326928L429.536473,485.961275L429.839368,487.503649L430.258140,488.361036L432.155792,490.492695L432.867651,491.847179L434.041366,492.640691L435.428546,494.424248L436.570966,496.352339L437.077528,497.595113L438.063304,497.370604L444.362547,497.226278L445.847611,497.859717L447.374337,498.765825L448.770490,499.836391L449.911668,500.987240L450.735593,501.328102L453.068839,501.644911L453.580882,502.362770L453.950633,503.638166L454.731175,504.396240L455.670224,504.889613L463.954416,510.478430L465.942884,512.834227L468.117346,516.013429L469.179580,517.988790L469.692364,519.904223L469.850764,521.916350L470.236957,523.832395L471.012259,525.555889L472.364018,526.978259L473.024502,527.231410L475.480432,527.653342L476.179176,527.874359L477.512550,528.838847L479.718736,529.437674L481.048556,530.333960L490.064953,537.402189L498.544476,545.968017L505.072146,554.379517L506.438888,555.531641L506.966187,554.472166L507.872077,553.735029L509.930903,554.496335L515.864317,557.884629L517.059228,558.118345L523.524697,558.412514L525.241479,558.896096L527.899500,560.302647L530.494912,562.237479L535.342191,567.072168L536.512481,568.596858L538.262675,571.481515L539.299022,572.764759L540.196633,574.419511L540.565283,576.054365L541.280895,577.334190L543.252077,577.907543L545.055453,577.431092L546.886171,575.016906L549.845563,574.092573L552.681663,572.324886L554.111297,571.755905L560.688204,570.569628L563.859813,570.658392L576.983169,576.179514L578.683762,577.907543L579.291888,577.907543L579.846097,577.120201L580.293988,577.568372L580.819938,578.537465L581.618752,579.264351L582.409419,579.409734L584.987080,579.264351L583.839352,576.296590L586.274489,574.794897L591.340252,574.153117L591.948491,575.037089L593.212062,575.049199L595.622137,574.467947L596.742269,574.867554L602.660313,579.483814L608.045734,585.296586L610.982340,589.519955L613.391217,593.510859L613.627331,594.526157L613.904064,596.642076L614.242731,597.584898L615.304187,598.531870L618.302584,600.296591L623.362924,607.718854L625.555710,612.462089L626.420309,616.110559L625.756962,620.208858L626.337698,620.896457L628.628269,621.226740L629.241712,621.502299L629.051589,620.146923L628.655808,618.824233L628.483030,617.643734L628.949924,616.739207L630.039424,616.487742L631.344632,616.913614L633.364846,618.008284L635.880776,618.287625L637.338641,619.766713L639.086381,619.737109L639.729494,617.789765L640.561322,616.731095L642.557817,616.098393L644.793419,615.867225L646.321306,615.992947L647.880835,617.055577L651.082187,620.171269L652.644567,621.835079L654.006327,622.624348L655.050794,623.691702L655.983026,624.158554L657.328043,624.752898L659.059530,624.339598L660.608063,625.423643L661.811157,626.873330L662.387317,628.688863L662.211735,630.325351L659.620408,631.235541L656.560952,634.227455L656.094232,635.445451L655.244667,636.134173L654.633702,636.443197L652.985478,636.565183L651.232971,637.386609L650.545712,639.285992L650.829083,641.381157L651.967103,642.764696L652.973089,641.462535L656.627043,639.615484L658.233271,638.273199L662.239216,637.362209L663.443077,636.565183L665.976469,637.842092L668.308486,638.468426L670.514968,638.053576L673.797037,635.239703L674.802606,634.922598L679.128090,635.166524L680.131243,634.918532L682.452083,633.150304L685.043295,632.162713L687.539843,632.845479L689.933178,634.532333L692.181363,636.565183L694.489505,639.111082L696.960545,642.520523L705.044372,656.696010L707.104036,660.094356L707.466486,662.975311L707.042673,664.017901L705.303663,664.663696L704.642319,665.349512L703.816393,665.876167L702.856092,666.084390L702.076546,666.496772L702.136522,667.444119L702.803152,669.171730L702.342087,671.332875L700.450811,674.038336L700.907364,675.743084L701.837089,676.106983L703.222899,677.130415L704.763614,676.757498L705.569999,677.460533L706.394453,677.987361L708.698835,678.897569L710.416662,680.368651L711.546054,682.406791L712.601579,683.053472L714.141973,683.290877L716.593477,682.635987L717.980227,682.464089L719.202615,682.983889L724.707264,688.065354L726.380287,688.794525L728.459616,689.990871L731.068658,692.638364L732.533534,695.262339L731.127876,696.418869L731.171698,697.107965L732.083418,697.169495L732.970724,697.058741L733.801539,696.800324L734.557240,696.418869L735.527790,696.664966L738.103078,699.650472L739.606563,700.181204L743.700780,700.677520L745.274872,700.090221L747.579423,697.107965L750.400070,695.358681L751.735285,693.246494L753.469849,692.228465L759.718665,692.691653L760.851506,692.228465L760.969923,693.527936L761.487898,694.253622L763.335101,695.668331L765.816698,699.175699L768.831340,701.983410L770.173217,703.683152L770.812248,705.744797L771.517672,707.174372L774.489405,711.062104L775.256646,713.335809L774.499791,717.223057L774.671277,717.790907L775.319425,718.235346L775.810042,719.260134L776.336226,721.248420L776.295108,720.614411L778.418879,730.852151L779.295369,732.534472L781.198377,735.194837L782.578285,739.040705L783.530099,741.675320L784.338983,744.197853L785.141488,745.461884L787.608801,747.036026L790.100634,749.300728L792.404639,752.968066L795.751097,756.911800L799.564950,766.427384L800.452410,769.953325L805.385849,793.957216L810.746437,804.327493L812.084633,806.245630L813.354462,807.082075L815.093023,807.419170L816.398498,808.388905L817.334542,809.929028L817.910103,811.969024L818.320495,816.316872L818.046920,820.662437L817.112962,824.526245L815.487404,827.411489L813.385975,829.192226L812.050705,829.917952L810.810359,830.214095L804.777481,829.517545L800.948144,829.755285L798.153001,831.069203L793.103329,834.473617L789.707210,835.612830L788.206450,836.422452L787.621129,837.591083L787.567166,838.592864L787.472642,839.152231L787.656220,839.719974L788.431841,840.780395L788.954662,841.248014L790.117591,841.774108L790.745237,842.183309L793.345850,844.847648L794.848293,847.713120L795.207551,851.160126L794.391325,855.561192L788.905682,868.196199L788.050846,872.820793L787.806412,873.381710L786.687301,874.398955L786.468164,874.930631L785.748076,875.705157L777.381713,878.267676L774.647123,879.511420L773.294394,881.647392L773.930163,885.182908L774.787174,887.638158L775.010631,889.590912L774.599032,891.363692L773.530217,893.275001L773.337249,894.846976L774.164829,896.691624L776.507973,899.953814L774.920209,901.480305L774.760803,903.401198L775.754907,905.540440L777.575294,907.755465L779.211043,909.131606L781.276766,910.423934L783.558416,911.456185L785.814418,912.047867L800.847263,911.237980L805.844969,912.689928L807.053168,912.102421L810.950874,911.279943L812.074829,910.537227L813.090528,909.576358L813.964731,908.409958L814.678300,907.059044L815.707257,903.841608L817.247145,892.918708L818.510651,889.582530L829.078028,875.801452L831.721059,873.356594L839.404408,869.330228L842.013030,868.434714L844.422811,866.317522L845.289671,866.087413L846.341210,864.480947L849.433016,861.481905L850.032016,860.126920L850.185158,852.589358L850.004272,849.952516L848.053568,843.026811L846.696243,835.224733L846.626587,833.392934L846.422489,833.059154L845.376721,832.370765L845.554708,829.968003L846.444468,828.116241L847.406034,826.544165L848.105919,823.642486L848.955309,822.333659L850.908536,820.416569L855.747749,817.949886L856.425502,817.241659L857.060165,816.391852L860.234355,814.038596L869.173768,810.012285L877.053977,807.914430L878.890302,807.772925L880.904385,808.068424L882.207470,808.855079L884.497639,811.265386L886.111209,810.212104L888.419514,809.541893L890.472973,809.916539L891.360684,811.969024L892.457234,809.862423L893.125018,808.930002L893.707297,808.538744L893.996874,808.118369L896.618667,805.683879L896.513264,805.122162L896.310938,801.116211L896.614680,800.409211L897.418495,799.702264L898.968175,798.633630L897.808366,798.471474L894.911988,797.511073L894.327299,796.958160L893.945687,796.110148L891.746569,792.361549L891.349228,789.283214L892.454889,783.378801L892.673270,780.137647L892.295355,778.951053L890.702437,776.677902L890.035977,775.516674L889.679972,774.156584L889.620363,772.788425L889.840911,767.131635L892.388810,760.224533L889.509081,759.938937L886.459676,758.556632L883.723273,756.620162L881.822895,754.675903L880.695700,753.187014L879.629548,752.095346L878.248531,751.425536L876.203715,751.202279L874.690648,750.768187L870.588501,747.668256L865.474707,745.337949L864.672684,744.548951L864.044903,742.954686L862.715139,741.443344L861.139859,740.184130L859.789414,739.354407L857.022596,738.504141L846.642969,737.967617L843.801767,736.803910L839.864026,734.361562L837.161724,731.449989L838.061265,728.910560L838.014464,728.218147L835.650820,725.630453L834.434552,722.780166L834.388683,719.717018L835.528028,716.470111L838.018625,711.637651L841.662989,708.160469L842.848147,705.826948L844.119761,704.754961L844.845615,703.477845L843.147112,700.407241L841.709084,696.628051L841.419101,695.352558L841.801402,691.556286L843.270293,689.187820L844.478516,688.102220L847.539546,685.354205L850.221316,680.573506L851.387310,679.861608L851.878456,678.822536L853.430609,672.934770L854.962304,669.723186L860.968692,660.758281L864.603867,655.317976L869.533646,650.570273L875.397838,647.918620L881.603288,648.297368L882.360862,648.566170L884.220714,648.590606L885.082844,648.912367L885.589891,649.604812L886.046041,650.517312L886.546592,651.303619L887.242625,651.645873L888.915598,651.132498L890.352079,650.142521L891.824258,649.547785L893.617748,650.215848L893.239746,650.729158L893.109306,650.961381L896.518157,649.885883L898.108552,649.983649L897.654773,651.645873L896.028315,652.513804L891.990798,651.804782L890.397037,652.391554L892.200445,654.103244L891.915470,655.701190L890.400547,657.001823L888.540177,657.805154L889.691461,659.228537L892.006318,660.317681L896.774712,661.908867L901.481213,664.382042L902.901955,664.712681L903.460702,665.006596L904.997710,666.366114L905.631793,666.770346L906.471576,666.868346L908.185338,666.709097L909.015699,666.770346L913.602149,669.134968L915.127439,669.510768L942.923962,670.883432L944.233251,671.324703L948.560274,674.369440L948.607568,674.994904L947.526142,674.994904L948.539969,675.878011L949.125558,677.227425L949.435385,678.928890L949.614607,680.859924L950.255203,682.316752L951.564962,683.647001L953.904556,685.354205L956.558906,687.934276L957.880139,690.392433L957.378106,692.564581L954.576387,694.290524L955.520093,694.860474L957.783624,695.545301L958.730072,696.418869L959.364514,697.883287L959.296637,699.040291L958.588356,699.729671L957.295582,699.799434L957.351419,700.546782L958.409517,701.474396L964.280049,708.998770L965.092243,709.512487L966.223727,709.886499L969.377165,711.830882L972.135101,714.150092L974.240051,715.026175L976.381203,716.293202L977.478163,716.470111L980.890782,716.470111L982.283897,716.914462L986.509359,719.926948L987.194239,720.260379L987.883294,720.470326L989.698435,720.614411L990.118532,720.293311L990.858858,718.865017L991.265413,718.544000L990.980071,717.708607L991.696160,712.328374L991.572224,711.140211L990.788935,708.538513L990.897396,707.577011L991.495879,705.366917L991.650253,703.247909L991.859774,702.205089L993.398534,697.797135L996.235485,695.688837L997.233719,694.507837L997.690001,691.535794L998.950731,690.539952L999.538784,689.540167L999.570752,688.565114L999.211694,687.921987L998.941653,687.213392L999.267447,686.042124L998.696005,685.780051L998.229970,685.317354L997.833149,684.707298L991.751158,673.106424L985.684303,665.998650L984.894256,665.337265L983.381108,664.700435L982.055140,663.190237L979.661292,659.860791L976.770029,657.723593L975.756859,656.777559L973.855112,654.070636L973.262618,653.699737L971.605877,653.361461L963.735217,649.372632L956.527979,644.132211L956.654746,639.627688L956.277891,639.005325L954.215407,637.309343L953.782128,636.304948L953.679134,635.410457L953.293442,634.759985L952.034458,634.516072L949.972217,635.150262L949.032839,635.138065L948.924147,632.784515L946.032377,631.532835L939.526140,630.419498L931.248441,625.082579L922.514505,621.875677L921.590515,621.356200L914.368007,619.664075L911.254846,617.834387L909.555790,617.420635L908.206692,616.852774L902.678186,611.776243L899.565459,609.664651L898.175498,609.255364L897.041355,608.688070L893.606756,604.438639L890.644449,601.907822L884.315811,597.851982L871.859683,591.800084L857.423396,587.615534L855.590321,585.986716L855.075529,585.986716L855.130346,586.722275L854.575418,586.722275L852.765192,585.396695L832.881365,579.373388L829.483818,577.338227L828.100537,576.155291L826.552257,575.089565L821.503778,573.850405L807.992503,567.382734L792.153990,560.939488L790.949592,559.883483L789.636160,558.980726L784.321460,557.481681L779.130793,554.347292L776.733525,552.369650L774.779268,550.050122L773.274039,546.728765L772.581034,542.732416L773.026605,538.994956L774.913290,536.485243L783.002107,532.544828L785.766878,530.414348L787.763013,527.990897L789.112186,526.845658L790.749570,526.363485L792.189675,525.736689L793.796635,524.298397L795.124950,522.699602L795.742308,521.582981L795.628419,519.856033L795.467685,518.579049L794.491628,514.917478L793.734566,513.050965L793.878380,511.481698L792.384988,511.545910L790.515507,508.857310L788.138736,508.223363L788.033124,508.054850L781.067130,506.474144L760.561349,508.728913L747.171951,508.054850L733.798412,510.137336L730.070742,510.053067L720.210766,508.054850L710.692807,508.078923L708.885650,507.745915L707.213637,507.441000L705.604108,506.690778L702.083525,504.480474L700.580830,504.019203L699.670842,503.465700L697.266487,500.826837L696.085697,499.912576L692.608427,498.886109L685.922456,497.827644L682.925597,496.612911L679.862874,494.424248L678.193463,493.546470L676.805266,493.281945L676.320371,493.193771L674.911582,492.624660L673.897042,491.197973L673.220261,489.258540L672.472647,485.196155L671.731399,483.678044L670.395650,482.704769L667.073811,482.144061L662.251402,480.422012L659.226993,478.740189L647.882198,469.289125L644.144872,464.251474L641.470220,462.283210L635.363278,458.811253L629.899429,454.696118L617.228346,442.055973L616.628323,441.000963L616.072089,439.502452L610.544796,432.274973L608.648749,429.139327L605.295793,422.473816L601.445296,412.340705L597.501499,401.967263L595.595188,393.687251L594.242220,390.204113L591.309492,385.209234L590.248583,383.848884L589.856824,383.015137L589.110360,379.492775L588.721222,378.798696L587.309920,376.824199L573.968738,350.596746L574.480725,349.041385L573.670024,347.737274L572.181011,346.851913L570.616112,346.520900L569.784036,345.795063L568.755956,344.183860L567.470599,342.568663L565.880275,341.838831L565.610187,341.639423L565.423479,341.200724L565.157141,340.754049L564.669762,340.558628L564.201267,340.654344L563.957835,340.865718L563.793257,341.073103L563.575287,341.168819L563.151733,341.551683L562.584993,342.269552L561.820820,342.688308L559.577315,341.539719L555.697745,340.371184L554.843592,339.493782L553.211304,338.919480L543.415489,333.750681L517.447474,314.692478L516.706861,314.006322L515.848267,312.905264L510.331992,310.990329L507.025542,308.716255L505.435369,307.902352L501.535949,307.411610L501.348512,307.359743L497.765000,306.330364L496.205210,305.572281L493.618877,303.840613L491.100268,301.701873L486.151683,296.258775L483.934955,295.488541L480.863793,293.417215L478.120024,290.986551L476.283634,288.332188L472.812773,285.482011L470.457320,282.807249L468.584558,280.064382L466.866490,276.386869L466.262087,274.410162L465.966724,272.329476L465.702115,271.858204L464.513119,270.532210L464.123939,269.953065L463.850439,269.222125L463.375882,266.665673L460.325761,256.804855L459.770863,252.456443L459.820643,245.500341L459.565495,244.412737L458.837532,243.748950L458.017987,242.209357L456.767178,239.041812L456.022247,234.793588L456.352714,230.892514L458.073824,224.084562L456.973905,224.084562L456.937745,223.480079L458.928281,221.846665L459.787762,221.878695L461.296847,222.807517L463.479633,224.592951L464.397118,225.693740L465.934586,226.866503L467.719610,226.714408L469.129701,225.777797L469.655710,224.084562L469.028157,223.992490L468.002720,223.600177L467.425875,223.480079L467.385213,222.807517L468.291813,222.535281L468.863548,221.814636L468.870817,221.069937L466.822019,220.313191L466.804412,219.372215L467.630127,217.766422L467.859186,217.117652L468.501942,216.276614L469.387508,215.771970L470.326738,216.152457L470.772181,217.237796L470.539203,218.467224L469.452177,220.725602L470.158229,221.574414L470.754774,222.667396L471.167323,223.640209L471.312136,224.084562L473.537499,221.598437L474.499205,219.976848L474.855426,218.411161L474.818647,215.231262L475.086410,214.149789L475.689794,214.065672L476.180531,214.065672L476.360002,213.468824L476.602256,212.936047L477.205514,211.994630L476.851325,211.337607L477.577724,210.271887L477.594283,209.366367L477.029589,208.368629L476.114842,207.635309L474.953785,207.258616L473.627782,207.286668L473.672482,208.020006L473.916933,208.060078L474.455906,207.995962L474.725544,208.020006L473.722253,208.729265L471.902518,207.202513L470.173536,205.336237L469.302664,204.887344L468.648121,204.446453L467.293785,203.247966L467.478356,202.193698L466.468909,201.504175L464.978886,200.866738L463.759919,199.952632L464.795374,201.399942L465.345160,202.598578L465.176675,203.813151L464.085083,205.336237L462.905174,203.989516L463.348399,203.749017L463.596410,203.524548L463.925785,203.348177L464.554002,203.247966L464.513546,202.578534L463.395249,201.275663L462.483651,199.820322L461.416989,198.392910L459.756598,197.197951L459.999782,197.871631L460.148622,198.172371L460.432551,198.545281L458.688591,198.677601L457.831824,197.691183L457.778845,195.938731L458.445769,193.768943L458.470610,194.182068L458.619746,195.140638L458.567311,195.790345L459.482257,196.223468L460.307220,196.464087L459.560506,192.746109L459.289111,189.432471L458.728375,188.040214L457.748674,186.631784L457.184967,185.187112L457.838780,183.678094L456.961619,184.079442L455.258963,185.636579L454.124073,186.427130L454.423756,186.631784L454.504548,186.671912L454.755313,187.041084L453.224806,187.008982L451.829415,186.286679L451.027089,185.102835L451.222795,183.678094L450.409640,183.076052L450.046671,182.465961L450.238505,181.960211L451.102113,181.659161L450.652129,179.920994L450.638524,178.491786L450.243162,177.447905L448.616164,176.877758L449.041847,177.993943L448.920185,179.346917L448.368833,180.503080L447.515764,180.980776L446.538255,180.575337L445.697014,178.507845L444.781977,177.612522L445.088005,175.512538L445.750650,175.239481L446.698015,175.801653L447.779484,176.203193L449.467970,175.946208L450.032835,175.239481L450.334517,174.171302L451.162006,172.837992L450.410705,171.516628L450.748735,171.167192L451.510845,171.143093L452.091506,170.813733L452.254634,169.833649L452.159564,169.118635L452.260245,168.403591L452.985622,167.443457L452.107106,166.720310L451.859341,165.852493L452.116819,164.924364L452.779418,164.008242L452.277128,164.008242L452.240236,163.393449L453.682313,160.688912L456.485974,158.188966L459.664115,156.613262L462.281195,156.653460L462.137108,157.610152L463.186175,157.919659L464.636816,157.754857L465.598359,157.268482L465.560913,156.653460L462.810902,155.712799L462.254694,154.820333L463.167748,153.216199L463.842204,155.302752L464.383345,155.302752L464.943856,154.764050L466.387109,155.873599L467.713368,155.917819L467.675832,155.302752L466.839465,154.096680L468.060862,152.319593L470.098035,150.671014L471.761939,149.850692L472.161125,151.258085L472.842152,152.158762L474.446722,153.553923L474.996393,153.481554L476.958809,152.215053L477.902222,151.869263L477.328705,153.139808L476.493138,153.968028L475.367423,154.426348L473.961350,154.567058L473.284179,155.218330L473.290554,156.597182L472.934666,157.811131L471.166305,158.004069L471.121274,157.268482L471.945081,157.304659L472.216728,157.268482L472.178952,157.184068L471.914786,156.810232L471.629475,156.516786L471.585685,156.653460L471.421930,156.428349L470.622892,156.689638L469.758883,156.741896L468.847152,156.653460L470.025156,158.004069L469.513402,158.486405L469.117582,158.518561L468.766492,158.108576L468.336994,157.268482L467.795788,157.268482L467.818856,158.180927L467.547085,158.643162L467.020439,158.775801L466.238056,158.671297L466.684180,159.571615L466.221527,160.648723L465.418566,161.922681L464.875292,163.393449L465.934062,163.212623L468.083878,161.990998L470.961308,161.368098L471.591387,161.006405L472.874079,160.013719L480.647441,157.473484L493.842214,151.804930L506.434216,144.389031L509.424425,143.769571L515.726027,143.588557L517.647235,143.069639L518.429016,142.055899L518.434496,142.039808L518.921224,140.390359L521.592146,138.374628L522.431789,136.954244L519.469494,138.181494L517.867993,138.394747L516.503794,137.638294L515.960514,135.972390L516.751213,134.596108L518.298135,133.742927L520.075967,133.646339L520.028741,132.913860L519.116301,132.495290L518.763694,131.569575L518.918367,130.635770L519.567888,130.209104L520.551075,130.515017L521.317511,131.899617L522.126599,132.229654L522.751627,131.927791L523.598479,130.527092L526.379051,129.637519L527.218491,129.532861L527.743758,129.802556L529.774403,131.497126L530.515657,131.782896L538.371708,133.340472L539.750062,132.913860L540.827921,134.354645L544.142167,134.946223L544.957721,136.648426L544.484342,137.469295L543.281072,138.185518L541.858153,138.732727L540.735263,138.990232L542.785134,139.754681L544.851883,139.191406L546.664616,137.940074L547.985954,136.648426L548.840076,136.270170L551.023142,135.899957L551.424292,135.272188L551.801300,134.869762L554.643549,133.646339L552.492475,133.316324L552.032033,131.384428L552.707733,129.210834L553.986789,128.184337L555.840846,128.462100L560.327653,130.144701L561.869045,131.191228L568.572503,136.954244L569.682642,138.157352L570.977242,140.064476L571.412155,141.778319L569.978971,142.357613L573.099652,143.709233L573.923183,144.807357L574.701936,145.531361L575.723365,145.796823L574.043913,146.110545L571.635671,145.861176L569.489181,145.917486L568.659766,147.148207L568.148848,147.884189L572.075648,147.584813L575.337418,149.065965L579.097093,148.728885L580.593973,146.998373L582.012618,145.357764L582.536859,144.065347L582.440211,143.875810L582.393587,143.784375L581.670592,143.738397L580.430491,143.145788L579.514751,142.333477L572.506557,133.032991L566.820441,130.865684L566.020272,130.351058L562.711676,128.222702L561.348518,127.864826L558.576376,127.573409L556.274212,126.520183L555.642071,125.552356L554.911739,124.434034L554.950219,121.048735L557.034142,116.318988L557.654118,114.910952L558.091510,112.994346L558.554040,110.966572L557.073552,109.083681L556.669134,109.166579L554.377564,109.636284L551.872749,110.705636L549.488641,110.864245L547.173448,108.705039L547.132942,108.592468L547.076944,108.495248L547.004773,108.403144L546.925027,108.321273L546.536163,108.060310L545.425941,107.006192L546.584184,106.049260L546.981290,105.813859L547.553437,105.107644L547.730682,104.421879L547.490017,103.782156L546.807412,103.198715L548.491659,101.100262L549.826742,100.181932L556.986765,95.254406L559.026889,91.619294L558.645784,90.660767L558.291985,89.770834L557.483233,89.637389L556.398946,89.458478L554.063440,89.678663L552.016210,89.402151L549.479113,87.348704L547.917870,86.442272L545.665746,86.053060L544.516187,85.505083L542.115719,85.361685L540.854558,84.992945L542.133403,86.744419L539.976014,87.036321L539.242877,86.175970L538.871600,84.803452L537.733593,83.553789L537.724672,83.543546L537.715750,83.533302L537.064926,81.049181L536.541858,79.871072L535.857976,78.877326L537.860717,77.760604L538.172144,77.249067L539.190681,75.575707L540.121781,73.470069L540.927296,72.576027L541.975271,72.478680L542.936139,72.063671L544.766983,70.862163L548.342915,69.158457L550.169199,67.411105L551.727270,65.356185L553.571910,63.772633L556.251856,63.467701L558.223617,63.526638L559.667051,62.837329L560.252527,61.649991L560.434028,61.281851L560.376761,58.744764L560.785480,58.219385L561.039913,57.604298L561.140419,56.904623L561.079132,56.125483L559.850765,56.335648L558.641920,56.228003L548.823759,53.536776L545.434726,53.429123L544.801235,53.062588L543.600074,51.960398L543.036636,51.778405L538.202873,52.083434L534.687692,51.557962L526.673973,53.047208L523.455955,52.908795L521.739401,52.329507L516.504552,49.655950L509.896808,48.358839L491.192384,47.207810L486.507362,44.672355L484.476259,44.096334L483.777308,43.898101L483.156893,43.969887L481.909403,44.398035L481.162361,44.418545L480.412952,44.141659L478.906197,43.200747L478.267338,42.958249L478.122691,42.903342L474.170608,42.559787L469.574036,43.082811L468.400300,42.985385L467.050713,42.441849L464.502729,41.006059L462.073310,40.642924L460.145890,40.354810L456.844767,39.221512L453.962003,37.134322L452.261484,33.949509L451.429089,31.777456L450.061156,31.046578L448.397631,30.851676L446.704214,30.302867L445.911795,29.841248L445.436019,29.451432L445.205871,28.779507L445.143688,27.497182L445.286800,26.348192L445.540332,25.660837L445.718021,24.942697L445.618422,23.721835L444.754299,21.551918L443.452453,20.810639L440.104319,20.710604L438.999446,20.366893L438.485565,19.884668L438.012368,19.261360L437.061054,18.471315L436.151082,18.089114L434.261750,17.801820L433.406589,17.509394L434.512136,16.519242L434.465103,15.611160L433.858028,14.672282L433.273699,13.566646L432.650202,11.275790L432.236607,10.141876L431.651571,9.156742L432.382692,7.417329L437.050180,5.123704L438.620034,3.166114L438.562263,1.807567L438.508719,0.549076L436.605298,0.000000Z M473.111017,314.142681L471.857528,312.052752L472.528310,309.711938L473.707127,308.608648L474.498804,307.867587L477.011306,306.707232L479.321950,306.362668L479.946100,307.289946L480.303876,308.926577L480.238763,310.618889L479.712800,311.594809L479.644843,311.720889L479.448382,311.928620L479.338252,312.181950L479.313880,312.492300L479.395798,312.787715L478.081973,314.922903L475.592674,315.237015L473.111017,314.142681Z M488.929857,510.523098L488.931809,510.481398L488.950762,510.434485L489.028894,510.439697L489.039445,510.549161L488.965933,510.549161L488.929857,510.523098Z "/></g></svg>