<?xml version="1.0" encoding="utf-8"?><!DOCTYPE svg  PUBLIC '-//W3C//DTD SVG 1.1//EN'  'http://www.w3.org/Graphics/SVG/1.1/DTD/svg11.dtd'><svg enable_background="new 0 0 1000 520" height="520px" pretty_print="False" style="stroke-linejoin: round; stroke:#000; fill: none;" version="1.1" viewBox="0 0 1000 520" width="1000px" xmlns="http://www.w3.org/2000/svg" xmlns:xlink="http://www.w3.org/1999/xlink"><defs><style type="text/css"><![CDATA[path { fill-rule: evenodd; }]]></style></defs><metadata><views><view h="520.040625851" padding="0" w="1000"><proj flip="auto" id="robinson" lon0="-2.12289422444"/><bbox h="1.56" w="3.01" x="-28.97" y="-823.22"/></view></views></metadata><g class="" fill="#000" id="country"><path d="M927.127623,518.040626L938.692684,463.627343L938.994031,403.709376L944.010076,358.772784L961.458394,323.749811L999.036684,295.335669L983.874574,280.137679L960.895181,247.099214L941.283474,224.853821L947.429927,171.995099L746.360933,88.527054L683.561977,36.775369L619.804606,39.858384L592.728461,47.786179L563.357527,73.772090L515.255492,47.345745L422.157158,27.966795L388.704758,0.000000L341.106807,35.894511L299.581457,58.356652L255.043792,70.248547L197.022629,73.772090L116.500535,36.775369L56.091390,21.800830L5.595367,36.775369L0.963316,103.282199L37.309939,208.555469L64.761628,330.357843L32.714123,446.664980L76.624398,445.563533L164.434531,414.723492L176.726478,406.352754L221.137047,421.772576L274.221637,470.236118L310.337449,480.369641L345.610522,412.961226L379.106964,363.178260L414.123078,332.340260L443.731990,332.340260L482.239203,346.217263L519.097496,367.363477L617.608963,451.291055L690.123175,478.166695L821.795601,480.369641L861.013553,494.248291L898.738492,517.379718L927.127623,518.040626Z "/></g></svg>