<?xml version="1.0" encoding="utf-8"?><!DOCTYPE svg  PUBLIC '-//W3C//DTD SVG 1.1//EN'  'http://www.w3.org/Graphics/SVG/1.1/DTD/svg11.dtd'><svg enable_background="new 0 0 1000 441" height="441px" pretty_print="False" style="stroke-linejoin: round; stroke:#000; fill: none;" version="1.1" viewBox="0 0 1000 441" width="1000px" xmlns="http://www.w3.org/2000/svg" xmlns:xlink="http://www.w3.org/1999/xlink"><defs><style type="text/css"><![CDATA[path { fill-rule: evenodd; }]]></style></defs><metadata><views><view h="441.768899439" padding="0" w="1000"><proj flip="auto" id="robinson" lon0="-77.1720897045"/><bbox h="13.78" w="31.27" x="-1143.6" y="-310.64"/></view></views></metadata><g class="" fill="#000" id="country"><path d="M534.514226,439.768899L546.332146,435.893392L548.758466,426.661854L546.227724,406.544106L536.500454,409.679336L527.346955,410.506689L518.928652,408.416535L511.340836,402.886340L516.304795,398.749582L521.365315,396.855383L526.342296,397.116652L531.058080,399.598706L530.290978,396.202211L530.067285,390.780886L529.160440,387.972250L532.744304,386.404639L539.089891,382.463842L542.645250,380.983322L540.738597,366.156365L543.087352,361.282410L552.570209,344.556320L563.814391,337.777247L576.483757,333.127848L589.728718,334.738992L595.151408,337.155708L599.585257,341.335975L604.865649,350.610953L609.364013,355.422624L599.125540,359.080368L598.692986,363.042925L624.438261,363.042925L629.314821,365.263700L632.764767,368.050556L636.601214,370.075381L642.750929,370.010064L650.789961,364.784709L658.019180,355.175677L669.877461,322.860621L673.031568,310.649530L675.269714,306.714756L681.308145,307.521141L683.543507,303.400712L690.106487,296.258447L692.910599,290.602588L694.958699,285.087003L700.732252,288.253485L708.362618,294.185104L717.401556,300.527368L726.978786,300.295435L741.019333,300.513156L746.956373,302.037203L749.035899,304.519224L751.887679,307.915676L700.347571,311.225040L699.948124,314.882761L724.144478,315.840736L731.452079,314.882761L748.799704,310.506560L758.535706,309.875168L765.354215,313.053900L768.609450,315.187571L782.197789,318.867066L784.773206,321.675676L786.545448,325.246313L788.720641,328.250875L792.336569,329.513663L795.729852,331.777971L796.554870,337.090391L796.830504,343.273704L798.409505,348.107143L802.843957,351.786655L806.595321,352.330962L810.182860,351.590705L813.955371,351.416526L839.326858,355.727436L876.330855,352.243873L890.944409,346.495997L899.232299,348.912716L907.170650,353.158308L914.148402,355.422624L922.554527,352.722863L931.343770,340.530403L940.126084,337.155708L937.596619,343.709149L936.090592,345.538018L932.570797,348.107143L940.619684,350.458547L950.679342,347.366887L968.750756,337.155708L993.546417,330.493411L998.865619,326.182517L987.294217,315.753647L979.636306,305.607830L974.163284,292.805834L971.502376,282.921316L969.193176,274.343134L958.148562,238.593570L949.633631,222.482380L937.920396,208.613728L936.861909,197.488347L919.821623,190.434300L886.316769,183.380261L884.887989,181.028916L882.070917,173.365281L879.803337,171.754177L844.845873,171.754177L841.109518,170.752680L838.492274,168.531970L836.429514,166.093545L833.919709,165.364533L826.511987,159.094586L810.933716,160.171658L803.329865,157.471977L797.040815,152.638679L789.252385,142.841465L782.851839,138.857270L775.070427,136.919602L751.197895,134.873077L743.012838,132.304037L738.889866,129.321338L736.635701,124.684007L733.859898,110.639509L732.044231,105.448746L718.431345,96.119044L703.133981,84.710515L698.509435,79.535645L699.325151,72.309192L701.391969,66.634547L698.606519,61.980208L693.043826,60.934654L686.948799,60.404923L679.259386,61.421759L673.545191,64.529666L645.862576,65.814171L640.471628,64.725608L631.311172,59.718217L625.911979,58.194230L617.193181,59.783531L600.861624,62.722651L585.734091,62.156598L583.498568,60.458440L576.497841,52.903820L574.111008,51.205664L553.758615,47.221533L554.006904,48.223008L552.340417,49.921163L549.675877,51.227436L546.950931,51.205664L544.951760,48.919687L543.965838,42.301243L542.149461,39.906414L525.784937,35.160300L501.596624,32.134110L477.759769,32.068797L462.520193,36.248858L453.647700,29.891683L441.854289,26.626014L409.894347,24.013480L390.493059,18.679561L345.316952,17.743404L313.157833,9.840506L276.686970,0.892611L255.464280,0.000000L236.260670,3.374508L227.583226,7.445692L222.240207,12.344178L210.029314,27.104979L206.528055,32.634847L206.199930,36.727823L205.350924,40.232981L200.223408,43.890540L194.817403,44.804930L189.825081,43.389803L186.388309,41.952905L181.580824,39.906414L171.550290,39.841100L140.980177,43.890540L130.650645,41.604565L122.407112,38.121178L115.001130,38.295347L107.081253,47.221533L96.236588,37.250331L78.967279,43.259175L63.064459,57.628178L56.543783,72.780984L49.059276,69.950715L43.785663,74.217890L39.384702,80.488030L34.472742,83.731960L27.163218,84.385100L25.295966,86.496921L24.443875,90.524623L20.187161,96.860096L18.781377,101.432091L17.626516,117.564730L15.470605,124.596920L11.707202,129.081851L4.210827,134.415875L1.134381,138.857270L2.129590,148.197274L7.039533,156.426939L14.305835,162.239964L22.241323,164.460671L30.150049,165.571025L43.909408,170.600278L50.297749,171.754177L51.365604,172.537957L62.262321,177.588988L65.327067,178.307454L69.149739,176.152056L74.019563,171.754177L81.664444,171.841263L102.166967,175.716623L136.547504,174.780440L147.347052,181.899784L153.933574,201.298407L155.361619,213.969593L156.876395,220.435827L159.443618,223.244395L163.038913,224.311216L167.392946,226.902068L171.054266,229.928358L174.080754,235.763223L181.998053,263.740167L189.091171,266.766474L221.352673,267.071282L232.669091,271.839352L234.311111,283.182581L231.981480,296.681266L231.420036,307.915676L233.780450,310.223522L241.759485,313.489343L243.146737,316.885799L243.634476,321.218460L246.952865,334.934941L248.534115,338.984575L252.258473,342.511676L267.674355,351.416526L276.584164,358.644922L279.697160,359.298091L343.263094,355.335535L362.833017,359.080368L382.467283,365.524968L392.449741,364.566986L403.111001,357.251496L412.124346,353.376031L422.815052,354.943634L432.652946,359.102140L465.047171,381.309907L472.163016,392.871035L508.298288,432.540426L516.411867,437.090880L524.862195,439.246359L534.514226,439.768899Z "/></g></svg>