<?xml version="1.0" encoding="utf-8"?><!DOCTYPE svg  PUBLIC '-//W3C//DTD SVG 1.1//EN'  'http://www.w3.org/Graphics/SVG/1.1/DTD/svg11.dtd'><svg enable_background="new 0 0 1000 446" height="446px" pretty_print="False" style="stroke-linejoin: round; stroke:#000; fill: none;" version="1.1" viewBox="0 0 1000 446" width="1000px" xmlns="http://www.w3.org/2000/svg" xmlns:xlink="http://www.w3.org/1999/xlink"><defs><style type="text/css"><![CDATA[path { fill-rule: evenodd; }]]></style></defs><metadata><views><view h="446.61708302" padding="0" w="1000"><proj flip="auto" id="robinson" lon0="-77.1686080197"/><bbox h="13.54" w="30.38" x="-1143.05" y="-310.59"/></view></views></metadata><g class="" fill="#000" id="country"><path d="M510.179591,444.617083L540.340587,372.946068L561.112269,353.663587L585.500361,341.991928L599.614517,367.970807L643.318987,370.902177L669.614351,340.432123L694.432110,302.082528L722.589217,300.657196L744.214039,306.950172L730.264091,320.423613L779.812597,327.469614L799.311008,342.153288L845.561455,361.301272L897.993605,360.198648L953.387194,353.798053L998.877960,335.241738L991.730487,303.965042L946.481034,203.977383L784.665564,145.970185L743.182613,120.019066L693.350921,72.581250L669.529463,66.288507L643.532000,65.696882L584.400687,55.477915L528.189427,35.685440L484.296779,30.710440L437.686242,30.387737L239.009741,0.000000L212.083540,11.859265L185.459488,29.957467L128.284912,42.623555L69.955686,40.821795L51.473834,52.842499L11.484625,94.982393L1.122040,129.431376L18.604683,167.511043L122.611401,182.328830L135.516361,191.875698L166.829477,261.420353L204.249893,277.125821L217.610699,294.498692L249.866580,355.142716L295.509724,364.878079L394.505465,366.895075L442.284386,379.212213L478.131368,409.036981L510.179591,444.617083Z "/></g></svg>