<?xml version="1.0" encoding="utf-8"?><!DOCTYPE svg  PUBLIC '-//W3C//DTD SVG 1.1//EN'  'http://www.w3.org/Graphics/SVG/1.1/DTD/svg11.dtd'><svg enable_background="new 0 0 1000 1233" height="1233px" pretty_print="False" style="stroke-linejoin: round; stroke:#000; fill: none;" version="1.1" viewBox="0 0 1000 1233" width="1000px" xmlns="http://www.w3.org/2000/svg" xmlns:xlink="http://www.w3.org/1999/xlink"><defs><style type="text/css"><![CDATA[path { fill-rule: evenodd; }]]></style></defs><metadata><views><view h="1233.31573861" padding="0" w="1000"><proj flip="auto" id="robinson" lon0="36.2966238219"/><bbox h="69.92" w="56.74" x="497.76" y="-559.42"/></view></views></metadata><g class="" fill="black" id="country"><path d="M276.624149,1231.315739L283.474717,1231.041497L289.659489,1228.344813L314.748851,1205.249615L339.166278,1182.706061L365.994014,1157.934749L383.769633,1141.519206L397.185495,1113.587994L410.188420,1086.468848L419.769490,1066.461986L431.268833,1042.387546L436.602816,1035.799008L443.142838,1032.269022L464.409935,1027.643662L486.234984,1022.927177L521.510093,1015.259438L556.499439,1007.652991L589.304815,1000.533753L618.180089,994.281919L623.067104,989.386471L631.375236,961.691240L637.554786,941.193211L644.261132,918.903888L649.716188,900.645849L652.421945,895.325366L657.701449,890.400253L683.250513,874.865669L711.654196,857.614809L728.850499,847.188932L730.419258,846.140290L730.642178,846.049104L730.732681,845.927522L730.634264,845.729953L716.695756,830.973461L685.818653,798.271805L654.890506,765.588419L623.985878,732.892047L593.105042,700.181831L592.204248,699.239886L591.329251,698.297940L590.428457,697.355996L589.555091,696.429243L553.260995,660.863286L517.515938,625.859013L516.972757,625.327057L480.684245,589.758674L444.400800,554.202606L453.651059,551.316417L504.095865,535.572135L563.757334,516.940410L623.383406,498.292070L637.499743,493.879071L682.977357,479.657355L691.655915,477.043389L737.116560,463.346761L791.203217,447.034732L845.235514,430.705956L899.294032,414.390734L926.584378,406.133626L926.611867,406.148833L926.606525,406.103212L934.789254,402.438306L960.997796,374.195569L965.395755,370.529817L967.816949,369.708431L967.497370,367.441987L994.361206,341.823773L999.594260,332.504642L992.032293,312.646670L987.276867,303.599083L981.808116,300.600809L936.300838,313.666284L933.614027,312.235778L931.239913,307.822399L914.069719,265.474970L913.678711,264.995377L913.532342,264.629972L913.609499,264.416818L913.930383,264.310241L932.375684,258.257991L908.285861,196.662279L891.329355,153.378456L874.933258,111.473679L862.519653,80.067239L847.585755,42.164821L830.886952,0.000000L774.866650,37.667882L725.962111,71.071478L706.534037,84.324763L666.630717,111.473679L666.632536,111.488932L637.490560,131.841927L598.235207,159.224671L558.933286,186.559709L537.798483,201.238282L519.564649,213.893283L480.231971,241.225885L454.766416,258.851813L454.768153,258.867039L454.716828,258.867039L454.718565,258.882266L419.533158,283.758661L382.704817,311.223760L379.644413,312.327088L376.135809,312.182514L359.795616,307.982196L354.385351,307.822399L350.357521,310.379137L340.631609,303.545815L306.175840,299.376823L296.983766,298.264531L292.670514,295.730335L278.519797,294.307201L273.449386,292.807943L269.545390,290.715034L245.415737,269.943443L228.167141,258.851813L219.175740,250.690239L216.316265,249.205548L215.079039,249.616695L212.541807,252.182519L211.376124,252.776379L209.857353,252.502290L207.179642,251.497291L205.595766,251.329790L196.548047,252.578426L192.979912,252.462597L189.980994,252.365246L189.059243,252.152065L188.867764,250.888195L187.101262,247.454345L174.020939,230.389797L171.138320,225.454874L170.343295,219.917990L170.528764,214.898699L169.001580,211.547267L163.155277,211.097860L159.638361,211.760543L156.947196,210.854113L154.537699,208.789854L151.967448,205.971414L152.905938,206.108529L153.567076,204.904953L153.687730,202.992906L153.084339,201.027492L152.078707,200.517086L148.877465,200.555176L147.600798,200.143802L142.832767,195.778544L140.319432,194.391974L112.960323,188.159746L110.355286,185.249180L110.352748,185.226321L110.375003,185.195844L110.373311,185.180605L109.231601,184.365323L107.924292,184.136737L106.498413,184.456756L105.033263,185.229911L104.996746,185.249180L100.837563,186.353988L88.153492,194.993840L80.738431,202.383481L76.992108,204.455511L71.043326,203.750346L71.015647,203.747065L66.814177,207.045479L63.618890,212.034756L61.629291,213.999919L59.942453,214.753981L59.510979,215.728920L59.648847,218.150989L60.882599,220.275956L63.123118,221.525017L63.324699,223.360495L61.606072,223.360495L61.847681,225.561495L63.549407,228.211763L65.152591,235.811810L66.937787,239.459302L66.086733,241.058366L65.745889,241.225885L65.541698,240.532962L65.090536,239.459302L64.615558,240.510118L63.832694,243.670110L62.072338,241.652297L63.594073,247.819816L64.494271,249.715675L61.107213,249.715675L61.325300,251.710474L62.617320,251.558200L63.648719,251.603882L65.706482,254.230560L66.356199,255.479158L68.958548,257.923013L69.159898,259.765379L67.000426,260.435322L65.682407,261.995966L64.977922,264.005734L64.731136,265.977398L65.726504,266.632073L66.350939,267.180169L67.061426,267.576015L68.189951,267.804387L68.429987,270.004341L66.980593,271.070045L65.369611,271.831255L67.128701,273.840822L63.981137,276.048253L64.576548,276.565851L65.079129,276.466899L65.511379,276.664803L66.046484,278.042512L64.198351,278.042512L64.397267,279.869279L66.105648,281.414394L66.465935,282.601757L65.502931,283.423769L63.141270,283.895662L64.598621,287.145575L65.293355,288.104546L66.639804,289.390772L67.865308,291.217336L68.855551,293.477665L69.557470,296.156511L68.017016,296.156511L67.797052,294.132162L65.948553,294.132162L66.168470,296.156511L67.815148,299.025539L68.568505,307.860446L71.302637,312.235778L70.570306,315.667438L71.101363,321.282654L72.632728,326.889982L74.982365,330.328803L73.825983,331.036336L72.961158,331.827550L72.410088,332.907853L72.175843,334.543503L75.438007,334.543503L73.714102,348.446762L73.129863,353.150294L74.559282,356.641602L74.795124,358.832178L72.878255,359.881815L71.890080,361.205257L72.061870,362.802498L73.575175,364.688737L70.183683,371.868361L70.395185,375.275501L73.408199,378.925912L69.589168,382.378500L68.771105,387.458360L70.686417,401.039231L74.123206,407.943233L74.997507,411.075780L75.580089,415.090210L76.252560,417.538352L78.065089,420.792343L78.134640,423.133959L77.147381,424.487213L75.477950,424.988979L74.027343,425.855662L73.587093,428.242816L82.158912,451.793195L79.872177,455.456972L80.104162,457.646081L87.032380,473.516343L80.048133,482.423789L75.338644,497.043846L71.141943,510.055744L69.411109,531.393029L70.320415,553.199690L70.446707,553.670757L70.500928,553.944279L70.407401,554.035454L70.241806,553.929084L70.354311,554.020258L71.778044,571.102780L72.022945,574.047567L71.709680,580.718025L68.501300,592.539205L64.736866,601.002249L66.811554,603.129383L67.053719,609.480343L64.183622,615.648911L61.800371,622.804979L63.992814,630.857367L67.138395,638.408304L70.399015,644.318350L74.862566,651.656487L77.437465,659.693448L77.105752,668.064612L67.782199,691.522021L67.055829,700.136254L68.014656,709.358230L65.766843,714.690897L59.694041,721.285620L56.952261,724.262411L54.447537,730.916947L54.444985,737.571537L55.234042,744.150221L55.033834,750.653005L53.868142,753.448615L50.020572,757.307797L48.315194,759.617241L47.017946,763.172590L46.496430,766.484861L46.100820,773.914765L44.873936,780.894690L44.864255,780.949738L33.237584,811.142349L25.976974,847.143338L25.473600,854.149597L22.299243,866.110879L22.987649,873.178521L24.522729,876.203239L28.695345,882.161607L29.799554,886.341689L29.653695,890.430655L28.590214,893.592442L27.202933,896.617470L26.059651,900.296212L25.187734,915.620038L23.891554,920.682666L24.597737,929.090309L31.448824,947.092952L32.337725,956.368781L29.222256,966.268711L20.071339,982.663665L18.274382,994.266708L18.454953,997.810898L17.769464,1000.412060L16.742952,1002.693823L15.999587,1005.234232L15.105533,1015.229012L16.557146,1033.121079L16.057065,1039.100845L7.434508,1071.263677L6.252395,1078.607311L6.466534,1095.160422L4.762831,1102.512902L1.933872,1108.076983L0.740920,1114.531889L0.405740,1122.550821L1.553841,1122.395084L1.939365,1122.814671L2.012131,1123.605895L2.304398,1124.564961L5.732972,1124.564961L11.432173,1129.947831L12.107807,1134.635523L7.763851,1146.697115L6.694100,1154.418959L7.485339,1181.256599L4.433661,1183.631198L4.432586,1183.638715L32.725005,1188.646280L63.009923,1193.962205L102.679323,1200.892976L138.137237,1207.108077L175.994625,1213.704269L206.153732,1218.998276L220.690955,1221.549974L250.092974,1226.676547L276.624149,1231.315739Z "/></g></svg>