<?xml version="1.0" encoding="utf-8"?><!DOCTYPE svg  PUBLIC '-//W3C//DTD SVG 1.1//EN'  'http://www.w3.org/Graphics/SVG/1.1/DTD/svg11.dtd'><svg enable_background="new 0 0 1000 1384" height="1384px" pretty_print="False" style="stroke-linejoin: round; stroke:#000; fill: none;" version="1.1" viewBox="0 0 1000 1384" width="1000px" xmlns="http://www.w3.org/2000/svg" xmlns:xlink="http://www.w3.org/1999/xlink"><defs><style type="text/css"><![CDATA[path { fill-rule: evenodd; }]]></style></defs><metadata><views><view h="1384.85020009" padding="0" w="1000"><proj flip="auto" id="robinson" lon0="143.337211284"/><bbox h="354.77" w="256.37" x="1785.17" y="-761.67"/></view></views></metadata><g class="" fill="#000" id="country"><path d="M9.314422,1382.850200L12.660244,1381.930622L14.247872,1379.085637L14.067457,1376.575869L4.110235,1373.146412L3.448991,1374.659983L3.996769,1377.460360L0.361311,1379.468804L0.842050,1381.413357L4.800850,1381.723078L9.314422,1382.850200Z M31.956697,1366.510757L32.942903,1363.211958L31.392777,1361.854730L28.156900,1370.256528L25.988463,1370.700393L22.925287,1369.538039L21.417984,1371.747781L25.578579,1377.517836L28.569250,1378.338460L30.969091,1376.834512L31.956697,1366.510757Z M93.254378,1351.647883L90.363711,1349.444161L86.156581,1347.623663L84.322253,1344.503199L82.260519,1343.225604L83.568492,1352.344123L88.886231,1353.353344L93.254378,1351.647883Z M999.504688,1229.072971L999.638689,1226.961097L996.144888,1222.957866L993.773793,1221.878000L992.857078,1222.200681L998.499310,1229.127286L999.504688,1229.072971Z M219.297153,1226.699112L220.980882,1222.254994L220.467876,1216.274307L214.891720,1211.709079L214.306592,1217.271073L210.555231,1222.862020L210.008799,1225.718265L207.604443,1227.318932L206.583639,1227.085701L204.015906,1224.954679L198.885101,1224.028155L198.528997,1225.248611L199.098197,1228.120868L202.827518,1230.549060L202.421494,1233.050765L198.114776,1238.916935L197.054437,1240.063984L193.563056,1241.019330L195.686297,1249.266087L193.547945,1256.381873L194.035515,1259.305533L195.262997,1263.216538L199.494628,1263.056774L202.692613,1259.433343L202.525804,1258.209559L200.701830,1255.758799L200.147397,1252.723319L202.306911,1248.543969L205.284436,1247.943271L202.367025,1244.511637L201.148018,1240.460181L205.611586,1239.543178L209.082631,1234.498124L213.733060,1233.277613L214.737761,1229.699189L219.297153,1226.699112Z M240.437624,1156.836273L240.483292,1153.605286L238.187453,1150.929941L234.095801,1144.449554L231.883202,1145.250788L231.602455,1148.883600L234.823696,1156.379711L238.459494,1158.033565L240.437624,1156.836273Z M250.951056,1131.723827L247.543175,1129.122853L245.794644,1127.067692L241.844009,1126.001847L245.921877,1131.972761L251.787593,1133.249363L250.951056,1131.723827Z M256.000596,1124.923259L254.314400,1121.930133L254.940566,1120.784621L257.516718,1119.058425L259.681348,1114.977687L262.383471,1111.704404L265.780527,1110.342196L265.235966,1107.892233L262.842530,1104.766162L258.613154,1107.483918L257.752521,1108.437722L257.454496,1110.412379L255.314534,1112.604057L252.848014,1112.750810L245.668135,1115.079781L242.626099,1118.088462L243.093368,1120.117747L241.779661,1121.397259L239.126769,1122.258794L246.266464,1125.452977L252.851818,1130.233438L256.000596,1124.923259Z M276.085686,990.911212L276.446009,984.145855L274.283317,982.708991L264.375727,977.724813L260.159240,982.759853L266.235090,990.799931L270.245190,992.316567L276.085686,990.911212Z M291.600542,982.190841L290.263852,973.529324L291.166298,966.206997L288.991503,956.549853L286.851981,954.103142L285.949745,954.725937L285.064668,956.457703L284.391183,964.338402L286.277237,970.592666L285.531165,979.110668L287.001221,982.880649L291.600542,982.190841Z M192.372049,900.175233L194.405800,894.618787L192.934541,891.713144L190.228903,896.195512L191.091295,901.313146L192.372049,900.175233Z M209.315809,850.236832L210.491556,848.020879L211.332546,844.237953L205.757211,843.489567L200.638392,847.689740L202.255060,849.762459L204.566404,850.523362L209.315809,850.236832Z M197.922836,862.885376L201.493847,855.657999L197.413172,845.811069L194.529710,842.575544L186.358206,843.852617L188.366253,847.294914L189.239358,855.291959L192.061505,857.411731L192.732456,858.834358L190.829744,861.968941L193.057035,862.984018L194.494435,865.211322L197.922836,862.885376Z M105.671492,826.740585L107.954224,834.694755L109.276378,836.886657L111.848187,838.431672L115.490022,839.645300L116.372504,836.345076L117.817734,835.717461L121.689662,835.338333L119.787153,832.652364L115.730976,828.111142L113.603767,827.256946L111.226505,827.492810L108.504601,828.503165L105.671492,826.740585Z M711.447841,808.964296L712.155209,806.516674L707.576656,804.180372L705.970580,804.448491L706.021570,805.623050L707.223097,807.515555L710.803899,809.656707L711.447841,808.964296Z M126.790501,823.058677L126.362996,817.274408L128.204509,816.142190L128.523974,813.076830L126.652315,812.410092L123.351704,808.204841L120.868230,803.963320L121.095815,814.646266L119.482341,815.772209L121.558433,817.877163L125.701473,823.763241L126.790501,823.058677Z M139.397034,798.047409L138.648376,794.039287L139.972791,789.020305L138.311531,789.234392L134.857140,790.969334L134.715276,795.802363L135.081469,797.520510L134.000093,801.122196L136.799801,801.134967L139.397034,798.047409Z M141.795782,763.617297L138.532547,758.345685L134.499152,756.429869L134.364637,758.364905L135.432623,764.216044L139.149634,766.338624L141.795782,763.617297Z M221.259848,773.203174L212.947838,768.598444L207.419885,761.846488L201.692111,755.535921L194.216917,752.533135L187.159207,751.876065L184.981386,752.683775L177.066433,757.990098L176.874505,760.985000L177.410607,764.574637L176.078650,771.113825L172.162724,773.523104L166.283399,773.484713L164.785529,774.802739L164.348529,777.323229L163.120327,778.496937L155.787667,781.003891L151.929989,784.047386L153.427319,786.220872L155.343957,788.090422L156.053532,791.589130L147.249188,789.100188L144.798595,788.761478L142.645051,790.157805L143.881157,797.182007L149.867908,800.429389L159.950598,807.164518L166.959724,811.165865L169.251118,813.411784L176.700761,822.322201L171.701633,822.299884L166.646502,819.637463L161.408725,813.571283L154.019859,808.709021L154.827620,812.958797L156.864803,817.239326L159.518666,820.775818L167.251212,826.887207L170.973228,830.561948L172.048949,835.787551L171.816892,840.632712L175.105558,837.323096L177.878530,830.797769L182.259316,827.594805L188.242295,829.092779L191.583865,831.804754L195.236278,833.707042L198.156853,833.847237L199.798796,832.094730L199.494712,828.570095L197.651443,825.012894L195.046104,822.252059L192.123334,821.324243L189.475682,822.631461L186.767812,822.338143L184.236111,817.083053L182.368776,811.778420L177.376129,805.776246L179.054004,803.181268L181.489949,801.016841L184.834150,802.510904L191.680927,806.577311L198.674851,815.804104L207.723671,823.626156L211.522215,829.988317L209.627750,835.026105L214.026163,837.020457L218.457017,837.485564L218.328783,848.129135L216.852639,857.981428L215.384142,863.582227L213.157910,868.501031L208.105959,870.355697L207.647376,871.936680L211.318540,881.115593L214.711822,887.684961L215.466298,892.902129L218.444784,895.426230L221.758447,897.622782L227.061383,903.798669L229.053098,911.197404L229.286272,913.612621L227.783471,914.531019L222.229969,916.358250L228.056537,923.946442L231.271165,925.163430L234.741179,925.573326L252.267591,931.324483L253.114822,928.785735L253.156174,925.535196L246.718480,920.009422L244.055357,916.710980L241.969670,913.027891L240.928513,906.296795L241.525631,899.634875L242.483304,896.185975L245.779364,896.233658L249.468049,896.974317L251.486991,899.253442L252.643598,902.327075L252.235721,903.627038L250.709660,904.011618L248.737422,905.362394L250.287699,908.705831L257.447719,918.004314L261.131735,925.430339L262.191225,932.801965L261.767819,934.997522L260.727094,936.818142L260.456115,939.083586L261.619000,941.955902L271.208390,935.648879L278.490673,926.272372L271.982207,918.363393L272.473437,914.511952L276.152329,914.187812L283.023489,916.285161L287.974041,916.606115L288.048368,899.285228L286.159362,892.279028L282.647650,885.437010L282.106798,877.722311L280.545258,870.244356L279.628351,863.318126L279.468664,856.641505L278.538750,847.505065L279.122174,839.208912L285.851177,822.819565L286.217452,820.310282L285.584062,817.915432L278.726105,814.346426L279.208915,811.963458L278.874498,809.551411L275.216565,806.890065L271.385997,804.911304L270.033368,800.755044L270.341486,795.984407L260.572672,796.147287L250.126762,794.710049L251.189305,787.003878L253.363259,779.769662L252.687658,776.398896L249.804837,773.187178L245.925167,770.896231L242.234644,769.939407L238.424667,771.827380L235.122664,774.393270L232.608888,775.279368L229.446776,775.157814L221.259848,773.203174Z M271.417242,750.734911L268.172488,750.561804L268.329698,751.876065L270.320433,755.481449L273.556974,755.571168L279.310449,757.176371L281.178997,755.016822L282.096486,752.834412L281.015074,752.154924L275.098802,753.135681L271.417242,750.734911Z M283.681676,739.566892L282.351502,738.796681L280.139299,735.789087L279.295714,736.354082L279.003083,739.120819L278.056412,741.402326L283.234300,742.201215L283.681676,739.566892Z M103.261581,739.027751L103.314924,731.964889L101.924743,728.415496L94.250958,726.053865L97.579545,737.605948L100.831249,741.694297L103.261581,739.027751Z M376.782245,730.285112L367.425234,726.159910L358.461758,723.569506L351.801548,724.250921L346.292878,726.963242L341.780305,731.534534L339.142342,731.830004L335.936841,731.107371L341.298244,738.286384L342.253096,742.576575L341.299901,746.008722L336.552637,748.920355L329.749914,748.641411L327.192694,749.170436L322.426881,751.520269L319.348651,751.908118L312.865658,747.323546L306.940344,741.344573L303.732776,740.872908L300.607211,745.739324L298.408016,747.631383L299.099945,753.295927L298.642818,756.833563L299.420771,760.856892L299.192650,767.478191L294.927123,771.216221L288.960627,779.107733L285.875219,781.918294L278.442496,786.824910L275.458735,790.397435L278.370532,790.387850L286.955866,785.370699L291.618929,784.239179L293.793782,784.475719L296.109766,790.969334L299.046826,792.713637L302.980617,793.467516L304.213323,795.933308L304.886306,798.816966L304.168791,800.786971L305.587070,804.362310L304.784586,808.747312L309.740430,812.126162L312.346541,818.074887L318.129609,817.883541L324.463966,818.996505L324.553662,828.139827L326.957713,827.260134L333.756748,828.821878L337.290274,828.652961L340.823375,822.947092L339.100572,813.679741L340.250979,811.813514L342.547301,810.783006L343.499250,807.193240L344.098865,796.310165L343.569093,789.090602L358.320370,779.203667L361.106850,778.855104L370.985699,780.402779L377.957835,783.305760L391.523323,793.879577L395.774154,796.466653L394.314958,789.940537L393.758413,783.887557L394.805084,778.167542L396.366833,772.822447L402.339158,764.898001L410.143026,758.915880L405.861130,757.125111L404.697094,751.879270L400.941038,748.275889L398.080503,744.247883L392.933393,732.241077L385.534634,733.021428L376.782245,730.285112Z M369.877796,715.321077L369.860955,712.769479L366.985873,711.977790L359.583195,712.975435L360.586255,714.484567L364.156093,716.414860L366.187291,719.312754L368.314067,716.289403L369.439665,716.630384L369.877796,715.321077Z M407.269874,728.193817L402.568379,720.943023L403.712981,711.340526L401.290879,711.282591L398.959945,712.985089L396.511635,716.044919L395.358116,722.926616L392.633848,727.798636L394.854831,730.901813L398.533228,733.406763L403.824681,733.798505L407.269874,728.193817Z M102.650847,723.881292L100.664692,719.746877L102.306821,711.578700L99.848578,706.627222L99.491364,704.388808L98.452248,702.945612L96.855612,701.940388L92.271557,707.171440L92.852339,709.016381L94.867384,712.801660L95.690771,722.775530L98.231304,724.806946L102.886611,727.049998L102.650847,723.881292Z M640.910513,699.304337L637.752776,696.045208L634.707111,696.074227L636.214179,699.700763L638.536641,701.721285L641.758012,702.404352L640.910513,699.304337Z M265.017464,601.289501L264.289208,598.457613L256.763735,592.214156L253.359169,595.326282L254.354077,599.374513L258.680589,602.960532L263.685405,603.776502L265.017464,601.289501Z M481.057527,493.544742L486.490614,488.112013L485.150443,477.383747L478.270678,476.709939L477.088615,473.484044L474.968807,464.556843L472.645911,460.785279L471.227134,462.405626L467.419015,471.042642L467.239121,476.525297L469.911825,482.091886L474.096562,482.341446L474.856942,483.754640L475.528593,488.650313L476.673408,491.413530L474.419510,493.061376L476.034454,493.713438L481.057527,493.544742Z M503.101073,261.918946L493.228323,256.613226L489.487326,255.346586L482.302622,253.445517L480.945046,255.088308L481.447172,258.552554L485.285939,269.514661L489.800070,276.854412L501.906853,273.386252L503.649872,272.400179L504.637259,270.596959L506.757000,270.157155L510.596765,272.584276L515.654984,279.165580L518.257202,286.476926L518.579513,290.607303L516.807275,293.284351L504.828051,289.533729L502.102171,290.253595L502.641183,293.741619L501.864521,296.360713L499.259149,296.617680L495.730082,294.853634L493.112829,292.579734L480.619020,275.780344L478.399360,273.236458L474.389187,272.188008L471.138435,272.581155L467.978906,272.325295L464.250307,271.039915L463.109042,272.730933L463.251020,275.443177L470.895797,285.376019L472.268694,289.092467L473.877358,295.605552L473.808245,297.999881L472.427902,300.175797L470.415626,301.675021L467.359922,301.944802L464.942915,302.857776L463.976047,306.740555L464.535550,311.522111L467.091152,315.679188L473.833733,323.389886L480.328255,329.810167L482.240171,333.336429L484.890289,341.324516L485.832473,348.798354L485.364712,351.138564L483.555376,352.416894L480.085313,352.876937L480.775561,355.352521L486.061117,358.156775L490.023226,357.562741L492.964568,357.677094L496.729441,359.631102L503.889398,366.523242L509.082753,374.669493L514.153715,385.175075L515.473537,388.618001L516.055833,392.095272L515.997634,395.203444L515.311537,397.663113L515.538281,400.588643L518.240481,408.710066L522.210338,423.409909L522.735016,429.571359L521.204312,435.583761L520.429381,442.065908L520.655755,448.434267L521.912330,455.231181L524.843019,463.909806L526.832323,472.272981L526.351081,475.161640L523.193451,481.129354L509.403235,492.094700L508.205699,496.695170L509.392575,504.092282L509.573768,510.927880L508.430943,516.814244L506.565249,522.140194L500.045745,533.706340L496.045793,536.704349L490.932596,538.190454L483.190018,543.950107L465.354672,551.480113L464.531886,553.265994L461.986374,563.552547L460.096741,564.658666L457.340365,564.697705L450.043084,563.305297L442.218264,559.098841L440.124148,555.240597L438.343809,550.943383L434.854051,546.470825L426.783001,540.414855L426.305206,536.798651L428.522319,534.928919L431.303481,533.618550L434.941886,529.395222L439.823820,519.124472L438.426235,515.930517L436.206239,513.493991L430.347955,515.131301L420.401702,520.707021L415.042525,522.806441L414.395613,535.039474L424.089313,551.515895L428.083026,565.439456L425.847166,576.770471L421.882029,590.773444L418.962882,595.706741L415.273615,599.992266L413.806004,607.082360L414.429467,615.486153L418.916278,623.233447L426.175273,630.314867L424.507997,635.971688L420.693836,640.996878L416.581489,644.807404L411.766821,647.887356L407.061984,646.918070L391.893057,646.399355L387.906899,644.716614L384.715255,641.992595L384.637877,637.490158L382.555243,633.362633L379.524507,632.077394L376.835319,631.681412L363.547975,637.253314L341.488088,639.598848L336.515053,642.920128L331.035149,645.488306L319.357345,647.615057L313.157231,648.435176L306.578418,648.409245L299.361189,647.336267L293.235125,648.263378L290.756529,649.939114L287.958398,650.827119L279.092482,644.340477L273.036279,644.188073L261.753398,647.345992L254.031311,651.478493L252.287649,653.516619L251.324851,660.910775L244.622774,670.886985L240.147798,679.756759L236.261248,683.448029L233.110464,687.845038L230.204904,693.833055L226.775879,699.317230L221.836051,703.225894L216.447311,706.630442L213.250764,710.938190L211.044637,716.231500L208.395619,719.962323L203.905145,721.261326L196.439613,720.344969L189.873989,721.319199L188.231523,724.141641L187.052709,727.441996L187.296181,729.925351L196.931915,748.727981L200.288948,746.656534L204.039951,745.777810L209.588813,748.734393L214.854677,750.548981L219.300933,749.420511L222.879166,746.897048L226.167120,745.861195L239.693414,743.715404L241.122244,744.161277L264.325596,756.622106L267.868869,757.717795L265.614561,750.795818L265.468631,745.030515L261.919534,732.215386L263.196117,725.771073L268.315651,723.900577L276.388213,728.264497L284.221594,730.959627L290.406369,730.358989L301.613029,725.465777L309.129451,727.252425L311.612928,724.517689L317.290761,721.795023L321.893844,718.647059L323.568964,718.846451L328.252480,716.569266L333.055175,715.173085L343.624288,714.597178L347.685447,712.444444L351.558914,708.105228L355.790043,701.208949L357.416068,700.139067L363.438738,699.491272L368.493124,697.437986L374.102543,696.393424L382.773664,696.748074L385.757597,697.947325L396.170098,703.573818L403.172810,705.606318L411.059016,704.160103L419.572338,704.069908L423.971088,706.498408L425.827083,711.147407L425.721362,714.214293L424.058512,719.724368L422.730233,722.094008L417.310826,726.323795L416.393954,728.177753L421.392212,735.134165L426.064629,746.675775L431.791650,753.827928L438.865364,759.851195L446.204406,765.378229L451.457615,771.488207L456.806773,776.427682L471.965643,780.776879L481.934678,775.880727L484.292411,761.689567L485.798373,740.901786L486.790885,735.512998L496.134120,730.195173L508.434806,727.461274L511.060719,725.828918L510.890890,722.116512L509.269032,718.618114L506.251217,716.601433L490.227821,708.372466L483.052207,702.481677L482.121939,695.142359L482.426823,682.282194L484.164578,679.711529L486.638785,677.905357L488.952492,677.294593L492.139466,678.881192L491.457227,682.640682L493.631618,687.018763L498.389588,694.065262L499.849507,698.869214L502.837700,700.458112L504.165995,699.633082L500.843411,693.449255L501.803104,692.146137L504.753520,693.520211L507.633468,696.702938L511.346504,697.157515L517.743764,696.122591L520.672173,696.267681L523.124843,699.233430L523.433036,700.822260L514.406451,706.237553L514.724529,708.784577L527.097132,705.252034L538.541803,703.415966L550.229776,704.524095L556.433077,704.295394L562.987455,704.952491L575.780912,707.892719L575.161467,698.898223L576.868018,691.300937L579.412410,686.841232L581.376168,682.081951L581.123746,678.312508L582.008473,675.510518L588.603962,673.021232L594.986890,674.899579L601.654794,679.562915L597.712407,682.899042L600.839636,689.448936L603.846864,701.105833L607.165944,704.285730L610.439129,706.382473L613.387049,705.777014L615.947279,701.160613L616.600674,698.675819L617.290238,691.865489L615.652414,684.109993L610.989314,674.805834L610.198920,670.980774L610.026428,667.280230L612.654093,662.820767L618.231061,661.490287L624.248264,661.461151L630.842783,665.125197L637.892592,671.824825L639.796326,671.352684L640.588825,666.565178L640.344822,664.520015L637.277624,663.089430L633.984177,660.072202L630.337996,654.125712L634.048494,648.438418L633.579700,646.743006L632.453840,644.804161L631.362108,640.649818L632.539910,637.597222L636.284982,636.912641L640.509022,636.922374L644.660948,639.238773L649.074688,642.440154L649.914300,645.410490L648.440272,649.076968L645.885890,653.205578L646.257697,658.362459L643.444684,661.584171L646.811193,665.850069L650.602510,676.457548L653.269508,680.580546L652.507312,684.080932L656.238703,686.860599L660.873181,687.870858L661.544337,684.717014L664.140869,678.700251L667.759862,674.847858L674.416403,670.971072L675.764818,669.221266L676.606565,666.591063L676.451477,663.552290L672.243791,655.078160L671.021967,647.414069L674.735988,639.326360L676.106887,637.383092L686.818976,633.151680L681.693460,629.324772L676.745898,625.123442L662.418223,610.917461L658.019969,605.379104L654.222334,599.459049L652.713837,594.366985L651.672355,589.186321L649.697981,585.208492L648.273556,581.379972L646.262137,566.116142L645.787387,558.454707L646.923025,555.559401L648.735767,553.200934L650.134001,548.116682L648.145271,540.616489L638.046780,517.142403L628.335267,501.764650L621.703758,493.512301L615.568325,485.077240L612.020449,478.222830L610.432430,471.855296L610.844111,461.008422L611.610503,459.326898L617.893356,456.449668L624.059451,456.559566L628.516382,454.943554L627.384291,448.744266L623.101292,439.875517L619.853060,431.239865L619.695259,427.700421L620.206278,424.494338L619.484933,421.016451L618.147212,417.267256L619.273621,415.930190L621.727240,415.637746L622.875626,414.464898L623.655675,412.951783L623.732446,409.689143L626.085454,408.289595L622.583729,401.236125L618.369611,387.460505L612.412418,375.575169L609.481181,371.800558L607.455836,367.134419L605.412194,363.723093L602.735079,360.323956L596.104241,352.905493L588.895103,345.845216L575.951099,331.344076L560.843496,319.562847L553.093579,315.883677L545.727540,310.704955L539.605187,303.488483L534.137572,296.037954L523.203657,279.571692L518.059007,269.673719L513.755302,259.872745L505.944140,263.121432L503.101073,261.918946Z M382.258560,216.871923L382.886727,215.896538L380.029562,207.097695L377.055330,207.589585L374.804122,209.356249L375.387865,211.884566L379.676956,216.676838L381.274382,217.212557L382.258560,216.871923Z M348.040151,24.792208L348.421906,22.814934L346.201510,21.032577L340.829475,17.609581L337.152607,16.632704L335.960524,19.277813L338.765731,22.597968L344.762071,25.244632L348.040151,24.792208Z M327.174145,11.231903L324.081406,6.964590L321.224196,3.813499L317.710615,2.841610L316.135744,2.801242L321.138907,9.267590L327.956691,15.268026L327.174145,11.231903Z M364.033763,0.000000L362.150524,1.667782L361.578666,4.499673L359.805028,5.763242L354.896739,6.883883L355.265023,8.454456L356.420131,10.229620L357.463144,16.117869L361.303059,22.467787L369.663461,29.114181L377.770142,36.098784L390.883117,50.333482L399.988440,65.128313L402.518451,72.166512L404.310446,78.964172L414.049122,94.387003L416.092678,100.728045L415.405802,111.481099L417.391427,118.171128L422.994738,126.383033L429.314471,134.650564L431.654598,141.078997L430.981512,146.127373L428.919298,147.048967L423.549062,147.372609L413.016028,146.044153L405.783845,145.760591L403.369364,145.159569L389.028104,139.054246L382.805447,137.383957L379.347322,139.596638L381.449490,143.763380L385.339848,148.167856L394.934816,155.581825L396.118018,161.631596L394.342706,167.143127L391.844662,171.650306L388.710228,175.603097L385.489155,178.649318L382.661732,179.491991L380.463139,180.896547L381.632262,185.163496L385.485464,193.614801L387.577630,197.446909L392.840028,204.381883L399.583739,209.959646L410.069524,215.695281L413.107146,217.739016L422.111268,227.536746L425.286951,234.506101L426.315725,241.338706L429.750394,248.932973L432.693578,252.440747L436.048730,255.471061L440.201082,258.001515L443.987311,258.692656L449.090416,256.603889L452.612447,252.571390L453.140036,249.508153L451.944162,242.838913L453.511616,236.709509L455.126387,233.721092L465.621924,237.227865L471.122367,238.317458L476.210889,238.690003L479.474048,237.265114L481.437741,234.388190L477.403284,231.658091L461.802872,223.420504L446.722331,214.630235L443.824503,214.178245L438.417351,214.484729L435.237457,213.651983L426.571105,209.281988L418.032782,203.413883L415.746862,200.822657L414.459445,198.176383L413.442378,194.439839L413.119777,191.146189L415.113803,186.577857L418.218249,185.935509L421.771781,185.821249L427.304737,186.815656L433.701706,190.333721L447.974966,199.221218L450.677777,200.324889L464.243984,187.365390L486.240096,185.333335L503.154901,192.122454L534.180848,205.656187L560.947888,214.503304L575.764015,220.601000L583.251862,221.998248L583.903094,219.609736L583.802022,216.661355L581.720731,212.432400L579.076091,208.038184L576.591909,201.400838L575.835775,195.465806L576.171692,184.088923L579.310902,174.643360L584.469263,166.223925L592.443269,160.398088L597.439407,159.716602L610.439187,162.294634L616.294997,162.084927L623.508829,159.130724L629.177988,158.674365L633.470521,156.734934L636.133078,153.121608L639.490355,150.177627L643.834837,147.576043L646.677451,147.351033L652.187074,147.733242L653.071675,146.568133L653.296375,140.342435L656.307468,137.051137L660.054051,134.370142L655.329422,133.716856L651.599978,134.185249L649.559939,138.040357L646.677307,141.072833L643.863017,140.915658L637.993112,139.633619L627.425585,129.513732L619.288900,122.235503L611.701458,116.916975L605.196840,110.476467L601.889938,103.859608L598.923964,90.804347L597.648746,81.101999L596.273414,77.847347L594.213953,74.934645L592.534329,74.524237L587.458576,85.120998L583.666136,96.754638L581.688735,99.387188L577.891621,100.160884L571.619089,100.019093L564.787579,98.798427L538.293410,89.200934L532.640687,88.248087L529.938394,88.547205L523.202802,88.226501L519.165833,87.301370L509.788653,81.635649L499.901095,78.084909L483.060182,70.558500L465.893171,61.814889L450.067412,53.260448L434.135937,43.821640L405.733634,24.432733L384.238305,11.691122L371.261667,4.552453L367.412158,1.655360L364.033763,0.000000Z "/></g></svg>