<?xml version="1.0" encoding="utf-8"?><!DOCTYPE svg  PUBLIC '-//W3C//DTD SVG 1.1//EN'  'http://www.w3.org/Graphics/SVG/1.1/DTD/svg11.dtd'><svg enable_background="new 0 0 1000 1382" height="1382px" pretty_print="False" style="stroke-linejoin: round; stroke:#000; fill: none;" version="1.1" viewBox="0 0 1000 1382" width="1000px" xmlns="http://www.w3.org/2000/svg" xmlns:xlink="http://www.w3.org/1999/xlink"><defs><style type="text/css"><![CDATA[path { fill-rule: evenodd; }]]></style></defs><metadata><views><view h="1382.42778765" padding="0" w="1000"><proj flip="auto" id="robinson" lon0="37.4560330327"/><bbox h="162.79" w="117.84" x="502.01" y="-84.35"/></view></views></metadata><g class="" fill="#000" id="country"><path d="M912.370987,1012.622708L909.970262,1008.155919L907.400167,1006.489552L903.652198,1005.100912L900.251355,1004.857900L898.762422,1006.744135L897.632176,1009.613990L895.043117,1011.095205L892.080445,1012.090397L889.777781,1013.536896L888.030860,1016.730766L886.496233,1021.209128L886.454962,1024.437715L889.251138,1023.778111L889.479608,1025.513911L890.017949,1026.902550L890.990857,1027.735734L892.554140,1027.758878L893.048522,1026.312378L892.097705,1025.305615L890.757526,1024.402999L890.093790,1023.292088L890.459926,1021.347992L891.309416,1020.144505L892.415296,1019.913065L893.550763,1020.861969L898.257437,1018.107834L900.503583,1017.251506L902.161733,1016.973778L902.291615,1017.286222L902.734986,1017.945826L903.423606,1018.605430L904.289033,1018.941017L905.036801,1018.755865L905.408114,1018.397134L905.646575,1018.038402L906.016230,1017.853250L906.817954,1017.367226L907.319796,1016.175311L907.518850,1014.578375L907.421153,1013.016156L909.088271,1016.117451L911.402425,1015.631427L912.370987,1012.622708Z M659.977060,1380.427788L660.395127,1379.826041L660.806860,1379.617744L661.256822,1379.571456L661.780672,1379.374731L664.263535,1377.349622L666.625719,1373.299404L669.388761,1370.348531L673.054291,1371.609884L673.833145,1369.515343L673.948384,1368.693727L676.882567,1372.905954L681.639308,1374.236740L685.877471,1373.530845L687.175116,1371.563596L685.264414,1368.473858L685.038278,1367.293509L685.407219,1365.291545L686.205814,1365.152680L687.085387,1365.696567L687.696688,1365.777571L688.751708,1363.648314L689.542690,1361.426481L690.472688,1359.447660L692.108530,1358.024298L692.525374,1360.060979L692.071295,1364.203772L692.825447,1366.842199L697.347023,1352.191986L697.744905,1351.567096L699.560818,1349.727141L699.971637,1348.928669L699.877038,1347.158146L700.093465,1346.382819L701.119239,1344.785877L702.200613,1343.547668L703.284581,1343.443520L704.378624,1345.295047L705.830579,1341.267976L710.207042,1323.817335L714.408393,1312.222151L720.863616,1300.025224L721.395180,1296.599901L718.973298,1293.984621L714.603851,1292.526545L710.432402,1292.850562L708.573076,1295.627850L708.074078,1294.169774L707.850081,1292.757986L707.803018,1289.749257L708.277205,1288.765634L709.413017,1288.615197L710.820091,1288.765634L712.107368,1288.730918L716.064505,1287.712579L717.267036,1286.509087L718.244182,1283.974812L714.918039,1283.072193L713.446966,1282.412587L712.221013,1281.058660L713.618653,1279.774164L715.075312,1280.028749L718.272952,1282.030710L720.489386,1279.936172L720.644157,1281.903418L720.330287,1285.166731L721.162518,1286.890964L722.131719,1287.643147L722.920454,1290.906460L724.114433,1291.647070L725.217189,1290.975892L726.353506,1289.425240L727.278436,1287.666291L727.644446,1286.404939L728.047497,1285.398172L730.741676,1282.088571L731.135426,1279.635300L729.757783,1278.871545L726.976344,1279.114558L725.729251,1277.806919L725.186629,1276.510851L724.777419,1275.168495L723.950806,1273.733563L723.522284,1272.310204L724.314202,1271.234005L727.117474,1269.498200L727.026427,1274.323737L729.527734,1276.464563L733.132170,1275.816529L736.400738,1272.310204L746.977413,1240.706995L747.285826,1236.217049L746.998747,1234.110940L746.232490,1231.935400L744.849150,1230.789770L740.459636,1232.803302L738.701813,1232.143696L738.214332,1230.477325L739.754021,1228.463793L737.220264,1228.510081L735.726215,1227.237159L735.409023,1225.061618L736.425495,1222.457913L737.706452,1223.638259L737.606701,1224.205288L737.068671,1225.443495L740.404410,1225.755940L740.994915,1225.894804L742.609561,1228.047200L743.206410,1228.463793L745.904699,1229.806148L747.001157,1229.551563L748.617109,1227.931480L750.103388,1224.610309L751.523464,1216.428890L754.956857,1210.342007L757.613127,1202.750762L759.874464,1198.654267L759.661018,1197.809510L759.201470,1197.034185L758.977009,1196.247288L759.759069,1192.740966L759.899112,1191.421756L759.894897,1189.419797L760.133791,1187.568275L761.142913,1186.179633L763.408701,1185.554744L763.147913,1187.521986L761.717619,1192.949262L760.704847,1195.367814L762.926910,1194.962794L764.642918,1193.435287L767.709257,1189.442941L769.380618,1188.193163L775.489634,1185.068719L777.294943,1183.726365L778.779088,1181.944275L779.919175,1179.907600L780.724181,1177.708917L780.778836,1175.070498L779.486817,1169.897807L779.603225,1167.988425L783.960957,1161.114649L784.789097,1158.638238L785.421059,1151.417303L786.116637,1149.704645L788.791385,1145.735446L793.242657,1141.002494L794.244113,1139.312980L794.161429,1137.716043L791.519303,1139.903153L788.930986,1140.192453L787.428775,1138.549228L788.127887,1134.823041L785.499077,1132.543355L785.841089,1127.879836L788.319026,1118.795810L788.466376,1117.557605L788.972023,1115.382068L788.839778,1114.456308L787.002834,1111.632738L786.770339,1110.533398L787.339471,1108.137993L791.150696,1102.768582L793.537407,1096.820572L794.663265,1094.830187L796.164507,1093.071243L802.481400,1087.343101L806.198733,1084.739401L809.378725,1083.605345L814.636164,1079.369992L827.375997,1074.845339L831.488903,1074.359315L835.472886,1075.400795L839.191929,1077.310176L843.033755,1078.259080L847.407062,1076.384416L855.202513,1066.039047L861.055814,1063.319627L865.003165,1060.125755L868.507594,1056.272279L870.013227,1052.985832L869.175437,1050.995448L865.646827,1048.322316L864.850595,1046.239357L865.714381,1044.700281L865.958788,1043.774521L865.359864,1043.381073L864.331983,1042.964481L863.668279,1041.899858L863.354188,1040.615366L863.284610,1039.400306L865.874385,1040.997242L868.537257,1038.358827L871.385393,1034.540068L874.541784,1032.595972L876.384949,1032.214096L877.236422,1031.878509L877.076105,1031.554493L878.398760,1032.144664L878.475153,1032.688548L878.304571,1033.406012L878.763421,1034.540068L881.772455,1038.173675L883.496424,1039.492882L885.653958,1040.372354L881.522544,1042.698325L881.904758,1044.306833L884.700808,1043.681945L887.840684,1039.365590L889.287806,1035.674123L889.119275,1034.123476L887.913262,1032.075232L886.341629,1030.825457L884.809583,1030.744453L883.438425,1030.929605L882.317749,1030.582445L880.738176,1026.995126L880.045303,1021.486856L879.928523,1011.118349L879.538779,1010.169446L878.621183,1009.938006L877.704442,1009.613990L877.298059,1008.248495L877.591659,1007.438455L878.763687,1006.674703L879.038088,1005.725800L878.681185,1003.399829L877.602181,1001.802894L875.991893,1001.316870L873.938892,1002.323634L874.282215,1000.518403L873.931145,998.643740L873.132582,996.514493L874.642503,994.500967L875.813048,995.033278L876.954502,996.537637L878.254974,997.393965L880.526431,999.372776L882.776819,1008.121203L885.088526,1010.100014L887.800937,1006.315972L888.461735,989.594442L892.940890,985.729397L891.022723,988.900123L890.496360,990.659065L890.785651,992.626304L890.852057,994.362103L889.580392,998.296580L889.469461,1000.402683L889.972211,1002.439354L890.787557,1003.804849L891.974564,1004.753752L893.621203,1005.725800L895.592489,1005.841520L896.976529,1004.244585L898.302141,1002.323634L901.709719,1000.703555L904.231256,997.602261L905.784164,996.514493L906.876831,996.607069L911.770486,997.914705L915.394990,998.296580L916.589512,995.010134L917.110279,991.607969L919.650189,988.668683L919.745829,991.735261L921.172329,993.366911L923.336628,993.621495L925.686598,992.533728L927.594172,995.218430L930.215889,993.459487L934.747083,987.233756L941.954405,979.873969L944.689086,977.976163L945.302920,975.488184L949.885246,967.677091L959.540835,956.591125L959.613019,956.510121L959.615471,956.507302L959.615298,956.505253L959.743202,953.667472L960.142987,944.764090L959.708972,942.074645L958.213648,938.944306L953.449531,931.890023L947.193441,922.631276L940.921560,913.387226L934.505660,903.908034L928.382774,894.869735L922.694788,886.492776L915.832850,876.366943L909.457218,866.946538L903.284730,857.864152L900.113779,853.175994L896.929052,848.502534L893.769627,843.814377L890.583506,839.126220L890.510740,828.324353L890.431388,818.301398L890.348721,808.278442L890.213062,792.832510L890.069296,777.401275L889.917323,761.984737L889.757096,746.538806L889.675349,736.942049L889.577331,727.345291L889.437156,715.691035L889.431679,697.908376L889.414887,680.140412L889.386941,662.357752L889.348073,644.589787L889.298407,626.807125L889.238241,609.046507L889.167643,591.271192L889.086882,573.503223L888.996078,555.727905L888.909637,540.358090L888.895452,537.952585L888.785213,520.180938L888.665556,502.412963L888.536590,484.637638L888.398522,466.858636L888.251658,449.090655L888.096004,431.311649L887.956761,416.174324L887.811497,401.040671L887.660259,385.903342L887.503197,370.766011L887.390407,360.221315L887.010010,341.079199L886.643407,322.752732L886.488615,315.139972L888.245094,311.193976L892.481895,306.373541L902.655578,294.814783L912.838570,283.248674L923.017924,271.675216L933.167915,260.109105L939.527239,249.586441L945.871103,239.078471L952.225033,228.552129L958.563517,218.036809L968.851752,200.963187L979.120315,183.889561L989.395396,166.823279L999.638056,149.753318L993.538676,153.702997L987.929328,152.464819L982.352702,149.158110L976.352194,146.953638L971.087990,150.396289L969.279352,150.859228L967.483677,150.484468L964.139147,148.922967L962.139373,148.768654L952.131040,151.579356L948.813862,151.785107L942.541111,153.783828L928.482505,154.702358L915.680523,155.529035L909.104416,154.665617L902.978743,151.869611L897.326377,146.953638L889.075110,134.189742L885.740567,130.765461L883.696045,129.398688L877.668130,127.083991L875.364943,125.764982L874.045496,124.324726L871.875507,119.926802L868.726188,115.944053L861.073612,110.135265L858.245637,105.998203L850.428250,111.887822L840.059906,116.425363L826.895776,122.190061L810.793680,129.255397L810.091953,130.008592L809.387951,132.304918L808.724577,133.025046L798.888391,136.923288L786.254221,141.942138L785.904370,141.964182L785.526473,141.846610L785.146690,141.604118L783.938508,141.471850L783.830320,142.037665L783.934463,142.923128L783.376357,143.757153L777.743572,146.953638L765.676872,153.607470L754.959596,159.497084L744.293225,165.386698L741.814986,168.899156L739.457816,176.335573L736.105060,186.817833L734.091497,191.201056L731.741975,194.779647L722.012302,204.997368L713.891385,213.502949L710.708024,217.911889L708.097776,227.380086L706.032850,231.120336L702.027345,231.359154L700.009613,229.856441L699.037390,227.956923L698.350168,226.031686L697.239193,224.437119L693.353634,222.963799L677.675517,222.434726L678.795042,219.811407L678.191535,218.338086L676.542540,218.227863L675.744969,218.752458L670.922901,221.924024L666.137833,222.063640L661.231431,220.884249L649.851358,215.006378L648.220978,214.164290L647.010108,213.833619L639.820494,215.556780L637.875015,215.586173L635.983456,214.796238L633.877599,214.472915L628.626128,215.622914L625.357847,215.681700L615.966519,212.815889L603.527290,209.024200L601.212117,207.598643L599.223048,205.342735L595.756035,200.272453L595.820632,201.213027L595.678900,203.208073L595.717947,204.181714L588.380682,203.582833L587.712489,203.090501L587.572488,202.326284L587.332610,201.852323L585.566028,202.638584L584.879944,202.745134L583.242704,202.539383L581.484765,202.039703L580.980607,201.205678L580.718993,200.081399L579.688892,198.725649L577.284893,196.495460L576.618905,196.168463L575.420037,196.723255L575.176592,197.906321L575.297473,199.173892L575.152802,199.989546L568.800154,203.156635L561.778398,203.836347L548.342499,202.127882L534.997479,200.419417L531.071686,200.772133L527.130060,201.885390L525.595506,201.595135L522.664830,198.747694L518.898552,197.443382L517.276595,196.436674L515.309071,193.842747L512.040088,188.048663L509.669605,185.414320L505.765980,182.599945L493.124516,173.484457L481.058745,164.784142L467.970409,155.349003L456.348621,146.957312L446.076060,139.550285L431.610180,129.137825L419.253024,120.224405L406.895395,111.314659L400.028506,106.372964L399.286119,106.152516L398.534275,106.174561L397.883412,106.005551L397.470326,105.241334L396.776065,102.081588L396.263241,100.703792L395.414830,99.436219L394.476207,99.098200L391.963510,99.311299L391.032722,98.620563L389.006710,94.858261L387.772534,93.818484L382.630804,92.488451L373.634409,87.392441L366.117814,85.052024L341.936925,85.287168L341.624942,85.202384L340.882377,85.000586L339.009630,83.740361L337.916396,83.468476L318.290380,83.924068L294.982614,84.453142L293.358072,84.203301L291.057742,82.954099L289.820367,82.575664L288.497802,82.583012L284.189278,83.248029L265.875412,83.419706L265.376130,83.424387L262.486224,82.649146L259.786670,80.683490L254.854451,75.863038L252.588157,74.272142L251.716217,72.262395L251.720009,69.841147L252.054603,66.990025L251.884996,64.249128L250.176384,60.901999L249.894086,58.447683L241.826718,58.409015L232.377303,58.363722L231.906511,50.057092L227.003335,49.660594L223.545934,52.436082L222.932452,58.357973L222.921838,58.431257L222.296966,62.745034L211.165693,58.424104L210.976604,58.350703L204.769563,45.961971L199.544579,35.535486L205.385976,17.924111L195.906286,14.779222L183.422148,14.779222L187.972804,3.773871L185.141625,0.000000L175.445732,6.126159L166.729698,11.634333L164.439749,6.916999L155.772898,10.636326L145.565831,15.016422L134.150672,19.914676L123.942507,24.294772L114.458442,28.363972L104.340133,32.705087L92.205260,37.736907L83.729341,42.580034L75.142784,47.486058L66.498191,52.578147L56.732634,58.330111L44.249422,72.563674L31.775583,86.804581L19.297842,101.034463L6.803472,115.275363L10.460814,117.263063L13.321008,119.779837L14.933389,123.079198L14.821783,127.455078L15.002547,129.391340L16.125122,130.949167L17.544590,132.400445L18.615765,133.998688L19.026133,135.648368L19.086572,137.320093L18.765984,140.634151L18.298490,142.614502L17.771036,143.966578L17.737577,145.410508L18.752060,147.670092L20.263639,149.246289L22.123058,150.638781L23.596432,152.273765L23.936759,154.570090L22.646750,158.214817L21.092506,161.492131L20.941738,163.957466L23.875025,165.151554L25.841057,164.710660L30.796575,162.697243L33.235220,162.711939L36.031499,164.354270L36.380072,166.297880L35.042075,168.215770L29.093198,171.728228L29.336319,172.507141L31.318265,173.344840L32.914492,175.508896L30.433402,177.320237L29.616760,178.418798L31.220606,179.102185L32.283247,179.021354L34.441658,178.389405L36.903911,178.205700L39.384540,177.408416L40.706050,177.283496L40.792440,177.977904L43.631402,182.056176L45.595358,187.791475L47.059533,188.724701L47.636000,188.129493L48.164174,186.766396L49.457311,185.377579L52.855054,184.256973L55.124636,185.282052L59.257842,190.205370L61.635676,191.601535L63.993466,192.417189L65.851791,193.761916L66.731220,196.752648L66.557219,208.186501L65.444372,213.885057L63.106351,218.036809L61.946711,218.709172L60.666905,219.091280L59.531943,219.657094L58.845989,220.902619L58.967739,222.442074L60.546942,225.487917L61.083969,227.049416L60.904985,228.397817L59.686777,231.880878L59.329044,233.490141L59.672867,235.191257L60.676263,236.716015L61.873471,238.174639L62.811897,239.695722L64.497843,245.368556L65.937656,262.827950L67.335585,266.083215L69.976979,267.971710L75.914132,269.889597L78.569393,271.866270L80.072470,274.847592L80.080917,274.864347L83.954824,296.372606L85.239126,298.848958L89.274323,303.867796L91.190534,307.262676L92.346021,308.600053L94.064033,309.114429L94.839497,308.813151L96.227582,307.512516L96.743673,307.225935L97.052529,306.976095L97.599110,305.866513L97.908185,305.638718L98.390914,305.895906L98.668446,306.388237L98.881096,306.880568L99.130263,307.137756L99.367730,307.519864L102.942763,309.452447L103.606390,309.636153L104.475052,310.841261L104.993870,312.097808L107.640336,321.062641L109.669617,333.415003L115.083886,345.877588L116.277169,347.185571L118.004459,347.332536L119.006670,346.281740L119.825923,345.098677L120.965974,344.900274L122.243160,346.840205L123.023552,353.916542L123.775534,356.628035L127.238325,360.610771L128.415581,363.035684L128.107645,366.261552L126.274769,368.781992L123.758919,370.413296L121.505704,372.397316L120.433953,375.909765L121.300803,381.494411L126.272289,394.754409L128.592113,400.945144L134.390269,416.416815L134.425226,419.168722L133.294159,425.510233L133.120996,428.276836L133.299409,431.216122L133.840334,434.063556L134.754775,436.554601L135.869125,438.031592L138.838700,441.147235L139.486455,442.730775L139.030497,444.255530L136.705991,447.621012L136.173467,449.351517L136.235274,476.988148L135.502699,480.074398L131.579066,489.630748L130.680567,491.243681L129.404027,492.606774L128.161948,493.253417L125.530759,493.863319L124.276103,494.579769L121.411240,499.458982L118.830791,510.940563L111.406056,517.855229L111.639471,520.238121L111.901102,522.910798L114.112799,528.693840L115.453315,534.351962L113.898877,540.127656L109.910925,542.177806L99.584002,543.375564L96.983618,545.183224L92.722122,549.841989L86.641391,551.414506L85.796673,554.015772L85.603548,557.219592L84.969261,558.455922L84.265175,559.828206L84.119174,559.859740L81.645490,560.394018L79.588637,559.078689L77.509200,558.527573L74.951550,561.378678L73.729402,563.921158L72.690313,566.816353L72.053965,569.843815L72.002064,576.222060L71.273620,579.131951L68.049785,588.243730L64.447062,593.571181L62.662295,599.295435L60.514730,601.514594L52.467890,606.085179L51.433287,607.334375L51.168736,609.117111L50.682832,612.389942L48.675392,618.488954L45.660800,622.163058L41.603756,624.499788L36.507354,626.586679L32.801873,629.467177L30.657572,633.846708L30.554504,634.330374L27.560485,648.366766L27.173375,649.571872L26.293436,651.056209L24.130816,653.966099L23.574900,655.259384L23.709250,657.875345L25.132697,663.063180L24.786532,665.958373L23.711716,667.839514L19.199295,671.807546L9.119760,687.050541L8.052228,688.664332L0.750216,699.686642L0.361944,702.493657L4.271996,717.145980L8.149659,731.754215L8.276324,737.250673L5.943221,759.824364L2.906475,789.143710L0.779708,809.542334L1.189241,828.926907L1.798100,857.864152L11.365321,857.864152L11.884868,857.790670L13.831768,857.864152L14.063256,861.582345L15.745644,862.831541L20.404194,863.243041L29.790225,869.195090L56.673863,886.242937L83.562052,903.276088L103.838942,916.142008L110.428684,920.323938L137.286904,937.357092L164.149523,954.404946L169.824958,958.006064L190.990782,971.438104L217.810493,988.485962L244.634729,1005.533821L271.450532,1022.581684L298.244949,1039.629548L325.057078,1056.662719L351.847893,1073.695893L378.630257,1090.743767L405.404500,1107.776947L432.183335,1124.824826L441.731170,1130.907359L458.941004,1141.872710L469.232267,1148.427328L471.111756,1151.925084L473.147725,1167.341666L473.396542,1169.214354L475.702344,1186.594027L473.416650,1186.785081L472.156087,1188.004888L471.690356,1189.988910L471.840303,1192.531398L469.463629,1192.737148L466.457201,1194.544813L463.623518,1197.057908L461.765506,1199.350556L461.113909,1200.614452L460.497121,1202.201670L460.151791,1203.862371L460.327378,1205.361410L461.222218,1206.404859L463.281151,1206.698789L463.902590,1207.815720L463.366631,1210.167154L462.332151,1212.944787L462.670255,1214.899417L468.681627,1214.502612L471.363523,1214.767148L473.999665,1215.560758L476.356897,1216.854047L478.084541,1218.676409L479.003042,1220.866182L481.067547,1229.625278L482.287364,1232.535179L483.978684,1235.092365L490.740575,1240.647631L501.336889,1249.392033L511.918382,1258.136435L522.523979,1266.880839L533.102016,1275.610548L543.678035,1284.354954L554.278405,1293.084665L564.029235,1301.149478L564.850837,1301.829074L575.447650,1310.558788L586.016766,1319.288502L596.583916,1328.032915L607.175265,1336.777329L617.752151,1345.507048L628.327102,1354.251465L638.900359,1362.995883L649.472168,1371.725606L659.977060,1380.427788Z "/></g></svg>