<?xml version="1.0" encoding="utf-8"?><!DOCTYPE svg  PUBLIC '-//W3C//DTD SVG 1.1//EN'  'http://www.w3.org/Graphics/SVG/1.1/DTD/svg11.dtd'><svg enable_background="new 0 0 1000 483" height="483px" pretty_print="False" style="stroke-linejoin: round; stroke:#000; fill: none;" version="1.1" viewBox="0 0 1000 483" width="1000px" xmlns="http://www.w3.org/2000/svg" xmlns:xlink="http://www.w3.org/1999/xlink"><defs><style type="text/css"><![CDATA[path { fill-rule: evenodd; }]]></style></defs><metadata><views><view h="483.405364728" padding="0" w="1000"><proj flip="auto" id="robinson" lon0="75.0787616966"/><bbox h="66.3" w="137.43" x="946.11" y="-724.84"/></view></views></metadata><g class="" fill="#000" id="country"><path d="M319.257132,481.405365L320.943768,480.408005L322.623739,473.309878L327.409561,465.596624L339.862898,463.092467L346.433143,460.672402L353.733767,459.599662L377.766226,462.722861L385.537307,463.128236L401.262390,462.538064L413.307829,460.994247L422.010733,456.382169L426.014665,452.677456L433.621334,450.498199L444.183053,450.861373L450.070788,451.927162L457.944353,450.295781L467.632977,447.039835L470.970234,441.637649L472.737325,436.131713L472.462521,432.726407L465.314925,419.587241L459.295529,413.721879L457.487038,409.193749L458.509900,405.734152L459.500229,399.760373L461.135548,387.542751L463.978481,379.764034L466.236367,377.798585L472.084339,375.992939L487.028543,373.851492L502.097453,368.397295L516.913349,352.121871L522.063340,347.493715L530.026267,345.171796L536.282864,345.336366L536.775205,343.355861L529.567901,333.307752L529.382128,329.669641L530.842517,326.807177L533.436570,325.499439L548.861365,330.784382L559.250564,330.232860L571.065558,327.088689L593.003138,309.417841L596.529742,309.698801L600.065072,312.081457L606.870408,322.726279L617.946228,345.248203L620.948109,348.069887L640.330584,348.381507L650.780514,340.171585L655.892978,338.233411L665.657517,339.566592L669.301161,335.726193L673.595754,333.037774L682.621517,342.480358L688.856403,337.963277L694.806026,330.784382L696.408059,323.371121L699.418596,315.372551L700.448027,305.245438L699.022037,295.678871L699.635224,291.203016L702.766686,286.600804L707.593539,266.983915L714.160734,261.991001L721.335524,260.202994L741.752231,263.592898L751.659277,263.161818L781.897387,265.736916L794.181872,261.973528L802.359372,258.240614L816.482530,258.828707L831.921998,255.853643L845.384450,231.344810L843.818460,226.141739L843.223921,220.621807L849.230027,215.168225L857.340695,210.175114L872.735638,198.248397L905.892313,179.389370L917.432626,171.848285L923.482078,172.056421L936.453730,167.327817L958.844627,158.111881L961.953127,146.655837L967.911051,144.381751L997.216339,142.321488L998.593843,141.017360L998.963527,139.084434L994.244747,130.812765L989.672589,123.703533L971.207386,110.374340L951.680588,97.381917L939.055982,94.394050L918.206740,92.252696L907.570981,92.143331L900.382806,89.087071L891.688944,81.577551L882.106382,74.789232L870.393407,67.582810L862.592284,56.629899L858.131743,54.663954L852.129988,56.066546L841.074298,55.727389L834.583690,54.761673L824.743502,52.887805L808.521661,48.427721L795.430277,44.198054L780.663568,43.393553L772.585494,44.232533L746.830640,45.037052L723.583818,40.600915L705.792755,39.773505L695.128112,40.032069L689.761228,39.480469L680.920695,39.514943L667.589290,38.549660L647.713722,31.724370L640.834215,31.379687L636.627856,31.626709L609.420317,36.647889L596.444704,37.814222L567.843698,37.245415L539.741769,36.682362L530.396842,35.625221L525.635634,36.165279L519.419679,48.220823L515.584977,50.088690L488.344775,47.456463L454.438741,39.520689L428.918414,30.839689L406.624644,21.660674L376.315437,7.165841L358.705203,0.000000L357.993760,4.128315L354.471265,5.443221L348.884739,6.086328L335.271740,5.334123L331.694386,12.678521L317.210138,17.933251L308.465232,22.637083L304.876529,27.944490L306.744535,63.224174L308.414857,76.123748L322.816699,97.865539L314.423731,96.598931L303.168710,91.032442L298.435960,86.658456L288.513294,83.976899L254.305726,79.937839L246.478246,74.950291L241.240716,70.895349L231.853374,68.244137L219.144577,66.202698L189.825103,56.790859L178.573729,56.434449L142.432639,49.197849L136.968125,49.278311L134.553967,49.582920L123.068494,54.319063L115.083006,55.698647L105.438954,53.790238L91.240509,59.630784L85.121598,67.416043L81.079608,76.946348L76.155121,82.964197L77.101107,91.964894L73.793390,96.644989L71.057417,106.008101L72.852082,111.468924L79.875176,116.781373L82.339068,114.672359L87.221534,112.534759L97.767956,116.625782L107.561491,121.766692L110.267428,124.147421L110.801677,126.908981L94.854447,136.961348L84.437757,141.663641L79.446725,142.511922L78.430231,143.833477L78.364610,155.299080L71.614256,157.360982L63.242035,160.878969L58.271727,166.166128L51.688259,178.689455L30.549226,196.898790L31.334763,200.629376L34.644387,203.659820L44.073545,205.751999L57.430103,211.363767L65.068586,215.748277L80.446231,210.082346L85.070154,211.334774L91.401090,217.186924L101.310473,233.598653L110.402816,238.072808L121.547219,241.513887L128.143961,242.635956L137.767208,246.677510L149.347916,248.189842L156.305575,246.694959L166.685556,250.162007L167.721016,248.655217L161.181072,224.156357L170.272299,228.249399L174.740045,228.179718L177.716232,225.183837L178.455447,221.120876L177.182636,213.039672L172.884985,204.986952L175.170443,201.318841L177.599706,200.484535L179.901414,201.457897L181.759291,203.526535L184.448883,210.836107L191.051519,213.921208L195.040777,215.690271L200.305718,221.881124L205.370215,227.784868L211.822023,241.630159L219.993636,242.577815L230.096726,245.235173L235.472664,242.635956L240.771863,244.165175L244.519100,250.749653L246.449148,256.901515L248.654351,261.781317L251.638358,263.173469L258.733901,260.109816L265.417176,259.690527L272.587600,262.614255L281.754837,267.059672L296.759111,278.750556L301.023558,280.407630L318.356498,281.335481L322.626946,283.705107L328.483347,283.693433L334.133749,281.580588L349.359921,285.357183L350.512554,287.494208L349.076888,290.437774L320.720593,306.678938L319.818006,311.677474L314.965300,318.043796L308.631556,321.665323L305.051275,321.794272L286.693813,315.349123L285.255900,316.901389L284.722387,319.502776L285.673773,322.351120L291.362767,329.153389L291.036368,333.442744L288.870050,336.536407L277.775770,333.824254L275.329921,332.092920L274.562161,330.197658L270.610259,330.191791L265.101338,332.092920L256.973096,343.867104L254.746301,350.033879L254.351431,353.757347L249.756195,355.881605L244.323285,356.682024L238.806988,362.263626L232.164052,366.570249L228.665948,363.400442L226.020803,359.855054L223.609569,358.754065L218.966948,359.584208L213.065941,359.737294L205.630241,355.758018L196.380158,351.757169L188.878425,350.345573L168.644059,352.233638L158.949269,354.204513L156.298155,356.134670L157.245014,358.330195L156.994787,362.316635L138.437443,369.128231L130.805630,374.889695L131.809328,385.102725L130.209185,388.062760L126.716842,390.485995L122.744812,391.041674L112.901935,379.026194L104.987541,376.529868L93.392235,372.306241L70.877781,364.107352L59.462694,360.549873L41.067894,365.886689L19.930570,373.214481L17.599057,377.680556L16.517825,382.468086L17.793438,386.112907L20.871287,390.976645L20.789462,394.695956L16.739373,395.902600L8.846229,391.384559L2.327382,388.783740L1.275409,394.932538L1.036473,405.923681L1.764565,413.935307L10.119984,425.504198L16.676533,442.672620L25.739579,441.738761L32.884809,441.786344L44.921445,436.708309L51.654270,436.571587L62.718165,438.783175L81.113477,439.229127L95.329146,438.313464L98.926568,438.682096L101.410220,435.442225L105.521458,436.559698L110.174583,440.501697L123.442729,435.721580L134.088125,435.055898L141.123200,436.452700L145.481169,437.849723L155.755908,449.194464L163.185849,456.268981L170.412203,458.533002L190.255087,456.441742L193.390249,446.498282L197.954283,444.040867L206.148611,443.279382L212.572436,441.393794L216.928246,437.326556L223.428579,433.778167L229.780559,433.071037L233.789013,435.685917L236.214671,439.133988L236.365552,443.612524L237.460057,448.277792L242.635189,451.415092L255.407430,452.147480L262.176164,455.083566L264.077632,460.606842L265.609892,469.294413L271.876369,472.790700L274.680394,473.083107L290.444050,463.879418L295.548370,463.730369L301.127527,468.799306L309.167444,474.897419L319.257132,481.405365Z M145.649510,406.142829L138.121537,410.817424L132.761874,410.313695L127.390852,405.793379L123.246591,401.565653L121.913396,399.180403L123.405725,399.215911L130.841489,401.133532L140.863725,402.483247L144.584554,403.649631L145.649510,406.142829Z M248.116817,391.000292L247.015199,396.222037L241.976785,394.973941L237.285695,391.502799L237.693769,388.771921L242.730194,387.282759L245.142193,385.793888L247.507705,385.545771L248.116817,391.000292Z M193.307671,397.985090L188.683509,399.091636L179.507017,398.914105L173.933076,397.677415L174.206223,387.844115L173.743370,385.882503L173.280327,385.593031L170.260151,384.281163L165.107961,380.277613L161.984651,374.341082L161.908579,368.874754L164.116492,366.576142L166.076440,366.953304L174.138549,375.320355L179.808929,377.763176L189.977836,379.156049L187.528244,387.418663L193.740363,396.263447L193.307671,397.985090Z "/></g></svg>