<?xml version="1.0" encoding="utf-8"?><!DOCTYPE svg  PUBLIC '-//W3C//DTD SVG 1.1//EN'  'http://www.w3.org/Graphics/SVG/1.1/DTD/svg11.dtd'><svg enable_background="new 0 0 1000 487" height="487px" pretty_print="False" style="stroke-linejoin: round; stroke:#000; fill: none;" version="1.1" viewBox="0 0 1000 487" width="1000px" xmlns="http://www.w3.org/2000/svg" xmlns:xlink="http://www.w3.org/1999/xlink"><defs><style type="text/css"><![CDATA[path { fill-rule: evenodd; }]]></style></defs><metadata><views><view h="487.505927925" padding="0" w="1000"><proj flip="auto" id="robinson" lon0="75.0700509576"/><bbox h="66.95" w="137.61" x="946.04" y="-725.18"/></view></views></metadata><g class="" fill="black" id="country"><path d="M319.822038,485.505928L320.928538,485.423847L322.566984,476.897382L322.941047,470.326028L323.604725,468.466413L325.193601,467.855023L327.279399,467.577705L330.464912,465.781629L332.181402,465.718614L335.677707,466.518925L337.374687,466.600850L338.925291,466.355076L341.120616,463.204687L342.076712,462.751116L343.694267,463.160588L346.661355,464.716745L348.292290,464.748248L349.213231,464.067791L350.451971,461.799947L351.222143,460.955943L352.801269,460.458393L354.489528,460.546565L374.176544,465.126302L375.667053,465.063292L379.701900,464.187497L381.797072,464.332407L388.370543,465.611491L390.272086,466.147119L391.732885,466.052594L395.887794,463.588979L397.081992,463.355882L398.406728,463.708679L400.389663,464.521424L404.144280,465.460261L407.237501,465.227118L416.344253,461.913326L421.711251,460.899258L422.031804,459.652293L421.742790,457.939557L421.945270,456.050873L423.905140,454.452085L433.994062,451.897115L437.407602,451.576220L446.830124,452.526352L450.048001,453.898239L468.002495,451.481841L469.474951,450.569564L469.929538,448.858503L469.784055,444.657702L470.082772,441.916917L470.809148,440.163506L472.042620,438.906794L473.871270,437.618850L473.991922,436.312250L469.800317,429.801011L467.766055,424.580509L466.394711,422.040440L464.348723,419.914899L462.083325,418.792781L460.295861,418.404149L458.711177,417.601872L457.023882,415.208035L456.191228,412.865006L455.909880,410.485076L456.137368,408.299912L456.806519,406.559718L458.971934,404.288019L459.438647,403.299437L459.484277,401.904370L458.714707,396.870415L459.406793,394.482764L460.789111,392.614409L461.826032,390.590348L461.512090,387.736331L461.206209,385.975224L461.289157,384.383547L461.687724,382.954442L462.325899,381.706534L464.385104,379.629216L470.609573,378.787220L473.336516,377.452689L475.849738,375.463790L478.871942,374.129830L482.260009,373.712235L485.918633,374.429016L489.701662,375.644578L492.870187,376.099683L495.790447,375.657046L498.905727,374.198392L506.961329,366.168194L512.924971,357.194454L515.486743,354.881074L518.738683,352.978626L520.030712,351.828668L523.596295,347.050295L525.227317,346.298683L527.442278,346.422912L536.399337,348.417037L539.245716,347.665301L537.181859,343.739985L535.471351,342.150510L529.545110,338.128493L528.249241,336.304321L528.198306,333.903710L528.617342,331.379764L528.709865,329.178892L528.664894,328.751182L528.668180,327.517759L529.334088,325.820574L529.499670,325.398417L531.521843,325.212534L534.078816,326.185364L544.421822,331.677390L548.465335,333.116060L552.327539,333.860295L554.723341,333.531583L558.889454,331.497573L561.230051,331.125550L563.278085,331.813805L565.511760,333.016834L567.613893,333.841688L569.318066,333.426150L569.754913,332.433902L569.768091,331.299159L569.983780,330.350554L571.054873,329.904188L572.144662,329.674814L572.962939,329.172693L589.350012,313.119985L592.748031,310.837054L596.319324,310.874171L599.878693,313.379868L603.309931,318.473845L606.017790,325.249710L607.456129,327.517759L609.039376,329.036319L612.609455,331.460370L613.989676,332.762571L614.917261,334.908535L614.471817,336.502851L613.696795,338.153315L613.643538,340.462022L614.553957,342.721693L617.853942,348.038054L619.370952,350.125783L621.585812,351.810021L623.767455,351.635988L627.738060,349.808861L629.793093,349.591373L631.986199,349.740507L638.876263,351.250641L641.083993,351.381160L643.058995,350.946106L644.604528,349.715651L645.577301,347.659089L646.038419,345.634091L646.782872,343.920062L654.320295,339.971679L656.672043,339.760654L658.739921,340.313054L663.041094,342.212593L665.032310,342.622354L667.736263,340.691686L669.478084,336.806860L671.354540,333.847890L674.520007,334.697636L676.157686,336.719999L680.141369,344.118772L682.021341,345.603037L683.480655,345.031657L685.698007,342.169135L692.602841,336.930948L694.501520,334.455729L695.601032,331.038747L696.020864,322.598202L697.301842,318.919628L701.295836,315.155932L701.856601,313.454121L701.551911,311.511356L698.190065,299.387693L698.442934,295.088553L699.824241,291.433349L702.201389,288.785435L705.431305,286.773754L706.468144,285.274521L706.489916,282.874994L705.449780,280.500720L703.932695,278.164004L702.818683,275.877144L702.987243,273.621616L704.177823,272.136695L706.982345,269.672575L707.735409,267.800243L709.508403,265.454150L712.860061,263.958101L722.710029,261.760593L725.553045,262.222216L731.663474,264.696864L734.964787,265.638862L747.451275,266.353114L752.609104,264.727647L755.689367,264.567576L761.549601,265.638862L767.835735,267.781767L771.228327,269.167504L774.087863,269.284531L781.016674,267.301422L786.122631,267.529275L787.890043,267.369162L789.228461,266.876520L800.048572,260.511236L803.007948,259.526626L806.474055,259.397403L819.949363,261.095892L824.335673,262.726947L826.442869,262.936233L827.981821,262.320699L835.227219,254.463486L836.148186,253.005895L836.864866,251.105788L837.898718,246.449969L838.627853,243.158448L839.919268,239.791924L841.022058,238.373127L844.204162,236.242194L845.489308,234.854539L845.789117,232.828619L844.765055,230.680305L841.440600,226.108785L841.100282,223.973971L842.071319,222.133923L843.440310,221.054559L846.784715,219.411169L853.654860,213.011419L860.400484,211.638726L863.356800,210.204913L863.918290,209.034700L863.687119,206.082080L863.983385,204.795883L864.916334,203.760895L866.024873,203.050536L877.617750,198.311729L884.449176,192.647602L885.963632,191.830770L891.523011,190.809035L899.995707,183.619277L903.339910,182.228239L907.559417,181.243895L909.365012,180.427737L910.986287,179.043125L914.212536,175.107035L915.542362,174.043741L917.508024,173.564061L924.357932,175.357593L926.645629,175.320926L928.370763,174.624266L934.365713,169.815767L939.933825,167.647259L944.168370,164.098906L948.202251,163.127986L952.870739,163.234845L957.030360,162.666973L959.444594,159.672248L959.592791,157.578417L959.093800,153.187151L959.214333,151.106371L959.949689,149.379706L961.114868,148.248015L964.206997,146.905948L968.801903,145.716478L993.488684,145.987913L997.764644,144.487447L998.972263,140.761249L998.039890,138.508233L996.537352,136.849906L994.787478,135.371565L993.118354,133.646480L991.942387,131.723479L990.199904,127.887221L988.933429,126.104956L983.817899,123.841568L979.559072,120.287095L975.465344,116.224757L970.813592,112.403741L962.554591,107.250292L956.990675,102.308044L955.110059,100.890091L950.072933,98.425623L926.883219,94.257929L922.538676,94.114963L915.165296,95.471654L905.640895,94.948437L900.001954,93.108141L896.145431,89.890246L888.209822,80.433633L884.025918,77.506128L875.093303,74.259795L870.438013,71.120209L868.254097,68.959474L866.426281,66.753318L864.973067,64.361980L863.872485,61.645742L862.742502,57.119196L861.574499,55.931462L858.891164,55.302678L855.287488,55.964876L848.963367,59.397580L845.220857,59.282138L840.957952,57.954585L834.385004,57.626503L825.501184,54.761994L813.326843,53.701914L811.368221,52.930415L807.074505,50.424679L802.291529,48.338218L791.616384,45.356030L784.908606,44.760836L780.722746,45.046285L778.935839,45.717403L776.147758,47.742976L774.682635,48.304812L772.586918,48.195481L768.112114,46.907832L766.115028,46.601110L761.822113,47.172039L757.289613,46.956421L747.148122,47.815863L742.576919,47.165965L735.964512,44.250676L733.517469,43.512779L731.177421,43.285036L729.075179,43.567438L728.322610,43.904500L727.050877,44.858010L724.921410,45.863168L723.504464,45.131313L722.631391,44.481462L721.940980,43.698011L721.071343,43.002636L713.988280,41.596740L707.469840,41.372044L705.562117,41.718198L701.250143,43.916647L699.616127,43.883244L697.382525,42.926722L695.222569,41.675688L693.001321,40.779947L689.130366,40.798165L686.119146,39.972279L684.583000,39.875117L683.198975,40.166603L679.722773,41.955041L676.829022,42.774896L666.705160,41.335607L664.970517,41.320002L663.330048,41.305243L661.594754,40.937839L659.758260,39.905480L655.694134,36.407796L654.310171,35.566817L650.591288,34.479943L638.934802,32.828431L636.762371,32.087699L634.965669,32.379133L631.590965,33.730076L627.299388,33.778650L625.457666,34.057951L624.012523,35.263218L622.733903,37.427924L622.124021,37.828695L621.585572,37.871201L619.695393,37.546333L619.025386,37.698140L618.960152,38.129276L619.031922,38.660611L618.786464,39.094793L615.697873,40.883184L613.976385,41.274879L609.611383,41.180750L606.401444,42.665581L604.523679,43.099806L601.820382,42.698982L596.073164,40.786019L593.399629,40.494528L591.839910,41.195932L589.837022,43.713194L588.257236,44.192980L587.161716,43.752670L585.395198,41.870021L584.184363,41.305243L583.035714,41.359899L581.386373,42.149376L580.400330,42.292091L571.195968,40.002642L562.353320,40.002642L554.668571,38.460221L552.143869,38.496655L546.457824,40.415583L544.216482,40.288057L535.847179,38.293230L531.867539,37.810478L526.937714,38.167472L525.997699,38.235542L524.648039,38.572561L523.852877,39.474326L523.391567,47.005011L522.894725,48.520437L521.339883,50.658540L519.191889,52.435328L516.738330,53.525743L514.262434,53.619903L507.140809,51.278128L505.120351,51.065523L501.410687,51.429989L478.523011,48.863619L472.057953,48.930433L469.332758,48.405032L462.320233,45.246708L459.419883,43.628169L456.168054,42.182777L449.671437,40.561328L446.472467,39.377165L442.948790,37.218431L433.312745,33.578283L421.608256,31.911625L417.805659,30.751983L405.390004,23.903987L403.495833,22.474402L399.737325,18.732164L397.855578,17.223805L395.688190,16.301206L391.353192,15.336134L387.175366,13.278579L382.938583,12.902278L380.667713,11.997950L374.321802,8.298832L371.085563,7.051675L367.637408,6.399278L364.527605,5.394900L358.159539,1.398757L354.850808,0.000000L358.649256,3.240539L360.387256,5.258355L360.718163,6.936367L359.393049,7.740492L344.644085,9.376078L342.670408,8.854143L338.112499,5.874330L335.945172,5.258355L333.709903,7.279257L333.297400,15.354343L330.267721,17.099375L326.183631,16.956735L324.609893,17.260224L310.063963,23.400137L306.271417,25.770701L305.165737,26.987896L304.667004,28.705983L304.286838,38.238579L303.376606,41.390263L303.167499,43.081586L303.522933,45.094872L304.449724,47.071822L307.008581,50.998704L308.020664,53.136956L308.301064,54.938171L307.455569,60.017328L305.854295,70.378672L306.199007,74.548545L307.459113,78.980481L309.547823,82.920595L312.315224,86.605876L323.522713,98.765079L323.591181,98.839392L324.274650,100.957031L321.673011,101.413445L315.141952,99.295763L305.756565,97.926677L304.087269,96.408609L303.118120,93.865535L302.202749,90.270409L300.181179,88.698090L297.675299,87.953023L290.538172,87.509034L288.657573,87.086340L286.778145,86.253136L284.363028,84.915202L280.221914,83.546934L275.838557,83.419233L263.950843,85.289208L260.592874,85.179742L257.010935,84.352683L253.241946,82.975323L250.055013,80.935263L244.775414,75.357062L241.673007,73.031880L238.129321,71.542650L223.253845,68.555303L216.253365,68.640391L212.634090,68.050858L198.736998,61.132297L191.509445,58.820374L178.838764,58.346466L177.470520,58.711010L175.063785,59.907960L173.650626,60.081126L170.242717,59.276062L157.065871,53.701914L150.604008,52.356358L148.780915,51.733714L146.952988,50.828622L145.242109,50.239413L143.748692,50.530979L140.731653,51.621335L133.983910,51.931136L131.091017,52.854481L122.433490,58.987459L120.845064,59.269986L119.480213,58.838602L114.648809,55.922349L113.506775,55.463670L112.506313,55.545685L111.106116,56.177511L105.923470,54.761994L103.587605,54.844007L102.330346,56.232188L101.874371,57.966737L101.144587,59.637579L100.076511,60.962163L98.571536,61.645742L96.373564,61.284203L93.728159,60.308978L91.357225,59.701376L89.947122,60.457842L88.988559,63.891027L88.278273,65.385948L87.008796,66.324868L83.698280,67.418794L83.258696,68.594809L83.833596,71.074622L85.541448,75.715734L85.603756,77.463571L84.532358,78.868002L76.495816,80.053617L73.501802,82.054084L75.893401,86.465996L77.246436,87.594182L81.539288,90.282575L81.543319,90.294740L81.557445,90.306905L81.577637,90.306905L82.839756,91.632965L83.093098,93.022973L82.556848,94.194050L81.436301,94.851095L79.800599,94.714209L74.263424,92.031406L73.193590,93.284560L72.444441,95.264800L72.087972,97.579855L72.232919,99.855591L72.834185,101.127425L73.640503,101.918554L74.152789,102.737099L73.907039,104.106479L71.887036,107.575960L71.076446,108.538282L69.386760,110.543727L68.798242,112.367209L69.914555,114.136050L74.935007,117.607199L77.290666,118.578619L80.343365,119.193775L81.883608,117.387951L85.291440,114.531852L88.268178,114.148228L91.761024,115.302167L108.380815,124.118766L111.822597,125.059592L112.180880,125.157529L112.160571,129.556916L109.272358,131.851470L101.880799,133.960397L91.080922,143.243258L87.325648,144.112351L82.445306,143.920232L78.719241,144.880849L78.417593,149.202779L80.327287,155.982286L79.880842,157.966029L76.859974,159.131976L67.422204,160.142329L64.931687,161.763305L57.649782,169.247649L54.832723,173.796261L53.749723,179.373219L52.434573,182.491150L50.046575,184.285801L47.289664,185.689274L42.772651,189.882198L29.558084,198.323972L28.462649,201.391145L31.465559,205.212352L35.634346,206.939617L49.923694,208.342427L49.937717,208.354679L49.959956,208.360805L49.986067,208.379184L54.289808,210.400981L56.364293,211.761282L58.335156,213.452674L62.032703,217.559556L63.916899,218.816415L65.667501,218.888201L66.309223,218.914516L69.293237,217.749609L79.337255,211.461022L82.531880,211.001456L84.724145,212.055420L87.018442,214.071684L95.273952,222.728841L96.974379,225.151752L97.947773,227.654925L98.792860,234.946634L99.618584,237.022057L101.348167,238.643360L102.862555,238.416118L104.510931,237.580889L106.665080,237.384373L108.781965,238.102900L110.919974,239.275977L113.011832,240.787032L114.906250,242.494892L117.189551,244.049395L119.211883,244.239883L123.258201,243.656141L128.181115,244.436519L130.667642,245.358296L133.151598,246.821008L135.229602,247.736838L139.044073,248.191708L140.988028,249.359705L144.684687,253.190389L146.532425,254.149810L146.775639,251.849803L145.786585,249.353558L144.636693,247.220521L144.381872,245.573388L146.095738,244.559418L148.490706,244.737624L150.063072,246.175670L152.686065,250.656944L154.151701,252.323294L155.795140,253.553237L157.080281,253.467136L157.419560,251.185721L158.969578,248.296208L167.376727,253.602438L169.035141,251.862101L168.259147,247.730691L160.875667,227.219285L161.004296,225.710012L162.448252,226.016759L168.471765,230.060437L173.253226,231.735998L176.415125,231.134486L178.302194,228.544661L179.514577,222.103258L179.641270,218.123594L179.308704,215.757263L178.244545,213.581377L174.445206,210.351963L172.826150,208.379184L172.818269,208.354679L172.806147,208.348553L172.804177,208.342427L173.289982,203.797638L174.055025,202.487177L175.970109,201.691167L178.218424,201.991196L179.976478,203.571054L181.236662,205.873830L182.042166,208.342427L182.377139,215.003321L182.920922,216.443819L183.955589,216.756461L184.223448,215.787912L184.214163,214.494589L184.460344,213.838786L185.644441,214.237167L186.785041,216.143446L187.833235,216.529642L188.422491,215.898249L187.689617,213.397517L188.157500,212.894980L189.078543,213.201402L190.071369,213.857172L203.313367,226.372596L206.014949,229.888598L207.837340,233.804699L209.211920,238.870607L211.326984,243.877345L214.251546,245.014157L221.670924,243.791320L224.626655,245.597971L226.756856,247.558583L228.717780,248.382268L231.141293,246.765691L232.709422,245.020302L234.559429,243.649996L236.849023,243.305910L239.794796,244.663883L241.654301,246.950080L243.156624,250.189674L244.412074,253.583987L247.297481,259.803539L248.038785,262.136045L248.043375,264.265912L247.600093,267.104364L250.324790,266.270392L255.485638,264.690707L258.960129,264.222818L259.528884,263.674923L259.661610,260.542007L259.906175,259.680465L261.283595,258.351368L262.857018,259.169728L266.965787,263.219391L269.397814,264.401352L272.425551,265.152460L277.816131,265.620391L278.438769,265.977510L278.870448,266.470109L279.115434,267.079732L279.181908,267.800243L280.031364,270.534949L282.081200,271.378914L284.573504,271.532930L286.692778,272.210628L292.838820,278.256476L296.868098,281.327026L301.176442,282.868827L305.562395,283.337582L317.929135,282.282914L322.030322,283.232727L323.569322,286.730563L323.934918,288.717550L325.143460,288.544752L328.776834,285.613833L335.082897,282.511107L336.976056,283.497951L338.898893,285.249844L341.309925,286.551631L347.008656,286.212286L349.381689,286.676526L350.248994,286.846201L350.257151,286.847796L351.543165,289.254477L349.695028,292.927368L345.793576,295.372631L337.538818,298.528943L330.625272,303.429203L324.046769,305.104412L321.020088,306.470768L319.713451,309.810232L321.061259,317.792829L318.567472,319.018695L314.456083,317.483294L312.656797,317.470912L312.514016,319.464506L312.933766,321.235589L313.005421,322.938889L312.515545,324.413283L311.343995,325.534733L307.490833,325.745408L299.156206,321.322294L295.204117,320.851618L291.951172,319.545002L287.590210,316.022432L283.474750,313.355117L280.927226,314.574186L281.206786,316.545475L281.208977,316.560942L284.348215,319.849386L284.370928,319.873186L285.026230,322.015969L284.968423,323.967222L285.403614,325.305678L285.407576,325.317867L286.611028,326.402251L291.778975,329.272970L291.788160,329.278074L292.526070,330.269075L293.551541,331.646604L293.569840,331.671189L294.334236,334.474337L294.208845,337.507982L292.985357,340.064780L290.796683,340.517885L287.834759,339.586873L281.016137,336.409789L279.411594,335.907274L274.999080,336.099591L273.626837,335.721165L273.630289,335.692282L273.760951,334.598391L274.808796,334.288259L276.449265,334.145602L277.742717,333.705240L277.765961,332.489713L277.739860,332.473855L276.622780,331.795203L274.756739,331.602982L274.016980,331.639299L269.578247,331.857210L268.038607,332.260270L262.500713,335.628111L261.973292,336.868904L262.068727,339.108993L261.668463,342.467139L259.793175,344.882607L252.478559,348.926517L252.445758,350.628156L252.445738,350.629153L253.699439,352.431598L255.941034,353.687329L259.180216,354.930817L260.033702,355.374590L260.806638,355.776498L261.645855,356.721774L261.399013,358.027930L260.109345,358.357612L258.472140,358.115014L257.148848,357.660941L256.323104,357.499222L255.775399,357.580081L254.734728,357.922185L250.738587,357.617401L246.577310,356.734213L243.028627,356.927013L240.833386,359.800907L240.140479,363.628140L239.561394,365.265386L238.396682,366.691248L234.057490,369.562429L232.801728,369.942425L230.552425,369.126391L229.386276,367.289065L227.927481,362.345969L226.494323,359.900454L224.270950,357.175795L222.094801,355.757842L220.751368,357.262870L220.843521,359.564488L221.237265,361.648952L220.796992,363.036822L218.421588,363.260895L213.510460,362.395758L211.006208,361.580499L208.527928,360.342210L206.245704,358.737074L204.922588,356.958111L203.537089,355.515322L198.721246,354.234440L194.795356,351.517896L192.758677,351.387375L189.749961,351.691926L188.079208,351.555188L186.543367,351.002041L185.179133,349.883430L183.919835,348.622068L182.693638,347.876526L181.404068,348.274140L180.523344,350.467574L180.451417,353.127821L179.668553,355.160883L176.629746,355.453139L164.681845,353.911143L159.215781,354.831331L156.656710,358.226981L159.565142,361.151121L158.797063,364.088776L156.159979,366.386129L153.406152,367.351340L147.796051,366.242914L146.607033,366.678794L146.088820,367.239245L144.554315,368.129822L144.434177,367.949207L144.013055,367.650268L143.457541,367.432299L142.925853,367.500803L142.673634,367.787281L142.289697,368.559577L139.336315,371.630827L138.215589,372.403500L132.486402,374.397850L130.548544,376.716924L130.995794,379.810102L132.213764,383.528549L132.593660,387.711356L131.906619,389.903288L130.676230,391.571076L129.039879,392.745616L127.118093,393.470422L122.950106,393.601644L121.956113,394.157800L121.604782,395.232732L121.569794,397.901956L121.010955,398.952393L118.663819,398.239581L117.446805,396.645369L117.113796,394.539009L117.379355,392.277029L118.168646,390.584102L119.385173,389.566027L120.790108,388.772897L122.060255,387.730087L122.725779,385.045145L121.094374,382.904522L118.345975,381.419544L115.666162,380.689639L107.463718,379.579318L103.235000,378.032620L99.624579,377.614816L97.586658,376.735629L95.526827,375.120928L93.801387,373.444238L91.952308,371.973535L89.478658,370.951684L87.154143,370.783465L82.324060,371.082524L79.993257,370.440809L63.344590,361.792085L59.778916,361.449816L24.609740,374.466415L23.028632,374.690813L21.416844,374.528747L20.614119,373.949077L19.033982,372.104392L18.169263,371.873837L17.873611,372.403500L18.060167,374.485115L18.002237,375.270539L16.775182,378.070037L15.980618,380.814404L16.230489,383.902989L18.136186,387.736331L18.732362,388.454419L19.161763,389.197554L19.472507,389.990729L19.630265,390.821464L23.053348,394.745245L23.626446,396.345319L15.012415,399.533945L8.051487,391.870942L4.255736,388.816610L2.809053,388.554332L2.519544,388.810365L2.707942,389.553536L2.621743,390.765246L1.860081,394.738995L1.027737,407.667640L1.246045,412.320066L2.284477,417.113021L3.611962,419.338149L5.559158,420.949387L7.700524,422.360259L9.567611,423.997166L10.871352,425.998262L11.878875,428.294770L15.462192,442.778036L17.688273,445.707720L21.171219,444.192464L21.537916,443.306063L21.517661,442.356895L21.655989,441.571235L22.498461,441.175289L23.152848,441.533525L26.221352,443.896987L28.464707,444.563395L32.556043,443.903274L34.742284,443.909561L36.534604,443.645526L38.178352,443.035760L39.594528,442.055193L42.146738,439.321489L43.683261,438.661756L52.181446,438.146570L56.369657,438.598927L60.638291,439.843028L65.415186,442.086620L69.585510,443.199198L76.835056,441.709506L81.008324,442.124332L84.364386,443.419216L85.017062,442.790608L85.970587,440.691379L87.247552,439.264939L89.125240,438.655473L91.304348,438.674322L93.461316,439.120423L97.311808,440.961611L99.075517,441.520955L100.569863,441.005603L101.068230,439.836744L102.223190,434.189440L103.438667,433.077997L104.730723,434.264797L105.826566,436.525815L106.437646,438.598927L106.623677,442.966614L107.273374,444.676564L109.159286,445.286440L110.809108,444.884043L117.904377,438.718303L119.055238,438.259657L120.107718,438.372746L122.344116,438.969626L123.344103,438.988475L123.839680,438.605210L124.141712,437.939248L124.563632,437.298464L125.423825,436.971807L126.972709,436.651444L129.852988,435.502004L131.507584,435.301024L133.022148,435.828606L135.791096,437.694236L137.246864,438.410442L139.026429,438.573795L142.482984,437.932965L144.287205,438.146570L147.193277,439.880731L149.299109,442.438607L152.908194,448.258555L152.968153,448.355310L152.978663,448.374180L152.980457,448.380470L154.282240,449.204464L156.872952,450.141769L158.070896,450.997379L159.108434,452.658498L159.350851,454.338796L159.371620,455.962744L159.749794,457.473647L161.970077,459.979763L165.019224,461.466115L168.179612,461.970016L170.796951,461.573192L173.361152,459.960870L174.458215,459.614508L175.956022,459.576724L176.877998,459.715267L177.596026,459.425589L178.433798,458.096965L180.064352,457.246996L182.504061,458.210300L185.374962,459.696375L188.292115,460.408010L191.042102,458.858855L191.898589,455.496932L192.222940,451.519593L193.301276,448.141462L195.988344,446.103866L199.804187,445.034940L203.959485,444.808595L209.909355,445.846054L211.138635,445.858630L211.991309,445.097814L214.161706,441.652940L215.257511,440.653672L218.187324,438.887945L218.750240,438.335049L219.715630,436.959244L220.264283,436.481845L221.138513,436.155219L223.817729,435.671584L226.800922,434.151761L228.564404,433.975931L232.445866,435.903977L234.491537,437.270537L234.646174,437.373847L236.610132,439.195822L237.771321,441.150150L237.764080,442.966614L236.259151,446.487452L235.964605,448.380470L239.249145,452.620742L243.878125,454.408028L248.753611,454.628316L258.274856,452.601864L260.230111,452.551523L262.188880,453.898239L263.884622,456.680392L265.048729,459.828621L265.384634,462.278669L264.770747,464.105593L263.807499,465.397249L263.227271,466.915954L263.741418,469.424543L265.176007,471.851808L267.181515,473.800357L269.377950,475.124832L271.452138,475.698826L274.971801,475.295135L278.170256,473.806663L286.093097,467.218463L287.526809,466.386585L291.021822,465.655601L293.979828,463.847282L295.720161,463.582679L297.789640,464.849061L299.667312,467.514679L301.154616,470.609730L302.061096,473.188635L303.482129,475.023914L305.789092,475.869139L310.265341,476.544109L311.243441,477.017246L313.093370,478.165484L315.467087,479.206583L315.992728,479.963813L316.273922,480.907275L316.877018,482.078046L318.386657,484.082240L319.789375,485.473527L319.822038,485.505928Z M164.463227,367.936751L167.092065,369.244742L169.624259,372.185399L171.970098,375.482492L174.255466,377.477631L177.431010,379.130245L183.626285,381.307246L184.045317,381.581754L184.498832,381.800120L185.275203,381.899946L185.716220,381.731490L186.564398,380.901741L187.002698,380.621019L189.340140,379.984754L190.652932,380.203074L191.743588,381.325962L191.640108,383.216529L187.946912,386.218686L186.773191,387.698868L187.926672,390.821464L193.586842,395.226482L194.490375,398.952393L193.868447,400.421989L192.638258,400.903576L189.331262,400.972376L184.989538,402.154588L183.488771,402.029478L182.036294,401.022413L181.404514,399.690283L180.623503,398.652253L178.714243,398.564715L177.827254,399.308823L176.836540,400.572091L175.672502,401.385192L174.249247,400.790994L173.182454,397.714393L175.573676,391.458630L174.084047,387.936140L172.690545,387.080745L169.894328,386.549558L168.403174,385.900314L166.831426,384.389789L162.896708,379.354778L161.777998,377.409040L161.291709,375.407684L161.238321,373.282198L161.828396,369.525054L164.463227,367.936751Z M246.268322,398.971152L243.514529,398.245834L241.346295,397.389294L238.788828,395.945269L237.298855,394.201545L238.370935,392.401982L240.820622,392.277029L242.293600,391.483618L245.148615,388.941508L247.398557,388.217130L248.192479,389.472346L248.249287,397.195492L247.720360,398.689770L246.268322,398.971152Z M123.810558,401.253839L136.915225,405.032665L140.424285,405.145306L143.165478,403.799970L144.469636,404.094047L145.862971,406.328138L146.336503,408.500247L145.572448,409.376767L142.487110,409.984127L140.050191,411.361811L136.079724,415.226832L135.387870,414.800776L131.236341,410.247121L129.913515,409.076235L125.915042,406.872675L124.077904,405.095243L122.746679,403.086720L122.315163,401.216310L123.810558,401.253839Z "/></g></svg>