<?xml version="1.0" encoding="utf-8"?><!DOCTYPE svg  PUBLIC '-//W3C//DTD SVG 1.1//EN'  'http://www.w3.org/Graphics/SVG/1.1/DTD/svg11.dtd'><svg enable_background="new 0 0 1000 911" height="911px" pretty_print="False" style="stroke-linejoin: round; stroke:#000; fill: none;" version="1.1" viewBox="0 0 1000 911" width="1000px" xmlns="http://www.w3.org/2000/svg" xmlns:xlink="http://www.w3.org/1999/xlink"><defs><style type="text/css"><![CDATA[path { fill-rule: evenodd; }]]></style></defs><metadata><views><view h="911.882919644" padding="0" w="1000"><proj flip="auto" id="robinson" lon0="105.101998952"/><bbox h="71.92" w="78.95" x="1503.18" y="-246.57"/></view></views></metadata><g class="" fill="black" id="country"><path d="M339.141036,899.820997L338.979161,895.340803L337.253502,890.860610L334.449229,888.823374L331.782484,888.495344L329.993630,889.082345L329.541986,890.636169L330.975063,893.174081L329.618278,894.986876L328.892835,895.591141L327.383769,896.074553L329.253753,899.527496L331.606080,901.236703L334.353518,901.815071L337.407873,901.866866L339.141036,899.820997Z M246.381413,876.228769L245.360583,875.236049L244.906780,873.561372L244.896198,872.490961L244.938763,871.515505L246.509065,868.606402L246.009506,867.121638L244.911032,866.672755L242.825066,866.957623L240.413783,868.097094L239.920073,870.997564L241.497563,874.372813L245.874814,881.054255L247.988845,882.435431L249.074898,880.657166L249.735567,878.309166L250.391002,876.651754L250.264958,875.089298L249.656003,874.312387L249.313824,874.208798L248.903522,875.141093L247.725737,876.340990L246.381413,876.228769Z M236.012515,840.896562L235.453079,840.180078L234.967799,838.703946L234.500752,838.004726L232.103274,835.415022L229.359241,833.041127L226.182667,832.048408L222.541816,833.524539L220.938914,836.355948L221.832624,839.480858L224.265663,842.510811L227.315455,845.109148L233.469600,847.638426L233.374682,848.147734L233.775105,849.149086L234.417723,851.445291L235.467981,853.905510L237.196497,855.381642L238.120983,852.204938L239.741097,850.305821L241.843703,849.114557L244.222503,848.147734L243.852479,845.109148L242.373261,844.090531L240.742450,843.814296L239.871867,843.002855L239.333423,841.431768L238.276281,841.121003L237.086243,841.224592L236.012515,840.896562Z M170.970513,697.461533L170.366403,696.451548L169.982095,695.527887L168.926276,700.085767L169.427916,705.299705L171.628330,714.363669L172.163549,722.098251L173.184616,726.535276L175.431736,728.848745L174.685179,730.739228L176.553247,731.826904L179.508005,731.801007L181.937056,730.428464L182.873896,727.933716L183.392028,724.109587L183.184857,720.147341L181.948786,717.264137L182.817424,715.744845L182.350116,714.208287L181.236974,712.395494L180.164996,710.012967L179.743444,707.267880L179.764108,705.075264L179.441933,702.779060L176.653880,697.435636L175.088503,696.183945L173.303214,696.399754L171.388103,698.419724L170.970513,697.461533Z M178.384591,694.353887L180.073551,689.770110L180.806138,688.276713L180.667589,686.705626L179.723805,684.944626L177.323477,681.457156L176.207113,679.463083L176.382162,679.385392L176.532508,678.686171L176.456690,677.658921L175.950220,676.562612L175.155955,675.811598L171.751358,673.662142L169.571849,676.951068L170.934452,680.870156L173.726132,684.841038L175.712019,688.276713L175.421193,693.240315L175.759411,695.363872L177.623527,695.527887L178.384591,694.353887Z M463.899165,909.882920L466.500896,909.400543L468.301767,907.344962L475.048187,894.561993L476.328544,891.212768L477.889916,888.126658L480.111818,886.060115L482.981369,885.325588L490.966535,884.936398L505.127865,886.873907L509.613756,887.487651L518.931857,888.762517L527.282845,888.367846L533.677755,885.369440L537.750893,880.140047L544.351086,866.978860L546.297337,864.287423L548.524495,861.968730L565.956699,851.531875L570.077018,846.625896L569.406319,839.735600L561.580975,825.900194L557.991085,817.930036L556.734581,810.584775L557.655313,807.241037L559.484529,804.165894L561.097714,802.364169L561.815741,801.562164L564.078820,799.632662L567.994402,797.204341L569.160393,798.114276L569.830567,800.893416L572.242614,804.111079L574.977672,805.125163L593.454007,808.927026L601.830025,810.650553L604.878133,812.744501L611.806573,819.031826L614.673518,820.128133L616.296056,818.127372L620.769673,805.465019L627.496250,795.576324L629.693384,793.789343L630.582313,794.271718L636.001423,795.916180L640.383886,798.278722L641.903361,798.476058L650.988111,796.273107L668.085103,792.127026L670.814236,791.465171L674.863573,789.272556L678.160496,786.734605L678.205819,786.701715L682.286987,783.769093L687.512127,782.042408L692.551858,782.628933L696.032830,786.690752L699.893702,793.158966L707.074612,802.981882L708.679195,806.199545L711.447829,813.583176L713.102666,816.614467L715.907173,820.029466L719.404111,822.413935L723.251735,822.348157L724.805497,820.226801L726.654672,816.033424L728.001833,811.385080L727.985648,807.926229L734.683657,813.605103L736.612429,815.890904L740.459629,820.347395L745.504459,824.168028L750.938265,827.128058L756.041836,829.035634L766.698895,830.203202L771.700044,831.584550L776.174963,835.399701L769.644839,815.008376L764.214554,805.245757L762.965416,801.803351L763.223501,801.331939L762.984806,795.872328L762.537747,795.378989L763.410514,793.213782L763.952027,792.457330L767.209173,792.029770L771.188655,792.176840L773.142008,792.249031L774.341093,790.966351L771.885849,786.745568L767.786375,774.587518L765.310781,770.936814L761.728234,768.069970L758.442506,767.499890L755.739592,769.412946L754.000532,773.990030L751.730182,769.599319L748.924176,766.140469L741.869540,759.918924L738.767676,756.394295L733.519150,748.396731L730.514285,745.551813L720.295613,742.805563L716.176913,739.565974L713.712684,733.700728L713.709769,733.667838L712.803449,729.096235L710.188412,727.407921L707.069155,726.547320L704.503597,724.442409L704.052185,721.427562L705.705746,705.470800L707.117566,698.262573L707.351171,695.088761L706.751409,691.860132L702.847611,680.655859L702.749097,675.130463L702.299143,672.307468L701.224684,669.922996L699.007845,668.207273L693.957055,667.187705L691.559911,665.817319L689.343531,662.282178L688.741741,661.322451L688.912737,657.101661L690.705945,653.363246L692.876221,650.381284L693.380678,649.852414L696.755396,646.313975L699.864922,645.590411L709.068146,649.252085L714.419405,649.559052L716.393256,646.544200L717.676370,642.104145L722.290014,636.019625L723.106075,633.410407L723.311206,630.549037L723.191191,627.610926L727.052350,622.480193L735.730308,624.091769L745.726162,627.446479L753.460422,627.610926L766.732231,632.138687L770.585605,634.342271L772.159454,636.151183L775.270942,640.832426L777.087372,642.356297L779.595235,642.827710L789.801182,639.758042L791.762517,639.527817L793.632558,639.867673L796.314595,640.865315L800.716791,644.110393L803.218085,645.546558L805.637566,645.480780L807.051141,642.257629L806.945420,642.012538L804.927363,637.335197L798.946077,627.610926L798.429433,624.256216L799.156538,621.340030L800.421851,618.522511L801.426540,615.496693L801.504151,613.665854L801.240813,609.653356L801.319879,608.250077L803.597843,603.239935L804.028082,602.702742L802.482655,597.473336L795.866464,585.907245L793.894284,581.045270L793.549469,580.195457L797.795089,578.912771L799.949759,578.704472L802.395285,579.121071L804.199890,580.480498L805.137546,582.333266L806.276811,583.780399L808.756969,583.955809L814.059177,579.439001L822.990659,579.559596L839.268935,582.037262L837.480820,578.846992L846.992773,581.204064L850.801833,579.987158L853.916919,574.560410L855.426003,567.664601L858.003968,562.687338L861.959926,559.825959L865.390237,559.490569L867.678490,559.266839L882.007517,560.483748L888.810183,559.595734L895.426079,556.591834L899.613619,553.160371L910.938053,538.919246L916.014017,530.773624L920.591377,526.859777L922.594343,524.546551L923.548443,521.553609L928.402017,515.019563L938.848277,508.935006L941.711939,507.899301L950.396854,504.758038L958.510865,503.946763L963.206150,506.939709L969.752388,516.631149L973.681023,520.150324L977.906689,519.887208L983.246704,510.349254L987.392214,506.884893L991.970145,504.670332L994.327528,500.844184L995.323697,496.020387L995.731758,490.812876L999.451082,473.512963L998.964385,468.546634L998.942915,468.524708L998.941797,468.513744L997.353068,465.761981L997.512143,463.459708L998.431799,461.168398L999.173866,458.460486L999.168505,452.036044L998.112510,445.140181L991.034105,421.744646L989.940368,415.407891L989.507442,409.707001L988.424573,404.148631L985.274871,398.239433L979.355584,391.606656L977.802832,389.101548L976.716219,385.916716L975.342672,379.486753L972.678703,374.136669L972.005482,371.785043L972.087007,369.482752L972.969650,367.394244L973.840750,366.550070L974.170178,365.404405L973.964922,364.023030L973.337711,362.471722L970.179862,360.087204L969.374583,357.055850L982.662232,306.053148L984.399676,299.345081L988.572690,283.195751L988.513989,276.699935L985.033782,255.874919L982.788452,248.123767L963.640463,214.712595L959.780994,209.515897L954.919112,204.297269L954.436418,203.354407L952.301231,200.147580L948.223931,195.422303L946.916000,192.237399L946.727191,190.017284L947.400732,185.456454L947.411809,183.559761L944.650363,177.129641L945.063012,173.571968L945.800969,171.165467L946.025905,168.726074L945.338797,166.110503L945.059531,165.047797L941.711176,158.820486L941.310696,156.874450L941.304261,154.851668L940.946213,152.779550L939.546020,150.745804L936.529493,149.501435L929.660012,150.274369L926.349095,148.975183L923.773575,145.110513L923.333857,140.801816L923.438969,136.399924L922.553405,132.233748L920.057101,128.577378L918.060955,126.554588L916.978224,124.060360L917.265664,118.962265L921.152480,98.860383L921.185961,91.388628L920.974592,89.393234L920.189894,87.260794L918.064567,83.165849L917.422205,81.263644L917.243987,76.932975L918.116589,73.046333L921.000747,65.585509L921.292978,63.650408L921.347128,61.731751L921.708321,59.972068L923.000037,58.448106L925.296394,57.609378L926.492385,58.524852L927.355809,59.939177L928.635435,60.597002L932.102277,59.599301L934.179069,57.433958L935.455181,54.216094L937.000240,48.657461L937.336500,45.768504L937.324017,44.260984L937.776059,41.382989L939.914545,37.090663L940.579124,34.700554L940.384796,31.340147L938.884540,25.030469L938.745318,21.741321L941.723565,10.980310L942.017718,5.651875L939.075832,0.000000L936.868162,2.362715L931.969118,12.372719L929.279050,13.956995L928.254568,15.360367L927.373840,20.162529L926.898566,21.357587L925.817282,23.391377L925.483012,25.107216L925.585112,26.784681L926.027466,28.577265L926.250364,30.380813L925.875831,32.008939L923.746668,34.190737L921.604731,34.092063L917.012304,31.937674L913.428420,31.115389L911.508918,30.331476L907.571950,26.806609L902.056380,22.777403L898.607388,22.503307L896.151425,25.293601L893.509553,30.468523L892.682965,31.389484L890.712386,32.836707L890.101292,33.872786L889.995827,35.276154L890.125493,39.530108L888.696405,43.833396L887.230954,44.792728L884.335512,44.260984L884.306730,44.260984L884.265666,44.239056L884.245134,44.228092L881.471081,44.217129L880.274274,46.744281L879.672301,50.373292L878.570928,53.689833L874.124826,58.777019L868.948851,63.003546L864.999261,64.456243L862.875280,63.321495L860.985079,60.794350L857.616154,58.102748L855.136245,56.962516L854.581899,57.137937L854.587218,58.206903L850.069879,65.651291L847.225017,71.955442L846.490180,72.465255L844.225950,73.024406L842.845058,78.440487L842.926787,79.756133L842.386401,80.847023L840.149861,81.559665L838.224125,81.186898L834.459248,78.769398L832.693731,78.133502L830.746330,78.297958L829.744174,78.900963L828.981780,79.821915L822.327511,84.338966L819.531362,84.229329L816.804052,83.094585L813.976293,81.044370L808.434908,75.584436L800.689841,65.316897L798.868448,62.159337L797.843540,60.827241L796.199659,59.138823L795.304615,58.404251L781.238989,53.821398L778.773380,52.401622L775.441242,50.482930L771.028570,44.260984L768.962998,42.978221L764.575586,41.931179L762.830085,40.834800L761.930183,38.806497L760.132681,32.107613L759.063627,29.410515L756.236946,25.370348L754.994428,24.235592L751.517036,28.341543L750.255751,29.087083L749.043261,29.213167L748.205089,29.810695L748.153106,31.893819L748.469676,33.933088L749.067784,35.451574L750.000213,36.487654L751.429464,37.035844L751.590074,38.351500L748.708377,38.165115L746.255755,37.485360L744.200697,37.233192L742.610275,38.351500L742.316313,39.245049L742.195076,40.769017L742.541399,42.194310L744.851329,43.515446L744.222200,44.968148L743.014486,46.239947L742.293055,46.382476L740.886438,50.521303L736.430486,52.703093L726.626951,54.227486L725.431033,54.413441L723.058050,55.180905L720.490228,54.972593L718.624729,54.462778L706.403723,46.722354L705.152976,45.428627L703.862828,49.030229L703.318386,60.081706L702.620557,64.642627L700.412167,69.099388L697.691674,71.056416L694.195186,71.505929L687.629702,71.089306L683.062489,70.212208L680.197860,70.409555L678.173953,70.256063L677.237129,70.365700L676.794019,71.231835L676.733316,74.570292L676.353066,75.562509L673.167678,75.726965L664.617374,72.596820L660.787717,71.867732L660.222111,74.197525L660.216280,76.636954L660.753194,79.043491L661.917085,81.318463L665.913442,84.574686L668.379984,87.962471L669.507722,92.040968L669.403228,97.309021L671.473767,101.584858L674.355799,104.287404L681.259415,108.782509L684.591616,112.460818L690.812700,125.052569L693.696778,128.204614L697.002759,131.027749L699.831683,134.124973L701.209921,138.121212L700.295626,142.057149L697.707541,144.814496L694.663487,147.286788L692.334124,150.296296L690.461612,153.525074L691.957567,163.485488L689.657527,167.191175L685.977934,167.421410L676.044124,164.696963L671.661261,164.488655L667.289135,166.544324L662.779436,167.070575L658.017497,165.902955L657.205414,165.439427L652.725644,162.882491L634.965493,147.330643L631.213412,142.122931L628.436468,136.229988L625.067743,131.038713L619.504033,127.941487L617.476735,127.842815L613.561510,128.511596L610.864242,128.182687L607.714716,126.773860L605.674766,125.414369L603.760122,125.293769L601.124558,127.634506L599.312746,123.868496L596.084876,120.557476L592.544684,118.929374L589.877753,120.173748L588.596428,118.490829L587.193452,116.999772L585.612563,115.711543L583.987531,114.620659L579.282740,118.710102L576.739241,120.436876L573.757255,121.368786L569.722105,124.630469L564.767834,126.598442L559.350458,127.475533L554.072969,127.409751L551.009184,126.982169L549.040508,126.148933L547.308252,124.542760L541.705427,117.153263L540.232404,116.210389L537.445028,115.272997L536.080109,114.516504L532.226179,110.777896L518.991238,92.139641L516.716475,87.743197L515.445087,82.831455L514.661112,76.132623L509.604141,79.372403L506.619590,89.930456L502.151573,100.576200L492.512172,104.068131L488.177038,101.880877L484.420328,97.753051L477.088586,85.599792L476.568096,83.790780L476.304301,74.175597L475.915722,71.303099L474.698286,68.726621L471.082736,67.531574L463.573003,66.059992L460.256444,65.410089L458.679059,64.571362L455.453329,62.378613L453.942760,61.698860L452.225686,61.622113L448.791269,62.192229L447.468901,62.126446L444.232690,60.410619L441.517907,58.239795L438.788710,56.513002L435.666947,56.162162L433.287113,57.609378L428.304896,62.510177L425.581220,63.168003L424.207348,62.022290L422.798109,58.239795L421.183597,57.412031L419.744110,58.135639L418.303315,61.512476L417.249410,62.575960L414.110801,62.729452L409.244080,60.531220L406.258218,60.597002L403.547910,62.499214L401.832172,65.508763L400.431010,68.748549L398.680250,71.308581L395.178948,73.024406L392.067702,72.355618L388.975130,70.870032L385.510658,70.135462L383.603886,70.727503L382.245471,71.900623L381.195972,73.090188L380.243578,73.720603L379.601571,73.734824L378.511248,73.758976L377.239015,73.386209L375.903826,72.805131L354.368512,69.368000L343.775141,64.818047L339.310753,64.390461L336.708327,66.078877L334.508687,68.255180L331.310768,69.291254L328.957479,68.375782L327.673737,66.440681L327.277135,64.543953L327.762213,63.776490L326.153971,63.727154L325.813236,64.335642L325.658693,65.464908L321.713203,71.067379L320.402550,71.834841L318.061747,71.758094L316.619396,70.672685L315.519688,69.400891L314.341943,68.770476L307.809406,70.826177L302.944934,73.683224L302.830258,73.750573L301.247783,74.679929L295.015271,76.275151L289.376003,71.560747L279.387237,72.136343L277.867141,73.901504L277.594288,75.584436L276.771557,76.834301L273.549379,77.261886L270.724684,76.658881L268.493960,75.310343L266.465845,73.726084L264.303450,72.388509L261.510466,71.401773L259.929097,71.418219L258.452245,71.834841L256.053444,72.081525L252.478439,71.626530L241.215697,68.540238L234.787631,68.057833L233.358161,67.487719L232.536046,65.552618L232.347332,60.520256L231.650319,58.349432L230.358551,56.995408L228.702413,55.888068L226.780145,55.290543L224.917018,55.438553L223.269380,56.600712L222.893708,58.135639L222.807858,59.851467L221.873613,61.534403L218.290007,63.699744L215.517104,63.047401L212.800167,61.238382L209.332661,59.983032L206.274267,60.575075L199.592563,64.631663L193.203113,70.047752L191.911059,70.650757L189.940673,70.376664L188.385904,69.389927L187.283351,68.331927L186.534723,67.838558L183.957641,68.693730L179.275064,72.881877L176.238946,74.493545L172.310332,75.036250L159.735793,75.003359L154.316795,76.940774L146.349589,79.789024L135.356937,81.647374L131.765006,83.028802L126.060868,86.723572L114.812824,98.805801L112.816683,100.948965L109.887569,103.021100L103.287108,105.219317L100.344872,106.847422L97.851051,110.131040L97.388488,113.557184L97.480610,114.489981L97.756368,117.284827L97.780575,121.456495L96.835461,124.877151L93.666421,131.038713L92.736536,134.355209L92.662887,139.223056L93.107482,142.397021L92.750925,145.110513L90.402011,148.635311L80.754524,157.970808L76.752044,163.046945L74.080451,169.827912L72.167331,181.394462L71.078826,185.094657L68.275747,189.710305L67.580375,191.502842L67.357398,193.662657L67.587764,198.026139L67.057936,200.021499L63.122698,204.242452L45.547221,214.427545L40.151239,219.558458L40.397516,224.037040L44.856392,228.400504L51.925291,233.191540L48.658124,234.244033L40.527859,239.901179L37.087790,241.315465L25.867310,242.373438L10.671518,240.942707L3.508282,241.858156L0.548918,246.862971L1.041186,249.126922L3.422767,252.711968L4.349426,254.641532L4.664791,256.335383L4.821834,258.829890L4.858352,259.410626L7.349929,275.450107L7.491763,288.354028L9.267175,303.264226L9.506203,303.801158L22.333974,332.656977L26.759549,339.788624L36.335082,350.861579L39.979672,357.549199L42.119631,360.339360L45.499413,362.471722L45.507526,362.661320L45.554969,363.770874L45.089969,364.867204L44.201116,365.766194L42.923404,366.528143L42.019963,367.284611L41.806744,368.117821L42.244186,369.016812L44.001204,370.699677L44.320573,371.478071L44.159862,372.261946L42.313379,374.810911L42.267549,377.014532L43.074980,379.388083L44.466327,381.739707L45.913936,386.651256L47.501457,394.780522L49.134374,399.171310L50.432582,401.380407L51.486752,402.690517L52.341973,404.126704L53.033976,406.719514L53.038599,408.786088L51.795583,415.506560L51.782677,415.520700L49.688918,417.814324L49.132857,421.119742L49.338377,425.614670L50.267361,430.142486L51.927953,433.519162L53.841623,435.012635L55.032478,435.942036L65.997609,439.877834L72.011945,444.416608L87.777925,460.455790L92.714025,463.536451L94.158832,464.939741L95.021213,466.682890L95.674889,470.234967L96.336014,471.890410L99.162596,474.949142L105.502184,478.534106L107.902955,481.274904L108.436636,483.572094L108.875721,485.462842L107.558703,488.455791L103.203180,493.158997L101.616459,497.160557L101.070916,501.195006L100.124402,535.926306L102.361739,544.356967L113.451742,560.856494L116.343231,564.337178L117.613659,565.866647L121.291235,573.233871L124.124200,583.769436L134.366295,602.209402L143.350469,614.586755L149.496061,623.532651L152.367776,631.963278L154.143627,644.077503L151.747959,648.915124L153.026481,650.510164L156.616979,654.040798L157.423479,655.430608L158.102065,658.443300L160.216975,662.267434L160.821577,664.969361L162.100717,660.273360L162.010080,656.544182L159.255993,647.462941L159.012871,644.251703L160.630280,637.975976L160.719174,634.428075L157.864446,627.504919L147.777313,616.740357L144.385865,609.799932L145.537683,609.799932L152.740646,620.650820L157.341049,623.240530L158.502854,625.018798L159.176824,627.435860L160.542647,630.465820L162.101119,633.115956L163.265595,634.428075L170.511065,630.077364L171.784249,630.077364L174.037940,632.200925L176.930286,634.013722L179.525761,634.220898L180.949222,631.527601L182.101159,631.527601L181.168064,633.944663L179.068121,635.697033L176.497390,636.266769L174.101735,635.084135L172.095310,633.513045L170.449599,633.081427L168.850106,633.495780L167.085227,634.428075L164.209931,636.827872L162.552075,640.125434L161.939877,644.605630L162.164683,650.484267L163.347039,650.484267L162.945554,646.012704L164.440096,647.462941L164.048885,643.112231L165.322147,643.112231L166.512775,645.900484L166.865408,647.462941L168.259962,647.462941L168.822852,646.979529L170.706498,646.012704L170.836856,647.462941L169.411985,647.462941L169.542243,648.913177L170.484769,650.294355L171.982343,651.442458L173.900256,652.038091L176.168289,651.805017L176.309927,653.384739L172.818653,653.669607L169.580077,652.038091L166.886124,651.071267L164.971281,653.384739L165.749088,662.086155L167.080986,664.442788L169.360664,667.231038L170.213523,669.320068L168.818827,669.320068L165.718256,666.333273L164.641755,664.969361L161.068958,667.748980L165.414459,673.662142L167.054885,672.160112L169.518424,670.709877L172.095625,670.027921L174.162705,670.770303L175.436132,670.770303L176.214814,668.275553L176.253113,664.960729L175.535804,657.605962L176.889302,659.859007L177.880066,660.428742L179.615146,660.506434L179.089213,662.086155L178.869259,666.419597L180.013422,664.969361L180.147562,669.199215L180.801960,674.516745L182.542400,679.100524L187.745139,681.871509L190.279148,685.669743L192.220239,686.705626L193.903620,686.196317L194.994389,684.642494L195.188811,682.726112L194.266663,681.042803L194.916090,678.789759L195.271715,678.012848L196.545185,678.012848L196.185739,678.746598L195.540150,681.042803L197.475242,683.036876L204.459508,695.527887L201.547578,694.483373L198.147827,689.450713L195.542695,688.276713L192.716844,688.725595L190.412003,689.925492L188.662125,691.746918L187.684617,694.077652L186.532345,694.077652L185.973359,692.204432L185.745075,691.677859L185.190149,691.574271L183.598099,691.056330L185.048759,693.758255L188.194184,698.152121L189.684982,701.320193L190.711180,705.247911L191.061816,708.044792L191.965807,710.410055L194.529732,713.034288L195.616086,711.929348L196.781008,711.204230L199.360813,710.012967L200.050489,713.051553L202.325446,718.455401L202.806884,721.727060L201.654467,721.727060L198.995253,718.869754L194.018141,722.495339L189.498984,727.916452L188.305924,730.428464L188.418513,731.731948L190.093832,733.924563L188.682830,735.323003L186.668125,736.755972L186.506290,739.103970L187.389978,739.328411L191.080913,739.397469L192.340437,739.760028L193.329541,741.210261L193.813015,742.953995L194.178012,744.732257L194.741866,746.355138L198.026210,751.767617L199.001473,754.305526L199.554389,757.939742L199.321337,761.789767L198.213896,764.638440L197.113983,766.865584L196.662130,768.868288L197.593370,774.669222L200.330423,785.537340L201.292623,792.115185L200.542320,792.935258L199.307533,796.301872L198.732400,799.944720L200.058308,801.653924L201.517966,802.422203L207.671409,807.454859L205.473722,811.123605L207.789710,812.159486L212.140151,812.668794L215.918980,814.697395L216.972439,813.134941L218.618536,812.133589L220.812553,811.701972L223.414419,811.796927L222.478180,808.749710L225.432137,805.426258L232.642250,800.220955L236.735547,802.914246L241.577054,805.124126L245.740705,808.119549L247.689245,813.117676L249.784540,812.047265L250.591678,811.356678L251.296325,810.346694L253.809811,811.201296L256.752906,810.476179L259.113355,808.404416L259.878778,805.219082L259.471454,802.707070L258.280765,799.357721L257.973374,797.320488L258.219669,794.834373L259.814780,789.275145L259.932889,784.561886L260.797615,780.616905L264.721041,770.905520L265.787886,767.046863L265.238433,764.871513L261.623176,766.761996L264.882423,760.702092L265.767727,757.577184L264.443238,755.039275L264.331484,753.735791L266.759494,754.460908L267.400538,755.039275L268.389257,756.489509L269.769339,756.489509L271.930329,752.156073L271.163843,751.707191L270.989610,751.620867L270.914121,751.448220L270.440884,750.705839L276.143217,751.413691L281.718222,753.640835L286.082518,757.490860L288.916295,765.087322L290.692800,766.710202L293.062040,767.815142L298.640087,768.488465L300.498945,769.299905L304.330138,772.433445L302.135453,779.624186L306.574564,790.138379L312.839112,800.764793L316.273032,808.249034L317.325152,816.484290L317.163931,818.918611L315.727176,821.888138L313.644242,823.657768L311.566535,824.943988L310.140927,826.411486L309.659926,828.112058L309.327743,837.305506L310.071710,838.600358L312.584715,839.454961L312.667933,840.464945L312.702773,840.887930L312.703483,840.896562L311.992565,840.922460L311.856734,840.931092L297.333922,841.621680L290.334958,843.961045L287.693323,848.933278L287.210277,851.928702L285.908846,856.054965L284.297000,859.732346L282.923556,861.312066L280.625698,863.280242L280.030860,867.164799L281.208677,869.901255L284.183612,868.416490L288.190284,871.610461L290.194192,873.872137L292.078887,878.792578L293.796134,880.329137L295.613540,881.226902L296.826340,881.589460L297.720068,881.382284L298.281619,880.631269L299.050156,880.001107L300.533163,880.139225L301.414694,881.097416L302.110566,883.894299L302.735160,884.489931L302.691842,885.836579L303.265897,888.823374L304.750769,891.818801L307.378490,893.174081L310.796879,893.035964L317.637201,891.292227L323.802388,891.723845L327.587661,890.109595L326.336383,886.440844L322.516556,882.539019L318.362403,880.139225L318.245208,878.688990L319.687420,879.448637L322.822986,879.569490L324.735408,880.139225L326.296705,881.434078L327.216617,882.867049L328.416263,884.006520L330.867936,884.489931L335.323549,884.420873L338.428360,883.971990L340.690959,882.677137L342.670865,880.139225L346.243178,873.664960L347.537626,869.987578L347.905930,866.310197L346.021987,858.472023L345.497102,853.914143L346.548693,849.718821L347.165904,850.953247L347.743682,854.112687L348.393860,855.381642L348.628626,856.210347L348.528531,857.211700L348.537063,858.057670L349.233601,858.411597L351.891238,858.256214L352.465330,858.411597L357.251264,866.854035L357.697166,868.416490L363.239693,873.319666L365.861055,874.208798L369.026500,874.510931L387.327422,880.139225L390.567368,880.424093L394.950287,879.086078L398.089372,878.688990L407.831690,881.503137L412.649289,881.408181L415.213505,877.109269L416.762621,878.619931L417.905042,878.300534L418.967277,877.368240L420.281497,877.109269L421.617422,878.050196L424.085019,880.967931L425.182473,881.589460L427.592581,883.428152L428.982748,892.543919L430.739520,896.074553L432.356666,896.557965L434.073806,896.022759L437.116673,894.615685L442.822373,894.615685L444.633946,895.815583L451.819288,903.446587L454.414956,902.134469L456.444975,903.412058L459.938563,907.797297L460.431470,909.023092L460.434239,909.057621L463.899165,909.882920Z "/></g></svg>