<?xml version="1.0" encoding="utf-8"?><!DOCTYPE svg  PUBLIC '-//W3C//DTD SVG 1.1//EN'  'http://www.w3.org/Graphics/SVG/1.1/DTD/svg11.dtd'><svg enable_background="new 0 0 1000 915" height="915px" pretty_print="False" style="stroke-linejoin: round; stroke:#000; fill: none;" version="1.1" viewBox="0 0 1000 915" width="1000px" xmlns="http://www.w3.org/2000/svg" xmlns:xlink="http://www.w3.org/1999/xlink"><defs><style type="text/css"><![CDATA[path { fill-rule: evenodd; }]]></style></defs><metadata><views><view h="915.586617388" padding="0" w="1000"><proj flip="auto" id="robinson" lon0="105.097595463"/><bbox h="72.0" w="78.73" x="1503.27" y="-246.58"/></view></views></metadata><g class="" fill="#000" id="country"><path d="M243.441449,848.210008L224.695290,834.704602L224.996177,839.473049L237.287294,856.469085L243.441449,848.210008Z M182.325218,727.669102L178.831623,705.354016L173.481046,706.766889L171.799007,714.257196L172.554330,726.526337L176.035850,729.642969L179.180095,729.705301L182.325218,727.669102Z M456.036302,913.586617L463.444009,911.217973L471.545772,902.501778L480.026972,891.302666L503.349489,889.754737L526.912916,890.274176L533.250291,887.365317L541.757918,875.501327L555.949996,860.250600L566.934879,851.794135L569.122922,844.958321L563.102811,828.876500L559.119534,812.389520L563.058557,807.174357L584.575872,810.114379L608.557916,817.791681L614.529275,821.261530L626.248578,801.065761L629.635100,798.614011L638.419172,798.655566L661.247062,794.936387L683.440231,789.586171L694.229671,790.448438L705.803523,804.047338L714.898879,817.344964L719.080269,818.425396L730.371710,812.753127L740.689155,819.848658L761.994998,831.452916L774.214903,831.951577L765.846632,804.919994L770.996485,785.700771L769.223882,780.423276L756.972582,771.582434L715.006750,736.229450L707.429263,725.705624L706.855803,709.083586L703.358287,684.690737L698.476293,669.356895L698.237514,660.380985L700.004350,653.212721L706.911137,650.366193L713.681077,649.400036L718.645022,643.114817L726.452238,627.043352L744.680888,628.477006L770.979392,637.608757L790.311785,643.249872L801.300344,642.148660L803.567275,639.852736L802.432345,631.219648L800.262595,594.339396L798.787515,586.527009L814.451385,582.890923L838.904939,582.111762L851.609774,579.961276L862.163204,564.419598L892.642799,559.069352L913.003768,538.135849L931.093548,516.610157L940.439689,510.875508L952.681320,507.135518L962.141997,507.675739L975.198149,520.131978L984.277653,512.641614L994.093025,497.993318L998.554367,483.687840L999.453305,460.666068L993.585238,425.364552L984.716249,397.740367L976.930846,377.024780L973.573023,356.329929L982.154424,314.825816L988.342401,269.643771L984.193805,251.795290L968.824591,223.599177L952.528495,189.252551L934.560919,151.508471L928.805262,145.877489L923.927949,135.363539L920.400472,123.083391L921.169486,84.518164L920.366859,71.572992L933.866738,54.014888L939.722726,33.900923L944.808440,11.729764L940.397923,0.000000L931.356738,8.529796L924.672468,30.254221L918.380477,31.864588L901.170179,23.978977L896.048771,28.290610L887.627728,44.082588L871.625711,61.360208L862.902718,61.557607L856.645340,59.448556L850.466642,66.825037L842.027822,80.372803L837.337579,79.936449L820.344904,83.063651L813.038964,78.720891L803.250031,67.521127L788.322038,56.123941L775.008577,48.020186L767.724235,42.555340L760.517176,33.121714L754.238998,26.991926L745.737418,40.435892L730.166638,53.256460L713.670195,50.825334L705.483975,48.695500L701.291142,67.438011L696.947757,70.793787L668.127966,74.024889L662.995950,77.037811L669.718592,94.086768L690.371843,122.979497L697.532863,139.571199L689.895247,166.791057L659.571600,166.084589L644.684334,154.999262L630.345398,139.581588L624.927306,131.945463L584.374004,116.797857L559.723555,127.239112L551.748335,126.709258L538.291157,115.665421L530.024624,107.353960L521.351355,94.834801L515.850136,82.128608L514.747360,76.352112L512.366518,78.513104L505.713991,90.242705L497.394362,101.629435L489.865161,101.639824L483.551237,95.884126L478.764494,88.434956L474.472068,72.123630L456.583674,64.061455L437.395340,58.991421L400.506802,67.032825L370.450988,71.385983L335.555877,65.869211L304.079055,72.840498L290.705632,73.869048L275.088932,72.830109L260.155664,72.965171L245.616159,70.409380L218.092548,60.425161L208.127911,61.204367L187.874144,69.463944L166.401635,75.271615L145.622759,79.250750L116.238889,96.289311L96.378809,120.932804L91.641108,138.345264L82.352464,155.882349L69.815384,183.663158L52.519070,210.249101L39.733641,222.373256L44.386006,229.520992L41.844513,238.175146L20.196355,242.029514L3.177826,243.577494L0.546695,247.899370L8.278089,301.465503L16.400438,321.734523L30.054863,346.200657L38.712607,359.592072L48.145551,399.319488L53.159374,433.010799L79.529099,454.297674L94.859644,470.556293L106.018039,484.861783L103.490152,493.983214L100.276716,521.160474L109.277382,556.451367L150.168402,632.559803L153.611736,637.961976L152.646278,630.513210L155.078754,623.750103L166.670497,637.130873L170.186268,663.071680L194.077703,690.311067L192.436876,710.070520L192.278740,743.408091L197.638262,772.621311L209.172834,806.675697L231.559804,807.621075L246.565966,805.003105L256.369411,793.263795L264.787414,770.450058L275.930904,757.110878L288.339211,765.390727L300.308919,775.831440L315.967117,811.693473L310.624684,839.680824L294.685485,847.669792L285.938185,858.806560L285.513046,872.436637L296.677893,883.594188L311.407337,892.798651L343.577204,877.558306L347.891299,861.694640L353.928842,864.073670L361.532577,876.270097L423.143652,885.921276L456.036302,913.586617Z "/></g></svg>