<?xml version="1.0" encoding="utf-8"?><!DOCTYPE svg  PUBLIC '-//W3C//DTD SVG 1.1//EN'  'http://www.w3.org/Graphics/SVG/1.1/DTD/svg11.dtd'><svg enable_background="new 0 0 1000 53" height="53px" pretty_print="False" style="stroke-linejoin: round; stroke:#000; fill: none;" version="1.1" viewBox="0 0 1000 53" width="1000px" xmlns="http://www.w3.org/2000/svg" xmlns:xlink="http://www.w3.org/1999/xlink"><defs><style type="text/css"><![CDATA[path { fill-rule: evenodd; }]]></style></defs><metadata><views><view h="53.1824125959" padding="0" w="1000"><proj flip="auto" id="robinson" lon0="-155.894214076"/><bbox h="271.38" w="5200.7" x="-2582.24" y="-79.2"/></view></views></metadata><g class="" fill="black" id="country"><path d="M75.018992,51.182413L75.071723,51.162081L75.051519,51.082043L75.002817,50.993768L74.969243,50.944613L74.943775,50.988107L74.950793,51.055535L74.979574,51.126823L75.018992,51.182413Z M61.783553,32.684705L61.760088,32.675440L61.735018,32.672351L61.708587,32.675697L61.743896,32.741583L61.789812,32.758569L61.895916,32.742612L61.917557,32.726141L61.900693,32.694742L61.858792,32.676727L61.805509,32.699890L61.783553,32.684705Z M9.708695,29.782420L9.691522,29.766206L9.661691,29.750764L9.648088,29.749478L9.676162,29.775214L9.707014,29.792200L9.708695,29.782420Z M9.630304,29.748448L9.626259,29.745874L9.606685,29.729403L9.593641,29.712159L9.589266,29.714476L9.612987,29.739698L9.631059,29.749478L9.630304,29.748448Z M9.704813,29.761574L9.635750,29.688224L9.594890,29.663003L9.581772,29.674841L9.597769,29.690541L9.625628,29.697490L9.667469,29.725285L9.707520,29.772383L9.704813,29.761574Z M16.047553,29.222906L16.022646,29.187905L16.065899,29.171433L16.081922,29.168345L16.079495,29.156249L16.082051,29.147241L16.001611,29.159594L16.013114,29.227282L16.082256,29.269747L16.159143,29.209523L16.123193,29.226510L16.083710,29.233458L16.047553,29.222906Z M18.766417,29.068487L18.782742,29.043265L18.769569,29.006719L18.736918,28.982527L18.695846,28.991277L18.695732,28.991277L18.687018,29.029882L18.701219,29.058192L18.730252,29.072605L18.766417,29.068487Z M64.131532,27.886662L64.113017,27.849859L64.112616,27.812026L64.124527,27.778826L64.142661,27.754891L64.156362,27.687976L64.095067,27.688491L63.959834,27.735589L63.941863,27.748714L63.964844,27.778569L64.000986,27.808166L64.022908,27.821806L64.061084,27.835704L64.099652,27.887177L64.131532,27.886662Z M18.924369,24.877030L18.933707,24.835336L18.924049,24.776142L18.912843,24.806511L18.904760,24.839969L18.910218,24.884236L18.924369,24.877030Z M17.108765,23.662266L17.088341,23.683627L17.075772,23.702929L17.076106,23.723519L17.093928,23.748483L17.112282,23.706018L17.160495,23.713739L17.214373,23.744108L17.249177,23.770102L17.249291,23.770102L17.286973,23.810508L17.368443,23.955919L17.370075,23.968016L17.365965,23.972133L17.362534,23.973935L17.359736,23.977023L17.353819,23.988090L17.353478,23.988090L17.299449,23.932757L17.295821,23.928381L17.280428,23.913711L17.263336,23.903674L17.180752,23.881283L17.125251,23.861981L17.127084,23.864555L17.139235,23.871246L17.224472,23.896725L17.234853,23.899814L17.275057,23.919888L17.309140,23.949228L17.336436,23.988090L17.375589,24.009709L17.377070,23.969302L17.372236,23.940992L17.358052,23.877938L17.296866,23.783227L17.208518,23.715283L17.108765,23.662266Z M990.418228,23.330265L990.385900,23.266438L990.318899,23.204928L990.244412,23.185111L990.234002,23.174816L990.224875,23.175588L990.205780,23.185111L990.351999,23.336956L990.388242,23.357803L990.418228,23.330265Z M988.044792,22.875758L988.034844,22.855169L988.024069,22.837668L988.010446,22.822741L987.991930,22.810387L988.000961,22.836124L988.013398,22.861860L988.021518,22.868037L988.027593,22.874214L988.034254,22.877560L988.044792,22.875758Z M987.028084,20.930079L987.006872,20.863936L986.923265,20.711834L986.903579,20.690215L986.921202,20.731393L986.966228,20.806544L986.992720,20.853127L986.979623,20.980523L986.986691,21.016554L987.028084,20.930079Z M985.560289,19.780688L985.586105,19.671051L985.584013,19.557295L985.564235,19.479056L985.543031,19.473394L985.534776,19.467990L985.526720,19.455636L985.506952,19.479056L985.543181,19.531044L985.560374,19.619063L985.556310,19.701934L985.528847,19.738223L985.519413,19.757010L985.496524,19.792012L985.468445,19.810800L985.442292,19.781460L985.444156,19.742598L985.465794,19.703478L985.495392,19.671565L985.520980,19.652006L985.521623,19.630387L985.452396,19.680316L985.415282,19.765246L985.424473,19.836279L985.495993,19.846316L985.560289,19.780688Z M989.479071,19.382802L989.441468,19.281400L989.392428,19.196985L989.345934,19.151431L989.335809,19.122349L989.327428,19.112826L989.308864,19.109995L989.322660,19.163013L989.347137,19.207279L989.399598,19.282945L989.417491,19.333903L989.430844,19.392067L989.450932,19.444570L989.489487,19.479056L989.479071,19.382802Z M988.143133,19.000101L988.089642,18.985431L988.044931,19.000101L988.029927,19.026095L988.064025,19.043338L988.053870,19.023264L988.050697,19.014256L988.047659,19.000101L988.083206,19.005505L988.110222,19.032786L988.157723,19.109995L988.219396,19.183087L988.242066,19.226839L988.250060,19.282945L988.180847,19.245884L988.154194,19.239707L988.153597,19.261326L988.206528,19.287062L988.231712,19.305078L988.248858,19.325924L988.265381,19.246913L988.228307,19.156321L988.174715,19.069589L988.143133,19.000101Z M984.781358,18.882742L984.763750,18.740934L984.717457,18.624606L984.708780,18.568500L984.691046,18.549198L984.674997,18.535557L984.657672,18.527837L984.633408,18.525263L984.713677,18.687403L984.723778,18.730125L984.713980,18.850314L984.733518,18.913626L984.797063,18.935502L984.781358,18.882742Z M970.230330,17.685997L970.233007,17.675960L970.233160,17.667209L970.234213,17.658974L970.234949,17.655885L970.234985,17.653826L970.231063,17.644046L970.225027,17.638127L970.216290,17.630663L970.205590,17.618310L970.193087,17.618310L970.181038,17.618310L970.170038,17.623457L970.156327,17.627575L970.149120,17.636840L970.148161,17.639671L970.145327,17.645848L970.142906,17.654341L970.141929,17.658201L970.140318,17.672356L970.143093,17.682651L970.148177,17.690887L970.155134,17.696034L970.162690,17.692946L970.172238,17.692946L970.177212,17.694490L970.186615,17.702725L970.189684,17.709160L970.193039,17.712248L970.198245,17.713535L970.204201,17.710961L970.212176,17.709932L970.219069,17.705814L970.224625,17.700152L970.227439,17.695262L970.230330,17.685997Z M984.041643,17.482936L984.043691,17.455655L984.043953,17.453597L984.045439,17.432493L984.026207,17.299693L983.995685,17.215020L983.988470,17.180790L983.990327,17.052880L983.953057,16.986480L983.986988,17.278074L984.033644,17.389255L984.043326,17.450251L984.043245,17.455141L984.042760,17.456942L984.002369,17.506614L983.998586,17.488341L983.995459,17.484995L983.996429,17.481392L984.003097,17.463376L983.972024,17.472642L983.964490,17.488083L983.975762,17.507128L984.002000,17.528232L984.041643,17.482936Z M983.955248,16.975928L983.941676,16.954052L983.909695,16.931661L983.886412,16.921624L983.862033,16.908498L983.786519,16.841326L983.762568,16.811729L983.726194,16.811729L983.755690,16.852135L983.881534,16.963317L983.924413,16.986480L983.955248,16.975928Z M981.660487,14.378605L981.669383,14.329191L981.670869,14.304226L981.670069,14.277589L981.656989,14.251338L981.635128,14.243746L981.572429,14.253783L981.620287,14.279005L981.649714,14.301524L981.662522,14.319411L981.650968,14.386454L981.596392,14.446292L981.583557,14.484381L981.613658,14.515008L981.660487,14.378605Z M982.198738,13.517849L982.179433,13.496230L982.160464,13.509485L982.145593,13.523382L982.133249,13.540240L982.122777,13.563016L982.198424,13.556840L982.298485,13.609857L982.450290,13.735708L982.437493,13.673426L982.363311,13.613588L982.198738,13.517849Z M979.829038,12.318144L979.829599,12.311066L979.830079,12.299356L979.826484,12.301801L979.821529,12.304503L979.811130,12.307849L979.819428,12.314541L979.829861,12.326379L979.829038,12.318144Z M979.808408,12.308235L979.800058,12.298584L979.795168,12.291893L979.789302,12.281341L979.771570,12.281341L979.779580,12.297555L979.788601,12.306562L979.799792,12.309522L979.808408,12.308235Z M979.887806,11.746280L979.856117,11.698152L979.817926,11.698152L979.834009,11.717197L979.848134,11.740618L979.856918,11.769828L979.858339,11.806117L979.875389,11.806117L979.874044,11.773560L979.874507,11.762880L979.918970,11.780509L979.973733,11.812937L980.022956,11.852829L980.050343,11.892591L980.049767,11.932740L980.030473,11.969415L980.008153,12.002872L979.983797,12.085744L979.918054,12.145195L979.894092,12.215970L979.847204,12.264355L979.832101,12.297941L979.887618,12.235530L979.992505,12.077251L980.023739,12.045595L980.072333,11.947539L980.073213,11.899540L980.061731,11.882168L980.030388,11.849354L979.887806,11.746280Z M980.298885,10.628287L980.298777,10.590970L980.277303,10.562273L980.245873,10.551850L980.218910,10.571539L980.267795,10.588525L980.242606,10.598433L980.056422,10.614647L979.986776,10.636523L979.853657,10.707427L979.872872,10.711931L979.890544,10.709743L979.928813,10.695717L979.972984,10.656083L980.039947,10.635751L980.112066,10.629574L980.173518,10.632405L980.241429,10.647075L980.275747,10.646818L980.298885,10.628287Z M979.757806,10.094384L979.721851,9.907666L979.692466,9.811669L979.652919,9.790308L979.683100,9.846156L979.699096,10.002505L979.718742,10.072894L979.728973,10.080487L979.735818,10.088851L979.744168,10.094384L979.757806,10.094384Z M979.868104,9.509008L979.890566,9.426523L979.880680,9.316499L979.852485,9.211237L979.851974,9.216127L979.850763,9.220502L979.848869,9.224877L979.845599,9.228867L979.873261,9.325507L979.882485,9.422791L979.852141,9.493824L979.758399,9.511453L979.767628,9.522391L979.776638,9.526766L979.797241,9.531142L979.868104,9.509008Z M979.830756,9.155518L979.713070,8.984885L979.698551,8.935471L979.679740,8.905745L979.600153,8.842819L979.578766,8.793019L979.576898,8.828536L979.591502,8.854787L979.639633,8.902914L979.658319,8.929165L979.701283,9.011007L979.840358,9.176493L979.830756,9.155518Z M56.920290,8.547107L56.779893,8.506315L56.719439,8.502969L56.681759,8.533982L56.682951,8.577991L56.708610,8.604886L56.739115,8.610033L56.754507,8.588929L56.770026,8.554442L56.800862,8.569627L56.830183,8.602312L56.841719,8.620327L56.857423,8.629593L56.956411,8.708861L57.036658,8.751841L57.086321,8.765224L57.104436,8.777320L57.111006,8.804858L57.105362,8.827377L57.092361,8.852471L57.076672,8.873060L57.047739,8.892105L57.038120,8.911407L57.024158,8.921187L56.996808,8.902914L56.987190,8.874347L56.993451,8.843463L56.992360,8.815024L56.960713,8.793019L56.967613,8.851441L56.952887,8.860191L56.921073,8.836257L56.907972,8.860964L56.901437,8.889917L56.905819,8.922216L56.943706,8.993249L56.948134,9.035071L56.936091,9.059392L56.903851,9.044336L56.887223,9.014096L56.881426,8.979480L56.871004,8.947438L56.841759,8.924533L56.844264,8.979480L56.827138,9.002643L56.797237,9.003029L56.761772,8.989389L56.780391,9.028122L56.806229,9.047810L56.835527,9.062480L56.864324,9.085643L56.887801,9.122318L56.870636,9.122446L56.815367,9.095423L56.748293,9.092592L56.715447,9.085643L56.702022,9.065054L56.688422,9.035972L56.654631,9.033655L56.615693,9.039317L56.586873,9.034427L56.554656,8.977164L56.568115,8.920672L56.604566,8.877178L56.641286,8.859805L56.647983,8.853243L56.638182,8.840503L56.613601,8.831367L56.576048,8.836257L56.493869,8.887601L56.476880,8.902914L56.465808,8.990289L56.506370,9.042663L56.559257,9.065826L56.585875,9.065054L56.611704,9.046652L56.665270,9.087445L56.735312,9.164011L56.826882,9.243536L56.932229,9.301443L57.212262,9.396411L57.274720,9.401687L57.289185,9.411724L57.316801,9.456248L57.345079,9.475551L57.361833,9.496397L57.384124,9.518402L57.415447,9.531142L57.446058,9.529855L57.476698,9.520075L57.505559,9.505276L57.531203,9.487904L57.573506,9.502059L57.586571,9.453675L57.575226,9.390106L57.543815,9.358450L57.499638,9.350085L57.455439,9.327823L57.413360,9.296039L57.375311,9.259107L57.273331,9.184986L57.175506,9.130939L57.115778,9.052057L57.128523,8.902914L57.143378,8.832396L57.156254,8.804343L57.200234,8.784140L57.216697,8.761106L57.227978,8.730094L57.232633,8.696893L57.199798,8.699982L57.023029,8.641946L56.920290,8.547107Z M980.555429,8.452526L980.537419,8.433609L980.523495,8.426274L980.511112,8.423443L980.497050,8.424215L980.486653,8.437341L980.480031,8.454070L980.474007,8.474530L980.470840,8.504256L980.469924,8.521757L980.478148,8.552383L980.480233,8.571171L980.480230,8.588929L980.478269,8.609003L980.475251,8.619298L980.474643,8.621228L980.488226,8.619813L980.498767,8.598194L980.502906,8.575675L980.497270,8.547236L980.488911,8.495505L980.492135,8.473115L980.504199,8.467710L980.522526,8.471442L980.535568,8.479549L980.544395,8.484439L980.551423,8.489843L980.559273,8.504771L980.565147,8.527419L980.566933,8.550196L980.566552,8.563965L980.573861,8.594591L980.581694,8.621228L980.583682,8.631651L980.586456,8.638858L980.585959,8.643748L980.596013,8.657131L980.610926,8.672830L980.613931,8.686213L980.617264,8.696250L980.612216,8.707059L980.608845,8.708089L980.600083,8.710791L980.578210,8.709376L980.565830,8.706545L980.515937,8.691360L980.493966,8.681323L980.492164,8.663693L980.492716,8.648252L980.489864,8.638986L980.485326,8.633196L980.476965,8.634483L980.470943,8.643490L980.470551,8.657131L980.476418,8.692132L980.484558,8.703070L980.509966,8.713880L980.554074,8.726362L980.589336,8.733311L980.609110,8.733311L980.621201,8.728421L980.626303,8.725075L980.632507,8.720828L980.640424,8.713751L980.645521,8.704228L980.645588,8.693934L980.646143,8.684540L980.638288,8.675146L980.629170,8.668455L980.620266,8.661377L980.608050,8.632938L980.585782,8.567568L980.576572,8.505414L980.569374,8.478005L980.568552,8.474402L980.555429,8.452526Z M979.280481,5.253478L979.282903,5.239323L979.282019,5.218605L979.229955,5.234947L979.121941,5.246014L979.082860,5.271493L979.050775,5.317433L979.013823,5.357453L978.967883,5.373796L978.907448,5.348188L978.917284,5.370836L978.929841,5.389109L978.946715,5.403136L978.966553,5.413044L979.010857,5.395801L979.078928,5.321293L979.165415,5.260169L979.266400,5.283332L979.280481,5.253478Z M979.313038,5.132259L979.441139,5.060196L979.502739,5.043982L979.498829,5.030599L979.494902,5.021077L979.479933,5.000745L979.432438,5.046427L979.277366,5.132259L979.313038,5.132259Z M51.850784,2.521543L51.755766,2.497737L51.667718,2.594892L51.649894,2.723060L51.765576,2.792292L51.700105,2.639159L51.718456,2.606988L51.746934,2.580351L51.781457,2.566839L51.818141,2.574560L51.830955,2.594249L51.843259,2.661550L51.859810,2.693206L51.887404,2.712766L51.956539,2.746481L51.978415,2.768743L51.988322,2.799627L51.994974,2.843636L51.988946,2.883142L51.961262,2.900385L51.829838,2.857405L51.779495,2.857920L51.797946,2.922004L51.849812,2.962153L51.918541,2.967815L51.989168,2.950314L52.047583,2.922004L52.079666,2.887517L52.088823,2.856762L52.081252,2.828580L52.047624,2.775820L52.019470,2.709163L52.002503,2.682654L51.974674,2.674933L51.937045,2.677507L51.904598,2.669142L51.892952,2.629379L51.889490,2.599268L51.878423,2.569156L51.850784,2.521543Z M49.053853,0.000000L49.023915,0.004633L49.009572,0.018916L49.025281,0.044010L49.066254,0.057907L49.101907,0.050959L49.114012,0.031013L49.084638,0.006563L49.053853,0.000000Z "/></g></svg>