<?xml version="1.0" encoding="utf-8"?><!DOCTYPE svg  PUBLIC '-//W3C//DTD SVG 1.1//EN'  'http://www.w3.org/Graphics/SVG/1.1/DTD/svg11.dtd'><svg enable_background="new 0 0 1000 898" height="898px" pretty_print="False" style="stroke-linejoin: round; stroke:#000; fill: none;" version="1.1" viewBox="0 0 1000 898" width="1000px" xmlns="http://www.w3.org/2000/svg" xmlns:xlink="http://www.w3.org/1999/xlink"><defs><style type="text/css"><![CDATA[path { fill-rule: evenodd; }]]></style></defs><metadata><views><view h="898.953990819" padding="0" w="1000"><proj flip="auto" id="robinson" lon0="44.4148364217"/><bbox h="17.09" w="19.03" x="636.15" y="190.51"/></view></views></metadata><g class="" fill="black" id="country"><path d="M464.480023,890.937016L476.308300,889.074620L479.236052,882.054818L470.997778,866.869127L431.263437,836.497755L424.981474,833.346010L418.064607,824.177297L379.057060,794.235729L364.678728,789.221592L332.525517,782.345062L321.792637,775.755055L309.361650,770.740920L304.310033,783.777673L303.905857,815.510000L305.694776,827.185781L311.033445,831.913399L317.935617,835.280035L324.371928,842.371463L326.233339,850.680611L324.860215,865.866298L327.984913,872.456315L340.289145,877.398828L394.330931,879.046332L446.255379,890.937016L464.480023,890.937016Z M980.489167,896.953991L989.625042,890.363972L994.561229,874.461972L999.443179,767.159394L997.875636,754.838949L970.039578,637.508307L967.509602,634.786353L961.907547,622.537561L957.591892,618.884412L952.257133,618.669521L948.461321,620.818432L945.016630,623.612016L941.106665,625.474405L932.704442,628.053099L921.799615,635.001244L914.154680,637.508307L915.653248,667.234918L902.567710,699.970018L881.220817,720.957737L858.245738,715.585453L854.128147,719.453498L846.212868,723.966217L841.978273,727.619369L833.030577,723.536433L808.242865,719.453498L794.948900,715.585453L775.476047,705.986974L765.283681,703.121757L752.820410,703.551539L762.740005,716.230127L792.888452,736.859699L799.125912,742.661768L846.021512,770.167876L876.276963,777.259296L887.699711,783.777673L891.859713,797.244212L897.738459,808.633467L952.865957,852.471375L956.817984,858.703238L957.870896,869.662720L960.191562,877.327197L966.225849,886.352656L973.833591,893.802243L980.489167,896.953991Z M122.669837,0.000000L103.298986,3.294980L70.003601,15.758598L60.868915,16.116748L52.198287,32.949798L44.041835,54.582058L35.930490,69.839250L39.795692,79.294412L41.049627,89.609135L24.548001,245.189606L24.913926,255.504339L26.758292,264.959512L26.215148,274.343055L8.456781,301.562498L3.021177,312.235386L0.556821,320.831001L3.258655,342.391673L11.210264,356.502812L30.071630,377.991860L33.263978,386.587480L33.976416,394.251910L35.814921,402.059599L41.759134,411.013372L56.149098,424.336588L64.805281,429.780484L72.828191,432.072650L105.881825,434.221556L117.120854,439.522191L158.641650,484.362713L163.179540,495.393771L167.009629,501.983755L176.144364,503.129838L186.711099,501.410712L194.170523,498.760393L200.004965,494.247688L202.209451,489.305200L203.337883,482.930109L206.198381,474.047959L215.547531,458.360938L216.211108,450.983026L199.145345,424.050067L194.688292,414.093470L193.078967,405.282957L191.346262,396.400815L186.875693,390.025728L181.997289,384.438575L178.723752,377.991860L178.250159,369.038089L180.159067,350.414249L180.127303,341.388851L169.051583,305.358894L136.805011,250.275343L131.232971,214.603562L154.598080,50.284258L151.667947,34.239138L145.333942,20.056398L136.587305,6.446699L122.669837,0.000000Z "/></g></svg>