<?xml version="1.0" encoding="utf-8"?><!DOCTYPE svg  PUBLIC '-//W3C//DTD SVG 1.1//EN'  'http://www.w3.org/Graphics/SVG/1.1/DTD/svg11.dtd'><svg enable_background="new 0 0 1000 1195" height="1195px" pretty_print="False" style="stroke-linejoin: round; stroke:#000; fill: none;" version="1.1" viewBox="0 0 1000 1195" width="1000px" xmlns="http://www.w3.org/2000/svg" xmlns:xlink="http://www.w3.org/1999/xlink"><defs><style type="text/css"><![CDATA[path { fill-rule: evenodd; }]]></style></defs><metadata><views><view h="1195.13329729" padding="0" w="1000"><proj flip="auto" id="robinson" lon0="-62.7485298743"/><bbox h="5.29" w="4.43" x="-918.58" y="-292.04"/></view></views></metadata><g class="" fill="#000" id="country"><path d="M888.573329,1193.133297L949.775319,1177.581954L964.440274,1161.568693L985.298207,1115.684561L993.636014,1082.734227L999.581286,994.969379L998.634098,960.787305L979.189562,878.103696L937.650553,829.140258L879.964670,807.122117L811.518699,805.582387L740.916880,881.799049L701.664565,1041.161393L736.599169,1179.429641L888.573329,1193.133297Z M154.990413,0.000000L143.967308,21.709955L128.775999,32.795895L86.869938,51.734378L70.943216,55.891603L60.785484,60.048833L51.324339,66.977549L37.312797,79.911153L0.418714,202.626534L86.940748,324.264322L219.967077,420.650867L320.691944,467.458437L362.666661,473.925273L467.089343,467.458437L496.371761,479.468278L534.791993,533.050670L596.267834,577.702693L619.337921,720.281397L658.489650,751.691858L734.683871,721.051260L739.840945,658.384347L705.616567,596.487346L663.091869,568.464342L611.604423,538.593679L580.584312,467.766381L536.920143,312.562450L464.490288,216.791934L154.990413,0.000000Z "/></g></svg>