<?xml version="1.0" encoding="utf-8"?><!DOCTYPE svg  PUBLIC '-//W3C//DTD SVG 1.1//EN'  'http://www.w3.org/Graphics/SVG/1.1/DTD/svg11.dtd'><svg enable_background="new 0 0 1000 1315" height="1315px" pretty_print="False" style="stroke-linejoin: round; stroke:#000; fill: none;" version="1.1" viewBox="0 0 1000 1315" width="1000px" xmlns="http://www.w3.org/2000/svg" xmlns:xlink="http://www.w3.org/1999/xlink"><defs><style type="text/css"><![CDATA[path { fill-rule: evenodd; }]]></style></defs><metadata><views><view h="1315.93658478" padding="0" w="1000"><proj flip="auto" id="robinson" lon0="126.744543167"/><bbox h="88.56" w="67.35" x="1696.96" y="-721.11"/></view></views></metadata><g class="" fill="#000" id="country"><path d="M481.007414,1297.288105L482.928392,1290.381077L481.333883,1290.895727L476.530942,1293.551402L475.267032,1293.736687L474.660004,1294.189608L474.740768,1294.941054L474.345563,1295.239576L473.255392,1295.260164L473.818606,1297.524875L474.077098,1299.202882L471.582957,1298.348430L469.330077,1299.748504L466.522443,1306.811196L468.569415,1308.685126L472.361063,1307.799635L474.377805,1305.884551L475.315397,1304.196039L479.136920,1300.777993L481.007414,1297.288105Z M443.672455,1285.831798L445.609197,1283.176525L447.054829,1280.397903L448.020829,1280.181795L448.310804,1279.656964L447.496192,1278.545575L446.477034,1277.640018L445.556210,1277.701760L442.542250,1278.998360L439.854624,1281.900398L439.124240,1282.589914L440.052594,1283.948392L442.051758,1286.109683L443.672455,1285.831798Z M416.380417,1276.240554L414.444703,1273.750430L412.129345,1273.318273L412.315760,1274.871999L413.358462,1276.117074L413.472859,1276.652157L413.758685,1277.701760L413.240000,1277.948729L411.655113,1277.331309L410.025070,1276.940281L409.275652,1277.588567L408.861718,1278.566156L408.155001,1279.163010L408.680826,1280.336158L410.513067,1281.056526L412.719018,1281.035944L414.408603,1280.367031L415.536271,1278.051633L416.166838,1278.010471L416.654663,1278.092795L416.380417,1276.240554Z M299.890343,1098.618923L297.676210,1096.663107L294.713100,1095.362716L290.847070,1094.256918L288.683605,1091.922592L286.481765,1092.454966L281.081729,1097.267246L282.222284,1101.424876L285.169811,1103.667782L288.100167,1100.175477L293.340077,1103.114721L298.296394,1104.835390L308.186759,1107.221958L306.139784,1104.466667L299.890343,1098.618923Z M133.242993,873.269922L135.151975,872.032733L133.495654,869.224005L132.531898,868.423036L132.186042,867.997218L130.813846,866.020331L129.592399,867.966802L128.106138,868.595393L129.126833,870.531989L130.819720,872.722304L132.398624,873.432182L133.242993,873.269922Z M143.091886,853.170563L142.353380,850.536060L140.968987,847.777609L139.507101,846.115772L137.506884,846.612890L137.292908,848.582062L136.887112,850.072412L137.889592,851.338279L138.204230,853.421704L139.667435,854.537890L142.424868,854.700316L143.091886,853.170563Z M132.682913,838.011605L129.025219,837.768678L124.612763,839.104817L121.984746,839.428743L120.999123,839.145307L119.096270,842.050741L117.668092,843.083446L116.785221,844.247840L117.308801,845.908495L118.431889,846.333810L118.785169,845.756600L126.011706,843.478319L130.596344,845.786979L133.406074,845.756600L134.953627,844.207338L135.569826,841.959623L134.919756,839.691939L132.682913,838.011605Z M176.946818,848.506600L181.139136,845.188332L184.281295,842.764635L178.832937,837.357226L174.003817,832.065757L175.954208,830.888229L176.050621,829.272614L169.281747,826.951003L165.693127,827.366075L167.039605,829.500602L165.627217,831.542727L167.648470,835.204306L165.295791,836.990067L167.444908,841.263297L168.959240,842.118788L169.021895,843.322138L169.440765,844.336051L167.222098,844.597765L167.365789,845.779948L171.571400,848.399896L171.547029,851.228902L168.376788,850.132301L167.849029,856.479695L171.521163,854.059872L175.070131,853.444086L176.946818,848.506600Z M10.202573,782.131413L10.351290,781.233790L11.322709,781.202749L11.518100,780.562672L12.174356,780.342333L12.050597,779.653897L11.717669,778.987357L11.021038,778.904118L10.750925,778.365255L10.458219,777.673169L9.533258,777.460218L8.718566,776.432337L8.005343,776.043119L7.374568,775.553989L6.760112,775.522668L6.188354,775.847649L5.823728,776.098788L6.530756,776.640550L6.147754,777.019319L5.651038,777.117491L6.494573,778.094849L6.023426,779.007034L6.009461,779.798597L6.326604,780.925250L6.868263,781.900275L6.946921,782.003237L7.902810,782.113872L9.047723,782.330000L9.739609,782.896078L10.329519,782.929270L10.202573,782.131413Z M495.806299,1313.936585L498.167654,1312.803875L498.862556,1309.395588L497.873778,1305.194726L498.779522,1303.619486L502.231792,1302.939985L509.328436,1302.754668L515.344500,1299.872041L516.016413,1294.086671L515.682620,1287.828490L518.580066,1283.444104L519.002233,1287.478549L521.615326,1289.413549L524.507646,1289.938482L525.790245,1289.722333L525.070208,1286.840426L526.110727,1285.564206L528.436107,1285.728877L531.546261,1287.046271L531.426025,1287.828490L531.493069,1288.116679L531.457712,1288.363699L530.875387,1288.940085L533.481331,1290.679573L535.788805,1291.667711L538.002857,1292.130908L540.249831,1292.233841L541.136388,1291.235399L540.155125,1289.012133L537.740660,1285.317199L535.246180,1282.528166L534.093402,1280.871287L534.641551,1280.150922L538.691441,1280.048014L539.586279,1279.070395L539.297214,1276.693317L537.701312,1276.055334L533.303266,1273.081617L534.746831,1268.204710L531.225139,1262.577345L526.536737,1256.631804L524.462783,1250.800171L528.662641,1253.268495L532.165249,1255.706098L535.383722,1257.392955L538.747754,1257.536958L541.650066,1256.549519L543.798354,1255.088971L545.442169,1253.155360L546.788445,1250.800171L544.509746,1248.918167L543.543857,1250.234533L542.238591,1250.789887L538.414241,1250.800171L538.478570,1247.128793L539.381206,1243.899880L536.656110,1242.665964L534.550464,1242.470597L532.724850,1243.015570L530.991406,1243.899880L530.107091,1238.954144L527.426129,1237.566151L520.807509,1238.573727L516.227093,1237.216589L509.563885,1233.865055L503.833980,1229.629757L502.074397,1225.559343L504.912541,1223.770956L510.104823,1223.842901L515.796938,1225.014596L525.765073,1228.807419L529.757053,1229.547522L538.416096,1229.948417L540.731695,1230.626863L545.359671,1232.898711L547.726416,1233.402441L550.961995,1233.700569L552.378693,1234.697773L554.152570,1239.437382L555.637436,1242.285513L557.058803,1244.146668L558.779363,1245.154398L564.100484,1246.172435L566.201500,1247.992620L568.265646,1250.481356L585.795740,1266.075079L590.749989,1269.624518L593.494616,1271.116390L594.699438,1271.342748L595.921692,1271.178124L598.640153,1271.507371L601.043981,1272.268765L603.918476,1273.503483L606.837015,1275.046925L609.303794,1276.693317L607.102668,1273.081617L602.026183,1266.239685L600.424686,1263.667787L598.299711,1262.577345L594.154039,1259.871925L591.351860,1256.693519L593.285569,1254.101585L595.814177,1254.986117L600.328925,1257.588387L604.875380,1260.828576L607.551917,1263.667787L611.033087,1268.729417L613.841233,1268.894032L617.902720,1264.614229L623.907061,1276.219974L627.422620,1281.900398L629.671843,1282.651663L632.574078,1282.373796L636.858213,1287.169779L644.374299,1297.411637L655.048155,1299.295535L654.817138,1297.473403L653.807131,1293.942559L652.417951,1290.494299L650.000082,1287.807905L646.143903,1282.538458L643.676595,1278.607318L642.813431,1277.650308L642.743312,1276.857960L643.707905,1274.964607L646.571366,1272.217319L650.530515,1271.281014L658.197621,1271.507371L662.577357,1270.972345L665.985867,1269.501055L678.120439,1261.137178L681.727363,1259.810207L685.367883,1259.265028L687.262158,1260.427398L696.115854,1268.760282L698.470712,1270.231550L735.423133,1288.147556L739.292249,1288.940085L743.348981,1285.574498L743.352001,1285.571999L746.494768,1282.970696L748.294386,1282.651663L747.336083,1278.792548L748.086173,1275.489388L748.152481,1275.431714L736.514954,1253.688536L734.756731,1247.667347L736.391618,1245.910778L739.985040,1245.505928L744.335552,1243.547029L749.483193,1237.213866L754.616769,1211.192715L756.505992,1207.656655L761.553947,1201.707408L763.117231,1197.917855L762.499900,1187.929813L762.081349,1181.244488L763.107939,1178.123269L763.594720,1176.642236L770.495490,1167.674126L779.705954,1159.757262L790.800746,1154.369633L803.305353,1152.988663L810.129414,1153.659599L834.277447,1151.523074L856.393901,1157.222950L862.282495,1156.675720L872.575858,1153.144997L910.348432,1149.797017L912.562587,1150.904289L916.941629,1154.565058L920.645026,1157.027510L923.789584,1157.724585L935.953511,1154.968940L957.963838,1156.180614L971.355207,1155.112254L983.017140,1150.265975L992.081582,1142.086233L997.566091,1131.044251L999.093741,1124.496401L999.619754,1117.507474L998.471586,1109.739535L994.974748,1100.809542L989.013643,1092.200809L986.410981,1087.812901L986.095789,1084.563033L989.561383,1080.306269L998.237955,1074.524631L998.236863,1074.523558L998.119925,1074.421243L995.016398,1069.889050L992.983271,1065.378062L990.877734,1061.696176L990.877509,1061.695785L990.400933,1060.867821L985.711574,1056.327661L982.918734,1054.609963L978.456313,1052.636793L976.138428,1051.174902L965.213367,1041.669481L963.102763,1042.527893L956.293015,1047.382540L953.831047,1048.537568L915.082132,1019.411953L897.697533,1015.797864L891.635986,1011.490238L879.435309,1000.806131L874.673221,998.673961L872.404016,998.112895L870.132909,996.654186L868.169687,994.685582L865.570525,990.820251L863.967656,989.209034L862.446203,988.454452L861.529801,989.270218L860.453710,990.891636L859.101611,989.912653L856.845249,986.700653L846.515154,979.880451L841.300694,975.599742L838.233691,972.002530L835.610963,969.455276L824.919059,960.817140L816.254589,952.895014L813.165329,950.940379L809.885655,950.543366L796.002936,950.655343L792.684623,949.820615L789.728231,947.866256L786.801813,945.545684L783.528236,943.652770L777.750788,942.177227L763.201544,943.652770L757.829779,941.078268L748.815886,931.464790L745.375840,931.861451L746.202343,933.397309L747.974295,935.920020L748.240637,938.117464L744.528226,938.697383L741.677203,937.476519L735.072298,932.888734L732.186385,931.861451L728.043664,929.756185L723.346275,924.692207L718.802061,920.086351L716.484159,912.952197L714.594190,905.911421L713.578093,899.299597L712.553145,897.806906L710.817819,896.121417L709.975538,894.760946L711.603944,894.192419L713.123446,894.415767L714.728072,895.065521L716.429136,896.131570L718.254440,897.603827L719.706933,896.527546L725.406930,895.187352L725.803785,893.339659L722.540449,889.279401L719.233836,888.244169L716.453328,889.177905L714.863251,890.954156L711.935977,889.786887L706.361897,888.487748L703.460553,887.371369L702.522505,885.534557L710.352801,882.125243L710.853355,880.938212L711.284626,878.970132L711.421358,878.300625L714.626703,872.843995L716.329307,871.038984L719.266361,871.931328L722.420002,874.568042L724.883179,877.955736L736.744375,887.371369L737.109647,894.172115L737.705187,897.867830L739.630456,901.158000L743.077302,903.930692L745.845996,904.722961L747.566721,903.717395L747.817225,901.158000L744.497581,894.293941L726.126740,869.355813L714.541302,852.739687L712.522203,842.399012L714.655751,831.696570L710.855327,826.021007L704.848118,821.318035L698.679305,819.073186L696.873411,819.315859L694.986912,818.163194L692.878333,815.534592L689.368278,809.641896L686.528304,805.994074L685.314217,803.821916L684.735343,801.761144L684.483769,797.892815L683.910018,796.034713L684.127591,793.954687L688.094538,790.461626L687.640473,784.769286L688.915039,781.722055L691.072721,779.260460L693.419584,778.261803L694.084499,773.134204L700.449318,775.622097L705.241975,779.116455L707.299767,776.727218L706.429706,768.855934L711.669144,766.629275L719.251286,767.534565L724.071980,764.528834L723.248207,762.059737L719.020033,759.641394L736.852425,757.807725L737.551421,755.510897L733.545000,745.179894L731.217607,740.877234L731.398823,735.259662L737.761610,738.234849L739.365648,737.530516L739.929224,735.830186L740.306439,730.276679L741.064499,729.100052L742.718501,728.677694L744.166831,727.621850L745.064429,726.244333L744.978288,724.876991L743.327751,721.288287L743.633674,720.132437L772.829023,724.535174L774.259773,725.641079L775.519881,726.767172L777.463813,727.259863L779.106229,726.847610L781.691660,724.836777L783.487020,724.032516L785.448899,723.972198L790.150558,724.474854L791.793005,724.032516L786.922080,717.402336L787.093648,714.513620L791.367981,712.242009L796.284964,715.113076L804.967062,723.027248L810.852169,724.316125L807.746062,714.725073L809.260524,707.358261L814.386132,706.695029L818.766247,707.483930L822.524754,705.603161L824.551827,704.246403L826.161087,700.576753L827.522192,698.017450L833.579048,697.842983L836.060146,695.877819L836.705249,693.916847L836.095150,690.121814L841.267631,686.807614L842.633313,685.215046L846.706766,685.454316L850.123919,686.673496L851.634596,686.794228L852.286317,685.814943L852.869356,684.224285L853.846437,682.633582L856.058400,681.625341L852.434052,675.669737L851.491832,672.001174L849.054565,670.175742L847.004546,667.856628L840.168981,665.673358L836.945077,664.335709L833.985532,657.964585L835.404145,654.056243L838.282927,652.344070L839.811133,654.659945L842.441507,654.657887L843.369534,649.633747L849.170690,647.727738L855.826388,648.674900L856.724187,645.863073L860.080914,645.741309L865.601096,643.785594L867.362157,640.735497L872.826134,639.638978L877.209729,633.171819L884.241018,618.002092L893.314123,614.556508L903.091224,614.901405L905.436215,605.429906L907.958791,596.911821L907.390560,594.279147L907.374758,592.093912L909.215660,591.268716L906.090013,585.255449L904.877171,582.754047L904.998812,581.298942L905.645457,579.599861L905.532752,578.137811L904.726114,575.656255L904.880569,574.340866L903.665535,571.219677L903.192801,569.884288L903.245868,568.066608L902.241032,566.485866L901.503447,565.149961L901.285459,562.603158L900.934935,560.057715L902.838744,557.767331L906.341287,556.930968L909.925628,557.212759L912.856317,559.645646L916.592994,563.183717L919.516340,564.976383L921.301431,565.613816L921.021101,562.231145L920.177850,554.730011L920.350219,550.742321L921.260741,548.073335L926.710860,544.303586L931.508738,539.283060L939.778682,536.207697L946.019736,536.648469L947.941396,535.819274L949.122525,532.933084L952.574382,532.239080L950.565074,527.642276L952.674206,525.007804L958.118765,525.294855L960.176054,524.711467L963.836987,525.350716L966.961359,524.543178L971.171637,525.238494L975.127091,524.491646L977.387942,523.569156L980.319682,525.998280L982.579798,526.261096L982.499353,523.029017L981.677767,517.256479L978.341593,512.460086L979.509042,507.862047L977.770487,506.136464L976.006755,500.778335L977.129751,499.450015L973.280525,497.665992L967.202826,493.467827L964.994847,491.086266L957.240662,480.124653L952.515879,472.192180L950.783054,468.385635L950.191583,465.144652L941.672488,456.018971L937.025510,445.233537L927.344010,414.608695L926.476639,409.200348L928.296725,406.857442L927.700268,405.572401L926.146083,400.175979L926.092166,399.405160L924.896413,396.213438L925.369863,395.195732L925.107718,394.405311L921.765749,391.945286L920.429450,391.560003L917.641479,392.113231L916.267694,391.945286L913.128837,390.387033L908.282554,386.898959L904.635840,383.422329L900.554313,383.820423L896.682725,381.631359L890.630529,378.132376L883.111010,372.900510L877.607887,365.750354L876.475533,362.084743L874.702541,358.033399L869.001970,352.346658L869.382080,345.909741L866.228510,335.790746L863.220293,328.040430L864.437320,321.835772L868.491028,319.733871L868.434492,316.766182L866.099841,308.354608L864.455066,301.483554L869.577876,297.051911L872.130786,296.879374L878.201308,301.636993L879.260878,300.151228L877.396500,296.069994L878.921360,293.731904L877.230788,285.820692L872.244832,277.781846L869.982237,271.594233L868.207421,266.455111L870.597671,264.779647L876.411011,266.543372L879.580034,268.709690L881.530003,269.410659L882.623068,267.787829L880.720382,263.264010L880.549807,262.152822L879.767833,259.271774L878.881271,256.902230L878.505910,257.423319L878.700598,254.129785L879.519499,253.038567L881.125955,252.448735L877.856913,249.833937L876.091985,248.595420L874.078138,247.514212L876.783599,245.626718L874.158675,240.688561L876.073709,239.845236L881.576527,245.087265L882.586774,244.407465L880.786295,240.516621L878.968320,234.635936L879.020960,233.111866L878.359166,231.161679L881.101599,230.791276L880.205922,228.976856L878.476322,224.379199L880.789496,221.638982L886.217979,221.573634L889.622472,222.868086L894.542896,225.430547L896.593436,225.736144L897.413716,224.708672L895.887696,223.166566L894.984211,222.773684L895.746864,219.473639L897.287578,218.236199L899.422583,218.943302L900.467575,218.864735L893.021235,204.786558L890.603633,201.431359L892.982582,201.171616L894.661363,199.284171L895.828806,193.775040L899.789281,186.116809L902.547047,186.297588L906.720759,190.496774L908.314766,195.631392L910.182842,199.114824L912.305298,198.734540L913.699099,197.099603L911.317486,191.674679L914.307131,191.172161L913.856792,187.991172L915.662085,187.330718L912.130738,184.520591L911.850905,181.621471L913.574771,181.098732L918.606743,184.418813L920.352131,184.801487L920.348554,183.094201L918.682354,180.386240L917.019930,179.817198L915.255309,179.591546L913.325098,178.012016L912.322929,176.324634L909.918967,173.060528L910.612696,170.949300L911.941117,169.222687L910.912228,167.143338L909.715888,165.013531L912.084225,165.056696L915.535211,166.568868L918.498560,168.737369L921.386914,168.100897L922.472399,165.616743L919.874749,162.561094L922.152038,161.356117L928.633443,162.313559L931.599281,164.284299L937.236682,166.509553L943.464954,167.259570L947.070088,169.026517L951.083234,171.380610L952.528476,172.881413L954.293187,175.530019L956.754209,179.911093L957.940681,179.795359L959.181337,177.611388L961.870906,177.110193L967.716455,175.013865L972.542191,173.589250L972.531812,172.116291L964.774371,168.252591L961.371205,165.979341L958.924105,162.759629L955.293643,156.669609L950.990837,150.873039L946.242862,146.627262L940.753740,143.272007L935.377511,141.871463L930.011033,139.126518L925.646961,135.821593L916.863282,126.916235L915.338199,125.733955L913.962171,125.068157L912.478333,123.885921L910.554782,121.235325L909.561654,120.214945L904.260922,115.411969L900.393170,110.895590L893.478885,101.422401L891.297010,98.828915L886.604778,96.080077L883.271607,96.266645L881.422515,98.580146L881.122391,102.249606L886.562639,105.956633L888.123703,109.533288L885.862167,110.870707L879.823353,107.940869L877.298503,105.390611L875.176414,100.725817L873.565022,98.828915L871.399059,97.647271L869.797782,97.560204L868.126691,97.697024L865.619924,97.174621L845.526776,86.572121L841.485884,82.456014L824.552795,72.539969L815.519950,64.179391L809.662492,54.881449L799.987793,34.468859L791.283470,25.969911L781.396365,24.534871L770.903061,24.795785L760.473536,21.335629L761.914115,19.521744L761.990674,16.092862L761.189863,12.210687L759.847733,9.024325L756.088628,6.831825L751.397381,8.011918L744.247581,11.626823L736.659177,11.949812L733.968077,11.626823L730.390997,10.465317L727.440940,8.782092L717.009399,1.596119L714.820076,0.447159L711.867819,0.000000L709.852924,0.440949L707.498684,2.608457L705.815473,3.422062L707.790969,5.229407L709.828841,6.602019L711.952086,7.577145L714.191275,8.204461L712.130667,9.310037L706.493261,9.924942L705.271986,11.626823L706.014579,14.179705L709.227789,19.720524L709.736186,22.230161L709.792299,24.708813L713.208619,41.738440L716.840267,48.996311L717.804589,52.364513L718.356005,58.504758L718.988981,63.532968L719.847877,66.261663L721.339697,69.251551L724.461479,73.733540L726.818586,75.368520L729.355202,76.214002L733.008785,78.284240L734.369218,80.180465L733.684921,81.734793L733.539494,83.836308L736.544213,87.318273L732.049833,88.344249L732.187653,91.695898L735.088025,94.942023L738.909443,95.694504L739.808190,97.174621L737.582939,102.249606L741.568264,110.491250L747.706086,119.910080L751.991403,128.565252L751.761409,136.630687L745.982028,137.701202L737.351495,135.896278L728.636677,135.286354L731.216454,138.261365L732.933351,141.485542L733.145337,144.099904L729.301665,145.849120L729.784096,147.610852L731.039419,149.970311L731.454308,152.410831L730.482252,153.749438L728.711379,154.172820L726.527801,153.326060L724.351089,150.841910L721.992577,149.017797L714.668197,146.222626L712.202664,144.255526L698.123702,136.935656L695.073377,136.948104L693.291244,138.174228L691.978221,139.562213L690.442808,140.066379L686.967575,138.995810L683.363670,135.995858L680.746382,135.286354L678.709579,135.883830L679.430138,137.595394L681.789453,139.798734L684.710457,141.871463L682.757629,143.365378L678.694652,140.390044L677.127840,141.460644L677.584168,145.002516L679.534607,149.347751L678.448970,149.914281L668.977010,151.968788L668.199470,153.014756L668.178932,154.633563L668.780485,156.669609L670.204292,158.836512L671.847120,159.714513L673.432731,160.324764L674.590978,161.601338L675.538315,165.182175L674.340590,166.564769L667.875008,166.539857L668.952928,168.339786L671.006665,168.489265L673.090329,169.068499L675.333731,170.052593L677.659543,171.485175L676.243543,173.092217L676.913013,174.867510L678.199843,176.811075L678.720456,178.891788L677.680573,179.919725L675.946798,180.617490L674.952153,181.894680L676.084178,184.654796L678.324283,186.362050L683.006397,186.686062L685.294364,188.854522L685.499775,190.237912L684.924708,191.596423L684.092576,192.836572L682.611993,196.632047L679.512083,201.394056L677.359424,207.266354L675.545895,209.018247L671.975383,208.756393L665.698679,206.206530L667.986670,210.470945L667.855975,213.663342L665.502506,218.726850L662.936277,220.367029L658.465199,220.890904L654.850355,221.951150L654.950143,225.157026L657.690640,234.782631L651.659353,236.978861L646.999508,235.980159L631.834590,232.730028L612.046318,231.831663L612.191116,236.036711L607.461379,237.109891L591.876255,236.036711L590.239904,236.772959L589.288593,238.495091L588.705587,242.282836L587.341810,243.131549L584.294425,241.721200L582.166002,241.377983L575.583831,244.267359L572.564821,243.924115L563.865513,240.828842L554.849392,241.309340L548.992255,238.326617L543.488775,236.928946L522.183544,235.387828L494.629646,243.543431L485.543468,243.730652L482.173582,244.835278L481.516347,248.199302L483.398687,251.763413L499.402446,272.419163L503.181506,276.192085L507.145769,279.609346L514.986420,281.571160L518.886636,286.195038L537.932779,302.621754L543.018870,307.692868L546.955409,313.002538L555.008644,317.581272L565.962045,323.261927L572.646871,325.520742L578.630321,329.575805L583.983077,334.514018L586.872942,338.858376L593.874361,344.105080L596.203925,353.486583L595.306040,387.508775L591.258839,394.333780L582.391647,393.656213L583.268712,390.180840L579.545512,388.687960L577.854014,391.284877L573.097477,391.397792L568.190025,388.888679L565.882685,383.557655L563.445844,385.250915L561.788202,385.802817L559.791232,385.363803L557.525493,382.679714L555.341222,378.328086L552.712768,374.002284L549.013218,371.394619L548.621924,373.751535L547.953299,375.481750L546.407566,376.371979L537.516012,371.394619L529.993064,372.510366L526.295837,373.814222L525.356279,375.544441L526.277250,379.506839L523.852795,380.986628L519.466286,380.347047L514.411384,378.014597L510.164877,379.632241L490.909679,379.130635L484.250437,377.187005L483.393768,377.287318L483.057619,380.585320L481.732321,381.337777L479.778952,380.610402L470.685846,376.371979L461.808550,374.453637L457.505567,371.871000L454.016516,366.430762L451.558666,368.122879L447.538132,367.195334L443.023149,365.440612L439.153660,364.613428L436.304192,365.603546L434.412321,367.232937L431.936693,368.423711L427.277432,368.085275L426.196615,367.521225L424.475081,366.418228L422.334164,365.290213L420.036090,364.613428L418.558086,364.788889L415.804313,366.092352L414.097492,366.430762L405.770340,365.616079L401.398682,364.563296L397.095656,363.122055L397.991195,362.545581L399.009755,361.367608L399.373631,359.826300L398.246247,358.147254L395.965879,356.794071L394.691866,356.944421L393.668745,357.696185L392.089224,358.147254L388.965571,357.533301L382.667058,354.438696L378.959649,353.185923L378.137681,354.125497L378.364770,359.112065L377.479513,360.214751L376.077172,359.650872L374.632659,358.523150L372.946071,357.408006L370.818411,356.919362L369.015496,358.523150L367.723165,358.986763L365.110031,356.668780L363.180998,355.891988L361.137235,355.440957L359.565842,355.253030L359.699182,350.805817L361.543067,347.536650L364.530856,345.269761L368.009468,343.679295L363.908159,341.306294L351.305747,337.575028L347.652313,337.067966L347.217482,334.683022L347.238813,333.744125L339.759135,331.434573L335.682862,329.594580L332.354065,327.141445L329.526868,323.612313L328.876004,321.253547L330.386893,320.164953L334.001506,320.515301L330.559680,317.418627L322.657649,311.207523L319.957582,307.961768L318.197065,308.218163L308.614772,303.266452L303.337437,300.539787L298.319237,299.695788L295.906799,299.845831L294.028826,298.495476L290.755278,293.182171L287.764178,291.413362L284.174822,292.594640L281.451565,295.313631L281.098961,298.064125L282.222439,304.422493L273.430776,308.643409L274.362863,314.666310L274.085448,316.855631L269.427910,314.778900L260.006886,308.799751L256.069330,306.929956L252.502754,305.885675L249.308599,305.885675L246.605672,307.155076L249.804625,310.050516L253.370987,311.889240L257.190943,313.465382L261.163841,315.560784L258.994434,317.274749L255.635502,322.667532L254.130740,323.825049L246.826398,323.462147L243.972679,324.112872L244.108560,329.894978L240.938672,336.654812L242.526599,339.615892L246.569534,342.915404L249.104463,346.083815L250.235410,349.340279L250.338201,356.042332L253.246563,366.994789L252.038931,377.124310L252.542011,380.246722L257.411885,386.367276L264.526898,394.020089L268.051861,400.257017L262.154632,402.089497L261.141266,400.294669L261.956484,399.566735L262.060675,398.776072L261.893143,397.872490L261.921013,396.818352L256.076061,396.717961L252.203531,401.123034L248.423841,412.045065L247.955016,415.109155L248.931869,425.170714L248.286815,428.022908L245.787833,432.597206L244.986276,435.286917L245.872737,445.923195L245.504893,448.727685L243.960483,451.029390L228.052339,463.409886L225.553975,467.487925L230.969562,472.007389L230.466517,475.356687L228.918532,477.988645L228.264584,480.507570L230.561780,483.656647L228.804366,484.374702L227.359741,485.281754L226.467941,486.604608L226.226341,488.481945L227.953041,490.624078L228.330658,493.547813L227.461929,499.383914L225.312065,501.678469L221.826827,502.308887L218.879921,503.368031L218.548368,506.961966L221.614307,506.646683L224.451285,506.898909L226.163605,508.059188L225.973117,510.455625L224.094407,511.717022L218.267068,512.410823L216.481105,514.542835L214.465961,515.804487L211.122681,514.176971L207.404717,511.717022L204.543807,510.455625L201.494668,510.897105L199.618743,512.070227L194.278916,517.406899L192.465578,517.671877L181.843151,514.038197L179.940532,513.647111L178.026824,513.785883L177.310065,514.757311L177.435965,516.447960L177.342889,518.063041L175.945331,518.782299L170.413546,519.943261L170.113248,520.250508L167.415696,523.010038L164.660557,532.124820L173.953962,538.603677L177.857654,542.317676L175.938896,543.960147L164.202435,544.174942L163.451819,543.467391L160.740914,541.382793L156.737861,539.146837L153.349937,538.401575L151.869186,540.005818L153.530614,544.794070L156.007182,550.089060L156.105714,552.819267L153.954930,553.830553L145.708874,554.045458L143.400931,554.576411L142.216595,556.005000L141.887745,558.837212L142.319355,560.708726L144.053076,564.136101L144.222046,565.679255L142.961514,566.817729L139.134801,566.223184L138.242709,567.349040L139.329979,570.746681L139.388433,570.929460L141.503829,574.029672L141.713677,575.864734L137.107507,575.700204L135.485862,575.054753L131.874744,572.890758L129.710957,572.207444L128.276901,572.371943L125.014940,573.574098L121.799716,572.662984L118.117826,571.448235L115.277739,571.751915L112.679609,572.966684L112.904375,575.700204L112.981654,578.142995L112.202004,579.965806L109.928765,580.877279L105.827227,583.004224L99.930086,585.131416L95.496218,587.575459L92.922498,590.298483L90.347621,592.439192L86.443384,594.554815L84.183858,596.391934L80.240421,597.912449L76.188159,599.737237L75.835088,602.778961L77.634032,606.138131L81.767957,609.180944L85.650809,612.224278L88.781363,615.268134L89.076397,617.716283L86.536002,618.629669L82.720161,618.934141L78.516621,618.629669L73.542869,619.543102L68.384687,619.073693L66.179708,618.502806L64.152057,617.716283L62.965480,616.549247L59.649559,613.936382L56.668575,612.186233L56.438885,613.593948L56.678571,616.625356L54.260550,624.961248L49.249230,634.177235L46.390246,636.780434L42.290566,637.834524L40.287444,640.006408L40.966918,645.075208L42.283416,650.742870L42.291609,654.772383L39.335809,656.615857L30.243140,658.713849L28.188144,660.723081L26.757427,664.157137L21.161883,669.016900L19.346074,671.727281L19.394128,673.012640L20.564216,675.838238L20.744982,676.780211L20.026249,677.582204L18.086266,677.989581L17.479817,678.447891L1.973710,704.006405L0.380246,707.011941L4.494771,710.868600L7.583124,715.258699L11.144813,719.358567L16.499793,722.343703L21.518980,723.188087L31.173193,723.690718L36.346368,725.721512L30.434349,727.511242L22.818891,725.218815L16.672101,724.424588L15.286330,730.628679L20.073478,742.642678L20.632672,746.125533L19.314017,747.726293L16.964018,748.541837L14.863606,749.810543L14.305529,752.892107L15.981173,753.617268L17.894626,754.644634L20.027425,756.034706L22.373328,757.807725L27.824315,763.027175L33.807994,763.984592L35.504775,764.559070L36.761765,765.980233L39.978488,770.516689L41.216788,771.484629L41.939975,771.898037L43.759643,773.904728L45.002768,774.721592L46.033910,774.802272L46.503593,774.237520L46.884423,773.531607L47.594457,773.178661L66.511824,776.325183L73.762873,776.567248L75.967193,777.263205L77.156963,779.038531L78.973439,784.103288L80.855199,786.040812L85.656450,788.008839L87.192261,789.270516L88.156402,791.642725L89.209937,795.550024L90.124313,797.731233L91.670771,799.761220L93.385604,800.437936L95.363823,800.821757L97.799230,801.973271L99.209046,803.185474L102.026576,806.125423L103.374348,807.216666L104.879822,807.125726L106.072035,806.095112L107.569932,806.216357L109.922955,809.672213L110.738478,813.198088L108.934979,814.817834L110.505533,819.339529L108.928716,823.340089L111.287783,826.021007L112.276874,826.799899L113.142414,827.204531L114.846225,827.568709L114.835021,829.177247L114.961178,829.915807L115.427691,830.968054L119.142200,832.829231L119.257480,831.804574L118.774841,827.449103L122.770408,824.975995L124.896056,821.130743L128.027574,818.748090L132.526116,820.124808L133.956273,819.437197L130.652203,816.792953L128.451155,814.234880L129.806435,812.620426L132.260628,812.454692L131.133272,808.618022L128.163019,807.761189L126.815348,805.289996L126.912228,803.158605L125.381212,800.064224L124.850668,797.246496L122.355346,794.429234L120.012396,792.460457L118.163084,790.199171L117.036160,787.706051L116.855182,785.031657L120.511088,788.079490L124.185842,793.698423L127.052190,795.235995L133.088367,795.731781L135.067144,798.054399L137.002367,798.579556L141.823975,799.165328L145.543915,800.276329L149.996262,802.175299L154.326656,804.579614L158.117905,807.610742L163.718917,815.039246L166.782827,816.484887L169.918822,817.293690L173.119428,819.073186L172.862976,814.806742L175.215475,815.049355L183.825001,820.771964L185.722125,821.287697L187.527155,821.297810L189.208810,821.682091L190.636629,823.320438L192.157977,824.493668L198.570541,828.337552L200.672910,829.420058L203.618256,830.178863L205.553879,830.087805L208.352574,829.420058L210.965420,829.784280L212.316641,830.785930L213.532414,832.334045L215.760618,834.347806L217.394749,836.037919L218.380447,837.687704L219.567296,838.952978L221.817587,839.448989L230.836807,839.448989L229.398341,837.981240L226.063560,834.145407L224.609105,832.647732L238.334294,832.647732L237.604640,837.161376L240.320128,838.801140L244.323758,839.691939L247.378138,842.000120L248.573211,842.597460L257.103450,848.865645L259.514893,850.070921L261.101450,849.615135L262.313943,848.551678L266.063432,847.083196L281.843625,836.584457L283.794285,834.347806L286.839976,837.606729L288.230804,840.926981L287.857510,843.508694L283.224007,845.705968L283.204755,848.501039L284.130786,851.924566L284.549019,854.902942L282.884051,858.763384L280.477554,861.651637L279.463567,865.401962L282.032093,871.900906L283.397589,870.937584L285.146607,870.308916L287.195411,870.045287L289.508653,870.207520L288.130116,876.981966L289.342957,880.572986L294.075331,882.125243L307.618006,884.002321L311.823794,883.982027L312.146530,886.660979L311.339172,888.508047L308.252723,890.954156L306.716503,890.101535L305.689616,889.736138L303.291239,889.076410L306.356904,891.624098L307.765832,892.486935L308.518123,896.852455L311.214880,900.152612L314.847274,902.153281L318.242938,902.559533L316.832994,905.027687L315.899413,918.745133L317.547128,921.052598L320.298783,922.953655L323.408618,926.735954L318.151838,925.119242L313.211114,924.966729L309.840535,926.969828L309.279823,931.861451L310.962134,933.946583L313.712968,936.184515L315.292680,937.964856L313.322848,938.697383L308.323891,938.829647L306.690243,939.806395L305.927944,942.105997L307.983830,943.347477L308.226504,944.304077L307.937348,945.423556L308.471094,947.235199L309.657743,949.306433L310.060619,950.930855L311.620389,952.373857L312.512587,954.062880L312.642121,955.935681L313.035103,957.810053L324.164569,959.340435L320.773309,960.318105L315.590801,960.083867L311.442748,960.050071L311.011007,963.618056L311.443873,967.802134L310.089540,972.748017L309.270029,979.849871L308.422483,983.727010L310.210447,986.431556L310.055785,990.627250L309.008300,995.570114L309.968479,1001.421362L310.528069,1007.422593L312.351904,1011.673960L316.285578,1021.066035L317.472175,1025.273206L318.285752,1029.501512L323.153611,1036.141035L326.449665,1038.104768L330.311711,1039.620932L332.701882,1042.634974L336.573711,1045.804811L342.234041,1045.526196L341.145957,1037.439153L337.118229,1031.370772L340.697614,1032.116472L344.247802,1034.506944L346.717706,1037.439153L346.919098,1039.799468L348.778442,1040.862191L350.613214,1041.669481L348.786597,1046.278667L349.110924,1048.384243L351.740510,1051.174902L355.462171,1053.516011L359.123586,1054.671308L362.406281,1054.701980L364.896859,1053.679590L364.133979,1052.105187L362.747335,1051.297575L360.965327,1049.948202L359.777462,1048.353578L360.078690,1046.820377L361.168377,1046.810156L362.549581,1048.016266L363.770942,1049.508648L364.492714,1050.244649L370.321292,1051.113565L371.751168,1050.162870L371.323690,1046.820377L372.716875,1046.820377L376.480765,1050.343205L380.142207,1051.119995L384.830335,1048.151630L386.944581,1046.268446L384.752283,1044.418542L382.420212,1042.895792L379.966756,1041.669481L382.648528,1041.454882L383.316268,1039.656412L383.074984,1037.592414L383.133283,1036.519609L384.770013,1036.100716L384.949067,1036.366355L385.316971,1037.531110L395.137155,1046.881703L397.201970,1048.537568L400.214272,1049.753980L405.067450,1049.774424L407.916497,1050.244649L412.397036,1052.708356L427.080882,1063.966613L429.749847,1064.989395L433.980186,1065.193956L436.482461,1065.838332L438.338055,1067.065759L442.614625,1070.963205L445.417331,1072.845633L441.927758,1074.001753L435.733292,1072.825171L429.438714,1070.103878L425.565018,1066.625925L424.186821,1064.979167L421.725742,1063.015461L418.937000,1061.368922L416.564345,1060.683746L416.292926,1061.972300L417.005277,1064.641645L417.102149,1067.035073L414.841342,1067.403311L412.963308,1066.094042L410.089510,1061.358695L407.967698,1058.965768L396.347149,1053.679590L394.371778,1054.497499L394.263819,1056.327661L394.792580,1058.137497L394.679614,1058.965768L392.037648,1058.648773L386.705629,1057.299027L384.665661,1057.094526L378.801141,1056.820669L375.028698,1058.751048L372.900473,1060.844913L371.931481,1063.399254L370.638862,1064.296018L369.538840,1066.359982L364.077049,1064.783445L361.019589,1062.965541L359.522966,1063.109181L356.099840,1066.100691L353.181631,1066.539291L350.166387,1067.428943L347.554236,1066.215965L345.460330,1063.802777L343.218934,1063.042836L344.492223,1066.354842L347.318700,1069.973499L347.471758,1071.928680L343.132328,1072.664997L339.679652,1069.044185L335.539045,1064.970768L332.164121,1063.966613L331.876129,1066.257697L333.718134,1069.285496L336.722785,1072.282937L340.026439,1074.421243L341.162942,1078.125300L343.532384,1082.843055L343.528824,1085.603061L336.780180,1082.272235L333.237168,1084.670558L330.726606,1088.574905L326.014885,1085.250512L323.766845,1082.838659L322.263370,1083.285413L320.636591,1084.787584L315.483045,1082.524211L312.738970,1082.670080L313.050565,1084.628130L317.297016,1087.172621L318.532115,1089.158505L319.105271,1091.287853L320.146811,1094.256918L322.133884,1096.775742L327.100537,1099.520076L329.594715,1102.059836L330.686548,1106.320571L330.691225,1112.446442L329.928151,1118.050961L328.689567,1120.817739L327.364478,1117.098018L325.975713,1115.335663L324.683176,1115.028286L323.436909,1115.653289L322.291496,1118.266146L323.388336,1125.798562L323.323471,1128.699286L320.756649,1142.253178L321.115039,1144.796450L326.578525,1160.696332L328.665117,1164.903361L330.043893,1166.873659L334.507199,1170.168001L342.169709,1174.078511L352.163973,1172.497832L358.348339,1174.612262L349.722285,1183.194444L348.085571,1184.097950L339.029513,1175.987736L334.649367,1173.678203L330.351348,1174.612262L329.221971,1176.767880L328.802732,1182.978838L328.237864,1184.960410L320.575782,1186.808606L319.509050,1187.476033L320.203181,1192.497526L317.075322,1194.551502L307.747240,1195.301232L303.726662,1197.262924L303.785608,1200.159431L307.019352,1202.768531L332.950015,1207.206463L341.920077,1206.148298L346.508720,1204.864157L347.940937,1203.128066L347.642405,1198.659793L352.460292,1200.385409L362.394442,1207.206463L382.052109,1216.145499L384.101326,1214.480835L393.146467,1212.692941L400.873873,1207.884525L403.849533,1207.206463L407.230321,1207.781787L415.457524,1210.247561L419.420730,1210.822931L427.517339,1210.740735L431.605568,1212.220293L435.243779,1216.145499L432.053007,1218.282948L434.659636,1226.833874L430.174222,1226.494680L428.270919,1224.880980L426.698494,1222.517075L424.855884,1220.358848L422.059917,1219.433929L413.849863,1221.160462L405.469119,1221.314620L404.387679,1223.164566L407.285821,1228.046770L409.956384,1231.305321L410.951098,1232.045469L412.053038,1232.302468L418.113211,1236.085674L420.772814,1236.969841L422.916178,1236.640846L424.375990,1234.954788L426.773759,1236.846468L426.069006,1239.509354L424.429552,1241.061925L421.937935,1241.822808L418.728346,1242.007889L414.766580,1241.329261L407.829937,1238.018529L404.437123,1236.846468L401.861421,1237.319401L398.431691,1241.103053L396.306380,1242.007889L392.664570,1242.408902L390.597509,1243.797052L390.098520,1246.480935L391.257992,1250.800171L392.947695,1250.244817L396.538198,1247.190495L397.600338,1252.517699L400.411323,1255.664956L404.417472,1257.156380L409.123179,1257.536958L411.574436,1258.154118L419.273463,1262.721364L421.874882,1263.482616L434.593601,1265.375511L438.352385,1265.365224L441.245610,1264.315892L443.288877,1261.939551L443.726647,1258.010114L443.380536,1253.330205L444.053930,1249.699754L447.768520,1248.918167L449.296270,1253.484480L460.487858,1258.390699L464.084323,1262.721364L463.478775,1267.330213L457.219447,1272.896409L456.481911,1276.693317L469.074102,1276.693317L470.278980,1277.351890L471.382178,1278.545575L472.097326,1279.656964L472.176387,1280.150922L475.475803,1279.183592L478.297044,1276.755058L482.273253,1271.507371L479.987474,1270.673968L477.900940,1269.552498L475.903934,1268.050386L474.084380,1266.177958L478.125725,1264.984581L484.251638,1265.910474L490.807261,1268.297305L496.113369,1271.507371L494.435168,1267.289060L488.984276,1263.626638L482.536441,1260.828576L477.862152,1259.265028L479.530439,1258.020400L481.698159,1257.526672L486.947876,1257.536958L486.162326,1256.672947L484.898369,1255.068400L483.814997,1254.101585L487.191635,1252.024031L489.804090,1253.484480L492.839532,1256.138092L497.437726,1257.536958L503.457330,1258.627280L504.399124,1261.291479L501.428926,1267.896062L504.217140,1270.560791L507.269575,1272.433392L510.263928,1272.927277L513.034619,1271.507371L515.333782,1277.959020L511.980901,1279.132138L500.754453,1276.693317L496.918059,1277.650308L493.152695,1280.089177L490.394107,1283.444104L489.481145,1287.046271L493.768419,1288.425455L500.198008,1287.128609L504.202694,1288.940085L495.365565,1293.963147L489.174343,1292.357361L488.755269,1298.152835L492.012669,1311.238714L495.806299,1313.936585Z "/></g></svg>