<?xml version="1.0" encoding="utf-8"?><!DOCTYPE svg  PUBLIC '-//W3C//DTD SVG 1.1//EN'  'http://www.w3.org/Graphics/SVG/1.1/DTD/svg11.dtd'><svg enable_background="new 0 0 1000 1304" height="1304px" pretty_print="False" style="stroke-linejoin: round; stroke:#000; fill: none;" version="1.1" viewBox="0 0 1000 1304" width="1000px" xmlns="http://www.w3.org/2000/svg" xmlns:xlink="http://www.w3.org/1999/xlink"><defs><style type="text/css"><![CDATA[path { fill-rule: evenodd; }]]></style></defs><metadata><views><view h="1304.50135932" padding="0" w="1000"><proj flip="auto" id="robinson" lon0="126.79593073"/><bbox h="87.62" w="67.22" x="1697.14" y="-720.92"/></view></views></metadata><g class="" fill="#000" id="country"><path d="M178.057377,845.002810L174.985236,827.175081L166.553746,828.598219L163.171415,839.366626L170.210756,852.163134L178.057377,845.002810Z M501.191553,1302.501359L508.636627,1299.666878L525.794192,1278.171926L533.074979,1252.160458L531.611290,1240.773515L544.111911,1235.037902L592.718598,1263.315294L615.438802,1264.292398L644.053130,1296.448872L650.693939,1291.176720L651.666652,1274.757340L679.953637,1262.127954L731.221705,1282.786943L742.363813,1284.469737L745.537054,1286.585682L749.584431,1281.797091L746.755255,1274.905795L736.190346,1252.296476L746.744863,1236.657146L757.017443,1204.494347L761.149763,1186.910503L767.544764,1170.494986L778.790870,1159.539103L792.485007,1154.321485L816.896111,1152.113800L866.740853,1154.210480L875.393689,1152.311129L908.536190,1150.609204L917.957474,1153.519795L943.524033,1155.357543L969.885611,1153.310125L981.346769,1148.562076L990.184811,1140.485794L994.231710,1125.928926L992.515926,1098.990241L994.372060,1077.796531L999.616418,1073.872137L983.237849,1059.397303L958.853640,1043.209955L935.990770,1032.915240L924.146532,1025.301292L883.023020,1004.792042L821.732229,958.071088L798.782039,947.813232L772.435711,943.248934L750.735962,934.172162L726.265001,927.055354L712.817576,904.974508L710.844247,885.614013L714.501054,878.770365L730.832877,884.662346L725.425631,863.761879L712.013305,838.392947L690.810308,805.295057L687.881897,783.843028L733.706765,755.549526L740.808009,730.848436L764.287478,721.695664L804.043027,720.861757L814.962206,707.742603L833.461876,697.542274L844.612533,680.825285L846.947544,651.316544L870.118728,641.223210L881.456741,624.141829L906.205949,608.601603L910.418358,566.863232L920.878726,550.857077L977.103002,518.777014L973.439457,500.446575L940.742863,453.708261L926.301316,409.802526L912.570385,388.474242L882.614858,363.474039L869.130732,339.031383L866.520305,310.572233L877.319237,287.962447L874.655499,265.866119L876.950770,243.005140L881.305593,229.796832L896.298757,217.408227L894.998771,196.561374L906.350877,189.091865L922.210306,167.929928L946.065961,170.347548L962.014978,174.416540L968.147827,167.729449L958.583048,161.632973L950.743139,150.833585L937.693850,140.425727L916.234242,126.167316L901.882904,111.524362L890.973355,103.056205L879.732188,100.359398L854.578077,88.502078L833.581450,75.458328L814.973426,61.028694L796.526379,30.237789L791.989165,25.614969L770.323993,19.310484L759.406399,10.148653L748.291271,5.773893L737.953206,8.561014L727.090658,5.609256L716.874832,0.599716L707.927149,0.000000L705.387759,7.961247L711.951883,25.026844L716.837256,53.379707L726.131628,70.514687L735.642729,95.025058L749.108465,126.096624L748.643020,132.577181L735.200922,133.508097L731.612152,135.534963L730.706231,146.106731L723.000055,147.898398L711.488596,141.710374L695.504650,135.534963L683.442730,134.733634L676.720379,140.920724L672.551596,154.370210L672.122487,165.276603L675.727711,175.454491L681.270597,188.041764L676.070337,200.113731L668.505473,206.428539L655.672325,224.222018L652.583165,231.615924L635.858687,231.710425L617.222691,231.025299L595.510989,235.821461L556.898346,238.267051L530.799114,234.663706L503.150351,238.054384L483.500050,243.891389L485.278450,252.577871L493.649799,265.440432L503.213110,273.848802L512.144808,279.467461L531.834128,296.779396L551.590490,313.532921L573.182922,324.371664L586.253882,336.008732L592.856843,346.844423L593.490296,360.507928L592.782614,378.380962L588.849498,389.388777L580.946398,389.020584L565.488006,382.607768L552.892205,374.570321L532.138244,371.543585L488.572552,376.683316L463.255569,373.098451L448.388912,366.535421L428.637328,366.037032L393.525819,357.281183L373.582466,354.481830L361.708924,348.848437L352.678483,336.008732L338.944508,327.179756L328.036361,316.612362L309.459330,303.349423L295.138577,296.696540L283.213812,293.891412L276.524115,301.905075L268.701693,309.127527L258.801611,307.517120L255.638255,309.530143L254.123382,315.510831L241.953799,327.867011L243.806551,339.185488L249.790782,363.177412L258.445734,387.868530L258.725764,396.611237L251.726902,398.120145L247.926790,405.547247L244.270642,428.841823L241.111822,450.266503L227.194150,464.787470L224.227166,478.113845L225.614050,490.231639L219.282940,507.203626L197.894061,510.236670L182.245612,515.181267L171.715376,516.483307L167.385185,523.341317L167.231908,533.812113L166.655549,537.961334L156.293603,537.961334L150.786696,546.872593L136.376649,567.138700L117.686977,570.887859L99.002899,584.441447L81.679261,594.742153L75.281078,600.536621L76.156275,606.933102L77.166325,615.073032L66.980357,616.694262L56.047150,616.285938L42.238440,635.006565L38.585831,650.895367L9.551324,684.840136L0.383582,703.963497L8.276360,728.755435L11.924193,730.715414L17.960109,752.836704L34.433894,763.096956L75.168304,781.707811L94.711442,800.011497L113.824804,825.362872L124.031278,821.058096L128.235223,816.122267L118.265630,793.904029L123.563325,789.789096L149.519946,803.776627L210.853274,831.529996L227.981884,833.233322L271.940174,847.413630L287.029403,872.112022L307.815030,897.440478L311.845580,906.916472L312.056234,1011.442480L322.495243,1028.039594L356.696663,1043.775177L381.801672,1042.792190L397.296382,1047.596890L415.814326,1058.057202L404.242702,1060.602221L388.101112,1059.520251L368.351412,1063.307335L332.033075,1090.680741L322.137874,1109.999318L319.712007,1144.949081L325.732415,1156.739005L331.398164,1172.296621L306.188800,1198.640388L327.605713,1205.643013L352.406059,1202.826989L374.552443,1211.633919L406.998749,1207.631645L417.476630,1210.695077L428.589184,1216.946205L419.883651,1221.764935L390.561010,1248.685954L399.387836,1250.923948L419.570997,1261.187998L466.914878,1270.959513L489.196037,1295.099844L490.499426,1301.040778L501.191553,1302.501359Z "/></g></svg>