<?xml version="1.0" encoding="utf-8"?><!DOCTYPE svg  PUBLIC '-//W3C//DTD SVG 1.1//EN'  'http://www.w3.org/Graphics/SVG/1.1/DTD/svg11.dtd'><svg enable_background="new 0 0 1000 871" height="871px" pretty_print="False" style="stroke-linejoin: round; stroke:#000; fill: none;" version="1.1" viewBox="0 0 1000 871" width="1000px" xmlns="http://www.w3.org/2000/svg" xmlns:xlink="http://www.w3.org/1999/xlink"><defs><style type="text/css"><![CDATA[path { fill-rule: evenodd; }]]></style></defs><metadata><views><view h="871.770429292" padding="0" w="1000"><proj flip="auto" id="robinson" lon0="128.006127209"/><bbox h="92.19" w="105.87" x="1717.97" y="-648.69"/></view></views></metadata><g class="" fill="#000" id="country"><path d="M545.296393,869.770429L547.257100,869.326035L547.945042,865.182815L551.142777,863.344938L563.677442,863.164423L569.933799,864.841750L576.152339,863.590516L582.266774,864.177830L587.269696,862.958435L590.228077,859.149917L602.647079,856.689023L606.121472,852.676129L609.728232,852.982501L610.724214,852.318800L613.841638,851.938616L613.894986,849.878171L613.426046,848.476936L614.011949,844.980360L614.202284,841.985828L617.257710,838.392907L618.534568,835.631626L618.573613,835.167432L619.104606,833.678098L619.213706,832.827018L618.867014,831.969468L617.433692,830.505775L616.996004,829.583677L617.469401,828.487442L618.601693,828.113424L618.932046,827.410515L617.096023,825.353285L617.009039,826.017547L616.447047,826.707589L616.124547,827.429861L614.089167,825.572558L610.861401,820.825607L608.122773,818.858244L600.700005,816.323060L598.130822,814.800558L595.605235,812.444813L591.216720,811.753932L585.216915,812.267769L575.208154,813.992987L572.861294,813.398325L565.616950,817.226105L553.243133,818.577772L551.033202,821.490954L539.073489,825.361618L533.732403,827.498760L533.511852,831.105912L530.266833,832.031557L529.076104,838.861452L525.562990,841.588177L524.745325,842.993349L524.112937,846.989376L524.328428,853.433552L527.676519,858.407600L533.211328,862.492748L537.779770,863.858816L542.750147,868.746383L545.296393,869.770429Z M625.448053,732.728247L625.278450,732.786485L625.094751,733.200617L624.561672,733.394739L624.010419,733.232971L623.646946,733.368856L623.823253,734.028861L624.193079,734.766493L624.264398,735.407050L625.036959,736.494019L625.654696,736.998667L626.294301,737.348033L627.133395,738.674286L628.034837,739.761114L628.563679,740.259228L630.545846,740.679706L632.793177,741.585328L632.631055,740.802614L632.061937,740.259228L631.005052,739.994000L629.946517,739.308275L627.116815,736.526368L626.210801,734.882959L626.052193,733.407681L625.448053,732.728247Z M340.687890,734.339445L340.045307,733.077672L336.562708,729.175479L334.815380,727.738696L333.151595,727.246805L332.519680,728.178800L332.556492,729.855009L333.382437,731.091060L335.225467,731.997026L338.771966,734.365327L339.586170,734.779433L339.942559,734.941192L340.568479,735.051187L340.687890,734.339445Z M522.174087,715.678061L518.872676,714.013833L516.861132,714.013833L515.189951,715.645684L515.003610,718.009083L516.094040,720.417571L518.272342,722.282043L520.846117,722.392094L522.342551,721.194452L523.166284,720.009698L524.228682,719.012648L524.327712,718.158002L524.751682,717.465198L525.975464,717.432823L527.453075,718.093255L528.028153,718.287496L528.008141,717.665919L528.513577,717.743617L529.268129,718.242173L529.299391,717.536422L527.635074,716.163709L526.283398,715.678061L525.442104,715.464373L523.946897,715.438471L522.988735,715.775191L522.174087,715.678061Z M538.318426,723.563786L538.469798,722.314411L537.806897,720.708904L537.610175,719.763677L538.153691,719.673037L538.375357,719.193933L537.602532,718.416989L536.955007,718.125628L534.791533,716.144283L534.516915,714.933382L535.328355,713.851937L534.373612,712.297680L531.662122,711.151351L530.527367,711.138397L530.687850,711.682425L530.024564,712.731587L530.585291,713.463382L531.791248,714.272864L532.346527,716.319114L533.023817,719.990276L534.196257,722.126676L534.935534,722.275570L535.778729,722.780507L536.319988,723.518473L537.163452,723.919813L538.318426,723.563786Z M568.820379,715.943550L568.789066,715.088795L568.306920,713.094249L567.140558,712.200535L565.396185,711.054201L563.273032,709.150000L560.775349,708.573529L559.277098,709.499763L558.711783,710.393577L558.694637,711.598231L559.107254,713.113677L558.973538,714.765016L560.524558,717.212676L561.139995,717.504047L561.262212,716.707623L562.090697,716.604021L563.729685,717.678869L565.492851,718.429938L567.391904,718.261597L568.595287,717.426349L568.820379,715.943550Z M524.261891,714.013833L523.145458,712.874062L524.119350,712.653872L526.001938,712.550253L525.714650,710.736845L526.310128,709.966105L525.626468,708.573529L524.767079,707.796242L523.866988,707.284513L522.141724,706.546051L519.195464,706.079642L517.945899,705.529009L516.763296,705.192144L516.480520,705.574355L517.616404,706.682086L517.890035,707.135527L517.720155,707.478842L517.335306,707.718511L517.372426,708.068295L517.788611,708.450460L517.935732,708.936254L517.843134,709.648734L517.952642,711.552896L518.301193,712.083961L518.978593,712.213488L519.620897,712.414252L520.143996,713.055393L521.588770,714.026784L523.825073,714.570747L524.261891,714.013833Z M441.900628,692.394198L441.181930,693.048845L441.441323,693.833102L441.195369,694.591407L441.639942,695.459863L443.110369,696.781928L446.309578,697.915993L447.097463,697.792868L446.996906,697.002265L447.440480,696.982824L448.341985,697.838230L449.034975,698.110398L449.522765,697.494775L450.735423,697.332766L450.981737,696.419016L450.292916,695.271916L449.690947,693.502551L448.624533,693.055327L446.842053,693.346995L441.900628,692.394198Z M546.620052,686.793285L545.600518,686.203295L544.397141,686.540434L543.216938,687.992669L542.008418,688.602062L540.569817,688.038050L539.459656,687.875975L539.072976,688.109363L538.632670,688.446474L537.472144,688.835442L536.190389,689.010476L536.596831,689.548534L540.057234,690.838525L540.699939,691.169114L541.313005,691.428397L542.587001,691.441361L543.935618,690.883900L545.206656,690.682952L546.408572,691.117258L547.519708,692.083072L548.297754,693.308107L549.325384,694.228461L550.416446,693.982172L550.735735,693.405329L551.159794,692.821989L552.291107,692.595131L553.522380,692.815508L553.972822,691.908061L553.640748,690.799632L553.618468,690.255121L554.009502,689.360539L553.781833,688.193641L552.337477,687.512923L550.278096,687.059100L548.740615,686.903501L548.224808,687.007234L547.682012,687.046133L546.620052,686.793285Z M572.849002,685.580871L571.754287,684.141450L570.358877,682.857566L569.045042,681.949726L568.566339,681.807062L568.846957,682.222082L567.990012,683.311473L567.381068,684.789849L566.834104,685.308555L565.936994,685.503066L565.749567,685.801314L566.231178,686.054174L567.212730,686.345931L569.513611,686.553401L570.616659,687.085033L571.263430,687.888941L571.141163,688.524268L574.281478,689.120681L575.019199,689.755975L574.412915,690.313462L574.170230,691.305238L574.884986,692.711801L575.985913,692.102517L577.557388,690.274568L578.117083,689.321644L577.118985,688.861373L576.593948,688.427025L577.385923,688.057499L578.819040,688.349231L580.172166,688.913235L580.908168,688.744684L580.339348,687.999152L579.725667,687.610170L578.489594,686.579334L577.735284,685.853183L576.898126,685.315038L575.638158,685.464164L574.070182,686.034723L572.849002,685.580871Z M535.399540,690.909829L534.425250,689.548534L533.300767,688.576131L532.396357,687.409193L530.981967,684.887107L528.477747,681.813546L526.139220,679.965319L524.320929,679.005478L522.597617,678.506086L520.373358,678.739569L519.683171,678.914681L518.547888,679.595656L518.144818,681.132638L518.454219,683.142880L519.182402,685.152944L520.130520,687.123932L521.236652,688.854891L522.645850,690.021755L524.613915,691.032990L526.530562,691.506181L527.758608,691.149668L529.024740,691.454325L529.834524,692.627540L528.996414,693.560883L529.445717,694.591407L532.289882,695.459863L534.483450,695.926483L535.865270,696.457899L536.346311,696.088501L536.087885,695.155259L536.601236,695.045082L537.883707,695.699655L539.279011,696.211635L539.999483,696.393093L540.682287,696.483822L540.956279,696.056098L539.476904,694.280310L538.809629,693.295144L535.399540,690.909829Z M545.582358,679.011964L544.168406,677.734275L542.687601,676.605698L541.151401,675.859768L540.884332,675.477064L541.277213,674.770018L540.731364,673.719136L539.710218,672.765516L537.946997,672.480071L535.477423,673.128805L533.466671,674.568927L532.629499,677.020813L532.553638,679.031421L532.329977,679.965319L532.240582,680.912149L533.066680,681.502277L533.730475,681.547670L534.559012,682.014573L535.416128,683.402253L536.080022,685.049203L537.355405,686.047690L537.857149,685.548452L537.531744,683.836696L538.074103,682.196143L540.881292,680.574927L541.139646,679.595656L542.151942,679.316783L545.206336,680.146906L546.106073,679.984775L545.582358,679.011964Z M623.994749,668.652157L621.950572,668.184977L620.722407,667.613965L619.618776,667.211652L619.126620,667.575032L619.651796,668.288795L620.113475,669.184212L620.141525,670.378044L621.297505,671.033327L623.121087,671.948095L623.033105,672.583870L623.991100,673.407755L625.503144,673.835903L626.786741,674.770018L627.411498,676.132198L628.343211,676.560294L630.180415,675.918146L631.934839,674.361347L632.485253,673.290985L632.090591,672.350322L630.835283,670.767323L626.632208,667.665876L625.445316,667.730764L624.748372,668.911697L624.201268,669.067420L623.994749,668.652157Z M590.134273,675.010027L592.155746,674.011053L592.881027,671.584787L592.069057,668.619714L589.544470,666.030628L587.375043,665.161042L585.158280,664.998802L581.236551,665.485519L577.251746,666.283710L575.504502,667.140273L574.240125,668.483454L575.823338,669.313979L576.637742,670.027687L576.818250,670.767323L576.470108,671.656152L576.966627,672.843364L581.010276,674.958133L582.872373,675.710579L585.103483,676.008956L590.134273,675.010027Z M660.959483,664.726237L662.365555,664.161625L662.237487,663.168653L661.271926,662.253521L660.199437,661.773224L659.053869,661.578506L658.748817,661.007323L658.514809,659.890877L654.880700,656.008834L652.625598,654.736308L650.345705,655.060939L648.568288,656.119203L648.433778,657.482534L649.841428,658.605595L651.172479,659.189823L652.232586,660.176485L653.394705,661.533072L655.101984,662.526118L657.295548,663.168653L658.807199,663.850110L659.507422,664.492606L659.904229,664.771664L660.959483,664.726237Z M464.413522,656.781403L463.322487,655.684217L462.516311,654.677874L462.007313,654.229874L460.291663,653.489679L457.775913,651.989734L455.100109,650.801391L453.027828,650.957243L452.699392,652.281939L457.205713,654.950565L459.045873,656.943704L459.251435,659.371580L457.893004,660.598399L455.709032,660.384197L453.373103,658.488747L453.948122,660.747690L453.286410,661.455184L452.118603,661.669375L451.024510,662.448233L450.366568,663.811170L450.102962,665.037740L450.342185,668.483454L446.769905,668.755973L444.797137,673.063933L445.361032,678.389343L449.485554,681.651427L448.088166,678.279085L452.882001,680.665718L453.999838,681.651427L453.962167,682.468496L453.386946,683.441159L453.128612,684.608299L453.993306,685.995822L455.691526,686.384832L461.055724,685.918019L462.356546,685.399327L472.098070,678.564457L471.574450,676.008956L471.159579,675.010027L472.471416,675.658687L475.611773,677.786162L476.042132,678.279085L476.987023,677.397005L477.339732,675.710579L477.631869,670.157449L477.353047,667.782674L476.686638,665.329771L475.569094,663.136202L469.008318,656.800879L468.313633,655.418028L466.109614,657.294269L465.589235,657.489026L464.413522,656.781403Z M430.743218,657.696764L432.702764,656.158156L433.374220,655.112879L434.110648,654.327266L434.519347,653.528637L433.996791,651.989734L433.666606,650.216936L433.094837,648.560894L432.509551,647.749062L432.084354,647.450300L431.408402,646.060353L429.407809,645.150993L428.037779,644.157147L425.888094,642.864429L425.200923,643.611487L427.156647,646.294182L429.357023,648.405025L430.666850,650.002632L430.660701,651.561158L429.635502,652.710500L427.748007,652.768939L426.038297,653.048148L425.680608,653.892244L428.883012,654.541527L429.238802,655.086909L428.703160,655.684217L428.315317,656.352923L427.525902,656.391876L426.873939,656.658053L427.686691,657.476042L429.395578,657.917483L430.743218,657.696764Z M425.712793,651.801421L427.060451,651.710511L428.085020,651.307906L427.671438,649.437638L425.632011,647.196999L423.372769,645.150993L420.151630,641.467686L419.630612,642.870925L420.441096,645.949932L423.263177,651.489728L424.696681,652.379340L425.712793,651.801421Z M716.185606,641.773028L715.755805,640.785522L710.635987,638.563463L709.838602,638.784380L709.527581,639.291180L709.843338,640.161809L709.797738,640.889472L710.083040,641.688572L710.850258,642.130338L711.391037,642.240778L712.216115,642.818955L712.694867,643.643967L712.665580,644.663819L713.047807,645.261417L713.760116,645.092532L714.174700,644.449459L715.286636,643.754399L716.254122,643.604991L717.618230,643.884319L718.414187,643.760895L718.823466,643.384124L719.428943,641.825001L719.260990,640.973931L718.776452,640.616601L716.814479,641.837994L716.185606,641.773028Z M337.625473,631.674888L336.843226,631.213403L335.848173,631.427897L335.082840,632.246856L334.751206,633.748198L334.583505,635.463884L334.660180,637.406860L335.405158,639.538079L337.202238,641.825001L338.714434,642.364211L339.006069,641.773028L339.297060,640.843994L339.565465,639.395138L339.506829,638.271069L340.583108,635.847295L340.548689,634.937496L340.858183,634.209627L341.542224,633.065783L341.014415,632.415844L339.662857,632.805810L338.546468,632.831807L337.625473,631.674888Z M657.270197,650.164984L658.020861,648.814179L658.049456,646.618941L657.488900,644.352022L656.384939,642.019897L653.575559,638.017658L651.640880,635.678336L649.635247,633.780693L648.112548,633.429740L649.087414,631.954375L649.017632,630.192898L648.029972,628.697801L646.343141,628.060727L644.780729,628.249251L643.623267,628.912321L643.934996,630.205898L646.828910,632.324851L647.546809,636.380160L647.510703,637.335383L645.829879,639.200217L645.574192,639.966896L646.020565,642.903407L647.347500,644.748263L654.020923,649.489592L655.837437,650.281876L657.270197,650.164984Z M413.375760,634.567066L413.435004,633.397244L413.201169,632.142863L412.519152,630.920906L411.834343,630.257900L409.661788,628.834314L407.673781,626.773517L407.044213,626.448452L406.402315,626.864535L405.377002,630.140896L402.131451,631.700887L401.744956,632.935797L404.047987,635.600354L404.538293,635.385902L406.976205,636.263191L409.353353,637.380868L409.572722,637.881205L410.977008,638.004663L411.857101,637.926690L412.498600,637.250909L413.375760,634.567066Z M422.866381,619.783476L421.096760,619.529839L419.750832,619.672916L418.983913,620.173680L417.940209,620.167177L416.521562,619.829000L417.624213,621.155662L421.364375,623.886755L423.485864,626.084372L424.282284,627.449637L425.501581,628.132236L426.453759,628.047725L426.822876,627.826695L427.267547,627.196095L428.692550,627.215598L430.658552,628.990328L432.843127,630.517905L434.449759,630.355402L434.572936,628.827814L433.803905,627.118081L432.768108,625.720286L432.195692,624.660499L431.957465,623.860747L431.117677,622.982934L429.902689,622.183116L428.484105,621.870984L426.873633,621.766938L425.469492,621.181674L424.329309,620.329760L422.866381,619.783476Z M407.536446,618.027463L406.755042,617.032322L406.076105,616.564003L405.399421,616.459931L404.568509,616.577012L400.943279,618.222583L398.797326,618.736390L396.716836,618.046975L395.368280,618.671352L394.311129,619.607881L393.846618,621.012595L394.281054,623.002441L395.386486,625.109127L396.782065,626.806023L398.367721,627.878702L399.989399,628.060727L401.260632,627.352121L401.819844,625.941339L401.740387,624.055811L401.111769,621.910000L401.667553,621.493817L403.467136,621.844972L405.264710,621.831967L405.774005,620.329760L406.602604,620.719954L408.281902,621.142656L409.010602,621.422285L407.536446,618.027463Z M428.557057,620.661425L428.997053,619.815993L427.813266,617.656730L427.833230,616.629048L428.077222,616.212757L427.477148,615.549276L425.976650,614.248270L424.475903,613.688811L423.821678,614.508478L422.249984,615.341121L419.192701,615.881019L418.349383,616.967278L420.367559,617.916894L422.921473,618.736390L425.254154,620.206197L427.153776,621.077626L428.557057,620.661425Z M717.439536,611.325862L715.382879,610.142026L712.999025,609.318888L711.618776,609.710463L711.054422,610.873029L711.785355,611.923537L712.699173,611.969653L714.002995,611.496354L716.728202,612.314664L718.432226,613.319043L718.712063,614.536411L717.876773,615.536059L718.691307,616.022939L720.499777,616.274520L721.309423,617.322290L721.497176,618.370713L722.619263,618.412849L723.669167,619.663472L725.144707,620.880958L727.316599,620.856280L727.945397,619.173039L728.067059,618.210048L726.600586,617.316871L725.427089,617.105334L725.217504,616.703186L725.606242,616.385963L727.160906,616.919549L727.322586,615.957118L726.514323,615.188730L726.665560,613.905624L725.441460,611.853317L723.615285,610.593850L721.376307,610.742014L719.562988,611.249478L718.525707,611.764869L717.439536,611.325862Z M700.864233,614.983348L700.285209,613.851446L700.800716,613.500153L702.217072,613.500153L702.376679,612.641411L701.106405,611.398774L698.194186,609.199572L696.367456,608.815663L695.166118,610.149553L694.891826,611.619982L695.099744,612.485273L696.469053,613.734349L698.347335,614.742662L699.280701,615.119953L700.675122,615.471218L700.864233,614.983348Z M418.763088,602.327141L417.961933,602.411759L416.221221,602.379214L415.480064,603.602885L416.524511,605.477299L416.574788,606.440471L415.368177,606.479517L413.815291,605.770160L412.306571,605.932859L410.782385,606.902517L410.917740,608.171461L412.528291,609.837235L414.271785,611.359737L417.184237,613.597735L417.397792,614.235259L418.082801,615.178498L419.314769,615.276072L420.387825,614.482457L420.178858,612.960191L419.399134,611.177563L419.832293,610.240644L421.155079,610.299203L421.845545,609.720115L421.533908,608.210504L419.846685,605.724604L421.141228,604.592181L420.586252,603.602885L419.570564,602.691648L418.763088,602.327141Z M666.090183,603.928316L665.334411,602.457323L665.043490,600.693289L664.863486,598.108793L663.432084,596.337861L661.582354,596.904316L661.039348,598.447336L660.824450,600.634702L660.012883,602.958514L660.162724,605.425234L662.291397,607.702937L664.761772,608.893747L666.768462,609.121490L669.583786,608.073853L676.216981,609.642035L677.462038,609.290668L676.263911,608.190982L675.547242,607.768010L674.322752,606.707287L672.439879,604.051979L671.320710,602.131867L670.510904,601.767350L669.563033,601.129430L668.699260,600.009765L667.525192,600.224589L667.021536,602.665612L666.989971,604.403437L666.090183,603.928316Z M448.797561,605.613968L445.928464,604.735364L444.053652,604.715839L443.093954,604.448996L442.596798,603.700515L442.124727,602.756737L442.059280,602.014702L443.506392,600.686779L444.591109,600.537057L444.365397,599.593129L441.984996,597.913478L439.137159,596.728521L436.622371,596.181594L435.497664,596.923849L436.603334,598.505929L438.224800,599.912117L438.653453,601.083863L438.482436,602.079794L437.044022,602.587504L437.199958,603.264430L436.956968,603.707023L436.736708,604.305810L434.465153,605.282055L432.430673,605.418726L432.075370,606.258253L433.317398,607.299477L435.107892,607.833084L436.929237,607.520730L438.301004,606.674749L441.929951,606.043493L442.600190,606.336346L447.127995,608.353662L447.739344,608.991351L447.706490,609.908808L447.266033,610.852249L448.906451,611.385761L450.491373,609.004365L448.797561,605.613968Z M409.595108,597.177771L407.796649,595.374198L405.903028,594.364907L404.750184,594.683979L405.073872,596.806652L404.990830,597.783266L403.905013,597.802798L402.505153,597.457734L401.635949,597.405648L400.523055,599.046281L399.737254,602.821827L398.914386,603.954351L399.332057,604.950138L400.938283,604.917596L404.835901,603.954351L406.120883,604.357878L407.290418,605.099827L408.559417,605.516347L410.220623,604.950138L411.200079,603.628919L411.404902,601.715276L410.874611,599.482459L409.595108,597.177771Z M429.996040,596.389949L430.314015,595.973237L430.046769,594.319325L429.723959,593.629068L428.820172,593.316491L426.568028,593.316491L425.774237,593.876521L426.147454,595.400244L427.409957,596.845718L429.040694,596.897805L429.996040,596.389949Z M660.740364,611.040932L657.517158,610.097500L656.058375,609.316696L654.697793,607.859113L652.895026,605.060777L651.887499,603.954351L653.533774,600.869048L653.834800,598.857485L653.120446,596.754565L651.248927,594.755606L648.836833,593.199273L646.580922,592.587125L645.201941,593.427196L643.791753,595.074672L643.449825,596.083927L644.334301,599.619169L643.767958,600.152981L642.818638,600.341765L642.123626,601.077354L641.835943,603.954351L642.678235,606.765856L644.373203,609.616008L653.026535,621.422285L654.177307,623.451105L654.802603,624.849054L655.497726,626.032360L656.922798,627.469140L658.458539,628.255752L660.720271,628.931823L662.563200,628.873318L662.772687,627.469140L661.797511,624.133836L661.824416,621.441794L663.046791,620.251720L665.711886,621.422285L669.934152,627.878702L672.556428,630.972906L674.582041,630.686907L676.549605,629.555870L679.018265,630.465904L681.441460,631.622890L683.310362,631.245902L683.168064,629.620874L680.674262,626.376936L681.474823,625.785302L681.878107,624.966088L681.184135,623.080470L679.417563,619.783476L678.915914,617.695755L678.923289,615.998104L678.628505,614.397890L677.179793,612.582860L676.134453,612.244556L671.376646,611.502872L668.595679,612.153474L665.895115,613.422087L663.532321,613.870962L660.740364,611.040932Z M753.876349,590.262090L752.456422,588.379716L751.989023,587.441718L750.291123,581.501419L749.581014,579.950548L748.430025,578.621131L745.711044,577.708734L744.380300,579.324951L744.896087,582.244230L747.736408,585.181218L740.753330,590.418404L738.923846,590.203472L740.161516,592.762957L741.953827,595.491403L744.372667,597.880925L747.504713,599.482459L747.931612,600.478469L745.413456,600.309216L743.272590,599.443398L741.063030,598.317128L738.505790,597.405648L737.143203,597.379605L732.644523,598.395253L731.240670,599.124403L729.792360,600.426392L728.779077,602.118849L728.717006,603.954351L730.427342,607.000130L732.946365,609.303682L735.702758,611.359737L738.200142,613.688811L739.561292,611.977813L743.399951,609.889289L744.039221,608.223518L746.309326,609.316696L746.806130,612.133956L747.806903,614.625570L747.626650,616.388381L744.626434,617.051835L744.158484,617.890878L744.872016,619.737951L746.247840,621.578355L747.818586,622.417212L751.016415,620.329760L751.350459,622.670813L752.056165,624.575974L753.369261,625.993351L755.614066,626.877537L752.497280,630.140896L755.290983,629.945889L763.585390,626.994559L764.874684,625.187149L763.255214,623.958279L760.701265,623.054461L758.623378,621.857978L758.477738,619.783476L759.629443,617.129887L759.519954,615.920048L758.973455,613.688811L760.937586,614.768682L763.972765,616.069655L766.619277,616.863208L767.458266,616.466435L766.043832,613.988058L762.789532,610.370774L761.140510,608.223518L763.255457,608.978338L763.934762,607.859113L763.663258,605.848256L763.001718,603.954351L761.717591,601.259619L761.154526,600.947163L760.254886,601.825934L757.985713,602.763246L757.735456,597.327519L757.442284,595.419778L756.571515,593.316491L755.326826,591.766556L753.876349,590.262090Z M406.929831,573.745837L406.138039,573.876208L405.403043,574.547605L405.461782,575.271125L406.101424,575.440594L406.647001,575.336305L407.110195,575.544882L406.461375,576.268365L406.792088,576.620320L407.437757,576.600767L408.048828,576.854953L408.535965,577.552319L409.195949,577.617492L409.755017,577.265555L410.444994,577.630527L412.174057,578.933943L412.994319,579.201133L413.502308,578.829673L413.845329,578.321348L413.217502,576.757190L412.742283,575.935957L412.107358,575.218980L411.233533,574.469385L409.924795,574.136947L408.299644,574.273834L406.929831,573.745837Z M765.392040,583.975944L765.749116,582.791546L764.902747,579.481352L763.220495,575.427558L761.449047,573.406868L759.961989,573.015744L758.518053,573.172194L757.464529,573.960949L757.597240,575.114690L758.838808,576.379166L759.861779,577.708734L760.189352,578.842707L760.896716,579.663818L762.342683,580.706450L764.193023,583.506844L764.814685,584.203975L765.392040,583.975944Z M409.895009,566.606738L408.111915,566.039415L406.677084,566.600217L406.418884,567.891309L409.224573,571.183875L410.298179,572.050936L411.208166,572.429042L411.993740,572.944037L412.611394,573.061375L413.815844,573.172194L414.841456,573.824060L418.457514,574.391165L419.473561,574.664934L419.557320,575.447112L420.127540,576.848436L421.051760,577.793459L422.041588,578.614614L423.723163,578.966527L424.278018,579.468319L424.616571,579.051246L424.476345,577.500181L423.723105,576.274883L422.678613,575.375414L421.681781,573.954430L420.431122,572.846254L419.020543,572.754989L417.564501,572.200876L415.489482,570.714472L415.128574,569.860392L415.392290,569.267079L416.570348,569.188839L417.092723,568.269492L416.319369,567.226211L415.604099,567.460954L414.972079,567.487037L414.395671,566.782801L413.410213,566.378507L412.426790,567.043632L411.474812,567.428351L409.895009,566.606738Z M402.928739,573.485092L403.344347,571.803208L404.215171,570.362413L405.382162,569.775635L402.410064,566.926258L401.134187,565.276439L400.563262,563.672140L400.914070,562.322085L403.936819,559.993525L401.693256,559.452115L399.263418,560.091369L397.535539,561.630719L397.459799,563.809097L397.252250,564.839508L396.103048,565.543810L394.758740,566.065499L394.068116,566.587176L393.999270,568.073881L395.116376,573.159157L395.736450,573.256938L396.194951,573.530723L396.665006,573.882727L397.298595,574.241242L398.467514,574.039170L402.365969,574.971291L402.996458,574.788781L402.928739,573.485092Z M390.249433,484.022104L389.497191,483.590271L389.243506,484.120247L388.594399,484.925008L386.992675,484.656757L386.414621,484.630586L387.018317,485.513844L386.640395,485.729747L385.905113,485.860597L385.710702,486.554092L385.157442,486.959714L384.999353,487.339161L385.831379,487.757856L386.136144,488.019538L385.065015,488.739150L385.245891,489.759660L386.117352,490.819383L386.952926,491.421184L387.639481,491.251111L387.899090,490.858631L388.586573,490.067115L389.437985,488.261591L390.962444,486.181177L390.940452,484.983892L390.249433,484.022104Z M342.475607,345.017924L340.165775,343.987798L339.192346,343.810642L338.750993,342.813314L341.499962,342.813314L339.445591,340.800979L337.574395,339.929230L336.385982,338.771440L336.379843,337.459121L335.330327,335.884323L330.930155,330.935416L330.320865,329.827601L330.967191,329.035059L331.010501,327.852651L330.336110,326.861794L327.367915,324.099339L325.247876,324.942213L323.877631,327.077896L323.397937,328.546010L326.748119,333.048936L328.933932,336.619231L332.052255,342.526213L333.048683,346.396852L334.100854,345.667759L335.348274,347.117520L336.210145,345.017924L337.546264,346.015236L336.616069,349.263009L337.274601,351.670897L339.041751,352.366354L341.300846,350.411190L341.400125,351.839322L340.799385,352.757123L340.546938,353.615497L341.968458,356.027274L343.988200,356.329065L349.663099,356.001031L351.165000,356.578369L349.306664,354.059053L346.343493,351.355971L344.040280,348.372771L343.001830,346.831870L342.780110,346.033386L342.475607,345.017924Z M999.417569,221.909638L999.155268,221.764290L999.161863,222.023390L999.425796,222.151202L999.417569,221.909638Z M255.964290,223.712358L254.487246,222.636789L250.511348,220.971003L249.233549,220.216822L247.624631,218.688813L246.247848,217.974006L245.886340,219.279027L246.144447,221.456306L246.939890,224.092746L247.191632,224.669891L247.816765,224.853529L248.508220,224.341967L248.810993,224.237032L249.523552,225.056843L251.034983,226.512851L252.596037,227.096575L254.021211,226.867020L254.976612,226.375120L255.876075,224.709242L255.964290,223.712358Z M296.884578,222.151477L296.538890,221.161189L296.595550,220.098777L297.781723,219.626600L298.049690,218.957688L296.650244,217.010013L294.897160,216.124727L291.796569,215.868980L290.043622,217.075591L289.641908,218.544540L290.349475,220.629981L291.574226,222.663022L292.663107,223.187688L293.687906,223.082754L295.031807,223.817292L296.346548,223.463139L296.884578,222.151477Z M306.598480,216.124727L306.341828,214.727967L305.867730,214.596817L304.756654,216.183745L302.143982,215.160762L302.007237,215.488640L303.440993,216.557532L305.162665,218.210089L306.951148,220.590632L307.778474,222.518740L306.950190,224.427227L307.972800,225.365094L308.278159,226.453823L307.721954,228.355860L308.060701,229.169160L310.917612,228.795303L315.192590,223.568073L315.206031,222.085894L314.258254,220.708678L313.598029,219.961058L312.596058,219.279027L309.643575,218.255994L307.718743,217.390363L306.598480,216.124727Z M290.413091,180.137818L289.426435,179.497171L288.553588,178.710828L287.802771,178.193561L286.493887,177.671686L285.638413,177.520603L284.888377,177.481287L284.006643,177.179866L283.059808,176.760501L282.197765,176.478743L280.003985,174.988344L278.467038,175.658540L279.227186,179.266466L277.210878,180.639265L274.304735,180.570793L270.285503,181.025055L266.249467,185.086692L264.916858,184.535619L264.247671,184.766686L264.297400,185.959700L265.031291,186.799000L267.070446,188.131973L267.760872,189.005870L267.304257,189.814471L268.866557,190.161535L270.038962,190.593520L270.559521,189.971535L270.771085,189.290296L271.610085,189.390825L272.296661,190.174975L272.335531,190.742476L272.636620,191.074386L273.000333,190.929715L273.240188,190.419235L274.566662,191.060713L276.015439,193.025870L276.591778,193.152504L277.724299,193.017768L279.136353,193.304584L282.882026,189.088915L283.064937,187.512060L284.039464,186.065144L286.482435,184.758089L287.572661,184.118046L288.656343,184.282295L290.687006,183.746069L290.863488,183.162804L291.592584,182.358019L292.168014,182.068283L291.454020,181.223834L290.413091,180.137818Z M856.565140,186.459332L856.638139,183.431498L855.906168,178.877024L854.110566,174.788232L851.093429,173.137101L849.684877,173.451597L847.123860,174.572009L842.858616,175.345176L841.247199,176.878447L841.314280,179.329174L843.559617,182.612314L846.911799,185.148557L851.042825,187.049193L854.666609,187.684940L856.565140,186.459332Z M164.110579,155.732296L164.794365,154.527290L164.389376,152.778792L163.045062,151.842365L161.529431,151.659012L160.584544,151.816172L161.066995,153.204448L162.686012,155.195278L163.521210,156.085947L164.110579,155.732296Z M251.903000,155.025005L252.472040,153.283032L251.505708,151.750688L249.609809,150.362468L247.403733,149.105259L244.938120,147.632025L243.691190,146.728472L242.572438,145.667809L242.165094,145.111301L240.390749,142.165237L239.882869,141.484406L239.336245,140.993430L238.723778,140.725033L238.056872,140.908328L237.606311,141.510591L237.354703,142.335447L237.314774,143.114497L237.980526,146.139210L238.033790,147.415955L237.364037,148.437385L249.336520,155.182180L251.903000,155.025005Z M228.241596,130.383610L225.910264,129.860083L224.303939,130.344345L223.413335,131.862622L223.989630,136.300070L223.959862,136.849885L225.293409,138.597572L226.538991,138.564843L227.647289,137.805538L228.630948,137.347345L234.586521,138.486294L237.361767,138.303012L238.761648,136.352433L238.287720,133.498777L236.456482,132.163668L233.901808,131.797177L231.356599,131.836444L228.241596,130.383610Z M275.105685,160.408617L276.332215,159.419599L275.590298,158.712237L274.058742,156.989737L272.936222,156.125242L272.733200,154.776147L269.616035,148.987398L268.785522,147.795714L266.564657,145.621979L265.761383,144.535162L265.457998,143.566223L265.119316,141.386210L264.662762,140.090054L262.787944,137.504439L260.360105,135.868079L255.211911,133.806384L252.415388,132.039322L249.393550,129.768467L246.631554,128.302642L244.540598,128.904668L243.099581,132.392727L242.056075,132.857394L242.325867,134.591776L246.006943,142.211063L246.335177,143.939392L247.234015,145.255338L255.907672,153.924802L256.983063,154.802342L257.942575,155.293512L258.452852,156.072849L258.137714,157.769109L257.472307,158.391309L253.941939,159.419599L258.237829,162.923853L261.322623,164.089825L268.002062,163.722999L268.360730,163.421679L268.649434,162.878001L269.236831,162.635640L270.496186,163.225168L272.538017,164.679375L273.486580,165.033109L274.431662,164.921748L275.216564,163.801604L275.105685,160.408617Z M25.026895,130.697731L24.916349,129.310389L24.557569,127.661365L24.475219,126.221813L23.829589,125.214167L22.549763,124.690728L21.548191,124.586041L21.127374,125.096392L20.388222,126.522805L18.984184,128.230661L19.175050,129.493619L20.822900,130.815527L21.608777,131.600845L21.684155,131.810266L21.880285,132.235658L22.172535,132.111312L22.526063,131.430691L23.245259,131.129652L24.301426,131.214728L25.026895,130.697731Z M14.704567,103.224730L10.481006,101.904082L4.411346,104.375446L0.574204,103.224730L1.860520,108.913400L7.351460,112.215980L13.002870,112.941945L14.713891,110.901441L13.719341,110.286703L12.070447,110.018576L10.511775,109.397318L9.675706,107.710181L10.215009,107.389767L13.397767,107.108591L16.620232,108.599512L17.821505,107.311299L16.939214,104.957360L14.704567,103.224730Z M436.931995,0.000000L431.414335,3.676696L429.210472,6.383684L429.410911,8.450361L431.066012,11.240747L434.856836,16.715267L437.080567,22.394085L437.810717,27.333921L437.476212,31.778364L436.504739,35.942315L433.016995,42.964201L427.252678,48.165915L419.836548,51.247791L411.320624,51.927190L397.323677,51.156654L389.588316,52.909041L387.588608,52.465753L385.233521,50.899815L382.448772,48.571835L381.040733,47.867692L357.020159,49.996761L350.474338,52.242040L346.729626,52.590038L332.665191,48.965337L317.308820,50.324010L312.969221,49.897344L305.017212,50.775539L297.961741,54.201674L292.104565,59.236216L287.716183,64.939274L287.406626,65.881102L286.753791,67.865967L287.019959,72.117341L287.412535,78.469000L286.418402,80.878877L283.208274,84.662159L282.006868,86.910833L278.742291,103.458368L275.468771,107.485794L272.702166,108.731509L270.417014,108.988963L269.377347,110.106012L270.495447,113.935045L277.896057,127.762104L277.899029,127.759519L279.252146,126.444285L280.450824,126.267616L281.987089,127.465058L281.826644,130.036772L282.745035,133.263166L283.753416,135.100560L283.754366,135.102291L284.503516,136.476795L286.911205,138.996870L288.588165,141.405849L289.537768,144.823231L290.017381,150.532719L299.992302,155.837082L303.596194,158.319264L300.359308,158.129329L294.320161,156.040103L288.796825,152.759146L287.092692,148.987398L286.831936,146.905252L285.602123,143.860830L283.962852,140.895236L282.429376,138.996870L280.159316,137.857903L278.617112,138.185188L277.119913,139.062329L275.057617,139.546730L266.710343,137.033159L265.130189,137.347345L265.636583,139.520546L273.675895,152.746049L277.431564,157.814955L279.476344,161.061728L280.514130,163.233962L282.663457,164.660084L285.053275,166.915764L287.073474,168.785535L289.192473,171.165615L290.484428,172.581121L291.649308,176.476381L293.298505,179.424120L294.738387,181.033048L297.287572,180.745910L297.115573,179.343767L299.090614,179.813357L299.430783,181.153762L298.572362,181.716054L295.344507,182.823200L295.071921,184.985140L296.564035,187.295826L297.619532,190.238878L300.273569,191.352935L303.181137,192.597805L305.098226,194.405641L304.547188,196.962672L304.550473,199.890588L308.980443,202.364614L310.329446,198.372381L317.559596,199.231014L318.438268,200.324236L317.503194,202.029641L316.636406,205.645446L317.790477,207.505150L325.412292,211.745782L330.083993,213.019465L332.775274,213.502792L334.379244,213.590290L335.725756,213.100173L337.834715,213.448127L339.226017,214.676574L341.008071,214.609932L342.391475,214.964037L343.700815,215.619791L344.945056,216.596878L346.164964,217.914986L343.476526,218.328130L340.881967,217.114937L338.962656,216.865744L338.247938,220.105335L339.181175,223.561515L339.236505,225.076518L338.109174,225.607761L336.587802,224.997816L335.333067,223.646774L334.376130,221.902264L333.713443,220.105335L332.150355,221.075933L330.191629,220.531609L327.977690,219.475766L325.648943,218.911782L323.404929,219.554462L321.996696,219.633158L320.711073,218.911782L320.236644,219.685622L319.981904,219.941384L319.472791,220.105335L321.441343,222.112127L323.300895,224.276382L325.004903,226.007836L326.482981,226.709612L329.758799,226.230829L330.424584,226.781757L329.814867,228.913363L328.829867,229.641403L327.291660,230.251388L326.119957,231.176214L326.163222,232.809444L327.581516,235.013376L328.962908,235.387263L332.371823,234.521421L331.667717,237.197691L331.527702,238.640814L332.149064,240.123320L333.375041,240.949862L334.798498,240.995781L336.065610,240.464432L336.836453,239.519819L339.225415,234.547659L340.935694,232.776648L343.325404,231.215568L344.212527,233.183321L345.462127,234.455828L347.034091,235.177362L348.878805,235.518452L350.531723,233.202999L351.902259,232.225675L352.976060,232.809444L354.135815,235.793950L353.893262,236.869712L350.796470,237.814295L347.515559,237.865142L345.674279,238.703474L344.045610,239.689497L343.352777,242.131302L343.083250,244.867186L344.593662,247.629261L345.106244,249.800022L346.400801,251.404495L347.189232,253.230783L354.014893,255.015316L356.245402,254.378916L358.511093,253.867175L360.297863,255.087485L361.246782,254.437964L360.574820,251.623417L359.631288,249.032003L359.166503,246.466897L359.626157,244.977724L361.401763,245.633744L362.378304,249.884866L365.099617,253.020840L368.127409,255.756692L370.073242,258.827224L368.553596,257.961168L367.081527,257.528143L365.653238,257.449411L364.272542,257.639679L365.928168,258.571343L366.586358,258.827224L367.041467,259.831068L359.603845,260.679832L363.317173,264.988200L369.989404,269.489364L376.463579,272.448656L381.061835,273.045770L383.658361,272.061517L384.094358,270.932914L381.422386,265.946162L381.856491,264.299258L388.689363,262.134037L389.197161,264.003999L388.591751,264.568273L387.510142,264.738868L386.143921,265.736197L385.462167,265.709951L384.799049,265.795250L384.391536,266.444830L384.777028,266.779463L386.562703,268.045827L387.132818,268.741348L388.009149,272.652068L387.306763,274.226880L385.754429,275.145527L382.997099,278.295206L378.338606,280.559067L376.112175,280.952784L373.974684,282.133940L376.536180,284.844057L383.241714,289.765641L380.311207,289.424409L377.319431,288.663200L380.222909,292.705499L380.595467,295.002276L380.274672,297.154693L381.134297,300.777065L379.827919,300.284894L378.789630,299.654916L377.863573,298.729636L376.860087,297.371247L378.718036,296.721584L378.445011,295.284453L375.081938,290.264366L373.054370,288.335093L372.202542,287.009545L371.757163,285.736498L371.376526,283.544772L371.071367,282.560470L368.707423,277.953988L367.093196,275.578604L365.558965,274.253127L364.328522,274.495912L363.283865,277.625895L362.181886,278.649548L361.090040,271.680941L359.342093,268.236111L355.324263,265.440934L352.386280,263.968715L348.837353,263.128437L345.924333,262.223636L343.532516,261.937200L341.517526,261.955640L339.812381,262.952078L339.619214,265.198456L339.412346,266.575101L339.470227,267.881785L341.753163,271.838421L342.005957,273.177004L341.970113,274.371238L340.977967,275.355504L340.261490,272.704561L339.421266,271.195379L337.016549,268.741348L336.240026,267.586523L336.842488,266.111595L336.473022,263.931101L334.171392,261.729829L331.789658,260.688875L329.204411,259.355743L327.713912,258.324852L324.447341,256.622714L320.998625,254.779126L318.394166,253.158615L315.862267,252.167951L313.500493,252.233557L314.914632,254.729208L317.817924,258.452363L321.654394,260.953022L324.675864,262.134037L326.730359,262.586762L328.091830,263.623443L328.475748,264.732307L327.573005,265.440934L325.943245,265.434373L324.330997,264.830727L322.786744,263.859650L319.541110,261.287642L317.638250,260.041024L316.433034,259.844191L316.772096,261.582895L317.550695,262.035619L329.329891,270.394862L331.069133,272.035270L333.688478,275.322695L335.177088,276.549752L335.626206,277.547152L333.729427,277.468410L332.261668,276.405392L330.864646,274.791191L329.153025,273.045770L325.769942,270.565464L323.706212,269.502487L323.406696,270.394862L324.562541,274.187509L325.635133,281.891146L326.907196,285.907113L326.820422,286.661753L325.615500,286.110537L324.001034,284.647195L322.627619,282.560470L319.387819,275.355504L319.311110,274.358115L319.865225,272.967029L319.910046,272.547081L319.275200,271.444721L318.207813,270.421109L317.550276,269.292517L316.398581,267.940843L315.110740,267.914597L313.990599,268.708540L313.353720,269.843689L311.347257,267.232203L311.287268,265.401566L311.911345,264.003999L311.975273,262.685181L310.034290,260.552792L307.365791,259.752335L302.585494,259.831068L303.127577,261.031756L304.249536,262.245578L303.974859,262.744232L302.782082,262.527711L301.111829,261.582895L299.513296,260.867727L298.216552,261.103929L297.322117,261.996251L296.913949,263.236327L299.226252,263.059173L301.507977,263.662811L303.101706,265.145672L303.367239,267.645576L300.879030,266.300478L300.488235,266.825393L301.576934,268.321411L303.527956,269.843689L305.523102,270.519533L308.973891,270.578587L310.280194,270.952599L312.506447,273.629762L313.657362,277.251869L313.142710,280.224408L310.321334,280.952784L310.772193,281.956766L313.761763,283.000124L314.874973,283.157613L315.325688,284.161604L313.003198,284.817809L311.885860,285.362460L311.576983,285.907113L311.763984,287.652632L310.105942,286.825806L306.804579,284.161604L306.135005,285.775871L308.707340,289.378474L314.001657,295.166332L309.089296,292.607066L307.460576,292.653002L306.156486,294.661040L305.410859,295.087586L304.334656,294.227933L303.251346,292.757997L302.501010,291.366811L302.802442,290.946832L304.472078,289.424409L304.843915,288.663200L304.449375,288.020111L302.565442,285.644629L301.857868,284.161604L302.028710,282.763892L302.704466,281.425246L302.830555,279.929120L299.295858,275.683593L297.134151,272.153380L295.470385,268.669171L294.862034,266.444830L292.237673,267.369994L293.421216,271.346297L295.942793,276.221661L297.338496,279.850377L297.138401,281.300568L296.534063,281.897708L293.316135,281.956766L291.347705,281.576171L290.539947,280.486885L289.602313,276.549752L286.921199,277.684951L285.479007,279.496033L286.294063,281.740221L290.336818,284.161604L289.717548,287.600135L290.861135,289.608149L293.325751,290.526852L296.772422,290.763091L296.640248,292.679250L295.284111,293.072983L291.066864,291.970533L293.569943,294.451049L295.799095,296.367223L294.576164,296.130982L293.434021,295.789745L292.542741,295.724123L292.138380,296.367223L290.647436,295.054774L289.352679,293.729204L288.160900,292.324892L287.047467,290.763091L287.447514,292.823619L287.444801,294.293556L285.974231,298.506519L286.098529,299.595855L288.104176,303.520099L289.745687,307.562465L290.835233,308.861796L291.754420,307.483718L291.658565,305.620030L290.251116,301.603912L290.060773,299.674603L292.367944,301.052680L294.747578,301.662972L297.195412,302.640753L299.730195,305.173795L300.847429,307.608401L299.886516,308.533682L294.466064,308.481184L294.125435,309.150536L294.987979,310.633608L296.199742,312.136364L296.915877,312.884460L298.908015,313.796611L300.208615,313.704739L301.316482,313.179761L302.686204,312.884460L304.823559,311.946059L306.353739,307.614963L308.173143,306.276258L311.126058,310.679544L311.370406,313.809735L317.993694,320.056937L317.943804,323.994193L318.804949,324.926003L319.586850,326.015297L320.269053,327.216141L320.771965,328.397292L321.168871,326.723992L321.973430,325.345972L323.241167,324.387916L325.068349,323.994193L321.548470,321.034693L320.764411,319.702581L321.664786,318.495145L319.619509,315.837460L315.554214,312.064179L313.224536,309.583645L316.184772,309.537710L316.289372,307.647775L315.457954,305.068798L315.701849,302.968867L317.645115,302.601379L319.794528,304.268199L321.166920,308.357322L322.985238,309.065281L323.610769,312.210775L326.858730,320.921458L330.106487,322.562832L332.686460,322.674422L335.941644,324.547465L336.470294,323.072636L336.255316,319.467506L333.799504,315.244723L333.361508,312.100443L331.978470,309.365272L330.427977,307.962764L329.846601,306.827490L329.751798,305.685653L331.434576,304.806307L332.392035,302.804810L333.074568,301.879528L334.112808,303.296981L335.165387,304.294448L337.807326,306.276258L334.962635,306.758029L334.846263,308.741881L336.682634,311.435474L340.078932,312.017940L342.321460,314.253215L341.134293,315.720341L340.647181,317.609279L343.665304,319.668331L345.359263,319.988854L347.050160,321.389047L347.038634,323.126644L347.709198,325.091266L344.939855,325.002148L342.858704,326.206899L341.102652,326.319109L341.460280,326.994632L342.779075,328.169611L344.669409,330.941300L345.435950,332.419691L345.463174,333.770878L346.728559,335.252643L347.405506,335.379128L348.732844,336.054927L350.335196,337.111823L352.446043,336.212408L353.251614,337.091669L352.851057,339.047026L351.528125,342.216226L352.242049,344.020605L354.352073,347.078153L356.863362,350.056895L358.856928,351.624970L360.761050,351.231313L361.738716,347.058469L363.120259,346.015236L370.760491,346.015236L368.808274,347.367057L364.075432,348.857426L363.168369,352.502957L360.823926,353.314599L359.027139,354.617612L362.585851,358.231638L360.880362,358.231638L361.361056,359.320682L362.824588,360.245703L365.195221,362.115400L366.362720,362.732065L370.691833,362.758305L372.997344,363.296243L374.782928,365.434841L374.307966,367.114196L369.094461,368.518006L367.919264,370.328494L370.388859,371.384593L376.700130,373.076948L378.927059,374.841419L377.564530,376.107353L377.442701,379.419670L377.991580,386.935765L379.302952,388.076879L380.750414,389.139278L381.675512,389.545870L382.453468,388.935981L383.417427,389.139278L385.344980,390.201659L386.993163,391.454197L390.332116,394.641169L384.143516,393.066984L380.752519,394.299626L377.282941,396.543034L378.820350,401.250644L380.075120,402.070218L380.055104,401.027410L379.523007,397.992376L381.907485,397.591227L385.694848,399.475236L386.538791,401.249995L387.367021,401.257259L388.672209,400.255783L391.412678,401.250644L396.655370,406.376517L398.535717,406.921848L400.655554,407.669223L401.950765,408.678817L400.767297,410.147283L402.808397,412.107358L406.280441,414.998166L408.133289,416.748300L409.700334,418.773658L410.557150,420.248380L411.718561,421.369137L414.138162,422.339127L416.356280,421.133190L419.067322,420.641631L421.010971,419.468422L422.304404,417.344774L424.158784,415.529112L426.498676,414.703193L433.152558,412.343349L433.935662,414.670418L432.149687,416.518886L427.073363,418.950627L423.830144,422.601283L421.687016,424.003793L419.148233,423.348420L417.585458,424.613281L411.211104,424.997664L405.092207,425.797892L393.754493,427.071848L396.433183,431.929094L401.816531,431.028407L406.313136,432.364734L407.981907,433.415760L410.036978,437.229890L411.299937,440.001724L417.789066,440.495423L424.324086,440.909011L427.492589,440.751785L435.452010,436.873344L435.726040,436.545756L437.522884,437.115757L439.449558,438.327803L440.646219,439.507055L440.297339,440.031157L438.625923,440.339063L438.351714,441.157951L438.568038,442.343672L438.395943,443.791381L437.477599,444.407133L435.931973,444.538143L428.398250,444.066506L427.321153,444.341628L426.618149,445.232487L426.176505,446.725940L426.426337,448.114537L427.911444,448.730220L430.977748,450.456784L434.668872,452.391636L437.717015,453.631279L439.306690,454.510495L441.663736,455.901513L442.291410,457.793975L442.631015,459.614310L442.652965,460.923845L440.209447,458.514263L437.887835,457.990419L433.993175,455.746087L429.137670,455.178878L424.632404,455.652214L424.136640,456.338220L423.050941,457.277081L421.549802,458.471353L423.068082,463.275366L421.600340,468.381300L417.908458,471.035411L414.952600,473.324026L413.688965,476.160027L412.140481,478.800439L409.719200,480.324519L410.356669,482.055468L411.821137,486.381196L420.048845,490.412826L437.391962,487.378414L439.871152,488.516726L442.263956,491.244570L446.556515,497.248844L444.538440,496.660246L440.858277,493.697448L437.385205,491.075408L435.055691,491.744632L434.348136,494.405978L433.081392,495.943968L429.000008,496.169035L424.543863,497.170332L420.912274,498.701149L419.754795,503.009080L419.740696,511.299524L419.491247,515.998864L420.149489,519.795615L421.522571,521.507561L427.954683,526.420581L428.777399,527.596424L427.633106,527.674811L425.008945,526.969314L422.017487,524.473783L420.906659,523.676727L419.890780,528.073277L419.797197,530.542312L420.412829,533.043747L421.110385,534.153960L421.958901,535.166167L422.620549,536.217510L422.687591,537.432047L422.225297,538.359231L421.656964,539.012155L421.246823,539.860929L421.220453,541.310300L422.334683,541.512683L422.952644,541.832574L423.525766,542.198158L424.435296,542.498455L422.293754,543.079454L419.626297,543.229597L417.452081,543.784465L416.752594,545.592589L420.482209,545.546898L422.108951,545.266223L423.518474,544.600423L424.204160,546.819680L425.419520,548.092389L427.227817,549.071346L427.567517,550.552752L427.314559,551.420666L426.983610,552.079736L427.026607,552.862763L429.005612,555.179053L435.456412,560.208781L438.332405,563.809097L439.573446,564.689514L440.872331,565.276439L443.610394,565.895952L444.687117,566.919738L445.960865,569.775635L446.694142,572.318219L446.543606,579.820217L444.530522,578.380002L442.895657,576.744154L441.937189,574.984327L441.926316,573.159157L440.689542,572.592016L438.437649,572.513789L436.971853,572.063975L434.999129,571.125200L434.296174,570.603639L433.784163,569.697396L432.365058,567.584845L431.841888,567.310980L431.327579,567.539201L430.802423,567.539201L430.142294,566.587176L429.911100,565.661191L429.865492,564.161268L428.964993,561.200234L428.141297,559.660853L426.434977,557.834323L426.927502,561.500270L426.774130,563.339526L425.555174,564.409089L423.430839,561.872047L420.524707,560.652332L417.986985,561.011079L417.020644,563.209087L418.617949,565.869867L423.901847,570.355893L423.391239,572.063975L426.286582,574.501977L428.124210,574.436794L428.164725,572.376890L425.603324,568.778072L428.486053,569.638717L431.694549,571.751055L437.636979,576.933164L440.030559,580.289404L437.891985,583.930338L439.740080,587.370064L436.154174,586.673047L434.641473,586.594876L433.456471,587.370064L434.709559,588.816131L436.027013,590.008078L437.433622,591.004568L438.940414,591.831682L438.492290,592.066133L437.599781,592.925763L439.709545,594.013270L442.330867,594.762118L444.643197,594.599327L445.782491,592.925763L445.108106,591.427899L443.690163,589.591230L442.837755,588.027973L443.846943,587.370064L444.692989,587.011788L445.065288,586.217042L445.622809,585.454837L447.008423,585.181218L450.630258,585.962977L450.452238,587.370064L448.681935,589.070159L447.557067,590.750566L448.409107,593.381611L450.512100,596.513659L453.076679,599.189505L455.260710,600.478469L454.185638,601.975646L454.231076,603.153780L455.590339,605.542379L456.059669,606.785379L456.291511,607.872127L456.231470,609.030393L455.873406,610.500904L454.306776,613.181382L454.029283,614.768682L455.192909,616.466435L456.872141,617.168913L459.322484,616.232271L461.143046,616.263208L460.670130,614.612560L461.564657,614.085638L465.401498,614.866258L466.912866,614.326332L467.645073,613.311493L468.622504,612.778032L470.797386,613.688811L470.605729,614.534498L470.597517,616.199748L470.419067,617.051835L471.507733,617.676242L471.663506,618.046975L474.183521,617.812829L474.775150,615.952571L473.962760,610.500904L474.214097,607.351537L474.348958,607.136789L473.547379,605.692064L471.543258,602.997568L471.144560,601.669711L471.752890,599.677759L473.328663,598.759832L475.372015,599.306687L477.430443,601.669711L478.087279,603.329518L477.919492,604.305810L477.551315,605.086810L477.512766,606.141111L478.214499,607.807054L479.018193,608.900254L479.633695,609.954355L479.770563,611.502872L486.358400,610.891287L489.582045,611.437810L492.493481,613.688811L491.089911,613.617251L490.091304,613.844941L488.482450,614.866258L490.269990,616.895730L487.083731,616.668075L480.284473,614.866258L477.391112,615.666362L476.677795,617.721771L477.600868,620.531361L479.472270,623.607160L478.762215,623.373078L478.290631,623.093475L477.832129,622.768352L477.169515,622.417212L475.304914,622.807367L467.415565,618.378451L463.339453,620.611589L459.153210,620.000436L457.622018,620.754768L456.723483,623.108423L457.761089,624.625812L461.230029,625.627195L464.177778,624.732020L467.597376,626.472763L471.392486,626.220903L474.952395,626.877537L477.820560,628.008720L484.447364,633.520729L488.174762,635.600354L487.706872,636.789546L493.122328,640.259266L495.973107,641.682075L498.950064,642.149828L496.484325,642.855149L492.173887,641.645129L488.312468,639.933700L485.287831,638.533859L483.794866,638.889440L488.080160,642.526621L487.802563,643.231104L486.023362,642.317144L483.633573,640.999532L481.623261,639.616178L478.864454,638.681839L476.676144,637.563310L475.425977,636.485831L473.681251,635.600354L472.967115,634.638553L472.762197,634.021157L472.460468,633.377747L471.938812,631.300922L470.683973,630.023802L464.651557,628.820938L461.192199,629.176535L463.122761,631.969430L463.071276,634.242117L465.145930,638.229026L467.221179,641.210199L468.540098,641.087445L468.437614,638.829076L470.047025,638.511482L471.114006,642.179236L473.494578,643.854662L475.607431,645.847873L478.569377,646.437076L479.516205,646.826784L480.905869,646.605950L480.990900,649.379190L479.533583,649.515569L475.924749,647.586692L468.928831,646.495533L466.876080,645.514741L460.957840,637.881205L459.794465,636.126726L458.886492,634.495579L458.603802,632.896801L459.168585,631.245902L452.626958,625.239163L450.959069,623.334064L449.965524,622.807367L448.812538,622.514752L447.784269,622.417212L446.929079,622.937417L447.259102,624.185853L447.987558,625.668273L448.354581,626.877537L448.458752,630.433404L449.449982,635.548366L451.598420,640.148815L455.172472,642.149828L459.427093,643.877823L460.658429,645.514741L460.022729,646.281192L458.693721,646.261706L457.855654,645.514741L457.708999,646.398105L457.261530,646.612446L457.228501,647.073594L458.349042,648.677795L458.760456,648.840157L462.588312,651.450767L463.561493,651.775447L464.535382,651.561158L465.244900,651.022181L465.376818,650.411756L465.345952,649.385684L466.463248,650.158490L467.654976,651.444273L467.823359,651.950773L471.601670,653.489679L473.341613,654.957058L474.644590,657.489026L476.269399,656.722974L477.702461,656.450305L480.505820,656.398368L481.886895,656.619101L483.031013,656.658053L484.093490,656.398368L483.943119,654.957058L484.035572,653.866272L484.537496,653.139052L485.439816,653.165024L487.586824,654.216888L488.687823,654.229874L489.289713,653.664991L489.863524,652.184538L490.356579,651.950773L492.339315,652.840365L492.920182,654.333759L492.341578,656.034803L490.864740,657.489026L492.289614,657.917483L493.597187,658.579629L494.809090,659.527370L495.925250,660.760671L492.670473,660.838562L489.439092,661.513600L487.613289,663.447728L488.636340,667.296009L490.461082,666.595192L491.135317,667.646409L491.459724,669.612441L492.256688,671.656152L492.050305,671.883219L491.990098,672.668206L492.542491,673.531011L494.122910,673.920235L496.186633,674.153766L497.294144,674.491085L498.165577,675.010027L499.347916,676.638129L499.670254,678.266114L499.207160,681.651427L498.799144,682.040511L498.127165,681.845970L497.710755,681.930272L498.494992,684.439716L498.533079,685.075139L498.216561,685.995822L498.628257,686.987784L502.006257,686.812735L503.809715,687.143382L505.441576,688.174192L506.439415,689.982861L506.781157,693.813658L507.743043,695.693174L509.398768,696.004252L514.656674,694.008097L518.167141,694.695105L517.403483,692.854397L517.032038,691.311720L515.773908,680.548986L515.871562,679.517831L516.828485,678.279085L520.330081,677.293229L521.072795,676.599212L521.093303,675.023000L520.620202,673.835903L520.669348,673.102856L522.302044,672.843364L523.019810,673.018522L524.553106,673.758059L525.426666,673.920235L525.710501,673.569933L525.536426,672.791466L525.082900,672.012971L524.482801,671.656152L522.191740,670.877618L523.365714,669.132304L527.205075,666.205839L522.686755,662.461214L521.346840,660.514017L524.851210,659.157367L524.246409,657.813616L522.604894,655.891973L521.144318,653.684470L520.948818,652.165057L521.331938,650.437732L522.205381,649.086945L523.462351,648.677795L525.436527,649.801314L527.206663,651.950773L528.395288,654.405179L528.498968,656.398368L530.312617,659.527370L533.140978,667.607476L535.448191,670.663516L536.901110,671.364205L542.590373,672.843364L547.383345,675.470578L549.316691,676.008956L547.798348,674.147279L547.019020,672.434659L546.914222,670.871130L547.492084,669.476187L551.737524,671.227961L552.515196,670.131497L549.522652,663.538589L553.816750,656.398368L551.957872,654.320773L551.856927,652.619593L552.482238,651.191019L552.801901,649.879244L552.266783,648.015346L551.463521,646.255211L551.135400,644.936638L551.918565,644.423476L553.351956,644.001246L554.617729,643.026835L556.394227,641.045396L560.042753,638.232083L560.728375,637.335383L561.790505,634.196629L562.681395,632.870804L564.007996,632.324851L567.601947,633.007289L569.247835,633.091780L570.824753,632.324851L571.723008,630.075894L571.507154,623.256035L572.138563,620.329760L577.601351,625.564247L580.821308,627.547153L583.184624,626.331427L584.864323,624.387417L586.341954,625.674775L588.252955,628.522282L591.238330,631.245902L590.909948,632.909799L590.734481,636.770052L590.343980,637.881205L588.624414,638.641434L586.902448,638.147613L585.161712,636.692074L583.487917,634.606059L583.544457,633.085281L582.792685,631.837381L581.479677,630.862407L579.801265,630.140896L577.768857,634.333107L577.594351,635.600354L578.730827,638.017658L580.034552,639.252196L581.497803,640.304745L583.047711,642.149828L585.075056,646.865754L584.261653,649.528558L581.522969,650.703983L577.762961,650.957243L577.736279,646.294182L577.293283,643.708927L576.301367,641.045396L574.773040,641.980918L574.325534,643.163255L574.130231,646.605950L572.943253,650.119525L572.349968,650.957243L570.145780,652.691020L569.880258,654.054567L571.024678,656.398368L573.210297,658.689984L575.371986,659.618248L577.614022,660.020699L580.072812,660.760671L579.430086,660.124556L578.217666,658.488747L582.304752,655.762126L583.674820,655.418028L590.869225,660.760671L594.326222,664.569532L602.696542,671.674124L606.342931,671.656152L603.889193,669.826553L602.324608,667.045321L604.922511,664.168975L607.805110,665.273954L608.707405,662.124973L612.562168,656.398368L608.836729,654.068119L604.368416,655.372666L602.940287,654.634104L600.919966,654.229874L597.948639,650.918280L597.424134,650.411756L597.673055,649.190854L598.936164,647.904936L600.652423,646.930704L602.223184,646.605950L604.418743,647.229473L611.991553,650.957243L613.451810,650.548129L616.081352,650.671513L616.955783,649.520529L617.655745,648.315789L615.880421,644.989372L614.402816,643.221721L607.815636,641.045396L608.710325,640.824503L611.035071,640.837497L612.475668,641.045396L607.946787,637.003984L602.710618,634.365601L597.461811,630.959906L592.940300,624.601982L593.123826,624.172849L593.755230,623.990790L593.797871,623.431599L592.220757,621.910000L590.661453,621.344249L588.602989,622.339181L587.088465,621.422285L586.650114,619.243680L588.811811,617.656730L593.658934,615.874515L593.231985,614.866258L590.084288,614.046606L586.054763,612.563342L583.713135,611.138526L585.588883,610.500904L591.346727,610.644045L593.826757,610.318723L597.651774,608.737579L598.294563,608.659495L598.612688,608.347155L598.968237,607.136789L598.800773,601.435374L599.099226,601.077354L599.106789,600.413372L599.803925,600.615173L600.713988,601.318204L601.385162,602.216486L601.604747,603.036621L601.688732,604.598689L601.971331,605.542379L602.977520,607.104252L606.750851,611.294675L606.623956,611.906247L606.806919,612.869112L607.218824,613.688811L608.154951,614.378374L608.977164,614.495467L609.725823,614.514983L610.421983,614.866258L614.424733,619.373753L616.123557,620.876030L617.878109,623.574649L617.965007,626.721507L617.655434,630.049893L618.279015,633.429740L620.433118,637.003984L622.942960,639.362651L625.840235,640.655583L629.161588,641.045396L632.274257,643.306171L633.956053,644.059709L633.997974,642.734503L630.017914,635.600354L628.294324,633.351750L626.373198,631.245902L626.956535,631.076905L627.015296,630.784407L627.189272,630.738907L628.176638,631.245902L628.357746,625.967345L631.563005,626.591481L636.010277,628.424772L639.991933,626.877537L640.304305,625.031106L638.433184,617.051835L637.822538,612.530813L637.300760,610.292696L636.109416,607.136789L634.192736,608.457776L631.878889,608.314619L629.265861,607.846098L626.593916,608.223518L624.130940,612.049379L622.925583,613.077292L621.259825,612.413709L618.967283,610.500904L616.306122,609.160531L612.613377,605.971906L609.021302,602.314123L606.595025,599.482459L605.307181,596.806652L604.652249,593.603020L605.219015,591.558152L607.627355,592.378730L612.265757,597.431691L614.972814,599.130914L617.216661,597.900457L620.513145,593.928616L621.136591,592.522002L621.231999,591.512564L620.928882,588.562100L620.281105,587.721820L619.239215,585.806628L619.067842,584.575333L621.091029,585.774055L622.524323,587.324466L623.365441,588.542559L624.420325,589.356750L626.328164,589.656364L631.646244,589.604257L632.617636,589.845248L634.148604,590.216499L636.799941,591.831682L637.282031,591.076210L638.272241,590.958978L639.663070,591.278106L641.304060,591.831682L644.688181,591.519076L646.393384,589.057131L646.067175,584.979258L644.246401,579.820217L646.213513,580.960583L647.721147,582.530921L650.748063,586.373388L653.238963,584.223520L656.842827,584.301701L658.009630,583.194105L653.170747,577.526250L656.216019,577.252520L657.385324,575.101654L657.850067,572.233471L658.854359,569.775635L659.534916,571.738016L659.615486,573.276494L659.442934,574.449830L659.436799,575.336305L660.040314,577.246003L665.331627,589.109239L665.576444,590.183933L665.758830,591.388822L666.231424,592.645736L667.390646,593.928616L668.737634,594.521188L671.951141,594.788164L674.035800,595.224436L675.391082,594.957465L676.069165,595.113741L676.472831,595.732322L677.506027,598.076241L678.154597,598.942118L681.140516,600.283177L687.148517,600.009765L690.137556,600.478469L689.060884,598.108793L688.280000,595.654186L688.182460,593.720235L689.161811,592.925763L692.284843,593.231834L694.141705,594.163042L698.528500,597.900457L701.501814,597.705139L701.885545,593.537900L703.132308,591.414873L708.688605,597.405648L706.154494,598.577543L705.164923,599.423868L705.995285,600.738856L709.001650,603.355553L710.996567,604.032453L719.573907,604.950138L719.378514,606.023970L718.378429,606.219206L715.851173,606.253805L716.828594,608.700325L720.902817,608.964919L723.475809,608.080360L724.953999,603.759093L725.384636,600.478469L722.712363,598.395253L722.979137,599.970706L722.613377,601.246600L721.619208,601.630655L719.914152,600.478469L718.096851,593.928616L716.839761,590.594255L716.283183,589.395830L715.797083,588.562100L714.320559,587.194184L712.834238,586.503675L711.898989,585.747996L712.118287,584.184429L714.124945,584.888050L716.748588,585.005318L719.137410,584.575333L720.418108,583.637151L720.563796,581.507935L719.506561,579.670335L717.825741,577.604458L716.165454,574.788781L714.000240,574.938700L703.845479,581.898892L703.378649,580.810710L704.162318,579.364051L703.474057,577.161276L703.278970,575.134245L707.851548,573.726281L711.389006,571.457688L713.622547,570.968733L711.180690,568.830233L710.609620,567.702215L711.546719,567.115360L715.552170,566.287213L717.598906,566.411111L725.779919,568.908475L726.994640,569.638717L728.831983,570.968733L729.714831,571.998784L730.239272,573.067894L731.000545,573.915319L732.545015,574.241242L735.211317,574.234724L736.237136,573.928356L737.063683,573.159157L736.024488,572.911442L734.092123,572.207395L732.990662,572.063975L732.694387,569.932111L731.732561,568.445540L728.262845,565.491640L726.305654,563.561269L725.118104,562.074239L722.357336,557.834323L719.185370,554.356961L718.476721,552.640908L719.005475,550.069838L719.923826,548.699347L720.886884,549.143135L724.025548,553.358666L724.026842,554.552700L726.507972,557.769087L726.905926,560.032663L729.096714,558.975923L731.524499,560.430558L734.166176,562.778635L736.959029,564.409089L735.965083,561.930749L736.282746,560.456649L737.208000,559.993525L738.005044,560.574059L741.028960,567.584845L742.382586,566.026373L744.036741,566.208962L746.627985,568.890700L750.287946,570.267945L751.336437,569.639705L750.615304,565.192929L752.170898,566.754448L753.938372,569.697394L762.550525,569.558011L765.976291,569.932683L765.248825,566.091583L765.293780,563.551211L766.225912,563.678700L767.424273,566.743001L768.954076,569.994552L770.720931,569.869027L771.688559,562.802794L772.125438,561.052040L772.996577,561.614827L773.807353,563.927978L774.584732,568.055190L775.548045,571.306096L778.170514,574.914880L779.515689,575.994258L780.452904,575.192908L781.413378,574.290648L782.088871,574.545319L782.997343,575.623615L784.003476,575.625639L782.283312,572.368619L781.499577,570.855059L783.803884,572.552334L785.115316,574.126686L785.859935,573.377618L785.013580,570.250342L785.316477,567.312830L787.173725,563.624658L788.818495,564.943675L790.778074,566.134860L794.057820,568.203499L796.412890,566.830268L796.166287,564.698365L795.182393,562.826778L793.455099,561.265187L792.606323,559.012956L794.099579,558.828637L795.252983,558.186595L796.647696,558.264877L798.368926,557.962612L799.900513,558.028481L801.952498,558.069172L802.066411,556.285602L802.192834,553.660221L803.314526,550.849144L803.480524,546.408292L803.662426,543.399323L803.227937,542.498455L801.533252,540.310404L801.849628,538.995664L801.960169,537.460452L800.899226,534.501358L800.565286,532.199973L803.709418,532.315127L805.792307,528.704042L807.672446,527.174337L809.992558,526.289928L809.220613,524.108204L807.956091,523.225828L806.185244,521.683504L806.437338,519.708457L806.800123,517.733410L804.916656,514.651919L803.442004,511.665567L802.745981,510.515129L803.337003,509.469232L804.785831,509.331955L805.913846,508.828600L805.546932,506.671256L804.429554,504.389512L803.047654,502.408359L801.384320,501.054815L799.406238,500.642853L799.120865,497.503899L801.156857,497.974765L804.071283,500.740940L806.458379,504.428742L808.565496,507.259640L810.086107,506.187464L810.975108,503.284530L811.153898,500.642853L809.303041,494.405127L807.759810,490.254178L806.717375,486.751850L805.157792,485.204005L803.313661,483.765031L800.956667,480.895163L800.963558,478.368302L801.304510,473.314698L800.196486,462.914244L797.360208,456.927519L796.522220,447.354368L793.033686,436.332510L791.531181,432.142186L792.095452,422.786950L792.721206,419.599508L790.607209,416.394346L788.393190,413.516730L786.676589,410.750391L783.745948,409.037287L783.336314,411.707483L779.047258,420.779268L776.847549,423.404961L773.984353,422.950696L770.754861,420.404969L767.781254,418.190544L763.879489,415.641049L763.017238,413.436011L764.402688,411.641929L765.507009,411.222384L766.580632,410.566837L767.004978,409.150829L766.371182,406.633385L765.262403,405.728650L763.877583,404.994361L761.029881,400.798234L757.818399,395.316576L756.749979,394.503464L755.610697,393.913295L754.152359,392.444406L752.519676,389.801629L744.321561,370.321934L743.578499,367.133875L743.923237,364.398349L745.780566,359.537177L745.243480,356.578369L739.823460,342.813314L736.085366,336.146791L731.290845,329.532504L727.735888,323.193622L727.581441,322.924577L726.953953,316.290252L727.351046,310.699230L725.899682,304.543815L722.501794,297.889666L711.923778,284.299406L707.650484,277.645580L699.857095,263.236327L696.578611,258.190803L695.909370,256.629292L695.870031,254.890660L696.258465,253.112690L696.160500,251.249462L694.756287,249.320663L683.793103,240.123320L678.216053,233.406336L670.743708,221.200538L666.127253,215.613234L656.644983,208.800296L654.576192,206.308757L652.894520,203.738654L650.526191,201.312903L644.893502,196.907500L633.577143,185.450032L631.051584,183.713301L628.450055,182.514013L625.425386,179.696139L615.878648,167.535542L613.266395,164.836590L607.464167,162.321229L605.070768,158.967672L603.164338,155.011907L601.255087,151.724495L590.795533,143.939392L588.820214,142.793709L573.529046,131.862622L559.391796,119.888598L523.202423,89.655289L519.139996,84.937735L511.762748,79.319664L509.087854,76.805020L488.938126,53.702703L466.747499,31.726548L459.894652,24.037298L456.198877,18.962769L444.457136,7.398766L444.456526,7.398165L436.931995,0.000000Z "/></g></svg>