<?xml version="1.0" encoding="utf-8"?><!DOCTYPE svg  PUBLIC '-//W3C//DTD SVG 1.1//EN'  'http://www.w3.org/Graphics/SVG/1.1/DTD/svg11.dtd'><svg enable_background="new 0 0 1000 329" height="329px" pretty_print="False" style="stroke-linejoin: round; stroke:#000; fill: none;" version="1.1" viewBox="0 0 1000 329" width="1000px" xmlns="http://www.w3.org/2000/svg" xmlns:xlink="http://www.w3.org/1999/xlink"><defs><style type="text/css"><![CDATA[path { fill-rule: evenodd; }]]></style></defs><metadata><views><view h="329.88637754" padding="0" w="1000"><proj flip="auto" id="robinson" lon0="-81.2661808058"/><bbox h="8.28" w="25.18" x="-1185.82" y="-331.44"/></view></views></metadata><g class="" fill="#000" id="country"><path d="M59.906715,327.886378L75.582379,324.222900L108.090094,306.489113L175.941587,305.775872L165.771583,278.154088L77.997791,267.682489L69.585324,281.752692L45.126741,289.630726L28.049352,276.760035L18.520734,252.834255L1.520282,259.577552L2.119981,323.542077L59.906715,327.886378Z M858.201594,38.188452L860.591086,37.021397L851.668144,30.829531L837.542964,31.510312L807.282087,37.021397L797.719199,39.582434L786.969570,46.228168L777.161687,55.143192L770.408993,64.641765L788.485624,66.262684L834.029251,39.096161L852.128289,41.948962L858.201594,38.188452Z M985.276904,0.000000L974.433984,0.064836L963.488719,5.057195L950.233734,14.361153L899.724200,41.948962L920.094046,45.839149L948.194296,35.724671L997.991043,9.855053L998.479718,5.705554L985.276904,0.000000Z "/></g></svg>