<?xml version="1.0" encoding="utf-8"?><!DOCTYPE svg  PUBLIC '-//W3C//DTD SVG 1.1//EN'  'http://www.w3.org/Graphics/SVG/1.1/DTD/svg11.dtd'><svg enable_background="new 0 0 1000 327" height="327px" pretty_print="False" style="stroke-linejoin: round; stroke:#000; fill: none;" version="1.1" viewBox="0 0 1000 327" width="1000px" xmlns="http://www.w3.org/2000/svg" xmlns:xlink="http://www.w3.org/1999/xlink"><defs><style type="text/css"><![CDATA[path { fill-rule: evenodd; }]]></style></defs><metadata><views><view h="327.751040417" padding="0" w="1000"><proj flip="auto" id="robinson" lon0="-81.1810807601"/><bbox h="8.28" w="25.34" x="-1185.79" y="-331.31"/></view></views></metadata><g class="" fill="black" id="country"><path d="M9.806461,325.751040L17.213648,320.195545L27.581754,319.001839L37.021591,319.683516L73.583453,325.108219L79.347234,324.302863L90.489249,315.700911L100.093317,309.012850L111.224844,306.745006L123.714499,304.473904L137.563058,302.198249L156.588644,308.018399L173.239843,304.999541L185.903486,295.361073L186.231284,278.558812L181.431913,270.693240L171.529850,267.096020L161.062273,265.700085L148.645380,265.592705L117.124823,270.210031L106.090042,267.901368L86.286099,258.183517L76.058721,256.733895L78.267771,264.787358L79.553762,267.686608L81.887484,270.210031L78.891309,272.840835L78.842884,274.612602L80.044178,276.464904L80.809976,279.229936L77.825519,274.344152L79.971000,278.639347L80.560448,280.733255L80.274507,283.713050L72.107100,281.216465L69.056151,279.229936L63.704311,288.303548L61.509347,295.936402L50.117024,300.425405L34.470391,300.515147L27.664856,288.751131L31.235211,275.451849L27.913684,262.930852L23.740401,251.890197L26.421083,243.204106L16.331521,239.392777L7.821491,242.393393L3.823701,247.581192L1.530217,255.710001L7.150201,260.102448L15.152265,267.431812L16.858300,276.273728L15.754373,285.871112L12.438332,296.957965L9.547169,304.353904L6.995841,308.796804L4.626596,318.960666L9.806461,325.751040Z M859.868151,34.785850L850.998053,28.584990L834.320944,35.412830L817.663410,35.357231L803.507469,37.569758L791.213265,47.302088L780.762889,53.287053L770.979100,65.291653L790.773510,68.352557L836.015116,44.438296L851.457244,39.698226L857.497644,35.913280L859.868151,34.785850Z M989.038378,0.000000L975.431337,3.690610L954.500067,16.363404L912.757553,34.960867L898.291994,51.429430L921.364099,44.011669L969.566000,29.202998L998.469783,13.568423L996.846678,3.647418L989.038378,0.000000Z "/></g></svg>