<?xml version="1.0" encoding="utf-8"?><!DOCTYPE svg  PUBLIC '-//W3C//DTD SVG 1.1//EN'  'http://www.w3.org/Graphics/SVG/1.1/DTD/svg11.dtd'><svg enable_background="new 0 0 1000 458" height="458px" pretty_print="False" style="stroke-linejoin: round; stroke:#000; fill: none;" version="1.1" viewBox="0 0 1000 458" width="1000px" xmlns="http://www.w3.org/2000/svg" xmlns:xlink="http://www.w3.org/1999/xlink"><defs><style type="text/css"><![CDATA[path { fill-rule: evenodd; }]]></style></defs><metadata><views><view h="458.628326005" padding="0" w="1000"><proj flip="auto" id="robinson" lon0="66.3241329286"/><bbox h="240.72" w="526.02" x="603.7" y="-922.24"/></view></views></metadata><g class="" fill="#000" id="country"><path d="M132.087904,322.225139L131.573210,321.793310L131.272111,321.346375L131.078443,321.358930L131.157006,321.851057L131.659515,322.399617L132.976529,323.066091L133.240891,323.455139L133.203838,323.761336L133.329744,323.947053L133.601538,324.026106L133.647783,324.213068L133.517100,324.530511L133.670102,324.726236L134.031665,324.662250L134.328546,324.477814L134.642165,324.402532L135.203550,324.507927L135.086843,324.334778L134.611019,323.854196L134.364208,323.553024L134.278523,323.190339L134.049091,322.503799L133.801300,322.173673L133.609030,322.142291L133.465639,321.985378L133.339825,321.766947L133.191674,321.748116L133.087515,321.940186L132.909540,322.173673L132.578722,322.328069L132.087904,322.225139Z M116.289750,322.474930L115.969051,322.068229L115.763640,321.571103L115.725868,321.088992L115.893222,320.314653L115.870880,319.887674L116.070599,319.145389L117.366526,318.413037L117.267692,317.875320L116.178088,318.135391L115.829016,318.316302L115.634053,318.566300L114.907155,321.328798L115.064990,321.984123L115.704175,322.738514L116.859680,323.583142L117.218658,324.003520L117.496135,324.526747L117.615557,324.873026L117.799866,325.149028L118.267822,325.477703L119.176810,325.881618L119.991807,325.959387L120.584333,325.580566L120.825832,324.614573L120.465634,324.709926L119.779708,325.268206L119.401569,325.256916L119.108576,325.098847L118.841975,324.914427L118.545360,324.825351L117.905124,324.605791L117.481626,324.047438L117.209646,323.303289L117.016386,322.528903L116.661798,322.671991L116.289750,322.474930Z M123.143174,317.720778L123.022178,317.686853L122.903938,317.797421L122.712115,317.875320L122.231966,317.855217L122.111958,317.875320L121.977583,317.870294L121.695588,317.923064L121.450411,318.134135L121.430265,318.602731L121.500092,319.296116L121.493135,320.035865L121.582122,320.773836L121.946766,321.458113L122.440066,321.714220L122.988530,321.593701L123.390281,321.168092L123.445568,320.508887L122.981151,319.319981L123.022752,319.139108L123.193586,319.017267L123.290246,318.727095L123.366231,318.086394L123.143174,317.720778Z M179.841476,307.820126L179.683765,307.193162L179.466116,306.698339L179.165180,306.134213L178.903993,305.660706L178.313871,304.767737L177.722240,304.224836L177.198148,304.093826L176.290491,304.035879L176.197707,304.159331L176.324834,304.367179L176.276857,304.609029L176.062032,304.821899L175.715414,305.086401L175.479140,305.557436L175.885900,306.232435L176.759620,306.966531L177.928982,307.665280L179.269558,308.075676L179.841476,307.820126Z M101.300143,282.638812L101.447372,281.231118L101.197704,280.515816L100.584009,279.643732L100.219593,279.254428L99.635349,278.863845L98.441222,278.291214L97.696843,278.313968L97.863887,278.892918L99.703742,281.698688L100.258453,282.431589L100.932581,282.856138L101.300143,282.638812Z M623.446753,456.628326L623.466089,456.548988L623.485421,456.469652L623.598978,456.320703L623.715187,456.171763L623.912823,456.181477L624.110459,456.191190L624.178065,456.081109L624.237659,455.971034L624.269597,455.835065L624.301525,455.699104L624.399135,455.623035L624.498552,455.548586L624.653783,455.572862L624.810349,455.597139L625.396338,455.833446L625.979679,456.069778L626.340863,456.118342L626.698428,456.163669L626.926126,456.013121L627.157803,455.862582L627.178438,455.657023L627.195050,455.451482L626.908394,455.330108L626.625266,455.207122L626.798459,454.733037L626.971893,454.255812L626.964747,454.150674L626.960262,454.045540L626.797800,453.870866L626.635813,453.697823L626.490255,453.503769L626.348316,453.312966L626.243490,453.112477L626.135986,452.912004L626.091242,452.716397L626.044297,452.522423L625.700527,452.451303L625.351430,452.380185L625.206905,452.315534L625.065049,452.250885L624.921427,452.126440L624.777324,452.000385L624.605562,451.709514L624.433188,451.412215L623.911750,450.103878L623.393740,448.796226L623.367218,448.555756L623.346000,448.315309L623.393462,448.237854L623.442619,448.157175L623.505187,448.099087L623.573564,448.042615L623.605743,447.865137L623.634392,447.689285L623.606809,447.539255L623.577401,447.387621L623.437947,447.037607L623.301599,446.689253L623.253024,446.518318L623.206618,446.345782L623.270411,446.376419L623.339049,446.405443L623.471974,446.448980L623.607563,446.492518L623.674141,446.527993L623.742899,446.561857L623.773800,446.194218L623.805602,445.829856L624.094719,445.604170L624.386454,445.378503L624.875635,445.155177L625.081939,445.060990L625.778149,444.741905L625.951613,444.447026L626.120665,444.155402L626.216430,442.907095L626.313255,441.660972L626.552549,441.295614L626.799736,440.930304L627.577989,440.574696L628.352097,440.219134L628.518634,439.712414L628.686004,439.209002L628.786573,439.006376L628.894256,438.805372L629.134447,438.724974L629.376449,438.646187L629.907004,438.580264L630.441536,438.514343L630.839260,438.305336L631.240579,438.099558L631.600277,437.823068L631.954096,437.544997L632.113026,437.347309L632.274586,437.149635L632.321020,436.971258L632.369604,436.791284L632.115190,435.311742L631.863069,433.834536L631.773867,433.579310L631.684149,433.322499L631.590578,433.139535L631.500151,432.958186L631.445635,432.902018L631.392448,432.845852L631.320288,432.805733L631.243649,432.764011L631.081525,432.626009L630.921224,432.489618L630.848430,432.361255L630.772975,432.232898L630.799114,432.123798L630.823918,432.014703L630.904960,431.932883L630.986986,431.854275L631.498621,431.587982L632.010672,431.323316L632.231125,431.254347L632.452067,431.186982L632.718793,431.271990L632.983362,431.358604L633.013834,431.036219L633.044255,430.713867L633.270832,430.433239L633.499512,430.151032L634.072831,429.747006L634.649150,429.344634L634.846026,429.302956L635.039911,429.264486L635.460369,429.391120L635.878514,429.514554L636.059621,429.490508L636.238900,429.464859L636.644549,429.176325L637.050950,428.886214L637.225872,428.838132L637.406101,428.790050L638.208200,428.918269L639.015140,429.044890L639.138407,428.963147L639.265820,428.886214L639.199953,428.725943L639.134079,428.565679L638.807093,428.206717L638.483745,427.850998L638.387632,427.687573L638.287030,427.522553L638.329123,427.117248L638.367155,426.711992L638.639035,426.486159L638.908217,426.260341L639.573388,426.048951L640.238991,425.839174L641.254027,424.907346L642.264687,423.972566L642.508217,423.586881L642.755628,423.201238L642.923227,423.046833L643.094281,422.890834L644.687789,422.454873L646.281220,422.019764L647.695244,421.970178L649.110001,421.922992L649.580705,421.717458L650.046051,421.511936L650.305159,421.095330L650.564661,420.680369L650.663790,420.441328L650.762886,420.202302L650.915280,420.056016L651.068164,419.911334L651.709139,419.671542L652.351052,419.434963L653.189422,418.725311L654.030317,418.012594L654.242903,417.669865L654.459897,417.328763L654.897514,415.971834L655.329593,414.617752L655.459658,414.445330L655.588891,414.274511L655.770492,414.159572L655.956822,414.047030L656.165794,413.972003L656.372367,413.897777L656.552433,413.798810L656.729584,413.699047L656.839572,413.534643L656.947704,413.368649L656.957529,413.098923L656.960187,412.827618L657.075318,412.198893L657.189224,411.567068L657.596820,411.140318L658.010895,410.713608L659.104273,410.227128L660.193648,409.741497L660.392420,409.774988L660.593324,409.806883L660.877995,409.958390L661.159250,410.107510L661.431841,410.315648L661.702336,410.521402L661.863812,410.721583L662.022087,410.924166L662.205862,411.213700L662.389361,411.502454L662.646545,411.683534L662.899501,411.863823L663.202137,411.960353L663.501065,412.057682L663.816121,412.094380L664.134603,412.133473L664.475718,411.960353L664.822612,411.788835L664.946355,411.333347L665.071830,410.879501L665.125727,410.315648L665.175507,409.751863L665.309947,409.249539L665.446641,408.746472L665.681162,408.361434L665.911620,407.976428L665.979272,407.769988L666.050869,407.563557L666.060211,407.275843L666.070297,406.990537L666.182642,406.767404L666.293094,406.546672L666.596294,406.535516L666.896847,406.524360L667.540447,406.672575L668.181167,406.819999L668.644423,406.756248L669.107928,406.693294L669.517159,406.472565L669.925554,406.249455L670.584828,405.613647L671.244041,404.978715L670.445522,404.817804L669.829333,404.563701L668.516092,403.655725L668.224089,403.193035L668.378032,402.716051L668.820017,402.191471L669.032050,401.939748L669.560439,401.032208L669.624722,400.674008L669.490719,400.459895L669.279804,400.252952L669.122525,399.920268L669.084611,399.324986L669.177855,398.719418L669.373816,398.201430L669.653661,397.873632L671.102065,398.575395L671.529929,398.611201L671.823040,398.439333L671.963311,398.133005L671.897042,397.769409L671.566900,397.422541L671.561618,397.422541L671.557923,397.419358L671.556869,397.416176L670.433952,396.712951L670.080028,396.417842L669.454438,395.263783L670.237606,394.740504L672.339790,394.430373L672.620045,394.063005L672.603746,393.605809L672.157009,392.391795L672.006628,391.743130L672.121614,391.435510L672.987572,391.149363L673.319640,390.903762L673.505435,390.512723L673.756174,389.614677L674.125027,389.416802L674.745211,389.575738L675.437191,389.830835L676.012133,389.925406L676.405801,389.746597L676.685187,389.400114L676.876082,388.963058L676.995355,388.509338L677.324227,388.146221L677.935238,388.124768L679.290905,388.495036L679.657166,388.329764L679.918865,388.308311L680.217596,388.428291L681.481386,389.191119L681.838402,389.303960L682.253899,389.230057L684.518519,387.625804L685.275237,387.384277L687.040299,387.303240L687.829491,387.018027L688.220136,386.941759L688.667664,387.095883L689.145810,387.332636L689.622692,387.495506L691.312974,387.847474L694.759749,389.305549L695.651184,389.516137L696.020835,389.470840L696.650385,389.157744L697.008288,389.062387L700.322661,389.186351L702.213231,389.791100L705.848407,391.600844L706.795130,391.755054L708.626303,391.732796L712.517403,392.514221L713.444354,392.903771L714.255876,393.511988L715.636904,394.971124L716.470536,395.504759L717.456421,395.865046L718.393378,396.081387L719.271749,396.110021L722.381316,395.620876L723.527906,395.654280L724.611131,396.012189L725.242873,396.362163L725.734491,396.580111L726.226414,396.690679L728.093331,396.806816L728.748814,397.001710L729.277613,397.412994L729.517054,398.353400L729.770562,399.018613L730.207214,399.415707L732.662226,399.773830L734.370608,400.327769L735.051141,400.208381L734.872360,399.654453L734.854450,399.635014L731.922816,396.454432L731.198924,395.490443L730.652563,394.459795L730.322947,393.300498L730.232778,392.209750L730.651636,389.499448L730.872799,388.170852L730.799452,387.699693L730.534714,387.140373L729.865373,386.113187L729.622944,385.596060L729.529970,385.069428L729.584668,384.627015L729.822765,383.802603L729.922208,381.309084L730.052666,380.859670L730.341888,380.541278L731.333935,379.921191L735.138833,378.315123L735.550488,378.235737L736.618797,378.273049L737.411295,377.816586L737.519197,375.704320L738.103894,375.175696L738.670820,375.336822L739.863069,376.116276L740.379340,376.252803L744.237347,375.824969L744.583968,375.614628L744.497410,375.175696L744.042787,374.647880L743.049196,373.800225L743.914688,374.166110L745.580435,375.211414L746.393891,375.474137L747.295853,375.644790L748.142383,375.971019L749.802335,376.938627L750.396345,377.175180L751.504595,377.273612L752.597423,377.811823L753.731364,378.064265L754.298305,378.305597L754.790529,378.700151L755.773673,379.679038L756.269147,380.052987L759.516811,381.844273L760.511487,382.147610L763.573126,382.583571L766.093705,383.535755L767.015422,384.100432L767.852203,384.410184L769.551576,384.834319L770.402183,385.212402L771.160852,385.635777L772.995175,386.461925L773.708027,386.599359L775.399145,386.581881L781.386061,387.253188L782.356428,387.157852L782.884936,387.213464L784.747798,387.826022L785.395438,387.801391L786.037235,387.516163L786.599104,387.051394L787.005816,386.492113L787.135779,386.095710L787.256448,384.125847L787.464445,383.889965L787.817487,383.801809L788.063374,383.784003L789.352909,383.690621L790.393896,383.816899L792.583123,384.338702L793.169409,384.372060L794.656754,383.870110L795.317161,383.860580L797.327324,384.264043L799.640367,384.264043L802.048027,384.862913L802.305955,384.825582L802.737386,384.619072L803.037848,384.604775L803.354576,384.752509L803.816658,385.244969L804.103222,385.360144L804.516460,385.234643L805.040372,384.576182L805.448360,384.392710L806.147699,384.468958L807.651045,384.969347L808.358169,385.074194L808.849351,384.960610L809.689001,384.572211L810.830790,384.596833L811.281094,384.494374L812.089002,384.026570L812.153209,383.912997L812.134435,383.774012L812.151499,383.661236L812.326758,383.621527L812.821188,383.706505L812.962034,383.695386L813.121566,383.590553L813.456025,383.024314L813.834043,382.709042L814.315797,382.635983L815.438380,382.623277L816.321129,382.269900L816.791107,382.193667L817.359368,382.387426L820.408450,382.819426L821.381228,383.103728L821.743243,383.323710L822.806329,384.238628L823.286716,384.508670L823.740631,384.604775L824.169742,384.608636L824.623487,384.612718L827.271668,384.989204L828.028610,384.774749L828.937909,384.306932L829.299940,384.230686L829.701762,384.256101L830.489431,384.472135L831.501989,384.467369L832.083019,384.701676L832.648016,385.028919L833.232277,385.279124L833.659700,385.287862L834.787619,384.712795L835.286637,384.622249L836.991719,384.681025L838.844494,385.048776L839.071972,385.230671L839.252568,385.435605L839.480945,385.605592L839.851587,385.797029L840.408609,385.534102L840.741267,385.284684L840.938122,385.196516L841.488023,385.122646L842.100129,385.182219L842.740222,385.375236L844.469883,386.137812L845.665610,386.307811L848.318402,386.083000L849.504005,386.139401L850.626938,385.990059L851.149332,386.070290L852.319843,386.407111L852.868037,386.435710L853.251281,386.288746L853.980583,385.758900L854.447998,385.583350L855.542928,385.508683L857.297537,385.664373L860.089921,386.444448L861.341044,386.990221L862.464186,387.645667L862.976519,387.847474L866.161061,388.124768L868.484874,388.874061L870.204214,388.959880L871.319296,389.307139L872.298255,389.337336L873.952507,388.439415L874.895150,388.266199L875.597052,388.430675L875.902576,388.741360L876.198155,389.925406L876.486043,390.635914L876.866172,391.261436L877.344289,391.838518L877.915554,392.403720L879.133276,393.224967L881.469853,394.074137L882.564271,394.839908L884.640053,397.313552L885.648836,398.155283L887.123859,398.636664L889.615235,398.773526L891.543950,398.418645L892.680388,398.456042L898.746311,399.546220L900.063913,400.190871L900.555841,400.561776L902.011240,401.854561L904.171614,403.202591L905.388411,404.202085L906.459241,405.264704L907.573257,406.194476L908.911368,406.786529L909.727701,406.312403L909.886034,405.954647L909.844087,405.292586L908.535813,403.073586L908.011294,402.622889L907.589277,402.177803L907.232268,401.687374L905.741467,399.233470L905.569923,398.872992L905.639596,398.267469L905.640310,397.873632L905.461485,397.501300L904.992729,396.961140L903.990800,396.082978L903.522025,395.606560L902.843616,394.401746L902.457979,393.922265L902.137933,393.434865L901.981099,392.763849L902.022409,392.283680L902.476978,391.015832L902.554639,390.108193L902.424392,388.266199L902.661446,387.490739L902.999074,387.261133L903.439538,387.289734L904.416036,387.509012L904.836489,387.463726L905.887426,387.022793L906.232043,386.666090L907.917875,386.024217L909.154065,385.885997L909.595070,385.576201L909.506213,384.947107L909.003989,384.402241L908.366518,384.132201L907.143044,383.983682L905.114041,383.233176L904.010845,382.603424L903.237476,381.822833L903.243352,380.966067L904.078453,380.345166L905.988273,379.499610L907.467897,378.171435L908.377384,377.714976L909.452167,377.759430L911.074040,378.620763L911.646487,378.734288L912.169746,378.643785L912.573005,378.370694L912.763362,377.906290L912.653001,377.248210L912.297342,376.671121L911.339412,375.697177L910.983006,375.118549L910.732291,374.520888L910.419291,373.925626L910.025354,373.386727L909.531978,372.965300L908.357722,372.523245L907.316537,372.297062L906.735600,371.818511L907.231606,369.714716L907.267438,368.758482L906.941717,367.744335L901.257736,360.813231L895.569782,353.881111L894.188146,352.690418L893.487702,351.979136L892.971636,351.331334L892.970402,351.328158L892.720729,350.705733L892.441455,350.142033L892.081335,349.619598L891.593272,349.111435L890.484330,348.379326L889.947922,347.955286L889.571107,347.389876L889.304311,346.239912L889.129256,344.023814L888.654070,342.817856L885.874706,338.291252L885.383776,337.194180L885.079265,335.933140L884.842426,333.604464L884.970435,332.937841L884.928759,332.584614L884.613735,332.199543L883.949285,331.668041L883.721073,331.384767L883.621082,331.042592L883.915653,330.475972L884.655420,330.121011L886.164505,329.786723L886.466046,329.538383L886.444381,329.130826L886.156661,328.729610L885.660076,328.500330L881.041427,327.116491L879.398537,326.221347L878.852355,326.017450L878.159806,325.952137L873.981760,326.802730L872.742565,326.705572L868.970175,324.988284L868.034332,324.244161L868.053965,323.311860L868.424232,322.972364L869.392081,322.449525L871.147264,320.550564L871.146641,320.548969L871.791944,319.756721L872.680961,319.348380L873.767193,319.278193L875.667068,319.538199L877.223251,318.914478L879.136148,319.008600L879.734503,318.928836L880.014049,318.593812L880.054371,317.497638L880.417456,317.124212L880.951574,317.060375L882.757625,317.221561L886.273305,315.906385L887.487919,315.887229L889.773082,316.458674L890.426119,316.436329L893.077516,315.368401L894.225005,315.350840L895.117179,315.023550L896.773404,314.020791L905.687529,311.281354L907.206027,310.012577L908.108834,309.590649L909.202581,309.841572L910.092454,309.897509L911.118363,310.835559L912.035621,312.105735L912.607923,313.166372L912.923244,313.883455L913.219857,314.300243L913.648558,314.514212L915.455005,314.750526L915.939615,314.977249L916.614879,315.462593L917.788626,315.880844L918.943059,315.601482L922.903537,313.479410L924.130438,313.182344L925.415141,313.294145L926.892848,314.014404L929.888369,316.104322L931.373591,316.769908L932.883071,316.524115L933.364462,314.881452L933.207580,312.664833L932.557490,309.857554L932.126585,308.634797L931.553782,307.491709L930.899714,306.885697L927.941376,305.946969L923.972198,305.468749L922.945369,305.094462L922.940831,305.092862L922.936939,305.092862L921.536455,303.859463L921.411366,303.198301L921.245357,302.321751L921.379508,300.702009L921.046190,297.634232L921.787374,294.805347L921.896200,293.324762L921.865814,292.440109L921.387466,289.604329L921.386814,289.602726L920.289021,285.309405L920.126000,283.291079L920.370778,281.468091L921.067675,279.110192L921.040755,278.134121L920.648080,276.446644L920.591153,275.908714L920.823759,274.069916L920.041390,266.636382L920.981308,260.102600L920.928165,259.597801L920.748263,259.072893L920.398308,258.531895L920.074479,257.924160L919.935568,257.313193L919.827824,256.142665L919.707818,255.805807L919.285872,255.201219L919.122445,254.883645L919.055133,254.537926L919.048049,253.875422L918.969949,253.510395L918.405558,252.259302L918.455870,251.907122L918.973352,251.634542L919.536785,251.514735L920.204216,251.477747L920.909656,251.543682L921.584205,251.731835L923.272464,252.702336L923.880918,252.965259L926.353956,253.399439L927.498089,253.803060L932.768623,256.226276L943.459531,259.124339L945.789602,259.113086L947.671803,259.420958L948.238075,259.327712L949.491275,258.531895L949.497630,258.528679L949.511092,258.527071L949.518733,258.523856L952.084223,258.310025L955.232479,258.531895L955.248434,258.527071L955.645505,258.493309L956.056431,258.528679L957.633943,259.084147L958.832102,259.253759L960.977574,258.740900L962.192414,258.816463L963.259471,259.240093L964.364022,259.939426L965.253663,260.865402L965.672554,261.970565L965.613642,262.477712L965.470656,262.971986L965.448225,263.441332L965.736565,263.872894L966.316877,264.076215L966.957955,263.973349L968.499829,263.318371L970.237931,262.963146L970.616855,262.637650L970.783998,261.708547L971.044710,261.362934L971.333455,261.186107L972.355923,260.959443L972.600150,260.781005L973.020518,260.077682L974.271437,258.995723L974.605508,258.531895L974.802962,257.589738L975.002024,257.264958L975.412774,257.020566L975.879966,256.932135L977.378422,257.088096L980.388830,256.661210L982.059958,256.701406L982.075978,256.325966L981.884644,255.746313L981.865181,255.193179L981.997909,254.758222L982.036117,254.333709L981.971151,253.857734L981.789617,253.272402L981.806805,252.752187L982.180669,252.428154L982.709498,252.264126L983.797952,252.156382L983.988813,251.887824L983.908221,251.427895L983.730416,250.787843L983.549021,249.760201L983.336025,249.268083L982.870711,248.697155L982.567125,248.168036L982.490441,247.600312L982.347431,246.992376L981.858869,246.353877L979.053696,243.899552L978.263201,242.973940L978.261104,242.969115L977.732038,242.014550L977.214413,239.925282L976.755266,238.892717L970.738340,229.674299L970.465129,228.916108L970.434096,228.232707L970.527467,227.411844L970.373525,226.239688L969.460899,222.799135L969.717079,216.031623L969.991235,215.059450L970.642313,214.515544L975.816222,213.832681L980.559933,214.184552L981.640012,213.590072L982.162278,212.584336L982.494072,212.168248L983.043353,211.940932L985.491633,212.081498L987.903786,211.107207L988.220992,210.793169L988.292927,210.404448L988.261905,209.337941L988.331621,208.841664L988.530215,208.436145L989.269809,207.470189L990.145297,205.316974L990.160838,204.947713L989.962977,204.520671L989.078536,203.199528L988.877070,202.831952L988.914909,202.543037L989.160516,202.084002L989.320812,201.105016L988.656831,200.503233L987.586016,199.875817L986.517848,198.826479L986.008228,198.064425L985.709479,197.531830L985.593771,197.044182L985.636429,196.410604L985.780887,195.871700L986.008988,195.486791L986.645446,194.800416L986.835917,194.296899L986.866910,193.198574L987.224123,192.842655L987.885978,192.796162L989.517173,193.179335L990.255844,193.243466L993.172757,192.084378L994.394410,192.300792L995.546129,192.736844L998.907410,193.464723L998.110677,192.578131L996.585319,190.391763L995.893370,189.747519L994.215582,188.981554L993.421433,188.733195L992.628398,188.603410L990.632629,188.762036L989.975032,188.699546L989.582590,188.580978L989.196219,188.388710L988.874145,188.087501L988.663086,187.650130L988.441171,187.403420L988.015671,187.143904L985.867271,186.053085L985.160237,185.606238L984.773016,185.196254L984.770245,184.637372L984.986940,184.309112L984.903453,184.012891L984.015481,183.561382L982.523744,183.047469L981.725895,182.674468L981.115858,182.157427L980.787729,181.446766L980.709452,180.832207L980.504959,180.323323L979.778642,179.920087L977.654163,179.040104L977.034496,178.921716L976.027945,179.140895L975.498763,179.139295L974.759119,178.814529L974.061868,178.333013L973.677384,177.909120L973.565353,177.454869L973.667413,176.887107L974.057369,175.852487L974.406160,175.524711L975.552606,175.446368L975.975223,175.288085L976.301476,174.990718L976.598464,174.573471L975.757139,174.057153L975.326895,173.715100L975.076105,173.336309L975.074594,173.035853L975.131487,172.685874L975.131195,172.324734L974.954163,171.987585L974.632727,171.853370L974.209695,171.866153L973.533282,172.014748L973.152833,172.000367L971.884877,171.516252L971.073034,171.465127L970.925981,171.917282L970.977167,172.561230L970.748702,173.098180L970.597737,173.136535L970.438393,173.109367L970.272244,173.099778L970.119795,173.198864L969.947203,173.505723L969.871718,173.588833L968.995080,174.161052L969.326261,174.503134L969.568238,174.843639L969.676079,175.133004L969.611199,175.321660L969.266158,175.481542L968.235557,176.739978L966.926440,177.195771L965.911176,178.019489L965.770013,179.059302L965.765641,180.728186L965.335292,181.744465L963.913079,180.825805L962.903551,179.984091L961.811285,179.795281L960.914688,180.124901L960.472410,180.832207L960.468616,180.832207L960.226268,181.139478L959.870853,181.272314L959.420768,181.185891L958.892107,180.830606L958.654849,180.297719L958.311683,179.027305L958.150310,178.763336L957.089891,178.625757L956.633415,178.649753L956.229227,178.828927L955.653452,179.339283L955.270865,179.478479L954.832395,179.313684L954.262981,178.873722L953.744101,178.539372L953.231778,178.349010L952.701432,178.347410L951.974316,178.660952L951.600574,178.737740L951.117275,178.598562L950.595973,178.209841L949.838495,177.312524L949.352301,176.983063L948.888791,176.915894L948.574110,177.099811L948.064434,177.659598L947.713368,177.849937L947.325439,177.966704L946.440657,178.037084L945.759076,177.870731L944.384557,177.214963L943.728772,177.027843L943.267160,177.075822L942.810687,177.259745L942.405698,177.530042L942.110634,177.819547L941.263379,178.085072L940.093498,177.645202L938.964354,176.719188L937.578174,174.263355L936.626364,173.368273L934.339281,171.877337L933.680202,171.326133L933.337809,170.896395L932.685747,169.773493L931.997833,169.059628L931.251618,168.700339L929.733230,168.420910L929.028932,168.021752L928.550890,167.207571L927.820816,165.440786L927.980748,165.397702L928.027204,165.370575L928.029725,165.370575L929.044902,165.214199L929.345780,165.020822L929.176996,164.513456L928.793667,164.125787L927.485547,163.079400L927.098643,162.825813L925.211375,162.211837L924.644467,162.160809L924.360695,162.293165L924.035679,162.527586L923.675012,162.651978L923.283125,162.470176L922.143535,161.326895L921.747958,161.049487L921.240988,160.877311L920.429092,160.968181L919.976652,160.929920L919.013588,160.485156L918.184371,159.900171L917.365603,159.441159L916.451445,159.363067L915.585755,159.422034L914.688602,159.254698L913.732135,158.833991L912.702212,158.140863L911.594171,157.599177L910.931057,158.024555L910.319760,158.610905L909.384664,158.559915L909.124035,158.370301L908.583341,157.854081L908.294535,157.642191L907.912548,157.494033L907.106669,157.321985L906.726789,157.127641L906.208728,156.563771L905.897607,155.913968L905.625992,155.218075L905.233655,154.517507L904.240008,153.498679L903.154935,152.573960L902.328139,151.606458L902.051413,149.944013L901.726339,149.380979L901.248644,148.872078L900.043544,148.115185L899.694627,147.700216L899.402099,147.224874L898.892552,146.631953L897.722821,145.776875L897.315566,145.591678L893.816119,144.000443L892.718185,143.031462L891.815109,141.109951L890.821937,140.486018L889.705640,140.139952L889.248363,139.851053L887.970793,138.779735L887.366351,138.419506L886.767238,138.184658L886.171660,138.068825L885.065322,138.062478L884.546230,137.983142L883.865627,137.688022L881.974413,136.675864L881.312806,136.453788L878.416085,136.042974L877.781516,135.798722L877.256610,135.462499L876.158314,134.593499L873.346297,134.293824L870.785364,134.593499L870.452133,134.712423L870.078818,134.758407L869.665880,134.721937L868.951325,134.531660L868.697701,134.514218L868.464860,134.534831L868.255297,134.593499L868.325107,135.824098L868.161996,136.910641L867.653008,137.689609L866.693271,137.992662L863.356242,137.691195L861.209394,137.232684L860.373536,137.415132L860.020926,138.021223L860.995014,140.171700L860.690904,140.822583L859.330600,141.459261L857.014156,143.150589L855.516557,142.316763L854.877707,142.094433L853.857663,142.286589L853.537510,142.181776L853.222979,142.035676L852.885927,141.980096L852.591528,142.113490L852.386891,142.323115L852.128094,142.431108L851.676811,142.258003L851.222975,142.191304L850.907047,142.521633L850.646677,142.983812L850.367829,143.311017L849.841224,143.487336L849.222599,143.531813L847.872306,143.331667L847.219372,143.099761L845.253076,142.040440L844.576951,141.748254L843.348656,141.454497L842.055686,141.300481L840.416884,141.560883L839.863744,141.495781L838.719090,140.989286L838.242223,140.971822L837.944048,141.287778L837.677824,142.197656L837.246608,142.473988L832.139301,142.648688L831.283559,142.329468L830.673680,141.660919L830.483560,140.871799L830.572863,140.097092L830.799135,139.471700L829.781224,138.674996L828.782890,137.754661L827.942580,136.731385L827.412133,135.622678L824.373291,135.513248L821.852227,136.263445L820.555116,136.311031L819.857106,136.188896L819.289500,135.992219L819.001683,135.727352L818.859731,135.292810L818.623303,133.421065L818.720612,130.198490L818.622596,129.540284L818.443801,129.023919L818.106181,128.647766L817.525281,128.404667L817.022936,128.359533L816.744775,128.513941L816.336110,129.093609L815.703012,129.046885L815.097176,128.928096L813.784720,128.508398L812.608005,128.061023L812.171822,127.742738L811.700438,127.151351L811.146949,126.085130L810.748396,125.675166L810.167828,125.635596L809.853829,125.911802L809.785032,126.255299L809.598053,126.472965L808.920724,126.366109L805.094247,125.110135L804.681675,125.167110L804.367200,125.501060L804.225504,125.846904L804.154213,126.257673L804.191435,126.713595L804.378939,127.197266L804.423726,127.973136L803.599656,128.171082L801.432337,127.939882L800.874672,127.992139L800.552414,128.216214L800.439844,128.616091L800.507053,129.202899L800.835490,130.204827L801.088257,130.772807L801.347898,131.152289L801.857727,131.542892L802.791563,132.113402L803.227181,132.559554L803.527627,133.027145L803.796310,133.577215L804.007293,134.127346L804.133997,134.593499L804.133030,135.652811L803.604090,136.401443L802.776536,136.847187L801.885213,137.004238L800.852856,136.910641L800.576163,136.956646L800.417423,137.089904L800.246462,137.478593L800.108036,137.645184L799.308373,137.979968L799.059659,138.184658L798.965396,138.670235L799.095846,139.671690L798.953316,139.982802L798.412655,140.049471L797.893276,139.846291L796.699963,139.076506L796.190549,138.900346L795.550531,139.295526L796.364459,140.238372L798.493611,141.978508L797.731346,141.956276L796.716945,141.525950L795.660877,140.873387L794.778612,140.195512L794.282608,139.709785L792.855523,138.097386L790.550738,135.897056L788.548988,133.987826L784.685543,130.306219L780.815032,126.628898L776.945710,122.951886L773.070915,119.276749L768.705029,115.454981L766.302017,113.352218L764.339648,111.636058L759.971646,107.818380L755.600889,104.006656L755.598405,104.006656L755.595921,104.006656L755.594801,104.004292L749.861177,99.085874L744.120319,94.172037L738.379535,89.261949L732.640187,84.357919L728.376239,80.872893L724.111538,77.389310L719.848633,73.907155L715.585901,70.427978L712.925230,68.258220L708.788930,65.113528L706.022825,63.444949L704.313680,62.414005L700.236278,59.954192L696.010535,57.973669L690.304749,55.298633L684.603325,52.626408L678.904790,49.953863L673.210715,47.284113L669.438936,45.515356L666.822700,44.288148L665.645247,43.352712L664.790346,42.211681L664.471162,41.853206L660.500046,38.665298L660.457810,38.469031L660.747808,38.243177L661.139164,38.124801L662.672522,38.174643L666.104621,39.039157L667.559779,39.078102L668.236244,37.969048L668.332082,37.687144L668.718397,37.271322L668.856520,37.011254L668.884004,36.695138L668.735517,35.813839L668.883550,35.262704L669.122066,34.752094L669.233089,34.171483L668.984116,33.405724L668.424341,32.702308L667.842687,32.403536L666.536301,32.132788L666.046806,31.768697L666.116101,31.351730L666.454493,30.981464L666.769959,30.762115L668.489085,30.380996L668.764068,30.085451L668.598617,29.422860L668.117032,29.144469L667.549349,29.119586L667.131710,29.225341L665.798957,29.878578L665.247254,29.950127L663.882319,29.855247L663.266080,29.968792L662.982158,30.394996L663.115037,30.955017L663.401017,31.553986L663.555859,32.075216L663.291462,32.394200L662.950604,32.434658L662.196015,32.367747L661.842881,32.383307L661.405139,32.538915L660.319956,33.380823L659.392915,33.578478L654.245420,32.649399L653.864138,32.806570L653.616452,33.306120L653.497193,33.874195L653.551075,34.338033L653.848310,34.840825L654.469222,35.536708L651.704778,36.737182L648.261088,38.233831L646.050958,39.194938L644.863889,39.708865L643.869921,40.139063L643.053696,40.269943L640.497061,40.034672L639.684696,40.087646L639.006595,40.403943L637.830170,41.324885L640.622761,43.527315L637.916269,45.604249L635.839336,47.192074L633.586934,48.917648L632.966141,48.961340L630.792645,48.221740L629.875742,48.059478L627.907704,48.018913L627.195101,48.224861L627.081696,48.476065L627.096895,48.900483L627.252954,49.777506L627.256103,50.208264L627.114734,50.390877L625.943894,50.453310L625.697332,50.517305L625.590169,50.715537L625.549491,51.132316L625.804878,52.560829L625.654031,52.760693L621.727359,52.631092L621.536492,52.980863L621.610086,53.580520L622.115964,55.106491L622.348635,55.309568L622.925025,55.628257L623.302112,55.882909L623.444948,56.114136L623.616836,58.902100L623.340311,59.366372L622.584972,59.247565L620.961844,58.453495L620.959389,58.453495L620.954014,58.447243L619.770110,57.762683L619.403694,57.309480L619.250346,56.614119L618.728799,56.506306L618.362133,56.173507L618.012938,55.746989L617.548540,55.362681L617.290960,55.289260L615.712109,55.259579L615.514696,55.382990L615.420098,56.120385L615.220313,56.254752L614.473837,56.221941L614.040998,56.009458L613.779382,55.517339L613.544770,54.936224L613.202980,54.456693L612.783739,54.294255L611.123449,54.136507L610.113218,54.005314L609.345907,54.016247L608.699519,54.228656L607.526539,55.248644L607.205120,55.348622L606.217988,54.987772L605.782138,54.904983L603.936841,54.850312L603.805897,54.922166L603.856635,55.115864L603.964186,55.357995L604.018865,55.829790L604.122219,56.100075L604.161196,56.310999L603.985977,56.382871L603.381955,56.307874L603.209362,56.321936L602.844273,56.450057L602.766442,56.615681L602.825181,56.917255L602.857419,57.453251L602.810788,57.776748L602.714505,58.014304L602.373623,58.450369L602.375068,58.453495L602.372613,58.453495L601.252742,59.779506L600.843375,60.263760L600.566738,60.340373L598.642319,59.452352L598.838916,57.611090L594.298427,56.036018L594.494182,55.009641L593.360606,54.297379L593.067897,53.897551L593.018451,53.313477L593.202949,52.938702L593.567245,52.751324L594.516957,52.610794L593.845430,49.907042L594.055135,49.530928L595.904576,48.900483L594.522636,48.304433L594.680530,47.639800L594.961097,47.181154L595.415638,46.933126L596.093967,46.897249L599.869109,47.422953L600.469600,47.319992L600.783710,46.919087L600.743681,46.112680L599.546702,41.373196L598.364402,41.659950L598.082617,41.564883L597.712095,40.938415L597.632168,40.830893L597.214324,40.752980L596.069063,40.972697L595.832962,41.125413L596.032989,41.379429L596.398668,41.705147L596.655303,42.074523L596.455669,42.534327L595.193145,42.797756L595.253813,43.349594L595.255275,43.352712L595.627484,44.063630L595.723946,44.447188L595.526826,44.637416L595.013306,44.768397L594.687901,44.710703L593.908333,44.210190L593.516858,44.005943L593.266599,43.946697L592.505926,43.904601L592.357881,44.016856L592.429080,44.320891L592.545095,44.668602L592.527167,44.902500L592.239959,44.978909L587.899487,44.278793L584.626381,43.751813L584.005300,43.352712L583.392992,42.500035L582.931105,42.096343L581.628287,41.681769L581.007024,40.511457L580.637040,39.980140L580.175176,39.576621L579.766278,39.448871L578.492671,39.582852L575.342005,39.321124L572.070172,39.050061L570.949497,39.240116L570.270304,40.103227L570.242706,40.460037L570.268103,41.047497L570.383368,41.586702L570.634171,41.806450L572.555351,41.474493L573.383445,41.494753L574.119244,41.837621L574.870771,42.467302L575.732309,43.344917L576.347668,44.398852L575.821125,44.614027L573.054942,43.831325L572.682206,43.807939L572.466609,44.002824L572.239045,44.833889L571.675619,45.733692L571.286174,45.976991L570.551067,46.033138L569.746048,45.889652L569.126523,45.532511L568.896826,45.044402L568.860473,44.434714L568.945837,43.352712L568.942958,43.346476L568.872156,42.637203L568.348139,42.196095L567.626078,41.823594L566.963056,41.324885L566.750767,41.050613L566.494491,40.654812L566.374781,40.316687L566.560027,40.215409L567.368853,40.416408L567.592625,40.419525L567.643198,40.322920L567.641374,39.944305L567.687306,39.843034L568.075267,39.836802L568.441800,39.889774L568.698397,39.805642L568.743245,39.391229L568.802799,39.251021L568.801177,39.126394L568.722912,39.031368L566.173447,38.367785L563.768911,37.741655L563.947956,36.374367L563.867116,35.989777L563.329950,35.479104L562.122209,35.200432L561.706023,34.876629L560.940537,33.973808L559.795040,33.077349L558.589410,32.366191L557.652037,32.022313L554.953704,31.728243L554.616257,31.941404L554.890181,32.411317L555.288185,32.691415L556.242416,33.077349L556.969803,33.452414L557.293308,33.729448L557.345231,34.062528L557.228637,34.864175L557.245200,35.200432L557.299901,35.550720L557.397110,35.855877L557.570475,36.246687L557.680652,36.416409L558.243912,36.695138L558.962768,36.903804L559.730473,36.991009L560.474686,37.185670L561.127550,37.710506L561.583151,38.537568L561.503432,39.020463L561.076744,39.249463L560.488722,39.319567L559.713863,39.143530L558.952933,38.648163L556.648644,36.639080L556.117339,36.318312L555.590494,36.139250L554.924192,36.006904L550.145191,35.655032L549.719821,35.812282L549.526454,36.213989L549.546409,36.766769L549.748487,37.370992L550.480484,38.704240L550.475099,39.134183L549.992238,39.529883L549.348197,39.846150L549.016416,39.889774L548.573201,39.818106L548.271136,39.691909L547.619135,39.324240L547.321907,39.224537L546.781052,39.291525L545.806347,39.755786L545.312392,39.813432L544.432968,38.344421L544.112734,37.948800L543.757547,37.652881L543.478461,37.539189L542.766328,37.559436L541.963629,37.427058L541.089970,37.160753L540.355328,37.059529L539.947504,37.422385L539.485677,39.026694L539.098739,39.614011L538.455695,40.058043L537.952885,40.045578L537.376697,39.691909L536.150079,38.590529L535.579064,38.143492L535.096364,37.866253L534.029149,37.514271L534.011445,37.081331L533.807827,36.385267L533.502771,35.670601L533.159945,35.186421L532.786086,35.054096L531.296083,34.977816L530.668214,33.927114L530.609715,33.323239L531.049951,33.080461L531.915144,33.111586L532.452395,33.236087L533.495899,33.606493L534.007226,33.724778L534.438581,33.729448L535.672865,33.530231L535.208020,32.246376L535.015383,31.834045L534.835823,31.317503L534.724925,31.081029L534.555614,30.945683L534.096985,30.838342L533.875158,30.737225L533.726391,30.553663L533.378009,29.531732L533.118463,29.178684L532.460266,28.774338L532.359875,28.640599L532.299779,28.472652L532.267414,28.282939L531.115994,26.138975L530.882075,25.305847L531.383724,24.786754L532.464132,24.521007L532.877610,24.286352L532.980835,23.869901L532.662986,23.192450L532.096124,22.571002L530.854621,21.615648L530.292804,21.320528L529.767330,21.219569L528.750871,21.228889L527.734394,21.048720L526.331035,20.567260L525.017269,19.810978L524.276094,18.811027L523.969396,17.989759L523.607791,17.575286L522.400705,16.828682L522.028092,16.395662L521.812472,15.850938L521.752847,15.334192L521.856127,14.983512L521.877376,14.623543L521.097841,13.826098L520.987100,13.262984L520.945751,12.877935L520.855098,12.476207L520.559539,11.646465L520.541600,11.592187L520.490454,11.482081L520.457969,11.427804L520.302739,11.057183L520.114981,10.689685L519.330267,9.861731L515.983357,7.612551L513.639741,6.035050L513.167408,5.576443L513.089858,5.066747L513.230805,4.584976L513.424799,4.207022L512.243696,3.821347L510.840444,3.638585L509.596470,3.756295L508.885797,4.256588L508.610098,4.615957L508.194538,4.835926L507.702222,4.942815L507.183454,4.953659L505.312505,4.467300L505.085894,4.408388L504.699931,4.530760L504.256439,5.652358L504.194141,6.121818L504.248617,6.357336L504.355237,6.611458L504.395417,6.842345L504.244235,7.012805L502.423219,7.533512L502.075292,7.826428L501.751510,8.784317L501.468674,9.069542L501.058008,9.024587L497.076613,7.418828L496.056422,7.169322L494.122285,7.022103L493.295178,6.681188L490.498597,4.733686L489.625915,4.268980L486.043450,3.011354L481.233012,2.549877L477.405025,1.479943L476.887267,1.589869L475.577086,3.025292L474.745434,3.259141L473.944367,2.610269L473.132040,1.687412L472.274030,1.099086L467.578404,0.000000L467.218814,0.024766L466.927320,0.215157L466.831374,0.450446L466.927110,0.660976L467.125130,0.883897L467.853015,1.905726L468.329349,2.209211L468.865205,2.356315L469.573148,2.631949L470.232677,3.774881L470.409833,4.287567L470.343488,4.671723L469.871663,4.919578L469.255507,4.739882L468.599210,4.306155L467.274440,3.262239L466.637377,2.929276L465.997709,2.726411L463.819599,2.481709L463.530460,2.449224L462.913438,2.218502L462.873673,2.734154L462.938748,3.217326L463.139036,3.737709L463.492644,4.372761L463.530684,4.834376L462.690220,5.384333L462.469675,5.737571L462.563514,5.988568L462.949950,6.566521L463.029075,6.865590L462.915518,7.161574L462.669178,7.222012L461.995689,7.102686L461.464905,7.122832L460.090535,7.544360L458.146064,7.187919L457.569856,7.177071L456.550504,7.570707L456.090860,7.587754L455.665889,7.471520L455.290643,7.304147L454.903796,7.208065L454.439127,7.294849L453.222114,7.913221L453.444990,8.010865L454.141793,8.404554L454.142852,9.267967L455.342269,9.981111L457.605152,10.844744L457.784178,11.451065L457.326821,11.615449L456.690198,11.652668L456.344421,11.874439L456.374405,12.403309L456.451967,12.797277L456.371492,13.076841L455.930168,13.253676L456.099232,14.016917L455.834009,14.347373L452.338821,14.741462L449.724741,13.956413L448.982317,13.917629L448.237009,14.113105L447.702375,14.466839L447.436984,14.916792L447.028607,16.097687L446.029706,16.996311L444.436334,17.418507L440.172721,17.323821L438.749363,17.562868L437.041615,17.236897L436.485366,17.435582L436.140108,17.927664L435.973439,18.648007L435.564885,19.121553L434.715437,19.295455L432.934061,19.276823L432.252121,19.411910L431.126363,20.000428L430.456581,20.127767L425.931122,20.292379L425.524386,20.511351L424.939198,21.224229L424.522708,21.463427L423.122378,21.631181L420.078494,21.539537L418.662372,21.713507L411.411297,23.931245L408.906820,24.696616L408.302333,24.207100L407.251035,22.232339L406.688163,21.965151L405.178019,22.470023L404.582465,22.863075L404.223828,23.601087L403.958816,24.525670L403.550248,25.022982L402.867315,25.133329L399.248468,24.283244L396.868451,24.065692L396.285588,24.222640L396.339373,24.622021L397.068778,25.714625L397.170176,26.353492L396.712617,26.468527L395.243753,26.177836L394.578448,26.207371L392.007408,27.217858L391.776346,27.570791L392.076454,28.289159L392.166286,28.424445L392.425139,28.883198L392.228262,29.587723L394.315478,32.781671L394.049326,33.763689L393.806271,33.771471L393.002729,33.547351L392.847667,33.584704L392.658611,33.808825L392.524694,33.885090L392.129128,33.913106L391.741303,33.819720L391.332637,33.629838L390.880386,33.359034L388.217688,31.469972L386.432949,30.984575L385.174454,31.550875L384.081693,32.475115L382.805853,33.058674L381.931274,32.990200L381.047303,32.658736L379.210661,31.712684L378.816769,31.501088L378.038090,32.011421L377.489691,32.117228L377.209199,32.084552L376.653143,31.942960L376.358044,31.910285L376.273764,32.006754L376.185481,32.219924L376.044105,32.431545L375.799448,32.526466L373.556878,32.733430L372.871266,32.517130L372.509421,32.470447L372.299015,32.630726L372.200863,32.741211L371.791962,32.913946L371.121619,33.035331L370.148533,33.460195L369.607312,33.555133L368.479155,33.332577L368.147261,33.349697L367.974738,33.469533L367.744573,33.846179L367.593934,33.966026L367.336029,33.997155L367.015149,33.958244L366.689842,33.849292L366.096703,33.483540L365.948029,33.611162L365.859879,33.841510L365.725732,33.966026L365.782401,34.183935L366.328990,34.668034L367.389555,35.426171L367.303466,36.226445L366.687859,36.522293L365.875262,36.629737L365.207681,36.864873L365.123275,37.266650L364.755998,37.168539L364.049427,37.034613L361.634160,35.894801L360.826035,35.622337L359.970546,35.570960L356.645738,36.896017L355.084722,36.970765L354.523168,37.207472L353.585850,37.976835L353.008012,38.210467L352.143097,38.215140L352.066493,38.202476L349.222640,37.732310L347.800009,37.691817L347.093635,37.870925L346.965322,38.356882L347.329732,38.908303L347.730111,39.355398L347.955682,39.790062L347.799065,40.294873L347.245984,40.537946L344.813864,40.319803L343.024356,40.754539L342.368595,40.721815L341.171837,40.324478L340.688670,40.255920L339.559510,40.675068L337.545212,40.776354L336.651917,40.974256L335.724995,41.504104L335.328818,42.311434L336.040028,43.346476L336.243316,43.488341L336.865602,44.030888L336.173025,44.840126L336.043789,45.222175L336.138111,45.459214L336.343687,45.686905L336.919594,46.630515L336.912141,46.842653L336.591654,46.987723L336.259289,46.964324L335.896297,46.808336L335.525533,46.561884L335.186444,46.284247L334.519977,45.860019L333.185466,45.392156L332.553024,44.883788L332.236901,44.288148L332.385795,43.890570L333.218407,43.352712L333.223297,43.352712L333.006510,42.682407L332.585358,42.376898L332.070433,42.317669L322.481288,42.596676L322.703841,43.171878L322.797326,43.352712L323.523271,45.172274L320.822320,45.044402L319.911405,44.849482L319.331902,44.595316L319.075246,44.316214L318.878313,43.927988L318.470069,43.344917L318.076120,43.195261L317.680456,43.097052L317.353492,43.123552L317.030326,43.625532L316.744908,43.676980L316.380410,43.564731L315.980947,43.344917L313.724110,43.344917L313.858924,43.899924L313.904938,44.341161L313.765571,44.621824L313.353425,44.699788L312.881978,44.576605L312.589731,44.299063L312.135401,43.346476L310.256994,43.033138L309.766217,42.785286L308.657048,41.689562L308.189608,41.432416L306.213217,41.215798L305.634013,41.315535L305.366757,41.731641L305.135902,42.259999L304.636334,42.495359L303.333262,42.570178L303.750846,43.170319L303.902104,43.344917L304.764544,44.320891L305.093565,44.838567L305.219492,45.356288L305.042439,45.906807L304.625820,45.923963L304.121430,45.640119L303.667462,45.278315L303.374783,44.978909L303.204162,44.766838L302.992373,44.624942L301.763853,44.440951L301.004330,44.469017L299.980663,44.660806L299.565201,44.888466L299.309616,45.332896L299.289879,45.660393L299.369085,46.009743L299.547396,46.349756L299.825536,46.663271L300.374513,46.759981L301.939481,46.788058L302.443866,46.883210L302.746719,47.039200L303.423134,47.577397L304.196623,47.892539L305.125218,48.165572L305.867942,48.565003L306.062875,49.243786L305.771085,49.735369L305.314460,50.206703L304.950311,50.752999L304.945797,51.463262L304.868490,51.802033L303.985602,51.908196L303.678806,52.078373L303.640967,52.437478L303.763554,52.805975L303.931389,53.183865L304.025030,53.560218L303.406793,54.119327L300.718823,53.474326L300.419926,54.208352L301.285133,54.787831L304.651405,54.944035L305.938903,55.223650L306.183945,55.426731L306.638449,55.918842L306.877439,56.112574L307.408876,56.326623L310.977872,56.940694L311.784568,56.856314L312.420273,55.726679L313.040104,55.547021L315.710990,55.532961L316.075419,55.631381L316.514958,56.056328L317.927965,58.050251L317.118027,58.450369L316.648512,58.848953L315.816260,59.841626L315.347304,60.166823L314.613624,60.155878L313.785981,59.741569L312.945324,59.108438L312.184136,58.445680L311.599723,58.126834L310.928498,58.022118L310.356953,58.131522L310.072843,58.445680L310.337938,59.377315L310.372374,59.741569L310.319157,60.152751L309.709666,61.348945L309.535774,62.062091L309.741779,62.818343L310.248989,63.578607L310.999927,64.301423L312.219438,64.989123L313.406687,65.193337L315.669421,65.180817L316.598829,65.430422L319.478502,66.846099L320.417168,67.041770L321.169645,66.957239L323.079137,65.991485L323.635212,66.126086L325.019572,67.198313L326.823821,68.229253L328.726285,68.785117L334.168449,69.583778L335.078265,69.931466L335.958541,70.680950L336.429813,71.407818L336.638583,72.096394L336.748703,73.588995L336.750813,73.594480L336.505024,74.288815L335.799237,74.800609L334.202366,75.339887L333.289459,75.241904L331.342442,74.271573L330.373415,74.026274L328.036544,74.277843L326.980857,74.166555L326.549121,74.249629L326.210344,74.576448L325.609423,74.933856L324.775453,74.705771L322.928761,73.592129L321.827587,72.991906L321.013088,72.716891L320.488236,72.839902L319.637113,73.588995L319.075747,73.824087L318.366414,73.896967L317.593827,73.816250L316.824823,73.588995L315.860712,73.172123L314.957550,72.967616L314.174251,73.072611L313.581200,73.588995L313.579032,73.589778L313.575882,73.594480L313.573418,73.594480L312.935339,74.031760L312.143668,74.219847L310.310672,74.229252L310.294500,74.238657L310.323096,74.262168L312.855941,75.727133L309.820558,78.668432L309.539083,79.062973L309.289832,79.919609L309.097500,80.296195L308.258250,80.712824L307.171860,80.924681L306.338426,81.411200L306.262211,82.658297L306.357208,82.999749L306.485406,83.317672L306.683687,83.578304L306.980947,83.746308L307.352202,83.907252L307.521557,84.076837L307.643276,84.277833L307.870767,84.530659L308.245300,84.713612L308.665264,84.739524L309.857369,84.635091L310.109121,84.667284L310.309448,84.866732L310.608010,85.343395L310.852321,85.940264L311.281932,87.382447L311.587043,87.884474L312.079256,88.150826L314.515255,88.740934L314.873046,88.898098L315.175963,89.187291L315.542424,89.734285L316.114607,90.989597L316.447208,91.532845L317.007878,91.969999L319.084575,93.571105L318.556654,94.179904L317.706828,94.649528L317.376385,94.949260L316.552811,96.016159L316.172887,96.283705L314.165263,97.054153L313.842809,97.371337L313.334208,98.608770L312.400120,99.377983L311.118065,99.420502L309.698565,99.195314L308.341733,99.155160L306.648996,99.827595L305.215694,101.045915L302.803698,103.999563L298.647678,104.003662L298.008949,104.004292L298.009800,104.006656L297.886808,104.728580L298.031048,105.233829L298.419950,105.721784L300.226091,107.707970L300.860455,108.090471L301.661525,108.209564L302.179495,107.941410L302.217931,107.466654L302.389303,107.168573L303.297914,107.428013L306.286001,108.879221L310.859505,109.714639L311.759394,110.362397L311.745989,110.608582L311.589042,110.822425L311.209260,111.101777L311.139333,111.288019L311.358702,111.829423L311.352483,112.068575L310.993652,112.344836L310.021418,112.778201L309.789092,113.172130L309.994716,113.809268L310.592392,114.080885L313.340416,114.432271L313.649265,114.578360L313.823557,114.856336L313.968442,115.163547L314.190724,115.387848L314.435268,115.444714L324.290655,115.641382L324.687663,115.650860L324.733313,116.040269L325.114669,117.037228L325.285285,117.310596L325.597281,117.693020L326.158225,118.289627L326.549067,118.572545L327.508502,119.029358L327.719412,119.165303L327.874842,119.292557L328.002091,119.396892L328.141461,119.493325L328.319814,119.580274L328.556533,119.656159L328.822582,119.695682L329.603817,119.656159L330.117503,119.718606L331.173733,119.992908L331.739843,120.055359L333.365596,119.951011L333.986736,120.055359L334.948344,120.426130L335.296221,120.491749L335.614175,120.474356L336.132757,120.321774L336.458523,120.284617L337.472282,120.585040L338.726714,121.123474L339.670873,121.320361L339.824549,121.462693L340.543849,122.093748L342.371045,124.462089L343.262580,125.308759L344.186822,125.850861L345.630977,126.299134L346.104306,126.446053L344.933767,126.726261L344.046368,127.197266L343.550043,128.049146L343.553776,129.476132L344.222428,134.593499L344.313323,135.441882L344.928665,138.205286L345.022324,139.492334L344.798620,140.428868L344.241542,141.046443L338.169422,142.883749L332.090177,144.721743L329.775834,145.036352L319.289730,144.052868L317.772330,143.520694L316.711620,142.974282L315.679542,142.285001L314.844008,141.402099L314.389092,140.271708L313.613056,139.141576L312.196133,138.752756L310.725969,138.847975L309.787683,139.163796L309.637513,139.360599L309.552717,139.601852L309.236876,141.643452L309.282316,142.170659L309.474299,142.782100L309.981433,143.860644L310.053404,144.386500L309.924734,144.802776L309.404423,145.549621L309.234160,145.962818L308.801696,147.797198L308.109887,148.695565L306.977734,148.881619L305.685285,148.824371L304.506351,148.991347L303.854053,149.543202L303.286858,150.214420L302.603935,150.513475L300.890855,149.506622L300.359270,149.047006L300.226368,148.585844L300.711876,148.119955L302.160927,148.299627L302.695754,148.077026L302.497451,147.275744L302.132211,147.086572L300.704602,146.665333L300.067469,146.213931L298.909520,145.699003L297.675567,145.722841L295.506616,146.180555L295.077164,146.164661L294.685297,146.029568L294.295738,145.745090L293.866726,145.284240L293.327647,144.861566L292.750228,144.726509L286.001113,144.253044L284.938882,143.921011L282.735675,142.797982L282.183394,142.423167L281.843325,142.053145L281.098765,141.040092L280.469185,140.659060L279.801575,140.708275L279.132674,140.865449L278.500116,140.817820L277.954111,140.468556L277.748140,140.057408L277.526750,138.871780L277.173909,138.560738L275.973064,138.632149L275.487041,138.557564L275.088235,138.198939L274.663208,137.643597L274.382488,137.070867L274.433113,136.656829L274.721963,136.333237L274.949750,135.970014L275.065327,135.519592L275.023245,134.943935L274.400095,133.650933L273.367786,132.856747L272.195258,132.467626L269.213022,132.413738L268.655667,132.200569L268.366183,131.855080L268.192138,131.451775L267.968287,131.027112L267.532429,130.626251L266.595174,130.014722L266.148677,129.766805L265.334489,130.241264L264.821675,130.358500L264.380438,130.591395L264.271404,131.149120L264.273938,131.808329L264.174072,132.357473L263.725898,132.675259L263.055320,132.630086L262.316914,132.368567L261.653791,132.033368L261.584985,131.925602L261.525566,131.741771L261.437922,131.548438L261.276801,131.404236L261.098144,131.363829L259.351943,131.614202L259.056097,131.686306L258.475905,131.991371L258.212972,131.938280L257.673314,131.485845L257.397176,131.311537L257.048499,131.196656L255.728232,131.196656L255.318421,131.122975L254.036018,130.587434L253.410422,130.697548L253.253520,131.378090L253.048123,132.101515L253.275426,133.230046L254.188495,135.261093L254.507385,136.263445L254.448165,137.169226L253.766618,137.537296L251.319640,136.955060L250.312065,136.861464L249.843076,137.131151L249.666161,137.542056L249.553630,138.011703L249.276741,138.454417L248.785558,138.711496L248.196705,138.733713L247.546384,138.592476L245.721570,137.867313L245.160067,137.516671L244.626693,137.031207L244.250413,136.536273L243.586305,135.443468L243.200804,134.943935L242.658137,134.446038L242.168134,134.182838L241.670057,134.076611L241.093254,134.057586L240.629490,133.835627L240.269274,133.299002L239.666453,132.113402L239.145120,131.491391L238.749738,131.302030L238.391147,131.427213L237.071113,132.229096L235.999589,132.445437L233.906305,132.271888L233.338104,132.399473L232.819606,132.632463L232.235312,132.779871L231.598592,132.790966L230.936385,132.618198L229.842281,132.037330L229.406599,131.906584L228.840725,131.988201L228.419623,132.145099L227.989746,132.420078L227.782743,132.840896L228.029029,133.431369L228.844842,134.423840L229.179277,134.932835L229.238883,135.275366L228.788813,135.315012L226.959476,135.032737L226.416914,134.858306L223.447245,132.335284L222.661445,132.127665L222.056227,132.632463L221.785151,132.974044L221.674345,133.339425L221.803372,133.795992L222.372220,134.680709L222.510661,135.097754L222.253037,135.513248L221.069494,135.660741L220.817532,135.963670L221.022049,137.086731L220.979137,137.564268L220.608104,137.933954L219.991867,138.041850L219.213918,137.913327L216.955172,137.170812L216.585817,137.267587L216.454169,137.673743L216.441896,138.395704L216.733043,142.110314L216.446813,142.820218L213.659182,145.225445L210.177529,147.061138L208.930949,148.539730L208.182220,148.808469L206.939449,148.196275L205.919740,147.320256L205.439287,147.015038L204.199914,146.635132L203.814399,146.225057L203.460962,145.726020L202.955456,145.246102L202.280440,144.904468L201.617601,144.759876L200.980426,144.767821L199.855556,145.042708L199.422037,145.076076L198.938893,144.960081L198.261673,144.658188L191.611230,140.603496L190.812185,139.811371L190.473772,138.598824L189.883526,137.921260L185.891059,137.056589L184.883660,136.396685L183.908316,135.616334L183.308279,135.215104L181.524368,134.583985L180.344506,133.868127L179.763617,133.645384L179.151053,133.512218L178.572618,133.518559L176.670634,134.056000L176.279712,134.268456L176.191936,134.641068L177.058026,135.801894L176.878470,136.098488L176.484175,136.293583L176.257949,136.569584L176.930415,136.932850L178.431351,137.262827L179.946145,137.875247L180.655183,139.087616L180.597090,139.349488L180.374013,139.884387L180.385436,140.152651L180.541733,140.395531L181.016066,140.733677L181.195029,140.928955L181.411416,141.564059L181.474576,142.720158L181.686482,143.366612L183.220785,145.600474L183.590238,146.577910L183.172588,147.479232L182.104294,148.430013L181.219891,148.768713L181.101591,148.793825L180.051146,149.016791L179.518363,148.934097L178.872561,148.639909L178.274015,148.271006L177.096579,147.312308L176.508014,146.658975L176.229243,146.058176L176.174259,145.443149L176.270824,144.048102L176.215134,143.457155L175.837839,142.091257L175.827409,141.470376L176.749852,140.025660L176.819413,139.727244L176.784732,139.416149L176.645242,139.122531L176.386894,138.865432L175.997479,138.725778L174.853266,138.527413L174.577100,138.397291L174.020571,138.035503L173.715437,137.884767L171.665166,137.599173L170.984935,137.305662L170.483379,136.902709L170.047479,136.485513L169.588417,136.114349L168.487313,135.651225L167.971050,135.353073L166.977617,134.593499L166.904438,134.071855L166.725801,133.765077L166.461758,133.489232L166.127495,133.069151L165.516357,131.878059L165.166044,131.423252L164.602145,131.140405L163.292456,130.982747L162.671148,130.715769L161.771071,129.663840L161.177601,129.262296L160.053909,128.676273L159.357695,128.528195L158.174354,128.707157L153.390687,127.626355L152.631156,127.091187L152.292846,126.537079L151.822210,126.158737L150.795380,125.495521L150.510314,125.008056L150.454458,124.479496L150.298350,123.973933L149.708510,123.541991L150.447504,123.208961L150.577327,122.962960L150.235993,122.464667L149.842270,122.196558L148.650252,121.635078L145.934412,120.827763L145.513752,120.544719L144.791621,119.818207L144.415642,119.534428L143.409639,119.237229L143.350040,119.245923L142.763225,118.957435L142.258803,119.192967L141.911674,119.238810L140.033388,119.029358L139.895198,119.065715L139.792049,119.158190L139.653818,119.210356L139.408388,119.135268L139.206270,118.975613L139.067751,118.804108L138.912957,118.668172L138.668760,118.612851L138.297335,118.604948L138.013768,118.662640L137.977326,118.904481L138.354257,119.447480L135.430999,119.364485L134.599467,119.656159L134.356770,119.885399L134.139272,120.163663L133.888952,120.400832L133.543162,120.491749L133.155408,120.415853L132.440148,120.120973L131.923465,120.055359L132.082377,119.500439L131.547890,119.353419L130.235723,119.447480L129.965948,119.333659L129.318871,118.904481L129.047584,118.801737L128.710878,118.889465L128.603387,119.113138L128.559667,119.341563L128.423016,119.447480L127.859717,119.504391L127.599667,119.598455L127.443220,119.761292L127.315179,120.015833L127.102858,120.304382L126.867753,120.422968L126.671682,120.168406L124.498243,120.055359L124.068793,120.336004L123.864593,120.288570L123.286344,120.043501L122.716521,119.696472L122.210282,119.276749L121.819965,118.901320L121.569354,118.590722L120.279568,116.597973L117.910415,114.155108L117.309122,113.232919L116.630124,112.013324L115.896076,110.989719L115.141281,110.659083L114.851518,110.931323L114.834161,111.856258L114.424586,112.196442L113.766722,112.250116L112.390021,112.164870L111.848331,112.445083L111.627515,112.873720L111.389440,113.843219L111.035747,114.197748L110.462885,114.358833L109.733001,114.390419L108.970266,114.315403L108.293412,114.147212L107.564969,113.823480L106.827629,113.600038L106.139036,113.555035L105.536899,113.758736L105.203430,114.107731L104.732869,114.984272L103.767849,116.196673L104.124986,117.124135L104.801072,118.137900L105.129991,119.268845L104.394535,119.862474L103.343978,120.454591L102.262038,120.542348L101.431515,119.630864L101.180582,118.920288L100.986352,118.478501L100.647924,118.201909L99.962916,117.982227L99.375314,117.992500L99.108687,118.312544L98.949277,118.793043L98.682513,119.273588L97.562365,119.806349L95.650709,120.056940L93.793238,119.917809L92.846649,119.276749L92.844023,119.268055L92.511139,118.900530L91.975050,118.405005L91.566529,117.952199L91.617770,117.713564L93.864451,117.367484L94.281809,117.169960L94.530509,116.860257L94.578976,116.387839L94.387754,115.692722L93.962232,115.087730L93.432275,114.884766L92.363593,114.859494L91.826457,114.681809L91.451522,114.414899L90.613905,113.592142L90.116151,113.379763L89.637800,113.493452L89.170940,113.727154L88.720806,113.868485L82.740289,113.556614L82.076590,113.329236L81.510803,112.766360L81.103731,112.267481L80.596674,111.857837L80.056764,111.545297L79.548951,111.330635L78.189347,111.121505L77.796312,111.641583L78.180349,112.659792L80.079665,115.198298L80.250889,116.075025L79.786464,116.644583L78.820478,116.988244L78.271607,117.044338L77.635876,116.985084L77.262644,116.720423L77.489570,116.163496L77.798063,115.650860L77.554071,115.514218L76.428149,115.497632L75.308033,114.930570L74.865721,114.913196L74.968026,115.583723L75.149876,116.345972L74.887055,116.583753L74.458547,116.684083L74.144950,117.044338L74.202960,117.497854L74.953763,119.273588L75.059753,119.965240L74.939273,120.281455L74.594321,120.392135L74.043779,120.465660L74.012972,121.004871L73.768654,121.287150L73.363514,121.405759L71.942226,121.462693L71.667742,121.529907L71.529128,121.702295L71.704374,121.898413L71.962035,122.077931L72.078349,122.201304L71.818700,122.496303L71.508967,122.685334L71.371006,122.966124L71.612798,123.553066L71.941611,124.092605L72.091826,124.479496L72.019831,124.781750L71.695243,125.065822L69.183514,126.214933L65.070574,126.917824L64.175376,127.321556L61.398068,129.747004L60.627805,131.007306L60.285703,131.233893L54.508029,131.276677L52.446025,130.805288L51.909615,130.922537L51.675475,131.239439L51.517576,131.744148L51.448279,132.309926L51.535528,133.318817L51.437641,133.773004L51.086298,134.593499L51.049111,135.464085L51.852114,136.226964L52.900805,137.021688L53.617665,137.987902L53.541797,139.025721L52.783292,139.685976L50.905124,140.393943L47.710069,141.070258L46.904957,141.799068L45.371148,144.090997L41.695570,146.778189L40.668953,146.945095L39.476715,146.732093L35.871811,145.182540L35.255174,145.130103L34.985102,145.532140L35.265484,146.137642L35.935375,146.409427L37.230079,146.608110L38.022316,147.285283L38.414072,148.239206L38.906092,150.395760L40.776750,154.826381L42.031822,156.958792L43.513684,158.634806L44.274087,159.807727L44.375532,160.901224L44.639840,161.706364L46.440232,162.144863L46.866802,162.486123L47.213353,162.991679L47.830757,164.207147L47.914039,164.532601L47.813984,164.837334L47.562689,165.365788L46.171379,167.204378L44.020425,168.376202L39.463374,169.992303L39.200939,170.219110L38.809862,170.862848L38.538233,171.027389L38.221312,170.965086L36.619755,170.276612L35.220489,169.361451L34.967494,169.264036L34.293815,169.377421L33.432127,169.324721L33.013396,168.869601L32.655801,168.189394L31.988211,167.462986L30.845960,166.800531L30.493826,166.538766L30.252174,166.265843L29.840882,165.649830L29.595806,165.364192L29.044360,164.468784L28.649044,163.583423L28.184371,162.722149L27.432188,161.897704L26.003566,161.095721L25.609212,160.760937L25.319326,160.332128L25.091544,159.909734L24.817827,159.536783L23.662721,158.824430L22.361385,157.623074L21.215900,156.926934L20.586451,156.353531L19.170855,155.278584L18.832635,155.128906L18.317126,154.974457L18.023349,154.746772L17.778582,154.439495L17.398763,154.036721L16.973017,153.734264L15.744735,153.232864L13.705295,151.555542L12.990008,151.189600L11.960803,151.192782L10.986081,151.674877L10.179969,152.449829L9.664066,153.329956L9.611058,153.534817L9.273495,154.837526L9.021926,155.176675L7.488338,155.754716L7.148304,156.050929L7.041953,156.649781L7.344615,157.017729L7.767111,157.344287L8.023434,157.822217L7.910603,158.284261L7.208614,158.979003L7.047146,159.396535L7.468278,160.257210L9.197797,161.773332L9.515857,162.894391L9.260818,163.763673L8.145935,165.383340L6.846790,166.778184L2.014396,168.725888L1.318807,169.430123L1.092590,170.698311L1.503290,178.242633L1.892107,185.796825L3.365586,186.237279L7.585038,188.532911L9.131195,189.859697L9.810081,191.446396L9.758448,193.105585L9.122106,194.643264L8.250277,195.985573L7.870274,196.333616L7.402125,196.715357L5.763787,197.546267L5.042533,198.096510L4.617725,198.778347L3.205668,206.371598L1.689768,214.382986L1.677193,214.404677L1.674030,214.423155L1.684206,214.433599L1.702040,214.433599L8.304111,216.241331L14.910115,218.049288L17.495553,218.627878L18.080159,218.938076L18.508410,219.385703L18.582290,219.658761L18.587776,219.679037L18.397759,220.268937L18.274533,220.432891L18.058468,220.603276L17.953838,220.812241L18.148260,221.096759L18.818386,221.584629L19.019323,221.780745L19.360849,222.406884L19.373223,222.955073L19.316987,223.483986L19.440793,224.045066L19.931764,224.446995L21.308214,224.574006L21.849032,224.959868L21.658339,225.582083L20.827571,226.345807L19.131000,227.365214L18.843321,227.622484L19.101727,227.982667L21.290570,229.824653L22.410209,231.007409L22.536385,231.190736L22.552113,231.451255L22.458831,231.578298L22.322631,231.681220L22.197961,231.874199L22.004721,232.418567L21.956675,232.802121L22.152219,233.167184L22.682071,233.645631L23.687489,234.334763L28.928780,237.047951L29.271050,236.970752L29.338997,236.362809L29.152041,234.924996L28.681110,233.046568L28.701648,232.583406L29.078068,232.301169L29.662053,232.347003L35.489757,234.488352L45.230471,234.360495L47.076173,235.019884L48.880811,236.129604L55.177345,242.969115L55.187500,242.973940L56.791318,244.442371L57.574246,244.957846L58.526012,245.231264L59.469277,245.323743L59.891132,245.548106L60.285960,246.069204L60.726465,246.817875L66.529324,255.172276L76.747269,265.496172L75.671353,267.025272L75.025319,267.565199L71.365063,268.179021L70.696156,267.938798L69.737651,266.750479L69.230696,266.243465L68.617850,265.840895L67.069412,265.455190L65.602965,265.725185L64.553069,266.631561L64.258207,268.159739L63.830746,268.864316L64.314068,268.913322L64.841537,269.091669L65.868619,269.567250L66.174865,269.885365L66.352356,270.342442L66.581092,270.777011L67.042968,271.024411L66.629384,271.750519L67.546422,272.051713L69.849054,272.085446L70.892391,272.295072L71.712086,272.805066L72.509012,273.454774L74.288430,274.507561L74.905182,274.530045L75.490214,274.411200L76.198297,274.416821L76.779911,274.660934L78.045452,275.564264L80.179710,276.818362L85.606594,279.211071L85.604344,279.208924L85.544615,279.030698L85.416547,278.763984L85.229851,278.173650L84.926966,277.582017L84.446702,277.312737L84.185108,277.289981L83.897503,277.193898L83.650574,276.997936L83.517696,276.678068L83.620645,276.550371L83.900903,276.541520L86.005817,277.090228L86.415796,277.312737L86.616073,277.134477L86.700629,277.081378L85.581937,276.220374L85.393820,275.924506L85.226988,275.441491L85.015724,275.150660L84.755458,274.958454L84.428486,274.767510L85.112211,274.814298L85.550829,274.979951L85.917218,275.298605L86.389252,275.808180L86.855604,276.227960L87.442176,276.648988L88.632805,277.312737L88.667661,276.990350L88.616259,276.647724L88.489624,276.321524L88.321620,276.042096L87.179033,275.192388L86.462829,274.905344L86.159125,274.270533L85.925259,273.614187L85.425219,273.263867L85.378130,273.071630L85.884529,273.124748L86.264316,273.481396L86.618288,273.948056L87.066306,274.342615L87.168675,274.321117L88.099689,274.357790L88.634912,274.536096L88.002043,273.545895L85.970022,271.933317L85.584647,271.140229L86.174080,271.747382L87.054245,272.198933L88.016091,272.494898L88.844543,272.627701L88.821727,272.510076L88.819011,272.292529L88.917694,272.157194L89.189726,272.297589L89.786927,272.720029L89.915646,272.838917L89.953059,273.048865L89.917602,273.325838L89.958081,273.564865L90.204595,273.667303L90.462590,273.709037L90.934139,273.875971L91.219975,273.898735L90.955387,273.582570L90.499479,272.785797L90.062861,272.413951L89.863101,271.915609L89.616177,270.928983L89.791852,271.576623L90.166914,271.978851L90.657049,272.221700L92.290319,272.794650L92.704442,273.181661L93.088228,273.898735L93.284936,273.576247L93.384465,273.205691L93.599449,273.023570L94.125710,273.263867L93.605627,271.880193L93.532550,271.288225L93.952244,271.458988L96.018092,273.263867L96.000110,273.018511L95.718388,272.231818L95.703325,271.990235L95.968296,271.953554L96.349702,272.166047L97.001755,272.733942L97.291204,272.878124L97.299184,272.565726L97.132653,271.892841L97.363980,271.777739L97.609401,271.940906L98.028058,272.393714L98.718148,272.606199L98.765292,272.206522L98.679969,271.641132L98.963664,271.352736L99.722033,271.513379L100.064892,271.504524L100.223959,271.041564L101.021648,270.715204L101.185505,270.509011L101.453052,270.018183L101.656396,269.848666L101.979434,269.752521L102.940797,269.848666L103.389229,269.661435L103.695216,269.212324L104.142058,268.149579L105.862938,266.118754L106.540519,265.683451L106.838510,265.602463L107.124054,265.746722L107.127677,266.084588L107.056447,266.471797L107.130965,266.769155L107.591868,266.836218L107.974993,266.326278L108.605927,264.600200L108.685916,264.474913L108.829717,264.329376L109.013422,264.245850L109.470265,264.192697L109.625460,264.116763L109.734601,263.825682L109.782141,263.451065L109.885507,263.089096L110.157655,262.842295L110.378105,263.934521L110.359973,264.329376L110.678006,263.982613L110.971641,261.972767L111.123452,261.651272L111.217725,261.527229L111.329884,261.522166L111.547695,261.566467L111.834058,261.681650L112.805580,262.295523L113.040908,262.489173L113.285102,262.557520L113.510203,262.301851L113.660010,262.213252L114.448033,261.972767L115.044976,262.098073L115.196423,262.432217L115.043002,262.906843L114.728652,263.458658L115.208191,263.632046L115.551174,263.377659L115.759654,262.904312L115.842940,262.417029L115.556291,260.950038L115.537557,260.317134L115.925709,260.370299L116.474326,260.544982L117.107954,260.408274L117.664744,260.096878L118.343795,259.271532L118.614455,259.101901L118.809036,259.309508L118.796072,259.712058L118.475189,260.337387L118.482161,260.699411L118.869078,261.233573L119.224480,260.942444L120.474897,258.005600L120.542833,257.724553L120.411079,257.620742L120.380184,257.396660L120.470066,257.170045L120.715397,257.068764L121.012473,257.170045L121.686258,257.620742L122.077129,257.724553L122.462386,257.537186L122.968211,256.690221L123.374403,256.450938L126.492149,255.810307L127.351748,255.368440L128.296598,254.677138L128.899482,254.551790L130.062980,255.110154L133.406413,255.710287L134.915333,256.162276L136.588959,256.405360L137.267616,256.666166L137.841372,257.068764L138.770560,258.163845L139.416206,258.710733L139.869065,258.661362L139.970557,258.084089L139.935714,257.402990L140.001068,256.796568L140.397060,256.450938L141.039302,256.539561L141.506957,257.015591L141.723542,257.654923L141.563287,258.980374L142.035187,259.512050L143.162995,260.167766L143.675630,260.590551L144.257399,260.936115L144.839233,261.141171L145.364173,261.142437L146.295321,260.547514L146.843020,260.317134L147.416517,260.466501L147.216724,260.663968L146.665302,261.566467L147.303237,261.831006L148.171056,262.013270L148.970367,262.048710L149.403095,261.866447L149.609776,260.699411L149.910172,260.150044L150.436646,260.274096L150.613203,260.609538L150.487624,260.889281L150.277877,261.125982L150.190483,261.334834L150.343014,261.718356L150.561722,261.889230L150.852574,262.025927L151.849724,262.766355L152.211061,262.978985L152.337969,262.937219L152.475678,263.372597L152.620441,263.601672L152.813116,263.734559L153.095199,263.883898L153.775874,264.139543L156.971335,264.323048L157.093186,264.223070L156.947899,263.876305L156.723565,263.529532L156.479369,263.230847L156.271760,263.033408L156.031888,262.929625L155.317877,262.709400L155.127980,262.610678L154.962218,262.185407L155.098021,261.929733L155.408596,261.877838L156.369824,262.392981L157.036590,262.355010L159.209215,261.623426L159.546875,261.312050L160.343314,260.056371L160.358320,259.751300L160.157722,258.965183L160.164003,258.619586L160.327918,258.342345L160.786653,258.277781L162.422711,258.494258L162.904044,258.661362L163.982782,259.489264L164.514615,259.732312L165.158164,259.869025L167.960781,259.869025L169.388699,260.061435L171.578447,259.658892L172.690497,259.637372L173.149832,259.903203L174.444024,261.162690L175.000852,261.566467L175.425213,261.585453L176.463172,261.474067L176.724287,261.663929L176.939934,262.063899L177.622421,262.878999L178.663630,265.060844L178.862527,266.055484L179.135063,266.486981L179.678486,266.662866L180.477279,266.746379L181.345957,267.085488L182.024429,267.800374L182.268481,269.018759L182.270334,269.408417L182.181156,269.515950L181.926193,269.656375L181.701962,269.667760L181.107343,269.583000L180.887349,269.656375L180.772002,270.048544L180.707355,270.548226L180.548597,270.707614L180.146937,270.078905L180.080482,270.595030L180.273056,271.738528L180.200776,272.202727L179.869937,272.472132L179.424421,272.445571L179.033736,272.142016L178.838920,271.565239L178.425926,272.878124L178.321287,273.714096L178.531459,274.342615L179.065130,274.525980L179.543569,274.168100L179.975707,273.681215L180.382612,273.476337L180.365532,274.042903L180.527721,274.619557L180.872044,275.101344L181.393916,275.385854L181.454914,275.617250L180.929650,275.412408L180.030232,274.835795L179.496351,274.767510L181.045796,275.884045L182.515309,277.158498L183.654256,278.781681L184.221892,280.937926L184.220044,283.701386L184.551990,285.842564L184.570097,286.354093L184.469893,286.787288L184.086023,287.505861L184.056449,287.906164L184.297868,288.377156L184.247952,288.186489L184.518891,288.754686L184.523628,289.231940L184.207820,290.072743L184.134334,290.407272L184.083889,291.095216L184.035283,291.361541L183.888717,291.643002L183.333795,292.304329L183.103764,292.922691L182.934547,294.111310L182.747607,294.653818L182.160840,295.713479L181.979738,295.887550L181.416845,296.099457L181.186953,296.250815L180.879167,296.683428L180.298271,298.155108L180.180347,299.289852L180.031603,299.842021L179.682729,300.079010L179.244826,300.208846L179.052611,300.578171L179.058537,301.145350L179.208866,301.876303L179.329094,302.167400L179.454918,302.385398L179.505743,302.613469L179.388606,302.942329L179.390597,303.210696L179.601445,303.433696L179.805317,303.700780L179.782652,304.095086L180.273833,304.367179L181.629834,304.854647L182.575490,304.971785L182.836963,305.066249L183.060805,305.236280L183.665581,305.780346L183.929949,305.893686L184.579415,306.018359L188.102029,307.400899L189.338533,307.706825L190.122980,307.791172L190.403411,307.918319L190.618608,308.093300L190.820491,308.303520L191.076267,308.477229L193.820747,308.919030L194.350380,309.185855L194.469213,309.500491L194.380787,309.749669L194.201005,309.930882L194.056830,310.029036L193.978598,309.979959L193.315245,309.820141L193.192404,309.898163L192.969078,310.195140L192.832386,310.259315L192.274443,310.378854L191.368847,310.923669L190.883262,311.085970L190.240968,311.023063L188.743426,310.565079L188.053393,310.451835L185.787421,310.682095L185.122721,310.508457L183.722187,309.940949L181.121423,309.594878L176.465479,307.959862L175.210588,307.706825L173.430559,307.963638L172.287173,307.690459L164.745029,308.552753L164.174577,308.488558L163.080264,308.197781L162.494595,308.129805L162.058657,308.264498L161.398104,308.858615L160.988317,308.992031L160.477976,308.858615L159.652291,308.264498L159.219406,308.129805L156.980037,307.812573L156.791443,307.383273L156.476308,306.922463L156.092332,306.504427L155.715147,306.209769L155.324756,306.532129L155.132549,307.072293L154.996930,307.682905L154.760487,308.226734L154.542226,308.333731L153.970615,308.304779L153.776782,308.435691L153.193514,309.185855L152.441969,309.691780L151.281203,309.995060L150.031138,310.001352L148.997623,309.608721L148.063750,308.571634L147.635607,308.292191L147.627522,308.877495L147.716435,309.572225L147.617917,310.066788L145.991219,312.394260L145.874564,312.899875L145.845036,313.377774L145.334565,314.395045L145.165941,314.923090L145.099765,315.345485L145.237704,315.503874L145.563493,315.979010L145.652920,316.188910L145.638989,316.493060L145.561378,316.853742L145.545010,317.221937L145.737391,317.548640L146.170328,317.977089L146.679643,318.587656L147.000835,319.183071L146.879245,319.581229L146.319114,319.537270L145.714556,319.086353L145.129344,318.565044L144.638995,318.316302L144.112277,318.421831L143.565980,318.686897L142.647460,319.348870L142.464797,319.561133L142.280352,319.988143L142.157223,320.192843L141.860801,320.433543L141.579953,320.482516L140.924946,320.403405L140.443534,320.469959L139.828301,320.665849L139.334251,320.994824L139.203524,321.458113L139.413444,321.815906L139.727812,321.901271L140.077820,321.923867L140.406047,322.089569L140.532643,322.301709L140.600075,322.589151L140.560652,322.842688L140.361972,322.950626L140.043615,323.220459L140.059260,323.844157L140.295475,324.546821L140.631315,325.056193L142.456026,325.959387L142.796049,326.212755L142.954293,326.403400L143.247734,326.502483L144.176435,326.606580L144.408229,326.754571L144.631210,326.957738L144.945072,327.179708L147.251530,328.330796L148.263186,329.004035L149.090451,329.932899L150.517077,332.224977L151.350615,332.782516L152.541106,332.647208L153.657364,332.297648L154.264929,332.361548L155.495362,333.189676L157.198325,333.909973L157.637750,334.195564L158.097750,334.587606L158.336097,335.013441L158.089624,335.399174L157.540120,335.461791L155.674917,334.767963L154.027124,335.089838L153.253149,334.895713L153.201975,333.909973L152.812251,333.896194L152.163277,334.086590L151.794231,334.139199L151.169538,334.097863L151.005199,334.139199L150.867517,334.254435L150.822919,334.372174L150.806953,334.481144L150.764990,334.560051L149.717308,335.757335L149.217671,336.029074L148.495889,336.193115L147.762107,336.218159L147.008163,336.104208L144.749936,335.262667L143.991094,334.863149L143.452701,334.349628L143.685419,334.302032L143.850855,334.165503L143.866555,333.963835L143.641247,333.718319L143.364959,333.648170L142.770646,333.737109L142.494964,333.603074L141.527348,332.766229L140.451351,332.038285L139.833475,331.782670L139.172855,331.661124L137.849327,331.616013L137.565358,331.663630L137.471288,331.806478L137.436171,332.038285L137.335207,332.352777L137.085829,332.515655L136.770790,332.387859L136.302397,332.038285L134.086399,332.030767L133.675860,331.931780L133.291700,331.448099L132.669428,331.448099L131.579631,331.826526L130.390450,331.876647L126.241202,331.196219L125.919315,331.030800L125.649525,330.826525L125.405220,330.751331L125.152064,330.966886L125.137926,331.286446L125.237855,331.711246L125.266233,332.087151L125.028208,332.247531L125.061961,332.721126L125.014826,333.578020L124.753301,333.978867L124.118146,333.086949L123.932965,333.665707L124.118627,334.677785L124.499628,335.682198L124.888563,336.239446L124.757464,336.468594L125.086412,337.049569L125.231446,337.719387L125.401008,339.105158L125.748265,339.769790L126.334112,340.332994L127.010946,340.779776L127.628113,341.091382L128.891690,341.555643L138.139867,342.998322L140.504021,343.872829L141.683179,344.514583L142.524751,345.306398L142.787001,345.794216L143.054390,346.428345L143.777764,348.990768L143.809403,349.395903L143.761546,349.662236L143.805273,349.932314L144.110442,350.343672L144.350551,350.498710L144.958410,350.648745L145.253406,350.783775L145.562153,351.050080L146.019517,351.643936L146.534000,352.176512L146.878035,352.745322L147.106647,353.004093L148.015013,353.611627L148.295423,353.946637L148.412749,354.239140L148.514388,354.904132L148.605254,355.206620L148.746684,355.379112L148.979116,355.602848L149.213133,355.866580L149.359920,356.161555L149.576298,356.697751L149.917403,357.237685L153.305546,361.541815L154.191556,362.374097L154.618219,362.647774L154.822180,362.712756L155.159825,362.775239L155.431124,362.719004L155.686531,362.606535L155.912226,362.659021L156.105337,363.100150L156.432260,363.615006L157.595628,364.262323L158.087356,364.682203L158.215693,364.952126L158.419459,365.646927L158.538823,365.939344L158.726627,366.224263L159.872888,367.633871L160.147256,368.246207L160.963968,372.280327L161.015898,373.576399L160.706852,376.077513L160.787480,376.782532L161.194739,377.093799L163.539794,377.093799L165.785253,376.652526L166.121375,376.722529L166.780996,377.022545L167.121596,377.093799L167.362192,377.018794L167.495743,376.845035L167.604135,376.636276L167.762813,376.463770L168.327813,376.335017L169.592758,376.400018L170.470683,375.960012L170.983077,376.317516L171.430304,376.932539L171.667977,377.512581L171.669609,377.873868L171.580224,378.117647L171.564944,378.376432L171.789964,378.770243L172.038433,378.887764L172.410429,378.942774L172.765684,379.047793L173.250875,379.674175L174.759061,380.888260L175.172162,381.490969L175.715508,382.633944L176.083113,383.110425L176.604992,383.649461L177.404126,384.626295L177.878168,385.105365L179.758947,386.686582L180.333477,386.914279L180.859264,386.739127L181.649712,386.153644L183.207360,385.575701L185.353861,385.267979L185.968697,385.313011L187.073088,385.955988L189.282314,388.026569L190.021144,388.270566L190.103137,388.122916L190.250066,387.589895L190.347448,387.412228L190.618374,387.214546L190.889322,387.084429L191.187205,387.013116L191.549308,386.991847L194.122081,387.182017L196.968821,388.034077L198.445332,388.766087L198.740680,389.531949L199.973298,389.629563L201.022318,390.117655L201.844406,391.022578L202.390946,392.375777L202.451866,392.975467L202.414316,393.715445L202.284068,394.341544L202.064937,394.590747L201.762516,394.350310L201.372002,393.803096L200.738194,392.682502L200.603375,392.674990L200.517197,392.510985L200.417557,392.275624L200.235520,392.051538L199.199799,391.499488L198.945620,391.420627L198.404002,391.136483L197.958983,390.503142L197.606377,389.857336L197.345348,389.531949L197.130830,389.764724L197.303418,390.421788L197.765183,391.106442L199.011225,391.728565L199.681585,392.433365L200.654594,393.750505L201.280626,394.925118L201.547476,396.034797L201.569472,397.164707L201.446908,398.393804L201.453124,398.648173L201.544681,399.174488L201.525573,399.427637L201.384048,399.724662L200.792382,400.401483L200.757350,400.649671L200.814788,400.986872L201.004373,401.643782L201.037800,402.002356L200.979748,402.293245L200.876555,402.552801L199.906624,404.245860L199.178396,406.410010L198.826282,406.676045L198.411709,406.839187L198.106410,407.083909L198.077804,407.577156L198.161068,408.145770L198.152795,408.767180L198.058172,409.342215L197.880114,409.779188L198.806768,410.562829L199.028221,410.850449L199.114844,411.158186L199.195137,412.210929L199.377317,412.621794L199.639376,412.870593L199.940858,413.057830L200.239502,413.285290L200.692473,413.790520L201.114890,414.437856L201.573158,415.661155L201.623531,416.838281L201.180076,419.096670L201.144670,419.788919L201.337510,420.397305L202.161789,419.423774L205.232082,415.902363L207.899497,412.836395L207.906669,412.833203L207.905319,412.827618L212.391531,408.726542L216.083958,407.455164L217.343064,406.678154L222.492286,404.669642L224.104615,404.346251L228.425180,403.611923L232.185051,402.977232L238.063004,401.981149L240.052786,402.221594L242.062199,402.823548L246.631073,405.201769L251.590987,407.781147L254.556679,409.326080L258.053037,411.146699L263.278089,414.731107L264.065166,415.439250L264.471568,416.045300L264.597217,416.567581L264.626290,417.106703L264.755970,417.772920L265.046845,418.395304L265.454029,418.953057L268.939749,422.218916L270.455627,423.638890L272.790403,426.324402L275.071965,428.948722L276.079919,429.822356L277.155657,430.540677L279.014993,431.547880L279.525151,431.966573L279.966645,432.494431L281.075583,434.067309L281.640056,434.598739L282.265937,434.969672L283.079146,435.345469L283.937411,435.591208L287.141709,435.420955L288.524687,434.886168L290.836515,434.571443L292.879520,433.552023L293.724265,433.486213L295.519163,433.638700L293.727345,426.516590L291.922936,419.413384L290.107722,412.321759L288.277357,405.241601L286.437681,398.171195L284.584167,391.109621L282.722226,384.053573L280.847342,377.002131L278.965541,369.954373L277.071691,362.906997L275.171803,355.859081L273.261396,348.809703L271.345180,341.753177L269.420196,334.694143L267.490923,327.626116L265.553559,320.550564L265.553123,320.548969L265.552252,320.545780L265.551816,320.544185L265.551380,320.542590L265.550944,320.540995L265.550508,320.539401L265.549637,320.536211L265.549201,320.534616L265.548329,320.531427L265.547894,320.529832L265.547022,320.526643L265.546586,320.525048L265.545715,320.521858L265.545279,320.520263L265.544843,320.518669L265.544407,320.517074L265.543971,320.515479L265.543536,320.513884L265.545702,320.512290L265.547869,320.510695L265.547434,320.509100L265.546998,320.507505L265.546562,320.505911L265.545690,320.502721L265.548293,320.502721L265.547857,320.501126L265.546986,320.497937L265.546550,320.496342L265.546114,320.494747L265.545678,320.493153L265.547845,320.491558L265.550012,320.489963L265.549576,320.488368L265.551743,320.486773L265.551307,320.485179L265.553474,320.483584L265.555641,320.481989L265.557808,320.480394L265.557372,320.478800L265.556936,320.477205L265.559539,320.477205L265.561706,320.475610L265.561270,320.474015L265.563437,320.472421L265.565604,320.470826L265.567770,320.469231L265.570373,320.469231L265.569937,320.467636L265.572540,320.467636L265.575143,320.467636L265.577309,320.466041L265.576874,320.464447L265.579040,320.462852L265.581643,320.462852L265.584246,320.462852L265.583810,320.461257L265.585977,320.459662L265.588579,320.459662L265.590746,320.458068L265.593349,320.458068L267.771001,319.799786L269.951520,319.144196L272.128352,318.486918L274.311900,317.827953L276.490032,317.170492L278.667513,316.512942L280.841742,315.855303L282.538873,315.342387L283.017919,315.197575L285.196042,314.539760L287.368756,313.883455L289.542971,313.225468L291.716085,312.565797L293.892032,311.909237L296.063830,311.249399L298.235417,310.591075L300.406345,309.932669L303.311342,309.098358L306.214777,308.262320L309.120145,307.427753L312.023945,306.591462L313.368083,306.215650L314.712900,305.843011L316.057031,305.468749L317.405665,305.092862L318.808097,304.715352L320.211967,304.334617L321.615592,303.953857L323.016836,303.574673L324.905533,303.069055L325.508124,303.117059L326.268287,303.379471L328.519980,304.507390L329.160371,304.830527L330.988362,305.745449L333.845576,307.176719L337.587313,309.050406L340.149323,310.331623L342.065423,311.289343L347.124317,313.817980L352.623769,316.560825L358.405018,319.442493L364.320991,322.384166L370.221563,325.318085L375.951562,328.159578L381.359987,330.840461L386.298336,333.284685L390.607372,335.416256L394.138574,337.160789L396.735545,338.443875L398.580473,339.354783L399.423462,339.995377L400.122421,340.810749L400.505862,341.557708L401.142355,343.149947L401.600836,343.868112L403.707558,345.957167L407.424275,348.700125L409.200215,350.011824L410.979648,351.324983L413.285970,353.115108L415.176515,354.587551L417.072966,356.060677L418.966986,357.532912L420.861425,359.005067L422.712760,360.445414L424.567577,361.887301L426.422303,363.327568L428.274545,364.767023L430.749865,366.685764L431.322458,366.880972L431.892455,367.076180L431.945807,367.067163L433.944005,366.729408L434.793352,366.583399L435.647896,366.437390L436.502624,366.292175L437.352283,366.147753L438.719315,365.916044L440.083111,365.682748L441.446771,365.449453L442.811006,365.218537L445.029739,364.887638L447.247684,364.555152L449.465793,364.224253L451.685977,363.892559L453.903464,363.561659L456.120639,363.230757L458.337502,362.899855L460.555956,362.566571L464.517253,362.875256L468.479949,363.187113L472.444010,363.493415L476.403979,363.802097L480.008356,364.083799L483.618097,364.364707L487.222122,364.647201L490.825772,364.927315L492.258672,365.036821L492.667742,364.924934L493.074165,364.813047L495.243255,363.569594L497.316895,362.378503L499.454681,361.149302L501.550718,359.942291L501.961310,359.791512L502.368755,359.639144L502.792550,359.694695L503.214227,359.751833L503.740239,360.084341L504.275141,360.420020L507.984744,363.546582L511.696325,366.675448L513.329955,367.854637L514.959988,369.029876L518.030808,370.476544L521.098652,371.923268L521.724676,372.316108L522.349425,372.708955L525.739828,376.647307L527.904257,379.160609L530.893138,382.632806L533.455210,385.615124L533.686096,385.637365L533.911713,385.659607L537.043790,383.899496L540.172215,382.138081L542.002011,389.774411L543.814882,397.416176L544.001337,398.227686L544.187840,399.040098L544.139859,399.305091L544.094488,399.570095L543.825584,399.675145L543.556666,399.780196L543.547931,399.992693L543.536781,400.205993L543.807172,401.134803L545.279419,406.209615L547.014270,412.220434L547.090983,412.386384L547.170578,412.553138L547.303295,412.632927L547.437454,412.708727L550.526158,412.720696L553.340065,412.730271L556.141822,412.739048L559.240073,412.751815L559.334164,412.739048L559.423202,412.727079L559.522399,412.731069L559.620029,412.734261L559.711931,412.753411L559.804670,412.770965L559.878441,412.804478L559.951725,412.836395L561.582819,416.740891L563.212308,420.648389L565.180919,424.470337L567.149134,428.298056L569.615528,432.869923L572.070958,437.446955L572.839893,438.086698L573.600835,438.726582L574.287731,438.879587L574.734199,438.979039L575.868488,439.229909L578.808987,439.065876L581.280362,438.930797L584.972937,438.724974L587.679963,438.573833L590.910703,438.395368L592.966951,438.279613L596.249946,438.094735L599.488099,437.916300L599.804696,437.991852L600.119487,438.065799L600.739824,438.324628L601.357045,438.581872L601.666535,438.673521L601.975549,438.763565L602.213300,438.731406L602.450564,438.697640L603.060149,438.247459L603.669064,437.795742L603.936827,437.602859L604.207216,437.409989L604.497733,437.853609L604.783732,438.295689L604.823271,438.316589L604.858820,438.337490L605.001502,438.511128L605.143695,438.683169L605.915829,439.366610L606.689629,440.047000L606.903102,440.323706L607.116560,440.600440L607.398229,441.202270L607.682936,441.805841L607.927296,442.061795L608.176971,442.317772L608.295316,442.201855L608.415829,442.084332L608.559154,442.011890L608.700776,441.942668L608.864090,441.963596L609.031031,441.987743L609.221802,442.153557L609.406765,442.317772L609.480397,441.968425L609.553965,441.619122L609.820863,441.594978L610.089936,441.569225L610.240003,441.900815L610.386893,442.230834L610.400175,442.266253L610.414304,442.300062L610.423986,442.443355L610.435473,442.588265L610.569024,442.625299L610.703907,442.662334L610.752157,442.694538L610.795932,442.725132L610.560257,442.924809L610.320555,443.124501L610.227678,443.174426L610.130805,443.224352L610.251873,443.277500L610.372460,443.329039L610.458528,443.403127L610.540603,443.477218L610.700228,443.659232L610.861178,443.841258L610.991942,444.287515L611.119008,444.730625L611.150210,445.254395L611.179108,445.779881L611.139153,446.289348L611.102215,446.800527L611.023320,447.206963L610.946522,447.611849L610.867512,447.816736L610.783148,448.021639L610.651066,448.218491L610.518959,448.415358L610.353064,448.570280L610.185442,448.728440L609.788379,448.917276L609.390796,449.104512L609.304875,449.201364L609.216282,449.298220L609.212612,449.420908L609.207602,449.543603L609.309126,449.598495L609.409794,449.655003L609.951608,449.756719L610.490293,449.856825L610.942769,450.061894L611.396113,450.265364L612.894218,451.342743L614.390515,452.418976L615.440041,453.047806L616.495414,453.678416L617.687009,454.184154L619.970980,455.153722L623.446753,456.628326Z M427.535008,287.484419L427.513771,286.256633L427.638545,285.080001L427.904568,283.960163L428.307600,282.904366L428.840337,281.918255L429.497041,281.008274L430.274579,280.180869L431.166463,279.444089L432.167556,278.801969L433.271408,278.262557L434.474959,277.832290L435.770784,277.516000L437.156349,277.321726L438.624501,277.255094L440.134543,277.321726L441.642234,277.516000L443.138149,277.832290L444.610793,278.262557L446.053529,278.801969L447.456611,279.444089L448.812348,280.180869L450.109131,281.008274L451.336645,281.918255L452.487647,282.904366L453.549711,283.960163L454.518399,285.080001L455.381001,286.256633L456.127883,287.484419L456.748387,288.754510L457.237243,290.062872L457.573141,291.371008L457.753423,292.642050L457.778875,293.866398L457.656705,295.042468L457.391620,296.160670L456.991948,297.214620L456.458518,298.198743L455.799695,299.106661L455.018686,299.932002L454.120803,300.666793L453.115224,301.307062L452.004705,301.844837L450.795361,302.274542L449.490227,302.588999L448.096740,302.782627L446.620799,302.849035L445.103577,302.782627L443.589718,302.588999L442.090376,302.274542L440.612545,301.844837L439.167584,301.307062L437.762444,300.666793L436.408688,299.932002L435.114029,299.106661L433.889988,298.198743L432.743683,297.214620L431.684807,296.160670L430.724080,295.042468L429.869866,293.866398L429.131502,292.642050L428.515835,291.371008L428.036060,290.062872L427.706044,288.754510L427.535008,287.484419Z "/></g></svg>