<?xml version="1.0" encoding="utf-8"?><!DOCTYPE svg  PUBLIC '-//W3C//DTD SVG 1.1//EN'  'http://www.w3.org/Graphics/SVG/1.1/DTD/svg11.dtd'><svg enable_background="new 0 0 1000 456" height="456px" pretty_print="False" style="stroke-linejoin: round; stroke:#000; fill: none;" version="1.1" viewBox="0 0 1000 456" width="1000px" xmlns="http://www.w3.org/2000/svg" xmlns:xlink="http://www.w3.org/1999/xlink"><defs><style type="text/css"><![CDATA[path { fill-rule: evenodd; }]]></style></defs><metadata><views><view h="456.83403737" padding="0" w="1000"><proj flip="auto" id="robinson" lon0="66.3272352943"/><bbox h="239.61" w="525.66" x="604.04" y="-921.53"/></view></views></metadata><g class="" fill="#000" id="country"><path d="M120.197389,323.695022L117.817269,322.864856L115.813204,320.779037L115.516320,318.899320L116.947921,317.409161L116.599114,316.677483L115.441854,317.145166L114.693371,317.826996L114.802013,321.154370L118.129816,324.436181L119.508549,324.564216L120.197389,323.695022Z M122.516770,320.070497L122.799119,319.256299L122.631708,316.644291L121.305627,316.863053L120.734873,318.516268L121.750077,320.486589L122.516770,320.070497Z M178.763522,306.474101L178.637666,304.959135L177.340252,303.183599L175.987497,302.875018L175.047484,304.549328L176.519563,305.967646L178.405482,306.799115L178.763522,306.474101Z M623.877984,454.834037L625.736097,454.394836L626.114244,453.226070L625.456189,451.619181L623.997300,449.933929L623.469877,447.927786L623.670985,446.460067L624.901868,443.798327L626.061168,441.291479L628.225714,438.738259L630.950620,436.210140L631.843038,434.372060L631.412098,431.175568L633.133286,429.364775L635.257375,428.277883L638.025524,427.336810L638.367299,425.744716L641.739036,423.042439L643.855174,421.707965L646.799120,420.927482L650.655640,419.170488L653.482595,417.113637L655.582089,413.232565L657.407982,410.698980L659.135655,409.136399L660.990588,409.083619L662.708118,410.344486L663.873807,410.450077L664.429976,409.872373L665.162389,408.243736L665.898274,406.354925L666.904161,405.566757L669.226122,405.164433L671.020042,403.885345L669.184157,402.496635L668.715020,401.069139L669.430222,398.621558L670.294881,397.398149L670.047594,395.045306L671.334888,393.472200L672.391492,390.980913L673.991017,388.945794L677.702587,387.419035L680.223607,387.917907L682.311068,387.557274L685.313448,386.319214L685.944525,386.239587L687.372987,386.218554L696.820512,388.110250L699.761698,388.203418L707.426007,390.663736L710.748173,391.197383L713.202088,391.890427L714.571213,392.950417L716.617370,394.254196L725.559460,395.310033L728.153312,396.011010L729.390485,397.154400L732.332624,398.609518L734.526603,398.940618L730.761864,393.257166L730.325230,389.885130L729.836921,380.662782L730.775032,379.275390L733.061010,378.045776L736.847290,376.672154L737.782435,374.752278L741.340965,374.948910L742.801321,374.780797L743.722125,374.437072L743.908101,373.357903L748.511536,375.231102L756.434568,379.020149L762.262310,381.419606L768.933497,383.688879L777.796764,385.763344L784.917537,386.451426L785.919954,385.963153L787.544847,382.811752L788.789459,382.670577L791.232286,382.946921L798.578321,383.094107L806.054818,383.242796L809.446731,382.937909L816.558966,381.625339L817.658537,381.560765L819.456887,381.650868L824.652495,383.435045L828.137415,383.687377L830.448390,383.678365L831.851330,383.822557L834.639140,383.754966L839.289844,383.971257L845.366721,385.130893L852.099214,384.920587L854.210878,384.701271L858.070996,384.911573L861.493172,386.017237L865.733671,387.183133L868.305963,387.672975L870.002652,387.925420L872.892684,388.014078L874.461584,387.647431L875.627599,388.161342L877.666866,391.024507L880.728717,392.908315L883.233664,394.682827L885.506298,396.645867L887.385336,397.444794L890.165595,397.473383L895.615729,398.033147L898.915886,398.814196L904.020323,402.210503L908.847253,405.694845L909.249352,405.146352L909.601409,404.295100L909.054846,403.099067L906.355456,399.237119L904.309675,395.571763L902.628482,392.270803L902.245942,391.039540L902.397693,388.917240L902.895476,386.984800L906.648260,385.184973L909.374110,384.639684L909.049287,383.463582L906.396907,382.730651L904.234126,381.554759L903.670196,380.883517L903.462219,380.120720L903.597244,379.422530L906.073627,378.110332L908.376203,376.804257L912.098395,377.596896L912.581315,377.090983L912.282636,375.780489L911.046576,374.465590L909.526878,372.316307L907.525444,371.216226L906.958238,369.897084L907.057270,367.620588L904.081875,363.406942L901.187370,359.689957L896.247039,353.328099L893.900342,351.493793L891.854684,348.560265L890.228935,347.019684L889.437288,344.742983L888.975139,343.143296L887.472787,339.967164L885.659914,336.523760L884.766751,333.024619L884.772979,330.719934L884.186140,329.838153L884.410143,329.175980L885.709072,328.954737L885.997882,328.012481L884.959606,327.042969L882.278944,326.296150L879.154163,325.130545L875.996437,325.264587L872.778745,325.466397L870.801489,324.603379L868.939390,323.503689L868.577267,322.795544L869.826075,320.934299L871.820774,319.009404L875.747057,318.158824L879.952349,316.888701L881.962819,315.965310L884.863254,315.299815L888.411951,315.020612L890.332367,315.213792L894.553407,313.982140L901.017840,311.599476L906.944864,309.599477L908.730480,308.407272L910.889542,309.599477L912.712756,312.223184L915.215187,313.582088L917.427459,314.238759L918.530884,314.207060L921.481922,313.186534L924.801263,312.437613L926.396251,312.846816L928.780088,314.188946L931.329339,315.390364L932.382642,315.331507L932.953652,314.406310L933.154240,312.534255L932.797102,310.147891L931.897805,307.631970L930.917549,306.088595L929.956790,305.521625L926.300415,304.611331L922.560340,303.126120L921.649682,301.769135L921.335376,300.802265L921.202086,298.427565L921.485356,294.073928L921.097636,288.056097L920.249062,283.307899L920.779816,276.222516L920.430726,268.826925L920.387122,258.197217L920.238955,256.096362L919.234238,252.734920L918.888067,251.349787L920.095012,250.619946L922.946734,251.330020L930.194213,253.756624L935.790150,255.793835L938.068242,256.484017L941.325232,257.206101L946.249292,258.057369L948.783239,257.805032L950.888218,257.303390L953.949582,257.259306L959.036537,257.893198L960.537855,257.919040L962.422257,257.999605L964.176499,259.027165L965.826358,261.361771L967.270418,262.408902L968.901837,262.021365L971.864075,259.964994L973.622867,258.346184L975.683356,256.006669L978.578209,255.684378L981.573533,255.161405L982.192448,254.001402L982.198911,251.270721L983.282672,249.210399L982.481338,246.602544L980.988118,244.764048L978.316973,241.766720L977.479649,239.747187L974.263694,233.892487L971.071847,228.625273L970.102556,224.383537L969.589668,219.647098L969.568652,218.198739L969.722819,216.291597L970.117897,214.012456L971.782953,213.296880L977.145629,212.809217L981.880604,211.850652L984.072565,210.864818L986.533572,210.269405L987.835838,209.546443L989.142337,206.220786L989.603051,204.304815L988.253836,199.220629L986.411789,196.778187L986.018235,194.620019L986.786552,193.350866L988.104873,192.081919L989.282326,191.865142L991.818333,191.481630L996.332028,191.607444L998.903110,192.230483L997.368504,190.309992L994.823132,188.183943L992.378567,187.450656L990.263988,186.991634L988.081008,185.976743L986.397585,184.898399L980.531109,179.757540L977.104764,177.566866L974.893480,177.439808L973.907357,175.983375L974.468927,174.528827L975.496296,173.325559L974.667148,171.681321L972.944858,170.795940L971.468083,171.048244L970.220982,172.947702L968.684302,175.092759L966.355003,176.671467L965.725258,177.946545L964.906299,179.403468L962.664921,179.212822L961.142661,179.276370L959.850894,179.403468L958.111497,177.819478L956.722678,177.630396L946.666820,176.117962L943.295067,175.543342L941.697810,176.300945L940.011766,175.794353L938.755843,174.276360L935.715336,171.617859L933.221854,169.424348L930.322196,167.181952L928.870835,165.421962L928.607224,163.591397L927.611581,162.012176L925.628025,161.191851L923.505211,161.089320L916.237065,157.660329L913.359321,157.155608L910.672736,156.525911L908.778994,156.525911L906.469688,155.012263L902.747299,150.412482L901.076326,147.852583L897.974655,145.260966L894.556256,143.041746L891.722856,140.033802L889.010628,138.700863L884.543640,136.576110L880.519394,135.083625L874.217377,133.276744L872.191952,133.276744L869.521729,133.441660L868.308228,134.320306L867.456900,136.265576L865.088363,136.393087L861.248783,136.385586L860.572601,137.119215L860.582328,138.445725L859.409779,140.131385L857.188811,141.481230L852.913428,141.041251L850.459936,141.732021L847.819484,141.996341L843.028831,140.289023L838.648578,140.349077L836.144111,141.126841L832.056255,141.104317L830.770842,140.141894L830.504758,138.526767L829.487320,137.071204L828.262092,135.881561L827.058328,134.446268L825.239768,134.141865L820.814622,134.759687L819.204290,134.069891L818.686594,132.651610L818.703454,130.889067L818.323810,128.611870L817.346617,127.247545L814.993068,127.412262L813.454645,127.286477L811.925203,125.662038L809.993209,124.476603L808.409887,124.413747L806.384730,124.109953L804.567478,124.602318L804.245066,126.230907L803.029563,126.464461L801.799677,126.919623L801.024609,127.484141L801.055786,128.924923L801.975703,130.267229L803.785923,133.183793L803.824395,134.759687L802.310623,135.595069L800.418758,135.425582L799.384254,135.820061L797.886995,137.461313L797.154212,138.025525L797.270506,139.031062L797.813439,140.539753L795.648954,140.036805L790.025166,134.477759L783.654020,128.199987L776.626870,121.518718L772.915814,117.993053L759.806856,106.526758L753.447172,101.053386L742.455295,91.615069L732.457546,83.051546L721.559395,74.202089L715.204781,69.186558L708.504846,63.904770L706.352306,62.443092L703.181125,60.573644L695.825285,56.951866L685.299665,51.768600L675.658068,47.157958L668.087342,43.537247L665.858958,42.007048L664.756446,41.121247L663.655182,40.133907L661.932606,38.376260L661.363021,37.230314L666.962231,37.418835L667.556292,36.296636L667.516249,32.093950L666.861057,28.463320L665.105219,28.629504L662.452227,30.128312L661.185133,31.214041L660.405892,31.677522L655.329675,32.392677L653.140363,34.002824L648.330619,36.734003L644.668224,38.337960L643.944273,38.603119L638.987643,39.096640L638.370957,39.734596L638.914069,41.146301L639.299885,42.704286L636.689587,45.008858L633.673811,47.035510L632.283416,47.261229L629.649349,46.814226L628.521454,47.066491L625.920749,49.220780L622.002317,52.459628L622.111044,53.776946L622.835011,55.379698L622.859812,56.780443L621.881264,57.288816L619.550266,56.075595L617.259993,54.601163L613.409530,53.543587L608.313608,53.292516L605.516586,53.805009L603.794744,54.607071L601.186430,57.856355L599.986766,58.502295L599.057798,58.295350L598.097966,56.727244L596.748608,55.608699L595.000252,53.937940L593.949585,50.646594L594.709196,47.495809L597.577113,45.778725L599.667360,43.932393L599.588510,41.917135L598.858928,40.522928L597.471055,39.886361L596.269595,39.768485L595.924312,40.444827L594.576209,41.822802L592.132096,42.923940L589.768862,43.142129L588.632509,43.075787L585.691965,42.382927L579.054102,38.563344L574.720041,38.044826L571.774248,37.748761L571.017538,38.133207L571.017124,39.073068L571.759866,40.097069L572.786812,41.106510L572.851146,41.924505L571.814836,42.533285L570.310670,43.557889L568.989860,42.875291L567.242703,40.182533L566.375854,38.089016L564.193052,36.327560L561.499188,33.593623L558.788031,31.980643L557.123732,32.498633L557.256660,34.813949L556.173915,35.597209L553.186892,35.120174L548.820759,36.430641L541.037927,37.024127L534.546943,35.399912L532.927816,33.943945L533.848535,30.822686L532.766308,28.070672L531.601115,25.565384L531.381143,23.738529L528.379095,20.256817L521.942719,13.178993L517.552286,7.848402L512.884725,3.852631L511.045902,2.531537L505.467585,3.215482L504.253847,4.091396L503.750894,5.319057L502.316977,6.179152L500.008684,6.813678L497.583377,6.384303L494.798618,5.714657L491.543011,4.316986L487.648238,2.465637L481.185140,0.980863L475.206272,0.512371L468.660417,0.000000L465.943474,0.936941L463.575398,2.431954L460.572255,5.541762L458.689206,5.853855L455.595609,6.091232L453.695960,6.859108L454.756228,8.230971L456.038707,10.116313L455.887267,11.600357L454.982911,12.391272L453.285568,12.906140L450.219240,13.082173L447.769442,13.387308L445.506645,15.525141L440.838654,16.063751L435.832813,16.835790L432.628188,18.057158L425.197408,19.569523L420.804278,20.245068L413.595443,21.690397L407.387839,21.926911L406.001299,20.910406L402.098370,23.155167L396.602490,23.017050L395.982048,23.919279L395.024433,24.787838L393.722583,25.175864L392.323001,26.244533L392.207039,28.501556L392.366379,30.812387L391.033273,31.542153L388.478600,30.681451L386.507118,29.841465L384.088132,30.687335L380.531187,31.178730L377.461244,30.880063L375.678468,30.216576L369.957938,31.324391L367.287524,32.664929L366.973277,33.364012L366.338850,33.745230L363.012504,34.668204L359.933075,34.410581L359.486993,34.465049L356.929457,35.106923L353.425850,36.274547L350.721707,36.658897L348.318296,36.641226L347.175236,37.599998L346.344855,38.626689L336.343372,39.711022L335.591880,40.461037L333.855852,41.404217L323.122401,41.722575L322.496363,42.407986L322.405438,43.178986L321.151374,43.417824L312.748821,41.955458L305.846514,40.315152L303.769124,41.214095L302.357701,42.894456L302.589152,45.351009L303.403710,47.450073L304.100493,49.248821L303.662725,50.549167L302.193034,52.152494L302.464884,53.231965L305.741711,54.400267L309.665710,55.372311L311.594708,54.942405L313.092422,54.280620L314.695875,54.485942L316.067533,55.265940L316.809119,56.210056L316.864048,56.867632L316.395609,57.378968L314.413539,58.252484L312.173436,57.952428L310.437704,58.552555L309.877446,59.754476L310.132722,61.857344L311.574866,63.360295L314.373575,63.722779L317.786911,64.807413L321.303289,65.320949L323.226850,65.138912L326.396580,66.792259L333.089832,68.795582L335.263096,70.325582L335.910201,71.903419L335.280318,73.096355L334.039485,73.775184L331.853580,73.406116L327.657473,72.997058L323.118546,72.719923L319.747017,72.189404L315.200951,72.399827L311.585668,72.903690L311.057157,74.090913L310.417836,76.313383L309.652765,77.550291L308.329499,79.820165L308.443709,81.915817L310.765101,85.138049L316.533122,90.465637L317.546862,92.229292L316.814649,93.944433L314.723676,95.381829L311.850193,97.898956L307.792740,98.035936L306.249690,98.668772L302.758417,101.752144L299.243348,103.218498L298.869564,104.537674L300.232212,105.839290L305.971518,107.549926L309.228164,109.432725L310.729721,111.544602L312.425797,113.157075L316.795025,114.203961L325.951734,116.648023L326.522058,116.903551L327.440359,118.015474L336.405105,119.561209L337.870080,120.392572L342.329211,123.153795L344.110029,126.063234L343.365631,128.905450L343.828304,133.410175L343.400904,137.378787L340.388675,140.029299L334.332664,142.467947L327.282064,143.445848L324.078922,143.277593L321.940679,142.971144L318.355744,142.202100L315.199706,140.183931L312.706493,138.204105L311.237487,137.708898L310.056455,138.034529L309.268826,139.277225L308.783280,142.631668L308.086546,145.959846L306.996428,147.132384L301.981740,148.705232L301.179978,148.144302L301.067831,145.935797L300.143990,145.274492L298.936882,144.778572L291.813947,143.932619L289.015491,143.307639L287.002975,143.064278L284.356634,142.500991L282.223681,141.185404L277.238389,137.155225L273.334199,133.999417L267.810123,131.151311L263.490706,130.601364L263.255332,130.892064L260.152528,130.996960L254.923274,130.297196L254.709238,130.378106L253.591044,131.671344L253.107546,133.695042L252.146622,135.409083L250.120856,136.318080L247.385253,136.523602L243.655670,134.752189L239.512091,132.004073L235.164692,131.109351L231.437304,131.711810L230.142503,132.140469L226.531643,133.698041L225.002418,132.972412L223.022690,132.510704L219.839192,135.073127L216.344157,137.882965L216.063506,139.984261L215.352764,141.913739L213.013866,143.752328L210.324381,145.343624L207.803932,145.934293L204.121604,145.351138L199.103893,143.397775L194.303685,140.954161L188.712421,137.110213L184.455677,134.911156L180.491874,133.168801L178.288480,132.755044L176.831938,133.410175L176.608519,134.767186L177.417768,135.835061L178.705880,136.799646L180.426004,139.837141L181.881426,143.555518L182.200967,145.665252L181.621100,146.924915L180.768449,147.383465L179.796166,147.218081L178.274418,145.905735L176.730907,143.131877L175.181467,139.859659L170.899091,135.749563L167.527416,133.242262L165.849570,131.858689L162.754556,129.575058L160.262507,128.164043L155.393117,126.552795L152.889585,125.385113L147.760875,120.857657L145.250164,119.480472L142.217039,118.321893L139.916657,117.978107L139.518660,118.242670L135.159701,118.892927L131.851429,118.794262L129.605372,117.948213L127.511064,117.846577L127.341371,117.839104L125.273671,118.408590L124.842429,118.371220L123.709499,118.344314L121.609986,117.410163L119.067380,114.898518L116.023384,112.235813L113.059627,111.377411L108.295793,112.498588L103.818838,116.122063L100.460189,118.272565L97.203596,118.332356L95.433470,118.661217L94.153406,118.537144L92.900135,117.861524L92.254442,116.552390L91.249492,114.891049L88.191267,113.270565L84.364374,112.225362L80.752610,111.077377L78.528081,110.771390L78.115108,112.423934L76.198482,115.053872L73.881614,117.610431L71.188242,121.771500L70.549260,123.246559L69.329819,124.229673L66.210072,125.299792L62.549638,127.060372L60.467258,129.062732L56.954123,129.970573L53.045238,130.544424L51.764317,132.281365L51.480017,135.116620L50.844820,137.665382L45.509580,141.527783L42.691288,144.034786L40.501683,145.366167L38.665000,145.194841L36.620457,144.795102L35.950835,145.016006L37.475939,146.935438L39.981356,152.991794L42.230053,156.855814L43.697633,159.078353L44.982595,160.825464L46.326625,163.503900L45.945304,165.071850L44.977998,166.125279L41.541176,167.782847L37.874736,169.211391L35.203387,168.291701L31.906156,166.013586L30.531342,164.836445L26.568731,161.018454L19.861905,155.194478L15.567247,152.245247L12.689227,151.148213L10.443050,151.482263L9.001253,152.862344L8.042711,154.090752L7.193120,155.465554L6.878460,157.194779L7.579980,159.578754L8.185266,162.102661L7.508799,163.882561L5.109596,165.793228L2.442763,168.462337L1.181332,173.281726L1.096890,179.312683L1.642185,183.502266L3.384823,185.463296L6.250759,187.053744L8.251760,188.688500L8.963419,190.228151L8.949581,191.840888L8.138642,193.704146L5.986699,195.837806L3.555634,200.935289L3.024413,208.138615L5.526961,213.166227L10.941202,215.925391L14.969834,217.142564L16.855241,218.761046L18.999675,222.044059L19.623037,225.371693L19.718006,227.626354L21.180723,229.835574L23.580351,232.460056L26.206114,234.065841L28.348519,233.202117L30.425736,232.104236L33.460144,232.537607L41.967991,233.449980L46.427481,233.925941L48.121130,235.066437L51.725735,238.767837L56.155831,242.923991L60.654835,247.143894L62.299667,248.971669L66.361540,254.010524L70.395330,258.542273L74.946086,264.154987L75.091033,265.674484L73.582416,266.308068L70.871058,266.154612L68.605847,265.331091L67.281524,264.650359L66.184952,264.425468L65.082744,264.698984L64.261307,265.408583L64.125876,266.519256L64.662638,268.033946L65.795180,269.413273L67.128211,270.300340L67.810305,270.631454L72.348914,272.450903L77.457547,274.497818L83.792802,277.398971L85.079708,277.761747L84.047759,276.252878L85.662488,274.663316L87.770347,275.490768L86.749969,273.147929L86.574253,272.103134L88.676459,271.539695L92.289337,271.292138L93.295063,270.596521L96.484842,270.475011L99.437537,269.723146L101.970204,268.521588L104.026031,266.587626L108.361161,263.522832L110.515985,260.890618L111.807634,260.784227L113.282143,261.083640L114.568842,260.803985L116.538444,259.046925L117.751616,258.644116L121.707315,255.872888L127.571453,253.709493L130.480338,254.109347L139.095006,256.207339L140.058473,256.576749L143.090249,259.201966L148.400172,260.411853L149.987522,260.192984L152.346527,262.132308L153.749678,262.474251L154.919338,262.135347L158.245208,260.414892L159.131086,259.563724L159.674040,258.270181L161.018575,257.429562L166.134662,258.473870L172.092611,258.558993L175.553044,260.472649L176.726249,261.620140L179.364364,265.168508L180.782442,267.439940L180.339541,269.328209L179.494660,271.222274L179.723364,273.466815L181.349622,275.370830L183.824965,282.283900L183.301321,289.233985L180.961886,295.078169L179.772038,301.489228L181.981041,303.844574L188.937269,306.611668L192.426849,308.945233L189.568296,309.702214L185.240835,309.324493L181.560724,308.588613L175.063687,306.882255L172.394112,306.696322L163.019753,307.199688L154.985801,306.856558L150.576826,308.608258L147.343754,308.144317L145.882059,310.566340L145.278450,312.106905L145.004882,315.449220L143.211533,317.965764L140.816372,319.815699L140.485814,321.621610L141.292391,323.714607L142.556728,325.023610L147.389229,328.187096L150.408805,330.968194L151.970111,331.550439L153.589321,331.485748L155.361426,332.237930L156.979076,333.671349L152.683246,333.357016L151.085234,333.627734L147.947541,334.584186L146.219884,334.385688L144.481903,333.687892L138.969729,330.659748L133.684197,330.518309L127.618867,330.805698L125.110459,332.114578L124.693295,333.808207L124.889059,335.811140L125.292908,337.505381L126.261763,339.086538L127.890192,339.998721L131.679446,340.943861L137.298505,341.857351L140.050809,342.997584L141.536705,344.082110L146.073299,351.285132L150.819190,357.691054L153.483868,360.806423L156.551086,363.021294L157.775216,364.367309L158.859172,365.920407L159.631059,367.811167L160.109604,369.814546L160.514182,373.655081L161.015623,375.394715L162.401849,375.601861L166.611891,375.505793L169.299617,375.876558L171.859283,377.548856L174.771377,380.614731L175.807169,382.149448L176.982762,383.502633L178.670246,384.758353L180.408381,385.344209L181.808457,385.037757L183.118329,384.445911L185.959945,384.785392L188.762098,386.906670L189.949260,386.403348L192.690145,386.147942L194.244860,386.277147L195.788073,386.732382L197.321965,388.126780L199.944561,394.422637L200.393647,398.349166L199.972692,401.350693L199.240997,404.240866L198.850333,408.454823L199.149711,410.069961L200.586170,415.091089L202.040744,418.355776L206.033288,413.282376L209.616032,409.691385L212.727317,407.526111L213.709604,407.000022L218.245029,405.206623L224.265214,403.590100L228.694539,402.398746L234.610076,401.383818L236.579809,401.195611L239.549084,401.216690L242.193604,402.172855L243.838640,402.919836L249.758810,405.999254L255.804255,409.146955L261.190566,412.639400L262.828119,414.064344L263.971695,415.767675L264.921188,417.438489L270.084140,422.742820L272.242550,425.175321L275.273461,428.344572L277.459060,429.887888L279.697713,431.797606L281.270199,433.371467L282.809428,434.118464L284.380784,434.414581L287.691030,433.914995L291.573746,432.920626L293.938438,432.506275L295.046394,432.565464L293.256226,425.438806L291.449547,418.325549L289.632687,411.227002L287.803306,404.139932L285.961952,397.062620L284.109177,389.993349L282.245528,382.930400L280.371557,375.872055L278.488213,368.818097L276.595247,361.763806L274.693201,354.707464L272.783434,347.650354L270.866093,340.589257L268.941726,333.522456L267.008420,326.448232L265.071655,319.364867L267.975805,318.486105L271.637080,317.375974L275.154043,316.310848L279.326889,315.044760L284.044082,313.613792L288.061793,312.390802L292.854531,310.933399L296.508110,309.821569L299.937852,308.775993L304.350357,307.538262L311.203411,305.610832L315.023415,304.537230L318.882236,303.451326L322.561684,302.413628L325.109740,302.027849L328.390475,303.508802L332.446338,305.545817L336.504826,307.583605L340.569991,309.619118L344.632457,311.653846L348.697585,313.689275L352.769428,315.722362L356.838602,317.754594L360.910078,319.785544L364.985793,321.814522L369.062175,323.845672L373.142809,325.874513L377.225657,327.902591L381.308234,329.929948L385.395898,331.958129L389.485279,333.984163L393.574333,336.009598L397.387438,337.896191L399.254077,339.293930L400.970409,342.375656L403.308134,344.825589L406.899906,347.480677L410.583393,350.196748L415.218831,353.785897L418.437816,356.275842L421.719819,358.815075L427.137874,363.004788L430.522721,365.620290L432.626197,365.705823L436.659360,365.084583L442.040977,364.253265L446.294133,363.596014L451.435057,362.800709L456.325532,362.044416L460.193043,361.445680L466.371769,361.898859L472.475676,362.347534L476.854585,362.670159L481.147781,362.986781L486.230346,363.358923L489.074151,363.567503L492.324537,363.806094L493.475349,363.177354L495.821520,361.891356L498.034620,360.677370L500.328930,359.418341L502.508125,358.780559L505.617585,360.797419L508.417306,363.114330L511.366302,365.557266L514.634166,367.913210L517.512451,369.311816L521.402230,371.201218L524.309831,374.440074L528.191407,378.761911L530.743889,381.605817L533.371648,384.533033L535.513993,383.377971L537.797444,382.144942L539.862436,381.030677L540.698531,384.642688L541.456214,387.926923L542.592515,392.897789L543.521122,396.976860L544.138537,401.846084L545.211990,405.557716L546.154609,408.821233L546.897546,411.412579L551.639843,411.528758L555.143767,411.614762L559.530590,411.721892L560.943240,414.982363L562.917911,419.566571L565.061509,423.726514L566.857037,427.220141L569.329625,431.744500L570.649402,434.165537L572.549146,437.015613L573.785872,437.702722L575.581241,438.160380L581.260905,437.819790L585.976558,437.538530L589.685296,437.315063L593.643655,437.077932L598.881145,436.763308L600.902521,437.489883L602.311446,436.980653L603.961885,436.473034L606.018896,438.545112L607.064600,439.597693L608.413054,440.687197L610.102495,441.705573L610.153533,443.837944L610.220942,446.949721L610.454517,448.553579L612.633789,450.280663L614.169837,451.290596L618.175473,453.346897L621.694651,454.495830L623.877984,454.834037Z "/></g></svg>