<?xml version="1.0" encoding="utf-8"?><!DOCTYPE svg  PUBLIC '-//W3C//DTD SVG 1.1//EN'  'http://www.w3.org/Graphics/SVG/1.1/DTD/svg11.dtd'><svg enable_background="new 0 0 1000 1176" height="1176px" pretty_print="False" style="stroke-linejoin: round; stroke:#000; fill: none;" version="1.1" viewBox="0 0 1000 1176" width="1000px" xmlns="http://www.w3.org/2000/svg" xmlns:xlink="http://www.w3.org/1999/xlink"><defs><style type="text/css"><![CDATA[path { fill-rule: evenodd; }]]></style></defs><metadata><views><view h="1176.83741471" padding="0" w="1000"><proj flip="auto" id="robinson" lon0="104.681601882"/><bbox h="143.76" w="122.26" x="1455.86" y="-377.2"/></view></views></metadata><g class="" fill="#000" id="country"><path d="M831.897558,1174.837415L836.816567,1157.306455L832.204510,1146.620564L818.902776,1128.012190L814.573056,1117.031803L817.878333,1115.091330L836.439730,1113.010338L839.237089,1110.849049L841.937484,1098.777927L847.209822,1100.149647L857.834362,1101.715415L867.862729,1093.458324L873.338175,1084.799732L877.381637,1088.747624L882.023347,1094.823355L886.714830,1098.342991L895.289369,1103.562218L904.903749,1110.902579L911.208315,1118.115792L915.913708,1120.912748L926.857847,1118.898672L929.878600,1119.179706L935.313625,1110.454262L939.293017,1105.703437L943.323084,1107.061772L948.941131,1106.934637L959.247236,1095.806980L964.670812,1085.636151L967.969257,1082.859242L979.053555,1087.937972L983.105914,1086.900815L987.410921,1072.909191L993.233900,1067.415572L990.617803,1052.025365L990.959323,1044.564435L987.813767,1038.522072L983.778060,1029.756278L984.953793,1024.062368L991.392689,1019.184278L994.420620,1010.766378L998.421934,1000.983388L999.574771,992.023433L994.820862,984.535599L986.458756,973.333937L972.565766,963.162752L956.361681,950.187775L948.178483,942.211396L941.478329,934.074411L935.035728,924.592406L931.175382,917.024193L933.245421,912.072398L952.240341,900.683265L955.425653,896.581302L956.722948,890.251028L954.215623,884.061278L948.212117,880.722159L941.479255,878.440315L931.015138,871.273589L910.593263,851.606922L901.869244,847.223915L892.543914,841.562812L887.171311,835.613972L879.867586,819.293161L877.429433,817.834394L873.249223,822.759406L867.760077,827.938703L862.438013,827.055412L857.042653,822.444901L853.894504,816.235103L847.437588,807.716715L840.771578,800.777549L835.922371,777.437395L833.899358,769.822427L829.523220,759.202985L824.559736,755.402208L819.444453,752.565012L805.560004,733.219944L796.462446,723.202846L761.014301,696.002290L756.466251,691.659595L746.355715,680.464982L729.287769,664.599909L716.867700,651.799538L707.234163,638.564321L701.982729,627.075586L699.541376,618.109472L689.267332,605.262584L680.480962,594.730887L673.023470,591.311780L664.877248,589.886596L656.746281,583.623835L641.493260,569.459115L634.302502,560.339436L629.948639,554.197234L629.128670,547.874408L630.682847,537.349810L633.575510,531.354908L632.989403,526.671410L628.671071,522.851026L613.103208,516.073386L578.571790,505.783218L565.079460,497.941874L552.191445,487.879338L542.555688,481.061751L497.973457,452.052344L485.061345,447.208598L473.800607,442.057125L469.852765,437.059551L469.690029,432.262705L473.386865,428.690174L483.614037,421.237406L486.517714,412.727670L483.455915,401.548720L477.194265,390.269554L478.798831,386.342616L482.389406,385.894397L489.993678,385.559906L505.683471,384.924373L541.339959,395.193301L546.116055,394.069400L561.708900,375.438259L566.951632,364.286517L567.102028,354.987930L569.831532,349.074348L578.087809,339.355781L576.862367,330.492299L570.208779,318.672224L564.647205,314.103438L560.162290,312.130104L546.862484,313.708771L543.862245,311.053133L540.707892,302.243416L539.217868,296.831862L533.771817,290.530675L518.365550,285.165995L505.773360,283.647566L502.519060,281.366582L506.333233,275.292895L513.810519,269.286121L519.697985,265.821198L523.776120,259.607098L523.735680,253.245859L516.578874,247.586981L507.413908,241.319421L492.269563,229.352900L471.964736,216.630569L460.137910,212.309531L454.375892,212.898155L435.896244,223.827845L426.137652,230.938177L419.071166,243.620423L410.064373,246.342832L399.656546,240.757548L387.947998,235.005052L356.642081,226.677328L342.948282,219.687403L310.154130,177.092435L304.934559,168.416905L305.908097,158.610926L305.520693,144.577486L306.711290,135.480455L309.976973,126.791414L310.008648,119.058867L307.681198,111.506888L303.211039,107.179031L298.088947,105.901408L294.148335,104.188989L289.099394,94.242200L287.209226,95.533214L285.905758,107.627203L282.737180,111.975125L277.950210,114.142393L273.701883,112.236000L270.424815,107.386394L267.993620,99.178814L263.690397,88.161708L259.330035,80.964076L246.905439,73.639297L240.079450,64.133728L220.028939,43.443213L203.679428,28.940138L194.994812,15.901843L190.006739,11.372834L181.465560,7.680030L172.108238,7.653271L160.969543,14.630780L149.023819,0.675686L146.405742,0.000000L142.899519,1.190812L139.171961,4.515708L137.436224,12.309412L136.044864,22.992993L131.003073,29.990417L126.365865,33.101104L128.839134,39.101685L132.778559,45.603934L133.497857,51.290014L136.763815,60.280633L141.401841,69.264473L155.175010,83.954176L160.755611,91.620034L162.679166,98.269087L166.760935,121.861585L167.842585,131.714540L168.509006,150.731339L170.052583,161.701217L175.575064,166.637651L181.103512,172.517216L181.422906,175.721208L179.573268,176.878390L174.008543,183.420146L171.370480,184.276326L166.661890,181.607452L160.788937,179.580711L155.902332,176.958657L150.332090,172.751328L138.679809,173.226241L120.425551,179.620845L116.163367,177.814838L112.828879,174.196134L110.190920,166.731296L109.802716,157.935343L107.239423,152.336690L103.149956,149.018964L103.255173,133.326593L95.438266,127.105799L90.591380,140.644363L74.621326,154.677824L62.899920,161.801551L55.472206,162.015597L50.404369,170.410205L47.711093,186.985334L43.786146,196.717691L38.638187,199.613987L35.970341,205.888180L35.780862,215.540276L39.770341,220.704119L47.988415,221.386389L49.020762,224.082024L42.868275,228.804407L34.595865,230.463262L24.181599,229.058587L15.089677,232.831146L7.318929,241.794337L2.438873,261.132193L0.425229,290.845065L0.697676,298.457332L1.003901,306.537893L4.200989,308.216891L7.729921,304.470923L11.590957,295.313420L16.519980,290.149394L22.517563,288.972106L30.002198,295.206393L38.974987,308.859058L47.268191,316.618609L50.713335,317.461460L54.068607,323.702595L55.331283,329.689573L53.823550,342.337998L50.262899,357.055017L44.810073,375.250946L49.748545,390.543838L62.715026,403.013818L77.120126,410.359408L90.913146,408.318961L97.843169,404.592647L103.076974,398.685432L108.356176,395.902430L115.437489,395.159852L138.471837,399.488222L145.911389,403.716263L148.229777,412.172399L148.701032,433.915172L154.523917,449.864628L163.365280,466.663998L166.401217,481.978342L162.290912,507.241767L159.253594,531.147496L153.901619,542.762641L149.522844,550.236265L148.656367,555.307914L149.785377,560.098565L155.862301,567.291262L162.543788,576.564876L165.170201,585.430398L166.178776,596.330041L164.680337,611.277860L155.696847,643.669705L149.048591,672.897107L155.532072,678.758695L166.861645,683.027761L174.551213,687.196465L181.612531,684.526620L194.947784,667.263038L206.717247,654.415812L221.753653,641.588741L222.618529,640.471311L236.034188,631.030058L241.539026,622.358334L243.594511,611.297933L248.202995,607.015643L255.345224,609.511414L263.231456,604.707226L271.855604,592.603144L279.015165,587.009470L284.729670,587.939517L295.776414,595.460208L312.178288,609.578325L326.160798,617.982341L337.735454,620.658788L343.953989,625.911327L344.837653,633.739981L348.030845,638.711527L353.569352,640.819253L355.765809,639.976162L354.632405,636.188951L358.881672,630.641971L368.534414,623.335239L378.787550,619.039537L389.667911,617.761535L395.970384,611.967042L398.509831,596.932233L403.656240,585.490617L408.992567,580.318499L416.175693,577.715719L417.592706,574.082540L413.244921,569.425660L412.879363,564.695196L416.521601,559.911221L425.599810,557.863818L440.129682,558.573048L457.750502,563.450692L478.487712,572.503481L491.624772,575.407344L497.194723,572.162244L511.107632,586.179788L533.350785,617.467126L551.939253,641.113666L566.886195,657.125767L581.957829,669.417633L597.134751,677.989194L608.845016,689.645498L621.188271,711.760512L618.796767,742.340416L620.733687,768.758474L626.167935,801.212501L637.870369,826.085130L655.886310,843.369546L666.892034,857.341637L670.914171,867.994695L684.316446,877.135449L707.127047,884.763898L717.113369,891.676344L714.285880,897.879476L714.978653,905.072967L719.157717,913.270198L727.619839,920.048802L740.356802,925.415474L748.257137,931.076573L751.318766,937.025408L752.346760,946.701456L751.329780,960.084627L747.660318,970.369574L741.343392,977.542927L741.200116,983.197289L740.468406,991.836070L742.735320,1009.515066L749.381603,1021.298787L752.858268,1036.253674L751.552332,1048.472225L751.892552,1073.424426L752.732839,1083.093439L751.127959,1091.390702L745.747528,1099.406911L736.999843,1106.934637L725.979987,1113.625937L719.093496,1116.590178L719.803740,1120.310533L723.346802,1128.493961L728.932824,1136.556931L734.256888,1141.909930L742.923988,1149.022717L748.060431,1149.363970L763.936562,1142.639276L790.054932,1152.395097L793.544456,1157.313146L802.779453,1167.242905L812.367602,1174.382414L831.897558,1174.837415Z "/></g></svg>