<?xml version="1.0" encoding="utf-8"?><!DOCTYPE svg  PUBLIC '-//W3C//DTD SVG 1.1//EN'  'http://www.w3.org/Graphics/SVG/1.1/DTD/svg11.dtd'><svg enable_background="new 0 0 1000 1447" height="1447px" pretty_print="False" style="stroke-linejoin: round; stroke:#000; fill: none;" version="1.1" viewBox="0 0 1000 1447" width="1000px" xmlns="http://www.w3.org/2000/svg" xmlns:xlink="http://www.w3.org/1999/xlink"><defs><style type="text/css"><![CDATA[path { fill-rule: evenodd; }]]></style></defs><metadata><views><view h="1447.63177059" padding="0" w="1000"><proj flip="auto" id="robinson" lon0="35.8986560398"/><bbox h="27.48" w="19.0" x="493.78" y="-581.6"/></view></views></metadata><g class="" fill="#000" id="country"><path d="M186.527762,1445.631771L227.083317,1434.739081L260.800579,1419.492906L283.303912,1417.578508L285.476842,1404.154426L296.482050,1379.446316L301.171499,1364.629106L302.630329,1342.150424L299.509244,1298.644775L303.055065,1279.168936L308.430541,1267.149476L311.429968,1255.083633L315.455752,1246.712355L323.982041,1245.731500L328.853189,1250.977876L344.613246,1272.144373L354.796182,1279.077709L354.870057,1279.054903L355.035782,1279.168936L359.730041,1282.840763L359.736813,1282.636359L359.851642,1279.168936L359.846505,1279.123322L359.841368,1279.077709L355.721311,1262.861514L361.544053,1256.201295L371.894305,1253.858155L383.306960,1251.274405L396.721262,1239.435654L421.508829,1209.938137L434.170705,1206.356137L443.843630,1205.397883L454.052930,1202.431826L463.777589,1197.891386L471.930694,1192.301241L482.474259,1178.838553L493.858246,1149.285567L503.694423,1135.705529L520.235059,1125.086538L537.432373,1114.043778L550.103108,1105.939906L570.800030,1086.557570L579.330027,1058.359123L567.267006,1040.410160L574.322110,1028.694353L591.083943,1023.053120L608.443487,1023.281513L621.749602,1016.817851L635.786941,1006.767847L645.617794,993.359282L646.092502,976.956874L638.451368,966.972993L625.024673,957.788200L610.653992,951.002089L599.782565,948.077347L581.416975,938.411616L564.729475,935.349539L554.256369,929.248064L554.901596,910.348017L557.530120,907.331116L566.724391,903.674192L569.839288,900.245748L570.841733,891.742890L566.851293,875.695933L567.063620,868.289095L571.645726,860.401801L583.714805,847.987082L587.048857,837.903682L595.436566,822.720184L617.426083,801.840436L625.150169,782.970745L631.358153,773.386332L642.608367,768.468080L655.919300,764.876513L668.090501,759.363174L692.660589,743.119385L697.872807,745.956454L708.634678,757.784630L715.024477,761.559382L730.388508,761.193350L741.449802,754.032660L750.766642,745.659022L761.482318,741.426269L774.584124,743.897296L814.673728,762.543091L843.290972,769.177234L857.209463,766.889632L864.758148,755.176562L861.172341,736.987467L847.514457,729.139161L817.955372,724.196575L794.234824,707.262393L788.949559,701.861353L783.228144,693.393222L781.555798,690.188937L793.578078,658.188007L801.853289,642.345164L811.757565,628.057637L838.067499,602.318166L858.924087,571.145165L873.534831,563.242019L882.080387,563.975083L898.631339,569.885272L908.707149,569.381313L920.033365,563.356561L923.099228,555.155151L923.309882,544.730873L926.088700,532.197794L938.323791,513.980415L967.952542,485.767346L981.600412,457.135755L999.654370,434.207756L999.145102,433.321560L994.172650,424.668552L974.240773,407.010045L967.915532,394.234826L962.415114,377.535723L966.600418,366.065327L972.507848,356.268811L972.647566,344.727706L968.013221,337.820907L963.079602,336.673563L957.723979,337.086608L952.196194,334.791896L943.329666,326.232259L924.741935,303.878138L920.263186,296.992099L917.431390,289.876134L917.165195,282.576119L918.971296,277.961742L921.131192,273.760447L922.374566,267.630438L923.212212,253.050382L922.638161,243.199278L917.670140,235.414292L904.939647,226.985751L899.763275,228.869017L894.015045,225.355096L881.774481,212.125328L868.645824,206.704392L857.762617,198.434711L849.080492,186.948124L842.579515,172.082889L842.562964,171.945027L832.017900,168.383533L811.666116,166.775082L790.256519,167.763133L776.472520,172.082889L774.568923,172.703268L772.534218,172.864105L770.460997,172.703268L768.408836,172.082889L765.843061,168.144615L756.852210,154.343342L767.605302,141.243833L786.454805,130.349482L799.471927,119.040385L801.139212,105.063449L798.651648,91.958595L798.889787,81.289724L808.950325,74.529213L820.200380,77.656572L828.796573,84.003019L833.545137,79.864070L833.054345,51.807397L815.955530,57.557255L797.751798,57.925238L779.620836,51.945397L763.195950,38.650667L742.077007,7.178948L730.267167,0.000000L716.271777,10.676222L714.657563,17.486407L716.448069,34.924193L714.694279,43.113079L708.799923,50.381389L701.898206,53.693382L657.792874,56.177315L653.119706,54.613363L643.675709,48.127340L639.757527,46.517280L635.403896,47.621323L627.222692,52.957391L624.150377,53.969376L591.711016,51.654276L573.231223,50.335388L554.096519,53.095390L537.238637,52.635393L520.718444,47.989336L506.625507,37.546539L500.926233,35.016206L494.250370,33.221938L484.919603,33.567882L484.919940,33.568979L494.025126,43.675618L500.450423,59.431554L504.722332,78.227275L509.089979,120.009089L506.445070,132.533565L499.835426,140.424044L488.998461,149.037835L454.079871,186.489899L397.470614,201.720758L383.385267,198.103147L384.037677,203.638050L399.929947,225.124154L389.152461,242.483956L350.977767,264.867321L343.237336,283.161598L335.395676,311.357107L325.519076,329.897694L311.713440,319.489273L296.153082,334.559526L289.909265,358.082957L289.669779,385.828640L292.504902,413.749043L290.700640,418.335662L281.149643,425.919486L279.567462,432.419563L283.095282,462.749083L286.890533,475.276069L299.592548,494.768213L303.139551,505.162883L303.096413,532.697735L295.540432,571.554779L298.225952,593.197478L300.950415,596.515732L305.203433,599.040438L309.108376,603.224137L310.403212,611.302657L307.763686,614.945053L295.540966,615.125368L290.879622,616.856373L286.554630,625.655323L280.119074,646.857132L274.673060,654.284238L279.345110,654.716873L280.579490,656.050823L280.763524,659.728136L277.757151,666.974333L272.764500,684.601631L268.766537,690.549013L258.459520,694.369628L251.501197,693.901066L240.907449,693.144158L234.222851,697.144917L229.179562,697.144917L224.216857,693.144158L215.329060,689.467689L205.420870,687.881732L197.802309,690.549013L194.642514,697.541383L197.939718,704.821745L203.478922,713.327058L207.079687,723.777834L207.639360,730.228117L210.589867,766.978610L209.651102,784.485984L188.656518,855.755640L190.347719,866.376662L178.820602,874.368957L174.299650,910.689218L163.958079,920.694735L169.272354,926.740932L149.779399,1003.486531L149.505678,1014.889184L144.162382,1041.036824L127.148190,1061.319143L92.043142,1090.839291L96.295053,1101.912541L92.831551,1112.841292L81.625478,1133.043307L80.236844,1145.335929L82.421468,1169.128010L81.920190,1180.771323L72.275660,1219.361409L62.975689,1235.779499L48.466011,1247.598186L66.371171,1270.012129L66.052126,1296.337934L49.136345,1344.562626L45.857741,1338.889753L43.322000,1337.740797L38.958395,1338.566610L44.078911,1344.562626L39.849655,1352.030461L36.387933,1362.082871L32.063563,1370.878311L16.448035,1377.770792L9.357061,1385.524549L3.832056,1395.467586L0.345630,1405.338348L1.245145,1408.030291L1.490871,1410.255603L2.693805,1411.332358L6.010895,1410.829873L5.535550,1414.706154L5.694057,1416.141795L65.418356,1420.586840L68.479556,1419.219421L75.959825,1412.860807L80.576510,1411.037512L85.047996,1411.356590L95.827006,1414.068732L101.147491,1414.456177L127.525635,1405.407986L136.550675,1405.407986L140.563234,1407.157682L145.070445,1409.123035L154.074904,1415.823627L162.412238,1424.780198L168.698372,1435.240431L176.581946,1444.241731L186.527762,1445.631771Z "/></g></svg>