<?xml version="1.0" encoding="utf-8"?><!DOCTYPE svg  PUBLIC '-//W3C//DTD SVG 1.1//EN'  'http://www.w3.org/Graphics/SVG/1.1/DTD/svg11.dtd'><svg enable_background="new 0 0 1000 2178" height="2178px" pretty_print="False" style="stroke-linejoin: round; stroke:#000; fill: none;" version="1.1" viewBox="0 0 1000 2178" width="1000px" xmlns="http://www.w3.org/2000/svg" xmlns:xlink="http://www.w3.org/1999/xlink"><defs><style type="text/css"><![CDATA[path { fill-rule: evenodd; }]]></style></defs><metadata><views><view h="2178.60622264" padding="0" w="1000"><proj flip="auto" id="robinson" lon0="-60.9776768918"/><bbox h="6.66" w="3.06" x="-897.07" y="-236.63"/></view></views></metadata><g class="" fill="black" id="country"><path d="M581.885896,2176.606223L597.308129,2167.687582L629.259805,2135.803461L686.232279,1926.438328L711.925303,1873.818298L733.419933,1858.656592L794.792221,1839.927423L809.680261,1833.238435L825.042400,1795.334164L902.146351,1527.105448L904.169375,1285.186442L989.853633,862.886481L999.770390,719.295342L992.154991,557.866646L991.171287,326.871728L982.460838,258.643444L947.002335,210.928215L896.924728,177.482958L868.199523,128.429898L896.023665,33.891234L805.576088,0.000000L734.102159,52.620592L604.198867,239.914103L582.525842,277.818718L557.303877,374.586925L543.713318,408.478082L518.135711,434.788315L469.312335,464.220100L442.847263,486.293933L313.018244,682.282701L261.872253,805.360852L134.803921,989.977916L103.585420,1066.232736L91.201221,1111.718049L41.098707,1213.836997L24.772355,1271.808424L23.046645,1327.550164L32.860052,1362.332999L44.707253,1389.980891L50.002712,1425.209652L48.176188,1533.125549L39.256371,1588.644242L0.229610,1674.486362L16.258830,1715.958123L43.201007,1751.855718L56.550911,1780.618384L129.986411,1888.088139L478.833322,2043.272570L558.058126,2176.606223L581.885896,2176.606223Z "/></g></svg>