<?xml version="1.0" encoding="utf-8"?><!DOCTYPE svg  PUBLIC '-//W3C//DTD SVG 1.1//EN'  'http://www.w3.org/Graphics/SVG/1.1/DTD/svg11.dtd'><svg enable_background="new 0 0 1000 1911" height="1911px" pretty_print="False" style="stroke-linejoin: round; stroke:#000; fill: none;" version="1.1" viewBox="0 0 1000 1911" width="1000px" xmlns="http://www.w3.org/2000/svg" xmlns:xlink="http://www.w3.org/1999/xlink"><defs><style type="text/css"><![CDATA[path { fill-rule: evenodd; }]]></style></defs><metadata><views><view h="1911.78336256" padding="0" w="1000"><proj flip="auto" id="robinson" lon0="9.53470576283"/><bbox h="3.45" w="1.81" x="124.21" y="-790.38"/></view></views></metadata><g class="" fill="#000" id="country"><path d="M624.007807,1909.783363L771.242725,1869.214088L960.927276,1652.293598L999.738327,1416.370877L915.105190,1184.897217L732.851811,979.450272L511.844874,870.627158L507.303319,791.823413L572.639921,655.322555L577.009780,590.589525L508.775034,464.640399L436.067834,385.598931L400.027396,305.853247L442.612712,179.431738L315.923095,83.031483L246.042957,0.000000L134.556981,173.098897L24.159631,479.182095L21.545459,784.787338L84.157351,934.889239L169.084761,1065.757337L236.736816,1211.164053L249.756029,1404.879427L186.593162,1525.890555L80.323269,1623.448558L0.261673,1720.770805L12.539829,1805.428409L177.930569,1846.701564L624.007807,1909.783363Z "/></g></svg>