<?xml version="1.0" encoding="utf-8"?><!DOCTYPE svg  PUBLIC '-//W3C//DTD SVG 1.1//EN'  'http://www.w3.org/Graphics/SVG/1.1/DTD/svg11.dtd'><svg enable_background="new 0 0 1000 1868" height="1868px" pretty_print="False" style="stroke-linejoin: round; stroke:#000; fill: none;" version="1.1" viewBox="0 0 1000 1868" width="1000px" xmlns="http://www.w3.org/2000/svg" xmlns:xlink="http://www.w3.org/1999/xlink"><defs><style type="text/css"><![CDATA[path { fill-rule: evenodd; }]]></style></defs><metadata><views><view h="1868.28780723" padding="0" w="1000"><proj flip="auto" id="robinson" lon0="80.6682559241"/><bbox h="65.5" w="35.08" x="1174.92" y="-164.83"/></view></views></metadata><g class="" fill="#000" id="country"><path d="M961.212365,1117.240758L961.051363,1107.713887L961.049585,1107.675002L952.011327,1066.009533L946.893981,1057.552008L935.802789,1039.198210L931.347080,1027.338237L930.293817,1024.577391L926.194961,1018.200226L920.379606,1004.415440L914.689895,998.466013L914.692627,998.524340L917.006859,1004.065474L917.007769,1004.084916L916.676086,1008.712249L915.579795,1013.106271L915.605546,1018.064128L917.193838,1022.749789L919.437180,1027.532663L921.261987,1031.421179L922.214253,1036.437364L937.371799,1059.768463L939.315224,1064.026389L944.143691,1068.459299L945.854932,1078.841640L945.486826,1108.919328L945.462722,1109.891458L945.463610,1109.910900L945.879306,1112.263454L946.261578,1114.635450L947.163157,1115.627023L949.077030,1117.785151L955.243083,1123.054094L961.212365,1117.240758Z M108.244858,370.687369L90.543446,359.488550L72.205762,351.789362L63.485458,349.300737L55.043002,346.889881L36.258577,346.889881L30.929691,348.989658L29.838536,353.578063L32.168736,358.166467L36.966487,360.246803L46.231419,361.393904L49.639165,362.424351L56.036852,364.349148L64.853498,368.665360L73.670036,372.981572L91.900648,390.363078L96.377316,392.851705L99.920369,395.806951L104.764156,402.028521L111.634190,407.744589L121.770055,409.183328L117.607908,401.600788L108.438208,390.557502L96.784520,376.558973L103.975656,377.958825L116.445758,384.724781L123.408643,386.338500L123.443886,386.357943L108.244858,370.687369Z M26.618259,164.617814L29.838594,161.001543L32.991391,157.404715L32.990313,157.385272L27.492130,145.836539L25.238894,144.067288L16.544095,143.328480L9.150070,140.762096L7.123289,135.687653L4.025998,131.663096L1.219743,131.021500L0.267768,136.037615L1.355085,155.616022L5.998722,161.643140L16.053234,165.317737L26.618259,164.617814Z M100.508120,71.975260L98.893140,70.031032L96.837954,67.561863L95.186489,63.770619L94.750703,62.720736L94.698844,62.409660L93.786186,57.179688L93.242535,50.627643L94.001210,44.133925L95.322234,38.515110L94.682032,34.490561L94.612524,34.471119L89.661967,32.818527L80.623474,35.034945L78.474845,43.531215L78.011130,54.010598L73.824844,62.195795L85.311693,85.079358L92.427237,96.025366L99.224416,101.333111L99.258618,101.333111L104.520537,100.633189L111.796599,95.617078L114.818174,96.433654L119.192606,99.408324L125.260915,101.488650L130.799455,101.449765L133.516001,98.066806L131.886565,94.644964L131.380517,93.556195L125.746050,90.076026L119.071025,86.945817L114.090608,83.543418L112.896381,80.568748L111.874652,73.394547L110.426217,71.975260L102.315175,72.480759L100.508120,71.975260Z M473.658077,1866.287807L476.578635,1865.548986L479.497711,1864.771280L489.420180,1856.099855L495.072549,1852.366865L500.603598,1849.955975L507.758989,1848.789416L507.794013,1848.808859L525.082770,1849.955975L532.183498,1840.156876L547.882794,1826.624787L563.579268,1813.073255L567.488882,1811.323416L574.399545,1808.270919L585.912986,1810.798464L591.898847,1800.649397L602.347941,1796.022044L625.475170,1791.239151L646.410914,1782.995464L689.844243,1772.360331L698.820258,1767.810749L707.729998,1761.569656L712.536556,1759.119881L716.194859,1757.992207L718.373146,1754.959153L718.880898,1746.909893L720.341988,1743.079690L722.848244,1742.301984L723.526227,1742.107557L723.594025,1742.088115L726.715897,1744.771201L726.766180,1745.179497L727.722098,1752.081640L727.756379,1752.081640L777.725792,1731.705736L792.980246,1722.139949L868.403926,1652.729672L878.837780,1646.255269L886.715336,1643.552740L910.363070,1623.973989L922.986521,1609.022590L959.734932,1538.173577L963.790334,1524.388741L963.789527,1524.369298L960.428264,1512.762039L960.427455,1512.742596L963.983968,1505.976556L971.538676,1491.569557L973.595612,1483.403647L974.682567,1477.454198L980.188280,1464.135989L981.263664,1455.503457L981.237887,1445.159973L982.003557,1437.344032L998.155137,1361.498315L999.732232,1342.502867L998.615049,1332.548242L993.562613,1315.652599L992.204689,1308.089419L989.220118,1195.730541L976.872691,1155.076054L969.872716,1143.468822L968.453695,1133.339228L966.980508,1129.567364L963.024939,1125.445533L960.645185,1124.337305L959.959750,1125.834385L961.020870,1128.828545L961.294258,1129.567364L961.295142,1129.586806L961.442765,1132.833721L959.021342,1136.838895L957.495908,1142.477249L956.767747,1149.087733L956.727741,1155.775988L956.735650,1155.950971L953.858170,1155.950971L953.789659,1155.950971L953.571433,1148.854422L949.477332,1129.586806L949.442194,1129.567364L946.838850,1129.567364L943.670256,1134.466899L940.242840,1133.669752L939.747889,1131.822705L939.254672,1130.014544L939.253788,1129.995101L943.608284,1126.320450L940.384714,1123.229077L939.027618,1120.507114L938.910685,1120.196033L938.082386,1117.804593L935.887983,1114.752106L933.536608,1110.513620L935.218873,1107.597232L938.113235,1104.972482L939.607131,1101.686683L939.042177,1099.820195L936.843604,1095.192858L936.766190,1094.998432L936.363077,1093.676336L938.205721,1081.583045L938.641461,1080.630358L938.640567,1080.610915L929.874596,1058.368597L927.369387,1054.557850L917.230906,1046.411408L912.172702,1044.428265L912.174503,1044.467150L914.050650,1050.960972L911.613883,1054.557850L909.384505,1050.047171L908.513175,1046.761375L908.934228,1044.019971L910.961365,1041.200796L910.994714,1041.181354L906.004606,1032.548848L901.356772,1026.871615L895.499968,1020.980514L889.642879,1015.089414L890.055121,1009.976016L890.054213,1009.956574L888.924432,1008.498381L887.250934,1006.398582L882.575954,1003.832163L877.511762,1001.732365L874.588838,1006.612451L870.492137,1008.362283L865.592500,1007.584580L860.437229,1004.998717L862.921569,994.402515L867.068601,989.347447L872.011789,988.861382L872.727353,988.783612L872.795849,988.783612L879.918229,991.680555L885.576201,996.949492L896.612571,1011.784176L901.082136,1015.089414L901.115479,1015.069971L910.283415,1011.900831L908.824437,1002.665608L902.479056,992.224947L883.322965,970.838121L882.205815,968.932750L878.593340,962.769456L875.211398,952.795421L872.334704,952.795421L863.516999,954.623022L863.448507,954.623022L857.051664,946.807112L854.216674,943.346336L848.512479,927.053471L849.497537,921.842866L850.482278,916.632261L851.243969,916.087870L852.004729,915.524036L853.225447,914.551908L854.182393,913.793648L856.127841,913.657551L852.772213,907.921997L849.241849,904.986172L843.822141,900.494942L840.570226,894.078901L840.329690,891.201403L840.118646,888.226693L841.406467,884.377069L842.111046,880.508002L840.755611,877.241654L839.633578,874.558582L839.631708,874.519697L837.531786,876.425067L833.329306,878.758173L831.333860,880.702427L831.301484,880.741312L830.924835,878.602632L830.399670,877.649947L830.248687,877.358309L829.372673,876.230641L828.365881,874.519697L830.100909,872.147707L828.037533,867.695364L826.910570,869.892372L824.315793,872.186592L822.373419,874.519697L816.519038,861.026572L813.233761,855.388235L808.262830,849.594358L804.415342,842.964452L800.120781,825.718923L799.329934,824.241291L796.392582,818.758496L793.824586,818.758496L791.858157,829.024154L784.836701,829.685200L784.802461,829.685200L777.110169,823.580244L773.199244,813.567340L772.407315,812.070265L772.372128,812.050823L768.751554,810.825944L767.256802,808.959461L766.500233,806.081966L766.384544,803.709978L766.382647,803.671093L766.624390,802.310116L766.940133,802.465656L766.193961,797.702237L765.966303,782.556510L769.047739,782.556510L776.426276,802.504541L777.178257,805.284823L782.382676,824.980107L782.379843,824.921779L789.437526,813.042392L785.053895,791.286203L774.648685,757.903395L773.103026,752.945554L773.101106,752.906668L771.827582,745.149106L771.175915,743.049314L767.329537,730.372797L763.750339,712.096841L759.117017,709.802625L753.434077,709.802625L753.365608,709.802625L750.730173,708.441650L747.848298,706.944577L745.257714,700.995171L745.027314,699.809179L742.231213,684.294065L742.228843,680.833301L747.258752,683.516365L753.473555,696.192874L759.024934,700.411897L758.497768,693.976429L757.971102,687.560404L750.161608,662.946207L746.217424,643.814799L742.395044,637.282125L737.455744,631.682690L732.187654,628.377468L732.151449,628.338583L727.477353,627.969176L723.172811,629.485689L712.405100,635.182337L717.284800,646.381207L710.982217,651.047404L691.662918,651.475139L682.269358,648.480996L675.332743,641.267834L669.452458,632.615929L663.062476,625.402768L654.712012,633.549168L648.265200,634.676832L646.129925,630.360601L651.154888,622.116990L658.002367,618.772883L665.458545,620.678246L673.007018,625.752733L677.797894,629.777327L680.370835,631.915999L680.369851,631.896557L683.111295,624.527857L681.222490,619.686680L678.014288,615.156582L676.560266,608.779450L679.461373,600.555284L684.161161,601.430196L684.162152,601.449638L687.283135,607.612902L685.518526,615.312122L685.552756,615.312122L695.895913,613.406760L693.968542,601.780160L683.722167,579.460205L683.685945,579.421320L682.160295,580.374001L681.397963,580.860063L678.295806,581.773859L675.294322,582.648770L675.227858,582.687655L678.964477,577.457631L683.228933,575.182863L686.131735,571.722105L685.723100,563.109093L681.453697,555.973711L669.005528,541.586293L670.000306,536.997874L665.797603,534.489798L665.762370,534.470355L663.439048,533.887082L662.162628,535.675787L661.339001,540.264206L654.122633,515.280658L648.307919,502.856937L637.696472,497.568593L637.661234,497.549151L635.080138,494.652227L632.646015,491.949728L622.318735,467.277279L615.864494,461.677860L608.031660,459.150344L602.182216,452.695459L587.322109,426.623172L571.031602,405.955888L570.961096,405.917003L568.573619,413.791179L564.713647,422.306956L559.220511,428.431317L552.135637,429.053474L545.221519,423.201307L545.186270,423.181865L548.874542,417.874086L553.108720,413.188464L553.140876,413.149580L547.934266,409.183328L547.313534,400.084281L531.266492,384.063739L529.412283,381.380688L526.074936,376.558973L532.966604,380.019720L544.676658,383.363813L549.866614,386.357943L554.932135,394.718176L556.135954,396.118030L559.952893,394.543195L561.723912,391.179659L561.579606,387.835565L560.572699,386.921772L559.926659,386.357943L551.499068,380.408568L542.791301,366.682235L536.015570,351.381072L535.712225,350.195087L533.045361,340.707202L533.043264,340.668317L531.208992,342.184823L529.813873,342.962518L528.611826,344.148504L527.356681,346.889881L524.550993,346.889881L524.482561,346.889881L523.035276,336.546531L522.935359,335.963259L516.611973,331.647050L509.700718,330.383296L506.322584,328.652923L508.315271,321.848091L513.898526,321.964745L522.995304,325.678239L526.284066,327.019764L526.283014,327.000321L508.353727,291.070814L503.784766,281.952344L498.526521,267.137265L495.675568,265.056933L489.943850,266.592879L489.102692,270.598005L489.103756,270.617447L491.452220,276.022423L495.163301,281.952344L495.128026,281.932902L486.321312,276.664021L463.239503,253.760924L462.625918,252.555498L460.774379,248.744797L464.030766,247.617141L471.702446,249.016990L471.738795,249.055875L474.244710,250.455724L479.010414,256.871701L479.079903,256.891143L479.431619,257.066124L482.385385,258.524301L482.418528,258.504858L487.350438,255.491293L481.142291,247.111639L471.583889,237.546004L466.498210,230.935606L463.248996,225.375096L462.756982,224.519633L340.777999,118.597870L323.764154,108.040702L315.278601,101.333111L256.097584,28.541229L251.857476,22.008630L247.091879,6.377058L241.012228,1.769245L232.531869,0.000000L215.182202,0.972113L206.523412,2.624704L203.682351,3.169087L195.108676,7.485266L196.347185,14.737226L203.003172,19.869982L227.481236,26.285927L227.482353,26.305369L243.405033,35.598770L275.918879,74.930487L314.787482,108.973932L330.532829,117.664639L330.732486,121.203138L330.733583,121.222580L329.748479,120.736522L298.555412,104.988262L284.966395,95.733731L245.308150,50.316566L232.717713,35.890404L231.263178,34.976618L227.891665,32.837969L227.856352,32.818527L226.433419,33.051834L224.400495,33.382352L223.059337,33.848967L219.572970,35.073829L215.068840,35.248809L212.947094,31.049281L210.753188,29.766092L200.531634,26.849752L197.011098,26.285927L193.344433,24.963853L191.913404,21.483689L191.747706,11.470928L188.917987,5.093870L182.612944,4.277295L165.604927,6.435385L132.588173,3.169087L132.553976,3.169087L125.314076,6.901999L109.752897,24.147279L100.950162,29.280035L104.034796,34.782195L108.705736,41.120374L110.484818,43.531215L113.557507,48.838954L115.553303,55.060480L116.686963,60.562644L118.692879,65.170463L123.511808,68.728400L123.832806,65.345444L127.305802,66.881383L131.081071,69.525533L132.076180,70.186571L141.868391,73.997257L158.784975,88.267893L179.712950,100.924823L190.034788,105.649301L200.352005,107.865722L195.440002,102.033034L186.708642,93.983926L181.804632,88.306778L181.768231,88.267893L191.043715,92.622966L207.612776,108.040702L215.950765,112.765180L218.904268,115.409333L222.087572,117.275793L225.207166,116.187025L227.531079,110.082143L224.596828,105.357666L219.863738,101.488650L216.763271,98.066806L215.113551,86.440318L220.350737,86.518087L228.436053,91.592524L250.654220,102.246899L255.365835,104.521647L255.400037,104.521647L268.753798,113.873391L300.287607,143.036846L304.258854,144.320038L317.883541,143.911750L320.130821,144.339481L325.966668,148.986193L327.555104,148.033520L328.381622,146.303154L328.814693,145.486577L332.018707,144.067288L337.200328,143.756212L340.644064,143.561788L343.545611,144.067288L346.525714,145.972635L354.483292,152.466367L355.787005,153.146848L357.124921,153.827329L366.001223,155.965983L376.139713,161.098755L405.969399,183.185231L405.900986,183.185231L385.717985,178.869035L358.527953,165.453834L335.734260,158.493484L325.444911,157.385272L288.423469,174.358417L267.978004,180.074459L258.816361,173.405743L258.781074,173.386300L261.235383,170.158875L259.548470,166.892565L258.237700,163.626256L263.204828,160.690466L263.203744,160.671023L260.452324,155.499368L249.950985,145.700442L243.332126,141.112058L218.800628,134.268365L192.560282,117.703524L179.408376,111.909719L165.836795,111.423662L172.588719,120.192138L204.832720,140.762096L213.392344,147.644674L219.967658,154.527252L222.600062,158.182407L225.198120,161.837563L229.663302,170.158875L224.887821,171.014337L221.179550,172.608607L218.215467,174.669493L216.685490,176.069341L215.674733,176.963688L207.203663,190.767739L203.528135,192.964722L195.123157,194.384012L184.997533,198.097497L175.981405,203.327485L171.281433,209.296282L171.836172,215.653926L174.468893,226.852714L175.037293,228.485871L178.368204,237.468235L183.143118,242.212167L195.111785,249.016990L200.095347,250.066877L200.096407,250.086319L201.066939,252.827691L200.364649,256.891143L201.871841,284.654833L199.901030,296.300811L198.945506,302.055752L198.583844,304.233298L187.180932,343.623560L185.192079,360.246803L180.796845,372.203876L178.606368,383.830431L173.578838,389.060437L161.221816,396.118030L138.125265,420.907103L134.462464,422.190302L128.878233,423.376289L125.101168,425.748264L127.061994,430.531098L129.471237,434.730661L130.993029,440.291193L132.607363,451.587240L132.608373,451.606683L132.631607,452.053858L133.629513,485.883688L133.073600,491.035933L144.726618,520.705101L143.362136,567.211453L139.943687,576.777145L139.235370,581.054488L138.943986,581.385009L138.393482,582.007169L134.953538,596.627905L134.387134,598.980444L129.244106,605.629770L122.726742,610.820910L117.324515,617.100830L115.381443,626.860954L116.371000,646.750615L115.827163,653.730467L113.861779,656.899593L111.218914,659.524329L108.913978,664.832129L107.202153,711.494123L104.240788,731.500463L103.836298,741.493913L102.963035,746.782277L97.844522,754.909248L96.077825,759.439354L95.514356,764.786046L96.429873,766.730298L97.293778,767.605211L98.012286,768.305142L99.306163,771.707583L99.583303,772.485284L99.588924,772.601939L99.922513,776.684869L99.919956,786.600555L100.538557,792.355542L102.011150,795.932967L104.263663,799.354852L106.273786,803.437783L107.085656,808.959461L94.359821,839.406468L95.837670,844.578183L100.193006,847.611219L104.175598,852.899590L105.781526,854.999384L107.134612,857.546357L110.634001,864.215149L112.918752,872.730983L103.360617,880.644100L83.760861,878.913713L69.821086,867.928675L77.308548,848.097282L75.087324,845.297557L67.258369,835.440191L66.259931,825.952234L65.760346,821.208255L71.659719,795.602444L71.867757,792.083347L70.949050,780.787241L71.389829,775.712743L72.865979,774.371208L74.806303,774.137898L76.575581,772.485284L80.361754,762.958450L83.808129,749.970849L78.845708,750.009734L74.683078,748.182138L71.398045,744.682485L70.906804,743.729802L68.973160,739.860742L76.143811,723.976212L81.595746,707.313985L81.714621,706.944577L70.363435,729.011821L68.735362,734.961229L67.293777,744.060325L63.093214,754.889805L57.012880,764.397196L50.344228,769.530021L52.912699,778.084730L56.490472,806.315277L55.407722,815.200513L54.405422,813.567340L54.382253,813.081277L54.238807,812.945179L54.129600,812.809082L52.375908,811.934168L53.104152,827.235441L66.228941,881.110720L74.025199,900.611598L79.423176,925.323084L84.968958,937.085831L86.385468,943.268566L98.541979,996.832836L99.311686,1014.447809L100.127326,1018.822388L100.942773,1023.196968L104.427400,1029.788002L107.116939,1036.981756L106.811900,1041.589648L106.505753,1046.178097L104.849417,1055.763291L104.536857,1064.026389L101.418513,1061.712721L100.126594,1061.926590L98.474335,1064.026389L101.321396,1070.209131L129.534339,1240.779071L128.824116,1244.162086L127.366772,1247.700642L126.845212,1251.491952L128.501064,1254.933295L128.803641,1255.594344L131.350811,1257.460835L136.959610,1258.821818L139.012870,1260.357785L141.363816,1265.626734L142.563834,1272.023356L142.568010,1272.120569L143.296958,1286.721977L143.297790,1286.741419L143.046306,1286.469223L143.012045,1286.469223L141.963256,1286.780305L140.846483,1288.705124L140.425171,1293.274140L137.821275,1293.274140L135.669495,1289.424501L130.940984,1273.423225L128.774328,1269.243062L126.361026,1265.704505L124.587643,1261.116047L124.410596,1253.825066L122.145302,1265.665620L145.729592,1346.352507L145.733697,1346.449720L146.070323,1351.990869L145.203299,1357.434806L141.499757,1368.769859L141.076386,1370.111401L142.514083,1404.485976L143.211323,1408.063421L150.429995,1444.148956L190.781029,1548.614278L200.578370,1574.045263L200.932909,1576.047855L205.157168,1601.109431L204.131252,1601.167759L204.096978,1601.167759L201.926813,1600.895562L199.897468,1601.576055L199.529231,1604.375796L200.799150,1607.000554L202.758603,1608.867049L204.624719,1610.111379L205.547600,1610.908527L207.656162,1619.113326L213.411704,1641.530704L221.776665,1657.201483L226.217945,1679.502207L230.036434,1687.726450L230.850599,1690.137339L230.852120,1690.176224L230.904347,1694.142526L230.956433,1698.108827L230.957952,1698.147713L231.953624,1702.580638L253.189109,1748.931930L257.211133,1754.550857L258.732657,1756.670107L259.876309,1758.769914L259.894965,1762.813986L259.895713,1762.833429L260.487020,1764.836023L261.497023,1766.138681L261.822760,1766.585862L261.857789,1766.605304L264.764583,1769.093965L300.654328,1810.176299L308.777847,1817.331197L311.727774,1813.773190L311.797823,1813.812076L315.927711,1816.028538L318.027671,1817.156213L327.497372,1825.458227L332.790093,1826.702557L340.226149,1828.413511L358.502255,1835.704508L361.530007,1836.890510L361.531484,1836.929395L361.883184,1837.162707L363.219938,1838.057069L366.057167,1842.353896L366.768663,1843.034390L367.549463,1843.734325L369.746609,1843.812096L371.342106,1842.489995L372.825877,1840.934583L374.750556,1840.156876L378.080954,1841.187337L379.948583,1843.423243L381.439787,1845.678591L383.500903,1846.689609L386.226329,1847.136790L397.644518,1848.983843L404.000794,1848.439448L410.953406,1843.734325L410.954144,1843.753768L412.377589,1846.028559L414.275459,1849.061613L416.735032,1854.252803L420.415843,1858.199662L427.433821,1859.735632L451.686631,1856.469266L454.672711,1857.460841L458.979299,1858.919040L466.548355,1863.235310L473.658077,1866.287807Z "/></g></svg>