<?xml version="1.0" encoding="utf-8"?><!DOCTYPE svg  PUBLIC '-//W3C//DTD SVG 1.1//EN'  'http://www.w3.org/Graphics/SVG/1.1/DTD/svg11.dtd'><svg enable_background="new 0 0 1000 1159" height="1159px" pretty_print="False" style="stroke-linejoin: round; stroke:#000; fill: none;" version="1.1" viewBox="0 0 1000 1159" width="1000px" xmlns="http://www.w3.org/2000/svg" xmlns:xlink="http://www.w3.org/1999/xlink"><defs><style type="text/css"><![CDATA[path { fill-rule: evenodd; }]]></style></defs><metadata><views><view h="1159.11193256" padding="0" w="1000"><proj flip="auto" id="robinson" lon0="-9.63602185649"/><bbox h="70.2" w="60.62" x="-170.04" y="-143.16"/></view></views></metadata><g class="" fill="#000" id="country"><path d="M963.148980,1157.111933L956.687749,1147.408249L956.093508,1096.028644L952.272224,1027.144576L953.856254,1000.827178L957.769491,976.038257L957.943078,955.524157L972.384464,947.831369L976.221877,939.180355L978.487209,912.471527L992.065394,888.124516L992.431446,845.733174L996.471960,836.879712L999.568263,825.637434L993.853932,797.794912L986.560330,745.281452L982.907038,741.853433L979.638537,744.120784L972.054862,745.079010L942.333774,726.926707L919.378817,723.795604L903.311769,708.302040L902.306045,690.662590L894.467668,680.311054L889.118707,659.918393L881.141106,636.502598L858.543284,622.331657L837.272552,618.944127L822.139407,621.940269L804.392316,621.063020L784.139388,613.235262L770.101755,604.327814L756.907797,587.214717L744.640362,573.583624L734.783324,575.270640L722.805801,572.045065L711.055365,565.836844L707.257348,561.059214L756.784947,506.521358L773.622588,479.866511L775.512504,463.603684L775.726794,447.124921L781.199601,430.281765L782.704058,404.558169L755.826391,311.192110L749.042378,282.283476L741.747283,273.821427L737.102180,270.649846L728.412080,263.173014L718.205594,252.241184L714.756734,237.881352L707.841189,234.871726L695.074923,234.750261L683.218659,242.901894L677.998157,257.720595L677.141636,274.779650L675.222414,288.005819L668.145305,295.995506L653.729954,316.685022L646.919458,335.795499L638.527826,352.409203L626.653967,351.450979L621.171993,349.116153L617.357767,353.461899L598.858492,362.693235L582.959495,365.338472L578.809487,355.756237L569.585156,348.063457L559.352623,332.893837L547.703562,320.612386L525.335890,312.055860L516.470501,315.861760L505.893967,314.890040L498.928182,310.071934L499.953585,302.703065L511.809503,284.064960L518.592780,266.951918L522.353253,248.246343L522.400334,230.485500L516.259221,205.382797L506.288357,185.462597L503.903436,173.909964L505.170924,157.485255L502.926638,142.194221L499.703079,134.218052L498.184162,119.048489L495.101467,105.228537L489.202041,99.897599L485.995955,76.751889L487.096546,52.958383L478.475419,43.970029L464.826515,37.410961L456.838204,28.098705L451.945843,17.733763L447.021507,14.724151L442.811954,15.344968L438.947473,21.782568L434.388810,23.145666L426.575923,0.863745L423.242820,0.000000L417.675221,5.114989L354.352129,29.799204L351.655573,20.203534L346.380775,8.799400L334.298683,4.966532L313.405760,13.509509L301.197728,14.521711L300.525094,23.105178L293.240264,62.702517L282.035859,96.672044L274.746616,105.053088L243.733803,113.987471L230.472273,128.954591L218.797287,177.243492L211.289924,215.126963L200.576810,221.470119L154.772048,276.250723L124.899803,297.034705L104.056168,314.849552L84.260294,338.116829L59.390417,360.722804L32.617321,398.849313L13.409722,438.500901L0.431737,450.849850L52.670558,511.191018L122.396600,547.360642L160.144892,572.868329L175.369723,615.691559L194.294640,629.970469L221.162657,643.115704L264.695124,655.167753L299.124608,679.960154L449.997229,834.450408L517.841431,911.189395L576.775532,962.717589L789.214091,1091.143059L852.738941,1113.614049L935.104977,1152.833674L963.148980,1157.111933Z "/></g></svg>