<?xml version="1.0" encoding="utf-8"?><!DOCTYPE svg  PUBLIC '-//W3C//DTD SVG 1.1//EN'  'http://www.w3.org/Graphics/SVG/1.1/DTD/svg11.dtd'><svg enable_background="new 0 0 1000 1172" height="1172px" pretty_print="False" style="stroke-linejoin: round; stroke:#000; fill: none;" version="1.1" viewBox="0 0 1000 1172" width="1000px" xmlns="http://www.w3.org/2000/svg" xmlns:xlink="http://www.w3.org/1999/xlink"><defs><style type="text/css"><![CDATA[path { fill-rule: evenodd; }]]></style></defs><metadata><views><view h="1172.34638224" padding="0" w="1000"><proj flip="auto" id="robinson" lon0="-9.68573310313"/><bbox h="70.73" w="60.39" x="-169.58" y="-143.63"/></view></views></metadata><g class="" fill="#000" id="country"><path d="M947.312332,1170.346382L960.107870,1168.810989L960.190899,1168.790094L952.104899,1162.533940L950.786288,1159.272075L951.123659,1156.461853L953.694756,1151.285883L954.462084,1148.540181L954.128347,1145.937858L952.399427,1140.338919L952.888800,1133.313363L952.454801,1130.424282L951.804754,1127.864972L951.458138,1125.370182L952.716838,1065.989868L951.686893,1051.580297L951.037009,1049.085506L949.576089,1047.071033L947.658623,1045.436514L945.805574,1043.436379L944.588807,1040.231863L944.594807,1039.907104L944.634637,1037.751409L946.031591,1032.016255L946.383084,1028.883427L944.664993,1020.309371L944.787209,1017.692707L952.283751,1010.996913L955.507792,1011.384036L957.538908,1013.025724L958.499851,1013.126089L958.500625,1008.917919L957.113880,1003.541211L954.848947,999.892218L953.153787,996.064002L953.514485,990.099439L953.476542,990.099439L951.618710,974.051595L952.216113,969.241228L955.305694,964.222961L959.321626,962.129627L963.463262,962.215654L966.904583,963.764148L973.537497,950.207657L974.995015,945.332768L975.199850,940.665779L973.231636,927.589606L975.841360,918.442018L976.886572,915.925715L978.715974,913.366397L985.051575,909.502330L985.661106,908.728083L988.454020,909.287261L988.058468,910.369774L986.814679,911.746213L987.075524,913.194343L987.853669,915.008088L987.859504,917.101423L988.425105,918.169598L990.806456,916.972382L992.038754,915.237495L992.951455,910.670870L993.551850,908.814110L996.526244,904.118444L997.964564,901.243692L998.202337,898.125196L997.574877,892.769985L996.251475,887.565322L994.431948,887.135185L991.863101,887.694364L988.241467,885.385959L985.952379,881.636594L984.273605,876.890744L983.328989,871.936994L983.280448,867.513747L986.700426,869.564069L987.810279,866.624796L987.680597,856.179624L989.464331,852.129163L992.330615,849.541168L993.640658,847.239932L993.225196,846.786731L990.755578,844.092759L992.348484,844.178787L997.205002,843.856184L993.920940,839.024305L992.762624,833.762289L994.442834,830.421554L999.573141,831.375025L996.515601,826.901595L991.347039,815.062528L988.171915,807.789147L983.732411,786.038522L983.994941,775.858597L985.628289,764.144515L984.561694,754.523769L976.736957,750.659699L975.949753,758.889666L974.720254,763.441957L972.816529,765.556800L970.496017,763.915108L969.308604,760.008024L967.665104,756.387699L963.875124,755.613451L964.700601,750.946458L962.883526,751.778057L959.845559,754.667148L957.008240,756.215644L955.267390,755.140300L952.047248,750.530658L950.169884,748.745586L952.164924,745.856495L950.932407,744.049917L945.657356,741.433246L944.987894,741.275529L939.954901,738.157031L939.591928,737.139038L935.258449,736.393466L931.654668,733.117251L928.999900,729.611629L927.424898,728.170668L924.706342,731.834007L921.829408,737.339769L918.408952,739.318402L914.085188,732.414692L911.113826,729.095463L901.476525,723.388970L898.307510,718.865356L898.062105,716.850878L898.268196,708.965020L898.816484,707.688945L901.059129,706.290997L901.582872,704.814191L901.033216,703.043458L899.784410,702.326562L898.471394,701.882086L897.691322,700.892770L896.918440,694.569746L895.954576,692.024764L893.587322,689.558642L891.388486,689.386586L888.325952,690.318551L885.969463,691.738006L885.863477,693.035588L883.210774,689.171518L882.574543,683.565390L883.205008,677.271042L884.364645,671.442676L887.641013,660.739418L887.048515,656.990051L883.276530,651.742372L872.444284,641.863544L871.602543,640.537286L870.970394,637.304084L870.556835,636.386457L869.048647,635.812941L867.903401,636.171389L866.852450,636.658878L865.538677,636.472485L849.781296,632.235629L845.799340,629.160145L841.569554,628.056126L834.945962,628.228180L823.563621,630.020420L820.701901,631.346678L815.228161,634.766272L811.862395,635.698237L807.893414,635.755589L805.823708,634.967003L804.198763,633.583394L801.551514,631.834167L798.643057,630.615444L779.710260,625.754889L777.489509,624.837262L777.127638,623.690229L777.135424,621.776116L776.866618,619.503556L775.649762,617.266840L773.872189,616.162820L772.844927,617.023095L772.030885,618.284832L770.842242,618.428212L768.262068,615.790034L765.911108,612.743226L763.388044,611.603361L760.190541,614.650170L757.604902,613.359757L754.609927,613.259392L751.609205,614.549804L748.968388,617.438895L746.075191,614.119667L746.947958,612.427792L749.197185,611.015507L750.433563,608.499202L749.886291,606.370021L747.708246,601.301566L747.276826,598.677727L748.559789,594.089593L750.374416,592.326029L750.722347,590.720182L747.516878,586.590861L739.865063,581.952545L737.051667,577.801717L735.514756,576.640346L734.316919,578.977427L733.183106,584.110401L731.240380,589.264883L728.182637,592.096622L723.690730,590.368903L716.470502,579.378888L713.752344,576.654684L710.925487,575.715551L705.048043,575.916281L702.668279,575.342765L698.543333,575.041668L704.595977,566.424580L705.761227,565.822387L708.708120,565.277546L709.836220,564.496130L710.359476,563.306083L711.475560,559.442014L711.212028,559.011877L711.477783,558.925849L715.558023,556.366531L716.126578,556.395207L719.469632,551.871595L737.204184,536.035367L742.039709,529.961958L764.138433,502.205062L767.652025,496.125788L770.744431,488.082221L772.827257,479.751896L773.248356,475.866323L773.081384,472.109791L771.894384,470.489607L769.904578,468.984127L768.713281,466.905131L771.867373,459.248689L772.113714,454.904304L771.830373,450.344850L772.155092,445.426949L773.492109,443.046857L778.501822,438.659458L780.345183,436.049960L780.993501,429.368498L776.928474,402.915074L776.617461,396.147586L775.959410,393.566765L774.468953,390.684848L770.886948,386.584210L770.035701,384.849325L769.841558,383.071426L770.375274,379.558642L770.257200,377.723392L769.281678,375.544032L766.369659,371.400382L765.230040,369.206684L763.348964,360.603950L761.786603,356.947788L757.648670,350.251994L756.046988,346.939942L754.757996,341.563235L751.926761,314.665366L747.016807,295.065486L742.654988,285.301393L732.464995,279.508893L725.114715,274.189542L717.278070,267.637135L712.736636,261.357149L711.245342,253.772416L712.609386,243.377464L683.496178,241.671258L681.536600,247.205674L675.090296,255.994786L673.375910,261.744271L672.728754,271.336306L672.367373,272.913471L670.913509,275.781046L670.463654,277.372549L670.733059,279.093094L671.715713,279.594920L672.812740,279.953367L673.463304,281.215099L673.696905,287.681480L672.722785,293.187224L670.273265,298.219819L666.106007,303.252414L659.262987,307.883549L657.791201,309.245647L656.907103,311.826466L656.513229,317.489929L655.579184,319.956044L653.497328,322.092388L649.499600,323.397135L647.199045,325.045992L642.716345,331.254296L640.499802,335.096848L639.323208,338.079129L639.805546,342.796293L641.587610,347.800215L642.673767,353.062221L641.068223,358.567970L638.356406,360.345868L627.748635,364.919655L624.512724,365.349792L619.917300,357.005140L616.795150,354.840119L615.449612,361.363858L612.879043,360.059110L611.752834,360.460571L610.923187,364.804952L609.836124,364.948331L604.408037,366.769243L602.431176,368.045315L598.239173,367.658192L594.856108,369.751524L591.758361,372.905860L588.359240,375.687411L585.107071,376.834443L581.667796,377.493986L580.287088,378.009402L578.364648,378.727045L575.546321,381.551610L577.879923,371.988235L577.026495,368.303397L572.265157,365.550522L570.378877,363.829975L570.263807,359.026782L568.898881,357.894089L563.434349,358.137833L561.957916,357.836737L555.926169,351.542404L552.691752,334.164886L549.183621,328.530098L545.428349,328.042610L537.085390,330.537401L533.249111,329.834845L531.793670,327.927907L530.129378,322.422160L528.436527,320.027733L526.397645,318.608283L524.633030,317.891389L521.162302,317.360888L517.069257,317.489929L514.818373,317.991754L513.815558,318.952392L513.269456,321.963347L512.026870,322.880972L510.609602,323.382798L506.889987,329.433384L504.125122,326.737862L499.437341,317.360888L496.685204,321.934672L489.533162,329.748818L487.506265,330.881511L487.391132,330.778465L486.513045,329.992562L489.217028,327.397405L490.747509,324.572842L491.408779,321.303805L491.580163,317.518604L492.583471,314.063175L494.921496,311.396329L499.983639,307.094965L505.577397,297.746669L507.679840,291.825126L506.778066,287.982576L511.178356,282.218750L512.944120,279.078756L514.176732,271.666077L515.613358,267.479419L517.728784,263.894951L520.405534,261.629568L515.263654,254.833419L514.934511,245.499468L517.399369,235.620680L520.102194,228.480426L513.912435,219.461912L511.816519,214.730419L505.514461,205.582868L499.958680,193.983545L497.635654,182.441576L498.293854,170.727556L501.516336,158.683318L501.850320,157.823498L503.619611,155.257024L504.177923,152.489822L503.752068,149.607916L502.518711,146.632815L499.686509,142.840457L497.100104,142.510687L494.486320,144.811909L491.521735,148.876686L491.893227,145.672179L494.585365,140.661106L495.106536,137.786370L490.763489,117.670392L490.768986,114.480226L489.979806,111.175357L487.564212,109.712898L481.638439,108.350805L478.107829,105.404382L477.721353,97.963052L479.344882,90.062913L481.768745,85.675541L482.949879,84.442488L483.361125,83.180760L482.976952,81.940539L481.797286,80.736162L480.437368,77.961795L479.508350,74.900671L478.288238,71.975758L476.055166,69.588512L478.736679,66.498713L480.259483,65.122284L481.893844,64.097130L482.906535,63.609644L485.935310,61.573675L484.664718,60.828109L482.935064,58.713283L478.663573,55.236364L466.453646,49.415215L463.339780,44.475841L461.367549,42.870007L459.599938,45.078029L458.415209,46.906099L456.604227,47.909745L454.519703,48.210839L452.552098,47.952759L448.335362,48.081799L444.669241,49.013756L442.502751,48.239515L442.860911,43.214114L445.179301,39.679846L448.400405,37.163562L450.439788,33.844361L449.149972,27.908513L446.003577,24.288219L441.134270,21.736091L436.313081,21.678740L433.298366,25.542776L432.657967,31.270727L432.583399,35.270972L431.619708,36.002200L428.274411,31.880083L425.766834,27.005232L424.673413,22.065861L423.187413,9.068651L421.815704,4.279829L419.263153,0.659538L415.114850,0.000000L415.232684,3.419562L414.044392,5.785297L412.277494,7.828432L410.590342,10.244350L410.583032,12.466708L411.390397,14.595870L411.051140,16.409601L404.980446,18.416892L400.546971,21.004864L398.358914,21.736091L397.183510,19.936698L396.055307,18.674972L394.923233,18.044109L391.471148,19.076430L390.258225,19.277160L385.499385,19.348849L381.393505,19.965374L377.472015,21.377646L373.316959,23.815072L363.722702,32.209852L353.861903,38.769396L348.655470,39.737198L345.406613,38.496978L344.369354,34.804994L346.912051,21.786274L345.271431,17.728678L341.626161,15.341435L327.754696,11.405711L323.628107,11.305347L319.479322,12.710450L311.166543,21.865131L307.047616,24.510455L305.158590,19.879347L300.121255,22.051523L297.555816,22.553346L294.893523,22.409968L294.637982,36.747766L286.912160,70.764213L282.541150,81.324013L282.009619,87.575301L283.740665,95.403751L285.625156,100.923812L284.911486,106.063922L278.861225,112.659322L274.107756,115.749123L269.299808,117.440987L264.282831,118.229568L244.574694,118.344270L239.683594,119.183033L233.919081,122.387538L230.289131,127.441623L224.545630,139.334856L221.927267,142.123565L215.716438,145.987612L213.506726,148.030754L212.492994,150.625903L212.119054,153.880592L212.310312,220.953049L206.697528,221.928024L204.912769,222.616241L193.340020,229.684806L184.003630,238.588618L151.117029,283.478047L148.510144,287.036276L145.780037,289.445039L142.524518,291.022205L133.214005,293.445306L123.184788,299.782648L86.710877,332.214934L82.298216,338.550161L66.257824,361.578926L64.134553,363.829975L43.948736,374.095905L39.786712,375.070882L31.180252,390.140008L26.730573,394.756810L25.966210,395.803477L26.592845,398.699732L30.015463,405.094434L30.802875,408.578543L30.295502,411.001648L28.985147,412.507127L27.161415,413.252698L21.826000,413.926579L21.031509,415.776168L21.882016,421.367949L21.313733,425.511603L19.765926,430.773612L17.401164,435.333065L10.679072,439.648774L9.627380,444.351606L10.103185,451.377179L8.200349,452.653252L0.426859,456.683331L6.574926,466.685996L8.935991,469.485839L13.031785,473.358203L17.856766,476.756400L22.444521,478.224060L23.331799,479.601403L26.633062,486.668750L26.522158,490.304031L26.188541,492.900660L24.739602,499.064832L24.884037,510.106153L30.145763,517.241240L59.433398,531.963003L103.214237,549.699117L141.653084,573.328455L151.047276,580.587731L159.065180,590.330742L164.855500,603.607429L166.825356,601.846236L168.852987,600.446313L171.404910,599.633455L174.897892,599.633455L169.251556,605.955687L166.770422,612.165023L167.541064,618.848526L171.580919,626.502943L168.967403,625.769113L167.191716,624.685301L165.926279,623.093453L164.763963,620.824223L162.907866,625.532029L167.658625,630.499497L199.092680,648.664628L248.605782,662.539672L256.370906,666.107218L263.135452,670.758575L266.822093,675.929259L265.032492,669.561867L259.485147,664.323445L246.862274,656.985138L246.872792,654.907833L251.578781,655.223945L255.619929,657.120615L263.544204,662.675148L267.200609,665.904003L270.267212,669.663474L273.765125,672.768142L278.665658,674.032589L277.538142,676.606641L275.979863,677.735611L274.069997,677.509817L271.828466,675.929259L271.162824,679.688730L273.702459,683.380463L278.008233,686.191599L287.254732,688.223745L291.712939,690.425237L304.716610,699.682794L314.650209,712.033729L331.875888,727.511912L334.496023,729.137629L338.194379,730.097254L342.542189,732.648727L346.377385,736.261431L348.636857,740.517649L348.969655,743.836822L347.907908,747.359209L348.591640,750.147766L350.115007,752.202492L354.342549,755.002338L356.146382,756.695793L364.795209,767.804861L398.300754,799.054755L433.691326,837.642952L458.034184,853.742064L461.988358,860.357827L461.399469,863.022196L458.474457,867.154225L458.781578,869.841173L460.255649,869.728276L467.158852,871.308834L467.863952,871.737843L471.454010,872.753915L475.734742,875.260228L479.694377,878.364895L482.271207,881.198609L484.441020,886.120917L486.987648,896.191326L488.712900,900.323355L517.155966,930.647474L521.944144,933.469897L527.371697,935.795573L532.278577,938.843790L535.484679,943.878993L532.298118,943.878993L535.524656,948.801299L539.617987,951.149554L544.012042,953.012353L551.624430,959.436187L560.090909,963.985932L563.953639,966.797065L577.921692,980.480168L586.543675,986.192750L597.266327,989.531059L596.764654,990.501971L596.703686,990.818082L596.543651,990.998717L595.744601,991.608359L599.933421,995.209766L605.668106,998.246690L611.665535,1000.301411L619.169647,1001.611013L624.199351,1004.139901L626.746824,1004.681805L634.261078,1008.621902L640.617744,1013.216800L657.726706,1029.654566L665.318874,1034.260753L699.419611,1048.350264L713.481137,1057.246525L740.675445,1079.080745L765.899415,1089.444660L770.627235,1090.449440L774.494408,1092.650925L784.948714,1105.769517L793.573665,1109.077389L823.353042,1113.175537L838.710549,1119.983204L847.112935,1121.439571L857.701258,1124.623256L862.067822,1126.610237L864.462690,1128.416583L866.359375,1130.268087L868.775385,1131.701875L872.817806,1132.277647L875.553388,1133.463062L881.394166,1138.678886L888.737660,1141.219060L890.949100,1144.402744L892.292139,1148.162201L893.736934,1151.244279L896.497838,1153.953797L899.499879,1156.008515L909.089507,1160.355034L913.073135,1160.693724L914.196076,1161.585607L914.977085,1163.538718L916.046960,1165.503119L918.076475,1166.383712L934.792302,1166.383712L937.918424,1167.004643L943.648209,1169.736741L947.312332,1170.346382Z "/></g></svg>