<?xml version="1.0" encoding="utf-8"?><!DOCTYPE svg  PUBLIC '-//W3C//DTD SVG 1.1//EN'  'http://www.w3.org/Graphics/SVG/1.1/DTD/svg11.dtd'><svg enable_background="new 0 0 1000 997" height="997px" pretty_print="False" style="stroke-linejoin: round; stroke:#000; fill: none;" version="1.1" viewBox="0 0 1000 997" width="1000px" xmlns="http://www.w3.org/2000/svg" xmlns:xlink="http://www.w3.org/1999/xlink"><defs><style type="text/css"><![CDATA[path { fill-rule: evenodd; }]]></style></defs><metadata><views><view h="997.119416747" padding="0" w="1000"><proj flip="auto" id="robinson" lon0="28.1647180026"/><bbox h="34.93" w="35.06" x="384.38" y="479.13"/></view></views></metadata><g class="" fill="#000" id="country"><path d="M400.942687,995.119417L401.759042,985.826715L401.356481,978.205595L401.692368,970.486024L404.765739,960.897853L407.725644,956.472478L411.283357,954.013918L414.882225,952.096233L418.320811,949.293447L421.900097,944.966305L423.507331,942.065129L432.099006,919.936866L432.905088,916.052004L431.978761,911.331107L427.908302,902.971044L427.322370,899.233544L430.941931,893.578045L467.470373,865.987755L473.326594,859.544781L476.972611,849.265268L476.732071,838.395179L472.334514,834.165087L466.612542,831.361389L462.678860,824.917701L464.244390,816.063549L471.034921,808.881649L479.936190,803.618085L487.578294,800.568124L499.619241,798.797164L503.668815,797.026192L506.693665,794.172936L512.295065,786.695294L516.286230,783.792732L523.129567,777.298749L531.012239,764.060699L534.964853,757.422207L543.535925,750.238714L553.409941,748.664221L572.730758,751.567184L583.016649,747.926175L601.433235,737.150433L608.131106,735.526649L614.850949,736.313940L633.918465,744.088295L647.597679,744.186702L685.075236,730.064749L712.327987,724.159847L739.268090,713.186170L788.849987,681.545385L805.645215,671.384086L838.966195,651.225166L844.085739,648.960821L855.062460,645.711937L859.896829,643.349082L862.814007,639.263249L862.217093,634.586599L858.493695,625.429918L858.137416,618.734468L858.719512,614.500473L857.853642,611.103372L853.061427,607.016935L847.817852,598.499178L848.916035,587.076006L852.325578,574.470446L853.671788,563.854255L853.836645,562.553600L862.503616,548.321502L868.681878,534.827273L876.183709,522.908351L888.700800,513.353068L920.697214,503.452593L925.727640,497.492403L926.252644,489.610928L927.455618,482.172543L934.441418,477.492645L929.224548,470.103145L927.311769,458.722867L927.479495,456.836047L928.397268,446.504478L932.100436,436.502677L941.344138,427.535195L953.191472,422.361498L965.566451,418.518109L976.633261,413.689152L981.519705,410.141286L985.242634,405.903491L987.538475,400.581506L987.794424,393.682467L989.123014,386.191867L997.477465,375.152682L999.498052,368.203661L998.450051,365.443713L993.458348,359.923729L991.875700,357.015832L991.718990,353.565741L992.652165,346.271113L992.495777,343.363061L989.166096,333.061395L979.033948,317.238425L975.855780,300.428557L973.401540,292.343666L968.304916,285.885438L962.319483,280.906086L958.194289,275.187114L958.196585,247.724509L946.249191,242.399305L930.031108,241.955533L916.947677,237.764322L886.140401,201.273472L872.640876,194.665165L863.669069,192.150024L858.571902,188.352611L856.665761,182.286511L857.228355,172.915860L853.861500,168.131780L845.416445,163.840837L836.035965,161.128140L830.086724,161.473394L809.457551,137.847238L795.269159,108.102261L790.528633,101.590534L785.269810,96.543127L785.183181,96.459985L779.324286,92.612017L773.094664,90.120156L772.787632,89.997345L760.264230,87.629321L757.093187,84.965272L746.934226,61.925236L741.296732,56.695358L723.296322,56.201968L719.486882,49.491799L717.938630,29.903223L716.123872,20.527917L712.983511,12.632716L708.037615,5.872299L700.757026,0.000000L694.645219,0.789558L670.322895,17.073790L662.106120,19.096926L605.189569,22.995129L596.610428,26.597225L588.129215,34.788142L575.734095,54.376422L567.396238,61.727884L558.968980,64.984182L549.461886,66.266957L540.160188,65.230870L532.226241,61.481194L527.066002,62.012509L504.913255,64.293455L501.317601,62.813320L496.866653,68.733817L490.955756,75.690258L478.533848,92.760017L477.036693,95.522664L457.608120,115.403124L440.737188,136.564763L438.746613,140.362848L438.611756,144.062234L437.909162,146.873737L434.219072,147.958872L423.168467,147.958872L418.758830,145.541976L415.331347,140.510824L410.821668,135.923523L403.243206,134.936997L397.072351,138.439148L393.351301,144.752781L390.257705,152.299370L385.969698,159.500510L374.776130,164.531338L328.705634,161.276106L331.125119,169.315477L326.517498,173.014500L319.951762,175.283211L316.366657,179.080796L315.860926,185.689460L315.170746,189.536225L314.045467,192.100707L313.034932,193.629522L312.489916,195.109012L312.222801,198.610441L311.412036,200.583059L309.784291,200.435113L307.897182,199.794013L306.301443,200.385798L297.625182,212.073283L292.259584,217.596316L287.035623,219.913984L280.460509,221.738519L282.020598,226.127215L286.723596,231.502041L289.917417,236.235747L287.299987,236.728836L283.402421,238.701187L281.331091,239.490123L278.767909,236.235747L275.787945,239.490123L276.681706,248.316577L276.951107,250.978750L266.501492,268.728474L241.163719,298.111571L238.106526,299.787691L233.835526,301.414502L229.564703,303.928647L226.556917,308.168130L226.022113,312.752612L227.774453,323.843769L228.053748,329.364525L223.751460,332.913521L220.328315,334.038913L203.361424,339.617048L196.314279,344.003821L194.824199,347.848347L193.238459,358.938005L191.926250,363.225877L187.589033,368.745790L183.661835,370.865010L179.836305,372.146391L175.968433,375.201964L174.768291,378.503914L176.207971,381.263719L178.388659,384.220620L179.296252,387.965977L178.276290,394.027424L176.478019,396.885616L173.645324,398.955321L155.426460,417.926813L150.406298,425.367182L148.073089,433.940572L145.747495,435.960695L136.258603,435.517255L133.954304,437.241740L132.766057,442.710739L130.393157,447.736199L127.405654,451.973269L126.447083,452.938972L124.422527,454.978588L110.641210,462.959744L101.734755,466.703898L90.156312,469.117861L82.609525,473.206763L78.387507,474.783188L66.387687,476.064026L54.602920,480.793215L52.313506,482.320328L38.172874,496.556492L36.233098,497.886470L33.026713,496.408716L32.189772,493.453180L31.107908,490.990205L27.117897,491.088724L24.793588,493.108365L21.142431,500.792692L18.118617,504.388477L14.708136,498.723860L10.431890,498.723860L7.051625,503.206307L6.335268,510.890303L0.501948,522.711339L3.655219,524.336684L9.115057,529.163399L14.219445,532.216983L19.273039,537.142033L29.778123,555.413040L32.724378,562.504356L32.720827,562.553600L32.762734,562.553600L60.311313,644.193215L69.458342,671.357092L76.521389,680.659466L94.712432,697.438251L99.780654,707.034771L103.590463,729.621887L105.814147,736.313940L110.226783,744.235906L113.859293,745.761224L118.973601,744.531130L127.972603,744.531130L134.035102,746.302464L137.605156,749.500672L136.917499,754.224103L130.378315,760.521870L119.849065,782.956395L119.580850,796.583448L126.670324,822.212294L125.441326,829.639806L129.792851,830.180876L130.066794,830.261755L137.956310,832.591084L142.028356,833.230523L144.910004,832.738647L153.760459,829.098735L160.257877,829.197112L162.972593,832.295957L165.059674,843.953236L168.861284,851.183480L174.807812,856.593758L189.043833,863.528620L190.133394,868.857299L191.084983,873.512598L200.853824,884.135624L209.523872,898.151629L210.537655,902.380914L210.418565,906.659329L210.759189,910.937697L212.999823,914.970137L236.170879,934.099089L256.051519,959.422732L267.602693,967.289988L281.338463,971.764432L298.125388,974.075394L302.232737,973.387023L310.267095,969.502630L313.823633,968.912593L318.377618,970.535194L321.589393,973.288684L324.511789,976.533851L328.114105,979.631491L335.855850,983.761648L344.118955,986.564237L391.547978,990.792676L400.942687,995.119417Z "/></g></svg>