<?xml version="1.0" encoding="utf-8"?><!DOCTYPE svg  PUBLIC '-//W3C//DTD SVG 1.1//EN'  'http://www.w3.org/Graphics/SVG/1.1/DTD/svg11.dtd'><svg enable_background="new 0 0 1000 1020" height="1020px" pretty_print="False" style="stroke-linejoin: round; stroke:#000; fill: none;" version="1.1" viewBox="0 0 1000 1020" width="1000px" xmlns="http://www.w3.org/2000/svg" xmlns:xlink="http://www.w3.org/1999/xlink"><defs><style type="text/css"><![CDATA[path { fill-rule: evenodd; }]]></style></defs><metadata><views><view h="1020.66028017" padding="0" w="1000"><proj flip="auto" id="robinson" lon0="28.1658835187"/><bbox h="34.47" w="33.8" x="385.09" y="479.32"/></view></views></metadata><g class="" fill="#000" id="country"><path d="M370.136243,1018.660280L386.791315,1013.118256L405.185128,990.178478L421.050620,960.827473L428.299928,923.714142L445.417697,903.951051L511.237578,809.457556L546.150142,774.448572L566.076402,771.940861L592.031460,765.237434L624.625291,762.343813L648.653163,765.140981L653.987154,764.079990L692.763150,751.926496L764.192061,720.575348L796.893227,701.284188L820.699275,685.557406L851.598612,661.579147L866.203117,603.335599L878.546547,553.814597L902.698291,529.436412L926.714480,513.215100L947.353452,487.529145L975.367218,425.765759L995.942427,365.291759L999.509641,340.557179L993.080651,315.192217L980.396059,288.085349L968.569869,251.552150L951.462880,245.849454L918.536924,225.357479L870.984207,184.175864L829.626346,148.403191L792.306046,96.235329L776.029216,87.725203L738.716126,52.473488L723.018369,32.210503L712.704653,7.980364L701.934718,0.000000L683.611753,6.142478L635.785021,16.879459L531.842043,59.195302L466.560811,98.169417L410.792467,144.390589L354.941355,162.084319L313.882307,177.408385L278.502708,230.335616L245.435618,279.580689L215.714120,323.937357L199.073436,343.938995L184.250626,356.886124L168.290533,385.241999L136.270222,432.333968L107.776414,464.013528L69.879939,481.252094L21.065268,503.559043L4.029127,516.546351L0.490359,535.567397L14.147190,579.879588L27.314707,622.639171L50.193728,672.579555L66.920467,709.143175L94.270151,753.759205L110.250461,779.897936L104.590036,823.729896L109.436910,839.447932L118.321573,857.575681L126.417958,862.203872L135.519291,868.712151L159.982366,881.294452L165.452583,889.682388L182.144187,904.625906L197.109742,931.860089L226.515807,969.310059L260.604724,997.793056L322.070362,1009.552054L370.136243,1018.660280Z "/></g></svg>