<?xml version="1.0" encoding="utf-8"?><!DOCTYPE svg  PUBLIC '-//W3C//DTD SVG 1.1//EN'  'http://www.w3.org/Graphics/SVG/1.1/DTD/svg11.dtd'><svg enable_background="new 0 0 1000 549" height="549px" pretty_print="False" style="stroke-linejoin: round; stroke:#000; fill: none;" version="1.1" viewBox="0 0 1000 549" width="1000px" xmlns="http://www.w3.org/2000/svg" xmlns:xlink="http://www.w3.org/1999/xlink"><defs><style type="text/css"><![CDATA[path { fill-rule: evenodd; }]]></style></defs><metadata><views><view h="549.907404435" padding="0" w="1000"><proj flip="auto" id="robinson" lon0="24.1622070051"/><bbox h="39.82" w="72.54" x="257.88" y="-937.62"/></view></views></metadata><g class="" fill="#000" id="country"><path d="M21.390165,229.943549L29.482436,200.117760L29.045094,182.651978L27.427804,172.156832L23.877605,179.407750L21.967116,202.493737L16.840719,218.757815L0.910900,243.818242L10.992769,245.506433L21.390165,229.943549Z M629.132865,547.907404L655.382928,539.398281L678.149622,528.892511L703.637955,530.025256L706.443075,524.864029L708.506184,498.447901L715.112762,492.724598L745.800833,495.372598L756.231358,490.589232L765.804868,477.619164L782.342874,469.529525L797.229166,469.540197L811.247844,460.459830L819.867814,466.541651L825.363141,477.427044L821.652395,486.148012L824.436241,489.564295L835.887364,493.877739L854.296449,493.749611L865.469411,490.140819L867.391607,485.155206L865.863262,476.103576L861.579905,467.694092L852.569006,460.417154L837.290390,456.672460L827.105936,456.544442L824.608711,451.925379L826.443303,442.048843L832.459354,423.848171L840.815243,407.391973L846.555952,401.179866L846.774506,395.479988L843.797543,385.520283L840.569395,367.672970L846.315757,342.522082L856.521390,323.777176L873.405015,317.704305L894.726042,314.407640L907.199655,305.483963L912.354618,295.225268L913.493686,286.573627L915.528404,279.092467L921.935893,275.809226L974.887011,277.859895L980.106376,261.754578L983.830366,257.251228L993.080816,252.493468L999.089100,246.769964L995.676598,242.363689L981.780266,239.518425L949.776521,237.002430L942.451170,231.684280L943.356558,225.284248L948.891620,208.720686L953.170179,187.359726L954.359673,170.821271L953.104229,161.081416L944.339728,160.021718L919.148229,153.208494L897.107927,143.091339L882.652197,129.714994L858.492353,111.336096L843.124121,101.959205L819.508964,90.214624L779.417747,66.280862L765.419023,60.793827L699.795589,50.350418L675.908008,45.594694L650.123046,18.508334L640.617400,2.807899L629.717390,0.000000L618.872714,3.304052L606.998230,6.460575L581.356355,24.845160L572.470686,27.485800L554.703917,27.718185L513.751412,31.774569L493.725168,25.066967L459.635990,17.716301L441.619660,16.554682L425.821423,16.723643L354.558380,9.522325L342.989707,17.410053L330.277695,18.835712L315.818701,6.650608L299.695478,3.187930L283.118514,7.326287L251.848038,7.801381L214.093123,3.958561L166.326367,0.960575L159.505369,2.248414L109.352212,18.423850L96.745929,20.895088L43.633952,48.247262L1.993867,73.809555L4.733588,84.015679L12.486156,129.429085L36.914601,171.891837L53.190286,207.224863L50.329179,231.397692L58.519057,247.184070L58.634611,248.723730L69.121925,248.649400L84.355220,246.239064L95.432980,255.180265L114.917884,263.687759L137.754715,271.293834L172.115390,284.267512L207.026660,292.334117L218.308884,293.269469L253.621359,292.206571L291.362462,293.322615L304.444475,312.578626L324.367554,321.692526L341.251996,334.233787L343.430259,341.383548L329.330746,386.265852L327.262134,401.467543L328.715100,416.727764L339.106828,435.810501L347.835904,446.474875L356.425702,437.953831L368.606003,439.105514L383.552973,444.384452L390.769177,448.320077L394.238767,452.789416L396.760161,457.963329L404.670380,458.998186L419.432987,462.935135L439.953886,471.919973L456.295607,480.629153L472.473904,493.098298L479.344464,507.194499L482.024743,523.175813L482.642786,533.466423L484.476301,537.656045L497.908019,542.027802L528.141986,543.684698L551.210249,538.553875L563.441837,537.837747L574.685900,539.441036L590.618747,536.512408L605.441617,535.326051L614.249609,541.995734L629.132865,547.907404Z "/></g></svg>