<?xml version="1.0" encoding="utf-8"?><!DOCTYPE svg  PUBLIC '-//W3C//DTD SVG 1.1//EN'  'http://www.w3.org/Graphics/SVG/1.1/DTD/svg11.dtd'><svg enable_background="new 0 0 1000 556" height="556px" pretty_print="False" style="stroke-linejoin: round; stroke:#000; fill: none;" version="1.1" viewBox="0 0 1000 556" width="1000px" xmlns="http://www.w3.org/2000/svg" xmlns:xlink="http://www.w3.org/1999/xlink"><defs><style type="text/css"><![CDATA[path { fill-rule: evenodd; }]]></style></defs><metadata><views><view h="556.938962764" padding="0" w="1000"><proj flip="auto" id="robinson" lon0="24.1548755878"/><bbox h="40.41" w="72.68" x="258.04" y="-938.12"/></view></views></metadata><g class="" fill="black" id="country"><path d="M13.631426,249.102810L20.798731,241.015224L22.408436,236.618886L22.918701,232.152376L24.932511,227.306817L27.461472,223.203076L29.582617,220.926328L29.394517,219.576220L25.759922,216.620247L26.213113,213.249802L28.386224,209.676710L29.832517,206.130377L28.694104,197.980207L28.703260,195.387295L29.764978,191.762771L29.755150,189.037965L26.762160,170.127835L23.042059,160.556956L16.900348,155.560865L19.130350,161.473411L20.541930,174.993418L22.623656,179.357048L21.990725,181.420011L23.056432,182.451530L22.512488,186.136987L23.239045,204.357319L18.786380,222.038213L13.453362,234.853413L3.016967,250.930669L2.982890,250.983652L2.982547,250.984182L14.259868,253.054888L13.631426,249.102810Z M636.118883,554.938963L641.951852,552.567605L659.529603,539.313034L667.580282,535.542900L678.268187,533.928844L681.985019,531.558663L682.608086,531.468373L683.264879,531.592521L683.932385,531.897252L686.814721,536.152420L689.643209,538.037472L692.803859,538.206792L703.689991,536.840962L706.523150,535.610624L708.113431,531.897252L708.127562,531.874679L708.141692,531.852106L708.157609,531.840820L707.548960,525.870767L705.369446,521.718181L702.477767,517.983456L699.696438,513.267565L698.373351,509.939677L698.557880,509.206449L699.624281,509.127486L700.916456,507.683630L703.877783,506.172144L703.833732,505.337467L703.390564,503.882459L703.145027,502.224487L703.616122,500.848532L708.287343,498.573415L709.080706,498.186975L716.895209,497.521611L724.897607,498.367414L739.017776,502.303437L746.540031,501.356051L753.419914,497.735879L759.474598,491.860798L761.567973,487.305627L763.407851,477.035709L765.117585,474.172743L768.111392,473.789526L779.428871,476.697554L793.377590,476.111424L797.200065,474.093846L802.818414,466.531583L806.874613,464.987737L809.109239,465.370876L810.375878,466.204779L811.398116,467.433125L825.460944,479.741048L824.147046,480.563956L820.113442,480.315954L816.860415,481.815256L816.807959,483.979754L821.196351,485.637021L822.456863,487.508570L821.485312,489.132147L816.813608,490.394972L815.791400,491.928453L817.718714,495.830055L822.062920,498.615519L826.955813,500.318463L842.417529,502.201930L846.151407,502.111703L847.807698,501.322217L850.047827,498.491466L851.800379,497.859930L858.325796,498.514021L860.321841,498.288471L863.898058,496.066869L864.693560,492.638834L863.204558,482.660750L863.568797,481.657433L865.247427,479.628322L865.493389,478.658892L864.831643,477.328779L863.924882,476.866631L862.945716,476.607379L862.137445,475.885991L860.607963,473.473938L858.941218,471.512835L857.157643,469.912461L855.289719,468.548808L854.490316,468.413573L852.610115,468.898170L851.900879,468.774202L851.115274,467.974059L848.656054,464.097515L847.792164,461.967817L846.507466,460.176248L844.009591,459.162185L841.533453,459.669213L831.956178,463.691850L824.601351,464.063709L820.717597,462.993214L817.924627,460.176248L817.253153,454.689323L819.691362,449.980359L826.364732,442.929133L828.636225,438.198917L828.577476,433.998465L827.704145,429.460630L827.500788,423.752407L828.639085,419.339459L830.813331,416.716667L840.482753,412.113089L843.329143,409.625781L845.143935,406.238317L845.303032,401.905894L843.632837,397.697661L838.118010,389.968609L836.255406,385.660276L835.991414,382.915761L836.370487,380.756261L836.934052,378.754319L837.217932,376.448823L837.106273,374.199674L834.669058,363.090543L834.709717,360.178790L836.195739,358.233979L839.493983,355.772172L841.059007,355.142690L842.215808,355.120209L843.007679,354.704307L843.456375,352.872134L843.049075,351.073756L840.861744,346.735465L840.289268,344.791238L841.377427,340.700768L844.315221,338.105086L847.888859,335.846628L850.917470,332.756880L851.631604,330.532393L851.598590,328.566398L851.938527,326.937495L853.726635,325.668114L859.780046,323.657399L862.900140,323.724796L869.261376,324.780693L872.430508,324.825625L892.537892,321.714167L898.224038,319.119578L900.415240,317.041767L902.703456,313.835185L905.102935,310.469402L909.632098,300.442501L910.121231,298.590069L909.987820,295.974341L908.904159,290.586196L908.935731,288.116845L913.202823,281.932841L920.677670,280.945276L940.096642,284.536528L941.530766,284.514082L943.128665,284.121275L944.032956,283.268334L944.810589,281.988953L946.063455,280.922831L948.448113,280.720832L967.377323,286.612853L971.026838,286.119016L973.087680,282.954097L973.879964,276.647374L973.913550,270.622031L974.736128,268.310850L976.942191,265.595926L981.194233,262.062286L983.606116,260.929338L989.959229,259.639953L994.162106,258.786910L997.843035,256.509993L999.100621,253.010725L996.906053,249.354733L992.632945,247.168013L963.886067,243.557357L954.013581,245.575699L951.122312,245.463567L940.536287,242.693983L937.640642,241.348500L936.475788,239.083696L937.417778,235.047701L940.504090,229.566071L941.318236,227.514840L942.144972,219.434154L943.177136,217.036014L948.398575,212.598684L948.498518,210.077677L944.520459,205.540233L944.356289,200.319961L946.965295,196.365970L950.494565,192.882726L953.113149,189.097399L953.895310,184.315821L953.307511,178.605504L951.636174,172.795200L949.158003,167.657268L939.425099,167.108811L929.559253,165.206055L904.692950,156.969228L893.101052,151.145103L882.158113,139.521639L877.099549,132.917053L872.027376,128.125046L853.467757,117.620344L841.575458,109.135780L831.285755,104.572838L814.865266,97.289365L800.311707,86.913258L794.699017,82.910611L784.191551,78.068553L781.884106,76.588684L780.017219,74.332686L775.633404,67.051801L774.072119,65.153625L771.909088,64.506032L761.977100,65.086632L759.020093,64.673512L750.086892,61.748296L738.912473,63.244372L720.753049,61.034712L679.559472,56.021289L672.958115,52.839969L666.960654,46.321837L662.802489,39.369581L660.816812,37.271865L654.477107,32.825740L652.420501,30.611229L649.890460,26.612032L643.350795,13.524022L637.436475,4.453609L633.827901,0.836058L630.115092,0.000000L628.053390,1.560657L627.814465,3.857164L628.006606,6.242998L627.264503,8.127238L625.929622,8.339082L622.041875,7.291026L620.368635,7.346773L605.980931,12.157233L600.190751,14.092734L594.183409,17.828594L582.735995,31.079780L579.949321,33.444932L570.928179,37.500600L565.492475,39.297052L559.792474,38.220287L548.189888,32.597031L542.524006,31.079780L537.440188,31.737992L518.379248,39.341685L514.037448,39.927629L513.790326,39.960978L508.587247,39.257998L502.593021,36.992922L485.387674,28.095649L466.194438,23.850110L463.931031,23.349386L458.358787,23.237848L447.090361,25.167512L441.767376,24.554025L441.427620,23.840160L441.401916,22.484969L440.937754,20.884453L439.275710,19.389952L437.811178,19.021912L433.318652,19.579550L421.571504,19.155745L416.353308,20.282185L406.934876,24.587487L400.844824,24.275170L382.618919,18.981467L370.761799,15.536853L366.947961,15.007150L348.005720,18.263537L345.137821,19.679926L346.945586,21.921714L339.540306,28.424729L331.293431,29.874945L322.978030,25.624845L315.392344,14.979272L310.334676,8.762772L304.549579,6.577471L298.704976,7.369071L294.154840,9.823212L288.470687,12.888412L265.792989,19.914136L263.299213,20.176231L260.268956,19.311883L251.968908,13.702440L247.255612,11.995413L246.827168,11.840236L235.800499,10.061745L186.157391,11.265981L182.716673,10.301474L175.991844,6.978844L172.624431,5.802611L165.007106,5.434697L147.324162,11.703991L144.477121,12.713145L99.655267,28.592059L84.864047,29.071742L78.963313,31.358682L57.369635,44.290717L54.837214,44.921246L47.249227,45.189084L42.363993,47.103065L36.648349,50.869909L31.340979,55.563611L27.778166,60.319259L25.900011,67.275121L25.529952,73.232653L23.590196,77.331404L17.015918,78.688438L7.126424,78.749869L0.899379,79.893715L2.803293,87.472586L5.412541,106.002246L5.325768,108.017607L4.184266,111.018828L4.146613,113.386513L5.482770,122.902626L10.723546,141.183880L12.881732,145.411895L14.402814,150.776801L15.666903,152.151173L17.251825,152.873617L19.101919,154.212814L27.339851,163.077255L28.728745,165.236370L29.796422,169.316959L31.581901,173.124686L39.644361,185.396343L40.467806,187.635948L40.639328,189.249595L40.591775,190.969120L40.797903,193.614679L41.816728,195.678328L43.685591,197.424570L45.477733,198.721068L46.324929,199.461941L46.796654,201.155415L49.780416,207.603569L53.004055,216.346720L53.734211,221.649933L51.435849,224.023793L50.234236,225.674100L45.278071,236.548266L44.834101,236.724817L44.914423,237.201508L46.067122,238.843484L54.894609,231.993497L56.697014,232.170030L57.260590,237.077921L58.103364,239.355511L59.615369,240.308956L60.869256,241.288906L62.594612,243.566715L64.091600,246.083035L64.671237,247.857790L63.982719,250.029975L62.770245,250.135938L61.498434,249.818050L60.531352,250.692248L60.771227,252.308236L62.241515,257.297860L62.141421,258.357676L62.144139,258.360693L74.891467,249.870591L79.063413,249.399590L84.801750,253.212598L97.204283,266.504622L103.868749,270.139590L121.086554,270.554713L128.346261,273.045535L141.260469,279.901622L144.577350,282.752089L147.765078,284.570198L159.782816,286.444499L166.084929,290.159662L169.591826,291.742348L175.748943,292.842403L180.182437,294.885435L181.916846,295.356917L183.305225,294.885435L187.383445,292.382173L191.739579,292.056647L193.933079,293.156710L194.824950,295.570208L195.337994,299.128951L197.400055,302.721657L201.513269,305.079526L206.232110,306.157450L210.103864,305.865510L213.016117,304.158820L214.657225,302.160278L216.592463,300.498636L234.521440,296.973464L237.720879,297.259045L266.344480,299.813788L283.560671,295.906985L287.956601,297.635816L289.045042,298.464172L290.862738,299.847469L293.365114,304.192504L297.660620,314.020687L300.644252,318.883713L303.034629,321.511986L305.989761,322.612761L315.535427,322.556599L317.190257,322.938506L318.431692,323.848357L319.863583,325.331117L321.698812,326.690356L324.061481,327.341907L322.599498,330.274000L324.255015,331.959198L334.913676,335.464611L337.289717,337.262364L339.073384,340.037787L342.931151,348.837123L344.213604,352.849654L344.345522,356.693928L342.711639,360.493565L340.450701,362.562141L335.580959,365.429078L333.693192,368.363662L332.476278,369.533052L329.663074,370.736207L328.037781,371.883169L326.634776,372.153047L326.108880,372.524132L325.911280,373.569932L326.417536,374.615758L327.017780,375.582887L327.057550,376.448823L323.929870,380.542566L323.431844,382.060946L323.742182,384.287998L325.530455,389.259899L326.071838,391.622310L325.893883,395.559942L323.683636,405.934471L324.945829,422.840512L327.179145,431.352276L332.811286,438.863369L345.092544,452.481229L348.018934,450.532341L351.463421,444.554675L351.647188,444.235664L355.680658,442.748924L359.369861,443.120605L370.184933,447.062860L372.064364,447.243086L375.856584,446.634827L377.648474,446.938955L379.669285,448.313193L380.891497,450.014154L381.902005,451.715181L383.185274,453.112101L385.254181,454.092225L391.190983,454.610461L392.446390,455.815945L392.135781,457.889006L391.512674,460.356528L391.837045,462.666437L395.384983,465.877977L399.303480,465.866708L403.190232,464.570795L406.548072,463.996098L409.823273,465.122962L421.407116,471.760786L428.370048,474.747576L442.731749,478.647620L446.470823,480.825372L449.932020,482.841124L451.862409,484.757647L455.639917,489.211073L457.466370,490.902368L459.369101,491.804419L463.158977,492.559902L464.837076,493.259017L468.136043,496.393899L471.178090,500.758307L473.785683,505.642009L475.793735,510.300656L479.816712,520.488281L480.609201,525.419380L478.562717,528.771047L476.686047,530.068902L475.893921,530.926637L475.207113,531.897252L475.450232,534.233591L476.473086,536.220145L478.090365,537.800425L480.082915,538.929232L481.239106,539.911319L481.898709,541.006316L481.971430,542.202944L481.453807,543.478631L487.542937,544.641459L503.988202,551.664265L507.047661,552.454686L509.679540,552.285309L517.718109,549.552784L528.260872,548.401112L530.987330,546.752694L533.506770,545.962380L534.720783,546.143022L538.009568,547.509152L539.513316,547.847869L540.816084,547.678510L553.041615,541.999740L555.570355,541.627204L558.371643,542.462594L563.792433,544.912414L566.685967,545.420459L577.651229,545.318849L582.553941,544.257609L592.483691,539.956473L597.996483,539.188862L603.614561,540.599922L609.090757,544.991442L613.016798,551.269060L615.165377,553.369334L618.553251,553.854897L624.316888,553.662930L629.946293,554.893793L636.118883,554.938963Z "/></g></svg>