<?xml version="1.0" encoding="utf-8"?><!DOCTYPE svg  PUBLIC '-//W3C//DTD SVG 1.1//EN'  'http://www.w3.org/Graphics/SVG/1.1/DTD/svg11.dtd'><svg enable_background="new 0 0 1000 1173" height="1173px" pretty_print="False" style="stroke-linejoin: round; stroke:#000; fill: none;" version="1.1" viewBox="0 0 1000 1173" width="1000px" xmlns="http://www.w3.org/2000/svg" xmlns:xlink="http://www.w3.org/1999/xlink"><defs><style type="text/css"><![CDATA[path { fill-rule: evenodd; }]]></style></defs><metadata><views><view h="1173.60885482" padding="0" w="1000"><proj flip="auto" id="robinson" lon0="6.061710798"/><bbox h="11.96" w="10.2" x="73.53" y="-838.03"/></view></views></metadata><g class="" fill="#000" id="country"><path d="M333.252132,1171.608855L355.016051,1165.572185L462.673064,1160.197161L481.045173,1154.491469L492.823609,1139.111416L507.956043,1134.315638L510.546697,1125.716494L510.076708,1115.463974L516.418116,1105.707856L525.335867,1102.731472L560.918429,1100.003147L552.196091,1085.287137L624.621991,1078.673423L660.659244,1081.814919L695.671272,1093.223775L697.932199,1094.589793L759.446500,1131.752406L793.555123,1146.966727L818.894194,1149.167357L818.580414,1137.375005L812.992764,1088.924736L819.466512,1037.272365L821.394289,1021.884011L819.643741,971.220583L826.217374,953.618487L844.428443,928.993823L876.168825,895.613326L888.206494,873.967610L897.331151,862.401857L900.473263,855.214798L898.927911,844.641063L891.009864,838.445693L882.758448,833.902507L880.354648,828.615983L899.141274,806.066742L990.176385,756.679421L987.574085,753.211072L978.672511,745.035845L982.702297,737.273730L988.488138,734.879080L999.573600,738.429778L990.218971,728.520967L983.809741,717.043702L980.475987,703.998180L980.881131,689.714864L992.827683,680.881046L993.128753,674.689287L989.484589,667.589576L989.211945,656.279950L993.971096,621.528494L995.758385,620.455481L995.408228,607.001894L998.066824,604.773451L998.469799,605.103589L991.474269,599.078623L986.510692,598.831027L947.320845,589.422456L886.823416,589.422456L864.614596,584.470709L842.841374,573.329617L805.608276,545.025089L783.844057,533.968166L772.755613,533.720627L754.181623,543.127225L743.988082,542.384586L742.498430,537.021151L734.372426,520.554571L728.899140,509.463059L722.600633,500.717684L703.887231,490.982611L660.603803,475.390755L640.365143,459.057435L596.135184,377.406439L573.534631,348.793578L560.736928,370.727065L550.232636,356.791657L529.561434,311.939757L506.896648,284.900614L500.988811,271.943245L503.902578,254.221960L494.961019,220.925878L486.315654,207.822965L472.430657,201.395374L483.513100,182.772791L488.022163,177.581791L485.147736,177.252209L477.618787,177.828979L475.367158,176.675438L481.783435,131.856276L487.153404,109.943986L495.084397,86.880520L476.118158,80.044264L472.827488,67.442986L473.745427,52.371712L467.783496,37.713103L451.091636,24.949292L441.373520,26.019780L433.549816,33.101586L422.811137,38.618948L394.321291,42.324706L380.088347,40.677696L374.482051,38.488377L363.218458,34.089761L355.152415,22.396609L350.479674,7.163401L342.176579,0.000000L323.220987,12.597843L296.507046,14.903401L286.332669,29.643005L281.854802,51.465819L272.597815,74.361256L254.390397,90.257536L208.169150,108.955508L187.858493,124.442126L183.635528,134.574851L182.007843,160.444027L179.239321,171.319779L171.856124,180.383270L153.928111,193.402323L146.699865,203.290672L148.730409,221.749986L149.216714,236.749197L146.500881,249.359132L137.643646,257.271577L112.423361,266.503087L104.884723,274.993083L104.160491,297.018400L113.301744,305.921643L118.664429,314.742763L105.565136,336.673264L95.402572,344.670955L76.891247,348.216408L68.189986,353.081177L58.633021,363.800494L54.209251,372.128896L51.470634,380.210181L46.713049,390.353385L5.029634,452.293434L0.426400,467.471442L15.467105,473.328410L43.906638,490.735115L56.096877,505.255342L22.903298,502.450236L23.325525,511.690700L21.651888,516.476071L19.422932,520.188918L17.389305,525.964562L29.803479,535.205857L15.073142,543.457287L9.948492,558.723112L12.373702,577.785998L20.697535,597.840634L34.569706,615.998391L47.510292,621.115796L61.132001,623.014214L77.427861,631.103272L86.096055,641.256210L117.364997,689.467184L119.560690,696.980273L123.009461,719.273062L122.605836,722.988700L130.865148,728.355822L148.617081,732.732167L156.294762,736.200264L163.374229,737.273730L171.391772,735.044226L179.626944,735.539672L187.237568,745.035845L187.857492,748.664283L189.325648,757.257484L184.840146,763.863997L178.889932,769.562237L177.215405,778.398868L176.895803,788.804976L173.275103,793.925583L171.630207,799.624430L176.442126,811.352851L185.227424,816.721656L210.623480,819.117002L219.963739,825.477154L227.741997,848.193134L221.139026,862.071412L208.914566,871.654421L199.174692,881.402979L184.162369,918.252162L174.618954,934.282170L160.737735,945.354950L182.461394,955.023311L171.240413,979.980698L143.054464,1005.518714L113.384650,1017.338006L154.472792,1060.899773L177.092471,1077.929389L209.234598,1090.247511L289.971005,1106.038567L314.391107,1125.799176L333.252132,1171.608855Z "/></g></svg>