<?xml version="1.0" encoding="utf-8"?><!DOCTYPE svg  PUBLIC '-//W3C//DTD SVG 1.1//EN'  'http://www.w3.org/Graphics/SVG/1.1/DTD/svg11.dtd'><svg enable_background="new 0 0 1000 424" height="424px" pretty_print="False" style="stroke-linejoin: round; stroke:#000; fill: none;" version="1.1" viewBox="0 0 1000 424" width="1000px" xmlns="http://www.w3.org/2000/svg" xmlns:xlink="http://www.w3.org/1999/xlink"><defs><style type="text/css"><![CDATA[path { fill-rule: evenodd; }]]></style></defs><metadata><views><view h="424.790006939" padding="0" w="1000"><proj flip="auto" id="robinson" lon0="24.3963709707"/><bbox h="37.54" w="88.58" x="256.52" y="-963.46"/></view></views></metadata><g class="" fill="#000" id="country"><path d="M795.836924,422.790007L799.149615,420.639160L819.701144,418.089539L826.224338,415.384023L841.002004,396.971322L854.204898,393.842834L890.564311,398.574673L906.819099,398.210663L911.329852,398.644009L927.751480,399.484717L929.168870,397.638653L933.124904,379.443348L939.327577,374.151202L962.794908,350.281881L979.628909,340.157478L991.053756,337.942633L995.299347,338.453073L997.213466,330.053449L998.820170,317.643896L995.539940,307.875202L990.050397,295.258016L977.851860,273.353774L975.613754,267.163511L960.654868,257.591245L956.942749,249.557590L948.091260,239.240213L940.070451,232.642651L935.838929,217.969113L930.346177,212.806558L924.051316,210.393637L904.229458,214.607753L901.925564,214.176836L907.335131,190.812816L905.631545,177.312468L909.148376,163.129734L915.158144,157.529028L916.379308,152.669038L915.680988,143.295333L912.823122,135.265504L907.692636,131.105281L889.028113,122.099176L868.667799,111.249058L862.292124,97.466632L856.118107,94.676581L839.930372,93.955503L836.557625,94.419051L817.127270,92.161470L794.851077,85.055085L784.675085,79.717848L775.669256,79.777908L765.418867,83.304501L728.174331,93.449043L718.131728,91.079953L693.964826,81.133579L680.690477,70.298547L651.654482,48.734889L648.668746,43.609997L644.645678,39.497034L616.865267,34.168197L605.543324,26.228191L597.094405,25.114883L584.318308,21.150147L549.919145,4.201377L541.849340,2.618300L540.458557,5.467903L541.709349,9.473238L540.170737,11.792827L536.141410,11.715790L527.782300,5.485019L518.114372,0.000000L492.824044,10.312035L483.500126,13.093934L475.016600,13.701709L434.322079,27.273028L422.472826,34.587957L416.913771,33.808408L416.628260,48.983444L429.104873,73.360772L444.080851,129.687155L443.481341,142.882612L431.915996,156.574172L403.974060,175.289649L388.786013,185.448129L351.052487,192.052941L298.350862,171.123924L271.209403,129.893424L255.782323,117.880647L197.086299,82.137503L191.239598,72.331417L180.734774,59.493273L138.329885,69.586647L100.826365,81.699891L72.434429,86.419583L42.192367,130.134072L39.293115,145.384815L39.765161,163.852481L35.260347,183.829434L24.654782,198.805604L1.918411,218.046687L1.179830,251.102034L8.395522,317.903282L17.415650,351.363729L51.495321,330.442674L94.963980,308.056718L105.281394,306.034172L146.328454,292.795642L151.910993,291.741630L191.004940,294.195285L221.904855,297.340380L247.497683,296.951547L261.064838,293.564574L274.260635,296.398548L286.094371,306.371254L296.498317,305.204446L305.966515,298.748859L364.290628,304.642664L377.220446,304.504381L391.965627,305.455090L419.865377,311.471127L436.255541,316.960858L469.772473,313.640974L484.313404,313.450782L491.585740,311.289592L512.571928,296.243018L522.290413,293.659612L531.166066,290.955463L540.087007,293.253543L547.866754,306.103317L568.970049,328.271721L588.520463,332.163968L642.228927,340.711212L653.685962,345.201989L686.497986,364.790199L705.825439,374.402366L718.403326,382.076735L738.176570,397.118653L750.007634,408.066312L768.046171,416.346538L788.663756,421.922714L795.836924,422.790007Z "/></g></svg>