<?xml version="1.0" encoding="utf-8"?><!DOCTYPE svg  PUBLIC '-//W3C//DTD SVG 1.1//EN'  'http://www.w3.org/Graphics/SVG/1.1/DTD/svg11.dtd'><svg enable_background="new 0 0 1000 424" height="424px" pretty_print="False" style="stroke-linejoin: round; stroke:#000; fill: none;" version="1.1" viewBox="0 0 1000 424" width="1000px" xmlns="http://www.w3.org/2000/svg" xmlns:xlink="http://www.w3.org/1999/xlink"><defs><style type="text/css"><![CDATA[path { fill-rule: evenodd; }]]></style></defs><metadata><views><view h="424.750229096" padding="0" w="1000"><proj flip="auto" id="robinson" lon0="24.38830919"/><bbox h="37.73" w="89.04" x="256.23" y="-963.64"/></view></views></metadata><g class="" fill="#000" id="country"><path d="M795.067916,422.750229L797.318214,419.042942L800.455529,417.700746L804.193474,417.983790L811.905608,420.120388L815.036154,419.946899L825.297630,415.838193L827.628597,413.501014L833.653329,403.013052L840.329345,395.972672L843.058708,394.611806L843.266488,394.508200L860.816069,392.847628L866.534401,393.522796L869.742864,394.708934L879.276653,399.987747L883.337467,401.511774L885.863096,400.690434L891.467595,396.150603L893.845070,393.741772L897.807148,396.634215L902.448019,398.486601L907.166817,399.476712L924.691022,400.626553L928.495377,400.270645L929.205751,397.555833L929.700502,393.787393L929.120839,385.385179L931.510278,377.568699L943.974841,371.057865L947.380104,365.295822L947.176483,361.066091L950.883564,357.866800L959.273403,352.690247L960.498234,350.357415L961.300857,348.197868L962.303541,346.275352L964.145098,344.667266L965.754048,344.015854L971.265099,343.141251L976.753393,341.091490L980.135359,339.149588L982.258104,337.930552L987.816324,336.304653L993.500462,338.841454L995.629527,335.434808L996.195094,331.527616L996.201249,327.365919L996.614156,323.222957L997.385335,321.347414L998.274885,320.209394L998.820060,318.825615L998.596811,316.231187L997.900748,314.356044L990.087176,302.334022L988.412556,298.771952L987.248851,294.732682L986.595996,288.692914L985.738396,286.787529L984.400573,285.332418L976.053298,278.848880L974.653118,277.285024L973.892613,275.589418L974.317928,273.512082L977.413693,271.093997L978.072015,269.539610L976.843435,267.467211L974.206483,266.162942L962.546779,262.368594L959.769945,260.469318L957.375859,257.606986L955.949230,253.886341L954.334409,245.978584L952.353912,242.985871L937.633467,236.224931L934.718030,233.201369L935.613787,230.259804L938.099480,226.111214L939.904263,222.099317L938.694786,219.594412L935.372324,217.915513L929.194666,213.596166L925.944429,211.845006L919.651329,210.620160L914.094105,211.754275L903.634624,216.236704L901.259460,215.797541L898.996888,215.379185L900.612159,209.213914L907.073008,195.499574L907.161696,193.513678L906.801384,190.013734L906.816575,188.236714L907.293417,186.296615L908.784384,182.507432L909.096775,180.594888L907.525167,176.099523L904.005331,174.345967L900.218557,173.036529L897.726746,169.837934L899.777367,167.192324L911.620074,162.880113L915.215144,160.130947L915.805471,156.376723L915.760129,150.993013L914.553644,141.165363L912.977366,137.078625L910.791067,134.571645L907.962276,132.996971L893.075199,127.011255L890.960531,125.567409L882.595842,119.855316L867.516849,115.183627L863.640851,112.610670L863.536281,109.549641L864.320161,105.964527L863.148042,101.828400L862.663207,95.451318L838.933435,95.604966L834.842399,97.611506L812.914315,92.265557L801.938308,91.786593L798.505014,90.697658L795.347554,88.461175L789.378728,83.134970L785.856509,81.373336L780.972103,80.262206L778.613022,80.226072L776.301753,80.596444L774.150906,80.325440L772.407266,79.083371L770.575408,78.193631L768.219787,79.002074L766.518077,81.219763L765.613704,83.812550L764.438865,86.233899L761.971797,87.959684L759.668640,88.456657L749.075232,88.059078L744.726932,89.089180L740.636795,90.914538L737.084216,93.381663L736.423383,94.511369L736.183886,95.799287L735.736243,96.870336L734.430274,97.313228L733.070486,97.005914L730.329622,95.740539L728.997278,95.505547L727.299228,96.255721L725.661593,97.412654L723.605826,97.665739L720.734737,95.686310L715.369346,91.176604L712.832747,89.640390L712.797676,89.630423L701.453754,86.406341L699.639178,85.890561L693.513459,83.094316L688.216515,79.304681L672.751202,64.760519L667.589080,61.140293L651.069209,52.479782L649.505309,50.327470L648.448326,46.727110L648.563739,45.125592L649.144546,44.088037L649.430138,43.041498L648.681379,41.377038L647.520819,40.524548L645.828199,39.974276L617.107355,38.228814L613.306601,35.969343L610.948645,32.483527L609.056224,28.944035L606.580414,26.509482L604.505746,26.464400L603.057340,26.824541L596.110199,28.551787L592.766153,28.750165L589.522565,28.416531L586.308091,27.149659L582.999695,24.571006L582.026915,23.187106L581.708643,22.028649L581.635866,21.846505L581.254790,20.892776L579.863102,19.585678L578.438533,18.954686L573.535738,18.229063L567.793543,15.881059L558.404833,9.058986L552.634114,7.040619L551.276661,7.094680L550.455322,7.419051L549.642285,7.554207L548.323770,7.040619L547.291808,6.017975L545.128773,2.860178L543.996237,1.662021L541.343036,0.301769L538.835458,0.000000L537.310910,1.157549L537.690624,4.175508L542.304858,8.896790L543.717690,11.681277L541.468319,14.114550L537.413300,15.651226L535.292056,15.651226L533.108066,14.502091L530.799944,10.744073L528.801588,6.445949L526.315196,2.860178L522.530233,1.243128L516.234436,1.364742L513.167910,2.008851L510.451915,3.301618L508.798119,4.630949L501.695024,10.338561L498.534926,11.978666L488.349607,13.024058L485.335566,14.470547L482.822167,16.261597L481.547296,17.169958L477.959996,16.764354L474.174064,15.209592L469.830335,14.461534L468.160788,16.268624L466.508333,21.091100L464.599263,22.245011L456.499048,22.876076L446.916182,22.272056L444.278111,22.682248L437.953789,27.176709L432.925203,29.133398L431.465809,30.486027L429.951107,34.634491L428.742235,36.397772L425.793233,37.624467L421.960843,37.764277L415.798707,36.098046L414.765882,37.986440L414.132628,40.095949L414.122312,42.312167L415.206425,46.446726L418.046244,54.653680L418.579167,57.809187L421.050040,61.092987L428.166409,68.002986L429.284279,70.313797L432.607914,80.590255L432.096860,87.035343L432.275078,91.624603L433.433069,93.716691L435.168745,95.438863L436.457826,99.289207L437.783420,105.781136L444.711292,127.652087L446.527263,135.760757L446.587783,142.773896L444.487393,147.664110L436.675332,155.008055L433.696263,156.655341L432.553933,157.903345L432.834426,159.786145L430.581031,160.413772L427.733614,161.797448L425.435244,163.823151L424.699423,166.326936L412.414121,172.462439L407.573636,174.881309L402.449719,175.923124L400.876048,177.671454L399.534663,180.026507L397.488292,182.545901L392.785387,185.700789L389.448078,186.914294L381.619000,189.748373L358.988221,193.767931L350.279571,193.125338L343.662492,191.697400L342.690341,191.169080L341.352267,190.433731L333.590953,183.538014L331.757833,182.545901L319.835116,180.968579L308.050860,177.749953L300.742127,172.426764L298.221555,171.763214L296.142408,170.671600L294.291552,167.953437L287.885439,151.728013L286.421231,150.109516L284.185911,148.719246L282.512938,145.511177L280.469236,139.352647L278.857606,135.903284L277.042025,133.045746L276.307579,132.183550L272.615002,127.880069L271.730083,126.141753L271.398866,124.410663L270.783017,123.042959L268.971926,122.494471L264.211208,121.739425L256.710908,118.897493L244.645894,112.189051L233.610206,103.709543L200.522952,85.434608L191.809715,77.681185L190.085864,75.120876L189.014154,71.586600L188.383091,64.398490L188.626573,57.809187L189.067683,56.551207L189.694418,56.124785L189.696181,55.925791L188.236982,55.328816L186.231257,55.037439L184.526651,55.542020L182.975393,56.252711L181.513703,56.622277L178.435062,56.792848L172.893277,58.043731L136.039297,72.873681L111.126906,82.887843L105.445504,84.175426L80.659653,85.370581L75.293511,87.526253L71.653747,90.756502L59.770688,111.142330L51.416376,120.101185L47.721752,129.547237L46.075533,130.972242L43.896328,131.934159L42.090888,134.307019L40.890616,137.414113L40.454868,140.535785L40.693648,144.185276L42.672714,155.607058L42.597164,157.126011L41.677790,159.607845L41.666453,161.490752L43.830199,166.198532L44.502188,168.060446L45.381835,175.188141L44.670284,181.446763L42.798998,186.457440L40.243861,189.834042L36.309021,192.654111L32.843149,195.124561L31.260341,195.831461L30.037036,196.952537L25.831350,202.365695L23.637544,204.222669L15.178498,208.108393L14.111984,209.715682L3.683728,214.995321L2.424005,218.053493L3.051145,221.033356L4.454920,224.163591L5.498088,227.644381L6.719321,242.694134L5.867348,248.401339L2.437518,258.509481L2.073088,265.722352L1.468698,266.480943L1.179940,267.268180L2.024227,269.214884L3.143399,270.589100L4.212317,270.982766L5.465221,271.104446L7.041319,271.619800L9.659858,273.122965L10.430865,273.924682L11.362353,275.227514L12.273073,276.931298L13.314855,280.024111L14.098670,281.226953L13.822059,283.117223L14.046513,286.103217L14.759103,289.232721L16.811323,292.928361L16.651334,294.310753L15.839546,295.342214L14.749633,295.750510L13.528437,295.234769L9.943415,292.040222L11.556752,289.748366L11.385805,288.545206L11.029602,286.038768L9.977111,285.609112L8.935647,284.943157L10.531794,282.537242L9.021572,280.453692L7.642145,275.843157L6.526259,274.024898L3.839947,272.357058L3.271305,273.996264L4.101314,277.174703L5.524455,280.138666L5.089114,281.935791L5.557650,285.394287L5.533184,287.342091L5.103344,288.946254L4.495025,290.314153L2.983139,292.699161L2.207317,295.406682L2.417007,298.780654L3.237585,302.298270L5.655219,309.227150L6.047286,310.818062L6.313535,312.702893L6.264299,314.724010L5.491189,318.178833L5.377086,319.268397L6.502263,323.053477L8.500135,326.853334L16.207781,337.961463L18.934559,343.750069L21.207466,350.278704L21.433566,351.089492L21.441661,351.146893L21.442283,351.149368L26.522544,350.216174L34.590771,350.166057L39.954319,349.058936L41.536846,345.715019L41.838754,340.854637L43.371025,335.179779L46.277704,331.299939L50.607658,327.470638L55.270700,324.397502L59.256260,322.836003L65.446831,322.617491L67.512876,322.103081L85.129824,311.552633L89.943869,309.686859L102.011111,309.295515L138.578493,296.340890L140.901218,295.517584L155.327640,290.402854L161.542144,290.703013L164.289408,291.662629L169.775781,294.373357L172.582850,295.160239L213.083595,294.177777L222.079573,295.628738L222.429115,295.755338L226.274402,297.147996L233.045899,301.724393L235.518098,302.429562L237.552615,302.215735L256.053949,296.483880L260.691297,293.983173L264.403472,291.980991L269.171723,291.335174L273.891427,293.118025L278.017665,298.189683L284.206358,306.874749L290.990380,310.342143L297.718496,309.159001L303.760006,303.853593L302.285162,302.024657L304.624904,300.869113L320.078708,298.212428L323.190184,298.644580L332.863675,301.454827L347.733065,305.773633L352.701562,306.028433L360.385479,302.516003L364.642683,301.597010L374.226456,301.942767L377.891630,301.487824L379.086451,301.788085L380.442410,303.007356L380.821091,304.313119L380.842061,305.418735L381.119247,306.001133L385.461942,306.501639L394.655155,304.927345L399.201204,305.018343L401.047778,305.426853L416.706353,308.890525L430.743133,316.149261L435.633452,317.997196L439.878323,318.570715L440.079934,318.543507L443.622141,318.065472L459.172784,311.862088L463.320358,311.325094L467.942800,312.562925L477.408634,317.150592L482.058912,318.029058L486.493567,316.563444L493.853360,313.254675L496.126835,311.325094L505.466073,300.514269L510.367092,297.466412L515.090943,295.887356L526.828981,291.962799L528.194075,291.917319L531.365847,292.772363L532.454894,292.599533L533.060330,291.062297L532.903574,289.115843L533.098498,287.242265L534.780514,285.969021L537.809565,286.651109L540.753578,289.602446L545.578706,297.002435L550.914014,307.680134L552.978119,310.942832L554.655977,312.749514L559.828151,316.376833L561.448142,318.088230L564.840532,323.760147L569.733489,329.077888L575.119129,331.673331L608.726424,335.763472L623.541576,337.566198L632.658094,336.345641L639.946141,338.732144L642.358580,339.069184L650.461476,338.595508L652.226159,339.123839L653.499915,340.672443L657.076399,346.612468L658.599477,348.452997L660.481979,349.660331L669.054371,353.610667L673.633418,356.876179L685.506768,365.341404L698.903230,371.283539L707.297964,375.006162L717.000156,381.928194L732.141802,390.498331L736.279875,394.407834L740.406845,399.796108L749.334513,409.278974L758.791627,414.030518L779.078507,420.750436L787.127441,422.302777L795.067916,422.750229Z "/></g></svg>