<?xml version="1.0" encoding="utf-8"?><!DOCTYPE svg  PUBLIC '-//W3C//DTD SVG 1.1//EN'  'http://www.w3.org/Graphics/SVG/1.1/DTD/svg11.dtd'><svg enable_background="new 0 0 1000 993" height="993px" pretty_print="False" style="stroke-linejoin: round; stroke:#000; fill: none;" version="1.1" viewBox="0 0 1000 993" width="1000px" xmlns="http://www.w3.org/2000/svg" xmlns:xlink="http://www.w3.org/1999/xlink"><defs><style type="text/css"><![CDATA[path { fill-rule: evenodd; }]]></style></defs><metadata><views><view h="993.33476062" padding="0" w="1000"><proj flip="auto" id="robinson" lon0="17.2409726608"/><bbox h="229.31" w="231.08" x="132.34" y="-556.24"/></view></views></metadata><g class="" fill="#000" id="country"><path d="M937.946779,991.334761L937.626919,982.285252L937.306770,973.239447L936.986272,964.193812L936.665365,955.144815L952.181220,955.151893L967.697207,955.162510L983.219345,955.173126L998.729075,955.180204L998.926936,955.049266L999.112642,954.921866L999.304423,954.795147L999.496138,954.664209L998.170688,918.547797L996.834942,882.436448L995.481837,846.321717L994.104843,810.209311L993.469103,793.934080L992.826485,777.658198L992.176369,761.381542L991.518131,745.103984L990.851150,728.825401L990.174803,712.545666L989.488319,696.261114L988.791372,679.978700L988.083194,663.694759L987.363161,647.409165L986.630652,631.121792L985.885045,614.832516L985.125717,598.541211L984.352120,582.247484L983.563904,565.952106L982.761114,549.655285L981.943752,533.357490L981.111819,517.059189L980.265319,500.760849L979.404252,484.462938L978.528621,468.165924L977.638429,451.870276L976.733478,435.572917L975.814164,419.281402L974.880295,402.992657L973.931872,386.707147L972.968897,370.425343L971.991373,354.147710L970.999301,337.874718L969.992683,321.606834L968.971522,305.344526L967.935820,289.088262L967.211180,286.052629L963.075587,275.021707L959.070687,260.988587L954.545402,243.745222L953.735700,238.158175L946.886492,220.419194L946.031557,215.396747L947.217120,211.820762L955.470497,196.878061L957.760242,189.623301L959.506598,180.924239L959.774835,173.847196L956.284209,163.027967L952.407627,153.301634L950.617488,143.346223L949.468815,133.556035L953.709861,126.866701L958.922034,120.621002L960.753615,116.782390L963.784652,112.471176L965.986507,110.444130L963.511306,106.305200L957.087048,93.953305L952.167420,88.871171L947.595016,86.663177L935.539900,84.373917L923.180953,85.777826L901.736232,84.860706L896.051436,82.853541L887.001700,76.337373L880.686650,74.061519L849.200015,70.077484L837.614555,61.574717L837.533941,56.805076L838.447143,53.136326L835.188974,40.794706L824.253436,35.844122L814.065101,31.981075L799.747310,28.113753L788.183358,21.890488L778.664467,19.110569L757.536139,19.807357L750.184061,17.356103L745.009539,17.731064L732.823560,27.735465L726.475352,29.290998L710.870374,29.446545L684.906823,43.585755L670.319859,54.393437L656.071918,69.721048L651.034484,77.734560L647.996617,85.594404L645.904566,98.706874L649.151537,117.589609L653.363280,128.082656L658.956030,136.030073L661.682221,143.610529L662.776318,152.047085L660.837367,160.339109L655.480752,172.106200L638.339789,194.650074L631.056385,200.036878L613.235551,209.112527L603.002515,210.699363L591.406215,208.943268L574.565698,199.899381L543.804355,173.794331L528.745254,168.409299L521.182125,162.946914L491.134756,151.839168L455.894629,142.222035L435.610887,141.316338L415.407232,138.634461L397.282415,131.666993L389.338140,126.944241L382.252470,119.387311L375.757215,110.313691L370.137406,97.500900L366.567951,87.608468L365.692821,73.990947L359.557265,63.004382L353.781196,57.257011L312.956310,48.584046L307.372301,45.747695L295.576872,36.271735L290.525355,34.207806L270.761363,28.269309L259.317384,27.760213L252.455528,25.918162L236.791874,19.372310L227.993601,20.624368L204.864312,27.597582L184.908846,25.568117L175.867803,23.435886L146.846144,6.397359L137.270195,4.570808L127.828006,0.000000L127.766757,1.912036L126.118853,15.672222L125.808990,20.624368L125.786890,29.001112L126.144321,39.070436L131.313490,47.580943L131.576738,51.314105L129.841802,55.629298L121.052434,60.579202L109.697979,66.975280L99.951519,73.048799L89.257407,79.699693L86.052495,83.996475L80.750571,87.305131L76.329535,90.617017L75.612720,93.780502L72.634107,99.789402L68.636452,104.591714L58.331718,106.844618L56.453278,108.279516L51.864843,115.488704L49.740173,118.326320L47.168650,124.247936L51.155047,139.607130L55.950223,155.401947L56.981213,161.991891L57.081305,167.468348L54.821662,173.367891L49.518238,181.830054L45.631561,188.030042L38.132736,199.201325L35.905829,201.947772L30.615599,205.202100L20.325866,209.528625L13.102148,213.351273L7.190383,216.969718L0.503862,221.597309L5.690701,230.380946L15.596865,244.670016L21.671344,256.203796L23.800914,261.225195L28.674884,275.551629L32.684180,289.445202L33.748394,293.944332L35.364971,304.644520L34.425837,334.107059L37.950465,371.568726L41.962926,390.247946L36.734191,407.125651L32.279988,423.238031L32.766828,431.328877L35.701169,443.994142L38.490231,453.351307L42.152689,458.276374L41.794474,474.033992L40.436790,479.756925L29.779634,488.010216L17.912577,495.593928L14.715490,501.997657L13.891268,509.142120L15.613041,514.943480L24.132659,527.790089L36.937336,547.086105L51.020887,568.290746L52.267868,573.626980L53.123495,588.685058L59.178928,607.606364L65.514623,615.877441L67.951224,622.058270L72.395111,626.467913L76.829751,629.705103L79.523521,630.094694L94.840869,624.934294L121.336938,633.445132L146.434212,642.125443L148.297649,643.832403L153.972675,654.792605L163.255064,672.713263L170.172656,687.052649L176.358921,699.882774L209.093003,708.308270L240.200963,716.312167L271.499139,724.365319L278.939372,728.761686L295.814675,744.523510L317.427579,764.701355L318.363607,764.995111L319.319419,765.083591L339.381978,753.191563L365.494140,737.695753L365.500424,737.702832L388.250924,725.777688L405.508201,716.712177L427.516851,705.150521L448.528955,716.995369L478.963868,734.145528L509.418965,751.294455L539.888063,768.442295L570.383376,785.589196L600.898836,802.735305L631.428420,819.880768L661.984525,837.025730L692.561242,854.170340L723.158948,871.318282L753.777635,888.459087L784.418125,905.607056L815.080517,922.751719L845.759272,939.896762L876.467274,957.041657L907.198598,974.187904L937.946779,991.334761Z "/></g></svg>