<?xml version="1.0" encoding="utf-8"?><!DOCTYPE svg  PUBLIC '-//W3C//DTD SVG 1.1//EN'  'http://www.w3.org/Graphics/SVG/1.1/DTD/svg11.dtd'><svg enable_background="new 0 0 1000 991" height="991px" pretty_print="False" style="stroke-linejoin: round; stroke:#000; fill: none;" version="1.1" viewBox="0 0 1000 991" width="1000px" xmlns="http://www.w3.org/2000/svg" xmlns:xlink="http://www.w3.org/1999/xlink"><defs><style type="text/css"><![CDATA[path { fill-rule: evenodd; }]]></style></defs><metadata><views><view h="991.805991668" padding="0" w="1000"><proj flip="auto" id="robinson" lon0="17.2314930303"/><bbox h="229.3" w="231.43" x="132.01" y="-556.23"/></view></views></metadata><g class="" fill="#000" id="country"><path d="M938.040162,989.805992L937.720656,980.766800L937.400999,971.735253L937.081060,962.705746L936.760705,953.672675L946.879770,953.672675L952.247880,953.680154L959.342328,953.682024L967.741619,953.689503L975.563305,953.698852L983.235434,953.700722L992.400572,953.706331L998.729049,953.706331L998.864733,953.689503L999.000417,953.672675L999.136101,953.655847L999.278068,953.633409L999.332477,953.524961L999.386748,953.412774L999.441090,953.305005L999.495360,953.192818L999.478433,952.734822L999.179786,944.657314L998.931671,937.776662L998.676692,930.892356L998.428054,924.011863L998.179221,917.135175L997.843909,908.119653L997.507842,899.104206L997.177394,890.088811L996.839496,881.073447L996.500526,872.058093L996.166993,863.046467L995.832032,854.031069L995.489202,845.015616L995.145017,836.003827L994.799086,826.988202L994.457770,817.968719L994.108456,808.956575L993.282251,787.839069L992.444138,766.720405L991.592755,745.600307L990.726582,724.474761L989.844722,703.354713L988.945266,682.226797L988.027000,661.094477L987.088808,639.963091L986.129337,618.832367L985.146796,597.692673L984.140112,576.547248L983.108984,555.402836L982.053662,534.263948L980.973208,513.112886L979.868182,491.961910L978.738790,470.815789L977.968665,456.654599L977.212334,442.941281L976.853956,436.508426L975.471396,412.067048L974.836324,401.032242L974.674045,398.231262L973.177202,372.742313L972.840072,367.085281L971.109894,338.512585L969.317563,309.681600L968.549683,297.555115L967.979362,288.632446L967.285866,284.472438L965.948188,280.589160L960.028035,267.900286L959.255416,265.403334L958.933459,262.611725L959.143453,257.379907L959.034328,255.622456L957.949731,252.652527L954.441586,247.215155L953.830220,244.210514L954.608854,240.447164L954.589760,239.015039L954.202483,237.392785L948.012683,223.866535L946.066836,220.675776L945.410532,219.121502L945.241861,216.337390L946.053269,213.803165L948.277776,209.126442L949.135911,206.652270L949.650262,205.646245L951.163458,203.496404L952.887859,201.570198L956.085666,196.034152L957.111491,193.560619L957.518667,191.124437L957.621559,189.690337L959.130333,184.725226L959.498061,180.758584L960.054962,177.875897L960.798345,175.402962L961.008606,172.915185L959.967782,170.010359L956.887407,164.219491L955.829153,160.543955L953.366835,156.071546L952.839075,154.611782L950.872197,146.910771L950.390941,141.004581L949.347075,134.941799L949.175256,132.305078L949.761019,130.018382L959.086175,121.798487L960.875729,115.674910L962.403692,113.212656L965.987326,110.116034L966.068780,109.875502L966.279823,109.640835L964.929275,107.514119L963.883301,105.475325L963.473343,104.240276L959.874906,99.472864L957.613064,97.108044L957.070479,95.825824L957.086263,94.244267L957.417773,91.380291L956.297860,89.020876L953.987426,87.659156L946.781052,86.115423L944.206675,85.129277L942.191452,84.785881L940.937458,84.137234L940.071784,83.905362L939.294138,83.456289L939.035955,83.253764L938.517543,82.954378L938.075913,83.086460L937.624915,83.359430L937.149193,83.500317L934.651791,83.007211L933.957651,83.280181L932.671828,84.272248L927.299313,85.962807L911.048740,84.800556L899.457933,84.929697L898.040429,84.539338L893.982582,81.527851L892.341592,80.855660L891.827793,80.541576L892.065893,79.992654L893.391595,78.571872L883.452264,74.588067L872.876509,72.124722L864.441884,72.259786L856.728556,71.590335L856.324516,71.346628L854.511694,69.904897L853.955458,69.681731L851.294305,69.628875L850.086893,69.170791L851.005234,72.412465L851.198504,73.604515L850.567789,73.029048L849.892435,71.469950L849.358169,70.644857L848.584183,70.216152L847.596650,69.922515L846.718999,69.429198L845.792640,67.262027L844.690261,65.690872L843.407487,64.301720L842.383796,63.702572L840.997601,63.444112L837.183591,61.999038L836.218346,61.241225L836.025479,59.769595L836.538710,53.846974L837.126066,54.446351L837.562525,55.013394L837.744068,55.618618L837.580063,56.311964L838.818939,56.805520L839.259174,52.251503L839.644440,50.841055L838.357890,50.091720L837.358559,49.201304L836.704324,48.078684L835.816413,43.669961L835.981600,42.999759L836.942102,41.679873L837.235590,40.936116L837.024146,39.915981L836.207632,39.157464L834.975479,38.678231L832.201905,38.240151L829.574842,36.937616L828.157361,36.493618L826.082148,36.614174L825.256908,36.493618L823.168813,35.664405L822.472725,35.549724L821.366331,35.232143L817.915042,33.038345L803.402802,28.694158L800.552988,28.482366L799.417546,28.235272L798.346473,27.776375L797.114692,27.070358L790.829461,22.495330L788.366220,21.641987L782.764194,21.736151L780.264663,21.209415L778.195029,19.175898L777.902555,18.451900L777.869103,17.969219L777.743684,17.586596L777.224368,17.156872L776.488424,16.883138L775.837570,16.909629L774.509737,17.156872L774.229339,17.392339L773.663866,18.440128L773.368997,18.681464L760.174800,20.117642L757.646063,19.876325L754.642463,19.196500L751.908749,18.119322L750.151309,16.706534L747.493160,17.465921L744.561406,17.692554L743.705711,18.128152L734.916733,26.673213L732.589892,28.058774L727.638349,29.414824L724.914001,29.667786L713.308763,28.950071L710.569728,29.585426L703.697951,33.176567L695.704834,38.928139L681.868299,45.080845L673.435734,52.186860L672.673185,53.062474L671.645591,53.979191L669.289385,55.042774L668.101119,55.771391L665.382443,59.308409L664.535969,60.844686L653.673142,72.617995L652.373072,74.808261L647.547654,86.590876L646.844280,87.688504L646.613505,88.392848L646.759451,89.173479L647.054793,89.962898L647.231946,90.684807L646.559788,93.393312L646.025397,99.431789L646.070701,102.708888L646.456316,105.701210L646.917808,107.038896L648.141379,109.758168L648.434505,110.937358L648.676339,114.114010L649.215203,117.108656L654.018447,128.833812L655.091133,130.341134L657.937022,133.170971L659.342618,135.179674L661.136546,139.918342L662.381015,141.806734L663.268056,151.072566L663.097470,154.145504L660.693154,162.112316L657.289714,170.466430L656.266193,171.569005L654.131681,173.381236L652.779416,175.466215L650.363667,180.278540L640.916344,192.675747L633.149470,199.131911L631.938992,199.806610L629.207917,200.317041L627.982480,200.903748L621.388606,205.486175L616.590824,207.968263L613.761321,208.816195L610.627101,209.758034L604.912804,210.427017L599.437106,210.321387L593.948480,209.488097L591.309576,208.361420L582.083053,202.408685L580.854585,201.810225L578.267980,201.285112L574.102189,199.064441L572.184117,197.374799L568.614972,193.458897L553.073954,182.155443L547.317785,175.674422L545.560323,174.058630L543.474905,172.844602L533.583397,169.111681L528.005297,167.865441L526.794135,167.264317L525.620574,166.226282L523.806105,163.651746L522.972551,162.930412L518.487992,162.097655L513.239702,160.335385L508.360045,157.969089L499.222813,155.268534L498.658026,155.025162L497.996450,154.638113L496.159662,152.949170L493.859870,151.752835L493.416272,151.442023L492.846051,151.186922L490.686267,151.195718L480.158414,148.867552L466.573168,144.219982L453.355334,141.299451L430.761877,141.061936L411.400628,137.572485L393.722750,129.458444L389.038658,125.877751L384.890082,121.593045L377.837601,112.142922L376.251452,109.511767L368.056114,90.438303L367.365995,87.846983L366.764951,82.566932L366.786891,80.896755L366.820323,77.978883L367.250595,75.389566L367.288958,73.868756L366.874493,72.741311L364.154869,69.170791L362.703311,66.527853L362.110361,65.077069L361.432966,62.451366L360.581329,61.617197L358.299801,60.298334L355.887096,57.216810L355.015778,56.805520L353.667392,56.576370L350.865477,55.556921L338.367026,53.309286L327.124399,52.815660L325.882822,52.416050L323.151311,50.938026L322.182712,50.106413L321.182938,49.571580L311.241829,47.884718L309.998205,47.426247L307.106967,44.431261L301.615757,39.836603L298.193945,37.678571L295.898854,35.467388L294.844389,35.011597L294.473136,34.785168L293.329444,33.761795L292.725498,33.532411L281.432037,31.588427L276.727168,29.550129L271.495383,28.008767L268.851142,27.608698L258.525322,28.058774L255.731018,27.379244L243.430372,20.926914L242.774619,20.382498L242.068139,20.044070L236.273477,19.002259L232.067363,19.175898L230.678281,19.428997L229.670704,20.061727L227.777012,21.641987L225.330877,22.783692L210.310555,27.267457L204.578391,27.685183L181.290458,25.219884L178.560679,24.466699L173.667100,22.092204L169.666566,19.505514L167.315867,18.808017L164.684237,16.167879L150.147713,7.123068L143.523743,4.940643L140.537064,3.276387L141.600176,4.637260L145.606106,5.927335L146.901367,7.273265L144.631101,6.422131L137.249401,5.249911L135.229078,4.325035L134.266558,3.541501L133.428028,1.685613L132.512705,1.108182L130.398749,0.309761L129.127722,0.000400L129.126143,0.000000L129.300700,3.247136L127.811081,10.134925L127.700485,11.247406L127.814713,15.296607L126.904024,20.198909L127.611383,27.692831L126.996264,35.314582L127.181183,39.293353L128.524948,42.087944L132.742609,46.115865L134.249942,48.711796L134.571734,51.751524L133.569499,54.005414L132.377485,55.190450L131.660852,55.902775L127.507182,58.755077L111.834431,66.425820L93.303711,75.484159L91.699884,77.281257L89.430067,83.011174L87.497885,85.020331L85.330644,86.399463L83.342677,88.072990L82.163507,88.445703L81.033680,87.998447L79.916966,87.368553L78.765007,87.212009L77.438283,88.691691L77.111099,94.468242L76.392515,96.864337L73.896361,99.290109L72.946648,101.782816L72.248998,102.867046L71.382032,103.783593L70.410688,104.592078L67.109093,105.925862L60.249863,105.836447L57.186167,108.384704L53.288055,115.730785L49.519217,120.129828L48.609368,121.798487L48.098393,126.498855L48.249041,127.750257L53.173411,140.077302L55.261521,147.674173L57.317113,151.796525L57.438755,153.137124L57.178645,155.903971L57.525454,158.458563L59.210134,163.508213L59.255390,165.921354L58.372290,168.829825L54.825062,176.795843L49.432756,183.250283L43.265445,193.858630L35.920823,203.906245L34.380863,204.833989L29.921406,205.135789L28.128451,205.623889L14.601646,213.009389L0.504640,221.070878L2.004040,223.434125L5.767041,227.875913L9.072930,231.777050L17.235442,243.785298L24.844277,257.790364L30.155260,275.116822L35.466917,292.451142L37.105314,303.496520L37.630367,317.214690L36.448674,329.318027L33.954741,354.718031L34.851349,358.925333L44.450963,383.733681L44.415328,386.580949L44.245855,387.214932L40.381848,401.653461L39.379795,403.098001L37.664284,404.080377L36.169840,405.238660L36.401973,406.746884L37.339533,408.367413L37.987078,409.877564L37.526318,411.267973L34.929812,414.329571L34.081975,415.864151L33.358520,420.131164L32.398711,422.987173L32.136889,424.162540L32.131357,425.364124L37.799186,444.688582L39.166659,452.262701L39.792613,453.681723L40.485275,454.336949L43.292074,455.958177L44.290502,456.834321L44.556360,457.875217L43.167158,465.592272L43.041985,468.116018L43.795983,470.130546L43.969715,471.665794L41.579255,480.971116L40.443907,482.431540L18.771879,493.422382L18.723880,494.867879L18.517800,496.103671L17.993902,497.155969L15.920183,499.260571L14.842282,502.140367L13.999628,503.305022L12.534176,506.727842L14.062031,510.753601L23.010598,523.583614L32.762128,537.559380L40.608701,548.793585L50.374799,562.783249L52.855248,567.418800L53.780012,572.013043L54.221426,581.549317L54.693641,591.789018L55.012256,601.838539L55.826907,603.773853L65.199072,609.545930L66.407122,611.507328L67.628005,618.237246L68.454121,620.759942L69.605512,622.097999L77.924623,629.098723L79.098912,629.583390L81.565791,629.319537L88.771832,626.456418L95.606224,623.748563L96.954585,623.583881L98.305156,623.860845L110.263153,628.047047L125.231781,633.273539L145.136849,640.225572L147.734320,641.132561L149.800041,642.313249L151.449496,644.534263L155.964465,653.889479L160.661974,663.640750L160.761103,663.846613L168.066066,679.014839L172.629888,688.469089L177.611904,698.800113L183.142723,700.229165L188.680264,701.652596L194.224643,703.076016L199.756505,704.499426L205.288869,705.928437L210.834364,707.349956L216.367378,708.773336L221.900815,710.198576L227.447578,711.625676L232.981780,713.050897L238.522775,714.474237L244.057738,715.899438L249.599534,717.324630L255.141792,718.753553L260.684224,720.173115L266.227200,721.600148L272.607963,723.244125L280.032011,727.633614L283.619032,730.992535L291.601832,738.447076L299.589919,745.903263L307.566941,753.351758L315.558990,760.803793L318.463469,763.519016L319.385868,764.020170L320.352265,763.900492L324.246879,761.592930L334.799776,755.343350L345.342051,749.093631L355.873659,742.843766L366.413790,736.588138L366.420154,736.584398L366.459466,736.562957L367.541420,735.972853L371.103649,734.080232L374.658988,732.187596L378.200984,730.294946L381.762003,728.406020L385.316130,726.517079L388.869773,724.626253L392.422880,722.731669L395.975592,720.838940L399.527862,718.946195L403.086139,717.053433L406.637517,715.160654L410.188398,713.265988L413.732476,711.375046L417.282506,709.482216L420.832083,707.589369L424.381307,705.700245L427.115926,704.239435L428.388276,704.058002L434.159670,707.321900L441.995239,711.732288L449.819355,716.146323L457.657775,720.562136L465.491086,724.977861L473.325844,729.397240L481.161839,733.812795L489.005474,738.222658L496.837637,742.636182L504.684103,747.051501L512.525341,751.463005L520.361559,755.878178L528.212083,760.295153L536.057375,764.708321L543.904108,769.125165L551.752068,773.538208L559.601255,777.947453L567.451991,782.364121L575.310420,786.776995L583.157258,791.189819L591.018473,795.606333L598.874565,800.022801L606.731780,804.431746L614.590559,808.848129L622.457044,813.260734L630.311941,817.673302L631.693627,818.448758L638.174660,822.085837L646.038846,826.502080L653.904392,830.918295L661.777662,835.330744L669.639354,839.743169L677.515478,844.159313L685.386276,848.567959L693.258682,852.984068L701.132360,857.396424L709.013789,861.805029L716.884008,866.224844L724.768468,870.640914L732.647625,875.049501L740.521950,879.465566L748.410537,883.877893L756.287472,888.286484L764.179038,892.702561L772.065446,897.114907L779.953302,901.527265L787.842854,905.947115L795.740114,910.359503L803.625756,914.768171L811.526090,919.184339L819.421307,923.596792L827.318021,928.009271L835.216179,932.419910L843.116040,936.836189L851.017364,941.250632L858.920288,945.666982L866.824568,950.077762L874.730591,954.491646L882.644478,958.902523L890.547191,963.320921L898.464113,967.730013L906.376271,972.144755L914.290088,976.563277L922.205229,980.976230L930.121814,985.387352L938.040162,989.805992Z "/></g></svg>