<?xml version="1.0" encoding="utf-8"?><!DOCTYPE svg  PUBLIC '-//W3C//DTD SVG 1.1//EN'  'http://www.w3.org/Graphics/SVG/1.1/DTD/svg11.dtd'><svg enable_background="new 0 0 1000 1048" height="1048px" pretty_print="False" style="stroke-linejoin: round; stroke:#000; fill: none;" version="1.1" viewBox="0 0 1000 1048" width="1000px" xmlns="http://www.w3.org/2000/svg" xmlns:xlink="http://www.w3.org/1999/xlink"><defs><style type="text/css"><![CDATA[path { fill-rule: evenodd; }]]></style></defs><metadata><views><view h="1048.86353839" padding="0" w="1000"><proj flip="auto" id="robinson" lon0="-9.91133681004"/><bbox h="243.5" w="232.38" x="-246.93" y="-602.67"/></view></views></metadata><g class="" fill="black" id="country"><path d="M0.477161,1046.863538L4.463407,1046.158591L18.276064,1043.272234L27.648931,1042.497572L51.990880,1042.497572L61.375207,1041.089771L68.870980,1041.089771L79.454542,1041.793672L88.162962,1043.272234L97.481480,1044.680033L108.084495,1044.680033L116.810868,1045.383931L128.023463,1045.383931L136.172733,1044.680033L141.858850,1041.089771L147.016940,1033.912935L149.003223,1028.140138L151.005722,1023.073077L150.480282,1018.005978L149.936560,1015.119519L153.123555,1011.529117L156.997255,1005.756118L160.822631,1002.169377L162.134148,999.282832L165.943040,996.396269L170.405855,991.328908L172.981842,987.740188L176.197677,982.741627L176.933137,978.378074L178.312038,972.606482L178.539979,962.539946L180.064520,950.290172L182.102909,942.336938L183.496707,935.858692L184.975805,925.792671L189.116893,908.472261L190.479690,903.401423L193.155598,895.517337L196.423729,888.264512L199.029734,883.195004L202.259288,878.898572L206.665222,876.010625L213.558294,873.126357L218.600197,870.236449L224.885068,867.350219L230.515682,865.166414L235.557222,862.278231L237.501633,859.462670L240.711321,854.392296L245.265965,845.022569L247.885503,839.249125L251.784095,831.991927L256.234974,826.991438L258.967106,825.047516L258.967157,825.047480L261.285070,823.399846L266.975568,819.735468L273.888194,815.437244L278.939036,811.845344L283.353215,808.182510L287.141667,805.364014L291.572765,800.994476L293.531743,797.402170L296.164996,790.920093L299.489674,780.771882L302.225368,769.992925L304.979688,758.431914L306.996751,751.245091L309.080798,742.573624L311.716636,736.018573L313.735304,728.829337L315.043089,725.938695L315.131540,722.346823L316.496708,717.270436L316.765329,716.871395L316.765368,716.871337L318.438777,714.379761L322.790871,712.969857L327.775200,711.489084L335.589950,710.362653L337.885291,709.094485L339.163389,704.864779L340.159651,701.198300L343.228841,695.279006L346.632299,690.557044L348.603733,687.666453L351.290584,682.661124L353.909041,679.067557L358.392157,674.485687L362.308045,670.890369L363.695797,667.227979L363.803087,662.857067L361.147886,659.332815L359.380601,652.847637L367.382728,650.876778L374.423366,648.691523L380.858960,646.577152L388.577561,643.689056L394.297619,643.689056L398.772570,642.984288L405.122007,644.393828L411.456721,645.098604L415.864504,647.281939L423.415409,651.579721L429.735044,654.469840L433.560512,654.469840L437.688260,653.060201L441.198538,651.016621L443.308562,650.876778L446.469970,652.355386L451.376741,655.245519L456.466348,655.245519L461.572505,654.469840L465.474315,650.876778L471.980873,645.098604L477.160705,640.799159L481.797042,638.051020L485.513888,637.346284L489.668345,637.346284L494.427854,637.204591L502.059778,637.909327L507.147817,637.909327L514.122367,636.924935L519.953776,635.726150L522.526037,633.541150L522.582718,630.653358L521.403087,626.354434L520.101985,622.197358L519.816555,618.392758L520.740565,614.379541L521.705038,611.207116L521.177086,606.133705L519.494446,600.147392L519.221888,596.826407L519.312012,596.677402L519.312070,596.677306L519.342642,596.677320L523.280868,596.679184L527.600870,596.679184L527.688270,592.352058L527.775916,588.030768L527.863844,583.713460L527.952206,579.392688L528.040964,575.070325L528.130081,570.748243L528.219518,566.428315L528.309351,562.106822L528.399426,557.791224L528.489936,553.472218L528.580844,549.151674L528.672070,544.833327L528.763694,540.513461L528.855637,536.195808L528.947858,531.882239L529.040556,527.563455L529.111439,524.272497L529.375346,522.333021L530.089807,520.974318L531.263300,519.946941L539.214717,515.543618L542.023579,513.262094L544.844578,511.659885L545.635475,510.842985L547.821907,506.995008L548.760707,506.220987L550.940353,505.223711L551.964631,504.598564L556.115089,500.587420L560.356160,497.651857L567.328767,494.498865L569.402621,493.021969L575.112532,487.524069L581.693646,483.003182L585.512606,479.384613L588.485513,477.813447L589.439601,477.045551L593.257919,473.133798L595.369146,472.181949L598.231188,472.312083L600.928149,472.791725L602.297748,472.843779L603.652488,472.683898L604.934322,472.202399L611.889454,472.612379L617.568904,466.578648L624.473075,463.562150L629.189587,463.059425L636.027084,463.562150L646.644898,468.086989L651.869191,463.059425L660.444845,462.053995L669.473092,459.540542L678.046746,458.535210L687.031259,458.535210L694.732269,458.535210L702.028826,457.027266L709.744605,456.022005L711.785125,462.556706L716.890288,464.567622L722.910729,462.556706L729.451704,454.011569L735.140794,444.966044L739.537118,436.425263L745.612041,429.895573L752.083548,425.376371L759.000183,419.350947L764.178822,415.334561L770.630066,411.820570L779.647136,407.804950L788.271632,400.778489L795.209177,391.745902L801.223027,388.233605L808.496850,386.226662L817.884610,385.724935L828.146390,383.216352L839.720948,377.196067L839.341218,372.681103L838.961825,368.166311L841.975433,365.156525L845.439694,359.638701L842.200106,354.259626L842.132683,352.865051L841.875122,351.592873L841.303380,350.265059L840.595640,349.608570L838.409899,348.518129L837.338296,347.461067L835.699042,344.757202L834.837374,343.818819L833.778248,343.540641L832.868191,344.026524L831.068245,345.732673L829.977063,346.218552L828.962751,346.151790L828.247564,345.506423L828.047369,344.260193L828.468933,342.854469L829.783535,340.647577L829.927509,339.008156L829.603765,333.589050L829.863702,332.275970L830.646611,331.307842L834.023341,328.829991L838.528762,328.537934L839.579029,309.974036L843.744541,307.787456L846.330111,308.384844L848.592665,308.184478L866.397252,304.955836L879.602569,300.940922L890.233723,299.435243L887.745668,292.408056L883.655335,281.186428L887.166225,279.199983L898.442932,278.238277L909.358061,275.182167L917.701723,275.572088L921.552283,275.750336L925.907719,275.958291L930.658379,276.181098L935.710158,276.422470L940.953361,276.671268L946.287641,276.923777L951.603254,277.172571L956.799815,277.417649L961.773834,277.651586L966.421771,277.874382L970.637002,278.074896L974.322264,278.249417L977.370901,278.390518L979.676221,278.498201L981.131556,278.568751L981.645939,278.594743L986.222175,278.813819L988.605380,278.238277L989.812928,275.683493L989.514083,274.186917L988.532484,273.303050L987.266862,272.916814L986.106399,272.931669L983.847907,273.837830L982.866294,273.819261L982.604340,272.649417L982.841339,272.198179L983.844889,271.397819L984.222697,271.015273L984.611387,270.248308L984.701474,269.657751L984.685011,269.050467L984.814254,268.193374L985.804627,261.622718L986.626298,259.029307L987.235969,257.756658L988.221687,256.461649L989.210698,255.941397L991.725117,255.575357L993.978189,254.640720L995.994968,253.094684L999.522839,249.141809L998.588327,247.515493L981.699698,234.426302L977.858915,232.996043L975.878925,231.295968L967.743007,217.522478L970.319452,215.660915L970.775206,215.169429L971.134510,214.569948L971.387838,213.894111L971.532020,213.153081L971.730125,211.577821L971.756761,209.896268L971.373021,208.402658L970.358692,207.409948L968.602004,206.122877L967.043273,204.669914L965.802038,202.894516L964.994743,200.628880L963.917913,198.567917L960.871840,195.584076L960.331547,193.212997L960.378828,186.112458L961.016152,184.280833L961.853076,182.463902L963.007302,178.437477L963.919412,177.086372L964.694144,175.119197L964.428734,172.737308L961.742736,166.214833L961.092325,165.361241L960.042390,164.578577L957.953868,163.827624L957.031228,163.184983L956.672770,162.043469L956.953411,160.931750L957.540576,160.201139L958.245536,159.586348L958.860910,158.812677L959.325079,157.745532L959.373093,156.949320L958.748780,154.838925L958.223060,151.280911L958.444507,147.884593L961.318404,136.216380L961.475759,134.765219L961.333175,133.836958L961.178063,132.826926L956.957764,119.455626L955.455098,116.233539L953.166388,113.492672L959.629421,105.703207L958.953896,105.312638L956.766023,104.649762L949.565703,97.199231L950.064266,95.966323L953.247334,91.082013L954.732977,87.798082L955.516051,87.199855L955.736564,86.669320L954.650023,85.551711L948.358797,81.546787L946.334426,79.622752L943.162370,77.641817L942.343267,76.651187L942.055119,75.641613L941.984153,74.646997L941.754047,73.784154L940.997669,73.196318L938.299544,72.943839L936.285393,71.632337L934.429920,69.864518L932.204521,68.250935L930.379205,67.554024L929.316508,66.105963L928.763202,64.171077L928.698235,61.298565L927.134889,60.719183L925.547232,59.818842L924.122424,59.352295L922.781158,59.141301L917.080822,56.927069L915.855291,57.224311L914.707587,58.145703L913.430856,59.595972L912.458935,60.196223L911.005419,60.564675L908.258803,60.799407L902.054626,59.916903L898.968343,58.838175L896.415944,57.358067L893.589878,54.397171L893.133516,53.612205L890.256762,50.462804L889.450258,49.826263L889.159200,50.397367L890.037485,51.943948L894.574011,57.218366L897.176371,59.352295L892.809919,58.918415L890.709399,58.231893L889.165051,57.105415L888.311531,56.002588L887.795051,55.143425L887.523708,54.183095L887.336921,51.819041L887.407463,50.596652L887.681881,49.487155L888.222748,48.826754L887.403120,47.589667L885.589241,48.250744L884.359936,46.909364L884.191117,44.887526L885.348002,43.724440L885.347594,43.723618L885.330873,43.687902L885.234257,43.345622L884.467169,40.526613L885.094326,38.293528L884.824966,37.426975L885.159439,36.167231L884.899630,35.568582L884.189009,35.187337L883.625881,35.416681L883.327148,36.024272L883.438889,36.792652L881.891771,39.058781L879.486126,44.845624L877.567957,46.785793L876.810340,46.904811L876.168678,46.666775L875.613084,46.366247L875.115724,46.330540L874.474624,46.738186L871.728162,49.623989L870.448221,50.418188L862.975218,53.079939L860.401493,53.612205L857.353272,53.362430L856.735728,53.151306L855.565864,52.580357L854.909387,52.363269L854.255454,52.348400L853.495425,52.431667L852.780577,52.407876L851.190299,51.491895L846.703373,50.778086L845.440137,49.897653L842.950142,47.583184L841.798543,46.785793L840.242095,46.571559L838.636119,47.196398L837.364780,48.559012L836.836929,50.552036L836.263909,51.863651L834.895888,52.538724L832.826307,52.717150L831.687615,52.818256L830.029755,52.675517L828.789290,52.597775L827.916442,52.176367L827.058841,50.954227L826.670938,50.446296L826.407824,50.009324L826.702717,49.736208L827.434163,49.490396L827.625300,49.171834L827.041018,48.326964L824.509252,49.525826L819.372595,50.587728L814.308798,52.862862L805.962503,54.316893L802.471710,56.516860L801.231489,56.855729L799.529287,56.730884L792.468986,54.632054L792.398421,54.617188L784.456503,52.818256L775.967825,50.212952L773.584018,48.826754L770.374181,45.756238L767.729968,44.839672L766.719602,43.684926L765.068318,41.333392L763.072687,39.472651L761.906296,38.641918L760.824499,38.293528L759.360782,38.034462L758.448941,37.307856L753.509779,30.087034L751.424668,28.060635L748.926842,26.248526L747.690334,25.068138L747.083045,23.595486L746.149048,19.698462L746.115937,19.236234L746.260164,18.123844L746.185007,17.697355L745.879798,17.601915L744.858680,17.762969L744.506655,17.697355L744.046131,17.166464L743.693081,16.486419L743.477705,15.603506L743.248808,12.518878L742.422050,8.717455L742.255811,6.891028L742.567424,5.825523L742.572621,5.807614L742.572800,5.807014L741.268498,4.600976L740.365282,3.289299L739.715945,1.795539L739.199758,0.147873L739.171993,0.150706L738.805886,0.000000L738.653419,0.129955L738.501732,0.693086L738.261765,1.256199L737.705037,1.288686L736.997492,0.888012L736.728905,0.617281L736.246095,0.586604L734.993725,1.186692L733.863067,2.168886L731.674556,4.640556L730.654597,5.541974L727.087119,7.643110L726.084883,6.968626L724.670030,6.613466L723.250090,6.649281L722.196162,7.141726L721.448808,6.765678L720.352943,7.034285L719.255712,7.619235L718.499549,8.189244L716.855873,9.809635L716.127582,9.946898L710.638688,9.135237L708.559856,9.475423L707.385974,10.692874L706.827776,11.802823L706.379241,13.506384L705.953780,16.951716L705.758830,17.676478L704.946868,18.794867L704.752782,19.474805L704.633046,20.092089L703.307516,24.048627L701.961487,26.957901L701.679473,27.998050L701.530863,29.786075L701.180634,31.180559L689.732215,58.722271L684.155269,76.508994L670.602183,103.878405L669.171143,106.114059L668.096135,108.970008L667.457399,110.205563L660.628450,120.167381L656.468971,128.721422L650.949867,137.634424L644.450662,144.548868L638.038416,149.609819L635.846901,150.375552L633.901423,152.068829L632.861781,152.457514L632.834718,152.460458L630.681791,152.807908L628.226475,153.702988L626.004053,154.915953L623.653439,156.979490L619.139790,159.966750L618.436451,160.431698L617.145639,160.820123L615.942629,160.405214L616.367896,159.866695L615.197169,160.263966L613.460750,162.344284L611.692170,163.191616L609.590490,165.833290L608.780115,166.442153L607.624997,167.086281L606.355116,167.598032L604.578288,167.945070L603.510872,168.609712L602.930450,168.842034L602.264140,168.768515L601.706028,168.489138L601.128735,168.392089L600.415232,168.842034L599.234130,168.527368L598.192061,169.450759L597.161725,170.691648L596.031212,171.309109L594.894773,171.567846L592.461031,172.820301L588.395578,174.072640L586.872390,174.751677L585.520561,176.427082L584.005593,177.061919L581.191221,177.767260L578.198534,179.095555L572.393697,181.663632L564.092539,183.564416L561.557250,184.624869L559.361996,186.390161L555.707640,190.771640L553.469128,192.550883L551.225237,193.689960L550.121380,193.948296L548.648377,194.030492L548.128446,193.883712L547.558027,193.237862L547.040589,193.091075L546.548632,193.367035L541.386686,199.313660L540.810611,200.232164L540.807777,201.784404L540.714088,202.696898L540.228517,203.541864L532.402628,211.974501L525.303917,221.250071L523.198046,223.201912L517.219085,227.356962L510.105185,235.582424L500.937315,243.207396L499.720491,245.405962L499.725431,246.614936L500.051445,247.809211L500.549666,248.848297L501.066478,249.582947L501.509961,250.730243L501.353672,252.152579L500.863932,253.589463L499.129314,256.811174L498.715614,257.911319L498.530783,259.467826L498.772505,259.994442L499.896446,260.567857L500.140723,260.918921L499.613138,268.334092L499.081546,270.553877L498.161326,272.542475L495.890377,275.308749L495.563985,276.197647L495.424467,277.378908L494.639212,280.261705L494.144782,281.325880L493.372204,282.790527L486.014701,290.244388L485.703406,290.761719L485.136850,291.998024L484.659702,292.696534L484.137498,293.240136L483.227946,293.929857L482.761738,294.414993L480.207637,297.889689L474.471441,303.990946L473.959156,305.121697L472.938133,310.880265L472.619268,311.560970L471.769037,312.738308L471.381696,313.562138L470.501871,314.473598L470.123765,315.750204L469.722546,316.278951L468.564775,317.298457L467.837309,318.326711L466.294987,322.644053L464.807764,325.121014L462.832703,327.592065L463.579696,328.567616L464.367679,329.239397L464.988072,330.144834L465.200081,331.824254L464.941643,335.933624L463.064816,346.085408L462.256152,347.770519L463.162186,350.349285L463.353940,351.634284L463.414528,365.728550L463.288858,366.587197L463.123193,367.101219L463.142816,367.553910L463.554008,368.199362L463.773146,368.882785L463.698662,369.776496L463.257015,371.382855L462.045835,373.713572L460.351847,376.266317L458.991112,378.965171L458.802765,381.722525L459.660568,382.747793L461.059522,383.060341L462.355889,383.133367L466.635744,386.133318L467.702866,388.067139L468.236391,388.628017L468.917338,388.882165L469.595762,388.955197L470.095489,389.299907L470.537799,391.677870L471.997863,395.288812L472.643081,396.515883L473.649102,397.631958L474.575411,398.295185L475.226161,399.233068L475.438468,401.152714L475.236689,402.575695L473.986987,407.344604L472.716136,416.495265L472.041750,419.161081L467.957921,428.524615L461.404650,439.854007L453.235530,448.691515L450.587177,452.228915L450.183205,453.378867L449.701359,454.271349L446.709048,457.039651L446.027897,458.116596L445.438754,459.574036L445.024923,461.183727L444.847611,462.705683L444.455096,463.510589L441.830741,467.394876L441.247517,468.905380L440.946355,469.362056L438.704840,471.001452L438.377001,471.616244L438.045483,472.933688L437.303858,474.207262L435.704599,476.236284L434.166979,478.660710L433.180489,479.758779L430.830891,480.640185L429.647323,481.641673L427.936863,483.697440L421.358317,493.573612L413.627351,500.900256L411.215248,502.535081L406.126807,505.210115L401.852363,508.116800L384.112868,517.371385L383.142929,518.042547L381.375381,519.921265L380.055783,522.122478L379.838205,522.403866L377.691970,524.144988L377.369091,524.619850L376.834744,525.604764L376.337297,526.158787L373.743445,527.812100L373.235230,528.841051L370.257716,532.508511L366.534160,535.129545L365.963359,536.243672L365.538261,537.689140L364.586818,538.829710L363.448887,539.844223L362.479219,540.917399L359.933683,545.166333L358.406066,547.145764L356.345090,548.790944L337.871146,557.117291L323.969702,563.382630L322.886474,563.643700L322.585698,563.837303L321.158860,565.342148L320.466309,565.846705L303.554992,568.856528L292.466634,572.594070L283.598270,572.406308L272.398831,574.398377L266.537527,576.683902L265.328841,577.411531L264.331745,578.420836L263.579659,579.928953L261.977438,585.169474L259.248698,589.582843L258.209782,590.803608L255.937431,591.572466L253.890609,593.315630L252.005086,594.284072L251.322558,594.979597L250.894879,596.267948L250.845193,596.581969L250.842060,596.602512L250.841927,596.603332L250.635282,597.876216L249.330854,600.640869L249.005757,601.935181L248.826539,603.458445L246.555562,610.819805L243.016375,619.018391L242.159230,619.508625L242.157020,619.913732L242.567940,620.585977L242.535753,620.988152L237.210749,628.864641L235.969389,631.612595L233.874867,640.734740L231.958462,644.921697L230.595010,650.770732L229.213301,654.623236L225.264874,662.504712L221.503288,666.847894L213.820419,671.957640L202.350552,680.418334L195.824111,683.918983L194.625928,684.494597L187.798236,685.261105L186.345480,685.939510L185.539135,687.014388L184.928693,688.259606L184.035317,689.469586L178.748918,694.755946L175.340973,696.653176L172.381268,697.349220L171.786980,697.798566L168.184043,702.550485L167.810177,703.358137L167.097966,705.463911L166.593440,706.268629L166.400695,706.991114L166.923591,709.173253L167.072878,710.233486L166.335097,714.298202L166.534508,715.455353L165.984049,716.453910L164.894231,719.684532L164.675464,721.120688L164.300028,722.072250L162.539043,725.288170L157.727122,732.189864L155.031305,738.850635L154.624492,741.129601L154.005189,742.415918L153.863355,742.874057L153.345976,746.098630L151.367686,750.812075L150.838448,751.516882L150.008397,752.259863L147.046845,756.488642L144.974285,763.765460L144.500302,764.910695L142.372025,773.285361L142.771188,775.100009L142.523716,781.486327L142.625706,782.422962L143.171031,783.996728L143.305802,785.115382L143.240463,786.269259L143.030050,787.473038L142.710387,788.618085L142.293550,789.634203L142.742342,790.083406L142.268439,791.246041L142.308656,792.329395L142.530230,793.421547L142.615580,794.607637L142.364240,795.570593L141.453999,797.643270L140.833550,800.995885L139.231446,805.281934L138.496338,809.972938L137.699229,811.431870L136.483600,812.421116L134.899367,813.325228L133.370155,814.610935L131.842936,816.554148L131.037755,818.209673L130.831803,818.632357L130.821038,820.308403L128.693532,822.051938L127.364379,822.844447L124.665597,823.328755L123.369087,823.757293L122.101729,824.408904L120.943054,825.236621L118.898411,827.159135L117.257391,829.087494L112.805808,835.981818L109.277094,839.882291L103.472875,844.874393L102.931957,845.716665L102.481433,847.037292L101.438184,848.052699L99.008029,849.901544L97.197491,852.636620L94.566481,855.808895L93.535254,857.390607L92.195531,858.981106L90.516799,860.125551L88.467038,860.333898L87.632739,861.179021L84.905536,862.954351L82.871699,863.770115L78.237128,867.895828L77.220289,869.028473L76.287835,870.307825L75.865050,871.434586L71.854125,877.115224L69.477395,881.733540L69.114951,882.781006L67.701995,884.520902L67.259443,885.723856L68.164301,886.474964L71.139295,883.640687L71.698785,882.781006L71.847984,882.132575L72.471325,880.694869L72.629177,879.823438L72.803510,879.365715L73.650342,877.798883L74.651812,875.386992L75.120377,874.524337L75.804752,873.626466L76.813685,872.690446L77.408989,872.549602L77.940388,872.710986L78.760025,872.684577L79.359423,872.394087L80.978988,871.214516L81.436156,870.671676L81.600709,869.647611L81.506701,868.652882L81.603205,867.807798L82.341932,867.226800L82.105787,867.819535L81.890287,868.212735L82.641702,869.841274L82.834341,871.205713L82.608461,874.386429L82.253838,876.176289L81.458516,877.534809L80.439158,878.858110L79.435879,880.518823L79.167789,881.267019L78.816659,882.745797L78.464437,883.520391L78.016595,883.998642L76.970248,884.823108L76.758563,885.263213L73.648862,888.977658L71.308324,893.228934L70.329261,894.643071L69.624910,895.998520L68.624134,900.839332L65.729305,905.946993L64.913549,906.742028L64.229313,907.161547L63.502237,908.138466L58.548133,919.632323L58.277281,920.107554L55.250480,923.035186L54.645663,923.882961L53.521400,926.171056L53.045218,927.508701L55.624037,926.769477L56.831993,927.033486L57.300978,928.720202L57.174322,930.439173L56.889748,932.005597L56.430787,933.466410L55.787955,934.892014L53.636529,937.449867L51.583312,939.353574L50.080493,939.784766L48.696300,939.943163L48.388126,940.201291L48.244308,940.658881L47.657109,941.984713L47.547968,942.471633L47.528415,943.304673L47.650039,943.779857L47.865261,944.354770L47.833348,945.082208L46.537700,946.959460L45.984416,948.153268L45.171676,950.731524L44.846659,952.297825L44.497871,958.428020L43.574002,963.032915L42.768211,964.100537L39.581636,967.450030L38.949516,968.268334L38.782411,969.520716L36.377398,977.859053L35.361974,979.668649L34.072814,981.281733L32.820261,982.363961L25.898631,985.317345L25.239476,984.449223L24.776289,984.035691L24.237667,983.792264L23.531714,983.839190L23.096582,984.191132L22.746555,984.584134L21.224384,985.205897L20.504815,986.249988L19.428351,988.716494L19.057690,989.121223L18.012654,989.910149L17.645362,990.282615L16.892352,992.015900L16.779510,992.449953L16.412090,993.115696L14.103905,995.649615L7.221116,1010.011163L6.629012,1011.694519L6.051123,1014.674107L4.781433,1017.624352L4.438379,1019.776908L4.075837,1020.832655L4.293764,1021.231493L5.083869,1021.970514L5.276752,1022.357620L5.292769,1023.202214L5.191078,1024.084931L4.956739,1024.897265L3.849391,1026.879707L3.661934,1028.521962L3.803958,1031.255136L3.462743,1034.422323L0.582715,1045.044049L0.477238,1046.862225L0.477161,1046.863538Z "/></g></svg>