<?xml version="1.0" encoding="utf-8"?><!DOCTYPE svg  PUBLIC '-//W3C//DTD SVG 1.1//EN'  'http://www.w3.org/Graphics/SVG/1.1/DTD/svg11.dtd'><svg enable_background="new 0 0 1000 985" height="985px" pretty_print="False" style="stroke-linejoin: round; stroke:#000; fill: none;" version="1.1" viewBox="0 0 1000 985" width="1000px" xmlns="http://www.w3.org/2000/svg" xmlns:xlink="http://www.w3.org/1999/xlink"><defs><style type="text/css"><![CDATA[path { fill-rule: evenodd; }]]></style></defs><metadata><views><view h="985.863548357" padding="0" w="1000"><proj flip="auto" id="robinson" lon0="28.8227993261"/><bbox h="49.55" w="50.31" x="346.24" y="-810.44"/></view></views></metadata><g class="" fill="#000" id="country"><path d="M537.957603,983.863548L538.184081,981.570068L539.441946,977.501854L541.198219,973.701255L541.195904,973.684512L541.216120,973.634282L553.921410,964.521879L553.940044,964.508511L572.880087,965.764432L593.194464,970.252046L610.115484,970.838091L615.349798,968.644581L615.981881,964.809934L612.758498,953.790269L612.131212,953.187313L612.096111,952.450358L613.207540,950.057238L613.379609,949.686701L614.742608,948.463953L621.294228,945.616365L617.060715,941.260982L615.294853,936.788028L614.173393,932.264496L612.070203,927.707136L608.285555,924.707815L603.895068,922.613236L601.235846,920.283984L602.531404,916.546956L607.536254,908.686776L610.061170,905.988292L614.225051,903.373508L621.524089,901.261494L622.787003,898.663290L621.211104,895.129473L620.095825,892.628371L623.460880,886.559391L640.809467,885.067212L647.176243,881.562981L647.660948,878.461004L646.833397,875.090594L645.755505,872.156026L645.587980,870.294609L647.358850,868.818857L654.781577,867.343074L659.459423,864.861008L662.390516,862.009880L663.572985,857.816843L663.015992,851.292000L661.163200,845.856988L655.928916,834.616673L655.365334,829.197242L657.593918,824.465416L661.778255,821.881247L705.989108,811.493379L712.134355,808.824871L711.765320,802.446948L705.083663,788.262683L703.319901,780.271433L704.588499,775.133807L712.343091,766.352125L717.019774,757.636741L719.027866,749.945006L716.566772,742.874084L709.050308,737.395057L699.309484,730.292901L699.266521,730.276103L694.053428,725.118848L693.256149,720.683726L694.425307,716.013190L695.128054,710.166310L694.150132,705.041610L687.351820,689.665976L683.535687,677.750421L683.844095,668.606999L688.135492,661.446371L705.976329,650.149828L714.839119,647.148647L719.578766,645.543485L740.887499,634.346313L746.194100,634.362200L746.503607,634.363126L751.337266,638.936269L754.065198,645.921750L758.273097,673.447728L758.315170,677.279823L757.106769,680.405906L755.208135,683.431062L753.849329,686.548564L754.421540,689.943261L759.325486,693.211815L764.693968,690.170130L772.861685,681.103379L775.904016,680.103385L777.760043,680.607585L779.010427,680.103385L780.187644,675.935243L779.923488,673.002323L777.724725,666.421879L777.987572,662.471747L781.614328,655.848667L785.440515,656.907713L793.207839,668.153170L798.744387,674.086420L802.027260,674.002382L811.199004,658.941727L815.383466,654.318917L820.213193,651.824718L820.429017,651.713253L826.630284,652.579013L828.382398,654.587886L829.151580,656.705991L828.965937,658.941727L827.894040,661.211038L826.814698,663.799679L826.670500,666.321026L827.488593,668.775083L829.339074,671.086218L833.515841,672.498088L841.924613,673.851113L845.743276,675.027643L849.878498,677.901685L854.529508,685.027637L858.671126,689.136610L863.065065,691.279263L867.582242,691.682581L871.675724,690.304572L874.732302,687.203984L875.897795,681.901688L873.429546,673.935151L874.802396,671.884599L882.191464,671.808963L887.199138,670.052517L889.355425,665.262067L888.087349,656.117632L892.173543,661.118586L907.586147,672.405645L914.108107,679.800864L915.753131,682.523524L916.622543,685.481397L917.402718,691.766606L918.259790,694.001630L924.209781,698.975648L929.244540,698.303497L937.796117,690.909554L942.133891,688.640853L946.228836,687.834192L977.458949,689.371884L988.672038,687.657734L994.620780,681.901688L999.492315,671.842579L995.723159,669.934859L991.383870,669.270931L987.531237,669.876030L985.232073,671.842579L980.110995,667.295932L966.884723,659.093016L968.464317,656.285735L964.406880,650.620539L962.394372,648.620003L960.119968,647.216246L958.627706,647.165812L955.708916,648.956230L954.078238,649.426946L953.057737,648.737683L951.297656,645.619138L950.690362,644.803763L938.541445,640.617528L934.262498,636.708565L932.374159,629.453536L936.820823,629.050000L942.424889,628.083189L944.403788,621.079892L943.350335,617.994285L939.105670,611.326772L937.646736,607.963462L937.168063,603.666711L937.624955,600.580702L938.458598,597.671215L938.970213,593.870291L938.089294,573.619435L936.802013,567.622706L935.272042,565.141524L931.699993,560.448197L930.334761,558.076249L929.536730,555.081825L928.546498,548.100233L927.575198,545.929992L924.568052,544.558856L922.182592,545.543047L919.993340,546.939409L917.651043,546.771174L916.143989,544.979451L913.188555,539.082618L911.626001,536.828141L903.378786,531.477851L895.850981,530.670246L888.269686,531.309601L879.864562,530.215967L874.652669,527.229474L867.294371,518.681950L862.495321,515.022215L858.322482,513.760221L849.696793,513.154461L845.277050,511.858802L842.793756,510.184529L838.098329,506.120782L835.566895,505.027007L829.050792,505.565482L827.525181,505.262590L824.702036,501.653093L824.365971,497.387244L824.457031,496.600440L824.955859,492.288307L825.106694,480.154727L827.411945,476.561652L830.093925,473.515490L831.412076,469.080818L830.431465,464.115911L827.889967,459.689491L824.389796,456.230774L820.645436,454.202648L815.810448,454.606592L813.332135,458.292545L811.681380,462.483362L809.151520,464.469348L806.597279,462.483362L796.741186,449.708743L796.020421,448.656788L795.656756,447.655324L795.695216,446.645441L796.149511,445.719711L803.290795,445.096946L808.730289,443.699928L811.919226,439.828639L812.232765,431.816601L807.031311,414.756723L806.918297,407.686784L812.908567,404.791441L815.049109,399.152197L813.680726,391.610651L810.161773,384.060571L805.816483,378.437923L800.983763,375.121544L795.840638,373.589607L790.627340,373.295003L785.452790,373.800038L783.548254,378.858781L783.108868,383.841727L781.986000,388.386940L777.997296,392.090418L773.974257,393.218290L769.757832,392.864778L765.595761,391.248721L761.650039,388.555281L758.512903,384.824063L757.474718,383.589213L755.981691,378.959788L755.175517,374.254569L753.066412,369.094781L749.034641,364.818776L744.795742,363.303650L740.607367,362.579755L736.745011,360.795268L734.121828,357.318872L732.378356,353.438424L730.089667,349.953581L721.446387,345.424952L715.737638,338.598302L711.779854,336.881113L707.741650,338.514126L705.805889,342.024258L703.408640,343.960298L698.227039,340.862633L695.568520,337.403004L690.063860,327.579634L689.145916,326.323300L687.019489,323.412894L687.001095,323.379223L686.971777,323.362388L686.939969,323.328718L681.639130,310.256064L683.762500,301.686860L689.307269,294.144625L694.550140,284.228637L695.403481,271.947376L693.447292,260.432238L693.350086,250.255612L699.799668,241.872001L702.271612,237.713906L700.741156,234.195542L697.043661,231.586244L687.690866,228.850703L684.883768,226.729617L684.322608,223.152409L685.798898,217.445766L688.408894,213.776046L692.546448,209.407773L695.828742,204.787051L696.005349,200.343128L693.172100,198.760835L682.582577,196.134917L678.583979,193.736258L675.811407,188.981071L671.865164,177.821377L669.075261,172.771871L665.427083,168.597678L661.863449,166.056162L658.073929,164.861152L653.569166,164.692841L645.879506,168.084323L636.419531,180.682800L627.230956,182.214514L618.930618,179.470900L614.880336,177.072644L608.839771,173.495628L599.351309,165.803694L592.904957,158.071793L590.889882,155.654702L586.137012,152.280204L584.082757,150.151180L583.335617,148.182058L581.240827,139.666208L575.843899,131.234804L574.896247,128.996578L574.353190,126.783618L573.374606,124.427639L571.264139,121.827677L563.409726,117.704824L553.853258,116.324948L535.867751,116.114602L510.855484,107.768238L502.527179,107.448525L497.098289,109.669698L494.130496,121.470721L494.125364,121.491114L493.979131,122.765365L493.340847,128.323432L494.049739,133.868533L493.534222,136.906194L490.861825,137.091316L485.180276,133.986336L481.696614,131.285290L472.459409,118.428421L476.164908,114.372943L475.759057,109.434118L472.627349,105.033869L468.215757,102.644482L462.387429,103.334372L459.579373,107.221361L457.564825,112.151720L454.146700,115.988394L448.852429,116.871849L445.568954,114.154185L444.423853,109.619217L445.468931,105.084350L448.942855,101.088030L452.350396,99.009976L454.784028,96.031752L455.519659,89.318300L454.129481,83.135072L451.050401,80.535657L446.546693,80.047744L434.812115,81.225465L430.785149,83.622993L427.137697,86.609432L422.007011,89.318300L416.138173,90.454017L411.561100,89.284649L408.298841,85.599926L406.444327,79.307467L403.790576,73.940546L399.625999,74.487325L392.453722,80.215990L388.583932,81.141342L382.783862,80.914210L378.665150,78.483070L381.875939,65.722248L379.607835,59.876314L374.753025,55.687558L369.157593,53.551166L355.326738,52.123178L345.859270,51.145657L334.874229,47.714086L328.127886,40.211994L325.878014,38.681343L322.427976,35.014452L316.161897,28.354071L311.787733,24.864157L293.612531,14.470609L284.482520,11.081942L252.336395,11.317380L246.829396,9.181635L245.061100,0.622179L239.347023,0.000000L233.204155,3.800380L230.231792,4.447801L219.585908,4.447801L219.568734,4.447801L214.629995,11.266929L200.576014,22.417063L196.519212,24.258686L192.835563,23.115027L184.674572,17.321189L179.561310,16.244857L170.806635,20.297964L158.950512,35.058014L157.755374,36.545187L148.571228,40.817530L140.059778,40.430659L111.205864,31.617007L105.441504,28.757729L102.601931,28.101785L99.866717,28.942740L99.958472,31.297438L101.067240,34.055847L101.263785,36.208787L101.632901,37.503931L102.741150,39.312104L103.292188,40.952094L102.017431,41.751070L98.820402,41.212812L96.022161,41.423069L94.133722,40.514761L92.228492,40.245635L90.080297,42.423895L80.517874,43.862068L70.969499,39.312104L61.658018,33.206453L52.652278,30.035988L49.960010,30.809676L49.336619,32.836422L48.951549,35.233232L46.985901,37.201169L45.204944,37.150709L40.750635,35.721009L39.337636,35.821929L37.061515,39.009338L37.641943,41.927686L39.709149,45.846938L41.942219,52.104492L42.985682,58.252948L42.451605,62.467004L39.829475,64.721274L34.765092,65.057735L29.690403,63.207209L26.028345,59.708089L22.722269,55.695969L18.765105,52.373640L13.466415,50.725117L12.355026,53.483879L11.669663,57.680989L3.771144,62.214663L1.482115,66.117592L0.507685,71.231913L0.690516,73.906898L12.363119,68.943908L18.220804,68.742026L24.756723,73.141411L27.643028,73.646127L29.923048,70.071083L33.424803,75.008870L38.638867,75.934195L49.026800,74.134021L53.678157,76.001491L60.449787,82.260184L63.021445,80.788025L75.225187,90.184810L77.195465,92.632932L79.005129,98.143426L81.359680,97.024489L83.793976,93.415328L85.868818,91.539265L89.418034,93.911689L91.250580,97.663881L93.656361,101.121683L102.978363,103.990612L103.371019,106.800688L100.774505,109.249020L95.736413,109.518254L96.019281,111.545935L103.596848,115.113357L108.627723,116.510052L111.518763,114.255151L113.857393,115.121770L116.440263,116.779296L118.033480,118.428421L118.047939,118.696215L118.134307,120.296322L115.825042,123.274901L115.410856,125.092359L118.448815,133.069155L123.839873,139.329619L130.696014,144.016660L137.921613,147.323728L138.259113,149.738841L133.277690,151.783711L133.735360,153.146966L134.281182,154.375585L134.930884,155.486396L135.688448,156.412076L141.987439,153.937995L145.963049,158.086723L148.949418,162.521641L152.192946,160.855382L155.592922,163.750302L156.282843,166.771487L154.890878,169.632805L152.143025,171.980790L158.090223,175.683742L159.826610,176.432754L159.919155,177.095017L160.108844,178.452571L156.297826,183.729402L159.520524,186.691872L165.770215,189.486043L171.141479,194.224405L171.131966,195.688849L172.964408,205.746540L173.032163,207.766527L175.975221,209.483523L179.218636,210.283107L182.207207,211.461445L184.561471,214.230551L176.350942,218.893462L179.733818,221.073432L183.966818,225.795332L187.582193,230.694035L189.172320,233.454837L190.368634,234.927831L195.377807,237.814912L196.842837,238.909145L197.073980,239.447237L198.231260,242.141352L198.316758,245.634511L200.066358,247.999770L200.350434,250.036761L194.521956,251.080511L197.876229,258.235287L205.025389,266.854772L224.555015,285.827986L232.666825,292.090715L241.157236,294.717026L241.553948,295.660099L242.306615,297.449354L244.046665,301.585848L245.147699,303.614510L245.647383,304.792985L246.006027,307.747593L246.742070,309.178600L247.841096,309.751002L250.701868,310.070875L251.402929,310.289735L254.502298,319.044123L256.827915,323.791689L259.853308,325.862433L262.200524,326.148633L263.584669,326.838881L264.717002,327.646975L266.308793,328.286716L273.015335,328.471904L273.391901,328.286716L277.102955,329.498857L281.263056,331.426496L284.924961,334.010707L287.220521,337.184146L285.288500,338.623555L284.230378,341.131995L283.705678,344.482186L283.461299,348.303749L288.557865,351.738091L287.892248,361.771686L291.836226,363.867614L292.500194,364.315267L295.719109,366.485411L303.764246,379.288057L307.792832,384.094240L309.929583,384.969617L317.141718,386.316348L320.104490,387.814582L322.264374,389.237059L324.487038,390.339687L331.178716,391.703238L334.243264,394.211488L340.639567,402.089663L340.887734,406.163365L344.230764,410.270693L351.807339,417.449998L356.185046,426.346084L356.670323,426.548074L357.727662,429.106602L358.755072,431.067566L358.477919,432.447809L355.670532,433.230504L359.273738,436.883060L371.274351,442.126171L371.584583,444.339528L370.332912,446.729598L371.624865,447.697403L374.194498,448.379072L376.828383,449.902302L385.850301,457.467838L393.799073,461.591346L397.406046,464.099080L398.145938,468.794707L404.644061,469.854997L411.216124,473.162066L417.183497,475.417242L422.017095,473.246214L425.114895,478.623259L425.451027,478.941280L434.739118,487.727773L439.070438,493.255937L445.841337,505.111144L447.229462,509.974686L447.462243,510.790298L445.917769,515.695275L450.626650,518.252882L451.349675,521.954621L451.574631,525.849782L454.932128,529.038201L455.273064,531.461026L455.391439,535.343888L455.470425,537.938559L460.998474,547.073998L473.701089,562.567781L474.548979,568.690864L492.706740,593.887109L496.588604,602.691304L496.986169,603.967118L498.063801,607.425324L498.635457,611.873303L497.401824,615.379449L495.355438,619.440410L494.688696,624.106574L497.706275,629.453537L495.464636,630.882718L494.851102,633.337509L496.021132,645.526673L496.924063,648.115661L501.133109,653.873437L502.285734,654.680344L503.350258,654.377754L504.300714,654.705560L505.031373,657.412017L506.472728,667.497636L506.541511,670.203790L505.361840,672.674570L501.885298,674.271304L504.395058,678.691613L503.437212,680.531955L502.980019,680.714562L501.185957,681.431107L499.668763,682.943681L499.544957,692.875722L498.494708,694.253698L495.476064,695.177939L495.172073,697.547323L497.147125,704.142660L497.947614,708.133263L497.699390,709.259005L495.098858,715.996389L492.322253,718.667694L490.005704,719.793316L487.142118,720.582925L484.764780,721.758925L483.996848,724.010087L485.660744,729.553768L485.284363,731.317600L482.430640,731.989527L479.489346,733.198984L480.401989,735.970599L486.148013,742.773307L488.061731,744.671258L489.914082,746.905080L491.147394,749.743467L489.195765,757.300871L488.766810,765.311026L485.881412,776.304359L485.421636,778.054992L484.217428,782.638668L482.296375,783.813866L481.818410,785.442327L482.141610,787.188273L483.871219,788.145169L484.194443,789.891058L482.525074,801.288798L482.508726,804.494652L484.038986,809.093404L492.684317,825.371532L493.676075,829.012672L494.595705,830.959018L496.478248,833.207322L497.917384,835.774334L497.689959,838.240598L496.977062,840.723559L496.980114,843.290317L498.043742,845.689234L500.945362,849.815863L501.629760,851.040388L501.093862,852.650691L497.924352,854.814481L497.002571,856.575658L499.033187,865.967886L504.487912,875.811640L510.168768,883.558235L512.812198,886.592923L519.617604,919.127707L519.822415,924.339174L522.031998,928.544910L518.509046,930.153406L509.869369,930.086386L506.570522,931.158696L502.604494,933.889654L498.785099,937.491659L495.976331,941.143718L511.581645,947.911196L518.168021,951.964633L523.532641,958.864919L524.814791,960.874566L525.561313,961.561180L526.018380,962.314772L527.661269,973.232442L529.965898,976.547541L537.957603,983.863548Z "/></g></svg>