<?xml version="1.0" encoding="utf-8"?><!DOCTYPE svg  PUBLIC '-//W3C//DTD SVG 1.1//EN'  'http://www.w3.org/Graphics/SVG/1.1/DTD/svg11.dtd'><svg enable_background="new 0 0 1000 1060" height="1060px" pretty_print="False" style="stroke-linejoin: round; stroke:#000; fill: none;" version="1.1" viewBox="0 0 1000 1060" width="1000px" xmlns="http://www.w3.org/2000/svg" xmlns:xlink="http://www.w3.org/1999/xlink"><defs><style type="text/css"><![CDATA[path { fill-rule: evenodd; }]]></style></defs><metadata><views><view h="1060.9822246" padding="0" w="1000"><proj flip="auto" id="robinson" lon0="19.2910310917"/><bbox h="27.51" w="25.95" x="247.65" y="-729.82"/></view></views></metadata><g class="" fill="#000" id="country"><path d="M544.214983,1058.982225L544.235203,1058.976241L543.187375,1052.405594L542.114743,1036.005054L537.384486,1029.329092L532.173272,1025.116382L530.716192,1022.621262L530.809636,1020.029009L530.168433,1015.816768L530.537050,1012.690126L532.238042,1009.434006L533.078775,1004.963118L528.467071,990.515333L530.953593,988.247965L535.153643,987.729717L538.064152,985.397643L539.868358,974.839310L535.667739,970.499753L535.497902,970.402601L529.877689,960.963192L526.933606,948.983225L526.423145,936.584024L527.991083,925.821073L535.832665,907.114329L534.062348,901.111488L532.640787,899.700160L524.105481,891.226236L492.595126,871.426439L483.716579,863.355620L483.654427,863.252877L477.611778,853.263982L478.525111,846.633813L492.602104,831.725615L536.132919,762.419102L536.324915,759.187604L535.232409,750.624585L535.842678,746.084832L539.800101,735.842780L542.159487,732.272815L566.214673,704.766733L572.202528,694.528270L581.894641,688.505097L589.574520,679.818035L595.804865,669.355610L601.015026,657.715562L601.006199,657.618701L603.043403,648.223487L608.823116,643.445424L615.923014,639.636011L621.751985,633.066646L623.961459,625.593779L625.354458,609.213012L627.564327,600.595730L635.086114,588.009633L647.323933,573.746716L652.172822,569.516834L660.805266,561.985688L672.383315,556.904047L684.719509,562.356735L693.948515,575.892519L699.811129,591.817616L700.840075,598.043847L701.875015,604.307228L700.904856,603.661744L698.813238,607.115123L695.636786,614.490149L695.132316,618.895988L695.038115,628.337549L695.749129,632.566290L698.050932,638.360851L708.782013,657.715562L726.908585,669.484770L736.068977,673.504956L745.597347,674.538277L750.377137,673.136213L753.633427,672.181025L772.289488,661.816097L776.678966,657.715562L776.777164,657.618701L776.774171,657.586414L788.893589,649.595598L814.248744,650.273587L827.113218,646.867532L843.689573,624.706102L854.158938,617.508052L868.142110,624.383311L873.639674,616.168547L873.467266,608.051100L871.197090,599.272524L870.412291,589.203650L871.754147,584.104940L876.699736,574.053258L882.092919,557.968758L880.865952,555.742553L876.244319,549.306101L844.246812,524.098539L843.751251,523.708101L836.958525,514.079667L836.706427,501.726418L840.451243,496.598313L850.573886,488.832320L855.121876,485.342821L860.719553,482.859615L879.639095,487.164935L899.993359,497.565868L917.980896,502.161831L929.699911,489.196696L929.927976,483.149858L928.584489,477.457960L928.442307,471.459896L932.120755,464.575268L936.267946,462.060106L955.489827,455.514397L996.764630,449.162377L999.528294,424.997614L997.240811,409.523397L987.728428,399.546369L954.549148,385.250537L925.791429,367.925941L910.440218,362.205084L882.465790,359.723404L876.376388,357.983431L869.720350,356.081506L835.773799,328.553336L834.678373,327.664899L815.360815,311.996226L782.428954,292.534010L776.867163,287.942538L772.395421,281.885127L768.853242,275.489534L764.536011,270.495588L757.888808,268.530251L753.199760,270.898323L742.164571,281.852907L736.495878,285.171579L719.096392,286.428173L701.858530,285.429341L689.407490,281.369608L678.062392,273.717480L667.518419,262.634311L650.125481,238.262319L645.928301,237.907948L642.059142,241.628869L635.695977,243.803452L624.434205,242.691997L600.965240,236.619325L589.879821,231.658174L580.292019,224.425966L562.609963,205.903113L561.448538,205.094833L541.898666,191.488080L536.015792,184.449851L525.529214,166.895001L518.525197,158.681474L485.462025,130.563136L461.274499,101.995108L452.181266,96.487750L378.795517,68.355623L364.376374,58.178627L354.448813,41.753867L352.432203,23.847801L361.493674,9.403853L336.629619,6.070638L323.916921,7.439349L311.433556,21.802780L301.632878,25.329234L290.634843,25.667388L281.705094,22.978264L274.256508,15.490596L267.878440,6.296072L260.060483,0.000000L248.435440,1.030559L241.267338,5.974023L230.109396,18.034792L221.007070,22.237549L216.383985,25.313132L213.810523,30.433741L214.552003,35.683182L219.803419,38.952010L227.918154,40.884325L231.836520,42.961565L239.566319,52.397738L239.667697,56.455629L237.893312,61.576317L238.130340,64.780783L249.247904,62.188225L253.088409,64.571446L272.828255,85.312102L291.543711,122.881543L309.436518,148.986454L306.007729,151.756442L292.518759,152.416732L286.804363,155.283366L285.805587,156.643014L283.337939,160.002072L280.582766,165.509966L276.947298,170.728025L271.944899,174.995922L270.141192,171.932736L269.801671,171.356128L258.205567,159.341773L252.878078,152.336209L251.179644,147.118329L251.203122,142.657401L250.495822,138.373653L246.462898,133.880581L231.821339,125.297129L219.004366,122.140765L188.516482,124.685180L179.384061,128.695068L181.366698,131.175091L184.817796,136.940376L186.695386,139.436536L173.437013,143.253263L111.367452,185.979892L104.426564,196.142714L117.343048,201.570499L97.537046,229.177624L90.552218,244.947127L88.118060,263.842483L87.956106,265.098994L89.662055,281.385718L103.097628,328.897905L81.868765,326.271548L51.178912,326.626024L22.779099,332.394385L8.280414,345.639555L0.471706,370.085399L1.679355,380.883001L7.898858,393.373419L22.052948,415.309972L26.034287,427.254370L22.766353,433.331619L16.683562,437.796986L12.209263,444.777352L13.633031,455.627251L19.743871,470.556979L28.050366,485.504069L48.293733,511.563787L59.681081,521.272715L69.458299,531.530617L76.298462,548.628595L77.665935,566.825505L74.839218,574.626765L73.000607,579.700185L62.851733,589.268192L57.680270,592.073303L47.709455,597.481374L51.891541,603.726292L53.500504,609.325976L51.901294,613.134535L46.603107,613.812341L40.474498,610.455622L34.438913,610.036038L28.789468,612.230800L23.809574,616.604289L27.091883,626.723560L25.932331,646.867532L27.240221,657.715562L31.769275,667.385930L37.998814,675.636190L45.254572,682.724420L49.466328,684.952694L58.871819,689.603134L62.048171,696.611421L62.126730,705.880808L69.898604,712.798729L80.293551,715.850880L71.090337,710.458799L73.836149,692.351316L63.536118,685.968560L63.135208,681.315205L118.767719,687.723149L142.012622,683.705432L157.541379,664.279807L156.237208,673.534574L157.037171,679.331861L170.866897,702.930639L172.392727,710.764004L169.226860,720.480127L160.901964,713.587194L145.206048,706.389465L139.057227,704.609175L95.374189,691.995297L88.974029,694.131426L87.022472,701.353855L91.610386,707.559384L105.370981,715.850880L103.374283,717.173504L102.907189,717.631338L102.924258,718.318093L101.886522,720.480127L107.375322,722.438709L114.966900,726.254222L121.695965,730.833003L124.747920,734.877742L127.129243,736.047944L138.282356,734.648790L142.680707,737.167280L146.143235,737.167280L147.827801,724.448197L158.207304,724.855186L167.863234,732.486495L167.500482,741.441206L167.838246,745.333670L171.188691,747.445324L176.064834,752.050391L179.255466,754.263944L180.208715,762.813246L188.722470,771.363204L206.939810,784.138488L212.656658,793.046448L216.375151,796.457119L220.287120,794.802675L221.408254,793.606402L223.877329,790.908470L227.586868,788.388765L235.581028,784.138488L237.303582,786.938053L240.673766,789.737691L243.463713,792.664663L246.904183,787.548877L254.501737,784.571143L263.626407,784.571143L271.437474,788.388765L276.716936,797.067998L282.155425,817.712659L289.032691,827.259968L311.092863,841.264294L319.269293,848.241716L327.514553,861.790510L331.036994,863.879022L334.550172,863.929962L337.311723,865.534582L339.091162,872.335405L344.072634,879.009332L363.823598,878.601751L372.872647,891.135662L379.574791,893.785315L383.745004,897.454189L379.802858,906.499589L384.656568,915.545860L416.228403,939.835010L421.228375,970.760223L421.122505,973.412186L418.735850,975.630717L422.966952,980.450477L428.723818,984.811442L431.270053,985.857087L433.343966,992.131217L432.971024,995.600038L433.442237,999.043492L438.138040,1005.293079L442.636754,1007.844062L455.753616,1012.129888L465.180127,1017.283371L504.149550,1028.611943L513.344119,1032.541582L534.130011,1051.707641L544.214983,1058.982225Z "/></g></svg>