<?xml version="1.0" encoding="utf-8"?><!DOCTYPE svg  PUBLIC '-//W3C//DTD SVG 1.1//EN'  'http://www.w3.org/Graphics/SVG/1.1/DTD/svg11.dtd'><svg enable_background="new 0 0 1000 2011" height="2011px" pretty_print="False" style="stroke-linejoin: round; stroke:#000; fill: none;" version="1.1" viewBox="0 0 1000 2011" width="1000px" xmlns="http://www.w3.org/2000/svg" xmlns:xlink="http://www.w3.org/1999/xlink"><defs><style type="text/css"><![CDATA[path { fill-rule: evenodd; }]]></style></defs><metadata><views><view h="2011.12378005" padding="0" w="1000"><proj flip="auto" id="robinson" lon0="46.7286321682"/><bbox h="228.98" w="113.92" x="626.37" y="200.28"/></view></views></metadata><g class="" fill="#000" id="country"><path d="M898.133924,754.589206L902.360767,745.895987L907.396582,739.106641L914.701903,723.959293L918.855979,712.583779L924.210300,701.962618L924.993033,698.406261L919.808338,701.567468L918.149672,702.932534L916.923882,704.848415L916.331803,707.123524L915.956517,709.434554L915.343409,711.553995L905.651389,726.533747L902.500764,730.185877L901.302403,732.149644L900.713922,734.664223L900.308495,738.783338L899.896991,740.687231L899.206627,742.698889L895.626265,750.039039L894.708502,753.846811L895.561541,757.858139L898.133924,754.589206Z M735.831254,192.481611L734.735035,191.727288L736.213090,189.200906L736.460190,186.734392L735.511666,184.890493L733.311479,184.172091L730.649257,184.315772L729.177467,185.010227L728.496550,186.698472L728.243549,189.715761L728.605076,190.901125L729.346107,192.050569L729.920947,193.164094L729.697014,194.301565L728.681080,194.900234L727.376419,194.756554L726.180473,194.109991L725.364754,193.200014L723.582678,194.014204L721.607983,192.984493L719.739152,192.361877L718.332041,194.301565L720.243852,195.115755L720.226487,196.959656L719.388904,199.474069L718.744443,202.323737L719.041589,208.609774L719.737365,211.710889L720.897740,213.482955L721.336980,213.722423L721.634445,214.069653L721.966963,214.345041L722.532353,214.368988L722.631394,212.381400L723.512761,212.381400L725.172404,213.818211L726.737111,214.632403L731.374796,215.470543L733.268090,214.536616L734.052893,214.368988L734.035545,214.716217L734.230470,215.434623L734.624727,216.153029L735.236885,216.500258L736.563685,216.404470L737.995702,216.093161L739.308099,215.446596L740.222362,214.368988L740.158319,212.501134L738.725086,210.944590L736.997101,209.615541L736.110596,208.454120L736.931107,206.514428L738.503703,203.796465L739.316850,201.365865L737.804356,200.336153L737.765987,198.779612L736.973210,195.498903L735.831254,192.481611Z M207.824222,2009.123780L209.791852,2008.500464L211.724783,2007.577479L213.698992,2007.109993L249.778911,2005.455817L258.676739,2003.442043L265.617492,1997.041174L268.466986,1996.789456L271.222908,1995.638748L273.795950,1993.780839L287.594784,1981.075349L306.205333,1970.647558L322.868589,1961.874063L348.929420,1950.152464L368.192753,1945.238634L382.850777,1944.795195L395.644341,1946.676819L399.735600,1947.971193L401.704238,1948.043102L410.593198,1945.514285L411.880795,1944.579468L413.257339,1942.997475L414.564958,1942.985491L415.773785,1943.500836L416.785805,1943.572744L418.184317,1942.434192L420.200763,1939.797564L421.729254,1938.814826L425.560357,1937.280805L427.008692,1936.274107L430.023301,1933.517694L437.919258,1927.837176L438.060697,1927.405750L438.445058,1927.249957L439.896213,1927.477654L440.907191,1930.785278L441.272182,1931.420442L442.586992,1930.641467L449.358937,1922.803911L453.233714,1919.280145L455.513846,1917.830129L459.364733,1916.308219L460.398777,1915.097889L461.189787,1912.221880L461.352595,1909.693416L461.257092,1907.404639L461.560320,1905.259679L462.856536,1903.174651L462.661098,1905.499338L462.889868,1907.680250L463.581181,1909.633500L464.730106,1911.299167L466.488576,1907.608352L466.246342,1898.129914L468.407052,1893.588537L475.357111,1888.316328L476.457049,1885.991796L476.775931,1881.414688L477.328208,1879.222017L480.954362,1873.902171L494.054230,1845.279843L499.397125,1821.488034L498.348563,1813.438073L499.042028,1812.551632L501.626917,1813.917231L503.117005,1814.456285L504.176391,1813.509947L513.237757,1792.116292L513.673726,1791.098154L516.289713,1786.211136L517.436455,1782.486034L517.499412,1782.102746L517.536501,1781.288260L517.028968,1780.821130L516.807157,1780.389934L517.705403,1779.635341L517.851772,1779.611386L519.214704,1779.096347L519.482822,1779.096347L520.183457,1778.485489L522.311258,1777.084112L523.275034,1776.161842L525.862756,1771.837987L534.391354,1752.063950L543.471521,1720.830209L543.266046,1717.010008L541.116187,1715.776535L539.048799,1715.560977L538.241406,1714.698746L539.832874,1711.489347L541.400439,1709.465524L542.096817,1709.788856L542.682646,1711.477372L543.984294,1713.501206L562.986878,1664.189649L567.768540,1642.804722L573.675452,1628.389010L579.253305,1612.034151L581.036044,1598.146095L584.175772,1589.238769L592.503932,1550.270788L597.443730,1540.418426L599.938913,1530.721825L619.176552,1490.117107L638.392155,1449.514128L658.618460,1393.399735L660.658912,1389.749002L662.914739,1384.434500L665.922295,1371.830546L666.498801,1367.353937L667.102047,1365.343056L672.574641,1353.588985L674.131405,1348.597698L674.933629,1343.570505L675.596490,1341.021000L678.174626,1336.664099L679.162947,1334.485649L679.565439,1332.091747L679.396348,1330.140717L678.491790,1329.602089L676.686200,1331.469333L676.301051,1329.350729L677.520832,1327.124400L679.389737,1324.814283L680.910379,1322.444318L697.427386,1270.208986L705.981170,1247.071377L710.030972,1236.130868L718.906445,1214.728384L731.165125,1190.799730L731.654841,1188.908396L731.109150,1186.681884L728.341763,1181.990804L727.934508,1180.290977L729.196476,1178.782677L730.784544,1180.099447L732.180529,1182.493570L732.859525,1184.313099L737.953669,1171.025666L738.287057,1165.543049L738.825074,1162.119389L744.851459,1138.943528L764.219738,1093.954974L779.174563,1047.875084L784.407969,1040.057244L796.140286,1015.058979L804.747743,987.737526L813.491692,970.568551L817.269687,960.523289L818.346271,958.715374L821.011884,955.362943L822.041506,953.483184L827.303264,924.280775L831.777604,916.126995L833.124566,915.205052L834.467812,914.630335L835.298253,913.792205L835.125061,912.115943L834.596853,911.038346L833.302033,909.158535L832.783308,908.092909L832.404297,906.081388L832.416725,903.543037L832.765091,900.968763L840.576418,878.698144L846.296689,861.204751L848.529906,851.039117L848.484764,841.520017L844.857886,805.347081L841.452112,798.438123L841.020014,796.222942L843.012514,785.733737L850.736066,768.622842L857.967123,750.098910L867.819655,731.024071L869.602148,728.748974L871.777925,727.144431L874.387874,726.533747L880.884743,725.887140L884.210268,723.959293L891.812933,722.713975L896.001261,721.001662L900.048629,718.594844L896.597468,718.978019L893.585326,718.427204L890.925361,716.834632L888.417380,714.068585L886.679552,710.871463L885.968884,707.770133L886.192075,701.016652L892.257563,695.915612L896.284537,691.149848L903.934406,678.109838L904.644608,676.229871L904.982137,671.152761L905.182256,670.027174L905.866224,667.907719L906.743886,662.231887L906.567325,660.004661L905.313246,659.058688L903.149432,656.855410L902.785662,651.754340L903.381721,646.030602L907.012203,632.260091L906.755196,628.033141L904.116476,623.291293L900.586516,620.668906L892.429097,617.340032L889.305876,613.747721L887.921703,609.604589L887.379302,604.719046L887.757775,599.809554L889.190470,595.570627L893.602459,587.907032L894.702024,585.428338L895.278578,582.949644L895.051631,581.261259L893.399973,577.309719L892.405039,572.723539L891.996849,565.299438L890.482407,560.461801L889.757627,555.528370L888.456219,553.600501L887.059621,552.019888L886.327243,550.187815L886.661992,550.187815L888.253105,546.164438L888.527682,544.116828L888.510701,542.045269L886.262874,533.627322L886.373851,529.819492L894.420449,518.324167L897.467265,515.414416L901.750574,513.833811L910.059475,513.833811L914.783137,513.259046L918.272612,511.319214L920.652790,511.582647L921.265882,511.822133L921.993197,513.091406L921.763538,514.097245L921.249739,514.959393L921.016979,515.845490L921.569789,523.293497L921.346067,525.879946L920.361391,530.430181L920.567610,532.322122L923.895298,537.662667L924.463118,538.117691L925.590026,538.165588L926.404519,538.357177L927.119534,538.800227L927.882214,539.650404L928.996970,541.889603L928.718797,543.817470L927.759016,545.769285L926.906460,548.176126L926.694134,550.547045L926.904468,553.013758L927.427038,555.336781L928.160450,557.300573L929.166010,558.929084L930.716521,560.868928L932.434595,562.473491L933.928769,563.156029L934.121710,564.233721L934.257941,571.777564L934.930244,576.148206L937.111404,579.321412L943.045909,585.428338L946.181783,584.961338L948.226579,587.308313L950.351103,594.564780L952.351398,592.900343L954.311407,592.828497L956.339950,593.151805L958.449090,592.553086L960.033903,590.685085L963.505996,582.422772L973.662963,569.059385L974.624877,567.107566L973.382428,566.257386L974.656358,562.042415L987.608983,538.009922L988.685442,534.058398L989.108192,531.340229L991.862798,523.988007L993.063649,518.863010L993.658148,517.893092L995.330657,516.084976L995.946814,514.935445L995.910358,514.013425L995.645190,512.732178L995.484620,511.283291L995.827789,509.810455L997.282339,506.290022L997.514714,505.248261L997.418066,503.775427L997.189865,502.733667L997.305504,501.715856L998.672167,499.428775L999.570696,497.093797L999.751259,496.207704L999.612681,486.772014L998.840038,481.982331L997.333539,478.390073L995.815635,477.025015L994.196274,475.947339L992.929208,474.414643L992.165729,469.433388L991.012074,467.062505L985.286982,458.584812L983.174439,454.561506L975.327674,431.907144L974.344899,422.519524L973.670292,419.933143L972.777117,418.029280L971.323401,416.748065L968.002710,414.796309L966.924641,413.000215L969.933648,411.168199L971.321877,406.426518L971.267978,401.074172L968.224541,393.063628L968.223050,376.755220L967.011508,369.738554L966.938534,367.164184L967.372888,364.877186L968.868490,360.327142L971.112486,349.023897L971.255904,344.809136L969.334174,340.402799L966.301749,337.098049L965.517824,335.373833L965.384527,332.320536L965.851800,327.135921L966.355399,324.489735L967.778444,320.382761L968.193912,315.150266L968.071424,310.911591L966.092686,299.979659L966.320108,270.644370L965.426546,265.795084L962.818227,258.862410L961.930790,257.210064L961.301683,254.839308L962.605664,249.834382L962.409946,248.182039L962.045835,247.331921L962.109234,246.529697L962.015001,245.931022L961.250157,245.715499L960.717716,245.667605L960.224332,245.476029L959.810695,245.164719L959.515221,244.601965L959.192548,243.560271L958.849898,240.507033L958.861705,239.285738L959.232175,236.627627L959.114169,235.478173L958.620601,234.687924L957.149386,233.334923L956.624267,232.544674L955.354104,228.545539L953.945858,219.924659L953.888377,215.973427L955.129663,211.040377L955.409326,208.466093L954.385223,206.346800L953.051977,206.155226L951.583051,206.969417L949.992502,207.496247L948.299301,206.346800L947.865598,204.167640L948.649938,197.869634L948.382063,195.307329L945.169127,189.572081L944.770151,187.716208L944.752751,185.369428L944.284504,182.388061L944.271730,180.149043L946.001707,168.295432L946.144326,160.405010L945.533653,158.968212L942.760144,155.005045L942.183603,152.873796L941.807039,149.880470L940.526125,148.611300L938.814867,147.976716L937.125452,146.899119L935.384946,144.300914L935.922111,143.199371L937.382760,142.744386L938.335002,141.954149L938.385917,138.996748L937.214607,137.835339L935.435723,137.715607L933.655002,137.847313L932.058831,137.212729L930.926551,135.680149L929.469035,131.776862L929.355983,130.435855L930.104347,126.712170L929.584547,125.742335L926.534437,122.389823L925.051310,121.144604L923.365198,120.186744L921.636028,119.683867L922.019665,119.133098L922.699275,117.672361L920.973402,116.882127L919.542576,117.157511L918.535696,118.438649L917.678459,122.485609L916.889009,123.826614L915.978166,125.071833L915.121609,126.712170L914.150264,125.957854L913.078104,125.766282L911.920880,126.029694L910.732832,126.712170L911.476105,124.808421L913.291568,121.575641L913.719010,119.683867L913.512395,118.091425L912.393649,114.942461L912.190086,113.062661L911.325547,110.512361L909.168218,107.542998L906.677166,104.956780L904.813554,103.519993L903.397239,103.711564L902.371470,104.741262L901.449863,104.908887L900.370946,102.430429L900.076727,100.670365L900.248713,99.042006L900.889785,97.485487L901.981239,95.952915L902.828800,92.696201L901.313214,84.314955L902.278527,80.315906L902.044462,84.398767L902.336218,86.230668L903.299129,87.859024L904.535920,88.134407L904.951376,86.230668L904.851721,82.327404L904.178814,79.214372L901.009122,70.186587L898.327213,73.634864L896.866777,73.419347L895.315612,71.096549L892.300515,68.175092L893.731750,66.762256L895.153632,66.905935L896.681980,67.696165L898.455877,68.175092L899.477264,67.444728L899.481167,65.780456L898.821045,63.936586L896.705195,61.541951L896.211098,60.416473L895.450435,59.602297L893.514287,59.219155L891.677608,59.410726L890.238971,60.081224L889.067867,61.326434L888.117780,63.242142L888.162372,60.009385L887.297721,58.033812L886.049793,56.393487L884.925512,54.118586L884.609988,52.071174L884.625611,50.359012L884.335934,48.658823L880.896024,42.097534L879.471596,41.079816L877.051085,42.552513L876.352115,44.516111L877.990603,48.658823L877.138846,51.197134L876.095171,51.963416L874.833504,52.214852L872.264663,52.107094L871.000594,51.723953L871.114200,50.849912L871.727572,49.844166L871.940707,49.089857L870.666348,46.862849L869.673326,45.833158L868.594321,46.455762L867.097679,49.089857L866.164267,50.203361L865.525987,49.688515L865.146084,48.347521L864.983455,47.078366L865.367316,46.264192L867.307689,44.492165L867.793154,43.522339L866.810339,42.265158L864.487352,41.367171L861.849459,40.924165L859.893149,40.972057L862.247453,36.553965L862.693829,34.817859L861.168446,33.931846L861.622478,32.255606L862.370321,30.818829L863.441913,29.657435L864.851278,28.927073L865.077844,30.890668L865.939776,32.973995L867.318683,34.542477L869.051033,35.033376L870.048912,34.111443L871.007923,32.423230L872.021465,31.154077L873.207326,31.417486L877.805414,37.523790L878.565138,37.451951L878.381019,35.260865L876.326891,29.813085L875.999940,25.418944L876.528629,21.611487L876.353179,18.031521L873.977593,14.295905L873.194064,12.547829L873.362112,8.309343L872.593133,6.226020L869.233678,1.652290L867.956205,0.598656L865.649676,0.000000L865.649676,0.000000L863.324526,1.484666L859.247117,6.226020L858.799948,7.303601L858.984327,8.357236L859.385760,9.255220L859.533124,9.722172L859.137774,10.105312L857.795455,10.751860L857.196026,11.470248L856.330681,12.260474L855.476738,13.266216L854.906150,14.750884L857.473846,15.373486L859.274988,17.863897L860.120075,21.048750L859.855587,23.898356L858.948874,22.796827L858.016797,23.898356L854.099302,17.289187L852.213260,15.756626L850.200668,18.235064L844.926378,20.102872L843.072115,22.796827L847.843791,22.533418L849.250497,22.796827L850.237512,23.515215L850.754658,24.401227L851.146760,25.263293L851.759739,25.885896L853.189287,26.340875L854.170762,26.245090L855.021584,26.484553L856.070695,27.921329L856.760290,29.872951L856.409449,30.663178L855.126778,30.914614L854.214741,31.800627L853.154819,32.471123L852.125567,33.393055L851.347514,35.033376L851.179311,36.661724L851.503337,37.859038L851.896320,38.924649L852.002337,40.062098L851.153482,42.791977L849.573776,45.186608L847.604758,45.976836L845.572969,43.989292L843.659123,46.108541L841.845640,49.712461L840.073039,51.723953L838.291646,49.089857L836.670157,51.245026L835.044129,52.346557L833.642644,53.591766L832.671404,56.225863L831.081983,55.375768L829.229502,55.914561L827.514569,57.351341L826.284111,59.219155L825.998741,60.404500L826.144861,62.487832L826.099752,63.242142L824.483968,66.403061L824.160713,67.265130L823.451867,75.119540L822.814263,77.322607L821.512175,78.903069L819.488657,80.411692L817.440419,81.094164L816.062469,80.232094L812.554543,71.814940L809.945269,69.168866L805.579228,68.175092L802.373781,67.983521L801.008105,67.528540L799.490801,66.714364L798.034102,66.870015L795.581344,70.881031L793.961912,72.293867L799.100896,75.203352L799.600757,72.329787L800.590634,74.329309L802.320531,80.315906L806.282246,84.578365L807.312482,87.044845L807.174277,91.367174L809.118263,90.217746L810.971992,89.427514L812.444460,89.607112L813.339094,91.367174L813.004469,91.786236L811.386783,95.390174L811.392231,96.395924L812.043234,98.191907L812.080486,99.413176L811.590543,100.454847L810.832214,101.173240L810.161641,102.035312L810.049859,103.519993L810.544823,105.052566L811.179758,105.172298L811.893483,104.956780L812.675573,105.519522L814.447627,108.692429L814.853171,110.332763L815.212659,116.930020L815.638170,118.582328L816.371416,120.605808L817.357420,122.389823L819.786247,125.838121L820.441802,127.717924L819.969556,131.657129L817.464826,141.163912L817.851784,144.887605L816.420209,145.617976L814.575464,147.509757L812.957586,149.700871L812.246975,151.365160L811.842484,153.209049L810.960879,155.579764L809.852859,157.854693L806.011664,163.218740L804.100369,167.313619L800.623202,178.903814L800.207549,181.370325L799.894680,186.207564L800.189926,188.506450L801.908685,191.930836L802.238412,193.738816L797.107747,200.240366L795.051139,204.431055L797.150053,207.352566L793.710467,211.902463L789.287371,215.973427L784.432816,219.026652L779.679061,220.499384L778.292726,220.319783L776.796802,219.816898L775.185067,219.529536L773.558068,219.960580L771.975900,220.750826L770.674539,220.966348L769.493581,220.667012L762.815332,217.649707L760.543663,215.877640L760.600867,213.482955L759.395787,211.986277L758.576724,210.321972L757.469184,208.968977L755.480289,208.454120L754.817473,212.477188L754.788958,214.512669L755.077476,216.500258L755.864130,218.176538L757.962888,221.505153L758.773990,225.600070L760.769020,230.748655L760.986682,232.041789L759.742248,232.377046L758.267846,231.455089L755.435762,228.545539L755.440164,229.287893L755.289732,230.808523L755.284197,231.538904L753.743685,231.299434L751.356195,231.419169L748.909770,231.874160L747.218268,232.544674L745.863176,234.029384L744.429634,236.232502L743.173394,238.866666L742.373663,241.596620L738.912183,235.394359L737.464981,234.556216L734.905169,235.801457L735.338705,238.423647L737.886459,243.608165L737.323005,245.607738L734.720774,250.349243L733.875115,252.731970L733.413965,260.490809L732.394236,262.777753L734.337365,266.585338L732.379207,270.177401L728.537636,272.871451L724.834099,273.913150L722.022506,273.122896L718.302378,271.039497L715.079860,268.249660L713.805823,265.292196L715.229541,263.508139L715.591527,262.382627L713.620205,261.556453L713.262195,260.766200L713.208270,259.772398L713.259809,258.766622L713.050425,256.300077L711.156584,249.630832L710.762324,246.038783L709.929384,243.021464L708.019756,241.788195L704.350530,243.608165L703.820571,241.021892L703.552907,236.974857L702.850602,233.215188L700.962614,231.538904L696.179992,231.514957L696.293126,232.604542L698.519484,235.478173L696.461904,236.340263L695.877669,237.525637L695.781006,238.818772L695.215861,240.040067L693.657328,240.782423L692.669179,239.992173L692.468651,238.351807L693.250870,236.567759L692.513168,236.843149L691.239856,237.130512L690.493717,237.573531L689.714682,235.334492L690.594996,233.682153L691.957168,232.460860L692.548958,231.538904L691.630374,229.982354L690.277038,229.982354L688.845432,230.916284L687.687464,232.041789L686.790043,238.627197L685.547059,242.267135L683.625369,242.099506L681.072145,241.141627L679.178053,244.170919L677.928601,248.553218L677.373538,251.642381L677.438689,255.318249L678.576709,256.659282L680.117840,257.497429L681.375917,259.772398L675.599535,262.598150L674.151438,270.812000L675.648583,280.438744L678.660195,287.491185L680.040752,288.772360L685.110439,291.095238L691.071937,295.609288L690.974905,297.465198L680.884220,303.152670L685.319006,308.145678L688.053377,310.372777L693.056668,312.312509L694.061382,314.922767L694.238306,318.311315L694.057140,321.723813L693.093572,324.860919L689.331248,330.153294L688.225593,333.386196L688.386168,335.086464L689.043338,336.906470L689.949159,338.582792L690.895122,339.899902L690.827548,341.157144L689.447855,342.450308L687.729354,343.611761L686.674195,344.521766L686.474896,345.886773L686.549619,347.610994L686.396902,349.275346L685.473475,350.460749L683.735679,350.424827L683.038066,348.592842L682.973355,346.293881L683.065889,344.964795L683.689858,341.157144L685.963023,333.553828L686.582477,329.806057L687.195711,327.938159L688.338281,326.561184L689.241624,325.148288L689.175794,323.232498L688.441441,322.059077L687.427475,321.412498L686.341693,320.933550L685.336259,320.322893L680.267203,316.072239L677.545090,315.210135L675.751019,317.221711L678.179001,318.886051L679.953460,322.394340L681.017373,326.441447L681.309921,329.806057L681.013310,331.829614L680.364117,334.368041L679.418460,336.762785L678.209745,338.391212L677.150917,338.786345L674.614611,338.391212L672.868735,338.894109L668.662082,339.157531L662.924305,334.332120L659.827792,335.397781L658.602285,336.954365L657.983373,338.534897L657.581361,342.917284L657.088795,345.264138L656.070191,346.473487L652.888207,348.544947L650.045769,352.292735L648.192775,356.926586L647.107666,361.883736L646.554209,368.229853L646.771163,368.672885L648.159375,369.930136L647.905411,370.361193L647.344963,370.840146L647.244368,371.726209L649.156253,376.827063L649.694604,377.521546L650.141255,378.359715L650.315448,379.772630L650.001082,380.730538L648.611400,382.191348L648.316663,382.790041L648.833745,384.442435L651.213174,389.758835L651.935604,390.908328L653.265793,390.153973L654.995781,388.417760L658.938723,382.825963L659.776078,383.604264L660.455187,385.735613L661.379040,387.795119L663.219560,389.567253L664.965014,390.022261L666.651296,389.651070L668.358731,388.896716L672.538962,386.238515L674.495700,385.903247L676.835946,387.352085L679.498971,390.728720L681.026813,392.273351L682.719582,392.919942L685.177631,395.254851L686.051746,400.631137L685.755942,406.677970L684.791018,411.000564L682.445814,414.712491L681.900671,411.922558L682.648403,401.924320L681.917197,397.182650L679.522079,394.093383L676.141177,393.662323L672.392835,396.835407L674.067027,398.380041L674.959259,401.361546L674.640918,404.630427L672.634877,406.977319L672.454961,405.133333L672.791767,401.720763L672.219245,399.960597L670.888515,398.835049L666.924417,397.589763L665.279610,396.835407L662.900602,394.392731L657.901358,385.879299L657.153120,389.004481L655.249016,390.477268L653.276264,391.674657L652.251080,393.925749L651.656721,395.961312L650.374017,398.128589L647.265315,401.864450L646.502154,402.403277L644.236567,403.588696L643.204718,404.438845L642.660381,405.564394L642.523145,408.222608L642.088579,409.443951L637.633235,414.209585L636.966063,416.029627L636.035161,420.316310L625.729511,439.869877L624.868063,442.324558L624.777871,446.132310L624.261261,447.485381L622.886241,446.252051L619.058043,449.497026L617.162091,453.376069L615.713439,457.483192L613.159989,461.494526L611.810583,462.572199L607.443349,465.158614L605.894249,465.517839L604.158581,464.380295L603.830612,462.608121L606.171900,444.623578L607.728968,440.229099L609.871739,436.768600L617.804802,427.165435L619.431608,423.549287L619.789527,423.142171L619.466714,421.609501L618.687211,420.938957L617.856884,420.615660L617.344317,420.040909L616.986675,417.813749L618.053238,408.797358L617.971186,407.252719L615.518124,403.876070L614.799498,402.091955L614.386434,400.463502L613.580035,399.888754L611.697092,401.361546L594.581187,420.292362L590.323269,427.165435L589.527310,427.165435L591.331294,430.494210L592.499931,431.320417L594.497124,431.188703L595.978795,430.350522L596.865396,427.979667L598.352838,426.662527L600.422057,427.117539L601.089794,430.158937L600.510390,433.583507L598.754559,435.200001L595.696742,435.571197L592.734091,436.672808L589.934120,438.421018L583.069551,445.222281L581.120671,447.844603L577.843292,456.549210L572.759422,461.267018L566.990989,465.314278L562.468489,469.541156L558.650003,475.001378L557.338048,478.174537L557.398668,481.503363L558.205869,482.760654L560.313194,484.161636L560.936641,487.155189L561.859658,487.849693L563.259507,487.897590L565.022703,487.634157L563.592377,491.202475L563.328151,492.878867L563.576092,494.746847L567.409476,492.890841L568.564880,492.639382L570.180995,492.747150L570.574048,493.190197L570.478162,494.124187L571.715601,503.464097L573.612727,507.906547L574.045239,508.565132L575.100742,509.307536L576.209990,509.666764L577.250897,509.762558L578.075504,509.978095L578.528830,510.816294L577.956818,513.438660L575.836239,514.983342L571.054081,516.947124L566.981092,515.378493L562.908743,516.659741L558.708492,519.054598L554.238458,520.874690L549.621591,521.629071L547.227945,522.479245L545.632846,523.988007L544.177324,528.825624L543.104245,530.885205L541.742837,530.549924L541.538519,527.077376L543.366909,522.120017L549.835984,509.343459L551.244376,507.798779L553.328114,506.337919L555.016933,504.829162L557.180238,501.093195L558.568068,499.177315L558.652469,497.357231L556.578692,495.752683L552.298864,493.741011L550.363106,492.459769L549.053882,491.202475L548.124000,489.717671L546.763663,486.065535L546.600325,485.263263L546.843465,481.383621L546.754045,480.018563L546.431734,478.881015L545.632791,478.390073L543.605346,478.881015L539.902184,481.036370L534.368820,482.796577L524.102185,492.639382L510.239540,503.296457L502.714112,505.308132L501.240979,506.900709L501.629806,508.325646L505.546555,509.547022L507.168580,510.816294L504.192841,511.786210L500.805698,511.726339L497.361584,512.109515L494.205918,514.384628L492.585389,515.989181L486.867522,520.407693L483.170862,524.071827L481.685302,524.969899L481.678734,523.999981L481.488074,523.317446L481.240919,522.706757L481.064848,521.952377L477.941279,524.395133L469.244567,534.525396L463.217213,539.578558L460.625409,542.404499L458.878387,547.780973L456.770561,551.804350L456.212574,554.187244L456.775622,555.288883L458.250536,555.288883L460.023335,555.025448L461.425654,555.193089L462.693732,557.468214L461.959911,560.342057L458.201653,566.257386L456.564700,567.766155L454.981155,568.724103L454.693103,569.706001L456.943216,571.274642L458.056477,571.550052L462.214415,571.274642L465.340346,572.531949L470.335416,578.064104L472.801938,579.321412L475.513256,585.416363L476.681965,589.308033L475.274729,590.457572L472.804850,588.218365L470.786878,584.709876L468.476572,582.063541L465.066935,582.422772L465.808701,585.069107L465.712172,588.266263L464.482843,590.816803L461.892798,591.463419L460.929979,590.601264L459.654059,587.799262L458.640220,587.440031L457.850433,588.409955L457.631173,590.158213L457.613101,592.038189L457.401815,593.475113L454.733638,590.876675L452.828725,588.098621L448.921818,577.812642L447.449746,575.118411L445.535714,572.819334L442.883227,570.268795L445.371701,568.328950L446.384111,566.233438L447.128814,563.886465L448.770293,561.228159L447.810695,559.934929L447.381046,558.521956L447.293770,556.977266L447.384302,555.252960L446.814845,554.259090L445.353312,553.672347L442.148294,553.205348L435.765932,553.229297L432.652088,553.887885L429.646982,555.193089L426.567873,557.228727L423.391720,559.851109L420.556398,562.904568L418.498344,566.257386L417.554360,569.514411L419.343930,568.604360L422.507814,566.017899L425.707642,564.245695L425.535784,566.820181L424.459171,568.412770L423.212543,569.694026L422.575833,571.274642L423.264656,573.789257L424.413212,575.597385L424.359594,576.507437L421.396523,576.387693L418.026769,574.292180L416.944022,574.208359L414.694660,574.399949L413.613318,574.292180L411.779149,573.825180L410.755183,573.274359L410.354817,572.076924L410.385730,569.765872L410.901090,564.892310L410.014398,563.599080L407.258032,563.156029L405.263026,563.287747L403.505080,563.658952L401.856585,564.305567L393.726896,569.370719L390.812959,569.837719L386.361245,566.544771L384.482076,566.305284L382.515738,566.305284L380.623293,565.754464L378.543913,564.820464L377.199541,564.916259L372.786681,567.957745L368.360543,572.843282L367.311776,574.866949L367.978173,576.172155L369.283845,577.453411L370.178649,579.321412L370.153849,580.818207L369.772842,581.967746L369.269823,583.057413L368.932630,584.350645L368.599200,588.074673L368.692436,588.445878L367.591538,590.098341L365.407640,592.385445L364.924991,594.013959L365.795765,601.593735L364.391883,604.120328L363.431096,604.455610L362.721831,601.593735L360.401118,602.827096L360.405073,601.342274L362.046892,597.079398L362.138139,594.995858L361.982321,594.445037L361.522452,594.085806L360.629618,592.553086L359.919065,588.445878L358.163901,589.667264L357.194003,590.158213L356.287625,590.457572L335.153964,592.972189L333.913492,594.157652L333.866876,596.025653L334.767217,598.504348L336.190485,600.264580L338.648409,601.318325L338.897224,602.599583L337.904657,604.898662L336.003009,606.299663L331.524988,608.131742L330.062466,609.532743L328.863734,611.424693L327.493717,613.029259L325.485949,613.747721L323.483928,613.304670L322.596182,612.047361L322.499851,610.131462L322.814276,607.628818L323.710788,604.647200L323.845108,603.605430L323.851982,602.240351L323.768634,601.521889L321.998979,593.343395L322.083068,588.673391L321.914357,586.541954L321.057520,585.631902L315.815909,589.451725L307.691105,593.223651L304.077347,595.486807L301.034444,598.540271L297.915348,602.539711L293.060759,610.646359L290.332921,614.202747L286.456826,616.837108L278.740885,620.776676L279.727207,621.782522L277.985259,622.608754L274.246839,623.255369L272.438169,623.794216L270.582520,624.955730L269.559600,626.177115L268.681504,627.602064L267.367682,629.326373L265.520681,629.984963L263.241007,629.290449L261.075910,627.889449L258.128688,625.027576L256.546831,624.907832L253.023849,625.805909L225.184775,622.800344L220.736592,623.614600L216.459830,623.638549L214.289114,624.297139L213.166568,625.626294L212.631484,627.637987L211.772384,635.924246L211.344865,637.876066L210.374581,639.456681L209.074021,640.965450L207.755177,642.965167L206.629246,645.060679L205.956212,646.916704L205.990273,651.682494L207.672937,656.124975L212.026242,664.171729L213.007363,668.254975L212.826848,672.362167L211.583134,676.421460L209.328830,680.253239L209.416731,676.660946L208.132504,675.942487L206.540505,677.594942L205.682397,681.139337L206.067198,684.156861L208.012652,690.431391L208.552930,693.281271L206.988713,699.879096L202.912226,705.686613L198.105789,711.122922L194.415214,716.583174L191.582111,722.713975L189.870869,725.468043L187.623796,728.102367L186.615448,729.587168L185.359415,732.927966L184.595878,734.161307L180.856725,738.160682L179.876696,739.693375L174.758112,752.338072L171.285111,757.965906L167.700783,757.858139L166.881018,764.827061L166.357716,766.910550L165.287966,769.053909L163.045810,771.424773L152.255517,788.188406L150.815898,792.451143L149.934644,793.552748L148.473597,792.702596L147.644517,793.121685L144.974780,799.240377L137.711270,811.022710L136.101723,815.321333L134.439602,824.373562L134.105825,828.947558L134.607048,832.491801L141.930503,845.112135L143.297078,851.829380L146.166426,854.990429L146.718355,857.181608L145.664836,863.719211L140.730857,881.966912L140.333636,891.641477L143.558404,920.233823L141.695612,949.496171L142.429202,953.854347L149.882826,967.000636L158.133806,980.960954L163.049611,999.111556L165.449808,1009.372045L165.694771,1013.969484L165.518857,1015.406181L164.492269,1019.057777L164.086635,1019.859930L162.927712,1021.045199L162.633849,1022.050881L162.742480,1022.625556L163.214151,1023.703072L163.295045,1024.062243L162.711997,1033.089388L160.688144,1037.674769L159.258883,1046.258843L159.807402,1051.287142L161.724433,1056.064007L172.419311,1072.872669L174.540748,1077.673388L175.224889,1082.498030L176.038947,1084.209994L181.683533,1090.626846L183.842703,1094.984536L185.450030,1099.665443L187.379695,1109.422253L187.511087,1115.192496L185.648520,1117.754378L182.794973,1118.305062L181.674967,1119.849370L181.214873,1122.111957L180.389164,1124.877334L179.581855,1125.775182L177.256842,1127.307507L176.610005,1127.977899L176.321173,1129.689790L176.530890,1131.090426L176.901217,1132.419232L177.094225,1133.915634L176.909446,1138.955499L176.332820,1141.409581L175.167305,1143.492552L174.077921,1145.048793L171.304456,1150.100571L170.675372,1152.087757L171.019030,1154.613631L172.149275,1157.187383L173.693934,1159.461855L175.310516,1161.113837L176.120610,1161.437050L177.942412,1161.544788L178.819111,1162.119389L179.364571,1163.148882L180.217801,1167.242903L182.552868,1167.602027L183.186828,1172.498067L182.730300,1178.806618L181.779677,1183.307570L179.361074,1188.800662L176.654430,1193.469138L173.372930,1197.563014L165.228642,1205.642982L162.182552,1210.275469L151.535644,1230.564821L149.917614,1235.915409L150.043083,1240.643539L148.129249,1242.594636L142.211263,1247.346684L140.269531,1249.884295L136.640042,1257.892108L136.114386,1256.096638L135.965720,1255.198902L136.032169,1253.870252L132.419481,1258.622265L130.236399,1265.157759L128.595758,1272.124140L126.617095,1278.073075L118.819232,1292.041643L116.371848,1294.232080L112.127829,1295.345252L109.263880,1298.194014L100.106738,1315.190785L93.420112,1343.630352L87.936123,1357.419230L86.996978,1361.740227L85.479277,1365.402903L82.138761,1369.352850L78.227941,1372.524780L74.968819,1373.841431L72.695340,1373.266892L70.506919,1372.189633L68.165538,1371.543277L63.299956,1373.015532L56.221690,1372.835988L55.664599,1373.266892L53.808394,1375.948073L50.194520,1377.935020L47.611983,1380.472569L46.597818,1380.448630L45.768638,1377.935020L44.731256,1381.561800L41.609147,1388.348558L40.403278,1392.011259L37.796477,1431.259988L35.119442,1429.464511L32.650863,1429.823606L30.341549,1431.678933L21.077800,1442.763061L19.476696,1445.492212L18.505597,1451.189931L18.214230,1458.635307L17.254676,1465.530102L14.388907,1469.504204L15.565346,1464.165504L15.545967,1461.675715L14.196879,1459.557005L13.016523,1461.101149L12.044781,1462.776967L11.366873,1464.548549L11.038471,1466.511656L11.712249,1470.509702L11.319318,1470.964571L10.715399,1471.323678L10.152193,1471.539142L9.898887,1471.610963L9.410163,1472.412969L8.787051,1472.903749L8.243445,1473.598023L7.926263,1475.082336L7.690348,1478.589631L7.309309,1480.097891L5.869542,1483.030626L5.480342,1484.658597L4.633091,1497.969756L5.972810,1503.859287L10.324981,1503.931111L10.258352,1506.588596L10.588878,1509.186235L10.635989,1511.688117L9.641316,1513.986503L7.146070,1511.269141L3.655783,1511.616292L0.779604,1513.890736L0.248741,1516.979202L1.413300,1520.390893L2.014396,1524.018076L1.960183,1525.418676L1.744186,1526.915046L1.675442,1528.375506L4.239248,1535.055352L5.532200,1542.142280L5.912194,1555.693837L4.947221,1562.469719L4.770422,1565.917546L5.401562,1569.341447L6.002950,1570.658337L7.556744,1573.148465L8.088879,1574.417476L8.479254,1579.649182L9.698830,1583.803453L9.822724,1591.489532L11.144603,1595.488249L11.401038,1601.546241L11.829616,1603.533661L13.052183,1606.718336L15.383558,1611.172124L19.375314,1616.392203L21.569765,1618.236005L23.247301,1620.079814L25.005936,1624.701338L26.228397,1626.832521L34.416813,1633.705053L37.587020,1637.763963L38.881132,1643.906273L39.761355,1654.897978L39.341014,1668.093168L40.299841,1673.218086L40.543920,1676.522972L40.794211,1677.337224L41.734403,1678.319117L42.573091,1678.570578L43.368902,1678.702296L44.195990,1679.253115L49.180394,1684.785302L51.345311,1688.341747L54.508614,1691.371335L55.721215,1693.407040L56.028045,1694.844015L55.875828,1696.065447L54.908772,1698.532272L54.256208,1699.538166L52.157920,1701.526013L51.738790,1704.256324L53.166966,1708.100348L53.227184,1710.483422L50.787992,1713.716763L41.962988,1717.740514L38.941545,1720.614648L38.006468,1725.261212L37.484002,1735.680268L35.450668,1738.710234L36.831961,1741.333032L37.457026,1743.991778L38.077407,1749.848276L39.264682,1754.195802L39.281026,1755.884525L38.871887,1757.333720L37.551319,1760.052473L37.197217,1761.453778L38.326578,1775.706697L34.683156,1801.028138L35.067475,1823.045344L38.527907,1833.539430L42.037520,1837.888118L50.327301,1844.297463L54.219218,1848.203042L54.679811,1849.401083L54.829768,1852.420170L55.074465,1853.738035L55.662160,1854.888178L56.248943,1855.535135L56.824709,1856.062286L61.734004,1862.388182L62.810155,1864.880242L63.638614,1869.792543L61.342286,1882.972333L62.237030,1887.777130L70.311609,1901.149554L71.163425,1906.038573L71.015287,1917.614424L72.199520,1920.814057L81.679404,1928.040906L83.076498,1928.436381L87.102915,1928.400429L91.384501,1930.833215L98.269209,1939.701687L102.548869,1941.643201L104.966639,1941.763048L106.965937,1942.206483L108.813268,1943.105338L110.776085,1944.579468L113.711714,1948.031117L115.348726,1949.097781L117.400820,1948.678306L117.684398,1951.974197L116.466663,1953.580207L114.344635,1953.496311L111.979505,1951.566703L108.492503,1946.748729L106.468767,1944.663362L104.113166,1943.572744L104.764466,1946.796668L108.447203,1951.734494L109.842682,1957.415489L112.049812,1958.781820L130.334908,1962.856875L143.555133,1963.635935L156.736541,1965.685472L161.596865,1967.267578L169.730801,1971.630394L178.435329,1978.953809L180.381134,1981.027404L181.559757,1985.498254L183.026676,1987.511951L186.548736,1990.460594L199.549213,1995.818546L203.123609,1998.959029L203.978226,2001.356358L204.664438,2007.002112L205.708028,2008.656293L207.824222,2009.123780L207.824222,2009.123780Z "/></g></svg>