<?xml version="1.0" encoding="utf-8"?><!DOCTYPE svg  PUBLIC '-//W3C//DTD SVG 1.1//EN'  'http://www.w3.org/Graphics/SVG/1.1/DTD/svg11.dtd'><svg enable_background="new 0 0 1000 1529" height="1529px" pretty_print="False" style="stroke-linejoin: round; stroke:#000; fill: none;" version="1.1" viewBox="0 0 1000 1529" width="1000px" xmlns="http://www.w3.org/2000/svg" xmlns:xlink="http://www.w3.org/1999/xlink"><defs><style type="text/css"><![CDATA[path { fill-rule: evenodd; }]]></style></defs><metadata><views><view h="1529.85956523" padding="0" w="1000"><proj flip="auto" id="robinson" lon0="166.866247906"/><bbox h="168.3" w="110.08" x="2433.19" y="-245.0"/></view></views></metadata><g class="" fill="black" id="country"><path d="M567.565901,1527.859565L571.774780,1527.710905L574.960252,1526.026083L577.059105,1523.164364L578.092988,1519.447845L575.220262,1524.081105L574.058845,1525.313750L567.565901,1527.859565Z M481.385123,1371.395755L481.734609,1368.818961L480.584124,1366.917336L481.051738,1368.174762L481.194844,1369.475548L481.031969,1370.776333L480.517047,1372.046148L479.753132,1372.343470L478.661257,1372.064730L477.836357,1371.705466L477.806890,1371.748825L479.930964,1372.956697L481.385123,1371.395755Z M614.108890,1364.427261L613.530247,1364.148521L613.398397,1365.839542L614.108890,1364.427261Z M681.002949,1336.776275L682.224915,1330.538698L682.498219,1325.998336L683.730104,1320.070469L690.816918,1314.309847L692.129149,1308.753633L690.233356,1311.801188L687.973573,1314.402760L684.912580,1316.688426L682.380848,1319.451047L681.305755,1323.365793L680.997592,1330.489144L680.148574,1335.085253L679.483746,1337.042626L678.783768,1338.417742L677.865807,1339.384040L675.342923,1341.056479L678.711348,1341.384773L681.002949,1336.776275Z M995.065925,1301.469233L991.077595,1301.314377L989.750956,1300.986084L988.879483,1300.614431L988.580779,1300.434798L990.658358,1302.862932L993.576089,1302.881515L996.763637,1302.193956L999.672959,1302.509862L995.065925,1301.469233Z M960.842928,1298.087190L959.289875,1296.730656L958.696419,1295.888242L958.121259,1295.268821L957.862427,1296.904094L958.109392,1298.050025L958.882068,1298.681835L960.259760,1298.700417L961.155870,1298.706612L960.842928,1298.087190Z M928.984113,1154.759260L927.413684,1153.334592L925.900406,1151.340057L928.394154,1156.196316L931.381196,1157.596208L937.517667,1156.530804L941.406441,1157.521877L947.412231,1162.241864L950.996761,1162.768372L947.788831,1160.854361L941.320216,1155.490176L939.489448,1155.044193L930.818918,1155.490176L928.984113,1154.759260Z M952.799327,1154.238946L954.013055,1152.702783L954.988520,1150.949822L955.681982,1148.980064L955.277931,1149.097754L955.039712,1149.357910L954.877162,1149.729563L954.620882,1150.150769L952.025058,1154.127451L951.346836,1155.552119L952.799327,1154.238946Z M969.754989,1144.476875L971.583144,1142.631001L972.065205,1140.512582L970.157493,1139.471956L971.036873,1140.487805L971.218168,1141.509849L970.754238,1142.519505L969.762309,1143.485802L968.538157,1143.944173L967.996681,1144.229106L967.515899,1144.699866L969.754989,1144.476875Z M854.787976,1136.684563L853.973803,1134.950185L853.658048,1134.008666L853.489687,1132.534445L851.743684,1134.913020L855.402581,1137.911016L875.227908,1147.493454L879.725748,1148.218176L883.480782,1148.218176L887.319421,1145.783852L897.015369,1144.142387L900.380246,1141.788589L886.097880,1145.077713L883.320751,1146.223641L879.917351,1146.966946L878.435069,1146.991723L854.787976,1136.684563Z M541.464465,1111.474150L538.429103,1110.514049L535.348902,1109.541559L533.173750,1107.497472L532.818493,1109.677832L535.706730,1110.817565L542.580738,1112.217455L548.822077,1113.858918L552.022167,1114.001385L553.791662,1111.647588L544.099860,1111.647588L541.464465,1111.474150Z M517.698732,1094.923244L516.408234,1089.868778L515.694195,1087.837080L514.721995,1090.042215L515.196231,1093.015431L516.624392,1095.691325L518.471003,1097.004496L517.698732,1094.923244Z M568.592989,1070.431386L568.583035,1069.638529L568.476293,1069.204935L567.860180,1067.891766L567.016957,1067.402424L565.960531,1067.309511L564.939812,1067.476755L564.211659,1067.736911L565.945821,1067.842212L567.444060,1068.449243L568.355947,1069.545616L568.346462,1070.134064L568.160242,1071.044611L568.613453,1071.564924L568.592989,1070.431386Z M347.352778,957.914039L347.189621,958.985630L348.323829,959.518329L347.352778,957.914039Z M386.063975,894.677849L386.198055,893.996492L385.923203,893.061175L385.031500,893.692979L384.733213,894.368141L384.867439,895.111439L385.081647,895.991009L386.063975,894.677849Z M800.229333,869.628717L799.949266,869.071244L799.218930,869.170350L798.820043,869.504834L798.416207,870.873740L798.457862,870.954264L798.530159,871.016205L798.622197,871.059564L798.701955,871.090535L799.482443,871.344495L800.229333,869.628717Z M709.480450,784.385130L708.900627,783.071978L708.208227,783.022425L708.708031,785.599176L709.480450,784.385130Z M778.680917,659.967137L778.421296,658.127507L777.887998,658.214223L778.145998,660.041466L778.680917,659.967137Z M227.748024,525.996504L228.701527,523.295910L224.605493,524.912550L219.849186,525.377102L222.490918,527.483070L225.427569,527.551204L227.748024,525.996504Z M37.990194,454.182958L37.400633,453.563555L36.813060,453.260047L36.448043,453.142360L38.559579,455.266914L37.990194,454.182958Z M1.273643,442.154142L0.882207,441.404663L0.327041,441.776306L0.606141,443.702651L1.273643,442.154142Z M423.416825,0.000000L423.036275,0.049556L421.708953,1.746835L420.606534,3.598975L421.700984,2.651224L422.801010,1.176946L423.416825,0.000000Z "/></g></svg>