<?xml version="1.0" encoding="utf-8"?><!DOCTYPE svg  PUBLIC '-//W3C//DTD SVG 1.1//EN'  'http://www.w3.org/Graphics/SVG/1.1/DTD/svg11.dtd'><svg enable_background="new 0 0 1000 722" height="722px" pretty_print="False" style="stroke-linejoin: round; stroke:#000; fill: none;" version="1.1" viewBox="0 0 1000 722" width="1000px" xmlns="http://www.w3.org/2000/svg" xmlns:xlink="http://www.w3.org/1999/xlink"><defs><style type="text/css"><![CDATA[path { fill-rule: evenodd; }]]></style></defs><metadata><views><view h="722.191079638" padding="0" w="1000"><proj flip="auto" id="robinson" lon0="21.7300964521"/><bbox h="24.85" w="34.45" x="276.82" y="-710.73"/></view></views></metadata><g class="" fill="black" id="country"><path d="M236.132930,720.191080L293.787653,718.021398L321.001433,710.280561L331.308116,710.798212L346.043501,713.592145L352.110215,714.742449L365.664832,714.717796L378.777328,712.129348L384.623798,708.900190L397.731239,695.813723L406.690234,691.945295L416.320245,691.772826L446.733704,695.622606L448.243525,695.813723L466.973819,710.157312L478.151055,712.129348L481.414030,710.034063L489.821236,701.629395L493.494976,698.721452L495.744137,698.401098L501.429965,698.696809L503.323162,698.056105L504.577385,695.394830L504.848961,689.235155L505.485599,687.362804L516.154690,682.706940L536.985213,686.919365L544.745415,685.322966L548.002282,684.652976L552.521327,679.972797L553.428858,674.554323L552.978367,669.407449L553.334611,665.467701L556.812516,660.986702L570.712291,651.484677L570.748255,651.435449L570.745896,651.410835L570.784219,651.386221L575.261130,642.501625L588.102130,630.100840L592.764519,622.770367L593.147910,619.154800L593.064488,617.592553L592.643293,609.711518L593.792204,605.187360L596.573562,601.991233L602.624519,597.585508L605.993263,595.132661L617.371788,589.209115L641.878920,582.450876L643.624400,581.173074L647.246381,577.045045L648.783670,576.135947L651.760807,577.069615L653.203221,579.354727L654.088529,581.762824L655.195987,583.114366L668.873939,589.553199L671.899472,590.560890L679.888189,587.857383L692.884881,576.111378L701.494409,572.303209L710.326029,571.590749L713.439611,571.939103L718.011487,572.450615L733.316583,576.799341L745.446085,578.199870L749.158411,579.158153L750.356437,581.001065L751.543448,587.267549L752.518837,588.914188L755.025405,589.184538L758.126904,587.242973L765.544670,587.021788L775.344432,585.399796L780.295013,585.719274L784.030525,587.316702L792.856055,592.281392L797.481543,593.829903L809.196285,594.296925L815.434680,593.657843L820.793962,592.355129L828.148316,590.265954L834.404289,590.216798L847.427518,591.986444L856.040631,591.519447L861.869957,589.342177L863.213236,588.840457L869.446215,583.679569L875.402807,575.767400L875.908417,571.885559L875.155119,567.611017L876.149308,564.147470L881.973545,562.649140L886.629016,563.680772L887.100831,564.189375L889.181124,566.431906L891.298592,570.116732L894.724216,573.875573L902.290243,579.600445L907.646520,581.934836L911.631042,579.109010L915.177149,569.502573L917.068235,551.155450L914.894495,513.551409L915.176238,511.913334L917.475740,498.538080L921.443021,495.075804L928.182439,489.193994L934.307377,488.176052L945.593089,486.300402L981.580707,488.777109L990.278426,482.107462L990.795230,473.281433L987.785359,463.329592L985.934765,453.208279L986.893658,450.292360L990.913451,445.171548L991.658305,442.942079L990.889053,440.198256L988.119852,435.372440L987.355363,433.069931L982.907435,399.916647L981.930675,392.646301L983.025520,384.790549L983.064163,382.025412L981.840459,378.819994L977.562798,373.535154L976.027307,370.844004L974.724318,364.520342L974.384186,357.708265L974.922970,351.166064L976.225290,345.737253L978.002663,344.111160L983.997423,342.497343L986.020396,341.287011L986.991532,338.927553L988.831450,332.057588L991.767652,327.022278L996.157329,319.493390L999.306702,308.495933L997.860130,297.354032L989.892167,287.399018L985.534287,285.628061L976.210762,285.188383L971.735520,283.454133L968.941920,279.973574L958.701628,262.183211L952.842258,246.009224L949.788463,240.419524L947.767512,238.515726L942.960123,236.294703L941.681335,235.129390L941.125508,234.622887L939.740043,231.047549L939.174401,224.080506L938.220441,220.761978L932.883455,209.977975L928.834230,199.122629L926.960912,187.793551L925.499171,182.721104L921.887728,177.600282L921.758680,177.527130L920.781264,171.285145L920.697187,171.030773L919.596609,167.701144L917.204586,165.336297L912.517747,162.691179L910.278635,162.557097L904.487599,164.434263L901.744196,164.507400L898.443880,162.349881L896.774887,159.156390L895.520652,156.060554L893.582331,154.159244L889.536829,153.769238L871.772701,154.488313L869.085886,153.549861L867.141812,151.587685L865.470771,149.528069L863.546093,148.138778L851.626576,145.933031L831.667652,137.201454L827.811808,135.514564L791.611568,113.634701L782.677480,106.241397L781.206928,104.292630L775.647004,96.924705L769.066882,83.371915L753.242939,73.425006L709.866255,26.787533L702.108754,26.373855L694.957826,24.013497L688.256018,19.743123L681.896186,13.696839L680.413370,10.290672L679.303136,2.286710L677.330359,0.000000L673.837429,0.583835L664.522711,10.096038L612.729821,30.376883L599.425862,32.603575L593.304179,31.974570L586.281193,31.252951L573.101452,27.176879L551.237631,17.528941L546.254329,16.580024L542.234743,18.356211L530.030922,28.636941L527.345953,29.245308L511.698152,29.087133L503.984068,30.693240L467.901520,51.504830L463.093499,54.277460L458.053582,60.424127L452.488401,63.759352L452.463323,63.758271L445.710889,63.467209L431.672826,60.071137L412.312691,60.424127L407.819980,58.413968L406.899056,58.001918L390.875769,61.836103L382.851552,62.006516L375.474581,57.709797L372.150910,61.786489L370.611834,63.674144L366.481610,62.773376L362.512908,59.426022L357.859458,58.135807L351.753185,61.349212L352.765539,65.451363L356.004101,69.590251L356.762022,72.755432L352.597614,73.145001L338.516472,68.470295L331.737498,68.981577L329.492732,70.745404L327.012021,72.694562L307.119579,104.268352L307.041983,108.421552L308.099144,110.954998L309.520207,113.488533L310.520986,117.508265L311.822480,127.071258L311.740963,128.101144L311.479115,131.408530L307.473312,132.212660L290.297946,129.165987L287.142975,128.606330L283.516887,125.556562L281.855933,124.159587L277.595509,117.386451L270.286292,107.958721L255.228281,95.755635L239.346950,85.441815L233.840908,82.860537L231.149685,82.203056L228.111253,82.130003L219.221024,87.548301L207.253964,99.087753L203.068053,103.123524L193.594802,107.581150L182.672248,111.018915L155.723632,119.500101L120.164903,130.689694L110.627097,135.831360L103.780037,144.178232L100.825617,154.342060L98.224912,177.600282L98.757737,188.317889L103.890838,202.682728L105.481890,207.135891L105.088259,216.902191L105.023087,218.517192L101.732774,227.374807L96.170989,237.490628L93.010865,241.012101L88.953402,245.533224L80.778934,248.169572L76.777060,245.667480L68.437584,236.233686L64.558727,234.171382L62.194272,235.721155L58.616607,242.884786L55.908691,245.093844L49.539168,245.398969L44.585900,243.104468L34.697985,234.391032L25.250883,239.870345L25.623411,247.766008L25.744276,250.329999L29.978599,262.256462L31.267698,268.934531L31.863969,272.024023L29.698709,276.163516L21.338098,284.247973L17.917215,288.840251L15.342619,295.130799L14.671799,300.114869L20.971112,334.331182L23.894097,344.429039L34.240479,366.379445L34.565331,369.551673L34.665087,370.525968L33.011469,375.443507L29.971021,378.526378L24.965371,381.413676L19.488213,383.591489L0.693298,387.384529L2.773012,394.114798L2.812163,406.892498L6.218980,413.943637L10.767491,415.755546L14.031136,418.595968L18.936716,425.943564L19.819025,427.265147L21.452973,430.914490L22.975684,438.654923L23.983015,441.227171L26.981481,443.383065L33.603867,444.338547L36.731192,446.127065L41.953103,452.154607L44.344172,456.912399L44.884120,457.986843L45.392848,464.408017L43.358881,472.325378L40.216932,478.797509L35.639658,484.682030L30.282421,487.820741L24.490010,486.202317L23.939071,495.510125L23.883202,496.453279L27.300036,510.754439L36.296907,536.375193L42.351312,548.429820L58.610016,567.217977L65.832542,578.249012L68.800902,588.987920L69.322875,597.418730L72.674766,603.884294L81.034628,607.329373L84.249429,608.654199L89.663938,609.170561L94.604762,608.949262L95.637411,609.088178L99.174361,609.563984L103.717214,612.563954L108.441690,620.236978L118.875482,651.336993L128.970652,678.741261L135.666190,689.752531L141.297960,693.854438L145.645579,697.021143L155.760567,699.041808L162.449801,696.503673L174.636759,686.402026L182.193092,684.656638L182.528894,684.579074L203.577642,687.338168L223.643469,692.684456L230.774256,698.548953L234.811241,707.519868L236.132930,720.191080Z "/></g></svg>