<?xml version="1.0" encoding="utf-8"?><!DOCTYPE svg  PUBLIC '-//W3C//DTD SVG 1.1//EN'  'http://www.w3.org/Graphics/SVG/1.1/DTD/svg11.dtd'><svg enable_background="new 0 0 1000 1029" height="1029px" pretty_print="False" style="stroke-linejoin: round; stroke:#000; fill: none;" version="1.1" viewBox="0 0 1000 1029" width="1000px" xmlns="http://www.w3.org/2000/svg" xmlns:xlink="http://www.w3.org/1999/xlink"><defs><style type="text/css"><![CDATA[path { fill-rule: evenodd; }]]></style></defs><metadata><views><view h="1029.91775943" padding="0" w="1000"><proj flip="auto" id="robinson" lon0="-0.755264698073"/><bbox h="249.05" w="242.05" x="-180.14" y="-419.14"/></view></views></metadata><g class="" fill="#000" id="country"><path d="M316.988698,1027.917759L318.674810,1027.059419L319.977600,1025.636737L320.250145,1024.078883L318.570096,1020.402215L319.333195,1017.100649L321.122332,1014.140393L323.954292,1013.951153L328.227303,1013.126606L333.119843,1013.116469L336.764963,1013.647017L338.235603,1010.690141L336.900071,1002.397376L337.280257,997.828585L337.894427,993.969445L339.253899,992.401458L344.675488,997.247348L349.653205,998.991058L353.222432,999.136367L354.224934,998.220582L352.724999,992.935385L353.142901,991.340364L354.469089,990.417820L356.814854,989.883894L363.180653,987.721155L363.840760,988.146944L364.990686,996.480251L364.424995,999.207332L365.734184,1004.871011L367.357621,1010.129179L367.228686,1012.264888L365.852767,1015.522521L364.237459,1018.509812L364.409968,1019.726357L366.925604,1021.767448L371.764439,1023.859229L376.789054,1024.349226L379.595548,1021.284209L382.527056,1018.793673L384.551177,1016.570101L385.258090,1013.282054L388.453277,1010.872622L397.564995,1007.851541L405.943368,1007.385199L407.950191,1008.348296L408.971041,1004.374257L410.699980,998.724095L410.925339,993.266554L412.094927,984.446632L411.445659,973.396390L410.147040,965.691635L414.189874,962.484700L418.872148,959.608934L421.786484,954.371052L424.854114,942.617918L426.166713,932.466557L425.249010,928.708794L423.710811,925.724886L422.502701,921.335195L421.830349,915.995922L422.694728,911.325745L426.235999,907.010391L430.666448,903.404686L433.809607,901.664350L442.134334,899.880083L452.535702,897.193543L458.539681,894.145417L462.929906,891.097289L465.389574,888.687848L467.892340,883.743929L471.926107,879.915176L475.049412,876.052627L475.527043,865.292895L475.532085,859.166189L473.243409,855.790245L471.996225,852.894163L487.418788,844.486388L487.555982,838.548892L485.435657,831.915241L482.448387,826.575868L481.348555,821.969808L485.619830,816.552693L489.428633,812.480557L492.183042,809.016702L498.261645,803.741496L504.566146,802.372848L510.249950,804.356543L527.046281,816.768972L529.964034,817.563122L533.468565,816.616900L537.919988,813.342295L543.689508,810.777354L545.840989,802.470850L545.675376,790.244223L547.000247,784.644556L550.046977,783.640873L559.725839,785.976041L562.238868,786.114597L565.053800,785.330575L567.106128,783.181274L567.032502,779.244262L566.596429,775.756707L569.781058,764.408597L575.568844,755.895786L587.242716,745.247120L590.872689,743.121435L595.097093,742.026487L615.920150,749.339648L619.323683,747.528258L624.458432,729.400744L630.110904,727.673823L636.895757,727.359530L641.302275,725.804961L643.590652,724.537648L653.515003,717.667108L671.008831,708.292309L680.423619,704.277419L682.264096,702.766764L689.004929,696.119187L697.940675,688.481631L703.630529,686.957441L711.494265,686.396430L716.457995,687.657014L717.801440,689.813184L719.426269,690.921685L729.687909,687.673912L744.407241,692.837634L757.128548,697.913731L757.807373,694.300984L761.288531,693.158692L770.172528,693.239802L787.463120,694.909305L801.310506,693.023510L802.072619,692.692312L811.818304,683.057400L822.628750,672.942266L838.898673,671.958800L856.455770,670.904363L870.297287,670.373764L890.418078,669.609972L906.680716,668.954327L925.518340,668.187155L926.074092,663.526665L927.209904,662.380974L929.070044,662.218752L942.926540,664.716291L955.956943,667.122577L956.899383,658.349084L968.283722,647.372042L974.739291,645.134723L976.330256,643.218468L978.366917,639.511002L979.607936,633.785887L980.148419,629.713414L982.539764,626.333767L984.266847,620.111836L986.547189,609.232752L992.916933,597.812934L996.505831,582.303786L996.969766,567.325313L997.612127,555.939439L999.514053,553.607523L999.337310,533.394342L999.158400,513.063177L999.008771,495.875250L998.815265,474.493852L998.648309,455.728562L998.465078,435.399208L998.305651,417.148621L998.195626,405.058468L979.127125,409.143680L965.511130,412.059777L950.807647,415.205664L948.531160,415.739554L945.859035,415.864579L943.872976,415.742933L939.805738,414.019618L934.870125,409.893822L931.583248,407.798835L930.746252,404.551620L932.640944,400.256946L934.989261,396.381294L935.885082,393.343641L937.512156,391.035847L939.593089,389.153804L939.668442,386.501384L937.916213,382.166314L936.361849,376.158773L936.374775,365.231863L936.398678,361.603132L936.410073,360.292201L931.979337,356.106031L923.682671,351.511087L916.058464,348.787930L912.582792,347.855439L904.160976,346.230340L892.527549,343.318674L888.433415,341.321959L880.876389,331.189857L877.174805,328.595206L859.731598,326.872203L853.941894,325.199881L849.182282,322.797826L845.106813,319.561317L842.807672,313.993747L842.116941,309.459991L840.588470,307.301230L821.345645,296.368981L816.460115,292.652850L813.865545,289.183343L813.757085,284.071997L814.267153,277.798533L813.443708,272.227757L812.619489,269.477841L803.853454,262.869930L784.210709,248.056119L764.588465,233.242136L744.981030,218.424498L725.382744,203.613238L705.805509,188.798115L686.240804,173.979026L666.691800,159.166004L647.161723,144.348808L627.645063,129.527334L608.145054,114.711616L588.659203,99.888034L569.196612,85.066621L549.748982,70.243895L530.319682,55.419751L510.912101,40.594087L491.517998,25.770179L475.152045,13.237494L457.084566,0.000000L436.246779,0.013529L408.414637,0.030441L389.435761,0.043970L369.960220,0.054116L351.704561,0.067646L353.098774,15.848293L354.582725,33.067376L356.078297,50.287578L357.573636,67.505679L359.080159,84.718463L360.588804,101.932852L362.102269,119.145628L363.620306,136.356955L365.142706,153.563614L366.672112,170.769150L368.199496,187.977101L369.736372,205.180874L371.273684,222.387388L372.814160,239.593427L374.357609,256.795775L375.903750,274.001351L377.455328,291.206940L379.003349,308.412704L380.559350,325.615427L382.114278,342.822028L383.670911,360.028663L385.229342,377.233232L386.789618,394.441789L388.354819,411.650914L389.916281,428.857184L391.485833,446.063933L393.054743,463.274498L394.626114,480.482077L396.199993,497.693385L397.776512,514.904999L399.358715,532.116876L400.937890,549.325592L402.525864,566.537864L404.064884,583.212907L411.189231,591.976296L420.153348,602.993926L417.406316,618.563958L414.130445,637.148632L410.550491,657.436585L397.765744,657.436585L385.429896,657.436585L373.094022,657.439965L360.758146,657.443344L348.425249,657.443344L336.089399,657.443344L323.753549,657.443344L311.417698,657.443344L299.081848,657.443344L286.748920,657.446724L274.410115,657.446724L262.077218,657.446724L249.741367,657.446724L237.405516,657.446724L225.069665,657.446724L212.733777,657.450103L200.397925,657.450103L188.921477,657.450103L181.856725,656.983715L179.350111,655.402049L178.557904,644.901528L176.447709,645.577455L173.919117,648.663063L172.601020,651.998762L172.995308,656.372002L172.553117,660.072692L164.617714,661.522550L153.866489,663.999812L142.571730,665.916055L131.199343,665.229993L127.325926,664.374949L123.208291,662.992685L114.172077,661.475236L109.253176,661.346810L103.598618,661.688152L96.933100,662.533057L94.766262,664.452681L89.634831,672.286622L84.642842,681.370985L81.458242,681.327050L77.943573,676.359044L68.275322,666.963735L56.574696,654.634873L51.243827,648.500841L48.385216,647.710006L42.634261,652.110289L37.785719,656.344965L32.600938,662.333659L30.201837,668.065489L28.269251,674.838224L27.338852,682.830968L25.353589,692.121166L21.127417,699.613646L16.164007,705.287902L12.496063,707.957735L11.074212,709.410934L0.485947,705.004020L6.023935,716.139566L4.718800,721.469058L3.302708,729.258806L6.445007,734.929586L10.171607,738.623358L12.823253,742.019728L15.739190,746.707048L16.100451,756.027585L15.470430,762.752674L17.372089,765.790785L18.970761,769.629816L18.597903,772.836889L17.481167,775.665463L13.798022,779.416612L13.098936,786.395087L18.881211,794.850336L22.614270,799.449682L22.543242,802.088980L23.565005,804.978349L26.319614,808.350965L28.046986,807.556813L29.969840,804.802621L30.839863,802.903410L35.911426,803.744876L38.296825,804.609997L41.482783,810.135274L42.633016,813.808648L43.360858,818.424859L46.688709,824.190045L49.595683,828.255406L50.185998,830.789918L52.789965,834.223334L51.062835,841.843748L51.206001,845.746880L49.287937,855.982867L48.840731,860.818677L48.930943,862.602958L52.919981,866.249242L52.440415,871.429730L50.680345,873.278214L48.846355,877.323247L47.153592,882.311104L45.439640,885.670132L46.009526,887.863299L50.687919,892.219217L57.273855,898.349262L59.967756,899.136638L63.081730,897.697058L68.015584,892.841008L71.921051,887.596334L75.668361,885.055099L79.999011,885.217305L83.425582,888.907503L87.577143,897.044854L91.360983,904.452267L91.846179,905.199091L93.394635,906.425774L95.332038,906.378464L97.392999,904.570542L98.904206,903.485789L100.728102,900.089599L108.338557,889.819914L114.017717,886.991439L116.020484,886.247992L119.984968,884.700272L126.506514,887.136749L135.968875,891.357495L147.459174,896.477132L151.502775,897.345611L153.894953,896.477132L157.384724,889.512398L161.693819,886.788681L167.851179,883.591860L172.835203,881.946139L175.683530,881.740001L176.788128,879.847590L177.337561,877.012351L176.799767,874.085869L173.638433,868.810763L173.548435,867.259657L175.389463,866.245862L179.353673,865.485516L184.477589,865.999172L190.229669,868.276831L194.900376,871.571661L197.547501,875.478145L200.398648,883.804756L202.577033,891.904942L208.278008,904.780058L208.108471,912.765322L207.917879,922.031328L210.473960,923.761522L213.301770,924.504965L214.608777,925.870196L217.380132,932.983587L220.026550,935.051708L223.207058,935.538324L229.132774,940.096975L232.963079,941.891373L233.496451,943.256602L233.352513,945.135482L231.839652,947.534770L229.503894,949.197376L226.029933,952.296175L223.145425,956.374964L217.201255,966.144458L217.019102,967.969268L218.256725,969.283808L220.686511,969.527116L223.285995,968.854639L228.711118,965.275984L232.971307,966.553351L237.031839,969.273670L238.511985,972.102126L238.875948,975.815953L237.911617,980.601012L237.727541,985.960550L239.039610,995.091366L241.104442,1004.198534L243.221903,1007.520371L256.812482,1015.556314L258.107294,1018.563881L258.770215,1021.946550L257.759060,1026.586318L259.565855,1026.518732L264.251357,1024.977775L268.523475,1021.459933L272.529526,1014.143772L277.914085,1008.250296L283.935487,1008.679466L285.723955,1007.601474L287.845966,1007.395337L290.342690,1011.261240L292.865752,1014.211358L294.674382,1014.292461L295.974005,1019.881804L306.965211,1022.213514L311.668839,1023.747713L315.610662,1027.813001L316.988698,1027.917759Z "/></g></svg>