<?xml version="1.0" encoding="utf-8"?><!DOCTYPE svg  PUBLIC '-//W3C//DTD SVG 1.1//EN'  'http://www.w3.org/Graphics/SVG/1.1/DTD/svg11.dtd'><svg enable_background="new 0 0 1000 1031" height="1031px" pretty_print="False" style="stroke-linejoin: round; stroke:#000; fill: none;" version="1.1" viewBox="0 0 1000 1031" width="1000px" xmlns="http://www.w3.org/2000/svg" xmlns:xlink="http://www.w3.org/1999/xlink"><defs><style type="text/css"><![CDATA[path { fill-rule: evenodd; }]]></style></defs><metadata><views><view h="1031.03587441" padding="0" w="1000"><proj flip="auto" id="robinson" lon0="-0.751888681328"/><bbox h="249.1" w="241.83" x="-179.9" y="-419.13"/></view></views></metadata><g class="" fill="black" id="country"><path d="M314.882433,1029.035874L316.390273,1028.978600L317.815804,1028.409433L319.086520,1027.348062L319.840011,1025.887558L319.713915,1024.119204L319.135709,1023.354946L318.339387,1022.778620L317.697537,1022.153969L317.567096,1021.228626L319.056388,1015.719526L319.784760,1014.847879L321.157995,1014.608042L324.607359,1015.098455L325.782023,1014.919472L329.375849,1013.047310L330.704512,1012.896964L332.033063,1013.376639L334.319139,1014.905154L335.671387,1015.069818L337.071127,1014.559716L337.591410,1013.729235L337.632467,1013.395522L337.906540,1011.167989L338.173455,1010.657888L338.575788,1010.124519L338.890409,1009.514187L338.903680,1008.764249L338.528705,1008.255937L337.882142,1007.942717L337.213128,1007.713619L336.761405,1007.448724L335.994364,1006.097404L335.893519,1004.912537L336.499720,1002.684201L336.818144,999.532315L336.651158,998.975678L336.433437,998.496005L336.323258,997.907151L336.458925,996.631005L336.755146,995.335170L336.893868,995.277895L337.758096,993.649153L337.680633,993.423635L339.026518,992.926063L339.822550,993.502387L341.049586,995.895386L341.960202,996.835045L343.204252,997.789023L345.663157,999.274580L346.645955,999.654023L349.955083,1000.393222L351.231966,1000.482713L352.724741,1000.182022L353.867973,999.313956L354.093140,997.695952L353.643369,997.046245L352.890361,996.641744L352.185048,996.138802L351.875258,995.186614L352.002262,992.469657L352.433328,991.211409L353.483777,990.636875L354.808533,990.558122L356.056257,990.783640L357.628845,990.840915L358.817924,990.214476L359.957915,989.335671L361.395832,988.635849L362.859666,988.413910L363.474246,988.811252L363.554426,989.772388L363.235185,992.630742L363.405484,993.183798L364.551420,993.652733L365.210100,994.051864L365.761225,994.574493L365.963031,995.123970L365.634998,995.945501L365.022693,996.353581L364.357223,996.695438L363.869716,997.314719L364.217386,998.275856L364.386353,999.111705L364.300580,999.929656L363.898231,1000.504191L362.779539,1001.522603L362.490510,1002.082819L362.463416,1003.126289L362.783500,1003.298112L363.293939,1003.144187L363.841022,1003.219360L364.153918,1003.577326L364.475643,1004.062369L364.822898,1004.474029L365.234392,1004.613636L365.933456,1004.491928L366.424383,1004.470450L366.778740,1004.715656L367.049216,1005.395791L366.943428,1005.805662L366.286165,1007.053172L366.151160,1007.650975L366.358795,1008.316791L367.346842,1009.628736L366.417860,1011.776531L366.223025,1013.050890L367.122199,1013.879581L365.628165,1015.741004L365.658500,1015.980842L365.804472,1016.388923L365.887284,1016.845330L365.753415,1017.206875L365.252086,1017.416286L364.840689,1017.239092L364.552536,1016.952720L364.405162,1016.841750L363.648645,1017.777831L363.483711,1018.717493L363.672999,1021.285900L364.599215,1021.071121L365.254597,1021.568694L366.445949,1023.208180L367.261494,1023.786295L371.854073,1025.626243L377.298802,1025.585077L378.450066,1024.316086L379.179845,1022.993400L379.608204,1021.514999L379.833160,1019.782442L380.550350,1019.152422L383.383850,1020.267486L384.097731,1019.667893L383.856688,1015.873452L384.114101,1014.611621L384.821029,1013.451812L385.752725,1012.687554L390.134917,1010.095881L397.981387,1008.153917L401.378033,1007.778053L403.069758,1007.293009L403.658230,1007.271531L404.427803,1007.574012L405.763968,1008.560208L407.412876,1009.263611L407.750664,1008.259517L408.259660,1004.729975L408.494920,1004.159020L409.937131,1001.655050L410.776933,998.018121L410.600434,997.357674L410.146303,996.881580L410.220071,995.820213L410.646401,994.708730L411.253081,994.087660L410.320488,993.684949L410.247503,993.101466L409.950412,991.964926L409.921657,991.340276L410.519727,987.624597L410.835599,986.599027L411.249886,986.088926L411.751211,985.816873L412.148970,985.489334L412.240012,984.805621L412.223674,984.222138L413.087185,980.225457L412.867565,979.378869L412.147408,977.918371L411.039673,973.076894L410.224207,971.161780L408.841929,971.530485L409.227384,969.729920L408.634995,966.142991L408.532459,965.522041L408.726069,964.432038L409.609522,963.778751L415.676225,962.907106L416.718637,962.556301L417.739660,962.062309L419.190630,961.045688L419.814359,960.077393L420.201001,957.253048L420.783473,955.654734L422.707884,953.485465L423.468855,952.039286L423.590119,950.920645L423.200904,943.696908L423.473743,942.438660L424.408294,941.538377L425.734952,940.824236L426.231183,940.221065L426.181732,939.324362L425.858728,937.740365L425.881308,932.007548L425.329699,929.568013L423.176119,927.620680L422.491460,927.506131L421.868728,927.595622L421.322464,927.459595L420.860876,926.682810L420.851939,925.895285L421.191707,925.143557L421.650769,924.420466L421.990297,923.718853L422.524513,921.012632L422.660411,919.491277L422.606348,918.274192L422.150800,916.896023L421.435606,915.943833L420.477189,915.263698L419.295190,914.687372L418.664571,914.472593L418.139985,914.429637L417.082984,914.669474L416.848678,914.379522L415.279260,913.344999L414.940585,913.198233L414.567243,912.417867L414.559467,912.074219L414.949753,911.941772L415.779963,911.809324L416.046547,911.916714L416.791587,912.510938L417.139706,912.654125L417.463898,912.543155L417.922127,911.999046L418.120792,911.852280L420.237440,911.458517L420.492593,911.326070L420.723147,911.079073L421.000699,910.860714L421.387301,910.839236L421.794770,911.057595L422.123382,911.340389L422.458734,911.526531L422.905262,911.458517L423.328158,911.068334L424.553090,909.171113L426.919752,907.019734L428.544249,904.982905L429.465817,904.098727L431.343026,903.443648L433.358544,902.083375L434.249763,901.632337L435.195855,901.546425L437.594269,901.632337L438.705547,901.492730L439.394989,901.535686L440.032020,901.356703L440.624344,900.987997L441.178129,900.454626L442.500424,899.842503L443.817792,899.978530L445.116948,900.325758L446.376745,900.340077L448.978033,899.291234L450.255044,899.316292L451.431398,900.454626L452.483987,900.071602L454.202404,899.738693L455.079906,899.151627L455.563601,898.450012L455.974607,897.615102L456.412968,896.724611L457.054925,896.108908L457.699687,895.937083L458.933616,896.105328L459.549567,896.058792L460.760266,895.407292L460.820545,895.234701L461.070324,894.519534L461.197557,893.406256L461.844143,892.053140L464.026966,890.667806L465.855617,890.574735L466.452395,889.840901L464.942798,886.533281L470.319027,881.582587L470.555788,881.296212L470.636042,880.880970L470.532510,880.100599L470.750616,879.015956L470.740388,878.457525L470.896277,877.981428L471.565596,877.523228L472.459382,877.462374L473.053843,878.010065L473.528123,878.761798L474.072415,879.295171L475.878434,878.897826L475.330028,875.930269L473.149908,870.041686L473.640533,868.369972L474.682682,866.970313L475.843568,865.703102L476.709311,864.421572L477.112072,863.469374L477.091183,863.208056L476.764054,862.968217L476.235591,862.069714L474.968190,858.826509L473.965050,857.713223L471.334359,855.429375L470.805575,854.283870L471.190049,850.689848L471.405921,850.500124L471.816684,850.614675L472.459367,850.511582L472.463848,850.510863L474.231507,849.737647L476.252516,849.173843L478.268673,849.005597L480.053132,849.435162L481.781189,850.596776L482.612011,850.865254L483.884196,850.689848L485.019305,850.256704L485.760947,849.702099L485.852232,849.633835L486.453815,848.772916L487.738954,844.282171L487.827136,843.449888L487.064799,840.310480L487.283604,836.379950L486.805137,834.461220L485.686669,832.868244L483.928418,831.185774L483.155193,829.991935L481.552956,826.016647L479.801942,824.201723L479.457920,823.577060L479.461634,822.728663L479.778102,822.118318L480.163404,821.552720L480.935982,819.249159L481.961016,818.764104L485.847788,818.977099L486.539026,818.760525L486.968382,818.148389L486.834477,817.545203L485.551486,816.741551L485.135418,816.091828L485.419148,815.055493L486.318646,813.829430L487.423125,812.717919L488.346985,812.014499L488.934187,811.896367L489.503074,812.025238L490.084926,812.057456L490.745488,811.656524L491.900075,810.170928L492.849948,808.492025L493.889317,805.672969L494.525194,804.414685L495.544488,803.355077L496.046039,803.068696L497.672966,802.592588L498.223505,802.214923L499.156961,801.031812L499.896905,800.738272L500.545735,800.478739L501.467573,799.812903L502.278580,799.016406L502.602762,798.370258L502.127544,797.994383L501.353034,797.935317L501.006102,797.638196L501.829233,796.562476L502.026110,796.360219L502.239672,796.293994L502.460518,796.362009L502.688687,796.555317L502.981298,797.035849L503.040731,797.133449L503.350286,798.509869L503.544539,798.944811L504.064249,799.184655L505.524707,799.492514L505.853307,799.678662L505.812637,800.423253L505.389609,800.700684L504.819877,800.799128L504.345384,801.003174L503.108839,802.304417L502.585171,802.639125L501.827360,803.460680L502.579036,804.133674L503.985874,804.543556L505.174641,804.582934L506.386005,804.464802L507.373313,804.676007L509.465146,805.604954L511.949892,806.354913L513.069365,806.877557L517.558857,810.917306L520.326792,812.793094L525.279137,817.112054L525.708490,817.251664L526.510648,817.119214L526.913205,817.294621L527.883337,818.438348L528.420028,818.837489L528.818255,818.912664L530.177030,818.878656L532.737247,819.314966L533.485401,819.442465L534.221951,819.231260L534.832983,818.119751L534.769868,816.874002L534.069184,814.471994L534.301971,812.513873L535.640566,811.928585L545.607196,811.257382L546.445344,810.643455L544.359729,793.365742L545.265511,790.809783L545.591018,789.177405L545.858324,785.321981L545.465820,783.657381L544.215198,782.588814L545.427131,781.253553L547.041443,781.881806L549.739846,784.172870L551.431020,784.366178L552.761702,784.051157L554.031885,784.008200L555.549485,785.015909L556.627657,786.159650L556.923453,786.812960L557.089505,787.827828L557.511002,788.892812L558.209710,788.610010L559.269187,787.312340L559.977650,786.913194L560.454810,786.762843L561.931335,786.938253L562.438739,787.140510L562.867401,787.451951L563.291667,787.666738L563.735683,787.584403L565.834273,786.693034L567.974924,785.783773L566.287692,779.245290L566.015550,775.533042L566.988005,772.878620L568.068030,770.895408L570.467633,761.917237L570.367669,761.806263L570.272593,761.636221L570.094243,761.532406L569.746039,761.614742L571.358563,758.673917L580.331841,753.118020L581.362154,751.834153L584.801688,747.547789L586.162397,746.251884L591.097570,743.096246L594.402873,742.192333L599.012449,743.314617L613.167728,750.835874L615.109635,751.346001L616.050244,751.179538L617.223878,750.591444L620.204444,749.097861L620.728889,748.619952L620.965572,747.891454L622.119620,730.878168L622.606255,729.045271L624.428426,728.141351L627.332781,727.994576L632.312882,728.429532L636.573909,728.180730L640.804825,727.283969L661.842417,712.123101L664.421942,710.759154L676.003924,707.587345L678.316361,706.484728L680.453824,704.991899L680.464650,704.981259L693.003925,692.655419L693.013324,692.648260L696.253739,689.025603L696.953551,688.455162L698.067552,687.547076L700.077705,686.942060L713.366111,686.854736L715.331346,686.841821L715.891485,687.149699L717.285387,691.327521L717.882868,692.197452L719.582742,692.229671L721.776162,691.148523L725.550882,688.585267L729.335662,687.831683L733.558188,688.936104L741.649990,692.658999L741.662512,692.658999L756.909963,698.544435L756.564688,695.098737L756.589299,693.387520L757.077484,692.658999L765.070801,694.910790L767.121427,694.923320L769.045024,694.463296L772.965326,692.923916L774.862405,692.823677L784.269673,696.552196L785.102407,696.473437L786.773876,696.016994L788.501406,695.263415L790.272723,694.520575L799.539203,694.180480L801.185499,693.793845L802.662223,692.982985L807.733393,687.727864L811.697026,683.627003L816.541229,678.606076L820.634581,674.372735L822.266405,673.275466L824.305863,672.729516L828.767989,672.554096L834.613154,672.332136L840.464517,672.106596L846.309587,671.890007L852.154586,671.664467L858.005798,671.442506L863.850699,671.220546L869.708069,671.000376L875.552855,670.774836L881.403866,670.556456L887.248546,670.330916L893.099446,670.110746L898.944036,669.890576L904.801079,669.666826L910.645545,669.441285L916.496247,669.224695L922.340607,668.999155L925.337859,668.884595L925.672416,667.969903L925.669178,665.408408L925.783343,664.135714L925.930944,663.442982L926.367630,663.084981L927.336592,662.834380L929.726723,662.782469L936.953152,664.146454L948.350959,666.306990L954.588844,667.486602L954.921041,667.608323L956.029777,667.855343L956.564530,659.873707L957.163324,658.019258L962.446644,654.432077L967.149565,648.632434L969.363973,647.286343L974.169483,646.267825L976.446024,644.902043L977.956002,642.857844L978.113341,642.436797L978.869669,640.412681L979.338047,637.741974L979.848428,630.975701L980.229723,629.697627L981.140951,628.115249L984.641290,624.209424L984.696531,624.008942L984.732996,623.804880L984.718319,623.382435L984.724055,623.282194L984.711054,623.185532L984.679314,623.092451L984.635106,623.006530L983.874350,620.962327L983.626937,619.047004L983.873405,617.135262L989.202819,602.432037L990.106780,600.856821L991.255499,599.489247L992.667429,598.275615L995.289947,596.775580L996.141167,595.898472L996.619566,594.276717L996.545750,586.622615L996.487382,580.654718L996.391513,571.386064L996.348038,567.011300L996.500661,566.395540L997.279577,565.010081L997.543977,564.290502L997.174179,557.484941L997.241920,556.231947L997.590784,555.014754L998.070185,554.789216L998.712988,554.753416L999.514580,554.109020L999.453643,546.838102L999.409444,542.466975L999.340607,533.903755L999.265245,525.337009L999.183415,516.773902L999.107561,508.207279L999.037712,499.640725L998.961407,491.074246L998.918459,486.263076L998.884893,482.507848L998.814413,473.941535L998.737525,465.377102L998.660482,456.816346L998.583220,448.246742L998.507272,439.841960L998.505847,439.684404L998.428320,431.120388L998.350649,422.554700L998.272868,413.990926L998.194964,405.425489L987.912567,407.628580L977.629058,409.831679L971.843744,411.068727L967.350632,412.029418L957.071137,414.234325L950.768620,415.580181L950.762398,415.580181L945.890439,416.881297L944.347677,416.970783L943.463349,416.822237L942.858428,416.546622L941.441242,415.573022L937.876413,411.741278L935.089167,410.429435L933.810041,409.629445L932.610904,408.625432L931.529306,407.463929L930.514327,405.890804L930.421555,404.641613L930.963362,403.410322L931.845909,401.885529L932.300000,400.534338L932.601891,399.906169L933.407843,399.333480L934.707105,397.848071L934.969031,396.665116L935.255007,393.978868L935.796344,392.711809L936.910824,391.668456L938.182054,390.907866L939.278246,389.964736L939.861408,388.380925L939.698626,386.852596L939.046633,385.739461L938.276930,384.708650L937.742392,383.438034L937.751699,382.779463L938.074681,381.405057L938.109862,380.959449L937.852101,380.358148L937.539967,380.087921L937.215665,379.873171L936.896635,379.457987L936.113785,376.922156L936.032789,374.246752L937.079155,360.279421L936.832309,359.330982L935.989263,358.446967L935.048647,357.947696L932.870594,357.240845L931.874098,356.736207L928.380840,353.711970L920.754034,350.057861L904.257570,346.278521L900.958512,346.129996L895.469130,344.967507L894.816709,344.913824L893.647860,344.625724L891.475310,343.331961L890.305742,342.825551L888.851010,342.465875L887.930449,342.100831L887.225926,341.349271L884.774275,336.485632L882.857597,333.540273L880.631832,330.924179L876.932890,327.728338L875.887561,327.048374L874.781347,326.729865L873.515535,326.976799L872.127866,327.960957L869.689375,330.491147L868.114507,331.248059L867.219958,331.124591L863.434087,329.676976L862.830570,329.263628L862.363557,328.812703L861.853399,328.467352L861.139051,328.363568L860.295371,328.626607L859.280034,329.664450L858.629048,330.013380L857.306323,329.965067L856.850653,329.109741L856.635888,327.799913L856.048306,326.380937L855.108628,325.598980L854.139871,325.523826L853.059999,325.684870L851.755938,325.595401L850.487652,324.944070L843.325693,318.488052L842.727293,317.478858L842.764227,312.289760L842.391998,309.820477L841.170792,307.841477L837.321875,304.638584L834.954544,303.289436L832.738410,302.899364L831.675675,302.144271L830.576599,301.782829L828.155729,301.346236L825.560281,300.469471L824.534899,299.678594L823.607813,298.375973L822.343592,295.967561L821.510799,295.223209L820.107913,294.811668L818.842365,294.840297L816.454866,295.402140L815.183079,295.423611L813.817843,295.223209L812.979668,294.854611L812.537686,293.977851L812.373449,292.260118L812.414545,290.900247L813.737353,284.659167L814.480639,277.090446L814.347715,275.565967L813.223790,271.121361L812.452541,269.722133L805.413452,264.415084L800.206717,260.489367L795.007205,256.567222L789.808713,252.645068L784.605052,248.726484L779.408605,244.800730L774.213188,240.874963L769.015706,236.949180L763.820809,233.026958L758.625402,229.104716L753.438778,225.186032L748.242358,221.263746L743.897361,217.978540L743.050084,217.337855L737.860409,213.411938L732.668695,209.489570L727.479587,205.567170L722.293090,201.644738L717.107661,197.722271L711.921759,193.796189L706.740028,189.870067L701.553187,185.947484L696.370526,182.024858L691.192043,178.105766L686.011567,174.183049L680.835290,170.256705L675.653935,166.330310L670.479869,162.407442L665.306926,158.480941L660.132000,154.561543L654.955114,150.640296L649.788651,146.711831L644.617144,142.785094L639.449858,138.863662L634.277551,134.940375L629.112581,131.017020L623.945675,127.097176L618.783060,123.168310L613.615443,119.241162L608.458269,115.315727L603.296106,111.392005L598.135136,107.469995L592.972294,103.546113L587.816857,99.618568L582.662634,95.692728L577.506548,91.768592L572.351700,87.844366L567.199632,83.921841L562.047304,79.993852L556.900866,76.065768L552.156325,72.456286L547.425222,68.843140L542.692114,65.231699L537.956997,61.623754L533.222994,58.013931L528.490101,54.404018L523.766053,50.790434L519.036942,47.180339L514.312069,43.566569L509.583713,39.952704L504.854939,36.342323L500.133480,32.731845L495.410101,29.121267L490.692511,25.510589L485.969968,21.896225L481.250122,18.285340L474.674983,13.246760L470.156982,9.940135L465.640007,6.637000L461.128760,3.328400L456.615490,0.021497L456.607831,0.017914L456.597160,0.007166L456.592610,0.000000L443.406718,0.010749L430.225468,0.017914L417.038058,0.025080L403.856796,0.032245L390.672411,0.042994L377.488058,0.050160L364.300623,0.057325L351.116259,0.064491L351.625971,5.590869L352.130318,11.106241L352.635242,16.626733L353.146918,22.150559L353.656251,27.665187L354.163059,33.184951L354.673557,38.704483L355.184636,44.225579L355.686161,49.846341L355.721371,50.240688L356.103041,54.531155L356.940944,63.960423L357.786635,73.389101L358.167092,77.673537L358.915828,86.036185L359.665763,94.398417L360.419953,102.760253L361.172219,111.119920L361.928646,119.482807L362.680020,127.841773L362.845393,129.664489L363.438646,136.198626L364.195174,144.558756L364.955811,152.916810L365.714350,161.272807L366.470723,169.630347L367.234164,177.991235L367.995441,186.348333L368.760677,194.705239L369.523624,203.065550L370.287418,211.422127L371.051965,219.782146L371.820438,228.134889L372.586516,236.491111L373.353270,244.850831L374.120743,253.206910L374.891975,261.562945L375.660744,269.918955L376.430124,278.274959L376.802147,282.336660L377.626163,291.258107L378.447703,300.179602L378.820489,304.234197L379.513201,311.706435L380.301229,320.359718L381.083512,329.016693L381.872505,337.670222L382.658791,346.326836L383.448672,354.978926L384.232744,363.634763L385.017250,372.292553L385.808453,380.948712L385.808422,380.952291L385.808390,380.955870L385.808359,380.959449L386.632876,390.485515L386.986304,394.530076L387.333667,398.569299L387.684231,402.610342L388.034920,406.649626L388.592210,413.076390L389.149816,419.499647L389.710826,425.922974L390.265908,432.346369L390.821262,438.773409L391.380068,445.196933L391.945416,451.620519L392.501712,458.047743L393.061523,464.466074L393.624690,470.895199L394.185138,477.317217L394.745929,483.739285L395.286659,489.989570L395.837102,496.236319L396.384738,502.486689L396.926452,508.740677L397.477927,514.987543L398.023490,521.238023L398.569438,527.484956L399.121959,533.735499L399.671728,539.986070L400.218748,546.236669L400.766172,552.483711L401.320192,558.734356L401.868326,564.988601L402.416905,571.235704L402.972069,577.489983L403.524536,583.740696L403.765935,586.533114L404.288669,587.639342L404.805190,588.745571L407.171958,590.574965L409.383709,592.271900L412.049217,594.319677L414.419756,596.149074L416.883779,598.042912L419.292066,599.897371L419.580193,600.244634L419.868275,600.599058L419.927635,601.042982L419.983871,601.486907L419.628819,603.538269L418.476462,610.089741L417.327166,616.644796L416.171589,623.199853L415.025369,629.754908L413.840422,636.481801L412.658623,643.205107L411.473668,649.933775L410.294986,656.662430L410.233224,657.000742L410.188797,657.260991L410.174554,657.344424L410.115920,657.682736L410.051018,658.022838L410.050907,658.038948L410.050797,658.055058L410.050723,658.065798L410.050625,658.080118L410.050502,658.098018L410.050428,658.108758L410.050355,658.119498L410.050256,658.133819L410.050207,658.140979L410.040748,658.151719L410.031338,658.155299L410.028161,658.162459L410.024959,658.173199L410.015549,658.176779L410.009219,658.187519L410.002913,658.194679L409.990399,658.194679L409.974757,658.194679L409.968500,658.194679L409.952858,658.194679L409.940344,658.194679L409.927831,658.194679L409.918446,658.194679L409.902804,658.194679L409.880954,658.187519L409.862233,658.180359L409.843511,658.173199L409.824790,658.166039L409.806057,658.160669L409.787348,658.151719L409.768626,658.144559L409.746777,658.137399L400.230205,658.133819L392.108901,658.130238L388.298509,658.130238L384.184662,658.130238L379.789272,658.128448L375.127995,658.123078L367.028594,658.119498L361.063195,658.117034L358.362954,658.115918L349.206156,658.112338L339.645796,658.108758L329.763227,658.103388L319.633517,658.098018L309.341085,658.098018L298.967380,658.090858L288.593644,658.087278L278.304377,658.083698L268.174659,658.080118L258.288958,658.076538L248.725501,658.071168L239.571867,658.065798L230.903079,658.065798L222.806865,658.058638L217.638793,658.055058L212.799164,658.055058L208.309916,658.055058L204.208589,658.055058L198.635583,658.048923L197.704733,658.047898L190.271490,658.045103L188.185066,658.044318L177.689341,658.040738L178.141725,651.716628L179.023029,646.983831L178.861742,644.744521L177.415865,644.032095L176.227002,644.859082L172.471735,649.779834L171.561586,651.619967L171.528312,653.637312L172.443275,658.019258L172.443233,658.022838L173.124091,661.858826L158.087468,662.542609L155.130557,663.217441L153.919047,663.793823L150.462829,666.031329L148.139704,666.668571L141.136326,665.968679L134.085261,667.108912L131.623739,667.030152L130.218410,666.562961L128.035254,665.000287L126.807681,664.339775L126.341986,664.300395L125.225241,664.529515L124.696517,664.525935L119.547668,662.227567L118.707730,662.096897L115.791753,662.345708L114.122551,661.985916L107.948091,661.871356L107.032170,662.052147L105.856246,661.778276L104.852787,661.953696L102.831247,662.718169L102.670678,662.778889L101.472951,662.974000L98.945353,662.943570L95.302415,662.320648L94.322403,662.376138L93.646377,663.099301L93.400446,664.418535L93.437495,667.287912L92.939476,668.744974L92.466376,669.264075L91.478740,669.885206L90.794194,671.011116L90.285814,671.120306L89.675614,671.120306L89.015056,671.378066L88.021418,672.446696L87.571460,673.576186L86.952449,676.128722L86.254716,677.299380L84.601428,679.017774L84.064010,680.132940L83.082328,684.079870L82.525427,685.248733L80.579684,681.847753L78.362061,679.388303L76.742295,675.779673L74.793063,673.658526L59.658516,661.130293L58.546045,659.701866L53.065553,650.658730L51.557091,649.190919L50.149734,648.528614L46.701932,647.733847L46.156746,647.800078L45.977556,647.862728L46.076537,648.154501L46.232937,648.369302L46.436852,648.542934L46.687712,648.714775L46.820332,649.060248L46.862144,649.412881L46.810071,649.769094L46.667472,650.112776L46.119658,650.791191L45.407356,651.163514L43.788749,651.695148L42.772209,652.337763L40.576816,654.886740L38.791419,655.907046L37.176092,655.771005L35.567287,655.189252L35.314277,655.146295L33.785512,654.886740L33.750847,657.254924L33.595877,658.012098L32.029375,659.880867L31.221236,662.089737L30.191890,667.030152L28.097204,671.864946L27.830814,672.972956L27.435855,676.266552L26.240154,679.971841L26.065955,681.421735L26.109810,682.073291L26.283799,683.036306L26.217256,683.748722L25.473053,686.541103L25.299239,688.631806L25.187810,688.982643L25.778755,689.471309L26.178654,689.306630L26.502557,688.982643L26.887591,688.982643L27.585957,689.623458L28.022597,690.400310L28.171425,691.386590L28.025245,692.648260L28.025093,692.658999L27.562105,693.743725L27.228516,694.977019L26.883424,697.474032L26.927583,697.896465L27.088897,698.225820L27.499530,698.861260L27.496415,699.306963L27.148696,699.543239L26.721073,699.672117L26.478429,699.783095L26.267314,700.101709L25.952222,700.466863L25.629435,700.934045L25.385698,701.569484L24.893795,702.485947L23.979826,703.355871L22.865315,704.010998L20.417824,704.596317L19.538698,705.432230L18.073654,707.628514L17.000581,708.446526L15.808564,708.813468L14.596723,708.808098L13.473653,708.503805L13.020686,708.868957L12.685933,709.955462L12.185810,710.777053L11.521137,710.386842L8.998558,707.850469L8.085666,707.304531L6.788895,707.547966L4.165669,708.575403L2.858662,708.765139L1.528158,708.518125L0.485420,707.968607L0.918351,709.987681L2.106863,711.188743L2.464231,712.151740L2.918184,712.932161L3.830782,713.395760L4.811082,713.614134L5.483823,713.657093L5.136919,714.489422L4.860552,714.985240L4.738030,715.454207L4.871392,716.211357L5.291758,716.606937L5.906496,716.768033L6.361003,717.186881L6.288344,718.343190L5.941535,718.949983L4.742739,720.226216L4.284654,720.949355L4.149424,721.656385L4.078070,722.499449L3.901429,723.256597L3.453653,723.691553L2.296191,724.473759L1.912938,725.667652L2.028953,727.113925L2.699463,730.137134L2.834949,731.545815L2.680511,734.549328L3.459843,734.721161L9.080049,737.051654L9.487507,737.959150L9.212559,738.820107L8.311411,739.187042L8.796658,740.137495L9.367759,740.998451L10.097779,741.696523L12.475558,742.664874L13.319317,743.300298L13.901037,744.315186L16.060613,750.141385L16.171843,751.675346L15.689519,754.485517L14.255859,759.799772L14.211789,762.674369L14.796385,764.471437L15.769620,765.561491L16.888752,766.526251L17.929937,767.945646L18.282996,769.248697L18.255384,770.657351L17.858625,773.465707L16.853166,776.558654L14.791419,778.889101L9.572738,782.128812L10.396675,782.921735L11.197632,784.287423L12.411366,786.981210L13.138542,789.481686L14.454372,791.824649L15.550088,793.229710L19.020941,796.084577L19.397651,796.562476L19.924306,797.595239L20.263805,798.040920L20.893063,798.391737L21.453554,798.470492L21.939999,798.703176L22.350389,799.506833L22.203451,800.738272L21.288849,804.450483L21.423794,805.212971L21.955139,805.372270L23.550485,806.258259L24.016377,806.641293L24.242262,807.154988L24.602450,808.492025L24.872676,808.973502L25.586168,809.639335L25.924518,809.678713L26.261796,809.288520L28.835223,807.140669L29.008302,805.801841L29.386288,804.382467L30.012002,803.229785L30.947273,802.674922L31.814504,802.814533L32.240762,803.362236L32.580754,804.040600L33.182863,804.575774L33.759080,804.658108L34.948236,804.378887L36.476710,804.316242L36.749130,804.618731L36.655724,805.604954L36.807472,806.292267L37.477805,806.376391L38.242735,806.158026L38.684647,805.930712L38.672913,807.437788L39.092958,808.781985L40.561879,811.103453L41.919976,812.463757L42.172511,813.131380L42.069447,813.890286L41.279790,815.137827L41.041945,815.885993L41.209357,817.126373L41.783001,817.976562L42.495990,818.719358L43.050091,819.635771L43.050130,822.057463L43.341479,823.179709L44.411417,823.460718L45.245864,824.026316L45.957430,824.636661L46.717139,825.155722L47.702367,825.440310L48.339295,825.723109L48.264669,826.209952L47.922828,826.737963L47.795861,827.137103L48.618340,828.484870L48.950744,829.331476L49.181157,829.766413L49.420239,829.991935L49.944282,830.272944L49.846811,830.564691L49.504546,830.856439L49.300512,831.135658L49.287457,831.731682L49.124599,833.083027L48.950439,833.772124L49.896008,833.972588L50.602728,833.646834L51.054193,832.857505L51.215348,831.652928L51.716963,832.254321L51.988250,832.964896L52.117387,833.757805L52.225767,835.558405L52.017080,835.973652L51.624924,836.236762L51.092226,836.716444L50.825356,836.723603L50.445099,836.487342L50.016918,836.326255L49.615640,836.562516L49.566912,836.986713L49.857713,837.362583L50.205259,837.716975L50.332956,838.083896L50.070804,838.787310L49.723764,839.503254L49.489703,840.220987L49.668543,841.346807L49.571025,841.645713L49.385716,841.935670L49.230755,842.318699L49.251076,842.746475L49.487837,842.907562L49.773006,842.950518L49.923038,843.007794L50.000813,843.070439L50.220124,843.389033L50.478248,843.886613L50.666384,844.468316L50.787212,845.175309L50.834516,846.002222L50.694296,846.755751L50.264915,847.258700L50.261457,847.570134L50.887658,848.851669L50.993404,849.508546L50.487488,850.403472L49.644272,850.571718L48.840555,850.858095L48.176805,852.680164L47.698663,853.048873L47.319320,853.567930L47.364560,854.588145L47.595033,854.756391L48.054423,854.949695L48.524364,855.325563L48.814793,856.037924L48.819445,856.757443L48.481478,858.944639L48.526781,859.682057L48.662867,860.158156L48.732747,860.659314L48.573354,861.454006L47.303943,862.109090L46.862715,862.545813L47.534960,862.807131L47.971126,863.122144L48.659538,864.496746L49.144106,864.983584L49.115122,864.471688L49.465399,863.734271L49.938621,863.530229L50.300287,864.636354L50.425850,865.219844L50.796675,866.354606L50.902995,866.977472L51.392640,866.125506L51.528780,865.731740L52.285185,866.930936L52.145305,868.548956L51.714279,870.378177L51.581508,872.218136L51.554555,873.564098L50.400107,873.739503L48.937387,873.667909L47.985827,874.251398L47.711648,875.804981L48.081223,878.547018L48.083069,880.143555L46.920111,882.882010L45.171207,884.893789L44.169666,886.923466L45.245813,889.722772L46.377172,890.871848L50.080373,892.722538L51.153978,893.703369L53.572496,897.397589L54.574000,898.381998L55.752438,899.273336L56.989334,899.982110L58.181541,900.454626L59.365928,900.461786L61.332488,899.552550L62.325901,899.491695L63.290248,899.198163L64.202502,898.152899L64.866240,896.828421L65.266670,894.827386L65.674290,894.594707L66.189827,894.562490L66.676272,894.301174L67.555761,892.765494L67.839466,892.389395L67.893295,892.318035L69.872718,890.735820L70.582314,889.840901L71.401000,886.866191L71.863573,886.168154L72.688478,885.978432L74.104541,886.035706L76.756149,885.054875L77.966078,884.994020L79.447258,885.445060L80.525149,886.332820L82.923147,890.606952L84.325028,891.788244L85.743754,892.543555L86.827055,893.549443L87.197629,895.478886L87.028223,896.094589L86.419307,897.318836L86.328975,897.880844L86.604543,898.614677L88.213986,900.458206L90.635515,905.745374L92.378617,907.789362L94.896564,907.674813L95.806067,907.195138L96.415557,906.543639L97.096072,905.362349L97.648684,904.084409L97.884029,903.128638L98.361950,902.434182L99.472817,901.589381L100.736454,900.866288L101.682207,900.529799L101.269516,899.001281L101.949851,898.163638L103.175013,897.515718L104.419078,896.531309L104.436430,896.030155L104.273799,895.296322L104.302162,894.630504L104.873587,894.336971L105.089710,894.075655L104.603561,892.683162L104.672782,892.017343L105.779638,891.577043L108.682958,891.834780L109.283107,890.832471L109.715766,890.263303L111.823381,888.308801L112.630029,887.718154L113.025446,888.086861L113.425340,888.315960L114.323572,888.663188L114.289061,887.668039L114.637182,887.395983L115.190473,887.349448L115.768576,887.005799L116.035452,886.357877L116.159420,886.203951L116.586388,886.558339L116.758519,886.955683L116.915510,886.962843L117.290805,886.143097L119.612468,885.108570L120.093551,885.387785L120.384515,885.842404L120.763708,886.268385L122.763542,886.715845L124.885759,887.850602L126.070729,888.108339L127.554019,888.040325L127.990015,888.108339L128.584052,888.409032L129.405933,889.207299L129.883365,889.550948L130.304249,889.696018L130.506496,889.765728L131.517531,889.815844L132.134882,889.976929L132.866028,890.402910L134.096867,891.491131L134.831420,891.892054L135.990109,892.289398L138.096003,893.545863L139.312853,893.771382L140.424845,894.129350L142.500244,896.001518L143.591398,896.588584L144.175611,896.602902L145.421644,896.384542L145.845825,896.377383L146.490380,896.670916L147.469175,897.533616L148.084333,897.956017L149.174152,898.349781L152.557010,898.435693L154.042908,896.663757L154.813638,895.475306L155.110387,894.598287L154.994220,893.166418L155.089482,891.985126L155.532466,890.914804L156.462573,889.819423L158.410074,888.409032L165.274061,885.853143L166.484660,884.632473L167.480864,883.859263L169.967428,882.549100L171.024195,882.388015L174.746233,883.111110L176.179860,881.503834L176.485996,880.608914L176.311836,878.962261L177.114942,878.708103L177.667832,877.609141L177.946209,876.295397L177.913045,875.414795L177.573682,875.074725L176.552068,874.820567L176.097712,874.523454L175.812977,873.864792L175.786968,873.249086L175.628185,872.733611L173.963264,871.716980L172.874460,870.546422L172.005663,869.361545L171.688508,868.652767L172.575651,867.414194L175.455926,866.626662L176.477363,865.817652L176.895762,865.731740L177.246888,865.796174L178.052371,866.325968L178.906485,866.683937L179.377018,866.383243L179.833044,865.946521L180.627974,865.892826L185.259484,866.998950L187.813649,867.951148L195.042759,872.158844L197.094434,873.352897L198.173228,874.655902L198.838564,876.209485L198.926276,877.738009L198.363786,879.277273L197.554513,880.655450L196.895307,882.115959L196.779684,883.930856L196.973398,884.621734L197.556347,885.724275L197.754801,886.415152L198.194338,887.202681L198.932750,887.174043L200.134017,886.629933L201.040127,887.217000L201.828043,888.430510L202.292993,889.962610L202.223812,891.512609L201.290631,894.236740L201.014505,895.743781L201.258359,897.053941L202.368405,898.092045L203.709244,898.174377L205.102480,897.991814L206.363403,898.245971L207.460710,899.319871L207.715266,900.494003L207.645183,901.800581L207.726082,903.286143L208.020128,904.045032L208.426521,904.703691L208.747923,905.383827L208.791707,906.207150L205.599316,923.890677L206.737700,923.804765L207.758313,924.320236L208.755682,925.000371L209.846246,925.415611L211.104953,925.215150L212.092563,924.706839L212.936607,924.477741L213.761386,925.129239L215.072062,930.119280L215.267003,931.366790L215.762598,932.764645L216.425458,934.078378L217.100120,935.078892L220.407089,936.764909L222.047051,936.890197L223.616279,935.515610L223.949432,936.380096L224.216663,937.857966L224.444953,939.120321L224.921653,940.138733L225.636174,940.444793L227.317619,940.498488L230.983508,941.753156L232.806114,942.735771L234.155223,943.999388L233.055756,944.321557L231.787250,944.982003L231.054615,945.882285L231.540833,946.918595L232.658412,947.151272L233.772798,946.947232L234.393066,947.262241L234.034583,949.055647L233.317567,949.973828L232.201586,950.398016L230.971731,950.473189L229.897480,950.330003L227.550005,949.730411L226.977414,950.224403L226.324976,951.774392L226.370276,952.035707L226.556491,952.377563L226.688737,952.792803L226.578287,953.292164L226.372771,953.453249L225.768655,953.514103L225.551095,953.600014L225.032836,953.966929L223.780247,954.575469L223.341106,954.869001L222.593652,956.068184L222.227061,958.536353L221.703631,959.626357L221.163666,959.944946L219.932456,959.966423L219.432528,960.181202L218.866877,961.013471L218.843153,961.695395L218.992511,962.359420L218.942903,963.145153L218.290003,964.528688L215.460670,967.721736L214.913548,968.596961L214.405401,969.740659L214.164038,970.959530L214.429948,972.047744L215.355761,972.770833L216.314109,972.448665L217.368851,971.834755L218.571206,971.695148L219.595159,971.881290L220.692540,971.911717L221.772250,971.770321L222.752676,971.433834L223.852979,970.590826L224.464160,969.533040L226.065647,965.810203L227.081363,965.813783L228.298452,966.254080L229.534678,966.203964L230.177465,966.021402L230.730243,966.121633L231.859295,966.563719L232.457474,966.465279L233.638650,965.731451L234.368369,965.709973L235.702745,966.479598L236.954682,967.814807L237.884135,969.411331L238.241506,970.973849L238.281423,978.133151L238.137565,979.421825L237.771674,980.048264L237.337193,980.583422L236.037607,984.438707L235.899146,985.866988L237.498721,986.570389L237.761097,987.803580L238.621761,1001.508284L239.286518,1003.323170L241.127635,1006.192265L242.630110,1009.406797L243.739886,1010.054715L245.051796,1010.085143L246.457087,1009.775502L247.397538,1009.329835L247.918927,1008.975448L248.320669,1009.136533L248.924321,1010.221169L249.120450,1011.064179L249.181433,1012.896964L249.506340,1013.782930L250.680564,1014.719011L252.264437,1015.055499L255.573718,1015.230903L256.752217,1015.998740L257.640124,1017.469981L258.258937,1019.216855L258.652204,1020.800856L258.764257,1022.579949L258.424170,1024.190797L257.085645,1027.516306L258.225226,1027.995981L259.506296,1027.970924L260.776896,1027.587899L261.881880,1027.002624L263.027472,1025.934094L263.602705,1025.518853L265.165147,1025.270066L265.762958,1025.026649L266.298751,1024.625727L266.890487,1024.076248L268.359857,1021.985725L268.595839,1021.457724L268.814245,1020.707785L269.213003,1020.326551L269.664909,1020.004381L270.007997,1019.456693L270.130300,1018.459757L270.865455,1017.061899L270.069959,1015.887770L271.298905,1015.597818L272.649461,1014.693954L273.346900,1013.550252L272.619736,1012.533629L273.184863,1012.215039L273.459274,1012.104070L273.462077,1011.629765L274.297331,1010.858349L274.836237,1010.715162L275.559353,1010.815393L276.101720,1010.618512L276.414349,1009.893631L276.658535,1009.036303L277.004919,1008.456398L278.268008,1008.225510L280.445980,1009.732546L281.867317,1009.884682L282.481294,1009.814878L283.574604,1009.832777L284.121821,1009.609048L284.599805,1009.115055L286.059283,1007.024535L286.934315,1006.967261L287.641242,1007.142664L288.224153,1007.545375L288.745941,1008.182554L289.071703,1008.986187L289.117480,1009.782661L289.062962,1010.511122L289.103501,1011.125033L289.341839,1011.815908L290.353516,1013.743554L290.434209,1014.495283L290.279401,1015.159310L290.358792,1015.587079L291.151589,1015.619296L291.712630,1015.456421L293.371765,1014.754808L294.752608,1014.855038L295.111676,1015.916408L294.708793,1018.746130L294.752990,1020.414252L295.261196,1021.268002L296.260285,1021.565114L300.092792,1021.658185L304.915724,1022.494037L310.897560,1024.380520L311.923087,1025.051707L312.910585,1026.370813L313.808725,1027.933337L314.882433,1029.035874Z "/></g></svg>