<?xml version="1.0" encoding="utf-8"?><!DOCTYPE svg  PUBLIC '-//W3C//DTD SVG 1.1//EN'  'http://www.w3.org/Graphics/SVG/1.1/DTD/svg11.dtd'><svg enable_background="new 0 0 1000 391" height="391px" pretty_print="False" style="stroke-linejoin: round; stroke:#000; fill: none;" version="1.1" viewBox="0 0 1000 391" width="1000px" xmlns="http://www.w3.org/2000/svg" xmlns:xlink="http://www.w3.org/1999/xlink"><defs><style type="text/css"><![CDATA[path { fill-rule: evenodd; }]]></style></defs><metadata><views><view h="391.314221196" padding="0" w="1000"><proj flip="auto" id="robinson" lon0="105.408463504"/><bbox h="171.65" w="439.78" x="1135.47" y="-869.61"/></view></views></metadata><g class="" fill="black" id="country"><path d="M649.143414,389.314221L650.226203,388.943807L653.343134,383.489925L653.788150,383.306398L655.388680,383.046414L656.591666,382.260820L657.084038,382.097411L657.418722,381.922540L658.329603,380.972814L659.998639,379.907708L669.365379,374.249860L680.496949,368.840745L691.594814,363.436750L703.733120,361.563595L715.862683,359.690969L727.983501,357.818849L731.603579,357.259544L733.436600,357.415572L736.359543,358.060652L742.933953,357.966455L751.576631,359.319581L752.513632,359.257724L753.393495,358.933219L755.685044,357.508810L756.661690,357.435552L765.016513,358.304237L765.793269,358.216697L767.040353,357.768551L771.660043,357.444114L771.774294,357.370856L771.814259,357.226245L771.851400,356.927519L771.969741,356.868536L772.140513,356.875195L772.335145,356.780063L775.351379,353.774484L781.334876,350.836574L783.467943,350.555196L785.168805,350.574208L785.656428,350.485804L786.006411,350.295690L786.169480,350.055203L786.292705,349.768147L786.507150,349.444032L787.248439,348.857613L793.752958,345.695187L793.986944,345.083343L793.741517,343.168231L794.136431,342.522336L795.915007,340.476601L796.523455,339.223114L796.696131,337.638381L796.493901,335.815537L796.541211,335.071271L798.338779,331.718678L799.809154,326.618676L800.475582,325.596704L803.212272,323.721739L809.186081,321.095398L810.365016,319.724390L811.029014,319.415085L814.126586,319.165555L814.887126,318.731961L815.375817,317.966296L817.379539,312.832412L817.830158,312.608492L820.097591,312.695783L821.227607,312.119852L821.701262,312.032561L822.167290,311.604641L821.986582,310.604565L821.416733,309.389072L820.725247,308.309234L819.639912,307.068989L814.507228,302.711057L813.171742,301.774254L811.807336,300.969345L807.305062,298.943620L805.796993,298.039842L801.251761,294.703353L799.881738,293.533391L798.668522,292.167662L797.730542,290.744779L797.140764,290.076018L796.293125,289.479418L793.858139,288.478042L793.022194,287.723620L792.229850,286.224105L791.931813,285.153964L791.840016,283.992444L791.971722,282.967670L792.348631,282.326887L792.380221,282.252728L792.476939,281.843890L792.436965,280.366200L792.596638,279.481738L792.583909,279.009984L792.396038,278.353665L792.077965,277.733439L791.264910,276.477606L790.972497,275.887670L790.784781,274.968415L790.944856,264.901380L791.148053,264.052957L791.537798,263.342195L792.625348,262.199814L793.086182,261.949946L794.225000,261.660010L794.704344,261.410119L794.896267,261.112524L795.003039,260.790111L795.176359,260.538274L795.580365,260.446694L795.917225,260.441612L796.718631,260.429522L800.017472,261.171662L808.136401,261.047661L809.230181,261.221262L810.365249,261.724865L814.049614,263.906138L816.272978,265.726803L817.327837,266.468247L818.481465,267.020933L823.409508,268.627240L831.074345,270.250264L832.395197,270.255979L835.589234,271.240635L847.175849,272.112796L847.740086,272.276552L848.932138,272.893453L849.479764,273.049573L851.775192,273.255189L852.554462,273.013399L853.235345,272.206099L854.163525,270.446446L856.174250,268.530074L856.904483,267.041896L857.495141,266.776995L859.202729,266.634058L860.362581,266.340550L861.241794,265.850701L861.830741,265.069143L862.120789,263.908044L862.153616,262.951256L862.234249,262.548846L862.456268,262.176926L863.452797,261.364336L866.810101,256.219082L867.244855,254.086004L867.212636,252.458485L867.033951,251.635014L866.325482,249.955260L866.261956,249.609318L866.451772,249.416270L869.750146,248.036101L870.681128,247.875509L871.746334,247.953894L877.774139,249.702972L878.865987,249.850141L884.067277,249.085591L890.398063,249.076034L894.095933,248.406978L898.385457,247.238837L899.065068,246.871719L899.508293,246.328654L900.473310,244.064145L904.212609,239.268802L904.456465,238.679214L904.687647,238.568183L906.338082,238.761530L906.798774,238.759615L907.215696,238.642842L908.305691,237.972797L908.777660,237.436719L909.306539,235.188617L909.235334,233.947484L908.448926,233.070149L907.330092,232.223374L906.255695,231.069937L905.859525,230.058156L905.969564,222.734678L908.401268,218.234323L908.525090,217.698986L908.397235,217.027380L908.319799,215.854849L908.574278,215.589619L908.977049,215.169698L910.024927,214.829986L911.756510,214.615981L912.098852,214.449957L913.175802,213.067931L913.399509,212.436369L913.616543,212.294311L914.133473,212.307749L918.330843,213.048735L928.949901,213.653392L929.863755,213.388498L929.849575,212.563068L928.491637,210.002924L928.249340,208.989093L928.570726,207.684248L928.480598,207.170533L928.080658,206.606865L926.908372,205.433367L928.977156,204.938779L929.662437,205.146220L930.001264,205.214406L930.221439,205.169269L931.096218,204.309716L931.408446,204.237685L932.072648,204.666989L933.735188,206.207387L934.585841,206.760508L936.449365,207.490287L937.212771,207.630477L940.063243,207.332811L940.485980,207.064907L940.620994,206.495474L940.596325,205.102043L940.812406,204.503720L941.233415,204.086897L941.757882,203.804527L943.039019,203.499099L943.937865,203.366554L945.370305,201.831632L945.804186,201.652965L947.366945,201.597251L947.684441,201.451241L948.295657,200.617424L948.939233,200.079456L949.688298,199.798937L950.594759,199.727846L951.688387,199.827758L952.930606,200.132293L955.337885,200.980543L956.579279,201.184194L958.936869,201.181312L959.319111,201.033377L959.844228,200.538651L960.207442,200.436822L961.518114,200.736543L962.940662,201.266806L964.144950,201.516562L964.833256,200.980543L964.950361,199.247493L965.216035,198.488509L965.956710,198.216613L966.738074,198.482745L967.285998,199.016919L967.785484,199.635619L968.414658,200.148624L968.998551,200.302330L969.310584,200.075613L969.576421,199.270550L970.105350,199.147578L970.983272,199.739374L972.761775,201.272570L973.765507,201.814342L974.694846,202.103472L983.370774,203.935148L984.722544,203.884244L987.076287,203.347344L988.505283,203.328135L990.925466,203.656616L991.698214,203.637407L992.407334,203.762267L993.905893,204.511403L994.642961,204.680434L995.097857,204.559424L995.576225,204.268418L995.957400,203.876560L996.132691,203.462602L996.172768,202.749914L996.268586,202.301346L996.616440,202.182238L997.401798,202.450229L997.928102,202.475203L998.330880,202.151500L998.573286,201.647201L998.621112,200.846056L998.696221,200.590526L998.718981,200.319622L998.595064,199.970899L998.305846,199.670204L997.426151,199.005390L997.110186,198.680660L996.813698,198.046555L996.481353,196.857069L995.963777,196.026883L995.838234,195.771286L995.797649,195.544513L995.707780,195.356175L995.435759,195.205311L995.236960,195.130358L995.027608,195.019852L994.828085,194.871868L994.658578,194.681601L994.390314,194.224185L994.314995,193.924361L994.314230,193.651441L994.261874,193.267041L994.002649,193.009488L993.536250,192.911464L993.032203,192.878789L992.677325,192.815361L992.249729,192.538583L991.968594,192.259880L991.707421,191.965796L991.362025,191.646720L990.652486,191.171943L989.143908,190.301174L988.394668,189.755246L988.195752,189.564938L987.998908,189.352521L987.641477,188.919032L986.282958,186.719765L985.643318,185.981513L984.131630,184.708757L982.579247,183.559969L979.214489,181.455530L977.465109,180.626801L975.336277,180.163398L974.710935,179.722104L974.070102,179.107748L973.273352,178.438581L972.567120,177.990543L965.757731,174.350369L964.431845,174.059033L964.315747,173.527319L964.500720,172.667727L964.431630,172.300427L963.889843,171.780246L963.137486,171.471598L961.758782,171.153334L958.430040,170.233156L957.506017,169.865854L956.899391,169.440860L956.348959,168.805292L954.366404,166.137072L953.724418,165.435168L952.986804,164.878455L952.010449,164.435202L948.945441,163.629466L941.490660,161.358450L939.042295,159.964341L933.104922,155.460192L930.072792,153.541394L927.493392,152.678163L921.599762,152.355179L920.732060,152.179269L918.848701,151.418927L918.035037,151.236294L916.279591,151.262247L914.730653,151.557344L913.197613,152.285968L912.524073,152.363830L907.709673,152.106214L906.546820,152.540702L906.152270,153.119389L904.102482,160.229700L903.147795,161.318068L902.668414,162.313191L902.585529,163.981374L902.204094,165.276519L900.837826,165.157292L890.033928,159.349021L889.165831,159.002907L886.555282,158.326068L882.249001,157.043562L881.232436,156.887818L879.199083,156.968574L872.586100,158.374138L870.518563,158.419325L864.429833,157.386778L862.881399,157.881897L860.948651,159.469200L859.812115,163.111223L858.636802,164.046756L856.329936,163.241024L844.839553,156.474426L843.631340,155.643809L842.703477,154.770912L840.907524,152.546470L837.119559,147.743433L836.898606,147.388791L837.165363,146.737186L842.414956,143.950298L842.867549,143.271890L842.434945,142.095781L837.299179,134.694982L836.849094,133.951631L836.517093,133.177586L836.415367,132.562989L837.749150,123.754323L837.597190,122.554854L837.176379,121.888965L835.972401,120.601436L835.691151,119.941421L834.702603,108.389656L833.611933,96.853394L833.502222,95.977091L832.444997,84.627907L830.579660,83.128805L828.727998,81.891611L826.928265,80.988697L817.215066,78.359018L814.301266,77.587912L811.889192,77.566928L809.885220,78.156785L803.741741,82.347892L802.900803,82.613276L801.944111,82.617095L798.497467,82.027155L796.626685,82.281070L795.581902,82.269615L794.813207,82.109247L793.003165,82.122610L792.343116,81.962246L785.922384,79.145125L779.146972,75.238189L778.431382,74.746242L777.115367,73.674785L776.435156,73.196317L775.642827,72.773163L766.373376,69.385246L763.275773,68.825232L758.253517,69.465253L756.670130,69.177616L753.272225,68.053874L751.805242,67.886284L749.784873,68.648096L748.152755,69.821486L747.274766,71.317143L746.849411,71.570585L745.824636,71.875494L745.429364,72.176607L743.706269,75.119965L743.414950,75.259164L742.804739,75.261071L741.449754,75.085643L740.912580,75.198145L737.249044,77.362816L736.370198,78.364742L736.134544,78.799759L735.173047,79.677525L734.959738,80.091648L734.727121,80.965792L731.117210,84.673745L730.709592,85.414843L730.517557,86.324147L730.557802,89.651094L730.676658,90.331599L730.947044,90.910849L731.684779,92.228208L731.866900,93.033281L731.533728,93.306760L730.079782,93.360309L729.499999,93.513310L729.001835,93.769595L728.599814,94.123436L727.693930,95.414630L725.720317,96.535769L724.644626,96.853394L723.735025,96.908884L722.749658,96.736675L719.512337,95.611677L716.088492,95.322804L715.000488,95.506457L708.064164,98.810689L705.878532,99.850458L695.416990,100.424747L694.334490,100.792314L691.905209,102.251270L691.273723,102.389139L690.558988,102.398713L689.755728,102.276163L688.097567,101.688333L687.324010,101.489209L686.677187,101.596429L686.375099,101.944905L686.064619,102.854462L685.708717,103.149373L682.448366,104.308057L679.240482,107.428706L676.580139,109.095826L673.908625,110.013838L672.707688,110.130752L671.394713,110.048337L669.993717,109.730183L666.339019,108.283304L664.444426,107.903898L663.740038,107.604984L661.420909,106.217854L661.059264,106.154634L660.919167,106.419012L660.769438,106.938213L660.255416,107.855994L659.464845,108.553498L658.450837,108.986591L657.246450,109.113074L648.247260,107.194952L645.586668,106.706389L645.143301,106.673819L643.666387,105.798312L641.682383,105.238955L635.691267,105.629734L634.826383,105.374960L634.175743,105.139348L633.878876,104.861603L633.368323,104.200800L633.131352,103.978629L632.678554,103.775616L631.581670,103.877122L630.854968,103.651129L628.946192,103.130223L628.030734,102.789354L627.161081,102.567222L623.290618,102.266589L620.669139,102.917656L619.960849,102.961701L616.503260,102.186167L614.588424,102.492542L611.414404,102.469563L607.616952,103.118732L606.445341,103.042328L605.473288,102.978936L602.958394,101.904695L597.158379,98.943172L594.465667,97.234179L593.886764,96.740502L593.359641,96.229639L592.818641,95.757075L592.184937,95.384021L591.242118,95.097070L588.650135,94.840736L587.901229,94.574848L584.988692,93.279985L584.211566,92.801884L583.567301,92.226296L583.288889,91.641196L583.047833,90.822907L582.504725,90.547617L581.383885,90.624085L580.653460,90.545705L580.152673,90.293367L579.854733,89.819302L579.687431,88.422158L579.581760,87.973072L579.329535,87.501088L578.352515,86.135016L576.787746,84.368163L576.255603,83.587090L576.081527,83.025696L576.037456,82.515904L575.901907,81.885883L575.444708,80.929526L574.930509,80.555424L573.476609,80.480989L571.866546,80.091648L571.511486,80.072563L570.658732,80.171804L569.951148,80.011493L568.506088,79.370292L568.294889,79.304891L567.748142,79.135584L557.004249,78.981025L554.532662,77.729079L553.873368,77.818741L553.319742,78.139614L552.486640,78.208296L551.335470,77.875973L550.246580,77.402875L548.098323,76.235558L547.554636,76.002887L546.459736,75.653897L545.903084,75.364042L545.418366,74.975049L544.630957,74.103725L544.234872,73.714818L543.867171,73.459374L542.961509,72.925647L542.515006,72.571128L541.247205,71.195189L540.779852,70.854114L539.414944,70.383502L533.283916,67.347362L531.706756,66.760889L528.665533,66.039306L525.320665,65.715669L522.340204,66.005037L517.498546,67.393063L516.794866,67.314990L516.020087,67.044598L514.411460,66.311555L513.501036,66.035498L511.050022,65.797529L510.724589,65.630004L510.442552,65.338751L510.198893,64.988506L509.995419,64.647798L509.723640,64.404176L507.527408,63.359383L506.663428,63.218569L505.093303,63.210957L503.497084,62.948368L501.801359,62.453667L500.908152,62.286239L496.994923,62.543090L486.766800,60.536147L485.393643,60.678797L484.616699,61.215196L482.747624,63.422179L482.178717,63.717141L481.484932,63.897932L480.703545,63.958831L477.121708,63.599155L476.247500,63.726656L475.719141,63.943606L474.515895,64.885720L473.797779,65.095100L471.095032,65.074162L470.469622,65.254995L469.855083,66.159246L469.421812,66.511466L468.549424,66.684729L465.475885,66.545738L463.763128,67.014132L463.177224,67.433053L462.744152,68.071005L462.304162,68.718569L461.326603,69.655749L461.179962,70.476859L460.528992,71.825945L458.769625,72.628307L456.527955,72.889432L454.457804,72.611153L449.943513,71.284748L448.160955,71.231394L445.920765,73.257315L443.929257,73.171537L441.531605,72.424370L439.184221,71.383837L437.932028,70.993209L436.910863,70.819817L434.130662,71.073238L433.110558,70.810290L432.050484,70.168215L431.047614,69.084280L428.804439,67.145517L426.459664,66.698057L422.211151,67.195026L420.695539,66.924639L419.268870,66.482907L414.370713,64.278563L409.694603,63.387295L409.638015,63.376509L408.390123,62.788537L404.366954,59.533886L402.714910,58.752356L399.647600,58.431028L398.084774,57.993745L396.975335,57.318874L395.808340,56.336172L394.844134,55.220617L394.343585,54.145173L394.420157,53.235189L394.644605,52.456401L394.422556,51.622642L393.156254,50.542161L390.705339,49.420114L389.435090,48.681691L388.379920,47.561896L388.071016,46.556159L388.020569,45.527827L387.645562,44.516746L386.383745,43.566524L386.411388,43.105693L386.263517,42.586116L385.911993,42.059000L385.324281,41.567951L383.925994,40.543327L382.353659,39.187227L380.937650,37.717755L380.003173,36.353772L379.455450,35.109408L379.129374,34.500578L378.685010,33.869089L378.056041,33.198855L377.669320,32.835370L377.506821,32.489890L377.769286,30.799689L377.722347,30.038969L377.082349,29.427814L373.516008,27.936135L372.814106,27.563509L371.944369,27.241972L369.642435,27.109579L368.961740,26.869388L367.531954,26.164947L366.900807,26.017450L364.665453,26.145091L363.774664,25.932357L361.684823,25.001143L361.025502,24.791284L360.203503,24.723224L358.728122,24.809245L356.160341,24.077632L354.781204,23.867806L353.566491,23.975553L351.334371,24.792230L350.251154,24.796011L348.962487,24.314877L347.298639,23.254436L345.705969,22.428516L344.403488,22.218747L343.186645,22.207408L341.838318,21.965521L339.909098,21.029244L324.478987,15.963926L322.248045,15.497643L320.032759,14.690698L311.391986,14.715235L307.896180,14.261314L305.389213,14.514222L302.468922,13.865930L299.610730,12.410116L296.701198,10.648123L293.630213,9.079918L292.582101,8.784804L288.999419,8.682978L281.373614,7.122809L280.351369,6.782546L279.411545,6.201032L278.474336,5.529106L277.454774,4.933574L276.206784,4.483194L270.374008,3.063483L269.224466,2.598167L268.163540,1.792894L267.121146,0.620487L266.145395,0.178427L265.751549,0.000000L264.590226,0.037661L264.180264,0.834235L264.367200,1.437853L265.079099,2.670694L265.378284,3.289560L265.453781,3.802032L265.055261,4.988225L265.140938,5.544183L265.729533,7.272682L265.674773,10.374625L265.407575,11.310226L264.978232,12.112956L264.398883,12.727101L259.560545,13.984826L257.483956,15.004025L257.145345,17.323332L257.271122,18.040918L257.275651,19.273284L257.358111,19.933481L257.741390,20.789293L258.936939,22.379381L259.324091,23.244040L259.423634,23.890489L256.815916,23.500155L256.077276,23.542684L255.115578,24.107878L254.719368,24.211849L254.589771,24.545514L254.504423,25.354704L254.575493,27.791432L254.496796,28.272842L254.173099,29.139287L254.135927,29.626480L254.304373,30.280232L254.630977,30.819560L255.692235,32.080072L256.237471,32.851461L256.481359,33.414685L256.624557,35.122665L256.767276,35.656745L257.207807,36.893645L257.452910,38.114695L257.387472,41.257038L258.085542,42.381331L259.489193,43.473596L261.028790,44.340346L262.810492,45.063050L263.330390,45.459531L263.846167,45.907265L264.498819,46.332263L265.744386,46.916686L266.140042,47.332269L265.718010,48.787988L266.062393,49.577681L268.003597,51.463121L271.087089,54.445365L271.919576,55.146508L272.835117,55.663393L275.815915,57.058451L276.740589,57.290360L278.691696,57.548892L279.584381,57.809336L280.547817,58.282728L281.464291,58.984332L282.200875,59.929444L282.202992,59.933248L282.201048,59.935150L282.800671,61.137206L283.086914,63.325130L283.635557,64.548826L284.518396,65.709958L284.926649,66.334402L285.237961,67.056022L285.356808,67.631099L285.237098,75.741619L284.380081,77.248363L281.247712,79.093605L280.707984,79.799660L280.392373,80.681395L280.018045,80.931435L279.300364,80.641313L277.832942,79.717600L277.108616,79.521044L276.508433,79.637450L274.408575,80.683303L272.465061,81.171941L272.521935,81.462089L273.014948,81.912610L273.666596,82.607548L274.048313,83.732221L273.637583,84.647006L272.323891,85.905774L270.651666,87.355869L269.567965,87.921477L268.521453,88.240609L267.359884,88.219588L265.530384,87.925299L263.690074,87.327208L262.485501,86.381460L261.868229,85.722387L261.123576,85.407203L260.616924,85.272013L259.663244,85.017542L259.018699,84.629817L257.126060,83.075341L255.632485,82.284888L247.299174,81.284563L246.745464,81.433455L245.878087,82.775568L245.454150,83.163175L244.998810,83.361762L244.417740,83.205184L243.621536,82.536905L242.787078,81.723616L242.063991,81.210118L241.338745,80.975336L240.512695,80.992515L239.910462,81.276927L238.897017,82.097792L238.242683,82.307799L237.417847,82.214249L236.565618,81.870611L234.777835,80.822637L232.997183,79.975232L227.788067,78.366649L227.784037,78.364742L227.776993,78.362834L227.772963,78.360926L227.263794,78.219743L226.783161,78.143430L226.363465,78.175863L226.045131,78.364742L225.766437,78.645209L225.551281,78.988658L225.398606,79.393190L225.327440,79.855003L224.768928,80.370291L223.959043,80.145085L223.032414,79.398915L222.125320,78.366649L222.122278,78.360926L220.956792,77.545945L219.713332,77.355185L218.706504,77.666126L218.234581,78.355202L217.817469,79.631725L216.868279,80.093556L214.234178,80.437091L213.805671,80.773011L213.569765,81.765614L213.303682,82.176066L212.777961,82.282979L212.086235,82.080610L211.950098,82.011085L211.331113,81.694981L210.619178,81.259748L208.819359,80.356931L207.332751,80.030577L199.256447,80.110733L197.507358,79.450438L197.186930,79.213819L196.228578,78.366649L194.922250,77.185415L193.830093,76.599842L192.790553,76.405300L187.791658,76.609379L185.447999,77.441026L184.727712,77.538314L184.024883,77.370446L183.504144,76.998483L182.425699,75.938046L181.879773,75.478457L180.104143,74.490752L179.525969,74.044625L179.032014,73.484156L178.642322,72.950426L178.195371,72.479642L177.513674,72.111809L174.637267,71.252354L173.626268,70.619756L172.810554,69.850062L172.017315,68.907136L170.654220,66.996995L168.494156,63.190026L167.785541,62.282434L165.373286,59.938953L164.609916,58.594542L164.162726,58.022263L163.485197,57.552694L162.721276,57.269450L152.347686,56.911137L141.975459,56.552847L138.159618,55.646289L131.576862,55.997873L130.155568,56.011176L129.174406,56.033982L127.149682,55.627286L126.451834,55.391642L125.981955,55.133206L125.511510,54.709471L124.801877,53.976083L123.493093,52.520979L122.577598,50.764318L121.522639,49.452386L120.059801,48.917065L118.163302,48.805072L116.523820,49.080314L115.820977,49.714369L115.936758,50.304823L116.386683,51.525790L116.372908,52.122124L116.108625,52.602653L115.665904,52.978747L115.110698,53.210494L114.499020,53.267483L113.134305,52.767904L110.397117,50.733937L108.948170,50.086481L107.551256,49.723862L106.326495,49.142957L105.127371,48.209074L103.815983,46.781960L103.080498,46.231703L102.340246,46.129247L101.696173,46.303803L101.260180,46.588416L101.111349,47.047620L101.295312,47.626421L101.628129,48.277402L101.914883,48.960724L101.799067,51.578964L99.962514,52.714719L97.227550,52.817290L92.100670,52.048053L90.012434,52.256972L88.189821,52.898968L86.683105,53.911489L86.231828,54.517566L85.926895,56.741018L85.480829,57.389209L83.053855,58.345470L82.658814,58.967219L82.749756,59.722153L82.921417,60.477185L82.752625,61.091553L81.898310,61.327427L79.221107,60.907046L78.129877,60.899438L75.959654,62.143548L75.108597,62.387075L71.703140,62.419420L70.845541,62.838008L70.383854,63.443111L69.400586,65.584316L68.670517,66.267766L66.699093,66.823723L65.915717,67.334032L65.862600,67.743455L66.395442,68.802376L66.520462,69.320480L66.384404,69.792910L66.091390,70.122491L65.692120,70.337777L65.238121,70.474954L63.983821,70.499723L61.248552,70.042475L60.046217,70.181551L59.100415,71.202811L58.596483,71.360970L57.454576,71.465777L56.965931,71.654434L54.563330,73.876860L53.604247,74.317254L50.119723,74.992210L49.473555,75.487991L49.388066,76.226023L49.688814,77.189230L50.028050,77.963868L50.204161,78.366649L49.894800,79.314953L48.756760,79.914163L47.338142,80.213791L43.142263,80.324486L41.823711,80.784463L41.172029,81.499223L40.995210,81.693072L41.084750,82.038609L41.624536,83.472515L41.856073,83.938465L42.148858,84.192461L42.857391,84.570609L43.100003,84.790252L43.249133,85.187538L43.029794,85.605862L43.162592,85.930608L43.756361,86.394833L45.323852,86.924054L45.990336,87.220207L46.642035,87.885169L46.619357,88.447002L46.243314,88.877009L44.730585,89.723728L42.328179,90.547617L41.371229,91.277924L40.382056,91.272189L40.059890,91.989190L39.907597,92.922363L39.462623,93.563036L38.527923,93.595550L37.465276,93.138464L35.101292,91.796070L33.964652,91.608692L33.339422,92.071411L33.495204,92.941486L34.679155,93.972334L35.542517,94.903862L35.376500,95.789599L34.703924,96.486022L31.166994,98.047480L30.116665,98.221634L29.633520,97.988154L29.227077,97.628379L28.822639,97.222697L28.351619,96.851480L27.779608,96.311910L27.267899,95.728378L26.725074,95.255848L26.054054,95.043507L25.511702,95.175502L25.427306,95.573415L25.635303,96.160761L26.269333,97.553747L27.440709,98.742206L27.406242,98.956570L22.856899,98.700100L22.089368,98.550815L21.246262,98.074273L20.062301,97.193994L19.483016,96.910797L18.932480,96.847653L18.888367,96.853394L18.535503,96.996903L17.626338,97.657084L17.149146,97.825488L15.346397,97.932655L14.608958,97.877158L12.979269,97.481030L12.302691,97.482944L7.450031,98.277134L6.897553,98.665649L6.759462,99.174769L6.869025,100.394117L6.777647,100.805715L6.704811,101.898951L7.644281,103.034471L8.724141,104.122273L9.048330,105.079967L8.418821,105.943904L6.669533,107.125977L6.007981,108.009287L5.774268,108.599489L5.346766,108.856278L2.540628,109.224227L1.989122,109.185898L1.281019,108.969344L1.539018,109.408208L2.485713,110.525589L2.980027,111.384324L3.063609,111.930660L3.058286,112.455940L3.277490,113.243916L3.831771,114.054968L4.443503,114.363684L5.088267,114.542016L5.737477,114.969641L6.374166,116.308250L5.678593,117.129149L3.801257,118.076719L3.673817,118.640698L3.760307,119.325572L4.123922,119.970200L4.827713,120.419160L5.579912,120.645566L5.975191,120.816333L6.345040,121.069611L6.638853,121.420755L7.044896,122.190241L7.309301,122.524150L7.967960,122.980891L8.728264,123.312904L11.019229,124.074842L12.299047,123.990393L13.065031,124.180404L15.242769,125.178493L16.359315,125.959749L16.929040,126.906152L16.827451,127.247874L15.851719,127.990862L15.780017,128.266374L15.801862,128.668612L15.750678,129.077584L15.465272,129.361760L14.796158,129.994456L15.477411,130.896989L16.788417,131.746768L17.992332,132.212488L18.339366,132.219210L18.975229,132.086694L19.290992,132.098217L19.634927,132.249939L20.336866,132.722397L21.310928,133.078672L22.563565,133.715380L23.180738,133.924740L23.713631,133.961235L24.687404,133.877682L25.242099,133.944908L27.697058,134.843849L28.757012,135.401873L31.046379,137.086628L32.277104,137.628400L32.960090,137.642809L33.458607,137.478546L34.013534,137.403620L34.838459,137.686036L37.528731,139.528581L38.063239,140.185719L38.281619,141.570206L38.693816,142.307168L39.243974,143.016292L39.714145,143.740816L40.231936,144.400020L40.932387,144.932395L42.473541,145.744437L43.133063,145.918381L43.845747,145.849188L44.801689,146.097132L47.536888,147.801098L48.674248,148.344125L49.457111,148.373920L51.066460,148.159591L51.964664,148.344125L52.576180,148.678597L57.696445,152.546470L57.704082,152.546470L57.708899,152.550315L58.706840,152.871379L61.443724,152.880992L63.088121,153.142460L63.779406,153.021338L64.285565,152.540702L64.578041,152.077376L65.555131,151.081537L66.036221,150.843156L66.488106,150.866225L67.927724,151.425655L68.432449,151.480445L69.884929,151.431423L70.601102,151.169969L71.710222,151.131521L72.780387,151.524662L73.381929,152.550315L73.654141,153.177066L74.118845,153.698086L74.675114,154.049923L75.224532,154.161435L75.733601,154.371002L76.239614,154.905499L76.757074,155.531331L77.315038,156.012970L77.908446,156.226393L79.037061,156.413859L79.700289,156.818598L80.159277,157.317557L80.918057,158.381830L81.447766,158.822159L82.501344,159.038479L85.523954,158.822159L86.346196,158.532772L86.524244,158.079947L86.391122,157.585786L86.203958,157.090670L86.218501,156.632091L86.611934,156.428280L87.917106,156.735920L89.173414,156.758993L89.812672,157.166619L90.258318,157.843441L90.383496,158.651026L90.583079,159.328831L91.142365,160.117211L91.831361,160.848875L92.428016,161.360373L93.971479,162.326652L95.603138,163.075648L97.218588,163.606390L100.250232,164.247709L101.026950,164.558274L101.855143,164.987105L102.182029,165.390939L102.008957,165.792850L101.951012,166.312068L102.625551,167.065898L103.274429,167.604349L105.004513,169.462013L105.625126,169.972583L106.902985,170.646611L107.547646,171.149488L108.135064,172.275428L108.630366,173.475398L109.272677,174.461903L110.296793,174.943614L110.872357,175.423400L111.233965,176.032023L111.390449,176.661794L111.332773,177.205988L111.248627,177.457893L111.306466,177.725180L111.503225,178.001119L123.730350,188.947867L125.017916,189.797537L126.285923,190.003222L126.981166,189.983999L127.731506,190.153160L128.518994,190.491477L129.342791,190.970112L130.062359,191.550612L130.598220,192.166657L131.091341,192.817283L131.693305,193.497682L132.035966,193.757150L132.359470,193.933971L132.664871,194.152113L132.950995,194.537459L133.018012,194.819977L132.928214,195.386924L132.979713,195.682884L133.486133,196.444863L134.146194,196.976213L135.628624,197.894751L137.081826,199.148539L138.030720,200.532887L138.218262,201.029336L138.595895,202.029509L138.908621,203.616277L139.275545,204.569028L139.891336,204.914769L140.614060,205.115488L141.288483,205.617753L141.481650,206.187221L141.562236,207.005372L141.524238,208.339086L141.449622,209.013095L141.661058,210.491570L141.647832,211.186587L141.689821,213.886609L141.245219,214.873170L141.207259,215.440309L141.637096,216.196450L145.012790,220.406095L146.263693,221.436185L147.332203,222.431647L148.377217,224.125046L149.057870,225.841153L149.050457,226.907091L148.815758,227.121797L147.761422,228.503847L144.794666,235.839752L144.736342,236.661254L147.274672,245.433650L148.197886,246.080053L150.726657,247.336349L151.527580,248.104925L152.289462,249.190722L153.187443,250.163581L154.013470,251.184065L154.577293,252.418365L154.933400,252.842481L156.364693,253.316233L157.037978,253.663884L157.684670,254.294189L157.843673,254.700988L157.854897,255.103940L158.046389,255.716912L158.989773,256.784212L159.962969,256.791848L161.583358,255.724550L162.603972,255.573700L163.994325,255.625256L165.446873,255.879215L166.670996,256.352732L167.228520,256.746029L168.280175,257.620352L168.878417,257.979208L171.225136,258.870524L174.423574,259.460207L175.012117,259.441125L175.360781,259.072817L175.637058,258.605243L176.008263,258.280782L176.650389,258.263604L177.322224,258.584249L180.290218,260.799650L180.762150,261.034307L181.030152,261.007599L181.242755,260.877870L181.564369,260.811097L184.835339,261.461624L185.430147,261.400580L186.506984,261.047661L187.150640,260.984706L192.443469,261.238431L194.000008,260.950366L194.985522,260.845438L196.019557,260.896948L197.101111,261.116339L198.264785,261.511221L201.556698,263.122891L202.388898,263.284986L203.707449,262.937906L204.233284,262.937906L205.802835,263.368892L206.297918,263.376520L207.684773,263.174380L208.238493,263.243032L209.820425,263.734526L210.313621,263.751687L212.973052,263.178194L214.930664,263.082843L217.994890,262.257034L219.465933,262.434412L219.914288,262.407710L220.831861,262.215072L221.257059,262.260848L223.308629,263.120984L224.322997,263.443262L225.241323,263.485214L225.767968,263.349822L226.337371,263.315497L226.943854,263.376520L227.595909,263.530980L228.274396,263.466892L230.099140,263.294521L230.936128,263.376520L233.736300,264.338956L234.507524,264.392341L235.863636,264.178798L236.596790,264.216932L237.318491,264.455259L238.779213,265.112990L239.493863,265.315060L242.711369,265.456123L248.635238,267.676465L249.688483,268.284293L257.229460,274.193709L259.521319,275.714486L261.177304,276.192159L263.843201,276.511859L265.199790,276.498539L266.302948,275.925732L266.818285,275.975212L267.401844,276.159808L267.907843,276.399585L271.490468,278.783608L272.340536,279.453206L273.871500,281.048976L274.639553,281.634710L275.613966,281.921856L277.537011,281.916151L278.637012,282.326887L283.462560,284.431596L286.351191,286.170886L287.070831,286.723969L287.704489,287.354939L288.357476,287.837642L289.171814,288.120791L295.464448,289.648522L298.716854,290.929061L300.092367,291.092443L309.907145,289.910721L310.572810,290.153916L310.652297,290.879666L310.250252,291.943508L310.168440,292.564671L310.424038,293.571379L310.343796,294.277925L310.380293,294.648276L310.509319,295.009121L311.566546,296.853076L312.252956,298.966404L312.658954,299.834058L313.095397,300.217558L316.283728,300.880120L317.898781,300.954158L319.096412,301.229426L320.217473,302.017239L323.345723,305.256444L330.514966,314.031696L338.510486,322.170399L339.382736,323.506352L340.278593,325.197222L341.271437,326.737292L342.490246,328.112317L344.073508,329.308048L360.529325,339.641879L361.660463,340.494644L362.366047,341.242999L362.952438,342.096824L365.455550,346.713742L365.946182,347.317132L366.233999,347.375115L366.667881,347.462522L369.385250,347.035862L379.848669,346.026154L390.308371,345.016547L390.384068,345.009240L400.940474,346.189866L411.500087,347.370630L424.564785,348.831215L437.634363,350.292030L450.708805,351.753086L463.788096,353.214394L467.720562,351.991069L477.038278,349.090466L478.420564,349.081912L491.492232,350.880619L504.569573,352.679698L517.652562,354.479168L523.255953,353.925686L526.873387,354.198618L530.698618,355.008912L534.633100,357.007432L542.442280,363.753856L546.345209,366.338918L548.583866,367.197356L560.231139,369.411523L571.883647,371.626557L583.541349,373.842497L584.677846,374.244136L584.679429,374.244136L584.691412,374.246044L595.724057,378.574514L606.760902,382.906871L607.731568,383.042591L618.685350,380.915493L629.629770,378.789366L633.141011,386.365216L633.514981,386.706706L636.666027,387.118060L645.612817,387.142934L646.380887,387.381156L647.328136,387.970551L649.143414,389.314221Z "/></g></svg>