<?xml version="1.0" encoding="utf-8"?><!DOCTYPE svg  PUBLIC '-//W3C//DTD SVG 1.1//EN'  'http://www.w3.org/Graphics/SVG/1.1/DTD/svg11.dtd'><svg enable_background="new 0 0 1000 1644" height="1644px" pretty_print="False" style="stroke-linejoin: round; stroke:#000; fill: none;" version="1.1" viewBox="0 0 1000 1644" width="1000px" xmlns="http://www.w3.org/2000/svg" xmlns:xlink="http://www.w3.org/1999/xlink"><defs><style type="text/css"><![CDATA[path { fill-rule: evenodd; }]]></style></defs><metadata><views><view h="1644.57590767" padding="0" w="1000"><proj flip="auto" id="robinson" lon0="113.559176509"/><bbox h="1.93" w="1.18" x="1645.29" y="-372.6"/></view></views></metadata><g class="" fill="black" id="country"><path d="M577.237167,1642.575908L604.329586,1631.571449L609.436297,1609.562526L663.794121,1560.332036L746.604322,1620.566988L782.710547,1609.562526L756.242516,1539.481458L762.233648,1471.717062L748.107732,1386.577091L808.319250,1432.332601L848.333945,1443.337085L892.498171,1421.328116L871.975108,1339.663206L955.532942,1387.156273L982.622211,1376.151796L999.695785,1365.147304L993.724459,1331.554622L977.840000,1298.541138L962.750568,1264.369246L886.736403,1264.948444L818.714627,1220.351212L849.048314,1176.912353L845.134067,1154.903316L783.902728,1187.916869L719.382088,1163.011902L621.960168,1127.681604L636.144407,999.102346L693.230337,999.102346L735.428120,966.088720L755.327028,920.332976L743.573956,854.305650L686.489091,854.305650L547.517456,821.871153L470.299129,781.907209L353.273587,810.866590L337.956638,831.717344L254.714990,847.934591L249.418728,970.143015L249.624791,971.301399L282.137534,1024.586530L402.477120,1138.106943L403.684609,1139.265310L506.742087,1516.314151L458.130320,1530.214530L504.269843,1609.562526L548.191073,1642.575908L577.237167,1642.575908Z M158.677232,0.000000L138.041484,52.706567L129.221234,87.458145L51.112732,87.458145L53.075977,98.462806L0.304215,116.996962L50.062546,188.237606L114.025881,165.069927L99.982762,142.481432L120.010722,142.481432L147.198730,188.237606L102.400263,273.957964L61.343188,386.321003L55.778288,394.429678L29.233463,430.918677L19.439290,510.846884L18.322366,527.064194L18.425537,527.643382L103.784297,669.544693L104.579507,668.386319L142.275681,598.883669L191.347045,598.883669L219.394859,542.702313L267.464424,542.702313L301.598270,520.693111L358.890389,465.670080L393.125790,444.240045L389.202983,422.230817L387.241472,411.226200L381.356506,378.212342L367.108809,354.465528L382.211882,332.456275L405.162969,354.465528L403.200975,343.460902L429.490010,260.636567L359.260614,310.447016L338.271439,299.442385L323.371672,266.428481L355.434291,232.835374L422.695288,244.998395L397.549725,188.237606L365.496020,132.055969L321.449172,98.462806L239.555925,66.028012L235.628392,44.018680L158.677232,0.000000Z "/></g></svg>