<?xml version="1.0" encoding="utf-8"?><!DOCTYPE svg  PUBLIC '-//W3C//DTD SVG 1.1//EN'  'http://www.w3.org/Graphics/SVG/1.1/DTD/svg11.dtd'><svg enable_background="new 0 0 1000 3439" height="3439px" pretty_print="False" style="stroke-linejoin: round; stroke:#000; fill: none;" version="1.1" viewBox="0 0 1000 3439" width="1000px" xmlns="http://www.w3.org/2000/svg" xmlns:xlink="http://www.w3.org/1999/xlink"><defs><style type="text/css"><![CDATA[path { fill-rule: evenodd; }]]></style></defs><metadata><views><view h="3439.70622066" padding="0" w="1000"><proj flip="auto" id="robinson" lon0="145.210608266"/><bbox h="108.07" w="31.43" x="2106.23" y="-344.68"/></view></views></metadata><g class="" fill="black" id="country"><path d="M817.409604,3437.706221L825.509520,3432.757337L828.374105,3427.873570L830.220351,3421.861107L832.657837,3416.695162L837.249146,3414.524597L843.259211,3413.612959L846.764183,3410.834635L848.499713,3406.276445L848.966209,3399.981801L842.180786,3388.564610L829.542832,3389.845246L809.365958,3399.981801L800.748102,3402.629893L788.230257,3409.380355L777.286379,3418.366497L773.450778,3427.613102L777.224652,3430.999181L784.757274,3431.281354L798.181689,3429.436375L806.957400,3431.780584L812.228235,3435.969771L817.409604,3437.706221Z M948.018052,3000.765481L952.791157,2986.243959L953.403647,2972.503848L951.161195,2967.033847L943.320535,2958.635532L940.608752,2953.968655L939.472835,2945.720217L939.720513,2938.448563L939.180948,2931.676153L935.515975,2924.838621L927.937012,2919.498831L919.118340,2927.660460L911.784789,2941.726234L908.492738,2953.968655L908.967029,2960.176686L910.892233,2964.038370L918.097131,2972.503848L922.097238,2980.014242L926.467695,2994.709422L929.830334,3001.633733L940.052538,3008.492921L948.018052,3000.765481Z M990.477299,2873.524458L985.571004,2866.817137L984.448581,2862.193642L988.259452,2839.401743L990.822160,2833.540964L995.470469,2829.807429L999.854596,2823.317154L995.775676,2819.171192L988.375643,2818.107568L982.654559,2820.712362L977.333063,2825.987067L965.954502,2830.284974L960.787993,2833.454137L960.233055,2835.668210L961.025251,2841.832880L959.886281,2844.394257L951.779001,2848.323147L949.612549,2850.016260L946.949109,2854.900238L947.014181,2859.979573L948.291028,2865.905462L949.107111,2873.524458L947.009515,2893.255688L947.599743,2901.135148L950.510866,2908.623887L954.683355,2909.687505L964.565050,2906.952488L967.071895,2908.689006L975.789843,2911.858153L982.394735,2912.075217L978.489655,2904.977197L973.740558,2897.835760L972.124876,2890.390428L973.768697,2883.357517L978.426816,2877.496754L983.150243,2880.600788L986.680446,2880.817853L989.135500,2878.386722L990.477299,2873.524458Z M833.972876,2247.500499L840.240115,2245.807365L842.448400,2241.726478L837.130335,2233.781773L831.110620,2230.460627L816.408574,2228.485305L809.961879,2226.488275L802.434053,2227.139481L799.213236,2230.482334L799.630903,2235.605148L803.360064,2241.400876L808.900994,2245.981020L815.030835,2248.303653L821.243725,2248.889738L833.972876,2247.500499Z M847.602790,2060.105824L838.193602,2056.350564L830.912852,2059.194142L842.322817,2069.483122L847.602790,2060.105824Z M812.469680,1735.398645L803.774926,1731.317881L797.118981,1733.575324L808.060994,1743.907476L812.469680,1735.398645Z M782.245533,1589.620935L781.873966,1583.369650L777.824808,1577.074958L771.165709,1572.625265L763.684960,1573.211321L761.654673,1579.918422L765.831435,1588.318583L777.234007,1593.962108L782.245533,1589.620935Z M678.191157,1330.283675L693.781406,1307.341427L698.505250,1302.631440L703.433666,1299.267165L706.702891,1294.470363L706.461985,1285.527920L703.216986,1278.669161L697.369103,1273.459982L690.522075,1270.160837L671.537648,1269.460224L666.340963,1276.639098L668.928979,1302.256730L666.232002,1314.395562L655.452464,1321.598905L661.018674,1334.016952L672.340777,1334.494465L678.191157,1330.283675Z M573.587330,974.743268L577.847634,969.729713L578.607718,963.696091L576.604423,953.886044L574.395777,947.027705L570.212251,940.646855L562.132883,932.269287L544.357796,931.446143L538.581482,943.174633L544.440573,964.347859L559.144015,976.588084L567.032441,977.477937L573.587330,974.743268Z M337.517639,476.215692L336.902275,469.835572L333.222440,464.453710L326.836090,462.088298L320.371682,464.627319L321.670738,470.681914L327.556674,477.213944L334.852527,481.358859L337.517639,476.215692Z M216.800175,277.097047L214.776932,271.889101L212.070561,269.285130L208.750896,274.341174L208.865807,280.308618L211.995406,285.408078L216.898054,289.118754L222.275309,291.006643L225.592870,289.444252L228.342884,286.818568L229.884697,283.303193L229.884008,278.919830L227.863729,276.880049L224.392460,277.726341L220.575802,279.418926L217.641777,279.961421L216.800175,277.097047Z M6.504081,0.000000L0.970523,2.083055L0.145404,8.202032L3.081739,15.362544L9.059049,20.396605L12.784837,16.035198L14.471285,9.547340L12.822242,3.298170L6.504081,0.000000Z "/></g></svg>