<?xml version="1.0" encoding="utf-8"?><!DOCTYPE svg  PUBLIC '-//W3C//DTD SVG 1.1//EN'  'http://www.w3.org/Graphics/SVG/1.1/DTD/svg11.dtd'><svg enable_background="new 0 0 1000 1180" height="1180px" pretty_print="False" style="stroke-linejoin: round; stroke:#000; fill: none;" version="1.1" viewBox="0 0 1000 1180" width="1000px" xmlns="http://www.w3.org/2000/svg" xmlns:xlink="http://www.w3.org/1999/xlink"><defs><style type="text/css"><![CDATA[path { fill-rule: evenodd; }]]></style></defs><metadata><views><view h="1180.14616617" padding="0" w="1000"><proj flip="auto" id="robinson" lon0="-11.4883948134"/><bbox h="210.33" w="178.37" x="-247.88" y="-457.59"/></view></views></metadata><g class="" fill="#000" id="country"><path d="M53.897848,712.151580L56.680695,697.148006L52.598275,698.739138L50.297317,703.182407L45.454545,711.784740L46.208331,717.791770L48.441164,721.276790L53.897848,712.151580Z M394.264932,1178.146166L396.194622,1176.173931L401.172640,1172.550518L407.908821,1164.849600L413.644447,1154.681044L416.338783,1142.072684L417.601490,1131.225186L420.224334,1122.033447L423.480318,1114.254390L430.516938,1106.126725L437.097224,1100.379558L444.902237,1094.407634L448.781852,1095.480930L456.016738,1103.805843L471.896454,1120.538182L485.017897,1133.289195L489.787893,1140.031614L494.109931,1140.091241L500.884898,1127.762234L507.849114,1117.130258L510.789877,1114.525006L519.836105,1113.378328L527.510291,1112.915069L534.186067,1113.089365L546.449729,1115.148799L552.038052,1117.024764L557.294930,1118.185201L572.729170,1119.116303L588.058058,1116.515639L602.649278,1113.153579L613.418954,1111.185878L614.019080,1106.163419L613.483965,1100.228196L615.272845,1095.701093L618.704570,1091.513404L621.568459,1090.596057L622.643616,1104.847030L626.045513,1106.993616L635.633570,1107.626584L651.209039,1107.626584L667.950864,1107.626584L684.692737,1107.621997L701.434561,1107.621997L718.176385,1107.621997L734.918208,1107.621997L751.656024,1107.621997L768.401856,1107.621997L785.139714,1107.617410L801.881536,1107.617410L818.623359,1107.617410L835.365181,1107.617410L852.107004,1107.617410L868.844818,1107.617410L885.586676,1107.612823L902.328531,1107.608237L919.070351,1107.608237L936.421402,1107.608237L941.280001,1080.074074L945.725909,1054.851546L949.454093,1033.720396L937.288279,1018.767620L927.619342,1006.874227L925.530634,984.243390L923.375487,960.883444L921.232280,937.528323L919.084964,914.168912L916.945364,890.809858L914.809345,867.451220L912.676731,844.097642L910.547455,820.740012L908.417309,797.387561L906.298144,774.035760L904.173902,750.680085L902.056346,727.325179L899.941292,703.975687L897.828680,680.623391L895.718381,657.271140L893.606626,633.924153L891.505702,610.573039L889.399949,587.222162L887.301576,563.871302L885.206856,540.524824L883.116172,517.173336L881.029781,493.821204L878.943981,470.472792L876.871064,447.118709L874.795404,423.767905L872.729251,400.415575L870.669020,377.056912L868.614993,353.696280L866.567508,330.333460L864.522903,306.972819L862.493477,283.604961L860.463734,260.234252L858.449762,236.865062L856.557581,215.448070L881.333579,215.429709L907.765163,215.415938L933.522689,215.397576L971.295585,215.374625L999.575964,215.356264L981.383875,202.208673L963.318218,189.133921L943.948699,175.098783L931.337385,166.388986L916.295571,155.989249L901.262638,145.589231L886.234755,135.189004L871.219895,124.788641L856.214289,114.383622L841.213919,103.987794L826.226943,93.587456L811.249467,83.187272L796.277667,72.787312L781.315577,62.387651L766.367225,51.988361L751.428787,41.589513L736.496443,31.191181L721.578144,20.793436L706.670068,10.396352L691.772319,0.000000L691.486180,15.665957L691.147331,34.276191L690.813165,52.911195L690.440522,74.109676L690.068244,95.222115L689.789444,110.618344L689.589566,121.335611L673.204798,121.335611L658.200503,121.335611L643.196208,121.335611L628.187980,121.335611L613.179752,121.335611L598.171432,121.340202L583.163202,121.340202L568.158905,121.340202L553.150676,121.340202L538.142446,121.340202L523.134217,121.340202L508.125987,121.340202L493.121690,121.340202L478.113354,121.344794L463.105123,121.344794L448.096892,121.344794L433.092593,121.344794L421.038026,121.344794L420.762821,132.544154L420.451254,145.350464L420.143137,158.151869L419.838357,170.952825L419.536808,183.757788L419.238706,196.557440L418.943838,209.360829L418.652442,222.158974L418.364305,234.955732L418.079373,247.751498L417.797457,260.550898L417.518674,273.344790L417.242737,286.142386L416.969759,298.934547L416.699552,311.725897L416.431935,324.521060L416.167014,337.310897L415.932817,348.719315L415.147105,358.948363L410.233326,361.966541L398.553527,367.411098L386.552143,372.997731L371.391639,375.552499L366.408197,377.382561L356.594952,384.766899L343.715041,394.457984L332.553386,402.846277L325.072147,413.756688L322.319679,419.727682L321.111935,426.047103L321.839886,432.049992L325.530526,444.124271L326.457149,450.204838L326.851052,460.792891L327.286454,472.325295L327.752950,484.746985L328.225034,497.182162L328.722404,510.419497L329.225692,523.656605L329.733330,536.966884L330.116159,546.852064L330.591653,559.327657L318.295858,559.341411L299.651616,559.364336L281.007262,559.391845L262.358920,559.419355L243.714626,559.442279L225.070217,559.469789L206.425789,559.497298L187.777474,559.520223L169.133009,559.547732L150.488525,559.575242L131.840159,559.598167L113.199609,559.625676L94.551099,559.653186L75.906652,559.676110L57.262076,559.703620L38.617480,559.731129L19.972982,559.754054L9.546961,559.767808L5.732988,577.309634L2.442409,589.931831L0.424036,600.183648L1.497136,608.885792L6.109507,586.956239L8.402244,583.503818L12.009182,579.904681L16.158649,582.596011L27.513491,608.885792L35.727843,625.033906L40.527568,627.853653L42.904813,623.172418L43.399073,617.959346L47.522705,619.811658L51.458791,623.328306L58.737535,645.533385L68.353611,663.181346L65.655795,671.319993L65.987739,684.493352L61.413605,704.571795L47.534055,734.061471L59.010090,730.351687L53.393879,739.967820L44.904677,741.811272L41.604784,744.503087L44.553055,751.725640L58.150760,764.052300L65.390838,778.186020L69.902382,804.968325L74.790880,823.468785L77.267423,851.463229L77.888368,882.948685L73.186444,915.081634L61.918151,948.265591L49.959830,973.267446L39.702066,1003.787362L37.949387,1017.620936L33.142918,1033.348870L32.279913,1075.473569L35.160813,1068.056799L37.323112,1051.159213L40.742926,1041.077538L43.790970,1039.164864L47.748644,1031.436197L52.616357,1017.896140L57.965942,1010.383073L63.788758,1008.901560L68.288854,1009.552875L71.446605,1012.341607L80.838974,1014.061631L96.461726,1014.722120L108.586487,1012.703958L117.216234,1008.007148L128.470348,1005.622051L142.357303,1005.562424L149.700244,1003.590133L150.499165,999.709768L152.331444,998.540155L155.197146,1000.081292L157.938331,999.471259L160.558853,996.705469L163.111319,996.517414L165.596127,998.902506L177.209447,999.618033L197.958427,998.673170L216.967869,1005.782586L234.258731,1020.946320L243.137894,1031.064671L243.609354,1036.128438L246.430783,1041.233487L251.598848,1046.375233L256.390903,1047.324690L260.809740,1044.086445L264.223032,1044.435038L266.635396,1048.370469L271.634603,1049.177737L277.255493,1046.760520L281.221163,1047.590721L281.904851,1049.929964L282.800008,1051.177560L285.485395,1051.732556L289.077403,1054.732291L294.032635,1062.782037L297.986313,1074.019571L300.944081,1088.435703L305.044792,1096.279021L310.281453,1097.554133L313.278438,1100.517160L313.827379,1103.948032L315.316343,1106.278087L317.820285,1107.576130L322.281820,1106.800974L327.413933,1111.672070L332.841437,1122.249022L333.652145,1127.019189L332.729812,1129.578564L333.041288,1131.445347L336.734250,1133.229568L340.200900,1136.692514L342.999604,1141.898390L349.140767,1146.517163L358.612551,1150.562595L365.396715,1156.607432L369.481613,1164.652375L378.104344,1171.417627L379.894877,1172.165243L394.264932,1178.146166Z "/></g></svg>