<?xml version="1.0" encoding="utf-8"?><!DOCTYPE svg  PUBLIC '-//W3C//DTD SVG 1.1//EN'  'http://www.w3.org/Graphics/SVG/1.1/DTD/svg11.dtd'><svg enable_background="new 0 0 1000 1179" height="1179px" pretty_print="False" style="stroke-linejoin: round; stroke:#000; fill: none;" version="1.1" viewBox="0 0 1000 1179" width="1000px" xmlns="http://www.w3.org/2000/svg" xmlns:xlink="http://www.w3.org/1999/xlink"><defs><style type="text/css"><![CDATA[path { fill-rule: evenodd; }]]></style></defs><metadata><views><view h="1179.31382562" padding="0" w="1000"><proj flip="auto" id="robinson" lon0="-11.4823676015"/><bbox h="210.5" w="178.65" x="-248.14" y="-457.58"/></view></views></metadata><g class="" fill="black" id="country"><path d="M53.305983,720.996110L56.330158,716.497729L57.739711,713.823135L58.777327,712.556426L60.148921,711.175259L61.146765,709.492680L60.519289,708.725792L59.589957,708.939453L56.410272,713.727750L53.490782,719.382184L53.047552,720.996110L53.305983,720.996110Z M46.712345,712.968487L47.261320,711.644550L47.515748,709.763571L47.489440,708.802100L46.876845,708.657116L45.725986,709.259943L45.210913,711.095136L45.572733,713.105841L46.177736,713.701042L46.712345,712.968487Z M58.582619,697.012747L57.869449,695.826194L56.821657,697.249295L55.151990,700.965398L54.110762,699.786468L52.923645,700.255750L51.845110,701.709385L51.146638,703.468248L51.033714,704.299990L51.060457,707.020329L50.881622,707.428571L48.442435,711.297351L47.843261,713.052426L48.398784,714.731198L48.902187,715.692679L48.869468,716.631269L48.649761,717.493552L48.614861,718.249004L48.865278,718.851840L50.217801,720.870201L53.617377,715.517171L55.816807,709.633849L58.582619,697.012747Z M51.168431,629.616340L51.382681,626.541508L51.047361,626.053198L50.351131,625.851007L49.541107,626.377467L49.090090,627.773729L49.614427,629.456113L50.667730,629.936794L51.168431,629.616340Z M397.914655,1177.313826L398.591748,1176.201513L399.044953,1174.730546L399.658204,1174.236184L401.178674,1174.648152L402.819327,1174.655422L404.433141,1174.158637L405.885923,1173.051170L407.869377,1170.077726L409.059583,1168.946023L412.373123,1168.153589L413.882006,1167.266643L415.119385,1166.088895L415.785348,1164.848140L416.115332,1163.987850L416.552338,1163.355355L416.978926,1162.860991L417.264744,1162.429634L417.593248,1162.279386L418.172186,1162.104904L418.642947,1161.785021L418.647164,1161.181606L418.091228,1160.321315L417.872833,1159.875417L417.813048,1159.303505L418.280251,1155.922919L418.731882,1154.253222L419.358699,1152.784663L419.358904,1152.770123L419.556811,1151.062010L419.355319,1149.726732L418.764174,1148.674989L417.818689,1147.807422L417.297411,1147.807422L416.858894,1148.246052L416.317489,1148.469003L415.517437,1147.807422L415.668295,1147.332440L415.903614,1144.501938L416.911155,1140.721467L417.001244,1139.756962L416.765689,1138.453182L416.706315,1137.571071L416.942156,1135.608129L418.560958,1130.591717L419.095674,1126.132676L419.456326,1124.632594L422.292221,1118.086998L423.685802,1111.398408L424.779903,1108.407925L426.900715,1105.877888L427.110522,1104.852787L427.157453,1101.646616L429.227174,1101.998016L429.569713,1102.056172L431.747797,1102.843781L433.934710,1103.027960L436.351874,1101.646616L439.324110,1098.195679L440.700355,1097.325673L442.891708,1096.605920L443.856060,1096.101850L444.597720,1095.183376L444.790778,1094.718081L444.861276,1094.235821L444.804669,1093.758409L444.625122,1093.290690L444.285494,1093.058042L444.009423,1092.822971L443.797681,1092.532161L443.663675,1092.137145L443.906272,1092.052325L444.644373,1091.962659L449.312187,1093.038655L451.217540,1093.935318L453.259774,1095.922517L460.679549,1108.165585L462.185669,1110.099463L482.675605,1127.060835L485.314578,1129.932554L487.507500,1134.818105L490.509834,1138.147836L493.144081,1142.752259L493.898043,1141.169793L495.227095,1135.826234L495.954680,1134.316464L498.192987,1131.990012L499.137613,1130.405116L499.975663,1126.949359L500.584839,1125.420198L501.930079,1123.973431L502.824376,1123.624462L503.650496,1123.624462L504.338768,1123.476635L505.265542,1121.952319L506.602655,1121.111400L507.243163,1120.408614L507.917406,1118.435968L507.867247,1114.551256L508.200201,1112.765208L509.115441,1111.786153L510.442231,1111.711027L515.374231,1112.554372L518.796224,1112.595569L520.417769,1112.331418L520.635155,1112.249212L523.372022,1111.214229L524.730557,1110.976735L526.322584,1111.347516L527.562605,1111.102752L535.921910,1111.257850L538.181761,1111.744955L542.129563,1111.408101L543.266715,1111.585010L550.237494,1114.696660L550.953308,1114.701507L552.465216,1114.391311L553.095697,1114.444626L554.757649,1115.338861L557.713320,1117.454491L559.615927,1118.086998L562.948464,1118.193628L572.494561,1116.649922L581.976098,1117.597471L585.121265,1116.734741L589.800473,1113.705488L591.440678,1112.925152L595.443898,1112.011529L615.801260,1111.085789L614.879478,1105.892429L614.879535,1105.887582L613.640811,1099.955075L613.685859,1097.223890L614.918066,1094.732621L620.002141,1088.070653L621.611685,1086.951034L623.569189,1087.915554L623.787548,1090.947248L622.594392,1097.354754L621.981932,1105.916663L636.191590,1105.921510L639.016298,1105.922572L649.079810,1105.926357L650.340043,1105.927744L657.885067,1105.936050L663.437656,1105.936050L669.515434,1105.936050L676.067575,1105.936050L683.064380,1105.940897L694.025455,1105.950591L705.761710,1105.950591L718.154376,1105.957861L731.101880,1105.965131L744.485655,1105.969978L758.199793,1105.974825L772.129938,1105.979672L786.174440,1105.984518L800.218901,1105.994212L814.153331,1105.994212L827.867458,1106.001482L841.246993,1106.008752L854.190305,1106.013599L866.587253,1106.018446L870.242980,1106.019956L878.319247,1106.023293L889.284637,1106.028140L895.595316,1106.035410L901.546023,1106.037833L907.115563,1106.037833L912.274270,1106.037833L923.269313,1106.042680L936.153342,1106.047527L936.182923,1106.057221L936.208269,1106.066914L936.233598,1106.079031L936.258961,1106.086301L936.284306,1106.095995L936.309652,1106.105689L936.334998,1106.115382L936.364579,1106.125076L936.385756,1106.125076L936.398463,1106.125076L936.415404,1106.125076L936.432346,1106.125076L936.453523,1106.125076L936.461994,1106.125076L936.483170,1106.125076L936.500112,1106.125076L936.508649,1106.115382L936.517220,1106.100842L936.529959,1106.095995L936.534295,1106.081455L936.538597,1106.071761L936.551336,1106.066914L936.564142,1106.052374L936.564208,1106.042680L936.564342,1106.023293L936.564441,1106.008752L936.564541,1105.994212L936.564707,1105.969978L936.564841,1105.950591L936.564940,1105.936050L936.565090,1105.914240L936.565240,1105.892429L936.653108,1105.431981L936.732489,1104.973957L936.751772,1104.861001L936.811920,1104.508663L936.895536,1104.050638L938.491297,1094.941035L940.095551,1085.831416L941.695531,1076.729054L943.299774,1067.621837L944.851586,1058.747262L946.416067,1049.872686L947.972043,1040.998112L949.532164,1032.128389L950.012853,1029.351149L949.936716,1028.750141L949.856353,1028.149133L949.466332,1027.669296L949.076250,1027.199152L945.815786,1024.688490L942.479864,1022.124514L939.270505,1019.647781L935.661803,1016.875393L932.667419,1014.577995L929.463165,1012.101266L928.763873,1010.603597L928.056167,1009.105928L927.729350,1005.325406L926.981390,996.862866L926.229781,988.395499L925.487086,979.937846L924.744993,971.470524L923.994933,963.008077L923.253802,954.550506L922.513217,946.088122L921.768911,937.625773L921.020880,929.163463L920.281747,920.706041L919.543137,912.243816L918.796521,903.786485L918.063120,895.319511L917.321702,886.857436L916.576483,878.400263L915.844415,869.938302L915.085188,861.243773L914.326423,852.549311L913.563978,843.845228L912.806077,835.155757L912.052935,826.454248L911.287538,817.757664L910.530998,809.061163L909.779130,800.359902L909.027631,791.663576L908.268107,782.967343L907.513191,774.271204L906.758703,765.570318L906.283922,760.101725L905.809310,754.630751L905.339032,749.162241L904.860542,743.686504L903.744269,730.789621L903.744311,730.784776L903.744353,730.779930L903.744396,730.775084L902.673224,719.055928L901.611120,707.334562L900.549602,695.615839L899.480220,683.902191L898.415706,672.182417L897.347525,660.466820L896.288430,648.746558L895.221556,637.031294L894.283727,626.914990L893.779030,621.425668L892.666786,609.347285L891.551191,597.268966L891.047527,591.770025L890.005901,580.457233L888.965102,569.144433L887.920967,557.831598L886.881922,546.518704L885.843851,535.200881L884.806694,523.887793L883.766296,512.579416L882.731212,501.261188L881.697148,489.947621L880.664231,478.628997L879.628215,467.314984L878.597559,456.000710L877.563973,444.681305L876.539955,433.366434L875.513006,422.053651L874.483216,410.738083L873.458989,399.419706L872.655812,390.573451L872.431922,388.105763L871.414673,376.788961L870.390582,365.466850L869.372126,354.149098L868.351064,342.828411L867.335763,331.507187L866.322086,320.185399L865.807003,314.384908L864.662063,301.619874L863.527666,288.854040L863.010942,283.045384L862.963273,282.511496L862.284282,274.901816L861.592357,267.427070L860.901218,259.954441L860.215075,252.481498L859.525513,245.015508L858.832780,237.537066L858.149187,230.063137L857.466377,222.596140L856.776301,215.114242L874.625979,215.104541L892.479814,215.094839L910.329475,215.085138L928.179180,215.070586L946.024658,215.060885L963.878458,215.051184L981.723919,215.041483L999.575665,215.026931L985.679010,204.980614L971.792024,194.929209L957.910525,184.882135L944.032623,174.829757L934.360426,168.144124L932.400048,166.790694L920.968908,158.896550L907.584580,149.634180L894.207290,140.376472L880.841327,131.118626L865.065296,120.191542L849.299476,109.264421L833.548141,98.337347L817.803176,87.405553L802.068713,76.478826L786.349171,65.547547L770.640281,54.626355L754.934189,43.695929L739.247277,32.775758L723.575853,21.846522L707.903107,10.927709L692.241961,0.000000L692.224934,1.290133L692.157459,4.947193L692.046529,10.631830L691.915992,17.995020L691.760216,26.711962L691.582059,36.443239L691.396678,46.849350L691.202465,57.590705L691.009866,68.337343L690.829393,78.744692L690.662961,88.473008L690.512213,97.187391L690.386784,104.562663L690.290534,110.244562L690.224885,113.898257L690.205810,115.193791L690.129767,119.444306L689.557104,120.676761L687.975655,121.147422L681.153578,121.147422L673.045129,121.152274L664.945080,121.152274L656.849187,121.152274L648.744982,121.152274L640.644933,121.152274L632.544883,121.152274L624.444834,121.152274L616.344785,121.152274L608.240580,121.152274L600.140531,121.152274L592.044638,121.152274L583.940433,121.152274L575.840384,121.152274L567.736178,121.152274L559.640285,121.152274L551.540236,121.152274L543.436031,121.152274L535.335982,121.152274L527.235933,121.152274L519.135884,121.152274L511.035835,121.152274L502.931629,121.152274L494.835736,121.152274L486.731531,121.152274L478.631482,121.152274L470.531433,121.152274L462.427228,121.152274L454.327179,121.152274L446.222974,121.152274L438.131236,121.152274L430.027031,121.152274L421.926862,121.157127L421.752031,128.260707L421.578464,135.354541L421.405807,142.453163L421.234177,149.551696L421.063691,156.645266L420.894116,163.743554L420.725569,170.841684L420.558164,177.934783L420.391671,185.032529L420.226094,192.134900L420.061659,199.232170L419.898419,206.321891L419.736149,213.413741L419.574769,220.512885L419.414431,227.608936L419.255202,234.699826L419.096851,241.795260L418.939470,248.890395L418.782993,255.987662L418.627618,263.077369L418.473063,270.171644L418.319473,277.263220L418.166728,284.356954L418.014866,291.450424L417.863872,298.543640L417.713834,305.631757L417.564531,312.724480L417.416001,319.819389L417.268381,326.909219L417.121456,334.003672L416.975310,341.097906L416.830077,348.184657L416.675689,355.758334L416.284629,358.964657L415.171798,360.467228L406.885838,362.871324L388.960925,371.956765L386.028137,372.889768L372.357312,374.976292L367.379921,376.801078L362.221344,380.559663L353.369479,387.020145L343.082708,394.505499L334.849555,400.512549L333.258453,402.649761L333.258349,402.654607L326.109663,413.122380L323.359242,419.080624L322.155676,425.392521L322.880070,431.384481L326.564625,443.440804L327.492597,449.512440L328.343650,472.957486L329.201753,496.401466L330.712595,535.167000L331.031070,543.287127L331.617589,558.466281L319.726087,558.466281L316.367674,558.471126L306.888452,558.471126L292.148358,558.471126L273.030395,558.475971L250.413569,558.480816L227.673875,558.485180L225.166302,558.485661L198.173796,558.490506L170.304582,558.490506L142.435143,558.500195L115.438542,558.500195L90.195448,558.505040L67.570084,558.514730L48.456401,558.514730L33.722587,558.514730L24.241137,558.519575L20.880720,558.519575L11.462322,558.519575L10.670438,559.294760L9.051519,567.429342L7.259640,576.421448L3.536421,587.157700L2.920287,590.151835L0.800157,598.678828L0.424335,601.469483L2.140693,611.579452L2.973559,610.557062L3.717114,608.497024L4.591719,604.537177L4.703551,603.392714L4.666414,602.774704L4.119398,601.279273L3.350904,600.302666L2.995466,599.593099L3.072627,598.772902L3.755912,598.036632L5.655888,597.422438L6.453851,596.854022L6.801358,596.060529L7.050932,593.016265L7.650641,589.594330L7.592417,587.992086L6.667898,588.472759L6.105892,586.798034L6.600022,585.699353L7.435589,584.947824L11.043847,579.801572L13.268118,575.521292L14.393406,574.804097L15.886553,576.894644L16.853365,579.545976L17.225011,581.045218L17.356694,582.365161L17.766496,583.666030L19.636089,586.572957L20.049169,587.488524L20.305929,588.835172L20.954695,589.712591L21.681798,590.368748L22.180562,591.036349L22.546572,592.642408L22.722825,594.172170L23.156429,595.591300L24.304742,596.854022L24.552167,596.480165L25.079283,596.026196L25.444415,595.572226L25.567474,596.987543L25.867534,598.463897L26.394728,599.848696L27.219018,600.989343L27.688404,602.046063L28.496902,606.459876L29.818360,608.088831L30.097340,608.832733L30.030721,610.572321L30.320316,611.289520L32.520206,613.238929L33.417869,614.371952L33.766514,615.775834L33.861671,616.470145L34.308780,617.240755L34.312008,618.041884L34.034762,618.286038L33.514880,618.446264L33.116946,618.888792L33.153207,619.956966L33.758634,620.613130L36.272211,622.074240L37.267776,622.871557L38.000584,623.996957L38.988139,626.190535L39.639570,626.999299L41.655327,628.414637L42.688474,629.440853L43.476196,630.898158L44.694605,627.357902L44.279926,618.286038L44.949569,614.200282L46.656423,614.982335L47.191332,615.417234L48.287434,618.041884L47.666474,618.682788L48.740681,620.185860L50.046307,620.483423L52.929824,619.956966L54.604055,620.193490L53.512375,620.746652L49.806969,621.879680L49.789825,622.577809L51.426669,623.802396L52.836729,623.081377L53.149044,624.779015L53.197834,627.109932L53.837321,628.281114L55.015394,628.799945L55.784374,630.089392L58.634959,638.817992L58.939120,640.595766L59.437168,641.747887L59.656188,642.129384L59.802306,642.652036L59.468650,642.903825L59.001010,643.086943L58.768245,643.407402L58.957478,644.334442L59.485920,644.918135L60.187259,645.467493L60.914395,646.318236L63.054721,652.490913L64.327476,653.364552L64.645593,653.757500L64.869107,654.642586L65.225185,655.520043L65.989805,655.924436L67.146223,656.000737L67.635545,656.294494L69.871510,660.197285L70.383687,661.608857L70.551343,663.310376L70.229082,665.153058L69.489205,667.018635L67.615378,670.063083L67.130740,670.532342L66.599006,670.757433L66.015125,670.810845L65.374141,670.761248L66.332275,673.313563L68.678111,678.051967L68.980185,680.363955L68.221382,683.149035L66.815560,685.433462L61.896316,690.748078L61.383693,691.545465L60.908217,692.587030L60.573743,693.823176L60.592779,694.956311L61.165238,695.387437L62.524471,694.502293L62.754421,693.754501L63.387151,692.369561L64.436206,691.572172L65.915224,692.587030L66.254227,693.914742L65.033162,696.219168L65.235857,697.707130L65.674720,697.222588L66.982140,696.425193L67.018499,697.394276L66.825595,698.256532L66.396978,699.004331L65.746161,699.626225L66.307055,700.267196L66.697128,700.988290L66.875716,701.827659L66.828465,702.831089L66.437428,703.391942L64.965714,705.093580L64.798113,705.452222L64.278293,705.719296L64.006196,706.428950L63.861911,708.298472L63.661773,709.183636L63.198985,709.694895L62.639931,710.076431L62.137836,710.568614L54.052197,723.434177L52.815240,724.574997L51.711266,725.284672L50.899203,726.253800L50.547074,728.207321L50.070880,729.809823L47.883802,732.270815L47.079454,733.735968L46.954442,734.518148L46.868938,736.815090L46.986511,737.570565L47.119025,738.120001L47.086133,738.383273L47.134724,738.566419L47.512249,738.852584L47.940336,738.967050L48.488026,738.932710L48.972475,738.772457L49.184513,738.501554L49.405056,737.604904L50.143938,735.830685L50.124914,735.246911L49.756847,734.159490L49.942781,733.049177L50.455125,732.007546L51.033446,731.114720L52.227582,729.695358L55.600651,726.684947L56.770410,725.994348L53.246776,733.735968L55.622375,731.694675L60.282582,726.276693L60.702484,726.314847L60.952988,725.956194L61.488770,725.998164L62.023487,726.360633L62.257080,726.982554L62.072798,727.619738L61.314125,728.855952L60.806419,730.679754L58.790480,734.312110L55.765899,738.257360L51.748449,740.752724L47.173683,741.473862L42.474589,740.077372L41.328644,741.542542L42.222757,742.939035L43.760960,744.430921L44.552953,746.216609L44.774133,747.895465L46.037377,751.856054L46.614520,752.939687L47.920025,753.790570L51.077876,754.816972L52.436097,755.824297L53.113558,756.190597L53.916890,756.285988L54.588544,756.480585L54.861405,757.129243L55.184866,757.327656L56.682303,758.895885L61.350225,765.020020L64.769946,771.529592L66.953135,777.638567L67.394909,778.871052L70.265829,791.863772L70.338154,794.427999L69.552587,796.652624L70.873120,800.460831L72.532082,812.076346L76.488987,822.291562L77.320731,825.638148L79.368226,857.769002L79.882999,874.769742L78.132575,889.790126L77.232398,902.246185L74.523603,913.721578L66.277136,940.214139L65.087433,941.950556L64.556958,944.251789L57.189975,961.001635L53.133376,967.142132L51.666857,970.233376L50.320980,976.576163L48.506875,979.732296L41.546288,998.215012L40.803242,1002.313814L40.585111,1012.385282L39.668423,1014.858310L38.945401,1016.243663L38.159852,1020.945473L35.787148,1025.735063L35.171138,1027.406650L34.224739,1033.547253L34.629959,1052.438500L34.612583,1060.735385L33.047842,1076.540726L34.974261,1073.021220L35.887891,1067.849638L36.299646,1057.637335L36.809303,1056.561335L38.027772,1052.417281L39.530540,1048.636741L40.030700,1042.287373L40.663617,1040.401950L41.881277,1039.262941L44.919373,1038.463212L46.217092,1037.532618L46.753761,1036.577790L47.128553,1035.477557L50.821311,1019.604160L51.329606,1015.862405L51.985278,1014.103006L53.156912,1012.343607L54.701958,1010.719920L56.469871,1009.542142L58.343874,1009.125315L61.038015,1009.697240L61.954129,1009.769943L62.888480,1009.585763L63.730896,1009.154396L66.178018,1007.259288L67.127261,1006.774606L68.116741,1006.580733L69.143755,1006.803687L69.885525,1007.312603L70.475342,1008.005699L71.429932,1009.634232L72.782245,1011.257918L74.421076,1012.144888L76.264139,1012.382382L78.224513,1012.077032L78.817943,1011.616583L79.404454,1011.282152L80.020147,1011.165829L80.697209,1011.345161L81.744585,1011.810456L82.259403,1011.863772L82.866946,1011.732907L86.144578,1010.133455L87.302175,1009.988050L90.144778,1010.753848L90.834110,1010.753848L92.859848,1010.351562L94.165079,1010.424264L97.837262,1011.766835L100.489688,1011.931627L101.178493,1012.159428L103.089933,1013.177262L104.363794,1013.540774L105.621492,1013.463225L106.840440,1013.012470L107.986186,1012.217590L109.834484,1010.380643L110.816746,1009.716628L112.068826,1009.498520L115.566502,1010.298247L116.778708,1010.167382L117.762412,1009.634232L118.565950,1008.815118L120.618707,1005.664684L121.654255,1004.666239L122.854729,1004.074927L124.091197,1004.196097L124.846286,1004.898886L125.295963,1005.853710L125.836068,1006.730984L126.836862,1007.210820L128.042666,1007.181739L129.199471,1006.861849L132.678514,1005.272091L133.961827,1004.966742L136.589893,1004.864958L140.449484,1005.543513L141.769917,1005.490198L150.588083,1003.958603L152.327839,1003.241274L152.868469,1002.853529L153.230210,1002.320379L153.273920,1001.622437L153.015363,1001.026279L151.720859,999.596468L151.260077,998.341144L151.449574,997.129441L152.178688,996.203700L153.352803,995.849883L154.524459,996.242475L155.245912,997.153675L155.866818,998.229667L156.702696,999.131174L157.286116,999.344434L157.896255,999.281426L158.480998,999.010004L158.996887,998.588331L159.410195,998.011561L159.604224,997.405709L159.888637,996.092224L160.434645,995.224645L161.288525,994.604253L163.131882,993.765756L164.051471,994.289211L165.095690,995.554228L165.167957,995.719663L165.762647,997.080973L166.588682,998.268442L168.092998,998.525323L170.600801,997.866156L184.552808,998.980923L185.498188,998.854906L188.279184,998.055182L189.091468,998.030948L189.805870,998.253901L192.082317,999.460758L192.979517,999.635243L193.885030,999.601315L197.332961,998.530169L198.206556,998.505935L201.508665,999.271732L202.394105,999.291119L203.271518,999.179643L204.130610,998.922761L204.948311,998.510782L207.121742,997.085820L207.912629,996.746543L209.519339,996.635066L214.661456,998.898527L215.284345,999.378362L215.613416,1000.076303L215.559846,1001.103828L215.094296,1002.887456L215.220071,1003.604785L215.978097,1003.987684L219.119513,1003.677488L219.904402,1004.094314L220.167492,1004.821337L220.243326,1006.498337L220.654459,1007.225360L221.498164,1007.666421L223.457484,1007.816673L224.386445,1008.000852L225.042099,1008.437066L226.393109,1010.453345L226.963325,1011.049505L228.873636,1012.571408L231.584798,1016.158062L236.355503,1021.033976L239.040782,1022.773990L239.584370,1023.341070L240.978978,1025.236183L241.696862,1025.759641L243.293606,1026.452739L244.038074,1026.913189L244.517070,1027.548125L244.562126,1028.202448L244.019439,1029.646806L243.852518,1030.441688L244.008385,1031.052390L244.792824,1032.220479L245.136939,1033.063829L245.152063,1033.853864L244.702398,1035.535719L244.979588,1037.033393L246.358326,1037.871897L249.550593,1038.913969L250.217408,1039.355031L251.488143,1040.440725L252.015909,1041.085355L252.408302,1041.846310L253.054401,1044.371516L253.427482,1045.268183L253.928840,1046.092146L254.565783,1046.790092L255.299156,1047.303858L255.987522,1047.497732L256.653180,1047.425029L257.303194,1047.163299L258.659993,1046.305408L260.000394,1045.180939L260.571120,1044.502381L262.066517,1042.166201L262.696106,1041.507031L263.398018,1041.061121L264.123422,1040.838166L264.883685,1040.794544L265.664612,1040.896328L265.475947,1042.098346L264.982293,1043.672166L264.594183,1044.909516L264.838936,1045.893426L265.221350,1046.160002L266.063180,1046.528363L266.428074,1046.828867L266.516198,1046.988813L266.637181,1047.323245L266.740550,1047.458957L266.937100,1047.589822L267.434740,1047.803083L267.658712,1047.938795L268.186809,1048.462254L268.364497,1048.583425L268.933783,1048.694903L269.471924,1048.534957L271.738234,1047.206921L272.212026,1047.095444L273.750352,1047.085750L274.038695,1047.051822L274.662301,1046.843408L277.167260,1045.651084L281.497002,1044.633246L282.620838,1044.129174L283.076318,1043.974075L283.544218,1043.954687L284.083693,1044.075859L284.210900,1045.384507L282.787721,1048.234452L282.611978,1049.688506L283.432460,1050.318596L286.440569,1049.024488L287.673500,1049.058416L288.071020,1049.557641L288.706983,1050.822668L289.101573,1051.370362L291.325785,1053.052218L291.807112,1053.725929L291.999839,1054.448110L292.053897,1056.091191L292.153549,1056.813371L293.237435,1059.973515L293.747576,1060.947731L294.350079,1061.844397L295.055439,1062.668361L297.093131,1064.413225L297.559060,1065.135405L297.725601,1065.915747L297.661135,1066.715477L297.320823,1068.300395L297.307665,1069.071043L297.472584,1069.701133L297.812222,1070.263367L299.263261,1072.182716L299.966846,1073.627075L300.333427,1075.226533L300.326021,1077.039252L300.130616,1077.829287L299.844109,1078.624168L299.648628,1079.419050L299.743078,1080.218778L300.155652,1080.858561L300.720909,1081.357786L301.960405,1082.172054L302.607116,1082.739134L303.146530,1083.393457L304.054672,1084.910517L304.393026,1085.690857L304.474657,1086.379108L304.319183,1087.067358L303.044767,1089.214505L302.731411,1089.975458L302.628561,1090.809113L302.733935,1091.599146L303.469994,1093.930471L304.702910,1093.891697L307.169062,1093.411861L308.362007,1093.484563L308.946197,1093.751139L310.442107,1094.965269L311.036871,1095.234268L312.914081,1095.801347L313.927958,1096.465362L314.789860,1097.359601L315.362523,1098.462254L315.533560,1099.783013L315.014192,1103.311499L315.011437,1104.128188L315.150890,1104.925489L315.424859,1105.785799L315.888660,1106.188134L318.386250,1106.905413L319.564300,1106.738198L320.816959,1105.887582L321.916931,1104.918219L323.133936,1104.174232L324.420362,1103.980360L325.709772,1104.649220L326.215246,1105.344739L326.454109,1106.159004L326.742697,1108.752049L327.003521,1109.389405L327.808004,1110.593837L328.165235,1111.296625L328.308186,1112.023646L328.270631,1115.164376L328.557559,1116.693543L329.210233,1118.135466L330.186808,1119.325355L335.010693,1123.021036L336.035711,1124.244851L336.543281,1125.778860L336.080108,1127.080222L334.716268,1127.324985L331.920857,1127.002674L331.075176,1127.703034L331.550324,1128.873533L333.392445,1130.955225L334.096540,1131.582883L334.820830,1131.868843L335.604417,1131.885806L337.362752,1131.481100L338.229221,1131.481100L339.051357,1131.742827L339.788128,1132.317170L340.208159,1132.961791L340.402467,1133.681537L340.407442,1134.452174L339.927714,1136.831939L339.971342,1137.571071L340.210295,1138.421678L340.301737,1138.673710L342.356164,1139.407995L342.995412,1140.104328L345.381954,1142.703792L347.559136,1143.738574L347.618352,1143.730028L348.465902,1143.607712L351.072835,1142.728026L352.336806,1142.514768L353.097172,1142.812844L353.732512,1143.530164L354.769400,1145.015694L359.242250,1147.979481L360.656637,1149.181474L361.519022,1149.750966L363.431503,1150.245334L364.298642,1150.783322L364.993071,1151.677546L365.369368,1152.590794L367.169883,1160.074132L367.201585,1161.084672L368.322285,1161.835912L371.036568,1165.497598L372.460297,1166.844981L377.582279,1169.549437L382.074059,1173.511605L383.485772,1174.255571L385.287077,1174.589992L387.056572,1174.333118L390.608030,1172.942119L392.363667,1172.612545L393.599587,1173.351664L397.014785,1176.785538L397.914655,1177.313826Z "/></g></svg>