<?xml version="1.0" encoding="utf-8"?><!DOCTYPE svg  PUBLIC '-//W3C//DTD SVG 1.1//EN'  'http://www.w3.org/Graphics/SVG/1.1/DTD/svg11.dtd'><svg enable_background="new 0 0 1000 849" height="849px" pretty_print="False" style="stroke-linejoin: round; stroke:#000; fill: none;" version="1.1" viewBox="0 0 1000 849" width="1000px" xmlns="http://www.w3.org/2000/svg" xmlns:xlink="http://www.w3.org/1999/xlink"><defs><style type="text/css"><![CDATA[path { fill-rule: evenodd; }]]></style></defs><metadata><views><view h="849.432580073" padding="0" w="1000"><proj flip="auto" id="robinson" lon0="14.4346387084"/><bbox h="4.68" w="5.52" x="197.19" y="-605.22"/></view></views></metadata><g class="" fill="#000" id="country"><path d="M906.423434,847.432580L904.532467,809.372619L915.741981,783.370075L952.729300,740.030399L988.315259,759.125303L999.410678,710.382049L985.608618,634.999514L944.412933,573.180189L870.560068,542.519975L856.906530,539.881131L855.572071,508.968280L851.170342,478.179892L837.279586,454.302364L762.647509,428.287625L674.458150,356.020132L631.850169,339.429145L431.632218,316.553162L462.782758,287.894474L477.156340,280.352557L499.883460,276.078773L498.751834,253.201110L459.206918,256.972197L424.545734,268.411053L393.358354,288.020172L362.813350,316.553162L390.801800,348.353124L407.554895,397.370477L423.982083,506.329322L428.692310,602.080092L437.201335,616.780927L473.800353,636.004665L482.249343,645.302243L532.371957,718.548029L643.515104,778.094081L766.715750,815.904507L853.836558,824.446117L865.241021,831.229087L906.423434,847.432580Z M182.595043,0.000000L29.976341,23.135386L0.589322,33.445544L3.711236,59.597654L14.572926,93.292590L8.420876,126.609164L50.665503,153.010128L101.261007,174.256072L153.760388,188.335952L200.623551,191.855887L244.374642,182.050319L310.440962,151.375806L354.584838,149.615763L384.201636,127.363486L332.713440,75.690905L249.080837,23.889790L182.595043,0.000000L182.595043,0.000000Z "/></g></svg>