<?xml version="1.0" encoding="utf-8"?><!DOCTYPE svg  PUBLIC '-//W3C//DTD SVG 1.1//EN'  'http://www.w3.org/Graphics/SVG/1.1/DTD/svg11.dtd'><svg enable_background="new 0 0 1000 1875" height="1875px" pretty_print="False" style="stroke-linejoin: round; stroke:#000; fill: none;" version="1.1" viewBox="0 0 1000 1875" width="1000px" xmlns="http://www.w3.org/2000/svg" xmlns:xlink="http://www.w3.org/1999/xlink"><defs><style type="text/css"><![CDATA[path { fill-rule: evenodd; }]]></style></defs><metadata><views><view h="1875.64369441" padding="0" w="1000"><proj flip="auto" id="robinson" lon0="57.5845160837"/><bbox h="170.93" w="91.18" x="833.09" y="173.12"/></view></views></metadata><g class="" fill="black" id="country"><path d="M30.799839,1873.643694L44.508859,1871.340754L58.261588,1866.719912L60.385623,1865.239446L61.763659,1863.385123L64.262540,1859.197936L65.177620,1858.659583L66.184067,1858.719400L67.121391,1858.375452L67.823990,1856.685620L67.793192,1855.683683L67.071850,1854.113483L67.066663,1852.812459L66.094728,1849.776733L69.175873,1845.454927L73.936131,1841.671468L77.947960,1840.265754L77.293963,1837.454322L77.903269,1834.583068L80.097468,1828.960179L81.333595,1823.920499L81.996926,1819.508895L81.462849,1817.564794L78.741530,1813.586857L77.658429,1808.352711L76.133408,1806.917056L75.064470,1805.002847L76.091164,1799.065790L75.725027,1797.884357L74.087881,1796.239322L73.480348,1796.059864L71.570646,1796.388871L70.934601,1796.239322L70.227157,1795.102752L69.993304,1792.979156L68.868488,1790.347089L67.924641,1787.266367L66.944955,1785.516633L66.471364,1783.766896L67.637449,1780.596427L66.993766,1778.564261L65.177778,1777.487491L58.220280,1775.214306L55.738040,1774.795561L54.001070,1775.378813L52.929778,1776.679913L52.118078,1777.981011L51.146908,1778.564261L48.989771,1778.741997L47.853723,1779.280380L43.125568,1783.138785L42.330549,1784.245457L41.189175,1786.219518L38.656502,1792.799697L35.831684,1797.630125L35.436353,1801.054782L34.654268,1804.449520L31.668467,1807.515245L30.047813,1808.262982L26.504846,1809.339723L24.905108,1810.147277L21.103783,1813.347582L20.731088,1813.915859L19.277978,1815.441235L14.994386,1823.247543L13.632452,1826.447819L12.419774,1832.010898L11.401204,1842.150009L9.735135,1846.636321L11.382737,1847.698080L11.403821,1849.582327L10.134204,1854.741563L8.971863,1857.119294L6.754830,1857.567922L2.887372,1856.685620L0.266717,1857.762327L0.758202,1860.214825L2.563478,1862.772000L10.966653,1871.744516L14.479877,1870.084604L18.842861,1870.622954L26.063742,1873.224978L30.799839,1873.643694Z M981.174407,1733.742858L983.768286,1731.693925L986.445866,1730.138528L990.049452,1729.510386L995.118397,1727.655871L998.708679,1723.707539L999.733283,1720.118135L996.985457,1719.370341L993.616565,1717.904664L988.252924,1718.742194L982.971819,1720.641590L977.214185,1724.305772L975.218666,1725.233032L973.793310,1726.728612L973.006996,1730.138528L973.841983,1730.512422L977.918430,1735.791788L981.174407,1733.742858Z M3.197623,0.000000L2.446179,0.044875L1.897413,0.269249L1.540102,0.628249L1.295345,1.121873L1.281954,2.961744L2.021068,5.340114L4.814766,10.680226L7.985799,15.182672L8.027549,11.487974L4.176487,4.143449L3.197623,0.000000Z "/></g></svg>