<?xml version="1.0" encoding="utf-8"?><!DOCTYPE svg  PUBLIC '-//W3C//DTD SVG 1.1//EN'  'http://www.w3.org/Graphics/SVG/1.1/DTD/svg11.dtd'><svg enable_background="new 0 0 1000 7543" height="7543px" pretty_print="False" style="stroke-linejoin: round; stroke:#000; fill: none;" version="1.1" viewBox="0 0 1000 7543" width="1000px" xmlns="http://www.w3.org/2000/svg" xmlns:xlink="http://www.w3.org/1999/xlink"><defs><style type="text/css"><![CDATA[path { fill-rule: evenodd; }]]></style></defs><metadata><views><view h="7543.56821433" padding="0" w="1000"><proj flip="auto" id="robinson" lon0="73.5349757362"/><bbox h="130.72" w="17.33" x="1074.36" y="-119.18"/></view></views></metadata><g class="" fill="black" id="country"><path d="M547.222728,7541.568214L539.195541,7535.033962L539.584705,7539.678792L541.521331,7541.410763L547.222728,7541.568214Z M567.710175,7534.561605L570.090189,7531.963650L571.779910,7528.499708L574.305890,7524.720863L566.637165,7527.948627L564.118161,7530.546583L563.390091,7535.978673L567.710175,7534.561605Z M506.171175,7510.235291L505.803306,7513.699232L505.300865,7516.375914L505.775178,7518.501515L508.408935,7519.997307L506.171175,7510.235291Z M605.226927,7480.634339L600.878906,7474.651168L596.685571,7478.430013L593.923429,7487.404770L594.284556,7497.324238L605.226927,7480.634339Z M501.455572,7495.828445L499.572240,7484.491910L495.535876,7472.446842L489.958584,7462.212470L483.596179,7455.599491L484.596892,7450.482306L484.597308,7450.403580L483.923843,7446.231106L484.772753,7443.475697L490.060783,7442.924616L490.097907,7435.760556L478.241595,7442.373534L481.345182,7460.401773L495.057781,7495.828445L501.455572,7495.828445Z M611.191814,7444.892764L611.276995,7441.901179L612.123375,7439.618127L612.622003,7437.335075L611.732592,7434.500941L604.606750,7440.799016L602.271465,7448.514158L603.899520,7456.229299L609.288240,7462.842278L611.191814,7444.892764Z M781.788239,7163.290109L780.062152,7158.645280L773.270106,7149.827976L772.839918,7154.787709L773.383734,7159.511265L775.735242,7164.313547L781.283543,7169.824361L781.788239,7163.290109Z M489.619186,6668.891298L490.789766,6662.986853L490.789687,6662.947490L489.253635,6659.916542L486.120030,6657.869667L483.193059,6654.878082L484.244782,6659.050557L484.807889,6662.396408L484.878457,6662.908127L485.227980,6663.813475L486.136642,6666.135889L489.549796,6668.970023L489.619186,6668.891298Z M587.348489,6645.509697L587.417947,6645.470334L580.180773,6643.305371L581.302500,6647.477845L581.866060,6650.863060L583.326628,6650.941786L587.348489,6645.509697Z M436.045106,6624.450512L432.961503,6614.570408L432.960925,6614.334230L432.551713,6617.640719L432.552474,6617.955623L432.138724,6619.412053L431.794498,6620.868481L432.144745,6621.931282L432.425531,6623.033445L436.045384,6624.568600L436.045106,6624.450512Z M725.420758,6599.573118L725.490199,6599.533756L723.123594,6598.707133L720.826527,6597.880511L718.603621,6598.825222L717.366655,6604.572215L725.420758,6599.573118Z M389.492103,6585.599266L391.294217,6583.394940L390.945643,6583.080036L390.387794,6582.528955L388.508521,6581.938510L387.460506,6580.167178L385.169930,6581.741696L385.382655,6583.237489L389.492317,6585.677992L389.492103,6585.599266Z M839.863213,6500.417812L839.932479,6500.339086L836.804175,6500.653989L834.090913,6500.339086L833.470412,6501.874242L833.470550,6501.913605L833.961058,6502.976404L835.784180,6507.306330L835.853315,6507.188242L839.863213,6500.417812Z M367.925710,6494.041011L365.600076,6485.459885L365.529963,6485.302433L365.258620,6487.191856L364.570838,6489.317455L365.065798,6491.600507L367.996089,6494.277189L367.925710,6494.041011Z M350.285841,6395.358057L350.285667,6395.318694L346.959125,6397.916649L346.968468,6400.042250L350.045855,6404.057273L350.285841,6395.358057Z M821.173945,6384.218337L821.103505,6384.021523L820.282434,6386.973746L819.249639,6389.256798L819.814313,6391.106856L823.437923,6392.760101L821.173945,6384.218337Z M730.556607,6260.776073L730.966285,6259.437732L730.953558,6257.194042L731.495322,6254.635449L730.248741,6255.540798L728.443360,6256.013153L727.825322,6257.390858L728.886728,6260.618621L730.417524,6260.776073L730.556607,6260.776073Z M717.585075,6142.057357L717.570056,6139.813668L718.109200,6137.255075L716.863558,6138.160423L716.169476,6138.357239L715.406118,6138.593416L715.336842,6138.632779L714.510279,6139.813668L715.505961,6143.120157L716.341760,6143.316973L717.108281,6143.553150L717.585075,6142.057357Z M698.873904,6062.189889L699.635650,6061.756896L700.328146,6061.363267L700.461127,6060.536645L700.594391,6059.749385L700.579541,6057.741873L700.646748,6057.426969L701.119513,6055.537546L701.118344,6055.380095L699.804977,6056.442895L698.212273,6057.348243L697.667610,6058.922762L698.804654,6062.229252L698.873904,6062.189889Z M709.763242,5145.229150L700.619802,5142.828007L700.480167,5142.788644L702.211155,5147.039848L703.307052,5150.661245L703.376581,5150.661245L705.259605,5151.054875L709.763242,5145.229150Z M730.802223,5138.576803L732.120946,5138.419351L732.921104,5136.096934L731.269151,5132.514901L730.440972,5128.224333L730.368533,5128.027519L729.296214,5130.743566L727.379630,5132.790442L726.157718,5134.797955L725.818196,5135.349037L725.819935,5135.467126L725.527904,5139.245975L730.802223,5138.576803Z M784.243632,5108.700284L774.850307,5108.227929L775.520725,5111.219516L776.192252,5114.289831L778.419494,5114.447283L784.243632,5108.700284Z M814.606139,5107.283216L824.415840,5098.426541L830.519701,5092.836994L830.381239,5092.876357L821.405441,5097.048835L817.144981,5100.394691L815.309059,5103.150101L813.402961,5105.866148L813.618025,5106.299141L814.040494,5106.653408L814.253789,5106.968312L814.607317,5107.361942L814.606139,5107.283216Z M842.966189,5074.533196L845.697486,5066.699959L845.831132,5066.345692L844.060655,5068.786198L842.966217,5069.967088L842.420195,5070.636259L841.687157,5072.722499L841.687756,5072.761862L842.502232,5076.028991L842.966189,5074.533196Z M602.225781,5044.774765L599.288721,5043.672601L598.517270,5043.239608L596.974973,5042.412984L595.595329,5043.121518L595.396993,5048.317435L602.225781,5044.774765Z M849.525451,5044.302408L853.219836,5035.918088L855.784131,5026.431604L859.080809,5006.041566L856.412690,5013.244996L849.254629,5044.774765L849.525451,5044.302408Z M855.791052,4973.881988L855.834295,4963.529517L854.046469,4969.119063L853.942597,4971.323392L855.793561,4974.039440L855.791052,4973.881988Z M661.910820,4953.767490L661.331268,4952.311059L658.948467,4951.130168L656.689540,4949.004565L656.659819,4951.484436L655.509450,4953.452586L655.258467,4955.145195L657.791627,4957.034619L661.910820,4953.767490Z M850.042593,4914.955561L848.406171,4916.923711L846.769719,4918.891863L846.839243,4918.891863L849.069814,4919.246129L850.042593,4914.955561Z M715.619544,4908.736205L715.036302,4911.334164L715.689030,4912.987410L715.619544,4908.736205Z M855.495931,4870.475356L858.950762,4860.870780L856.907190,4863.390014L855.268221,4865.161349L854.608473,4867.286952L855.498555,4870.632808L855.495931,4870.475356Z M868.724224,4834.340108L864.885111,4841.661629L863.900657,4845.125574L863.966913,4849.061876L868.991769,4846.070287L879.707245,4838.355135L882.310528,4836.072080L883.955106,4834.655012L883.885583,4834.655012L868.724224,4834.340108Z M416.899116,4781.436213L418.218684,4781.357487L420.205757,4779.664877L415.717240,4781.436213L415.579547,4781.514939L416.899116,4781.436213Z M470.486949,4764.510114L470.448807,4762.305785L471.247620,4760.258908L471.246256,4760.180182L469.453693,4761.046169L467.787900,4761.203620L467.038155,4762.069607L467.038837,4762.108970L467.569759,4764.667566L470.019356,4765.612279L470.486949,4764.510114Z M485.688881,4755.141715L482.183797,4749.473440L480.967671,4747.505289L480.535826,4750.654331L479.750836,4753.488469L479.751520,4753.527832L480.683329,4755.141715L485.688881,4755.141715Z M335.263277,4677.163568L336.958398,4674.762423L332.471935,4676.573123L335.194459,4677.202931L335.263277,4677.163568Z M316.992946,4623.905394L315.516512,4626.818259L313.889543,4629.101314L314.072892,4631.541822L317.957845,4634.927042L316.992946,4623.905394Z M672.247801,4609.459164L673.328221,4607.727190L673.548283,4604.578148L673.606917,4603.987702L672.044316,4609.734704L672.247801,4609.459164Z M688.861094,4568.127982L692.381448,4555.649902L691.440514,4542.581376L690.632775,4540.298320L687.028574,4529.827753L680.751369,4517.743302L680.553971,4525.655272L688.795252,4568.324798L688.861094,4568.127982Z M646.327251,4462.674416L645.760594,4451.377224L644.509354,4454.959261L643.102974,4457.714673L643.355765,4459.997729L643.358053,4460.115818L645.056157,4461.650978L646.328775,4462.753142L646.327251,4462.674416Z M496.573435,4408.274697L498.867411,4408.274697L500.271468,4405.440559L496.434407,4408.274697L496.573435,4408.274697Z M293.593188,4283.178945L292.597558,4282.076779L290.300466,4281.919327L288.121527,4280.738436L288.725770,4283.100219L288.630052,4285.225824L289.143887,4286.564167L292.002681,4286.997160L293.593188,4283.178945Z M265.570884,4279.321366L264.390273,4269.165700L262.084844,4271.999840L259.696985,4274.204169L260.089552,4276.408500L265.572490,4279.400092L265.570884,4279.321366Z M396.277248,4226.535516L399.755144,4219.961887L399.753506,4219.883161L391.342021,4223.189657L391.412349,4223.229021L394.065177,4227.125963L396.277248,4226.535516Z M671.921771,4195.084438L673.635477,4193.942910L673.600655,4192.289662L672.863255,4190.282145L673.506055,4187.802273L671.852774,4188.510809L669.913980,4188.865076L669.255399,4190.597050L671.853089,4195.123801L671.921771,4195.084438Z M712.418140,4180.598835L710.897261,4180.992465L708.275886,4181.937178L706.179330,4184.692592L705.261313,4190.597050L712.418140,4180.598835Z M839.870695,4079.120872L839.090665,4078.412337L837.882426,4077.192082L837.740835,4077.073993L838.242012,4080.931573L838.254882,4081.522019L839.870695,4079.120872Z M677.286655,4072.389788L678.937655,4071.602527L678.492293,4070.303547L677.342410,4068.571571L676.736533,4066.288514L675.727440,4067.823673L674.151976,4068.886476L674.181165,4070.224821L677.148499,4072.429152L677.286655,4072.389788Z M380.760959,4024.170037L375.144510,4018.462392L375.711572,4022.123157L375.713303,4022.201884L375.777320,4025.114750L376.557445,4025.823285L376.983989,4026.256279L380.760959,4024.170037Z M849.768683,4017.202774L849.766064,4017.084685L847.774281,4021.296533L847.398231,4023.146597L848.074327,4025.429654L849.768683,4017.202774Z M868.108487,4010.511053L868.176242,4010.432326L866.655002,4010.786594L864.245939,4011.849397L861.873582,4014.565448L861.172252,4020.548634L868.108487,4010.511053Z M254.739260,4011.140862L256.650100,4003.228885L256.647496,4003.110796L252.376084,4011.140862L252.573113,4013.778187L254.739260,4011.140862Z M283.637306,3898.444394L284.891791,3895.531526L283.829608,3894.665539L283.269124,3894.468724L282.149048,3894.114456L281.063626,3892.225028L280.368784,3895.295348L279.310311,3897.657132L279.756773,3898.956113L283.637306,3898.444394Z M887.808924,3873.685020L888.141579,3870.024254L884.321431,3876.164893L887.808924,3873.685020Z M349.055070,3871.677503L348.602981,3870.142343L346.764446,3868.764636L345.747318,3866.835844L345.605613,3866.717755L344.827400,3869.158267L343.550048,3871.047694L343.374813,3872.504127L346.048239,3873.921198L349.055070,3871.677503Z M401.027637,3780.866880L402.485743,3777.835923L401.424835,3777.048661L399.604038,3776.458214L399.533618,3776.418851L398.446906,3774.529423L397.754267,3777.599744L396.838353,3780.040255L396.839273,3780.079618L397.284794,3781.299874L401.027637,3780.866880Z M391.854531,3733.591816L391.402183,3732.096019L389.698859,3730.600221L388.471765,3728.671430L388.399473,3728.553341L387.623227,3730.993852L386.418793,3732.962006L386.176149,3734.457804L388.566986,3735.638696L388.778270,3735.756786L391.854531,3733.591816Z M216.226383,3677.656868L220.109735,3677.302600L221.358714,3674.311005L220.859070,3673.759922L220.503121,3673.405654L218.614485,3672.893934L217.526870,3671.004505L216.835796,3674.074826L215.920200,3676.475975L216.087389,3677.656868L216.226383,3677.656868Z M802.208166,3628.334913L801.945953,3626.130580L801.870700,3625.894402L800.661447,3624.752872L799.878760,3624.004973L799.735930,3623.847520L802.282457,3628.531729L802.208166,3628.334913Z M999.862256,3541.421194L995.165854,3537.012527L995.023924,3536.894437L995.778706,3539.295587L995.928481,3539.728581L998.247247,3540.752022L999.933710,3541.499921L999.862256,3541.421194Z M789.756225,3492.925851L787.419886,3488.438457L787.713320,3491.823684L787.784787,3491.902410L789.827691,3493.004577L789.756225,3492.925851Z M214.499765,3484.344694L214.569257,3484.344694L214.189454,3483.045712L212.416875,3481.628640L211.392016,3479.542396L211.249109,3479.384943L210.471119,3481.628640L208.977604,3483.045712L208.454016,3484.344694L208.523508,3484.344694L211.139760,3486.155397L214.499765,3484.344694Z M181.360039,3479.070038L183.419276,3478.046598L182.348460,3476.905068L180.227422,3475.448633L179.863282,3474.779460L178.995034,3473.401751L178.921616,3473.244299L178.152501,3475.842264L176.535725,3477.889145L176.537686,3477.967871L176.912600,3479.070038L181.360039,3479.070038Z M279.151810,3449.232803L293.080492,3439.392025L289.592121,3438.840942L285.847579,3439.155847L282.311312,3442.226170L279.014806,3449.311530L279.151810,3449.232803Z M306.229009,3379.599459L305.846470,3378.221749L305.207035,3377.670666L304.072151,3376.765315L302.975646,3374.639706L301.987501,3376.765315L300.565354,3378.221749L300.183516,3379.599459L302.869183,3381.370799L306.229009,3379.599459Z M91.682693,3277.924523L91.752178,3277.924523L90.863314,3275.798914L88.720634,3273.555216L87.384206,3270.248714L87.379104,3270.051898L86.629953,3273.319038L85.100100,3275.956367L85.172452,3278.751149L87.576724,3280.365036L89.415937,3281.624657L91.682693,3277.924523Z M312.119909,3268.359284L312.084046,3266.981575L310.308997,3265.525139L309.072388,3263.399531L308.088547,3265.643229L306.596766,3267.060301L306.286223,3268.477374L308.900195,3270.130624L312.119909,3268.359284Z M305.663257,3231.318583L305.350245,3229.980237L304.923022,3229.586605L303.645479,3228.563164L302.475931,3226.358829L301.560957,3228.563164L300.069453,3229.980237L299.687621,3231.318583L299.688652,3231.357946L301.880819,3232.814382L302.234427,3233.050560L305.663257,3231.318583Z M302.901984,3168.731206L302.588577,3167.392860L301.591821,3166.487508L300.880298,3165.857697L299.781687,3163.732089L298.795832,3165.857697L297.377408,3167.392860L296.995988,3168.731206L299.543249,3170.463185L302.901984,3168.731206Z M716.062040,3159.008512L717.009534,3158.063798L718.481302,3155.938188L720.174128,3154.284937L718.848707,3154.088121L717.305362,3153.537037L716.069432,3154.088121L715.316710,3157.119082L716.063092,3159.047875L716.062040,3159.008512Z M719.394155,3086.580341L723.228531,3084.494094L723.531144,3082.840843L723.598491,3082.762117L719.120499,3086.737793L719.394155,3086.580341Z M745.797000,3068.670111L751.730318,3062.017741L751.866064,3061.899651L747.022963,3065.206155L745.123553,3066.898771L743.751116,3070.087185L745.797000,3068.670111Z M638.759400,3059.537862L638.894080,3059.380410L635.879769,3060.954936L635.907561,3061.978378L638.759400,3059.537862Z M92.439469,3007.932780L92.507876,3007.893416L92.078179,3007.421058L91.502039,3006.673159L90.789082,3006.003985L89.789655,3005.019907L89.309661,3002.697481L87.705334,3005.019907L85.936358,3006.397616L85.937427,3006.436980L86.010114,3006.555069L86.248488,3007.657238L86.320104,3007.735964L90.742091,3009.389216L92.439469,3007.932780Z M774.305289,2915.547462L773.891719,2905.706673L771.433510,2907.241836L768.965399,2908.422731L769.164770,2910.587705L771.023824,2912.477136L774.307484,2915.626188L774.305289,2915.547462Z M697.558170,2893.937089L699.486939,2893.346641L700.410057,2891.575300L700.475128,2891.417847L697.420321,2893.976452L697.558170,2893.937089Z M806.074452,2800.550456L807.915936,2785.027757L808.443492,2776.835221L802.563963,2770.798615L791.861605,2782.440640L786.411132,2804.862317L782.083076,2821.021926L774.943209,2825.686371L706.614777,2822.109760L705.999984,2827.283993L745.249101,2842.806690L754.122194,2847.118551L774.645352,2849.110174L787.792318,2840.219574L797.356413,2828.577551L806.074452,2800.550456Z M315.134085,2754.001038L314.941509,2752.111605L313.874878,2751.245615L312.252488,2750.379626L310.608855,2748.765736L310.466562,2748.647646L311.365034,2750.930709L311.488147,2752.820142L312.355301,2754.001038L315.134085,2754.001038Z M296.902890,2752.938232L300.417906,2751.954152L300.487376,2751.954152L288.851510,2748.293377L294.100648,2752.111605L296.834538,2752.977595L296.902890,2752.938232Z M842.075414,2674.881054L842.212068,2674.802328L836.494168,2676.455581L836.702569,2676.455581L839.353716,2676.849212L842.075414,2674.881054Z M855.428156,2661.025215L855.523673,2659.529414L855.522530,2659.490050L854.905083,2657.364439L854.969705,2654.805832L854.965131,2654.648379L853.639826,2656.852717L852.289356,2658.191065L851.840801,2659.490050L851.841944,2659.529414L853.508222,2661.891205L855.428156,2661.025215Z M876.752424,2653.782389L877.058567,2652.365315L877.053990,2652.207861L876.637990,2649.846071L877.266252,2647.563006L877.332283,2647.444917L875.206309,2648.389633L873.123467,2648.428996L872.041770,2649.452439L873.815387,2653.113215L873.955463,2653.152578L875.634097,2653.546210L876.753568,2653.821752L876.752424,2653.782389Z M902.783302,2631.660280L902.876303,2630.085753L902.258558,2627.960141L902.319364,2625.283444L902.318215,2625.244081L901.129878,2627.369692L899.783067,2628.826130L899.338149,2630.243205L901.003597,2632.565633L902.783302,2631.660280Z M926.528316,2588.518228L929.283776,2587.730964L930.881564,2585.369172L926.391698,2588.596954L926.528316,2588.518228Z M294.210952,2581.905212L282.729782,2588.400138L286.164048,2596.627044L287.696838,2596.784498L293.832570,2597.571761L294.210952,2581.905212Z M930.225237,2567.773827L930.360687,2567.655737L927.968859,2568.994086L927.970062,2571.395240L930.225237,2567.773827Z M651.412211,2546.950699L650.254421,2550.099754L649.138304,2552.304093L649.140617,2552.382819L649.192637,2554.154163L652.158634,2555.807416L651.412211,2546.950699Z M798.621177,2412.013649L798.715225,2410.517847L798.165241,2408.392233L798.159091,2405.872988L798.152002,2405.636809L796.898453,2407.841149L795.618902,2409.179497L795.105747,2410.596573L796.123032,2412.092375L796.703491,2412.919002L798.621177,2412.013649Z M671.370108,2398.000346L671.533624,2396.504545L670.981297,2394.300205L670.908069,2391.859686L670.900982,2391.623507L669.785160,2393.788483L668.367874,2395.166195L667.855892,2396.622634L669.453610,2398.945063L671.370108,2398.000346Z M741.721737,2312.542810L741.884713,2311.047008L741.883518,2311.007644L741.331622,2308.842668L741.330427,2308.803304L741.319812,2306.165968L741.318617,2306.126605L740.132963,2308.252219L738.715030,2309.590569L738.205980,2311.125735L739.366232,2312.739626L739.799683,2313.290711L741.721737,2312.542810Z M292.175738,2153.909007L300.004920,2139.738241L300.002499,2139.659515L297.232998,2139.935058L294.340327,2140.722322L292.236499,2144.579919L292.042880,2154.105822L292.175738,2153.909007Z M251.560543,2136.234913L251.697022,2136.156187L247.127891,2136.628545L247.269209,2136.707272L250.066532,2137.337084L251.560543,2136.234913Z M697.055182,2066.247069L694.086842,2064.593813L691.738605,2062.783103L689.874599,2063.137372L687.932401,2067.664146L697.055182,2066.247069Z M236.294524,2008.749327L239.111841,2005.560901L236.861877,2006.899253L236.092322,2008.946144L236.294524,2008.749327Z M249.003662,2006.544984L250.102508,2006.151350L251.269569,2005.718354L251.329196,2005.403449L251.684498,2003.435284L251.746577,2003.199105L248.935445,2006.584347L249.003662,2006.544984Z M347.998992,1923.567173L349.024487,1920.851106L349.019526,1920.693652L346.137702,1924.000169L347.998992,1923.567173Z M354.566090,1916.009421L354.522647,1914.631705L353.203180,1912.427360L352.423085,1909.711293L352.349918,1909.593204L351.369145,1911.522005L349.872474,1912.506088L349.220268,1913.844439L351.311024,1916.284964L354.566090,1916.009421Z M384.718199,1885.699684L387.340741,1885.187961L387.531275,1882.432530L384.580563,1885.739047L384.718199,1885.699684Z M400.544532,1872.355526L398.148629,1871.253354L397.867124,1871.135264L400.708369,1873.142793L403.365808,1873.733242L403.644816,1873.772605L400.544532,1872.355526Z M185.230105,1811.617955L187.215008,1810.712598L187.838014,1808.468890L187.903695,1808.350800L185.025547,1811.736044L185.230105,1811.617955Z M419.615524,1803.942110L419.551380,1801.934582L416.740642,1805.241099L419.615524,1803.942110Z M731.380121,1801.462222L733.339440,1799.769600L733.406349,1799.690873L728.365231,1800.556866L731.311948,1801.501585L731.380121,1801.462222Z M803.408151,1771.939743L812.351442,1765.051164L807.493449,1765.129891L802.519454,1765.917157L797.370171,1767.727870L792.400373,1770.798208L792.541785,1770.876934L798.995958,1772.923826L803.408151,1771.939743Z M401.494435,1749.817564L401.629513,1749.699475L398.632510,1751.510187L398.680552,1753.005993L401.494435,1749.817564Z M701.332213,1741.669360L706.235412,1740.842730L706.303576,1740.803367L704.765821,1740.488460L703.647224,1740.252281L703.577788,1740.252281L701.194614,1741.708723L701.332213,1741.669360Z M841.335321,1716.634294L841.471635,1716.555568L836.155853,1717.500288L839.511713,1718.208828L841.335321,1716.634294Z M850.134507,1707.502006L855.586530,1706.478560L855.725397,1706.478560L852.926275,1705.809384L849.995639,1707.502006L850.134507,1707.502006Z M263.169933,1699.865524L263.711087,1697.267545L260.763852,1700.613427L263.169933,1699.865524Z M645.907471,1694.000390L645.374170,1692.543948L643.646436,1690.654509L642.598968,1688.332073L642.523144,1688.135257L642.309309,1690.103422L641.390903,1691.756682L641.571928,1693.055671L644.401644,1694.669567L645.907471,1694.000390Z M579.010807,1682.309487L578.011467,1683.608476L575.588966,1683.844656L574.365989,1684.671286L575.705182,1687.426717L575.844049,1687.426717L583.926893,1686.167091L584.886640,1683.647839L584.885363,1683.608476L583.284564,1683.490386L583.076264,1683.490386L583.006831,1683.490386L580.514898,1683.726566L580.445465,1683.726566L579.010807,1682.309487Z M842.288203,1664.871538L844.944585,1656.920148L845.373742,1648.811306L845.372454,1648.771943L843.242706,1640.978006L838.767565,1633.656429L837.406405,1638.734297L842.294630,1665.068355L842.288203,1664.871538Z M595.634023,1625.626313L600.606061,1624.799682L597.794087,1623.736874L595.358870,1625.705039L595.634023,1625.626313Z M759.128474,1601.850869L753.882788,1602.795588L757.025249,1603.346675L759.128474,1601.850869Z M608.326401,1595.513374L610.155843,1594.135658L609.908547,1590.829138L609.899509,1590.553596L608.121981,1595.631464L608.326401,1595.513374Z M302.637233,1595.867644L303.835673,1592.167492L304.962022,1590.514233L305.028882,1590.435505L302.621962,1591.144045L300.261344,1591.144045L299.471860,1592.482398L299.474429,1592.561125L301.291001,1597.166633L302.637233,1595.867644Z M249.310037,1591.458952L249.959406,1590.081235L250.313071,1588.152433L251.502448,1586.302357L251.568025,1586.184267L249.441389,1586.971533L247.361064,1587.050260L246.425001,1588.152433L246.426285,1588.191796L247.594825,1592.088765L249.310037,1591.458952Z M308.933167,1567.565417L310.580141,1566.974967L311.228047,1565.557888L311.581476,1563.629084L312.838754,1561.739645L310.570804,1562.448185L308.626795,1562.448185L307.693455,1563.629084L307.694744,1563.668448L307.854221,1564.298261L308.865027,1567.604780L308.933167,1567.565417Z M198.003484,1565.990884L198.578180,1564.455715L199.071859,1562.566275L200.255952,1560.558745L197.922396,1561.385376L195.842103,1561.464102L194.971695,1562.448185L194.972982,1562.487548L196.356479,1566.581333L198.003484,1565.990884Z M692.173235,1512.653582L686.996193,1513.558938L687.136350,1513.598301L689.594982,1514.464294L692.173235,1512.653582Z M307.595407,1446.877464L309.240710,1446.247651L309.817222,1444.791208L310.171085,1442.901768L311.496876,1441.012329L311.561076,1440.854876L309.369538,1441.760232L307.217380,1441.760232L306.352738,1442.901768L307.457863,1446.916828L307.595407,1446.877464Z M303.722530,1388.895282L304.161189,1387.478201L304.720285,1385.510035L305.908110,1383.659959L305.906795,1383.620595L303.708942,1384.329135L301.770374,1384.486588L300.763210,1385.510035L300.764524,1385.549398L301.939878,1389.564458L303.722530,1388.895282Z M297.024885,1348.469141L294.610983,1348.941501L292.935643,1348.665958L292.447058,1348.587231L292.377636,1348.587231L291.237058,1349.768132L291.238377,1349.807495L292.232329,1354.609821L294.380432,1354.491731L295.091317,1352.917198L295.499445,1350.594762L297.024885,1348.469141Z M626.216512,1325.756499L626.534356,1324.890506L618.296301,1339.966662L615.954656,1346.697791L616.165571,1346.776519L616.236318,1346.815882L616.870392,1347.091424L616.945119,1347.248878L626.216512,1325.756499Z M275.986702,1300.839510L278.457065,1297.926623L279.121576,1292.927480L275.918609,1300.878873L275.986702,1300.839510Z M617.840193,1277.260874L617.837519,1277.182146L617.555730,1275.017164L616.087126,1272.655363L615.709128,1269.703114L615.701100,1269.466934L614.004582,1272.655363L611.923493,1274.741620L611.232085,1276.867241L614.669754,1279.976944L617.840193,1277.260874Z M268.020460,1260.216551L268.975485,1251.517254L268.972819,1251.438527L266.675281,1253.288603L264.356404,1254.508866L264.353612,1256.477034L265.648424,1257.815387L268.024456,1260.334640L268.020460,1260.216551Z M658.390127,1234.748473L671.739720,1225.222546L671.807791,1225.183183L668.937497,1224.474643L666.030085,1224.710823L662.588068,1227.584346L658.117836,1234.905927L658.390127,1234.748473Z M259.161655,1215.972162L256.348859,1202.667356L256.270063,1202.391813L255.064191,1209.792119L255.794705,1212.901822L259.162993,1216.011527L259.161655,1215.972162Z M651.438580,1163.579564L651.380326,1161.886941L651.303090,1159.643230L651.300380,1159.564504L651.699531,1157.045251L651.694108,1156.887797L649.674046,1158.698511L647.557452,1159.721958L646.845388,1161.217765L649.603681,1164.721101L651.438580,1163.579564Z M225.522050,1101.070587L221.171814,1103.747294L220.716722,1106.660181L220.718076,1106.699544L224.676104,1112.800861L225.522050,1101.070587Z M616.268567,1099.889687L611.942183,1105.243101L613.908947,1107.919809L621.387019,1111.963481L616.268567,1099.889687Z M209.697410,1093.040467L209.968538,1090.836120L211.441338,1089.261587L211.508036,1089.182860L209.277385,1088.907317L207.366663,1087.844507L206.345842,1088.434957L206.624333,1092.489381L207.971617,1093.316011L209.246777,1094.063914L209.697410,1093.040467Z M493.772382,990.577705L493.837656,990.459615L489.448755,993.962952L492.510946,994.199132L493.772382,990.577705Z M490.019985,966.684161L493.937796,963.613821L494.073844,963.535094L491.333516,964.558541L489.681240,966.920340L490.019985,966.684161Z M465.211637,946.057773L466.300180,943.459793L466.366817,943.381067L461.974480,946.766313L465.211637,946.057773Z M503.975591,925.392022L505.631590,925.116480L506.275663,923.699399L506.829495,921.691870L507.930213,919.448160L507.995450,919.330069L506.306169,920.629059L504.943072,921.337600L503.946434,922.597226L503.838169,925.431387L503.975591,925.392022Z M463.677445,904.490092L463.813473,904.411366L461.076239,905.513539L459.632745,907.875339L463.677445,904.490092Z M507.372292,887.957492L507.369504,887.878765L505.376599,890.398019L503.357194,892.169369L502.947983,894.334352L505.377556,898.270686L507.372292,887.957492Z M300.231342,859.300986L304.283946,856.151919L304.418567,856.033829L301.272080,857.332819L300.098113,859.458439L300.231342,859.300986Z M482.948733,847.058989L482.657930,844.736553L481.324682,842.374753L480.797616,839.265050L479.242636,842.374753L477.027998,844.500372L476.477577,846.586629L479.918024,849.656969L482.948733,847.058989Z M378.105978,797.028195L380.720681,796.398381L382.565470,793.642948L377.967179,797.028195L378.105978,797.028195Z M451.415510,793.800401L454.659409,791.359875L456.275067,786.085189L456.269432,785.927735L451.548680,793.642948L451.076957,794.036582L451.415510,793.800401Z M339.322627,775.968813L341.804092,775.496453L343.301692,772.741020L343.366866,772.622930L339.046439,776.008176L339.322627,775.968813Z M444.009345,759.475577L442.637088,757.979771L441.717955,757.507411L440.798821,757.035051L439.736795,754.515798L439.661743,754.358345L438.869804,757.428685L437.436288,760.026664L438.188182,761.640561L438.267466,761.916104L443.381563,763.254457L444.009345,759.475577Z M373.604893,752.705086L377.383821,749.713472L377.652935,749.477292L374.650287,750.894372L373.335775,752.941265L373.604893,752.705086Z M231.740827,736.802300L231.232459,736.172487L230.872766,735.818217L229.312143,734.873497L229.099715,734.755407L227.713391,732.865967L227.709154,732.747878L227.422886,734.440500L226.455337,736.487394L227.132136,737.943836L231.120249,738.849193L231.740827,736.802300Z M430.523105,731.803157L428.456776,732.236154L426.577385,732.078701L425.212110,732.708514L424.613040,735.345857L426.305483,736.093761L427.520644,735.149040L428.570091,733.456418L430.523105,731.803157Z M291.587678,718.222809L290.718102,717.199363L288.882638,716.333369L287.695811,714.207750L287.202959,715.939736L286.299378,717.829176L286.841785,719.403709L291.036729,720.269703L291.587678,718.222809Z M2.221763,672.325170L0.856534,672.954983L0.066290,676.064686L1.034973,677.914763L2.112727,677.009406L3.419905,674.765696L5.091032,672.994347L5.159011,672.954983L3.632325,672.954983L2.221763,672.325170Z M188.970541,649.494441L188.967692,649.415715L188.464839,648.943355L188.031379,648.470995L186.328882,647.447549L184.864054,645.321929L184.374458,647.132642L183.540728,649.022081L184.210857,650.281707L184.359615,650.557251L188.278434,651.462608L188.970541,649.494441Z M304.858777,651.423244L307.272750,649.100808L309.293489,644.189519L304.725697,651.580698L304.858777,651.423244Z M179.807856,637.921624L179.805003,637.842898L179.517445,637.567354L178.868656,636.898178L177.166127,635.874731L175.702646,633.788475L175.350490,635.559825L174.380912,637.527991L175.048236,638.708891L175.197006,638.984434L179.115835,639.889790L179.807856,637.921624Z M228.677918,533.766276L229.438358,531.798111L231.189013,530.341668L229.575726,529.869308L228.008705,528.767135L227.937871,528.727772L226.644048,529.396949L225.977520,533.923730L227.885688,534.868449L228.677918,533.766276Z M201.909749,530.420394L202.665857,528.334139L201.590350,527.389419L199.890341,526.444700L198.493919,524.319080L198.144061,526.129793L197.377856,527.940506L197.921358,529.515038L201.911194,530.459757L201.909749,530.420394Z M288.869165,513.848438L288.798328,513.809074L288.539441,512.431359L287.908964,510.384466L288.166015,507.943941L288.229604,507.786487L286.876641,508.731207L285.023459,509.282293L284.592827,510.778099L286.217919,513.454804L286.958170,514.714431L288.869165,513.848438Z M296.796677,472.949953L297.696736,471.021151L299.445439,469.525345L297.897087,468.934896L296.263323,467.911450L296.192480,467.872086L294.830973,468.580626L294.167264,473.146770L296.145032,474.091489L296.796677,472.949953Z M318.885297,424.966076L316.450977,424.808623L314.289802,424.533080L312.748135,425.989522L312.545526,431.736566L318.885297,424.966076Z M340.334702,395.443595L344.103745,394.183969L345.606923,391.704080L346.519696,388.279473L348.455497,384.382505L348.454025,384.343142L342.801416,385.327224L340.682687,388.043293L340.266788,395.482958L340.334702,395.443595Z M287.970604,342.224405L287.843591,340.689237L287.295847,339.035978L287.214640,338.721072L287.213162,338.681708L287.539266,336.280547L287.536308,336.201820L286.045411,337.146540L284.398008,337.618899L283.695422,339.232794L285.390202,341.870136L286.129817,343.090399L287.970604,342.224405Z M184.132122,335.493280L185.031108,333.564479L186.640130,332.068673L185.165410,331.596314L183.529773,330.533504L182.167269,331.202681L181.505981,335.768824L181.578315,335.847550L183.274456,336.674180L184.132122,335.493280Z M369.966631,369.621266L380.622029,359.583622L386.994175,346.357552L397.516455,316.244627L396.581441,313.528558L396.490841,311.127397L396.487870,311.048671L395.328768,309.749681L391.324049,310.261405L386.025111,327.974891L372.923453,354.112124L369.832291,369.739355L369.966631,369.621266Z M410.732282,276.763237L415.527607,275.149342L421.993893,270.032113L408.585202,267.709679L408.151120,274.558893L410.733774,276.802601L410.732282,276.763237Z M247.011524,260.584922L247.977658,258.616758L249.655443,257.120953L249.723329,257.081589L248.109750,256.609230L246.476785,255.625147L244.971356,256.176234L244.453489,260.821103L244.524357,260.860466L246.290098,261.687095L247.011524,260.584922Z M373.828782,258.616758L374.589601,256.727320L376.336634,255.231514L374.790900,254.719792L373.086981,253.696346L373.085486,253.656983L371.720355,254.247432L371.062637,258.852938L373.041061,259.797657L373.828782,258.616758Z M231.178718,252.869717L232.952701,252.082451L232.832607,250.744099L232.829623,250.665372L232.195530,248.579117L232.517775,246.099230L231.092196,246.925859L229.380151,247.516309L228.746063,249.090841L231.109341,252.869717L231.178718,252.869717Z M334.099636,250.114287L334.863417,248.303575L336.541045,246.807770L336.607432,246.729043L335.131076,246.217320L335.060204,246.177957L333.425658,245.154511L332.134404,245.863050L331.337991,250.468555L332.183966,250.822825L333.239569,251.216458L334.099636,250.114287Z M219.218205,242.989530L219.865695,241.769267L220.837663,239.958557L222.518319,238.541478L220.968130,237.911665L219.400015,236.809492L217.834225,237.596758L217.241313,242.084174L217.381561,242.123537L217.594170,242.241628L219.219698,243.028893L219.218205,242.989530Z M342.414270,209.727548L342.341892,209.648821L342.082712,208.310470L341.518988,206.263578L341.837595,203.704965L341.836093,203.665602L340.415266,204.610320L338.561659,205.122043L338.137612,206.735938L340.504782,210.593540L342.414270,209.727548Z M429.456612,209.097735L432.633909,196.029123L432.950970,182.566879L432.947953,182.488152L428.797551,182.803058L425.431281,189.101184L423.216851,198.312194L422.790748,207.129571L425.590410,215.041593L429.456612,209.097735Z M186.337798,148.438909L185.941137,145.329210L185.926050,144.935578L184.970550,150.469215L186.337798,148.438909Z M414.124432,151.154977L414.540671,151.154977L415.225322,150.918797L417.737412,131.473335L414.007992,131.906331L412.257757,135.094757L411.866784,141.156702L412.851504,150.525164L413.421622,150.918797L413.843913,151.076250L413.985686,151.154977L414.124432,151.154977Z M154.708202,117.814276L155.804309,115.649296L155.680211,112.421507L154.640343,117.853640L154.708202,117.814276Z M229.169886,77.112647L229.162278,76.915831L227.200434,81.796877L227.201954,81.836240L227.203475,81.875603L227.406642,85.339571L231.132980,90.220618L229.169886,77.112647Z M202.698878,49.164723L202.694300,49.046632L200.920506,51.605245L201.659209,54.557491L202.698878,49.164723Z M169.708269,14.170776L169.703676,14.052686L167.039691,15.115494L164.426697,15.705943L164.362959,17.634743L169.229365,23.263690L169.708269,14.170776Z M144.392741,0.000000L143.494358,5.432130L145.150385,3.424604L145.076822,1.535167L145.075289,1.495804L144.392741,0.000000Z "/></g></svg>