<?xml version="1.0" encoding="utf-8"?><!DOCTYPE svg  PUBLIC '-//W3C//DTD SVG 1.1//EN'  'http://www.w3.org/Graphics/SVG/1.1/DTD/svg11.dtd'><svg enable_background="new 0 0 1000 2782" height="2782px" pretty_print="False" style="stroke-linejoin: round; stroke:#000; fill: none;" version="1.1" viewBox="0 0 1000 2782" width="1000px" xmlns="http://www.w3.org/2000/svg" xmlns:xlink="http://www.w3.org/1999/xlink"><defs><style type="text/css"><![CDATA[path { fill-rule: evenodd; }]]></style></defs><metadata><views><view h="2782.6454764" padding="0" w="1000"><proj flip="auto" id="robinson" lon0="33.7400052006"/><bbox h="130.03" w="46.74" x="479.85" y="157.31"/></view></views></metadata><g class="" fill="black" id="country"><path d="M661.732423,982.378252L668.436267,978.153254L673.591363,971.482207L677.352896,962.587480L678.615220,953.507448L676.273134,946.280487L671.383881,942.463168L664.348707,939.646507L657.596862,939.201771L653.332265,942.426107L647.021073,957.991872L644.706938,966.404800L644.567014,973.928258L648.366676,981.303472L654.567407,983.712462L661.732423,982.378252Z M637.364324,957.880688L640.746491,945.465137L636.763508,934.494982L627.810266,928.491048L616.439685,931.159463L616.140002,931.381831L609.715561,937.126337L610.243823,943.130273L618.302966,953.766878L622.135006,960.178492L625.923789,964.848223L630.665502,965.070591L637.364324,957.880688Z M753.227529,2780.645476L771.117074,2778.505539L771.198940,2778.495746L773.755502,2774.418669L775.707194,2769.489110L776.804405,2763.521746L776.736395,2756.257122L774.642546,2742.765662L775.309713,2736.983601L778.955036,2730.423182L780.763941,2725.753050L779.037930,2722.676692L769.242054,2716.042134L767.867988,2714.374228L767.847482,2712.113287L769.453831,2710.297121L771.437321,2708.703343L772.519434,2707.035436L772.461835,2693.432712L773.567933,2685.871517L781.741924,2678.532705L780.585845,2669.600104L774.982514,2655.626685L774.061258,2648.510242L774.285059,2624.788738L773.404911,2622.898429L766.304121,2613.780464L765.462754,2613.113295L762.872916,2611.816023L761.936278,2611.111790L760.798870,2609.184414L759.357580,2605.477921L758.015521,2603.772934L756.068627,2602.549791L749.352050,2599.621660L746.500507,2599.065686L743.067812,2597.805478L741.398636,2594.803216L740.279901,2591.096720L735.684732,2582.238190L731.291388,2566.300237L735.413387,2563.223840L757.997396,2547.137611L762.533328,2542.133827L764.547708,2535.721569L765.117675,2521.451509L766.570831,2516.610641L767.109267,2514.816854L774.944035,2504.957533L776.342478,2501.325150L773.059088,2491.243433L772.523057,2487.462788L775.428506,2470.857598L781.810130,2457.402941L789.116957,2448.338954L791.042922,2445.949801L813.862485,2424.044273L819.956837,2419.596450L827.137516,2417.557864L833.301093,2417.928516L839.649945,2419.892972L844.649293,2423.747752L846.636632,2429.752313L849.193610,2432.532203L853.264664,2434.756114L857.171295,2434.941440L859.362754,2431.642638L860.558737,2426.082859L862.209779,2423.970143L869.821206,2423.117643L900.151095,2413.147106L903.395704,2412.961780L909.260850,2414.184931L912.154656,2413.888410L915.541426,2412.035149L939.036767,2394.577441L944.036665,2388.647009L947.372905,2380.900382L947.957184,2375.266472L946.714443,2364.332238L946.846474,2358.661264L949.431369,2349.528716L953.223985,2336.125629L958.721607,2284.530928L962.136459,2252.766129L966.937105,2207.954490L969.962528,2179.539971L969.997523,2179.210898L971.563334,2164.477306L964.401115,2124.187829L958.524451,2090.683400L957.502061,2084.862170L957.768949,2076.485564L960.231954,2067.515933L977.141363,2027.893983L986.735553,2005.211984L999.820250,1974.300441L993.068153,1974.522826L989.045984,1973.818608L987.106573,1970.631093L987.048971,1895.613643L985.487419,1889.498119L982.040126,1884.272128L967.477730,1867.074562L956.731820,1851.026185L946.056170,1835.088656L914.980998,1788.722254L889.325651,1750.472917L870.050055,1705.367051L844.543977,1669.601238L817.324314,1631.463520L785.241336,1586.580518L759.272939,1550.185013L732.814872,1522.128674L701.936229,1489.402533L692.581917,1482.788052L692.344406,1482.620115L681.978149,1478.357942L671.296667,1476.504824L631.065897,1477.283134L626.040193,1476.171263L622.733883,1474.206958L621.845670,1472.724463L621.566041,1470.574847L620.215217,1466.609176L614.305949,1453.933863L610.836834,1448.337456L605.701686,1442.389225L604.693516,1441.221499L604.328955,1440.517316L594.928218,1414.462565L595.186900,1385.072271L598.298062,1354.699890L595.901948,1318.935051L593.023030,1276.017348L589.562434,1225.724457L586.813358,1185.549541L571.696981,1116.577844L555.558317,1043.455473L548.744571,1012.546574L548.311154,1010.581977L550.317371,994.423203L557.586965,976.300186L593.233604,919.003351L618.460628,878.421236L632.323994,843.175980L635.129182,829.018587L636.185803,814.527647L634.539591,798.961935L634.702906,792.439162L637.867055,787.843573L648.824876,784.878676L747.453898,786.138757L747.027371,783.025616L747.587149,764.457956L747.028190,759.232328L745.592819,755.007353L744.192384,751.783029L743.540754,749.633480L742.285126,747.002136L739.408787,744.148425L736.559977,740.368185L734.147877,730.658156L728.419847,725.173102L727.165671,722.467636L725.008140,715.092463L719.293226,709.125615L711.809051,704.641213L698.355034,699.489711L695.794512,699.119100L693.423735,700.045629L689.304738,703.974112L687.213972,704.233540L685.276494,701.491014L678.738565,686.888916L680.658990,685.777081L683.429996,683.405167L685.320035,682.219209L685.384950,679.995540L680.497553,676.808280L676.549273,671.545596L673.952235,664.578098L673.180528,656.387583L672.492556,653.163262L670.619698,650.383676L668.169791,648.419435L662.518838,646.825806L661.086534,644.565075L660.200655,641.414877L658.641687,637.894068L644.049254,623.403158L641.852664,617.102763L641.191457,608.319270L637.409395,593.605994L636.249637,586.267887L638.067867,577.224966L644.598118,568.182335L647.622553,563.994135L653.829440,549.354981L654.617033,545.648866L655.061006,529.749630L659.754370,507.327629L658.808679,497.951155L660.813992,494.912139L664.745827,491.687818L664.059298,487.055172L662.240761,484.497951L660.234858,482.830199L658.955592,480.791835L658.445704,479.198204L656.549556,475.899760L660.925513,468.339280L660.878788,460.519372L658.079507,453.292442L651.549813,444.286574L650.760319,442.174086L651.207789,435.280705L650.441707,431.092791L649.342771,430.729612L648.310996,430.388628L645.569933,430.573934L642.937079,429.165609L640.506496,425.088878L638.548721,420.382105L637.216590,415.415905L636.982330,412.592915L636.822894,410.672071L637.597697,406.076482L640.744844,398.034199L641.520121,394.624567L640.362714,387.953549L634.606569,376.575754L633.411381,368.829957L640.828692,329.693281L641.026473,325.875970L640.458687,321.428619L638.023899,313.608690L635.521852,294.559190L625.745663,268.097417L623.648115,255.867179L624.390888,252.309291L627.372322,245.304698L628.129030,241.190889L627.804578,237.299447L624.434007,225.032136L615.332347,209.953966L611.933348,202.578730L581.545474,158.697894L581.223653,157.215432L575.672812,151.026153L574.260647,150.136676L567.453866,141.983134L565.698760,139.129394L564.300744,132.347127L563.675560,125.935474L561.803248,121.191592L552.477088,117.337187L522.686093,80.868564L513.671445,76.161737L508.388114,69.453581L506.045579,67.896992L495.701018,53.294702L491.397697,50.552140L488.493425,46.549480L488.084322,46.240941L478.468209,38.988900L467.619847,34.504437L462.379721,39.656010L458.416236,44.585212L450.819161,51.515743L445.911167,60.521725L451.398109,76.532354L450.661732,82.795769L448.185936,93.617762L447.800293,100.177667L446.579712,104.847429L443.883642,108.516528L439.139291,111.963256L439.080334,114.409321L433.744622,120.746853L430.133708,117.744864L426.882477,110.629039L419.460990,103.402027L410.673116,97.398046L403.354918,93.988378L395.316871,87.947334L387.482665,78.793113L378.987067,72.752067L368.790394,75.902306L360.319524,81.202119L352.272125,82.388091L352.114326,82.356774L343.868504,80.720318L334.332368,77.310648L323.669566,76.050553L315.924016,79.645530L308.376080,84.537665L298.500955,87.206102L285.420850,86.168376L279.374663,84.055864L274.608076,80.201455L270.967691,73.493300L265.850951,60.188170L260.159678,53.998874L242.753951,39.804257L237.165236,37.580556L234.347764,38.173543L229.274023,41.879710L226.545806,42.843313L222.773440,42.435635L216.271851,40.211935L211.869752,40.248996L209.756730,41.397908L205.327468,45.437630L202.432868,46.549480L201.277190,45.771185L192.129524,41.657340L183.685392,39.544825L180.846255,38.247666L161.803135,21.310478L146.425079,3.632047L140.964582,0.000000L134.828195,0.296493L128.750967,3.743232L123.761157,9.561920L123.969733,30.501776L125.358609,35.356856L128.357967,38.210605L130.298437,37.469371L132.441104,35.727472L136.113082,35.542164L138.199149,36.987569L142.653890,41.768525L145.423627,43.250992L145.329188,53.035270L139.157054,78.904298L142.777347,88.651505L146.913699,90.208093L150.443124,88.429135L153.994113,85.723637L158.275817,84.537665L161.705291,86.353684L162.887676,90.171032L163.503659,94.507241L165.086485,97.916909L171.995593,100.770653L174.919845,94.210748L176.210339,83.611125L178.252339,74.308656L185.462321,78.274250L202.455690,79.274914L208.646722,84.278234L212.983321,93.284207L214.272821,98.065155L214.617413,103.513211L213.646557,107.367618L211.948604,110.258423L210.842282,113.631028L211.564647,118.930835L214.427074,124.008272L222.201470,129.493385L225.557088,133.681343L229.888256,143.428535L232.490066,147.764737L236.180578,151.545015L239.971620,153.842831L251.524495,158.660832L253.511082,161.440448L258.124036,175.597953L259.902662,185.604562L257.470530,193.165109L247.719615,209.509228L241.374652,226.440468L239.490962,235.483440L239.067665,244.748778L243.142217,251.308635L268.566544,264.168917L275.023711,270.506403L280.014092,276.843888L285.583896,282.143655L293.681691,285.367988L299.329073,294.040332L305.460948,298.969484L309.826908,304.788106L310.274238,316.091796L307.777632,336.141940L308.698617,344.740151L316.406317,366.865712L318.969811,371.053631L327.537809,379.874202L329.868862,382.950284L335.608159,399.034852L340.313890,405.335257L348.864265,406.595338L348.666976,416.008884L350.727246,422.531655L350.909226,426.047967L350.977514,427.367946L351.051324,428.794997L345.643193,437.504377L340.625624,442.507637L328.016238,452.551218L323.923679,454.589583L319.639869,457.702723L303.787302,477.048656L298.274427,491.465451L294.640017,497.691727L288.073140,502.139067L283.259191,503.139718L277.356285,509.551299L273.163977,511.663785L268.335935,511.367295L257.960041,509.069504L253.589789,509.921910L249.157321,511.886152L241.164903,513.628027L236.855358,515.258717L232.912791,519.001895L226.732898,529.082529L222.007232,532.269789L218.167688,532.158605L214.905521,531.157954L211.927768,532.306850L208.974932,538.607246L208.560033,543.758746L210.998356,545.722988L214.938431,545.722988L219.288178,545.018826L223.729327,549.392042L225.801589,560.695693L226.482098,571.534360L227.143273,582.079977L229.910197,592.864771L234.180738,602.797159L239.761701,611.803018L246.560667,619.697043L256.104175,639.561820L253.072371,650.272493L248.463308,660.316066L225.291782,698.526121L224.754169,700.860975L225.730884,704.900642L225.246157,707.087250L223.441527,708.755003L218.558527,711.089857L217.072060,713.017037L216.409046,718.057356L216.896532,722.690003L216.701392,727.285589L213.910221,732.177664L206.097226,724.765429L202.991838,729.842810L203.588333,760.381225L203.104360,764.791506L200.862213,771.499583L195.921312,782.655004L196.882817,785.434594L202.091716,787.621205L207.329861,787.658266L212.884358,786.879982L217.997126,787.880634L222.102919,793.328631L223.790686,799.110180L225.670687,857.370439L224.210512,870.490125L219.646293,884.017489L219.508572,889.761987L222.821221,897.618980L223.905213,902.733438L222.681166,908.329694L220.705378,914.037136L217.213328,932.345425L203.849689,965.107653L202.350882,977.004352L202.438962,989.086363L204.635804,994.905001L213.191916,1004.392721L216.683313,1009.321888L220.258580,1021.033298L225.047813,1046.012714L230.798223,1056.649357L241.718787,1060.985550L265.148130,1053.128516L277.289071,1057.946509L282.562549,1057.761201L286.124347,1059.280722L286.383370,1066.581836L283.373105,1072.363430L282.006738,1073.271125L273.609998,1078.849194L271.147514,1084.779036L266.337646,1085.742636L264.823054,1088.411066L264.284916,1097.231711L261.370529,1101.493789L251.692407,1105.792929L248.000153,1109.462023L242.813188,1117.726753L236.129653,1124.990822L228.783904,1130.068261L221.770428,1131.847217L219.296596,1130.920677L216.722071,1129.067598L213.720165,1127.362764L209.797037,1127.029210L201.392767,1128.585797L198.818316,1129.808829L195.064291,1134.404468L189.440161,1146.708923L184.927038,1150.118593L181.721046,1151.267503L179.761886,1152.564660L178.322841,1153.861818L176.692286,1155.047790L174.739700,1157.160303L173.621657,1159.606372L172.069730,1161.385331L168.846874,1161.533578L167.571889,1159.717557L164.085546,1151.786366L161.970040,1149.303237L158.992443,1148.376697L156.609986,1148.673189L151.589357,1150.155654L149.034620,1151.786366L146.088242,1154.491865L143.311830,1155.937269L141.175336,1153.602386L139.931712,1150.785702L138.303459,1148.821436L136.143019,1148.265511L133.536246,1149.488545L128.943241,1153.898879L125.473840,1158.753954L115.138377,1180.212657L103.191848,1199.114125L98.654761,1208.861359L97.348975,1215.124794L98.354396,1241.438654L100.275982,1245.330144L108.564640,1251.297096L116.023933,1259.265389L118.421277,1267.974923L116.633542,1277.944565L107.305027,1299.848149L101.088505,1339.541519L101.255344,1345.767938L102.371356,1351.771988L104.605310,1357.850165L109.365216,1366.096475L110.200869,1370.247428L108.344025,1375.250811L98.787932,1378.326966L90.603750,1389.408540L84.400513,1403.380972L79.273049,1423.657675L74.425796,1442.815176L68.338846,1456.565286L59.225869,1461.902260L53.411096,1462.902943L50.647742,1466.794488L49.773221,1472.427964L49.744757,1478.950940L48.070033,1487.067602L43.869044,1490.254968L32.226514,1492.182213L27.918328,1495.184269L19.165686,1503.263878L15.180027,1503.968064L9.411645,1501.744318L4.914696,1501.262506L1.799485,1504.042190L0.179750,1511.491742L3.489294,1522.869924L13.337673,1525.390174L24.860156,1525.501361L33.029556,1529.615300L44.292870,1548.368947L45.895986,1552.668206L43.081648,1556.559778L31.326658,1562.675108L27.810382,1566.677871L29.256975,1576.351221L38.155277,1580.872866L49.653033,1583.467253L59.138201,1587.432960L63.605594,1591.917547L78.474016,1613.376872L79.529616,1618.825102L80.020858,1624.162144L81.734580,1629.795692L84.244956,1632.204777L89.936822,1631.871211L92.416676,1633.316662L94.092853,1636.355815L94.154882,1638.246020L93.497528,1640.284478L91.743424,1658.371168L93.169508,1663.819418L100.123042,1674.345298L105.938342,1672.825716L116.398966,1655.035506L120.843124,1649.698448L125.318116,1647.104045L136.335180,1643.546009L139.287316,1640.432729L142.632789,1631.352332L145.853110,1629.350939L150.182717,1633.501976L159.209797,1654.034807L164.303737,1661.225013L181.212408,1671.899142L188.029686,1678.051596L191.128598,1688.243922L188.883183,1706.071250L190.008180,1712.520228L197.326978,1726.937786L199.832730,1730.236408L204.205293,1733.497967L206.950110,1734.721052L209.118180,1737.056032L209.921059,1738.932671L213.937939,1748.323250L219.133160,1756.884860L233.662495,1792.762164L239.050003,1801.249685L242.966761,1804.881902L255.948480,1811.516261L259.977280,1815.593243L261.874216,1819.855545L263.308323,1824.340229L265.790615,1828.973170L269.270041,1832.123571L277.534871,1836.497071L281.013832,1839.647474L283.499267,1844.169232L287.423309,1857.731472L289.107152,1863.553512L291.581099,1868.334727L295.166625,1872.041097L300.606091,1873.931346L303.781899,1871.485141L305.036173,1865.073123L305.548156,1852.693863L308.626144,1842.278989L313.689110,1834.199130L320.427955,1831.864127L336.750880,1846.318921L345.566022,1847.319638L354.625674,1843.687405L373.332650,1831.308173L382.022356,1828.861980L391.199761,1828.899043L424.025876,1833.828495L426.561513,1832.012381L430.545750,1822.968879L432.991104,1819.299593L443.230217,1814.555466L466.124805,1813.851260L497.647852,1801.472066L500.028743,1801.138495L505.032020,1801.768573L507.551319,1801.212622L510.019453,1799.470641L512.370807,1797.395089L514.805060,1795.690173L517.582463,1795.171285L526.169678,1800.397227L528.624975,1804.586160L532.556104,1811.293880L541.888029,1834.680956L548.790866,1844.688122L564.422706,1862.701048L569.093765,1874.079601L569.005008,1886.051188L563.901594,1907.399940L566.390890,1919.668083L571.176414,1931.232027L574.120356,1941.795259L575.411791,1953.099784L574.428851,1979.563550L574.928330,1985.567945L576.482292,1992.721335L579.066025,1998.466290L582.280429,2003.840606L584.324496,2009.289054L583.491460,2015.329155L580.970962,2020.629360L574.177613,2030.488493L572.121111,2035.529257L572.623149,2040.607087L574.413490,2045.091890L575.053888,2049.168984L572.005897,2053.097822L571.005378,2059.213470L573.234506,2086.648934L575.295550,2112.104718L573.667370,2121.482100L567.505993,2130.785360L563.144907,2134.306516L558.960636,2136.715729L554.979541,2139.680915L551.192324,2144.944121L549.545348,2149.391902L547.603617,2158.472794L545.340738,2162.920580L538.840668,2167.220108L532.215926,2178.228388L526.442017,2181.453037L522.265867,2187.457558L521.715527,2199.540737L523.634254,2221.186700L522.013993,2235.456741L517.797288,2246.835716L497.131824,2276.772289L496.995580,2276.969642L493.499076,2279.193549L486.926715,2281.417457L481.494200,2284.234407L475.718805,2288.978744L466.350267,2299.653505L462.590293,2308.660337L460.456322,2321.188363L460.478641,2333.975849L463.439535,2343.946383L467.157490,2347.727032L477.338423,2353.212680L481.764899,2356.326157L506.534913,2386.756683L511.446769,2394.911028L512.388230,2404.992762L505.170421,2428.158510L503.361022,2440.352958L514.856513,2471.710096L520.657160,2478.641282L531.409961,2479.086063L545.185911,2481.347038L551.809409,2489.353110L559.442172,2514.186748L562.551592,2519.746514L566.269991,2524.009000L576.004078,2532.496907L577.988816,2535.054398L579.486535,2538.353189L582.845117,2548.990863L584.710369,2550.621726L587.026810,2551.585417L606.311569,2563.260905L610.125451,2568.190553L615.162231,2580.199615L618.108822,2584.980999L632.023936,2598.620907L634.315667,2603.550544L636.216598,2611.297115L639.031239,2616.782722L643.668656,2619.933238L649.043270,2622.527781L651.789671,2624.829019L653.864810,2626.567853L655.050955,2629.533043L655.727030,2636.464172L657.022094,2639.169905L659.092943,2640.504240L663.832194,2641.467926L665.923941,2642.357481L670.028635,2645.804511L672.559565,2649.029150L677.910686,2657.554054L686.740795,2665.634175L695.585211,2667.265024L704.942429,2666.264276L715.238364,2666.597859L722.010030,2672.379959L724.356793,2683.499376L723.929417,2696.509078L722.440696,2708.036180L718.318202,2717.858298L711.175173,2723.269725L703.051437,2727.569213L695.966571,2733.796053L692.973742,2744.989530L702.322059,2762.261556L700.908101,2771.490586L705.443316,2776.605465L721.751058,2779.459418L753.227529,2780.645476Z "/></g></svg>