<?xml version="1.0" encoding="utf-8"?><!DOCTYPE svg  PUBLIC '-//W3C//DTD SVG 1.1//EN'  'http://www.w3.org/Graphics/SVG/1.1/DTD/svg11.dtd'><svg enable_background="new 0 0 1000 2792" height="2792px" pretty_print="False" style="stroke-linejoin: round; stroke:#000; fill: none;" version="1.1" viewBox="0 0 1000 2792" width="1000px" xmlns="http://www.w3.org/2000/svg" xmlns:xlink="http://www.w3.org/1999/xlink"><defs><style type="text/css"><![CDATA[path { fill-rule: evenodd; }]]></style></defs><metadata><views><view h="2792.90465888" padding="0" w="1000"><proj flip="auto" id="robinson" lon0="33.7439617002"/><bbox h="129.72" w="46.46" x="479.96" y="157.54"/></view></views></metadata><g class="" fill="#000" id="country"><path d="M665.968468,979.665340L674.663317,971.632924L678.243835,961.063958L678.473189,950.847294L673.293693,944.470688L665.804542,940.736322L654.634596,942.955804L650.269740,956.906832L647.963740,976.107120L654.746875,982.554192L665.968468,979.665340Z M642.459842,944.682067L637.282132,934.254029L627.046452,929.321850L615.078548,933.338052L610.741655,946.478790L622.514112,963.494820L635.583685,963.776659L642.459842,944.682067Z M745.019253,2790.904659L767.629421,2786.359639L773.625966,2778.608437L775.729349,2674.283674L762.454901,2613.471152L747.377742,2589.688664L744.095404,2584.967396L750.720191,2564.990074L771.012902,2518.270550L788.506828,2472.008981L799.157456,2452.524847L811.050357,2440.756850L887.481663,2428.248946L922.498735,2417.397018L937.738368,2403.867340L950.721162,2367.929136L964.354390,2267.513684L971.843426,2173.194008L966.428748,2117.877931L980.948624,2034.552015L999.820911,1983.008043L992.022438,1972.896314L988.781009,1903.312428L942.352043,1829.219385L882.406233,1733.811771L848.823867,1682.444226L810.534015,1624.065901L740.156289,1532.641166L707.547003,1499.524087L690.205808,1486.664818L630.888593,1476.095565L615.686521,1458.480162L601.561534,1430.436486L597.714633,1378.541738L598.082192,1339.717677L593.620875,1273.731079L584.626312,1180.300392L580.127626,1152.856093L565.424854,1082.572069L551.336369,1015.705552L550.900326,999.182712L557.156350,983.117871L586.211768,933.901730L606.897202,898.988962L616.700177,879.894404L634.862207,827.930474L639.520200,802.741199L652.854092,791.361992L705.891236,786.676436L747.965246,787.557180L746.174480,775.156313L742.094227,746.197479L728.149575,720.973005L715.907983,705.965151L700.276481,701.984195L691.697625,702.266032L685.169697,690.640232L677.781631,664.922555L666.378200,643.009688L650.931240,624.866399L641.849296,608.026609L639.040012,592.525548L642.060057,575.474381L658.043520,533.128297L663.523665,504.134259L662.671501,474.400391L655.485110,443.926689L639.682742,407.675300L641.851185,397.247296L636.813111,372.516011L636.683117,355.218197L640.503915,333.622343L638.056695,305.227126L625.123931,244.631805L625.518997,229.130660L610.958193,199.789980L565.683122,130.422018L563.704271,121.403115L491.672711,51.506538L462.532685,36.216643L451.592931,49.322268L447.338625,61.441443L449.903681,83.812584L447.839453,94.945304L444.619723,99.983211L427.161216,99.243379L416.222713,96.671580L388.751369,77.893921L367.107302,73.278773L313.046240,76.660867L293.977886,81.064634L279.203312,76.837017L251.380679,44.777576L218.036032,38.048612L187.982359,36.392794L139.164838,0.000000L127.473130,1.691050L121.893334,4.474237L122.760590,14.056853L131.149297,32.165172L139.992617,45.200338L140.261968,64.436006L144.250595,82.191998L157.410656,86.595765L168.384803,87.723129L178.847674,74.899360L192.660940,75.216431L207.592046,83.389823L212.502297,103.893754L223.684803,131.514150L242.413623,150.362239L254.834178,168.540947L249.632356,201.657171L240.775201,231.949050L266.056321,261.859206L299.138492,290.289684L307.957681,302.901958L309.642752,345.072022L314.385061,359.410540L336.455115,394.499376L347.056075,417.786233L345.927617,431.279219L282.476665,500.752208L262.763411,507.481080L244.208219,511.426806L227.295847,525.730061L216.932052,540.526531L220.343396,548.347522L226.199080,572.198020L239.567203,609.717634L251.872492,635.963750L240.096110,668.868280L214.083198,724.707354L202.650025,729.674743L199.435480,771.950408L206.478533,787.381031L218.255689,799.464833L222.369950,828.212313L221.586193,867.599205L219.345302,899.411720L201.513903,980.369938L227.137663,1050.970749L236.356313,1058.686118L274.761713,1059.179338L281.187858,1065.203669L271.346813,1085.284782L254.070538,1105.859133L243.382082,1116.463386L193.730758,1140.525547L122.677941,1167.194766L107.187547,1192.771883L96.635303,1229.939791L103.809894,1251.712115L112.730672,1264.289344L108.644659,1296.701291L101.402299,1330.910054L102.577701,1357.826165L98.599822,1381.677260L89.036382,1393.373823L75.535408,1429.309103L59.181001,1465.385397L46.670558,1481.873422L28.487311,1499.030854L0.179089,1513.510758L0.456465,1520.697869L31.392561,1537.362119L39.108917,1548.882659L41.766810,1556.739180L34.741217,1564.384320L27.979667,1575.059339L42.096157,1586.086679L59.511444,1595.387701L75.446279,1619.380146L89.179132,1652.920328L93.075657,1664.652369L96.333331,1669.267679L101.742437,1669.831382L112.378747,1664.898988L132.384751,1646.543458L146.659901,1639.955204L162.682141,1666.096855L175.495665,1676.807199L218.444150,1765.696416L252.890260,1817.874709L292.438155,1866.248217L299.434968,1863.887669L311.803040,1852.578184L332.609148,1847.892327L398.822996,1837.005645L423.976320,1836.336238L441.036793,1823.370886L475.157511,1814.140130L514.436456,1808.679190L527.621120,1814.527680L566.282670,1877.064469L570.315062,1924.909798L576.040223,1994.035831L576.683067,2027.787322L574.129201,2072.885371L567.134983,2129.293457L530.990866,2194.193038L523.228298,2226.537237L503.181287,2276.498212L478.473503,2301.091170L465.959358,2321.279960L465.718139,2342.243897L477.562031,2359.790191L503.791526,2391.394669L511.404044,2411.794886L508.096072,2430.045856L507.111901,2454.709325L512.920299,2471.868047L520.311843,2481.839129L546.918451,2497.976069L571.693275,2538.529782L615.425745,2587.433730L667.114791,2657.160363L691.886194,2678.511649L711.950963,2683.690915L720.978431,2707.015201L714.056384,2734.179825L697.490956,2749.717533L702.933079,2771.984677L711.309058,2783.646719L720.945390,2789.530583L745.019253,2790.904659Z "/></g></svg>