<?xml version="1.0" encoding="utf-8"?><!DOCTYPE svg  PUBLIC '-//W3C//DTD SVG 1.1//EN'  'http://www.w3.org/Graphics/SVG/1.1/DTD/svg11.dtd'><svg enable_background="new 0 0 1000 709" height="709px" pretty_print="False" style="stroke-linejoin: round; stroke:#000; fill: none;" version="1.1" viewBox="0 0 1000 709" width="1000px" xmlns="http://www.w3.org/2000/svg" xmlns:xlink="http://www.w3.org/1999/xlink"><defs><style type="text/css"><![CDATA[path { fill-rule: evenodd; }]]></style></defs><metadata><views><view h="709.951940593" padding="0" w="1000"><proj flip="auto" id="robinson" lon0="-102.240193287"/><bbox h="304.52" w="429.53" x="-1688.29" y="-548.42"/></view></views></metadata><g class="" fill="#000" id="country"><path d="M817.657717,546.863443L818.832929,545.532951L823.068658,543.640957L822.679531,543.108003L821.386382,542.938600L813.161034,546.920545L813.725455,547.765668L817.657717,546.863443Z M166.141910,544.364253L165.584208,542.015450L164.367711,539.620982L162.446867,540.907673L161.337011,542.797748L163.963598,545.186529L166.141910,544.364253Z M986.583716,483.486398L991.837221,477.050500L994.073106,473.804044L993.931672,472.740292L991.623613,473.530018L988.232495,473.813559L986.226668,476.218903L984.284084,480.407353L984.677324,484.700516L986.583716,483.486398Z M998.943136,447.008891L998.635923,446.034593L998.305807,445.423753L997.833443,445.469423L998.157622,447.242951L998.739043,448.666338L999.294734,448.890883L998.943136,447.008891Z M333.397683,432.529407L332.933850,430.911884L332.662054,429.975621L330.835346,428.580737L329.327805,429.138310L328.962178,432.439968L329.549411,434.453301L331.893341,435.737796L333.397683,432.529407Z M239.783656,333.502637L240.196566,333.015132L240.407948,332.241973L238.404808,325.945972L237.956760,326.488751L237.715383,331.569737L239.029222,333.639748L239.783656,333.502637Z M178.103142,324.043361L173.947551,318.411429L171.233820,317.899067L168.663630,318.590469L177.281771,325.885029L178.103142,324.043361Z M220.933689,300.251602L220.318197,298.742675L217.511027,296.959354L217.155640,297.208945L216.729881,298.567393L217.633731,301.602509L219.391891,303.974372L220.977913,304.618285L220.933689,300.251602Z M167.286265,318.110488L167.247551,316.630529L165.841645,313.885762L166.320382,310.937068L165.766001,308.203509L165.057083,306.588086L165.308456,304.856417L170.368860,291.631994L169.959497,289.240664L165.048195,302.294073L161.225554,308.594024L163.901776,309.628402L164.802826,310.937068L164.583721,314.030527L166.524256,318.544756L167.286265,318.110488Z M211.799195,260.556396L212.606866,258.406664L210.936988,258.635359L209.216397,259.775022L206.002982,267.765963L206.799161,267.226632L210.439263,261.393038L211.580468,262.372613L211.897075,261.964774L211.799195,260.556396Z M96.195324,180.621515L98.034036,176.616595L98.114160,170.545451L97.341223,168.967912L95.718274,169.965044L94.839545,174.728514L90.504493,179.273798L95.396636,181.874102L96.195324,180.621515Z M3.925874,146.623791L4.958596,142.675178L4.861879,140.998600L3.838370,139.282233L4.448509,137.244815L2.664536,137.060468L1.258658,138.027830L0.705266,139.991193L2.064488,148.110635L3.925874,146.623791Z M204.947892,144.156067L204.778307,139.458996L205.197307,136.313595L204.859119,135.004254L199.856017,136.435221L197.917715,137.833974L192.838873,148.490916L192.889157,150.297336L197.340013,153.197393L199.848704,153.345733L204.947892,144.156067Z M173.886588,142.329207L174.043449,139.227114L175.168083,132.613821L169.903814,131.171712L170.738946,128.114925L170.200546,125.451773L168.010133,122.574375L165.539344,122.063515L164.022247,126.355913L163.907578,128.280196L165.487056,132.389613L170.768603,140.597533L173.452515,143.009747L173.886588,142.329207Z M155.530774,39.247977L155.980407,38.525611L155.717665,37.257159L154.172993,35.812298L153.673103,35.979163L152.958744,37.624997L154.386430,39.412924L155.530774,39.247977Z M779.254937,707.951941L780.251825,706.954447L781.246406,704.651071L782.426453,702.275352L782.156769,699.534131L782.059293,697.310690L783.458628,694.076411L783.626259,691.649267L784.278624,690.153151L785.936728,689.186096L786.957000,687.335744L783.253197,680.962284L783.420401,679.507881L784.205095,677.718430L788.559881,670.908977L793.749769,662.812603L799.488973,653.878581L802.946625,648.506358L813.248252,648.494936L820.063918,648.487322L828.717679,648.481610L838.126494,648.472092L844.297014,648.466381L846.850332,648.407366L846.829595,644.912186L847.617431,641.051497L849.163162,637.544899L849.348137,635.997199L847.734256,634.104933L844.305217,633.002698L842.523670,631.329358L842.770241,629.208654L842.211257,626.644394L840.852807,623.634678L837.648690,620.554532L832.602544,617.407766L828.501734,613.183535L825.347348,607.878048L822.547379,604.464810L820.242079,603.037080L819.750535,602.279432L827.017073,602.347963L833.890921,602.412686L834.898661,594.809596L835.799186,588.053691L836.821013,580.426024L849.283145,580.437446L864.164920,580.452674L879.602016,580.467903L891.729110,580.481228L898.859459,580.486939L899.258787,577.090975L900.576641,574.406962L903.540042,573.280062L906.902668,575.621429L908.300475,576.599857L909.742918,576.044018L911.655540,574.612546L914.308174,570.476146L920.732899,561.942678L923.648386,555.885789L925.895096,554.682797L928.936381,554.465802L931.490017,554.852206L932.375143,553.209518L935.739783,548.216781L936.074703,545.213176L938.714745,543.132748L940.817422,540.738271L942.264442,540.565063L942.403351,544.933374L939.860144,552.823116L940.248275,554.404892L942.727618,556.081847L944.538477,562.591772L945.490062,562.782122L947.589954,559.348217L949.463419,555.876272L951.456038,547.733309L954.898265,542.139171L958.148954,532.477649L962.489036,523.067654L962.353384,521.910458L960.971922,521.775325L958.204425,524.521768L957.100374,524.234371L957.475418,520.551520L958.682810,519.367688L960.898633,518.081086L962.779894,517.696629L963.894368,516.988620L965.808586,514.729476L966.555768,511.547292L965.060874,511.425487L963.570434,511.884160L961.001705,511.950772L958.942080,512.694929L957.626960,511.143812L957.926758,509.451867L962.093254,503.902212L965.005059,502.031419L966.364491,502.160833L967.380322,500.704934L967.898575,499.264269L967.256630,495.364811L967.733248,491.326867L969.934452,486.289533L978.093827,475.537641L984.183759,470.706039L989.474344,464.656599L992.052061,460.814588L994.322785,456.131497L996.539986,450.468405L995.709948,448.538842L995.438120,447.206795L996.164609,439.901441L993.419594,438.297261L989.938401,433.254436L986.929862,432.114561L983.758767,433.636932L981.703093,434.057486L978.584567,433.975658L977.855908,434.843407L980.785088,435.876711L982.355273,435.812011L983.756451,435.136462L984.522136,435.039412L985.163695,436.295360L984.186624,437.733989L983.063709,438.485653L981.894551,438.915718L974.280644,437.922381L967.581793,435.452353L964.788790,434.919525L957.211478,432.793919L953.063936,432.333402L951.658294,432.814852L951.583316,433.284884L951.077819,433.772042L948.779305,434.242073L941.517201,434.145022L937.367516,435.341981L931.432833,438.870047L926.798724,440.196397L894.304515,445.633075L891.897347,446.489392L881.232511,451.623478L874.895370,455.967846L870.795123,465.785037L869.777721,467.491970L868.082749,473.625166L867.354555,480.498697L866.266398,486.576889L865.364665,494.305162L864.638803,497.382092L863.936387,498.742816L858.492879,503.260850L856.690773,505.835823L853.162873,520.555326L844.812693,528.374064L841.015099,530.458207L838.091068,532.824058L827.133552,538.581734L826.284712,539.561977L825.736419,540.795373L826.536343,540.802987L830.361605,538.161087L830.537628,539.088034L829.033960,541.844144L829.269756,542.995702L830.879668,543.123231L831.608629,545.175108L831.231024,548.924859L825.202591,552.145487L821.592130,555.470833L819.315005,555.836299L812.542606,554.922634L809.092038,552.665130L808.286322,551.304162L810.583469,549.891805L810.784779,548.405221L808.024400,545.361643L803.576732,545.808946L799.747292,546.570315L791.973869,546.943387L790.417608,547.352623L782.518170,549.423559L781.684580,550.872079L780.060007,552.836441L775.847429,554.998773L767.384319,556.761387L764.079803,555.967638L753.007817,556.487286L745.433811,559.315858L741.464079,561.400182L730.174129,565.656421L723.123339,566.798531L720.837430,566.771882L717.948430,566.452091L714.273117,559.683231L711.207135,553.207615L704.164200,551.024355L699.197413,545.951703L686.429524,545.234114L682.132314,543.060418L681.327227,543.315475L683.284523,545.057096L685.701461,546.353325L684.058614,546.347615L677.820195,543.850332L674.808847,541.318807L674.708651,540.129186L678.451767,541.931701L679.553033,541.866985L675.479862,538.294324L673.908392,532.190244L671.187189,530.166997L669.986492,526.525946L665.175735,520.886495L665.015791,515.854287L663.742907,512.175352L662.453677,500.383306L655.683215,487.969903L644.126159,471.339720L642.510078,467.362571L642.688244,464.125681L638.941700,452.281889L635.789497,440.822463L635.969461,439.498018L635.780740,437.707348L634.198763,436.548453L633.314714,435.450450L632.361739,432.809143L630.928739,416.323400L634.877762,426.637786L638.516333,432.468512L640.718008,434.249684L640.423256,435.920479L638.748577,438.200211L637.792142,442.441861L638.150984,445.712998L639.464534,441.762514L641.543806,439.269665L643.029270,434.346735L641.783849,432.369558L638.113133,428.866184L635.340022,424.824230L631.080435,413.236623L631.474693,406.476782L630.846473,397.472831L631.160943,395.649529L631.027068,393.021124L633.343983,387.103722L635.986668,382.826831L636.778893,380.630282L638.374558,366.448882L642.420030,349.836286L642.093012,348.728174L642.744838,347.663842L644.409895,340.150329L648.839374,324.184297L658.625191,299.819123L662.998400,291.290924L672.290609,277.540418L675.600598,270.925703L677.801636,262.864306L673.115369,263.639960L670.977271,264.827262L670.402003,265.858288L670.010872,266.414773L669.436512,266.363318L667.421741,265.621971L663.234422,261.978115L656.529141,259.719754L647.300029,258.844996L641.245416,257.021154L638.368687,254.242518L635.106263,252.595925L631.457605,252.077554L628.658402,250.570091L626.710853,248.073550L623.437566,246.480351L618.836929,245.788571L616.141994,243.917156L614.963744,239.341616L614.968560,239.273013L614.687092,231.623978L613.308270,226.831718L609.903570,220.902280L609.644372,220.123029L609.643165,220.121123L609.820073,219.145643L611.169779,215.695380L611.227812,213.214967L610.192719,211.193756L610.333277,209.054514L611.649631,206.802975L612.316432,204.098211L612.337215,200.940304L610.126410,197.525515L605.686007,193.857726L602.433567,188.501370L600.383265,181.461010L597.876141,176.584238L594.897994,173.868257L593.218993,170.553063L592.839463,166.638865L593.003967,164.367084L593.703587,163.739237L592.549885,159.388460L589.566431,151.320400L588.189535,145.422216L588.403533,141.694308L586.366489,137.258118L582.086970,132.114107L579.910740,128.768420L579.783243,126.448989L579.772928,126.445190L572.811326,119.689808L571.401940,115.471040L569.776561,114.138397L567.458218,114.282667L566.398177,113.878334L566.598379,112.925434L565.872589,112.879879L564.217957,113.745456L559.515184,113.920096L551.762631,113.405674L546.380687,112.257296L543.368347,110.471285L540.850779,110.712320L538.820991,112.980481L535.423938,114.440226L530.658156,115.091360L525.563974,119.306244L520.158190,127.085333L517.366895,132.089406L517.176280,134.320160L515.874746,135.939218L513.457558,136.952141L510.671360,139.215710L507.520206,142.732206L504.477048,144.433625L501.542154,144.319560L496.775739,141.610670L490.192710,136.309794L484.807979,133.033742L480.611054,131.785404L477.270105,129.334545L474.786570,125.687301L472.250877,123.254277L469.657643,122.036928L467.351868,117.994212L465.354288,111.127970L464.889947,105.833434L466.477796,100.244890L464.880263,88.078233L463.714478,82.810105L462.418750,80.380084L459.338242,77.483945L454.479277,74.117944L448.647915,67.384460L441.882461,57.283506L436.799987,51.199786L433.361302,49.135728L430.954332,45.496384L429.590137,40.281250L427.710310,36.963263L427.450823,36.809678L427.215684,36.741417L420.005780,36.695910L412.795333,36.652299L405.585548,36.606792L398.375219,36.563181L391.164947,36.519570L383.953736,36.474062L376.743581,36.430451L369.535699,36.384943L368.110244,40.753321L366.693095,45.119162L365.284698,49.486377L363.884706,53.851293L352.244327,53.875931L340.601689,53.902465L328.960603,53.928998L317.318461,53.953636L305.677876,53.978274L294.035634,54.002913L282.394337,54.029446L270.751991,54.054084L257.015256,48.307426L243.305582,42.563804L229.627122,36.815366L215.979650,31.067532L202.362887,25.316240L188.773987,19.565014L175.215241,13.811689L161.688291,8.055997L164.036192,5.858241L168.185163,0.000000L164.294554,0.412437L154.625145,1.246766L144.952939,2.081034L135.281816,2.913341L125.607222,3.747487L115.933036,4.581574L106.258345,5.413702L96.581787,6.247673L86.902445,7.081586L86.390089,14.460974L86.785265,15.960670L89.286076,20.100185L88.683166,27.917052L94.158541,33.599335L92.801671,37.213549L91.636188,37.899925L90.050343,37.770994L89.258857,38.123657L90.537988,39.519097L88.954962,44.711607L89.808205,47.266813L92.951246,52.626952L94.991931,58.767409L94.791717,61.695371L93.801919,64.659306L93.200847,67.782433L98.784365,74.239238L98.412740,78.069604L96.843210,83.577811L96.055326,89.367438L99.918062,91.489066L100.626932,93.671547L98.788286,102.194917L96.658220,107.011757L98.332878,107.962443L98.648247,114.933795L101.327670,117.903076L107.984215,123.662609L111.551319,127.734996L116.776742,129.401038L118.256858,130.677732L119.482478,133.390967L124.355674,140.681167L132.019678,154.880531L136.077573,159.730865L137.339232,166.714975L133.657608,174.698062L128.363930,182.808813L124.850152,185.881541L125.011652,186.913457L128.269274,186.458420L127.762011,188.474713L126.769309,189.933214L127.028346,193.987217L128.688326,195.973426L126.385163,196.139107L123.691497,194.318563L121.975449,192.071558L123.070968,189.620945L123.048567,188.278601L120.315639,189.518126L117.329850,191.247054L113.150298,191.751656L105.196994,189.957967L98.237451,189.493373L97.893878,191.168984L98.555773,193.619693L102.239719,196.617108L105.766547,201.283131L110.507213,205.513431L111.334009,207.654434L111.015494,211.268050L111.503669,213.820773L114.629377,216.167851L118.869412,216.733678L121.555739,218.198755L124.172868,222.813291L126.167959,222.908557L129.150878,223.640205L131.028125,227.372858L132.103464,230.474956L134.855245,233.209384L141.334710,230.301556L146.413291,230.490200L149.269946,227.914003L151.803075,224.430926L150.730862,230.442562L150.803862,233.396128L152.821529,238.596508L162.425315,248.997839L166.446099,250.686343L170.871007,253.011384L174.943185,264.771995L175.444342,270.512157L174.430424,275.787190L174.740119,277.582342L175.425833,278.032080L175.165130,281.334555L173.012788,287.744859L168.954426,298.704570L168.367811,302.960863L169.153452,306.628091L175.293887,313.259080L175.758914,314.752442L175.389495,317.030521L175.806527,318.234293L177.646572,317.780976L179.923071,317.716216L182.540333,322.115943L186.976313,326.563025L198.107047,335.288863L201.801582,340.554011L205.487070,344.190872L208.976465,349.638274L216.980766,354.799786L218.827342,358.201935L219.563857,362.312161L221.187563,365.070627L221.977603,378.171018L223.880825,382.514672L226.610644,382.832541L230.242150,381.418302L233.843606,379.092295L237.818857,375.317681L242.924371,372.153999L244.579340,370.012471L247.388319,362.572971L247.727661,359.665947L245.597189,355.073942L240.451919,352.591279L240.356440,347.045038L238.611470,344.663081L237.976552,341.772661L235.933714,338.107138L233.510732,335.128904L232.654273,332.584753L225.901543,325.957399L224.490904,326.155466L223.516045,327.461933L223.296577,329.286380L223.611235,331.794451L222.411173,333.955862L220.521341,335.475481L219.337011,334.287210L219.932219,332.954193L219.339241,332.241973L215.363100,331.042229L212.575476,326.077382L212.000819,316.388628L212.835115,313.201935L215.507540,308.637838L215.827396,305.549852L214.552241,300.598489L211.153843,294.758720L209.466674,283.985236L209.681404,279.823392L206.220919,278.041608L203.358657,269.564999L203.312402,264.040175L204.990800,256.464664L203.835555,251.016040L204.147635,247.701930L203.149689,245.418860L203.869683,241.586491L202.017635,238.754677L202.430437,233.742940L196.540233,227.027976L195.516000,227.597700L194.642950,231.845019L195.268697,234.537562L196.909337,238.686074L195.954073,239.332088L195.009710,239.008127L192.378373,234.878660L193.230298,228.569478L190.249364,223.617341L190.445151,221.953996L191.506517,219.246620L189.019152,216.638421L186.308338,215.049548L184.860286,208.776400L185.070384,201.911652L178.989020,196.683762L174.680046,190.112198L174.648614,187.200952L175.925194,183.526521L174.991656,179.732549L176.615600,175.251913L175.099662,171.944183L175.833160,169.658670L176.436058,166.791085L173.927190,165.558129L171.552085,164.905521L169.981219,163.379658L169.407092,152.198975L167.859849,151.417384L165.745563,151.639878L165.558189,150.630112L166.137982,149.306641L165.202733,146.439368L161.070144,147.216997L160.867638,143.452680L161.529603,140.382746L157.589294,130.060273L155.985478,127.260094L150.251255,120.644952L147.837238,115.791876L142.575410,112.063692L142.346259,109.488202L138.992704,104.600484L137.989207,99.393237L138.331310,96.214548L142.182045,85.778657L141.883306,81.341082L143.097009,75.751645L143.644983,68.239155L142.443156,63.514668L142.192552,60.567780L148.260098,45.757973L151.611169,41.519234L151.984018,35.639744L150.851317,33.616402L150.254056,31.670640L155.316393,35.330660L156.367095,36.458893L159.084934,37.048588L160.680892,38.163473L167.686504,45.117267L170.846999,46.944579L173.135990,46.828952L175.901470,46.254608L177.610732,43.631087L179.066871,42.209298L184.326726,44.988366L185.835663,46.324743L187.316148,48.487493L186.060218,53.212592L190.085747,55.242390L197.814113,56.703584L199.050586,57.476812L202.059942,58.596847L202.921136,59.680863L201.880099,63.260725L200.566274,64.274601L199.614970,63.637849L198.896152,64.771116L199.081859,65.582218L198.555384,69.040791L195.976619,74.659980L195.956402,80.182959L197.720434,85.657332L199.364086,93.806180L199.437286,100.582526L198.459855,106.030764L199.012399,108.696840L199.918672,110.514937L200.813107,116.367116L203.937651,123.487879L203.919992,126.456587L203.308560,128.027540L202.985645,130.829724L205.248830,131.794904L207.226945,133.873610L206.568014,139.770710L206.468350,143.627574L208.985810,148.416761L211.639963,151.248137L212.100584,152.233206L211.989300,154.001862L213.333407,158.066434L215.254950,161.345938L216.484239,164.985432L222.486093,168.358993L225.956310,178.834088L229.779812,184.613580L233.859796,186.212817L235.652399,187.659806L238.346191,186.540288L241.302299,186.633580L248.406862,188.621323L246.102666,191.294658L243.438713,196.822783L243.105308,201.096480L243.239648,204.770578L244.077052,206.898215L244.748314,209.744092L247.226930,213.230207L249.877187,216.004010L260.187871,219.237094L260.316545,221.214745L259.966995,223.184829L260.098770,226.883164L261.123241,231.303851L262.953189,233.925874L265.523337,234.164070L272.096642,233.636229L277.369508,240.523125L277.707943,243.799002L277.386215,245.565601L277.762437,247.494204L279.644727,249.428540L280.161064,251.496294L278.804999,251.277131L277.857535,249.447598L274.931541,251.871731L271.210437,255.955819L267.885712,260.089477L266.590424,272.010067L268.485087,275.678566L269.962222,276.629504L271.747239,277.264095L275.699396,276.385577L278.462340,275.333635L281.322335,273.448890L283.316288,271.764228L283.053998,273.224015L279.199476,277.422266L275.684805,278.862947L275.557491,280.223576L276.413220,281.637547L281.214445,280.423667L283.140118,279.185002L284.981477,279.390812L285.242670,283.832790L286.726563,285.444893L293.459864,290.040958L295.981340,292.803816L304.571865,296.738341L305.744331,297.770999L306.018294,299.007502L304.407377,299.681948L302.384710,299.668612L300.742293,299.190403L299.370566,297.511883L298.179282,297.205135L299.771532,301.370081L304.710173,308.837857L304.218690,312.342856L305.539906,315.411492L309.464806,318.371430L312.952511,318.916168L313.990138,319.754217L316.291904,320.277994L318.185820,319.706601L319.306378,320.316086L319.581842,322.858729L319.007869,324.988007L317.811867,325.351768L311.972829,320.988419L310.687028,320.988419L330.101513,338.765991L334.134574,344.025217L339.139886,354.575130L343.456266,360.861511L347.216106,370.758679L351.933740,376.008655L357.527643,385.048089L359.816792,387.077075L363.924557,392.905024L366.878971,404.621215L364.570531,417.826811L367.590917,424.437920L369.027936,430.127859L369.562469,432.240156L376.277093,437.206873L374.759252,441.509424L374.224923,446.603568L373.009412,451.690080L370.246390,455.299920L366.519103,459.214230L363.906398,462.422560L361.850178,463.788863L362.276076,465.040991L364.709647,465.088564L367.715863,465.962010L369.723865,469.254092L369.771266,470.591862L368.911340,472.740292L364.550712,475.358763L358.871659,475.901107L355.127739,478.315977L353.896955,480.279853L355.282589,482.980200L356.281224,486.428453L356.637011,492.369742L357.735241,496.240233L362.720094,506.747442L367.895863,512.371383L369.292429,517.007653L372.100827,522.226402L382.525734,528.326481L388.858225,530.730383L392.723220,533.857577L399.974054,537.723311L403.995658,540.972389L410.083661,548.593661L413.237837,554.385857L417.016044,560.583582L430.568613,565.983825L440.679555,570.818783L445.735259,571.654436L456.469926,574.928535L464.060325,574.332724L466.593947,574.837165L468.813459,576.299095L471.235517,579.428553L475.673783,586.852522L479.317317,588.264991L482.205938,592.207356L489.611057,596.928326L493.927682,601.489423L498.754122,604.438159L512.152574,609.756952L518.144534,612.871335L525.233476,615.353710L535.524749,623.185410L546.890345,625.325144L558.239771,628.572823L561.236948,630.010104L566.144439,630.392745L573.202169,639.357212L585.684042,643.198862L597.573973,652.534574L616.703577,654.779028L628.649853,661.908351L638.414789,664.813379L642.043739,663.596923L648.734963,663.208571L664.707771,655.616652L675.589539,652.228079L687.798990,644.342981L694.257496,643.054181L699.357542,643.067507L699.915238,642.309838L697.949399,641.628316L692.151582,640.417568L692.199646,639.302005L695.577822,636.461699L696.932103,634.965400L698.363501,634.877830L700.331588,637.027095L699.993915,638.491033L700.025751,640.046348L701.338167,639.888342L705.105583,637.525862L706.239594,637.691483L707.097072,638.928882L703.433883,642.344104L704.012951,643.370194L710.431808,643.967954L725.611869,650.503333L724.895620,648.822372L719.674741,645.565152L717.870250,644.710394L716.064129,644.639957L713.897729,643.623386L712.132011,642.420252L713.018738,640.038733L714.192597,640.139629L716.113489,641.910062L718.377952,643.246454L723.568722,645.578478L728.676598,649.153614L734.084042,655.590001L740.020587,660.973639L751.388363,672.761258L755.626093,678.133431L758.909980,681.023201L762.212065,684.826722L770.399189,696.480705L778.344653,707.080086L779.254937,707.951941Z "/></g></svg>