<?xml version="1.0" encoding="utf-8"?><!DOCTYPE svg  PUBLIC '-//W3C//DTD SVG 1.1//EN'  'http://www.w3.org/Graphics/SVG/1.1/DTD/svg11.dtd'><svg enable_background="new 0 0 1000 375" height="375px" pretty_print="False" style="stroke-linejoin: round; stroke:#000; fill: none;" version="1.1" viewBox="0 0 1000 375" width="1000px" xmlns="http://www.w3.org/2000/svg" xmlns:xlink="http://www.w3.org/1999/xlink"><defs><style type="text/css"><![CDATA[path { fill-rule: evenodd; }]]></style></defs><metadata><views><view h="375.537837291" padding="0" w="1000"><proj flip="auto" id="robinson" lon0="102.110815656"/><bbox h="109.07" w="291.21" x="1472.84" y="-123.35"/></view></views></metadata><g class="" fill="#000" id="country"><path d="M607.073026,285.328853L607.013270,285.113871L605.852834,281.779308L605.294573,277.519386L604.947576,267.494665L604.327232,265.092471L603.237927,263.279141L601.464100,262.522029L600.788009,264.351716L600.779438,267.218927L602.015668,276.748254L601.985519,279.075672L601.675688,281.608724L601.941283,282.802811L602.938182,283.314562L603.488740,283.805283L604.393069,286.146720L604.959349,286.910842L605.171328,286.378060L605.536746,285.873319L605.992011,285.627959L606.502505,285.875656L606.998595,286.198129L607.133259,285.852288L607.073026,285.328853Z M240.402542,266.854392L241.341462,266.508550L241.928635,265.989788L242.032394,265.312126L241.823505,262.458936L241.139461,260.031036L240.798976,259.283271L240.121202,258.168634L239.972204,257.750353L239.888893,257.053997L239.800553,256.731523L239.549170,256.474479L239.002198,256.399702L238.567672,256.759564L238.288717,257.348429L238.195823,257.951315L238.348356,258.890695L238.581016,259.755298L238.606828,260.605881L238.142628,261.493852L237.824954,261.769590L237.196615,262.143473L236.970885,262.458936L236.927822,262.949657L237.204506,263.924088L237.185082,264.241888L237.224767,264.744292L237.641602,265.442985L238.641647,266.611368L239.393751,266.929168L240.402542,266.854392Z M91.158384,248.410299L91.541260,248.118203L91.715201,247.477929L91.276581,246.910095L90.353141,247.330713L90.002688,248.132224L90.365129,248.641639L91.158384,248.410299Z M92.082071,251.999572L92.366643,251.726170L92.653607,251.396686L93.394330,250.796137L94.354825,250.366172L95.033419,249.627754L95.124574,248.312155L95.027333,247.576073L95.076501,247.169476L94.978486,246.412363L94.323814,246.061848L93.445527,246.473119L92.794317,247.681228L91.672949,251.172357L91.605031,251.782253L91.702850,252.146788L92.082071,251.999572Z M932.191110,182.880283L932.186563,182.870936L931.938138,182.303101L929.548252,181.440832L928.853805,181.405780L928.348417,181.265574L927.897350,180.959457L927.394614,180.424336L926.662771,179.206878L926.150364,178.552581L925.580473,178.265158L924.657238,178.096911L922.795031,177.416910L921.851865,177.353817L921.072365,177.622546L920.058663,178.181035L919.184137,178.898424L918.839234,179.655538L919.069085,180.356570L921.878206,183.008806L922.221952,183.332640L923.984497,183.687125L926.290399,183.687125L929.786444,183.687125L932.548933,183.719222L932.191110,182.880283Z M971.057853,167.616484L971.737861,166.824318L973.626503,166.824318L974.776207,166.459781L974.935507,165.646584L974.327852,164.835723L973.168132,164.468850L970.560802,164.097303L969.827250,164.106650L969.695295,164.106650L969.167922,164.115997L968.993947,164.272561L969.196852,164.896479L969.401214,165.204933L970.038390,165.770433L970.291987,166.074213L970.410671,167.272978L970.419409,167.457583L970.712789,167.644525L971.057853,167.616484Z M960.888720,154.708143L960.431404,153.698656L959.933519,152.873775L958.921889,152.675149L958.562199,152.908826L958.289271,153.315425L957.957915,153.708004L957.409807,153.883262L953.414382,153.883262L953.431988,154.245462L956.950062,155.453574L958.699184,155.811101L958.947169,155.993369L959.428964,156.491102L959.631747,156.591584L960.315378,156.659350L961.118028,156.886017L961.967841,157.320657L962.779895,157.998322L963.184764,158.185264L963.389262,157.809043L963.537259,157.287943L963.784145,157.021550L964.039233,157.180451L965.065481,158.194611L964.962305,157.339352L965.149289,156.687391L965.609139,156.306497L966.356299,156.238731L966.335554,155.811101L965.195784,155.096048L963.732706,154.516528L962.428276,154.486150L961.790814,155.453574L960.888720,154.708143Z M795.268264,118.565914L795.222658,117.177866L794.507501,114.301289L794.096956,113.041764L793.324191,113.406302L791.942392,114.922873L791.558982,115.488374L790.354955,119.956298L790.311260,120.806886L791.537872,119.953962L792.495627,119.002892L792.903815,118.923441L793.935711,119.603444L794.431656,119.629149L795.268264,118.565914Z M37.649632,109.403396L36.782456,108.723393L35.794546,108.384559L34.762665,108.351844L33.809932,108.613564L33.549734,108.877620L33.320327,109.277210L33.039564,109.634737L32.642639,109.791302L32.153025,109.534256L31.924352,109.029511L31.654157,108.702362L31.027542,108.975765L31.371351,109.382365L31.355934,109.774944L31.194315,110.216596L31.107857,110.772750L31.230820,111.034469L31.481493,111.387323L31.736320,111.833648L31.870911,112.357087L31.891269,115.044385L32.275919,118.061169L32.138269,118.867359L31.461773,119.325368L31.527059,119.591760L31.757632,119.867501L32.034816,119.984340L32.184462,119.918910L32.223651,119.778703L32.288186,119.652517L34.298726,119.629149L37.061027,120.203997L37.193398,119.182824L38.313033,116.530578L38.477749,115.502394L38.601581,113.277779L39.436970,111.305536L38.934943,110.770413L38.130398,110.291373L37.649632,109.403396Z M942.369125,88.183081L943.243341,87.818543L943.561690,87.762460L944.120750,87.512425L944.358398,86.963281L944.175430,86.409463L943.473344,86.157091L942.140899,86.206163L941.537706,86.402453L941.001196,86.837095L940.721430,87.369881L940.829667,87.764797L941.198949,88.035864L941.680934,88.183081L942.053483,88.213459L942.369125,88.183081Z M10.755413,67.722952L11.195939,66.910508L11.346774,66.044549L10.974144,65.061712L10.900709,64.130582L10.969087,63.756697L10.930039,63.060150L11.276400,62.417285L11.630842,61.935885L11.441496,60.963620L10.814364,61.658003L9.651798,62.193498L9.021868,63.973169L8.107202,65.007914L8.540628,66.144260L9.021962,66.310700L9.340809,67.186089L10.193555,67.994856L10.755413,67.722952Z M12.551742,53.185096L12.128425,52.374233L11.670624,51.119381L11.200812,50.889930L10.728871,50.820273L10.836993,51.254915L11.100073,51.740965L10.328479,51.750969L9.841271,51.785955L9.282889,52.818879L8.497684,53.576711L7.743402,53.749733L5.987818,53.511869L5.194212,52.927927L3.539674,52.861672L2.586220,53.345176L1.334979,52.830916L1.492441,55.222770L1.747856,56.227586L2.224253,57.036113L3.138533,56.958154L4.468235,57.265302L5.305374,57.575116L5.534165,59.053744L5.245191,60.054497L6.053206,62.844484L6.446438,62.666730L7.052282,62.344460L7.660593,61.617404L8.488842,61.609942L9.140986,60.720690L9.874000,59.625221L10.768076,59.248131L11.741107,59.214407L12.053057,60.591221L12.905470,61.176132L13.108915,60.349330L13.727572,59.900952L14.133625,59.371833L14.851451,59.135069L15.350786,58.821414L15.236926,58.351508L15.028684,57.833797L14.465880,56.939201L14.852884,56.148751L15.036704,55.451774L14.582685,55.017133L14.206001,54.771658L14.250389,54.295068L13.177311,53.755271L12.551742,53.185096Z M29.309913,38.282006L28.861922,38.011945L28.613610,37.694266L28.475689,37.517821L27.999248,37.203243L27.290748,37.464402L26.988187,37.940720L26.880401,38.595100L26.881262,39.893474L26.662230,42.221643L26.766797,43.200988L27.239618,44.533491L27.382749,45.348128L27.104461,45.846704L26.681385,46.275538L26.371574,46.876500L26.352907,47.389914L26.567741,48.387065L26.613801,48.888608L26.476086,50.319046L26.094020,51.574388L25.718861,52.460694L25.966356,53.544961L26.409664,56.007929L27.320169,58.683544L28.541219,61.151185L29.916389,62.987896L31.632160,64.294157L32.449922,65.182134L33.174907,67.472181L35.185337,71.225053L36.211448,73.804860L36.876355,75.043355L37.670432,76.141643L38.150265,77.132438L40.043123,88.718204L39.785010,95.429442L40.031736,95.686488L40.529636,95.938861L40.933131,96.289378L40.884906,96.854879L40.463701,97.196049L39.888441,97.233438L39.287912,97.079210L38.811927,96.854879L39.381078,101.738753L39.684482,102.974910L40.938123,105.267293L41.328777,106.617953L41.232859,111.555571L41.369006,112.852485L41.659714,113.642317L42.783652,115.282737L44.115240,117.895258L44.312702,118.633681L44.233539,119.269285L43.776913,120.320836L43.692184,121.019533L43.818761,121.367714L44.351541,122.519746L44.511569,123.162361L44.443576,124.342435L43.779140,126.123061L43.494427,128.015853L43.070214,128.691182L42.524270,129.221631L42.036533,129.859572L41.816256,130.009126L41.573927,129.934349L41.394356,129.976411L41.344642,130.448440L41.796973,131.761710L42.256358,132.570236L43.098612,134.521446L43.463653,135.728849L44.781831,137.345899L45.114195,138.180128L45.320443,138.958275L45.645512,139.720064L46.301946,140.519241L46.631020,140.112642L47.122751,139.750442L47.673471,139.612572L48.192477,139.892985L48.809754,140.449138L49.201002,140.633743L49.397324,140.888452L49.462963,141.659588L49.175453,141.685293L48.670235,142.119933L48.444190,142.624677L49.011137,142.870038L50.215312,142.877049L50.754301,142.753200L51.256527,142.442408L51.441546,143.211208L51.891768,143.426191L52.387895,143.458906L52.693025,143.655195L52.718048,144.248736L52.358845,145.216162L52.445632,146.005992L52.764139,146.816853L53.022998,146.893967L53.341367,146.718708L53.859781,146.791148L54.865664,147.181390L55.004920,147.552937L54.647063,148.361462L55.407208,148.693284L55.702387,148.751703L55.720248,149.179333L54.269771,149.298509L53.826694,150.043940L54.113879,152.887796L54.501297,154.479139L55.320959,154.458108L56.415025,153.993090L57.633570,154.245462L57.136959,154.600652L56.712959,155.117079L56.344572,155.783060L56.027359,156.591584L55.213958,156.063473L54.566738,156.568216L54.136298,157.633785L54.010390,158.788152L54.376314,159.872415L55.165903,160.629530L56.084300,160.905269L56.845231,160.554753L56.253020,162.113382L55.501270,165.854557L55.429249,167.448236L55.238321,168.240402L54.301308,169.041916L54.112978,169.799030L54.094595,170.890303L53.964882,171.673122L53.552654,173.133605L53.342421,174.388453L53.569949,174.720274L54.077949,174.844123L54.680604,175.486736L54.917947,176.384056L54.990346,177.283714L55.248729,177.984746L56.018514,178.265158L55.726492,179.024609L56.003943,180.749147L56.558899,182.618565L57.111360,183.789288L58.243279,182.983101L59.378750,183.230799L60.412662,184.053343L61.276803,184.967021L63.989569,186.983655L64.534407,187.750116L64.624218,189.240976L64.485768,190.591630L64.754818,191.488950L66.059496,191.633830L66.604780,191.220221L67.787304,190.535547L68.965871,190.400015L69.515789,191.633830L68.675491,191.444551L67.652242,191.652524L66.794628,192.096510L66.032974,193.227508L65.037398,193.405102L61.838881,193.241528L61.223543,193.659810L60.998914,194.599192L61.081240,197.471083L61.256423,198.524967L61.599376,199.433971L62.200293,200.293902L62.923852,200.789297L64.240827,201.495002L65.511214,201.943662L66.062752,201.686617L66.289455,201.457614L66.851458,201.261325L67.970811,201.079057L68.554892,201.258988L68.376912,201.691291L67.508626,202.647030L67.025436,203.985999L67.011914,204.974453L67.574161,205.577339L69.958618,206.040020L70.836753,206.710673L72.219448,208.563731L73.063917,210.141051L73.363589,210.561669L73.872284,210.944899L75.139637,211.550123L78.921308,214.426685L79.806268,215.658163L80.220872,216.891977L80.805371,219.455412L81.864748,221.098160L82.326772,222.413761L82.657970,222.927850L84.303248,224.713141L86.834591,228.311764L87.220525,229.237124L87.402978,229.510526L87.826114,229.825990L88.334233,230.092381L89.362949,230.382140L89.670320,230.814443L89.860911,231.333205L90.077625,231.770181L91.874177,233.443306L92.635220,234.375676L92.969641,235.511345L94.222689,242.998347L94.571834,243.727419L96.069240,245.019651L96.418570,245.760406L96.901123,248.520127L96.947404,250.010984L96.398075,250.660605L95.677552,250.978405L94.970439,251.733181L92.556288,255.245340L92.476237,256.011799L93.620277,256.184720L92.831293,258.778530L94.084237,259.703889L96.352783,259.951586L98.602375,260.535778L100.219428,262.064023L102.853923,266.398722L104.071106,267.983049L106.122365,269.597754L107.247429,270.130536L108.965030,270.457683L110.015959,270.997476L112.829296,271.551289L113.732229,272.261666L114.256976,272.878572L114.900416,273.313210L117.321619,273.570254L118.011313,273.888054L118.465712,274.502623L119.579946,277.825503L120.339063,278.734504L120.842600,279.197183L121.194522,279.393472L122.066866,280.068797L122.369057,281.653123L122.516487,283.487483L122.912891,284.917582L123.510465,284.095041L125.117005,283.982877L125.990875,283.314562L127.511374,284.328718L128.329513,284.683906L129.177487,284.917582L129.116739,285.915381L129.746389,286.805688L130.761688,287.450635L131.861618,287.695995L132.426474,287.997437L136.385629,292.797150L137.803094,294.040308L139.538923,295.147934L147.778164,298.961532L154.975093,302.237674L156.923783,303.504200L157.845181,304.261311L158.501540,304.983371L158.557021,305.242752L158.665665,305.481102L158.608033,305.668043L158.172838,305.768524L158.552652,306.497594L159.138270,307.205633L163.370164,310.967821L164.232338,312.077783L165.250919,314.519700L165.943565,315.646020L167.097771,316.356396L167.956826,316.382100L170.465391,315.947462L171.271313,315.608632L172.869694,316.438182L174.311109,317.464021L175.545196,318.651096L176.550355,319.957347L177.415121,321.478579L178.004967,322.072117L178.851787,322.310466L180.018344,322.438988L181.152342,322.796513L183.242484,323.911148L191.928104,329.947005L198.010910,332.536137L200.185517,334.083073L201.638379,335.919768L202.618399,338.135018L204.365840,344.367161L204.817657,345.509838L205.553652,346.626810L207.359720,348.351339L208.000222,349.470648L208.687638,347.472717L209.575948,345.953822L209.693682,345.313550L209.636556,344.841524L209.379150,343.986269L209.314945,343.341323L209.496090,343.060912L209.891017,343.481529L210.268089,344.075066L210.371410,344.336783L212.172979,344.703655L213.669613,343.327302L216.212277,339.630546L217.025006,339.123468L217.787201,339.039345L219.842143,339.237970L220.902124,338.948211L222.920468,337.751789L224.206294,337.634951L228.655174,340.210063L231.098061,340.892397L232.861260,339.237970L232.981926,338.340653L232.842803,337.466704L232.609470,336.641828L232.480544,335.891727L232.715803,334.286372L232.684763,333.489536L230.697219,330.049822L230.151501,328.488865L230.431238,327.797184L231.591694,328.685153L232.831591,330.725147L234.511060,334.496680L234.827010,335.536539L235.015618,335.926778L235.387357,335.709460L237.070190,334.265341L237.906066,333.699844L238.801033,333.433454L239.754949,333.681150L238.545672,335.281832L236.686740,336.123066L235.342442,337.130211L235.659916,339.237970L236.173319,339.808140L236.880034,340.340921L237.497153,340.948479L237.783504,341.773356L237.764642,342.869297L237.823872,343.455824L238.226485,343.841390L240.293218,344.771421L241.291827,345.005097L243.584696,345.121935L243.829266,344.930321L244.348207,344.098434L244.596866,343.906819L246.512199,343.906819L246.753629,343.028197L246.566826,340.511505L246.978951,339.990407L247.314828,339.359481L247.240239,337.920036L246.702162,335.284169L245.612719,332.143561L245.204462,329.750717L244.851175,328.974912L245.112100,328.376701L244.693397,327.642958L244.075284,326.848458L243.762414,326.049286L243.649540,324.107436L243.372440,323.259192L242.396885,321.766001L241.888389,319.132469L240.418065,316.356396L240.096123,316.356396L239.501155,316.907872L238.789544,316.248905L238.197391,315.008084L237.936395,313.823345L238.017602,311.327683L237.918401,310.213047L237.481181,308.944184L237.145240,308.327279L236.048748,306.943915L235.700115,306.322336L235.076555,304.885227L234.110204,303.452791L232.728323,299.851839L230.269858,296.526625L229.885962,295.358243L229.984502,294.675908L230.451314,293.542578L230.549245,293.007459L230.346189,292.322787L229.422962,291.074955L229.072507,290.444029L228.944546,289.801419L228.902544,288.656405L228.664009,288.053520L228.303345,287.674964L227.164845,286.749605L226.711102,286.286926L222.829166,280.938073L222.428744,279.872508L222.435479,278.762545L222.836238,277.432926L221.441354,274.180150L220.797414,273.296853L218.995453,271.747578L218.831475,271.207785L218.949534,270.719401L218.855194,270.308130L218.061738,269.980983L216.871727,270.644625L216.383144,270.731085L215.832003,270.506755L215.050141,269.721602L214.772939,269.553355L213.880192,269.504283L213.095153,269.326689L212.488032,269.022910L212.391771,268.976174L206.198754,262.262648L203.731264,258.701417L201.959791,254.619087L201.554669,252.338403L202.196454,238.443988L201.923091,237.294299L201.534506,236.158630L200.460447,229.059530L200.646915,226.692384L202.914081,220.754656L201.195343,221.147233L201.853724,219.471770L200.596610,217.536925L198.797580,215.686204L197.867729,214.267785L197.656031,213.548060L195.523838,208.706274L195.216090,207.743525L195.128526,206.603181L195.305547,205.815690L195.689325,204.822563L196.165173,204.088817L197.046926,204.063112L197.156584,203.025587L197.027197,200.901462L197.141454,199.015689L197.584051,196.449915L198.378280,194.788471L199.559709,195.587646L199.690093,194.150532L197.603787,188.850735L197.186975,187.053758L197.204852,186.039599L197.615095,185.146952L198.600553,183.576642L199.000002,183.249493L199.405561,183.076572L199.497913,183.013479L199.782843,182.814854L200.076811,182.221314L199.691395,180.725780L199.650885,180.228047L199.818800,179.786397L200.497423,178.814300L200.813178,178.461447L201.189614,177.772099L201.797040,175.757801L201.899527,175.131546L201.713177,173.385977L199.850201,168.072155L199.918699,167.233253L199.189711,164.665139L199.488781,163.527130L199.942732,162.447540L199.953626,161.129600L198.729507,152.455492L198.128144,150.057961L197.997896,148.751703L198.300201,147.057541L198.242920,146.398570L197.945881,145.821386L197.004287,144.641315L196.793102,144.239389L196.444293,143.136431L193.203369,136.988372L187.752597,127.469046L185.765553,122.589850L180.175219,113.389945L175.205737,107.407785L172.450293,104.776569L171.605610,104.159659L169.489540,103.678282L167.282085,102.472502L157.826549,94.349849L156.413120,93.653488L155.855817,92.760837L155.108369,90.900759L154.044952,89.508036L152.829020,88.463495L150.065063,86.587059L149.618071,86.201490L148.495922,85.227052L147.366197,83.752542L140.635353,70.224910L138.397094,67.696512L137.221949,66.927710L131.221912,64.490447L130.131915,64.443711L129.607954,65.343372L130.417486,65.051274L130.872780,65.509284L130.671015,66.177603L129.501304,66.518774L128.904204,66.191624L126.095275,64.130582L124.750297,63.073002L124.573466,66.102271L125.027633,70.587041L124.546749,72.416637L123.275838,73.933138L119.684634,77.194655L118.519322,78.909994L117.874974,81.291584L117.968694,83.742915L117.751513,85.940507L116.177379,87.563846L115.634307,87.976358L115.406051,88.461579L115.257538,88.973510L114.972716,89.480989L113.539860,90.504850L113.289427,90.855040L112.943618,92.071802L112.381008,92.797408L111.558939,92.901278L110.449966,92.243930L109.981432,91.628129L109.629478,90.932200L109.204778,90.359432L108.523766,90.123499L107.923683,90.328271L107.095987,91.233672L107.050091,91.283874L106.561308,91.574710L105.497493,91.322455L104.663813,90.343109L103.548190,87.715199L103.550021,87.200301L103.679925,86.627532L103.641806,86.154182L103.149922,85.934571L102.553268,85.823282L102.147816,85.550252L101.853996,85.093224L101.587701,84.444779L100.729688,83.239888L99.632684,82.952019L98.469744,83.257694L96.761320,84.023188L91.428658,86.412373L89.713354,87.715199L87.808132,88.767254L85.838398,89.172346L84.327234,90.093821L83.823457,92.696506L83.728555,93.974106L83.348057,95.134482L82.751410,96.150924L82.008005,96.995238L79.709034,98.612642L78.324235,99.115669L77.455824,98.670512L76.808618,97.234139L75.972555,95.791831L74.954109,94.539456L73.775734,93.677335L73.268050,93.564562L72.307372,93.615013L71.802439,93.392435L71.433222,92.936891L70.776339,91.586581L70.360226,90.905506L70.073715,90.436592L69.946317,89.782211L70.037860,89.110024L70.340096,88.467514L72.193196,83.698399L73.001796,83.091502L74.057999,82.851117L74.960690,82.463830L75.297984,81.411776L75.330163,80.328561L75.596500,78.452966L75.518220,75.184029L75.676718,72.935987L75.260541,71.796385L74.279830,70.995102L73.426939,70.132981L73.409693,68.809381L74.043156,67.849326L74.690823,67.503587L75.130065,67.015399L75.155945,65.619089L74.959949,64.449810L74.588559,63.706398L73.932579,63.454143L71.637267,64.020976L70.782316,63.712334L69.078307,62.204735L68.121584,62.433249L66.871601,64.041750L65.932914,64.319231L63.795095,63.724205L63.115173,63.623302L62.503729,63.851816L62.245393,64.239103L62.027087,64.268780L61.558971,63.418530L61.412343,62.936277L61.299366,61.277325L61.368319,60.765395L61.383252,60.712242L61.519642,60.226755L61.600816,59.698502L61.480479,59.222184L60.818512,58.057357L60.562413,57.429685L60.414531,56.769369L60.134688,54.039074L59.608872,52.939536L58.403782,52.172382L57.823532,52.077415L57.303418,52.086319L56.828769,52.010642L56.384390,51.651549L56.224334,51.172263L56.175715,49.891695L56.079401,49.537054L55.214015,49.545957L52.084257,52.181285L51.193837,52.317800L50.268278,52.065545L48.493201,51.198973L45.353097,50.185499L44.405517,49.703245L42.722825,48.387065L41.958956,48.177841L40.659648,48.348485L39.802948,48.269840L38.655848,47.878102L38.149714,47.609866L36.648312,46.814178L35.607263,45.828897L34.979473,44.741231L32.773621,38.296845L32.406798,37.875430L31.856983,37.660271L31.267918,37.597949L30.810021,37.645432L30.071402,38.187040L30.077171,38.299813L29.309913,38.282006Z M901.596868,41.351636L902.873132,40.926342L904.684297,39.183104L904.788281,37.414161L903.828116,35.626524L902.447080,33.831876L901.657781,34.402051L899.608774,34.710506L899.057368,35.402193L899.289420,36.178004L901.104060,36.285496L901.587488,36.790240L901.422325,37.743647L900.860870,38.271759L900.071678,38.505437L897.513273,38.633960L896.989557,38.830250L896.557507,39.250870L896.459975,39.755615L896.666384,40.246339L897.160204,40.652939L898.478710,41.143663L900.046768,41.398372L901.596868,41.351636Z M565.304997,373.537837L567.431174,372.404181L567.926383,371.703807L568.104817,371.270525L568.296707,371.092464L568.873970,371.139947L569.249237,371.398136L569.595277,371.849224L570.050722,372.243926L570.738689,372.344827L571.401304,372.065865L572.333150,371.050916L572.894805,370.665117L573.162186,370.665117L573.736390,370.896597L573.946171,370.902532L574.952704,370.454411L574.997869,370.285253L575.632999,369.911325L575.775696,370.006291L576.295311,370.492991L576.573955,370.558280L576.937584,370.276350L577.047327,369.810424L577.076766,368.783604L577.569046,367.893298L580.360001,365.163027L581.754977,364.397364L583.281906,364.100595L586.467919,363.984856L597.794036,360.681821L598.807450,360.794593L605.664328,364.204464L606.801600,364.569490L607.887782,364.640714L608.875659,364.415170L610.868843,363.702925L611.760419,363.726667L612.291879,364.263818L612.586340,365.121479L612.803580,366.100816L613.386284,367.388792L614.000514,367.041572L615.165905,365.133350L619.392753,363.263708L620.135683,363.150936L621.043794,363.234031L622.412592,363.655442L625.071789,364.919677L626.530389,365.403410L629.575152,364.516071L633.904779,358.453088L637.096326,357.304593L641.191149,357.328335L642.477734,357.120597L643.154212,356.782281L643.505759,356.105648L646.034767,347.413294L647.560823,343.809038L647.723001,343.199178L647.742388,342.524029L647.418955,342.029909L646.264831,341.985394L646.004122,341.483855L646.355297,340.047494L647.278255,339.215058L653.058618,336.069310L654.260788,335.613770L657.394252,335.271002L658.279139,334.947524L659.144879,334.183344L659.831441,333.377617L660.636219,332.723242L661.877460,332.402732L677.029384,333.288586L678.354133,333.739675L678.695554,333.773803L679.297325,333.454777L679.644312,332.978463L679.942614,332.429441L680.430383,331.920482L681.360997,331.537651L682.196907,331.656358L683.052855,331.988739L684.048651,332.238025L686.499907,332.134156L687.372980,332.276605L688.600339,332.833046L689.470816,333.371682L689.958305,334.162570L690.031001,335.462417L689.756656,336.725169L689.211500,337.823213L688.437636,338.759518L686.915402,340.056397L686.628093,340.678128L686.783230,341.132184L687.543970,341.164829L689.469998,340.424391L691.449580,340.032656L693.403421,340.231491L695.283209,341.247924L696.976918,342.710994L697.699701,342.964731L699.983075,343.127954L702.952147,343.817941L705.386729,344.822503L709.192227,348.122571L711.495181,348.211601L713.476548,347.273812L714.540288,346.941431L715.610669,346.994850L716.723403,347.683353L719.334127,351.125870L720.783737,351.933081L722.031393,351.606635L729.975007,345.493200L732.942309,341.141087L734.085316,340.023753L735.015587,339.591954L742.309269,338.295075L744.353087,338.259463L746.226689,338.919773L746.750132,339.431699L747.228570,340.062333L747.752506,340.606903L748.417630,340.853221L748.912503,340.684063L749.992117,339.827886L750.120967,339.765852L757.575752,336.176146L758.539954,335.889764L759.728521,336.084148L760.915552,336.737039L764.998184,339.961431L766.100975,340.341295L767.279773,340.023753L768.075963,339.158672L768.379700,338.045789L768.340034,336.809748L768.085330,335.584093L768.057777,334.198183L768.614746,333.220330L770.364062,331.599972L771.093346,330.614700L772.352441,328.164874L773.236238,325.146735L773.708685,321.168549L773.610331,319.383485L773.436699,318.672724L773.264445,318.251312L773.192341,317.855125L773.319234,317.227459L773.579921,316.719985L774.028390,316.175414L774.552436,315.725809L775.045068,315.500265L777.777392,315.114465L780.588784,313.873971L781.227081,313.172113L781.284670,312.090391L781.039787,310.867703L781.015468,309.883914L781.216695,308.913480L781.627456,307.736791L781.740226,307.014159L781.728479,306.140174L781.494095,305.378962L780.991737,305.003549L779.821731,305.163805L779.019820,305.574830L778.430932,305.503605L777.874003,304.230466L777.809059,303.746733L777.811362,301.828122L777.680682,301.244971L777.085265,300.335374L776.883185,299.832351L776.807269,298.758047L777.298783,295.624167L778.012447,293.377626L779.520151,292.374547L783.428982,291.772106L784.777332,291.261663L785.078156,290.593933L784.905999,289.700658L784.798393,288.504679L785.113354,287.249346L785.725788,286.860579L787.680846,287.044575L788.629765,286.332330L790.732850,284.234173L791.595227,283.797922L792.360674,283.275609L794.195317,280.830232L795.261983,280.052697L797.550442,279.818249L798.596517,279.402772L799.244020,278.292856L799.092364,277.277906L798.474200,275.927606L797.652084,274.601048L796.857788,273.669193L796.342659,273.286361L795.713797,272.953980L795.051599,272.728435L794.446851,272.663146L793.902266,272.844175L792.825673,273.440681L792.264441,273.425842L791.479253,272.621598L791.552660,271.461231L791.957273,270.176220L792.144737,268.992111L791.969585,268.434185L791.382340,267.288656L791.316992,266.727763L791.608266,266.015517L792.057136,265.798875L792.587707,265.677200L793.123907,265.246884L793.638562,263.843166L793.271252,262.718411L791.875780,260.783475L791.598397,260.011875L791.699878,259.756654L792.122111,259.534077L792.791350,258.866346L793.167254,258.204551L793.335888,257.613980L793.441481,257.020441L793.638608,256.346775L794.268209,255.144859L795.060293,254.254552L797.890625,252.005040L798.451311,251.254214L799.244931,249.233215L800.057216,247.755304L800.762572,247.992719L802.133825,250.171006L803.612847,250.954477L805.200576,250.654740L808.454909,249.025476L810.531216,248.764319L811.334880,248.375552L811.703371,247.244860L811.809670,244.802448L812.086867,243.772659L813.755895,241.113605L813.609130,240.683289L812.833554,240.395423L811.991246,239.291441L811.917506,238.288360L813.357341,229.634562L814.176799,226.966604L815.212730,225.712753L815.719279,225.804751L816.179772,226.059973L816.641352,226.208358L817.161538,225.976877L817.434000,225.438241L817.377995,224.807605L816.928001,223.616076L816.022693,221.909650L815.821528,221.192952L815.782872,220.612767L815.841401,219.446463L815.759925,218.846988L814.363914,215.385170L814.099003,214.014094L814.016606,211.727484L814.222986,209.473518L815.915467,202.794714L815.798898,200.895387L815.051316,200.062948L813.986234,199.404119L813.150029,198.585034L813.120544,197.276279L813.459343,196.868220L815.193210,195.765720L815.637361,195.129149L816.515457,192.894471L817.046712,190.407539L817.390198,185.334256L817.642658,184.335620L817.978582,183.006096L818.409945,182.458555L819.411936,182.141011L819.741044,181.768564L820.073330,181.232895L822.140459,178.970023L822.536228,179.152536L822.909231,179.645175L823.415588,179.958267L824.108587,179.760915L824.317266,179.158472L824.488407,178.420998L826.332009,176.561733L826.479414,174.843434L826.356299,172.942621L826.770449,171.117485L827.401094,170.365172L828.004524,170.276141L828.471264,170.746522L828.743496,171.659090L829.258270,172.494498L830.282210,172.782366L832.426279,172.941138L833.659383,173.451582L834.305783,173.844803L834.638940,174.260281L834.881328,175.214397L835.236892,176.125481L835.797644,176.827343L836.656039,177.162693L837.271926,176.767989L839.582810,174.025832L840.475685,173.392228L840.987322,172.898106L841.337809,172.202180L841.699701,170.957229L842.259838,171.294063L842.788397,171.399417L843.970184,171.473609L846.280174,172.166567L846.981289,172.265985L848.400379,171.804508L849.776880,170.986906L851.057300,170.700523L852.487988,172.202180L852.829229,172.219986L853.182777,172.163600L853.540142,172.304566L853.736784,172.595400L853.953458,173.323971L855.365054,175.794583L855.874825,176.063159L856.407315,176.140320L856.927997,175.957806L858.107957,174.497697L858.653932,174.525890L859.236458,174.781113L860.114754,174.516987L860.507688,174.061445L860.380800,173.691966L860.110247,173.273520L860.057053,172.684431L860.417129,171.857926L861.430187,170.656007L861.742353,169.930404L862.306502,170.012016L864.683995,173.650418L865.361924,173.700869L866.610983,172.957460L867.968150,173.543581L868.946172,173.513904L869.890036,173.196360L871.421676,171.653155L872.328639,171.786702L874.256271,173.273520L876.221733,173.761707L880.162971,172.909977L882.252522,172.907009L885.147538,173.791384L894.465763,173.585129L894.944129,173.282423L895.717236,172.444048L896.332385,172.268953L897.072598,172.420306L897.478316,172.813526L897.796519,173.353648L898.232305,173.945705L900.170381,175.432523L904.385534,177.814103L907.395142,181.226959L908.626907,182.057915L910.050576,182.500103L911.797983,182.804292L912.622044,182.842872L914.015625,182.734551L914.848710,183.089191L915.316214,183.548600L917.364270,182.597534L917.798264,182.527431L918.312091,182.581177L917.944317,182.109149L917.009258,181.132378L916.805978,180.833271L916.940940,180.354233L917.227956,179.954645L917.456869,179.456912L917.773986,179.085365L918.793051,178.281516L919.205621,177.744058L919.406492,177.087425L919.294686,176.358352L918.490250,175.545155L918.276591,174.935257L918.166881,172.561096L917.907226,171.941851L916.907195,171.275871L916.690229,170.778138L917.106108,170.144873L918.050123,169.165765L919.121484,168.354904L919.883682,168.252086L920.738750,169.341023L921.252299,170.448653L921.877275,171.472160L923.031415,172.348450L923.492737,172.514361L924.775025,172.776079L926.391402,173.484121L927.079538,173.561235L927.280594,173.806596L927.676788,174.883848L927.873794,175.131546L928.319151,175.220344L928.754046,175.440000L929.489240,175.912028L931.538057,177.959041L932.170688,178.265158L933.018734,178.412375L936.187786,179.442892L937.295881,179.414850L943.832914,175.566186L945.017012,175.131546L949.112898,174.703917L953.631068,173.248107L954.005221,172.958347L954.622410,171.955872L955.443521,172.584464L956.621795,172.825151L958.813404,172.776079L959.774336,172.600821L961.382609,172.070374L962.230892,171.955872L964.230873,172.042333L964.934897,171.841370L965.684536,171.205768L966.189546,170.630922L966.662302,169.897175L966.856990,169.039579L966.543314,168.072155L967.336639,168.280128L967.852747,168.555867L968.297734,168.635317L968.836349,168.252086L969.240186,167.635178L969.195653,167.216896L967.070645,164.756273L966.429980,163.686030L966.677018,162.900874L966.045754,162.634482L964.807555,162.438193L964.223306,162.120392L962.829881,163.335514L961.923245,163.865962L961.486491,163.527130L961.150584,163.055102L960.505829,162.505960L960.029986,161.868020L960.193003,161.138947L960.718376,160.400526L960.944023,159.690147L960.806415,158.972757L960.224621,158.194611L959.474322,157.685194L958.557649,157.402444L957.870957,157.612754L957.794249,158.587189L956.900156,158.173580L956.529364,157.923545L956.192632,157.610417L955.946328,157.206155L955.491390,156.154607L955.235603,155.811101L954.835058,155.628833L953.763432,155.467595L953.296820,155.453574L952.827535,155.299347L952.389396,154.937147L951.700219,154.245462L949.873249,152.796661L948.213702,151.149235L946.732934,149.284488L945.413300,147.181390L944.766525,145.519942L944.444386,145.008188L944.093904,144.674030L942.747871,143.718288L942.399533,143.594439L942.181343,143.351414L942.076709,142.655055L942.194954,142.047493L942.547359,141.589485L943.369191,140.872095L946.032897,137.252428L947.781222,136.027956L949.762152,136.560742L949.645967,135.808299L949.716028,135.236501L949.961029,135.026191L950.389706,135.350291L951.880300,133.846117L952.924816,133.060959L953.423914,133.229208L953.882863,132.930100L954.952330,133.289964L956.590208,134.210655L958.441878,136.509333L959.445930,138.275936L959.751622,138.698892L960.437622,139.224667L960.929400,139.248035L961.991960,138.486246L963.417659,137.158957L964.015696,136.918269L964.658126,136.904248L965.731182,137.254764L967.195189,137.509473L968.825109,138.275936L969.627243,138.486246L970.684326,138.355386L971.920592,137.934766L973.078622,137.352909L974.833039,136.091049L984.124954,132.995530L993.189596,129.191253L995.130907,127.901351L997.435745,124.875221L998.539483,123.741882L998.575764,122.297752L998.189294,119.629149L998.241001,118.647701L998.619253,116.743225L998.665021,115.497721L998.421281,114.548988L997.911787,113.798881L996.750504,112.572071L995.448445,110.714330L994.655344,109.828690L993.845471,109.403396L992.566942,109.620717L988.723167,111.751861L987.198890,111.688768L984.724238,110.258658L983.485737,110.221269L982.851289,110.693299L983.005554,111.193370L983.334105,111.793923L983.230972,112.572071L982.650901,112.983345L981.826043,112.973997L981.017881,112.656195L980.438532,112.144440L981.307308,111.581276L981.053359,110.366150L980.132054,109.160371L979.047844,108.613564L978.100194,108.309782L975.600591,106.262762L975.652361,106.846957L975.586231,107.230189L975.387090,107.515277L975.024816,107.833079L974.629130,106.440357L973.913160,105.304682L972.871010,104.545228L971.520757,104.267151L970.619353,103.827836L969.587188,102.794978L967.028219,99.509463L966.014072,98.740662L964.900689,98.728978L963.637356,99.757162L963.464528,100.374072L963.629384,101.907001L963.425438,102.484186L963.068451,102.974910L962.790133,103.626872L962.365237,105.085024L962.019028,105.085024L961.621018,103.883918L961.716695,102.668792L961.988312,101.432634L962.307190,98.172824L962.460670,97.962514L962.799601,97.752203L963.152682,97.422717L963.307377,96.854879L962.983091,96.118793L962.207084,95.564975L961.300010,95.102293L960.577610,94.625589L958.711661,92.978158L953.340913,89.568793L952.320272,89.293053L951.993469,89.120131L951.509073,88.778960L950.985756,88.554629L950.562557,88.727551L950.045212,89.437933L949.802780,89.676285L949.550526,89.585150L946.826816,88.012496L945.724258,87.746103L943.692694,88.797655L941.444136,89.050027L940.698135,89.725357L940.657313,90.335257L941.114727,91.391483L941.004473,91.863513L940.705438,92.274786L940.504399,92.669703L940.221351,93.679192L940.480613,94.279745L940.504371,94.793837L940.143169,95.429442L939.666533,95.684151L939.283487,95.459820L938.719035,94.625589L938.206314,94.366206L937.685269,94.485382L937.211891,94.723734L936.825698,94.821879L936.345506,94.630263L935.972477,94.134865L935.559163,94.036720L934.718632,94.268061L932.760446,95.321950L931.996702,95.602364L931.390474,95.747244L931.109185,95.880441L930.875495,95.826695L930.433671,95.429442L928.675161,90.970862L928.433313,90.540894L927.946442,90.227765L928.007077,89.526731L928.512848,88.828033L929.348617,88.512567L932.506159,88.830370L933.341788,88.512567L934.302602,88.900473L935.485593,88.830370L936.590504,88.463495L937.316949,87.958750L938.670780,85.675714L938.617456,85.306502L938.321255,85.016741L936.024609,81.789645L935.690995,80.457679L935.703690,79.279941L935.533109,78.585917L934.630843,78.071825L934.540165,77.555396L934.541940,76.924464L934.394754,76.356626L932.556109,74.358678L931.823344,74.150704L931.470084,74.316616L931.279964,74.599366L930.410862,75.118132L928.898023,77.534365L927.583331,78.637326L926.922932,79.357055L926.650066,80.081457L926.172768,80.464690L923.799630,80.990466L922.905219,81.060569L922.168869,80.934383L921.560102,80.731083L921.030717,80.696031L920.515250,81.060569L921.031081,82.488343L920.762300,83.142642L919.874039,83.250134L917.347239,82.937005L913.986436,83.416045L910.402563,83.437077L909.129112,83.808625L906.305910,85.224715L905.417703,85.409321L906.555055,83.909107L912.839627,81.453148L914.543931,80.233348L915.224665,79.431832L915.469243,78.494782L915.061342,77.090376L914.324033,76.725838L913.591209,76.515528L913.204688,75.571468L913.305933,74.877443L913.671000,74.627408L914.131031,74.454486L914.524045,73.968435L914.707436,73.272074L914.664154,72.795370L914.507847,72.360729L914.401831,71.795228L914.218711,71.470415L913.461021,71.112887L912.514548,68.874250L911.344260,67.418435L911.024255,66.500079L911.417721,65.523304L912.799872,64.041785L913.674663,63.345424L914.593530,62.987896L916.294547,63.338413L917.046860,63.237932L917.327542,62.385006L917.578197,58.583062L916.970363,57.050133L917.170432,56.522021L917.490616,56.005592L917.653134,55.470469L917.535542,55.077889L917.011766,54.077747L916.815904,53.544961L916.711917,52.892999L916.686117,52.381243L916.599165,51.951276L916.344800,51.547012L916.015700,51.273609L915.728718,51.226873L915.494148,51.441857L915.337917,51.939592L914.991880,51.939592L914.412073,50.691750L913.818927,49.780406L912.510494,48.196068L911.998684,47.899297L911.465388,48.006789L910.780537,48.408715L910.119232,48.301223L909.612516,48.020809L908.808275,47.235651L908.596520,47.137506L907.938485,46.945890L907.747049,46.843072L907.694247,46.576679L907.725848,46.205130L907.842331,45.945748L908.044615,46.022861L906.791797,44.690896L906.579226,44.648834L906.452934,43.076180L906.235762,42.195214L905.815754,42.197551L905.089086,43.277144L904.013357,45.560179L903.494544,46.191110L902.679817,46.415441L901.837341,46.099975L900.913298,45.380247L899.574675,44.059965L898.390011,42.629855L897.670493,41.959199L896.870909,41.674112L894.832298,41.748889L894.147666,41.318921L893.494622,40.106132L893.229170,39.178430L892.879451,35.612503L892.532778,34.574973L890.549087,31.873655L890.202418,30.910901L890.031889,29.730827L890.193552,28.733022L890.867775,28.307729L891.055381,27.737554L891.207668,24.977818L891.106040,23.994034L890.872521,23.545372L890.567552,23.274306L887.837374,21.474986L887.654524,21.248318L887.231221,21.129143L885.907769,20.505223L885.496810,20.252850L885.169305,20.217799L884.449708,20.967905L884.022262,21.248318L883.625693,21.161857L883.037963,20.914159L882.421616,20.736564L881.897733,20.855739L881.724734,21.255329L881.666114,21.907290L881.802241,22.512516L882.201928,22.783582L882.411254,22.972861L882.301076,23.391145L881.992767,23.802418L881.572110,23.994034L880.941777,23.856164L880.460233,23.659874L880.060801,23.727641L879.693530,24.386613L879.706196,25.601738L880.996390,28.116113L881.377503,29.303197L881.157186,30.151448L879.452424,32.266234L878.854913,33.831876L878.519833,34.149679L878.192963,34.261844L877.960455,34.504869L877.881967,36.491132L877.598822,37.196840L876.027124,38.535815L873.924011,40.987098L873.251697,41.318921L872.772064,41.774594L872.223019,42.798104L871.499064,43.861339L870.471177,44.452544L868.386357,43.884707L867.991925,41.879749L868.565506,39.398087L869.360699,37.397803L870.873072,34.659097L871.326111,33.151873L871.391543,30.892207L871.002529,29.705123L870.250887,29.195705L869.428769,28.882576L868.813146,28.307729L868.812860,27.964222L869.028911,26.169575L869.261897,25.938234L869.817081,26.127513L870.793285,26.737413L869.848544,22.605987L869.500168,21.963373L867.321791,20.428109L866.718271,19.124186L866.543504,18.895182L865.968775,18.990990L865.443596,19.355527L865.036510,19.832230L864.803111,20.521580L864.316204,21.442271L864.118392,21.640897L863.768487,21.844197L863.679639,22.341931L863.695260,23.603792L863.351821,25.868131L862.986420,26.765454L861.599677,27.529581L861.485301,28.494671L861.705048,30.695918L861.530551,31.284786L860.970225,32.238192L860.787462,32.691528L860.740359,33.278059L860.939507,35.224597L860.928125,36.687422L860.683825,37.701585L860.204189,38.500764L859.490941,39.320974L856.633032,44.071649L855.788892,44.847461L855.138040,45.197978L854.809769,46.062587L854.700901,47.158537L854.728545,48.196068L854.499329,49.422878L853.781909,50.049136L852.858698,50.537523L851.990414,51.334365L851.278389,52.198974L847.010682,56.061674L846.576431,56.678585L846.344074,57.152952L846.228996,57.517490L845.896978,59.349526L845.919485,59.672002L845.827410,59.863619L845.369209,60.209462L844.351742,60.139359L843.984949,60.209462L843.786009,60.405752L843.046667,61.387200L841.712909,62.205074L841.733301,62.564938L843.004795,62.392017L843.943022,61.863904L844.570021,62.022805L844.888388,63.934293L844.648551,64.502131L844.006551,64.368934L843.225901,63.969344L842.615430,63.738003L841.770522,63.878210L841.148132,64.238074L840.131027,65.343372L837.964984,69.402363L837.106917,70.047315L835.596710,70.598795L835.149763,71.673715L835.586870,72.421485L836.699139,71.972823L837.584159,73.664653L837.004693,76.150990L834.214172,81.843391L833.965730,82.955699L833.961265,85.605610L833.698517,86.918882L832.961036,87.914351L828.566131,90.790930L827.860763,91.470933L827.366634,92.403309L827.129143,93.513281L826.879831,96.032332L826.380105,98.348083L825.507352,100.869470L824.323495,103.129138L822.837303,104.659730L821.523149,105.145780L820.065237,105.246262L815.574749,104.888734L814.496001,104.355948L812.676790,102.666455L812.470096,103.285702L812.328916,104.846672L812.096141,105.442552L810.971486,103.790447L812.525497,100.093659L811.747327,98.775714L810.813438,99.904379L809.265302,104.267151L805.838390,107.167096L805.314215,108.029369L804.772778,109.197759L802.224861,110.945672L801.662649,111.555571L801.524317,111.992549L801.196380,112.590765L800.876772,113.352556L800.638706,115.228991L800.378785,116.114631L800.267857,116.932504L800.587868,117.633538L801.527647,116.659101L801.743698,116.530578L802.286681,116.670785L802.338187,117.035323L802.247695,117.526046L802.402631,118.061169L807.139852,122.484695L808.903843,123.297894L810.782262,123.353977L812.648004,122.339814L813.020630,123.108615L812.844520,123.540919L812.416359,123.879752L812.020548,124.370476L811.535373,125.545876L811.451690,126.097356L811.481745,128.184101L811.251392,130.513870L810.991775,131.429888L810.550101,132.084186L809.778005,132.726800L808.825792,133.229208L807.808970,133.425497L807.196438,133.794708L805.691419,136.133111L803.769678,138.140403L803.563960,138.486246L801.975575,140.407076L801.396276,140.872095L800.588255,141.042679L799.540152,141.023985L798.628688,140.678142L798.029762,139.554153L797.614478,139.238688L797.091976,139.007347L796.600820,138.911539L795.504151,138.995663L795.230931,138.888171L795.054659,138.486246L794.450590,137.682395L793.749972,137.602944L793.181415,138.117035L792.796329,140.028518L792.248064,140.453812L791.474534,140.570650L790.627999,140.542609L790.723765,141.857408L791.215717,142.393079L791.908689,142.755139L792.587525,143.258166L793.958640,145.304399L797.784827,156.148391L798.068884,157.510567L798.037012,158.504748L797.734756,160.775041L797.813767,163.034947L798.208766,165.458077L798.977830,167.715014L800.226476,169.476346L802.093732,171.372707L802.882862,172.601336L803.062560,173.791384L802.370363,174.698017L801.257891,174.650534L800.058477,174.070348L799.110555,173.377390L798.656906,173.190424L797.684781,173.234940L797.144306,172.981202L796.319322,172.228889L795.887281,172.056762L794.381527,172.228889L793.311867,171.970699L790.370990,170.758393L789.677432,170.249432L789.236989,169.434798L788.369260,163.775389L787.672508,161.512515L785.808699,157.040186L785.264006,154.812925L784.838374,150.141758L784.975254,145.589045L784.963142,145.576025L784.562007,143.496294L784.404727,141.267010L784.001276,140.089274L783.730183,140.619723L783.345980,141.028659L782.879803,141.362818L782.349960,141.659588L781.258349,142.967330L781.138618,143.850223L781.142956,144.810276L780.855227,145.687233L780.075844,146.249613L779.186829,146.273354L778.246247,146.095292L777.316738,146.038906L776.197413,146.392063L775.312265,147.043474L773.762875,148.809258L772.933309,149.422089L771.116385,150.304982L770.702617,150.760852L770.643653,150.825814L770.657176,151.773995L771.084596,152.839401L772.163735,154.958342L772.512768,156.145424L772.745251,157.418569L773.303242,164.130030L773.703666,166.231163L774.683045,167.832238L775.696822,168.241781L776.439353,168.102299L776.829246,168.382747L776.789016,170.026854L776.421664,172.202180L776.088065,173.163715L775.587500,174.141573L774.427303,175.474984L774.123363,175.824260L773.848578,176.353994L773.932710,177.532172L775.481851,176.803601L775.699468,177.805200L775.379887,178.860218L774.309310,180.817416L774.002575,181.934756L773.824148,184.305948L773.473440,185.147291L769.030810,190.186446L766.709999,191.759326L764.613521,191.486298L764.342569,191.032240L763.904019,189.607744L763.632369,189.018656L763.210098,188.580920L762.099201,187.724739L758.769325,184.392012L757.998255,183.290995L757.451299,182.167720L756.237976,178.536738L755.565285,177.778491L754.624998,177.716169L752.569681,178.137583L750.332179,177.641976L748.597665,177.503978L748.338599,176.978695L748.211259,176.119546L748.358580,175.782712L749.034383,175.083818L749.177260,174.531826L748.716333,171.967731L747.971752,170.788070L747.899224,169.186995L747.433302,167.578500L747.106041,166.947863L746.541379,166.280130L746.356636,165.904716L746.288799,165.452141L746.156056,165.069307L745.782125,164.909051L745.000726,164.885310L744.678551,164.711699L744.237014,163.535005L743.619745,163.094301L742.348508,162.554179L740.626338,161.094069L739.528891,160.463432L736.731090,159.981181L733.335119,158.194611L732.189449,158.563821L731.906777,159.493858L733.293381,164.896479L733.433860,167.616484L733.024484,170.049065L732.029985,171.955872L732.494212,174.215531L731.553941,176.991617L721.593822,192.643315L709.811551,204.644968L707.771404,205.997958L706.850861,206.892941L706.481606,207.958508L706.379075,209.299814L706.018681,210.594384L704.923412,212.912459L702.620487,216.006341L702.298087,216.618575L702.048225,216.978437L700.901225,218.025310L700.651533,218.602492L700.617221,219.838642L700.532256,220.305996L700.388781,220.754656L699.521845,222.338985L695.716554,226.283449L694.139146,229.302554L693.953297,229.847021L693.421065,230.176505L691.076976,232.592723L689.774097,233.618564L689.409027,234.123306L690.111910,235.399181L689.123281,237.588732L686.534859,240.860206L684.874996,241.862679L676.172362,244.975252L675.577732,244.961231L672.507178,246.349271L664.835227,248.197653L650.941821,252.385138L636.669550,256.696472L628.926478,257.002588L619.312970,259.157086L617.785252,260.012342L612.376758,263.889036L608.829063,267.050680L608.300015,267.681606L607.983564,268.515832L607.801552,270.766136L607.013656,274.292315L607.035233,275.694373L607.346612,276.584681L607.876914,277.208597L608.534877,277.825503L609.368987,278.400347L611.303443,278.926119L612.419048,279.393472L612.139728,279.578076L612.058085,279.608454L611.981606,279.533677L611.700992,279.393472L610.726419,280.356219L609.511506,280.300136L608.088041,279.886529L606.512661,279.781374L606.929444,280.627283L607.601838,283.038824L608.042976,283.742190L609.747233,285.473732L610.796021,286.660808L611.246050,287.695995L610.225175,287.053385L609.287406,286.286926L608.913213,286.188782L607.212984,286.483214L606.747258,286.651461L605.188618,287.875926L604.767134,288.004448L604.401626,287.773108L604.070439,287.441288L603.776707,287.268367L603.345265,286.894485L602.024338,285.130228L601.426298,284.562394L599.700573,283.959509L599.022909,283.496830L598.570044,282.529409L597.315487,283.679097L596.728606,285.242393L596.333703,289.266300L595.801205,291.969936L595.742665,293.007459L596.163726,293.470138L597.072835,293.666426L598.036863,294.063676L598.602392,295.147934L597.576831,294.916595L596.580267,295.463397L595.833037,296.388756L595.547580,297.302430L595.619197,298.620365L595.903614,299.241944L596.624466,299.347098L600.240641,298.741877L601.298173,298.938165L602.711070,299.947647L603.249509,300.181323L603.729313,300.062148L604.108984,298.629712L604.596802,298.029164L605.193668,297.811845L605.676461,298.281534L605.539597,298.730193L604.637206,300.218711L604.317807,300.636992L603.645474,301.134722L603.218760,301.232866L601.359170,300.819259L600.345810,300.412662L599.439851,300.330876L598.757079,301.064619L598.882916,302.438636L600.231271,303.695815L598.991791,303.807979L597.971208,303.434097L597.353599,303.328943L597.088323,303.611691L597.022856,304.952993L595.699789,310.262119L594.194881,314.000939L593.109261,315.963820L592.704081,317.020036L592.565056,318.174397L592.761384,318.646423L593.537294,319.197899L593.627127,319.525046L593.279941,319.875560L592.151905,320.193360L591.915704,320.525180L592.033543,321.380435L592.306367,322.156240L593.527375,324.422899L593.739573,324.696300L594.060128,324.824822L594.980868,325.032794L595.171113,325.245440L595.287990,325.502483L595.889729,326.441862L595.953739,327.135880L596.121905,327.283096L596.451533,327.255055L597.460950,327.563508L597.906057,327.530793L598.353102,327.591549L599.273266,328.376701L599.761388,328.629071L600.788007,328.974912L599.697112,329.320753L598.836593,328.820686L598.119198,328.257526L597.474185,328.404742L596.326383,328.993606L595.492807,328.199107L594.800564,326.862479L594.110357,325.834304L593.111456,325.441728L591.993958,325.493136L589.084923,326.126399L588.629898,326.869489L588.256416,328.974912L587.611574,330.970507L587.558997,331.437859L587.654273,333.125001L587.882522,333.821356L588.877401,334.891593L589.845891,337.634951L590.702782,338.429450L592.967095,339.445942L593.893205,340.203052L594.639356,341.058307L595.480203,341.677549L596.439471,341.997685L597.540728,341.948613L599.356415,340.999888L599.947310,340.805937L600.691802,340.887723L602.113740,341.453220L602.921193,341.593425L603.286775,341.953287L603.785651,343.546958L604.019004,343.906819L604.711019,344.058709L606.133064,344.649909L606.975883,344.691971L604.816519,345.860352L602.804256,344.787778L600.941522,343.077269L599.281438,342.341189L598.227229,342.715071L596.560585,343.708195L595.346343,343.906819L594.702306,343.666133L591.650290,341.948613L589.675543,340.483464L585.738710,336.102036L583.520219,334.496680L579.159496,332.498749L576.803541,332.129541L575.473062,333.321289L575.523348,334.209259L575.795252,335.253791L575.878395,336.368426L575.391135,337.455021L574.398317,338.448144L573.475271,338.980926L572.426633,339.195908L571.085867,339.237970L571.078044,338.812679L572.962990,337.401275L573.847442,336.363753L574.117281,334.928981L573.455213,333.564312L572.143071,332.744109L569.201065,331.750985L567.094949,330.458756L566.404264,330.185355L565.815226,330.246110L564.774788,330.851332L564.314864,330.970507L563.740344,330.725147L563.561323,330.236763L563.412637,329.617521L562.916678,328.974912L562.179471,328.650102L561.475212,328.727215L560.126034,329.365151L560.405767,328.708521L561.284074,327.656978L561.464697,327.208320L561.531631,326.058633L561.768932,325.170663L562.197735,324.366817L562.802202,323.483521L562.132055,322.453009L561.317214,322.565173L560.404985,323.140017L558.894488,323.728881L558.294112,324.808465L557.783234,325.049152L556.654725,324.969702L556.206580,324.857537L555.839950,324.696300L555.496796,324.474308L555.218931,324.217264L554.984968,323.890118L554.802950,323.483521L554.749606,323.111976L554.814687,322.298782L554.769314,321.917890L554.600797,321.569713L554.123257,320.868684L553.694522,319.202572L552.994679,318.912814L552.194177,319.482984L551.598525,320.740162L551.535889,321.275281L551.649447,323.095618L551.716356,323.329295L551.976404,323.911148L552.021136,324.268673L551.900444,324.612177L551.423473,325.287501L551.196902,326.296983L550.847654,326.175471L549.602210,324.651902L549.300681,324.446267L549.008806,324.502349L548.538226,324.696300L548.171761,324.934650L547.407223,325.677741L547.175217,325.834304L546.601801,325.652036L545.594908,324.876231L544.918320,324.696300L538.445112,324.642555L537.350317,324.792108L536.587966,325.245440L535.983750,325.366951L533.475334,325.423034L532.761673,325.245440L532.123093,324.320082L531.230399,322.326824L530.598366,321.345383L529.715754,320.616314L527.630379,319.627863L525.801179,318.286562L522.639054,316.786360L521.587916,315.931105L520.630812,314.860868L519.081668,312.470359L518.597816,311.192150L518.609051,310.266792L518.829499,309.467619L518.989140,308.546935L518.887663,307.415941L518.327247,305.079178L518.180333,303.807979L517.929052,302.831212L517.919865,302.793824L517.049720,305.868631L515.777704,308.542519L515.037550,309.818625L514.514373,310.526419L512.705515,312.299613L512.287153,313.020761L512.260029,313.891777L512.626952,315.964708L512.615611,316.392055L512.646206,316.820886L512.919007,317.534615L513.280566,318.236473L513.752051,318.935364L514.340795,319.487354L515.012275,319.749994L517.240365,319.761865L518.150476,320.150632L518.446905,321.248677L518.207386,325.777369L518.319089,328.411192L518.609056,329.532978L519.193377,330.706698L520.195962,332.104479L524.798787,336.490721L525.156169,337.100581L525.306333,338.703132L525.612125,338.798098L526.565681,338.197141L526.939813,338.587392L527.880322,341.022380L528.775629,341.842945L529.794486,341.946814L530.798604,341.810301L531.778978,341.813268L532.710784,342.331130L533.350986,343.264467L534.383876,346.644663L535.012152,347.855479L535.656749,348.478693L537.491999,349.466933L538.451328,350.440334L539.555337,352.627519L540.723665,353.594985L541.689241,353.998591L544.673803,354.443744L545.604681,354.983863L546.371802,356.147196L547.503160,358.586634L550.088254,362.759201L550.369055,364.156981L550.473518,365.329217L550.947781,365.516182L551.631386,365.269864L552.363591,365.133350L554.951336,365.777338L555.589478,366.071139L556.439114,366.919897L558.608007,370.202158L560.536444,371.908578L562.889464,373.196553L565.304997,373.537837Z M877.903117,2.121793L877.519209,0.757115L876.750366,0.004674L874.855125,2.748049L874.185489,3.093892L872.514216,3.551900L871.817495,3.925784L869.696956,9.057347L870.242283,9.281677L870.981125,9.375148L871.693478,9.309718L872.142858,9.057347L872.354647,8.433427L872.062358,8.108615L871.606535,7.802497L871.337382,7.258028L876.092515,5.884003L875.483034,4.846474L875.681738,3.764547L876.405616,3.364958L877.403321,4.353414L877.872734,3.514512L877.903117,2.121793Z M889.077202,0.000000L885.325336,0.752442L884.653185,0.864607L884.042440,1.163715L882.967264,2.054026L881.841433,3.442071L881.363369,3.757536L880.584268,4.065991L880.322461,4.351078L880.175243,4.883863L880.390598,7.430950L880.219303,7.846896L880.031382,8.781607L880.698078,13.158391L881.159704,14.546437L881.678005,14.076745L881.921730,13.497224L882.091305,12.852273L882.395833,12.193302L882.839118,11.842785L884.145057,11.132405L884.408575,10.805256L885.018854,10.492128L887.917916,9.842504L888.842081,9.414873L889.750611,9.912607L890.456458,8.833016L890.907377,7.113148L891.119838,2.698977L890.967152,1.345983L890.305022,0.397252L889.077202,0.000000Z "/></g></svg>