<?xml version="1.0" encoding="utf-8"?><!DOCTYPE svg  PUBLIC '-//W3C//DTD SVG 1.1//EN'  'http://www.w3.org/Graphics/SVG/1.1/DTD/svg11.dtd'><svg enable_background="new 0 0 1000 1759" height="1759px" pretty_print="False" style="stroke-linejoin: round; stroke:#000; fill: none;" version="1.1" viewBox="0 0 1000 1759" width="1000px" xmlns="http://www.w3.org/2000/svg" xmlns:xlink="http://www.w3.org/1999/xlink"><defs><style type="text/css"><![CDATA[path { fill-rule: evenodd; }]]></style></defs><metadata><views><view h="1759.90582906" padding="0" w="1000"><proj flip="auto" id="robinson" lon0="34.6715956011"/><bbox h="274.89" w="156.29" x="443.08" y="175.55"/></view></views></metadata><g class="" fill="black" id="country"><path d="M199.021919,1666.566889L199.863626,1663.421564L200.004474,1662.224594L197.323693,1663.465249L193.857196,1665.701924L191.550564,1668.602614L192.384140,1671.756680L193.204143,1669.266628L193.211913,1668.821040L194.440128,1668.585140L194.737367,1669.056940L194.732454,1669.790849L195.057803,1670.288860L196.063206,1670.909189L196.332803,1671.346040L196.571887,1671.241195L197.497119,1670.288860L197.840957,1669.633583L199.021919,1666.566889Z M455.405075,1213.000555L459.504548,1198.047361L460.491939,1190.300391L460.503697,1187.718078L460.086678,1186.077963L459.252238,1186.008171L458.081562,1188.101935L454.385599,1201.379969L452.930102,1209.528324L452.859223,1211.657027L453.501423,1213.166315L455.405075,1213.000555Z M901.274345,637.062996L901.868511,635.550042L901.793047,633.660027L902.727308,630.539616L905.371632,627.697919L905.913997,625.522315L905.781497,623.064292L902.614580,622.694853L897.994728,623.839779L895.254601,625.262829L894.124859,627.154552L893.566199,631.312095L894.753109,634.994429L896.883803,637.069834L898.910797,637.822714L901.274345,637.062996Z M135.466594,1757.905829L146.195683,1757.595198L158.076421,1757.229095L170.984002,1756.829711L185.205126,1756.387215L184.987491,1755.365162L184.300912,1753.801501L184.214458,1752.718288L185.480091,1749.756901L185.758787,1748.682407L186.933350,1740.191133L186.678841,1735.788152L186.992314,1734.530146L188.001418,1732.101482L189.823753,1723.976690L192.939593,1694.114630L196.478481,1676.894049L196.614705,1674.019569L192.902246,1675.688340L191.719869,1676.570779L190.868600,1677.863857L189.684821,1682.817740L188.402390,1686.251377L187.712637,1689.108365L187.637625,1691.939136L188.255296,1695.346534L186.877720,1695.477588L185.757444,1696.106644L184.777571,1696.543489L183.766791,1696.019275L182.100115,1694.376737L180.931679,1692.227455L179.910404,1689.781111L178.103626,1687.221181L176.818139,1686.111585L174.655766,1684.696194L172.357672,1684.171974L170.664160,1685.753369L170.252708,1683.446804L168.903396,1678.859877L168.587056,1675.574759L168.127696,1674.954430L167.452911,1674.421472L166.712887,1673.635140L166.134566,1672.446905L165.476165,1670.000538L164.904438,1668.821040L164.012183,1667.956075L162.090572,1667.152269L161.231816,1666.566889L160.842831,1665.894138L160.288528,1664.111787L159.886891,1663.290508L159.149796,1662.897343L157.782378,1662.416808L156.436618,1662.172172L155.782348,1662.556600L155.459896,1666.042668L155.514659,1666.566889L154.508559,1667.064899L153.613962,1665.894138L153.380761,1663.893362L154.288389,1661.840166L155.741654,1660.695618L157.287778,1660.180136L158.856562,1660.223821L160.370278,1660.756777L162.172320,1662.014906L162.938293,1662.311964L164.036781,1662.224594L164.910595,1661.691636L167.479021,1659.542335L168.015568,1658.904535L168.798983,1657.707568L173.418792,1653.304136L174.038001,1652.098437L174.507518,1650.779160L174.850929,1649.328831L175.042258,1647.799872L175.446409,1646.672812L176.225266,1645.991335L177.118699,1645.388491L177.821029,1644.506067L178.390030,1644.506067L178.699508,1645.484596L178.829348,1646.235968L178.713315,1646.856287L179.210732,1645.903966L178.889742,1640.574488L180.329919,1638.267973L182.460590,1631.383429L184.851065,1626.910273L190.147878,1619.676435L192.926549,1616.583747L217.948021,1598.901804L219.981908,1597.469123L224.846163,1595.267701L227.052532,1593.835040L228.555447,1591.458935L227.173512,1591.965603L226.609557,1592.341236L226.123873,1590.113651L227.855517,1589.414804L230.143655,1589.152738L231.325576,1588.261712L232.199430,1587.265865L236.067446,1585.291653L237.323914,1584.872353L236.456330,1586.235079L235.084048,1587.519194L233.484309,1588.611134L231.938848,1589.327449L231.891405,1590.061237L235.684588,1589.012969L249.743401,1581.081221L261.114525,1576.940749L274.860691,1569.481116L294.198688,1562.091640L315.242470,1554.003346L320.429799,1553.129946L330.965407,1548.553398L333.422131,1547.802297L345.831515,1542.343800L346.070879,1542.238999L361.667333,1538.108118L377.223669,1530.449199L405.351323,1515.053687L412.662284,1507.841002L413.195852,1506.897958L413.466929,1505.832673L413.586523,1504.435586L413.917561,1503.370314L425.139696,1491.216122L440.810853,1468.778087L442.026698,1466.770124L442.648410,1464.648688L442.976004,1464.098689L443.690129,1463.496311L444.397439,1462.762983L444.767415,1461.776486L444.655034,1460.571743L443.919843,1458.389254L443.811729,1456.992472L444.173427,1454.810016L450.640446,1436.233759L450.493918,1435.683825L449.934890,1435.360849L449.707796,1434.531587L449.571784,1429.774297L448.668157,1428.569713L444.947228,1427.565897L444.898585,1428.360221L445.208266,1429.564804L444.054086,1437.089213L443.400963,1438.049421L442.319396,1438.031963L440.621893,1437.150317L438.345233,1434.802188L437.066892,1433.946741L435.696890,1434.217341L434.655824,1435.867136L434.685029,1437.839921L435.945805,1441.541116L431.308562,1447.005720L430.490785,1447.101744L430.772964,1445.940723L431.755975,1443.898039L432.026764,1442.675928L432.008063,1441.392718L431.721835,1439.323884L431.701386,1438.677922L432.008455,1437.595504L432.806811,1436.102822L433.189519,1435.011686L433.428198,1433.693599L433.486612,1430.158369L433.825049,1427.941237L434.938787,1423.733975L435.265574,1421.700199L435.261984,1420.521838L434.855896,1418.042933L434.327603,1417.824721L433.367361,1417.039158L433.118834,1416.175041L434.676991,1415.782261L436.922675,1416.332153L437.197945,1417.746164L436.675758,1419.657710L436.461359,1421.700199L437.276634,1423.873634L438.153785,1422.930937L438.898876,1420.574210L439.241035,1418.409530L439.799757,1409.183653L442.122586,1395.201405L448.539863,1377.685268L449.476640,1373.182029L449.456171,1370.982796L448.785677,1367.038178L448.715058,1364.786625L449.090842,1362.622357L449.838865,1360.911897L451.704394,1357.735351L455.855705,1348.179711L458.090087,1344.994556L461.879311,1337.612085L462.541446,1334.514284L460.705473,1333.571859L460.666482,1334.243773L461.307219,1335.273461L460.520525,1335.849390L459.016081,1335.814485L457.449218,1335.037854L457.302627,1336.006461L457.002527,1336.634748L456.021142,1337.969861L454.683802,1333.755108L453.125535,1310.422079L454.191404,1297.002245L459.722327,1280.389408L460.077367,1278.103441L459.840439,1271.053649L459.961853,1268.889870L461.962075,1255.645624L461.336023,1255.645624L460.964230,1257.442916L459.997933,1260.025441L459.308747,1266.010661L458.843149,1267.860333L458.016497,1269.692561L457.125131,1251.614824L457.606137,1249.067232L457.706064,1247.810888L457.392575,1246.798836L456.685007,1246.362607L455.620050,1246.249187L454.643880,1246.711590L454.166863,1247.967931L453.957180,1248.212220L453.470601,1248.552480L452.910524,1248.857841L452.510514,1248.997435L452.118820,1249.259173L452.083018,1249.904795L452.147489,1250.646389L452.030139,1251.265838L449.844172,1254.363094L449.305273,1255.645624L450.124148,1256.247629L452.188592,1260.758322L450.871449,1262.468381L450.052032,1261.744223L449.142295,1258.577132L448.515868,1259.126791L448.115973,1259.807322L448.018990,1260.601276L448.341687,1261.578452L446.528645,1265.556969L446.258004,1270.809351L447.216672,1276.044334L449.162210,1279.935704L446.966112,1281.314268L446.198299,1282.902238L446.197899,1287.596379L445.523329,1288.730657L444.279456,1287.125217L442.691011,1283.600249L441.189868,1282.675385L439.570377,1281.977376L438.328945,1280.720961L437.932655,1278.103441L438.210832,1273.531536L442.507479,1245.996174L442.178766,1237.036094L441.499829,1231.949749L441.434903,1225.144741L441.153923,1223.382428L438.736386,1216.786872L438.127048,1212.171755L439.085182,1202.863070L439.106179,1198.291636L436.624699,1190.972142L435.443283,1190.195703L434.190746,1188.354932L429.126065,1177.894860L426.642274,1169.676899L426.371854,1160.289967L427.420943,1157.184260L428.446208,1150.257496L428.409251,1148.390587L424.969318,1161.092565L422.516124,1163.753357L423.000406,1159.190755L422.823516,1157.969410L421.942869,1157.053401L420.953309,1156.765513L420.612872,1156.346766L421.649355,1155.038183L422.769263,1154.436235L423.886248,1154.174519L424.566111,1153.607466L424.403928,1152.106958L423.670243,1151.409048L422.624749,1151.033921L422.028112,1150.458146L422.654258,1149.193184L421.763191,1148.469102L421.599344,1147.710125L421.680348,1146.750499L421.593826,1145.529157L421.779049,1145.598948L422.050564,1145.180203L422.265143,1144.552084L422.234214,1143.993757L421.928468,1143.487772L421.601502,1143.383086L421.219793,1143.313295L419.890807,1142.292602L419.035848,1141.882581L418.530421,1141.149776L418.733272,1139.596928L419.464590,1138.340692L420.228084,1138.480273L420.946990,1139.178183L421.552140,1139.596928L423.200182,1139.300317L424.466693,1138.358139L425.201897,1136.744225L425.353255,1133.734492L425.512206,1132.870829L425.456033,1132.216539L425.122358,1132.094405L424.478990,1132.111853L423.853762,1131.928652L423.607484,1131.152228L424.009491,1129.834924L424.841042,1129.259149L425.863025,1129.372560L426.838133,1130.087917L427.638432,1129.102120L428.217963,1128.002913L428.977592,1125.638745L427.841501,1125.394476L427.884207,1124.871044L428.343840,1124.181858L428.344760,1124.164411L428.458509,1123.440329L428.126299,1122.428360L428.055804,1122.044510L427.910839,1121.782794L427.307996,1121.172122L425.525428,1119.994399L424.192153,1120.334630L421.470592,1122.637733L421.510523,1121.015093L421.839750,1119.497138L422.406298,1118.066422L423.108240,1116.792735L422.099279,1115.274779L419.407554,1112.395896L418.930759,1110.528982L419.285037,1109.394875L420.668952,1107.946707L421.010697,1107.196451L420.899124,1105.861692L420.392608,1105.137607L419.594285,1105.076540L418.546813,1105.730834L418.832140,1102.878112L418.843451,1101.360149L418.527632,1100.313277L415.640050,1097.539064L415.210044,1096.649222L410.797493,1096.282816L409.694399,1096.553258L408.735750,1096.954560L407.962835,1097.565236L407.385780,1098.481250L407.081394,1096.483467L408.199633,1095.340629L409.477924,1094.319926L409.656765,1092.627476L408.472398,1091.842319L405.708008,1093.953519L405.260552,1092.958987L405.217773,1090.725650L404.874566,1089.033198L404.242718,1087.654807L403.342922,1086.337483L401.710849,1084.845678L400.146161,1084.095413L398.957608,1083.092151L398.317232,1080.850076L396.831034,1082.088888L396.212859,1081.024557L396.121791,1078.250311L394.698204,1077.691972L392.727918,1078.197967L389.372091,1080.047465L389.885922,1078.738858L393.738061,1075.336475L394.266735,1073.888278L394.245566,1072.099840L393.947864,1070.538226L393.705736,1069.805401L392.770973,1069.299402L390.809403,1068.898093L389.646491,1067.973336L388.929558,1066.908992L388.350713,1065.513130L387.932580,1063.934058L387.680874,1062.354985L389.168810,1063.436781L390.390030,1063.672334L391.632951,1063.192505L393.129478,1062.049639L393.627675,1060.898047L391.526626,1059.231726L392.106882,1057.661370L394.123956,1055.375623L394.605234,1054.258921L395.781676,1050.664525L396.472850,1049.146500L397.243185,1047.855303L398.052525,1046.982872L398.086668,1046.319824L391.544333,1042.254280L390.198471,1040.457059L390.328716,1039.689313L390.375203,1039.078605L390.310429,1038.275960L391.019232,1039.951045L392.068240,1040.012115L393.411362,1039.357786L394.977954,1038.921566L397.795251,1040.806034L399.567541,1041.373119L400.420785,1040.090635L400.632620,1039.357786L401.434121,1038.345755L401.729752,1037.455865L401.710151,1036.513628L401.337270,1034.934504L401.125127,1033.320480L400.388358,1031.750075L400.149551,1030.947422L400.074713,1029.900482L400.324141,1027.553585L400.156580,1026.689856L399.830019,1025.826125L399.702988,1024.910046L400.194609,1023.889271L400.711479,1023.261100L401.032340,1022.763799L401.236100,1022.187975L401.388007,1021.299069L401.383184,1019.920575L400.947942,1016.456876L400.984184,1014.720658L401.868116,1011.666997L401.564160,1010.803244L399.941504,1010.253583L398.973379,1010.672373L397.821195,1011.431428L396.942748,1011.431428L396.802460,1009.590499L399.194109,1009.913317L401.382435,1008.002585L402.965792,1005.044868L403.543215,1002.209286L403.221403,1001.249548L401.178935,998.544824L400.434404,996.817286L399.902602,995.962240L399.072137,995.613241L397.439631,995.246793L396.519138,994.880344L395.964014,994.478995L391.427632,986.609019L390.708416,984.968702L390.226229,981.653158L389.411509,980.396738L388.129697,979.681275L386.505159,979.445696L384.907421,979.873228L383.046918,981.592082L381.586916,981.696784L381.627354,980.902796L382.805185,980.239685L383.934600,977.255677L385.401323,976.575112L386.777238,976.784517L388.386270,977.325478L389.828142,978.023493L390.702169,978.712782L391.169713,980.239685L391.410815,982.194117L391.947354,983.851889L393.319931,984.567348L394.044489,985.509658L397.409541,991.547395L398.421352,992.350096L402.783255,994.147445L406.525299,997.977704L407.276299,998.544824L407.933251,999.173019L408.258373,1000.656255L408.599746,1003.736139L409.190252,1005.358962L409.937907,1006.135473L412.811633,1007.391848L418.074497,1003.736139L420.774950,1000.429407L421.876803,999.626715L422.667400,1000.743504L425.606363,998.396501L430.978065,992.664197L433.347804,991.957471L436.654906,990.413142L446.092233,980.239685L457.517158,970.650680L467.573306,959.604416L472.735675,952.615347L473.303013,951.620643L473.616278,950.556134L474.009126,949.709761L474.838879,949.352016L475.918629,949.142603L476.628188,948.619073L481.055791,943.383749L481.913669,941.909127L480.003218,941.909127L484.814561,936.883176L487.392197,934.710489L490.060713,933.122418L490.099036,932.389461L488.746482,932.590152L488.207972,932.738488L487.513092,933.122418L489.718357,929.082421L491.081289,927.668853L492.239754,927.991705L493.243551,927.066778L494.799020,924.728277L495.696426,923.663733L509.647597,913.585408L510.305617,911.883861L509.687327,911.814054L508.810411,912.337608L508.102109,912.538303L507.845971,911.491196L508.128797,910.435363L508.725899,909.606402L509.557783,909.074121L510.465617,908.829795L511.633887,909.405706L512.416630,910.679688L513.484013,911.587181L515.512952,911.081079L516.679621,909.807098L517.337080,907.974655L517.824652,906.054949L518.452287,904.501730L519.642974,903.349902L520.564314,903.428436L520.867516,904.588989L520.191665,906.770476L523.271486,906.334179L525.321428,904.711153L530.164524,897.433675L533.151386,894.013067L533.703568,893.611668L534.599496,893.454599L535.445127,893.821094L535.401059,894.658795L534.976972,895.653565L534.737479,896.456360L534.867345,902.634372L536.175507,904.152691L539.495529,903.768749L542.275230,902.843796L545.368491,902.302785L546.623485,902.957233L547.433982,903.123027L547.823485,902.643098L547.739088,901.657062L547.414639,900.906627L546.842554,900.391794L546.045135,900.121287L547.519671,896.622155L547.199358,892.773966L545.565441,885.339327L545.861410,882.023390L548.677052,888.925762L550.716466,891.255629L552.390383,891.883907L554.428330,893.088105L556.498712,893.821094L558.290095,893.088105L559.548570,892.390019L561.137665,891.753016L562.005432,890.697160L560.921302,888.245126L560.961088,887.206718L560.872408,886.875126L560.595156,886.665699L559.965894,886.369011L559.636445,886.142131L559.751015,886.988565L558.854893,887.433597L558.111819,887.136909L559.044589,884.850663L559.464128,882.512055L559.872630,881.674343L560.648776,881.203130L561.133004,881.517272L561.272891,882.459698L561.031204,883.873335L562.616421,881.447463L566.711086,872.895780L568.498801,870.661859L569.035748,869.405277L568.543230,868.096335L568.534329,867.258611L569.836856,866.883381L571.554976,866.831023L572.747289,866.961918L572.459650,866.228909L572.260459,864.108416L574.151491,865.094489L574.725751,865.574436L575.407030,864.029879L576.310808,859.710343L579.425250,858.951150L584.016464,854.526877L593.371386,843.295951L597.353289,839.787900L604.290927,831.078812L605.511027,828.827355L604.166531,829.551661L601.316020,831.759485L599.523545,832.483790L601.155685,829.185145L602.186473,827.640538L603.660075,826.628253L605.436558,826.785332L607.529666,827.561999L609.283082,827.867430L610.088484,826.567166L610.487034,824.629859L611.364712,823.111426L613.926570,820.336356L615.306525,818.512485L618.475324,812.587069L617.246052,811.696946L616.263962,810.728281L615.224760,809.977783L612.146574,809.140018L611.527287,807.769922L611.287596,803.799254L610.738569,800.360907L609.627624,796.765470L607.681651,795.037562L604.566272,797.219263L605.940850,794.470319L608.438347,793.789628L611.073460,794.836846L612.855898,797.219263L613.073378,798.868627L612.979928,800.360907L613.244636,801.687377L614.507978,802.804403L615.701182,803.519997L616.616257,804.322859L617.382611,805.352616L618.145743,806.731441L618.822488,805.998395L619.312365,808.092811L619.306669,808.921850L622.208529,806.042028L629.673589,793.554004L636.555660,787.244499L639.410452,783.535580L640.028923,779.573571L642.136434,780.254270L644.966251,779.337945L647.451175,777.610017L648.583255,775.882088L649.032710,774.415964L650.015819,773.787625L652.512121,773.726536L653.852112,773.394913L654.824395,772.539673L656.535711,770.061220L657.445760,770.968823L658.818973,770.584837L660.283968,769.467787L662.929898,766.710066L675.345869,758.873228L677.800066,756.010766L681.011345,756.534388L684.883849,753.741738L688.509427,750.442916L690.900700,749.360761L690.576253,750.757090L691.528284,750.582549L704.083013,741.480212L709.399021,738.443182L721.797867,735.510872L727.996282,732.918916L730.262108,731.060037L728.480482,729.654967L730.590024,727.874630L729.642262,725.509571L727.583931,722.996147L726.398345,720.805627L727.391329,721.451438L728.507566,721.922705L729.689631,722.009977L730.825481,721.529983L730.302170,719.330733L731.546034,721.425256L731.302028,728.651346L732.875716,731.112400L734.453555,731.190944L735.830975,730.169869L738.104186,727.455726L739.372853,726.478285L766.397971,714.879866L766.019107,713.989691L766.021988,713.073335L766.430593,712.252977L767.211735,711.580982L767.817352,711.781708L768.504263,712.602066L769.474478,713.387514L770.933774,713.413696L775.560263,708.517729L775.052964,710.481354L778.302195,709.896630L781.826041,708.439184L783.643561,706.161379L781.751523,703.098119L783.269778,703.595572L785.347874,706.161379L786.731555,706.754830L801.511589,705.245019L805.048130,703.988297L810.672998,699.956311L813.794782,699.633403L817.047513,699.851584L820.433174,699.432676L821.967954,698.621042L823.396079,697.242135L824.538923,695.505410L825.212562,693.576684L825.323286,691.499594L824.479487,691.482139L823.053189,691.970867L821.444244,691.316321L823.316111,690.749048L825.001571,689.823957L826.107014,688.357773L826.215076,686.612316L826.245422,686.184679L827.907704,687.127226L829.266892,686.184679L831.912606,682.231214L833.567892,680.730118L848.301814,670.746068L865.300175,661.303089L867.802029,658.632520L868.737471,657.934331L872.577620,656.590319L875.498558,654.059385L879.454855,651.676815L881.391881,650.184435L883.065194,648.351688L883.558821,647.513860L883.680686,646.649850L883.609615,645.977842L883.497924,645.785840L884.570952,644.502916L885.549846,643.848363L888.115520,642.853442L887.654873,642.347254L886.834599,641.151603L886.373445,640.654142L887.358885,640.741416L888.323073,640.654142L889.266017,640.392321L890.181945,639.921042L890.255626,640.689052L890.653550,642.094160L890.720020,642.853442L892.323900,642.190161L896.731305,639.205397L895.016976,638.210475L893.556835,636.726820L892.468984,634.824249L891.900185,632.607493L891.891018,631.333293L892.167017,628.688893L892.172476,627.423421L891.129545,627.266328L890.509829,626.882323L890.405953,625.957219L890.658699,625.494667L893.602199,622.815355L899.579725,619.368032L901.337783,618.818206L907.339613,618.696022L910.667873,616.967997L913.399729,612.953391L917.715538,604.714719L920.892918,601.642672L922.076464,599.984464L922.633903,597.322605L923.303352,595.289119L924.475536,593.552364L925.320037,591.667244L924.913888,589.206116L921.392537,592.897809L919.316497,594.137101L918.327161,592.932718L918.766371,591.955249L919.855058,591.239601L921.088454,590.820686L921.964924,590.672320L923.051778,590.139948L923.510322,588.935566L923.778336,587.582818L924.406211,586.640258L928.502261,584.065674L948.253585,562.526457L954.623922,551.826688L956.115503,549.932848L960.020844,546.904451L961.542377,545.019341L961.974371,542.209130L964.304006,542.889864L965.162093,542.811318L966.443244,542.209130L967.912934,541.196757L969.039761,540.027291L969.910233,538.648370L970.606440,537.094901L969.457167,537.199629L969.193204,536.082529L969.610594,534.459243L970.460605,533.027959L970.836155,532.233771L970.778548,530.497030L970.979048,529.694116L971.486118,529.013384L973.379030,527.163190L973.948844,526.447549L974.482941,525.531180L974.817820,524.632265L974.734725,522.939165L975.197238,522.232252L978.919326,517.964597L979.215177,516.620592L978.105910,514.997314L980.123389,513.854038L980.661167,510.860577L980.128774,507.439482L978.956684,505.065663L976.690080,503.529663L974.289010,503.171845L972.342531,504.428572L971.374106,507.666391L970.036769,506.627845L968.405767,505.973299L965.092308,505.397299L965.826584,503.808936L966.795466,499.925304L967.338109,498.816943L968.670203,498.415489L970.555282,498.563853L972.431719,499.043852L973.754457,499.611123L975.804733,496.390768L978.430993,495.273681L981.374527,494.846046L984.345949,493.694050L981.101659,488.405350L980.068675,485.325057L981.003109,483.370166L986.118120,484.906152L987.352793,484.626882L988.273305,484.216704L989.221762,484.330157L990.555036,485.630509L990.681170,483.981069L990.108872,481.624729L989.217445,479.233482L988.339018,477.514229L987.227276,477.776044L982.769502,477.784771L981.286608,477.514229L979.738839,476.056792L979.307270,474.241542L979.297792,472.216842L979.028619,470.192144L980.046239,471.413945L980.935775,474.660446L981.690401,475.314983L983.346639,475.157894L985.065937,474.642992L986.658739,473.744094L987.945194,472.391385L991.498283,468.507806L992.007946,467.591456L992.749198,466.779833L997.338703,464.676595L997.794760,464.240238L998.051396,463.664248L998.073046,463.053350L997.766840,462.433724L997.224680,461.639557L997.203929,461.115930L997.415527,460.522486L999.013080,454.238973L998.879804,452.545917L998.716528,451.804115L998.778876,450.329239L998.697447,449.631072L998.258599,448.740911L997.699188,448.138743L997.169677,447.711116L996.881183,447.353306L996.166033,445.520622L996.044756,444.368650L998.287741,438.242261L998.518778,436.409583L998.107567,434.917260L996.969908,434.096920L996.012947,434.637995L995.115493,435.702693L994.125815,436.453218L992.694954,436.514307L991.711035,435.999412L991.663455,435.056893L992.964875,433.843836L994.412592,433.259125L997.318223,432.526055L998.582479,431.618445L999.715732,428.441811L998.537365,425.204092L996.126248,422.681990L993.530425,421.669659L992.342114,421.931469L986.549873,424.968463L985.771083,425.788801L982.785947,434.812536L981.287736,437.299741L979.205702,439.368049L979.222880,437.692457L980.157166,432.718050L979.925630,432.770412L979.498925,432.421331L979.098025,431.845347L978.942295,431.251910L980.968827,429.052702L979.845229,428.084004L979.809320,426.879677L980.703817,426.198971L982.340892,426.801134L980.970712,415.089516L982.396762,415.473503L984.095627,417.567977L985.374051,418.004326L986.388670,417.533069L988.694370,415.560773L989.999250,415.089516L989.850178,413.344123L989.969032,411.249652L990.512307,409.224998L991.621352,407.689054L990.094278,406.668001L989.660241,405.463683L990.006890,402.208535L989.560659,400.594053L988.483102,399.084294L987.376612,398.211602L982.665054,400.358426L980.244091,402.365620L980.125285,405.489864L979.109405,406.327650L978.123077,406.851267L977.144477,406.868721L976.180723,406.222927L976.774772,405.926211L978.233469,404.756801L977.160865,403.814291L977.362677,402.732151L977.701961,401.650011L977.101277,400.742410L976.258548,400.794772L975.111534,402.845601L973.807171,403.308129L974.494121,400.279883L973.218146,398.080698L972.657705,396.274226L975.490551,394.441574L978.215598,393.987774L979.452374,393.499067L980.431754,392.277300L980.696999,390.793727L980.272762,389.519599L979.401207,388.507279L978.355867,387.791674L982.093728,386.220833L983.221181,384.929254L983.807736,382.058110L983.730268,379.850210L982.983791,375.146429L982.887928,372.476011L982.712099,371.612053L982.237087,370.599738L981.650031,369.700873L980.259460,368.130041L980.120183,366.951917L980.110394,365.782521L979.021394,362.902666L978.107954,350.170245L977.725795,348.224170L975.422931,342.054332L975.220440,339.645742L976.357864,337.542590L979.575452,334.348594L980.876398,332.707963L980.791478,332.009822L978.879940,331.294229L977.498494,329.618692L976.205195,327.663900L974.632885,326.154173L974.633254,326.145447L975.802254,324.539726L976.454827,322.305682L976.839729,317.706695L977.618414,315.917717L980.606642,312.496844L981.075973,310.053364L980.632035,310.245352L979.565000,310.524607L979.121064,310.716594L979.486684,301.937533L977.039757,304.136660L975.778658,304.668988L975.587186,303.386164L976.444489,301.893899L977.803753,300.837970L979.056229,299.590053L979.670602,297.495648L980.645538,289.423473L980.538885,287.547240L979.814591,283.934402L979.663057,282.023264L980.243293,278.480244L982.744373,272.266874L983.412509,268.793674L982.922956,266.891269L981.592362,266.873815L979.981274,267.362507L978.643873,266.943628L977.579211,266.210592L976.036233,265.765534L974.595355,265.826620L973.815427,266.577110L974.129280,268.287529L975.087174,269.771057L975.523297,271.289491L974.192527,273.174445L972.700357,273.750403L971.298482,273.226804L966.742204,268.383522L966.306730,267.222880L966.227470,265.189576L966.958374,263.557698L968.620612,261.786194L970.601730,260.267762L973.366439,258.670792L973.954929,258.496259L974.777497,258.592252L975.810129,259.176935L976.102948,259.892518L975.975237,260.791359L976.579652,261.367316L976.785148,261.777467L977.041487,261.681474L977.903443,260.791359L978.511835,259.927424L979.681633,257.073821L980.132320,254.979435L979.347847,253.731530L978.218322,252.885049L977.672402,251.986209L978.171017,251.183362L980.800707,251.445160L982.216546,250.476507L981.962589,250.319428L981.704983,249.481675L981.579111,248.408303L981.689801,247.544370L983.140795,249.167517L985.137200,249.769652L987.177185,249.272236L988.760869,247.544370L989.160563,246.340100L989.207148,245.162009L988.737909,244.254444L987.619740,243.887927L987.182593,243.329425L986.496643,240.536917L985.866717,239.428641L984.791369,239.332648L983.734184,239.943509L982.954921,239.908603L982.252099,235.187522L982.244056,233.826176L982.912538,232.778987L983.938152,232.778987L985.465319,234.829732L986.405212,234.672654L987.115294,233.346214L986.629602,232.456104L983.965726,230.894047L982.906062,230.588617L982.090611,229.907945L981.798907,228.354615L982.175248,221.006848L981.712524,220.500708L977.770721,220.291271L976.638219,220.081833L975.661898,219.593146L974.410323,217.900194L974.678333,216.102524L977.292675,212.201756L978.145218,209.924128L978.794950,208.946755L980.977483,208.327170L981.767012,207.698859L982.352479,206.800026L982.670617,205.683028L979.930503,206.066996L978.645947,205.822653L977.852265,204.949999L977.633901,203.239598L978.083282,201.886985L978.729694,200.586731L979.076732,199.103221L978.566301,196.397996L977.179640,193.570601L975.177132,191.842749L972.834824,192.436153L973.148868,190.184710L974.109126,189.896735L975.417940,190.525044L976.748253,190.987550L978.064728,190.184710L979.214963,188.299781L980.009295,186.100699L980.274820,184.320489L979.803157,182.592639L978.182112,179.643078L977.885051,177.740699L978.109403,176.231013L979.417844,171.073648L979.805281,167.617953L980.443652,166.500961L981.922283,164.816747L981.958388,163.830653L979.267152,159.292875L978.110523,156.133885L977.583167,152.931264L978.339174,149.815908L981.002429,146.909988L979.707156,146.290408L979.197806,146.395126L978.367287,146.909988L977.232509,145.234503L976.762350,143.393216L976.780444,138.174781L976.682144,137.494116L976.396232,136.918168L974.723630,135.050702L974.361939,132.938895L974.224462,129.465758L973.962403,128.209146L973.006175,126.647108L973.214685,125.730829L975.432229,123.025623L976.041535,121.821370L975.374895,120.512400L973.979935,118.993994L972.934851,117.327239L973.392713,115.625578L974.561963,114.176985L975.371633,112.710939L976.476014,109.377429L977.286311,105.232360L978.000816,101.628331L977.596196,98.242465L974.842135,98.992940L974.013520,97.457084L972.786085,95.703065L971.360649,94.132303L969.967012,93.198572L969.186824,95.397639L968.478216,94.603531L967.735783,92.552814L966.825059,90.938419L967.935539,90.737711L970.188829,90.737711L971.408159,90.266482L972.219068,89.184401L973.725485,85.449478L974.477936,84.053245L980.922148,78.895910L982.149928,77.037175L982.124464,75.972547L981.509312,73.293526L981.617184,71.906019L982.208582,70.727948L985.341183,67.141375L986.841604,64.907403L988.251075,61.486633L988.383136,58.432374L986.014303,57.271756L985.094506,57.961146L983.771718,60.631440L982.688594,60.928140L981.957266,59.863513L982.853990,56.163496L981.995855,52.192959L983.244796,49.182332L985.244284,46.424773L987.011187,44.679482L992.269138,41.921922L994.099309,39.879931L992.453056,37.689591L985.971538,33.972120L984.210307,32.235555L983.888487,33.178012L983.488502,33.928488L982.937966,34.591698L982.183211,35.167644L981.659690,31.432721L989.845101,24.416648L992.912969,23.448011L996.512330,23.840701L997.900162,23.369473L997.182719,21.589275L995.759016,20.786440L992.079627,20.254126L990.757487,19.390206L990.121824,17.679820L990.015713,14.023432L989.399963,12.400310L987.969024,11.571295L986.019162,11.143699L984.331197,10.436855L983.671627,8.735194L984.422585,7.539668L985.870662,6.125981L986.923996,4.337055L986.519110,2.085626L984.998155,0.933732L982.399529,3.333511L980.634304,2.879735L981.675669,1.466047L981.141911,0.383965L979.696567,0.000000L978.066478,0.619579L976.477022,3.725461L973.370891,7.105658L969.905273,9.831981L963.722798,12.225825L960.063659,15.218129L954.296375,21.424389L952.441215,24.028801L951.302317,25.236805L948.637892,26.333982L936.523961,36.685132L934.698430,37.737979L924.830409,42.403754L915.159941,49.707186L912.737909,50.837611L896.809567,54.727602L889.526381,55.337145L887.890835,55.935605L886.371518,56.855461L867.364559,73.468273L865.120386,74.820350L862.728785,75.618297L860.227996,75.585049L858.268764,74.764937L854.509450,72.415427L852.305985,71.916710L849.357149,73.390695L846.072555,74.111064L833.758088,74.099982L830.548256,74.920094L827.947050,77.391513L826.250191,78.688177L824.265859,79.242307L822.991126,80.128915L819.113278,84.140815L817.357212,85.160415L816.317105,85.116084L814.300307,84.573037L813.175461,84.440046L812.146187,84.661698L810.205948,85.659132L807.374863,86.512492L805.819333,87.953230L803.599720,90.956614L794.093603,98.016232L791.641345,101.274518L791.589115,101.239607L788.888791,99.434805L781.492323,97.329111L778.216199,95.411820L773.216785,89.283142L769.923654,86.656566L765.597099,85.891866L764.653396,86.180014L762.539058,87.155283L761.451842,87.365852L760.343456,87.022291L758.542606,85.503975L757.638588,85.160415L757.343561,84.949845L756.878622,83.963494L756.721629,83.697511L756.146957,83.708594L755.661848,83.963494L755.359919,84.273807L755.354613,84.440046L754.619568,84.422954L752.494894,84.373550L747.079066,85.404232L746.159695,86.457079L745.314795,86.700896L741.471140,86.966878L739.900290,87.388017L733.861958,91.156101L733.189803,92.087040L732.896136,93.660769L731.290569,98.503867L730.362826,99.811614L730.436987,101.739987L728.033409,106.250608L727.459188,108.655533L727.792353,110.085190L728.313953,111.404020L728.446218,112.722851L727.630854,114.152508L726.415043,115.327265L724.408770,116.867748L717.447624,120.247945L713.130324,124.016034L711.342130,125.135378L709.314830,125.534353L706.326472,125.567600L704.268550,126.010905L700.796837,128.027942L698.816066,128.493412L697.658742,129.069708L696.885366,130.399623L696.301456,131.884694L695.741073,132.948626L694.927808,133.713327L694.282976,134.090136L692.481767,134.422615L690.331499,134.422615L685.719327,132.948626L684.964834,132.516403L683.356205,130.532614L682.285266,129.956318L681.397654,130.022813L680.654866,130.421788L679.898004,130.953754L678.968174,131.419224L675.578478,131.829281L671.488703,131.330563L663.556919,129.291361L660.306487,127.507059L657.117881,124.403926L654.674281,120.813158L653.651393,117.510539L652.141019,118.485809L651.281418,119.195096L650.382039,119.627318L641.644746,120.502845L640.262786,120.203614L637.981485,118.507974L636.127781,118.352818L635.248759,117.843018L633.633779,118.441479L629.191193,124.093612L626.435554,128.404751L625.560559,129.291361L624.459865,129.934153L620.938518,131.419224L619.996826,132.261503L619.468773,132.948626L618.762265,133.436261L616.241996,133.746575L614.823443,134.289623L608.883315,135.353555L607.264875,135.154068L604.942880,133.835236L604.424578,133.613583L603.849168,133.048369L603.365303,130.532614L602.644220,129.956318L591.649183,129.956318L591.194191,130.189053L590.691814,130.687771L590.024023,131.186489L587.050229,131.685207L583.590375,132.782386L582.203444,132.948626L581.240330,132.638312L579.812543,131.640876L578.690904,131.419224L574.785085,132.161759L573.731771,131.319480L572.946662,129.380021L572.734166,127.174580L573.388140,125.567600L572.822995,123.428655L572.685160,121.001563L572.222562,118.995609L570.730168,118.175496L569.880753,117.953844L569.255808,117.399713L568.665231,116.679343L567.898774,115.981139L567.007228,115.548917L564.943682,114.939373L564.032295,114.518234L560.670685,112.146555L558.735427,111.160203L557.379619,111.259946L555.541257,111.858407L553.812019,110.816642L553.027946,108.788525L553.997040,106.394682L552.439523,104.189243L551.205456,103.491039L547.651741,103.535369L547.054097,103.346965L544.426364,102.072465L540.596598,101.274518L539.321742,102.227622L536.255188,106.394682L534.546186,107.857586L529.786872,108.821773L528.019276,109.974364L528.677081,112.323877L527.512939,113.155073L526.427705,114.584730L525.593748,116.069799L524.864034,118.275239L523.899250,118.951279L518.773465,120.447432L518.666767,120.436349L516.414738,121.832759L514.881213,121.389454L513.384038,120.713415L512.349825,120.802075L512.176315,122.641790L511.117896,122.253898L510.708193,121.655437L510.487801,120.912902L510.006698,120.103871L509.191986,119.383501L508.755791,119.328088L508.378515,119.571905L507.759327,119.771392L507.736798,119.871136L506.464120,120.436349L506.054055,120.480680L503.741829,120.358771L502.875911,120.037375L502.274213,119.350253L502.126800,118.762874L498.191690,118.884783L458.930315,118.441479L429.436743,118.064670L426.159966,118.951279L425.213774,120.325523L425.164937,122.276063L425.657213,126.930763L425.341245,131.264067L424.502395,135.497629L420.356757,146.037210L412.812983,158.172700L402.153375,175.306483L399.979509,180.725908L399.379579,185.557954L399.509186,186.145438L401.546737,195.388294L406.372770,217.254474L410.893102,237.879455L411.715173,249.893178L412.750014,264.932534L413.610912,277.766448L414.327435,288.461402L413.397088,297.543820L413.319733,306.332560L416.130886,314.123853L416.239903,314.334429L416.541381,314.683620L418.076972,316.462352L419.114361,318.135876L420.881441,321.926244L421.285386,323.112120L421.369005,323.754931L421.634612,324.198250L422.623316,324.785647L424.126179,325.118135L436.156605,324.885393L439.350746,325.439541L442.450625,326.714082L442.521649,326.764301L445.318920,328.742265L454.552728,338.528541L462.464627,346.918380L470.230098,357.801926L479.824045,371.223534L487.963689,382.628063L495.590910,393.323308L501.354996,406.811560L509.026854,418.249467L518.319431,432.114664L521.511829,436.880550L524.725237,441.679583L529.079909,446.822265L530.110772,448.385021L530.577731,450.213780L530.594956,472.646655L531.174909,473.599835L532.377680,473.810421L534.396796,473.743920L530.484008,482.987567L527.615005,489.770288L522.558493,501.618655L521.821967,504.300893L521.742158,506.805795L522.047889,508.546549L523.805220,518.565560L525.946977,530.613541L525.478744,535.019407L525.468279,535.117812L524.563571,543.614760L523.128007,557.015027L522.106846,566.513828L520.462862,581.942471L519.328735,585.950469L518.555760,588.681425L518.516278,590.377247L518.887902,593.646970L518.713182,595.331709L517.715528,597.648225L516.220381,599.421634L509.194442,604.642108L508.181678,605.196298L507.316327,605.284969L505.562440,604.919203L504.592187,604.974622L495.522476,607.956166L493.246390,608.211094L492.752669,608.842871L492.395028,610.505441L491.739704,611.491900L490.571483,611.436481L489.354094,610.771453L488.589467,609.940167L487.995182,608.144591L486.500200,606.991875L484.601668,606.404433L482.758540,606.293595L480.611263,606.903204L478.788836,608.233261L471.964978,614.783790L471.389046,615.498232L469.204046,618.208685L467.295714,622.232104L466.426882,627.197644L466.587174,628.328191L467.569024,631.342982L467.150840,632.429193L464.807967,635.377479L464.646956,635.913885L464.212410,637.361476L464.041970,641.628729L463.439599,643.546222L462.083195,645.042530L455.329776,649.852883L454.097152,650.772835L455.410917,655.538847L456.785036,658.187861L457.119577,659.296235L457.618720,660.194018L458.645218,660.570865L459.497930,660.737121L461.506424,661.612736L462.088615,661.978499L462.489938,662.488350L462.920935,663.596723L463.261060,664.173077L463.541148,664.383667L464.315601,664.771598L464.567200,664.971105L466.690588,667.697699L466.953783,668.262969L466.886859,675.356539L467.162347,677.484607L468.837941,681.663155L469.183650,684.334319L466.739337,686.528884L466.408574,688.789949L466.425799,692.857645L466.102208,693.356409L465.509075,693.833005L465.028719,694.376103L465.034851,695.052204L465.445746,695.550967L468.375060,697.534935L468.891198,698.454875L468.350271,699.851410L467.260191,701.813208L467.060684,703.542249L467.686819,707.576674L467.707157,709.749053L467.379052,711.533507L466.795427,713.007620L466.030924,714.226810L466.006443,714.229739L460.656835,714.869656L451.244255,714.514982L446.367663,713.661549L445.011473,712.132019L445.434296,709.372212L442.638818,704.207264L443.533780,700.860018L445.652406,698.997972L448.081691,697.712273L450.217710,696.094065L451.450482,693.156904L451.895662,689.709892L452.023462,685.819530L451.321697,682.494430L449.296729,680.765377L446.217880,680.665624L443.419740,680.964883L440.774946,680.477201L438.134431,678.060959L436.534256,675.511711L435.777418,674.547429L434.549969,673.516645L433.924463,673.250637L432.507259,672.962461L431.888002,672.563447L431.500732,671.754337L431.298561,669.681684L430.943862,668.794987L430.323322,668.275014L429.502051,667.586862L427.894851,666.811002L426.508098,665.868886L425.666421,664.228495L425.097975,661.911996L424.412667,660.437860L420.251555,656.359044L419.370420,654.929241L417.864244,651.338106L416.723758,649.863967L410.956932,646.372582L410.264234,646.084404L409.706457,645.596719L408.702122,642.415677L408.254251,641.429222L407.660744,640.664441L404.749907,638.126256L403.637974,636.851622L402.708148,635.189055L400.425681,627.762917L398.445021,625.368818L394.325523,624.692707L391.110055,624.559701L389.375456,622.487031L385.937897,613.110136L386.478971,609.463564L388.637352,602.536184L388.355821,599.521388L386.887003,597.082951L379.479891,587.983145L378.156218,587.052105L375.111758,585.411702L373.999958,584.281154L373.114546,581.299611L373.107871,577.475700L373.746004,573.729376L374.870370,571.036014L377.671894,567.843882L379.398942,566.425157L381.023457,565.582790L382.988826,564.917762L384.034404,564.252735L384.075146,564.193720L390.254852,555.241624L391.515796,551.838907L392.000312,547.571659L391.426544,541.098749L391.591115,537.485451L392.839932,535.689886L394.566535,534.725602L396.547568,531.433736L398.491319,530.148025L399.168000,528.817979L399.748646,526.102471L400.241151,524.772427L401.373663,523.198542L402.564151,522.311846L403.815397,521.591406L405.119516,520.538456L406.961986,517.756451L407.448869,514.952282L406.832544,507.340100L406.165956,499.135925L406.465146,497.307129L407.376604,496.132267L407.185102,494.913072L406.649727,493.571957L406.499599,492.053506L407.114566,490.546139L409.146019,487.597909L409.899737,486.012959L410.148844,484.206755L409.537596,482.577476L408.576375,480.970365L407.803747,479.252420L407.339058,477.113303L407.189696,475.317776L407.483630,467.404173L407.097445,464.023719L406.217102,460.864939L404.786060,457.406909L404.041673,453.738300L405.567775,447.354267L405.594316,443.774338L404.197504,440.371748L399.523030,434.985245L397.458837,431.992747L394.668261,424.999183L393.492714,422.993337L392.758493,421.740698L390.190612,420.177956L389.360070,420.333122L388.632142,420.842952L387.929003,421.463616L387.190944,421.984530L386.437584,422.150779L384.941427,421.962363L384.229457,422.062113L374.802949,425.763930L367.956656,425.974513L364.894798,427.393175L364.163550,428.490421L362.972122,431.194749L362.213877,431.737831L352.397706,430.263751L349.653336,430.252667L347.054807,430.984166L341.460758,434.685995L338.751601,435.772161L336.115561,435.472911L331.234428,431.150416L329.219275,431.848664L327.705268,434.264828L326.784841,437.379245L326.631740,441.081082L326.256668,442.998503L325.306988,443.730005L323.680395,443.164753L322.608196,442.056417L321.868398,440.626665L321.364870,438.885668L320.191442,434.830078L319.448209,433.477912L318.407876,432.535830L315.936399,431.227999L314.895928,430.285917L314.153634,428.900504L313.724785,427.559424L313.157534,426.284845L311.952780,425.065683L308.070787,423.081774L306.899537,421.995613L305.288481,419.457543L300.943696,408.728958L299.390140,406.168733L298.188951,403.360618L297.948862,402.799436L297.300532,402.101194L296.479734,401.735449L295.172183,400.760127L294.422875,399.773722L292.234294,395.462361L291.897880,393.533888L292.569339,388.202886L291.642655,385.155019L289.604047,383.315217L284.547755,380.123275L277.631202,382.716728L269.337351,385.831091L257.364292,390.330852L240.975222,396.482014L224.970553,402.500190L210.570518,407.908799L200.567766,411.666015L191.716152,414.990989L184.122829,416.531562L180.484171,417.761804L173.266258,421.397116L163.721857,424.866184L151.209341,429.421419L137.617061,434.353495L131.030594,438.132912L122.116639,443.253420L113.947087,446.578431L104.086525,449.216275L91.886456,452.474792L82.075732,455.101559L80.393112,455.245644L66.996944,458.637169L57.593592,461.020107L44.382063,466.317994L36.275859,469.587615L26.164066,473.644169L17.260676,478.476575L10.176354,482.333639L1.927111,483.430908L0.369614,483.885333L0.363493,483.939388L0.284268,484.639013L0.837273,487.841747L0.663642,492.629852L0.950060,497.273878L3.956470,510.673988L6.092760,515.783557L9.062686,517.989208L10.388312,518.554476L11.517827,519.962104L12.425179,521.868498L13.009793,523.852480L13.324404,526.058136L13.304253,533.040876L13.553320,534.271169L14.853259,536.399245L15.114560,537.430032L14.822068,538.505154L12.957445,542.218208L12.257720,544.579046L12.404674,546.064269L14.957727,549.212055L15.419485,550.054421L16.373697,553.213294L16.145637,553.479304L14.800925,554.077828L14.603870,562.745341L14.354844,572.953510L14.048966,585.788551L13.872932,593.247953L24.387168,593.159283L31.110576,593.114947L46.392799,592.993025L56.480818,592.915439L60.604064,593.879730L64.261088,596.816939L65.699750,598.590349L67.036494,599.765232L68.589616,600.009076L70.715666,599.000449L71.851115,597.958572L73.670718,595.786145L75.076606,594.999195L75.866152,595.220871L76.581141,595.852648L77.285857,595.896983L78.111012,594.389585L80.522577,592.782433L84.665207,593.137115L94.068665,595.630972L95.810155,596.362503L97.299567,597.581722L98.559573,599.443802L100.168697,603.068207L101.283961,604.553437L103.058454,605.650734L103.957554,606.382265L104.323672,607.368724L104.578023,608.366267L105.134423,609.075630L105.479594,609.153217L106.223157,608.953709L106.602347,608.909373L107.031273,609.186468L106.986655,609.685240L106.839524,610.206179L107.000977,610.516525L108.818847,610.782537L110.840231,610.804704L112.695416,611.103967L114.053328,612.201264L117.580688,614.185265L133.158979,615.337980L135.414340,616.479612L137.890235,618.829378L143.273573,625.679164L145.011084,627.386068L148.843190,629.658246L149.912281,630.689038L150.654702,632.584366L150.941163,636.685365L151.689628,638.314681L153.145394,639.112713L162.792967,640.830698L181.307551,640.320844L188.619582,641.562227L198.092178,645.851645L212.631478,652.457565L223.612270,657.434167L224.623539,658.520374L225.005659,660.061013L224.964919,662.532685L225.716702,666.766667L228.108685,668.872573L228.634483,669.112281L228.667861,669.127498L229.496706,668.528978L230.826837,667.963709L232.288805,667.697699L235.209473,667.897206L240.885254,669.304838L243.810165,669.515428L245.348682,669.049912L248.239436,667.088095L249.827987,666.367653L250.985413,666.212481L250.200886,669.293754L247.058445,680.599122L245.299957,684.046144L243.735664,686.174207L236.704856,693.400743L236.799739,694.087929L241.630097,704.451103L245.188397,712.098768L247.304036,718.283385L248.278213,724.900241L248.217934,728.894389L248.201717,729.965393L248.447430,732.304003L249.320818,734.432026L250.107816,735.174617L252.130335,736.460296L252.738566,737.413471L252.737501,739.120319L252.080659,740.804998L251.616596,741.535241L250.185980,743.786433L246.153852,751.666710L245.507230,752.497962L244.669572,753.074295L244.037721,753.794712L243.992751,754.980629L244.810505,758.604873L245.184753,759.491538L246.751442,760.899116L250.174637,762.661359L251.371412,764.545515L251.654787,766.762167L251.192261,768.823651L249.462886,772.802529L248.914531,776.914396L248.970781,781.613659L248.406562,785.537089L245.940985,787.288221L244.360100,788.075122L243.253343,789.870583L242.551037,792.098283L242.192663,794.192982L242.239533,796.287678L243.203923,799.291179L243.288873,801.186374L242.851969,802.582831L242.094552,803.303225L241.326674,803.835209L240.813907,804.688598L240.916196,805.697148L241.989368,807.193348L241.859377,808.113232L241.258334,810.230073L241.347467,812.646150L244.111354,823.706845L244.247752,827.253340L244.147360,828.051300L243.204656,830.345432L242.414247,831.764023L241.825737,832.584146L241.619863,833.470764L241.958558,835.077758L243.268670,837.349711L247.443585,841.228646L249.033193,843.290017L249.663731,845.340302L249.168585,846.526141L246.371907,848.764824L244.260610,851.901189L243.999155,851.823612L244.084052,852.876453L245.196616,854.416925L245.472164,855.514094L244.751660,857.686264L243.022646,859.071574L240.923901,860.124409L239.049717,861.321314L237.340900,862.285487L235.540244,862.850691L233.905228,863.582132L232.678893,865.045011L232.361630,866.851443L232.574784,869.056837L233.586832,872.902413L236.100673,878.997676L236.683661,881.923389L236.321321,885.469696L235.533519,888.339979L234.421046,890.645065L232.738643,892.074659L230.270437,892.307384L226.470103,891.986002L223.625189,892.440369L214.435056,897.050516L214.244618,898.014655L214.614407,903.799465L215.136630,905.373104L216.266376,906.226414L215.230172,907.046478L214.000736,907.777886L213.052386,908.675522L212.854595,909.994269L213.443509,912.387956L213.541524,913.562634L213.322291,914.925702L213.480333,916.355258L214.176382,917.208558L215.211984,917.607503L216.475377,917.673994L222.309738,916.720958L223.918327,916.920431L224.907872,917.374785L225.423851,917.862385L225.668063,918.593784L225.819835,919.846026L226.218804,921.164756L226.915655,921.995888L227.751044,922.749447L228.485341,923.802212L228.900603,927.481338L225.554875,940.768170L225.330947,943.416645L224.911185,945.333737L224.083322,947.128929L222.611575,949.500350L218.928629,953.810998L218.656505,954.863723L218.697350,958.010809L217.900239,962.365736L217.899758,964.570892L218.824788,965.845226L220.605839,965.933876L222.310979,965.701171L223.595802,966.199823L224.118490,968.526862L224.051964,970.499298L223.012650,978.256020L222.993782,979.242225L223.173756,980.294916L223.240863,981.691113L222.796463,982.721638L222.202952,983.652434L221.852103,984.738361L222.049428,987.120745L223.056195,988.284232L224.719457,988.705303L226.859014,988.827192L228.987042,988.195586L231.918802,985.081868L233.681910,984.439177L235.287247,985.458617L235.316305,987.630463L234.344487,991.785763L235.022447,993.669491L236.487654,995.387004L238.425902,996.772091L240.443391,997.713949L241.318637,998.899581L240.924676,1000.960580L240.171893,1003.475877L239.811840,1007.897016L237.705097,1014.212879L236.981683,1022.134319L237.417120,1024.638451L237.645765,1025.469466L232.674209,1025.281103L231.346112,1026.488843L230.647802,1029.768568L229.851639,1031.308703L228.351532,1031.807308L226.822162,1032.117550L225.929173,1033.081518L224.982887,1038.300215L224.440523,1039.962213L223.048081,1042.499523L222.795511,1043.541036L222.874718,1044.283391L223.429376,1045.723779L223.435881,1046.576930L222.612902,1049.856570L222.028467,1051.396667L221.240696,1052.770564L216.837254,1058.332611L210.407806,1066.442949L207.186724,1072.614300L203.837747,1079.051528L201.347798,1081.854649L197.335135,1082.585897L192.983001,1081.998683L188.920850,1082.563738L185.791454,1086.685310L184.591269,1091.238970L184.194134,1095.670744L184.970588,1107.182231L185.706005,1118.316973L184.930202,1122.416322L182.531552,1127.113951L177.519865,1133.628585L169.853810,1143.611041L170.321312,1144.552783L171.624793,1145.472366L172.399103,1146.713249L172.813309,1146.779725L173.222249,1146.757566L173.480124,1146.979153L173.435325,1147.699308L173.061611,1148.375147L172.673040,1148.962350L172.537300,1149.383365L178.688036,1161.903017L178.780079,1162.364028L178.880479,1162.866921L175.415272,1160.362986L171.916839,1164.395874L167.153077,1169.780453L162.012994,1175.608222L156.854131,1181.436010L151.705250,1187.263819L146.547155,1193.091651L141.399012,1198.919509L136.250671,1204.758476L131.103208,1210.586395L125.956066,1216.414347L120.799645,1222.242336L115.652556,1228.081444L110.496710,1233.909515L105.360296,1239.737630L100.214005,1245.576872L95.068500,1251.405084L89.913644,1257.233349L84.768582,1263.061668L79.665328,1268.823562L73.403262,1273.433119L65.732438,1279.039989L64.727093,1280.968056L68.143271,1294.642037L72.117660,1310.588129L76.074296,1326.512649L79.238180,1339.257160L84.497439,1360.491614L84.891875,1363.738961L81.661596,1388.222581L81.995254,1392.645138L83.516936,1396.458122L91.844163,1406.700226L93.459552,1410.579909L96.298782,1423.992956L99.531848,1433.399126L100.701859,1435.649564L102.347885,1437.401150L108.055893,1442.090584L109.067985,1443.465281L109.469532,1445.172577L109.434267,1446.932893L109.087388,1463.931464L109.422433,1468.477285L113.982696,1480.594061L116.787725,1488.058637L118.639700,1496.297528L118.653888,1504.592191L117.469851,1511.966740L116.665753,1526.916288L115.683055,1544.994819L114.971944,1557.806137L114.015599,1574.878623L112.707812,1598.198262L110.808631,1603.446029L110.266707,1606.164254L109.930346,1609.692435L110.061343,1613.043133L110.881893,1615.262156L111.277341,1617.503383L111.700232,1624.238238L111.560961,1626.568279L111.088969,1627.999596L110.419317,1628.654231L109.488312,1629.231198L108.232200,1630.429517L107.426210,1631.727699L102.825084,1642.501615L102.072109,1645.475292L102.244217,1648.693090L105.051650,1661.053967L107.289736,1663.450702L109.833503,1664.948663L115.845085,1666.601969L114.415442,1669.975158L114.644474,1673.836573L115.468664,1677.808946L115.852912,1681.526107L115.329291,1684.388871L111.720989,1692.877264L111.064240,1696.006302L111.460231,1707.079882L111.944324,1710.086802L115.656201,1719.262789L116.000242,1728.061343L113.750426,1755.731399L116.396215,1756.341573L121.107731,1755.764681L123.755445,1755.875622L130.356123,1757.018309L135.466594,1757.905829Z M422.588507,171.881941L421.455526,170.485526L420.309611,168.568226L417.899641,165.387504L417.741672,163.592115L419.662808,161.874304L419.752424,161.807808L423.152630,161.009857L425.829967,162.805246L427.021020,166.085711L426.009632,169.798401L424.006447,171.948437L422.588507,171.881941Z M428.897342,169.831649L430.784612,165.176934L432.059878,164.212743L434.078919,164.345735L436.182685,165.188016L437.644745,166.329530L438.345112,168.490647L437.967632,171.205899L436.842800,173.865737L435.301244,175.860617L433.296557,177.124041L431.153963,177.523017L429.299725,176.802643L428.163492,174.597193L428.205334,172.347413L428.897342,169.831649Z "/></g></svg>