<?xml version="1.0" encoding="utf-8"?><!DOCTYPE svg  PUBLIC '-//W3C//DTD SVG 1.1//EN'  'http://www.w3.org/Graphics/SVG/1.1/DTD/svg11.dtd'><svg enable_background="new 0 0 1000 1017" height="1017px" pretty_print="False" style="stroke-linejoin: round; stroke:#000; fill: none;" version="1.1" viewBox="0 0 1000 1017" width="1000px" xmlns="http://www.w3.org/2000/svg" xmlns:xlink="http://www.w3.org/1999/xlink"><defs><style type="text/css"><![CDATA[path { fill-rule: evenodd; }]]></style></defs><metadata><views><view h="1017.11667458" padding="0" w="1000"><proj flip="auto" id="robinson" lon0="17.1938236605"/><bbox h="200.77" w="197.59" x="171.26" y="284.53"/></view></views></metadata><g class="" fill="#000" id="country"><path d="M516.776904,1015.116675L522.994701,1011.974073L525.843369,1007.425235L525.320560,1001.478079L528.511505,997.714243L535.411659,996.117638L541.091451,991.641937L545.558305,984.269918L555.354344,978.278955L570.482826,973.661207L577.889132,973.818448L578.470920,961.875309L580.272245,924.161827L582.020159,886.431050L583.714281,848.695516L585.355340,810.942907L586.942942,773.185759L588.476743,735.436616L589.957400,697.683150L591.306435,662.042018L591.384644,659.937485L592.038359,641.594478L592.894507,617.272921L593.731284,592.963045L594.550203,568.656260L595.345333,544.352261L596.125017,520.050744L596.897616,495.751403L597.657198,471.453933L598.405235,447.149753L599.025963,426.604778L615.741353,426.604778L636.422622,426.604778L660.998183,426.604778L671.864976,426.604778L672.593615,423.360034L673.068699,408.287086L674.135856,373.705569L675.187978,339.133019L676.221818,304.560280L677.255388,269.986473L678.278066,235.403222L679.303665,200.825297L680.323026,166.245480L681.326846,131.655727L681.829607,114.559006L700.922363,113.540644L722.952519,110.046743L758.672103,104.367055L791.999616,97.337774L813.730834,93.222849L839.512420,88.337905L848.354997,87.501667L850.711613,88.164034L854.129895,89.844789L865.442681,107.115829L872.403204,120.288308L873.716913,125.926500L875.108265,126.522606L878.639093,125.628447L882.644367,123.500674L895.174044,110.377919L897.805722,106.958520L905.719660,100.591617L915.289630,94.100480L923.909074,89.513606L932.532454,85.680156L936.427722,86.632310L940.939689,89.944144L944.976073,91.997475L964.846202,76.050934L973.605191,72.383031L996.367888,69.518251L999.507931,70.023314L987.684871,56.527298L981.202426,50.946695L976.155702,48.818774L961.494794,46.641170L927.769752,43.527936L924.217817,44.248286L910.076184,46.906126L892.407980,50.234629L877.208470,53.563123L861.269636,57.057205L838.038387,61.991960L805.010148,69.013188L782.724936,73.749181L755.719172,79.486994L737.715421,83.096916L715.319276,87.584463L711.768891,87.485108L705.894709,84.388537L693.039317,83.775845L677.767882,88.039840L665.718447,89.198982L656.889012,87.245000L648.327275,83.502618L640.024705,77.980097L625.419102,75.968137L604.520174,77.466757L584.436682,76.390400L565.180238,72.730779L551.362158,71.290110L542.999196,72.068402L534.083940,70.867845L524.621797,67.713270L516.795491,62.364549L507.499699,51.070893L500.277373,40.282217L498.376388,38.742154L496.045143,37.094451L493.705675,36.605935L472.465574,36.316138L452.270978,36.042900L440.706035,36.026340L412.446789,35.976661L384.180274,35.926981L355.913707,35.877302L327.647086,35.827622L299.380413,35.777942L271.113509,35.736543L242.846734,35.686863L214.579907,35.637184L199.566258,35.612344L185.595802,36.465176L170.181080,37.409088L167.966717,37.011651L164.341474,35.703423L161.891092,33.327082L153.718299,27.191633L146.590486,22.538282L136.936675,14.713669L130.758298,6.135538L125.466490,3.403114L116.030206,1.854739L108.946358,0.339484L103.162292,0.000000L92.889154,4.048960L85.137542,8.048232L79.590748,11.915016L70.007238,16.353114L61.919297,20.774642L47.971737,20.195041L44.944201,20.832602L37.183731,20.542802L29.930127,16.692595L22.504984,17.032076L14.189145,21.950402L2.373042,23.871360L0.492069,42.319072L0.967957,66.413351L3.742290,87.675539L16.305035,110.460713L22.638850,127.433323L26.553563,133.386078L43.417255,151.202687L52.692522,166.096461L93.929354,259.465824L102.958757,272.726281L110.923144,301.481223L122.469982,334.771105L150.036438,381.941139L153.372040,393.247544L159.325945,406.888240L184.095679,442.688063L193.920146,464.657558L198.048549,486.139829L197.401099,494.840733L195.396121,504.692664L192.756844,503.574992L191.289721,501.232034L188.542400,508.650085L189.821081,518.022270L193.066956,535.194413L192.564153,551.771535L194.001652,565.865512L192.148940,600.425462L193.145384,613.280410L201.595114,642.638331L211.255064,662.994867L215.714639,683.801994L213.848300,701.893306L213.865455,711.416230L216.424727,726.269166L214.598183,742.573466L220.259050,762.310134L221.964966,792.856253L231.030671,801.999149L233.890907,808.978450L235.395165,816.803047L232.336605,822.547024L232.661911,832.708465L238.089108,850.319831L242.489595,874.069210L246.066912,883.531274L271.624101,932.666617L283.456328,948.497756L291.599234,955.211694L314.273100,981.042816L322.118537,987.910538L325.128621,984.120978L335.465008,976.921804L340.115283,974.977053L342.505174,975.870818L344.949412,973.892931L347.441760,969.026563L348.136654,964.457797L349.529250,957.993109L351.930941,954.127243L354.707551,946.411420L359.101827,941.468551L368.125692,938.197961L374.685923,942.536637L377.335128,946.800543L378.267715,952.421887L381.133823,955.137190L385.927532,954.946792L389.156427,958.407001L390.811817,965.508973L390.198489,970.657004L387.339737,973.851551L387.542075,978.047249L390.788911,983.260433L392.007401,988.208397L394.051293,994.736082L406.072125,998.541482L411.933108,1000.683972L422.169119,1001.411904L431.742431,1004.323532L440.649602,1009.435043L455.606842,1010.667356L476.618814,1008.045555L493.762178,1009.220005L507.036721,1014.198724L516.776904,1015.116675Z "/></g></svg>