<?xml version="1.0" encoding="utf-8"?><!DOCTYPE svg  PUBLIC '-//W3C//DTD SVG 1.1//EN'  'http://www.w3.org/Graphics/SVG/1.1/DTD/svg11.dtd'><svg enable_background="new 0 0 1000 1019" height="1019px" pretty_print="False" style="stroke-linejoin: round; stroke:#000; fill: none;" version="1.1" viewBox="0 0 1000 1019" width="1000px" xmlns="http://www.w3.org/2000/svg" xmlns:xlink="http://www.w3.org/1999/xlink"><defs><style type="text/css"><![CDATA[path { fill-rule: evenodd; }]]></style></defs><metadata><views><view h="1019.78177323" padding="0" w="1000"><proj flip="auto" id="robinson" lon0="17.2344040295"/><bbox h="201.4" w="197.68" x="171.18" y="284.25"/></view></views></metadata><g class="" fill="#000" id="country"><path d="M109.714983,1.112380L108.360274,0.000000L106.746751,0.113866L105.055245,0.744506L97.085271,2.277312L93.153793,4.773595L90.837289,5.351681L89.387678,6.139979L87.614222,6.674271L87.240783,7.497604L87.094113,8.452321L86.775213,9.214342L86.125128,9.704838L84.803865,10.151540L84.234022,10.423064L83.542857,11.079979L82.917879,12.314977L82.416550,13.033202L79.889229,13.900327L76.575620,15.634577L73.937069,18.069531L72.533752,18.857825L70.665692,19.155625L68.844377,19.838812L65.483502,23.009500L63.671844,24.025520L62.738983,24.113108L60.139547,23.456199L55.810360,23.053294L54.429841,22.536525L52.693663,21.389122L51.929331,21.441674L50.906161,22.343831L49.829137,22.825565L45.045826,22.632872L39.715200,23.202194L39.476835,22.851842L39.284187,22.054791L38.946475,21.257740L38.250174,20.898628L37.475010,20.688417L36.651263,20.189165L35.935561,19.619842L35.531095,19.155625L35.252158,18.489955L35.140882,17.841802L34.974980,17.263719L34.509544,16.790743L33.834139,16.545496L33.471334,16.781984L33.067866,17.167372L32.224656,17.368825L29.703891,16.527978L28.949433,15.984930L28.423341,15.941136L27.985081,16.125072L27.463567,16.265213L24.034651,16.773225L20.626649,17.868078L17.577305,19.444666L14.048476,22.335072L10.991593,23.929174L9.616120,24.945193L9.169812,25.628379L9.000329,26.188941L8.620261,26.556810L7.526655,26.679432L6.735625,26.504257L5.465463,25.751002L4.483563,25.567618L4.479204,25.563273L3.648446,26.749502L0.900179,43.797997L0.490782,50.446306L1.089049,54.984241L1.581653,57.768377L2.360371,62.109640L3.352122,70.793871L4.952998,76.998849L5.766095,85.171776L6.570524,88.176148L7.832231,92.216520L8.272918,97.201421L9.347100,101.026530L15.281948,107.989913L15.728249,108.562299L18.442473,116.837720L20.123515,119.561697L19.964740,120.416817L20.022435,121.244352L19.983652,122.099470L20.062590,123.085614L20.971004,125.713027L21.201946,127.271540L22.298868,131.716528L25.952682,134.174481L26.651068,134.712370L27.410990,135.160611L28.671631,137.153555L29.113605,137.601794L32.644670,142.104465L40.803845,148.014670L52.509432,165.543843L53.112513,167.322942L53.864429,173.432525L54.575021,174.563413L57.194990,176.811391L59.371687,179.686863L60.845799,182.300290L64.224839,192.064353L65.679563,195.036295L67.977315,198.408157L68.781841,200.242332L69.176840,204.117527L69.517851,205.744826L70.461769,208.440893L73.630410,214.812113L74.224025,215.729177L76.018455,219.976613L76.797322,221.224637L77.389226,223.175961L82.591244,233.959839L85.629593,238.496730L86.264841,240.965113L91.745746,252.893181L93.893478,263.396643L96.269112,268.036272L99.423474,270.437593L102.359776,271.425147L104.000759,274.389780L106.457127,281.518632L107.829037,288.406110L108.158948,292.004948L109.752070,299.457667L115.856837,312.956532L117.708393,320.505630L118.339393,327.496273L119.047801,330.309069L120.464677,333.239062L122.419695,334.948798L123.447221,336.134582L124.321882,339.264499L127.271518,343.745655L133.569276,356.472134L135.381049,358.967795L138.145036,362.759547L142.552151,371.053161L149.843242,381.745978L151.995051,387.805964L152.989624,393.245501L158.674761,402.787169L158.980191,403.566225L159.189750,404.641738L159.130322,405.186390L158.631010,407.323633L158.431821,407.709716L158.102657,408.592193L158.095309,409.488460L159.498927,410.233051L165.414992,416.327698L165.957538,417.706585L171.346728,423.249739L182.286121,439.183147L182.424293,439.934669L182.438189,441.975506L183.907560,444.760986L188.551232,450.538840L188.982896,451.214537L191.220833,456.578776L192.530593,461.584539L195.041656,467.431568L195.746973,471.203224L197.392660,474.223333L198.521121,485.359342L198.673328,500.164249L198.212084,504.060392L197.629622,506.032619L196.770549,506.867026L195.753398,507.591100L194.023620,511.011514L192.896222,512.121778L193.849610,509.563350L193.979437,508.604807L192.406847,509.411638L191.892174,508.522056L192.052073,506.791171L192.526935,505.080983L192.255284,504.736189L191.881564,503.922475L191.560698,503.391493L191.994919,502.646742L191.787908,502.336429L191.359291,502.336429L191.123235,502.501929L191.040987,505.998139L190.813643,506.804963L189.823248,508.418616L189.464795,509.232342L189.356328,510.046071L189.493115,515.590519L189.923173,518.535189L190.637614,521.273003L191.622361,523.645337L192.824890,525.859074L193.538318,528.859029L194.650854,538.721196L194.678462,541.997176L194.413320,543.852436L193.962480,544.293838L193.624406,543.521385L193.685442,541.741993L192.764259,542.693759L190.902486,546.135321L190.295474,546.887092L190.222019,547.707835L191.050579,551.535709L193.573699,559.219237L194.336707,561.550557L194.624212,564.592346L193.322336,576.801323L193.499062,578.291281L194.681006,582.347332L194.484012,587.107090L195.034220,588.141835L193.984368,590.190646L193.696630,590.997759L193.082818,591.308188L192.414310,591.432360L191.950946,591.666907L191.405533,592.798255L190.865758,595.116160L190.301287,596.295819L190.818387,598.158453L191.071288,601.062819L191.004831,603.905140L190.599076,605.609174L191.119114,606.871688L191.518231,610.762768L192.870906,613.577644L194.233247,619.442115L197.973979,627.597509L199.463422,631.896154L200.999875,635.063284L201.295315,636.677923L201.202855,640.155661L200.958209,640.652487L199.892128,641.915260L199.595101,642.819218L199.977066,644.958376L202.386017,648.049856L203.343990,650.589331L206.837385,654.336513L208.516782,656.924399L212.459787,665.392271L213.259035,668.656705L213.301578,675.448067L214.127702,678.767944L215.540598,682.074408L216.486210,684.276256L217.123708,687.513515L216.758742,690.978634L215.110912,697.032419L215.295828,698.026448L212.857402,704.356613L212.891380,706.061722L213.535060,709.216559L213.822885,713.192965L215.473152,718.356879L215.668328,722.216082L216.061112,724.370081L217.616295,726.047727L217.873710,727.759902L217.828493,729.693017L217.585588,731.101436L215.271357,735.492431L214.917896,737.232274L214.718096,743.943174L214.505295,745.123806L214.484029,745.834949L214.631374,746.842977L215.805996,749.107597L219.392095,753.788760L219.936362,753.788760L218.640224,756.930267L218.963806,759.712754L222.053876,765.429646L223.102924,768.239768L223.770959,771.885334L223.717369,775.523996L222.651915,778.230550L221.955415,778.575774L221.394742,778.354831L220.962321,778.382449L220.641566,779.383597L220.872051,779.956667L222.259727,782.283470L221.781138,788.704589L222.116090,795.339688L222.742083,796.099164L226.995893,797.977135L229.679940,799.965568L232.000768,802.582276L233.577551,805.723685L234.369051,810.846540L235.677391,816.024545L236.107462,817.142982L236.036849,818.040490L234.463105,822.472754L234.124562,824.157270L233.628631,824.157270L233.734722,820.912495L233.536709,820.104747L232.994606,820.070228L232.246626,820.373996L231.490445,820.567304L230.400983,821.022956L229.759621,822.224218L229.509434,823.922543L229.604835,825.883197L230.177744,827.319158L231.148797,829.031254L231.855399,830.701915L231.448970,833.007682L231.779380,834.443596L233.935553,839.552051L234.390273,841.139786L234.540639,843.003632L234.794365,843.003632L235.299624,843.776776L235.771189,844.674172L235.900337,845.046936L236.540587,845.309250L237.858527,845.419698L238.359000,845.626788L239.453559,847.117827L239.809895,848.802133L239.620432,852.322553L239.709193,854.234592L240.078505,855.870504L241.423266,858.997325L240.868137,860.232850L241.689484,865.713202L241.075243,869.184898L241.215393,870.254686L241.616634,870.931063L242.078937,871.545321L242.451306,872.373530L243.197982,879.081813L243.626346,879.985885L246.444798,884.009261L248.410293,888.460341L249.008195,889.219422L250.178489,889.785278L251.008955,891.130901L252.079642,893.842797L258.585556,905.476209L258.995135,906.531841L259.129530,907.214890L258.941197,911.616645L259.220792,913.651866L260.084931,915.148932L267.026882,922.675262L268.876959,925.496601L269.702482,928.159193L269.584324,928.966231L269.043515,930.697542L269.071908,931.676991L269.437977,932.277071L271.695211,934.863567L273.796660,938.608660L274.741220,939.774222L279.760617,944.091471L283.266198,949.035994L285.130152,951.042670L294.422263,958.310350L298.829918,963.922617L302.943874,970.058328L303.486798,970.596037L304.733770,971.161316L312.184444,979.267672L313.192032,980.949469L315.316051,983.637489L319.568962,987.400513L320.380550,987.951851L322.271350,988.248194L323.222059,987.400513L323.997496,986.097955L325.378737,985.064158L326.726186,984.425298L328.667736,983.094830L330.703135,982.026932L333.501001,981.107825L339.200068,975.479083L339.958430,975.181437L340.583331,975.592888L340.864768,976.555849L341.029568,977.632597L341.295706,978.420450L342.491563,978.551758L343.984103,977.273684L345.356520,975.470328L346.206818,974.025855L346.466860,972.598858L346.635711,970.664044L347.078046,968.974315L348.167979,968.238876L348.965063,967.547204L348.520878,965.997484L347.082466,963.563384L346.620476,962.258740L346.399779,960.525011L346.774831,959.010151L348.085660,958.353409L348.700376,958.659890L349.394700,959.211551L350.115681,959.474245L350.816829,958.940099L351.002152,957.871794L350.624963,956.864771L350.114736,956.006599L349.922352,955.411127L350.245878,954.614238L350.654420,954.298982L352.192318,954.307739L353.308499,954.036268L353.303523,953.423264L352.102555,951.733098L351.926473,951.286467L352.088925,950.778530L352.544433,950.410711L352.830375,950.542075L353.126640,950.787288L354.330428,950.752257L354.691403,951.058771L355.003284,951.102559L355.567989,950.253074L356.377956,943.526899L356.641127,943.299179L357.932746,941.836499L358.388347,941.468635L358.949733,941.626291L359.637181,942.545946L360.356116,942.686083L361.236838,942.335740L362.314201,941.188356L363.160477,940.951870L365.066912,941.468635L367.555671,939.603010L368.387789,939.165063L369.829707,938.797186L370.561161,938.814704L371.361246,939.165063L372.318410,940.426343L373.076822,942.160568L373.962451,943.702068L375.339489,944.367705L377.130516,944.954512L377.727293,946.425887L377.633686,948.335128L377.360364,950.253074L377.547257,954.220168L378.996244,956.190494L381.291986,956.645850L385.923713,955.516211L387.794844,955.411127L388.591886,955.813947L388.843850,956.750932L388.903231,957.828011L389.145315,958.642376L389.758559,959.684399L389.931150,960.551280L389.969325,961.418150L390.209120,962.460129L390.672731,963.326974L391.755006,964.920537L392.087858,965.874905L392.160373,967.687290L391.889905,970.016174L391.200591,972.012292L390.014870,972.870253L388.784713,973.194174L387.494972,974.043364L386.506795,975.172682L386.171560,976.389521L386.695872,977.921478L388.537927,980.565107L388.873374,982.490857L389.371767,983.917623L391.968903,984.932969L392.679365,986.797309L392.080967,990.123213L391.026541,993.641461L391.050490,996.188117L393.722946,996.634426L396.949023,995.838068L399.955212,995.470514L401.440641,995.094207L402.841783,994.429099L404.076993,994.149051L405.130877,994.945433L405.440001,996.739439L405.288924,998.822164L405.541567,1000.537291L407.068150,1001.254828L409.363679,1001.946105L410.290827,1001.884853L410.999253,1001.543591L412.475588,1000.528541L413.275073,1000.152267L415.610537,999.942253L427.527590,1002.707375L430.093147,1003.844884L432.458237,1005.454856L436.669995,1009.234601L439.367455,1010.721927L445.326083,1012.917843L446.666294,1012.944089L449.279955,1012.016742L455.666072,1011.063131L457.270218,1011.185614L460.249601,1012.349189L462.001218,1012.664137L463.430708,1012.051736L464.007122,1011.675544L464.808889,1011.421831L466.228434,1011.185614L466.629535,1011.054383L467.275107,1010.634439L467.681227,1010.555699L467.992745,1010.748174L468.832644,1011.596805L469.152811,1011.763030L470.726635,1011.255605L473.412042,1009.768294L487.336587,1007.668489L502.292436,1009.934525L503.436372,1011.106875L505.112743,1014.072631L505.829164,1014.982445L506.327057,1015.166156L508.837184,1015.498583L509.621019,1015.778520L509.939469,1016.128439L511.081668,1017.781773L513.868528,1017.624315L516.898599,1016.600825L521.113518,1014.352575L521.732377,1013.731446L522.587697,1012.384183L523.042675,1012.069233L525.422358,1011.868015L526.298322,1011.325595L526.385321,1010.301981L523.927204,1005.498605L523.539204,1003.652384L523.885291,1001.884853L525.255739,999.434716L526.129771,998.314617L527.086445,997.492030L528.134539,997.404520L529.786914,998.857168L530.548119,998.997180L531.614771,998.524637L537.543254,996.966968L539.053565,996.266877L540.357617,995.207974L541.170145,993.982772L543.579337,987.191176L544.054898,986.455955L544.762539,986.167116L545.231916,985.869523L545.918762,984.311509L546.340014,983.620018L547.021239,982.797221L547.479377,982.114466L547.970179,981.527990L548.748153,981.020290L549.392426,980.810206L556.664211,980.241225L557.942817,979.567194L559.424712,978.394188L561.095044,977.798923L564.591829,977.545058L566.734075,976.914768L570.112861,973.877029L572.069883,972.765197L572.880961,972.660141L575.201398,972.975309L575.951499,972.896517L578.226398,972.309953L578.460973,969.797297L578.623832,966.452773L578.854183,961.707104L579.084110,956.952338L579.312766,952.205998L579.533107,947.459336L579.753017,942.703600L579.979546,937.947558L580.204810,933.199977L580.429641,928.443348L580.653623,923.686437L580.875934,918.946777L581.098218,914.189330L581.319653,909.431628L581.532352,904.682442L581.752088,899.924255L581.970973,895.165839L582.188607,890.415964L582.404995,885.674642L582.621335,880.915587L582.836824,876.156337L583.043581,871.405665L583.249883,866.646049L583.462821,861.886262L583.674519,857.135081L583.885370,852.383746L584.095760,847.623501L584.304915,842.871886L584.506112,838.111378L584.713570,833.359517L584.920561,828.598779L585.126323,823.846706L585.331614,819.085773L585.528180,814.333522L585.723895,809.581195L585.926636,804.820033L586.128156,800.067579L586.329197,795.306306L586.529020,790.553759L586.728362,785.792411L586.918981,781.039805L587.116621,776.278414L587.313050,771.525784L587.508630,766.773154L587.703722,762.011764L587.890450,757.250391L588.075970,752.497813L588.268509,747.736500L588.459844,742.983999L588.650331,738.231550L588.796363,734.573867L588.839971,733.479160L589.029110,728.718070L589.217398,723.957057L589.404491,719.204898L589.583557,714.444065L589.768951,709.692102L589.953497,704.940250L590.137534,700.179750L590.320719,695.419378L590.502717,690.667909L590.683868,685.916585L590.856929,681.156337L591.028855,676.405337L591.207799,671.645729L591.385912,666.886276L591.562877,662.135742L591.579678,661.075219L592.110189,646.482821L592.625475,631.900536L593.125801,617.328296L593.634987,602.739749L594.129738,588.161116L594.209697,585.787218L594.618015,573.587948L595.100384,559.011420L595.577248,544.427087L595.766996,538.668125L596.055832,529.852401L596.521587,515.278538L596.974482,500.714189L597.438313,486.133015L597.831716,473.382665L598.229421,460.632750L598.616196,447.891982L599.000333,435.142803L599.219953,427.848940L616.371829,427.848940L633.523706,427.848940L650.675583,427.848940L667.827460,427.848940L672.022665,427.848940L673.063087,424.740539L673.169029,421.255647L673.312694,416.369824L673.455691,411.492792L673.598315,406.615792L673.740859,401.730066L673.883049,396.844368L674.024895,391.958694L674.158829,387.073043L674.307319,382.196167L674.448198,377.310553L674.588775,372.424955L674.728781,367.548124L674.868786,362.662548L675.015826,357.785734L675.155023,352.908926L675.286662,348.023365L675.433232,343.137804L675.435112,343.072206L675.736120,332.552411L676.038312,321.958225L676.339363,311.372733L676.639926,300.778399L676.939560,290.192708L677.000295,288.097672L677.246240,279.606880L677.544881,269.020889L677.843454,258.425954L678.149158,247.840332L678.447168,237.244952L678.736935,226.658128L679.041474,216.071111L679.338175,205.475151L679.626426,194.887767L679.817380,188.214374L679.929256,184.300211L680.223771,173.712489L680.330046,170.244516L680.435969,166.785283L680.541806,163.326033L680.647287,159.875525L680.752946,156.416243L680.858511,152.956945L680.963981,149.497632L681.069353,146.038303L681.174625,142.578959L681.279795,139.119601L681.384594,135.668985L681.489818,132.200839L681.594931,128.732679L681.699668,125.273264L681.804025,121.822592L681.908530,118.363149L681.981217,115.954668L683.336500,115.892450L685.605997,115.788264L689.772392,115.604343L693.931462,115.411664L698.105538,115.227743L702.272289,115.035065L705.736896,114.877418L709.216765,114.719772L712.681414,114.562125L716.153704,114.404479L717.550463,114.334414L718.946956,114.273107L720.220121,114.010362L721.478328,113.738860L722.751788,113.467357L724.017641,113.195855L730.285034,111.873373L736.537487,110.550890L742.805758,109.219646L749.066711,107.888401L755.342934,106.565912L761.596869,105.234663L767.858449,103.912170L774.128231,102.580917L780.398314,101.249663L786.660795,99.927165L792.923855,98.595907L799.187216,97.264647L805.458216,95.942144L811.722175,94.610881L817.993772,93.288374L824.258327,91.957107L830.745432,90.590805L839.494991,89.758762L845.873700,89.154435L850.990437,88.672725L853.776668,88.804100L854.711419,89.355877L855.126173,89.723728L855.206380,90.293021L855.160923,91.431607L855.377181,92.035932L855.912664,92.211099L856.451640,92.281166L856.678658,92.561432L856.520109,94.575847L856.592047,95.162654L856.782710,95.618087L857.586282,96.896799L858.362593,98.990029L860.491819,101.880257L860.912809,102.738566L860.933905,103.246544L860.748867,104.674136L860.833276,105.112048L861.229026,105.357278L861.883334,105.620025L862.513025,105.707607L863.318702,104.866817L864.381573,105.900288L865.400349,107.336634L865.774284,108.002257L866.765011,108.457684L867.756952,108.650364L868.499088,109.018208L868.769974,110.025399L869.150196,110.953766L869.897461,111.619386L870.281775,112.425137L869.610974,113.782651L871.922177,116.646559L872.547736,118.424456L871.443498,120.202348L872.059580,121.358414L873.101887,124.993006L873.560233,128.540003L874.490341,129.415803L875.794601,129.372013L878.449170,128.382359L878.784250,128.163409L879.286804,127.725509L881.109024,125.457182L882.650646,125.159409L883.773569,124.406218L890.990025,116.156105L892.161845,115.761989L893.055689,114.807353L894.456455,112.626575L895.394283,111.724484L897.622205,110.095465L898.837977,108.869319L899.166949,105.944079L901.804091,103.947203L902.233945,103.859621L902.626699,103.964720L902.969207,104.201192L903.287642,104.472697L903.581893,103.894654L903.947558,103.456742L904.864047,102.738566L907.002181,101.740125L907.598365,101.249663L909.803151,98.981271L910.416519,98.657215L913.126176,98.114201L915.664334,96.134826L919.365422,91.387815L922.014536,89.960204L923.493903,89.732487L925.033786,89.960204L925.824955,90.231713L927.080378,90.967414L927.738528,91.116306L928.452356,90.538255L930.689553,86.483131L931.939791,85.169373L933.038028,84.722694L935.557391,84.854070L937.177000,85.204406L938.052726,86.115279L939.224883,88.804100L939.753712,89.382152L940.233131,89.627386L940.559130,90.117854L940.642922,91.431607L943.068891,94.006556L944.023125,93.752565L947.429227,93.367199L948.183428,93.165757L948.437578,92.657774L949.522042,91.300231L949.774972,90.827281L950.047962,90.652114L953.948672,85.738668L955.085072,84.643869L957.686662,82.865912L959.767366,80.071975L960.175897,79.730396L960.737564,79.371300L961.388290,79.082271L962.071307,78.959653L962.705868,78.696900L963.205578,77.496992L963.672687,77.225480L965.195304,76.866383L966.982532,75.272342L968.268795,74.913245L969.699281,74.790626L975.205973,72.837485L975.696665,72.548454L976.274756,71.944118L976.546534,71.374816L976.911905,70.963166L977.725639,70.814272L977.225350,72.022945L977.983195,72.592247L978.437690,73.327960L979.027820,73.678299L980.168476,73.126515L980.766162,74.124982L981.702513,73.958571L983.804085,72.548454L984.443952,74.291393L986.727126,74.212567L989.199900,73.091481L991.736148,70.402622L994.701584,70.446414L999.509218,71.444884L999.082116,70.376346L998.299744,69.430427L997.324282,68.764780L996.319497,68.493266L995.071078,68.423198L994.531243,68.160442L993.627607,66.759077L993.242164,66.443770L992.427833,65.962050L992.120206,65.602950L992.023188,65.112472L992.145307,64.035170L991.933540,63.553449L990.887372,62.292217L990.359770,62.327251L989.677256,63.290693L989.507008,62.712628L989.161297,62.134562L988.651038,61.679117L987.978291,61.503945L987.854904,61.109810L987.325100,58.613614L987.086226,58.464718L985.790126,57.142170L985.595552,56.818101L984.733759,56.809343L984.204028,56.686722L983.826337,56.362654L983.391369,55.714517L983.411996,55.127690L983.958700,53.682518L983.701506,53.402242L982.941552,53.533621L981.543367,54.024104L980.842978,53.980311L979.702089,53.008104L978.902104,51.668033L978.821062,51.602500L977.959751,50.906032L976.429996,51.668033L975.544123,50.161547L973.610656,49.154302L968.575753,48.024436L966.198720,48.138298L965.426791,47.954367L964.936842,47.560227L964.584235,47.166087L964.201446,46.982155L957.936625,45.878563L954.617227,45.878563L953.890884,46.141323L953.359721,46.719395L952.943023,47.297467L952.116692,47.805469L950.956422,48.926577L950.165165,49.303199L949.461368,49.355751L948.816408,49.250648L947.657893,48.768922L947.034989,48.243402L946.597304,47.656572L946.018347,47.183604L944.153821,46.815740L942.783490,46.053736L940.586130,45.598285L937.507231,44.363312L936.181052,44.091793L934.869284,44.293242L931.745968,45.256697L931.140339,45.563251L930.341394,45.046489L926.439409,44.897591L925.073551,44.669866L923.719015,44.783728L921.519982,45.274214L918.336553,45.992425L915.153202,46.710636L911.969929,47.428847L908.779398,48.138298L905.603910,48.856508L902.420870,49.574718L899.238200,50.284168L896.047685,51.002377L892.857249,51.720585L889.674812,52.430034L886.492161,53.148242L883.309589,53.866449L880.135015,54.575897L876.952598,55.294104L873.755002,56.012310L870.572743,56.730515L868.359056,57.229756L866.969394,57.264790L864.364370,57.834099L861.337212,58.482235L855.121745,59.813540L839.948675,63.080487L824.777048,66.356184L809.606876,69.640631L794.431380,72.907553L775.790081,76.822591L757.143742,80.737616L738.507894,84.643869L719.874379,88.558866L714.525870,89.679936L713.132507,90.117854L712.717971,89.960204L711.566359,88.217290L709.406642,87.026151L705.255223,85.379574L701.969430,83.338867L700.789646,83.014805L697.771029,83.233766L696.710062,83.014805L695.360099,83.277558L694.083245,83.899405L692.845591,84.232224L691.658402,83.645411L684.780712,85.677359L683.719407,85.992264L677.903246,87.718062L676.814816,89.960204L674.374645,90.485705L672.159947,91.379057L670.256335,91.554223L668.710111,89.960204L666.520563,88.716517L665.281258,88.339907L664.702425,89.093126L664.143120,89.443461L662.945175,89.215743L661.742291,88.637691L661.214215,87.928263L660.060886,87.218835L657.400444,86.938567L654.490770,87.096218L652.614426,87.639237L651.699328,87.122493L649.615282,85.379574L647.116713,83.986989L646.396184,83.330108L645.013532,81.578425L643.398416,79.949357L641.585956,79.073513L639.664263,79.599019L636.858509,76.936451L636.014210,76.594871L633.536539,77.094103L632.512605,77.164171L631.735838,76.594871L629.105514,78.959653L627.389647,78.162635L625.417496,78.057533L623.641332,78.565523L622.528884,79.599019L621.998095,78.959653L620.938826,79.467643L619.973210,79.634053L617.953349,79.599019L613.638899,80.071975L612.925308,79.958115L610.368467,78.959653L607.649300,77.225480L595.988779,77.225480L595.513750,77.575818L594.607775,79.152339L594.229198,79.599019L593.065383,79.493918L591.373852,78.898344L589.862575,78.127601L589.208605,77.514509L588.587661,75.990537L587.081964,75.561372L585.391148,75.754058L581.160034,76.796316L568.495309,76.980243L556.878856,73.126515L555.734846,72.285700L552.425233,72.548454L550.242219,72.049220L549.411589,72.022945L547.815213,72.390802L545.261096,73.485613L539.012952,73.835952L529.432589,71.882809L522.946584,68.265544L520.098579,67.512311L519.109595,66.548872L517.694345,64.394271L513.589477,59.498231L512.894250,58.955199L511.547963,58.219477L510.866281,57.448721L510.489742,56.677964L510.155082,55.180242L509.934823,54.558380L506.173587,51.037411L505.204565,50.450582L504.992380,49.513407L502.599520,44.091793L500.851673,43.513719L500.642523,43.338546L500.535396,42.462677L499.404591,39.256992L498.934831,38.827815L498.462585,38.494984L498.215728,37.706699L498.122155,37.189935L497.543468,37.137382L493.597692,37.137382L474.647505,37.128623L464.664939,37.124008L455.704943,37.119865L436.762375,37.111106L417.819589,37.111106L411.385546,37.108132L398.869379,37.102347L379.919163,37.093589L360.976371,37.093589L342.033778,37.084830L323.098614,37.084830L304.148187,37.084830L285.205581,37.076071L284.383799,37.075691L266.262969,37.067312L247.320351,37.058554L228.369914,37.058554L209.419654,37.049795L190.477021,37.041036L185.432281,37.041036L185.409323,37.041036L184.569967,37.032278L184.492792,37.461455L183.765029,39.143128L182.126293,39.423407L178.871638,38.827815L178.363974,39.029265L177.189134,39.782514L176.375013,40.045276L175.497374,40.045276L174.307450,39.624858L172.709078,39.405890L171.367506,38.932919L170.537692,38.827815L169.869964,39.020507L168.678443,39.852584L167.758888,40.045276L166.049095,39.668651L164.991061,38.740228L161.699391,33.730235L160.793084,32.836843L153.936753,28.562569L146.909025,24.200696L140.545694,18.332296L134.326405,14.478411L135.081611,12.052211L134.465912,10.668312L133.417997,9.529661L132.510098,6.183774L131.431937,5.018843L129.902557,4.300615L128.150451,4.064125L126.837483,3.617422L124.269512,1.637913L122.927330,1.112380L121.607646,1.496132L119.794785,2.023305L119.329721,1.979510L118.832200,1.620396L117.688704,1.926957L115.784565,2.907952L115.795996,2.277312L115.026582,2.592632L114.148805,2.566356L112.496799,2.277312L111.710451,1.839368L111.236521,1.016032L110.702957,0.534293L109.714983,1.112380Z "/></g></svg>