<?xml version="1.0" encoding="utf-8"?><!DOCTYPE svg  PUBLIC '-//W3C//DTD SVG 1.1//EN'  'http://www.w3.org/Graphics/SVG/1.1/DTD/svg11.dtd'><svg enable_background="new 0 0 1000 508" height="508px" pretty_print="False" style="stroke-linejoin: round; stroke:#000; fill: none;" version="1.1" viewBox="0 0 1000 508" width="1000px" xmlns="http://www.w3.org/2000/svg" xmlns:xlink="http://www.w3.org/1999/xlink"><defs><style type="text/css"><![CDATA[path { fill-rule: evenodd; }]]></style></defs><metadata><views><view h="508.045136031" padding="0" w="1000"><proj flip="auto" id="robinson" lon0="165.246291239"/><bbox h="51.08" w="100.74" x="2381.91" y="329.06"/></view></views></metadata><g class="" fill="black" id="country"><path d="M433.920087,506.045136L436.864447,502.395359L437.332053,498.313038L437.835896,496.177264L438.874082,494.920135L440.215091,495.231037L440.846036,499.313340L442.226469,500.692136L443.326763,496.339475L442.515044,494.014462L441.120468,492.162568L440.393486,489.256320L438.523067,486.823191L435.230035,484.903729L431.638450,484.011586L428.881373,484.714486L426.895763,487.945133L424.215684,497.677712L422.341378,501.827617L429.562183,505.450356L433.920087,506.045136Z M349.583647,465.141663L350.082934,463.168187L349.284634,461.329886L348.265330,460.370186L346.760183,460.275568L344.726820,460.897345L342.608092,462.194968L341.803890,463.600729L341.206387,465.195731L339.616214,467.142177L338.000015,469.494140L339.058209,470.656607L340.961316,471.143221L341.901260,471.562251L342.844526,471.440597L344.673130,470.359231L345.285152,469.196765L342.654223,468.723669L342.922977,467.709892L345.154020,466.871837L346.098694,466.304123L347.454462,465.330900L348.137386,466.412259L348.874003,466.277089L349.583647,465.141663Z M999.013894,452.174589L998.631363,451.912134L998.274149,452.393302L998.618864,452.655758L999.013894,452.174589Z M556.939547,290.895081L560.719878,286.489146L560.900116,284.313211L549.665452,291.381626L546.567322,293.800838L544.473082,293.111565L541.281364,291.219444L539.254985,290.813990L537.426732,290.732899L535.448940,291.192414L533.061359,292.341201L535.401614,298.760904L535.820591,301.518002L535.671908,304.342678L534.962589,308.762154L535.055462,311.735506L535.662664,313.384366L537.921642,317.168640L538.320260,318.533683L537.277423,321.412440L535.314118,323.683011L533.093928,325.358911L531.273358,326.480683L531.229688,327.196996L531.290903,327.778156L531.429229,328.332285L531.651616,328.832353L535.187656,327.453788L539.037421,327.494334L542.570267,328.494469L545.205786,329.981158L543.758694,334.603415L548.046228,337.347042L554.001860,337.928204L558.804369,335.360277L564.648349,333.697885L566.486455,333.373515L568.687275,331.913855L569.909330,328.440408L571.113115,320.804251L574.135872,316.141479L576.820894,309.735250L578.421947,303.761524L578.340017,300.288120L573.719454,302.477581L568.266611,304.261587L562.960599,304.923832L558.781621,303.788555L557.648360,302.410005L556.328955,299.882664L555.414257,296.868780L555.371657,294.057626L556.939547,290.895081Z M366.583737,182.058172L362.942045,181.909505L361.756990,182.058172L360.388082,181.909505L359.095952,182.017627L357.853817,182.396051L356.566159,183.193445L357.881311,183.558354L358.746192,183.990839L359.348160,184.585505L359.926414,185.463990L363.867094,184.315202L365.472776,183.558354L366.583737,182.058172Z M488.192060,180.922899L486.311413,180.666111L477.118528,174.124765L471.798121,175.773618L471.117156,177.517076L469.999432,179.179443L468.596223,180.436353L467.033788,180.922899L465.420416,180.909383L464.209094,180.693141L463.279457,180.193080L462.538098,179.219988L461.601338,178.936169L456.491791,179.787625L453.170102,181.409444L450.591393,184.936899L449.051658,188.477865L448.931304,190.086165L460.159906,188.748167L466.869536,192.275615L468.381400,193.397369L468.283961,197.019418L466.053406,200.317102L460.344527,205.858286L456.686130,210.318260L454.498834,212.223884L451.358470,213.913267L448.220929,214.656595L439.576673,213.913267L440.108811,216.183797L444.459429,221.860119L442.948132,224.103617L442.328506,226.293054L442.750989,227.968920L445.459925,229.212304L445.696148,230.509748L445.550104,232.023432L445.621062,233.185726L448.019353,237.199692L450.908913,240.700088L454.797985,242.227287L467.581406,243.768002L468.125949,244.673509L467.670031,247.457608L468.326434,249.079413L470.539364,249.728135L472.800438,250.093041L473.683110,250.863399L473.668423,255.836937L476.227254,257.107352L479.505001,257.107352L481.652972,258.242616L484.256804,256.647840L486.201128,255.161184L487.640046,253.079867L488.790803,249.728135L490.370112,243.376065L491.903100,241.010933L497.103416,239.145858L496.888823,237.023997L495.370240,234.685895L493.944815,233.185726L492.511885,232.645124L490.903606,232.428883L489.536370,231.766646L488.803011,229.888056L489.098050,228.482491L489.999271,226.901231L492.334154,223.995497L491.853513,223.252169L491.414899,221.549273L491.106773,220.724855L490.807295,218.886808L489.861929,218.454326L488.436248,218.535416L486.797381,218.346206L483.481626,216.859550L482.489394,215.913496L481.386805,214.426839L480.218758,213.480785L478.920607,212.913153L477.958980,212.264430L477.813998,211.021044L478.725361,209.020813L481.455969,205.696105L482.516187,203.614783L481.790949,199.073713L481.994721,194.748880L482.382879,192.775674L484.092390,189.640166L486.619463,186.747928L488.460151,183.882717L488.192060,180.922899Z M403.496229,129.037644L402.867593,127.172506L401.353363,126.185875L399.221747,126.510247L396.780714,127.659064L394.827190,129.253892L394.122807,130.727078L395.110548,130.145913L395.776921,129.916150L396.693422,131.375821L398.412599,135.511548L398.265814,138.660640L396.816134,141.674574L394.514089,145.148025L391.925594,148.405224L389.675262,150.770407L388.318863,153.122072L386.065787,163.245014L384.885866,166.204852L383.284440,168.313227L380.014872,171.854212L375.348757,176.016891L372.947356,177.665743L370.476190,178.652351L371.084471,179.787625L371.962150,180.922899L374.849432,180.666111L378.552618,179.530837L382.159190,177.936047L384.818511,176.287195L387.988028,172.962459L396.331397,161.542093L392.025606,162.177310L390.129018,162.123249L389.605570,160.974452L390.270140,156.311682L390.993990,153.770806L392.395618,151.851632L396.154863,145.526455L396.678921,145.066932L397.362036,143.445088L398.589253,141.755666L400.273561,140.444673L402.239217,139.890542L406.448561,140.120304L408.149704,139.498595L409.244691,137.633469L408.815966,136.525205L405.738073,134.376251L404.461876,133.092284L403.836823,131.213635L403.496229,129.037644Z M40.376567,76.299258L38.340119,76.474966L37.268596,76.299258L36.005729,78.651042L35.342772,80.705471L35.695771,82.246289L37.599459,83.003182L36.369691,84.976507L35.720070,85.719882L34.820425,86.382161L34.511858,87.652655L36.880191,87.220147L38.960508,86.138875L40.766460,85.800978L42.462645,87.652655L42.867348,89.896290L42.172498,92.031793L40.722968,93.653693L38.843897,94.437610L40.651417,98.289610L40.724609,100.303458L38.911406,102.263239L34.852943,100.871119L31.657647,103.114730L30.369985,106.385530L32.091140,108.034443L33.147974,108.750773L33.160094,110.291558L33.453537,111.832341L35.429439,112.481091L36.920526,111.845857L38.707450,110.332105L39.970212,108.466944L39.764964,106.804516L42.031898,105.871934L42.676796,106.980220L42.030114,109.156243L40.535946,111.345778L42.036704,112.116169L48.724262,112.481091L50.126810,113.413669L51.416957,115.481557L52.364088,117.657567L52.667087,118.819907L51.405345,123.901753L50.157460,126.712979L48.360961,128.456478L44.858386,126.956258L43.116640,127.321177L42.966335,130.727078L44.044157,132.267841L45.788869,133.092284L47.173476,134.335705L47.234188,137.065822L46.968409,139.403988L46.973132,146.202222L48.268255,149.824334L55.816688,156.338713L56.552385,159.271528L57.423763,159.014738L58.118153,158.906616L58.825771,158.744433L59.783128,158.136245L61.316076,169.583657L63.530245,171.354150L64.796539,179.138897L66.502776,180.922899L68.897333,181.477020L70.641162,182.963687L70.985508,185.139626L69.235244,187.734533L66.733518,188.667077L64.701051,188.261623L63.730684,188.396774L64.509097,191.045739L65.897223,193.262218L69.425270,196.397723L73.974060,203.425572L76.118142,205.182532L79.160905,205.858286L80.058602,209.534386L80.454373,210.399350L81.818671,211.088619L84.746730,211.183224L86.144215,211.642737L88.663654,215.386409L90.621946,216.562219L93.270918,214.940412L94.160984,214.940412L93.578798,217.535303L94.634876,218.238085L96.428457,218.467841L97.931367,219.589591L98.291768,221.211397L97.765362,222.725082L96.310278,223.779256L93.985016,223.995497L95.914408,225.995723L98.601259,227.347228L99.503064,228.766307L96.207743,230.915199L98.201625,232.509974L99.238222,235.699523L99.954270,243.484186L101.257803,242.430013L102.477754,241.240689L102.016929,239.510764L103.407278,238.578226L105.252334,238.267381L106.132091,238.402531L106.038848,240.997418L107.046692,242.267832L108.734476,242.024561L109.561844,240.105426L111.385447,239.267493L112.404080,239.267493L112.408723,239.956760L111.247186,241.240689L112.459356,241.970501L113.074697,242.227287L114.019696,242.240802L113.711065,243.484186L112.885953,244.213998L112.524289,244.727569L111.811687,246.889976L114.818070,245.862833L115.528976,247.619788L114.984124,250.566068L114.241960,253.174472L113.568489,256.728930L113.702394,259.012974L120.838420,272.974041L121.349066,274.866153L121.893306,275.920331L122.944584,276.771781L123.989133,276.947478L124.919542,277.298870L125.649877,278.731471L124.467484,280.137042L123.641061,281.569643L123.189053,283.002245L122.287571,284.313211L122.651910,286.083693L123.499142,287.327084L124.808670,287.705508L126.610640,286.678358L128.273960,284.475393L128.705182,280.974978L130.553676,278.731471L133.305078,281.393947L133.556126,283.056306L131.728133,285.543088L135.050334,284.894362L136.924899,286.381025L136.561692,289.138112L133.055444,292.341201L134.443184,293.246717L135.751051,293.071020L137.069520,292.246595L138.403708,291.219444L138.511017,293.544050L139.606426,294.354959L141.066917,293.571080L142.148360,291.219444L142.014390,291.287020L143.035947,290.759929L144.458763,290.219324L145.460226,290.192293L145.734859,290.543687L146.480513,291.489747L146.220411,292.246595L145.545462,293.071020L145.412800,294.625263L148.183614,304.923832L148.537903,305.329288L149.893089,307.707966L150.042021,308.789184L150.996721,309.086519L152.285189,309.127065L153.358356,309.464946L156.521687,312.789695L158.054594,313.762793L160.680181,314.114190L160.810527,315.127834L160.823712,320.358247L161.438347,322.601787L162.971140,324.358777L176.255272,331.630032L178.628254,332.143616L181.203451,331.305663L183.991848,329.764912L186.532210,329.156721L188.340433,331.021841L186.115858,331.630032L185.679132,332.522047L186.774229,332.954539L189.038543,332.143616L188.726598,333.373515L186.132639,336.819941L189.429805,341.198937L205.976567,351.497733L206.729085,351.619373L207.697865,351.213907L208.076582,350.416492L208.217923,349.632592L208.404486,349.267673L211.203079,349.024394L212.114998,349.713685L211.781117,351.619373L210.795187,355.025288L213.279658,354.363026L215.537036,352.849286L217.575238,350.727348L219.398113,348.118856L220.485744,348.118856L219.675807,351.295000L220.319106,353.173659L221.457144,354.579275L222.233620,356.255204L221.893706,358.958319L221.065960,361.418158L221.076458,363.296829L223.253460,364.202377L223.176920,362.445345L223.487075,360.958628L224.339213,359.958473L225.947897,359.566521L227.104168,360.120660L226.622410,361.364096L225.620129,362.904876L225.288031,364.202377L228.223239,368.446293L228.759289,370.095207L226.116881,368.635512L225.796288,371.162947L226.958835,372.054984L231.112055,372.136078L232.111121,371.933342L233.035369,371.338651L233.848251,371.041305L234.589919,371.568418L235.973325,373.284914L236.873276,374.014763L237.779024,374.312110L239.532527,375.542042L241.090034,380.988900L245.079313,382.840567L246.012751,384.300277L247.284349,387.395409L248.920658,388.665902L250.192692,387.314313L250.825202,385.313966L250.484709,384.503015L251.527640,384.584110L253.097121,384.935522L254.613381,384.949038L255.540939,383.935349L256.505194,379.691384L257.720049,378.150584L260.368077,376.582755L259.783321,378.583089L259.903661,380.204984L260.635666,381.448438L261.941858,382.232355L259.952723,383.827223L259.413845,385.192323L260.215423,385.665378L262.256925,384.503015L266.788438,386.151949L268.207609,387.719790L268.408761,391.423146L267.870443,391.923236L266.772566,393.910079L265.979672,396.072633L266.450376,397.099847L267.977010,397.207975L268.961544,397.694551L269.323386,398.735283L269.012231,400.478850L267.868739,399.748984L266.335015,399.397568L262.426364,399.370536L263.219769,401.046523L265.678366,402.384611L266.138182,403.993023L265.426757,406.601628L264.066344,407.250401L262.677832,406.520531L261.862990,405.020245L260.963030,405.020245L260.533177,406.723273L260.131178,407.912691L259.560806,408.804755L258.670159,409.669788L259.836310,410.940306L261.130950,411.940502L264.146916,408.696626L265.808805,409.048045L266.986461,410.859209L268.482013,411.940502L270.337629,412.535214L271.841971,414.211222L272.503981,416.698206L271.797514,419.861011L274.298296,419.861011L276.236587,421.212639L278.366822,422.185813L281.411298,420.996379L281.544017,419.455522L285.062749,420.347597L286.911053,418.725644L287.799192,418.725644L287.242412,420.144852L286.718860,421.077476L286.081176,421.685710L285.013516,422.239878L284.745617,423.267119L287.303363,426.943566L288.521482,427.916746L286.799319,429.633329L286.099225,431.417498L286.500123,432.431231L287.991219,431.822991L289.375617,430.282117L290.117762,429.052123L291.037830,428.214107L292.926677,427.916746L293.493464,427.267959L294.891697,424.240295L295.624783,423.267119L297.081477,422.834596L300.045193,423.388766L301.502570,423.267119L299.600897,428.579049L300.087421,430.025305L302.638979,430.187502L301.006216,431.917606L298.822120,432.539363L294.228362,432.323100L295.034667,434.242438L296.351886,435.458922L298.114737,435.999582L300.253239,435.864417L299.962824,436.972772L298.539575,438.702888L297.199543,442.920061L296.402771,444.352823L296.299704,445.812621L298.000477,446.542521L299.678493,445.758554L299.373442,442.649729L299.925052,442.595663L300.198781,442.487530L300.346937,442.190164L300.559364,441.514335L303.190066,442.352364L305.303581,439.730146L307.256095,436.026615L309.482524,433.593647L310.970299,433.444966L315.003086,434.107273L316.153745,434.620900L317.318641,436.283429L316.420831,437.256619L315.206460,438.189259L315.283248,439.811246L316.294599,440.676306L319.452830,442.352364L320.519638,442.649729L322.132256,442.203681L325.811852,440.649273L326.364641,440.946638L327.085610,443.271493L329.467049,445.677455L332.439854,446.988571L334.806446,446.164054L335.494001,447.191321L333.801557,450.246096L335.400143,451.759971L338.454431,452.138440L341.126207,451.841071L340.855256,452.868345L337.628266,454.517393L336.834757,456.815251L338.207689,458.869812L341.569583,459.761926L342.683256,459.437521L344.016389,458.680576L345.177562,457.734396L345.788034,456.882835L346.467476,456.963936L348.022912,457.531643L349.900556,457.896598L351.584674,457.491093L349.510901,455.436535L349.170850,455.220266L349.165548,453.381982L349.454831,452.462842L349.932927,451.624803L351.731656,446.839888L353.273391,444.623156L354.686592,444.136557L355.461159,446.164054L353.912149,446.988571L353.227881,447.191321L353.675600,448.772774L353.861315,450.638081L354.210542,452.192507L355.212026,452.868345L355.797205,451.624803L357.275901,449.340476L358.504276,448.137489L358.450209,450.070379L358.871276,450.732698L359.423282,453.111647L359.638321,455.260817L360.391807,456.653049L361.450665,456.315128L363.687962,456.247544L362.478142,457.774947L361.103663,458.599475L357.829228,459.761926L361.222805,460.356669L364.247495,459.167183L369.823503,455.220266L369.601822,453.760452L369.663221,452.908895L370.505941,452.327675L372.433747,451.530186L373.383817,450.719182L374.335527,450.300163L374.571505,451.043583L374.629609,451.841071L376.016462,450.570498L377.055694,449.421576L378.730556,447.191321L380.805152,443.176877L381.584230,442.082032L382.438491,440.568174L382.085122,439.203001L381.483191,438.027061L381.421646,436.972772L382.399869,435.918483L383.453945,435.864417L384.405879,435.621120L385.192885,434.093757L384.851830,432.323100L380.925420,427.916746L379.840923,424.564687L379.092574,422.915694L378.007467,422.239878L375.998505,421.834389L376.288226,420.861216L377.604376,419.671783L378.436128,418.725644L379.762760,414.454514L379.912435,413.075862L379.141367,409.940111L378.314344,407.912691L372.621667,401.722325L370.899677,400.478850L363.113941,398.235191L360.168539,397.829711L358.085818,397.072816L356.928901,395.450898L356.655359,392.450357L355.650142,393.126154L354.600394,392.666612L353.291050,391.855656L351.532855,391.423146L347.173998,392.004331L346.155682,391.423146L346.477876,390.179682L347.907411,389.895848L349.285447,389.449824L350.615476,388.828092L351.924359,388.017139L352.246332,386.773679L350.571834,386.016790L346.547237,382.232355L344.514069,384.624657L341.772459,381.935007L339.021034,377.650501L336.994007,375.447432L334.650786,373.879606L330.302049,366.067536L327.800486,362.972454L329.143704,361.931752L326.866324,360.782925L326.167633,360.134176L325.661937,358.688008L325.940761,355.687551L325.607399,354.525213L321.172180,350.065088L320.339770,346.875431L318.583587,345.740131L314.007627,344.334522L312.087713,344.158821L311.261300,343.685780L310.942256,342.874853L311.018926,341.888225L310.948280,340.928629L310.108895,340.185280L310.398787,339.049984L314.410546,339.049984L314.676258,338.009297L304.268687,334.103346L299.640975,331.332694L295.509941,327.710579L294.818568,324.818298L294.284427,324.250655L292.533667,323.683011L291.775160,323.169430L286.197787,315.925235L284.166272,314.479101L281.507137,314.492617L277.735632,316.263116L277.858174,314.303403L278.381709,311.221926L278.475748,309.464946L277.260086,309.275732L276.371132,308.951367L275.932386,308.235060L276.523205,307.518753L277.870893,307.140327L279.010508,306.613234L278.990177,305.491471L277.859526,304.734619L274.413976,304.248072L273.044227,303.788555L269.936290,298.585207L267.513600,296.733628L266.143650,297.895933L265.676447,300.950364L265.865614,304.923832L266.316544,306.194262L266.977969,307.464692L267.423631,309.032458L267.249143,311.154350L266.201114,311.735506L264.309288,312.276115L263.203814,312.113932L264.432864,310.586710L259.531241,306.653779L258.927314,304.923832L261.789741,305.680684L262.803741,304.261587L262.546421,301.436911L260.094207,291.354596L258.743005,288.543446L256.352301,287.813629L257.404650,289.489506L257.508061,291.354596L256.879402,293.152111L255.712209,294.625263L255.243829,292.584474L254.265726,291.543808L252.921918,291.489747L251.396719,292.341201L250.408013,293.571080L250.234952,294.814475L250.900917,298.112176L248.779767,295.341566L249.044489,288.300174L246.353432,288.948901L246.249702,285.083573L244.400236,281.083099L241.115490,278.785531L236.638541,279.974860L234.658023,277.096144L226.592568,274.676942L223.656876,273.082162L223.156096,271.298171L222.913746,268.622185L222.434523,266.189472L221.223619,265.135297L219.700453,264.486574L218.365341,262.945857L217.492544,261.053748L217.252498,259.486001L218.877204,261.040233L220.665098,262.175498L222.715119,262.824221L225.116311,262.864766L224.752194,261.513260L224.475936,261.026718L223.862013,260.486116L223.732821,258.756188L222.390590,256.539719L218.981713,252.566295L218.314718,253.174472L218.013287,253.350168L217.618418,253.431258L216.681017,253.809679L217.688484,252.025693L217.677479,250.944489L216.755432,250.417403L213.096676,250.160617L212.125964,249.687590L210.820866,247.457608L209.358866,245.808773L205.897551,243.443641L202.103537,239.591854L201.360139,237.780839L201.578031,234.929166L201.547674,233.780387L201.242848,232.699184L201.280896,231.604466L202.212277,230.401627L202.832252,229.415029L204.675986,225.671362L206.661082,220.130193L206.102879,219.265229L203.731137,218.346206L196.388889,217.210941L195.313366,216.683854L195.230663,214.088963L193.892651,212.399580L192.012339,211.007528L190.259078,209.291115L189.348908,206.912462L189.582026,200.100860L190.854576,197.560022L190.306453,195.370575L187.622211,192.153979L186.853258,190.856527L186.608373,190.045620L186.110920,189.450954L184.515541,188.748167L183.541599,188.802228L182.547933,189.315803L181.681494,189.883438L181.139436,190.086165L180.416113,189.599620L179.636676,188.058896L179.283285,187.734533L164.897406,184.409808L160.714234,179.706534L158.255833,178.652351L156.382920,176.314226L150.603112,176.043922L148.544663,174.124765L149.779634,171.962334L148.125164,169.637718L144.478993,166.691400L143.106135,166.556248L137.431202,159.271528L134.179759,151.365081L133.234261,150.202763L131.305803,148.986383L128.708291,143.134235L127.161939,141.025835L123.152158,139.403988L121.857331,138.660640L118.468068,134.214066L116.158390,133.497747L113.557368,131.767769L111.222391,129.524201L109.662970,127.415785L104.592590,116.738508L101.065671,112.359451L77.803474,101.492843L76.456931,101.533390L75.839368,102.817384L75.466953,108.196631L76.188721,113.846169L76.992494,115.887025L74.508894,115.495073L73.391512,113.778591L72.627065,109.169759L71.736023,109.169759L68.214090,110.440230L65.464946,109.886088L59.785858,105.763808L58.161464,103.574264L50.853132,89.896290L48.012659,88.314933L46.890712,87.382337L46.407199,83.435692L44.831854,80.651407L42.640838,78.083371L40.376567,76.299258Z M68.597673,85.354953L68.012507,82.070582L63.865901,72.785088L62.880698,72.785088L61.222041,79.948576L61.189801,82.976150L63.929767,85.598239L67.440686,87.990552L70.014226,88.787989L68.597673,85.354953Z M36.981307,73.569019L37.454268,72.055221L37.713704,70.406259L36.763010,68.378844L36.715363,63.837420L35.683578,62.487361L34.441263,62.864255L32.674558,66.810974L31.367976,68.135554L31.059759,69.406068L31.495139,73.460891L32.523875,74.731399L34.878715,73.920437L35.286531,76.299258L36.281715,75.001720L36.981307,73.569019Z M7.423645,23.478801L7.398992,22.221744L6.512080,19.288608L6.265573,16.909653L6.561372,11.556984L5.490656,3.744206L4.381362,1.338183L2.380367,0.000000L1.000932,2.068101L3.003745,3.690138L3.214423,6.123189L1.310978,12.935704L0.986106,16.612283L2.701460,27.236444L7.423645,23.478801Z "/></g></svg>