<?xml version="1.0" encoding="utf-8"?><!DOCTYPE svg  PUBLIC '-//W3C//DTD SVG 1.1//EN'  'http://www.w3.org/Graphics/SVG/1.1/DTD/svg11.dtd'><svg enable_background="new 0 0 1000 862" height="862px" pretty_print="False" style="stroke-linejoin: round; stroke:#000; fill: none;" version="1.1" viewBox="0 0 1000 862" width="1000px" xmlns="http://www.w3.org/2000/svg" xmlns:xlink="http://www.w3.org/1999/xlink"><defs><style type="text/css"><![CDATA[path { fill-rule: evenodd; }]]></style></defs><metadata><views><view h="862.920048129" padding="0" w="1000"><proj flip="auto" id="robinson" lon0="9.88323874079"/><bbox h="198.22" w="229.97" x="2.24" y="-394.34"/></view></views></metadata><g class="" fill="#000" id="country"><path d="M220.787078,860.920048L224.064400,858.718379L224.834724,857.837711L225.285603,856.264552L224.963762,854.823117L224.173118,853.487060L222.667387,851.688088L222.395897,851.507438L222.177063,851.262808L221.811174,850.491282L221.604048,849.776209L221.220737,845.640076L221.507590,844.447033L222.211143,843.404531L223.297144,842.143744L224.372676,839.723784L224.067173,837.232316L222.457523,831.899366L222.480084,828.737983L224.171906,819.171025L223.475884,801.038166L223.737332,800.270397L237.665090,788.535560L241.780792,784.113347L251.907427,766.208035L253.857359,750.595266L254.066232,748.921746L254.124142,731.486695L258.252330,731.338031L260.169845,730.929675L261.946278,729.945481L271.934939,719.232226L274.910966,716.862997L278.358936,715.340592L285.948005,713.266224L298.626238,709.800460L300.668864,709.555821L302.136384,710.289739L303.581741,711.821556L305.036085,712.542300L308.742964,712.790703L315.190994,711.490352L324.331974,711.941994L326.524973,711.475298L327.254880,711.127158L329.204261,709.567112L330.081112,708.402253L331.133848,705.724391L331.859418,704.642331L333.627063,703.644953L343.036924,701.821445L345.116513,702.322016L363.219882,710.309498L381.327580,718.296955L381.910234,718.662031L382.315032,719.055334L382.738408,719.262335L383.403130,719.062861L387.074120,716.753851L388.298711,716.467812L391.773552,717.307965L392.921947,717.585622L397.200152,720.321807L406.220105,729.806226L416.725470,742.542393L421.990276,753.195914L423.596190,756.445226L427.410390,761.309698L429.743061,763.712763L431.827000,765.434614L433.779508,766.268253L435.912864,766.527942L440.664154,766.501596L441.811819,766.287886L442.180000,766.219326L443.540743,765.468486L446.541967,762.493354L450.385198,757.384249L451.808220,757.079396L458.475951,758.443707L460.765719,758.458761L462.759687,757.738029L485.849510,742.107693L488.017782,741.027530L490.205917,740.786657L506.408629,743.355338L508.176254,744.109946L508.913720,744.736591L510.424532,746.334252L512.196138,747.553668L514.369263,749.446772L515.303628,749.939807L517.201901,750.509996L517.269270,750.545465L518.109781,750.987977L518.961214,751.814092L520.569168,753.944302L526.997743,760.442185L527.469037,760.773383L528.111441,761.050009L528.355815,761.076354L528.618048,760.873119L529.340452,760.464767L530.070670,760.201314L531.652515,759.986788L532.411418,759.994316L534.137152,760.404549L535.668469,761.226899L538.479841,763.571628L539.740181,765.103417L541.603851,768.498189L542.712113,769.986694L545.067969,771.499661L561.939782,777.062259L564.182622,777.354934L582.821605,779.787100L585.191194,779.783337L588.587277,778.708831L589.741572,778.622268L603.322264,780.398684L604.674344,780.285776L605.114643,780.078779L605.802912,779.568812L606.528888,778.859375L606.965524,778.275859L617.788510,763.806853L619.904174,761.531751L621.122815,760.649184L621.799830,760.381968L622.123685,760.434658L622.380510,760.381968L622.882756,759.792962L623.172432,759.062821L623.398840,757.282631L623.661799,756.524262L624.777867,755.302968L636.807550,747.719267L639.459951,746.473506L670.423320,739.029871L672.148662,738.615038L678.290310,738.061783L689.903693,739.576647L720.983992,739.392229L740.344388,744.853263L747.435419,748.061758L756.389285,754.128719L759.363602,756.731261L760.625747,757.429412L764.392558,758.443707L766.508219,758.244235L767.410084,758.071109L768.736936,757.041760L769.796277,756.799006L773.031871,758.067345L773.763216,758.515215L774.013366,759.002603L774.044720,759.405310L774.160279,759.680054L774.669620,759.781671L774.905035,759.608545L775.184131,759.232184L775.575721,758.882168L776.181619,758.788077L776.820005,759.187020L777.303009,759.826835L777.776045,760.193787L778.378018,759.781671L779.424814,760.122278L781.671060,760.210883L783.432137,760.280350L784.900317,760.543803L786.127057,761.023664L787.172615,761.260771L788.057393,760.777147L788.336940,759.915280L788.835791,756.031228L789.122765,755.765893L790.564050,755.472331L791.043619,755.306732L791.550097,754.661271L791.883339,753.884084L792.265368,752.275136L791.243927,751.851728L791.665606,750.769686L792.479882,749.435481L792.649503,748.253703L794.946788,745.796053L795.273371,745.542008L795.496481,745.961653L795.949549,745.796053L796.386919,745.436626L796.802716,744.939827L796.922491,744.508891L796.986390,743.328992L797.673397,743.910474L798.229227,744.550291L798.869143,745.060263L799.841638,745.271027L800.397457,744.890900L800.817641,743.212320L801.558083,742.828429L802.997990,742.461475L804.034934,741.548793L805.647986,739.301902L806.060864,738.095655L806.146169,738.061783L806.320422,737.770100L806.700605,738.088128L807.070006,738.588692L807.212004,738.852147L808.108018,738.769347L808.077904,738.487074L807.668395,737.946992L807.406397,737.088881L807.581034,736.827308L808.427452,736.488581L808.702244,736.319217L808.866498,736.270289L809.421768,736.360617L809.612506,736.319217L809.656031,736.119744L809.555865,735.530733L809.599287,735.323733L811.344122,733.112591L812.171464,732.341044L811.761297,731.755796L811.353072,731.315449L810.900620,731.020003L810.370737,730.852520L810.363484,730.310555L811.356913,730.617292L812.180658,731.057639L812.760258,730.997421L813.008133,729.809989L814.794871,730.254100L816.550779,729.877735L822.245041,726.665457L823.871453,725.995526L825.630071,725.831807L825.636290,726.285327L825.296445,726.992895L826.019384,727.290224L827.218742,727.220596L828.261964,726.827294L828.285266,727.083223L828.276255,727.867944L828.743949,727.346678L829.202046,726.129136L829.554080,725.831807L830.175876,725.967299L830.322387,726.548783L830.193998,727.282696L829.977815,727.867944L831.674113,727.007949L833.390491,726.650402L834.924998,726.019990L836.068980,724.341398L835.163659,724.209670L835.026845,723.855886L835.606353,722.849107L835.881624,722.726788L836.330558,722.762543L836.737928,722.655278L836.907942,722.079438L836.809860,721.667317L836.479523,721.151695L836.495202,720.858129L836.827866,720.126097L837.260429,719.465573L839.768253,716.799015L840.726796,716.036871L840.676115,714.785450L841.255596,714.266063L843.101086,713.915797L843.169202,713.902869L858.958728,714.653722L858.470120,712.331534L857.974883,710.011227L857.486148,707.689035L856.990839,705.372486L856.501976,703.050290L856.013131,700.733737L855.524085,698.407772L855.028493,696.089333L854.539401,693.769009L854.050218,691.446801L853.554491,689.132118L853.065151,686.808024L852.575860,684.491454L852.079829,682.169236L851.583764,679.848898L851.100786,677.526675L850.384887,674.182595L849.439339,670.475307L848.143690,665.416825L848.097992,661.126138L850.136431,657.881770L851.749578,656.980347L854.032029,655.917081L856.610466,655.679963L858.114794,655.355987L859.144540,655.134216L861.254016,653.137531L861.727237,651.814562L861.778336,650.457718L861.326086,647.674397L861.108524,647.243443L860.412758,646.558432L860.307991,646.180171L860.532544,645.803792L861.774900,644.823323L863.769467,642.284640L864.396368,641.746416L865.668660,641.417083L866.885075,641.300406L867.843965,640.730189L868.382848,639.023303L868.279937,637.540361L867.334253,634.433332L867.053405,632.946623L867.107309,631.397810L867.427027,630.003312L868.338212,627.739368L870.337210,622.776747L871.917929,618.841923L873.719832,615.968215L875.572575,613.007934L877.418161,610.036357L879.276617,607.070421L881.121459,604.100716L882.972593,601.136654L884.823275,598.168823L886.666992,595.200989L888.516968,592.236916L890.366591,589.274721L892.215731,586.306877L894.057907,583.339030L895.912922,580.374944L897.754364,577.408974L899.595321,574.437356L901.449183,571.473263L903.289407,568.503523L905.052810,565.669282L908.449085,561.540247L912.095176,557.102566L914.499465,554.166695L917.989784,549.924736L921.485465,545.667721L924.973859,541.421997L928.461256,537.172510L931.941156,532.923023L935.420058,528.669774L938.904755,524.424055L942.388455,520.174574L945.871308,515.928861L949.346596,511.679388L952.827457,507.426155L956.307551,503.180455L959.786651,498.930997L963.264912,494.685309L966.742023,490.428336L970.211969,486.186425L972.317828,483.611925L973.123278,482.268217L973.296270,481.523165L973.496427,480.661039L973.595385,478.816737L973.787718,475.493235L973.973374,472.173503L974.152197,468.850012L974.337393,465.526528L974.522483,462.206814L974.707308,458.883344L974.891949,455.559881L975.076328,452.232661L975.267249,448.912977L975.451352,445.589537L975.635362,442.269869L975.819034,438.942682L976.002699,435.623032L976.186113,432.299627L976.369360,428.976231L976.545802,425.649082L976.728720,422.325706L976.918032,419.002341L977.100712,415.682749L977.283069,412.355642L977.465436,409.036073L977.647567,405.712751L977.829547,402.389442L977.863944,401.760971L978.011377,399.066144L978.193102,395.744740L978.374682,392.423349L978.562628,389.100090L978.743923,385.778724L978.918529,382.457373L979.099506,379.134153L979.280348,375.810948L979.461014,372.485874L979.641677,369.166461L979.822083,365.841417L980.002489,362.522034L980.189190,359.197021L980.369306,355.875786L980.549258,352.552687L980.729134,349.231485L980.908851,345.908417L981.088410,342.583486L981.261441,339.264216L981.440777,335.939318L981.620176,332.621965L981.805796,329.295221L981.984941,325.976023L982.163854,322.651198L982.342796,319.332036L982.521511,316.007249L982.700172,312.684363L982.878826,309.365259L983.057258,306.040531L983.235686,302.719586L983.420521,299.396780L983.592238,296.075876L983.770366,292.753112L983.948368,289.428487L984.126421,286.109529L984.304266,282.784948L984.482210,279.467916L984.659863,276.141498L984.844152,272.822629L985.021664,269.496257L985.199283,266.177434L985.357276,263.140845L987.196643,257.425188L988.105947,255.533212L990.515790,250.511881L992.924983,245.490601L995.339996,240.467489L997.754288,235.442539L998.985972,232.874582L999.419900,231.629174L999.254387,230.428918L998.322681,228.844885L996.785435,227.042629L993.000010,222.610376L989.221784,218.178148L985.437612,213.742179L981.654188,209.309992L979.849989,207.199254L974.612882,202.763330L973.452077,201.371227L972.521674,199.787242L971.728769,197.943650L971.137265,194.662814L971.580575,191.295447L973.073466,188.484922L975.579354,186.900945L974.494986,185.143898L973.403455,183.356752L972.299125,181.577132L971.201290,179.793749L970.103517,178.010366L969.005807,176.226983L967.901641,174.443600L966.810573,172.660216L965.713048,170.876832L964.609154,169.097210L963.518092,167.306299L962.414319,165.526674L961.317035,163.743286L960.219810,161.959896L959.122644,160.176505L958.019108,158.396875L956.928487,156.609717L955.371305,154.088881L953.135266,151.225658L951.908737,150.307619L948.892474,148.618275L947.877481,147.545973L947.589819,146.375845L947.526068,144.468271L947.473191,143.031004L947.326495,139.238415L947.116951,133.873076L946.882269,127.725089L946.647042,121.573282L946.436443,116.211566L946.295030,112.418825L946.235087,110.981490L945.690688,108.046604L945.103449,104.953666L944.516148,101.860708L943.646621,97.296487L942.783540,92.735979L941.920303,88.175419L941.050309,83.611042L940.186737,79.050370L939.316395,74.485875L938.459052,69.928843L937.588331,65.364220L936.723911,60.799529L935.859373,56.238530L934.988169,51.679338L934.129647,47.116307L933.264397,42.553197L932.393686,37.996657L932.354130,38.018231L932.347726,38.021994L921.742335,44.316355L911.145519,50.604916L900.537971,56.893331L889.919735,63.181607L886.001006,65.503455L885.028626,65.623875L884.100516,65.119618L881.178054,62.387583L873.136520,54.889408L865.110108,47.394795L857.072562,39.892443L849.040335,32.391746L845.431105,29.012027L837.961090,24.595360L831.540819,22.941205L825.963524,21.505335L820.386775,20.076984L814.810202,18.639214L809.234093,17.205198L803.664859,15.771173L798.089557,14.339020L792.521089,12.904975L786.939983,11.469038L781.372285,10.034973L775.805012,8.602781L770.225182,7.172460L764.658564,5.734601L759.092450,4.302378L753.513743,2.870144L747.941915,1.437901L742.376852,0.000000L738.165573,2.926606L733.946898,5.849404L729.733849,8.770278L725.519980,11.691110L721.298839,14.613783L717.076884,17.536415L712.867033,20.455244L708.643429,23.375916L704.419095,26.300313L700.206883,29.220909L695.980890,32.141467L691.754212,35.067636L687.539672,37.990005L683.311326,40.910457L679.082236,43.832758L674.852407,46.756906L670.628174,49.673496L666.396778,52.595698L662.164653,55.519752L657.938205,58.440011L653.710940,61.356478L649.476552,64.280442L645.254357,67.200614L641.018418,70.120759L636.781862,73.048404L632.550949,75.968496L628.319305,78.888563L624.080429,81.808605L619.847391,84.732386L615.613572,87.652381L611.372530,90.572353L607.137277,93.492304L602.901371,96.415996L598.658191,99.335906L594.420813,102.255795L590.176281,105.179429L585.937556,108.103044L581.698080,111.022879L577.451401,113.942697L573.210595,116.866262L568.968994,119.782286L564.720305,122.705821L560.477391,125.625580L556.233851,128.549088L551.983019,131.465058L547.731617,134.388541L543.486004,137.308251L539.233260,140.231714L534.986363,143.155166L530.732288,146.078610L526.483968,148.994521L522.228574,151.917949L517.978990,154.837608L513.728753,157.757261L509.471350,160.676908L505.213297,163.596552L500.967679,166.519953L496.708336,169.439590L492.448351,172.359223L488.200808,175.282618L483.939590,178.206011L479.677691,181.125642L475.428242,184.049036L471.165079,186.968668L462.960434,192.585957L456.771798,198.477915L452.317896,202.714418L447.856596,206.958457L443.394259,211.194986L438.931014,215.435295L434.085681,220.044346L431.727992,222.362050L428.123817,225.974070L424.183053,229.924736L420.241484,233.871663L416.305680,237.818614L412.356059,241.765592L408.415511,245.716360L404.470906,249.663396L400.519056,253.614226L396.586029,257.560647L392.632680,261.511555L388.685095,265.460617L384.736743,269.407830L380.787674,273.358839L376.837819,277.306118L372.887244,281.257191L368.929347,285.204534L364.977264,289.155670L360.039252,294.081462L357.318300,296.181242L354.484628,297.353434L346.347655,299.152180L340.056853,300.542638L326.227357,303.594507L312.395924,306.652038L306.102881,308.038752L294.181603,310.674835L282.265368,313.307167L270.347691,315.943275L258.428534,318.577513L258.510439,327.582934L258.592216,336.586609L258.673876,345.592294L258.755386,354.596222L258.756884,354.761871L258.836733,363.598385L258.917964,372.608189L258.998964,381.608690L259.079802,390.613056L259.153903,399.619399L259.189193,403.567524L259.234347,408.625832L259.314571,417.632349L259.388009,426.638945L259.467759,435.645614L259.553792,444.648587L259.633026,453.655385L259.705398,462.658476L259.751868,467.254137L259.815935,474.898544L258.973167,475.576040L258.297345,475.613679L257.793318,475.850803L257.426534,477.130520L257.355313,478.447877L257.744107,485.603022L257.466125,486.359564L256.647198,487.816191L256.486736,488.463581L256.532444,493.063066L256.633238,502.807827L256.694603,509.082280L256.772211,517.129555L256.269238,518.834615L255.374293,519.756778L252.617063,521.333865L251.132606,522.609839L249.924880,524.047661L248.974485,525.703793L243.371312,541.162285L243.112183,543.172229L243.372305,545.185937L244.172140,547.335146L244.218618,547.425481L244.251989,547.523343L244.265658,547.624970L244.259627,547.730360L244.275058,548.174505L244.236720,548.389049L244.178642,548.599830L240.498499,552.706287L239.540463,554.369948L239.139582,555.713674L238.602984,562.827512L238.110547,565.635407L237.315368,567.763497L237.149947,568.206172L235.562405,570.355376L233.168924,571.791315L228.116567,572.862152L225.788410,574.277389L220.843912,580.374944L215.289201,584.146390L214.659648,586.096097L214.097427,594.487730L212.931738,594.228021L212.582477,594.100048L206.024167,592.859842L194.040883,590.588325L186.443251,589.154275L183.930344,589.208852L182.911610,589.472326L182.452492,589.848717L182.297309,590.577033L182.177280,591.915102L182.180684,594.608175L181.828941,595.569852L178.677729,595.690296L172.533159,595.927422L166.381921,596.155138L160.237239,596.392264L154.079335,596.627507L147.934523,596.858987L141.783076,597.090467L135.638170,597.327592L129.486607,597.557190L123.341589,597.794316L117.183341,598.025795L111.038202,598.259157L104.886428,598.492519L98.741186,598.729644L92.595869,598.957359L86.443936,599.194485L80.298520,599.427846L75.607185,599.612277L73.462966,600.186271L71.747319,601.339904L67.443702,605.790701L62.350665,611.069540L58.183429,615.381053L52.851766,620.906116L51.299187,621.758627L49.568325,622.165123L39.825849,622.522688L37.963543,623.303685L36.147274,624.095974L34.389947,624.575864L33.514437,624.658668L23.623941,620.738625L21.629414,620.844013L17.507736,622.462466L15.485329,622.946120L13.329367,622.932947L4.925453,620.565488L4.412191,621.331431L4.386317,623.130549L4.749328,626.753244L4.901183,628.411212L4.328642,629.387926L3.446592,630.189622L2.666642,631.326297L2.561749,633.411455L4.409715,637.630693L4.831716,639.845695L0.580100,653.284319L0.956215,656.969056L2.857374,660.491944L3.732892,661.380888L12.914039,670.701132L15.620513,674.777266L15.801899,675.191277L15.736269,675.795357L15.132065,676.666662L14.896769,677.327197L14.561636,679.581673L14.258857,680.445449L12.734298,683.085703L12.459478,683.941951L12.741530,684.775615L13.551036,686.132436L13.946669,686.631129L14.347188,686.973627L14.696651,687.357526L14.967126,687.972894L14.894823,688.445240L14.368033,689.617637L14.374883,690.257469L14.961794,691.004565L15.792469,691.458092L16.461754,692.097923L16.594149,693.388875L17.100616,694.674180L18.153984,695.470204L19.273227,696.119442L19.960836,696.973803L19.933135,697.607986L19.411369,698.921517L19.447997,699.685548L19.842135,700.214347L21.172605,701.191026L21.673944,701.817681L22.215232,703.166964L22.721847,703.953652L22.987204,704.365700L23.956877,705.364959L26.107042,706.938180L26.760322,707.903565L27.479488,708.759803L28.706126,709.264136L29.141713,709.947244L28.760179,711.320987L28.141348,712.839631L27.865104,713.948033L28.749803,715.762123L30.431669,716.411357L38.898056,716.110263L39.544381,716.260810L39.729421,716.765142L39.716715,717.357920L39.769828,717.802033L39.723888,718.071135L39.506525,718.372228L39.559667,718.853978L40.325261,719.665048L41.578750,720.344389L42.713041,720.412135L45.113163,720.152442L48.061783,721.147932L51.513002,723.458820L54.094726,726.524320L54.427897,729.806226L55.624005,732.019252L57.729897,733.746766L64.686200,737.337282L65.827852,737.755046L68.532787,738.129528L69.608372,738.434383L70.585615,739.200284L71.807949,740.730202L70.074028,741.496102L68.833028,740.835584L67.789476,739.794938L66.634628,739.414811L66.298691,739.809993L65.996232,740.617293L65.359351,743.106938L64.917548,743.261247L63.498456,742.600729L60.067064,741.639120L54.958888,739.362120L53.606357,739.102429L52.771528,742.021129L52.804047,748.197248L52.843787,755.052688L52.868775,759.686360L52.876023,761.031191L53.062136,762.414318L53.630779,763.577273L55.466430,764.704474L60.033458,765.133525L61.961595,766.208035L65.601756,769.632915L69.427298,773.234681L74.161738,777.695402L75.810714,779.248907L81.018710,784.150983L84.541787,787.462938L88.937853,791.606643L90.728623,792.724426L92.848785,793.341653L99.392389,793.981462L107.481254,794.760522L108.609970,794.621270L109.691292,793.823391L110.454880,792.573883L111.125669,791.136195L112.205090,789.352257L112.638999,788.377489L112.922216,788.027476L113.443500,787.903278L113.892853,788.147911L114.394761,788.253291L115.100121,787.722626L116.180222,786.390317L116.767024,786.017722L122.979961,786.597314L125.542850,787.372612L127.217512,789.559255L127.590130,790.978125L127.835203,791.369537L128.516809,792.152362L129.191453,792.754535L130.361690,793.563705L130.937774,794.376638L131.368988,795.362695L131.575591,796.281008L132.073410,800.669336L132.385686,801.595175L132.909689,802.724246L133.274034,803.285018L134.088315,804.282364L134.347002,804.831846L134.347657,805.140458L134.144578,805.904463L134.138748,806.269529L134.267602,807.872809L133.820212,808.651867L132.883084,808.922844L129.086802,809.284146L128.763098,809.220166L128.075578,808.847573L127.883932,808.776065L127.481619,809.024460L127.020805,809.739538L126.730743,809.987933L123.047594,810.846026L122.085194,811.749281L121.937359,813.860640L123.164024,816.412335L125.913198,820.702793L130.703403,828.169687L135.209547,835.211290L140.293066,843.126029L143.629664,846.298696L143.502538,845.553515L142.753266,844.292727L142.665678,843.494856L143.027048,842.557733L143.568458,842.399665L144.169870,842.493753L144.724450,842.316867L145.152699,841.771153L145.652506,840.717360L146.093999,840.194227L146.734679,840.126483L147.402540,840.401222L147.871351,840.288316L147.908221,839.038818L147.774082,838.131803L147.357127,837.789321L146.748994,837.627488L146.067790,837.281242L145.405843,836.675311L144.948727,836.084433L144.590421,835.361832L142.422095,828.534751L141.785783,824.477640L141.729339,822.821675L142.287983,821.557120L143.831722,820.759246L144.709863,820.635049L146.176245,820.702793L146.995017,820.612467L147.146497,820.424290L147.673010,819.607597L148.002619,819.336621L148.478428,819.460819L148.842643,819.882337L149.166543,820.002771L149.528045,819.242532L149.823171,818.343042L150.271792,818.136046L150.873028,818.237662L151.626001,818.267770L151.804707,818.433367L151.904707,818.832304L152.103607,819.159734L152.585647,819.122098L152.948319,818.877467L153.528035,818.252716L153.818130,818.041957L156.088376,817.349462L156.339467,817.402152L156.888499,817.763453L157.205599,817.801089L157.594737,817.586566L158.359290,816.950524L158.801547,816.856435L161.055274,817.530113L161.635520,817.153757L162.523147,815.573061L162.733064,815.008527L162.857105,814.436466L163.040702,813.913330L163.383027,813.484284L164.075679,813.183199L164.750571,813.691280L165.417102,813.506866L166.003484,812.972440L167.023552,811.602502L167.728808,811.083131L168.342601,810.947642L169.637065,811.000332L170.290446,810.853553L171.809136,810.793336L172.565606,809.686848L175.637994,812.757917L176.941090,813.540738L177.583800,814.319795L178.081552,815.215523L178.495485,816.852672L179.018892,817.462369L179.726683,817.872597L180.480442,818.184972L182.601200,818.452185L183.136684,818.640363L183.375507,819.020482L184.006729,820.375363L186.607828,824.650764L197.631789,835.884965L197.831109,836.272611L198.698672,837.006503L198.898011,837.397912L199.061136,838.952257L199.383103,840.604453L199.856065,841.929221L201.324286,844.687900L202.239548,845.873416L202.783007,846.441711L203.571015,847.036351L204.457133,847.292271L205.314719,846.844410L206.211472,846.242243L206.965176,846.407839L207.653679,846.859464L208.368035,847.119148L211.241636,849.106299L213.583517,850.039657L214.298846,850.596661L214.815937,851.146138L216.967508,854.574723L217.398347,855.000003L217.755926,855.240869L218.040997,855.538189L218.280677,856.110247L218.608081,857.261890L218.847720,857.818893L218.975293,858.462458L219.201719,859.019462L219.738014,859.346890L220.336394,860.502295L220.787078,860.920048Z "/></g></svg>