<?xml version="1.0" encoding="utf-8"?><!DOCTYPE svg  PUBLIC '-//W3C//DTD SVG 1.1//EN'  'http://www.w3.org/Graphics/SVG/1.1/DTD/svg11.dtd'><svg enable_background="new 0 0 1000 914" height="914px" pretty_print="False" style="stroke-linejoin: round; stroke:#000; fill: none;" version="1.1" viewBox="0 0 1000 914" width="1000px" xmlns="http://www.w3.org/2000/svg" xmlns:xlink="http://www.w3.org/1999/xlink"><defs><style type="text/css"><![CDATA[path { fill-rule: evenodd; }]]></style></defs><metadata><views><view h="914.25958112" padding="0" w="1000"><proj flip="auto" id="robinson" lon0="7.93264747178"/><bbox h="161.11" w="176.42" x="39.45" y="-232.75"/></view></views></metadata><g class="" fill="black" id="country"><path d="M401.486433,892.950154L398.501940,891.211610L397.512202,890.813677L393.466678,892.212239L392.629542,892.699031L391.857355,894.410532L392.351869,895.650693L393.642602,896.392472L399.813953,896.817449L401.272456,896.647458L405.439856,894.947549L406.727665,894.700289L409.925622,894.847099L411.383506,894.480073L412.123193,893.344224L412.589796,892.088609L411.729834,891.779535L408.949222,892.104063L407.504477,892.301098L404.493639,893.154916L402.967046,893.344224L401.486433,892.950154Z M385.281565,890.860038L383.985604,888.310173L382.837940,887.514306L382.515293,889.090586L382.170226,889.994629L380.560564,892.104063L378.688354,895.395707L376.018132,898.610081L375.211887,900.402713L376.026434,901.538562L378.870342,901.828319L386.324168,900.085912L387.508885,899.533441L388.638302,898.722121L389.426478,897.794897L389.776718,896.322930L389.792841,894.839372L389.959532,893.556713L390.474367,892.428591L391.480345,891.397055L390.401867,890.956624L386.592113,891.397055L385.281565,890.860038Z M289.348338,912.259581L289.661031,911.861648L290.205451,911.425080L290.490719,910.965332L292.599106,911.610525L295.707780,911.421217L298.078323,910.509447L298.546601,909.613132L297.413887,909.246106L296.882068,909.246106L296.214774,909.613132L296.197877,908.268658L296.701068,907.712324L297.395898,907.457338L297.913011,907.020770L298.509614,905.633799L299.050499,903.775489L299.153394,901.260395L298.576798,899.684115L297.659568,898.212148L296.754145,895.998402L298.282274,896.380882L299.232046,897.226973L299.936842,898.258509L300.757276,899.181869L300.112148,897.470369L299.710844,895.109813L299.554839,892.699031L299.645568,890.813677L300.163705,890.813677L301.511499,895.418887L301.906039,900.534070L304.759834,896.647458L305.427181,896.330657L305.945410,896.361564L306.627646,896.543146L307.718755,896.647458L302.254624,903.636405L300.566852,907.669826L302.557429,910.316276L304.212549,909.620859L308.064538,909.501092L309.671644,908.701362L311.211423,908.249341L313.311039,908.098667L314.679992,907.503699L314.041421,905.722657L315.145023,905.355632L316.269437,905.131553L318.571600,906.893277L323.441082,907.418703L327.604082,906.302172L327.759494,903.126432L328.854460,899.463900L329.151122,895.596605L328.303742,892.254737L325.959791,890.164620L328.501991,889.878726L329.769730,892.328142L330.133418,895.801367L330.035684,900.124546L330.288800,903.060754L331.210405,906.128318L331.702785,906.696242L334.061156,906.429665L336.645339,906.476026L337.496729,906.143771L338.114509,905.131553L338.063817,904.007294L337.209693,900.719515L336.536706,898.895975L335.515373,896.832903L335.177206,895.291394L335.090389,890.860038L334.636830,889.515563L335.201703,889.148537L335.650467,888.704243L336.030774,888.155635L336.349470,887.514306L336.795729,888.673335L337.043153,894.499390L337.305714,895.805230L338.095466,897.945571L338.255787,896.705410L338.291706,894.839372L338.657751,894.051232L338.076581,890.890945L338.630819,886.587082L339.901628,882.592292L341.484009,880.382409L341.573449,883.167944L341.392167,884.187890L339.525967,889.867136L339.223302,891.397055L339.232180,894.700289L339.417284,895.082769L340.196496,895.824547L340.381912,896.322930L340.280826,896.763361L339.873598,897.451052L339.574901,903.056890L339.830790,904.424545L341.674798,905.606755L344.777858,905.919692L348.131673,905.664706L350.755197,905.131553L352.831222,903.845030L351.750240,902.465785L350.041229,900.796783L350.212517,898.594628L349.063026,897.087889L348.223655,894.294629L346.527773,884.956713L346.687707,883.619966L347.094604,882.843416L348.971138,881.023739L347.401518,877.975490L346.299797,876.480341L345.234554,875.842875L344.496376,875.147457L344.123679,873.501634L343.786567,869.951138L343.081663,866.524272L342.470229,864.832087L341.725202,864.117352L340.660228,863.557154L340.247408,862.193361L340.078999,860.477996L339.706390,858.870807L340.436912,859.280331L341.146224,859.419415L341.841120,859.280331L342.562518,858.870807L342.694541,859.759397L342.962306,860.439362L343.762901,861.521124L344.789184,860.450952L345.552849,860.524357L345.766485,861.343406L345.197144,862.494709L344.335143,863.812141L344.052243,865.021396L344.304211,867.358774L345.602198,873.223467L347.097185,876.403073L349.248455,877.790045L350.640908,878.415921L350.890312,879.841528L350.546898,881.371448L350.167795,882.329579L349.549949,883.241349L348.979143,883.909723L348.565879,884.848537L348.413832,886.571628L348.781742,888.963093L349.703539,891.964979L351.005715,894.453029L352.439736,895.291394L351.844278,896.937216L351.985254,898.629399L352.643877,900.136137L353.601406,901.244941L355.528706,900.449075L357.404936,900.924277L359.248401,901.878544L361.097878,902.535327L360.809990,901.978993L360.692892,901.546289L360.643974,901.113585L362.207512,901.921042L363.108733,902.373063L364.206876,902.535327L365.017080,902.125804L365.505440,901.214034L365.632432,900.298401L364.564613,898.780072L361.580251,892.104063L361.396726,889.867136L362.182751,883.330208L361.497568,882.113227L359.996578,881.695976L358.443520,882.151861L357.609122,883.619966L356.999337,882.538204L357.277281,881.981870L357.855445,881.518258L358.173546,880.699210L358.028254,879.945841L357.713012,879.362462L357.014861,878.373424L355.828892,876.039910L355.416289,874.776567L355.241361,873.188696L357.677020,876.283306L358.574638,877.894358L359.316111,879.733352L360.126265,879.347009L360.459562,879.084295L360.795923,879.899480L361.233280,880.270369L361.819882,880.382409L362.692491,880.382409L360.808447,874.726342L359.870115,873.188696L360.236043,872.423736L360.025051,870.163627L360.429876,868.707112L361.424397,870.816547L361.769688,872.361921L362.301491,872.388965L363.862359,869.951138L364.239748,870.801094L364.661507,872.852577L365.019001,873.895704L366.708968,876.028320L367.264196,877.083037L366.745526,876.886002L365.967905,876.723737L365.530942,876.491932L365.739265,877.817089L365.513109,879.779713L365.088682,881.549166L364.722773,882.329579L363.784005,883.040451L364.190753,884.632185L365.561586,887.220685L365.793423,892.057702L366.304620,894.433712L367.319867,896.647458L367.947103,896.647458L370.222413,895.998402L369.338886,894.568932L368.877326,892.880613L369.090991,891.292742L370.205871,890.164620L369.870284,892.026794L370.378780,893.433083L371.527133,894.483937L373.083868,895.291394L373.041611,894.816192L373.078330,893.344224L374.819100,894.136228L376.248762,893.417630L378.551523,890.489148L379.078469,888.820146L378.316936,887.166597L377.038087,885.791215L375.958428,884.925806L378.122814,883.704961L377.806888,880.567854L375.915878,877.330297L373.314208,875.842875L371.778673,875.263360L370.997477,873.872523L370.149422,870.592468L369.615739,869.920231L369.063333,869.839098L368.619749,869.672971L368.385158,868.707112L368.603004,868.606663L369.037408,867.965333L369.457360,867.045835L369.563710,866.118611L370.481446,867.578989L371.871109,871.898309L372.514731,872.864167L374.032202,874.262730L374.730097,875.135866L375.003154,875.263360L376.830076,875.244042L378.014327,874.591122L378.559703,874.594986L378.794125,875.491302L378.801735,878.079803L379.543705,880.026973L384.859973,886.571628L386.750662,889.662374L387.161187,890.164620L390.902124,889.515563L391.410976,888.681062L391.531201,887.838834L391.120231,887.189777L388.827986,886.656624L387.399334,885.366237L386.320885,884.925806L386.837242,884.326974L386.243184,884.006309L385.689839,883.619966L385.688107,883.032724L386.484629,882.657971L386.768958,881.981870L386.869250,881.317360L387.134254,881.023739L388.647437,880.938743L389.219490,880.737845L389.729726,880.382409L390.784433,882.008914L392.641705,883.001816L394.824723,883.492472L396.918035,883.619966L399.827492,885.366237L401.648384,885.578726L402.365108,883.619966L402.937766,883.619966L403.744699,884.439013L404.691988,884.330837L405.651394,883.724278L406.426466,883.032724L407.811788,881.263272L408.083745,881.023739L407.808602,880.224008L406.658543,878.670908L406.677180,878.079803L407.369037,876.943953L407.372927,875.993549L407.110660,874.950422L406.915440,873.544132L407.171595,872.609181L407.782538,871.774679L408.258502,871.380609L409.196790,870.592468L409.721694,870.592468L408.228899,875.027690L407.950030,877.442336L409.223083,879.084295L408.851000,880.015383L408.606707,880.382409L410.133666,882.565248L410.380525,883.032724L410.056348,884.029489L409.478573,884.585824L408.907210,885.010801L408.622577,885.567136L408.789517,886.656624L409.485086,886.718438L410.466294,886.552311L411.530952,886.923200L411.061503,887.236138L410.830558,887.514306L410.674699,887.823380L410.396394,888.221314L417.815672,888.812419L418.982543,889.160128L420.070422,890.419607L422.526117,890.860038L425.239029,890.701637L427.044017,890.164620L426.504272,889.793731L425.855881,889.561925L425.078391,889.469202L424.178618,889.515563L424.809498,888.503344L425.803687,888.128591L426.867666,888.271538L427.660166,888.804692L441.964145,886.923200L445.652397,886.923200L447.274219,886.695258L450.057201,885.045572L451.672738,884.987621L455.165150,885.567136L462.337083,885.567136L467.111315,886.177558L470.758662,886.181421L471.555747,886.015294L472.372335,885.567136L473.507936,882.681151L474.300374,881.147369L475.932740,880.034700L477.216668,878.705679L476.963687,876.491932L476.204489,875.761743L475.255803,875.437214L474.442749,874.904060L474.104066,873.544132L474.223771,872.667132L474.884557,870.546107L475.168822,869.951138L474.127231,868.374857L472.852060,864.295070L472.010738,863.464431L471.204570,862.942868L470.245893,861.683388L469.395419,860.172785L468.845598,858.870807L470.205290,857.827679L469.870431,855.617794L467.673456,851.089847L466.543074,849.451750L461.938762,844.549049L461.936733,843.965670L462.454750,843.965670L462.879685,844.637908L463.715052,845.731261L464.734202,846.751208L465.655954,847.203230L466.693220,847.550939L467.295995,848.397032L468.243760,850.440790L468.726365,852.009345L468.822089,852.094341L470.830504,853.361548L473.107099,855.293266L473.799253,856.351847L473.422004,857.634508L475.102528,858.685362L475.757561,858.870807L475.406334,859.798032L475.134937,860.161194L477.324030,862.394260L479.717188,862.541071L481.558648,860.872067L482.106213,857.634508L482.624266,857.634508L482.247437,860.960926L481.434469,864.341431L481.593553,866.953113L484.078543,868.003967L485.168481,867.787615L486.787661,866.868117L487.536749,866.651765L487.892662,867.061289L487.718710,867.996240L487.326855,869.000733L486.974570,869.626610L486.616435,870.530653L487.189962,870.789503L488.000893,870.708371L488.375419,870.592468L489.624543,871.056080L490.750031,871.253115L491.709604,870.793367L492.440576,869.302081L492.478394,868.428945L491.928200,867.057426L491.856711,866.118611L492.078243,865.152752L492.814790,863.329211L492.975421,862.494709L493.299949,861.745203L494.046301,860.771617L494.922669,859.940979L495.596194,859.573952L496.353566,859.778714L496.920937,860.223009L497.099776,860.671168L497.066695,860.689956L497.067282,860.689945L497.144965,860.688515L498.567722,859.115962L498.251162,857.754391L497.995374,856.441885L497.719704,854.420381L498.450258,852.965585L500.728674,851.054478L501.233142,849.337181L504.500940,843.449303L504.500886,843.434583L505.740077,841.463319L506.512165,839.589010L507.734504,835.445411L508.249102,834.177063L509.865799,831.360691L510.701579,830.347485L511.634577,829.866641L512.620594,829.672831L513.493104,829.221427L514.094341,827.997237L516.286493,815.097860L516.196022,814.087106L515.494716,811.793283L515.394636,810.539654L515.922282,808.243377L517.706713,804.227347L518.252236,802.102800L518.201050,800.098465L517.899544,798.263406L517.771025,796.406268L518.282107,794.350413L519.529582,792.503088L521.097773,790.795600L522.362455,788.943368L522.725332,786.651998L521.858387,784.120205L520.275875,782.250800L518.400105,780.614457L516.705214,778.764678L515.596534,776.362909L516.231348,774.998881L517.706007,773.759971L519.168719,771.721289L519.531038,769.336693L518.788752,767.680724L517.882678,766.174405L517.719016,764.248574L518.603801,762.685830L521.553694,760.443524L522.671800,758.829261L524.092962,757.276330L525.893862,757.565818L527.722631,758.309164L529.201324,758.103088L529.498941,756.864177L529.669228,754.160654L530.116412,753.515439L531.454166,752.730387L532.504289,751.452224L534.282737,748.520545L534.282674,748.505825L541.969346,739.421300L553.403143,728.953120L555.524661,725.567583L557.886343,719.863689L559.021489,718.394169L560.168722,717.680263L561.154347,717.567411L562.210167,717.670449L563.533269,717.582131L565.861485,715.985041L568.370228,710.447971L570.827320,708.708590L571.327319,708.498169L574.668899,707.091874L576.368347,706.127732L577.684799,704.663119L579.619594,700.472905L580.859440,699.290420L583.339095,698.723711L584.354484,698.716868L587.343641,698.696725L588.385666,697.759569L588.463731,697.475019L594.697835,674.742835L596.253070,672.745861L598.242941,672.907778L599.873342,673.808133L601.501926,674.347856L603.460305,673.415608L623.843978,653.789326L625.800098,652.528338L626.968937,652.808012L627.660315,654.348675L628.899614,661.335630L629.782855,663.185407L631.546536,664.730977L633.859583,665.506215L655.407643,665.157848L655.447845,663.023490L655.785588,661.536799L656.461665,660.251278L657.482096,658.690989L658.007113,658.244491L658.482007,658.116920L658.834807,657.802900L659.287257,650.531364L659.976291,646.959383L660.994467,643.510066L662.189840,640.835986L663.750215,643.073381L664.226221,647.744434L665.747058,649.103553L667.956638,649.927857L673.830420,653.436053L680.721432,656.360368L683.474537,658.460380L684.862329,662.248252L685.656421,666.570941L687.357486,670.719447L690.046733,673.741895L697.856469,675.356157L700.724759,677.892854L702.354946,681.707715L702.639899,686.231575L702.522666,690.002276L702.811491,693.709192L704.262067,701.042067L705.930486,705.563476L707.313721,706.998649L709.564632,707.351922L714.741142,706.738673L717.206057,706.446659L717.656778,706.613483L718.594698,707.283230L719.200736,707.381362L719.701057,707.136033L720.586952,706.235676L720.897190,706.029600L721.814590,706.122825L723.633885,706.628202L724.551097,706.687081L726.615281,706.132638L728.753648,704.932981L730.378666,703.208320L730.893973,701.042067L731.381824,697.106995L732.617538,693.895642L734.811419,691.876587L738.113209,691.506141L740.379539,690.068515L742.341947,686.955294L744.725898,680.557123L745.255772,678.030239L745.456662,675.454288L745.040037,673.749254L743.183981,671.399007L742.630676,669.978554L743.082430,667.434497L744.581298,665.025371L749.694217,659.687023L754.515568,656.237704L754.823817,655.742141L755.118821,654.500779L755.453303,654.054281L755.850340,653.936523L756.707002,654.034655L757.639335,653.784420L758.944671,653.725541L759.513945,653.494932L759.993550,652.749133L760.134880,651.836512L760.371685,650.982769L761.611176,650.075054L765.142153,646.429473L766.097821,645.776900L767.236664,645.379468L768.171112,645.477599L768.925842,645.870125L769.636288,646.095827L770.438065,645.722928L771.185314,643.568944L770.132634,641.189259L766.847482,637.175688L762.645401,630.370281L761.462377,629.241771L759.471152,628.814900L758.983460,628.260458L759.643781,627.416529L761.131323,626.145729L762.814265,624.345020L767.944784,615.621150L772.828277,610.193971L778.028074,604.414565L780.233045,600.656140L781.539988,599.625763L782.578612,598.546320L782.893984,596.613136L781.663295,591.044194L781.511336,589.042319L781.756334,586.952126L782.313419,585.004223L785.278501,578.826871L793.492186,565.780350L796.628476,562.046466L797.093890,560.667726L796.857936,559.097630L796.262194,556.767020L795.777906,553.121456L795.742558,549.434187L796.201042,547.128111L799.574001,541.647502L799.950346,540.417200L800.198363,539.606380L800.262179,537.717362L798.874718,530.048439L798.635113,525.728233L799.252321,521.631275L801.146960,518.549970L802.963304,517.693780L806.181652,518.304644L807.941881,518.024971L808.929245,517.222753L809.586098,516.131049L810.112897,514.980467L810.736095,514.011426L813.234773,512.039000L813.953672,511.165638L813.881491,508.535737L813.637811,507.188894L811.635096,501.806431L810.941988,500.432603L813.246198,501.269166L814.439919,501.485053L815.596443,501.362390L816.912967,500.714728L817.874379,499.946857L818.914731,499.333541L820.433416,499.134826L821.524545,499.485643L824.230573,500.881550L825.467926,501.151409L826.752218,500.803046L835.271596,495.710071L836.742447,493.870124L837.944261,490.813359L838.656650,488.129490L839.252163,487.013256L840.197932,486.485805L841.390271,486.539777L842.454380,486.755664L843.490977,486.775290L844.600768,486.240479L846.382826,483.433948L847.281969,479.361537L849.014816,461.467474L848.381006,458.005930L848.443349,454.171493L850.079758,449.650147L853.871697,441.836538L854.375478,440.200220L854.679614,438.446146L854.724397,434.687766L854.025985,431.841997L853.197551,429.921104L850.819764,429.501598L850.419882,429.187582L850.991729,427.462949L851.540229,427.009098L856.420423,424.389030L857.106275,423.854222L858.020667,422.811592L860.406315,419.300997L861.519533,418.302526L867.277388,415.461668L873.835948,414.320909L879.251639,411.882385L881.528407,405.148233L881.885233,398.997957L882.903786,392.597456L883.693516,390.325757L884.464015,388.763044L884.656655,387.242037L883.721505,385.105268L881.269447,382.266874L880.400580,380.745868L880.241955,378.599287L880.862034,376.673498L882.795851,373.187453L883.119200,370.935386L882.773619,369.112634L881.742525,366.010849L881.698152,364.114507L883.150528,360.878705L885.925517,359.674173L892.466147,358.871969L894.011556,358.106564L895.196154,357.313910L895.965665,356.798996L897.727695,355.270639L898.688403,353.852677L899.984810,350.648771L900.153192,349.380456L900.004037,348.278960L899.415112,346.345823L899.428497,345.111854L901.231819,339.214317L903.893071,321.293573L906.898620,309.417566L909.134224,303.949355L923.734411,280.072249L924.174528,278.938121L924.756830,277.437501L924.164727,273.833734L924.513554,271.885885L925.417610,270.254500L926.747838,268.961658L929.896780,266.896055L930.879974,265.421676L932.267812,261.646185L934.221889,257.664624L936.934562,253.722314L940.030294,250.143079L943.202568,247.243384L945.770833,247.233571L949.067121,248.298265L954.943721,251.092472L956.670897,251.377045L958.517696,250.844698L960.280928,249.809443L961.757439,248.585290L964.018102,245.911290L965.029250,245.423101L967.275044,245.118903L967.926397,244.814705L975.261978,237.109167L976.818377,236.122976L981.735012,234.386102L983.470148,233.230639L986.491210,230.149404L988.225720,228.959595L992.512341,227.203095L993.931942,226.339564L994.909701,224.602689L995.751366,222.328560L996.359255,219.973475L996.644353,217.991278L996.579387,215.587127L996.072634,213.678526L995.121529,212.059404L993.740708,210.523691L993.293254,209.890762L992.991698,209.213674L992.639262,208.600370L992.013579,208.178417L990.592310,208.198043L990.254502,208.055756L989.481734,206.907651L989.350548,206.078464L989.727578,205.244371L992.727712,200.710826L993.327418,199.116234L994.985151,189.450552L995.893441,186.452717L996.161734,183.268436L996.135606,182.591347L995.975563,181.556088L994.345431,177.459206L994.157738,175.638915L995.633095,174.539871L995.430415,173.543862L996.777818,166.733709L997.262494,165.629757L997.668204,165.060609L997.866906,164.466928L999.452511,162.631914L999.301114,161.621184L998.884226,160.718397L997.886038,160.129622L997.192597,160.428916L996.047858,161.106007L994.968687,161.537775L994.489219,161.101100L993.920215,159.128705L992.586342,157.906997L990.893815,156.906080L989.240138,155.591149L990.051317,155.085783L990.367982,154.943496L990.358456,154.236966L989.439883,153.800291L986.940732,151.719951L986.337645,151.052672L986.162207,150.174416L986.573804,148.776074L986.293829,147.809500L984.002583,146.455316L978.653667,144.998095L961.521895,144.414226L960.235067,144.110025L959.123107,143.359335L958.346325,141.916834L958.271304,140.807972L958.731871,137.903341L958.733351,136.083039L958.279127,134.517816L958.146723,134.061572L957.936101,126.726387L952.909101,101.451819L947.875954,76.177120L928.413654,46.453244L908.952918,16.729131L888.368493,15.750262L888.279693,15.767116L885.873772,16.223750L885.118316,16.900862L885.184388,18.532309L883.934759,19.525897L880.665370,23.002225L880.101447,23.863334L879.667761,24.817667L879.647321,25.200382L880.077973,25.872586L880.205840,26.409858L879.984198,27.160567L879.453118,27.300405L878.867854,27.253792L878.508991,27.413257L877.753499,28.725770L877.931861,29.186990L879.112105,29.358721L877.620724,31.547060L875.620224,32.368913L873.382624,32.835039L871.171201,33.956194L871.453034,33.193220L871.620411,32.236435L871.429408,31.478368L870.618788,31.301730L870.159850,31.689351L869.562639,33.276632L868.952918,33.956194L868.964665,32.933171L868.934287,32.599523L867.574264,33.112261L866.010689,33.203033L865.068211,32.815413L865.511259,31.892974L865.503151,31.301730L863.210484,31.515167L861.090170,32.388540L853.666697,36.576310L851.377563,37.066968L849.048235,36.487991L848.725086,38.036017L847.969476,38.114522L846.895580,37.540453L845.600470,37.140566L845.609926,37.847114L846.300722,38.065457L846.890572,38.450623L847.422766,39.024693L847.957490,39.787666L846.878905,40.793514L844.604205,43.676126L844.547596,43.945987L844.678181,44.713866L844.621438,44.973914L844.372778,45.027886L843.648885,44.910128L843.434752,44.973914L843.076512,45.194709L841.973058,45.636301L841.745388,45.977307L842.086948,47.096005L842.620815,47.800097L842.660073,48.168090L841.491962,48.276034L841.306842,47.932574L840.825263,47.280001L840.329627,46.865396L840.102459,47.245655L839.991248,47.289814L839.452989,48.862369L837.350092,51.791587L835.998253,52.981428L834.121081,53.459817L833.155784,53.960286L832.608001,56.148610L831.883393,56.644173L830.615574,56.369405L829.781333,55.704567L829.056710,54.870452L828.161075,54.112389L828.077771,55.650595L827.921624,56.212396L827.379559,56.860061L826.809370,57.328637L826.218717,57.544525L825.927854,56.997444L825.502095,57.328637L822.507181,60.532615L822.286050,62.073272L821.224498,63.812643L820.674765,65.223274L822.006393,65.775261L821.508350,67.872807L821.073911,68.886008L820.413628,69.727480L819.788426,69.943367L817.909457,70.326077L817.535336,70.671988L816.884996,75.735532L816.520557,76.859128L815.367093,77.489617L814.004025,77.180506L812.404753,76.554923L810.490722,76.211466L808.194848,76.120904L805.266471,76.005391L803.901790,75.561350L803.117012,76.098616L802.500326,75.620229L801.870645,74.786118L801.038396,74.266026L800.248503,74.388689L799.737996,74.844997L799.374146,75.335650L799.067241,75.561350L798.403225,75.428874L798.252574,75.070697L798.211697,74.545698L797.885583,73.910302L796.932146,73.326424L792.713981,71.672922L791.332943,71.989393L789.603158,73.331331L788.427418,73.557031L785.669282,73.817078L780.758582,72.494767L779.113153,71.584604L775.235608,68.191733L763.562669,60.282381L754.318263,56.099545L729.078581,48.980126L688.559945,49.220548L673.419857,47.245655L665.413140,47.966920L663.163852,48.507729L622.797655,58.211816L619.339784,59.835885L603.656975,69.722573L602.201985,71.314745L601.859171,72.303412L601.564009,74.624203L601.186365,75.576070L600.531599,76.343942L600.196783,76.412634L599.774580,76.343942L598.891972,76.692306L597.303260,77.842887L594.545120,80.808883L580.435453,99.671777L579.866222,100.432492L578.919785,101.357368L578.022505,102.022200L577.448497,102.292057L575.685823,102.439252L557.981002,100.123382L556.476176,100.236232L552.048784,101.637039L548.959609,101.641946L524.660416,98.471190L521.736480,98.089635L499.741103,90.837811L496.669831,88.865392L495.225016,86.924864L492.795394,82.499181L491.152320,80.502225L487.487203,77.445458L485.490861,76.373381L483.241063,75.838569L482.251700,75.828756L480.189486,76.108429L479.237518,76.451886L478.295739,76.984244L477.953871,77.249197L477.635287,77.214851L476.797800,76.854221L476.183386,76.422447L467.802607,67.951312L465.706357,65.174209L464.596364,64.097222L463.500610,63.520331L463.412782,63.474091L460.938050,62.730749L459.719941,62.087991L456.886890,59.619997L454.577290,58.030274L452.607681,55.947442L451.646265,55.130500L449.341853,54.146735L428.218769,50.798008L425.366151,51.112028L422.539426,52.520211L392.437781,72.897103L389.838293,73.836704L386.853177,73.817078L378.160617,72.038459L376.305458,72.435888L371.295130,79.096505L367.382507,82.975114L365.608539,83.953965L365.128550,84.043346L363.632367,84.321954L357.438225,84.356300L354.657020,84.017750L352.111582,82.930955L349.394802,80.686220L346.353754,77.553402L341.381273,71.211707L339.287683,66.975657L332.424082,53.086919L318.728491,36.483084L306.969396,24.118477L301.392003,20.551378L299.894868,20.189404L295.364801,19.094116L293.768332,19.467018L288.982551,22.477219L288.115968,22.737269L287.564023,22.467406L287.036297,21.954666L286.276706,21.478726L262.670136,11.065671L239.069211,0.652582L236.358101,0.000000L224.090692,2.377264L221.786256,3.677521L220.840348,5.088177L219.467922,8.579241L218.324791,10.097840L215.783431,12.131634L214.831869,12.585496L211.972909,13.193916L200.056034,12.605122L191.649892,14.300358L186.817324,13.976521L184.921330,13.036904L183.037054,11.039911L181.123883,10.083120L178.460960,10.402051L161.932653,14.920283L152.038967,17.624587L147.543931,19.609309L143.664157,22.698016L130.642181,36.664628L128.326288,37.947699L125.826469,38.480063L120.444651,38.673872L120.369155,61.403528L120.096852,63.585255L117.554773,83.939246L104.352923,107.281969L98.987382,113.047102L80.830099,128.345526L80.489255,129.346448L81.396643,152.985818L79.191055,165.458031L79.161643,169.579451L81.260105,176.531888L81.658382,179.779955L80.256236,182.934798L78.840443,184.578456L77.923239,185.937541L77.549276,187.492883L78.048989,192.885059L78.319013,193.817283L78.796014,194.823102L79.081303,195.142021L79.435238,195.377530L81.398223,197.722806L82.428967,199.464591L82.848543,201.343756L82.260743,203.394645L81.256490,204.542751L76.983924,207.413014L75.155640,209.571844L69.399778,220.630936L68.421774,224.909341L67.900480,226.354283L66.243963,231.461872L66.396917,233.645231L67.645490,236.226011L82.661370,259.882326L84.684968,262.033792L85.374964,262.163812L86.158897,262.004353L86.257280,262.010263L86.934840,262.050964L87.635383,262.806553L86.793272,266.493729L86.799539,268.549519L87.141515,270.445851L87.767511,272.187630L88.625919,273.809202L88.625994,273.833734L90.367348,282.289951L90.280978,285.086612L88.485359,290.086256L88.386799,291.729907L88.812685,292.863291L89.487608,293.653225L90.222604,294.345030L90.854503,295.159497L91.271449,296.177579L92.065471,299.293158L92.853331,300.345586L93.923708,300.711115L95.105846,300.961342L96.168584,301.648242L96.941616,303.483244L97.363898,306.245562L97.382242,308.545112L97.405478,311.461092L96.783540,314.007527L94.667368,318.747137L93.924469,321.278854L93.852577,326.180377L93.305676,327.936880L92.042889,329.715461L90.741078,329.941157L85.384294,326.796134L83.623734,326.445325L81.986600,327.041456L80.361481,328.859289L79.811927,329.749806L79.580712,330.353297L79.499639,332.222648L79.174981,333.351128L77.080255,336.996608L75.375296,341.292192L75.457734,343.068323L76.654071,345.234515L82.348585,351.823864L83.102433,353.018582L83.348062,354.502781L83.129250,356.203396L83.060820,356.735213L82.307240,358.817998L81.265638,359.693799L80.050865,360.348809L78.760404,361.744693L78.220928,363.280411L77.724697,371.389234L76.884023,373.275770L74.192581,376.909009L72.003703,381.427867L70.531992,382.980766L65.507990,382.365003L62.257024,383.338938L56.257445,386.116001L54.913873,387.242037L54.184845,389.140843L54.000084,391.289879L54.297940,393.156794L55.331899,396.081055L56.003304,398.968518L55.422274,401.456104L52.707495,403.170920L51.231340,403.072791L49.599262,402.729337L48.253874,403.195453L47.629139,405.535845L47.734174,406.176141L48.177132,407.385590L48.083303,407.876239L43.007413,415.383164L42.387261,415.996476L41.041781,416.509204L40.438639,417.014572L38.839425,419.946201L38.517081,422.576081L39.083921,425.225587L40.152198,428.208736L40.440506,429.793535L40.445122,435.958550L39.931322,437.930963L38.221027,441.620652L35.461123,451.360064L34.189291,454.328502L32.137478,455.937836L26.433121,457.608503L25.457385,457.618316L24.618894,457.162011L23.805981,456.536431L22.889721,456.045780L21.982818,455.923117L19.418435,456.016341L18.520773,456.207694L17.632614,456.855354L16.926144,457.694367L16.124362,458.366559L15.002137,458.543193L8.559283,457.947052L8.831585,460.464092L8.661220,466.481930L8.208242,469.082383L7.941573,469.658898L7.003137,471.255969L6.796226,471.452230L6.944431,472.229913L7.298881,472.438440L7.713710,472.605261L8.034434,473.267641L8.002494,474.717517L6.962341,477.421008L6.654035,478.885604L6.759167,479.727072L7.193585,481.186762L7.091438,482.028230L6.643217,482.528695L5.236717,483.257314L4.762951,483.973666L4.738805,484.981956L4.746270,485.085458L6.415168,508.227528L6.614986,510.998816L5.963913,514.205235L5.300623,515.323924L3.636888,517.446000L3.198285,518.633382L3.182411,519.474852L3.392675,521.228939L3.394141,522.109662L2.761347,526.042251L2.660672,527.860123L2.966786,530.122037L3.618222,532.217130L5.266343,536.169348L5.839934,538.190843L5.800166,540.273670L5.146357,542.017946L4.276249,543.602759L3.630812,545.209652L3.408964,546.946569L3.236648,552.623441L2.191997,558.636415L1.881708,564.622404L1.589209,565.466331L0.736483,567.276848L0.547489,568.003017L0.599369,568.428619L0.643783,568.792972L1.319685,569.955825L2.265944,572.678961L4.274951,575.205835L5.020356,576.569857L5.255852,577.933879L4.476188,590.730444L4.286608,593.840931L4.733154,597.565009L6.415505,601.097731L8.892873,604.429285L10.748161,607.908036L10.529555,611.877444L10.332037,612.726279L10.272349,613.261094L10.004656,613.452450L8.197277,613.045205L7.324142,613.035392L6.685064,613.452450L6.479180,614.502454L8.269235,637.857700L8.184724,639.172660L7.909374,640.070562L7.245057,641.051875L6.478175,642.852586L6.115950,643.485533L6.030446,644.143013L6.352172,645.379468L7.071330,646.400034L9.270574,648.436260L9.756116,649.334162L9.429048,650.359635L8.573765,650.874824L7.502076,651.233004L6.525740,651.758007L4.360260,655.172979L4.641891,658.617390L5.779894,662.258065L6.200652,666.237294L5.315573,670.218976L5.093623,672.274830L5.520012,674.146687L6.161332,675.110828L6.871296,675.687350L7.727879,675.976838L8.765822,676.087236L9.259383,676.516561L9.425074,677.480703L9.708052,681.859818L9.242549,682.931904L8.214448,683.699783L6.703067,685.223274L5.745894,687.264408L5.722642,689.209865L6.446045,693.213629L6.275833,695.222870L4.732249,700.324124L4.450409,701.255503L4.160128,703.196297L3.524591,707.445147L3.497430,713.231938L3.499668,713.231756L22.234287,711.261399L35.176415,711.983863L46.208098,710.538935L55.580912,711.041183L60.463446,710.446212L60.875368,708.329045L60.425080,707.873158L60.294726,707.309095L60.069150,706.822301L59.659661,706.323917L59.222349,705.477823L59.561918,704.898306L60.167203,704.376741L60.486176,703.704501L60.736250,702.564785L61.911038,700.524887L62.243034,699.512664L62.207478,698.631799L61.741982,697.237096L61.618253,696.568720L61.930187,695.780577L62.678977,695.571951L63.564267,695.533317L64.238000,695.243559L66.072856,692.967990L67.085858,691.975085L68.521163,691.028541L68.441797,692.369156L67.866487,694.405191L67.957055,695.568088L68.306535,696.796663L68.565853,697.094148L69.104720,697.573215L70.126189,697.511400L71.189377,697.936379L71.387278,698.160459L72.476847,698.094780L73.457173,697.874564L74.416769,697.488220L77.355708,695.711035L78.220396,695.579678L79.745911,695.568088L83.808967,694.065208L88.291493,691.128991L92.993524,689.112273L97.756287,690.379483L98.368847,690.194038L98.879643,690.209491L99.404533,690.468342L100.045787,691.028541L93.081102,692.179848L92.040015,692.647324L91.594375,694.675632L90.412224,696.193966L88.738954,697.318228L86.860818,698.160459L85.736379,697.781841L82.054314,699.110866L80.263861,699.512664L76.872186,699.512664L76.035077,699.844921L75.982061,700.667834L76.174642,701.722555L76.019834,702.754094L74.871472,704.249247L73.578785,705.021936L72.162636,705.307831L70.568977,705.350329L69.486860,705.813942L68.832958,705.779171L68.545598,705.025800L68.055093,704.952394L65.118036,708.004515L64.788700,706.590495L64.615989,705.161020L64.131550,704.651045L62.826165,705.999388L62.328181,705.531911L61.837552,705.385100L61.272514,705.539638L60.490041,705.999388L61.676813,706.996156L62.495904,708.050877L63.525790,708.896971L65.406211,709.244681L101.112337,707.224099L122.502711,709.244681L140.600787,713.019267L145.922700,714.131939L153.252755,717.771304L154.596055,718.435817L157.809377,720.761611L162.957418,726.201342L165.734226,728.183289L172.038499,732.668749L174.618780,735.021588L177.549048,738.471645L179.669421,742.219187L181.199849,744.166364L184.493938,745.773557L186.208056,747.585513L196.407452,762.525457L199.552803,770.283256L200.418299,770.368252L204.632020,765.898245L205.842399,764.901476L212.183113,761.119163L215.491471,759.987174L218.345783,757.093453L220.089004,756.741879L218.176723,760.369655L211.316089,763.205424L208.692491,765.817113L208.619790,766.755930L208.949124,767.717928L209.135103,768.564023L208.700498,769.170584L208.073250,768.992865L206.393581,767.478395L205.432033,767.107504L204.404968,767.841559L203.632389,769.595563L203.133247,771.743638L202.933314,773.652180L203.245088,775.862071L204.018986,777.558124L204.812447,778.875558L205.609082,781.549062L206.656185,783.515556L207.975587,785.366146L209.259680,786.679717L210.386078,787.572173L210.897754,787.838751L213.007994,786.946295L214.960537,785.652041L215.866148,785.381600L217.868970,785.184564L219.311936,784.523915L220.392415,783.306930L221.294129,781.433159L223.566290,774.359191L224.084117,774.359191L224.224735,776.132512L224.037377,777.531079L222.482807,782.704232L222.459478,784.326879L223.144119,785.671358L224.734211,786.679717L226.117711,786.787894L227.636229,786.378369L229.003990,785.624997L229.880796,784.732541L230.916158,781.827230L231.711037,780.884550L233.298547,780.845915L234.758492,781.568380L236.458513,782.924449L237.886666,784.547096L238.510442,786.030659L238.519862,787.073789L238.391842,787.653305L237.963214,787.916020L237.091155,787.970108L236.878825,787.529675L236.403431,785.427961L236.176840,784.732541L235.282451,784.021667L234.007174,783.585098L232.678404,783.558054L231.596298,784.083482L230.944878,785.184564L229.563155,788.580532L228.748748,789.925011L228.176364,789.925011L226.436072,788.812339L223.327468,788.232822L215.129275,787.846478L214.509492,787.970108L213.788565,788.545761L212.429678,790.214769L211.864932,790.566343L211.642227,791.489706L211.824120,793.510287L212.448962,795.542459L214.176162,796.902392L216.826584,799.649300L217.141255,800.163138L217.525304,801.202405L217.921733,801.708516L227.375219,805.286065L232.221183,805.595141L231.687720,804.799271L231.146198,803.485700L230.911519,802.249398L231.353157,801.708516L232.396210,801.886235L232.724403,802.338257L232.862164,802.944818L233.354377,803.590013L235.128228,804.436107L236.490286,804.080671L237.590792,802.666650L238.545968,800.356311L238.008431,797.914614L239.168493,795.812900L241.169092,794.684775L243.105541,795.163842L243.499581,794.688638L244.030048,794.271386L244.253756,793.807773L245.788271,794.329338L246.985737,793.599147L248.100463,792.490338L249.441267,791.864460L248.260965,793.981628L247.282814,795.210203L246.282475,795.751085L243.488455,795.689270L242.221707,795.975165L241.112990,796.786488L240.584288,797.922341L240.417628,799.417494L240.530507,800.974462L240.840421,802.295760L241.641196,803.702053L243.649583,805.680136L244.286329,806.885531L243.754782,806.885531L242.894518,806.232609L241.620029,806.174657L240.244183,806.468279L237.337433,807.750942L236.854516,808.133423L236.399436,808.755437L235.769104,810.177185L235.095910,810.787609L234.377583,809.640166L234.151185,809.014288L233.937801,808.133423L232.351217,808.654988L226.797471,808.778618L224.849540,809.242231L224.389097,810.497850L226.160635,819.039923L226.545744,823.428794L226.390180,826.863394L226.555538,827.632219L227.442716,828.134466L229.452357,827.740395L230.557729,828.281277L231.776490,827.767439L232.362374,827.663126L233.152893,827.632219L233.458658,827.238148L233.379579,825.499599L233.692144,825.101664L234.559042,825.669590L236.855776,828.513083L237.471851,829.641208L235.773726,829.193049L233.987599,828.996013L234.488568,830.452531L235.771866,834.176889L234.706894,833.442835L233.188288,831.086135L232.279804,830.228451L230.990527,829.741658L229.681694,829.633481L228.680856,830.081641L228.274602,831.232946L228.557524,832.731962L229.139115,833.705549L229.733766,834.431876L230.001248,835.150476L230.202592,836.738350L230.655768,838.175550L231.731618,840.659742L232.184854,842.120123L232.938063,846.554173L235.279343,853.902429L237.966047,857.309979L238.687000,859.573952L235.826418,857.634508L236.742544,858.816719L238.858293,862.919687L239.270787,864.441880L240.222515,866.273149L243.895845,868.830742L243.906716,870.592468L243.326399,870.209988L243.067064,870.082495L242.712283,869.951138L243.525935,873.988427L245.879441,877.670279L253.670028,885.891664L254.202722,886.297324L256.444840,888.893551L257.088014,889.901907L258.886122,892.104063L260.053144,892.625626L261.226532,892.950154L262.243646,893.502625L262.894104,894.700289L262.293250,894.313946L261.187503,893.761475L260.607035,893.344224L261.626257,894.808465L265.012949,897.002894L266.387025,898.594628L266.912000,898.594628L266.834552,897.539911L267.085218,896.856084L267.684499,896.562463L268.625552,896.647458L267.772038,899.019605L268.772823,901.329937L270.651833,903.080071L272.351136,903.775489L273.020484,904.281598L274.093371,905.332451L275.384191,906.275128L276.652719,906.429665L277.604749,905.363358L277.341926,903.775489L276.066142,900.534070L277.356802,901.411069L277.787319,901.828319L278.406899,898.594628L278.911420,898.594628L278.819846,900.224996L278.919100,901.828319L279.056237,902.156711L280.151472,903.995704L280.002134,904.273871L279.497955,904.424545L279.628578,907.774139L280.297939,908.276385L282.152717,908.376834L283.422340,908.987256L284.413302,909.968567L285.068089,910.069016L285.288228,908.021398L284.916519,906.537841L284.232042,905.417446L283.779564,904.374320L284.131123,903.126432L283.774621,902.303521L283.403236,900.959047L283.243073,899.560485L283.493016,898.594628L284.508011,898.235329L285.511352,898.698940L286.384654,898.953927L287.298518,899.065966L287.004722,901.631284L286.994682,903.126432L287.389745,902.968031L288.316397,902.720772L288.697756,902.535327L288.469073,903.833440L287.349511,906.089683L287.005564,907.669826L286.955136,909.396780L287.244681,910.733526L287.996967,911.691657L289.348338,912.259581Z "/></g></svg>