<?xml version="1.0" encoding="utf-8"?><!DOCTYPE svg  PUBLIC '-//W3C//DTD SVG 1.1//EN'  'http://www.w3.org/Graphics/SVG/1.1/DTD/svg11.dtd'><svg enable_background="new 0 0 1000 1032" height="1032px" pretty_print="False" style="stroke-linejoin: round; stroke:#000; fill: none;" version="1.1" viewBox="0 0 1000 1032" width="1000px" xmlns="http://www.w3.org/2000/svg" xmlns:xlink="http://www.w3.org/1999/xlink"><defs><style type="text/css"><![CDATA[path { fill-rule: evenodd; }]]></style></defs><metadata><views><view h="1032.1641306" padding="0" w="1000"><proj flip="auto" id="robinson" lon0="-85.571144037"/><bbox h="71.65" w="69.48" x="-1288.96" y="-251.66"/></view></views></metadata><g class="" fill="#000" id="country"><path d="M753.910316,1030.164131L776.941004,1028.257012L798.439964,1017.979763L810.703677,1005.689446L815.598793,986.312187L800.603469,982.309594L790.450724,963.885897L778.910510,934.890646L774.138680,894.017108L776.914533,881.091084L784.479830,863.126496L796.965619,844.855821L804.752882,829.775446L825.808286,811.563620L824.596155,791.833151L817.863678,767.558535L807.481204,768.347284L799.367253,764.756711L792.208216,758.764574L796.173083,750.241374L806.090041,741.741717L806.073487,730.710994L808.871600,710.968694L819.758203,711.416045L823.037359,718.032131L826.591419,719.397728L832.706199,670.400977L837.619622,656.050391L835.160648,643.995419L826.139120,627.196143L819.909415,604.239850L828.472678,592.020025L836.536039,588.288150L849.305987,577.492782L858.015366,553.335616L860.352321,564.413542L855.876281,585.580479L847.764601,601.202554L845.966193,614.517210L851.392975,629.668357L857.820796,630.410021L869.653883,625.971808L870.113572,601.308506L866.776611,581.495428L879.251565,497.675072L875.717002,406.931789L900.081352,306.027742L922.877325,243.902455L938.085129,229.315830L954.111371,206.017198L971.233229,178.645035L977.937173,161.056155L963.843184,62.456295L955.471466,58.535814L948.292225,58.335670L941.493284,44.054737L947.778811,33.129153L957.938500,25.547162L965.684305,28.337430L964.505733,49.658800L969.423213,47.080461L985.750362,18.247720L992.769201,12.455253L999.515111,3.613488L945.576994,0.000000L919.214925,7.486913L906.327804,24.228554L895.935772,31.739907L888.063853,30.021009L871.112114,36.602266L845.102764,51.495425L822.406014,57.134801L803.030127,53.520421L796.943209,57.181894L794.917405,62.067779L791.475830,66.800608L783.552071,69.355393L774.910053,68.001475L765.550949,62.738852L760.107926,64.987535L758.584657,74.723969L752.994272,77.325842L743.350099,72.746073L731.643887,76.266256L717.870302,87.851058L699.889917,90.335195L677.698203,83.659811L661.255379,71.050733L650.572664,52.484377L636.003014,47.810402L608.324180,61.632170L595.715040,77.761450L592.364203,87.603822L594.039779,96.539646L588.634502,102.496854L576.125345,105.475456L565.761408,116.436229L557.552685,135.367359L554.861075,149.989500L557.683271,160.279135L550.864799,167.872734L534.395582,172.734988L513.924770,189.075902L489.493415,216.848305L465.980370,236.250072L443.383625,247.257727L431.840103,259.489744L431.323469,272.934345L429.626080,277.125476L425.364035,278.726582L418.162275,280.563144L379.270809,251.331144L369.238931,230.964038L358.625664,234.083858L344.575162,244.361597L324.053534,267.295150L301.410240,298.493149L291.540716,301.966127L242.698597,297.339414L216.386235,300.082478L210.646914,304.261823L207.135915,315.693202L207.223872,330.997805L209.406063,385.976427L211.377719,408.603507L206.825720,415.596465L193.448518,416.703094L175.964489,419.905255L165.607140,430.253406L162.428308,440.907635L160.200842,455.823538L153.419548,471.210323L141.797176,482.276551L130.917596,486.220364L71.882429,489.163507L70.991740,496.227047L59.584523,503.290582L52.255677,503.172857L38.018022,487.974477L29.597222,474.589055L20.849268,473.717884L1.226148,492.436281L0.484889,507.410976L41.308538,542.610856L93.727343,602.697657L105.625804,620.591797L159.980737,665.527194L178.398733,687.494523L196.250160,729.710341L231.224634,788.360304L331.429765,886.471041L357.209849,918.444699L372.964814,945.003078L372.701045,951.383681L377.446026,950.383033L381.863096,946.698294L384.698670,942.860514L393.455883,929.451829L400.829416,921.882220L408.794496,920.681442L418.024919,926.261527L453.084490,940.694405L492.075994,956.728320L547.636437,979.543097L572.330197,964.933634L593.478387,953.773465L607.557238,955.362729L637.374475,968.371154L655.582043,972.515015L667.017715,971.208286L685.354520,990.291235L695.098977,1004.618164L696.234260,1014.165527L701.867559,1019.310037L717.081013,1020.440181L753.910316,1030.164131Z "/></g></svg>