<?xml version="1.0" encoding="utf-8"?><!DOCTYPE svg  PUBLIC '-//W3C//DTD SVG 1.1//EN'  'http://www.w3.org/Graphics/SVG/1.1/DTD/svg11.dtd'><svg enable_background="new 0 0 1000 965" height="965px" pretty_print="False" style="stroke-linejoin: round; stroke:#000; fill: none;" version="1.1" viewBox="0 0 1000 965" width="1000px" xmlns="http://www.w3.org/2000/svg" xmlns:xlink="http://www.w3.org/1999/xlink"><defs><style type="text/css"><![CDATA[path { fill-rule: evenodd; }]]></style></defs><metadata><views><view h="965.051738059" padding="0" w="1000"><proj flip="auto" id="robinson" lon0="-85.5789128294"/><bbox h="72.4" w="75.1" x="-1289.2" y="-252.05"/></view></views></metadata><g class="" fill="black" id="country"><path d="M757.876519,702.032639L757.339575,693.882329L757.943990,690.288205L759.268759,686.231201L760.897144,682.591695L762.360134,680.304524L762.509834,679.587514L762.470339,679.160938L762.253030,678.979417L761.954435,678.924961L757.688724,682.038054L755.772953,689.072011L755.616941,697.095258L756.645204,703.158071L757.757074,705.018665L757.876519,702.032639Z M898.902835,637.011597L899.779621,635.541270L897.703501,633.526376L894.859063,635.105617L892.696872,639.017414L892.715583,644.000189L898.902835,637.011597Z M997.565517,147.535935L999.481356,141.327552L999.180213,137.678762L997.635756,135.854366L995.047879,135.836213L991.705025,137.597073L990.077455,139.702842L989.138290,142.262441L987.624548,144.767578L984.303933,146.719043L984.300962,147.599472L984.019623,148.144066L983.603435,148.262062L983.477179,148.252985L982.714548,148.252985L983.548128,148.343751L993.821816,149.342175L997.565517,147.535935Z M700.885652,963.051738L702.833096,962.631018L705.704693,960.498603L707.049383,960.002961L712.327952,961.201724L713.090198,960.706081L717.451897,955.438440L730.832077,949.894161L731.858897,949.623605L744.961942,946.171081L752.110483,942.188653L753.083530,936.131443L751.819346,928.195404L752.283672,918.616830L752.447754,917.539096L752.291702,916.403730L753.791493,915.268364L754.927254,915.545001L756.170182,915.510421L757.555187,915.664531L754.469528,913.776716L750.371674,912.823733L747.493509,913.286610L748.073863,915.664531L744.579800,916.390614L743.347474,911.634772L742.227331,907.350885L738.831753,904.873128L737.301847,903.103301L733.194582,894.717047L731.679158,889.144363L726.494945,878.979207L723.066281,867.352809L719.108209,838.100752L720.682055,815.519573L721.982272,811.698561L724.020256,808.267818L730.872291,799.382375L732.091741,799.382375L736.200251,800.108459L739.411071,792.230455L742.059114,781.793006L744.551169,774.877060L746.242014,773.207067L747.938824,772.335767L749.875125,772.009029L752.253922,771.954573L754.083664,771.228489L756.270331,767.997417L757.869677,767.262257L758.131668,766.726770L760.913623,765.728405L763.732982,765.093082L764.068722,765.737481L765.749261,764.103792L766.597244,762.742385L766.971613,760.990708L767.284567,758.113600L767.379119,750.262816L761.313943,709.565773L759.570308,707.732408L756.294361,707.859473L754.492605,708.730776L753.247354,711.008868L751.594796,715.338150L751.745549,717.062602L752.449751,718.523848L752.159890,719.531290L749.248748,719.894333L747.293020,719.622051L745.438086,718.850586L744.098854,717.679774L742.736247,713.395872L740.332109,709.946968L737.431458,706.752193L735.011207,704.809915L735.983641,702.885789L737.776949,700.852750L739.809273,699.246286L741.547170,698.592809L742.725756,697.748735L746.744823,692.493690L747.532746,691.867441L748.582452,691.468094L749.730921,690.814617L750.853642,689.444130L751.205275,687.946578L750.863684,686.557939L750.290905,685.278213L750.056628,684.052943L750.570160,682.419250L752.633095,678.307787L753.183710,676.292898L753.262875,673.352249L753.025876,670.593121L752.410411,668.206112L751.387744,666.463504L746.750856,664.276168L744.485568,662.642473L745.593665,661.898234L753.461999,664.639212L756.985104,664.503070L758.416153,660.246387L759.015263,656.670410L762.348292,651.823779L763.353219,648.057202L763.013667,645.107473L761.838564,642.774917L758.837518,638.917577L757.372054,638.917577L754.606387,641.948992L751.642593,639.888719L751.610757,636.575945L757.606690,635.868009L761.128120,637.819370L764.288036,641.576873L766.526540,645.933397L767.240427,649.718127L765.294841,654.855192L762.276491,657.042529L760.429163,659.438616L762.054086,665.093016L766.420017,671.909152L767.517683,675.721105L766.375004,680.304524L767.879342,679.687351L769.286112,678.779743L768.166536,673.987574L768.906413,645.434212L775.286144,618.968310L786.024323,598.456300L785.336835,596.759066L781.523832,596.132814L779.703575,597.312709L778.284214,600.189838L774.286547,611.634815L773.220706,613.667864L772.923184,612.270143L773.343816,609.728833L774.687241,605.363223L775.092332,603.130499L774.317119,599.699728L768.070677,601.170058L764.594945,599.182389L763.447439,595.125365L764.434304,590.868665L766.158381,586.357832L767.313920,581.592867L766.763585,571.627276L765.360460,569.539766L764.082729,569.085959L762.501969,569.140416L760.189894,568.577695L758.558400,568.468782L757.739266,568.958893L757.520569,568.704762L758.444456,557.087304L760.135967,554.146634L763.798979,552.839670L772.334197,551.832217L778.854037,548.846165L790.048717,539.080227L796.506853,535.086718L794.767969,531.565169L794.080534,530.512334L795.147813,528.824169L795.701980,527.281221L796.101317,523.514613L795.984299,521.218343L795.306487,520.347031L794.450426,519.711699L793.737991,518.186903L793.577815,516.625802L793.550260,512.841038L793.635255,512.087716L793.226345,511.633907L789.137542,509.056273L787.929760,505.117212L788.188179,500.579122L790.259689,496.458534L794.518005,493.826440L799.551807,493.390783L804.672284,494.815745L808.171078,498.364533L808.336555,504.345737L807.606913,505.879611L806.608071,507.005057L805.751661,507.749304L805.363109,508.221265L804.035281,520.682849L803.124093,523.687060L801.265991,525.801806L801.132135,527.462744L803.165204,534.251712L800.720829,544.289938L795.339787,551.260420L788.611394,548.782632L787.401315,548.782632L786.938749,549.590409L786.809911,549.708399L786.576866,549.735628L785.825584,550.171283L786.288802,555.744036L784.787846,570.338465L788.740694,574.622400L789.748667,577.690132L790.213114,581.193517L789.840226,583.807441L788.555581,585.259621L784.267632,588.454416L782.669183,590.051814L786.385868,592.411605L791.020472,591.594754L796.063927,589.625236L800.943528,588.527025L807.263272,588.254742L811.343205,586.793486L813.683186,583.153960L814.721003,576.337788L813.854100,570.774120L809.068980,562.224400L807.737909,555.126858L805.414267,548.719099L804.932460,546.577128L805.974927,533.561924L817.343164,474.721049L815.462366,445.758846L812.650373,401.584747L811.784984,398.852790L813.359760,397.455044L812.238608,394.369111L812.323513,388.995954L816.940660,360.278554L821.702312,345.547690L826.766058,334.447335L827.179043,330.181455L828.457207,324.853640L829.132974,313.916632L836.014940,288.475549L846.056580,260.329607L852.626859,239.626250L855.983502,232.519384L860.473272,226.338312L870.433750,219.095285L872.057906,216.372341L873.397857,212.678212L881.268030,203.220505L900.185016,174.139333L906.805729,160.061603L908.458397,152.428210L908.264969,143.669311L901.695312,113.090218L901.093077,102.443320L899.666018,98.277137L899.365377,97.024558L895.517606,57.949417L893.959630,56.016075L892.392105,57.595424L892.022492,62.687462L890.711537,59.683070L888.877458,57.486504L886.694369,56.751289L884.362043,58.112797L885.932035,58.866165L889.289729,61.316879L890.577399,62.687462L887.181812,66.817365L884.332288,65.746313L881.814188,62.741922L879.408939,61.026424L878.298215,58.984162L877.074463,49.825746L874.632149,47.447642L873.885820,48.418853L871.762262,50.642652L874.330794,45.341838L884.182696,33.006533L888.417448,29.030910L890.878346,27.424322L894.167020,26.117267L896.888639,26.852485L897.654360,31.318255L897.743448,35.811252L899.271594,41.584066L899.009095,45.795675L897.724898,43.671718L895.850285,42.872964L893.596132,43.190650L891.141710,44.416011L891.006314,45.795675L892.634556,47.002881L893.278672,46.830423L894.896555,45.795675L894.735600,47.275184L894.461233,48.373469L893.979658,49.399140L893.198909,50.642652L893.362476,48.972533L891.498617,51.141872L890.854786,52.203850L890.247874,53.538129L897.255161,50.570038L899.799873,48.582234L901.668750,45.795675L902.360557,43.599104L903.186752,38.824734L903.900263,36.655390L905.056887,35.066958L907.808113,32.362083L908.427001,31.318255L909.421156,28.241231L911.557285,24.456217L914.255579,21.252114L916.881069,19.908750L918.576552,17.376326L920.918786,12.647318L923.527869,10.033199L926.018592,13.809147L927.996696,11.712407L931.751508,9.869817L933.407767,7.574205L930.784133,8.045381L924.243934,7.618862L921.470496,8.189475L916.058652,10.811990L907.434940,10.656369L906.613012,10.811990L904.341595,9.780276L903.020816,8.667868L903.289059,7.492059L905.738244,6.230651L897.240155,5.221989L893.863718,5.469832L890.700976,7.618862L889.982603,4.662902L888.086142,3.262302L885.690553,2.167184L883.472765,0.000000L881.216498,3.867500L877.805813,7.590043L873.592827,10.212558L868.956462,10.811990L867.271241,9.716874L865.300932,5.671564L864.377659,4.570682L861.860598,4.086524L859.870164,4.334366L859.097586,5.458304L860.197297,7.618862L859.021259,9.100151L858.566898,10.471928L858.113831,13.855259L856.394851,11.884051L855.210775,12.840836L854.700450,15.434530L854.997659,18.425922L853.957840,17.832255L851.152397,16.898526L851.518222,17.578650L851.885403,19.157920L852.190582,19.941791L849.290730,20.869756L844.003988,25.175280L839.028038,27.163775L837.830889,29.578785L837.120185,32.581697L836.008674,35.307947L834.556833,35.307947L833.130365,32.962104L829.658135,31.780536L825.353034,31.526932L821.427764,32.120597L817.597453,34.045688L816.595988,36.524096L817.813481,42.927607L816.366615,42.927607L815.818339,41.025575L814.471125,40.016921L812.490420,39.705680L810.008159,39.878592L810.064300,43.342596L805.837564,45.100534L794.885376,45.838292L796.019297,48.449261L796.874871,49.538605L798.279971,50.679823L794.676874,50.714405L790.668696,52.097699L786.983376,54.247567L784.374582,56.627983L783.402264,55.031433L782.776082,54.478116L782.033571,54.236040L780.680410,53.590503L781.437456,55.682734L781.586487,56.627983L779.163953,55.884464L776.390741,52.149572L774.181205,50.679823L772.715127,55.786480L772.472351,57.844128L773.295494,59.676990L753.893104,60.818205L750.584470,60.368636L750.380969,58.645285L749.437802,58.034331L746.133582,58.155369L744.111658,57.849892L743.453361,57.060262L743.050882,56.028557L738.895018,52.875801L737.456848,52.991076L735.123448,54.973796L736.870762,60.213015L738.020613,62.259133L739.548471,64.103521L739.384231,65.774997L737.955251,66.720245L737.138541,66.616498L736.272969,66.086237L734.664882,65.774997L732.843133,66.201511L731.753647,67.129468L730.861803,68.201518L729.633599,68.950800L724.722767,70.489709L721.829442,70.737548L719.571031,69.653972L715.494778,64.138103L714.131319,62.725994L712.480719,61.619361L709.886148,60.576129L707.411424,60.772096L706.071681,63.417640L706.051079,73.884529L704.571392,78.795200L700.338055,81.141024L698.191744,80.968113L693.568060,79.780792L690.627977,79.475316L689.251211,78.293759L688.423569,72.495477L686.734014,70.345616L683.743326,74.558882L680.483103,80.190014L676.405786,85.112207L668.851323,87.953705L663.492090,91.089149L661.260048,91.792318L658.366507,90.800965L656.514072,88.858603L654.575092,87.596356L651.515757,88.610765L652.528536,84.241890L653.424622,82.662639L639.220776,82.190016L634.926717,81.141024L627.724012,77.521423L624.031862,77.071855L620.189963,79.475316L617.997871,71.838416L616.329239,68.109299L612.638078,65.106407L613.128789,62.138096L612.856277,59.446441L609.027838,58.904652L609.177211,58.466609L610.921873,56.282160L611.589323,55.653915L609.246003,50.374345L605.314722,46.823889L600.417259,45.129353L595.255295,45.377193L583.353863,47.734559L579.945874,49.803736L570.044339,59.411859L566.275165,62.178441L563.008664,64.456266L562.580532,64.754820L559.636333,67.544455L557.556030,71.031497L555.715787,79.285114L554.948946,80.616528L553.888665,81.141024L550.731215,82.068978L551.570739,84.241890L556.667126,88.610765L551.926344,93.129493L550.597776,94.847069L555.661425,94.841305L555.309845,95.568782L553.845470,98.599223L546.138287,106.339834L541.801086,108.506973L538.756428,105.757704L536.013324,101.942154L532.556805,100.933511L530.697343,104.109294L529.244547,110.299472L527.752178,121.573188L526.915477,123.019865L521.889088,128.345476L521.519536,129.763333L521.643410,133.169646L521.284768,134.581738L515.506040,139.152303L518.426506,141.451993L521.571386,144.985100L523.650105,149.434621L523.358415,154.518137L520.740077,158.201090L516.465413,160.904226L511.409787,162.702474L506.485719,163.653470L499.094886,163.653470L497.020459,164.137614L492.133573,166.702421L490.252597,167.221146L489.063966,168.466085L488.128071,169.970387L486.568384,171.826269L485.857673,173.457368L485.238434,174.183582L484.402405,174.379545L482.343833,174.010674L481.479729,174.183582L479.405919,176.195080L476.849227,179.463041L474.639252,182.961545L472.679180,188.667502L470.667238,192.909503L468.104958,197.214901L465.548420,200.344526L460.075327,204.759427L456.542061,206.909240L449.315586,209.053290L447.911717,212.010002L447.143144,215.566124L445.034330,218.620814L441.260133,219.957960L437.974544,220.603468L436.272984,220.937766L431.845792,222.511219L429.707378,225.617777L427.600103,227.802166L420.533579,230.130642L420.950028,232.476409L420.334014,232.695424L419.800119,232.683897L419.473054,232.943257L419.465844,233.992223L418.259624,233.992223L416.645855,233.438922L412.321900,237.260156L409.712104,238.562718L406.269513,238.297595L404.294078,237.778875L403.231139,239.000748L402.543167,243.888234L399.985842,250.596996L398.774026,254.896594L399.330879,256.838905L402.164503,257.853287L403.035423,260.441112L402.302317,263.893466L400.354428,267.495670L398.879716,268.868250L398.416224,269.299653L398.293916,269.243200L397.941722,269.080639L395.642574,265.824247L391.698953,265.455382L387.120802,265.616760L382.948821,263.951101L380.224446,259.737961L378.740976,255.161717L376.808848,251.294384L372.714351,249.190693L370.032159,249.375126L368.179263,250.193548L366.342675,250.620050L363.723792,249.582613L362.538233,248.222418L358.889704,241.997792L346.136003,230.851087L346.137339,224.937678L348.699059,220.142395L348.983039,217.669826L333.801623,220.142395L330.970399,221.692793L328.571242,223.906000L327.369688,225.836793L326.399960,227.986600L324.729393,230.828033L322.198266,233.485030L319.707350,234.856756L317.312771,235.848086L315.121298,237.363900L307.280856,249.075422L293.052420,264.389129L289.457788,269.829897L287.310628,276.440655L285.868570,279.806548L283.332269,282.671015L280.268050,284.255981L276.593311,285.235777L266.440158,285.956216L265.097304,285.737203L263.310783,285.074399L262.234826,284.152237L259.482000,280.619204L256.583090,281.068758L253.815099,282.613379L250.884677,283.621994L247.522279,282.532690L241.417128,278.573156L233.656451,279.080345L217.410511,282.463528L208.999106,281.276244L204.873641,281.668163L200.210822,284.152237L197.798452,285.887054L196.785178,286.797689L196.326020,288.157877L195.584233,291.264407L195.043307,295.133470L193.384761,307.021817L193.572629,309.044804L194.234313,310.197502L194.970491,310.871503L196.544722,312.312704L197.159993,313.753576L196.964787,317.321176L195.100881,324.462133L194.855833,328.260267L198.746200,355.020057L198.110469,358.495423L195.072703,364.656558L194.484166,367.843748L195.032608,370.068440L196.133456,370.748527L197.435415,371.100098L198.584801,372.368057L199.745376,375.209437L200.038753,376.563846L200.631906,382.949743L199.902934,386.378991L198.127280,389.312581L195.205429,392.073268L193.694914,393.150631L192.207548,394.211502L190.310805,394.753265L188.539374,394.107760L177.834249,387.917829L174.498351,387.600840L171.266906,388.609442L168.504598,390.592064L158.311079,399.594549L156.541270,401.784653L154.882693,404.775873L152.914088,411.058008L152.528382,411.651641L152.777932,412.948411L153.937777,416.533260L154.242287,417.092312L151.526442,428.826631L151.898649,430.232904L152.952713,430.774665L153.650194,431.581543L152.934110,433.765876L151.843813,434.912795L148.824265,436.515022L147.627853,437.489039L142.355371,445.477121L139.899544,448.157104L134.591953,451.678543L130.321090,453.908979L128.945284,457.545684L126.651032,457.372782L122.420814,454.289363L119.555474,453.943559L74.420329,457.149013L74.419669,457.149505L73.054280,458.120661L63.143740,463.393942L60.861604,466.960893L62.883847,468.975811L67.938742,469.602069L78.149930,469.311631L78.006667,470.972576L57.761907,472.352160L49.611024,470.346318L43.828736,463.230570L43.712784,461.814681L44.410903,458.447405L44.369979,456.995210L43.779872,456.368951L41.420150,454.680774L40.624748,453.945600L37.545797,448.645086L36.373420,447.855454L31.823187,443.108587L30.957389,442.455098L30.110671,441.402256L27.941608,440.639852L25.326216,440.249574L23.130160,440.249574L23.913120,438.942596L24.882845,434.150344L23.665504,434.150344L21.952683,442.700157L17.372765,447.664854L11.388689,451.585783L5.402565,456.995210L1.053551,464.728145L0.518644,471.263015L2.921387,476.790423L7.289917,481.500971L28.915769,496.866963L32.859906,501.568426L35.539412,504.028071L37.502173,504.345737L37.620159,501.840711L35.139000,499.018018L30.275552,495.206021L30.394398,493.817364L34.218718,494.979116L38.423760,497.647515L41.442588,500.697112L41.751344,502.957081L41.633050,504.345737L43.258462,505.634554L44.158041,506.006678L44.039920,507.395333L41.799751,506.033906L41.040425,505.416726L40.295887,504.345737L42.322647,510.181719L61.500943,537.982012L62.190060,536.883798L63.887929,534.769053L64.538535,533.561924L65.272156,537.437443L65.961895,539.751862L67.428643,541.630626L78.772983,552.222492L81.106775,553.357010L84.531233,557.368665L89.044705,564.584196L91.979319,567.706387L90.665039,559.438025L91.883142,559.438025L95.519987,568.795523L97.072178,570.247704L99.705145,571.146241L102.027003,573.406198L106.400165,579.387368L102.208439,578.461603L97.901549,576.419474L94.298373,573.569569L92.326901,570.247704L92.404496,575.393871L105.357934,582.191891L110.748670,589.389257L121.197529,596.495859L123.425360,599.944783L161.279220,627.345553L165.784380,632.056048L167.450122,635.432356L172.659109,656.398127L178.923232,670.720186L182.984847,677.136973L187.476580,681.330121L189.529192,683.916802L190.243315,687.020819L190.622211,690.342662L193.408472,697.349388L196.082578,702.223236L200.794036,708.068223L202.670996,709.248111L204.635846,711.253922L208.864843,724.468667L212.230221,729.750933L234.158154,749.818090L235.828217,756.842953L238.176866,760.264624L241.048275,762.778689L258.419134,771.645987L265.120492,779.578451L270.967597,782.618926L272.332479,789.262589L272.964085,791.068722L275.583027,793.918599L283.717233,799.373299L289.821398,807.314834L294.820230,810.346231L300.743071,819.295205L303.547594,822.489969L310.198656,824.640990L310.775814,825.584898L313.600559,827.962820L314.490371,828.443850L316.111604,829.832483L335.122065,856.134832L338.268324,862.097785L339.538333,870.139151L340.803902,874.105377L343.443015,875.793519L347.199219,876.456070L356.651060,881.030390L356.780607,881.102511L362.123961,872.458714L366.323242,863.715817L372.434867,855.376349L379.188620,852.316046L384.566276,855.560774L389.696713,861.151157L395.746499,865.145110L414.993732,873.392365L440.685046,884.377178L447.511772,887.299707L474.843723,898.998621L505.573451,912.104322L510.041113,912.669124L514.761547,910.813347L536.020261,895.823054L551.266811,885.080299L557.517410,883.437764L560.871524,885.149458L567.911702,891.166323L571.290964,891.719598L575.531962,891.454487L579.941218,893.073969L589.379077,897.909362L590.414235,898.243632L591.395482,898.698931L592.307637,899.275259L593.081013,899.955326L597.108483,906.179669L598.675645,907.764572L600.355945,908.882648L602.383925,909.804773L604.514255,910.046831L606.432610,909.170812L617.504101,901.459542L619.246831,900.341466L621.032530,901.396146L621.372969,903.073261L621.177736,905.326704L621.393484,908.087315L622.143721,909.701034L624.499870,913.378007L624.939626,914.945620L626.862330,917.118377L635.699396,921.043171L637.672771,922.628074L639.276387,924.812357L642.867953,926.956298L646.038872,930.154919L646.406313,935.503245L643.579103,937.099674L642.726832,937.722109L641.739533,939.445330L642.019433,940.701726L642.755483,941.652667L643.149107,942.424947L647.202087,946.315163L648.133365,947.830906L650.446606,946.038525L653.495701,946.107685L654.872455,946.335479L656.560956,946.614853L658.945640,946.171081L662.318503,950.170799L664.507645,951.133267L666.889880,949.214094L668.236987,949.214094L670.437279,951.824861L675.534144,948.315022L678.821403,949.214094L681.320896,946.603327L683.992612,946.107685L686.044560,947.755984L686.686307,951.559750L697.808364,962.031637L699.083468,962.734757L700.885652,963.051738Z "/></g></svg>