<?xml version="1.0" encoding="utf-8"?><!DOCTYPE svg  PUBLIC '-//W3C//DTD SVG 1.1//EN'  'http://www.w3.org/Graphics/SVG/1.1/DTD/svg11.dtd'><svg enable_background="new 0 0 1000 630" height="630px" pretty_print="False" style="stroke-linejoin: round; stroke:#000; fill: none;" version="1.1" viewBox="0 0 1000 630" width="1000px" xmlns="http://www.w3.org/2000/svg" xmlns:xlink="http://www.w3.org/1999/xlink"><defs><style type="text/css"><![CDATA[path { fill-rule: evenodd; }]]></style></defs><metadata><views><view h="630.758917339" padding="0" w="1000"><proj flip="auto" id="robinson" lon0="5.51315586016"/><bbox h="690.88" w="1097.06" x="-1006.63" y="-892.47"/></view></views></metadata><g class="" fill="black" id="country"><path d="M2.911081,628.758917L2.985872,628.686266L3.069455,628.515505L3.139250,628.321148L3.171140,628.175846L3.146556,628.027439L3.036959,627.633756L3.038768,627.499631L3.134015,627.405247L3.379149,627.389102L3.500787,627.290992L3.542266,626.992936L3.495267,626.194393L3.629794,626.030462L3.788363,625.969609L3.740986,625.830516L3.609865,625.688939L3.522477,625.614425L3.404997,625.567854L2.980966,625.500791L2.174515,625.053706L1.950279,624.989748L1.841610,624.899089L1.586317,624.483673L1.391271,624.363829L1.206192,624.361345L1.071962,624.450141L0.976397,624.599170L0.907626,624.781108L1.001336,624.875493L0.793955,625.172929L0.867150,625.428140L1.107874,625.619393L1.396918,625.718745L2.039275,625.831758L2.279437,625.998173L2.462612,626.343421L2.510630,626.655139L2.483064,626.964993L2.393857,627.442504L2.401599,627.720689L2.448413,627.993286L2.687324,628.667017L2.756168,628.734700L2.911081,628.758917Z M79.907230,545.579419L79.975736,545.380870L79.725430,545.174360L79.572933,545.094682L79.504151,544.887950L79.337413,544.766807L79.324839,545.277880L79.473077,545.650398L79.766192,545.698510L79.907230,545.579419Z M76.373659,543.353445L76.465364,543.185780L76.395511,542.985823L76.293574,542.915653L76.145132,543.015631L76.090694,543.268992L76.250400,543.407471L76.373659,543.353445Z M960.176837,32.142948L959.799672,31.881180L958.664862,31.624819L957.923677,31.247795L957.743077,31.264524L957.573869,31.376849L955.713412,31.857276L955.712921,31.857380L955.824298,32.423041L955.783547,32.787453L955.781876,33.129899L955.953265,33.498975L956.239717,33.744677L956.323114,33.775123L956.593424,33.873804L956.964448,33.908365L957.511961,33.840002L957.542676,33.701003L957.508914,33.514924L957.527009,33.345186L957.651878,33.241148L957.821309,33.207355L958.006829,33.198622L958.466358,33.116231L958.752403,33.102942L959.049125,33.141290L960.474619,33.516063L960.696428,33.630747L960.760593,33.823291L960.745018,33.986605L960.767578,34.140055L960.943794,34.303390L961.088763,34.353912L962.461031,34.340237L962.719630,34.273761L963.240575,33.943687L964.663752,33.367969L965.230113,33.008405L965.674337,32.513000L965.735405,32.366866L965.813173,32.024907L965.817792,31.963458L965.560753,31.845324L965.334004,31.825006L965.261804,31.879388L965.068669,32.116651L964.667326,32.090353L964.592266,32.066447L964.474487,31.991143L964.193766,31.961262L964.063766,31.926002L963.958871,31.836360L963.823341,31.607490L963.744807,31.515470L963.575996,31.431818L963.303556,31.349365L963.053576,31.339805L962.946346,31.470059L962.890957,31.762856L962.738785,31.908073L961.616236,32.294762L961.336911,32.327039L960.893382,32.226624L960.425706,32.226624L960.176837,32.142948Z M963.314206,27.066786L962.872666,26.648122L962.681928,26.533627L962.425157,26.488905L961.317114,26.464456L961.163320,26.398865L960.974050,26.385151L960.926416,26.398865L959.955873,26.509775L959.540345,26.725050L959.518752,27.199199L959.676878,27.376358L959.915125,27.431834L960.432874,27.408569L960.499475,27.358462L960.778421,27.090048L960.932854,27.098994L961.031137,27.161622L961.105339,27.240356L961.183802,27.299408L961.640423,27.442571L961.825510,27.555915L961.903228,27.744434L962.018814,27.942514L962.271379,28.082134L962.704339,28.208634L962.909667,28.216988L963.794653,28.079747L963.998260,28.017096L964.185789,27.912682L964.301681,27.764718L964.272427,27.528473L964.050286,27.405587L963.565226,27.299408L963.447703,27.222462L963.372467,27.143728L963.314206,27.066786Z M972.839137,6.492893L973.033811,6.379294L973.029609,6.150336L972.904556,5.892411L972.736611,5.690703L972.798662,5.621499L972.804921,5.552296L972.776618,5.477772L972.727539,5.392605L972.368234,5.377819L972.092711,5.737431L971.836091,6.173408L971.307202,6.530169L971.033846,6.882836L970.820342,7.313081L970.760727,7.693672L970.990300,8.063070L971.396263,8.190358L971.779152,8.103328L972.024631,7.718534L972.553310,7.377594L972.860155,7.000599L973.002127,6.773954L973.076323,6.583421L972.841891,6.583421L972.839137,6.492893Z M973.280804,4.821934L973.521084,4.537531L974.401312,3.865372L974.730792,3.768434L974.871847,3.705781L975.176502,3.705781L975.173333,3.606484L974.596514,3.546199L973.831791,3.891971L973.102988,4.418694L972.634336,4.895848L972.994987,5.018255L973.280804,4.821934Z M978.802585,2.200768L979.275791,2.170641L979.423134,2.110388L979.399095,2.058996L979.368530,1.952672L979.344555,1.903056L980.008219,1.882382L980.328118,1.796147L980.583667,1.516196L978.901866,1.764843L978.751788,1.853440L978.569132,1.966849L977.045942,2.206085L976.785909,2.200768L976.588224,2.341957L975.982826,2.505603L975.862824,2.755522L976.009207,2.975329L976.334359,2.981238L977.897751,2.450659L978.300698,2.371495L978.802585,2.200768Z M995.205354,1.796738L995.003876,1.642584L994.764676,1.559900L993.631314,1.414027L990.955940,1.732358L989.274007,2.110388L988.990423,2.284063L988.893954,2.308874L988.783222,2.278155L988.577351,2.141105L988.457355,2.110388L987.456039,2.134607L986.217343,2.164734L985.118236,2.206085L984.364639,2.506194L984.103493,2.522736L983.700525,2.747250L981.893611,3.309799L981.504542,3.572795L980.960899,3.643129L980.731820,3.705781L980.531263,3.867736L980.359790,4.065760L980.173234,4.231876L979.758059,4.370806L979.516607,4.537531L979.127350,4.895848L978.910019,5.339968L978.631020,6.332554L978.408629,6.691704L978.179925,6.808275L977.655513,6.902956L977.447865,7.039657L977.284446,7.192345L975.032030,8.777147L974.587860,8.929935L974.132867,8.976129L973.897415,9.043643L973.421060,9.368213L973.164570,9.481940L972.715248,9.505634L972.242440,9.398421L971.967135,9.132482L972.125272,8.687729L972.036358,8.579365L971.925241,8.663450L971.218681,8.579365L971.090149,8.706086L971.013226,9.005740L970.977697,9.352220L970.973463,9.622329L970.876482,10.100418L970.420626,11.069303L970.323657,11.525129L970.298242,11.745068L970.115438,12.466670L969.708831,15.296901L969.494019,15.670936L969.497017,15.778408L969.408484,16.191708L968.757256,17.781399L967.637029,19.430946L966.271861,21.046459L964.665645,22.616568L964.276520,22.817217L963.832209,22.874973L963.293185,22.780896L963.216716,22.878546L963.154629,22.989300L963.289120,23.235238L963.522641,23.809982L963.565639,24.035151L963.541410,24.081617L963.489283,24.139403L963.437697,24.219828L963.415097,24.334216L963.443587,24.425373L963.511717,24.485550L963.590877,24.535599L963.892588,24.854389L963.983209,24.988472L963.844594,25.083228L963.725367,25.125542L963.640061,25.133289L963.591961,25.125542L963.267377,24.988472L962.879636,24.919344L962.654509,24.933050L962.558362,25.038531L961.838093,25.212555L961.506800,25.391360L961.623303,25.798486L961.733329,25.801466L961.814816,25.789544L961.855726,25.729931L962.080105,25.679858L962.378019,25.680454L962.669532,25.608922L962.884493,25.480171L963.215719,25.657206L963.499631,25.857504L963.701504,26.161558L963.786556,26.648122L963.957618,26.840150L964.766361,27.034579L965.061956,27.199199L965.186701,27.299408L964.794175,27.324461L964.596400,27.390674L964.449064,27.520122L964.417297,27.644803L964.424201,27.812448L964.464049,27.980700L964.525495,28.108388L964.619847,28.196103L964.737119,28.258759L964.861311,28.296353L965.318086,28.311868L965.362358,28.313659L965.511917,28.424655L965.572431,28.700974L965.567636,28.697393L965.291126,28.515365L964.987238,28.442558L963.951072,28.401978L963.645911,28.470009L963.037763,28.700974L963.968916,29.379668L964.250780,29.511011L964.424583,29.533699L964.790022,29.499071L964.968275,29.511011L965.450771,29.679380L965.866582,29.738491L965.974325,29.754015L966.302043,29.903890L966.549129,30.140961L966.651340,30.458086L966.503402,30.793174L966.280369,30.841559L966.152912,30.869037L965.775643,30.854103L965.548139,30.913243L965.318762,30.820054L964.717349,30.886361L964.438784,30.822444L964.262875,30.638466L964.022745,30.132003L963.864678,29.902695L963.379391,29.573103L962.813022,29.392802L961.703672,29.300865L961.701599,29.210126L961.777513,29.154013L961.971840,29.048356L962.092383,29.009556L961.980150,28.795872L961.810354,28.615628L961.620879,28.478961L961.445923,28.400187L961.188364,28.371543L958.089439,28.637113L956.911642,29.217290L956.792915,29.351012L956.843899,29.589224L956.973295,29.746850L957.359205,30.011972L957.502112,30.182167L957.661438,30.416278L957.841921,30.624131L958.052004,30.713728L958.710266,30.832001L958.971059,30.822444L959.447580,30.680278L959.629766,30.696406L960.089559,31.041084L960.793914,31.314711L961.116523,31.580003L961.241951,31.624819L961.365985,31.607490L961.513214,31.532200L961.929009,31.496349L962.105426,31.421063L962.232948,31.269303L962.564993,30.753749L962.724259,30.674305L963.208510,30.713728L963.399339,30.775253L964.046769,31.214338L964.283214,31.327855L964.525071,31.391189L965.567118,31.415088L965.820084,31.354144L965.952325,31.214338L966.071779,31.280655L966.097243,31.394773L966.095356,31.545944L966.130930,31.725209L966.228549,31.897316L966.275765,31.943209L966.508273,31.949565L966.612380,31.952423L967.036028,32.133448L967.261492,32.194173L967.802258,32.221879L968.020190,32.128894L968.071113,31.875766L967.996746,31.731567L967.730629,31.485690L967.637457,31.353655L967.642010,31.204934L967.714460,31.090365L967.735695,30.985663L967.592546,30.863897L968.190750,30.583592L968.806940,30.402303L969.147913,30.357551L969.294433,30.378789L969.389820,30.501290L969.380807,30.746689L969.287550,30.929521L969.269819,31.072914L969.494582,31.198864L969.648084,31.210245L969.980701,31.161685L970.352526,31.235664L970.531800,31.226179L970.686110,31.179136L970.803865,31.108574L971.674807,30.236575L972.052044,30.080717L972.219871,30.093610L972.432198,30.157318L972.628856,30.258570L972.752016,30.382961L972.783429,30.604453L972.717606,30.814965L972.672442,31.037255L972.763448,31.292572L972.253102,31.105539L972.123076,31.120714L972.062186,31.297124L972.309918,31.381351L973.120890,31.403357L973.335254,31.448886L973.787646,31.612420L974.036259,31.557781L974.321776,31.332029L974.580303,31.045221L974.754041,30.807758L974.828903,30.627210L974.864366,30.490670L974.931153,30.402303L975.108334,30.365895L975.141669,30.400786L975.494058,30.583592L975.731665,30.927625L975.698265,31.171928L975.575991,31.406771L975.544738,31.724737L975.623203,31.867417L976.032377,32.218083L976.097263,32.345611L976.225532,32.669773L976.284705,32.765815L976.487386,32.853889L976.934441,32.822759L977.149373,32.839842L977.359281,33.045612L977.381213,33.568847L977.586186,33.610240L977.660666,33.595341L978.020894,33.523278L979.394347,33.569227L979.634158,33.498215L980.111952,33.225200L980.337980,33.137493L980.589099,33.160274L980.865461,33.296963L981.087142,33.520240L981.179035,33.805062L981.226996,34.139295L981.296629,34.185700L981.497748,34.319724L982.159836,34.477753L982.319777,34.565890L982.434635,34.668086L982.562889,34.739892L982.761872,34.738372L983.244808,34.658588L983.393896,34.671125L983.586355,34.761548L983.837504,35.028277L983.995684,35.132013L984.349415,35.059815L984.547706,35.072355L984.657195,35.259694L984.688377,35.330378L984.529627,35.459210L984.498126,35.627196L984.769684,35.852969L984.664858,35.910366L984.548573,35.948378L984.424315,35.963583L984.296773,35.952559L984.329152,36.058996L984.348660,36.103853L984.383053,36.163156L984.303457,36.365028L984.243372,36.469582L984.158971,36.565016L984.020255,36.472244L983.927016,36.519009L983.872975,36.661594L983.851881,36.856662L984.014837,37.027789L983.843143,37.386813L983.405057,37.971865L983.662591,37.915559L983.774350,37.917842L983.889031,37.971865L983.761688,38.151441L983.572438,38.493891L983.428255,38.675029L983.374171,38.710802L983.240893,38.749620L983.107760,38.793005L982.293471,39.544380L982.329362,39.874085L982.525358,40.098738L982.723296,40.207766L982.792212,40.245725L983.046642,40.342453L983.229614,40.385867L983.214847,40.559533L983.105620,40.897760L983.320475,40.995276L983.447435,41.015846L983.568262,40.996038L983.623372,40.926933L983.743836,40.775871L983.845150,40.711881L983.962980,40.747685L984.208078,40.958707L984.329369,41.025750L985.337778,41.005180L985.471690,41.039055L985.472084,41.039155L985.599806,41.071463L986.444906,41.093558L986.678246,41.058511L986.696914,40.866525L986.618063,40.776632L986.500396,40.711881L986.407184,40.588478L986.351419,40.399577L986.529396,40.435376L986.692206,40.309702L986.747493,40.134532L986.717578,39.998974L986.702378,39.871801L986.799455,39.724075L986.956788,39.650977L987.219443,39.669251L987.344907,39.544380L987.410538,39.392868L987.410056,39.275624L987.300962,38.972643L987.319193,38.875211L987.377679,38.795288L987.398433,38.735919L987.015120,38.630124L986.736451,38.492369L986.644849,38.413982L986.610767,38.296786L986.586610,38.084479L986.626806,37.961973L986.693361,37.837952L986.666681,37.761108L986.251391,37.801432L985.943615,37.720785L985.782111,37.703286L985.626032,37.739044L985.328694,37.858495L985.171058,37.884364L985.146456,37.513093L984.953222,37.089777L984.875531,36.745247L985.196123,36.608361L985.359405,36.680605L985.502325,36.823960L985.661038,36.937280L985.874066,36.919027L986.012580,36.793539L986.222873,36.419016L986.373890,36.275305L987.424125,35.603251L988.074861,35.317077L988.241034,35.134293L987.991133,34.953043L988.249954,34.780165L988.340740,34.737232L988.071959,34.664287L987.505272,34.980781L987.228807,34.859953L987.136501,34.588304L987.158491,34.260086L987.247628,33.967235L987.360536,33.805062L987.596570,33.567708L988.159585,32.695586L988.277153,32.601065L988.565880,32.437844L988.676156,32.308414L988.731784,32.125478L988.756007,31.803666L988.818353,31.674649L988.637546,31.508834L988.643270,31.238319L988.720464,30.926107L988.751747,30.635554L988.685798,30.369308L988.585712,29.888469L988.103763,29.461557L987.303562,28.623873L987.246887,28.443865L987.301490,28.234314L987.424684,27.906193L986.632354,27.634560L986.357637,27.367881L986.498094,26.952768L986.380119,26.859604L986.116689,26.705475L985.982368,26.655490L985.647046,26.661548L985.531118,26.624817L985.535111,26.467295L985.601644,26.413699L985.784687,26.266241L985.794480,25.970181L985.630455,25.686648L985.362290,25.528050L985.397058,25.397469L985.585383,25.290361L986.054362,25.224508L986.274807,25.149575L986.508417,25.009932L986.671744,24.940303L987.138183,24.840782L987.515645,24.919490L987.789661,24.974360L987.977110,25.010689L987.814968,24.818456L987.371351,24.462790L987.225112,24.377286L987.611382,24.210070L987.988546,24.348155L988.368206,24.584619L988.762935,24.710616L989.120854,24.648184L989.216621,24.657265L989.301279,24.720075L989.435670,24.900191L989.490050,24.950520L989.934663,25.003499L990.125222,25.089402L990.168454,25.317610L990.597993,25.222616L990.640159,25.076536L990.533333,24.746184L991.279552,24.918355L991.514575,24.918355L991.702824,24.850242L992.257319,24.507434L993.393721,24.198721L994.414122,24.172997L994.721218,24.040218L994.979345,23.788676L995.227602,23.413490L995.318467,23.332182L995.406184,23.320080L995.462773,23.275457L995.466203,23.096593L995.433571,22.997901L995.371097,22.927194L995.063103,22.679922L994.296688,22.349509L994.041753,22.290916L993.854205,22.189232L993.821441,21.966223L993.895137,21.813908L993.997212,21.775358L994.118427,21.768555L994.254395,21.714133L994.343585,21.622298L994.430135,21.435994L994.487501,21.352860L994.676332,21.193781L994.857598,21.112922L994.923084,21.107135L995.601435,21.047180L995.742408,20.943279L995.980372,20.536786L996.196544,20.353584L996.683398,20.184369L996.906402,20.024985L997.162095,19.682080L997.281068,19.569173L997.782311,19.326006L997.811236,19.250871L997.780579,19.209319L997.709005,19.112310L997.593473,18.800104L997.589247,18.532476L997.663108,18.312053L997.875945,17.894660L997.950644,17.362263L997.772995,16.986897L997.035702,16.102457L996.964384,16.128854L996.897287,16.226901L996.793722,16.305342L996.509078,16.370963L996.208054,16.386425L995.882094,16.345318L995.280931,16.168827L994.367158,16.068896L994.059643,15.953886L993.824478,15.748767L993.745558,15.531222L993.718452,15.274113L993.667470,15.013638L993.516918,14.784848L993.706249,14.771656L994.333202,14.521784L993.946950,14.274950L993.862430,14.181121L993.853897,14.059790L993.901128,13.938841L993.918296,13.808102L993.815965,13.655519L994.009795,13.544065L994.211010,13.428356L994.591391,13.336065L995.679360,13.322504L996.293691,13.464896L996.856562,13.399726L997.032107,13.456232L997.445484,13.555308L997.640759,13.243400L997.702757,12.729662L997.741263,11.156686L997.819570,10.669700L997.925144,10.417688L998.005085,10.226824L998.894658,9.088181L999.121445,8.600825L999.206045,8.136867L999.200530,7.615481L999.047682,6.574144L998.999480,6.447152L998.940569,6.371260L998.892737,6.278840L998.876708,6.104904L998.899824,5.987701L999.047310,5.667673L999.114037,5.417537L999.139299,5.191082L999.117029,4.957888L999.065592,4.545217L998.937302,4.544035L998.104881,4.380856L997.751582,4.228920L997.717047,3.994234L997.655926,3.872465L997.650369,3.809809L997.693949,3.766069L997.782306,3.705781L997.777907,3.606484L997.699889,3.606484L997.606026,3.689231L997.472625,3.718193L997.333934,3.690413L997.233643,3.606484L997.033401,3.657314L996.569644,3.459320L996.205326,3.367715L996.123464,3.300344L996.063868,3.232383L996.007697,3.200471L995.984776,3.164423L995.701528,3.013146L995.641288,2.994237L995.205354,1.796738Z M984.317911,1.222102L981.587464,1.308319L981.412893,1.251037L981.224332,1.374460L981.165088,1.587658L981.372247,1.804416L981.663612,1.856984L982.205092,1.665027L982.496139,1.605966L983.668824,1.605966L984.789556,1.407531L984.317911,1.222102Z M987.048698,1.295327L988.988628,0.813493L989.144423,0.813493L989.140469,0.714302L988.819358,0.637550L987.693880,0.714302L987.395685,0.772163L986.974729,0.917411L986.695547,1.109315L986.822864,1.308319L986.755071,1.378594L986.760555,1.424657L986.830873,1.516196L987.048698,1.295327Z M990.437487,0.000000L990.279843,0.021249L990.305067,0.117463L990.510139,0.213681L990.921361,0.317576L990.946928,0.262676L990.980634,0.225487L991.021626,0.207778L991.072710,0.210139L990.437487,0.000000Z "/></g></svg>