<?xml version="1.0" encoding="utf-8"?><!DOCTYPE svg  PUBLIC '-//W3C//DTD SVG 1.1//EN'  'http://www.w3.org/Graphics/SVG/1.1/DTD/svg11.dtd'><svg enable_background="new 0 0 1000 552" height="552px" pretty_print="False" style="stroke-linejoin: round; stroke:#000; fill: none;" version="1.1" viewBox="0 0 1000 552" width="1000px" xmlns="http://www.w3.org/2000/svg" xmlns:xlink="http://www.w3.org/1999/xlink"><defs><style type="text/css"><![CDATA[path { fill-rule: evenodd; }]]></style></defs><metadata><views><view h="552.934439644" padding="0" w="1000"><proj flip="auto" id="robinson" lon0="83.0921766967"/><bbox h="68.25" w="123.66" x="1141.89" y="-510.02"/></view></views></metadata><g class="" fill="#000" id="country"><path d="M909.821823,550.934440L910.997446,549.638868L912.265520,544.757736L913.235612,542.810894L916.084488,540.787025L919.614440,539.659544L923.419769,539.435448L927.110444,540.142750L936.350382,545.114891L940.619527,546.291402L944.536331,544.274526L946.977704,541.959741L948.051811,540.941091L950.381171,540.030702L952.481404,541.109163L954.294456,542.544780L956.272206,542.803891L957.804710,541.893500L958.258983,539.827616L958.502580,536.956398L959.873514,536.340138L961.977401,537.082451L964.340757,538.251946L966.326169,538.230937L969.275227,535.093615L971.229476,534.554390L971.430900,535.086612L974.673424,537.495626L974.953941,537.425596L975.705909,538.532065L976.902707,540.899073L977.869358,542.194629L979.816124,543.798321L983.996272,546.165347L985.962974,547.846082L989.493381,547.397885L992.957664,542.544780L995.197846,536.003997L995.091548,530.457693L995.090231,530.450690L994.413372,528.763000L994.231587,527.383440L994.529264,524.463905L995.118349,518.657986L998.289510,507.915967L999.094095,501.963864L999.057482,499.267943L998.744861,496.698083L998.109581,494.135245L996.059498,488.764553L994.504025,482.931818L993.598629,480.600156L992.196044,478.485571L988.805621,474.361475L987.400023,472.267942L984.742038,467.520793L981.575882,463.123805L978.458560,459.567061L976.650250,458.089767L974.691668,457.221598L972.349187,455.828334L969.291890,450.969476L967.098867,449.121177L966.346548,448.092016L965.952631,446.999851L965.919823,445.858684L966.835599,441.910152L965.410767,432.424168L966.357911,428.255597L967.859158,421.629586L967.903053,418.311527L967.298085,416.778520L965.335972,414.139537L964.539784,412.669562L964.044649,410.793613L964.028587,409.281667L964.400033,406.187820L964.654974,405.284874L965.120781,404.598919L965.485959,403.828972L965.521181,402.667059L965.189113,402.086105L963.920941,400.952201L963.490351,400.357255L962.407270,397.711518L962.001891,396.413163L961.853488,394.967835L963.410896,388.136824L967.996816,375.385459L968.447073,364.055707L969.405977,360.588379L969.892931,357.156123L968.160224,351.600318L969.028284,349.102380L968.471582,347.510580L967.356276,346.709440L965.685321,346.107713L962.674755,345.408035L959.953167,344.806314L954.397300,341.937684L951.567161,341.014138L950.233644,341.175059L947.462465,342.462429L945.975905,342.749290L944.522670,342.448435L941.806836,341.154069L940.493015,340.748270L931.339118,340.300494L928.822029,338.985160L927.623866,339.223039L926.706789,341.335979L925.686118,345.058197L924.184957,348.311725L922.006742,350.893614L918.943117,352.600906L915.957147,352.887790L913.207992,351.844020L910.879803,350.960086L908.016434,350.449302L906.399470,351.005567L903.220828,353.027733L901.286808,352.971756L900.169147,352.181078L899.331596,351.068540L898.666865,349.984000L897.995740,349.333280L895.578452,348.668569L893.652939,348.885474L889.388000,350.036477L879.750250,353.055722L877.721211,353.118696L877.301039,351.068540L878.173205,348.801511L878.332493,346.961326L875.686554,346.170685L872.698169,347.374141L870.660800,349.781087L868.303285,351.474371L861.268013,349.627153L855.532080,350.333851L852.469367,350.158925L847.411392,347.615533L839.339813,338.971167L834.878605,334.955285L831.633878,333.139784L829.648936,333.006858L828.933230,333.251437L827.652830,333.688979L824.324153,334.276655L821.307741,334.003805L818.554390,332.775987L816.227551,330.547756L814.546835,327.287684L814.542505,327.266697L810.787993,324.573356L802.723935,324.937128L798.976393,323.663929L797.722945,321.841600L797.321611,317.794797L796.494118,316.161426L794.553174,314.626006L792.176672,313.206024L789.719810,312.261711L787.600661,312.111321L786.315819,312.877262L784.234924,315.273049L782.612452,315.706744L780.654178,314.863838L778.744292,313.303954L776.934780,312.142798L775.160245,312.475055L774.386587,313.982466L774.467034,315.986547L774.856167,318.158549L775.000433,320.187186L774.517702,322.012988L773.799376,323.363121L773.414942,324.916141L773.932446,327.287684L774.615726,330.441218L774.617587,330.449812L774.415234,333.013854L773.254859,334.983269L771.062759,336.375521L767.294098,338.642336L765.755970,338.768271L763.298137,337.809767L758.710340,334.430571L757.557431,333.870878L756.518903,334.045782L755.695094,334.570494L754.844082,334.962281L753.664356,334.738403L752.397508,333.912855L748.939947,330.313391L746.710642,328.781290L744.398999,328.246108L741.982844,327.987263L739.512259,327.287684L739.452821,327.259701L739.433486,327.252705L737.522133,326.224332L736.377958,324.601338L734.777544,320.669867L733.622900,319.144882L732.559009,318.120076L732.041290,316.850447L732.553993,314.559554L732.737063,311.859505L731.911809,308.498523L730.209315,305.861567L727.796573,305.385942L719.953764,316.182411L720.400442,317.542970L722.130366,319.575094L722.711818,320.634890L722.770121,321.355416L722.731816,323.642943L722.962469,324.769233L722.918524,325.633196L723.258566,326.420212L724.601305,327.266697L724.599874,327.259701L724.613240,327.266697L724.617531,327.287684L725.877764,328.518946L726.090259,329.617297L725.988681,330.785618L726.353174,332.279266L727.136574,333.311188L728.065956,334.122739L728.843331,335.067224L729.203511,336.483964L728.655919,337.019181L725.787276,340.818236L724.333272,341.594852L723.541259,341.734994L723.186577,341.797752L720.238154,341.475910L715.032217,342.119595L712.832474,341.280007L710.824495,337.914712L710.330248,335.130190L710.290381,332.412192L709.792264,329.792195L707.825158,327.287684L703.013325,323.538009L701.407844,321.698193L699.858483,318.560776L699.452038,316.927394L699.327580,315.622802L698.840242,314.353201L696.261587,311.558727L695.105675,308.578961L694.391875,307.169546L692.215475,305.060700L689.423692,303.497452L683.837891,301.112404L680.396829,299.063123L677.332549,296.587249L674.538454,293.632360L671.992036,290.149542L670.543118,284.149288L669.345342,281.201737L667.819092,281.516418L667.685416,282.621306L667.979855,283.922013L668.094398,285.103852L667.459661,285.894082L665.207522,286.820688L664.464514,287.607435L662.346464,292.579810L660.870324,292.621772L658.974013,290.950300L656.300757,289.299835L653.667828,288.621473L650.937511,288.278797L648.280916,288.320757L645.857174,288.796308L642.140628,287.030487L640.262012,286.366126L638.395283,286.450045L637.011601,287.485052L634.930966,290.572649L633.348085,291.425863L631.318380,291.212559L629.894031,290.205490L628.601192,289.027091L626.936405,288.299777L625.648460,288.530559L622.742646,290.051633L621.261184,290.443269L619.367397,290.310392L617.014109,289.799867L614.731282,288.908203L610.294949,285.383579L608.197612,285.852123L606.090761,287.054963L603.226814,287.016500L600.355705,285.411551L599.116894,283.425505L598.946722,281.678131L598.552459,277.642408L598.005947,275.006207L595.532797,267.608426L595.958676,266.276463L598.544148,264.413145L598.868007,262.595307L598.349708,260.057381L598.363291,259.267352L598.843078,258.285068L600.648085,257.428636L601.349168,256.764470L601.795189,255.537522L601.930817,254.422446L601.783395,247.651873L600.636922,246.054550L594.583775,244.184634L589.685329,241.094985L587.167720,240.144344L584.666852,240.769949L584.041902,241.535358L583.535049,242.692223L582.919882,245.033956L582.382160,246.131445L581.513957,246.620775L580.504786,246.921365L577.473090,248.854252L576.952822,249.668663L576.177456,252.849477L575.438399,253.702372L574.391266,254.079886L573.102008,253.898120L571.072755,253.254951L569.619939,253.003277L563.326440,253.422733L561.903228,253.226987L560.294101,252.597804L557.945050,250.937480L554.179851,247.351281L551.739315,246.166397L546.405534,245.900761L544.664066,244.782304L543.949874,238.512202L542.352994,237.404319L540.081273,236.939501L537.635718,236.072780L536.642230,235.087244L535.034233,232.710818L533.868424,232.095753L527.250889,230.987949L524.784451,230.135263L522.654488,228.957592L520.505203,228.083958L517.889313,228.160838L514.831260,227.269740L512.775818,224.638432L509.727507,218.439622L508.496772,217.209696L505.589684,215.036405L502.988458,211.724163L501.576999,210.655050L500.029752,210.040141L491.838796,208.356152L485.227258,204.803115L483.686861,202.897325L480.784821,199.307912L481.165366,187.773727L479.541695,186.027326L476.779888,185.161126L473.811659,183.526547L472.236400,179.265625L471.554832,177.976917L470.648596,177.026988L467.545038,174.435698L466.327251,171.847987L466.935768,169.623533L468.030193,167.503901L468.288827,165.262116L467.162596,163.355602L465.562939,163.135623L463.784438,163.407978L462.131437,163.023888L461.005972,161.560870L459.499297,157.901706L458.135352,156.602885L456.091356,156.554005L454.097261,157.447814L452.126233,157.817910L450.194799,156.176933L448.854249,154.766420L447.448357,154.452201L446.079636,154.857195L444.822374,155.639259L444.135802,153.844713L443.221082,152.807807L442.023620,152.221281L440.514948,151.844230L439.089677,151.851213L437.001379,152.172404L433.656917,153.170897L433.114998,153.879626L432.524359,155.681156L431.786493,156.117579L429.232887,156.955520L424.658008,159.556687L422.132739,159.895369L419.160325,159.595094L416.236734,159.713808L413.664173,160.715895L411.822459,163.069280L411.455944,165.290050L411.465294,167.657547L411.021981,169.553692L410.915525,169.603122L409.269603,170.367338L407.542476,170.273053L402.673910,169.368615L401.136700,168.523552L399.684602,167.465490L396.671764,167.060428L395.135717,166.470297L394.133246,165.373854L393.554618,164.008560L392.687042,161.079023L390.500516,156.005854L388.954159,153.963417L386.618603,152.507561L383.156812,151.177415L381.643251,150.032322L379.778740,146.220131L378.366377,145.214751L376.734970,144.460725L375.082122,143.141200L374.114179,141.252714L373.886854,139.601640L373.312996,138.107677L369.194964,135.154750L368.616656,133.451463L368.479347,131.455040L367.653112,129.025903L363.806432,125.745307L356.798703,127.368136L354.233825,124.433112L354.063281,122.834781L354.471145,121.927448L354.986792,121.187632L355.133298,120.063963L354.406245,118.043501L353.067013,116.267359L349.780163,113.465406L348.810106,112.942015L346.711197,112.254635L345.696316,111.689384L345.252779,111.075289L344.444257,109.285375L343.874545,108.584076L342.028676,107.345483L340.594504,106.818651L339.196953,106.755851L336.578479,107.055899L333.713693,107.830450L332.992882,108.172372L332.746195,109.620326L332.828728,111.514925L332.457522,112.966440L330.801781,113.081586L329.387405,112.101110L327.108532,108.828309L325.886611,107.453641L318.045187,101.571501L316.659853,101.320318L314.193822,101.718024L312.987228,101.550569L311.880621,100.810978L309.762249,98.791099L308.568839,98.278291L306.529477,99.265539L304.370650,101.278454L302.161437,102.143643L299.990358,99.691141L298.845759,98.048051L297.479095,97.259662L295.984704,96.781749L294.440865,96.024771L292.913766,94.803856L290.028921,91.406346L281.839352,85.815149L280.277102,83.523703L280.252070,81.905441L280.479918,80.573196L280.212453,79.471151L278.672069,78.571394L277.466555,78.487697L275.274116,79.254929L274.072613,79.296779L271.756098,77.839044L260.454893,66.582860L258.163382,65.348571L252.210533,63.577375L249.799622,62.419850L247.366839,60.843978L245.104534,58.968326L243.155044,56.953285L241.137008,55.803948L239.378084,55.790003L237.672517,56.068892L235.717875,55.762114L234.600806,54.981232L232.734994,52.757167L231.602547,51.934493L228.883515,51.258235L226.525727,51.244291L224.118336,50.874793L218.201773,47.535461L216.167242,47.932825L214.289598,48.741504L211.866118,48.378992L210.459730,46.859250L208.780872,44.119624L207.399820,41.282524L206.859369,39.449278L208.400716,34.340148L208.361418,31.761329L206.223047,30.053783L202.975957,28.952612L200.530006,27.433301L198.752528,25.091670L197.615434,21.516640L197.141587,13.774774L196.163688,11.705288L194.162405,10.743725L191.422583,10.471981L186.655613,10.799468L185.654787,11.168762L184.671564,11.747095L183.659183,12.144266L182.489213,11.949164L181.531378,11.224505L179.707588,9.238692L178.518193,8.486184L176.150747,8.026322L172.288990,8.346832L166.889827,6.165993L164.504655,6.570106L162.273080,7.496786L159.794873,7.935743L157.164346,7.280792L141.753424,0.801208L139.084123,0.000000L136.593487,0.355318L136.034480,1.184397L135.943498,2.354875L135.597248,3.497498L134.220433,4.222095L132.129795,4.619232L131.400784,5.169653L131.093594,6.277473L130.967248,11.454444L129.777621,11.935228L126.655008,11.461412L124.045626,10.186302L118.893696,5.984840L116.546611,5.086045L114.425560,5.796719L114.516754,7.545559L115.268477,9.677657L115.101160,11.545027L114.320946,13.482116L114.397411,15.621328L115.565715,20.338937L116.002362,21.523609L117.221374,23.690908L117.586261,24.847755L117.475153,26.130063L116.586063,28.604143L117.001040,32.813755L116.660351,35.016232L115.718488,36.863300L114.190342,38.180673L112.764913,38.410693L110.873993,38.306138L109.118593,38.438574L108.087489,39.351692L108.235429,40.341498L109.636469,42.439656L110.005928,43.359799L110.015700,45.444111L109.777447,46.505657L109.713711,46.789538L108.789457,47.653973L106.914430,48.295335L105.578234,49.417735L106.587876,53.196396L105.812672,55.120675L103.360414,55.622670L97.477914,53.091817L94.792892,53.154564L91.887428,53.942395L90.130580,52.694420L90.034961,52.465461L87.552214,46.524633L86.227494,44.468171L82.610727,40.006914L80.177582,35.622623L78.278507,32.987999L76.299418,30.743766L74.855083,29.656523L73.966360,29.712279L66.835722,32.395570L64.713448,31.886783L63.077497,29.503195L61.589836,27.844487L60.063601,29.224418L58.598038,31.684663L57.351477,33.287700L59.662903,36.884211L58.166099,40.425144L52.444627,45.799636L51.219477,47.514547L49.013989,53.154564L48.153899,54.430437L44.686248,57.294930L42.328309,60.195512L41.078309,61.157755L39.037924,61.868988L35.015112,62.412877L33.520018,63.396075L33.049401,65.711184L32.571483,70.571805L30.931717,74.791163L26.692531,82.386730L24.698185,84.486310L18.253738,86.376689L15.777637,88.894956L14.889858,92.627197L15.633830,96.056166L17.450689,99.453920L19.787700,103.068152L21.594465,106.595360L22.046458,109.564501L21.271236,112.352334L19.313517,115.339177L18.766333,115.841650L17.508816,116.637239L16.989711,117.160658L16.771344,118.095844L17.112958,118.926356L17.569012,119.680106L17.666479,120.367561L17.103393,121.585456L16.336289,122.625395L14.411654,124.433112L14.379677,124.450561L13.626838,125.843025L12.752919,126.603831L12.154114,127.486796L12.198861,129.228328L11.769499,130.467320L8.654429,131.594648L7.630629,132.550972L7.680810,134.948818L8.986373,137.214107L12.345665,141.633200L14.327055,147.092867L15.248339,148.492759L16.272151,148.670802L17.319385,148.618437L18.319593,149.369014L19.157576,151.914055L19.345183,155.052710L18.813605,163.921266L17.665378,163.659384L15.972194,162.486164L14.041619,162.755026L13.863799,164.717393L16.955230,170.370830L17.681335,172.455619L16.621196,174.243625L14.544763,174.907153L12.137467,174.886199L10.118026,174.610310L6.925530,176.387888L5.728259,181.525282L5.994600,187.553679L7.267119,191.993190L7.272091,192.017641L6.771789,194.358002L5.398155,195.681907L3.676995,196.701923L2.188363,198.165598L1.206373,200.369893L0.905905,202.651104L1.079871,205.103563L1.533660,207.825108L3.342600,213.320871L5.810999,215.057369L8.004505,215.498237L9.061842,215.710748L13.244299,217.978398L18.156076,223.289612L20.094951,224.645421L22.460513,225.456121L26.666466,226.179467L28.857545,227.426992L29.687466,228.300618L31.324532,230.470745L32.407827,231.480693L33.442378,231.948977L35.644868,232.480168L36.679920,233.249003L41.161992,239.952121L42.812786,241.661180L45.319500,242.643291L47.481945,242.314755L49.573952,241.692635L51.909528,241.814962L54.263243,243.104643L60.346122,249.186307L62.862809,250.458613L63.079837,248.672496L60.388015,240.063960L60.233549,237.739827L61.007460,235.891049L63.050453,234.552542L65.005083,234.617208L67.487139,234.699323L68.016683,235.499630L68.061156,236.673892L68.253999,237.935542L69.244253,239.015472L71.511917,240.109395L73.629175,240.808394L78.065979,241.608754L79.750612,242.706203L82.940035,247.225452L84.456938,248.798327L86.629162,249.773524L90.450541,250.832619L92.606872,252.146892L97.951738,256.911285L100.125432,258.134755L102.355322,258.561225L107.083474,258.575208L108.878175,259.330275L110.216434,261.357798L110.792955,263.392354L111.724198,265.294109L114.189680,266.909230L116.167840,267.538506L118.550639,268.013961L120.790778,268.069897L122.454117,267.440618L123.972322,268.244697L124.664949,269.695552L125.212315,271.377170L126.336487,272.842055L131.929943,273.912883L143.832206,276.191440L146.819018,277.670379L149.823738,280.810135L153.758623,288.859249L156.067501,292.628766L164.334871,300.640297L166.542155,303.906622L164.933384,304.648029L164.690524,305.756650L165.621582,306.798834L167.600649,307.281459L167.605839,309.204986L168.977117,309.813526L170.833867,309.484774L172.327005,308.606940L173.073696,307.022659L173.229697,305.347473L173.732629,304.105962L175.448901,303.854165L178.276065,304.829884L181.093819,306.672932L183.619301,309.005637L185.601788,311.492276L186.523701,313.436858L186.924185,314.849848L187.653186,316.112460L189.699645,317.584941L200.977416,323.055317L203.650510,324.776229L205.625304,327.266697L205.657853,327.280688L205.659209,327.287684L208.286625,329.113593L214.378885,330.526768L217.293430,331.555177L220.181150,333.678485L225.761400,338.803253L232.207698,342.266524L235.888770,344.764334L239.483852,346.754919L242.714948,347.010304L244.992817,345.107174L248.544128,339.387455L251.648270,337.816763L257.694526,338.432444L260.529133,339.355767L260.701592,339.411943L263.414537,341.461917L266.039042,343.858260L268.238271,345.044203L273.676946,347.115257L289.760449,359.003443L299.614749,363.670833L307.123922,370.283813L311.882199,371.739409L321.533195,370.549738L335.341201,366.630891L338.055079,367.672445L338.778251,367.949991L341.436144,371.337019L343.845341,376.547175L346.892578,386.677573L349.126029,391.818256L352.316503,394.960836L366.860861,395.965215L369.938041,396.938103L375.837662,400.059783L383.516702,401.946117L397.641628,401.834126L402.238087,403.597989L408.937772,408.665693L410.688736,410.366627L412.510809,412.949557L413.600235,414.853528L415.021294,416.204520L417.859426,417.177521L420.428843,417.044520L422.432477,415.721522L423.984477,413.656544L425.746516,409.771648L426.212486,408.070721L426.063851,406.439805L423.837175,403.940964L423.310115,402.366083L423.234295,400.714223L423.568929,399.398346L426.367045,398.278458L437.250147,398.376448L450.247581,400.154274L459.316660,403.450999L477.062576,412.438568L482.766861,414.454533L483.511179,415.111607L483.686663,415.266525L484.267634,413.985539L484.837102,413.460547L485.892116,413.005556L485.711067,411.899581L484.987630,410.520622L484.458767,409.253669L480.424005,405.375868L479.011817,403.213017L481.079269,402.275090L486.364979,401.883122L488.777430,401.092104L488.883900,401.057192L490.478757,401.582147L495.257820,402.443077L498.911112,402.296088L501.031170,400.546238L505.436837,392.987093L507.551289,391.993231L509.682874,392.479662L510.670025,394.960836L511.981142,396.119197L513.371954,396.885609L516.374819,398.047483L517.696651,399.293356L519.574559,402.590065L520.729625,402.940038L524.118702,402.352084L525.919742,403.604988L527.548608,406.138822L530.345376,409.372664L533.179545,411.059604L567.675574,417.436521L571.571045,419.949549L575.373658,424.478682L578.197133,429.399946L580.254481,434.454343L581.491448,439.641878L581.883608,445.025566L581.295712,447.958996L580.241996,451.060491L579.796027,454.155027L581.013906,457.067569L582.722170,458.166782L597.415877,462.143595L598.716322,462.122590L600.047231,460.862326L601.815661,460.148179L603.696916,460.575267L605.328165,462.696713L605.348745,462.710716L608.388706,464.433091L614.536824,466.456547L617.432722,468.017909L619.598451,470.601529L620.786129,473.430236L622.225656,475.880872L625.166957,477.337260L626.681828,477.757373L628.187420,477.967430L630.377858,479.024719L630.624122,481.083292L631.160827,482.903810L634.158007,483.183891L640.170426,480.502129L642.737180,480.208046L647.645454,482.196608L648.816037,486.292805L649.703830,490.970238L653.781122,494.681422L665.030770,497.650399L666.770022,497.601383L670.549901,496.319958L672.152202,494.856479L672.341033,494.542157L673.569539,492.496720L675.158420,490.676146L677.184824,490.788181L679.435311,491.460392L681.402828,490.774176L685.138727,488.400442L689.672643,485.529578L698.127404,481.741478L699.463793,482.196608L709.539224,487.504169L711.554073,489.569802L713.322742,494.198266L714.332325,504.225652L716.451012,509.001360L718.483197,511.116135L725.697001,516.319088L726.793447,516.613200L727.869664,516.116011L728.931533,515.800891L730.005624,516.655216L730.437826,517.796654L730.681276,518.987113L731.091754,520.044524L732.033709,520.800820L733.855246,520.478694L736.073780,518.931092L742.664954,511.753371L744.459458,510.513914L747.131933,510.198798L751.010691,508.833299L754.752403,510.051744L763.720879,515.296699L764.424925,515.863915L765.200748,516.172032L767.804996,516.003968L767.989761,516.027556L768.737464,516.123013L770.593620,516.669222L771.449318,517.117393L772.124400,517.754638L772.936232,518.321856L774.196244,518.559948L774.962872,518.300848L777.222580,516.564182L781.325203,514.981580L783.724685,514.582429L785.764646,514.988583L786.776136,515.919936L787.180132,517.838670L788.165358,518.791037L789.020016,518.910084L791.466115,518.566951L792.490370,518.566951L796.209963,519.890464L804.049715,523.924052L807.880766,525.429653L810.236900,525.989878L812.251111,527.033298L814.115793,528.531906L816.029280,530.457693L816.053245,530.457693L818.637365,531.928299L827.148621,535.681862L836.200192,540.843049L838.424908,541.340262L839.457061,540.338834L839.928714,538.735151L840.549705,537.390581L842.092342,537.145478L846.502059,538.833192L847.607374,539.043282L850.390120,538.146901L852.866932,536.179071L854.611819,533.496949L855.239790,530.450690L858.435238,528.202772L861.463035,527.012989L865.491921,525.429653L866.752509,524.253183L869.541061,520.415669L870.944804,518.952100L872.258085,518.896078L873.098916,521.473083L873.592042,523.762988L876.166732,530.450690L876.168033,530.457693L876.191997,530.457693L878.089968,534.421334L880.855016,538.966249L884.206212,542.670834L887.801784,544.099451L893.863614,543.371136L897.203565,542.215638L898.636398,543.483184L899.820212,545.577092L901.189933,547.348864L902.894263,548.336296L908.196089,550.633307L909.821823,550.934440Z "/></g></svg>