<?xml version="1.0" encoding="utf-8"?><!DOCTYPE svg  PUBLIC '-//W3C//DTD SVG 1.1//EN'  'http://www.w3.org/Graphics/SVG/1.1/DTD/svg11.dtd'><svg enable_background="new 0 0 1000 1235" height="1235px" pretty_print="False" style="stroke-linejoin: round; stroke:#000; fill: none;" version="1.1" viewBox="0 0 1000 1235" width="1000px" xmlns="http://www.w3.org/2000/svg" xmlns:xlink="http://www.w3.org/1999/xlink"><defs><style type="text/css"><![CDATA[path { fill-rule: evenodd; }]]></style></defs><metadata><views><view h="1235.09471279" padding="0" w="1000"><proj flip="auto" id="robinson" lon0="-169.86396227"/><bbox h="3.0" w="2.43" x="-2476.49" y="318.0"/></view></views></metadata><g class="" fill="black" id="country"><path d="M430.645560,1233.094713L514.758911,1138.760561L557.129482,1116.861539L608.937467,1142.691151L811.357893,954.022374L883.572135,813.643404L924.412665,758.053231L999.594845,723.800679L894.132112,573.313787L596.366337,58.960057L572.319540,26.953176L412.474326,7.299822L335.252568,0.000000L144.510085,7.299822L88.565485,269.531193L60.363317,296.484242L33.729292,299.291851L12.220195,306.030114L0.405155,341.967486L8.812479,392.504381L35.277283,431.249300L66.065000,467.748118L86.082136,507.054504L12.212681,727.169782L26.593210,850.703488L184.518656,902.924470L205.377899,933.807828L261.696476,1048.356843L235.220172,1071.378924L222.199166,1095.524021L212.978245,1120.230618L199.539033,1142.691151L272.377334,1131.460886L339.962404,1135.391476L395.085842,1165.713192L430.645560,1233.094713Z "/></g></svg>