<?xml version="1.0" encoding="utf-8"?><!DOCTYPE svg  PUBLIC '-//W3C//DTD SVG 1.1//EN'  'http://www.w3.org/Graphics/SVG/1.1/DTD/svg11.dtd'><svg enable_background="new 0 0 1000 147" height="147px" pretty_print="False" style="stroke-linejoin: round; stroke:#000; fill: none;" version="1.1" viewBox="0 0 1000 147" width="1000px" xmlns="http://www.w3.org/2000/svg" xmlns:xlink="http://www.w3.org/1999/xlink"><defs><style type="text/css"><![CDATA[path { fill-rule: evenodd; }]]></style></defs><metadata><views><view h="147.362628581" padding="0" w="1000"><proj flip="auto" id="robinson" lon0="176.610789279"/><bbox h="733.37" w="5010.67" x="-2546.25" y="143.31"/></view></views></metadata><g class="" fill="#000" id="country"><path d="M930.953537,145.362629L931.290945,145.292519L931.319968,145.130551L931.235549,145.092068L931.066891,145.135516L930.934688,145.124654L930.871395,145.229847L930.885201,145.303998L930.953537,145.362629Z M929.374270,139.586641L929.355308,139.552462L929.411923,139.436114L929.577607,139.370872L929.672792,139.236284L929.800733,139.106368L930.032743,138.994627L930.109946,138.934666L930.120933,138.887571L930.086199,138.845810L929.747838,138.871558L929.648963,138.981129L929.252625,139.321621L928.595338,139.591657L928.392057,139.734929L928.387840,139.779125L928.564261,139.772857L928.797515,139.639315L928.832536,139.667531L928.812731,139.782887L929.031381,139.858105L929.171833,139.856851L929.374270,139.586641Z M945.541340,126.952649L945.506666,126.407438L945.044715,126.424890L944.729577,126.742858L944.524999,127.096755L944.234678,127.260237L944.076660,127.444684L943.767087,127.544374L943.587640,127.685979L943.433127,127.863155L943.043070,128.047643L942.835483,128.241668L942.907185,128.257864L943.279415,128.190541L943.745290,127.973021L943.827799,127.954604L944.047950,127.985405L944.503841,127.782504L944.986189,127.730748L945.221092,127.628193L945.390438,127.488497L945.472335,127.332300L945.224758,127.362459L945.233629,127.258015L945.084030,127.181510L945.201081,127.035810L945.433080,127.082471L945.541340,126.952649Z M945.134257,123.038448L945.140879,122.982813L945.083390,122.906323L944.694832,123.001462L944.456390,123.180717L944.505281,123.207910L944.607558,123.187041L944.680569,123.260401L944.802431,123.278110L944.893769,123.277478L944.990246,123.197475L945.134257,123.038448Z M947.004295,121.499013L946.958344,121.501220L946.615821,121.695470L946.621125,121.812811L946.800925,121.886951L947.004295,121.499013Z M42.672077,118.736049L42.668370,118.565033L42.462884,118.423850L42.299161,118.463065L42.439075,118.581348L42.579370,118.764607L42.672077,118.736049Z M41.079589,116.869340L39.987767,116.796316L39.849367,116.948947L39.580894,116.925754L39.531816,117.137631L39.666100,117.171796L40.086278,117.125720L40.383436,117.227589L40.600411,117.384948L40.642518,117.555486L40.603189,117.722906L40.690905,117.818851L40.968847,118.047140L41.060023,118.071916L41.212719,118.077247L41.269715,117.949611L41.506597,117.858360L41.443899,117.784046L41.104717,117.547021L40.971451,117.557367L40.551488,117.253920L40.587301,117.112556L40.520443,117.076511L40.302279,117.011945L40.302947,116.958350L40.526702,116.935470L40.692746,117.030750L40.883282,117.275235L40.888591,116.948007L41.055130,116.952708L41.079589,116.869340Z M976.594012,107.590400L976.900807,107.339554L977.100164,107.098361L976.853363,107.207181L976.765095,107.217071L976.491560,107.361875L976.204112,107.648377L976.089752,107.779892L976.594012,107.590400Z M973.408946,108.943048L973.516806,108.639437L973.739145,108.290715L974.022205,107.883659L974.137636,107.540059L973.884259,107.448910L973.723469,107.295862L973.743244,107.133150L973.813575,106.950533L973.983782,106.746369L974.191516,106.544594L974.821682,106.462685L974.585080,106.368583L974.247693,106.390351L974.005107,106.461085L973.287567,106.801341L972.428024,107.247697L971.606958,107.862973L970.855128,108.690536L970.027695,109.479763L969.624221,109.784173L969.016775,110.161316L968.589022,110.369797L968.366349,110.450947L967.969949,110.492305L967.741917,110.612567L967.115475,111.188452L966.682616,111.533433L966.304470,111.885090L965.944881,112.250660L965.572242,112.570732L965.616001,112.662823L965.586225,112.758042L965.422469,112.774697L965.292934,112.817430L965.152021,112.887808L964.216782,113.516815L963.996474,113.856705L963.816061,114.050289L963.685581,114.124011L963.873392,113.910988L963.998860,113.734009L964.005180,113.588382L963.323255,114.006995L962.856540,114.259833L962.688364,114.414456L962.574026,114.588815L962.565914,114.368667L962.403943,114.404734L962.064650,114.522022L962.014863,114.623934L962.084483,114.787920L961.968757,114.681002L961.817370,114.614214L961.532658,114.705773L961.221288,114.838711L961.341259,114.925554L961.275611,115.078224L961.242698,114.986373L961.117704,114.957531L960.908785,115.019289L960.623065,115.206118L960.448280,115.287929L960.282893,115.344035L959.834449,115.614833L959.213756,115.860539L959.290235,115.926665L959.205380,115.974927L959.064195,115.966465L958.935318,116.088999L958.857507,116.216859L958.682104,116.221560L958.258591,116.390787L957.785836,116.494831L957.072893,116.744918L956.468458,116.987184L956.267104,117.124466L956.137335,117.423819L956.058072,117.381499L955.969500,117.264577L955.698763,117.349525L954.944539,117.677130L954.849027,117.691552L954.584853,117.613485L953.919856,117.800978L953.544972,117.966231L952.723732,118.421026L951.899677,118.855309L951.100204,119.311480L950.886122,119.605488L950.892306,119.711374L950.807297,119.839278L950.781822,119.710431L950.669008,119.614913L950.313012,119.763852L949.733754,120.084161L949.409175,120.182582L949.261909,120.282279L949.157602,120.398038L949.131945,120.512878L949.015967,120.645368L948.867803,120.784818L949.064970,120.364692L948.139148,120.801505L947.991127,120.909822L947.943997,121.074506L947.997263,121.184459L947.778382,121.222901L947.734116,121.083011L947.273900,121.318073L947.125727,121.489239L947.031675,121.637124L947.165636,121.777165L947.336287,121.823853L947.370760,121.856348L947.117668,121.893577L947.002771,121.945640L946.892930,122.061772L946.856446,122.246119L946.658067,122.156463L946.481242,121.911562L946.367832,121.923867L946.235807,122.105959L946.245675,122.236332L945.869356,122.242014L945.621584,122.432103L945.399265,122.675012L945.736677,122.695548L946.104155,122.636784L945.482584,122.866817L945.296057,123.005256L945.186691,123.178188L945.658580,123.220558L945.424381,123.343890L945.054641,123.422644L944.109666,123.543165L943.991868,123.608337L943.775806,123.838067L943.653968,124.036210L943.989267,124.008669L944.440327,123.794710L944.378069,123.920989L944.267117,124.034310L943.856690,124.288550L944.037410,124.324334L944.559016,124.091294L944.779631,124.014684L943.773857,124.586899L943.653157,124.795043L943.838366,124.884715L944.478149,124.962353L945.200965,124.936684L945.353153,124.895805L945.751975,124.655008L945.896078,124.635050L946.149700,124.779201L946.161811,124.890102L946.099920,125.341441L946.248091,125.346513L946.749996,125.298327L947.016703,125.328443L947.060265,125.404847L947.064589,125.512012L947.127115,125.604284L947.074260,125.740327L946.875031,125.924279L946.841152,126.062896L946.859783,126.118093L947.126999,126.061310L947.339775,126.136493L947.557882,126.060358L947.968673,125.991207L948.121202,126.029906L948.359877,126.142837L948.657571,126.200259L949.320177,126.167265L950.406174,125.943628L950.599879,125.845303L950.796329,125.710199L951.605037,125.238097L952.778362,124.674966L953.202452,124.421242L953.629315,124.126752L953.986436,123.962138L954.777227,123.815281L954.949822,123.758001L955.111862,123.734901L955.224622,123.647253L955.357227,123.480846L955.328880,123.362866L955.338053,123.226566L955.420932,123.130445L956.169173,122.596032L956.758168,122.126476L957.314210,121.617572L957.623654,121.407905L958.248481,121.045840L958.469247,120.847474L958.285864,120.716190L958.291959,120.633722L958.677293,120.636555L959.201544,120.171261L959.659597,119.670212L959.950937,119.377433L960.753944,118.672346L960.742715,118.597978L960.663607,118.551227L961.015366,118.521734L961.278820,118.373029L961.539475,118.139032L961.784958,118.082893L962.161596,118.079129L962.354496,118.015780L962.756694,117.838605L963.068580,117.725100L963.359314,117.652361L963.735456,117.528211L964.129947,117.368961L964.182866,117.169288L964.206980,116.868400L964.264336,116.745545L964.392430,116.943932L964.427492,117.141079L964.514288,117.278683L964.679480,117.251412L964.851252,117.155810L965.016585,116.989692L965.190389,116.889085L965.377520,116.825463L965.467725,116.866519L965.526789,116.975901L965.081467,117.168035L965.125006,117.200946L965.295482,117.161452L965.859926,117.102839L965.888627,117.285892L966.104300,117.354227L966.392355,117.335106L966.533390,117.300311L966.690002,117.202514L966.874693,117.053944L967.076868,116.751186L967.084082,116.663435L966.796867,116.607024L966.525039,116.486369L966.574898,116.296772L966.647308,116.153556L966.755094,115.994983L966.692761,115.919457L966.195790,115.984955L966.366209,115.892819L966.573619,115.866807L966.827573,115.776236L967.039597,115.632071L967.020130,115.503258L966.899209,115.454677L966.962836,115.367857L967.250206,115.323975L967.649096,115.128066L968.058006,114.892009L968.714738,114.686646L969.016987,114.566237L969.331181,114.417906L970.024381,113.981896L971.395375,112.944042L971.627903,112.802348L972.824705,112.148753L973.110086,111.957784L973.317495,111.695283L973.675468,111.535323L974.071599,111.285199L974.914769,110.791787L975.084758,110.671895L975.376798,110.437686L975.360415,110.234297L975.286200,110.167951L975.020315,110.211867L975.505422,109.859127L975.464638,109.675667L975.497324,109.567127L975.594358,109.430374L975.842804,109.224190L976.122135,109.098071L976.341148,109.049892L976.623603,108.894211L977.003423,108.647689L977.222568,108.372375L976.819731,108.593091L976.235992,108.842195L975.984424,108.821576L976.219514,108.741943L976.622250,108.555946L976.746936,108.443530L977.051214,108.258617L977.251127,108.098391L977.027095,108.114290L977.091886,107.987387L976.920533,108.005202L976.800013,108.050051L976.687013,108.054822L976.500658,108.012836L976.408854,108.126373L976.369996,108.270059L976.122323,108.359984L975.861483,108.548961L975.838560,108.644198L975.610386,108.813328L975.261807,108.919265L975.635660,108.659750L975.799430,108.439719L976.082366,108.263067L976.083873,108.137184L976.170968,108.058320L976.396153,107.985479L976.696392,107.766839L976.531793,107.787533L976.332036,107.874430L975.972135,107.944755L975.807337,107.998840L975.053955,108.366974L974.621007,108.527370L974.177882,108.721000L973.707236,108.958903L973.408946,108.943048Z M991.394566,92.244131L991.521382,91.897592L991.461358,91.686671L991.454718,91.538586L991.386091,91.561723L991.329279,91.619568L991.123336,91.754770L990.979084,92.035800L990.987230,92.079448L991.135790,92.223627L991.133188,92.363189L991.303725,92.429006L991.394566,92.244131Z M987.810158,87.704108L987.799523,87.583955L987.725100,87.428399L987.785592,87.274540L987.768084,86.741874L987.716094,86.568282L987.733615,86.362679L988.158477,86.007347L987.679025,86.020103L987.171226,86.094683L987.261875,86.688479L987.407214,87.250925L987.449944,87.598398L987.433549,87.978000L987.218631,88.339893L986.859704,88.614554L986.896563,88.757706L986.920303,89.039199L987.031972,89.067522L987.025566,89.157440L986.939977,89.299102L986.936241,89.417401L986.996256,89.608910L987.103676,89.544956L987.411263,89.268460L987.599694,89.143935L987.789732,89.034588L987.934230,88.976302L988.044418,88.998364L987.925500,89.126807L987.795803,89.232549L987.364766,89.470134L987.010937,89.752336L987.206295,91.893955L987.207491,92.101603L987.131613,92.516655L987.185077,92.622500L987.347028,92.574869L987.505085,92.407838L987.517292,92.278524L987.426385,91.793780L987.450219,91.360119L987.556552,91.143688L987.663834,90.989738L987.588728,91.368381L987.566652,91.713117L987.906444,92.141946L987.983055,92.123758L988.011372,91.960743L988.121380,91.850644L988.204402,91.875771L988.307956,92.111193L988.245333,92.226603L988.028864,92.391632L987.922267,92.571561L988.013929,92.671786L988.023034,92.825275L987.919619,93.028066L987.746040,93.210357L987.585415,93.337073L987.399217,92.940728L987.227749,92.965540L987.273194,93.757269L987.251127,93.900534L987.117334,94.287640L987.077705,94.488792L987.178700,94.595319L987.330773,94.637333L987.542583,94.590356L987.768244,94.514266L987.915038,94.495078L988.019625,94.972759L987.831658,94.987974L987.622194,95.058426L987.380129,95.194031L987.208220,95.414613L987.272494,94.986320L987.175264,94.922481L987.050907,95.016751L986.915428,95.610696L986.899453,95.787244L987.035079,95.833856L986.853367,96.017974L986.694148,96.205034L986.628944,96.394371L986.502469,97.004731L986.466692,97.408066L986.298584,97.463168L986.120102,97.558183L985.921949,97.715520L985.747285,98.144769L985.492927,98.405058L984.957659,98.829144L984.335435,99.511873L983.843668,100.106869L983.378768,100.710421L983.165288,100.900024L982.680120,101.182097L982.432567,101.305385L982.295398,101.337426L982.177278,101.333830L981.386035,101.535153L980.520815,101.896608L980.347399,101.997422L980.185040,102.136676L980.018822,102.317244L979.887851,102.495413L979.807208,102.686804L979.770881,102.852042L979.908329,103.129259L980.351067,103.325691L980.725756,103.575465L980.787065,103.880023L980.907949,104.137932L981.151102,104.251097L981.462581,104.294085L981.771795,104.598307L981.776628,105.135612L981.718527,105.413876L981.618520,105.709765L980.944947,106.418839L980.556106,106.799423L979.602807,107.538147L978.620256,108.226198L977.782887,108.742895L977.622097,108.852028L977.468810,108.976025L977.430587,109.051477L977.467661,109.095535L977.705253,109.092366L978.018878,108.980146L978.031435,108.889771L978.144269,108.785411L978.255355,108.760346L978.298776,108.824114L978.141282,108.939560L977.822554,109.348676L977.788999,109.412643L977.832780,109.441456L978.335804,109.306235L978.569372,109.391111L978.540000,109.493692L978.374087,109.772154L978.320701,109.899919L978.463015,110.017207L978.730479,109.918257L979.016695,109.782908L979.984941,109.372744L980.627554,109.075567L981.284071,108.728616L981.703089,108.456870L982.115114,108.129553L982.856530,107.633406L983.294179,107.281190L983.739104,106.950214L984.228267,106.630633L984.909942,106.211022L985.484676,105.723249L985.865741,105.509336L986.231873,105.276880L987.173296,104.461428L988.129986,103.674328L987.904261,103.448664L987.949146,103.282847L988.093177,103.068188L988.434765,102.658169L988.881677,102.322457L989.111380,102.171886L989.336215,102.052871L989.957196,101.817955L990.339870,101.702059L990.670776,101.677568L991.004152,101.717405L991.299134,101.801635L991.335447,101.914555L991.272243,102.184274L991.329484,102.231212L991.712778,101.907050L991.786748,101.746790L991.767634,101.639358L991.845803,101.503460L992.281764,100.962546L992.721476,100.499737L993.082887,100.404675L993.482851,100.202338L993.909854,99.925052L994.285700,99.564776L994.926219,98.745871L995.596201,97.934140L995.978427,97.576656L996.382821,97.249664L996.583827,97.028171L996.490686,96.918886L996.266809,96.779202L996.138267,96.604811L995.444780,96.564181L995.247907,96.651385L995.035176,96.773918L994.684102,96.906008L994.340923,97.073730L993.899852,97.419285L993.452729,97.722116L993.032137,97.924579L992.636839,98.037322L992.461788,98.046222L992.172424,98.020181L991.315344,97.695731L991.020730,97.497480L990.469151,96.987563L990.371861,96.932754L990.222592,96.943320L990.044107,96.869355L989.948179,96.719094L989.979492,96.636521L990.075356,96.587304L990.228039,96.671863L990.294028,96.508022L990.173251,96.165377L990.485152,95.378568L990.888968,94.542387L990.970866,94.262496L990.950933,94.023616L991.073928,93.788370L990.799790,93.828405L990.729708,93.260315L990.764386,93.068427L990.760930,92.909301L990.540824,92.994322L990.385840,93.182567L990.423881,93.302995L990.422248,93.446587L990.387233,93.633855L990.302495,93.832045L990.155475,94.031557L990.032257,94.230734L989.810439,94.843093L989.614155,95.225450L989.453896,95.367655L989.197486,95.419573L989.011137,95.386505L989.013604,95.214536L989.203546,94.824238L989.230726,94.662805L989.127991,94.588371L988.709224,94.388217L988.573237,94.187392L988.452008,94.228418L988.287814,94.378623L988.251411,94.253893L988.160415,94.188384L987.967349,94.147689L988.052198,93.993838L988.181818,93.920055L988.518275,93.499194L988.712557,93.371482L988.779050,92.960578L988.944301,92.804103L989.042716,92.622169L989.292388,92.346322L989.218211,91.571309L989.214001,91.321125L989.269536,90.906498L989.215990,90.613243L989.250409,90.533344L989.603139,90.601027L989.749812,90.573293L989.788733,90.173906L989.933741,90.037310L990.056099,89.885571L990.094182,89.453654L990.054474,89.307339L990.046747,89.160075L990.066509,89.165016L990.099079,89.016476L990.106503,88.754086L989.989579,88.777126L989.660363,88.962801L989.511341,88.933826L989.517179,88.808725L989.584054,88.652066L989.696205,88.503683L989.712901,88.404350L989.382680,88.115687L989.222012,88.011843L989.106578,88.062118L988.979564,88.154142L988.876915,88.107142L988.846595,87.942518L988.349032,87.745152L988.290851,87.683095L988.479722,87.400182L988.194103,87.575421L987.979728,87.748435L987.762995,87.858125L987.810158,87.704108Z M7.556538,2.688813L7.544655,2.659276L7.526625,2.633310L7.503103,2.612862L7.495230,2.615134L7.512522,2.653109L7.536084,2.678751L7.551216,2.698226L7.556538,2.688813Z M3.420504,0.000000L3.416173,0.004869L3.433780,0.042195L3.455243,0.083417L3.472611,0.121068L3.485122,0.113928L3.474624,0.069785L3.452549,0.032133L3.420504,0.000000Z "/></g></svg>