<?xml version="1.0" encoding="utf-8"?><!DOCTYPE svg  PUBLIC '-//W3C//DTD SVG 1.1//EN'  'http://www.w3.org/Graphics/SVG/1.1/DTD/svg11.dtd'><svg enable_background="new 0 0 1000 147" height="147px" pretty_print="False" style="stroke-linejoin: round; stroke:#000; fill: none;" version="1.1" viewBox="0 0 1000 147" width="1000px" xmlns="http://www.w3.org/2000/svg" xmlns:xlink="http://www.w3.org/1999/xlink"><defs><style type="text/css"><![CDATA[path { fill-rule: evenodd; }]]></style></defs><metadata><views><view h="147.458013703" padding="0" w="1000"><proj flip="auto" id="robinson" lon0="171.228812072"/><bbox h="733.91" w="5011.06" x="-2546.32" y="143.26"/></view></views></metadata><g class="" fill="#000" id="country"><path d="M930.966714,145.458014L931.094404,145.417422L931.162317,145.370417L931.214792,145.338347L931.282805,145.312645L931.313097,145.280602L931.367489,145.203721L931.415204,145.216435L931.475479,145.203537L931.476836,145.156614L931.421453,145.130354L931.432231,145.102943L931.418080,145.085875L931.382573,145.088720L931.423129,145.058527L931.421378,145.041448L931.374388,145.041482L931.270628,145.077846L931.201092,145.107777L931.098711,145.169694L931.019556,145.225148L930.939365,145.286946L930.877016,145.272127L930.807354,145.250869L930.759110,145.246589L930.706268,145.274886L930.696410,145.309269L930.711142,145.357553L930.760524,145.334011L930.780090,145.344629L930.774507,145.376693L930.797587,145.391710L930.815803,145.419503L930.824626,145.443020L930.901523,145.451561L930.966714,145.458014Z M928.789009,139.917203L928.750275,139.878558L928.725074,139.875163L928.702476,139.882214L928.642701,139.910937L928.409868,139.950624L928.374512,139.950102L928.352862,139.900231L928.331147,139.880647L928.290004,139.875163L928.271482,139.915114L928.271624,139.941747L928.289020,139.984825L928.286044,140.011454L928.277465,140.032077L928.282828,140.045652L928.606697,140.070189L928.653178,140.039909L928.682002,140.046174L928.721020,140.041997L928.817391,140.012759L928.900253,140.000228L928.950632,139.984825L928.927222,139.953496L928.789009,139.917203Z M930.049640,138.839270L930.074124,138.818337L930.029065,138.830635L929.886094,138.852353L929.853363,138.850260L929.827235,138.830635L929.787972,138.836130L929.740208,138.851306L929.685647,138.862295L929.690938,138.915406L929.617856,138.986300L929.514183,139.063722L929.426637,139.136686L929.322219,139.235264L929.218213,139.311079L929.113519,139.368849L928.590123,139.563021L928.367862,139.693386L928.220755,139.875163L928.343573,139.808571L928.404210,139.779320L928.427972,139.776447L928.421445,139.816406L928.428605,139.839387L928.451951,139.850356L928.493937,139.853228L928.537469,139.846700L928.583273,139.826330L928.629489,139.792118L928.676392,139.743538L928.701536,139.704357L928.701803,139.682415L928.693719,139.663606L928.693961,139.634086L928.730375,139.634608L928.756628,139.668570L928.782980,139.677713L928.816109,139.665435L928.829181,139.636960L928.829050,139.607176L928.822305,139.590194L928.887296,139.556750L928.918465,139.561715L928.926498,139.588626L928.922532,139.622068L928.890903,139.668309L928.827684,139.718463L928.756454,139.767045L928.700046,139.809355L928.796684,139.775664L928.847820,139.752941L928.906228,139.719769L928.880828,139.789245L928.922291,139.821629L928.980212,139.844088L929.000661,139.886131L929.023311,139.903625L929.091026,139.874380L929.170677,139.820323L929.229408,139.765478L929.230004,139.744322L929.212509,139.720291L929.183833,139.702790L929.152182,139.699655L929.173089,139.677713L929.192584,139.679541L929.239987,139.675884L929.259688,139.677713L929.274892,139.650283L929.298050,139.622068L929.327920,139.594374L929.365662,139.566418L929.336974,139.561453L929.264017,139.568769L929.227068,139.566418L929.306426,139.513113L929.383378,139.456667L929.332970,139.453269L929.283178,139.412498L929.233209,139.412760L929.254043,139.390805L929.332381,139.379565L929.454792,139.392111L929.537533,139.368849L929.522012,139.347153L929.491406,139.335913L929.450178,139.335652L929.400889,139.347153L929.500981,139.295133L929.533927,139.281277L929.543635,139.262977L929.577569,139.215393L929.586941,139.222714L929.615630,139.230557L929.626114,139.237355L929.675833,139.158914L929.687567,139.127534L929.683238,139.103736L929.745885,139.083337L929.764736,139.096152L929.787294,139.105043L929.863261,139.070783L929.895550,139.046460L929.920648,139.021873L929.947074,139.001994L929.979062,138.994147L930.084381,138.994147L930.084380,138.976883L930.100386,138.940259L930.125625,138.902587L930.151997,138.884273L930.016663,138.905988L929.977041,138.904418L930.002117,138.883750L930.049640,138.839270Z M964.611636,136.231661L964.643567,136.210096L964.699270,136.156177L964.763454,136.101201L964.835565,136.047010L964.900482,135.993339L964.941452,135.938611L964.944740,135.908614L964.923931,135.894141L964.888255,135.892562L964.844502,135.902035L964.773193,135.932296L964.558234,136.040696L964.494361,136.078841L964.410701,136.168013L964.423108,136.214567L964.486514,136.231924L964.587768,136.234817L964.611636,136.231661Z M938.330053,130.750673L938.339916,130.721572L938.419897,130.654108L938.451527,130.632678L938.391769,130.646964L938.159735,130.765488L938.138831,130.789827L938.251370,130.768398L938.264410,130.777922L938.247216,130.825806L938.245146,130.844589L938.259281,130.856494L938.292206,130.818928L938.314477,130.783478L938.330053,130.750673Z M942.641784,128.180420L942.738458,128.140993L942.795490,128.113739L942.806782,128.070608L942.742086,128.076430L942.650442,128.112416L942.580730,128.158193L942.568776,128.197091L942.641784,128.180420Z M944.511409,126.725182L944.562100,126.700324L944.635502,126.645320L944.621985,126.620992L944.593887,126.613059L944.552214,126.617290L944.503556,126.638974L944.456657,126.682077L944.438149,126.724653L944.462932,126.736024L944.511409,126.725182Z M946.788139,126.725182L946.887560,126.671764L946.976109,126.604333L946.995974,126.532146L946.943171,126.575511L946.889732,126.603011L946.840008,126.617290L946.796644,126.620992L946.783549,126.661715L946.785658,126.692919L946.778751,126.721744L946.737944,126.755858L946.788139,126.725182Z M945.464031,126.426383L945.387366,126.371918L945.352826,126.377735L945.289581,126.409991L945.241940,126.426648L945.206537,126.421095L945.155195,126.398886L945.074158,126.401266L945.002154,126.417923L944.926744,126.464986L944.835745,126.556472L944.814967,126.574453L944.790856,126.590848L944.771337,126.609093L944.762204,126.632892L944.760985,126.648758L944.757291,126.662773L944.748654,126.678639L944.731992,126.699530L944.701665,126.723331L944.661371,126.747395L944.626412,126.775956L944.612576,126.811394L944.604576,126.925645L944.580683,126.994940L944.532454,127.068469L944.488525,127.113434L944.444348,127.148614L944.347131,127.212891L944.290829,127.239078L944.214237,127.239078L944.167829,127.256272L944.096380,127.326372L944.043671,127.412876L943.988113,127.490652L943.906285,127.534568L943.873412,127.531922L943.854572,127.517636L943.828302,127.508906L943.774434,127.522398L943.682820,127.558114L943.637494,127.579543L943.583217,127.612348L943.525002,127.657854L943.494887,127.693835L943.471882,127.731405L943.434397,127.780616L943.387133,127.821362L943.340383,127.855228L943.315785,127.885127L943.338012,127.912115L943.215830,127.950216L943.132613,127.986466L943.076334,127.992816L943.031839,128.013984L942.958486,128.065316L942.860178,128.144169L942.773911,128.226727L942.735001,128.289705L942.775249,128.304524L942.868831,128.299232L942.971054,128.281238L943.037168,128.259010L943.113747,128.212438L943.194949,128.170630L943.228791,128.169571L943.160975,128.248955L943.306545,128.173276L943.371278,128.131468L943.454927,128.069285L943.252606,128.121942L943.160522,128.135172L943.150743,128.091777L943.245390,128.069021L943.456081,127.977205L943.475589,128.002871L943.559120,127.924021L943.570024,127.912115L943.599274,127.901002L943.650626,127.891741L943.740717,127.848878L943.742171,127.872426L943.719295,127.919259L943.711341,127.958419L943.739877,127.962652L943.845297,127.949422L943.869753,127.968473L943.881151,127.995462L943.911139,128.013455L943.956299,128.014513L944.011098,127.990699L944.104940,127.936722L944.377327,127.806545L944.464134,127.780616L944.645762,127.756539L944.839586,127.756539L944.852525,127.706006L944.913506,127.739871L944.956131,127.723467L945.007427,127.643567L945.040852,127.620285L945.095463,127.623460L945.103940,127.636688L945.088024,127.678755L945.092576,127.689867L945.111117,127.691190L945.141073,127.688015L945.169686,127.677432L945.182705,127.656795L945.175942,127.625048L945.116295,127.556791L945.135073,127.534568L945.167927,127.537478L945.190540,127.547002L945.217038,127.550177L945.259411,127.534568L945.284299,127.512875L945.370313,127.430335L945.409142,127.399384L945.397102,127.389596L945.388786,127.372136L945.388776,127.348593L945.402604,127.322933L945.404880,127.309706L945.380742,127.314997L945.331094,127.332721L945.296319,127.334572L945.119023,127.378485L945.090091,127.377427L945.108837,127.355206L945.138951,127.343831L945.162811,127.330340L945.186187,127.313410L945.215315,127.290660L945.146134,127.251511L945.093274,127.235904L945.060319,127.189878L945.042557,127.179562L944.963595,127.205484L944.788368,127.306003L944.716993,127.312881L944.972490,127.159988L945.010178,127.124015L945.036907,127.061063L945.104257,127.039374L945.246720,127.044135L945.191541,127.088571L945.410578,127.108938L945.492071,127.088571L945.509003,127.068469L945.476370,127.044135L945.562566,127.002346L945.565744,126.961350L945.531828,126.931464L945.507425,126.922471L945.529764,126.878040L945.518273,126.847890L945.496450,126.821708L945.486940,126.789179L945.491368,126.507291L945.483256,126.462871L945.464031,126.426383Z M945.110899,122.945368L945.088982,122.912184L945.068532,122.908497L945.017526,122.911130L944.755942,122.974340L944.691539,122.972497L944.654371,122.979608L944.594921,123.027547L944.524150,123.077070L944.508289,123.087080L944.459484,123.109736L944.385485,123.162163L944.312492,123.220918L944.263723,123.263604L944.332945,123.246740L944.396710,123.220391L944.696661,123.053098L944.746180,123.048093L944.733295,123.109209L944.699489,123.146619L944.653695,123.211959L944.615143,123.275988L944.602662,123.309982L944.616668,123.316306L944.641832,123.315252L944.673506,123.302603L944.739737,123.244105L944.747680,123.260442L944.740109,123.293117L944.731839,123.309982L944.795859,123.303130L944.866078,123.273617L944.938009,123.222235L945.006711,123.151097L945.055759,123.081811L945.095018,123.007528L945.110899,122.945368Z M946.771313,121.890935L946.850751,121.673555L946.902142,121.564503L946.973385,121.447856L946.975329,121.436561L946.974914,121.428681L946.977281,121.419487L946.989712,121.403727L946.650948,121.624413L946.607896,121.655947L946.601448,121.670138L946.565499,121.681439L946.551111,121.706669L946.546298,121.747407L946.531417,121.791828L946.563406,121.815486L946.606956,121.832310L946.630813,121.855444L946.643051,121.896982L946.671657,121.905396L946.771313,121.890935Z M42.657622,118.781101L42.703283,118.721740L42.653632,118.652708L42.645010,118.611919L42.689906,118.556230L42.589943,118.516491L42.560556,118.501850L42.535523,118.481982L42.516381,118.461329L42.495421,118.440939L42.467932,118.424992L42.422344,118.415059L42.371288,118.416104L42.327848,118.426822L42.305769,118.446428L42.303556,118.481982L42.326546,118.498190L42.370969,118.515445L42.434100,118.556230L42.450148,118.580544L42.486610,118.663952L42.494347,118.690100L42.512402,118.699775L42.511340,118.709973L42.529960,118.720432L42.568197,118.745536L42.586601,118.755996L42.621419,118.800976L42.657622,118.781101Z M40.028334,116.787969L39.946561,116.759243L39.918694,116.752975L39.873584,116.766555L39.884562,116.803116L39.918476,116.856130L39.941275,116.917241L39.914635,116.948580L39.696725,116.972085L39.659915,116.961899L39.556477,116.917502L39.540455,116.906272L39.517241,116.922725L39.540698,116.946752L39.578890,116.973391L39.598540,116.995851L39.575418,117.032414L39.530687,117.045734L39.497376,117.066889L39.510063,117.127482L39.640437,117.190165L39.786335,117.138451L39.892397,117.171099L39.917614,117.154122L39.960573,117.156211L39.978402,117.149421L39.927151,117.105543L39.926657,117.081776L39.964810,117.094051L39.981634,117.085693L39.996120,117.070023L40.027935,117.061665L40.071637,117.067411L40.116738,117.081776L40.217066,117.127482L40.323715,117.184419L40.605959,117.379533L40.687499,117.455546L40.679818,117.506223L40.650008,117.542795L40.666942,117.578584L40.661805,117.606798L40.598904,117.716262L40.562643,117.743172L40.559888,117.766686L40.585201,117.781579L40.623490,117.794643L40.658210,117.810842L40.826194,117.934170L40.896591,117.994270L40.962209,118.062997L41.006863,118.090437L41.064209,118.100368L41.229078,118.100368L41.244761,118.095925L41.206590,118.030071L41.284927,117.982773L41.304895,117.929989L41.353775,117.904382L41.365748,117.886614L41.425308,117.872504L41.532706,117.867017L41.587974,117.841673L41.489516,117.766948L41.446108,117.751010L41.360148,117.734551L41.304876,117.710253L41.214621,117.659309L41.175650,117.628482L41.128734,117.578584L41.051647,117.507791L41.017774,117.586160L40.919999,117.543840L40.876361,117.503611L40.843921,117.462860L40.807489,117.421588L40.751433,117.379533L40.567548,117.269828L40.544910,117.227254L40.615606,117.081776L40.334699,117.035548L40.251472,116.995851L40.180995,116.920636L40.225345,116.903138L40.396435,116.928210L40.542496,116.929777L40.641285,116.953542L40.743916,117.017789L40.785236,117.078642L40.802223,117.148898L40.799675,117.207926L40.783686,117.236918L40.826093,117.269045L40.860244,117.302739L40.924708,117.379533L40.957677,117.408527L40.982003,117.415841L40.991214,117.405393L40.977402,117.379533L40.977510,117.379533L40.933569,117.317105L40.911768,117.264343L40.875672,117.068456L40.882696,116.965817L40.948567,116.916457L41.104768,116.972085L41.063115,116.921942L41.048493,116.884335L41.061305,116.863181L41.102383,116.862398L41.085788,116.842811L40.531907,116.886163L40.456052,116.875194L40.210726,116.796587L40.171253,116.792148L40.064343,116.796587L40.028334,116.787969Z M977.153300,108.495044L977.177564,108.451643L977.210723,108.414853L977.223113,108.390236L977.183782,108.383883L977.137970,108.398177L977.086926,108.424382L977.035011,108.446879L976.984000,108.450584L976.973342,108.486576L976.983552,108.508539L977.013104,108.512508L977.060058,108.495044L977.016328,108.554577L976.930902,108.608544L976.855651,108.628911L976.842777,108.586059L976.593132,108.729934L976.556932,108.744212L976.497104,108.738395L976.466180,108.741039L976.453749,108.745798L976.404837,108.771708L976.381269,108.784927L976.379794,108.785984L976.511197,108.792593L976.558724,108.785456L976.598300,108.768800L976.707138,108.714069L976.757388,108.696616L976.806724,108.694501L976.853151,108.699261L976.902458,108.696616L976.961309,108.672286L977.008714,108.634730L977.100290,108.537380L977.153300,108.495044Z M976.856626,107.312108L976.946986,107.227585L976.990712,107.182122L977.026867,107.135322L977.050642,107.087449L977.022219,107.107131L976.922479,107.200467L976.870237,107.237155L976.825153,107.263470L976.727896,107.312108L976.820002,107.312108L976.751993,107.346387L976.647848,107.371895L976.603950,107.402979L976.630948,107.349576L976.682528,107.290581L976.717759,107.242737L976.693319,107.222799L976.659663,107.236889L976.622783,107.267457L976.578990,107.312108L976.555460,107.304932L976.568027,107.277823L976.584372,107.251509L976.573086,107.246990L976.536935,107.275431L976.409018,107.399791L976.366279,107.447606L976.333768,107.500989L976.322449,107.544007L976.326468,107.577460L976.340058,107.603476L976.324350,107.624181L976.274077,107.616484L976.259598,107.587017L976.257411,107.548255L976.243366,107.512674L976.200048,107.549317L976.164205,107.589672L976.138265,107.630817L976.125431,107.668241L976.142167,107.656298L976.195685,107.624181L976.181701,107.660810L976.155149,107.693187L976.118706,107.718661L976.074650,107.735112L976.060844,107.748378L976.051499,107.759521L976.039742,107.770664L976.020753,107.781806L976.041878,107.799845L976.082935,107.797723L976.133844,107.782071L976.184957,107.759521L976.204141,107.744664L976.229573,107.721580L976.257080,107.700086L976.283185,107.690533L976.366086,107.668241L976.394177,107.652316L976.457003,107.611706L976.479030,107.603476L976.530535,107.606662L976.544132,107.603476L976.589171,107.565779L976.663258,107.481337L976.697133,107.447606L976.722444,107.429809L976.795481,107.385445L976.817024,107.376677L976.836537,107.367113L976.848188,107.345325L976.856626,107.312108Z M974.680026,106.431996L974.520391,106.411193L973.967287,106.435997L973.800529,106.495194L973.606071,106.617544L973.630421,106.630602L973.673187,106.624739L973.727061,106.604486L973.784617,106.573036L973.784710,106.584764L973.791587,106.617544L973.766840,106.647655L973.658333,106.681759L973.635004,106.729444L973.606429,106.745159L973.570937,106.762205L973.539668,106.771792L973.510984,106.751018L973.475202,106.772591L973.437495,106.802950L973.412009,106.818927L973.384312,106.804814L973.414737,106.768597L973.538918,106.660445L973.411322,106.697211L973.215380,106.802950L972.716420,107.110854L972.502426,107.210304L972.481683,107.222799L972.442707,107.232104L972.331290,107.280215L972.272023,107.310779L972.250119,107.313968L972.215128,107.312373L972.211818,107.312108L972.187453,107.320346L972.160718,107.340542L972.136475,107.361799L972.116564,107.376677L972.093013,107.384117L972.075670,107.383851L972.055899,107.386242L972.024946,107.402979L972.008500,107.417324L971.978000,107.451590L971.955054,107.469917L971.831439,107.548786L971.747947,107.613564L971.714558,107.633206L971.684304,107.641965L971.648715,107.643823L971.606532,107.669037L971.562551,107.726356L971.501626,107.828227L971.234265,108.182096L971.122752,108.351056L971.095011,108.381235L971.015032,108.455348L970.978267,108.495044L970.728736,108.853654L970.713311,108.893826L970.695782,108.985251L970.662604,108.986308L970.620379,109.000310L970.584529,109.014840L970.568621,109.019331L970.549717,109.010613L970.512901,109.041520L970.444191,109.119963L970.388500,109.190201L970.354035,109.228219L970.269431,109.291044L970.239971,109.321660L970.217792,109.353593L970.204678,109.383675L970.134311,109.402674L970.019807,109.448317L969.906701,109.503187L969.839266,109.550664L969.806722,109.589432L969.771322,109.624240L969.733100,109.655616L969.688842,109.684618L969.667162,109.695427L969.655630,109.700172L969.645569,109.707817L969.589414,109.774770L969.571309,109.787158L969.557024,109.789530L969.529758,109.806133L969.273977,110.007689L969.194110,110.062208L969.150341,110.085120L969.110401,110.101973L969.073872,110.121459L968.996384,110.197287L968.964884,110.204395L968.933798,110.198340L968.888139,110.205974L968.850444,110.224139L968.726684,110.296261L968.358823,110.443621L968.185982,110.494921L968.165105,110.496236L968.117391,110.493080L967.912221,110.517018L967.769097,110.494921L967.704649,110.523331L967.588973,110.675602L967.578096,110.694007L967.571179,110.717670L967.609704,110.693745L967.598613,110.730290L967.447720,110.853049L967.339527,110.958429L967.252012,111.022013L967.047832,111.224789L966.963487,111.298312L966.879278,111.355546L966.708074,111.456871L966.674322,111.482592L966.584464,111.562110L966.516234,111.633743L966.374568,111.752846L965.927330,112.227673L965.755299,112.373107L965.481724,112.553079L965.404904,112.627724L965.315454,112.730089L965.249669,112.777773L965.147899,112.836159L964.677517,113.185850L964.609439,113.211494L964.451833,113.324527L964.359306,113.383915L964.296197,113.409029L964.259411,113.420801L964.212210,113.448269L964.124045,113.509217L964.070262,113.550282L963.999792,113.579419L963.928188,113.600500L963.895439,113.609131L963.835746,113.640515L963.325054,113.992464L963.251752,114.027495L963.182124,114.053114L962.986081,114.178062L962.901767,114.224848L962.768625,114.269019L962.721442,114.290712L962.658964,114.325994L962.617012,114.349952L962.584802,114.354537L962.541337,114.356571L962.447975,114.367548L962.285172,114.441243L961.986361,114.516763L961.831910,114.575817L961.795880,114.599799L961.757740,114.611353L961.705189,114.665438L961.664874,114.643752L961.601158,114.671970L961.526568,114.718477L961.452553,114.751396L961.449716,114.781441L961.412635,114.801476L961.333388,114.826684L961.127428,114.838656L961.108008,114.862690L961.042673,114.911471L960.936964,114.956997L960.770023,115.051821L960.606070,115.191305L960.701823,115.151341L960.828762,115.067494L960.948677,115.001667L961.021688,115.016295L960.652753,115.259215L960.627957,115.251902L960.595795,115.220559L960.571211,115.213245L960.523945,115.219514L960.474907,115.235186L960.371872,115.279065L960.287521,115.303617L960.244628,115.323989L960.188335,115.368912L960.122299,115.420110L960.056464,115.452183L959.984219,115.469725L959.892695,115.554864L959.817435,115.605529L959.336618,115.761697L959.244781,115.803480L959.140913,115.863543L959.067438,115.933268L959.027771,115.976758L958.974333,116.006647L958.895861,116.018137L958.796873,116.074020L958.762583,116.114193L958.718029,116.149488L958.645166,116.190485L958.456974,116.311129L958.394044,116.336720L958.329230,116.350299L958.114136,116.445874L958.050957,116.451619L957.960661,116.430728L957.820067,116.492356L957.691979,116.519253L957.624646,116.553723L957.577834,116.572769L957.551074,116.577542L957.530802,116.574092L957.512386,116.568608L957.434777,116.575659L957.402289,116.583493L957.352693,116.603601L957.303384,116.629193L957.270900,116.654262L957.201787,116.701268L957.101657,116.735478L956.936218,116.774651L956.650682,116.889297L956.584446,116.906272L956.516789,116.930560L956.328884,117.037638L956.259933,117.061665L956.227459,117.069501L956.122038,117.109983L956.087949,117.127482L956.056757,117.153600L956.028710,117.185555L955.992759,117.213239L955.922803,117.247627L955.688677,117.327553L955.617004,117.358375L955.529738,117.403042L955.346863,117.476705L955.072416,117.617509L954.864183,117.696146L954.679114,117.738208L954.567177,117.721226L954.553985,117.670281L954.559018,117.613068L954.531864,117.591124L954.422342,117.645724L954.391419,117.655129L954.328880,117.648336L954.277376,117.667146L954.232812,117.690659L954.150877,117.724623L954.028948,117.764858L953.914148,117.785237L953.742821,117.794643L953.679639,117.807445L953.609030,117.830699L953.632665,117.868324L953.643942,117.876424L953.603792,117.888182L953.558746,117.905427L953.511592,117.927376L953.462970,117.953245L953.410160,117.991657L953.369846,118.031639L953.340232,118.065349L953.320605,118.084949L953.153585,118.182953L952.976163,118.273123L952.731464,118.370620L952.554335,118.469956L952.481844,118.497667L952.328342,118.534268L952.310440,118.556230L952.357268,118.578714L952.357678,118.606690L952.357748,118.616887L952.316578,118.666044L952.239320,118.721740L952.204785,118.734030L951.967013,118.734030L951.894173,118.839681L951.768018,118.913173L951.625013,118.971240L951.499429,119.031141L951.102691,119.249336L950.975912,119.328362L950.966837,119.365262L950.944053,119.412632L950.884707,119.505810L950.810492,119.591672L950.794893,119.615757L950.789592,119.639319L950.797335,119.645603L950.808287,119.648221L950.814755,119.659741L950.830999,119.725722L950.864748,119.757144L950.869061,119.769713L950.853675,119.810564L950.819626,119.860061L950.774625,119.907991L950.725534,119.945184L950.760974,119.802708L950.753620,119.769189L950.702239,119.723365L950.661649,119.630418L950.596567,119.614710L950.495997,119.643246L950.361657,119.714724L950.331868,119.728078L950.276969,119.740385L950.251891,119.749812L950.220837,119.770498L950.162173,119.816326L950.127681,119.835705L949.959145,119.871061L949.892721,119.901181L949.833202,119.947280L949.817193,119.981070L949.840466,120.035297L949.851561,120.143240L949.878172,120.165250L949.824763,120.147432L949.794929,120.124113L949.782864,120.086122L949.783825,120.024294L949.768562,120.007004L949.729984,120.020102L949.684564,120.043156L949.615554,120.065686L949.601877,120.089790L949.595948,120.132235L949.567300,120.188310L949.581525,120.255397L949.533554,120.320919L949.466490,120.378061L949.404132,120.420528L949.342629,120.468243L949.278117,120.540871L949.256483,120.509406L949.260769,120.471651L949.292046,120.424461L949.353529,120.364955L949.414800,120.319347L949.455081,120.296282L949.480571,120.274266L949.497246,120.231024L949.471200,120.160010L949.367013,120.171015L949.231206,120.242293L949.108314,120.352897L949.083492,120.392217L949.036627,120.496558L949.028708,120.529858L949.008569,120.576795L948.965282,120.628195L948.921989,120.674616L948.902691,120.706878L948.919144,120.753569L948.910770,120.772981L948.893180,120.796592L948.878157,120.821778L948.868487,120.844603L948.865248,120.862183L948.844633,120.897343L948.793231,120.904165L948.703099,120.894981L948.770206,120.834896L948.783314,120.795543L948.778418,120.762488L948.793013,120.718944L948.820874,120.688518L948.897585,120.626621L948.929510,120.595938L948.946863,120.564732L948.947502,120.540871L948.944282,120.522254L948.947276,120.508095L948.992849,120.408470L948.902197,120.413188L948.613224,120.519107L948.614524,120.534577L948.610482,120.570501L948.613277,120.584924L948.548147,120.587809L948.491378,120.596725L948.431834,120.616656L948.219820,120.715272L948.139305,120.759865L948.090488,120.805249L948.098629,120.832797L948.284799,120.992822L948.324174,121.005158L948.257542,121.041116L948.222046,121.013032L948.196624,120.964479L948.162389,120.939023L948.106517,120.922491L948.061576,120.891832L948.008688,120.873727L947.927317,120.894981L947.851073,120.945584L947.811876,120.998596L947.798998,121.052402L947.800448,121.105164L947.829947,121.136666L947.939663,121.184973L947.946216,121.225670L947.799658,121.209916L947.747201,121.225670L947.715057,121.250616L947.669780,121.315479L947.619830,121.359601L947.612833,121.331236L947.638155,121.294995L947.677393,121.252191L947.709784,121.205453L947.728780,121.060277L947.680837,121.047678L947.573564,121.101489L947.349143,121.249303L947.410124,121.254029L947.431676,121.295257L947.438740,121.403727L947.476640,121.473338L947.474228,121.493829L947.434805,121.517211L947.394167,121.517211L947.361698,121.502761L947.348708,121.481744L947.348343,121.356449L947.318241,121.317054L947.241218,121.315479L947.154305,121.349883L947.091540,121.403727L946.981097,121.547950L946.962401,121.584735L946.981767,121.619946L946.945010,121.684592L946.916146,121.748984L946.886918,121.791565L946.913121,121.814960L947.142998,121.795508L947.221944,121.780525L947.355520,121.739522L947.455367,121.737945L947.452357,121.741887L947.417871,121.756606L947.374314,121.791565L947.319084,121.853078L947.313879,121.868063L947.311781,121.901978L947.329182,121.925377L947.424951,121.921171L947.457798,121.932739L947.394080,121.975335L947.332003,121.993216L947.279017,121.991638L947.242346,121.976913L947.229255,121.947989L947.247182,121.870166L947.241535,121.844403L947.196454,121.840197L946.872538,121.909865L946.810247,121.931950L946.735457,121.976913L946.812606,122.206514L946.821796,122.361211L946.749883,122.466734L946.745096,122.451207L946.724083,122.435154L946.714571,122.422522L946.698469,122.434101L946.680256,122.442522L946.722699,122.333057L946.767425,122.257023L946.762684,122.230452L946.745504,122.211249L946.720425,122.154694L946.687425,122.172055L946.642316,122.214142L946.590371,122.255707L946.528000,122.290435L946.482830,122.307273L946.389900,122.312009L946.377172,122.298064L946.429894,122.268072L946.535472,122.221508L946.594242,122.179946L946.625184,122.148118L946.637518,122.119712L946.643448,122.089466L946.623270,122.022668L946.547601,122.028453L946.449170,122.058959L946.358538,122.067374L946.393076,122.036868L946.429722,122.012412L946.466988,121.992690L946.503810,121.976913L946.432619,121.930373L946.416739,121.889358L946.440648,121.834413L946.424437,121.823372L946.335825,121.861753L946.178677,121.944834L946.098993,121.998212L946.050550,122.038972L946.030328,122.074212L946.034020,122.111559L946.056537,122.141017L946.122115,122.187311L946.142449,122.221508L946.235747,122.146540L946.252906,122.175737L946.228558,122.255444L946.195652,122.332005L946.101394,122.308851L946.034080,122.236240L945.944166,122.189415L945.782647,122.243606L945.714915,122.294118L945.508886,122.488841L945.260989,122.673096L945.221182,122.721538L945.204976,122.780516L945.215335,122.793682L945.257978,122.797895L945.290647,122.794735L945.359247,122.780516L945.390420,122.777883L945.592820,122.707058L945.839383,122.669411L946.319797,122.508843L946.230584,122.590438L946.112580,122.640716L945.904977,122.687313L945.907895,122.722591L945.937024,122.735492L946.026879,122.733649L945.932594,122.779990L945.863278,122.776304L945.759921,122.733649L945.673408,122.744971L945.492195,122.805794L945.410151,122.820014L945.332541,122.840553L945.259578,122.893749L945.199040,122.965385L945.155705,123.042825L945.191439,123.053362L945.470704,123.020698L945.405153,123.051254L945.236337,123.087080L945.168049,123.114741L945.108226,123.149253L944.981922,123.244105L945.028215,123.262023L945.323922,123.199839L945.495552,123.219864L945.540814,123.214067L945.684086,123.175600L945.596351,123.243051L945.509797,123.280995L945.342544,123.330010L945.263293,123.363742L945.220419,123.385089L945.178574,123.409600L945.131229,123.430685L945.094128,123.432266L945.026277,123.420669L944.946240,123.430948L944.769479,123.476810L944.693714,123.487090L944.529836,123.487881L944.436504,123.507123L944.331988,123.555626L944.332255,123.531374L944.369999,123.509232L944.189302,123.509232L944.001561,123.531374L943.932837,123.563007L943.854063,123.638142L943.614472,123.929525L943.575756,123.993882L943.543251,124.037668L943.502734,124.075126L943.481092,124.101506L943.461806,124.142133L943.450633,124.180124L943.455927,124.197009L943.486327,124.184345L943.596552,124.125249L943.646405,124.106519L943.947644,124.042416L944.015623,124.006806L944.051190,123.974891L944.205212,123.873877L944.232440,123.859899L944.305664,123.829835L944.323361,123.811903L944.351134,123.788698L944.380163,123.767075L944.402927,123.752308L944.445383,123.729895L944.491654,123.709065L944.525155,123.704319L944.530153,123.730159L944.504702,123.754945L944.453574,123.788698L944.186216,123.940602L944.176565,123.961175L944.202502,123.979111L944.242572,123.990980L944.276167,123.993882L944.388953,123.967505L944.509575,123.929525L944.405475,124.002850L944.314159,124.031338L944.129550,124.064047L944.022090,124.105727L943.931326,124.155588L943.844505,124.226032L943.750339,124.329729L943.727500,124.307300L943.683488,124.332632L943.632034,124.384354L943.586027,124.440565L943.804649,124.404938L943.921705,124.362979L944.039933,124.261651L944.049342,124.285399L944.026989,124.312577L943.995948,124.337382L943.980362,124.353743L943.980107,124.381979L943.985829,124.383298L944.001366,124.370104L944.146677,124.292523L944.163172,124.285663L944.193464,124.254527L944.203169,124.233155L944.216097,124.209673L944.255829,124.173001L944.328619,124.131581L944.415077,124.100979L944.559320,124.064047L944.786880,123.980693L944.849793,123.973572L944.833090,123.993882L944.740598,124.028172L944.550676,124.113641L944.460168,124.130525L944.383323,124.158490L944.287150,124.224449L944.088917,124.375909L943.908345,124.486751L943.727117,124.585466L943.686404,124.602887L943.588280,124.632188L943.555374,124.653041L943.542064,124.683663L943.544841,124.774743L943.614875,124.868472L943.767360,124.895405L944.132438,124.887483L944.275846,124.929732L944.319378,124.931316L944.369467,124.924450L944.414969,124.923394L944.525229,124.992051L944.549948,124.998389L944.551421,125.008424L944.546727,125.027966L944.550469,125.040906L944.576608,125.031399L944.603463,125.018459L944.632153,125.008952L944.684240,124.998389L944.738139,125.001558L944.815281,125.037737L944.863400,125.042490L944.912354,125.029814L945.027904,124.986241L945.080675,124.974094L945.164049,124.979904L945.212529,124.969605L945.279343,124.929732L945.334442,124.881675L945.375608,124.838372L945.423173,124.793752L945.495319,124.742798L945.525847,124.717982L945.571658,124.665185L945.606610,124.641954L945.633114,124.635619L945.908906,124.663865L945.939752,124.672576L946.004473,124.742798L946.044944,124.757583L946.143358,124.767087L946.157738,124.796921L946.104514,124.861872L946.091997,124.955345L946.098023,125.109043L946.040466,125.148659L945.993006,125.167940L945.946786,125.180618L945.894875,125.199635L945.907222,125.222350L945.942696,125.253518L945.949742,125.275443L945.936606,125.335670L945.935798,125.364464L945.954558,125.376880L945.952383,125.408582L945.959391,125.430773L945.980310,125.441605L946.000875,125.435264L946.065877,125.404619L946.089870,125.397222L946.107614,125.400392L946.130482,125.417300L946.150194,125.425754L946.177884,125.429981L946.215930,125.421263L946.258749,125.387183L946.306568,125.356275L946.357781,125.354954L946.427532,125.366049L946.469693,125.354690L946.503723,125.367370L946.533733,125.386655L946.562934,125.397222L946.584046,125.379786L946.606610,125.341746L946.639564,125.303971L946.691674,125.286537L946.979955,125.247179L947.039557,125.264348L947.049191,125.304763L947.001548,125.529055L946.943556,125.663018L946.937010,125.707412L946.985642,125.712697L947.074604,125.666189L947.164524,125.590090L947.211939,125.508183L947.278612,125.507654L947.262985,125.584277L947.193099,125.689443L947.096405,125.776119L946.877285,125.874959L946.842380,125.896896L946.848895,125.873902L946.861049,125.859631L946.863900,125.850645L946.843167,125.842717L946.816269,125.841395L946.718172,125.862802L946.691866,125.900331L946.679224,125.928876L946.683043,125.947377L946.735179,125.966935L946.725203,125.997596L946.704405,126.028257L946.702012,126.042001L946.740372,126.066584L946.751191,126.166504L946.813551,126.177342L946.832227,126.118658L946.826676,126.030900L946.865480,125.964821L946.935543,125.907996L946.979094,125.918304L947.035827,125.975922L947.266966,125.971164L947.320311,125.997596L947.333119,126.053632L947.270945,126.072135L947.206750,126.058918L947.210849,126.021913L947.186784,126.012926L947.095011,126.011340L947.048824,126.021913L947.015008,126.036451L946.986649,126.052574L946.906804,126.108613L947.321965,126.148793L947.495636,126.108613L947.494739,126.098568L947.498612,126.074249L947.497288,126.064205L947.559612,126.030371L947.564746,126.006054L947.555416,125.976979L947.572969,125.931519L947.699889,125.935219L947.754343,125.948434L947.783454,125.975922L947.734513,125.991781L947.694244,125.996803L947.653540,126.007904L947.603292,126.042001L947.691694,126.042794L947.996859,125.997596L948.094500,125.972750L948.130132,125.972750L948.113896,126.009754L948.091256,126.042001L947.985408,126.245811L947.983675,126.284144L948.025582,126.291018L948.112382,126.288374L948.167711,126.309260L948.224207,126.348124L948.295230,126.368217L948.395026,126.332789L948.438659,126.292075L948.464234,126.252156L948.489129,126.223604L948.525964,126.219639L948.530167,126.236294L948.521492,126.267225L948.523674,126.296834L948.558507,126.310582L948.637991,126.310582L948.660139,126.302915L948.680294,126.287052L948.698540,126.271190L948.749913,126.248719L948.809054,126.176020L948.852175,126.153022L948.878367,126.160688L948.882141,126.161746L948.857305,126.199019L948.792527,126.264052L948.801243,126.294190L948.831758,126.299478L948.932056,126.288374L948.970351,126.279914L949.018012,126.260351L949.114462,126.209329L949.166608,126.188974L949.215299,126.185537L949.293160,126.199548L949.303898,126.206421L949.326705,126.243960L949.438836,126.168354L949.514516,126.173641L949.582454,126.196640L949.669342,126.177342L949.667878,126.161746L949.673912,126.123944L949.672005,126.108613L949.870051,126.037243L949.926324,126.009754L949.998454,125.988609L950.058021,126.004732L950.105163,126.028785L950.139598,126.031957L950.279245,125.968521L950.399985,125.936540L950.522681,125.888174L950.669410,125.776119L950.467368,125.766870L950.439114,125.751807L950.489591,125.741765L950.588987,125.712961L950.638440,125.707412L950.676774,125.714547L950.738996,125.744936L950.777971,125.751807L950.807671,125.741501L950.907567,125.695520L951.000828,125.672002L951.041217,125.638708L951.107475,125.552570L951.286075,125.382428L951.467963,125.273858L952.017387,125.050413L952.108455,125.001030L952.203066,124.941878L952.310017,124.882203L952.404838,124.846293L952.584536,124.796921L952.666681,124.764975L952.766665,124.715870L952.865176,124.654361L952.942249,124.585466L952.972207,124.555903L953.046179,124.495989L953.136310,124.398604L953.177142,124.361395L953.281815,124.285663L953.593490,124.095175L953.891699,123.971198L954.170609,123.905261L954.753524,123.856207L954.774344,123.838274L954.792320,123.816123L954.824111,123.794763L954.866677,123.776040L954.881314,123.771294L954.932113,123.774458L954.991672,123.770239L955.044184,123.753627L955.102651,123.711175L955.260643,123.534010L955.292470,123.483927L955.300139,123.442809L955.234606,123.487617L955.191939,123.502906L955.152928,123.510286L955.099214,123.531374L955.035156,123.569861L954.933551,123.643678L954.871655,123.674262L954.719569,123.714339L954.589642,123.774458L954.476918,123.796345L954.409116,123.818760L954.480736,123.763383L954.625655,123.706956L954.727503,123.624696L954.763451,123.612833L954.797923,123.607296L954.826915,123.599915L954.863561,123.579352L954.972690,123.509232L955.045460,123.484981L955.191696,123.462577L955.264037,123.431739L955.299034,123.388515L955.274047,123.355045L955.231505,123.323685L955.213812,123.287846L955.147695,123.325003L955.117772,123.320523L955.099819,123.300495L955.070773,123.287846L955.047994,123.286792L955.043094,123.279414L955.054671,123.262550L955.080509,123.231721L955.108185,123.203528L955.121884,123.201683L955.134958,123.206690L955.162447,123.199839L955.250402,123.159001L955.298687,123.140823L955.334295,123.133446L955.369338,123.116058L955.529634,122.998573L955.476092,122.991197L955.463952,122.959854L955.490686,122.926406L955.557265,122.910077L955.649348,122.912711L955.693644,122.900069L955.767381,122.864254L955.795973,122.801845L955.814575,122.768931L955.840917,122.733649L955.860381,122.763665L955.893363,122.767088L955.941042,122.747867L956.004392,122.709427L956.052187,122.629923L956.148277,122.579909L956.257644,122.536479L956.343288,122.477787L956.371691,122.436207L956.391171,122.400944L956.421109,122.365684L956.482005,122.322007L956.663495,122.221508L956.730687,122.147329L956.716426,122.109981L956.713327,122.070004L956.813348,121.987957L956.904464,121.920645L957.159801,121.690374L957.527281,121.421063L958.037918,121.158719L958.458611,120.867955L958.510544,120.819027L958.576279,120.770702L958.633448,120.728134L958.703536,120.681698L958.785507,120.616656L958.966794,120.425772L959.057354,120.320395L959.096399,120.242293L959.030340,120.231024L959.088871,120.191716L959.138896,120.174421L959.190537,120.150053L959.254554,120.089528L959.296818,120.034249L959.395920,119.879180L959.597843,119.636963L959.676371,119.526228L959.671174,119.462360L959.781176,119.422054L959.807872,119.416296L959.849049,119.402948L959.883790,119.371804L959.915156,119.335428L959.944926,119.306381L960.088052,119.226310L960.162923,119.178691L960.227189,119.118778L960.379987,118.935144L960.420977,118.898265L960.756579,118.666828L960.791691,118.635451L960.843372,118.599800L960.892819,118.578714L960.949354,118.556230L960.987265,118.574008L961.078948,118.541066L961.366934,118.388918L961.417884,118.366438L961.504978,118.343958L961.545048,118.316985L961.591791,118.292529L961.681514,118.242090L961.736522,118.229213L961.774042,118.219020L961.882196,118.173544L961.972944,118.153943L962.022405,118.130160L962.075136,118.100629L962.129568,118.073973L962.181974,118.059862L962.295980,118.040785L962.592406,117.920321L962.641833,117.901303L962.685933,117.896719L962.722777,117.904382L962.811997,117.892885L963.594232,117.565784L963.964428,117.451628L964.054533,117.409050L964.207464,117.371949L964.294694,117.323834L964.362427,117.308224L964.389340,117.313709L964.635455,117.282627L964.674543,117.269828L964.738565,117.231433L964.759133,117.215239L964.769581,117.196434L964.801947,117.149160L964.868297,117.070545L964.957756,116.976002L965.049284,116.896087L965.121444,116.862398L965.207779,116.848295L965.298039,116.822441L965.374443,116.812256L965.420288,116.842811L965.423009,116.865271L965.418083,116.910190L965.421458,116.928210L965.453523,116.944663L965.546750,116.933694L965.573896,116.940484L965.611862,116.983054L965.611736,117.007342L965.564235,117.017789L965.519569,117.022490L965.019739,117.143675L964.940126,117.153861L964.895854,117.167965L964.849805,117.191732L964.811029,117.225948L964.823463,117.238224L964.943410,117.223075L965.237904,117.149160L965.402492,117.135839L965.504899,117.101364L965.743982,117.073941L965.842287,117.042861L965.891474,117.039727L965.790397,117.099797L965.757128,117.142891L965.781691,117.236918L965.783343,117.302478L965.796961,117.324419L965.871459,117.307702L965.878679,117.371958L965.899422,117.390504L966.072694,117.390504L966.125608,117.401474L966.140328,117.394422L966.153426,117.278448L966.197241,117.192255L966.273366,117.104498L966.383306,117.017789L966.372927,116.989583L966.396242,116.952498L966.440442,116.920375L966.493159,116.906272L966.514631,116.922203L966.484185,116.961116L966.439658,117.008387L966.418660,117.050696L966.414694,117.091962L966.397907,117.116512L966.367728,117.143675L966.326156,117.193300L966.301447,117.235612L966.275175,117.307702L966.252607,117.348449L966.292460,117.327031L966.325106,117.316060L966.343808,117.321545L966.342914,117.348449L966.362294,117.327031L966.435763,117.258858L966.475336,117.269045L966.603835,117.193300L966.600220,117.236918L966.699867,117.157256L966.796560,117.066889L966.882025,116.973652L966.945193,116.886163L966.951122,116.870494L966.956514,116.837588L966.965695,116.818524L966.981972,116.803116L967.010371,116.780657L967.039871,116.754281L967.058141,116.729211L967.059864,116.690823L967.044465,116.664708L967.040745,116.632065L967.076620,116.575659L967.031006,116.592111L966.895347,116.665230L966.921236,116.621359L966.913588,116.594200L966.886240,116.579576L966.849997,116.575659L966.803101,116.590544L966.752456,116.624492L966.701789,116.662619L966.658303,116.687166L966.614240,116.696307L966.621019,116.676721L966.702968,116.587933L966.743317,116.533616L966.750101,116.506719L966.712231,116.467809L966.621310,116.549023L966.540286,116.631282L966.519524,116.642250L966.516388,116.616397L966.529504,116.570697L966.558371,116.522126L966.521481,116.515336L966.427371,116.514292L966.310102,116.536488L966.202862,116.599423L966.157803,116.583232L966.093301,116.572264L966.082788,116.547456L966.201210,116.490267L966.299699,116.466765L966.483217,116.456580L966.583244,116.426550L966.454005,116.386857L966.435481,116.360744L966.450660,116.315829L966.480915,116.294939L966.507902,116.300161L966.511307,116.336720L966.558450,116.285799L966.639534,116.095955L966.756876,115.895663L966.806761,115.827105L966.860379,115.783111L966.894696,115.763264L967.040082,115.592993L967.117167,115.512034L967.200292,115.434728L967.214820,115.393385L967.243967,115.347495L967.278864,115.321377L967.412914,115.234663L967.583192,115.101190L967.672985,115.038237L967.985611,114.906056L968.123723,114.825593L968.241849,114.789279L968.665597,114.710639L968.867099,114.621543L968.908055,114.599595L968.942238,114.571636L968.981324,114.535577L969.022611,114.503698L969.174415,114.453002L969.258161,114.442811L969.294903,114.433665L969.463700,114.369377L969.506380,114.347424L969.534752,114.324949L969.578053,114.279996L969.608869,114.263792L969.641260,114.252814L969.689502,114.224848L969.740434,114.185642L969.757563,114.167084L969.768417,114.149571L969.798990,114.113237L969.837476,114.051022L969.869587,114.018084L969.984022,113.979915L970.081944,113.922398L970.177971,113.853897L970.298524,113.741982L970.829967,113.343364L970.821592,113.336039L970.816690,113.328713L970.808987,113.322696L970.791380,113.321387L970.810717,113.297579L970.972794,113.242894L971.131965,113.124614L971.287798,112.983543L971.440628,112.860246L971.704861,112.706812L971.758016,112.682720L971.794087,112.672507L971.888063,112.626938L971.930872,112.616724L971.966658,112.623010L971.982481,112.640819L971.983903,112.706812L972.021689,112.685077L972.058983,112.660722L972.065279,112.630343L972.060257,112.580057L972.073510,112.550721L972.120570,112.498071L972.161918,112.471613L972.204552,112.453799L972.254630,112.428912L972.280719,112.410310L972.353508,112.353194L972.389867,112.355028L972.410667,112.351883L972.435194,112.340879L972.616206,112.219025L972.712650,112.170276L972.889255,112.100290L972.978362,112.054415L973.097991,111.969731L973.197983,111.908635L973.215418,111.893425L973.268710,111.852152L973.310769,111.819561L973.359711,111.790093L973.412285,111.732123L973.488935,111.634268L973.556679,111.568670L973.652452,111.494665L973.822690,111.378648L974.190368,111.178306L974.740620,110.878017L974.836542,110.815463L975.289028,110.485451L975.366954,110.406523L975.302833,110.424152L975.241023,110.416785L975.206612,110.384684L975.225782,110.328369L975.227772,110.307052L975.311142,110.129885L975.336117,110.095390L975.367693,110.034986L975.382258,110.002256L975.401379,109.960886L975.432990,109.914961L975.465483,109.684618L975.451013,109.655089L975.419243,109.705181L975.392098,109.771080L975.394511,109.785840L975.330168,109.851197L975.293647,109.859893L975.278034,109.842764L975.278124,109.830115L975.302997,109.810087L975.324222,109.767390L975.323514,109.727852L975.281103,109.717571L975.340877,109.663790L975.372344,109.617120L975.420332,109.518486L975.464369,109.457287L975.508751,109.417185L975.633226,109.339342L975.751098,109.252506L975.866181,109.159045L975.980767,109.078235L976.096309,109.029105L976.041448,109.076122L976.071403,109.084573L976.167163,109.033331L976.187706,109.041520L976.167079,109.061331L976.066386,109.131846L976.027804,109.164326L976.075808,109.153764L976.176390,109.106494L976.276361,109.085894L976.313988,109.060538L976.348427,109.028577L976.386167,108.997140L976.436613,108.966229L976.525020,108.921045L976.562556,108.898583L976.663308,108.822465L976.759797,108.741039L976.588322,108.819293L976.513040,108.843346L976.434316,108.852069L976.401009,108.859205L976.337510,108.890919L976.298544,108.898583L976.270972,108.890127L976.249446,108.867927L976.235199,108.838853L976.231110,108.807662L976.199219,108.816649L976.134438,108.828280L976.056989,108.860526L976.029313,108.858412L976.006981,108.849954L975.974721,108.852069L975.903899,108.881405L975.843631,108.911796L975.792367,108.926595L975.747643,108.908361L975.706133,108.925538L975.615539,108.945091L975.551103,108.946677L975.589063,108.908361L975.651214,108.876648L975.720797,108.848897L975.779635,108.836738L975.809345,108.852069L975.854753,108.818235L975.893379,108.804489L975.922079,108.809248L975.938297,108.829866L976.018001,108.783076L976.104469,108.764041L976.245979,108.763248L976.288923,108.756374L976.321662,108.738924L976.352447,108.717771L976.390230,108.696616L976.468171,108.665675L976.464160,108.672286L976.475771,108.668584L976.518279,108.657741L976.534821,108.652187L976.556567,108.602460L976.559986,108.573626L976.546955,108.517271L976.551011,108.484724L976.563875,108.441851L976.585520,108.414853L976.613785,108.430470L976.647413,108.398707L976.697006,108.359263L976.733507,108.335700L976.730024,108.351056L976.627794,108.483930L976.614338,108.516742L976.639757,108.517271L976.675748,108.503512L976.692778,108.495044L976.692545,108.487105L976.744537,108.462229L976.797485,108.442645L976.800128,108.450584L976.830044,108.422529L976.881563,108.359263L976.921752,108.327492L977.215870,108.124341L977.279724,108.068165L977.291418,108.026290L977.242721,108.039542L977.057807,108.139973L976.949503,108.207526L976.871654,108.249904L976.806123,108.267383L976.787187,108.228716L976.796663,108.200374L976.812458,108.178917L976.835500,108.165142L976.899376,108.156664L976.922091,108.144742L976.943226,108.121162L976.972449,108.083005L976.994569,108.036361L976.998339,107.987325L976.984407,107.949945L976.953380,107.937219L976.916864,107.998193L976.850848,108.050143L976.792157,108.068165L976.778408,108.026290L976.693271,108.084330L976.630492,108.099964L976.586150,108.084065L976.556142,108.048553L976.530565,107.954717L976.498066,107.936158L976.441031,108.004555L976.413563,107.985734L976.385446,107.998458L976.363830,108.031061L976.353511,108.072935L976.259985,108.072935L976.250537,108.111358L976.270055,108.194017L976.293137,108.209910L976.336611,108.175738L976.386720,108.124871L976.428568,108.093074L976.472406,108.093604L976.467171,108.129640L976.428498,108.177858L976.331768,108.244077L976.319660,108.275857L976.315806,108.339936L976.234159,108.340201L976.171499,108.376470L976.100499,108.438674L975.992991,108.517271L976.054369,108.417235L976.100005,108.366940L976.168077,108.315047L976.090023,108.294923L976.068591,108.328286L976.048803,108.348938L976.027945,108.358998L976.001863,108.362175L975.976250,108.369587L975.964150,108.387059L975.951937,108.410089L975.931027,108.430470L975.875931,108.457730L975.824682,108.479696L975.773267,108.510127L975.719786,108.561721L975.667041,108.661179L975.735493,108.664352L975.922915,108.608280L975.870475,108.652187L975.876571,108.663295L975.882836,108.669642L975.893254,108.672022L975.910993,108.672286L975.939580,108.666997L975.955875,108.653245L975.967091,108.638698L975.982045,108.628382L976.038414,108.615157L976.346806,108.608280L976.242861,108.666997L976.150297,108.686567L976.002021,108.672286L976.015026,108.709309L976.023679,108.719357L975.965557,108.740510L975.886095,108.759547L975.815181,108.766950L975.784169,108.752144L975.759931,108.729405L975.704487,108.727819L975.581608,108.741039L975.580794,108.769593L975.606685,108.774881L975.643600,108.773823L975.673998,108.785456L975.656847,108.807662L975.536582,108.832509L975.134352,108.985251L975.118790,108.976533L975.107447,108.960945L975.108675,108.935315L975.127880,108.898583L975.305722,108.858941L975.410052,108.822993L975.472287,108.785456L975.508609,108.746327L975.590737,108.673873L975.622527,108.640285L975.640700,108.594524L975.625851,108.560927L975.591700,108.541878L975.550100,108.541613L975.615359,108.493456L975.667584,108.480754L975.722565,108.459053L975.799991,108.383883L975.813177,108.395795L975.831144,108.396060L975.853751,108.382294L975.881665,108.351056L975.888943,108.337288L975.889990,108.318225L975.897092,108.305250L975.924162,108.278505L975.939772,108.279564L975.949436,108.290951L975.959966,108.294923L975.976391,108.298630L975.991605,108.311340L976.011859,108.313194L976.044203,108.283007L976.074425,108.250433L976.104145,108.231364L976.133070,108.224478L976.159166,108.228716L976.115717,108.194811L976.018275,108.198520L975.817783,108.228716L975.804050,108.244077L975.677736,108.327492L975.626728,108.378588L975.585521,108.396060L975.560528,108.388118L975.557878,108.362175L975.600699,108.338877L975.648073,108.307633L975.693976,108.270296L975.735011,108.228716L975.701643,108.213088L975.718568,108.189249L975.765563,108.163022L975.821496,108.139708L975.805393,108.074790L975.871241,108.042192L975.956033,108.032121L975.992947,108.037422L976.004157,108.072935L976.090980,108.070815L976.199027,108.043782L976.273672,108.004555L976.253455,108.000049L976.250527,107.991831L976.254544,107.979107L976.253302,107.959489L976.296512,107.936158L976.331969,107.925287L976.359877,107.926613L976.382021,107.937219L976.429306,107.891877L976.473133,107.868010L976.506491,107.844936L976.521907,107.801967L976.627990,107.833001L976.683537,107.821065L976.720051,107.735112L976.710414,107.718396L976.683462,107.711762L976.651464,107.711762L976.626470,107.714946L976.443464,107.781806L976.394480,107.793478L976.373338,107.801967L976.362396,107.812312L976.323271,107.854484L976.303953,107.870927L976.163381,107.947559L976.144423,107.959489L976.090108,107.945968L976.214309,107.796131L976.116426,107.837510L975.991613,107.923431L975.966865,107.937219L975.813776,107.958429L975.774721,107.971154L975.734944,107.989710L975.650935,108.018868L975.613782,108.037422L975.530522,108.088835L975.513884,108.106323L975.481351,108.149776L975.490926,108.159314L975.644901,108.093074L975.671750,108.102084L975.674996,108.125931L975.652515,108.158784L975.604551,108.194017L975.515686,108.226597L975.426370,108.248315L975.360298,108.284861L975.338731,108.362175L975.283779,108.383883L975.294384,108.352909L975.288941,108.342583L975.267456,108.352909L975.230581,108.383883L975.212192,108.383883L975.257186,108.320873L975.274007,108.263146L975.264158,108.220770L975.229194,108.204347L975.177241,108.221035L975.100797,108.259438L975.041832,108.304456L975.041821,108.339936L974.992757,108.375412L974.971206,108.373823L974.958138,108.360586L974.933278,108.362175L974.894978,108.383883L974.791774,108.461700L974.727397,108.497690L974.660350,108.525738L974.539935,108.561721L974.567873,108.538438L974.598489,108.508804L974.616659,108.483400L974.608140,108.472815L974.572007,108.483400L974.505474,108.530765L974.418404,108.556958L974.135638,108.707722L973.929417,108.840967L973.847229,108.887748L973.714149,108.939807L973.553510,109.019067L973.484181,109.042313L973.419767,109.051822L973.295732,109.051029L973.246031,109.038350L973.220213,109.011142L973.238022,108.963058L973.267245,108.938750L973.329079,108.918667L973.359852,108.898583L973.377192,108.873213L973.411427,108.785456L973.487555,108.653245L973.498389,108.611718L973.438475,108.652187L973.420531,108.652187L973.441263,108.615157L973.444845,108.591350L973.433423,108.551403L973.446106,108.522828L973.553745,108.406118L973.569834,108.418294L973.575269,108.438674L973.572274,108.464346L973.558858,108.495044L973.611367,108.441851L973.624140,108.397648L973.626687,108.354762L973.649154,108.305250L973.682292,108.255201L973.773999,108.093074L973.736245,108.108443L973.712450,108.112948L973.696533,108.107383L973.682228,108.093074L973.789027,108.042192L973.894993,107.982288L973.958066,107.939605L973.981100,107.917333L973.995812,107.888695L974.031787,107.828227L974.167774,107.684164L974.187702,107.668241L974.195468,107.619669L974.169455,107.608255L974.127557,107.610909L974.088014,107.603476L974.146139,107.570026L974.169657,107.543210L974.176898,107.512674L974.240615,107.447606L974.262338,107.417590L974.279310,107.376677L974.279374,107.326724L974.243574,107.323003L974.183486,107.352765L974.110637,107.402979L974.110344,107.366050L974.091290,107.363393L974.018544,107.402979L974.002768,107.418121L973.976483,107.460621L973.958960,107.469917L973.921681,107.472838L973.903908,107.478681L973.802792,107.526482L973.757713,107.539759L973.731878,107.528075L973.628007,107.358344L973.600850,107.270913L973.633294,107.178134L973.554305,107.206582L973.524832,107.222799L973.549770,107.170157L973.654831,107.073085L973.696602,107.017751L973.694780,107.002851L973.661673,106.986354L973.654872,106.975178L973.683082,106.887881L973.725796,106.892406L973.765107,106.890011L973.798628,106.864455L973.824805,106.796559L973.888301,106.764602L973.959232,106.702539L974.084099,106.573036L974.159981,106.505593L974.211932,106.472797L974.261989,106.462131L974.812434,106.506392L974.891141,106.483463L974.809190,106.474930L974.680026,106.431996Z M989.306478,93.928357L989.354658,93.899684L989.400841,93.888656L989.432622,93.871287L989.437176,93.824969L989.430924,93.788852L989.422312,93.778927L989.341118,93.812562L989.154869,93.917605L989.083392,93.950689L989.064808,93.934147L989.063691,93.900236L989.045124,93.881488L988.904242,93.884796L988.885500,93.881488L988.836415,93.922843L988.795174,93.980740L988.780947,94.020992L988.813925,94.011067L988.866587,93.981292L988.891386,93.987081L988.916458,94.043600L988.880378,94.068964L988.965545,94.111421L989.019068,94.120244L989.080684,94.112800L989.148667,94.092950L989.170637,94.092123L989.203433,94.096534L989.221088,94.088263L989.243824,94.063174L989.261462,94.030091L989.283276,93.961441L989.306478,93.928357Z M991.408752,93.431269L991.428653,93.426582L991.450538,93.419414L991.457926,93.385779L991.453842,93.363448L991.437906,93.351593L991.409643,93.347733L991.434742,93.258961L991.433078,93.231944L991.344048,93.255102L991.334657,93.292044L991.347343,93.305553L991.366586,93.311342L991.375859,93.324575L991.373166,93.337257L991.367127,93.348836L991.358189,93.359313L991.348590,93.368686L991.331778,93.383574L991.319738,93.396531L991.319734,93.408110L991.343054,93.424652L991.361500,93.430993L991.372449,93.432096L991.389833,93.432923L991.408752,93.431269Z M989.227810,92.823403L989.253407,92.790325L989.284622,92.708459L989.297446,92.662153L989.285561,92.622187L989.252544,92.605098L989.201585,92.628802L989.169753,92.669595L989.145848,92.753113L989.121431,92.790876L989.062602,92.821197L989.081377,92.834429L989.177743,92.837185L989.227810,92.823403Z M990.305859,92.069918L990.357245,92.053937L990.399129,92.025557L990.425223,91.982576L990.426287,91.947586L990.418514,91.919760L990.420115,91.898270L990.383965,91.895791L990.290426,91.934361L990.211201,91.998832L990.219486,92.073775L990.255903,92.075429L990.305859,92.069918Z M991.375351,91.728023L991.445021,91.701855L991.400193,91.640430L991.400266,91.620323L991.419391,91.577631L991.420459,91.546233L991.408517,91.525577L991.387434,91.514836L991.309630,91.525577L991.246576,91.577907L991.216094,91.645663L991.236531,91.701855L991.185339,91.736012L991.141232,91.749234L991.059854,91.748132L991.056719,91.805430L991.095262,91.833530L991.115196,91.862731L991.056258,91.921413L991.025035,91.958055L991.003069,92.003791L990.977720,92.046222L990.935417,92.073775L990.919940,92.064958L990.900765,91.979270L990.870521,92.059999L990.891468,92.128333L990.949089,92.162501L991.025808,92.141008L991.030256,92.166083L991.028309,92.185096L991.016391,92.205763L990.988845,92.235524L991.064957,92.219817L991.088312,92.218990L991.099966,92.235524L991.091005,92.265285L991.045214,92.350990L991.038183,92.385990L991.068255,92.385163L991.123885,92.361187L991.167016,92.349612L991.160482,92.385990L991.135730,92.428707L991.120207,92.469496L991.125757,92.494852L991.167367,92.490166L991.208459,92.465086L991.332214,92.351266L991.321089,92.332802L991.313016,92.258672L991.318844,92.245444L991.331561,92.229737L991.339963,92.215959L991.334138,92.210448L991.320359,92.207692L991.309268,92.200527L991.301088,92.190056L991.296995,92.177656L991.297016,92.119515L991.322072,92.079837L991.359782,92.042916L991.400822,91.991668L991.431362,91.964668L991.478409,91.929678L991.510110,91.899648L991.493548,91.886699L991.470057,91.881465L991.417584,91.851987L991.372503,91.807359L991.357622,91.766864L991.375351,91.728023Z M988.227770,85.953611L988.211463,85.906471L988.174826,85.914917L988.127473,85.948161L988.081889,85.974322L988.028010,85.983315L987.728437,85.955519L987.612925,86.011385L987.515085,86.031009L987.458567,86.068077L987.412679,86.026103L987.254173,86.019017L987.210077,85.985768L987.183256,85.953884L987.151130,85.987403L987.124627,86.040820L987.114332,86.068077L987.050113,86.130227L987.017725,86.155034L986.973938,86.182025L987.128763,86.323544L987.185647,86.420097L987.323810,87.165676L987.358263,87.191634L987.374156,87.226339L987.333713,87.445838L987.343202,87.517753L987.412259,87.687063L987.416520,87.742876L987.383255,87.953036L987.322189,88.122251L987.212205,88.294822L987.067722,88.452935L986.905655,88.577657L986.871444,88.551339L986.824281,88.539552L986.773837,88.558193L986.729285,88.623991L986.723703,88.668410L986.766115,88.784961L986.780374,88.872462L986.798880,88.905931L986.838156,88.920745L986.896487,88.908674L987.002873,88.862038L987.036138,88.875205L986.980540,88.914984L986.840647,88.987417L986.801977,89.015130L986.796669,89.050804L986.824571,89.151252L986.839494,89.176504L986.915698,89.089224L986.991781,89.012112L987.072701,88.959430L987.164904,88.945986L987.126600,88.983850L987.082854,89.018698L986.990939,89.082089L987.010793,89.080442L987.046975,89.083187L987.066509,89.082089L986.908988,89.189954L986.861675,89.246229L986.841596,89.337379L986.884222,89.668612L986.893780,89.690591L986.922181,89.685096L986.948090,89.657073L987.104570,89.406576L987.099204,89.407674L987.097068,89.397514L987.100465,89.380214L987.112728,89.360444L987.155705,89.331613L987.199501,89.315963L987.230905,89.293449L987.234600,89.245680L987.313643,89.202856L987.354639,89.185837L987.375071,89.186660L987.377555,89.237719L987.389016,89.249249L987.423495,89.234150L987.453666,89.223718L987.488590,89.216307L987.515617,89.200111L987.528260,89.133960L987.550782,89.121610L987.576517,89.124903L987.620361,89.171015L987.673851,89.171838L987.735741,89.142194L987.786674,89.082089L987.797327,89.027753L987.799598,88.964643L987.824144,88.902639L987.902228,88.852163L987.854515,89.010740L987.855560,89.061232L987.927600,88.938853L987.948085,88.920745L987.976433,88.924586L987.981780,88.937755L987.970328,88.962723L987.946380,89.002508L987.971801,89.012112L988.090844,88.981655L988.000824,89.058213L987.941976,89.128745L987.917546,89.151252L987.868633,89.174857L987.856366,89.166623L987.850272,89.150154L987.823541,89.151252L987.748142,89.198189L987.699058,89.261603L987.658298,89.328044L987.608728,89.385706L987.602553,89.268191L987.568577,89.311570L987.504962,89.428819L987.484866,89.452712L987.453521,89.438706L987.443185,89.405752L987.439722,89.367583L987.429780,89.337379L987.417713,89.352206L987.382552,89.385706L987.344052,89.359345L987.282763,89.403280L987.217667,89.481274L987.167154,89.557355L987.113170,89.613668L986.950441,89.735651L986.898213,89.790057L986.878542,89.853262L987.006914,90.688557L987.129527,91.524751L987.109571,91.723065L987.173490,92.210448L987.063478,92.536745L987.057362,92.655262L987.192601,92.651954L987.354512,92.596278L987.436941,92.550525L987.502500,92.479418L987.516840,92.405557L987.496032,92.348234L987.494080,92.307448L987.565826,92.281820L987.567039,92.239106L987.528386,92.237453L987.482823,92.243515L987.460435,92.223123L987.449011,91.991668L987.440135,91.971831L987.424583,91.951167L987.414272,91.927749L987.429801,91.862180L987.411753,91.840417L987.386016,91.824714L987.371457,91.805706L987.371654,91.769619L987.382415,91.694693L987.380626,91.665220L987.396829,91.602420L987.438285,91.513184L987.462082,91.433869L987.425467,91.399171L987.427579,91.364198L987.404486,91.166229L987.448495,91.111719L987.587198,91.055285L987.648061,90.981514L987.643106,90.964999L987.630074,90.941328L987.629410,90.908574L987.661597,90.863988L987.681821,90.862062L987.699425,90.882978L987.710875,90.912703L987.713347,90.935272L987.675546,91.020050L987.618063,91.072352L987.460794,91.166229L987.508668,91.228727L987.519041,91.268375L987.490158,91.369430L987.519807,91.452045L987.506572,91.503269L987.429936,91.634646L987.411521,91.696621L987.439112,91.723065L987.465877,91.739317L987.491414,91.776230L987.506564,91.819204L987.504577,91.851161L987.518743,91.871547L987.647430,91.875955L987.691832,91.886699L987.713206,91.929678L987.714595,91.977892L987.709082,92.027486L987.716360,92.124475L987.726731,92.136599L987.754537,92.141008L987.775092,92.151479L987.782600,92.198323L987.797218,92.210448L987.824384,92.210723L987.851687,92.204110L987.878659,92.186198L987.904607,92.153683L987.924625,92.146519L988.039663,92.120066L988.035965,92.045395L988.023918,92.015639L987.998762,92.015363L987.955267,92.050631L987.931549,92.066887L987.906994,92.073775L987.889551,92.059999L987.909196,92.027486L987.955349,91.979270L987.952609,91.936290L987.937627,91.916178L987.906320,91.910117L987.856731,91.909841L987.828557,91.895240L987.872735,91.821959L987.860359,91.794136L988.038692,91.698274L988.079230,91.700202L988.010993,91.794136L988.109653,91.726370L988.152574,91.704609L988.197949,91.701855L988.133406,91.767690L988.102682,91.802676L988.076789,91.840417L988.050283,91.888077L988.051819,91.899648L988.069966,91.898546L988.093182,91.909841L988.116672,91.911770L988.144753,91.904607L988.156472,91.914525L988.131762,91.967698L988.123199,91.997454L988.145673,91.998832L988.179481,91.993321L988.203747,92.004342L988.181636,92.017567L988.105304,92.073775L988.207837,92.034650L988.331119,91.941525L988.436841,91.826918L988.486020,91.723065L988.572549,91.752815L988.588932,91.770996L988.588799,91.824714L988.562047,91.855293L988.524593,91.860527L988.492172,91.838488L988.449518,91.888352L988.428578,91.917831L988.408554,91.942076L988.369047,91.979270L988.254817,92.062203L988.146609,92.171043L988.079749,92.257018L988.061533,92.253436L988.041421,92.210448L987.976448,92.184545L987.940774,92.198323L987.918120,92.258672L987.929952,92.276859L987.960362,92.291740L988.021789,92.304968L988.088840,92.277135L988.174057,92.225604L988.236951,92.196118L988.234585,92.235524L988.276685,92.215959L988.379272,92.154234L988.414169,92.141008L988.444069,92.138252L988.455491,92.137150L988.501372,92.125026L988.549902,92.104085L988.597381,92.073775L988.594120,92.095818L988.595322,92.101605L988.600209,92.104636L988.606997,92.120066L988.570879,92.164154L988.546672,92.176003L988.522536,92.177381L988.488022,92.189229L988.371101,92.258672L988.266885,92.295323L988.217899,92.318471L988.147077,92.362840L988.083159,92.395084L988.017072,92.412447L987.895136,92.420715L987.862666,92.403352L987.840417,92.377998L987.805554,92.385990L987.735337,92.467015L987.710589,92.445794L987.662795,92.554384L987.688414,92.611713L987.763452,92.631558L987.932501,92.619430L987.966355,92.604271L988.020007,92.572023L988.100881,92.514144L988.120250,92.512491L988.174014,92.566235L988.166587,92.585804L988.072692,92.640378L988.037779,92.678966L988.037897,92.717004L988.048526,92.753940L988.047501,92.790876L987.969945,92.842422L987.949053,92.859789L987.943668,92.870815L987.836184,93.047515L987.832033,93.072601L987.887666,93.021878L987.884938,93.060747L987.766345,93.212095L987.749517,93.278260L987.769016,93.270540L987.821437,93.255102L987.786896,93.287357L987.719883,93.325127L987.688118,93.347733L987.645078,93.398185L987.605684,93.453600L987.570904,93.491646L987.543297,93.488889L987.473208,93.556711L987.469083,93.518665L987.488932,93.441194L987.490577,93.394050L987.477707,93.417208L987.445573,93.465179L987.432353,93.488889L987.399566,93.451946L987.379258,93.443124L987.348068,93.440367L987.384656,93.404802L987.407575,93.372546L987.413573,93.345252L987.400297,93.324575L987.440925,93.319613L987.491667,93.303623L987.530000,93.285979L987.531598,93.278260L987.505105,93.273297L987.419456,93.231944L987.481774,93.198862L987.507741,93.160818L987.500112,93.129391L987.461768,93.116709L987.438392,93.090520L987.444706,92.978322L987.420930,92.927049L987.447459,92.815960L987.424232,92.790876L987.375653,92.805210L987.327185,92.841044L987.227532,92.931460L987.242557,92.882944L987.274130,92.836634L987.360407,92.744568L987.322908,92.748427L987.289897,92.767722L987.260021,92.798043L987.228574,92.837185L987.150811,92.992657L987.136705,93.148412L987.224189,93.623431L987.207657,93.881488L987.165700,94.033399L987.028480,94.352375L986.899308,94.738863L986.893430,94.798403L986.930742,94.827345L987.009435,94.805018L987.100900,94.752921L987.176449,94.693380L987.204293,94.752921L987.227708,94.751543L987.275903,94.716535L987.313476,94.678495L987.381480,94.596623L987.431032,94.554722L987.537611,94.500139L987.645671,94.473674L987.837145,94.464301L987.994500,94.495728L987.960365,94.532944L987.912425,94.566851L987.863451,94.591661L987.826062,94.600758L987.768485,94.642935L987.726874,94.718189L987.745791,94.751543L987.868125,94.668295L987.861760,94.718189L987.840486,94.782966L987.838931,94.826518L987.891235,94.811082L987.915770,94.855736L988.020899,94.911414L987.993018,94.948072L987.991131,94.987762L987.975258,95.034065L987.944073,95.072375L987.895472,95.088636L987.872286,95.067966L987.842991,94.948072L987.771424,94.954687L987.678568,95.003472L987.479898,95.139071L987.528521,95.065485L987.514782,95.057492L987.284979,95.186473L987.231455,95.206316L987.266188,95.229189L987.388002,95.254818L987.444287,95.252614L987.383228,95.285132L987.345097,95.288990L987.273173,95.273833L987.226983,95.297257L987.200849,95.350166L987.179555,95.437517L987.099928,95.517147L987.076026,95.479675L987.089978,95.394806L987.147675,95.285683L987.177972,95.017529L987.195035,94.997408L987.244498,94.960475L987.272550,94.924920L987.263069,94.896530L987.231497,94.882748L987.101192,94.915824L987.035538,94.897632L986.987681,94.902042L986.948101,94.996030L986.927776,95.214032L986.898733,95.286234L986.890522,95.315996L986.878355,95.437517L986.839001,95.544976L986.785809,95.804770L986.786601,95.867300L986.814802,95.918534L986.865640,95.899528L987.031666,95.761245L987.068476,95.738656L987.143252,95.705046L987.184295,95.682456L987.233828,95.663722L987.253846,95.677221L987.251555,95.702016L987.237569,95.714964L987.154479,95.741962L987.076869,95.807525L987.003944,95.884654L986.933741,95.948281L986.890398,95.968112L986.797385,95.988218L986.754293,96.006947L986.703909,96.047709L986.680388,96.084062L986.611101,96.239376L986.530524,96.614064L986.278999,97.277950L986.290931,97.331849L986.398722,97.294175L986.413600,97.300775L986.422696,97.311500L986.431470,97.314800L986.455171,97.299125L986.490316,97.260900L986.513390,97.245499L986.671852,97.176191L986.658208,97.227347L986.618582,97.273550L986.564331,97.312050L986.508370,97.340098L986.531743,97.345598L986.544885,97.359347L986.548283,97.380244L986.539886,97.409390L986.377231,97.432760L986.221469,97.434135L986.061904,97.480598L985.884936,97.639758L985.656476,97.960151L985.626029,98.022231L985.666467,98.075790L985.728255,98.033218L985.803569,97.953833L985.886460,97.895867L985.944655,97.902460L985.939539,97.960151L985.893800,98.025527L985.828237,98.056839L985.680962,98.151314L985.635792,98.166692L985.605801,98.171085L985.574702,98.182619L985.527056,98.217766L985.490772,98.254558L985.446090,98.308918L985.417428,98.357782L985.430069,98.379193L985.479827,98.370409L985.513294,98.346802L985.545895,98.313310L985.591280,98.274875L985.656104,98.260049L985.717288,98.283386L985.739059,98.333625L985.687554,98.400329L985.691170,98.425306L985.723901,98.406916L985.749735,98.400054L985.800889,98.400329L985.704682,98.471415L985.624196,98.476904L985.546785,98.466200L985.457498,98.492547L985.476098,98.548803L985.486982,98.563346L985.414027,98.590510L985.391060,98.566638L985.385950,98.523008L985.364176,98.492547L985.332645,98.540570L985.315537,98.540570L985.310820,98.521361L985.308867,98.495566L985.315894,98.463181L985.337177,98.425306L985.282148,98.443146L985.224963,98.452752L985.176914,98.448087L985.148737,98.425306L985.102742,98.475806L985.078528,98.533710L985.061230,98.594900L985.034928,98.655534L984.985255,98.726310L984.879017,98.846440L984.734359,99.044670L984.627506,99.174583L984.514397,99.292951L984.277095,99.505768L984.170749,99.631435L983.774872,100.211614L983.726017,100.270376L983.675231,100.320111L983.632997,100.370932L983.610770,100.430488L983.561366,100.441960L983.548709,100.453160L983.521400,100.477196L983.451849,100.580424L983.416344,100.624383L983.337472,100.703548L983.231796,100.826355L983.143158,100.896198L982.593780,101.223935L982.415252,101.310312L982.254925,101.352538L981.909992,101.327475L981.838516,101.344638L980.856349,101.763053L980.493564,101.883541L980.304065,101.978971L980.120953,102.128170L979.974958,102.287607L979.854955,102.440710L979.765764,102.592641L979.710211,102.746924L979.699064,102.880526L979.726921,102.982374L979.911106,103.242765L980.032616,103.293621L980.445654,103.363394L980.560591,103.407735L980.644384,103.480719L980.676736,103.591232L980.666122,103.828026L980.674414,103.889007L980.778372,104.146513L980.814331,104.186662L980.872519,104.202289L981.026835,104.218453L981.189697,104.294948L981.291390,104.293871L981.410710,104.292794L981.472041,104.304912L981.574309,104.371416L981.682364,104.483377L981.737437,104.748510L981.724701,104.840677L981.783973,105.041232L981.771796,105.115821L981.743258,105.202988L981.663569,105.380698L981.539979,105.595472L981.524969,105.673082L981.519734,105.701485L981.498796,105.735686L981.391357,105.866188L981.217463,106.054321L981.150917,106.112012L981.126012,106.139785L981.092372,106.188645L981.063623,106.238564L981.042616,106.289538L981.017692,106.299946L980.989215,106.303948L980.969247,106.304215L980.954467,106.312220L980.939842,106.331164L980.926069,106.352775L980.912157,106.369581L980.841258,106.444797L980.692546,106.629536L980.619757,106.695879L980.548857,106.752084L980.307040,106.975178L979.982231,107.236357L979.653650,107.469917L979.372345,107.630021L979.309860,107.679387L979.139219,107.828227L979.067837,107.909643L979.035356,107.941991L978.984276,107.982288L978.938260,108.011977L978.884353,108.041662L978.833078,108.063924L978.795270,108.072935L978.752482,108.086715L978.659537,108.146067L978.618060,108.159843L978.581326,108.179977L978.568440,108.222889L978.570450,108.262351L978.578167,108.271090L978.555417,108.314518L978.530778,108.347879L978.494280,108.376735L978.437445,108.406118L978.467348,108.321402L978.438959,108.322726L978.374729,108.360586L978.298521,108.383883L978.233070,108.415647L978.060049,108.554313L977.948192,108.610925L977.754357,108.727290L977.682070,108.763248L977.542774,108.785456L977.474910,108.809776L977.393809,108.874270L977.331738,108.986837L977.358215,109.079291L977.441060,109.141353L977.546025,109.164326L977.593182,109.149275L977.649272,109.119963L977.696777,109.098571L977.717573,109.108079L977.731893,109.128413L977.765286,109.122603L977.806480,109.101740L977.844161,109.076122L977.919245,109.001631L977.905869,108.969928L977.802718,108.940863L977.858705,108.888541L977.912036,108.848897L977.969004,108.816385L978.035455,108.785456L978.109709,108.761662L978.198976,108.748971L978.255088,108.768007L978.229264,108.840967L978.152267,108.923952L977.994059,109.051293L977.919965,109.119963L977.861639,109.199178L977.832944,109.258577L977.796080,109.312159L977.712572,109.373912L977.696966,109.400827L977.707000,109.434335L977.735003,109.474171L977.770814,109.483404L977.803175,109.478919L977.843026,109.460981L978.076926,109.330633L978.169552,109.291044L978.250801,109.275207L978.317810,109.282597L978.550397,109.395549L978.561881,109.418241L978.547223,109.453066L978.314436,109.694109L978.280695,109.739714L978.267017,109.779514L978.263970,109.812458L978.248349,109.848035L978.195662,109.896518L978.212855,109.928661L978.157775,110.029814L978.183248,110.051147L978.402870,110.033501L978.459242,110.017171L978.620212,109.926027L978.687859,109.896255L978.924423,109.829588L979.848456,109.407687L980.063708,109.333800L980.268050,109.245114L980.442529,109.149011L981.093859,108.840967L981.638029,108.492662L981.790892,108.369587L982.107020,108.072935L982.189719,108.004820L982.293731,107.930325L982.396352,107.871192L982.568864,107.820270L982.658321,107.757399L982.820220,107.603476L983.081065,107.386242L983.215406,107.292175L983.505436,107.047548L983.546369,107.017751L983.576258,107.004448L983.623977,106.999126L983.651332,106.987419L983.776852,106.893205L983.818682,106.857267L983.858829,106.819193L983.888315,106.786173L983.943141,106.744626L984.217017,106.595424L984.553116,106.358377L984.617275,106.342637L984.673642,106.357577L984.742556,106.353575L984.844273,106.279931L985.049848,106.046307L985.471129,105.715622L985.439767,105.719635L985.404964,105.733546L985.366396,105.756015L985.326980,105.784900L985.386062,105.718833L985.450585,105.664252L985.587056,105.572719L985.631095,105.553177L985.644747,105.567901L985.648449,105.593598L985.665410,105.605643L985.695030,105.596007L985.888961,105.494003L986.107659,105.346132L986.265055,105.223634L986.391612,105.110456L986.410853,105.095164L986.482746,105.044989L986.499537,105.029424L986.517564,105.007417L986.574174,104.924198L986.608462,104.880696L986.642919,104.850078L986.720667,104.794740L986.877200,104.660886L987.180523,104.369532L987.263877,104.305181L987.284882,104.296025L987.338933,104.279328L987.354619,104.272326L987.375775,104.249970L987.388375,104.230575L987.396656,104.214681L987.405688,104.202289L987.627942,103.981258L987.675920,103.944308L987.754722,103.921380L987.802539,103.901957L987.850223,103.876327L987.881365,103.850693L987.968819,103.769188L988.064086,103.703314L988.106784,103.657948L988.036170,103.636612L987.935569,103.647955L987.889344,103.646605L987.869449,103.625268L987.862896,103.607440L987.829551,103.556382L987.800947,103.534226L987.798433,103.515040L987.780422,103.515851L987.801915,103.459622L987.839512,103.395299L988.045284,103.085806L988.074175,103.018120L988.069725,102.981020L988.056052,102.957458L988.053873,102.927663L988.084132,102.872127L988.127549,102.813869L988.167414,102.770506L988.213354,102.732557L988.277378,102.690265L988.372391,102.598608L988.389353,102.587759L988.486142,102.540289L988.655592,102.439082L988.782234,102.353311L988.865075,102.287878L988.945473,102.214554L989.008777,102.140939L989.069960,102.100456L989.562965,101.929221L990.231892,101.692859L990.345239,101.631357L990.365352,101.638978L990.374113,101.661565L990.398790,101.674355L990.830978,101.685784L991.246970,101.704831L991.277647,101.720068L991.321803,101.775023L991.341386,101.788080L991.413282,101.736392L991.467048,101.732583L991.486626,101.759517L991.456901,101.798688L991.405722,101.835950L991.347574,101.884357L991.288293,101.938737L991.235680,101.993650L991.164078,102.092032L991.108786,102.199072L991.038195,102.403528L991.110359,102.360369L991.176908,102.326977L991.237248,102.289236L991.336648,102.182231L991.519785,102.014036L991.770812,101.868041L991.792083,101.783727L991.733472,101.739657L991.559439,101.720068L991.626298,101.653129L991.696466,101.604140L991.752489,101.555415L991.775101,101.489257L991.833399,101.433705L991.932110,101.302411L992.038013,101.203767L992.203663,101.007480L992.328216,100.831266L992.397205,100.756497L992.502750,100.672976L992.535741,100.634484L992.538059,100.597080L992.523304,100.545199L992.528454,100.529360L992.544481,100.493857L992.555626,100.476377L992.585942,100.436497L992.597860,100.434312L992.609816,100.441414L992.641264,100.430488L992.726613,100.389510L992.806922,100.372298L992.865957,100.387325L992.907072,100.483751L992.972051,100.458896L993.412987,100.221454L993.947085,99.890312L993.980857,99.862954L994.127016,99.645396L994.158935,99.616105L994.297199,99.563541L994.335273,99.535614L994.369211,99.487969L994.377195,99.452368L994.365820,99.428268L994.340118,99.416765L994.388233,99.372667L994.445027,99.298704L994.485960,99.255964L994.561624,99.209110L994.607473,99.176775L994.641704,99.138956L994.644254,99.093460L994.631019,99.034801L994.638390,98.967910L994.700417,98.898267L994.781307,98.840132L994.858380,98.773762L994.913057,98.706285L994.939992,98.564169L995.002323,98.510933L995.084626,98.470317L995.158971,98.425306L995.232375,98.337468L995.252846,98.263893L995.259289,98.193602L995.291544,98.114515L995.324943,98.077713L995.367556,98.044754L995.450919,97.987621L995.516546,97.934054L995.733851,97.722208L995.822373,97.648004L995.965450,97.580387L996.058346,97.497093L996.217398,97.340098L996.390408,97.233948L996.498223,97.148961L996.541239,97.118429L996.583799,97.061488L996.586052,96.992988L996.567049,96.931360L996.545779,96.897242L996.517155,96.879082L996.487412,96.872478L996.402155,96.874129L996.373333,96.863398L996.352129,96.815519L996.325303,96.804787L996.228553,96.805612L996.186551,96.799008L996.152098,96.782221L996.138089,96.758004L996.122282,96.705165L996.098937,96.689753L996.114033,96.666634L996.174724,96.630303L996.158958,96.602228L996.107768,96.582685L995.455205,96.549929L995.361483,96.527908L995.359435,96.581034L995.348158,96.618192L995.317284,96.651221L995.256085,96.689753L995.190724,96.711770L995.060678,96.724705L995.004047,96.746996L994.875316,96.844962L994.814580,96.882384L994.755662,96.897242L994.697699,96.901094L994.374824,96.978131L994.339141,97.002066L994.306115,97.041681L994.269581,97.071666L994.197570,97.118429L994.127500,97.177841L994.015200,97.301600L993.933928,97.360997L993.779899,97.422037L993.749883,97.442658L993.719519,97.475650L993.619658,97.558122L993.563223,97.644156L993.532035,97.674938L993.479644,97.711216L993.349962,97.781016L993.053761,97.909603L992.975701,97.953009L992.883621,97.993390L992.627372,98.010695L992.532147,98.031296L992.499830,98.033768L992.474291,98.044480L992.458259,98.068375L992.444224,98.092269L992.426240,98.102980L992.406415,98.108747L992.386773,98.120282L992.370647,98.125500L992.361914,98.114515L992.365344,98.063980L992.363398,98.056839L992.184645,98.056839L992.160733,98.039536L992.154392,98.014815L992.138055,97.999158L992.084408,98.010695L992.081187,98.045853L992.062098,98.092544L992.028356,98.133464L991.981418,98.151314L991.946029,98.144998L991.921626,98.128795L991.853267,98.041184L991.850965,98.019759L991.886967,98.010695L992.047054,98.010695L991.981325,97.954657L991.749267,97.921142L991.661357,97.827728L991.492783,97.801350L991.369015,97.739247L991.214816,97.711216L991.138300,97.658997L990.847451,97.268600L990.800040,97.291150L990.787975,97.280975L990.790110,97.259250L990.785935,97.245499L990.704027,97.245499L990.679506,97.231198L990.655136,97.167389L990.632915,97.153637L990.565467,97.135483L990.451732,97.056261L990.388708,97.038105L990.347114,96.999590L990.361416,96.827901L990.337496,96.782221L990.292790,96.794880L990.276312,96.842761L990.272598,96.943466L990.204049,97.106876L990.160096,97.111828L990.108473,97.124481L990.073076,97.125856L990.079089,97.095323L990.116912,97.038380L990.140498,96.996839L990.144740,96.966576L990.122967,96.943466L990.076340,96.934661L990.040270,96.962174L990.003836,96.997114L989.953065,97.014997L989.937665,96.995464L989.938024,96.959148L989.923681,96.939339L989.862098,96.968777L989.867782,96.918703L989.883642,96.869727L989.887423,96.828727L989.854559,96.804787L989.840363,96.811941L989.819054,96.828727L989.793512,96.845512L989.766933,96.853217L989.720254,96.851016L989.710623,96.843861L989.707124,96.827901L989.713331,96.811391L989.749650,96.735438L989.761336,96.723879L989.784185,96.705715L989.804174,96.685074L989.811158,96.666634L989.804100,96.660303L989.778866,96.654524L989.771479,96.643514L989.763328,96.644065L989.746326,96.649019L989.732147,96.645441L989.730234,96.620394L989.741595,96.596172L989.761279,96.571124L989.784706,96.547176L989.806902,96.527908L989.802831,96.514144L989.801943,96.476705L989.798322,96.456334L989.941827,96.432383L990.010606,96.435962L990.042849,96.468997L990.052531,96.512492L990.071500,96.554333L990.124522,96.620394L990.018894,96.651221L989.980892,96.666634L989.998909,96.708467L990.036167,96.715623L990.081412,96.709018L990.121023,96.712871L990.143108,96.729383L990.192405,96.804787L990.219401,96.746446L990.213217,96.704614L990.181895,96.631954L990.185601,96.590943L990.206706,96.491020L990.207667,96.445873L990.195358,96.406779L990.173152,96.369887L990.143347,96.339601L990.110208,96.320053L990.011245,96.302707L989.999694,96.280404L990.055863,96.227536L990.081150,96.222855L990.089350,96.242405L990.098887,96.248738L990.128408,96.204405L990.135475,96.176317L990.115953,96.146576L990.123037,96.122618L990.143151,96.073046L990.160785,95.967286L990.183248,95.913576L990.258983,95.778325L990.316319,95.645814L990.329617,95.583824L990.317444,95.552415L990.252050,95.508881L990.313158,95.470582L990.346702,95.411339L990.372956,95.337490L990.414395,95.252614L990.435150,95.252614L990.424284,95.289541L990.418178,95.323160L990.421781,95.349890L990.436591,95.368077L990.451475,95.323436L990.517745,95.225056L990.534854,95.183166L990.518686,95.171316L990.486088,95.164977L990.465377,95.153953L990.486605,95.125291L990.580553,95.048948L990.677053,94.959648L990.740088,94.874479L990.730421,94.811082L990.695487,94.838922L990.641276,94.875030L990.600003,94.893773L990.600910,94.870344L990.634775,94.835339L990.680911,94.797851L990.721209,94.761466L990.736815,94.728112L990.748220,94.708541L990.825055,94.600758L990.909745,94.438939L990.926090,94.394279L990.930761,94.367538L990.922523,94.312125L990.933205,94.275734L990.991545,94.188065L991.004496,94.150846L990.973633,94.099291L990.846308,94.123552L990.805559,94.092123L990.741266,94.137888L990.696313,94.244306L990.630702,94.279594L990.610303,94.316536L990.587149,94.318190L990.567171,94.297238L990.555447,94.266637L990.565439,94.239895L990.591204,94.215082L990.608525,94.190546L990.592354,94.163804L990.677200,94.092950L990.758107,94.033399L990.809818,94.005278L990.898185,93.977156L990.948539,93.953722L991.063265,93.854469L991.086740,93.837927L991.158202,93.848128L991.193744,93.836273L991.236489,93.791609L991.265842,93.735366L991.234994,93.738950L991.184691,93.760179L991.157483,93.754665L991.146029,93.714412L991.120728,93.698973L991.079661,93.701730L991.018279,93.719926L990.916572,93.775342L990.864170,93.794917L990.840732,93.778651L990.824647,93.755216L990.790123,93.748875L990.748503,93.760454L990.709936,93.791609L990.724256,93.795193L990.752822,93.812562L990.588148,93.899133L990.555692,93.889483L990.597247,93.791609L990.627353,93.757146L990.666606,93.723786L990.697881,93.688496L990.703574,93.650449L990.679192,93.641075L990.592682,93.652931L990.569860,93.638870L990.577385,93.599996L990.604699,93.571047L990.635974,93.563879L990.654232,93.592552L990.673862,93.607440L990.708556,93.563328L990.754395,93.477310L990.789026,93.387985L990.749687,93.371994L990.687953,93.370892L990.659049,93.324575L990.760392,93.257859L990.818793,93.170743L990.839645,93.085282L990.828525,93.021878L990.707160,93.102374L990.681392,93.098790L990.657843,93.045034L990.643484,93.032353L990.639182,93.021878L990.639579,93.011402L990.645270,92.984663L990.647283,92.954064L990.652406,92.926773L990.644823,92.909958L990.541650,92.929254L990.481273,92.917125L990.425985,92.917125L990.373933,92.965090L990.301475,93.095758L990.280872,93.151445L990.276710,93.196381L990.296721,93.238009L990.375636,93.276605L990.407977,93.303623L990.414444,93.373649L990.417053,93.382471L990.410751,93.412246L990.431455,93.423273L990.459143,93.428787L990.475255,93.440367L990.441307,93.517010L990.354924,93.599169L990.279649,93.689323L990.278409,93.791609L990.239984,93.825796L990.219991,93.860534L990.212284,93.895273L990.210513,93.928357L990.234649,93.911815L990.297302,93.881488L990.258985,93.964750L990.188359,94.005002L990.026219,94.043600L990.038747,94.050768L990.048666,94.060693L990.062363,94.068137L990.085541,94.068964L990.046832,94.103151L990.008906,94.117762L989.969734,94.125758L989.927868,94.138440L989.952986,94.159117L989.991326,94.165733L990.082368,94.163804L990.006185,94.221148L989.945558,94.221975L989.887023,94.210120L989.816089,94.231073L989.831015,94.263053L989.823998,94.297238L989.810353,94.333077L989.804398,94.369468L989.813939,94.400344L989.851797,94.450242L989.864625,94.483323L989.866156,94.523020L989.860697,94.562441L989.794676,94.771114L989.789828,94.798403L989.776519,94.840576L989.661080,95.019182L989.638720,95.068517L989.621987,95.170489L989.600888,95.213481L989.569029,95.303871L989.512684,95.411339L989.497455,95.461489L989.503949,95.497033L989.539277,95.508881L989.468257,95.541394L989.424689,95.533404L989.414205,95.492900L989.441863,95.425944L989.491795,95.350166L989.506179,95.314342L989.493390,95.298910L989.450705,95.306075L989.425010,95.323436L989.401632,95.346308L989.366005,95.368077L989.227393,95.419330L989.082411,95.451018L988.962413,95.447436L988.898874,95.391224L988.888671,95.340246L988.886612,95.276313L988.901132,95.203009L988.937355,95.125291L989.120257,94.889363L989.172274,94.811082L989.196010,94.761466L989.207208,94.721497L989.208891,94.688143L989.186704,94.567954L989.172638,94.554722L989.144358,94.543144L989.116036,94.494074L989.094602,94.483323L989.066191,94.489112L988.949884,94.531566L988.939580,94.526604L988.933271,94.513096L988.920820,94.506204L988.828380,94.550863L988.773070,94.565749L988.728815,94.587251L988.686873,94.600758L988.651496,94.589456L988.653036,94.530463L988.780301,94.375808L988.795695,94.298341L988.752628,94.274907L988.671828,94.264707L988.597528,94.280697L988.573260,94.336937L988.566663,94.419642L988.516454,94.445004L988.444588,94.447761L988.371953,94.464301L988.431765,94.375808L988.458520,94.298341L988.497984,94.138440L988.479211,94.138440L988.174240,94.508409L988.123942,94.546452L988.102875,94.550863L988.102913,94.527155L988.114815,94.483323L988.142428,94.418539L988.175034,94.388765L988.215792,94.366711L988.268879,94.325909L988.341391,94.223629L988.305642,94.184756L988.133565,94.184756L988.023182,94.156635L987.975604,94.163804L987.929336,94.182551L987.883759,94.208466L987.838542,94.240997L987.791342,94.279594L987.789108,94.253679L987.761493,94.289519L987.734787,94.336110L987.705513,94.377462L987.672374,94.394830L987.650239,94.375808L987.666781,94.329769L987.752920,94.185583L987.767240,94.165733L987.761969,94.153327L987.734568,94.126860L987.737003,94.099842L987.779939,94.073100L987.835154,94.047460L987.875996,94.022647L987.835222,94.010516L987.729000,94.025404L987.707013,94.022647L987.721341,93.999488L987.798081,93.949862L987.859293,93.920638L987.987490,93.871287L988.027284,93.871287L988.008732,93.964198L988.054427,93.976329L988.023821,94.005553L988.006329,94.030918L988.003411,94.051871L988.015844,94.068964L988.111896,94.030091L988.142815,94.043324L988.158707,94.075029L988.207787,94.092123L988.358355,93.582627L988.367751,93.499090L988.347515,93.440367L988.435741,93.484202L988.477368,93.488889L988.560871,93.462974L988.732661,93.389914L988.756774,93.371443L988.742494,93.347733L988.709100,93.348561L988.563905,93.394050L988.491907,93.388536L988.460094,93.378060L988.444324,93.359313L988.431674,93.322370L988.424231,93.312996L988.468449,93.243523L988.488302,93.198035L988.494998,93.138212L988.522812,93.093553L988.553895,93.069845L988.633583,93.034007L988.674880,92.998722L988.669025,92.973912L988.658673,92.954615L988.643660,92.940005L988.622026,92.931460L988.637533,92.906099L988.702232,92.902791L988.743546,92.845455L988.784610,92.696056L988.838767,92.724722L988.841138,92.791979L988.799020,92.952410L988.843712,92.898380L988.887225,92.837461L988.917220,92.779575L988.927914,92.689440L988.974594,92.549698L988.996355,92.502569L989.048420,92.494300L989.268128,92.506427L989.359948,92.492096L989.306526,92.471701L989.236307,92.461228L989.189814,92.436424L989.206039,92.374415L989.234710,92.337211L989.244785,92.333904L989.252186,92.339416L989.273840,92.328117L989.271218,92.333904L989.273189,92.341345L989.280195,92.344927L989.293011,92.339691L989.309619,92.324534L989.307257,92.318471L989.300753,92.314062L989.304713,92.304968L989.349146,92.259498L989.358681,92.240484L989.305679,92.210448L989.239013,92.131639L989.211020,92.032170L989.200821,91.794136L989.185623,91.739868L989.164442,91.707364L989.160225,91.666046L989.194484,91.586169L989.224629,91.549538L989.257521,91.520620L989.279792,91.489223L989.279076,91.445711L989.259300,91.428637L989.189779,91.428637L989.159950,91.422303L989.124872,91.394489L989.056231,91.303069L989.048046,91.260665L989.080631,91.199267L989.136001,91.112545L989.175613,91.029960L989.159296,90.981514L989.257797,90.920409L989.345092,90.853255L989.396351,90.786656L989.385970,90.727768L989.338976,90.706855L989.170161,90.683192L989.114851,90.691997L989.071644,90.729419L989.028691,90.773172L988.987526,90.801517L988.949216,90.794637L988.945237,90.768219L988.962405,90.726667L988.992425,90.682366L989.027467,90.647698L989.071295,90.590746L989.167138,90.407538L989.224103,90.333278L989.233546,90.368757L989.233463,90.405888L989.223158,90.446597L989.203193,90.494460L989.165587,90.556081L989.139884,90.584143L989.141561,90.590746L989.186322,90.589095L989.205453,90.578090L989.248633,90.530497L989.273884,90.519768L989.286971,90.527196L989.296569,90.558557L989.312760,90.563784L989.358954,90.553330L989.447935,90.523069L989.491213,90.519768L989.455595,90.574239L989.520834,90.597349L989.463766,90.660630L989.500913,90.702178L989.519676,90.758312L989.554793,90.793811L989.642828,90.773447L989.652414,90.647698L989.663911,90.617158L989.730580,90.536274L989.753269,90.494460L989.746623,90.458150L989.643803,90.358581L989.678806,90.350330L989.717961,90.335479L989.756617,90.311277L989.787053,90.276351L989.792549,90.247477L989.771426,90.234277L989.710487,90.217779L989.762887,90.196881L989.780101,90.192481L989.709635,90.135291L989.686829,90.096525L989.726088,90.079205L989.774652,90.081404L989.886569,90.101749L989.914529,90.125393L990.018607,90.011029L990.041412,89.931316L989.991654,89.790057L989.916966,89.672458L989.928419,89.631799L990.046299,89.616415L990.055432,89.575485L990.060545,89.456831L990.051914,89.431840L990.048060,89.425798L990.055243,89.397239L990.050804,89.385706L990.040211,89.384607L990.028706,89.392296L990.020276,89.401633L990.019608,89.406576L989.971376,89.392296L989.918606,89.385706L989.884717,89.337928L989.917178,89.110906L989.915340,89.035985L989.925913,89.063153L989.973187,89.130392L990.002956,89.211640L990.012907,89.222620L990.075007,89.186660L990.051008,89.083736L990.105625,89.035985L990.117885,89.015130L990.053708,89.018698L989.997297,89.012112L989.970661,88.977813L989.996558,88.897701L990.059693,88.819247L990.137255,88.750679L990.201294,88.682120L990.228360,88.599041L990.102345,88.668958L989.979014,88.750404L989.945322,88.783316L989.936284,88.799498L989.925254,88.811018L989.883815,88.829121L989.890024,88.818149L989.867691,88.808275L989.834009,88.802789L989.803281,88.806081L989.802955,88.818149L989.796959,88.852163L989.667704,88.832413L989.599309,88.836253L989.538004,88.875205L989.532614,88.852163L989.528054,88.904833L989.575392,88.939950L989.642337,88.960802L989.699882,88.967387L989.714224,88.981655L989.704659,89.014033L989.678731,89.046688L989.644771,89.061232L989.628630,89.050804L989.624108,89.029400L989.610706,89.012386L989.569057,89.015130L989.565144,89.030223L989.551483,89.067269L989.548851,89.082089L989.519395,89.078247L989.497151,89.066721L989.460544,89.035985L989.424377,89.082638L989.373562,89.136979L989.333380,89.173210L989.330930,89.163603L989.378064,89.073033L989.393459,89.031869L989.396071,89.002508L989.355323,88.894408L989.362534,88.852163L989.395702,88.809372L989.440786,88.766585L989.473225,88.720786L989.470444,88.667861L989.430573,88.688701L989.396024,88.695831L989.370493,88.688701L989.355682,88.667861L989.281680,88.692815L989.258908,88.658264L989.295192,88.610830L989.395926,88.599041L989.390587,88.518444L989.376967,88.497064L989.418292,88.474862L989.506971,88.437862L989.512783,88.484181L989.541047,88.484729L989.574092,88.467462L989.590318,88.462802L989.582457,88.497064L989.563213,88.534617L989.554043,88.565320L989.578338,88.577657L989.714498,88.541471L989.742169,88.456773L989.729703,88.387162L989.688687,88.340579L989.632669,88.322769L989.462578,88.341127L989.382998,88.327427L989.381273,88.265508L989.411748,88.183054L989.399387,88.129646L989.337089,88.044754L989.322841,87.987531L989.322104,87.948109L989.340033,87.930042L989.262996,87.924323L989.219964,87.927060L989.155056,87.953036L989.104142,87.960428L989.074371,87.977949L989.058866,87.997661L989.036439,88.047493L989.022025,88.068029L988.898550,88.182780L988.878646,88.214281L988.871136,88.236469L988.850425,88.249618L988.790238,88.254002L988.743165,88.172372L988.755224,88.143887L988.798896,88.114857L988.888263,88.068029L988.921265,88.036814L988.950990,88.002315L988.985307,87.971926L989.032086,87.953036L989.004661,87.937433L988.989596,87.931958L988.969087,87.930042L988.949439,87.923228L988.949432,87.904614L988.954984,87.881075L988.952438,87.859453L988.956635,87.840568L988.971069,87.818401L988.976971,87.800066L988.954383,87.792403L988.929308,87.799518L988.909226,87.815117L988.893105,87.831263L988.879743,87.838379L988.795883,87.838105L988.765600,87.821958L988.779293,87.747801L988.757740,87.730564L988.717040,87.735489L988.664271,87.769418L988.662884,87.718525L988.644994,87.684053L988.607230,87.686242L988.546457,87.744518L988.519700,87.797329L988.523990,87.836189L988.540385,87.869306L988.548666,87.907078L988.532835,87.923502L988.469675,87.977949L988.458046,87.909541L988.415364,87.891476L988.272081,87.907078L988.218156,87.895582L988.182017,87.864653L988.161066,87.820316L988.152684,87.769418L988.152017,87.726186L988.158798,87.666545L988.181963,87.603083L988.232020,87.549203L988.265019,87.537716L988.380840,87.537716L988.521675,87.490134L988.510463,87.437362L988.518067,87.409748L988.552148,87.375301L988.517733,87.381042L988.409596,87.423144L988.457962,87.369014L988.479682,87.338398L988.494319,87.308330L988.504749,87.266786L988.500490,87.243283L988.476958,87.243829L988.429740,87.273346L988.417135,87.295211L988.411385,87.327464L988.394766,87.366827L988.349966,87.411662L988.262025,87.451579L988.186799,87.463610L988.121486,87.486579L988.063375,87.560689L988.007775,87.723176L987.959469,87.817580L987.900094,87.859453L987.851896,87.874232L987.817447,87.908446L987.785648,87.948109L987.746743,87.977949L987.723495,87.979592L987.647663,87.953036L987.617984,87.951394L987.598540,87.953858L987.601659,87.935243L987.683936,87.796235L987.712567,87.762303L987.746138,87.733847L987.846587,87.662168L987.877138,87.623324L987.633297,87.406194L987.585450,87.288104L987.643324,87.168682L987.674476,87.214862L987.716904,87.375301L987.771964,87.234264L987.744167,87.120321L987.687770,87.019518L987.656891,86.916554L987.701509,86.785222L987.786330,86.588978L987.838690,86.424735L987.787356,86.388184L987.788963,86.459652L987.750462,86.556234L987.686965,86.655020L987.610845,86.733628L987.570737,86.756012L987.573421,86.732809L987.685077,86.539590L987.704905,86.496209L987.712541,86.456378L987.678171,86.490479L987.646049,86.506030L987.619094,86.503848L987.600620,86.483659L987.627315,86.461016L987.649876,86.438101L987.693038,86.388184L987.658023,86.394184L987.624825,86.415187L987.593534,86.446285L987.564296,86.483659L987.513750,86.418461L987.503724,86.388184L987.537158,86.374273L987.566186,86.354636L987.592106,86.328181L987.613871,86.294364L987.643282,86.322726L987.675723,86.301455L987.727172,86.227830L987.795931,86.143584L987.820267,86.137314L987.864385,86.156943L987.849579,86.173028L987.819308,86.212288L987.805034,86.227830L987.835202,86.244190L987.832586,86.284002L987.820931,86.323817L987.823889,86.342362L987.870677,86.338271L987.902931,86.323272L987.929634,86.295455L987.962365,86.250734L988.059399,86.071347L988.119011,86.004300L988.227770,85.953611Z M5.627503,68.827908L5.588146,68.798748L5.533417,68.770397L5.481070,68.751497L5.424859,68.737456L5.370159,68.730976L5.322770,68.733676L5.353091,68.767967L5.383771,68.791998L5.457310,68.839518L5.477843,68.872457L5.491783,68.914035L5.510191,68.938064L5.544705,68.918895L5.549049,68.921595L5.604064,68.963982L5.603143,68.923755L5.624349,68.898376L5.664096,68.894326L5.718145,68.918895L5.627503,68.827908Z M7.571529,2.718690L7.562943,2.687046L7.547903,2.659188L7.526623,2.635929L7.500860,2.618078L7.511067,2.640256L7.523894,2.662434L7.538618,2.683530L7.554993,2.702462L7.559617,2.708412L7.561575,2.715985L7.563986,2.720313L7.571529,2.718690Z M3.413948,0.000000L3.440359,0.038406L3.470114,0.073566L3.482406,0.126577L3.484879,0.143887L3.493037,0.103858L3.478047,0.064370L3.448830,0.028669L3.413948,0.000000Z "/></g></svg>