<?xml version="1.0" encoding="utf-8"?><!DOCTYPE svg  PUBLIC '-//W3C//DTD SVG 1.1//EN'  'http://www.w3.org/Graphics/SVG/1.1/DTD/svg11.dtd'><svg enable_background="new 0 0 1000 1494" height="1494px" pretty_print="False" style="stroke-linejoin: round; stroke:#000; fill: none;" version="1.1" viewBox="0 0 1000 1494" width="1000px" xmlns="http://www.w3.org/2000/svg" xmlns:xlink="http://www.w3.org/1999/xlink"><defs><style type="text/css"><![CDATA[path { fill-rule: evenodd; }]]></style></defs><metadata><views><view h="1494.33367621" padding="0" w="1000"><proj flip="auto" id="robinson" lon0="56.9620169803"/><bbox h="163.41" w="109.43" x="757.52" y="-442.48"/></view></views></metadata><g class="" fill="black" id="country"><path d="M539.322451,1360.298336L539.332822,1360.292105L538.259776,1359.899520L535.437617,1358.104844L533.591233,1358.653217L532.090024,1359.450850L531.465861,1360.634838L531.466834,1360.647301L531.586936,1360.933951L532.199744,1362.385895L532.210115,1362.379663L533.408368,1361.594492L537.427807,1361.619418L539.322451,1360.298336Z M560.282269,1362.012004L562.466030,1361.058581L566.468892,1358.104844L564.479002,1357.375758L562.616872,1356.060910L561.211622,1354.203922L561.160945,1353.973357L560.614034,1351.848416L560.613055,1351.835953L557.219479,1353.692939L552.264183,1355.574853L548.931894,1357.942825L550.341389,1361.245527L552.274331,1362.080550L558.205075,1362.385895L560.282269,1362.012004Z M873.032049,952.075461L874.511882,951.938409L875.862900,950.692485L876.846258,948.948193L877.159414,947.328496L877.702913,946.369138L879.180415,945.957985L880.844395,945.702572L881.992722,945.235353L883.078063,943.796319L885.164583,940.201856L889.218968,935.380184L889.687554,934.308704L889.587669,933.287061L889.259566,931.879188L889.226001,931.742139L889.077148,930.035251L889.076062,930.022792L890.048492,927.418858L890.951681,920.061836L892.215925,916.473665L894.933662,911.222244L897.146869,908.855061L902.241708,905.590845L906.970640,901.485667L908.040629,900.258476L908.412231,898.582770L908.411685,898.576540L907.028693,896.234292L902.238681,888.179718L901.223270,885.594537L900.656437,882.336590L900.655890,882.330361L900.906838,879.284216L901.567821,876.481018L901.510674,873.864703L901.509031,873.846015L899.688272,871.316913L897.750903,871.883780L896.753482,873.684053L895.705579,878.723576L893.740705,884.273916L888.170890,893.443531L887.141093,895.748400L886.567474,898.576540L886.518226,904.438404L886.461741,904.781022L886.130794,906.680993L885.708828,907.416064L884.759067,909.035714L882.567861,910.792413L880.342833,911.172409L878.147352,911.272079L875.978736,912.175348L875.726843,913.003863L875.390499,915.838261L875.157779,916.143504L874.924514,916.442518L873.954356,916.841203L871.758365,918.797254L871.091942,919.582166L869.839733,921.706416L869.307071,923.656244L869.431197,935.766416L869.877302,937.168063L869.936241,937.348720L869.936782,937.354949L869.870254,939.946444L870.415770,944.730756L871.511911,949.508858L872.196293,950.667566L873.010429,952.075461L873.032049,952.075461Z M175.295633,1492.333676L186.184566,1485.884534L207.451074,1478.182118L218.591889,1476.343760L239.885932,1475.863917L244.168033,1474.648732L248.694314,1472.305605L251.073316,1470.635506L252.048562,1468.946711L253.114237,1466.111282L255.843030,1462.683844L258.998490,1459.599150L261.346985,1457.823116L263.828096,1458.608310L266.502751,1457.430519L269.134913,1455.673181L271.482072,1454.775817L274.084507,1454.545244L281.936676,1452.688199L288.015385,1452.289371L291.329603,1451.541568L292.689473,1449.933793L293.044569,1448.999040L294.788484,1447.148229L295.126810,1445.839576L294.866153,1444.661788L294.501847,1443.552549L294.371082,1442.368531L294.769844,1440.997562L296.116900,1439.813544L301.764449,1436.535686L304.040087,1435.862666L314.602275,1435.862666L339.241440,1432.715676L340.569031,1433.033490L341.873380,1433.768827L344.444550,1431.525429L347.744654,1431.774695L354.184801,1433.768827L354.956657,1433.482170L357.647425,1432.117436L359.048708,1431.674989L360.799062,1431.687452L365.592191,1432.721907L367.188266,1432.559884L369.884272,1431.849475L371.435926,1431.674989L373.101396,1432.005266L377.055676,1433.444780L382.603456,1434.541553L384.250359,1436.510759L385.049330,1439.202841L386.355335,1442.137959L387.259044,1440.997562L392.054032,1444.231802L393.518502,1443.614866L395.993457,1444.013694L397.456797,1443.091405L399.110857,1445.010762L401.326888,1444.998299L405.639837,1443.091405L411.058100,1442.306214L413.468535,1441.408853L415.374055,1438.997195L417.327314,1439.539351L419.131056,1439.103134L421.020034,1438.355333L423.087335,1437.956506L424.550360,1436.747563L426.015266,1434.554016L427.503986,1433.544487L428.982505,1435.862666L429.808355,1435.862666L435.448096,1431.107908L440.374648,1424.265553L441.939317,1423.405586L442.890827,1421.480008L443.458162,1419.361250L444.038643,1417.990290L445.988454,1416.768889L449.936687,1415.397930L451.079884,1413.715390L450.586090,1412.936437L451.688784,1410.580883L452.051521,1407.926212L452.462369,1406.617573L453.180181,1405.346324L454.351542,1404.467667L457.702391,1402.542099L458.375841,1401.688369L458.878053,1399.731646L458.744074,1398.547642L457.639544,1398.024187L456.750633,1397.195385L456.452204,1395.282285L456.517636,1393.157313L456.703510,1391.755206L461.522389,1383.641693L462.221324,1380.725321L461.639606,1373.733517L460.383256,1370.536735L457.554846,1367.514441L452.849749,1364.797494L451.279461,1362.741091L450.418933,1358.628291L450.512054,1355.057638L451.186333,1351.985509L454.362130,1344.495264L465.825118,1333.185163L467.483158,1330.923150L467.921027,1329.857574L469.471427,1323.582526L469.963479,1322.379863L471.751212,1319.843678L472.801201,1317.313727L474.237829,1311.275508L475.842633,1308.770494L476.961785,1308.097505L481.242604,1306.782686L481.444306,1306.863693L483.879593,1306.782686L484.673020,1306.246788L485.212494,1305.517718L485.845628,1304.875887L486.897368,1304.589244L489.857985,1304.290139L502.967416,1300.451623L536.956570,1298.719308L541.732043,1297.367107L550.054884,1293.553529L552.730232,1293.086180L564.163066,1294.133043L567.065635,1293.522373L570.882481,1291.453572L573.547293,1290.992454L594.637566,1293.946103L596.129659,1293.609611L595.682425,1290.194845L595.948545,1289.048283L601.537174,1281.495943L602.441778,1280.872814L604.299045,1280.224760L605.086594,1279.495700L608.521065,1271.494748L611.246394,1269.644065L616.813953,1266.858698L619.242218,1264.559371L620.876714,1261.568381L620.941767,1258.353072L618.713637,1255.349631L624.173984,1237.653108L624.852957,1231.210125L624.333754,1224.841940L624.559870,1223.228089L625.502725,1220.168630L626.014679,1217.676204L627.706069,1214.760071L627.969872,1212.815985L627.705339,1211.040139L626.427536,1206.024165L626.397438,1198.777513L628.415292,1193.250641L641.355881,1177.710709L642.330717,1176.128063L643.382362,1172.850621L646.244757,1170.246119L651.655885,1167.149385L659.706017,1160.339087L681.324704,1150.220280L697.372995,1145.073676L728.572645,1139.659170L735.939632,1138.381874L763.783835,1139.864784L765.035066,1139.416172L766.614458,1138.363181L767.961923,1137.129501L768.480427,1136.213588L769.073887,1135.416058L774.962194,1134.468992L775.474527,1134.250918L777.269682,1132.549940L780.214103,1128.942380L779.991913,1126.699342L774.116182,1116.773948L773.982447,1113.658649L774.621361,1107.266081L773.589342,1104.798783L769.878691,1100.493485L768.384821,1098.069814L765.036379,1090.244321L764.424416,1086.730343L764.676601,1083.577740L766.319207,1076.531144L766.618350,1072.662076L766.291602,1068.562499L765.118096,1064.307179L763.894891,1061.758979L756.463172,1050.214275L755.238647,1047.267373L755.258217,1044.189645L755.890691,1040.177397L756.392922,1038.196200L756.418389,1035.953340L755.945842,1031.293189L755.344555,1029.187407L754.208927,1027.667258L752.920061,1026.253024L751.829229,1024.496136L750.876889,1019.792427L751.822370,1015.780274L759.059261,1002.217570L760.280335,998.404846L761.762901,989.807579L764.162210,981.696315L764.044842,977.168685L763.935076,975.000725L765.273937,966.640421L766.958766,961.064846L765.840235,957.345736L762.788967,951.128558L762.566046,947.390792L763.636782,944.749445L764.981258,942.780898L765.558003,941.061536L766.086029,938.270693L767.772829,935.760186L769.981653,933.667062L772.054236,932.128369L777.636605,929.555578L779.836718,927.618202L780.518846,924.241816L779.970896,922.771657L777.892307,920.466751L777.345980,919.015285L777.496981,917.003169L778.179918,915.271381L779.189022,913.689102L782.055254,910.462253L784.306742,908.755390L786.625993,907.459670L789.818480,906.643616L791.380551,905.840022L792.371723,904.681351L791.883892,903.285964L790.878643,901.653861L790.816572,899.934548L792.484985,892.739612L793.211212,891.394069L794.786439,890.123279L800.054326,888.584627L804.051207,885.594537L807.846886,884.273916L811.683023,883.918843L814.457493,884.896850L815.944126,888.210865L815.990821,892.733383L815.013155,897.156240L813.515646,900.196182L812.491129,903.335799L814.438086,910.225535L814.197619,913.315335L812.781893,912.063218L811.659049,910.574383L810.971149,908.867520L810.826201,906.942628L809.660607,913.203205L810.234086,916.212028L813.186336,917.489067L815.851449,917.819228L820.687223,919.258234L821.373307,919.694297L820.656197,920.398227L820.363603,921.762482L822.248272,921.313959L825.279045,919.874951L826.928595,919.582166L831.287645,919.756592L833.126216,920.398227L835.773064,921.762482L839.348772,923.120508L843.100701,923.270016L845.830267,921.600515L846.359397,917.489067L847.508956,916.293011L849.214972,915.283840L850.928025,914.604830L851.987427,914.361882L852.275681,913.203205L852.545097,908.101301L853.189791,906.942628L852.813064,904.475781L854.182721,899.112268L856.914779,891.786519L856.929957,887.749893L857.562648,883.489018L858.680260,879.589453L860.106620,876.630522L861.431355,875.228924L864.198054,873.397504L865.155183,872.363438L866.024365,870.201866L866.665917,866.059377L867.222192,863.904040L868.042921,863.904040L869.393297,865.511199L871.725190,864.763683L873.971523,862.795225L875.110768,860.764475L875.016113,857.718353L873.606337,858.634058L871.580824,860.901520L869.703422,861.904436L868.298274,861.150692L867.026043,859.942209L866.079708,858.509473L865.632280,857.101654L865.860859,856.260701L866.384249,855.457123L867.217891,854.497814L867.364687,854.447979L868.133573,851.644804L867.957243,851.358257L873.242157,848.343288L875.285944,846.169273L874.455767,842.992346L881.565448,836.196220L882.226250,834.875617L882.498525,833.312074L882.355270,827.898850L882.684280,826.491039L886.026457,818.268425L887.823265,815.035444L889.512292,813.633862L890.738799,812.250968L895.374833,803.081507L911.477130,782.661980L925.135065,769.543105L928.761595,767.045156L946.624173,758.068719L947.595186,756.997275L947.904448,755.645512L948.452143,750.730568L958.917902,729.413659L960.861485,723.059653L963.612829,709.292555L972.684175,693.992853L974.345950,688.404928L975.715732,685.732433L980.742916,683.340265L981.754133,680.293981L981.682812,672.899387L983.426415,665.573269L983.451422,662.022326L984.191267,659.324846L986.170057,656.745725L989.776150,653.138681L996.252484,641.663329L998.336531,635.645252L999.435533,628.904456L999.665179,603.815980L998.538448,599.218099L996.132144,594.078157L992.890400,590.115703L989.239864,589.087704L986.635168,589.542516L985.239320,589.579898L984.876859,591.648353L987.016369,593.990934L988.035503,595.648180L987.634210,596.408269L986.807717,596.321046L985.904768,596.109218L985.033020,595.772785L984.326405,595.361589L983.339214,594.265065L983.144910,593.355447L983.229132,592.657657L983.209097,592.221538L982.779019,591.436524L982.375171,589.797958L981.941415,589.087704L981.188019,588.863413L979.139559,589.168698L978.324484,589.087704L972.572249,584.757630L968.894178,583.212504L959.071791,586.994319L957.152580,587.187459L955.541067,586.994319L954.479186,586.016158L954.252403,583.860460L955.141845,584.383810L956.292166,584.707788L957.051912,584.321506L956.769565,582.714075L955.946015,581.978892L952.732454,580.109779L949.423212,577.237564L945.045724,574.901155L938.976453,569.275045L936.977358,566.938606L935.998753,564.471317L929.871463,555.443195L924.824864,552.639403L922.230985,550.614433L920.923841,547.648618L920.227544,545.442940L914.188073,532.345763L911.383897,527.597804L907.708483,523.410592L902.883731,519.796602L895.421773,515.385007L891.422506,512.188447L890.738674,511.459404L890.075903,510.393878L888.868666,505.832653L888.199477,504.592640L878.893681,495.395263L876.901060,486.347264L874.588793,483.268911L870.184693,479.143636L868.669695,476.744478L865.764000,470.157634L863.611405,467.403221L858.620563,465.078781L850.118226,457.345100L848.115916,454.378720L846.068589,447.386455L844.805042,445.267564L845.048573,442.961699L843.895408,440.443930L840.257928,435.857063L838.689071,436.717104L838.251408,436.530139L837.475190,435.857063L836.963272,437.296696L836.878036,437.951074L835.975502,437.951074L835.697005,436.773194L835.388406,436.156208L835.069487,435.651400L834.675272,434.822517L834.067408,436.916534L833.078931,436.916534L832.368796,435.719954L831.208173,434.423656L829.158972,432.728490L828.298586,432.504129L827.353762,432.510361L826.634997,432.628774L826.344115,432.728490L825.832424,432.229910L825.232645,431.494504L824.585975,430.827652L823.890658,430.534735L822.601018,429.238420L819.349187,423.143188L817.996901,421.223606L815.167853,419.790146L812.096460,419.154436L806.433775,419.029787L803.844108,418.269427L802.710474,418.319286L802.036737,421.142585L800.977432,422.152236L798.203446,423.311462L792.907912,424.501847L786.525999,424.601565L780.331604,423.778891L775.573840,422.170933L772.962843,420.114233L767.583941,414.860251L765.223827,413.813185L762.916588,413.295883L754.419441,409.624893L748.367075,408.278647L742.572955,407.904688L725.469370,408.933073L722.115449,408.471858L718.154846,406.446248L714.863150,405.530045L713.351586,404.370765L709.043422,399.072933L706.559217,398.499517L697.692258,399.072933L694.646474,398.898415L689.050915,397.813908L681.038237,395.208585L670.418430,390.359392L645.552262,383.478164L626.039152,375.780255L621.428584,372.825709L608.061278,362.172926L590.963374,347.954147L576.320428,331.421936L574.715938,327.026917L573.213554,324.171680L569.863831,319.296522L553.542970,300.561973L545.362975,293.491793L541.752331,289.669834L523.007681,258.431367L521.460262,252.046069L520.228486,248.479217L518.649360,246.914027L508.232184,228.224582L503.998481,215.820341L496.939172,216.667641L496.418537,217.395672L495.826123,218.223999L495.932933,223.223866L495.991061,225.974994L496.013259,227.031301L495.479945,228.547996L492.087235,231.335840L491.427038,232.107455L487.556233,236.630288L485.316682,237.849936L480.458590,238.499357L478.596176,239.445536L478.572338,239.457646L477.020915,245.171669L474.572338,248.830480L474.043138,251.455766L473.023130,253.031717L470.583286,253.784052L467.804825,253.898882L467.579916,253.866035L465.690110,253.590029L461.304308,250.160945L456.323807,239.608121L450.915817,234.880004L449.738822,232.610953L449.958108,230.682442L452.193071,229.937962L454.080011,230.413162L455.877940,231.335840L459.289586,233.759340L458.415669,230.480886L456.614012,223.728597L454.638529,219.198202L450.807658,216.810209L450.466307,216.755961L445.051320,215.895399L440.138343,217.293353L435.879678,220.382291L435.368581,220.934318L432.007172,224.564177L428.584701,229.937962L427.706110,234.674087L430.035763,246.450674L430.335037,249.333365L430.354768,255.043219L430.917950,257.858506L431.773728,259.492297L434.223316,264.170028L434.964085,267.135682L431.644508,270.738770L431.353948,275.878039L429.720273,278.012116L428.602874,280.138258L429.109187,283.369013L431.413567,289.826456L431.414371,289.834374L431.955413,298.132631L432.612839,300.460536L433.566032,301.537383L436.400240,303.437693L437.531129,304.791657L437.960477,306.078312L438.243778,313.501217L437.622311,315.726074L433.469159,325.424996L432.686979,328.105013L433.122159,330.424772L434.785845,331.260039L443.235547,333.191834L445.469682,333.322468L452.537446,330.131834L456.665071,331.897375L459.297393,337.395823L461.495947,343.891710L467.316007,353.261233L466.097778,355.695603L457.970484,357.876626L443.264002,364.566061L440.778800,364.245446L437.064874,361.399481L434.735959,361.838845L432.653701,362.709657L430.627947,362.765072L426.258393,361.993217L421.871333,361.878428L418.181992,362.626534L414.734512,364.178156L411.083501,366.442245L408.666510,367.942394L403.284041,370.214375L397.723100,371.354318L397.408080,373.590653L398.834012,376.349439L401.249895,378.490749L406.331472,381.550306L408.769373,384.910643L409.794280,389.319800L411.332416,400.936128L410.967923,402.970432L405.730761,412.698525L404.776474,415.286836L402.222501,434.294961L400.672612,437.255129L396.287747,443.021061L396.261938,443.036891L394.162405,446.994244L393.165371,452.099174L391.828522,467.374026L389.773530,476.744448L379.359249,500.304199L376.587364,515.031425L376.533527,519.565836L376.534958,519.581663L379.380904,541.924740L379.954911,564.262969L389.693816,579.281262L402.060334,598.405743L414.448123,617.529704L426.802938,636.653190L439.165578,655.768337L447.290182,668.348043L448.948488,671.694694L449.320907,675.207478L445.860163,692.493820L445.398454,694.796591L444.782740,697.826704L443.065181,706.371111L440.380932,719.654396L436.889767,736.877407L432.753235,757.256852L428.119760,780.001581L423.167583,804.328418L421.956520,810.245327L418.021396,829.446323L412.862561,854.564281L407.859671,878.883359L403.184449,901.628321L398.967188,922.012004L395.407070,939.247177L392.673833,952.522811L390.898885,961.067401L390.266317,964.089670L387.199612,978.875332L367.827885,986.553815L345.791261,995.292565L323.748983,1004.019525L301.729461,1012.746562L279.678353,1021.481587L257.608411,1030.212730L235.547721,1038.947903L213.496257,1047.687104L191.425259,1056.414508L169.363750,1065.149894L147.269536,1073.881393L125.198196,1082.616916L103.108462,1091.356461L80.999080,1100.084203L58.919688,1108.819921L36.828399,1117.555703L14.718311,1126.291546L0.334821,1131.957216L1.461319,1134.392783L5.963692,1144.127414L12.781029,1158.909054L19.598507,1173.698768L26.414783,1188.480725L33.217141,1203.270746L40.031470,1218.049041L46.859124,1232.835388L53.651455,1247.625825L60.469100,1262.404519L67.285262,1277.183335L74.087487,1291.982052L80.893045,1306.757138L87.711041,1321.540243L94.513171,1336.323447L101.292382,1351.106745L108.090468,1365.898045L114.885431,1380.681513L119.922359,1391.642540L119.679851,1391.721681L118.983872,1391.824564L118.782745,1391.903706L120.855969,1393.280762L125.900256,1393.597326L128.256115,1394.499536L129.817680,1396.612607L135.926956,1409.433517L145.769036,1430.176587L155.617594,1450.903943L165.474502,1471.647225L175.295633,1492.333676L175.295633,1492.333676Z M494.266684,167.411605L488.914986,166.292030L486.017585,162.273334L482.004009,161.731827L478.764190,164.575366L479.305182,167.064859L479.895904,168.603887L480.824256,169.869984L479.716047,171.481374L476.399168,173.336560L476.515923,177.134784L476.875977,178.631042L478.591381,179.485986L480.739680,180.111783L482.794132,179.121597L486.361554,176.166865L487.710327,174.797034L490.646841,173.646054L494.103152,171.626696L494.266684,167.411605Z M482.790327,170.177460L483.426507,169.381320L484.573785,169.363868L486.640022,170.799165L486.211486,173.320864L483.691158,174.279440L482.790327,170.177460Z M477.041699,0.000000L476.883152,2.252086L477.451411,5.589675L476.942672,7.417557L475.579226,9.513698L474.868864,10.006541L474.067227,10.000303L473.374386,10.281036L472.987756,11.703421L474.589119,12.239936L476.562776,13.574984L478.219782,15.122144L478.980996,16.319947L478.540290,18.553354L476.732690,17.898304L472.503543,14.648014L472.789842,17.068575L472.546394,23.513028L472.768323,25.216165L474.296278,25.765162L475.734479,24.916712L476.866637,23.556698L477.501012,22.595955L478.578359,21.859801L480.157257,21.753745L482.758174,22.071913L483.749633,22.508614L484.903116,23.594129L485.663168,24.966621L485.451515,26.251773L484.591813,26.389022L480.448118,25.216165L479.091505,25.578004L475.849853,28.347945L474.319748,28.416570L473.124098,27.786470L472.205890,27.699130L471.486639,29.396032L470.763285,26.694714L469.001270,24.972859L467.202325,24.299091L466.453359,24.742031L465.887154,25.740207L462.492595,25.939843L461.393391,27.312336L460.410686,27.312336L460.730276,25.122586L461.034952,24.261659L459.213281,21.759984L459.086845,19.688775L458.869370,18.840328L456.867449,20.069328L455.706844,21.460532L453.354090,28.347945L446.350467,42.846524L445.748226,48.336533L445.316077,49.771422L445.310449,49.815093L445.309837,49.817199L448.322494,49.540219L454.773205,47.709986L456.287978,47.900140L459.035921,53.810761L460.063897,56.948301L460.102871,59.753071L459.759435,64.308837L460.794695,78.063238L460.163902,80.265833L458.054242,84.029253L457.676808,86.318991L458.558023,88.933565L462.104541,93.259482L462.932155,95.168902L462.222191,97.173391L460.681520,98.559894L459.450038,100.160310L459.638400,102.790691L461.035158,109.643901L461.988837,111.481977L462.225047,111.617996L462.773077,111.933572L465.922406,112.519853L467.218993,113.541883L468.869842,116.631730L469.922398,117.780515L472.054774,118.382636L474.113333,117.962736L479.384572,116.296433L478.485993,114.477634L476.970350,109.374652L477.279133,103.772558L478.576287,98.794272L480.023890,95.531545L480.391353,98.769318L482.158893,97.571530L483.400683,95.606406L485.108564,91.445321L487.403748,88.787707L486.837957,85.144395L486.859224,84.021453L488.109946,80.752442L489.897242,77.508376L490.409431,74.152009L487.916295,70.508659L489.015661,69.011390L490.901570,68.774322L493.114141,69.423139L495.184703,70.508659L495.432449,68.487346L495.750354,68.000733L496.692838,67.277052L493.687601,66.428599L492.432011,65.829690L491.799865,64.706736L489.764753,62.173850L488.977875,60.639145L491.739952,58.468097L491.346313,55.629513L489.308197,53.907646L486.210700,55.760525L485.467149,53.314975L486.495154,51.954949L490.142704,50.426480L493.908573,47.899827L495.684749,46.090620L496.579599,44.056821L484.825778,44.231503L482.128954,43.096069L482.547964,41.561363L482.679215,39.577475L482.342159,37.793224L481.394873,36.819997L480.041682,37.306611L479.146200,38.966088L478.354030,42.060454L477.573237,40.132714L477.085557,38.155065L477.016042,36.283474L477.484682,34.630237L476.315619,32.677547L477.925756,29.832735L480.946739,27.817663L483.989346,28.347945L483.060950,28.809602L482.541203,29.658054L482.431518,30.905778L482.687628,32.540297L483.376780,32.041207L485.247852,31.055505L485.956818,30.543938L486.354730,33.020671L487.556550,34.886021L489.231768,35.597225L491.009126,34.630237L492.288135,35.697043L493.633680,36.420724L495.087788,36.795042L496.629095,36.819997L495.393474,34.031329L493.478058,32.459195L491.345112,31.217709L489.475004,29.396032L489.817119,28.491433L489.916782,27.705368L489.663215,26.732145L488.982410,25.216165L490.454194,25.378368L491.780889,25.216165L492.964998,28.191980L494.099572,27.667937L495.997977,23.119996L494.291606,20.973922L492.895102,21.267135L491.671805,22.483660L490.550739,23.119996L488.700345,22.464944L487.056889,21.210988L483.748346,17.979405L484.691344,16.382333L484.619177,15.502696L484.458245,15.496457L486.460089,14.005443L489.958060,10.368376L492.056206,9.513698L495.409441,9.694615L497.228330,9.544890L497.327646,8.047646L495.542336,4.179776L492.891166,5.227843L493.229997,5.920316L493.888113,7.679574L494.248219,8.372049L492.560761,8.459388L490.939702,8.297187L487.791698,7.417557L486.764668,6.594074L485.992214,5.577198L485.177336,5.190412L484.067966,6.275910L483.549854,5.152981L483.216970,4.778671L483.223538,4.385646L483.704542,3.225288L482.587577,2.096124L482.005926,2.769879L480.145209,4.179776L477.853143,0.000000L477.041699,0.000000Z "/></g></svg>