<?xml version="1.0" encoding="utf-8"?><!DOCTYPE svg  PUBLIC '-//W3C//DTD SVG 1.1//EN'  'http://www.w3.org/Graphics/SVG/1.1/DTD/svg11.dtd'><svg enable_background="new 0 0 1000 1489" height="1489px" pretty_print="False" style="stroke-linejoin: round; stroke:#000; fill: none;" version="1.1" viewBox="0 0 1000 1489" width="1000px" xmlns="http://www.w3.org/2000/svg" xmlns:xlink="http://www.w3.org/1999/xlink"><defs><style type="text/css"><![CDATA[path { fill-rule: evenodd; }]]></style></defs><metadata><views><view h="1489.52775521" padding="0" w="1000"><proj flip="auto" id="robinson" lon0="56.9714394553"/><bbox h="162.81" w="109.38" x="757.51" y="-441.98"/></view></views></metadata><g class="" fill="#000" id="country"><path d="M882.173266,940.555492L888.201305,933.188914L894.456580,909.130029L908.577049,895.002995L897.548731,869.822877L887.218807,898.001895L869.849189,922.389662L871.497197,941.789491L874.005081,942.873916L882.173266,940.555492Z M504.956464,211.220430L500.436299,212.126376L495.938500,218.565241L490.967435,228.470300L483.183947,233.591136L477.179396,239.385648L471.612195,246.564980L466.147685,248.084668L457.889104,238.966411L451.897831,229.660678L452.921303,227.646764L456.362911,226.980447L457.221135,222.181417L454.362102,215.203575L449.147092,212.590579L442.898108,212.358477L437.286370,215.480596L431.632317,221.634876L428.750578,228.253186L429.598410,241.564172L432.808842,256.543862L433.517552,263.805088L430.967453,272.832701L431.085459,286.126577L434.585576,296.410952L437.469905,302.540988L438.208936,307.712875L433.939313,324.133602L439.371121,327.202102L456.488822,328.354653L462.565886,339.468321L466.733485,347.079281L466.253462,351.614341L454.575726,354.981921L439.761508,358.708669L428.767142,357.631059L409.630693,362.652392L399.900411,370.352625L403.446980,375.171731L407.439560,378.875813L410.044527,389.059968L408.374471,403.531307L404.139604,417.583086L398.863349,435.076023L392.731844,455.194218L384.556597,485.455796L377.429588,509.229772L377.957748,526.360103L379.207638,537.535664L380.118813,559.886127L391.373548,577.224370L400.696641,591.622689L413.513219,611.398393L427.129715,632.407650L440.129806,652.496472L449.808859,667.454366L446.700778,682.995395L443.305336,699.949693L439.901485,716.903782L436.489588,733.857691L433.070007,750.811454L429.643104,767.765102L426.209238,784.718666L422.768767,801.672178L419.322673,818.633149L415.883026,835.586654L412.411926,852.540202L408.948609,869.493825L405.493438,886.447555L402.020832,903.401424L398.531136,920.355463L395.063621,937.309705L391.566741,954.264180L387.362224,974.680266L373.679374,980.110068L351.515929,988.898035L329.360123,997.678603L307.186568,1006.459248L285.021205,1015.239971L262.838034,1024.020769L240.650016,1032.801641L218.470705,1041.590067L196.272909,1050.371085L174.083181,1059.152173L151.875508,1067.933332L129.663440,1076.722039L107.458784,1085.503334L85.236106,1094.284695L63.021379,1103.066121L40.788580,1111.847611L18.550686,1120.629163L0.335902,1127.832476L7.388225,1143.129364L14.453756,1158.433911L21.505752,1173.738628L28.557057,1189.043511L35.620522,1204.348553L42.669396,1219.646267L49.717656,1234.951607L56.764011,1250.249608L63.822445,1265.555222L70.865627,1280.853484L77.907532,1296.159348L84.960463,1311.465327L91.998197,1326.771415L99.033043,1342.070125L106.078974,1357.376412L113.109200,1372.682789L119.979938,1387.630154L129.875774,1392.605145L136.567049,1406.737153L146.148182,1426.936527L155.709854,1447.128527L165.265796,1467.328101L174.815067,1487.527755L202.342175,1476.043869L243.648172,1470.432858L264.700411,1455.761964L287.920359,1446.245733L302.128964,1432.809328L343.058334,1428.500113L368.406069,1428.866695L381.772722,1432.293120L396.604025,1439.071166L434.795031,1427.692135L448.052776,1409.505209L459.691716,1384.488059L461.702345,1375.188974L459.048935,1365.283948L452.582240,1356.321577L453.916950,1343.925427L480.689378,1304.455683L498.150900,1297.894918L548.749395,1290.369139L584.927538,1287.982740L599.567177,1282.282326L619.677456,1255.014831L628.315784,1190.457313L648.987572,1165.001604L665.527327,1153.616625L693.786414,1142.164421L726.732935,1135.851165L759.556660,1133.696885L767.653579,1130.712316L776.878878,1124.623518L772.374502,1104.883749L767.471001,1088.435433L764.728328,1061.029570L756.371747,1034.267620L755.309522,1023.317704L757.260662,1004.006045L763.399030,981.015038L766.777282,956.029195L767.531531,936.666531L777.563012,921.432391L795.256294,886.701824L803.833872,883.770248L813.742027,882.282026L813.191953,896.431398L811.281101,909.122550L819.234586,913.490064L830.335589,914.798825L846.739719,911.740066L853.411778,896.880111L870.098639,850.438766L893.207890,803.624036L913.756882,776.627030L943.006065,754.221636L951.009496,744.499614L966.416009,701.078975L981.910852,675.187513L984.205294,659.496794L997.603390,634.053065L999.605617,620.994359L999.664098,603.320636L996.487542,589.775234L979.053389,584.083244L957.348460,579.124218L942.151195,566.513311L924.535652,546.212653L906.528338,518.864717L882.371135,494.552583L874.665955,478.595685L863.668705,463.356443L851.988665,453.660511L842.595328,435.315442L814.906713,415.966933L804.569089,415.630234L790.880922,419.842696L781.728150,418.974768L753.360289,404.765909L713.719176,398.241178L684.817759,391.417025L631.321325,373.166272L617.662133,364.283749L587.272954,338.308327L566.153892,310.048055L546.419917,289.240370L522.633006,251.520779L504.956464,211.220430Z M486.744326,171.909283L486.808187,165.304602L485.059812,161.889887L479.343439,161.440580L477.625788,167.131760L477.732601,175.323896L481.714006,176.005316L486.744326,171.909283Z M487.126016,4.471225L484.496264,0.793884L479.889463,0.000000L476.437867,6.553310L472.487739,18.581545L462.636168,20.948259L458.375731,19.502766L454.466388,22.903047L446.017416,45.049932L450.652855,44.203600L457.717218,47.379217L460.195228,63.070041L459.467805,77.899463L460.969465,93.604983L460.968641,102.127941L466.878483,109.122985L475.882520,112.118699L479.656016,111.759214L481.802687,108.239247L482.020273,99.244525L484.180706,92.706247L489.089592,84.632569L489.320609,37.979692L487.710345,22.730786L487.126016,4.471225Z "/></g></svg>