<?xml version="1.0" encoding="utf-8"?><!DOCTYPE svg  PUBLIC '-//W3C//DTD SVG 1.1//EN'  'http://www.w3.org/Graphics/SVG/1.1/DTD/svg11.dtd'><svg enable_background="new 0 0 1000 469" height="469px" pretty_print="False" style="stroke-linejoin: round; stroke:#000; fill: none;" version="1.1" viewBox="0 0 1000 469" width="1000px" xmlns="http://www.w3.org/2000/svg" xmlns:xlink="http://www.w3.org/1999/xlink"><defs><style type="text/css"><![CDATA[path { fill-rule: evenodd; }]]></style></defs><metadata><views><view h="469.92813848" padding="0" w="1000"><proj flip="auto" id="robinson" lon0="-81.4665972168"/><bbox h="40.64" w="86.67" x="-1226.15" y="-161.47"/></view></views></metadata><g class="" fill="#000" id="country"><path d="M203.544038,451.351498L203.380205,450.990111L202.957038,450.856555L202.314399,450.832987L201.484611,451.901433L201.527199,452.498507L202.191435,453.590522L201.833129,455.263899L204.053987,464.015736L205.320656,464.015736L204.786687,462.475916L204.165400,461.501743L205.720442,459.058456L208.212528,454.069752L210.395119,452.152833L208.052257,452.074270L206.473024,451.634322L205.104072,451.445772L203.418320,452.152833L203.544038,451.351498Z M335.469151,400.655293L337.683908,396.546491L332.834299,396.515066L330.566054,396.177249L328.444616,395.352346L323.219776,396.719328L320.188174,397.944898L317.815200,399.296167L316.291303,401.150235L315.100627,403.287126L313.263193,405.039063L307.083534,406.099653L304.950737,407.042399L303.153202,408.527224L301.418798,410.451998L299.713500,412.958133L300.776062,413.028839L305.552529,411.166914L305.927618,411.441882L307.135981,411.960392L308.723045,412.368916L310.148675,412.368916L311.168902,411.693281L313.699964,408.527224L318.572529,405.769691L319.494819,404.661965L320.140545,403.397113L321.059674,402.360092L322.815972,401.935857L324.376028,402.022275L325.470054,402.312955L326.391699,402.894315L327.427351,403.860630L328.868910,404.575546L330.196979,404.284866L332.098381,403.255701L334.049941,402.493648L335.469151,400.655293Z M218.267167,383.253773L217.650937,383.410897L217.151250,383.442322L216.889029,383.725146L216.941510,384.683604L215.875845,384.683604L215.942092,383.253773L214.682675,383.253773L215.055294,384.770023L215.297316,387.166168L215.693040,388.635281L214.433601,388.635281L214.391252,387.904653L212.682523,388.941673L207.703413,392.916919L204.527632,393.655403L203.181739,394.629574L202.158804,396.405079L201.845724,397.944898L201.704326,399.665409L201.157141,401.935857L200.831595,402.092981L198.472544,406.453182L198.479536,407.207379L196.864107,407.725890L193.320487,407.733746L192.650012,407.867302L193.725301,412.958133L194.067220,413.806604L195.398554,415.267861L198.856065,424.467497L205.663078,431.270986L208.844799,433.462873L212.705098,438.577274L214.406960,440.289931L217.621511,441.146260L224.890043,441.735477L230.643136,445.569315L234.256747,445.553603L237.962763,444.398737L241.205268,442.929623L236.910285,432.983643L235.920510,431.600947L230.718865,432.150883L228.752429,430.941025L227.707365,430.941025L226.405125,432.040896L225.320575,431.380973L224.587318,429.684029L224.365218,427.704261L223.822023,425.787342L220.903803,422.676278L219.946977,420.272274L220.364182,419.313815L221.886346,413.688761L222.112549,412.368916L227.658066,410.043475L228.696182,409.132153L228.623714,406.021090L228.017284,404.905507L226.952350,404.434134L225.476892,403.255701L225.005865,403.114289L223.583326,403.349976L223.047857,403.255701L222.965643,402.784328L223.223060,401.244509L223.163072,400.741711L221.914875,398.384846L221.608390,397.976323L221.545596,395.729444L218.267167,383.253773Z M118.861982,297.526853L120.756784,296.835508L123.946119,295.279981L123.863609,292.734574L124.153553,290.636969L123.812663,289.411403L121.828412,289.529246L119.934888,290.754812L118.243291,292.938834L116.964502,295.452817L116.371911,297.801820L118.861982,297.526853Z M141.692926,273.628313L138.586402,271.970657L135.126866,270.737235L132.766451,269.519526L127.129729,271.310737L125.478533,273.078379L126.635302,276.110869L127.726291,276.707939L131.105082,277.202880L132.368049,277.540696L136.910512,281.500216L135.946221,278.200616L135.868409,277.257873L135.941427,275.505942L137.062618,274.657474L139.435440,274.932440L142.987846,276.110869L141.692926,273.628313Z M125.722473,262.912471L125.934382,261.026986L124.003896,258.968665L120.399617,257.876655L111.220690,264.923655L107.381566,264.373722L106.323261,264.373722L107.245064,266.966264L109.170449,269.967328L111.454359,272.442028L113.422986,273.471189L116.311190,272.701282L122.407545,269.181709L125.866635,268.199686L121.305549,264.373722L121.378208,262.920327L124.003396,263.815933L125.722473,262.912471Z M678.383242,264.226165L677.525192,263.505551L676.710932,263.216201L675.573631,261.633913L675.008655,257.465483L674.012001,255.009147L673.904000,254.380653L673.022706,253.291087L672.265811,253.074708L670.973111,253.288806L668.789676,256.020359L667.805728,259.113008L668.355015,260.983936L667.524232,263.573230L667.326058,265.011956L666.243561,264.867554L665.607683,267.385669L668.220397,274.223197L670.476292,273.936006L670.742833,271.338017L671.432746,270.400927L672.527023,270.188368L672.617099,268.529519L671.638246,267.384435L671.843242,265.732270L674.032156,264.434549L675.837924,265.371469L677.648691,264.942326L678.383242,264.226165Z M673.183650,233.724284L671.034524,231.722162L668.789920,236.402410L671.710506,238.984178L674.861878,241.747910L676.348217,240.723226L677.131440,239.093842L677.438428,237.621733L676.223951,236.675843L676.995885,234.254104L676.093568,233.569257L675.631299,235.358111L674.798460,236.091459L673.183650,233.724284Z M714.686685,226.978292L713.683099,225.438481L711.869167,224.124694L710.265850,223.028830L709.576723,223.967713L709.720251,226.135283L709.122684,227.331820L708.905604,226.396935L708.474922,225.446337L707.023574,223.819616L700.006101,227.150284L698.529435,225.988703L696.351358,226.057480L695.574038,228.776286L697.084403,233.931010L696.762227,235.754799L697.358764,239.212517L697.230592,240.505516L696.465977,241.722221L695.690173,243.155805L696.067405,244.596381L697.472317,246.445907L698.043502,247.669281L697.292842,251.030533L695.995521,252.640610L695.087179,255.665506L695.935677,257.648826L696.973905,258.497294L699.953194,260.011395L700.952541,261.810578L701.877689,266.338835L701.489268,269.070863L703.200160,270.728098L705.497344,272.246153L706.634362,271.241211L706.676352,270.378039L705.398137,270.302203L704.418617,269.364332L704.286709,265.554267L702.729767,263.321416L703.260803,261.669508L703.279164,260.016026L704.789975,257.861077L706.148870,256.138375L706.779664,254.918606L707.107313,256.139881L707.509810,257.146310L708.744241,256.816070L709.899459,256.575295L711.126825,256.361436L711.919700,257.296734L714.018880,257.452421L715.064163,256.006667L715.144312,254.281253L716.765774,252.700103L718.457976,248.384313L716.406987,243.403909L716.914500,240.958988L718.383206,239.878537L718.798247,237.729651L717.778895,235.206434L715.682848,234.777220L715.790480,233.271091L715.734816,231.291334L715.359948,229.052323L714.686685,226.978292Z M599.020854,159.217692L597.762365,160.388274L597.462118,162.202576L597.820075,163.372913L598.897193,163.723841L600.163174,163.431100L600.805301,164.133159L601.328283,165.127693L602.124900,164.835005L602.546082,163.723340L602.495276,162.670237L601.473537,162.260726L600.721213,161.675600L600.311255,160.505217L600.699901,160.037036L600.625273,159.451801L600.095026,159.627372L599.020854,159.217692Z M261.904697,101.130380L261.461999,100.598785L260.244710,100.716722L259.896226,101.306999L260.221494,102.074415L260.542260,102.959783L260.688428,104.199770L261.487374,103.963432L262.274040,103.963377L263.998223,104.200091L265.408742,104.437014L266.227520,104.909952L266.966377,104.910518L267.100493,104.379101L266.654042,103.847350L266.481487,103.138734L265.837423,102.370995L264.980003,101.662405L264.012903,101.071829L263.227022,101.012582L262.834543,101.425810L261.904697,101.130380Z M185.085295,94.954653L186.686717,94.186889L187.044334,92.983476L185.812367,92.329037L184.671924,91.783827L184.352996,90.472007L183.856712,88.832440L182.692375,88.724675L181.752858,88.069792L181.135370,86.867736L180.092203,86.322371L179.947269,87.197336L180.771633,88.180503L179.391166,90.260271L179.210716,91.791692L180.005616,93.321663L181.317699,94.304036L182.813034,95.504792L183.770452,95.831441L185.085295,94.954653Z M159.658290,54.724349L158.196464,54.048722L157.453935,52.996003L156.625763,52.728894L155.726345,53.113844L154.719973,54.048722L154.652844,55.242853L157.807597,57.034048L160.879909,57.709674L163.344989,59.108064L164.652933,63.153967L162.397810,61.951980L162.330580,63.153967L163.953385,64.293104L164.498793,66.037164L164.245327,70.460162L163.955745,71.316479L163.567716,71.457890L163.482942,71.615012L165.194067,73.783303L165.990050,74.136829L167.701827,69.705974L170.586657,66.807064L174.100826,65.267264L177.361495,65.793624L175.703201,63.059693L173.679981,61.417764L169.504903,59.202337L165.720289,54.960032L164.098897,54.048722L162.447750,54.897183L161.014264,55.070018L159.658290,54.724349Z M149.517666,56.224868L149.822248,55.478536L149.608609,54.975744L148.914302,54.048722L148.995659,52.603197L151.580570,49.413613L150.675598,44.511396L146.420518,36.670995L143.173888,36.765268L140.358330,38.030102L135.581856,41.942447L143.280806,49.154361L146.626684,53.310247L148.705027,57.772523L149.517666,56.224868Z M363.628583,467.928138L366.067604,465.335583L367.230453,465.335583L368.046556,466.459024L368.902218,466.836123L369.790835,466.459024L370.718999,465.335583L371.874926,465.335583L375.337210,466.411886L389.011230,465.854094L407.732205,461.941692L408.975584,461.682437L429.917581,458.736351L431.730804,459.058456L434.900632,460.174041L436.193194,460.056197L437.626901,458.924901L437.844840,457.738610L437.841274,456.395195L438.645071,454.792525L440.361948,453.519816L441.919156,453.048442L443.066205,452.302101L443.595600,450.173063L444.092400,449.261741L445.240838,448.169726L446.616684,447.258403L447.810221,446.873448L452.054983,446.197813L452.672557,444.430162L450.006569,438.962229L450.895292,433.887108L455.585529,430.186827L468.015543,425.661643L466.905901,424.467497L465.394700,425.457381L463.825121,426.203722L462.031403,426.698664L459.824930,426.981488L459.883562,425.661643L465.416441,423.878280L466.969829,423.029808L468.132520,423.029808L469.657180,424.695327L474.171197,425.905186L476.185856,426.981488L478.314444,425.645930L489.027200,425.661643L501.253810,420.570811L502.658140,420.272274L507.216916,420.005163L509.317911,419.447371L510.718977,417.821133L513.663703,410.444142L514.024287,406.712438L512.196576,401.016679L505.005323,384.636467L490.483447,362.309109L480.655136,351.726795L465.083041,337.098537L463.074799,331.669900L461.005672,323.585866L457.743000,316.640984L452.099650,314.700503L450.190119,313.097838L443.860047,309.892508L441.376793,309.303293L439.943638,307.582786L439.300219,303.811811L438.245294,300.119398L435.556137,298.634577L436.647832,296.929782L437.081460,296.254149L437.403354,294.015133L437.729607,275.505942L439.250205,271.970657L450.586716,259.927120L453.797000,257.648826L454.545658,256.344699L454.340572,255.307682L454.465191,254.459214L456.203725,253.705021L455.313623,254.647763L456.277972,255.999027L458.438216,257.648826L463.007947,258.968665L464.378641,258.520863L467.424776,256.910344L468.941503,256.446829L469.883341,256.564672L472.026396,257.436709L473.523898,257.648826L481.703063,256.446829L486.816160,254.152823L499.002254,247.262950L506.864763,242.792782L513.926676,237.733401L526.366299,228.832350L530.150969,225.312782L530.540333,224.574302L531.445787,223.749403L533.271793,220.127706L534.225350,219.310664L535.794062,218.917855L537.045926,217.943689L539.760990,215.225453L540.483248,214.887637L542.414339,214.439835L543.305714,214.039170L543.871547,213.371396L544.277239,211.894435L544.087038,209.767979L545.438132,207.926418L551.954756,206.151067L557.602679,204.093933L560.950018,202.676267L568.102034,195.735586L574.092596,190.705630L574.794564,189.289063L574.813630,187.660335L573.993712,187.660832L573.316625,188.581800L571.301222,189.786657L566.048356,192.692741L560.441286,195.173479L554.723405,193.696475L552.700062,191.290753L555.547681,189.730521L558.490651,188.868001L558.944093,188.105953L558.780359,187.241775L558.941412,186.519008L561.110535,186.016213L563.285022,184.861357L563.990952,184.303569L565.067837,182.975877L566.031456,181.428213L566.790879,179.817700L567.254354,178.317173L567.846838,177.272303L568.245335,176.235289L568.473278,175.017584L568.144921,174.404804L567.362824,174.011995L566.597259,173.430640L566.287266,172.322921L566.156378,160.829360L567.066878,157.105542L568.649057,154.308750L571.058702,151.559096L573.907085,149.956441L576.795641,150.522084L576.431899,149.532208L576.213383,148.542333L575.770419,147.882416L575.838671,146.562583L576.948990,146.751130L577.341065,146.923966L577.524916,147.246068L577.989831,147.882416L579.712586,147.057520L580.825776,147.458184L581.988648,148.369498L583.839273,149.084408L583.901349,147.882416L583.093464,145.588420L585.608091,144.158600L593.446065,142.603082L597.219884,144.229305L599.806866,142.202418L600.817357,138.046515L599.842643,133.254264L600.900434,133.254264L600.962588,132.060129L600.491528,131.148816L600.224991,130.426051L600.048090,129.310478L601.105865,129.310478L601.863622,132.680765L603.977197,136.310306L606.561801,139.397773L608.703419,141.165406L608.192684,138.879267L605.539506,133.254264L607.382761,132.641484L607.780850,131.368788L607.700855,129.718998L608.136641,127.990645L613.086097,124.691064L613.659824,124.031148L614.227334,123.622628L614.385593,122.711316L614.778107,121.815715L616.072362,121.391483L617.376258,121.179368L619.538612,120.283767L622.516997,119.647420L624.193705,118.916798L625.777750,118.767532L627.216584,120.071651L631.155607,117.856219L640.703042,118.908942L644.955106,117.447699L644.886061,118.767532L645.950706,118.767532L650.440791,117.777658L663.952556,120.495883L666.891157,119.427448L667.438755,117.149166L668.296561,117.667671L669.044939,119.223188L669.180417,120.071651L673.234414,121.344347L674.306992,121.988550L676.907445,122.632754L679.398205,120.338760L681.325459,117.054892L682.223673,114.682338L681.966545,110.612857L680.069811,108.947355L677.916721,108.216734L676.942155,106.896903L677.302368,105.435661L678.176115,104.595054L679.453267,104.233672L681.034364,104.139398L682.701116,103.730879L683.703034,102.819567L684.290201,101.908255L684.712653,101.499736L685.733991,100.745547L687.992550,97.241710L689.096357,96.236125L690.771713,96.188988L691.244420,97.186717L691.622611,98.404418L692.953777,98.985772L693.693946,98.451555L696.004599,95.796181L697.191364,94.790596L698.593532,94.287803L700.885484,94.083544L702.003132,93.470766L701.098249,95.159834L699.510159,96.173276L695.980885,97.555956L693.104458,100.062063L691.446924,100.164193L690.084344,97.555956L689.026700,97.555956L687.818346,100.808396L685.756002,103.479482L682.881720,105.160696L679.222922,105.459229L679.147390,106.896903L682.336445,107.250429L683.580121,109.371586L683.666714,112.734014L683.375174,116.724934L682.948645,118.539703L682.228853,119.615995L681.694932,120.707999L681.811079,122.593474L682.474902,123.654053L686.610165,127.095045L695.386134,129.310478L717.030254,142.508808L717.774886,145.651269L718.261948,149.375085L719.295141,152.431129L722.396370,156.838432L724.080474,157.576911L726.655820,157.105542L729.519797,155.581447L730.690688,153.633121L730.522320,151.103439L729.331614,147.882416L730.980868,149.705044L732.199371,151.841918L733.698369,153.633121L736.172752,154.465873L736.105613,155.785708L734.833388,155.785708L734.766293,157.105542L737.307316,159.760923L740.287266,167.962752L743.488982,170.288175L748.195294,170.201757L753.022795,177.885084L756.048739,174.357667L758.574242,174.876173L758.816928,172.110804L758.339841,168.127731L758.738809,165.016692L760.004164,165.016692L760.631287,168.622669L760.617917,172.597887L759.543423,176.093878L757.011744,178.317173L758.312508,182.999446L759.278242,185.262022L760.723677,186.228330L761.964492,185.890515L763.238987,185.293446L764.551024,185.191316L765.896140,186.228330L766.682029,185.167747L767.277785,184.869213L768.390181,185.026337L767.959448,185.898371L766.926368,188.868001L777.315270,192.159735L776.731916,198.908184L777.573392,200.911507L780.232427,203.362632L778.149296,204.376078L776.487360,204.140393L774.658475,203.504043L772.113633,203.362632L773.985988,205.782333L778.581453,213.308546L779.578566,216.670989L778.002059,223.175902L777.966422,225.894139L778.605557,228.109581L780.329686,230.772826L781.028937,232.611172L781.260755,230.969230L781.645657,229.594399L782.394533,228.415972L783.699060,227.331820L784.721110,229.782947L785.361099,233.271091L785.325543,236.719954L784.298669,239.076808L786.118487,240.349509L789.778224,245.785987L790.757823,246.414482L791.066544,246.610887L792.454998,247.223669L793.631191,248.079993L794.229086,249.745504L799.419069,238.479738L798.833108,235.290129L795.788061,232.328349L794.591223,223.081628L791.961111,213.497094L792.843569,208.759822L793.901661,208.759822L793.707793,212.711477L794.973372,212.711477L795.037684,211.399496L796.088871,211.399496L795.615766,212.727189L794.908340,214.039170L796.017559,217.943689L797.231912,229.366570L798.637683,232.611172L801.099460,231.762704L804.352876,228.423829L806.885565,224.550733L807.172729,222.060325L808.507996,220.630501L809.781831,226.860449L811.172419,228.989473L813.926389,228.533815L816.506535,223.254464L817.359993,222.201736L818.298479,221.533961L818.720098,220.402672L818.021556,217.990826L820.660516,219.043554L820.771929,220.874043L818.766170,224.574302L818.071418,225.493474L817.396315,225.438481L817.096303,225.634885L817.567234,227.331820L818.179631,228.109581L819.117043,228.745932L820.098385,229.617968L820.770026,231.173491L822.086166,230.702120L822.688872,230.395729L823.241954,229.971496L823.311586,228.533815L822.188755,226.444072L823.129283,224.165780L824.576987,221.416119L824.985837,217.990826L823.914382,215.995358L822.369732,214.486972L821.626236,212.719333L822.950684,209.961816L824.216251,209.961816L826.521268,220.402672L827.114474,226.271236L826.600039,232.611172L825.419779,232.131945L824.978882,231.809841L824.345704,231.173491L819.294940,233.931010L818.249456,235.242992L817.858409,236.609967L817.808505,238.361896L818.365226,239.870282L819.786283,240.522345L822.875977,239.988125L826.142474,238.511163L828.783659,236.232870L829.936369,233.271091L830.727173,229.217302L832.449818,226.208386L834.791390,224.558589L837.439470,224.574302L839.037732,226.129825L840.960345,229.130884L843.881285,235.242992L844.932563,235.242992L845.795818,233.404646L845.665030,231.385608L843.610339,225.108522L843.401783,223.419444L843.828306,217.063797L843.794379,216.482441L842.952918,216.293892L840.772644,214.628383L840.005961,212.766470L840.105452,207.903499L839.501269,206.120148L841.370289,207.212156L841.836238,208.712685L841.926125,210.551029L842.650458,212.711477L844.448757,214.549822L845.964143,214.958343L846.909404,215.571124L847.040547,217.990826L846.395110,219.601342L845.384626,220.897611L844.791633,222.712388L845.384275,225.894139L846.660388,228.392404L848.444910,230.678552L850.400714,232.571891L852.174900,233.931010L849.463168,236.814228L850.293334,241.991451L853.591006,250.405423L854.094422,254.789174L855.882808,258.489438L858.683201,261.278384L862.285213,262.920327L877.245985,266.007809L879.675064,267.594759L881.321979,269.048154L889.473926,281.500216L892.448681,280.903146L898.296146,289.458540L903.043843,289.411403L901.355219,292.106078L898.561840,292.970259L895.954296,292.216065L894.884907,290.071323L894.436709,286.771722L893.079847,284.124185L891.239119,282.953612L889.350939,284.132041L887.688555,283.142161L886.682454,281.728046L886.238116,279.693292L886.213401,276.825782L885.357541,275.458805L881.407193,272.968393L878.697299,269.260271L874.261320,267.398355L865.853987,265.560006L866.877035,267.916863L868.671142,270.061603L870.976614,271.632840L873.554073,272.277048L873.497882,273.471189L871.173684,273.471189L869.714357,273.172654L868.242642,272.402747L867.115561,271.365730L865.924051,268.616064L864.102007,268.529646L862.268080,269.134572L861.440606,269.519526L858.900802,268.812468L856.850267,266.974120L855.310600,264.428715L852.759282,255.229121L851.446024,252.306620L849.554738,251.065343L847.174737,250.499697L844.197848,249.109153L841.492749,247.388649L839.888770,245.785987L839.549852,244.199038L839.037420,237.159900L838.365908,236.311432L836.749205,236.562830L835.102225,237.442722L834.332990,238.479738L834.121731,242.297842L833.735935,243.994778L832.930701,245.785987L829.652426,249.391975L829.144427,249.745504L828.799255,251.756687L828.795587,257.051756L828.271749,257.593833L826.035343,260.838438L825.729352,261.600488L823.239830,262.024722L821.930282,262.071859L820.458627,261.600488L819.348527,260.799157L817.496325,258.732980L816.109282,257.648826L815.352423,259.597160L814.947501,259.675722L813.562605,260.288504L814.109411,261.152685L814.430779,261.812605L814.901900,262.378250L815.858342,262.920327L815.789289,264.373722L813.561422,265.842829L812.095788,266.117796L807.508584,265.560006L807.440338,266.997689L809.366516,268.388234L814.031140,274.916728L815.901260,276.770789L817.273191,278.483439L818.072397,280.903146L818.212235,284.846955L815.378362,291.886104L809.222183,298.988105L802.458629,302.806217L797.762284,299.962274L795.696681,301.832049L792.935962,302.287708L790.543350,301.077854L788.869825,294.840034L786.809252,296.152019L784.645300,299.679451L783.569550,303.316870L783.893188,305.728723L786.655745,311.942976L786.905651,313.867745L786.401972,316.083194L786.356870,318.408629L787.443046,324.567892L789.390987,330.515038L792.340703,335.000930L796.349746,339.636092L799.807960,344.836900L801.119526,351.011880L801.822715,353.211618L806.538257,362.041998L807.603878,365.278757L807.601945,367.792745L806.618545,370.440288L804.827162,374.140565L806.503465,374.721925L807.907912,375.813938L808.570360,377.408749L808.074626,379.529927L811.332251,380.032725L813.728473,382.169615L817.113642,387.448992L819.059203,389.460183L819.716468,390.560054L820.270250,392.594814L820.156006,394.715992L819.458832,396.405079L819.089057,398.204153L819.911824,400.741711L820.415248,397.316400L822.123073,395.776582L823.888441,396.546491L824.580125,400.018939L824.442948,406.783144L824.741172,408.668636L825.601456,405.769691L826.653355,405.769691L827.593793,409.587814L828.346872,411.520444L829.382576,412.368916L831.034917,413.201675L831.763254,415.071456L832.105157,416.917668L832.622296,417.758283L834.577799,418.944573L837.164942,421.686394L841.046947,426.981488L842.091997,426.981488L843.765480,425.410244L844.842618,426.109447L846.725900,429.621179L845.940976,429.526904L845.551612,430.532501L845.886089,431.765928L847.202396,432.378713L847.746640,431.954478L848.125480,431.192424L848.611660,430.831038L849.544757,431.663797L850.250313,433.604284L849.860421,435.591909L849.095535,437.610959L848.621428,439.630009L849.109662,441.806183L850.388766,443.455990L853.013890,445.679302L859.864419,455.970959L864.552413,460.991089L868.286785,462.216660L868.406959,462.255060L876.421211,437.098734L883.269364,415.637341L887.285911,416.655035L891.067825,415.986550L894.414853,413.791522L897.100986,410.219613L898.846205,405.250868L898.516868,401.110248L895.045845,392.659393L893.778743,386.692911L893.341207,378.481517L894.727613,371.387592L898.917734,368.853335L900.627873,369.920915L908.763480,378.102376L910.321836,380.227560L910.229088,380.736407L909.450388,382.452519L909.409516,383.180868L909.887600,383.699693L911.311745,384.088811L911.743702,384.457975L916.137578,391.671631L917.317693,394.225844L918.962269,403.873987L920.676952,406.078992L924.554773,405.630009L928.986057,401.748801L937.121802,392.938760L961.707242,376.206672L966.924073,371.098247L966.018631,367.526342L962.695664,363.784821L960.671036,358.127642L961.329513,355.772979L966.659023,348.589262L971.504150,337.544299L975.290119,333.473528L980.648990,330.380541L986.457201,328.235404L991.625554,327.028141L997.921911,327.107961L998.933739,326.299793L997.743744,323.276647L996.172621,321.301127L994.421278,319.814498L992.858429,318.048502L991.870519,315.234882L991.766561,310.575449L988.811026,295.509619L984.366743,284.833836L982.904281,282.193499L978.863582,274.896382L975.583261,266.141248L974.412098,264.140787L972.282702,263.093165L970.023309,262.943504L967.904739,262.040553L966.163877,258.713105L965.021624,251.833718L964.245064,238.588783L962.098729,231.849084L959.546748,226.451340L957.861570,224.780135L955.041228,223.702581L949.903400,224.241358L948.420098,223.123895L948.641958,218.703932L950.332906,212.976938L952.308227,210.734861L957.387589,204.970124L959.668547,200.151070L959.643287,196.708890L958.922576,194.743355L959.170216,193.271699L962.041910,191.301175L964.815706,190.612739L967.579708,190.303442L969.422908,188.891650L969.793526,186.228330L968.705250,185.859090L967.751099,185.293446L966.958747,184.531398L966.341262,183.588658L963.069871,185.851234L957.778597,186.299035L952.264516,185.230597L948.339479,182.928741L943.204281,178.802455L941.169819,176.601086L942.037298,174.385484L942.514091,171.443851L943.222791,168.271630L941.927892,164.962278L940.257767,164.601101L939.121991,167.892704L936.120162,164.934310L936.936749,161.512326L932.100395,157.105542L931.555684,155.832844L929.884048,153.318875L928.093336,151.527671L927.176769,152.431129L927.495801,154.340175L928.398400,155.644297L929.458681,156.838432L930.250440,158.425376L927.084887,156.744159L923.528224,151.772557L920.233929,148.214580L917.080649,145.957378L917.011334,143.233669L916.295313,142.879687L914.643250,144.420001L912.974775,142.294588L910.908214,136.271025L907.816704,131.990597L909.656265,128.531198L909.212595,126.796511L907.434210,125.068159L906.061572,122.978425L905.582040,120.731567L903.148864,118.241379L901.111172,116.814105L899.533261,114.676930L899.131609,110.292934L894.672509,106.728428L893.412830,104.593715L891.460486,100.179905L888.561421,98.544861L888.614856,101.505216L890.287911,106.001303L890.911445,108.352272L891.639533,111.016759L886.022231,106.591016L883.715845,102.324663L881.595758,98.985772L878.991983,93.910859L873.724017,86.628074L870.818575,85.027409L868.629226,84.656185L865.196722,80.256752L864.691433,77.774216L862.697022,75.858077L859.525739,74.497599L854.107849,73.619981L849.777225,72.494898L848.257102,70.071131L845.281832,67.880738L843.088910,67.536782L841.094706,66.180291L839.505795,65.496411L836.813821,65.969086L834.179843,65.443002L831.193891,63.421133L828.630288,61.734179L826.502114,60.219630L824.322138,59.533539L822.705307,59.352886L821.122498,58.501732L818.535863,57.145149L816.141703,54.954049L812.721448,52.763761L808.378459,51.761350L806.031152,50.882593L804.326399,49.705068L799.832305,47.299221L798.010996,45.448448L796.344749,43.429814L793.861703,42.564392L791.975972,43.380116L789.302524,41.180186L783.709222,41.182269L781.337548,40.118259L778.196694,37.633960L775.702578,36.925396L772.790092,38.111214L770.731664,39.944648L768.243705,41.104647L765.529834,40.635219L763.385258,38.722305L759.568222,39.153788L754.012557,37.405500L751.827012,37.655316L749.150334,36.191772L747.532622,33.654089L745.193146,34.908068L743.272019,35.710266L741.307195,36.060089L738.449866,35.411350L736.951149,37.209121L732.059575,38.269117L728.964141,37.438144L727.088678,37.882204L726.089047,39.683680L723.979905,39.945461L722.312834,39.483956L720.947177,39.386104L718.758798,39.554861L717.457886,39.844864L716.732247,38.320778L715.503221,37.158074L714.062807,35.730087L712.326097,35.088090L709.421979,33.715980L707.083520,33.704026L705.254899,33.242434L703.378415,33.595025L701.178849,33.946128L698.973801,34.387806L697.251718,33.474464L694.465727,34.185037L691.543129,33.084950L691.020807,26.837024L690.809836,22.313718L692.869600,18.792369L695.730300,18.172319L700.935967,17.473013L702.802524,17.301490L704.582436,15.862160L706.653578,16.325554L709.665260,14.530538L709.793980,12.358297L707.625867,10.807986L700.405924,11.404134L694.303711,12.563858L688.907065,13.073447L685.671108,14.144474L682.694721,14.944269L679.783146,14.651765L675.893919,14.352438L672.653784,15.424239L669.364133,17.316658L661.623252,16.175030L656.135059,13.953503L645.571456,10.606047L636.153276,9.420077L629.806130,7.674107L628.496341,8.608983L627.242863,8.781817L626.148136,8.090480L625.346698,6.354282L623.963914,9.960232L623.788224,11.625726L620.472972,10.478735L619.130325,9.771686L618.136822,8.876090L616.975902,8.876090L616.421305,10.023081L615.906929,10.573008L615.276930,10.965813L614.410923,11.625726L613.878226,10.148779L613.861737,9.700981L612.242388,8.876090L612.309490,7.674107L614.140374,6.566397L614.194411,5.105162L613.386011,3.251123L612.685312,0.957142L609.664978,0.000000L605.196373,2.220808L601.784116,3.431110L599.095694,3.016887L595.961483,4.019544L594.407230,5.943471L592.412743,7.662245L589.890792,8.866315L588.867706,10.890371L587.822581,11.697461L586.686281,12.504419L587.580802,13.684025L589.098041,13.223498L591.050962,12.420223L591.813209,13.437503L590.372316,14.850841L587.294989,16.157181L585.862621,20.815875L584.509766,25.773717L581.880037,27.770006L580.258924,28.854077L579.016416,30.904609L578.408995,31.391688L578.048606,32.035889L577.506655,33.465701L577.109170,34.031341L574.150097,36.058218L568.960984,38.171512L566.303115,40.756174L564.457531,44.157871L564.406914,46.844663L565.122035,49.814275L565.574867,54.048722L564.437549,51.841153L561.655851,46.001339L557.974961,44.132975L554.749587,44.446806L552.863301,43.458055L551.200916,45.304692L553.118003,48.659425L551.891473,49.853555L551.184181,49.012951L550.795785,48.659425L551.079482,50.293498L551.312810,53.608780L551.596770,55.242853L548.370818,52.681758L547.322590,54.535802L546.881833,58.432437L545.425292,61.951980L543.649132,62.965419L541.917626,62.776873L540.477278,61.810570L539.607883,60.514310L539.346920,58.581704L540.111278,51.299081L539.584012,49.512011L538.521034,49.399050L534.131854,51.345363L530.475986,57.438072L529.963246,59.616092L525.402337,64.230255L518.418248,70.820987L511.947787,78.575541L506.872112,81.686568L501.093540,84.247666L494.701677,86.133138L488.716376,86.887326L487.000406,87.688652L481.255217,91.302473L478.631381,92.276633L458.877400,94.031881L441.825600,100.088730L429.185086,105.920276L419.069029,111.522385L416.163333,114.682338L413.748577,115.758629L407.345215,119.933364L403.267686,122.035223L400.566495,125.350980L399.013034,125.963760L398.055643,127.330729L397.423236,128.697699L396.816968,129.310478L395.046949,130.488900L393.034896,133.238552L389.238736,138.417866L387.677639,140.290624L385.938674,142.603082L382.062828,143.802584L375.812025,143.567391L372.826862,144.737942L359.556562,150.828651L345.968231,155.785708L344.526660,157.569055L342.899962,158.794615L341.317205,159.179567L340.029067,158.425376L332.715562,159.778066L325.113056,160.737772L318.556796,161.694869L309.498867,162.191794L302.926728,163.611357L293.864965,162.989803L290.012318,160.090078L285.273825,160.094078L283.184665,160.803214L274.456861,158.840245L271.388450,159.923207L269.332898,159.928012L266.302451,158.802472L264.828771,158.425376L263.377822,157.616192L261.486968,155.707146L259.765349,153.475998L258.855636,151.716219L255.619612,149.233675L249.219391,140.976859L239.913087,124.549654L237.626137,122.593474L236.846803,121.658592L234.687504,115.316235L232.068713,114.368092L228.087227,109.190362L225.579516,108.954390L221.620377,108.406313L219.381115,108.407437L218.151088,107.858702L217.463589,105.032386L216.211365,103.385209L214.931490,101.499736L215.003445,100.179905L216.239416,100.839820L217.951345,101.138354L219.368221,100.635561L219.707047,98.985772L219.042195,98.121597L215.297819,94.790596L211.588163,89.322727L208.779838,86.840190L205.293388,86.887326L203.986139,89.039906L206.508128,91.200343L211.849968,94.130681L209.937570,96.487521L205.924198,96.055434L201.677779,94.829877L199.066954,94.790596L199.648063,96.550370L202.145328,99.300018L205.159514,101.829694L207.318161,102.937409L208.780727,104.642191L214.215752,114.682338L225.311385,121.988550L225.518866,129.711141L224.497497,133.034292L221.366426,134.699795L211.645258,129.546162L209.904564,130.033243L208.993709,131.290227L207.226821,130.331777L205.674732,128.721267L205.382119,127.990645L203.039433,127.071476L201.552607,127.079332L199.588582,127.990645L199.976826,130.158942L198.387078,132.342951L195.828806,134.024166L193.310601,134.699795L190.602899,134.008454L188.892879,132.633628L186.823504,131.643754L183.012485,132.060129L174.772597,134.872631L171.547093,134.684083L169.641359,134.896199L168.953610,134.699795L168.403044,134.008454L168.195676,132.720046L167.830138,132.060129L167.029435,131.007406L164.746392,126.670813L164.866130,125.091728L162.781115,123.630484L156.804554,121.391483L153.807575,123.245533L149.732996,122.782021L145.735645,120.637294L142.998114,117.447699L143.637149,118.029054L144.082861,118.351156L144.582937,118.563272L145.339233,118.767532L147.192509,106.181994L146.377807,104.139398L142.444615,101.735420L141.682860,98.985772L144.171995,99.732105L145.087584,100.179905L145.153059,98.985772L144.028210,96.809623L143.708017,93.203657L144.412555,89.825520L146.382430,88.324998L150.693576,88.741373L153.347385,89.880513L158.327288,93.470766L159.466594,91.106069L159.460374,85.826748L160.069846,82.927836L158.908577,82.927836L158.835618,84.247666L157.681256,84.247666L156.860717,83.210657L156.272672,82.095087L155.878312,80.728120L155.650947,78.968347L154.860399,78.889786L154.637354,79.172607L154.615526,79.691111L154.416549,80.288177L153.201414,79.015484L152.434368,79.510420L152.021947,81.215200L151.807691,83.587751L151.119701,84.279091L149.768395,84.090544L148.635189,82.833563L148.617181,80.288177L147.449013,80.288177L147.535087,83.352067L146.834580,85.394661L145.501990,86.243124L143.673380,85.685338L142.642682,83.949133L142.279796,81.639431L141.531563,79.675399L139.310502,78.968347L141.127264,82.480037L140.107868,83.163520L138.018513,83.446341L136.615834,85.685338L135.454553,85.685338L129.611398,81.482309L128.821732,79.643974L128.563492,77.200718L127.629462,74.608196L126.275930,72.353488L124.675104,71.065083L123.688237,71.285055L122.880724,70.892249L122.719974,69.933801L123.647076,68.433282L124.169246,66.264991L128.419674,66.642085L130.829158,64.591637L131.084475,62.501908L129.759523,60.985677L127.910550,59.571575L126.567119,57.772523L126.177440,55.117155L126.757111,52.925297L131.885407,43.875051L132.799084,41.290389L133.380387,37.990822L128.736885,41.384663L122.566872,37.464462L113.186501,26.128095L97.678071,11.625726L95.768522,10.251668L97.176651,17.491722L95.850638,17.581517L93.346454,16.035043L90.788918,15.566112L89.461837,17.651358L88.324528,25.059469L87.085697,27.528840L84.807481,27.922942L81.687473,27.309341L78.775583,26.281683L77.154660,25.393708L75.480770,23.138848L73.576869,18.484458L71.966800,16.274497L70.561152,16.982882L68.964162,16.294452L62.268446,9.544842L52.687338,5.129910L49.531106,5.529000L46.201082,8.537140L44.096454,11.605144L43.676575,13.396060L45.496737,17.501699L46.366681,22.799621L47.030979,23.912085L48.119359,24.291221L48.869429,24.829992L48.506863,26.401410L45.880931,28.032692L36.743019,29.429508L33.497650,30.691631L31.916388,33.390480L31.265002,37.097033L30.537310,53.090591L29.495245,76.237873L28.101216,107.859771L28.008175,109.996033L33.223473,107.596493L34.791160,107.586516L35.917682,108.574268L36.447538,110.035942L36.842487,111.557480L37.532402,112.744778L38.492791,113.403280L42.206761,115.323910L49.653142,121.814145L57.217947,124.782393L59.429172,126.503478L63.359084,134.834529L63.937081,136.650400L63.789118,136.898690L61.229051,141.195065L55.957630,144.677146L37.996856,152.763760L35.930938,154.365119L34.143003,156.844483L34.903924,157.722487L36.201719,158.660355L36.035032,161.289379L34.339627,163.359672L29.092416,166.911599L27.629510,168.577812L27.274134,171.466247L27.968099,174.195045L29.344141,176.734275L34.323927,183.463982L36.927718,187.973735L38.778196,192.962401L39.819581,198.829073L40.121060,212.288502L39.269732,219.073094L37.382626,224.760180L33.355051,229.983320L28.793014,232.447725L23.903275,234.108954L18.874790,236.937532L10.938194,245.034152L2.949685,249.943009L1.382292,251.314895L1.066261,253.734404L2.530164,255.615135L7.131538,258.772969L7.977000,259.860501L9.481999,262.589308L10.387733,263.442372L11.460328,263.512213L13.558042,262.589308L15.096199,262.833753L17.980846,264.599746L19.045189,266.580251L19.515216,272.706351L27.370283,294.841135L26.101763,303.461582L24.821283,307.863176L24.823914,307.865609L28.235458,309.963214L29.803345,308.321268L30.997616,305.131652L33.308447,302.594100L33.367596,301.392102L30.000518,288.335104L29.206943,280.227513L30.060660,272.277048L32.903570,265.520725L37.125326,260.799157L42.445555,257.483846L54.672269,253.280787L61.426998,252.243770L68.170413,252.251627L74.259869,253.705021L85.892787,259.086508L92.745110,261.199822L97.141587,260.288504L98.523304,261.011274L99.696427,261.066267L102.937975,260.288504L102.649643,258.866535L102.162364,257.413140L101.551244,256.085445L100.892947,255.009147L100.958588,253.705021L104.200266,252.102359L105.071650,249.635517L105.461981,247.247237L107.258064,245.785987L107.014761,247.726465L107.185236,249.281989L107.909757,250.413279L109.315559,251.065343L109.255792,252.251627L106.112967,253.540041L106.351509,255.810478L108.676523,257.994498L111.823240,258.968665L114.056310,258.300889L119.047007,255.472663L121.774764,255.009147L121.464431,253.752158L121.242325,251.018206L120.995188,249.745504L123.869688,250.900363L126.888734,250.696102L129.908209,249.659086L132.770611,248.307822L131.826471,252.361613L132.945971,254.859880L135.456341,256.109013L138.752563,256.446829L138.980250,255.354820L142.016735,249.022735L142.956436,248.354959L145.047837,248.166411L149.024697,248.307822L146.247748,249.062016L144.801379,250.452560L144.501291,252.432319L145.201962,255.009147L144.367612,255.095566L144.212425,254.742037L144.280730,254.207817L144.105379,253.705021L143.263642,254.765606L142.810062,255.810478L142.955295,256.776789L143.907635,257.648826L143.841557,258.968665L142.765040,260.854150L142.802955,263.556678L144.477199,269.519526L143.667542,269.943760L142.864188,270.658673L141.977781,270.957208L141.912199,272.277048L143.572980,272.960536L145.610262,275.537367L147.048702,276.103013L149.417415,275.623785L152.439229,273.691162L154.733223,273.463333L154.661176,274.916728L153.465384,275.317394L152.845805,276.095157L152.517688,277.273585L152.245496,278.860536L153.799178,278.216328L153.791133,279.638299L151.985229,284.132041L153.043609,284.132041L153.108695,282.812201L153.340014,282.890762L154.059261,283.314997L154.408457,283.668526L159.202442,273.031242L159.667277,269.519526L160.725602,269.519526L163.361150,272.025650L168.846797,273.973985L174.340803,274.358938L176.941029,272.277048L180.338873,275.741628L182.601945,277.399284L183.681705,276.825782L184.585755,274.209671L186.560812,271.899951L188.926000,270.234439L191.015836,269.519526L187.920747,274.751748L187.108505,277.611401L188.859227,278.860536L191.242517,279.206208L198.231915,281.115263L199.674675,282.160137L212.685613,288.099419L215.607520,290.731244L216.659007,290.731244L217.888022,288.940031L220.601033,285.805410L221.734544,284.132041L219.858462,283.456408L219.398748,281.830177L219.918445,279.701148L221.000117,277.540696L222.058472,277.540696L222.358796,281.138832L223.892809,284.132041L227.390558,289.411403L232.604136,301.392102L231.265657,300.747894L230.903152,300.520064L230.349520,299.954418L229.187312,299.954418L228.282610,301.062141L227.149318,301.321396L225.841676,300.897161L224.448550,299.954418L224.378711,301.392102L226.914776,303.018335L227.095107,305.720867L226.987066,308.525530L228.676283,310.505292L228.686261,308.580523L228.969415,307.017139L230.152065,304.023928L231.116915,305.956553L233.192275,313.262818L234.287122,315.093313L237.064962,319.767752L237.523594,321.888927L237.627657,323.326612L238.110343,324.371487L238.957783,325.023551L240.206426,325.243525L240.796521,324.622885L240.602450,323.185200L239.914491,320.506235L240.037947,318.078669L240.351411,317.890120L241.320229,318.172943L243.442151,317.206631L242.679026,319.555635L242.834738,322.368155L241.977179,323.805840L244.210179,326.154845L244.844596,327.356844L245.198325,329.077352L242.283719,327.812504L241.221560,329.627287L240.908873,332.848330L240.242845,335.794407L242.738276,335.841544L244.077972,336.768576L244.032688,338.159125L242.372011,339.620379L242.303836,341.058065L243.521298,342.377908L244.566055,342.377908L245.713049,341.388026L246.929591,341.120915L248.151324,341.474444L249.319349,342.377908L249.257263,343.689894L246.667923,347.091632L245.802396,349.157815L245.362591,352.323867L246.092345,354.460755L247.580673,356.212690L248.439531,357.815357L247.245932,359.512298L247.184078,360.832142L249.139692,361.625619L252.908365,364.783816L253.259357,361.421357L255.156638,360.800717L261.738216,362.992600L259.733400,365.027358L256.469364,366.912849L255.006288,367.423503L255.101359,370.283164L258.815030,372.113662L263.815662,372.608603L267.797491,371.500877L269.097905,372.404342L270.384103,373.912734L271.435466,375.861075L272.031348,378.084384L276.669006,377.605155L290.531796,382.043916L294.456432,382.020347L296.532976,382.908100L297.341513,385.335670L298.535818,385.547788L303.857489,388.855255L305.254810,390.072968L306.521175,390.072968L307.367371,388.823830L309.509184,386.938338L310.196060,385.995592L310.675450,384.298650L310.687756,382.978806L310.438725,380.724072L311.552307,372.349348L310.926255,370.181034L308.389667,371.312328L306.055590,372.702878L305.003807,372.702878L303.890117,371.053073L302.758721,368.743346L304.173156,369.576105L305.163008,369.717517L307.505520,368.743346L305.726201,365.192339L304.777007,364.029620L303.003939,363.471829L303.070945,362.034142L305.445063,361.869161L307.817637,362.034142L307.750654,363.471829L307.133208,364.249593L306.811145,364.925228L306.899486,365.852261L307.566826,367.423503L311.338366,364.438142L315.314666,360.329344L317.202786,355.309226L314.361276,348.615736L314.692275,347.460874L315.255797,346.070325L315.606196,344.357672L315.090708,344.137698L312.226122,342.377908L309.360070,339.478967L309.017675,337.939151L311.312935,337.098537L311.227826,335.825832L310.762017,335.142342L309.117957,334.356722L312.161090,335.110917L312.463985,337.923439L313.164940,340.955934L317.394552,342.377908L319.471373,342.794287L321.503164,344.609070L323.068398,345.017593L330.783058,345.017593L330.845471,343.689894L329.413763,342.943554L328.467729,341.875110L327.895325,340.366719L327.612220,338.300537L328.670799,338.300537L330.453716,342.016522L333.163494,339.423974L337.208284,331.717037L336.251014,343.650613L337.206100,348.804285L341.169132,346.329580L342.220821,346.329580L341.897227,348.804285L340.771415,349.943435L339.046213,350.289109L336.915130,350.289109L335.083195,350.697631L333.905798,351.608952L333.012837,352.504559L332.038148,352.928795L330.729515,354.280063L330.481587,357.218285L331.951013,359.983671L335.841688,360.832142L335.856827,361.696325L335.584023,361.908443L335.107682,361.884874L334.519511,362.034142L335.533989,362.835475L336.864993,363.377554L338.507780,363.613240L340.368753,363.471829L336.937587,369.269713L337.151411,370.181034L338.635879,370.699543L340.721722,371.980106L342.553489,373.669192L343.300413,375.326853L341.272822,374.729781L339.557558,375.161873L338.249634,376.363873L337.367623,378.084384L337.049125,379.891313L337.662292,380.551235L338.929859,380.975471L340.562246,382.043916L348.366984,391.274969L348.306693,392.594814L347.040318,392.594814L346.980067,393.914658L348.641545,395.265928L350.788360,397.662074L352.264368,400.356757L351.920466,402.595779L351.181621,404.237729L350.906109,406.193927L350.499230,407.843733L348.361960,409.195003L349.099739,410.632691L350.326273,411.976105L350.896785,412.368916L356.697872,419.863751L357.415857,422.369885L355.342477,428.332759L355.118425,431.954478L359.325179,434.931986L359.876088,438.105901L359.586569,441.664771L358.856364,444.241613L358.143255,445.184360L356.160317,446.826311L355.213940,448.193294L355.011622,449.795965L355.022444,453.944052L354.292922,454.792525L353.331537,455.405311L352.489935,456.756582L352.505954,458.123565L354.119433,458.736351L355.725966,459.034888L357.189977,459.741948L358.396211,460.645414L359.272646,461.493887L361.768930,466.608292L363.628583,467.928138Z "/></g></svg>