<?xml version="1.0" encoding="utf-8"?><!DOCTYPE svg  PUBLIC '-//W3C//DTD SVG 1.1//EN'  'http://www.w3.org/Graphics/SVG/1.1/DTD/svg11.dtd'><svg enable_background="new 0 0 1000 465" height="465px" pretty_print="False" style="stroke-linejoin: round; stroke:#000; fill: none;" version="1.1" viewBox="0 0 1000 465" width="1000px" xmlns="http://www.w3.org/2000/svg" xmlns:xlink="http://www.w3.org/1999/xlink"><defs><style type="text/css"><![CDATA[path { fill-rule: evenodd; }]]></style></defs><metadata><views><view h="465.677352483" padding="0" w="1000"><proj flip="auto" id="robinson" lon0="-81.4837525412"/><bbox h="39.87" w="85.81" x="-1225.75" y="-160.94"/></view></views></metadata><g class="" fill="#000" id="country"><path d="M236.301175,441.691642L234.970362,432.455552L221.398066,423.714593L219.232791,411.907637L226.271483,404.518769L217.300836,385.456258L213.262262,385.370562L202.716331,391.074080L194.266547,407.594290L193.736670,412.955028L194.622318,418.191984L207.966225,434.369422L226.834867,442.719990L236.301175,441.691642Z M680.486904,262.016731L677.464829,253.904245L675.574931,253.980418L669.801195,262.473772L672.359856,270.671956L680.486904,262.016731Z M709.362615,258.103313L717.372570,252.609294L720.214124,243.744597L718.247633,224.177526L713.709994,221.835191L708.066379,222.225580L700.199563,226.596034L699.936011,243.220904L698.415833,247.962707L705.572285,266.358625L709.362615,258.103313Z M148.214320,42.342561L144.313511,32.678128L141.525319,32.363915L133.490851,35.049008L145.825966,51.435703L148.214320,42.342561Z M365.506778,463.677352L396.283916,462.582352L435.846907,452.974909L447.597048,443.281773L452.366827,431.379595L463.180693,423.590811L493.604605,422.067332L501.215980,418.211028L511.251918,409.079681L507.176820,389.626776L501.732635,376.515352L471.488655,340.513708L454.859201,311.977122L447.662887,306.016530L439.704197,296.561472L438.960006,284.297513L440.839641,269.881655L450.128876,260.407564L457.052828,255.275369L486.240496,250.362174L499.340762,243.401816L566.155670,195.460136L555.345497,186.938238L565.908433,172.827123L571.261430,160.391828L579.503188,145.642778L599.781721,135.445085L603.549063,131.312689L611.662339,122.419468L623.281615,115.411537L656.856891,112.669304L684.131946,117.134955L705.993531,129.741616L723.441240,147.356676L736.615990,153.421972L746.249261,164.762272L753.074416,166.857038L761.192878,172.408169L778.698266,189.090136L784.620959,224.482220L789.944619,232.937478L793.986409,242.297300L799.264767,241.659346L801.402059,232.623262L798.588510,225.120173L797.235238,212.980025L801.353853,216.179311L805.225303,221.882800L821.309944,223.111097L821.860143,229.404932L826.446654,234.241950L832.182286,230.204754L837.496182,223.111097L848.609846,214.674885L854.927077,234.146733L861.927543,248.134098L888.316277,269.424613L903.421955,285.601987L891.033785,282.107521L871.493651,266.682363L855.497875,256.056148L845.030475,237.565019L840.279654,236.298634L833.210776,247.181928L815.072414,263.311682L818.589710,284.554599L812.587309,293.685916L807.540483,298.532465L798.610216,297.827859L789.258384,299.694114L795.255169,331.106249L827.889760,400.548205L866.761768,456.602695L871.455200,461.868220L885.747181,420.239158L897.021112,412.269463L901.045453,401.881248L897.898306,376.315396L899.338069,370.316707L902.025572,367.774405L904.575426,367.955318L908.816192,371.802096L916.531415,382.837781L922.801977,396.501468L928.121591,400.691031L936.613623,396.168207L970.013625,368.945578L968.331946,360.518849L972.035743,343.465442L983.422430,329.497079L995.141695,324.745742L998.923985,316.956978L996.668951,304.978663L985.972912,275.109069L975.926740,259.026917L969.750031,243.011427L966.780688,228.271851L955.218196,214.389234L961.035170,201.239794L971.272995,185.871810L974.638368,183.215264L921.446756,138.139713L900.301085,103.300009L858.781884,70.507508L788.225616,37.353238L755.490323,31.802140L715.159046,33.030427L707.981749,28.250581L701.443121,17.043655L685.334941,11.911514L668.238644,12.854152L643.967897,5.579653L606.230464,0.000000L592.942790,7.731533L579.935384,23.118437L556.207782,42.856728L545.734059,46.122642L534.756792,49.559944L507.755423,75.649186L434.387973,100.605385L411.525903,112.317003L382.300670,138.577709L343.024332,153.117279L318.616703,158.173281L292.633665,159.373011L260.359063,150.317912L233.762987,112.888301L218.836137,102.128847L212.481037,93.435593L203.773180,89.198466L202.487957,94.930489L213.574499,107.689485L221.444067,124.923662L213.380056,127.484985L201.883520,125.142660L170.129882,129.284577L161.093829,120.467531L142.608112,110.441239L145.282012,88.960425L151.531284,83.799700L153.938739,79.191232L151.320732,74.573242L139.458217,79.410229L128.114127,75.792010L123.394072,50.816798L125.979667,42.104521L125.188405,33.011384L104.022619,14.548997L93.777499,4.132371L92.597800,7.731533L89.414689,11.511607L84.948281,15.329768L79.169722,17.938686L66.020133,10.092889L53.220154,1.180677L45.612068,5.274962L42.170292,16.843702L36.886325,22.785181L30.562394,25.117973L27.801970,28.993266L25.075125,68.050929L23.457961,104.861558L33.533827,105.689940L49.701302,118.477507L56.482063,125.999608L58.393765,132.950413L56.123459,136.359164L43.348477,144.385919L30.779149,154.545528L24.087376,167.218861L33.533821,187.699972L35.053921,201.611139L33.931823,216.160267L30.680260,223.149184L6.487624,239.869268L1.076015,245.725109L1.539970,249.962263L13.825429,261.502559L19.369040,272.661991L23.779459,286.125680L23.881203,297.808816L28.451618,292.181486L27.857086,263.549724L43.005474,252.399817L60.632535,248.800616L85.802935,255.541976L114.200257,257.989052L136.769544,250.933476L137.895062,266.663320L148.617610,273.595118L159.727705,268.148705L180.847553,269.643612L199.778440,279.327183L222.282892,284.764076L227.380504,297.665990L230.051519,308.482653L256.784856,365.955755L279.482563,374.906180L296.412029,384.618345L304.850585,385.503866L309.327584,376.248744L313.348384,349.121345L317.484360,339.980492L328.654322,335.705239L334.035651,331.134814L337.254379,367.917231L355.514763,421.277028L356.431915,452.546431L365.506778,463.677352Z "/></g></svg>