<?xml version="1.0" encoding="utf-8"?><!DOCTYPE svg  PUBLIC '-//W3C//DTD SVG 1.1//EN'  'http://www.w3.org/Graphics/SVG/1.1/DTD/svg11.dtd'><svg enable_background="new 0 0 1000 887" height="887px" pretty_print="False" style="stroke-linejoin: round; stroke:#000; fill: none;" version="1.1" viewBox="0 0 1000 887" width="1000px" xmlns="http://www.w3.org/2000/svg" xmlns:xlink="http://www.w3.org/1999/xlink"><defs><style type="text/css"><![CDATA[path { fill-rule: evenodd; }]]></style></defs><metadata><views><view h="887.123332452" padding="0" w="1000"><proj flip="auto" id="robinson" lon0="-139.010230837"/><bbox h="202.8" w="228.86" x="-2216.67" y="147.25"/></view></views></metadata><g class="" fill="#000" id="country"><path d="M891.629866,885.123332L893.185710,883.758662L891.944729,880.550613L889.311270,877.464021L888.159124,878.628639L889.673871,879.214519L891.933219,883.272811L891.629866,885.123332Z M999.435744,714.518208L996.927204,712.688613L993.244749,711.037685L990.008160,709.393901L987.774207,708.579154L986.621983,709.136612L987.735366,710.180059L989.611591,710.473081L993.326860,712.274095L996.106898,713.824964L998.040428,714.582530L998.469324,716.126247L999.435744,714.518208Z M717.450940,702.482819L710.635756,699.138034L711.615584,701.303570L717.055529,703.890770L718.846666,705.134338L717.450940,702.482819Z M953.360896,699.709793L948.676444,694.649709L946.151972,694.099387L953.659160,701.096307L953.360896,699.709793Z M705.426779,688.538972L700.373906,683.500261L697.801693,680.812936L694.356687,679.011853L695.686565,680.905849L700.638683,685.508602L703.643291,689.225092L706.290777,690.554448L705.426779,688.538972Z M701.846264,664.188512L700.471399,663.645319L700.106059,662.859118L700.703579,660.314680L702.458292,656.683842L709.348236,651.487720L710.155488,651.116057L709.297503,650.508531L707.182460,651.537752L702.879395,654.025032L700.683039,656.505159L699.895582,659.163963L698.837010,662.315924L699.303314,664.917534L700.083508,665.396402L702.438767,665.582231L701.846264,664.188512Z M156.814379,651.995183L154.716518,644.597639L150.564358,639.723096L141.947427,637.821877L135.899323,640.402103L134.896030,642.789343L135.855594,646.691828L141.101547,655.282965L147.572632,656.583780L156.219351,655.097134L160.837200,661.686962L163.555186,663.695350L168.380469,664.603054L169.574110,660.929348L166.700997,655.404470L156.814379,651.995183Z M123.209333,641.381301L124.324039,637.192901L122.430283,636.177962L116.409699,635.856327L116.278335,638.172101L117.112621,640.116206L118.681300,641.953095L121.617623,643.289663L123.209333,641.381301Z M11.229671,592.542080L13.918976,591.555703L9.590231,584.979849L5.522416,582.435275L5.220981,583.979174L6.187155,591.512817L8.722567,592.656442L11.229671,592.542080Z M516.226269,573.657905L514.599470,573.207599L511.332813,573.114679L509.214881,573.757973L515.300362,574.808685L520.391631,577.253199L516.226269,573.657905Z M508.101239,574.758652L505.078546,573.536394L501.015829,570.813117L498.639920,570.813117L505.658898,575.173218L508.101239,574.758652Z M4.305742,576.424066L5.619348,573.929518L4.091601,572.485681L0.564256,570.312777L0.808730,573.607871L1.751200,575.652114L3.250129,576.981587L4.305742,576.424066Z M381.472064,552.436306L378.806586,548.633707L376.443607,544.738185L373.320419,539.999226L369.855361,534.095183L370.650314,537.947821L371.348414,540.392353L373.924508,543.044168L376.125196,546.682372L377.588842,549.898858L380.670858,553.608536L381.994608,553.680013L381.472064,552.436306Z M568.319859,535.346040L569.214974,529.599246L567.711002,530.328317L567.331078,536.139440L568.319859,535.346040Z M402.746290,517.762571L396.219768,510.879294L394.413713,510.514759L396.290986,512.787741L401.166238,517.876935L402.955786,521.057683L402.746290,517.762571Z M756.671664,126.887606L757.695825,125.193771L757.975791,123.056822L756.654866,121.806100L753.443219,120.319527L754.450710,128.138328L756.671664,126.887606Z M725.919749,84.149729L724.293434,82.984762L722.728500,82.984762L721.086783,83.778083L721.723051,89.873311L725.919749,84.149729Z M726.469473,66.868166L717.864968,72.357104L720.382270,76.695363L724.388758,77.881773L727.385694,76.052129L736.792651,74.015220L739.483944,70.263018L736.491459,70.670400L726.469473,66.868166Z M656.865439,47.163702L659.160655,41.217331L656.479003,40.002327L651.969663,42.289393L652.554181,44.119046L655.595093,48.493058L656.865439,47.163702Z M686.975054,11.614059L689.792241,9.812988L689.769428,8.455037L687.936642,6.868378L684.652276,5.746281L682.944322,6.646817L681.828756,8.562243L682.853432,12.178681L686.975054,11.614059Z M642.881909,0.000000L641.981192,1.172127L641.501214,4.867186L644.316842,10.842172L647.364719,11.156644L653.515809,9.434191L654.974842,6.739730L654.898582,4.166769L653.754203,1.458012L642.881909,0.000000Z "/></g></svg>