<?xml version="1.0" encoding="utf-8"?><!DOCTYPE svg  PUBLIC '-//W3C//DTD SVG 1.1//EN'  'http://www.w3.org/Graphics/SVG/1.1/DTD/svg11.dtd'><svg enable_background="new 0 0 1000 1062" height="1062px" pretty_print="False" style="stroke-linejoin: round; stroke:#000; fill: none;" version="1.1" viewBox="0 0 1000 1062" width="1000px" xmlns="http://www.w3.org/2000/svg" xmlns:xlink="http://www.w3.org/1999/xlink"><defs><style type="text/css"><![CDATA[path { fill-rule: evenodd; }]]></style></defs><metadata><views><view h="1062.39620446" padding="0" w="1000"><proj flip="auto" id="robinson" lon0="-139.011143071"/><bbox h="330.23" w="311.13" x="-2263.67" y="133.31"/></view></views></metadata><g class="" fill="black" id="country"><path d="M633.235241,1060.396204L633.716116,1060.334829L633.959974,1059.922737L634.072281,1059.295824L633.928129,1059.256368L633.427219,1058.204192L633.382657,1058.160351L633.436143,1057.927993L633.838466,1057.327365L633.953756,1057.055546L633.505840,1056.564516L632.999450,1056.178703L631.883747,1055.547369L631.036285,1055.981412L631.114909,1057.397512L631.713949,1059.002094L632.423045,1059.992880L633.235241,1060.396204Z M418.857072,857.255356L419.138715,857.058116L419.353995,856.830194L419.496182,856.545292L419.559680,856.181495L417.736596,856.330520L416.961054,856.545292L416.197371,856.887174L416.291809,857.255356L416.905132,857.549026L417.550610,857.592857L418.857072,857.255356Z M329.074166,831.620935L329.448594,830.832123L328.976484,829.981963L327.705809,829.578795L326.464783,829.670823L325.925665,829.841730L325.752576,830.130959L326.057765,830.985503L326.486022,831.577112L327.069165,831.875109L329.074166,831.620935Z M999.337156,815.529939L999.528922,814.811314L998.566313,815.183772L997.367071,816.572826L996.388346,816.642936L996.478249,817.046071L997.271928,817.519317L997.743933,817.694594L998.260651,817.782232L999.337156,815.529939Z M228.826748,784.097021L229.039378,783.825388L228.941130,782.405891L228.689903,781.056500L228.416602,780.565814L227.859534,779.847311L227.245188,779.260243L226.806869,779.216432L226.588623,780.276660L227.155016,781.481469L227.964516,782.782670L228.488709,784.162739L228.701733,784.167120L228.826748,784.097021Z M929.893597,758.082804L930.292593,757.784911L930.288682,757.355594L930.272257,757.206647L929.472102,758.328128L929.893597,758.082804Z M803.575761,749.544741L802.570655,749.496553L801.558229,749.255615L800.592033,749.150478L799.729392,749.544741L803.575761,749.544741Z M719.976386,740.691442L718.020272,738.216401L716.975332,737.476081L716.239523,738.115647L716.409534,739.727708L717.501077,741.006846L718.897889,741.488714L719.976386,740.691442Z M956.925513,730.068547L956.058992,729.389563L955.099650,728.995315L954.046728,728.863899L957.683782,731.067311L956.925513,730.068547Z M913.935276,727.356997L913.362107,727.199298L912.779993,727.418324L912.510344,728.018456L912.834468,727.698678L913.233860,727.558501L913.684763,727.602306L914.164193,727.856377L913.935276,727.356997Z M905.744521,721.478348L905.787392,720.843176L905.408629,720.479594L904.669985,720.777468L905.017974,720.882600L905.368943,721.075342L905.509838,721.425782L905.218078,722.012769L905.744521,721.478348Z M900.501305,720.575965L900.335814,720.216765L900.108106,720.024023L899.750556,720.028403L900.022473,720.260569L900.675411,721.031537L900.501305,720.575965Z M895.587052,719.870705L895.623539,719.717388L895.519305,719.708627L895.328306,719.647300L895.231418,719.664822L895.489337,719.875086L895.587052,719.870705Z M895.432187,718.766821L895.090785,718.766821L894.901380,719.253056L895.143846,718.977085L895.318763,719.034031L895.508308,719.253056L895.772067,719.445797L895.864118,719.542168L895.914444,719.638539L895.974334,719.726149L896.083029,719.765573L895.801522,719.130402L895.432187,718.766821Z M777.705986,692.115987L777.834684,692.050280L778.081144,691.866299L778.060263,691.866299L777.556706,692.146650L777.705986,692.115987Z M805.518100,690.823741L805.221211,690.801838L804.977715,690.854404L804.558068,691.064668L804.401645,691.244269L805.193296,690.942014L805.471271,691.055907L805.711674,691.327498L807.466911,694.529637L807.499051,695.160427L806.955932,696.019002L807.770200,694.985207L806.966141,692.663549L805.518100,690.823741Z M706.355673,630.606607L706.860330,630.352504L707.154883,629.901251L707.112983,629.239705L706.704194,628.652637L706.031474,628.113760L705.401852,627.828988L705.139060,628.048044L706.432249,628.836644L706.708544,629.454379L706.350904,630.032684L705.764919,630.720515L706.355673,630.606607Z M759.163110,613.813528L759.065397,613.335968L758.669835,613.011753L758.110550,612.994228L758.475969,613.143191L758.643484,613.366637L758.740257,613.616370L758.876099,613.861722L758.832330,614.317374L759.163110,613.813528Z M777.342212,610.264676L777.184873,610.146380L776.823021,610.163905L776.387794,610.260294L776.553718,610.448691L776.730560,610.531936L777.178670,610.610800L777.342212,610.264676Z M661.951993,605.405766L661.198411,605.195460L660.705520,605.940292L661.194110,605.716843L661.785511,605.870191L662.315284,606.378429L662.643859,607.210886L662.568305,606.203174L661.951993,605.405766Z M686.434607,601.405557L685.395094,602.181066L686.182060,601.944470L687.271144,602.102200L687.918776,602.667401L687.386911,603.679503L688.454579,603.188787L687.791157,602.075912L686.434607,601.405557Z M771.697483,582.814845L771.574335,582.648345L771.215246,582.341633L770.510760,582.135698L770.165899,582.078737L769.839544,582.056829L771.756284,583.077740L771.697483,582.814845Z M877.691137,566.138240L876.841392,566.545740L877.134119,566.677192L877.308479,566.865606L877.454583,567.084693L877.662539,567.308161L877.577240,567.097838L877.482886,566.677192L877.619600,566.374853L878.232653,566.545740L880.661045,567.882166L881.132236,568.280902L881.442869,568.609531L881.775203,568.854906L882.241648,569.065228L883.750883,569.538453L884.385502,569.818882L884.879081,570.147509L885.243391,570.555007L885.467208,570.984413L885.555249,571.343712L885.566423,571.593468L885.559810,571.685483L885.766234,570.519953L884.371951,569.547216L881.750908,568.596385L880.955302,567.750714L879.335141,566.734155L877.691137,566.138240Z M679.368414,562.838786L678.836008,562.168376L675.197029,560.183434L673.794574,559.188770L673.959809,559.421004L674.507810,559.999400L675.501446,560.735538L678.456825,562.159613L679.249865,562.799350L679.662990,563.417177L679.835651,563.601211L679.368414,562.838786Z M851.780253,559.223824L850.159359,557.528070L848.371322,556.086457L847.067509,555.477385L852.588558,560.625994L851.780253,559.223824Z M669.962239,551.389139L668.734894,550.267386L667.310560,549.246414L666.083912,548.089603L664.353911,545.701481L662.315033,544.724320L661.817168,544.382533L664.231821,546.288653L664.941714,546.963462L666.441412,549.163159L669.013610,550.968482L670.599578,552.874582L669.962239,551.389139Z M561.047293,532.546941L560.611754,532.393572L560.256640,533.239292L560.546260,533.519737L560.758804,533.467154L560.924258,533.182326L561.063213,532.757276L561.303458,533.340077L561.648585,533.800183L561.906690,534.019280L561.904437,533.914114L561.047293,532.546941Z M668.013922,533.747599L668.472970,533.524119L669.458120,532.073689L670.642580,530.750333L672.625171,529.313043L673.664263,527.349912L674.428294,526.517332L674.600818,525.347337L674.168123,524.300036L672.848948,524.133520L672.063588,524.869698L668.937331,526.578680L667.455942,527.766201L666.898759,529.646074L666.160875,530.750333L665.865344,531.986049L665.803516,532.709074L666.003282,533.318167L666.494072,533.607376L667.260045,533.765127L668.013922,533.747599Z M204.210245,523.160712L203.954976,522.586667L203.539613,523.300937L204.128370,523.800487L204.210245,523.160712Z M582.539489,519.558684L581.330906,518.077554L579.430827,516.745411L578.007456,515.974170L582.237528,519.690146L581.873497,520.750598L582.539489,519.558684Z M267.407095,525.636549L265.987876,524.133520L265.624968,523.033634L265.011675,519.484190L264.705683,518.515759L264.250906,517.665642L263.701576,516.946986L263.110938,516.377319L261.288868,515.185399L259.139676,514.300223L256.923224,513.897073L254.895822,514.133704L252.922401,514.755957L251.212525,515.606077L250.189590,517.091594L250.284883,519.646325L250.653457,520.619137L251.245467,521.719027L251.894373,522.626106L252.414608,522.994195L252.829141,523.467453L254.326006,526.666320L254.932428,527.008116L257.698026,527.472607L259.303290,528.107997L260.074207,528.243838L261.074498,528.173726L263.613980,527.214070L264.526108,527.069464L264.739554,526.832836L264.808792,526.346434L264.959498,525.947671L265.411616,525.965200L265.699110,526.324524L266.518217,528.173726L268.225237,530.566290L270.228701,532.787949L271.014339,533.156034L273.736541,533.957933L274.519811,534.089392L275.847659,532.862443L275.687743,530.478650L274.636007,528.051031L273.273985,526.666320L269.435150,526.214974L267.407095,525.636549Z M242.181025,513.095154L242.042599,512.543013L241.495855,512.301999L240.833365,512.310764L240.280765,512.415933L239.949569,512.748971L239.949718,513.406281L239.343957,513.029423L238.991202,513.095154L238.726915,513.309876L238.376774,513.406281L238.320169,513.555272L238.009030,513.783139L237.621597,513.774375L237.318867,513.222234L236.842020,512.722678L236.024398,512.792792L235.243868,513.222234L234.881131,513.805050L235.432588,514.887419L236.790440,516.118778L238.370087,517.196763L239.593561,517.814632L240.498917,517.854070L241.249821,516.894401L241.782274,515.474615L242.181025,513.095154Z M540.323254,511.101310L539.493751,510.619282L538.562050,510.408942L537.711573,510.461527L539.545566,510.926027L540.879937,511.898849L540.323254,511.101310Z M447.270084,511.145131L446.445945,510.281861L445.602443,509.756011L448.906936,513.406281L447.270084,511.145131Z M632.910581,507.946208L632.739985,507.253837L632.695100,507.074171L632.111537,506.232808L631.307056,505.860329L630.357641,506.061906L631.036128,506.075052L631.710882,506.263483L632.326284,506.684164L632.595938,507.113610L632.831316,507.902387L632.864090,508.068907L632.989005,508.257337L632.910581,507.946208Z M772.863589,506.763042L772.563746,506.653490L772.361407,506.614051L772.295343,506.508880L772.405279,506.127638L773.497388,504.786714L772.602540,505.207396L772.128601,506.158312L772.065161,506.513262L772.107823,506.675400L772.264247,506.982147L773.195929,507.021586L772.863589,506.763042Z M437.193675,504.782332L437.367299,505.763923L437.622343,506.552701L437.989835,507.236309L438.504402,507.919916L437.193675,504.782332Z M552.603259,487.775245L552.126664,487.301971L551.601893,486.933868L551.064904,486.727906L550.563591,486.762963L550.771603,486.986454L550.993581,487.183652L551.485233,487.538608L551.792254,487.691984L552.084110,487.797156L552.354601,487.832213L552.603259,487.775245Z M246.712753,486.613970L246.848386,486.333510L246.671372,486.355421L246.503434,486.412389L246.179983,486.596441L246.133215,486.947015L246.127152,487.113537L246.174114,487.315117L246.712753,486.613970Z M40.823978,478.230847L40.578155,477.648015L40.151534,476.894276L39.790433,476.390323L39.640016,475.842548L39.412003,475.417474L39.110748,475.154542L38.741350,475.115102L39.244350,475.851312L40.068849,477.551607L40.631893,478.235230L40.823978,478.230847Z M178.574624,476.543700L178.493939,475.877606L178.368256,475.430621L177.960472,474.865316L177.457650,474.470918L177.067632,474.413949L176.999204,474.865316L176.782968,475.023076L176.236812,475.062515L175.732065,475.286008L175.625979,475.982778L175.840610,476.499878L176.207370,476.863601L177.216431,477.639250L177.600760,477.621722L177.860497,477.490256L178.003177,477.253617L178.027024,476.903041L178.469718,477.021360L178.574624,476.543700Z M161.246305,480.102045L161.703500,479.676972L158.000409,475.430621L157.198186,474.115959L156.804234,473.712796L155.984000,473.318397L155.086841,473.099286L154.445283,473.195695L153.993092,473.844262L153.984652,474.615530L155.310452,479.558653L156.158091,481.346587L157.225439,482.047737L157.655131,482.065266L158.040325,481.968858L158.301474,481.780424L158.361363,481.486817L158.350842,480.934661L158.591594,480.934661L159.154511,481.311529L159.728153,481.118713L161.246305,480.102045Z M501.732048,472.065084L500.544274,472.424426L500.454030,472.845118L500.449470,473.037935L500.527976,473.274575L501.260715,472.314870L502.076374,472.775003L502.871146,473.756618L503.544494,474.339451L503.293119,473.813586L502.670336,472.792532L501.732048,472.065084Z M175.594740,474.510357L175.987980,474.133488L176.278951,473.761000L176.566965,473.598858L176.601535,473.318397L175.367224,471.574276L175.068044,470.732891L174.799040,470.829300L174.589481,471.434046L174.423174,472.757474L174.433291,473.388512L174.601098,474.023932L175.009291,474.694410L175.594740,474.510357Z M496.548649,468.734600L495.908646,468.213116L495.403864,468.024680L495.347926,468.357729L496.156357,468.949329L496.580663,469.185969L497.005190,469.374404L496.548649,468.734600Z M530.767426,466.872156L529.568776,466.543489L525.609227,466.946654L527.751860,467.213969L530.176250,467.078120L533.829930,469.514635L531.875551,467.674103L530.767426,466.872156Z M522.926225,467.367347L519.831366,465.132413L518.091423,464.702955L520.264389,465.873009L522.438881,467.476903L524.789533,467.682867L522.926225,467.367347Z M152.929175,465.241968L153.005338,464.702955L151.589093,464.685426L150.629077,464.834421L150.178606,465.478609L150.350140,467.424316L150.432780,467.717925L150.759340,467.998387L153.556584,469.251702L153.982842,469.514635L154.468865,469.742510L154.486658,469.041355L154.210090,467.314760L154.629705,467.056209L154.912338,466.819569L155.013033,466.543489L154.912278,466.254262L154.588334,465.873009L154.476499,465.623222L154.241878,465.465462L153.758299,465.399729L152.865940,465.439169L152.929175,465.241968Z M139.219289,460.601187L138.749546,459.496864L138.146837,458.878968L137.427658,459.190107L137.397558,459.987674L137.962528,461.004352L138.782264,461.758096L139.521987,461.766861L139.219289,460.601187Z M511.721961,461.249757L511.078369,460.285666L509.383553,458.602887L508.576095,458.199722L506.987884,457.963081L505.993806,457.673853L505.813604,457.691382L506.838662,458.072637L508.568747,458.721208L510.269931,459.987674L512.014867,462.397902L512.214760,462.503076L511.721961,461.249757Z M115.238472,457.340803L114.425918,457.218100L114.386587,457.524857L114.775050,457.743969L115.238472,457.340803Z M491.027548,458.287366L490.418093,457.261923L489.512988,456.359182L488.689159,455.850842L490.471809,457.722058L490.645594,458.090166L490.959774,459.190107L491.027548,458.287366Z M481.336084,450.806880L481.261441,450.706088L480.962173,450.671030L481.495602,451.363425L482.394023,451.170606L484.060102,451.775356L483.544456,451.337132L482.814166,450.916436L482.025416,450.741146L481.351859,451.030374L481.336084,450.806880Z M390.054626,440.854793L389.384986,439.548882L388.232171,438.838957L387.001579,439.268418L386.529010,440.442861L387.192107,441.371898L388.470100,441.994178L389.838618,442.208908L390.054626,440.854793Z M431.329378,451.494892L429.662114,448.462378L427.210439,445.990790L426.985200,445.521889L426.574178,444.890845L425.626917,442.103734L425.269895,441.472690L424.654865,441.003789L423.969477,439.921373L423.389210,438.685578L423.077423,437.765305L423.922038,440.407803L424.909285,441.608540L426.071734,444.351829L427.692016,447.020619L429.078932,448.493054L430.953559,451.569391L432.008610,452.174140L431.329378,451.494892Z M422.799346,436.292868L421.834474,435.508445L420.639615,435.736322L418.411025,436.700418L422.799346,436.292868Z M569.748277,434.456705L569.263801,435.398889L568.808405,436.621537L568.479110,437.975653L568.362715,439.268418L569.748277,434.456705Z M679.879801,430.928992L678.690250,431.165634L677.912015,432.217374L679.115922,431.319013L680.351576,431.380364L680.829893,432.217374L680.815820,431.323395L679.879801,430.928992Z M439.762571,427.970973L438.912900,427.436339L442.748425,430.775614L439.762571,427.970973Z M407.646231,426.892940L406.758599,426.095371L404.815046,424.806990L407.729214,427.418810L407.646231,426.892940Z M644.049779,423.746486L644.359412,423.509844L643.932630,423.509844L642.677920,423.737721L642.434502,424.118977L642.522316,424.447645L642.846210,424.684287L643.293922,424.736874L644.049779,423.746486Z M297.443629,426.117282L297.744510,425.736026L297.695012,425.262743L297.181934,424.806990L296.763819,424.377529L295.982159,423.097913L295.718084,422.804303L295.159688,423.211852L295.190568,424.316178L295.781940,425.538825L296.909098,426.305719L297.443629,426.117282Z M379.641229,423.781544L379.537993,423.474786L379.235076,422.856890L378.566891,422.352931L378.346059,422.225846L378.747981,422.646542L379.098513,423.119824L379.693627,424.123359L379.641229,423.781544Z M1.636044,423.934922L1.707146,423.606254L1.547460,423.019033L1.346619,422.436194L1.014212,422.098761L0.471078,422.256522L0.942687,422.396754L1.258649,422.699129L1.412961,423.132971L1.408079,423.720192L1.226914,424.140888L1.389029,424.167181L1.636044,423.934922Z M447.121277,426.761472L446.535659,425.709733L445.036059,424.092683L443.404554,421.634243L442.473924,420.687678L441.147215,420.415979L442.797944,421.489629L446.112531,425.832436L447.429540,428.172557L447.121277,426.761472Z M466.453505,419.819994L466.274162,419.228391L465.688396,418.820842L464.905189,418.912869L464.914082,419.451885L465.136224,419.942697L465.523364,420.258218L466.022610,420.266983L466.453505,419.819994Z M425.701794,405.902017L425.519572,405.604026L425.084966,405.424355L424.523153,405.419972L423.270082,405.161421L419.843689,403.938782L421.232884,404.929164L424.474840,405.533910L425.534811,406.322710L425.701794,405.902017Z M388.611245,398.951822L388.548533,398.241904L388.261415,397.667835L388.021967,397.347934L387.794314,397.242761L387.326182,396.992975L387.180395,397.023651L387.688068,397.290965L387.895660,397.444343L388.214756,397.834359L388.402198,398.312019L388.500893,399.508362L388.481020,400.533800L388.611245,398.951822Z M368.379058,393.430247L367.839784,392.729096L367.183533,392.251437L366.445573,392.119971L367.371527,392.509986L368.037247,393.403954L368.763709,394.219042L368.379058,393.430247Z M338.251794,392.264584L338.047244,392.106825L337.389916,392.115589L337.667150,392.251437L337.903953,392.343463L338.132860,392.466164L338.390125,392.746625L338.251794,392.264584Z M314.111207,391.909626L313.389150,391.410056L312.829725,391.090156L312.628262,391.247915L314.780436,392.264584L314.111207,391.909626Z M324.907064,384.499359L323.916910,383.789448L322.889527,383.311792L323.881585,383.903384L326.775752,386.129527L324.907064,384.499359Z M303.760904,383.167180L303.747096,383.412581L303.829601,383.574722L303.969588,383.736862L304.118168,383.947206L303.760904,383.167180Z M297.169956,377.435532L295.346793,376.191005L293.116022,375.568742L291.108406,375.397839L294.361340,376.383819L295.742045,377.172603L296.745923,378.040267L297.437780,378.767703L297.964945,379.473228L297.169956,377.435532Z M269.654822,373.018343L268.693030,372.321585L267.336324,371.874609L266.228553,371.721235L268.410833,372.689684L269.567203,373.925443L269.654822,373.018343Z M426.607078,361.861503L427.102150,359.153375L426.378081,361.458351L426.120663,362.908822L426.396643,363.566136L427.191044,363.355795L428.033447,362.816798L428.739779,362.106900L429.114656,361.397001L427.535507,362.808034L426.578914,363.079723L426.607078,361.861503Z M378.398231,351.550490L378.412023,350.345426L377.711826,349.398903L376.364835,349.197329L378.038953,350.292841L377.924878,351.379590L377.592793,352.536453L378.398231,351.550490Z M391.851444,349.539128L392.336687,349.355082L392.782277,349.105306L392.308322,349.311262L390.804653,349.609241L391.339426,349.631151L391.851444,349.539128Z M441.728601,347.922153L441.437802,347.716197L440.896882,347.948446L440.024393,348.496201L437.959838,348.697775L436.940191,349.026429L436.187330,349.600477L438.314773,349.013283L440.291567,348.802944L441.387878,348.263953L440.509601,349.416431L438.651391,350.704754L436.795040,353.272639L437.513459,352.702971L438.707884,351.046554L439.117788,350.695990L439.546116,350.503179L440.908538,349.556657L441.694427,348.763506L441.774105,348.478673L441.728601,347.922153Z M396.072194,344.201803L394.943058,343.912589L392.390305,344.412140L394.919206,344.280679L395.769274,344.412140L395.763170,345.516413L396.072194,344.201803Z M614.433947,335.959221L612.940421,334.911922L612.422694,334.631473L613.744420,335.989896L614.257747,336.327310L614.433947,335.959221Z M708.482044,139.565104L709.091857,137.878119L708.857127,135.779246L707.907038,134.096642L707.203329,133.601501L706.482850,133.382412L704.887024,133.334212L705.882578,135.047489L706.067013,135.871263L705.562543,137.720375L705.716292,138.701893L706.178578,139.560722L706.895458,140.012045L708.482044,139.565104Z M682.626049,110.382396L683.485953,108.310676L684.044393,107.530713L684.301806,107.390495L684.768627,107.320386L684.978033,107.162641L685.062367,106.987368L685.136787,106.733223L685.238335,106.518514L685.402409,106.426496L685.549323,106.203024L685.124577,105.699115L684.434444,105.199588L683.784385,104.962970L682.708001,104.358279L681.997986,105.225879L681.504155,106.514132L681.069016,107.162641L681.431343,108.187985L681.363091,109.239620L681.410932,110.256200L682.125325,111.175501L682.626049,110.382396Z M692.729789,97.145804L691.570198,96.839077L690.595079,96.760204L689.550109,96.501676L688.625826,96.041585L688.023688,95.331729L687.342599,94.192455L685.855139,93.920782L684.187007,94.297619L680.329437,96.961768L678.915224,97.505114L678.804823,98.214969L679.029255,99.073806L679.356464,99.783661L679.800061,100.423407L680.509657,101.159552L681.383410,101.764243L683.361069,102.233098L684.063705,102.552971L684.506298,102.509152L684.742173,101.615261L684.575003,99.945788L684.812084,99.792424L685.361308,99.735461L685.923404,99.788043L686.191577,99.945788L686.749383,100.090388L689.299915,100.142970L691.131242,99.958934L692.261601,99.643443L693.293593,99.152679L695.468704,96.843458L695.629654,96.348312L694.570841,96.435949L694.313728,96.602458L694.071095,96.856604L693.742826,97.101986L693.221450,97.207150L692.729789,97.145804Z M634.845518,75.175298L633.644476,73.944001L632.479487,74.097365L631.612895,74.851042L630.849737,75.797520L630.016203,76.551196L632.594279,80.100485L633.524056,80.626306L634.882362,80.004085L635.398741,78.505496L635.615676,76.673888L636.072730,75.048225L635.459674,75.429445L634.845518,75.175298Z M654.790926,49.471363L654.400334,48.884194L654.047473,48.884194L652.641438,50.899849L652.917291,51.728020L653.374301,52.490463L653.696844,53.257288L653.577714,54.063550L654.140673,53.134596L654.932976,52.731466L656.999352,52.556191L657.840392,52.306425L658.505205,51.793748L658.690206,51.092651L658.084459,50.282007L656.457794,49.374962L655.904070,49.243506L655.171346,49.541472L654.790926,49.471363Z M624.301896,44.738953L622.857112,45.054447L622.405131,47.008757L622.541131,47.403125L623.024360,47.841311L623.169108,48.310170L623.370751,49.361816L624.090200,51.837567L624.495468,52.600010L625.535979,53.266052L626.191813,53.857603L626.734671,54.037259L626.872788,53.125833L627.245416,52.731466L629.072748,52.030368L629.604129,51.451963L629.956979,51.451963L630.695546,52.170588L631.594510,51.964640L632.283250,51.145233L632.413104,49.988422L633.640496,50.847267L634.226597,50.952431L634.394528,50.128642L634.195253,48.954303L633.835169,48.279497L632.433981,47.008757L632.829948,46.141149L633.130929,45.694199L633.247134,45.571506L633.318549,45.422523L633.297578,45.168375L632.852506,45.343650L632.229077,45.786218L631.877927,45.869473L630.422072,45.869473L624.301896,44.738953Z M598.804667,0.000000L597.287783,0.696720L596.399501,2.225999L596.592253,4.197847L597.097060,4.907713L597.560873,4.824457L597.937150,4.246048L598.179667,3.496746L598.451779,1.892975L598.805357,1.432877L599.612419,1.253220L599.849718,1.112999L600.495070,0.517063L598.804667,0.000000Z "/></g></svg>