<?xml version="1.0" encoding="utf-8"?><!DOCTYPE svg  PUBLIC '-//W3C//DTD SVG 1.1//EN'  'http://www.w3.org/Graphics/SVG/1.1/DTD/svg11.dtd'><svg enable_background="new 0 0 1000 1854" height="1854px" pretty_print="False" style="stroke-linejoin: round; stroke:#000; fill: none;" version="1.1" viewBox="0 0 1000 1854" width="1000px" xmlns="http://www.w3.org/2000/svg" xmlns:xlink="http://www.w3.org/1999/xlink"><defs><style type="text/css"><![CDATA[path { fill-rule: evenodd; }]]></style></defs><metadata><views><view h="1854.19703797" padding="0" w="1000"><proj flip="auto" id="robinson" lon0="125.249984399"/><bbox h="264.62" w="142.79" x="1727.31" y="-349.47"/></view></views></metadata><g class="" fill="#000" id="country"><path d="M321.174827,1852.197038L329.399193,1849.927557L334.676891,1841.525891L343.606185,1839.428340L345.162001,1833.983876L348.629523,1837.657457L353.032870,1839.508574L356.137414,1836.230434L358.576458,1829.146900L356.232941,1825.920338L353.671252,1819.346863L349.291156,1820.246632L340.861600,1828.321633L331.039522,1832.453695L315.536567,1843.634904L315.315140,1851.102415L321.174827,1852.197038Z M447.352720,1733.014796L434.623333,1730.624961L420.794929,1741.078341L418.895228,1747.451235L424.890403,1754.076294L433.807787,1750.935695L440.677234,1754.448810L454.332360,1748.614632L462.710644,1757.153851L474.310981,1748.952762L474.519373,1746.058597L471.871092,1741.645712L460.457076,1739.278801L453.479362,1741.479512L447.352720,1733.014796Z M541.489442,1691.619645L552.284261,1685.212366L556.840537,1673.842028L564.102997,1671.205760L560.169264,1666.901767L535.654676,1654.952599L521.297742,1662.523270L512.809807,1663.950293L510.760744,1669.858971L517.725548,1675.842153L518.817750,1681.143344L527.746732,1693.086785L531.089844,1693.235792L541.489442,1691.619645Z M919.393919,1628.893679L917.956840,1609.184733L910.391705,1602.743079L908.027666,1615.930132L910.822950,1619.827219L918.218880,1635.581771L919.393919,1628.893679Z M621.421445,1576.500804L618.925574,1573.652495L614.699778,1577.887707L609.382655,1574.231326L607.016748,1578.351918L608.467389,1587.435560L612.083148,1587.596028L622.480351,1582.145843L622.738564,1579.245954L621.421445,1576.500804Z M12.103247,1520.835627L10.309324,1499.034950L1.831392,1501.218456L0.269804,1505.195760L0.604513,1519.483113L7.377648,1529.741588L12.103247,1520.835627Z M37.863908,1481.956624L37.079332,1473.199690L34.425250,1470.941685L29.335074,1470.179465L28.961916,1477.394765L31.005744,1484.730418L37.863908,1481.956624Z M799.266222,1373.039727L797.105812,1367.469256L791.065478,1361.239731L788.102076,1361.256923L782.614515,1363.274212L781.641617,1369.228654L784.823969,1374.248956L796.882190,1380.025743L799.266222,1373.039727Z M683.813501,1361.927443L678.988996,1357.061881L676.117477,1358.294031L667.264960,1364.712677L662.949772,1364.483439L663.168393,1367.234288L668.655332,1374.552695L676.525381,1377.653134L685.713154,1374.105682L683.813501,1361.927443Z M914.892726,1320.114623L916.261373,1309.432206L912.875738,1300.686844L911.099780,1303.019321L909.601763,1316.836541L913.292931,1323.117623L914.892726,1320.114623Z M921.342907,1352.110357L914.977001,1339.702902L906.035141,1329.553442L880.394739,1312.962446L866.747238,1300.681113L861.651069,1300.956196L856.651465,1311.237442L870.598435,1357.400006L874.337893,1373.240310L871.991668,1388.049064L859.495287,1390.742608L845.965400,1386.662175L842.016014,1386.593404L839.570023,1398.926402L836.448436,1405.184600L826.466106,1402.628596L815.241086,1394.863159L807.354866,1393.034987L801.331798,1398.697164L799.810471,1404.554195L798.953045,1426.188554L796.968334,1441.071865L786.037327,1445.805643L767.653148,1435.982768L762.920497,1436.744987L758.438489,1441.490226L755.523731,1447.473355L752.291746,1461.846629L747.380061,1475.297227L744.843454,1480.208676L741.134485,1483.503989L724.713037,1488.489942L718.187198,1492.077536L705.258348,1501.384654L700.395497,1500.312960L710.008112,1490.117541L712.109217,1484.988313L708.707087,1463.010016L707.028853,1456.362089L699.187892,1442.865657L687.847380,1434.309327L675.574750,1431.157298L668.572266,1427.157087L661.722965,1424.601078L656.909000,1434.893885L653.295485,1440.200758L648.563873,1443.599221L633.739802,1446.585055L628.759481,1450.717083L624.497519,1456.218814L621.404241,1460.396693L619.842094,1465.359716L620.855624,1473.474777L620.770953,1481.268907L612.527149,1488.787953L601.692604,1491.458590L588.112980,1491.527362L579.825680,1496.198113L559.277531,1501.762899L554.298794,1503.814592L545.312945,1513.591656L534.908397,1529.391998L534.049340,1534.687436L534.387948,1547.066386L529.763433,1581.847830L524.631744,1591.802587L518.369709,1601.104011L517.212683,1615.695160L524.234516,1628.251806L531.087305,1632.899657L538.491497,1634.647616L542.807079,1630.429590L545.879697,1624.028050L552.398161,1604.565540L558.130027,1584.587251L569.697254,1558.660196L571.731468,1549.524984L573.888799,1545.559134L585.371211,1534.951061L595.385465,1533.661588L603.858217,1539.724980L607.984074,1558.969670L610.724052,1562.396808L618.357345,1562.253533L625.741658,1560.402420L631.326923,1552.413407L635.557732,1542.309659L638.367744,1546.246853L640.487999,1550.585218L642.166214,1557.009668L645.384614,1562.379615L656.644645,1570.047695L668.356958,1576.689927L675.098437,1546.424514L675.273105,1541.157729L674.456514,1535.747670L675.641504,1529.695740L681.656887,1526.853168L687.414943,1526.910478L693.416546,1528.538080L699.017768,1532.337728L704.270797,1537.358079L725.977003,1546.510479L736.979126,1556.694463L749.961030,1573.262787L752.789826,1577.990865L753.951423,1585.538597L752.174697,1593.143642L749.195594,1598.840263L745.338134,1603.969515L738.321184,1611.127545L733.061166,1625.260218L733.096502,1632.773574L734.330487,1640.602138L742.034454,1663.658011L743.181967,1679.383922L747.051432,1694.422113L762.207348,1714.515065L782.256179,1727.839685L807.678776,1742.104194L838.640856,1756.523439L843.658848,1757.652450L849.850598,1757.073617L853.830579,1752.895704L862.980468,1736.378905L864.630138,1734.556440L868.774563,1733.731174L872.849019,1738.000783L873.232416,1750.626220L870.752640,1764.392129L871.910456,1770.421162L877.601824,1785.052453L883.889021,1788.961008L894.772196,1781.298636L909.097467,1757.130927L914.571384,1744.396601L913.114793,1715.483607L902.862251,1687.223954L900.138171,1683.252358L891.528141,1674.552674L885.723549,1670.632658L879.699646,1660.912855L881.001318,1648.493745L886.714469,1634.951359L893.906730,1622.572373L903.403846,1612.187782L904.984941,1605.671625L905.524061,1598.427631L907.167450,1593.647971L915.416344,1586.707722L920.577265,1585.401053L930.244551,1610.789416L937.155549,1620.623829L940.268516,1631.145967L947.053308,1642.928930L951.719949,1655.817982L956.616217,1684.421486L960.678109,1695.230186L966.168220,1705.546020L968.189889,1685.155056L968.282368,1655.754941L962.395134,1641.828575L964.663956,1637.312537L972.710613,1638.332657L986.696943,1623.070971L996.531417,1603.883550L999.559113,1595.441776L999.730196,1586.358131L998.329682,1560.345110L994.831727,1545.031882L991.773560,1539.449892L986.330968,1535.673167L979.574685,1526.772934L977.717805,1515.666274L979.012536,1489.687717L978.742105,1483.343521L969.471490,1468.798300L966.540818,1450.356032L957.451645,1443.851384L945.968628,1441.415723L942.176659,1437.237849L942.093017,1433.524185L949.566397,1425.426337L953.534331,1419.832921L958.413681,1408.004229L955.834420,1395.407599L944.713972,1380.323752L942.511736,1375.120058L941.139682,1357.302580L930.378631,1359.176595L921.342907,1352.110357Z M922.255702,1299.850132L930.242947,1299.666743L933.580547,1295.890078L927.541938,1288.233597L928.100459,1285.190492L927.596096,1279.035512L920.594375,1265.460968L914.268307,1280.972554L914.451199,1291.362668L921.012710,1300.486262L922.255702,1299.850132Z M839.585230,1274.502378L832.997070,1258.836086L826.926070,1254.681209L822.458858,1254.217009L826.144179,1265.025422L840.832309,1280.307770L839.585230,1274.502378Z M770.759752,1297.385844L769.114597,1292.411422L765.788318,1286.588830L766.490918,1269.277728L756.700291,1264.727417L747.736157,1257.575295L744.335841,1257.202789L741.970743,1255.821650L740.136210,1253.643922L723.596246,1256.543739L716.242042,1265.214541L713.380486,1272.389592L698.665793,1281.843649L694.450260,1286.634677L690.276925,1293.844147L692.184021,1300.446146L697.372467,1310.469500L704.507711,1316.544265L724.046493,1319.438376L748.237499,1315.810708L752.487631,1313.008293L759.165351,1301.999221L762.009902,1301.340167L770.156310,1301.695483L770.759752,1297.385844Z M882.574004,1282.451124L882.541935,1279.568485L881.445024,1276.731694L882.221887,1263.988135L874.464660,1243.609185L876.731163,1226.399426L874.353027,1220.754538L872.446297,1221.144235L868.751111,1227.860793L866.280575,1229.729051L861.152724,1236.061646L862.194049,1249.936054L860.193153,1258.480772L864.597569,1261.839060L871.381317,1272.622646L877.961867,1278.972472L881.049395,1285.734927L882.574004,1282.451124Z M280.600993,1215.373270L286.724529,1209.183955L289.190675,1205.499021L282.805428,1201.430120L272.291805,1197.280989L264.229890,1207.671011L268.240840,1218.977974L280.600993,1215.373270Z M733.142245,1201.286849L739.556946,1198.169270L739.114468,1192.621813L737.823301,1191.269335L733.889373,1189.469850L730.333333,1201.819818L733.142245,1201.286849Z M562.716007,1216.932061L565.705855,1213.934827L569.720049,1195.584659L568.305105,1189.504235L565.033636,1185.486915L562.093146,1185.698956L559.791640,1187.613057L557.768110,1190.839521L549.652339,1201.103462L548.794565,1214.605336L551.780396,1222.536832L557.445743,1218.301734L560.016794,1218.536699L562.716007,1216.932061Z M626.957966,1382.255080L633.093912,1379.464111L636.513078,1375.532686L642.258900,1364.277126L644.517583,1357.743862L644.220468,1352.517253L642.438343,1347.880932L623.563135,1318.636048L622.980602,1312.395086L623.784140,1305.901967L622.161687,1288.342484L623.976889,1280.238999L630.856391,1265.483892L633.237719,1257.798799L635.948231,1234.222041L641.005894,1218.542430L648.484000,1204.066309L651.173909,1194.713571L653.918430,1180.776163L652.985614,1176.632766L646.389344,1164.076496L619.363295,1155.755318L615.830626,1156.374249L596.380740,1165.394589L592.434787,1168.351702L591.620506,1174.271660L592.332580,1182.541262L592.036633,1190.449824L587.705005,1201.693739L583.070349,1207.458970L579.646723,1213.281511L584.499087,1226.021190L587.181155,1239.076076L588.831629,1257.741490L588.181289,1262.211566L574.495407,1273.568243L567.904039,1274.576879L555.028159,1274.851962L549.872430,1276.926544L545.820311,1284.605940L543.887896,1293.179363L546.394273,1308.337602L564.171769,1333.112343L569.506934,1337.760120L575.429341,1341.617031L586.957591,1346.196040L597.186046,1352.242169L607.636460,1377.108694L612.948675,1382.874022L620.222537,1383.515887L626.957966,1382.255080Z M647.908514,1337.009369L659.222176,1320.613213L670.270983,1281.597221L670.192621,1270.039934L674.926921,1257.351791L683.021673,1246.497538L691.414242,1242.165008L698.836706,1235.253595L703.360631,1225.453835L706.046256,1203.682342L701.505063,1182.289105L702.317513,1163.755569L701.016382,1151.669230L699.410873,1148.752233L698.432786,1142.522811L699.302238,1129.548192L696.653169,1122.940533L690.317124,1133.107043L690.592094,1138.912383L689.852197,1145.755004L687.680823,1150.242251L689.139864,1159.291245L681.717142,1186.615891L672.807434,1206.427418L672.253382,1216.817444L661.918694,1236.858235L655.589841,1255.941999L644.221025,1276.273223L646.846274,1285.408266L642.146786,1321.931323L641.907654,1332.390247L644.192256,1340.138453L647.908514,1337.009369Z M667.480863,1121.794365L665.920797,1122.281487L662.816887,1125.937763L666.984665,1137.267632L675.128519,1137.353595L667.480863,1121.794365Z M31.408605,1455.554022L41.401204,1448.951945L47.119999,1447.129497L51.791429,1443.966003L53.676589,1437.243580L56.632211,1431.799165L67.446465,1427.592640L77.319939,1421.632442L87.940399,1413.460097L97.665004,1404.204607L104.952654,1391.711138L110.549354,1377.882371L119.765320,1370.065371L131.877584,1366.133948L140.179934,1359.732495L146.635070,1350.734934L152.500757,1340.161376L170.214827,1299.781361L167.313445,1288.594644L169.569450,1282.256274L174.654513,1278.359267L185.965529,1273.178542L210.334099,1265.243195L212.715348,1260.595461L213.560020,1254.555130L217.966030,1242.869904L225.890144,1233.998538L231.082057,1230.817914L242.995894,1227.889448L248.336225,1224.594208L256.790680,1213.688401L255.968442,1207.659550L247.211338,1189.389618L235.220603,1160.540568L237.798664,1149.703552L234.130771,1143.118819L233.691445,1136.637240L235.052456,1123.731389L233.786453,1118.246975L228.031332,1114.384388L224.949345,1120.562235L215.136696,1151.182109L212.199373,1158.139347L209.061141,1173.217185L213.780743,1184.271977L216.141266,1191.767918L214.735286,1205.040553L209.268787,1216.393361L205.778163,1220.834770L201.669487,1224.376435L195.401957,1227.127244L189.963214,1230.915338L173.861308,1257.002209L171.550868,1260.051029L162.722114,1268.303480L145.129167,1296.629365L127.457407,1319.031481L106.267831,1349.090158L97.595239,1358.116372L93.533454,1360.036235L88.239076,1360.288396L83.507771,1361.532008L70.386904,1378.249152L55.908883,1393.499194L49.965422,1401.213051L39.586531,1417.168026L33.043032,1423.397577L24.828989,1443.656531L22.726357,1453.548182L22.456228,1464.041592L31.408605,1455.554022Z M263.007966,1093.386578L259.555050,1094.549939L253.326158,1099.455543L249.619961,1099.335195L250.586108,1104.349683L257.939921,1107.071834L261.636408,1110.951614L263.925200,1108.911434L265.861727,1099.598814L263.007966,1093.386578Z M751.024134,1114.779816L747.662591,1108.682200L743.458586,1105.295272L735.312480,1101.381106L728.218039,1094.601517L723.485294,1092.228947L721.785459,1097.982716L724.867811,1104.917037L729.181111,1111.536160L736.589028,1137.399442L742.785535,1164.013457L748.922971,1166.259946L759.920032,1159.480363L764.726272,1159.509017L773.534921,1169.159750L779.644425,1180.701663L781.300176,1186.524197L782.025799,1192.341002L778.507462,1220.800384L785.114149,1233.969883L785.924148,1240.187862L785.968135,1252.686868L789.638987,1256.612510L802.063018,1261.157086L812.801622,1268.526984L811.596857,1258.881932L808.776240,1249.282736L805.089862,1229.270583L811.406874,1234.451275L818.911083,1246.789812L823.068299,1250.176750L822.299987,1244.789742L822.755891,1240.440020L833.673063,1241.448651L834.746326,1236.296611L833.411441,1231.379537L825.710751,1218.748740L823.278011,1203.768305L820.245038,1197.596186L815.920973,1192.048729L810.990420,1187.721943L805.475280,1184.214668L802.950070,1180.197349L803.726042,1160.689570L801.993678,1139.170271L799.229140,1130.195777L795.324704,1125.009367L787.285572,1111.284003L775.706687,1107.931460L766.715249,1117.244078L758.642999,1118.883098L751.024134,1114.779816Z M752.649525,1097.277822L753.356449,1090.544078L746.306011,1079.964933L740.135980,1074.400277L732.457474,1073.471879L724.889461,1076.887466L733.643639,1092.635837L739.856192,1098.022832L752.649525,1097.277822Z M776.705922,1085.237314L772.909329,1081.500800L768.775937,1074.870207L762.435441,1071.087844L764.481342,1077.752825L769.325853,1086.882067L772.256456,1089.604219L775.456048,1091.277626L776.705922,1085.237314Z M533.431754,1082.853281L522.346427,1072.629444L510.285129,1064.434323L488.220636,1054.686135L481.769315,1049.952445L474.993551,1049.723210L470.632961,1054.772098L468.883139,1062.222213L474.406129,1066.044693L487.842303,1070.102138L491.922875,1075.133826L492.618948,1079.586697L491.997761,1116.819996L493.819457,1143.617402L492.095739,1157.497493L487.530587,1170.105339L487.389930,1183.521236L490.330392,1190.386785L491.806651,1197.464376L488.649468,1214.473527L489.364585,1217.144102L491.279126,1220.255954L494.671880,1218.622662L500.592535,1212.078032L505.770082,1204.862897L514.425468,1199.303977L547.106795,1191.206295L561.441150,1178.409326L571.157831,1175.721562L572.695851,1169.159750L571.808415,1161.944624L572.625866,1156.213785L576.755367,1152.408508L585.828736,1148.219265L593.149983,1141.370913L598.268542,1131.937952L601.721789,1121.381745L603.322589,1112.372863L603.620309,1103.106090L602.658018,1092.188831L596.857777,1091.495399L576.640201,1103.249361L576.715990,1097.845175L579.336021,1092.922379L568.907634,1085.134158L557.231399,1083.695715L546.072831,1088.830555L533.431754,1082.853281Z M279.106369,1072.497634L281.653865,1063.087572L280.074886,1058.646158L280.438962,1054.044279L276.143876,1047.390750L272.032260,1045.642837L267.421025,1042.341859L262.978752,1039.866125L257.651869,1043.081141L267.307230,1064.147780L267.620036,1068.153648L269.591479,1073.976194L271.806447,1076.480576L279.106369,1072.497634Z M279.542035,1017.997119L276.838905,1014.466897L264.186348,1005.939344L258.661682,1000.225649L256.704565,1000.890432L255.756040,1002.483619L255.433887,1004.827552L256.736984,1005.692916L254.825751,1009.039752L255.027587,1014.317894L258.397762,1016.696209L266.083592,1029.550562L272.374664,1036.708418L281.783947,1038.410485L289.029088,1035.373125L296.411035,1037.115309L303.637232,1036.221294L305.570304,1028.587775L296.412887,1021.040214L292.070698,1011.876539L289.205879,1018.071620L285.372231,1019.790883L279.542035,1017.997119Z M540.756081,1001.406212L542.736623,992.804144L541.173633,987.881305L533.048694,979.978392L519.480549,979.938276L514.944435,984.265107L516.930204,987.268098L523.773330,992.643679L535.800153,1004.157038L540.756081,1001.406212Z M803.932778,975.720329L794.107724,970.476547L762.718324,974.935195L734.592754,975.915180L706.083151,970.854788L711.568425,990.282550L719.827399,1009.039752L727.319956,1019.745036L736.892056,1028.381464L741.617810,1031.206783L752.875340,1035.224123L761.554828,1045.499565L766.778709,1049.843559L769.962440,1055.035718L777.467485,1064.027432L783.029789,1066.474507L789.014343,1065.265297L790.153973,1072.612251L788.980164,1080.108204L783.618454,1089.506795L787.537104,1098.807957L798.428480,1114.991857L804.621876,1121.318706L811.878893,1123.702735L821.366409,1138.018372L829.454846,1138.345030L842.220214,1141.829380L862.221068,1139.548506L867.130384,1140.866599L874.308125,1149.222162L875.407084,1146.408320L869.643610,1135.703113L860.891710,1127.593975L855.291065,1127.083931L855.687479,1122.241371L857.895296,1117.129461L855.556380,1110.653610L844.475369,1091.168740L842.397964,1085.288891L842.460723,1078.119599L841.386639,1071.271232L837.276420,1064.485901L834.108054,1043.247336L838.604953,1031.269823L836.478438,1021.739381L839.055628,1015.211912L832.630360,1008.105618L824.718815,1004.243002L818.787846,1003.314598L815.091478,999.904719L814.946284,992.231055L812.358881,985.296669L803.932778,975.720329Z M650.422730,1003.950726L634.199599,989.915773L632.053138,985.468596L621.395910,978.849404L607.859343,974.018250L596.936243,969.192823L598.511428,979.617345L602.681080,991.262534L601.341508,999.176896L600.716186,1025.166444L596.899643,1041.436382L597.650552,1046.405041L610.099566,1033.407437L621.007374,1014.879521L626.360441,1012.249046L632.531687,1014.598708L642.283430,1027.086287L648.282972,1029.539100L649.282310,1031.808525L656.212216,1037.367467L655.763861,1043.361953L658.954520,1045.367755L668.884740,1047.820564L684.016190,1058.932701L691.341030,1066.732396L691.626715,1059.792330L688.028614,1041.573923L671.752620,1017.830923L650.422730,1003.950726Z M502.398204,975.611442L499.167534,968.516575L498.142055,968.086757L495.528934,972.310439L497.611385,978.631630L499.617025,979.193258L502.398204,975.611442Z M482.429055,996.024906L483.829753,974.585610L482.661056,965.777198L483.627535,961.077846L479.412909,961.312814L469.603979,967.427702L470.578010,986.586121L466.262280,992.443098L465.156465,998.792927L466.978921,1003.595411L472.344097,1008.885018L470.813417,1015.211912L477.481154,1025.281062L482.429055,996.024906Z M654.210441,984.402649L645.175341,965.989242L635.303147,958.464547L632.355776,963.347290L636.666713,970.717246L651.478765,990.901487L655.789837,994.689608L654.210441,984.402649Z M597.826945,937.512263L589.307930,931.408808L569.572654,907.000653L566.809338,906.673988L560.810814,907.728486L560.638662,913.419338L563.496677,916.233241L572.400685,921.075902L585.628237,934.876030L597.727920,943.185892L608.763856,955.421427L597.826945,937.512263Z M323.594315,864.029636L318.074301,861.903425L298.686524,858.992063L291.866537,859.622476L287.524918,864.797593L286.946930,871.909786L292.145332,873.164878L297.293237,872.723590L299.255210,874.121957L303.046848,883.801624L306.627044,889.784783L314.034525,895.790859L322.652101,900.455879L326.176944,904.977619L337.036821,923.849685L339.361803,938.979384L340.843670,944.887979L343.451707,949.885351L350.112558,955.089033L355.497868,961.874444L358.651122,969.473638L359.661157,977.628721L364.688345,985.268015L374.702544,995.428894L378.571414,997.893177L381.533747,1002.042341L383.161533,1007.933692L387.348844,1009.939501L395.946830,1011.996888L400.554542,1005.200060L403.647990,1002.042341L407.072322,1000.930549L411.099763,1002.397656L410.893358,995.337199L412.379423,992.047666L411.316978,988.024577L414.878443,978.058539L420.145974,969.106859L421.609649,962.774198L412.583519,939.426397L410.754841,928.337020L411.046457,918.009839L415.091870,909.877600L412.846714,904.908848L403.733316,898.192141L393.836313,889.148643L384.795564,876.397168L375.542172,869.565801L368.037281,875.560441L363.164545,872.098910L357.285573,869.989896L351.920551,863.267409L344.968337,861.496522L328.962241,865.026834L323.594315,864.029636Z M447.170706,856.888774L441.782084,853.857057L438.633180,870.488495L441.503309,881.738464L446.991856,887.240222L461.381700,896.249338L464.785248,892.587238L465.576808,888.776129L471.119913,877.451673L468.748143,870.912590L468.861654,865.943797L455.389191,856.132278L453.561487,857.232636L447.170706,856.888774Z M275.014635,832.199411L267.802225,823.986783L257.908031,819.596774L256.367155,821.419259L256.343627,824.422345L257.358442,828.479947L276.193257,840.148394L275.014635,832.199411Z M696.550879,846.102956L701.002272,840.561030L699.110827,832.268184L699.362363,818.072305L690.141402,811.023060L686.968785,809.160452L676.312959,793.829723L672.628374,795.950239L669.819583,799.864593L667.388390,805.320612L670.459820,827.528588L663.711435,842.475202L666.464802,849.232107L679.768388,857.920360L686.416612,851.450020L691.120276,851.020192L694.816264,853.713781L696.550879,846.102956Z M466.143378,797.205354L441.072158,776.086112L440.094662,778.859990L440.511079,781.633866L441.928743,784.619791L466.463636,801.996568L466.143378,797.205354Z M435.856303,684.971326L428.801762,680.116880L415.412201,681.085478L414.682355,689.836769L419.781954,695.281516L423.857777,704.359892L427.997748,709.036620L430.243443,716.475811L429.338551,719.066342L428.955100,724.705895L431.425088,725.932382L437.140167,725.215976L438.805923,713.799309L431.280575,698.124243L434.872071,689.636173L436.247243,688.891101L438.312174,689.097429L435.856303,684.971326Z M271.232099,261.212617L266.141700,261.401730L253.830391,264.754193L247.704846,263.132402L242.100066,262.605177L232.622990,269.350236L222.207246,273.820220L223.492831,290.147266L222.202547,302.434241L219.571464,314.337360L215.103122,375.894708L218.544275,387.993250L225.818311,399.352537L227.297418,406.562450L227.817889,419.119676L232.182509,440.228114L233.635130,456.012265L228.375285,478.754416L228.869690,492.418111L231.156042,506.058918L235.596152,521.189933L245.504494,542.167066L246.575750,549.291275L245.469768,555.320775L243.008184,560.381659L236.547701,562.146950L225.186459,562.588273L221.184149,560.410316L209.725198,546.517246L204.213363,542.894962L198.169336,540.155323L192.737935,534.446789L186.339719,529.850160L182.618346,532.578334L181.698095,538.235284L184.267351,561.728553L185.844500,567.190639L190.892805,573.821943L197.003337,579.243908L199.790590,582.854729L201.503088,587.233565L212.934692,634.982216L217.236087,645.625450L223.829863,658.652912L229.037564,672.115910L232.157077,688.128836L238.141428,703.041696L244.717661,708.990770L252.368950,708.004990L256.415571,709.821805L261.611480,722.608258L271.210193,731.537536L276.246277,745.034565L281.273814,749.722692L287.334143,751.270116L293.474451,751.132567L296.191502,746.232388L293.768138,733.142281L287.257278,713.014125L289.129105,699.499755L295.820641,707.139566L303.627404,711.781902L313.839893,713.873816L323.136061,718.923060L329.767636,727.221912L332.247882,737.446434L330.273886,745.057490L309.500192,768.755956L305.558080,774.257873L303.787592,780.865892L306.854939,803.486657L311.808416,825.883770L319.797977,814.610726L331.514349,816.467600L342.805374,830.886996L350.452551,831.328289L360.828966,840.555298L372.524889,845.157333L386.851205,844.120013L396.405159,836.755607L395.665513,827.494202L400.047861,821.459376L413.545882,812.799700L418.216177,810.616152L423.300728,809.292267L427.031665,810.255092L459.643505,827.775025L475.407646,844.223172L494.948114,859.204111L498.488928,862.470797L509.775223,877.640796L512.009410,883.497881L513.079227,889.790514L522.752977,897.521616L529.624609,890.592853L526.779883,873.904179L518.942128,859.611014L516.910071,854.344195L506.404536,843.214507L504.894255,837.775736L504.387271,830.743720L502.432363,824.038363L498.751228,816.232625L499.964363,811.154875L505.873293,811.733716L511.505514,813.779717L533.280772,833.798379L543.557644,847.862388L547.306015,850.831068L577.039784,868.459715L580.534639,873.021603L582.747598,878.815653L593.999925,895.005714L595.181649,908.685559L598.088443,915.132896L607.652637,916.422363L632.491870,930.663785L643.950246,932.405993L650.650356,931.391615L656.621426,928.445908L662.055423,927.357027L665.539396,930.119345L661.613582,943.197354L661.483184,956.728077L671.443648,967.846059L681.925350,971.118409L686.756781,944.819208L683.800808,916.107160L680.028796,917.373702L676.280404,916.559906L663.566214,908.605325L654.833233,906.576561L645.914876,907.333049L647.960721,897.819627L647.080437,888.678702L640.233493,878.815653L632.764369,869.651766L621.483582,858.327263L613.672842,844.515456L618.683963,837.626728L638.889195,835.597933L642.959949,826.456877L638.067323,822.055409L628.101718,816.513448L623.595876,815.023365L618.302840,814.851432L596.628100,806.896666L589.999744,799.572306L583.604061,795.698069L580.094659,800.025065L578.697291,805.819218L584.047143,810.381177L584.751457,822.135644L579.396577,832.589124L566.039110,832.250991L561.126535,827.729176L559.935350,821.075394L560.456977,814.352827L559.589294,807.635979L551.892605,793.566091L541.904924,780.860161L532.869276,773.501360L522.556526,769.501008L508.272803,765.666855L494.188788,765.099469L484.126075,771.965409L474.911263,780.539217L470.526826,782.390377L467.072992,785.559698L467.941070,789.829395L476.384735,797.686769L478.492403,803.383497L472.681623,805.343536L471.735234,811.131951L464.769670,810.833933L457.890343,809.143259L439.491371,800.540865L432.819848,795.531867L426.590452,789.571494L422.250575,783.209930L419.683612,775.449953L405.080578,746.421518L401.332412,734.724101L399.530301,722.917745L405.675158,716.395573L404.202573,713.094363L401.222652,710.268845L385.707561,685.658635L370.785794,660.171729L366.213436,654.268400L364.522185,647.482425L365.647525,641.538955L369.032197,636.655790L371.263785,625.754621L378.397660,612.411835L380.413445,606.938305L379.619365,600.341405L376.754655,594.237406L372.845014,588.517412L374.422412,576.017094L382.131566,566.451280L391.580508,559.092079L409.147174,549.646625L425.085245,546.488589L430.039355,526.921386L429.650641,517.097678L442.658337,471.618822L443.701939,451.971652L445.642100,443.993606L446.280466,436.147403L440.435475,432.593980L433.805134,429.894529L431.111107,422.822093L429.200709,414.792555L425.864155,410.322160L415.319138,404.407497L411.231446,399.759455L402.105181,383.230622L397.981537,372.817072L395.980403,362.008135L392.628716,325.885261L395.154356,314.984957L400.819738,305.930091L401.209913,295.832270L397.949535,286.152879L393.289047,279.573916L387.896274,274.668372L380.580521,276.318834L375.836566,289.803416L372.809613,294.938255L364.405111,299.958498L353.782030,298.755013L339.915016,294.686098L326.316519,289.241794L287.911055,267.298633L271.232099,261.212617Z M349.129346,228.416337L354.590886,221.150064L348.922909,214.835097L343.759494,217.052781L341.935233,223.482371L342.540355,226.324699L340.369352,234.519359L344.150261,236.845967L349.129346,228.416337Z M276.927477,206.388464L274.897788,199.277076L270.834886,194.515169L269.396130,199.758425L269.659421,204.159344L271.860923,210.113225L277.759316,214.279245L276.927477,206.388464Z M298.479223,173.582561L284.514467,169.193252L283.333936,171.502507L283.684416,174.247263L285.113392,177.513476L295.357732,183.982906L301.433628,184.217846L298.479223,173.582561Z M322.017509,55.779832L327.050929,43.633683L322.769607,42.436262L318.232498,45.472785L317.473314,56.536106L320.367529,57.206440L322.017509,55.779832Z M300.469944,0.000000L297.268882,11.103127L297.643016,16.436999L301.624970,16.540124L304.818631,6.966663L302.460207,0.240625L300.469944,0.000000Z "/></g></svg>