<?xml version="1.0" encoding="utf-8"?><!DOCTYPE svg  PUBLIC '-//W3C//DTD SVG 1.1//EN'  'http://www.w3.org/Graphics/SVG/1.1/DTD/svg11.dtd'><svg enable_background="new 0 0 1000 1070" height="1070px" pretty_print="False" style="stroke-linejoin: round; stroke:#000; fill: none;" version="1.1" viewBox="0 0 1000 1070" width="1000px" xmlns="http://www.w3.org/2000/svg" xmlns:xlink="http://www.w3.org/1999/xlink"><defs><style type="text/css"><![CDATA[path { fill-rule: evenodd; }]]></style></defs><metadata><views><view h="1070.69336744" padding="0" w="1000"><proj flip="auto" id="robinson" lon0="70.0832981872"/><bbox h="224.63" w="210.0" x="865.6" y="-621.95"/></view></views></metadata><g class="" fill="black" id="country"><path d="M518.530342,1040.230003L517.062522,1039.311023L514.119534,1040.424840L512.543745,1040.385872L511.393055,1039.311023L511.963157,1040.629417L512.288495,1041.110012L512.951066,1042.077692L514.190190,1043.240199L515.448881,1043.717540L517.249647,1043.246694L517.593982,1042.188098L517.764262,1041.077539L519.070577,1040.447570L519.075783,1040.444323L518.530342,1040.230003Z M568.022633,1068.693367L568.583011,1068.557003L568.229725,1067.115429L567.232664,1064.813433L567.002714,1063.378325L567.186524,1061.800343L568.060939,1058.680057L568.136430,1057.092295L567.961741,1056.702659L567.251203,1055.660376L567.007087,1055.157091L566.841377,1054.371315L566.620060,1051.890577L568.964483,1056.809809L568.971289,1056.912974L568.993484,1056.821856L570.308921,1054.131149L570.796955,1053.753829L571.956142,1053.166197L572.401238,1052.846607L572.611398,1052.821864L573.302608,1052.960010L573.570329,1052.941453L573.781117,1052.652791L573.576968,1052.339385L573.257939,1052.075465L573.114281,1051.912576L573.131641,1051.401228L573.019130,1050.693999L573.089763,1049.974395L573.642882,1049.430051L574.318686,1049.289841L574.610622,1049.623871L574.847890,1050.244505L575.359343,1050.990912L576.391683,1051.458961L577.277999,1051.028026L577.985428,1050.079552L578.481306,1049.025916L578.321815,1048.463012L577.962784,1047.656799L577.921551,1046.984608L578.740635,1046.825838L579.208023,1047.141315L579.526361,1047.784638L579.715165,1048.533118L579.776004,1049.162003L581.762147,1047.475349L584.865628,1046.939245L592.863506,1047.005227L599.644952,1047.054714L605.012080,1047.095952L603.716019,1036.012687L602.728040,1027.644607L601.966204,1021.235255L603.022261,1017.886124L606.605543,1018.053170L607.813341,1019.700933L608.785946,1024.340976L610.234921,1025.446318L610.856307,1024.842093L612.475481,1020.585645L612.612989,1019.946343L612.656394,1019.292602L612.956395,1018.820340L613.899976,1018.731662L614.550334,1018.997697L615.220168,1019.535951L615.811486,1020.185566L617.451422,1022.746878L618.538029,1023.788302L619.801770,1023.934720L621.567595,1023.202631L624.156756,1021.552842L625.445267,1021.297123L627.170641,1021.818871L631.288031,1023.833671L632.592974,1024.112070L635.254670,1023.681067L640.126892,1021.672452L659.579705,1022.229257L661.709011,1023.198507L667.834671,1029.257216L671.057775,1030.863624L674.858580,1031.344100L688.775343,1031.131701L691.704894,1030.426452L693.911237,1028.191081L694.474960,1026.735187L695.514068,1021.767315L696.085503,1020.468096L696.837223,1019.983464L699.202449,1019.744240L702.981375,1018.333641L704.382222,1018.242900L705.701982,1017.931494L707.963834,1015.978490L709.213638,1015.312360L712.938872,1015.085503L714.083517,1014.598792L716.912834,1012.237399L723.859949,1010.403942L726.749142,1010.469939L727.838571,1012.390014L727.530314,1013.200522L726.452151,1014.039898L726.139290,1014.536922L726.193695,1015.411351L727.217032,1018.218153L727.952317,1021.391986L728.608967,1022.544779L729.930278,1023.734685L732.625698,1025.070998L741.922853,1025.846384L743.282569,1025.427758L745.683405,1024.008960L747.023441,1023.464534L748.179579,1023.177884L748.529617,1022.635518L747.467133,1021.309496L747.040912,1019.909222L747.930046,1018.473877L751.745520,1015.448473L752.966993,1015.011259L754.285905,1015.114376L755.871571,1015.805255L757.219398,1015.856813L757.860969,1015.269051L758.242881,1014.371935L758.867521,1013.487189L761.998084,1012.225024L762.568626,1011.474321L761.780662,1009.486175L759.275953,1008.659149L756.467182,1008.170355L754.768261,1007.209264L754.501982,1006.629718L754.340224,1006.035733L754.269054,1005.429372L754.295827,1004.812695L754.251526,1003.208087L754.411604,1002.663589L754.438723,1002.133526L754.303643,1001.638524L753.989712,1001.186834L752.497785,999.939006L752.000037,997.664013L752.221133,995.168288L752.957898,993.260370L757.193334,990.915143L758.459487,989.836368L757.856282,989.018699L756.211640,986.789763L752.974300,979.807284L747.937169,972.952356L745.469826,968.756303L743.375421,964.343202L739.598127,953.359028L738.562992,951.452601L737.169411,949.855640L732.305697,945.881740L729.636120,943.145760L728.610128,941.552848L728.040403,939.675174L727.212380,937.673677L724.027419,934.504254L722.704670,932.824605L721.781577,930.047171L720.930922,920.901630L720.264080,913.893690L719.555628,910.633171L717.775712,908.482863L714.949742,907.888534L712.473637,908.689227L710.056301,909.882009L707.442050,910.484589L699.457165,910.711589L695.468724,909.824227L692.647474,908.808918L691.479755,907.979334L690.205141,906.117924L688.178356,901.697558L686.685351,900.050746L683.487301,897.458760L680.317682,894.078432L677.595847,890.227565L675.745502,886.203333L675.546183,884.989871L675.538191,880.841805L675.193129,877.993879L675.301987,876.673102L678.037160,870.217816L678.622838,867.266720L678.514752,864.340400L677.522033,861.125175L677.187670,859.577416L677.331547,858.017279L677.714689,856.358091L677.739298,854.975439L677.028824,851.809802L676.453008,845.230973L675.680559,842.292416L673.346407,839.704695L670.677999,838.276712L668.003684,837.583359L651.679939,838.284966L648.544685,837.104616L642.928981,832.478192L639.843650,830.505488L628.550144,825.916338L626.032546,823.407206L625.004983,820.118144L624.981004,810.610328L624.941348,800.768845L625.840412,794.740497L627.864466,789.723273L633.017625,783.208613L636.907929,779.990613L643.645332,772.003777L646.628739,765.065299L651.505061,759.174994L652.715763,756.819800L655.231382,741.419797L655.759950,739.968203L660.634379,733.580402L661.192171,732.848767L665.283661,729.313006L668.369458,724.911581L669.453181,724.031328L670.584035,723.643772L673.150466,723.219113L675.597733,722.126555L676.853414,721.771992L678.315042,721.974010L680.437620,722.635726L682.524725,723.672633L684.454261,725.070316L687.158920,727.779177L689.358148,729.403718L690.340967,730.401549L691.185581,732.026147L691.407347,734.982674L691.876295,736.533143L694.830529,741.615682L698.121757,745.601524L702.033133,748.104888L706.897804,748.768890L712.282203,747.463574L719.367736,743.454960L727.027125,739.116641L731.872030,737.285710L737.447909,735.980579L743.237499,735.448636L748.717732,735.922848L754.328278,735.436265L763.388880,732.384882L773.655965,728.919238L774.448697,728.162632L774.621626,726.948367L773.740038,717.199947L773.852437,715.728217L774.350614,714.130787L778.507483,706.750126L785.611927,699.609354L787.755722,696.726485L789.031769,693.275054L789.728709,689.461196L790.868858,673.458536L791.888511,670.144457L795.784724,663.766108L797.415809,662.425457L806.200929,657.172339L814.333327,652.304791L821.303732,648.133580L829.183870,643.411038L830.161784,642.595861L830.769940,641.414290L831.953072,635.906180L833.135936,632.895114L836.255616,627.034095L839.557112,616.515868L841.623001,609.895989L843.919820,602.481263L845.169832,590.770658L846.174397,581.106695L847.166865,571.393875L847.938413,570.202044L858.508065,564.618054L870.243092,561.762379L872.550500,560.262725L881.846576,550.645767L881.760119,549.390760L881.687642,548.341479L880.017909,544.862682L877.790607,541.466279L876.000916,539.400625L872.293545,537.556802L872.424614,537.240607L872.609853,535.992272L873.445405,534.817877L874.645395,534.095185L875.923091,534.230689L875.689851,533.705100L875.312871,532.580026L875.060255,532.062663L876.272190,532.456844L877.092938,532.304920L877.642649,531.750606L880.062510,526.844120L880.265696,525.797178L880.700792,525.164915L883.222032,524.393070L883.920880,523.383116L883.788012,521.457673L883.261463,519.959228L882.903126,518.600390L883.288444,517.093790L884.033103,515.874572L884.768141,514.979669L885.671446,514.257185L886.948813,513.522392L888.437152,513.198100L888.886259,512.775290L888.860140,511.646438L888.949754,511.006077L889.773126,510.238470L889.877143,508.633491L890.261098,508.001358L891.156114,507.012118L892.100132,504.894104L892.546196,504.327665L893.401546,503.551893L893.788188,502.969041L893.607212,502.406714L892.661973,500.830569L892.829954,500.502208L894.073695,500.083548L895.214663,499.012276L895.669854,497.600342L894.871463,496.163792L895.149428,495.334702L895.570958,494.624642L896.177851,494.132116L896.996248,493.947420L897.763067,494.013090L899.631118,494.538450L901.111653,494.649268L901.508478,494.021298L901.557677,492.904911L902.005763,491.534060L902.936247,490.434100L903.957253,489.859496L905.173475,489.646071L906.665076,489.613237L907.902884,489.141241L908.714967,488.045393L909.386351,486.781272L910.211096,485.812661L909.874365,484.170951L910.598556,482.767291L911.811553,481.663243L915.250463,479.504397L914.512711,478.761524L913.034528,477.620536L911.892107,477.004894L910.531804,476.963851L907.694343,477.505616L906.487925,477.013102L905.354789,475.888528L904.556278,474.895288L903.957534,473.762500L903.411388,472.227485L903.246001,470.618583L903.644606,467.462316L902.889193,463.903762L902.960083,462.077255L904.127533,455.243033L904.642214,453.867933L905.437379,452.472290L905.958924,451.195670L905.989051,449.709681L905.486443,448.207247L902.771367,445.054514L899.170874,437.529310L893.859760,430.565797L892.986738,429.666558L893.143273,429.399658L893.577867,428.126732L893.698417,428.011757L894.172226,427.765380L894.326885,427.584704L894.387751,427.231561L894.372343,426.282991L894.414682,425.909308L894.771279,425.166039L895.004944,424.903223L895.049011,424.537743L894.844506,423.490566L894.686337,421.745223L895.047869,420.463897L895.830046,419.387885L900.016152,415.412177L901.009180,415.005551L901.720162,414.331939L902.810632,410.667968L907.352805,411.563452L908.673038,411.255375L909.473579,409.189145L909.440723,406.416207L910.219064,404.690725L913.458288,405.783539L914.219494,404.415462L915.492125,404.177174L917.043041,404.341511L918.632306,404.152523L919.349712,403.700592L919.639256,403.137725L919.786556,402.468026L920.123950,401.687379L920.680552,401.354572L922.360956,401.477834L923.024241,401.432638L922.008630,399.185089L923.170961,398.922113L927.646507,400.504052L928.203392,400.541031L928.725154,400.269847L929.288345,399.538461L929.805882,399.279596L931.446914,399.719254L932.328338,399.809651L931.845722,397.989353L933.024284,396.485379L934.842918,395.416944L936.295128,394.874494L937.160996,394.714223L939.300730,394.874494L939.332151,394.007379L939.407306,391.294931L939.649465,389.955064L941.231826,387.468353L941.574352,385.904296L940.750735,384.097620L938.489681,381.863276L936.212032,380.275819L930.759087,376.475075L928.164310,375.113987L923.191132,373.964618L920.601486,372.564338L917.618538,370.479206L915.328181,369.625776L913.169417,369.856102L910.600679,371.017983L907.885847,371.303819L902.725477,368.940956L900.165664,369.115762L897.942394,369.911627L895.390143,370.059692L892.805812,369.220645L890.516950,367.069435L887.230840,361.513710L886.664996,359.927602L886.824062,358.481295L887.246956,357.098684L887.474267,355.740684L887.191257,354.154195L885.965229,350.917091L885.533743,349.171787L885.609176,347.403704L886.530207,344.058574L886.589420,342.345668L885.918245,340.560558L884.837839,339.815173L883.677653,340.066383L882.777889,341.289444L882.493442,342.837731L882.528133,344.210917L882.272192,345.406980L881.118342,346.405365L879.900576,346.829407L876.495110,347.407821L875.138082,347.350186L873.898321,346.751187L871.483414,344.754403L870.232206,344.165626L868.934719,344.274736L867.063469,345.616954L865.887887,345.954554L864.385521,345.686944L863.081223,344.927328L861.938997,343.760060L860.934260,342.259195L861.348282,341.315771L861.394338,341.210799L861.655192,340.616152L862.036563,339.123301L861.844847,337.459418L860.079840,333.373274L858.975093,329.335742L857.842458,327.561849L855.745975,326.403890L849.265039,325.344770L846.452303,323.902294L841.542904,318.745565L838.840340,316.529501L836.004655,314.810061L833.754297,312.931682L832.251055,310.463300L831.651610,306.954997L831.986245,305.550238L832.890076,304.805524L835.164575,303.804956L836.085154,302.985890L836.737123,302.024416L837.197075,300.893686L837.518891,299.558581L838.207541,293.742273L838.204855,287.651243L836.076463,283.243560L831.825590,280.371886L827.009369,278.055551L823.186016,275.325486L822.366827,274.230010L821.735957,273.055898L821.288900,271.813467L820.883694,269.470954L820.843696,268.432930L820.908525,267.429985L821.082617,266.480740L822.409590,262.354185L823.614750,260.901840L830.502774,259.650050L832.599481,258.584387L834.536534,256.912263L835.902173,255.103321L836.875719,252.784864L836.909878,250.205102L835.446210,247.620686L833.000104,246.137727L830.600605,246.220579L828.227347,246.841947L825.865778,246.968288L822.017745,245.700677L820.645814,245.613680L816.375234,246.802595L814.214193,246.386280L811.893157,244.930107L809.883042,242.817014L808.686541,240.419676L808.689759,237.970063L809.864303,236.324282L813.344320,234.213878L814.302857,233.019618L814.100947,231.385613L813.163210,229.643538L811.870583,228.114866L809.418425,224.129440L807.978609,222.761927L805.910995,222.554400L804.066327,222.755701L802.291150,222.504593L800.525873,221.867459L798.630591,220.891974L796.822860,219.339331L795.830169,217.400311L795.671489,215.382054L796.327597,213.575285L796.900527,213.043584L798.332766,212.140049L798.761264,211.496107L798.869568,210.525969L798.228653,207.494525L798.225619,207.482057L798.853637,205.653231L801.491471,203.408347L802.096213,201.799230L801.503308,199.511962L800.464565,197.428047L800.130571,195.555921L801.678235,193.928985L802.478775,193.492042L812.583636,191.665006L814.091305,190.778426L818.165103,187.081450L822.006354,185.378233L826.108044,185.011735L830.491914,185.732226L848.821856,191.868950L873.463791,196.587711L879.587617,196.271528L883.698426,195.327083L886.140754,195.360369L887.042061,195.871216L887.043624,195.872102L887.997976,196.412980L889.337490,197.927225L890.706238,199.116840L893.819616,201.071516L896.893196,202.422947L915.613578,207.157878L918.565499,207.270095L922.200192,206.341154L923.608433,206.332841L926.518735,206.719390L927.681408,206.388954L928.760303,205.283272L931.604323,201.283597L935.129811,198.010419L936.782540,197.444687L937.191177,197.182609L937.801141,196.080150L938.593921,193.737565L939.408596,192.767924L941.605456,192.264342L946.283986,194.078790L948.475252,194.016372L955.130413,192.164455L962.952439,186.839935L965.247114,185.861326L967.901514,186.273602L971.333622,188.422172L972.492544,188.817693L973.654708,188.846836L979.087719,187.614428L979.834061,187.143910L984.417451,181.316861L984.650228,179.779366L983.295351,175.444787L983.355489,173.585346L984.650829,172.313554L986.774976,171.517038L989.083989,171.308515L991.005838,171.813133L993.045882,172.939046L994.105761,173.135025L994.781539,172.476186L995.686026,171.049941L998.856136,167.833876L999.532576,166.461909L999.325104,163.949714L998.208431,161.720757L997.442740,159.762710L998.292813,158.091773L998.655894,157.814729L984.033642,136.148957L969.378155,114.445665L968.433871,114.367476L967.073802,113.722106L966.000027,112.783339L963.836786,110.557740L961.275320,108.956463L956.011913,107.178949L953.464254,105.916970L951.468642,103.258549L950.674441,96.648560L949.334166,94.018196L948.024251,93.640603L946.235630,96.157753L944.801985,96.665340L943.320426,96.703094L942.620245,96.824745L941.961196,97.051265L941.456697,97.554634L941.027149,98.972386L940.672136,99.446345L939.472325,99.672835L938.245243,99.454734L937.079826,99.446345L935.089311,101.178500L934.072971,101.191082L932.911617,100.805241L931.501742,100.515855L930.011317,100.704585L927.099109,101.555946L925.498947,101.455295L923.219783,99.798661L921.785473,96.921226L920.641680,93.560889L919.227357,90.451773L916.821248,87.501685L914.647295,86.406318L909.460656,86.078957L907.141955,85.134621L904.593247,83.153491L902.439984,80.567707L901.342728,77.813727L901.468726,76.495410L902.117511,75.659884L904.844221,73.552064L905.219025,73.132162L905.388259,72.502297L905.207699,71.607866L904.277724,70.150685L904.111497,69.285583L904.712952,68.223072L905.771394,67.677105L906.441298,67.005132L905.897389,65.564547L904.935243,64.480920L902.727840,62.405978L901.893905,61.187841L901.023983,57.949101L900.556486,51.496135L899.613518,49.524135L898.979106,48.197836L898.944979,48.126500L888.828563,35.373435L886.629564,33.318518L881.786127,29.813767L876.940844,26.939342L871.062236,24.430519L865.558353,23.396734L861.850468,24.951614L861.658093,25.737460L861.684667,26.577937L861.419049,27.141056L857.369602,26.960354L855.429964,24.976828L854.146795,21.930108L853.124611,18.589255L851.832583,15.466978L850.088538,13.025518L847.862574,11.277449L845.087048,10.222741L836.850778,8.586078L834.283344,7.340219L831.964212,5.674205L830.882091,5.142686L829.607095,4.907390L824.172813,5.691012L821.698962,5.707819L819.583318,6.300269L818.572523,6.798182L817.800001,7.474678L817.434265,8.502039L817.483198,10.855144L817.281215,11.630422L816.489848,11.983396L815.917173,11.214419L814.871309,8.747852L814.105029,7.764607L811.449193,4.907390L811.435577,4.907390L808.888531,3.197320L804.026994,3.092280L801.828316,1.512507L800.545432,0.226873L799.463809,0.000000L797.322596,0.953715L793.372185,2.016686L792.265970,2.667922L792.729400,3.155304L792.997999,3.703614L793.080879,4.296045L792.987152,4.915793L793.225097,7.499889L792.250601,7.804525L790.655922,6.672128L788.998567,4.919995L788.717004,4.680498L788.419941,4.485120L787.016878,4.073357L785.632747,4.167894L783.094597,4.915793L781.758219,6.319177L777.172457,9.777330L774.640268,12.384696L773.210942,12.956183L768.738195,12.422515L767.732397,12.689348L766.976138,13.412114L766.844791,14.542495L767.258926,17.332773L766.840752,18.152217L763.284705,19.425514L761.373562,19.412907L759.224022,18.673301L757.132797,18.181633L750.847384,14.790424L748.584354,13.954191L744.356747,13.210411L740.287966,13.037529L740.254170,13.036093L740.240401,13.035508L740.130719,13.030847L735.505579,12.834321L727.270947,14.294567L725.043142,13.954191L722.922832,13.660040L718.716871,14.248343L715.495955,14.017224L712.504641,15.164419L711.588379,15.282081L710.582524,15.160217L708.521311,14.647550L706.380020,14.429036L696.806235,15.466978L695.838075,15.857784L694.538609,16.941962L693.857750,17.311761L692.940748,17.269739L690.690419,16.446097L689.157651,16.841108L687.781986,17.685764L685.998671,18.219453L680.249273,18.513614L674.535998,17.706775L670.247869,18.013541L666.261750,19.017890L663.484217,20.644189L660.244126,24.111138L658.955339,24.480947L655.886559,24.287638L653.400845,25.174340L650.528796,25.350840L645.039059,26.674591L642.454893,27.901687L641.576263,28.653913L641.588301,29.691899L642.975748,31.259377L643.779268,32.595720L642.795696,33.259686L639.099056,33.793378L637.571717,34.331272L636.900920,34.751500L636.502834,35.440671L636.789188,36.113030L637.236616,36.802195L637.334239,37.537581L636.525583,38.546102L633.982506,39.197434L632.804808,39.962219L632.016670,41.054758L629.337121,42.844814L628.619354,43.596962L628.032838,44.437343L627.363022,45.164265L626.399083,45.563439L622.190645,45.840758L621.051352,46.710526L621.785689,49.281945L623.458279,51.487733L623.928499,52.601097L623.375615,53.500174L622.433785,53.882487L621.397270,53.941304L620.330148,53.550589L617.865152,51.475128L613.425903,48.929012L611.957261,48.378599L610.754696,48.508850L610.288893,49.210518L610.124696,51.718810L609.899419,53.029631L609.583152,53.895091L608.331125,55.525139L608.312463,56.764443L609.314050,58.016315L609.955413,59.083319L608.845349,59.780638L607.323266,60.112490L606.193326,60.566158L605.270883,61.305456L601.621464,66.925335L600.537046,67.966889L596.714185,69.428369L596.504380,69.961708L596.603713,71.691851L596.334546,72.456106L595.821527,72.897014L594.048628,73.854390L591.869978,75.538121L591.661347,76.134331L591.750923,77.859909L591.603144,78.607205L589.998429,80.756612L589.680915,82.011749L590.242064,83.222547L590.385122,83.531261L591.272419,84.194444L593.972808,85.503966L595.076590,86.213260L597.211949,88.034660L599.170947,88.773250L601.138713,89.184500L603.262054,90.006977L604.526293,91.160910L605.461642,93.821010L606.467085,95.050246L609.992867,97.185498L611.241109,98.414526L614.423241,102.390493L615.147348,103.589825L615.420245,104.399119L615.522735,105.099359L615.708643,105.833114L616.225961,106.747120L616.746321,107.308915L617.913346,108.080306L618.460855,108.528870L619.643555,109.954135L620.288331,111.391852L620.264236,112.867160L619.440259,114.405191L619.000188,116.031066L619.958447,117.409572L621.548785,118.486313L625.634221,120.275122L626.913975,121.087764L627.822542,122.289889L628.158743,123.843707L628.062249,125.309416L628.147166,126.846151L628.987820,128.646465L629.492066,129.190637L630.147703,129.898171L631.265237,130.890242L632.093827,131.991060L632.372945,133.568876L632.009267,134.757342L629.456008,137.581592L628.057569,140.225343L628.468204,142.412694L630.154022,144.457481L634.847915,148.683900L637.265869,150.322205L637.808548,151.408703L637.613035,152.992289L636.565894,155.573997L632.742085,158.773106L631.526420,160.919214L632.277074,164.458882L632.835479,165.272661L632.907144,166.032127L632.596790,166.687224L631.999715,167.203888L632.000712,167.208060L631.993845,167.208060L631.995838,167.216405L631.670353,168.067504L631.540518,169.940497L631.270612,170.795531L630.767171,171.362732L629.883683,171.759601L622.660276,175.002889L620.735857,176.820385L620.084211,179.300153L619.724974,182.045944L617.413947,187.048138L616.725054,187.943362L614.476227,189.292299L610.697736,193.109181L610.224679,194.049662L610.421595,195.281315L611.342708,197.078608L611.975393,198.746659L612.216355,200.709719L611.879698,202.323155L610.800717,202.913579L608.002512,202.493633L606.598827,202.506107L606.451923,202.580961L605.578776,203.025839L605.135376,204.451859L605.459814,206.220615L606.252651,208.022334L607.244626,209.528738L609.105707,211.604126L611.528747,213.905509L614.062862,215.886651L619.416938,218.535944L620.167187,220.512135L619.520485,226.115059L619.844985,227.569308L621.141248,230.375655L621.713736,231.995280L622.067361,233.919470L621.896718,234.995475L620.530397,237.126472L620.160162,238.726552L620.536533,240.040453L621.059158,241.316919L621.096734,242.821158L620.264588,243.813527L617.155873,244.499231L615.893667,244.973608L615.383183,246.063161L614.766889,246.783954L613.887643,247.096700L612.629411,246.991071L610.702120,246.419420L610.079835,246.605831L610.026208,247.631042L609.383677,249.993895L604.860393,250.892536L595.823835,250.797292L587.165015,252.083037L585.114429,252.010575L579.338070,250.824209L573.897530,250.594377L572.596962,250.242374L570.043274,249.080696L566.175902,248.718298L550.617803,243.660222L548.332154,243.504844L544.917792,244.053838L543.272410,244.669097L542.417081,245.789746L542.561323,247.063561L543.061674,248.266839L543.206538,249.453438L542.296038,250.668917L541.684268,251.834594L542.360406,253.025009L544.757271,254.979128L545.591040,256.028520L547.167581,259.068602L548.041172,260.341135L550.154828,262.676907L551.011360,263.874638L551.839462,265.436289L552.873625,266.979153L554.026107,267.607832L555.665965,267.827896L556.722848,267.969723L560.659262,269.514376L563.389094,269.011917L564.249485,269.874150L565.525303,273.039360L566.205384,274.281685L566.587889,274.693014L567.310707,275.205608L568.534723,275.736785L569.131337,276.102604L569.508349,276.627549L569.902970,278.565961L569.669363,283.613326L569.897437,285.123281L570.483949,286.662000L571.392464,288.097311L572.590769,289.315672L573.195228,289.670837L575.196626,290.279968L575.765015,290.705313L576.546310,291.989537L577.022888,292.575869L581.434905,296.549553L583.050144,299.032351L583.158422,301.655080L573.937914,311.228391L572.800924,311.964579L571.322802,311.847039L569.605968,311.306754L568.887942,311.624328L567.586962,315.878030L567.232954,316.593410L566.498913,316.950059L564.522501,316.785135L563.888505,316.921197L559.552141,319.988505L556.771631,320.194623L551.803664,317.951936L549.298876,318.388952L546.653967,320.664563L545.498906,320.965484L544.872236,320.852124L544.238037,320.577996L543.560092,320.388372L541.485106,320.800596L540.100364,320.763496L537.484775,321.124186L535.572954,322.585423L534.294594,324.844037L533.947648,326.201581L533.599685,327.561849L536.730359,336.205240L536.567342,338.519953L536.255532,338.886494L534.806744,340.206401L533.662718,342.506258L531.760539,344.217093L531.264603,345.289642L531.718062,346.847933L532.199119,347.473689L532.793063,347.996511L533.462986,348.389649L534.089737,348.630468L534.628703,348.978313L534.931661,349.581369L535.356961,350.978833L536.595514,353.615052L536.597540,354.592497L536.121957,356.154265L533.729751,361.489024L532.755929,362.478491L530.185020,363.455576L529.019766,364.329778L527.528361,366.896673L526.914377,369.911627L527.287022,373.203829L528.719512,376.627216L531.397621,381.075974L531.997147,382.749222L532.285884,384.479929L532.533957,387.881448L533.209941,391.245612L533.401683,394.607376L533.706033,396.325116L536.594944,403.852606L539.972660,409.899809L540.364147,410.930865L540.213290,411.380639L540.117511,411.666144L537.403079,414.101923L535.989346,416.098093L530.991398,427.555959L530.256186,428.648225L529.361166,429.301110L528.770128,430.725934L527.051922,432.692708L524.982489,434.441811L523.337283,435.205488L520.861344,435.033046L518.724931,435.776187L514.904298,437.985033L512.297065,438.297057L510.251282,437.024317L506.229990,432.499729L504.082418,430.454932L503.337291,429.288791L502.480584,426.077671L501.836943,425.104442L500.896912,424.619874L496.966298,423.921759L492.579801,421.671302L490.139941,420.784232L488.640432,420.808873L487.165690,421.363293L484.572040,422.923850L483.476234,423.958719L483.868766,424.743069L485.142637,425.264595L486.661215,425.502770L490.666508,425.408321L492.003136,425.589005L492.767373,426.303523L492.097384,427.297262L490.819865,428.176007L489.741871,428.549675L487.165371,428.134945L479.592361,425.589005L476.890273,425.375469L474.253963,425.502770L472.735374,425.281021L471.731218,424.443293L470.822663,423.392007L468.823272,421.983415L467.172577,421.162060L465.324736,420.550141L463.961851,420.648706L463.312824,421.695942L462.573310,425.092122L462.313856,425.857850L462.109901,426.459566L460.306545,428.525038L460.120637,429.239517L460.237098,430.918919L459.967322,431.477340L456.834679,433.460513L455.893227,434.380224L455.353128,435.464151L454.702959,435.862408L452.006649,436.010213L449.893789,435.669438L448.983279,435.706390L447.288232,436.634279L444.089288,441.347432L442.189581,442.918869L440.942443,443.950208L439.064734,444.791781L437.030601,445.005252L432.463271,444.024103L430.351325,444.073366L429.764022,445.477348L430.489899,446.663736L431.716381,447.866527L432.865616,449.241712L433.877335,452.349144L435.085348,453.531338L436.596458,454.381032L438.001197,454.762776L443.451659,454.011601L446.039026,454.812033L447.014038,458.140952L446.611324,459.626828L445.675798,460.107065L442.933676,460.004451L441.904647,460.328713L441.106825,461.014177L440.391238,461.835087L436.643971,464.626150L435.489429,465.094059L432.023125,465.775398L429.750184,466.863072L425.852921,467.408959L421.576989,469.424214L420.382961,469.658163L415.991102,469.260039L412.528659,469.432423L411.388844,469.301083L409.906387,468.804453L407.179054,467.421272L405.755227,467.010831L404.426742,467.072397L401.967466,467.729102L400.597806,467.704476L398.996869,467.421272L398.107829,467.146276L397.514690,466.727626L397.297064,466.091439L397.475275,465.611220L397.752811,465.122790L397.797235,464.474284L397.313561,462.705247L396.622315,461.605233L395.526254,461.071641L391.582659,461.161941L389.208192,461.892551L385.105604,464.158240L383.436410,465.927262L382.219033,467.749624L380.742656,469.099968L378.234908,469.457049L376.820064,470.606270L376.256314,479.557753L375.316324,481.380048L370.242660,487.987933L368.853604,488.673351L360.094189,490.557230L359.069971,491.185192L358.664735,492.285154L356.817298,517.820403L357.252966,521.281142L358.984335,524.434126L361.014329,526.581357L361.718793,527.599571L362.399011,529.225462L362.862489,530.851396L363.515436,541.347183L364.545643,546.156419L364.525769,547.680200L361.801884,556.741852L361.355103,559.753267L361.417567,561.014599L362.011411,562.082861L364.695755,563.775709L367.997086,566.667885L370.375165,568.311637L371.062901,569.067788L370.875836,569.429431L370.344667,569.626692L369.981672,569.865051L369.021009,572.318598L367.656195,574.747650L362.973510,578.710106L357.514390,580.436621L353.790049,581.612342L350.065885,582.792211L346.332728,583.963895L342.621101,585.141782L338.894211,586.315595L335.167855,587.495611L331.443373,588.669497L327.708567,589.847531L323.983355,591.023545L320.254813,592.203707L316.532013,593.379793L312.801670,594.555915L309.084430,595.730016L305.346002,596.906208L301.614387,598.084493L297.881171,599.256643L288.558037,602.197453L285.167568,602.086397L273.543991,599.990797L264.289428,599.916764L251.778223,599.806409L250.300565,599.793376L232.957754,605.395572L230.786646,606.644038L229.584151,608.700903L227.946726,613.650142L226.226062,614.421585L217.921795,611.000600L205.035562,608.532236L189.684749,605.595077L179.506692,606.590561L176.229872,606.911425L172.959959,607.232291L169.686450,607.553160L166.420528,607.878145L163.153831,608.199018L159.879355,608.515781L156.612468,608.836660L153.346163,609.161655L150.072080,609.482539L146.804568,609.801368L143.530633,610.124314L140.262594,610.441091L136.992308,610.766099L133.721251,611.086996L130.453602,611.407895L127.182356,611.728796L125.263233,611.916519L116.919425,612.732657L109.714704,611.374982L102.929484,609.256274L96.991332,607.390668L91.044728,605.535431L85.093665,603.672052L79.160490,601.808760L73.215035,599.953780L67.268292,598.088605L61.322273,596.225575L55.384983,594.370858L49.447415,592.512118L43.501900,590.645243L37.565789,588.790794L31.622071,586.930268L25.686419,585.073945L19.750498,583.213602L13.800314,581.349240L7.865533,579.491139L2.772191,577.900316L0.467424,576.893242L7.008613,583.511661L11.293151,587.836877L16.594307,593.262594L22.704284,599.505472L29.049601,606.008488L35.715851,612.827285L37.217477,613.940203L38.738814,614.518273L40.069571,615.394652L41.014453,617.410804L41.135914,618.966187L40.773382,621.756142L41.020728,623.315798L41.922628,624.939299L44.467663,627.381866L45.553346,628.752397L45.904644,629.645528L46.400437,631.633530L46.893929,632.541126L47.747882,633.378764L48.401089,633.609272L49.037984,633.691597L49.836945,634.090872L50.709120,635.222859L51.279911,636.579221L51.980114,637.733911L53.224186,638.244371L53.968585,638.787770L54.272783,639.475262L54.154994,640.199815L53.638305,640.885269L53.228019,641.399881L53.115039,641.887738L53.342110,642.352957L53.933440,642.770834L54.874451,643.182540L55.728752,643.802164L56.453581,644.625597L60.381124,651.417401L61.014292,652.963653L61.383419,654.301992L61.919119,655.494175L64.226026,657.748899L66.847812,662.135090L69.204848,664.631062L77.220100,671.196948L80.621662,674.974553L85.564779,679.104678L88.105223,681.669425L89.470117,682.376038L93.715991,683.552373L97.252605,685.488950L99.412346,686.156466L103.989182,686.552035L106.233821,687.038258L112.287491,689.654871L121.552120,691.533959L123.593621,692.551824L124.529974,693.509951L125.275925,694.579363L126.118849,695.547825L127.320397,696.194849L128.509335,696.574000L129.290140,697.041760L129.883675,697.849531L130.536927,699.236366L131.789061,700.959135L136.812216,705.775307L138.322463,706.675932L149.099141,704.338866L150.754132,705.286872L151.506884,708.075327L151.744315,716.272382L152.011924,725.346558L154.091439,730.863360L157.002508,738.533130L158.115920,743.277629L159.626969,749.725721L160.552679,753.732568L162.275625,761.093015L163.242248,765.250924L163.304570,768.571604L160.924620,776.974853L162.504379,778.666308L162.965910,779.532674L163.023231,780.828109L162.868385,781.970910L162.582523,782.862055L161.984908,783.394270L160.913004,783.464407L164.250414,786.203910L165.358817,786.789776L165.895702,786.773272L166.752621,786.203910L167.219071,786.113142L167.795712,786.302929L169.527091,787.231240L171.749944,787.722216L173.588018,787.610818L177.443654,786.789776L179.171886,786.500968L182.581967,785.349871L184.379879,785.254978L185.535776,785.378752L186.409178,785.349871L189.961381,784.112145L190.655025,784.132774L191.549600,784.450455L193.556779,786.146148L194.403193,786.645372L196.178849,787.284876L196.857858,787.697460L197.701870,788.526760L198.891062,790.024466L201.976128,795.400672L200.733921,794.917919L199.244493,794.930297L197.990627,795.536834L197.424444,796.820061L197.284103,797.624663L196.710752,798.709852L196.534338,799.510339L196.567953,800.451123L198.176158,809.467281L198.998073,810.961085L200.032630,812.260953L200.783135,813.548451L200.767375,815.009279L199.879497,815.983171L197.171369,816.449485L196.131158,817.064362L195.807827,818.323009L196.858812,829.919458L196.574375,833.109625L195.256653,834.682026L194.563859,834.649010L193.991561,834.360116L193.447416,833.992810L192.819202,833.708044L192.157791,833.646139L190.230506,834.112494L187.523164,834.034080L184.803472,833.604868L178.604768,833.443914L173.235406,833.307722L168.566623,833.183912L167.856141,833.410898L167.432042,834.137256L166.910734,835.503310L166.501453,835.870619L166.032143,836.159514L165.473830,836.390630L163.430800,836.894134L162.842232,836.848736L162.026913,836.456664L161.271546,836.299835L160.736739,836.679526L160.276686,837.273826L159.771114,837.740188L158.442018,838.251949L147.181728,839.523101L146.558679,839.721203L146.080623,840.158679L145.661910,841.198719L145.317235,841.578417L144.637040,841.772394L143.187211,841.702232L142.554020,841.772394L142.024385,842.036532L141.232016,842.713388L140.718734,843.047689L139.458348,843.604858L138.917376,843.996941L138.566787,844.599511L138.532961,845.301135L138.807409,845.825291L139.128460,846.275158L139.257779,846.770424L138.736043,848.161302L136.881822,850.373510L136.525359,851.364056L137.141542,853.196571L138.002683,854.665891L138.212120,855.800903L136.837156,856.626368L134.223464,856.250781L131.037290,855.119895L128.418818,854.760819L127.514890,856.700660L127.524955,858.665272L127.010672,859.486614L124.246380,859.986024L122.903216,860.440033L121.717600,861.100411L119.485383,862.813269L111.558697,865.273189L110.080892,866.631101L109.362207,868.781477L109.101765,871.257924L109.096338,876.115899L109.101093,880.412553L109.082766,885.381976L109.060437,892.027115L109.039881,897.603218L108.834192,899.010651L107.961091,900.343788L106.808796,900.632703L105.481882,900.599684L104.077601,900.967018L102.896279,903.067835L103.601086,906.006486L104.749924,909.167991L104.892487,911.925000L104.537716,912.548213L103.662569,913.600657L103.353705,914.368320L103.261266,915.515683L103.549978,920.179382L103.972995,927.017955L104.453117,934.966465L104.850509,941.697283L103.467431,948.353703L103.464033,948.356629L105.141200,948.483350L105.907301,948.171420L106.592395,948.210411L107.723619,948.483350L109.949406,948.392370L110.741088,948.483350L111.343241,948.762787L111.734651,949.146199L112.192381,949.477623L113.012958,949.623839L113.429451,949.796048L114.419553,950.523877L114.793524,950.666843L115.155236,950.471889L115.675365,949.779802L115.857614,949.623839L116.305269,949.448379L116.681729,949.237178L116.950961,949.484121L117.136250,950.666843L116.991572,951.514887L116.236751,952.863302L116.136813,953.714584L116.181803,954.754311L116.059970,955.280670L115.444766,956.164430L114.392869,957.178148L114.205536,957.860453L114.835126,958.942389L114.243101,959.790387L114.054094,961.504628L114.851234,962.754528L116.664963,963.418474L119.066305,963.075499L120.658677,962.403419L121.940116,961.427885L122.776063,961.466873L123.195763,959.156826L123.728570,958.471277L123.888653,957.795472L124.477956,956.268401L127.732794,955.745425L131.833394,955.864348L135.084517,956.265997L137.828513,956.449248L139.250669,955.940241L138.576040,955.038060L137.728674,954.296119L137.186479,952.470151L136.114646,951.587329L136.578064,950.269244L137.218054,948.751216L138.696160,948.112933L141.480579,947.053666L144.659363,946.920299L147.046189,947.401556L149.014037,947.563014L150.567154,948.532575L152.236688,949.711035L152.856389,951.165101L154.066010,953.168724L153.981832,954.097984L153.521489,954.260442L152.901648,954.208455L152.354696,954.533370L152.171944,954.731567L151.931849,954.916768L151.712591,955.183197L150.222708,956.618620L152.628403,957.306224L156.064516,957.515182L158.896803,957.501377L159.187929,956.383281L158.161797,955.838748L156.664047,955.484585L155.668339,954.533370L155.323437,953.327933L155.648265,952.080248L156.312363,950.965771L156.981022,950.169711L158.183235,949.126704L160.005714,948.002458L162.026017,947.411088L163.818767,947.986211L165.113550,947.391593L163.528653,946.644255L163.217968,945.549236L163.840768,943.807301L167.238192,943.398118L172.530131,943.253631L183.915174,943.580135L196.025455,946.306327L201.953560,946.897700L203.500322,946.592266L207.459877,944.122777L209.522254,943.658119L211.909489,943.888824L216.572332,945.214555L219.989115,946.702742L221.161878,946.897700L225.807890,946.306327L228.202081,946.728737L232.380047,948.600324L234.607806,949.029226L235.008235,948.883009L235.313080,948.502846L235.499590,947.976464L235.600802,947.391593L235.591219,946.858709L235.436231,946.641005L235.070892,946.390809L232.668066,943.719857L232.021869,942.683309L231.545480,941.396551L232.670208,941.789728L233.325436,941.224333L234.086360,939.212941L235.667594,936.987063L236.700105,936.051212L237.856297,935.349321L239.964876,934.595435L244.344850,933.861043L248.977594,933.724563L253.680215,934.549942L260.980509,937.247021L263.613757,937.750689L265.274893,936.987063L266.523770,937.477733L267.737984,937.422492L270.226170,936.987063L271.440874,936.980564L271.903329,936.844086L272.597251,935.349321L271.028439,932.619721L269.973703,931.235410L269.039988,931.258157L268.238473,932.333761L267.624097,932.769200L267.063499,932.389003L266.396672,930.985194L266.036229,931.222412L265.060361,931.531120L265.825408,930.520505L269.399286,928.531755L270.244214,929.220670L271.940692,929.058191L274.972696,928.258788L275.890995,928.291284L276.601911,928.447265L276.959201,928.804722L276.807369,929.987573L276.154447,930.247540L274.504725,929.896585L273.735426,929.896585L272.897241,930.013570L272.262286,930.416518L272.083856,931.258157L272.478883,932.272019L273.156495,932.873185L273.854617,933.282627L274.265676,933.714815L274.218693,935.118606L273.784801,936.551633L273.908245,937.672701L280.208008,939.047220L284.388497,939.212941L284.996088,939.612622L286.017423,940.645938L286.678699,940.850651L289.671943,941.152846L292.675435,941.893709L294.307538,942.816533L296.987694,945.256797L298.545119,945.760442L299.130536,945.669461L300.422861,945.299038L301.282346,945.214555L302.048849,944.876625L302.835197,943.180463L303.557222,942.488346L304.837000,942.465601L306.833825,942.914015L308.813838,943.628875L310.114404,944.395722L311.517517,946.251089L311.635220,947.596298L310.193613,950.666843L311.214372,950.666843L313.020124,951.193216L314.015913,951.261449L317.126918,950.218449L317.661899,950.169711L317.477231,949.269671L316.531947,948.756288L315.361508,948.405368L314.539523,947.986211L314.074392,947.164142L313.915210,946.202349L314.056576,944.122777L314.519804,942.390865L315.504592,940.730423L316.880321,939.388411L318.556456,938.618293L322.821592,938.260854L325.033811,938.514311L326.627572,939.212941L328.466112,938.273851L330.603708,938.377834L334.818885,939.212941L339.023276,939.212941L340.198518,939.378663L342.396827,940.093537L344.379560,940.382735L346.180673,940.866898L346.992767,940.850651L347.979082,940.580950L348.622557,940.246260L349.083304,939.658114L350.293253,936.717357L351.510655,934.894390L353.295603,934.114506L355.683384,935.349321L356.995118,934.400464L358.480953,933.724563L360.250412,933.305374L362.463003,933.168893L362.050958,934.436209L361.786763,934.855396L363.092508,935.212842L364.550853,934.757911L366.051651,934.069013L367.494872,933.714815L368.912425,933.900038L378.984327,936.792095L380.542629,936.987063L381.850831,936.753101L385.220268,934.855396L387.960064,934.309477L390.168534,932.886183L391.724663,932.372755L393.925070,931.150921L395.486893,930.985194L398.440903,931.066433L403.817961,930.185798L408.055332,928.859965L414.224651,928.804722L416.068478,928.323780L418.168076,927.368394L420.297883,926.731467L422.195077,927.173416L424.390346,926.568986L427.757923,927.342397L433.398477,929.896585L435.575198,931.625358L436.950350,932.509236L437.963883,932.671714L438.703459,931.417386L437.597174,930.117557L434.589218,928.258788L436.678629,926.081540L435.429491,925.100148L434.057615,924.882421L432.808794,925.262630L431.951859,926.081540L431.077019,925.275629L429.834468,923.537061L429.147627,922.805884L428.303669,922.406173L427.349461,922.142948L426.553526,921.726987L426.140593,920.875566L425.251648,920.303618L423.388968,920.251623L421.363659,920.573344L419.997953,921.122544L419.957435,921.493009L420.131982,922.058456L420.234068,922.581656L420.012669,922.805884L419.643506,922.838380L419.344171,922.935871L419.119382,923.091855L418.935269,923.303084L418.091480,924.606200L417.451878,925.256131L416.624447,925.535601L411.322114,926.549488L409.497199,926.575485L409.777095,925.815070L410.325044,924.931166L410.998717,924.199993L411.694940,923.897774L412.033721,923.462318L412.922036,920.628589L413.526438,919.289706L414.477737,918.048310L415.760071,917.122134L418.141286,916.585925L418.681795,916.205704L419.031095,915.812483L419.273245,915.620747L420.124104,915.649995L421.605158,916.104961L422.438899,916.215453L424.819961,915.932724L426.128850,915.422512L427.163989,914.528825L427.193485,916.267449L428.351107,917.183879L430.042642,917.333367L431.672218,916.761412L432.317733,917.976816L434.980538,920.628589L435.442584,921.512508L435.826051,922.519912L436.334751,923.124352L437.184606,922.805884L437.331974,923.163348L437.603656,923.533811L437.796438,923.897774L438.947888,923.117853L439.950702,925.191138L440.925813,927.992320L442.047002,929.402648L443.751640,930.458763L444.308020,932.583976L443.704615,934.198994L441.890901,933.714815L441.695469,935.297329L442.741991,936.571130L445.307822,938.124376L449.430279,941.880711L450.278447,942.488346L451.344318,943.011496L454.127676,945.390019L454.712615,946.033385L455.171694,947.518315L456.571664,950.033243L456.848911,951.758578L456.624584,953.055003L455.571406,954.851785L455.114215,956.164430L454.973348,957.685004L455.407291,962.461059L455.102631,968.575750L455.487372,971.636090L457.189439,972.568473L457.257884,973.114255L455.501876,974.111601L454.320059,975.774911L454.336097,977.334246L456.174763,978.022947L456.958332,977.860518L458.577247,977.145828L462.154284,976.691023L462.825404,976.388901L464.508496,977.305009L466.165098,976.937917L467.898303,976.291443L469.853007,976.388901L471.428294,977.334246L472.849808,978.523227L474.289794,979.458812L475.956190,979.660222L475.543659,979.039749L475.305764,978.432267L475.113126,976.983397L475.621086,976.983397L476.266760,977.815038L477.358652,978.688904L478.662192,979.380847L479.925270,979.660222L483.005198,981.924437L484.369875,982.525407L483.550970,980.797207L483.989775,980.199479L485.335955,980.696503L486.093852,980.641278L486.796176,980.365154L487.997991,980.199479L488.619147,980.478852L489.237241,981.135052L489.724072,981.947177L490.326813,983.642878L490.948534,983.837785L493.391065,983.279051L494.105959,982.879490L494.704332,982.798278L495.649127,983.522685L496.500175,984.614161L496.397374,985.221616L494.588108,986.293588L493.058546,987.596186L491.601080,989.347041L490.583361,991.406461L490.350116,993.628263L490.714193,995.174410L491.284399,995.450506L492.125525,995.161417L493.325346,995.018497L494.637174,995.330323L495.724165,995.856528L497.861588,997.201266L496.829391,997.707976L495.571194,997.831405L494.268994,997.643014L493.125481,997.201266L493.376785,998.334865L493.756407,999.513928L494.302243,1000.637764L495.074987,1001.608934L496.654520,1001.826553L497.005146,1002.407952L495.805010,1003.736391L497.354049,1005.301921L498.663811,1006.968120L499.574928,1008.803192L499.960658,1010.868840L500.901175,1010.242004L501.323831,1009.813285L501.672765,1009.238410L501.210545,1012.785062L501.328345,1014.860400L502.216050,1015.776268L505.127283,1015.776268L506.342928,1016.078309L507.807618,1016.867509L505.995477,1016.669397L503.934618,1016.955198L502.693649,1018.013953L503.419625,1020.137938L503.220857,1020.482190L502.949804,1021.339569L502.689836,1021.872180L503.435268,1022.771771L503.781299,1023.418044L504.324089,1027.380064L504.605081,1028.419266L505.052873,1029.451967L507.252259,1032.842300L508.220699,1034.823210L508.820807,1037.424337L509.839920,1038.661564L511.908042,1038.986293L515.800227,1038.710273L517.686412,1039.197368L519.280154,1039.999447L520.719631,1040.161811L522.146130,1038.710273L522.068079,1039.934501L521.479299,1040.720341L519.739636,1042.080939L518.736307,1041.730237L518.141856,1042.564777L517.302196,1045.298923L518.211483,1045.753528L521.222536,1046.389972L520.980318,1048.175901L520.935337,1049.455265L521.163601,1050.254051L521.884860,1050.442382L522.581299,1050.039742L523.246244,1049.465006L523.898548,1049.163025L523.423362,1049.971554L522.825465,1051.734718L522.359775,1052.436082L521.727757,1052.864692L521.230094,1052.913398L520.725063,1052.851704L520.085150,1052.975092L521.024986,1053.643981L524.958719,1054.611594L524.135821,1053.890755L523.633487,1052.994574L523.727273,1052.364647L524.703267,1052.436082L525.581941,1053.202385L526.244469,1054.176493L526.870004,1054.549900L527.699993,1053.520594L527.937155,1054.968765L528.756958,1055.949358L529.819417,1056.280551L530.770157,1055.754539L531.164807,1054.351833L530.818307,1051.026856L531.507195,1049.659832L531.594157,1049.922847L531.609787,1050.150144L531.692221,1050.280027L532.002351,1050.254051L532.060941,1050.750855L531.796573,1051.734718L531.767775,1056.248081L531.580229,1057.033850L531.337746,1057.637786L531.169183,1058.300164L531.181713,1059.267753L531.429742,1060.001558L531.865242,1060.137929L532.458782,1060.047015L533.160047,1060.111953L535.785884,1060.800299L537.318250,1060.939916L538.426434,1060.657435L539.083045,1059.576211L538.770485,1058.436536L537.942775,1057.436474L537.033484,1056.790327L540.998358,1058.592390L543.095461,1059.254765L545.128971,1059.517766L545.502499,1058.410561L545.575448,1053.137444L545.783266,1051.345070L546.422910,1052.072412L546.855387,1055.027211L547.301198,1056.248081L548.167838,1055.105139L548.704775,1054.725239L549.271685,1054.884343L549.763671,1055.546731L549.796546,1056.585767L550.254136,1057.384522L550.748459,1057.592328L551.382331,1057.559859L551.957236,1057.644280L552.260412,1058.176780L552.627028,1059.011245L553.324396,1059.566470L554.124862,1059.904151L554.837350,1060.111953L554.908292,1059.858694L555.538370,1059.508026L556.279061,1059.384642L556.681874,1059.813237L556.834341,1060.491842L557.159401,1061.449679L557.576315,1062.332833L558.010051,1062.787395L558.702966,1062.303611L559.308010,1060.881472L560.213790,1057.930012L559.148745,1056.108461L556.402712,1049.163025L557.173500,1049.484489L558.922708,1050.604736L560.005998,1050.448876L559.978624,1051.397023L559.693172,1053.520594L560.288467,1055.338923L561.377615,1056.936441L562.616962,1058.196262L563.665113,1059.020986L563.723624,1059.517766L562.761446,1059.517766L562.350227,1059.826224L562.008658,1061.202915L561.976885,1061.599036L562.229423,1063.082861L562.039278,1063.417288L561.162001,1064.190039L561.017109,1064.767978L561.819252,1066.410872L563.257685,1067.563487L564.432576,1067.514785L564.432861,1065.556958L566.608164,1067.602448L568.022633,1068.693367Z "/></g></svg>