<?xml version="1.0" encoding="utf-8"?><!DOCTYPE svg  PUBLIC '-//W3C//DTD SVG 1.1//EN'  'http://www.w3.org/Graphics/SVG/1.1/DTD/svg11.dtd'><svg enable_background="new 0 0 1000 714" height="714px" pretty_print="False" style="stroke-linejoin: round; stroke:#000; fill: none;" version="1.1" viewBox="0 0 1000 714" width="1000px" xmlns="http://www.w3.org/2000/svg" xmlns:xlink="http://www.w3.org/1999/xlink"><defs><style type="text/css"><![CDATA[path { fill-rule: evenodd; }]]></style></defs><metadata><views><view h="714.481297724" padding="0" w="1000"><proj flip="auto" id="robinson" lon0="19.1554175358"/><bbox h="94.05" w="131.82" x="176.91" y="-912.81"/></view></views></metadata><g class="" fill="#000" id="country"><path d="M901.772568,712.481298L902.676808,710.502160L902.437311,710.098592L902.281517,709.836070L900.413669,707.562501L899.846126,706.396961L899.762440,704.712767L900.357865,702.285895L900.219555,701.235804L898.881321,699.980865L894.236805,697.938498L892.299264,696.830940L889.052368,693.700552L885.647363,691.844242L886.012589,691.767431L886.127839,691.716225L884.480027,690.820121L883.348483,692.170688L882.923249,692.420325L882.245825,691.761030L882.589382,690.256870L883.811698,687.575180L884.663736,683.191577L885.852592,679.422869L886.007002,677.625076L883.291784,666.278104L882.615335,664.308557L881.953303,663.362205L879.614813,661.520756L878.137385,659.858453L877.780567,659.174383L877.244119,657.767944L875.991534,652.507292L875.112522,650.698606L872.689947,646.276529L874.535142,641.503914L880.929262,633.309079L882.123814,629.362824L882.697302,628.296561L883.690582,627.524033L885.745823,627.179276L886.768091,626.802605L888.241655,625.436426L893.132023,616.500945L893.960128,615.550176L894.758397,615.084378L896.416293,614.561166L897.175404,613.865697L897.517998,612.985229L898.000303,610.497151L898.385377,609.476488L902.032220,606.044883L910.985131,593.376006L914.412982,589.877094L917.683277,587.594588L920.136216,583.899244L939.817933,564.243140L943.846781,561.474953L948.707800,558.172742L948.717848,558.172742L948.727056,558.166380L948.737104,558.166380L951.306833,556.321462L958.076038,549.566756L959.210356,547.977010L959.251610,547.805548L960.037583,544.537248L960.861024,542.731777L962.036093,541.682902L963.619905,540.990040L966.857717,540.131942L984.429472,539.953971L989.306382,538.237906L990.885483,534.189866L991.146805,532.861886L991.090848,531.267160L990.618486,528.897551L990.688122,527.417486L996.576471,524.775247L998.195675,523.193887L999.216240,521.784107L999.299211,521.511054L998.750980,521.168155L997.836821,519.542641L996.054800,513.702072L997.870343,510.573008L997.837880,510.523257L994.723348,505.750280L993.607266,503.168071L993.813417,500.370534L991.139099,499.856743L988.312483,498.524758L986.692865,496.647446L987.658759,494.497636L987.554073,493.736698L984.814699,493.470377L982.404830,492.614368L980.759309,491.054626L980.256913,488.708905L981.158309,486.604333L983.192797,485.247891L985.824849,484.962670L988.546309,486.122596L990.420219,485.419026L993.629301,485.400011L996.501477,484.899288L997.396690,482.769773L995.933479,481.236158L987.377615,477.668744L980.168480,472.828734L978.452652,470.903196L977.700405,469.294500L977.448030,468.192556L977.038862,467.185661L975.789001,465.881205L974.520417,465.235342L973.236087,464.836436L972.457433,464.336233L972.734049,463.373852L972.628955,462.614110L970.780302,457.486612L969.714235,455.847356L966.742808,452.708464L964.979246,450.285019L965.182620,449.158818L966.688304,448.497679L965.403915,447.010987L960.294573,443.275766L955.041728,440.799707L952.574630,438.690712L945.938800,429.375208L944.175386,428.521950L942.306827,428.493509L940.705161,427.870970L939.717510,425.270420L940.010350,423.640112L941.087149,421.842502L942.601301,420.398844L944.289475,419.852365L943.462149,418.200384L943.407109,416.943326L943.976115,416.090593L945.034507,415.676872L944.043588,414.211548L939.480724,409.623618L939.225507,408.862747L940.389152,406.419313L938.922529,405.683815L937.108392,405.169297L935.479459,404.339153L934.594342,402.628467L934.310196,401.874169L933.704417,400.239428L932.303547,399.614600L930.706611,399.153880L929.246787,397.244845L929.910660,397.295330L930.560487,397.244845L928.051292,394.373740L926.978884,392.673352L926.396508,390.919483L926.444711,387.623498L926.150553,386.440857L924.925554,385.501100L924.798504,384.589767L925.650484,384.495167L926.197610,384.211370L927.262071,383.003702L926.710810,382.473989L926.006610,381.632153L925.588755,380.847101L925.918994,380.506606L926.757129,380.172422L926.432213,379.412646L925.666179,378.555173L925.230125,377.924701L925.383555,375.113032L925.588063,373.805043L925.852931,372.928894L927.274992,371.447720L929.155402,370.473984L930.800641,369.030798L931.474643,366.195135L929.441926,364.314360L927.621608,362.106163L928.551755,361.095071L928.576614,358.452603L929.656802,357.945565L929.528087,357.385003L929.438156,357.240141L929.268497,357.233843L928.874365,357.114175L929.305172,355.734897L928.817488,351.789660L929.125796,349.548167L930.462934,346.167493L931.501974,344.609546L932.885167,343.731482L931.488881,341.651340L929.476974,337.051217L928.468349,335.534845L928.169827,334.131827L927.583347,332.725758L926.322930,332.087238L925.376240,331.772704L924.691881,331.002114L924.065478,330.011397L923.297152,329.067901L921.372035,328.212501L916.839067,328.322569L914.910566,327.860288L911.656156,323.700213L911.981961,323.272618L912.043185,321.816972L911.547024,320.902136L910.114676,322.118782L909.399254,321.543461L908.360227,320.920999L907.907309,320.380289L906.766024,321.625199L905.835600,321.490016L904.875642,320.795251L903.618510,320.380289L902.300315,320.795251L901.994574,320.594056L902.539348,319.471803L902.432784,318.717380L900.398796,318.550782L894.201034,316.806296L892.804023,315.816247L891.391861,316.265692L884.296181,314.813672L881.986558,313.735722L882.445565,311.573702L881.914196,309.974326L880.696961,308.777230L879.920493,308.311553L879.151569,307.850391L878.846725,307.793839L882.296345,300.729218L883.756088,298.593645L887.077629,294.941682L896.745241,281.030379L904.393609,275.593236L912.307550,271.772685L927.762831,268.250723L939.469956,261.559638L942.738454,257.942171L943.288878,252.758395L942.555456,249.116746L939.591306,234.421362L939.208180,233.494581L938.733868,232.884055L938.301562,232.157707L938.021006,230.858481L938.145815,229.903677L938.957862,228.269650L939.132730,227.521543L938.949754,226.551234L937.643044,223.177396L937.518731,222.404428L937.529548,220.949318L937.234365,220.019976L935.876338,218.227113L932.572083,215.383235L931.451580,213.331115L931.229505,210.969536L931.896957,209.302506L932.831240,207.845130L933.427510,206.100157L933.207773,203.167161L931.988422,201.710187L930.212660,200.741009L928.300001,199.312328L926.891628,197.439864L925.893175,195.680079L924.705739,193.970438L922.735865,192.217176L920.544669,188.773556L915.046244,177.343402L912.574099,173.521109L907.048127,166.440333L896.207505,147.656384L892.691992,139.236705L891.372492,131.829941L891.362708,131.829941L891.361778,131.823707L888.682384,129.274287L887.314684,126.793703L885.487481,120.381567L884.066603,117.347481L882.400602,114.569179L880.983328,111.623047L880.338377,108.091916L880.623899,107.388245L880.583786,106.728183L880.219948,106.124181L879.582191,105.582460L878.483097,104.959808L877.591003,104.088123L877.026795,102.992337L876.892690,101.703608L877.271534,101.168215L877.708473,100.695087L878.743647,99.979188L879.872491,98.130403L879.435353,95.410400L877.216272,89.790889L876.108627,87.221172L874.670275,84.527314L872.992276,82.119899L871.172560,80.390693L870.246918,80.005060L868.156416,79.588334L867.106867,79.090761L866.099392,78.157840L864.015712,75.701322L862.950906,74.644165L861.041704,73.532273L858.979225,72.331021L851.057286,70.179750L847.216521,68.532232L840.826854,64.870797L839.020247,64.249217L837.168057,64.566221L835.024118,65.281049L832.862669,65.287265L830.905620,63.515773L830.726696,62.241624L831.070403,60.880535L831.241736,59.737031L830.549251,59.072084L827.274501,58.786224L826.133289,58.245586L825.425435,57.475043L824.868038,56.536753L824.193863,55.598500L823.079180,54.840468L822.090771,54.672710L819.998976,55.008227L818.962278,54.908814L812.996667,52.734260L810.961696,52.529240L808.736827,53.349328L808.635461,53.525295L806.735476,56.822586L805.121275,57.897596L798.871596,59.500879L781.059081,58.798653L758.959101,57.922452L732.609467,56.887831L706.263512,55.853254L665.225967,54.231575L631.350864,52.902004L604.015818,51.824111L576.684757,50.746267L540.026869,49.292652L520.493422,48.521663L513.115749,48.230450L508.303749,47.031647L506.152926,45.820040L504.618254,46.343331L499.394233,50.843119L496.535120,51.870362L492.915054,52.516080L485.472942,55.329071L450.628845,59.262919L447.966492,58.680629L446.807635,58.230466L445.928107,57.618844L443.139354,58.827424L439.604434,58.631698L423.258623,54.800693L421.472392,53.142248L420.771560,52.095383L419.344020,51.439893L417.729698,51.077913L416.453680,50.980082L414.937317,50.603435L411.866990,48.959953L410.344438,48.593120L408.785964,46.582972L407.633460,42.079089L406.986866,37.326715L407.023277,34.569592L406.149453,33.411108L403.122058,27.951819L401.789781,26.603069L400.841395,25.010078L401.152766,23.016541L399.772029,24.511678L398.015717,24.790194L396.825598,23.793415L397.110546,21.448211L395.922323,20.593245L395.797513,19.806702L396.061434,19.010415L396.004868,18.092030L394.363107,15.874369L393.056342,14.409064L392.498098,13.959722L390.161776,13.212464L389.604234,12.768027L389.394496,11.014778L389.483208,10.223659L390.401976,6.795771L390.924040,6.180560L392.024119,5.799722L392.859552,6.078026L396.116302,7.816275L397.115225,8.753808L402.867992,10.716885L408.821372,13.568996L411.563730,14.252770L412.594598,15.381040L413.459093,15.639914L416.814518,16.143018L417.723279,16.450746L422.877933,22.063805L424.600978,23.529568L426.022320,25.782128L427.845183,26.681256L428.524252,27.546209L429.089812,28.420966L429.552944,28.831478L431.140383,28.235261L430.849486,26.603069L429.658024,24.736445L428.548774,23.417190L422.013895,17.789166L388.232057,3.602698L386.221359,3.265838L384.911093,2.782525L381.242258,0.580887L379.050288,0.000000L363.611828,0.000000L338.766632,1.703649L323.303654,5.746015L288.361226,10.716885L261.131958,20.554161L252.929464,27.883402L249.483637,28.831478L245.537383,29.334853L238.154805,31.592838L218.743362,33.748382L212.640085,36.725401L209.630644,39.160082L208.006229,42.030192L209.302544,41.042484L210.479414,40.661102L211.083258,41.154943L210.657656,42.768554L209.566056,43.810124L208.095376,44.240457L207.114071,43.942157L207.494980,42.768554L207.416607,42.030192L197.620546,52.481837L194.166759,57.618844L195.437250,56.576677L196.186498,55.828106L198.061304,55.872138L199.364036,57.618844L198.262354,58.661057L195.080292,59.825649L193.892220,61.000084L192.444159,61.450300L190.761881,61.714561L189.927611,61.949462L190.654544,61.053914L192.591081,59.409717L193.584173,57.618844L188.291125,62.727588L184.586383,64.636307L181.466624,65.835452L186.472515,64.631413L188.651079,64.709722L188.668921,66.647968L189.009431,66.824180L189.181771,66.785022L189.292705,66.892707L189.399921,67.480092L184.904855,67.480092L184.997381,68.370986L185.641764,68.370986L185.719060,69.115054L177.522960,70.201828L175.362379,69.115054L179.872260,67.548621L180.967914,66.647968L170.805202,69.261913L155.759781,70.681591L138.099683,76.885109L119.867084,80.651098L103.201975,84.055205L77.743971,92.369167L56.598856,96.608115L32.385478,104.965740L25.948567,108.726419L22.414247,110.197515L18.713412,110.781075L9.305402,110.197515L6.338204,109.373690L5.248796,108.726419L3.641134,108.192675L2.326916,111.442429L1.581769,111.847264L0.700789,112.046569L2.490423,113.578789L3.422609,115.460208L3.426196,115.459894L3.639905,115.440274L5.925441,116.205453L10.923864,121.169917L12.574621,121.969629L13.695310,122.102099L15.242436,122.690865L16.144938,122.793900L17.359446,122.602549L17.405970,122.352323L16.069999,121.969629L15.995049,121.145387L17.340632,121.042358L18.597686,120.728370L21.071918,119.496990L21.969856,119.972854L23.132613,119.555859L24.020489,118.491329L24.071354,117.029520L23.199965,116.254504L21.612292,115.724761L18.750310,115.312747L19.486667,114.527979L20.046845,113.753046L20.638486,113.154698L21.439355,112.909478L22.591545,113.139985L23.421439,113.463679L24.144388,113.292023L24.964712,112.085557L25.183089,112.536748L25.222869,112.634834L25.302963,112.669165L25.632797,112.909478L24.655608,115.258793L26.246143,116.489949L36.812304,117.314026L39.148745,118.275486L40.639074,120.321174L40.079032,120.757807L39.303923,121.616379L38.851553,121.969629L39.416409,122.582923L39.989422,123.034318L40.681557,123.358151L41.537212,123.618201L40.868024,122.793900L42.971978,121.071795L43.622254,120.115125L43.719277,118.672836L44.365856,118.672836L44.260745,120.939331L43.806196,123.093197L43.684423,125.517149L44.636421,128.559715L43.170700,128.618608L42.181230,129.079936L41.260545,129.286065L40.107367,128.559715L38.271045,133.791905L37.899924,136.457539L41.329639,141.814286L42.456467,142.246415L44.900376,142.413377L45.938907,142.639267L45.911692,143.346418L45.978806,143.822775L46.090367,144.279497L44.859300,145.060366L44.125252,145.797060L43.797015,146.921791L43.867226,148.857047L43.398428,149.210716L42.212424,148.139903L38.680861,143.611605L37.094841,142.040171L35.233496,140.994244L30.019576,139.614480L25.792544,139.074382L24.692076,138.416461L22.655367,136.869929L19.980310,135.927333L18.568600,135.146774L17.255651,132.819982L16.024034,132.152423L14.653549,131.651766L13.664491,131.023507L13.214199,131.921727L14.175583,132.329128L14.521089,132.741445L14.250222,133.153769L13.363374,133.571010L15.107216,134.449694L15.072787,135.431503L13.903855,136.310258L12.251249,136.869929L11.333525,136.948481L11.331090,136.948695L11.328587,136.960804L11.751927,140.352915L11.529451,142.230015L13.172031,144.593758L15.583062,149.284545L15.866808,150.476109L16.010013,154.893546L16.319565,157.570630L17.229749,160.060788L19.777440,162.769691L20.994928,165.291633L23.215839,167.845073L24.770490,174.101906L27.393820,181.146351L28.240014,183.418560L28.479557,184.443221L28.735903,186.636403L29.137362,187.823685L29.785976,188.592328L31.324250,189.532857L31.758295,190.207812L33.074790,191.082785L30.935119,194.814303L30.309150,195.611316L29.343970,196.023898L28.497410,197.102275L27.951892,198.580830L27.830763,200.190784L28.350887,202.157274L29.074470,203.870670L29.427866,205.621721L27.188111,212.474036L27.012870,213.487520L25.928703,215.674176L23.215243,218.023743L17.909658,221.456249L12.317224,223.784523L7.940790,226.416646L8.006810,227.170975L8.684463,228.388597L10.222689,232.686811L10.571972,234.202187L10.378350,236.494236L9.521410,237.962901L7.136839,239.657155L8.379125,241.360936L10.122204,242.363223L12.165037,242.845590L14.294483,242.964617L16.263625,243.616146L19.627326,246.454281L22.324340,247.528860L32.969589,253.297400L34.567365,254.635569L38.273183,259.612902L39.335537,260.355838L41.209199,261.011023L44.210270,263.914137L50.080876,265.666854L56.053281,270.488915L56.645046,270.966629L59.786732,272.861065L57.499767,277.218274L57.010480,280.038853L58.901372,281.300232L59.461646,282.596205L58.134537,285.445736L56.075501,288.298786L51.423519,291.692182L52.384122,296.517947L55.127943,301.822212L57.449169,305.359122L57.070655,307.570776L59.384723,309.452748L62.746543,310.753575L65.512512,311.246904L68.276485,312.161322L69.951568,314.298261L70.143183,316.787437L68.442854,318.717380L68.509776,319.471803L70.046777,321.166209L69.834486,322.904767L69.000299,325.118256L68.695085,328.275397L69.810770,330.020832L76.369265,333.675709L74.757230,335.396427L74.115226,336.431442L73.904481,337.523140L73.824806,338.640065L73.520051,339.791661L71.707550,342.740163L71.296072,343.923457L71.613451,351.361491L71.009027,353.744868L69.722568,355.939579L68.118475,357.800699L62.992756,362.213260L61.915322,364.326961L62.427854,366.910316L64.172497,368.810232L65.993626,369.758681L67.447342,371.164103L68.104967,374.381808L69.368674,377.483383L71.710226,379.488307L76.650510,382.555968L78.077610,384.665447L79.292715,387.762265L79.732227,390.976260L78.811018,393.421001L77.144161,395.765071L76.563965,398.137810L76.852759,399.012660L77.279587,400.305698L79.562725,402.066686L86.000552,403.742606L88.131904,404.891527L88.133006,404.904152L90.420657,405.901621L95.034336,406.962273L97.287755,407.789368L98.873577,408.723836L100.786705,410.207709L101.930665,411.890614L101.248060,413.418927L101.890106,416.641898L102.921931,421.823548L102.931896,421.937276L103.542636,424.129822L103.885685,424.973416L105.888700,427.466488L108.251643,429.511101L109.868186,431.909913L109.680639,435.459669L110.063016,435.839021L110.491961,436.180444L109.062497,438.769756L108.040146,442.029792L107.551229,445.464312L107.710856,448.557782L107.648002,450.130004L107.079976,450.946217L106.380321,451.512523L105.934722,452.360431L105.869595,453.565914L106.053839,455.920139L105.885980,457.325212L102.325491,466.071169L98.245143,475.362623L95.067125,478.429062L93.851391,480.241272L94.035663,482.522612L96.101270,482.579649L99.535387,481.793822L110.645124,482.446563L110.754030,481.388246L110.266912,477.130202L110.126847,476.781742L110.026398,476.312915L110.057353,475.628700L110.291245,475.210581L111.166736,474.349029L111.413037,473.728228L110.995168,470.168500L109.377297,468.452204L107.722120,467.457961L107.192481,466.071169L107.202474,466.071169L107.606060,465.653251L108.067805,465.330320L108.599354,465.121368L109.140758,465.026390L110.468994,464.209601L110.869788,463.646100L111.051951,462.636269L113.007879,463.987998L117.979281,464.849100L118.904133,466.058505L120.121841,466.957692L121.528044,467.495956L122.601979,467.318644L122.812820,466.071169L122.811714,466.058505L123.541072,464.456534L124.728640,463.753734L125.897734,464.209601L126.510533,466.071169L127.577570,467.869584L133.090881,467.939244L135.759932,468.965177L137.486165,470.972866L137.490513,472.157308L136.763867,473.443173L136.282213,475.698388L136.725271,477.440654L137.815146,479.601277L139.133529,481.629056L140.280797,482.959899L142.320804,484.202100L144.126291,484.823230L145.683015,485.799331L147.046421,488.100331L147.181405,489.292139L147.019455,490.522059L147.042026,491.688652L147.751847,492.703137L148.987881,493.010590L149.153876,493.051879L150.145033,492.145164L150.950686,490.839061L151.771970,489.938789L155.781064,489.666179L175.644950,495.119091L176.799008,495.708857L178.222022,497.287995L178.982935,497.846114L180.027554,498.106152L187.936602,496.539632L190.356082,496.723549L190.641972,497.560710L191.019975,498.309111L196.523293,505.014284L197.160412,505.191936L199.839228,505.128489L205.420814,503.390115L207.040129,503.574096L208.434751,504.589196L209.872733,506.518030L210.865816,508.180533L211.551273,509.874908L211.463815,511.334601L210.154097,512.248550L210.000062,512.648417L209.955676,513.041944L210.061033,513.429132L210.294946,513.797285L214.358474,513.187932L219.941879,508.497820L224.060537,508.834151L227.300506,510.725324L228.824931,511.283827L230.430205,510.979187L231.501916,509.779715L232.058503,508.212261L232.656017,506.981232L233.888311,506.765493L237.409913,506.822600L240.636344,507.476173L243.738210,508.834151L252.652912,515.885733L253.753638,518.228361L250.800127,519.237873L251.257374,520.164892L251.295202,520.571271L251.056406,520.914159L250.701455,521.625355L250.608922,522.247672L250.566525,523.193887L250.643832,523.917867L250.908096,523.848008L250.163067,524.787949L248.315193,526.382143L247.498405,527.417486L245.861026,527.716031L242.687132,527.017316L241.199507,527.417486L240.593621,529.005543L239.232094,530.015615L237.602048,530.835146L236.200001,531.845313L235.684008,532.016856L234.833035,532.474311L234.245161,532.518787L234.841921,533.884867L235.056885,534.259762L233.087738,533.903929L232.503573,535.854734L233.617830,538.053597L236.810558,538.504839L238.355661,541.676545L238.882620,542.388503L240.201983,543.202201L240.903122,543.075058L241.550944,542.585567L242.657926,542.286793L247.085025,542.286793L248.030251,542.521998L248.818289,543.666278L248.993928,544.810626L249.016587,545.929610L249.366479,547.004150L251.265146,548.867252L255.712028,550.151816L257.984699,551.379227L259.528307,552.975615L262.336909,556.626816L263.887002,558.179104L265.290563,559.992387L268.465812,562.486727L269.736666,564.815918L271.230960,569.016815L272.288341,570.557376L274.166152,572.378198L277.747830,574.893255L281.991369,576.618967L285.922506,576.383344L288.609487,573.053092L290.652695,571.779727L291.711260,570.410954L292.610857,568.743093L294.158451,566.591639L296.196947,565.070492L298.105362,564.841375L300.065619,564.949569L301.224758,564.704473L302.292903,564.478613L303.145087,563.816749L304.590588,561.990378L305.694347,561.334963L306.546170,561.309511L308.394579,561.831295L309.264109,561.780388L309.462429,561.328600L309.300960,559.839683L309.540249,559.502466L310.968989,559.521553L311.582680,559.846046L312.105693,560.590490L313.260652,561.850385L314.471041,562.213097L314.994175,561.163159L314.648662,559.540641L313.252840,558.179104L312.827211,555.189152L311.592079,552.981975L309.673857,551.404666L307.196293,550.279005L305.233840,548.759149L304.052927,546.374679L303.080636,543.755281L301.762040,541.504917L298.296493,537.786669L298.123098,536.070796L300.638663,534.774460L302.878122,535.003219L305.744374,536.333312L307.246607,537.030395L309.473893,536.814323L319.667386,539.076852L320.782164,539.604390L323.189004,541.142594L324.485286,541.676545L325.821625,541.689259L328.734962,541.193446L329.896367,541.473134L329.718808,541.816392L330.179361,543.151344L330.935616,544.740692L331.621364,545.808808L332.656521,546.648083L336.250839,548.403049L338.613056,548.943560L343.161893,548.835457L345.237962,549.528601L343.507256,550.113659L343.823611,550.577903L344.205330,550.991280L344.641753,551.347428L345.114032,551.659062L345.149486,553.261833L345.491943,554.820211L346.288162,556.086089L347.661579,556.881281L348.497213,554.629383L350.634013,554.495804L352.889743,555.888886L354.017588,558.179104L354.536029,558.446314L355.067854,558.541747L355.571611,558.452676L356.047284,558.179104L358.625519,555.367264L363.223144,555.023764L372.036206,556.270570L374.239541,555.793466L375.797716,554.686631L378.359660,551.449185L378.802227,550.444352L378.969892,549.604912L379.569721,549.274233L381.266115,549.770253L381.849591,550.183613L383.832423,552.142424L384.101359,552.422270L384.184515,552.753003L384.150928,553.121904L383.968555,553.509893L383.142744,555.812550L383.063732,556.938536L383.407996,558.179104L384.515065,559.006194L386.258774,561.284058L385.529314,563.148545L383.696818,564.535891L379.754851,566.553450L377.242801,567.380902L372.562292,567.527301L371.539778,567.966505L370.947825,569.207787L371.237007,570.105380L376.441673,574.976035L378.015476,575.536399L378.986757,575.389939L379.773280,575.001506L380.789784,574.804108L382.094713,575.084286L384.845479,576.154092L386.236684,576.389712L386.288864,576.510708L386.320299,576.625336L386.309613,576.720859L386.278180,576.810015L385.435093,577.440487L385.189835,578.115560L385.561332,578.822502L386.550288,579.567685L387.730441,580.618635L388.528957,581.981771L389.222477,583.504267L390.132393,584.975916L391.351245,586.211935L398.168184,591.336490L401.772373,591.948323L405.228861,591.068820L407.890123,588.978570L409.624260,588.602604L413.520147,588.507021L416.613657,587.734770L417.052659,587.193162L416.758506,585.963451L415.988724,585.109708L415.151539,585.090595L414.396396,585.288099L413.865320,585.109708L413.153603,582.319385L414.805476,582.649545L416.213329,582.930927L422.203139,585.963451L421.797326,588.239390L423.185754,589.437386L429.503397,590.399660L431.050567,591.068820L434.338828,593.229409L435.529024,593.650083L437.853810,594.038896L439.082526,594.740053L439.563605,595.415738L440.431410,597.328180L441.059553,598.163338L443.123971,599.457584L444.510806,599.228057L447.043220,597.283554L446.911125,597.073177L446.765998,596.932926L446.587697,596.862802L446.376222,596.862802L450.263484,596.467558L454.141246,597.564060L461.715940,600.834807L463.981607,600.828431L467.613559,598.820014L469.126968,599.534094L469.960661,601.772138L469.912857,603.666064L470.490697,605.177506L473.196953,606.319135L470.777059,608.864115L471.155573,612.174976L473.231968,615.926650L475.926674,619.806637L477.271438,623.400085L477.981052,624.325671L479.358343,625.072551L482.386240,625.289598L483.813418,625.634325L485.171855,626.489780L487.278598,628.347639L488.571463,628.954190L489.984126,628.858418L491.451816,628.315715L492.952837,628.098638L494.507430,628.992499L495.010012,629.956633L496.102458,634.209535L496.678456,635.397427L498.050477,637.556229L498.599154,638.674032L500.542689,643.944407L501.087196,646.500169L500.884373,648.564148L510.635290,649.299045L513.609981,650.724170L512.965679,652.807688L513.248008,654.571787L513.894917,656.246522L514.335936,658.081189L514.348854,662.147345L515.037543,663.541242L516.978118,663.835376L519.438177,663.675520L523.031574,661.859624L525.121287,661.444032L526.047177,661.699780L528.108530,662.869860L529.089480,663.266293L530.106204,663.323840L532.520713,662.921012L535.429363,661.923562L536.034042,660.932544L536.126768,659.391749L536.563527,656.981651L536.841130,656.930511L538.040872,656.904941L538.447415,656.636457L538.593974,655.811847L538.340785,655.223770L537.988989,654.853032L537.802598,654.712409L538.950085,650.698606L540.099851,648.941179L541.406986,647.822884L542.935088,647.177492L544.778634,646.845218L547.790690,646.870777L548.786455,646.736591L550.121589,646.276529L550.803655,645.752580L558.462797,638.067218L558.771289,637.454032L559.314847,637.249641L559.871006,637.430863L560.726207,637.709524L562.624947,640.098512L563.430324,640.743709L565.854893,641.995825L567.300039,644.481094L569.739147,650.717779L571.732416,654.654882L572.331067,655.536983L574.121459,656.604495L576.210651,657.058361L580.124413,657.090324L579.752635,657.870228L579.672406,658.541476L579.938840,660.478607L579.885907,661.934886L579.884567,661.971740L585.673055,663.554030L587.826260,663.745857L589.789709,663.579607L592.948561,662.492615L593.886650,663.042620L593.908256,663.055287L595.068097,665.395626L595.783435,667.454788L596.998682,673.441354L596.900858,673.946693L596.251273,674.874238L596.246553,675.389132L596.246465,675.398795L596.634654,675.814609L598.057227,676.633731L598.067872,676.639860L598.254541,676.920727L598.284716,676.966129L599.096845,677.613163L599.135889,677.644269L599.375253,678.181676L599.216888,678.879040L598.679667,679.154152L598.068103,679.301306L597.664408,679.595617L594.492735,684.599375L594.272226,686.222647L594.271060,686.231229L595.689481,687.677578L598.238559,688.426381L602.782819,688.707987L604.888157,688.042377L606.140569,686.862615L607.877152,685.226507L609.531877,684.138633L612.638054,683.850673L615.485678,685.021728L620.958223,688.957595L624.349133,690.276072L626.130807,689.053599L626.809337,685.956047L626.899299,681.630284L627.982116,680.414584L628.511246,679.038988L628.908443,677.567498L630.403355,674.093818L630.892994,673.479734L631.156539,673.671634L633.333659,673.882725L634.213816,673.140714L636.118660,671.036330L637.529860,670.345566L645.023130,669.795526L645.448271,669.245498L645.958189,667.531531L646.270200,665.766519L646.347529,664.628278L646.627226,663.860953L647.559811,663.240716L648.720094,663.221534L652.860041,664.468417L657.896618,664.308557L657.641336,662.179314L659.135716,661.891593L667.789803,665.376442L669.981156,665.811282L672.220137,665.127051L673.245512,664.257402L674.624944,662.665252L675.573574,662.198496L676.467411,662.147345L678.609057,662.409494L682.253282,661.917168L683.804480,662.140951L693.448786,670.716530L695.100617,671.650358L697.326602,671.931792L698.985842,671.848641L700.544518,672.040529L702.501530,673.166300L704.254174,674.541597L705.949371,675.494751L707.781473,675.776226L710.000327,675.091736L711.943021,673.575684L714.700835,669.705986L716.529488,668.087918L718.035784,667.819316L720.096106,667.800130L721.871658,667.499555L722.541516,666.367632L721.136076,664.500389L718.753156,663.368599L717.432458,662.243253L719.205224,660.414673L720.633878,659.826487L724.529509,659.161597L726.058488,659.276673L727.941810,660.280412L729.483544,661.565512L731.076723,662.415888L733.146064,662.128164L734.674937,660.830248L737.297741,657.096716L738.949665,656.086714L740.334514,656.355191L746.089241,658.765229L755.876492,660.990086L757.492048,660.977299L761.043740,660.318772L762.519708,660.670410L764.233365,660.073200L765.656680,659.577151L772.583687,658.925054L774.458393,659.315032L775.513103,659.864846L777.503649,661.328946L778.560765,661.897987L779.308316,661.981106L780.791384,661.699780L781.789399,661.936349L783.600455,663.330234L787.376696,667.512345L789.001775,668.522804L789.956834,667.960012L791.181767,666.597850L792.719486,665.318890L794.655296,665.018343L796.544122,665.862440L800.455394,668.593154L805.980336,670.767698L809.835060,673.518114L813.092096,677.279607L814.843372,681.649480L815.956971,685.591275L818.928983,687.274385L825.991763,688.368780L829.382249,690.071256L830.565395,690.487290L831.553401,690.538494L833.873757,690.301674L834.698812,690.429685L835.889915,691.421788L836.003615,692.292306L835.825436,693.092437L836.141043,693.873387L836.931698,694.391897L841.667310,695.556979L847.063924,695.384135L849.231685,696.069118L854.689346,700.211360L858.394602,701.126955L866.095200,701.402279L869.655657,702.791744L871.523063,701.139761L873.549065,701.645591L877.633407,705.020141L880.210114,706.390557L882.343054,706.601888L884.420193,706.435384L887.992683,706.653120L890.133835,706.095976L891.210083,706.198439L892.297842,706.979726L894.368180,709.093139L895.487442,709.381343L897.333154,710.143494L899.699653,711.770331L901.772568,712.481298Z "/></g></svg>