<?xml version="1.0" encoding="utf-8"?><!DOCTYPE svg  PUBLIC '-//W3C//DTD SVG 1.1//EN'  'http://www.w3.org/Graphics/SVG/1.1/DTD/svg11.dtd'><svg enable_background="new 0 0 1000 218" height="218px" pretty_print="False" style="stroke-linejoin: round; stroke:#000; fill: none;" version="1.1" viewBox="0 0 1000 218" width="1000px" xmlns="http://www.w3.org/2000/svg" xmlns:xlink="http://www.w3.org/1999/xlink"><defs><style type="text/css"><![CDATA[path { fill-rule: evenodd; }]]></style></defs><metadata><views><view h="218.059621233" padding="0" w="1000"><proj flip="auto" id="robinson" lon0="-128.316847667"/><bbox h="19.34" w="89.1" x="-1888.77" y="401.17"/></view></views></metadata><g class="" fill="#000" id="country"><path d="M159.363654,216.059621L160.831751,215.693406L159.411108,214.350621L157.934421,213.679230L156.434318,213.679230L155.024242,214.411656L156.356090,215.449263L157.835337,215.998585L159.363654,216.059621Z M996.127798,138.613863L995.963888,138.613863L994.392711,139.193565L996.047481,138.720650L996.168540,138.705395L997.033514,139.102033L997.413328,139.498671L997.696485,140.215673L997.337451,139.254586L996.949218,138.735905L996.127798,138.613863Z M419.764807,88.824117L418.233979,82.692402L414.818882,76.881093L410.100995,74.944011L407.598267,78.116561L410.219200,83.836371L414.943752,89.251206L418.822634,91.691721L419.764807,88.824117Z M3.341765,0.000000L3.020394,0.548990L2.560354,0.518491L2.303515,0.975983L2.880310,1.921470L3.424113,1.570724L3.999959,0.640489L3.972150,0.000000L3.341765,0.000000Z "/></g></svg>