<?xml version="1.0" encoding="utf-8"?><!DOCTYPE svg  PUBLIC '-//W3C//DTD SVG 1.1//EN'  'http://www.w3.org/Graphics/SVG/1.1/DTD/svg11.dtd'><svg enable_background="new 0 0 1000 254" height="254px" pretty_print="False" style="stroke-linejoin: round; stroke:#000; fill: none;" version="1.1" viewBox="0 0 1000 254" width="1000px" xmlns="http://www.w3.org/2000/svg" xmlns:xlink="http://www.w3.org/1999/xlink"><defs><style type="text/css"><![CDATA[path { fill-rule: evenodd; }]]></style></defs><metadata><views><view h="254.736656158" padding="0" w="1000"><proj flip="auto" id="robinson" lon0="-66.4021839103"/><bbox h="10.06" w="39.64" x="-991.59" y="-310.6"/></view></views></metadata><g class="" fill="#000" id="country"><path d="M24.017908,197.737631L25.702750,196.520390L26.515681,193.211553L27.940305,191.291399L29.671678,189.439824L34.116719,182.067816L36.458516,179.153304L36.669764,176.204505L32.860768,171.935608L30.710515,171.335563L9.424829,172.021329L4.950585,174.455800L1.970547,180.559127L3.857285,186.336721L13.671807,192.697226L15.674174,196.520390L17.123229,197.737631L20.534040,198.114805L24.017908,197.737631Z M979.936303,162.472042L976.801422,157.534536L972.217286,155.494388L953.047652,154.654327L940.757622,149.819694L936.172511,148.911058L906.367971,154.088572L902.718286,156.094431L897.060425,160.740486L890.027198,165.095094L882.447705,168.112462L875.131413,168.798228L873.315310,168.592498L867.610793,168.798228L872.123036,180.679136L882.640192,182.307834L894.197190,180.799145L901.514368,183.456496L907.538582,180.473406L936.954929,173.084267L944.236475,169.895454L949.724815,168.489634L952.655835,171.935608L955.192583,171.935608L957.336912,169.586859L964.798654,164.306464L967.370131,163.294960L977.106349,164.015013L979.936303,162.472042Z M994.300905,83.781152L985.859651,78.998023L975.620608,76.683608L966.591296,76.735039L966.346650,78.226551L980.181228,93.878885L984.418063,102.622271L986.267526,98.490591L985.954603,95.147532L983.315516,87.981395L985.791763,87.981395L986.505227,91.187297L988.369170,93.261706L991.325483,94.187475L995.253167,93.981748L993.017229,91.101578L996.928065,91.393023L998.029453,91.101578L994.300905,83.781152Z M630.938395,252.736656L634.039359,250.713614L637.612436,250.336437L641.641424,250.507882L646.216181,250.113560L668.889774,237.563864L676.622326,235.489395L687.787632,235.797994L690.398780,235.489395L701.649464,230.757551L706.178950,229.728890L713.612371,230.517531L721.817026,232.471987L730.066486,232.677719L749.797939,225.430451L764.396722,216.167678L772.220058,208.922477L769.638086,196.520390L771.791496,193.931610L780.457966,191.908592L782.472385,190.639919L788.239449,183.337214L790.329064,172.238532L805.389196,150.214008L812.397517,143.287804L818.739290,140.270450L826.149901,138.418893L833.204469,134.801502L839.827801,132.435627L845.651712,135.937030L849.936004,136.794291L853.765004,133.494319L850.687507,128.168121L852.439954,123.696370L856.529534,123.662755L859.528624,129.881592L862.826033,129.558346L863.683098,125.984257L867.760065,122.979564L863.969774,116.467842L863.226562,113.404768L864.651457,109.507225L859.300514,112.252916L856.428164,110.782780L854.098565,107.799735L856.093370,102.622271L855.040589,97.650540L857.509376,80.026652L863.057390,59.196952L863.178947,56.333947L860.334999,55.493904L857.048413,57.756878L853.834755,60.825608L846.957109,65.877482L834.382346,63.898455L825.350073,55.406144L820.134760,59.156683L814.287936,55.501330L808.987358,45.587953L806.505771,47.231472L802.534721,48.888137L799.706286,49.608199L801.477782,46.349127L803.594172,44.013496L803.352289,41.931243L801.304706,41.022612L798.173081,45.220106L793.947081,47.342667L788.009749,39.635981L781.964685,35.761513L770.429805,32.847093L766.277993,29.144068L761.967708,28.164253L755.843170,32.392427L739.567960,27.103977L731.447302,25.149605L727.690984,30.582634L722.169738,33.204574L716.391008,31.979049L712.315328,30.446984L706.512054,29.058350L683.210597,20.772036L687.221435,25.852493L691.949568,31.629895L698.261303,35.350066L704.249620,36.207249L703.950605,39.344539L691.485937,43.373303L685.910763,43.030429L684.072777,37.750178L683.287517,33.598488L676.572033,29.499419L678.319191,23.966696L674.789153,22.780821L671.483910,26.985095L667.755643,29.270941L664.806699,27.566854L663.705424,25.201035L661.409809,21.600878L656.695763,20.723026L652.260733,24.172419L633.508066,17.383555L616.233599,22.732356L588.364928,13.200524L556.543706,20.006524L542.467938,15.326326L518.900482,15.069172L512.785109,16.320653L503.434783,12.446207L493.840468,11.109009L472.820833,13.200524L458.137532,16.697812L452.715757,16.320653L439.473943,11.057579L434.325691,10.320406L395.734444,15.777447L358.069963,7.165993L345.470849,0.685740L326.017548,0.000000L307.139681,5.828797L299.486660,15.484637L298.927199,26.192573L302.090681,33.563112L300.695784,42.916512L290.813632,50.847956L285.310980,54.379562L278.053285,57.551153L269.272688,61.496220L258.481465,64.829907L257.453253,67.810162L259.739443,75.399877L262.751474,81.498812L267.367805,93.917525L273.820681,95.724227L281.830195,97.508629L284.531963,105.331010L288.409708,125.513659L292.635616,130.111392L294.629722,134.562962L292.075006,139.474843L288.694202,142.702325L285.518766,146.030853L280.353558,161.295414L279.243693,174.886062L274.924356,179.262337L275.766251,186.295489L276.839342,190.585629L273.009943,193.391437L270.160079,197.356337L269.135423,205.210652L273.611882,207.486763L278.551940,206.481204L281.895224,208.504229L283.156065,210.767274L281.645246,213.921824L278.653706,215.550533L275.203937,216.664912L272.427871,218.225045L263.249455,222.726803L261.973753,234.443728L263.486415,238.423384L267.965245,247.358922L271.932160,247.615996L270.276253,237.958136L274.548175,234.534974L282.119277,239.401328L294.654644,240.838440L299.010586,241.489927L304.514830,240.118376L310.866943,236.586634L316.426318,231.820501L321.492488,233.672080L330.378639,233.515647L338.511510,235.043822L345.897863,235.489395L353.222683,245.090249L358.007348,249.239195L364.790400,250.113560L365.349458,246.118913L366.253643,243.204366L367.879535,241.489927L369.811280,241.267050L373.878437,241.661371L379.504572,241.044173L390.895555,241.489927L398.691398,240.186953L407.330698,237.546719L414.983525,233.192050L419.810384,226.848640L414.795504,226.848640L415.095505,223.694083L420.037214,220.539527L425.076555,219.339425L428.178803,221.088145L427.332702,226.848640L442.362415,226.848640L452.911534,231.597625L455.617725,232.334832L470.799426,230.106066L477.054359,230.723263L479.110058,235.489395L481.882193,234.272145L484.647927,232.334832L490.113883,235.609405L494.561510,234.666465L498.569291,231.906223L502.641233,229.728890L514.772382,228.974539L520.192929,227.843012L524.267735,225.688152L529.534362,224.955720L536.528339,223.351196L542.348550,227.774435L547.580891,235.420817L554.127204,241.489927L561.496377,242.484301L572.690658,234.580743L581.410291,232.334832L587.449196,231.923367L590.655159,232.746297L594.993474,235.489395L596.694158,237.872462L597.767552,240.735574L599.423621,243.118644L602.824265,244.095874L612.819529,245.261693L617.881522,246.667534L622.213415,245.364560L630.009898,238.335361L633.151541,241.112750L634.431970,243.684409L633.301251,245.707448L629.196534,246.976133L629.233309,248.964885L629.587968,250.113560L630.938395,252.736656Z "/></g></svg>