<?xml version="1.0" encoding="utf-8"?><!DOCTYPE svg  PUBLIC '-//W3C//DTD SVG 1.1//EN'  'http://www.w3.org/Graphics/SVG/1.1/DTD/svg11.dtd'><svg enable_background="new 0 0 1000 250" height="250px" pretty_print="False" style="stroke-linejoin: round; stroke:#000; fill: none;" version="1.1" viewBox="0 0 1000 250" width="1000px" xmlns="http://www.w3.org/2000/svg" xmlns:xlink="http://www.w3.org/1999/xlink"><defs><style type="text/css"><![CDATA[path { fill-rule: evenodd; }]]></style></defs><metadata><views><view h="250.647413358" padding="0" w="1000"><proj flip="auto" id="robinson" lon0="-66.4061410746"/><bbox h="9.64" w="38.62" x="-991.57" y="-310.59"/></view></views></metadata><g class="" fill="#000" id="country"><path d="M24.612842,199.947529L26.371651,198.680409L27.197349,195.280304L28.656032,193.316270L30.439467,191.415592L34.975251,183.876243L37.416631,180.877401L37.603251,177.815205L33.689282,173.443660L31.524588,172.831222L9.673263,173.549253L5.038157,176.041245L2.002825,182.313466L3.945247,188.247797L14.031393,194.752338L16.077229,198.680409L17.574205,199.926411L21.044441,200.348784L24.612842,199.947529Z M947.669825,180.159369L997.997175,168.164021L995.502126,163.391232L972.264853,156.168702L930.666003,154.458104L893.754858,166.453419L899.004905,179.272388L917.901874,182.799194L947.669825,180.159369Z M632.722519,248.647413L674.052513,247.697065L737.080216,236.926456L791.907400,201.045701L814.346000,170.212521L840.731911,145.102623L879.718709,121.027651L882.399018,60.882989L835.530572,52.140115L790.912185,33.873054L719.842019,22.997326L711.465035,22.997326L718.905615,40.715274L707.471782,41.940117L696.656406,33.408460L688.809224,22.279317L675.665824,20.061939L441.481421,12.818513L349.901144,0.000000L329.496048,3.188786L311.685226,9.925369L304.082817,37.357517L286.661722,55.603474L266.375092,68.147612L273.979959,87.153947L285.524723,103.267157L294.982774,128.862563L291.300697,159.864440L276.239000,228.352222L295.620377,240.242112L344.262339,239.735260L363.298636,245.838605L386.113833,248.372868L409.906634,245.268396L435.746272,231.646754L500.896360,235.405901L534.272124,231.456685L571.282152,247.211331L603.000690,241.340291L617.442593,247.485876L632.722519,248.647413Z "/></g></svg>