<?xml version="1.0" encoding="utf-8"?><!DOCTYPE svg  PUBLIC '-//W3C//DTD SVG 1.1//EN'  'http://www.w3.org/Graphics/SVG/1.1/DTD/svg11.dtd'><svg enable_background="new 0 0 1000 1206" height="1206px" pretty_print="False" style="stroke-linejoin: round; stroke:#000; fill: none;" version="1.1" viewBox="0 0 1000 1206" width="1000px" xmlns="http://www.w3.org/2000/svg" xmlns:xlink="http://www.w3.org/1999/xlink"><defs><style type="text/css"><![CDATA[path { fill-rule: evenodd; }]]></style></defs><metadata><views><view h="1206.2160944" padding="0" w="1000"><proj flip="auto" id="robinson" lon0="35.2620692875"/><bbox h="22.24" w="18.46" x="484.22" y="-545.53"/></view></views></metadata><g class="" fill="black" id="country"><path d="M46.506571,1204.216094L57.669765,1192.697035L94.194651,1163.130843L118.140767,1133.891200L118.815291,1118.430436L109.372040,1087.368344L108.071422,1072.000549L121.366589,1040.283493L199.545277,956.385704L210.301116,948.444032L210.459464,948.444032L233.039938,925.179221L232.752747,905.978300L216.331283,887.711339L191.215567,868.226178L189.799012,872.626821L166.694757,912.135495L115.157080,972.167701L102.782432,999.754821L69.644864,1026.826315L56.985567,1054.853500L25.782422,1085.896043L16.468872,1100.093003L0.427681,1111.273938L0.414863,1111.282746L22.537605,1146.128931L28.455034,1161.028966L46.506571,1204.216094Z M656.155759,0.000000L642.600844,0.842696L632.836313,9.012039L616.094107,31.458988L594.048518,46.485074L572.349252,57.438189L553.799087,72.018316L541.631034,98.298217L537.523058,145.315658L536.171250,160.747960L532.637606,179.370556L530.025921,181.522849L520.245362,185.289326L517.549494,187.394792L515.618057,198.881043L515.972221,227.372740L514.866946,239.231885L524.741963,242.249236L530.754567,249.032331L533.113018,258.575225L531.652919,270.082488L527.237694,281.285342L500.469106,308.834938L491.691195,322.141264L491.111904,330.840400L506.473207,358.807242L511.882326,374.099295L530.522047,459.387488L532.694122,476.265401L533.460151,496.321697L533.524042,496.929449L533.820124,497.490450L534.343486,497.957951L534.936056,498.331951L535.882854,501.323943L536.463907,504.596410L536.570670,507.868855L536.262522,510.954281L535.868006,538.067751L554.672096,573.406442L566.935927,603.694745L547.218738,615.519785L527.272663,622.904457L524.018687,635.126926L522.954704,639.122335L531.729686,654.264815L557.425633,658.751395L569.382244,658.891601L574.722124,657.769960L581.816644,653.002957L593.806328,638.327811L599.118813,634.682331L610.143286,636.505074L652.099710,655.807081L706.646992,668.425464L720.465241,676.510428L727.651793,687.726375L730.572641,702.774098L731.499660,722.214073L729.189395,727.354349L725.825929,728.475857L721.665405,726.513216L716.879799,722.354264L670.726351,732.634770L656.939859,740.017936L644.416491,751.185983L620.609972,778.661365L563.901542,825.525841L551.621163,842.252407L550.315629,845.462081L540.633769,869.257099L539.749743,893.738077L542.030712,919.012547L540.696489,948.444032L512.141201,1006.790534L504.056069,1037.013649L516.096877,1067.376165L534.369180,1080.361772L554.976108,1083.584799L575.704833,1080.221639L594.496212,1073.401875L639.711069,1067.049187L735.404262,1067.889986L778.415707,1050.933782L854.712765,980.630775L896.324987,955.077668L947.966204,950.686393L948.475288,951.013404L948.762818,950.733109L948.596126,949.892224L948.207868,948.444032L945.412408,881.404240L950.733477,815.807440L963.635312,775.805215L978.113604,730.859058L999.585137,703.475070L978.285851,654.685434L977.572665,647.955499L984.602731,636.692022L958.250554,564.291548L959.604007,556.952768L964.063577,554.288342L969.195878,552.745773L972.230990,548.585488L972.017170,541.386706L966.444947,531.383024L964.377583,523.856749L962.586563,511.515265L959.898716,501.884938L949.333061,480.660098L943.444857,438.908691L945.959811,423.291776L957.700583,412.677551L948.437732,401.455165L947.787515,390.980659L958.213916,368.908481L953.561591,363.109654L953.033460,358.199289L956.071386,354.130654L961.964379,350.903776L961.239336,344.169333L956.844899,333.436071L958.641014,318.976093L963.940782,276.233576L953.911975,276.233576L954.632111,271.205128L956.326253,267.883975L958.984970,265.451561L962.540010,263.276407L955.316569,252.704504L950.608723,235.466007L948.976105,218.203258L951.227494,207.653373L942.822006,194.202373L940.505976,167.041393L935.443627,158.221194L934.767539,151.997779L940.450345,151.997779L941.126574,158.221194L945.862364,158.221194L943.704467,149.985671L940.660181,143.036786L877.201523,127.009317L858.776405,122.306211L840.482803,121.721244L820.032725,115.801305L813.373706,92.962855L810.645717,64.927268L801.546106,43.629709L777.286158,29.469495L754.273775,26.777807L706.487159,29.141813L692.064985,24.179720L668.334431,6.109491L657.550832,0.699861L656.155759,0.000000Z "/></g></svg>