<?xml version="1.0" encoding="utf-8"?><!DOCTYPE svg  PUBLIC '-//W3C//DTD SVG 1.1//EN'  'http://www.w3.org/Graphics/SVG/1.1/DTD/svg11.dtd'><svg enable_background="new 0 0 1000 592" height="592px" pretty_print="False" style="stroke-linejoin: round; stroke:#000; fill: none;" version="1.1" viewBox="0 0 1000 592" width="1000px" xmlns="http://www.w3.org/2000/svg" xmlns:xlink="http://www.w3.org/1999/xlink"><defs><style type="text/css"><![CDATA[path { fill-rule: evenodd; }]]></style></defs><metadata><views><view h="592.468314575" padding="0" w="1000"><proj flip="auto" id="robinson" lon0="-8.29219159741"/><bbox h="203.67" w="344.34" x="-428.36" y="-707.21"/></view></views></metadata><g class="" fill="black" id="country"><path d="M582.235896,590.468315L582.238959,590.320445L582.040418,590.257354L582.062221,590.450570L582.235896,590.468315Z M589.393763,585.121942L589.388984,584.767137L589.031878,584.495123L588.640786,584.930741L588.608356,585.021413L588.605937,585.116029L588.575355,585.202760L588.757810,585.287520L589.041386,585.360453L589.182693,585.427473L589.393763,585.121942Z M568.662206,469.981799L568.131692,468.671092L567.428569,467.553744L566.763087,466.908171L566.798246,467.490570L566.935259,467.999903L567.171259,468.459868L567.499857,468.898105L568.804174,471.217394L568.662206,469.981799Z M545.883060,455.567388L544.859801,454.909402L543.990866,454.630785L543.742446,454.585337L543.335947,454.358091L542.421735,453.281088L542.016998,452.929313L541.561374,452.721800L541.266107,452.652629L540.996644,452.721800L540.623421,452.929313L539.539130,454.346234L539.268815,454.585337L538.634116,454.865931L538.366490,455.549605L538.409340,456.422918L538.719569,457.268513L539.737273,458.651380L541.054359,459.848433L542.540567,460.839972L549.179379,463.671986L552.469909,463.944493L554.441021,463.826012L556.165533,463.205947L556.963930,461.756390L557.252017,461.298189L558.655316,459.623253L559.169416,459.259797L559.698908,459.111646L561.175816,458.445935L561.883136,458.264192L561.497819,457.971818L561.072576,457.873041L560.632106,457.971818L560.211493,458.264192L559.557484,457.867115L558.859807,457.671535L557.304937,457.600414L556.827188,457.489782L556.382420,457.225049L554.341837,455.612833L553.857549,455.407341L552.673105,454.490487L552.004512,454.253359L550.439233,454.419349L549.525505,454.640666L548.906184,454.917306L548.081784,455.427100L546.972849,455.662230L545.883060,455.567388Z M577.275651,441.154752L576.277803,441.390163L575.407280,442.149773L574.819013,443.712353L574.567883,444.044621L574.225936,444.238440L573.802491,444.274039L573.785385,444.606290L574.584419,444.982039L575.159583,444.869316L575.657785,444.412478L576.210828,443.759821L576.814934,443.340518L577.423021,443.328651L578.852561,443.611484L578.437467,443.257447L578.312680,442.679888L578.412212,441.255643L578.118169,441.617656L577.275651,441.154752Z M927.196347,250.866333L927.239511,250.725201L927.479431,250.557860L927.377067,250.188905L927.311354,250.027614L927.224013,249.880437L926.236271,250.850204L925.427414,251.148598L923.357493,250.866333L923.347020,251.235294L924.314677,251.561918L925.418176,251.592161L926.444492,251.346184L927.196347,250.866333Z M238.369817,251.366346L237.973531,250.279631L237.350848,249.370361L236.593293,248.838116L235.496059,248.688927L233.918363,248.761505L232.411799,249.132463L231.514765,249.880437L231.042179,250.376406L231.251311,250.884478L231.686299,251.442962L231.892113,252.080085L232.151309,252.578096L232.848401,252.584144L234.191944,252.249448L236.466687,253.011591L237.801684,253.156762L238.465453,252.418812L238.369817,251.366346Z M215.750811,208.162347L215.438856,208.037693L215.256225,207.699930L215.183793,207.213412L215.201941,206.630429L214.997007,206.220352L213.713000,205.066611L212.721005,204.791262L209.620043,205.066611L208.652445,207.639617L209.847102,209.541691L214.344023,213.069359L217.878382,213.224251L220.082888,213.809643L221.096249,214.252228L222.115167,214.914130L222.844350,214.570097L223.765697,214.485599L225.562883,214.576133L227.497139,214.385008L229.338259,213.900170L234.714226,213.234309L236.293361,212.550388L237.420200,210.985590L237.472261,209.199853L236.648874,207.732098L235.160155,207.120937L229.472803,207.249599L225.268150,208.459915L224.575089,208.837919L224.183442,208.590606L223.406217,207.929125L223.057707,207.794422L222.495576,207.957273L221.374865,208.675054L220.763857,208.837919L215.750811,208.162347Z M124.179847,179.100861L123.566666,178.598223L121.766159,178.409994L119.270966,177.514989L118.436271,177.370840L118.034266,177.216684L117.311350,176.548055L116.910813,176.395922L116.824708,176.291834L115.476564,175.691360L111.752168,173.300092L110.188277,173.006005L107.376721,172.939988L106.003831,173.318097L104.682725,174.378540L104.445725,176.548055L105.219889,178.049573L107.587656,180.424742L108.431282,180.038163L114.109657,180.146323L114.965818,180.424742L115.372680,180.957580L115.677723,181.562586L116.122198,181.807009L117.699993,180.687149L118.531433,180.410721L119.435394,180.350629L122.492848,180.793317L123.718344,180.777291L124.316036,180.256487L124.179847,179.100861Z M101.679385,174.682703L101.340678,174.620669L101.220919,174.514611L101.143350,174.334518L100.930263,174.044379L101.315431,173.786268L102.649103,173.250076L102.933028,173.190057L102.629351,170.993827L101.806270,170.177963L98.510907,168.644551L98.118774,168.950399L97.353016,169.922031L96.966960,170.289937L96.438946,170.533889L95.888818,170.625873L94.727540,170.657868L93.368514,170.893837L93.373552,171.301807L95.081988,172.363869L95.794474,173.108033L96.655394,174.626672L97.507373,175.050922L98.015909,175.028909L99.260631,174.728729L99.750697,174.682703L100.670778,175.004894L101.131558,175.018902L101.679385,174.682703Z M118.346531,164.698100L117.648307,164.592236L117.106306,164.406481L115.887513,163.535718L115.199407,163.250156L115.119794,163.887201L115.228843,164.222730L116.913777,165.796813L117.226729,165.958643L117.533612,166.042557L117.542504,166.228371L117.474756,166.448159L117.550546,166.629991L117.874460,166.795844L118.032242,166.775861L118.186085,166.687939L118.513331,166.629991L118.789577,166.831813L119.436432,168.126848L120.092824,168.650548L124.071173,170.000009L124.547359,170.289937L125.148711,171.163814L125.512550,171.353805L126.101038,170.993827L126.735028,171.385804L127.826254,171.205811L128.370651,171.511803L128.872709,171.955821L129.494669,172.325864L130.139063,172.577906L131.319643,172.805955L132.553907,173.458145L133.185675,173.678226L134.746085,173.738249L135.516963,173.612200L136.214002,173.372115L135.578808,172.483889L134.158112,171.709807L131.308135,170.657868L125.925080,167.607197L118.346531,164.698100Z M165.007315,168.198804L164.919634,167.361380L165.032275,166.965698L165.313017,166.791847L166.226199,166.444163L166.468643,166.264335L166.408615,165.814793L166.039357,165.533100L165.748545,165.245429L165.934040,164.758024L165.836395,163.771369L164.657793,162.665105L163.144188,161.728764L162.052176,161.237705L155.962460,160.872437L154.597394,161.141894L153.044637,161.896454L152.006792,163.064450L152.180139,164.592236L152.466051,165.611014L153.173784,166.719911L154.078645,167.607197L154.951127,167.972946L155.977794,168.044900L156.984221,168.278756L157.902174,168.846449L158.350673,168.836454L158.913339,168.278756L159.752685,168.932408L162.442014,168.950399L163.399797,169.342230L164.601005,168.830457L164.857080,168.644551L165.007315,168.198804Z M882.323636,159.427596L882.874758,158.633515L883.172764,157.897412L883.156195,157.586247L882.917935,157.729859L882.803028,157.819619L882.549833,158.019090L882.084822,158.483892L881.661037,159.202128L881.301999,160.058165L881.557789,160.153954L882.323636,159.427596Z M128.685196,146.195359L128.277766,146.105830L127.850513,146.195359L127.422830,146.463958L126.596533,147.936572L126.459034,148.653160L126.820290,149.469417L127.417862,149.993095L128.175898,150.309721L129.006769,150.465055L129.814768,150.504886L130.512744,150.397345L131.307292,150.058808L131.818551,149.485345L131.659712,148.649179L131.101045,147.992303L129.895955,146.949467L129.358909,146.129704L129.053416,146.463958L128.685196,146.195359Z M5.354752,127.003914L4.901096,126.734660L4.569203,126.421875L4.946385,125.760761L4.214751,125.750865L3.377868,125.986397L2.663683,126.477303L2.298362,127.235568L1.997518,128.199959L1.566570,128.928866L1.270812,129.610366L1.376541,130.438636L0.947498,130.922209L0.845354,131.812224L0.984614,132.761936L1.272148,133.432231L1.789525,133.751554L2.581064,133.868580L3.464274,133.769405L4.254427,133.432231L4.852112,133.872547L5.773102,133.043525L6.641033,131.695261L7.074956,130.589250L7.290792,128.518838L7.076259,127.681097L6.446853,126.754457L5.884402,127.067271L5.354752,127.003914Z M9.805270,118.869951L10.767951,117.448019L10.852486,116.020764L9.514777,115.748410L9.028287,115.807616L8.525382,116.109579L8.128644,116.565536L7.943349,117.070912L8.064204,117.299935L8.502059,118.804766L8.520027,119.120826L9.805270,118.869951Z M921.039891,0.000000L919.838416,0.756547L919.110550,1.019712L918.438174,1.046516L918.140519,1.109872L917.785018,1.310910L916.748529,2.130959L916.079030,2.449012L909.999509,3.326473L909.253318,3.579983L907.873434,4.412484L907.143762,4.679442L905.709057,4.714793L905.020348,4.839134L904.336908,5.288974L903.978181,5.763227L903.520972,6.780119L903.204609,7.255697L902.384065,7.737407L901.365233,8.013034L900.464474,8.421617L900.013748,8.711142L899.475112,10.459357L898.094519,11.812151L895.232855,13.899564L894.930730,14.351354L894.747919,14.849323L894.962350,16.193702L894.551882,18.322659L894.497640,19.678416L895.188586,21.215312L895.887268,21.621263L896.391067,21.675163L897.302018,21.565439L901.691558,20.381709L901.128450,20.860945L900.488074,21.274776L899.796661,21.565439L897.373695,21.929269L896.483589,22.235367L896.326838,22.766306L896.357410,23.874992L896.643269,24.729831L896.646632,25.592015L896.875878,26.372258L897.010891,27.435886L897.460939,28.875366L897.535089,29.667236L897.684413,30.332481L897.715933,31.314949L898.129810,32.392289L897.646521,33.978735L897.663173,35.343196L897.639192,35.923927L897.834360,36.613099L898.355656,37.468428L898.481825,37.962773L898.627371,38.454364L898.897285,38.584641L899.063259,39.044335L899.000094,40.500975L899.156231,41.092262L899.350451,41.610183L899.421066,42.139761L899.204613,42.769922L899.891979,44.107856L900.346971,45.751819L901.060240,47.055820L902.520671,47.375108L902.509492,47.667325L901.784648,48.327305L901.682129,50.001901L902.026364,53.194173L901.966276,54.942434L897.578510,71.206067L898.086918,70.662951L898.652065,69.635337L899.120506,68.532140L899.324450,67.761846L899.466073,66.560039L899.785498,65.238106L900.256065,63.990466L900.849232,63.019066L901.028984,63.652391L901.324382,63.473651L901.594264,62.822872L901.691054,62.042083L902.034476,63.055974L900.458772,64.993209L900.725172,66.309225L900.996160,66.696147L901.891896,67.065607L902.109056,67.050050L902.265832,66.976156L903.109210,66.816704L904.121217,66.350054L904.786853,66.309225L904.147447,66.851705L903.521220,67.254240L902.804565,67.499283L901.890162,67.582912L901.143468,67.814361L901.018087,68.333715L901.346729,68.897890L901.959576,69.244219L901.454242,70.055690L901.107334,70.406021L900.711885,70.552001L900.524404,70.415752L900.379899,70.160786L900.163693,70.020659L899.770864,70.225012L899.656312,70.497501L899.739085,70.814782L899.887893,71.083421L899.976383,71.206067L899.965214,71.503940L899.722851,71.503940L899.177677,71.190493L898.593384,71.618812L897.760947,72.837851L897.798811,72.514552L897.811231,71.503940L897.579554,71.646071L897.469564,71.795995L896.859834,74.585593L896.024834,76.775924L895.370739,79.766632L892.372753,89.322945L891.088678,91.570437L890.536099,92.922036L890.570101,93.946889L890.944351,94.652525L891.604883,95.062258L893.407017,95.281850L894.088212,95.528909L894.668275,95.944639L895.284679,96.511455L895.271468,96.870425L893.688560,96.805690L893.044057,96.521262L892.607502,95.881884L891.992698,96.576184L886.545054,110.183922L883.135970,118.072491L882.819856,119.915235L882.280150,121.218743L882.325493,122.140856L882.211300,122.985802L881.344314,124.366187L880.907778,125.133261L880.302760,126.053716L879.137868,126.742428L878.388409,127.201745L878.042642,127.739373L877.110218,128.737216L876.429052,129.725283L877.056368,130.315771L877.334689,130.955903L876.854411,131.407826L876.449805,131.298804L875.977699,130.735529L875.161641,130.811254L874.406723,131.426029L871.412827,133.272205L869.648848,132.781766L869.188135,132.918592L869.468684,133.404465L870.841792,134.828722L871.272681,135.793072L871.718352,138.203101L871.415040,139.745686L871.184200,141.597184L870.301237,143.374899L869.764452,144.688920L868.119305,147.397945L867.907492,148.713854L867.469915,149.801935L867.849557,151.654140L867.845585,154.604251L866.395310,158.570751L865.388733,159.537341L864.888440,160.102068L864.650974,160.567069L864.612015,161.622963L865.040507,163.759386L864.749015,164.592236L864.696503,165.581047L865.484662,165.832774L867.185291,165.597029L868.152037,165.752860L869.886257,166.468141L871.398171,167.410867L872.157529,166.557302L872.904998,166.014569L875.487081,166.253313L877.766423,165.871473L879.810834,165.257243L880.419544,164.095041L880.300940,162.930144L880.280490,161.300113L880.220279,160.369488L880.499894,159.563281L880.944181,158.908835L882.216791,157.544361L884.569702,153.313804L886.591280,150.648277L887.404177,149.252397L887.941506,148.834316L891.386014,148.470021L893.206133,147.212142L894.290030,146.463958L893.887316,147.162392L893.241132,147.789288L891.766517,148.834316L891.000084,149.144887L889.289828,149.282262L888.487163,149.469417L887.067390,150.500903L885.984279,152.030649L884.174193,155.486421L884.489794,156.640911L884.677940,157.831587L885.068097,158.621545L885.993350,158.561695L885.682241,159.307877L885.886743,160.317599L886.315996,161.295592L886.692060,161.942370L886.681599,162.243830L886.499474,162.309714L886.260994,162.505375L886.101848,162.609199L884.632700,163.802708L883.469774,164.651060L882.800341,165.269112L882.180192,165.958643L882.169498,166.264335L881.573979,166.330272L880.304650,166.659964L879.694175,166.965698L879.905155,167.972946L879.658754,167.972946L879.272761,167.379366L878.457413,166.883232L876.753550,167.033422L874.884525,167.261745L874.142517,167.648618L874.656044,169.125884L875.800883,170.992886L876.688823,173.248245L876.603825,175.579689L876.303669,177.134039L875.069407,178.289851L874.765559,178.716369L874.606747,178.848535L874.488859,179.154932L874.466576,179.511414L874.591694,179.783796L874.768098,179.797816L875.788048,180.089291L876.520009,179.934594L877.183710,179.468675L878.002190,179.158916L881.889005,178.701827L884.183192,177.776328L883.876206,177.541363L885.734493,175.529733L887.702494,175.173000L889.213003,175.691360L890.593277,176.419943L891.381298,176.626124L892.332855,176.698189L892.679771,176.319857L892.697058,175.515232L892.307359,174.802772L891.425730,174.682703L891.435997,174.378540L892.237543,174.130419L893.071861,172.569905L893.694506,172.669925L893.413210,173.222067L893.510111,173.910320L893.880199,174.482594L894.442852,174.682703L894.430534,175.050922L894.080352,175.287075L893.860407,175.751404L893.774681,176.373903L893.819725,177.064534L894.027652,177.737226L894.367556,178.151690L897.250360,179.497394L898.277068,179.711693L899.472397,179.783796L897.453937,180.410721L893.496435,179.359206L891.835882,179.419287L891.794090,178.778447L890.944799,178.313880L889.144691,177.707194L887.710841,176.451970L886.814741,176.087665L886.183874,176.698189L887.284159,177.118587L888.695168,178.283844L889.902819,179.715699L890.898699,180.761755L891.865429,182.711234L892.157815,185.436015L892.354240,188.551208L892.408554,191.200595L891.418653,193.849050L890.556200,197.358466L888.341290,201.726846L888.015559,202.036251L887.700278,202.176894L887.419571,202.353705L887.213947,202.767619L888.818777,203.768329L890.137908,204.015808L890.730631,205.270088L890.926494,206.444775L890.943895,208.086071L890.361560,210.736936L889.982670,213.254425L890.286827,214.115427L891.273488,214.103412L892.170232,213.874018L892.566929,213.538065L892.560893,213.725151L892.304373,214.914130L891.154642,215.117727L890.622378,215.366822L890.223209,216.630436L889.995405,217.982743L889.377525,220.164479L889.443042,220.808611L889.952437,221.434662L890.321148,222.217940L890.516019,223.390690L890.348606,225.655245L890.057581,226.982256L889.508636,229.203369L888.759534,230.853101L888.508872,232.054711L887.345866,233.300622L886.660717,234.549562L886.950225,235.332538L887.236480,236.193943L886.593906,238.385135L885.629392,239.339938L884.883271,240.011063L885.203203,241.484383L884.630072,242.661493L883.989357,244.020755L882.346153,246.469320L882.144063,246.761630L881.903121,247.449074L881.584065,248.838116L882.193262,248.584092L882.619099,248.852228L883.042867,249.287701L883.643311,249.511488L884.066343,249.358265L884.891465,248.682879L885.317783,248.527643L885.652379,248.277654L886.399271,247.562886L887.182319,247.880529L888.087732,247.098204L889.038878,246.850332L889.647740,246.805981L890.177646,246.572132L891.236495,245.925026L891.722352,245.791977L894.186273,245.791977L895.497009,244.437339L896.032517,244.068453L896.632014,243.899130L898.507188,243.760044L900.210375,244.064422L902.309710,245.236556L902.392166,245.157784L904.115019,245.802836L905.871951,245.584582L907.085117,245.046607L908.594272,245.572247L909.951553,246.052027L913.187588,245.595933L914.543383,245.537040L915.797750,246.110147L917.429338,246.469320L920.244923,248.043795L921.655893,249.245364L922.520094,250.557860L922.479939,250.132453L922.358228,249.817937L921.980499,249.203026L922.360269,249.402619L922.864185,249.717131L923.292219,249.771566L923.653012,249.203026L924.331175,249.479231L926.808065,249.511488L927.650916,249.684873L928.267309,249.955033L928.848526,249.965114L930.204637,248.777634L936.395650,244.679234L936.720703,244.255919L939.102870,242.746150L939.781861,242.508304L941.434560,241.391668L942.311892,241.057091L943.176037,240.968408L944.095630,241.002672L944.948040,241.230425L945.603797,241.734313L945.910732,241.363451L945.918887,241.057091L945.673383,240.960346L945.556905,240.799106L945.479206,240.591512L945.368153,240.349656L944.826029,238.173842L944.661239,237.055430L944.948715,236.303033L944.596669,234.678058L944.400309,230.745471L943.750380,229.205444L943.854540,228.647798L943.768145,227.559426L943.562971,226.349651L943.304571,225.425125L943.091364,225.122079L942.419474,224.563315L942.119846,224.243666L941.802075,223.738471L941.770816,223.688774L941.693900,223.399830L941.667921,223.064868L941.476546,222.386022L941.319068,222.393692L941.259642,222.334886L941.251140,221.817149L941.384922,221.617730L941.824425,221.135813L941.878731,220.891667L941.969680,220.669255L942.007397,220.426396L941.912290,220.123468L942.297678,219.876785L943.385340,218.764861L943.671363,218.367406L943.902777,217.622374L944.319639,215.243205L944.902212,213.756172L945.637056,212.744497L949.397200,209.713912L950.550775,207.794905L951.038611,206.109876L951.976984,203.804964L952.211338,202.930890L952.206391,202.426903L952.097249,201.957392L952.085320,201.559350L952.367958,201.265933L953.644914,201.013348L954.082145,200.728880L954.599438,200.768424L955.103360,200.921501L955.595302,200.982732L956.097747,200.728880L956.626218,200.582185L956.930736,200.392123L957.358142,199.852577L957.781980,198.825879L958.140950,198.449669L958.830871,198.515983L961.067767,199.426577L962.084686,199.310515L962.444412,198.113008L962.836361,197.495833L963.224434,196.001556L964.008806,194.505023L964.590589,192.858419L964.923403,192.126997L965.364577,190.722978L965.244195,190.636704L964.710458,190.254184L963.593948,190.345902L962.545965,190.654186L962.430695,190.643994L962.217942,190.575203L961.709369,191.236394L960.726158,191.664481L959.711678,191.869615L959.105296,191.859422L958.577394,191.364107L958.195524,191.005798L956.694414,187.004075L956.492042,186.785080L955.824834,186.292367L955.558099,186.014834L955.393229,185.708034L955.153345,185.052471L954.992113,184.764808L950.917651,179.493710L949.808723,178.687473L949.270053,178.421718L949.859459,177.833031L950.260121,177.286354L950.319350,176.716847L949.877995,176.071132L950.285654,175.494118L951.076202,173.016408L952.809941,170.678196L953.045236,169.996351L952.932280,169.618008L952.702384,169.445350L952.442959,169.298088L952.255981,168.990881L952.205198,168.599915L952.200692,168.101095L952.312507,166.980506L952.633502,165.303242L952.777217,164.950604L953.135195,164.297398L953.210380,164.112233L955.023956,162.707339L955.608398,162.254611L956.215555,162.027686L956.895056,161.492741L957.451220,160.878005L957.686357,160.412885L958.077706,160.099873L959.925475,159.712120L960.577698,159.409289L961.074433,158.925305L961.572558,158.538913L961.905031,158.341295L961.876993,157.640829L962.099522,156.878414L961.574891,155.917338L962.451306,155.229890L963.374254,154.042603L964.774796,151.550048L965.178813,151.058025L965.412317,150.562262L965.360774,150.118399L964.916069,149.773202L965.214437,148.936245L964.990102,147.978112L964.457481,147.101061L963.834926,146.508457L962.935406,145.905829L961.905674,145.630442L960.854827,145.744132L959.888117,146.298728L959.402416,146.475607L958.799179,146.375796L958.223909,146.086482L957.826221,145.693603L957.782352,145.284339L958.244866,144.329545L958.343100,143.834551L957.882863,142.900284L956.960315,142.483718L955.865486,142.206031L954.894952,141.678478L954.362565,140.913771L954.084902,139.934752L954.171995,138.910567L954.733580,138.017772L952.830219,135.711053L952.099808,135.144035L951.823198,134.569540L951.664885,133.531635L951.676051,132.453720L951.903466,131.766331L952.235922,131.063963L952.475809,129.951520L952.510505,128.912366L952.231563,128.426856L950.576894,128.004288L949.745556,127.619492L949.154693,127.149241L948.809314,126.083227L948.479518,125.663445L947.158742,124.999937L946.512782,124.396854L945.377569,122.899642L944.683174,122.281850L943.501777,118.908529L943.220250,118.229239L943.168071,118.103337L951.713205,118.489605L952.256262,118.346631L952.915715,118.078256L953.659561,117.932791L955.239586,117.980443L955.923640,117.777301L956.769226,118.278908L958.002968,118.331581L963.854994,117.644388L964.441314,117.413683L964.927905,116.373198L964.895099,116.017251L964.787852,115.686404L964.813090,115.235303L965.008445,114.779251L965.504268,113.985070L965.666967,113.524181L965.617187,113.118453L965.460056,112.672711L965.419755,112.151920L965.725230,111.496044L966.041396,111.250750L966.958505,110.892855L967.341170,110.682641L968.378178,109.276567L968.526618,108.808847L968.580477,107.998629L968.660236,107.571098L968.675359,107.328606L968.548128,106.841180L968.551913,106.566255L968.674769,106.348831L969.067289,106.073949L969.193364,105.886544L969.458724,104.692413L969.626565,104.260341L969.567949,103.735943L969.768823,103.221621L970.480408,102.155595L968.966857,99.466485L968.117705,98.431879L967.603320,97.631855L967.190570,97.275524L966.769768,97.126026L965.725264,96.986502L965.250844,96.854457L964.800019,96.199302L964.564439,94.555785L964.258330,93.851327L964.612120,93.288869L965.033293,92.174199L965.402006,91.726450L966.121731,91.427985L967.856006,90.386061L968.355779,90.308135L968.621384,90.266722L969.393553,90.333850L970.160965,90.284125L970.901765,89.814265L971.026561,89.525919L971.061237,89.143544L971.098691,88.730613L971.254523,88.357881L971.509201,88.096993L973.248216,86.924496L973.607052,86.589218L974.332566,85.432150L973.037253,84.270519L972.161245,82.881061L971.976363,81.316122L972.754015,79.632938L973.711594,78.418778L973.838662,77.839104L973.644572,77.011873L973.249672,76.358152L972.819820,75.924881L972.493581,75.437204L972.436636,74.600637L972.695099,73.855811L973.654108,72.304793L973.955264,71.491207L973.974389,70.910186L973.920002,70.057364L973.649391,68.453605L973.196310,66.894990L973.130884,66.215923L973.158371,65.290119L973.245708,64.818663L973.361436,64.557042L973.410091,64.290504L973.294631,63.789561L973.255147,63.473729L973.346123,62.264923L973.995254,62.075002L974.176040,61.473235L973.999352,60.841974L973.578058,60.563363L972.991902,60.420367L972.680071,60.023458L972.380427,59.017803L971.589934,57.081153L971.062061,56.231390L969.863516,55.024787L969.493353,54.485625L969.430292,53.884997L969.870477,53.259846L970.052389,52.364123L970.069124,52.356376L970.892093,51.975381L973.308603,52.174668L974.385765,52.068872L974.937424,51.579294L976.558517,49.464178L976.909694,48.598758L976.847209,47.423835L977.005680,47.087148L977.533834,46.487565L978.954553,45.399186L979.189588,45.013527L979.505366,44.303707L980.960421,42.381126L981.429261,41.917176L982.129398,41.806719L984.702596,41.769901L985.064940,41.536724L987.395349,40.618859L988.707449,39.708537L990.004771,38.526120L991.291725,36.701560L991.453398,36.657426L991.934140,36.745694L992.093779,36.701560L992.196692,36.439214L992.253946,36.069012L992.237761,35.782187L992.120633,35.760124L992.638821,35.387523L993.190454,35.193880L994.419033,35.110542L994.434607,34.703679L995.992243,32.520427L996.019418,32.204413L995.922800,31.888419L995.904966,31.513661L996.168112,31.033620L997.212070,30.061432L999.154646,27.562014L998.768081,27.097025L998.240142,26.395947L996.629876,24.817944L994.899393,23.780873L993.001735,23.143808L989.836213,22.545939L989.297400,22.531268L989.019525,22.743999L988.751544,23.033766L988.204394,23.371235L987.608494,23.641470L987.197944,23.744188L986.106159,23.366344L985.589315,22.609513L985.412056,21.684095L985.336842,20.805273L985.169703,20.360415L984.920392,19.953473L984.813075,19.542894L985.057475,19.094469L985.348811,18.702278L985.528184,18.258805L986.599408,14.397237L987.077526,13.507304L986.074092,13.202144L985.378272,13.108158L985.078408,12.776166L985.459519,10.737002L985.325076,9.956168L984.813871,9.387683L983.871465,9.025392L983.318688,10.034247L981.977405,10.406356L979.184593,10.511283L978.022270,10.194069L976.654970,8.204516L975.464861,8.013034L975.173929,9.420620L974.228550,9.940309L971.787612,10.122088L970.696833,9.920789L969.762975,9.243740L969.225037,8.993636L968.881443,8.833886L967.945298,9.434039L966.536963,9.984228L965.320666,9.475515L964.158627,8.548466L962.920990,7.837412L962.355663,7.920344L961.656148,8.267938L961.043464,8.681417L960.746893,8.959523L960.640131,9.619463L960.842854,11.148199L960.729135,11.897450L960.263755,12.480277L959.882271,12.958027L958.572427,13.683083L955.761025,14.547403L955.050707,14.651178L953.628183,14.612110L953.033610,14.706119L952.494068,15.029669L951.515087,16.007750L950.984844,16.411972L950.844186,15.660946L950.495330,14.839200L950.014430,14.210450L949.475546,14.037097L949.095929,14.004136L948.515537,13.624489L948.213876,13.622048L947.914426,13.850322L947.827752,14.133539L947.774206,14.454617L947.557958,14.795246L946.951333,15.178630L946.142382,15.436267L945.303970,15.548606L944.613377,15.486331L943.992547,15.165199L943.983675,14.720770L944.640797,13.235100L942.535589,13.153320L941.859756,12.849398L940.799157,12.145187L940.190640,12.003622L939.070995,12.517420L936.622222,13.048349L935.563220,12.989762L935.147733,13.113040L934.954141,13.373032L934.807480,13.679421L934.526129,13.957747L933.280712,13.955306L933.064613,12.590649L933.003384,11.314149L932.222295,11.582607L932.018382,12.125661L931.799450,12.915308L931.408652,13.529276L930.679037,13.545145L930.052648,13.451153L929.487248,13.684303L928.990533,14.143306L928.584906,14.713445L927.252583,15.918605L927.178506,15.937643L925.475450,16.375335L922.107503,16.187265L922.122950,16.097102L922.317134,14.963737L922.275658,14.337415L921.993856,13.965072L920.608918,13.470684L920.197101,12.627264L920.288890,11.747349L920.693426,10.895621L922.280186,8.879017L923.460450,7.869121L924.622556,7.204480L925.262361,6.732564L925.702270,6.138752L925.821873,5.315795L925.530366,4.613616L924.953041,4.091904L924.213221,3.806686L923.397355,3.878599L922.690649,4.167477L922.092298,4.317406L921.607937,3.965139L921.505332,3.199722L921.701276,1.170792L921.373536,0.453188L921.039891,0.000000Z "/></g></svg>