<?xml version="1.0" encoding="utf-8"?><!DOCTYPE svg  PUBLIC '-//W3C//DTD SVG 1.1//EN'  'http://www.w3.org/Graphics/SVG/1.1/DTD/svg11.dtd'><svg enable_background="new 0 0 1000 1796" height="1796px" pretty_print="False" style="stroke-linejoin: round; stroke:#000; fill: none;" version="1.1" viewBox="0 0 1000 1796" width="1000px" xmlns="http://www.w3.org/2000/svg" xmlns:xlink="http://www.w3.org/1999/xlink"><defs><style type="text/css"><![CDATA[path { fill-rule: evenodd; }]]></style></defs><metadata><views><view h="1796.80718273" padding="0" w="1000"><proj flip="auto" id="robinson" lon0="134.581331278"/><bbox h="86.32" w="48.07" x="1941.29" y="-135.77"/></view></views></metadata><g class="" fill="#000" id="country"><path d="M205.817323,1794.807183L211.145696,1790.834707L208.924189,1786.010988L204.291622,1784.805058L202.338543,1786.081925L199.521691,1789.572028L200.729598,1793.487753L205.817323,1794.807183Z M9.416032,1769.099593L15.405980,1765.439240L18.769108,1760.019648L16.001551,1756.018798L9.033777,1756.543732L3.409290,1760.544583L0.278426,1766.758670L2.680886,1770.433210L9.416032,1769.099593Z M297.670117,973.585264L295.548382,971.528077L293.659878,972.620514L295.963712,977.813139L297.670117,973.585264Z M860.656482,419.407175L861.629846,414.030116L859.845110,408.553744L855.496074,405.021059L849.313040,405.276434L848.784730,410.568368L851.897735,417.520239L856.682096,422.641923L860.656482,419.407175Z M879.726681,384.860637L883.676162,377.795268L886.243844,376.631894L889.182079,376.461644L890.293501,375.213145L887.368334,370.644774L889.870434,365.054905L890.996092,363.309844L890.621601,360.514910L890.094568,358.386787L888.795112,356.996413L886.350303,356.372164L876.989167,379.398454L875.865598,386.123323L877.186257,387.825822L879.726681,384.860637Z M926.534752,295.905121L929.298007,294.032374L935.485376,293.862124L939.160655,292.840626L940.686433,290.457130L938.974839,287.562885L936.250711,284.157891L935.511598,281.235272L939.903154,279.759774L939.176224,277.007404L938.059603,275.077908L936.684628,273.715911L934.953414,272.609287L932.328537,271.928289L932.594308,274.184097L933.851527,278.028902L933.928236,282.143270L932.021490,285.463139L922.022135,296.415870L918.314591,299.054741L916.364443,299.395240L905.768930,287.804072L904.955029,288.981633L905.185718,295.224122L906.093813,299.451990L908.216627,302.856985L911.356678,305.126981L915.416452,305.949855L919.880206,304.077108L926.534752,295.905121Z M953.290906,261.259310L945.870252,257.584755L940.451267,255.967383L935.996471,255.896446L933.934279,258.436003L933.698373,262.692245L934.604846,267.870672L939.907130,262.479432L942.828371,261.415372L947.060799,262.876682L948.938662,265.969551L951.360375,271.020291L954.285593,274.765783L957.389468,273.801035L958.446432,266.764049L953.290906,261.259310Z M991.872797,176.276400L992.186348,159.705452L989.946120,143.162883L985.377277,131.514987L983.688767,129.060559L980.761642,127.074316L977.961167,126.407506L976.879658,127.939751L977.894046,132.025735L981.273154,138.920836L985.116174,157.123335L983.734295,162.926004L976.591724,165.295309L968.946676,165.990494L963.904358,168.373987L960.513408,172.757910L957.780680,179.567890L958.037868,179.993513L958.423672,184.760499L958.319616,186.689994L957.802570,186.462994L954.317777,189.300486L950.689168,195.869280L948.503797,198.380460L953.955938,202.409699L956.568762,205.247192L957.609907,208.127246L956.443829,212.908421L953.731415,215.405415L950.937266,214.809541L949.399332,210.297928L946.383936,212.085548L944.149076,214.951416L942.640883,218.512469L941.957675,222.414022L941.844524,226.925636L942.686730,227.493135L944.425884,227.351260L947.065541,229.564505L949.459051,234.515931L952.618584,245.752405L955.983241,254.392574L956.587412,256.478132L957.976413,257.684067L961.349315,258.336691L962.925764,257.343568L965.789415,252.463078L967.120763,251.200393L969.067620,251.498330L972.090425,253.498763L975.715253,253.839263L977.284197,254.435136L978.605290,253.371076L979.751936,248.604086L976.680293,235.523241L977.772723,228.046446L984.133485,217.505160L986.056251,208.481933L987.363730,206.921312L987.198408,204.722255L983.395022,199.685707L983.496792,197.387338L988.811471,187.995240L991.872797,176.276400Z M993.913165,0.000000L989.325214,7.349459L989.648040,12.488794L992.619313,16.168812L997.561798,13.229027L999.721574,4.790367L997.777088,0.052874L993.913165,0.000000Z "/></g></svg>