<?xml version="1.0" encoding="utf-8"?><!DOCTYPE svg  PUBLIC '-//W3C//DTD SVG 1.1//EN'  'http://www.w3.org/Graphics/SVG/1.1/DTD/svg11.dtd'><svg enable_background="new 0 0 1000 1116" height="1116px" pretty_print="False" style="stroke-linejoin: round; stroke:#000; fill: none;" version="1.1" viewBox="0 0 1000 1116" width="1000px" xmlns="http://www.w3.org/2000/svg" xmlns:xlink="http://www.w3.org/1999/xlink"><defs><style type="text/css"><![CDATA[path { fill-rule: evenodd; }]]></style></defs><metadata><views><view h="1116.54315555" padding="0" w="1000"><proj flip="auto" id="robinson" lon0="-58.4726090596"/><bbox h="139.22" w="124.8" x="-907.94" y="323.41"/></view></views></metadata><g class="" fill="black" id="country"><path d="M802.776047,1114.543156L806.358726,1113.710272L807.984715,1110.448103L809.017222,1106.325179L810.815879,1102.937917L812.711162,1100.314129L813.705054,1097.634768L813.760547,1094.636054L812.847931,1090.970887L813.102221,1088.055359L815.553386,1086.528158L818.731539,1085.584064L821.165970,1084.362287L824.716344,1079.336257L826.665460,1077.600718L829.362013,1075.865162L832.328165,1076.087314L835.235037,1076.659121L835.292687,1076.670462L843.362424,1079.808003L843.363243,1079.808321L845.960633,1080.349805L848.102484,1080.274446L848.722942,1080.252615L851.453085,1079.808321L854.116966,1079.752784L856.560755,1080.696909L858.598886,1083.209923L860.967485,1088.249729L862.130600,1089.610314L863.620766,1090.443319L866.823913,1091.345738L874.261687,1095.316322L878.081493,1091.776120L881.539603,1086.680879L884.432821,1084.084610L887.227069,1083.584789L889.479485,1082.126971L891.041407,1079.822205L891.766594,1076.753769L891.633371,1074.893244L891.210895,1073.796359L891.002647,1072.893854L892.192243,1070.158545L892.250714,1068.756163L891.852187,1067.326001L891.161875,1065.743092L887.708170,1060.244469L887.535400,1058.217162L890.480809,1057.411788L892.234408,1056.370352L892.601287,1053.954200L892.735714,1051.190868L893.795197,1049.066273L896.040551,1048.802433L899.251426,1049.149590L902.034933,1048.871864L902.980759,1046.733361L902.499869,1040.526034L902.860442,1037.790316L903.912574,1035.221212L905.574546,1032.999263L907.430554,1031.582761L909.648962,1030.846732L914.937328,1030.124589L920.146127,1026.874919L922.913904,1026.916581L925.493163,1027.944259L927.767990,1029.152470L929.611836,1029.721854L934.194112,1029.971828L936.799556,1029.485768L938.446304,1027.874821L938.486684,1024.958428L936.260490,1019.667178L936.775691,1017.375662L943.282779,1009.528819L945.489679,1008.626072L951.053296,1008.112200L952.840244,1007.195560L954.229311,1005.112279L955.125718,1003.126206L955.677823,1000.765124L956.452394,994.584570L957.379532,991.917872L959.055454,990.001171L961.723918,989.265045L966.825652,989.265045L967.751982,989.765055L968.362824,990.459514L969.034822,990.792853L970.147265,990.181730L971.492791,988.001126L972.072477,985.014928L972.104370,981.709251L971.848321,978.625783L971.193729,976.139547L970.364373,974.236665L970.021032,972.347666L970.826513,969.916957L972.298790,967.722365L975.206473,964.916607L978.244319,960.694055L979.044415,958.860569L979.320180,956.679826L979.481586,948.470722L979.736776,947.720648L979.810959,946.998353L981.094291,942.761803L980.398819,936.705588L979.811119,934.066401L979.871571,933.420603L979.904751,933.066287L980.637863,931.288304L981.733933,929.301961L982.298514,927.787894L981.690378,926.051576L979.308761,923.412371L978.630594,921.370457L980.034843,912.772179L979.765765,909.757917L978.037237,905.451828L977.009868,901.367991L976.468626,899.965041L976.240099,898.617653L976.777155,897.173033L977.673139,896.700753L980.446081,896.520175L981.379915,896.172911L982.170450,894.144888L981.782564,891.630698L980.197445,885.574432L980.548554,883.379736L981.562319,881.254496L982.410366,878.865343L982.271915,875.892799L981.330542,874.267627L978.349610,870.878388L977.583596,869.058762L976.961172,866.405726L974.091113,859.377313L973.733124,855.835354L974.650197,854.557476L978.733381,854.793606L980.345906,853.585179L979.717229,850.876648L977.405860,846.543025L977.382717,844.191576L977.379777,843.890088L977.695935,840.653803L977.658524,837.445319L976.574073,834.903549L975.155007,832.459019L974.382258,829.486714L974.143159,826.597764L974.212931,825.083853L975.069605,820.347709L977.109210,815.347743L980.065199,812.167248L981.891408,809.167332L984.255766,804.375860L985.879150,795.584749L987.016786,793.196058L990.508349,789.376973L991.304492,787.016112L990.681473,784.474738L987.204386,779.308745L985.998410,776.711903L985.662016,774.448368L985.621991,771.934897L986.181056,767.310739L988.988858,742.913523L989.635459,740.705865L992.421060,735.582513L993.408255,730.849709L996.305065,717.006076L995.941614,712.646788L993.395921,703.428672L993.018811,699.319499L993.932662,694.974399L997.715123,687.853035L998.859349,684.910149L999.551788,680.759626L999.302392,676.859026L997.359482,672.666985L996.098483,669.585460L992.996164,665.740543L991.925600,664.061011L990.878013,659.036357L988.979470,654.775187L988.448270,652.609927L989.192695,648.487650L991.569804,644.684660L995.288202,641.464648L997.511622,639.410521L997.455371,639.379568L994.056119,637.509079L982.525006,630.555733L975.226502,621.035045L972.707564,619.175353L951.987799,607.254160L948.818259,606.352109L947.129134,607.295793L944.535641,610.681977L942.671072,611.819965L928.102253,617.440576L921.074613,621.951016L919.734062,623.616426L917.552337,627.224846L915.718315,628.473924L913.737937,628.820891L909.880221,629.001314L908.019470,630.000582L904.567857,631.138642L897.244485,631.069248L894.449893,632.665314L894.452576,632.693071L894.437638,632.693071L894.428675,632.693071L890.689993,634.872062L886.629167,635.232916L882.381860,634.316904L878.116672,632.693071L878.110697,632.693071L878.091427,632.679193L878.079476,632.679193L878.072157,632.665314L874.333337,631.818704L867.009639,631.221915L863.275506,629.500948L860.367777,626.503158L858.931208,623.019653L854.690250,597.088884L851.390048,588.734860L845.701519,582.851088L843.147176,579.368053L842.333415,574.872076L841.973631,570.043129L841.843984,569.563759L840.758082,565.547271L840.024227,560.884960L842.442038,553.419834L842.250654,549.284941L840.739806,546.745750L836.805993,542.694180L835.766353,539.683281L835.925310,537.463278L838.064654,531.358334L837.904845,529.110628L834.446805,519.120974L833.907459,517.941655L830.492326,515.818891L829.089802,514.070740L828.799310,511.850875L828.919309,506.953341L828.047954,504.331170L826.610902,502.263968L823.209437,498.448686L822.750529,496.173406L822.991392,491.650627L822.786786,489.333760L819.267633,478.984303L818.532267,473.962260L819.679624,469.883622L821.339399,465.999234L822.127050,461.532225L821.922412,460.353052L820.976593,458.188930L820.626564,457.023636L820.614525,455.886091L821.053846,453.666496L821.080600,452.626065L820.461205,449.851590L819.447050,448.256273L817.835628,447.285213L815.396374,446.369643L811.338440,444.066854L808.011130,440.584942L805.612795,436.229115L804.364756,431.360059L802.976751,419.999078L801.684543,416.739249L800.408709,415.324350L795.361769,411.523557L788.779776,402.992656L787.750473,405.766921L787.559168,406.724045L785.282294,405.309167L777.987902,404.573986L776.089323,403.575251L774.296643,402.146507L772.678952,401.341973L771.273601,402.229735L769.765601,402.701359L749.707069,401.619399L747.634094,401.092291L745.512574,399.746779L741.765214,396.154138L734.929059,392.006670L731.067679,388.344711L727.947259,383.905995L724.153937,375.708305L722.831127,374.307354L721.172038,374.127034L712.955243,375.749918L710.985820,376.401846L709.886901,377.539254L708.946559,378.773760L707.420622,381.589550L707.134507,382.421805L706.680873,384.544059L706.336751,385.126639L705.533094,385.598252L705.258575,385.917285L703.615957,389.704073L702.496473,391.174405L698.894951,394.295404L698.007651,394.767023L696.749707,395.183157L696.083967,395.987684L697.526419,398.415142L697.080382,399.497097L695.209800,399.025476L690.825188,394.128950L688.783200,393.047003L688.231867,393.587976L687.517862,396.001555L687.057526,396.889311L685.934041,397.735453L685.670692,397.471900L685.479532,396.875439L684.585121,396.695114L680.909439,397.929650L680.039826,398.026748L678.393528,397.416416L677.993709,397.638355L677.927987,398.512241L677.284317,399.760651L674.877564,402.921121L674.875905,402.923300L673.393997,403.478152L670.630813,403.048141L670.226016,401.341973L668.732195,397.985135L667.193446,395.932200L666.216369,399.413870L665.032121,399.344514L662.884055,398.220945L661.775971,398.165460L660.813687,398.331915L660.190880,397.804809L660.106069,395.654776L658.893131,396.570273L657.642378,396.528660L654.685808,395.516065L652.788213,395.682519L649.066434,395.363482L647.693628,395.765746L646.847185,396.154138L646.163485,396.084782L645.484065,395.862844L643.392770,395.474451L642.785362,394.919605L642.577161,394.337017L642.503040,394.045724L641.389525,393.463136L637.785041,392.048284L635.874998,391.743120L635.019561,391.965057L634.402407,392.436674L633.697353,392.797323L632.579439,392.700225L631.717195,391.978928L631.177774,389.912138L630.626788,389.385038L629.075259,389.801170L626.412485,392.395061L624.220805,392.825065L618.918205,391.465698L617.110500,391.299245L616.996830,391.701506L616.869191,392.547643L616.339367,393.255070L615.028840,393.282812L613.144633,392.200866L612.150833,391.951186L611.804914,392.769581L611.066204,392.755710L607.017828,390.147946L605.282470,389.454394L604.008587,389.357296L601.506937,388.344711L600.516353,388.330840L596.128026,389.468265L593.237847,387.540192L592.309388,387.151803L590.855311,386.985351L590.259989,387.165674L589.826108,387.540192L588.852864,387.984064L586.110833,388.427937L584.047296,387.886967L582.380155,386.291802L580.769717,383.531479L578.480515,378.163442L577.365574,377.636350L576.559269,377.872155L575.714525,378.413118L574.460254,378.801502L572.093524,378.690535L570.501297,378.191184L568.971590,378.052476L566.752747,378.981823L566.280259,378.995694L565.118776,378.551826L564.690768,378.593439L564.504247,379.051177L564.365810,379.841817L564.387778,380.549232L564.683685,380.771167L563.349480,381.534066L562.460320,381.714388L561.250144,381.395357L560.053070,381.353744L558.349873,383.073738L556.978133,383.420512L556.379002,382.962771L554.560087,381.020843L553.514133,380.396653L552.733886,380.521490L550.807969,381.436970L549.560693,381.436970L545.516693,380.022139L543.920643,378.357634L542.689694,376.221525L541.250349,375.028636L541.217526,375.010534L539.615481,374.127034L539.286031,372.739957L539.060855,370.714828L539.074006,368.870022L540.913398,361.005368L541.053866,359.701534L542.039404,358.522536L544.252119,353.043684L544.630561,351.379229L543.495153,348.286123L541.683586,346.080730L540.436878,344.152749L541.039338,341.836402L542.313393,338.909766L542.191987,336.343765L541.546644,333.888731L541.249088,331.295000L545.490360,322.321009L544.734743,321.044959L543.428161,320.254364L541.798408,318.326422L540.365612,315.913032L539.677438,313.638346L540.272586,311.349793L541.490559,308.298394L542.093755,305.621489L540.887336,304.470283L538.688417,303.499387L537.512002,301.127628L537.128126,298.145596L537.328251,295.316138L538.707160,290.739081L545.309763,277.826282L545.902366,274.317229L544.537668,272.999601L542.622506,272.389332L541.532722,270.988487L541.118692,270.239520L540.323972,269.532163L539.657405,268.505802L539.582280,266.827563L540.103656,265.787333L543.165176,263.165954L545.450902,258.949559L546.569730,253.262979L546.496041,246.980007L545.260204,241.002170L543.077558,236.910613L542.828064,235.010466L545.518123,229.739984L546.335833,226.633173L545.901534,223.706667L543.580570,221.681691L543.285274,224.025670L542.504109,224.025670L539.571135,220.904988L536.676669,218.505529L536.087749,218.505529L535.704294,218.172656L534.883364,217.923001L534.033514,217.271125L533.541690,215.759326L534.468157,214.039481L539.019857,211.154578L540.095674,209.767605L539.590948,207.340402L538.128189,205.301549L536.034258,203.886835L533.620461,203.359784L530.576717,203.054650L529.754485,202.236334L530.503467,201.029665L532.142120,199.614948L533.314438,198.019924L534.169315,197.270956L536.650783,196.702295L537.957740,196.036545L538.753864,195.024050L538.347842,193.734159L537.238439,192.652315L535.328373,191.279204L534.530243,190.530234L534.011076,189.670305L533.172406,187.686920L532.625578,186.854730L530.913759,185.620314L529.034516,185.301307L527.590188,186.327676L526.924345,191.001807L525.933624,191.154376L524.757906,190.211228L523.905689,188.699417L523.717183,187.145996L524.365791,184.566205L524.295188,183.123741L523.619792,181.639665L521.866085,179.018258L521.392821,177.159692L521.267457,174.247011L521.046693,172.735189L519.439951,169.517361L518.673891,166.285658L518.250769,162.845898L518.262823,160.127373L519.762265,156.243757L519.875438,153.858102L518.063286,152.790104L515.804569,152.193690L513.056707,150.667976L510.371612,148.545845L508.324109,146.215657L507.222079,143.968687L506.129025,140.639834L505.576241,137.227751L506.377268,133.538251L505.713871,132.262181L504.691764,131.221905L503.872665,130.722572L502.682622,130.805794L502.026431,131.568663L501.545917,132.345403L500.853962,132.553458L498.462876,130.847405L497.508811,128.364609L498.175458,126.117604L502.314610,124.508634L501.964130,123.093849L500.737672,121.568098L499.827302,120.638775L498.985104,120.361366L498.035537,120.513941L497.296941,120.042344L497.057567,117.892415L496.672244,114.397035L497.781847,107.295273L497.727269,104.493391L497.083843,98.834116L497.134247,95.851885L496.387243,91.650250L493.739917,83.965695L493.135362,79.665643L493.108938,75.226857L492.565104,73.312623L491.167231,71.759039L486.337501,68.665734L474.831783,61.327761L463.335194,53.975856L451.832085,46.637762L440.332135,39.285738L428.819698,31.947528L417.311672,24.609261L405.794835,17.257066L394.288488,9.904816L388.063576,5.937352L384.506327,3.343233L380.776592,0.638128L378.401171,0.000000L368.946184,0.138724L347.008811,0.457788L325.064377,0.762980L303.127356,1.082044L281.177239,1.387235L271.620147,1.525958L254.423950,5.673779L215.784823,14.995908L177.158762,24.317949L138.546976,33.653771L99.937893,42.975629L97.476171,43.391782L92.051446,44.307316L86.635889,45.222849L84.168293,45.639000L73.950923,47.359090L72.167053,48.205262L71.378936,49.800502L69.782829,56.403378L67.405873,66.252116L65.031549,76.114616L62.659798,85.990874L60.288322,95.851885L60.282303,95.851885L59.089200,99.319594L57.908316,102.787290L57.325818,104.472171L56.714309,106.241100L55.533799,109.708769L53.884009,112.912882L52.239177,116.103115L50.601852,119.307207L48.958730,122.511290L44.505622,130.680961L40.052808,138.836702L35.596885,147.006257L31.147385,155.161891L29.066969,158.982824L26.896049,162.970728L23.304099,169.961200L22.649761,173.539645L23.914972,185.745143L25.144666,197.548352L26.490511,210.447222L28.537573,229.989798L28.544832,230.058987L28.925126,238.866238L26.477166,252.652712L24.008819,266.550168L21.348326,281.529516L18.593298,297.146963L15.977493,311.377533L12.429809,330.823413L9.666619,346.025249L6.371284,364.237219L4.455388,376.193784L2.438967,388.899552L0.448212,395.599292L1.628554,395.835101L2.683922,396.445433L3.579410,397.319317L4.287481,398.359657L3.496121,398.359657L4.387394,400.162917L4.070040,401.563914L3.419123,402.742973L3.312940,403.852677L4.290812,405.073354L5.784548,405.933378L7.404475,406.432746L8.733721,406.599203L11.547216,407.348257L13.702232,409.137668L16.905919,413.104906L18.444452,413.812353L23.256802,415.379836L24.349753,416.309231L25.359451,418.334483L27.529606,420.456843L36.221966,426.463299L38.579480,427.392709L39.445830,427.516272L43.637012,428.114043L44.978708,428.530198L45.878716,429.085072L46.253641,429.723177L46.428961,430.402899L46.552350,431.887191L46.930439,432.858226L47.620871,433.052433L48.398974,432.983073L49.053448,433.177280L51.943890,436.395579L53.105330,438.795443L52.675939,441.042722L51.282172,443.470349L51.467577,445.148886L53.119038,446.508366L56.136031,447.923338L57.612663,448.311762L58.291940,448.214656L58.734853,448.450485L59.490429,449.837717L58.976952,452.792534L59.103880,454.540461L61.471693,456.052561L60.355482,459.201627L60.901028,459.923001L62.501141,460.408543L63.395320,461.559971L64.050196,463.072091L64.918406,464.500979L68.463217,468.246626L68.982905,469.245470L69.427733,470.452409L69.980230,471.479004L70.844024,471.909064L70.999311,472.380743L72.097257,473.351850L73.324975,474.184228L73.878748,474.211974L74.480863,475.848989L75.703486,477.402770L78.437274,480.163520L80.407908,482.896538L83.070341,487.849307L84.562754,489.874824L84.955506,491.151182L84.674723,494.286597L85.073367,494.910908L85.153299,495.521346L87.019934,498.101844L91.640031,502.971533L105.411557,511.406904L106.441246,512.405840L109.486789,516.498729L110.968186,517.816787L113.752812,519.412335L115.116903,520.577783L116.531024,522.173342L117.381311,523.463669L117.866526,525.045364L118.198998,527.528917L118.966325,529.873737L120.389164,531.025340L122.145956,531.816202L123.905064,533.037184L125.940744,535.201663L126.984741,535.839909L128.593444,536.325531L134.062460,536.325531L135.826315,537.185779L142.353487,543.776445L143.438203,544.345329L144.832473,544.608958L146.911264,544.664459L146.478265,545.774480L146.095715,547.314638L146.132961,548.660548L148.114839,549.950961L149.517283,553.100697L150.659746,553.822226L153.167196,553.947106L155.339749,554.391125L157.305657,555.237537L159.202174,556.569599L160.703920,557.901667L161.957888,558.775838L163.608277,559.261490L166.293436,559.400248L174.167975,562.980217L175.268983,564.686959L176.186022,566.809991L177.572377,568.641636L180.043956,569.404825L181.140924,569.918243L183.634476,572.360460L184.778257,573.151409L185.561482,573.206915L187.851162,573.026523L188.731303,573.151409L190.300865,574.414156L192.038744,576.259717L193.943314,577.924894L196.017204,578.660349L197.572240,579.839857L198.274362,582.559677L198.186495,585.612562L197.364851,587.818983L198.558369,589.054030L200.909595,592.578795L204.147704,594.438332L206.292901,596.991744L207.965478,599.767213L208.364467,601.571281L209.142680,602.348420L211.122548,605.311284L212.340795,606.490886L216.250501,608.988880L220.519827,607.614981L225.002220,609.849305L229.247523,613.263273L232.796341,615.400491L235.231207,615.705809L238.584674,615.618255L245.330784,615.442125L246.462507,615.830712L249.056143,618.009582L250.216393,618.328780L255.500186,618.023460L256.849087,618.148364L258.171820,618.620223L260.299784,619.813753L261.392900,620.063562L261.592970,620.826869L263.901592,625.115303L264.597299,625.365116L268.757516,625.573295L270.982856,626.669702L275.087177,629.570342L282.395282,631.069248L286.496127,630.888823L287.563865,631.069248L288.897771,631.901977L291.385476,634.067083L292.698658,634.816546L293.802159,635.024731L297.433767,634.816546L306.641291,636.287721L315.267940,635.996261L317.966930,635.330069L323.174127,633.262106L325.533388,632.998407L327.680119,633.553563L372.402526,662.881181L377.346726,667.725458L379.695511,670.682035L380.615988,671.500999L381.818913,671.945184L384.764039,672.347727L386.862034,673.624764L389.042728,674.082833L390.037934,674.790760L391.452132,676.262142L392.800975,677.289339L395.604935,678.913428L398.244935,680.093327L399.029776,680.759626L399.526442,681.689671L399.943944,682.911227L400.466052,683.966212L403.412082,685.326593L408.362270,689.532715L409.580134,690.837598L412.444907,695.599089L414.612694,698.097866L418.573832,699.597144L420.283448,701.499018L421.422240,701.929371L423.201075,702.207019L424.125157,702.915021L424.855406,703.817381L426.061702,704.761390L431.055528,706.510595L434.625027,708.995596L437.450276,710.009039L442.099128,713.035511L444.481130,713.924023L446.662303,713.951789L447.389009,714.104503L448.592241,714.854188L451.172870,717.297623L452.389738,718.172268L456.163619,719.130215L480.241369,736.943176L482.704919,737.595741L488.609381,737.748470L490.307556,738.276077L491.224623,738.970300L492.178439,739.400719L492.956574,739.969984L493.365956,741.039095L494.032435,741.677787L520.097471,746.954007L522.863490,748.356390L524.439869,749.842093L527.623917,753.910469L536.005807,762.713960L536.865454,764.019239L537.333845,765.074576L538.032410,765.838310L539.549856,766.296552L540.831089,766.074373L542.204470,765.282867L543.475730,764.213642L546.323212,760.617198L548.076878,759.103654L550.198117,759.034226L561.440732,766.643705L562.802933,768.671593L564.236613,768.588275L572.724888,772.893068L573.880304,772.990274L576.417495,772.643110L577.524191,772.893068L578.435365,774.017882L579.039380,775.545416L579.893360,776.906318L581.571910,777.475677L590.719791,777.503451L593.101218,778.392210L594.910996,779.933658L600.694047,786.238421L602.587094,787.613269L606.407245,789.488073L607.978500,791.237902L612.679900,800.001103L615.293167,803.334245L619.078951,805.876632L619.139742,805.917456L623.693457,815.375521L623.924188,817.000502L631.748046,822.931053L633.504061,824.764404L634.531611,826.528319L634.917187,828.722807L634.731662,840.389900L634.397210,842.778915L633.206772,844.292889L631.694359,844.709580L630.541783,845.667971L630.364412,848.793171L629.680142,849.626561L627.876469,849.682120L624.446176,849.209866L624.291790,849.834908L624.035815,852.835123L623.727220,853.876868L622.737720,854.640816L621.615004,854.765826L620.395199,854.668596L619.117695,854.793606L616.784019,855.877024L615.517881,857.335475L613.563348,861.224695L614.394719,862.335905L615.394174,863.099863L616.544805,863.627689L617.823282,863.974943L616.789601,865.683435L615.096382,867.808639L613.080666,869.614373L611.058426,870.392228L609.457760,871.517342L610.170394,874.100942L612.453620,878.656986L611.410368,880.518303L610.694405,881.127960L609.273555,882.337951L607.017706,883.699217L604.698426,884.671550L604.482458,885.616103L604.921094,886.560657L607.685874,887.602445L607.970431,889.005387L607.492096,890.547236L606.901270,891.589026L603.292193,895.075556L602.658257,897.103580L608.178949,898.756559L608.379926,900.548446L607.136954,902.701488L595.099844,913.216679L591.534816,915.522519L584.413143,918.411763L583.395749,919.689697L582.835182,924.204133L582.142936,926.982243L581.310686,928.454639L580.776532,927.482302L580.041737,926.718322L579.057012,926.148810L577.837704,925.704313L578.402651,928.107376L579.923536,929.468647L581.872883,930.440983L583.709036,931.705019L583.999919,933.510782L582.204393,935.122077L579.735000,936.274984L577.962408,936.705588L577.144312,937.650138L577.404716,939.830933L578.514114,944.136948L578.475740,946.345509L578.128497,948.262368L575.161120,955.443605L574.634791,957.582682L575.242364,959.277271L578.363591,962.027496L578.161235,963.416494L576.703403,964.694369L576.465947,965.750002L576.436554,968.097391L576.065792,970.180863L575.957535,972.222658L576.698869,974.500569L577.411984,975.264500L580.255876,977.250715L581.085181,978.278544L582.332778,980.181409L583.066344,980.917552L582.417931,981.764809L580.651483,983.264867L580.270076,983.681549L580.492303,985.264936L581.208131,986.473306L582.007566,987.542780L582.475830,988.765033L581.978937,989.584496L580.631101,989.681720L576.921613,988.945593L576.276008,988.487249L575.922790,988.653919L575.526992,990.181730L575.326215,992.737328L576.335157,1003.209538L575.982066,1003.890082L575.142266,1004.056745L573.743430,1004.028968L571.917471,1004.612290L572.250629,1005.973370L573.372749,1007.514995L573.933802,1008.612184L572.579081,1010.376010L570.591128,1010.056578L568.452701,1009.348270L566.616482,1009.987136L565.573174,1012.931457L567.189880,1014.806364L569.496584,1016.459050L570.525172,1018.792238L569.189999,1020.139367L563.989758,1020.597668L563.008130,1021.875350L562.169233,1023.569658L559.818063,1024.625124L554.915817,1026.055551L553.287569,1027.374871L552.562526,1029.069145L553.029468,1030.846732L554.960427,1032.471548L554.298607,1034.374097L552.593216,1037.012644L551.803972,1038.887384L551.537537,1039.942787L551.444818,1040.873204L551.640617,1043.108969L551.272330,1043.789414L550.294129,1043.567228L550.266088,1043.549187L549.387588,1042.983988L549.231487,1042.650708L549.162828,1042.123013L548.751605,1041.150940L548.040910,1040.567695L548.017224,1040.583232L547.045918,1041.220374L546.452666,1042.178560L546.041113,1043.164515L545.798885,1044.219899L545.667971,1045.400257L545.959516,1047.816501L546.443378,1049.885564L546.057281,1051.288071L540.382026,1052.343418L537.990894,1053.968086L536.689153,1056.703612L536.611536,1060.577723L537.534097,1062.313412L539.313976,1063.938004L542.441838,1066.159648L544.208378,1068.714508L544.761618,1071.463723L545.156322,1078.101523L545.162067,1078.197745L545.565540,1077.753446L555.208848,1073.116010L586.103478,1070.241854L598.879383,1071.935806L600.568457,1071.838613L607.331551,1070.505667L610.959040,1070.616435L610.969254,1070.616747L613.129446,1071.082846L620.132675,1072.593945L620.171280,1072.602275L623.892920,1074.171245L625.532690,1074.529756L630.779048,1075.676808L630.814977,1075.684664L635.962999,1077.434515L636.002640,1077.447990L648.066316,1080.016584L649.412571,1080.499482L649.459778,1080.516415L669.353651,1090.415552L671.245686,1091.071577L672.036386,1091.345738L675.022389,1091.651170L686.377375,1089.915749L689.392712,1089.901866L689.860209,1090.029773L692.386556,1090.720987L693.506430,1091.442921L695.613699,1093.369827L696.543014,1094.219561L697.837109,1094.913715L698.963593,1095.224505L704.370430,1096.716240L704.428940,1096.732383L705.656919,1097.329346L709.071605,1100.050359L710.219334,1100.758371L711.505563,1101.161513L711.548104,1101.174847L714.239988,1101.230377L715.239658,1101.396967L719.760854,1101.619087L723.401778,1100.730606L733.891988,1094.191795L737.827633,1092.414750L741.959756,1091.957800L741.970589,1091.956603L746.218819,1093.678120L754.273451,1101.105435L758.741583,1103.758517L758.785745,1103.784739L762.909539,1102.937917L768.146199,1098.134548L773.114689,1096.553885L775.870313,1095.677280L783.597388,1096.834809L783.655042,1096.843446L789.052916,1102.896270L791.690958,1106.533410L795.119287,1110.114941L798.949406,1113.002318L802.707366,1114.515501L802.776047,1114.543156Z "/></g></svg>