<?xml version="1.0" encoding="utf-8"?><!DOCTYPE svg  PUBLIC '-//W3C//DTD SVG 1.1//EN'  'http://www.w3.org/Graphics/SVG/1.1/DTD/svg11.dtd'><svg enable_background="new 0 0 1000 1113" height="1113px" pretty_print="False" style="stroke-linejoin: round; stroke:#000; fill: none;" version="1.1" viewBox="0 0 1000 1113" width="1000px" xmlns="http://www.w3.org/2000/svg" xmlns:xlink="http://www.w3.org/1999/xlink"><defs><style type="text/css"><![CDATA[path { fill-rule: evenodd; }]]></style></defs><metadata><views><view h="1113.94884269" padding="0" w="1000"><proj flip="auto" id="robinson" lon0="-58.4910505708"/><bbox h="138.68" w="124.6" x="-907.95" y="323.4"/></view></views></metadata><g class="" fill="#000" id="country"><path d="M799.266012,1111.948843L806.633855,1109.741712L811.806479,1096.472022L818.473987,1086.788435L826.617089,1080.691580L837.497276,1078.838832L851.119370,1081.256599L862.359229,1086.131456L871.224065,1093.463204L879.853035,1093.252979L888.259905,1085.487615L891.583175,1076.197650L889.827313,1065.369741L892.581925,1057.616395L899.839514,1052.951111L904.357655,1046.629825L906.135593,1038.678693L914.839373,1033.815891L930.475035,1032.067888L938.289967,1028.164411L938.277936,1022.092224L942.293531,1016.506224L950.337352,1011.406443L955.497021,1005.044746L957.770404,997.394778L962.442374,992.583890L969.511541,990.625342L975.725930,974.562276L981.131025,944.393431L981.771897,903.601667L977.236738,845.760778L975.768286,826.464166L988.596516,797.862887L991.466351,784.548988L988.616537,777.005190L990.628894,750.393121L997.606397,704.733421L998.366655,674.858732L992.799959,660.763345L991.738538,650.924582L996.882864,642.544166L999.550743,640.048478L983.636313,629.816375L974.707621,620.477749L963.725161,613.805598L952.111354,608.473233L946.958568,610.692852L941.506481,613.805598L930.862254,618.691490L919.024982,627.150043L912.814896,630.262955L901.624034,633.375898L888.859112,636.042285L877.966012,634.269070L868.598050,632.482730L862.335726,627.150043L858.153368,615.578695L857.214065,605.793950L853.943466,591.557348L846.280657,583.559376L843.393816,577.334482L842.295351,569.770205L842.271811,561.326244L843.602677,555.101738L841.747832,547.537921L838.181792,542.193439L838.086424,532.857186L835.362373,519.962745L830.021627,511.953161L826.861589,502.617586L826.010757,493.282207L821.712161,483.947015L820.401849,473.719214L822.633593,464.384395L822.947488,455.049742L818.898547,448.380355L812.009196,444.376136L806.068279,433.702729L804.074385,419.918163L798.028657,412.356470L791.715938,406.133890L785.186058,406.133890L774.875605,402.576279L766.075752,403.022620L751.818513,402.576279L745.091672,400.357704L741.202721,395.461110L731.772328,388.792342L725.753068,377.240278L719.405289,375.021775L710.881361,378.566131L708.199030,383.016289L705.289075,389.238675L699.770922,396.353785L691.662723,395.907447L683.566219,399.911365L675.532505,400.357704L664.855307,401.250385L653.772995,397.692798L640.346268,393.688893L628.962589,391.024010L618.438258,393.688893L610.940061,391.457217L601.208075,390.131342L590.368669,389.238675L581.270938,382.123630L571.681816,378.119804L566.808407,379.458787L560.673164,383.908949L553.674521,383.016289L544.510274,379.458787L540.284096,371.017982L540.573435,365.675243L542.017290,360.345663L544.794604,352.784535L542.151627,344.777151L542.288264,337.675569L543.270348,331.440388L544.176588,324.338883L542.424910,317.670591L541.412777,310.556028L540.049325,303.887795L538.266683,296.773290L541.983765,286.547873L545.087153,278.094544L542.156267,270.993242L542.494207,266.097159L544.874054,258.090171L547.869821,248.324286L545.901753,230.092024L541.506139,219.420434L537.501928,216.532670L536.260589,213.303624L537.721077,209.090108L535.353817,204.745326L534.201694,200.308655L535.856562,196.423281L532.427731,188.744401L526.717113,186.526053L524.596491,184.307704L521.936933,175.854326L519.550315,166.075139L519.666419,158.514279L516.393602,151.845988L512.195942,147.855500L507.728687,140.740848L503.408194,135.398269L501.220361,127.850357L497.816483,118.083936L498.209878,95.795330L494.198836,76.445418L491.423639,71.470031L455.116866,48.378091L422.148520,27.425491L378.967796,0.000000L326.433650,0.748336L272.015128,1.522929L221.218988,13.785047L171.249234,25.850088L147.567119,31.560909L100.060463,43.048088L71.933848,48.273066L66.470248,70.341047L58.289159,103.394740L48.995663,122.704620L38.057547,142.985512L22.668059,171.561992L25.872161,206.281096L28.935402,239.240970L20.653113,285.707789L13.671299,325.165859L6.991337,363.259863L2.401856,389.514352L0.449257,396.196254L3.757164,399.937620L4.106667,403.823410L14.701855,411.778844L35.531463,423.817195L56.238155,447.106879L76.836995,481.662481L95.506937,507.186872L112.215894,523.691850L127.220249,535.352085L140.504092,542.167177L147.793575,547.682367L149.103452,551.923866L161.790846,560.735305L185.849806,574.117018L201.578337,587.486107L208.980141,600.829456L232.799285,614.606774L273.040591,628.791870L301.918941,635.569427L319.442627,634.925815L345.864234,646.274603L381.202838,669.577804L402.976220,685.749332L411.169839,694.748536L434.227584,709.331854L491.084529,739.512842L515.543627,747.081678L527.493272,753.980571L535.095057,762.745749L541.941198,765.413479L548.027572,762.009829L561.815430,765.150647L583.299204,774.849863L600.557915,786.586116L623.976804,812.426090L631.690324,822.744284L635.509860,831.984904L635.449208,840.121557L630.193388,848.810454L619.754165,858.025313L616.839312,862.047821L617.026084,865.938899L615.001762,873.707970L607.403600,890.297978L605.895685,898.014635L606.065432,903.706835L600.758771,909.951173L586.085335,921.480189L583.453192,927.080359L583.384553,933.101180L581.794031,936.676852L579.782418,938.175477L577.431061,944.209391L576.173945,954.173806L577.509083,966.977481L581.439153,982.593882L581.681942,987.628351L578.479104,990.323015L576.944290,993.937780L577.151531,1001.232927L574.821396,1006.569461L569.959376,1009.960614L568.501545,1013.864338L570.457187,1018.267469L567.117289,1022.631103L558.479749,1026.928955L553.658824,1033.185034L552.656417,1041.399193L548.495759,1048.732559L541.191225,1055.211486L539.661636,1063.819095L546.009003,1079.732358L595.454034,1074.226594L637.134858,1080.034580L687.508971,1095.355218L720.308696,1100.689534L735.539629,1096.064718L747.371028,1096.721660L755.787118,1102.647159L766.221079,1103.869021L778.674450,1100.387348L789.685771,1103.080724L799.266012,1111.948843Z "/></g></svg>