<?xml version="1.0" encoding="utf-8"?><!DOCTYPE svg  PUBLIC '-//W3C//DTD SVG 1.1//EN'  'http://www.w3.org/Graphics/SVG/1.1/DTD/svg11.dtd'><svg enable_background="new 0 0 1000 2071" height="2071px" pretty_print="False" style="stroke-linejoin: round; stroke:#000; fill: none;" version="1.1" viewBox="0 0 1000 2071" width="1000px" xmlns="http://www.w3.org/2000/svg" xmlns:xlink="http://www.w3.org/1999/xlink"><defs><style type="text/css"><![CDATA[path { fill-rule: evenodd; }]]></style></defs><metadata><views><view h="2071.06631419" padding="0" w="1000"><proj flip="auto" id="robinson" lon0="51.1452536438"/><bbox h="26.67" w="12.88" x="730.85" y="-438.57"/></view></views></metadata><g class="" fill="#000" id="country"><path d="M483.937396,2069.066314L576.019559,2040.332003L674.182036,2013.631673L813.363897,1964.298854L845.699852,1934.164644L935.916376,1644.309498L986.411212,1547.979567L999.758462,1433.326909L979.787748,1309.515932L916.779089,1131.706011L856.182914,994.589116L837.571807,913.054060L800.172195,818.796850L825.592642,613.739325L862.820397,484.938636L813.679130,326.813256L626.897675,185.160451L465.838823,0.000000L303.892143,94.711019L200.349651,223.833591L124.206925,559.102681L99.733686,704.184451L41.192500,854.795476L3.615011,922.975740L0.241538,982.187258L54.156851,1271.105918L168.148996,1647.297885L160.765329,1697.018958L133.034287,1776.621257L203.864905,1919.351695L295.492866,2029.397618L340.263490,2056.987774L404.831407,2068.303461L483.937396,2069.066314Z "/></g></svg>