<?xml version="1.0" encoding="utf-8"?><!DOCTYPE svg  PUBLIC '-//W3C//DTD SVG 1.1//EN'  'http://www.w3.org/Graphics/SVG/1.1/DTD/svg11.dtd'><svg enable_background="new 0 0 1000 592" height="592px" pretty_print="False" style="stroke-linejoin: round; stroke:#000; fill: none;" version="1.1" viewBox="0 0 1000 592" width="1000px" xmlns="http://www.w3.org/2000/svg" xmlns:xlink="http://www.w3.org/1999/xlink"><defs><style type="text/css"><![CDATA[path { fill-rule: evenodd; }]]></style></defs><metadata><views><view h="592.270525549" padding="0" w="1000"><proj flip="auto" id="robinson" lon0="24.2391212598"/><bbox h="74.98" w="126.82" x="266.91" y="-806.79"/></view></views></metadata><g class="" fill="#000" id="country"><path d="M585.154818,590.270526L604.423107,585.049156L617.526017,578.028977L627.932847,564.808971L655.438494,547.378201L682.928749,537.596156L719.565022,529.662061L744.329821,526.958931L748.234118,529.668289L782.361568,545.690905L796.626504,545.746941L808.553759,548.586051L813.308858,552.819568L816.376956,553.877904L831.164271,549.918395L839.143414,558.683787L851.431810,570.946159L870.387095,577.263457L887.004108,580.842070L892.157856,581.389745L909.173558,581.165696L908.771349,574.132862L912.629822,550.366653L905.728219,510.593176L909.978059,500.565866L923.616884,483.726267L926.202173,474.956632L917.874190,476.198023L917.888701,471.413049L920.719083,467.020334L919.557991,456.865472L921.191484,452.563806L925.944123,444.882477L920.357910,430.980468L923.589338,424.941878L928.334721,421.471663L940.641131,423.760198L936.566521,430.080421L939.792520,437.060995L942.350694,446.312778L939.664918,451.589734L991.379471,440.609753L995.062792,431.386726L996.999041,423.172458L998.325627,401.133689L998.643553,395.806055L999.154363,387.251444L992.524932,380.322576L982.678080,373.021715L964.678414,366.746720L946.205012,368.897088L927.264761,379.470411L913.937171,383.398866L906.250258,380.685989L901.831165,380.842631L900.679022,383.874994L901.364283,386.355703L903.886771,388.278681L903.758197,389.681657L901.007803,390.558469L867.676743,383.110678L852.763872,376.061421L839.963552,362.796542L833.630185,354.662102L827.379717,347.547704L822.976901,343.713612L824.359967,341.943833L828.304039,339.947978L830.978543,337.525127L829.440071,329.043375L825.877391,319.296413L823.204003,314.578710L821.977144,307.177078L818.940593,295.649993L817.992682,274.262931L822.588226,247.342553L825.350723,233.970041L822.078394,226.646200L821.411204,209.519379L816.624611,201.057879L809.414654,189.998788L797.948917,165.946251L786.701775,157.580418L772.986148,148.375303L766.704626,141.426843L762.088225,133.771772L753.626787,126.173086L744.188490,119.185816L731.635649,101.735823L725.289258,93.852563L723.385099,91.727233L710.275034,80.539349L702.804289,70.436412L698.587237,62.137391L695.739518,54.450378L685.531290,39.272971L676.585099,27.861229L668.463964,19.747717L664.438727,13.998739L655.254080,6.756375L642.808999,0.989466L635.141542,0.000000L625.496181,0.466371L620.938699,1.934828L607.945343,4.323501L594.404143,7.708117L593.052263,19.394698L589.733221,25.705121L583.444289,34.979239L557.818512,38.201099L535.904542,42.734553L513.181631,45.534154L484.405319,56.859234L475.850153,66.854428L466.473592,69.641813L457.767280,70.461637L451.361049,64.899494L430.272233,49.960670L421.984708,42.917408L411.992754,40.842966L401.558209,42.015747L391.829649,45.483710L381.217601,46.145787L368.491487,41.145618L367.278904,41.631124L362.692454,42.305791L331.901567,36.259145L329.014343,35.256656L327.651266,35.004459L323.458811,34.550506L300.931045,35.307095L278.383720,23.101466L271.861845,22.729522L267.465214,27.672095L264.423451,33.169743L250.513447,38.629847L247.054471,40.824050L244.874047,44.014543L228.770306,59.968095L222.238196,64.193199L217.663672,65.063455L210.126843,63.386008L202.679655,64.666164L196.287708,68.077846L190.160065,69.162532L185.895241,73.223834L180.757093,81.920482L174.065895,89.286573L166.974645,93.858870L163.492454,97.939250L164.615740,112.059609L160.843755,116.120938L155.624588,120.213740L152.945792,123.827204L146.665014,145.323577L140.850335,152.208761L135.198748,157.492154L134.695121,162.315054L135.416001,167.837440L129.539781,178.862209L121.497843,190.301285L120.204660,194.996101L122.953827,201.328818L114.833390,208.612175L110.062867,212.108606L105.985900,213.777993L103.811432,218.338614L100.607837,229.442368L102.276603,234.423414L102.890507,238.994661L95.633859,241.670445L93.943687,246.681581L92.683684,252.913178L89.840545,255.739108L81.894138,260.918399L60.624732,258.665524L52.842911,260.402389L50.853047,264.108693L50.671236,267.078504L48.332416,269.865629L43.876331,273.363384L39.120519,274.929713L27.727600,270.620569L4.595580,274.992616L0.845637,278.137636L7.776441,285.596464L14.690677,295.279094L23.388731,299.748452L33.758448,305.059289L39.194423,308.923982L47.812974,320.514972L54.271844,326.192497L56.174113,325.916185L58.003578,324.427817L59.265422,323.253394L60.918526,324.321053L61.358103,327.831475L62.517627,335.610537L61.960432,343.908154L64.864138,351.745073L65.163645,354.185365L63.926004,356.418423L64.314097,358.431761L66.596319,360.557812L75.124533,365.737294L83.343481,373.723704L92.475374,379.345090L100.780460,382.935258L105.806353,383.167063L114.678870,389.637815L131.367352,394.284516L136.723975,395.893712L140.549122,398.542039L143.461355,401.615675L143.969552,404.901634L141.637836,406.491220L138.615778,410.940137L137.742909,416.345065L135.295068,417.721080L132.714398,417.827404L130.982097,419.415945L131.653961,421.746801L134.049219,423.966529L137.627843,425.979696L144.320711,427.992658L151.032911,430.955467L151.185296,433.280406L150.155511,435.823787L142.125771,436.773569L136.124070,437.198458L133.466339,438.254394L134.159654,442.752467L151.710904,447.430722L159.912694,451.864476L164.607012,457.614593L175.907808,461.422262L193.805103,463.282185L206.760710,469.191826L214.755826,479.148439L225.804615,476.753199L239.885074,462.002723L254.851434,458.151448L270.750597,465.216856L279.645986,471.026220L281.560849,475.574216L278.244534,477.414406L269.696604,476.541111L263.078370,479.354270L258.374198,485.834067L258.311382,492.748843L262.903044,500.085928L268.825219,505.146754L276.068215,507.938616L280.198586,511.764611L281.216354,516.636890L283.167942,517.976348L291.128077,523.408486L309.963564,532.072321L319.394088,538.362097L319.399911,542.285030L315.722938,546.139195L308.362642,549.937072L304.388494,554.948673L303.833200,561.179982L305.499044,565.574587L311.326635,569.408788L342.917150,564.385701L375.818591,566.975085L420.592636,575.502119L449.984679,578.458414L470.975744,574.518745L511.572797,581.651134L549.379070,588.291525L585.154818,590.270526Z "/></g></svg>