<?xml version="1.0" encoding="utf-8"?><!DOCTYPE svg  PUBLIC '-//W3C//DTD SVG 1.1//EN'  'http://www.w3.org/Graphics/SVG/1.1/DTD/svg11.dtd'><svg enable_background="new 0 0 1000 595" height="595px" pretty_print="False" style="stroke-linejoin: round; stroke:#000; fill: none;" version="1.1" viewBox="0 0 1000 595" width="1000px" xmlns="http://www.w3.org/2000/svg" xmlns:xlink="http://www.w3.org/1999/xlink"><defs><style type="text/css"><![CDATA[path { fill-rule: evenodd; }]]></style></defs><metadata><views><view h="595.759029687" padding="0" w="1000"><proj flip="auto" id="robinson" lon0="24.2464361412"/><bbox h="75.51" w="126.95" x="266.93" y="-806.98"/></view></views></metadata><g class="" fill="#000" id="country"><path d="M574.863980,593.759030L577.210851,593.206368L581.352891,591.505609L582.904006,591.255348L583.554940,591.150323L588.325123,591.387181L590.691212,591.173351L592.527750,590.278555L594.455394,589.860762L596.725746,588.959381L598.826906,587.745470L600.298275,586.363772L602.034147,585.189320L608.487406,585.008202L609.184299,584.988643L613.348108,583.323997L615.352871,579.770932L615.489267,579.293893L618.574722,576.138808L621.528547,574.553007L625.792112,569.015675L626.412923,567.202730L627.225910,565.712203L638.844354,557.561529L639.367686,555.593649L640.915021,553.138656L644.311272,549.340800L647.718383,547.616220L655.950501,545.694109L663.844992,542.494834L666.097838,542.199678L674.714572,541.070666L695.193288,538.386845L698.578803,537.300544L700.655151,537.083280L701.620803,536.833097L703.560031,535.680923L704.730807,535.424149L709.454406,535.424149L713.077509,534.423376L722.339630,529.254573L734.514677,528.161477L737.037079,526.640318L745.214281,530.788813L756.520205,532.731232L758.886608,533.817635L761.418375,533.606940L761.593318,533.715709L763.462347,534.877677L763.349273,537.761402L765.847838,539.966879L772.086767,542.435586L773.465966,543.429620L775.908702,546.556434L777.153957,547.273931L797.156283,547.122533L803.112603,545.404470L805.611065,546.154894L808.211307,550.018771L808.990068,550.819585L813.761700,555.725282L820.456048,554.237820L827.235110,550.644076L832.993794,550.045099L832.995569,550.058264L835.987444,553.731022L842.709149,568.383945L846.593072,570.841746L869.471558,579.507738L892.370096,582.916057L907.388602,582.143744L907.705486,580.900327L907.399000,579.542916L907.280751,578.185491L907.344284,576.905767L907.650185,575.771101L906.987058,574.558706L907.155966,573.361841L907.609261,572.180505L908.312334,565.180274L908.603999,563.947015L910.511900,559.557906L910.606852,557.832248L911.571908,554.116497L911.776951,551.768781L912.569139,550.576751L912.697619,549.529819L912.541526,548.773115L909.836678,542.200772L906.655981,531.884488L905.635865,529.515061L906.026097,528.265488L906.896859,527.280323L908.168410,526.969214L909.670747,527.705502L908.831222,526.824029L909.018610,525.714384L908.446280,523.806142L906.420780,519.792327L904.372231,517.085111L903.710324,515.513595L903.172560,510.658599L903.215382,508.879310L903.605416,507.328197L904.485197,505.865211L905.718873,504.801654L907.285250,504.168693L908.769137,505.087002L908.884911,503.530531L909.555851,500.635305L917.453177,489.555287L921.943145,486.264242L927.195597,474.716623L927.813464,472.571674L928.143653,470.078535L927.432197,472.524930L926.775069,474.269989L925.518626,475.630640L923.607663,476.092830L921.836736,476.825048L920.250343,478.569826L917.650861,482.266731L915.702531,483.502385L914.822554,484.519942L914.580666,487.541253L914.190865,488.958358L913.494839,489.892677L912.608678,489.711006L911.776152,487.229792L912.106427,483.741203L912.931125,480.501416L913.585725,478.787916L912.073340,477.780536L910.488116,477.043151L910.244151,477.552052L909.625048,478.180377L909.241500,478.787916L908.964173,476.804276L910.396676,475.537162L914.405683,474.425793L912.935023,473.958380L911.785007,473.226084L911.245156,472.228882L911.712677,470.945967L910.341764,470.945967L910.543309,469.283797L911.372496,468.395530L912.680578,468.130602L914.266293,468.328000L914.120666,469.657794L912.719621,472.602837L913.992305,471.475762L918.739449,469.200685L920.488528,468.317610L923.331127,465.283754L925.146576,463.969314L925.535130,463.101642L925.909884,462.498929L926.319741,462.145608L926.952062,462.223547L928.598672,463.096446L930.526689,462.644413L930.699333,462.239135L929.782445,461.350617L929.648322,460.399710L932.220003,461.615617L932.238310,463.735513L930.880247,466.177325L929.335977,468.328000L931.687174,467.673466L933.204688,465.637030L933.705062,463.091250L932.958440,460.877766L931.139218,459.807323L923.561765,457.791019L925.418453,460.399710L923.609665,462.847050L921.596156,464.810979L919.277386,466.120179L913.849237,466.992941L912.883013,466.416298L912.281108,464.369368L912.482895,462.530104L914.367432,461.948162L914.584200,460.399710L913.203864,461.480519L912.417536,460.789430L912.364495,459.136973L913.110078,457.354476L914.045618,456.502157L919.879774,453.092566L920.931657,452.707916L925.554905,452.551975L926.826232,452.276476L927.752526,451.605909L926.224772,450.545438L925.258867,449.245772L925.176762,448.060411L926.373263,447.316929L926.239005,446.365443L925.764753,446.199058L924.678413,445.491911L925.610419,445.346319L926.148822,445.003134L927.299350,443.755144L921.597528,439.142149L919.117062,438.252719L918.188618,437.576519L917.311247,436.598590L916.844771,435.459350L916.992379,435.058780L917.445411,434.835082L917.873075,434.491726L917.973732,433.758175L917.614778,432.899730L916.555651,432.259775L916.290827,431.526143L916.523759,428.835929L917.430910,427.373591L920.822273,424.188335L921.831406,423.813565L924.131030,423.673025L925.205902,423.162905L925.657144,422.028102L925.820518,420.842863L926.101513,420.186899L927.165278,420.020302L930.553736,420.973012L933.764903,420.973012L935.202785,421.467569L940.115074,424.110259L941.227568,425.421903L940.232804,427.092560L935.578780,428.669405L934.843190,431.094276L936.179260,438.783260L936.979985,441.134128L938.472741,443.027116L939.794335,442.631890L941.167436,441.701002L942.869889,442.013036L942.627308,440.603645L942.324000,439.605054L941.464928,437.566115L944.969701,440.452819L946.554857,442.153450L947.394777,443.755144L947.176264,446.646213L945.604761,448.876653L943.459848,450.306305L939.419647,451.210837L935.820017,452.947023L933.349020,453.342065L931.129701,454.194501L932.073040,456.174733L933.824483,458.513374L933.988832,460.399710L934.838086,461.350617L937.053931,458.061255L939.763635,455.441911L949.352645,449.152193L952.958542,448.070809L965.796785,447.316929L985.785188,444.540346L986.743536,444.285548L987.780212,443.807145L988.890559,443.604340L991.096502,444.571546L991.801941,443.978747L992.998077,442.013036L993.995205,441.498177L994.961314,441.357759L995.722523,440.858487L996.195109,439.303386L994.526177,436.931507L996.650982,433.399193L995.574597,430.657197L996.128682,429.434364L996.145926,427.555739L995.982267,425.484360L995.992115,423.673025L996.842433,420.041126L997.107960,417.885643L996.325898,406.625363L997.077110,403.082421L999.159323,400.878190L995.719880,400.570726L993.668398,398.830075L992.200513,396.547202L990.367450,394.670681L990.251944,393.873108L992.978797,393.779274L993.928534,393.951303L993.933577,393.952208L993.933893,393.951436L994.333767,393.016544L994.432524,392.063131L994.141845,391.136160L993.426746,390.328339L994.248955,386.639779L992.986592,381.652265L990.594006,377.259925L988.017062,375.378173L986.705235,374.795063L981.294964,370.997852L966.157302,366.450967L958.048933,365.741678L956.986631,365.463260L955.771701,364.946188L954.610427,364.727424L953.724791,365.304162L953.218291,365.973691L952.507280,366.643201L951.671479,367.193377L950.810271,367.491660L948.630370,367.524803L946.900892,367.246406L945.198321,367.306062L943.112509,368.373230L941.710800,369.559649L940.959878,370.480904L940.703053,371.395495L940.228633,371.766623L937.729721,371.905794L936.919651,372.263660L935.616178,373.615544L933.923906,374.317962L929.827853,375.378173L925.022015,379.214392L923.698880,379.830510L921.399464,379.903384L920.517046,380.135251L919.838133,380.625476L919.363987,381.725132L919.396298,384.195842L919.048100,385.083374L916.765714,385.851656L914.547812,384.791950L912.609677,383.195668L911.164499,382.380924L908.742871,382.009973L905.762901,380.314118L904.079469,379.830510L901.396063,380.426738L901.536059,382.261690L901.969068,384.189218L899.170200,385.500634L899.114203,386.480832L899.578834,387.639793L900.202187,388.586782L901.013920,389.149658L904.137056,390.328339L903.128683,391.506954L901.873361,392.003541L898.619940,392.082994L894.793632,392.533222L880.548467,389.825090L871.358418,385.878148L861.796445,383.805051L857.904269,381.990101L856.081158,381.579397L853.493285,380.234622L851.026466,377.041279L846.983175,370.116383L847.173276,367.564573L844.806180,365.158322L841.555533,363.673348L839.244268,363.890636L839.016902,363.912011L837.412964,362.426958L834.247909,359.529508L833.335179,358.216588L832.684525,353.892728L832.503507,353.594273L832.207852,353.322345L831.700067,352.526440L829.575449,349.793634L826.966965,348.188300L820.786598,345.508092L821.898990,344.061722L823.411632,342.635175L824.982348,341.553599L826.288831,341.128919L829.710510,341.155462L831.105748,340.518429L830.230659,338.852779L830.149546,336.788817L827.454316,323.903662L826.407406,322.701797L824.157546,319.633817L821.997243,315.735272L821.193033,312.015551L821.558097,311.318050L822.813358,310.461098L823.025596,309.823349L822.754546,309.338386L821.605381,307.704066L821.184139,306.753993L821.182930,305.737447L821.465268,304.754089L821.555338,303.777344L820.985379,302.760699L820.239812,301.870275L819.875599,301.099439L819.482821,299.657393L816.058903,293.210564L815.452855,291.389263L815.459330,290.119608L816.120471,285.605620L815.992460,284.914174L815.307462,284.535202L815.179461,283.843734L815.368755,283.198794L816.129574,282.733366L816.606491,280.918036L816.788582,280.224711L817.931322,275.870884L818.101206,272.698523L818.874134,269.705470L818.385690,268.581348L817.652081,267.696660L816.894167,266.944991L814.618498,264.250830L814.257052,263.153153L815.421930,262.674156L816.552125,262.408045L816.701188,261.709493L816.042215,259.513959L816.346348,258.622404L817.287875,258.156658L818.421977,257.843939L819.339428,257.398145L820.439082,256.340195L821.469003,253.671905L821.567310,253.226064L821.250282,251.645615L820.468078,249.033582L820.588471,248.095206L821.783983,247.729167L822.199926,247.183430L822.248958,243.249920L822.849831,242.650876L823.560356,242.367094L823.741424,242.294774L824.120771,241.565921L823.126800,239.815291L824.503658,239.182916L824.970858,238.204383L824.943617,237.132631L824.372779,233.138298L824.083407,232.066426L823.706986,231.936601L823.285390,232.056439L822.828901,231.736870L821.161940,229.456546L820.804342,228.431197L820.340960,223.603771L820.583945,222.631569L821.471729,222.065553L820.276640,219.947929L820.540698,218.099930L821.351154,216.491617L821.839725,215.103034L821.613325,213.341446L821.186537,211.971850L821.029084,211.466573L819.491701,207.979738L812.300458,198.000956L811.964657,195.575955L806.933882,189.439760L804.744541,185.821738L804.713259,184.794139L804.666377,183.256360L804.531352,182.296819L803.201641,181.034069L803.112549,179.491420L802.826200,178.025375L800.961284,177.012454L801.572961,175.069875L801.480770,174.746858L800.931013,172.820689L798.249450,168.125524L796.534063,165.936136L792.855585,162.456312L792.722462,162.330362L791.495602,160.200824L789.581292,161.060644L787.217959,160.167498L784.615144,158.857759L782.041611,158.437838L781.748583,156.578171L780.320068,155.585002L777.172017,153.951918L773.598955,150.955644L772.555824,150.352381L771.538141,150.082411L771.026472,149.699119L771.522187,148.752550L771.399322,147.875967L766.646570,145.799472L765.219548,144.352905L766.331392,144.042924L766.441157,143.496290L766.034259,142.719665L765.615508,141.706379L765.423317,141.626382L763.689559,138.103155L760.688914,135.259846L759.364933,133.633169L759.266648,132.019810L756.733440,128.899719L755.519749,127.906345L752.869561,127.366321L751.989291,126.929634L751.133886,126.366273L749.960502,125.772908L747.104191,125.239545L746.257947,124.892859L744.662456,122.989407L741.476240,117.919016L740.201413,117.059547L739.938454,116.882257L738.376471,116.052181L738.640084,112.078451L736.621627,110.718306L736.718412,109.204805L736.926215,107.877987L737.345276,106.884538L738.110438,106.314471L737.201300,105.057655L735.751030,104.034197L734.103453,103.270771L732.633718,102.790711L732.484582,102.864054L729.828507,102.790711L729.198090,102.537347L728.749638,102.217307L728.201458,101.943940L727.271861,101.830592L726.073677,101.010490L725.152634,99.130253L723.925152,95.663143L723.647502,95.576465L722.514515,95.449782L722.079254,95.223087L721.787750,94.656347L721.645712,93.486197L721.447816,93.019471L721.011760,92.216035L720.322626,90.577808L720.024538,89.869186L719.867423,89.495690L716.504860,88.455559L713.292239,85.975253L705.557678,78.461055L702.726308,75.047373L701.397873,72.213778L703.706198,71.800408L703.593691,70.993674L702.900776,70.056931L702.866915,68.673491L702.408583,67.606508L702.317041,67.393400L701.736826,66.960038L699.752981,65.816631L699.279190,65.233263L698.649432,64.139868L697.217590,62.199774L695.541143,60.329701L694.201381,59.466341L697.453098,57.619630L696.520710,56.522946L695.337109,56.056275L694.052579,55.739605L692.887003,55.059602L692.860169,54.259602L692.134445,50.276329L692.138212,49.696347L690.010963,47.819755L687.535821,46.713144L686.259496,45.539881L687.768821,43.450031L687.693696,42.912382L687.657044,42.650098L686.969361,42.353458L684.614018,40.886931L685.702284,39.957030L686.253562,38.823826L685.980323,37.627309L684.633789,36.480798L683.349214,37.140707L682.166485,35.384291L680.591975,33.741219L678.097307,34.721060L677.797280,34.354452L677.539970,33.914523L677.323802,33.427938L677.142545,32.888031L679.115400,32.078176L678.981735,31.121689L676.120091,29.811949L673.404769,27.955682L671.269681,25.476273L670.066520,22.317123L670.230555,21.597333L671.145123,20.417689L671.110917,19.783979L671.105191,19.677921L670.474209,19.024797L669.451283,18.368347L668.525086,18.025129L667.380112,18.918166L665.387672,18.365015L662.386633,16.952164L662.274606,16.149117L664.269904,16.042489L665.298234,15.072845L665.142726,13.959936L661.450817,12.823718L660.498026,11.454282L659.772260,9.968255L658.366619,9.028674L657.544894,9.771675L656.580810,11.201055L655.648307,11.644202L654.931604,9.461812L654.151290,8.492252L649.318090,4.770727L648.299604,5.353764L645.617752,2.875056L643.775617,2.135459L639.661555,2.848404L637.596564,2.481936L636.209720,0.526363L635.306736,1.942232L634.163637,1.742343L631.575135,0.000000L629.255243,0.079954L624.632397,2.045508L621.684581,3.284837L609.121203,5.730242L607.465800,6.073405L602.660151,6.269975L600.978782,6.656453L597.779960,8.089105L596.098191,8.552225L594.183756,8.395630L593.296809,8.095769L593.126530,12.357241L593.661843,15.279435L593.137271,19.358023L592.020592,23.370161L590.815397,26.112782L589.741663,27.329159L587.323054,29.248734L586.248758,30.621786L584.576589,35.021013L583.767821,36.327486L579.172799,38.227233L576.798620,38.246471L569.301460,38.307223L563.009764,39.970362L558.070561,39.550408L556.381755,39.833710L553.431619,40.986921L548.115826,41.560198L541.674955,43.879997L491.969044,48.526390L487.917541,51.119641L479.761715,65.073254L475.937349,68.580151L475.916988,68.586818L475.908945,68.606820L469.793863,70.973672L462.239575,72.137252L460.878150,72.346937L457.630169,72.847167L455.556794,71.727069L452.759327,68.580151L448.630342,63.296492L447.156212,61.793090L445.517976,60.666379L436.875694,57.899635L433.187496,56.066275L431.150460,54.292935L430.482959,52.702946L430.173760,51.012976L429.225053,48.959706L427.411483,47.273115L424.603441,45.513216L420.391746,43.532488L419.500685,43.113392L417.444950,42.690095L411.660063,42.770088L405.660963,41.566864L403.687515,41.626858L401.471180,42.706760L397.834933,45.649874L392.798289,45.789865L386.308342,48.726382L384.073799,48.653052L377.767014,46.676480L377.631486,46.779807L375.791284,46.466491L371.687948,43.450031L369.553970,42.643432L364.313694,41.473540L362.502563,40.446977L359.254468,40.306992L349.378240,43.899996L347.188404,43.926661L346.245167,41.936829L340.416646,37.767291L338.645291,37.054052L331.555740,37.367343L329.138571,37.087381L324.776419,35.880884L318.100852,35.240980L316.139693,34.701063L312.356480,35.290972L311.247054,35.574263L310.240865,36.360815L309.900094,37.220696L309.469807,37.953934L308.949610,38.557192L308.662998,38.766688L308.297550,39.033802L306.181409,39.140456L299.202540,36.337485L299.037657,36.287492L298.887380,36.270828L298.741118,36.287492L298.598870,36.337485L297.813482,36.587450L297.059767,36.660773L296.287200,36.577451L295.515776,36.327486L292.932186,34.041169L287.616597,30.515141L282.891931,26.256080L280.992704,25.159686L273.609082,23.073576L271.257016,22.786990L269.262957,23.636754L267.564385,26.256080L265.984520,32.281472L264.869411,34.481098L260.832962,37.414004L259.227167,37.627309L257.513834,37.200699L255.804639,36.360815L254.116298,35.427618L252.210512,34.714395L250.666401,34.821045L249.988769,36.347484L251.165556,38.960477L250.513513,40.706950L248.795156,41.766845L246.783123,42.313461L245.294572,43.979990L243.194811,48.026412L241.673602,49.333026L237.712965,50.626319L236.183936,51.599630L235.285162,53.342940L235.456317,54.446268L236.072982,55.279603L236.384470,56.222943L235.684257,57.672964L235.109747,58.019638L232.916399,58.212975L230.922357,59.026328L229.768490,59.863019L227.562424,62.689796L224.818893,64.913244L221.233438,66.283327L217.364402,66.763358L213.764872,66.269993L205.769296,62.869804L202.691224,63.493168L201.599443,68.586818L200.531129,69.540224L199.227420,70.013594L197.765408,70.123603L192.954142,69.516889L191.661487,69.623563L189.900659,70.183608L188.103778,71.080347L187.052798,72.100434L185.131445,74.987367L184.422646,75.660766L182.804072,76.734208L182.141285,77.534290L181.868003,78.494391L181.785784,80.861318L181.593371,81.974778L179.394635,85.061809L179.183141,85.915245L179.216479,86.868695L179.156496,87.710277L179.146619,87.848817L178.714939,88.822272L177.960785,89.342388L177.424272,89.712384L172.512754,90.795854L166.587832,94.876375L163.866283,97.703404L162.264271,100.860471L162.978338,104.877633L164.380088,109.344821L164.998116,113.648613L163.333753,117.225621L158.878840,118.379055L157.135758,119.345803L155.463170,121.142610L152.031945,126.086258L151.570694,127.592998L150.899438,132.213148L150.486068,133.386500L149.504910,135.299845L149.236611,136.729840L149.369383,138.226486L149.742572,139.393126L149.905416,140.583090L149.452146,142.173025L148.703697,143.209639L146.629001,145.066191L145.784639,146.299434L145.454997,147.469336L145.193249,149.745781L144.625422,150.882320L142.729936,152.638767L137.964548,155.531677L135.866338,157.394696L132.288058,161.527209L132.483393,161.948263L132.802900,162.636958L133.727266,163.003540L134.736500,163.170167L135.504892,163.670047L136.595923,165.176336L136.674369,165.309635L136.293776,165.436268L135.024368,171.807702L134.252021,172.747381L129.897653,176.059496L129.454957,176.206106L129.364459,176.552637L129.368751,178.072022L129.634715,179.644687L130.135404,181.020742L130.318246,182.416762L129.631924,184.062632L128.651038,184.858899L124.978709,185.728453L123.009960,187.460865L121.912498,189.559691L120.261693,194.759828L119.868462,195.372757L119.590155,196.062295L119.436022,196.815116L119.423136,197.591244L119.686229,197.954322L119.985602,198.257441L120.321614,198.503932L123.283458,200.139408L123.204104,202.684133L121.582460,205.088865L119.618372,206.094692L116.844543,206.520998L115.895326,208.033025L115.745429,208.520224L115.229185,210.197750L113.341286,212.628802L111.217038,213.647813L107.386863,213.394728L105.227039,213.880918L103.819638,215.519280L103.490007,217.953419L103.606970,222.891269L102.574146,225.251808L100.994155,227.192759L99.756093,229.236831L99.779511,231.889997L103.329800,236.853039L104.280980,239.682160L102.050924,241.256404L97.682086,241.419483L95.725312,242.038512L94.166108,243.795708L93.410999,246.591097L93.583902,252.321057L92.956289,254.809776L91.972887,256.766040L91.047585,257.438067L88.015745,257.418106L87.383254,257.717521L82.976976,262.900350L81.177351,263.512396L78.996373,262.002221L78.201482,261.257090L77.351053,260.904478L76.462321,260.904478L75.556655,261.257090L73.518365,261.323620L69.503358,259.879890L67.615925,259.540573L66.929224,259.733518L65.484462,260.465373L64.464799,260.545210L63.582502,260.192592L61.578026,258.822008L60.570516,258.396185L58.485259,258.316343L56.365988,258.841968L55.252577,259.386056L54.378096,259.813358L50.618451,262.720726L50.242386,263.439217L50.420104,264.649977L51.677382,267.510407L51.772407,268.541438L51.010545,269.259817L50.011421,269.126785L49.017385,268.834113L48.260628,269.080223L47.844485,270.038044L47.904324,271.597825L47.915161,271.880447L47.487994,273.150785L46.057283,274.667149L44.123174,275.558316L38.381023,276.622366L37.607467,276.602415L36.311813,276.190099L35.221623,275.584918L31.956921,273.190690L27.703197,271.707518L23.387410,270.876116L21.213266,274.381173L4.570760,274.780209L0.840677,279.375443L8.059589,286.390128L9.496400,288.318077L12.263487,294.207583L14.058747,296.281281L15.943230,297.424415L20.176924,298.992833L22.244279,300.135868L28.145674,304.508245L30.112591,305.285638L34.110350,305.664361L36.121144,306.342063L37.859971,307.723997L41.846330,313.065092L42.636875,313.662915L44.547444,314.719039L45.359002,315.522730L45.821819,316.592068L46.312873,319.208789L46.479791,319.620189L46.814055,320.444009L47.972434,321.911592L50.626358,324.567653L51.791279,326.307235L53.137836,327.296489L54.550506,327.562054L55.909729,327.196901L57.125468,326.267398L57.586097,324.780127L58.386595,323.677901L59.493720,323.266215L60.830019,323.837262L61.817377,325.092195L61.915920,326.267398L61.631816,327.482385L61.508877,328.803538L62.276245,335.481335L62.182335,337.299846L61.876223,338.408145L60.965646,340.757318L60.486552,343.968833L61.076280,346.065387L64.595497,350.636060L66.231919,353.607538L66.146271,355.404841L64.776923,356.744441L62.608754,358.375734L63.458551,360.172680L65.053125,361.041265L66.967053,361.558423L68.762836,362.287729L70.393661,363.613682L74.236753,367.949020L81.504927,373.237820L85.992727,377.842970L87.701888,378.969265L91.516073,380.418903L96.644692,382.367676L97.797429,383.102935L98.771401,383.983888L99.760666,384.699223L101.015170,384.957532L101.984518,384.540262L103.498348,382.930714L104.540566,382.698877L106.344487,383.791804L110.371538,388.355005L112.254861,390.103203L115.933118,392.222036L117.867264,392.897370L122.275739,393.016544L133.667371,396.028779L136.754927,397.418894L139.626164,399.311948L142.519724,402.044748L143.550594,403.018122L144.202849,404.712149L143.983596,406.320018L142.772413,407.312466L141.474737,407.378628L140.435693,407.854984L139.625344,408.662117L138.947003,409.700756L139.106586,409.885985L139.254436,410.679806L139.353516,411.625733L139.355319,412.260736L139.120244,412.796504L138.332824,413.722488L138.076121,414.258216L137.854494,416.057096L137.894658,416.956473L137.624597,417.571465L136.408110,418.523671L135.353105,418.854288L132.705776,419.019594L131.717731,419.475831L131.068736,420.494060L130.710362,421.814668L131.038484,422.892277L132.485738,423.216209L134.263576,423.295538L134.655604,423.949994L134.484963,424.796125L134.622160,425.490190L137.199355,426.917903L142.297855,427.684595L145.027372,428.808141L148.794317,430.043969L150.451274,431.226856L151.510588,433.295088L151.476694,435.746299L150.112059,436.836367L145.978282,437.880136L143.082186,438.269884L136.986373,438.005649L134.280042,438.871007L133.029606,439.927886L132.225144,441.328168L132.029362,443.078391L133.875014,443.753738L133.879533,443.755392L133.960575,443.785045L135.969962,445.033190L138.136550,448.407448L139.904944,449.100725L148.886482,449.965641L155.233560,449.503476L157.339653,450.011857L159.334018,451.510522L160.456384,453.550396L161.325719,455.854114L162.551780,458.157605L166.731393,461.510137L171.987212,462.862897L177.389395,462.836503L181.991211,461.991860L185.664032,460.546662L187.414023,460.130904L189.177151,460.447673L199.095077,464.750038L202.486537,465.225100L203.620566,466.122413L207.199956,472.277393L207.514411,473.190913L207.807886,474.043433L208.362505,475.654426L209.029674,476.630519L210.229966,477.534034L211.487143,478.160541L212.539166,478.991465L214.050188,482.684160L216.034515,484.233629L218.467565,485.123711L220.753331,485.347876L223.191908,484.780868L224.420902,483.534730L234.314811,464.829216L234.713111,462.823305L236.148446,461.807091L240.389575,460.949215L242.314469,459.866927L245.576306,456.382155L246.597076,455.636294L249.167562,455.722102L251.130123,456.078533L252.762240,456.870582L260.804654,463.872470L264.660913,466.399519L268.353421,467.923542L276.710431,468.794371L278.341577,469.757527L284.187949,474.895950L283.827830,477.210883L282.169884,478.846385L279.938888,479.802581L277.962334,480.125702L275.648853,479.650911L271.593763,477.408731L269.312192,476.630519L267.119202,476.557973L265.102514,477.105363L263.686049,478.391356L263.313312,480.514761L263.231120,482.723722L262.502189,483.969895L261.208147,484.503953L257.544931,484.649004L256.601336,484.925917L255.938321,485.492922L255.614264,486.686234L255.531035,488.400297L255.690907,490.061526L256.118598,491.103043L258.509089,492.869586L259.071163,493.752819L259.273111,494.708528L259.244622,496.725308L259.470357,497.700698L261.715442,501.397688L264.873729,504.725285L268.670422,507.347600L272.864243,508.941977L277.256899,509.482204L279.339422,510.292530L280.364346,512.025116L280.604919,518.151113L281.375685,520.034828L281.476470,520.091305L305.494556,533.541098L309.452027,534.996189L314.287329,535.562412L316.502846,536.400518L318.986698,537.340046L320.377805,541.257204L319.022924,545.167492L315.552666,546.944805L313.292817,547.214688L309.247409,548.412692L307.107431,548.689152L305.145982,549.893709L304.290129,552.756906L302.804282,562.316468L303.176208,565.198903L304.745377,567.610728L307.629879,569.634240L310.941674,570.308735L324.799096,569.214239L333.061161,568.561620L336.088943,567.367245L339.694011,566.676277L343.429408,564.823798L352.824812,563.640074L369.676339,564.402624L381.651167,569.900749L384.660078,570.336090L386.290311,570.571951L394.988926,568.831421L397.359170,569.229541L403.709554,572.315739L441.413109,580.432282L442.467651,580.659207L461.021381,579.855365L463.273849,579.757772L465.031391,579.267573L470.435556,575.408421L474.006468,574.358893L477.603447,574.730671L495.258623,580.313006L500.048812,581.827115L505.069651,582.458768L527.100721,581.083603L539.973483,584.988643L553.725566,585.886755L558.153385,586.807890L561.852200,588.622822L562.223028,588.804764L566.131040,591.255593L570.219716,593.219527L574.863980,593.759030Z "/></g></svg>