<?xml version="1.0" encoding="utf-8"?><!DOCTYPE svg  PUBLIC '-//W3C//DTD SVG 1.1//EN'  'http://www.w3.org/Graphics/SVG/1.1/DTD/svg11.dtd'><svg enable_background="new 0 0 1000 1077" height="1077px" pretty_print="False" style="stroke-linejoin: round; stroke:#000; fill: none;" version="1.1" viewBox="0 0 1000 1077" width="1000px" xmlns="http://www.w3.org/2000/svg" xmlns:xlink="http://www.w3.org/1999/xlink"><defs><style type="text/css"><![CDATA[path { fill-rule: evenodd; }]]></style></defs><metadata><views><view h="1077.13093149" padding="0" w="1000"><proj flip="auto" id="robinson" lon0="20.9967687424"/><bbox h="63.99" w="59.47" x="248.94" y="-772.53"/></view></views></metadata><g class="" fill="#000" id="country"><path d="M730.797489,1075.130931L734.023334,1073.197675L736.944712,1069.634772L739.731671,1068.027623L760.646845,1055.964228L765.118297,1055.033252L774.188513,1055.124938L775.744849,1054.772299L782.818769,1048.813096L785.148714,1047.783532L788.037274,1048.333570L800.710592,1053.925977L808.350202,1056.288664L812.421061,1056.706949L815.969482,1057.071550L823.681094,1055.780853L853.702735,1044.025103L859.101991,1038.511375L861.126661,1038.172956L862.270177,1039.498443L862.913722,1044.137922L863.773233,1046.112300L867.459697,1049.617016L871.344386,1052.092330L875.489406,1053.460506L879.986025,1053.700294L884.103852,1051.640981L893.522610,1051.485831L897.519851,1050.301065L900.395194,1046.436670L902.955811,1036.417445L906.017647,1032.342637L909.325750,1030.855201L912.099110,1030.298305L914.486103,1028.733388L916.439418,1024.370198L918.479123,1014.369343L918.655520,1008.696670L917.313277,1004.602840L917.308836,1004.560565L915.173938,1000.713626L911.967294,997.571447L904.551613,993.090968L891.814312,983.335126L890.791062,982.940700L891.016480,977.510548L892.689960,966.577272L893.123335,963.743590L893.467618,957.019616L891.462002,953.281237L896.297436,943.299136L899.041824,940.751040L899.212556,939.934542L899.193442,939.089899L899.035663,938.259342L898.692515,937.442872L895.078815,935.070938L891.609629,930.967740L885.016294,919.384256L884.115515,918.370958L884.357263,917.343600L884.946858,916.400950L886.174826,914.437513L887.966256,912.833229L893.422287,910.124311L895.612513,908.323105L898.626951,903.510694L900.492555,901.955864L903.589952,901.892546L907.662610,902.441306L909.138112,901.611132L909.194628,901.524825L910.202275,899.985984L913.082288,898.100568L919.167640,897.390030L936.615761,901.463390L943.317803,899.971913L949.902502,897.390030L952.256522,894.533864L952.389770,894.132323L953.402577,891.079851L955.970909,877.855876L957.000374,874.416526L958.338844,872.116657L960.822942,870.710034L966.932606,869.401892L969.761225,868.382115L969.784547,868.382115L969.806351,868.368049L969.801794,868.325851L972.379709,864.556278L980.988639,856.623715L981.949861,854.521115L983.040362,849.528468L983.951815,847.615847L985.700038,846.111085L989.349703,844.514931L991.060528,843.312556L994.979766,837.132100L998.151751,828.174804L999.535373,819.077452L998.781964,815.624412L998.088874,812.448105L994.177087,810.971827L982.856647,808.841793L978.610462,806.641487L975.162092,803.850721L968.419399,796.680680L962.446460,791.865647L960.849831,790.031042L959.917385,787.880146L958.679118,782.917695L957.628778,780.752804L954.389624,777.083778L936.730980,762.794696L934.645353,761.557905L933.447978,760.847831L929.589522,759.385931L927.377829,759.161023L923.117610,759.357817L920.900745,758.654982L919.467879,757.413799L918.872323,756.897902L915.855909,752.245186L913.978801,750.593554L911.829460,750.080495L906.992198,750.312426L904.544300,749.834508L902.249148,748.400757L898.682471,744.668805L896.971463,743.256151L889.167493,740.128645L885.798324,737.570425L883.099049,732.376700L877.496872,719.445178L874.215896,714.455308L873.885287,713.112961L873.970827,711.749530L874.453776,710.407183L874.656956,709.704382L874.674168,709.001582L874.509209,708.333921L874.159816,707.680316L873.315253,706.745590L872.973720,705.733556L873.100065,704.749632L873.737712,703.765708L873.795310,703.653259L873.826635,703.512699L873.764992,703.372138L873.675561,703.189409L871.593464,699.830001L870.711175,693.589056L868.837404,690.004703L866.300184,688.022757L859.332537,684.810864L856.273958,682.512625L853.921675,679.652109L851.775157,676.327701L849.952997,672.778353L848.572227,669.228969L848.282135,666.965778L848.629185,662.425287L848.169084,660.309647L841.680433,654.173494L837.939190,646.807098L838.485024,640.881472L840.687319,634.611230L841.919222,626.238866L841.479842,618.084035L842.003821,616.706110L843.839664,613.085482L844.288128,611.869213L844.339364,607.622740L843.602184,599.734088L843.747208,596.359125L846.082972,592.660628L850.930300,590.748055L857.903038,589.749641L861.340956,589.257353L866.311922,589.130783L868.531459,586.304022L869.819820,582.380200L872.046837,578.990700L876.479946,577.556109L881.123266,577.837403L885.034774,577.148232L887.217379,572.942794L886.932740,570.551670L884.843658,564.798691L884.321193,562.140117L884.426007,559.073528L885.860587,551.012731L885.534727,550.998663L885.000631,550.140493L884.587175,548.691435L884.706545,547.031321L885.200793,546.679598L888.433468,542.993464L891.302670,538.111217L893.071986,536.296134L902.243913,532.364383L902.028591,532.243722L900.381889,528.219263L899.867917,515.131386L897.678219,511.429804L893.229015,509.698585L883.844333,508.544417L874.884450,505.138113L866.773011,499.535673L860.025492,492.426432L855.228983,484.528004L854.746713,482.444133L854.807578,478.135386L854.376125,476.093563L853.175283,474.206581L848.068123,470.432454L847.154383,468.207306L846.812824,464.658176L846.990640,460.996166L847.682970,458.446718L849.099468,457.235341L851.115411,456.643730L858.941684,456.333836L861.706336,455.192850L863.263661,452.530464L863.439259,447.811133L864.235593,443.274587L867.261797,440.527129L871.570348,439.357659L876.255559,439.512650L881.130016,441.175259L889.793508,445.965562L894.736141,446.979929L898.958947,446.289598L903.725356,444.246734L907.267471,440.752566L908.036848,435.806832L895.546374,424.828855L892.061515,422.771123L874.207194,420.910641L866.318340,417.654643L858.079640,412.255733L840.897437,397.296560L837.410503,395.604387L833.217592,394.842891L827.725880,394.659567L825.545057,396.253060L818.576310,403.698097L814.463875,406.010349L805.402919,407.843158L802.336401,410.014248L801.485454,414.299772L780.347626,454.263141L777.721944,456.925450L772.512048,458.136833L767.628628,457.657918L762.430540,455.756302L758.191128,452.445942L754.962908,444.556690L752.715315,442.781463L750.029420,441.442963L747.465058,439.512650L746.039687,437.427276L744.854771,433.985473L744.227778,432.164108L743.555961,430.212420L735.908777,417.062622L733.485982,415.145557L726.240303,414.130613L705.051164,404.938831L701.284332,404.262071L697.545566,405.150316L689.698773,408.237908L679.867229,410.042443L668.325743,410.098834L657.096957,407.208731L648.167428,400.046218L645.548013,395.124928L643.690723,390.203153L641.292844,385.845067L637.031987,382.643246L632.532427,381.557118L618.972222,382.544509L599.783627,380.696661L596.005545,379.215510L591.376741,372.006581L587.083790,369.339983L586.910647,369.276631L586.900993,369.273099L582.957852,367.830254L583.376131,364.090991L585.094822,361.099361L587.766314,358.841395L593.548251,356.992601L606.571642,357.557126L612.759003,356.724449L621.590605,354.494491L624.506076,352.165617L624.578490,346.928730L622.315319,342.510058L618.775317,339.982881L610.727433,337.342599L604.895960,334.942200L594.003275,333.304202L588.497231,330.253967L588.204117,328.771133L588.568684,326.963416L587.731135,325.565206L583.932876,325.395723L580.840891,324.703659L580.139875,322.401404L580.905525,319.579992L582.292069,317.404597L584.402976,316.429870L590.058859,316.076702L592.312821,315.370358L594.911784,313.336018L595.488755,312.022120L595.402947,310.100646L595.876443,306.257431L596.424875,305.112876L598.107157,303.134559L598.609382,301.989919L598.605529,300.633268L598.393851,298.612342L598.077977,296.916386L597.737035,296.520653L599.186277,294.301654L600.917546,292.577256L603.137409,291.559546L605.909829,291.418195L608.497458,289.297881L608.965880,285.862750L607.572372,282.243550L605.369971,280.163985L599.188028,274.325500L593.053780,270.281087L586.457373,267.311177L562.119738,260.875692L552.701258,260.621082L548.569056,259.178267L540.710648,254.651488L536.687026,250.916555L528.083439,241.167509L524.229453,238.832526L522.002808,239.327836L518.768589,242.766551L516.697625,243.658028L514.017442,243.106163L511.903928,241.577888L509.823088,239.695776L507.360324,238.124933L496.403293,233.961480L488.254484,230.864403L484.602948,228.458132L475.014995,218.619465L459.486916,207.320216L451.276348,198.057989L447.792172,195.225159L443.955575,193.667035L439.866566,192.562154L436.459842,190.706466L434.644293,186.867383L439.276476,183.382209L442.202016,180.520223L442.384998,176.680378L438.888869,170.331968L431.370242,160.566959L430.110318,156.087779L431.133877,149.226544L433.079279,144.207657L433.733271,141.839832L433.933905,137.954678L432.294463,123.687908L432.557115,120.865332L433.164090,118.269575L432.953556,115.758814L430.844117,113.077714L427.989184,111.857702L425.623868,112.737248L423.913645,115.092097L422.929536,118.269575L420.332172,120.255410L417.428262,121.035541L414.410164,120.468174L411.533314,118.354683L409.044521,114.638158L403.374549,108.963619L400.899731,105.828203L400.185593,104.068153L399.828983,103.189219L398.779869,97.598730L397.791086,95.314143L396.057233,93.597100L391.975400,91.340746L390.286443,90.063528L381.769792,78.652552L378.054876,75.700122L373.758918,74.252246L365.217913,73.443124L361.015695,71.782264L348.407669,62.440904L343.990871,59.998870L334.945801,56.648025L330.919700,54.205778L327.084219,49.775428L321.172482,37.192801L318.102809,33.073838L302.679973,18.087324L289.751179,9.207604L285.627838,7.800959L280.295736,10.116936L278.687337,10.287435L276.914183,9.491771L274.378147,6.777928L273.105939,5.953810L269.414503,5.200728L267.262530,5.428075L261.918199,7.857794L255.686392,8.497180L245.969026,3.978731L231.688652,2.841972L222.951131,4.532895L219.682073,5.742203L201.898587,12.319179L197.962990,11.637201L183.703032,4.170097L178.617231,1.506258L173.891058,0.213152L169.109800,0.000000L156.457657,2.174118L151.730298,2.046230L147.693699,2.671457L142.428954,4.802871L137.564891,7.772542L134.661009,10.898384L135.267622,13.157435L137.158089,15.672145L137.949314,17.945257L132.372956,20.672897L130.993359,22.519679L130.069170,24.579496L128.671835,26.482998L125.191061,29.110885L123.355550,29.792699L120.936291,30.119399L118.272510,31.241532L116.691500,33.627782L115.305916,36.383231L113.244580,38.542063L109.639446,39.649860L101.442645,39.692467L97.485303,40.473594L95.686164,41.717540L93.315357,43.356587L91.988495,46.750695L91.275911,50.102034L89.021092,52.899423L82.954090,53.921790L63.357607,52.175237L58.196889,49.690226L58.192873,49.647625L54.406652,44.237084L49.259950,42.618098L44.327471,44.492709L41.333251,49.690226L41.846304,57.840718L38.015413,58.777819L32.335558,58.082094L27.367411,61.319283L26.772770,62.313125L26.637810,63.321150L26.985480,64.343356L28.900609,66.685852L29.513737,67.849970L29.320974,68.730143L28.110674,69.269598L23.713581,67.594434L10.014857,66.700049L11.672042,70.958915L8.066120,73.102438L6.458455,74.550340L4.629622,76.580187L9.482345,79.702902L12.029625,81.945484L12.892647,84.074444L11.455168,85.876907L8.706389,86.402024L1.697550,86.983905L1.750369,94.476913L1.440324,96.080412L0.745407,97.243986L0.464627,98.421728L1.446875,100.110257L5.122043,103.132465L6.923393,105.487695L14.009010,112.368407L15.427640,116.524820L17.118961,124.850940L19.306097,128.382439L22.553927,130.481380L26.516775,132.367524L29.983118,134.835016L31.634434,138.762926L30.615136,141.130882L25.189245,148.460981L22.900011,150.020451L20.429024,152.345395L19.989083,157.505282L20.190637,162.650501L19.650750,165.003245L21.657940,166.335476L26.669022,172.556833L28.997107,174.370666L33.104522,174.313985L35.794604,172.358441L37.806856,170.034367L41.524368,168.262900L43.321464,167.086613L45.248169,166.562236L47.392674,167.880255L48.974714,170.062710L49.796195,171.479840L50.897866,172.698541L53.282618,174.370666L57.169415,175.886869L60.443142,176.496171L63.423589,177.898957L66.275378,181.852058L60.330678,187.334889L46.989783,185.644953L45.120674,185.408173L42.813294,192.222185L44.755082,197.278977L46.989091,199.169532L51.667875,203.128352L53.255052,206.343091L51.559347,209.118643L40.270761,213.833888L43.522361,218.138097L47.168577,221.734082L51.259236,224.169006L55.757235,225.046680L64.934850,225.046680L67.246164,226.150828L68.248622,228.755384L68.723628,231.869339L69.535500,234.402813L75.867531,240.360892L84.509459,243.941033L130.220006,254.014873L134.041229,259.121685L138.486380,260.847402L141.357752,266.363592L141.414216,272.784141L139.076884,274.986433L138.412591,275.612281L119.233974,276.375847L118.088999,275.711262L116.067568,273.321502L114.984746,272.826565L113.431577,273.448770L112.715875,274.650734L112.163977,275.880944L111.123912,276.573807L101.897381,277.634288L97.106674,277.379775L92.690892,275.965785L90.097288,273.844715L85.415294,268.598162L82.651123,267.353606L77.842418,268.371882L79.761828,272.402329L83.124173,277.577730L82.638623,281.989064L77.905844,282.851483L65.321786,281.762852L62.181055,284.392486L62.706745,286.824049L64.677666,288.944485L67.067965,290.866924L68.892406,292.647929L70.914522,296.054249L71.851989,298.697138L73.293942,305.268312L75.889578,313.336018L76.410480,316.203843L76.166157,318.774827L75.412750,322.062411L74.985704,325.395723L75.705990,328.177985L78.306990,330.112747L82.730782,328.601663L84.941484,330.550527L86.229628,334.716273L84.823219,336.693093L82.353352,337.653229L80.338606,338.796893L77.314975,343.964176L75.478032,346.279369L72.934084,347.691011L69.649326,347.338105L64.754737,343.060652L61.656422,342.227699L55.909708,345.164139L57.064373,350.655312L62.601676,358.629705L69.550336,356.696222L74.110112,356.117573L77.603555,354.988478L96.438596,342.298289L99.197811,341.719449L100.757887,343.357123L101.802330,345.644115L103.032337,346.956963L105.269458,346.956963L109.075492,345.488829L111.253695,345.107670L121.321381,346.956963L123.347419,346.674633L125.116673,345.869984L127.100053,345.869984L131.925689,349.596656L134.203810,350.274199L136.444168,350.062468L137.015860,349.766043L137.037997,349.511963L137.970999,350.369778L137.973546,350.372120L139.387011,351.671598L140.804447,352.758433L141.873829,354.311008L142.734488,356.583316L143.203563,359.349447L142.489888,360.097402L141.338663,360.365534L140.535831,361.635611L135.749845,394.574955L133.916360,399.623203L132.034327,402.443234L127.841603,405.742472L125.672247,407.970042L124.223274,410.493567L121.779808,418.669521L112.729948,434.284981L111.796211,435.172732L109.485750,436.412742L108.492351,437.652726L108.201200,439.484470L108.840082,443.852241L108.581122,445.782410L107.512354,447.952014L106.229616,449.811611L104.593707,451.107660L96.900530,453.389765L96.722267,457.686089L101.430406,469.770551L101.685339,477.234175L99.420365,481.233206L96.638591,484.654724L95.246485,490.342798L96.121831,495.537691L98.361476,500.971515L104.206157,510.331962L108.655572,514.624716L113.336915,516.426196L123.114052,518.255782L127.935655,520.310497L129.953356,520.845278L133.139446,521.000082L140.218889,519.466100L142.829379,519.902373L146.887136,522.688836L151.216676,527.628243L154.544352,533.481979L155.526203,539.011709L157.266290,542.501030L161.842283,546.341943L172.237274,552.686843L174.820683,554.782959L176.470235,555.570750L177.759018,555.233126L180.072227,552.982272L181.413241,552.954136L183.515859,555.106517L184.461298,559.973821L186.037838,561.704048L189.781621,564.545496L194.311303,569.726736L195.782808,571.409668L203.437086,575.151020L207.469229,579.061022L209.693884,580.523722L210.433284,579.764246L211.646362,578.132760L213.604304,577.513915L216.617024,579.707988L218.771550,584.827330L217.294466,589.299542L213.821810,593.026263L205.163331,599.059102L200.012049,600.746560L194.555629,601.168422L181.671872,600.043456L169.821925,600.788747L166.564080,601.660592L163.331806,601.815273L160.284418,600.226263L154.043150,595.473183L148.034276,591.957479L144.977325,591.001191L141.723862,591.169949L137.210993,592.505935L135.425117,593.996599L134.436680,596.584125L134.640204,598.524736L136.024489,601.941831L135.716467,603.868304L133.369003,606.061919L136.124370,607.510249L144.331336,612.705839L151.897281,620.467256L165.502929,637.479258L190.497870,659.262364L195.841668,668.216861L202.647054,683.334932L203.693033,690.531815L198.395418,695.500702L197.746194,698.747679L197.694347,702.669334L198.325832,706.443386L199.686806,709.317842L201.439361,710.660190L202.183229,711.904146L201.800785,713.035653L200.125945,714.019572L191.337865,711.018618L188.636488,711.215403L186.377880,717.168110L184.663325,719.480318L182.671577,717.062691L180.386393,712.487470L176.718393,707.286748L172.479163,702.936400L168.507515,700.961519L166.149193,701.594043L161.279899,705.227538L158.752564,706.548806L156.135189,706.647198L150.318143,705.824920L147.912812,706.457442L145.212542,710.948339L143.658209,717.034579L141.385919,721.644938L136.410281,721.644938L132.455370,727.949049L133.335527,735.764214L137.668446,742.932858L143.961731,747.374643L175.991196,759.653008L179.959969,762.056714L190.516699,774.525329L204.947236,786.797676L208.004164,790.382498L212.581067,798.044373L215.148668,801.116233L223.681277,807.054947L224.188185,807.407724L231.905580,815.492088L236.090210,818.648610L240.928479,820.813922L251.171591,823.464361L256.086831,823.949459L258.864056,823.000355L260.552764,821.376346L262.384638,821.531012L269.975846,832.168253L274.577800,837.005541L279.529407,840.345339L284.963707,842.117223L292.487232,842.553167L300.081298,842.004722L302.555419,840.556276L307.371766,835.775110L309.418317,834.741556L312.319512,835.599335L314.203782,837.778960L315.749779,840.570339L317.701486,843.214117L320.128949,845.218081L334.502174,853.712433L342.933390,860.551080L343.411492,860.938841L358.227583,872.953607L361.132634,873.783708L363.790375,874.543126L375.999911,875.626264L382.700000,878.123151L395.251407,885.684532L409.732619,891.923997L413.884332,896.278506L414.882712,903.032282L413.676501,913.579077L432.006471,909.983590L442.516705,905.930937L447.016957,899.845280L445.756385,897.233709L444.215531,894.041430L438.927312,891.234611L435.051158,887.822927L436.228239,880.205111L439.623267,875.752865L443.371286,874.711926L447.360024,874.711926L451.590897,873.361534L453.241453,871.863464L454.303403,870.070027L456.042985,865.892493L457.889256,864.014765L460.248757,864.056960L462.901758,864.718030L465.625525,864.668801L469.936962,860.575862L475.128297,852.376361L479.000911,843.354745L479.305909,836.717267L477.487024,835.043888L475.193337,834.945454L472.797009,835.226693L470.739633,834.685309L469.215798,832.927583L467.724592,830.312129L465.238335,824.434559L462.032389,819.295388L461.153289,816.265395L462.274634,812.729302L464.023209,811.555307L471.333529,811.274112L476.148649,809.544771L492.645179,797.791316L497.879815,795.619254L503.432158,795.014736L506.972099,795.956245L509.220203,796.554152L513.816869,799.696283L516.284500,801.798094L517.955779,803.618745L520.502887,807.456932L519.799214,807.407724L517.454440,806.782080L515.077331,808.883971L515.355065,810.275873L515.397153,814.226684L515.072499,817.769840L514.186149,817.994805L515.873240,820.209319L533.398110,828.824309L552.587052,838.254861L555.367500,839.621123L560.185627,841.189090L575.316747,841.920346L579.154917,844.402428L583.285942,850.737936L588.165456,865.013403L590.460701,868.607168L594.607175,870.653770L597.629871,869.162771L600.508995,867.172461L604.342248,867.721023L608.450629,873.797596L609.624633,882.244911L611.771021,890.854747L618.782623,897.481485L621.341807,898.100568L626.613226,898.072428L629.233359,898.600059L631.769395,899.915632L636.489644,903.222239L638.950359,904.481597L646.338333,905.994258L650.909738,906.191258L653.265113,908.252746L653.404778,909.683717L653.962632,915.401507L653.465589,919.968316L651.326818,929.109762L650.979302,933.318429L650.391814,934.676796L649.398785,935.486197L649.360480,936.267453L651.765330,937.654027L655.675075,938.674619L658.437149,938.600910L663.851445,938.456423L686.884591,941.257836L692.178805,942.792325L695.911206,945.509437L704.000013,953.633241L708.011377,955.864991L711.326413,955.836829L720.714155,951.880277L725.563730,951.781718L732.432372,953.154515L733.773556,953.897221L738.598486,956.569028L741.106065,962.595890L740.064882,964.989889L737.822492,966.377041L735.221923,967.461433L733.151433,968.933139L733.420806,969.742943L732.743511,975.263970L732.538177,976.003430L732.170389,976.524579L730.697012,977.207713L730.355654,977.989452L730.803099,979.172644L732.634543,981.553183L732.950103,982.588535L731.318565,988.857370L721.732024,1005.504726L713.497016,1013.608255L711.790981,1016.645625L711.743623,1020.824931L713.737882,1029.487644L713.157313,1033.724370L708.851518,1037.693533L695.784447,1041.366874L691.417516,1045.921910L691.816530,1052.501368L701.837990,1064.470816L704.905532,1072.032491L707.509722,1073.197675L718.731784,1072.993066L726.868918,1074.961592L730.782952,1075.130305L730.797489,1075.130931Z "/></g></svg>