<?xml version="1.0" encoding="utf-8"?><!DOCTYPE svg  PUBLIC '-//W3C//DTD SVG 1.1//EN'  'http://www.w3.org/Graphics/SVG/1.1/DTD/svg11.dtd'><svg enable_background="new 0 0 1000 978" height="978px" pretty_print="False" style="stroke-linejoin: round; stroke:#000; fill: none;" version="1.1" viewBox="0 0 1000 978" width="1000px" xmlns="http://www.w3.org/2000/svg" xmlns:xlink="http://www.w3.org/1999/xlink"><defs><style type="text/css"><![CDATA[path { fill-rule: evenodd; }]]></style></defs><metadata><views><view h="978.83340383" padding="0" w="1000"><proj flip="auto" id="robinson" lon0="29.9760017951"/><bbox h="29.27" w="29.93" x="427.29" y="17.83"/></view></views></metadata><g class="" fill="#000" id="country"><path d="M821.636569,2.349994L801.847491,1.639531L773.372857,0.000000L747.618900,6.448822L727.888109,27.981330L707.657541,64.761477L671.466296,106.952079L643.107576,144.388043L619.041035,171.003102L563.945215,214.833242L534.002179,227.676238L519.145340,225.654150L510.111289,217.511143L493.196476,161.493820L482.618649,152.476398L375.854880,181.332149L359.682309,181.769358L340.267864,194.011192L305.596361,226.637869L272.856244,248.662242L247.968915,254.345952L206.395539,312.549326L170.712736,367.582944L144.049102,421.359593L137.047858,446.116527L142.167491,515.687346L145.294466,598.101181L136.895818,633.515088L124.344079,654.829015L66.259811,699.369661L28.045931,731.559161L9.970215,748.337051L0.511335,774.296328L16.742750,835.232323L17.647085,879.718338L31.188601,906.005531L76.759426,927.374124L84.058226,896.222978L101.418510,861.519513L120.654646,857.693934L167.738767,871.466017L216.671677,900.977627L242.176900,967.269454L262.072219,976.833404L298.359031,976.724102L391.175367,967.979919L414.230805,969.072942L456.539514,953.224111L498.661111,925.242729L510.967414,896.277630L521.294270,831.352093L530.986404,714.344063L552.375593,712.977785L610.596444,754.621928L623.121630,757.463786L635.487213,755.988206L655.915065,735.330087L680.993059,718.552198L699.376539,718.989407L767.473880,699.478963L803.639842,734.783576L826.622629,745.713798L838.812428,748.227748L858.468217,746.369611L889.840072,733.526601L918.647462,727.733583L942.162165,732.324276L959.574586,727.296375L975.026111,713.742901L988.319841,672.863877L999.488665,604.550010L993.992728,548.969855L971.793060,506.123408L966.088940,440.760722L976.906218,352.881808L969.935537,279.813343L945.338384,221.391368L920.074505,186.742603L881.200381,170.347289L820.399066,81.211439L801.849115,38.091771L805.334789,11.148811L821.636569,2.349994Z "/></g></svg>