<?xml version="1.0" encoding="utf-8"?><!DOCTYPE svg  PUBLIC '-//W3C//DTD SVG 1.1//EN'  'http://www.w3.org/Graphics/SVG/1.1/DTD/svg11.dtd'><svg enable_background="new 0 0 1000 846" height="846px" pretty_print="False" style="stroke-linejoin: round; stroke:#000; fill: none;" version="1.1" viewBox="0 0 1000 846" width="1000px" xmlns="http://www.w3.org/2000/svg" xmlns:xlink="http://www.w3.org/1999/xlink"><defs><style type="text/css"><![CDATA[path { fill-rule: evenodd; }]]></style></defs><metadata><views><view h="846.303291915" padding="0" w="1000"><proj flip="auto" id="robinson" lon0="44.6612270791"/><bbox h="263.97" w="312.27" x="494.41" y="-538.48"/></view></views></metadata><g class="" fill="#000" id="country"><path d="M379.406975,823.891536L378.552959,823.126979L377.659177,822.086128L377.653310,821.466869L377.398577,820.156207L376.857825,819.394151L375.788693,818.145524L373.918955,817.234835L373.328270,816.747824L373.055595,816.332220L372.352574,816.119899L372.338561,817.084597L372.831748,818.122143L373.572575,819.092570L373.695009,820.252773L373.593324,820.608531L374.159032,820.750789L374.976762,820.757084L375.825268,821.383728L376.222136,823.040297L376.843632,824.147047L378.022771,825.120678L379.326610,826.095524L380.408299,826.379549L381.198742,827.144136L382.320011,828.256063L383.279159,828.608025L384.008550,828.132468L384.860579,827.588699L385.788819,827.321360L387.162990,827.196014L388.345549,827.000386L389.571825,827.700640L389.939463,828.806379L389.219802,829.488531L387.931886,830.096610L388.457508,830.583821L389.465089,830.662199L390.552299,831.085965L391.954090,832.822798L393.021964,832.902961L393.001803,832.815658L393.407103,831.734591L392.890662,830.144299L392.721526,829.246801L392.978338,828.078060L393.056832,827.114550L393.019912,826.356539L391.159190,825.512023L390.794791,824.475543L389.632132,824.283975L389.690409,823.707423L389.008547,822.599227L388.901788,821.703099L387.562080,820.824605L387.179540,820.658730L386.875132,820.527776L386.211568,820.641269L385.936832,821.165085L385.673468,822.692882L385.161095,823.659760L385.918237,824.843062L387.250114,825.130666L385.902830,825.807018L385.337826,825.801962L385.307351,825.181914L384.711801,824.556842L383.898951,824.618509L382.974221,824.954783L382.029143,824.877712L381.416121,823.908431L379.731156,824.100846L379.406975,823.891536Z M381.008971,813.657075L380.642071,812.234049L380.587705,812.015794L379.733488,810.989994L378.511852,810.459634L376.987743,810.295943L376.846944,809.831060L376.416844,810.029672L376.083707,810.459634L376.083832,810.461817L376.211496,810.697532L376.793240,810.754279L377.861970,811.007455L378.470238,811.062018L379.116218,811.376306L379.762204,811.690594L380.190000,812.980483L379.999564,814.043387L379.999689,814.045570L379.911646,814.036840L379.429563,813.993189L379.011666,814.940418L378.438819,815.507883L377.632302,815.782886L376.506009,815.857093L376.009785,816.367812L376.010033,816.372177L376.421504,816.979490L377.503734,818.503893L378.780890,820.167500L379.520236,821.137880L380.242022,821.763624L381.065647,821.908398L382.788791,822.474071L384.214575,823.381765L384.184670,822.761223L383.805307,821.450015L382.898229,821.021036L382.222415,820.584523L381.051458,820.143645L380.725488,819.231333L381.232759,818.445610L383.152517,818.414345L382.654334,817.239199L381.125634,816.812572L380.888915,815.846295L381.081648,814.677030L381.008971,813.657075Z M123.038117,356.290066L122.468905,355.936131L121.824652,355.837815L121.262839,355.842185L120.860735,356.392750L120.589062,357.397746L120.717244,357.769156L121.195569,357.389007L121.611573,357.389007L121.889812,358.123087L122.237175,358.570961L122.790738,358.400550L123.240397,358.450800L123.188042,358.813468L123.462939,359.398979L124.415498,360.025997L124.787104,360.084984L124.574640,359.739797L124.599689,359.516954L124.952708,359.578127L125.161931,359.672070L125.263230,359.621822L125.017294,359.383685L124.503310,358.964215L124.137613,357.183639L123.927213,356.919281L123.853882,357.301616L123.560672,357.340942L123.038117,356.290066Z M114.991760,356.803488L114.574803,356.480142L113.651051,355.370270L113.172001,354.966083L112.675794,354.841549L112.685297,355.230443L113.271086,356.021337L113.751959,356.554424L113.860799,356.866847L113.775180,356.978270L113.683810,356.958607L113.698211,357.157421L113.885893,357.472028L114.015629,357.607483L116.018327,359.698287L116.908573,360.399585L117.856191,361.428585L118.876198,362.110211L119.531377,361.579330L119.921882,360.602764L120.366955,360.019442L120.701518,359.722319L121.509852,359.239493L121.349836,358.996986L120.606509,359.031942L120.012768,359.527878L119.498137,360.185482L118.957887,360.334043L118.544586,359.698287L118.636883,359.005725L119.593533,358.966400L119.355930,358.584069L118.909494,358.319714L118.327243,358.249802L117.539494,358.033512L115.870486,357.292877L114.991760,356.803488Z M116.153048,352.678583L116.604078,352.184811L116.580858,351.559948L116.036407,350.980964L115.370261,350.889200L114.834797,351.354573L114.800435,352.114896L115.436967,352.724464L115.886376,352.875217L116.153048,352.678583Z M110.061359,351.149197L109.172113,350.823655L108.472254,351.039955L108.072673,351.778432L108.097833,352.278759L108.441306,352.158593L108.628695,351.953219L108.985887,351.712886L109.806379,351.660450L110.538643,352.145484L110.974082,352.722279L111.040129,352.960425L110.847846,352.892696L110.981426,353.080591L111.634514,353.198571L112.053763,353.347139L112.119094,353.884604L112.394370,354.269130L112.610254,354.352153L112.832044,354.413328L113.299638,354.762896L113.815976,355.267585L114.246166,355.411781L114.532532,355.278509L114.975937,355.501358L115.262533,356.093435L115.474656,356.434261L115.955898,356.558793L116.600012,356.965162L117.350821,357.550680L117.608320,357.690504L117.535144,357.456735L117.703147,357.292877L117.756651,357.100617L117.316835,356.617782L115.579052,355.188932L114.499893,354.520383L113.759906,354.238543L113.026422,353.788472L112.740796,353.159244L112.456074,352.748497L110.061359,351.149197Z M119.324905,350.148535L119.258330,349.650387L119.002477,349.126020L118.590409,348.922827L118.154493,349.108541L117.889027,349.523665L117.930199,350.135426L118.014834,350.471894L118.186849,352.001285L118.444139,352.547493L118.760200,352.770346L119.338309,353.604947L119.505042,353.117733L119.070719,351.688853L118.700735,350.935082L118.810131,350.996258L118.826644,350.812731L118.677733,350.417272L118.723291,350.323324L119.021290,350.554918L119.233568,350.537439L119.324905,350.148535Z M102.680735,347.965852L102.287935,347.819465L101.900794,347.596607L101.639267,347.247025L101.407479,347.150890L101.129468,347.139966L100.792385,346.884334L100.433927,346.438616L100.337590,345.940459L101.019692,344.716913L101.244056,344.098582L101.143979,343.755550L100.780519,344.009001L100.327275,344.673214L99.279798,345.920795L98.969871,346.858115L99.340972,347.992070L99.982113,348.719634L100.919886,349.611060L101.395076,349.860134L101.647449,349.106356L102.662624,349.361985L106.493900,351.348018L107.134747,351.813389L107.453912,351.977252L107.820290,351.708517L108.048465,351.085837L108.077514,350.764664L107.335461,350.299290L106.949003,350.240299L106.751209,350.456600L106.738269,350.690379L106.892594,350.751555L106.828017,350.790882L106.426871,350.838949L105.989173,350.642312L105.799347,350.196602L105.737921,349.816437L105.604727,349.685345L105.233811,349.788034L104.607901,349.733412L103.966892,349.265851L102.680735,347.965852Z M103.159085,343.143773L103.058576,342.846623L102.979888,342.540733L103.078218,341.841556L103.423022,341.133637L103.419052,340.775306L103.093104,340.722868L102.733202,340.565552L101.787635,339.678464L101.317343,338.736751L101.374700,337.690156L101.684552,336.768102L102.124173,335.931260L102.690474,335.288879L102.371547,335.430902L101.296656,336.586750L100.699633,338.435227L100.751660,340.661690L100.958924,341.797857L101.061589,342.226104L101.451784,342.846623L101.994347,343.196211L102.973370,343.980597L103.558381,344.092028L104.005020,343.849502L104.223042,343.401593L104.054913,343.305457L103.532368,343.432182L103.159085,343.143773Z M691.094244,255.224261L690.383841,254.778736L689.970046,254.582182L689.444723,254.488273L688.098078,254.752529L686.878108,255.746228L686.181928,257.122141L686.457799,258.519919L686.710701,257.646304L687.123570,256.803276L687.630711,256.169919L688.184680,255.920945L688.600903,255.807379L689.066981,255.606454L689.561231,255.523463L690.057277,255.754964L690.261427,255.944969L690.482461,256.152447L690.713508,256.482229L690.713753,256.484413L690.627261,256.777068L690.046363,257.052252L690.083866,257.386406L690.091573,257.388590L690.350779,257.504343L690.755450,257.786082L690.963196,257.742402L691.007773,257.707457L691.419686,258.120239L691.916052,257.556760L692.513898,257.100300L693.188564,256.796724L693.933809,256.689708L694.715709,256.875348L695.429509,257.218237L696.150018,257.388590L696.955264,257.052252L694.567920,256.357741L692.041950,255.623926L691.094244,255.224261Z M422.260311,844.303292L424.449675,843.430408L426.050722,842.657052L427.202750,841.731243L427.555393,840.871960L427.452765,840.004361L427.280534,839.189428L427.419509,838.488142L427.904147,838.249760L429.701749,837.878328L430.373103,837.606684L432.342682,836.270638L433.305570,835.433531L433.837944,834.513268L434.845176,831.009619L434.975168,829.995113L434.972453,828.861418L435.161882,828.124101L435.745311,827.844142L436.929583,828.085295L438.845010,828.717281L439.633300,828.550969L439.860511,827.550324L439.836990,827.465851L439.487693,826.211512L439.014576,825.393812L438.870098,824.656496L439.477262,823.542207L439.878361,823.206812L440.296561,822.998922L440.633018,822.716192L440.798380,822.153504L440.694844,821.457768L440.344101,820.875677L439.838698,820.459899L438.071856,819.927702L437.504238,819.439855L436.823830,817.480154L435.714893,815.387407L435.477815,814.478240L435.713652,813.144982L436.345778,811.074416L436.488128,810.046063L436.423894,808.876348L436.088117,807.692774L435.668017,806.800244L435.428349,805.935432L435.637969,804.823929L436.492971,802.700711L436.693994,801.611385L436.576778,800.372382L436.798791,799.313548L437.716990,798.465373L438.919322,797.886064L439.971215,797.619970L440.985520,797.048977L441.087820,795.973516L440.535765,794.823217L439.571485,794.049884L436.841772,793.079754L436.959840,792.833064L439.023568,789.792406L442.863140,785.939625L446.801324,783.101328L447.796676,782.671704L448.818335,782.516485L449.681635,782.735455L451.274754,782.804749L452.046145,783.020947L455.589239,784.656293L457.653129,785.950712L461.158245,789.972572L463.192943,791.657822L464.149772,792.020927L464.998088,792.029243L466.733520,791.810271L468.594860,791.993209L469.408736,791.951632L470.483357,791.591299L470.769749,791.732660L470.805581,792.320281L470.749835,793.387424L470.961996,793.817053L471.132287,794.074830L471.420034,794.238366L471.981302,794.371413L473.071830,794.191246L473.752824,793.395739L474.287916,792.347999L474.941480,791.422219L475.914986,790.831827L476.717983,790.928840L478.574873,791.946089L479.801706,792.140114L480.667387,791.682768L481.318349,790.718184L481.920350,789.390496L482.575290,788.847226L483.535058,788.980271L485.544587,789.609467L486.429300,789.542945L489.961734,788.625483L494.452936,788.101615L497.312764,788.223574L500.565295,788.952554L501.876243,788.866628L504.730030,787.647043L505.733846,787.400354L515.205298,787.469648L520.977085,787.513481L522.139900,787.522312L529.997614,787.583292L532.686601,788.173682L540.592383,793.049264L542.776603,793.825368L552.753792,794.947948L564.453871,796.259012L573.359208,797.259635L584.785948,798.542984L592.436399,797.367735L602.722357,795.790577L604.528392,796.896528L607.847363,801.525458L611.649287,806.830734L615.991176,812.876113L616.609967,813.291890L617.267866,813.323088L623.448964,813.616196L624.956489,813.380589L626.299356,812.765240L631.797715,809.064832L636.905783,805.636075L636.947784,805.567547L638.189902,803.540573L640.694285,794.063743L642.461844,787.372636L643.141331,785.712340L647.269719,779.470317L653.598031,769.893946L660.291016,759.735639L664.132909,753.926207L667.410941,748.937232L668.404748,748.132070L674.154369,744.771468L681.858707,740.275912L690.449164,735.255177L698.138094,730.766625L704.578618,727.002866L706.573456,725.831894L710.786450,724.095534L716.738580,723.161533L724.127838,722.005812L731.516517,720.850094L738.904617,719.694379L746.287317,718.538667L753.674259,717.382957L761.060420,716.224479L768.446406,715.071546L775.831612,713.915845L783.208704,712.755989L790.600186,711.603065L797.978838,710.447372L805.356808,709.290296L812.739123,708.134609L820.120861,706.978924L827.501916,705.821857L834.882499,704.666179L842.157672,703.525746L847.195279,701.541428L854.939014,698.481826L862.676166,695.422246L870.409151,692.362688L878.152639,689.305924L885.889247,686.245026L893.619411,683.185536L901.357587,680.127456L909.084309,677.068015L916.814354,674.011369L924.537557,670.950591L932.263992,667.891224L939.993667,664.833269L947.716746,661.773954L955.428763,658.717437L963.148749,655.660946L970.866755,652.600326L977.651419,649.911050L978.725488,644.732588L978.947036,643.674082L979.568685,640.681464L980.525962,636.031867L981.772841,629.995499L983.249875,622.856412L984.887303,614.890321L986.639493,606.372918L988.446299,597.575720L989.824519,590.850851L990.248676,588.778540L991.983104,580.258421L993.605911,572.292411L995.054671,565.154808L996.277401,559.122700L997.217520,554.470423L997.819070,551.477869L998.034715,550.416616L998.196421,549.610104L999.408496,543.555815L999.278062,542.325514L998.697265,541.153398L995.851741,536.747539L991.521907,530.052738L987.194813,523.355016L982.856170,516.657128L978.524978,509.959058L975.114068,504.699120L972.417233,508.997424L971.730035,509.130446L965.316826,508.229777L958.792126,507.309705L952.268248,506.395173L945.749491,505.480636L939.235367,504.560553L932.712248,503.643237L926.194492,502.728688L919.676707,501.809979L913.149685,500.891265L906.632691,499.973933L900.116153,499.057982L893.595043,498.140642L887.079054,497.223297L880.563521,496.307334L874.043538,495.391366L867.528557,494.474009L861.013911,493.556647L853.482571,492.496548L852.309453,492.096064L851.309155,491.228578L848.532815,487.818181L845.830092,484.490869L843.129235,481.163492L840.425444,477.836050L837.728629,474.512698L835.023824,471.186504L832.322965,467.857467L829.616836,464.529742L826.915226,461.206100L824.207951,457.879608L821.504550,454.550265L818.796187,451.226385L816.086887,447.899649L813.377128,444.575601L810.670924,441.245921L807.959328,437.917537L805.251875,434.590449L802.291411,430.956885L801.484373,429.695300L801.108979,428.300610L800.889750,424.860947L800.777046,423.477288L800.301272,421.414147L798.246275,420.765672L796.748761,419.154294L795.859878,418.479604L792.742855,417.802726L792.057479,417.907533L791.653755,418.173918L791.299392,418.527640L790.766669,418.903196L789.736426,419.180495L786.814103,418.903196L786.632603,418.645547L786.532057,418.042909L786.459435,416.887842L786.530738,416.724080L786.744205,416.676043L787.242731,416.704428L787.403657,416.575601L787.390664,416.272093L787.316061,415.911813L787.310150,415.603935L787.386672,415.090805L787.374161,413.900770L787.419286,413.374530L787.604259,412.898509L788.115804,412.016337L788.215800,411.758672L788.584869,411.123240L791.111376,408.976718L791.284649,408.620779L791.451267,407.913266L791.628372,407.478711L792.564522,406.249281L792.744573,406.247097L793.009576,405.391073L793.784212,404.923751L794.708792,404.613657L795.421246,404.244601L795.383532,403.844970L794.637647,403.382008L793.919636,403.373273L793.347125,403.275003L793.054803,402.565268L792.688326,401.905756L791.958830,401.735418L791.102845,401.656801L790.387742,401.281182L790.530605,402.515041L790.223460,403.119953L789.674286,403.547976L789.090264,404.244601L788.046839,406.609595L787.466729,407.111849L786.679582,407.408833L786.385284,407.153339L786.351739,405.312458L786.218392,405.212006L785.955356,404.690089L785.811280,404.115758L786.044920,403.844970L786.329913,403.681187L786.472546,403.281554L786.479464,402.796751L786.391556,402.381828L785.914955,402.822957L785.480231,402.512857L785.047912,401.949433L784.587715,401.648065L782.260592,402.014947L782.110372,401.575999L782.110185,401.575473L779.231559,404.235932L776.913625,405.099838L774.304123,405.116478L771.496357,404.694926L769.078689,403.649358L766.635856,401.009043L762.705811,395.091998L761.801768,396.133748L761.120013,396.149036L760.576800,395.642358L760.004222,394.744745L759.521688,393.807812L759.271466,393.185369L758.854969,389.898365L758.261900,387.845293L757.258240,386.921396L756.021881,386.115435L754.770778,382.568250L753.916417,381.757882L753.310675,380.879593L751.896108,379.199838L750.602626,378.155710L750.349763,379.191101L749.800274,378.548898L749.279295,377.308167L748.697057,375.125927L748.769192,372.930532L748.573097,372.109159L747.782603,370.807181L747.433562,369.880933L747.184228,369.516112L746.923147,369.031137L746.755094,368.347364L746.738566,367.641741L746.861672,366.448943L746.848575,365.780448L746.514589,364.594186L745.845003,363.047442L745.082465,361.625208L744.438637,360.799388L744.747197,360.432355L743.616244,358.020403L743.167152,357.498245L741.543636,357.000118L740.647077,356.576272L740.202044,355.831261L740.088046,355.702358L739.847556,355.545053L739.586532,355.256661L739.281718,354.076867L739.059899,353.956703L738.596913,354.199217L738.220916,354.487611L738.417438,355.182378L738.803919,356.016968L739.009967,356.733576L737.687798,355.608412L731.729457,348.464004L729.591944,344.598927L729.277304,344.598927L729.229001,344.826158L729.040018,345.368015L728.614257,344.821788L727.343342,343.917234L726.930761,343.167807L726.978556,342.119042L727.653825,342.204254L728.441726,342.811664L729.109964,343.718407L729.724651,344.131356L730.432546,344.465648L731.004082,344.598927L731.367581,345.009690L732.429898,347.566018L732.718356,347.566018L731.989823,345.014060L730.623352,342.977719L727.500707,339.468709L726.401223,337.674862L725.032522,334.895584L724.288753,332.378488L725.102576,331.369025L725.064943,331.001947L724.461163,330.042737L724.123502,329.087896L723.581236,328.364664L722.382843,328.067505L722.101670,328.063135L721.960404,327.999770L721.890469,327.829341L721.853220,327.503776L721.761140,327.082072L721.622123,327.040558L721.429154,327.092997L721.169527,326.970638L720.570886,326.282364L720.228348,326.009240L719.772300,325.869400L720.050613,326.754323L719.804212,327.560586L719.196738,327.986660L718.392984,327.704796L718.625530,326.872313L718.508248,326.096640L718.257726,325.336261L718.068495,324.554033L718.172258,324.145439L718.471298,323.924754L718.776972,323.804579L718.916626,323.671294L718.788447,323.155636L718.281779,322.382147L718.140003,321.988848L717.847153,321.726649L717.288214,321.027451L716.977431,320.304219L717.447835,319.969915L717.782829,319.629057L718.729337,317.186241L719.233935,317.002703L719.880476,317.354485L720.503008,317.942246L720.917333,318.471013L721.140430,318.888345L721.271534,319.248868L721.516187,320.736847L721.672003,320.867947L721.885284,320.867947L722.157107,321.071151L722.574206,321.484115L723.043903,321.827159L723.499991,322.255418L723.888928,322.902176L724.042036,323.693144L724.110892,324.538738L724.392319,325.305671L725.165420,325.869400L725.429383,324.405453L725.577382,322.296933L725.481342,320.223374L725.044903,318.873050L725.391089,318.283104L725.861560,318.095195L726.250197,318.377058L726.358935,319.202984L727.197388,318.597742L727.556764,317.527099L727.595093,316.251069L727.005456,310.406282L726.409310,307.956961L725.403748,306.130361L723.923221,304.867480L719.829711,303.434183L718.934023,302.887959L718.095649,302.107954L717.487169,301.240556L715.812511,297.154878L715.649039,296.259099L715.485738,292.973161L715.333168,292.702249L714.818312,292.191012L714.433752,291.675408L714.220493,291.085524L714.136029,290.443209L714.100736,289.772495L714.222908,288.900789L714.542663,287.991949L714.909583,287.655505L715.475754,289.634857L715.985773,290.237843L716.661028,290.469426L719.207532,290.797137L720.397391,291.535584L722.681492,293.475660L722.375461,292.099252L721.520935,291.214425L717.901314,288.677948L716.956977,287.209828L714.302021,283.932831L712.823190,282.569626L711.313627,281.711076L710.152312,281.542863L709.094782,281.606216L708.062236,281.488248L706.130839,280.118517L703.127372,278.746618L702.611452,278.366509L701.859048,277.634693L701.398026,277.278618L700.028666,276.675695L699.589429,276.348021L698.052544,274.593890L694.926069,270.242557L693.978622,269.235575L693.073481,268.814000L692.790776,268.519117L692.465755,267.841982L692.053544,266.614416L692.004838,265.839005L692.281669,264.535020L692.347340,263.683181L691.563180,264.618020L691.223367,264.784020L690.749292,264.648599L690.306682,264.292572L689.829331,263.993337L689.264770,264.017363L688.656719,264.725047L689.126957,265.565975L690.526647,266.981374L689.780149,266.913661L688.478872,266.352305L687.747293,266.216881L686.621655,266.601311L686.223327,266.441859L686.576223,265.482974L686.411007,265.406525L686.334328,265.421815L686.289887,265.391236L686.225944,265.150970L685.820652,266.243092L685.575328,266.690866L685.144631,266.981374L684.707647,266.337015L683.569616,266.103299L683.135269,265.482974L683.640332,265.561606L684.150659,265.552869L684.526915,265.378130L684.638184,264.967495L684.702288,264.266362L684.889076,263.696286L684.963276,263.154608L684.653501,262.549594L684.414314,262.949296L683.679726,262.315889L682.972353,262.363940L682.615393,262.879403L682.935929,263.683181L682.490344,264.174625L682.010809,264.292572L681.656932,263.927811L681.600694,262.949296L680.837118,263.062873L680.476266,262.097474L680.310835,259.804151L680.009820,258.709932L679.561059,257.663777L679.307863,256.632924L679.552911,255.588982L678.546076,255.025522L677.914280,254.846439L677.413582,255.038626L677.000894,255.484152L676.516129,255.886002L676.012150,256.183023L675.539083,256.322798L675.593388,255.706916L675.467376,254.313559L675.535610,253.723902L675.843002,253.271834L676.264176,253.003216L676.658885,252.631957L676.896221,251.889444L676.447488,251.679794L676.060826,251.358770L675.734385,251.175328L675.619523,251.347851L675.550196,251.660140L675.329809,251.889444L675.334859,252.000820L674.649529,252.806667L674.405703,252.894022L674.153401,252.706208L673.808243,252.289089L673.213167,252.037946L672.864001,251.784619L672.564105,251.505087L672.122293,251.190615L671.577181,250.952578L670.536665,250.653396L670.130776,250.426280L671.764016,249.495986L672.559299,249.504721L672.976217,250.426280L673.311852,250.426280L674.108355,249.517823L676.664474,249.797347L677.490569,248.591910L677.803799,248.591910L677.796679,249.288528L677.980376,249.792980L678.353012,250.055034L678.927592,250.024461L678.744561,249.592072L678.547064,248.635585L678.385319,248.227225L678.051043,247.810134L677.723328,247.583028L677.373958,247.395229L677.008013,247.093878L675.779535,245.530372L674.997411,244.846896L674.040380,244.560843L673.537601,244.499702L672.600471,244.224568L672.112613,244.163428L671.756397,244.276975L671.000781,244.781388L670.629870,244.897119L668.872481,244.753001L668.048964,244.525905L667.236244,244.163428L667.562122,244.770470L667.328914,245.148236L666.755437,245.220296L666.066495,244.897119L666.876297,244.244221L666.356565,243.604430L664.565021,242.696070L662.753730,241.119572L662.114729,240.809518L661.233758,240.896857L660.208543,241.158875L659.748134,241.438362L659.446090,241.931835L659.580250,242.294299L659.975837,242.661133L660.219559,243.036703L659.928413,243.429744L659.120215,243.403542L658.765397,242.538855L658.836577,241.486399L659.329007,240.896857L658.929356,240.132645L658.616258,240.132645L658.311268,241.093370L657.727400,241.599941L656.909514,241.652345L655.900186,241.230930L656.159572,240.656675L656.620788,240.647941L657.801241,241.230930L657.604164,240.905591L657.005278,239.730891L657.504008,239.691589L657.782148,239.514731L657.793475,239.187218L657.514625,238.700319L657.721682,238.455779L657.781405,238.128271L657.657593,237.202527L657.484332,237.743998L657.207909,238.263641L656.798344,238.530014L656.194401,238.298575L656.178510,237.403395L656.045459,236.691628L655.657934,236.102134L655.484220,236.671978L655.103759,237.128294L654.687334,237.202527L654.440007,236.632678L654.167495,234.237627L653.870931,234.578211L653.649113,235.477713L653.425008,235.735341L652.911984,235.779006L652.822829,235.486447L652.939115,235.132757L653.028551,235.001761L652.959933,234.137198L653.393476,230.364718L653.697381,229.635576L654.057431,229.559170L654.401014,230.574293L654.374627,231.189925L653.796951,233.504067L654.501239,232.949537L655.018252,230.954150L655.610757,230.207537L655.915400,230.980348L655.812895,231.419152L655.597832,231.851411L655.546092,232.604597L655.797013,233.921060L655.781485,234.372987L655.532680,235.001761L656.100489,234.523630L656.580398,233.635059L656.896715,232.783616L656.953877,232.403746L656.769649,232.128669L656.660177,231.497744L656.638035,230.816616L656.920169,229.735996L656.641937,229.194604L654.579204,227.291041L653.366196,225.684418L653.316429,225.446485L652.427938,225.073216L651.277986,224.208814L650.248986,223.230923L649.726870,222.514980L649.581011,221.768489L649.746186,221.425805L650.484656,221.017643L650.833690,221.137691L651.145034,221.157335L651.423029,221.017643L651.565489,220.768819L651.671423,220.397768L651.655036,220.063825L651.452150,219.919771L650.887150,219.799727L649.910419,219.275902L649.494115,219.153677L647.937143,219.212607L647.431383,219.153677L645.782592,218.420333L645.011634,217.968546L645.043938,217.765571L645.038005,217.137008L644.668095,216.580475L642.979408,214.511540L642.422194,213.658240L642.032059,212.514713L641.950219,211.462869L642.171561,210.459057L642.709955,209.431264L642.400063,208.787542L638.068800,204.414852L637.362027,203.341386L636.978468,202.075954L636.937527,201.445434L637.050967,200.044799L637.436620,199.060893L637.405779,198.580947L636.834192,198.214447L636.631162,199.043440L636.121485,199.545207L635.386446,199.745916L634.486020,199.680467L634.515244,199.455761L634.552717,199.300868L634.734068,198.947450L635.829932,199.344499L636.089767,198.146819L635.869530,196.353639L635.174076,194.008666L634.949333,193.620396L633.699854,193.057629L633.084769,192.638831L631.865793,191.458806L631.865322,191.458431L623.763785,191.544221L615.650212,191.630093L607.536889,191.718736L599.425848,191.807379L596.975799,191.832310L596.428582,190.409891L595.465520,189.487494L594.327615,188.724388L593.243310,187.795108L592.408571,186.580571L591.598811,184.999103L590.966643,183.365083L590.449579,180.476653L590.076618,179.125293L586.692031,171.976159L584.029315,168.107355L583.352731,167.124653L583.347849,167.123269L583.323605,167.117733L583.318889,167.117733L580.730778,166.770335L576.115949,166.154440L571.496498,165.537172L566.877305,164.919917L562.263418,164.305441L557.081776,163.652228L551.915086,163.003181L546.746513,162.355531L541.573373,161.706510L539.626560,162.143802L537.684337,162.581100L536.903515,162.756327L535.741826,163.017020L533.799192,163.452946L528.942601,163.007333L525.427790,162.684890L521.912601,162.358298L518.405083,162.035862L514.888087,161.712046L510.165610,161.277528L505.438621,160.843016L500.711511,160.405743L495.987446,159.972627L491.263582,159.539517L486.537081,159.102263L481.815979,158.669166L477.089886,158.231924L473.419595,157.895695L469.753661,157.555318L466.086132,157.220480L462.408503,156.878728L458.193382,156.492705L457.880772,156.376483L457.581983,156.257496L457.276128,156.138508L456.970911,156.025056L453.128639,153.121094L448.376855,149.520250L443.611318,145.922624L438.850243,142.322692L434.091926,138.725996L428.373446,134.401193L422.655279,130.078481L416.935095,125.757875L413.637105,123.265633L411.214781,121.435246L405.497030,117.113374L399.775140,112.795468L394.053499,108.477900L388.336841,104.161050L383.936144,100.838937L379.537993,97.517186L375.142729,94.198532L370.742337,90.874664L365.465921,86.894120L365.460898,86.891360L365.455875,86.888600L365.450853,86.885839L361.672492,83.875044L360.694946,83.096098L355.938606,79.301118L351.187862,75.511900L346.432361,71.720123L342.193050,68.358988L337.958672,64.997951L333.724550,61.636982L329.481328,58.276053L326.159280,55.635334L321.823730,53.209839L317.563649,50.822961L313.294744,48.436057L309.035750,46.049116L304.777641,43.664889L300.510396,41.277847L296.248397,38.890737L291.991646,36.503551L287.735471,34.116278L283.470188,31.726148L279.215182,29.338670L274.956427,26.953835L270.697938,24.566112L266.444729,22.178251L262.187122,19.787482L257.926462,17.404836L253.674768,15.013740L248.687556,12.213775L245.990749,10.733610L243.441445,9.775328L227.675098,6.787047L227.665427,6.784285L227.660426,6.781523L227.651087,6.781523L223.953027,6.160074L214.841553,4.621578L205.726661,3.080228L196.613359,1.538782L187.497309,0.000000L187.376198,0.041441L187.255413,0.085644L187.129959,0.129847L187.004178,0.171288L186.564427,0.320473L185.765643,0.986268L181.005493,6.115881L179.519297,6.781523L179.520267,6.789809L179.515275,6.787047L174.558641,8.286752L164.740213,11.250019L154.926547,14.215748L145.103009,17.178435L136.846178,19.666098L135.269927,20.140861L127.010014,22.723894L124.446121,23.525409L113.616481,26.912430L102.780412,30.296435L93.618328,33.156004L91.938241,33.680211L98.528255,40.138114L105.119189,46.598254L105.217845,46.694871L111.710074,53.052554L118.302022,59.512254L118.460648,59.680576L118.624256,59.851658L118.783178,60.022739L118.946785,60.193821L124.555545,66.134844L130.168627,72.073352L135.785980,78.009502L141.394062,83.948970L143.925656,86.629132L143.943531,86.665016L143.927093,86.687098L143.886605,86.703660L143.601678,86.894120L140.478384,88.787730L135.319539,91.920933L130.679167,94.742416L129.720272,95.636944L129.228837,96.603282L128.238057,99.919415L127.020011,103.967733L125.897644,107.690707L124.388672,112.720878L123.501064,113.610018L118.256566,114.745513L112.298259,116.038552L105.943287,117.420080L99.536413,118.812740L95.572419,119.669376L91.709763,120.509461L90.521926,121.150598L89.553136,122.347247L87.464557,126.719789L85.724387,130.353554L83.362718,135.279093L80.926050,140.352125L77.697537,143.333613L72.824925,147.832726L68.390088,151.927219L63.833209,156.121906L62.709894,156.611693L61.465654,156.661503L56.646905,155.818905L51.306736,154.887787L48.666400,154.424332L43.188725,153.462803L36.312842,152.264764L29.872766,151.135941L22.667775,149.877133L17.167249,148.911623L12.028612,148.002120L11.915277,148.793646L12.119794,149.699834L12.536753,150.494951L12.311228,150.462275L12.258973,150.540698L12.264957,150.688832L12.228590,150.860930L11.667428,150.562483L11.567487,151.344552L11.792421,152.520964L12.185214,153.420733L11.186492,154.030762L10.789269,154.481756L10.791243,155.246500L10.887985,155.579856L10.487387,156.780405L10.338174,157.475481L9.853147,162.267367L9.521783,163.424592L9.086814,164.420581L9.151777,165.152882L9.783483,166.499836L9.642910,168.773224L9.099356,170.990094L8.531049,172.171614L8.559963,172.500791L9.339268,172.747130L9.498044,173.455639L9.125273,175.092897L9.154666,175.428643L9.470110,176.019477L9.415287,176.667007L8.759916,178.053680L9.045984,178.053680L9.075078,178.387274L8.488695,179.802362L8.047590,181.524966L7.491177,184.811019L8.382964,187.226375L8.726075,189.758934L9.280567,192.173888L8.170064,194.521276L7.920053,195.426539L7.721707,197.027708L6.947556,198.421693L6.677499,200.941462L6.134329,202.878845L5.353450,204.650494L4.511832,205.571258L4.804817,205.870184L4.910452,205.754541L5.159048,205.569076L5.183988,206.132018L5.220595,206.302211L5.053884,206.177839L4.726264,206.042558L4.542416,205.935642L4.305996,208.399132L4.501518,208.868280L4.531973,209.232691L4.037890,209.376711L3.712302,209.666934L3.674995,210.022624L4.030891,210.363041L4.061461,210.729647L4.318259,210.729647L4.220035,211.292656L3.956980,211.441047L3.566450,211.310113L3.091674,211.061341L3.169736,211.015515L3.297548,211.030790L3.397395,210.978418L3.376668,210.729647L3.026838,210.819117L2.793381,210.965324L2.639985,211.179180L2.529609,211.462869L2.846694,211.829484L2.596593,211.999699L2.240887,212.377230L1.966799,212.527807L1.962855,212.794046L1.580891,212.990452L1.176897,213.370174L0.591504,214.391510L0.901216,214.760331L0.749011,215.395409L1.828695,214.902186L2.195883,215.290653L2.325434,216.587022L2.472474,217.285418L2.736925,218.053665L3.105979,218.420333L2.974216,218.538191L2.898672,218.525096L2.857232,218.564382L2.800094,218.819742L3.791878,218.656049L4.048730,218.204260L4.032545,217.512399L4.178577,216.621942L4.578308,216.953679L4.670160,216.848919L4.727421,216.731066L4.850497,216.643767L5.146519,216.621942L5.113630,216.224734L4.082091,215.456517L4.054601,215.124791L4.328778,214.884727L4.920177,214.609747L5.248248,214.391510L5.357714,213.961586L5.343055,213.426914L5.487233,213.191224L6.121629,213.658240L6.258996,213.385450L6.425950,213.199953L6.589267,213.060286L6.712181,212.927165L7.046931,213.594953L7.231230,213.841557L7.549707,214.269297L7.667001,214.426428L8.115401,214.760331L8.358191,214.456981L8.579540,214.432975L8.811328,214.668671L9.080058,215.124791L9.444869,215.124791L9.414550,214.760331L9.678847,214.760331L9.696734,214.930557L9.703809,215.284106L9.736759,215.456517L9.962209,215.347396L10.023770,215.281924L10.100037,215.303748L10.362160,215.456517L10.402557,214.823620L10.705504,214.483169L11.209016,214.360957L11.859263,214.391510L11.851047,214.694860L11.877224,214.919645L11.920372,215.124791L11.493923,215.323389L11.158893,215.591827L10.916639,215.901732L10.761079,216.224734L10.926963,216.294572L11.085497,216.320762L11.233313,216.397148L11.393464,216.621942L11.746166,215.670394L12.050677,215.303748L12.545762,215.124791L12.515384,214.760331L12.176638,214.760331L12.145889,214.391510L12.651369,214.203827L13.114378,214.131809L13.562624,214.195097L14.014543,214.391510L13.603301,214.548640L13.198238,214.779972L12.992917,215.085507L13.198800,215.456517L13.232254,215.858083L12.886042,215.858083L12.916565,216.224734L13.112513,216.342586L13.150105,216.346951L13.295842,216.621942L13.861572,215.860266L14.794879,215.847171L15.736941,216.028313L16.325820,215.858083L16.638527,215.858083L16.669122,216.224734L16.981835,216.224734L17.112482,215.827529L17.360725,215.545996L17.718292,215.325572L19.070664,214.893457L19.509480,214.577011L20.031013,214.315127L20.579782,214.511540L21.120307,214.875998L21.602752,215.124791L21.376914,214.917463L21.183726,214.655577L21.031912,214.354409L21.515825,214.354409L22.053866,214.378415L22.478504,214.027056L24.749502,215.626745L25.334277,216.207274L25.751899,216.259653L26.564257,216.224734L26.920370,216.342586L27.268438,216.630672L27.566524,216.988598L27.780503,217.320338L28.056004,217.320338L28.025235,216.953679L28.337960,216.953679L28.716733,217.119548L30.006553,217.405456L30.291956,217.523311L30.797925,218.361404L30.871601,218.662597L30.367256,218.420333L29.620385,218.926688L28.628319,219.395945L28.081756,219.939415L28.647818,220.653138L28.960603,220.653138L28.929767,220.284271L31.302349,222.117723L32.045975,222.460411L32.528252,222.973357L33.362596,224.313589L35.961686,227.077112L36.464070,227.832414L36.792386,229.362697L37.337480,230.364718L37.602834,231.093869L37.891198,231.471547L38.269665,231.722606L39.225129,232.102471L39.682284,232.403746L40.742549,233.779151L42.190932,237.058427L43.144478,238.499446L44.790888,240.163213L45.228699,240.864105L45.583659,241.872880L45.772255,243.809686L46.028995,244.897119L46.645084,246.277182L48.664990,249.648850L50.168967,251.083608L51.570870,253.191030L52.770128,254.595286L53.371576,255.112880L55.668869,256.672236L59.909948,261.464073L61.147223,263.204844L61.422965,263.849180L61.355704,264.312230L60.969453,265.078891L60.903917,265.517921L61.002460,266.048693L61.186233,266.478992L62.712063,269.128542L66.787859,274.128603L69.984912,276.911621L71.209839,278.748802L71.884831,279.349552L72.694857,279.109252L73.866338,282.445103L75.449106,284.990199L76.356650,287.314693L77.689332,288.776260L80.545373,291.273413L82.964793,294.209750L87.129747,301.046102L91.202700,309.836011L93.416868,312.667714L94.614972,314.542417L98.087963,321.840269L99.304137,323.374135L101.002029,324.003414L102.535065,324.134514L104.177008,324.567143L105.697397,325.371221L106.879659,326.603559L107.410603,327.835895L107.704373,329.350095L107.646495,330.820593L107.122509,331.919642L106.244483,333.092977L105.896071,334.292531L106.049833,335.551075L106.712012,336.901385L107.016257,337.165766L107.581171,337.309973L107.705346,337.620238L107.735038,338.776080L107.815368,339.101638L108.141805,339.615101L109.286691,341.015650L109.720010,341.304062L110.427566,341.553144L111.918291,342.617206L112.516314,342.802924L113.031073,342.470816L112.830538,341.937693L112.473692,341.317171L112.519004,340.716313L113.524945,340.797156L114.783159,342.309131L116.818662,345.368015L117.431748,345.756928L118.819473,346.338110L119.441807,346.801308L119.844815,347.389043L120.610859,348.938121L121.059341,349.584841L121.220629,349.892907L121.224665,350.559288L121.310832,350.865167L121.571646,351.151382L122.233357,351.590535L122.500740,351.966328L123.410122,354.251652L123.812225,354.933311L126.019228,357.135574L126.786142,358.350301L126.021267,358.964215L126.281011,359.495107L127.040981,360.307826L127.380289,360.799388L127.526512,361.264732L127.711072,362.466316L127.854626,362.999379L128.496021,364.196579L129.378516,365.411244L130.366135,366.472974L131.339182,367.228851L131.755894,367.652664L132.259403,368.657575L132.724831,369.081383L133.246796,369.457128L133.813809,369.990161L134.759384,371.095540L135.370191,372.082944L135.840144,373.146797L136.165921,374.293648L136.335127,375.508204L136.267556,378.671223L136.651513,379.959991L137.695925,382.210029L137.916361,383.420112L137.066849,385.691702L137.189334,388.404432L136.678171,389.306473L135.544045,389.725821L134.509731,389.693060L133.461479,389.513963L132.285178,389.489938L133.209566,391.396642L133.866326,392.261525L134.713375,392.785693L135.192402,392.711436L135.745214,392.078066L136.095136,392.252789L136.271345,392.628443L136.353357,393.161345L136.352764,393.694244L136.222349,394.087365L136.392638,395.572471L137.867515,397.470316L140.996239,401.661963L148.008876,411.482508L148.378795,412.486160L148.054823,413.327378L147.101507,412.683205L146.752096,412.562055L146.368576,413.644240L147.018867,415.450482L148.746775,416.937954L149.869272,418.464106L150.591316,419.668640L151.686527,420.793802L152.723761,420.435389L154.130384,421.120868L154.673835,421.924416L156.636743,421.850455L156.302558,420.766665L156.405018,420.058241L157.059278,419.508013L157.587878,419.568535L158.682857,419.532573L159.632328,420.177698L160.357261,420.862221L161.220763,421.347024L162.041206,421.751513L162.674894,422.195395L163.160192,423.280295L165.054266,424.789649L165.731063,425.409717L167.945781,427.117094L169.322241,426.724304L170.371379,427.132911L170.616505,426.813440L170.548052,426.331221L170.428901,425.647987L170.246607,425.165097L169.963297,424.882260L170.195567,424.362098L170.756791,424.245453L171.034687,423.846011L171.540602,424.050093L171.404540,424.892024L170.932148,425.812014L171.316809,426.497179L172.158822,426.021378L172.826516,425.785258L173.312389,426.270586L172.186918,426.463139L171.428279,427.060078L171.203358,427.700926L172.718484,428.876716L174.706122,430.164916L175.469119,430.780589L176.560688,431.543584L176.923528,431.278879L177.321944,431.081318L177.707110,431.184630L178.092979,431.382713L179.573231,432.804368L180.413382,433.580429L181.410554,434.359429L182.367436,435.539013L183.339220,436.450812L183.968016,436.924610L185.120021,437.703817L185.883909,437.810681L186.848795,438.119936L187.650319,438.709813L188.038591,439.033012L188.851197,439.976110L189.363071,440.879780L189.840744,441.254933L190.492835,441.628290L191.255652,441.855598L192.033239,442.109986L192.645463,442.884187L193.078237,443.823750L193.343569,444.594839L193.815888,445.133755L194.606098,445.411702L195.114141,445.529582L195.589517,445.778440L196.376003,446.747671L196.797036,447.991943L197.088039,449.319154L197.492218,450.539390L198.820798,454.224286L201.058314,457.054890L201.268144,459.663217L202.349736,460.676311L203.906516,460.831284L203.882237,460.460222L202.689454,460.001849L202.222087,459.530378L202.118027,458.631088L202.494310,458.631088L202.970219,458.945404L203.959682,458.321971L204.081676,459.196419L204.286646,460.084793L204.667959,460.678494L205.500877,461.560310L205.671041,462.516882L206.019064,463.690477L206.291096,465.197524L206.690518,467.308194L207.383055,468.860274L208.091456,470.128261L208.544472,471.732061L208.587063,472.507479L209.047668,473.432989L209.223973,474.161419L209.842697,474.976798L210.265175,476.157533L211.157074,477.202946L212.124691,478.988860L213.006326,480.161165L213.659988,481.330871L214.025806,480.512086L214.583845,480.777812L214.666255,481.439684L214.937437,482.266087L215.150407,483.800458L215.104263,484.551200L214.890673,485.334675L214.544506,486.048311L214.063271,486.593902L215.157571,488.872273L215.890030,489.727746L216.807582,489.524789L217.612751,489.983077L218.685174,490.260232L219.638001,490.670507L220.095235,491.521606L220.256459,492.102098L220.576893,492.638942L220.978729,493.033936L221.327645,493.188878L221.830679,493.516220L222.717116,495.135464L223.238418,495.750860L223.005574,496.357525L222.668172,496.741600L222.228383,496.817979L221.702344,496.484096L220.867025,496.204768L219.138737,492.636738L217.735202,491.843978L217.773237,492.570942L220.456015,497.212964L221.813304,498.722588L223.239014,500.870844L223.943365,502.376070L224.263229,502.009463L223.912427,501.466098L223.765668,500.931461L223.682269,500.385911L223.495453,499.814173L223.156140,499.334087L222.284031,498.413191L222.095574,498.114226L222.482352,497.854541L223.437202,498.653235L225.828273,501.308980L225.930077,501.727961L224.785325,502.939072L224.705643,503.589359L225.097814,504.431674L226.099393,506.035555L227.497536,509.035982L228.897265,510.921320L229.300387,511.638624L229.740972,513.107083L229.589520,516.100493L230.135648,519.033160L229.679454,521.274440L229.822305,522.811420L230.945277,522.577857L231.210007,522.027929L231.435863,520.500527L231.716628,519.981208L232.296233,519.841559L232.770442,520.190681L233.057545,520.806008L233.099527,521.482429L232.962755,521.709357L232.220842,522.577791L231.680019,524.076816L231.296173,524.639766L230.905151,525.087071L230.609609,525.615108L230.274497,527.888709L228.867135,529.784818L228.612623,531.231439L228.747360,533.430812L228.625373,534.211935L228.354984,534.787958L228.232245,535.372707L228.597278,536.160371L229.145554,534.327576L229.436064,534.327576L229.400635,535.414163L229.092830,537.541506L229.060347,538.556080L228.941253,538.830996L228.347993,539.313190L228.168026,539.518286L228.089596,540.089936L228.153132,541.135048L228.024462,542.320616L227.120381,542.308083L225.760315,540.581236L224.562082,541.077619L224.559234,542.102491L225.683019,546.615092L227.219715,549.823849L228.921797,551.967836L229.026953,552.146744L229.179753,552.552559L229.285039,552.733648L229.849169,553.074009L229.941352,553.100190L230.104197,553.547459L230.225606,554.435448L230.395096,554.930715L230.655294,555.364890L230.856668,555.574342L231.070127,555.733612L231.385982,556.025971L231.571848,556.479782L231.585966,556.903048L231.752469,557.160498L232.400061,557.129953L232.740023,556.881230L232.953578,556.414329L233.241229,555.297255L233.643104,555.951791L233.671017,556.791777L233.480630,557.518310L233.249924,557.825940L232.398550,558.172842L232.355623,558.967008L232.941270,560.420066L233.123853,561.890575L233.155980,563.561801L233.416141,565.132663L234.245725,566.310807L233.921847,566.642432L234.409780,567.728940L234.883887,568.331101L235.351205,568.187106L235.872093,567.043873L236.729901,568.819810L236.840646,569.535420L236.370181,570.006675L236.387892,570.303391L237.135417,571.119359L237.582916,572.668388L237.624413,574.378862L237.184371,575.681351L233.714485,579.156829L235.314107,581.665800L235.977534,582.084688L237.892747,585.008179L238.259688,585.780504L238.188604,586.112124L237.786671,586.792816L237.700619,587.063348L237.839542,587.687316L238.332546,588.738898L238.714207,590.209368L239.265107,590.833335L241.311651,592.332166L241.620631,592.443433L241.808175,592.674694L241.902755,593.316115L242.071862,593.811362L242.734647,594.280429L242.914583,594.766949L243.017137,596.056336L243.202478,596.955199L243.543174,597.731886L244.979728,599.909229L245.003673,600.123036L245.446930,600.009588L245.925727,599.793599L246.404291,599.701967L246.864482,599.939773L247.255285,600.219032L247.602920,600.343389L247.878109,600.585558L248.074384,601.220436L247.993789,601.584781L247.657872,601.466969L247.286402,601.130985L247.077348,600.856090L247.070246,602.082211L248.105389,603.413054L249.504402,604.564997L250.535590,605.250055L250.552662,604.257376L250.807185,604.277011L251.488574,605.250055L251.825820,605.389685L252.133777,605.289326L252.354145,605.306780L252.474915,605.815119L252.517308,606.148921L252.602634,606.441271L252.867139,607.078332L252.302963,606.938702L251.817874,606.729257L251.444624,606.428181L251.215958,606.013655L250.979022,606.484905L250.961346,606.890704L251.173386,607.215780L251.618032,607.444860L251.342418,608.287003L251.998905,609.094239L253.057385,609.726938L253.987557,610.043287L253.645070,609.879658L253.348668,609.663668L253.115332,609.362591L252.977169,608.943700L253.626437,609.050605L255.272657,609.644032L254.598158,610.905068L254.790719,611.797393L256.457658,613.702041L256.708778,614.304198L257.077264,615.870682L257.414877,616.464114L258.559158,617.585527L259.171201,617.956423L259.894466,618.096055L259.751108,618.552039L259.496384,618.787667L259.133645,618.859664L258.666367,618.826938L258.689891,619.226197L259.654587,620.059624L262.702937,624.916211L264.043174,626.275451L266.668928,628.383043L267.521071,629.227392L268.336209,630.855002L269.209632,631.289178L270.150012,631.574993L270.778065,631.891352L271.469082,632.504436L276.197944,635.532777L277.025748,635.768413L277.315359,635.609141L277.014957,635.266597L276.544868,634.934962L276.314820,634.821508L275.907542,634.463692L275.513265,634.197512L275.218264,633.817879L275.121196,633.137157L276.182685,633.612789L278.247079,634.915326L279.386731,635.366960L279.749704,634.913144L280.658869,634.542237L281.800407,634.324057L282.843826,634.302239L283.620296,634.692782L285.184528,636.172048L285.688530,636.499320L285.657250,636.737138L286.104285,637.252046L286.873565,637.965501L287.349814,638.652776L287.638358,638.921140L289.087193,639.156778L290.328450,639.529870L291.151020,640.118965L290.886866,640.895698L292.671225,642.946631L294.905998,644.801207L295.884651,645.401219L296.759182,645.652133L297.163556,645.702316L298.329539,646.014323L298.716675,646.219418L299.981489,647.993282L300.420887,648.248562L300.839792,648.414385L301.311453,649.145316L301.741865,649.313322L303.561340,650.477951L305.017494,651.141250L305.604705,651.712910L305.942531,652.672951L305.444009,654.086836L305.421702,654.473037L305.745112,654.813418L307.242660,655.784378L309.317928,658.806373L310.012147,659.264584L310.082498,659.742433L310.533079,660.811595L311.202766,661.933129L311.937591,662.561538L311.318391,661.208714L311.707982,660.693769L312.634037,660.658858L315.046800,660.966515L315.991761,661.623288L318.335591,664.998816L318.739186,666.164003L319.022156,668.850056L318.866377,671.047353L317.746843,670.390563L317.238243,670.314192L317.258312,670.648042L318.427501,671.311379L320.952760,673.977831L322.094795,674.628081L326.171333,676.172976L326.316151,676.814502L326.601266,677.268372L326.733637,677.829163L326.654658,678.405230L327.010485,678.837280L326.806731,679.230054L326.400509,679.659923L326.118490,680.201080L326.124313,680.801153L326.430217,681.663078L326.536415,682.230422L326.670159,682.688662L327.175287,683.522223L327.313896,684.061203L327.292522,684.713652L327.219098,684.879492L328.544439,685.985823L329.286124,686.402607L329.825622,686.987415L330.098721,688.122119L330.328333,688.597822L331.211974,689.104077L331.429699,689.571053L331.530554,690.112222L331.862724,691.094185L331.924470,691.615717L331.650082,692.852995L331.663181,693.448723L331.879338,693.952801L332.607501,695.087524L333.174384,696.567033L334.043064,697.199862L336.095656,697.841422L337.042819,698.264764L337.937227,698.882322L338.391073,699.678819L337.874418,700.988132L337.713946,702.103234L337.674403,703.085224L337.528898,703.504207L337.325695,703.910098L337.133501,704.499294L336.912705,705.559849L336.879153,706.138137L336.946847,706.696785L337.165864,706.869180L338.147458,708.178515L338.193018,708.494938L338.775755,710.175257L340.715355,710.692448L340.769794,710.777555L341.838318,711.384218L342.034326,711.425681L342.523915,712.185102L342.485484,712.492799L342.250241,712.682654L342.135136,713.103828L342.037732,714.199319L341.136730,717.717128L341.062436,718.758073L341.151872,719.491318L341.485138,720.113268L342.119028,720.811599L342.695980,721.636503L344.126520,724.674258L344.532080,725.171823L345.044339,725.612648L345.581365,725.959635L346.102582,726.169136L346.278663,726.066568L346.731531,725.514445L347.013634,725.407512L347.092815,725.525356L347.317278,725.787233L347.606409,726.051292L348.352648,726.404826L348.739018,726.961315L349.006514,727.624738L349.116011,728.185593L349.390747,728.526034L351.156358,729.798327L351.264320,730.143134L351.320936,730.645069L351.435422,731.098993L351.694225,731.299767L352.038809,731.347779L352.259788,731.487448L352.406520,731.718775L352.535172,732.028666L352.779172,734.902804L352.908948,735.358914L353.063999,735.793201L353.474172,737.829334L353.725123,738.470947L354.196185,739.173666L354.602571,740.192829L354.819308,741.216359L354.714884,741.949635L355.431308,741.862340L356.037252,741.960546L356.332440,742.325002L356.086836,743.047368L356.363549,743.420554L356.346052,743.891947L356.148955,744.409171L355.878893,744.913301L356.510846,744.681968L357.043526,744.697245L357.479414,745.000596L357.806305,745.642216L357.554345,745.812442L357.453413,745.967392L357.391762,746.144165L357.272580,746.375498L358.191966,746.633019L359.148110,746.742139L358.981217,747.575811L359.262940,747.905352L359.682686,748.064667L359.906263,748.374567L360.076979,749.072933L360.446336,749.662180L361.325392,750.773022L360.963627,751.781292L361.747685,752.892137L363.831035,754.832301L363.927335,755.238231L363.932526,755.709633L364.024239,756.102468L364.375668,756.261785L364.982069,756.427649L365.083458,756.855403L364.982152,757.453387L364.953885,758.129939L365.304114,759.037829L367.428220,761.792059L368.422065,762.787252L369.470381,763.546741L370.344432,764.443726L370.861047,765.851405L371.914678,765.672444L373.742299,767.010286L374.726193,766.551971L377.662889,769.413171L378.158652,769.696891L379.729200,771.953559L380.206846,772.444614L380.465353,772.444614L380.812309,772.333308L381.096241,772.184900L381.173541,772.077959L383.333132,774.393561L383.596229,774.856246L383.841046,775.524083L384.327579,775.650667L385.373848,775.406229L385.726617,775.585193L385.945068,775.999863L386.272291,776.903410L387.281037,778.337301L387.849391,779.461281L388.196137,779.923968L388.315868,779.633697L388.746837,779.784289L394.062840,784.544308L394.388208,785.159773L394.499573,785.629011L394.750821,785.890912L395.122360,786.000037L395.603099,786.026227L396.075390,786.231382L396.401411,786.728993L396.814142,787.922824L396.949767,789.062093L396.829474,791.735672L397.094614,792.687249L397.470624,793.972753L398.714674,801.251484L399.464199,803.337990L399.722350,804.437990L399.962817,808.115577L400.293928,809.230859L400.746385,808.239982L400.070435,804.730450L400.979526,804.071323L400.069039,802.552276L399.680722,801.701087L399.508729,800.775692L401.672105,801.790571L402.122613,802.207435L402.386263,802.942950L402.729540,804.782831L402.984631,805.568547L403.654190,807.067954L404.172571,807.932243L404.776300,808.497522L405.446099,808.562999L406.401567,808.501887L407.258355,808.576094L407.658765,809.047525L407.898081,809.759036L408.361645,810.007846L408.833210,810.328681L409.092050,811.245353L409.241240,813.879696L409.626187,814.741806L409.112132,817.105517L410.848649,819.554352L411.348988,819.253158L411.820761,819.314270L413.369328,820.222217L413.703739,820.475394L414.878182,821.826403L415.528020,822.795463L415.847267,823.181777L417.235295,824.473858L417.551793,825.010771L417.064089,825.401451L417.218600,826.167533L417.734395,826.992546L418.331442,827.575293L418.042157,827.974704L418.900534,828.201691L418.972175,829.183850L418.554951,831.471190L418.643674,833.821826L418.877551,834.849822L419.464729,836.063336L421.895756,838.889780L422.266184,839.911229L421.725499,841.659480L422.084658,842.216039L422.186915,844.156358L422.259949,844.302591L422.260311,844.303292Z "/></g></svg>