<?xml version="1.0" encoding="utf-8"?><!DOCTYPE svg  PUBLIC '-//W3C//DTD SVG 1.1//EN'  'http://www.w3.org/Graphics/SVG/1.1/DTD/svg11.dtd'><svg enable_background="new 0 0 1000 557" height="557px" pretty_print="False" style="stroke-linejoin: round; stroke:#000; fill: none;" version="1.1" viewBox="0 0 1000 557" width="1000px" xmlns="http://www.w3.org/2000/svg" xmlns:xlink="http://www.w3.org/1999/xlink"><defs><style type="text/css"><![CDATA[path { fill-rule: evenodd; }]]></style></defs><metadata><views><view h="557.524683793" padding="0" w="1000"><proj flip="auto" id="robinson" lon0="160.144970929"/><bbox h="87.59" w="157.38" x="2300.16" y="110.82"/></view></views></metadata><g class="" fill="#000" id="country"><path d="M999.101567,537.754127L994.598275,533.983988L993.549041,528.572854L987.636495,527.773128L983.278350,529.850338L987.404511,539.052384L990.597715,539.478213L999.101567,537.754127Z M396.870163,555.524684L403.900300,551.868787L400.833309,547.714360L393.524782,541.025736L361.844635,519.433130L354.926280,517.210515L353.317454,519.630465L352.027551,524.231484L353.677615,528.655942L361.266352,530.224236L362.227673,531.969093L366.359088,535.500352L377.332371,537.629494L384.540735,542.729050L387.068218,550.913269L391.205714,553.686349L396.870163,555.524684Z M938.147475,441.257409L938.014158,439.917610L941.756264,434.371463L938.535809,432.969347L929.277154,430.975226L918.378272,432.377342L913.368941,435.430839L910.326443,441.558604L906.137869,441.070460L905.789292,444.123956L907.599214,450.428283L911.113502,450.147860L915.406150,451.217622L922.418740,443.563110L928.134669,442.576436L930.438831,443.095738L938.147475,441.257409Z M530.243368,401.852734L528.828878,400.149420L524.957217,398.082594L509.786073,385.972437L501.475443,382.524260L494.240512,382.399627L491.433120,390.698100L491.645285,395.382217L501.297406,395.963836L509.238059,399.100428L509.142992,409.008729L512.407905,412.913886L511.277938,420.900760L532.510173,436.905657L542.986784,441.953274L555.491326,444.134342L562.511795,448.340689L569.996244,446.575062L579.005282,449.161186L585.863239,448.216056L578.536356,443.209985L579.371232,436.168248L569.941168,414.482180L565.826437,408.925641L557.805981,411.376750L548.200488,407.076923L541.225533,408.105142L530.243368,401.852734Z M524.201098,320.853172L514.079154,293.495968L510.262948,291.896493L512.707977,301.971100L513.305839,308.950616L511.799437,318.163154L510.604445,326.804446L513.209460,330.771959L516.865219,327.811903L522.999974,336.172760L523.929416,332.236407L524.201098,320.853172Z M360.203111,283.307105L354.254750,282.881270L348.079695,287.409655L345.886609,291.938038L344.976774,304.370309L345.146923,310.903218L349.380878,322.037196L355.321227,331.530149L359.288452,335.508046L363.715115,338.488872L377.361773,340.711508L407.066113,341.656647L421.176177,349.467027L436.428075,353.071017L442.584605,351.502710L451.309752,347.722156L453.118636,346.070759L451.991036,335.923492L448.619869,330.356513L442.391543,327.863834L438.359848,316.937586L429.606679,311.339437L415.002515,299.146057L387.973502,298.834471L378.938817,300.392399L360.203111,283.307105Z M402.449513,253.831017L395.290562,257.923191L395.612825,262.898193L402.109818,263.251325L408.956267,267.436972L409.910572,271.664163L410.579167,272.245791L412.922140,271.362963L419.372566,273.585613L423.212451,269.233788L415.859013,260.810562L410.305124,255.087751L407.675068,255.326634L402.449513,253.831017Z M309.331307,267.447358L313.917000,264.279561L314.111895,257.497356L309.301481,256.656072L307.439512,254.454191L305.292723,253.571361L300.051619,257.009203L295.630057,262.285406L298.493577,265.972515L303.784524,266.408736L308.042545,267.707014L309.331307,267.447358Z M168.916927,228.665154L167.102836,226.078977L163.319269,222.796921L158.435285,222.090655L151.520647,223.035805L151.673149,225.611596L163.080046,231.240944L168.328017,232.404204L168.916927,228.665154Z M220.221375,235.374671L225.415444,232.757336L224.167492,229.298715L222.631045,220.075721L216.361364,231.542145L218.123270,235.779734L220.221375,235.374671Z M213.012956,220.719669L213.003812,216.710573L211.959007,214.176326L210.135889,212.472978L216.643797,207.155210L214.347477,205.046798L204.627221,202.003621L201.304792,205.836154L198.440979,207.612206L195.676183,208.110747L194.433582,210.406112L191.776297,219.078640L196.509726,226.276316L202.950966,229.111763L213.012956,220.719669Z M145.397653,223.835546L140.754320,217.157182L142.937913,209.159760L146.562549,206.989030L149.967455,198.482674L147.585399,192.718292L144.247634,193.943872L132.914532,203.249973L130.430774,208.048429L140.385470,222.402243L145.250237,225.393484L145.397653,223.835546Z M362.787467,201.972462L359.517992,195.854947L359.456513,192.032797L355.424009,188.314509L351.340920,190.412538L349.413340,195.958810L351.941565,199.510916L358.181788,203.416154L362.787467,201.972462Z M464.237230,181.345313L459.784876,181.615357L457.950073,183.723773L454.536132,183.941884L449.750126,182.861711L448.735267,187.597856L458.546581,205.306455L452.854429,213.958214L459.325717,250.465878L466.624933,270.989059L479.430056,283.182470L480.604072,287.066911L493.598572,296.092516L503.497973,317.010289L507.493622,319.316019L508.895787,315.327729L508.999229,306.457932L500.804145,288.012055L502.080701,274.728096L498.285093,268.413277L498.359935,264.144540L495.534267,250.247767L485.940580,238.895608L479.782546,237.026084L477.282499,232.933903L479.294063,222.287994L482.818994,218.663190L484.314731,213.044223L464.237230,181.345313Z M185.372442,173.711392L175.122574,171.010956L171.998235,165.485448L172.321550,148.586938L162.584289,144.307780L157.037891,146.322724L147.241439,158.204654L144.809062,165.101155L135.586362,170.460483L134.044165,175.902899L134.904238,181.438790L141.271999,183.401798L146.445268,177.232344L160.929403,175.425130L165.849891,176.661098L165.768992,183.879567L166.843825,195.325247L172.651222,201.100015L181.132461,203.644652L186.765789,213.044223L188.525609,208.858558L193.408300,208.484653L195.284131,201.806282L190.416768,182.415101L185.372442,173.711392Z M77.496743,166.202103L79.043920,158.183881L76.455480,143.570352L74.552515,144.868641L73.320251,149.106253L72.460702,155.711942L76.105963,168.829835L77.496743,166.202103Z M131.320848,159.451010L133.420830,156.657095L134.924804,149.646341L134.305907,141.700817L131.100233,135.469030L127.330056,132.581635L119.846298,133.900697L113.062315,141.358068L112.248507,149.480160L118.990510,160.448095L129.121122,161.060886L131.320848,159.451010Z M87.816870,139.768963L90.149146,134.866624L98.806306,124.334901L101.098736,118.477017L92.794647,115.589619L86.271115,106.750857L79.259452,102.648258L73.157019,109.690188L73.313060,116.877523L81.817276,127.295001L81.172998,133.692971L83.286948,135.489803L85.889852,141.233433L87.816870,139.768963Z M380.427886,204.776755L378.325268,197.246708L373.808741,191.139577L379.233777,182.726689L343.729250,151.038106L338.105746,147.330195L330.711801,145.419115L323.058487,138.335652L314.812954,137.691701L306.206271,130.660167L303.110000,125.529327L293.485089,118.425085L282.587994,105.868020L257.207212,99.532360L258.903854,102.980621L266.311566,110.874229L268.229412,122.330341L276.016974,128.603677L283.743916,138.055222L288.589127,140.153257L290.392553,143.674215L297.963736,152.284462L311.025789,158.942081L324.038081,168.829835L328.876176,169.588034L334.135078,175.653628L360.178084,187.483607L368.652079,198.347653L380.345974,207.238301L380.427886,204.776755Z M16.035852,51.931769L18.835896,46.198505L7.673025,38.720333L4.140745,42.947578L0.898433,51.059316L6.407100,54.476424L16.035852,51.931769Z M80.192384,0.000000L77.427147,3.126294L77.232221,11.310744L80.351054,16.244264L97.888905,32.125000L115.042401,60.791322L132.228839,76.017699L145.254745,79.143987L152.030963,77.918399L152.113902,79.819099L153.862345,83.402385L163.122248,86.871421L170.923817,80.483824L168.255763,76.734356L165.114680,74.958292L161.418652,74.418203L154.602142,71.426937L142.310593,58.651735L138.518423,53.697448L135.603901,37.048131L129.401758,30.110048L105.684971,16.503923L91.620244,3.417112L80.192384,0.000000Z "/></g></svg>