<?xml version="1.0" encoding="utf-8"?><!DOCTYPE svg  PUBLIC '-//W3C//DTD SVG 1.1//EN'  'http://www.w3.org/Graphics/SVG/1.1/DTD/svg11.dtd'><svg enable_background="new 0 0 1000 667" height="667px" pretty_print="False" style="stroke-linejoin: round; stroke:#000; fill: none;" version="1.1" viewBox="0 0 1000 667" width="1000px" xmlns="http://www.w3.org/2000/svg" xmlns:xlink="http://www.w3.org/1999/xlink"><defs><style type="text/css"><![CDATA[path { fill-rule: evenodd; }]]></style></defs><metadata><views><view h="667.748561311" padding="0" w="1000"><proj flip="auto" id="robinson" lon0="46.3495375816"/><bbox h="100.02" w="150.0" x="681.64" y="63.57"/></view></views></metadata><g class="" fill="#000" id="country"><path d="M27.205487,665.748561L28.237588,664.740291L28.970908,663.105258L29.230566,661.779065L28.197744,662.087904L26.956031,662.914504L26.087232,664.059028L26.159576,665.248968L27.205487,665.748561Z M128.065651,659.562686L127.807494,658.926840L127.242140,659.344682L127.185985,661.006966L128.065651,659.562686Z M31.451855,624.445742L31.970384,623.973397L31.101299,622.910622L29.137863,621.330084L24.525648,619.104614L24.654731,620.576149L24.933367,621.866013L25.483759,622.901538L26.443806,623.619139L26.417439,624.445742L25.339627,624.164152L24.382081,623.619139L23.668488,624.445742L23.087509,623.619139L21.777656,624.600162L19.227603,625.880942L16.544434,626.825631L14.837547,626.725712L11.721499,628.715009L7.157411,629.005682L2.919456,627.588649L0.749908,624.445742L3.165317,631.903333L9.600617,631.567242L17.631858,628.805844L24.880894,629.014766L26.714640,627.897490L30.162692,625.027089L31.451855,624.445742Z M22.495824,619.104614L19.161737,618.904775L15.318601,618.123590L11.547240,617.851083L8.139187,619.231783L7.852644,619.195449L7.665970,619.286285L7.673568,619.804047L8.198988,619.867632L8.274303,620.012969L8.218305,620.267308L8.382612,620.630650L9.554590,620.212807L11.772671,620.576149L13.043786,619.804047L14.675186,620.775987L17.744273,621.266499L20.826211,620.848656L22.495824,619.104614Z M997.630890,375.318222L998.736291,372.901963L999.250092,370.458452L997.440470,371.548494L996.331284,373.828498L995.001804,379.678389L997.630890,375.318222Z M650.906944,357.541454L650.926064,358.004722L650.915944,358.368069L651.028668,358.631496L651.401828,358.740500L650.906944,357.541454Z M914.029330,231.541526L914.158761,230.251641L913.838749,231.477940L913.842792,231.941209L914.029330,231.541526Z M714.645231,183.461520L714.417637,182.925582L713.690479,181.835538L714.045670,183.070921L714.288853,183.625026L714.692681,184.160964L714.645231,183.461520Z M919.559724,99.209711L919.618228,99.006181L919.715888,98.660179L919.526703,98.293824L919.173129,98.049588L918.959965,97.947823L918.780862,97.927470L918.705796,98.069941L918.827325,98.253118L918.804275,98.477002L919.049644,98.741591L919.433101,99.250417L919.559724,99.209711Z M916.487511,97.703586L916.170767,97.418644L915.748128,97.052289L915.410187,96.909818L915.189625,97.133701L915.327269,97.398291L915.609026,97.642527L916.092004,97.723939L916.394027,97.866411L916.487511,97.703586Z M928.735893,93.427414L928.391490,93.411132L928.185574,93.622803L928.203227,94.111276L928.558670,94.274100L928.838958,94.583466L929.237494,94.746291L929.554273,94.713726L929.661854,94.404360L929.407011,93.606521L929.165013,93.508826L928.975677,93.622803L928.735893,93.427414Z M930.275219,93.329719L930.152204,93.052918L929.824011,92.955224L929.585331,92.710987L929.442413,92.678422L929.350686,92.922659L929.516430,93.215742L929.841299,93.459979L930.096925,93.590238L930.275219,93.329719Z M929.457514,90.105799L929.023232,90.252341L928.876632,90.382600L928.756188,90.626837L928.804817,91.017615L928.691000,91.603782L928.726728,91.929431L928.914218,91.896866L929.323456,91.587500L929.976540,91.294416L930.303632,90.805944L930.500692,90.350036L930.316881,90.219776L929.914641,90.219776L929.457514,90.105799Z M973.434669,89.282827L973.371794,88.777015L972.892541,88.046399L972.474253,87.905896L972.049581,88.046399L971.720890,88.327405L971.760897,88.748915L972.340589,89.423330L972.909545,89.479531L973.434669,89.282827Z M924.804829,92.967052L925.259309,92.804971L924.982802,92.310238L925.119598,91.011393L925.139594,90.125955L925.479152,88.938512L925.894966,88.438316L925.594243,87.094039L924.734561,86.072806L924.011760,85.948508L923.332226,85.880398L922.646064,86.107433L922.666340,88.002490L922.371583,89.346873L921.816774,89.782889L921.420651,90.670689L920.939619,91.558908L919.867574,92.081390L918.659577,92.187914L918.042601,92.472857L916.662688,93.938275L916.937095,94.508160L916.662211,94.752396L915.909870,94.670984L915.739499,95.057692L916.285549,95.525812L917.105097,95.810754L918.080299,95.566518L918.863932,95.851460L919.107473,96.197462L918.594731,96.300051L918.538340,96.746994L919.248033,97.044966L919.985429,97.072642L920.847152,97.671944L922.526546,98.821404L923.859759,98.978148L924.748310,100.441097L925.679309,102.060791L926.644922,102.165287L926.996943,102.896762L926.837114,103.837229L927.282491,104.516455L927.905035,105.509171L927.222236,106.093782L925.587103,106.083901L925.079310,108.121580L925.807195,108.539565L926.510636,108.017084L927.378006,108.382821L927.765158,109.584529L928.996658,112.144690L930.497185,113.032910L932.294822,113.032910L932.008443,111.465464L931.290328,110.802503L931.183342,109.271040L930.358111,107.076616L930.663515,105.822660L931.499223,105.561419L931.281405,103.001258L930.928203,102.322032L931.690115,99.239389L930.522600,97.880937L928.710864,96.470236L926.583496,94.746046L925.512511,93.122820L924.750316,93.168227L924.804829,92.967052Z M905.721380,79.136831L906.652375,76.911333L905.781100,74.994679L904.048915,73.586711L902.427289,72.978106L901.988865,75.049181L902.578775,77.728863L903.908382,79.572847L905.721380,79.136831Z M944.575883,62.767428L944.367969,62.227852L944.189396,62.020322L943.853412,62.310863L944.282891,62.767428L944.575883,62.767428Z M963.532520,65.091755L964.169776,64.427662L964.837242,64.054109L964.238413,62.974957L963.610220,61.563758L962.414383,60.982676L962.060145,62.103334L961.517274,63.473027L961.706830,64.842720L962.563810,65.838861L963.255073,66.046390L963.532520,65.091755Z M971.446884,61.605264L971.571366,60.941170L971.102550,60.609124L970.867289,61.314723L970.958892,62.144840L971.320562,62.352369L971.446884,61.605264Z M946.051505,60.609124L946.136555,60.069547L945.809658,59.945030L945.511218,60.194065L945.536948,60.692135L946.051505,60.609124Z M967.616855,60.899664L967.489499,60.028042L966.562749,58.865878L966.089358,58.741360L965.891680,59.405454L966.528154,60.443100L967.027219,61.065688L967.616855,60.899664Z M954.090997,58.077267L952.667292,57.786401L951.353958,57.164802L949.982910,55.711417L949.244694,55.747751L948.568429,55.884006L947.282701,56.401775L947.895132,58.091336L947.956551,58.907384L948.670902,59.737501L949.858236,59.911870L951.185632,60.163781L951.714897,61.552211L952.620950,62.633167L953.985203,63.287191L955.202721,63.323525L956.096350,62.415159L956.146518,61.225199L956.431337,60.298666L958.020166,60.216913L957.076981,58.865878L955.836283,58.658349L954.836526,59.156419L954.090997,58.077267Z M966.653858,56.375527L966.376264,55.669928L966.281780,54.964328L965.953058,54.922823L965.939480,55.545410L966.286702,56.417033L966.653858,56.375527Z M952.826801,55.586916L952.731374,54.922823L953.647004,54.922823L953.805237,54.383247L953.366636,54.341741L951.757831,54.217223L951.061951,54.217223L950.760351,54.610939L951.592431,55.492950L952.782043,55.960469L952.826801,55.586916Z M947.299077,46.995207L946.826504,46.829184L946.462025,46.746172L945.838486,46.787678L945.722361,47.078219L946.232452,47.202736L946.963192,47.285748L947.299077,46.995207Z M946.740485,0.000000L945.948200,1.126373L946.582014,2.298164L947.303372,2.307247L946.740485,0.000000Z "/></g></svg>