<?xml version="1.0" encoding="utf-8"?><!DOCTYPE svg  PUBLIC '-//W3C//DTD SVG 1.1//EN'  'http://www.w3.org/Graphics/SVG/1.1/DTD/svg11.dtd'><svg enable_background="new 0 0 1000 936" height="936px" pretty_print="False" style="stroke-linejoin: round; stroke:#000; fill: none;" version="1.1" viewBox="0 0 1000 936" width="1000px" xmlns="http://www.w3.org/2000/svg" xmlns:xlink="http://www.w3.org/1999/xlink"><defs><style type="text/css"><![CDATA[path { fill-rule: evenodd; }]]></style></defs><metadata><views><view h="936.352599869" padding="0" w="1000"><proj flip="auto" id="robinson" lon0="29.7749683634"/><bbox h="227.12" w="242.82" x="320.7" y="-372.7"/></view></views></metadata><g class="" fill="black" id="country"><path d="M908.725568,101.856949L909.101486,100.745752L909.545657,96.149445L909.233371,95.259928L909.014991,95.094372L908.370370,94.611732L907.583043,96.017560L907.258184,98.130513L907.258340,98.133319L907.422444,100.293978L908.122992,101.868173L908.725568,101.856949Z M145.400334,934.352600L148.811688,933.822425L149.075440,933.386540L149.192120,932.406221L149.550647,931.850112L152.999317,928.841424L154.822673,927.862888L161.381092,923.137753L162.759568,922.815139L168.270938,922.162782L171.230346,921.038090L171.826735,920.663787L172.158219,920.203929L172.040092,912.849766L172.089298,912.400603L172.439593,911.366815L177.769393,900.850697L177.993579,900.182300L178.053397,899.816910L178.999408,886.636137L179.392318,885.393813L179.861741,884.597085L181.590140,882.782615L185.228522,878.071767L185.643417,876.492573L185.742250,875.679806L185.316461,857.317697L185.516982,855.904270L185.716060,855.465804L185.946309,855.193100L186.164672,855.132499L186.737507,855.084375L187.393454,854.950696L187.915241,854.677992L188.426275,854.330428L190.482237,852.382288L192.553546,850.947473L193.328552,849.947559L194.946703,847.393411L195.747597,846.446969L196.244188,845.660940L196.747779,844.402582L197.073619,843.198820L198.594571,839.495053L199.215232,837.466716L199.282916,837.060335L199.293781,836.632566L199.248919,836.242227L199.047712,835.534627L198.525189,834.235280L198.424688,833.887718L198.278861,833.126646L198.315191,832.554506L198.461306,831.820170L201.352956,824.444733L201.939019,823.621279L202.363147,823.182817L202.735874,823.008145L203.682489,822.690884L204.558657,822.295199L205.204444,822.143697L206.761442,822.284504L207.454638,822.154392L208.908933,821.512740L209.256565,821.502046L209.966719,821.603640L210.369836,821.544822L210.910278,821.293509L211.340467,821.175873L211.753186,821.127749L212.479727,821.266773L212.814255,821.389756L213.431167,821.694541L213.781365,821.817524L214.139938,821.887037L214.506784,821.897731L214.834178,821.812177L215.412317,821.566211L215.750136,821.534128L216.410262,821.641070L216.761131,821.635723L217.088932,821.571558L218.205519,820.972683L218.513689,820.865741L219.226406,820.774840L219.614873,820.769493L220.337092,820.683939L220.953283,820.462926L221.520948,820.163489L222.416703,819.815927L223.103299,819.671556L223.835110,819.596696L226.274911,819.692944L226.958780,819.569961L227.715462,819.323994L227.902853,819.291912L232.346149,817.520240L234.938980,816.793035L235.285643,816.734217L237.243646,816.712829L238.620534,816.459733L239.573483,816.160296L239.923167,816.096131L242.359967,816.203073L242.847521,816.138907L243.380071,815.973147L244.638407,815.272678L247.332883,814.468831L247.989516,814.399319L248.218868,814.588250L250.927199,818.279528L251.248757,818.853450L251.377300,819.174276L251.459997,819.553920L252.035567,830.230297L252.155792,830.611724L252.321332,830.905815L252.725654,831.392401L253.204260,831.830864L255.416718,833.276365L256.346951,833.730869L258.006003,834.272709L258.177111,834.368957L258.569376,834.718302L258.790049,834.946445L259.157794,835.486503L262.910150,842.188215L263.644492,843.214861L264.519593,844.225289L264.538821,844.247515L269.238039,846.238430L280.972151,861.363702L292.703568,876.489009L295.411570,878.453198L296.934324,879.233883L300.452395,879.554713L301.100326,879.490547L324.358702,870.530496L340.056590,870.118766L342.851563,870.671305L351.523661,870.632092L356.466331,871.334352L356.816682,871.291574L358.072829,870.906579L358.410704,870.867367L366.208750,872.152466L372.193829,871.794207L373.187064,871.596362L373.805592,871.318310L380.277195,885.837774L383.263094,889.529948L407.465676,889.766244L431.668385,890.002539L431.746735,890.003304L430.963566,888.299223L430.665071,885.837774L430.690123,882.902970L431.886500,880.252180L435.713149,875.897314L440.221881,871.892238L441.412640,870.778248L448.771192,866.329419L455.995566,863.333234L469.921181,859.848678L474.914658,854.351817L477.631040,849.309467L477.509903,839.398805L479.320395,837.773283L482.610927,835.475809L498.597461,826.624567L501.294031,824.751300L515.826982,835.045366L530.359836,845.338330L546.777317,861.636406L547.766585,862.427784L548.610372,862.732571L549.444567,862.171121L550.142830,861.417173L551.301271,860.918106L552.077098,860.698874L558.924956,860.485601L558.944633,860.484988L571.918937,859.688263L576.148376,857.734774L588.859447,843.183670L601.558280,828.631513L607.969715,819.350730L609.606463,817.456075L613.217296,810.841720L616.916936,799.473806L617.674115,798.188723L631.607283,784.554546L645.528028,770.920375L646.478796,768.758371L646.714853,767.045522L642.153088,757.871709L641.093490,753.210834L640.712195,746.033263L641.256757,734.868541L640.757696,727.812161L640.622376,727.011879L640.309846,725.922855L640.110440,725.512911L623.608071,705.459495L643.719455,705.358791L663.830778,705.258087L663.875438,703.596919L663.811875,702.719992L663.666088,701.919708L662.834296,699.515289L662.297661,696.317714L662.242804,695.426528L662.272856,694.551383L662.457804,692.899123L662.449627,692.004371L662.396069,691.576601L662.312083,691.177350L662.320309,690.828004L662.489780,690.535695L691.401448,690.934947L691.199131,696.610023L688.086719,709.952848L688.385927,717.955679L687.829631,727.092086L687.644507,727.831767L686.912758,729.801280L686.253604,730.929517L685.489959,732.018541L685.276389,732.428485L685.023278,733.096872L685.033380,734.103907L688.756838,759.672785L692.455529,785.241646L692.264349,786.532076L692.061269,787.376915L690.545094,790.567343L690.159299,791.617154L690.096125,792.429911L690.759186,792.986008L704.233702,798.509548L704.891447,798.862456L705.420189,799.313393L710.391724,805.890313L723.835861,818.026432L737.278173,830.162567L738.211454,831.371013L741.121147,838.992424L741.454196,840.149183L741.593908,841.974331L741.563458,843.391316L740.999969,847.961989L741.276454,850.017071L741.761341,851.375244L742.163565,852.943737L742.175297,853.421415L742.132109,853.833144L741.952441,854.560355L738.269596,863.365317L737.147018,869.632175L736.896068,874.904468L737.193853,877.954130L737.682084,879.912972L737.893368,880.363916L738.070487,880.695440L738.253916,880.895067L738.444160,880.984187L748.751894,881.032302L748.395874,875.749319L750.050347,865.502393L756.965616,841.614292L760.444460,837.883790L761.758593,835.577404L761.833160,834.814550L761.583307,833.131993L761.575901,832.353098L761.735686,831.984148L762.301246,831.306848L762.485258,830.905815L762.924097,827.988079L762.780947,824.877848L759.431115,809.697442L759.085851,806.843877L759.490617,804.400257L764.486422,796.103359L766.690318,790.995109L767.609155,789.547832L768.627198,788.522974L775.774768,782.858629L776.789880,782.420168L777.544657,782.755252L785.081913,790.013028L786.896759,791.301676L787.720481,792.091262L788.131464,793.135726L787.944232,795.210395L788.059600,796.217430L788.699733,796.484784L789.173259,795.932252L789.923155,793.813024L790.648392,793.076908L791.666444,792.962837L792.412466,793.207020L793.073952,793.112555L793.819105,791.966497L794.148424,790.738449L794.131475,789.902522L794.359218,789.080853L795.429080,787.906277L798.626899,785.099057L799.601718,783.452155L799.998696,781.090527L799.637438,780.054975L797.797728,778.572051L797.189690,777.671958L797.212048,776.914455L800.835547,763.717854L801.004862,761.570109L800.193427,760.156696L799.096425,758.830620L798.453084,756.959140L798.584705,755.467304L805.653438,736.560004L805.837644,735.201843L805.648219,733.911412L804.298207,731.102406L803.816719,729.683644L803.843049,726.863943L803.305806,724.250996L803.300394,722.857186L803.675335,721.217409L804.280157,719.527726L805.057014,717.941420L805.941746,716.608209L808.229025,714.900702L809.536238,714.329343L813.538196,712.580059L815.293099,710.284369L815.396948,709.610633L815.392084,708.353528L815.390840,708.035019L815.545806,707.396931L816.071189,706.798055L818.289856,705.336512L819.423774,703.810803L819.896883,702.171022L820.375966,698.388830L821.354643,695.373057L821.786054,694.592377L822.362126,694.029147L823.657058,693.255597L824.270140,692.678108L824.796498,691.744145L824.943513,690.881476L825.043329,688.960076L825.624412,687.031546L836.296859,665.771325L836.817487,665.083324L837.328385,664.844485L838.494379,664.744671L839.011153,664.495138L839.586394,663.760795L839.781120,663.054971L839.843400,662.317063L840.195700,660.556067L840.170579,660.188895L840.381960,659.971444L841.196069,659.544257L841.278706,659.500894L842.809661,658.926965L860.952765,655.975332L861.464730,655.953943L862.207391,656.092969L862.615524,656.321115L862.975876,656.613427L863.537806,656.948516L865.206312,657.458278L866.135660,657.034070L866.607254,655.679455L867.525330,648.015178L867.453185,646.332600L867.154098,645.304159L865.643405,642.553925L865.532572,641.024630L866.190558,639.846466L867.054675,638.841194L867.562100,637.827011L867.522086,637.235254L867.307101,636.645281L866.786223,635.545541L866.651167,634.226566L871.660712,611.516931L880.092408,597.072216L880.573564,595.118679L880.635912,591.215167L880.801023,589.828438L883.041386,582.920590L884.023996,579.887815L883.720266,576.447712L882.535349,573.002255L882.137421,571.308936L882.042883,569.555011L882.252964,568.086277L886.919623,549.301001L885.061492,536.620527L883.793538,528.073547L882.510739,519.410664L881.514617,512.721564L880.945456,508.906415L879.216301,497.347115L878.237578,490.801701L878.258241,489.288338L878.691500,488.086916L882.917322,483.293697L883.929612,481.391736L886.532654,471.352492L887.613910,469.220574L889.522549,467.751759L888.556810,464.741043L888.579431,461.824800L891.240677,448.607198L891.911092,447.084899L894.728674,443.665962L896.209756,440.717618L898.669929,431.623023L900.981838,423.045365L902.683934,416.752944L903.574102,414.948998L905.955064,412.061259L906.486085,410.307226L906.252885,408.838402L905.021542,406.043358L904.639654,404.592361L904.654896,403.119972L904.805996,401.882882L904.777450,400.663616L904.334793,399.468412L904.261180,399.269662L903.346732,398.004051L902.346461,396.891740L901.502696,395.672477L901.013625,394.075313L901.010545,393.126998L901.615287,390.374745L901.729893,389.041401L901.506756,386.791829L901.545767,385.569004L902.028664,384.267748L902.897720,383.355086L904.803349,381.775754L905.402816,380.823878L906.676335,376.681258L906.699756,372.552905L906.796311,372.246309L907.203865,371.693723L907.301478,371.408518L907.206634,371.005666L906.821052,370.385344L906.726966,370.121530L906.699587,367.351477L906.506205,366.474472L905.941017,365.622424L905.278934,364.945063L905.036206,364.199967L906.380227,361.882683L906.592562,360.549355L906.308222,359.230289L905.021870,357.397857L904.854038,356.784670L904.949809,356.234069L904.955114,356.203569L905.326716,355.686639L906.542210,355.508387L907.523183,355.975407L908.465845,356.667024L909.565856,357.151869L911.128536,357.444203L911.763020,357.697321L914.168004,359.273069L914.770401,359.383586L918.004293,358.798919L918.906900,358.945085L920.721769,358.816744L923.481530,356.863101L925.207441,356.699109L930.929129,358.453109L934.087350,353.982552L934.513748,352.606450L934.720270,351.066358L935.903859,348.471021L936.209941,347.059274L936.340551,344.182308L936.219522,342.927426L935.384352,339.768833L935.492508,338.980969L936.116087,338.546040L943.933036,335.818821L946.342760,335.444497L948.723040,334.036329L951.065458,328.845725L953.099481,327.601551L954.343008,327.975873L956.245439,329.886695L957.642833,330.350142L959.058663,329.986515L960.186185,328.988323L961.926921,326.318165L965.827563,323.309321L965.882988,323.266563L967.262754,322.699736L968.642027,322.706866L969.243940,323.394901L969.367236,324.542816L969.353752,325.922455L969.774703,327.412608L970.674861,327.401913L971.618075,326.450069L972.175150,325.131034L972.155184,324.407348L971.974599,323.933209L971.876661,323.494720L972.117033,322.877984L972.467648,322.813815L974.545844,322.068740L975.557036,322.742516L976.524815,323.765656L977.625479,324.485777L979.035320,324.250490L979.988217,323.138225L980.070317,321.772850L979.917381,320.311223L980.148597,318.949416L981.129253,317.897760L984.024481,316.304236L985.185754,315.266843L986.684002,312.307959L989.730417,301.741609L991.248400,299.067956L999.362874,291.197945L999.465442,290.574801L998.755129,289.033785L998.571447,288.360117L998.516369,287.271023L998.062112,286.209999L995.403474,283.363767L994.349260,282.676069L995.274146,284.031816L995.458582,285.606507L994.934696,286.653495L993.735836,286.445782L993.296913,285.572824L992.941095,282.836064L992.247481,281.775046L991.321297,282.524495L989.804545,282.398183L988.770282,281.716100L989.281215,280.789816L987.169458,277.396256L985.913925,276.065782L985.018685,277.020130L985.788461,277.514146L985.730635,278.061493L985.127762,278.381481L984.209316,278.204646L983.376762,277.901499L981.673870,277.674140L980.870238,277.452394L980.218433,277.059427L979.695461,276.610321L979.132842,276.239810L978.332785,276.082623L976.264938,276.503659L975.483735,276.512080L975.904686,275.902981L976.570590,275.841230L977.374863,275.897368L978.267820,275.611063L978.928757,274.836359L979.039744,274.011131L978.949242,273.253269L979.006619,272.697504L979.599682,272.200684L980.416964,271.695444L980.892996,271.114419L980.481567,270.384629L978.461693,271.760003L977.277709,272.158897L977.073807,274.705649L974.696264,275.154805L971.424990,274.331403L968.380810,271.411271L966.516566,267.516776L966.795447,265.118977L968.325523,264.219139L969.014776,263.020448L968.204668,262.046124L965.530384,260.922787L963.813216,259.724185L961.059056,256.900486L959.211885,253.800298L956.581803,251.173524L949.701748,249.063860L948.659523,247.952369L947.953517,247.371569L947.273945,247.612747L946.371756,248.165685L946.675964,245.499860L945.656656,244.527631L945.454485,243.403875L945.027622,242.611063L943.802580,242.703686L942.677008,242.473531L941.296593,241.691686L940.948227,240.418942L939.009778,241.399092L935.460341,241.990767L935.009549,241.870076L934.359363,242.299511L933.646124,242.557734L932.950139,242.147946L932.366979,241.390119L931.991269,240.587385L929.905731,238.587130L928.377100,235.971832L926.939666,233.340370L926.075886,232.088571L925.378373,228.518431L924.406041,225.635951L922.917746,221.208672L922.009498,217.770314L920.429226,215.540371L920.427517,215.063242L920.690268,214.159505L920.665077,213.699217L920.272195,213.205250L919.700871,212.837581L919.172499,212.363261L918.907849,211.538114L918.035238,204.420570L914.856858,189.767605L913.412190,185.830097L912.353746,184.042372L912.083873,183.388465L911.959518,182.810333L911.980621,181.508136L911.328430,177.354601L911.455949,176.304997L912.370144,174.761466L912.645540,174.009348L912.694565,172.774529L912.447135,168.278693L911.967776,165.943795L907.576177,155.015962L907.008623,152.670560L906.945359,150.812815L907.187294,150.164570L907.863302,149.173964L908.040734,148.416279L907.995596,147.950443L908.763844,145.335179L908.263883,142.031929L907.820587,139.777667L907.207000,137.346298L905.572067,133.307709L905.496259,132.286268L904.913998,129.496957L905.091339,124.597452L904.754281,122.548987L904.909536,121.659450L906.745599,121.945673L907.288280,121.286237L907.544210,120.194662L907.648932,119.097476L907.254517,114.613339L904.141359,106.380316L903.038056,102.103882L901.987789,93.012288L900.988561,88.693794L899.167357,84.636266L897.308646,82.433529L896.967894,81.816202L896.918909,80.676952L897.311809,80.312167L897.908263,80.110133L898.469899,79.459133L898.669230,78.676249L898.643491,77.868111L898.283024,76.117145L898.454223,75.527878L898.612366,74.705709L898.440917,74.248325L897.699037,74.195011L897.375967,73.807778L897.141649,72.140992L897.432512,70.305843L898.349492,69.149754L899.994342,69.531376L900.693257,70.378800L900.622289,71.192551L900.278304,71.992272L900.179225,72.825665L900.473258,73.734821L900.899905,74.408269L901.373658,74.534541L901.819012,73.807778L903.568087,75.177123L904.492269,74.840399L905.192695,75.800063L906.276174,78.474215L907.851772,80.300943L908.010291,80.873374L907.512388,81.184844L906.685005,80.822865L905.249467,79.672391L904.856039,79.071900L904.545090,78.381615L904.085491,77.814796L903.294112,77.573477L902.894885,77.910202L903.112977,78.679055L903.608667,79.543314L904.050536,80.140999L905.856548,83.219219L906.990807,84.198525L908.142121,83.224831L909.318715,83.743947L910.040429,83.174322L910.386963,81.984564L910.437762,80.637667L909.920681,79.481581L903.067406,70.676240L897.674539,65.440166L889.209914,52.493022L885.541040,44.209468L885.071302,43.547229L884.369467,42.817644L883.957484,42.059997L883.870699,41.212553L883.630854,40.407201L882.750339,39.781439L883.176222,37.867669L881.288206,28.394151L880.773692,20.059801L880.148525,19.144978L878.660060,17.988820L879.690266,17.584726L880.633467,17.441609L880.878158,17.306911L881.019840,16.984196L881.140039,15.948700L867.198088,15.948757L853.322129,15.952321L839.446168,15.955885L825.563841,15.955885L811.687678,15.955885L797.805548,15.959448L783.929384,15.959448L770.053220,15.959448L756.177056,15.959448L742.294919,15.963012L728.418944,15.966576L714.542777,15.966576L714.168399,15.966576L700.660446,15.966576L686.784279,15.966576L672.905031,15.966576L660.306996,15.969813L659.035212,15.970140L659.031939,15.970140L652.926246,15.970140L646.823445,15.970140L640.714479,15.970140L634.611677,15.970140L628.499629,15.970140L622.390663,15.970140L621.143170,15.970140L616.284779,15.970140L610.181978,15.970140L604.073012,15.970140L597.970210,15.970140L591.861244,15.970140L585.758443,15.970140L579.649477,15.970140L573.546675,15.970140L567.437709,15.970140L561.334908,15.970140L559.721182,15.971257L556.187770,15.973704L557.792246,9.850877L558.955172,5.431555L558.943977,3.706581L558.338294,2.174056L556.957405,0.791215L555.830978,0.192458L554.675357,0.000000L553.540161,0.220970L552.456504,0.862496L551.005519,2.680146L548.605416,8.599680L548.421714,9.052551L545.797674,15.531780L545.033413,16.041418L542.749482,16.041418L536.951809,16.041418L531.144719,16.037854L525.334546,16.034290L519.524546,16.034290L513.723793,16.034290L507.916875,16.034290L502.109957,16.034290L496.309204,16.034290L490.508282,16.030726L484.701365,16.030726L478.885201,16.030726L473.087531,16.030726L467.280613,16.030726L461.479695,16.027163L455.678778,16.023599L449.871861,16.023599L444.064945,16.023599L438.258029,16.023599L432.447868,16.020035L426.650199,16.020035L420.849447,16.020035L415.042532,16.020035L409.235616,16.020035L403.434705,16.016471L397.627630,16.012907L391.820715,16.012907L386.013801,16.012907L380.203804,16.012907L374.406136,16.012907L368.599222,16.012907L362.789068,16.009343L356.991401,16.009343L351.184487,16.009343L345.377418,16.005779L339.570350,16.002215L333.769602,16.002215L327.962689,16.002215L322.155776,16.002215L316.348863,16.002215L310.541950,16.002215L304.741051,15.998651L298.934138,15.998651L293.127226,15.998651L287.326478,15.998651L281.519565,15.998651L275.718669,15.995087L269.911609,15.991524L264.104698,15.991524L258.297787,15.991524L252.497040,15.991524L246.696147,15.987960L240.889236,15.987960L235.088490,15.987960L229.275271,15.984396L223.468217,15.980832L217.667472,15.980832L211.866727,15.980832L206.059817,15.980832L200.255848,15.977268L194.455103,15.977268L188.642030,15.977268L182.835121,15.977268L177.028211,15.977268L171.227328,15.973704L171.560238,24.562639L171.885526,33.158568L172.215213,41.750821L172.543234,50.339417L172.869965,58.931505L173.189197,67.523541L173.507067,76.111982L173.830120,84.703976L174.152149,93.295980L174.467079,101.888013L174.787365,110.480096L175.106931,119.072249L175.344078,125.626009L175.581041,132.183395L175.824046,138.744415L176.060509,145.301952L176.345132,153.000141L176.361264,153.436630L176.309543,153.543549L176.257752,153.646256L176.206030,153.753176L176.154176,153.856531L176.018876,153.877915L175.889564,153.893953L175.760251,153.909991L175.630939,153.926029L169.599647,153.926029L160.864902,153.920683L153.553056,153.918901L146.098675,153.909991L138.093814,153.902863L131.332521,153.901081L126.216496,153.893953L116.572621,153.893953L116.877932,162.502832L117.182847,171.108315L117.487493,179.715741L117.791996,188.330453L118.369412,204.352006L118.944849,220.374046L119.517838,236.394758L120.088040,252.415887L120.648785,268.435616L121.212257,284.459257L121.777936,300.483209L122.326794,316.507437L122.877050,332.531907L123.422092,348.556582L123.961399,364.577862L124.494916,380.606408L125.015669,396.631488L125.535809,412.656633L126.054940,428.681806L126.553979,444.706973L126.675199,448.688891L126.676833,448.742672L126.029695,450.817562L124.395337,450.739130L117.294572,448.061737L109.932770,446.831776L103.012668,446.821081L99.086131,447.776529L91.271520,451.006512L86.751111,451.491366L77.418395,449.309524L74.565288,449.704160L73.088230,449.908461L71.547686,451.120596L67.842445,456.313163L63.183418,459.589486L62.087851,461.143867L61.713287,463.297182L62.212312,465.282937L63.272493,467.065480L64.606413,468.614509L65.958014,470.566392L66.617299,472.717917L66.801002,475.024522L66.260098,483.047708L65.841803,484.584249L63.296009,490.099387L62.845870,490.728618L60.825603,491.616314L59.471027,492.457665L58.310365,493.552133L53.046590,499.886932L52.380854,501.320070L52.108304,503.000976L52.087062,504.293294L51.774781,505.432315L50.610789,506.671156L48.447684,508.330667L47.989794,509.398385L48.037250,511.177320L48.630613,514.963344L48.999453,516.171876L49.968401,518.375037L50.090641,518.988214L49.822882,519.950759L49.218511,520.449856L37.186718,524.068306L34.646503,525.462209L32.260709,527.529890L31.188417,529.984366L32.632695,532.536876L34.531604,534.084066L35.023686,535.026995L36.067400,542.443859L36.277570,542.857391L36.586365,543.222797L36.814981,543.625635L36.765526,544.137203L36.468488,544.483001L35.661696,544.907228L35.406927,545.197770L34.899896,546.374197L34.851134,546.916066L35.046465,547.734217L35.633167,549.226138L36.382687,550.243923L37.402597,550.844612L40.827135,551.513035L41.919421,552.259885L42.496134,553.602076L42.963653,555.819452L42.933069,557.842539L42.063574,559.020740L40.674502,559.641034L39.066468,559.992177L37.714401,560.849536L35.531229,563.193459L34.385649,564.079336L24.920762,569.175351L23.210272,570.472970L21.795191,572.116382L21.220375,572.960695L16.468785,579.937723L15.058946,582.634547L14.998624,583.253052L16.445181,584.743165L17.433107,586.117420L17.663012,587.128058L17.569469,588.195734L17.605637,589.735752L18.742510,592.407611L22.690180,596.421631L23.639445,599.093483L23.769039,603.062932L24.068292,604.387269L24.893479,606.034223L27.096802,608.927083L27.857823,610.504520L27.417773,613.384899L25.352475,616.525507L19.921124,623.115069L18.938790,623.897545L12.510137,626.790387L11.456201,627.455224L9.430474,629.679662L7.739982,632.383565L3.000923,642.967440L1.592308,648.114992L0.669095,650.262774L0.534558,650.697677L0.807579,651.481929L2.500806,653.782994L4.982899,658.795069L6.262374,660.163942L8.413003,661.329622L10.919219,661.860773L13.489878,661.889291L15.845872,661.525684L18.677218,660.581020L20.960119,659.140852L22.860104,657.055459L24.529957,654.167990L32.229930,659.818159L38.476365,662.413312L39.295741,663.293810L36.451025,671.225415L35.104532,673.499733L35.247475,674.344581L37.323281,677.870128L42.091869,693.259162L42.265280,694.082619L42.326427,694.923899L42.287451,695.765179L40.884679,703.347387L41.269069,703.172714L41.627556,702.955265L42.279332,702.392036L46.186580,701.001787L48.541901,700.524111L49.360542,701.083776L49.853092,700.085648L50.166646,700.424299L50.257526,701.497286L50.101014,702.712863L49.102498,706.209873L46.148916,727.459253L46.495589,730.763757L47.773460,734.004095L49.683475,736.925389L51.894987,739.258502L54.002236,740.415256L58.915482,742.276043L60.506320,743.915816L60.687453,744.537861L60.746547,746.616095L61.353344,746.911967L67.106492,746.225758L68.528554,746.266752L69.415167,747.104462L70.330405,751.998828L71.963253,757.117770L72.033162,758.021359L72.188088,760.024802L71.942220,761.249284L70.967671,763.675077L70.615447,764.913818L70.440921,766.279107L70.435939,767.671131L70.281011,768.421505L69.345108,769.606775L68.976036,770.296548L66.783213,780.005069L66.949593,781.890807L75.835005,796.032064L82.222332,801.020897L93.461766,813.076805L103.877628,831.424484L114.288885,849.771103L115.601919,852.854618L117.578391,864.769834L117.321724,867.413107L116.534293,869.452154L114.353822,873.341317L113.634196,875.335805L113.684244,876.089754L114.301871,877.799062L114.442194,878.706297L114.395830,880.854072L114.575827,881.506426L115.047899,882.378013L115.499126,882.356625L115.859184,882.513475L116.200697,883.071362L116.239525,883.529435L114.808681,888.894423L114.746887,890.118925L115.401929,892.236403L115.505910,893.243453L114.979656,894.066917L114.187980,894.769179L111.894848,898.091555L110.589058,899.611935L109.894219,900.102092L108.918649,900.294591L106.953692,900.201906L106.038081,900.617204L105.362379,901.786923L105.060954,902.308693L103.861392,911.085196L104.044222,912.767776L104.862670,914.172303L106.497611,915.225699L108.157960,915.075977L110.371768,912.578843L111.439231,912.635879L111.907797,914.127743L111.850761,916.528629L111.164372,920.451682L110.164373,922.351716L107.709159,925.536859L106.939414,927.333516L106.933030,928.991146L107.462809,930.837710L108.407899,932.345619L109.659981,932.983718L110.553935,932.755571L111.966144,931.520368L112.805222,930.983867L113.918395,930.730766L114.949521,930.862663L115.910271,931.320740L116.831053,932.040829L117.627093,932.395526L119.571742,932.349184L121.532422,932.948070L122.512584,932.612979L124.405230,931.620183L126.500249,931.559581L130.355776,932.548812L133.725948,932.158467L136.159254,933.292073L137.329469,933.488136L139.043967,933.163740L145.400334,934.352600Z "/></g></svg>