<?xml version="1.0" encoding="utf-8"?><!DOCTYPE svg  PUBLIC '-//W3C//DTD SVG 1.1//EN'  'http://www.w3.org/Graphics/SVG/1.1/DTD/svg11.dtd'><svg enable_background="new 0 0 1000 577" height="577px" pretty_print="False" style="stroke-linejoin: round; stroke:#000; fill: none;" version="1.1" viewBox="0 0 1000 577" width="1000px" xmlns="http://www.w3.org/2000/svg" xmlns:xlink="http://www.w3.org/1999/xlink"><defs><style type="text/css"><![CDATA[path { fill-rule: evenodd; }]]></style></defs><metadata><views><view h="577.353547351" padding="0" w="1000"><proj flip="auto" id="robinson" lon0="103.825263649"/><bbox h="3.09" w="5.36" x="1535.0" y="-24.29"/></view></views></metadata><g class="" fill="black" id="country"><path d="M515.451380,575.353547L550.808241,569.257086L565.061022,562.271557L572.750648,551.602750L588.423365,534.837481L683.740221,460.028824L737.221127,436.659057L805.069430,428.149413L866.666811,407.446847L922.393354,356.388983L968.254914,292.503150L999.132477,232.427600L988.047070,213.249151L949.641013,197.245936L880.693653,179.591601L802.095231,148.347234L592.576873,30.990347L521.455002,4.826366L448.006792,0.000000L407.182812,13.590029L331.161978,55.122175L269.390032,64.012848L209.110684,55.122175L182.720534,60.075550L146.576197,85.223456L116.215668,120.913158L103.086181,154.189677L92.173302,213.249151L11.974457,345.212138L0.867523,394.491866L21.516244,437.675134L70.414039,451.138153L190.168800,447.581883L249.289808,454.821431L318.453022,472.983805L376.127329,502.704052L400.344746,545.506289L414.765269,564.176700L448.118505,573.829430L515.451380,575.353547Z "/></g></svg>