<?xml version="1.0" encoding="utf-8"?><!DOCTYPE svg  PUBLIC '-//W3C//DTD SVG 1.1//EN'  'http://www.w3.org/Graphics/SVG/1.1/DTD/svg11.dtd'><svg enable_background="new 0 0 1000 4198" height="4198px" pretty_print="False" style="stroke-linejoin: round; stroke:#000; fill: none;" version="1.1" viewBox="0 0 1000 4198" width="1000px" xmlns="http://www.w3.org/2000/svg" xmlns:xlink="http://www.w3.org/1999/xlink"><defs><style type="text/css"><![CDATA[path { fill-rule: evenodd; }]]></style></defs><metadata><views><view h="4198.34700854" padding="0" w="1000"><proj flip="auto" id="robinson" lon0="-12.2662289173"/><bbox h="546.33" w="130.16" x="-212.91" y="132.1"/></view></views></metadata><g class="" fill="#000" id="country"><path d="M596.882256,4196.347009L599.937564,4194.887316L599.375866,4193.075309L598.668829,4192.060423L596.491074,4190.102815L595.812613,4188.859664L594.544500,4185.450455L593.786934,4184.455420L592.431065,4184.123716L587.639854,4184.455420L586.236252,4184.807841L585.453581,4185.637011L584.571730,4187.937546L584.608787,4188.807862L592.623643,4194.421406L596.882256,4196.347009Z M332.039996,3774.889689L333.995240,3773.426475L337.352518,3769.901816L338.001322,3769.506616L338.528215,3768.993922L338.985230,3768.267598L339.410501,3767.210144L337.027249,3765.832227L335.384282,3764.272696L333.520084,3763.097687L328.512037,3762.649042L328.029920,3763.097687L326.950841,3764.529059L325.155202,3767.754895L324.177115,3769.015284L327.618333,3771.813698L330.678673,3774.911050L332.039996,3774.889689Z M998.006174,1033.516959L996.546308,1034.187843L993.181665,1034.145912L991.805737,1034.397494L990.101618,1035.456231L988.081482,1037.101992L986.407127,1039.072712L985.702791,1040.991020L985.280704,1042.699676L984.527003,1044.125303L984.271964,1045.519483L985.337055,1047.186210L987.193203,1048.150605L989.131888,1047.909506L990.990529,1046.745942L992.579136,1044.953425L993.030904,1045.393693L993.472202,1045.655757L993.859581,1046.054094L994.130433,1046.787873L995.814023,1045.456588L997.267785,1044.607501L998.518283,1043.496350L999.537602,1041.431287L999.880877,1039.544427L999.688884,1037.689015L999.029484,1035.760225L998.006174,1033.516959Z M4.705044,0.000000L3.138919,1.477918L1.362669,5.953598L0.119123,7.903192L0.749707,9.339183L0.906610,10.974325L1.439935,12.368389L3.190788,13.112589L4.603665,12.640913L7.800593,12.473206L9.027731,11.865268L10.265550,10.879990L12.889773,9.559298L14.068785,8.710282L12.277096,6.393829L8.051866,2.830056L7.029389,0.880462L6.092826,1.477918L5.478968,1.477918L5.059275,0.964315L4.705044,0.000000Z "/></g></svg>