<?xml version="1.0" encoding="utf-8"?><!DOCTYPE svg  PUBLIC '-//W3C//DTD SVG 1.1//EN'  'http://www.w3.org/Graphics/SVG/1.1/DTD/svg11.dtd'><svg enable_background="new 0 0 1000 572" height="572px" pretty_print="False" style="stroke-linejoin: round; stroke:#000; fill: none;" version="1.1" viewBox="0 0 1000 572" width="1000px" xmlns="http://www.w3.org/2000/svg" xmlns:xlink="http://www.w3.org/1999/xlink"><defs><style type="text/css"><![CDATA[path { fill-rule: evenodd; }]]></style></defs><metadata><views><view h="572.904894475" padding="0" w="1000"><proj flip="auto" id="robinson" lon0="14.6118121825"/><bbox h="23.57" w="41.21" x="176.04" y="-783.83"/></view></views></metadata><g class="" fill="#000" id="country"><path d="M191.447920,570.904894L194.712525,568.699517L197.270287,564.880787L201.672810,560.898471L216.309914,555.363706L220.085469,550.482142L212.809212,543.434956L212.518502,539.185891L213.453594,536.387094L215.585515,535.100021L220.644979,536.015936L229.241045,537.571999L233.991579,539.676180L238.490328,543.414528L238.491733,543.434956L246.895020,548.521254L255.486387,551.033632L263.153171,551.397297L263.337747,551.406052L264.098576,551.442141L272.292262,550.114480L287.107218,543.925217L295.180508,541.841585L302.311238,543.353245L315.408388,548.194434L330.460816,550.645547L345.127193,549.481279L357.027552,543.414528L362.618472,538.593454L374.610636,530.605304L378.378684,523.944454L379.670568,518.345615L380.346333,509.422375L380.473714,507.739384L382.135074,502.691203L384.843687,498.869082L392.364351,491.019861L395.438342,486.767871L398.872133,478.753887L401.185534,476.382248L402.806640,475.765177L406.502938,474.358121L410.137883,476.116456L411.268046,482.188551L411.423590,489.445834L412.103631,494.781044L415.408091,499.768422L419.817304,503.529183L431.358944,511.131903L433.670025,511.949355L435.777969,512.972785L435.900895,513.032466L437.911632,515.198640L438.728392,518.263877L438.104676,525.252152L438.350991,527.295385L445.051875,532.015040L475.626614,543.353245L475.659753,543.353245L475.697331,543.414528L475.731949,543.434956L481.570192,554.485457L495.105518,556.936358L508.516584,552.667653L514.007190,543.434956L514.552274,535.018301L520.368999,534.814001L527.960833,538.940745L533.824155,543.434956L538.581512,543.993560L541.478929,544.333765L545.164543,545.784093L548.530725,548.296566L564.200494,548.664237L567.569507,551.027397L592.307729,568.372789L606.859160,570.128936L619.892757,565.841717L637.338120,560.101981L647.760121,560.285787L651.271037,559.366752L653.886622,557.120172L659.097009,550.155331L662.003971,547.826760L645.156242,538.389164L640.044859,531.647285L636.820412,523.106697L634.127199,512.807671L633.961952,512.455900L631.880890,508.025506L629.277172,503.774444L628.702586,500.524677L632.576439,498.746444L634.637928,497.090812L635.595447,493.963411L637.228875,491.019861L646.437482,488.423721L650.272294,486.583886L654.640475,485.234647L661.265408,485.275533L659.246943,481.779670L653.448999,474.255891L652.785410,473.641512L647.221787,468.489910L646.171816,467.733350L645.021750,468.285435L641.216626,469.185121L639.840102,470.248374L639.529650,471.843226L638.265468,472.640640L633.993198,471.291165L631.011401,469.491830L629.177527,467.549321L625.601314,462.232744L622.325572,459.594775L619.900687,458.592734L619.147810,456.936271L619.409944,456.186146L620.755622,452.334813L623.263726,449.594267L635.700246,443.356122L644.229535,440.848213L674.928141,431.819451L675.137598,431.662513L678.559167,429.098696L677.777262,425.334503L676.206651,421.201883L677.447036,417.498725L680.842596,416.046062L684.475677,416.414345L688.193249,417.457805L691.906619,418.010220L695.007000,417.028147L700.635745,412.772367L703.608382,411.421933L712.093266,412.658684L724.244228,414.429690L736.616838,414.040939L742.748002,412.485913L749.066141,409.498550L751.967914,405.528885L751.333956,399.881014L746.950860,391.920187L745.205717,386.865006L746.095853,382.116565L747.982100,377.429286L749.252469,372.475660L749.239315,365.884065L747.747487,353.725499L746.742249,345.533219L746.770541,345.471791L748.596421,337.465405L751.953720,332.612113L753.020801,328.475366L751.222174,326.324838L748.070911,322.556655L743.982189,320.078476L734.784160,316.862898L730.732559,314.855671L728.021485,312.540443L721.259465,306.764920L716.114609,297.833643L715.379512,287.856763L719.102187,276.629112L724.253480,266.834714L725.334344,265.444409L729.175568,260.502734L735.803621,257.469815L741.154237,257.809790L764.186334,259.273182L770.024996,255.871353L775.756869,246.464567L778.898847,244.268570L779.979452,243.513262L784.672812,241.525188L789.664200,240.397915L804.033766,240.024336L804.534224,240.011324L805.431590,239.987995L816.243010,234.662243L825.402114,230.149486L835.891712,228.509656L839.543192,227.607333L841.034628,227.238773L847.433923,224.348489L853.429569,220.535668L856.669311,217.245521L857.395978,216.507480L859.271023,211.064605L858.893695,205.908520L857.715651,200.219157L857.315734,193.125039L867.243578,194.889254L869.084666,195.216409L872.762648,194.632059L875.618956,192.427909L877.817021,189.413801L880.290633,186.963506L884.160005,186.307352L887.362264,187.609404L895.512556,193.893929L900.246308,196.200571L905.704775,197.266739L908.399458,197.164223L919.577384,194.755081L926.870083,194.857598L928.255695,193.647885L928.068682,192.676956L927.404620,189.229261L925.769246,187.342843L920.081621,184.246598L917.974415,182.226823L916.850652,178.915147L916.928751,172.527380L916.439282,169.318004L911.769091,158.387110L910.112865,152.962364L910.082546,150.520680L910.040857,147.168221L917.685809,139.135753L918.571680,138.204790L928.308929,134.820286L932.972234,132.225449L938.985920,130.451087L941.993202,127.127819L943.125311,125.876626L945.616652,128.677805L945.770757,128.851067L947.504450,125.876626L951.399204,128.420289L955.487678,128.892093L959.514337,128.604908L963.156417,128.851067L966.115416,130.410061L971.883202,135.312583L974.686366,136.974070L977.474419,137.240727L984.327942,136.481780L987.727265,136.974070L990.981860,138.512468L999.125729,143.845457L993.111611,126.738194L981.730772,118.840303L968.689244,103.084362L956.859903,97.278073L950.741235,93.277154L949.185240,90.399221L947.757203,87.757780L950.366060,83.838709L956.216733,81.345641L957.983676,79.770840L960.326155,77.682920L957.969007,70.182825L952.975011,67.443312L947.028640,67.135500L945.317979,66.524698L945.044794,66.427154L942.488374,65.514343L941.844665,58.834613L937.490770,59.491310L934.285507,56.484850L931.182790,51.908370L927.240098,47.916686L921.936695,36.495291L921.093041,35.017542L921.397109,33.544972L922.012608,30.563704L924.506719,26.392095L925.571194,24.611416L927.408691,20.136825L928.821194,15.292664L929.254335,11.741577L927.677647,9.740216L922.992255,9.514421L920.094884,8.241750L918.544821,6.724861L913.309572,1.601161L909.925883,0.000000L880.685104,2.182393L866.743887,3.222838L865.084943,2.881458L853.377327,0.472138L840.842828,7.111397L834.464014,10.489446L833.344103,10.731038L820.571078,13.486338L818.771423,14.410029L815.905544,17.211868L816.271036,18.084228L817.754958,18.966847L818.242525,21.778888L817.024534,34.114468L817.035351,35.316384L817.087108,41.082401L817.904913,48.039824L822.330279,57.757214L829.402335,61.471647L833.478558,67.617740L834.897917,76.759971L834.901034,76.780053L834.854606,76.733912L828.397592,70.316208L824.743622,68.223103L811.658758,66.253100L789.338312,56.895290L780.372322,55.397176L771.576876,56.053886L759.711479,60.277073L750.588224,63.523788L742.199620,63.934213L717.582448,60.825219L712.242331,58.147131L711.722906,64.139426L712.153371,69.238878L710.516374,72.717093L708.932354,73.788354L707.391076,74.830665L703.356837,75.836141L698.462529,74.666505L691.691601,74.748584L685.000660,76.287578L680.378412,79.478381L677.689957,85.131397L677.578512,85.881164L677.018889,89.645467L676.016532,91.906433L675.281428,93.564402L669.666457,97.565315L660.233552,99.011775L652.728450,95.144261L651.166153,94.030593L645.173366,89.758317L635.562777,86.731853L618.000449,87.525184L577.419880,89.358211L567.053017,88.406712L545.583586,86.436085L539.213750,85.851386L531.593755,85.151916L513.643036,90.199458L502.878999,104.725679L496.194899,97.175486L491.565328,96.436862L487.261476,98.865906L480.604169,102.622739L479.447572,102.757266L474.077611,103.381852L469.566351,102.909972L465.659286,104.376900L460.817855,111.024075L457.690094,117.712001L455.692737,124.146492L453.805063,130.225444L450.936769,136.823699L448.735219,141.886631L447.055472,143.230122L440.210518,145.999109L432.127931,147.168221L429.168557,145.435060L424.016525,147.496391L422.244019,149.383354L420.859925,152.080439L417.419797,155.946513L415.504161,160.848174L413.113857,160.483152L411.206616,160.191895L409.780991,160.520035L403.807345,166.262362L400.646735,168.108060L397.477408,168.928362L390.596973,169.461556L387.578544,170.548445L383.288846,176.382633L381.174713,184.062051L379.863438,187.488914L378.679463,190.582545L373.293866,192.684207L368.800979,188.880686L364.719151,182.083285L359.998082,176.926051L349.154005,179.181724L343.764126,178.464014L339.243238,176.716645L333.630987,174.547300L331.719625,172.701689L330.538311,170.466415L328.889231,168.600242L325.448716,167.943999L314.852570,169.974240L276.585545,169.036610L247.059687,168.313136L246.433814,168.168634L242.973877,167.369784L224.120755,154.069890L219.302082,152.049674L214.004631,150.716520L208.396488,150.593459L202.868565,151.458020L197.774039,152.254773L192.498212,151.701004L162.528871,139.845733L152.817753,138.471444L132.336652,141.394357L127.992196,141.435380L106.647536,137.035606L101.799310,136.686901L102.044556,139.804710L101.642370,142.604529L100.624229,145.065864L98.988698,147.168221L99.217861,157.320636L98.491565,158.793782L96.148722,163.545040L90.372672,166.303378L82.482469,166.067537L71.758394,167.287753L64.376877,173.624498L58.142094,181.847471L50.834035,188.839677L36.524576,195.657233L29.198265,200.465189L25.353256,202.125891L21.159676,202.515435L17.936326,206.093036L14.210433,214.518962L10.134653,221.215082L8.888448,223.262052L0.874271,227.730729L3.610896,231.707304L5.704007,236.421629L8.308344,246.362093L8.344046,246.403083L8.379748,246.444072L12.933599,251.444726L14.419300,256.936997L17.353024,260.379779L25.986036,259.211704L20.868605,252.203002L25.915270,253.678554L35.520988,254.252375L40.121069,256.445162L49.133173,258.002631L55.380646,261.629811L65.533099,269.846890L73.725299,270.953383L83.071066,270.072288L87.409952,270.788222L90.646256,271.322212L92.062016,274.883374L93.587050,278.719017L85.423285,293.265290L56.771719,312.983287L51.429247,316.658081L44.689560,325.055253L47.421076,327.389954L48.384121,329.949870L47.674859,332.694028L45.385354,335.520021L43.796292,336.462001L39.161463,340.291263L43.604131,344.509422L45.160210,345.553695L45.479323,345.881308L45.768120,346.249871L45.992203,346.638908L46.154291,347.089371L55.418772,355.729654L64.959025,355.094968L74.982298,350.815844L84.152252,348.936271L85.770570,348.604547L91.694896,356.139127L89.844034,364.253474L88.093765,371.922966L85.612866,377.557368L77.273838,396.483935L77.119856,410.030554L80.042354,414.505636L82.571930,418.378495L91.784276,422.593084L102.877285,423.759220L108.332100,425.191296L121.571786,433.708130L124.773743,435.767460L147.527319,444.440161L175.571323,481.657006L179.235752,484.907554L184.198144,487.278940L187.091282,487.462924L187.277852,487.828813L187.664599,488.587261L185.566795,493.759002L179.889940,500.324067L173.900022,507.248888L158.855298,508.597747L145.802993,502.670765L130.089501,503.868748L135.416060,508.616090L140.519454,513.137861L144.195433,517.369739L144.360356,519.815432L119.639736,523.033329L92.459839,526.572857L85.638489,525.205332L87.212949,528.873460L89.264730,531.479653L91.793826,533.024020L94.959924,533.554890L95.123935,536.016142L93.203366,540.085876L94.236133,543.447661L93.670165,545.136538L107.120009,556.936358L117.020111,556.543309L148.788497,555.282009L164.497787,563.594216L169.028328,567.351753L174.161345,568.740358L191.447920,570.904894Z "/></g></svg>