<?xml version="1.0" encoding="utf-8"?><!DOCTYPE svg  PUBLIC '-//W3C//DTD SVG 1.1//EN'  'http://www.w3.org/Graphics/SVG/1.1/DTD/svg11.dtd'><svg enable_background="new 0 0 1000 415" height="415px" pretty_print="False" style="stroke-linejoin: round; stroke:#000; fill: none;" version="1.1" viewBox="0 0 1000 415" width="1000px" xmlns="http://www.w3.org/2000/svg" xmlns:xlink="http://www.w3.org/1999/xlink"><defs><style type="text/css"><![CDATA[path { fill-rule: evenodd; }]]></style></defs><metadata><views><view h="415.162162474" padding="0" w="1000"><proj flip="auto" id="robinson" lon0="19.6381865783"/><bbox h="30.03" w="72.52" x="219.09" y="-828.62"/></view></views></metadata><g class="" fill="#000" id="country"><path d="M244.851832,413.162162L303.925463,410.098499L348.215576,407.806278L350.741755,403.442285L356.447164,392.973359L350.256543,383.992438L349.554964,373.436151L355.722570,359.707150L376.527360,348.303806L438.922022,343.290982L474.234170,334.797082L478.522227,323.197245L489.323397,311.752585L500.031132,309.439542L515.565576,314.693515L534.661112,324.794508L551.072257,330.137207L559.986326,326.689215L590.129858,309.681859L625.104307,293.095286L645.563836,248.095314L647.482389,240.929424L674.280155,235.789279L714.288063,236.702816L735.391976,242.558485L751.121459,245.662589L774.069642,244.605860L806.223474,234.941790L818.568378,235.216948L828.863001,242.063159L839.978733,247.963218L847.843638,255.184712L854.334426,265.368406L857.648856,269.210965L862.881538,274.419024L872.074335,281.587418L880.430432,283.503476L940.582116,271.038710L943.937442,268.341147L941.649830,231.551920L965.758463,205.109204L970.862010,191.764782L977.575456,162.840448L983.554241,149.317484L991.332967,138.127548L997.320080,127.291368L998.792743,117.995420L986.880316,116.061704L936.814862,99.880495L902.868940,87.217981L898.701792,78.993959L891.165463,67.083055L876.208437,57.106485L843.566454,48.459626L829.906981,41.712244L778.122952,37.938533L755.824131,37.784958L740.364090,40.571322L730.257785,40.297066L718.367483,57.918581L709.367991,63.032910L695.424874,63.570715L682.821718,60.431777L669.256702,51.158855L648.659093,46.265247L634.438801,48.624209L623.548178,46.605369L614.285210,46.122616L611.298464,47.976854L603.863282,47.713526L593.613188,52.146416L582.571054,58.412430L570.146843,63.186568L561.297674,73.449817L554.577317,93.565327L528.446597,84.549694L520.476746,88.458837L508.894590,91.083400L500.496501,88.370988L501.671326,81.442360L504.503146,73.625463L503.165766,62.703645L499.554840,50.654109L491.348805,46.737030L479.487589,45.288782L473.216718,42.908049L472.152144,38.925811L465.644825,33.814139L453.922078,20.862080L442.445054,4.789803L435.182131,0.000000L426.170036,7.650793L412.203167,16.355532L403.265398,19.370810L387.978939,44.400107L355.911945,45.244896L352.734930,33.550892L348.200680,22.320504L329.109284,19.513356L324.674072,19.864239L314.849752,23.285503L301.924609,24.524680L287.713910,23.855739L277.329689,29.865607L267.926275,39.660798L257.902646,46.440794L252.695086,52.508528L250.067885,58.730691L215.574131,76.457849L211.258775,83.835979L208.208985,93.905777L207.824898,107.503627L206.431812,119.698464L200.811675,126.137533L181.729171,131.665162L177.127144,134.643487L174.049193,140.853392L163.946640,150.427796L151.913485,159.541897L129.166693,169.965893L104.008622,173.133006L70.584519,169.745961L50.889858,165.666342L41.879269,170.141840L30.205255,183.724124L18.386047,207.122628L14.220409,224.717568L13.658793,227.028638L13.436299,235.514120L7.440503,246.201966L1.207257,260.204862L2.777194,272.492121L25.705865,315.079035L45.038731,340.988439L49.144732,350.848836L60.822574,358.429058L65.584482,357.051814L84.135958,358.792652L88.715529,361.271723L91.583112,361.822632L122.966432,385.138452L152.282746,402.670878L175.830546,411.641348L209.295293,412.379714L244.851832,413.162162Z "/></g></svg>