<?xml version="1.0" encoding="utf-8"?><!DOCTYPE svg  PUBLIC '-//W3C//DTD SVG 1.1//EN'  'http://www.w3.org/Graphics/SVG/1.1/DTD/svg11.dtd'><svg enable_background="new 0 0 1000 418" height="418px" pretty_print="False" style="stroke-linejoin: round; stroke:#000; fill: none;" version="1.1" viewBox="0 0 1000 418" width="1000px" xmlns="http://www.w3.org/2000/svg" xmlns:xlink="http://www.w3.org/1999/xlink"><defs><style type="text/css"><![CDATA[path { fill-rule: evenodd; }]]></style></defs><metadata><views><view h="418.259765699" padding="0" w="1000"><proj flip="auto" id="robinson" lon0="19.6460710377"/><bbox h="30.32" w="72.67" x="218.96" y="-828.69"/></view></views></metadata><g class="" fill="#000" id="country"><path d="M189.167810,416.259766L199.475991,415.693279L240.315114,413.448787L262.586811,415.386789L269.184795,414.851364L282.158006,410.230445L318.493342,406.610573L326.575306,407.105248L333.324727,409.543714L338.760070,410.428317L343.936917,409.962737L348.087423,407.675580L353.460423,401.931567L356.382269,399.976182L360.348550,399.068329L364.628965,397.748242L364.896215,397.665818L357.601418,393.411770L351.946567,389.070498L350.374976,384.851502L350.362506,380.108856L351.260582,370.810066L350.417876,368.209038L349.091854,367.307123L348.771199,366.475037L350.866992,364.048626L352.416627,363.245648L355.844450,362.745242L357.425058,361.500054L361.399147,353.098160L364.314041,350.945384L381.011829,347.717591L389.475057,346.081374L391.997894,345.045754L396.041108,345.207346L399.567791,345.348294L410.138104,344.027594L432.541244,346.314098L434.466794,345.976648L444.573058,340.193554L468.748813,340.624079L477.743377,334.887725L477.903352,333.724191L477.876206,332.537395L477.660784,331.315704L477.259448,330.082387L477.188792,329.931132L477.137781,329.791512L477.164178,329.686797L477.209046,329.582083L478.974401,326.021827L479.775402,317.307729L481.401683,314.032817L484.332704,312.526269L500.390547,308.844318L502.297407,308.896668L504.133205,309.338729L506.312200,310.792889L510.601641,314.835541L512.472820,315.620819L520.570259,314.271307L524.821223,314.852992L528.329665,318.098838L528.648368,320.309317L527.831507,322.252242L527.582875,324.154473L529.482083,326.289424L531.200451,326.475580L537.433795,324.398798L541.950880,325.579710L549.281687,330.768855L553.118129,331.967271L557.195897,330.664139L564.628969,324.294088L568.525549,322.147533L575.136144,320.355854L575.697466,320.049407L582.423383,316.377017L585.688095,315.277623L587.062870,314.294574L588.164042,312.281966L588.720290,308.233579L589.256681,306.651486L591.257043,304.417978L592.762395,304.162057L594.649444,304.732062L597.816739,305.011249L600.690172,303.894505L605.640618,299.706807L607.574177,298.962342L611.295221,300.474540L613.503408,302.341550L615.744390,303.115117L619.634965,301.323706L624.357407,296.926722L628.215862,291.180651L631.254883,284.684690L636.291881,266.821398L637.984646,263.327030L640.342255,260.367673L645.248080,255.553093L645.614546,255.193380L647.688985,252.187771L647.751757,251.397143L647.739547,250.594896L647.635798,249.798469L647.440517,249.007863L646.672359,245.107252L646.526967,243.235485L646.547622,241.538140L651.502177,239.805953L662.489087,239.178189L699.406938,231.872054L702.294436,231.831369L705.190662,233.051920L710.919416,237.097301L713.560238,237.661112L719.215582,238.160989L729.470557,243.136666L735.879912,243.613323L740.307120,243.322678L745.645641,244.113234L750.829110,246.002459L754.750833,248.978796L759.362920,249.856602L772.553263,244.322500L778.342964,243.194795L781.699377,244.380629L784.084508,245.944329L786.194333,246.688403L788.691022,245.444407L790.492169,242.921590L791.238547,240.526725L792.496787,238.428366L795.785960,236.702054L798.713219,236.190561L804.780212,236.080125L813.752059,233.621516L816.423885,234.284113L822.748348,237.283300L826.092135,238.346990L827.752876,239.515321L829.149396,241.445136L831.261866,245.804815L832.637727,247.385979L835.598844,248.478858L842.169454,248.403286L845.275232,248.978796L847.112252,251.536665L850.483758,260.826978L852.211892,263.234004L863.662699,276.130624L868.354350,280.270915L873.408741,283.207596L879.180150,284.812628L884.559186,284.417183L893.350228,280.445368L900.932289,279.480060L906.075068,276.863304L908.577384,276.002696L917.844890,275.595655L921.018523,274.642021L924.226046,274.467576L935.006225,275.351431L938.232309,274.537354L941.109909,272.461488L944.065364,268.827373L942.357803,252.617968L943.905799,248.955543L944.122794,245.421155L940.983812,236.306809L940.823363,231.750000L943.068713,228.088459L953.788805,220.202175L954.702249,218.563413L956.142871,214.978015L957.301988,213.397470L959.345851,212.142355L963.946956,210.875639L965.963074,209.701912L968.445128,206.541074L970.123910,202.346196L970.702980,197.570601L969.914366,192.748848L970.111719,189.739774L971.299106,188.264329L972.842932,187.160670L974.168695,185.301915L975.096427,182.722976L975.321202,181.201214L974.033700,173.581306L973.467123,171.746153L973.388195,169.992352L974.240194,167.251405L974.530464,166.847397L975.691994,165.230612L979.599849,162.222766L981.033862,160.213744L981.220197,158.843464L980.856581,155.940428L980.945888,154.837309L982.675594,150.843022L985.409560,141.415681L988.288334,139.372511L995.021675,138.536689L997.543244,136.586483L997.014544,132.790733L997.219575,127.614054L997.888457,122.484265L998.801706,118.782285L992.349070,116.264151L978.393238,115.765179L971.678185,114.105841L961.787238,106.598835L957.858593,105.357437L948.078282,105.670684L939.495909,103.559200L938.063001,102.619501L937.491025,101.204182L937.813940,99.754100L937.607879,98.176455L935.449239,96.378462L933.953987,96.146468L929.748794,96.575658L927.958226,96.482860L925.814004,95.728880L919.669409,92.643474L906.869498,90.660097L901.483304,87.609787L899.465124,80.466052L896.291278,72.546510L890.388534,65.729537L883.402599,60.744944L873.389718,56.804007L866.301301,51.855121L862.878171,50.325360L859.369894,50.870042L856.583078,53.187908L854.363126,55.656561L852.632267,56.676512L849.687129,54.845252L842.843427,47.265991L839.561242,44.739846L837.752534,44.311111L835.064762,44.820959L833.709972,44.670321L831.794155,43.639047L828.186678,40.985651L826.275222,39.989219L822.877683,39.282461L810.323832,40.464259L807.744353,41.363252L804.638683,42.445579L801.963780,41.808303L795.527029,43.001754L792.599149,43.024928L774.861664,38.992809L764.432344,34.625086L761.922574,34.138522L758.928784,35.968955L754.175463,42.735253L751.404680,45.087473L747.654403,45.608917L744.767075,44.067776L741.972984,41.738782L738.559830,39.919701L735.788853,39.711149L728.728782,40.916132L726.139624,41.982105L722.926833,45.296050L725.320339,47.335520L729.638918,49.386669L732.186004,52.770683L730.972016,54.822072L727.754175,55.366806L724.020242,55.401576L721.290376,55.888366L717.976299,58.820798L712.978298,65.833871L709.457543,68.581419L705.436303,69.821925L702.115976,69.311807L699.043762,67.584401L695.867435,65.091944L692.320733,63.051703L689.495936,62.703943L686.488887,62.854639L682.454723,62.344594L679.461102,60.652212L661.982678,45.110648L659.171434,44.705084L652.566985,45.597329L648.685669,45.122235L647.065766,45.214936L645.346559,46.060840L642.846607,48.946301L640.988314,50.522372L636.930597,51.762406L632.959197,50.974343L617.275352,44.658734L614.567079,45.180173L615.029729,49.039010L605.901914,49.328725L598.399067,47.068993L596.296280,47.103757L594.606152,48.227816L594.099255,49.618442L593.959112,51.681282L593.393653,54.880022L592.469526,57.986254L591.699042,58.983073L578.118950,59.979913L575.561424,61.231788L572.109267,65.045574L570.514153,66.390324L566.568549,66.007762L566.090924,65.659981L565.203548,66.772889L562.494312,73.068256L561.774471,75.735046L560.815524,78.228045L558.853130,80.431263L558.690091,88.270866L557.460388,93.884574L554.231451,96.100069L548.086088,93.710586L538.168167,86.577594L533.007404,84.455287L527.378064,84.977157L524.379198,86.948718L521.231978,89.913844L518.962226,92.051933L515.146711,93.258221L506.911127,92.747865L502.291420,91.390806L499.720807,88.769579L499.722920,88.754026L500.122550,85.812162L505.870590,76.743826L506.602207,76.210445L507.710548,75.943757L508.684158,75.445170L508.971162,74.181333L508.537362,73.207390L508.466603,73.151015L506.994777,71.978392L506.940091,71.896111L506.601789,71.387093L506.582498,71.375986L504.004360,69.891487L503.300843,69.137904L503.301004,69.120392L503.309557,68.187247L504.486804,66.506252L504.664092,65.590425L502.461693,54.740942L501.165282,51.009111L499.063296,46.767704L499.024139,46.744746L497.324036,45.747970L491.599232,47.717930L488.040865,48.019226L484.138600,47.671577L473.648093,44.803985L473.650523,44.737195L473.746454,42.097973L473.263594,38.587300L473.408993,37.370793L474.082768,35.957370L466.989838,35.899444L463.203583,35.076900L459.958847,33.142242L458.873909,31.543607L455.261497,24.408374L450.841090,13.105598L448.222045,8.601534L443.827985,6.332317L442.368397,5.163023L438.927301,0.833449L437.377416,0.328430L436.369486,0.000000L435.384394,0.370420L434.825311,1.481699L420.944609,15.409919L419.708499,16.359474L417.288828,17.193247L415.484199,17.436434L410.025434,17.390113L406.684366,17.992295L403.914980,19.161942L401.546052,21.188634L399.462325,24.373628L397.382729,31.647864L397.720526,31.902716L398.358088,32.574604L398.816944,33.640380L398.551334,35.134825L397.814554,35.621399L395.640255,35.667740L395.137154,35.760421L394.345613,40.128255L394.177565,42.920645L393.081703,44.716671L387.810343,46.524356L383.434514,47.254403L381.591901,47.150109L379.814120,46.431652L376.078319,44.311111L374.400325,43.847618L370.613128,44.600797L364.100795,47.891754L359.642419,48.181462L356.125505,47.648401L354.877389,45.122235L354.853979,37.753120L354.054717,34.428143L352.882321,31.393014L352.370655,28.195927L353.538327,24.419957L348.147279,21.837196L330.475643,20.505339L323.244032,20.667476L320.037370,21.709799L313.331199,27.222946L308.393454,27.454606L303.135953,26.157326L297.088999,23.748193L295.841456,23.539716L294.636095,23.748193L289.806007,25.948838L281.876352,25.010655L278.424525,26.910207L277.694302,28.751925L277.673814,32.922137L276.974271,34.891539L275.632516,36.119564L270.067815,38.703159L263.283203,46.327361L259.522798,48.482761L254.261219,47.520930L254.879063,58.171707L250.967295,60.878869L244.828108,65.126721L221.718623,72.824774L216.893686,76.917755L213.182340,82.669369L210.528766,89.511860L208.987832,96.877254L208.929500,102.897928L209.090870,104.248587L210.288480,114.279895L209.590420,119.211656L206.400813,124.399177L201.557671,128.449720L195.879184,130.701435L186.289026,130.086267L182.045016,130.643400L178.507547,132.639837L176.530759,136.563267L175.745997,139.894906L175.029745,146.848995L173.870524,149.925766L170.851945,152.584686L167.467649,152.747243L163.668236,152.213127L159.353871,152.840134L156.674493,154.825698L151.364750,163.627958L148.425318,165.799680L115.291020,177.019451L108.702435,176.171513L102.815669,171.374482L100.126507,170.329170L95.993009,171.362868L92.895373,173.147626L89.602258,175.044819L86.557743,175.532664L65.471649,166.949443L56.753343,165.091249L48.922133,166.508118L39.888547,172.315277L38.459697,174.405980L37.794999,178.645661L35.483104,181.352227L29.757128,185.778216L25.938837,192.005281L18.881448,213.693820L17.117270,216.825898L14.556456,219.702407L14.494698,223.973780L17.087841,234.493355L16.396077,237.319419L16.114604,238.469054L13.415171,241.061495L10.643766,243.055286L9.504869,245.177008L8.829854,248.170758L4.664996,253.809741L3.125638,256.838657L2.671470,260.053719L2.142311,272.066091L1.805884,273.484879L1.421981,274.153578L1.198294,275.176985L1.304521,277.648324L1.976759,279.003224L3.421931,279.706848L7.046970,280.026679L8.105459,280.526780L10.101536,281.829381L12.078716,283.544883L13.047499,285.330198L12.729600,286.330452L12.143053,287.633123L11.911137,288.772972L12.726963,289.238220L13.248612,289.715101L13.956698,290.843341L14.642221,292.134433L14.953639,293.158011L15.660716,294.484025L17.091252,295.222645L18.770481,295.850766L20.878223,297.362924L22.013706,297.682806L22.746733,298.462158L22.998875,299.439264L22.985746,302.015839L23.154272,303.091852L26.653202,311.176790L27.860718,315.248538L28.308301,320.128987L29.890932,323.636738L34.763982,327.801943L37.332351,329.070145L40.228360,329.442463L42.202299,330.460526L45.244293,334.573299L46.208449,335.876736L48.721737,337.976952L47.060233,339.879388L46.337279,342.160015L45.689732,346.349007L46.424811,346.721367L48.701428,348.228270L48.065569,351.922857L52.336258,353.819637L58.275763,355.559339L62.733863,358.730412L68.964457,355.390605L75.520483,356.565931L83.085891,358.316175L84.977127,358.753686L96.776149,360.243237L102.768075,364.188275L122.998566,384.996984L124.879501,386.370332L126.788294,387.022094L131.356751,387.825159L133.105811,388.756253L139.848969,396.443719L142.204326,398.346705L144.049997,398.288509L145.778216,397.543608L147.772562,397.287549L150.539747,398.416539L154.464187,400.674533L158.019693,403.351557L159.636130,405.667783L161.666051,407.436971L169.608028,410.929976L173.853509,412.796969L189.167810,416.259766Z "/></g></svg>