<?xml version="1.0" encoding="utf-8"?><!DOCTYPE svg  PUBLIC '-//W3C//DTD SVG 1.1//EN'  'http://www.w3.org/Graphics/SVG/1.1/DTD/svg11.dtd'><svg enable_background="new 0 0 1000 819" height="819px" pretty_print="False" style="stroke-linejoin: round; stroke:#000; fill: none;" version="1.1" viewBox="0 0 1000 819" width="1000px" xmlns="http://www.w3.org/2000/svg" xmlns:xlink="http://www.w3.org/1999/xlink"><defs><style type="text/css"><![CDATA[path { fill-rule: evenodd; }]]></style></defs><metadata><views><view h="819.283490657" padding="0" w="1000"><proj flip="auto" id="robinson" lon0="-14.6619723995"/><bbox h="73.55" w="89.88" x="-257.24" y="-279.89"/></view></views></metadata><g class="" fill="#000" id="country"><path d="M838.305416,817.283491L866.007117,809.243026L872.099017,805.468339L877.577202,799.931488L880.526890,798.323393L884.583454,798.178953L894.400564,801.847720L897.876775,802.232892L900.053420,801.741798L906.313772,797.938221L908.137479,796.522712L908.850651,796.204945L909.982745,796.195315L910.301487,796.397531L910.517670,796.705669L920.349619,801.356625L923.702792,802.175117L937.068985,802.801021L943.257053,801.655134L955.893424,796.407160L962.700805,794.991651L976.795899,793.797616L982.305266,794.433151L992.987133,798.766341L997.496083,798.968557L997.853233,794.019091L999.012688,789.098511L999.388965,784.746058L997.354243,781.520235L996.988031,782.579461L995.670892,784.871239L995.384890,783.195738L994.387378,780.143242L994.049614,778.573662L993.076737,775.598200L991.803776,776.147072L990.861536,778.130713L990.939503,779.507707L989.636022,778.198118L987.784203,774.500457L986.610922,773.653076L984.802592,772.950134L985.989487,771.775356L989.404188,770.013188L989.832953,767.875476L989.644977,766.527369L989.278908,765.246667L989.157042,763.263024L990.066168,757.379496L990.053655,755.443998L989.272405,753.527758L988.008269,752.516676L986.772517,751.996691L986.152547,751.544112L986.030851,748.799747L987.051279,747.403491L988.337476,746.411667L990.122955,741.510325L992.284942,740.739976L994.553183,740.287397L995.914089,737.880056L995.629634,736.113068L993.945162,732.665756L993.954465,731.828000L995.109494,730.475074L995.486684,728.448092L995.359435,726.223707L995.034410,724.321905L994.528328,722.757132L993.833976,721.418648L993.244033,720.561634L993.034820,720.393119L992.631236,720.239049L991.864135,720.123497L991.227251,719.690175L991.172587,718.539464L991.589432,717.509120L992.087909,716.729140L992.350232,715.925086L991.869154,712.896645L992.498774,710.965953L993.432307,709.040075L994.137495,707.147899L993.793989,706.160886L992.859095,705.207576L992.076845,704.196490L992.207923,703.055406L993.287355,702.419866L994.439158,702.853189L995.462044,703.488729L996.179919,703.469471L997.612872,702.179131L998.667765,701.471370L999.229130,700.354360L998.937588,695.510771L998.590211,693.377857L997.860455,691.466420L996.511117,689.848679L996.077611,693.088975L994.863177,695.212259L992.962108,696.088535L990.418541,695.549288L990.887028,693.695628L991.325114,690.060526L991.360233,688.457229L991.909083,687.706135L992.829770,686.921337L993.091966,686.136540L991.682296,685.380631L991.039169,684.773978L990.419361,683.604003L989.525199,681.326646L987.312743,677.701168L987.654281,676.627487L988.573828,675.207147L988.774571,673.897544L987.061245,673.136820L984.410994,672.371280L982.367386,670.975012L980.453282,669.333194L978.208632,667.811743L975.330511,667.055832L974.546788,664.037003L974.546681,657.522684L973.056159,655.057545L971.138228,653.059434L969.595133,650.772438L969.144797,647.435831L969.784597,645.423273L971.908762,642.067405L972.186004,640.025958L971.506687,638.230061L967.853424,634.570861L963.902046,628.326143L962.772130,624.710271L962.803695,620.656255L961.614957,621.267728L959.557305,621.855127L957.754119,621.628834L957.345920,619.779971L957.597181,617.127044L956.864373,616.313352L952.752800,616.481868L949.553984,617.232969L948.003969,617.011490L946.384303,615.571880L945.469729,613.747090L944.323101,612.273775L941.990262,611.898225L939.474393,613.390798L937.791231,616.491497L936.774455,620.309593L936.308873,623.911023L929.386389,629.688715L928.479114,630.738329L927.568959,630.632404L925.649675,628.841321L924.922770,627.546155L923.953868,623.949541L923.346240,622.567709L922.092998,621.537353L917.801539,619.154054L916.372227,618.725541L916.009228,616.674458L918.469495,606.688660L918.864755,603.376107L917.760812,601.214280L916.452282,600.588361L914.944568,600.376512L913.251873,599.432818L912.338625,598.233943L910.921928,595.455824L909.908585,594.170282L900.572036,586.490728L897.624572,582.711132L894.085007,576.408591L892.128913,569.682344L888.863986,562.436092L886.709422,558.762408L884.493042,556.629456L898.531227,547.914676L904.077298,541.645805L906.781970,533.325819L907.849245,525.771378L907.923521,521.982117L906.973797,518.476927L904.173022,514.658772L901.162573,512.063581L898.544583,509.131351L896.972028,504.297260L897.090577,496.564633L900.947103,482.269356L902.244549,474.710033L901.945340,470.583697L896.136109,454.911298L894.571290,452.181263L892.301590,450.471981L885.905397,447.867130L883.941652,445.989325L882.405396,443.673366L881.100088,441.116660L883.524165,440.129608L884.263773,437.813646L883.167716,435.372495L868.049435,429.103499L865.953041,428.641268L866.368479,420.561859L866.004022,416.772525L864.200360,408.640132L863.888281,404.749676L864.919226,401.538121L868.032784,399.433998L869.237294,398.263970L869.712457,396.227254L869.904398,393.959421L870.268166,392.057521L871.500407,390.112287L874.725152,386.679235L875.658065,385.046970L875.853518,381.936515L874.630899,380.809818L872.977261,380.376473L871.846482,379.312369L871.487742,377.275645L871.817322,376.014128L872.560746,374.680386L873.493914,372.441432L871.684251,372.325873L869.047256,371.738449L866.592378,370.491375L865.371252,368.392053L864.409935,365.801603L861.212853,362.570762L860.048276,357.139477L851.123497,349.266992L840.946562,343.893471L838.117735,341.216338L832.724689,333.940884L830.497956,332.448235L830.434967,330.440380L826.857499,315.571634L826.109828,313.757087L824.730059,311.980343L823.007127,310.911407L819.207194,309.929141L817.493708,308.797609L814.683444,306.409353L805.796278,300.520564L803.736071,297.568943L802.473705,296.143691L800.962924,295.551440L798.451523,295.975164L793.271771,297.723025L791.587761,297.966057L791.470106,297.983037L787.144233,295.927014L782.402381,290.762104L781.132249,289.378550L777.050281,287.919589L776.868594,287.418824L776.393815,285.728740L776.307129,284.260148L777.260307,279.531762L777.250423,278.000573L776.864349,276.570499L776.029784,275.289693L774.565883,274.148522L772.932370,273.628495L771.210771,273.628495L767.717111,274.432611L766.160192,274.398906L764.721089,273.830728L763.322114,272.583626L759.661978,268.447483L758.717900,266.121804L760.398196,264.730248L765.952437,265.370653L768.662267,264.884331L769.582553,262.298636L768.574056,259.250693L766.537434,256.819079L756.952790,249.476079L755.012420,247.111872L753.715613,244.246895L753.145512,241.208574L753.220130,234.968214L752.936100,233.523686L752.226313,232.127308L750.627874,229.734204L750.109638,228.467834L749.536239,223.315676L749.061639,221.697802L748.057307,220.315867L745.495360,218.986898L742.939342,219.372107L740.521260,220.850344L738.335709,222.776385L735.846785,224.466486L733.506101,224.798727L728.543605,223.373556L727.622073,222.574151L727.077719,220.864789L726.800638,219.280620L726.806113,217.657930L727.838051,210.647134L727.498215,208.022899L726.360384,205.832023L724.647859,204.055247L722.633374,202.735907L718.903520,201.609170L717.721775,201.074692L714.749530,198.662320L713.588795,198.132657L711.218516,197.988204L706.318487,198.941597L703.868789,199.018639L702.406302,194.386497L702.196934,192.816769L702.401287,191.160369L703.023898,189.648422L705.556052,185.382226L705.864967,184.014732L705.702774,182.647237L705.030492,181.096768L703.226093,178.082502L702.154324,176.782418L700.869365,175.655679L698.406594,174.037798L697.283477,173.045882L696.463727,171.774689L696.276064,170.185698L696.664468,168.606337L697.233732,167.026975L697.621985,165.457244L697.636701,161.855529L696.908337,158.677545L695.510372,155.807728L692.627285,151.994145L691.952452,150.877035L691.624773,149.625102L691.650916,148.093890L692.327086,144.944795L692.455176,143.355801L692.124273,141.805329L691.198513,140.370420L687.149795,136.903525L685.748304,135.266380L684.551184,133.484782L683.537576,131.549098L681.383989,125.270166L681.185990,123.835256L681.078582,120.570596L680.695650,119.135686L679.739294,117.797080L675.319978,114.455377L674.535960,113.367157L673.272357,110.853658L672.482518,109.861741L670.032792,109.794329L664.055940,112.365610L662.425711,111.113675L662.774899,108.224596L665.602631,102.562000L665.349883,99.961829L664.277993,99.721072L663.348316,99.759593L662.443315,100.067762L660.210351,101.069309L651.607527,103.091665L646.630391,105.460710L645.391340,105.874811L644.818426,105.942223L641.761906,105.961483L640.820522,106.182980L636.317559,108.821672L635.248319,109.139471L634.117197,108.917975L633.764146,108.677218L632.714865,107.637150L632.269851,107.367502L631.281084,106.943770L630.890555,106.683753L630.685170,106.414106L630.444788,105.749618L630.269692,105.431819L629.544680,104.834743L627.872035,104.102843L627.112213,103.573178L626.625910,101.618234L627.397051,99.159726L628.377898,96.032682L628.752759,93.644377L627.201126,93.442141L625.690549,93.528813L624.249233,93.971805L622.854595,94.857789L621.603656,96.167505L618.632430,100.809292L617.498448,102.157529L614.835186,104.391750L612.139344,106.096307L610.847823,106.616341L609.525217,106.760795L608.157494,106.375585L606.700344,105.354777L605.434794,103.968019L604.438640,102.330874L603.697360,100.549275L602.413616,95.531908L601.633965,94.019957L600.585340,92.739132L598.060500,90.581953L596.735596,89.705600L590.392836,87.635094L587.653404,85.969059L587.102650,82.993309L587.996096,79.651609L587.966047,78.081878L587.282319,76.406213L585.723707,74.085322L585.414012,72.871910L585.745670,71.292548L586.823942,68.422733L586.734421,67.122649L585.782697,65.861086L584.303503,64.946213L581.130910,63.569087L579.704536,62.529020L576.933571,58.763594L575.853509,57.636855L570.518091,54.179598L561.039112,44.491578L555.652267,37.365207L551.856645,34.341316L550.723674,33.156799L548.039334,29.150626L546.736607,28.283907L544.890841,27.917958L540.997843,27.619421L539.321473,26.743072L538.504588,25.298539L538.353911,21.966485L537.831174,20.521953L536.271667,19.693755L530.029946,20.310089L528.523814,19.549302L528.273910,18.124031L529.198917,14.580115L529.305356,12.538512L528.651520,11.151763L527.413894,10.198374L517.196951,5.701072L514.004557,5.922567L512.433133,6.596680L508.114714,9.427958L506.490013,10.246525L504.783070,10.756925L503.039727,10.978420L501.280434,10.939899L494.719429,9.418328L492.983671,9.466479L486.132930,11.594753L484.333753,11.662164L482.551095,11.315477L478.027991,8.917557L476.608535,8.474568L474.994598,8.522719L469.468998,10.111702L467.590611,10.362087L439.869178,8.147142L434.886389,9.456848L431.897445,8.946448L430.256184,6.587050L429.074586,3.882245L428.930997,3.553539L426.856224,1.040060L425.029081,0.000000L421.366489,1.666022L419.669904,2.898687L418.585032,4.622491L418.019929,7.232273L417.634410,8.436047L416.813203,9.582041L415.788176,10.419868L414.626341,10.959159L413.414048,11.084352L412.254843,10.660623L410.594026,8.869406L409.360340,6.731503L407.926874,4.921027L405.598895,4.140981L403.266030,4.843985L401.817344,6.683352L401.440830,9.090901L402.356364,11.585122L404.928431,14.426032L405.442162,15.610547L405.355313,16.997297L404.636566,18.056620L403.562380,18.827036L400.105635,20.252307L382.584701,23.295454L379.961115,23.401387L372.292441,22.053157L367.070701,22.255391L364.520869,22.862095L357.608310,26.020805L355.309839,26.656400L352.914011,26.714181L350.925519,25.760789L349.852377,24.017720L348.958908,22.120568L347.458612,20.724188L345.001856,20.483432L342.616619,21.658318L340.559074,23.642142L336.480423,29.901784L334.883863,31.529291L332.929327,32.588615L330.520779,32.848631L323.571199,31.259645L321.083424,31.693005L319.131754,33.012345L315.459346,36.662201L313.182848,38.241558L310.760903,39.137169L308.261966,39.291253L305.730913,38.568986L301.933047,36.546638L300.564451,36.094017L295.294311,35.766590L287.998000,33.099017L285.404618,32.954564L281.379653,33.753873L280.010008,33.753873L274.362003,32.232297L272.061958,32.521204L265.549586,35.699178L264.342450,35.959194L263.319551,35.853262L261.238506,34.928760L259.893241,34.572442L258.669913,34.803567L257.504567,35.468053L256.325472,36.382924L252.430377,36.989629L248.768372,36.517747L245.512155,34.755416L242.825226,31.529291L240.928539,28.293537L239.756623,26.916416L238.282790,25.905243L236.242202,25.462253L234.276192,25.847461L232.390127,26.810483L227.527907,30.575899L225.854099,31.432989L223.997625,31.798937L222.177386,31.654484L216.824360,30.518118L213.100878,31.346317L209.588187,33.686461L206.518313,36.912587L204.190378,40.408360L202.887615,43.904134L201.877677,51.338677L194.540484,82.877746L193.795805,85.063814L192.729491,86.960975L190.151036,88.809985L184.114601,90.398978L181.695216,92.662090L180.437664,96.408262L179.443890,109.023908L176.458019,116.535515L174.037028,124.769392L173.024383,126.907311L172.206261,147.198276L170.390956,157.473762L166.563328,164.466716L166.562888,164.471166L167.540530,167.110007L167.778340,169.028474L166.984022,170.893861L144.869455,210.499153L133.204832,227.166239L109.628576,271.760742L97.991312,285.781287L92.631121,294.349801L66.030552,328.668458L60.338062,333.680608L35.790280,345.198672L27.683970,352.417351L0.611035,360.409447L3.143222,363.078531L13.794331,378.175509L15.905776,379.722359L16.484955,378.638048L17.039248,378.456065L18.101596,375.786990L17.556339,375.195547L16.582003,373.845843L16.036772,373.254400L18.175344,372.147340L19.450986,369.432765L17.500733,368.780660L16.164007,366.991163L19.878177,364.079438L23.970388,363.776133L28.640492,364.413073L34.028193,364.337247L35.061589,365.717283L41.892159,369.751235L44.515655,370.577739L48.038065,371.237426L51.208928,372.890435L53.965380,375.036312L58.553073,379.836098L64.934035,389.920939L68.980753,402.743065L74.551957,412.365323L75.433080,414.822067L77.183119,416.960343L88.730273,423.087030L93.742426,428.849749L95.650001,432.155726L96.387452,435.234227L96.154267,437.364912L95.261400,441.027261L95.025860,442.938052L95.231556,445.379616L95.920361,446.153030L96.990656,446.410835L98.387919,447.275239L101.408029,450.763185L102.677864,453.106173L103.679679,456.290816L104.877833,466.337593L105.670506,469.021785L107.259524,470.659597L111.488094,471.721141L113.598293,472.828180L115.015044,474.814783L117.865765,481.449427L120.401853,490.419452L121.119028,495.818142L121.436531,531.584335L122.445939,531.584335L122.022534,513.924947L122.861648,508.693087L123.595939,507.024956L126.911503,502.900123L127.770018,501.338145L128.237167,498.669133L128.741459,497.236055L131.582421,493.649568L131.772368,491.981433L129.899382,489.494395L131.115536,488.705822L132.549599,488.341865L136.156764,488.220546L137.984913,487.363731L140.162893,483.724160L142.360260,483.003828L137.729593,488.614833L134.964922,489.494395L134.820652,490.844068L130.849361,498.509902L134.766168,498.896606L138.266790,500.261442L141.718504,501.034849L145.408327,499.670013L147.095064,497.827484L149.205525,493.497919L150.676893,491.450663L152.641896,490.002418L156.190832,489.069779L157.879314,488.220546L159.388231,486.294607L163.727864,478.037325L164.253316,476.528417L164.616565,474.814783L165.226535,473.404447L166.611195,472.828180L168.508605,473.252797L170.129013,473.942801L171.805868,474.086868L173.853503,472.828180L172.069115,470.940148L171.616207,468.119472L172.621364,465.427697L175.224217,463.933950L174.858193,467.975405L179.231664,469.848273L189.499585,470.280474L188.193609,471.281358L185.525990,472.691696L184.521740,473.525766L182.905108,474.450825L181.565784,473.631920L180.282886,472.267078L178.935039,471.554327L176.941934,472.373232L174.340896,475.952151L169.072240,477.650620L166.714761,479.879860L162.373747,485.672847L159.676667,488.319118L152.207805,493.422095L153.764523,495.439021L155.814427,495.893966L158.034658,495.378361L160.080569,494.589789L157.774733,496.530890L155.689272,497.668254L154.374586,499.503200L154.360024,503.605288L150.701573,502.141882L148.403471,503.650782L146.554215,506.403199L144.228630,508.693087L144.459361,506.221221L142.932926,504.719903L140.670001,503.923749L135.880746,503.309574L133.787338,503.415728L131.860191,504.234628L128.047899,507.570890L127.016247,508.799240L126.425465,510.611436L126.208534,513.773298L126.643941,519.778558L127.282052,522.675032L128.232036,525.222715L127.054290,527.558090L126.764536,531.470600L127.548203,535.155635L129.597403,536.793428L131.076536,537.635072L131.346533,539.614070L131.318518,541.919111L131.804111,543.731296L133.442500,544.588103L134.700018,543.344595L136.388413,539.917365L137.482463,538.901328L139.376698,537.703313L140.282884,536.793428L141.143684,535.079812L141.444344,533.495095L142.056461,531.948290L143.838998,530.310495L147.006695,529.195885L150.402427,528.695448L153.301855,527.724903L154.980222,525.222715L156.188805,525.222715L158.361352,525.905130L160.574288,522.841845L162.330174,518.231749L163.756720,510.520447L165.316138,506.880891L168.986491,501.057596L168.666419,504.082980L164.816170,521.431520L163.901310,523.948874L166.341414,525.268210L166.972392,528.991161L167.167656,533.699819L168.327507,537.953531L165.947898,538.446385L164.132394,536.338486L163.018885,532.850593L162.805549,529.165556L157.120570,530.310495L157.908953,533.396524L158.259086,534.245750L157.327412,533.608831L154.801091,532.274332L153.857120,531.584335L152.814041,534.215421L146.879878,541.873616L145.355269,544.322721L144.890535,546.180400L144.490001,550.782892L143.005331,558.107444L143.668633,561.542247L146.472358,564.893642L149.581686,565.985499L152.800862,564.984630L155.384673,562.338393L156.622462,558.425903L158.976777,558.630626L160.754855,556.098122L161.615397,552.488922L161.229574,549.509056L164.549145,549.956415L164.781674,552.215957L163.204051,555.059339L161.092991,557.265803L161.981131,557.751074L163.636938,559.153808L164.497607,559.692155L160.296289,563.301350L156.149897,565.667040L153.309192,568.571076L153.111343,573.802885L153.900999,575.751544L155.460822,578.488763L155.478762,578.524061L165.704842,578.570426L175.844793,578.608944L185.976147,578.657092L196.116109,578.695610L206.264347,578.743758L216.395884,578.782276L226.535698,578.830424L233.185424,578.849384L236.667407,578.859313L246.807395,578.897831L256.955663,578.945979L267.087225,578.984497L277.227068,579.032645L287.375513,579.071163L297.506932,579.119311L307.655388,579.157829L317.786819,579.205977L325.775702,579.234865L328.356098,578.271910L328.806031,570.871595L329.245720,568.348197L329.467139,567.077546L330.816601,562.980163L332.567784,559.080184L334.433567,555.907237L339.620817,549.778003L346.613539,544.125429L354.223383,540.933214L361.270713,542.194693L362.770854,543.812466L365.857300,548.497267L367.221617,549.662448L370.711751,548.742821L383.152050,539.975068L395.132038,535.092854L398.620620,535.285447L408.270371,539.397292L424.737751,540.225438L430.665596,542.435433L433.714816,545.227931L436.343771,547.635418L438.359976,550.813184L439.764991,554.246133L442.746602,566.336069L443.854762,567.756431L450.490647,572.287140L452.762531,573.206764L454.789996,572.484547L464.909057,566.230144L471.553362,564.251267L478.259378,564.819412L485.213132,568.478648L488.329010,571.304925L490.487795,574.391199L491.985646,577.954135L494.043326,586.047769L495.064252,588.546634L496.683288,590.554393L497.996273,591.616155L509.699870,601.079467L513.592682,603.135369L516.568547,603.597586L519.410758,602.836854L529.057032,599.013934L538.199683,592.716223L541.318357,591.218831L550.773598,588.840336L558.388492,584.521487L561.713575,583.597050L563.469409,583.529644L566.304393,583.799271L568.013009,583.500755L569.946395,582.547430L573.302523,580.366337L575.497614,579.971526L578.917308,580.635965L583.040257,582.248914L586.926592,584.473339L589.623834,586.962576L590.443914,588.585153L591.434548,592.119192L592.259722,593.688806L592.597252,594.015248L593.728332,595.109161L597.397069,597.550247L599.024659,599.071711L602.813190,607.882720L602.048283,617.415929L597.285829,625.326558L589.140743,629.274647L576.785698,630.459074L570.200135,632.428302L563.616201,632.514968L556.566415,635.350849L553.739740,635.312331L551.274553,636.540089L543.334435,643.145905L539.735889,645.115131L535.006834,645.298090L526.167611,643.439604L516.866120,644.354403L512.453428,643.969224L508.202644,642.616284L502.298959,639.173749L500.588339,637.849697L499.066773,636.299352L497.845407,634.426419L496.049568,632.312749L493.886580,631.629055L488.750483,631.397948L486.398879,630.632404L484.250522,629.255388L482.762590,627.684941L478.160876,622.827705L476.307028,622.086235L470.993592,623.569176L464.930943,624.363609L458.976637,623.569176L453.555740,620.993287L449.067912,616.452979L445.855225,611.325269L444.126942,610.121581L440.796363,609.408997L437.817551,608.320862L432.415733,604.584611L429.972740,603.780547L423.729123,603.212405L418.235877,601.599461L407.657361,595.513602L407.632351,595.494343L407.599054,595.465454L407.573892,595.455824L399.568882,588.893298L392.358794,581.213738L387.922406,577.954135L384.166789,579.629677L380.701656,583.568545L376.940645,587.843678L374.588316,591.984379L373.789591,603.510920L372.720970,608.662710L369.285568,613.544870L364.538928,617.025934L359.154011,619.235904L353.820388,620.328852L347.803442,620.338481L330.057020,616.101503L324.964193,615.851136L321.115850,617.454447L317.306960,619.751082L312.366187,621.585501L309.694739,621.884015L298.701484,620.685143L296.641502,620.742920L289.265983,623.352513L277.862082,624.575458L275.952821,625.740626L275.260315,628.369476L274.769805,641.582731L274.662094,644.489215L274.145179,657.763420L273.033485,658.663774L266.914889,658.605997L262.561427,658.560839L252.061710,658.451926L230.777684,658.240078L194.649085,657.874159L169.837653,657.623793L142.924981,657.349354L135.819250,657.272319L130.097827,658.692662L127.606912,663.247389L127.061830,665.038465L124.431006,667.879149L123.367123,669.400600L122.741158,671.485372L122.419746,675.776912L123.098129,677.338850L123.299666,680.386904L122.857705,685.353258L121.119991,693.094699L120.689583,696.991954L120.833586,699.130136L121.532396,703.497486L121.659230,705.878297L121.028467,708.243943L115.038042,717.933987L114.021511,720.314794L113.585940,722.543957L113.978211,725.379695L114.983812,726.092420L116.115750,725.182558L116.914193,723.120204L118.137580,723.120204L118.888438,726.395707L118.131850,729.155622L114.490772,734.690613L115.436344,736.237377L115.743115,737.814469L115.384471,739.421890L114.388966,740.938325L116.448718,741.446330L118.341639,739.945060L121.781340,735.327516L124.671850,734.220518L128.044021,734.978736L130.344979,737.010759L130.040950,739.770670L124.369883,737.662826L120.101178,741.332598L117.401595,747.883593L116.404103,754.464912L116.574983,760.780852L117.767752,765.603103L120.755032,767.604792L126.276064,765.459042L133.532086,758.779162L138.490965,756.421110L138.885560,753.373080L137.821169,746.769014L138.084368,742.811121L138.801493,740.399991L140.215533,738.481701L143.521298,735.122797L144.307959,734.584462L145.078954,733.780752L145.983104,732.143001L146.391915,730.709969L147.205035,725.660236L148.109380,732.233987L145.900062,736.464842L142.582943,740.119450L140.190532,744.987204L140.030136,747.519649L140.650057,749.498594L141.952968,750.772398L143.900766,751.227328L146.499241,750.499440L148.016478,748.770706L149.313079,746.700774L151.255647,744.987204L151.941711,748.656974L157.854176,754.457330L159.964066,757.694913L161.194354,757.694913L162.556201,742.318280L163.072905,744.941711L163.954567,747.201198L165.521434,748.611481L168.033994,748.679720L168.011959,750.067257L166.356279,750.476694L164.834607,751.659511L163.770964,753.312423L163.468959,755.162471L164.252472,756.496931L165.748975,757.323387L167.236994,757.846556L167.881882,758.278739L168.906529,760.773269L171.402911,763.146485L176.775371,766.603948L183.441071,769.037819L184.930410,767.786764L186.080777,765.671343L186.916801,763.669654L187.489204,762.790123L188.971763,762.395851L191.273596,760.644373L193.055517,760.242518L198.317636,761.410171L200.286140,761.410171L202.043217,760.894584L205.186311,759.347824L207.029341,758.862565L213.207426,758.862565L217.146218,760.030218L218.872006,760.242518L219.877420,759.734514L223.280611,757.270312L225.022574,756.436274L231.732316,755.162471L236.344407,751.917305L237.054553,745.563449L237.831314,744.357884L239.646116,740.536470L239.897393,739.770670L239.918837,738.390715L240.929554,738.390715L241.740837,740.528888L242.297671,744.501945L242.912651,745.154012L243.658674,745.502792L244.247421,746.132112L246.398956,751.068102L247.399240,752.614864L248.130395,753.069794L249.261722,753.448902L251.424630,753.774935L252.028755,754.275358L251.930808,755.458175L251.704427,756.777471L251.883225,757.694913L255.906107,760.773269L258.344990,762.198715L260.231341,762.790123L262.225813,762.395851L265.012366,760.644373L267.013574,760.242518L268.959777,760.833927L270.116857,762.153222L270.815205,763.464935L271.364878,764.056344L274.262769,763.290546L282.214818,757.694913L293.774605,759.787589L298.697918,762.304865L297.683323,767.877750L299.099556,769.234955L300.789439,770.084156L302.733025,769.978006L304.923768,768.461575L313.281907,760.098457L314.565998,758.278739L318.579852,754.464912L319.090553,753.221437L319.232718,751.720169L319.178521,748.679720L318.921357,746.761432L317.177920,739.770670L317.341380,728.958485L318.353770,726.213735L320.594306,724.909599L323.053618,724.522908L324.709309,724.515326L327.651803,723.832929L331.731145,720.519513L334.216299,719.298781L336.849754,719.700637L339.298224,720.906205L341.703701,720.997191L344.274804,718.040137L343.797399,723.249101L341.680101,725.212887L338.623148,724.227203L335.320663,720.572589L334.549417,722.771423L333.499726,724.477415L331.930264,725.819461L329.639484,726.934043L327.401410,727.199419L324.951598,726.956789L322.609774,727.047775L320.702159,728.321582L319.235396,732.977041L319.679684,738.784988L321.083877,744.456452L322.616495,748.679720L321.197656,750.173407L322.180057,751.181835L323.955865,752.053784L324.876533,753.191108L324.386101,755.753880L323.183046,757.050429L321.506256,758.005781L319.614479,759.552542L314.484898,766.838995L311.441363,770.250963L303.921341,773.693260L302.059435,774.117860L300.078387,774.057203L298.609138,773.571945L297.450365,772.783402L296.409090,771.699154L295.552624,770.266128L294.502627,767.104370L293.250409,765.459042L292.350039,765.186085L291.505241,765.641014L290.551483,765.822986L288.344174,764.010851L287.286410,764.033597L286.240372,764.602259L285.336302,765.459042L281.942878,763.806132L279.606195,765.284653L277.753523,767.741271L275.858486,769.037819L271.650937,770.205470L270.204414,770.425353L269.427539,769.902184L267.350160,767.422820L266.358335,766.603948L255.886598,766.414394L253.990318,766.035286L252.646447,764.321719L250.088113,762.009161L245.817669,758.165007L242.978000,756.436274L239.402551,756.284631L236.947094,757.679748L234.805685,759.408481L232.259073,760.242518L228.337829,760.515476L225.399743,761.288856L212.588605,766.603948L211.672014,765.239160L210.751029,762.873527L209.506120,761.243363L207.590802,762.100147L203.819960,764.670498L200.593845,764.283808L197.375519,762.972095L193.574325,762.790123L190.654143,764.534019L186.638782,769.970424L183.399511,771.699154L180.563549,771.448943L175.194510,768.598054L170.296872,767.081623L164.871789,763.593832L161.672329,762.790123L158.764769,763.715147L157.052883,765.989793L156.907376,768.886176L154.664669,767.293924L152.462288,760.227354L149.518617,756.314959L143.179569,761.410171L142.074199,763.169231L141.337745,764.731155L140.382554,766.247587L138.607534,767.877750L133.079921,771.699154L128.013007,771.221479L124.446037,771.357957L116.238750,776.786776L115.010251,778.750552L114.617251,780.456535L112.981589,782.094278L112.595624,783.777514L112.472417,791.534044L113.126107,793.937582L114.764196,796.348701L118.457881,800.443053L120.882141,802.368915L121.899960,803.635130L122.558585,807.448942L123.291675,809.913133L124.330425,812.266472L128.106328,809.377836L134.138278,807.760114L156.272342,809.416353L159.290464,809.281543L167.859856,806.903105L176.098008,806.826071L181.083201,804.572814L194.298555,796.676781L205.689258,789.839968L207.410265,789.435537L209.153406,789.791821L212.660557,791.351771L213.999727,791.611762L214.773734,791.265107L215.492723,790.648830L216.607559,790.109589L228.994043,787.711889L234.788530,788.289648L244.952008,792.112486L248.084744,792.757651L261.075527,791.727314L262.695335,791.834156L290.857432,793.691694L296.511431,792.372478L338.092826,770.802793L338.569002,770.416476L347.350590,763.291912L357.366334,758.197990L366.971265,750.571548L371.242526,748.414573L375.941246,747.624966L383.929901,747.663483L428.716814,747.871932L441.860560,747.933105L499.778603,748.212357L515.171983,748.283990L557.718081,748.481979L615.645076,748.751600L668.488987,750.918204L675.807449,753.158741L676.320839,753.315912L677.067914,753.672198L678.459763,754.789202L679.245229,755.116600L680.200574,755.039565L680.653994,754.586986L681.040836,754.057372L681.834324,753.758862L686.743314,752.603340L688.180528,752.487788L689.551730,752.911480L691.547308,754.375140L692.967077,754.635133L694.389129,754.384770L697.166093,753.518128L698.400491,753.412206L699.297920,753.903302L700.836505,755.781025L701.574348,756.204716L702.234699,756.079534L704.312678,755.386222L705.773653,755.395851L706.928923,755.203264L708.004279,755.318816L709.288146,756.310639L710.847204,754.240329L713.769101,755.935094L716.764428,755.829171L719.596048,755.309187L722.082187,755.732878L724.144812,758.275025L724.806137,761.780105L724.581942,765.525918L723.921122,768.732487L721.409599,775.068587L720.780125,778.140342L721.461604,781.760968L723.308078,784.765317L725.701645,786.228974L728.535975,786.546741L731.708530,786.151939L734.607177,787.423009L737.287548,787.211164L739.193724,785.381593L739.774236,781.789856L742.602387,774.365646L748.545508,774.288611L754.889839,778.005532L758.899892,781.992072L758.819179,782.723901L758.542080,783.975713L758.869081,785.564551L760.566673,787.326716L762.121234,788.000768L766.960959,788.395570L769.549966,789.801451L770.233253,791.631021L771.177818,793.162082L774.542471,793.653177L785.109829,792.988754L788.462536,793.422073L791.633919,794.895358L794.295514,797.331574L798.827477,803.061013L799.680922,804.832805L799.788082,806.132761L800.375162,806.854959L802.705951,806.931993L802.915790,806.863118L804.143468,806.460157L808.951178,803.523220L812.160810,802.136599L814.922184,801.510694L817.750541,801.655134L821.173696,802.589177L828.228238,805.449080L831.123888,807.808260L835.674069,815.781320L838.305416,817.283491Z "/></g></svg>