<?xml version="1.0" encoding="utf-8"?><!DOCTYPE svg  PUBLIC '-//W3C//DTD SVG 1.1//EN'  'http://www.w3.org/Graphics/SVG/1.1/DTD/svg11.dtd'><svg enable_background="new 0 0 1000 1517" height="1517px" pretty_print="False" style="stroke-linejoin: round; stroke:#000; fill: none;" version="1.1" viewBox="0 0 1000 1517" width="1000px" xmlns="http://www.w3.org/2000/svg" xmlns:xlink="http://www.w3.org/1999/xlink"><defs><style type="text/css"><![CDATA[path { fill-rule: evenodd; }]]></style></defs><metadata><views><view h="1517.49842697" padding="0" w="1000"><proj flip="auto" id="robinson" lon0="46.7741030581"/><bbox h="229.48" w="151.32" x="606.5" y="-201.04"/></view></views></metadata><g class="" fill="black" id="country"><path d="M57.278861,1515.498427L59.839149,1512.553718L59.234242,1512.553718L61.222879,1510.661210L64.751319,1504.082493L66.982657,1502.658606L68.833812,1500.973373L72.571760,1492.601280L74.457230,1489.338958L76.779722,1486.130707L87.105434,1467.439945L87.722784,1465.403247L87.655845,1463.294453L86.532821,1459.347225L86.434347,1457.094240L87.039309,1457.094240L87.674079,1460.203359L89.701832,1461.906615L91.916461,1461.609221L93.111648,1458.680341L92.391278,1459.365248L91.464351,1459.978060L90.699823,1460.041144L90.371476,1459.013783L90.807817,1457.887291L94.529481,1452.894677L95.188286,1451.795221L95.656591,1450.587621L95.823619,1449.145711L96.353255,1448.352660L98.658334,1445.991533L99.191123,1444.576659L99.452581,1443.278940L100.467180,1441.007931L100.617413,1439.629105L100.239732,1438.745935L99.557479,1438.277315L98.908035,1437.610431L98.644182,1436.222593L98.514748,1435.005981L98.036929,1433.383833L97.915732,1432.077102L98.152844,1430.734323L98.635575,1429.625855L98.935782,1428.382208L98.688599,1426.705988L99.277664,1426.705988L99.842275,1428.598494L99.718596,1432.951260L100.118034,1437.601419L100.504299,1438.367434L101.605930,1437.736598L104.867768,1434.852778L105.309820,1433.969609L105.781208,1431.923899L106.906743,1429.535736L108.332749,1427.544098L109.729574,1426.705988L110.347458,1425.597520L111.233562,1423.209356L111.322397,1421.055504L109.445692,1420.595895L110.334208,1419.424343L111.808305,1419.081890L114.729469,1419.153985L116.594296,1418.649317L118.174023,1417.784171L119.635852,1416.540524L122.163075,1413.602633L126.137865,1406.618383L126.505451,1406.230869L127.381950,1405.996559L127.527439,1405.383747L127.530454,1404.536625L127.876117,1403.581360L137.662475,1390.288756L140.880149,1386.927304L142.382143,1384.944678L143.031756,1383.124267L143.822687,1382.024811L149.056128,1377.419713L149.492755,1377.933393L149.682589,1378.447073L149.728989,1379.014825L149.719386,1379.690720L150.070708,1379.258147L151.062212,1377.419713L149.886790,1376.230137L150.408362,1374.391703L154.289344,1368.551969L155.007208,1367.822002L157.372608,1367.254251L157.684384,1366.551320L157.646372,1365.569019L157.879247,1364.433515L160.273815,1360.603443L166.883844,1353.006382L173.179077,1347.220721L178.875307,1341.975775L190.702019,1327.313358L210.159152,1302.918053L219.410567,1292.630930L229.228659,1281.699454L246.982088,1258.935306L265.620790,1238.518766L269.958175,1234.576044L271.309118,1234.048846L272.960115,1232.976425L277.590706,1225.595649L281.285208,1222.513567L292.284092,1215.826710L296.762438,1209.311079L297.950355,1208.211623L300.056313,1207.589799L302.038060,1206.120853L308.925403,1198.271456L309.611283,1197.171999L310.014725,1196.757450L311.865670,1196.144638L312.260939,1195.698547L312.406748,1193.531176L312.638480,1192.400178L312.967100,1191.494478L314.169128,1190.250831L318.115445,1187.493177L320.352975,1186.393721L331.163716,1173.731946L352.275662,1155.005135L364.550490,1146.308611L377.750337,1135.458233L378.899854,1134.935540L379.630935,1133.894661L396.132448,1120.976041L415.421630,1110.648353L416.492275,1110.260839L418.588443,1109.756170L421.893793,1107.584291L454.864435,1085.906055L465.183712,1079.120059L476.292702,1071.978090L495.750073,1057.658102L497.740944,1055.783617L499.206244,1052.575362L503.276584,1049.637466L504.190378,1048.231602L505.747761,1044.825084L506.849238,1043.175897L515.917256,1032.244398L519.694698,1030.225721L521.048407,1029.076697L522.038706,1026.913828L522.773142,1024.669851L523.728672,1022.912520L525.366459,1022.209588L525.822884,1021.826580L526.367542,1020.898348L526.814161,1019.780866L526.992612,1018.843622L533.060536,1013.882541L540.130984,1005.532964L553.437650,992.790055L560.558316,982.894924L573.481059,969.692401L590.593322,946.594738L593.168780,943.472092L609.167848,924.055807L621.517527,909.199574L636.232150,891.747887L644.658219,878.067707L669.747751,846.895266L680.048495,834.080223L690.185971,816.822266L703.866190,784.045645L715.831391,765.139836L727.169756,750.846788L736.554082,732.426233L743.423196,724.793057L745.935326,720.800734L750.467156,708.918390L764.946741,682.661875L774.403110,663.363143L782.291116,647.249145L785.524726,638.867967L786.691404,629.184553L786.427079,626.782851L785.393982,622.159685L785.135036,619.667863L785.338110,617.234618L796.658020,588.630481L801.095520,573.454252L805.375510,565.667876L812.162752,549.635514L826.510673,525.942959L832.733315,517.624885L837.735983,507.175476L847.265578,487.249966L847.615801,485.303377L847.860685,480.468447L848.656812,478.584942L851.468793,475.016197L854.127450,470.541749L854.626667,468.568125L854.800889,465.783424L854.316851,463.300624L852.841462,462.228199L852.279734,460.912450L852.958243,453.090056L853.983850,449.061705L855.628686,445.871467L863.853749,436.012375L876.164547,427.311325L879.260368,423.909311L881.274364,419.646655L883.738178,409.850660L885.095520,406.236868L885.988511,404.826498L891.952429,395.490122L892.760913,393.421881L893.373922,391.195931L894.302019,389.411567L896.103905,388.681600L897.569031,387.838983L898.800335,385.865369L900.241511,381.742408L900.472371,379.755276L899.966370,373.045892L900.567529,370.747850L905.019260,364.349382L906.410851,360.510302L907.882796,351.340674L909.107725,346.825705L910.716222,343.387660L912.977622,339.800920L915.860659,336.322323L926.226426,326.805754L928.934408,322.899096L930.238792,318.776153L930.227478,316.329424L929.202447,309.259597L929.716658,307.596904L932.437469,302.302422L933.614759,300.567635L935.214597,299.364549L939.237701,297.390947L941.127826,295.647149L946.782139,284.535510L947.403587,282.588947L947.615343,280.493688L947.184953,278.177639L944.618958,271.076294L943.681676,265.232106L943.624273,261.852662L945.302035,258.905788L945.763982,252.151410L946.196191,250.078687L946.321942,248.956713L945.686671,245.870159L946.355670,244.653561L947.516422,240.629778L948.201140,235.101021L948.759938,233.059843L949.799409,230.734793L949.412805,229.495667L950.403169,221.813093L951.214086,220.188265L951.358942,218.976179L951.180705,217.601882L949.908464,214.105309L949.242754,209.054206L951.750106,200.683647L950.424786,194.306440L950.960233,187.530218L952.526795,183.963425L961.029241,177.975726L968.022456,175.163353L982.629020,173.137816L984.172965,173.723580L984.841877,175.021272L985.130508,176.318965L985.941137,178.419933L988.685850,179.011120L990.533715,178.355622L992.113952,178.808558L993.408660,178.741404L995.188599,179.547111L996.031810,179.550717L995.630398,178.031199L996.342943,177.375202L996.798464,176.913741L997.995406,176.439023L999.156600,172.671715L999.670293,170.714812L998.271016,169.693636L997.403679,167.222470L995.706405,166.927165L993.687853,166.700080L992.598885,167.059569L991.651046,167.710657L990.686974,167.924867L989.243424,167.551163L987.408804,167.105936L986.211319,166.302557L983.937865,164.478602L982.812621,163.892975L981.944228,163.235801L980.214990,162.139054L978.861813,160.680901L977.295789,159.476003L975.713998,157.944006L976.845307,160.296072L977.544972,162.553514L977.906019,164.865028L978.077584,167.397330L978.523406,168.055188L979.453550,168.541822L980.391169,169.217703L980.859727,170.452313L980.553239,171.317442L979.730327,171.339971L978.648185,171.015548L977.620499,170.866854L962.922631,174.192191L960.991198,173.822709L960.119819,172.205099L960.841296,170.204490L962.477122,168.496763L964.381246,167.771317L966.440965,167.577565L967.910268,166.874648L968.821762,165.486839L969.215719,163.233901L968.509340,158.412617L968.968537,156.421021L971.264511,155.605458L973.481245,155.186412L974.051422,153.996861L971.517155,145.327565L969.385025,125.636916L967.830491,110.267401L968.038300,107.658504L968.467512,105.238853L969.138237,103.675317L970.126803,101.954076L972.054502,96.601106L974.395696,94.215914L972.834268,91.950520L968.594100,91.730339L964.089275,88.715838L962.567086,83.642230L963.032241,78.974151L962.909873,71.715196L963.309792,69.980436L966.111692,62.329469L966.647741,59.923333L966.797956,57.386528L966.656594,56.507883L966.123321,54.813675L965.966042,53.574560L966.314397,52.858126L968.467253,50.172626L971.478395,45.434081L974.377080,42.209636L975.893215,39.114549L977.587053,37.288059L978.210701,34.047521L977.358973,28.829520L978.861294,25.450872L979.720832,20.875415L981.048705,17.276106L978.552294,16.576803L976.541463,15.675627L974.175778,15.319662L971.918580,15.261085L970.094434,14.810497L966.703725,12.791861L964.779737,12.233132L957.114554,12.233132L955.183632,11.521202L949.188186,6.289417L939.120738,5.119099L932.161487,0.000000L929.663029,0.369132L928.686280,1.148651L925.157554,1.991252L921.173869,3.960325L919.114811,4.600161L918.572635,4.505538L917.690069,3.883725L917.102898,3.843172L916.666191,4.154078L916.263455,4.690279L915.845985,5.424738L913.439258,6.771999L912.260318,6.938716L910.935278,7.547011L909.569041,8.993400L907.516314,12.233132L906.725736,14.350897L906.200223,16.739015L905.917429,19.253297L905.902734,21.754061L905.534060,24.128660L904.459895,25.944530L901.633724,28.931928L898.572379,33.054806L896.798243,34.447122L892.388225,35.456439L884.600751,42.819040L882.662313,44.274437L878.546229,45.513553L877.496330,46.117340L876.764876,46.766186L875.914405,47.225785L872.437123,47.144679L871.418788,47.748466L869.597947,49.740062L864.009960,53.196067L862.185205,52.903185L853.326971,53.196067L853.170812,53.060891L852.691733,52.777021L852.015402,52.506668L851.300303,52.439080L850.561315,52.736468L849.385594,53.736771L849.015028,53.953053L847.906394,54.304511L846.219660,55.570661L845.455530,55.467026L842.701133,58.048891L838.221064,58.769830L829.566856,57.733480L826.663145,57.003529L825.549246,57.048587L824.660322,57.359493L823.151574,58.355290L822.621864,58.553549L818.247001,58.400349L816.039195,58.589596L814.297078,59.310535L812.998833,61.171460L810.991318,65.925153L809.630478,66.875892L807.826282,67.258891L802.760976,70.656316L801.246642,71.350220L799.406470,71.823337L793.173239,72.476688L792.173739,72.422617L791.222756,71.823337L789.989098,71.278127L789.034316,72.107206L787.650971,74.432235L783.983893,76.279641L771.333289,78.902057L758.649107,81.691189L754.994666,81.943518L754.992123,81.943695L755.498984,94.389627L756.000054,106.833097L756.495221,119.273707L756.984976,131.722903L757.468352,144.154935L757.946616,156.601279L758.419140,169.044768L758.886394,181.496851L759.347565,193.934638L759.803440,206.378159L760.253950,218.824557L760.698738,231.260611L761.138042,243.695627L761.572528,256.144964L762.001645,268.591455L762.005069,268.691387L762.425449,281.035099L756.919620,291.103903L751.429758,301.172716L745.905369,311.235814L740.386778,321.293199L734.874951,331.373482L729.333202,341.430882L723.802957,351.499735L718.274175,361.580041L712.740622,371.631741L707.183948,381.712061L701.633189,391.780942L696.088483,401.841246L690.520067,411.907279L684.968116,421.973317L679.412925,432.053668L673.853793,442.122579L669.263031,447.312978L664.651060,452.503378L660.053162,457.693779L655.464146,462.878458L650.864334,468.074585L646.273261,473.259267L641.676285,478.449673L637.068212,483.640080L632.469059,488.824766L631.589583,489.818338L627.869210,494.020898L623.268211,499.211309L618.666222,504.401721L614.063248,509.592133L609.459443,514.788269L604.844434,519.978684L600.228311,525.163377L595.621458,530.353793L591.013506,535.538488L586.394809,540.734628L581.785109,545.925047L577.184699,551.121189L572.572989,556.305887L567.960496,561.496308L563.337136,566.692452L558.717557,571.874290L554.107434,577.067574L549.491296,582.257997L544.874262,587.448421L542.938681,589.620158L538.673884,594.401415L534.413314,599.179810L532.477032,601.357271L530.471875,603.611078L526.377164,608.212982L520.584929,615.131642L514.801411,622.056025L508.996158,628.977548L503.189426,635.899071L497.381229,642.820594L491.581669,649.742118L485.775688,656.666503L479.988399,663.588027L469.793760,676.564095L459.594323,689.540164L449.390408,702.527676L440.286851,714.099193L439.181615,715.503742L428.968268,728.479805L418.755607,741.461589L408.528454,754.443370L398.301920,767.419424L392.881769,774.305230L392.856529,774.305230L385.308192,783.761858L382.506552,785.100951L377.204334,784.751871L372.134672,784.419959L367.070017,784.085186L361.995332,783.753274L356.930865,783.427085L351.856205,783.095173L351.620222,783.079841L346.791708,782.766123L341.717073,782.434211L336.647553,782.105160L331.588034,781.770387L326.513491,781.441336L321.448895,781.103702L316.374323,780.771790L311.309967,780.445601L306.235314,780.107966L301.170929,779.778916L296.096408,779.447004L290.213132,779.057866L286.647024,780.027849L278.199197,783.444253L275.285304,784.205361L265.689451,786.717590L258.303902,788.648974L247.411255,791.504560L240.722371,795.129838L229.853185,801.018410L218.802983,807.015711L207.816457,812.972953L199.760925,820.592613L192.548126,827.405383L191.799407,828.489818L191.173615,829.677260L189.924941,833.402680L188.320282,841.145373L186.906320,844.710559L184.091224,848.357584L183.971071,848.513233L180.370712,851.220027L176.311460,853.071291L169.385458,854.413243L154.737805,857.251657L139.807796,860.147297L128.340429,862.359085L120.969021,862.444924L112.517121,862.542208L109.360517,863.449241L106.018252,865.369176L100.573875,870.359290L93.751962,875.151972L92.042232,876.885922L91.409696,879.040483L91.543972,882.433988L91.050544,883.815997L89.726353,885.040635L88.447333,887.220947L80.470635,900.514556L72.468689,913.805300L64.471819,927.101764L56.459629,940.398224L51.523394,948.587262L46.575131,956.784883L41.634707,964.968196L36.682243,973.162953L28.777713,982.170318L20.850316,991.183404L12.920086,1000.190766L4.997107,1009.192404L1.697604,1012.946425L0.329707,1016.019457L0.450255,1021.948061L0.735755,1036.220202L1.031997,1051.127548L1.119835,1059.339462L1.242151,1071.127993L1.359931,1082.916523L1.473058,1094.702189L1.581497,1106.490715L1.702716,1120.336509L1.817089,1134.173717L1.924613,1148.019507L2.025048,1161.862434L2.118234,1175.699636L2.204084,1189.539699L2.215132,1191.413039L2.282450,1203.382622L2.353165,1217.225543L2.416059,1231.062741L2.471039,1244.905661L2.517895,1258.737134L2.556573,1272.585775L2.586842,1286.422970L2.608606,1300.271609L2.621683,1314.108803L2.625949,1327.957442L2.735113,1337.033451L2.811446,1344.507138L2.875109,1351.980825L2.999890,1364.009684L3.118242,1376.015654L3.230203,1388.033069L3.335850,1400.061930L3.400229,1407.867527L3.462026,1415.673126L3.518694,1424.085317L5.999956,1427.736323L8.460428,1431.387329L10.940605,1435.026890L13.410053,1438.677896L18.217014,1445.751005L23.182178,1453.087353L28.526064,1460.973069L32.955709,1467.496811L37.724041,1474.535586L42.720565,1481.917716L47.604931,1489.116724L52.476999,1496.327177L56.187161,1501.820857L57.351677,1504.258677L57.689676,1506.353142L57.378334,1513.286847L57.278726,1515.496832L57.278861,1515.498427Z "/></g></svg>