<?xml version="1.0" encoding="utf-8"?><!DOCTYPE svg  PUBLIC '-//W3C//DTD SVG 1.1//EN'  'http://www.w3.org/Graphics/SVG/1.1/DTD/svg11.dtd'><svg enable_background="new 0 0 1000 1149" height="1149px" pretty_print="False" style="stroke-linejoin: round; stroke:#000; fill: none;" version="1.1" viewBox="0 0 1000 1149" width="1000px" xmlns="http://www.w3.org/2000/svg" xmlns:xlink="http://www.w3.org/1999/xlink"><defs><style type="text/css"><![CDATA[path { fill-rule: evenodd; }]]></style></defs><metadata><views><view h="1149.43897263" padding="0" w="1000"><proj flip="auto" id="robinson" lon0="-56.1148145331"/><bbox h="70.06" w="61.0" x="-859.26" y="-100.81"/></view></views></metadata><g class="" fill="black" id="country"><path d="M486.062808,1147.438973L502.093279,1142.010499L509.906603,1132.963042L511.301658,1123.071156L510.079485,1112.107767L509.927743,1099.902569L510.748235,1096.390027L511.656675,1093.885122L512.082788,1091.373122L511.368333,1087.874772L509.577510,1084.773800L501.395246,1076.726883L492.874225,1063.982384L490.808429,1061.896146L484.345401,1056.815377L481.145160,1050.982427L479.065036,1040.182243L474.542942,1035.385315L470.066383,1034.178987L459.454854,1033.455190L456.688733,1031.354760L457.460375,1026.259797L460.455239,1018.127726L464.249932,1010.236921L467.469767,1005.851563L470.469721,1005.070997L472.677976,1006.220557L474.806673,1007.682343L477.535513,1007.909417L480.445369,1006.405055L482.337630,1004.191088L489.595354,992.184573L490.917491,987.387644L491.257410,975.196631L493.998641,963.502341L495.931333,958.677027L497.464473,957.130088L500.387703,956.065680L506.155855,956.661748L511.480739,960.096237L524.482774,972.386595L528.547484,974.657331L545.608766,979.454261L547.906824,980.859278L549.676572,983.271935L552.384951,989.275193L554.896095,991.574313L559.685952,992.709681L578.899798,987.288299L587.959741,982.533946L593.047297,982.562330L597.673910,983.271935L611.491766,981.866918L620.462380,982.023031L629.841778,983.385472L638.561368,983.569969L645.527656,980.178058L647.599962,975.948812L648.324403,970.924809L649.746235,965.801461L653.878691,961.302565L658.086372,959.372439L662.390357,958.989253L666.201659,960.578768L668.987701,964.580940L674.639954,964.978319L694.281269,948.103911L702.576171,947.323346L703.678593,949.877924L702.749014,955.114809L704.595946,957.342969L706.522265,957.584235L708.577016,956.761093L717.419616,951.978355L726.901489,942.994755L731.803100,939.517690L741.782662,935.032986L746.101959,934.465302L747.376820,937.190185L745.730331,940.865939L740.963482,946.244746L740.118057,950.019845L741.107922,952.574423L764.561934,978.858192L773.812748,982.661675L785.856839,978.631119L790.014446,976.114595L793.852375,973.791613L797.921795,973.592923L803.189270,975.934620L806.436403,978.035051L807.502845,979.269763L807.581274,984.790490L807.909546,986.394197L808.901713,989.360345L809.180981,990.893092L808.756114,992.596144L807.590746,993.036099L806.319336,992.993522L805.663503,993.291557L804.200270,998.471672L806.288229,1004.716195L806.561334,1007.639767L806.255526,1010.293689L806.814303,1012.507656L809.612230,1014.111363L814.363330,1014.934505L819.089957,1014.792584L823.771761,1013.799137L828.362784,1012.110277L832.333655,1006.745665L835.852224,1006.050252L843.959713,1008.860287L848.717204,1008.292603L851.482070,1005.894139L858.270901,987.174762L860.736952,985.585247L863.353621,983.981540L868.705763,983.910580L872.373480,983.314512L875.299482,981.994646L887.090608,968.852762L891.108624,962.196667L900.966441,935.103946L909.769113,915.518844L927.840719,888.482884L929.798652,884.267828L933.834088,871.494932L935.499047,869.224195L938.434492,867.435989L935.286518,864.469839L933.800047,862.610672L933.416067,860.765698L933.625156,857.884700L934.552931,854.734052L937.988052,849.184938L938.753530,847.567037L940.644453,839.165308L940.593472,835.390206L939.310352,834.936059L936.697249,831.544144L935.457815,827.683890L938.282430,825.838916L939.388175,824.135862L939.039008,820.261416L937.658303,813.647891L937.144416,812.909901L934.907506,811.064927L934.397609,810.837853L934.949097,809.333489L936.054654,808.411002L937.167977,807.772356L937.768316,807.091135L938.430061,801.286561L937.959145,795.070415L935.382962,791.110815L929.740687,792.090071L935.003728,778.167606L938.480797,771.994035L947.551272,759.788814L953.985363,748.704770L962.219628,742.132209L962.359856,742.020282L965.050491,737.251730L966.787783,731.865820L967.450260,727.054691L968.644222,723.357644L977.638318,713.004491L981.797129,702.012691L981.390391,681.242517L983.547070,669.704319L985.605415,663.481071L986.035203,659.280201L984.647424,655.817322L981.327050,651.886102L979.153306,650.913941L976.589388,651.360994L973.903583,652.290578L971.300605,652.815687L971.194157,651.162304L965.718024,641.398119L961.144918,621.912323L958.698153,618.896495L953.839288,610.466368L951.309038,608.543334L943.096126,605.775868L940.355881,604.349558L938.985290,603.341916L936.596205,599.985477L934.384979,594.606658L932.632452,591.385043L931.790149,591.541157L930.809570,589.192358L926.305616,586.403603L920.558865,573.722929L918.969121,571.799895L915.649001,568.727297L914.083493,566.229480L911.670381,556.713651L910.196552,554.038433L902.089406,545.594109L899.878924,540.988760L899.705407,534.176532L900.795177,529.904697L904.247402,520.410153L905.034432,516.273143L904.212721,510.610477L901.754745,508.361022L893.665968,505.877396L890.708105,503.585365L887.955972,499.845734L887.089882,495.162326L889.852790,490.031865L891.504895,485.327168L891.427128,478.344631L889.537352,466.501281L882.521968,449.080415L878.956601,419.461388L879.797446,412.507231L884.814144,402.452087L886.057893,397.719002L886.306569,386.471715L885.939626,383.257190L883.121685,374.280648L883.071858,367.539370L884.015631,362.295366L884.045407,357.619047L881.279529,352.552444L878.972026,351.048074L876.498153,350.260409L874.566646,348.741847L873.861308,345.044788L874.632910,311.132599L873.194166,307.265233L872.832853,304.462279L874.009248,301.758670L880.574587,296.642391L881.747375,295.187693L882.316550,291.135827L880.454017,280.186564L881.239615,275.471067L882.829956,271.142450L887.472726,263.152247L901.099729,246.263540L901.940674,244.567573L902.601976,241.459483L903.719719,239.706747L907.520043,236.733482L909.128715,234.867209L912.190550,223.932124L915.045472,219.466867L917.390037,215.799996L927.886462,203.914031L947.321119,188.352286L952.191750,182.137894L952.190765,182.138280L962.904835,164.034844L964.480176,158.782612L965.527752,156.212371L967.861171,153.452156L972.159802,149.306244L976.710720,143.294115L979.890040,136.957911L982.753767,126.196421L986.647096,104.930555L988.197907,93.998012L991.090965,88.596074L997.172706,76.087879L999.564626,73.028231L998.299539,68.130699L992.751018,55.440716L993.215088,52.572292L991.886308,49.797974L989.375297,48.717540L988.030135,46.474718L981.891098,46.966940L978.912336,45.778049L973.374394,45.104671L956.094894,39.456340L936.096873,32.067988L912.999768,26.864509L883.370346,19.390376L834.711341,11.639660L825.317676,9.719339L814.986604,8.412283L810.603275,7.227736L752.471716,4.992743L744.989146,5.072204L735.164481,5.746684L727.486376,7.227736L720.712913,10.251027L718.535858,11.804328L716.852653,14.681983L718.219080,16.536484L719.050686,19.419625L720.767413,22.369816L724.883173,25.521157L729.740626,28.191974L743.673205,32.762535L747.381860,34.908129L750.959032,38.338844L754.604244,38.535489L758.514798,36.028481L761.899408,36.885556L765.550069,39.547315L771.107494,38.971367L773.933475,37.061692L776.230444,35.029489L778.445661,34.651105L781.619729,35.366302L783.549263,36.584374L785.403089,38.450593L786.993054,40.618537L788.029579,42.853530L783.833508,39.333416L781.434985,37.958895L779.153513,37.400146L776.298013,38.092994L774.631538,39.679839L773.264232,41.512534L771.338048,42.853530L768.929504,43.792227L766.857279,44.295101L764.808517,43.881627L759.485454,40.126838L757.600715,40.618537L755.593362,42.048933L752.409812,42.853530L747.532680,41.691333L739.695481,35.343166L734.344163,35.366302L733.023665,37.476029L732.632749,43.607356L730.217110,49.729557L723.476121,52.240502L723.166370,52.408126L726.858582,47.909031L729.969540,39.866564L728.203967,35.813301L723.489729,31.780417L719.433110,28.396342L715.496934,28.806597L712.345620,30.287890L709.544661,31.357595L706.146741,30.982433L703.627294,30.583417L701.558145,30.583417L699.553876,29.979969L698.801262,29.745294L696.420812,28.069049L693.987951,25.755831L691.487647,23.386738L689.808624,22.403341L684.717678,20.555628L680.932954,18.736826L674.268150,13.420243L660.057001,10.353162L601.465917,7.048937L591.470634,7.227736L579.210924,8.337214L557.146267,9.419732L551.255801,9.780353L545.494711,11.469043L541.071628,13.352662L537.456242,16.376158L535.022807,19.213043L531.722816,22.994948L529.997218,25.813989L525.913930,31.605418L524.716501,35.719970L525.371402,41.209938L528.656812,44.421445L531.497041,44.277072L534.465664,44.121903L536.832938,46.581069L532.959776,52.126672L535.407550,58.878432L539.317806,69.237625L539.982031,74.054035L539.920534,83.351607L539.396704,87.642794L538.014874,91.967505L536.319943,91.967505L536.211547,91.967505L536.820309,68.265403L535.496015,64.600014L532.087032,62.297971L527.838561,56.825791L512.582888,55.163717L503.280285,51.469429L498.317221,50.488105L492.445913,48.667640L482.562171,44.909724L466.349802,40.909086L458.854636,38.674417L450.707564,36.023440L439.404110,32.699763L427.017459,32.105916L411.812763,27.525275L385.712610,20.604617L374.340470,19.449020L369.738993,18.076850L365.361316,15.908799L357.996020,10.532567L353.908074,8.749407L343.485396,8.069783L324.600402,7.158469L312.583047,7.145185L303.746949,6.024758L288.873798,2.007971L282.222361,0.000000L282.222361,0.000000L280.428469,0.665118L277.749269,3.696447L275.292266,4.199320L272.890968,5.193892L271.496660,6.479014L268.318174,10.356727L267.173308,11.161325L265.887570,11.708898L264.593046,12.949319L262.884715,14.189741L257.317701,15.296062L255.255216,16.882908L253.830076,19.319050L252.742305,22.403341L246.007826,34.372865L243.005695,41.945013L239.821358,53.122443L239.099420,59.984753L237.193015,69.114701L235.357046,95.152370L228.762841,124.821901L227.094730,128.744313L224.741717,132.096802L221.393060,135.080517L213.541050,138.433006L211.322473,140.779748L207.912160,144.635110L205.520314,150.359766L204.645176,154.723868L204.219432,160.613631L203.092065,167.035602L200.489749,171.420992L188.371537,184.825525L186.319380,187.770406L185.417076,190.786248L186.316626,193.333748L188.469592,193.333748L192.002519,191.722933L194.426376,192.397063L195.955624,192.311910L196.712375,193.078288L196.606295,212.259043L196.990294,214.423353L198.166924,215.927725L200.277931,216.608951L202.376194,216.296723L204.007881,215.118770L204.691848,213.295073L202.296588,209.967003L201.111289,207.313062L201.602881,204.680410L203.677052,203.332151L206.434812,203.176037L208.842202,204.013377L209.838824,205.702248L210.019275,206.252023L211.548543,210.910784L219.345505,222.016177L221.023918,227.515653L219.739807,231.340449L216.706570,234.526596L212.826847,237.017326L209.015128,238.784254L207.836056,233.320260L205.841169,230.474725L202.801029,229.396119L198.499049,229.225812L195.729911,230.843722L194.045862,234.640134L192.235528,242.530994L188.401508,251.791398L187.573624,254.906584L187.183579,258.546881L188.197181,261.619491L196.814219,270.645723L194.346479,272.242344L192.361510,272.015269L190.493540,271.099873L188.388949,270.645723L184.932678,271.199218L182.819597,272.114615L180.989071,273.249990L178.369501,274.399557L172.227753,276.237445L153.006361,278.462215L148.890561,279.874336L145.753127,280.186564L144.172902,279.278265L140.552363,275.300761L139.272485,274.399557L133.041458,274.768554L127.455995,275.868448L116.721137,280.186564L107.321849,275.499452L98.205817,276.095523L89.969699,280.612330L83.298442,287.694225L79.463903,295.514113L76.585980,298.011936L70.628994,298.941523L67.615895,298.260299L65.319170,296.954619L62.996585,296.195338L59.932986,297.068156L58.057585,299.012484L52.897794,308.315453L49.518690,312.892429L44.968769,318.257069L40.922027,324.565489L39.033597,333.797495L40.770363,337.579708L44.758595,339.900127L48.704649,342.937251L51.676743,354.234216L57.950977,363.629429L59.851480,368.483149L59.389870,373.691673L57.336211,378.460240L52.836602,385.542128L48.676398,399.521406L44.387287,407.298709L39.645144,419.503965L37.643585,428.601137L35.268834,432.198848L32.408114,435.697214L29.919039,439.919380L28.839302,444.943403L29.504073,449.264913L30.723320,453.444502L31.295699,457.993087L30.624901,464.904665L28.936461,470.326066L26.138408,474.988187L4.486993,499.412874L0.987700,505.252942L0.435374,510.936896L3.229270,522.766049L5.885967,546.119219L8.067602,555.819546L13.761350,564.178716L29.400926,578.413430L33.235110,583.643233L45.092678,604.023139L49.992422,616.526409L50.910187,621.798786L51.304582,634.259477L52.626298,640.056962L55.240528,645.151937L59.214866,648.061323L70.952240,653.624638L80.061793,660.323322L80.898703,662.310220L82.017269,667.121351L83.865382,671.173204L84.058791,672.152461L84.352996,673.103333L85.415553,674.472873L86.581794,675.040558L89.179522,675.437938L89.676755,676.261081L90.606129,676.771998L95.588498,680.100051L99.458952,685.187928L99.012497,690.041635L95.170542,698.138242L95.173156,699.926449L95.632977,703.325463L95.459236,705.170439L94.135151,710.130586L93.940680,712.408422L94.386214,715.282327L95.375714,718.539418L96.163106,719.937342L97.331144,721.086904L99.367175,722.051969L106.176924,723.641486L110.211567,726.224452L110.261755,726.256508L117.699719,731.007197L120.327065,731.851628L122.564360,731.468441L125.035042,726.075435L128.141228,726.770849L131.195974,728.849995L132.563872,730.042133L134.516358,730.141477L136.413060,730.538857L137.838264,731.354904L138.375052,732.774116L139.191261,733.994638L141.029934,732.830884L142.781752,730.964621L143.400650,730.042133L150.291597,728.041044L152.028748,725.635479L151.860780,720.661140L159.443556,724.414956L165.877491,726.671504L172.378264,725.422597L180.175234,718.624571L185.933923,732.660579L186.612768,736.513739L185.869655,746.050844L185.486712,747.768090L183.418000,751.202583L183.914129,753.487514L185.388091,755.744061L186.191705,759.022440L185.818064,762.286627L184.410897,767.935090L184.148624,771.298621L184.644487,774.321542L187.134691,780.665418L186.397761,783.986373L184.791998,786.171959L184.308317,787.974357L186.961792,790.202519L189.384236,790.656667L191.805700,789.776756L193.951827,788.187239L195.624193,786.469993L196.060343,787.293136L196.106095,787.534402L196.266406,787.676323L197.084343,788.173047L193.243307,796.219976L195.358712,801.229792L199.465790,805.586771L201.625299,811.689380L201.851028,813.804004L202.942420,817.281072L203.156562,819.353120L202.347506,820.474297L198.955485,820.275608L198.161708,821.240671L198.529520,824.561626L199.189262,826.960092L199.301997,829.117293L197.980002,831.643489L195.938227,835.219901L198.998205,837.235181L207.038210,838.200244L208.133297,842.273380L205.423204,846.133634L201.580855,849.539740L199.278941,852.264625L202.258702,866.470926L203.200951,869.309347L205.123657,870.473100L205.857358,873.056064L206.892140,875.624835L209.779595,876.802780L212.057280,876.220904L216.961857,873.652132L219.841254,873.056064L221.502822,874.858462L217.153760,884.750360L218.672498,889.930479L219.484701,889.306026L227.803259,887.886815L230.125289,889.178297L229.525143,892.158639L227.801816,895.635705L226.805149,898.360589L228.012533,901.951192L234.157186,909.444623L236.482487,914.482820L237.764487,925.297203L239.668787,926.915103L244.757108,923.693496L246.343431,927.198945L245.640993,930.434744L244.431939,934.025346L244.522121,938.694548L245.661540,941.178166L251.664911,949.253472L252.072847,951.254558L250.653731,960.507808L252.181556,963.062385L255.622855,961.728328L260.635209,957.612619L262.614280,960.153005L262.243201,963.147538L261.006950,966.184648L260.465630,968.852762L261.192415,972.627861L262.303133,975.040518L266.257060,979.255571L267.389381,981.923686L266.915033,984.776298L265.296953,988.721701L267.072792,993.703127L275.627398,1002.275154L278.246596,1008.406140L277.974862,1018.298032L278.980546,1020.753264L281.212213,1022.030553L286.791473,1023.208497L288.935091,1024.514170L291.937641,1029.850398L294.158801,1041.956255L295.919857,1047.945318L297.576981,1056.134156L320.439777,1093.572896L327.043579,1096.659676L350.813831,1097.099631L359.889675,1102.492626L361.214266,1104.834320L362.914391,1106.714772L364.940216,1108.105597L370.006064,1109.957665L372.112957,1111.901981L373.559459,1114.562998L374.316664,1117.749123L386.869148,1122.943427L390.406304,1123.766569L394.937413,1123.227269L402.080275,1121.247473L406.735288,1121.871925L411.396103,1124.107179L420.031951,1130.422659L424.593514,1132.608240L428.435364,1133.119155L440.126170,1132.324398L455.714367,1136.929731L470.825110,1143.855470L486.062808,1147.438973L486.062808,1147.438973Z "/></g></svg>