<?xml version="1.0" encoding="utf-8"?><!DOCTYPE svg  PUBLIC '-//W3C//DTD SVG 1.1//EN'  'http://www.w3.org/Graphics/SVG/1.1/DTD/svg11.dtd'><svg enable_background="new 0 0 1000 1160" height="1160px" pretty_print="False" style="stroke-linejoin: round; stroke:#000; fill: none;" version="1.1" viewBox="0 0 1000 1160" width="1000px" xmlns="http://www.w3.org/2000/svg" xmlns:xlink="http://www.w3.org/1999/xlink"><defs><style type="text/css"><![CDATA[path { fill-rule: evenodd; }]]></style></defs><metadata><views><view h="1160.01525317" padding="0" w="1000"><proj flip="auto" id="robinson" lon0="-56.1130444309"/><bbox h="69.61" w="60.06" x="-859.09" y="-100.5"/></view></views></metadata><g class="" fill="#000" id="country"><path d="M490.673935,1158.015253L504.663769,1153.874478L513.062709,1145.388612L515.332424,1120.516715L517.100585,1102.972899L505.809099,1087.472229L491.722984,1069.887549L478.820299,1047.957774L463.123733,1041.746608L465.324003,1030.454817L475.734732,1018.795258L486.338075,1012.352534L492.548829,1004.438744L499.589132,975.221737L504.079584,970.073005L508.560381,968.819875L513.848411,969.895932L524.128147,977.455578L563.986850,1000.706595L581.681783,997.192382L649.160217,991.090182L659.541957,977.659893L673.862851,974.622414L698.282348,961.273849L707.869534,960.361244L716.373136,963.589417L727.199200,961.042293L743.272377,948.592713L749.979011,947.285098L752.299993,961.042293L762.399197,975.262600L774.646932,988.365985L780.617624,991.389843L801.569888,987.153718L812.511117,990.804141L817.090216,1002.994920L818.301516,1013.632906L826.934291,1022.636374L838.165465,1022.854310L841.038458,1020.334428L850.013153,1018.441112L858.014530,1018.236797L870.708578,997.927915L891.466619,985.260401L928.286256,914.908013L943.818821,885.854444L945.899203,869.958748L950.718682,836.832493L943.411612,796.500725L947.321750,785.181675L978.924256,736.486597L992.606471,709.925639L993.917056,687.055969L998.035616,670.588169L994.398466,661.979691L987.472701,659.473425L976.122018,638.115678L968.878359,620.408361L948.387446,602.278789L934.462538,583.686100L911.884980,540.997820L914.495047,517.024816L908.027465,508.402706L901.011702,499.603522L901.768971,488.747562L897.471641,461.900510L891.945155,436.687976L890.091660,420.792226L896.485098,393.454800L893.676821,363.052631L886.429792,347.061523L884.878887,322.734330L886.940385,300.927025L893.736358,288.627213L892.780119,273.375085L923.580498,224.856829L946.749345,196.729309L967.943814,176.992367L987.479291,137.028117L996.697961,107.279671L999.568599,76.141872L996.045259,51.760129L974.706609,38.248011L922.493631,23.319300L805.603007,1.430214L728.264420,0.000000L671.150863,11.387229L605.221984,2.111268L560.813597,8.867327L540.203848,28.127544L543.041296,55.233506L541.833975,82.053423L532.207802,55.233506L460.044349,30.157086L403.756432,15.541660L280.254442,0.163453L258.494996,15.282859L245.887511,45.766851L237.473140,71.483461L235.614079,97.540596L224.622162,129.591006L221.651456,124.142573L208.128603,141.768253L205.475797,152.951161L196.513002,172.810695L189.680851,183.584969L198.634051,208.293602L209.515409,209.383288L213.581261,212.543378L216.199850,217.378860L215.456582,222.622973L211.146486,227.335865L200.557286,233.329137L190.292113,247.604021L190.842779,263.309115L184.430014,271.508998L164.354311,275.854119L125.291861,275.881361L106.089323,276.943804L90.703725,279.623696L80.384547,289.825866L67.390216,296.922436L57.304085,298.597825L48.111550,310.434520L38.859972,327.229276L41.575213,338.698200L50.315861,354.035499L55.326245,369.699701L47.659961,395.102946L39.437522,414.717243L34.547064,429.686763L27.719965,458.468010L11.990670,490.123286L0.817857,508.130286L0.431401,527.730942L5.256266,555.545072L35.042398,596.067605L44.769987,615.436690L52.472384,646.478980L79.629157,670.942315L96.692865,690.720020L94.546443,716.845110L96.697601,724.990470L107.404673,731.569415L120.390106,736.622807L134.934803,736.214177L147.950885,733.993954L151.051083,730.316283L181.083381,729.853169L184.337431,736.404871L185.366002,773.998835L186.314081,789.213491L193.333397,795.356561L197.434477,804.673323L197.547899,813.131962L198.547400,834.190020L202.804382,845.263888L201.710327,867.738526L204.638009,875.979226L212.854539,881.563832L223.050865,897.663842L226.962238,899.693369L228.901740,905.386942L237.504908,928.311064L241.954650,935.162421L245.137919,936.170374L246.360242,944.125029L252.524505,965.550839L256.834225,970.835780L264.993487,986.568016L268.121176,1003.716832L278.944806,1023.072245L290.059676,1036.693225L294.965263,1050.777317L309.006440,1081.955734L322.714387,1103.831021L341.648254,1109.538209L357.500441,1112.589308L367.331923,1121.034312L376.964355,1130.146743L384.317222,1132.884559L400.793026,1135.240987L439.760718,1145.987935L490.673935,1158.015253Z "/></g></svg>