<?xml version="1.0" encoding="utf-8"?><!DOCTYPE svg  PUBLIC '-//W3C//DTD SVG 1.1//EN'  'http://www.w3.org/Graphics/SVG/1.1/DTD/svg11.dtd'><svg enable_background="new 0 0 1000 835" height="835px" pretty_print="False" style="stroke-linejoin: round; stroke:#000; fill: none;" version="1.1" viewBox="0 0 1000 835" width="1000px" xmlns="http://www.w3.org/2000/svg" xmlns:xlink="http://www.w3.org/1999/xlink"><defs><style type="text/css"><![CDATA[path { fill-rule: evenodd; }]]></style></defs><metadata><views><view h="835.545502106" padding="0" w="1000"><proj flip="auto" id="robinson" lon0="29.1210754167"/><bbox h="146.32" w="175.33" x="356.1" y="-204.85"/></view></views></metadata><g class="" fill="#000" id="country"><path d="M572.399993,833.545502L572.741501,832.044828L574.545448,827.932782L580.015197,818.748553L580.386407,817.625514L580.635804,816.522222L581.051443,815.483103L581.973691,814.555054L582.854382,814.209504L584.523646,814.256400L585.380521,814.123117L586.519855,813.525808L589.090871,811.190876L589.871140,810.830517L591.470543,810.472625L592.224878,810.132011L594.457202,808.138164L597.552570,805.373291L599.744974,804.677254L603.727210,804.682190L607.183974,805.225198L610.508639,806.417346L617.527878,810.704638L628.372445,817.339201L629.918861,817.699561L630.817749,816.793967L630.901285,816.709807L631.870507,815.320201L633.342507,814.478540L642.075139,813.024760L643.609131,812.279359L644.384286,811.472253L650.996573,802.929757L651.173253,802.381813L651.435345,802.441050L653.142090,803.333479L653.644487,803.596175L655.661703,805.491765L661.752254,813.093870L662.989469,815.389311L663.327947,817.200981L663.634245,821.596873L664.236108,823.213554L665.393955,823.892313L672.024231,824.354141L672.693607,824.400766L673.658649,824.980796L674.750037,826.918851L675.320991,827.932782L676.627404,829.440861L678.057060,830.272649L683.368937,831.484543L684.392427,831.440115L684.936697,830.613263L685.046048,830.007964L685.289815,828.658437L685.290812,827.177508L684.886683,823.759030L684.964331,822.522454L685.947569,821.226641L701.341235,810.536799L705.020279,809.559385L720.492572,808.127820L733.727707,806.910989L740.774783,804.497074L747.351809,800.688616L752.414913,796.386514L753.897597,795.781801L755.593288,796.579035L766.355225,806.427219L768.136688,807.481147L770.753305,808.053774L778.439735,808.485711L792.007880,809.265667L795.652856,808.752279L798.753261,806.680881L799.162478,806.407473L805.280942,799.358247L813.236153,790.188822L822.524314,779.494036L829.367232,771.630293L836.096352,763.860341L844.489877,754.293525L852.872230,744.734110L861.251963,735.167288L869.637992,725.605401L876.198342,721.741320L882.005647,718.320533L887.773962,715.024742L893.467954,711.771204L901.619975,708.390905L908.417298,705.474612L914.788546,702.740985L921.646234,699.798505L929.314761,696.507934L936.171712,693.565452L941.993968,691.066866L943.532321,694.235898L949.387617,690.535592L955.901169,686.420133L957.803111,688.955361L954.746051,696.348586L963.132702,696.348586L969.501011,698.461274L965.576851,710.292324L969.086914,717.296676L973.256708,725.619234L973.383736,725.668544L980.861553,728.571278L981.281332,725.673349L981.288462,725.624118L981.700590,721.645883L984.023219,719.781353L987.317097,720.047715L987.633367,725.627980L993.981339,725.658407L999.400871,725.684384L987.707776,711.847533L985.584441,707.878631L984.809480,703.233437L984.863654,683.261751L985.271484,682.030106L988.422620,677.416991L989.080965,675.501647L989.033056,673.534471L988.248524,671.241488L986.520190,667.623067L986.229956,665.766960L986.761154,663.543087L988.983678,659.793850L988.552289,658.942311L983.905406,656.923301L978.306428,653.060525L976.162813,652.408913L974.610746,652.823575L973.116874,653.615876L971.121753,654.097180L969.065587,653.467782L965.382245,650.148016L963.446524,648.874410L961.933194,648.432597L960.170247,648.173433L958.393983,648.173433L956.884271,648.511581L955.051695,649.911066L951.687771,654.163823L949.812968,655.662037L947.780839,656.010057L946.217997,655.183201L944.939179,653.586257L942.092690,648.634992L941.747976,647.753835L941.825396,646.586363L942.409978,645.557112L943.125685,644.562416L943.613622,643.481332L943.229943,642.343478L942.581353,640.423197L939.286588,637.451450L932.468098,632.993829L928.656959,629.859179L927.748211,628.017880L926.927999,622.474238L925.685564,619.927026L918.691750,608.982898L917.821642,606.872562L917.653139,605.616233L917.792679,604.567236L918.044677,603.476279L918.205266,602.121221L917.926570,601.052478L916.514738,599.364209L916.071139,598.327553L916.087616,597.214381L916.365781,596.135765L917.220198,594.111817L917.048951,593.018809L916.246575,587.899284L915.545347,586.040708L914.075339,584.016760L912.454775,582.360578L911.023068,580.548898L909.351624,575.871604L906.285133,570.039178L905.834959,568.128769L905.678157,562.501207L905.096161,560.023106L901.625010,553.514387L900.878170,551.589168L900.095292,546.085019L898.129477,540.642576L897.191718,536.784735L896.279109,532.887404L895.688798,532.472741L894.647607,531.162112L894.207680,529.409671L893.675874,528.368079L887.874458,524.078300L886.427393,523.436560L884.586967,523.182333L880.993368,523.177397L879.499022,522.812099L878.507924,521.876641L877.864106,517.964501L877.752483,517.559712L877.352264,516.584762L877.254948,516.007197L877.435986,515.913404L878.207970,515.293879L878.385916,515.027311L878.230571,513.153927L877.843925,511.485406L877.252329,510.034089L876.498860,508.775293L870.992740,504.490452L859.015763,501.271886L858.748442,500.921398L858.168997,500.630147L857.577821,500.171057L857.121638,498.517346L856.702390,497.944717L853.205475,495.081576L852.348195,493.862272L851.816097,493.304453L851.159248,493.062567L850.489656,492.119705L850.241592,489.962477L850.222805,488.932607L850.168164,485.944207L849.723381,483.984436L848.892076,482.296171L847.729497,481.516212L846.342881,482.271488L844.775561,482.661468L843.132757,481.308881L840.776653,478.065634L836.851525,474.649613L836.306939,474.363299L836.089149,473.874590L835.880024,464.959368L835.236975,461.735870L833.743904,459.109681L823.071100,447.059824L820.526058,445.391307L819.643379,445.164230L817.899545,444.927281L817.059979,444.680459L812.748565,441.131158L810.007335,436.930248L808.853703,435.493744L808.045062,435.044528L805.376319,434.185588L803.048046,432.487453L802.156141,432.230758L796.706250,432.813258L794.890707,432.230758L793.994195,431.505102L792.795686,429.767476L791.961822,428.908536L791.113788,428.444511L789.560743,427.945931L788.795785,427.279512L787.336314,426.672330L785.164123,426.761186L781.545526,427.605317L780.805536,428.015041L778.765462,429.560146L777.700797,429.589764L773.001160,428.242117L771.450049,426.701949L770.095046,424.959387L768.775163,423.690722L768.057607,423.453774L765.318193,422.979876L762.897318,421.883987L762.185912,421.740830L759.473048,422.426995L759.042617,422.654071L758.544660,423.443901L757.419473,423.261253L755.540876,422.328266L753.257243,422.041953L752.660222,421.740830L752.344684,421.153395L752.071499,420.279646L751.730059,419.475007L750.259288,418.497593L749.517861,417.011726L747.274070,410.648663L747.571331,409.607076L748.657810,408.239685L748.719426,408.087247L749.076817,407.203034L749.467482,406.724200L749.863292,406.062719L750.198125,404.053591L750.605507,403.095924L751.642937,401.457029L756.308138,395.957847L756.794590,395.054481L757.175379,394.084473L757.333325,393.277367L757.671514,392.793597L760.183363,392.324637L761.620076,391.561959L762.652945,390.601824L763.287123,389.266521L763.475476,387.373401L763.204500,386.862481L762.038502,385.934434L761.767418,385.418577L761.766733,384.078338L761.886521,383.113267L762.208151,382.244456L762.830096,381.180657L763.564846,380.541390L764.345591,380.245205L764.926676,379.746626L765.019142,378.510052L763.878412,377.979387L763.103319,377.475872L762.464653,376.409605L761.859221,375.698760L761.249497,374.775649L760.957235,373.647677L761.107957,372.934364L761.801641,371.135039L761.969265,369.972512L761.814779,369.641772L761.046075,369.027188L760.857418,368.726067L760.907767,368.210211L761.311815,367.563540L761.398575,367.129135L761.356954,365.514926L761.480998,364.779400L761.849658,364.105579L762.992825,363.478654L764.255793,363.184937L764.868535,362.548140L764.605082,361.992793L764.519054,361.612689L766.886038,359.218527L768.358592,358.976642L777.540394,361.257267L778.333902,360.961082L779.468905,359.946648L780.091426,359.578885L780.767826,359.504839L781.864378,359.783746L787.515482,359.026007L788.295938,358.522492L788.323571,358.179411L787.839352,357.463631L789.549793,357.379712L790.985490,358.292949L792.278512,359.450538L793.560139,360.060186L795.152799,359.744255L796.331993,358.981579L797.558890,358.423764L799.273233,358.734758L801.954560,361.237521L803.673902,364.505429L805.766424,367.124199L809.602331,367.677078L810.511611,367.514176L810.874012,367.385829L814.288986,363.996978L815.152899,363.328093L816.486400,362.671550L817.885468,362.242082L820.763178,361.864446L825.517065,361.844700L827.071395,361.360931L828.767879,360.198405L836.898197,351.769478L838.589700,349.582647L839.629386,347.403221L839.927096,345.281750L840.262400,342.891342L838.448554,315.257670L836.615708,287.624065L835.019406,263.793045L820.745617,263.726417L820.482174,263.603008L820.228167,263.326571L819.982900,262.867488L819.690320,262.243037L819.014236,259.530500L818.601874,255.307435L818.949379,248.006548L820.503887,239.328421L825.603761,227.135618L825.852560,226.128602L825.912365,225.558453L825.896119,224.896982L825.339134,222.724987L824.667678,220.844238L824.284811,217.998432L825.065112,211.669123L825.107278,209.706932L824.913810,207.179531L824.452615,205.577692L820.423373,195.023828L819.130999,193.350414L800.516555,176.544718L781.899584,159.739045L775.015175,150.631556L774.282992,150.007113L773.372169,149.518419L754.713130,141.869613L753.794947,141.099550L753.882429,139.974072L754.416663,138.520330L756.516210,134.102338L756.797428,132.932434L757.062168,131.145492L751.940349,95.738627L746.784235,60.331738L746.770246,58.937230L747.120745,58.011672L747.416490,57.443996L748.473958,55.935953L749.386732,54.373611L750.400033,51.646298L750.656386,50.622013L751.426725,37.970236L751.012391,26.888195L755.322351,8.411517L755.602513,0.552870L715.566645,0.000000L715.331968,0.404780L715.320576,0.888541L715.436877,1.441411L715.511043,2.033772L715.522365,3.272792L715.266257,5.560784L715.224642,6.772654L715.300606,8.006738L716.043719,12.434629L717.195556,15.764183L717.397436,16.872389L717.485456,18.086726L717.423612,20.387055L689.574155,20.526506L661.724614,20.665957L684.576517,48.435226L684.852647,49.002902L685.285429,50.510946L685.472814,51.619148L686.163896,61.390577L685.409807,76.851093L685.937811,86.790343L687.405104,93.244560L693.722077,105.948135L693.395194,108.320029L692.078604,111.313896L672.801643,130.194020L653.507479,149.074152L652.458963,150.853690L647.335831,166.595580L642.335675,175.754908L640.069164,178.378560L631.190833,191.230264L613.605933,211.381582L596.004085,231.531443L590.147307,234.236567L572.180944,235.339843L572.153695,235.340691L562.671021,235.636024L561.596683,235.939610L559.992514,236.630700L559.025584,237.674740L557.870420,238.452217L556.701974,238.030158L555.332070,236.934287L532.597716,214.365280L512.473127,200.111944L492.348404,185.857080L488.614288,188.451116L466.476694,200.708005L461.920081,203.889468L459.412974,206.140433L459.580721,219.864372L455.819170,226.846842L448.904377,234.458703L429.620672,239.283994L419.616612,243.433006L409.426746,249.593589L407.777824,251.136204L401.534290,256.682293L396.235280,262.712760L394.578580,266.383481L394.543889,270.447495L394.957234,273.856024L396.041738,276.215776L395.933242,276.214716L362.418176,275.887503L328.903287,275.560289L324.768519,270.447495L315.806868,250.341449L314.950353,250.726486L313.574956,251.000454L305.287027,251.496559L294.488565,249.716998L294.020687,249.771299L292.281219,250.304426L291.796065,250.363663L284.951628,249.391198L272.942811,249.445498L269.072429,248.680362L247.334542,249.250512L215.127157,261.658077L214.229924,261.746931L209.358222,261.302658L207.249565,260.221592L203.499620,257.501652L187.254364,236.556655L171.005374,215.611708L164.498062,212.854758L164.471435,212.823979L163.259626,211.424775L162.242735,210.003111L157.046604,200.722814L156.537364,199.974961L156.231783,199.659036L155.688588,199.175276L155.451644,199.041995L153.154246,198.291674L151.866093,197.662292L148.802357,195.660613L148.139601,195.053445L147.579709,194.379637L147.350476,193.972391L147.183992,193.444204L146.386964,178.659930L146.272447,178.134212L146.094445,177.689944L145.649163,176.895197L141.898761,171.783644L141.581162,171.522019L140.671881,171.618277L136.940664,172.731416L135.198164,173.701401L134.460708,173.930940L133.785560,174.019794L130.411164,173.871704L129.926934,173.960558L128.607324,174.375208L126.700658,174.725687L123.989283,174.755304L123.509236,174.836754L119.918775,175.843762L113.765854,178.297110L113.506361,178.341537L112.458534,178.682143L111.511536,178.852446L108.132984,178.719165L107.119599,178.822828L106.168825,179.022749L104.928415,179.504040L104.142331,179.918690L103.289052,180.224742L102.288949,180.343213L101.751012,180.350618L100.764067,180.476494L100.337324,180.624583L98.791113,181.453884L98.337185,181.542738L97.851315,181.550143L96.937196,181.402053L96.469395,181.446480L95.668809,181.787086L95.215445,181.905557L94.707450,181.890749L94.210910,181.794490L93.725969,181.624187L92.871690,181.202132L92.408448,181.031829L91.402359,180.839313L90.830840,180.905953L90.235129,181.068852L89.486744,181.416862L88.928522,181.498311L87.945126,181.357626L87.463737,181.372435L85.449879,182.260972L84.489966,182.441148L82.333889,182.246163L81.439627,182.455957L80.226339,183.003888L78.915500,183.443220L78.399361,183.685100L77.812043,184.292267L77.000484,185.432557L72.996228,195.645804L72.793893,196.662687L72.743584,197.454967L72.945520,198.508872L73.084691,198.990164L73.808262,200.789454L74.086887,201.769315L74.149010,202.309843L74.133965,202.902202L74.040238,203.464943L73.180769,206.273714L71.074607,211.402561L70.623395,213.069489L69.926041,214.812020L69.238378,215.900484L68.129328,217.211084L65.888570,220.747979L64.815368,222.132625L61.947092,224.119507L59.100068,226.817224L58.392405,227.298518L57.669853,227.676149L56.761521,227.861262L55.968279,227.927903L55.665897,228.011821L55.347056,228.389452L55.071380,228.996624L54.793706,230.953889L55.383323,256.381096L55.246463,257.506588L54.671930,259.693400L49.633627,266.216818L47.240201,268.729433L46.590160,269.832713L46.046071,271.553041L44.736068,289.805314L44.653235,290.311293L44.342790,291.236866L36.962269,305.799219L36.477193,307.230773L36.409054,307.852759L36.572632,318.036546L36.113604,318.673341L35.287746,319.191663L31.189661,320.749098L23.557709,321.652459L21.648843,322.099203L12.566974,328.642404L10.042054,329.997447L5.266456,334.163773L4.769981,334.933853L4.608406,336.291365L4.243172,336.894963L5.093609,336.762791L8.220817,336.686277L9.755563,337.594576L9.585319,338.954556L8.077197,341.477061L7.776556,342.841978L8.396687,344.182213L10.713277,346.211078L11.148160,347.373603L10.588337,348.276966L7.220308,350.829091L6.393248,351.883015L1.816968,360.820394L0.857127,364.066088L0.599129,367.178499L1.466223,369.972512L3.309694,372.376549L5.615503,374.304221L7.878474,375.683951L9.216968,376.263980L12.140237,377.029126L12.657132,377.094166L14.160659,377.283352L15.377619,377.283352L15.987628,377.387016L16.627651,377.757248L18.036785,378.998758L18.484115,379.270262L23.877123,377.159941L26.775347,376.816860L28.806866,378.988885L29.158498,379.840418L29.619804,380.467344L30.234327,380.874599L31.063358,381.091802L33.742254,382.955301L36.421137,383.054030L42.307977,382.000104L47.034177,382.984920L48.677434,383.004666L50.375866,383.226805L53.069475,384.895316L57.946937,385.522242L60.653841,386.911846L67.989891,394.430023L68.838551,395.965252L69.079963,399.356578L70.831041,401.368173L71.029997,403.071242L71.501169,403.777151L72.075508,404.404078L72.744176,404.942149L73.472328,405.386427L77.590138,410.495634L80.134651,412.667664L82.706565,413.738870L83.870443,413.654951L86.469416,413.008278L87.660527,413.003342L89.735528,413.388384L90.359228,413.822790L90.785118,414.405289L91.305853,414.933487L93.447746,415.728253L94.543342,416.917934L95.382552,418.413673L96.287464,421.434771L97.576594,423.977036L98.052276,425.596187L98.133403,426.993198L97.871098,431.105251L98.213400,432.531881L98.719480,433.859783L98.991950,435.271605L98.642015,436.945057L96.781622,438.811032L91.255030,440.943574L89.490941,442.873722L89.455743,444.073277L89.851539,445.618383L91.719047,450.391922L96.770444,453.373534L97.904369,454.227538L98.444042,454.879149L99.274135,456.394637L99.778941,457.041311L100.445816,457.460909L101.861704,457.954553L102.416069,458.413643L103.104902,459.781038L103.682536,462.530637L104.154139,463.917778L105.086773,465.309856L106.212654,466.213226L110.972531,468.869034L114.290887,471.692681L116.498777,472.842873L118.103537,472.211008L119.490322,472.482512L120.755134,473.366136L124.593037,477.270866L125.935248,478.090317L131.140574,479.605806L132.725005,480.326528L134.794604,482.162887L135.476043,482.375154L137.111004,482.345535L137.951757,482.755260L139.303635,484.270750L140.238100,484.537319L142.335969,484.640984L142.799235,485.430816L142.825458,486.699483L143.612287,488.244592L144.880463,488.738237L148.670174,489.143026L150.089726,489.888430L150.456811,490.643707L150.681578,492.435638L151.085135,493.314326L153.761734,495.007529L154.617742,495.259288L156.309312,495.540666L157.158526,495.930645L157.654927,496.602003L157.708390,497.327661L157.942845,497.929908L158.930172,498.240904L162.719270,498.586456L163.270858,500.743685L163.634337,505.694947L164.472824,507.852176L164.911727,508.138491L165.441499,508.069380L165.987461,507.911414L166.474671,507.911414L166.853886,508.286584L166.817438,508.804912L166.660121,509.392350L166.702837,509.974851L167.067468,511.199091L167.221332,512.280175L167.540055,513.329171L168.416933,514.476896L170.331575,515.802334L171.860288,516.254020L173.200560,516.925377L175.869482,520.630186L179.334169,523.342768L180.766203,525.013758L183.686191,526.689684L188.691400,528.782741L192.789907,531.389189L192.920449,533.483911L192.989384,534.590481L192.366886,535.543217L191.039270,538.438448L188.421329,542.478938L186.844748,546.326905L186.131737,547.032819L185.294324,547.543742L184.510959,548.195354L183.951245,549.313462L185.551563,549.908305L185.700525,551.317663L185.254004,553.112065L185.084979,554.834889L185.684984,556.807004L186.627808,557.702971L187.906167,558.300282L189.555907,559.349279L190.968461,560.899327L193.035538,563.935248L194.634364,565.085443L198.143948,565.929577L199.489633,567.020534L199.799963,569.488763L199.855528,571.779280L200.646293,572.359314L201.872667,572.295140L203.252647,572.670311L204.377242,574.168526L204.444114,575.990079L203.674585,577.749926L202.298448,579.040810L200.778921,580.010824L199.133569,581.356009L197.779090,582.992445L197.132358,584.848553L197.453883,586.874969L198.780151,586.440561L202.149690,583.769937L203.652995,584.258646L204.605112,585.897550L205.318762,587.953585L206.176076,589.671473L207.505296,590.848818L212.465117,592.781442L215.177216,593.176358L221.127140,592.860425L227.167061,595.526112L228.699802,596.614602L229.616812,597.885740L230.158234,602.165649L230.858534,603.861322L232.829609,604.851082L234.777512,604.688179L236.180571,604.118018L237.210506,604.335222L238.038624,606.502328L239.130154,608.158509L240.898691,608.267112L244.559475,607.245265L245.478639,608.343627L246.496438,611.058679L248.071701,612.413736L248.725408,613.867523L249.279542,614.321678L250.063292,614.341423L251.588365,613.773731L252.362726,613.739175L255.924992,615.262073L256.690208,615.886535L257.310769,617.473606L257.367042,618.492985L257.785094,619.203834L259.473119,619.828297L260.674329,620.509528L261.695231,621.741174L262.423382,623.234452L262.698643,624.715390L262.748529,625.576802L262.933934,626.134621L263.335396,626.564093L264.803147,627.677264L264.879103,628.185719L264.677894,628.810181L264.567771,630.463895L264.206183,631.851039L264.270726,632.495247L264.786873,633.401087L265.232121,633.499816L265.625497,633.275207L265.942248,633.191287L266.236806,633.072812L266.694532,632.771688L267.320666,632.712451L268.138079,633.336913L268.478919,634.146492L268.316829,635.829824L268.484970,636.757877L265.190853,647.205888L265.034527,648.674484L265.223053,649.861701L265.936005,652.295374L266.449913,657.007221L266.815527,658.448666L269.134203,664.471141L270.552454,667.297261L272.301128,669.721060L277.164701,673.391313L279.489654,675.580631L280.910032,679.339740L283.380678,681.334067L284.248641,682.565711L284.411242,683.802293L283.895174,688.064919L284.362555,688.561032L284.877056,688.990504L285.442904,689.339808L286.038381,689.618717L288.699505,691.896888L289.428875,692.827408L289.748561,693.728309L290.125120,695.774467L290.589116,696.729669L292.121040,698.148897L293.827205,698.822722L301.275736,699.738433L302.786322,700.817046L303.918797,703.085343L304.626563,707.041904L305.167452,708.626503L306.285139,709.626133L306.912252,709.626133L308.535108,709.115211L309.292412,709.075719L310.090915,709.586641L310.807646,710.559121L311.377639,711.647607L311.718715,712.523826L312.056070,714.592196L311.440418,720.160504L311.650657,724.092381L312.051120,726.377954L312.678424,727.930465L313.053068,727.937870L315.123084,728.431514L315.787888,728.678336L316.659344,729.482976L318.213558,731.353887L319.187752,732.000561L319.846229,732.072140L322.250243,731.669820L322.712810,731.748803L324.149110,732.432500L324.662383,732.373262L324.858134,731.966006L324.905154,731.501981L324.972329,731.279841L324.822738,731.146557L325.176503,730.847902L325.920546,730.398686L326.349332,730.571461L327.223467,731.610582L327.791125,731.738930L328.738987,731.595773L333.089375,732.304152L333.358226,733.353146L332.958767,735.004386L332.713156,737.171483L332.781272,738.193327L332.929497,738.980689L333.186270,739.738432L333.605826,740.641801L336.239667,744.808157L337.083681,744.719301L338.458685,743.035975L339.232322,742.497903L340.596913,742.611441L341.163149,743.388930L341.523572,745.237627L343.908940,748.611683L345.487992,750.381397L347.092254,751.677212L350.416913,752.173324L354.123580,751.376089L357.671601,751.198377L360.537957,753.562932L361.318292,755.579467L361.607575,756.919710L362.318912,757.825546L364.356795,758.548734L366.262034,758.306849L368.042921,757.065335L369.583567,755.377073L372.774734,750.554172L373.979235,749.596503L375.863837,749.080645L376.665914,749.134946L377.486973,749.327467L378.306947,749.423727L379.070642,749.164565L379.648887,748.298219L379.841155,747.197393L380.151594,746.148400L381.145258,745.430148L384.610525,744.499629L385.863095,743.571578L387.112438,741.601939L390.517718,733.970201L391.265315,733.836917L392.990081,733.836917L394.132276,733.177903L394.854641,732.373262L395.572446,731.926515L396.735674,732.328835L397.976753,734.182468L398.123497,736.319947L398.554361,738.173581L400.699967,739.158401L401.579680,739.148528L404.144961,738.758549L408.147667,739.128782L409.991971,738.916515L415.088620,737.472606L415.760087,738.282183L419.863861,741.350180L420.783584,741.784587L421.034611,743.149513L421.277213,743.035975L424.641350,744.674873L425.599917,745.454830L431.037102,751.603165L432.956953,752.647222L435.074284,752.301672L435.679555,750.771375L435.902715,748.972043L436.839226,747.844067L438.911995,747.794703L440.598068,748.204427L441.987963,747.863813L443.207135,745.578241L444.042982,743.300074L444.862921,741.903062L449.142721,737.679937L450.167364,735.929968L450.841364,733.999820L451.355087,731.783358L451.900550,730.773855L453.466071,729.112743L453.610249,728.058812L453.520138,727.081397L453.761484,725.417816L453.930338,722.080781L454.621477,720.888630L455.881407,720.634403L457.697681,721.007104L458.040494,721.263799L458.923393,722.243683L459.332131,722.549743L460.634123,721.811744L461.155793,721.732761L462.117797,722.051162L464.684909,723.285273L467.220292,723.337105L468.215981,723.559245L471.757555,725.417816L472.742553,726.195305L475.211193,728.648717L476.445002,729.473103L477.086940,729.613792L478.953165,729.068315L479.513695,729.320073L481.445954,730.635635L482.304470,731.037955L483.332006,731.731525L483.056805,732.748432L482.641702,733.323184L482.259967,733.851727L481.766178,734.804460L481.845906,735.641187L482.448472,737.220848L482.589296,738.069916L482.487818,739.054735L481.772824,741.922807L481.774417,746.099036L482.795938,749.616249L485.098772,751.721640L488.961820,751.672276L490.821066,751.983271L493.011292,753.400029L494.876860,755.362263L495.722843,757.302284L495.459606,758.259953L494.834717,759.210217L494.332521,760.224655L494.424443,761.387186L495.110087,762.288086L495.997000,762.515162L496.968343,762.510226L497.968115,762.702747L499.952607,764.042990L501.271189,765.810234L503.272135,770.092593L504.558850,772.131341L505.823806,773.034709L509.374815,773.851690L511.318472,775.058648L512.211200,776.936962L512.698113,779.143549L513.481124,781.345199L515.542003,784.065175L516.102868,785.124040L516.306259,786.163159L516.326325,787.172660L516.476597,788.140202L517.096615,789.041101L518.496831,789.586577L523.982771,789.675433L529.652045,791.736394L536.534720,796.337150L539.741096,797.494744L540.492049,797.637900L542.191728,797.687265L543.000486,797.544108L543.842830,797.287414L544.686879,797.183748L545.509471,797.499680L546.687311,799.982706L548.862723,813.994769L548.830621,815.860740L548.251919,819.580341L547.793919,820.755212L547.303554,821.350052L547.273752,821.823949L548.162454,822.626119L548.906385,822.927241L549.782499,822.956860L551.448783,822.719911L552.500014,822.418789L555.140103,820.755212L556.593079,820.133221L557.571954,819.995001L559.929280,820.004874L561.712221,818.871963L563.099240,816.991183L564.403302,815.905168L565.950629,817.161490L566.300696,818.104348L566.597457,821.379670L567.187953,822.808767L568.296101,823.754093L570.931700,824.926495L572.169838,826.622159L571.376770,831.548716L572.399993,833.545502Z "/></g></svg>