<?xml version="1.0" encoding="utf-8"?><!DOCTYPE svg  PUBLIC '-//W3C//DTD SVG 1.1//EN'  'http://www.w3.org/Graphics/SVG/1.1/DTD/svg11.dtd'><svg enable_background="new 0 0 1000 1898" height="1898px" pretty_print="False" style="stroke-linejoin: round; stroke:#000; fill: none;" version="1.1" viewBox="0 0 1000 1898" width="1000px" xmlns="http://www.w3.org/2000/svg" xmlns:xlink="http://www.w3.org/1999/xlink"><defs><style type="text/css"><![CDATA[path { fill-rule: evenodd; }]]></style></defs><metadata><views><view h="1898.5039038" padding="0" w="1000"><proj flip="auto" id="robinson" lon0="6.60165092186"/><bbox h="28.1" w="14.81" x="95.71" y="-28.5"/></view></views></metadata><g class="" fill="black" id="country"><path d="M65.212989,1896.503904L75.545953,1893.878891L82.786629,1874.076156L95.886497,1891.806512L106.300420,1876.102482L116.956861,1835.391744L121.431845,1836.266748L154.790342,1835.391744L156.742806,1831.891725L172.200174,1812.227150L180.010725,1809.463978L191.157149,1806.977122L198.560708,1802.325782L191.887110,1782.799364L197.744682,1777.963813L207.019715,1775.523011L213.121590,1772.851945L241.672738,1719.614824L254.118466,1702.575262L278.603918,1676.417231L287.062984,1662.693475L295.032036,1640.772307L299.014281,1620.140619L299.416927,1602.180000L295.015857,1571.969314L284.593201,1541.159943L265.544999,1508.508455L242.348109,1480.324096L219.886649,1463.008215L180.343617,1458.863457L148.050678,1481.981999L116.816805,1511.179522L79.313264,1525.548018L71.585104,1529.784882L36.366154,1569.896936L33.927078,1577.035131L32.871138,1584.265431L28.805477,1594.489169L9.447210,1620.601148L7.089618,1629.581459L6.687390,1652.377630L4.899311,1662.325051L0.263504,1672.364577L5.879407,1683.325161L41.288225,1812.227150L44.298961,1816.417961L48.204543,1818.904816L52.273027,1823.878526L55.528304,1835.391744L55.203414,1844.602318L50.322657,1864.128736L48.695473,1865.602428L54.961077,1885.727532L65.212989,1896.503904Z M939.987512,0.000000L922.265781,8.427683L908.867482,25.559367L903.609809,47.158181L903.553783,65.625399L901.132455,79.671537L893.093309,90.263706L876.508790,98.092701L867.232744,96.342690L866.528332,117.158605L869.746923,152.158815L880.981134,158.329904L895.625422,159.435173L909.461805,164.823364L918.271239,183.106368L924.609947,178.040547L931.276297,174.724739L932.907709,178.132654L936.009839,186.514283L938.618554,190.797202L939.741539,178.501078L939.322030,168.691808L942.974262,162.198349L955.417670,159.895702L962.732793,155.106201L967.680112,143.777185L972.693764,121.303366L971.520324,95.697949L975.330268,85.842627L989.723584,81.974182L998.829188,78.059684L993.773885,69.539896L980.584416,61.480637L965.775379,58.763516L971.859153,46.283176L983.156048,38.822605L994.374824,33.710732L999.736496,28.552805L996.704675,12.986921L985.715004,7.460572L958.215714,4.605291L939.987512,0.000000Z "/></g></svg>