<?xml version="1.0" encoding="utf-8"?><!DOCTYPE svg  PUBLIC '-//W3C//DTD SVG 1.1//EN'  'http://www.w3.org/Graphics/SVG/1.1/DTD/svg11.dtd'><svg enable_background="new 0 0 1000 609" height="609px" pretty_print="False" style="stroke-linejoin: round; stroke:#000; fill: none;" version="1.1" viewBox="0 0 1000 609" width="1000px" xmlns="http://www.w3.org/2000/svg" xmlns:xlink="http://www.w3.org/1999/xlink"><defs><style type="text/css"><![CDATA[path { fill-rule: evenodd; }]]></style></defs><metadata><views><view h="609.894674207" padding="0" w="1000"><proj flip="auto" id="robinson" lon0="-88.91307309"/><bbox h="21.58" w="35.44" x="-1323.54" y="-242.23"/></view></views></metadata><g class="" fill="black" id="country"><path d="M974.384674,598.717025L974.789296,591.512403L972.034753,582.813972L966.497361,580.704725L963.271623,583.102850L963.106460,589.115537L961.720156,595.119336L963.472025,600.213796L962.984363,605.324316L966.675329,603.517073L971.833777,605.638583L975.531733,603.536261L974.384674,598.717025Z M951.217905,578.597394L954.001650,574.688994L951.908561,567.775930L948.846769,565.672175L945.298556,565.973917L942.620758,568.680374L943.306991,576.195251L948.242770,581.604154L951.217905,578.597394Z M877.823436,607.894674L892.765354,604.146199L883.868320,596.764584L886.007365,589.209960L895.009678,581.789894L927.333338,564.546880L936.217666,557.338257L940.509399,547.246181L941.022361,541.536947L940.597399,538.768833L933.309908,532.886590L920.886508,518.219419L916.203910,516.162554L909.121784,510.280304L913.356526,497.016398L927.059071,474.525407L929.286515,484.655968L930.988513,488.539028L934.047454,490.653565L934.323342,490.768904L934.327331,490.770630L968.435696,474.174685L976.404930,465.129549L977.931881,459.062837L977.768262,452.776402L976.157993,447.112506L973.348602,442.986649L967.566570,440.374419L958.498817,443.621396L954.388039,441.912461L951.046965,431.121753L954.676402,418.060593L967.065008,391.376736L968.803470,382.770999L970.089676,365.242138L972.363175,356.904936L976.507392,351.106734L981.065210,346.724512L983.581874,341.646504L981.629953,333.821974L984.437646,326.107301L994.800296,304.684417L999.178840,297.811998L992.205338,294.552786L981.544211,283.341545L975.595839,277.084862L973.218484,275.546805L967.670774,273.056618L965.659662,271.604008L962.834388,266.001083L959.985256,253.574544L956.408785,250.156634L950.169985,250.449598L945.645409,254.294747L941.764599,259.128646L937.455115,262.290212L933.439764,262.583175L925.525952,260.703326L921.415516,260.422569L918.080445,261.655457L912.322514,266.220806L910.329361,267.282798L907.583407,266.367287L901.899481,261.948421L899.604673,261.419913L898.719328,261.216012L892.353030,263.071448L872.499011,273.544889L870.171503,261.826353L864.269511,252.866549L857.385580,245.139629L852.153611,237.144155L847.775464,219.602924L843.440171,215.220665L832.603150,214.537081L810.756585,217.405691L804.177871,217.234795L794.411714,214.758778L793.440992,214.512668L787.301261,213.780256L783.074761,215.489215L782.729483,217.076106L782.235848,226.426551L782.929064,228.111095L786.262891,231.907422L786.878570,233.176933L784.281414,239.634349L781.564817,240.317932L777.961455,239.658763L772.786191,242.014681L769.750396,245.359352L767.779771,248.621384L766.129765,251.352903L762.525703,254.831847L757.861683,256.540802L752.808288,256.955833L748.153977,258.786856L744.712461,264.707161L742.180195,263.462066L738.992552,262.363453L735.749914,261.728699L733.037279,261.924007L731.582721,263.608547L731.003465,266.538182L730.736519,269.333541L730.114247,270.700704L727.121439,270.358913L720.802818,267.453693L716.859973,267.209557L699.800440,271.323251L691.925502,274.863225L683.685653,280.099943L672.594470,280.710282L676.877450,274.033162L677.322964,266.464941L674.031673,254.062817L673.308167,249.570707L674.832891,242.600609L676.796875,236.851191L677.626213,231.345908L676.010837,226.189914L675.664362,225.083798L677.340799,225.335131L677.455643,225.352349L677.824720,225.024111L678.087022,224.790834L678.325977,223.643390L678.790344,222.154155L675.481968,218.113688L671.653992,216.246040L653.577879,214.707977L623.316398,203.575323L612.853152,202.794084L602.138785,204.600700L599.500141,205.687110L599.634587,204.840889L600.021912,202.403465L599.474935,198.460647L597.731210,195.286862L595.025755,192.442661L593.177860,191.661422L584.434855,190.343079L578.407245,185.619019L579.291181,178.966269L582.540808,171.190483L583.664783,163.194968L581.231539,157.811726L577.578531,158.226761L573.027233,161.156417L567.891088,163.292624L549.902621,161.778968L542.517880,162.975244L541.111224,149.645307L536.291730,135.521908L528.832723,123.388224L519.313356,116.125098L512.862703,115.978615L506.807246,118.749590L501.587086,121.935599L497.481919,122.924361L494.127658,119.994697L493.277862,114.977646L493.252375,111.116037L493.237952,108.910796L492.265241,102.990427L489.249797,96.020258L485.943858,90.905543L476.332584,82.055494L474.895985,77.819675L474.697630,63.342198L472.644169,57.495052L466.398883,53.820747L452.479245,51.989698L448.219847,47.485316L450.311345,42.834448L451.158487,38.024887L450.734307,33.325188L449.109128,28.991698L447.095694,25.439456L445.277745,23.339848L442.904355,22.827153L439.137203,23.950199L435.479099,27.697754L428.241339,40.466289L423.919804,44.445772L405.464129,38.122544L395.805005,29.870603L375.221233,24.865726L363.074808,18.103034L347.387030,15.258383L341.128693,14.123543L330.126368,4.431156L329.568505,5.505376L327.063574,9.130866L327.446894,0.000000L323.052825,1.818849L312.556370,12.597664L305.897853,14.099128L301.423904,12.182625L297.033195,9.448249L290.570571,8.496100L285.862345,10.618182L282.878865,11.962898L271.264598,25.659182L265.188469,30.163572L264.879435,21.411139L260.877267,16.320808L254.855532,15.759285L248.500525,20.581061L245.048891,28.063965L246.281691,33.398430L248.831826,38.073716L249.471559,43.579075L246.387641,48.193321L241.909293,51.489211L239.062161,55.456484L240.941309,62.145914L249.457315,63.415441L252.167550,64.831451L254.307847,67.346089L255.324028,69.140516L257.217642,74.218618L257.529943,76.428080L257.553864,83.642399L258.014789,86.718555L259.621230,88.708290L264.576821,91.613546L265.708770,93.542246L265.035546,100.915246L262.082079,103.844914L216.491351,115.661234L205.061199,121.190976L193.744611,130.089827L184.461834,140.148330L163.345226,174.864756L161.788694,178.722132L161.837134,182.347575L163.831833,189.200926L164.064846,190.001287L163.646138,192.625764L157.240940,196.238998L151.438983,193.504659L141.592516,184.203021L134.303871,182.030196L128.155182,182.494058L109.081481,190.245424L104.350665,193.455832L94.580337,203.233531L51.789935,234.177894L45.075789,240.195863L40.910836,246.824171L37.503148,253.696612L33.016574,260.349328L27.497429,264.878056L15.489380,271.604008L9.989977,277.255758L6.045041,284.079358L3.117954,291.549916L1.347801,299.227985L0.821160,306.661915L6.582393,338.485747L34.772803,354.419869L62.279768,369.095883L93.812365,390.276903L101.783424,396.134859L106.513726,400.881628L107.050384,411.719436L109.586867,429.080068L115.441817,433.937832L154.782262,433.399797L168.890145,430.217562L194.237097,439.831345L205.819425,442.401610L230.302917,449.378785L289.160336,448.843352L299.659867,451.669149L313.791457,451.669149L343.429880,459.704405L370.277686,473.525807L416.319993,507.089278L514.211507,560.337044L526.432474,566.968976L631.359990,589.094622L637.165672,592.554756L642.197761,597.129821L650.021868,601.954782L657.311861,603.338835L660.715927,597.687286L653.542062,588.998508L636.393638,582.578036L603.159428,574.811954L603.450582,571.582493L615.380929,575.676987L620.917869,576.868812L628.536729,578.329759L628.853442,574.811954L625.625588,571.928506L621.101114,564.931339L618.477489,561.894107L613.428510,558.664644L609.781071,558.011062L576.178584,562.009445L564.762627,558.952989L561.926594,560.317821L558.944420,559.760355L556.075388,557.953393L553.520111,555.473627L558.854897,552.936190L582.318936,552.244163L599.417788,548.726353L605.516565,548.726353L618.884542,551.802033L623.696636,552.244163L626.680856,554.454807L632.292039,568.064686L639.453267,572.543642L656.517672,577.445502L662.190471,581.251651L664.499653,576.369015L663.734616,571.390263L661.896676,565.796374L661.115631,558.952989L665.995549,562.566912L672.681666,574.754284L679.436589,578.329759L679.174061,581.251651L672.932995,587.710569L671.456130,586.518745L667.561594,584.481110L669.083092,596.072558L676.861993,601.781776L687.463178,602.127789L697.498338,597.687286L697.813217,594.169485L691.954448,594.304045L687.950356,595.553538L684.667077,596.091781L680.845938,594.169485L687.360549,591.228372L694.765749,590.382561L709.677883,590.940027L708.186038,586.153508L703.937605,578.483542L702.633171,574.811954L709.649577,580.732630L713.847017,589.728980L712.539425,596.995260L703.126064,597.687286L702.863015,600.628399L708.744300,602.127789L713.871619,604.146199L724.152648,600.532284L761.920983,607.048864L797.976109,603.684848L805.173783,600.628399L808.004515,600.628399L821.141329,603.531064L877.823436,607.894674Z "/></g></svg>