<?xml version="1.0" encoding="utf-8"?><!DOCTYPE svg  PUBLIC '-//W3C//DTD SVG 1.1//EN'  'http://www.w3.org/Graphics/SVG/1.1/DTD/svg11.dtd'><svg enable_background="new 0 0 1000 955" height="955px" pretty_print="False" style="stroke-linejoin: round; stroke:#000; fill: none;" version="1.1" viewBox="0 0 1000 955" width="1000px" xmlns="http://www.w3.org/2000/svg" xmlns:xlink="http://www.w3.org/1999/xlink"><defs><style type="text/css"><![CDATA[path { fill-rule: evenodd; }]]></style></defs><metadata><views><view h="955.1038301" padding="0" w="1000"><proj flip="auto" id="robinson" lon0="38.5584553353"/><bbox h="84.88" w="88.96" x="497.65" y="-626.57"/></view></views></metadata><g class="" fill="#000" id="country"><path d="M243.630767,953.103830L245.582220,952.400298L269.065648,934.887300L291.501466,919.024977L291.500358,919.015268L291.533086,919.015268L291.531978,919.005560L307.769976,907.766465L332.850283,890.337953L344.477006,882.268547L357.953520,872.908821L383.014214,855.478755L408.045215,838.018271L426.627467,825.040274L426.626307,825.030548L452.070481,807.719162L464.458707,799.268264L495.642468,777.968610L531.363564,753.949852L547.522811,743.499088L563.673003,733.055157L579.811100,722.593620L595.940121,712.138781L612.058840,701.680824L628.167864,691.224562L644.265944,680.760167L660.355557,670.307099L676.416042,659.831111L692.499975,649.361435L708.540982,638.888236L724.587241,628.406556L734.977986,621.610132L740.622454,617.916323L756.648529,607.432141L772.664181,596.944165L788.667446,586.437635L809.874948,572.502806L847.093629,562.153641L851.288218,559.158897L854.180446,554.099914L858.150376,541.639528L858.146398,541.610099L878.020643,489.516010L878.725198,484.826609L878.399207,479.841280L872.500879,446.569121L867.270235,415.132112L866.531109,410.697395L866.460846,399.076815L869.723963,375.485013L868.499553,356.834962L869.135727,351.083588L869.151900,351.083588L869.168073,351.083588L869.163930,351.053939L874.994242,339.973643L879.161641,332.043545L880.821916,326.258277L880.835178,320.264359L876.457867,293.933505L874.825744,287.647636L872.259613,281.499490L856.471838,255.323927L856.469024,255.304115L856.454292,255.314021L851.124849,245.971640L850.039786,242.652402L849.568383,239.451889L847.717988,191.317509L848.251447,186.171371L858.156144,159.475297L858.153271,159.455462L858.167939,159.445544L858.165066,159.425709L860.671122,155.161022L864.953947,153.048478L874.822720,151.372312L921.648127,141.166270L925.619729,139.162704L929.228410,135.681229L946.929546,113.462689L973.115911,80.507285L986.596086,63.493011L986.644296,63.493011L986.642799,63.483093L986.639804,63.463258L995.170285,54.101457L999.423739,50.437596L999.475948,50.392618L999.004822,47.606105L997.795314,45.459245L996.325243,43.500828L994.984376,41.230101L994.046520,35.801375L993.328720,33.089601L991.932432,31.934517L989.793961,29.490545L990.937444,18.773554L989.552913,16.329954L988.409409,15.779782L982.470350,11.576798L981.638732,10.545913L980.566012,8.672513L979.734380,7.641668L978.727487,7.354223L977.826036,8.176913L977.009007,9.237502L976.191340,9.663724L971.127695,7.403783L968.955488,7.051912L968.670190,6.234191L968.634905,4.321257L968.103213,2.101128L966.017002,0.000000L963.534866,2.239884L961.490899,3.567991L955.239681,13.737738L945.185117,24.602798L939.003623,28.637897L922.082106,32.730229L859.601052,47.834180L816.623737,49.867043L813.134515,48.974562L805.780960,46.168249L767.607723,38.790857L739.095858,43.054612L731.827570,45.974884L712.694115,57.369091L705.857736,59.426897L702.335247,59.625242L699.042190,60.299615L695.914551,61.564072L693.057852,63.483093L674.444519,77.155176L664.411822,84.519307L658.976619,87.217166L653.294068,88.298300L647.968146,90.192774L633.803280,99.387558L602.165051,111.826039L553.133219,121.380819L522.492136,127.349365L514.170071,127.686610L489.138302,119.691875L481.091625,120.267181L477.803340,121.278925L452.655969,122.479130L441.506405,121.080544L431.358483,116.170601L426.210810,111.463592L407.388060,94.249563L399.124038,90.024155L368.352500,81.201573L357.969155,79.917141L352.722742,80.467611L342.833132,84.479632L329.034387,94.003148L326.463172,95.777069L322.278674,96.947499L298.854776,108.294845L273.794299,113.750343L264.900877,117.896522L243.906655,132.546880L237.413670,132.497285L211.488000,127.865151L208.064275,128.142882L198.498935,130.682129L195.536488,130.305210L192.876286,129.531534L190.273969,129.323237L187.515843,130.632534L185.418821,133.062661L184.447125,134.867888L183.052775,135.284477L179.758604,133.598278L176.490512,130.999534L175.624035,128.797533L176.172076,122.637835L175.488972,118.640453L173.943323,116.170601L168.626633,111.806201L165.939134,109.584325L162.789622,107.888163L159.526830,106.678036L156.460233,105.983702L146.550359,105.358802L116.614490,95.493115L116.452821,95.439826L114.963583,95.241449L113.527823,95.330719L114.668020,100.022372L113.396283,103.732079L111.295824,107.134313L109.853489,110.903563L109.728232,115.158854L110.078976,118.868592L110.034728,122.637835L108.763740,127.131147L107.700342,135.244802L108.909699,143.774852L109.249374,152.066583L105.541813,159.455462L105.249349,162.331585L106.057691,165.505178L110.336662,175.927952L111.343081,177.375769L112.561414,178.337666L115.167038,179.438383L115.993929,179.983780L116.914477,181.262973L117.517817,182.581817L117.879758,184.029551L118.063779,185.725162L117.415063,188.600697L116.765850,190.335895L116.061782,190.375557L117.838185,191.922336L123.047717,192.457754L125.721890,193.459177L127.793769,195.551224L127.816092,195.585794L129.701614,198.505789L131.200715,201.668456L132.110906,204.384888L132.806166,208.707207L132.106291,210.303235L121.327138,212.394876L118.353990,212.345312L106.287928,210.521324L103.474373,210.967412L101.793366,211.572105L101.385705,212.811215L101.349010,214.179171L100.745050,215.269552L99.500407,215.884124L98.645755,215.884124L97.674178,215.596664L93.327149,215.011827L91.091211,214.288209L88.965047,212.900431L86.704031,210.570889L85.126943,212.384964L87.698208,215.001915L87.697233,216.657288L86.584388,217.935966L85.863563,219.383124L85.927617,222.198061L88.924120,249.924755L89.993406,255.373458L86.806118,256.473040L80.357364,254.075725L77.414479,255.323927L77.415716,255.333833L77.403286,255.363552L77.404522,255.373458L76.939813,262.129092L74.527990,262.723388L70.634893,261.663556L65.840261,263.476153L63.093455,269.042309L63.818444,282.568793L62.774043,288.221815L62.421155,288.286379L59.852162,288.756390L49.944528,282.162857L45.060537,280.014307L40.149261,279.865786L37.656167,279.291501L35.654596,277.727032L35.017116,275.439645L35.176088,272.934287L34.821893,270.458510L32.594368,268.240107L29.601810,268.715488L26.595396,269.864304L23.588670,270.488220L22.037876,269.984416L18.719675,276.074092L18.513052,279.769733L17.274290,282.623130L13.630271,283.496264L6.032223,283.028516L8.440448,285.764778L11.066502,289.966290L13.270921,294.463566L14.369148,298.134302L14.954742,302.607332L14.800688,303.635904L10.200287,315.244463L6.683563,316.459655L6.001759,317.861752L6.607323,320.221831L8.314103,322.846561L8.931165,324.988266L8.429713,328.399156L6.398157,331.163453L3.519595,333.141155L0.524052,334.262323L0.667609,335.445739L2.662740,334.262323L3.642972,334.262323L3.391464,335.336741L3.290009,337.228572L3.136918,338.170555L8.954900,341.105330L10.029791,342.093911L10.156543,344.397891L9.671485,347.013027L9.702647,349.161020L11.491134,350.048193L12.296705,349.550134L14.606754,348.647382L17.080909,348.258257L18.382820,349.332231L19.273594,351.215489L20.981678,352.382743L24.383720,353.970141L33.175018,364.169605L34.941573,365.709736L34.918077,368.455332L37.578287,380.834592L38.737382,384.091825L37.372181,390.504133L44.782020,402.555229L46.829343,407.681708L43.914430,410.997848L37.910792,422.348674L37.188516,424.615118L38.285146,433.740854L39.107341,435.913137L40.332363,438.465316L41.177893,441.257657L40.707400,444.142724L39.607522,445.399011L38.869158,446.793140L37.926300,449.468185L38.574703,450.832727L38.966404,451.119581L38.929284,451.235872L38.238284,452.073150L38.394222,453.375522L39.485324,454.600306L39.923872,455.918039L39.800784,457.235697L39.002771,458.460278L39.008206,459.359296L38.124804,459.870791L44.806588,473.475581L46.139461,477.471861L46.979891,479.376830L50.302254,484.099882L50.903429,485.284371L51.831534,493.063404L52.377580,494.750468L54.244458,497.551668L55.871346,502.627064L59.437350,508.536733L60.522589,512.070802L62.514423,511.996953L63.939516,512.379975L65.156137,512.920124L68.164549,515.149342L71.691106,516.141134L75.289749,516.239329L79.374425,515.650153L83.319296,515.931695L90.244110,516.425898L90.899955,516.209870L92.646393,515.070783L93.575760,514.835103L94.412172,515.178802L96.428177,516.563370L97.425756,516.897226L106.840899,516.366982L108.314204,515.659973L109.572469,514.108410L109.946850,512.360333L109.564632,508.637898L109.909217,507.184131L112.896806,504.905084L115.417846,506.437570L119.926096,513.155821L123.432308,515.993840L127.302715,517.270354L131.188656,517.191801L134.838731,515.964382L134.943500,521.953625L133.929827,522.837164L132.094802,521.482391L129.693259,520.814796L127.545641,522.257959L127.494805,524.535437L128.025824,527.332923L127.669910,530.316573L124.891152,532.730720L120.867358,535.056331L118.571901,537.852676L120.491173,540.798827L121.038888,541.639528L121.476962,541.771960L121.919531,541.806294L122.353878,541.771960L122.760238,541.639528L125.702701,540.717392L130.272997,540.506473L134.617482,540.849829L136.868531,541.610099L136.872064,541.639528L138.259824,544.812802L140.113193,547.264838L142.436426,549.030163L145.238993,550.187367L147.851980,553.011519L149.079052,553.761633L150.184049,553.359614L152.901621,555.158850L153.962142,556.820707L154.084684,558.923617L153.905872,562.036014L153.640450,563.344584L153.179378,564.241432L152.793831,565.226461L152.850655,566.784791L153.455157,568.303832L154.411233,569.773791L158.379146,574.545714L160.271880,576.372935L161.451893,576.862786L162.595155,576.774614L163.648332,577.019537L164.637623,578.493927L164.607798,580.957601L163.346742,583.048858L162.453307,585.497438L163.627478,589.062186L164.977724,591.789306L169.232572,595.558858L170.294039,597.406011L170.402752,597.595187L166.548783,602.489615L163.635379,608.601586L157.310545,614.624215L154.698726,618.513069L154.105534,621.188499L154.060565,623.413764L153.406097,625.164515L150.988296,626.450616L148.837418,626.558196L145.304295,625.296551L143.480079,625.140064L140.361131,626.827144L135.908886,633.481629L130.292518,638.976220L128.178258,642.026171L126.411753,645.408135L123.845363,652.239356L124.202358,652.923373L125.423705,654.731061L126.551948,655.884018L131.615561,659.498949L137.925524,660.554040L140.841065,662.229414L141.606525,666.112231L139.995112,668.612614L137.023939,669.100947L130.915030,667.684760L122.357124,663.704452L119.560288,663.176963L117.272818,664.080526L115.283957,665.868043L112.922708,667.396631L109.642957,667.474768L108.278930,666.668974L105.981599,664.144019L104.868949,663.538391L99.623985,667.005945L97.025805,668.182874L94.184327,668.949564L91.782750,669.999461L90.457535,672.045440L88.808678,676.073544L84.114588,680.530733L82.324068,683.771946L81.612349,685.924444L79.035969,688.574608L78.057830,690.258304L78.012504,691.839438L78.864341,695.264974L78.650350,697.080074L77.985415,697.811942L76.022718,698.592584L75.461609,699.236600L75.323872,703.271184L77.559561,704.573662L81.121833,705.227322L85.042326,707.290661L87.363044,707.915004L90.430745,709.363632L93.296935,711.324305L94.928084,713.455558L94.826748,716.956972L92.728161,719.819291L89.731618,721.964660L86.891168,723.344455L83.185435,723.295700L79.607296,724.499931L78.101246,727.000898L80.676333,730.832454L78.855439,736.851962L74.437278,740.989499L71.732463,742.719428L68.061361,745.076721L64.530440,747.343551L64.857389,748.352109L64.125708,749.516547L64.231707,752.595556L63.860523,753.633205L63.771384,756.146828L61.394455,758.051421L60.322171,759.381171L57.045380,760.978759L63.550084,765.108806L59.114368,772.608021L60.390432,774.078481L65.163143,777.175034L66.796298,785.981394L70.604219,788.191208L71.724828,793.627627L70.410572,797.311533L68.994751,800.099799L69.310218,802.897614L75.501337,805.388733L75.292926,807.884574L79.400371,825.808649L80.546262,828.157465L84.947243,834.328006L83.202625,838.582239L82.108012,838.873943L79.921754,843.570144L78.702081,849.174844L79.568471,851.517641L78.897349,856.338980L72.033694,865.742173L68.526189,872.060881L69.460435,871.567882L70.369641,871.363824L71.203241,871.509580L71.931247,872.029441L71.932326,872.039158L71.918135,872.058592L71.919753,872.073168L73.580844,873.929077L91.026257,877.903030L92.628875,878.787170L95.669188,881.570657L96.483250,881.832968L98.524507,881.808680L99.165744,882.134138L99.550493,883.387376L99.473559,884.606584L99.051987,885.374039L98.453563,885.286608L100.092472,887.083774L101.628877,888.400039L103.344887,888.978021L105.587432,888.555464L109.315301,888.842026L110.289104,890.979052L110.170841,894.179580L110.677784,897.710149L112.515874,900.856882L120.856483,911.738014L121.982886,913.927594L122.104981,914.733494L122.692732,914.869428L124.604978,914.931504L126.880184,915.005362L132.649422,914.209175L133.659373,914.315981L135.366804,914.956814L136.335241,915.131586L137.078534,914.752914L138.696389,913.116828L139.485300,912.854661L141.308631,913.801368L147.041958,919.005560L158.040449,926.078088L173.426615,939.323000L175.915981,940.657535L179.149105,941.613530L188.172247,942.520985L190.922573,944.136904L196.783858,944.846152L218.754426,947.504491L224.956110,951.861728L227.524438,950.231435L230.974270,950.333330L241.393521,953.011643L243.630767,953.103830Z "/></g></svg>