<?xml version="1.0" encoding="utf-8"?><!DOCTYPE svg  PUBLIC '-//W3C//DTD SVG 1.1//EN'  'http://www.w3.org/Graphics/SVG/1.1/DTD/svg11.dtd'><svg enable_background="new 0 0 1000 1377" height="1377px" pretty_print="False" style="stroke-linejoin: round; stroke:#000; fill: none;" version="1.1" viewBox="0 0 1000 1377" width="1000px" xmlns="http://www.w3.org/2000/svg" xmlns:xlink="http://www.w3.org/1999/xlink"><defs><style type="text/css"><![CDATA[path { fill-rule: evenodd; }]]></style></defs><metadata><views><view h="1377.5434439" padding="0" w="1000"><proj flip="auto" id="robinson" lon0="31.4472291183"/><bbox h="26.3" w="19.11" x="441.97" y="431.68"/></view></views></metadata><g class="" fill="#000" id="country"><path d="M678.287530,1375.543444L840.299640,1371.944163L839.431508,1255.904753L868.547493,1068.970431L898.040418,943.307209L921.002048,937.735319L962.812859,949.736293L985.360021,962.594399L999.636771,682.185624L982.804970,620.545107L966.697485,530.440235L965.391875,472.569947L983.238447,414.441968L996.062701,322.362479L995.159216,241.771232L928.572439,201.304174L914.212845,188.443896L893.597567,198.217706L855.110145,209.534756L687.849538,109.139146L525.124609,3.172122L500.857141,0.000000L464.448347,11.059568L363.401692,88.134218L266.056821,208.677403L218.282539,311.474092L145.222547,417.699888L27.492437,588.652820L14.370595,625.517537L4.044497,764.399750L0.363229,896.588597L8.434488,915.018999L65.472894,921.276727L99.241503,1029.626597L181.363853,1202.081023L331.556307,1312.725933L474.549630,1362.860215L678.287530,1375.543444Z "/></g></svg>