<?xml version="1.0" encoding="utf-8"?><!DOCTYPE svg  PUBLIC '-//W3C//DTD SVG 1.1//EN'  'http://www.w3.org/Graphics/SVG/1.1/DTD/svg11.dtd'><svg enable_background="new 0 0 1000 1377" height="1377px" pretty_print="False" style="stroke-linejoin: round; stroke:#000; fill: none;" version="1.1" viewBox="0 0 1000 1377" width="1000px" xmlns="http://www.w3.org/2000/svg" xmlns:xlink="http://www.w3.org/1999/xlink"><defs><style type="text/css"><![CDATA[path { fill-rule: evenodd; }]]></style></defs><metadata><views><view h="1377.44473002" padding="0" w="1000"><proj flip="auto" id="robinson" lon0="31.4469267908"/><bbox h="26.53" w="19.27" x="441.9" y="431.57"/></view></views></metadata><g class="" fill="black" id="country"><path d="M843.531138,1375.444730L843.980516,1363.933958L842.545471,1354.041801L839.451237,1344.779074L835.063461,1335.336418L831.836511,1322.566237L834.589566,1258.083891L835.296656,1241.506433L837.574222,1187.842322L856.321080,1107.883363L872.980521,1036.375620L890.992694,959.467828L891.202651,933.381439L941.094818,933.651300L952.844841,936.080047L969.796933,955.330010L981.394917,960.997019L999.636745,736.644248L996.847210,665.304312L966.750785,590.904094L962.825684,566.523557L959.614932,476.737381L964.939952,451.366697L994.196582,382.541588L998.442172,359.329887L995.326636,329.190616L988.643983,296.982044L986.786959,265.673139L998.378709,238.322838L949.635940,224.917600L929.010716,212.771921L910.863991,193.338849L866.627097,215.740864L845.010819,221.048975L823.996327,214.211408L761.578258,169.561518L749.914694,161.220357L684.452261,114.437287L608.890304,60.547131L533.288469,6.657450L514.741476,0.000000L492.743248,0.359862L466.458198,7.557106L444.787196,18.622892L365.069938,89.336477L295.067847,151.503853L284.240209,169.677319L269.949931,215.560927L223.311955,316.954960L166.582803,411.871040L107.874402,483.739178L107.861650,483.754788L32.767912,575.789976L12.374028,641.014197L7.195944,733.675532L0.363255,853.860922L3.785150,913.591541L7.455977,933.921161L20.430426,933.111578L32.981700,930.592874L46.090991,923.216651L58.196165,913.051814L67.477775,901.987377L70.472691,913.672673L80.657628,953.441002L89.435295,969.182670L109.130145,992.839905L116.175361,1005.702839L119.382045,1022.973209L116.981046,1044.650885L106.957417,1078.830901L108.624193,1100.507864L123.227981,1130.729202L194.576044,1203.132076L226.172194,1259.163119L236.815539,1271.214442L247.478150,1279.128685L310.988211,1302.634223L336.653070,1312.134162L392.086036,1332.638503L466.519519,1360.156962L515.609506,1370.768492L597.552402,1371.937553L705.658781,1373.466325L776.969573,1374.545455L843.531138,1375.444730Z "/></g></svg>