<?xml version="1.0" encoding="utf-8"?><!DOCTYPE svg  PUBLIC '-//W3C//DTD SVG 1.1//EN'  'http://www.w3.org/Graphics/SVG/1.1/DTD/svg11.dtd'><svg enable_background="new 0 0 1000 580" height="580px" pretty_print="False" style="stroke-linejoin: round; stroke:#000; fill: none;" version="1.1" viewBox="0 0 1000 580" width="1000px" xmlns="http://www.w3.org/2000/svg" xmlns:xlink="http://www.w3.org/1999/xlink"><defs><style type="text/css"><![CDATA[path { fill-rule: evenodd; }]]></style></defs><metadata><views><view h="580.418441942" padding="0" w="1000"><proj flip="auto" id="robinson" lon0="-71.7557594074"/><bbox h="11.22" w="19.36" x="-1051.56" y="-368.21"/></view></views></metadata><g class="" fill="black" id="country"><path d="M556.357499,578.418442L570.097845,570.820808L574.227715,564.208051L569.338240,566.037112L563.298013,570.046975L554.123091,576.835602L556.357499,578.418442Z M608.872503,561.007195L609.771788,548.801727L605.105927,553.620601L598.746412,567.303385L602.581997,574.619625L608.872503,561.007195Z M929.707048,549.927303L937.372418,539.586066L932.269683,534.380271L924.990291,534.098876L920.872260,541.485477L915.431459,557.454595L919.224477,560.690626L929.707048,549.927303Z M991.861689,443.243439L997.806871,420.977972L999.137066,398.606945L994.806505,385.205414L987.523693,401.245040L981.329474,420.450354L978.726016,439.690816L982.035925,456.082121L991.861689,443.243439Z M727.671005,370.818979L731.503427,342.151579L730.546499,336.980888L728.049661,337.262285L721.014905,352.317083L718.641234,372.929460L713.072511,377.361468L704.183185,375.954481L694.558671,382.672841L694.529165,397.446183L705.996880,406.204657L718.956634,402.124404L726.152729,390.587133L727.671005,370.818979Z M24.187866,271.661110L41.599647,241.269854L44.277115,216.119606L23.454633,219.426076L21.833827,236.169460L17.614909,254.390165L10.764406,270.007884L1.460929,278.942334L0.862934,284.324105L24.187866,271.661110Z M768.495930,254.812266L776.688240,232.581594L771.254207,214.712596L758.310215,202.049505L743.960418,195.260673L726.314253,189.667797L713.835552,183.863865L690.935180,166.311343L688.729210,171.411779L686.019614,173.627830L682.767844,174.964496L679.011217,177.567474L690.213054,193.572258L721.658884,209.014208L736.189308,219.426076L750.269541,245.314992L759.543541,256.782070L768.495930,254.812266Z M523.584001,103.065654L512.325018,93.744080L506.653767,91.105896L500.435445,89.558162L494.290308,88.995349L492.729741,120.864551L494.326225,130.889601L499.397044,144.995002L504.694695,149.919575L523.492156,148.090448L570.329221,142.040256L588.804882,148.618081L597.882891,172.220814L602.539442,172.220814L604.114925,168.703272L609.476797,159.839061L620.374917,180.487030L627.176325,186.150264L637.460719,183.969391L633.813380,167.929413L623.076121,137.854366L619.156785,118.542958L626.376530,129.201172L631.580549,143.236225L638.468276,155.266249L650.776010,159.839061L637.311726,117.558039L630.690286,106.723929L621.445603,101.447570L611.675899,102.010382L589.791201,106.723929L544.581239,100.321947L537.735900,101.130989L530.666532,103.136005L523.584001,103.065654Z M295.401663,91.176249L293.397879,87.588317L289.036840,90.402381L282.276068,96.452614L288.683183,97.120953L295.401663,91.176249Z M151.931362,92.477752L136.091280,83.648626L134.960053,98.387281L124.108599,125.507733L125.069464,136.799099L129.963194,131.944869L147.527696,118.542958L143.258210,129.799158L131.766374,148.512553L127.581637,159.839061L125.022973,158.220989L124.201252,158.220989L123.990103,157.658181L123.158124,153.929581L121.148107,158.854148L120.131528,162.512396L120.057549,166.452045L121.118949,172.220814L131.652655,168.914325L138.474684,162.864150L141.357556,153.929581L140.241008,142.110607L164.886117,155.266249L168.941718,159.839061L168.580883,169.090202L163.146323,170.884149L156.496805,167.190729L152.628985,159.839061L148.033421,159.839061L153.988659,181.788519L167.710427,179.642822L200.186152,153.929581L198.807564,166.311343L210.009392,163.286255L228.580437,166.240993L240.401225,159.839061L238.303091,156.813971L236.005379,155.582828L233.515482,154.984846L230.833021,153.929581L253.086905,142.110607L253.237811,147.316586L255.740063,159.839061L262.681613,151.607999L284.920981,130.889601L285.637686,124.452465L270.379243,114.181175L262.033597,116.432418L254.920295,125.648436L242.965962,136.799099L232.743460,140.598059L217.894759,143.306576L203.218135,143.376927L193.736012,139.437266L151.931362,92.477752Z M314.102024,79.568229L319.082249,74.749137L319.901598,67.678784L318.481269,63.774257L314.242894,66.306924L308.143601,75.698886L308.860515,81.819483L314.102024,79.568229Z M386.337832,0.000000L379.272052,1.969870L372.857462,5.733729L367.521120,11.010162L363.461438,17.658461L371.257303,23.040413L370.803930,30.638455L368.644013,39.080713L370.840432,47.206376L377.079081,51.286792L385.394700,53.115944L392.840462,51.286792L396.644464,44.462647L416.947749,22.301714L430.111590,14.492606L434.097981,29.477644L430.084223,39.819411L416.331667,60.010432L414.096009,71.337077L417.841957,79.779285L425.425242,87.377262L433.738539,92.794334L439.764589,94.975232L448.907859,100.321947L459.081504,109.819391L471.674066,113.161081L487.980575,100.321947L464.960100,97.718941L455.839288,80.131043L454.970218,29.477644L458.948642,16.181062L458.010535,9.321704L449.635109,6.402078L443.903611,5.417143L434.297907,0.984935L429.966048,0.000000L386.337832,0.000000Z "/></g></svg>