<?xml version="1.0" encoding="utf-8"?><!DOCTYPE svg  PUBLIC '-//W3C//DTD SVG 1.1//EN'  'http://www.w3.org/Graphics/SVG/1.1/DTD/svg11.dtd'><svg enable_background="new 0 0 1000 1742" height="1742px" pretty_print="False" style="stroke-linejoin: round; stroke:#000; fill: none;" version="1.1" viewBox="0 0 1000 1742" width="1000px" xmlns="http://www.w3.org/2000/svg" xmlns:xlink="http://www.w3.org/1999/xlink"><defs><style type="text/css"><![CDATA[path { fill-rule: evenodd; }]]></style></defs><metadata><views><view h="1742.10125772" padding="0" w="1000"><proj flip="auto" id="robinson" lon0="18.5391824588"/><bbox h="268.1" w="153.98" x="197.38" y="-393.12"/></view></views></metadata><g class="" fill="black" id="country"><path d="M230.061397,1740.101258L233.467783,1739.836918L246.033033,1736.552357L247.740360,1735.776210L250.842311,1733.610875L252.235505,1732.064207L254.305920,1728.700907L255.639168,1727.114869L257.225512,1726.130626L259.348600,1725.337608L265.433941,1724.437728L268.672258,1723.172273L270.872203,1723.211643L272.940204,1722.907933L274.850338,1721.597484L278.143125,1718.734744L280.136231,1717.840489L288.565060,1716.490670L289.725880,1715.602040L290.107955,1714.077870L290.028690,1706.681991L290.502517,1704.398549L291.946024,1703.043107L292.976550,1703.065604L293.852880,1703.543665L294.826951,1703.881119L296.120917,1703.476174L296.717446,1702.655035L297.859326,1699.803545L298.453282,1698.718067L299.974829,1697.255765L301.639602,1696.271523L305.411593,1694.994821L305.558990,1695.900323L305.627830,1696.878941L305.587905,1697.880055L305.104531,1701.198357L305.549534,1703.189338L306.605313,1704.820367L308.173092,1706.119567L309.178099,1706.580755L310.101976,1706.845094L310.948154,1707.272537L311.710422,1708.251155L312.210282,1709.764076L312.032847,1710.900173L311.627048,1711.985651L311.451502,1713.324221L311.890300,1715.720149L312.892283,1716.906864L316.609362,1718.132950L318.890218,1719.398405L321.108336,1721.361266L324.687856,1725.843790L326.825670,1729.797635L328.152808,1730.787503L330.369713,1730.511914L331.069078,1730.073223L331.279717,1729.873211L333.337563,1727.919137L333.615049,1727.924761L334.647112,1728.093488L334.982344,1727.919137L335.162444,1727.058627L334.830457,1726.529948L334.409722,1726.046263L334.313447,1725.298238L335.026057,1723.132903L336.033126,1721.721218L337.480838,1720.804466L341.204418,1719.584005L345.329059,1718.864101L347.173968,1719.077823L347.835062,1717.767374L348.651156,1717.120586L349.680577,1717.019349L352.628605,1717.581774L352.921044,1717.086840L352.813029,1716.164464L353.239251,1715.163349L354.544438,1713.875397L356.443779,1714.595300L357.520254,1715.258961L358.031452,1715.866379L358.646272,1715.922622L360.013730,1714.927131L361.837138,1712.941773L365.150400,1708.324270L366.866343,1706.518888L367.608261,1706.406403L368.392364,1706.552634L369.011670,1706.063325L369.318659,1704.049846L369.900794,1702.812514L371.143342,1701.439011L371.223674,1701.350211L372.766867,1700.129751L385.642819,1694.944203L387.570630,1693.577513L388.811948,1691.923987L393.354703,1693.459404L394.495300,1692.621393L395.322104,1690.157977L396.884052,1688.875651L398.810418,1688.358221L402.253535,1687.953276L404.257842,1687.312113L406.089376,1686.249133L408.038587,1683.161427L409.873917,1682.475271L411.972504,1682.340289L413.697310,1682.458398L426.898119,1684.972431L430.882126,1685.152407L434.618471,1684.387511L442.191859,1681.153576L451.101101,1678.757652L493.046677,1677.509072L500.791825,1675.636203L503.484701,1671.038393L503.495315,1665.757241L505.359440,1661.513760L508.581400,1658.262957L512.625959,1655.959836L518.226746,1653.788885L519.889633,1652.835579L521.955652,1650.763052L525.887282,1643.864942L528.967513,1640.473536L530.272159,1638.550053L531.112736,1635.901045L532.058843,1633.817272L541.488465,1621.469305L545.295211,1612.757400L546.337489,1612.077400L547.230519,1611.494765L548.150561,1609.793441L551.249941,1607.375031L549.278992,1604.875071L546.338427,1602.428541L544.821391,1601.430244L543.928973,1599.692364L532.406960,1594.155335L531.266950,1593.218905L530.784058,1591.776297L530.494263,1589.934371L529.838161,1588.902330L528.276039,1589.878129L526.654259,1588.401776L526.624791,1586.801691L528.787189,1583.120653L529.624020,1583.550904L530.504710,1583.522783L531.181632,1583.025041L531.456579,1582.040807L531.650547,1580.913155L532.190343,1580.536334L532.940414,1580.353547L534.423547,1579.414307L536.315752,1578.736591L536.696715,1578.326024L536.934095,1577.513328L537.528485,1576.754062L538.916217,1575.317080L541.043058,1573.621385L544.729152,1571.557306L548.534777,1570.350916L551.050168,1571.231103L551.713364,1571.231103L552.522980,1571.068001L555.085656,1571.771025L555.637841,1571.602299L556.107048,1570.350916L557.288091,1569.816618L561.195016,1569.586026L563.156958,1568.970177L564.096867,1568.936432L565.253765,1569.619771L566.276096,1570.618065L567.211125,1570.978014L568.086268,1569.743503L569.195698,1570.584320L570.838037,1571.298593L572.655692,1571.787898L574.301172,1571.970684L575.564269,1571.664165L579.216772,1570.114700L580.104105,1570.612441L587.427338,1570.488709L587.924646,1570.674307L588.314664,1570.983638L588.840149,1571.051128L589.743565,1570.488709L591.941953,1570.561823L594.736206,1569.254199L597.647286,1568.565235L600.206177,1570.488709L601.759879,1569.698510L605.937933,1569.771624L606.793456,1569.338562L607.262096,1568.840821L609.563771,1567.727230L610.392467,1567.516323L611.500110,1567.443209L614.004607,1566.706440L616.000640,1566.447727L624.044731,1566.965152L625.254426,1566.374612L626.407212,1564.473636L627.782761,1565.201969L628.102956,1565.119689L629.183523,1564.842020L631.613705,1562.991662L632.324487,1562.851057L633.187022,1562.957917L633.907550,1562.806064L634.212357,1561.909005L634.283159,1561.279096L634.502571,1560.660435L634.823089,1560.202064L635.196727,1560.016466L635.924883,1560.438280L636.283584,1562.103040L636.899121,1562.243645L637.467240,1561.796522L637.420228,1561.239727L637.263663,1560.632315L637.522683,1560.016466L640.298469,1557.389970L641.074866,1556.979405L641.868702,1557.131258L643.183361,1557.741482L644.025255,1557.786475L644.129106,1557.412467L644.029752,1556.647578L644.158222,1555.896749L644.975164,1555.559297L645.705623,1556.149837L646.544626,1557.451836L647.700345,1558.753836L649.331453,1559.341563L650.760066,1558.855071L653.453115,1556.720692L654.851978,1556.234200L655.846171,1556.563215L656.955665,1557.367473L659.140013,1559.341563L661.034009,1558.871944L668.948574,1559.341563L670.754453,1558.945058L671.333210,1558.562613L673.084991,1557.103137L673.988039,1556.551966L675.005709,1556.422610L676.171316,1556.979405L678.079657,1554.673488L679.210433,1551.971067L680.535583,1549.738266L682.957303,1548.801840L683.495543,1547.646070L682.470376,1545.084255L681.811440,1542.530877L683.527233,1541.375108L684.691793,1541.144517L685.375399,1540.489300L685.707241,1539.448827L685.776924,1538.062467L686.108525,1537.007934L686.981469,1537.156974L689.048330,1538.467408L689.165666,1538.366173L690.958530,1538.484280L691.017671,1538.467408L692.639034,1539.057947L693.303265,1539.142309L698.211797,1539.142309L696.902083,1534.685149L700.789284,1532.455163L705.082683,1530.967569L705.991484,1530.160500L706.715466,1530.967569L707.532069,1529.941157L707.939716,1528.689779L708.449022,1527.629622L709.570740,1527.185312L709.953358,1526.954721L710.502761,1525.933934L710.855603,1525.697719L711.314256,1525.939558L711.944237,1526.397928L712.007262,1526.427231L712.621639,1526.712882L713.182768,1526.510412L713.776186,1524.423844L713.894963,1521.679249L714.543218,1519.291789L716.665708,1518.271003L717.651325,1517.323330L721.265772,1512.770568L722.063677,1511.176117L722.412829,1510.020352L723.281484,1509.207660L725.339479,1507.863485L725.760860,1506.915814L725.914923,1505.956894L726.423512,1505.557579L727.918712,1506.311216L727.769039,1504.885491L727.605669,1504.542418L727.183315,1504.081236L727.172377,1503.341659L728.520313,1502.835485L729.083566,1501.454754L729.107912,1497.768118L729.389912,1496.111804L730.701209,1493.164747L730.966801,1491.083810L731.207028,1490.611381L731.742426,1490.032093L732.377670,1489.514671L732.897623,1489.225028L733.013879,1489.061927L733.108572,1488.780720L733.352075,1488.527633L733.894387,1488.409526L734.333390,1488.656988L735.239612,1489.711517L735.588651,1489.897114L736.285862,1489.554040L736.960314,1489.014122L738.167719,1487.737439L738.541934,1487.624956L738.979076,1487.748688L739.325654,1487.771184L739.467407,1487.332501L739.365493,1485.828040L739.438752,1485.439974L740.812847,1481.472137L741.763089,1479.565551L746.995678,1475.679266L747.773486,1475.443052L748.034079,1473.736124L748.703246,1472.228854L753.509891,1465.817334L754.865221,1464.565963L756.205280,1465.508006L760.148962,1467.231805L761.439616,1467.541132L764.750421,1466.104165L767.810610,1462.573980L770.273085,1458.167482L775.052476,1445.296692L777.649248,1441.357002L780.650872,1439.236712L781.563014,1439.382939L782.737236,1439.835680L783.947600,1440.077517L784.938718,1439.605092L785.298367,1439.830056L788.326548,1438.747415L788.835550,1438.426841L791.276923,1437.749136L792.455757,1436.059091L793.191501,1433.885373L794.303311,1431.736964L795.107864,1431.354525L796.203468,1431.233607L797.147184,1430.896161L797.535833,1429.878197L797.432144,1428.986777L796.990256,1427.375471L796.881794,1426.197221L797.190019,1423.911023L800.024381,1418.360034L799.299504,1417.581096L799.208056,1416.841527L799.354124,1416.116018L799.322216,1415.390509L798.712764,1414.420352L796.995545,1412.243825L796.632534,1411.231487L796.394981,1409.448648L795.444891,1405.278380L795.199825,1403.059674L795.371700,1400.947826L796.196897,1397.728031L796.368175,1395.593687L796.892602,1393.883963L798.199640,1392.854753L799.812337,1392.359833L801.243319,1392.222043L801.790958,1391.876161L802.212639,1391.102848L802.782676,1390.335160L803.785045,1389.992090L804.563730,1389.862736L806.373017,1389.308763L807.359275,1389.179408L809.275539,1390.245174L810.317626,1390.487010L810.756769,1389.584343L811.110053,1389.435305L813.263837,1387.084434L816.150167,1384.806677L817.805237,1383.920882L823.588742,1382.287084L824.595203,1381.058220L823.626129,1378.777651L824.222503,1377.278830L824.845287,1375.037630L825.876512,1372.984837L827.689103,1372.087795L835.720904,1373.007334L837.228790,1372.765498L839.945232,1374.348679L841.189299,1372.054050L842.166155,1368.640228L844.868235,1366.103764L845.868843,1364.588071L847.085781,1363.564487L848.570665,1364.250626L849.342434,1364.301243L850.355702,1363.494186L852.111824,1361.686041L853.323885,1360.946474L855.283878,1360.035371L857.347502,1359.391413L857.685268,1359.330375L860.272958,1358.862749L861.716651,1358.367829L862.867537,1357.532652L864.585159,1355.266144L865.480922,1354.535012L866.750596,1354.256620L868.268261,1354.568757L869.661334,1355.091797L870.819492,1355.198655L871.671813,1354.256620L873.886448,1356.466887L875.905505,1356.635610L877.928923,1355.966343L880.196422,1355.673890L880.992169,1355.955095L882.838598,1356.944934L883.811042,1357.161462L887.139478,1357.060228L888.050509,1357.161462L891.627175,1358.193482L894.080373,1360.462802L899.939981,1362.563399L905.218209,1363.145493L908.677842,1347.828287L909.260131,1346.740025L910.736711,1344.870016L910.981144,1343.686145L910.989003,1341.489939L911.264354,1339.335912L911.820061,1337.381542L913.357614,1333.554349L913.745521,1331.622474L913.501094,1328.461628L913.390797,1327.036029L910.814640,1318.959835L909.370663,1311.237957L907.971847,1309.916295L905.728250,1309.851618L896.651464,1310.934256L895.694115,1310.467457L895.600883,1307.188610L895.315108,1306.207206L892.805232,1303.620123L885.053566,1300.684346L881.728942,1298.859327L878.239823,1295.178356L875.226379,1290.569409L873.210272,1285.457103L872.663323,1280.243563L877.323212,1246.718255L878.898578,1241.200996L879.145508,1239.283171L879.002126,1237.590311L878.507429,1237.056019L877.730329,1238.630773L876.438755,1237.747786L872.722747,1238.501418L866.558252,1240.694825L865.529940,1241.583436L864.964352,1241.926507L864.357896,1242.202089L866.571061,1230.239582L866.632553,1228.912288L866.536081,1227.584994L866.262489,1226.285821L858.739052,1202.006425L855.464038,1196.444144L855.238516,1195.111221L857.362888,1191.523012L861.851018,1179.009260L860.558282,1177.620091L850.703233,1173.525697L838.554928,1164.611384L835.920389,1169.166965L832.922768,1172.457105L829.321019,1174.729269L824.853982,1176.219674L821.136913,1176.793339L817.081165,1176.748345L813.127089,1175.910345L809.734025,1174.071242L807.715388,1171.911561L803.799371,1164.003972L801.127953,1160.373565L800.697206,1159.136245L800.909466,1158.450094L802.366027,1155.061523L804.588409,1146.940192L812.065258,1130.241931L814.732360,1125.975964L817.928365,1122.466451L819.591168,1121.417533L829.733702,1116.853474L831.283538,1115.618955L839.852622,1105.222554L843.111058,1100.267594L843.805327,1095.723198L842.604660,1093.234464L839.128460,1088.670376L837.826556,1086.071965L837.354422,1083.982548L837.149960,1077.719918L835.652298,1073.504518L829.424030,1067.171567L827.630377,1062.956156L827.573315,1060.526457L827.720898,1058.841977L827.358175,1057.247486L825.799517,1055.079314L823.517273,1052.728350L823.612443,1051.752531L825.836757,1047.497732L833.333376,1036.490022L834.240268,1035.157942L836.472852,1032.565119L839.171505,1030.517855L854.104327,1022.477835L855.911719,1021.080179L859.356125,1017.382155L861.489292,1016.029493L864.026299,1015.475492L866.217848,1014.496850L867.589657,1012.637992L867.637910,1009.446154L866.900302,1005.947783L865.990418,1003.830198L864.267110,1002.651886L858.864190,1001.597311L857.255070,1000.649599L856.072546,999.043831L855.146903,996.690016L854.838728,995.399214L854.915659,994.544303L855.715606,992.688245L856.117557,992.229855L857.390439,991.560549L857.859078,991.014980L857.937104,990.207876L857.576414,989.572316L857.089226,988.995812L856.757639,988.343379L855.110963,976.641737L854.334603,975.154070L851.338679,972.713057L849.060032,968.685944L850.751794,964.813498L854.515880,961.551302L858.523596,959.352130L877.506247,953.643274L878.459768,952.855845L878.882213,951.337231L878.689354,950.369817L877.160638,946.893873L876.578716,944.987164L875.642563,939.013925L875.567691,936.207286L876.290107,934.522738L879.702854,931.904516L881.539294,929.949988L882.031980,928.152945L882.065495,926.114046L882.495499,923.462068L883.545836,921.200994L891.850533,911.206534L893.681718,909.479783L895.818842,908.152378L899.006233,906.751853L899.716421,905.759110L903.732940,897.057835L904.392887,894.633623L905.246276,881.975382L904.956445,878.336235L903.916287,874.941757L901.783855,871.862257L899.679319,869.418342L898.006665,866.606010L897.219350,863.473070L897.810301,860.075768L899.538785,857.623410L906.889368,852.454331L912.735155,844.261978L915.165682,842.349583L917.496048,842.027256L921.997416,841.404635L936.721712,844.846945L943.853596,844.081987L956.182768,838.986018L962.377693,837.478601L973.295591,837.495475L984.910362,839.435994L996.113292,843.660136L998.691832,843.783879L999.712825,840.510309L999.710248,840.425459L999.518997,834.143157L998.731660,808.860130L997.912624,783.577093L997.091994,758.294101L996.270399,733.011211L995.428665,707.722854L994.577796,682.445959L993.717879,657.163708L992.849736,631.881782L991.983799,606.600236L991.091323,581.319125L990.202328,556.038507L989.317637,530.764060L988.418026,505.487403L987.514016,480.211406L986.606145,454.933311L985.695151,429.655987L973.788975,423.012037L961.885451,416.379392L949.984098,409.743995L938.084736,403.100223L926.187867,396.462135L914.283837,389.832543L902.401170,383.188957L890.501703,376.556681L878.614060,369.919882L866.729037,363.287752L854.846054,356.647246L842.965476,350.009607L831.087099,343.369208L819.211281,336.737290L807.337635,330.102604L795.466241,323.467958L783.587152,316.827726L771.730155,310.198771L759.855688,303.564222L747.992810,296.918453L736.132484,290.283950L724.274334,283.649464L712.408428,277.009369L700.564523,270.380529L688.703097,263.746072L676.863116,257.105995L665.015868,250.477161L653.160648,243.837077L641.326841,237.191362L629.476178,230.562501L617.637170,223.928000L605.800073,217.287857L593.965394,210.658935L582.122709,204.018739L570.301723,197.384134L558.463328,190.749494L546.636546,184.109192L534.811809,177.468847L525.066809,172.000067L522.989280,170.834077L511.178511,164.199257L499.350317,157.564382L487.533711,150.923827L475.719456,144.294455L463.906892,137.653772L452.086622,131.013019L440.287971,124.377816L428.471891,117.742536L416.667378,111.101552L404.865194,104.471730L393.064856,97.836196L381.266364,91.194947L369.470036,84.559226L357.665843,77.917781L345.883160,71.279044L334.092928,64.645824L322.294837,58.006870L310.518251,51.370612L298.724416,44.739861L286.942067,38.100550L275.161581,31.455490L263.383267,24.815924L251.597274,18.176224L239.832788,11.539199L228.051080,4.907658L219.373105,0.000000L217.459977,0.272806L213.348152,2.469307L208.011473,5.309830L202.674263,8.155950L197.336372,11.002044L192.007431,13.845300L186.668260,16.694155L181.328342,19.540172L175.978050,22.386164L170.636792,25.232131L165.294867,28.078074L159.952349,30.926804L154.609027,33.769887L149.264975,36.610133L143.910560,39.450357L138.584750,42.296181L133.238875,45.141983L127.882642,47.987763L126.255797,48.875055L127.556958,55.684193L128.849958,62.503150L130.132904,69.321989L131.434803,76.135089L132.726738,82.950892L134.018498,89.772212L135.319673,96.593429L136.600858,103.403302L137.901468,110.224328L139.191960,117.039641L140.492050,123.860492L141.782042,130.675638L143.071800,137.490706L144.371193,144.311324L145.248836,148.933335L146.126385,153.555316L146.939917,157.941110L147.029494,160.089015L147.240817,165.756757L147.555528,173.769125L147.907044,182.962175L148.257744,192.149519L148.570880,200.167299L148.790097,205.834816L148.869115,207.982619L148.964382,210.833232L149.394255,212.581831L150.911026,214.184243L155.418426,216.708741L157.251309,218.080627L160.592771,222.359332L162.919770,226.126383L164.549558,228.797051L166.198644,231.456470L167.838212,234.121509L169.477868,236.786546L171.117612,239.451581L172.767053,242.110992L174.397499,244.787268L176.047120,247.446675L177.687225,250.111704L179.317680,252.776732L180.967708,255.441759L182.608088,258.106786L184.248562,260.771812L185.889130,263.436839L187.539403,266.096244L189.170550,268.766894L190.790993,271.392565L187.046279,273.759606L184.815354,277.959560L184.152886,282.991639L185.036810,287.894409L186.221699,290.649409L187.612063,293.016463L189.346729,295.096774L197.172884,301.725669L199.869019,304.879885L205.522838,311.503194L211.177777,318.132155L216.823829,324.755526L222.480640,331.378934L224.777849,334.072165L226.170158,336.439290L226.417495,338.232911L225.769047,340.094007L223.928461,343.931475L220.320625,351.440589L216.711711,358.946958L213.111496,366.450587L209.510308,373.954294L208.151474,376.781598L205.402787,385.322882L205.166688,389.860658L204.901260,394.820194L204.635992,399.791011L204.360597,404.750617L204.095119,409.721502L203.829205,414.678363L203.563440,419.646504L203.297363,424.606242L203.031362,429.574448L202.765175,434.539874L202.508566,439.502520L202.232355,444.468009L201.965718,449.430716L201.699075,454.399077L201.432101,459.359033L201.165116,464.324641L200.898051,469.293090L200.630646,474.253132L200.363284,479.221638L200.095576,484.181736L199.818192,489.153108L199.550104,494.110448L199.282110,499.079062L199.023538,504.039266L198.755212,509.007932L198.486649,513.973810L198.217848,518.936902L197.948934,523.902829L197.679775,528.865969L197.400776,533.834756L197.131183,538.795130L196.861590,543.763962L196.591614,548.724381L196.321632,553.693257L196.051388,558.659343L195.780942,563.625449L195.520017,568.588764L195.249096,573.552100L194.968236,578.518266L194.696889,583.481640L194.425326,588.445033L194.205007,592.472091L194.153605,593.411256L193.881660,598.377497L193.609490,603.343755L193.336966,608.304407L193.064459,613.276324L192.791468,618.237008L192.508567,623.203332L192.235220,628.169672L191.971550,633.141651L191.697713,638.108021L191.423625,643.074404L191.149163,648.035177L190.874689,653.007212L190.599711,657.968011L190.324594,662.934447L190.039288,667.895270L189.763758,672.867354L189.487836,677.833825L189.211641,682.800306L188.935049,687.761174L188.658297,692.727675L188.391071,697.694187L188.113632,702.655082L187.826216,707.621611L187.678337,710.377673L187.379229,711.666005L187.120716,712.779386L185.917079,714.787376L182.770154,718.634623L177.584786,724.973589L172.388708,731.335065L167.190914,737.679677L161.991865,744.029923L156.791331,750.374553L151.589650,756.730440L146.396297,763.080708L141.191640,769.425358L135.985717,775.775637L130.778305,782.120296L125.579551,788.476207L120.379307,794.826495L115.167860,801.176785L109.954922,807.521451L104.731095,813.882990L99.515281,820.222029L95.922393,824.609295L90.473798,831.240814L85.398521,837.411104L82.763351,841.646497L80.013383,846.084376L77.243034,850.513815L74.491970,854.954501L71.740182,859.386746L68.968111,863.816175L66.215226,868.251224L63.451934,872.686270L60.687919,877.112873L57.923378,881.542285L55.168191,885.977315L52.402594,890.412340L49.636323,894.841734L46.879453,899.279560L44.102239,903.711754L41.344259,908.152378L38.575583,912.576122L35.882879,916.870493L33.520707,922.750561L30.533472,930.166533L29.171829,933.549694L28.694052,935.633584L28.613500,937.948078L29.033191,940.169765L30.446389,944.812804L30.600175,947.028861L29.794886,949.579574L28.361954,950.431686L26.544185,950.606046L24.642915,951.098190L23.706095,951.902493L20.725481,955.696214L18.868948,957.161393L18.533383,957.723842L18.689943,958.289103L19.729672,959.312759L20.054790,959.956762L20.730617,964.116063L20.654255,966.143685L19.947091,968.120685L16.794761,971.104462L15.255943,971.435870L13.007927,971.920009L9.154798,972.274350L5.743981,973.863258L3.333349,975.210315L0.287175,980.058588L0.355464,986.470445L2.291639,994.029669L3.704634,999.569713L4.774448,1004.566993L5.496194,1008.037244L6.237498,1011.504679L6.978748,1014.974922L7.709929,1018.436725L8.441181,1021.909774L9.181979,1025.368757L9.912998,1028.838986L10.643880,1032.306399L11.384475,1035.770996L12.115290,1039.246838L12.845802,1042.708616L13.576343,1046.178828L14.316517,1049.640599L15.046866,1053.110804L15.786931,1056.578193L16.517089,1060.048391L38.824370,1094.120285L61.133442,1128.191905L94.832547,1127.848828L96.496381,1129.029913L100.958061,1136.624496L101.065981,1136.808196L102.440582,1138.442027L103.262601,1140.053361L103.574532,1141.855918L103.458420,1144.071852L102.050236,1149.049265L102.020689,1150.435628L103.029474,1152.013213L105.984458,1154.501917L107.728659,1156.464757L107.787026,1160.573223L107.998021,1161.540582L108.360344,1162.049570L108.923640,1162.122685L109.747329,1161.776798L109.762440,1162.842580L109.904899,1163.846495L110.347375,1164.442658L111.262538,1164.285181L113.065141,1162.713224L113.694057,1162.544498L114.438756,1162.887573L114.634133,1163.447179L114.683181,1164.122080L115.027799,1164.771673L116.711882,1165.966810L117.332435,1166.596718L118.905200,1167.592197L121.714512,1166.748570L123.242173,1167.344733L123.918727,1169.133220L122.568618,1172.704569L123.698964,1174.498679L125.111020,1171.810326L125.609186,1171.461627L126.492227,1171.815950L127.343494,1172.710193L127.990552,1173.812530L128.261681,1174.841753L128.996919,1176.596493L130.657467,1176.815835L133.792847,1175.989083L134.929682,1178.227501L138.276206,1191.590502L137.929228,1192.175414L137.183158,1193.851411L137.015579,1194.565678L136.973345,1195.774870L137.114331,1195.977340L137.539584,1196.044829L138.350302,1196.860331L138.155242,1196.320413L138.539210,1196.258547L139.164186,1196.494761L139.652833,1196.860331L139.757589,1197.293391L139.617218,1198.541951L139.683125,1199.020004L141.032977,1201.691473L142.776290,1209.936466L142.602302,1210.909442L142.568922,1218.479528L142.419355,1219.801199L141.960883,1221.629042L141.978813,1222.933840L142.266298,1223.743715L142.746633,1224.221766L143.159188,1224.795427L143.312647,1225.909004L142.927768,1226.634517L142.209760,1226.820113L141.732642,1227.298164L142.060310,1228.884168L142.554270,1229.637800L145.027904,1231.516258L147.167987,1234.266455L148.526671,1235.453145L149.669215,1235.267549L151.279296,1233.900887L152.994037,1233.692794L154.782345,1234.530789L156.623037,1236.308011L156.168323,1236.982906L155.829031,1238.158347L155.817171,1239.457519L156.324967,1240.497981L157.037844,1241.375343L157.106206,1242.044614L156.880624,1242.876983L156.731024,1244.215523L157.730026,1245.807148L159.390254,1247.381901L159.821406,1248.596709L157.093252,1249.080383L156.695025,1249.564057L156.926839,1250.643887L157.416023,1251.774334L157.789683,1252.392986L158.188711,1253.427823L157.550067,1254.389546L156.643990,1255.289404L156.181505,1256.138645L156.425498,1258.866339L157.100091,1260.576068L158.237535,1261.459053L159.870030,1261.706514L160.507775,1262.876328L162.941675,1269.141583L162.423235,1270.249532L160.894784,1271.891770L160.375226,1272.920981L160.549075,1273.370910L161.580529,1274.450737L161.708359,1275.153750L161.320220,1275.671168L160.679383,1275.749905L160.056656,1275.704912L159.702792,1275.828643L158.982992,1278.151397L158.843082,1280.271683L159.148034,1282.431338L160.723230,1287.318680L161.755879,1289.247746L164.492098,1293.055260L165.664022,1296.575944L164.428969,1299.579211L160.084041,1305.012086L159.239662,1306.943962L158.654382,1309.058621L158.124235,1314.722082L157.681256,1316.395250L157.697103,1317.640986L158.003797,1318.453667L158.513767,1318.937339L158.945921,1319.516620L159.038913,1320.616130L158.419545,1322.413027L156.262012,1326.020881L155.799539,1327.739040L155.212177,1334.479512L156.076943,1345.616396L156.799241,1354.931511L159.493270,1361.888509L160.491480,1363.513870L161.117698,1365.431685L160.824174,1368.114376L159.684614,1372.765498L160.000862,1376.862648L167.495597,1392.742272L168.258287,1395.363099L168.140294,1397.081260L167.204152,1399.001889L166.652128,1401.645213L166.624492,1404.333531L167.271691,1406.406011L167.871706,1406.988105L168.757139,1407.460529L169.818680,1407.775479L170.907569,1407.893585L171.918692,1408.124173L172.567298,1408.633154L173.037983,1409.144947L174.977732,1410.154472L175.849845,1412.013237L177.232131,1416.065401L178.636551,1417.792000L179.905857,1418.956189L180.840746,1420.269416L181.231628,1422.412199L181.461490,1425.165198L182.090371,1427.375471L183.150408,1429.251110L196.491465,1443.018927L200.117594,1448.733026L201.492764,1449.635696L201.448759,1450.108122L205.899337,1454.416195L212.328001,1458.718645L215.704555,1459.919395L219.897167,1464.127280L218.232089,1464.689694L196.825996,1470.611913L191.427205,1470.775013L175.278805,1464.909035L169.588651,1464.644701L165.203149,1465.187430L164.355710,1465.474261L163.285684,1466.205399L161.603911,1467.971379L160.612958,1468.702517L157.920308,1469.397099L154.989911,1469.158073L149.394953,1467.659239L144.991489,1467.479267L133.019338,1471.694560L129.179091,1471.469595L101.154018,1463.688597L77.807303,1465.447506L76.407036,1465.552999L75.629218,1465.896072L75.410098,1466.703135L75.371656,1467.766098L75.165432,1468.865617L70.623442,1479.284343L67.673031,1483.896145L59.925108,1491.553427L54.201544,1500.982325L54.375800,1502.602082L62.958421,1510.110338L90.576052,1545.548250L91.561418,1550.221946L93.356510,1553.689256L114.817464,1572.992881L136.280461,1592.296536L137.820151,1592.842084L138.708026,1592.515880L139.547903,1592.347154L140.389554,1592.364026L141.282643,1592.583370L142.617228,1593.418564L146.429249,1596.573743L147.290539,1597.605784L147.788557,1598.955593L148.427095,1599.470208L149.132761,1599.757043L149.822203,1600.417887L150.376451,1601.435868L151.264139,1604.197354L151.504467,1605.521855L151.514069,1606.531400L151.867440,1607.251299L153.158751,1607.692799L156.738706,1608.294589L159.182514,1609.152281L161.178240,1610.780490L162.792977,1612.948623L166.903815,1620.428825L172.497209,1626.581716L173.972831,1628.699234L176.618805,1634.938236L189.809614,1666.046889L195.885824,1689.381832L199.245079,1698.324370L203.796072,1702.075738L205.857592,1702.176974L208.876269,1702.958744L211.000625,1703.436804L211.030541,1714.567179L209.819447,1721.029436L207.285660,1726.985512L203.411913,1732.733492L206.731826,1733.937081L210.221876,1734.190172L217.198118,1733.115941L221.392766,1733.492766L226.372719,1738.678323L230.061397,1740.101258Z "/></g></svg>