<?xml version="1.0" encoding="utf-8"?><!DOCTYPE svg  PUBLIC '-//W3C//DTD SVG 1.1//EN'  'http://www.w3.org/Graphics/SVG/1.1/DTD/svg11.dtd'><svg enable_background="new 0 0 1000 239" height="239px" pretty_print="False" style="stroke-linejoin: round; stroke:#000; fill: none;" version="1.1" viewBox="0 0 1000 239" width="1000px" xmlns="http://www.w3.org/2000/svg" xmlns:xlink="http://www.w3.org/1999/xlink"><defs><style type="text/css"><![CDATA[path { fill-rule: evenodd; }]]></style></defs><metadata><views><view h="239.82272511" padding="0" w="1000"><proj flip="auto" id="robinson" lon0="70.2417843199"/><bbox h="55.42" w="232.06" x="680.09" y="775.03"/></view></views></metadata><g class="" fill="#000" id="country"><path d="M930.650499,192.195014L933.442035,190.467466L939.681552,184.632348L939.809467,180.366289L934.420148,179.550008L928.798633,179.838111L926.917426,182.375980L927.017061,185.043815L928.043429,187.443858L926.798460,190.467466L927.012951,192.750261L930.650499,192.195014Z M890.912388,237.822725L897.692234,237.481050L904.208150,233.838211L911.175831,225.208792L917.554485,226.125340L921.338741,227.554755L926.813340,231.349811L933.401084,233.701499L937.458834,233.086274L942.111418,230.255855L944.962280,231.083167L945.352125,233.277680L949.299516,236.387628L957.416264,237.733891L960.249885,237.440049L965.901947,234.685796L967.360642,232.149707L970.467689,230.187479L973.605636,228.977176L971.735061,225.277194L967.768808,223.785967L962.430955,224.374269L959.935956,229.387461L955.911523,228.847250L949.694145,226.214256L946.937243,222.438249L946.346302,219.455011L947.401430,218.236900L950.436644,218.763849L953.261126,217.559365L956.361046,215.369134L958.185626,212.514490L962.578256,212.261173L972.198355,212.124243L975.426387,214.130137L977.325292,217.860496L979.301960,218.592764L981.980659,218.503799L983.997036,216.888643L984.009954,213.712550L990.298808,211.049301L994.822004,206.693972L997.559570,202.200398L997.906397,197.671302L996.723890,193.949809L992.992535,192.352679L988.282341,192.174449L985.854148,193.428873L980.062488,197.534245L971.872243,197.609627L966.953322,199.281638L958.140334,203.611627L952.799993,205.474806L946.585765,206.652878L943.465383,206.714519L939.941414,206.002210L934.260195,200.816450L937.494587,196.766705L944.914600,197.116214L949.202051,196.300682L947.238098,193.113562L950.171043,186.024441L946.872821,186.257589L931.187352,195.519378L928.222128,196.163613L923.918735,195.752402L917.267993,193.812722L917.852922,189.295106L923.622296,183.679082L924.854131,181.031636L927.635341,178.301513L929.332258,171.625589L926.823127,170.699166L928.758917,168.667761L929.242919,165.531080L928.489312,163.924826L925.317028,164.261187L922.049089,166.553808L916.710976,172.298080L911.042604,177.437126L909.328322,182.876656L905.325764,187.690702L901.990750,192.688568L902.160032,195.341181L902.824681,197.541098L904.722496,197.979677L905.752781,199.637947L901.175826,201.542695L899.333118,204.317195L900.299935,208.084252L897.244446,212.891034L898.654391,215.574482L897.854896,219.229190L895.094688,223.101863L891.677369,226.645145L889.310950,230.105428L887.488759,233.722006L887.981530,237.105197L890.912388,237.822725Z M10.797986,7.948277L10.534203,4.770013L9.415773,2.251047L7.603896,0.000000L2.093603,3.287428L3.218906,7.117631L6.525307,8.566130L10.797986,7.948277Z "/></g></svg>