<?xml version="1.0" encoding="utf-8"?><!DOCTYPE svg  PUBLIC '-//W3C//DTD SVG 1.1//EN'  'http://www.w3.org/Graphics/SVG/1.1/DTD/svg11.dtd'><svg enable_background="new 0 0 1000 1291" height="1291px" pretty_print="False" style="stroke-linejoin: round; stroke:#000; fill: none;" version="1.1" viewBox="0 0 1000 1291" width="1000px" xmlns="http://www.w3.org/2000/svg" xmlns:xlink="http://www.w3.org/1999/xlink"><defs><style type="text/css"><![CDATA[path { fill-rule: evenodd; }]]></style></defs><metadata><views><view h="1291.71603652" padding="0" w="1000"><proj flip="auto" id="robinson" lon0="70.2244886172"/><bbox h="636.96" w="493.49" x="576.57" y="193.69"/></view></views></metadata><g class="" fill="black" id="country"><path d="M661.049285,1284.517545L660.908415,1284.095341L660.286581,1283.562839L659.399201,1282.295951L658.387073,1282.145306L657.132112,1282.433142L657.046420,1282.659097L657.281410,1282.868906L657.955933,1282.984567L658.319245,1283.113674L658.606621,1283.353053L658.805779,1283.595113L659.049423,1283.759171L659.486574,1283.788754L660.314667,1284.861740L660.660702,1284.918208L661.049285,1284.517545Z M630.679207,1276.730581L629.937681,1276.394038L629.515965,1276.297110L629.039147,1276.337497L628.687307,1276.523272L627.922615,1277.220560L628.391706,1277.516684L628.960019,1277.653973L630.281403,1277.653973L630.656074,1277.882783L631.068983,1277.888167L631.489271,1277.667433L631.889252,1277.220560L632.173184,1276.684812L632.035091,1276.563658L631.127059,1276.768273L630.679207,1276.730581Z M655.911898,1272.195352L656.551492,1271.441009L657.270528,1271.101530L657.354998,1270.875202L656.372260,1270.950646L653.081675,1272.233068L653.272307,1272.567109L653.597449,1272.677554L654.008245,1272.615597L654.445736,1272.459355L655.242214,1272.744899L655.911898,1272.195352Z M650.970295,1263.327378L652.016184,1262.712480L652.575180,1262.011231L651.855805,1262.011231L650.962721,1262.286343L650.066000,1262.734056L649.325104,1263.257260L648.001497,1264.389866L647.674897,1264.616370L647.313277,1264.810512L646.958110,1265.045094L646.653270,1265.403696L646.604274,1265.640959L646.503584,1266.573769L646.419245,1267.010483L645.789019,1268.716684L646.131326,1268.972718L648.762270,1268.147989L648.573335,1267.846107L649.237170,1267.625079L649.694567,1267.293526L649.677393,1266.670818L649.760818,1266.190951L650.264067,1265.781156L651.398589,1265.204175L651.767909,1264.931848L652.292510,1264.481547L652.797159,1263.963807L653.106465,1263.483793L652.754208,1263.478399L650.458951,1263.823581L650.970295,1263.327378Z M649.127411,1261.110319L648.447091,1261.282955L647.642181,1261.906039L646.858563,1262.750238L646.229636,1263.597057L646.239393,1263.640205L645.507941,1264.794334L645.397573,1264.891403L645.459583,1265.204175L645.683822,1265.290455L646.074016,1265.128680L646.492352,1264.826690L647.185662,1264.130997L647.928796,1263.160173L648.353042,1262.690904L648.660826,1262.480534L648.941185,1262.356468L649.186630,1262.205428L649.376385,1261.897947L649.297811,1261.763084L648.995760,1261.800846L649.127411,1261.110319Z M655.564492,1261.962681L656.034422,1261.817030L656.468815,1261.541904L656.828473,1261.110319L655.957179,1261.064462L655.010297,1260.190438L654.142014,1260.182345L654.140290,1260.837871L654.338402,1261.355786L654.672668,1261.746900L655.083386,1262.011231L655.564492,1261.962681Z M632.088777,1289.716037L633.374855,1289.329130L634.678269,1288.705725L636.237632,1287.163052L636.188327,1285.095675L637.047207,1283.726898L637.329761,1284.388466L637.024612,1285.802803L637.706146,1286.496407L638.104342,1285.660308L638.922784,1285.162896L638.818603,1284.695023L638.865134,1283.775307L638.893403,1282.868906L639.435644,1284.224425L640.465185,1284.807961L640.444386,1283.904398L640.227608,1283.113674L640.436591,1283.038362L640.644567,1282.965738L640.680098,1282.271740L641.397870,1282.013489L641.781497,1283.124433L641.875183,1284.466451L643.039875,1284.482586L644.244211,1284.579394L644.989696,1285.754409L645.942335,1286.738343L647.422095,1287.047470L648.983510,1287.152300L649.722395,1287.576980L650.588355,1287.845748L652.206001,1286.921133L652.968020,1285.095675L652.314462,1283.866747L651.902614,1282.546120L652.739265,1282.812420L653.303080,1283.562839L653.596261,1282.901184L653.373825,1282.433142L654.621405,1282.355131L655.398137,1283.065259L654.994404,1284.431493L654.595504,1285.821622L654.982408,1287.047470L655.412296,1288.313376L657.035046,1289.055055L659.259752,1288.966381L660.499144,1289.498405L661.956838,1289.450041L663.015943,1288.759470L664.125537,1288.501492L665.471772,1288.522991L666.698354,1287.485595L665.755018,1286.700709L664.253787,1286.289409L666.689929,1286.189940L668.957692,1284.856363L668.782190,1283.398777L666.854720,1283.253537L665.969127,1282.839318L664.979221,1282.581090L663.724181,1282.739794L662.461081,1283.070639L662.215723,1284.824095L663.527372,1286.289409L661.732178,1285.523188L659.966466,1284.727291L657.880335,1284.385777L656.165365,1283.468705L656.210726,1282.772072L656.413777,1281.983897L656.177357,1281.698731L655.890556,1281.456600L655.865191,1280.961547L655.478349,1280.477220L654.883063,1280.003622L654.581052,1279.236644L656.029905,1279.850233L657.198751,1280.853922L657.127449,1279.793721L657.274008,1279.236644L657.971596,1278.808713L658.559928,1278.997114L658.990881,1279.809867L659.496103,1280.514891L660.148790,1280.374969L660.865088,1280.157007L660.457673,1279.637636L660.085719,1279.091312L660.466123,1278.945977L660.846538,1278.800639L659.829414,1278.001223L658.671069,1277.427848L660.685518,1277.153257L662.490569,1277.540912L663.617994,1277.767033L664.850178,1277.715887L665.995250,1277.355163L667.113936,1277.064416L669.555532,1277.764342L669.734721,1280.383041L672.127352,1280.092424L674.389920,1280.383041L672.932738,1279.223187L671.103421,1278.378064L671.739038,1278.065826L672.077035,1277.495148L672.862599,1277.040187L673.575640,1277.392852L675.361689,1277.653973L677.543111,1276.030553L678.899580,1274.684152L679.823004,1273.113934L679.761381,1271.915176L679.709469,1270.648868L680.149866,1269.023924L679.254295,1268.277364L677.662409,1267.714030L675.798376,1267.635861L673.868978,1268.379784L672.183593,1270.233906L670.800449,1271.044949L669.436243,1271.125779L669.675605,1270.783592L669.911366,1270.422528L668.523228,1269.856648L666.827616,1270.309355L665.657640,1270.718925L664.530383,1271.128473L663.959257,1271.640378L663.287556,1271.818190L662.657579,1272.055265L662.438808,1272.661392L661.863945,1272.620985L661.245060,1272.771836L661.165120,1273.240534L661.041277,1273.808857L659.991801,1274.414841L658.900695,1275.392390L658.853028,1274.861891L658.962479,1274.264023L657.658253,1275.163499L656.328479,1276.006320L654.647201,1276.073633L652.982340,1275.847457L655.341820,1275.260442L657.424741,1274.037790L655.525644,1274.258637L653.411341,1274.616825L651.133464,1274.781101L648.854603,1274.942680L650.698353,1274.253251L652.407830,1274.037790L652.452121,1273.919285L652.499426,1273.792697L651.501566,1273.784617L651.122996,1273.132790L650.282340,1272.971171L650.717598,1272.346212L649.198929,1271.893624L650.573410,1271.451785L651.964074,1270.875202L650.779376,1270.382109L648.578364,1271.505670L647.686649,1271.950199L646.844207,1272.313885L646.598050,1271.950199L647.590967,1271.376347L648.517404,1270.826703L650.540309,1269.614116L652.636234,1269.961743L653.157308,1270.188097L653.666775,1270.422528L655.201766,1270.266242L656.801845,1269.969828L657.099930,1269.169455L655.596959,1268.843355L656.932766,1268.358222L657.924334,1267.916188L657.062117,1267.436392L655.747148,1267.463347L656.361707,1266.784041L657.421159,1266.331140L657.050505,1266.048065L657.142786,1265.177213L657.486781,1264.276612L655.174206,1265.694881L652.815163,1268.538803L652.221320,1268.794843L651.957315,1268.460641L652.369192,1268.131817L652.845973,1267.455261L652.906161,1266.837956L652.754646,1266.331140L649.688651,1268.530717L646.574743,1269.479373L645.592316,1269.864733L644.778792,1269.511712L645.033625,1268.482203L645.354081,1267.290830L645.118006,1266.126248L644.304521,1265.630174L642.467171,1267.145266L641.886632,1269.517101L641.129418,1269.172150L640.344757,1268.843355L641.070596,1267.422914L641.911831,1266.185560L643.972450,1264.966901L645.360581,1263.168263L644.447006,1263.570089L643.533155,1264.071672L644.703883,1262.747541L646.330178,1261.897947L647.617985,1260.748851L648.089108,1259.502494L647.082558,1260.263277L646.638951,1259.502494L648.000524,1258.973689L649.162110,1258.326135L648.980942,1257.781079L648.383854,1257.713620L645.943580,1258.903540L643.721508,1261.110319L643.680053,1260.306440L642.663683,1260.657134L642.578262,1261.784662L642.010330,1261.498747L641.346702,1261.649798L640.846134,1262.003139L640.334250,1262.334891L643.449615,1259.170646L647.824025,1256.788032L646.912129,1256.334653L647.339180,1255.654550L647.030863,1254.944714L647.570820,1254.523650L646.045546,1254.396787L644.296146,1254.958210L643.483677,1255.859665L642.728755,1256.661196L642.934615,1257.111862L642.485583,1258.099482L641.559495,1258.601351L641.189645,1259.265075L640.895936,1259.977316L639.831257,1259.939547L638.573397,1260.479091L637.856074,1260.754247L637.802412,1261.358483L638.156365,1262.173062L638.544644,1263.079266L638.945964,1264.012347L639.220562,1265.010042L638.215598,1264.713442L636.981810,1264.691870L636.349232,1266.401233L636.271635,1267.641252L635.576726,1267.199179L634.468001,1267.425610L633.936928,1268.390565L634.695243,1268.595402L634.410768,1269.056265L634.130498,1269.517101L635.144744,1269.506322L636.163846,1269.517101L635.405170,1269.754247L634.643604,1270.196181L635.820822,1270.783592L637.875669,1270.648868L635.608151,1271.602660L633.930612,1272.661392L633.529346,1272.144167L633.296176,1271.667319L632.977604,1272.103757L633.018963,1272.661392L632.998863,1274.064723L634.160087,1274.942680L633.676278,1275.007311L633.166088,1275.166192L633.454375,1275.893231L634.997401,1275.664357L635.941307,1275.392390L635.643003,1275.955161L635.521375,1276.523272L633.699920,1276.717120L631.913220,1277.958154L633.000710,1277.877400L633.525518,1278.028141L633.328451,1278.986348L633.598424,1280.116643L632.260137,1281.149887L630.868555,1281.881669L631.109505,1282.659097L630.281374,1283.554771L629.260397,1284.533679L628.377197,1285.450593L627.864856,1286.708774L627.322760,1287.388834L626.997045,1288.176317L627.253179,1289.334504L628.225366,1289.570949L629.482556,1289.546768L630.765042,1289.511839L631.275655,1289.458102L631.703773,1289.420485L631.855036,1289.576323L632.088777,1289.716037Z M637.023490,1254.089073L637.484645,1253.794847L637.348536,1253.389937L636.865269,1253.389937L636.105276,1253.576197L635.594863,1253.835337L635.856923,1254.051283L636.354956,1254.199743L637.023490,1254.089073Z M641.216759,1252.709656L641.874550,1252.345204L642.115612,1251.837652L641.923396,1251.481273L641.276931,1251.559569L640.720804,1252.075232L640.453423,1252.744751L640.582861,1253.114590L641.216759,1252.709656Z M215.252570,1179.877358L215.010659,1179.224191L214.858196,1178.965094L214.632566,1178.762679L213.976223,1178.716798L213.571656,1178.619641L213.429075,1178.414533L213.425390,1177.642716L213.045578,1177.194764L212.435082,1177.130002L210.301241,1178.328173L209.882580,1178.819355L210.013971,1179.669528L210.314489,1180.282233L210.686616,1180.784297L211.214247,1181.110921L211.975246,1181.237794L212.395188,1181.038037L212.831976,1181.059633L213.712014,1181.237794L215.252570,1179.877358Z M175.201891,1170.488693L175.681857,1170.121967L176.005505,1169.474839L176.031737,1168.808888L175.869280,1168.202296L175.630478,1167.727836L173.429760,1168.161858L172.986834,1168.423360L172.874630,1169.148598L172.960031,1169.698632L173.271294,1170.038377L173.841557,1170.121967L174.749325,1170.491390L175.201891,1170.488693Z M989.743324,925.170151L989.937678,924.952545L989.904049,924.687494L989.706422,924.199191L989.592143,924.081988L989.390993,923.967573L989.130326,924.081988L988.931978,924.335923L988.924853,924.910696L988.976572,925.100407L989.495609,925.203628L989.743324,925.170151Z M998.856140,896.125642L999.601292,895.471433L999.612618,894.412765L998.984094,893.609523L997.828911,893.721870L997.097655,894.693596L997.269826,895.755026L997.977007,896.400782L998.856140,896.125642Z M17.813343,366.290986L17.845912,365.556145L17.666017,365.456693L17.663174,365.763336L17.687684,366.277173L17.440147,366.639069L17.058062,366.677745L16.898858,366.478840L17.010498,366.263360L17.161860,366.136282L17.282969,365.959478L17.220269,365.594821L17.061860,365.495369L16.746788,365.531282L16.400349,365.647309L16.176551,366.011967L16.204551,366.583818L16.394391,366.976103L16.668185,367.175009L17.254689,367.075556L17.813343,366.290986Z M0.471916,335.902048L0.416810,335.824705L0.387382,335.915859L0.471916,335.902048Z M98.718917,187.087860L98.113658,186.974565L97.694059,187.187338L98.480944,187.612883L98.718917,187.087860Z M449.797432,147.174408L449.596352,147.323628L449.788451,147.475611L449.797432,147.174408Z M243.081832,0.000000L242.714233,0.505637L243.258860,0.654841L243.081832,0.000000Z "/></g></svg>