<?xml version="1.0" encoding="utf-8"?><!DOCTYPE svg  PUBLIC '-//W3C//DTD SVG 1.1//EN'  'http://www.w3.org/Graphics/SVG/1.1/DTD/svg11.dtd'><svg enable_background="new 0 0 1000 2932" height="2932px" pretty_print="False" style="stroke-linejoin: round; stroke:#000; fill: none;" version="1.1" viewBox="0 0 1000 2932" width="1000px" xmlns="http://www.w3.org/2000/svg" xmlns:xlink="http://www.w3.org/1999/xlink"><defs><style type="text/css"><![CDATA[path { fill-rule: evenodd; }]]></style></defs><metadata><views><view h="2932.9127708" padding="0" w="1000"><proj flip="auto" id="robinson" lon0="1.02126052764"/><bbox h="84.42" w="28.79" x="-2.45" y="-186.72"/></view></views></metadata><g class="" fill="#000" id="country"><path d="M334.539135,117.447297L340.714069,92.733425L332.466856,90.401928L334.263199,88.085472L335.002300,85.708849L335.371356,83.287100L336.057502,80.699891L335.792469,78.864776L335.104764,77.541088L333.994384,76.713782L276.791834,63.555564L232.181433,53.293516L115.589597,26.533944L52.837926,12.123786L26.274562,6.009084L0.170537,0.000000L3.974691,9.626828L12.456698,18.426350L22.855186,24.909416L32.263169,27.616961L41.631858,26.533944L58.995033,21.374566L68.614617,21.194063L85.686729,28.519477L93.403805,42.147454L95.042647,60.167673L93.589327,80.790142L92.373635,88.085472L88.792360,92.086623L84.312402,95.290551L80.215630,100.119007L77.731075,105.594265L66.654791,164.077250L67.051132,169.717970L69.667786,181.164872L68.715999,187.347102L64.301303,192.085308L53.859256,200.042485L46.641908,210.346203L42.755245,220.499502L40.030660,244.837338L38.272755,253.079507L35.138090,267.776279L34.806679,279.915116L40.027386,291.948661L44.521697,296.160402L50.139788,299.183831L56.233890,300.958779L68.052093,302.673559L71.700633,305.411192L74.899723,308.915962L79.526580,312.450817L95.522572,318.407422L100.176039,321.611355L104.221498,327.056535L110.197452,339.992602L114.414985,345.723580L141.492042,364.856929L149.597340,374.543939L175.676598,429.221421L177.157752,431.267126L181.071437,430.815867L183.239360,427.386302L184.613886,423.580688L185.962273,421.895990L199.542234,427.897729L204.460980,428.679910L210.265153,426.980170L215.064238,424.332786L219.704822,422.678171L224.941001,424.031947L229.993035,429.732847L230.219205,436.155761L228.514859,442.322962L227.801913,447.301850L233.542789,457.861303L242.258588,466.721018L247.642518,476.001907L243.149455,487.779764L250.289982,487.689512L272.728643,483.477762L277.635188,486.125148L288.084445,495.857299L275.525180,506.386676L273.094509,515.306564L271.629293,524.858216L267.928681,532.665000L268.780302,552.264696L266.106608,593.494774L271.123049,608.536765L277.618119,613.244909L283.252693,614.779193L287.380233,618.614902L288.917887,630.392786L287.090461,640.038925L286.752145,641.824707L281.038896,643.509411L273.129203,642.035295L264.162324,643.960671L267.205863,649.691674L266.902623,653.392008L265.170894,657.002089L264.167063,662.377650L265.014573,666.288583L271.142193,680.067102L274.623990,691.574275L274.307824,696.342606L270.737414,699.922617L264.178702,707.909951L260.053927,716.739642L259.010947,724.862357L261.331622,748.192607L261.174526,754.811120L250.205483,800.057701L250.948824,810.888006L253.635862,817.160558L257.301521,821.703270L260.716167,827.494476L263.099626,836.053429L264.266483,846.643067L262.840143,856.826571L257.496840,864.001655L248.315265,865.295276L239.714372,859.925244L226.070801,843.770026L218.744448,860.316339L219.118041,877.328962L227.283705,889.528113L243.240494,891.453503L264.011473,885.496827L274.146796,887.692976L278.542621,899.756751L274.998797,907.774199L266.703523,910.421611L257.256021,908.616558L250.229094,903.411985L241.074631,910.150853L228.769780,910.963128L202.994859,907.714030L201.738495,911.444475L199.346203,927.840387L199.518792,931.555791L200.802519,933.225467L204.547665,936.910787L209.616078,940.927035L214.935699,943.514280L227.994944,940.746529L235.232796,941.167709L239.732918,947.470359L237.775852,953.502254L231.227031,958.586493L223.248751,962.091310L201.906095,966.964961L201.854475,975.253176L205.455190,984.549217L201.274751,991.197841L203.604941,998.989670L213.093054,1000.162957L222.620279,998.011931L246.040289,988.791099L249.929853,985.090734L251.940085,980.141870L253.498833,968.363879L256.051590,963.760986L263.817943,959.940285L275.329266,957.623797L295.931199,956.330174L305.551413,958.105145L332.733808,969.266407L336.017164,974.440901L336.918914,980.171954L335.756479,986.143683L332.371114,992.656929L332.265443,993.228530L332.371495,993.800131L332.742212,994.401817L347.988363,1000.253209L357.254672,1009.383790L360.435630,1023.042058L355.682340,1052.554757L354.841500,1069.612562L352.726655,1076.938094L347.540959,1082.970000L341.772104,1086.760625L337.591917,1092.341268L337.119297,1103.818441L343.479011,1124.651845L343.640981,1133.932865L337.450854,1145.816183L325.860341,1157.473872L322.619366,1163.084605L322.675126,1172.185125L319.980746,1190.942730L311.316368,1209.023441L306.053338,1226.833398L312.928513,1244.899077L313.034411,1244.899077L313.034428,1244.959246L337.763320,1292.251937L344.179810,1320.711804L332.911916,1338.968711L332.853530,1339.063309L330.260999,1346.328701L329.522419,1355.399162L327.724268,1363.085738L322.085339,1366.139309L315.438958,1364.935932L310.261968,1363.145907L305.508938,1362.393795L300.107956,1364.424496L302.862309,1366.710914L299.449233,1376.443235L294.075845,1383.167111L288.591401,1370.080373L282.527203,1367.432941L276.066832,1368.786741L272.586233,1374.307239L273.720206,1381.753611L276.975335,1403.128151L291.998557,1439.620617L312.397668,1471.765891L332.899298,1487.530167L341.642014,1498.947235L354.040099,1511.838446L367.391277,1522.729039L400.978997,1540.524030L409.938982,1561.914126L416.568949,1583.951045L436.228815,1602.347740L437.343771,1608.379691L437.187671,1615.058459L438.462625,1623.602470L438.041301,1629.438873L438.360302,1632.191610L440.374144,1634.177191L446.519586,1635.290318L448.427506,1637.275899L450.446746,1651.596148L446.583382,1660.456051L438.374600,1666.217245L415.758351,1677.529041L407.178581,1683.906969L390.126237,1701.220641L385.835838,1703.537153L381.915643,1704.078675L379.267514,1706.335018L378.687354,1713.871206L380.808631,1719.993418L384.783588,1724.310555L388.334987,1729.304596L389.238508,1737.352222L386.433208,1744.888412L382.407888,1748.393266L379.866221,1752.514855L382.573213,1766.805037L384.490075,1794.182023L389.213258,1815.903110L389.482093,1827.064502L389.065772,1848.755510L394.116613,1887.281652L394.485040,1890.091788L394.073322,1924.959882L398.748329,1958.233501L397.646101,1988.679172L399.080955,2000.051174L384.241093,1997.223216L377.673447,2009.076573L376.089369,2027.127373L376.253453,2042.951909L373.341013,2050.773924L366.399377,2054.805271L358.185236,2057.332384L351.455295,2060.731952L346.262964,2066.448040L343.084726,2072.675569L341.231722,2079.835723L339.280078,2113.650909L341.832201,2142.321620L350.108227,2167.953783L366.279909,2184.109268L375.609558,2185.553334L385.786211,2183.477489L404.653915,2175.595297L408.048085,2180.679612L416.277648,2218.857105L415.645983,2231.462600L408.815103,2252.822747L404.053251,2279.838826L391.712653,2314.737107L389.970453,2337.541333L392.258490,2363.745137L391.895419,2389.076487L382.093176,2409.112925L375.466997,2413.264620L353.836771,2419.642585L346.308111,2420.274366L338.832979,2422.891738L344.720581,2431.796823L359.304821,2444.552757L365.352767,2456.857419L364.136050,2466.665048L353.325031,2487.092595L349.881782,2499.337091L351.527033,2504.902771L356.459225,2508.227136L362.717666,2513.672477L377.573856,2544.915500L380.969080,2550.029910L389.772193,2552.135843L398.735517,2557.716566L406.214946,2565.734156L410.566277,2575.135645L411.099627,2584.582261L406.654591,2613.975079L409.522132,2626.144368L416.259338,2633.108992L423.473599,2639.110904L427.984410,2648.361971L432.810517,2648.903497L447.129014,2648.392056L451.796230,2649.475108L458.374884,2656.740580L458.058676,2662.170882L454.454420,2667.631268L451.222059,2675.047165L451.018236,2678.571583L450.326018,2690.540824L453.513205,2704.831093L459.670302,2718.655047L467.789994,2732.734724L478.614209,2745.280076L503.971664,2759.419923L516.863691,2768.640908L533.580552,2791.400045L540.212955,2797.071026L550.716247,2800.260013L589.859798,2800.440522L603.301907,2847.102021L611.264660,2859.978309L615.350654,2863.347804L619.170660,2865.137849L623.044020,2867.514547L626.971832,2872.613918L633.714465,2884.422196L639.234826,2891.657587L646.291896,2895.734076L688.783818,2901.209507L694.836223,2910.445536L693.527446,2930.912771L696.700914,2930.107480L700.794043,2929.728459L737.455996,2911.559143L818.800957,2883.487906L916.187108,2864.939570L916.354136,2864.892193L916.365928,2864.889116L912.648946,2852.742918L923.252410,2846.379986L989.168777,2828.720218L999.829463,2827.998183L990.139035,2785.277792L980.130021,2741.564606L966.903310,2717.541911L962.498168,2713.811398L951.461375,2707.388298L948.064484,2704.244439L946.946483,2699.160112L948.208809,2686.674931L947.567469,2680.823441L944.328237,2675.859454L935.783209,2667.902031L934.454012,2663.855629L933.759036,2657.191852L930.045532,2655.717698L925.007891,2656.259224L920.181414,2655.627443L916.148734,2652.919814L911.849947,2649.023836L907.815779,2644.420866L904.736068,2639.637387L903.087284,2633.680603L903.401136,2628.310471L904.298722,2623.436738L904.188995,2618.908981L898.558366,2607.251133L891.924746,2601.158968L888.631689,2594.615530L892.863542,2581.558742L900.489267,2569.981425L904.515374,2563.868901L906.576052,2554.858514L903.541976,2540.808931L899.608269,2528.895365L897.372980,2518.862099L897.046684,2508.919086L900.897309,2484.475222L899.830147,2476.382423L895.211968,2470.094710L887.597425,2463.659242L886.775548,2462.964623L880.988284,2453.307419L870.986891,2411.940891L909.744404,2412.241739L919.073155,2409.112925L918.628084,2323.612102L918.235761,2239.104116L917.840131,2152.189400L917.556211,2094.970586L917.307123,2044.859987L917.256163,2034.618455L916.724933,1919.213716L916.319682,1827.064502L917.501776,1734.313679L918.336963,1667.601135L912.831211,1617.660772L910.230240,1612.290681L907.209686,1611.147468L907.200040,1611.131645L905.724064,1608.710620L908.252699,1594.510717L908.242688,1584.402313L909.032350,1579.468449L925.844990,1548.060202L927.741326,1537.771296L925.563842,1532.085323L912.302929,1513.147122L909.701031,1506.633827L908.952600,1499.774559L908.741852,1482.389714L907.796438,1404.451868L907.105339,1350.465313L906.297849,1286.911953L905.373945,1214.062575L902.603939,1198.178022L898.512369,1184.158704L887.954678,1163.295196L856.098085,1125.614543L815.128818,1077.269022L812.501716,1072.717543L802.774156,1055.864031L795.341233,1032.653991L791.791552,973.658710L785.900718,957.142448L777.119173,961.970973L769.542310,953.261579L764.342239,939.031727L762.690562,927.178533L764.800582,919.612347L773.888906,903.848206L777.057359,896.462527L777.686795,890.520893L777.516897,878.833172L778.728582,873.041961L779.462707,865.957128L775.414709,838.776050L774.736238,793.559520L773.722100,729.946576L773.105228,687.068497L773.040842,682.594167L766.460943,662.783785L712.406896,622.285149L639.038648,567.336760L595.440846,534.670093L565.946311,512.568925L517.259696,476.092159L478.525711,447.031095L474.395214,438.261634L473.964311,424.874296L481.068426,364.917097L488.557965,332.486675L488.914097,309.728226L484.810198,257.277012L492.147495,237.812758L519.938500,207.999663L526.539933,197.289813L528.121876,191.303128L528.905676,178.006069L529.905825,171.778713L537.876603,154.615881L537.131993,148.313316L532.841535,136.490367L531.621227,130.217887L533.093219,118.650651L546.176992,82.805759L479.732796,84.189615L430.520580,85.257592L398.437888,92.222000L334.539135,117.447297Z "/></g></svg>