<?xml version="1.0" encoding="utf-8"?><!DOCTYPE svg  PUBLIC '-//W3C//DTD SVG 1.1//EN'  'http://www.w3.org/Graphics/SVG/1.1/DTD/svg11.dtd'><svg enable_background="new 0 0 1000 3053" height="3053px" pretty_print="False" style="stroke-linejoin: round; stroke:#000; fill: none;" version="1.1" viewBox="0 0 1000 3053" width="1000px" xmlns="http://www.w3.org/2000/svg" xmlns:xlink="http://www.w3.org/1999/xlink"><defs><style type="text/css"><![CDATA[path { fill-rule: evenodd; }]]></style></defs><metadata><views><view h="3053.55766345" padding="0" w="1000"><proj flip="auto" id="robinson" lon0="1.03273556594"/><bbox h="84.28" w="27.61" x="-1.33" y="-186.39"/></view></views></metadata><g class="" fill="#000" id="country"><path d="M683.749965,3051.557663L749.799842,3016.665054L916.770400,2974.212874L910.482031,2953.550047L999.836203,2926.958146L981.160869,2847.034221L925.476520,2752.761953L903.671019,2735.360125L892.398236,2688.490811L905.959164,2657.718930L899.462828,2636.967183L894.708047,2573.377909L867.325729,2503.296323L917.478486,2500.331790L917.280814,2274.553048L917.031218,2057.994310L916.856558,1873.215607L916.714161,1727.035220L906.935360,1552.010376L905.290978,1423.469328L903.183432,1254.048055L885.024294,1201.102138L809.083895,1111.396552L788.435320,1064.854047L784.725672,1003.340915L767.663180,939.871287L766.514601,828.970060L765.189910,699.807906L758.340072,679.145547L676.123941,617.583590L559.761093,530.369277L471.060149,463.876590L464.542512,459.014889L455.672924,442.562183L468.425245,246.108194L486.748190,220.406449L514.929458,139.566034L528.582285,74.288970L391.229592,80.484659L341.180088,97.263413L311.072301,97.530213L310.024886,83.449103L306.531634,75.059726L133.228657,27.925064L11.691640,0.000000L45.753127,36.462663L53.305605,57.450927L40.882061,136.156923L15.952948,191.265952L0.163797,242.906592L2.220034,268.697274L17.485097,294.458315L69.330983,334.982311L95.908017,361.247323L127.387191,401.208098L163.560274,440.220266L225.382917,490.971685L251.549789,500.131846L250.355064,514.272290L241.864556,533.748755L236.128178,722.901140L231.447994,771.666730L226.917735,796.331167L221.250600,866.974680L214.734462,877.053912L202.948935,876.253503L192.207045,878.921535L189.550144,893.002819L193.933415,907.439845L231.222925,917.637664L223.089913,928.309802L195.399524,938.003662L182.626063,959.229368L188.158744,983.538147L172.932661,1003.014822L177.263823,1016.147500L187.123249,1025.782084L202.822036,1022.254344L246.417364,989.644988L264.722877,986.057960L287.308141,992.846633L329.050614,1042.501798L330.832874,1066.899544L313.856654,1150.112827L297.287947,1214.412726L294.235995,1300.086727L311.834764,1348.230226L309.442909,1374.614300L290.403710,1397.500268L247.361490,1430.584141L250.602383,1453.203320L270.235240,1495.269675L306.572498,1542.286784L377.626815,1600.361546L415.134597,1676.104851L416.087117,1706.846869L394.174852,1737.677832L368.605152,1764.328836L360.266043,1803.045436L371.893563,2056.571338L315.682600,2166.673847L315.116869,2198.097843L320.820143,2234.531901L335.660283,2256.617644L364.389902,2262.635639L387.797483,2283.980253L379.675111,2361.146988L367.215586,2440.033185L365.242383,2478.068144L358.299521,2496.211088L336.151960,2511.033756L328.112968,2535.817259L333.659686,2566.500189L329.486032,2589.208524L341.511766,2618.616710L367.021479,2655.228721L408.280081,2746.091746L424.064330,2753.236279L431.125996,2772.327894L426.742856,2790.885893L442.644532,2831.055367L488.441990,2871.254489L536.487856,2906.354611L575.427801,2911.364679L584.641901,2942.788776L610.220811,2982.810033L628.733138,3000.330451L658.271714,3011.714276L682.580792,3017.791578L683.749965,3051.557663Z "/></g></svg>