<?xml version="1.0" encoding="utf-8"?><!DOCTYPE svg  PUBLIC '-//W3C//DTD SVG 1.1//EN'  'http://www.w3.org/Graphics/SVG/1.1/DTD/svg11.dtd'><svg enable_background="new 0 0 1000 1942" height="1942px" pretty_print="False" style="stroke-linejoin: round; stroke:#000; fill: none;" version="1.1" viewBox="0 0 1000 1942" width="1000px" xmlns="http://www.w3.org/2000/svg" xmlns:xlink="http://www.w3.org/1999/xlink"><defs><style type="text/css"><![CDATA[path { fill-rule: evenodd; }]]></style></defs><metadata><views><view h="1942.86412899" padding="0" w="1000"><proj flip="auto" id="robinson" lon0="101.67791155"/><bbox h="247.96" w="127.69" x="1420.24" y="-342.49"/></view></views></metadata><g class="" fill="#000" id="country"><path d="M413.472082,1824.686225L417.580942,1818.303107L411.148445,1799.461378L406.449431,1814.855199L411.307141,1825.448867L413.472082,1824.686225Z M338.436030,1684.257825L334.257879,1678.393835L333.524421,1679.810165L334.044968,1689.948779L337.916220,1696.850985L342.317303,1700.080988L338.436030,1684.257825Z M279.656560,1639.358286L280.137588,1623.163455L271.086462,1616.440712L278.396023,1641.575704L279.656560,1639.358286Z M258.755422,1643.543182L257.097698,1635.340019L260.348917,1619.446400L250.450134,1616.165138L246.679255,1608.859205L244.519342,1612.806972L241.608722,1640.390091L246.659418,1660.077690L248.848197,1659.257373L253.328713,1653.072953L258.077524,1653.207536L258.755422,1643.543182Z M237.792122,1492.682436L238.119991,1488.888504L236.306690,1481.178879L233.205826,1482.390117L231.742776,1486.914635L231.330002,1494.079526L237.792122,1492.682436Z M436.642603,1422.520496L433.525328,1423.725320L423.171289,1423.180585L421.741245,1425.942708L421.549499,1436.952754L425.640172,1444.098394L435.821724,1438.875348L437.692618,1429.948108L436.642603,1422.520496Z M436.010985,1407.998533L435.396277,1401.115667L431.580791,1395.533755L424.630449,1395.283819L426.753119,1401.314334L430.279171,1406.024675L435.050610,1410.190284L436.010985,1407.998533Z M707.253304,1148.152338L702.753274,1146.159274L700.446764,1149.299472L699.490760,1156.233539L706.573535,1161.847440L707.253304,1148.152338Z M682.820072,1107.175913L680.263319,1102.401517L676.193818,1096.133918L668.522706,1087.104212L663.628168,1085.764816L663.555312,1090.032939L668.539041,1108.214103L675.298704,1109.053628L677.287663,1107.932126L683.481703,1110.322527L682.820072,1107.175913Z M586.931561,1940.864129L590.792965,1940.037400L595.610555,1936.666395L599.747270,1928.142751L602.559188,1920.836771L619.206161,1912.659200L636.430653,1905.295540L638.862529,1906.051773L641.865543,1909.313829L647.997415,1919.965180L651.392442,1922.221062L656.201228,1923.297733L664.386497,1922.150566L673.697159,1916.119927L678.200175,1904.821292L679.964559,1895.900305L692.993059,1880.500066L693.951895,1868.951489L697.363443,1861.395567L660.909091,1830.896307L637.625152,1794.231838L623.404693,1779.619890L611.939425,1775.120949L600.436866,1773.973783L583.599899,1778.325323L567.907310,1780.190268L540.922230,1762.636709L529.795252,1751.177873L515.781356,1738.841042L504.727341,1740.757256L496.882756,1737.283717L490.193510,1725.171196L469.341854,1696.242156L463.510146,1683.283697L462.254133,1666.371060L473.280498,1660.231499L480.747064,1667.966833L482.086586,1677.387665L477.406250,1685.244769L478.089377,1689.551438L484.921300,1689.371993L489.329626,1690.865228L493.408867,1700.997437L498.048463,1725.087883L510.675381,1732.156724L505.082639,1717.666562L498.515548,1703.887777L472.070107,1595.445775L464.954131,1574.944329L456.733400,1563.959818L456.486404,1568.503585L456.184741,1572.547475L453.439769,1574.502129L444.322026,1563.600931L435.973557,1553.353427L431.953569,1542.586826L421.720894,1484.620332L417.868119,1473.892229L412.188339,1461.587605L399.057739,1458.197426L361.842884,1471.386443L354.995988,1469.848364L345.228883,1464.625308L345.735916,1453.108956L347.868283,1445.021240L334.743058,1417.124425L330.227904,1403.095932L329.341471,1376.826999L329.941063,1345.164284L328.560265,1333.295600L325.109948,1326.214127L332.769267,1317.248538L336.422370,1293.491991L356.421298,1251.439043L357.337770,1223.741277L361.511473,1208.700403L366.385189,1176.189799L375.446951,1150.087725L382.887450,1138.667657L385.121297,1114.013870L394.542037,1099.466384L399.836133,1083.278280L399.510537,1059.137067L390.526597,1015.129011L391.569449,1004.439380L400.435681,968.454674L394.304916,951.971495L386.377080,942.493004L388.002879,928.092587L398.893623,916.755516L411.307565,910.859460L445.485740,906.924479L452.390730,899.874832L459.148625,906.027252L488.767678,913.756219L495.644155,917.748873L494.854633,927.515801L493.215359,934.674358L497.058472,949.869437L494.234717,969.864587L496.206653,998.312701L493.732227,1011.918278L498.476375,1019.884226L505.332606,1024.158789L520.379885,1017.282316L561.908727,1024.459995L593.088049,1015.218732L606.623738,1021.646602L613.366231,1027.830939L620.130266,1031.714571L630.879156,1035.886590L643.498147,1047.550288L655.885696,1062.168340L657.682534,1058.259087L658.494217,1053.939681L669.951138,1072.543875L681.331164,1082.169593L694.420159,1091.359518L697.803420,1084.982967L699.470690,1079.048606L707.137345,1086.162149L721.262881,1104.061341L726.060174,1120.313503L738.058827,1135.521049L742.174358,1144.563541L744.627656,1144.191844L742.503556,1140.859388L717.278983,1093.910137L711.726714,1072.140133L713.708997,1055.375211L715.268382,1049.748445L708.385067,1040.923772L698.928066,1030.894266L682.661290,1017.762964L679.568398,996.979699L673.749468,972.472923L668.408738,964.212119L659.985689,949.119618L654.975230,936.616203L650.205941,903.572694L651.829015,900.906645L662.327289,899.951737L675.681456,897.574081L677.249235,892.235566L674.379316,887.826319L682.266304,880.347253L692.935936,863.947099L700.669724,846.809863L706.399639,835.991707L709.322200,825.250427L721.573350,810.048518L739.699471,799.537887L752.517402,797.083266L765.763216,793.500670L778.257221,788.405558L784.404138,787.924887L801.382714,794.083883L810.351745,795.660482L819.563677,795.577166L829.197200,796.218060L837.446905,795.583575L856.864112,791.283175L878.389969,794.686324L896.930594,792.000977L919.686143,787.040451L931.522911,790.168019L942.557781,795.141358L945.205664,805.203377L948.158477,809.798570L952.053367,813.349106L956.697929,813.342697L961.830084,806.318529L965.933850,799.082853L967.402527,797.749795L973.998427,794.910636L984.553274,788.501692L992.931830,781.291616L998.085221,773.613670L999.622379,765.666529L998.817550,756.405523L998.491686,732.506238L999.742515,720.803279L996.412557,706.479447L990.046729,695.192969L987.875473,678.259979L988.576306,669.985732L988.713537,664.569969L994.763905,657.699312L998.278525,647.848363L999.252592,635.029926L998.267976,625.762182L995.335540,620.064372L987.768578,614.642156L975.569082,609.501944L967.464038,603.009378L963.461320,595.158049L962.797780,588.268104L965.505957,582.326728L955.941031,575.705969L934.092977,568.399420L921.256242,559.644381L917.403829,549.440855L906.862517,536.058349L889.606801,519.503290L878.398179,495.680220L873.193241,464.595667L871.338054,439.292381L873.628643,410.002867L861.806241,388.821048L850.590118,377.656609L836.053622,369.446745L821.617971,357.673563L807.301750,342.337130L789.497666,319.688411L768.193115,289.721316L754.867294,276.295276L749.532380,279.403441L736.949670,276.622114L717.087514,267.951328L700.210246,263.279508L686.293496,262.600205L677.598363,264.561213L674.109819,269.143317L674.459951,273.674169L678.624271,278.134540L677.267052,281.614408L670.387035,284.107358L665.275887,289.061226L660.346642,300.020037L657.914353,314.420417L651.877828,319.970397L641.456590,321.194471L631.636108,325.308906L622.390687,332.307313L618.320728,337.620225L619.406305,341.247627L617.302533,342.055141L611.997736,340.036356L608.939289,335.274595L608.092913,327.776290L602.136783,322.745394L591.050547,320.181886L577.658062,312.132497L561.948304,298.610127L551.367703,291.406790L545.894335,290.515988L539.036889,295.873624L530.776657,307.466946L523.223203,312.068410L516.382357,309.677954L511.968338,313.779542L509.999590,324.373224L504.727041,332.679024L491.877487,341.721881L491.049107,342.792158L476.647197,355.077961L465.374374,367.383069L452.601833,383.918173L445.838484,386.475357L438.473396,382.482562L427.621900,378.393639L421.412005,372.779395L427.779723,344.785311L436.384133,313.760316L437.819342,299.443256L436.853326,289.003549L434.337741,280.512129L427.938195,271.629837L422.117701,264.740652L421.036332,260.152153L421.866246,255.294514L426.060248,248.136258L431.186385,237.011241L434.095535,214.114271L438.032396,189.916896L435.124568,175.248776L426.656287,159.158294L421.079113,143.881864L420.627743,123.056578L418.407185,114.957268L411.281562,110.907639L389.219203,106.761915L382.436702,107.473159L377.380268,110.138725L372.367316,115.796671L365.729722,119.365744L352.518730,121.320090L338.721488,114.284464L326.302158,102.340685L321.572076,87.693113L326.794808,70.265004L330.205209,56.169004L331.649319,44.054308L330.439925,38.319965L327.226236,32.342189L323.926469,31.534904L315.983215,24.102786L307.389055,11.026227L300.220251,5.055011L294.475750,6.182620L289.754719,11.128738L286.056608,19.899819L282.676588,23.487717L279.614408,21.879568L279.321105,14.139985L264.568678,5.881497L258.258243,1.178860L250.804348,0.000000L244.169168,5.240810L239.106716,10.904496L233.357519,12.986741L224.184526,13.640246L211.569417,10.705882L202.897710,8.053429L201.865741,9.494979L208.136987,21.488743L211.159404,31.054378L210.102209,36.026237L206.798233,40.165202L201.318603,43.426412L194.616609,45.335730L188.416202,45.137110L177.862185,40.581662L170.306665,40.389450L164.200747,42.651152L160.770791,46.027699L159.214707,50.205153L158.889330,73.878744L156.624376,81.285678L152.532929,85.488950L147.935141,85.924656L141.356822,84.758502L134.789587,85.726025L105.727355,94.882310L101.430321,95.785770L91.995306,96.477782L83.185838,96.727675L76.900960,96.279149L60.955042,86.898588L53.746640,85.905434L50.259085,88.558120L49.362902,101.129656L41.992410,109.113506L33.155044,126.555194L34.168147,152.026274L37.897278,169.795542L30.176292,187.379277L30.463362,195.870068L41.737911,236.684413L41.419083,240.965225L39.645894,243.086411L33.436258,244.502673L23.281187,248.770695L16.752448,252.833659L13.372401,253.295069L2.907839,250.238231L0.257485,250.180555L1.464263,253.288661L11.953030,270.956938L21.468647,279.326538L29.959365,278.397292L33.950723,280.057118L33.430335,284.299616L38.302919,295.360931L48.587845,313.254026L52.762020,326.654751L49.881581,340.010720L51.446729,344.791720L54.422349,347.585983L63.435099,359.999995L81.690430,379.419074L99.862989,400.421355L115.002657,417.930873L126.017432,430.037631L149.925921,452.610551L155.046551,463.198469L158.690923,484.566667L165.481716,496.910788L171.410759,505.736275L175.691261,513.106880L186.540701,537.308152L190.234201,540.589685L205.060507,525.867659L209.344146,528.937683L212.239929,534.488085L213.182979,541.551071L211.594192,549.562630L207.099976,556.946087L183.441779,574.026745L183.209237,588.735980L184.207822,611.052980L187.189887,638.465270L190.936168,658.968333L190.557236,663.679092L188.576173,665.909490L178.700096,665.031431L165.866467,675.375851L161.012990,676.292363L155.304126,680.259639L151.160613,685.149831L150.545803,692.590857L155.982203,715.099191L163.477648,736.255534L175.152567,751.778215L184.368348,764.051463L197.188002,781.124983L207.461957,795.955293L226.635266,812.253183L253.712560,836.651820L264.486040,850.129647L274.463451,866.459358L281.755240,880.379298L285.907133,898.875063L288.778622,909.225226L292.834431,943.858061L289.133789,951.740781L286.629937,960.860369L289.477014,970.409325L296.084580,979.522476L297.105595,989.942983L304.242778,1008.605005L314.262209,1020.005990L323.585007,1027.702766L327.973582,1033.784560L327.645635,1043.532082L331.155932,1053.875595L334.058107,1065.135527L339.002287,1080.727658L347.122357,1093.929363L361.314382,1134.412367L361.419394,1138.552303L357.568177,1146.755271L351.572985,1154.169981L347.480349,1156.553967L344.074632,1164.180157L336.249286,1185.828270L319.906644,1223.126056L302.880092,1247.446514L288.307455,1264.723976L277.575396,1275.208373L274.637584,1281.443899L275.018183,1286.346447L277.787863,1295.081314L278.242572,1311.641042L276.557996,1322.144685L274.113184,1333.276374L273.013690,1343.203259L260.143460,1389.516059L254.721694,1425.750449L249.589991,1434.754590L243.097824,1461.305624L240.625714,1503.513092L232.585344,1529.904034L232.703160,1559.332740L234.967573,1575.155816L244.294816,1600.995716L250.988136,1606.148320L258.019374,1607.295479L263.611515,1598.278424L266.033205,1588.972981L274.998249,1585.499463L281.910332,1590.652062L290.054827,1596.990273L301.427781,1622.836610L311.387693,1627.547017L323.582829,1635.570733L333.069791,1645.408120L333.018133,1661.449157L337.414005,1667.691258L349.640283,1667.691258L359.653478,1680.688161L364.322450,1688.263282L372.422641,1713.084315L381.546528,1718.051087L392.444390,1718.691961L400.105103,1715.263285L395.998147,1733.220575L402.159642,1741.551940L409.746053,1742.135135L416.135040,1747.999136L414.907585,1778.126651L435.737006,1794.763764L466.755353,1835.177354L468.630321,1829.050586L470.306951,1808.978373L471.901031,1805.011356L476.410797,1803.069505L481.622071,1803.582205L492.222630,1821.014010L518.038725,1831.825576L525.759228,1834.389077L535.508995,1830.101621L540.141275,1832.806115L544.905739,1837.253790L548.155307,1849.661138L555.356670,1860.978998L568.565520,1859.370401L573.345670,1860.991816L576.154211,1861.350706L579.244404,1871.393225L581.305402,1888.767360L580.524410,1898.899602L571.626164,1913.376980L570.799776,1923.240054L576.124870,1929.347597L582.970718,1935.858892L586.931561,1940.864129Z "/></g></svg>