<?xml version="1.0" encoding="utf-8"?><!DOCTYPE svg  PUBLIC '-//W3C//DTD SVG 1.1//EN'  'http://www.w3.org/Graphics/SVG/1.1/DTD/svg11.dtd'><svg enable_background="new 0 0 1000 1931" height="1931px" pretty_print="False" style="stroke-linejoin: round; stroke:#000; fill: none;" version="1.1" viewBox="0 0 1000 1931" width="1000px" xmlns="http://www.w3.org/2000/svg" xmlns:xlink="http://www.w3.org/1999/xlink"><defs><style type="text/css"><![CDATA[path { fill-rule: evenodd; }]]></style></defs><metadata><views><view h="1931.8907999" padding="0" w="1000"><proj flip="auto" id="robinson" lon0="101.690193484"/><bbox h="248.43" w="128.66" x="1419.83" y="-342.83"/></view></views></metadata><g class="" fill="#000" id="country"><path d="M365.511798,1806.792671L364.517982,1806.538243L360.746510,1806.792671L361.596787,1806.792671L359.536722,1807.264423L358.520535,1808.806894L357.477717,1810.004827L355.385512,1809.458866L357.270022,1811.462488L359.700321,1812.231073L362.254436,1811.732818L365.571755,1809.114328L366.723661,1808.605472L367.000224,1807.969401L365.511798,1806.792671Z M414.064305,1816.932695L414.512070,1816.354931L414.670246,1815.591646L414.638247,1814.388413L414.978548,1813.344197L415.860735,1813.047364L416.889436,1812.877745L417.668961,1812.209871L418.007663,1810.762811L418.047615,1808.950010L416.893064,1805.151717L414.844009,1800.385701L414.547019,1794.018256L411.509247,1787.387223L410.820806,1788.177010L410.466417,1790.572875L410.419556,1792.958139L410.184906,1794.224979L409.522825,1794.802743L408.722128,1795.226790L408.146579,1796.037780L408.151087,1796.864671L408.551769,1799.244635L408.375229,1800.559180L407.326483,1802.366680L406.152122,1803.909151L405.923195,1805.674247L410.017941,1809.762909L411.748915,1815.284212L413.225653,1817.542263L414.064305,1816.932695Z M383.663058,1718.723480L380.559777,1717.986700L378.922228,1716.719862L376.568613,1715.511330L375.844850,1718.537960L376.245782,1725.121279L376.888236,1726.128388L378.069541,1724.644226L379.573862,1721.527486L380.494208,1720.753602L381.729403,1720.276550L383.140512,1720.117532L384.671509,1720.276550L383.663058,1718.723480Z M344.356001,1688.987251L342.340885,1685.812208L340.347340,1681.518744L338.914128,1676.737629L338.644902,1672.083728L337.433173,1671.288643L333.690132,1667.482834L332.905770,1667.482834L332.650039,1667.917480L332.518006,1668.060596L332.383294,1668.156006L332.110182,1668.447537L332.950070,1670.270933L333.295794,1672.444167L333.434272,1676.933750L333.869570,1678.211188L337.257236,1685.748601L339.725489,1688.844136L342.434117,1690.545620L344.356001,1688.987251Z M343.511718,1673.785211L344.188337,1672.359358L344.446593,1669.968801L344.306430,1667.472232L343.846868,1665.776050L341.489795,1664.212383L337.151846,1663.454401L334.661267,1664.991566L337.826760,1670.313338L338.496012,1670.758586L339.284274,1671.161429L339.976343,1671.680885L340.310903,1672.486571L340.671229,1673.085536L341.489393,1673.689801L342.525001,1674.007835L343.511718,1673.785211Z M272.960982,1606.144721L272.545186,1605.582862L272.000876,1605.058107L272.089240,1607.194231L272.557609,1609.605984L273.362402,1611.869322L275.007304,1614.615011L275.214256,1615.600914L275.686373,1616.332391L276.972667,1616.618622L277.965797,1617.000262L278.618272,1617.943761L278.996130,1619.141687L279.145245,1620.260105L278.926948,1621.643551L278.270190,1621.908579L277.529201,1622.009290L277.031644,1622.926287L277.047076,1623.997000L277.699709,1625.915803L278.253943,1629.043134L279.149089,1631.613906L280.510279,1633.527409L282.274300,1633.681125L283.058942,1630.771117L282.069707,1616.618622L280.936081,1612.876428L279.041599,1610.814511L273.500676,1607.385051L273.524643,1607.475160L272.960982,1606.144721Z M244.029678,1596.434105L243.663682,1596.243285L243.135943,1596.158476L244.302478,1601.368921L244.618150,1604.194116L244.554130,1606.918602L244.297012,1608.264943L243.529974,1610.310958L243.306945,1611.286260L243.271235,1612.113147L243.736663,1616.735234L244.379892,1619.290103L244.576169,1620.742456L244.209272,1621.982787L243.413471,1623.233719L243.023301,1624.558859L243.745968,1626.080120L244.108000,1627.177336L243.416735,1628.142038L242.449612,1629.180948L242.011135,1630.484886L242.463938,1630.728712L244.539375,1631.428386L245.219989,1631.900136L245.770323,1633.681125L245.214523,1634.571620L244.316058,1635.022167L243.855770,1635.462114L244.086728,1636.887966L244.597880,1637.990483L245.193265,1638.933983L245.678389,1639.909287L246.751656,1648.278878L247.453909,1650.128775L249.505235,1651.400911L251.087512,1650.982167L252.059917,1649.026258L252.283760,1645.729306L253.019726,1642.909406L255.133395,1642.973013L259.370550,1645.241654L258.789829,1640.619562L259.179901,1638.785567L262.790405,1637.433924L263.618203,1635.912662L263.485182,1633.919650L262.454191,1631.900136L262.065466,1632.446094L261.401211,1633.071561L261.062782,1633.681125L259.847321,1631.863032L258.862287,1629.509583L258.250893,1627.002418L258.192935,1624.707275L258.596518,1623.615360L259.252349,1623.011096L259.927941,1622.587051L260.390762,1622.035793L260.480469,1621.007484L260.091675,1618.654036L260.132372,1617.588624L261.483158,1614.657415L262.117918,1612.579596L262.064788,1610.395767L261.159447,1608.646583L260.041458,1608.206637L258.959521,1608.858606L258.209458,1610.395767L256.234374,1608.710190L254.342567,1606.695979L252.722945,1605.662370L251.592547,1606.918602L250.892439,1606.918602L249.634174,1600.764657L248.882128,1598.935966L247.751586,1597.812249L246.637934,1596.974761L245.629052,1596.646127L244.822138,1597.048969L244.029678,1596.434105Z M282.821829,1607.787893L284.141136,1598.829955L284.022891,1597.780445L283.825726,1596.974761L283.372949,1596.423504L282.433116,1596.158476L281.620486,1598.193889L280.118371,1600.096788L279.140029,1602.020889L279.770832,1604.167614L277.291417,1604.861986L276.806182,1605.657070L277.995994,1607.316144L278.953803,1607.888604L282.852444,1609.420465L282.821829,1607.787893Z M238.603314,1499.391827L239.900924,1496.359928L240.178468,1493.720267L238.664067,1491.218421L237.382298,1490.296130L236.296284,1489.660068L234.157767,1489.193622L233.293725,1491.266126L233.971199,1495.257419L234.175635,1498.723961L233.812808,1501.501436L234.227128,1504.183502L235.357957,1506.695951L236.395727,1506.876169L238.603314,1499.391827Z M237.759007,1485.462056L239.403383,1484.497361L238.511376,1483.691682L240.739099,1480.946014L240.526131,1478.115538L239.746957,1475.618994L238.519936,1473.551793L237.016610,1471.966939L235.378489,1470.461593L234.324521,1470.037552L232.922409,1470.276075L231.800997,1470.811427L231.536325,1471.325577L231.612469,1472.200162L231.339254,1482.711086L231.511468,1484.497361L233.190989,1486.082217L235.483724,1486.193527L237.759007,1485.462056Z M186.813566,1440.047277L186.509775,1438.027786L185.662685,1436.114305L184.312069,1435.033003L183.578195,1435.075407L182.778251,1435.520649L182.156136,1436.252118L181.940317,1437.200907L182.549410,1438.213303L186.412261,1441.430708L186.813566,1440.047277Z M188.859598,1432.912803L189.012005,1431.858003L188.856963,1430.808505L188.326370,1429.997528L185.590287,1429.255458L183.567223,1430.776701L183.317266,1433.283838L185.797310,1435.483545L185.651549,1433.464055L186.479032,1433.289138L187.632166,1433.792686L188.523134,1433.729080L188.859598,1432.912803Z M395.042699,1422.969069L394.312312,1420.244615L391.014748,1423.244695L392.601114,1424.066272L395.042699,1422.969069Z M438.385652,1416.036023L437.133394,1414.668496L436.468012,1414.488279L435.746899,1416.968910L433.640868,1417.387649L426.744837,1415.452969L423.838207,1415.225048L421.208543,1415.622585L420.168510,1417.149127L420.886624,1419.417738L422.022884,1421.802960L422.366940,1424.198784L420.822538,1426.531003L422.191574,1429.059340L422.991815,1433.888095L423.836510,1436.400532L424.915610,1435.955290L430.292614,1435.356333L431.213124,1435.451742L432.096882,1435.419939L432.821548,1434.974697L433.098354,1434.121317L433.120922,1433.098320L433.331617,1432.234339L436.519245,1430.458672L437.170084,1427.071653L437.244790,1422.921365L437.938214,1419.232220L439.050613,1417.806388L438.385652,1416.036023Z M391.576943,1411.127768L391.943751,1410.110074L391.656575,1410.004064L391.454452,1409.781443L391.216518,1409.580025L390.877490,1409.532320L391.135771,1410.820339L391.322896,1411.360990L391.576943,1411.127768Z M245.676413,1395.332316L245.682580,1393.561955L244.779284,1390.795103L244.721753,1389.978829L243.802651,1392.417050L242.499134,1394.166210L242.090810,1396.053182L243.799146,1398.878340L245.676413,1395.332316Z M426.237542,1387.021160L425.020200,1386.427507L424.646534,1387.715523L423.366864,1390.413468L423.410052,1391.277447L425.830916,1394.102604L426.326878,1395.565537L425.783382,1397.097377L427.196000,1398.342991L433.689693,1401.290061L436.634155,1403.102828L438.027747,1404.215930L436.072605,1394.166210L434.383183,1389.841016L430.551073,1387.238480L429.468066,1386.957555L427.383328,1387.137771L426.237542,1387.021160Z M700.427050,1136.439912L700.380610,1134.892185L699.969396,1133.429264L699.355214,1131.987546L698.275920,1131.372695L697.749844,1132.347975L696.335633,1141.761548L696.551562,1143.028352L697.939598,1145.954191L698.384077,1147.178591L698.584695,1148.800523L698.451628,1149.500180L697.987086,1150.136232L697.210258,1151.551447L700.994405,1152.759946L702.125037,1153.332392L702.811452,1154.143358L703.883041,1156.252930L704.727933,1156.963187L705.500518,1156.963187L704.777699,1153.645118L704.963333,1152.383615L705.787231,1150.660975L704.167674,1150.660975L704.088291,1149.770502L705.640965,1145.895886L704.967360,1141.183801L702.797904,1137.860429L699.909168,1138.130751L700.427050,1136.439912Z M660.535567,1080.233986L658.611760,1080.154479L659.442373,1080.679225L660.111979,1081.272876L660.663239,1081.993738L661.213718,1082.905417L659.650834,1082.905417L663.678878,1091.380843L664.889078,1092.690055L665.628904,1100.778542L665.364254,1102.548891L665.439493,1103.365160L666.509913,1103.672586L667.333017,1104.022416L668.046874,1104.499456L668.804246,1105.146110L668.160677,1103.815698L667.784201,1103.365160L667.708946,1102.548891L672.228595,1104.139025L673.734891,1104.329841L675.293732,1103.879303L675.393326,1102.739707L675.031539,1101.239681L675.253798,1099.718452L679.268697,1103.799797L681.279173,1105.119608L682.769527,1104.329841L682.797162,1102.209662L681.340209,1100.036479L679.400113,1097.773187L677.975769,1095.356182L677.111577,1094.465706L677.037222,1093.665338L675.429944,1092.488638L674.298617,1090.728887L672.625049,1087.347198L671.204757,1085.587447L669.631706,1083.986710L665.709484,1081.044956L663.700227,1081.145665L660.535567,1080.233986Z M586.680659,1929.890800L589.821838,1928.749769L595.036661,1925.080966L596.722947,1923.165784L598.076338,1920.860160L598.939434,1918.228046L599.154701,1915.330028L600.297433,1909.426285L603.725250,1907.336077L608.193253,1906.417193L612.514924,1904.030788L616.405797,1901.075550L628.502026,1895.656093L632.377293,1893.919701L635.015224,1893.226331L637.503589,1893.879311L639.449844,1896.612401L640.053890,1898.083288L640.720369,1899.119977L641.640068,1899.739298L642.993475,1899.991739L644.109231,1900.489888L644.195697,1901.563602L643.901031,1902.862830L643.896878,1904.030788L646.427478,1909.991752L648.318538,1912.213229L650.731620,1912.785428L651.840340,1912.125716L651.944447,1912.011842L653.821933,1909.958093L655.183118,1909.493602L656.727878,1910.028776L657.691238,1911.328004L658.489586,1912.906599L659.552374,1914.303437L662.067890,1915.794519L663.932611,1915.558908L665.208796,1913.912995L665.993203,1911.152978L666.561269,1910.358632L669.811456,1908.036179L670.457526,1906.885050L670.794403,1905.723823L671.312162,1904.623182L672.544028,1903.687469L676.114681,1900.005202L676.607320,1895.020342L676.394731,1889.459917L677.856325,1884.057689L680.499636,1880.166738L688.645666,1872.768545L691.528510,1869.328622L692.619313,1865.178498L691.589112,1855.005566L691.990223,1848.134189L691.987389,1848.131960L691.948427,1848.100157L685.646998,1843.165308L672.168998,1829.320170L660.234923,1821.162564L655.781366,1816.450341L649.759509,1806.850977L642.859676,1795.878762L629.963875,1773.266464L628.879947,1772.020826L624.797339,1769.540153L621.550002,1768.018885L620.669145,1767.260902L618.696093,1766.518820L616.451746,1765.946357L614.711135,1765.713131L612.682493,1765.156570L608.678467,1763.757018L604.095078,1760.709380L600.981287,1758.016684L597.606523,1757.328118L594.323939,1758.605049L602.058084,1762.108734L603.962576,1764.939559L604.991010,1767.573636L601.286625,1767.303307L601.067343,1767.573636L600.224085,1766.995873L598.069024,1766.417826L596.402460,1764.924751L592.521133,1764.172729L591.207872,1767.000295L586.730172,1769.402338L572.595898,1769.942997L567.859542,1770.123217L564.513265,1770.080851L558.670205,1766.947237L552.463414,1761.879298L548.842951,1758.302961L546.842244,1756.352301L544.319702,1757.702385L542.431124,1756.956100L539.287421,1755.695029L536.962648,1753.606599L517.815356,1726.319209L514.643485,1722.178158L514.797909,1724.422843L515.329400,1728.015395L514.517093,1729.573765L511.814643,1732.561413L509.083269,1733.502029L507.760489,1733.752249L504.862225,1733.612807L503.832518,1733.185842L502.842149,1732.370177L501.428372,1730.927532L499.660407,1731.177712L498.012195,1730.550044L496.542833,1729.107878L494.791278,1725.534524L493.810865,1724.941059L492.940765,1723.880943L492.497066,1722.417983L492.780757,1721.622897L493.512051,1720.986827L494.496259,1720.536278L496.298611,1719.454669L495.182967,1718.389031L494.035509,1717.762114L492.410106,1717.732272L491.336814,1716.719862L490.840309,1715.495429L490.549625,1713.937059L490.316946,1711.053545L490.296558,1710.852123L489.163078,1708.069320L486.780988,1707.210627L483.919622,1707.147020L481.386616,1706.770679L478.472742,1704.226403L476.145533,1700.134359L471.805556,1689.586216L471.461898,1688.950147L470.881964,1688.096755L468.315158,1685.780404L467.982673,1685.345758L466.651684,1684.423458L465.818097,1682.213119L464.792086,1677.416102L462.377047,1671.193232L460.408492,1660.221055L460.478652,1657.692684L461.709688,1655.874589L466.516089,1650.801947L467.572032,1649.683528L469.876872,1649.174674L472.063825,1648.241774L474.241563,1647.796527L476.479660,1648.718825L478.799808,1652.683648L480.732643,1659.187444L481.862650,1666.056980L481.748491,1671.113724L480.289525,1673.546685L476.539001,1676.249976L475.907356,1678.794251L475.995043,1680.352619L476.156158,1681.391531L476.539373,1682.229021L477.301444,1683.161922L478.575732,1683.904002L479.246202,1683.204326L479.952273,1680.978086L482.294609,1676.574590L486.092519,1676.036529L489.692959,1677.655649L491.869896,1682.674269L492.833143,1691.706445L493.193123,1702.079489L494.885078,1703.214926L495.973140,1708.892896L497.340157,1713.094267L495.988431,1716.555544L498.214195,1717.825232L501.430142,1717.689868L502.362068,1718.336538L504.670183,1719.843342L509.019679,1724.048136L510.558395,1725.741194L513.539506,1726.011776L513.509761,1724.164569L512.516920,1721.515013L510.902858,1718.865267L504.130418,1707.901856L496.161947,1689.273482L485.217674,1643.863507L481.499427,1629.117342L475.572680,1605.699474L470.403053,1579.838079L463.493830,1562.690811L461.933580,1559.961031L458.523177,1555.853110L454.884036,1553.022621L452.712606,1554.114532L456.683403,1555.831908L458.142658,1560.379774L458.701288,1565.622012L459.989545,1569.401301L458.587389,1570.424306L456.787207,1570.896055L455.231768,1570.493214L454.481029,1568.913651L453.945143,1568.547913L451.340315,1567.323487L450.426669,1566.735126L449.683904,1565.590209L448.794756,1562.987641L446.743764,1559.865621L443.845016,1554.231144L443.237614,1551.978414L442.101294,1550.075520L435.329596,1545.665471L433.164110,1542.246623L431.995937,1538.080401L428.078437,1512.701449L426.334674,1508.678349L426.762429,1506.642946L424.766567,1496.635555L424.559478,1493.476443L424.778783,1492.554152L425.247130,1491.589457L425.733556,1490.900390L425.951171,1490.804980L425.648923,1489.331435L424.398315,1487.200626L424.058950,1485.875496L423.643967,1479.610283L423.145939,1477.590786L422.173640,1476.016533L421.031409,1474.553591L419.985440,1472.857426L419.246032,1470.307878L418.530169,1460.486029L417.648171,1461.376515L415.293013,1457.300423L414.394382,1455.185520L414.464180,1453.738481L414.267730,1452.492862L409.756619,1450.340857L408.274593,1448.846114L407.659968,1449.407967L406.468556,1450.128836L405.901232,1450.701291L404.747814,1450.197743L402.499076,1449.222450L400.972355,1449.127041L400.384031,1450.213644L399.633541,1450.012225L395.277579,1449.731298L395.257556,1449.985723L393.439882,1451.512269L389.942828,1452.482261L389.112052,1452.885100L387.997157,1453.775585L386.518456,1454.666070L384.643356,1455.074210L379.375206,1453.992906L377.970424,1454.183724L376.432345,1455.715571L375.767422,1457.888780L375.335328,1460.199802L374.601047,1462.182193L371.682097,1464.694635L368.181297,1465.346598L364.409811,1465.298894L360.680602,1465.744137L357.308510,1462.325307L351.663654,1461.880064L346.223506,1460.592040L343.425781,1454.628967L342.613128,1449.222450L343.073259,1447.065144L345.083658,1444.393690L346.076274,1443.492604L348.810316,1441.732837L349.059335,1441.144481L348.878248,1440.540224L348.929645,1440.063179L349.858558,1439.872360L350.666748,1439.962469L351.216701,1440.094981L351.787762,1440.126785L352.675027,1439.872360L345.333211,1430.172445L339.813637,1420.191610L339.300665,1418.039609L338.840316,1415.039531L338.046530,1413.014743L334.116723,1407.083494L332.936959,1404.221231L332.083830,1401.237056L331.119650,1396.159192L329.144363,1390.911713L328.587925,1388.197867L328.578665,1387.805631L328.547102,1385.399213L328.691693,1384.158901L328.990888,1382.865585L329.414065,1382.134119L330.759508,1380.872605L331.143775,1380.119937L331.104890,1379.187053L330.784166,1378.614602L330.393592,1378.238268L330.198403,1377.856634L329.458071,1367.584316L328.258589,1361.843907L328.500984,1360.181683L330.026352,1358.856569L330.268413,1357.319438L329.541427,1355.024342L328.151567,1353.100278L326.878369,1350.736277L326.399481,1347.137273L327.111477,1343.898699L329.762038,1338.153016L330.193059,1335.046956L331.060339,1333.175900L335.645434,1332.672358L336.933416,1330.075141L334.858423,1330.742997L333.514665,1330.345463L331.203773,1327.483225L326.599978,1323.131564L325.251243,1321.181003L324.012249,1315.498934L323.931633,1314.062516L324.861305,1312.679102L326.096829,1312.382277L327.587073,1312.249767L329.267835,1311.311589L330.822287,1312.149058L332.071609,1313.018330L332.997774,1314.173825L333.515439,1315.843462L335.936758,1314.221529L336.782436,1314.067816L338.422115,1314.062516L339.134607,1313.134939L339.466855,1311.004164L339.424552,1308.608368L339.092854,1306.944031L337.710853,1305.438708L333.967713,1302.788491L333.110840,1301.087052L333.348782,1299.083489L334.136760,1297.572866L335.090306,1296.157651L335.794807,1294.413809L334.613535,1294.440311L333.568639,1294.180590L332.797015,1293.597543L332.461850,1292.632864L332.813148,1290.904924L333.920215,1290.279474L335.337459,1290.051555L336.542150,1289.484409L337.527364,1287.284731L337.946150,1281.035526L338.459173,1278.411814L339.523055,1276.286343L340.963409,1274.213876L342.712663,1272.639649L344.676305,1272.019499L346.181922,1271.855186L346.410083,1271.319843L345.992994,1270.397569L345.615384,1269.030059L345.943292,1267.869266L351.892428,1256.165928L352.234453,1253.791338L351.808473,1248.453811L352.111865,1247.240014L353.028772,1246.593363L354.096465,1246.317741L355.702287,1246.132226L357.861540,1246.227633L358.101747,1246.784178L359.022384,1247.695851L359.977547,1247.759456L360.247554,1245.782398L359.600765,1243.063281L357.392212,1237.614446L356.924091,1234.587905L357.257621,1232.266320L357.673537,1230.734498L358.472547,1227.845768L358.586533,1225.243260L358.025427,1222.932276L355.982642,1218.225501L355.361860,1215.426878L355.417153,1213.041688L355.814896,1210.974523L356.452779,1209.225384L357.156611,1207.826072L358.524449,1206.013327L360.410594,1204.502707L362.221068,1204.439102L363.272519,1207.015107L365.027469,1204.932041L364.825117,1202.493847L362.445885,1197.066213L361.865904,1194.357696L361.590030,1186.846995L361.982194,1185.532490L363.958285,1182.908780L364.342904,1181.509467L364.538700,1180.300970L366.868241,1172.970481L367.361669,1170.346769L367.591497,1167.585247L367.497505,1164.526900L367.790536,1162.189411L369.704702,1158.574518L370.011638,1156.517951L370.464422,1155.076234L378.259175,1137.881630L381.222516,1134.314437L385.362554,1133.768492L384.540629,1132.252567L384.518991,1131.054669L384.796991,1130.089989L384.971229,1129.321426L383.679278,1124.386718L383.578629,1122.934397L383.799302,1121.959116L384.559554,1121.402570L386.163231,1121.227655L386.459832,1120.480293L384.488844,1115.895411L384.865087,1109.895309L387.108696,1104.202631L397.317476,1090.644080L399.413782,1085.979681L399.773433,1084.824182L400.053120,1080.154479L400.701686,1078.908872L402.395614,1077.297532L402.926655,1076.597872L403.280728,1074.986532L403.129276,1073.746224L402.736813,1072.717935L402.126448,1070.035901L401.470795,1068.678982L400.494883,1067.481077L399.240331,1066.288473L398.084503,1064.857347L397.848999,1063.622339L399.461973,1053.980786L400.258463,1052.056714L399.941595,1050.164445L395.615841,1040.862108L394.914503,1037.968046L394.557405,1029.699291L393.987651,1027.038446L391.229554,1018.621265L391.076067,1017.216634L390.641021,1013.082247L390.630310,1007.580327L391.171524,1002.232119L392.198153,997.117128L395.622834,989.744114L396.047939,987.825327L396.684390,978.443404L397.410498,974.234786L398.035864,972.390201L401.232755,966.697429L402.039177,964.630220L402.090352,962.356289L399.686466,957.294272L398.059448,952.396567L397.848818,951.230447L397.372730,949.921211L396.449242,948.967111L395.585933,948.240936L395.143797,947.636673L387.896744,941.413821L383.767361,936.081456L382.618839,931.841003L382.588870,931.729691L382.588329,929.455747L384.160681,928.480442L385.960633,927.913281L387.242808,926.466224L387.917221,924.441405L387.877603,922.162157L386.160031,921.361770L388.555241,922.066746L389.444236,920.057827L390.029381,917.359831L391.516278,916.018783L393.315451,915.451621L395.438286,914.333197L398.044379,912.949744L402.207401,911.979736L411.657390,907.638553L413.382011,906.541330L414.559454,905.009458L415.450399,902.518177L417.299720,904.034148L423.012014,907.050187L425.107045,906.032473L427.896590,905.793946L433.499832,906.080178L447.584123,903.270862L449.740603,902.136534L450.504338,900.302526L449.802015,894.789898L450.008320,892.701458L450.973674,890.067054L451.311859,892.118391L451.251866,893.920598L450.820290,895.372964L450.728948,896.618607L451.109964,897.588617L453.277383,898.500321L458.156327,902.051724L461.753473,903.488186L469.860042,904.702023L472.441335,905.841651L477.378847,906.509526L483.290265,908.401838L486.177219,908.825885L493.227603,908.825885L494.633814,908.417740L495.730127,907.447731L496.747182,906.255098L497.991149,905.189678L498.084935,906.080178L496.513904,910.045021L495.955536,912.870235L497.846924,915.409216L498.372644,918.218525L498.482125,921.229255L498.207365,923.052654L496.528600,924.420203L494.503148,924.955561L492.906841,925.777150L492.253653,928.708366L491.780064,929.339134L491.345847,930.171324L491.227570,931.544171L491.653446,932.429366L493.493136,935.222764L494.151566,936.473698L495.878185,941.159394L496.207897,943.650656L495.504334,945.855687L493.466507,949.650883L492.004678,953.456677L489.930940,957.013343L490.589900,958.380883L491.706746,958.948041L492.822317,959.319079L493.387625,960.130062L494.257636,962.393393L495.783158,964.248581L497.141064,966.379397L497.507197,969.464308L497.046540,970.800042L496.081720,972.114574L494.938293,972.761239L493.890395,972.135776L493.674529,973.227685L493.662856,975.618224L493.480987,976.588220L492.665647,977.637724L491.757949,978.321492L490.995972,979.068866L490.709574,980.298588L491.347436,982.037159L496.308953,988.943736L497.292246,990.613399L498.068491,992.447377L498.433626,994.450971L498.172276,996.703688L497.422262,998.150727L496.543248,999.327440L495.875022,1000.758578L495.168483,1000.758578L493.003608,999.634870L491.748205,1002.094305L490.323813,1007.871855L492.563511,1008.719935L493.515446,1008.757039L493.219551,1009.536213L492.634810,1011.550403L492.319116,1012.318975L494.643487,1012.318975L494.565315,1013.331370L494.293440,1014.073440L493.864551,1014.635293L493.367497,1015.069933L494.791684,1014.799608L495.808361,1014.354366L496.804779,1014.274859L498.127920,1015.069933L500.066293,1013.776612L502.122841,1015.038130L503.038435,1017.190132L501.503584,1018.621265L501.582666,1019.437541L507.371479,1022.183197L507.066663,1019.034704L507.223648,1016.819097L507.256208,1016.771393L508.341341,1015.499274L513.209915,1014.508081L516.916626,1011.995645L519.269334,1011.428491L537.939067,1014.099942L546.692977,1016.437461L555.010068,1020.402231L558.095946,1022.495926L559.307876,1022.336911L559.575010,1019.919886L560.552978,1018.695472L562.996279,1017.720181L567.932337,1016.850900L571.455317,1017.794388L573.315923,1017.709580L574.585106,1017.852694L575.104225,1017.741383L575.226558,1017.184831L575.073984,1016.289047L575.158460,1015.440968L575.986868,1015.069933L580.711279,1015.462170L583.004634,1015.239549L584.892073,1014.099942L585.715535,1012.446187L586.368522,1010.384293L587.385590,1008.624526L589.375496,1007.871855L596.448827,1008.136880L598.406516,1008.757039L601.504146,1010.474401L604.198955,1012.446187L606.552395,1014.826111L608.716170,1017.741383L609.446059,1019.119512L609.908182,1020.232616L610.468345,1021.207906L611.493360,1022.183197L612.489330,1022.384615L613.420168,1022.204399L614.247770,1022.681443L614.877529,1024.849344L612.456347,1024.048970L613.433578,1025.872338L615.273798,1027.775214L619.444636,1031.082718L619.249968,1029.651586L617.217129,1024.048970L617.464016,1023.338704L618.404081,1022.490625L618.531531,1021.700852L618.714772,1021.101896L619.290381,1021.759157L619.929597,1023.068379L620.287683,1024.451807L620.837317,1030.102128L622.234928,1029.556178L624.394768,1029.773498L626.382394,1030.515566L628.110134,1032.413140L632.698083,1039.081147L632.390158,1035.317805L632.464588,1033.589847L632.865249,1031.967899L630.431006,1031.893692L628.957676,1030.510265L627.752968,1028.734602L626.128513,1027.520790L626.034096,1026.550801L627.461460,1026.026053L632.259510,1025.739826L630.098396,1028.374169L630.723240,1029.444867L636.511786,1029.301754L635.922806,1029.556178L635.380804,1029.911310L634.341551,1031.082718L635.246389,1031.782382L636.114245,1031.909593L636.807218,1031.384845L637.287022,1030.102128L638.151817,1030.102128L637.571066,1031.973199L636.156495,1033.303621L635.499278,1034.390220L637.116119,1035.529824L636.272124,1035.264800L635.630536,1035.169391L635.121372,1034.808958L634.600205,1033.748862L634.155182,1036.452108L636.193244,1039.547589L639.087310,1042.653670L641.191847,1045.388717L641.122974,1046.607826L642.665111,1047.752729L646.287905,1049.841116L654.082514,1057.924336L658.475299,1060.198237L659.213736,1057.601007L657.639447,1053.583250L655.125553,1051.611474L655.573310,1050.169746L655.367054,1048.892331L654.724081,1047.620217L653.824418,1046.194389L651.576352,1048.060157L650.878833,1048.060157L651.304463,1046.682033L651.295271,1045.425820L650.766468,1044.376326L649.595573,1043.613057L650.106884,1043.321531L651.927733,1042.722577L652.784052,1044.371025L654.420622,1044.561842L656.182255,1043.830376L657.396042,1042.722577L656.891793,1044.148405L656.941579,1045.727947L657.368284,1047.360494L657.995341,1048.950636L658.757967,1048.950636L660.112231,1045.431121L660.739613,1044.413429L661.446412,1044.413429L660.355049,1047.084869L659.922785,1049.846417L660.177814,1055.618631L661.397743,1058.655800L663.541123,1058.894322L665.740885,1057.383688L667.166674,1055.173392L666.787928,1054.325316L666.249843,1053.562048L665.521322,1052.947194L664.557915,1052.501954L665.882953,1051.092028L667.686434,1052.247531L668.831028,1054.876565L668.210742,1057.924336L666.626586,1060.039223L664.418355,1062.148809L661.647507,1063.235405L658.495965,1062.371429L658.970554,1064.724836L661.407098,1068.647179L662.445230,1071.265608L662.390646,1071.869861L662.209199,1072.707334L662.228729,1073.703820L662.780096,1074.816917L663.461558,1075.336362L666.147720,1076.597872L666.845401,1076.597872L667.973328,1074.350477L669.614898,1074.594298L671.547683,1075.855807L684.280629,1080.679225L687.969519,1082.714600L691.411169,1085.290622L693.770768,1088.237674L693.935908,1089.308366L694.095603,1092.117606L694.576895,1092.690055L695.710264,1093.071687L696.966200,1093.670638L697.924480,1093.670638L698.200535,1092.239516L697.891265,1091.317238L696.189621,1088.237674L693.417617,1076.152633L693.712869,1073.762125L695.007920,1072.898150L696.732205,1072.442311L698.490530,1071.265608L698.574840,1072.156086L698.564672,1073.523605L703.128501,1077.228626L704.724204,1079.354110L702.018097,1079.067885L702.327713,1080.281690L717.162029,1094.842038L719.479663,1098.552353L721.169057,1104.329841L721.948689,1112.784051L722.806514,1114.119763L728.015843,1118.566834L736.827696,1130.089989L738.696856,1133.768492L739.196872,1136.826844L739.497322,1143.568996L740.600404,1146.213912L740.601362,1146.215108L742.072348,1143.244717L740.981942,1135.806352L739.218654,1130.629786L735.445144,1125.136836L729.928690,1117.536906L723.639849,1106.214416L721.900354,1099.745379L719.642253,1095.221763L718.862186,1094.282640L717.086757,1092.145434L710.277284,1082.014411L708.903516,1076.837824L709.484694,1055.512145L709.819668,1053.034917L710.793945,1050.577883L713.468318,1047.690025L714.276993,1045.852297L714.007386,1044.691342L713.679696,1043.280824L712.205577,1041.597922L708.312949,1039.396686L706.577374,1037.518566L706.171431,1036.502092L705.770062,1034.321050L705.240543,1033.250723L704.353404,1032.389076L701.322545,1030.497492L691.641933,1020.649129L687.949017,1017.862235L681.216218,1015.445580L680.485010,1014.874911L679.309980,1013.957890L678.290345,1011.884547L677.719931,1009.104381L677.593738,1006.344410L677.935170,1004.314820L679.220777,1002.906492L679.228702,1002.897810L679.991938,998.771312L679.989099,997.502396L679.564196,995.910362L679.039074,995.028515L678.391794,994.224083L677.594669,992.867655L676.592027,990.171628L675.617259,985.180104L674.728400,982.164320L673.874086,980.720378L673.378308,979.262972L673.406449,977.909907L674.540224,976.344794L674.638904,975.863480L674.442806,975.385531L673.363963,974.352220L673.095365,973.800223L673.226285,973.288616L673.781015,972.824130L674.565555,972.356279L675.111328,971.804282L675.396846,971.131114L675.367716,970.449827L675.362734,970.333410L673.287483,969.024099L671.973508,967.310887L669.735661,963.204561L663.856101,956.405557L661.138714,952.026590L653.262219,934.308568L653.115451,933.978881L652.025314,924.823736L651.938225,916.900483L650.408350,907.051937L650.385927,906.695354L650.289499,905.163679L650.095860,904.123623L649.526873,902.938833L648.064537,900.737547L647.762275,899.347438L649.579381,896.274386L653.977744,895.712283L663.308249,896.590779L670.197838,895.941164L672.310106,895.072765L677.302243,891.599170L679.308345,890.952920L674.967907,888.011132L672.230072,885.331882L672.078853,882.581947L675.392089,879.431469L686.183766,873.177628L688.600078,870.585883L688.925402,869.360694L688.783953,866.681433L688.920865,865.355266L689.347837,864.254614L691.068980,861.420518L691.737343,859.148528L692.912035,852.046446L694.552444,847.882804L697.010043,844.765959L702.933783,839.033786L704.376062,836.869493L704.594994,835.203357L704.322004,833.254482L704.367226,830.265532L704.938193,828.229140L706.884044,824.445824L707.464362,822.345476L707.449499,819.783993L707.280178,818.067904L707.223613,817.495149L707.507636,815.391431L709.038889,813.375227L710.845478,812.375540L714.898287,811.025793L716.696819,809.753462L717.922487,808.437519L724.829000,801.018801L728.331449,798.750142L730.536963,797.901919L737.286660,796.760857L742.178676,795.011977L745.506044,793.822367L753.227051,793.842563L755.639294,793.509332L757.503528,792.519737L760.378720,789.948135L761.961097,789.423043L762.420769,789.725981L763.097758,790.375613L764.052415,790.981488L765.262270,791.149787L766.055616,790.779530L769.978859,787.453948L774.081553,784.963126L775.959465,784.599601L778.088580,785.370409L779.756831,786.481182L781.459446,786.881733L783.659848,785.552172L784.233492,784.518817L784.286205,783.465266L784.516876,782.522792L785.528557,781.809204L786.672552,781.718323L787.852861,782.085215L788.869761,782.765142L789.662932,783.596539L790.090910,784.929466L790.206784,788.019432L790.711579,789.207621L791.589301,789.557682L795.536255,789.853888L802.451793,791.748930L804.646915,792.028305L806.119824,791.876836L807.026639,791.621023L807.997630,791.610925L809.712575,792.216799L811.040327,793.038096L812.285628,794.010861L813.655335,794.838889L815.389751,795.209146L817.368230,794.946600L817.873402,794.179160L818.040939,793.145807L818.974307,792.061965L825.107599,791.708538L828.570217,794.603272L832.397098,793.623775L833.368768,793.053133L833.439181,793.011779L836.426060,791.257498L840.437162,789.995258L841.160319,790.382345L841.835561,791.163251L842.721192,791.829713L844.158489,791.876836L844.963255,791.405601L847.385861,787.965576L847.480754,787.272186L847.689971,786.898562L848.677463,786.928856L848.379616,787.400093L848.623137,788.564720L849.411379,789.752908L850.856343,790.315026L852.819926,789.678857L854.170547,788.342566L855.768486,787.305846L858.509705,787.568392L865.014236,790.362149L878.237328,792.472613L879.057160,792.829406L879.838336,793.058292L880.507814,793.043462L880.902019,793.034730L881.486807,792.647644L882.131219,791.917228L882.965312,791.196910L884.136106,790.833385L886.263358,791.284426L888.162256,792.196604L890.072620,792.607252L892.222486,791.553703L893.297486,789.981794L894.157826,787.992504L895.211322,786.144584L896.875503,784.976590L898.708879,784.936198L901.697138,786.285955L903.624304,786.191708L904.271422,785.538708L905.156097,783.465266L906.039970,783.020957L907.031311,783.529220L907.896610,785.851744L908.740194,786.555233L910.412582,786.151316L913.471759,783.142132L914.933022,782.253514L916.849844,782.468936L918.525623,783.529220L920.192551,784.862147L922.179646,785.915698L922.991605,785.956089L925.100403,785.606028L926.154719,785.653151L927.082237,786.070533L929.062896,787.416923L930.031441,787.931917L932.067871,788.330969L936.678990,789.234549L938.899007,789.968331L939.646535,791.550337L939.885130,793.314106L940.047105,799.218011L940.366696,800.328779L944.868525,807.791111L947.175217,810.325674L949.837071,811.668690L955.755847,809.524578L958.499294,802.987888L960.331865,796.505043L963.436942,794.515756L965.029915,794.583076L970.801782,793.024632L972.758643,792.088893L973.451996,791.082467L974.490069,788.322370L975.201402,787.568392L976.346272,787.682835L978.532961,789.221085L980.010462,789.308600L980.596211,788.736385L982.458280,786.370104L983.273707,785.552172L984.535855,785.070837L987.477414,784.444766L988.570021,783.778302L988.954799,782.859390L989.574111,779.870399L989.986765,778.598058L990.612863,777.632020L992.946215,774.945964L995.921287,769.583943L996.874568,766.076577L996.701553,762.229243L994.010090,753.592077L993.705056,749.613453L993.852433,743.628678L993.292124,742.379885L991.768349,740.053965L991.228764,737.118792L991.398889,734.166787L991.979620,731.776906L992.459804,731.376348L993.988516,730.979156L994.422028,730.487716L994.300858,729.797679L993.261144,727.973289L992.891607,726.000792L993.012025,725.219871L993.466260,725.085229L995.267136,725.172746L995.851755,724.903463L996.355868,722.012035L993.959830,717.878534L994.760646,715.394391L998.874668,712.203375L999.741052,710.483322L996.624696,709.813477L996.612922,709.813477L996.589374,709.813477L996.588525,709.806745L994.998332,708.588734L990.997166,703.297282L990.764955,702.765444L990.616338,701.314668L990.275336,700.668383L989.764212,700.537106L988.323860,700.829955L987.702939,700.668383L984.513445,697.477348L981.949202,696.938776L980.726614,694.777757L980.371549,691.852637L980.461347,689.052059L980.889405,686.416416L981.646218,684.605463L985.599261,679.182697L988.381433,676.338350L991.344367,673.988817L991.741118,673.780119L991.381701,670.272647L990.643097,667.478786L990.177244,666.926746L988.019947,667.398000L985.844689,667.458589L983.465148,666.987336L981.509994,665.704851L980.535699,663.321651L981.161764,660.443633L983.217720,658.790876L988.279521,656.909222L991.957187,654.074959L992.334623,653.585388L993.506316,652.065392L993.893965,649.725945L993.358378,644.215617L993.466639,641.374615L995.198830,633.292564L995.464946,626.610811L993.495745,620.437337L989.620984,615.293894L984.082577,611.658474L978.931718,609.820567L976.379621,609.470490L971.769012,609.908087L970.092224,609.638796L968.574453,608.756870L966.919791,607.161324L965.395784,605.094519L959.458760,594.363287L957.444582,589.509321L957.031461,584.897716L959.305378,581.511384L961.536698,580.454417L962.655975,579.693670L963.183346,578.730955L963.052036,578.351154L962.834191,577.721114L961.875576,577.027691L960.723837,576.556432L946.978231,572.833485L942.267953,572.604588L941.080572,572.389155L925.464734,566.520295L922.146271,565.273143L919.455776,563.219800L917.313827,560.580750L915.766095,557.477173L914.874641,554.063912L914.176579,548.260697L913.405939,545.439877L911.823345,542.955670L910.783984,542.067012L908.391756,540.711020L907.315883,540.101190L906.326279,539.360641L903.754842,536.741791L902.728594,535.906990L899.419398,533.988296L898.226879,532.971725L897.328269,531.786847L896.625508,530.447128L895.004539,526.387577L893.739867,524.051484L892.240776,521.890431L890.429353,519.850559L888.290121,518.073245L881.377308,514.249329L879.120745,512.391230L877.590970,510.102267L876.649390,507.443032L876.114209,504.501045L875.853294,498.913292L876.300503,493.446725L877.190441,488.592795L877.155392,487.179030L876.877558,485.751801L872.905600,474.987006L872.641712,473.499191L872.655267,472.324731L872.659798,471.930590L873.008094,468.968427L873.006928,467.473883L872.707417,465.905284L872.105970,464.484794L870.599093,461.778459L870.014020,460.351239L869.028672,456.087577L867.248475,448.394922L867.397044,445.500100L871.978814,426.367409L872.073785,423.452412L871.642398,417.433927L870.293824,409.638191L869.773056,403.276404L869.466319,401.694375L868.915070,400.166203L865.258854,393.562087L864.726414,392.848494L863.779354,392.027189L861.675439,390.835623L860.678592,390.115299L859.712670,389.044910L857.417240,385.301921L854.635584,381.606062L853.056823,380.037511L847.111596,376.287805L844.867211,375.459774L825.766220,365.301273L821.964581,361.975704L817.944644,357.566305L817.290814,356.549788L816.207623,353.971474L815.775911,353.150184L815.198601,352.335626L813.214928,350.093911L809.824718,344.439146L807.746289,341.995485L799.646127,337.121638L798.921193,336.503201L798.438789,336.091668L797.355963,334.873209L796.470946,333.486456L794.842865,329.534887L788.017670,317.336917L786.967562,316.030857L786.242347,315.128906L778.116315,308.080793L776.302230,306.047818L774.633738,303.536897L767.854306,290.400064L760.584309,279.494865L758.099181,276.977257L755.073041,275.385242L752.286620,275.082322L749.902549,275.785770L747.956789,277.384517L746.457323,279.737202L746.101475,280.531529L745.778206,281.073421L745.301269,281.410001L744.492607,281.564827L742.595909,281.140737L741.408247,279.855005L740.392716,278.192305L739.020036,276.687800L737.150530,275.425632L735.198577,274.395704L733.185457,273.661964L731.157371,273.298461L724.515393,272.904665L722.912555,272.446920L715.977538,269.225879L714.891112,268.539264L713.772173,267.556461L711.974161,266.301033L705.070324,264.345530L702.121397,264.049343L699.122559,263.261758L698.131011,263.170882L696.553056,263.467068L696.006089,263.490629L693.856493,263.056447L687.336146,260.959587L686.187363,260.952855L677.452197,263.009326L674.895836,264.325335L672.722645,266.327959L671.221126,268.949887L670.549481,272.113708L670.640391,272.961883L670.905334,273.483578L671.281409,273.964884L671.635412,274.691892L672.660968,275.129443L677.925486,278.710637L678.776082,279.784323L678.823596,280.972447L677.942387,281.941796L676.572100,282.497152L672.518764,283.288115L670.195493,284.291123L666.915051,284.883504L666.010212,285.260474L665.141868,285.923537L664.151507,287.582880L663.724436,289.605732L663.713273,293.967832L663.384803,296.741273L662.317151,298.676625L660.629650,299.985935L658.385945,300.901443L658.413472,300.844516L658.472815,300.721792L658.516148,300.632176L658.678830,300.066715L658.614142,300.107317L658.154437,300.395855L657.348906,300.901443L656.547586,302.103048L656.240536,303.836457L656.414236,306.209379L658.473241,313.833047L658.108864,315.101979L657.108328,315.950178L656.373185,317.808140L655.345837,319.672835L653.488447,320.514305L651.518473,319.948837L647.647715,317.451357L645.524437,316.879159L643.733837,317.296527L634.698059,322.103001L633.191250,323.180084L632.696651,324.566829L626.716686,328.525118L623.169056,332.732493L621.609665,333.856705L617.745612,334.933796L616.341302,335.997423L616.021653,337.990043L617.018887,340.373112L618.376357,342.251296L618.514283,343.200486L615.952502,342.836966L609.668939,339.693197L607.990407,339.195041L607.850433,337.990043L608.512995,329.494496L606.313414,324.297558L602.376323,322.257832L592.677079,322.217441L588.408055,321.355775L584.321809,319.215076L580.835702,316.367546L578.276257,313.405582L574.922635,313.634461L571.267405,311.756309L564.773674,306.209379L561.540079,302.284803L560.607896,301.759732L560.115233,301.315441L556.297967,298.649699L554.898890,296.414787L554.157876,294.233732L553.152566,292.369067L550.879704,291.090056L545.604426,290.794013L542.303079,290.608745L541.583903,291.298737L540.107304,293.403499L525.908808,313.624364L523.701235,314.442269L518.920993,311.668797L514.291034,310.332550L513.012808,308.875134L512.303800,308.875134L510.718664,310.830698L510.137800,313.206996L509.938687,318.743853L508.418675,327.313396L508.393681,329.898404L498.187608,332.160289L496.526663,333.486456L495.895021,335.977228L494.885222,337.431301L492.036533,335.640637L492.321498,337.619793L492.286203,339.329677L491.974677,340.750095L491.396750,341.867581L489.421612,342.732187L488.197992,343.267804L491.044578,345.536439L489.048702,347.232867L485.471529,349.023544L483.597683,351.574924L483.291851,352.591438L482.884450,353.554097L482.605818,354.597540L482.406864,354.887011L481.006729,352.396213L480.689783,351.574924L480.461258,351.002714L480.152696,350.895004L479.769232,351.123888L479.317911,351.574924L478.044490,353.163648L476.361530,353.325213L474.617716,353.143452L473.129298,353.722394L472.597287,354.839888L473.385019,355.223605L474.575027,355.304388L475.202890,355.513077L475.210925,356.307440L475.092859,356.670963L473.474957,359.505093L472.801929,359.801297L471.930413,359.733978L470.582502,360.272530L459.680822,371.588901L458.031002,374.672135L456.437070,379.519149L455.865436,380.576069L454.598516,381.155019L453.128273,381.457958L452.073744,382.211940L452.065566,384.144019L452.066518,384.150751L450.559221,387.180147L450.047173,387.873543L449.068714,388.587134L448.691103,388.654454L448.158817,388.290926L444.701256,386.816619L440.999300,384.608526L439.022612,384.150751L437.139725,381.949393L435.016784,380.125027L432.739140,378.617065L430.372456,377.391847L425.259285,376.366068L421.077333,375.527094L419.053023,373.985476L418.604145,371.104201L419.780714,368.357569L422.886104,363.463458L424.416733,357.566305L424.507237,356.558994L424.718363,354.207090L424.120585,351.574924L423.668689,350.255476L423.762294,349.185108L424.357494,348.343625L425.333214,347.704098L425.399351,347.428091L425.394175,347.145353L425.319609,346.869347L425.175652,346.600072L424.300446,345.684539L423.890166,344.822862L423.985837,344.015040L424.705562,343.308195L426.875029,342.204173L427.258659,340.541408L426.265311,336.098400L426.310325,333.466260L426.959468,332.106435L430.221033,329.918600L432.799450,327.057588L434.137249,323.886920L435.114380,320.494110L436.584314,316.986867L437.884604,315.680909L441.164501,313.190167L441.787941,311.500504L441.172512,309.672842L438.531368,304.815918L437.788462,302.311730L437.906566,299.969106L438.885222,295.075188L438.844936,293.018670L438.281136,291.877658L437.448305,291.224689L436.553959,290.713085L435.778244,289.969240L434.501084,287.343908L433.990386,286.448603L433.277344,281.861017L433.330172,280.531529L433.790646,279.589107L435.377041,277.246520L435.593360,276.398342L434.221430,274.658234L426.522514,271.016467L425.453153,270.051228L422.443137,267.334321L420.514837,264.991754L419.424444,262.733335L419.646850,260.121517L422.400541,256.399012L422.854175,253.891543L422.872723,252.575545L423.246775,251.969715L429.873636,247.557263L431.141384,245.938357L431.359323,244.507933L430.823061,241.606702L430.945910,240.327739L431.599230,239.472854L433.471766,238.668455L434.385550,238.113117L437.052547,234.824848L438.190481,232.687646L438.508522,230.708634L437.602365,228.645483L434.509533,225.724095L433.546975,223.358046L433.615975,221.241058L434.672053,217.044115L434.871079,214.819439L433.118628,207.021326L432.929580,204.510594L433.491314,202.171512L435.732354,198.684775L436.579507,196.736111L437.051430,192.488776L437.557584,190.610799L441.613270,185.522105L440.076952,181.668579L436.495278,177.909301L430.835929,173.116831L429.270062,171.511493L428.228214,169.495568L427.503796,166.426256L426.720530,158.786669L422.797962,147.896151L422.649121,147.091819L422.738644,146.435566L422.668460,145.688447L422.109662,144.604789L421.377682,144.086518L419.395231,143.652382L418.563048,143.049977L417.296395,139.173055L417.118941,133.855775L418.135953,129.221688L420.409884,127.454885L422.890107,126.680859L423.985848,123.796773L424.025599,120.105023L423.318290,116.931542L422.630128,115.218608L421.886830,113.919607L420.833024,112.889830L419.200139,111.974474L417.187001,111.409107L416.035209,111.759096L415.137211,112.556667L413.956120,113.337412L411.344669,114.168638L408.239923,114.592664L404.936306,114.309980L401.624073,113.027806L396.156680,109.675991L393.545729,108.666411L390.293152,108.292867L380.289888,108.427477L379.607430,108.279406L379.030154,108.366902L378.060556,109.117357L377.716157,109.709644L376.725662,112.324463L373.027571,118.314680L368.636640,123.662160L367.801522,125.361649L366.903955,125.025117L365.880133,123.719371L364.683094,122.467472L362.895553,121.451147L353.103383,117.581045L350.157974,117.742579L348.067774,119.691090L347.137975,121.985949L346.466922,123.641969L344.523714,123.783312L341.123913,122.733332L337.639259,121.188652L335.449051,119.818971L333.824217,118.240644L333.201207,116.322424L332.888269,114.209021L332.182042,112.045144L331.017557,110.338950L328.245392,107.209252L327.073873,105.573737L326.069765,103.332480L325.164321,99.075455L324.493432,97.032763L323.501977,95.508319L322.077936,93.848163L321.227348,92.856532L320.437582,91.076341L320.577184,88.707244L322.719789,84.748230L323.860678,82.639829L324.555577,79.015554L325.177288,77.851212L325.964533,77.211835L328.007412,76.215753L328.875081,75.488883L329.676457,73.489994L329.811319,71.369965L329.671853,66.853986L331.363559,58.548957L331.362057,58.538862L332.787845,49.282861L332.831114,44.080555L331.616508,37.374133L331.179330,36.085348L330.688553,36.240137L330.350031,37.966369L329.581845,38.454291L327.617296,37.730820L325.574637,36.482415L324.569532,35.378704L324.090654,34.672061L322.052459,33.766885L321.079980,33.117447L320.549407,32.377156L319.697080,30.573540L319.002829,29.557325L315.472207,25.371336L306.706334,9.902834L304.034022,7.167181L299.573057,5.901986L295.628045,6.924909L292.623013,9.401465L290.860679,12.503897L290.255959,17.191208L290.070148,17.433482L289.467374,17.541159L287.108741,18.560728L286.794483,18.803002L285.898683,19.846126L286.722926,24.923800L285.286283,26.808165L283.267244,26.814895L281.057405,25.653991L279.215003,23.624936L278.193244,21.067592L277.752445,16.565335L272.292208,13.129768L271.191105,11.689592L270.446360,10.447946L269.549492,9.361087L267.907330,8.365080L266.218551,7.998308L264.895093,8.008402L263.607257,7.550778L262.033051,5.753931L260.796559,4.737738L260.210132,3.539842L259.760609,2.281380L258.866995,1.137325L257.549821,0.127865L256.976391,0.000000L256.495106,0.296108L250.478874,1.285379L248.106053,2.207353L246.291595,3.667708L245.305926,5.679904L244.497239,10.384013L243.795640,12.503897L242.180239,14.445444L240.304647,15.182358L235.726159,15.168898L233.458914,15.626526L229.548422,17.564713L227.428848,17.995422L226.292588,17.732959L224.385371,16.440833L223.300027,15.969746L222.105948,15.868799L220.085243,16.178370L218.990530,16.117802L209.855044,12.995172L203.731735,8.842894L202.035057,8.183376L199.979237,9.044787L201.319181,11.242061L206.176986,15.996665L207.500545,18.399212L209.892038,25.983755L214.221543,30.321169L215.311079,32.404076L215.199745,35.688281L214.372962,37.922624L214.210863,38.053535L213.256286,38.824439L212.033034,39.558005L210.814343,41.274148L207.584477,44.719905L194.678284,49.323241L191.865534,49.814534L189.379151,48.552652L184.403248,44.575210L182.281662,43.569074L177.404785,42.091841L175.187243,41.863022L170.672557,42.613415L166.013717,44.770380L162.330302,48.165675L160.763050,52.614238L160.835067,61.553968L161.152314,62.842795L162.153932,65.215183L162.412610,66.423253L162.211207,67.042432L161.774313,67.728913L161.371397,68.647588L161.331334,69.970077L162.165252,73.113099L163.082649,75.549455L163.572638,78.019469L163.159243,81.263477L162.076034,84.083486L160.725234,85.554067L156.621042,87.455394L153.050627,90.692708L151.345950,91.103262L148.644560,87.489046L147.013003,86.079035L145.256595,84.854111L141.607081,83.147969L135.799449,88.754357L133.755310,89.562003L123.951266,91.170566L122.105732,92.139744L121.305641,93.145940L119.769730,95.841475L118.999413,96.490962L116.541151,97.026032L114.424534,97.981756L113.421712,99.122568L113.386794,100.007624L112.966150,100.169155L110.883607,99.189872L109.560730,98.129826L108.533370,96.931806L107.426447,96.151075L106.203100,96.291209L105.840041,96.332797L102.222292,98.621149L97.141247,98.802871L91.765710,98.244243L87.219816,98.328374L82.562696,100.949890L79.808428,101.622937L77.495796,100.021085L77.017730,98.658166L76.770600,95.986179L76.059755,94.710763L75.159724,94.226172L71.136209,92.913741L65.985801,88.421203L63.416028,86.977538L60.616426,87.495777L59.066016,86.957347L57.361966,84.793538L55.408741,83.006632L53.112706,83.612362L52.621178,85.382443L52.348016,93.909842L52.809127,96.289049L54.426139,101.003733L54.724462,103.308924L54.366308,104.954530L53.495950,105.321343L52.392365,105.287690L51.214183,105.708347L50.359744,106.670811L49.023287,108.827944L48.242301,109.733201L41.762014,113.589809L39.915008,113.892186L37.650777,114.262866L36.888638,115.868109L37.125520,118.240644L37.733858,120.838660L38.345163,122.484299L38.870862,123.130440L39.045770,123.857349L38.571500,125.758758L37.801315,127.148640L34.571993,130.786573L31.617471,136.420181L31.821690,137.352388L33.025102,139.866323L33.387267,141.165360L34.561694,144.291807L36.490621,146.728356L37.843286,148.979813L37.322819,151.544259L36.303760,152.022149L35.000812,151.907725L33.976231,152.102919L33.732287,153.499570L34.534384,154.687566L37.936978,157.369818L39.117241,158.584742L40.300735,161.044884L40.927752,163.377145L41.899143,173.581269L41.404781,175.439022L40.088670,177.441496L33.904752,183.368167L33.025352,185.811540L33.002887,190.816097L32.484168,192.838793L31.141073,194.743698L29.031408,196.608219L28.053252,197.873673L28.731247,199.428566L31.677644,202.201803L34.737000,204.453379L36.126855,205.829906L36.841590,207.479047L36.880764,210.878306L37.138895,211.951935L39.219780,216.788328L39.901602,219.113977L40.368612,221.988230L41.623162,226.865051L43.645078,232.038072L45.203608,237.332278L45.045765,242.582753L44.565489,244.070392L44.270965,244.305991L43.697755,244.144438L38.531952,245.786901L32.510869,245.605152L30.422143,246.402825L23.351597,252.144733L19.275190,254.463717L13.959988,254.308893L11.240662,254.874336L10.008831,254.692586L8.659770,253.844423L8.027783,252.932312L7.558982,251.848549L4.673751,247.826519L3.576906,247.106257L2.741496,246.994397L0.258948,246.661984L1.168269,248.129433L3.954784,250.620062L5.590777,253.090501L6.329226,255.008965L9.782602,260.993244L13.355829,265.917337L14.147910,268.805159L14.601114,271.783863L15.708411,275.001544L17.694676,277.889385L20.307929,280.403629L23.040693,282.433202L25.541963,283.897324L26.463866,282.951535L26.816313,281.955259L28.047457,275.698260L28.217213,275.405437L29.458521,275.068859L35.582022,277.633585L37.175807,278.555810L38.153152,280.511334L38.428877,282.894317L37.855389,284.903699L36.275493,285.751881L36.130817,286.977035L37.764370,289.689877L44.830873,298.575651L45.395180,299.427206L45.620555,300.201349L45.776230,301.315441L46.236710,302.850264L47.623174,305.226551L48.079708,306.650305L48.071483,307.431183L47.752546,308.673183L47.738141,309.326159L48.058494,310.446990L48.471031,310.547965L48.954785,310.403233L49.481740,310.736453L51.141804,311.547626L51.451272,312.086164L52.023818,313.671486L54.290034,318.077410L54.863351,318.743853L55.323200,319.437224L56.051560,320.965333L56.521992,322.493444L56.255995,323.193547L55.930522,323.550331L53.133498,325.859331L50.793789,332.059312L50.347426,333.998073L52.737894,340.171157L50.189229,340.561603L51.328787,342.359005L52.927007,343.658252L54.277310,345.199846L55.046705,346.950129L55.898867,348.451335L58.994714,351.002714L60.153692,352.349090L60.561258,353.688735L60.790765,355.183214L61.171434,356.839260L62.124467,358.650141L63.435653,360.252335L81.439735,376.446948L84.779849,379.451830L86.625149,380.677049L89.502267,382.070568L90.810350,382.885138L91.992542,384.150751L92.763399,386.096296L95.868874,390.445167L97.551783,394.174701L98.582380,395.965418L100.323934,397.722476L101.980283,398.597640L103.719966,399.223718L105.197785,400.166203L106.129864,402.010780L106.277883,403.613006L106.241376,406.359681L106.718700,408.056158L107.792559,409.308320L118.896183,419.520872L120.818910,420.631666L123.265571,422.577239L128.134821,428.979466L130.981952,430.938509L130.209505,432.082968L129.882429,433.570766L130.280798,434.695030L133.241345,434.715226L133.483390,435.725044L133.054678,436.896433L132.668620,437.340754L134.593250,440.296158L136.365962,441.952263L138.428753,442.625476L144.023602,442.766851L146.411558,443.500654L148.649201,444.948064L151.033572,447.223529L152.498375,449.209513L154.996868,453.470966L156.460257,455.187667L157.360003,456.904369L157.687039,459.078858L158.366097,460.990795L160.260831,461.899638L161.438450,462.714232L162.417137,464.498258L163.889007,468.214423L162.302506,467.063219L160.959561,466.679485L160.127433,467.305578L160.093115,469.156929L160.795849,470.725528L161.907351,471.398747L163.089417,471.896930L164.063349,472.947152L163.915939,474.394573L162.756544,476.003568L161.085078,477.296150L159.488341,477.827994L158.412789,479.982299L157.851410,482.473215L158.382131,484.789095L162.136964,487.683946L162.907069,489.151569L164.177510,492.712913L166.081018,495.203835L170.438150,498.219873L172.399198,500.616546L173.055857,501.942796L173.434466,503.120937L173.545481,504.319275L173.351435,505.699383L173.559344,507.099688L174.442309,508.452868L182.739546,518.672415L183.977333,521.035435L183.980881,522.408815L183.196858,525.128645L183.523457,526.549151L185.486056,530.332679L188.363418,539.710719L189.333730,541.663076L191.730601,543.379803L193.358331,541.885240L196.021351,536.243603L202.097484,530.211499L203.221143,527.121392L203.467484,521.735589L204.133611,519.648592L206.219539,517.460611L207.236780,521.897163L209.666248,524.206326L212.545227,526.091357L214.926121,529.289179L215.329957,531.658934L214.942438,537.334230L215.170193,543.238426L214.873644,545.298499L212.213718,549.438843L211.099178,551.815334L210.702047,554.380329L210.836826,557.154024L211.308825,560.176814L210.929860,561.341497L208.669697,564.606648L207.772555,565.401056L206.054710,565.663615L205.180981,565.084640L204.417677,564.175783L202.976712,563.482359L195.877002,562.479250L193.890750,562.573502L191.681341,563.859366L191.007270,566.027158L190.635764,568.632547L189.376038,571.190810L188.267842,572.362226L187.477568,572.894075L186.531594,573.035453L185.051137,573.042185L183.849140,572.651714L182.364146,571.978486L180.998126,571.776518L180.120323,572.820020L180.693790,574.550214L184.369891,579.410915L185.476395,582.009572L185.418695,584.332205L184.686488,589.408337L185.164792,592.538842L186.689672,598.005444L186.729434,600.375202L184.809668,613.482916L184.872798,616.532629L185.901939,621.335155L186.361124,623.480315L187.048620,630.922814L192.107086,650.328479L193.120864,656.895758L192.827250,662.995140L190.289947,666.819030L189.569846,663.984774L187.638186,661.934817L185.128608,660.457097L182.661100,659.326086L180.639894,660.608572L178.911497,661.396241L174.934631,662.372410L174.262206,662.941282L174.307905,663.998238L175.045958,666.206400L175.044766,667.364339L174.507670,668.081318L173.584569,668.720876L173.472183,668.862253L173.247032,669.336872L173.055158,669.989895L172.983376,670.663115L173.306840,671.003090L174.055616,671.454147L174.809654,672.046580L175.206113,672.797219L175.444012,674.773117L175.266004,675.641569L174.496819,675.900758L172.701550,675.163584L168.488214,672.524566L166.309766,671.635917L163.663746,671.164663L162.328095,671.508005L159.070613,677.896850L157.608105,679.738101L155.742601,680.771491L154.855878,680.725854L151.360543,680.545963L151.623881,682.067042L151.626862,682.084265L152.640750,684.120992L153.546911,685.941799L153.267403,688.338449L151.442951,692.896120L151.225078,695.427409L152.457340,698.501285L152.461126,698.510732L156.437319,702.564240L156.462985,702.590408L157.409961,705.431367L157.202619,706.771061L156.710388,707.891959L156.361786,709.134036L156.468836,710.168278L156.537279,710.830026L157.145700,712.203375L159.931069,716.686953L161.029666,719.541360L161.434340,724.230256L161.952383,726.966844L162.373950,727.656881L163.728273,728.774405L164.189691,729.605815L164.228439,730.245361L164.059116,732.140437L165.258442,734.671691L172.687198,745.597798L188.136192,760.408236L189.923940,762.976494L191.232122,765.787102L192.213713,768.944404L193.255865,770.765406L194.727008,771.378016L196.312124,772.270003L206.269816,790.355417L212.267190,797.659569L213.324961,798.696286L214.932607,799.803688L215.773516,800.160481L217.579073,800.608154L218.463532,801.038997L219.296186,801.853560L220.995864,804.007774L221.845131,804.654038L223.585033,804.721358L224.871272,804.203000L225.987413,804.384762L229.401694,810.440117L232.318048,813.486304L247.100424,824.903592L249.671661,826.105233L252.504141,827.000573L254.664078,828.431096L256.038108,830.548271L256.619473,833.510293L257.492191,835.903471L261.651300,840.780703L263.309319,843.251293L264.773560,846.115694L265.975254,847.640457L269.880907,850.629395L270.471041,851.403556L271.257881,853.352423L271.790724,854.143413L272.429579,854.493468L274.074030,854.984892L274.635021,855.378704L275.342054,856.475993L275.680777,857.327569L275.751922,858.323879L275.647897,859.889029L275.923113,862.137457L277.882905,868.367752L278.978318,870.468077L283.103179,874.453305L283.848417,875.552058L284.625823,876.698360L285.020327,880.104648L284.954483,883.066636L286.383244,894.012511L292.564678,914.180859L292.928061,916.685068L293.004211,923.191291L293.637301,925.695495L293.764894,926.947597L293.419225,928.304040L292.869730,929.397945L292.522258,930.623119L292.771404,932.380098L294.704902,937.257228L295.446505,939.926352L295.342784,942.174743L295.262919,942.263990L293.857737,943.834109L289.394883,944.399572L287.304382,945.321816L286.154331,947.502888L286.420694,950.044105L287.064138,952.938735L287.073179,956.223801L286.389275,959.313647L286.052484,962.221736L286.865698,964.830263L289.609664,967.034888L291.702388,968.384590L294.035998,970.501702L295.853372,973.012617L296.386690,975.553823L296.047882,977.031424L295.568990,978.165710L295.263504,979.384142L295.311943,981.083888L295.675436,982.265295L297.561254,986.223511L298.341236,990.232213L298.856128,991.521325L299.902455,992.934972L302.405547,995.371830L303.425584,996.883085L304.110059,999.565646L304.208163,1002.049623L304.539834,1004.388869L305.935873,1006.627139L307.017453,1007.192596L309.672796,1007.670543L310.948111,1008.532192L311.568916,1009.710229L312.081643,1012.349030L312.570546,1013.385701L313.714627,1014.112717L316.476167,1014.960903L317.420939,1015.950453L318.283564,1017.316973L319.529332,1018.616178L320.900669,1019.747091L326.867989,1023.261000L328.125894,1025.065075L328.406328,1026.235523L328.888559,1028.249131L329.126869,1031.015826L329.068379,1033.896958L328.750391,1035.283670L327.785819,1038.084021L327.625776,1039.396686L328.361513,1042.075866L331.448916,1047.299592L332.470626,1050.147060L333.463097,1057.390261L334.071864,1059.880951L334.845526,1061.476339L336.824537,1063.845860L337.735861,1065.272957L338.173296,1066.686591L338.119681,1069.056111L338.341638,1070.442818L338.904206,1071.809330L340.367982,1074.374064L340.902270,1075.693455L340.863952,1077.470593L340.038236,1078.648620L339.019226,1079.651626L338.531463,1080.910431L339.132801,1083.232827L340.779404,1083.670379L347.002598,1081.300863L348.168552,1081.260474L349.218815,1081.765342L349.795672,1082.909711L349.647282,1084.134858L349.283479,1085.460979L349.229590,1086.948658L347.966698,1093.094586L347.914764,1096.709440L349.902949,1098.580817L352.147987,1099.368411L353.850566,1100.957061L354.852931,1103.171748L354.961247,1105.830717L353.657795,1111.081337L353.518255,1113.760500L354.613373,1116.641608L356.207105,1118.620687L358.441775,1120.633424L360.779362,1122.208609L362.772934,1122.834644L363.119958,1124.086713L362.202609,1132.730032L361.504174,1135.819815L355.119150,1146.920143L353.867714,1148.165479L349.143774,1148.488594L346.558430,1149.074238L344.805391,1150.400353L343.938703,1152.547717L344.047154,1155.590377L344.713140,1160.867908L344.474010,1163.045563L343.642173,1165.623745L342.420479,1167.794667L339.439830,1171.530674L338.541341,1173.620817L338.174823,1176.831763L338.190309,1179.113755L337.663454,1181.277945L333.767603,1186.552107L332.718157,1188.561471L331.417400,1193.795243L330.276139,1196.703267L327.001099,1201.694703L325.763545,1204.602727L323.256418,1216.248285L322.563715,1217.321965L320.202519,1218.240820L319.137806,1218.961094L318.386809,1220.192966L317.529947,1222.885580L316.886959,1224.141012L315.743273,1225.217386L314.909235,1226.002282L310.559346,1228.661238L308.863987,1230.805233L308.461011,1231.966423L307.760680,1235.897640L306.906420,1237.482917L305.780013,1237.449259L304.516429,1236.739082L303.179585,1236.294801L301.705210,1236.052466L301.098551,1235.715889L300.649701,1235.870714L299.698167,1237.129511L299.138146,1238.257044L298.785103,1239.606717L298.627125,1241.030437L298.664180,1242.380110L299.039324,1243.965387L300.161584,1246.614247L300.325998,1248.529370L300.108652,1251.151304L299.705422,1252.181229L298.938598,1253.251543L298.405638,1253.392906L294.483233,1255.398904L293.248925,1255.348418L292.223892,1254.803163L291.137356,1254.527170L289.672027,1255.294565L288.798033,1256.509608L288.405592,1257.940436L288.063094,1259.188761L287.336455,1260.326391L286.519296,1260.615847L284.095224,1260.780769L283.035965,1261.151004L281.020618,1263.355583L276.547133,1270.894909L275.641601,1273.850055L275.058433,1279.443967L275.601275,1281.106658L277.967020,1283.240557L278.820558,1284.640719L281.059157,1292.822912L281.153723,1295.448215L279.947581,1300.419464L279.291635,1307.050041L277.713005,1314.952989L277.793343,1317.756920L276.386573,1322.612121L276.149536,1325.177534L276.152172,1327.838355L275.822402,1330.923212L275.172300,1333.843755L272.925134,1339.504630L270.527691,1349.506573L269.038957,1351.584349L264.666210,1361.446372L264.361170,1363.158423L264.404527,1364.017099L265.764219,1365.808658L265.960872,1365.045390L267.207836,1364.886376L268.347564,1365.437625L268.182829,1366.773344L267.221873,1367.409400L264.673948,1367.366996L263.820831,1368.077260L263.004457,1369.688603L261.918157,1370.918313L261.744991,1371.623276L262.613421,1372.163924L263.498998,1372.423647L263.926611,1372.927192L263.521121,1374.294714L261.905876,1375.694040L262.620165,1376.558017L261.653833,1377.125168L260.798058,1377.151670L260.036857,1376.674628L259.449315,1375.757645L258.160560,1377.162271L256.486590,1379.573988L255.726508,1381.863794L257.844497,1383.332027L258.417883,1384.317916L259.098209,1385.234899L260.139509,1385.457519L261.167984,1384.710151L262.870080,1382.028109L263.725927,1381.084624L262.971381,1383.453938L262.099887,1385.362110L260.979641,1386.920451L259.475766,1388.197867L258.439908,1388.579502L257.519915,1388.621905L256.643619,1388.886929L255.760429,1389.978829L255.888069,1390.466473L256.130024,1393.371137L256.074067,1394.431234L256.782650,1394.431234L256.872543,1393.853481L256.975845,1393.466546L257.435263,1392.576065L258.488468,1393.233325L259.533444,1393.508950L261.885183,1393.540753L262.673215,1394.139707L262.248030,1395.385321L261.402458,1396.487822L260.926564,1396.615033L260.505029,1398.846537L259.092572,1399.180468L257.226575,1398.364193L255.403547,1397.097377L254.677230,1397.908351L256.233238,1398.957848L257.086427,1400.357176L256.798420,1401.438475L254.932101,1401.549785L257.189382,1404.634669L257.563569,1405.588756L257.352795,1406.177111L256.397163,1407.719553L256.180414,1408.223099L255.001505,1408.164794L253.000337,1409.961660L252.200250,1412.140162L254.566735,1413.189659L254.871044,1413.544792L255.419441,1415.272752L255.926314,1415.861107L256.857146,1415.972417L259.025384,1415.638486L259.917285,1415.861107L260.303510,1417.133225L259.127437,1418.739275L255.571981,1422.089187L251.994366,1419.423038L250.638509,1423.032675L249.390852,1434.534756L247.364869,1439.177995L246.619313,1441.531418L245.579532,1449.641190L244.900620,1452.037019L243.673094,1454.183724L243.454416,1455.938192L242.546663,1458.132603L242.727249,1460.146797L244.926203,1461.376515L243.353064,1463.533823L242.500416,1464.461413L241.593635,1464.853651L240.095551,1464.344802L239.514753,1463.602730L239.772642,1466.231784L240.601665,1469.465097L242.296763,1472.401582L245.981846,1477.384066L247.538815,1481.507869L245.769261,1482.552071L243.035351,1482.684584L241.727942,1484.094522L242.274655,1487.481554L243.460491,1488.504554L245.584159,1487.879093L248.913090,1486.278336L246.440501,1489.575259L245.439161,1491.398639L245.833958,1493.031199L246.305911,1494.271522L244.879938,1494.292724L243.149883,1493.794475L242.700207,1493.476443L241.807698,1494.101905L240.552950,1497.213312L238.549148,1500.727559L237.823819,1505.863769L235.589719,1510.332113L235.194205,1513.210300L235.277080,1521.304210L235.096934,1522.146995L234.758130,1522.989779L233.934432,1523.986279L233.014040,1524.632944L232.247570,1525.353817L231.846247,1526.541136L232.285826,1528.343317L234.407182,1533.468934L234.809509,1536.331224L234.610689,1537.635156L233.573311,1541.668865L233.546075,1542.283727L233.743228,1544.414544L233.599010,1544.949898L233.278783,1545.506455L233.011086,1546.158421L233.119073,1547.001207L234.386500,1548.639073L236.088245,1549.905903L237.193891,1551.496065L236.692063,1554.114532L233.713450,1550.743388L232.751211,1549.057816L232.307740,1546.555961L231.844159,1545.395143L231.130805,1546.386344L230.704655,1548.707981L231.046373,1551.533169L236.943597,1568.192777L240.012486,1580.394637L241.174113,1582.334638L241.986422,1584.211032L242.319072,1589.787212L242.872505,1591.716613L243.544171,1592.495794L244.312719,1593.020549L245.273082,1593.317380L246.538849,1593.412790L247.880126,1593.836834L248.412447,1594.785633L248.823382,1595.734432L251.850544,1597.043669L254.213886,1601.496134L256.162458,1603.356629L257.299011,1601.734659L257.568527,1600.923674L257.581158,1599.715148L258.281240,1599.715148L259.935723,1601.808867L262.157200,1598.331703L263.763074,1592.988745L263.524203,1589.447977L262.707728,1587.497374L262.585795,1584.990213L262.037151,1582.843491L258.394031,1581.237424L259.001601,1579.853981L260.935195,1578.793871L263.324376,1579.101303L263.222242,1577.405127L264.006240,1577.405127L264.850112,1578.709062L265.640818,1578.820374L266.197371,1577.988188L266.299746,1576.435127L267.083741,1576.435127L268.317319,1578.009390L270.068423,1577.330920L271.769948,1575.677149L272.859443,1574.246001L274.580177,1573.222995L276.587464,1573.079880L278.117876,1572.306000L278.473611,1569.401301L280.488899,1570.312995L282.986593,1570.869552L284.567064,1571.691137L283.811886,1573.397913L282.031210,1574.972176L281.480907,1576.058788L281.422597,1582.991906L281.738243,1584.518464L282.522272,1584.518464L282.468826,1583.627972L283.234183,1583.627972L284.481394,1584.036114L287.670130,1581.650867L289.812375,1580.956495L290.674551,1582.255130L291.633462,1591.716613L292.342848,1591.716613L293.767944,1588.075134L296.031170,1593.147762L296.526430,1595.193775L296.660083,1597.441210L296.506417,1601.618047L297.010654,1603.356629L297.125524,1609.738498L297.534468,1612.250962L298.175413,1613.311073L299.759065,1615.007252L300.135364,1616.173375L300.497697,1618.060374L301.106350,1618.092177L302.513882,1616.618622L302.864102,1615.903046L303.109169,1614.827033L303.723171,1614.312879L305.208272,1615.282881L305.841943,1616.380096L306.795234,1619.274201L307.412881,1620.260105L309.066918,1620.768959L310.667596,1620.042783L312.312532,1618.956168L314.044391,1618.399609L314.407345,1617.901357L315.111617,1615.579712L315.796263,1614.837634L317.230163,1614.455994L317.727707,1614.821732L317.959456,1615.749330L318.701733,1617.106273L319.658125,1617.975565L321.574091,1619.131086L322.442898,1620.260105L322.899654,1621.367922L322.886616,1622.104700L322.727889,1622.905085L322.673745,1624.219624L323.666813,1626.848701L325.611000,1628.014825L327.494856,1628.624389L328.391330,1629.594392L330.348523,1632.923145L330.980501,1633.681125L332.441984,1633.930252L333.516377,1633.458502L335.582690,1630.930134L335.794655,1633.140468L335.309113,1637.020480L335.235068,1639.464039L334.606040,1641.027706L330.076635,1645.241654L331.792917,1648.644617L332.917143,1657.252737L335.707580,1660.364170L339.830755,1661.286469L342.101760,1659.505478L343.018887,1655.916994L343.036491,1651.464518L343.755432,1651.464518L344.728219,1654.448737L346.612749,1656.229727L348.934548,1657.655580L351.329682,1659.553183L353.039863,1662.055051L354.017320,1662.828934L355.882295,1663.115165L357.441642,1663.942053L358.927025,1665.776050L359.777611,1667.615348L359.348201,1668.447537L358.070525,1668.807976L358.462481,1669.634865L359.633608,1670.535962L360.674513,1671.113724L361.665627,1670.970608L362.652203,1670.414048L363.444612,1670.557164L364.615459,1676.456699L365.638372,1679.727151L365.965762,1682.589460L364.596631,1685.345758L365.511344,1685.674393L368.012291,1685.642590L368.555165,1685.833410L368.871455,1687.328172L370.127491,1689.437800L370.428262,1690.317695L371.147056,1696.243737L371.137224,1699.296868L370.189858,1701.438300L373.887943,1707.592268L375.407514,1709.601187L377.094532,1710.740811L380.378402,1711.360978L381.015542,1711.742620L381.726128,1712.617215L383.315050,1713.672030L385.091168,1714.562527L386.316389,1714.938868L388.293275,1714.191487L388.641493,1712.346886L387.914848,1707.745985L388.138565,1705.684061L388.782229,1703.107981L389.867265,1701.263381L391.408479,1701.438300L391.953751,1703.208692L391.699655,1708.816702L392.286772,1710.852123L395.212133,1712.092458L397.299799,1709.436869L400.165795,1702.408305L400.875576,1702.408305L400.525624,1706.765379L399.268314,1711.456389L397.351129,1715.193296L394.986791,1716.719862L394.526537,1719.608677L396.899497,1725.688441L400.184220,1731.031424L402.464785,1731.757604L403.305432,1731.757604L403.777916,1733.607506L404.578660,1733.559801L406.369124,1731.757604L410.228290,1729.170921L410.418525,1733.771824L411.156703,1735.351397L412.962515,1736.284299L414.299974,1735.616426L416.356059,1734.238275L418.290098,1733.549200L419.226484,1734.990958L416.264364,1739.878093L415.945430,1740.731486L414.720389,1741.584880L413.650825,1743.609702L412.010815,1747.924375L412.906164,1749.668267L412.581165,1752.366263L412.571381,1754.846936L414.393943,1755.933555L415.674899,1756.490116L416.392697,1757.709250L416.569172,1758.938986L416.177631,1759.490246L414.526086,1759.527350L413.924496,1759.813582L413.542656,1762.161740L413.786666,1767.388116L416.802090,1770.409449L426.951810,1774.639315L427.586999,1775.179975L428.461914,1776.383208L429.559196,1779.727877L430.477927,1781.424064L431.493006,1781.360457L433.515203,1780.533566L435.420335,1782.335765L438.417999,1787.228205L441.539461,1789.804290L442.884926,1791.452772L443.539595,1793.848637L444.088295,1795.083674L445.209036,1795.258593L446.298148,1795.179085L446.825600,1795.629635L447.122577,1797.060793L448.224073,1799.249935L448.570727,1800.559180L448.397111,1801.189950L447.440159,1802.774826L447.235560,1803.718330L447.631010,1804.333198L448.459621,1804.089371L449.873835,1803.230676L450.715386,1803.797839L451.230526,1805.117685L451.624406,1806.628352L452.073726,1807.757378L455.577553,1812.029651L459.591921,1815.687057L460.551319,1812.830040L461.375358,1811.748720L462.839465,1811.319372L464.034037,1812.220472L463.999205,1814.319505L462.807677,1818.517571L464.916502,1819.206647L466.378257,1821.348085L467.354385,1824.061986L468.205369,1822.051553L469.072021,1819.204024L469.384404,1815.959322L469.279925,1814.821657L468.792611,1812.559790L468.834952,1811.395198L469.537706,1810.032019L470.497381,1809.059282L471.128631,1807.928349L470.803962,1806.080485L469.731448,1803.057931L469.494257,1800.836455L469.991092,1795.555401L469.989140,1792.610262L470.233633,1791.125913L470.919941,1790.045468L472.527052,1789.453074L473.607777,1790.166639L473.920628,1790.566875L474.483880,1791.287474L475.500070,1791.900063L477.240464,1791.940454L477.227379,1791.684647L478.902810,1790.456104L479.941469,1790.348396L481.277663,1790.489763L482.524825,1790.977814L483.356899,1791.933722L488.360496,1806.551707L489.784530,1809.018892L492.145972,1811.253831L495.551645,1813.058714L496.699722,1813.667162L499.301723,1814.555753L501.244999,1814.734144L504.192257,1814.347069L505.924964,1814.821657L509.741863,1817.807187L511.891285,1818.901095L519.014071,1821.199987L523.040530,1823.165657L525.140001,1823.737856L527.159767,1823.428195L534.259086,1817.450404L536.222067,1817.430209L536.440537,1818.234653L536.550822,1821.139401L536.913882,1822.226579L537.921880,1823.041120L538.998539,1823.212780L540.178328,1823.192584L541.494527,1823.408000L544.228066,1825.148157L545.420789,1827.642269L546.055565,1833.835477L546.391010,1835.333291L546.971926,1836.757056L548.473485,1839.399267L548.746450,1840.479712L548.562321,1841.677964L548.252944,1842.779208L548.219069,1842.899776L548.062662,1844.061002L548.318931,1847.824050L548.651531,1848.917959L549.713373,1850.846605L550.208563,1850.779288L550.794553,1849.900794L552.181508,1849.382450L553.723796,1849.611329L558.573072,1850.961045L560.702321,1850.331626L563.537695,1846.683019L565.707856,1846.164674L569.573110,1849.584402L571.512418,1850.284504L576.718941,1848.998740L578.206920,1849.570939L579.049354,1851.257242L579.493937,1853.909551L579.435232,1857.076838L578.438888,1858.184211L576.969766,1858.968460L575.532863,1861.146181L575.571982,1864.148541L577.506621,1866.104114L579.731195,1867.921686L580.675221,1870.506678L580.315695,1875.605978L580.493261,1883.020999L579.889119,1887.275465L579.816127,1889.732553L579.051034,1892.118958L577.003433,1892.997452L574.607619,1893.542723L572.773449,1894.919366L568.570009,1905.737286L567.884439,1907.194710L567.676788,1908.719451L567.965769,1910.203802L568.615669,1911.267452L569.559551,1912.812354L571.049577,1915.875300L571.887083,1916.908623L573.032437,1917.413505L575.211570,1917.299065L576.363165,1917.554871L579.036107,1919.510444L581.346277,1922.351242L583.242743,1925.622872L584.710818,1928.881038L586.680659,1929.890800Z "/></g></svg>