<?xml version="1.0" encoding="utf-8"?><!DOCTYPE svg  PUBLIC '-//W3C//DTD SVG 1.1//EN'  'http://www.w3.org/Graphics/SVG/1.1/DTD/svg11.dtd'><svg enable_background="new 0 0 1000 633" height="633px" pretty_print="False" style="stroke-linejoin: round; stroke:#000; fill: none;" version="1.1" viewBox="0 0 1000 633" width="1000px" xmlns="http://www.w3.org/2000/svg" xmlns:xlink="http://www.w3.org/1999/xlink"><defs><style type="text/css"><![CDATA[path { fill-rule: evenodd; }]]></style></defs><metadata><views><view h="633.40414838" padding="0" w="1000"><proj flip="auto" id="robinson" lon0="70.9281416498"/><bbox h="73.5" w="116.22" x="922.67" y="-689.02"/></view></views></metadata><g class="" fill="#000" id="country"><path d="M362.565580,169.127254L347.041329,164.650724L345.269832,164.606266L345.781021,166.822020L347.358037,169.201387L349.534376,171.306995L354.271108,173.917410L355.838174,175.304483L360.756222,180.698903L361.575816,181.203625L366.279372,176.624984L369.166232,174.992930L372.821232,174.273431L373.726358,173.235074L373.165396,170.661918L371.514802,168.015334L369.969850,167.666960L366.722537,169.260693L362.565580,169.127254Z M318.211597,12.380088L315.648587,8.971933L313.284159,6.556886L309.882673,4.317376L306.275809,3.048260L304.532926,3.493165L306.797549,6.403681L306.954296,6.520408L309.460739,8.344412L314.181642,12.569863L316.682768,14.299882L319.152190,14.796305L318.211597,12.380088Z M302.272882,9.511919L297.680687,6.556886L297.184220,6.141050L296.742035,5.666869L293.804249,3.420769L291.924037,1.983471L286.113530,0.000000L282.054963,1.064618L283.425928,15.957139L279.086387,22.917239L272.068715,27.601026L261.302758,32.023507L252.639555,39.849299L232.993772,46.084589L230.779875,47.270570L229.008722,49.064426L225.835307,54.806746L223.734501,57.100129L220.871905,57.986840L216.901904,56.755724L215.056044,55.517423L213.401076,54.030183L210.252003,50.668162L208.527718,49.232843L205.043058,47.446281L203.322427,46.304205L196.800202,39.768819L193.469641,37.493676L189.637774,37.157199L187.503679,36.125886L185.610346,34.692444L183.702142,33.529734L181.523574,33.310368L178.073825,34.458430L176.495543,35.409142L175.221445,36.689074L173.311394,40.229757L172.620811,43.917941L173.073682,48.163800L174.569123,53.378207L177.625859,60.918636L177.715519,62.839399L176.317836,63.785246L169.382207,64.335196L165.986737,66.997357L166.810130,69.931649L173.697992,77.300362L173.710082,77.300362L178.581588,85.306239L180.467125,87.841525L185.020042,92.943427L187.085339,95.642462L188.758104,98.798397L189.942008,105.775948L186.349019,106.379726L181.370474,104.774643L178.402216,105.135395L180.119163,109.347622L190.729787,116.494947L191.714737,119.871526L187.863031,121.759396L181.980806,121.582392L170.588077,118.632816L166.009955,116.736123L161.797942,114.991355L159.008353,114.578645L140.752759,117.335293L138.682747,118.234693L135.240314,120.417200L132.595772,120.756418L125.488876,119.650316L122.949467,119.871526L116.901525,121.480101L112.468304,122.659217L110.483292,124.259932L114.411758,127.388385L120.541919,130.466213L125.113621,131.957518L126.167819,131.754400L152.160769,126.746376L158.688119,130.429302L160.029185,132.430061L161.035591,134.615887L161.454486,136.698812L161.001743,138.449722L158.453042,138.856099L149.561486,137.600083L147.392756,138.316730L144.212893,141.716029L142.827470,142.166901L138.878204,137.696125L136.637483,136.307304L135.872263,138.937377L136.489619,140.223137L139.023284,141.789941L139.734721,142.876515L140.327098,145.811657L140.888047,147.157557L141.879974,148.593027L156.028539,161.976202L157.329211,165.162008L152.896351,167.125893L149.100328,163.220759L145.547108,157.021853L141.756788,152.107171L138.853816,150.516389L138.366698,151.633607L139.549238,154.312530L141.564676,157.406849L145.686192,162.665133L146.228523,164.680363L145.583843,167.429776L145.223117,167.718845L144.048743,167.918974L143.713622,168.148758L143.487953,170.306031L143.568909,170.506216L143.760430,171.225431L143.908642,172.649193L143.384420,173.583653L141.591266,172.819762L137.101649,168.015334L134.784607,166.644147L131.740476,169.987228L130.003732,169.379307L128.617915,169.282933L128.276613,172.367390L133.610174,195.532140L133.932928,198.989205L133.157308,201.822641L131.113478,204.641979L126.940051,207.670461L125.948556,209.828885L126.600746,210.714607L127.942011,212.536556L127.976475,212.583380L125.936969,213.596023L119.217721,215.413067L113.524107,215.934408L107.650014,215.539676L97.144907,212.278116L79.412739,211.764400L36.540075,201.904458L30.996083,201.792890L26.996792,203.124351L18.093938,210.536051L9.080717,211.935636L7.342312,214.087488L9.897642,220.471142L9.899672,220.478593L9.638719,220.992728L9.268316,221.417467L8.794520,221.685732L8.245709,221.812414L5.112356,221.417467L3.382794,221.626116L2.657980,222.937721L2.695626,228.491431L3.489750,234.294128L4.802355,239.622128L4.623719,244.482186L5.026676,249.277061L4.320529,249.545991L3.177938,249.232240L2.031534,249.628165L1.177588,250.569475L0.790634,251.211999L0.818199,252.220685L1.170952,254.283154L3.567384,259.998488L3.581239,260.031555L7.678462,262.974094L23.202875,267.825038L32.873698,268.169202L38.002076,269.957515L38.663557,270.518754L40.033470,272.135263L40.872031,272.812612L41.711503,272.947338L43.564227,272.546907L44.381057,272.778931L45.904510,274.510049L45.929070,274.537961L46.678696,276.521842L48.337854,287.764649L49.863471,291.299806L49.877367,291.332017L50.028537,291.446927L52.579208,293.385937L68.273076,295.736339L71.426558,295.683853L79.601402,292.782472L79.600403,292.778724L79.612584,292.778724L79.609586,292.767479L79.640039,292.767479L81.010488,292.014123L82.553093,291.586866L84.250225,291.601857L86.410780,292.257741L87.476601,292.782472L89.742755,294.472994L91.773712,294.825369L93.552932,294.143119L95.143799,292.756235L96.008486,292.527600L96.948764,292.445143L97.933113,292.527600L98.913902,292.756235L98.938265,292.756235L98.962547,292.778724L98.987912,292.782472L101.352691,294.885348L107.587547,303.345139L110.627300,306.478672L112.307475,308.211125L114.262056,311.138284L114.978536,314.340088L114.571735,316.757867L113.629388,318.721673L112.233794,320.265117L110.534424,321.399333L107.917782,321.947695L105.808799,321.880087L104.700437,322.668858L105.129489,325.816849L105.870821,327.285889L106.905933,328.574705L107.785089,329.920001L108.130561,331.554809L107.755348,332.445572L105.310261,334.486629L104.959494,336.678341L105.976044,339.340392L108.984892,344.786218L110.011925,347.728039L111.803703,356.097462L112.949984,359.297325L114.331607,361.225065L118.303533,365.457821L119.553524,367.680057L121.003424,372.317530L121.957361,374.438890L123.617019,376.503972L129.363939,380.812007L135.750085,388.582573L138.293280,390.596429L145.287904,393.945778L156.777969,402.087682L160.783414,406.525990L162.759633,412.158275L163.027394,420.722799L162.159845,428.799447L159.301056,435.669469L158.591372,438.455077L158.582022,438.466417L158.586836,438.485316L158.577485,438.496656L158.568135,438.507995L158.315990,441.002846L158.343866,443.229524L157.925393,445.074528L156.888823,445.986885L156.404667,446.412997L154.731085,446.957479L149.395935,447.691035L146.015352,448.916197L144.448157,451.018771L143.175117,465.960872L141.372882,472.677945L135.694849,484.496042L130.794607,490.497608L126.579692,498.117521L123.662348,506.746776L122.568630,515.764466L123.628876,521.926414L128.837949,533.517387L130.766335,539.696813L131.439858,544.974528L131.294138,549.949369L130.123715,554.333022L130.109875,556.490829L131.375207,565.869905L132.039270,568.069776L133.981041,570.042124L137.153202,571.995553L140.471082,573.486256L146.156822,574.756978L148.246266,576.577742L150.129369,579.168598L152.755508,582.188184L154.316050,583.299686L157.487578,584.767796L158.769478,585.693435L164.073960,590.708700L165.063884,591.926504L165.856946,593.220196L166.737075,594.365937L168.003979,595.128506L168.557066,595.152229L169.507645,595.193002L170.792630,594.608745L171.816986,593.812035L178.060107,587.112257L179.299954,586.194194L181.289614,585.276138L182.713440,583.322447L184.470650,581.528117L187.475301,581.095661L192.769048,582.715482L195.632790,582.738243L196.372865,580.632859L194.065058,574.457313L193.242042,571.494864L193.543864,569.063530L195.402812,567.447737L197.749519,567.622211L200.280022,568.521136L202.760042,569.063530L205.776660,568.737334L207.819475,567.572903L208.062326,565.384424L205.518147,561.955805L212.761260,561.409668L218.100542,560.142949L219.329308,560.044343L220.228785,559.407200L221.172930,556.585637L221.597316,555.940942L223.892174,555.633765L227.998611,554.257178L230.069350,553.938633L230.255228,552.827529L230.340154,550.465077L231.264523,548.345393L233.851555,547.932082L232.720314,546.142365L232.230846,545.505360L231.479183,544.925237L232.437221,543.366896L234.559643,543.260733L239.352495,543.920462L241.739984,543.670219L243.329040,543.814298L244.881381,544.477826L249.997959,547.279890L251.436544,547.386061L251.585849,545.960363L250.500335,542.828501L247.994527,538.407793L248.010673,536.747278L250.415761,535.905667L253.056625,536.527396L254.861520,538.400210L256.516146,540.754591L258.610268,542.828501L260.515682,543.601971L261.748797,543.253150L262.056293,541.948880L261.109786,539.825717L260.398541,539.188784L258.115688,537.763294L257.112080,536.815517L256.057173,535.071652L256.267540,534.586413L256.990910,534.730468L257.451792,534.904850L265.809724,535.905667L268.482461,537.194626L271.431984,539.370764L273.923122,541.948880L277.003870,547.287474L279.890691,549.410913L283.035004,551.162806L285.621968,552.945085L289.045275,558.163271L290.452601,559.376860L293.528441,561.174527L294.224751,561.455179L307.345309,568.964913L309.679767,568.741127L311.764737,567.637382L314.354468,567.057185L314.744359,566.969833L316.022934,566.454002L317.018558,565.270640L318.377462,563.055677L322.424099,560.044343L323.920090,558.163271L326.316995,551.390328L326.209306,549.513295L323.917388,549.065849L321.669320,548.155800L321.817687,544.925237L320.507823,543.594388L318.454797,538.544276L316.898695,536.356799L316.032478,535.352183L315.359214,534.089806L314.829116,532.713737L314.438688,531.356659L314.487625,530.916944L314.783859,530.825969L315.008928,530.598532L314.847317,529.810091L314.340496,529.161912L313.155334,528.866254L312.797550,528.346962L311.300124,522.745041L310.859037,520.023924L310.995437,517.697086L311.404013,516.886133L312.810527,515.703837L313.514671,514.873975L313.789738,514.142650L314.080884,512.384492L314.333729,511.687312L318.633808,507.890925L320.582580,505.420818L321.059780,499.265195L323.169268,498.231151L339.711491,499.678063L342.231631,499.174289L346.704238,497.049422L349.537895,496.670671L350.514913,496.799446L353.352443,497.587255L354.390808,498.219788L355.795422,498.893996L356.871224,498.257664L357.831042,497.216074L358.868607,496.670671L361.113441,496.004080L365.454795,493.519621L368.288899,493.671108L370.669353,495.352650L372.372621,497.693308L374.193650,499.776546L376.938285,500.678057L378.546777,500.973515L379.350029,501.715958L380.053968,502.693279L380.887524,503.311883L381.386227,503.681989L382.597591,504.102483L386.459733,504.769222L385.433271,503.681989L388.832247,504.216131L392.700675,505.481433L396.430756,506.110311L399.496558,504.769222L402.327441,499.697002L403.001850,499.219742L402.974172,497.943290L403.597648,493.671108L403.818886,493.625662L406.073878,493.527196L406.503264,493.671108L406.954036,493.065167L407.139559,492.762200L407.525637,491.667755L407.426985,490.690737L406.922871,489.354009L406.584216,488.183943L406.941626,487.668975L407.412175,487.260036L408.348920,485.120760L408.102062,483.288288L408.213324,482.107080L408.180603,480.819917L407.481176,478.662142L405.174195,474.392462L404.387923,472.352463L404.604456,470.660770L403.204055,469.631420L401.729304,468.079895L400.441853,466.165200L399.579578,464.072804L398.451459,462.843168L394.249642,461.662768L392.726849,461.034755L389.935476,457.978125L387.172395,453.715305L385.442033,449.214934L385.847955,445.494210L388.733681,447.426347L391.534668,447.955726L394.189038,447.501972L396.696995,446.488618L395.456133,445.301382L394.725404,444.099079L394.429505,442.851466L394.491333,441.498066L395.199707,441.048209L396.529685,440.798712L397.697672,440.258144L397.942278,438.950246L398.338759,438.175368L398.830146,437.878605L400.810773,436.682380L401.605393,435.956709L405.113362,429.079046L408.946807,423.782368L409.964291,422.887118L413.552850,421.191150L414.444171,419.982522L415.247969,417.520148L416.180631,409.462743L417.889243,402.808464L418.025992,399.216130L419.252997,398.408698L420.754717,397.989903L421.783251,397.401341L422.053719,392.421903L421.738004,391.196101L421.204860,389.706384L420.823338,388.190386L420.976780,386.893210L421.914756,386.289903L424.651421,386.448269L425.585201,385.852517L428.951989,382.828802L429.444956,381.117340L426.623059,379.368345L426.357448,378.380839L428.177801,377.042892L434.900543,376.334386L435.696641,373.851064L436.231267,372.822413L438.026680,372.392885L441.767965,372.407956L442.896667,372.607648L444.974980,373.248185L446.048750,373.312239L446.743865,372.924145L447.008386,372.253478L447.519158,371.635583L448.838072,371.409529L454.324510,373.677734L457.341511,374.355990L458.183652,372.863860L456.896207,369.552229L457.476435,368.516294L460.205637,368.425888L461.823057,368.828952L463.379800,369.593667L464.880840,370.625898L466.417707,371.903084L467.432325,373.056021L469.143025,375.720118L470.240945,376.933599L471.725528,377.905951L472.578538,377.853186L473.390643,377.446150L474.799421,377.393387L476.357055,377.732582L480.110222,379.368345L485.552276,382.640307L494.840095,389.993004L505.655567,393.953323L510.417981,396.586437L514.387542,400.880146L516.887556,407.371491L517.137748,410.689658L516.684854,416.999006L517.071724,421.274246L515.992315,425.425642L515.975930,431.414202L514.178732,437.899442L514.372901,441.622817L514.053539,444.938417L514.317833,446.488618L515.255770,448.364111L515.962331,448.674185L516.797133,448.405706L518.104246,448.579650L523.544712,452.153324L526.361856,453.219848L528.373980,451.941537L530.105618,450.345627L543.263604,445.475305L547.579902,445.732411L551.805127,448.129667L556.561846,452.478571L555.949750,453.492159L556.787530,455.262248L557.831285,458.454755L558.656609,461.935164L558.891051,464.576025L557.728641,467.171723L554.089752,469.949304L553.802378,472.571974L554.361059,473.945846L556.260075,477.057157L556.952771,478.662142L557.136736,480.104428L556.989453,484.666418L557.613857,489.187395L557.683905,490.668016L557.430736,491.898759L556.504932,493.837743L556.293254,494.667147L557.459325,501.087153L562.216098,512.914963L562.594636,518.796065L562.111689,522.081801L562.288121,524.177673L564.645848,529.810091L566.469761,535.996651L566.947114,539.075047L566.711423,540.917619L567.671932,545.016236L565.194089,552.410396L566.532587,555.940942L566.049957,557.264470L565.934201,559.490635L566.548413,565.520965L568.572118,574.381449L569.277771,576.179447L570.390193,577.742291L573.251350,580.905987L574.112048,582.639612L575.646031,588.652494L576.826893,591.839247L578.534100,594.487341L588.045564,605.338123L589.986439,608.282344L592.515118,615.051118L594.172693,618.048533L596.192587,620.825893L598.439612,623.383194L603.507713,627.556829L609.167427,630.174830L615.067364,631.404148L620.853604,631.404148L626.424692,630.311421L630.579228,628.391555L658.623267,602.902337L660.870224,599.529464L664.325331,597.226535L665.120989,596.111123L666.177394,593.523703L667.020159,592.211039L670.894607,589.016690L681.681831,584.175997L686.749036,583.091042L695.347966,584.585704L698.838978,582.590296L715.889011,579.984181L716.583361,578.588210L716.572664,575.758394L719.522258,568.069776L722.089230,556.691823L724.366275,551.883296L728.342976,549.020347L733.644292,547.977584L736.324240,546.961381L738.127166,543.874963L745.264905,538.817243L753.586167,537.971808L755.565151,536.356799L756.391886,534.332422L757.294305,530.048896L758.563476,527.801143L762.161594,524.298956L763.107930,523.935108L765.928677,524.897796L767.057937,524.298956L771.217457,518.170781L772.725658,516.787607L774.915884,515.984250L777.791609,515.681100L780.712526,516.052459L783.029147,517.238554L785.143006,517.803193L791.454506,513.786466L796.713506,513.634898L812.315126,518.796065L821.139194,520.956210L826.249959,520.842515L830.618387,521.346563L830.851108,525.053193L831.038932,526.258481L832.664344,532.425639L832.448003,534.556085L831.069508,536.887548L829.469370,538.574606L827.962700,539.416259L823.518798,539.878795L821.263724,540.769756L819.329040,542.911914L818.595075,545.785945L819.926630,548.857295L822.130176,549.987288L826.741114,548.436397L829.235344,548.625991L830.348527,549.441249L832.669242,551.750574L833.642025,552.361099L834.898201,552.281465L836.432400,550.798772L837.498494,550.374069L840.240366,550.616756L842.175020,551.056630L843.766966,550.669844L847.183561,546.529121L849.389081,545.820070L854.332338,545.247527L860.189869,542.123287L862.556746,541.607652L870.656640,538.385046L883.152005,535.769191L885.721124,534.548503L887.225222,532.016240L886.068539,526.990007L887.464087,525.019081L890.592380,524.969809L894.285141,525.875666L897.076014,525.485274L897.415618,521.562585L898.557476,523.472721L899.675864,522.525223L901.000053,522.430474L902.367570,523.177100L904.871939,526.042436L906.153461,526.425253L907.505478,526.478317L911.108661,527.096137L913.070037,526.633719L915.264656,526.444204L918.153367,527.550978L922.788126,528.851093L923.859100,529.089893L924.883910,529.067150L936.737135,528.286316L939.660986,526.394931L957.377695,535.609969L961.704190,539.166036L969.616291,548.311266L973.675478,550.290646L975.782429,549.134104L976.453743,546.756626L976.859301,544.216205L978.720443,542.927080L981.437616,542.487267L991.378681,538.400210L991.928870,536.629755L990.745842,531.197451L991.506576,528.672941L993.918523,527.300815L999.209366,525.417050L994.739196,522.798101L990.466360,519.553999L982.332336,511.747936L979.742941,509.906526L967.293159,503.723659L962.821581,500.473511L958.930136,496.299499L956.360226,491.137586L956.058779,488.346765L956.789215,486.279359L957.920746,484.424105L958.818898,482.213084L958.876990,481.001631L958.740392,479.706941L958.738157,478.366879L959.160450,477.011735L960.351102,474.536289L960.801278,473.018570L960.825440,471.644741L959.654063,469.007016L957.809116,467.565261L950.878534,464.303604L949.799841,463.505273L948.894430,462.404296L948.011082,460.455937L948.295219,459.714461L949.023355,459.249158L950.163490,456.079252L950.120296,455.042872L948.867996,454.150256L947.316642,453.371132L946.715102,452.573121L946.497874,451.616296L945.129690,447.713723L943.031097,438.481536L940.431761,434.437404L930.795305,429.823398L927.363053,425.693866L920.348319,408.911599L916.395034,394.998227L916.087302,392.357782L916.547732,390.015632L920.001944,384.536651L920.698035,382.172848L920.632476,379.496498L919.847116,376.654718L917.806379,372.498382L917.254933,371.123198L916.559990,369.887508L915.516473,369.013535L913.094547,367.845795L912.024419,367.092455L910.505446,365.495484L910.502215,365.484185L910.483541,365.461587L910.482464,365.457821L907.920475,363.032520L905.640046,361.676911L903.349748,361.225065L900.704060,361.450987L897.928008,361.093279L895.482354,359.500631L893.087238,357.445095L890.434330,355.683407L868.292095,348.262290L849.185413,340.265448L846.640409,339.942048L839.209991,342.709964L836.594944,342.781424L834.192426,342.401558L826.217190,339.942048L824.193394,339.904444L822.808657,340.949874L821.836996,343.356883L821.891391,344.530433L822.287203,345.831970L822.461879,347.043322L821.898070,347.976351L817.674646,349.515214L816.978278,350.241427L817.873523,353.044989L820.060656,355.457563L821.647519,357.734963L820.771994,360.155745L818.937794,360.618857L807.495892,360.264933L805.346391,359.184378L800.875088,355.984537L798.504273,354.855328L793.771203,353.229401L791.388668,351.972429L788.471545,349.605518L786.783784,347.314196L783.938658,341.254491L782.536153,339.156139L776.352061,332.310262L775.269395,330.055288L774.187454,323.668029L773.017184,320.858504L771.136146,318.804286L766.633322,315.090907L764.588666,312.936160L763.494878,310.316367L763.701369,307.685802L764.680290,305.370863L765.878866,303.693993L768.210345,302.482421L773.857787,302.459916L776.182749,301.649761L777.361719,299.868340L777.332241,297.659700L776.275807,295.230237L774.372983,292.782472L772.357224,291.669318L767.274297,287.539847L758.787672,282.385456L756.927445,280.509257L755.508654,278.184049L753.015565,273.216794L751.346441,271.207241L744.984133,266.504584L740.847089,261.841113L738.985811,257.725135L738.652104,253.431221L739.359043,243.339776L738.968811,241.025436L737.950885,238.069735L734.263698,229.833688L733.513713,227.015137L729.701702,225.389952L718.539450,224.264391L714.495650,224.644534L702.543957,227.671243L700.222227,229.565223L699.982361,231.802625L700.324737,233.831592L699.944999,235.308792L693.587064,236.510092L682.798885,240.435727L679.134546,240.711916L674.686694,239.599736L672.337640,238.636931L670.768310,238.218994L669.353621,238.495129L664.431569,241.413615L662.701056,241.525592L660.448420,240.891069L652.661254,239.375821L650.179240,239.204155L645.399418,240.241652L643.633709,240.316296L620.311774,234.890978L618.311804,234.786527L616.441115,235.375942L615.528743,236.375779L614.061288,239.062347L612.970308,239.868441L611.038245,239.831121L607.523328,237.987643L605.607115,237.502567L604.474490,238.039883L601.873831,241.771946L600.036930,242.063098L598.026628,241.966047L593.884782,241.017971L591.851367,241.092619L588.077697,243.220315L585.606787,243.548836L583.724547,244.273109L582.938331,246.476076L582.495203,254.260733L580.554242,264.361485L579.243443,264.458720L579.204749,264.420337L577.543040,262.772169L575.754669,260.397931L575.040220,259.010994L574.707108,257.893335L574.084415,256.996294L571.272425,255.762972L569.080934,254.402728L567.922243,253.842233L562.619521,253.042640L559.886611,252.041356L558.203205,249.867220L557.129357,246.812158L555.367444,243.145652L553.143087,239.987867L550.691510,238.487666L548.629849,238.801124L545.125692,240.943322L540.985375,241.809273L539.286950,242.794744L529.901273,250.599359L526.112271,252.362655L521.942753,252.840882L519.485597,252.160908L516.883623,250.591888L514.507827,248.283568L512.808363,245.408145L512.199286,242.436381L512.886644,240.637270L514.027742,239.107128L514.754974,236.942890L514.357050,234.040477L512.978007,230.310974L510.969171,227.015137L508.648745,225.419769L506.332480,225.479405L495.053277,227.880012L489.277605,227.619051L483.793952,225.501768L479.902970,220.478593L480.251899,218.236058L482.034691,214.065148L482.043269,211.913301L480.667684,209.598135L478.341110,207.439760L478.157921,207.317375L475.734548,205.698499L471.136431,203.414468L469.047348,203.622763L465.513352,205.423199L462.339458,205.996130L461.303815,206.383063L460.653861,206.948606L459.510226,208.578433L458.843376,209.233413L455.372615,211.325156L454.074486,212.508924L451.503358,216.589843L450.493251,217.491133L449.037002,217.476235L441.988576,216.247224L437.066063,216.515360L432.545681,217.781648L429.362486,220.195456L428.085050,224.197309L427.700813,228.909005L426.686188,232.891657L423.428457,234.726841L419.972694,233.883813L416.571723,232.123357L413.681559,230.982192L411.749947,231.989096L410.757492,233.563031L409.906891,233.906193L408.814686,233.742071L407.040330,233.786831L405.740711,234.197143L402.703068,236.107157L399.602476,236.577249L395.858569,235.980310L392.246442,234.219525L389.616217,231.250691L389.168218,229.460822L389.143614,227.537036L388.856438,225.546496L387.627334,223.578676L386.208207,222.565090L383.139159,221.454725L381.597021,220.478593L381.594896,220.471142L381.582445,220.448788L381.511415,220.334169L377.235966,213.439653L374.741324,210.409502L371.298688,208.355154L369.161344,208.102110L365.066587,208.861261L362.958452,208.667747L361.233897,207.819304L357.953704,205.609212L356.159498,204.984221L354.199405,205.222308L350.787325,206.583976L348.952462,206.963489L347.933447,207.350457L347.433626,208.109553L347.075829,208.898475L346.488750,209.352505L345.304131,209.330175L342.654815,208.623090L341.408010,208.489121L340.044659,209.032449L331.639353,216.336602L329.684915,216.813297L327.450798,216.090815L326.681144,214.065148L326.460765,208.891032L325.736859,206.435151L324.438684,203.756669L322.908068,202.350743L321.468172,203.667398L320.099965,210.357394L319.509582,211.742066L317.739327,212.352570L315.649975,211.689951L311.088547,209.508815L308.533327,208.980348L305.951878,208.958019L303.727502,209.680014L302.214765,211.369824L301.085186,213.856646L300.312002,214.601317L296.336293,213.067352L291.392493,212.575934L282.804425,214.340676L277.864112,213.022676L272.205234,210.364838L267.148460,208.891032L262.186956,208.355154L252.119707,208.965462L250.299487,209.747005L247.276049,212.985447L245.598398,214.147061L243.651156,214.869411L241.527910,215.182196L238.938011,215.174749L234.091272,215.956752L231.433714,215.167301L227.798656,212.367461L227.023446,211.943081L226.025423,212.412133L225.861555,213.342853L225.885551,214.467272L225.451148,215.517333L221.325127,217.312359L218.688033,213.841753L214.443110,196.684364L213.249562,193.963840L211.705104,191.593271L209.493287,189.654133L206.956549,187.982764L204.649833,186.074035L203.077247,183.438070L201.847084,177.760167L201.588468,172.248739L202.574492,156.933010L203.476784,152.225566L203.578898,150.790132L203.355716,149.909746L203.698678,149.606440L205.412470,149.917144L209.909051,153.535413L218.155212,162.613276L228.359696,158.835918L227.680784,156.940413L223.625679,152.292164L223.438793,151.308046L223.070675,150.368424L222.561992,149.488079L221.855741,148.637407L219.598185,144.096295L219.302178,140.437448L220.243447,137.186374L221.697060,133.869989L221.765686,132.939549L221.544684,130.473595L221.894925,129.846137L222.919302,130.119260L224.791187,132.304540L225.742124,132.991237L227.651505,133.183226L229.524541,132.917396L271.187188,117.497474L275.411210,117.902938L295.133809,128.148521L297.894961,128.908719L303.616847,128.554444L306.370549,128.753722L309.300923,129.964243L311.491407,131.706490L313.535424,133.692755L315.975572,135.605587L318.389766,136.647103L322.666797,137.142049L327.676287,138.974321L337.393191,140.289647L340.567791,141.154318L343.823642,142.913476L345.756262,145.449333L344.967859,148.630010L343.463198,149.865359L341.798862,150.804929L340.357721,152.010976L339.422699,154.016477L339.108109,156.696099L339.502603,159.191368L340.944321,161.079927L343.724820,161.924349L344.386841,160.679965L344.428289,157.517909L344.844489,156.244506L346.022007,155.585664L350.959552,155.430213L353.236168,154.571583L355.174646,153.180182L356.632208,151.204461L357.446102,148.607820L356.996063,143.652719L355.553213,139.247716L355.023386,135.583428L357.319041,132.836172L364.106038,130.473595L365.433689,129.558258L368.932370,125.919948L369.387195,125.005058L369.685982,124.665686L370.315839,124.584534L370.973920,124.842748L371.472796,125.196882L371.615116,125.410845L373.432945,124.355836L374.046838,123.691905L375.455391,123.175547L382.101314,124.488628L385.363594,123.345204L388.487578,120.623679L389.397471,117.143629L385.952040,113.679590L383.470746,113.458524L373.351966,114.335450L358.084568,119.126806L353.173610,119.510219L348.145677,119.215284L342.483393,116.052689L338.585708,109.995819L335.057598,103.405377L330.530559,98.665960L327.639688,97.658024L325.479505,97.878731L323.466689,98.511452L320.965402,98.724820L318.311325,98.062658L311.758523,95.649817L311.862119,90.700917L311.354909,90.098098L310.016118,88.980773L309.696020,88.760263L309.777967,88.811715L307.607805,86.717102L307.287576,86.334974L306.899495,85.666285L305.814290,82.676093L306.836387,79.921780L309.684797,77.836340L317.209988,76.089008L318.205843,75.663233L318.952458,74.231875L320.429159,69.799589L321.568364,68.332358L322.995568,67.657502L324.588246,67.210066L326.119263,66.439935L327.253631,65.259176L329.926306,60.552117L335.389900,55.165742L336.687776,53.678550L337.989526,52.462575L338.837488,52.015775L340.634920,51.612939L340.865626,51.063640L340.855137,50.397194L341.086636,49.811342L342.575684,48.756887L342.570238,48.694799L342.466417,47.512174L342.012157,42.739638L336.812880,40.354140L325.427989,38.071563L322.930358,35.891842L321.899060,33.456612L322.447036,31.665259L324.704548,31.431307L329.766369,34.685131L332.308631,35.474964L331.733156,32.857025L330.385201,31.614081L302.272882,9.511919Z "/></g></svg>