<?xml version="1.0" encoding="utf-8"?><!DOCTYPE svg  PUBLIC '-//W3C//DTD SVG 1.1//EN'  'http://www.w3.org/Graphics/SVG/1.1/DTD/svg11.dtd'><svg enable_background="new 0 0 1000 636" height="636px" pretty_print="False" style="stroke-linejoin: round; stroke:#000; fill: none;" version="1.1" viewBox="0 0 1000 636" width="1000px" xmlns="http://www.w3.org/2000/svg" xmlns:xlink="http://www.w3.org/1999/xlink"><defs><style type="text/css"><![CDATA[path { fill-rule: evenodd; }]]></style></defs><metadata><views><view h="636.161318797" padding="0" w="1000"><proj flip="auto" id="robinson" lon0="70.9161382454"/><bbox h="73.33" w="115.44" x="922.89" y="-688.94"/></view></views></metadata><g class="" fill="#000" id="country"><path d="M373.837690,173.242188L372.569302,170.272729L368.137703,168.883536L356.200976,167.275993L347.344800,164.992060L345.567400,164.949770L347.155268,167.790660L352.091184,172.825985L358.488202,178.209791L364.871690,178.809745L373.837690,173.242188Z M320.218145,13.998711L318.762108,10.554797L313.338864,4.752351L306.882194,1.463668L304.727130,2.872005L308.385114,7.569940L316.815266,14.311212L320.218145,13.998711Z M621.166581,634.161319L628.968265,632.645464L643.036641,621.976696L663.318652,602.155549L684.771672,589.979407L718.765453,583.159243L725.152792,561.929669L738.041867,547.919495L770.271556,527.098227L788.685604,519.160106L800.076845,517.768741L815.830219,521.553648L819.517789,522.858617L822.713930,523.853591L830.764529,525.584035L834.039446,531.929550L833.895053,538.773545L827.214131,544.421062L825.832717,548.799547L829.812229,552.081821L841.604674,553.200000L863.410880,545.611226L877.519907,540.728110L887.680467,538.773545L890.327376,532.419921L895.329493,526.074339L905.877564,525.584035L918.264437,529.001853L928.272239,530.956035L943.945041,529.167703L953.954937,534.698767L968.743711,545.200076L975.871533,551.692267L978.188765,553.221642L980.668368,550.509193L989.718701,544.074837L996.136208,536.617118L999.212798,530.465679L994.024499,520.782221L977.561637,509.104410L967.411173,502.841624L963.675209,498.618983L962.347592,485.946922L961.977913,473.380602L958.624554,468.593090L954.986030,464.504534L950.043969,450.789265L939.662835,434.248548L930.664089,424.602676L925.279530,411.613915L921.480185,399.429839L923.679556,380.396946L918.522497,372.174259L908.434430,364.879539L877.194572,351.680990L846.560145,342.921213L835.942117,343.250334L829.138487,342.713727L823.495838,350.435439L821.632611,360.502749L815.280969,361.405236L802.071823,357.122434L792.219496,350.671657L782.730907,337.184167L773.348889,319.864452L769.335172,314.443244L769.268454,309.773646L770.817665,305.612291L777.357178,301.723296L777.477096,297.728408L774.913263,292.836272L766.966615,286.648788L758.097521,277.892937L742.942151,259.723762L741.885422,249.729095L739.210812,235.356286L736.410843,227.772443L729.398406,226.503063L716.819142,226.070514L707.759414,228.666061L702.990634,233.078465L692.625264,238.571562L678.278852,240.410285L659.549896,241.113196L650.294350,240.630384L621.671106,236.910577L612.975885,238.188237L605.150563,241.070594L590.318335,244.053105L584.618305,253.239779L582.617418,261.693821L580.608594,262.881700L568.591530,255.130578L559.015793,247.867577L552.370881,241.830351L546.291512,242.007871L527.516613,252.969689L524.176951,252.621425L516.713425,248.457263L514.888466,238.110153L512.623771,231.531797L504.562045,228.034848L489.349995,227.162555L483.186286,223.425955L481.882705,217.869507L481.703002,212.535462L478.813983,208.428726L474.039817,205.314340L466.474455,206.156548L458.732400,210.382767L453.544524,215.226945L445.893592,217.472727L436.133948,218.379674L430.698072,221.306515L426.964018,233.149418L403.330661,235.640159L394.723896,232.943655L385.874656,224.517733L373.637191,211.005870L368.446745,209.341982L360.067798,207.678357L347.388873,208.471201L331.586188,214.164436L326.044203,209.469420L321.147619,208.138482L318.189528,211.997247L313.904911,211.558197L296.973703,212.648774L275.064439,212.117635L261.887071,209.483580L253.868113,209.646419L239.532186,215.694482L231.022043,215.637810L220.227735,216.750058L212.418725,196.302050L202.467217,182.523220L201.600042,172.981177L201.884621,159.890459L203.137547,152.567091L210.901652,155.664729L220.302578,161.045826L225.126334,159.608684L225.223789,155.178894L221.557996,149.386064L220.038709,145.044993L221.326483,139.342928L224.103372,134.023724L249.278440,125.296145L271.187094,118.939868L284.782740,123.176912L311.598003,132.941988L325.408295,137.972431L334.834531,140.945616L346.557637,155.256344L351.288422,154.594518L355.447887,151.708386L357.353696,148.182912L356.158267,136.018945L365.247943,129.156901L387.350191,121.044124L387.648217,116.296177L386.520486,113.681253L379.795557,114.298115L352.180041,119.094164L345.682308,117.228748L339.064981,109.623568L332.809082,101.394254L324.410903,98.405392L315.277046,96.110110L311.160195,92.850037L309.745563,88.856842L309.449742,84.956083L309.481002,82.915422L324.338029,67.288370L337.661595,53.238176L338.925577,52.109375L339.707208,49.441129L341.221821,44.593958L340.431314,42.052824L325.577813,36.499143L324.273062,33.932008L326.115282,31.295905L325.039138,27.798263L312.591227,17.575596L291.609101,1.657912L286.451007,0.000000L283.339197,1.061316L281.784617,16.471162L279.833018,20.389243L264.631954,30.537876L251.394121,37.515025L227.819363,49.942682L221.891936,53.837464L216.725672,53.126685L211.005421,50.688088L191.911220,38.134341L180.696538,33.848534L175.315677,38.092589L171.550409,44.287599L175.900683,57.008662L171.552310,63.737476L166.126563,66.751125L187.781329,100.981219L187.927084,105.399489L179.452076,106.611185L189.757323,119.536026L184.702412,121.044124L169.904658,118.007129L150.621985,116.015722L116.992930,121.752661L115.058201,123.990866L114.911368,126.840257L117.698217,129.437746L134.872524,129.739663L151.277021,128.412705L156.593266,130.821027L158.538316,135.084510L157.373660,137.761603L151.936279,138.211375L140.423229,140.783929L139.795323,143.497842L140.152847,146.114088L146.445381,153.686344L152.481041,158.509842L153.874829,161.376964L152.603254,163.758683L150.533964,164.717179L145.409126,161.137416L143.269926,161.849032L143.021998,165.076640L142.944355,168.869434L141.023843,171.662124L134.900848,170.209259L129.538496,171.281254L130.051714,185.100886L131.578467,200.778913L125.120923,211.239544L121.004341,215.021518L113.715746,216.162040L102.000944,214.879847L94.700255,213.342836L74.212581,211.041275L53.085036,206.744011L29.560075,202.745672L11.208977,211.990166L6.740198,217.628603L4.374084,222.901373L1.085619,225.347274L0.787202,257.846460L2.726739,261.544455L8.577187,264.460976L36.006729,271.221423L40.532164,274.026305L43.631834,277.216369L48.649298,291.909391L51.307953,293.934352L60.584380,295.745667L73.265943,295.631561L82.833852,294.183928L93.255358,295.545982L101.119440,298.698488L105.901203,303.721175L109.242829,309.131161L105.845866,341.526103L109.896113,353.306076L118.026575,370.232048L128.247110,383.509199L144.377172,396.523115L156.262848,404.864033L159.324244,408.798805L161.396109,414.903474L161.806819,422.662495L159.345650,435.010613L155.236348,445.797125L148.952546,450.400793L142.108611,464.101469L137.204373,480.984600L125.137924,503.151496L122.318911,515.505169L129.159783,551.252219L127.111040,562.001820L129.107092,566.742280L140.029635,577.963221L158.128312,591.588879L172.071450,594.872839L186.778134,584.270649L192.929349,585.519190L194.943983,582.083933L194.826494,574.383905L203.509387,567.131920L220.933158,560.342372L230.266870,554.282127L232.868515,549.268432L238.987140,547.847360L246.386029,549.326141L250.907711,547.450620L251.490553,542.704385L252.995288,540.634347L256.155086,538.975489L259.115347,538.110019L265.258267,539.422655L278.125703,548.070978L297.680730,564.058146L309.646899,571.432523L314.008390,570.169738L318.762679,565.277539L323.890186,556.749445L322.636682,544.471553L314.964945,528.453831L314.203129,515.548421L320.317896,505.753078L334.747358,499.707023L357.464501,497.415694L372.113686,498.784709L378.699381,503.821692L386.554525,506.617910L395.665932,507.165647L402.413919,501.414807L406.807887,489.361210L403.364491,474.431799L392.111045,456.645823L392.452709,450.990697L394.682541,448.516066L401.884983,442.093221L410.830446,428.749475L418.297666,411.599551L424.293140,390.660737L435.108903,377.715380L450.776161,372.747646L472.917096,378.403659L501.563931,394.693175L516.127030,414.795729L516.567556,438.691872L519.556564,451.875579L525.141003,454.314556L533.283297,453.659823L543.986290,449.890032L551.587526,449.702996L556.101437,453.098636L557.675697,459.855244L556.277568,469.968069L558.853415,498.395615L562.250482,523.031654L565.555926,547.284712L568.423583,568.603912L577.341641,585.223291L590.805157,610.348033L602.992229,626.935724L612.510805,632.255672L621.166581,634.161319Z "/></g></svg>