<?xml version="1.0" encoding="utf-8"?><!DOCTYPE svg  PUBLIC '-//W3C//DTD SVG 1.1//EN'  'http://www.w3.org/Graphics/SVG/1.1/DTD/svg11.dtd'><svg enable_background="new 0 0 1000 461" height="461px" pretty_print="False" style="stroke-linejoin: round; stroke:#000; fill: none;" version="1.1" viewBox="0 0 1000 461" width="1000px" xmlns="http://www.w3.org/2000/svg" xmlns:xlink="http://www.w3.org/1999/xlink"><defs><style type="text/css"><![CDATA[path { fill-rule: evenodd; }]]></style></defs><metadata><views><view h="461.758120448" padding="0" w="1000"><proj flip="auto" id="robinson" lon0="125.753768417"/><bbox h="22.91" w="49.72" x="1829.73" y="136.41"/></view></views></metadata><g class="" fill="black" id="country"><path d="M63.838897,459.758120L65.143555,458.645150L68.856176,457.636520L74.600912,457.010474L79.759935,455.549700L83.995734,452.732492L86.995106,448.106706L87.573564,444.941694L86.729673,439.098594L86.865563,436.803091L88.108365,434.264124L91.362594,429.673116L92.669104,427.099369L94.253224,417.152182L96.526247,413.639364L97.622881,412.978536L98.975125,412.908976L101.855845,411.239517L111.405204,402.753102L117.807640,394.371026L119.052336,393.223273L120.100469,391.866837L121.495155,388.945283L123.910404,377.189504L129.880103,358.581975L130.166056,351.722147L130.067382,351.749533L122.609074,352.187712L116.624280,353.447476L113.804492,357.199382L110.362380,359.171186L80.830172,365.387846L60.545640,372.234387L51.138253,376.944806L48.052957,380.395462L40.665485,390.856971L36.748144,393.020477L31.485965,393.705130L6.647784,404.495269L1.085168,406.165823L9.151671,424.977766L16.640628,432.942471L25.603642,434.751050L29.572030,432.177303L36.295357,422.960505L40.596313,419.169444L45.638674,416.908720L49.759526,416.665257L53.513053,418.578178L57.615382,422.856164L60.588856,427.447173L62.994675,432.942471L64.610795,438.716011L65.167037,444.350428L64.768053,446.854613L63.215516,452.802053L63.044537,454.784532L63.617638,459.132075L63.838897,459.758120Z M933.825726,76.627075L928.245996,74.901735L908.289483,63.645942L904.025553,59.866624L899.136307,58.552078L892.231039,61.783669L859.978666,86.157525L846.795803,92.565930L833.586765,95.605814L831.468858,95.249792L826.569172,93.469680L823.288078,93.497066L820.778542,94.756838L814.811485,99.220812L806.837376,101.603423L783.151937,113.708184L770.562385,118.363860L760.557797,106.697282L756.351229,104.999329L749.472607,104.478989L742.776174,102.863195L736.706428,100.015015L731.698586,95.605814L728.466520,97.166836L722.551074,97.276381L719.222953,97.906267L708.900250,104.122966L699.209300,107.190236L685.323924,117.624429L678.929163,121.075107L666.870971,122.964763L653.521769,123.183854L649.568831,123.786353L647.055517,124.169761L634.146037,128.606346L627.520403,130.085208L619.638029,129.154073L608.289114,122.636127L577.816738,116.474203L563.787012,117.377952L528.002183,130.085208L511.689780,133.042931L502.936001,132.769067L497.698306,130.085208L488.874960,139.287011L485.386222,139.506102L477.918142,136.986561L470.608319,137.972468L453.958601,146.133591L447.767028,147.612451L428.380778,146.133591L422.368058,146.873021L402.242009,153.254032L393.004518,159.114701L389.595580,160.155381L378.890380,158.347885L376.451925,159.005156L370.514270,162.455831L356.756175,164.811053L350.648405,167.056729L345.425785,171.821945L341.049904,178.668519L337.909215,186.336681L333.691734,216.461588L332.058825,222.377022L327.356277,226.594507L313.629141,232.126532L310.640266,235.111634L308.920032,240.287636L292.580859,264.880485L285.799229,271.781816L275.119564,278.299739L275.113952,278.301801L275.324321,286.482061L270.434669,297.924844L269.591094,303.698406L270.665349,308.845917L272.774953,313.123916L275.997828,316.149818L280.277108,317.506256L285.652279,317.088891L289.655640,315.315086L297.673381,309.784990L312.278598,302.863674L316.600174,298.898698L317.768037,296.429283L319.622899,289.890550L320.805635,287.977622L323.992188,286.447280L325.319012,287.247232L326.264450,289.334061L328.226487,291.525233L333.504434,295.072844L338.501636,299.420405L342.371284,304.811381L344.296998,311.489234L343.583280,318.793134L336.784642,339.939656L337.103924,343.069897L338.061179,346.617502L338.326877,348.570526L338.553189,350.234669L337.317369,353.469250L334.809788,354.721346L327.570328,354.199639L324.300167,354.512663L319.475791,357.295099L316.595135,360.251436L313.875793,362.199140L309.676201,361.920896L307.917894,360.634020L304.763849,356.112564L302.856759,354.408322L300.889611,353.782274L294.836199,353.712713L284.971659,355.660418L279.507798,362.407822L277.536642,372.355025L278.343630,383.971684L279.576585,389.814793L281.273868,393.605857L287.735001,400.735839L293.630765,405.152949L295.077581,407.378894L295.306257,409.535278L294.256964,414.821897L294.344902,417.186963L299.999001,429.012289L300.939850,434.003917L302.327471,454.554702L313.352464,446.286487L318.923989,440.644949L324.245109,437.057369L330.142141,435.167727L344.070162,434.017511L348.507462,432.292185L351.983868,429.416644L355.556814,425.418270L361.850756,416.106989L365.873657,411.341802L374.383974,407.343427L390.859713,393.020477L402.137178,385.653603L435.622169,372.124842L455.282417,364.182855L461.681261,360.321405L468.187524,354.898943L473.127967,353.748724L487.955861,356.213480L493.415481,356.049162L513.417844,344.026631L519.782431,342.273915L532.071864,342.273915L535.652517,340.959379L542.624252,334.852259L546.091254,332.880453L551.990639,332.360116L569.159845,335.372597L574.843951,333.400791L606.510749,310.368999L629.960882,293.280003L634.892782,291.061719L643.481793,287.172876L722.699076,275.834978L735.538302,271.836589L746.882004,261.429819L759.335971,240.698430L772.152065,225.745533L775.294057,224.458378L781.833199,224.074970L784.415409,223.445087L786.671790,222.377022L795.942289,215.092275L799.564682,213.230008L806.166993,211.477287L851.491514,207.807526L860.361000,203.069700L880.689740,187.486905L901.864551,182.283510L905.410464,181.954874L907.713648,178.504202L928.539669,157.526295L957.610394,133.700202L972.404680,118.309087L995.496901,100.042402L998.914832,94.291270L997.297947,87.554229L991.968928,83.254572L978.860712,79.146619L972.923449,74.901735L971.178570,71.615372L970.613355,68.657645L969.335106,66.494123L965.575981,65.535600L963.480323,66.439350L953.796785,73.751508L948.364532,76.627075L941.095571,77.393893L933.825726,76.627075Z M508.174244,0.000000L499.616270,6.052393L491.578380,14.788651L487.904067,20.649337L485.408277,24.948999L474.239589,33.904345L470.244283,37.930142L467.589671,42.394121L466.543493,45.680486L467.309649,48.912077L470.116756,52.883101L473.762048,55.347874L483.060788,58.606851L484.917292,59.866624L486.057709,61.345487L488.930252,60.359578L491.861595,57.976965L493.371270,55.265714L496.179474,45.023213L510.012496,13.364559L513.353978,2.629094L508.174244,0.000000Z "/></g></svg>