<?xml version="1.0" encoding="utf-8"?><!DOCTYPE svg  PUBLIC '-//W3C//DTD SVG 1.1//EN'  'http://www.w3.org/Graphics/SVG/1.1/DTD/svg11.dtd'><svg enable_background="new 0 0 1000 467" height="467px" pretty_print="False" style="stroke-linejoin: round; stroke:#000; fill: none;" version="1.1" viewBox="0 0 1000 467" width="1000px" xmlns="http://www.w3.org/2000/svg" xmlns:xlink="http://www.w3.org/1999/xlink"><defs><style type="text/css"><![CDATA[path { fill-rule: evenodd; }]]></style></defs><metadata><views><view h="467.066073877" padding="0" w="1000"><proj flip="auto" id="robinson" lon0="125.721274245"/><bbox h="23.01" w="49.36" x="1829.82" y="136.5"/></view></views></metadata><g class="" fill="#000" id="country"><path d="M83.384314,431.797598L102.035691,410.148244L114.184087,398.098750L123.896291,372.410806L127.102829,356.057904L51.776714,378.369351L1.072809,407.334489L4.905219,418.788125L14.960239,432.691378L22.336346,434.975483L28.284006,431.830701L71.936095,436.597529L83.384314,431.797598Z M303.804766,465.066074L349.357451,428.321785L412.038902,385.023059L512.906272,346.093885L545.153825,335.666421L561.322260,336.328483L576.877212,333.547825L617.025520,306.303991L645.555273,290.414504L676.203715,282.304242L711.761133,277.173260L744.161718,261.945824L770.738828,234.900559L801.048049,217.653815L839.696494,208.517340L877.416346,195.011245L940.477531,150.388134L998.927191,96.462968L988.068028,86.300268L976.050697,78.984448L930.044600,70.609321L903.417748,59.585931L884.317446,68.358299L865.771302,80.474094L831.403518,95.867109L796.155962,108.313930L769.393459,112.153907L662.018604,118.311109L582.177882,117.483528L551.953622,119.403516L423.676610,147.607464L405.738463,153.003288L360.922656,172.170044L340.711277,192.561609L310.109565,243.772202L276.578482,272.042277L271.943415,302.232310L277.826592,309.647403L288.387552,313.321845L328.002182,292.897237L334.848871,296.770299L341.429011,305.972960L339.280315,333.216794L322.787376,355.892389L285.972671,357.613747L280.250691,364.002635L278.613941,377.872806L280.360610,391.279530L288.007133,402.038008L297.308119,420.972922L303.804766,465.066074Z M513.906412,0.000000L506.187767,3.409641L494.409157,13.108911L468.958809,45.814967L489.603685,58.261800L513.906412,0.000000L513.906412,0.000000Z "/></g></svg>