<?xml version="1.0" encoding="utf-8"?><!DOCTYPE svg  PUBLIC '-//W3C//DTD SVG 1.1//EN'  'http://www.w3.org/Graphics/SVG/1.1/DTD/svg11.dtd'><svg enable_background="new 0 0 1000 610" height="610px" pretty_print="False" style="stroke-linejoin: round; stroke:#000; fill: none;" version="1.1" viewBox="0 0 1000 610" width="1000px" xmlns="http://www.w3.org/2000/svg" xmlns:xlink="http://www.w3.org/1999/xlink"><defs><style type="text/css"><![CDATA[path { fill-rule: evenodd; }]]></style></defs><metadata><views><view h="610.922557777" padding="0" w="1000"><proj flip="auto" id="robinson" lon0="59.0155074152"/><bbox h="128.28" w="210.31" x="709.26" y="-717.56"/></view></views></metadata><g class="" fill="#000" id="country"><path d="M96.277011,316.431495L95.892190,315.722022L95.777468,315.293751L95.835978,314.290183L93.005780,307.725931L90.834006,301.036637L88.624929,294.627143L88.268782,291.400061L89.885998,290.090085L89.807520,289.715385L89.669522,289.461252L89.243821,288.946499L87.731083,289.210387L86.827752,290.285588L86.483980,291.859587L86.618374,293.619747L87.146976,295.468376L88.521158,299.167036L89.109730,301.310753L89.444574,303.435493L89.731746,304.258132L90.416128,305.462870L91.914241,307.627950L95.237215,314.525536L95.799464,316.431495L96.277011,316.431495Z M108.367530,249.959112L107.929101,249.570585L107.391397,249.016980L106.700026,249.386044L106.099660,250.053010L105.927433,250.940259L106.506475,252.002547L107.174306,252.987279L108.455863,255.514652L108.932588,256.130459L109.863040,256.130459L110.759678,255.534098L111.369308,254.613746L111.506569,253.661139L109.761352,251.730479L109.538958,251.290015L108.876794,249.554397L108.695153,250.007680L108.367530,249.959112Z M760.324421,608.922558L761.256179,608.368213L765.868788,599.620009L767.605611,597.625899L769.374009,597.525768L774.566814,601.538699L775.370434,601.926568L776.022954,601.872351L776.639685,601.680502L777.345366,601.651307L779.468888,602.472899L780.077714,602.568817L781.116703,602.301913L785.484720,600.229019L786.346872,599.611666L787.032237,598.773180L787.623134,597.617555L788.990908,595.865126L792.705066,593.840743L792.972222,593.695092L797.963093,588.940529L801.948296,586.806857L803.222995,586.497842L805.921613,586.259812L807.154877,585.917375L807.842795,584.990244L807.922017,583.486648L807.548419,580.424637L807.682089,577.884276L807.268172,577.035993L805.976256,576.141690L805.552367,575.151204L804.507042,571.021369L804.361599,569.817315L805.743681,568.090505L810.461755,566.438776L812.007914,565.083813L812.238785,564.347735L812.171797,563.783108L811.746053,563.360671L809.928666,562.724903L809.408781,562.356816L808.214655,561.110279L804.174073,558.064666L803.527651,557.014476L802.928756,555.583442L802.046809,554.549847L801.366241,553.516194L801.343405,552.114185L802.135212,551.055287L803.468612,550.749744L817.915323,551.072029L823.420312,549.874945L828.218585,547.380091L829.006411,546.500958L830.103507,544.365769L830.813171,543.427892L831.895778,542.745394L833.165744,542.452291L841.203092,541.949818L843.707764,541.267275L849.112098,537.636472L850.955887,537.025002L852.007635,536.855143L853.004572,536.694131L854.939962,537.087825L861.757784,539.529418L861.564138,538.511769L860.111382,534.679494L859.781943,533.234385L860.052612,531.944191L860.652985,530.896909L864.280552,527.587238L866.356683,526.435047L868.709675,525.978348L871.528697,526.422478L872.723576,526.874980L873.584598,527.067710L874.117080,526.518844L874.434502,523.258964L874.993085,522.278420L875.853337,521.612136L876.947607,521.109271L881.552128,519.981989L883.590303,519.160600L885.381439,517.404609L886.370960,515.799417L889.755279,507.835400L890.291028,505.030906L890.371011,502.037612L889.946387,498.805198L889.385337,497.123950L887.757421,494.025501L887.072059,492.369321L886.686287,490.729887L886.517151,489.056889L886.632120,485.853405L887.128257,483.253687L891.246711,470.435311L892.649474,466.049620L892.906400,463.303356L891.901613,460.129544L889.223915,453.960539L888.789026,450.797698L889.532104,448.735360L891.117152,447.318607L901.536491,440.979453L906.023804,439.393263L933.750611,438.682473L934.630694,438.659911L936.673828,437.457248L938.734568,433.325798L940.137042,431.461383L940.706784,430.319751L940.668308,428.675465L940.204084,426.882574L938.856908,423.408156L938.735276,421.592606L938.980441,419.867229L939.411101,418.267603L939.415874,418.259228L939.418261,418.255040L939.415253,418.242478L939.783530,416.936063L940.248015,416.102845L940.934277,415.629726L942.007307,415.384797L944.711656,415.414104L945.407661,414.700265L945.302965,412.573545L945.194330,411.418175L946.290403,411.861897L947.667685,412.150739L948.261271,412.477262L949.946331,414.917973L950.657796,415.692529L951.241079,416.215893L952.713316,417.124484L968.743516,422.560044L970.179451,423.569405L972.578701,425.977797L973.980106,427.083640L975.461425,427.745492L976.248144,427.858595L978.391169,427.745492L979.137238,427.915147L980.242235,428.675465L980.897279,428.847220L981.556959,429.143262L982.064148,429.370871L983.420252,430.470570L984.971026,431.448815L986.734204,431.616398L990.907027,430.154271L992.425943,429.955277L993.167784,430.275763L994.501490,431.716948L995.412246,432.119152L996.064751,431.997652L996.517139,431.566122L997.254716,430.460096L998.175288,429.467224L999.103948,428.776004L997.181528,427.540232L996.965486,426.055288L997.621034,424.670954L998.547961,423.429097L999.180224,421.755937L998.609051,420.461883L997.300986,419.358435L995.745154,418.267603L994.292645,415.968864L993.834139,413.077994L993.941362,407.621835L993.404980,404.399514L991.328329,398.048627L990.799358,394.874071L992.098600,390.884803L994.583702,386.259131L995.852581,381.672523L994.831436,379.999574L993.486789,377.797538L993.478987,377.793361L993.462866,377.782917L990.880503,376.249943L988.231514,375.128519L985.564034,374.462393L980.553235,374.433159L978.369722,373.835973L970.983946,370.802445L967.011269,367.058000L964.648886,365.278017L962.273419,364.314057L957.740227,363.137381L952.900595,359.968875L950.828661,359.028295L946.343624,358.352627L938.986015,355.254255L936.729671,355.062459L935.049244,355.800473L932.502643,358.273385L931.046928,359.199303L926.652414,359.553842L921.886733,358.123243L909.383807,351.060548L901.830450,346.797676L891.583001,341.008353L884.059450,335.561593L873.463055,327.913996L868.414902,325.253309L857.996774,321.982603L848.449503,317.309365L831.926630,306.162488L827.069877,301.555591L824.483002,299.103257L822.701669,298.179372L820.792527,298.403083L816.360655,300.827042L814.765034,301.175163L812.752073,300.827042L810.553493,299.847005L798.265776,292.659200L787.606400,286.431851L779.148609,281.491181L774.211279,277.603200L764.857490,268.291350L759.780974,264.555583L749.197240,258.453758L724.083175,243.996845L711.710692,236.886819L701.330355,230.925192L692.422766,225.813557L687.759904,222.269510L686.962287,221.893151L680.883544,216.393813L679.631101,214.281674L677.336154,209.843764L676.682184,208.032156L676.507301,206.327220L676.671213,204.895999L676.658470,203.469250L675.963441,201.790264L672.918179,197.766151L672.231400,196.162248L671.630511,194.074640L670.979408,192.508451L670.070389,191.080971L667.582291,187.971095L666.795522,186.516361L665.713764,183.197913L664.901076,182.491425L658.796457,179.637954L655.499776,178.785845L653.843318,177.808107L653.398757,177.298838L653.237794,177.114461L652.240275,175.325973L651.664969,174.596138L648.467861,171.625038L647.153699,169.967879L644.532908,165.153011L643.505649,164.060185L640.801175,161.915584L639.815712,160.879973L638.853017,159.209612L637.151616,155.639876L633.349849,149.079781L632.211429,147.533650L632.539635,146.948396L631.914714,145.798225L630.246714,140.292305L629.593579,138.699869L628.694958,137.406040L621.980083,130.127276L620.377190,128.867258L603.328828,119.180977L597.122098,116.974393L590.449355,115.467537L588.007446,115.222450L586.740847,115.869336L586.316275,117.504878L586.437775,120.242299L585.085241,121.066538L584.524991,123.507631L583.208491,125.325914L581.263439,126.351918L578.827638,126.428371L575.947565,125.454659L568.151681,121.150977L566.998325,121.118810L563.352930,121.713931L562.801904,121.006224L562.413826,120.310647L562.118590,120.129728L561.898144,120.728220L561.408964,122.055746L561.104999,122.482031L560.767144,122.807794L556.904992,119.896549L552.131537,118.903611L539.356117,119.619156L532.222735,121.995424L528.379779,122.083896L525.979493,121.496787L523.803724,120.282504L519.452724,117.086917L514.868295,114.483219L507.897927,111.587249L499.970093,108.290938L497.723662,106.661360L496.783904,104.823469L495.909831,98.598599L496.056220,97.271607L496.599538,96.185314L497.458091,95.307562L499.788327,94.101302L500.406559,93.123595L499.435546,91.699305L493.668514,86.212637L490.753005,82.768159L489.432422,80.065114L490.502756,77.932837L491.966458,76.830881L493.933975,76.674898L496.537077,77.362844L499.100028,78.630875L500.493087,79.138935L501.467719,79.014918L501.935394,78.008839L501.514631,76.908874L500.598355,75.841028L499.570546,74.947247L498.478184,74.253474L494.994709,72.628196L493.786904,71.730709L492.779549,70.722894L490.752294,68.695038L488.461121,67.232483L481.089086,64.937166L477.791078,65.045029L476.775009,64.675504L475.765090,63.578990L475.584532,62.558475L476.098069,61.797645L477.150141,61.502114L477.171668,61.508104L477.191549,61.508104L477.211430,61.508104L480.649582,60.178313L479.610951,57.127987L477.305774,53.332204L476.906679,49.753092L477.769177,49.064924L478.946038,48.580239L479.808246,47.892138L479.668186,46.597816L478.607983,45.590772L476.905862,44.799152L473.789561,43.800228L471.042168,41.982028L468.572516,39.494379L466.005155,37.513365L463.020250,37.222416L460.248485,37.533294L454.566792,37.082922L441.551755,38.946282L438.219478,38.858589L436.467009,38.308526L433.236695,35.849459L431.607374,35.385195L428.258715,35.066397L426.173947,34.171808L424.949858,32.799153L422.567985,26.911565L421.552922,25.436049L420.289265,24.137871L415.182333,20.359425L413.403843,19.493573L411.814767,19.648826L410.179378,20.450990L408.459863,20.900855L406.610158,20.998394L403.636820,20.542554L398.646801,18.735242L393.393389,15.198804L375.682429,0.795362L373.906137,0.000000L373.206084,1.745858L374.132055,8.281195L373.393380,10.521127L370.943161,11.217430L367.611390,11.034400L364.150233,10.354018L356.578836,7.871431L355.008423,7.825681L353.905417,8.161845L351.021925,10.005879L348.867922,10.944874L347.918732,11.726743L347.630381,12.850861L348.396850,14.333213L349.852594,15.290340L358.771034,18.643687L361.450863,20.212128L364.152847,22.905498L366.835130,26.499362L373.453029,33.388840L376.772356,36.116467L377.663178,36.718252L378.138472,37.397782L378.083670,38.025531L377.406380,38.456004L373.442163,39.014046L372.332105,38.774882L371.297033,37.736563L370.992801,36.538909L370.979081,35.217825L370.815702,33.809207L369.417167,31.066091L367.235704,29.094239L364.681292,27.672279L357.602701,24.996011L356.140458,24.771018L355.030756,24.944242L352.952407,25.836276L351.937817,25.921899L350.768282,25.386271L348.782017,23.445023L347.635747,22.628775L346.316296,22.246546L344.858308,22.206731L343.501634,22.443632L342.462786,22.927397L341.990381,23.697869L341.671235,24.595805L340.490191,26.268374L338.938046,26.959358L338.075574,27.781808L338.989065,29.823196L341.066092,32.454516L341.501651,33.655801L341.429125,35.452941L340.257404,40.801930L339.584184,41.722876L337.325479,42.432567L337.072327,43.441352L337.860084,44.655590L338.901913,45.483093L339.295951,46.214930L338.130758,47.132281L336.964295,47.375589L332.539920,47.194105L331.372042,47.457358L328.245460,49.019048L325.407944,49.553619L315.968036,48.137456L309.876539,48.360840L304.548899,51.001868L300.593329,55.547256L298.632632,61.482146L298.637863,61.502114L297.075694,64.701470L294.907898,66.503280L289.426931,69.106669L288.201074,71.354948L288.955279,74.337444L291.958019,80.449215L292.552178,83.364495L292.690729,85.856320L293.247124,88.298773L295.108740,91.068365L297.083667,93.195717L298.342963,95.227407L299.156178,97.464028L299.812611,100.206506L300.655305,102.356217L302.069230,104.506495L303.794726,106.420564L305.573134,107.865449L306.636712,108.463548L307.733502,108.905127L311.141939,109.623749L311.721165,109.965017L311.716846,110.495016L311.191814,111.278035L310.049161,112.169569L307.397360,113.535181L306.465103,114.864878L305.318192,118.155980L304.241066,118.815177L295.991416,117.320008L289.615947,116.154626L275.053982,115.443430L272.688875,115.327704L259.206729,114.668020L247.076956,114.069442L236.506646,113.559282L232.014966,113.177688L229.901016,113.342374L224.788453,115.893444L219.003172,116.681035L215.542308,118.019324L207.523647,118.445376L205.375861,117.830422L203.340830,116.890001L201.774581,115.961752L200.362005,114.631863L197.586918,110.695783L196.482093,109.374833L195.205438,108.327065L190.552502,105.806568L187.860498,104.008992L185.338123,101.822747L179.628580,95.255461L173.785870,88.535046L169.992429,84.981602L161.269516,76.808883L160.250549,75.413123L159.522644,73.855626L159.198124,72.188437L159.125369,70.839298L158.810937,69.532305L157.793925,68.015683L155.824289,66.243577L142.748748,57.273697L133.999211,52.717653L126.577653,48.851501L114.165610,42.396683L102.732136,36.445254L97.703637,34.938880L92.724265,34.337173L78.014859,36.829844L68.605891,38.418138L57.793799,40.255773L53.758995,41.065051L40.873214,46.091292L37.722337,48.035739L28.482146,51.217325L17.255529,61.480149L17.258909,61.494126L17.240959,61.502114L10.565830,69.174610L2.882511,77.986839L0.819776,80.423073L0.820488,80.425318L1.883921,81.512300L3.550608,81.928222L4.183950,82.174003L5.422238,83.270644L6.526169,83.670887L6.960374,84.045934L7.782598,84.887482L8.298080,85.142798L9.311951,85.010411L9.816132,85.152255L10.372968,85.625082L10.864251,86.239795L11.761966,87.794101L11.939838,87.926529L12.288045,88.115715L12.666977,88.412115L12.965378,88.853580L13.060648,89.342371L12.862577,90.159184L12.892815,90.704820L13.365090,92.408179L13.518579,93.297843L13.437312,93.925711L12.630435,96.128346L12.464513,96.311399L13.037218,98.202123L14.081766,99.035566L15.386610,99.509151L16.715307,100.304833L19.565996,102.957663L20.277542,103.333551L22.033673,103.567305L22.862634,104.019037L24.160197,104.969970L24.623562,105.424941L24.918520,106.142204L25.244625,107.169235L25.700245,107.924583L26.359517,108.389206L27.256144,108.550407L28.423903,109.217376L30.157326,112.173585L31.114956,112.837701L31.402882,113.593599L33.904745,118.152720L34.102520,118.928140L34.275713,120.403245L34.651144,121.334043L34.926754,121.638002L35.946038,122.521456L36.335222,122.929971L37.336031,124.383709L38.137452,125.882095L38.746692,127.501210L39.158190,129.307704L39.211701,131.694888L39.516095,132.551050L40.013951,133.112369L41.232446,133.930644L41.762648,134.676057L42.203220,134.676057L41.849965,132.956971L42.682336,130.658123L42.651441,129.044624L41.965798,127.681839L37.054371,121.191566L36.279686,119.899904L34.697882,115.020204L33.316187,111.778304L32.074326,109.843303L31.768851,109.081449L31.737799,108.351276L31.985223,106.142204L31.936650,104.565573L33.826926,94.594646L33.661108,92.846690L33.389048,91.969690L32.722699,90.449344L32.462614,89.667195L32.513811,88.831507L33.127683,87.245492L32.951755,86.205117L31.847862,85.000955L30.201979,84.370567L26.942126,84.093210L26.111782,84.685756L24.689879,87.068935L23.952405,87.264409L23.464759,86.097934L23.281356,84.105817L23.365777,82.230723L23.647334,81.398870L24.418159,80.734071L25.164588,79.184107L29.026287,64.446513L29.975946,62.207197L35.270555,57.588494L36.430712,56.013732L38.349666,54.046373L40.776574,52.987406L44.780022,54.706312L49.763259,54.907444L50.971171,54.643459L54.285072,52.846009L73.201645,49.880190L76.286200,51.262471L78.867254,50.483348L82.345082,51.388141L85.782479,53.138233L88.213175,54.907444L89.174813,56.136311L89.955284,57.645076L90.528719,59.182341L90.892908,60.465129L90.968861,61.342417L90.649125,63.153817L90.948625,64.050195L91.667285,65.588369L91.840477,66.079122L91.836379,66.909680L91.666807,67.598715L91.660747,68.316116L92.151062,69.247554L92.707299,69.555954L93.473889,69.700716L94.213070,69.946188L94.658840,70.569334L95.494861,71.951095L99.715640,76.692722L101.378047,79.187257L102.726612,81.767523L103.791353,84.578590L105.448451,91.275723L106.473506,94.323280L107.843801,97.031024L109.707626,99.490207L110.820283,100.645863L112.057722,101.669039L113.473554,102.392286L115.904517,102.834477L116.526959,103.264058L118.419184,105.194292L119.448463,106.502440L119.850955,106.910095L121.396786,107.801321L124.770762,109.343822L127.668781,111.556956L128.936439,112.271617L135.190945,114.545694L150.267830,123.623548L153.054033,125.932786L153.702136,128.245937L155.340546,128.908334L157.293707,129.158730L159.169471,129.631020L160.554754,130.959308L160.286168,130.737381L160.021441,130.965649L159.852340,131.438061L159.886515,131.970751L160.079382,132.335414L160.431427,132.773035L161.184555,133.569068L161.852463,134.098751L163.369918,135.063069L163.953149,135.741979L160.755786,133.987736L159.049424,133.283628L157.548581,133.083826L157.665490,133.569068L158.548549,133.990908L161.341653,137.052404L163.397352,138.947098L164.264682,140.045439L164.821659,141.337650L164.875466,142.633288L164.561419,143.862473L163.027534,147.586377L162.528667,148.047248L160.138293,149.382369L159.431491,151.197945L158.470972,151.376033L156.478601,152.139323L149.323735,153.456216L146.796383,152.896344L147.643794,151.442817L148.150525,150.193114L147.695665,149.073995L145.634375,147.999570L144.555174,147.986856L139.954192,145.082358L137.913426,144.313550L136.730686,144.548630L136.004343,145.158608L134.766434,146.931680L134.342169,147.090581L133.784233,147.084225L133.316357,147.147786L133.140488,147.513277L133.495238,148.368287L134.096843,148.514509L134.722998,148.431861L135.157374,148.581263L135.377641,149.156650L135.302967,149.550868L135.155498,149.926034L135.158865,150.450666L135.466812,151.108903L136.397651,152.381051L137.296363,154.429748L139.019371,156.568233L139.623364,157.972014L140.176797,159.653152L140.837009,160.360131L141.693375,160.471599L148.086076,160.376055L147.316667,161.369789L144.896431,161.981398L144.326164,162.997698L145.798095,163.402353L147.232379,164.116143L137.435168,163.886702L135.240254,163.064607L134.913994,162.816089L135.024809,162.414659L135.214300,160.535297L135.391825,160.038477L135.160054,159.834666L131.189749,159.729578L129.507359,160.732762L127.678540,161.000305L123.909220,160.856977L124.616922,161.388901L126.494549,162.137496L126.877248,162.223510L126.892744,162.828834L126.706218,163.446963L126.313431,163.924941L124.407013,164.402958L123.339649,164.963879L122.153194,165.352730L120.463619,165.139177L118.477022,164.237241L117.797130,164.116143L117.187848,164.275483L114.751183,165.728856L114.017677,166.914764L113.164592,167.836237L109.314790,167.329250L106.513266,167.874502L104.026858,167.874502L102.532531,165.961556L102.580962,165.263483L103.090064,163.561674L103.127258,162.997698L102.607460,162.185282L102.010785,161.924057L101.337826,161.809377L100.605665,161.439866L99.325954,160.025739L97.594259,156.873791L96.542975,155.517993L96.891659,155.031123L97.112864,154.493383L97.405879,153.386229L96.639397,152.959963L96.163641,152.361967L95.422310,150.717769L95.452782,150.488823L95.596087,150.091368L95.672765,149.611275L95.525181,149.115323L95.212777,148.924582L94.239132,148.600336L93.976464,148.285642L93.659966,147.875609L93.045809,147.427464L92.322758,147.074691L91.690843,146.931680L90.871955,146.931680L90.558239,147.071513L89.672891,150.088188L89.731305,151.350592L90.621588,154.697019L90.642905,156.300882L89.976498,157.230294L87.878453,158.239437L87.138429,158.853917L86.640442,159.153220L85.925336,159.309245L85.235426,159.165957L84.135936,158.411358L83.691584,158.239437L82.179805,157.949729L80.726446,157.141167L79.483351,155.925338L78.573033,154.401113L78.457167,153.675724L78.577806,152.228380L78.406032,151.783110L77.557908,151.477800L76.963097,151.900785L76.300731,153.141282L76.254478,153.869789L76.483238,154.856114L76.580291,155.728027L76.104540,156.100377L71.406268,156.657353L70.577739,156.186307L70.588338,154.983393L71.171020,152.896344L70.212328,153.246258L67.957865,156.100377L66.656116,156.695547L65.452686,156.806949L62.539274,156.587330L61.725248,156.269056L61.345681,155.511628L61.141517,154.627018L60.836619,153.920693L60.163858,153.258982L58.952213,152.492376L58.387945,152.050268L57.702986,150.790906L58.674761,150.202653L60.126936,149.671682L60.882267,148.581263L60.293353,148.984982L59.582467,149.134397L57.945281,149.115323L57.723734,148.838750L55.353593,147.513277L54.567066,146.429578L53.110259,143.452719L52.301117,142.137867L48.722668,138.842352L47.712352,137.341175L47.562889,136.541530L47.636152,135.662664L47.582746,134.758533L47.093928,133.854521L46.322514,133.245570L44.578497,132.446402L43.775293,131.970751L44.536570,135.101137L46.717491,140.508955L46.827930,143.201797L45.754651,149.115323L45.588174,154.983393L45.892565,155.393885L46.291041,156.122655L46.582996,156.959732L46.612064,157.704603L46.169770,157.631385L45.200752,158.010217L44.490676,158.487769L44.850079,158.726559L44.932358,158.994015L44.763473,160.436566L44.785527,161.153192L45.260814,161.669215L47.029678,162.051482L47.712594,162.510235L48.031672,165.333605L46.832621,168.745097L44.088777,173.751132L43.240283,176.346780L42.942864,178.943605L43.742960,192.477449L44.224608,195.511247L46.115287,198.540357L47.765657,199.803800L48.227815,200.579973L47.577041,201.279269L49.823983,203.499674L50.815071,204.976190L50.718148,206.395327L50.442903,207.557899L50.367398,209.459690L50.626814,212.885993L51.962660,214.596802L54.683669,216.781184L61.954963,221.484869L62.704360,222.328781L63.739759,225.396388L64.545043,227.053400L65.596371,228.340045L68.102197,229.278625L69.223221,230.352877L71.987100,234.535829L73.081854,235.636981L75.576698,237.568576L75.912870,237.074306L73.660537,234.923305L72.652765,234.319500L76.099346,235.940564L75.982707,235.404461L75.251095,234.978200L72.838273,233.183110L69.450066,228.852856L68.669948,228.349720L66.314248,226.021735L65.789815,225.360933L64.379841,220.876180L63.934638,219.929476L62.488491,218.316626L61.786996,217.260990L61.613595,216.424025L62.529437,215.410606L63.614013,216.240629L65.178300,218.580570L67.325074,219.156788L69.697326,218.863842L73.884678,217.499132L73.378611,217.930392L73.004743,218.387439L72.747038,218.941101L72.536686,219.662241L77.095883,219.121376L77.935849,218.625635L78.702666,217.727631L79.721245,217.325352L84.640170,220.467207L85.424809,220.795671L86.015656,220.963131L87.335175,221.707107L87.877865,221.871376L88.316361,221.707107L89.164799,220.963131L89.428450,220.795671L90.410219,220.393145L92.495835,217.499132L93.418831,216.880936L94.445410,216.588122L95.584212,216.610646L96.795793,216.913114L97.876070,217.479823L99.649371,218.767270L100.825071,219.121376L103.180972,218.947539L104.187415,219.156788L105.532923,220.203164L105.704365,219.977773L105.831034,219.906937L105.992211,219.848982L106.298809,219.662241L106.142263,221.117714L105.447623,222.170940L104.644586,223.069736L104.135943,224.036361L104.470925,224.191037L104.993915,224.742112L105.135000,225.331924L104.262385,225.609126L102.986454,225.709052L102.449780,225.883120L101.948990,226.195814L102.236254,226.540766L102.776624,227.362939L103.219873,227.769238L101.630908,229.897987L99.223880,234.390532L97.291954,235.404461L97.409315,235.940564L98.235467,236.337831L99.067738,236.473490L99.848021,236.347521L100.513939,235.940564L100.743526,242.041648L101.615513,244.881209L104.142703,246.298293L103.747353,244.991199L102.195980,243.470951L101.829837,241.960816L102.279233,242.229183L103.419610,242.759487L103.877831,243.044062L102.843713,241.281874L102.505120,240.819595L104.335233,241.194588L106.370630,242.775656L109.500087,246.298293L109.906910,246.298293L109.661530,245.172362L108.661875,242.455526L109.551679,242.901773L110.434326,243.726453L111.157476,244.667707L111.541355,245.482941L111.921103,247.055511L112.250870,247.550670L115.297072,247.223796L116.206995,247.398558L117.259480,248.227133L118.105607,249.418420L118.235013,250.279667L117.751985,250.852824L116.778106,251.186382L118.161583,252.177454L121.034651,252.799390L122.604774,253.359836L123.422956,253.865256L124.272478,254.587823L124.642678,255.391499L124.052434,256.130459L123.480794,256.078599L121.802873,255.265107L121.163676,255.047979L119.937036,255.436871L118.424402,257.190444L117.193557,257.219620L115.936290,256.198526L114.791325,254.915113L113.928843,254.642910L113.528196,256.675015L114.243858,256.830611L114.718911,257.193686L115.050596,257.774002L115.271283,258.574867L115.175334,259.379081L114.574634,259.388810L113.331439,258.847250L110.605793,258.688358L109.432544,258.347890L108.391993,257.715644L107.459681,256.629633L106.622685,255.397981L105.625679,254.380440L104.232857,253.952737L100.089298,253.784256L93.269437,255.128996L90.792629,254.821137L89.991443,252.818826L91.068094,251.438992L91.193270,251.186382L91.292397,248.881015L91.420458,248.227133L92.751109,245.735300L93.566410,244.890914L94.774135,244.176036L92.213727,243.697344L90.487537,245.968256L89.464680,249.373094L88.436623,255.566507L87.936311,257.076981L86.843479,258.094983L86.745864,258.996417L86.740469,260.008259L86.598702,260.754276L85.088570,262.447752L84.647048,263.203803L84.358375,264.751890L84.878371,266.125045L88.442652,270.096880L89.059691,271.058549L93.057098,282.394861L93.770571,282.564109L94.194945,281.613771L93.951431,279.658189L92.469398,276.330788L92.064558,274.994446L91.970851,273.703884L92.174871,272.670319L92.979763,270.879849L92.161611,270.665417L89.520976,269.245794L90.696698,268.579947L93.646250,267.673860L94.939134,267.608912L95.696548,267.836231L96.833006,268.550717L97.610868,268.700119L98.404737,268.726103L98.992588,268.852773L99.228422,269.164589L98.950312,269.746036L99.076349,270.337283L100.098015,270.314542L101.593139,269.534890L102.393860,269.245794L102.664550,269.398461L103.281847,270.158604L103.515756,270.337283L103.750324,270.246319L104.204033,269.843491L104.273172,269.746036L104.730807,269.807757L105.632728,269.720049L106.093315,269.746036L105.871720,271.409464L105.663738,271.922875L106.673967,271.870882L107.447167,271.328232L107.989004,270.545207L108.310292,269.746036L108.754746,269.746036L109.032747,271.269746L109.637901,271.328232L110.659019,270.337283L113.441043,270.158604L114.088189,269.746036L114.690995,270.337283L115.449000,268.911238L116.156954,268.511743L116.487418,269.164589L116.140584,270.879849L117.407650,270.545207L117.802283,270.337283L117.778218,271.435459L117.285678,274.155714L118.713647,272.517573L118.418778,277.059226L118.616201,279.427202L119.252439,281.298106L119.667840,280.487859L120.177769,277.960128L120.424694,277.429979L121.192278,277.901582L121.545203,279.010793L121.595870,280.292634L121.470985,281.298106L122.907811,281.431530L123.605982,282.622696L124.021884,284.230775L124.629310,285.669903L125.614935,286.845522L127.661408,288.878085L128.675691,290.090085L126.178116,281.298106L125.141503,280.731899L125.930601,279.466241L127.448678,278.145527L128.640376,277.429979L127.954904,281.063808L128.330624,282.752891L130.302940,282.938422L128.711810,284.071252L128.432536,284.575878L128.552362,285.363819L129.387296,286.825981L129.153621,288.995366L129.914098,290.484356L131.113120,291.693372L132.276004,292.231140L132.170445,291.732481L131.495957,290.999222L130.633598,289.679546L130.170261,288.418752L130.680347,287.851958L131.252970,288.653301L133.337231,292.413665L134.148813,293.619747L135.000922,294.291328L135.283005,294.121797L135.488256,293.639306L136.115219,293.371994L136.733080,293.437192L138.397952,293.867507L140.948789,293.952270L141.796108,294.499988L142.867412,296.055341L143.162986,296.926092L143.531126,297.689307L143.964499,298.335166L144.390093,298.844064L144.614265,298.951720L145.484335,299.206186L145.831076,299.392147L145.991131,299.597688L146.404391,300.299182L146.454543,300.436226L148.889549,301.222643L149.932683,302.045043L150.386849,303.719490L150.984313,303.510572L150.885988,304.653161L150.442248,306.246540L149.965535,307.383001L149.654309,308.702548L149.619426,310.329422L149.413189,311.773632L148.597394,312.538320L149.746924,314.937421L149.236700,317.827733L147.161667,322.515163L146.695139,325.175674L146.626901,328.406676L147.374003,334.901638L147.822250,336.664545L149.818971,341.568313L150.294344,343.211101L150.626521,344.001441L151.065492,344.742646L151.880714,345.867676L152.112735,346.507326L153.657860,352.426781L154.252215,355.890072L154.017375,358.421755L154.719088,360.618969L154.348364,366.772724L154.478207,370.710413L154.123117,373.386646L154.182793,374.715106L159.984323,397.937433L164.466194,408.750486L165.473769,412.316669L166.168999,413.895615L168.028916,417.109911L169.307084,420.327974L172.221424,430.492753L172.225290,430.512546L172.225427,430.513025L190.434206,432.054212L191.723059,431.985083L192.812273,431.486521L193.800102,430.334414L194.856869,429.534252L196.274784,429.467224L197.826032,429.664120L199.276669,429.659930L201.466374,428.897490L211.314430,422.564232L212.754327,422.338074L216.918216,423.196649L218.364998,423.175707L219.257351,422.719194L220.530910,421.010486L221.723974,420.499573L222.392327,419.737412L225.108456,417.723253L226.495345,416.354063L226.683909,415.772079L226.639177,414.532799L227.126012,412.498193L227.097977,411.344920L226.788127,409.396438L226.592899,408.829301L226.187589,408.295663L225.278208,407.613465L224.959135,407.171932L224.548415,405.466585L225.118856,402.951746L225.085224,401.340927L225.185728,400.060746L225.766758,398.713729L227.306670,396.620210L235.794473,389.987986L238.171020,386.645769L238.512639,385.801450L238.632827,384.702237L239.337122,384.275948L240.226821,384.127586L240.876471,383.864300L241.222848,383.243714L241.637379,381.768628L242.072742,381.154402L243.251811,380.736577L246.888493,380.034660L247.629749,379.725493L247.961705,378.447122L249.221797,377.670131L252.001577,376.688514L252.724739,376.588268L253.854520,375.510669L255.066964,374.834083L259.167849,371.165679L260.625980,370.537333L264.746915,370.361986L277.124842,367.711213L279.072286,367.715387L283.303559,368.587784L286.161014,370.032174L287.187331,370.349461L290.526982,370.382861L291.698845,370.716857L293.669253,371.635393L294.642285,371.923493L295.660110,371.973598L304.667409,370.311888L307.379957,370.641707L307.725271,370.769948L309.931976,371.589464L311.024126,371.735600L316.434425,370.814970L317.304692,370.069747L317.691479,368.796500L317.604522,367.297994L316.996942,365.895660L314.798189,363.905128L314.976986,362.803594L318.308262,359.082517L320.190917,357.581081L322.380188,356.696996L328.331466,356.509346L329.502994,356.776227L330.530709,357.318350L331.490677,357.954336L332.453929,358.352627L333.468097,358.167034L338.230614,355.927649L341.246523,355.408527L341.899707,355.525275L344.894380,357.551888L347.399074,358.805153L348.481708,359.128397L358.703233,360.922047L361.521703,361.964995L362.896688,362.169424L363.941040,361.526946L364.682702,360.734326L366.502784,359.366144L367.103952,358.550735L367.940233,356.321698L368.095443,356.109377L368.534584,355.508597L369.553002,354.970732L370.249985,354.883175L370.984841,354.970732L372.483047,355.433544L373.304518,355.890122L373.600072,356.413437L373.756925,357.013924L374.187108,357.722875L376.231385,360.212896L378.016728,363.008038L379.023099,364.134627L381.651180,366.390215L382.927707,368.804849L384.744672,370.748170L385.372720,372.161493L385.499013,373.506070L385.121825,377.774563L387.238389,379.923944L397.435940,383.580123L398.440604,383.438036L399.396846,383.132973L400.469164,382.959550L401.595486,383.101631L405.132014,384.041913L408.310868,383.975047L409.238947,383.728479L410.230239,383.745195L411.223566,384.275948L412.191881,384.973898L413.142414,385.494247L413.468570,385.524353L413.708414,385.546492L414.724955,385.301987L415.294462,385.433643L415.850046,385.878774L416.707698,387.101386L417.200936,387.603000L418.267690,388.002213L419.326121,387.920698L420.375287,387.669883L421.420600,387.590460L423.815761,388.188238L435.118199,393.013124L439.649992,394.006299L441.896693,394.192396L443.003911,394.430770L444.221458,394.961896L444.840140,395.509770L444.967317,396.070209L444.949562,396.649489L445.137975,397.274799L446.580482,399.169695L446.939890,399.772091L447.425721,401.248885L447.672663,402.370161L448.188028,403.290664L449.500749,404.202845L450.707393,404.619200L455.975227,405.370336L456.884053,405.755332L458.871285,406.968956L459.836866,407.207506L465.647049,406.629971L466.670064,406.094302L467.262508,404.753105L467.574247,403.399453L468.114485,402.259285L468.974862,401.537565L470.234017,401.441338L471.421208,401.985237L475.329274,404.847258L478.406586,405.989681L479.936889,406.207293L481.380183,406.052453L481.876092,405.713484L482.185042,405.230150L482.572055,404.857719L483.316654,404.855627L484.768836,405.119257L485.428098,405.066949L486.069271,404.836796L486.712006,403.767670L486.614005,402.562625L486.851645,402.001973L491.245003,404.152632L496.579749,405.299197L499.420011,406.466757L500.482590,407.119619L501.416692,407.397929L503.381406,407.680428L504.192356,408.078027L506.804338,410.254500L516.891772,416.446177L518.322794,416.575975L521.644050,414.917973L523.240140,415.309434L524.822049,416.542479L526.463037,418.267603L526.999586,419.337497L527.185132,421.136122L527.769734,422.021875L528.097983,422.694065L527.983228,423.418626L527.748599,424.216507L527.726310,425.119126L528.247931,426.815552L530.739066,432.404050L531.745069,433.518530L536.579004,436.883170L538.105328,438.240860L538.609446,438.787723L538.612507,439.181637L538.433856,439.456123L538.386472,439.678228L538.421820,440.223018L538.368247,440.891446L538.682620,441.471878L539.821900,441.752668L540.342855,442.188526L540.962030,442.607625L541.577394,442.882137L542.127124,442.913570L544.036589,442.100516L545.043107,442.268154L546.392937,443.435358L547.132126,444.698996L547.772962,446.233020L548.515370,447.576386L549.544626,448.261707L550.141449,448.131768L550.498599,447.643450L551.009461,446.446782L551.558074,446.124044L552.267191,446.170149L562.376329,449.209019L567.460548,452.809820L570.171665,454.209970L575.768481,455.161589L578.467531,456.218032L580.970125,458.796333L584.548706,463.988866L588.568755,468.582121L597.332385,476.993356L599.192371,479.211517L602.162947,484.188749L604.018516,486.549454L606.451393,487.752860L616.875712,487.564173L626.046480,487.400644L640.034807,487.144868L647.808999,487.006498L654.533017,486.889092L657.928338,487.459347L660.679921,487.819948L661.811282,490.578941L662.624409,491.828436L663.030755,492.578965L663.358600,493.597832L663.477655,494.595725L663.413437,495.501366L663.226827,496.281216L662.950601,496.897545L662.848975,497.757043L663.167262,498.733924L663.822599,499.949767L663.802800,506.481380L664.269763,510.459493L665.704488,512.781647L665.561987,513.104391L665.507965,513.330730L665.450338,513.892380L666.141960,514.164820L666.755787,514.583954L667.268944,515.074335L667.643143,515.552136L668.089845,516.402944L668.385687,517.249541L668.812790,519.131264L669.198203,519.919128L670.495525,521.503182L672.552857,526.543984L673.240490,528.986564L673.437360,529.401321L673.413274,529.899859L672.909073,530.804746L672.699513,531.361907L672.648066,532.086618L672.700256,532.882520L672.829545,533.623944L672.761982,534.499384L672.288406,534.905678L671.718944,535.148613L671.384127,535.533955L671.399758,536.514035L671.974995,538.143227L672.093712,538.901245L671.468507,539.755556L670.356105,540.856901L669.793505,541.815823L670.786399,542.221992L672.457287,542.477414L673.944411,543.189230L675.320396,544.248536L676.650135,545.542243L677.568408,546.664228L678.441200,548.024764L679.158187,549.456367L680.067144,552.356929L680.561435,553.574783L680.877769,554.888805L680.834727,556.704847L681.382481,557.298996L681.563380,558.098137L681.527928,560.018438L681.574565,560.470243L681.922207,561.905061L681.842074,562.469753L681.124671,563.352306L680.966350,563.837481L681.588179,565.999680L682.870999,567.827076L684.995994,570.319016L685.828323,569.984551L689.153307,569.315598L689.713623,569.315598L690.251119,569.566459L690.987221,570.114157L690.977036,570.327377L690.599924,571.238757L691.569918,571.957788L691.668070,571.936887L691.820302,571.978690L693.060298,572.910870L693.160836,573.261990L693.083194,574.135573L693.170759,574.457406L693.739690,575.088513L694.256766,575.569139L694.853480,575.874224L695.630629,575.995420L696.114468,576.192007L696.720919,576.438404L701.840950,580.374503L705.588268,583.758143L710.323330,585.512285L719.532065,586.873671L723.401862,586.573009L730.781209,583.795735L734.660559,583.870917L736.829767,584.839892L738.826734,586.046834L747.011460,592.722622L749.091836,593.949674L753.078763,595.556337L754.262037,596.566129L755.232640,597.834504L755.986600,599.261262L756.375959,600.679499L756.949648,603.944940L757.596128,605.170797L759.454473,608.084778L760.324421,608.922558Z "/></g></svg>