<?xml version="1.0" encoding="utf-8"?><!DOCTYPE svg  PUBLIC '-//W3C//DTD SVG 1.1//EN'  'http://www.w3.org/Graphics/SVG/1.1/DTD/svg11.dtd'><svg enable_background="new 0 0 1000 2084" height="2084px" pretty_print="False" style="stroke-linejoin: round; stroke:#000; fill: none;" version="1.1" viewBox="0 0 1000 2084" width="1000px" xmlns="http://www.w3.org/2000/svg" xmlns:xlink="http://www.w3.org/1999/xlink"><defs><style type="text/css"><![CDATA[path { fill-rule: evenodd; }]]></style></defs><metadata><views><view h="2084.45557981" padding="0" w="1000"><proj flip="auto" id="robinson" lon0="8.8758272411"/><bbox h="119.94" w="57.57" x="105.09" y="-626.83"/></view></views></metadata><g class="" fill="#000" id="country"><path d="M845.645995,1068.086240L854.037379,1061.112480L864.481285,1049.687149L863.298275,1043.852246L859.278076,1038.501800L835.199433,1018.107735L792.201635,1019.406700L789.778325,1029.069346L788.079391,1063.166201L796.814613,1069.426691L803.570925,1069.369652L821.586767,1078.281356L827.791346,1077.397383L839.292401,1069.440951L845.645995,1068.086240Z M912.574575,765.774157L912.775979,751.541150L906.226240,746.211356L882.339214,768.488015L875.887183,786.977298L912.574575,765.774157Z M523.950703,2082.455580L552.962091,2067.103329L594.286993,2049.727443L615.533240,2036.657639L624.476789,2025.627552L654.593041,1980.762233L670.202441,1955.862275L691.501680,1921.877132L700.576699,1898.183804L700.174714,1876.189640L696.034124,1849.723570L676.776077,1786.289540L660.766189,1724.605023L671.093759,1700.823046L679.626710,1689.426814L698.054459,1660.473779L705.598519,1654.711044L746.983669,1645.663088L763.038767,1626.376382L775.001265,1602.243860L777.880087,1589.538891L795.635538,1576.237929L816.928755,1562.949938L829.800097,1545.693504L872.749037,1518.982650L911.892082,1494.590610L957.493047,1468.903132L992.792288,1449.023678L999.760014,1431.693303L998.702778,1416.700439L977.942725,1382.521141L976.507235,1342.081431L976.595990,1308.439340L977.840442,1288.550877L984.458640,1233.288186L984.704622,1225.609203L958.858601,1213.093340L943.761052,1217.587956L918.166534,1210.561423L910.280840,1206.009404L917.248691,1199.493750L926.320373,1195.197028L923.035331,1188.637543L896.266393,1171.032985L878.233679,1114.554334L846.725035,1096.043219L833.146939,1123.073894L816.150486,1127.390161L790.499046,1128.700644L785.046016,1100.903179L786.416140,1077.739568L723.583829,1085.480904L686.626146,1066.275150L649.814757,1030.696251L621.068684,970.378416L618.078104,945.780548L623.426679,924.902537L635.778391,904.844584L655.077384,885.507423L734.360814,827.212653L770.876251,787.924490L811.244770,727.371348L831.381407,683.390296L868.926607,622.434659L849.270418,594.432238L845.125717,559.339488L836.580528,530.432284L836.545107,506.104363L781.695350,465.183101L758.505456,457.056362L733.846600,431.064541L711.746584,388.043362L703.166402,345.725417L705.063102,322.076310L713.411528,301.769103L740.489078,273.201286L777.206054,251.395950L815.072789,177.233030L835.434286,148.019001L851.919983,138.339218L838.903146,110.851693L832.097825,79.455398L807.608928,83.381487L764.579929,121.660955L718.272955,136.745261L706.470309,162.886754L681.648729,180.551523L652.460148,165.813963L661.370536,140.918543L624.600330,90.915164L624.564144,39.895511L597.897924,26.426540L573.979043,24.500452L547.002728,25.572106L548.353805,37.824383L552.764734,47.079533L537.368892,60.811300L525.453278,38.244399L532.575552,25.427288L537.513405,9.310105L518.182957,2.997098L501.058533,0.000000L371.424536,43.226764L351.837674,54.727447L296.781581,101.680100L237.956122,119.603398L243.512662,135.426628L244.834561,150.250593L222.507860,164.031553L207.705966,171.972716L190.874717,210.026461L158.185891,235.920991L152.835610,243.731021L153.321291,250.801889L176.296442,262.523454L184.150538,273.635921L188.138364,288.528827L179.549825,341.685273L174.334263,382.542934L167.504700,436.011967L168.409895,456.376679L177.761558,480.811889L186.799684,499.861752L190.053510,521.375596L188.498316,574.335074L199.879269,604.917260L209.001317,633.186549L190.086682,668.362056L182.400153,699.344821L178.244511,743.668300L176.805437,771.574971L164.683319,797.380782L148.498906,821.577878L129.994940,836.616514L106.966236,849.528913L80.406859,866.662703L59.757562,912.342364L13.507813,950.269475L3.942641,963.290561L0.239986,993.720668L2.379456,1035.833496L11.517125,1069.298352L35.428039,1118.714551L56.670267,1173.054143L62.749735,1200.390049L70.654919,1210.703668L99.062128,1228.467598L148.109115,1252.652298L157.376259,1262.474388L182.386755,1299.902171L206.912199,1366.909697L215.196551,1411.281424L260.599094,1446.513657L302.542435,1478.997388L342.781893,1507.545525L386.487606,1538.523923L392.901601,1548.102170L408.987848,1613.729889L424.970507,1678.922015L442.574291,1750.720787L460.209881,1822.705660L481.023900,1907.468532L492.834896,1955.621637L507.177996,2014.017544L523.950703,2082.455580Z "/></g></svg>