<?xml version="1.0" encoding="utf-8"?><!DOCTYPE svg  PUBLIC '-//W3C//DTD SVG 1.1//EN'  'http://www.w3.org/Graphics/SVG/1.1/DTD/svg11.dtd'><svg enable_background="new 0 0 1000 2064" height="2064px" pretty_print="False" style="stroke-linejoin: round; stroke:#000; fill: none;" version="1.1" viewBox="0 0 1000 2064" width="1000px" xmlns="http://www.w3.org/2000/svg" xmlns:xlink="http://www.w3.org/1999/xlink"><defs><style type="text/css"><![CDATA[path { fill-rule: evenodd; }]]></style></defs><metadata><views><view h="2064.88808341" padding="0" w="1000"><proj flip="auto" id="robinson" lon0="8.86623550653"/><bbox h="120.03" w="58.16" x="104.91" y="-626.91"/></view></views></metadata><g class="" fill="#000" id="country"><path d="M831.842309,1008.271806L824.267075,1013.181735L813.748300,1012.510623L794.003156,1008.271806L785.213646,1011.615793L785.396216,1020.584421L788.728092,1032.446398L784.361665,1040.596552L784.502334,1048.227021L786.221172,1056.182296L787.907507,1060.573018L793.672645,1065.000050L798.100373,1063.978662L799.984066,1059.678495L804.307530,1055.125723L808.514206,1056.431495L812.480800,1059.854577L816.617624,1061.849827L821.172496,1068.452651L819.848248,1073.186101L820.099584,1078.245450L824.279127,1082.346465L825.525502,1077.114363L829.425359,1072.596937L833.526040,1066.021084L836.245922,1056.890272L839.971089,1055.655094L839.309782,1058.054841L838.813458,1065.700344L840.325046,1065.700344L842.347665,1056.255041L843.362136,1053.855209L844.828178,1052.572900L848.784376,1050.667022L864.254968,1035.923445L861.264889,1031.863197L856.971897,1029.226799L852.045911,1026.990458L847.233298,1024.071292L839.331360,1017.008074L831.842309,1008.271806Z M863.933354,790.506368L867.392861,786.863167L864.984222,783.529368L837.538461,783.292620L834.431443,785.843692L832.163534,787.684056L836.933994,790.815650L845.034199,794.714043L849.900816,797.099701L854.553500,798.073401L863.933354,790.506368Z M907.046091,756.779327L905.600143,754.598489L903.393420,753.722997L903.849497,750.239897L905.265398,748.379739L906.080164,746.649828L912.261877,744.432531L911.038930,741.843622L904.100814,740.772263L900.053106,738.452332L898.008651,741.614233L896.170909,744.752690L893.416893,747.364110L891.702985,751.326072L893.462185,754.691189L893.178493,761.215700L887.470951,762.270934L883.761780,759.894631L883.137264,757.100456L881.274801,758.200791L881.188421,760.879101L881.465628,762.732880L881.020783,766.761290L876.939622,773.080745L873.107163,776.860493L869.923817,780.777247L872.135523,785.761961L876.481011,784.017862L888.356544,776.618317L911.384474,766.731924L913.100389,762.773145L907.046091,756.779327Z M522.099862,2062.888083L575.956495,2033.482903L583.095101,2031.539544L600.850317,2030.337934L606.981629,2026.644147L636.224056,1986.639819L660.779047,1944.402955L682.248378,1918.704764L696.371576,1886.988266L699.887616,1875.408260L699.707430,1865.800399L692.999920,1845.695347L691.619111,1835.524301L692.654730,1824.508170L692.170418,1819.170611L683.986130,1802.757571L675.672370,1772.510821L656.066115,1723.431000L655.466314,1718.448575L657.500748,1699.734181L661.123291,1693.090453L676.128822,1675.575775L691.649057,1646.327541L703.847086,1636.181721L731.156938,1636.537723L744.302155,1631.227294L748.169538,1628.008334L751.621342,1624.359126L754.399017,1620.042290L758.180274,1610.117639L768.118649,1600.459491L770.979672,1590.919497L772.282348,1567.920305L777.564666,1562.028990L782.151163,1562.652264L786.597331,1565.160172L791.095708,1566.940909L795.790545,1565.456963L803.705582,1558.793860L812.334399,1553.302877L820.027331,1545.303469L829.064550,1522.489949L835.450149,1515.334851L909.229743,1479.269301L971.630403,1448.728434L988.168137,1437.372065L991.021393,1434.535960L995.767366,1429.817769L999.757739,1420.843963L998.476533,1408.741362L992.475126,1398.405727L975.682615,1382.368665L970.332449,1371.242068L969.596198,1355.400695L972.045279,1325.054886L969.228945,1295.218025L972.854832,1275.699632L972.400036,1259.577838L972.840371,1255.148525L978.771252,1227.724966L978.076259,1214.796576L977.943579,1214.762976L976.296950,1214.375860L962.673121,1208.040902L940.241437,1192.411943L944.138213,1196.331284L947.652109,1200.531981L950.473805,1202.432762L954.854169,1203.922840L959.068996,1207.360443L960.546612,1211.243654L956.694661,1214.059127L945.935459,1214.059127L925.267671,1206.468796L914.921184,1204.216158L904.389634,1206.163756L899.080253,1206.187221L896.717451,1203.324466L894.845539,1197.094002L890.924571,1192.975217L886.898131,1189.759791L884.436691,1186.309476L886.968024,1177.248533L898.673843,1178.586633L922.660267,1186.309476L923.713644,1186.074753L924.408898,1185.722668L925.893421,1184.349516L919.859197,1182.201703L907.246352,1175.839974L901.418493,1174.490074L895.705350,1171.379320L890.701853,1164.981220L885.745891,1159.909207L878.807633,1162.057893L880.616914,1153.721408L874.957058,1136.063631L881.035161,1125.721230L879.305876,1111.267948L878.382374,1108.494557L869.575437,1095.542356L866.232280,1091.533830L861.912807,1088.782937L851.574535,1084.068468L847.615140,1081.481798L845.985423,1081.481798L844.548445,1084.726873L841.979834,1085.949603L838.898411,1085.432298L836.001527,1083.457085L829.035144,1089.194404L829.769891,1091.674897L834.061694,1096.470975L835.806842,1101.442926L834.152091,1106.919772L830.517010,1111.385461L826.436175,1113.218639L817.823827,1115.803785L799.938220,1126.942035L789.778612,1129.174117L784.654919,1127.576426L781.270299,1123.969704L775.220214,1114.205709L773.650703,1109.657988L774.681512,1104.757307L777.533073,1100.843495L781.366637,1099.233227L788.250086,1093.120917L788.306412,1073.261765L782.321984,1063.042191L777.775647,1064.296481L762.732911,1072.669520L744.646108,1077.844436L728.057280,1080.329514L720.993573,1078.718624L717.550773,1077.930799L698.367421,1069.652037L689.156687,1064.230144L653.439065,1029.838832L649.965002,1028.014480L647.572080,1025.648605L624.403285,993.821685L618.639138,983.043053L616.036907,973.593508L615.098574,968.266979L611.203195,957.022673L610.246903,951.741369L609.889368,939.584941L608.799550,933.818029L606.363137,928.817071L607.515712,928.109342L607.554131,928.085751L609.541371,925.938904L612.865618,924.754298L617.712136,916.488670L625.744912,899.142013L628.426786,890.119385L634.129270,883.865161L643.616945,880.039286L648.326206,876.224872L659.572479,871.181751L662.677792,870.366763L664.861392,868.346940L669.778876,861.483532L670.677863,859.699568L672.095756,858.210902L674.937036,857.135721L677.647311,857.395657L679.894664,858.435387L682.289376,858.624426L693.806311,855.576491L705.865826,834.302085L713.908923,829.762180L736.246725,826.408411L741.500635,823.738140L745.083180,820.240709L745.318386,815.084348L746.876913,811.824318L747.090812,806.108426L748.805498,803.127041L749.853726,799.553811L750.118971,796.524589L750.967149,794.501032L753.090735,793.151935L768.981847,787.897105L772.763465,785.340441L776.781914,780.652780L778.826619,775.467271L783.353967,771.168629L786.824570,763.586129L794.258203,755.033930L799.780492,750.806983L808.409408,746.739489L807.289705,742.759688L804.423705,736.979788L805.338366,735.249341L806.816014,733.957379L808.844265,731.681518L818.391089,724.542718L818.012756,712.959520L819.817213,706.894730L817.818042,700.101034L824.310817,692.488080L833.381664,687.855765L841.104856,677.713310L841.821868,668.868635L839.939875,660.597679L844.371019,656.448258L847.429697,649.392370L850.564520,642.846883L857.395827,636.918240L861.670203,627.671247L866.276700,624.058911L872.935425,623.825745L873.110887,618.135289L869.768350,616.448235L863.663742,613.630283L858.544808,609.777271L849.652537,599.126546L843.642911,590.014055L842.037699,579.373269L844.743989,573.396441L843.338905,560.670457L844.295473,553.347088L845.682649,545.459290L852.017029,539.589988L840.915037,536.160736L837.084219,531.693651L834.686973,525.427164L834.368531,523.163419L833.724047,518.433068L834.696872,511.628731L843.640722,508.056858L840.028002,501.245367L832.859295,495.335412L823.289280,496.438780L801.364572,487.979835L791.533937,483.353811L788.613677,479.156696L787.179271,473.216877L788.356149,467.400728L790.862656,463.498237L786.326675,459.419253L784.058468,458.095252L781.623420,457.522703L767.432273,462.582391L760.019896,459.777086L755.295100,457.272211L754.710949,456.735440L737.580445,441.202978L734.208393,437.313344L727.220496,417.969426L724.256540,415.105000L720.881255,413.231131L716.910420,408.874508L711.370132,400.912611L710.378667,398.238576L708.782685,391.756072L707.628820,388.890720L706.394600,387.028190L704.421738,381.731248L700.986982,371.757681L699.480431,362.026034L699.432644,346.458709L699.460307,331.357652L701.838799,319.289656L704.685273,307.166091L707.674558,295.972799L714.844432,284.289550L722.882567,278.158471L731.289183,280.464416L753.878012,267.462132L773.431953,262.370932L779.259697,254.168625L790.886930,222.249375L806.478386,191.285869L816.061183,176.542521L822.604340,163.554504L835.182610,152.710907L844.562876,148.826334L847.662579,144.235751L848.823813,139.391285L845.802858,134.938703L844.344041,133.325068L843.049243,132.428607L841.258812,130.265157L839.527077,127.623613L838.331709,125.316762L837.579127,122.448160L836.923922,116.161234L836.248338,113.280767L834.602455,110.352524L830.237298,104.281006L829.285096,102.237282L828.657897,99.596003L826.167994,95.389143L825.496955,92.126494L825.974885,89.031207L828.295297,85.529646L828.524593,83.008084L826.110327,77.773861L821.826308,75.670655L816.940462,76.459354L808.036109,83.366598L796.081255,84.609452L791.044846,87.023478L788.973438,90.011176L789.473453,91.911376L790.443785,93.955005L789.951219,97.217683L788.068563,99.596003L774.825548,110.687178L774.127411,112.169226L773.322237,114.894303L771.192926,115.934142L764.162047,123.561685L752.642826,131.964549L743.545167,135.596112L733.600855,137.520532L722.505992,136.695780L717.507379,137.735685L713.348563,141.536742L710.385469,153.377090L709.078512,160.133556L707.522491,168.328292L703.050345,173.095932L695.735764,174.901202L683.875625,181.015185L679.046490,180.803604L675.800569,181.640352L664.390588,180.325462L655.806998,175.161534L649.196268,166.650633L643.668985,155.390512L640.301293,161.917063L639.590347,162.622316L638.056002,164.140404L634.894802,162.490828L627.424437,162.275666L623.940963,160.817348L625.005771,156.490220L628.868160,150.752631L631.130472,149.007457L638.771537,146.497285L642.857169,145.875720L645.130189,147.094944L643.529648,151.565453L646.728146,154.242992L649.964941,153.717046L652.378966,151.362247L654.465034,145.349781L659.731746,139.958941L660.845729,136.528439L658.298997,133.133823L652.470940,125.316762L649.907863,123.571692L640.860054,119.304680L629.550537,108.225086L620.044772,93.417206L617.601681,78.968876L627.514996,68.966856L629.295603,73.185080L630.577604,69.612130L629.700304,66.804013L627.469141,63.494082L625.730670,60.948949L621.171246,62.227485L613.959693,61.904863L607.642396,59.562885L605.725758,54.759555L609.848953,51.079499L617.381275,49.096132L624.029821,49.932488L625.503569,54.759555L628.745147,52.393793L632.212534,50.912226L639.763514,48.928861L635.096218,45.153378L617.181511,38.893002L609.206273,31.904202L592.382651,29.431336L588.359650,23.589842L586.309999,23.076186L573.804422,28.690681L569.544360,29.108792L546.224629,23.960153L542.665745,24.509649L541.862064,25.298061L540.887881,26.731550L539.485520,28.093381L537.224116,28.690681L531.581890,32.692662L531.646608,34.520476L534.373142,34.484636L539.194897,32.979376L541.467491,32.692662L556.851990,38.773532L557.101076,43.576308L554.682546,49.000548L551.920417,52.943411L546.791487,57.280686L542.023742,58.176833L531.562061,56.766897L529.593943,55.834913L527.957702,51.688852L526.531163,50.744953L525.288057,48.964704L521.289840,40.924007L520.438113,38.713797L525.154385,31.462188L534.051331,27.591652L541.193258,21.726359L540.604510,8.467857L540.001973,5.673030L539.932602,4.813097L519.610579,4.311474L517.141571,3.391837L515.162222,1.552587L512.613008,0.000000L509.731983,0.549374L504.546491,2.651356L494.092829,2.866333L490.088160,3.917343L485.226955,6.473250L476.653571,12.409406L472.310106,13.197733L467.381040,10.474446L464.132662,13.854677L459.199158,17.175288L453.714997,19.683730L446.789794,21.356055L444.297561,22.574479L441.703822,23.088132L439.218206,21.666632L435.963073,20.364602L432.709298,22.514752L427.115654,28.690681L418.163097,32.250646L386.838119,32.692662L382.560196,34.950554L377.834153,42.978939L374.989778,44.735214L356.277041,52.369897L349.211112,55.261388L346.744234,56.766897L340.315104,63.816708L338.029219,64.951877L334.922447,67.042999L328.054584,81.012370L320.944375,89.939471L315.838772,94.994755L314.044796,95.819387L306.945873,99.117947L297.369038,107.388458L292.101933,109.264899L271.765586,109.264899L265.988926,110.352524L249.293507,117.284743L244.933505,119.125395L244.924251,119.128277L245.911011,126.902394L245.822703,130.446900L246.726923,133.460137L255.277001,145.862454L255.189526,149.429886L251.024057,152.450834L234.708426,159.039280L226.562305,160.724352L217.632989,160.117118L208.459765,161.225320L201.207122,164.838369L199.819963,169.514095L208.270986,173.855851L213.251463,179.852343L211.515900,190.175411L206.379351,200.468057L201.208506,206.343013L172.870556,223.739833L157.637661,229.508265L150.887607,233.849710L145.463920,240.650181L145.264486,250.589788L145.260771,250.774697L155.136051,254.751537L175.920395,257.438145L180.599080,259.805976L185.146718,261.050596L188.885109,263.281787L191.064529,268.685120L191.697386,274.315970L191.681120,286.442213L191.154494,290.497822L190.955892,292.026982L180.569743,323.528479L179.783708,335.650613L181.086611,341.476076L183.020447,346.922005L183.789871,352.215974L181.777021,357.767530L179.225671,362.636269L174.805675,384.231696L174.500378,400.394525L173.638044,403.876406L169.091363,422.222900L168.366630,445.560065L169.755568,457.998279L172.887962,468.253097L185.126780,487.425210L189.479422,497.008945L190.601379,506.027298L193.642998,530.470913L193.813313,539.124282L185.807552,559.874113L183.493808,570.079365L183.297597,580.765999L185.168312,592.749532L190.983761,603.158780L200.175509,607.584584L210.247947,610.695963L218.680569,617.114334L216.464250,622.852264L202.592044,645.101606L191.612252,657.609371L188.725933,667.941353L185.105669,689.422944L179.805134,704.988992L177.684124,716.271259L178.428717,727.113366L183.703422,756.491358L183.141662,760.447779L181.329964,763.063185L181.016027,763.516350L173.516889,771.682943L170.804338,776.028715L170.256948,780.554406L176.731805,790.310630L174.982563,793.572173L166.485797,799.012475L165.034732,801.386732L163.482347,806.450326L162.492871,808.448537L160.632520,810.401576L155.060294,813.841694L145.395377,822.669958L143.418006,824.475614L120.856297,834.926520L111.003866,842.117440L90.386694,851.273125L81.165728,858.101024L76.703699,868.295737L68.527799,902.627360L66.483282,907.341196L63.565339,910.983011L59.073764,913.410717L43.833951,915.868256L34.595743,920.565665L28.171799,927.412339L22.467765,935.246502L13.000962,945.303294L7.889546,950.731015L4.770181,958.568578L4.543648,979.918554L0.242261,1008.968177L1.735244,1020.219789L5.409531,1036.139573L7.199162,1041.093841L14.454863,1054.571761L17.287255,1069.599469L19.535430,1076.969814L35.524867,1103.776649L54.801866,1136.075098L58.723373,1147.403878L58.763427,1148.603570L60.038279,1186.847282L64.063551,1200.327117L70.450223,1207.173963L79.408716,1209.870775L91.025819,1210.958407L99.918085,1213.960472L127.185080,1233.362502L131.943883,1235.797588L136.930099,1237.331572L142.011482,1237.681554L147.030131,1236.542245L152.511753,1239.855867L176.297012,1275.714517L201.841217,1314.143593L205.355465,1323.344288L209.674961,1363.786364L212.765481,1393.493847L215.837923,1402.975544L216.180202,1403.341529L222.996025,1410.628549L253.218236,1429.669203L292.665197,1457.877974L344.377413,1494.780182L386.027528,1524.479054L389.498699,1528.531390L392.380750,1533.963993L397.382453,1554.542379L398.116512,1557.562117L405.902825,1589.168708L413.614671,1620.769187L421.376678,1652.334707L429.115054,1683.925419L436.854030,1715.512471L444.618280,1747.081852L452.333085,1778.664037L460.123350,1810.230187L467.863999,1841.810773L475.604873,1873.391786L483.345502,1904.959215L491.111801,1936.543532L498.877723,1968.115897L506.618361,1999.691953L514.359231,2031.287354L522.099862,2062.888083Z "/></g></svg>