<?xml version="1.0" encoding="utf-8"?><!DOCTYPE svg  PUBLIC '-//W3C//DTD SVG 1.1//EN'  'http://www.w3.org/Graphics/SVG/1.1/DTD/svg11.dtd'><svg enable_background="new 0 0 1000 2988" height="2988px" pretty_print="False" style="stroke-linejoin: round; stroke:#000; fill: none;" version="1.1" viewBox="0 0 1000 2988" width="1000px" xmlns="http://www.w3.org/2000/svg" xmlns:xlink="http://www.w3.org/1999/xlink"><defs><style type="text/css"><![CDATA[path { fill-rule: evenodd; }]]></style></defs><metadata><views><view h="2988.66462777" padding="0" w="1000"><proj flip="auto" id="robinson" lon0="-175.28374133"/><bbox h="113.67" w="38.05" x="-2574.2" y="260.91"/></view></views></metadata><g class="" fill="black" id="country"><path d="M552.181095,2986.664628L553.389434,2986.664628L555.027321,2985.481598L555.943364,2983.653281L553.000718,2981.430623L549.099293,2980.104199L547.406500,2980.534391L547.612606,2982.721199L549.562891,2985.051406L552.181095,2986.664628Z M938.858954,2592.562988L931.205122,2564.962161L929.055095,2548.688467L927.487420,2542.021279L920.768931,2525.640087L918.469681,2522.234809L916.708217,2526.715438L915.622709,2533.275082L915.460612,2535.999306L913.703644,2543.240012L912.177032,2546.609451L905.539994,2550.193962L904.946231,2555.319815L906.940513,2561.305954L910.442533,2566.073361L907.372390,2568.474988L906.038762,2569.120201L906.839693,2572.131198L920.179551,2581.092503L926.452200,2586.469291L930.657953,2593.172358L937.622477,2597.007806L938.858954,2592.562988Z M748.003620,2450.401537L743.381292,2448.537603L736.137198,2442.157212L737.199532,2436.422031L741.753280,2430.794384L744.848844,2424.521530L735.790361,2428.321087L729.094963,2436.422031L728.293831,2447.139652L736.930243,2459.076002L750.147291,2473.413966L754.352614,2475.636351L759.365068,2476.568319L765.374563,2478.862394L776.422703,2484.884343L778.421298,2481.586609L799.199356,2491.408122L805.599355,2496.641486L815.068423,2509.294762L819.902706,2512.950951L828.686289,2514.994116L832.652379,2514.205527L836.552615,2512.700037L839.153667,2509.689057L839.163828,2504.455689L837.193881,2499.831688L834.580068,2494.885083L832.716057,2490.189394L833.076482,2486.389830L850.200233,2469.076731L852.468584,2465.205481L851.023613,2458.323259L848.686849,2454.882149L843.646217,2451.548574L838.844582,2450.473227L833.863218,2451.010900L829.348681,2452.552231L825.966413,2454.559545L822.007837,2460.438108L821.388593,2466.495897L820.359940,2471.119891L815.091817,2472.625378L811.718221,2471.550030L803.884838,2467.463710L798.953583,2466.603432L795.361960,2468.108919L792.339367,2471.119891L789.004082,2472.947982L784.543786,2471.227426L781.765750,2466.710967L783.438088,2463.054786L788.083809,2459.076002L785.858033,2454.236941L782.706924,2451.476884L779.174240,2449.505415L775.664276,2447.032117L771.855984,2445.956771L751.441518,2450.544917L748.003620,2450.401537Z M978.887684,1876.866221L979.136634,1870.341685L977.415972,1861.666181L978.456603,1853.922733L976.670272,1852.847253L972.022778,1851.054785L970.029085,1850.624592L970.239451,1857.364268L968.887927,1862.992603L965.882637,1866.971864L961.218153,1868.979418L963.241642,1872.062444L965.656153,1874.428484L968.504426,1876.364334L971.854510,1878.013391L978.887684,1876.866221Z M696.291392,1860.088813L693.571509,1846.860404L687.656790,1834.814971L680.212767,1829.616778L675.407572,1829.329981L672.116473,1829.903575L670.739921,1833.488536L671.508153,1841.877329L672.965865,1846.250964L681.175805,1859.945416L681.480819,1861.666181L682.203963,1862.777507L681.954671,1862.956753L686.877588,1864.964309L689.265059,1866.434127L691.821762,1868.979418L693.349496,1865.681294L694.202496,1868.979418L696.291392,1860.088813Z M989.479666,1845.964168L990.872743,1840.371650L990.727742,1835.030069L991.594519,1829.688477L991.289138,1824.024229L987.621770,1817.571274L984.211425,1822.948737L982.626338,1829.007334L980.283050,1834.779122L974.596337,1838.865971L977.236246,1843.741502L983.576678,1846.609458L989.479666,1845.964168Z M988.406963,1800.650128L985.711259,1796.097175L980.184574,1793.731071L977.040909,1791.795167L972.647713,1782.151476L969.737481,1778.458902L963.587680,1777.060742L967.428996,1785.162892L975.270804,1795.989625L981.135157,1802.514326L987.247071,1803.948325L988.406963,1800.650128Z M743.128132,1435.138936L746.192451,1431.804526L746.216574,1426.749125L742.153185,1421.371032L735.474061,1418.825399L731.836219,1422.052258L732.351941,1428.434260L738.116138,1435.533328L743.128132,1435.138936Z M997.870773,1342.419799L996.232503,1337.651125L990.456974,1333.850524L987.218224,1330.587741L983.822855,1327.755213L977.423906,1325.317087L972.136273,1324.815119L965.261551,1325.317087L959.524486,1326.930553L957.672850,1329.978210L955.122876,1341.881979L945.922780,1348.120688L940.328763,1354.682079L948.619811,1367.697267L950.828585,1367.553849L952.595328,1367.697267L953.591049,1367.195305L953.349488,1364.757201L959.826691,1367.625558L960.488888,1363.394730L960.095426,1356.833353L963.404814,1352.710078L965.678244,1354.861352L969.274612,1359.845134L970.266115,1365.008182L964.802505,1367.697267L970.203901,1378.095046L974.122489,1383.114654L979.651409,1386.054707L977.733269,1378.525298L977.608736,1370.995876L980.020133,1366.406506L985.724638,1367.697267L986.615108,1363.072040L988.685256,1358.733644L984.369380,1354.789643L983.163141,1351.491022L984.661188,1348.837781L988.281652,1346.686503L997.960406,1356.008698L999.832645,1351.562731L997.870773,1342.419799Z M17.995127,0.000000L6.139914,2.868741L0.167355,9.968878L0.999658,18.861982L9.556723,27.324777L21.277081,28.543994L27.285415,18.503389L26.542195,6.096076L17.995127,0.000000Z "/></g></svg>