<?xml version="1.0" encoding="utf-8"?><!DOCTYPE svg  PUBLIC '-//W3C//DTD SVG 1.1//EN'  'http://www.w3.org/Graphics/SVG/1.1/DTD/svg11.dtd'><svg enable_background="new 0 0 1000 1009" height="1009px" pretty_print="False" style="stroke-linejoin: round; stroke:#000; fill: none;" version="1.1" viewBox="0 0 1000 1009" width="1000px" xmlns="http://www.w3.org/2000/svg" xmlns:xlink="http://www.w3.org/1999/xlink"><defs><style type="text/css"><![CDATA[path { fill-rule: evenodd; }]]></style></defs><metadata><views><view h="1009.80144695" padding="0" w="1000"><proj flip="auto" id="robinson" lon0="-61.2593725008"/><bbox h="21.95" w="21.76" x="-913.06" y="-190.34"/></view></views></metadata><g class="" fill="#000" id="country"><path d="M14.532847,1007.801447L26.358485,1007.613482L40.485607,1001.661258L54.054419,992.858233L64.367445,984.180518L76.956367,977.539092L93.112417,975.408823L151.749176,975.534133L165.548645,977.351127L177.944897,981.549010L185.511413,986.561407L191.447304,991.699115L197.987109,995.677706L207.469730,997.338064L214.368420,996.460894L227.835290,992.889560L235.450125,992.012390L255.128147,983.303349L261.543368,981.549010L288.359988,986.655390L289.069032,986.812028L347.262789,981.549010L400.350668,986.812028L443.891847,977.257144L458.860315,975.784753L500.054150,983.366004L509.577803,982.300870L516.580681,981.549010L547.389224,973.341209L563.051401,966.887748L575.413230,957.896763L587.916690,946.399580L603.797602,935.748242L620.356860,930.171953L634.737341,933.743283L631.564376,894.583963L633.984868,849.597757L644.330831,809.780600L665.007736,786.097074L640.791849,766.141515L629.615169,745.966668L625.555465,736.192520L622.578071,725.666515L617.604147,683.217906L615.952673,669.183241L616.561010,647.567352L637.032687,628.676947L635.390096,605.870625L624.491171,559.067551L624.808701,536.950442L629.550564,513.924841L638.273438,499.169662L650.730598,501.738504L688.631878,452.366616L720.131575,395.664142L692.333605,389.398676L604.067129,400.425896L591.589067,406.221452L551.880845,411.578426L540.095059,421.227245L534.101361,426.145636L455.611587,425.769708L420.010552,420.882644L417.632452,421.101936L408.147570,421.979101L403.647409,426.176964L390.021390,443.031070L384.183314,448.701317L382.940003,448.231407L369.868678,448.701317L368.129633,450.486975L365.307670,454.152274L361.169003,457.723590L355.479705,459.227302L360.825196,453.494400L359.097317,450.549631L357.581926,448.889281L356.552940,446.853004L356.275177,442.968415L352.118455,442.968415L351.921588,450.925558L351.603215,453.494400L346.565536,453.494400L343.561668,444.002217L339.938162,447.166278L334.385638,454.872803L325.693882,459.227302L322.749866,459.195975L305.832110,458.945357L274.297238,467.121792L246.704619,464.490295L237.354975,468.782141L200.868034,496.036928L204.698161,504.996548L207.827804,509.131757L212.049268,510.635469L246.416527,513.266967L260.729920,516.712975L279.575676,526.612417L292.944292,533.661070L318.952455,554.337122L313.740910,559.067551L328.843665,582.187140L334.343398,610.444420L332.787024,640.706657L326.878616,669.966424L316.769737,693.837889L312.195817,709.031671L313.159039,720.121567L315.444162,725.384569L318.672210,740.453047L319.051693,746.436579L317.789088,748.692152L315.450893,749.224718L313.552866,750.352504L313.631032,754.550376L315.565054,757.933736L321.224099,763.510013L322.267973,767.676558L323.409315,782.118493L326.241470,794.586803L327.009719,801.729453L327.593233,807.525026L324.315927,822.906789L318.647820,832.868910L309.982599,843.332272L300.568649,851.540059L292.756939,854.892094L285.141118,855.205368L283.126273,855.299350L256.443317,856.395811L221.780406,849.629085L211.526498,849.817050L202.698024,854.892094L202.200200,878.105726L201.826208,878.450328L180.766125,898.499894L154.176334,912.471938L150.929467,914.194948L97.929901,931.675671L86.323991,937.878509L75.332188,946.900820L67.749806,958.460657L63.064767,963.316416L40.899202,967.952883L33.344353,970.521736L29.989454,973.403864L7.583936,986.279460L0.495638,996.711514L14.532847,1007.801447Z M994.761269,0.000000L987.141248,5.889540L973.390360,22.994266L968.375131,23.683467L957.980666,16.572162L949.665942,18.295165L941.454968,23.370194L922.129663,27.881330L899.484217,37.060240L890.645354,42.041285L883.359254,47.868170L870.452650,61.401577L811.079083,103.505508L803.859911,113.467598L799.527397,123.492343L790.577132,127.439586L781.108072,129.131261L775.221193,132.357976L773.062151,144.043068L778.210691,151.624281L787.531920,153.409939L797.975275,147.677038L802.142990,159.988676L813.823509,154.819668L832.931417,137.151057L845.090455,133.955670L887.149468,110.836103L893.519139,111.118049L901.596643,112.997688L910.149685,113.091670L917.890846,108.016643L923.041339,103.568163L939.275975,92.697580L941.700038,92.102361L952.594509,76.939933L954.086950,73.556581L960.755282,73.368617L967.366301,75.937458L973.374849,74.653038L978.116467,63.093253L982.298795,63.093253L989.736190,65.098202L995.645968,48.432062L999.188247,24.811251L999.504362,5.701576L994.761269,0.000000Z "/></g></svg>