<?xml version="1.0" encoding="utf-8"?><!DOCTYPE svg  PUBLIC '-//W3C//DTD SVG 1.1//EN'  'http://www.w3.org/Graphics/SVG/1.1/DTD/svg11.dtd'><svg enable_background="new 0 0 1000 1266" height="1266px" pretty_print="False" style="stroke-linejoin: round; stroke:#000; fill: none;" version="1.1" viewBox="0 0 1000 1266" width="1000px" xmlns="http://www.w3.org/2000/svg" xmlns:xlink="http://www.w3.org/1999/xlink"><defs><style type="text/css"><![CDATA[path { fill-rule: evenodd; }]]></style></defs><metadata><views><view h="1266.95929635" padding="0" w="1000"><proj flip="auto" id="robinson" lon0="177.348259843"/><bbox h="62.77" w="49.58" x="2604.34" y="95.2"/></view></views></metadata><g class="" fill="black" id="country"><path d="M998.276983,1264.959296L998.604174,1264.271767L999.605043,1257.753985L998.435968,1253.903818L997.709343,1253.518801L998.759013,1258.139002L998.276983,1264.959296Z M992.794988,1244.718418L991.849643,1240.015712L990.380798,1238.778158L990.212483,1239.163175L991.251228,1241.143262L992.268004,1245.460950L992.794988,1244.718418Z M826.928712,963.957620L829.606989,960.794960L829.352499,957.659800L827.368627,953.314579L828.046478,945.064159L826.469298,940.526426L825.125725,947.594288L824.681693,953.094568L825.492041,957.109773L825.673992,960.244932L824.063217,963.820113L820.973830,968.055328L826.928712,963.957620Z M601.719579,793.833703L599.038617,798.123935L596.160208,803.816741L595.043207,808.189477L597.163536,808.519494L601.719579,793.833703Z M710.503866,613.808726L710.617230,610.481038L710.228912,607.565872L709.438030,607.235854L703.240473,600.360463L703.742116,603.605647L707.215895,613.011181L709.542685,615.431319L710.503866,613.808726Z M261.510338,514.225522L261.547505,512.822940L260.895918,510.512807L260.921914,511.255350L261.351031,512.850442L261.350113,513.620487L261.255444,514.610544L261.510338,514.225522Z M41.796923,208.709995L42.124857,206.592368L40.997816,206.729876L39.161535,211.157641L41.796923,208.709995Z M354.901987,149.113928L355.120588,147.683842L352.907546,146.336262L349.508166,145.538714L349.717328,146.501271L350.125972,147.683842L351.199634,149.883974L354.901987,149.113928Z M1.821598,0.000000L0.394957,0.550033L3.005299,5.170309L6.554174,9.873090L4.686211,3.272695L1.821598,0.000000Z "/></g></svg>