<?xml version="1.0" encoding="utf-8"?><!DOCTYPE svg  PUBLIC '-//W3C//DTD SVG 1.1//EN'  'http://www.w3.org/Graphics/SVG/1.1/DTD/svg11.dtd'><svg enable_background="new 0 0 1000 1012" height="1012px" pretty_print="False" style="stroke-linejoin: round; stroke:#000; fill: none;" version="1.1" viewBox="0 0 1000 1012" width="1000px" xmlns="http://www.w3.org/2000/svg" xmlns:xlink="http://www.w3.org/1999/xlink"><defs><style type="text/css"><![CDATA[path { fill-rule: evenodd; }]]></style></defs><metadata><views><view h="1012.46090538" padding="0" w="1000"><proj flip="auto" id="robinson" lon0="120.825317897"/><bbox h="56.74" w="56.1" x="1706.69" y="-424.04"/></view></views></metadata><g class="" fill="#000" id="country"><path d="M999.505666,977.843004L999.275659,974.963857L996.766094,972.364118L991.525568,968.658877L990.138768,965.998388L989.901250,962.973444L990.259912,960.434431L990.547414,959.292482L990.196872,957.445924L970.952243,957.445924L973.115508,959.656934L974.568392,962.110909L975.119421,964.795700L974.502557,967.638416L979.081626,971.513735L986.673464,976.543136L994.492475,979.665246L999.505666,977.843004Z M940.118341,791.344263L939.429622,789.643296L939.444898,787.893727L939.998975,786.217054L939.968417,782.086111L938.860600,780.069234L937.636266,779.388841L927.924621,780.166433L927.502443,780.798226L929.730520,785.220769L933.504016,790.360132L936.301235,791.465761L936.855748,792.048949L937.779908,792.267645L939.479948,792.267645L940.278182,792.486340L940.118341,791.344263Z M512.113673,552.477307L515.753798,548.765633L518.227662,546.592555L521.126451,542.651821L523.244957,538.907937L526.638456,534.254159L532.407796,519.004488L530.112069,519.763798L522.594942,533.829382L511.909080,548.516059L509.402625,554.205839L512.113673,552.477307Z M396.770809,505.736654L397.046886,501.130495L392.840450,502.795522L386.556369,507.632585L384.389466,507.073529L382.629683,507.073529L383.245017,511.229979L384.325394,515.410713L385.235911,514.839510L385.387419,514.657211L385.320725,514.329072L385.670273,513.368962L387.517431,515.653779L389.387615,517.330927L391.520087,518.546250L394.101066,519.494200L391.253369,522.496035L387.293491,523.735656L383.195511,522.848476L379.895935,519.494200L379.173958,522.131440L384.952674,527.174986L390.081975,529.119477L394.674485,528.414600L398.670537,525.595084L399.084633,524.331159L399.271322,520.089706L399.714549,518.558403L400.913418,517.756290L403.586411,517.403846L406.971971,515.094729L409.856127,515.678085L412.726088,517.428153L415.031633,519.494200L414.964866,516.382974L412.852314,512.177938L406.429525,503.172279L405.430637,505.979722L403.265595,506.149870L400.177029,505.797421L396.498451,507.073529L396.770809,505.736654Z M359.645169,515.410713L360.627131,514.365532L361.758286,513.745714L363.207485,513.454035L365.327170,513.368962L368.177493,512.858523L368.184266,511.448739L367.106131,509.443437L366.749734,507.073529L367.662335,498.286573L368.593032,494.531122L370.726370,492.975460L365.820189,489.159214L363.417201,492.367779L362.436079,503.172279L363.384887,508.143027L363.207366,510.257712L361.248311,511.132752L358.815687,511.327206L357.116480,511.934872L356.186475,513.235276L355.999702,515.410713L359.645169,515.410713Z M388.960199,496.815994L389.893335,494.409586L388.184750,490.763498L390.068273,488.296302L388.121953,485.233565L384.395221,482.377429L380.817039,480.554358L376.241887,484.808184L381.416343,489.317212L383.982935,492.343472L385.555534,495.940938L386.959888,497.484440L388.960199,496.815994Z M41.725956,233.687081L33.342130,226.981672L26.390810,228.558544L25.340725,234.198275L26.268788,243.253835L19.621550,244.135095L8.352830,237.326258L1.780373,241.179016L0.494334,242.103047L1.194770,244.291536L3.813046,248.595541L5.486544,253.081884L6.138349,255.635072L6.403267,257.750562L6.015142,259.063621L4.493212,261.920730L4.262242,262.698833L5.849118,264.838613L8.401964,265.920658L11.076277,266.103025L15.342100,268.043888L18.246610,266.269646L20.693121,259.966123L26.656395,255.298335L34.383455,254.459147L39.702981,256.164141L47.302507,260.583352L50.021369,255.799768L49.103905,246.744851L41.725956,233.687081Z M812.674901,1010.460905L811.822588,1004.228919L808.631062,994.607573L806.848630,985.787968L810.028493,981.912676L812.838423,979.312946L814.156545,973.032276L814.236600,965.318080L803.113760,911.014093L799.931053,895.621576L798.338315,878.698140L798.538920,872.720829L804.538556,855.165378L805.860636,837.585413L805.222191,824.694915L807.201868,818.425787L813.056078,807.892127L814.592504,802.607040L816.981721,788.537666L818.499407,785.658163L820.797115,784.200184L828.991492,771.758693L842.573583,760.507779L846.271909,755.817842L849.691853,749.499760L851.067785,745.818247L851.628706,742.476929L851.221281,739.548711L849.301686,732.987531L849.220413,730.229394L851.666366,726.244056L862.850417,713.923435L863.547085,711.080194L870.547514,695.588044L871.401079,689.427571L871.578555,675.769901L874.517236,666.948209L874.941953,660.884770L875.495833,658.515279L877.112542,656.218690L881.080145,652.573299L882.668779,650.349604L885.342266,639.947989L884.279210,629.862200L882.018586,619.265927L881.041587,607.369275L881.776623,600.953037L883.323288,595.861331L888.247471,586.042395L889.415421,580.962753L888.259475,553.425217L885.300948,486.679859L887.891117,476.482818L887.029327,434.878875L889.503475,417.132954L889.063301,400.237441L888.024351,393.576360L888.007085,389.954066L890.320077,384.010058L890.586275,380.254001L889.807073,376.899058L888.686880,375.476849L887.176265,374.382840L885.198979,372.085414L882.278070,366.651789L881.042691,361.765135L881.508928,357.206655L886.345859,345.925799L886.423609,333.283222L887.813961,327.034778L889.720069,324.530520L895.115554,319.303153L895.594056,317.747091L894.428769,315.558873L895.428998,313.516528L899.116041,309.687114L903.290200,300.703093L907.696873,294.819034L908.514977,292.338959L908.084965,291.232648L907.059813,289.700829L905.846274,288.169006L905.027618,287.390936L904.765245,287.147789L903.365184,285.433598L903.555875,284.011181L904.238203,282.637391L904.411877,280.947503L903.471513,274.370266L903.532188,271.026910L904.276853,268.704787L904.796721,265.932816L902.788223,258.711040L902.299828,255.452702L907.335560,247.100085L912.574303,243.367509L914.498002,240.911533L913.271169,238.017845L910.998995,235.221410L909.560788,232.133157L909.435492,229.592023L914.488158,226.078187L914.004429,220.242010L911.190661,213.530330L907.462351,208.350610L908.974144,206.976638L911.308099,206.101186L914.245214,205.772891L917.499152,206.113345L917.085667,204.265162L909.274723,202.806066L901.988238,198.647622L897.198608,192.203188L895.133991,183.849628L895.594261,179.763997L894.862016,175.678335L888.034334,159.700181L886.047716,152.039251L884.778150,144.147161L884.454759,136.206309L885.151663,129.274685L886.901705,124.313044L899.753426,100.829723L904.005461,95.892127L921.749547,85.346780L919.177964,82.719801L915.095629,80.786043L910.710305,79.618488L907.111064,79.229302L900.534459,80.323886L898.235630,79.326599L894.696906,75.142834L890.237693,66.191411L888.303654,60.839943L888.039766,57.823639L888.747994,54.053234L885.100906,51.936931L837.695445,40.479567L833.595611,39.020014L831.568658,37.317197L830.572234,36.271179L826.333623,33.595309L824.984862,32.293859L824.374174,30.043682L824.927827,28.219208L825.639980,26.893420L825.551243,25.981179L823.276040,25.360854L820.355095,25.725751L817.904092,26.492034L816.875547,27.002889L811.563532,19.315696L798.371607,4.780323L793.169915,1.313680L782.317995,0.000000L772.178519,2.590866L763.991654,7.626605L759.021320,13.744855L757.321020,19.753577L756.538620,25.056773L755.988235,26.005505L754.346374,26.929909L752.935912,28.486798L752.731136,31.272158L756.177417,33.242580L763.247288,39.287599L768.140012,45.137950L765.094169,46.585325L763.198759,44.991996L761.348220,42.158049L758.878267,39.445717L755.172906,38.241584L752.219169,38.290236L750.102247,38.703777L748.527703,39.652488L743.743520,44.931182L739.554851,46.852907L729.057093,48.944903L710.297041,52.691017L702.337650,56.011415L698.535191,58.529066L695.699000,61.885916L692.142229,64.658950L675.599905,70.898225L670.027436,77.173910L665.200834,85.711637L659.857359,100.331101L658.626743,103.724152L657.867018,110.011575L657.909025,113.039726L658.405829,114.304490L656.142488,115.192256L654.057886,117.417743L652.702764,120.372883L652.569897,123.376651L652.884083,127.341110L651.942307,129.639509L651.898906,129.724635L650.636034,131.621719L649.866862,134.686224L651.455051,136.996751L652.531594,138.893808L652.968971,140.644932L652.623671,142.262284L651.186368,145.338886L648.394972,157.073589L648.206516,162.655081L645.112704,164.515565L644.722937,166.412523L644.251831,172.334393L641.485229,176.225524L639.683637,180.043669L641.888535,185.710039L634.550505,184.299532L629.433546,185.819474L625.721938,189.333566L622.630940,193.856861L621.855080,196.385999L621.351935,199.109673L619.977015,201.298330L613.829104,203.365387L612.938131,206.137663L612.798894,212.594093L609.409115,223.378962L608.527464,229.154314L609.169884,235.975233L608.268853,240.157716L603.004820,248.486117L593.349793,263.744409L591.325971,269.434251L590.794532,279.695280L585.316432,296.423783L585.409352,309.176524L584.661064,315.814165L582.052592,318.671003L582.053413,322.087035L581.610905,322.852905L573.464002,336.601923L571.395930,339.264165L571.131884,342.145208L572.775840,352.611675L572.296994,355.772247L568.162569,359.953903L567.620397,362.822697L567.663158,365.885973L566.454778,367.393293L564.551712,368.487314L562.491956,370.225588L560.201940,373.349607L558.592616,378.211864L556.467252,394.937755L554.138999,402.984510L553.188784,411.031170L551.800045,413.996984L546.344355,421.046819L545.816701,424.134139L545.761904,431.499892L544.870759,434.660093L540.331261,439.108659L539.905986,440.688744L539.489419,443.520734L535.216402,451.992327L534.625585,455.103819L534.231452,464.231598L535.164635,474.665249L532.540492,482.637264L531.904567,492.845322L533.817333,505.621027L537.525535,522.740098L534.129329,528.094155L536.174148,537.176517L544.432851,536.619705L541.571813,542.110986L541.226827,544.748151L539.970613,546.923503L539.934575,548.709960L543.225483,550.265512L543.639045,552.307169L542.520500,556.098804L548.304763,564.496242L554.087754,575.375561L548.821828,575.332878L545.266081,575.599915L544.037607,581.485302L544.771169,584.924390L547.201783,585.045003L549.115531,585.523075L550.949063,583.854993L552.431097,587.160398L550.949986,586.674310L548.064103,588.188245L544.344844,588.460817L543.642131,592.701275L547.819430,595.302335L545.440487,595.982852L544.249897,597.781357L542.811493,607.138388L542.819322,609.483707L543.773872,611.876769L542.093626,614.625208L541.506898,618.506200L541.210692,621.586910L543.221022,624.940781L544.833403,629.035889L544.060732,631.684941L541.586506,632.632765L539.428202,634.115257L539.588067,638.295385L543.000955,641.649195L547.935806,645.489051L549.235425,648.235267L541.575204,648.308175L541.979839,650.349604L551.627479,652.792023L553.357423,654.432450L552.955447,657.591783L550.140119,658.624640L546.594633,659.147144L544.036498,660.738955L543.361142,663.157045L543.416832,666.729489L544.844749,670.350524L548.214833,672.975159L550.750659,672.221792L551.978033,669.196168L553.797243,667.045419L558.146686,668.892391L559.449858,671.456274L560.412769,678.783353L562.151885,681.116342L565.431502,681.262153L566.619061,678.455276L566.949332,674.919328L567.761088,672.975159L574.156014,673.922941L576.285807,679.403054L574.934895,685.745851L570.974561,689.281761L575.599718,693.388747L578.127705,697.179797L580.359917,703.741197L585.231879,718.006023L586.381722,720.023010L590.153485,725.150515L591.194743,727.580604L592.761291,728.941451L594.214654,729.937784L595.021092,731.274328L595.176300,733.789455L594.444705,737.568211L594.936617,740.630087L596.866705,745.368688L603.473953,756.036544L609.836525,764.055595L613.616746,770.021248L616.279095,776.071920L615.999395,780.372981L614.812585,785.196469L617.363132,790.141436L621.624127,794.600395L632.168776,803.348169L638.596179,809.690267L640.899999,813.043547L643.789245,817.259435L646.736850,824.950053L631.118409,808.791197L646.464059,826.808917L661.323696,837.512517L663.411451,837.451770L665.079475,836.734960L666.635379,836.637765L669.767857,837.974191L672.235464,839.456408L677.783554,843.866601L682.862920,847.146900L693.651955,852.176678L698.528167,855.165378L699.425381,856.562533L701.118414,860.474558L702.342560,861.276400L703.485412,861.653023L707.053198,863.621179L716.320485,870.363916L718.864907,873.352579L725.122860,883.703512L731.936480,890.919965L734.117764,893.884290L763.941686,948.176661L763.993861,951.347410L762.300011,955.064833L762.357939,958.381351L764.485293,969.679338L764.758295,973.141610L765.092668,975.255417L766.020231,977.843004L773.261969,987.537314L773.405272,994.911278L774.077633,997.377359L778.304438,1000.645216L781.814217,1001.544179L783.617206,999.053807L782.627231,992.092896L790.785249,994.133794L799.220302,997.875434L806.876795,1003.293512L812.674901,1010.460905Z "/></g></svg>