<?xml version="1.0" encoding="utf-8"?><!DOCTYPE svg  PUBLIC '-//W3C//DTD SVG 1.1//EN'  'http://www.w3.org/Graphics/SVG/1.1/DTD/svg11.dtd'><svg enable_background="new 0 0 1000 1106" height="1106px" pretty_print="False" style="stroke-linejoin: round; stroke:#000; fill: none;" version="1.1" viewBox="0 0 1000 1106" width="1000px" xmlns="http://www.w3.org/2000/svg" xmlns:xlink="http://www.w3.org/1999/xlink"><defs><style type="text/css"><![CDATA[path { fill-rule: evenodd; }]]></style></defs><metadata><views><view h="1106.09319647" padding="0" w="1000"><proj flip="auto" id="robinson" lon0="120.820972157"/><bbox h="56.22" w="50.87" x="1706.76" y="-423.86"/></view></views></metadata><g class="" fill="#000" id="country"><path d="M31.256528,248.761830L15.731183,266.218448L0.452451,263.756853L5.515694,277.030047L46.061712,284.269855L48.378509,270.691126L31.256528,248.761830Z M893.139541,1104.093196L893.431419,1068.646563L890.693559,1032.797460L882.846568,993.073324L881.191197,954.570132L887.436230,913.767008L897.575336,875.149311L930.902648,823.780618L956.828429,761.138493L966.240302,727.983087L972.141369,693.331215L977.971221,610.483432L975.270006,530.056635L978.243852,466.607090L973.236148,403.409681L975.216608,377.929717L991.828789,326.806117L999.547549,244.723409L991.263295,209.744106L979.729351,174.875411L975.790379,149.112759L980.695241,125.795033L995.345241,99.933595L982.290823,72.669496L963.796527,56.848694L926.152013,40.480249L910.961771,31.418677L894.568575,14.663298L877.257724,0.515071L855.478944,0.000000L838.554025,9.190752L821.673103,38.806363L752.461401,69.820817L739.408850,80.459031L725.652095,115.012875L716.533539,152.813898L704.665296,182.679612L688.337652,209.164855L664.065848,263.129386L584.475173,516.627302L580.657265,535.106650L587.255154,576.711839L600.766246,618.717076L600.807711,649.640835L596.818349,680.306312L597.185126,700.824479L603.954094,719.284047L618.495228,737.952325L630.629315,758.405058L670.669704,843.026027L687.819996,872.818068L708.210790,900.808812L705.216473,899.104624L729.511566,919.876291L758.427177,933.911473L792.676753,962.061845L802.931578,976.498570L832.523458,1026.833266L843.829784,1068.501881L863.584116,1093.885264L893.139541,1104.093196Z "/></g></svg>