<?xml version="1.0" encoding="utf-8"?><!DOCTYPE svg  PUBLIC '-//W3C//DTD SVG 1.1//EN'  'http://www.w3.org/Graphics/SVG/1.1/DTD/svg11.dtd'><svg enable_background="new 0 0 1000 1109" height="1109px" pretty_print="False" style="stroke-linejoin: round; stroke:#000; fill: none;" version="1.1" viewBox="0 0 1000 1109" width="1000px" xmlns="http://www.w3.org/2000/svg" xmlns:xlink="http://www.w3.org/1999/xlink"><defs><style type="text/css"><![CDATA[path { fill-rule: evenodd; }]]></style></defs><metadata><views><view h="1109.94565083" padding="0" w="1000"><proj flip="auto" id="robinson" lon0="34.2113114569"/><bbox h="180.18" w="162.48" x="433.75" y="16.53"/></view></views></metadata><g class="" fill="#000" id="country"><path d="M942.389158,729.977766L946.279876,725.240725L947.283386,723.904129L946.885835,722.446765L944.837224,722.326070L941.913578,722.691345L939.350681,726.092288L938.219542,728.277706L937.616604,730.948588L938.116048,732.648330L939.624299,732.769914L942.389158,729.977766Z M956.233154,697.868581L957.840217,690.920786L958.063441,687.597926L956.713245,685.860977L956.512521,686.893077L955.528395,689.553043L955.072761,690.090071L954.254212,690.660663L953.322040,692.003232L952.555432,693.538796L951.866982,696.181979L951.013463,696.987520L949.049069,697.893754L947.363693,699.202759L946.389893,699.773351L945.289210,700.075428L945.274615,700.713149L947.631076,700.436244L948.484893,700.587283L948.968390,701.417997L947.408351,701.770421L944.536427,703.255638L943.013544,703.599671L941.351139,703.582889L939.927222,703.801056L938.866730,704.606597L938.317108,706.335154L939.132929,707.493119L937.763175,709.851005L933.747484,714.138831L933.225932,714.323434L932.606365,714.273088L932.084815,714.457691L931.859831,715.238058L931.726235,715.263232L931.415092,715.934515L931.161500,716.672928L931.140100,716.958223L930.363409,717.310647L928.824830,717.377776L927.969779,717.604334L929.403664,718.862991L931.737795,721.757902L933.550747,722.597006L935.059336,722.546660L936.910251,722.076761L940.538720,720.482463L941.435796,719.089549L942.045143,716.723274L943.249813,714.491255L945.910532,713.517893L948.403528,714.356998L949.482419,714.356998L949.954476,713.123514L950.134005,712.393493L950.952750,711.185182L951.239014,710.631372L951.908727,708.516828L952.042489,707.845544L952.042832,707.191042L952.237824,706.427456L953.492757,704.564642L956.233154,697.868581Z M900.678341,502.162885L900.714463,500.117645L900.175189,498.777722L900.819324,497.719643L900.091269,496.450084L899.685196,494.615935L899.772385,493.204892L898.694012,494.051504L898.907366,496.167996L898.606352,499.060148L898.386296,500.894081L898.547722,502.375190L899.547393,502.445356L900.678341,502.162885Z M911.442825,507.936464L911.190933,506.350548L911.257590,504.739458L911.980914,500.401263L911.492274,496.776311L908.820499,491.120715L907.811952,487.974055L906.120864,489.836878L905.346052,497.464381L904.539486,500.711733L903.001461,502.683640L899.697463,505.737998L898.129567,508.523841L897.873719,507.953246L897.190294,506.895969L896.926562,506.350548L896.527819,507.114137L896.256996,508.163024L896.145984,509.371341L896.226376,510.630005L895.719825,516.419859L897.287426,522.822263L897.915574,528.779938L894.568377,533.285955L895.332272,535.140386L896.405834,539.772269L897.233095,541.391750L901.704885,547.374599L901.903945,547.794153L902.207041,548.188535L903.016647,548.784302L903.851982,549.195466L904.200603,549.145119L904.345502,548.918560L904.569991,548.784302L903.616502,547.592767L903.343016,545.268435L903.758502,543.657345L904.960709,544.613930L904.875311,544.051726L904.957953,543.598607L904.897158,543.296528L904.366332,543.204226L904.380766,542.449028L905.630675,541.685438L906.313502,542.339944L907.097949,543.095142L909.857539,548.079450L912.169999,550.907248L912.657105,552.493164L912.219318,554.473462L914.735676,555.539131L915.190394,554.976928L915.346264,552.660986L914.818633,551.259674L913.994269,549.900317L914.001012,548.784302L916.056147,548.079450L915.819239,549.623411L917.438729,558.408884L918.285996,560.473092L919.478321,562.285568L920.768698,563.619751L924.090044,564.727375L927.368658,563.493885L929.722328,560.397572L930.223711,555.941903L927.870462,551.058288L927.555672,550.126877L926.158916,535.056476L925.400955,532.127984L923.862630,529.770087L923.627459,532.027291L923.998229,535.090040L923.942441,537.238160L922.485940,536.810214L922.367290,537.212986L922.363924,537.389199L922.251682,537.456328L921.836310,537.515066L921.409094,536.256402L920.675314,536.331922L920.056918,537.338853L919.961172,538.866031L919.068458,537.968185L918.402601,536.810214L917.600884,536.180882L916.272163,536.810214L916.605066,535.643852L917.087068,534.804743L918.203362,533.285955L917.576430,532.018900L917.228341,530.869320L917.074463,529.619048L917.061160,527.974394L917.287182,526.581472L917.703299,525.306026L917.956321,524.047362L917.782601,522.662832L915.858205,522.318797L915.310129,521.957980L914.392365,517.233795L912.706705,513.994833L912.322161,512.392134L912.187550,510.873347L911.442825,507.936464Z M939.749978,462.973161L939.983999,461.712122L939.101926,460.392690L937.725860,459.974379L936.299152,459.376045L935.265869,457.516301L934.332911,456.016491L933.018117,455.057270L932.227594,454.577813L931.621860,455.779351L932.555384,457.279270L933.598850,458.539066L934.375165,459.858931L935.727529,461.718283L937.299589,463.156920L939.749978,462.973161Z M945.392817,406.372021L945.105940,405.381874L944.626446,404.400119L943.930821,403.947001L943.658623,403.846308L943.404599,403.544230L943.197090,403.116285L942.998663,402.587647L942.861388,404.156778L942.257845,407.043307L942.282246,408.234839L943.280020,409.644539L944.745301,410.542384L945.750499,411.507358L945.367284,413.160399L943.801270,412.094733L942.564332,412.581415L942.050547,414.073749L942.758499,415.978524L944.073160,415.273673L943.670210,416.339341L942.392412,417.488919L942.109287,418.470675L945.033489,419.746120L945.809211,420.266367L946.368812,421.306861L946.427658,422.196316L945.933138,422.548741L944.869783,421.969757L944.179859,422.062059L943.687548,423.152899L943.544186,424.612948L943.893307,425.838046L943.549611,426.458986L943.400935,426.928887L943.174134,428.070074L944.266107,427.407179L945.175762,427.449134L945.877661,427.952599L946.397451,428.716188L946.127013,429.379083L945.617238,431.476855L946.870696,430.033588L947.838284,430.579008L948.149390,432.282399L947.419199,434.279477L948.086761,435.051457L946.398283,435.110194L943.313731,434.581556L942.445607,434.279477L941.578817,434.757769L940.967995,434.556383L940.333210,434.027744L939.364062,433.574626L940.021967,434.908808L941.032615,435.957694L942.136110,436.343684L943.042959,435.689179L947.136408,438.642841L949.344471,439.347692L951.193336,438.575713L950.535464,440.656702L949.627437,440.950390L948.001209,439.985415L946.563962,440.069326L944.376997,440.707048L942.956306,440.690266L943.510719,441.579721L944.233337,442.158706L945.114871,442.536305L946.153718,442.804820L945.248941,443.761404L943.637546,444.071874L941.849177,443.920835L940.435376,443.509671L940.925654,445.103978L942.781622,447.738779L943.488723,449.198828L940.302512,448.577888L939.158992,448.796056L939.702049,449.903680L938.833374,451.330165L938.449277,452.974818L938.341367,456.582986L938.849611,457.975907L940.158269,458.462590L943.327681,458.345115L943.957220,459.570214L944.707621,459.402392L945.696647,458.714323L946.998239,458.345115L946.984563,459.117095L946.167819,459.687689L945.845402,460.342194L946.082761,460.728184L946.960754,460.459669L948.264774,459.536649L949.304907,458.470981L949.806290,457.321402L949.522174,456.230560L949.960743,455.701922L950.289785,455.089372L950.933645,453.411155L951.429479,453.411155L950.953007,455.248803L951.463749,456.079521L952.267149,455.844570L952.705602,454.485214L952.773410,452.739868L952.918157,452.085363L953.303273,451.649026L954.018432,450.541402L956.879416,441.428682L957.992528,439.985415L957.325086,439.213435L958.005287,437.552000L958.140201,431.476855L958.830227,427.516263L958.713370,425.703789L957.568538,425.133195L957.411719,425.645051L957.557247,426.651981L957.466344,427.633738L956.622475,428.070074L956.550590,427.516263L955.730253,424.428344L956.052406,422.473222L956.642105,420.450971L956.964853,418.453893L956.544502,416.624637L957.784909,415.936569L959.430451,414.493303L960.483571,412.631762L959.520042,408.771868L959.798396,406.313284L959.833853,404.207124L958.620310,403.300889L958.775399,404.643460L958.542766,406.590189L957.974994,408.654393L957.198744,410.349390L957.075438,409.762015L956.770191,408.990036L956.686711,408.234839L955.584904,409.485109L955.550673,410.634686L955.881816,411.624833L955.934366,412.455549L955.321158,413.261092L954.950059,412.883494L954.745480,411.851392L954.706277,410.668250L953.957480,409.862707L949.806324,407.144000L949.503477,406.665709L948.065608,405.012667L947.612723,404.651851L947.043401,405.054623L946.836724,405.902121L946.483403,406.665709L945.474034,406.825139L945.392817,406.372021Z M643.015320,1107.945651L648.726987,1106.922638L650.090980,1106.400476L652.514319,1106.102097L653.193653,1105.633217L653.701397,1104.972522L654.606870,1104.162637L657.992784,1102.734683L659.051144,1102.116613L659.892486,1101.264103L662.542141,1097.118775L666.813861,1091.684027L668.366728,1091.108583L669.211943,1091.598776L670.994351,1091.747965L673.187911,1093.378389L674.516720,1093.666111L682.917970,1092.824258L683.782758,1092.408660L684.609298,1091.726652L686.061582,1090.788892L687.045129,1093.964489L689.394746,1097.417153L692.460716,1100.400937L695.586133,1102.116613L703.212855,1104.077386L707.145334,1104.556923L710.404659,1104.162637L711.298727,1103.715069L712.026479,1103.203563L712.740699,1102.819934L713.594173,1102.755996L714.623923,1103.310127L716.170683,1105.217618L716.896157,1105.633217L721.330941,1107.050515L723.398508,1107.050515L725.130441,1106.730824L725.750472,1106.368507L726.532459,1105.633217L727.071289,1104.610205L727.632741,1103.182250L728.376372,1101.903486L729.489185,1101.349354L731.393774,1100.901787L734.731962,1098.962327L736.710734,1098.536072L739.584158,1098.504103L741.533486,1098.120473L743.252905,1097.044180L747.404158,1093.421015L754.097573,1090.170823L756.026682,1088.689588L757.195733,1087.560013L757.979737,1086.185342L757.852559,1084.917235L757.351020,1083.649128L757.030669,1082.274457L757.582805,1079.962026L759.893939,1075.624888L759.822631,1073.770682L760.714692,1072.513231L762.258508,1067.856403L762.540880,1066.343201L763.187183,1065.448067L768.993276,1061.824907L770.503710,1061.419965L774.199535,1061.164212L775.011939,1060.929773L775.895951,1059.917419L781.103481,1058.926378L783.146439,1058.973882L783.853213,1058.990316L783.858316,1058.830471L784.148632,1058.532093L784.615083,1058.286997L785.167653,1058.276341L785.318607,1058.532093L785.765665,1059.480509L786.049345,1059.682979L786.918593,1060.013326L788.650181,1061.473247L789.715938,1061.803594L790.761339,1061.601123L792.794357,1060.663364L793.701764,1060.386299L797.861917,1061.121587L801.028392,1063.647143L805.835524,1069.540108L808.985645,1071.383657L816.097639,1073.408365L818.694107,1075.143753L818.744328,1075.177321L821.102270,1072.044352L830.242774,1065.256253L832.377019,1062.368380L833.872722,1060.983054L836.594921,1060.162515L838.460537,1059.203443L839.450224,1058.990316L840.531808,1059.118193L842.471038,1059.640354L843.471142,1059.682979L845.159668,1058.702595L848.888371,1054.844995L850.114076,1053.992487L852.022090,1053.459669L853.653686,1052.212876L856.154848,1049.836509L859.241227,1049.047940L871.082069,1049.058596L874.240335,1048.365933L877.075757,1046.948638L879.194475,1047.428174L882.809202,1049.687321L884.693080,1050.475891L887.097687,1050.507860L889.397305,1049.740602L891.555166,1048.440527L909.831101,1032.466657L911.291984,1031.582180L912.864626,1031.006737L919.867694,1030.420638L935.183420,1026.680258L937.512298,1025.593310L946.810832,1018.570774L956.299321,1014.084450L958.054641,1013.072096L969.702660,1003.119060L972.264609,1002.064080L973.359704,1000.902537L975.143513,998.398293L980.688983,992.430731L984.207388,989.553513L990.152080,987.251738L993.484408,984.630272L996.471074,981.380081L997.999399,978.393653L998.100824,977.034337L997.710249,976.077781L997.225649,975.297432L997.006538,974.517084L997.174502,973.384320L998.263961,969.885337L997.687098,969.935682L996.488234,969.826601L995.911111,969.885337L997.119174,968.265903L998.664665,966.705205L999.549121,965.052208L998.817221,963.189439L998.314246,962.274836L998.036642,961.225980L997.664310,960.378504L996.834209,960.026088L995.685227,960.210687L994.843147,960.730919L994.506084,961.620350L994.889195,962.837023L996.493523,962.476217L997.528811,964.070478L997.045585,966.109455L994.087858,967.066012L993.658630,966.873022L990.626193,966.184973L990.392116,966.361181L989.506921,965.404624L986.810700,958.062628L986.344343,957.148025L985.435103,956.241812L983.432825,955.134219L982.658302,954.404215L982.216968,953.145586L981.987455,951.710749L981.498947,950.544420L980.309682,950.108095L977.088922,954.404215L981.719835,956.644573L983.246215,957.148025L982.500368,957.659867L981.948636,957.852857L981.414751,957.701821L980.716077,957.148025L980.457827,957.878029L980.197551,958.431826L980.022717,959.086312L980.008830,960.026088L978.914217,959.153439L976.875982,957.047335L975.795480,956.191467L974.857387,955.746752L974.293207,955.864224L973.994581,956.468365L973.895603,957.542395L973.561072,958.356308L972.857778,958.196882L971.377436,957.148025L970.939933,957.223542L970.453336,957.458486L969.983023,957.399750L969.536103,956.569056L969.828348,955.931351L970.719370,955.495026L971.406385,954.974793L971.162377,954.018235L970.469521,952.289719L970.802744,950.779364L971.441951,949.394872L971.651729,948.060725L971.390404,946.936349L971.121981,946.785314L970.675830,946.902786L967.097886,945.425994L965.341405,944.956105L962.579128,943.580004L961.271594,943.143679L959.546414,942.858389L958.465821,942.975861L958.240639,943.848511L958.997679,945.921055L959.407648,947.506928L959.339112,949.302572L958.823510,950.997526L957.857224,952.222592L957.197440,949.134755L957.205176,943.194024L952.012469,932.931990L949.812214,930.976916L948.602210,930.725189L947.272186,930.792316L946.082096,930.616108L944.219966,928.444547L941.505786,928.662711L940.318032,927.899139L938.465311,927.672585L934.061901,933.435442L931.716476,933.913722L933.076180,932.831299L934.165336,931.664967L934.871758,930.213346L935.104869,928.293511L934.037126,925.683941L934.115733,924.500823L936.927193,923.728860L940.099004,922.235279L941.094135,921.505270L941.031830,920.599052L938.514000,918.358679L937.786750,916.965788L940.403484,917.318206L942.137040,916.311297L942.854406,914.205178L942.333398,911.276748L941.761949,910.102020L941.075620,909.330055L939.619986,908.104981L939.081931,907.047725L938.445418,904.261939L938.171210,903.523538L937.494899,903.431238L933.890984,903.523538L933.163958,903.137556L933.594572,902.264899L935.168275,900.637060L937.020797,899.848313L937.777769,899.177039L937.007590,897.179998L937.376648,895.082265L936.891652,893.957881L935.726360,892.615331L935.303539,891.902102L934.884594,890.786108L935.115195,889.930233L935.856551,889.284131L936.111253,888.621247L934.913250,887.647898L934.004647,886.087184L933.090485,880.465253L932.378980,878.434645L930.270898,876.185871L929.676953,875.237694L929.721004,874.440554L929.952554,873.265822L929.834377,872.191780L928.843595,871.713496L928.469894,871.612805L928.167450,871.335903L927.610281,870.656236L926.731099,870.144388L926.261516,870.580718L926.009091,871.713496L924.131431,871.814187L923.092283,872.023961L922.267925,872.477072L922.034618,870.480026L922.051610,869.045174L922.542716,868.088605L923.688343,867.492847L925.132127,867.333419L926.013825,867.484456L926.816541,867.283073L928.067209,866.083167L929.332683,864.337848L929.676223,863.104378L929.481066,859.680867L929.626168,858.682342L930.184092,856.609775L930.215062,855.460213L929.837185,854.688245L929.173623,853.832366L928.664840,852.984879L928.750871,852.254865L930.270078,849.007561L929.919378,845.827384L928.447727,842.865371L924.689616,837.285373L923.411168,835.926035L922.316204,836.009944L921.287315,836.949734L919.797993,837.990215L918.210606,838.829312L916.917722,839.139778L917.321466,838.107689L917.342009,837.327328L916.720951,835.674305L916.566313,834.533132L916.947470,833.794726L917.489297,833.123448L917.781035,832.133312L917.590535,831.512380L917.185382,831.193522L916.761949,831.008921L916.576548,830.757191L916.660029,830.387988L917.174519,829.347506L917.201048,829.179687L917.229621,827.232979L917.032914,826.846993L916.239003,826.142151L916.027513,825.756166L916.205317,823.457036L916.789773,821.418026L916.812088,819.983167L915.283051,819.429361L913.515343,819.253151L912.829177,818.657390L913.159593,817.583344L914.406423,815.905146L908.912000,816.492515L907.553545,815.905146L909.467971,812.951516L909.852104,812.657831L910.387882,812.498403L911.418994,812.028507L913.168668,811.759995L914.526428,812.666222L916.300216,815.200302L917.995922,817.029538L918.167531,817.247704L919.467099,818.397270L920.110433,818.648999L921.186608,818.724518L922.467130,818.321751L921.944931,817.381960L919.446058,815.200302L918.491805,813.538886L917.542941,809.930758L916.804373,808.487507L915.653690,807.564497L914.581767,807.027473L913.604209,806.263893L912.849455,804.577302L912.520713,802.395642L912.508663,801.120210L911.977412,800.516058L910.164422,800.365020L909.182826,800.046162L908.831750,799.324536L908.593974,798.502217L908.071094,797.856110L904.920829,796.840799L905.488336,794.826958L905.865571,786.217784L905.546722,783.885082L904.821954,781.233522L903.743197,778.850474L900.800852,775.343030L900.591192,772.439737L901.342417,766.465331L901.300280,763.327088L900.970686,760.457358L900.289614,757.755447L899.200596,755.112274L900.566018,754.550075L901.237645,753.652235L901.222231,752.443926L900.541493,750.941932L901.398863,751.235618L902.137389,751.864945L903.570970,753.702581L904.164067,751.764253L904.198500,750.941932L905.483320,751.588041L905.275640,749.767188L905.570466,746.075134L904.971364,744.547965L905.683818,744.413709L905.983530,744.237497L906.264879,744.212324L906.877521,744.547965L908.274276,741.728578L911.507426,732.456481L914.556234,727.212080L915.754686,724.300388L916.116625,721.128573L915.639601,721.623645L914.220411,722.597006L913.864245,720.750976L913.868777,716.723274L912.976296,713.123514L913.123649,711.856466L914.545178,708.516828L915.194698,705.965948L914.932213,704.514296L912.525751,701.795595L910.958203,700.528545L909.410609,700.335551L905.987729,700.713149L907.463409,699.185977L907.363757,697.709151L906.308971,696.307845L904.934058,695.007231L904.090555,698.330089L902.712438,701.753639L900.673832,704.312911L897.879336,705.009368L902.042466,699.681049L902.526807,697.868581L901.236958,694.100997L901.580127,692.640953L902.154242,691.096998L901.886990,689.167055L900.800331,685.860977L900.470761,683.729648L900.414176,681.615100L902.260917,670.253599L903.403014,666.360144L905.859872,663.859606L906.869283,661.971616L907.720918,659.857066L908.152820,658.346674L908.193328,656.131431L907.608190,654.814033L906.731083,653.664456L905.879720,652.003024L906.997616,651.927504L908.436995,652.028197L909.699501,651.759683L910.256835,650.593324L910.022782,649.787781L909.635804,648.873154L909.563635,648.101175L910.280165,647.782315L911.043772,647.681622L911.618583,647.421498L912.816486,646.372614L913.896593,644.954523L914.328245,643.435738L914.577888,641.782696L915.127121,639.945051L915.874830,638.854211L915.981542,638.703172L919.860348,635.690775L920.133653,637.444510L920.764814,638.359138L921.621883,638.384311L922.654013,637.478075L923.211990,636.269760L923.958803,633.475531L924.903278,632.166523L926.260647,632.309171L926.414200,629.590462L925.776151,623.011856L926.011669,622.357352L926.496113,621.820323L926.952909,621.190992L927.077292,620.192453L926.803821,619.479211L922.591096,612.984514L921.892432,609.938551L920.272629,607.446399L919.917256,606.028306L919.278593,605.440930L915.950184,605.482886L914.615548,604.937465L913.491380,604.224223L910.746247,603.947317L909.364627,603.527763L906.812596,601.757244L905.508121,601.178260L903.846694,601.060784L904.236163,601.908284L904.367825,602.705437L904.388653,604.585040L902.594472,602.638308L902.624274,598.988186L903.127129,594.968857L902.788029,591.981630L901.287967,593.760540L899.673977,592.384402L898.377297,589.564997L897.866673,586.997324L897.767108,585.688315L897.431520,584.345741L896.848329,583.179380L896.094391,582.415791L894.569568,581.366905L893.782268,580.418712L892.466577,577.767128L891.773996,576.886063L889.415988,574.947722L886.500750,570.869653L881.576573,565.482573L879.701733,564.525989L877.115835,563.619751L878.879671,564.962325L880.331562,565.608439L881.115282,566.002821L881.188026,566.825147L880.196656,567.219529L879.279818,566.825147L878.308538,566.187424L875.789376,566.036385L874.647531,565.801434L874.242793,565.314751L873.997925,564.593117L873.700296,563.921830L873.084861,563.619751L871.895359,563.552622L871.440849,563.342845L870.923992,562.914899L870.208787,562.033835L869.637652,560.968166L869.260574,559.810196L869.141371,558.702572L868.768563,557.704032L867.842746,556.999180L866.738428,556.344675L865.762890,555.530740L864.672934,552.963066L864.472379,547.181604L863.825743,544.613930L864.934134,543.111924L865.612287,540.888285L865.880848,538.412913L865.598893,534.519446L865.448096,533.881723L864.053210,532.522366L862.075581,531.070707L861.554064,530.474939L861.195855,529.451226L860.404051,525.482239L860.017162,524.802560L858.912616,523.325728L858.591960,522.662832L858.541758,520.170677L859.256364,517.921864L860.160470,515.824091L860.696876,513.197679L860.769754,512.853644L861.142517,511.888669L861.669405,510.990822L862.274296,510.277579L862.677382,509.270648L862.827736,502.624902L863.211634,500.216659L863.902856,497.993019L865.977436,494.544281L867.696072,490.717943L868.879774,489.073288L869.794468,487.160119L869.953943,482.360415L870.591127,480.229078L869.359307,479.591355L872.371958,477.443236L875.642237,472.014200L878.368027,465.964224L879.660602,461.869372L879.563312,460.233110L878.945242,459.603778L878.234128,459.217788L877.857077,458.345115L878.155358,456.935412L878.998169,456.129867L880.059062,455.550882L881.026076,454.837640L882.324671,452.924471L883.355487,450.658878L887.514558,437.728213L886.988469,436.461159L885.547947,438.475020L884.541608,439.330910L883.843993,438.575713L884.152620,437.837297L887.015921,433.104725L888.894038,428.842054L889.501038,427.960990L893.022687,424.537428L893.405486,423.782231L893.251352,422.825647L892.293719,420.350278L892.253127,418.797928L889.321624,420.148892L888.010122,420.232803L888.189161,418.823101L889.125561,416.826023L889.474731,416.305776L890.265767,415.919787L891.671106,416.423252L892.300288,415.978524L892.591387,414.946421L892.370575,409.090729L892.143278,408.067018L890.612426,405.297964L892.586176,405.457394L894.008969,403.569403L895.702690,398.257855L896.242893,400.070326L895.914608,402.025446L895.296882,404.022521L894.952283,406.061551L895.452820,407.571944L896.643210,406.313284L899.637065,400.733221L900.256331,399.088571L900.626217,397.301273L900.773174,395.111203L900.581035,392.828832L899.798273,392.258240L898.430977,392.123983L896.439769,391.209356L898.942628,389.799656L900.666654,388.029141L901.216823,384.689496L900.678787,381.794578L899.080457,381.291114L898.469014,380.645001L890.851762,374.334920L883.185986,368.004869L875.519162,361.664162L867.851108,355.323456L860.181651,348.993407L852.501707,342.652703L844.839310,336.312000L837.175487,329.981954L829.491581,323.651910L828.895825,323.159124L821.825354,317.311209L814.138869,310.981167L806.470041,304.640468L798.799749,298.310427L791.109474,291.969730L783.436676,285.629034L775.753132,279.288339L770.849985,275.260133L769.623584,273.405880L768.739076,271.295867L767.242073,264.944518L766.576055,263.356680L765.323314,262.035259L763.614051,261.097476L761.702545,260.522018L759.757862,260.330199L755.398927,260.617927L755.153763,259.200596L755.903880,257.186494L756.292512,255.481434L755.841897,254.671531L754.348935,254.458398L753.700073,253.701778L753.572752,252.614802L753.823156,251.410604L754.270398,250.259688L754.742880,249.343219L756.090153,247.680785L758.144898,245.858503L760.324903,244.547738L762.048265,244.398546L761.939536,242.554950L762.277245,241.116306L763.191297,240.231806L764.848688,240.093270L763.176717,227.491011L762.996296,226.133098L761.519985,214.954306L760.157140,212.418031L752.694792,207.665180L740.215687,199.714042L733.292410,195.303508L713.874680,182.941838L694.460280,170.590826L675.039991,158.229161L655.613574,145.878154L636.171702,133.527149L616.742673,121.165490L597.298137,108.803833L577.847486,96.442177L558.400117,84.080523L543.052465,74.340752L538.937123,71.729527L519.458639,59.367876L499.983346,47.016884L495.205027,43.984505L480.501954,34.655235L461.004929,22.304245L441.511205,9.942599L434.705255,5.626680L431.327271,5.328295L430.107347,4.422485L429.939491,1.726368L428.527766,1.673085L428.151034,1.726368L421.213700,1.726368L413.749242,1.726368L397.083640,1.726368L396.401276,1.726368L380.403918,1.726368L377.697774,1.726368L363.733609,1.726368L347.053887,1.726368L330.388285,1.726368L324.947682,1.726368L313.713270,1.726368L313.567074,1.726368L297.042961,1.726368L280.358532,1.726368L263.683517,1.726368L247.003795,1.726368L246.528515,1.726368L230.333486,1.726368L213.663177,1.726368L196.988162,1.726368L182.256389,1.726368L180.313147,1.726368L163.642838,1.726368L146.963116,1.726368L141.080031,1.726368L139.633384,0.916467L136.417460,0.000000L132.983819,2.024752L129.524740,3.260917L128.204055,4.038848L124.932487,7.939160L123.770522,9.026132L121.580326,8.248201L119.595153,8.003099L114.999843,8.482646L113.303810,8.930223L112.206845,9.026132L111.694869,8.759717L111.226431,8.184262L110.550656,7.672745L109.421558,7.555523L108.684798,8.226888L108.578212,8.352474L107.852708,9.207294L107.147083,10.336893L106.855457,11.498461L107.152300,12.606747L108.475394,13.640436L108.770954,15.047106L108.575534,15.654532L108.229586,16.240644L107.982330,16.858727L108.130396,17.476809L108.927973,18.084235L109.653281,17.956355L110.247777,17.594031L110.624770,17.476809L111.741095,18.393276L112.124357,19.032671L112.470817,21.696819L113.019735,23.199399L114.662812,26.311123L115.190015,28.410472L116.031547,29.657293L116.211284,30.499164L116.120413,30.818862L115.911299,31.266439L115.692035,31.873865L115.594388,32.641139L116.076192,34.292911L117.248072,35.294631L119.924699,36.552109L120.881128,37.319384L122.238899,38.789993L123.073832,39.365449L129.076048,41.891062L130.862980,42.178790L132.626494,43.393642L133.130673,46.089760L132.947586,48.775222L132.658965,49.990073L132.171148,50.586843L132.705360,51.929573L134.199308,54.210085L135.321508,55.574129L135.722008,56.362717L136.586634,60.071212L137.449141,62.394350L138.867992,63.662484L141.037980,62.724704L141.689288,64.909306L141.598939,67.562798L140.375044,75.693781L140.340196,76.802067L140.544062,77.334897L141.344999,78.741568L141.565136,79.690005L140.503126,82.524660L140.816418,83.611633L141.515295,87.746393L141.005429,89.494075L140.068554,91.039282L139.545445,92.627115L140.229967,94.470706L138.743856,95.781468L138.184201,96.452834L137.727011,97.284048L140.453058,97.774252L140.707910,100.502341L139.467512,106.502007L141.173754,106.086400L142.809649,107.013524L144.186936,108.590701L145.150651,110.082625L145.892023,113.077130L142.675820,124.554290L141.851771,129.094002L142.184358,136.148674L141.782436,138.248025L140.826518,140.176870L139.633307,141.146621L138.098182,141.913897L136.684216,142.830365L135.411097,143.182033L134.749055,143.608297L133.918961,143.864056L133.177141,143.661580L128.445614,141.008086L127.469666,140.656418L126.291987,140.837580L125.240284,141.764705L123.920134,144.535422L122.891550,145.505173L120.985084,145.622396L119.013958,144.982999L117.077632,144.705928L115.308786,145.878154L112.259060,150.172766L111.023105,152.357370L107.492726,161.873721L106.722397,165.145299L106.318178,166.232273L105.432360,167.521723L103.239252,169.855520L102.485162,171.134313L102.110885,173.670587L103.112974,174.778874L104.881743,174.800187L106.807318,174.086194L110.086652,172.402450L112.182932,171.528608L111.578311,173.478767L106.288727,179.702228L105.543104,181.055617L105.232834,182.654109L105.177001,185.275635L103.164986,188.312770L102.100306,190.603941L102.282045,192.383596L104.529045,195.719116L105.898838,197.189728L107.550123,197.701246L107.125889,198.830847L107.645300,199.651406L108.427548,200.535905L108.799253,201.818135L108.810613,201.857325L109.250257,201.622880L111.077690,198.809534L112.168886,197.797155L113.443889,197.264325L114.181209,197.402861L120.057881,201.409747L121.256873,201.985205L121.649280,202.283590L121.878690,202.912330L122.117135,204.596075L122.357600,205.043653L123.568510,205.342038L124.521234,205.075623L125.432906,204.670672L126.558003,204.585419L127.673244,205.054310L129.742789,206.599519L130.938565,207.004470L133.066844,206.791338L137.331982,205.448604L139.458077,205.469918L138.839125,206.698814L138.561718,207.249572L135.709280,210.926105L135.091594,212.567224L135.528780,214.080463L137.745063,216.467545L138.629796,217.895532L138.638670,218.439020L138.192624,219.813723L138.111583,220.410494L138.428611,221.188427L139.599769,222.168836L139.968919,222.904143L140.050302,224.204250L139.877741,225.493701L139.063288,227.955380L137.753913,230.033421L137.793453,230.790040L138.179762,232.622979L138.220852,233.219750L136.819661,235.990471L134.610731,237.684874L132.081650,238.004572L129.686951,236.651182L129.397144,237.876693L128.804573,238.803819L127.909901,239.368620L126.788826,239.528469L124.289873,240.594132L122.267237,242.000806L120.532098,243.812431L118.834474,246.092949L119.465002,246.484842L122.194976,248.181647L122.049174,250.931056L119.632800,253.552585L115.338860,255.801133L114.137024,257.399627L113.405287,258.113620L112.777084,258.369379L110.348336,258.998120L110.204574,259.253879L110.040031,260.149036L109.938926,260.372825L108.197047,260.532674L108.152016,260.340855L107.973514,260.319542L106.456392,260.575301L106.217893,260.895000L105.866565,262.109855L105.636461,262.525463L103.079865,264.582192L102.573037,265.818361L102.767586,267.885747L102.714702,269.771970L102.012385,271.690163L98.187922,278.371869L97.528355,280.226123L97.523558,280.302620L97.403359,282.218912L97.770163,283.955943L98.270207,285.543781L98.534825,287.152932L98.204625,288.964560L94.162564,287.461975L91.844754,289.124409L88.270765,295.965968L83.431510,301.507417L82.317013,303.617431L80.653621,311.045106L79.193481,314.911539L78.947242,315.563521L76.764845,319.740923L73.975478,323.524030L67.710950,329.363869L66.752815,330.898426L64.357023,337.185845L63.190618,338.826968L61.153775,340.116422L60.222376,340.958297L57.076950,342.961746L53.773296,346.425156L48.909787,348.993407L48.106875,349.302450L46.586955,349.014721L45.606273,348.449918L44.639374,348.311382L43.151039,349.334420L42.982219,349.696746L42.769606,351.380496L42.289010,352.264998L40.727817,353.085560L40.147053,353.692989L39.791267,355.152949L39.728457,356.485030L39.437279,357.646605L38.377973,358.563077L37.966405,358.381914L34.256230,358.051558L29.794632,356.858013L8.493575,357.167056L8.760130,358.488480L9.040963,362.580634L8.067617,371.297774L2.357874,388.295138L0.450879,397.022942L0.593439,405.665493L2.221289,413.892521L2.344565,414.514575L5.293952,422.922691L12.184832,437.607592L15.671721,454.285297L24.193060,477.857882L25.795639,486.521768L24.831811,494.492970L21.829759,500.300864L14.883510,510.680478L12.979064,517.223684L13.156700,521.315852L15.732490,532.857045L17.073661,545.165519L18.123718,549.215059L20.627127,554.074508L26.666677,563.090064L31.044394,576.965066L33.042809,580.865412L35.865424,584.275550L47.924403,594.772380L56.572133,599.807052L60.499144,602.093518L67.494413,608.775254L80.287525,626.007094L85.565639,635.523500L92.119015,652.105270L95.112911,665.074424L95.885062,671.873369L98.164306,681.602892L116.937667,715.736110L123.251321,733.958939L125.257218,743.240853L127.448588,753.034278L131.797051,763.243304L137.392163,772.631767L143.390098,779.984814L146.317510,782.606335L150.015950,785.121289L153.993715,786.773059L157.806191,786.805029L159.750303,785.728714L161.627529,784.236792L163.582070,783.107194L165.767743,783.107194L166.811634,783.927751L168.477086,786.527958L169.431765,787.348515L170.595403,787.561646L171.370479,787.263262L172.079622,786.741090L176.811738,784.854874L177.867397,784.599116L178.520328,784.311388L178.762831,783.906438L179.056360,783.767903L179.852568,784.300732L180.177426,784.950783L180.440500,786.826342L180.735695,787.550990L181.927994,788.446143L183.093292,788.574022L184.329754,788.424830L185.696937,788.542052L187.106194,789.373265L189.006688,791.909531L190.430544,792.943219L193.897455,794.062160L195.673528,795.767212L196.249195,798.388730L196.162101,802.235752L196.752563,806.647572L198.784451,809.801915L207.360476,817.368073L208.884638,818.039437L210.713177,818.050093L212.585512,817.304134L215.719382,815.417923L217.833718,815.215449L231.270665,819.382163L229.476510,823.559532L229.360117,828.653363L231.121948,832.702851L234.953851,833.747192L236.862129,832.862699L238.193538,831.765075L239.652333,831.072399L241.960630,831.445378L244.535973,833.150425L245.471806,833.459465L246.326947,833.374213L248.081098,832.905325L248.905387,832.947951L249.929261,833.578629L250.756512,834.088201L254.013091,837.903243L255.767106,839.405815L257.579983,840.130459L259.505622,840.407529L271.330754,840.141116L274.974889,841.164144L278.211894,843.657773L279.174686,845.085748L280.834879,849.774622L282.088529,852.033806L283.301055,852.960923L286.702364,853.269962L294.460597,855.188137L300.944226,855.806215L302.072652,856.498889L303.295040,858.022772L303.614970,858.811354L303.861723,860.356549L304.369581,861.123819L305.029263,861.390232L306.608365,861.209071L307.270668,861.358262L311.409521,864.501934L318.122428,867.389849L319.496589,868.391561L320.931330,866.718489L322.678742,865.727433L324.443163,865.642181L326.013243,866.686519L330.434962,871.769674L335.910512,876.639696L336.726861,877.012674L339.154838,877.620095L341.785106,878.802966L342.117403,879.026752L342.949700,878.707057L344.223265,877.545499L344.830831,877.215147L346.096585,877.204491L347.966015,877.843881L349.050699,877.961103L349.835155,877.684034L351.294030,876.618383L352.104150,876.447879L353.711097,877.087269L358.715840,881.168709L360.352276,882.948343L361.823514,886.774024L362.870250,888.702849L364.240807,889.811124L365.979293,890.418544L369.740272,890.716925L372.579709,889.949658L374.749999,888.543002L376.977110,887.509322L380.043032,887.871643L382.784998,888.852040L385.155954,889.322577L385.201327,889.331582L387.515230,888.990574L389.950895,887.466696L392.882789,886.560895L395.325564,888.297902L397.578167,890.930055L399.889381,892.667062L401.993614,893.647459L404.520429,895.373809L406.654361,897.451823L407.589201,899.497866L408.627463,900.361041L410.161663,898.538783L410.178615,897.835456L411.542779,896.844403L412.317991,895.789412L412.668950,894.446695L412.779836,892.560497L413.491712,889.448803L413.703446,887.647857L412.125762,883.044252L413.536978,880.454723L415.721398,878.461958L416.861036,877.044643L418.367751,875.563390L421.487028,876.852826L424.251990,878.938037L424.369621,879.026752L425.204699,880.177654L426.442051,880.966235L429.416467,885.164894L430.090026,885.612467L431.609165,887.541292L434.201185,888.894666L442.767118,899.380645L445.448709,900.488919L445.987062,901.852948L446.166824,903.696518L446.568802,905.646652L447.073455,906.467200L449.030638,908.811623L449.436683,909.067378L451.032741,910.847008L451.125275,911.273267L459.862831,923.890511L460.840160,926.011145L463.457199,930.346636L464.426354,933.873908L464.519645,934.992831L464.302065,936.175692L463.444801,938.189753L463.231228,939.212768L463.834345,942.729380L466.645335,950.338047L467.364759,955.815432L468.064844,958.063929L468.228102,959.342695L468.171233,960.440303L466.038502,971.693439L466.382159,973.920621L468.037248,977.192127L468.370042,979.110274L468.147124,980.090660L467.242211,982.403092L467.019429,983.724481L467.065272,984.276790L467.132630,985.088496L467.515663,986.516449L468.078590,987.869808L468.777467,989.042008L469.534502,989.446949L470.322652,989.393668L470.619323,989.491712L470.935304,989.596139L471.155579,990.800307L471.026916,992.782391L471.253923,993.389804L473.131434,995.979299L473.936323,998.057290L473.949758,1000.305781L472.691520,1002.479678L473.236728,1003.428094L473.383338,1003.886317L473.751171,1004.472417L474.327937,1004.951953L474.850829,1005.687242L475.048229,1007.019286L473.917692,1007.946389L473.341096,1008.820210L473.613014,1011.516268L472.263511,1017.963362L472.135854,1022.534938L471.909394,1023.600573L470.124701,1027.809832L469.255072,1029.014083L467.377401,1031.614149L466.854598,1034.214299L467.188068,1036.324256L468.275540,1040.554828L468.465660,1043.080383L469.097255,1044.891962L473.293080,1049.058596L473.741337,1050.070949L473.996057,1050.976739L474.407894,1051.626777L476.032736,1052.085000L476.737169,1052.649786L477.275679,1053.449013L477.473495,1054.376116L477.695387,1056.731169L478.442125,1058.734564L479.577390,1060.247766L480.982685,1061.164212L480.964019,1061.803594L480.420569,1062.144597L479.623809,1062.826604L479.071621,1063.146294L480.951500,1067.344898L481.508591,1068.133469L482.109758,1068.058874L483.294111,1066.929301L483.975791,1066.662892L484.712029,1066.769455L488.580520,1068.250689L490.732477,1069.540108L492.375710,1071.255781L492.996075,1073.376396L493.356693,1074.154311L495.003698,1075.731451L495.697260,1078.523418L496.516390,1079.610367L497.343436,1080.430906L497.704472,1081.187508L497.891838,1081.805577L498.294511,1082.732680L498.707230,1083.947506L498.867950,1085.450053L498.706994,1090.788892L498.829635,1091.684027L536.580986,1092.110281L540.364748,1091.993061L540.506492,1092.557849L541.085047,1093.218543L541.917662,1093.527578L544.140958,1093.644798L544.535251,1093.602173L545.758981,1093.058698L545.780643,1092.962791L546.376017,1092.770976L546.738783,1092.536536L547.158201,1092.589818L547.941579,1093.282482L548.404178,1094.060397L548.616094,1094.774373L549.010040,1095.349817L550.027751,1095.722790L550.194587,1093.953833L551.189023,1093.868582L552.628616,1094.518620L554.103160,1094.944875L556.268574,1093.602173L556.371169,1093.612829L561.299812,1092.174220L562.227490,1091.524181L562.929138,1089.403564L563.731021,1087.975611L564.774515,1086.600940L565.893883,1085.801713L565.261378,1083.542564L566.960991,1082.434302L571.537258,1081.507199L573.180531,1080.100559L576.129142,1076.093768L577.354966,1075.177321L581.037436,1075.944579L583.564105,1077.170060L584.138763,1077.351218L587.555799,1077.308593L588.742403,1077.979943L590.240017,1080.100559L589.308194,1082.402333L590.062112,1084.352447L591.724842,1085.354146L593.492499,1084.778702L594.796161,1084.682795L596.656988,1085.631211L599.889307,1087.911673L600.765642,1088.316615L602.749822,1088.902715L603.607078,1089.318313L604.344057,1089.989664L604.911920,1090.682328L605.512829,1091.215146L606.329574,1091.428274L607.764570,1092.216845L608.209377,1094.145648L608.341909,1096.479392L608.885319,1098.536072L608.256498,1100.081246L608.460820,1102.201864L609.215733,1104.066730L610.228537,1104.876614L613.984134,1104.162637L615.062634,1104.375765L616.435507,1105.334838L617.361579,1105.633217L618.695168,1105.473371L622.021953,1104.418390L624.881373,1103.938853L625.523479,1103.459316L626.006535,1102.979779L626.444027,1102.755996L637.016187,1102.755996L637.709536,1103.310127L638.174791,1105.729124L638.728070,1106.272599L639.226438,1106.485727L641.459127,1107.753836L643.015320,1107.945651Z "/></g></svg>