<?xml version="1.0" encoding="utf-8"?><!DOCTYPE svg  PUBLIC '-//W3C//DTD SVG 1.1//EN'  'http://www.w3.org/Graphics/SVG/1.1/DTD/svg11.dtd'><svg enable_background="new 0 0 1000 1106" height="1106px" pretty_print="False" style="stroke-linejoin: round; stroke:#000; fill: none;" version="1.1" viewBox="0 0 1000 1106" width="1000px" xmlns="http://www.w3.org/2000/svg" xmlns:xlink="http://www.w3.org/1999/xlink"><defs><style type="text/css"><![CDATA[path { fill-rule: evenodd; }]]></style></defs><metadata><views><view h="1106.60601333" padding="0" w="1000"><proj flip="auto" id="robinson" lon0="34.2308580615"/><bbox h="179.78" w="162.61" x="433.77" y="16.68"/></view></views></metadata><g class="" fill="#000" id="country"><path d="M938.307716,719.408362L943.045884,712.657082L948.752549,711.500007L955.816859,693.721287L956.852445,685.591567L955.348032,687.060551L951.168193,693.942640L939.134542,704.376447L933.893111,711.489945L928.571578,715.152339L931.484261,719.448608L933.367574,720.756606L938.307716,719.408362Z M922.728448,533.661997L921.964360,532.796701L917.105146,527.564682L911.514086,510.641112L910.776378,496.253059L906.561183,487.026595L902.500548,500.539290L895.575347,508.568428L896.543826,524.244362L894.197367,533.450704L899.549120,544.005296L905.829560,544.427882L912.009403,553.272006L915.768611,551.511230L917.779643,558.916548L920.761907,562.417976L923.329117,562.206683L928.282942,559.691289L929.259089,555.586168L922.728448,533.661997Z M958.555217,402.973539L950.828198,406.967975L941.104732,405.126711L943.290677,424.353073L937.901407,450.613764L940.254911,454.537776L943.319093,456.892184L947.081892,458.371235L951.404721,453.280080L956.847289,438.962467L957.567858,428.629238L957.532745,413.053938L959.009098,408.165300L958.555217,402.973539Z M638.425202,1104.606013L652.566765,1101.315974L661.608975,1093.699587L670.925009,1089.675078L680.550977,1089.232382L687.729578,1091.828190L692.493966,1097.492689L701.814229,1101.547384L715.707899,1104.012398L731.100185,1100.370214L747.982293,1090.640960L757.766542,1080.469016L760.441063,1069.874503L763.386222,1063.445356L766.613162,1061.181572L775.438374,1059.883670L789.862588,1059.531526L802.294485,1062.871864L817.936840,1073.395945L828.256610,1066.393306L845.966849,1054.400283L863.617842,1048.051629L880.225429,1048.011384L894.002132,1043.443573L904.937440,1034.378379L916.375964,1028.603217L928.308502,1026.158332L939.551916,1021.791746L955.387383,1012.354284L971.898474,998.620661L988.751886,984.615376L999.547759,975.630659L998.617132,973.427239L997.183061,970.056711L993.127386,964.211106L977.836240,952.580256L970.878179,948.666413L966.111097,943.927541L957.035099,944.229380L953.764751,937.297141L946.600225,930.052997L934.111182,927.839507L939.676796,918.987198L939.092677,911.008541L935.175091,899.437966L932.766650,884.355953L926.794261,866.949733L928.831192,844.593262L912.276501,818.886284L914.986842,815.072994L915.856222,810.525216L906.156311,795.996463L900.210848,767.462109L900.894333,757.893629L903.978227,746.755549L913.700475,722.919832L913.028979,702.444633L904.295200,695.632978L900.256302,699.858821L901.009078,672.058797L907.272583,653.877583L914.855970,640.032887L922.829662,631.490627L925.484734,621.177529L919.101694,606.195862L902.433434,599.635722L897.356012,586.273960L888.273639,572.952441L883.111376,567.116730L875.395709,562.558838L865.885193,549.800763L864.428871,536.781085L860.093184,522.896111L861.778405,503.064746L870.582799,477.136068L876.882330,466.068337L884.669991,436.497383L887.483605,429.685703L890.452903,419.382661L891.007422,410.630380L898.498696,389.611802L900.450053,380.948811L897.599126,379.389271L890.897031,373.855422L877.122267,362.465757L863.343543,351.076095L849.560802,339.686436L835.773837,328.306842L821.982893,316.917190L808.187764,305.527540L794.388397,294.137893L780.584740,282.748249L772.486695,276.067399L768.915790,272.123283L766.177261,264.255176L764.826082,262.303241L761.136904,259.828108L756.774339,259.284786L755.532342,257.795682L755.625251,254.002490L757.213223,248.539087L762.477345,238.085174L763.112235,231.947652L762.184125,224.964963L760.708683,213.796687L759.343636,211.261187L750.164017,205.405390L730.909569,193.150475L711.649382,180.885502L692.383209,168.630592L673.111227,156.365623L653.842189,144.100656L634.549326,131.845753L615.268253,119.590852L595.981263,107.325891L576.679362,95.060932L557.371351,82.806035L538.066249,70.541079L518.746200,58.276125L499.420024,46.021233L480.087836,33.756281L460.749523,21.501392L441.414073,9.236442L434.146197,4.628283L427.594469,0.734488L420.662391,0.734488L410.726411,0.734488L394.551562,0.734488L378.367824,0.734488L362.192975,0.734488L346.018125,0.734488L329.834388,0.734488L313.659538,0.734488L297.484688,0.734488L281.300951,0.734488L265.126101,0.734488L248.951251,0.734488L232.767514,0.734488L216.592664,0.734488L200.417814,0.734488L184.234077,0.734488L168.059227,0.734488L151.875490,0.734488L142.321664,0.734488L140.403148,0.422582L139.089364,0.000000L132.970189,1.297931L126.652291,5.815538L119.908555,7.707097L112.739436,6.962547L111.831057,7.455560L108.829831,9.075458L108.188104,14.035770L111.603228,21.974282L122.797004,38.384565L129.953893,41.403011L134.605079,47.781993L139.133518,58.537724L140.416850,71.989934L138.425343,88.168810L139.475496,100.202354L143.562548,108.090564L144.574373,118.323103L142.518145,130.899972L140.070714,138.425972L137.226024,140.921223L134.020324,141.846881L129.691169,141.001715L124.387608,142.068234L118.611918,144.432686L114.993205,144.774777L113.159580,147.471258L104.660707,166.759153L103.019546,169.656865L103.928458,171.437751L107.442054,175.090076L105.310929,181.157162L104.461666,182.787126L102.839453,188.451753L103.654722,193.653551L105.645022,195.575298L111.032063,198.090675L119.134592,199.911807L128.661622,204.238255L135.094452,205.023052L136.575253,208.142120L136.220224,213.726257L137.772472,218.575904L137.714399,227.248926L135.711127,234.875552L125.816144,238.457450L120.705075,242.371379L119.308488,244.333374L120.528542,246.627399L121.162992,249.716284L111.803175,257.322790L102.160637,267.253508L99.815873,273.954480L97.830147,281.872897L94.986730,286.923781L87.642762,294.208324L80.073420,308.878029L76.333662,318.406296L57.894143,341.276159L41.601603,352.685941L36.850211,356.579756L8.263024,355.905633L8.294332,360.785480L4.753658,378.523978L0.736566,395.709100L0.452241,402.218923L2.101799,410.902042L8.879826,430.792475L13.814128,445.261009L16.176571,453.954205L19.556237,464.136515L24.050769,479.691707L25.121562,487.097026L24.079546,492.590646L14.220123,512.110102L13.158674,518.247663L15.322082,533.400396L18.252303,548.009802L22.654848,556.310601L33.125540,579.230862L41.042781,586.958147L55.728358,598.418272L68.662050,609.948826L73.612393,615.925394L78.124946,622.606270L86.970601,639.690795L92.307895,653.595860L95.022163,666.162732L101.890535,683.317660L108.259218,699.265190L116.525490,718.734240L122.362412,732.488332L124.939376,741.684551L127.122052,749.120002L131.779564,761.455398L137.168803,770.540924L143.941490,778.499558L149.746420,783.308945L153.614552,784.777921L178.493615,784.274847L187.342717,789.104355L194.986986,795.221730L196.734240,804.719754L201.739711,810.676138L207.159760,815.364776L209.538650,815.938279L213.617777,814.791273L220.269699,814.690658L226.399133,816.723072L229.304247,818.805792L229.429531,826.764397L231.231347,830.326148L239.613045,831.704565L248.161352,832.318313L256.306244,837.701181L265.209607,838.657018L275.484303,840.870533L280.244432,846.675977L291.108034,852.632340L304.426860,857.964892L313.957324,864.001740L319.029225,866.738443L320.622761,865.943592L323.961800,865.460644L337.903612,875.854075L346.486651,876.326960L356.009560,878.248687L363.955435,887.404554L368.174911,888.611921L373.620649,887.354247L389.059966,886.388354L395.241302,887.706396L403.086853,893.069114L406.210784,893.803595L411.196764,894.014884L412.116288,892.576106L412.705812,889.396709L411.973257,883.007727L413.188245,879.546608L416.312534,875.803768L424.634643,880.170414L445.206161,900.132201L445.771302,902.707913L458.701425,922.518733L462.859850,930.898147L462.747023,935.325125L466.440495,952.630563L467.139397,960.739963L466.048214,966.907530L466.085340,971.847619L467.524165,978.910635L466.904878,981.888772L471.417882,992.241818L473.470246,1000.944813L473.713616,1009.436519L472.148539,1017.716936L467.583817,1029.810568L466.721321,1034.680217L467.523625,1039.107170L470.117341,1043.916452L474.528843,1049.098000L477.785553,1055.356103L479.895513,1062.700823L481.759827,1066.021039L484.209865,1065.940549L488.674071,1067.077472L492.170151,1071.363570L496.152609,1078.567436L497.317890,1086.837799L497.829316,1090.379367L518.026161,1090.037284L539.316919,1090.902553L542.291651,1091.556536L547.040299,1093.126095L552.472195,1092.874563L558.561704,1090.781818L565.390170,1085.640508L572.947089,1077.480819L584.330368,1077.661922L599.528624,1086.173755L607.733632,1093.588913L608.965226,1099.917457L619.192555,1103.589824L638.425202,1104.606013Z "/></g></svg>