<?xml version="1.0" encoding="utf-8"?><!DOCTYPE svg  PUBLIC '-//W3C//DTD SVG 1.1//EN'  'http://www.w3.org/Graphics/SVG/1.1/DTD/svg11.dtd'><svg enable_background="new 0 0 1000 559" height="559px" pretty_print="False" style="stroke-linejoin: round; stroke:#000; fill: none;" version="1.1" viewBox="0 0 1000 559" width="1000px" xmlns="http://www.w3.org/2000/svg" xmlns:xlink="http://www.w3.org/1999/xlink"><defs><style type="text/css"><![CDATA[path { fill-rule: evenodd; }]]></style></defs><metadata><views><view h="559.963544305" padding="0" w="1000"><proj flip="auto" id="robinson" lon0="33.9056184438"/><bbox h="130.14" w="232.83" x="287.4" y="-873.46"/></view></views></metadata><g class="" fill="#000" id="country"><path d="M458.931924,471.937505L464.099926,468.288167L474.950408,458.130133L472.299304,459.464409L464.455215,466.592800L463.591186,467.305164L462.181801,468.860843L461.366907,469.501870L460.626477,469.706992L459.764887,469.809552L459.073431,470.065949L458.865183,470.724013L458.512974,471.407684L457.483481,472.193863L454.828500,473.543936L458.931924,471.937505Z M614.496068,440.706013L613.974758,440.269326L613.716124,440.292160L613.368555,440.706013L637.703654,444.062148L638.539480,443.146123L637.694711,442.255736L635.137712,442.438383L634.483384,441.924683L633.763409,441.176937L632.432571,441.285391L630.246533,442.192950L628.253416,441.028526L626.568031,440.965736L622.787653,441.664973L614.496068,440.706013Z M585.929585,433.971906L580.985476,432.115969L573.363983,430.562557L554.565184,426.727062L552.115078,425.578846L550.554664,424.122064L549.330458,422.050980L547.934632,419.056850L546.888911,418.713985L547.127789,420.008272L547.912833,421.799579L548.540628,422.936571L550.403957,425.098975L552.388991,426.478573L561.708966,429.425978L582.912865,433.220987L585.447034,434.206027L586.748641,434.437291L585.929585,433.971906Z M707.389273,557.963544L708.515126,557.827755L714.257984,555.281512L715.540990,555.114579L716.295460,554.899543L718.039177,553.728120L718.574962,553.176334L719.145813,552.024599L719.500153,550.969006L720.076993,550.190710L722.698819,549.698241L723.359079,549.171792L724.251308,547.473447L724.354166,547.198864L724.299254,546.980892L724.283383,546.774240L724.520981,546.527954L724.761385,546.465673L725.385756,546.533615L726.191493,546.519461L727.497413,546.663836L727.962369,546.527954L728.372959,545.622036L729.753849,540.553521L731.203685,537.599346L731.651903,536.978972L731.876927,536.494550L733.667094,533.698150L733.907258,533.664148L733.983752,533.760488L734.013265,533.936165L734.096666,534.128841L735.284540,532.805554L737.056503,532.088598L741.462498,531.232731L743.463156,530.390976L747.072941,528.043958L749.014662,527.380588L753.076918,527.984426L753.937224,527.644239L754.684317,527.156621L756.614783,527.547851L757.611026,527.380588L758.017247,527.043218L758.327137,526.657641L758.696013,526.291899L759.323617,526.002699L759.902055,525.914803L761.827117,526.002699L763.009564,526.357109L763.843198,527.193476L764.531285,528.154516L765.260491,528.894380L767.782511,529.243035L768.982844,527.071569L769.676312,524.029142L770.687535,521.763101L771.616042,521.340472L773.990562,520.838402L774.883736,520.049794L775.789910,517.748888L776.667776,517.170038L778.217582,517.910620L778.547350,517.592829L779.074083,517.235302L779.257772,516.957217L782.303003,518.818544L781.563847,516.710340L781.495594,515.805075L782.034154,515.007583L782.861932,514.733199L784.742010,514.838212L785.443943,514.531683L785.369794,514.103095L783.615736,513.467276L783.227341,513.149352L782.911862,512.422632L782.993604,511.877560L783.187642,511.312586L783.192237,510.509078L783.586466,509.924155L786.226584,507.819871L788.158343,506.947936L790.425407,506.516203L792.881096,506.504842L795.415442,506.865567L799.773924,508.262912L803.812908,510.290445L804.596872,510.855474L806.607266,512.661093L807.073074,513.365087L807.845870,514.922437L809.077483,515.396403L812.886030,514.770095L817.286363,515.007583L817.998977,514.188246L818.678204,512.573090L819.761400,511.465898L821.659996,512.150100L821.568962,511.633404L825.112678,513.373603L830.327635,514.344355L831.405760,514.103095L831.564770,513.745451L831.677908,512.553218L831.828813,512.150100L832.335423,511.820780L832.919989,511.670312L837.967885,511.465898L841.847697,510.162671L842.490124,509.532295L842.413127,508.475906L841.482794,507.436456L839.651557,505.911180L839.051416,504.436830L838.814873,502.925347L838.569669,498.818884L838.758735,497.309494L839.141624,495.876671L839.720357,494.946948L840.199055,494.779192L841.480498,494.705265L841.919235,494.469263L842.191759,493.872131L841.973591,493.556491L841.557595,493.272124L841.265856,492.777309L841.294426,491.383755L841.911659,490.647097L842.973580,490.433771L844.331625,490.610121L846.160190,491.400820L846.831211,491.560092L847.513840,491.525962L849.284290,491.087960L849.575411,490.339906L848.869787,488.698578L847.443728,486.311576L846.452938,485.449412L845.493034,485.016885L844.578109,485.170547L843.713933,486.072567L842.869094,486.308731L841.763492,485.551851L840.035775,483.924118L838.864840,483.730598L835.648973,484.399369L834.446856,484.160323L832.460266,483.121558L831.340337,482.928025L830.768111,483.138634L830.346784,483.548458L829.876312,483.889968L829.152524,483.924118L829.414854,482.671874L828.840158,481.803769L827.893941,481.573214L827.091698,482.230713L826.290036,482.632028L819.756531,482.592182L818.709442,482.939409L817.672597,483.998111L816.259033,484.834763L816.111552,485.150628L815.718349,487.267570L814.379758,489.162269L812.384723,489.537760L810.032245,488.880643L805.350945,486.644476L804.259267,485.953060L803.706962,485.096562L803.787394,483.844434L804.041885,482.768643L803.786444,482.077015L802.382863,481.974549L801.552284,482.452719L800.986734,483.494385L800.702006,484.794924L800.745769,486.072567L800.615674,486.411163L799.909814,487.472417L799.649815,487.702865L798.858669,487.882099L798.691284,488.351510L798.736101,488.977363L798.623475,489.654387L797.321174,491.087960L796.252833,491.798994L786.613605,494.238944L784.477165,494.076865L775.151866,488.943227L755.219072,468.034587L748.892231,459.666821L744.689939,452.723436L743.983077,451.853516L743.177672,451.026337L742.502086,450.096424L739.013096,441.579354L738.278756,440.466265L737.836746,439.447300L736.775400,434.959764L736.246824,433.812017L736.040182,433.252394L735.969622,432.521435L736.157669,431.850412L736.941295,430.659649L737.098696,430.345527L739.374354,429.357438L739.441472,428.680598L739.368322,427.883783L739.654197,427.249737L740.241184,426.975548L740.427920,427.258305L740.563170,427.775254L740.978322,428.209367L741.718681,428.423564L742.252106,428.397861L747.404203,427.249737L749.669803,425.895897L751.072900,424.210616L751.228540,424.022085L753.809181,419.579708L755.413233,417.873945L755.727126,417.093881L755.777268,416.013750L755.505020,415.427944L755.097322,414.907850L754.764069,413.999088L754.025188,412.975976L752.781871,411.692740L752.125589,410.300826L753.109592,408.945995L753.506909,410.220796L754.306132,411.484101L755.203929,412.444399L756.177424,412.944539L757.007794,413.544695L757.463004,413.784753L758.074693,413.921928L758.998872,413.981941L759.457723,414.216280L758.790232,416.856714L758.779716,418.713985L759.563280,420.279691L761.107529,421.308198L762.208945,421.222491L763.059482,420.491110L763.869144,419.579708L763.959397,421.353909L763.353794,422.513777L761.612866,424.330590L760.409390,426.861302L760.030255,428.060856L758.904662,429.357438L757.828417,432.075993L755.147622,433.400867L749.512201,434.959764L749.893992,435.650663L750.101450,435.919022L748.320156,437.003839L746.832563,438.779376L746.765302,439.455863L747.828429,439.749856L749.858609,438.876427L751.045449,437.997247L752.914715,437.606170L754.130422,436.604177L756.311678,435.919022L757.398561,434.708522L758.499350,432.998275L760.667312,427.918055L761.414876,427.012678L761.645399,426.727062L765.702157,419.056850L766.417898,418.345400L768.183582,417.153887L768.927568,416.422377L770.268706,414.336306L771.002817,413.473248L771.962770,412.824506L778.115848,409.926397L779.697461,408.465785L783.431691,403.889067L784.867780,402.705457L787.746534,401.152968L791.573645,399.088573L792.927355,399.120026L800.391839,397.867597L804.566562,398.390878L806.591236,397.973398L807.585575,397.944803L808.821461,398.390878L809.248011,398.671102L809.600299,398.997073L810.246227,399.832000L810.393205,399.934935L811.103340,400.312359L811.173422,400.649749L811.190765,401.101503L811.096643,401.393137L811.496578,402.033580L811.527364,401.899202L811.511586,401.456038L812.037038,401.267334L812.538837,400.998572L812.782975,401.233024L812.952589,402.273742L813.374556,402.273742L813.345600,400.235159L814.133106,398.631070L817.316393,395.173846L818.754909,394.084271L820.435120,393.317830L823.175317,392.837365L825.287870,391.630452L828.999514,391.630452L829.397075,391.398789L829.761703,390.886836L830.291741,390.377735L831.202353,390.146063L832.840259,390.583664L833.839371,390.635146L834.698169,390.146063L835.583628,390.652307L837.529462,391.218605L838.461913,391.630452L840.883962,393.715352L841.404105,394.027075L841.619289,395.273937L841.406078,397.784672L840.714565,399.740502L839.484530,399.308744L839.067259,399.308744L839.163050,399.832000L840.659623,400.166536L841.826206,399.025667L842.524321,397.132701L842.587226,395.228181L842.838345,393.526601L843.646311,391.939334L844.107189,390.360574L843.307424,388.704517L845.093985,388.455672L847.592654,385.961417L849.447771,385.343548L850.016099,385.048913L851.621456,383.727319L852.188540,383.426950L853.158104,383.272474L859.259376,381.069697L861.520296,379.347445L862.537387,379.107126L864.488968,379.410386L866.602497,380.285823L868.093542,381.650440L868.178192,383.426950L869.337356,382.940635L870.052840,381.796340L871.064205,379.324558L875.619445,372.148774L878.581661,368.938232L880.394677,368.320139L887.891008,369.461889L890.291015,369.384628L895.999112,367.538929L901.157305,368.260046L901.748380,367.930966L903.237756,368.211400L905.544207,368.938232L906.011122,368.749371L907.321822,367.999644L907.590575,367.779302L907.846486,367.659116L909.934310,368.938232L911.473186,369.427551L911.710289,370.569279L910.888735,372.824052L912.657695,372.028597L914.995205,368.383093L915.945551,367.427327L915.952495,367.415880L915.953149,367.415216L914.725513,365.482970L914.047709,363.256899L914.008307,361.152517L914.765532,359.540573L915.703520,358.928135L916.871134,358.393838L917.906784,357.717784L918.458677,356.670982L918.343262,355.264322L917.683052,354.490106L916.713199,354.153884L915.685545,354.088457L913.645441,354.366522L912.535908,354.237485L911.705060,353.508698L911.593332,352.389154L912.071558,351.142378L913.375152,349.188588L914.334915,347.020305L914.265371,345.017393L913.107205,340.006410L913.417516,337.550882L914.004608,335.093534L915.049213,333.086946L916.731108,331.976418L928.182681,330.602350L929.500288,330.062539L930.398998,329.306442L932.075958,327.303523L932.993448,326.616501L933.846664,326.483822L935.945169,327.149034L937.128870,327.049070L937.502676,325.925846L937.374317,322.968787L937.726151,319.755534L938.590689,317.005805L940.136512,315.013981L942.543447,314.099865L951.490021,314.397892L951.654081,314.403357L955.015052,316.149824L956.215191,316.398803L957.305357,316.329743L959.453433,315.800891L967.499050,315.170272L968.672442,315.342919L970.761806,316.416976L971.854045,316.816798L973.094539,316.776815L975.389575,316.206162L976.740512,316.569635L978.435721,316.805893L981.712366,316.231605L983.443930,316.333377L989.301816,317.596454L991.087684,317.282046L992.255279,316.089851L992.820580,314.327030L992.820978,312.318913L992.683825,311.873681L992.232867,310.910536L992.101129,310.407161L992.131571,309.792940L992.506931,308.718974L992.588807,308.159283L992.484706,307.058087L992.243286,306.358491L991.137714,304.823044L990.414058,304.052610L989.876062,303.652860L989.686149,303.289454L990.012835,302.629877L990.537029,302.286465L993.495811,301.795879L993.888187,301.879460L994.018116,301.781343L993.959137,301.129053L992.655309,298.941486L992.440912,297.309958L992.818320,295.920114L994.727707,291.474719L995.569346,290.441099L997.883992,288.726329L998.645965,287.785417L999.105487,286.499420L998.965217,285.129918L997.918136,283.945721L996.671184,283.713245L993.946653,284.608648L992.835380,284.724889L988.566956,282.674388L991.813026,279.990213L992.564255,278.947838L993.607428,277.898232L992.946373,277.295360L992.320709,276.336599L991.353413,274.539001L988.931268,271.312674L988.267827,270.918713L987.614526,270.352289L987.242878,269.259414L987.484742,269.204953L988.009501,269.237630L988.502151,269.088770L988.608868,268.496969L988.507379,268.286392L988.314412,267.995944L988.104086,267.594768L987.933550,267.081054L987.125669,265.251367L985.772106,264.031646L984.165954,263.309278L977.394780,262.612340L976.367604,262.982586L974.244164,263.087853L974.445228,261.345559L975.864244,251.874034L976.214478,251.297159L977.500139,250.825512L977.821510,250.194245L978.027323,249.396119L978.319529,248.627044L979.214104,247.582306L980.319777,247.078094L981.584005,247.027311L988.169271,249.058738L990.364978,248.848332L992.480643,247.201425L993.292597,246.018925L993.779750,244.633381L993.547015,243.266065L992.218004,242.116431L990.772831,241.960492L989.903098,242.812731L989.149638,243.889869L988.044577,244.419392L987.286971,244.176390L985.989683,243.037583L985.321641,242.620521L984.650723,242.515350L982.779035,242.758332L978.181342,241.916974L976.769360,241.427407L975.991147,240.731155L975.347276,239.773850L974.334219,238.508393L973.149858,237.681722L971.895219,237.065367L970.957736,236.184378L970.609918,232.664465L971.442283,232.099022L974.284535,232.251255L978.582553,230.913825L980.276404,230.924698L981.954997,231.160282L982.825715,231.102292L983.384258,230.736234L983.490195,230.022261L983.212799,228.021844L983.271905,227.036216L984.087743,225.354982L985.352484,224.141264L988.212125,222.271950L989.068812,221.272171L990.388045,218.856295L991.302261,218.128344L992.489065,217.523554L992.769092,216.857226L992.279847,214.326165L992.566849,211.947565L992.429643,210.705919L991.551354,209.583821L988.420932,207.072080L985.628914,204.245990L984.011797,202.169301L983.200277,199.959089L983.777082,197.669673L984.588252,196.906621L986.501701,195.879643L987.143176,194.917827L987.083511,193.468004L986.276900,192.863992L986.079322,192.716040L980.410871,191.505036L979.320059,191.479733L978.075824,191.877363L975.399155,194.646651L974.146834,195.326409L972.606543,195.865179L970.971214,196.150844L969.457294,196.100219L968.231898,195.666301L964.872968,193.399314L962.441877,192.513596L960.392047,192.068952L958.506408,191.114647L956.573725,188.700284L955.053309,185.711887L954.094720,184.133061L953.219168,183.385267L949.931885,183.096277L948.787461,182.713376L946.543625,181.600864L944.546104,181.969282L942.593227,182.836192L940.490698,183.222709L938.321153,182.821743L936.530040,181.951222L934.958599,180.510124L930.499875,173.985854L930.388582,173.917491L928.784104,172.931918L926.790295,173.574374L926.030195,174.465933L924.749907,176.599456L923.847254,177.335992L922.965548,177.559850L917.787097,177.830653L916.048196,176.635560L914.345668,174.917152L912.155435,173.476921L906.103469,172.105440L902.339483,170.124307L901.924699,169.810389L901.497977,169.200620L901.105698,168.085803L900.344324,166.711379L900.324354,166.538235L900.226211,166.718593L898.961722,167.093747L898.529517,167.364299L898.049513,167.544671L895.243566,167.133428L891.363745,167.725045L889.228094,167.115391L887.786011,166.390344L886.744919,166.076532L884.282358,165.856509L883.082110,165.463363L882.256014,164.659083L879.746309,160.652306L878.802685,159.884433L877.743667,159.751052L876.284595,159.985371L872.704815,159.725818L871.866964,159.909668L871.766373,161.986298L872.849208,165.218106L873.206101,168.255363L870.922185,169.749050L870.313079,169.644413L869.201699,169.103204L868.564143,168.998574L867.908309,169.186188L865.768310,170.449681L864.662917,171.102200L864.322757,170.676391L864.067797,169.597507L862.956833,168.323910L862.872562,168.194033L860.544392,165.629276L858.483876,163.875804L856.314546,162.498307L853.931684,161.376968L849.214470,159.740238L847.008333,158.615581L840.334853,151.963755L838.088567,150.371671L837.612398,149.892650L837.363064,149.139947L837.365444,148.394498L837.568952,146.741728L836.823045,143.825688L834.799313,142.317574L829.547385,140.403037L828.265848,138.557195L827.044597,136.297992L825.839442,134.492404L824.635806,134.010484L819.246096,134.629071L817.734581,135.164969L815.077997,137.823263L813.661591,138.845025L806.066080,140.730500L802.028925,140.255502L798.441763,140.467809L795.066796,141.540203L786.843753,145.931638L786.248248,146.464491L785.861748,147.101787L785.289267,148.606964L784.934629,149.179562L784.002962,149.712573L782.790952,149.849432L781.470027,149.676558L780.211752,149.309211L779.282214,148.769017L778.990572,148.149627L778.974940,147.461858L778.777286,145.913637L778.871784,145.625620L778.699907,145.452814L777.764735,144.995610L777.236907,144.833614L775.416738,144.524026L773.723244,143.638512L772.459586,143.408146L771.218665,142.871845L770.649216,142.727875L769.981428,142.742272L769.628749,142.907837L768.730857,143.771695L767.670363,144.480829L766.462371,144.941611L765.160762,144.999210L763.794536,144.488029L756.858635,137.362781L755.159451,136.718859L754.480054,135.420338L752.839992,134.758547L743.153642,134.129164L738.060431,134.611089L737.125448,134.902412L736.455386,135.380773L735.613221,136.610943L735.106391,137.139742L734.645519,137.305222L733.596826,137.344794L733.164319,137.510277L732.441346,138.406087L732.022174,139.316363L731.430274,140.046798L731.187738,140.114807L730.198308,140.392242L729.026021,140.327470L727.841033,140.057593L726.639157,139.589821L725.459656,138.978149L724.026614,137.866434L723.465843,136.797998L723.131666,135.557017L722.381387,133.913384L721.385665,132.744648L720.259789,132.086614L719.051374,131.752219L717.817284,131.572441L715.838733,130.936049L714.333815,129.235591L710.027566,120.798303L709.763765,119.911110L710.443593,119.092225L714.373452,117.551594L712.819950,116.233787L712.420386,114.707913L712.251878,112.981235L711.386304,111.032314L710.750112,110.354041L710.042888,109.883939L708.533128,109.227265L707.638309,108.613687L707.402093,107.896094L707.357008,107.060157L707.049783,106.077203L706.400690,105.223467L705.029662,103.993198L704.459724,103.110930L704.186545,102.045847L704.154412,101.192418L703.920819,100.378495L703.043539,99.460661L702.314872,99.105737L700.976589,98.869128L700.400803,98.403093L700.119274,97.714832L700.022508,97.239537L699.733824,95.822331L699.350527,95.051801L702.228105,94.546506L702.885058,93.969565L703.097324,92.767402L702.466227,92.004247L701.389332,91.549245L700.250460,91.260847L698.346884,91.158746L694.777505,91.843023L692.898868,91.724794L691.063816,90.487048L689.514903,88.210736L686.871684,81.846300L686.237278,80.842280L685.407486,80.153299L684.284935,79.827613L683.186237,79.977929L682.175589,80.366252L681.154212,80.536260L680.004413,80.020876L678.911921,79.620038L678.068182,79.691615L675.778152,80.926393L671.599037,82.431571L667.943274,83.124271L663.902669,82.920215L662.892439,82.644567L661.965121,82.023489L661.230524,80.985451L660.760499,79.915297L660.235938,78.966917L659.338751,78.326358L657.652578,78.140281L654.217625,78.634108L652.307568,78.120600L648.181740,77.002412L646.097767,76.744797L644.274610,77.140167L642.501299,78.490968L641.602056,78.850612L640.254499,78.634108L636.057480,77.294025L638.876201,75.551615L640.666991,73.671757L641.574498,71.361262L640.636662,69.024416L639.652843,69.517850L638.784889,69.521425L637.823310,69.367672L636.845061,69.074474L635.953846,68.652568L634.712020,67.832040L634.041023,67.242155L633.713066,66.675536L633.906520,66.262655L635.052502,66.044602L635.425666,65.656765L635.424734,64.950827L635.161623,64.343220L634.831211,63.737431L634.627219,63.031611L634.650921,62.365143L634.883526,61.141300L634.855348,60.414203L634.426308,58.901201L633.735244,57.709873L632.827952,56.731184L630.117580,54.659779L629.608208,54.116989L629.254319,53.479601L628.730910,52.058547L628.385340,51.546226L627.538584,51.144595L625.526843,50.716205L624.780951,50.032598L624.976458,48.408524L626.895051,47.432404L635.806282,45.678449L639.010326,45.719484L640.025099,45.508955L641.691216,43.585824L641.030001,40.739173L638.997534,37.980580L638.072301,37.349459L636.566859,36.322528L635.380126,35.714634L633.245910,34.101461L632.170205,33.595273L631.530032,33.597056L630.582717,33.992736L629.902436,33.798459L629.890295,33.629137L629.499032,32.677418L629.291873,32.351285L628.922229,32.082188L628.123709,31.693700L627.748333,31.451347L625.315226,29.386205L624.082635,28.741256L621.367315,28.727003L621.266475,28.123065L621.480185,27.107662L621.058045,25.921355L619.632203,24.466244L618.730417,23.267736L618.151099,21.944711L617.551325,19.672941L617.123287,18.487378L617.046670,18.113576L617.665339,16.563315L617.489591,15.789150L617.216386,15.141381L616.771303,14.475854L616.084307,13.669796L614.942073,12.557776L613.861237,11.771417L610.002008,9.926702L609.122524,9.163639L607.292211,6.824949L606.045257,5.717120L603.540972,4.595170L602.310941,3.786221L601.212160,2.579123L600.577634,1.642327L599.838403,0.986436L598.401078,0.611403L595.930353,0.547418L593.531448,0.902897L589.129543,2.625342L586.003839,5.512636L584.851211,5.601542L583.709098,4.527607L583.527359,1.923181L582.268348,0.769591L581.515436,1.114412L580.886669,1.629885L580.187932,2.049389L579.225215,2.106272L578.312460,1.788086L578.125170,1.692668L576.651766,0.942000L575.687595,0.783810L572.189429,0.801584L566.729037,0.000000L566.013042,0.113747L565.234382,0.611403L564.110033,1.965842L563.518684,2.492017L562.543476,2.794223L562.060754,3.039548L561.621257,4.003121L561.272514,4.358702L560.793659,4.456489L560.020762,4.148908L559.524670,4.118684L558.617239,4.495604L553.799836,8.397067L552.910137,8.797244L551.907322,8.713650L550.089962,7.689233L549.106401,7.335331L547.519898,7.358450L544.440795,8.020025L542.808983,8.041366L531.260584,3.627994L528.790578,4.252027L523.848474,2.899108L521.712655,3.258212L521.414103,5.621101L521.827489,6.359043L523.127397,7.790603L523.443998,8.377503L523.287918,9.154746L522.763776,9.569177L522.156367,9.873339L521.719980,10.307362L521.448565,11.529471L521.601074,15.677033L520.541161,18.330736L518.423312,19.833161L511.481002,22.598192L510.489560,22.651612L507.090120,21.973199L505.143584,22.122767L502.466469,23.262394L501.578263,23.401293L500.488289,22.911591L500.052475,21.852122L499.794497,20.579104L499.283551,19.450416L497.837929,18.522979L495.998904,18.234616L492.707345,18.474918L486.546572,18.731245L476.770853,17.289474L471.794072,17.309053L467.785478,18.686744L466.902342,19.806458L466.325454,21.184438L465.649931,22.338220L464.457207,22.770916L463.075851,22.377393L460.283415,20.710851L458.848967,20.121563L456.721140,19.918613L449.348008,20.258646L448.059450,20.600468L447.347223,21.326874L447.883397,22.491353L447.678170,22.836802L447.583837,23.175137L447.524312,23.504579L447.406004,23.850057L449.026151,24.021019L449.718459,24.938200L449.401612,25.832298L448.002412,25.916012L447.558277,25.518822L447.234340,25.406614L446.935480,25.520603L446.542796,25.794894L446.194949,26.220593L446.172357,26.644525L446.271641,26.999002L446.295995,27.221668L445.850156,27.816654L445.343491,28.326156L444.749585,28.759072L444.043991,29.134991L442.591265,29.601790L442.608832,29.849450L442.833673,30.277076L443.178613,30.563951L443.264968,31.032588L442.677096,31.836263L442.271697,32.258615L441.833881,32.443956L440.194271,32.326336L439.777677,32.443956L439.650001,32.880588L439.734747,33.525763L439.696281,34.112155L438.663713,34.579151L438.398618,35.033687L438.223718,35.490024L437.964059,35.698590L437.856057,35.937465L436.893231,37.156873L436.635655,37.654300L436.437029,37.859339L436.502106,38.123220L437.021448,38.781165L437.267771,39.852857L436.444161,40.639303L435.344301,41.268854L434.784238,41.868119L435.947950,42.297967L436.393781,42.337208L436.487691,42.852692L435.975943,43.362847L435.957071,44.170936L436.033754,45.025467L435.849317,45.682017L435.281559,45.901470L433.601432,45.944290L432.950421,46.108438L433.429142,47.041622L433.057467,48.499537L433.556499,49.452545L433.237358,49.741676L432.886991,50.262842L432.626567,50.441329L432.832284,50.707280L433.159129,51.378432L432.507415,51.619413L431.147569,52.756556L431.240009,53.268931L432.428456,53.988437L432.936453,54.213404L433.013778,54.641923L432.602840,54.736557L432.396007,54.854404L432.238086,54.993679L431.986104,55.157954L432.063344,55.586508L432.811964,56.240085L434.700417,56.654392L435.667019,57.000851L435.391816,57.770598L435.180005,58.095657L434.770333,58.417153L435.506288,58.811891L436.152778,59.272734L436.481826,59.785398L436.270464,60.348105L436.687752,61.178818L437.238192,61.700500L437.857140,62.007803L438.465503,62.193618L438.558833,62.711773L437.812091,62.602780L437.226648,62.763590L436.902919,63.251394L436.950108,64.125203L437.308946,64.945466L437.758847,65.111670L438.333109,65.138477L439.068220,65.542382L439.392944,65.999920L440.278528,67.946446L440.621687,68.318272L441.078766,68.727651L441.200046,69.088776L440.525437,69.321189L441.197693,71.275432L439.904375,72.543276L438.408781,73.503640L438.443338,74.517744L437.710319,75.880756L437.585636,76.020286L437.809581,77.671522L437.784974,77.737649L437.637795,78.133124L437.053759,78.245843L436.522145,77.591012L435.813687,77.052504L435.054328,76.687550L434.292764,76.531911L433.543746,76.605258L432.650664,76.392375L431.174330,74.930924L430.265694,74.328152L429.441643,74.168968L427.817893,74.177911L426.936607,73.918571L426.115282,73.392756L424.141607,71.683129L423.604935,70.948211L423.744877,70.878477L423.945164,69.433821L423.944116,68.888547L423.822268,68.171685L423.665740,67.624683L423.428913,67.165293L423.017869,66.693410L422.226097,66.173288L419.281686,65.104521L418.397141,64.457590L415.962151,62.238286L414.272300,61.339608L412.647817,60.998378L405.046003,61.160952L403.846289,61.452162L400.781547,62.835062L400.104855,62.865437L399.148844,62.397304L398.580797,62.356209L397.958476,62.743935L397.274346,64.080529L396.806197,64.561240L395.860941,64.764967L390.795681,64.105547L389.975515,63.347885L389.312429,62.295461L388.192641,61.048401L387.160954,60.530321L385.942875,60.396338L384.713355,60.551758L383.700262,60.914412L382.713849,61.721939L382.100010,62.631368L381.417248,63.405065L380.226256,63.817844L378.827991,63.946505L378.141562,64.246720L377.741901,65.063417L377.233367,66.750607L376.632030,67.871367L375.548235,67.882092L373.031318,67.104519L371.828611,67.422692L370.559331,68.424900L369.949390,68.906425L368.877910,69.219284L367.528993,68.656143L366.637859,67.408392L365.915893,65.898044L365.071495,64.561240L363.777071,63.524787L362.777678,62.990514L362.276462,62.206125L362.481046,60.414203L361.955308,58.604697L361.123278,57.470551L358.928164,55.290090L357.349786,52.781549L356.524509,51.930019L355.100750,51.280255L352.837396,50.853645L351.730152,50.896484L350.713035,51.201715L349.770599,52.040696L348.855953,54.225902L347.967282,55.120456L346.610036,55.549009L343.252164,55.575794L341.704796,55.849006L340.100849,56.584745L338.538543,57.667010L337.262109,59.142339L336.514370,61.048401L336.559305,62.213272L337.123205,64.848961L337.030529,65.869448L336.198039,66.750607L335.502027,66.033878L334.895667,64.745309L334.362261,63.889322L333.653892,63.833926L332.994674,64.203832L332.258623,64.486183L331.298230,64.139500L330.644669,63.405065L330.132101,62.436612L328.623625,58.568974L328.250934,57.161583L327.613259,56.220441L326.128582,55.766863L321.101213,54.943682L319.627052,54.968680L318.280436,55.350801L315.809913,56.807976L314.580198,57.892048L313.933103,58.183175L313.185940,57.959917L312.783884,57.408043L311.879281,55.500796L311.403243,54.775839L310.628927,54.186622L308.930231,53.406402L308.193369,52.888664L307.603844,52.106746L307.446242,51.483749L307.376214,50.896484L307.054942,50.203942L306.131369,49.477532L305.013008,49.420420L303.869693,49.888028L302.843839,50.723345L301.995155,52.015704L300.672665,54.695490L299.515989,55.632936L298.513357,55.938292L293.188611,55.925792L292.152143,55.720435L291.061706,55.290090L287.299884,52.454854L286.051465,51.951440L284.828929,52.117457L283.933788,52.870812L283.415317,54.033073L283.300749,55.427584L283.473064,56.306159L283.733211,57.050856L283.904960,57.806318L283.804990,58.726155L283.592719,59.167346L281.489344,61.898817L280.990645,62.331195L280.141777,62.431252L279.323675,62.166818L278.346028,61.614742L277.508601,60.971580L277.221769,60.599792L277.079967,60.415989L278.320797,56.936559L278.464467,55.197237L277.546968,53.754548L276.622319,53.368909L273.546868,53.293926L267.346532,51.414458L267.339569,51.412347L265.425005,51.374862L264.486605,51.801491L263.185881,53.118965L262.064556,53.583152L260.952148,53.650996L257.650408,53.220728L255.571533,53.772402L254.399760,53.874170L253.579987,53.329632L253.701200,52.160300L254.266624,50.675152L254.236431,49.477532L252.576262,49.165207L251.275480,49.300844L250.167462,49.200901L249.277839,48.604828L248.625954,47.248610L248.350934,45.403692L248.259626,43.931893L247.742209,42.852692L246.177513,42.183815L243.876175,41.793209L239.044319,41.646958L233.804418,43.166631L230.135105,42.695725L219.278291,39.103911L207.257332,38.813261L206.442493,38.494089L205.657304,37.755927L205.428081,37.085559L205.492232,36.458016L205.403461,35.965988L204.710797,35.707503L192.005586,35.286810L190.288233,34.725314L186.391292,32.255051L184.706185,31.968135L180.945447,32.060803L169.089863,30.334094L164.612115,31.057535L157.201279,30.959519L146.558784,30.818759L137.098054,28.869530L134.646630,28.924760L132.276524,29.559029L127.692294,31.577869L112.710596,33.518634L111.575451,33.479424L108.149924,32.843162L94.737241,33.679042L93.634665,34.017689L92.594567,34.980212L90.952510,37.297720L90.309090,38.638518L89.666386,43.141658L88.376211,44.845279L82.683515,48.189023L75.367401,53.977725L73.228007,54.259826L71.516608,53.108253L69.782883,51.637264L67.529680,50.950033L66.153268,50.850075L62.180171,49.938003L60.898671,49.911231L55.754794,51.003582L55.126054,51.298106L54.633048,51.758649L54.101154,52.667294L54.122051,53.220728L54.514330,53.772402L56.458917,57.095504L56.681575,57.763454L56.581220,58.822609L56.134795,59.015517L55.592084,58.719011L55.752898,59.145911L56.253838,60.114087L57.175744,60.583914L58.202469,60.875109L59.032516,61.291370L58.373942,62.674251L58.518384,63.104872L61.100772,65.701446L61.661591,66.530758L61.062585,66.764906L60.740553,67.247517L60.771703,67.958959L61.239934,68.893910L60.284499,69.203194L59.427553,70.020244L58.818130,71.037615L58.652395,71.960300L59.211364,73.432102L60.117839,73.784432L61.175365,73.800529L62.173383,74.283437L65.928982,79.555619L67.325255,80.749221L70.298143,82.150566L73.189816,84.264543L73.916725,85.105948L73.064572,85.480125L72.949471,86.117507L73.947572,87.489074L75.629274,89.265555L76.232623,90.193304L77.278883,93.095252L77.338362,93.525233L77.181809,94.069901L77.622494,94.352994L78.349370,94.578758L79.067336,94.944290L79.774704,95.682556L80.006276,96.252417L80.149109,96.876070L80.574849,97.786524L81.545936,98.876298L85.626001,101.615538L90.468259,103.634544L91.296375,104.502506L90.789722,105.707721L89.164192,105.991109L87.347987,106.001871L86.287433,106.400061L84.747201,105.743593L83.257571,105.905016L82.106137,106.672705L81.595985,107.863803L81.880320,109.191382L82.811615,110.074130L84.175499,110.558595L85.725870,110.709322L85.785117,111.139981L85.238462,112.356682L86.155097,113.419161L87.754842,114.173009L89.268393,114.463793L89.151721,116.047081L89.783376,117.508502L91.546069,120.209805L91.564442,120.237962L90.536922,122.008880L91.545471,125.314396L92.062845,126.234368L92.373121,126.428434L92.326163,126.582971L91.748567,127.380846L90.832165,128.275830L87.499609,129.771225L87.460197,130.608879L87.727535,131.949978L87.759204,132.852526L87.611306,133.604106L86.717602,135.895126L83.957477,136.866346L74.012606,136.967070L72.180141,137.452717L71.283771,137.844848L70.618731,138.438467L70.152698,139.460287L69.707871,141.310007L69.684523,141.407047L69.042547,142.306777L65.211463,146.129655L63.757105,147.173800L63.751418,147.173800L63.746206,147.177401L63.740519,147.177401L60.989388,149.046313L58.709231,150.612990L47.570210,161.737514L46.181950,163.828923L44.331101,165.120725L42.391082,167.100962L37.324113,174.271011L35.260154,176.213154L35.042218,176.790807L34.769254,178.198954L34.575360,178.697261L34.145735,179.090867L33.207436,179.386983L32.755649,179.650605L32.286977,180.188700L29.519236,185.245805L28.685261,186.019004L28.106700,186.232185L26.943520,186.427302L26.381366,186.864521L26.056796,187.467980L25.380730,189.701394L21.761928,194.339325L20.717626,197.040423L22.088701,199.543132L22.586184,200.566772L23.295095,203.544078L23.598702,204.340064L23.800646,204.727218L24.636807,205.668012L25.960294,206.710194L26.334976,207.245789L26.717818,208.360470L28.254516,214.782377L28.167127,215.799851L27.494285,217.932781L27.012067,220.413715L26.320288,221.931438L26.125849,222.782730L26.509242,223.155863L26.749907,223.014578L27.390313,222.250215L28.322905,222.757371L28.257678,222.786352L28.050976,222.829824L29.978065,223.880417L31.815671,225.652084L32.912237,226.278915L35.540837,227.434809L36.298221,228.145051L36.376499,228.739358L36.039513,230.112865L36.086876,231.066048L36.408082,231.725695L37.465205,233.012438L37.553377,233.161015L37.688922,233.389417L37.177161,234.509526L36.003979,234.107149L34.664640,233.186428L33.620045,232.755082L32.986590,232.591971L31.814866,231.395868L31.199241,230.953693L30.590130,230.895703L29.378328,231.211023L27.356449,231.087794L26.180876,231.182028L24.973723,231.062424L23.515415,230.286826L21.203850,228.376974L20.057219,228.090695L19.000346,229.025648L18.715151,230.181725L18.506268,231.783687L18.442240,233.400292L18.607346,234.585652L17.819895,235.194674L15.717166,235.455690L14.818164,236.093744L13.964385,239.037772L13.424222,240.285132L13.396332,240.629621L13.509884,241.536199L13.451694,241.964118L13.003872,242.591508L11.783503,243.530817L11.420773,244.035716L11.330126,244.161882L11.064058,245.017842L11.088707,245.565530L11.265641,246.138623L11.667710,248.518215L11.597516,248.993439L11.307798,249.798806L10.893780,250.379270L10.411665,250.723927L10.040861,251.184688L9.979230,252.124380L10.225503,253.630147L10.044667,255.121499L9.520407,256.431501L8.745296,257.418588L8.115690,257.785126L6.678829,258.180704L6.040559,258.572659L5.678583,259.066241L5.228697,260.185912L4.943441,260.697674L1.595704,263.160451L0.894513,264.303900L0.944619,265.726928L1.924879,268.573212L1.857115,269.676953L1.373697,270.820677L1.906945,275.882650L3.247893,276.075123L3.344391,276.063700L3.347248,276.063361L3.401278,276.056965L3.895526,275.550364L5.650677,274.943905L7.574213,275.145452L9.663150,275.977071L9.080414,278.101613L9.198795,279.222048L10.727744,279.143961L11.120430,279.202072L11.603913,279.794084L11.684016,280.484172L11.651250,281.294136L11.815584,282.263939L12.580385,283.691451L15.724810,287.247763L16.123812,287.556550L16.538100,287.649186L16.958445,287.545651L17.362393,287.251396L17.576663,287.160577L17.798105,287.131514L18.037831,287.160577L19.177052,287.538386L20.077248,287.694596L20.934366,287.629206L21.959456,287.175108L22.192840,287.149678L22.428085,287.189639L22.663923,287.284091L27.346455,291.883451L28.248452,293.334936L29.299026,295.564030L30.445505,297.230018L30.779065,297.517075L30.925016,297.531610L31.617276,297.184598L35.638944,297.184598L36.632529,296.899359L37.518394,296.385208L38.450083,296.163561L39.419781,296.657726L39.655058,296.990199L41.769543,297.944031L43.573425,299.246722L44.412353,300.047976L45.109237,301.014585L45.646968,302.344609L45.530759,303.073228L45.237655,303.721908L45.263320,304.823044L44.428077,305.822443L44.996204,306.676488L47.218049,308.086596L48.315009,307.788581L49.251857,307.210727L49.607350,306.258550L48.965766,304.833947L49.335211,304.001733L50.177060,303.943587L51.216094,304.332436L52.136577,304.841215L53.068430,305.299119L54.002538,305.531707L54.878017,305.415413L57.078688,303.816394L57.686646,302.617158L58.547988,299.332116L59.474048,297.904060L60.561209,297.440769L61.843555,297.597016L65.869103,298.734363L66.904562,299.332116L69.480448,301.654155L72.378506,303.576545L73.787078,304.823044L74.207658,304.959325L74.628862,305.004752L75.039787,304.964776L75.467981,304.828495L75.545534,304.801239L75.625276,304.792154L75.707207,304.801239L75.797101,304.828495L79.601978,306.356674L80.755698,306.298527L80.954940,306.152896L81.111201,306.038679L81.394812,305.709783L81.629405,305.310022L81.815193,304.841215L82.363767,304.412387L82.968626,304.257937L85.031232,303.936319L86.100456,304.230681L89.739973,304.579557L92.118217,305.237339L93.436057,305.389974L97.301279,305.219168L98.267021,305.608025L101.444729,307.881256L101.958981,308.966112L103.152880,308.951574L108.537396,306.992670L110.308257,307.068989L111.295685,307.628671L114.152682,308.266496L115.316127,308.706254L117.553264,310.350827L118.556542,310.521647L118.630432,310.465313L122.068889,311.542939L123.287162,311.582919L126.825479,309.981930L129.571456,309.905607L131.553936,308.301023L132.762282,307.712260L133.838205,307.679552L137.108913,308.335549L140.262832,308.291937L141.383618,308.522718L141.869424,308.751209L144.165639,309.831101L145.696583,310.790598L146.685341,311.710127L147.202576,312.829569L147.371151,313.750941L147.735072,314.617802L148.845664,315.584626L150.856468,316.584174L155.568238,318.092602L156.461404,318.706884L157.265099,319.526539L159.516221,322.407189L161.041399,324.122887L162.171802,324.733565L163.942601,324.460839L164.684850,324.346519L168.803445,323.712135L172.137386,322.421728L172.141771,322.410824L172.152872,322.407189L174.237916,320.495229L178.684470,312.887723L180.893348,311.473883L207.992998,308.940671L211.504559,307.675917L214.402728,307.363367L216.011141,306.734636L216.931878,306.580180L219.624730,306.809139L223.054961,305.902396L227.142411,305.869274L228.436812,305.858785L230.942017,304.823044L231.382957,304.110755L232.294623,301.712298L232.880329,300.963710L234.198954,299.917158L234.784354,299.253990L235.441426,297.758714L236.050239,295.571297L236.336235,293.347652L236.044383,291.754473L236.137219,289.431119L236.620782,289.594604L237.664532,289.679979L238.581431,289.427486L240.325429,288.646405L241.242110,288.435697L243.862149,288.328527L244.764675,288.141435L251.614225,286.808200L253.221373,286.132519L253.181896,285.554930L253.392297,284.450635L253.886549,283.607905L255.592015,282.628984L255.740000,281.722735L255.979974,281.127057L257.124079,281.483010L257.978519,282.200374L258.692374,283.066680L259.483094,283.822218L260.578832,284.221788L261.672345,284.149139L262.238521,283.662392L262.353840,282.752483L262.128533,281.424895L261.646364,280.073750L261.200008,279.227496L261.074681,278.597360L261.566146,277.909127L261.871244,277.887336L262.833028,278.196040L263.217576,278.206936L263.642003,277.782015L263.725149,277.264490L263.859752,276.826870L264.441073,276.659814L266.385612,277.344388L268.396168,278.662734L270.457875,279.645172L272.522614,279.334639L272.986457,278.864304L273.397839,278.922414L273.805595,279.118538L274.409797,279.073139L275.100107,279.189361L275.375355,279.016844L275.256374,278.662734L275.017078,278.272309L274.937378,277.992659L274.894940,277.527791L274.655532,276.932189L274.635720,276.423757L275.226313,276.242177L275.839440,276.383810L277.084094,277.001191L283.314296,278.904255L285.152107,278.987789L287.135168,278.065295L287.393225,277.744181L289.953226,274.557158L291.843554,273.682002L292.947621,273.914406L294.709761,275.165425L295.505142,275.412366L296.381096,275.014719L299.415663,272.607157L300.482047,271.134756L300.485755,271.134756L302.784438,271.134756L303.426237,270.994963L304.752619,270.174377L305.986415,270.308719L306.368230,272.156896L307.557313,272.618051L314.498376,272.567214L316.469749,273.298903L320.394179,275.543101L321.338658,276.296651L322.691644,277.734775L323.436584,278.526538L323.922381,278.857040L325.379067,280.476908L327.750981,281.217861L329.795218,281.428929L332.781607,281.737264L333.989785,282.198558L335.038047,283.103004L335.527781,284.365271L334.834500,287.120616L335.723821,287.645553L336.976186,287.694596L337.811759,287.494792L339.360413,286.257846L340.259638,286.139784L340.832642,287.298622L341.233073,288.657304L341.937467,289.452917L342.925759,289.705410L344.192971,289.460183L345.300801,288.875278L346.088366,288.230440L346.957878,287.712760L349.491634,287.458464L350.464085,287.563815L351.128927,288.125087L351.429097,289.460183L351.270258,290.909767L350.744783,291.552832L350.009019,292.001530L349.258921,292.864424L349.033266,293.843603L349.280519,294.822803L349.989494,295.409607L351.132645,295.218849L351.870694,294.390426L352.305680,293.325852L352.912001,292.486565L354.170467,292.337602L355.123028,292.853524L355.799233,293.803636L355.886865,294.870038L355.086766,295.745705L357.081284,298.521789L357.833484,299.105005L359.060257,299.775439L359.637286,299.735467L359.748598,299.079569L359.595532,297.882258L359.733352,296.682148L359.764927,296.407009L359.766035,296.402606L360.406848,293.854503L361.579066,293.374902L363.377332,293.443935L368.778036,295.246100L372.661507,295.291519L374.724961,295.589465L376.420904,296.479680L376.876600,297.041070L377.087898,297.549778L377.205156,298.027606L377.409776,298.510888L378.575092,300.331416L379.027404,302.170177L379.188728,302.595354L379.632288,303.055058L380.658538,303.783687L381.093637,304.305591L382.485548,305.975080L384.534318,307.635940L385.838610,308.408297L386.713156,308.926134L388.505384,309.518541L390.489401,309.187810L392.532020,306.467519L394.192389,305.735222L395.165067,305.771564L395.983309,306.029594L396.752776,306.578363L397.540499,307.479665L398.142901,308.569965L398.994983,310.979591L399.593643,312.006342L400.457029,312.524265L402.743543,313.091260L403.355304,313.432912L403.317171,314.392454L402.608450,315.390170L401.715060,316.333377L401.151504,317.125752L400.832740,318.357943L400.953907,319.130341L401.560022,319.588331L403.579499,320.178995L404.377870,320.742401L404.708329,321.502094L404.174582,322.399919L402.781974,324.210127L402.802963,326.407487L403.225347,328.893861L403.041092,331.545658L401.909040,333.686740L400.711801,335.315277L400.253318,337.165558L401.397887,339.988235L401.404755,339.995505L401.411085,339.999140L401.415057,340.006410L401.874200,340.634832L402.072404,340.906102L403.260983,343.027186L403.835016,343.774197L404.953839,344.443052L405.471459,344.025018L405.889432,343.267102L406.761370,342.914498L407.615944,343.285278L408.848590,344.759303L410.714866,345.737135L411.209045,346.489590L411.585499,347.327465L412.151903,348.078096L412.985871,348.463406L413.890234,348.619711L414.805507,348.946861L415.676056,349.870145L416.131459,350.984258L416.305530,352.000220L416.627907,352.999816L416.852075,353.266447L417.529452,354.072100L418.381421,354.653674L419.280105,355.002616L420.190525,355.078947L421.059188,354.835415L421.920438,354.035752L422.162890,353.054339L422.257763,351.978410L422.668995,350.886115L423.786295,350.777067L424.911963,350.840678L426.022477,351.171458L427.065969,351.887537L428.004214,353.101592L428.764034,354.731822L429.059498,356.360210L428.597308,357.577848L427.303875,358.203017L427.328278,359.729574L428.451387,363.413181L428.383687,365.143158L427.695125,365.979055L426.520617,366.280703L424.978655,366.415171L424.880563,366.615057L424.872258,366.833113L424.950782,367.049352L425.106411,367.276492L427.234560,370.034816L427.786078,370.463635L428.332331,370.034816L428.688766,369.129926L429.223888,368.334046L430.267870,368.246826L431.076360,368.684743L431.832125,369.431557L432.380891,370.387320L432.592627,371.459354L432.308009,372.416898L431.728910,373.074632L431.231155,373.850457L431.198586,376.470367L431.090878,377.401452L431.071216,377.571340L431.143780,378.492432L431.753360,379.271803L432.082773,379.337204L433.489744,379.220935L434.036337,379.457105L435.050185,380.334559L435.586383,380.696072L436.540704,380.975833L438.403182,381.106630L439.304190,381.379123L440.340412,382.169341L441.929232,384.014941L443.054596,384.659792L444.869449,384.895931L446.506419,384.757881L448.131839,384.932260L449.912596,386.087507L450.249987,386.574299L450.888130,387.847556L451.213537,388.234429L451.719291,388.270755L452.191999,387.969249L452.707073,387.756740L453.356383,388.052799L453.566108,388.521402L453.779921,390.028883L453.952234,390.675446L454.247018,391.187602L455.018302,392.200996L455.348657,392.736738L455.626610,394.031565L455.816820,398.404175L455.706351,399.224879L455.526349,399.853102L455.427695,400.519440L455.531052,401.447204L455.846068,402.173418L456.762585,403.613082L456.990049,404.279333L456.562761,405.791500L455.352719,406.000257L454.392585,406.087389L454.800319,407.653911L455.724239,408.497943L458.347460,409.401844L458.478589,409.577902L458.858629,410.251265L459.078978,410.400092L459.431078,410.298454L460.061309,409.911863L460.383522,409.922753L460.874616,410.225855L461.309162,410.657815L462.185253,411.881057L461.844183,412.487212L464.700029,414.258404L465.805784,415.240126L466.302224,414.815504L467.134094,414.684850L468.071043,414.828206L468.884887,415.240126L467.833014,417.412111L466.548549,418.654969L464.127393,419.025092L457.384118,418.693071L456.499928,418.867246L455.563306,419.357109L453.716831,420.953626L452.629714,421.098759L451.344979,420.024757L451.159918,419.542166L450.991461,418.185050L450.803736,417.546379L450.448538,416.958496L449.040302,415.361704L445.712378,412.924577L444.830078,411.844760L445.103884,413.819247L444.638294,414.853611L443.557026,415.232867L441.961562,415.249199L441.665133,415.691959L442.198082,417.412111L441.946427,418.556995L441.286444,419.226480L440.402570,419.524023L439.427211,419.436938L438.478462,418.974292L437.584194,418.087073L436.579938,416.548421L435.687051,415.927852L434.862517,415.673813L433.046876,415.381665L432.145020,415.076811L431.745459,414.577785L431.568815,414.047900L431.599951,413.503485L431.833004,412.944540L432.064451,412.454545L432.104535,411.971800L431.938452,411.514454L431.560131,411.080693L430.221140,410.893757L430.174539,410.917825L429.131693,411.456378L428.228175,412.454545L426.247792,415.706475L425.538946,415.724621L424.343483,414.443500L422.666345,412.015356L421.840186,411.786685L421.057089,413.216755L421.000334,414.069676L421.475096,415.490540L421.532133,416.123823L421.277946,417.023817L421.007960,417.132685L420.607203,417.023817L419.950296,417.239738L418.186704,419.197451L417.027529,419.854219L415.968658,419.148465L415.845105,418.415475L416.138502,417.742337L416.548459,417.089138L416.809380,416.414147L416.800295,415.586713L415.891716,409.643242L415.302695,408.134922L414.259001,407.147479L414.192171,407.147279L413.046358,407.143848L408.445329,409.561567L407.421934,409.908157L405.508260,410.556178L401.656027,412.995353L400.729419,414.541492L400.662827,416.515760L401.486815,419.088593L402.954721,422.408534L403.165877,423.515071L403.014138,424.777543L402.761691,425.786015L402.933841,426.743657L404.059464,427.857223L404.068740,427.860850L406.172001,429.394363L407.794972,430.577407L408.326377,432.104176L407.892785,433.764993L406.882986,435.646838L405.208597,437.542998L404.934678,438.652326L405.315514,440.377814L406.758232,443.440512L406.837915,444.817648L405.511020,445.393838L395.964913,447.636810L395.061422,448.194789L394.580221,449.216496L394.701911,450.386671L395.832109,452.813705L396.232168,453.987245L396.352436,455.396104L396.097114,456.301474L395.464226,456.917096L394.454175,457.453029L392.851443,457.771683L392.469073,458.090331L392.505245,458.492252L392.737986,459.125891L392.916673,459.853637L392.812015,460.523423L391.437286,461.280064L387.691340,461.602259L386.964750,462.912687L387.205564,463.452730L387.545835,464.215760L387.273144,464.776770L385.697119,465.232801L384.798045,465.797391L384.252860,466.380053L383.172201,468.077241L382.892461,468.884148L383.466646,469.387086L384.414650,469.839352L385.231840,470.486972L385.685965,471.471007L385.928113,472.447738L386.309402,473.413549L387.223512,474.353973L385.808872,474.968830L385.514570,475.232849L385.477416,475.312856L385.237434,475.829584L385.245013,475.988709L385.380458,476.118900L386.076458,478.498291L385.939977,479.326276L384.809773,479.799904L381.156148,479.673364L376.769823,478.704388L372.680246,478.433207L372.676223,478.436093L369.932868,480.403664L369.928503,480.414510L369.929003,480.418125L369.549785,481.238759L369.278184,482.117176L369.229282,482.612390L370.103749,483.422040L370.227709,483.410387L371.487810,483.291921L373.260062,484.101529L374.550602,485.413416L374.446959,486.804663L376.651360,490.580114L377.996269,492.321124L379.407176,493.054295L380.401136,493.278210L382.523149,494.267721L387.736335,495.397973L392.746747,497.549844L400.513207,499.026317L402.599310,498.780853L404.373073,498.737535L405.057475,498.466796L405.607240,497.824215L403.904506,497.181599L403.461950,496.874719L403.122098,496.358421L402.868781,495.726556L402.899311,495.192152L404.425253,494.477169L404.189177,493.426281L404.112851,492.425865L405.575843,492.100802L406.493650,492.364465L408.118328,493.289045L409.438600,493.491287L410.226510,493.935485L411.283181,494.805777L412.492380,495.383529L413.736737,494.964662L413.926574,494.480780L413.908958,493.133749L414.167462,492.534217L414.537606,492.266947L415.018700,492.140533L416.272341,492.100802L416.993714,491.764895L419.613855,489.673389L421.847022,489.095362L422.769649,488.712404L423.480302,487.975357L423.921952,487.780249L425.284358,487.704373L425.543011,487.502034L425.683032,487.003399L426.092435,486.501131L426.856646,485.854296L427.993831,485.272476L428.922072,485.239952L429.864983,485.391734L431.053464,485.373664L431.522995,485.211040L431.978673,484.911084L432.366316,484.546068L432.642459,484.181041L433.125308,483.866603L433.758434,483.985874L434.420814,484.267781L434.999980,484.419575L439.420661,484.806279L447.673711,487.285239L450.623389,489.355478L451.338597,489.673389L452.743546,490.699319L454.047983,493.094022L454.736223,495.813214L454.287955,497.824215L454.677827,498.264640L454.836305,498.770024L454.782462,499.289824L454.564451,499.799527L454.564279,499.799948L455.463913,499.961454L456.449402,499.739770L457.312287,499.279336L458.270955,498.332830L458.359405,498.273138L458.283165,498.162281L458.142131,497.573864L458.152364,496.848963L458.559605,495.165880L458.572734,494.588686L458.919165,493.633269L459.026412,493.036094L459.013436,492.438890L458.447915,489.443888L458.014101,487.924774L457.352195,486.616023L456.434754,485.836397L457.590021,485.933142L457.908933,484.982737L457.642234,483.628144L457.066062,482.495412L456.081757,481.635834L455.715481,482.165250L455.618728,483.340702L455.403268,484.399369L454.976029,483.241091L454.567577,482.973562L454.135331,483.050406L453.637156,482.928025L453.711770,483.187017L453.459730,483.423235L453.114464,483.463079L452.905154,483.167094L452.668498,481.539057L451.769971,481.743996L451.748646,482.455565L451.973882,483.306549L451.851096,483.924118L451.235255,484.009494L450.550357,483.650912L449.989355,483.127250L448.875273,481.465050L448.753344,480.847363L449.606223,480.582631L449.895330,480.283734L450.081533,479.626135L450.346186,478.968503L450.893774,478.669569L451.563126,478.128623L453.058243,475.585880L453.655859,474.808440L452.373323,476.081369L451.631691,476.568296L450.616520,476.761923L449.504552,476.670805L448.671171,476.431617L447.144584,475.805151L447.232915,472.629660L446.621785,469.279650L446.566080,466.547208L448.322987,465.244912L447.817378,464.432699L447.444165,463.959600L447.215306,463.400982L447.123876,462.329287L447.324610,461.491260L448.185871,460.251236L448.327365,459.703882L448.100631,459.381733L447.170248,458.469415L446.915258,457.984724L446.959925,457.437290L447.171922,457.089431L447.425470,457.026701L447.776714,457.634026L448.156367,457.961914L449.452687,458.822945L449.669643,458.919879L449.850525,459.053875L450.219273,459.464409L450.784620,460.242684L450.753581,460.661738L450.467160,461.194804L450.259190,462.329287L451.087935,465.641027L451.011337,466.159666L452.379592,466.749523L453.655032,468.219787L454.556850,470.100135L454.751101,471.937505L455.358481,471.356410L456.883885,470.869296L457.672927,470.459082L457.321618,469.886472L457.263119,469.675654L457.368979,469.516114L457.470088,469.071673L458.701039,469.538906L459.611929,469.142898L460.412646,468.467665L461.357312,468.114366L461.599006,467.875029L461.138859,467.347904L460.165627,466.592800L458.585174,466.099824L457.771672,465.646727L457.212240,464.723391L457.383864,463.312627L458.487991,462.602919L459.987454,462.357791L461.297339,462.329287L461.432763,462.183919L461.495291,461.856121L461.612716,461.525466L461.932116,461.377239L462.427091,461.482708L462.502086,461.742103L462.489050,462.061352L462.666733,462.329287L463.997107,463.098863L464.505560,463.577690L464.884911,464.244601L464.995165,462.329287L464.400784,461.799112L463.851701,461.075079L463.450162,460.131504L463.330626,458.942687L463.615820,457.967617L464.089250,457.802248L464.378463,458.201411L464.105005,458.942687L464.181781,459.464409L464.877540,460.088742L465.554527,460.898342L465.624963,459.310460L465.496154,457.591257L465.748175,456.205492L466.922104,455.635183L468.353506,456.154166L471.260932,457.990426L471.701933,457.762331L471.818971,457.462951L472.171862,457.574150L472.547538,457.839313L472.702711,457.984724L473.136284,457.893486L473.205156,457.642580L473.173337,457.271915L473.316956,456.809998L473.345763,456.350918L473.267701,454.485948L473.419120,453.673163L473.758735,453.011497L474.203669,452.532343L474.668771,452.686358L475.575319,456.624657L475.569393,457.548489L478.959032,455.019226L481.743184,452.241421L486.887583,445.058022L492.968901,439.270331L493.346503,438.294118L494.052716,435.530757L494.458809,434.959764L495.284529,434.548639L495.937427,433.572181L496.856990,431.562009L500.074717,426.701356L501.280436,423.896397L501.427437,423.230807L501.296421,422.459499L500.803512,421.876714L499.398330,421.125356L499.077445,420.736811L499.505883,420.291119L502.578341,420.496824L503.411122,419.751135L505.330081,417.093881L505.413748,416.799565L505.585459,414.676376L505.708430,414.279150L505.857171,413.930501L505.981816,413.784753L506.244635,413.581847L505.915000,413.167456L505.435181,412.821648L505.219848,412.824506L504.614513,411.386926L503.392446,409.637711L503.057264,408.705892L503.305520,408.108481L504.677850,406.101768L505.268883,405.587202L505.830802,405.601496L508.269691,406.067464L508.945781,405.898801L511.968812,403.897643L512.670383,403.657495L513.346749,403.909079L513.850101,403.960539L515.005822,402.977063L515.468478,402.705457L516.666047,402.559647L518.903157,401.899202L521.871149,401.547531L524.642648,400.758399L526.181761,400.746962L530.255832,401.641882L531.418258,402.273742L531.753698,401.747670L532.539696,402.170815L534.156517,402.362373L534.985181,402.705457L535.717854,402.139366L538.038386,400.964262L539.105040,400.746962L539.708558,400.149381L541.215736,397.507300L541.997166,396.906795L542.041983,396.666590L542.865833,395.228181L543.151429,394.333075L542.859677,393.818307L540.896065,392.579970L540.364304,392.345453L539.955485,391.930754L539.680552,390.909716L539.505076,390.463539L538.596470,388.704517L539.511304,389.016285L540.253629,389.891509L541.360900,391.630452L542.239002,392.202454L543.015054,392.591410L543.622262,392.431252L543.783225,392.231054L543.810551,391.967934L544.666362,390.506441L544.939460,390.146063L545.352464,389.888649L546.374673,389.485362L546.739604,389.185039L547.015095,388.318378L547.220730,387.300098L547.621947,386.882480L548.443624,387.792079L546.373872,391.107062L545.764467,391.630452L545.895538,392.316853L545.340519,393.826886L542.937227,398.339408L542.564908,399.531772L542.950250,400.526802L543.438686,400.775554L544.075042,400.827020L545.259420,400.746962L545.794604,400.884204L546.684026,401.524658L547.186871,401.747670L548.402805,401.576122L548.822360,400.715511L549.148537,399.757658L550.049969,399.308744L553.370898,399.054260L559.145508,400.861331L561.630519,401.175841L564.025232,400.746962L564.641132,400.466758L565.762116,399.729065L566.108013,399.308744L566.474720,398.385160L566.343264,397.933365L565.967108,397.384340L565.611945,396.189034L565.529677,393.080458L565.231820,392.591410L562.725512,390.146063L562.400184,388.275474L562.871845,386.750901L563.898443,385.721136L565.221269,385.343548L566.327032,384.554036L567.063137,382.714639L567.260333,380.629127L566.760178,379.107126L565.696969,379.727949L564.520100,380.097005L563.473240,379.848107L562.811038,378.626483L562.898031,377.453465L563.475913,376.346222L564.870584,374.741105L562.968061,374.460704L560.480950,374.758272L558.597792,374.083020L558.500689,370.901206L558.849111,370.420484L559.458839,369.258722L559.708908,368.079768L558.922617,367.538929L558.605677,367.387264L558.269458,367.058179L557.833123,366.731954L556.396923,366.442929L556.087725,366.053744L555.468156,361.958584L554.767955,361.125787L552.184850,360.576308L551.004291,359.966725L549.999213,359.168251L549.519624,358.369769L549.639151,357.974818L550.223679,356.718405L550.400750,356.455100L551.022144,356.684061L551.168669,357.199221L551.129761,358.610173L551.779464,359.471615L555.312459,360.816706L556.205937,361.543618L556.513450,362.093090L556.648345,362.848608L557.040448,364.182192L557.641732,365.252474L558.262729,365.561537L558.987895,365.721791L559.882090,366.337048L560.987932,368.157030L561.060664,369.865359L559.961071,372.824052L560.980451,373.619494L562.067024,373.719639L564.454525,373.344810L566.016485,373.527933L566.429455,374.020072L566.101380,374.769717L564.777491,376.929888L564.737853,377.854011L565.401578,378.426214L568.278339,378.869666L568.994030,379.564876L569.211851,380.637710L569.150876,382.028062L568.378606,384.496824L567.187470,386.527788L566.492074,388.713097L567.186606,391.630452L567.937247,392.831645L568.728426,393.826886L569.416047,394.862134L569.838510,396.189034L570.330747,397.378621L571.289107,398.759743L572.389844,399.997839L573.288902,400.746962L574.297031,401.144390L577.860588,401.747670L578.900039,402.310910L580.109125,404.881088L581.024885,405.587202L582.124778,404.146367L582.691339,404.074895L583.739156,403.743262L584.359814,403.666072L584.838275,403.445934L585.628606,402.482453L586.237233,402.273742L586.579421,402.462439L587.648807,403.666072L591.683989,405.452842L595.736571,404.978287L602.728073,401.267334L604.099749,401.496066L605.519250,400.804147L606.901770,399.857734L608.146892,399.308744L607.674861,400.466758L606.972790,401.141531L606.181381,401.690487L605.444450,402.491030L604.552829,403.045679L601.989584,403.305845L601.013812,403.909079L597.533271,406.787840L596.284477,408.605848L597.544051,409.900673L596.233777,411.341196L594.182935,412.147167L591.759997,412.324363L589.349599,411.864223L585.993543,410.140765L579.606695,408.945995L578.445634,408.917412L575.265093,409.377605L570.250890,408.465785L565.441512,408.465785L564.842595,408.277129L564.615145,408.202810L561.092263,406.499120L559.105872,406.007431L549.350296,406.642051L548.454082,406.281863L546.750423,404.898240L544.754289,403.666072L545.920392,405.309904L553.424964,411.078249L554.274176,411.341196L554.783610,411.778482L556.544763,414.744961L556.114204,412.532996L556.091606,411.864223L556.217749,411.324047L556.477870,410.935342L557.183504,410.140765L558.008955,409.757759L559.267703,409.823499L560.616736,410.112183L568.900880,412.918818L571.434374,413.261766L573.499292,413.081719L574.459620,413.404660L577.519827,416.422377L578.124569,417.279613L577.783856,417.505347L577.018281,417.485345L576.359433,417.616784L573.781322,419.982558L573.318493,420.279691L569.156366,420.976796L565.948225,420.385401L564.798939,420.496824L563.906875,420.899658L562.901523,421.633882L562.339546,422.588052L562.800285,423.676440L563.672247,424.399146L564.612563,424.913308L565.682311,425.227513L569.264932,425.330343L569.640045,424.999001L569.404377,424.204903L569.034057,423.256517L569.004681,422.459499L574.165371,425.570276L577.171249,426.847021L578.887144,426.247218L580.638998,427.409678L583.147808,429.862911L583.951228,430.202742L584.756526,430.322681L587.411260,431.113689L588.909827,431.370689L590.361319,431.216490L591.953757,430.562557L591.920547,431.247901L591.658689,431.681939L590.721027,432.521435L591.095583,432.938313L591.494033,433.909093L591.798973,434.437291L591.944699,434.745637L592.267387,435.644953L592.421457,435.919022L592.738665,436.033216L593.449976,435.964700L594.814067,436.729785L606.629305,439.575744L608.858066,439.270331L609.229100,439.002020L610.024615,438.139974L610.548344,437.791719L611.105115,437.591897L618.040495,436.492841L620.000183,435.582145L620.816558,435.396575L622.161204,435.490788L625.404257,436.398633L625.903936,436.472857L627.189197,436.398633L627.565570,436.450019L628.117049,436.729785L628.566190,436.832556L629.348745,436.835411L635.149744,435.958990L635.802003,435.022574L634.961152,432.998275L638.493842,434.437291L639.834180,435.208148L640.403183,435.396575L640.971243,435.382300L641.629099,435.045414L642.052060,434.959764L643.721436,434.171766L644.554187,432.378666L645.192870,430.442620L646.301004,429.211791L646.552658,434.103243L646.500136,434.988314L646.243434,435.919022L650.615092,435.396575L651.924903,435.724890L652.170486,436.518534L651.714960,437.469149L650.908219,438.271282L651.266438,438.351208L651.550771,438.345499L651.814249,438.436842L652.153115,438.790794L653.065893,437.374946L654.617250,437.631862L656.304818,438.770813L658.399129,440.840156L658.937886,441.176937L662.427829,441.185499L663.679602,441.630725L664.246765,441.664973L662.837447,440.155158L663.250338,439.284603L664.634160,438.887844L666.122731,438.790794L666.036682,438.271282L664.390837,437.417765L664.289696,436.390068L665.096448,435.345186L666.174075,434.437291L667.511744,433.989037L668.591211,434.728507L670.765505,437.571915L671.212242,438.599547L670.805773,439.421611L670.311358,440.158012L670.534099,440.945757L671.652657,443.360152L671.810096,443.865250L671.508979,444.464499L671.320096,445.157891L671.466757,445.737123L672.159336,445.971093L672.404064,446.336308L672.063183,447.140895L671.216515,448.367674L671.976414,448.812716L672.338439,448.607313L672.652936,448.170824L673.258385,447.934032L674.668417,447.828473L678.024852,448.573079L679.183599,449.060907L680.355407,449.848248L679.446399,450.364564L677.583896,450.798142L676.718096,451.243119L675.805957,450.909388L675.880195,452.190081L676.270626,453.849983L676.324805,454.677017L675.133885,454.831012L674.489042,454.776829L674.153077,454.417504L673.882699,453.981170L673.313560,453.604716L672.631499,453.325221L672.016412,453.199732L671.480433,453.273885L670.865363,453.510601L669.825139,454.157987L668.700587,455.635183L667.396801,456.000184L666.827450,456.068620L666.112241,455.923192L664.976089,455.264471L664.536948,455.116184L663.725986,455.424164L661.568619,456.764375L660.770783,457.069471L659.322732,458.720308L659.093367,459.176466L657.171972,459.940501L653.415264,462.169667L651.451879,462.372043L649.288528,461.377239L648.193525,460.316803L647.615971,460.026025L647.196064,460.419429L647.230627,461.140643L647.726755,461.553971L648.317225,461.810514L648.618175,462.072753L648.479535,462.919299L647.838238,463.398132L635.831739,468.564536L632.309046,470.835112L630.831182,472.373310L630.514133,472.868916L630.363762,473.253425L630.340067,473.851529L630.513045,474.381256L630.805908,475.024875L630.787763,475.571642L630.035991,475.805151L629.367217,475.722569L628.210903,475.363759L627.625252,475.281175L626.788189,475.415018L626.387456,475.765284L626.126372,476.237985L625.693434,476.761923L624.975981,477.325704L624.159865,477.764183L623.148209,478.048902L621.852926,478.148553L620.788562,478.421875L614.778751,482.865411L613.326207,484.447747L612.855819,486.311576L613.251298,487.287486L615.390178,491.087960L616.698612,491.264300L618.815565,492.163028L620.082936,492.515675L624.150999,492.515675L624.899135,492.106149L626.601220,490.206219L627.409472,489.654387L628.613300,489.495091L637.182660,490.132263L639.662615,490.951436L641.895616,492.128900L646.137104,494.946948L646.664428,495.205686L647.720668,495.561085L648.303002,495.902259L649.120147,496.951305L649.697725,497.548280L651.224310,498.264611L653.569742,500.436070L654.550005,501.146536L657.207503,501.785917L658.522160,502.331494L659.208897,503.311761L659.899969,503.976588L661.154054,503.664067L662.978605,502.621321L664.994834,501.905264L667.299193,501.623944L668.321356,501.990512L671.893500,504.482285L676.140466,506.678105L677.834246,508.314031L679.203078,511.156432L679.691775,512.950644L679.989615,513.580818L681.276840,515.328290L681.506933,515.742640L681.866434,516.917490L682.944329,519.646958L683.219314,521.238358L683.224809,522.599802L683.034048,523.810782L682.554681,524.675689L680.457223,525.342048L679.834269,526.238029L679.542225,527.485482L679.383098,528.894380L679.284276,529.282719L679.124711,529.526487L678.727210,529.846780L679.377241,530.731086L679.850565,531.782533L680.525467,533.698150L681.322100,535.109175L681.538539,535.865625L681.483835,536.978972L681.115973,537.709820L680.551243,538.457624L680.190090,539.315848L680.442353,540.349610L681.009795,540.726277L682.922579,541.040630L683.750138,541.304002L682.652023,541.714625L679.744945,541.765598L678.959228,542.014797L678.536977,542.272487L677.924561,542.331953L676.686010,542.252665L676.184480,542.365934L675.061737,543.198433L674.618505,543.413629L672.936751,543.750574L672.679388,543.538215L672.698836,543.572192L672.884236,544.370646L673.437349,545.203030L680.185959,548.973661L680.999930,549.635974L682.147470,550.349202L683.361951,550.275617L684.526018,549.950138L685.543916,549.896363L686.287744,550.383165L688.323072,552.318907L688.771444,552.958444L689.300172,554.260080L690.185464,554.899543L694.793198,556.670675L695.993273,556.930954L699.800274,557.015826L700.412937,556.925295L701.552690,556.563167L702.260146,556.540534L706.051749,557.774005L707.389273,557.963544Z "/></g></svg>