<?xml version="1.0" encoding="utf-8"?><!DOCTYPE svg  PUBLIC '-//W3C//DTD SVG 1.1//EN'  'http://www.w3.org/Graphics/SVG/1.1/DTD/svg11.dtd'><svg enable_background="new 0 0 1000 1183" height="1183px" pretty_print="False" style="stroke-linejoin: round; stroke:#000; fill: none;" version="1.1" viewBox="0 0 1000 1183" width="1000px" xmlns="http://www.w3.org/2000/svg" xmlns:xlink="http://www.w3.org/1999/xlink"><defs><style type="text/css"><![CDATA[path { fill-rule: evenodd; }]]></style></defs><metadata><views><view h="1183.56493095" padding="0" w="1000"><proj flip="auto" id="robinson" lon0="32.6814368168"/><bbox h="95.5" w="80.75" x="437.66" y="-70.76"/></view></views></metadata><g class="" fill="black" id="country"><path d="M67.619928,1181.564931L71.476483,1181.093176L75.509637,1179.399146L87.991675,1171.593745L89.887848,1171.143433L91.576596,1166.618874L93.976443,1163.831231L94.932993,1163.252737L100.358641,1159.971417L107.855488,1156.669132L109.854034,1154.567678L110.815697,1151.415497L111.969895,1143.374219L113.289461,1140.543689L114.733213,1139.578736L116.192843,1139.299971L117.651806,1139.171311L119.008027,1138.720999L121.848032,1136.812536L130.039960,1128.042183L132.450709,1124.568351L134.436290,1120.815755L134.792406,1119.443377L135.211943,1116.462743L135.747376,1115.219026L136.375375,1114.635729L137.040230,1114.018195L140.114950,1112.452826L141.236689,1111.402099L142.196357,1108.249919L143.413755,1099.672557L144.968750,1096.713367L147.776293,1095.576867L150.804860,1096.091508L153.926161,1097.120792L157.011777,1097.571103L159.893881,1096.756254L162.304008,1095.533980L164.796181,1095.147999L167.580713,1096.130115L169.586063,1096.837415L169.800538,1096.584707L171.283062,1095.233772L173.555055,1095.469650L174.914864,1096.498933L175.857463,1097.656877L176.887671,1098.192962L179.095006,1097.999972L182.507797,1097.099349L191.754571,1096.134395L195.749176,1096.627594L200.156334,1098.192962L202.494463,1096.005735L209.077577,1088.157449L211.735085,1086.592081L218.695512,1084.104646L225.604753,1080.030399L232.075901,1081.874532L234.986872,1083.504230L246.824932,1083.504230L280.388201,1083.504230L313.932529,1083.504230L317.842760,1083.504230L347.486327,1083.504230L381.040125,1083.504230L414.584453,1083.504230L447.172413,1083.504230L448.128780,1083.504230L481.692049,1083.504230L515.245847,1083.504230L548.818586,1083.504230L582.068737,1083.504230L582.362914,1083.504230L604.969022,1083.504230L615.916712,1083.504230L649.451569,1083.504230L683.014838,1083.504230L711.113809,1083.504230L716.559166,1083.504230L748.749367,1083.504230L750.122434,1083.504230L783.657292,1083.504230L798.677423,1083.504230L797.789042,1041.282172L797.191496,1012.998327L800.294643,983.234889L804.725530,940.455310L808.129738,907.518253L807.944923,899.498423L802.287061,878.183687L796.581942,856.804621L797.148465,852.708932L807.802761,836.626385L809.360388,834.271718L824.067340,812.030809L830.651372,806.241091L832.219626,803.496336L832.724711,799.271987L830.647773,791.702468L830.451745,787.885543L831.262876,785.998524L834.418334,781.752731L835.702245,779.586948L836.267074,777.828589L840.635619,757.348223L840.786004,756.642512L843.914733,750.252379L849.321365,746.049473L856.757476,743.004510L862.677071,739.595009L867.075633,734.234160L870.004670,725.335149L870.713648,720.559792L871.099651,717.958619L872.609231,716.135930L884.350298,709.467032L887.483790,706.229079L890.087927,697.876874L895.344625,690.103640L900.048493,676.808731L901.111358,672.562937L901.187086,663.256500L902.115575,658.839159L903.631701,654.614808L905.414925,650.905099L909.146768,646.745079L912.180854,647.549207L915.181989,649.468391L918.791318,648.688831L919.004347,648.642820L920.031672,646.640534L920.957154,644.836616L921.238941,640.161953L922.471461,636.366470L931.343797,634.072026L937.561706,627.274466L941.355901,624.636927L956.423816,622.889290L962.242599,619.897935L964.510665,611.470676L962.554730,603.214964L959.327664,594.776982L958.945921,590.877305L958.605348,587.400450L969.438709,577.311325L973.203817,560.558660L977.383911,553.439447L979.214567,552.394081L983.053710,551.504179L984.866015,550.560669L986.728603,548.571793L988.039594,546.218378L993.764531,532.274798L994.833424,527.771681L994.743241,487.447335L995.520242,484.922372L998.911907,480.011829L999.577190,477.787074L998.632057,475.476545L994.299179,470.930540L992.673242,468.775476L991.338990,465.140816L990.549730,460.986153L990.289409,456.697469L990.542071,452.660744L992.192400,443.407907L992.141395,439.392625L983.681360,416.818058L980.296527,407.785215L973.042679,388.437678L971.777866,380.289174L973.341648,375.164193L976.629293,372.269329L980.300145,369.889108L982.974477,366.211559L983.423783,361.504725L981.706061,357.966558L976.653536,352.155386L975.556325,348.199072L974.417664,337.874056L972.554133,335.043522L970.890695,335.333009L969.695332,337.059206L968.233015,338.592412L965.712742,338.377977L963.971635,336.469511L956.071726,318.285472L953.110821,300.262258L949.249389,287.181755L948.492386,285.348340L947.224929,283.589978L946.256637,283.321934L941.040341,280.502121L940.693855,279.944591L940.330298,279.569331L940.020022,278.850975L939.615079,278.132620L938.910732,277.757359L938.459764,278.089733L937.662254,279.708713L937.211604,280.073252L936.458581,280.491399L934.433240,282.389144L933.301767,282.828735L930.795032,282.078214L929.109072,280.126860L926.313146,275.173424L920.425429,267.850485L918.551517,264.237264L912.899136,232.854768L912.886811,232.830319L910.693685,228.480302L906.819419,225.596157L898.156576,222.797786L894.302543,220.042301L892.262838,215.292574L890.162020,189.817740L887.702074,181.540562L886.332825,179.321163L884.585989,177.192899L883.121944,174.968139L882.620276,172.486057L883.142240,170.137997L884.919716,165.055895L885.180870,163.088457L884.397298,160.810088L882.093099,156.365928L881.915454,154.119724L882.916323,152.302390L884.572335,151.476816L886.439689,150.919286L888.131708,149.938247L891.543092,143.880465L893.166836,135.565757L893.420721,118.882731L892.137553,114.518983L889.426089,112.556904L885.985860,111.366791L882.516386,109.329660L876.485664,102.146093L873.174138,100.650410L868.216524,102.285476L866.329719,104.311885L865.559066,106.300768L864.717949,107.169229L862.581585,105.807568L859.715996,97.439248L855.573693,91.488681L855.447642,90.475476L853.519439,90.657746L849.899978,91.821055L846.307328,92.089099L843.158011,93.011169L841.607521,93.129108L839.267365,92.131986L840.458920,90.529085L844.079055,87.886175L841.750014,84.728622L838.858176,83.506343L838.503440,82.369838L847.183390,77.244844L849.135649,74.446468L848.627049,71.610567L844.547026,69.214257L840.988821,69.192813L833.758273,72.130572L830.889653,72.773876L826.609723,71.031593L826.829707,67.434447L829.097489,62.652548L830.979729,57.334562L830.483161,53.984016L828.333376,51.598427L825.620315,49.566655L823.414784,47.266840L821.934563,43.969903L821.983382,41.863079L822.752986,39.890277L823.435101,37.000766L823.902867,32.165257L823.814682,29.726058L823.215918,27.319025L821.652977,24.987045L819.581844,22.869499L817.943906,20.596487L817.680155,17.771306L817.842998,11.386502L815.490388,6.572435L811.317106,2.900235L805.980714,0.000000L791.365321,16.876039L776.502764,33.955789L756.329232,57.184457L739.050816,77.100100L725.761745,92.410751L724.872942,93.004582L718.138980,97.503579L710.222232,98.618640L680.752735,96.924605L664.058103,95.986452L658.374910,94.742730L654.505641,92.453638L631.131123,71.063758L627.448146,69.332196L624.227815,70.645610L613.230945,79.989611L598.945895,88.261436L583.639914,93.504369L554.893704,96.147278L521.288474,99.256584L513.297730,101.379489L479.863274,124.597419L477.727717,127.411875L477.559069,130.097671L478.436822,137.522475L478.434657,140.738996L477.905204,143.670118L477.667698,144.984805L476.485565,146.780695L474.262583,146.877191L462.725387,144.245004L459.620230,142.438392L456.782750,139.162901L455.542660,136.960682L453.172207,132.751301L451.076172,131.491497L449.622313,131.390230L435.221606,130.387158L432.706806,128.912919L431.399582,125.401549L430.734314,115.853840L429.999155,111.918961L427.311969,106.933351L414.083525,90.421867L409.702208,86.304718L408.611022,85.734153L404.904037,83.795830L404.334784,83.667169L403.951040,84.857283L389.589405,103.411259L387.905798,105.164263L384.574026,106.783247L365.607082,109.940800L362.409952,111.768856L360.304840,114.787026L360.123403,114.969819L358.171051,116.936735L354.812296,116.154048L331.258309,101.744028L316.012789,92.432194L308.791744,89.842893L301.283784,88.663502L292.634518,88.652780L287.872700,90.164546L281.149679,96.169745L276.301156,100.500306L274.662769,101.240106L271.188926,102.017432L269.494212,102.800119L263.910063,107.871503L261.435473,109.168834L259.574374,109.458321L255.948795,109.356465L254.035968,110.106986L252.032880,112.122674L251.130128,114.379600L250.588448,116.775909L249.782193,119.215105L237.902106,139.162901L233.984002,148.094108L233.242261,151.353516L237.199689,149.691647L240.628050,146.330382L243.587547,145.177796L246.005796,150.120517L246.082182,151.980738L244.913397,157.845528L245.222148,160.220392L247.103577,164.573417L247.469461,166.996529L246.360744,171.435327L245.442984,172.965784L244.071808,175.252265L238.857890,181.824688L235.304764,188.895671L234.983692,189.903514L234.778513,192.080026L234.202501,193.152199L233.355526,193.634677L231.155937,194.202929L230.498141,194.674685L227.287315,202.019071L220.067467,227.449167L217.313111,237.143459L216.616810,241.550089L216.881720,245.527850L219.106838,248.604986L227.698709,255.327509L230.900663,258.629801L235.200294,267.003469L237.263746,275.216311L237.073975,283.482760L232.674292,297.442444L231.442978,299.501015L230.727132,299.908441L228.516236,300.390918L227.745099,300.969891L227.301021,302.138559L227.281287,304.197130L227.063512,305.269302L221.109743,323.935820L220.712669,326.552247L220.580901,327.420379L220.168638,329.039359L216.643512,335.365174L215.903949,337.488074L215.708958,341.347893L216.473058,349.024644L216.352108,352.745081L214.978155,356.079535L212.702379,360.303892L211.070908,364.624745L211.629567,368.184355L214.268710,369.084979L227.107741,369.224362L228.935000,370.414472L229.362242,372.944798L229.358813,376.096982L229.875048,379.131228L231.757365,382.530012L234.818800,386.604265L238.253957,390.056657L241.352711,391.643471L246.603936,388.759329L249.098600,382.079700L252.064377,376.386469L258.862361,376.418634L261.966563,378.659473L272.408386,391.815018L272.831701,392.683477L273.279081,394.216683L273.004233,395.406793L271.986415,396.017931L271.386908,396.854225L272.348100,398.730525L275.030195,400.317339L283.070946,401.882709L285.552524,402.011370L288.597095,401.475284L297.420496,397.690519L297.763588,406.643151L298.421489,411.006889L299.849587,414.577220L303.680831,417.933116L314.097812,424.591300L316.187864,428.166625L316.504582,428.708438L316.443234,429.116876L314.932886,439.167469L309.763674,449.921347L298.963195,465.473189L287.314703,482.247306L283.121867,488.264256L270.377487,506.548060L257.363595,518.492043L232.318224,541.554436L207.649899,564.204040L192.290664,586.751786L184.360299,598.379000L170.628637,618.504113L166.979023,622.020832L164.657322,623.864965L162.105528,625.065796L158.643840,626.095079L156.182872,626.395287L152.032747,625.880645L149.893401,626.095079L146.836491,628.796948L144.628448,632.978413L142.395131,635.680282L139.225201,634.007696L137.228964,632.195728L135.541842,631.852634L133.981568,632.410162L132.403765,633.310785L126.842744,639.797415L126.355707,641.148350L125.994491,645.587135L125.529364,647.731475L124.892413,649.543443L122.572233,652.020156L122.644266,656.030073L123.660364,664.468052L122.405169,668.317143L118.293354,673.227683L117.452574,676.572853L116.886913,677.323373L113.595717,684.313922L111.615588,686.962182L109.838849,688.109404L90.288679,693.137882L82.610791,697.072746L80.015915,699.340793L75.998854,702.851743L73.635804,704.406389L70.174297,712.619212L69.915003,714.720665L70.947829,725.453087L68.736927,742.983067L68.651945,747.250303L72.077786,764.019041L72.547698,772.103202L69.921106,778.585548L69.341476,780.015816L65.867086,784.570060L56.203302,797.234864L54.105994,801.116119L52.833124,805.576346L47.002754,839.714234L46.359717,841.301045L44.542057,842.609092L43.291542,842.051564L41.945848,840.743517L39.785832,839.778564L38.783346,842.115894L30.729620,854.831828L29.130810,860.449998L28.866475,864.031045L31.036490,873.080158L31.197529,877.047187L30.221759,880.949885L27.473863,888.583734L24.273116,909.748366L23.159657,917.168250L20.101005,937.517565L19.546698,941.150022L15.552479,967.281001L16.000676,971.183699L16.502602,972.378164L18.415327,976.930530L19.261957,980.125596L19.843489,992.841531L19.439731,995.736390L17.959888,996.872890L16.008572,997.022994L14.302636,997.580522L13.559049,999.853523L13.859422,1001.097240L15.275200,1003.305910L15.698620,1004.549627L15.458233,1006.157882L14.565589,1007.208609L13.540778,1008.066345L12.932177,1009.138515L10.600308,1025.478385L10.437457,1029.809952L12.044477,1037.894114L12.448870,1042.268568L11.938500,1054.748628L11.417854,1057.750704L9.344565,1060.538346L3.920827,1062.618356L1.863517,1066.263735L1.611161,1068.150754L1.718065,1070.209321L2.415386,1074.112020L2.622849,1077.178426L1.915144,1079.194106L0.992102,1080.958888L0.961814,1081.016796L0.422810,1083.504230L0.911879,1087.149609L3.582064,1095.126555L4.324797,1099.136472L4.140247,1102.867624L1.855231,1115.690781L1.854001,1120.687094L3.346041,1124.032266L5.217427,1127.205890L6.278149,1131.687562L6.090728,1133.445921L4.335053,1138.699556L4.420110,1140.908227L6.541971,1145.068248L7.251255,1147.405579L7.271234,1151.372610L5.491294,1163.552466L12.856725,1164.002778L16.703014,1163.681127L20.117136,1162.630400L23.906920,1160.228738L26.749242,1157.912850L29.825863,1156.111603L34.280900,1155.210980L36.456406,1155.768509L40.345540,1158.448935L41.612100,1158.963577L43.132001,1157.955736L44.249519,1153.860045L45.917008,1151.629931L47.617621,1150.429100L49.211021,1149.893015L50.837198,1150.168337L50.857527,1150.171779L52.859870,1151.329723L57.972170,1159.799870L58.765931,1164.152882L59.160235,1172.687359L60.918850,1177.083258L64.046200,1180.406987L67.619928,1181.564931Z "/></g></svg>