<?xml version="1.0" encoding="utf-8"?><!DOCTYPE svg  PUBLIC '-//W3C//DTD SVG 1.1//EN'  'http://www.w3.org/Graphics/SVG/1.1/DTD/svg11.dtd'><svg enable_background="new 0 0 1000 96" height="96px" pretty_print="False" style="stroke-linejoin: round; stroke:#000; fill: none;" version="1.1" viewBox="0 0 1000 96" width="1000px" xmlns="http://www.w3.org/2000/svg" xmlns:xlink="http://www.w3.org/1999/xlink"><defs><style type="text/css"><![CDATA[path { fill-rule: evenodd; }]]></style></defs><metadata><views><view h="96.1028108545" padding="0" w="1000"><proj flip="auto" id="robinson" lon0="-162.071561738"/><bbox h="479.69" w="5043.96" x="-2616.39" y="-473.18"/></view></views></metadata><g class="" fill="#000" id="country"><path d="M53.522004,94.102811L53.557663,94.080859L53.567715,94.049270L53.506675,94.061317L53.506557,94.061317L53.522004,94.102811Z M5.716074,92.188742L5.711525,92.174420L5.705028,92.172948L5.696261,92.176963L5.685499,92.177499L5.693981,92.184727L5.698671,92.194096L5.704330,92.197844L5.716074,92.188742Z M5.762330,92.080858L5.749495,92.094109L5.763286,92.102810L5.762330,92.080858Z M5.270317,90.181111L5.262002,90.169466L5.260117,90.176025L5.258855,90.180710L5.257468,90.185796L5.269347,90.224613L5.270317,90.181111Z M48.470966,73.457880L48.441258,73.448109L48.353236,73.447841L48.347273,73.453329L48.356412,73.460423L48.374907,73.462431L48.393421,73.468856L48.406839,73.467785L48.420243,73.463769L48.429361,73.463368L48.392730,73.487327L48.381139,73.498571L48.370884,73.496831L48.379286,73.509012L48.431120,73.516507L48.466831,73.503122L48.479231,73.473407L48.470966,73.457880Z M47.669750,71.671488L47.673700,71.622498L47.630518,71.622498L47.626568,71.671488L47.669750,71.671488Z M32.015316,37.816414L32.078374,37.782681L32.050558,37.779736L32.002253,37.798477L31.994061,37.811327L31.998413,37.819359L32.015316,37.816414Z M32.115201,37.742656L32.113582,37.738507L32.112357,37.743861L32.115201,37.742656Z M32.064230,37.708254L32.079191,37.704104L32.095041,37.696073L32.115527,37.683088L32.105843,37.682553L32.076947,37.690450L32.069004,37.696073L32.054192,37.702632L32.047055,37.709325L32.064230,37.708254Z M303.821936,32.239317L303.804935,32.239317L303.801958,32.251764L303.813991,32.269700L303.819903,32.273180L303.819715,32.274920L303.827669,32.287502L303.826888,32.294729L303.830865,32.299949L303.830474,32.303563L303.833242,32.307043L303.837900,32.307043L303.840841,32.308917L303.850157,32.308917L303.852910,32.312531L303.860596,32.312531L303.864014,32.308917L303.868789,32.308917L303.875539,32.303563L303.877667,32.283888L303.879557,32.280408L303.880150,32.274920L303.881496,32.262472L303.878555,32.260598L303.870788,32.246277L303.861473,32.246277L303.860249,32.244670L303.830672,32.244670L303.821936,32.239317Z M994.742532,29.387565L994.719564,29.343132L994.675005,29.316901L994.701881,29.355445L994.700299,29.380338L994.679357,29.393588L994.650445,29.396130L994.726253,29.416072L994.742532,29.387565Z M21.184707,0.033994L21.196464,0.031049L21.194187,0.025161L21.181988,0.013919L21.154633,0.036269L21.184707,0.033994Z M21.076558,0.000000L21.046820,0.008164L21.018267,0.027436L20.992959,0.058084L21.019610,0.053935L21.048379,0.042693L21.077441,0.025428L21.106111,0.002944L21.076558,0.000000Z "/></g></svg>