<?xml version="1.0" encoding="utf-8"?><!DOCTYPE svg  PUBLIC '-//W3C//DTD SVG 1.1//EN'  'http://www.w3.org/Graphics/SVG/1.1/DTD/svg11.dtd'><svg enable_background="new 0 0 1000 1103" height="1103px" pretty_print="False" style="stroke-linejoin: round; stroke:#000; fill: none;" version="1.1" viewBox="0 0 1000 1103" width="1000px" xmlns="http://www.w3.org/2000/svg" xmlns:xlink="http://www.w3.org/1999/xlink"><defs><style type="text/css"><![CDATA[path { fill-rule: evenodd; }]]></style></defs><metadata><views><view h="1103.11796653" padding="0" w="1000"><proj flip="auto" id="robinson" lon0="-55.8130198022"/><bbox h="81.77" w="74.2" x="-822.4" y="504.67"/></view></views></metadata><g class="" fill="black" id="country"><path d="M739.485274,1101.117967L742.965613,1100.318438L746.746343,1094.685202L750.259588,1093.309602L754.082615,1092.621826L783.806878,1076.919103L791.364619,1074.448342L794.883414,1072.665069L800.034230,1067.557349L811.111698,1064.214605L813.030687,1063.100443L851.164903,1040.473609L854.106462,1037.579224L855.079767,1034.685120L852.467621,1029.658209L848.462507,1026.727779L845.548217,1026.115763L846.136475,1027.896208L843.169495,1028.396976L841.344747,1026.004489L840.818557,1022.907520L841.702298,1021.386968L844.412234,1020.348587L847.486681,1017.882573L849.989724,1014.749355L850.987452,1011.894513L843.416303,1008.780444L841.021660,1007.223527L844.740256,1007.316199L850.364279,1008.632163L855.852970,1010.819382L859.117923,1013.599971L858.823214,1014.563968L857.909139,1020.107539L858.111689,1022.944607L858.905582,1024.891769L860.119313,1026.616502L861.567609,1028.026036L863.091868,1029.175967L860.385085,1032.106636L859.502564,1033.590629L859.083239,1035.519929L863.328577,1035.186003L879.750827,1031.327569L880.314293,1028.786469L879.601931,1025.281216L879.686052,1021.386968L881.426318,1018.309012L905.126700,990.250798L917.308829,980.397489L933.016537,970.621280L940.299217,968.214716L939.810255,964.142476L935.286549,955.851490L937.055806,942.771528L937.060264,940.311516L938.407600,937.981145L942.792133,924.667826L945.396627,920.785754L954.158308,913.041405L961.287175,901.197179L963.944979,898.296783L969.747792,893.697278L970.979000,890.446581L970.172822,880.068478L971.812648,868.715047L972.318742,849.892617L973.325151,842.015811L976.215049,834.527883L981.593877,826.119511L984.537834,822.985271L987.413143,820.740850L981.392923,821.104294L978.620252,818.552404L976.578813,814.572718L974.126849,810.874304L970.676300,808.697547L967.556475,808.674142L964.289587,809.329497L960.421733,809.329497L953.511031,800.038485L950.577243,779.802060L948.517584,742.489067L938.564593,708.522557L935.608269,691.851780L936.927949,681.493588L937.665138,675.723284L937.670998,675.699947L937.676859,675.676610L941.809203,668.465938L947.334718,662.772770L967.830916,647.329585L969.504351,644.857214L970.089059,640.729064L969.180098,632.333762L970.048893,628.253157L974.409599,622.540795L985.562027,613.215681L988.706501,608.133012L991.663501,603.355949L997.645615,597.972226L999.546328,594.756198L999.478474,590.654836L997.226264,587.276072L982.387425,573.599706L979.122756,571.456479L972.536442,568.614478L965.600977,564.724393L959.483467,564.677807L956.101943,563.676205L947.100720,558.621832L935.772593,554.988501L922.498090,542.389741L909.130070,533.821041L903.871177,529.164552L899.066882,523.809943L894.893147,517.990137L892.473843,515.266617L886.929089,510.960385L884.717169,508.004349L883.179165,504.187265L880.726831,492.853419L878.200515,485.197526L874.887986,478.915071L862.878328,464.513597L855.309756,451.370371L853.767647,443.438747L852.136312,440.345346L849.084833,438.554471L837.552592,436.158932L831.738791,432.728520L828.907852,430.542415L826.569155,428.240076L825.066789,425.821507L824.226031,423.542518L823.017954,421.240321L820.401389,418.798647L814.365748,415.031593L811.419900,413.775935L807.984487,412.776068L801.620526,412.148249L799.635959,411.427424L797.673221,409.869526L795.434495,406.544527L794.049591,405.033194L790.396619,402.568596L786.505245,400.941058L782.704843,400.545802L779.326467,401.847827L776.396146,405.126199L774.957697,407.474588L772.858109,407.683853L767.915054,404.544920L757.122750,395.709825L745.358708,388.223710L730.310651,376.065445L723.392655,369.231224L716.765240,363.768715L709.778578,359.189649L703.779513,354.145850L702.837358,352.430696L700.102832,347.452004L698.328003,338.318093L696.895854,334.367173L693.971338,330.253651L690.704358,327.255712L679.350595,319.075502L676.680603,316.054476L672.181673,308.990074L669.294828,306.457162L666.260805,305.527659L659.701199,305.550897L627.396588,300.949906L621.285895,298.649440L618.451889,296.976385L615.607983,294.443583L612.913751,291.492548L610.132782,288.983029L601.818127,285.288493L595.427980,279.711911L589.481664,273.182769L585.540724,267.792240L581.448343,263.517037L579.112404,264.376722L576.695274,271.626015L574.753628,275.157765L572.499373,276.551886L569.513491,275.994237L565.352601,273.577768L554.980557,265.236408L551.066081,263.005875L543.108062,260.078315L539.585329,258.080149L536.031338,254.502054L533.710251,250.436063L529.645220,241.095988L526.904377,237.634145L519.894868,233.428834L517.441848,231.337800L515.506041,227.481011L513.565806,219.442184L511.943156,215.748045L508.457281,211.496300L491.772770,195.348907L481.618256,187.286753L476.538192,181.989389L473.038752,179.387161L465.450143,175.321158L459.104013,169.001371L454.911738,167.886106L451.026192,168.838728L448.514909,171.835990L448.209737,175.832314L450.349528,185.102756L450.707374,189.377808L448.580687,191.701197L444.234242,191.352689L439.413156,190.376866L435.828514,190.818310L433.820896,193.792242L433.023289,201.505844L432.036025,204.990891L429.690360,207.685991L420.447568,214.725768L419.549381,216.166250L419.043108,217.467330L418.388900,218.675476L417.050687,219.860388L415.285142,220.348293L410.727321,220.394761L404.979536,221.626141L392.291911,220.812965L387.688656,221.514364L387.412517,221.556440L386.048731,219.794834L384.804483,218.187571L383.984051,213.331753L383.489249,203.062499L381.289332,188.332281L381.304377,183.453138L383.669774,177.342545L383.545775,170.674263L381.261239,163.936190L377.212399,157.732429L363.066792,147.415847L359.616639,143.767796L351.299791,131.220035L349.733912,129.337824L347.831957,127.734449L343.754103,125.294513L341.331674,123.458736L340.152833,121.274377L339.270708,118.904093L337.796411,116.440832L330.606458,109.097374L326.199490,105.379075L319.413462,102.171991L306.705466,92.550437L297.106777,87.507064L294.190678,85.229368L290.830345,81.440890L284.961371,73.491792L281.259532,70.167934L270.035113,63.543260L266.364524,60.544631L263.677670,58.592003L255.304444,50.316298L253.175698,47.503381L251.947103,46.248011L249.674612,44.922886L247.761433,44.667159L245.934865,44.713654L243.902740,44.202199L240.548711,42.249350L240.113012,40.784695L240.350605,38.436564L239.009208,33.879677L236.776011,30.833914L233.458151,27.997337L229.869653,25.741980L223.480484,22.835532L210.282638,14.511080L208.079124,12.162456L203.585052,6.069764L195.911894,1.162816L188.683606,1.372121L181.765803,2.627946L172.139506,0.000000L168.322999,0.139538L161.508825,1.488402L160.242909,2.000036L156.804421,4.000035L154.763154,3.976779L150.911484,2.232595L148.996870,2.069804L144.707404,5.465128L140.495239,11.953171L137.556418,19.231440L137.020559,24.974684L137.079648,32.042928L134.269352,38.390066L129.444803,42.853806L123.448745,44.202199L122.387278,43.551252L119.597251,40.900938L117.960195,40.110483L116.934545,40.691700L115.023366,43.620997L113.612336,44.202199L110.654789,43.063040L108.297962,41.156672L105.642762,39.552512L101.880013,39.389771L99.625008,40.575457L95.892672,44.550919L94.155071,45.504083L91.058252,44.736902L87.471600,40.180229L84.708021,38.831797L80.115550,38.924793L71.984157,40.459214L67.118259,39.947742L60.453959,35.879147L54.888947,24.114377L49.384923,19.370956L45.144593,19.510471L43.859958,21.649681L45.501684,26.602275L49.749533,36.274387L49.734275,45.039125L46.736800,52.245788L14.704302,87.367615L10.519690,94.014616L9.405699,102.102271L11.588033,110.886783L17.297177,119.601237L20.826976,123.946728L26.618955,133.334602L29.025836,138.353733L32.083190,146.291188L34.334595,152.132698L35.473574,156.212310L37.027687,161.775339L38.764474,171.162188L38.932789,173.508873L38.727535,178.922476L38.259752,182.314667L36.041196,183.220797L31.533298,182.686412L23.770135,184.847182L20.611419,187.286753L19.788098,191.259754L21.408105,193.838710L31.445236,205.850536L34.726162,216.352118L32.471198,224.019202L28.900721,231.523669L28.132892,241.444497L31.086973,251.435133L32.045404,257.266943L30.625770,259.845970L28.094553,268.349878L26.932063,269.813681L24.211885,272.323068L23.152246,273.810120L22.178848,278.433957L22.957501,288.634486L21.821882,292.863498L19.272801,295.489233L12.852269,299.904237L9.749418,302.971544L8.519158,309.919589L14.158434,315.682661L16.709349,317.441490L22.247381,321.259960L28.392112,327.674027L31.485861,337.713829L31.459136,347.614699L25.962614,382.318802L24.544588,385.550197L20.263711,387.410026L11.559407,389.223384L7.688455,391.060015L5.080458,393.315153L0.907066,399.290291L0.453672,403.917144L3.583443,408.451159L10.780245,415.333883L13.867669,422.379787L16.253995,431.984309L17.457774,442.112992L16.989587,450.812113L14.017166,457.767296L13.747388,462.373340L16.738875,467.142456L32.809773,484.639067L35.943253,491.201179L36.191816,498.043060L27.279923,515.639058L24.312441,525.649093L22.893705,528.093600L22.914244,528.621029L22.918607,528.636406L24.338236,533.732857L31.222613,550.674668L33.381407,554.232221L36.214992,557.459848L41.124316,573.196698L43.772457,578.993482L42.671023,580.681250L44.798195,584.607313L46.070971,589.744578L47.541911,599.910252L48.702486,604.626660L50.467511,608.756109L53.096908,612.500386L62.873114,621.201227L67.661568,626.598597L70.521441,633.355196L70.776024,642.408090L69.507010,650.911431L69.366793,654.970725L70.004349,660.206008L69.417830,664.008796L67.047512,668.087451L61.143469,674.757282L54.830763,678.211964L46.827039,678.910279L29.027091,677.844434L21.775572,680.747995L20.162983,687.989238L22.092739,697.547796L28.892085,717.148631L29.566134,722.335176L28.424204,726.860073L22.859869,733.611444L20.621622,737.235882L20.185789,741.357418L22.214378,745.810568L28.278308,750.227347L30.293005,754.644561L29.918739,759.540819L25.044644,768.119786L23.291254,772.538797L23.322665,777.897455L24.830782,782.630575L26.803312,787.087926L28.301482,791.803653L29.367733,811.187989L33.942281,830.766020L43.611349,857.365099L45.873687,862.015392L49.321125,866.389410L52.944723,869.176500L60.857254,873.477522L64.880097,876.468229L85.259563,899.682293L88.346854,904.504291L92.154797,913.041405L95.028043,915.721234L100.337203,916.756258L104.761979,917.015019L109.942392,917.939181L114.988866,919.898485L118.922561,923.114944L123.272303,930.547230L126.119442,934.023584L132.885346,937.000958L150.031019,953.631047L154.982709,959.867173L160.704760,965.017597L161.955583,974.158962L166.428416,979.665048L172.009830,981.293763L174.258823,984.729526L172.764189,986.547526L179.132658,987.490134L184.510070,986.827389L190.100685,987.304868L194.359132,984.351415L197.884271,984.819221L207.657725,980.737629L214.576905,977.327707L219.861704,976.194847L224.716109,976.429426L231.832131,982.598175L237.919079,979.632807L242.715638,977.120491L247.613463,977.574832L250.465023,980.541439L254.717441,977.567448L263.383987,977.325079L267.383836,980.287435L277.573782,979.575958L294.413386,979.972086L304.447713,981.987956L310.982269,984.731085L314.936906,987.657524L319.238497,991.695714L320.591281,992.733131L323.702429,994.641327L325.225235,996.216140L325.523655,999.332026L328.765762,1001.836220L334.437206,1005.016714L338.410918,1007.744463L343.063955,1011.611210L348.489546,1016.714531L355.575371,1021.220083L359.037225,1024.020167L362.627987,1029.621113L366.225333,1031.921142L382.238939,1038.375205L397.994542,1040.323365L411.310194,1043.881327L415.093531,1046.151880L418.695138,1047.710811L426.562556,1052.165359L429.757171,1053.557544L432.873501,1054.003057L436.389467,1051.219971L442.989885,1050.930074L450.091034,1052.007226L460.760910,1056.023602L464.745773,1057.586081L468.132379,1060.758849L463.544995,1061.953092L460.970845,1065.188950L458.290073,1067.965933L459.360900,1071.346261L462.779848,1074.021090L475.353583,1080.690677L482.230047,1085.763586L486.496101,1085.148546L490.781995,1085.782677L492.562883,1085.763586L495.723673,1082.726979L496.197157,1079.271556L499.278528,1079.691157L501.711478,1081.498214L501.963185,1084.053933L500.779057,1086.108563L504.506145,1087.436612L507.865629,1088.079669L512.917013,1093.758527L513.190889,1088.997345L515.551777,1087.281331L520.661013,1083.990124L527.461268,1084.580717L538.439150,1077.297190L546.511818,1070.517936L557.280249,1062.319207L562.543890,1059.943111L574.302593,1055.625259L581.353292,1057.571734L592.463843,1053.482699L601.946071,1057.214394L610.037146,1055.233081L618.331481,1058.750705L628.503041,1061.312931L636.145934,1060.477328L648.810876,1061.522121L653.573929,1061.856347L661.575873,1065.811645L673.735385,1078.925593L679.572324,1083.812360L687.069680,1085.206079L703.620300,1081.136611L712.501996,1080.690677L716.757396,1081.563971L718.621947,1082.381546L720.790284,1083.812360L722.401753,1085.837921L722.491620,1087.287495L723.106849,1088.179578L730.715712,1089.146032L734.381399,1090.855995L737.389096,1093.402545L739.911429,1096.432685L740.074236,1097.362242L739.934635,1098.812412L739.485274,1101.117967Z "/></g></svg>