<?xml version="1.0" encoding="utf-8"?><!DOCTYPE svg  PUBLIC '-//W3C//DTD SVG 1.1//EN'  'http://www.w3.org/Graphics/SVG/1.1/DTD/svg11.dtd'><svg enable_background="new 0 0 1000 551" height="551px" pretty_print="False" style="stroke-linejoin: round; stroke:#000; fill: none;" version="1.1" viewBox="0 0 1000 551" width="1000px" xmlns="http://www.w3.org/2000/svg" xmlns:xlink="http://www.w3.org/1999/xlink"><defs><style type="text/css"><![CDATA[path { fill-rule: evenodd; }]]></style></defs><metadata><views><view h="551.378869587" padding="0" w="1000"><proj flip="auto" id="robinson" lon0="63.3888569334"/><bbox h="138.29" w="251.27" x="743.11" y="-762.47"/></view></views></metadata><g class="" fill="black" id="country"><path d="M942.217563,366.527245L942.507308,365.708682L942.476189,361.477954L942.041280,360.790349L940.808765,361.187162L939.244792,362.579726L938.437897,363.014355L937.095962,363.082805L936.508679,364.068602L937.324884,365.023812L938.725860,365.814846L939.913615,366.284057L941.422139,366.681385L942.217563,366.527245Z M907.584908,357.275121L907.336473,357.155500L907.106928,357.005125L903.713166,355.812567L901.973608,354.907268L900.721687,353.814334L899.436640,352.008192L898.049508,350.397304L896.609435,349.680789L895.166078,350.550859L894.842836,352.609016L894.872082,353.773354L895.138470,354.869694L895.751298,355.935566L897.906730,358.693737L898.767732,359.521201L899.584583,359.876856L901.116346,360.167839L901.879705,360.636423L902.695721,362.566038L901.385813,365.992935L901.970201,367.678292L902.749858,368.003793L903.387516,367.558377L903.930228,366.866361L904.416119,366.458740L905.462009,366.506693L905.889845,367.075324L906.235933,367.805063L907.031598,368.356732L907.853716,368.425267L910.232106,367.777653L912.043673,367.739964L912.717568,367.476152L913.058260,366.671109L912.563306,364.630061L909.462673,362.216999L908.830798,360.506446L909.473761,359.695605L911.496888,358.051028L911.553574,357.015378L910.956114,356.400261L910.236969,356.280666L908.956522,356.629211L908.716422,356.782990L908.251791,357.237526L908.010203,357.329806L907.584908,357.275121Z M745.431347,549.378870L746.600529,549.140372L748.371316,547.798857L749.704141,547.486722L751.011593,547.374494L752.120537,547.041322L753.087974,546.476690L753.982661,545.671846L755.350514,543.872867L756.177894,543.120698L757.243038,542.808616L758.656487,543.424018L760.377040,546.231201L761.469361,547.020279L762.009044,546.799335L762.277769,546.154048L762.448269,545.478968L762.716151,545.168611L763.271735,545.094968L764.242428,544.779356L764.848235,544.702206L765.525637,544.895080L766.942561,545.791081L767.624247,546.094430L768.341329,546.182104L770.282034,546.094430L771.489216,546.374987L772.601704,546.953645L773.467283,547.858478L774.026631,549.126343L774.033031,548.128531L774.574258,546.101444L774.641641,543.800981L774.330191,541.360462L773.438468,538.502975L771.029691,533.143084L770.539413,530.293679L771.045169,526.123723L772.394206,522.133387L774.343264,518.609791L776.609232,515.834549L779.234865,510.369631L780.068254,507.263526L780.656932,500.354007L781.381634,499.381736L782.944881,498.815197L785.411959,498.475986L786.185855,498.224207L786.409739,498.027165L786.889069,497.605273L787.082579,496.752107L787.069689,495.722448L787.186286,494.568780L787.190609,494.563536L787.194933,494.558293L787.192707,494.549553L787.197031,494.544310L787.525202,493.256190L788.847162,490.079358L789.248334,486.344559L789.124516,482.384156L788.210673,479.779677L786.358478,477.727317L781.045248,473.962342L777.810797,472.413537L776.634774,471.482291L773.681696,467.889030L771.024208,465.896911L770.256750,464.941977L769.815631,463.961018L769.145169,461.816561L768.567149,460.788955L766.730452,458.831646L766.091563,457.940222L765.561500,456.460543L764.732947,452.590358L764.258027,451.230003L762.866677,448.711747L762.396605,447.480763L762.558806,446.467272L763.689462,445.523447L763.862968,445.111541L763.703215,444.355574L763.296676,443.733483L762.818020,443.137509L762.475213,442.458197L762.276812,441.002505L762.789340,440.637761L763.764575,440.669024L764.974561,440.415451L765.760383,439.890968L766.405733,439.177249L766.841492,438.269147L767.029605,437.151119L766.698290,435.670542L765.794454,434.316967L765.017509,433.515847L763.611868,432.066840L760.728748,428.154868L759.635229,427.182457L759.623500,427.180723L759.612271,427.170324L759.601005,427.170324L759.147469,427.064599L758.692287,427.026469L758.257484,427.064599L757.857636,427.170324L757.121988,427.811646L756.299242,428.127132L755.360088,427.964187L754.312174,427.182457L753.819318,426.939811L752.820235,426.636517L752.035448,426.629585L751.322117,426.827157L750.688395,427.175524L750.674313,427.175524L750.675699,427.180723L750.670066,427.180723L750.670528,427.182457L746.890321,428.524112L745.432090,428.548382L738.174939,427.461511L736.995459,426.564875L736.925555,426.511738L736.919129,426.496843L736.213654,424.862118L735.446427,419.663224L735.099786,418.745839L735.088428,418.732932L734.383954,417.932429L734.006236,417.825137L733.149500,418.010304L732.761312,417.948004L732.373545,417.634785L731.740071,416.887279L731.434189,416.627751L729.062727,415.800801L724.590750,415.641653L717.411958,413.398482L715.517323,412.037794L715.510916,412.022503L714.402759,409.379621L714.239639,408.425895L714.226892,407.959460L714.405828,407.662344L714.800709,407.227064L715.330829,407.043980L715.859185,407.189065L716.185721,407.064706L715.999386,404.847463L716.081991,402.600077L715.475016,400.136306L715.107798,397.453026L715.090390,394.884882L715.425558,394.278371L716.225341,394.181887L717.674265,394.364518L717.928046,394.305938L718.147138,394.181887L718.318420,393.985479L718.439089,393.747733L718.438151,393.744288L717.256516,390.792362L718.060389,389.797304L722.228278,389.150108L726.345131,385.722793L728.194481,385.107100L730.758131,385.158691L750.583287,389.718121L758.782987,389.955673L763.640754,391.463882L766.357049,391.646413L768.989887,391.405335L772.096998,390.565099L773.040106,390.096833L773.024169,390.075181L772.403941,389.232676L772.102356,388.823101L772.560843,387.825004L774.490717,386.424574L775.435824,385.120857L775.794485,383.810621L775.645238,382.212007L773.178895,371.500175L773.336720,370.073862L773.977549,370.118427L774.780653,370.399542L776.188318,368.853636L777.259764,369.487700L779.335850,371.709361L780.165040,372.062598L780.407450,371.630486L780.338914,370.972111L780.250351,370.639532L780.212916,370.546963L780.317269,369.549397L780.472236,369.443141L781.015289,369.350597L781.182096,369.216926L781.480208,367.945544L781.229424,367.013662L779.323554,364.582129L778.391577,363.151255L777.844747,361.912469L778.070000,361.395846L779.412391,362.131455L781.165109,364.404099L782.808187,367.270595L784.563542,369.076404L786.613383,368.168266L786.011927,366.695087L779.469354,360.506446L779.010668,359.842657L778.751274,359.220286L778.477348,357.863019L778.148365,357.360566L776.976749,356.636045L776.691272,356.041485L777.045125,354.825288L778.081278,355.467506L779.907495,357.534880L780.548142,357.326388L782.018572,355.754486L783.021436,355.423094L787.133064,356.003901L788.311633,355.815984L788.520990,355.006329L788.327285,354.043144L787.861903,353.032375L787.241768,352.107185L784.223394,350.404129L772.203747,352.719936L771.716266,352.813862L769.602222,352.124254L766.767516,350.701006L764.950917,349.254348L765.868825,348.514147L767.918833,347.968900L770.715519,347.225064L771.889791,347.122772L775.176158,347.634255L776.399046,347.477394L777.990895,346.468161L778.948108,346.052260L787.389851,344.777533L788.679811,344.968377L790.627528,345.775192L792.744541,346.652260L798.012761,348.016202L800.732817,348.098052L802.513921,347.225064L802.058461,345.663668L797.151901,342.358605L796.357951,340.410790L797.730532,340.243971L800.032708,340.986193L801.694176,340.706994L801.146716,337.480438L800.373197,336.021072L799.418163,334.772986L797.312806,332.413767L796.440896,331.241401L794.188217,327.539328L794.182627,327.539328L790.997545,324.131891L790.616792,322.775017L792.186923,321.543982L795.394093,321.289674L796.040409,320.852296L795.998948,319.964098L794.585454,316.477256L793.893933,314.066013L793.684517,312.102645L794.003856,310.397157L794.887101,308.759876L795.476268,308.168011L796.206097,307.728383L797.801328,307.197497L798.808740,307.298936L799.691131,307.836596L800.566645,308.499447L801.553492,308.976346L803.325422,309.131940L804.865539,310.184010L807.881543,313.206100L808.677196,313.734219L810.288571,314.560360L811.085914,315.224079L812.542107,316.778743L813.307396,317.466472L814.160958,318.039086L815.996764,318.608378L817.320484,318.198346L818.291938,317.137841L819.759386,314.482480L820.578402,313.652966L821.602151,313.104545L830.686744,310.221226L834.692778,306.602427L839.671167,304.557385L842.916275,302.391511L844.922964,299.173025L844.289002,292.286433L846.165763,291.794133L848.852655,292.711329L849.722101,293.375963L851.080591,294.414603L851.285066,294.633874L851.514642,294.826165L853.638162,296.192630L866.637847,306.413101L867.261168,306.987862L867.527278,308.198448L866.351687,307.833214L864.011002,306.328582L862.967085,306.436766L862.713690,307.265123L863.190582,308.391221L864.345535,309.399166L869.610131,310.454674L872.014378,311.557775L872.224437,313.764689L872.272446,314.311558L872.274964,314.340268L871.586399,314.827869L871.479349,315.098778L871.484200,315.406956L871.377517,315.660962L870.546349,315.847242L870.154235,316.053851L869.552280,316.616141L868.952117,317.303848L866.425645,319.794613L865.189748,321.971248L864.665194,322.517254L863.957222,322.873378L863.220737,323.080281L862.560770,323.392348L862.033979,324.070824L861.351124,326.120400L861.005875,326.782287L860.545372,326.979174L857.065577,327.787174L855.748416,328.751522L855.275779,330.025170L855.777599,331.407893L855.957055,331.717108L856.105135,331.893812L857.108660,332.862402L857.070766,332.838609L857.218786,332.940578L857.837869,333.457250L858.072412,333.736005L858.024508,336.024474L861.054651,337.140218L862.281948,337.446415L863.438592,337.347749L864.369358,337.055167L865.368268,336.953108L866.705064,337.419197L868.798454,339.610796L870.429921,342.658344L872.232287,345.459159L874.850637,346.921605L877.175652,347.057988L879.446575,346.880691L886.506517,344.665074L891.185638,344.259567L892.333037,344.361792L893.734892,342.501660L896.729193,341.997582L903.274235,342.842285L904.938888,342.682188L905.367740,341.568480L905.407142,340.111201L905.889601,338.909641L906.596026,338.691829L907.267734,339.100235L907.957576,339.791207L908.704901,340.403981L909.546232,340.706994L910.461468,340.781899L912.109638,340.615066L913.225328,340.686565L915.375924,342.174684L918.014035,342.876349L918.773010,343.666707L919.497810,344.641220L920.748010,345.520511L922.105607,346.198844L923.477433,346.645441L926.167741,347.119362L927.468984,346.996615L927.710164,346.236342L927.494472,345.094476L927.443991,343.833653L928.179921,343.009201L929.372013,343.785954L930.589973,345.278518L931.375055,346.618167L932.174180,349.325987L932.812995,350.332472L934.045160,350.779494L934.733064,350.571333L937.110067,348.998504L937.748094,348.217419L938.065316,347.320538L938.444889,345.223986L939.647439,343.649671L941.591402,343.544056L943.870943,344.027865L946.060023,344.194825L946.630101,344.007421L946.930133,343.963127L947.382474,344.051716L948.107371,344.300457L949.004230,344.433351L949.710708,344.252752L949.845927,343.537242L949.386206,343.019421L948.962793,342.799256L948.495255,342.556158L946.720836,341.874978L945.492893,341.187090L944.806118,340.199714L944.806128,340.199167L944.824097,339.267012L948.831032,337.051765L949.858312,335.728575L950.077576,333.888988L950.025297,332.661870L950.314218,331.982166L953.347867,330.137268L954.191280,329.916472L956.622811,329.797101L957.028050,329.777207L958.050264,329.882505L958.662199,330.254270L958.676496,330.262956L958.663764,330.928820L957.955212,331.170050L957.056566,331.248197L956.482558,331.418087L956.410982,332.017319L956.409091,332.033140L957.160804,332.240442L959.577972,332.135091L960.456938,332.410368L964.192168,334.150770L965.814706,334.660777L967.013658,334.412566L967.683883,333.011957L967.752572,331.350130L967.333837,329.814570L967.323813,329.801102L966.762062,329.046494L966.357836,328.503625L966.352804,328.500830L963.521810,326.928254L962.862561,326.334230L962.860391,326.327553L962.621994,325.594349L962.653661,324.525456L962.294688,323.351642L962.282245,323.338605L960.562576,321.537200L960.561375,321.528727L960.408233,320.448858L961.803762,319.781054L964.058205,321.242205L966.447133,323.171864L968.229092,323.887626L970.394040,324.145462L974.959736,326.568437L977.070492,326.453029L977.712265,325.838701L977.980618,325.031030L977.941365,324.097965L977.711427,323.127768L977.789643,322.035681L978.775289,322.042463L981.027501,322.883553L982.393594,322.212026L981.655267,317.839172L982.371040,316.009819L984.029052,315.261331L987.632745,314.343654L991.419975,311.659299L995.941918,309.930276L998.079128,308.590765L999.091535,306.578761L998.387058,305.260385L998.382590,305.259511L997.907482,305.166564L996.607538,304.912253L993.485782,305.098146L992.165022,304.385030L991.111695,303.425345L990.074626,302.884754L986.620174,304.584422L984.629817,306.189975L983.967780,306.284633L983.767507,305.196165L982.924445,303.280056L980.677821,302.759750L973.903340,303.337495L971.500722,303.080712L969.140618,302.236115L966.933385,300.554073L963.566593,297.242167L962.405658,296.870925L961.040378,296.786556L959.917481,296.324233L959.452150,294.826165L959.415736,294.431470L959.281533,294.097519L959.045060,293.827675L958.703980,293.632045L955.751028,293.375714L954.092439,292.964258L952.760178,292.316782L950.509401,290.098382L949.647482,289.650086L948.892934,290.378163L948.758961,290.850114L948.686254,292.566321L948.374691,292.866457L946.471370,293.122766L943.644266,293.988115L942.151681,294.444963L942.394510,292.890064L942.391996,291.723326L941.985910,290.445583L940.405289,287.038522L939.717555,285.179123L938.894586,283.404478L937.875951,282.152103L936.262262,281.408207L935.008025,281.596697L933.994594,282.347349L933.135576,283.303470L931.807979,284.189028L930.733788,283.737815L929.566867,282.663795L927.947722,281.674114L923.883398,282.343982L922.281328,281.721238L921.122699,278.978555L920.369707,276.203459L919.371403,274.058225L917.891481,272.132164L910.637535,265.276234L910.093667,264.917005L909.589120,264.749147L909.332815,265.024436L909.734282,266.394333L909.411489,266.740209L908.837290,266.528652L908.212471,265.484395L907.563824,265.266162L907.428966,265.625410L907.434053,266.333891L907.287320,266.864460L906.720531,266.693196L906.422648,265.904093L906.239150,262.255265L905.797896,260.902972L905.107569,259.641515L904.144510,258.776071L902.912887,258.611716L901.863807,259.047769L901.444717,259.765637L901.178594,262.255265L901.179673,262.258621L901.186314,262.261977L901.190631,262.275401L902.077547,263.356086L904.158819,265.125154L904.741764,266.317101L904.923943,267.613373L904.854541,269.793427L904.190399,273.322018L903.156666,274.740720L901.424583,275.070227L898.805306,274.152358L895.505634,271.937237L894.714638,271.769201L894.644175,272.595979L898.688834,283.832095L899.113922,286.095275L898.205446,287.048629L893.600022,284.141885L892.750925,285.724755L892.565068,286.974511L891.861070,287.021677L890.960797,286.347916L890.157923,285.435092L888.721052,282.980257L887.859712,282.192498L886.547752,282.094877L885.608900,282.650328L885.748490,283.552625L886.378399,284.721099L886.920201,286.088539L886.786969,287.348479L885.774781,286.822910L883.749757,284.724467L882.684861,284.084640L880.595300,283.835463L879.456973,283.333772L878.096265,282.532501L876.734150,282.027553L874.037385,281.600063L871.820818,281.919836L870.712988,281.815487L869.462199,280.963933L868.424440,280.028370L867.278523,279.200616L866.107325,278.558006L864.947699,278.164399L863.767660,278.272050L862.864682,278.729587L862.035103,278.854070L861.087640,277.965922L860.635309,276.829009L860.172372,272.834622L859.639148,271.463388L858.707657,270.136121L854.185302,265.393744L852.928489,264.289238L851.727570,263.711877L849.977559,263.963627L844.475462,267.408505L842.840823,268.046640L842.489289,268.032224L841.530312,267.992900L840.498152,267.304395L838.472642,265.054651L837.393006,264.128109L836.256606,263.382938L833.899024,262.275401L833.884720,262.265333L833.872538,262.261977L833.864856,262.255265L826.037173,261.486808L823.753518,260.540615L822.108528,258.447364L822.708606,256.767171L829.947526,252.142781L832.421938,249.845904L833.932170,249.077083L835.240312,248.093976L835.960749,246.385978L836.554014,243.330929L838.097195,240.839207L842.086211,236.739294L843.450513,235.851327L848.620508,235.297857L850.275335,234.659153L850.519897,233.572461L849.473770,229.858658L849.639012,227.491111L851.680145,226.964887L854.353588,227.070129L856.410722,226.594042L862.326877,221.508905L866.375962,220.353638L867.958121,219.096685L867.969246,216.686708L867.772979,216.633058L865.887576,216.117674L856.783280,211.287956L854.869905,210.655829L853.239253,210.865978L851.372448,212.430544L850.528705,213.419772L849.148176,214.749451L847.767520,216.080964L846.912258,216.548201L846.055245,217.010453L845.084571,217.142290L844.114416,217.275798L842.772618,216.967064L841.424787,216.656670L840.795366,216.680032L840.160403,216.703395L839.929096,217.165654L839.693820,217.632940L839.672698,218.230430L839.653135,218.832962L839.503195,219.265271L839.361518,219.697599L838.878893,220.503882L838.387757,221.310229L838.101491,222.363756L837.819948,223.415725L837.715698,224.596406L837.602826,225.777231L837.340056,226.727678L837.080913,227.681562L836.354445,228.040756L835.640079,228.403305L834.973113,228.321438L834.313322,228.244583L833.687304,228.040756L833.053522,227.838603L832.523780,227.461041L831.985185,227.081823L831.600899,226.477111L831.216037,225.870768L830.884577,225.446519L830.546412,225.027298L829.979942,224.596406L829.409079,224.160522L828.820074,223.848235L828.223914,223.530948L827.803181,223.464152L827.386911,223.394017L825.105535,224.411027L822.815776,225.429816L821.948619,226.323434L821.095029,227.217137L820.856486,228.540309L820.615378,229.856987L820.609811,230.425156L820.589236,230.990018L820.362785,231.337643L820.132447,231.681939L819.761458,231.890863L819.384362,232.098120L818.951757,232.253566L818.514126,232.410687L818.123912,232.646372L817.743602,232.887079L817.472963,233.244809L817.200580,233.605896L816.295717,236.441623L815.379258,239.283311L814.924826,239.997648L814.479628,240.715394L812.718622,242.207970L810.962903,243.694126L809.618605,244.189572L808.276272,244.691745L807.956100,244.994739L807.636957,245.301092L807.429429,245.801661L807.221832,246.302263L806.678383,247.171276L806.135757,248.043735L805.161226,248.474140L804.175476,248.904570L801.212683,249.003387L798.251426,249.107231L794.914454,250.018438L791.577322,250.931430L791.219099,251.258124L790.868112,251.581480L790.349983,252.389096L789.839982,253.196799L787.723451,255.154421L785.597758,257.105861L784.203847,257.545176L782.810843,257.987871L782.247121,258.460780L781.677748,258.933721L781.598102,259.782411L781.509951,260.631203L781.720632,260.976787L781.921912,261.319034L782.599069,262.063982L783.283844,262.815722L783.421799,263.151347L783.559737,263.486988L783.292907,263.648102L783.034762,263.819289L781.344864,263.554119L779.665104,263.285602L779.287667,263.386294L778.921344,263.486988L778.070258,264.094541L777.220744,264.698790L776.845297,264.752504L776.466022,264.802861L775.590340,264.544366L774.709815,264.279167L774.303780,264.359733L773.891480,264.447013L772.684550,265.289664L771.483903,266.135777L771.005001,266.726777L770.530502,267.314470L770.466793,267.989541L770.402979,268.664681L769.848917,268.483293L769.290338,268.305270L768.827640,268.446345L768.365965,268.590782L767.293625,269.145046L766.222158,269.702717L766.050378,269.867340L765.880660,270.038686L765.828715,270.267155L765.773975,270.495632L765.931993,270.764439L766.084438,271.033256L766.420141,271.318887L766.759661,271.607891L766.920161,271.695267L767.071278,271.779283L767.182663,271.896908L767.296829,272.014535L767.486203,272.394316L767.682159,272.777481L767.870047,273.315295L768.056855,273.849792L768.584849,276.943364L769.117643,280.041830L769.015899,280.418731L768.918657,280.792290L768.580316,281.206260L768.247484,281.620259L767.506516,282.202597L766.753233,282.781624L765.912790,283.212565L765.079873,283.650270L763.960454,283.788322L762.849362,283.926377L762.342560,284.091375L761.839551,284.259744L761.614040,284.680687L761.403429,285.105028L761.052922,286.159277L760.704159,287.220451L759.083016,287.965072L757.453195,288.709788L756.935535,289.474822L756.434404,290.239956L756.231632,292.849595L756.031082,295.463807L755.677051,296.074527L755.313782,296.692063L753.855776,297.360294L753.423732,297.557541L752.399287,298.025231L751.788334,298.497823L751.182863,298.970456L751.116263,299.733506L751.051550,300.503417L750.907556,300.432500L750.768129,300.358206L750.484177,300.267029L750.205805,300.175854L750.062064,300.115071L749.928467,300.050913L750.025651,300.412238L750.127378,300.770210L750.412917,301.499735L750.704964,302.232737L750.766549,302.550290L750.824314,302.864482L750.764318,303.232753L750.696928,303.604428L750.553733,303.722694L750.422702,303.844341L750.319757,304.013300L750.220363,304.175506L750.264796,304.679052L750.320339,305.182645L751.405160,307.921138L752.497157,310.661065L752.858144,311.283670L753.217849,311.892813L753.519630,312.156797L753.820403,312.417410L754.117481,312.552799L754.420144,312.688191L755.151225,312.837127L755.871150,312.986067L755.969464,313.392290L756.063167,313.801930L756.288302,314.221761L756.507828,314.641627L756.805079,315.041209L757.109907,315.447596L757.449141,315.809985L757.789370,316.175788L757.798761,316.395960L757.813728,316.616141L757.450521,317.615548L757.087820,318.608378L757.680748,318.865936L758.281065,319.120119L758.246276,319.550564L758.203062,319.981047L757.717881,320.296306L757.241035,320.611586L756.492221,320.516661L755.735828,320.414957L754.514192,319.920031L753.287010,319.425155L752.959129,319.374314L752.634043,319.323474L752.425844,319.479386L752.221428,319.638691L752.154565,319.923421L752.087680,320.208167L751.962878,320.438688L751.821296,320.669220L751.407405,320.648878L750.993516,320.628537L750.750151,320.940447L750.512339,321.252377L750.471853,321.418522L750.431360,321.584672L743.152376,318.496548L738.369272,316.466074L735.873828,315.406956L733.663660,314.086328L731.465736,312.769429L728.332183,310.515575L725.194842,308.259323L724.245448,307.833214L723.297870,307.403758L722.169753,307.194115L721.035084,306.981100L720.824263,306.862762L720.611652,306.747807L720.622143,306.490859L720.629828,306.233923L720.815361,306.031088L720.995297,305.828260L721.827917,305.436150L722.659448,305.040688L723.010484,304.709469L723.357901,304.385030L723.634562,303.972750L723.911168,303.560502L724.087843,303.131392L724.253307,302.702316L724.414137,301.854401L724.579361,301.003242L724.656716,299.932727L724.740390,298.865798L724.679871,297.765322L724.614528,296.668440L724.348425,295.740478L724.074580,294.805923L723.737516,294.424723L723.403230,294.043549L723.231348,293.888389L723.051103,293.733232L722.798569,293.625299L722.545028,293.513996L722.747900,293.409441L722.942403,293.304887L723.444389,292.886692L723.937941,292.468527L723.846267,292.404456L723.745220,292.337014L723.462748,292.259457L723.183065,292.181900L723.159010,291.878428L723.138734,291.578344L723.109144,291.507539L723.081329,291.433365L722.773712,290.742237L722.459440,290.047821L721.895945,290.101753L721.337007,290.152315L721.182940,290.883827L721.028739,291.615432L720.641389,291.271532L720.241876,290.924282L719.892266,290.873713L719.550253,290.829887L719.253667,290.974851L718.953515,291.126561L718.701136,291.372677L718.453298,291.615432L717.930427,291.079362L717.418686,290.543342L716.822452,289.279341L716.232579,288.018985L715.785554,287.439448L715.338499,286.859967L713.718003,285.435092L712.100994,284.003825L711.803213,283.643536L711.504409,283.279902L711.429961,283.236133L711.347158,283.192364L710.748217,282.266557L710.139815,281.337525L709.573565,281.741434L709.012814,282.145370L707.737620,283.091360L706.461025,284.034130L705.964144,284.104844L705.466246,284.172191L704.819107,283.983621L704.170970,283.791689L702.878384,283.252967L701.579269,282.710926L700.920034,282.556066L700.257014,282.397844L693.475657,282.771525L686.600391,283.158695L682.294184,283.401111L675.528350,283.774854L669.859281,284.091375L662.126271,284.522409L656.950704,284.805292L650.792694,285.148811L648.417260,284.623437L647.482265,284.415166L646.043763,284.094742L644.450193,282.754692L642.839887,281.414939L637.697711,271.829694L632.532576,262.255265L628.410729,254.239234L624.288051,246.235291L620.875568,238.052185L617.459721,229.875368L617.306249,229.808527L617.151758,229.738344L616.957543,229.701582L616.765082,229.661478L616.560625,229.654794L616.352886,229.646439L616.166423,229.671504L615.969376,229.698240L609.481002,229.671504L603.613546,229.653123L597.720646,229.633071L591.252265,229.608007L590.971310,229.449264L590.693374,229.282170L590.526683,228.932953L590.366031,228.585420L586.732896,215.997530L583.649710,205.369830L583.083454,203.424712L583.106806,202.978017L583.125097,202.533005L583.688268,202.313005L584.251407,202.093009L584.346423,201.538036L584.446906,200.983088L584.056330,199.281730L583.665856,197.582261L579.869331,181.578835L576.037363,165.586790L569.485798,169.275555L562.926584,172.961589L562.454095,172.915011L561.970573,172.868432L556.605068,166.622847L550.345737,159.351351L545.812978,154.087982L538.712778,145.840262L537.404424,145.017561L536.093402,144.194871L529.668704,141.165135L523.237777,138.135514L519.824154,135.674322L516.402996,133.204859L508.630183,126.652370L500.861511,120.104708L499.741316,119.401725L498.639739,118.705385L497.756662,118.585727L496.869147,118.469392L496.015875,118.788481L495.156010,119.104244L490.766477,121.631972L486.289514,124.206172L481.946886,126.700562L477.404366,129.304609L476.553232,129.538923L475.696557,129.773236L472.695769,129.543908L465.148986,128.957292L457.601416,128.365691L450.041877,127.777413L442.493571,127.187472L434.200581,126.541028L425.899023,125.899569L417.600323,125.246474L409.304554,124.600025L404.658655,125.297991L400.016087,125.990969L395.372867,126.683944L390.728994,127.376918L386.079473,128.071552L381.434296,128.764524L376.789463,129.460818L372.142981,130.153788L369.285992,130.637372L366.430209,131.125942L363.574139,131.614511L360.711293,132.099758L358.931932,132.402206L357.141957,132.706317L355.352365,133.012089L353.573659,133.317862L349.389022,134.025190L349.277291,134.044074L348.083600,133.635268L346.884473,133.226463L341.700643,129.208224L337.821669,126.193710L333.937490,123.177495L330.053124,120.157888L326.176047,117.141505L322.208703,114.058510L318.242235,110.975346L314.270677,107.890319L310.311488,104.806719L305.481575,101.057829L301.755077,98.307804L298.035893,95.560838L290.252325,89.816520L285.840416,85.441610L284.880262,83.937624L283.547315,80.603148L282.744310,79.038864L281.280546,77.331306L279.515155,75.989772L275.651496,74.082143L270.212906,71.395096L262.817843,67.741686L253.793836,63.277738L243.451918,58.159032L232.125563,52.544711L220.125768,46.594041L207.768757,40.449811L195.379494,34.289343L183.272370,28.254539L171.755388,22.510457L161.161024,17.214971L157.148317,15.209309L151.782942,12.526176L143.946975,8.602292L137.963383,5.604919L134.135192,3.688883L132.794083,3.012169L128.078575,0.650074L126.486638,0.100529L125.224687,0.000000L121.269368,1.058866L118.334876,1.852957L115.395397,2.650346L112.455405,3.447683L109.518423,4.238268L106.694107,5.025451L103.879220,5.809233L101.062897,6.589615L98.247995,7.376643L92.166842,9.128009L86.082403,10.875764L80.002015,12.626599L73.918354,14.373817L69.371984,15.752654L64.824235,17.131320L60.276044,18.513158L55.719162,19.888129L51.168216,21.269614L46.614962,22.647576L42.064853,24.022013L37.503415,25.399613L36.500195,25.702878L32.946053,26.777030L28.392771,28.154262L23.832678,29.531307L19.271222,30.908164L14.698424,32.288173L10.139691,33.664648L5.573236,35.037589L1.012785,36.416165L1.007334,36.416165L1.002796,36.419505L0.997346,36.419505L0.992808,36.422845L0.993721,36.426184L0.988270,36.426184L0.982820,36.426184L0.978282,36.429524L0.979195,36.432864L0.974657,36.436204L0.969206,36.436204L0.963756,36.436204L0.964668,36.439544L0.959218,36.439544L0.954680,36.442883L0.950142,36.446223L0.945604,36.449563L0.946517,36.452903L0.941979,36.456242L0.936529,36.456242L0.937441,36.459582L0.938354,36.462922L0.933816,36.466262L0.929278,36.469602L0.924740,36.472941L0.925653,36.476281L0.921115,36.479621L0.922028,36.482961L0.917490,36.486301L0.912952,36.489640L0.913865,36.492980L0.914778,36.496320L0.915690,36.499660L0.917516,36.506339L0.918428,36.509679L0.912978,36.509679L0.914803,36.516358L0.915716,36.519698L0.916628,36.523038L0.917541,36.526378L0.913003,36.529717L0.908465,36.533057L0.909378,36.536397L0.910290,36.539737L0.911203,36.543076L0.912116,36.546416L0.913028,36.549756L0.914854,36.556436L0.915766,36.559775L0.917592,36.566455L0.918504,36.569795L0.920330,36.576474L0.921242,36.579814L0.923068,36.586493L0.923980,36.589833L0.924893,36.593173L0.925806,36.596512L0.926718,36.599852L0.928543,36.606532L0.929456,36.609871L4.986694,51.427531L9.026989,66.229433L13.058301,81.012502L17.071251,95.790317L21.072036,110.553162L25.050792,125.312947L29.016903,140.071602L32.957781,154.831055L36.884173,169.598224L40.783461,184.375040L44.665100,199.163427L48.517759,213.970309L52.350921,228.797614L56.152351,243.648934L59.931154,258.524508L63.683590,273.439671L72.529407,273.866601L82.680268,274.367524L93.962869,274.919584L95.942121,275.016429L108.128375,275.611597L113.463718,276.586853L120.367479,277.838093L121.268877,277.286440L122.228675,274.532266L123.008839,273.419502L125.228012,272.276683L126.184247,271.530598L126.623622,270.875325L126.627237,270.431792L126.142509,270.146200L123.290142,269.544818L122.372287,269.175280L121.482226,268.674758L119.993957,267.465599L118.549967,265.863801L117.366717,264.064330L116.661504,262.265333L116.112164,259.970277L115.431622,258.098549L114.377773,256.398319L112.725046,254.618034L111.167143,252.300287L110.701521,250.256308L110.585574,248.171012L110.088350,245.731345L107.575491,240.616679L106.944331,238.120762L107.970196,236.239279L112.556971,234.060620L114.371101,232.552766L115.678410,229.875368L115.674033,229.858658L117.314852,224.892016L120.625091,221.088185L125.083552,218.878028L130.181253,218.691088L138.081087,219.876211L140.455676,219.428852L143.072172,218.121945L144.049516,217.901639L147.752077,218.053516L148.728237,217.849902L149.703335,217.082212L149.373583,216.469770L148.501722,215.777270L147.842484,214.761130L148.054335,213.916922L149.944544,213.323014L150.507932,212.552316L151.488493,208.075988L151.549186,206.572042L151.184686,205.566740L149.446516,203.364707L148.682056,201.656362L149.403820,200.968090L150.702741,200.389837L151.691103,198.990139L151.958182,198.238697L152.353517,197.593924L153.222882,197.189082L154.358222,196.990831L155.578346,197.024150L156.682535,197.344020L157.641797,198.027101L159.304013,199.651644L160.282744,200.099887L161.131809,200.028234L162.871086,199.281730L163.799745,199.136767L165.023430,199.325053L170.947185,201.564701L173.084857,202.754676L174.910426,204.404830L176.080797,206.700420L176.217521,207.879230L176.229003,208.984786L176.483601,209.987049L177.349807,210.855971L178.278764,211.056116L181.596238,210.589116L182.163032,210.228873L182.208893,209.703538L181.811141,209.134869L181.065652,208.631263L178.287857,206.348634L172.749635,200.583140L170.504953,197.575597L168.243784,195.321637L166.001156,194.009080L158.537715,191.202814L157.319468,190.401837L156.678045,189.161324L156.919352,188.220600L157.713687,187.566289L159.516275,186.780487L161.929340,185.237297L162.852396,184.955976L164.166604,184.994262L170.502766,187.071828L173.399252,187.641209L176.187462,187.794379L178.237940,187.211674L178.856103,185.337176L178.081200,179.868047L178.667042,178.407016L180.153541,179.072619L194.975047,191.126212L199.371391,194.085697L203.547314,195.598156L206.035566,195.979628L207.583502,195.898002L209.022486,195.521529L210.391070,194.850234L211.720896,194.720310L213.209234,195.444903L217.482996,198.606915L218.540493,199.693302L219.389954,200.928095L221.383237,205.855152L222.407621,207.003865L224.152270,207.752506L226.954612,208.019294L228.318118,208.407816L231.021422,210.465698L232.487984,210.926021L235.276618,210.999408L246.168316,209.440046L250.923070,209.816941L253.242635,209.556782L255.740568,209.800264L257.889077,211.458085L259.955817,213.539887L262.254987,215.061457L264.862879,215.897412L266.287307,216.559882L267.174543,217.402632L267.291754,218.485792L266.570210,219.061633L265.585349,219.467244L264.863563,220.043141L265.197547,223.038339L267.126646,226.214859L267.995830,228.767539L265.118595,229.880382L265.101958,229.880382L265.085320,229.880382L265.067305,229.875368L264.186874,230.122685L263.757117,230.759389L263.908218,231.613413L264.753374,232.531036L265.603676,232.840275L268.363631,232.750009L274.532955,234.670857L276.450335,235.894803L278.146854,237.591825L278.989864,238.435220L280.000621,239.186286L282.915785,240.546408L283.829933,241.126996L284.690060,241.874961L285.456851,242.768593L285.808969,243.689104L285.417592,244.531047L284.601967,244.634831L283.436178,244.209659L281.291360,243.148500L279.112941,242.572789L277.466414,242.703324L276.241508,243.625502L275.345793,245.409908L276.450930,247.671965L278.890788,250.554493L283.716958,255.146039L284.529555,256.337963L284.012185,257.156163L282.062115,258.165628L281.343631,258.900178L280.888952,259.809249L280.766445,260.919748L281.497918,266.129062L282.284359,267.667110L284.164297,269.030830L290.798744,271.789365L296.631931,274.212872L300.468433,276.391790L304.109590,279.066033L305.930393,280.082211L307.939084,280.573537L311.155081,280.499499L317.124688,278.510907L327.815862,277.912099L331.810552,278.743044L335.042613,281.179335L335.325349,280.906718L335.579724,280.549979L335.989097,279.439032L336.173577,278.938181L336.420648,279.089585L336.745412,279.671682L337.206542,280.263930L340.257209,279.765899L341.222400,279.792819L347.746425,283.394377L350.156628,284.209233L352.195040,284.145252L353.822767,283.286636L354.924487,281.764997L355.393334,279.722155L356.525210,279.032387L356.423531,276.741563L356.778836,275.372851L357.838797,274.831501L359.882320,275.036603L365.466439,276.297624L370.660572,278.144214L384.927579,286.250227L386.268969,287.304680L391.888345,293.395950L392.640361,294.478697L393.186940,295.811335L394.582814,300.418992L395.105782,301.381519L394.831121,301.871291L395.783814,303.165179L398.965342,308.655026L400.389167,311.642378L401.194804,313.040228L402.019494,313.906885L404.282746,315.701604L405.142413,316.616141L407.335635,320.645488L408.435398,322.032289L411.110914,324.518670L411.592362,325.129436L412.427140,326.626141L412.561843,326.780438L412.933876,327.206622L414.320091,328.024847L417.078935,328.737939L422.187616,331.125880L422.867718,331.717108L423.772993,334.494168L424.431405,335.711570L426.513582,338.314085L427.274299,339.508679L427.819178,340.819352L428.322034,342.566377L428.896769,343.908611L431.445212,347.276211L432.026850,348.681278L432.037514,349.875260L431.900344,351.072984L432.046696,352.499769L432.593974,354.015823L434.514511,357.729710L435.562625,359.497264L440.649652,364.099412L441.317141,364.414370L445.219280,367.380224L452.673641,371.657921L461.360478,376.646939L471.714453,382.597000L492.731284,394.695339L501.588335,399.801682L505.836642,402.927977L513.664408,410.720646L517.796237,413.974323L524.874182,418.108947L533.794534,423.320336L544.077571,429.335486L545.917464,430.155635L547.602021,430.446961L548.937324,430.155635L552.646159,428.127132L554.243834,427.939919L555.734551,428.713076L557.899391,430.765324L561.963789,434.620629L575.791038,443.948950L583.780719,447.859772L592.499182,450.596879L596.723754,452.823488L605.591401,459.223418L611.887521,463.781566L620.463151,468.626390L626.784216,472.193796L637.247352,478.104248L641.235536,479.301452L644.913107,479.004754L646.131329,478.229895L648.262465,476.160426L649.668739,475.542815L651.556972,475.703320L657.714224,478.296209L661.467549,478.861645L663.201458,479.648774L667.251528,482.300354L671.045153,483.285062L673.033074,484.091756L675.010046,485.581344L678.334601,488.714901L684.515424,491.253524L686.342708,491.753283L690.536020,491.777747L692.768315,492.335198L694.985134,493.273667L697.146197,494.556545L697.159689,494.565284L697.166217,494.568780L698.291493,496.411565L699.146043,497.811581L698.084175,501.649907L696.004505,505.520924L694.917228,508.859363L695.359900,511.516006L697.097756,516.830777L697.546630,519.527393L697.456899,524.093406L697.840602,526.512645L699.056142,528.436357L700.358148,529.349225L701.452808,530.272651L701.930797,531.355586L701.401685,532.755779L700.625981,533.795033L700.077382,534.953520L700.258178,536.196203L701.866965,537.230365L702.853632,536.897325L704.232102,536.788650L705.585240,536.939393L709.580758,538.453892L710.289126,538.578352L711.791122,538.639706L712.324510,538.427598L713.182401,537.503813L713.709587,537.289963L720.816154,536.976202L725.576907,535.803585L728.240859,535.859673L729.353523,536.327662L731.928043,537.882438L733.161671,538.217245L733.986287,538.830780L735.609898,541.775965L736.377100,542.808616L737.650566,543.494150L740.310633,544.418159L741.661178,545.421104L742.495113,546.588914L743.200510,547.847957L744.082314,548.886093L745.431347,549.378870Z M860.301575,298.406677L859.145005,297.606683L856.961968,295.652752L855.802940,294.809297L855.730457,294.755320L854.683251,293.409441L855.489194,293.203708L857.157078,293.790572L858.729992,294.826165L859.823349,295.942930L861.008535,297.518927L861.443484,298.636233L860.301575,298.406677Z "/></g></svg>