<?xml version="1.0" encoding="utf-8"?><!DOCTYPE svg  PUBLIC '-//W3C//DTD SVG 1.1//EN'  'http://www.w3.org/Graphics/SVG/1.1/DTD/svg11.dtd'><svg enable_background="new 0 0 1000 2354" height="2354px" pretty_print="False" style="stroke-linejoin: round; stroke:#000; fill: none;" version="1.1" viewBox="0 0 1000 2354" width="1000px" xmlns="http://www.w3.org/2000/svg" xmlns:xlink="http://www.w3.org/1999/xlink"><defs><style type="text/css"><![CDATA[path { fill-rule: evenodd; }]]></style></defs><metadata><views><view h="2354.69334639" padding="0" w="1000"><proj flip="auto" id="robinson" lon0="-61.1987668845"/><bbox h="13.34" w="5.67" x="-903.94" y="-224.37"/></view></views></metadata><g class="" fill="black" id="country"><path d="M42.175388,2352.693346L69.870951,2344.752030L86.401831,2332.840057L80.831179,2307.331584L50.881665,2285.432797L33.295004,2279.416647L14.013490,2287.839257L10.386767,2295.660253L15.237036,2306.489322L11.869184,2318.882591L0.212432,2334.043286L9.410118,2349.925919L42.175388,2352.693346Z M344.667187,2032.032350L360.046055,2014.705810L368.967735,1988.836317L385.064905,1971.870744L400.110649,1951.295469L396.654998,1924.222733L389.293885,1913.152994L371.240747,1915.078164L346.769912,1932.645364L343.786898,1961.522945L347.083020,1987.753408L332.207930,2007.245769L302.232593,2014.465161L295.365711,2023.489401L318.087480,2033.596550L344.667187,2032.032350Z M752.728253,1550.618534L764.171146,1534.013880L790.055960,1475.536614L769.048558,1470.483020L744.071396,1515.604375L744.299251,1552.182740L752.728253,1550.618534Z M676.545103,1146.210488L728.917486,1057.170775L768.503825,1016.982560L758.143975,1006.995666L755.183032,996.768124L754.677906,986.059285L751.685605,974.628501L719.823601,1002.303030L644.493506,1054.282998L621.548313,1077.625847L628.534399,1092.786664L644.400450,1114.565297L642.842713,1138.389433L583.179953,1151.504737L545.391876,1138.028463L544.049803,1160.047735L574.158709,1159.325791L600.066881,1165.221661L619.809964,1178.818260L631.784326,1200.476555L652.428872,1178.457289L633.123889,1178.457289L676.545103,1146.210488Z M877.349849,0.000000L849.452080,0.962600L817.708157,11.069900L782.763556,35.134893L744.923699,103.479445L721.745157,188.669431L687.606361,255.449674L616.898288,268.083770L627.615390,297.322671L633.663907,308.512867L593.113663,386.964527L579.880385,487.555853L595.256046,574.430111L746.027808,699.567442L808.656692,734.100512L857.431715,694.032524L940.946114,573.226867L987.202681,395.627900L999.787568,214.418933L982.533268,82.783563L969.014546,39.586916L959.932456,19.733299L941.769753,11.791851L877.349849,0.000000Z "/></g></svg>