<?xml version="1.0" encoding="utf-8"?><!DOCTYPE svg  PUBLIC '-//W3C//DTD SVG 1.1//EN'  'http://www.w3.org/Graphics/SVG/1.1/DTD/svg11.dtd'><svg enable_background="new 0 0 1000 2796" height="2796px" pretty_print="False" style="stroke-linejoin: round; stroke:#000; fill: none;" version="1.1" viewBox="0 0 1000 2796" width="1000px" xmlns="http://www.w3.org/2000/svg" xmlns:xlink="http://www.w3.org/1999/xlink"><defs><style type="text/css"><![CDATA[path { fill-rule: evenodd; }]]></style></defs><metadata><views><view h="2796.70417053" padding="0" w="1000"><proj flip="auto" id="robinson" lon0="-61.2008498059"/><bbox h="11.13" w="3.98" x="-902.27" y="-224.01"/></view></views></metadata><g class="" fill="#000" id="country"><path d="M32.488413,2794.704171L70.098741,2792.649104L92.119977,2767.782795L104.936639,2730.997093L127.799539,2707.158312L149.022389,2677.565338L144.098261,2639.135568L133.685544,2623.311543L107.934601,2625.983131L73.088860,2651.260469L68.842751,2692.361825L73.662024,2729.558546L52.369972,2757.301953L9.766236,2767.577288L0.178846,2780.318703L32.488413,2794.704171Z M544.985948,1532.478578L619.730145,1405.885682L676.009376,1348.754446L661.394962,1334.368880L657.230367,1319.983313L656.359316,1304.775713L652.296035,1288.746079L606.847575,1327.792621L499.822817,1401.570014L466.800261,1434.862310L476.833416,1456.440647L499.635852,1487.266839L497.195721,1521.381152L412.263307,1540.287878L358.488271,1520.970137L356.571586,1552.412842L399.528028,1551.179795L436.310729,1559.605617L464.515461,1578.717846L481.185379,1609.749527L510.832911,1578.512338L483.085981,1578.512338L544.985948,1532.478578Z M961.799323,0.000000L801.855732,11.714048L640.450039,118.167991L465.379298,299.016235L412.244063,627.830739L665.433273,911.021743L777.991764,844.436960L937.191831,655.985452L999.821154,272.300029L961.799323,0.000000Z "/></g></svg>