<?xml version="1.0" encoding="utf-8"?><!DOCTYPE svg  PUBLIC '-//W3C//DTD SVG 1.1//EN'  'http://www.w3.org/Graphics/SVG/1.1/DTD/svg11.dtd'><svg enable_background="new 0 0 1000 1264" height="1264px" pretty_print="False" style="stroke-linejoin: round; stroke:#000; fill: none;" version="1.1" viewBox="0 0 1000 1264" width="1000px" xmlns="http://www.w3.org/2000/svg" xmlns:xlink="http://www.w3.org/1999/xlink"><defs><style type="text/css"><![CDATA[path { fill-rule: evenodd; }]]></style></defs><metadata><views><view h="1264.85263145" padding="0" w="1000"><proj flip="auto" id="robinson" lon0="-65.4112727938"/><bbox h="252.43" w="199.73" x="-1082.83" y="-263.32"/></view></views></metadata><g class="" fill="black" id="country"><path d="M884.231476,597.497256L882.352669,597.355988L880.612026,598.484683L877.840225,598.626621L874.966958,598.133645L873.464961,597.922719L873.116984,598.769894L875.403814,599.827150L876.781759,599.967681L878.320523,600.813825L879.356164,601.660143L880.810963,603.069800L883.242658,603.562249L885.823136,603.420612L887.831043,603.422267L888.723129,604.692667L889.287695,606.316057L890.985150,607.869525L892.218787,608.434743L893.179511,607.940915L893.545295,606.599888L893.529063,605.400006L892.369440,604.552626L891.321627,604.058280L890.484125,602.999629L890.427233,601.236386L890.419271,599.826234L889.789285,598.274639L887.597989,598.132440L885.708540,598.273193L884.231476,597.497256Z M913.589318,597.820505L913.417512,595.642699L912.850817,595.533467L912.562526,595.373033L912.329109,595.192118L911.930042,595.021444L911.539318,594.946347L906.730412,595.294523L905.851648,595.642699L903.693265,598.168681L903.523397,598.445174L903.168275,598.772869L902.804653,599.243930L902.619621,599.916388L902.751437,600.005138L903.570452,601.373948L901.990285,600.578605L899.705497,598.414452L898.157473,597.881948L896.214230,598.250605L894.803876,599.452153L893.752545,601.165725L892.872617,603.036318L895.650968,602.910019L903.483007,603.664401L909.781921,602.701796L909.651942,601.855250L909.087590,600.739039L909.230226,599.602347L910.885263,600.640048L912.544278,599.766194L913.589318,597.820505Z M937.135793,588.052412L936.565085,586.640700L936.633865,584.948587L937.450423,583.399340L937.864474,582.483815L937.562100,582.201079L936.979835,582.622684L935.929395,583.748244L934.639409,584.591296L933.654742,585.646663L932.327790,585.855191L931.192062,585.993698L930.178968,587.754338L929.100034,589.585701L928.220960,591.135632L927.293462,592.332945L927.387601,593.109192L928.700497,593.252858L930.081917,593.255512L931.172027,592.693411L932.738770,592.767109L934.373772,592.700188L935.834647,592.280164L937.338235,592.354230L939.007454,592.993229L940.385400,593.066972L941.463724,592.787520L942.213762,591.308401L942.522243,589.899379L942.063396,588.840632L940.317066,588.553896L938.054272,588.618595L937.135793,588.052412Z M934.100723,572.503490L933.829825,571.359819L932.015049,572.141740L930.379794,573.209739L926.435064,573.201654L924.208647,573.197370L923.401424,574.267074L922.516216,575.693593L920.903087,576.261929L917.448520,576.755974L915.783315,577.038974L914.054453,577.321998L911.466240,578.389790L909.331817,579.244284L906.658362,580.813251L904.286709,582.741261L902.067472,585.600083L901.096746,587.530756L900.783382,590.535304L900.568901,592.681993L900.331296,593.827157L900.070440,595.545346L900.551276,596.261328L901.829263,596.189019L902.614765,595.687148L903.533450,595.042115L904.918099,593.896386L906.290729,593.037394L909.236341,592.609677L912.994143,592.540217L915.503944,593.402230L917.111109,592.976422L919.100106,592.550671L921.757280,592.913056L924.564578,592.704257L926.009453,591.562650L927.607410,589.778726L928.251216,587.992674L929.468095,586.209134L930.575368,583.996815L932.229207,582.428793L934.019791,582.219183L935.917666,580.938069L936.910056,580.011774L936.096326,578.152410L935.184823,577.078460L935.032204,576.149203L934.775920,574.648298L933.774922,574.217345L933.358977,573.502028L934.100723,572.503490Z M908.856995,576.735400L918.946979,572.048689L922.142433,569.495405L924.202641,567.242508L925.346418,564.774563L924.326446,562.787918L924.802284,562.757197L926.365946,562.265656L925.164678,560.985602L923.718800,559.964972L922.106013,559.510980L920.413291,559.924010L919.422274,560.739831L919.269082,561.487383L919.329052,562.238348L919.003185,563.098545L918.145259,563.893885L917.199150,564.566340L916.424279,565.388989L915.466129,568.170975L912.797561,572.352489L911.370749,573.789564L907.074796,577.209874L908.856995,576.735400Z M925.346465,556.469572L925.539792,555.773223L925.647694,555.035912L925.679603,554.247399L921.607170,555.793704L919.794926,555.967791L918.576177,556.766544L915.668216,560.722764L914.266491,562.265656L912.775394,562.893736L910.881529,563.378450L909.242963,564.088453L908.510722,565.419710L908.059028,567.099142L907.306553,569.017518L906.968063,570.652575L907.758196,571.482051L908.379168,571.277242L910.901669,569.713868L911.325248,569.034585L911.851828,567.355153L912.259772,566.617841L918.728256,560.145886L919.939968,559.220834L921.163150,558.831698L922.745849,558.838525L923.759663,558.650783L924.456860,557.971502L925.084318,556.490053L925.059108,557.114719L925.346465,556.469572Z M925.012023,551.748736L925.728007,550.243394L926.244032,548.635648L926.478418,547.014248L925.917800,546.034582L924.532746,545.973139L921.905947,546.751411L919.659860,548.502522L919.155594,550.850992L918.930159,553.588599L917.524051,556.490053L919.162091,555.425048L922.906548,554.042591L924.190342,552.530422L924.169288,553.049270L925.012023,551.748736Z M935.128460,546.126745L934.770112,545.635206L934.408421,544.785251L934.189666,544.406356L933.085708,542.982938L931.413126,543.122891L929.722934,544.058182L928.577836,545.031021L927.695059,546.567083L926.953197,550.397000L926.253798,552.530422L927.853067,552.052535L928.760422,550.714453L929.347753,549.123775L929.968357,547.898338L932.088203,546.440785L933.313189,546.597805L934.319255,546.526122L935.128460,546.126745Z M820.094415,489.978726L820.453151,488.015993L820.077552,485.967924L819.499135,485.087255L819.198424,484.834660L818.609577,484.780045L818.170400,485.660714L817.952141,487.032920L817.971155,489.135604L818.663009,491.368000L819.605910,491.494297L820.094415,489.978726Z M814.928361,480.260643L815.353084,478.980601L814.913193,478.101300L814.502377,477.896494L813.703920,475.479782L812.930069,474.295321L812.232540,474.517194L812.219863,475.640214L812.690823,478.391442L813.141930,479.878337L813.958669,480.724871L814.928361,480.260643Z M822.908394,479.427762L823.984251,479.267330L825.180515,478.902092L826.155704,478.121780L826.921392,477.261595L827.324417,476.063480L827.011242,474.711760L826.660977,474.104169L826.032893,474.056381L824.663692,474.657145L823.198109,476.377515L822.191089,478.704112L822.183519,479.789587L822.908394,479.427762Z M796.773359,452.418658L797.487856,451.087423L797.681042,449.489940L797.088061,448.209907L796.605785,447.691066L792.622680,442.536799L790.936034,439.812889L788.871422,437.099220L788.566563,437.075326L788.160042,437.723876L787.815014,438.775209L787.686535,439.321356L787.501667,440.847155L787.834483,442.342234L789.079777,443.895341L791.124762,445.294844L793.297923,447.216601L794.515073,448.680959L794.989941,449.418259L796.140552,450.647091L796.375555,451.445832L796.347263,452.418658L796.773359,452.418658Z M706.411727,416.721115L707.563672,415.123636L706.997713,413.218950L705.235034,412.082283L703.186518,411.317678L701.759637,410.539419L700.884994,410.751051L700.070203,411.375706L699.546713,412.287088L699.555326,413.352073L700.118230,413.959661L701.108480,414.304416L703.063225,414.498981L702.938841,416.000884L704.460226,416.874719L706.411727,416.721115Z M686.085484,408.955594L685.113198,409.023863L683.994408,409.549529L683.733644,410.771531L685.102875,411.560030L687.103739,411.379119L688.553260,410.310720L688.339084,409.225254L687.683405,408.969248L687.414551,409.064824L686.085484,408.955594Z M608.923613,398.339874L608.176201,398.182857L604.483358,396.510284L602.746089,396.414709L600.889567,397.264649L599.245811,397.384118L597.307956,398.862127L596.476866,400.848734L598.139729,402.466693L599.333719,402.005882L600.570723,402.490587L601.891420,403.265432L603.339571,403.671628L606.256884,403.801338L607.605760,403.644321L609.178941,403.043560L608.952465,403.357594L608.620892,404.187054L610.417592,403.384901L611.630741,402.558855L611.910675,401.401707L610.920045,399.602838L611.589523,398.739244L611.379133,398.408143L610.754342,398.370595L610.179373,398.411556L608.923613,398.339874Z M716.086456,394.441755L713.963450,389.502545L713.801804,388.010883L712.892102,384.897849L712.743016,383.177488L712.341109,382.385576L711.441585,381.818949L710.602729,381.013383L710.421728,379.508067L709.256890,380.439930L707.289790,382.989750L706.154937,384.037668L705.447025,384.269781L703.744114,384.379010L703.108162,384.611122L702.384474,385.368900L702.254352,385.959421L702.253307,386.604556L701.901885,387.526178L701.421902,388.099632L700.309747,389.062214L699.811122,389.819992L699.811766,392.380053L699.631079,393.253887L698.484925,394.871845L697.202241,395.315589L694.215414,394.970834L692.700577,394.520264L690.089508,392.557551L687.622811,391.676890L687.185059,390.649452L687.171994,389.417209L687.266787,388.359051L686.630136,387.184837L685.043230,386.857149L683.231920,387.143876L681.197394,388.079151L679.719973,387.495457L678.948976,387.785597L677.967851,388.703806L677.372337,389.021253L676.562502,389.195338L674.900601,389.150963L673.822507,389.294327L673.213078,390.045278L672.951491,391.820253L672.650213,392.871585L670.605228,397.264649L672.038449,397.384118L675.070608,398.411556L675.741626,398.483238L677.634708,398.411556L678.050252,398.551506L678.336457,398.756311L678.701351,398.947462L684.058279,399.623318L685.657788,399.200055L687.755994,397.264649L688.791225,398.230645L690.452594,399.268323L691.970769,400.524460L693.300503,403.685282L694.914031,403.685282L696.175077,404.006143L695.837482,406.480869L697.144106,405.569487L702.112628,403.671628L703.668269,403.398555L707.871368,404.187054L710.042023,399.787162L711.730862,398.100935L711.989055,397.575270L712.294316,397.240755L712.921554,397.520655L713.954966,398.411556L713.947648,397.858583L714.078614,396.721916L714.071356,396.168943L716.393050,396.735570L716.086456,394.441755Z M497.452057,331.518823L499.585867,330.904407L499.954377,330.549411L503.525755,328.931448L503.497446,328.801738L502.955651,328.842699L501.885475,329.306925L497.376791,331.372046L497.112667,331.430074L496.732059,331.532477L495.619648,331.696321L494.051670,331.505170L494.290873,331.870406L496.001145,331.935261L496.799726,331.706562L497.452057,331.518823Z M512.349831,328.842699L512.891559,327.886940L512.972914,326.862913L512.666132,325.968595L512.048984,325.408793L510.666401,327.764057L509.197970,329.088465L507.463434,329.436635L505.262994,328.842699L507.027069,330.231963L509.770845,330.658641L512.400383,330.173934L513.857095,328.842699L513.488703,328.890487L512.349831,328.842699Z M549.363283,325.258603L547.610553,325.408793L545.420777,325.347352L544.118505,325.480475L543.003743,325.941288L544.358760,327.668481L546.596992,328.951928L548.733351,329.108946L549.774641,327.443195L549.741561,325.808164L549.363283,325.258603Z M497.587814,321.281961L497.352315,321.462873L499.603888,321.691572L500.082888,321.899791L500.772036,321.899791L502.025008,322.193346L503.016263,321.899791L503.274099,321.947579L505.147789,321.729120L504.846576,321.503834L503.566910,321.558449L497.587814,321.281961Z M663.912219,325.436101L664.041039,324.077557L663.783350,322.616611L663.388923,321.712053L661.166679,319.667410L660.275973,319.111021L659.365171,319.940484L657.996123,322.275268L656.979593,323.121798L657.213203,323.801070L657.252176,324.009289L657.129543,324.214094L656.878183,324.886539L658.273518,325.582878L660.001463,325.913980L663.140888,326.033450L663.912219,325.436101Z M437.543466,312.321711L436.724585,311.994021L436.064484,311.912099L435.736279,311.693640L435.428398,311.338643L435.078764,311.226000L434.848337,311.516141L434.916129,311.877965L435.471276,312.157866L436.901250,312.437767L437.543466,312.321711Z M434.737295,308.287035L434.542417,308.485014L434.622535,308.546456L434.737295,308.287035Z M434.933344,308.314342L434.881730,308.130017L434.843470,308.314342L434.907771,308.389438L434.933344,308.314342Z M435.165127,306.587145L434.985829,306.433541L434.983680,306.761231L435.039737,306.921662L435.165127,306.587145Z M434.749715,305.303695L434.523778,305.324175L434.767019,305.460713L434.749715,305.303695Z M434.350060,304.982832L434.228808,304.859948L434.322004,305.146677L434.350060,304.982832Z M560.707199,1262.852631L562.410021,1262.722577L564.033261,1262.063637L565.888941,1260.906157L567.501403,1259.427877L568.884779,1256.844137L570.292473,1255.110084L570.628532,1253.965609L570.539656,1251.563945L570.633932,1250.870324L571.359076,1248.824141L572.183164,1247.220142L576.807468,1240.960210L578.066535,1240.257918L579.985423,1240.197226L583.020208,1240.721777L584.520098,1240.617734L586.015328,1239.824405L587.817093,1237.175638L588.624202,1233.729207L589.292872,1226.706291L591.060533,1222.787330L593.753333,1222.015676L596.781399,1222.327806L599.538147,1221.690541L599.673190,1221.352401L599.757909,1220.203590L599.928374,1219.761406L600.244432,1219.527309L600.978484,1219.223850L601.275252,1219.007093L603.734073,1216.605429L604.510375,1216.085213L606.228654,1215.564996L607.583590,1215.417602L608.866293,1215.005764L610.337018,1213.726900L612.015650,1211.732738L613.212350,1210.713981L614.535082,1210.735657L618.230361,1212.734154L619.717191,1213.020273L621.227260,1212.664792L630.680047,1205.641874L631.662637,1204.063885L633.250324,1200.255469L634.684242,1198.239631L636.423540,1196.880567L640.365034,1194.591615L643.502449,1191.988367L645.299167,1190.859064L646.974937,1190.629302L648.580468,1191.732594L648.619806,1193.388616L647.011170,1196.824210L646.525614,1198.391361L646.250654,1200.532918L646.615826,1202.453382L648.050392,1203.339917L649.327638,1202.743837L650.246971,1201.202696L651.679556,1197.827794L653.207879,1195.963686L658.393987,1191.728259L662.524128,1187.198042L666.059003,1184.939437L667.573898,1183.229226L668.826618,1181.202550L669.747154,1179.123852L670.169197,1177.610890L670.401104,1176.004722L670.211332,1170.904434L671.437677,1165.695768L672.028818,1158.460425L673.324625,1155.644754L676.442003,1153.065347L679.174985,1152.001071L681.958691,1151.697611L690.738921,1151.866682L692.154763,1151.641254L693.690949,1150.746049L704.579341,1141.057016L708.725791,1138.943636L709.693024,1138.774566L711.793833,1139.099701L712.525176,1139.091031L717.521395,1138.035425L719.883287,1137.012332L720.617899,1135.239261L720.514173,1133.730632L720.779584,1132.378069L721.860319,1129.755014L722.930533,1127.158562L723.106121,1125.957729L723.027447,1120.257021L723.163766,1118.913127L723.961240,1115.986908L723.699616,1114.890118L722.232244,1114.261523L712.916581,1113.919047L708.252116,1113.104040L698.606107,1112.835262L693.932133,1113.528884L689.169136,1113.585241L680.287983,1110.828092L675.929605,1110.268859L674.314591,1110.702373L673.179807,1110.004415L672.562922,1108.560814L672.506018,1106.722714L673.080453,1104.689533L676.021072,1098.893450L676.382077,1097.298118L676.707680,1092.538133L677.233665,1090.318541L677.270170,1089.568561L677.041051,1088.692862L676.227417,1087.127876L675.062768,1082.601988L669.606070,1070.082096L667.334631,1066.722359L664.777486,1061.299094L662.482192,1058.173455L661.235877,1055.251568L661.124917,1051.761776L661.944881,1044.561100L661.753469,1041.084313L660.072811,1030.508723L660.372804,1028.492879L661.148284,1026.969075L663.217377,1023.953980L663.784352,1022.443181L663.981839,1020.947555L664.043215,1017.830583L663.553580,1015.762717L662.178157,1013.959295L659.028129,1010.939864L654.826391,1004.907504L653.135717,1003.717505L649.680535,1002.226213L646.758700,1000.346926L639.731753,994.052287L636.628818,988.960652L635.107357,987.142056L631.717548,984.031584L630.293022,982.022241L630.293179,982.015738L630.285527,982.015738L630.285632,982.011403L627.163169,974.804211L626.351038,971.424959L625.826933,969.953174L624.764985,968.576763L623.232565,967.586180L621.715386,966.907729L620.436710,965.947492L619.610683,964.098549L619.468175,962.381827L619.709160,960.556727L620.331013,958.954887L621.352178,957.903612L624.740609,957.634832L628.101292,959.602993L630.902671,962.680953L631.821029,964.322237L632.609241,965.730734L633.689747,969.441626L634.598217,971.151844L635.955885,971.791280L652.657868,969.023284L661.845805,969.849131L666.834395,971.411954L668.732388,972.489239L670.286448,974.340350L671.479484,976.889420L672.327539,979.718107L673.424134,985.698450L674.468437,989.179577L676.346960,991.620267L679.396786,991.763327L682.361410,989.994585L685.384729,987.688285L688.512814,985.973732L691.771792,986.004078L694.738822,987.380489L696.180483,987.735971L698.042813,987.612420L702.152236,986.461437L703.576108,986.272858L707.165999,987.198413L712.125647,992.218518L715.310461,993.965584L718.430432,992.901304L719.494137,990.102964L720.098273,986.849433L721.846563,984.417413L724.366519,984.148633L727.283271,985.225918L732.075364,988.405752L734.583373,991.279958L738.722046,997.975598L743.255065,1001.719001L750.861685,1012.151538L751.875613,1014.063339L752.856607,1015.392062L754.449517,1016.740293L756.209063,1017.821913L757.682048,1018.359471L759.402723,1018.593569L760.757035,1018.606575L762.055060,1018.216411L763.610967,1017.230165L765.101175,1015.749712L765.793368,1015.418073L766.868502,1015.597982L767.707639,1015.545960L768.470665,1014.949877L769.638126,1013.361045L771.294522,1010.254911L772.084638,1006.893002L772.124185,1003.411877L771.525589,999.919913L770.320875,996.692394L770.121542,994.529154L769.832775,993.939573L769.435751,993.399847L769.062859,992.476460L768.843569,990.202673L769.327426,988.470780L770.077770,986.801746L770.638784,984.725208L770.598529,982.845920L770.393482,981.311276L770.752722,980.025903L772.397338,978.909601L773.657268,978.532443L777.871982,978.101095L783.917941,979.187051L785.982535,978.593135L786.960100,975.265905L787.016409,973.536179L787.208675,972.207454L787.931747,971.242883L789.580701,970.596945L791.903537,970.087564L792.544184,969.693065L792.953710,969.044960L793.232952,967.607856L793.508923,967.107146L796.108238,966.396180L799.340418,967.211189L813.361178,973.815796L816.244617,974.188620L819.418118,972.968274L825.158821,968.351335L828.492467,967.802938L830.078942,968.333994L831.413740,968.992938L832.798529,969.480643L834.519541,969.502318L836.015659,969.166344L837.601640,968.589769L839.088602,967.833284L840.296192,966.920734L844.244719,962.243102L845.963035,961.096454L847.347855,960.617419L848.753162,960.400662L851.587269,960.582738L853.893010,961.343558L854.528854,961.469277L855.442422,961.339223L856.793887,960.654268L857.621907,960.422337L858.631762,960.504705L859.278497,960.814669L859.964693,960.914377L861.096540,960.374651L861.856771,959.698366L862.514945,958.811827L863.040051,957.812574L863.388044,956.782974L863.984185,950.323592L865.116311,948.051970L868.385900,946.601860L869.837851,946.432789L874.090169,946.718909L875.651352,946.619201L877.644793,946.205193L879.513616,945.411859L880.668404,944.176340L880.504923,942.418433L878.580941,939.076027L879.150730,938.074605L880.512789,937.827501L884.878031,938.486445L886.196474,938.922129L888.692526,940.311547L889.967836,940.636684L891.258683,940.484953L895.416174,939.173568L901.619254,938.282693L904.220199,936.884604L906.482271,933.644074L907.071731,931.927351L907.854365,928.292320L910.029143,923.074955L910.612107,922.324973L911.198952,922.106047L912.625651,922.101712L913.268891,921.997668L920.489884,918.418993L923.921102,915.969627L926.811215,913.145270L931.978430,906.213346L933.615640,902.090606L933.218415,898.134769L928.740952,883.591321L927.258985,882.076179L925.345953,881.250329L923.221122,880.916521L917.704817,873.958574L912.287409,866.955106L906.866454,859.949470L901.453450,852.941665L896.042571,845.936027L890.630203,838.926053L885.221680,831.926916L879.817642,824.916942L877.518272,821.927840L876.350526,818.548572L877.149325,817.625180L879.673229,816.064518L880.786947,815.091272L884.437101,808.852958L885.449849,806.178156L886.163148,804.988151L887.163012,804.387729L889.631837,803.871844L890.858218,803.431824L891.766174,802.837905L892.519049,801.734603L893.377358,799.584358L894.356824,798.641457L895.380707,798.459380L896.460470,798.585100L897.291745,798.324990L897.568158,796.989756L897.625032,795.843103L898.103500,792.663254L897.984831,791.835236L897.759782,791.564288L897.513110,791.377875L897.323672,790.809968L896.976429,790.216049L895.700597,789.301328L895.333747,788.534002L894.847877,786.193009L894.770716,785.263114L895.343513,781.218399L895.739817,780.054405L896.423770,779.046477L896.601657,778.346347L896.653263,777.652720L896.586232,776.965595L896.396875,776.280638L895.630629,775.027773L895.000283,772.517709L894.459768,771.262676L893.366834,770.081342L892.355168,769.428899L891.671800,768.600881L891.554591,766.884153L892.174741,763.999097L893.350422,760.890779L894.887616,757.901679L897.298947,754.886569L898.029930,753.930664L899.434092,753.622866L901.048751,753.791938L902.413231,754.264472L903.139183,752.736324L904.695584,752.996434L906.260175,753.544833L907.658753,752.376505L911.019483,752.849039L912.563222,752.597599L912.977133,752.250785L915.057888,749.855604L915.198657,749.508790L915.250841,748.819498L915.110923,748.043503L914.418150,746.868672L914.283423,745.930108L914.723876,745.591965L915.681842,745.683004L917.304832,746.190218L917.786893,746.593389L918.299876,747.167799L918.941748,747.714030L919.818641,748.015325L920.510278,747.950297L922.228290,747.501607L923.099073,747.388893L924.597768,747.841918L927.240596,749.825258L928.331390,750.252272L929.917172,749.632343L931.159363,748.210407L933.361516,744.809467L934.597710,743.706167L936.013693,743.021210L941.378952,741.577599L951.034178,734.940456L953.029634,734.415901L954.248618,735.248253L955.064421,731.090828L955.730066,729.681899L956.881438,728.615448L958.169466,727.696392L959.245541,726.716645L960.010562,725.550485L960.630066,724.158896L960.988723,722.684940L960.979093,721.263006L960.460220,719.940780L959.538563,718.969703L957.022304,717.348352L956.973022,717.283917L956.133726,716.186527L955.271046,715.640297L954.301776,715.553593L953.090069,715.757346L952.031398,715.718330L951.238641,715.254467L950.489674,714.677890L949.587457,714.292061L947.680010,714.279055L946.084726,714.942335L944.841393,716.234214L943.104883,719.541945L942.135884,719.563621L937.138704,714.959676L936.371787,714.057962L935.370743,711.560907L935.416528,709.063853L936.411743,706.796563L938.270956,704.971459L938.624797,704.377542L938.813373,703.757614L938.843138,703.089999L938.724835,702.396373L938.113150,701.264895L937.345152,698.923908L936.865455,697.848788L936.355684,697.389261L935.695436,697.090135L935.111965,696.665289L934.841225,695.854614L934.891645,695.147983L934.989587,694.619093L934.973862,694.120550L934.671839,693.504957L933.695751,692.720293L932.675446,692.455848L931.763080,692.048343L930.170256,688.497847L929.778114,687.279668L929.756176,686.013801L930.871423,683.820211L934.263690,682.606367L935.466089,680.998024L936.584180,678.843450L937.347172,677.694634L937.844194,677.287129L938.907701,677.508222L939.622896,676.918641L939.940625,675.839187L939.805861,674.594997L941.017928,672.332046L941.057008,671.421663L940.867678,669.830661L940.946670,669.093685L941.336168,668.322027L943.076867,666.080753L944.643730,662.972448L945.723082,661.858314L947.405912,661.229716L953.665001,661.355436L956.909376,660.999953L958.760977,659.473980L959.420305,657.544837L961.109261,655.871469L964.787811,653.101308L965.084326,652.807545L966.209959,651.692384L967.017130,650.348488L967.935353,649.212678L971.538947,647.656360L972.864378,646.451189L974.091029,645.072612L975.656171,643.785073L977.251016,643.219336L980.186786,643.537969L981.780240,643.440428L983.058070,642.610248L983.858528,641.142801L984.602863,637.776559L985.510514,636.521535L985.642908,635.543960L985.490495,634.579390L985.524363,633.372052L986.115380,632.065006L988.068801,630.398144L988.888839,629.411899L990.194617,628.716108L993.920417,627.755874L995.441441,627.651831L996.994044,627.096932L998.462896,625.640325L999.463385,623.787052L999.604384,622.061666L996.845683,616.662249L989.519068,606.927699L985.275541,599.393512L985.274989,599.390710L982.094375,598.793349L980.700282,598.073103L978.158157,596.168376L975.372542,594.748365L972.425362,593.867685L959.608394,592.898254L957.217452,593.980330L955.381048,597.308481L953.802391,599.080083L952.924558,600.995051L952.663827,601.373948L951.377431,601.541209L946.607433,600.227015L942.028781,599.971004L940.582447,599.602347L939.717206,599.124458L938.574300,598.284739L937.583106,597.328962L937.170850,596.479004L935.839062,595.475438L926.523248,596.683813L919.167607,597.625936L917.667305,598.199402L916.217693,598.469068L914.839951,597.881948L914.143350,598.339355L913.944896,598.813830L913.916161,599.407778L913.740613,600.227015L913.580020,602.230734L913.391557,603.234301L912.522650,603.957961L912.074840,604.671381L911.675697,605.528167L911.500350,606.268895L911.188968,606.873083L910.499688,606.982315L909.675125,606.934526L908.944709,607.098373L908.092402,607.624051L907.738452,607.924439L907.341412,609.443443L907.377828,611.583703L907.176959,612.368807L906.442824,611.993322L906.191058,611.337932L906.166896,610.385567L906.320079,608.559348L906.926382,607.071065L909.741351,606.535147L910.983989,605.384800L910.831453,604.179838L909.211518,604.108154L905.750122,604.811334L901.041951,604.401715L899.403677,604.811334L898.356236,605.408695L896.989456,606.422502L895.801213,607.562608L895.276556,608.559348L894.842115,609.952053L893.864635,611.085333L891.488839,612.880831L890.707414,611.611011L888.846584,610.279749L888.093986,609.443443L887.709952,608.398914L887.388779,607.125681L886.945162,605.992402L886.229127,605.384800L884.983248,605.432589L882.096067,606.204038L880.658232,606.006056L880.400565,605.671534L879.808817,604.487052L879.439736,604.237867L878.517617,604.149116L878.039974,603.910172L876.913625,602.722277L876.105740,601.616306L876.003882,601.373948L875.295886,601.500247L873.991422,601.978136L873.205458,601.944001L872.928810,601.636787L872.620879,601.049666L872.179966,600.483027L871.507740,600.227015L868.755393,599.602347L864.923693,597.055883L864.309113,596.168376L864.500867,594.482113L865.558554,593.632154L867.033390,593.335180L868.497852,593.304459L871.274122,595.315004L874.477765,596.151309L887.408718,595.021444L888.361771,595.239907L892.607688,596.789631L895.850725,596.765737L897.675343,595.110194L898.584223,592.119979L899.089236,588.092064L900.258019,584.473769L904.450010,577.872090L905.681779,574.298173L905.670401,573.448216L905.230462,571.741476L905.416414,570.389737L906.432787,566.901160L906.939932,565.638173L908.326073,563.282872L908.626870,562.525080L909.117457,562.501186L911.821592,559.350546L912.466566,558.998958L913.335032,558.691745L914.110991,558.220685L914.462482,557.401451L914.559471,555.821012L914.793556,555.158797L915.294432,554.510237L915.601984,553.888985L915.937383,552.066189L916.180373,551.335706L916.740151,550.571087L917.909254,549.301275L918.309696,548.468388L918.069389,547.000594L916.182328,548.270406L909.862071,554.332736L909.472249,555.056393L909.159135,556.111157L908.391890,557.329768L907.383263,558.353811L906.300621,558.831698L908.472344,553.718311L909.953036,551.212820L911.438752,550.134163L913.169483,549.454882L917.447347,545.031021L919.175123,544.498519L919.278019,544.406356L919.746786,544.181067L920.104621,543.658805L920.607901,542.740582L921.271454,542.307071L922.127413,541.941830L923.047670,541.692646L923.907680,541.593656L924.615405,541.327405L926.357916,540.146344L927.504118,539.880094L928.510765,539.429516L928.879642,538.350859L929.064105,537.012779L929.507134,535.814652L930.100361,536.500759L930.276879,536.879654L930.391807,537.586242L931.345991,536.009220L931.550317,533.906523L931.252362,531.756039L930.705344,530.039065L930.353666,529.687479L929.413571,529.404161L929.232805,529.202766L929.213605,528.656612L929.105054,528.236756L928.883118,527.871515L927.835581,526.642668L926.778375,524.860839L926.169974,524.048435L924.981017,522.976607L923.493002,521.949155L921.979082,521.181126L920.742962,520.873914L920.068558,521.058241L919.497337,521.358626L918.975267,521.420068L918.454907,520.873914L918.339136,520.204876L918.601008,517.433145L918.843275,518.231895L919.066454,518.491318L919.555115,518.580068L919.208889,517.119106L918.034818,516.204299L915.172836,515.091511L912.527565,513.548627L911.441972,513.377954L908.662267,513.644204L908.193284,513.377954L906.821256,514.285935L902.944702,511.637090L901.163377,511.657571L902.296404,513.377954L901.236147,513.876319L899.830369,511.897549L899.186197,509.279979L897.635772,507.867439L894.280051,504.741071L892.904652,503.430474L892.002112,502.573408L890.819745,500.961788L889.760333,499.601806L888.647464,498.442902L887.497287,497.081997L885.636423,494.613978L884.916742,493.656314L883.998086,493.099707L882.612694,492.945006L881.591028,492.690804L880.557645,491.681017L880.278923,491.881625L881.341801,493.243985L883.502180,494.155726L883.928902,495.666569L885.606430,498.234615L885.860371,500.547811L883.168719,496.569454L882.159553,495.058101L879.733427,493.038497L877.384857,491.270122L874.511048,489.147132L872.447434,487.879054L871.347404,487.270393L870.641636,486.915047L868.534702,486.799787L868.107877,487.105649L868.510867,488.067113L869.461565,489.028936L870.511140,489.299123L870.653914,489.952712L870.727085,490.605667L871.928170,491.494297L872.448200,491.883431L872.969063,492.118959L873.717379,493.317080L874.630318,494.460586L874.895667,495.655294L873.467997,496.713464L868.346937,495.416352L867.487209,495.307122L861.842571,493.258328L859.072495,492.628186L856.929500,492.714380L856.250633,492.922524L856.547543,493.461190L856.678362,494.119130L857.119285,494.986565L858.262070,496.798800L858.328396,497.334712L858.886354,497.751153L860.315675,498.150527L860.799382,498.481632L861.147461,499.369130L861.405456,501.280664L861.870178,502.181816L862.314217,502.734795L862.684129,503.335563L862.924241,504.089937L862.983395,505.069599L862.772965,508.718584L862.403465,510.585745L861.660244,512.282234L861.572975,505.260752L862.037334,503.639361L861.354711,502.434411L860.546016,500.345378L859.544343,498.621584L858.277656,498.481632L857.021830,503.065901L854.804275,507.697960L854.299885,507.697960L854.676902,505.943444L856.240509,502.878161L857.118200,500.399993L857.269940,499.546629L856.981156,498.744468L856.039863,497.628269L855.881257,497.007021L855.877327,495.877168L854.700329,494.877742L852.652704,493.214149L850.575467,489.828215L849.305966,488.520328L842.193048,482.000300L839.622828,480.279079L836.041899,478.616429L829.810547,476.773666L829.048278,477.220634L828.251655,478.101300L827.712894,479.513098L826.633699,481.195926L827.710537,482.465728L828.652031,482.950437L833.050112,483.066495L833.998307,483.404426L835.160264,484.059807L837.197471,486.537970L837.273977,486.971478L838.216213,487.111429L840.390360,487.824840L841.019919,488.176425L841.735226,488.958105L841.622063,489.272142L841.011321,489.302863L839.573749,489.162911L837.244981,488.548491L836.484270,488.176425L835.851318,487.101189L835.591354,485.944030L835.117175,485.012159L833.852608,484.633266L829.574228,484.059807L830.037323,485.831386L831.471467,489.040027L831.822257,490.985693L831.814260,501.396721L831.051205,505.076426L829.492755,507.878873L826.957473,508.797093L829.120321,506.721712L830.141563,503.171718L830.461954,491.330452L830.084145,489.517910L827.617366,483.592165L826.421299,481.707943L825.155226,480.574679L824.979776,483.639953L825.977901,488.913730L825.706614,491.606941L823.391358,497.996922L821.771763,500.795953L819.608561,503.065901L819.165985,502.011143L819.057111,501.758547L819.252963,500.526291L819.678578,499.259899L819.840030,497.860384L819.493695,496.406253L815.934816,488.097915L814.607738,485.851867L813.773139,484.797112L812.730211,484.100769L811.393347,484.059807L812.284485,482.288229L812.666685,481.148138L812.477730,480.028528L811.654821,478.336827L811.713887,476.657417L811.174513,475.333005L810.434337,474.070034L809.859490,472.609085L808.307921,465.690061L806.766135,462.976386L803.879963,460.528958L802.324300,459.597092L800.711533,459.050944L799.404430,459.597092L798.774195,461.959184L799.017453,463.682965L800.048331,467.246585L799.898659,469.171760L798.958506,470.738525L797.350457,472.213127L795.516451,473.319079L791.548365,474.363590L790.643856,474.322629L789.878373,473.872055L788.614818,472.383799L788.144781,472.035629L786.595239,472.571538L786.349899,474.107582L786.954164,476.875877L786.278243,478.254904L785.120392,478.758727L784.507992,478.111540L785.482311,475.991797L783.958076,475.851847L783.086266,475.169160L782.419707,474.332869L781.513058,473.755999L780.408710,473.882296L779.374122,474.445512L778.337359,474.732241L777.217167,474.035900L776.981626,473.291772L777.410362,471.946880L777.087341,471.407557L776.525290,471.489480L776.049775,472.161926L775.754009,472.970909L775.736833,473.469270L776.089215,474.541088L775.732410,475.503676L775.532042,476.524293L776.339434,477.756543L775.214998,477.732649L774.676676,475.940596L774.557651,471.721593L774.274514,471.035493L773.587070,471.038907L772.865008,471.527028L772.518801,472.322357L772.048293,472.629566L771.077890,471.813756L770.089864,470.605401L769.878202,470.253818L769.565851,469.745216L771.626448,470.349394L772.431949,470.195789L773.623279,469.171760L774.355731,469.489209L774.947559,469.926128L775.369370,470.533719L775.574710,471.407557L776.066670,470.769246L776.708072,470.144588L777.417157,469.741803L778.131284,469.745216L778.632731,470.318673L778.576046,471.148137L778.398874,471.987841L778.544037,472.609085L779.648454,472.868506L781.738577,471.680632L782.861214,472.322357L783.055074,472.929948L783.351526,474.561569L783.702190,474.896085L784.364392,474.725414L784.973695,474.271427L785.429483,473.633115L785.625770,472.895814L786.119942,471.690872L787.215678,471.168617L788.534495,471.141310L789.725618,471.407557L790.123625,471.690872L790.465229,472.090244L790.988824,472.448654L791.935790,472.609085L792.684543,472.513509L794.149210,472.124378L794.987681,472.035629L796.112584,471.530441L797.249300,470.318673L798.147323,468.820177L798.517209,467.451391L798.376960,466.983751L797.761739,465.505736L797.424166,464.061856L796.912178,463.652244L796.386838,463.399651L796.153404,463.129990L796.042037,462.433651L795.273316,460.528958L795.318821,459.562958L795.939790,457.088224L795.942445,455.193773L795.590761,453.814749L794.911793,452.695146L793.933178,451.568716L792.266667,450.271614L791.807008,449.592343L791.604329,448.810669L791.609238,447.329244L791.397616,446.673866L790.656414,445.987768L789.398142,445.260710L787.967999,444.677014L786.698480,444.434661L786.219567,444.659947L783.870301,446.155026L783.024681,446.393966L782.270621,446.475888L781.549497,446.684107L780.796690,447.301936L778.834787,445.110519L777.627169,444.393700L776.311006,444.434661L775.483984,445.158307L775.147291,446.230122L775.349888,447.257562L776.145498,447.871978L775.680931,449.674265L777.032370,452.975046L776.631331,454.463300L775.548158,455.091370L771.255020,455.323483L772.134899,454.176572L773.064908,453.237880L773.269997,452.336736L771.950687,451.312709L772.967320,450.698292L774.217915,449.022301L775.109771,448.445433L774.444032,447.875391L774.114528,447.052756L773.813978,445.008116L772.212344,445.742002L771.694355,446.155026L772.436336,444.209376L774.764336,443.594960L779.633136,443.861206L780.218032,444.113800L781.267575,445.247056L781.887568,445.581571L782.381779,445.537197L783.536159,445.117346L784.153508,445.008116L784.529749,444.298125L784.486776,442.700643L784.163004,440.089376L784.330487,437.935508L784.215369,435.491499L783.129248,433.832577L780.383823,434.023729L778.026070,435.491499L773.769975,439.348664L771.469854,440.376103L771.497709,439.802649L772.733515,439.191646L774.682759,437.853586L776.493700,436.276585L777.315360,434.931698L778.236093,433.894019L780.288688,433.330804L797.626883,430.856076L801.707552,431.211071L806.421073,432.678841L807.944472,432.876820L808.810304,432.777831L810.068419,432.385287L810.759758,432.357980L811.555816,432.583266L812.933521,433.310324L813.770098,433.504889L815.536575,433.269363L816.997964,432.767590L818.417305,432.699322L820.075700,433.764309L821.614985,433.945220L823.258653,432.467209L827.150288,426.473247L828.097940,425.374126L829.065414,424.913315L833.904121,424.544666L840.164739,425.466289L841.809603,424.892835L846.480257,424.339861L847.314160,423.664004L847.992272,423.599149L848.690058,423.745926L849.573489,423.715206L850.168094,423.455786L851.133821,422.721901L851.417293,422.568297L852.874158,422.035804L853.804763,421.039087L854.505558,420.510007L855.273432,421.370188L855.757900,420.847935L855.517445,419.079786L856.174278,417.796341L857.316343,416.895199L858.541005,416.267131L857.153161,415.942856L855.116358,416.311505L853.125575,417.086350L851.869175,417.932878L851.247201,417.038563L849.216759,417.765620L848.448706,416.792797L846.564043,418.031867L844.389011,418.526812L839.509976,418.560946L838.557981,418.888634L836.513415,420.390538L835.579059,420.847935L834.358860,420.834282L832.094218,419.977514L826.805742,419.796603L823.524363,419.305071L817.797593,418.403929L807.249017,416.267131L800.144091,416.127181L798.599182,415.768772L797.696899,415.697090L796.860392,415.509352L795.240068,414.498981L794.202728,414.669652L786.082454,417.748553L783.427673,418.233258L780.349163,419.516703L778.573484,419.755642L776.856177,419.424541L773.965314,418.205951L772.323175,417.932878L767.266495,418.400516L766.036044,417.932878L765.408433,418.666762L764.751948,419.018344L764.032581,419.127573L763.180346,419.134400L762.309862,418.786232L761.898686,418.011386L761.716718,417.212647L761.515794,416.792797L760.788896,417.052216L755.464515,420.950338L754.677507,421.332641L754.001827,421.107355L753.202525,420.714812L752.581680,421.073221L752.209540,421.677396L752.148698,421.994843L750.974242,421.605714L749.794361,421.025433L748.782247,420.929857L748.123080,421.994843L746.645447,421.370188L747.130522,420.847935L746.699934,420.281308L746.151391,420.632890L745.646933,420.643130L745.170371,420.335923L744.710504,419.755642L744.239977,420.465633L743.714234,422.220129L743.291871,422.568297L742.364556,422.336185L741.475368,422.001670L740.804308,422.104073L740.509897,423.192953L740.005938,423.192953L738.781784,422.418107L736.966945,423.257808L733.807849,425.486769L732.194937,425.647200L724.884207,424.630001L717.337141,422.588778L715.631552,421.728597L714.295336,420.445152L713.472553,418.560946L712.923626,418.560946L712.635296,420.172079L712.120020,421.646675L711.434927,422.861851L710.654093,423.715206L709.537482,424.206738L706.647736,424.882594L705.531473,425.486769L703.926653,424.827980L696.953809,424.913315L696.625057,424.650482L696.432007,424.254526L696.204939,423.879050L695.757230,423.715206L694.741489,423.810781L693.999296,424.073614L689.551463,426.439113L688.542895,426.630264L687.636614,426.398152L685.724934,425.281964L684.831579,424.913315L681.584434,424.227218L680.593126,423.483093L679.945537,421.994843L679.489580,421.994843L679.417293,423.066656L679.101768,423.848329L678.544297,424.432023L677.734030,424.913315L677.279732,426.425459L678.160936,428.108274L679.390609,429.845704L679.970789,431.497799L679.911130,432.450142L679.981551,433.682387L680.440576,434.764441L681.542998,435.218425L682.273481,434.767854L683.025271,432.808551L683.677797,432.357980L684.230601,432.101974L686.553430,430.586416L687.562679,430.381611L692.651271,430.849249L693.654407,430.586416L694.259443,430.125604L694.891881,429.477055L695.685497,428.965042L696.752526,428.924081L696.050869,430.176806L695.664400,430.586416L699.542549,429.702340L701.521912,429.654553L702.979490,430.323582L704.598686,431.422703L706.355439,431.688950L710.250718,431.784526L711.969251,432.337500L715.651106,434.378724L716.906434,435.505153L718.642038,436.689609L720.553065,436.873934L722.447082,436.733984L724.138096,436.938789L721.979771,438.181274L711.751236,440.877876L708.555859,441.000759L707.063447,440.782300L704.221370,439.884571L702.761271,439.802649L698.149155,440.850569L696.404568,441.000759L694.686962,440.847155L693.338193,440.454612L690.162284,438.727421L689.217465,438.358772L688.063862,438.147140L686.434784,438.085698L684.729112,438.358772L684.013832,439.109724L683.634701,440.222499L682.946800,441.574214L680.166092,443.202416L676.276190,444.325432L673.261493,445.649840L673.113199,447.871978L672.421269,449.131531L671.702970,450.012194L671.170359,450.042915L671.018594,448.732160L671.064157,447.377032L670.874161,446.359832L670.140513,446.025316L668.548322,446.673866L668.517411,447.301936L670.125688,447.301936L669.906561,448.097264L669.849933,448.517115L670.013211,449.592343L668.909759,449.943926L667.284918,451.015741L666.355181,451.312709L665.484196,451.084009L664.621762,450.619784L663.865296,450.503727L663.333537,451.312709L664.406665,452.131931L666.011483,452.756587L667.716536,452.865817L669.783372,451.834963L670.163933,452.398178L670.125094,453.193506L669.537972,453.603117L669.094209,453.780615L667.705429,454.569116L665.343740,455.248387L663.151221,457.569517L661.483416,458.235135L660.866039,458.095185L659.284099,457.303270L658.520355,457.088224L658.172953,457.258895L657.874729,457.405673L657.379194,457.968888L656.940929,458.095185L656.461794,457.088224L656.032544,457.337404L655.341707,457.473941L654.923945,457.610478L655.173968,457.282789L655.305474,457.047263L655.531642,456.470394L654.355672,456.586450L652.214836,457.412499L651.124890,457.610478L649.097152,460.368527L648.214739,461.051212L648.982604,461.925050L648.206319,462.710138L646.907600,462.819368L646.119935,461.672456L646.792938,461.532506L647.105477,461.337940L647.687929,460.528958L646.797515,460.634774L645.976393,460.487997L645.274082,460.057905L644.727287,459.330845L644.317713,460.470930L644.589773,462.655523L644.502273,463.966280L643.499878,467.011059L642.817952,468.270614L641.944477,469.458488L639.777200,470.840928L636.982743,471.284674L631.533507,470.888716L627.498107,470.052425L626.020478,470.260644L624.700389,470.936504L621.963753,472.796824L619.705350,473.325906L618.428196,474.046141L617.721607,474.322629L616.932684,474.438685L613.700652,474.117823L612.186540,473.523885L610.898351,472.602259L610.313711,471.407557L611.769171,471.721593L617.244607,473.755999L617.272508,473.175715L616.458556,472.813891L613.758873,472.035629L610.822308,470.260644L600.557100,468.117010L592.111810,466.393228L589.678236,465.894867L580.877410,462.867156L560.150356,452.456206L561.592847,454.818296L568.793163,458.354605L570.901624,459.955502L566.675917,459.842859L564.694544,459.494690L562.858509,458.757389L559.787036,455.528288L557.959515,454.265321L556.014861,454.750027L554.569101,452.456206L555.083308,451.834963L555.676592,451.312709L556.242853,451.869097L557.086544,452.278708L558.092845,452.497167L559.148130,452.456206L554.104008,448.926726L552.886765,446.643146L550.514712,444.953502L549.997393,444.147934L544.664088,439.280395L542.530211,436.652062L542.278180,435.890869L542.484741,433.853058L542.471923,432.876820L543.884475,433.061144L545.854618,432.378461L547.559953,431.245205L548.157805,430.064163L547.325904,429.849117L543.926207,429.398546L542.514310,427.927363L537.715723,426.630264L533.339968,424.015586L531.579761,423.715206L530.134014,424.172604L529.023299,425.223936L528.069297,426.377671L527.117226,427.149104L525.901919,427.155930L521.933369,426.343537L521.106717,425.742776L520.282223,425.503836L511.905908,425.346819L494.518828,426.493727L486.422331,427.292467L477.103214,427.149104L475.444939,427.422177L472.473895,428.644181L469.568221,429.306384L465.235422,431.784526L459.785267,432.569612L453.703827,432.289712L448.831502,432.866579L442.419790,433.620945L436.348994,434.109064L429.995796,435.976205L420.177195,436.815906L417.176114,437.519070L414.860355,438.655739L414.669135,439.041456L414.099416,439.894811L413.510294,440.488746L413.273158,440.089376L413.267911,439.730967L413.254762,439.065350L413.034763,438.454347L412.510115,438.160793L411.613987,438.085698L410.330338,438.420213L409.233743,439.020975L407.980318,439.294049L406.249652,438.655739L404.556314,437.764837L403.267914,437.447389L394.189050,437.508830L391.193623,436.167356L388.507356,433.354698L386.275964,429.900319L385.657621,428.500817L384.210205,425.220523L383.332949,423.233914L381.424807,415.912135L380.740661,410.740811L380.809069,408.832711L381.295562,407.180619L382.449693,406.480869L385.787067,406.439907L387.028729,405.784532L387.926318,404.187054L386.252883,402.661257L380.336250,402.053670L377.929408,401.323199L378.479766,400.807773L379.247576,400.265040L380.138681,399.824710L381.086660,399.602838L382.302417,399.906632L383.240020,400.684890L383.951432,401.487043L384.486272,401.848865L385.195719,400.787293L384.602238,398.452517L380.629111,388.509241L378.023187,383.778249L377.461900,381.617558L378.115680,380.030320L378.145359,379.508067L377.473443,378.248517L377.286733,377.736505L376.738053,377.736505L376.684008,378.316786L376.542699,378.692261L376.133489,379.508067L371.409117,377.176705L370.779996,376.275564L370.311006,375.039908L369.073200,373.619927L367.487911,372.302349L362.169024,369.083498L360.437478,367.506500L359.759042,365.970463L359.405180,365.352635L357.723213,364.478800L357.349777,364.198900L356.889468,364.588029L355.869380,364.499281L354.712315,364.188660L352.260425,363.154395L350.709989,362.137197L349.326723,360.928847L347.071103,357.986482L345.989807,357.003418L344.631858,356.546020L333.052565,357.102407L329.998151,356.491405L329.100948,355.999873L327.993154,355.166999L327.073366,354.197588L326.711918,353.316927L325.823390,353.439810L321.206497,351.285943L320.467676,351.159646L317.960373,351.285943L317.211911,351.019696L315.780889,349.835240L315.047462,349.568993L313.523375,349.794279L312.260449,350.364320L310.109105,351.859397L307.008331,353.091641L304.156533,352.961931L297.993757,351.859397L295.203792,352.702511L293.178020,354.402394L291.236715,355.692665L288.688455,355.296709L285.727329,352.781020L283.402073,349.220825L280.419008,341.496256L276.774540,327.122333L276.457452,323.534823L276.844732,316.315423L276.669495,312.758630L275.915246,309.372506L270.057114,297.258227L268.750477,296.008909L265.412317,295.145309L264.488888,294.414834L263.469808,293.960846L261.705915,294.373872L259.927838,295.425211L255.045957,299.842199L253.717646,300.750173L252.379354,301.159785L249.156239,301.251948L248.701967,302.030211L248.638286,304.477644L248.311877,305.883978L247.455935,307.140122L244.998451,310.075673L244.444323,311.348883L244.032367,313.028291L242.511639,315.711247L242.116749,317.080031L241.949512,318.308866L241.180481,321.394604L240.724686,322.548342L241.541385,322.425459L242.005836,322.616611L242.189115,323.135452L242.219916,324.896780L242.430211,325.272256L242.738924,325.511196L243.065945,326.033450L244.483853,329.156734L244.743875,330.617679L245.341641,329.965715L245.698001,329.003130L246.107075,328.398954L246.867621,328.842699L247.208449,329.579999L247.299947,330.569891L247.164577,332.904673L246.744347,332.624772L245.643834,332.054731L245.221690,331.757763L245.380551,332.290257L245.986871,333.341591L246.122286,333.478128L245.984072,335.720747L246.112812,336.161078L246.307800,336.499007L246.433722,336.888137L246.334091,337.485486L245.993268,338.106729L245.041350,339.212677L244.727912,339.779305L244.840068,341.864905L246.077493,343.441905L247.906020,343.977812L251.573558,342.025336L256.357218,341.526977L258.025078,340.666795L258.822438,340.124061L259.923593,339.857814L262.125145,339.779305L262.980205,339.567673L266.045315,338.058941L265.597824,339.448203L267.252094,339.301426L270.825336,338.058941L271.126303,337.792694L271.557352,337.212412L272.210811,336.621890L273.192701,336.345403L273.688830,336.857416L274.325133,337.724425L274.902308,337.891683L275.206562,336.345403L275.659082,336.345403L277.227877,340.400548L277.535284,342.888931L278.474249,346.838258L279.030630,347.800842L278.641663,349.432457L280.024524,352.309968L279.653354,354.204415L278.642517,355.269402L276.404742,356.703037L275.913674,357.901146L274.446329,358.833009L272.250444,357.941534L271.484628,356.059592L270.060592,355.165123L268.926076,354.383508L268.529236,352.945374L267.525875,353.158021L266.955032,352.822450L266.647703,351.496488L265.202499,350.933348L264.360921,351.698500L262.933444,352.349141L261.891212,351.678939L260.627162,351.285943L259.398860,351.411526L258.115383,351.016741L257.508138,350.819650L256.248005,350.078814L254.327279,348.909676L252.379382,347.634537L249.567092,346.841985L250.967462,348.065262L251.819363,348.623268L252.784724,348.961537L253.610154,349.327484L254.186497,349.986025L253.081807,350.016056L252.546277,349.995671L252.178513,350.476963L252.407077,350.712489L254.097910,350.855852L257.184842,352.048332L256.972678,353.162393L258.019333,353.579760L257.613820,354.142974L257.508731,354.395567L257.401857,354.777870L258.022167,355.030462L258.311800,355.399112L258.377374,355.955499L258.332544,356.754238L258.135089,357.549564L257.793163,357.552978L257.267676,357.017071L256.569244,356.716691L255.772594,356.204678L255.088209,356.170544L254.732575,357.303798L254.299673,358.126432L253.448450,358.502281L252.770472,357.737882L252.103258,356.810928L251.588867,355.776739L250.556813,355.226639L249.593177,355.110919L248.825686,355.701611L249.640091,355.870416L250.138204,356.416410L250.223446,357.017071L250.071534,358.553109L248.914499,360.860579L247.242379,362.963243L243.356594,365.042196L240.614231,364.643749L239.192986,364.581203L236.391992,366.615598L230.565826,369.622724L228.090626,370.410201L224.260484,369.779835L222.436174,370.513719L222.547403,372.585662L222.856071,371.776683L223.339376,371.107653L223.962900,370.602468L224.694827,370.291847L223.394761,372.401338L222.028557,373.299066L213.423742,374.469867L210.887889,374.510828L209.351098,373.729156L207.263848,374.650778L195.530704,378.071020L180.811215,386.952724L176.292071,388.802795L175.585490,389.502545L172.166270,391.673476L164.140049,395.254148L163.237983,395.656931L160.104413,396.168943L154.029311,396.209904L151.065394,396.639994L147.837918,397.889304L148.731259,398.411556L150.035583,400.070476L150.734016,400.749745L151.585881,401.213970L152.273371,401.357333L154.173739,401.323199L153.389925,402.691978L151.516703,404.023210L150.931327,405.282760L151.150486,406.583271L151.767888,408.054453L152.008030,409.727026L151.116365,411.631712L148.804051,410.525765L146.471188,410.252692L141.064959,410.539419L141.034867,411.065085L141.758135,411.372292L142.210078,411.966227L142.919798,413.352073L144.160807,414.628691L144.609426,415.284067L144.808498,416.267131L144.730803,417.530095L144.174720,419.721508L144.003051,420.847935L144.136390,421.673982L145.992504,425.524317L146.322222,425.742776L146.116252,425.831524L143.427146,428.261878L143.045102,428.924081L142.969082,431.036987L143.987951,432.726629L147.179646,435.218425L148.226758,436.300479L148.427164,437.396187L147.738516,441.724405L147.206140,443.059052L147.252142,443.861206L147.538235,444.717975L147.865198,445.267536L148.638783,446.155026L150.083914,448.264521L150.717334,449.636718L151.185136,452.128517L152.638772,454.210706L153.223823,455.323483L153.875188,458.607199L154.489081,459.972569L157.043433,461.081933L158.627119,462.443891L161.269593,465.679821L162.735922,468.813350L163.805201,472.547644L165.002600,480.049009L166.721931,479.656463L168.240923,480.861409L171.938638,486.363884L173.163324,488.691856L174.392948,490.347378L174.552283,490.985693L174.293015,491.709345L173.767644,492.002901L172.986686,492.129199L173.181133,494.194336L174.155529,495.805486L175.361789,497.170866L176.231748,498.481632L176.619490,499.891388L176.645767,500.202012L176.427457,500.836915L176.064422,501.366000L175.553087,501.918980L175.353416,505.875174L173.758681,511.811177L173.721537,512.855695L172.165118,515.047136L171.795377,515.719588L171.706177,516.668530L171.853993,517.501414L172.199862,518.580068L172.386047,520.157087L172.476743,527.161514L173.519953,531.810655L173.414908,533.414984L172.906901,534.910083L172.084844,536.009220L171.048963,536.439317L170.369321,536.582682L169.813226,536.903548L169.299045,537.289270L168.747117,537.586242L166.810893,537.879800L166.160158,538.108503L165.372774,538.927736L163.350190,541.634617L161.895842,542.836159L160.634872,547.273672L159.032896,549.246660L156.550436,550.980704L149.160302,554.482929L138.398965,558.203618L135.203622,558.824871L131.920435,558.763428L128.723544,558.149002L125.801972,557.114719L124.205879,555.875627L123.518422,555.111009L123.645830,554.769661L123.908481,554.489756L123.269695,553.902638L122.393068,553.390617L121.947816,553.342828L121.725836,552.834221L121.190124,552.605518L120.666960,552.240276L120.488025,551.335706L120.794080,550.653011L122.644036,548.468388L121.471479,546.311073L121.421067,545.177800L122.809709,545.031021L121.755228,544.167413L121.910627,543.252602L122.187226,542.378754L121.504520,541.593656L121.216617,542.266109L120.886424,542.696207L120.456913,543.006832L119.868395,543.314045L119.218885,542.153465L118.375826,542.692793L117.536850,543.395968L116.868851,542.740582L119.851891,539.757209L121.376803,538.538600L122.080677,539.255429L122.746688,538.036820L123.226738,536.507586L123.198397,535.060276L122.332601,534.097678L122.360716,533.524215L123.412956,533.500321L123.870486,533.111185L123.726465,532.496761L122.991397,531.810655L123.205219,531.431760L123.541025,530.039065L121.515615,531.715077L119.823266,530.284835L118.206363,527.878342L116.401932,526.598292L112.119856,526.598292L111.857036,527.175168L110.940625,530.039065L110.425645,527.700842L111.480965,525.857571L113.444354,524.959830L115.659880,525.454782L115.085035,524.574108L114.440028,524.260070L113.736228,524.041608L113.007724,523.474973L111.150087,520.925116L110.413068,520.351655L110.329681,522.020838L109.780182,522.020838L109.124917,520.351655L107.543058,521.181126L105.791997,522.874203L104.611335,523.789012L103.550300,521.764828L103.019736,520.126366L103.403544,518.580068L104.313391,519.716751L105.621351,520.580356L106.819666,520.515501L107.418699,518.866799L107.137703,517.166895L106.296783,515.678626L105.200236,514.559011L104.138402,514.002617L104.512620,513.548627L104.718160,513.224349L105.023271,513.009301L105.703589,512.855695L105.547989,512.251513L105.438015,511.992090L105.220758,511.657571L105.790647,511.135312L106.389394,512.712330L106.700558,514.518050L107.240327,516.081414L108.525582,516.914299L105.164354,507.387336L103.597743,504.786282L98.856698,499.007304L98.034625,497.484904L96.812920,494.177269L96.648211,493.013282L97.881165,490.490743L103.054214,484.329470L104.786510,479.646223L106.665289,476.302420L107.492419,472.766103L108.272846,471.018426L109.341253,469.557478L110.577741,468.547102L113.587292,467.604995L114.755779,466.744811L115.309211,464.819637L119.663216,458.757389L124.425656,449.756187L126.372325,447.301936L128.291005,445.581571L129.568255,444.779417L130.790376,444.434661L130.995731,444.083079L132.749304,442.096468L134.796435,441.318208L135.323998,441.000759L135.966600,440.338556L136.097761,440.027934L136.010713,439.539815L136.164076,434.931698L136.697807,433.211335L137.653923,431.344195L138.329617,429.613592L138.046383,428.296012L138.469271,427.388043L138.648904,426.432286L138.574432,425.568691L138.236314,424.913315L139.478898,423.090550L140.288931,419.796603L141.147454,417.932878L138.155580,416.055499L135.952712,413.761683L134.328553,411.112873L133.056227,408.197816L132.015078,404.719546L131.482972,401.323199L131.614542,400.142157L131.927199,399.097652L132.013418,398.080455L131.486916,396.977922L128.982379,394.216470L128.391063,393.253887L129.308750,392.639473L129.769016,392.205969L129.983588,391.820253L130.295111,391.519873L130.982993,391.652996L131.739225,391.949963L133.713544,392.390293L134.767265,393.137831L135.215904,394.233537L134.842390,395.544288L138.344313,394.684108L138.933453,394.455409L138.870190,393.281194L138.102727,392.100153L137.050085,391.079542L128.760297,385.614666L126.953794,383.464215L122.890810,376.333592L117.651133,362.594594L116.055450,351.637525L116.194632,347.991994L117.179117,344.936983L118.187369,344.052908L119.896321,343.131284L121.742347,342.414466L124.643353,341.841011L138.741332,337.096356L151.199087,334.993688L154.204227,334.000382L158.567302,331.522237L160.218303,331.191135L160.949111,330.911234L161.161603,330.249030L161.237389,329.474182L161.573865,328.842699L162.168562,328.583279L164.213366,328.327272L163.734813,326.794644L164.066975,325.285910L165.164852,323.231418L162.950947,323.163920L161.586367,323.978910L158.914146,326.393533L155.894486,327.806759L153.867721,328.383321L149.472441,329.644820L145.080956,330.906319L140.682396,332.159148L136.287085,333.420647L131.895843,334.677810L127.500786,335.934974L123.105445,337.196472L118.710368,338.453635L116.772464,339.008521L115.265966,340.087947L113.862332,342.138423L113.022997,343.690369L110.540007,348.287682L108.058501,352.882826L105.578339,357.477969L103.099518,362.073110L100.622036,366.668251L98.145757,371.265558L95.666873,375.865033L93.193388,380.460172L92.355532,381.541763L91.038491,381.914576L88.345239,381.106092L86.919797,380.937026L85.417826,381.281661L81.221684,382.991833L78.044320,383.143559L76.443677,383.418834L75.070926,384.402887L74.694329,385.159351L74.533947,386.758979L74.279647,387.573966L73.671028,388.456146L72.176757,390.142475L71.522511,391.089681L68.570281,398.112439L67.120543,400.158576L65.661987,401.645494L62.299447,404.166318L60.219299,406.648126L58.295857,410.369756L54.076732,421.812090L51.875099,425.464361L46.995786,431.396864L45.390003,435.801267L44.270112,437.348878L42.968014,438.751264L41.724569,440.467942L41.091406,442.108756L41.044565,442.505768L40.902740,443.708388L40.864374,445.349203L38.367476,463.727648L33.728110,478.471981L33.541800,481.742795L32.753221,485.026615L32.604466,486.751976L32.970516,488.910846L33.540804,490.456302L33.752569,492.008261L33.055090,494.180137L30.461827,499.512291L26.036742,506.602326L23.879343,512.283463L23.026189,513.824589L21.775958,515.229159L18.710027,517.318675L17.566251,518.434962L15.977310,522.156643L9.578832,531.960472L6.683826,539.139405L5.668515,540.843102L4.286768,542.247677L1.454535,544.369713L0.508372,545.995379L0.395616,547.818292L1.346338,548.496737L2.393780,548.467748L10.509540,548.243133L13.603756,547.761936L16.338312,546.294501L19.003632,543.602398L20.344057,542.642172L22.261529,542.046094L23.992379,540.981826L27.360094,537.598275L29.056747,537.533249L29.479530,538.159671L30.248300,541.198581L30.209893,541.512876L29.875800,542.254180L29.848855,542.568475L30.079862,542.988981L30.731481,543.775803L30.919103,544.148622L31.116080,546.194794L30.749112,549.717071L31.064622,551.537818L32.284689,553.588326L33.661247,553.991492L35.184429,553.339057L37.801022,551.459786L38.405019,551.119479L39.327642,550.816022L40.173190,550.842032L40.805811,551.089134L41.350650,551.102139L41.932855,550.425862L43.263310,551.932313L44.451699,552.753817L44.805454,553.718379L43.647797,555.647505L44.819982,557.284011L45.113666,558.868495L45.784678,562.531669L46.460505,566.192676L47.137016,569.858020L47.810704,573.521197L48.493007,577.182208L49.168356,580.847556L49.848498,584.510737L50.525596,588.176087L51.152266,591.546650L52.499415,594.366652L53.778319,596.020504L55.155017,597.793573L56.520697,599.562307L57.894141,601.333209L59.256269,603.106278L60.630174,604.877180L62.000590,606.645915L63.375050,608.414651L64.742009,610.185554L66.394620,612.316274L67.224198,613.139950L67.957546,613.469420L68.646699,613.677507L69.318141,614.098222L69.355864,614.121858L70.185386,615.121108L70.846564,616.389136L71.284151,617.795888L71.427785,619.206976L71.230038,620.572545L70.448785,623.316689L70.301255,624.675756L70.620079,626.544202L72.850538,631.761546L74.190528,637.486105L74.192992,640.709286L72.911900,642.629756L71.644872,642.621086L70.099898,642.328463L68.705510,642.530048L67.900157,644.040846L67.478840,645.679532L66.811751,646.997417L65.893459,648.120221L64.754224,649.143316L63.945149,649.585501L63.090506,649.932313L62.403555,650.465537L62.109966,651.445280L62.414657,652.182256L63.878948,654.206771L64.358971,655.134493L64.606769,656.591104L64.652382,660.228296L64.414991,661.702248L62.723563,666.826399L61.680323,675.618094L61.827647,677.330481L62.697778,680.607859L62.884371,682.211868L62.515163,684.058645L61.816586,685.745022L61.295873,687.474750L61.460360,689.451583L63.334955,693.162479L65.957626,695.377746L67.326280,695.907987L69.146781,696.613267L72.736992,697.371920L78.809662,697.267876L81.253033,698.056876L83.656018,701.793785L84.042416,702.066900L84.193155,702.504752L83.359709,705.916525L83.277939,706.636162L83.382552,709.128880L83.829458,711.569577L84.535467,713.936577L88.263843,722.814995L89.474755,724.505710L90.295184,725.125639L92.287869,726.157408L93.251375,726.833694L94.918624,728.489728L95.733665,729.006040L95.746677,729.014283L97.927183,729.595982L104.002076,731.216548L106.419090,731.446311L107.577129,731.229553L108.392389,730.683322L109.140502,729.994031L110.090432,729.322080L110.909552,729.278728L111.701019,729.460805L112.174750,729.157343L112.044219,727.666046L114.165599,727.631365L115.928143,727.288887L117.682609,727.158832L119.760514,727.765755L119.522748,726.382837L120.027310,725.771578L120.972940,725.615512L123.474820,725.719556L124.063720,726.205095L124.458216,726.881381L125.303162,727.566337L125.812402,727.635700L126.350606,727.444953L127.376098,726.794678L128.020111,726.634276L128.366678,726.963749L128.536425,727.423277L128.653937,727.648705L128.704787,727.718068L130.163879,727.822112L130.148721,727.718068L130.230048,727.588013L131.585958,727.189178L133.214277,727.666046L134.636461,729.048964L135.529195,728.775849L137.511747,727.765755L138.671880,727.492639L139.828382,727.618359L142.180348,728.355338L143.406443,728.459382L146.506545,727.796101L147.628352,727.930491L148.271100,728.511403L148.387130,729.486816L148.404610,730.544597L148.754341,731.402960L149.733461,731.879828L153.335844,731.979537L154.185277,732.452070L154.733839,733.002637L155.447231,733.232400L156.774886,732.768538L157.742880,732.014218L158.378876,731.251229L159.089006,730.752685L164.281353,731.389954L168.308536,730.856729L172.058904,729.300404L175.295414,726.781672L176.131935,725.615512L176.506762,724.791831L177.108038,724.345309L178.641919,724.288952L181.505005,723.222501L184.735245,722.953720L189.222658,721.761550L191.417169,721.709528L191.891973,721.982643L192.898601,722.992737L193.584776,723.283193L196.066271,723.929133L197.279112,723.877111L199.392776,723.131462L200.589705,722.893028L201.096459,723.434924L204.633886,728.784519L205.369901,729.278728L206.531461,729.629877L207.319642,729.647217L209.017438,729.395778L209.727927,729.447800L210.062526,729.694904L210.481405,730.449223L210.707795,730.678987L211.789783,731.116839L219.314442,735.269929L221.634841,735.382644L225.898431,732.733856L228.606248,731.975202L231.364682,731.810466L233.455550,732.395713L235.777200,734.754044L236.982730,736.566144L242.296796,744.575368L247.616292,752.588928L252.941329,760.602491L258.268119,768.613887L263.590729,776.627451L268.924477,784.641017L274.261821,792.650249L279.602348,800.665983L281.644150,803.728783L282.503480,803.728783L282.572874,803.728783L284.436805,803.132697L288.047739,801.264237L290.040771,800.865401L291.495228,801.717263L294.521888,805.807498L296.137801,807.216430L300.438408,804.535125L304.976224,799.727418L306.605272,798.667468L308.767138,796.417514L310.201077,795.708713L311.996072,795.630680L313.515164,796.031683L316.248776,797.429777L317.569920,797.007097L319.223435,797.447117L320.965543,798.153751L322.547030,798.520073L327.274681,798.229616L328.837686,798.520073L333.499771,800.147930L335.155588,800.349516L336.675515,800.731011L339.694783,802.350198L341.464235,802.584297L342.467011,802.077082L344.476050,800.147930L345.300398,799.720915L349.910960,799.445632L355.405768,797.624859L357.009721,797.429777L358.535504,797.633530L363.335295,799.148673L366.068311,799.135667L374.604593,795.708713L377.858059,795.210168L387.252531,796.231101L390.304192,795.708713L392.901353,794.713791L393.620870,794.566395L394.332639,794.306284L394.934778,793.662511L395.348686,792.817153L395.518395,791.960956L395.912713,790.901006L396.769866,790.636561L397.770117,790.666907L398.600964,790.504338L399.400590,789.784699L400.821779,788.185021L401.720966,787.690811L402.363916,787.662632L403.660372,788.093982L408.806793,788.590359L420.315695,791.648824L422.417152,793.172637L424.315071,795.314212L426.313809,797.067790L429.225392,797.370016L429.299943,797.377754L428.818260,797.773676L427.308952,799.014282L426.478370,799.991864L426.111988,801.151523L426.022632,804.379059L428.595459,809.219280L430.449520,810.756099L430.957296,812.444649L431.071485,814.373801L430.739077,815.808743L429.802476,816.654102L427.089846,817.939481L426.007729,818.674292L422.380989,822.996460L421.658635,824.325191L417.099230,829.035356L415.234540,832.061307L413.945627,835.388552L413.245047,838.986745L413.129798,842.834211L413.815264,847.765469L413.894567,849.419338L414.135278,849.798665L415.202833,851.019016L415.438890,851.426522L415.205390,852.438785L414.744796,853.125910L414.208219,853.672141L413.745937,854.289903L412.839453,857.324524L412.420465,857.777549L411.525732,858.033324L410.707053,858.681432L409.291479,860.356976L408.653552,860.844683L406.441922,861.789750L406.033376,862.151737L405.289332,863.116312L404.876127,863.506478L404.533630,863.580176L403.708275,863.437115L403.362084,863.506478L400.531380,866.094575L398.596724,869.408813L397.818370,872.937641L398.437631,876.156505L399.066718,877.506910L399.499873,878.761942L399.743154,880.233732L399.776244,882.223575L399.601916,882.949716L398.878470,884.926553L398.653372,885.951820L398.598529,886.909892L398.642042,887.774758L398.774801,888.596273L399.010325,889.435128L399.449430,890.243637L400.729347,891.988542L400.984210,892.560784L400.801543,893.451661L400.440706,894.026071L400.080519,894.446582L399.907401,894.877931L399.929481,898.607302L399.757353,900.200475L398.707405,903.467020L398.114017,906.694549L397.997033,908.649707L398.126488,909.206775L398.757583,910.682898L398.936432,911.252972L398.880504,912.280405L398.623526,912.846143L398.498739,913.336017L398.855212,914.118513L398.290732,915.687842L398.014552,919.383566L397.403085,920.729634L396.623396,922.075701L396.201380,923.900803L395.838379,928.561100L395.306463,930.780701L395.339692,933.457662L395.210284,934.268336L394.785953,934.955459L394.258514,935.358629L393.814828,935.915697L393.660513,937.079687L393.876029,938.009578L394.351529,938.805080L394.964543,939.468359L395.608078,939.995080L395.623626,939.425007L396.970320,940.536975L397.471864,941.644608L398.011996,944.577342L398.305152,944.911149L399.209455,945.277470L399.490526,945.776013L399.502706,946.458800L399.050464,947.627125L398.921457,948.299074L399.129098,949.398036L400.116250,951.244813L400.328101,952.335105L400.110177,953.334358L398.713388,956.087182L398.255008,959.241008L398.587256,962.022009L399.161642,964.627437L399.429805,967.252373L400.015683,968.849878L401.374781,970.139586L402.720474,971.804285L403.281882,974.518091L404.072252,975.473992L404.518482,977.023810L404.271680,978.418021L404.263705,978.463081L404.745680,978.766541L405.345410,980.760712L405.439965,985.960727L405.743220,987.753312L408.559971,993.571085L409.209237,995.636785L409.524710,999.785524L409.997517,1001.740677L411.259003,1003.526758L412.670452,1004.337431L414.024536,1004.354772L415.409002,1004.064317L416.926925,1003.951603L419.676918,1005.427722L421.705363,1008.603219L426.357335,1023.334054L427.341624,1024.961902L428.412700,1025.813758L431.166315,1027.055778L433.557511,1029.940818L433.122628,1033.445785L431.130801,1036.955086L426.509619,1043.290902L425.585552,1044.071228L424.813619,1044.370353L423.186945,1044.730171L422.292410,1045.211372L420.871497,1046.667981L417.623194,1049.988702L414.382926,1053.318093L411.135761,1056.638814L407.896739,1059.963870L404.654567,1063.284590L401.412900,1066.609646L398.175661,1069.934701L394.935205,1073.259756L393.043489,1075.206235L391.764083,1077.551547L391.600893,1083.291276L392.707139,1082.311533L393.315529,1081.154050L394.078101,1080.139627L395.568110,1079.697443L397.189189,1079.788481L398.021310,1079.710448L399.457385,1078.899776L400.079258,1079.194566L400.866554,1080.221995L403.887937,1081.899695L405.716934,1082.320204L407.206447,1081.704613L408.626650,1081.305780L409.945749,1082.549966L410.957758,1084.435753L411.464394,1085.944383L411.805193,1089.724626L412.206516,1091.567061L413.072042,1092.351722L416.397196,1092.412414L417.758531,1092.889280L418.855036,1094.016416L419.151922,1094.718709L419.566410,1096.301036L419.860867,1096.933966L420.527935,1097.497535L422.096533,1098.368898L422.396591,1098.910791L422.644278,1099.595743L423.773933,1101.243096L424.070400,1101.568232L424.994960,1101.876027L425.509643,1102.621671L425.871625,1103.558062L426.342023,1104.429425L427.035267,1105.045015L428.659383,1106.050767L429.332635,1106.718379L429.673396,1107.572402L429.989915,1108.716879L430.404599,1109.726966L431.047706,1110.160480L431.854426,1110.433594L432.654373,1111.092535L434.035232,1112.683532L434.704557,1113.156062L437.294800,1114.114128L439.765089,1115.817838L440.339757,1116.459439L440.593462,1117.291785L440.593137,1118.882781L440.993776,1119.637096L441.440075,1121.319130L440.427473,1123.035845L438.974164,1124.561814L438.113516,1125.675945L438.118660,1127.223589L439.245626,1130.422922L439.728405,1133.015335L440.889229,1136.583153L441.507190,1137.701619L442.617792,1138.412582L443.950458,1138.878609L445.054045,1139.552723L445.504077,1140.903118L445.691397,1145.446343L445.412808,1146.918122L445.078232,1147.531544L443.858045,1149.263432L444.030144,1150.314702L444.541960,1151.179562L445.083321,1151.860179L445.641900,1152.939628L447.015891,1154.029915L447.324365,1154.675850L447.495120,1155.584062L448.787150,1158.425744L454.899097,1177.567539L455.086972,1179.383961L455.041054,1183.123015L455.308288,1184.774702L456.006373,1186.597626L457.549312,1189.543351L458.236853,1191.346767L458.506650,1193.208707L457.962831,1196.646469L458.229561,1197.810453L458.913200,1198.673145L459.754897,1199.442631L460.499527,1200.342172L461.262839,1202.013366L461.807874,1204.076890L461.863729,1206.084058L460.469159,1209.192349L460.820919,1211.177841L462.329346,1214.767332L463.671815,1216.145905L467.210830,1219.778747L472.216036,1224.911545L477.960323,1230.798657L483.703841,1236.694439L488.716875,1241.827236L492.264303,1245.460078L493.606758,1246.838650L496.725902,1250.037979L501.214569,1253.618798L505.737845,1254.754603L509.954814,1253.332680L511.402455,1253.306669L512.859206,1253.991620L514.036524,1254.988701L515.270371,1255.829716L516.896902,1255.990116L518.625360,1255.092744L521.009978,1252.092832L522.625096,1251.303838L525.858441,1251.078411L527.318156,1250.653568L528.814260,1249.626141L530.412862,1247.866077L533.286167,1243.951452L534.964128,1242.191388L536.438675,1241.068588L542.877128,1237.700190L545.854761,1235.601985L547.672846,1234.951715L549.150601,1234.743628L554.508073,1234.943045L556.038017,1234.669931L556.931080,1234.808656L557.897994,1235.307196L558.788268,1236.070179L559.597245,1236.958882L561.359686,1239.434243L562.140249,1241.124945L562.617592,1242.954371L562.715049,1244.944197L561.490863,1248.841482L559.240123,1252.062486L557.438116,1255.318171L557.572521,1259.315163L558.370904,1261.096903L559.388987,1262.289064L560.707199,1262.852631Z M753.368581,0.000000L753.060384,0.197999L753.303982,0.580342L753.612609,0.747617L753.740490,0.566687L753.722441,0.197999L753.368581,0.000000Z "/></g></svg>