<?xml version="1.0" encoding="utf-8"?><!DOCTYPE svg  PUBLIC '-//W3C//DTD SVG 1.1//EN'  'http://www.w3.org/Graphics/SVG/1.1/DTD/svg11.dtd'><svg enable_background="new 0 0 1000 1931" height="1931px" pretty_print="False" style="stroke-linejoin: round; stroke:#000; fill: none;" version="1.1" viewBox="0 0 1000 1931" width="1000px" xmlns="http://www.w3.org/2000/svg" xmlns:xlink="http://www.w3.org/1999/xlink"><defs><style type="text/css"><![CDATA[path { fill-rule: evenodd; }]]></style></defs><metadata><views><view h="1931.28568219" padding="0" w="1000"><proj flip="auto" id="robinson" lon0="-64.7521260908"/><bbox h="11.8" w="6.11" x="-948.91" y="-308.32"/></view></views></metadata><g class="" fill="black" id="country"><path d="M179.190736,1929.285682L225.662852,1911.885568L724.151880,1834.812072L777.642700,1817.077382L882.820125,1766.215669L935.786938,1747.811776L998.032671,1740.561759L999.740971,1721.823264L924.883809,1694.830919L831.853003,1689.253991L744.219234,1709.665552L685.095535,1759.300267L664.965383,1737.215599L640.861018,1722.492494L592.319217,1703.084774L506.929013,1635.269370L501.657828,1628.130912L443.462210,1642.073212L387.639309,1678.880906L334.606166,1704.311699L247.236024,1674.084751L225.708037,1695.946304L215.253971,1730.523279L207.526254,1842.508260L200.969825,1882.327697L179.190736,1929.285682Z M897.477811,108.740751L857.078596,83.863497L823.079055,66.757074L785.356617,58.974405L707.789805,35.657150L685.267726,48.082821L693.346221,68.277700L649.323798,82.257295L607.714386,100.942950L566.632295,159.927594L598.882531,195.646846L719.616447,183.226005L792.280778,228.297452L813.903471,164.623079L791.766695,127.331016L809.582356,119.571029L871.477934,142.905992L904.822928,136.710502L897.477811,108.740751Z M226.838502,0.000000L243.205893,23.297310L278.852395,56.040598L256.756624,63.807429L223.554755,35.755780L136.499786,32.276502L74.738618,49.341055L0.259029,90.291255L35.077689,130.672063L112.983961,105.734406L138.354627,139.903323L174.712489,147.641455L227.030511,136.734856L248.242212,153.806692L260.554468,128.961032L277.607739,175.546968L302.964351,194.177706L375.577374,225.198831L395.358551,197.287987L423.383281,186.411789L443.901006,194.111743L471.356425,189.431677L441.599828,127.373776L359.742369,72.994775L276.569303,17.073957L226.838502,0.000000Z "/></g></svg>