<?xml version="1.0" encoding="utf-8"?><!DOCTYPE svg  PUBLIC '-//W3C//DTD SVG 1.1//EN'  'http://www.w3.org/Graphics/SVG/1.1/DTD/svg11.dtd'><svg enable_background="new 0 0 1000 1902" height="1902px" pretty_print="False" style="stroke-linejoin: round; stroke:#000; fill: none;" version="1.1" viewBox="0 0 1000 1902" width="1000px" xmlns="http://www.w3.org/2000/svg" xmlns:xlink="http://www.w3.org/1999/xlink"><defs><style type="text/css"><![CDATA[path { fill-rule: evenodd; }]]></style></defs><metadata><views><view h="1902.67698474" padding="0" w="1000"><proj flip="auto" id="robinson" lon0="107.85237546"/><bbox h="248.17" w="130.5" x="1479.49" y="-391.81"/></view></views></metadata><g class="" fill="#000" id="country"><path d="M726.433250,1876.545127L726.323391,1875.745610L726.044643,1875.301433L725.641496,1875.055830L725.149222,1874.852032L722.118641,1876.404036L718.625018,1879.262441L715.801387,1882.648634L714.723740,1885.747419L715.135592,1886.531260L717.077846,1889.133612L717.677125,1889.697978L719.468546,1889.525533L719.863116,1889.102259L719.631430,1888.532667L719.490304,1887.942174L719.486447,1886.797766L719.314428,1885.345047L719.440935,1884.090901L720.398245,1883.557889L721.681110,1883.348865L722.788445,1882.993524L723.970497,1882.925591L725.448504,1883.557889L724.645260,1881.890921L723.367685,1880.014929L723.234706,1878.604015L725.863266,1878.300930L725.730614,1877.705211L725.594536,1877.328968L724.970664,1876.545127L726.116654,1876.623511L726.433250,1876.545127Z M666.709542,1765.146119L665.774226,1763.703864L659.908700,1757.694469L653.786452,1748.925983L652.814208,1748.225759L652.416425,1747.828616L652.109104,1747.170196L651.462408,1747.974932L654.170468,1751.570115L655.333985,1753.587180L655.958456,1756.382853L656.644041,1758.530558L658.105251,1760.850707L661.216326,1764.707172L665.591064,1771.469052L666.851729,1772.597774L669.036278,1772.305142L668.387124,1771.364540L666.361971,1769.723713L664.492723,1767.340855L665.269526,1766.541344L667.105697,1767.863412L669.736359,1770.225367L671.640122,1772.953112L671.251051,1775.388226L671.309975,1776.182512L674.238059,1776.245219L675.777600,1775.064241L676.316112,1772.785894L676.224141,1769.577397L674.701136,1768.385968L668.263173,1766.745141L666.709542,1765.146119Z M702.253425,1737.262548L700.576702,1734.702029L696.525554,1730.437981L695.051436,1728.964377L689.880606,1725.092247L688.046487,1724.668978L687.502639,1724.292739L687.564670,1725.092247L693.198270,1730.552943L696.545833,1732.486396L699.646411,1737.304353L701.385071,1738.401719L702.253425,1737.262548Z M720.232753,1687.036834L721.760073,1686.148496L722.390997,1685.082491L721.887173,1683.389425L720.845977,1682.668304L718.226171,1681.968085L715.746947,1681.074522L702.760214,1680.902080L699.648446,1680.139156L695.688084,1678.310226L693.964322,1678.466992L699.578948,1681.100650L714.541614,1684.131448L716.812795,1685.181776L717.898093,1686.796460L718.661325,1687.376492L720.232753,1687.036834Z M409.354338,1658.547351L408.059113,1658.662312L407.037940,1659.676061L406.323598,1660.851800L406.055940,1662.100696L405.998181,1663.563838L405.719853,1664.797058L404.759312,1665.309157L404.325332,1665.742875L403.271052,1667.733793L403.071170,1668.339952L402.210391,1669.416407L400.017157,1669.562721L392.824124,1668.407884L392.256834,1668.784121L392.752056,1670.163655L394.055269,1675.258527L395.636255,1676.899338L400.137719,1679.344878L403.612976,1682.297292L406.179604,1686.441125L409.935291,1696.076978L412.306024,1706.893806L414.247608,1712.553048L416.632619,1713.697439L417.120907,1714.314051L419.063533,1715.442764L418.525609,1713.216690L417.987583,1711.831926L417.840935,1710.279945L418.459097,1707.562673L416.182526,1704.134730L417.123877,1697.064601L420.533859,1684.601744L419.461231,1671.010188L418.901460,1668.820699L409.974112,1659.174412L410.871156,1660.052297L409.354338,1658.547351Z M770.470835,1660.209062L766.735491,1656.802032L765.930502,1657.732172L765.512768,1659.237118L765.344907,1660.877927L765.371529,1662.205206L764.717758,1662.968130L761.516514,1664.927695L757.050035,1666.249749L756.609564,1668.611679L758.643468,1674.960673L760.034224,1673.424373L762.081936,1669.473888L763.520726,1667.859205L765.844810,1666.960418L766.814578,1666.239298L767.421039,1663.668348L768.211455,1663.114444L768.974009,1662.445579L769.118326,1660.851800L769.889975,1660.851800L770.336951,1661.259389L770.586129,1661.384801L770.906214,1661.478860L771.567193,1661.808067L770.470835,1660.209062Z M741.004769,1651.351831L738.529983,1649.533355L736.260905,1650.416465L734.285399,1651.628782L733.432356,1653.530866L734.645439,1656.540757L734.494472,1654.711830L735.321205,1654.711830L735.155708,1656.713199L733.646374,1659.467040L733.535645,1661.808067L734.012273,1663.250307L734.774835,1664.708224L735.461865,1666.479671L735.653194,1668.820699L736.480006,1668.820699L737.833538,1667.059703L739.991907,1665.930993L745.380957,1664.431272L744.316398,1662.989032L742.960855,1661.808067L740.391294,1660.052297L739.764000,1661.808067L738.928041,1661.808067L740.794989,1655.255283L741.004769,1651.351831Z M968.676715,1649.987974L967.652144,1647.432703L965.639881,1645.582875L964.238575,1646.497338L964.002472,1648.373293L964.650228,1650.385112L965.892147,1651.712390L968.230692,1651.884832L968.676715,1649.987974Z M737.283370,1641.951150L737.449655,1641.522659L737.826294,1641.193453L738.096221,1640.686579L737.933147,1639.725086L737.638361,1639.495164L737.075896,1639.249566L736.553231,1638.930810L735.903683,1637.864808L733.122175,1635.910471L732.851674,1634.985557L731.682561,1634.844468L730.239307,1635.048263L729.030946,1635.424499L729.097125,1636.213550L730.778930,1637.211620L731.257474,1638.429162L731.047736,1641.083717L730.876959,1642.008631L729.915723,1643.038055L729.763528,1644.187665L730.023282,1644.328754L731.321380,1646.351024L731.518869,1646.737711L732.539596,1647.746233L734.240710,1648.984677L735.766934,1649.444522L736.316361,1648.096342L735.953426,1646.382377L734.719687,1644.030900L734.301594,1642.431897L735.073146,1642.431897L736.293901,1645.065550L737.049586,1646.309220L737.682283,1646.737711L738.480491,1645.953885L738.289421,1644.762471L737.685858,1643.362036L737.283370,1641.951150Z M731.719871,1653.928004L730.747086,1653.050120L728.948074,1652.956061L728.875457,1652.078176L731.604696,1651.869156L732.310733,1650.301504L731.695755,1648.535284L730.468957,1647.699203L729.990287,1647.244585L728.569437,1645.180511L728.256957,1644.626608L728.355947,1643.168692L728.806730,1642.296034L729.537370,1641.475630L729.382386,1639.620576L728.545733,1637.634886L726.999921,1636.067236L723.850720,1635.095292L723.123654,1634.311467L721.936094,1632.419836L720.834403,1631.332932L719.734717,1630.925343L717.165721,1630.956696L720.642789,1636.271030L721.689810,1639.233889L721.130099,1642.431897L720.449762,1642.975349L718.585471,1643.309781L718.232760,1643.706919L718.762246,1645.765767L719.103296,1646.664554L719.256338,1646.737711L719.088700,1650.254475L719.261764,1651.790773L719.843530,1653.828720L721.432901,1656.838611L724.089644,1660.324023L727.119006,1663.208503L729.892470,1664.431272L731.931473,1663.417524L731.816866,1661.013790L730.357548,1658.348782L728.472424,1656.540757L727.908349,1656.718424L727.758074,1656.901317L727.592294,1656.896091L726.929170,1656.540757L728.301002,1655.798735L729.705193,1656.117491L731.298722,1656.838611L733.168100,1657.340259L733.102186,1656.540757L731.719871,1653.928004Z M989.274063,1431.206497L985.028058,1430.297254L982.871316,1429.372334L982.964734,1430.751876L983.056450,1431.206497L982.256609,1430.913867L980.601274,1430.595110L979.822406,1430.328607L979.910962,1431.206497L981.087556,1432.507655L982.908458,1434.106669L985.097522,1435.355571L987.349157,1435.585495L987.101909,1435.042039L986.983449,1434.958431L986.838819,1434.979333L986.481331,1434.707605L987.405048,1434.226856L988.251913,1434.258209L989.024793,1434.738958L989.715236,1435.585495L990.261460,1435.271963L991.395150,1434.326141L991.849544,1433.829716L991.461611,1432.983179L990.928267,1432.241153L990.206315,1431.629766L989.274063,1431.206497Z M993.301116,1386.319039L992.700467,1384.782724L991.572450,1382.326708L991.076568,1380.832197L990.123066,1379.520580L988.464588,1379.003248L985.862670,1378.579978L982.988884,1378.971895L982.238115,1380.727685L983.609923,1381.746671L985.027092,1382.149039L985.807636,1383.037385L986.577030,1384.082498L991.030531,1387.311896L992.932695,1387.970316L993.301116,1386.319039Z M618.074771,327.863350L617.586670,327.079755L616.156480,326.181233L614.691506,325.742420L613.070361,324.049855L612.634054,324.039407L613.043856,325.857347L614.310171,328.103653L615.591387,328.751425L616.461016,328.584258L617.234454,329.002175L617.918554,329.822339L618.253751,329.597708L618.074771,327.863350Z M573.881566,322.864016L570.360338,322.305052L568.567220,320.607265L569.237986,319.651281L568.339721,320.487114L568.319993,321.437875L568.497761,322.378187L568.227497,323.234917L567.553053,323.772985L565.104985,324.770762L565.155963,327.126771L566.683129,328.918592L570.250381,331.123108L571.891518,332.721644L575.027781,336.535149L577.524489,338.217272L577.385056,337.344866L576.995438,336.890380L576.276879,335.511249L577.091933,335.511249L577.569881,336.064991L578.367563,336.749332L578.843132,337.344866L579.667262,337.344866L579.514418,336.388877L580.211750,336.388877L580.527974,336.780676L580.579366,336.932172L580.699032,337.057547L581.188733,337.344866L581.328210,338.217272L578.982582,338.217272L579.109490,339.011318L579.493006,339.314310L580.087254,339.972532L580.630995,339.011318L580.784619,339.972532L581.163274,339.565061L581.452574,339.335205L582.215896,339.011318L582.661736,341.800929L583.291585,339.565061L583.470939,337.344866L584.168279,337.344866L584.307792,338.217272L585.131932,338.217272L584.091757,335.960511L580.356442,333.839575L579.369387,331.123108L580.618950,332.084319L581.669843,332.596269L582.765594,332.596269L584.137306,332.000735L583.996807,331.123108L583.139119,330.517127L582.587209,329.728307L582.400410,328.787992L582.623973,327.696183L583.991536,330.015626L584.925609,330.872357L586.278823,331.123108L585.482934,330.224584L585.100046,329.869354L584.489789,329.451437L584.337506,328.500674L585.108941,328.850680L587.532408,329.451437L586.693089,328.960383L585.997521,328.349179L585.381472,327.612599L584.816932,326.745421L584.056305,326.745421L583.040079,326.902140L581.181744,326.437207L579.697508,325.481221L579.831344,324.112543L579.690692,323.234917L578.383869,322.143109L576.807506,321.516234L575.737811,321.960271L575.964960,324.112543L575.267743,324.112543L573.881566,322.864016Z M612.245664,318.188573L611.439746,317.906479L610.885877,318.178125L610.843520,318.815448L611.300530,319.630385L611.902869,319.828895L612.188496,319.578145L613.635031,321.197572L614.508815,321.845343L615.269108,322.012510L616.010365,321.892359L617.378514,321.166229L617.563511,320.852791L617.510759,320.581145L617.464538,320.293828L617.723447,319.933375L617.912703,319.421427L617.469714,318.637833L616.271543,318.225141L614.458861,318.157229L613.317784,318.324396L612.880398,318.475891L612.245664,318.188573Z M556.127302,319.254260L555.202150,316.360189L553.671892,314.719867L548.995818,312.713870L548.214245,316.031080L547.906244,319.651281L548.841065,321.986390L550.435703,322.785656L552.211212,323.130438L553.798899,324.112543L554.622883,324.112543L553.895940,323.020735L553.498147,321.892359L553.489662,320.763984L553.909192,319.651281L554.713242,322.639386L557.759359,327.758871L558.646531,329.853682L559.706459,330.423095L561.703746,330.851461L563.008314,330.005178L561.943790,326.745421L557.018228,321.030406L556.127302,319.254260Z M628.362442,327.643943L629.037761,326.719301L629.406173,324.112543L629.854905,322.681177L633.759956,314.213144L634.335348,312.055652L634.524025,309.130241L634.209235,308.189930L633.972272,307.787686L633.553407,307.380218L633.482595,309.464573L631.742723,315.346742L631.013722,317.227365L630.016629,318.287828L628.516115,318.752760L626.223300,318.852016L626.352003,319.651281L627.836996,321.113989L627.974778,323.151334L626.885789,327.696183L628.362442,327.643943Z M659.791023,304.825708L655.419734,301.701789L653.905996,301.242082L653.425151,303.415243L654.258156,304.590631L655.484075,305.285415L656.207533,306.063784L656.267422,307.552608L654.859910,311.836246L656.675332,310.801904L658.065768,309.323527L658.551951,307.348874L657.582235,304.825708L658.270218,304.825708L658.680531,305.123473L659.920452,305.624972L659.791023,304.825708Z M663.704304,305.233176L665.122175,302.307766L665.886836,301.273425L665.998170,299.559971L664.374866,299.262206L662.767510,300.625656L662.151647,303.080910L662.643984,305.337655L663.704304,305.233176Z M629.856262,298.619661L629.113992,300.970436L628.982102,302.114480L627.703644,301.597310L627.166473,301.242082L626.395452,304.930187L626.334074,306.904839L626.863845,308.336201L625.303246,310.671306L623.078305,312.818349L620.393691,314.698972L617.379173,316.219142L617.507846,317.018407L619.363746,316.736314L624.137619,315.346742L626.807423,315.059424L628.521734,314.573597L629.938706,313.591494L630.848771,311.992965L631.282007,310.133239L631.694735,305.624972L632.677557,301.064467L632.829235,299.371909L632.077677,298.922650L631.495249,299.351013L630.280351,301.242082L629.856262,298.619661Z M636.857767,302.788369L636.919832,298.807723L639.396214,289.456862L639.280136,288.574015L638.826796,288.401625L638.134906,288.934467L635.996500,291.765846L635.691659,292.397943L635.490197,293.333029L635.439953,294.419610L635.724196,297.292779L635.595504,298.734588L634.300015,300.406250L634.153143,301.680893L634.615342,303.195837L635.087414,304.324209L635.062700,305.123473L633.957862,305.624972L636.262820,305.995872L636.857767,302.788369Z M626.053222,277.729096L625.693178,277.128342L625.458938,276.355196L625.261956,275.310405L624.835873,274.192479L624.208893,273.842474L623.441422,273.685755L622.606843,273.116344L619.461801,269.579723L618.161074,268.592394L617.648070,268.331195L617.176969,268.216268L616.746070,268.237164L616.353122,268.435675L616.034367,268.978967L615.873160,269.767785L615.846701,271.329750L616.192473,274.626067L616.622673,276.605946L617.255535,277.494018L616.290105,277.734320L615.871542,278.444778L615.930256,279.531360L615.619739,279.625391L614.634055,278.570153L613.884668,278.580601L613.973864,282.477668L613.565094,286.097864L613.587340,287.576241L613.084258,290.115079L611.972313,293.312133L611.685526,296.185303L613.691366,297.731591L616.927117,294.231548L618.173340,293.374821L620.696969,292.246449L621.810331,291.520320L624.618450,285.894130L626.422724,283.292604L628.146657,283.710520L629.042589,283.710520L629.869071,281.777659L633.090230,279.045532L634.086784,277.494018L634.345987,275.916384L633.972089,275.676082L631.609432,276.616394L627.948167,277.807456L627.266986,278.293283L626.561152,278.293283L626.053222,277.729096Z M654.212299,259.262382L655.042679,259.084767L655.260080,258.865360L655.053052,258.374306L654.678901,257.857131L654.393232,257.548916L652.886636,257.298165L651.196520,258.081763L645.427206,262.302736L644.431418,264.016199L644.159451,264.345309L654.212299,259.262382Z M674.157996,252.795089L674.026749,251.995818L659.904457,253.751079L659.035969,254.247358L655.551398,255.506339L655.680608,256.295161L658.387923,255.647387L660.699768,255.788434L659.944907,256.316057L659.420218,257.089206L659.102813,258.134002L658.849292,257.580260L658.041730,256.295161L657.775547,257.763100L657.720529,259.084767L659.137720,258.844464L666.242416,255.992170L667.004074,255.506339L667.700643,255.506339L668.761929,256.572032L670.341876,255.835450L674.157996,252.795089Z M523.165710,1900.676985L542.916729,1894.173583L550.307787,1891.854616L552.899942,1888.532793L555.677933,1882.661629L558.724325,1878.163759L562.304945,1876.413491L567.008448,1875.648748L570.654880,1872.131278L572.922557,1868.999945L574.813170,1865.473222L581.965433,1847.448990L582.006221,1846.842821L581.732218,1845.411008L581.782854,1844.815290L582.316064,1844.282280L583.730585,1843.859007L583.991363,1843.508892L584.330961,1841.251436L585.417752,1839.558344L588.241514,1836.929872L592.787735,1830.941346L595.377387,1828.276296L619.629077,1817.798997L631.466269,1812.176270L647.853083,1804.400607L662.968231,1799.060067L666.136141,1798.370290L667.136149,1797.455815L667.405975,1795.480547L666.996293,1793.646370L666.181642,1792.940918L665.133243,1792.434037L663.947428,1791.179899L667.716002,1786.152899L668.147692,1784.522521L667.424248,1779.202891L666.809210,1777.227626L665.928223,1775.388226L652.713825,1755.896876L651.452485,1753.310225L650.857891,1751.037108L649.983187,1748.831923L628.971173,1727.161563L621.152572,1719.103774L618.680989,1715.442764L620.860618,1715.819002L624.604323,1718.346071L628.598378,1719.485239L632.061324,1722.192070L636.649958,1726.628558L648.440852,1741.599756L671.087682,1763.829277L681.342530,1769.796871L687.096397,1774.473752L688.645121,1775.273264L693.314587,1775.388226L694.861553,1774.186346L695.997802,1773.642887L697.053884,1773.998225L698.387595,1774.625293L699.757325,1774.254278L702.042460,1772.597774L704.670784,1769.755066L706.586034,1765.992660L707.652149,1761.587511L707.726750,1755.029434L707.442744,1752.374850L706.708593,1749.971094L705.277900,1748.925983L702.399108,1748.419104L701.123910,1747.002979L699.724126,1741.913289L697.421562,1737.774652L694.298340,1734.210827L683.787490,1725.092247L681.332114,1721.993500L680.657128,1721.585907L674.406992,1715.442764L673.657951,1714.324502L672.535416,1712.192487L671.748585,1711.063774L670.669263,1709.955962L666.245650,1706.517568L662.477063,1703.586050L659.821209,1701.020319L658.423501,1699.379506L657.228790,1697.519221L656.114965,1693.208168L655.050272,1691.374012L652.214839,1688.191673L651.312821,1687.595964L650.183174,1687.026383L649.616902,1686.378419L650.128926,1685.887221L650.460938,1685.558013L651.144182,1685.714779L652.232527,1686.341840L653.240242,1687.109991L684.062126,1719.756967L694.131730,1726.226191L697.100577,1728.603814L704.385523,1736.781798L707.218415,1739.201228L710.052270,1739.958933L712.960291,1738.809311L714.997762,1735.903905L715.182790,1731.394257L715.872084,1731.394257L716.554200,1732.371434L716.913551,1733.573310L716.848021,1734.749059L716.204043,1735.694883L716.277291,1736.645933L717.708962,1735.067817L718.711175,1732.334855L718.860287,1729.748209L717.650372,1728.603814L715.828132,1728.096936L709.173064,1724.292739L702.816550,1719.140353L693.741492,1714.496944L690.972425,1711.878956L679.232659,1696.442764L677.854714,1693.788201L676.470729,1688.876215L675.039029,1687.172697L671.408911,1684.178477L670.810390,1683.932878L670.177178,1683.598445L669.511257,1682.856422L674.065489,1684.424076L677.595841,1688.123741L688.360923,1704.965588L691.555468,1708.889956L695.078870,1711.863279L700.908961,1714.491719L702.727897,1715.892160L704.434245,1717.614495L706.136151,1718.931331L708.042877,1719.694261L712.284916,1719.882380L712.734621,1719.756967L712.996868,1719.349375L713.197436,1718.387875L713.888850,1717.123294L713.804169,1716.278849L714.143471,1715.683139L715.852288,1715.442764L716.325939,1714.920212L715.721128,1713.770596L714.845070,1712.678461L714.383604,1712.302223L714.572603,1711.199637L715.123605,1710.144081L716.458844,1708.430110L716.684529,1707.912783L717.017044,1705.723289L717.862437,1705.723289L718.425319,1706.799746L718.741140,1708.006842L718.715218,1709.193036L718.214511,1710.185886L720.147836,1710.697987L721.883075,1709.511793L727.434017,1702.316248L727.940436,1700.361904L727.928551,1697.440838L727.670283,1696.275548L727.110735,1695.596230L726.240382,1695.282699L725.095180,1695.209542L723.896962,1694.932589L723.077170,1694.331655L722.495839,1693.725495L721.876891,1693.453768L721.173578,1693.046177L719.209306,1691.232923L718.569848,1690.820107L690.573870,1680.400431L683.658018,1675.760177L685.334514,1675.133115L687.047369,1675.864687L688.912147,1676.998623L691.164797,1677.589106L695.420226,1677.610008L703.816087,1679.412809L715.754292,1679.344878L721.739159,1680.870727L723.962735,1681.100650L725.582444,1679.883105L725.877769,1677.061329L724.148830,1665.978022L723.305907,1664.096840L721.690248,1662.205206L720.497208,1660.428534L719.406530,1658.223370L718.050012,1656.363090L716.075167,1655.584490L714.953462,1656.352639L713.475921,1659.832826L712.631739,1660.851800L710.422982,1660.914506L709.485763,1659.456589L709.057636,1657.376838L708.358949,1655.584490L707.587327,1655.584490L706.892995,1657.528378L705.754798,1659.216216L704.198180,1660.397181L702.205283,1660.851800L700.942330,1660.125454L700.242780,1658.317429L699.653001,1653.828720L700.564834,1654.973105L701.232281,1656.274256L701.678651,1657.904614L701.781466,1660.052297L703.107811,1658.975843L704.561986,1658.338331L705.655450,1657.559731L706.304322,1654.952203L707.178674,1653.969808L708.388123,1653.264365L709.602761,1652.956061L708.825547,1652.109529L708.395075,1651.346605L707.851934,1649.444522L708.623523,1649.444522L709.913394,1651.712390L711.774958,1651.785548L715.273098,1650.322406L716.608924,1649.371365L717.276402,1647.119173L717.494797,1645.546296L717.637523,1644.501196L718.126557,1642.431897L718.721233,1641.632395L719.367831,1641.125521L719.886301,1640.404402L720.148963,1638.930810L718.555135,1635.361793L718.201964,1634.107673L717.564123,1633.402230L716.383521,1632.796072L715.540459,1631.944316L715.944002,1630.517754L716.585328,1629.953400L718.692590,1628.584319L718.789652,1628.537290L719.258354,1628.323044L720.831972,1629.122546L721.775804,1629.969077L722.719598,1630.815608L724.339480,1632.712464L725.062870,1634.107673L726.201202,1635.523784L728.403637,1634.844468L730.458013,1633.606025L731.944265,1632.712464L733.035845,1633.679182L739.442987,1639.327948L739.256866,1643.696468L739.393322,1645.995689L740.207268,1648.493480L740.961486,1649.611738L741.638657,1650.134288L742.220840,1650.729996L742.819431,1652.078176L742.819098,1653.405454L742.481356,1654.764085L742.409261,1655.892794L743.188451,1656.540757L744.071859,1655.558362L746.169025,1650.599358L747.154960,1649.972298L747.992951,1649.444522L745.602996,1647.103496L744.434717,1643.665115L744.195985,1639.819146L744.637717,1636.213550L745.354127,1636.213550L745.697947,1639.766891L745.616092,1641.313639L745.158434,1642.431897L745.225190,1643.231398L746.921305,1645.065550L746.167772,1645.943434L747.626783,1647.249810L748.728266,1647.902998L749.455338,1647.699203L749.500047,1646.580946L748.811895,1645.818022L747.973658,1645.128256L747.555367,1644.187665L748.566270,1641.005335L748.657204,1638.909908L747.421066,1637.969318L745.961861,1637.216846L745.836342,1635.502881L746.560131,1632.315326L745.654577,1631.160491L743.955562,1629.963851L742.667833,1628.526839L743.005189,1626.650884L746.573619,1630.078812L747.935544,1632.179463L748.346609,1634.881047L748.429026,1635.424499L747.141222,1634.854919L746.747915,1634.546615L747.353236,1635.847765L748.991182,1637.634886L749.390196,1638.450064L750.415465,1647.646948L750.356154,1648.921971L749.673330,1650.322406L748.640077,1651.043526L748.445794,1651.137585L747.358419,1651.649684L746.341865,1652.684334L746.178962,1654.711830L746.895464,1654.711830L747.465526,1653.718984L748.242601,1653.008316L749.818975,1652.078176L749.971168,1653.138953L750.816522,1655.584490L752.032446,1654.847693L752.757878,1653.734661L753.604172,1651.200291L754.129933,1652.888129L754.124073,1653.593572L753.895134,1654.711830L754.602450,1654.711830L756.261103,1653.332297L758.648800,1653.546543L761.002771,1654.795438L762.589356,1656.540757L763.296681,1656.540757L763.145355,1654.711830L764.039982,1655.088067L765.350341,1655.270959L766.517390,1655.276185L767.039792,1655.150773L769.479794,1657.773976L770.058474,1658.218144L770.649474,1658.589155L771.459866,1659.503619L772.125541,1660.668907L772.283730,1661.808067L771.688147,1662.607570L770.746367,1662.884522L769.861258,1663.292111L769.412915,1664.431272L772.400011,1664.896342L776.938271,1667.806950L778.926892,1667.859205L781.317501,1663.077866L784.350602,1659.644708L785.151301,1658.218144L786.406336,1658.620508L790.748069,1657.026729L795.759002,1656.305609L797.737097,1655.678549L804.645693,1652.041597L806.683719,1650.594133L807.512600,1648.969001L807.977335,1647.605144L810.664201,1644.260822L811.716809,1643.231398L812.352234,1642.813358L816.077438,1640.362598L818.608034,1639.327948L821.026944,1638.930810L827.995246,1634.546615L832.040099,1632.963288L833.528203,1631.991345L837.852879,1627.549670L844.177259,1624.388243L845.935522,1624.006782L848.320022,1623.860468L850.247473,1624.168772L855.394383,1625.825255L856.686400,1626.650884L857.457868,1626.650884L860.837332,1617.224085L861.235546,1611.941106L862.519776,1608.319837L862.743206,1606.767864L863.195304,1604.996420L865.570918,1601.908152L866.065242,1600.627905L867.233759,1598.553383L870.349715,1597.330617L884.025484,1594.231898L887.132705,1595.318801L888.422206,1599.237923L889.138429,1599.237923L890.519059,1595.193389L891.539134,1594.263251L893.745081,1593.975848L894.182374,1592.685151L895.122278,1586.796017L895.653134,1585.118633L896.457982,1584.669240L898.340078,1584.564730L899.503152,1584.324357L903.313020,1582.046041L904.171997,1581.690707L906.985033,1581.215187L907.944155,1579.819980L908.579696,1574.599709L909.367032,1572.525187L910.703035,1570.225969L912.481565,1568.360467L915.552086,1567.184730L916.771772,1565.439414L917.387251,1565.037051L921.655983,1565.037051L922.837079,1564.697394L925.021851,1563.579138L926.124052,1563.281284L927.602096,1563.485079L930.111453,1564.739198L931.276694,1565.037051L933.185676,1565.031826L934.498571,1564.728747L935.386313,1563.683648L936.037492,1561.447135L936.822643,1554.936166L937.546335,1552.605594L938.418164,1550.996141L939.706663,1549.428491L943.208035,1546.470860L945.015835,1545.566848L947.015572,1545.154034L949.017492,1545.164485L950.836598,1545.582525L955.995056,1548.080313L958.072783,1548.216176L959.642755,1547.620469L961.189310,1546.470860L963.762325,1543.910365L965.021614,1542.337490L965.378301,1540.832547L964.560345,1535.863097L964.766868,1527.136511L964.192354,1521.587029L962.151654,1518.326315L962.929389,1518.399472L965.299313,1518.326315L964.381839,1516.183859L964.278873,1514.313128L964.527022,1512.567810L964.588936,1510.796364L963.706742,1510.007313L962.258951,1508.382181L961.941632,1506.777951L964.487340,1506.046380L965.097692,1506.966069L966.373410,1511.423425L967.813709,1513.069459L969.963995,1513.586783L971.848230,1513.424793L973.509382,1513.524077L974.980231,1514.814777L975.751065,1514.814777L976.944166,1512.776830L977.463180,1511.376395L977.600360,1509.918479L977.942211,1508.878604L979.802924,1506.924265L980.370966,1506.046380L980.639561,1504.144296L980.573115,1502.869272L980.741723,1501.751013L982.475407,1498.960592L983.215169,1496.337387L983.911538,1495.370668L984.838194,1496.326936L985.784513,1493.567868L980.748160,1487.286804L980.724731,1486.759027L980.574759,1483.973829L979.003385,1481.768663L978.971708,1480.023341L979.583976,1478.392981L979.855104,1476.558825L979.049367,1476.386383L977.557504,1478.497491L976.153180,1481.042317L975.716674,1482.218057L972.064294,1481.449907L970.994507,1477.138857L971.872751,1472.968896L974.008654,1472.576982L976.578218,1469.676820L978.153483,1466.280233L978.858157,1462.622369L978.830927,1458.901798L978.022214,1456.842942L975.110736,1454.115219L974.366778,1452.808838L974.596943,1449.213676L974.385096,1448.743379L973.812935,1448.246954L972.082443,1445.237050L973.372064,1442.995298L974.586170,1444.500250L976.216232,1450.002731L979.526953,1457.590192L978.701430,1457.590192L980.427658,1461.979630L980.656746,1471.328084L981.961701,1475.205417L982.329179,1474.928464L983.122720,1474.599257L983.482026,1474.332756L984.601646,1475.936989L986.251789,1476.867131L988.116109,1476.982092L989.879635,1476.156461L989.786927,1475.205417L988.207001,1474.526100L986.949083,1473.104759L986.202594,1471.192220L986.049472,1469.065434L987.803734,1467.309660L987.761176,1466.875942L987.914506,1464.608067L987.835364,1463.803337L984.380483,1461.321215L983.218679,1459.957354L979.314124,1453.122369L978.339081,1450.875393L977.367452,1445.534905L977.395567,1444.437544L978.549955,1443.047553L978.904355,1441.913613L978.175990,1440.408661L977.216586,1439.253818L976.989970,1438.731265L976.992870,1438.302772L976.693888,1437.424882L976.349668,1435.731810L975.653263,1434.733733L974.012500,1433.829716L974.057592,1433.913324L973.394624,1434.707605L973.682935,1433.197426L974.810037,1432.915247L977.864201,1433.829716L976.919359,1432.460626L975.815642,1431.154242L975.196149,1429.649288L975.714042,1427.694937L973.350771,1426.179531L972.227462,1425.228483L971.490636,1424.110218L972.155849,1424.611870L974.822415,1425.860773L975.572726,1422.406692L975.917761,1421.560154L976.623835,1421.560154L977.994932,1422.239475L978.583516,1421.534027L978.449934,1420.400084L976.901873,1419.334074L975.879197,1418.205357L974.945171,1416.867618L974.504247,1415.780705L974.135715,1412.979813L973.380615,1409.901966L972.019601,1407.895356L969.881925,1408.329077L969.003661,1406.918178L967.006998,1404.796605L966.269787,1403.066948L967.039931,1403.066948L967.448109,1403.380481L968.670575,1403.944841L968.236054,1403.375256L967.478629,1401.985259L966.850981,1401.232779L970.012445,1400.684096L973.689700,1403.093076L979.214130,1409.206969L981.035220,1412.394552L982.336347,1413.909960L984.088106,1414.542251L985.289876,1413.382180L985.811107,1411.218804L986.460777,1410.043056L988.010124,1411.830193L988.755622,1410.962752L987.831234,1410.084861L988.966279,1408.726218L987.738495,1406.949532L985.553124,1405.402769L983.824769,1404.733899L983.165283,1404.294952L982.579778,1403.239391L982.355546,1401.953906L983.219344,1399.309776L982.521803,1398.238537L976.583222,1394.188732L975.037780,1392.547907L974.237419,1390.227758L974.668685,1388.294301L975.491980,1386.167498L975.530273,1384.427385L973.555712,1383.690581L973.656736,1384.657310L974.426761,1384.657310L974.509169,1385.446370L973.294196,1385.838287L972.941793,1387.029715L972.905021,1388.524226L972.656527,1389.835841L971.831464,1389.835841L971.815312,1389.240128L971.643150,1389.083361L971.368675,1389.088586L971.034221,1388.957947L970.907417,1387.740392L970.287197,1385.660618L969.980627,1383.690581L970.741909,1382.817912L969.834013,1377.827496L969.742257,1376.604713L972.419064,1371.384368L973.302398,1370.548276L974.712198,1369.837598L976.128021,1368.144512L978.500932,1364.329841L979.479808,1363.190665L983.053196,1360.337498L983.480104,1359.355089L983.518656,1358.341326L983.818835,1357.547038L985.031224,1357.228277L985.503883,1357.792640L985.919864,1361.696149L986.802586,1363.274274L989.082762,1366.190146L989.693453,1368.233346L989.332143,1369.409101L988.353256,1370.119779L987.346700,1370.569178L986.900674,1370.945420L986.696360,1371.614293L985.002686,1374.848921L986.378166,1374.854147L987.474858,1375.345350L988.341112,1376.259825L989.137986,1377.560992L989.457570,1376.416592L989.498393,1375.324448L989.228021,1374.237530L988.667345,1373.093130L989.949010,1373.338731L990.904072,1373.181964L991.470337,1372.554896L991.552540,1371.337337L994.342988,1375.805201L994.427189,1376.604713L992.669147,1378.627008L992.346082,1378.867384L992.675406,1380.257384L993.162884,1380.884452L993.705429,1381.250242L994.210105,1381.866859L996.037956,1385.665844L997.353468,1387.113324L998.517736,1386.324265L998.469096,1384.720017L997.533871,1379.473550L997.598580,1377.560992L998.198418,1376.902570L998.944179,1376.672645L999.567275,1376.322532L999.737074,1375.324448L999.353640,1374.817568L997.127615,1373.093130L995.416660,1373.035648L993.443233,1370.840908L987.272630,1359.940354L987.014557,1358.121852L986.914256,1356.324251L986.639467,1354.782704L985.774452,1353.721910L986.665928,1352.718597L987.423627,1352.520025L987.637413,1352.462543L988.611286,1352.399836L989.491513,1351.976564L989.904555,1351.213628L990.385573,1349.207002L990.671640,1348.543352L992.847044,1346.787553L994.083134,1347.033156L994.250083,1347.477331L993.941441,1348.015567L993.741618,1348.543352L993.379062,1349.092039L992.625405,1349.583244L992.104011,1350.189413L992.484600,1351.088214L993.046988,1351.119567L994.975235,1350.471594L995.461492,1350.220766L995.851484,1348.903918L996.003548,1346.740523L995.854373,1344.336750L995.381107,1342.330122L994.471380,1340.950565L989.088458,1334.826163L986.437933,1330.844253L983.044035,1327.113170L980.204720,1322.431023L979.152795,1321.359772L977.600908,1320.325101L977.814291,1319.180691L976.948587,1317.471915L975.671591,1315.857199L974.554086,1314.111842L973.947844,1311.854374L974.036523,1309.837283L974.358508,1307.861997L974.402330,1305.776972L973.365132,1303.117127L973.194781,1301.831621L974.161195,1298.910493L974.299574,1297.933299L973.895647,1295.299578L973.541455,1294.097681L972.977263,1292.984620L972.182469,1292.185097L971.714952,1292.263481L971.709733,1292.953266L972.314847,1293.940912L972.404238,1294.740434L971.221175,1295.383188L971.000574,1296.935202L971.613175,1300.953715L969.991649,1299.224031L968.788786,1297.389833L966.757912,1292.984620L967.538808,1292.514312L967.777343,1292.435927L968.173047,1291.307189L968.776461,1291.787948L970.122382,1292.519538L970.724008,1292.984620L970.684938,1291.735691L970.487367,1290.789850L970.120820,1290.053034L969.497042,1289.472988L969.408495,1288.683916L970.683613,1288.783203L971.492360,1288.318121L971.740375,1287.346151L971.412166,1285.893421L970.333092,1284.362306L969.421837,1284.566106L968.334747,1285.893421L966.665521,1284.733327L964.419871,1281.791286L962.365376,1280.709576L962.339660,1278.535704L962.578935,1277.250192L963.344870,1276.330477L962.001911,1275.065867L961.936010,1273.999833L962.096921,1272.996506L961.373252,1271.946148L961.863043,1269.970847L962.481718,1268.889135L963.309670,1268.439727L964.380733,1268.356117L968.279773,1271.073462L969.056654,1271.946148L968.988968,1273.607908L967.999046,1274.407434L966.879881,1274.956128L966.430484,1275.839265L967.053163,1277.051617L969.549592,1277.584634L970.629466,1278.953756L971.783084,1278.060169L972.382356,1276.962781L973.201458,1274.574655L972.662845,1273.137599L973.410704,1271.418356L972.693091,1270.101489L971.497835,1270.864436L970.225635,1270.629281L969.152513,1269.568471L968.598106,1267.917161L968.670862,1266.788417L969.462388,1265.299101L969.703688,1264.044940L968.381470,1264.734729L968.001426,1265.095300L967.651584,1265.800765L966.818271,1265.800765L964.103046,1262.634009L963.166831,1261.254431L963.570749,1261.343268L963.939667,1260.726638L963.971292,1259.963690L962.870859,1259.310480L961.236758,1257.836839L960.627137,1256.514743L959.876131,1253.964611L959.156967,1252.569353L958.142735,1251.633956L957.119907,1251.100936L956.400992,1250.186441L956.280511,1248.111843L957.104530,1248.111843L958.179279,1250.045347L961.648840,1253.933256L963.192887,1257.089567L966.252857,1261.975574L967.341695,1263.088642L966.983103,1261.395524L966.764235,1261.003599L966.208102,1260.465354L966.107475,1259.587441L967.367081,1259.472476L967.916880,1258.996940L967.865513,1258.150380L967.343506,1256.953700L966.818431,1257.005956L965.216029,1256.049657L963.736638,1254.889556L963.589297,1254.325183L962.066012,1253.421140L960.732691,1251.226352L959.720779,1248.488092L959.162179,1245.953633L958.750961,1242.405387L958.423868,1241.480439L958.381232,1241.349797L956.690362,1238.459985L956.533776,1235.700815L957.371933,1234.096524L958.632199,1232.894611L959.707941,1231.368705L958.227322,1231.076065L957.364726,1230.041374L956.191753,1227.062719L954.972143,1227.668901L954.993641,1226.759627L955.873241,1224.350572L955.752537,1219.516781L955.918712,1218.210350L957.149969,1216.778501L958.312926,1218.952403L960.599132,1225.306878L960.825597,1232.784871L961.251636,1234.159232L964.171943,1234.159232L965.041610,1233.688919L964.068726,1228.740172L963.659233,1218.649311L962.866100,1217.436943L959.573590,1214.750919L958.372097,1212.953268L955.122152,1198.582480L950.955366,1189.416504L949.551881,1187.415036L945.806254,1185.267246L944.201372,1182.664813L944.170662,1180.673793L946.826572,1181.222499L948.147847,1182.612555L948.887835,1184.190738L949.885382,1185.403116L952.033829,1185.690533L947.410567,1178.870900L945.262752,1174.449890L946.172932,1172.458866L944.781301,1167.133787L944.116699,1165.367468L942.870200,1163.632503L938.770860,1159.305539L936.839635,1155.657925L935.981913,1153.525794L935.531717,1151.733340L934.787758,1144.772546L934.064429,1143.000990L931.715936,1140.006588L926.485074,1128.462702L926.515074,1129.502646L926.101988,1132.042408L925.216235,1130.375363L925.492788,1129.518324L926.157431,1128.912125L926.617720,1127.553404L927.685102,1127.605662L927.858476,1127.093528L927.620003,1126.215585L926.859148,1124.893443L925.284186,1116.406640L924.969637,1114.718683L925.568488,1115.763858L926.354271,1116.552964L927.359642,1117.054648L925.573195,1110.903793L924.747446,1109.085186L919.767423,1102.944768L918.931774,1102.129529L916.180636,1098.351205L915.549315,1097.206733L912.910686,1096.093615L912.281809,1095.325407L914.504268,1095.048434L905.091963,1076.966746L901.148755,1066.917736L898.617204,1055.509443L898.295220,1057.087688L898.235349,1057.882036L898.320837,1058.948135L897.690292,1058.948135L897.437231,1057.234015L896.714680,1056.188820L895.756789,1055.854357L894.903592,1056.314243L894.209098,1056.314243L893.181382,1054.756902L893.699688,1053.837129L895.190877,1053.711705L897.112596,1054.563540L897.385055,1052.682187L897.234552,1048.919476L897.553035,1047.461425L899.288642,1048.423007L898.971768,1047.273290L898.530038,1046.698430L897.807068,1046.552103L896.698452,1046.667075L896.572260,1045.715944L898.431122,1045.815238L899.824591,1045.161988L900.856279,1043.918202L901.532846,1042.204075L900.792555,1041.859159L899.276060,1041.723283L898.357209,1041.409723L896.865656,1040.500399L893.608175,1037.584289L892.765133,1035.922420L892.330181,1031.166751L891.592818,1030.163357L888.558677,1027.769842L887.618583,1027.299500L886.758001,1026.264749L885.362341,1021.185057L884.515734,1019.240976L883.840690,1019.789708L883.176033,1019.941263L882.388996,1019.726996L881.446578,1019.240976L882.214217,1020.327989L882.574776,1020.699036L883.301413,1021.075310L883.419625,1021.953282L881.521819,1023.599479L881.097046,1026.285653L882.262065,1028.569422L885.139494,1029.044990L885.257132,1029.922960L883.146028,1030.121548L882.226181,1030.074514L881.420236,1029.922960L881.017749,1031.830455L880.950437,1032.556870L880.183035,1032.556870L880.280606,1031.783420L880.382787,1031.386244L880.705781,1030.727766L879.810665,1029.227900L879.568918,1027.696677L879.510379,1026.170681L879.125593,1024.665587L878.217812,1023.756260L877.678172,1023.411342L875.464742,1022.031672L874.865330,1021.514296L874.148511,1020.667680L871.120877,1018.127832L870.370807,1017.171469L869.795035,1013.988817L868.817775,1011.354897L868.123622,1011.354897L866.341797,1016.826551L864.707871,1017.986729L861.765896,1015.812702L860.540655,1013.366919L861.286465,1011.856596L862.870814,1011.009979L864.124520,1010.555314L865.655549,1012.353069L866.296312,1011.485548L866.807639,1007.843002L862.701743,1008.344701L859.337783,1006.369259L837.188869,978.399448L832.643154,970.858245L830.505547,962.935535L829.718457,961.210934L828.878449,961.012343L828.148312,961.670827L827.482923,962.533128L826.885834,962.966891L826.023666,962.674232L826.157923,962.062782L826.987363,961.461785L828.175750,961.210934L826.968257,958.958500L825.230772,957.688566L823.350246,956.768779L816.723611,951.657687L815.096440,949.807659L813.452294,947.184174L812.995553,946.462976L810.799000,941.853585L809.331190,936.789526L809.485653,932.112196L811.124960,932.802037L813.879378,932.143553L815.050666,933.073792L815.219746,931.553007L816.046061,930.617541L817.163000,929.802275L818.253404,928.605505L816.693427,926.927938L816.415639,926.447140L815.972114,925.955890L815.313898,926.786834L814.780258,927.983604L814.776775,928.605505L812.837019,928.244907L811.113299,927.346023L809.637002,926.196289L808.496518,925.098815L807.730048,925.098815L807.365347,925.746847L807.289129,925.788656L807.083553,925.495996L806.206234,925.098815L806.051244,926.133576L805.726301,927.063816L805.185061,927.884308L804.401636,928.605505L804.536435,929.561876L807.127879,930.079256L807.436276,931.944962L806.998394,934.281014L807.383634,936.178076L808.445331,937.954939L810.464639,944.550236L809.214276,942.919703L807.577834,943.421406L805.701982,944.691340L803.696709,945.428215L804.975468,944.456167L806.199979,942.966738L807.103634,941.142840L807.425056,939.203969L807.162378,938.827692L805.597883,934.380309L804.742782,934.139910L803.944276,934.756586L802.468442,936.658875L800.376028,934.171267L797.679676,932.582542L795.481045,930.575733L794.892271,926.849547L795.853910,923.964759L799.248382,920.416260L800.232770,918.733468L800.613932,918.074983L797.775438,918.325834L794.650849,918.038401L791.759030,917.332882L789.582290,916.329478L788.815899,916.329478L787.682873,916.768467L785.546666,916.501938L783.402275,915.597829L782.309933,914.134531L782.707643,912.242696L784.356701,912.869824L787.936214,915.529890L783.325962,908.887565L782.081839,906.682167L780.365165,902.250469L780.155472,901.419525L778.881579,901.889871L778.377463,902.961213L778.025717,904.142302L777.180201,904.931437L774.657867,904.194563L768.999279,900.076429L767.359763,900.541548L767.648667,901.801028L768.960202,905.825093L768.589403,906.682167L764.982679,910.194080L764.296736,909.410171L763.377022,910.194080L762.820849,908.845756L761.975766,907.905065L760.983007,907.659440L760.081624,908.443349L759.315304,908.443349L756.375405,906.755332L754.900509,905.683989L754.151334,904.455865L751.695923,897.202097L751.784048,896.156886L752.977518,896.402511L753.876717,896.951247L754.664030,897.547017L755.436797,897.912841L756.165972,897.844902L756.719572,897.505209L756.921319,897.128933L754.590501,896.135982L751.647178,892.514326L749.386729,890.993545L746.161915,886.431203L744.953754,885.255342L740.225522,882.046549L739.616337,881.105860L738.978835,879.841157L738.198927,879.109511L737.132888,879.815027L736.694204,880.698229L736.400753,881.513492L735.901883,882.041323L734.808230,882.046549L734.969046,881.450779L734.150358,880.003165L733.166939,878.806401L732.775309,878.937052L732.691670,877.719384L732.866709,876.715984L733.234477,875.848461L733.801208,875.033198L730.956249,875.796200L729.451235,875.984338L727.799237,875.911173L727.931619,874.928677L728.053900,874.510594L728.228629,874.076833L729.012876,874.076833L729.380998,874.353813L730.682421,875.033198L730.544894,874.076833L727.651584,872.791227L726.450050,871.855766L725.432236,870.486545L724.631803,871.197286L723.358647,871.411553L722.123556,871.066635L720.854051,869.279330L719.550025,868.772405L716.733416,868.019856L707.401414,862.678851L710.698231,862.020371L725.571885,870.063235L730.165836,871.442909L730.028094,870.486545L726.442854,869.399529L712.740009,857.411016L701.950438,849.577212L697.823074,846.577480L681.336910,832.880126L679.544679,831.902865L678.875228,831.312328L678.039104,830.141706L677.140843,829.295095L676.193948,829.676593L674.407617,831.301876L674.577340,832.091001L674.871634,832.984646L674.821708,833.580409L673.658253,834.228432L672.381485,834.474054L669.526267,834.458376L669.398454,833.580409L673.028201,831.092836L673.615065,830.554559L673.812728,829.472779L674.521020,828.892694L675.253693,828.479841L675.516061,827.842271L675.029344,826.943401L673.290837,825.898204L665.830847,816.209242L664.400235,815.090885L664.288473,809.796984L662.027798,806.133589L648.948872,796.638048L641.316203,791.093335L618.393569,774.380878L606.792264,762.309099L605.032650,760.030623L604.489570,759.685716L604.307177,759.194486L601.804915,757.250467L601.348131,757.057111L600.072279,754.971996L598.201708,750.854032L591.216450,740.663673L587.645885,736.880188L584.126275,731.434909L582.704332,729.783561L579.964932,728.027698L576.115912,726.459965L572.400855,725.906033L570.076649,727.160219L570.736800,727.677571L571.130129,728.236729L571.999184,729.783561L568.440848,727.724603L568.430529,725.106490L570.377473,723.523082L572.739963,724.526429L573.504566,724.526429L573.360987,723.570114L567.690774,721.997159L563.848752,721.505937L561.024632,720.701170L558.252014,719.572407L556.460200,718.307774L557.106216,717.518686L558.866973,718.333903L566.585808,719.185701L570.979596,721.532066L572.715761,721.819483L573.910856,722.504058L575.837417,725.514100L579.409762,727.118413L580.656667,727.238606L581.457126,726.203902L581.015496,725.263263L578.381630,722.817604L577.601328,721.380519L575.565616,714.806524L574.016224,711.106702L572.659037,708.744674L573.201486,707.453920L573.198552,706.288585L572.628019,705.462922L571.353741,705.159831L571.208585,704.198300L573.341159,704.219203L574.407068,703.142707L575.079784,701.512287L575.964016,699.897546L577.871214,697.948362L579.934030,696.307496L579.813737,695.513192L578.978149,694.562117L568.230172,682.365425L566.566750,679.679448L565.550177,676.941220L566.406303,674.495630L566.369664,673.178776L564.883268,672.556929L563.206119,675.404887L562.371285,676.136474L561.165020,676.220084L560.330193,675.755004L559.560351,675.478046L558.477846,676.136474L557.974464,677.014378L557.651209,678.299882L557.553824,679.815315L557.767657,681.403908L556.240650,678.895604L555.835043,677.662356L556.258221,676.136474L554.845169,676.355950L554.463595,676.538847L554.033481,676.941220L552.455749,676.136474L552.958156,674.892777L554.095805,673.879008L555.482216,673.544569L556.690587,674.312734L557.509282,674.312734L556.265796,671.997789L554.484481,670.393529L550.274471,667.294751L546.466078,662.832105L545.396905,662.142329L542.827935,661.159922L541.981613,660.679170L535.354956,655.688763L533.521396,654.936285L530.912632,655.422260L528.629663,656.315829L526.811568,656.739099L525.570254,655.814176L527.580771,655.281171L527.105750,653.656027L525.485326,651.795736L518.801709,646.371643L513.685505,640.435473L512.704219,639.547140L509.785609,637.404692L508.473514,635.779569L507.123579,633.490815L505.988940,630.946017L505.322806,628.552762L501.463711,628.286264L496.692786,623.426612L489.106599,612.772021L485.025049,603.585840L484.044190,602.169774L483.301688,600.471542L482.601159,596.740666L481.338229,593.077730L478.980408,591.572847L479.310637,592.006546L480.851058,599.781800L481.332220,602.796814L479.351533,603.925487L479.531391,602.195901L479.450158,599.536209L478.902617,597.095987L477.730107,596.030024L477.110905,595.193975L477.959089,589.895531L477.049904,588.061460L475.521666,586.101986L472.752160,583.280348L471.870636,582.925032L469.967520,583.134041L469.192955,582.883230L468.774168,582.287552L467.114665,579.298716L468.235732,579.439798L469.203367,579.941420L469.987088,580.782683L470.625867,581.921785L471.880486,580.098177L471.757326,579.298716L469.162936,578.499257L466.139061,576.680879L463.370638,574.397462L461.524382,572.202877L460.704806,570.598743L459.240040,566.460402L458.849299,564.751773L458.409106,563.664940L457.626569,562.478831L457.476705,560.801559L458.065306,556.966312L459.449212,552.227137L461.702946,549.123433L464.912712,550.205026L465.444237,549.003256L466.411949,548.214269L469.000956,546.693772L467.687759,543.433333L467.118331,538.762146L467.251902,530.841031L467.408995,530.156558L468.981561,530.402133L470.394085,530.318533L470.789589,526.608800L471.594997,526.358001L472.583963,526.295302L473.365610,525.657856L473.415812,525.396608L473.580358,524.644215L473.419195,522.146689L472.824127,521.822743L472.057399,522.146689L471.341401,520.694156L470.874128,519.440173L473.489266,521.195750L472.901313,519.340899L470.191696,515.051244L469.084615,511.435617L468.377523,509.983101L466.937760,508.838854L466.813367,508.039449L468.462703,508.838854L469.441889,505.332973L471.169290,506.283896L469.900069,501.456143L469.633011,491.706666L468.851095,486.926013L468.360370,486.863316L468.158563,486.267695L467.880672,484.893590L467.393027,483.629205L466.638756,482.458868L466.482299,483.200778L465.842625,484.277072L465.537358,485.170501L465.119681,483.132857L466.379935,481.905048L467.964673,482.291677L468.577217,485.170501L468.894212,483.712801L468.357867,480.159995L468.253358,478.153711L468.778197,476.110859L470.610655,471.810958L470.799593,469.710650L471.244299,468.028317L472.801617,467.892476L474.396505,467.996969L474.966073,467.114007L475.079535,465.112978L476.613551,462.161076L476.964729,460.463085L475.588213,461.173628L472.461378,461.539350L471.102030,462.302140L470.253204,461.340815L473.008515,459.527884L474.403862,458.300109L474.901284,456.957396L476.270108,458.226965L476.690844,458.712850L476.835518,457.202950L476.253908,453.603233L476.363519,451.696278L478.153759,448.185401L477.934234,446.957643L476.830921,444.951437L476.639404,443.728908L477.015092,441.785404L477.797239,440.526309L481.926048,435.625782L482.951489,434.011436L483.285294,432.323951L484.037926,432.323951L485.052265,433.703195L486.800271,435.134686L488.772831,436.263162L490.475632,436.712463L490.895418,435.573538L491.707405,430.005530L491.728795,427.947129L492.553922,427.947129L492.546182,430.496622L492.192060,432.741904L492.168931,434.789874L493.105463,436.712463L494.789936,435.427254L498.714883,434.262208L500.234963,433.201652L500.904856,431.755698L501.627032,427.926232L502.159002,426.118605L503.133556,427.069437L502.756449,427.727706L502.161940,430.580212L503.651368,429.498766L505.812257,426.055912L508.119480,424.352776L510.165597,420.068829L512.313372,418.276891L515.357058,412.963791L516.255309,409.515778L516.879321,408.585861L519.046819,407.556685L519.698745,406.861861L518.748695,405.952844L518.598812,405.002034L519.562994,404.448265L520.045895,404.291539L520.829565,404.202727L520.955598,405.002034L520.194175,405.002034L520.344078,405.952844L527.454889,405.002034L528.831859,404.594544L532.331493,404.354499L534.937852,403.665237L536.170520,403.193699L537.673972,403.375028L539.234549,402.432634L539.238612,400.547476L538.276328,398.698607L536.790366,396.559715L536.249518,395.431291L535.678332,394.799165L532.690931,392.641582L532.419409,393.905831L531.657410,394.417800L530.699076,394.031212L530.418838,393.634174L529.718244,392.641582L530.425163,392.641582L532.240867,391.972889L534.032228,392.526650L535.688737,393.832693L537.010844,395.431291L539.923179,398.300594L540.913031,396.858349L539.888796,393.280848L539.170215,390.839286L538.659920,388.825822L537.967031,387.254169L537.552499,386.132288L535.196066,383.953824L535.622011,384.011289L535.864973,383.885910L535.933185,383.572462L535.819238,383.081395L536.094708,383.676945L536.851620,384.909840L537.812924,383.196325L538.063263,380.255146L537.587455,374.675804L536.276834,373.437695L533.823271,373.792933L531.375137,374.926561L530.070249,376.070637L529.381607,376.070637L529.737661,375.057163L530.284674,373.876518L530.926501,372.894390L531.477266,372.481687L531.756286,372.183915L534.715690,370.961480L535.381105,370.815206L535.526661,368.532285L534.158614,366.646397L533.073110,364.828424L534.104792,362.764923L533.978002,361.965644L531.017344,363.861974L529.420472,363.961231L527.273961,362.764923L533.901536,359.656616L535.982401,357.185647L537.708438,356.417714L538.002611,355.874415L538.190351,355.174395L538.181208,354.432583L537.826207,353.053441L537.428109,352.771344L536.915940,352.797464L536.269735,352.322078L534.283373,350.253367L533.470894,349.187669L533.333971,349.010052L532.372081,347.061497L533.807072,348.111523L535.783366,350.629496L536.859753,351.360859L538.742475,351.580267L540.525627,351.230258L542.149310,350.504120L543.484510,349.616038L545.398375,347.526434L545.127592,345.995800L543.216183,344.742040L540.244280,343.483056L540.104574,342.605425L541.531332,342.521841L544.863411,343.483056L546.291108,343.462160L547.201240,343.148720L547.930956,342.783040L548.880820,342.605425L549.179648,342.093473L550.225319,341.153154L551.417400,340.620307L552.127562,341.325546L552.675001,342.203177L553.860992,343.336784L556.471933,345.227872L553.485693,338.426232L552.019621,336.388877L551.492884,337.344866L549.367438,335.772448L547.077444,333.395537L545.122023,330.788773L543.996155,328.500674L546.351467,330.151449L547.563238,328.949936L547.540913,326.202128L546.125081,323.234917L543.912127,321.625937L541.565126,320.424427L540.476721,318.883359L542.033441,316.219142L544.736201,318.852016L545.424315,318.852016L545.491472,317.347516L546.270858,315.654955L546.240313,313.993738L545.468995,311.721320L544.386269,311.235492L543.012693,311.251164L540.394023,310.049656L537.564156,309.903385L536.281568,309.130241L535.489680,307.803358L535.048146,306.403340L534.432207,305.045114L533.157556,303.869726L533.031121,303.080910L535.393512,303.587633L536.181021,303.869726L536.054555,303.080910L532.446781,301.581638L532.219482,301.518951L531.215579,301.242082L532.965838,300.641328L535.464140,301.205514L539.928895,303.080910L539.773875,302.114480L538.941084,302.114480L538.801130,301.242082L540.882692,299.998783L542.693446,300.677895L544.694170,301.863731L547.296152,302.114480L546.983821,301.691341L546.558782,300.735359L546.243085,300.291324L547.438769,300.296548L548.472578,300.646552L549.416752,301.283873L550.274285,302.114480L549.007270,303.582409L549.562844,304.449584L550.815440,305.034666L551.661519,305.624972L551.985385,306.910063L551.703872,307.751118L550.661591,308.195154L548.674479,308.336201L547.008931,309.297407L548.509502,311.204148L551.260374,312.551928L553.418064,311.836246L554.178539,311.836246L554.567828,312.739990L554.733769,312.928052L554.459841,313.591494L556.857257,315.388534L558.131724,318.031854L559.165274,318.888583L560.825133,315.346742L560.101635,314.730316L559.541465,313.946723L559.061453,312.985516L558.741385,311.836246L559.556179,311.836246L561.055349,314.354191L562.405446,315.660179L564.213422,316.151231L567.103416,316.219142L566.963538,315.346742L565.667936,314.719867L565.050386,313.748212L564.645748,312.692974L564.055652,311.836246L563.350690,311.392211L560.797245,310.091447L559.221039,308.900387L555.335270,304.825708L556.032797,304.716005L556.434978,304.909291L556.984393,305.624972L557.416239,304.198835L558.745999,304.700334L561.883009,307.380218L563.159516,308.226498L564.702583,309.041434L566.483042,309.699651L568.401809,310.091447L570.483693,310.258614L572.560516,310.112343L574.180870,309.266063L574.864612,307.380218L574.040811,305.577956L570.803227,303.007775L570.781745,301.242082L573.091020,303.274196L574.243391,303.854054L575.821011,303.869726L574.017885,302.114480L575.193168,302.161496L575.538635,302.114480L574.931045,301.545070L574.175961,300.677895L573.724516,300.291324L573.595030,299.486836L574.996324,299.701018L575.884892,300.609984L576.367868,302.036121L576.581403,303.869726L576.896383,303.070462L576.999186,302.077913L576.914434,300.876405L576.636420,299.486836L577.396767,299.486836L577.565264,302.051793L578.283174,302.631651L579.128209,301.639101L579.677810,299.486836L579.962995,299.852512L580.025080,299.956991L580.567718,300.291324L580.376916,300.792822L580.121805,301.738356L580.125804,302.662995L580.636621,303.080910L581.555597,302.772697L581.761219,302.025673L581.779488,301.127155L582.142741,300.291324L583.123573,299.580867L584.359280,299.048025L585.747147,298.729364L587.195834,298.619661L587.335596,299.486836L582.023962,303.770471L579.517500,308.336201L579.645130,309.130241L581.896553,310.070552L587.464449,310.916831L589.464396,312.713870L589.323317,311.836246L590.734490,312.504912L591.824535,312.358641L592.981212,311.951173L594.646638,311.836246L593.928321,309.903385L595.852473,307.009318L597.581403,306.502595L597.440048,305.624972L596.612701,305.546613L596.109156,305.342879L595.705827,305.086905L595.093452,304.825708L596.409068,304.057788L598.662485,303.436139L600.990803,303.279420L602.543378,303.869726L603.862670,303.237629L605.931200,303.154046L608.454019,303.080910L609.916816,302.553292L610.912425,301.879403L612.502662,300.291324L612.372754,299.486836L611.133460,298.651005L610.439320,297.099493L609.895047,295.187530L609.151541,293.275566L610.128692,292.993473L610.491334,292.549437L610.248032,291.828533L609.435341,290.721057L610.799970,288.918795L611.068772,285.883682L610.814448,280.126890L609.913358,280.597046L608.904367,280.513463L607.862119,280.001516L606.880448,279.249267L607.145715,277.760440L606.581915,273.116344L606.877636,272.040208L607.427538,271.303630L607.581833,270.582723L606.771585,269.605842L606.629759,268.733441L609.170022,267.829695L612.742834,267.934174L614.745982,266.899829L614.615870,266.100562L611.296833,264.219933L610.383494,263.389322L610.794197,261.634067L614.927954,262.684086L615.624473,262.960956L616.357119,264.125902L617.640829,264.841586L618.757793,265.144576L619.020172,265.144576L621.343338,265.520702L623.796619,265.473686L624.933537,265.066216L623.449864,264.345309L623.294021,263.389322L623.529079,262.334080L622.978105,260.897487L622.327684,259.628060L622.275208,259.084767L623.771107,259.492237L624.518055,260.521361L624.988181,261.905714L625.709656,263.389322L626.725581,264.737106L627.774786,265.567717L629.119475,265.990859L631.010222,266.100562L631.867059,265.473686L632.101192,263.969183L632.092560,260.756439L633.966422,261.372869L634.524751,261.634067L634.259033,261.059430L634.189397,260.965398L634.039009,260.986294L633.558173,260.756439L635.036629,260.004187L635.750654,259.889259L634.661287,258.980287L634.255196,258.322066L634.494654,257.794444L635.320415,257.256373L635.163272,256.295161L634.584068,255.851122L634.484866,255.631715L634.445218,255.333947L634.076581,254.628709L635.902381,255.448875L637.342253,255.292156L637.856984,254.346614L636.870336,252.795089L636.739497,251.995818L637.028139,251.604019L637.270448,251.039827L638.102661,251.039827L639.119791,252.058506L640.769296,252.685385L642.250765,252.617473L642.722387,251.520435L643.102786,251.081619L644.069091,250.961467L646.108189,251.039827L647.386897,247.529300L646.514899,246.735252L646.749829,245.962099L647.287420,245.324770L648.122845,244.959089L649.320222,244.979985L648.911609,244.144143L648.294677,242.315739L647.913116,241.479896L649.549378,242.190362L648.803931,240.351508L647.708340,239.244015L646.289028,238.752957L644.500839,238.768629L644.356513,237.890992L645.845239,237.044699L647.603398,236.517072L649.125620,237.138732L649.976114,239.724625L650.578590,238.768629L651.545621,240.523900L652.386759,240.523900L651.928316,238.836541L651.691151,238.439515L651.112503,237.890992L650.968061,237.013355L651.677573,236.214078L652.355870,236.214078L652.648532,238.486531L653.270633,240.288819L654.196690,241.135111L655.425708,240.523900L655.733000,236.950667L656.296521,235.759587L657.271579,237.890992L658.013201,237.890992L658.665889,236.746930L658.703006,236.203630L658.340063,235.263304L660.039419,235.587194L661.584148,236.234974L662.778258,237.389485L663.472611,239.244015L663.674510,239.646265L664.049080,240.163443L664.442974,240.853014L664.732098,241.840353L664.508410,242.294843L663.961632,242.874708L663.548237,243.715774L663.728977,244.979985L665.581727,247.006900L667.419154,245.418802L669.358823,242.749332L671.510502,241.479896L665.329359,235.687549L663.785906,235.243036L659.170143,230.724918L655.592426,228.183886L653.995993,226.757456L652.409082,224.554780L651.634902,222.962483L650.601617,221.748355L648.119267,220.660283L644.196628,219.612018L642.174348,219.326730L640.489100,219.412980L638.896540,220.129516L635.121711,223.625940L633.227551,224.534877L626.965210,226.080731L624.702818,226.080731L619.941329,225.410640L617.994730,225.689291L617.384851,226.379286L616.802448,228.422730L615.984335,229.139261L615.042303,229.172434L613.862240,228.840706L611.790670,228.011387L610.250099,227.268317L609.065294,222.756811L607.503972,220.773071L605.185186,220.116247L603.540545,220.972109L601.092152,224.375647L597.645881,226.883513L595.748227,225.194688L595.237921,224.740548L590.762446,215.412315L586.742506,211.610676L583.611539,212.015389L580.296548,213.289237L575.668188,212.028658L565.703371,203.821594L562.125904,201.658688L557.272364,200.597137L554.822141,199.767801L552.999102,198.009604L552.344459,195.368987L553.157834,193.312220L554.434580,191.421318L555.112555,189.278292L554.569144,186.624382L553.054585,184.760007L550.946361,183.744883L548.640954,183.685170L546.846591,184.560963L545.259039,185.715417L543.395668,186.106869L540.772647,184.720198L538.949327,182.723123L537.704067,180.925088L536.132142,179.545044L533.322955,178.835117L528.741728,178.961179L526.738931,178.649342L524.247168,177.362182L523.613040,176.791585L522.524002,175.451344L521.797575,174.947095L520.170732,174.376496L519.487879,174.549003L516.593867,178.928005L515.140183,180.301415L513.388237,180.221797L512.610053,179.438887L512.035078,178.324234L511.673066,177.110058L511.498299,176.021942L512.678208,169.964297L512.746122,166.958680L512.089547,163.568226L511.765847,163.037430L510.583881,161.763516L510.176208,161.073479L509.966888,160.025153L509.963308,157.941765L509.790948,157.012864L508.963217,155.526621L507.924214,154.252696L506.986922,152.832797L506.371104,150.935172L507.402406,149.044177L508.203891,148.042279L508.255284,146.774976L504.091835,137.353071L503.162240,135.714177L501.044591,134.002292L496.584025,133.770059L493.969815,132.821221L492.183468,131.135870L491.264159,129.151926L490.238724,124.401054L489.946439,123.644026L488.739663,120.519379L488.511727,119.172399L488.650834,117.759061L489.551712,115.834794L489.870488,114.773127L490.181267,101.668012L490.655769,99.007138L491.586274,97.407954L493.715553,97.122622L495.311668,98.748350L496.858312,100.958004L498.911908,102.411196L501.295408,102.371383L502.433083,101.044267L503.246987,94.441819L503.731152,92.484294L505.428709,88.482957L506.019888,86.153807L505.773686,82.125878L506.169912,79.869692L507.263507,78.602243L510.528004,76.302908L511.058361,74.730197L509.788200,73.084485L507.370767,72.822365L504.826297,73.084485L503.183584,73.028079L503.202984,72.709554L500.837700,69.371659L497.045533,66.531444L495.558715,64.829297L494.656330,64.052877L493.421477,63.737664L492.502885,64.122556L491.911807,65.867839L491.205147,66.352271L488.652004,65.934200L487.139077,64.378045L485.960164,62.337449L484.527963,60.489293L482.705708,59.397649L476.900554,57.901197L475.013283,57.094902L473.446603,56.617098L472.487958,57.363667L472.519997,60.253710L470.954047,61.298899L455.958414,65.814751L453.881087,66.159825L451.688561,66.169779L449.259406,65.705256L446.683540,64.524038L445.656090,63.020967L444.385226,58.292730L441.328628,53.846484L437.318867,51.404348L432.914048,50.249637L426.736980,49.476510L418.179919,50.203183L417.260574,50.813720L416.168597,54.758963L414.920279,55.721212L413.208892,56.325106L409.776616,56.749821L408.697945,56.607144L406.712970,56.059658L405.566217,56.252108L405.027874,56.915726L404.816600,57.947650L404.497537,58.886666L403.638240,59.284835L401.342889,57.668931L393.791658,50.106957L391.901661,47.661482L391.890206,47.661482L391.863844,47.641573L391.860393,47.621664L390.401711,46.310990L389.016263,45.653992L387.651046,45.212675L386.208281,44.522494L383.700268,42.183169L382.411942,41.393437L379.613238,41.469756L376.320229,40.447747L368.406964,40.092698L366.684699,39.375963L365.015271,37.348524L364.112409,34.956068L363.996486,34.324550L363.117261,29.540636L361.958508,27.068494L361.018154,26.087958L360.453231,25.498925L355.054000,22.061116L353.742036,20.584441L350.604994,15.557069L350.603829,15.550432L350.603247,15.547114L348.639786,12.646804L347.968322,11.953249L346.584190,11.276284L345.742556,11.405704L344.965123,11.737550L343.888123,11.667862L342.222613,10.888025L340.215334,9.597142L338.201089,7.974406L336.584552,6.205649L335.283577,3.793091L334.409747,1.533170L333.273828,0.059734L331.214278,0.000000L329.878941,0.962380L326.703311,4.635995L325.873560,5.970036L325.390237,8.429038L325.399673,10.861477L325.064137,12.962056L323.476163,14.418850L322.263147,14.651139L321.423144,14.365755L320.701256,13.937677L319.816213,13.721979L319.441426,13.575968L318.505915,12.908961L318.172360,12.769587L317.635563,13.038381L317.436554,13.536146L317.324638,14.073733L317.001612,14.452034L308.469055,17.186409L306.998166,17.909821L304.017060,20.478253L300.589534,22.592053L297.258180,26.514334L296.259863,27.227774L294.669023,27.035311L291.435232,25.163773L289.864479,24.987901L288.849980,26.036495L288.797462,27.844981L289.016255,29.899013L288.855446,31.680935L286.484851,34.229369L283.855424,34.687289L282.590720,36.051091L288.715893,52.910776L289.261765,55.495582L289.000921,56.783002L284.136956,60.366524L283.134361,61.843060L280.288335,67.702703L279.124053,69.245575L277.701146,70.380329L275.885513,71.160057L273.643652,71.319320L269.693473,70.055166L267.513696,69.769819L266.978654,70.128162L266.093660,71.564851L265.493477,71.843561L264.429735,71.584759L263.828354,71.146785L263.300527,70.635815L262.572619,70.161342L262.097658,69.590647L262.139275,68.890549L262.005772,68.306580L260.990015,68.094228L260.802040,68.505661L259.221536,70.874710L253.124309,77.235251L251.373723,79.763519L242.854190,86.523131L242.223847,87.023092L240.576572,87.315066L238.787685,86.525410L236.216105,84.966002L229.613405,81.926803L227.912398,80.161670L226.691854,77.610179L226.123195,74.849643L226.141195,72.105682L226.609831,69.590647L223.502495,69.511015L214.683112,73.130937L211.499691,73.416282L210.213490,73.807802L208.904642,74.949182L208.278211,76.060698L207.392303,78.661966L206.546064,79.763519L204.785797,83.101343L204.297569,86.717847L204.886188,94.521447L204.761166,96.485601L203.916040,100.287810L203.739856,102.225400L204.075327,104.242610L204.582495,106.087289L204.636591,107.759439L203.628654,109.285604L202.197340,110.334010L201.046565,109.132988L199.736501,108.077944L197.963702,107.620094L196.928238,106.976449L194.806248,103.725037L193.673411,102.358111L192.960172,102.032968L191.143519,101.794088L190.457191,101.561842L187.436734,98.496196L186.491517,98.051610L185.615167,97.228792L182.764754,93.433197L182.097437,92.318402L180.607291,90.772283L171.868840,83.472948L162.684013,73.595453L161.274642,72.845591L156.992065,75.801897L155.634560,76.830462L155.066560,78.399849L154.752004,80.320930L154.152835,82.358131L152.324092,85.476958L152.244544,86.717847L153.744965,92.156878L154.023610,93.167770L153.701747,94.368827L151.099128,100.029022L150.044818,100.792115L147.969989,100.447064L146.445243,99.478267L143.035558,96.060920L137.772615,88.808109L136.738618,87.003185L136.141667,84.727114L135.953238,82.497484L135.402065,80.705809L133.668886,79.763519L132.468798,78.273767L131.117587,76.943272L129.631754,75.801897L128.049987,74.909367L125.386740,73.957111L124.115901,74.272318L121.101674,82.577114L120.119801,88.317064L119.487895,89.584489L117.933949,91.236783L111.910301,95.005851L109.359880,97.500853L108.675952,101.236699L109.135586,102.285120L110.773542,104.083357L111.104784,105.397194L110.856058,106.392523L105.917807,110.592794L104.195020,111.481946L102.463039,111.826990L101.087514,112.981559L101.448388,114.726679L102.256863,116.790293L102.152074,118.880442L100.593002,120.214152L98.359380,120.194246L96.004614,119.258658L91.927662,116.418711L87.628440,115.197794L85.573757,114.169303L84.374551,112.868757L79.225564,104.760183L78.164725,102.457645L76.926991,100.301081L75.142096,98.443111L72.905569,97.288513L68.036025,96.120640L65.733788,95.158471L58.213184,89.352239L55.765600,88.343607L51.200982,87.494231L48.865707,86.644854L48.052238,85.987913L46.059199,83.950726L45.485989,83.499491L44.370986,83.791467L43.866089,84.654120L43.516206,85.622945L42.794294,86.213529L40.271311,86.100721L39.254756,84.561219L38.583075,82.232051L37.005486,79.763519L34.303731,77.809255L31.184184,76.757467L28.477706,77.195436L27.003474,79.746929L27.006219,79.763519L26.604621,84.302423L26.069247,86.405966L24.978833,88.064906L23.891694,88.423236L22.606302,88.343607L21.468326,88.463050L20.864569,89.425232L21.147440,90.865183L22.086552,91.800818L23.243972,92.530744L24.038104,93.386747L24.642483,94.448455L24.890255,94.700610L24.345044,96.405973L13.075705,111.826990L12.346078,114.175938L12.397182,118.508860L12.163342,120.705169L11.016014,122.715680L9.372890,122.483443L7.307831,121.381975L4.772720,120.811335L2.921564,121.381975L1.115188,122.689139L0.262926,124.401054L1.303006,126.185953L2.168541,127.459930L3.936274,131.514079L4.319878,131.971911L5.409711,132.754869L5.862042,133.318864L5.974488,134.015563L5.852593,135.535027L6.151964,136.324616L8.074714,138.255456L10.229013,139.701924L12.090534,141.360714L13.216011,143.935148L15.706413,146.118101L22.974008,149.760765L32.270099,158.147450L36.114791,160.409982L37.322116,161.464943L38.274197,162.825111L39.873733,166.009885L40.873755,167.456300L43.449005,169.353886L46.501550,171.078960L48.452663,172.697873L47.733429,174.303512L47.477105,174.675065L47.300654,175.079792L47.179617,175.544232L47.155665,176.041847L49.225091,180.891914L53.801625,183.253907L59.006259,185.018764L62.918337,188.110572L68.188294,197.445654L70.070063,202.693698L70.726718,210.224037L71.424970,213.156545L72.428678,216.062507L73.467871,218.066157L74.490113,219.379807L74.830464,219.572210L75.229719,219.300192L81.085573,219.187404L82.243193,218.882213L85.298790,216.414141L87.255095,212.950871L87.936602,208.837397L86.576117,198.513842L88.206320,196.490255L90.700322,198.387782L92.572240,204.252848L93.043761,209.368169L93.798000,211.849523L95.379048,213.388756L97.278189,213.236160L104.735233,209.461054L105.281088,208.956821L105.893010,209.195668L107.073815,210.887501L107.726062,212.287408L108.166927,213.766930L109.457104,222.584312L110.315503,225.695926L111.867206,228.508979L112.015539,228.867245L112.114276,229.238779L112.131569,229.603679L112.097174,229.968580L110.239404,232.284035L106.952659,237.896844L104.920808,240.245461L101.289527,249.215295L102.830696,248.346178L104.814567,246.820247L106.800583,245.712287L108.391882,246.044012L108.484848,247.516868L105.830558,253.972211L105.775933,256.599458L106.600802,262.470948L106.536012,264.633777L105.410797,266.113257L101.805791,267.128326L100.224202,268.667515L99.329707,271.115620L100.287689,271.659643L102.364940,271.420804L104.828087,271.520320L106.598053,272.223570L108.217388,273.324885L109.511306,274.698211L110.316500,276.217494L110.365929,277.385152L109.786105,279.939404L109.978861,281.180040L110.856866,282.467116L111.652505,282.705955L112.579168,282.752396L113.832404,283.495451L115.413231,285.645001L115.461313,285.775520L117.270352,290.687154L118.383500,292.936219L119.079722,294.090606L119.745255,294.972983L120.688378,295.384316L122.277911,295.145478L125.270140,296.465725L127.312418,298.628543L130.720370,304.413749L135.455858,312.653691L138.095486,316.415407L141.941126,320.727783L143.847194,322.459369L144.642515,323.029930L145.909317,323.600491L147.967835,323.899040L149.149725,324.217493L150.168919,324.748248L151.847300,325.935811L153.004339,326.353781L154.307927,326.380319L155.072975,326.117168L156.371731,325.670434L157.355810,325.564283L159.253150,326.121576L166.098144,329.783786L169.371819,330.911642L170.583040,331.084138L171.194624,331.097407L173.879308,330.241453L174.066238,330.181853L176.116346,328.788620L176.775198,327.992487L176.989212,327.183086L177.524377,326.851364L179.163949,327.488270L180.742121,328.954481L183.441786,333.246968L184.895424,334.912216L185.865739,335.608833L186.833414,336.139590L187.840974,336.444775L188.977350,336.504485L188.976324,336.497851L188.983101,336.504485L188.986179,336.524388L196.111437,338.123293L198.483150,339.476724L203.569989,344.552096L206.367643,346.874165L206.803222,347.385021L207.324086,347.703476L208.578302,347.929049L209.568017,347.783090L210.848440,347.285503L211.952616,346.615420L212.498250,345.978510L212.279569,344.936896L210.766256,342.442332L210.440290,341.228224L210.719969,339.543069L211.331995,339.038849L212.265069,338.899526L213.558341,338.375403L215.568397,336.836208L215.881205,335.960459L215.309320,334.719816L214.660368,332.092574L214.753258,330.022626L215.286874,327.421925L216.070685,325.026894L216.936825,323.607125L218.101877,323.149349L220.408353,323.487705L221.519829,323.388189L222.422729,322.797725L223.811685,321.192193L224.618379,320.575191L232.355661,317.722388L234.416850,316.634343L235.495096,316.322525L236.801648,316.368966L240.757231,315.632545L244.868397,309.117547L248.781503,308.812364L249.616565,309.263504L251.508732,310.630194L252.517774,311.127775L253.599862,311.320173L256.131873,311.373249L257.346195,311.565647L260.711869,312.832820L261.623142,313.403380L262.429343,314.405177L264.004266,317.052311L264.495740,317.695850L265.265675,317.656044L267.653141,316.893085L268.691768,316.806838L269.752836,317.158462L270.944264,317.755560L272.055021,318.498616L272.996410,319.261574L274.629306,321.212096L277.028266,325.159583L278.786034,327.063666L279.819503,327.753647L281.673636,328.470167L282.624084,329.107073L283.370200,330.055799L284.643906,332.284973L285.614258,333.233699L287.984403,333.976757L290.514750,333.903779L292.835459,334.182426L294.621728,335.973728L296.309294,340.007481L298.484016,342.077436L304.691516,345.076220L311.382437,347.411559L313.274404,349.216140L313.226891,349.713918L312.937987,352.739060L307.414083,363.440550L305.303014,365.550338L302.676540,366.492445L299.680950,365.948411L296.562932,363.579876L294.985523,368.608871L294.974016,368.608871L289.335554,373.352595L288.972626,375.760954L292.885146,378.209124L297.622198,379.443163L313.501107,379.058355L315.187479,379.987202L318.342141,383.848558L320.355467,385.251786L324.864863,387.053095L326.697337,388.439740L327.269884,389.458162L327.835627,390.914474L328.247425,392.417231L328.351369,393.568350L327.867852,395.309960L327.047822,395.588618L326.118739,395.535540L325.296383,396.318437L325.132519,398.006973L325.365435,400.621058L325.885016,403.228515L326.594837,404.910428L330.680889,406.983795L335.277515,405.928865L340.029747,404.097669L344.485962,403.845547L355.291528,409.707378L355.550918,410.672742L355.148898,412.049466L355.757962,414.932299L357.637732,417.360654L362.403990,420.432598L363.557928,422.449604L363.274586,422.960491L361.800414,423.292237L361.457348,423.604077L361.545438,424.393631L362.031015,425.518249L362.607703,427.896872L363.201066,429.456084L363.641020,431.028569L363.501489,432.795585L363.140142,433.196910L362.190156,434.251969L360.754152,434.497464L357.395570,434.079458L355.327401,434.444384L354.889667,435.074710L354.853737,436.179442L354.100324,437.967583L351.908942,440.064259L346.428995,444.018763L344.776078,446.918303L344.447063,449.293677L345.133454,450.006955L348.463310,450.235867L350.696266,451.005544L351.630892,451.722140L351.840595,452.889928L351.968914,455.019817L351.472499,459.067286L349.543680,460.858795L347.020200,462.195794L344.761525,464.873116L342.756157,465.576454L341.270863,465.768877L339.940897,466.183581L338.403475,467.567035L337.230369,469.295527L336.571558,470.997480L334.617868,481.255722L333.849252,482.622611L332.831042,482.745366L330.730270,481.527772L329.732865,481.262357L328.784546,481.614032L327.262425,482.878074L326.363982,483.329281L323.810192,483.657733L321.852253,483.216479L314.885705,479.062730L311.852434,477.699164L310.819399,477.052217L308.971413,475.303804L307.665998,473.711324L306.196832,472.626449L303.918575,472.347766L301.984291,472.918403L297.343753,476.531342L294.736641,472.805603L290.624778,471.355787L288.941832,469.965691L285.881944,470.918621L281.409936,472.311272L278.978583,472.347766L278.512908,472.991392L277.887177,473.830760L277.368957,475.745054L276.602486,476.531342L274.373780,476.912874L272.132815,476.126586L266.324804,473.120780L264.984194,472.719344L264.022550,473.210357L263.689409,475.244086L264.209814,476.833250L267.431654,483.525025L269.005295,485.369668L272.843597,487.665524L274.288930,488.823407L275.323573,490.910256L275.806002,493.116547L276.492102,495.223311L278.040567,496.978399L278.041584,496.985034L278.059890,496.991670L278.060908,496.998305L277.826535,498.514518L276.944266,499.075219L275.790267,499.367182L274.785062,500.103724L274.275591,501.480596L274.268809,504.446683L274.090275,505.727346L273.503041,507.538856L273.454544,507.598576L273.029312,507.117497L271.419637,507.333153L268.932433,508.368303L266.623342,509.814861L264.352433,510.418700L263.226910,511.652921L261.585722,515.322417L260.083298,516.732489L256.374964,518.646873L255.083321,519.891059L254.493840,522.110690L255.713357,522.697948L257.733517,522.638226L259.546595,522.883747L261.489727,525.946118L262.192401,526.848574L263.071641,527.472331L266.125388,529.084811L269.826905,531.692654L269.965280,531.692654L272.161613,530.594439L274.482178,530.461724L276.867542,531.055623L290.181156,537.137294L295.171506,540.514910L296.507988,541.752488L297.301681,544.307277L297.663633,546.603275L298.809046,547.684917L301.878960,546.639772L304.208997,547.250575L304.245803,547.260223L306.062444,548.620572L307.758456,550.286172L309.732084,551.805786L312.026500,552.857572L314.044559,553.534432L315.975776,554.473410L318.136555,556.311553L322.152523,561.613652L323.728069,562.791531L325.791945,563.275954L329.198281,562.881116L331.390018,563.484987L333.449310,564.732545L335.038494,566.225636L339.851257,572.589543L341.368957,573.916744L345.458798,576.146445L347.260737,577.483604L350.816624,580.864667L352.681958,582.125518L353.868413,582.490501L356.055546,582.682947L357.230578,583.124245L357.925812,583.824350L359.559534,585.987710L360.549913,586.807266L361.933797,587.331517L366.612290,588.044897L371.161339,589.498202L372.725005,589.687331L379.062512,589.133217L382.161065,590.078861L383.751664,593.280786L385.120918,594.578148L387.163626,595.145538L389.346273,595.079176L391.152912,594.515105L393.036109,594.906637L399.188160,598.503426L402.058670,599.578483L403.426441,599.465668L404.670877,599.074135L405.939917,598.881687L407.397836,599.359490L411.458979,605.172777L414.164510,606.981140L415.068215,608.062841L415.307926,609.634965L415.375808,610.080249L414.876635,612.220430L413.784218,612.399609L412.402255,611.928437L411.070458,612.127523L409.802271,614.450205L408.915809,618.259412L408.294161,625.373502L408.512636,630.692505L410.261169,634.266170L413.269886,637.013618L417.213412,639.834072L419.492942,642.037349L419.659304,643.593581L419.218291,645.295815L419.697471,647.966967L421.013374,649.642662L427.003374,653.359060L427.781288,654.264934L429.063346,656.252548L429.922109,657.005785L431.159871,657.400654L432.306157,657.261596L435.180704,656.912875L435.666646,656.498097L436.182114,656.584371L437.146261,657.958117L437.535090,659.384955L437.278156,662.464277L437.573082,663.920985L439.033161,665.789156L441.065234,667.199411L443.248235,668.155067L445.091227,668.656123L445.985245,669.107405L446.314674,669.644962L446.647593,669.784329L447.558850,669.047677L447.877998,668.138476L447.956587,665.291419L448.435130,664.100170L450.301930,663.114652L452.713294,663.287201L455.106143,664.292628L457.043852,665.802429L457.899322,666.953860L459.327418,670.444662L459.480254,671.227771L459.350344,671.898059L459.170780,672.392479L459.123408,672.691123L459.708564,673.162316L461.029394,673.494142L461.542276,673.869106L464.063008,678.405179L465.109712,679.294477L467.239715,680.472465L468.326006,681.471267L469.139676,682.884855L469.990357,685.811583L470.601789,687.072534L471.501144,687.981746L474.388713,689.587801L474.391706,689.607711L476.424024,692.999607L476.813323,693.649401L476.948968,703.411884L478.836521,707.758894L483.827004,712.145736L487.619115,718.185127L490.660087,721.908322L492.004681,724.025436L494.144902,728.923345L495.484911,730.974100L497.029868,732.188625L503.282233,735.009248L507.304469,737.644044L510.679514,740.670415L519.511466,751.096825L522.265915,753.804648L522.283261,753.804648L533.937690,766.806222L555.125611,784.413880L557.782079,785.840816L559.433841,786.020012L560.595937,785.110755L561.951989,783.278969L562.292222,782.210427L562.400940,781.102064L562.865015,780.325547L564.270381,780.245904L565.702295,780.896321L566.094827,781.951588L566.185179,783.312153L566.670109,784.878463L567.378356,785.761173L569.192022,787.553140L569.701364,788.303111L569.788134,789.484483L569.180022,791.528656L569.284156,792.869315L570.186352,794.800662L574.466944,800.959744L580.664591,806.508238L582.141637,808.738258L582.186478,809.481598L581.660725,810.835540L581.658135,811.412956L584.158401,815.591645L584.870657,816.782271L585.332877,818.010113L585.334808,818.023387L586.461435,818.926017L588.512989,819.981298L590.805643,820.864018L592.786738,821.235689L595.499932,822.105135L598.128591,818.853010L599.434002,820.983483L599.859377,823.811870L604.982401,858.117627L606.056436,861.250317L607.467650,863.991421L610.454378,867.104203L612.783180,868.531172L615.185426,869.540006L616.705024,869.679384L618.539188,870.562114L619.209810,872.015632L619.667909,878.891638L620.044361,880.358432L622.334568,885.435798L624.552646,888.827347L627.343746,890.951215L630.596217,890.360514L630.781903,891.754302L631.216899,892.331729L631.968129,892.278632L633.007863,891.767576L633.906070,890.902278L634.006837,890.805199L634.078106,889.836184L633.961154,888.847259L634.321224,887.791962L637.041187,885.654822L638.109410,884.327405L638.263158,882.190266L640.028662,877.710239L642.715303,877.829706L645.136650,881.168156L646.183616,886.331804L646.315179,890.606086L646.225094,890.951215L645.931046,891.369351L645.748457,891.920229L645.851860,892.650309L646.349530,893.015349L647.056280,892.729954L647.702732,892.305181L648.078568,892.218898L649.932953,895.703370L651.199860,897.289635L653.384921,899.061738L656.366750,900.734285L657.197801,901.451091L657.897085,902.712139L658.686441,905.599276L659.086972,906.468736L660.421804,907.391292L661.898076,907.590405L665.701799,907.451026L670.157007,907.988631L671.872323,908.556885L672.180498,908.658978L674.416101,909.807196L676.811036,911.552752L678.005155,913.205390L680.165663,920.094701L681.050024,921.734066L681.409250,922.174368L682.225032,923.174317L683.806672,924.581383L685.686015,925.756150L687.269975,926.227385L688.874312,926.512780L690.707903,927.070297L693.924757,929.233993L698.905462,935.114468L701.844802,937.663116L705.119084,938.705142L708.318646,938.293641L714.307238,936.521534L716.486614,936.441889L717.089320,937.065777L717.045394,938.539214L717.065002,938.784045L717.241344,940.988306L717.961049,942.455106L718.868054,943.477221L719.160806,944.625440L718.060955,946.430732L716.634888,948.017000L714.411315,954.149685L713.015566,956.300106L711.512475,957.169566L707.349084,957.999204L705.462318,958.862028L698.447008,964.463741L697.541261,964.749136L696.488843,964.556660L695.374785,963.999144L694.175155,963.620829L692.837058,963.965958L691.793340,965.359749L689.934420,972.328702L690.142519,975.003452L691.687122,976.895024L698.406799,980.903827L699.758767,982.277705L700.497080,984.129453L701.728657,989.455715L702.513409,991.486663L703.835236,993.288631L705.923546,994.884848L710.530483,997.314019L712.164790,998.727716L719.700498,1010.631301L721.209968,1011.596994L721.930420,1011.085940L722.483954,1009.934409L723.492736,1009.021813L724.295337,1008.995265L726.612650,1009.625786L727.238690,1009.406763L727.739034,1008.942168L728.308674,1009.081547L729.132727,1010.644575L729.133615,1010.651212L729.611699,1011.623542L730.166794,1012.131277L730.811025,1012.134596L731.555981,1011.633498L733.210574,1012.512908L733.853625,1015.068176L734.199808,1018.097992L734.987095,1020.394412L737.268335,1021.758326L741.980337,1020.945288L744.029803,1021.526029L744.529351,1022.576293L744.738491,1023.016047L745.636942,1027.947370L746.695333,1030.243786L748.246105,1031.879815L753.808626,1036.087693L755.700185,1038.068845L756.666007,1039.850886L756.955333,1041.828718L756.908495,1047.924814L756.692384,1048.711300L755.993456,1048.956869L755.367231,1048.339628L754.661887,1048.004459L753.743897,1049.102883L753.487788,1050.294226L753.781105,1054.495446L753.478462,1056.937860L752.561216,1058.852631L751.961919,1059.599292L750.541092,1060.946600L750.161969,1061.915600L750.360295,1063.176626L751.693253,1065.492931L751.766940,1066.870102L750.706415,1068.273821L749.000990,1068.459656L745.848897,1067.868966L744.052336,1068.068075L742.266598,1068.686168L739.191350,1069.750546L737.117418,1069.959611L736.194041,1071.081258L736.319563,1072.823460L737.336294,1074.863829L737.412454,1076.768631L738.082965,1078.467687L739.164483,1079.887992L740.634617,1080.989722L742.529391,1082.008491L750.023991,1087.792569L751.121662,1088.890979L750.974285,1090.241590L749.635771,1092.727113L745.583190,1097.761201L744.906866,1099.483475L745.540942,1101.471223L746.919476,1103.472244L747.712047,1105.340526L746.657092,1106.969880L747.527120,1108.210975L748.806661,1109.246327L749.813747,1110.470830L749.831786,1112.282694L751.612626,1115.703996L751.434563,1118.929507L749.631714,1125.443570L749.715990,1127.434621L750.624154,1131.254116L750.741788,1133.288303L750.339493,1134.735130L749.044983,1137.333443L748.771344,1139.075607L748.778901,1139.988168L748.575349,1141.736967L747.640065,1145.101826L746.867583,1147.049726L745.610420,1148.360493L743.511804,1148.964441L742.737196,1148.566233L742.214532,1147.710087L741.490551,1147.155914L740.100476,1147.663629L739.318550,1148.586144L739.099906,1149.651349L739.067127,1150.812787L738.890227,1151.984180L737.144333,1156.500510L736.616113,1158.853247L736.723996,1161.474771L737.112842,1162.626250L738.399386,1165.105081L738.874395,1166.395931L739.002345,1167.603821L738.982077,1172.126768L736.629235,1184.295228L736.455236,1187.381305L737.110656,1188.891159L738.319002,1190.115633L739.830112,1192.328978L740.366179,1194.850928L740.302551,1197.515566L740.568729,1200.123790L742.127793,1202.463226L744.132021,1203.249674L748.290388,1202.781787L750.116410,1203.535052L750.964002,1204.766159L751.180742,1206.020494L751.184638,1207.244963L751.427064,1208.422975L753.453955,1212.192611L753.623006,1212.835908L754.038939,1214.419216L753.902776,1215.895877L753.456062,1217.352626L753.206269,1219.506226L754.877881,1223.398630L754.871176,1224.546773L754.463455,1227.307623L754.577748,1228.651545L755.369490,1230.579493L757.837640,1233.439888L759.130153,1235.381107L759.422347,1235.951858L762.365435,1239.110899L764.701723,1242.256665L776.292753,1262.481760L777.651939,1267.173836L779.758646,1279.780037L779.794180,1283.712210L777.268090,1293.488034L776.216347,1297.548690L768.172811,1328.422630L768.660278,1330.257627L770.571848,1331.701070L770.951524,1332.640137L771.075773,1333.476338L770.876358,1334.169854L770.349047,1334.680866L769.814748,1335.945121L769.765397,1337.338789L770.172925,1338.762321L771.785530,1342.000937L772.616992,1345.893246L773.274761,1347.821150L774.214703,1349.337590L777.797880,1353.352670L779.704518,1356.929740L780.360022,1360.294440L780.622089,1363.745413L781.284171,1367.581300L785.569008,1381.743536L786.208243,1385.917873L786.211488,1389.806840L785.762286,1391.446046L785.205582,1392.833066L785.109287,1394.226722L786.071007,1395.892473L786.071684,1395.899109L786.084681,1395.912382L786.379298,1398.918696L784.127844,1409.391013L783.880829,1412.543324L783.277809,1415.463358L781.850792,1417.779476L779.079591,1419.120036L776.570151,1421.217151L773.337630,1426.990849L770.779668,1427.150123L768.401511,1425.019828L764.438816,1419.153219L761.596576,1417.341471L756.684846,1417.832568L751.427526,1419.734098L749.694038,1420.361050L743.370507,1424.044272L740.432448,1427.999587L739.854894,1429.811332L738.642420,1431.211619L735.871564,1433.580824L732.798884,1438.511689L725.943758,1447.132402L723.408876,1449.209601L719.404014,1451.027980L715.286093,1451.565529L706.612170,1450.828887L705.227001,1450.964319L703.150498,1451.167344L700.755802,1452.899449L699.195258,1455.912382L698.281750,1460.086686L696.396066,1463.371710L694.090293,1464.108351L688.332334,1462.681523L689.414750,1464.612718L679.560870,1463.112890L674.154293,1463.039889L670.944658,1465.774090L669.443321,1465.667908L668.753679,1464.791902L668.186079,1463.670348L667.093681,1462.847433L665.613308,1462.595250L664.309001,1462.721341L661.738961,1463.497801L661.947691,1464.012227L663.141529,1466.955371L667.146569,1473.956781L668.082077,1477.122345L667.821637,1477.447529L666.442696,1480.480366L666.394834,1481.329825L666.554243,1483.758748L666.507262,1484.867027L665.899084,1486.698674L665.133140,1488.404228L664.692995,1490.169510L665.005740,1492.200248L668.626447,1498.086731L669.848056,1500.918109L669.912053,1501.066473L669.056361,1503.017573L667.591754,1503.057391L666.077623,1502.188023L663.412800,1500.223651L661.789258,1499.619739L660.657249,1499.414011L659.469976,1499.553375L653.291915,1501.411565L651.773807,1501.126200L650.674250,1500.203742L648.790744,1497.370001L647.838032,1496.274995L645.505433,1494.941080L637.471486,1492.200248L632.789634,1492.100702L626.738751,1490.069964L621.485642,1489.094414L619.148331,1492.200248L619.220981,1493.978802L619.096807,1495.710902L618.602813,1497.290364L615.809993,1500.973563L615.033273,1503.661303L613.838424,1505.486311L610.599097,1505.300492L605.028024,1503.083937L603.145706,1503.521938L601.102856,1505.663895L600.797488,1505.984040L599.483735,1507.789139L598.398236,1510.052148L598.294725,1512.607159L598.659012,1513.188119L600.000674,1515.328079L601.451759,1516.157628L604.509201,1516.774812L605.851141,1517.813407L606.501553,1519.256821L606.773928,1520.965691L606.833562,1524.310430L609.196685,1531.092817L609.559744,1533.047233L609.418334,1534.968466L608.563704,1539.331889L607.562739,1548.991144L607.835996,1550.816149L609.389029,1552.090335L611.277237,1552.611291L612.860222,1553.633293L613.408853,1556.400664L613.410618,1556.420574L614.902312,1559.971037L617.395524,1561.932088L623.581287,1563.594501L625.400250,1565.316642L628.577389,1570.157882L630.455069,1572.291478L634.725517,1576.057623L636.424103,1578.151401L637.798435,1580.809271L638.851157,1578.038583L640.487337,1576.880534L642.476317,1577.225626L644.644974,1578.961040L646.143548,1581.170954L648.625121,1588.530699L650.111376,1591.085706L649.385523,1591.862162L648.203082,1591.818462L645.794145,1591.729434L643.822467,1591.988253L643.494667,1592.446163L642.966347,1593.756849L643.236970,1594.055486L643.381461,1597.360403L643.225232,1597.645767L643.981384,1599.729591L647.268549,1605.639288L651.221490,1617.982958L648.512646,1615.673497L645.485253,1614.837313L639.034117,1614.130538L635.944725,1612.975808L632.655428,1611.183985L629.601595,1608.871206L627.272733,1606.173517L626.105172,1604.789831L622.050604,1601.352186L622.060401,1603.445964L621.244912,1606.259790L620.125533,1608.798206L619.184980,1610.082345L616.855862,1610.122164L614.739029,1608.678751L613.041350,1606.611518L612.039612,1604.776558L610.363649,1600.306956L609.392332,1598.359178L605.045445,1592.412982L602.708308,1588.497517L600.601139,1586.038739L597.550391,1585.683692L594.387409,1586.728922L591.916917,1588.504154L591.889482,1588.524063L589.893724,1590.060385L587.442502,1591.387661L585.790450,1591.788308L575.440969,1594.298093L569.941613,1595.631626L569.021816,1595.512171L566.368938,1594.082031L563.088538,1593.086574L562.550434,1592.794573L561.220423,1593.876303L557.148561,1599.862319L554.440505,1607.527339L553.458319,1608.738478L551.722845,1608.074840L547.528788,1604.268875L545.683649,1603.001327L540.613315,1601.958008L529.428864,1599.656591L527.773226,1599.042725L526.313119,1597.094948L525.907436,1595.412625L525.201616,1594.861806L522.831360,1596.331764L521.461430,1597.499767L521.026780,1597.985252L520.050256,1599.075907L518.942959,1600.937412L518.385604,1602.961508L519.146216,1607.407884L521.319317,1612.232533L526.056305,1620.607648L526.462305,1624.778615L523.968115,1627.748397L513.415716,1634.066235L512.067530,1635.469831L510.889388,1637.099064L506.894032,1645.066047L504.428401,1648.231605L500.557311,1650.046657L495.502130,1650.285567L489.861517,1649.513841L487.146031,1649.142318L478.573622,1647.969467L473.739887,1648.205059L472.002835,1648.649697L470.657831,1649.900657L469.712671,1651.768801L468.937620,1653.796218L464.853747,1661.534252L463.763609,1662.778576L462.188679,1663.070577L460.091223,1662.570991L460.725058,1664.175222L460.591266,1666.291553L460.757878,1667.686764L462.572250,1667.859205L464.360333,1667.242595L465.760828,1666.145239L466.811628,1664.582812L467.553106,1662.602344L468.398256,1662.602344L469.138588,1663.929623L469.181033,1665.147167L468.721039,1666.401289L467.974054,1667.859205L467.096273,1668.601228L466.285332,1668.569875L465.978803,1668.872954L466.647108,1670.571245L469.437560,1674.234327L470.764276,1676.711220L471.207824,1680.222764L472.117387,1680.222764L472.154591,1679.647957L472.264275,1679.292622L472.667445,1678.466992L476.023394,1681.168582L477.239971,1682.960933L477.889969,1685.960378L478.165339,1689.461473L478.590867,1690.668567L480.240951,1692.612460L480.793820,1693.453768L480.967519,1694.969168L480.609997,1695.920212L480.445175,1696.751070L481.142148,1697.911135L481.453370,1697.660310L485.414841,1697.911135L485.738745,1697.352004L486.023792,1694.885560L486.678765,1694.331655L487.903018,1694.007673L488.113586,1693.176815L488.007133,1692.053329L488.296262,1690.820107L491.008021,1687.914720L494.435207,1686.749430L498.259633,1687.360816L502.169094,1689.869063L504.758519,1693.239522L507.348194,1697.561025L510.315426,1701.553322L514.133070,1703.967513L516.771686,1704.103377L521.141455,1702.870154L523.398386,1703.178459L525.726485,1704.636380L530.543569,1709.391606L536.204976,1716.882919L537.871577,1719.788320L538.836398,1722.536956L539.270207,1728.201447L540.318069,1733.024628L540.472740,1734.816991L537.156061,1726.753971L536.694782,1724.689880L535.490702,1723.728380L533.126226,1725.013864L526.622402,1730.829897L524.930872,1732.998500L524.321052,1735.255937L520.910505,1735.782449L515.628232,1735.585897L513.879652,1743.044428L512.629424,1750.105195L511.994493,1773.454766L512.065073,1778.816199L512.365599,1793.393075L512.866904,1801.218230L513.482770,1820.108705L513.116414,1827.853024L513.446556,1839.034195L514.244063,1848.060716L514.932198,1852.971035L513.585562,1858.855197L512.667151,1863.366600L511.778410,1868.276926L514.001979,1872.618327L516.936510,1874.256313L521.512516,1872.955137L528.463942,1869.375600L528.029543,1871.795054L528.524851,1874.366050L529.784525,1876.545127L529.837912,1877.339419L528.036926,1878.875747L527.223760,1879.095222L524.491721,1879.095222L522.658882,1879.335600L521.383915,1879.664813L520.935484,1880.385947L521.582193,1881.802086L524.281675,1883.516085L527.819803,1883.463829L531.343924,1882.376903L533.941936,1880.924184L533.281299,1882.460512L531.793420,1883.871426L529.985918,1884.906096L528.412478,1885.313693L520.831920,1883.651950L519.381393,1883.557889L517.950654,1884.587334L518.468735,1885.183053L519.691156,1885.857156L520.328730,1887.142656L519.976866,1888.490863L519.219076,1888.992521L518.219482,1889.316509L517.068852,1890.136929L511.786401,1894.250369L509.644130,1894.709337L508.245984,1894.155423L507.384929,1894.489862L507.782383,1895.911228L508.444057,1896.318825L511.195272,1897.442331L518.351525,1898.680801L519.204050,1899.192911L519.793899,1899.767728L520.485876,1900.217131L523.165710,1900.676985Z "/></g></svg>