<?xml version="1.0" encoding="utf-8"?><!DOCTYPE svg  PUBLIC '-//W3C//DTD SVG 1.1//EN'  'http://www.w3.org/Graphics/SVG/1.1/DTD/svg11.dtd'><svg enable_background="new 0 0 1000 3798" height="3798px" pretty_print="False" style="stroke-linejoin: round; stroke:#000; fill: none;" version="1.1" viewBox="0 0 1000 3798" width="1000px" xmlns="http://www.w3.org/2000/svg" xmlns:xlink="http://www.w3.org/1999/xlink"><defs><style type="text/css"><![CDATA[path { fill-rule: evenodd; }]]></style></defs><metadata><views><view h="3798.19112603" padding="0" w="1000"><proj flip="auto" id="robinson" lon0="168.357244771"/><bbox h="109.54" w="28.85" x="2442.18" y="229.89"/></view></views></metadata><g class="" fill="#000" id="country"><path d="M974.078375,3796.191126L999.868324,3764.134723L983.370183,3741.666733L972.321847,3739.794396L931.339735,3744.787295L917.560840,3773.155929L946.910629,3795.793968L974.078375,3796.191126Z M889.827797,3388.520860L835.480523,3340.686333L842.350484,3266.011176L820.416158,3261.641844L795.063577,3274.976803L760.886994,3351.467591L773.364790,3391.358003L805.043264,3436.978991L847.389550,3451.675193L889.827797,3388.520860Z M897.250062,3039.935295L888.501757,2997.261130L850.681102,2955.948564L882.888192,2937.164857L849.082542,2914.919413L845.229761,2860.270136L818.883634,2852.381981L778.718299,2867.647536L755.104628,2904.761385L743.737391,2973.086510L731.616083,2999.871529L847.457785,3064.960797L867.021672,3068.025135L897.250062,3039.935295Z M644.579237,2227.484554L590.175882,2233.216748L580.409580,2228.506134L569.101870,2229.073678L555.787313,2233.330257L501.454725,2287.133247L475.850617,2325.328634L487.023015,2329.074383L515.534482,2318.064145L537.020197,2322.717959L545.735928,2345.759975L513.462253,2366.134513L584.576935,2381.514702L649.206485,2376.179880L693.877233,2316.815561L675.407748,2310.288865L644.579237,2227.484554Z M748.011489,1783.826807L709.721086,1772.191749L684.115282,1728.829813L670.329195,1721.054169L658.379787,1702.948827L646.854414,1676.329978L637.248062,1679.848889L608.829757,1701.359643L596.258218,1732.235204L598.561415,1776.221453L610.182323,1798.469945L625.539895,1799.718584L683.955242,1789.048393L747.334962,1816.518447L761.143334,1792.453773L748.011489,1783.826807Z M729.723818,1526.775876L735.238437,1504.810957L728.288311,1485.173064L712.187023,1465.648679L707.599231,1400.832231L694.958377,1378.640254L631.741094,1436.532363L589.366524,1445.386448L557.057416,1464.116241L565.697498,1489.429833L592.922291,1514.629901L670.444842,1532.735349L729.723818,1526.775876Z M311.885158,1386.926772L295.449524,1282.777729L258.792329,1259.564137L230.248105,1264.388477L216.452689,1289.645321L181.375920,1377.959170L205.711906,1421.435011L220.650464,1418.143107L260.246377,1398.334924L272.355246,1420.980955L276.505271,1473.991948L267.147374,1564.008378L277.325601,1622.921929L270.155967,1630.640845L271.679621,1653.740826L308.233607,1664.978647L361.202628,1620.992200L434.119553,1631.321926L481.749795,1592.557057L466.534332,1560.546210L465.085759,1529.102908L437.329655,1513.494763L427.345437,1482.619002L407.030530,1484.208196L346.726229,1427.791791L345.265419,1399.526821L332.530625,1399.526821L311.885158,1386.926772Z M260.040439,1170.853100L277.586091,1124.880077L221.770501,1111.826019L201.749208,1148.263879L247.617616,1185.950425L260.040439,1170.853100Z M733.900644,1313.994059L757.874894,1305.139972L771.575139,1268.588491L776.272051,1045.363923L769.961236,1018.404537L724.303486,1145.709822L722.476691,1287.999369L725.265508,1314.731899L733.900644,1313.994059Z M646.816041,1003.364050L711.520171,914.597014L618.525841,931.340127L524.496184,1012.445097L544.723379,1027.485590L607.179559,1030.039637L646.816041,1003.364050Z M800.869888,941.045463L815.484884,864.424524L814.616756,742.117807L803.447014,743.366430L794.713066,759.653068L772.227763,935.369827L784.632083,977.029033L800.869888,941.045463Z M126.195407,649.379500L94.326970,596.029712L77.568422,538.764042L56.419977,541.828800L22.122128,610.388731L12.443606,662.887244L31.785681,872.937946L0.131676,985.996557L21.419846,1049.677427L45.722442,1079.417924L37.545923,1116.820614L71.357795,1118.977372L134.564638,1085.944946L214.110778,1087.590890L279.312971,1032.309901L285.060753,1007.507277L281.950494,976.518225L286.565659,828.668204L274.910113,822.992605L261.957323,791.720093L266.036918,735.136872L281.340191,712.604936L257.921321,705.056462L235.962642,715.158932L211.817743,785.874241L180.324917,830.881688L158.808562,841.097773L120.619823,841.495065L126.195407,649.379500Z M616.013188,320.486765L631.548047,275.651186L588.989402,251.474075L551.871589,266.740838L534.326779,283.596723L521.512399,332.461858L533.663593,340.237160L589.313503,349.942104L616.013188,320.486765Z M621.791335,0.000000L580.008516,22.417436L568.155365,45.856452L585.637242,116.173674L596.602371,120.657187L605.098387,114.925102L612.455992,101.758339L636.173929,95.118208L644.226039,79.170552L647.799825,60.725771L648.514425,39.046081L621.791335,0.000000Z "/></g></svg>