<?xml version="1.0" encoding="utf-8"?><!DOCTYPE svg  PUBLIC '-//W3C//DTD SVG 1.1//EN'  'http://www.w3.org/Graphics/SVG/1.1/DTD/svg11.dtd'><svg enable_background="new 0 0 1000 4156" height="4156px" pretty_print="False" style="stroke-linejoin: round; stroke:#000; fill: none;" version="1.1" viewBox="0 0 1000 4156" width="1000px" xmlns="http://www.w3.org/2000/svg" xmlns:xlink="http://www.w3.org/1999/xlink"><defs><style type="text/css"><![CDATA[path { fill-rule: evenodd; }]]></style></defs><metadata><views><view h="4156.18497912" padding="0" w="1000"><proj flip="auto" id="robinson" lon0="168.354116946"/><bbox h="120.54" w="29.01" x="2442.03" y="219.08"/></view></views></metadata><g class="" fill="#000" id="country"><path d="M956.529253,4154.184979L961.218365,4151.598977L973.050790,4149.154028L979.320245,4146.285913L985.769830,4140.596696L990.960077,4133.590956L999.879668,4119.062239L997.495878,4108.436027L992.551864,4102.793780L985.973296,4097.809789L977.996842,4089.299376L969.208565,4085.961033L955.440755,4086.525260L942.016076,4088.970244L935.050234,4091.039075L926.536665,4100.724955L919.322677,4115.300751L916.780261,4128.654019L922.248107,4134.484306L935.516062,4142.383393L947.453498,4146.003803L952.982792,4149.154028L956.529253,4154.184979Z M851.459760,3804.593989L858.459778,3791.944893L868.235201,3766.552533L892.159805,3742.053456L896.996082,3734.952928L887.487444,3730.673796L881.277674,3724.466695L867.405776,3714.920908L858.369237,3709.889376L846.804037,3706.315573L837.462986,3701.519150L835.127278,3693.195931L839.080384,3649.792661L844.202731,3637.096062L849.532160,3627.503052L851.025724,3619.696959L844.785943,3611.937876L835.369606,3616.452253L815.935275,3616.734402L805.113564,3619.838033L798.627680,3623.741081L794.079294,3627.738175L790.499040,3632.769805L786.760034,3639.588360L785.548891,3652.990317L783.699375,3660.420155L778.993678,3663.570778L771.840584,3669.824995L765.602743,3683.885191L761.259582,3698.697721L759.675595,3707.350095L760.258575,3713.369127L770.442861,3740.172523L770.582892,3744.686761L771.682906,3746.661739L774.484970,3749.671227L776.888029,3754.279501L776.820587,3760.768695L777.573892,3764.295427L781.071552,3765.988257L790.976042,3766.552533L795.029500,3770.925673L809.037731,3797.728686L816.233705,3802.101791L835.936313,3808.873042L845.383369,3809.954561L851.459760,3804.593989Z M852.427901,3276.968168L846.269719,3272.077244L846.037328,3261.542930L851.177983,3240.615327L851.938368,3229.187410L849.128518,3219.969813L834.471947,3210.187857L814.223764,3209.529456L792.883298,3215.831296L774.717350,3227.870611L765.260053,3239.251503L759.227674,3251.337794L745.735104,3292.957696L745.594364,3297.190209L748.354627,3302.927612L749.993493,3308.900146L750.202407,3315.531063L748.182069,3323.243607L733.578508,3349.014708L732.068351,3358.796405L757.283254,3368.954302L764.591689,3373.468915L774.396152,3383.109484L778.294280,3388.517599L782.146609,3390.963006L796.654483,3395.947869L800.672701,3396.230031L807.536130,3393.267330L813.156568,3395.007329L851.041322,3421.342379L859.107901,3429.713132L867.495380,3419.931576L879.361462,3414.429442L891.155775,3407.234334L899.221477,3392.467870L901.372097,3375.161895L898.339755,3361.947236L890.211285,3351.648244L877.136996,3342.995192L873.017669,3338.809744L859.596513,3330.062616L856.551268,3328.980980L856.405938,3323.431718L848.252160,3307.066061L882.432875,3297.613460L888.425338,3297.190209L888.398843,3293.145807L887.184806,3288.443010L885.382577,3284.633742L881.689877,3281.859087L883.289764,3276.685999L881.522760,3275.557324L878.684991,3276.121662L874.908303,3277.344392L872.160133,3278.708207L872.167925,3279.507684L852.427901,3276.968168Z M587.661941,2591.730884L587.278622,2585.710677L585.539808,2582.136177L569.610367,2585.052216L553.619487,2597.092628L525.857285,2629.827417L519.142557,2636.223856L503.731602,2646.476964L496.163555,2653.531846L476.875309,2682.221646L473.664899,2689.370565L479.568790,2694.355991L479.648465,2700.235028L482.460238,2702.539610L488.302433,2701.222706L492.539321,2697.695285L502.250965,2685.419847L506.818371,2681.186934L514.383402,2677.095115L520.962655,2675.260851L527.394367,2676.295564L534.345180,2681.186934L537.898293,2682.786035L541.104675,2683.256358L542.870324,2685.137653L541.565433,2697.366059L543.129521,2700.093931L546.637210,2699.811738L551.507677,2696.895736L546.312772,2708.935995L536.068452,2714.297668L523.992389,2718.060243L513.546263,2725.303196L512.696150,2728.877638L531.772683,2724.268488L540.758560,2720.411852L547.663746,2713.074831L550.817578,2713.074831L542.875692,2733.204591L546.183765,2729.630151L549.867032,2727.748867L553.843686,2727.560738L557.666974,2728.877638L559.034296,2727.090417L559.190978,2726.431967L559.544826,2726.149774L561.957963,2725.303196L561.348766,2730.100472L562.090147,2735.932452L561.357274,2740.729722L568.600230,2733.016463L570.408748,2734.709618L570.170456,2740.353466L571.105501,2744.680414L578.565758,2750.324255L582.437911,2750.230190L620.415351,2740.729722L620.522229,2741.999588L622.340476,2744.680414L624.895768,2747.361239L627.173095,2748.631102L631.191607,2747.408271L634.195059,2744.774477L636.237937,2742.046620L637.616733,2740.729722L651.265130,2737.766703L658.710667,2734.709618L664.096564,2727.748867L671.646190,2713.074831L694.601815,2679.587832L696.087430,2669.711024L692.836609,2672.015613L688.066357,2673.990976L682.774694,2674.884592L677.944660,2673.661748L675.534834,2670.181348L674.109547,2659.269814L672.397920,2653.531846L664.020170,2649.298917L661.522956,2640.127564L661.420782,2628.792698L659.860768,2618.069245L656.863811,2609.603351L654.502967,2607.110614L650.453118,2606.216991L648.915661,2604.053483L649.660357,2593.612198L649.315779,2590.037701L643.451428,2584.675953L635.715803,2583.076835L599.502876,2589.473306L589.295949,2595.399446L587.661941,2591.730884Z M525.248783,2603.771287L531.668911,2598.785809L545.449384,2590.037701L552.634537,2588.062320L565.523709,2581.007387L572.491843,2578.561676L564.860779,2568.684758L544.675920,2575.927832L525.146245,2592.389344L519.724603,2610.167744L525.248783,2603.771287Z M617.534774,2551.188479L618.130863,2530.870180L614.802559,2519.911451L609.423148,2513.844167L603.146734,2516.666160L597.013216,2532.845572L599.677934,2545.920775L608.899219,2554.104527L617.534774,2551.188479Z M655.018953,2328.296574L672.824693,2323.640211L676.248503,2320.535968L679.108008,2316.679180L682.640157,2313.104596L697.425006,2305.014742L702.517232,2301.252019L691.631454,2297.959634L684.709911,2298.100737L662.604208,2308.777466L656.773844,2312.540188L649.283092,2319.407152L645.219129,2325.991910L649.722133,2328.860982L655.018953,2328.296574Z M790.193740,2238.226250L809.272222,2213.721386L802.305581,2203.138660L789.094472,2204.408588L777.582463,2213.298077L775.299704,2225.574031L770.849914,2233.522824L771.202728,2238.414387L775.786645,2240.954237L783.816113,2241.706784L790.193740,2238.226250Z M643.594576,2028.875610L638.977102,2027.511603L634.147105,2028.734506L630.625096,2030.709965L627.462803,2031.086243L623.301471,2027.511603L623.847149,2036.213029L623.707005,2040.116911L622.703304,2045.667008L620.045248,2052.910353L616.497969,2056.814232L612.661010,2059.636313L608.516191,2063.822400L604.240853,2072.947126L598.459693,2094.347886L594.761319,2101.261974L593.519837,2106.200606L596.377280,2111.515514L602.630134,2119.041045L602.434303,2124.967399L597.664551,2140.912105L599.306566,2146.321073L610.506526,2162.359830L615.909278,2166.734034L635.311350,2171.954857L651.422715,2165.699276L668.562095,2156.010177L690.659775,2151.024522L697.948918,2152.341488L706.940589,2155.727970L714.219182,2160.149211L720.234732,2169.744238L743.113661,2186.488491L748.761028,2183.854565L753.450260,2186.488491L756.174327,2179.057055L755.253226,2169.979411L755.815230,2162.124657L763.211698,2158.832245L757.770132,2145.991831L747.197850,2141.617623L720.256217,2142.652382L711.916190,2139.642173L708.698067,2132.869202L708.104414,2126.096228L707.168736,2122.991948L698.682425,2120.075805L695.812203,2113.020621L694.557170,2104.084049L691.247295,2095.335613L689.420059,2093.077952L686.671895,2090.538082L683.171263,2088.421524L678.983430,2087.527866L673.720829,2088.844835L664.050279,2094.771197L659.983748,2095.335613L656.950412,2090.067735L656.894845,2080.519705L657.746115,2071.489051L657.685682,2067.397035L653.753829,2062.458394L649.872285,2040.728363L647.455346,2035.789717L646.140843,2034.519779L645.421786,2031.697695L643.594576,2028.875610Z M731.676285,2007.992177L738.453953,2002.300968L740.335936,1993.552498L736.495085,1984.145536L731.170701,1980.617925L724.674603,1980.853099L709.285306,1984.145536L711.991587,1999.525916L714.720029,2006.016717L721.117767,2008.227351L731.676285,2007.992177Z M683.708241,1982.170074L689.175552,1973.515666L694.128101,1953.384754L700.739445,1944.730339L686.869318,1946.188420L680.011140,1950.985976L670.362755,1972.669039L663.082604,1982.640422L665.410886,1988.002390L673.515719,1988.096460L683.708241,1982.170074Z M745.985385,1880.292521L751.346595,1873.331350L752.627230,1864.770990L750.025699,1859.832320L718.585692,1838.619553L711.374603,1827.942615L713.319255,1810.163392L711.395932,1774.040519L707.588700,1754.850240L700.260874,1742.715210L688.608199,1745.866555L683.577393,1748.218305L670.807459,1770.936210L667.602120,1774.322730L659.683561,1778.979194L636.132311,1800.239010L624.309073,1806.212454L601.890587,1806.212454L596.684531,1807.482399L587.951072,1813.220667L572.322302,1817.077535L558.536992,1823.380222L550.322104,1831.046923L555.687214,1837.819959L551.102294,1845.957008L555.422086,1850.942714L563.294935,1854.893650L569.502341,1859.691216L575.866414,1866.934598L590.119045,1878.222984L593.442616,1885.090084L601.665191,1881.327290L608.136597,1882.691303L619.174391,1893.086022L626.037816,1890.828346L632.373052,1892.803812L638.093089,1897.366200L642.700527,1902.869285L648.437098,1905.503241L656.060927,1903.151495L664.254770,1899.341667L671.630738,1897.366200L725.527481,1895.155559L745.985385,1880.292521Z M319.292178,1760.823685L315.614361,1756.214255L312.387070,1750.852265L308.821211,1746.666150L313.783162,1739.328690L313.027411,1733.731524L308.638463,1729.733549L302.761958,1726.911449L316.004428,1706.733432L294.993359,1664.025654L300.019433,1643.706539L249.716879,1619.671666L231.621633,1631.853725L226.163621,1633.170704L223.711767,1636.369083L221.942180,1640.790370L218.345267,1645.493869L216.297969,1652.925397L210.263544,1691.070777L188.186159,1723.101613L183.085140,1736.788799L183.105539,1744.267365L185.913854,1748.923830L189.501213,1753.015875L192.134861,1758.848215L192.386129,1765.056835L191.763637,1770.936210L191.756153,1776.627445L193.883129,1782.506819L199.949137,1779.355474L206.027189,1782.365714L215.400329,1794.359637L242.324980,1777.285935L252.822606,1766.420850L254.970144,1770.701035L258.151462,1768.161145L267.367527,1762.799155L278.572379,1794.077427L279.020248,1804.236985L279.686504,1806.071349L281.975335,1806.494664L283.976183,1807.858678L284.158034,1812.279967L281.572981,1822.580627L281.159002,1825.967146L280.360636,1853.905916L276.149445,1861.290404L267.795191,1896.754746L266.568917,1909.171964L267.900412,1910.018592L270.832187,1911.053360L273.719924,1913.028826L275.247511,1916.697548L274.908657,1919.895921L272.183575,1930.525807L271.023500,1939.086154L271.810158,1945.341792L280.260491,1963.826490L282.160496,1974.832642L282.536315,1986.403207L281.792512,1995.622029L277.533040,1993.928776L274.139997,1991.294827L271.724911,1987.955356L270.563520,1984.145536L267.157167,1984.145536L265.482778,1996.986038L269.728766,2005.170090L275.122886,2011.331646L278.310888,2024.595448L290.960140,2029.863340L293.776572,2035.789717L296.936250,2035.789717L299.761178,2028.311194L302.458991,2028.358228L305.273638,2031.180312L308.080601,2031.838799L321.383972,2020.080112L335.029514,2018.151687L341.621077,2015.470706L348.166434,2008.227351L343.862691,2007.286656L342.351565,2005.969682L341.532662,2003.759047L338.894006,2000.325508L346.117307,1994.446159L357.936606,1986.544312L370.117919,1981.981934L378.724887,1986.262102L383.185818,1986.685416L391.155387,1985.180302L398.357469,1985.274372L400.320796,1990.448200L402.756149,1991.671105L415.495734,1994.163949L419.848203,1995.622029L422.138249,2000.795856L422.634363,2007.380725L425.130291,2012.178272L433.317796,2012.084203L439.821573,2008.697699L441.036691,2004.370499L441.721078,1999.478882L446.142613,1994.022845L452.846873,1987.532042L456.652573,1981.887865L460.644597,1977.795836L467.516738,1976.243686L471.876779,1974.362294L486.790995,1960.863295L484.716004,1954.889869L483.444846,1945.671037L481.095588,1938.521736L475.861100,1938.803945L469.085073,1944.354060L464.289104,1949.857139L460.602440,1957.194577L457.542426,1968.341835L451.252946,1961.945097L454.606377,1951.315220L468.357279,1932.124993L470.383984,1903.574809L466.372942,1890.546136L452.921022,1893.086022L435.448888,1873.331350L428.866749,1862.231103L434.068357,1853.905916L435.011258,1849.625735L433.339884,1848.826141L429.239921,1846.004043L414.406783,1852.212658L408.143948,1848.026546L403.851298,1837.866994L395.134333,1825.967146L389.288357,1822.298418L378.402096,1818.582655L373.520525,1814.443576L370.774157,1809.551938L369.136558,1803.531460L368.381065,1797.040631L368.435504,1790.408698L365.960788,1792.337132L363.979081,1793.513007L362.099777,1795.159232L359.808997,1798.310576L356.729472,1798.310576L354.451657,1796.335107L344.373652,1790.408698L344.713627,1785.846304L350.011499,1779.449544L351.623208,1774.322730L347.175228,1761.764385L343.722961,1755.743905L341.382780,1756.684605L341.879677,1766.844165L341.521474,1772.065050L339.304342,1774.322730L334.489481,1772.488365L328.492150,1764.586485L319.292178,1760.823685Z M269.009927,1546.861575L270.929681,1533.926977L270.856191,1517.182558L280.598636,1499.450413L281.125582,1489.149782L264.450431,1482.470835L229.727511,1477.579213L212.599024,1482.235661L200.425937,1493.806231L195.459183,1509.186629L200.627945,1524.990348L205.897558,1529.411627L219.156234,1533.550698L225.937246,1536.843141L237.517110,1548.507797L243.703525,1552.270590L253.668646,1552.552800L269.009927,1546.861575Z M274.449440,1463.045456L275.975118,1453.027045L265.802910,1446.065897L269.508411,1442.303115L271.086332,1438.493299L269.762793,1435.389005L264.908890,1433.836858L265.734487,1429.885939L273.359077,1427.816410L272.536851,1425.652811L265.610744,1425.558742L255.089931,1429.885939L225.059290,1457.918663L234.780606,1466.431962L239.637610,1468.548528L246.736814,1469.771434L250.777471,1468.924807L252.599007,1468.078180L254.777546,1465.726440L265.699601,1469.489224L274.449440,1463.045456Z M739.348814,1691.070777L755.417172,1682.322267L765.240143,1666.941824L770.918814,1646.763814L774.566862,1623.951849L774.833739,1613.745260L771.677603,1600.528436L771.081662,1592.015109L773.494912,1562.336063L769.597595,1525.131453L769.828972,1517.088488L773.574171,1499.450413L770.546637,1481.153860L771.814677,1471.464687L783.237303,1436.000457L784.090213,1427.251993L782.217119,1424.429908L779.327460,1422.924797L777.021956,1417.656907L776.736071,1411.965705L779.141160,1385.155931L767.836958,1386.143658L755.322172,1432.331746L733.475302,1477.485144L725.941146,1501.425877L722.432112,1524.143720L722.544213,1544.650935L727.699679,1577.057997L723.724212,1621.411960L725.181720,1656.358951L721.990289,1679.641272L722.649175,1687.966467L727.777965,1691.964442L739.348814,1691.070777Z M618.246438,1393.904380L658.146087,1363.190752L663.942415,1355.477075L667.793748,1344.847256L672.366978,1332.900476L680.264859,1319.965977L689.456049,1308.113280L697.848784,1299.317831L712.001198,1286.900734L712.751710,1281.256601L700.325699,1278.904879L655.555346,1287.088871L628.863716,1297.718659L619.982967,1299.317831L608.182254,1303.315762L533.056134,1368.364561L526.173265,1378.335905L527.781406,1384.826688L543.044572,1394.421762L552.967438,1398.278606L605.642210,1398.560814L618.246438,1393.904380Z M318.306429,1098.484089L323.825970,1093.075202L315.278461,1091.381986L304.515617,1080.140918L296.159426,1077.271859L297.270784,1083.480314L305.698226,1097.355277L309.037755,1100.412475L313.313320,1100.835779L318.306429,1098.484089Z M794.936437,1329.608057L798.876018,1312.769696L805.670480,1296.401694L808.825529,1285.489700L807.846080,1277.070537L817.508593,1237.608702L816.903222,1232.528997L811.734175,1223.216209L811.148399,1218.230577L815.250813,1198.099927L815.644281,1191.515141L813.510107,1172.654447L814.217396,1166.728149L817.371973,1154.593357L818.363894,1148.667066L818.727026,1116.451014L820.586389,1103.093403L820.702443,1095.332824L819.082491,1083.903617L815.682854,1073.744330L810.320026,1069.699431L805.213335,1072.615521L800.125814,1078.729905L796.915208,1085.737934L797.212752,1091.240885L799.786982,1096.461635L799.361221,1099.612900L797.419320,1102.528997L795.649934,1107.044244L789.821370,1196.359662L791.961122,1209.482207L779.496774,1271.379373L771.959012,1291.416041L772.173310,1318.837149L769.921565,1333.276752L764.210529,1346.728640L776.995879,1343.953599L782.422051,1343.953599L788.381494,1346.728640L794.936437,1329.608057Z M126.180588,1211.081371L121.374484,1206.377948L128.845113,1134.839066L127.935535,1130.747109L125.195989,1127.783968L123.365426,1123.974217L125.402336,1117.062454L128.907314,1088.277757L129.240377,1061.468535L125.673851,1033.248358L125.964099,1019.843794L132.027224,1014.105704L114.839041,996.844414L105.739626,991.200400L103.908357,984.568687L102.235166,970.364602L93.716179,953.667765L91.951347,952.585998L92.727041,946.471669L92.650621,939.228544L91.160722,933.114220L87.464517,930.527391L86.570079,927.282098L84.595087,911.949273L83.445010,907.245955L78.694555,901.790109L75.977379,903.718468L72.020615,908.233652L55.034103,913.736534L51.915813,920.509314L50.138104,934.807417L30.261494,966.413799L31.831889,974.832772L29.656764,988.519494L25.116891,1002.488430L19.645930,1011.942162L17.143678,1021.348867L17.765421,1065.419365L20.055162,1075.061274L27.345521,1093.075202L27.577508,1103.093403L26.166525,1113.911185L26.679563,1124.961930L30.309035,1133.569148L38.380057,1136.814494L31.659466,1146.362399L29.707699,1154.264118L30.464048,1176.323109L27.681750,1200.357568L28.345034,1211.739850L36.535786,1231.212037L36.540431,1244.569782L31.539569,1271.379373L27.110219,1283.420185L15.549772,1306.984452L9.447050,1323.916878L2.335412,1335.722550L0.120332,1340.896352L0.663447,1346.446432L5.852921,1357.170321L5.961613,1364.413652L6.979882,1369.634496L17.304038,1384.309307L19.524193,1388.871669L21.463668,1406.274505L28.476562,1426.311298L34.047803,1434.683483L49.648224,1443.431950L52.396507,1455.849132L49.219791,1470.241782L40.603814,1481.153860L47.357113,1491.266350L56.933367,1497.710124L68.037289,1498.838960L79.375272,1493.382918L84.098374,1488.115015L86.932133,1483.035253L90.445721,1478.237701L97.639145,1473.722358L107.912511,1476.074099L112.160058,1475.415612L108.412367,1469.771434L123.402788,1457.260176L143.920532,1451.710071L165.675060,1451.051584L184.335454,1453.591462L188.636307,1455.425819L196.088747,1460.458542L201.912892,1461.493307L207.682667,1461.022959L212.653482,1459.658950L217.389077,1457.260176L222.513880,1453.591462L247.036149,1427.910479L257.034040,1420.573060L264.875896,1417.656907L283.781858,1417.656907L289.218126,1418.785740L292.442279,1420.667129L295.332728,1420.996373L299.646426,1417.656907L302.702137,1412.859365L305.380069,1406.321540L305.659186,1400.442202L301.852570,1397.996398L292.203567,1386.284763L285.924676,1359.475017L283.025197,1330.125437L283.509918,1310.794247L286.963216,1310.794247L288.996780,1318.696045L292.788902,1315.450663L296.952430,1305.996728L300.363017,1294.990660L298.152898,1282.103220L296.957494,1278.904879L294.081341,1276.082814L286.655144,1272.790405L284.682297,1271.379373L281.228526,1262.725045L283.358596,1260.749601L288.015831,1258.680088L292.321449,1249.461354L292.671307,1202.991484L297.237653,1192.408790L288.691422,1188.504954L282.067184,1190.151149L267.867186,1199.981295L268.383026,1188.881227L265.460891,1160.519650L267.401601,1140.812384L265.363624,1133.945420L257.190031,1132.863638L264.548737,1125.479304L267.707413,1119.553026L271.110789,1095.473926L273.639865,1088.136656L278.931028,1083.245145L288.440119,1081.551930L289.290103,1077.271859L252.066349,1073.321027L244.564295,1076.096016L234.278967,1082.116335L226.903886,1090.253176L227.812890,1099.330697L227.361024,1106.762041L211.669534,1170.537912L208.569814,1178.580747L203.845047,1183.660435L198.515356,1187.658339L193.444623,1192.408790L184.692472,1203.979203L180.571950,1208.494488L175.112071,1209.058899L162.222538,1208.541523L139.117617,1211.363576L126.180588,1211.081371Z M600.086627,623.262304L595.236207,621.663205L589.840067,623.450433L580.635053,631.116703L575.742633,633.515353L567.132018,633.985677L562.877282,632.950965L559.114112,633.703482L544.986797,644.803122L539.400916,648.048356L535.046570,653.080823L531.865141,663.522020L529.024430,695.221912L521.783645,706.603787L518.334867,713.564607L519.956458,716.762822L523.337209,718.267865L527.863448,721.560147L533.530510,724.476168L540.710716,725.040560L548.176058,722.124538L581.536173,725.322755L587.200083,724.758364L593.354644,721.372017L601.976451,713.188346L619.588721,688.684392L623.131848,685.156954L625.589067,680.171510L634.617450,649.694490L631.789685,644.097635L628.004609,640.099884L600.086627,623.262304Z M657.115799,451.642190L652.907714,448.255896L648.425274,446.844940L644.816310,443.787869L643.045292,435.557296L647.259581,432.970545L655.228884,423.705278L649.854743,418.766939L640.839160,388.149266L633.799283,376.814625L627.527975,371.782235L619.839954,371.923330L596.035791,382.505461L585.489344,389.889439L576.861646,399.436882L570.683553,411.853267L567.082806,427.326727L567.900127,439.272811L576.231344,459.543547L584.612166,467.868194L588.654248,473.982344L589.202464,481.413390L587.355463,493.406541L590.296691,508.033492L601.111186,506.998787L609.887457,496.792843L606.498553,483.247636L610.392150,479.720240L610.839695,477.933026L609.362609,476.992387L607.930931,475.346269L621.019152,474.264535L632.297784,471.348555L642.344482,466.363172L651.857339,459.543547L654.801532,458.979164L658.381136,459.684643L661.444919,459.825738L663.294750,457.568207L663.494048,452.817987L662.054921,452.347668L659.588093,453.006115L657.115799,451.642190Z M731.160420,354.333489L740.208103,351.182370L745.018533,348.689693L748.133810,341.823077L749.703864,332.510820L748.780899,324.233263L744.790633,320.705895L734.814579,323.527789L726.519952,330.347368L703.159494,357.954926L702.987739,363.316534L707.389028,362.893249L712.136497,356.591008L720.689274,356.685071L731.160420,354.333489Z M569.324030,265.067632L566.848984,257.542604L578.517878,254.908845L579.790722,247.383820L572.368700,241.975210L558.558612,245.784752L550.932551,254.062280L549.510989,263.374501L552.001613,272.686727L555.775418,281.246453L566.900697,282.657397L576.394641,282.328177L583.466831,276.543306L587.215421,261.493244L580.203020,266.243419L574.022154,267.654362L569.324030,265.067632Z M251.226565,207.219043L245.259124,198.094971L236.691116,202.609975L239.951918,225.467200L251.226565,207.219043Z M237.779135,113.720988L245.370039,105.678667L247.720077,95.472920L242.678693,87.759823L232.722532,86.913264L221.395805,91.240122L212.240612,99.047283L213.168730,104.267734L214.477899,108.453503L216.615179,111.886774L219.881029,115.225984L228.268924,117.530509L237.779135,113.720988Z M201.194188,0.000000L200.625536,6.866514L202.396236,10.581956L204.637870,13.450843L205.151169,17.777689L203.617395,23.985774L197.983705,39.882240L195.526056,52.298422L195.642082,60.669942L199.111373,66.501789L206.448516,71.393016L209.521592,69.793961L211.719425,68.006782L213.387636,65.937416L214.773518,63.585865L215.650126,59.117918L215.973055,55.731685L216.995187,53.333104L220.232491,51.734049L218.315067,46.466578L218.335172,42.421913L219.924909,38.847558L222.951112,35.555390L223.550764,31.981037L222.144496,27.089817L222.230499,14.015214L220.556740,7.995256L217.507822,5.267462L201.194188,0.000000Z "/></g></svg>