<?xml version="1.0" encoding="utf-8"?><!DOCTYPE svg  PUBLIC '-//W3C//DTD SVG 1.1//EN'  'http://www.w3.org/Graphics/SVG/1.1/DTD/svg11.dtd'><svg enable_background="new 0 0 1000 685" height="685px" pretty_print="False" style="stroke-linejoin: round; stroke:#000; fill: none;" version="1.1" viewBox="0 0 1000 685" width="1000px" xmlns="http://www.w3.org/2000/svg" xmlns:xlink="http://www.w3.org/1999/xlink"><defs><style type="text/css"><![CDATA[path { fill-rule: evenodd; }]]></style></defs><metadata><views><view h="685.640998155" padding="0" w="1000"><proj flip="auto" id="robinson" lon0="-178.143311997"/><bbox h="18.62" w="27.2" x="-2615.6" y="221.49"/></view></views></metadata><g class="" fill="black" id="country"><path d="M84.388262,683.640998L83.545448,679.432670L55.994565,664.903925L48.736923,662.599367L46.321964,658.741737L23.558313,636.948651L2.959913,630.185285L0.730310,639.804296L9.924864,657.539359L23.423148,674.823549L29.263457,677.929696L43.450523,680.234256L50.930019,683.640998L55.244319,681.536834L84.388262,683.640998Z M974.659149,0.000000L967.982418,7.715016L962.441372,17.834716L961.240032,29.607640L967.529651,42.482716L959.892983,50.297940L964.273103,60.217267L972.035446,70.737769L974.350709,80.256323L980.329971,84.664917L988.154413,87.019508L994.524293,85.466480L996.075346,78.152221L990.110399,62.521758L990.755744,56.610239L999.269690,55.007115L997.188684,50.648624L996.034592,48.995403L993.753405,46.690913L996.864238,33.966128L992.368088,23.846421L983.781130,13.426134L974.659149,0.000000Z "/></g></svg>