<?xml version="1.0" encoding="utf-8"?><!DOCTYPE svg  PUBLIC '-//W3C//DTD SVG 1.1//EN'  'http://www.w3.org/Graphics/SVG/1.1/DTD/svg11.dtd'><svg enable_background="new 0 0 1000 464" height="464px" pretty_print="False" style="stroke-linejoin: round; stroke:#000; fill: none;" version="1.1" viewBox="0 0 1000 464" width="1000px" xmlns="http://www.w3.org/2000/svg" xmlns:xlink="http://www.w3.org/1999/xlink"><defs><style type="text/css"><![CDATA[path { fill-rule: evenodd; }]]></style></defs><metadata><views><view h="464.35393453" padding="0" w="1000"><proj flip="auto" id="robinson" lon0="-172.431143512"/><bbox h="9.89" w="21.35" x="-2538.57" y="225.75"/></view></views></metadata><g class="" fill="#000" id="country"><path d="M981.615222,462.353935L998.920911,461.588653L994.257798,453.425642L991.699803,450.364513L994.281590,425.747955L967.174810,396.986152L929.166139,377.662831L899.100782,381.297910L893.521837,372.497193L895.467217,367.204010L899.167660,362.484787L898.800828,354.513129L889.156462,340.036605L875.222183,329.960439L859.158202,323.901987L828.735624,320.075597L723.274644,277.156292L692.967167,270.013711L661.337591,268.419385L604.903998,278.750619L554.818391,300.561016L549.147198,312.741684L546.984388,330.853264L551.887873,347.434299L567.198320,354.513129L583.116937,356.617647L592.194676,362.165921L607.749717,381.297910L612.440821,381.297910L618.565467,378.810751L627.511943,388.121656L646.610866,413.439685L658.048445,421.857775L669.465626,426.003048L681.639447,426.449462L707.940188,422.431736L719.188746,423.452111L730.773170,427.597384L744.341489,434.867558L758.766214,438.375098L766.122989,441.563772L770.259431,448.259988L773.060519,454.828659L778.010192,459.165258L784.421836,461.333558L791.533624,461.588653L819.034291,451.512437L829.874507,450.364513L852.697375,456.359224L864.232852,457.124505L874.155894,450.364513L889.852250,458.399976L903.561859,459.739220L932.006088,456.741864L981.615222,462.353935Z M278.903065,0.000000L263.644387,3.252394L236.600501,14.157480L223.038372,16.580834L168.948390,16.580834L161.536187,19.641912L144.918085,30.228143L136.665768,32.651497L121.743115,34.182037L114.362173,36.477847L99.924951,46.426358L85.108517,48.849714L61.670274,48.084444L34.173001,37.370662L10.704948,37.370662L1.079089,45.023363L8.360173,62.114403L22.122884,80.098269L31.859431,90.493204L35.706361,91.832429L44.623382,90.939612L48.974484,93.362972L51.499077,97.571966L53.776891,105.798637L56.635630,109.688768L69.085186,120.530123L77.110132,126.397211L96.271937,134.049936L107.343713,146.039210L126.782689,171.675865L134.830718,176.267508L144.920067,180.412741L154.136235,186.343615L159.304727,195.781997L162.531615,205.284155L171.871331,220.972289L174.624002,228.178629L178.184747,235.066108L184.390388,239.785307L196.794510,246.609016L203.388355,252.667449L212.361213,263.126224L220.016150,268.419385L323.717284,255.601008L355.615534,241.698497L369.731654,240.550583L377.243175,244.632053L384.280764,252.348584L396.997366,262.679812L404.938091,266.506194L412.434010,268.228066L428.751528,268.419385L432.304219,264.975642L431.227120,256.876468L425.871493,238.892485L425.163692,220.780970L429.514008,209.493165L435.635438,199.927233L440.302683,187.746617L440.537782,170.400409L434.794260,160.515626L427.041380,151.396121L421.127075,136.409527L417.315242,118.361852L414.474295,109.943859L410.596414,101.653414L406.969800,97.827056L397.895998,94.000698L393.657177,90.493204L392.475150,87.049482L392.045212,78.185091L390.831265,74.868917L342.041101,24.105985L325.723088,10.713768L309.537726,3.188621L293.845745,0.127545L278.903065,0.000000Z "/></g></svg>