<?xml version="1.0" encoding="utf-8"?><!DOCTYPE svg  PUBLIC '-//W3C//DTD SVG 1.1//EN'  'http://www.w3.org/Graphics/SVG/1.1/DTD/svg11.dtd'><svg enable_background="new 0 0 1000 647" height="647px" pretty_print="False" style="stroke-linejoin: round; stroke:#000; fill: none;" version="1.1" viewBox="0 0 1000 647" width="1000px" xmlns="http://www.w3.org/2000/svg" xmlns:xlink="http://www.w3.org/1999/xlink"><defs><style type="text/css"><![CDATA[path { fill-rule: evenodd; }]]></style></defs><metadata><views><view h="647.486964677" padding="0" w="1000"><proj flip="auto" id="robinson" lon0="47.4850176746"/><bbox h="115.44" w="178.57" x="623.64" y="-318.53"/></view></views></metadata><g class="" fill="#000" id="country"><path d="M900.112879,645.486965L899.914292,644.835257L899.061371,644.509110L898.116307,643.996786L896.561583,643.856689L894.971352,644.562612L896.214287,645.165772L897.405481,645.263310L900.112879,645.486965Z M877.441902,639.027975L876.532595,639.092205L875.694771,639.473931L874.610958,639.345864L873.379304,639.790715L873.138244,640.678652L874.929839,641.248992L876.658246,642.833765L879.163698,643.911109L880.408310,643.720611L881.586950,643.339810L881.579392,642.007452L881.163306,640.484839L879.919656,639.533590L878.661132,639.535481L877.441902,639.027975Z M806.561029,635.876654L803.907857,633.911993L801.463790,633.288393L799.459667,633.267965L798.208204,633.458285L797.022646,633.858027L797.442744,635.120536L800.252442,636.526043L800.594988,636.827435L801.153878,637.311950L802.079837,636.998501L803.132791,636.758264L804.840469,637.537039L805.277053,637.426402L805.479816,637.884211L806.476652,639.402613L806.827161,639.730709L807.709625,639.562846L809.415586,638.975324L809.939120,639.002029L810.455958,639.028735L811.400532,640.439016L811.865818,641.227137L815.533651,641.451309L819.347369,642.229585L820.750012,641.750400L821.732154,641.510609L824.098071,641.978101L823.238711,640.400745L822.569573,639.850005L823.371823,638.820532L824.438100,638.372542L823.971397,637.441662L823.964701,637.441662L822.731044,637.128826L818.236076,638.284376L815.696794,637.107564L812.145106,636.961709L809.711223,636.496297L808.368437,636.579905L806.561029,635.876654Z M86.650879,594.712643L86.186805,593.697825L86.039544,593.377356L84.923015,592.763124L83.072209,592.831796L82.358257,593.041626L81.760149,593.461288L82.026288,594.705012L82.614404,595.006406L83.560383,594.743163L84.058802,595.300169L85.069638,596.429439L85.648355,596.665976L86.579863,596.055559L86.650879,594.712643Z M918.996157,589.950466L914.437315,588.958605L912.879797,589.172956L912.145828,590.152178L911.335092,591.566600L910.626955,592.983424L907.198048,593.549160L905.792231,593.854281L904.609884,594.385711L905.478031,599.863032L905.233675,600.843513L904.623506,602.525972L904.525346,603.357663L904.140294,603.681947L902.428810,604.845093L900.753111,605.061097L898.511702,604.341959L897.821621,604.986710L898.083184,605.524639L900.203046,607.600052L909.028296,613.560674L912.568322,616.072133L914.769333,616.901249L916.021447,619.037699L917.466737,620.891832L918.875565,622.709093L920.625586,624.562633L924.475184,625.679104L929.048285,627.213425L933.867183,627.769257L937.563113,627.342187L947.336564,625.191382L950.825869,624.549234L953.317753,623.882860L954.632082,624.325410L954.652165,624.325410L956.522024,625.008654L958.297065,623.273752L959.645763,622.842342L961.029538,623.068718L964.837669,622.762779L967.299602,622.994022L968.448935,622.200407L970.717349,620.071588L972.792322,619.014808L973.508553,618.488326L974.924785,616.069559L975.580972,615.287465L978.590795,613.998099L982.296745,614.357603L985.549762,612.846951L988.282980,612.129165L991.681176,610.488669L991.715271,608.010729L992.561783,607.253261L994.116345,606.935908L995.852455,606.292861L998.271804,605.545173L999.226589,604.345774L998.085546,603.691746L997.196260,603.577346L995.676643,604.657474L993.532390,604.971410L989.374517,602.115275L987.605346,601.517456L984.155226,599.428045L980.769532,598.649352L977.848506,597.219066L976.544067,596.668631L975.702215,595.223867L973.812990,594.800390L972.284192,594.743163L971.577447,593.896210L970.685515,592.835611L970.259289,592.610612L969.304036,593.262814L968.040611,593.586218L966.219508,592.379925L964.995042,591.394937L963.875780,590.199372L961.718617,590.409203L960.887585,591.597986L958.995216,593.007881L957.938264,593.439878L954.994317,595.391168L952.146657,595.274508L949.425725,595.702259L947.925461,594.930686L946.348540,594.707904L944.123620,595.245872L943.452889,597.529923L941.901504,599.810929L938.727889,598.930410L934.956524,597.832754L929.049214,593.137689L925.651265,589.858015L923.622271,590.088095L921.681749,590.305534L918.996157,589.950466Z M20.030252,499.936792L24.470952,497.628599L25.266092,496.739658L25.783039,494.732863L28.141706,491.787527L28.313297,489.986751L27.254422,489.048210L25.576832,489.776915L22.214526,492.546753L20.287601,496.617571L19.740477,498.555691L19.740822,498.563322L19.791467,498.796048L20.023740,499.940607L20.030252,499.936792Z M27.114053,475.286729L26.878304,473.665258L26.878126,473.661443L26.861707,470.727533L27.808923,467.263302L27.774556,466.244635L27.218398,464.928378L24.755413,461.708316L24.184266,462.349276L22.868133,462.776583L21.046360,464.104287L19.467139,465.763915L18.798359,467.179367L19.491231,469.140397L19.630357,469.544812L20.645079,470.529141L21.421942,471.284557L23.536084,472.490169L25.294296,473.226507L25.294473,473.230323L24.306824,475.847567L26.581976,475.916241L27.114053,475.286729Z M3.327819,337.931516L3.563024,337.458402L4.695569,336.802147L5.409130,336.168785L5.698661,335.588839L5.635297,335.146248L5.273790,334.993631L5.501856,334.386976L7.522476,332.872247L7.072484,332.055743L6.470297,331.765769L4.724653,332.803569L4.399823,333.471271L4.108086,334.261067L3.353742,335.005077L2.369450,336.195493L1.466953,337.801791L1.493663,342.632128L0.773411,344.929015L0.870412,347.042760L1.906590,348.622345L2.849613,349.438845L3.986757,349.499892L4.895983,348.515513L6.406524,345.764593L6.470565,345.203725L5.999310,345.375420L5.910289,345.203725L6.288324,344.780213L6.430056,344.047651L6.222332,343.265489L6.383279,342.010213L7.167930,338.412261L7.114314,337.267630L6.313648,337.134090L5.294881,337.797976L4.238604,338.129919L3.327819,337.931516Z M749.375967,0.000000L736.657968,1.993633L723.755698,4.013917L710.852602,6.036629L697.948313,8.056923L685.043015,10.077223L672.145311,12.099950L659.246417,14.120260L646.325093,16.135729L633.428926,18.163316L620.518574,20.183641L607.606857,22.199125L594.694837,24.224304L581.781450,26.244643L568.875478,28.264986L555.960067,30.285335L543.043643,32.305688L530.126208,34.326045L519.721069,35.958808L512.356179,38.994203L508.868929,41.041223L497.610009,47.620789L484.168706,55.467393L469.151410,64.244326L455.683171,72.103174L445.632047,77.977968L443.894735,79.385500L438.164287,88.106913L431.448130,98.262596L419.747875,116.020708L408.685119,132.761517L401.468131,143.673428L400.280295,146.575854L397.190359,158.272825L392.812355,174.839624L390.640962,178.383052L390.567540,178.502847L381.637937,184.496786L372.026051,190.965605L369.678535,192.041320L367.043176,192.453193L356.237769,191.940800L355.087671,191.886262L354.005939,191.159427L346.415723,180.591275L339.769439,171.316927L333.967423,163.224922L330.810227,161.291567L312.828962,164.048657L299.454925,166.103152L279.479418,163.859683L263.911669,162.110457L243.458327,159.818537L226.016833,157.856113L222.198518,156.499377L208.378128,147.976191L203.677409,146.944108L189.941049,146.837508L187.908288,146.822071L177.818414,146.745445L161.261017,146.624308L159.506209,147.055554L154.517399,149.187557L152.225683,149.337766L146.539812,148.063409L141.540441,147.850209L133.689205,148.766001L127.514026,150.369850L125.967427,150.486142L122.454494,149.386221L120.776689,149.153639L119.631763,150.103350L118.579383,152.424330L117.441412,154.110555L115.928084,154.910059L113.783411,154.570876L110.537313,152.792586L109.133564,152.622994L107.431742,153.655080L106.289223,155.273470L105.353808,157.105063L104.163338,158.495718L102.256946,158.810675L101.275772,158.578091L100.772751,158.292207L100.475058,157.841577L100.104173,157.090526L100.201624,155.225015L100.138984,154.197774L99.638332,153.950654L97.759747,154.580567L96.336981,154.653249L93.083104,154.333447L90.049330,154.716240L88.566357,154.701704L86.893690,154.066946L83.336759,151.120898L77.209335,144.090136L73.601373,141.827313L67.407559,138.968505L66.059062,138.590561L63.274072,138.469425L61.764905,138.086636L59.978905,138.357980L58.238894,139.109022L51.354407,144.070755L44.642310,150.805942L41.034631,156.121430L40.828231,156.552678L45.600144,158.248598L47.285838,159.600490L48.250905,161.611370L48.072070,163.491424L46.298927,164.489598L44.460073,164.954767L42.358232,165.967478L40.753095,167.450204L40.364985,169.301191L40.569895,171.467138L40.218480,173.371429L38.723819,177.083105L38.357374,179.026165L38.776346,180.537974L39.510740,182.098239L40.097724,184.167288L40.210013,186.212111L39.961167,188.009813L38.856123,191.629447L38.443847,193.960164L38.858292,195.549512L40.796867,199.207921L41.986313,202.633747L42.978587,203.486570L46.067270,204.416923L46.950782,205.143761L47.563929,206.161334L47.744924,207.377578L47.455850,208.361233L46.867676,208.855484L46.136605,209.218903L45.435429,209.805220L44.374023,211.753150L44.626591,213.042080L45.453664,214.471532L46.064284,216.664287L46.105402,216.811959L45.708206,218.561223L44.330165,218.851959L40.981736,217.747161L38.911468,217.325593L37.891554,217.814999L37.560406,219.103931L37.565152,221.085785L37.337908,222.859279L35.577129,228.984138L34.646466,230.592884L32.963206,232.056262L29.520112,234.391853L28.346493,234.866725L25.204038,235.516038L24.356825,235.932762L24.113878,237.158706L24.414960,238.583321L24.594368,240.100003L23.977900,241.602148L21.963998,243.220590L19.165148,244.572521L15.337839,246.098442L15.449402,246.314698L16.169308,247.268563L16.436882,247.760758L16.567826,248.310184L16.600997,248.779486L16.576552,249.054199L16.506074,248.985521L17.094564,250.916145L17.231049,251.564773L17.943169,258.539442L20.917846,271.710435L21.415473,275.987574L21.431491,288.818992L21.182577,290.959469L20.426620,292.607750L19.008782,293.977503L17.565155,295.000047L16.188926,296.282043L15.194951,298.098204L14.911333,300.723243L14.964956,302.199827L14.926147,303.203294L14.637180,304.019802L14.009000,304.973667L13.047877,305.935163L12.116419,306.583792L11.339419,307.377407L10.817184,308.815835L12.634376,309.506433L12.909734,310.902891L12.228948,314.229969L12.532229,315.779043L13.142130,317.080113L13.941356,318.182779L14.771558,319.117565L13.855313,320.433895L13.723007,321.200801L17.327192,326.260085L18.625853,328.606583L19.019391,329.735954L19.256872,330.815724L19.375488,331.918387L19.331181,333.093542L19.196062,334.066479L19.210039,335.085201L19.613185,336.401527L21.073487,339.045623L22.028934,342.365048L22.585986,349.541861L22.203141,351.659419L21.051443,353.109277L21.361676,353.429772L21.619934,353.776974L21.752330,354.269163L21.711647,355.024615L20.622747,354.482826L20.310558,353.868544L20.439330,352.117269L20.202116,350.896335L19.766981,350.228637L16.281032,347.092361L14.988346,346.226259L13.378900,345.425020L14.024151,344.501687L14.541640,343.051825L14.667153,341.506576L14.177039,340.304715L13.563506,341.319620L11.661294,345.741700L11.921518,346.890143L12.834599,348.278957L12.966280,349.267151L12.773054,350.549132L12.324291,351.537325L11.463821,352.178315L10.074900,352.407240L7.310076,351.705204L6.394891,351.808220L7.002858,353.109277L7.217748,355.192493L8.913043,356.752996L10.814624,357.531340L11.701588,357.268076L12.055838,355.352740L13.202026,354.559134L14.829722,354.559134L16.668422,355.024615L18.452732,355.726651L20.304710,356.703396L22.021032,357.893804L24.780689,360.419603L27.730734,361.858010L28.912049,363.410878L29.396696,365.040054L29.257465,370.099266L29.591869,372.319821L30.252525,373.880314L31.208907,375.093243L33.412104,377.329053L34.163552,378.321049L34.643273,379.480921L35.162138,382.586629L36.207260,385.944146L36.370850,387.851823L36.008507,390.976596L35.983508,392.331044L34.365780,391.224594L32.951541,389.522948L31.860304,387.611456L31.184769,385.871654L31.118541,384.830061L31.334534,384.089881L31.442865,383.464162L31.025193,382.731613L30.376369,382.571367L30.288235,383.593884L30.554697,385.554979L31.621102,388.950645L35.809803,394.444745L36.870128,397.741199L37.002353,398.778971L37.783437,401.976220L38.215474,402.605749L38.638721,403.059773L38.856354,403.540505L39.119757,403.868623L39.695770,404.173849L40.280172,404.646949L40.690960,405.787732L40.905909,405.947975L41.126381,406.218863L41.248585,406.794977L41.095918,407.348199L40.382557,408.305844L40.235914,408.981156L41.267903,412.014333L43.010983,414.852925L44.073159,417.970031L43.061724,421.834932L43.611926,422.975706L43.834384,424.242384L43.927641,426.962689L42.607255,425.772317L41.415381,421.487740L40.462395,419.625873L39.590168,418.862812L38.967607,418.694939L38.596211,419.152775L38.497468,420.266844L38.857786,420.804801L40.420002,422.021882L40.906231,422.540762L41.161494,423.387758L41.601907,426.378949L42.769404,429.087805L43.311860,431.995053L44.064542,433.875987L46.825921,442.581617L48.560955,447.330059L49.507012,450.152891L50.361146,453.488277L51.621944,460.542233L53.612841,463.492399L55.547337,467.725183L57.632194,472.728201L63.318981,479.155363L63.839887,480.006157L65.046634,487.697627L65.453871,488.697211L68.434231,494.469614L68.948492,497.800282L68.972774,504.312816L70.190553,507.269586L69.337049,507.757930L69.016155,508.345468L68.901169,509.051277L68.625265,509.894432L67.079187,512.805415L67.338351,529.458633L66.763674,532.629031L65.803376,535.559072L67.949884,542.231773L73.180589,549.114295L73.554691,549.869693L74.441410,552.257971L75.541028,554.470752L75.693097,555.199443L76.202517,556.302017L79.266016,560.002697L80.093121,561.494414L80.699459,563.142550L81.096722,564.908955L81.289919,566.755477L81.581984,567.480351L82.190074,568.086956L82.804543,568.842350L83.115541,570.009778L83.477874,570.971190L86.077387,573.557842L87.871383,576.556527L88.731900,579.795561L88.825466,583.419920L87.583025,590.928057L88.095316,591.813162L89.975337,592.122186L91.691761,591.881834L92.800997,591.206560L93.209053,590.725857L97.672014,585.487711L98.709691,585.026082L99.460199,585.209208L100.282092,585.655576L101.576723,586.678026L102.369261,587.063352L105.277333,586.998495L106.952887,587.692845L110.192401,589.764449L111.335025,590.199372L113.175360,590.359606L114.913085,590.783083L116.484745,591.393500L117.840581,592.122186L120.227646,593.816093L121.607502,594.479921L123.311736,594.743163L124.545343,595.429882L126.136615,598.726131L127.763911,599.863032L129.002620,599.718058L131.442702,598.543006L133.564066,599.332733L134.926923,599.275506L137.253355,598.581157L141.979606,595.613007L144.572933,594.434140L146.740943,594.743163L147.653360,594.010663L148.248299,594.781314L148.334322,596.017408L147.665876,596.665976L146.523813,596.562968L144.490977,596.128046L143.368999,596.025038L144.361585,597.337434L146.008307,597.978371L147.818065,597.886809L150.812076,596.055559L152.356687,596.025038L154.011748,596.231054L155.829964,596.025038L161.035442,593.178970L163.403093,592.522772L165.301256,591.687264L165.700987,591.801717L166.064577,593.102668L166.697015,592.557108L167.250196,591.412576L167.402399,590.905167L171.844498,585.289325L176.015609,581.180448L178.419614,579.841343L181.498292,579.093580L184.937395,579.246184L188.389031,580.604366L189.519804,581.523808L190.592260,582.794241L191.169685,584.068489L190.829944,585.026082L191.006628,585.396148L191.344837,585.941709L191.450224,586.365187L194.405409,584.156237L196.044098,583.526743L198.074349,583.744205L199.151547,584.202018L199.359740,584.526303L199.371846,584.957410L199.893735,585.724248L200.638347,586.227843L203.046797,587.292258L204.126582,587.502089L205.490343,586.857336L206.634676,585.785290L207.097243,584.732319L207.208797,583.610676L206.813040,583.282576L204.264379,582.992627L203.775568,583.137602L203.179795,583.744205L202.716507,581.413170L203.021981,580.596735L204.075473,579.902384L205.246748,581.283456L206.752240,580.978247L208.042874,579.742149L208.554886,578.300035L208.898363,577.743028L209.748704,577.453079L211.590651,577.346256L212.096832,577.445449L212.885613,577.884188L213.304647,577.979566L213.557180,577.788810L214.091142,576.697686L214.161325,576.468779L214.075042,576.030040L214.123576,575.614192L214.596869,575.423436L215.125147,575.568411L215.140491,575.915587L215.038769,576.339065L215.215183,576.697686L215.339078,577.079198L216.678899,578.937160L217.001576,578.971496L216.470449,580.585290L215.046454,580.764601L213.366650,580.604366L212.040367,581.180448L211.968319,582.588225L213.280113,583.816692L215.218881,584.694168L217.006630,585.026082L218.568911,584.488152L218.790191,583.126156L218.181264,579.322487L218.313844,578.383968L220.000605,572.806263L220.129246,572.539205L220.269069,570.868181L220.738273,569.235308L220.778642,569.090334L221.205434,568.159443L221.583768,567.343006L222.637064,565.763544L225.459473,562.913642L228.617244,560.987001L242.557789,557.141347L245.591481,555.600032L248.026153,552.956142L251.664651,547.405111L252.547810,543.925698L253.664131,542.609472L255.831282,540.736234L263.315520,531.713393L266.008783,530.111026L277.190255,527.295436L278.139843,526.589631L279.636393,526.421764L283.094988,526.597261L284.292618,526.330200L286.922188,525.097901L288.335707,524.731645L302.330610,524.033470L309.350210,522.751573L311.499717,521.980909L311.863541,521.759630L312.321167,521.263657L313.430044,521.660435L315.267581,522.751573L318.869164,523.400152L335.881623,523.449749L337.522376,523.087308L340.996988,521.378113L342.715886,520.836358L344.648548,520.843989L347.625824,521.851194L349.276871,522.118255L350.646886,521.828303L360.586831,517.517158L367.525905,512.175911L388.228428,507.269586L406.909032,500.776134L409.907959,498.601473L419.907308,488.185973L426.193188,480.303744L427.896462,478.991309L440.270505,474.184129L443.899233,472.009450L447.775657,466.408690L448.866220,465.546446L450.282190,465.283195L454.560649,463.806698L455.769790,463.043650L463.190762,465.035205L465.519515,466.244635L466.043927,465.546446L467.317933,466.519331L469.203157,467.553260L470.597395,469.033570L470.316049,471.307448L479.635661,468.236187L483.039633,468.167513L482.617055,467.251857L482.357147,466.885594L488.688535,466.835996L491.598986,467.415912L493.210042,469.449431L493.893080,468.720721L494.539187,468.556666L495.218284,468.510884L495.988509,468.167513L499.467849,464.615528L500.809855,464.096656L510.402930,464.325570L511.050239,464.436212L511.578826,464.325570L512.057739,464.035612L512.989521,463.219151L513.454488,463.043650L514.943045,462.021166L519.448670,455.245289L522.461612,453.764971L523.823253,452.757745L524.537461,450.163371L525.071020,449.533853L525.624763,449.030239L525.857853,448.526625L525.762859,446.416785L525.879006,445.607949L526.223463,444.944093L527.537447,444.177225L529.002938,443.860558L530.127716,443.055537L530.485501,440.812158L531.181435,440.228422L534.463630,438.702313L535.417971,437.962150L535.578392,437.359336L535.724324,436.252906L535.618298,435.180813L534.957239,434.700087L535.535987,430.804684L536.841311,427.500645L540.568753,420.961228L541.712816,419.694548L543.359432,418.698754L545.276201,418.469836L546.926668,419.084100L548.210099,419.820453L549.040202,419.976881L549.552077,416.978052L552.581907,414.475209L559.265480,410.957490L562.345534,408.424119L563.960870,407.485550L567.647824,406.817869L571.056434,405.257402L580.364579,399.282595L598.147630,394.135702L609.665224,389.767130L614.873522,389.240612L616.074573,388.782769L616.789759,388.687386L617.346467,389.751869L617.954592,391.690066L618.766185,391.644282L619.465591,391.506929L620.990609,390.995673L624.338539,389.255873L626.343272,388.733170L627.925654,389.419933L629.108936,389.339811L634.137681,385.230674L638.760040,382.388230L642.062695,381.705280L643.262477,380.900238L648.992020,375.077982L651.129148,373.670467L658.666247,370.095450L667.417179,369.164495L682.688332,364.341836L700.372300,360.618004L716.379675,355.726651L717.937853,354.933045L719.976191,353.391618L722.206430,352.361455L724.334534,353.109277L725.446462,352.330932L729.454776,350.301130L730.365510,350.251529L730.568926,349.667770L731.184363,349.377798L732.818307,349.267151L734.624337,346.703187L735.805665,345.764593L737.154233,344.940461L738.671845,344.364332L747.284538,343.448629L748.973815,342.742775L748.940447,342.113229L748.156515,341.113587L747.579895,339.285995L747.914631,337.946778L748.882891,336.817409L755.091849,332.864616L759.178699,331.914571L759.750110,331.571182L760.727721,330.701261L761.515770,330.926372L762.196744,331.559735L762.820011,331.918387L763.327983,332.143498L763.800856,332.444918L764.058760,332.307562L763.948954,331.223977L764.045048,331.162930L764.245105,331.162930L764.430869,331.044651L764.471235,330.636399L764.270605,328.560798L767.313640,326.328763L773.573896,323.539671L774.373968,323.333637L775.619067,323.203912L776.323543,322.963538L776.768887,322.532393L777.317579,321.845612L777.962317,321.200801L790.149337,317.312856L791.914190,317.080113L792.527625,316.877894L792.919494,316.347546L793.119548,315.637872L793.142468,314.870965L793.198270,314.401664L793.575867,313.554633L793.624595,312.978499L793.422235,312.436705L793.016971,311.952142L792.399252,311.379823L791.337795,307.419377L790.706211,303.317757L790.935404,296.640697L790.769450,295.251868L787.981919,293.729497L786.568791,292.329221L787.216748,288.467969L786.324001,286.285522L785.036638,284.183200L784.269949,282.393745L784.521368,280.684416L786.320761,278.120421L786.901274,274.289691L788.582124,271.958440L789.084371,270.230033L788.926577,269.966766L788.612472,269.070131L788.328618,267.933121L788.262920,266.967808L788.542876,265.796459L789.065021,264.758652L791.505792,261.286578L792.760356,258.012908L793.717775,256.143330L795.659574,253.579338L803.472765,246.070508L812.153746,238.943232L817.287775,236.180843L828.441968,232.876660L829.651863,232.281450L832.513367,230.274523L834.114165,229.465647L837.497905,228.733081L840.166319,226.924559L842.132795,226.207255L842.998023,225.451797L844.435904,223.666169L845.238431,223.154899L846.186073,223.093852L847.131157,222.903080L847.964264,221.979743L851.044622,222.796247L854.836516,221.636353L856.471116,220.659600L856.496656,220.644338L856.497384,220.643907L850.484304,207.978431L844.449318,195.278160L838.419445,182.587639L832.393538,169.887498L828.653076,162.037774L827.696993,160.744026L826.254596,160.191640L823.166183,159.997820L821.896832,159.154705L822.019974,159.106250L822.446094,159.043258L822.594571,158.994803L819.510665,152.283811L815.350384,143.232492L811.188192,134.176378L807.037555,125.125164L802.872887,116.074007L798.698504,107.022911L794.531737,97.976724L790.367010,88.916069L786.193750,79.867599L782.019582,70.819203L777.860913,61.763618L773.680617,52.710536L769.508479,43.662385L765.343671,34.607055L761.170342,25.556661L756.996276,16.501518L752.822297,7.451319L750.065676,1.491199L749.375967,0.000000Z "/></g></svg>