<?xml version="1.0" encoding="utf-8"?><!DOCTYPE svg  PUBLIC '-//W3C//DTD SVG 1.1//EN'  'http://www.w3.org/Graphics/SVG/1.1/DTD/svg11.dtd'><svg enable_background="new 0 0 1000 1570" height="1570px" pretty_print="False" style="stroke-linejoin: round; stroke:#000; fill: none;" version="1.1" viewBox="0 0 1000 1570" width="1000px" xmlns="http://www.w3.org/2000/svg" xmlns:xlink="http://www.w3.org/1999/xlink"><defs><style type="text/css"><![CDATA[path { fill-rule: evenodd; }]]></style></defs><metadata><views><view h="1570.82584558" padding="0" w="1000"><proj flip="auto" id="robinson" lon0="26.1212227393"/><bbox h="414.49" w="264.03" x="235.19" y="371.02"/></view></views></metadata><g class="" fill="#000" id="country"><path d="M987.054145,1568.825846L988.624316,1568.386347L990.191871,1567.280044L991.530168,1565.764611L992.380205,1564.117909L991.113992,1563.633005L989.206834,1561.279291L984.830747,1560.107546L983.194720,1559.905525L981.509197,1560.309568L980.919344,1560.779274L979.601590,1562.173280L979.234185,1562.471281L978.702473,1562.804641L977.347196,1564.249238L976.307765,1564.961456L976.217461,1565.784817L976.344836,1566.653658L976.497853,1567.128498L977.105241,1567.764995L977.870915,1568.118609L979.623140,1568.361089L980.401364,1568.219642L985.868263,1568.431812L986.652371,1568.750070L987.054145,1568.825846Z M999.271752,1548.902446L999.681493,1547.100150L998.281220,1546.024891L996.017589,1546.110708L994.082653,1547.009281L993.635329,1548.372346L994.971017,1549.210414L997.279781,1549.503239L999.271752,1548.902446Z M737.463244,0.000000L736.337975,0.177070L734.255830,1.180468L732.410808,0.983723L731.349990,1.239492L730.833629,2.288800L730.217637,2.918387L728.858182,2.767548L726.146974,2.052706L724.994597,2.328150L722.931796,3.534858L721.721041,4.216913L720.912096,4.177563L720.570176,4.092306L720.205530,3.823420L719.170004,4.210354L717.607055,4.046399L714.639706,3.351228L713.196833,3.534858L712.103655,4.315286L711.177881,5.154739L710.184395,5.554792L703.527237,5.954846L703.017855,6.184384L701.796011,7.863302L701.793867,8.158425L700.930591,8.689648L699.833593,9.870145L698.462156,11.660572L698.680444,16.113731L698.396747,16.861395L697.827670,17.405749L696.446947,19.950450L695.429165,20.763709L693.077066,20.462016L691.824488,20.527601L691.247623,21.367096L690.885930,22.580434L690.067256,23.255969L688.952599,23.590459L687.736314,23.793776L685.320049,24.587370L681.243180,27.000959L679.285253,27.689623L677.823777,27.683065L676.755068,27.512538L675.774692,27.702741L674.554689,28.798048L673.663340,29.086632L670.248429,28.122499L665.708861,28.463552L663.582060,29.073515L661.512638,30.293444L660.656653,31.054263L658.553612,33.579410L657.997435,33.913912L656.656836,34.058207L656.054006,34.235297L655.527820,34.596035L653.693597,36.944125L653.394312,37.547549L653.249443,38.367420L653.321869,39.141381L653.463739,39.633306L653.429423,40.138351L652.978340,40.964789L652.457539,41.456719L651.886396,41.686286L651.330767,41.824026L650.872007,42.073271L650.622783,42.447139L650.278404,43.417886L650.039903,43.804874L649.207378,44.178745L647.926593,44.572293L646.883960,45.083908L646.756315,45.772621L647.164396,47.130375L646.867835,48.540612L646.135866,49.813113L645.236802,50.777332L644.471390,51.295519L643.409178,51.866182L642.238853,52.325338L641.177388,52.509000L640.508850,53.138702L640.465194,54.588333L640.789155,57.277721L639.830112,59.055360L637.874120,60.478793L635.540380,61.502097L633.430968,62.079348L633.734219,63.240414L632.852595,63.581519L631.679278,63.496243L631.096079,63.378168L630.937365,63.876707L631.073245,64.368688L631.296415,64.808192L631.389775,65.116501L631.491690,65.300175L631.716714,65.575686L631.809641,65.831518L631.547008,65.943034L631.472342,66.028312L631.042909,66.382542L630.956510,66.415341L630.034851,68.855609L629.690730,69.446001L628.878538,69.878956L628.160143,69.505040L626.748604,67.714189L624.488143,69.616559L623.839474,69.878956L623.101752,69.616559L622.339516,69.209844L621.729268,69.190164L621.166974,70.961349L620.081077,72.181507L619.798788,73.152392L619.736923,73.513195L619.601499,73.873999L619.399273,74.149523L619.190755,74.254484L619.041455,74.425046L619.109817,74.844893L619.242132,75.350022L619.310471,75.769870L618.933621,77.193427L618.071903,78.334904L616.938346,79.115574L615.738443,79.496069L613.460384,79.581353L612.733384,79.889686L612.184206,80.512915L611.703724,81.241112L611.148476,81.628172L610.399440,81.188629L610.843403,80.270184L610.413563,80.145538L609.596388,80.447312L608.918530,80.795009L608.743225,81.162388L608.188664,81.903707L607.618300,82.251407L607.095107,80.283304L606.274017,80.978698L604.883222,83.176423L603.940978,84.108004L602.950342,84.862458L600.797174,85.990863L598.729967,86.666598L598.093211,87.414502L598.811796,88.634774L598.251422,88.890638L597.758798,88.903759L597.334216,88.667577L596.961598,88.162409L596.808346,88.542925L596.376984,89.067775L596.119511,89.500778L595.705287,88.916881L595.089613,88.654455L594.524898,88.759425L594.264135,89.264594L594.465719,90.045313L594.898786,90.465197L595.179753,90.871961L594.901782,91.626444L594.249421,91.180314L593.641012,91.252482L593.093330,91.724855L592.622515,92.492464L592.990074,92.492464L591.947822,93.266637L591.613607,93.647164L591.417018,94.231079L591.055331,93.981767L590.687781,93.798063L590.717278,95.057747L591.010930,96.166539L591.002647,97.078510L590.135487,97.734607L589.199076,97.688680L588.807203,96.993218L588.537660,96.219027L587.978407,95.963151L587.428247,96.428976L586.343598,99.040249L585.190329,101.054502L584.855447,102.242070L584.962894,102.859569L585.051795,103.370596L583.353703,106.398630L583.669344,107.691222L583.380287,109.403760L578.743667,126.267761L578.501752,129.096126L577.184928,134.667721L576.555724,135.776818L575.645780,136.616851L574.466406,137.305944L569.564290,138.972909L568.380028,139.648889L567.851943,140.593955L564.363822,144.275841L560.688959,146.737055L559.141815,148.036596L557.677846,149.953116L555.862365,154.468872L555.426378,155.197448L551.682092,159.096388L551.662549,159.093053L550.450920,158.886340L549.467917,158.794445L548.442075,158.538451L547.420189,158.433427L544.839681,158.820701L538.577919,160.876955L530.128765,163.651881L528.290600,165.036944L527.444819,165.496447L524.646426,165.384853L522.815295,166.041290L522.394057,166.120062L522.069283,166.422024L521.915481,167.977798L522.255370,172.618991L522.102918,175.179280L521.428349,177.220990L519.649142,181.094436L519.431918,183.458202L517.628821,186.537438L516.219642,190.765781L510.888125,202.112098L508.732524,210.372875L508.075078,211.854704L505.369521,217.951060L503.997715,221.779655L496.682824,227.604743L492.660082,229.660297L481.232400,230.914650L478.974591,230.487776L476.528366,229.666864L474.447478,229.299096L472.337093,229.627460L469.802698,230.888381L466.428917,233.508744L465.324234,233.988161L462.031162,234.901024L460.372084,235.104613L458.873796,234.684301L457.111282,234.257423L453.114578,234.730273L451.212927,234.270557L448.435132,232.188710L444.383754,230.569248L442.027391,229.627460L440.933970,229.771941L439.817802,230.264487L438.300621,230.671660L435.583476,230.185680L433.375107,228.386246L429.845108,223.651288L427.506305,222.186816L424.645274,222.206518L418.909182,223.828601L417.734996,224.012482L417.670682,223.710393L417.989588,223.165319L417.963800,222.646515L417.419081,222.147414L416.879302,221.779655L416.254690,221.654880L413.404168,222.396964L412.400820,221.713984L411.638222,220.466237L409.261793,218.574926L407.331695,215.685455L406.862548,215.363676L405.776693,214.982794L405.285284,214.654449L404.945747,214.089696L404.450393,212.763190L403.960627,212.277244L400.959915,211.285657L400.313274,210.537044L399.931433,209.906636L394.395874,205.119550L393.062311,204.226501L391.503776,203.445088L390.976826,203.018267L390.298234,202.210594L389.526094,200.857916L389.064865,200.345740L388.293318,200.089653L387.582725,200.227546L385.764650,200.930146L384.791952,201.008942L383.956330,200.798819L381.517316,199.787602L378.563547,199.190068L375.849702,199.393623L373.221139,200.207847L369.032284,202.269692L368.493289,202.729343L367.810473,203.129897L367.487185,202.801574L367.279441,202.158063L366.942115,201.639316L365.649420,201.442324L364.326845,202.164629L362.100203,204.456329L361.776303,205.021052L361.627919,205.566076L361.380479,206.058570L360.741947,206.478832L359.971174,206.833429L359.384539,207.227427L358.892525,207.772459L358.406791,208.553893L357.422667,211.022985L356.797552,211.771600L355.385415,212.362613L354.991225,212.986463L353.726700,216.920043L353.254442,217.898524L353.078905,218.417318L353.020710,218.955814L353.307725,219.579683L353.795013,220.256090L354.017922,220.925932L353.499997,221.543239L352.734946,222.147414L352.644360,222.653082L352.827531,223.204722L352.880529,223.894273L352.720933,224.800543L352.550189,225.457262L352.206421,226.081146L349.636126,229.108645L348.850442,230.408968L348.460708,231.788103L348.459662,232.668125L348.658531,232.871712L348.973577,232.996492L349.327237,233.626957L349.622809,234.539819L349.677783,234.933861L349.043108,236.004343L348.171615,236.963182L347.033543,237.967994L346.404779,239.031914L347.049525,240.174646L347.293663,240.975872L347.250253,242.394439L347.017411,243.891817L346.703425,244.955744L346.182278,245.756974L345.628891,246.164157L344.053521,246.774931L343.450263,247.287193L343.452030,247.851995L343.624764,248.489039L343.545383,249.224595L341.101055,252.902376L340.964602,253.043628L340.409528,253.618229L339.303500,254.419459L338.650818,255.266660L337.653420,257.466754L336.557264,259.134882L335.605114,259.535495L333.163488,258.970696L331.421732,259.305635L330.175244,260.349854L328.201579,263.232942L325.227049,266.122580L323.883133,266.851554L323.020217,267.153651L320.502807,267.619931L319.995946,268.000835L319.363446,269.261756L317.060221,271.632539L315.913327,273.911363L313.928003,278.948353L311.701972,282.297532L308.823109,285.200113L305.534454,287.275236L302.061937,288.142052L296.786731,288.181453L295.058711,288.503225L293.584150,289.048265L292.906785,289.718072L292.792638,290.709644L293.146422,293.559560L293.144369,294.787504L292.864639,295.949773L292.210596,297.072636L291.157351,298.090427L287.976311,300.296713L286.723320,300.795749L285.573576,300.776050L282.389238,299.863338L277.764157,299.738578L275.152029,298.464710L273.922500,298.228321L271.431662,298.313684L266.812797,299.613818L266.047852,299.646650L264.536115,299.443094L263.760858,299.456227L258.962425,300.887676L257.276076,300.940206L250.180840,299.239539L248.062816,297.808073L245.802048,296.790279L242.751665,297.203964L241.312637,297.985365L238.696355,299.843639L235.115816,301.557432L233.913661,302.443868L233.754058,302.621154L233.507982,301.984235L233.043738,299.968399L232.541981,299.272370L231.749428,298.674834L231.455508,298.346516L231.140320,297.867170L230.467036,296.113935L230.020060,293.815656L229.827741,291.464811L229.896242,289.553904L231.273040,285.246081L231.427929,283.781663L231.215925,282.862291L230.392723,281.535763L230.089907,280.760856L229.998531,279.138798L230.242389,277.300013L231.094049,273.898229L231.364000,273.123299L233.026069,271.868959L233.823659,270.851036L235.569375,267.685604L238.893620,263.508772L240.240243,261.243022L241.353324,258.786808L243.855409,255.286363L244.089246,254.301245L242.212405,250.485549L242.078151,249.290270L242.397564,244.719316L242.159088,239.215802L240.850317,235.432981L240.849022,235.196556L240.272492,234.454444L239.958731,234.421607L239.406065,234.717138L238.657550,234.986400L238.715872,234.401905L239.346799,233.180377L238.374985,228.964165L237.887303,227.834597L237.344893,227.342054L235.985051,226.606524L235.567294,225.956369L235.588862,225.299649L236.118530,223.927109L236.113790,223.224423L235.707273,222.843529L235.075423,222.738455L234.521358,222.521740L234.380858,221.832192L234.692280,221.379062L235.917804,220.604145L236.281305,219.980274L235.911186,218.299112L233.561630,215.994102L233.735313,214.221034L234.131032,213.216302L235.791262,212.139341L235.108582,211.476094L234.612141,211.495794L234.120327,211.817567L233.615891,212.034272L233.085866,211.771600L233.072816,211.121487L233.403279,210.333475L233.458622,209.801568L232.631476,209.919770L232.501683,208.672093L232.221107,208.087659L230.657664,207.325927L229.781453,206.702097L229.460417,205.999470L229.179117,204.022939L228.973736,203.523886L228.437515,202.703077L228.229980,202.256559L228.243471,201.777210L228.499886,201.422625L228.718169,201.035208L228.623656,200.437669L228.284104,200.050255L227.319453,199.511817L226.990601,199.137537L226.899958,198.723862L226.864370,197.062605L225.833362,196.629237L224.844934,195.972622L224.366021,195.112461L224.886943,194.048758L225.008160,193.116383L224.470261,191.744099L223.090378,189.268772L221.534880,185.349066L220.986017,184.528374L214.175423,178.356748L210.110471,175.665085L209.558635,175.494397L208.433728,175.415617L207.920606,175.264624L207.334042,174.818210L205.939658,173.058831L203.203099,170.682402L202.241005,168.955912L201.310931,168.181298L200.972162,167.734912L200.739932,166.697729L200.727349,167.492027L200.594808,171.050023L200.461407,174.614698L200.327383,178.179490L200.198617,181.737836L200.068999,185.303107L199.933324,188.861695L199.797012,192.420390L199.659813,195.985754L199.521976,199.551214L199.383757,203.110198L199.244902,206.669264L199.110788,210.234973L198.970661,213.794187L198.829640,217.360031L198.687980,220.925932L198.655319,221.745833L198.545947,224.485318L198.403278,228.044749L198.259974,231.604218L198.115769,235.170286L197.976820,238.729813L197.836967,242.295927L197.690850,245.862054L197.544366,249.421619L197.397248,252.981185L197.249221,256.547313L197.106454,260.106860L196.957153,263.672956L196.807492,267.232459L196.656919,270.798498L196.505987,274.357932L196.354141,277.923888L196.207556,281.483227L196.060335,285.042508L195.906578,288.608293L195.752470,292.167441L195.597440,295.733080L195.442061,299.292069L195.291371,302.857536L195.134721,306.416341L194.977145,309.981610L194.819224,313.540206L194.660669,317.098687L194.501186,320.663612L194.346673,324.228410L194.191818,327.786510L194.030424,331.351034L193.868392,334.915411L193.706325,338.466508L193.543324,342.024009L193.379386,345.587909L193.214811,349.151637L193.055506,352.708623L192.889659,356.271988L192.723175,359.835161L192.556671,363.385013L192.388916,366.947784L192.220525,370.510346L192.051810,374.066130L191.882147,377.628251L191.717441,381.190142L191.552413,384.745239L191.381157,388.300094L191.208949,391.861259L191.036424,395.415611L190.914448,397.920551L190.738758,399.802449L189.034933,400.241766L188.473132,400.300778L186.735199,400.064728L186.127729,400.143412L184.661983,400.976138L182.131382,403.251305L180.526909,403.723372L177.907930,403.913509L176.656906,404.359343L175.547015,405.237887L174.589380,405.742714L169.143049,406.168863L168.660509,406.326209L168.077832,406.706459L167.710237,407.145710L167.367107,407.657072L166.856892,408.273320L166.541387,408.791225L166.026962,409.958126L165.675414,410.181014L165.145413,410.397345L164.789234,410.948002L162.984827,416.034687L162.376270,416.952324L161.399578,417.745408L160.268404,418.269753L155.828162,419.436397L155.029274,419.790316L154.459156,419.685451L153.221582,418.597465L152.436593,418.663007L151.720075,419.279098L151.065454,420.118016L150.039032,421.953089L149.779824,423.276913L150.070424,424.659672L151.911474,428.257245L151.846315,429.023899L151.190246,429.430153L149.407940,429.580860L149.067177,429.816747L148.426569,430.825803L147.963064,431.291009L144.806226,432.974875L142.536802,433.741436L140.449534,433.859367L139.594064,432.621073L139.355556,432.358995L138.768489,432.149331L136.888485,431.900354L136.515579,431.762761L135.979003,431.081339L134.723455,428.860085L133.866684,427.982032L122.665238,426.284845L112.236207,427.857531L110.224924,428.971478L109.046181,429.351524L108.806386,429.227027L108.177328,428.591429L107.944012,428.447272L107.639841,428.506245L107.156328,428.820770L106.855917,428.919058L105.792724,429.095976L105.192226,429.285999L104.760511,429.567755L103.689869,430.026423L102.377965,429.790537L100.146504,428.919058L98.945050,428.827322L94.162056,429.541545L92.204509,430.236098L91.200734,430.216441L86.737915,428.571771L84.717605,427.457812L81.563135,424.626906L79.791759,423.421089L77.870240,422.569131L68.944754,420.498145L67.195567,420.655439L66.596779,420.937255L65.491052,421.697495L64.960464,421.953089L64.266060,421.998965L62.546783,421.481221L61.403422,420.943809L61.214200,419.659235L61.327353,418.099341L61.095829,416.755689L60.306504,416.159225L59.381372,416.368971L58.331962,416.867116L57.219423,417.148958L54.967886,417.424243L52.551659,418.020690L50.550075,417.686419L50.532139,415.779056L51.321869,413.144003L51.770050,410.653008L51.237937,409.256678L49.292766,408.496217L48.919486,407.427616L48.668248,405.985291L47.288608,404.005299L46.895915,402.857913L47.146995,401.946540L47.887108,401.100718L48.853082,400.464701L49.774430,400.222095L50.662497,399.579510L51.178770,398.084482L51.381342,396.340224L51.327030,394.982807L51.077735,394.268016L50.267146,393.074489L49.919917,392.425250L49.740318,391.644841L49.711726,390.995584L49.582461,390.346319L49.123162,389.565877L48.941848,388.955944L48.897374,388.149247L48.708661,387.447475L48.111702,387.145776L46.710286,387.224481L43.241273,388.070544L41.521836,387.729497L40.436592,386.253786L40.296615,383.282562L40.501325,381.846082L40.571433,380.416123L40.124467,379.314111L38.783046,378.874611L37.751689,378.376071L37.088381,377.221538L36.520356,375.922659L35.803471,374.978002L35.204233,374.715594L34.656397,374.702473L33.576448,374.978002L32.953218,375.306010L31.089219,376.703302L29.661361,376.316262L29.027528,376.493382L28.220617,377.352736L27.560985,377.615131L27.022526,377.510173L26.507650,376.821381L26.087190,376.703302L25.745960,376.978820L24.778579,378.074320L24.581473,378.244875L23.974833,383.282562L23.551888,383.918799L23.318299,383.886003L23.047941,383.656434L22.146342,383.682670L21.924450,383.499014L21.710288,383.400627L21.369127,383.676111L21.247456,384.056540L21.379335,384.391052L22.278822,385.656931L22.282549,386.116051L21.446565,386.319374L20.294730,386.312816L19.988745,386.548932L19.746434,387.145776L19.890524,387.591766L20.272667,388.234508L20.555170,388.988736L20.416368,389.788862L19.891232,390.188920L19.351240,389.992170L18.831214,389.578994L18.370812,389.349450L17.389043,389.841329L17.108142,390.975910L17.273436,392.274416L17.619452,393.251552L18.696776,395.074614L19.029456,396.235304L18.432466,396.753344L17.616141,397.304164L17.284847,398.569716L17.158383,400.018829L16.963620,401.087604L16.326774,402.169467L15.298878,403.520122L14.181014,404.477358L13.285356,404.379013L13.086028,403.788937L12.962598,402.982487L12.751810,402.261261L12.283780,401.953097L11.715791,402.176024L7.447375,406.391769L5.351865,407.080151L3.827416,407.879971L2.373259,408.876449L1.364063,409.354935L1.439384,409.989845L1.275186,410.996392L0.893975,411.930654L0.318507,412.343581L0.405772,412.684242L1.707221,414.201703L2.565604,414.934606L3.607520,417.618372L3.945208,417.747394L4.449426,417.783521L4.897679,417.897061L5.090727,418.227356L5.154673,418.702151L5.575548,419.796224L5.777885,420.219396L5.556085,421.540488L5.762102,423.780056L6.213581,426.029820L6.740939,427.402320L10.244313,430.642469L12.526395,434.150607L12.907110,435.017274L13.624894,437.462407L14.091921,438.256783L17.401706,441.398012L18.165690,442.837009L17.857792,443.868512L17.995856,445.353826L18.380611,446.818450L18.844385,447.772486L19.015882,448.375836L18.900197,449.830023L19.113819,450.371460L19.649186,450.985079L19.931426,451.562592L20.906311,455.383221L21.836112,456.605114L21.976866,456.898980L22.182150,457.522794L23.175370,458.693057L23.385686,459.100320L25.100814,465.373598L25.468732,466.079718L26.859824,470.599552L26.976292,472.995783L27.283229,474.366449L27.971231,474.964164L27.914569,475.639156L29.083125,479.286950L29.121504,480.183375L29.035750,481.883420L29.261643,482.702498L28.928471,482.702498L30.115824,487.915227L30.124686,488.584780L30.212881,489.244017L30.442417,489.686934L30.677357,490.011392L30.781291,490.325546L31.032888,492.483334L34.032313,500.576944L35.048553,505.647478L35.134581,508.112945L35.762556,510.217963L38.352340,515.261238L38.395126,516.943887L38.593407,517.468734L38.957504,519.475438L39.045850,521.111598L39.255823,521.754725L42.414146,527.871671L43.343089,529.106281L43.753349,530.572341L46.487000,536.230443L47.731699,537.778611L47.413588,540.170227L48.721654,542.906344L51.659230,547.313765L52.204680,549.530254L52.535222,551.844407L52.769967,552.744343L55.445177,558.807206L58.907310,564.175718L59.407732,565.240157L60.398561,568.073517L61.037206,569.158525L61.221599,569.564761L61.692130,571.117716L61.948332,571.313121L64.601218,576.157155L64.846740,576.979932L65.288019,577.643298L67.381166,579.427715L68.007466,580.219653L68.493599,583.202321L68.944188,584.765681L70.407284,585.974215L72.322728,589.275909L74.004697,590.865088L74.773230,591.831983L75.052392,592.984045L75.401451,593.966398L77.815429,596.687232L80.067515,600.298052L80.155504,600.771282L80.504098,601.666314L82.827197,604.891646L83.991646,607.047129L84.783863,609.151265L85.676734,613.565655L85.692356,614.239689L85.612705,614.743935L85.625461,615.309934L85.901682,616.153803L86.452793,617.224102L87.074835,618.109181L87.605196,619.395671L87.610622,620.728524L87.328666,623.492172L87.566547,624.866362L88.363857,627.614920L88.590859,634.374148L90.195747,642.654284L89.805344,645.208903L88.446590,646.893247L88.088886,647.928638L88.648081,649.350444L88.900290,650.355035L88.904958,654.760318L88.563667,657.275084L87.026301,662.439567L86.130124,664.702674L84.749175,667.172292L77.925398,673.742364L76.073019,675.124759L74.004354,675.650923L71.756753,674.727567L69.185906,672.205350L68.613357,671.266703L69.034402,670.797397L68.248898,670.720041L66.947737,671.019156L65.655712,671.545197L64.889710,672.133145L64.672035,672.927420L64.611115,674.882316L64.544525,675.377522L64.337920,675.815998L64.301911,676.151310L64.194126,676.373136L63.755428,676.460835L63.447200,676.620759L62.586578,677.353330L62.406788,677.544217L62.223559,677.797016L61.869575,677.766060L61.483753,677.683514L61.271238,677.760901L61.192865,678.312944L61.383551,678.550276L61.669335,678.715378L62.808696,680.376814L63.062202,681.119870L62.711118,681.893923L62.131042,682.575119L61.918978,683.111840L61.933556,683.627934L62.176069,685.031794L62.723995,686.864224L62.951762,687.364953L62.528342,688.345810L62.675420,689.047935L63.012054,689.615854L63.185091,690.163141L63.190518,690.607180L63.287510,691.195811L63.571128,691.856757L64.114169,692.528060L65.201154,691.696681L65.771646,691.417844L66.430530,691.262937L66.172028,690.927310L65.747255,689.925636L67.352656,689.667484L68.888281,689.801723L70.114400,690.426465L70.803128,691.660536L70.914898,692.595192L70.594749,695.337533L70.740987,695.967672L71.143435,696.587507L72.246345,697.765268L72.498957,697.894414L73.093047,697.961571L73.318180,698.116548L73.449710,698.545329L73.497018,699.614753L73.747942,700.152079L74.828593,701.330133L75.004376,702.043215L74.153576,702.528957L73.483963,702.270581L72.832809,701.536820L71.928441,700.152079L70.535221,698.979288L70.179287,698.457505L70.456916,697.765268L69.873792,697.352008L69.543827,696.752801L69.288130,696.065811L68.913398,695.337533L68.362920,695.110276L67.563136,695.306543L66.163942,695.988333L66.738271,696.866442L67.265793,698.033893L67.948688,699.056783L69.023894,699.501091L69.897403,699.986746L72.205753,702.353261L72.665310,703.180086L72.787166,703.851917L73.977203,705.609171L74.573430,707.294280L75.768142,709.786148L76.007495,711.042599L75.421973,712.113004L80.932489,716.147213L82.355839,717.792295L83.540871,719.955028L83.844559,721.052061L83.905830,722.371735L83.752180,724.995984L83.900484,725.565423L84.302224,725.943338L85.142225,726.518000L87.422656,729.510835L87.892338,729.759409L88.113009,731.002360L89.340424,733.789129L90.414905,739.426926L90.469892,740.681310L90.649526,741.510734L91.575006,743.164588L91.735863,744.377920L90.882601,746.727198L89.151452,746.996906L87.111200,746.945038L85.304854,748.335172L84.718302,749.699550L84.012622,751.977370L83.203720,753.160582L82.360351,754.125935L81.869880,754.966802L81.888283,755.890797L82.573008,757.079656L82.985062,756.830451L83.302416,756.721426L84.086365,756.607210L83.673855,757.297716L83.411858,757.925961L83.267638,758.606172L83.189634,759.478572L82.951560,760.428952L82.517330,760.761346L82.014725,760.937936L81.596184,761.441752L81.378518,762.340376L81.458963,763.161156L81.909672,763.779384L83.410250,764.304130L83.800364,764.995175L84.208834,766.673634L84.343420,766.803558L84.590808,766.923089L84.806429,767.068608L84.895926,767.302482L84.805535,767.801432L84.511128,768.679857L84.426354,769.085311L84.553269,769.844284L85.677257,772.381571L86.415471,773.442444L87.605018,774.597062L88.882456,775.294063L89.892621,774.992370L89.029531,774.290190L88.892929,772.984798L89.623395,768.752629L89.624059,768.170465L89.584074,767.546757L89.019702,764.886059L88.704154,764.465196L88.371192,764.189827L88.124588,763.841729L88.034819,763.181936L88.160366,762.314403L88.420605,761.862485L89.251188,761.041813L89.782623,760.387403L90.250407,759.930380L91.205864,759.260465L93.170417,758.465972L93.642494,758.154424L94.443937,757.822116L99.350019,757.578085L104.281633,758.050576L107.381416,758.824265L108.206566,759.307201L110.225241,762.704004L109.462367,763.810557L108.705110,764.335304L108.198977,764.917235L108.191193,766.237103L108.816839,768.409564L108.836834,769.345226L108.319905,770.592920L107.906652,771.138838L107.581656,771.372813L107.317204,771.674389L107.092462,772.381571L107.091561,772.885990L107.319582,774.992370L106.835862,775.772632L106.736952,776.396890L107.184637,777.177272L107.661210,777.489443L108.247878,777.624721L108.770005,777.479037L109.013496,776.958758L110.171766,776.220012L115.383575,775.346080L116.945843,774.773908L117.634465,774.727095L121.667393,774.992370L122.256698,774.534646L123.639081,772.433571L124.591055,771.903177L123.952311,773.354033L123.514833,774.690686L122.826486,775.626978L121.443827,775.876672L121.416454,776.313653L122.221444,776.885921L123.073950,778.691404L123.757770,779.404330L124.456042,779.612494L127.687992,779.841480L131.440157,779.071277L132.102184,779.237802L132.808078,779.799846L133.758432,781.127034L134.723477,783.032283L135.429190,785.078538L135.576059,786.828385L135.268613,787.526339L131.841302,791.876791L131.597581,792.590788L132.074837,792.267658L132.543104,792.153002L133.002035,792.252023L133.441328,792.590788L134.502038,791.767352L135.795937,791.407774L137.052172,791.569322L137.988547,792.351045L138.750008,793.372605L139.531174,794.018962L142.140619,795.567290L145.915702,799.650616L148.478019,801.299116L148.701672,801.633029L148.917827,802.081747L149.244993,802.478309L149.804759,802.608761L150.551965,802.373948L151.488189,801.486940L152.266834,801.299116L160.765464,801.043472L161.662762,801.539115L162.377095,802.326987L165.543598,804.826765L166.282082,805.244339L167.087718,805.557534L167.910468,805.677595L168.788484,805.484454L170.229299,804.597108L171.097264,804.362239L171.124051,803.960367L170.528427,802.238282L172.152201,800.224423L176.262066,797.355781L178.474149,796.411953L179.789222,796.067821L180.344810,796.260741L180.741858,795.155417L181.597705,794.081515L182.618355,793.184963L183.511118,792.590788L185.275433,791.913271L185.743874,791.673547L186.327303,791.069056L186.653765,790.506292L187.043678,790.089454L187.813182,789.922724L188.848725,789.516334L189.904255,788.557745L193.069321,784.625510L195.004076,783.162438L197.285285,782.126458L204.764276,781.111419L214.010800,782.813627L215.034040,782.412772L215.565227,781.080189L215.019314,779.737395L213.818081,778.769459L212.403019,778.530092L213.419881,778.035769L216.505590,777.177272L216.117514,777.177272L218.302526,776.126373L220.857445,775.845460L225.969669,776.313653L228.058473,776.787072L236.524741,780.034042L238.813425,780.226607L241.118130,779.883115L244.753870,778.332360L245.122889,778.051379L245.434563,777.666345L245.697432,777.239705L246.097476,776.885921L247.985215,776.532151L250.263095,775.600969L251.429571,775.387694L252.581944,775.678997L254.478589,776.906732L259.985386,778.051379L262.297881,777.910892L264.589638,777.458226L266.812378,776.646605L270.075982,774.794714L270.402924,774.565854L271.585037,772.698780L272.140849,771.986374L272.019112,769.896270L272.253297,768.856591L273.695881,767.390836L275.725678,766.522924L282.695421,765.488809L283.779654,765.114684L284.549686,764.491175L283.644406,763.940442L282.930983,763.181936L282.772857,762.142983L283.534150,760.802897L285.211678,759.089098L286.127688,758.419239L287.226025,757.915577L291.866120,756.794110L294.093335,756.742193L299.009206,757.297716L301.432137,756.752576L303.661025,755.615666L306.577902,753.342228L307.471209,752.937422L308.531096,752.735025L309.925063,752.688319L310.975970,752.844008L316.796653,754.956420L318.064560,755.210770L319.065744,754.868178L318.230963,754.478883L317.453588,753.721099L316.819451,752.776542L316.389320,751.816505L318.711647,752.065587L319.858291,752.444411L320.643060,753.160582L319.831981,753.150203L319.460214,753.388937L319.388322,753.835282L319.460729,754.432169L319.822163,755.382070L320.388763,755.776590L321.054775,755.994622L322.672877,757.053697L326.808578,758.388084L327.622981,758.465972L328.196600,758.299812L328.723082,758.071346L329.416824,757.915577L330.874521,758.050576L331.599933,758.279042L331.894867,758.606172L332.279222,758.201155L332.305620,757.733849L331.845436,756.846026L331.342725,756.409932L330.844092,756.207466L330.479533,755.828502L330.361329,754.868178L330.774301,755.350924L331.411183,755.610475L332.999394,755.735061L333.102122,756.150361L333.280250,757.977884L333.534390,758.388084L351.731184,760.132922L351.764443,759.696684L350.570031,759.509730L349.699688,758.637328L349.438088,757.365211L350.057577,755.973856L350.974428,755.101762L352.045535,754.416597L353.224585,753.902754L361.918044,751.915100L364.417473,751.816505L373.665257,754.032510L379.276810,754.613837L381.494725,755.465125L382.617881,755.735061L392.039574,756.607210L395.360035,758.081730L396.052555,758.606172L396.935773,759.120255L403.331799,759.899220L404.323452,760.293919L406.049830,761.976761L408.249734,763.181936L412.735120,764.402848L413.737826,764.491175L417.142665,763.846924L418.350568,764.013178L421.207977,764.808120L424.825216,764.901647L425.907810,765.280960L426.499119,766.237103L426.861568,766.237103L427.255025,765.748627L428.218542,765.041939L428.444482,764.491175L428.257179,764.033960L427.781862,763.722236L427.314942,763.306618L427.161859,762.532578L427.606958,761.566412L430.318854,759.260465L430.914966,758.829458L431.910763,757.728657L432.601443,756.451464L432.066308,753.835282L432.979517,752.849197L434.300282,752.164184L437.482927,751.261281L442.292023,750.597128L447.142436,750.700899L451.548023,751.909910L453.410212,752.688319L455.113349,754.032510L456.972975,754.364693L458.331963,755.215960L459.653637,755.210770L462.324495,754.868178L463.827623,755.122525L466.564330,756.015387L468.206297,756.207466L469.616879,755.859649L470.739575,755.184815L471.924027,754.805890L473.550412,755.340542L473.753416,755.132907L473.869633,754.930466L473.988964,754.432169L473.574152,753.866423L472.719820,752.252403L471.285590,751.115994L471.063134,750.726842L470.872164,750.166488L469.877359,749.663234L469.697492,748.968055L469.960502,747.463724L471.134502,743.880126L472.316935,741.811416L473.840587,740.059284L475.654198,738.722045L479.762128,736.773491L484.234512,735.390017L488.957424,734.690572L496.217608,735.084328L503.165629,736.509219L505.062820,737.690720L506.262477,738.224509L507.210139,738.058669L508.269748,737.592257L509.679376,737.535252L514.135089,738.203779L516.336205,738.089764L518.459592,737.519705L523.762888,734.949620L524.932248,734.773467L525.293419,734.493699L525.745204,733.307353L526.183776,733.032801L526.829885,732.960279L532.112725,730.753759L533.977355,729.686907L536.564203,729.376192L537.666446,729.081021L540.872524,726.455873L542.081163,726.083118L543.368642,726.000285L544.416131,725.741437L549.239712,723.236069L550.346937,723.039389L550.844921,722.884117L551.302962,722.490771L551.641080,721.983581L551.786589,721.502286L552.005942,721.067585L552.450738,720.627725L553.338856,719.965377L557.532719,718.009586L558.092896,717.388764L564.099777,713.457600L564.375072,712.780113L564.573507,712.588768L564.671562,712.655997L564.829890,712.826657L565.041508,712.981804L565.257950,712.981804L566.624077,712.206087L569.718500,709.879214L571.112049,708.493627L571.634329,706.870398L572.175526,707.170215L572.616601,707.227078L573.034454,707.103014L573.461765,706.870398L574.860552,705.030286L575.111183,704.937253L575.763875,704.404911L579.649056,702.963040L581.553507,701.490315L586.757179,696.422215L587.721529,695.848873L590.442402,694.862364L591.488231,694.697091L592.106328,694.418198L593.246014,693.230378L595.897503,692.052981L596.137917,691.732827L596.220223,691.386863L596.261705,691.061560L596.368734,690.829205L597.134912,690.395485L597.918423,689.368032L598.438656,688.872401L600.102854,688.283859L605.958960,683.700188L607.232644,682.379014L607.845554,681.026986L608.413434,679.148780L609.595025,677.394603L611.061392,676.104882L614.083964,675.227927L615.748320,674.356175L618.416389,672.530278L621.172340,671.091356L622.495193,670.111512L622.752291,669.111093L623.651468,668.657313L625.517557,667.177448L626.945278,666.440138L633.280791,661.779758L633.690431,661.022037L634.201436,659.852006L635.259688,658.532581L637.410396,656.445384L637.925092,656.074349L638.844826,655.641483L639.332319,655.234390L640.711360,653.430911L648.468177,646.738715L648.991815,646.120598L651.990252,644.343599L658.158352,636.727130L665.361295,629.576119L667.030329,627.259755L667.668252,626.086198L667.981172,625.046503L668.566513,624.274475L672.239663,622.627542L672.360036,622.395949L672.601706,621.623983L672.714721,621.376957L672.882652,621.248299L673.486844,620.908643L674.592213,619.169245L674.784161,618.567166L675.229723,617.553431L676.161126,616.359627L678.071502,614.424921L679.939333,613.128311L680.591232,612.294798L680.944605,610.741009L681.273933,610.360289L682.924537,609.459949L684.189711,607.088285L684.160768,606.820773L683.984629,606.542974L683.939271,606.213733L684.302687,605.791896L684.551981,605.730164L685.136281,605.822762L685.400310,605.791896L685.981795,605.616989L686.491093,605.570690L686.962221,605.462659L688.434887,604.459532L690.611909,603.672477L691.510192,603.163213L693.395058,601.234228L694.426163,600.452366L695.651275,600.143739L695.954876,600.010001L696.405051,599.644796L696.818534,599.151001L697.285712,597.942250L697.799924,597.592488L699.020941,597.083280L702.664692,592.984045L703.205240,591.883414L704.334540,591.029665L705.605787,590.448504L708.993687,589.491912L709.997250,588.982763L718.469255,581.443566L721.595058,578.059831L723.657370,574.264783L725.269693,573.184903L729.621637,567.898682L735.183016,561.152083L737.198785,557.434209L737.974003,556.801702L738.778106,556.441737L739.707932,555.536681L741.419701,553.315157L752.031414,536.050421L754.806837,533.247151L755.320952,532.346989L755.604167,531.385085L756.907035,528.823352L765.885433,514.782672L769.509767,507.562220L772.486370,502.929574L774.230296,500.932167L780.257160,495.701692L781.789635,493.981846L782.325497,493.178530L782.537707,492.735666L782.671038,492.292796L782.710533,491.819020L781.961551,492.498783L780.072852,493.132184L779.219703,493.590490L779.621087,491.927166L780.184944,491.417335L782.340006,491.427635L781.974218,488.976204L782.734996,486.462760L791.009921,471.934249L798.933059,461.909782L799.450798,460.780871L799.894883,460.285993L800.366517,459.883900L801.076832,459.461181L801.474393,458.136285L801.792889,457.512483L802.581255,456.831958L804.512499,455.646164L805.346069,454.950135L807.657129,451.954471L808.391409,451.454309L808.625373,451.222273L808.926453,450.108477L809.085131,449.721734L809.430531,449.469060L810.316641,449.046213L813.054039,446.694681L824.562296,434.295053L826.299164,433.242649L826.330695,432.850570L825.985285,432.664846L825.803040,432.417214L825.726994,432.050922L825.700170,431.509215L828.073014,432.004490L830.136614,432.081876L832.130251,431.663989L839.108301,427.969881L841.360079,426.153656L842.553157,424.110304L841.644480,424.203186L840.739464,424.688233L839.970658,425.338392L839.495886,425.885343L838.439436,424.151585L839.783213,422.799615L841.943226,422.453875L843.322838,423.723294L849.682561,418.444111L850.470710,417.499670L851.623803,415.677820L852.203369,414.975896L852.932707,414.490737L854.740243,413.613306L855.494655,413.035224L860.553662,408.079924L861.328574,406.970067L861.959967,404.899981L863.036002,402.602644L863.817032,400.248400L863.555548,398.048934L863.099795,398.301929L862.814341,398.405192L862.630166,398.229645L862.480677,397.615224L863.720890,397.238306L864.726358,396.267601L865.434621,394.935431L865.760776,393.479296L866.148681,392.467206L871.274054,385.066964L871.722979,383.889437L875.536937,368.078165L875.514139,367.401401L875.301837,366.208005L875.370206,365.433059L875.581257,364.751099L876.203519,363.247661L876.359209,362.596676L876.547335,361.175853L881.715590,342.568029L888.635998,325.754526L888.997807,324.084887L889.573290,323.107902L889.732546,322.565128L890.092934,320.730013L890.278980,320.182056L892.421541,317.349178L892.801664,316.020593L893.030853,314.640295L894.320090,310.597525L895.752183,302.309933L896.619686,299.719629L888.202546,299.981531L880.562861,300.217917L873.530938,300.434604L867.180649,300.618460L864.155885,300.093158L860.249103,299.416829L858.681984,299.351166L855.893352,299.692614L854.327373,299.331467L853.480747,298.917788L852.243283,297.512585L851.385558,297.335292L847.743544,297.315593L847.728218,299.219840L846.413371,304.833932L845.197270,310.053834L843.828792,315.890655L843.662535,319.808012L843.610919,321.018128L843.409952,325.725192L843.645512,326.657386L843.965810,327.346678L844.191682,328.022836L844.296437,328.744941L844.263633,329.585201L839.404791,329.519556L834.199267,329.440782L826.307749,329.329185L820.326105,329.243846L816.742648,328.469229L811.309175,326.460444L807.262695,324.963674L805.389219,324.270201L800.753130,322.554350L799.974784,321.976628L799.197844,321.096910L796.891397,317.006772L791.683152,311.721528L790.617109,309.515439L790.495438,307.933071L791.227140,305.438008L791.402408,303.855587L791.168327,302.594889L790.654043,301.655925L789.216364,299.929001L788.575614,298.779895L787.832137,295.876898L787.613515,295.023898L786.935979,295.831577L786.052329,296.573587L785.095380,297.112034L784.179166,297.295894L783.232061,297.354991L782.964099,295.870976L782.714309,291.510777L783.213079,282.737519L783.591068,275.973454L785.079774,271.212235L790.561445,264.493877L790.562376,264.492738L794.847955,259.246528L798.989053,252.317872L802.393519,244.916340L803.436676,241.566941L804.227069,240.240320L809.337061,235.702244L815.156239,230.540314L816.738172,229.732537L818.656921,229.207155L820.262741,229.180886L821.616629,229.666864L827.135390,233.600687L832.651239,237.534545L837.429847,240.949602L838.281261,241.558488L842.837637,244.817828L844.371646,245.316954L845.949585,244.929474L849.178777,243.294179L847.517126,235.978074L847.415259,234.073537L847.860927,232.313489L850.584222,225.936668L851.061268,225.168305L851.804730,224.459049L852.355770,224.117557L852.752121,223.730094L853.031482,222.882932L853.113913,221.503837L852.863614,217.517638L852.629558,216.191110L852.143894,214.877724L852.066360,212.894527L852.265444,210.806282L852.586196,209.197430L853.710275,206.091403L854.484323,192.289071L855.050360,182.184278L855.471249,174.601569L856.052885,163.901322L856.528811,155.053045L857.229614,150.688227L857.221216,145.778816L856.125077,140.902415L854.464848,136.484313L851.765738,129.312685L851.567434,126.622124L851.772743,116.561079L851.793615,115.519191L851.555949,114.508683L850.956916,113.695033L847.578484,110.919471L846.604241,109.882749L845.911740,108.550770L843.998166,102.983484L842.317694,95.044625L841.361585,92.748334L836.432900,86.686280L835.532253,84.429467L835.334769,81.811862L837.246693,67.320598L837.013236,65.398572L833.900407,52.830410L832.027781,45.287242L829.685943,35.861902L827.333598,26.423795L825.311645,18.330496L825.906684,17.189319L824.728720,15.169315L824.205457,14.690550L823.662632,14.664316L822.758336,15.070939L822.313324,15.129965L821.880628,14.939770L821.053916,14.349512L820.666139,14.224902L820.296565,13.903540L819.254507,12.447577L818.684366,12.054074L817.861671,12.185242L815.995721,13.129649L815.579962,13.228516L815.058014,13.352634L814.118584,13.149324L812.286152,12.257384L806.385691,10.742403L803.108252,10.355461L801.529504,9.889819L799.703427,10.663703L793.570109,11.188371L792.475311,11.555639L790.946598,12.690237L790.111684,12.959131L789.741096,12.827963L788.935477,12.198359L788.437968,12.054074L786.850192,12.067191L783.317610,11.621222L782.278393,11.660572L781.209236,11.968816L779.102428,12.991923L778.042138,13.352634L775.794397,13.772372L773.755780,13.851073L771.903213,13.359193L770.242514,12.054074L769.507016,11.312980L768.716729,10.768636L767.706663,10.434161L766.357170,10.322669L763.908164,10.683378L762.948246,10.604678L761.667075,9.889819L760.160958,8.656856L759.373363,8.289591L757.750622,8.079726L757.635518,7.876419L757.575152,7.594413L756.589326,6.381132L756.042298,6.079452L754.876676,5.790889L754.349206,5.554792L752.899370,4.557940L752.111671,4.308728L750.141897,4.118539L748.831322,3.351228L746.977717,2.918387L743.898065,0.629583L742.797224,0.282000L739.087919,0.485303L738.426181,0.754188L737.463244,0.000000Z M641.404653,416.441072L643.051303,413.838834L644.178005,412.750697L645.317715,412.272171L652.878890,411.754308L653.970462,411.485541L657.201602,409.322234L658.013535,409.217344L658.980737,409.997460L659.637783,410.895559L660.054970,411.944410L660.296054,413.189888L660.501734,415.792166L661.007806,416.683589L663.399101,416.749135L664.148023,417.443907L665.497607,420.504699L665.918870,420.858609L667.582562,421.173193L667.623351,421.189508L668.450935,421.520544L669.229270,422.031733L669.240778,422.042779L669.939396,422.713310L670.569159,423.578371L672.454040,427.529893L675.194557,430.668549L675.984894,430.622684L677.231060,430.983056L678.352957,431.553094L678.800233,432.188643L678.725494,433.433503L678.978718,434.239364L679.655860,434.743838L680.847735,435.077966L682.641102,435.955858L686.733747,440.803547L688.471837,441.360335L690.626356,441.419289L692.213528,442.126724L692.213223,445.775040L692.761241,446.534787L693.556386,447.196277L694.233455,448.054232L694.559493,449.128283L694.981702,451.361418L696.327725,453.463447L696.770061,454.831989L696.790837,455.218314L696.666868,456.187381L696.687686,456.645714L696.897936,457.032019L697.561067,457.765331L697.700291,458.131981L697.431862,459.055135L696.322001,460.521654L696.145502,461.516756L696.111500,462.433270L695.806506,463.140278L695.311927,463.703255L694.662779,464.174577L693.192590,464.816088L691.548615,465.326670L689.974736,466.013978L688.746741,467.205278L688.254787,468.533985L688.132864,469.906499L688.110582,470.157157L688.364688,471.668989L689.057732,472.650660L688.129692,473.272369L687.969881,474.260534L687.900136,475.307562L687.231860,476.099353L682.981243,477.414598L681.318389,478.683986L680.321795,480.267375L679.501034,482.060039L678.349655,483.950726L678.327755,484.123514L678.148915,485.533840L677.695969,487.208446L677.550079,488.725977L678.246670,489.857533L678.883300,490.400402L678.998328,490.851696L678.920999,491.414168L678.968329,492.303637L679.462970,493.520071L679.542268,494.141349L679.154731,494.684138L678.512501,494.998036L677.054280,495.429639L676.374165,495.730450L671.947583,498.408495L669.716393,499.758390L663.129602,503.961764L659.550699,505.419581L655.930261,506.204027L650.951492,508.080082L649.134254,508.067009L646.601197,507.034211L645.708488,506.929623L644.818698,507.145337L642.372116,508.576858L641.005670,509.060554L638.438963,508.674905L637.127233,508.884072L635.988594,509.838375L635.463503,510.720277L634.416316,512.478908L633.507201,513.341612L632.976988,513.727207L632.232861,514.720587L631.831019,515.099633L631.293047,515.334901L629.693447,515.570167L628.678219,515.975344L627.495715,516.674591L626.593615,517.628683L626.385640,518.804928L626.908216,519.660950L627.668361,520.033412L628.252562,520.595366L628.284517,522.039421L627.800156,523.405020L627.022176,524.260948L622.169494,527.926227L621.688647,528.677541L621.766486,529.174056L622.307233,530.284662L622.430293,530.911818L622.323207,531.427909L621.181832,534.367575L620.968316,534.752987L620.492820,535.327833L620.036015,535.700174L619.557917,535.954932L619.085287,536.281544L618.692073,536.869440L618.283786,538.143197L618.239165,539.168716L618.292644,540.181157L618.184193,541.415662L616.936138,540.840868L610.635349,540.279134L609.537623,539.906820L608.509158,539.358142L608.030602,538.946631L607.642371,538.515521L607.215698,538.149729L606.610716,537.934172L606.138241,538.012556L605.070904,538.528585L604.525256,538.620033L602.295169,538.313029L600.470417,537.718614L598.935882,536.673475L596.294805,533.309313L593.216607,530.768095L592.918946,530.232399L592.873695,529.664032L592.889516,529.095659L592.754838,528.533812L591.603051,526.671832L590.305293,525.260599L590.178877,524.642158L590.034133,523.934260L588.142925,523.012987L587.352948,522.294249L586.847917,521.333735L586.570655,519.785105L586.210014,519.373433L585.346853,519.360364L584.171100,519.843914L583.788282,519.909259L583.247325,519.824311L582.199229,519.514867L582.162836,519.504123L581.584750,519.432244L581.748019,518.445523L580.806206,515.040816L580.841837,513.230507L582.240613,510.250155L583.109322,509.413517L583.200675,508.786025L582.726405,508.361154L581.921022,508.125838L580.725535,508.125838L580.046116,508.289252L579.563549,508.086618L578.977345,507.034211L578.681936,506.145194L578.175815,503.144571L577.502519,501.869705L575.085899,499.640699L574.147597,498.404909L572.932444,494.796278L569.272707,483.950726L569.267139,483.950726L569.267611,483.944184L568.876211,483.002126L567.480645,480.574884L566.809292,479.920607L566.131191,479.514948L565.405870,478.873735L564.986968,478.657814L565.761905,477.087428L565.857071,476.066635L566.306128,475.471157L566.874213,475.471157L567.327284,476.223682L567.728988,475.745994L568.214032,474.725157L568.522809,474.456854L569.052868,474.443766L569.196591,474.770964L569.307775,475.163597L569.733733,475.359912L569.991426,475.183229L571.869962,473.292002L572.174103,473.089130L573.739670,472.460873L575.333806,472.290718L575.894688,472.081295L576.897253,471.538098L578.435411,471.217411L579.618604,470.720012L581.449406,469.659742L581.718362,469.388786L581.845705,469.260495L582.242585,468.697615L582.557817,468.029999L582.715671,467.303461L583.021790,467.074369L584.282358,467.133278L584.591305,466.864911L584.901264,465.725965L585.568176,464.737537L587.988492,462.217237L588.364806,461.942283L588.603700,461.562582L588.739199,460.757339L588.618628,460.259780L588.328931,459.866966L588.137674,459.500335L588.297109,459.061682L588.810943,458.655759L589.319152,458.485532L589.840867,458.204001L590.417052,457.470698L590.591375,456.901069L590.802035,455.427845L590.999987,454.917112L591.936177,454.334344L594.190173,453.593307L594.644926,453.443802L595.216471,452.972330L595.179367,452.238916L594.946575,450.765492L595.017622,450.156459L595.417196,449.593258L595.984561,449.259262L596.551949,449.043146L596.958087,448.820479L600.324126,444.917032L601.712323,442.559040L601.676534,442.205379L601.557801,441.032813L601.953679,440.600480L602.294189,441.032813L602.569359,440.928006L603.087137,440.665986L603.434854,440.600480L603.010566,439.971623L602.385788,439.257595L602.178535,438.674572L603.052017,438.432188L603.746003,438.124294L604.458805,437.390577L605.611418,435.837933L605.823406,435.759317L606.074103,435.844485L606.290343,435.864139L606.398051,435.602083L606.433536,435.136930L606.505940,434.940385L606.640186,434.737287L606.789675,434.396604L606.881363,433.885574L606.948548,433.007634L607.424817,432.503138L608.297054,432.201747L608.909161,431.710344L608.587740,430.642340L614.708053,431.074787L616.195081,430.406458L616.764729,429.449811L617.175703,428.447272L617.670032,427.608526L618.489810,427.143277L619.496583,427.274334L620.095679,427.883742L620.551009,428.552113L621.136815,428.873190L622.604851,428.873190L623.095067,428.729033L623.188405,428.355535L623.206320,427.864083L623.470761,427.359520L625.712008,424.548267L628.293030,421.907214L628.491922,421.540205L630.142131,419.272544L630.927375,418.348404L631.518668,417.561886L631.996339,417.758517L634.939258,417.455500L635.624779,417.384917L636.678777,417.883049L637.914477,418.020690L639.177463,417.850277L640.296996,417.417689L641.404653,416.441072Z "/></g></svg>