<?xml version="1.0" encoding="utf-8"?><!DOCTYPE svg  PUBLIC '-//W3C//DTD SVG 1.1//EN'  'http://www.w3.org/Graphics/SVG/1.1/DTD/svg11.dtd'><svg enable_background="new 0 0 1000 950" height="950px" pretty_print="False" style="stroke-linejoin: round; stroke:#000; fill: none;" version="1.1" viewBox="0 0 1000 950" width="1000px" xmlns="http://www.w3.org/2000/svg" xmlns:xlink="http://www.w3.org/1999/xlink"><defs><style type="text/css"><![CDATA[path { fill-rule: evenodd; }]]></style></defs><metadata><views><view h="950.279246765" padding="0" w="1000"><proj flip="auto" id="robinson" lon0="25.4160830785"/><bbox h="165.59" w="174.44" x="321.82" y="137.4"/></view></views></metadata><g class="" fill="#000" id="country"><path d="M389.350183,948.279247L390.360453,947.951737L392.846181,945.520218L393.962360,944.795724L395.324488,944.418590L397.364977,944.150626L405.397318,940.151012L407.357142,940.865584L410.505257,938.642469L411.397466,938.245484L415.345062,938.046991L416.613166,937.650005L418.938260,936.280405L421.523236,933.660294L424.767029,930.315676L427.722172,926.504587L427.601745,924.241748L427.589513,921.859807L427.765508,920.877256L428.666213,919.477863L451.806051,894.080133L460.688677,885.465256L465.316708,880.472975L467.776618,875.639480L469.772540,868.007099L471.267027,864.662340L483.383454,845.715225L486.849425,841.725295L491.285922,838.846983L504.453015,832.674963L512.206700,829.040849L520.753952,821.457947L526.569731,817.418357L557.501186,804.187925L561.507085,803.374049L563.858156,803.374049L565.043859,803.165617L565.785714,802.450994L567.507546,800.684286L568.254513,799.046606L571.677986,796.267513L572.878256,794.778712L573.565559,791.304842L573.924674,790.520740L576.091805,786.848361L576.157800,784.664783L574.924858,780.645013L574.675969,778.987478L575.049229,776.913077L577.245244,771.771738L575.919182,769.032336L576.514160,765.201142L577.747360,761.211143L578.337859,757.945695L578.148111,757.459351L577.778231,756.923381L577.422204,756.248455L577.281571,755.375022L577.581276,754.313007L578.807348,752.347783L579.092182,751.682783L581.007408,749.131962L583.929177,746.084872L585.167449,745.461409L585.545643,745.270992L587.362167,744.903753L591.161494,744.824350L593.213936,744.407484L594.322699,743.266067L596.247935,739.524202L597.110266,738.482038L598.502688,737.171889L600.182459,736.060248L601.890233,735.593756L602.673424,735.047861L605.766834,731.593834L624.629436,722.125043L625.906788,721.817357L633.182039,721.102732L634.711926,720.070496L637.943431,717.122668L639.960752,716.507297L641.741729,716.765356L643.353372,717.261623L645.063827,717.549458L647.113422,717.231847L651.984176,715.445285L655.632624,714.810063L659.141456,713.043353L661.092736,712.576863L664.807046,712.963951L671.918257,715.137600L675.521313,715.594165L678.864602,715.008570L682.242193,713.976335L685.627447,713.430441L688.935136,714.244319L691.023785,715.872075L691.988908,716.259163L693.336757,715.931627L694.014299,715.445285L695.326427,714.234394L696.075219,713.926708L698.178603,714.254244L699.504794,714.904094L702.128270,716.189686L704.533629,716.100358L707.911726,714.611557L709.115894,714.075588L709.320118,713.837380L708.465637,711.008660L708.052139,710.254334L705.765921,707.435541L705.634326,706.105548L706.260919,703.991455L707.930659,700.666474L708.192581,699.703719L707.958590,698.780666L706.794515,696.875007L706.571479,695.773299L706.589524,689.520367L706.307796,687.545236L705.784283,685.768612L704.971763,684.061466L703.960301,682.800958L702.773223,682.294770L700.113702,680.319644L698.200688,675.744106L695.508496,663.744520L695.252013,659.585868L695.407497,655.298196L694.912289,652.430198L694.983234,651.803695L694.988715,651.755290L696.383430,651.348359L703.770496,650.365772L710.114394,646.911832L718.087238,642.584490L727.142189,638.951910L734.401166,636.024016L746.231881,631.279842L754.652434,629.145959L766.648490,626.108902L768.155249,625.979876L776.940598,623.627648L787.865566,620.709698L796.695543,618.347550L804.011247,615.370056L811.993552,610.784722L817.891629,607.400314L830.063301,602.983718L841.268060,598.904577L849.814921,595.798082L856.278447,592.542717L859.536808,591.441055L866.336508,590.061497L874.262988,587.084035L883.220294,583.719508L896.115297,578.876184L910.447225,573.487003L925.123377,567.978735L935.845062,563.949270L943.272074,561.160407L949.465737,558.838011L948.101675,556.912607L945.684390,551.414295L944.525001,550.302724L943.662659,550.838660L942.766803,553.270222L941.976275,554.103901L939.026110,555.056677L937.827790,555.751410L936.637727,557.180575L933.836565,561.944464L932.279335,562.351380L930.417308,559.532745L930.035429,558.073804L930.505145,553.230523L930.681173,552.684662L930.664562,552.178500L930.215713,551.364671L929.551654,550.977606L928.027478,551.066929L927.355246,550.421821L926.896343,548.913261L926.764797,547.484099L926.482127,546.025164L922.500639,540.278754L921.304353,539.077865L918.764401,538.015922L915.685515,537.321193L913.302714,536.110380L912.915344,533.520036L913.856937,532.448171L917.004706,530.810598L917.758333,529.768507L917.329049,528.617245L914.312942,523.595366L912.125328,522.493729L909.039820,522.463955L906.402606,521.789079L905.516372,518.742213L905.950107,516.747360L906.784303,516.003013L907.988502,516.132033L909.533168,516.727511L910.600454,516.538943L912.944250,514.375373L914.097902,513.571478L917.215556,513.055398L918.340503,512.201880L918.788963,510.028388L918.796585,508.281656L919.030766,506.773115L919.770741,505.731031L921.327829,505.463067L923.768116,504.033924L925.398089,500.351899L926.696093,495.221875L928.069133,489.792149L929.730245,486.050591L931.921818,483.083150L934.480762,482.259413L934.977991,480.919600L934.754219,479.808051L933.479604,477.599842L932.881392,475.972219L932.582545,474.364445L932.537868,472.697126L934.202538,462.067976L936.700542,456.202602L937.179264,453.532916L936.537300,451.200664L934.539839,449.066903L932.320290,447.469063L931.805725,446.426994L931.536492,439.380630L931.886157,437.703398L933.101105,435.093269L936.300164,430.031806L939.067810,424.285562L939.996851,422.985463L941.226773,421.804457L941.924819,421.476951L942.503344,421.625818L942.939360,422.151812L943.272380,422.906068L943.844493,423.531306L944.587965,423.144254L945.376950,422.419771L946.061062,421.983097L947.405493,421.586120L948.043471,421.506725L948.840817,421.754835L949.407310,422.419771L950.340888,424.543597L950.682305,425.029894L951.545327,424.990196L951.960904,424.513824L952.260295,423.858812L952.783161,423.293120L953.219794,422.975539L953.605143,422.628184L954.129770,422.280829L954.988276,421.973172L956.196806,421.060126L957.702844,417.765220L958.708103,416.534594L959.397493,416.207088L961.648001,415.790263L962.698542,415.879583L963.502397,416.336105L964.191807,416.832326L964.854254,417.080436L966.732333,416.604064L968.699388,415.244420L970.489115,413.299237L971.878088,411.086096L972.866806,410.103580L975.458428,408.952350L976.238847,407.811044L976.382950,405.449039L976.788530,404.734483L978.076523,404.476448L978.735931,402.888546L980.984422,401.394843L981.350310,401.151779L982.156403,399.603575L982.087042,397.648472L981.133258,397.241572L979.721118,397.291194L976.469999,396.001025L970.196055,398.104993L967.271730,396.943841L965.731877,394.095545L964.449409,387.406520L963.492018,384.270421L962.557087,382.950481L960.265918,380.409845L959.677645,378.851722L959.654059,375.616383L960.055411,372.430667L963.633946,363.657549L964.569053,358.754928L965.098132,357.226581L965.425909,355.728007L965.135637,354.358450L964.248570,352.254493L964.285449,350.716222L965.507663,347.093844L965.898671,343.580635L965.395241,327.979617L964.943289,326.431425L963.843833,324.972552L962.474728,324.704596L960.987337,324.913006L959.584659,324.903082L958.189812,324.317548L957.932339,323.573225L959.255421,320.586010L959.855826,318.789711L959.985425,317.608719L959.825695,309.431097L960.657260,308.071468L962.749436,310.056328L963.496859,308.746321L963.549114,307.515708L963.418575,306.275171L963.596117,304.925467L963.994166,304.409403L965.301743,303.784173L965.784989,303.337579L965.914790,302.752046L965.653244,301.670298L965.797207,301.045067L972.002113,290.813122L973.236335,288.123639L974.048196,285.255519L971.492621,279.936099L969.671983,277.822226L968.177505,275.410623L967.033933,272.750914L966.293002,269.862945L966.115952,267.039025L965.933724,264.136630L965.378810,261.109722L964.189553,259.938655L963.024771,260.127217L961.969692,260.127217L961.316754,259.601229L961.427857,258.221753L962.218572,256.534623L963.015958,256.226970L963.889507,256.494926L964.917665,256.524699L966.183111,255.671210L967.837972,252.971803L968.893719,251.969449L970.047735,251.532780L972.187956,251.066338L973.374889,250.540351L974.545162,250.312092L977.323634,250.927398L978.616495,251.006793L979.739117,250.441108L981.319806,248.724205L982.608893,248.456249L984.367381,247.265334L985.340608,245.598053L986.816854,241.737502L991.061878,236.557019L992.209003,235.723378L993.304915,235.177541L996.681475,232.488056L998.025087,231.148276L999.473285,228.816065L999.453519,228.433927L999.435233,228.080461L999.386502,227.138858L998.834800,225.392181L998.887631,222.871408L996.597998,222.533981L995.337891,220.846849L993.801013,216.539700L993.176801,215.715982L990.882449,213.353996L990.195993,212.232549L988.132014,206.307733L987.885391,204.005291L988.553936,198.636234L988.434149,195.609315L987.265026,194.051196L985.623023,192.731260L984.110759,190.408967L981.942319,189.545550L980.450829,188.126371L979.114497,186.429310L977.385387,184.732248L970.577223,181.288503L969.486133,179.531894L969.599484,177.050809L970.103902,174.629268L971.802966,170.095395L974.414080,165.718743L975.065360,163.694168L974.589077,161.014583L973.353813,157.223466L972.821842,156.479136L969.728196,155.188965L968.713025,154.573652L967.724774,153.561363L967.028058,152.400209L965.868251,149.790091L964.969679,148.668634L962.887839,147.199822L962.121334,145.840178L961.927898,144.420988L962.224151,143.517867L962.678831,142.743763L962.938808,141.711624L962.846533,140.252735L962.501229,138.972486L961.339968,136.560853L959.682124,135.221057L955.131615,134.953097L953.200915,133.891185L952.654105,136.382214L952.308535,139.220596L951.525474,140.977218L949.675343,140.213038L949.251491,139.299992L949.086543,138.138835L948.769922,137.116620L947.851572,136.630324L946.705011,136.947905L945.754122,137.672388L944.809007,138.148760L943.701369,137.731934L942.731921,135.121812L944.384705,128.194566L944.409993,125.574517L943.668309,125.177540L942.475412,123.897288L941.916802,123.510236L940.933514,123.559858L940.359748,124.026306L939.840125,124.224795L939.036953,123.460614L938.665038,122.160513L938.609185,116.553207L937.329425,115.620310L931.077676,112.930787L927.223150,110.003076L926.606346,109.864134L925.135724,110.032849L924.521360,109.784738L924.048390,109.070178L923.818588,107.631134L923.520637,106.896725L922.382224,105.477528L921.331318,104.832439L915.293095,104.256821L908.067831,102.470420L904.900182,102.182611L903.770954,101.319184L902.603426,99.215199L901.057283,94.848438L900.160632,93.518561L897.146001,91.196237L893.752207,90.243488L882.739429,90.491600L880.946076,90.233564L879.257738,89.558700L877.624219,88.159351L874.591358,84.606392L873.820937,84.131826L872.867400,83.544474L872.099737,83.504776L870.466092,83.941452L869.669696,84.020848L868.798153,83.733038L866.399728,82.145123L864.250004,81.797767L862.891425,82.442857L861.651479,83.465078L859.874295,84.288809L856.305633,83.316211L854.664835,79.544912L854.773232,74.801012L856.444133,70.910617L843.930267,67.030144L841.961180,67.218709L839.042598,68.975343L837.298887,69.670057L835.595964,69.660132L834.176507,69.034890L826.189631,61.988505L824.297328,59.050856L823.747429,54.942116L823.828540,51.359373L823.292419,48.917947L821.638358,47.330027L818.409613,46.287954L817.083573,45.325278L815.313637,42.963246L814.001192,42.189135L812.727931,42.079965L811.576411,42.218908L810.491165,42.099814L809.380773,41.266156L809.105857,40.591289L808.860856,38.844576L808.558315,38.239181L807.816804,37.742956L807.543440,37.871974L807.317596,38.249106L806.709519,38.517067L805.726381,38.755256L801.319348,40.511893L800.658921,40.998194L799.937091,41.276080L798.853391,41.077590L797.964296,40.313403L796.413256,37.891823L795.441077,37.127636L793.405554,37.127636L791.585285,38.179634L789.837018,39.569065L788.026462,40.571440L784.475892,40.541667L780.771389,39.003368L777.327021,36.661184L774.600714,34.219755L769.014821,27.371841L763.804077,18.628340L759.754341,9.120645L757.713512,0.000000L743.266665,2.481134L721.483147,6.222682L704.407496,9.160343L681.889212,13.030908L659.345479,16.911397L657.951564,17.150673L640.150915,20.206339L626.767628,22.508827L612.096419,25.029655L601.934778,26.766445L599.711086,27.748973L599.984379,29.555234L603.437925,38.090314L602.857680,46.645236L599.547608,54.892494L588.454545,71.049559L574.103270,86.640908L566.132491,93.171205L558.356635,97.270006L554.690073,99.959533L552.945548,103.502563L554.235586,107.015818L557.824395,108.583881L561.952874,109.556476L564.870007,111.303178L566.560375,113.714818L566.707758,115.550839L566.516514,117.287616L566.358235,118.677037L566.747785,120.175626L567.730443,121.257390L569.726888,122.944543L570.313779,123.946911L570.637551,125.008825L570.769845,126.259303L570.776735,127.886909L571.166077,129.157235L572.186885,129.623683L574.846501,129.554212L574.268543,130.298544L572.355927,130.993254L571.917647,131.519248L572.240017,132.422370L573.796695,134.456876L574.137181,135.756975L574.293178,136.679946L575.003640,138.674754L575.157155,139.716817L575.175692,144.182802L575.651692,146.098213L576.769945,147.973925L577.603213,148.628936L578.330307,148.926668L578.851154,149.492359L579.023212,150.891700L581.179201,153.432346L581.004372,153.869020L579.431900,154.573652L578.584993,156.280648L577.674401,160.429044L574.949040,166.631786L574.561016,168.705982L575.039798,175.621703L574.646642,183.273371L573.816149,187.034694L572.435432,189.992145L570.291663,192.721336L569.459570,194.497791L572.279394,197.256753L572.435744,197.693423L572.588166,198.715629L572.812792,199.221769L573.018319,199.400407L573.749171,199.896623L573.896414,199.946245L574.309438,201.821941L574.041560,203.310589L573.524133,204.838934L573.231609,206.853571L573.440878,209.255255L574.057788,210.962237L574.791937,212.490581L575.361342,214.366276L575.432162,215.507571L575.274611,216.718337L574.918589,217.829860L574.402293,218.693275L574.024675,219.596387L574.690197,221.055260L574.329757,221.968296L574.317895,223.288228L575.386808,225.034906L577.379445,227.595376L577.384665,228.726746L576.872223,230.771152L576.707725,231.882674L577.139413,232.855255L579.072342,234.552311L579.511995,235.167617L579.023485,237.102855L577.901607,238.889229L576.546599,240.377873L575.341019,241.429849L574.858202,241.568789L573.787520,241.479470L573.284338,241.747426L572.906798,242.243641L571.571412,244.595699L570.922040,246.689725L570.272897,247.622609L568.803792,249.329587L567.658326,251.373992L566.840304,253.587109L566.369853,255.849847L566.271891,260.107368L566.056014,261.149419L565.182486,263.104504L564.967696,264.096933L564.630125,265.119135L563.108286,266.826113L562.586439,267.709374L562.463807,268.672031L562.581664,270.726359L562.493606,271.698939L562.151295,272.731065L560.989552,275.063273L559.751701,276.919115L559.677528,277.851999L560.464001,282.963008L560.470531,284.163847L560.231254,285.066957L559.483427,286.277721L559.256697,286.833481L559.127643,287.865607L559.155445,291.100926L557.499415,294.753066L556.672611,295.795116L555.845973,297.194442L555.442611,299.298392L555.997492,302.871137L555.537337,303.158942L553.623768,304.806375L553.326825,305.193422L548.804956,312.348841L548.545692,314.055820L548.525423,319.186683L548.881465,320.665404L549.306970,321.439500L550.235434,324.267926L550.843069,325.250432L552.045533,326.669608L552.520701,327.542947L553.834444,333.259349L553.758258,334.222007L553.434718,334.618979L553.979108,335.502243L555.166803,336.792404L555.403933,337.764986L556.065329,344.404354L556.723135,345.615121L558.070483,346.081564L559.064516,347.083920L559.643169,351.758276L560.507261,353.237001L561.643844,352.562147L562.521945,352.631617L563.266215,353.167530L563.996954,353.892006L564.384274,354.417996L565.338452,356.283770L565.577205,357.167035L567.587130,355.896721L568.704175,356.839532L570.101313,360.442064L571.174608,361.384876L575.250935,363.925506L577.010160,364.441572L579.967155,363.945355L580.713861,364.709529L580.905549,367.389100L581.346872,368.838054L582.478638,369.860262L585.401737,371.656568L586.436237,372.728397L587.535770,374.306369L588.410666,376.142373L588.737803,377.938681L589.474325,379.070057L594.381694,382.196230L596.486444,385.243008L602.968444,399.355465L603.151272,400.318131L603.265022,401.578527L603.658518,401.836561L604.294391,401.826637L605.134419,402.312932L606.350943,402.402251L607.818200,401.598376L609.156583,401.370115L610.019870,403.235900L611.484423,402.213688L613.262719,401.340342L615.337911,400.754803L622.215894,400.615862L623.052316,401.072384L624.515829,402.948093L625.537150,403.960380L626.314994,404.327583L627.285217,404.506222L630.660927,404.595541L631.318247,404.754331L634.758696,406.907924L636.979338,407.830893L637.534613,407.900364L638.726332,407.781271L639.277805,407.830893L639.722809,408.108776L640.007508,408.515676L640.353695,408.902728L640.973911,409.140913L642.598238,408.962274L643.885243,408.079003L644.768978,406.669739L645.114920,404.873424L644.762316,403.146580L643.766074,402.650361L642.471505,402.551117L641.172140,401.995351L638.738005,398.382876L638.436577,397.628623L638.593355,396.834673L638.926174,395.971252L639.331885,393.718419L640.448910,389.967006L641.013131,388.756234L642.331159,387.684402L646.070867,386.265218L647.751399,385.153689L649.010076,383.863522L649.790242,383.516170L650.935430,383.516170L652.007221,383.972690L653.472666,385.639983L654.363156,386.195747L655.808456,385.888092L660.281729,383.605489L663.179856,381.283189L664.984142,380.588484L668.633697,380.251056L668.637570,380.417276L668.644763,380.726076L668.645719,380.767122L668.347636,390.979292L668.015090,402.164066L667.551883,418.142348L667.114656,432.512914L666.609862,449.285241L666.163677,463.665820L665.735029,477.262408L665.282354,491.608345L664.947789,502.217723L663.558747,505.234801L662.281098,505.492841L656.874137,505.423369L653.557862,504.391210L651.765040,503.587317L650.494874,502.753651L649.789641,501.929910L649.254478,500.947375L648.852156,499.885444L648.564367,498.773890L648.605297,497.434071L649.273340,496.917993L650.078636,496.749275L650.609560,496.451537L650.793364,495.558325L650.686776,493.632957L650.842003,492.819143L651.455176,492.104573L652.972563,491.687742L653.609242,491.201438L654.027316,490.467020L654.386776,489.514262L654.557266,488.482107L654.368996,487.519425L653.635701,486.457498L652.983926,486.437649L652.244861,486.715536L651.239758,486.586517L649.656634,485.435269L648.261477,484.105379L646.742692,483.122849L644.780368,483.003754L642.811938,483.956511L637.776840,489.117279L636.018428,490.318151L623.974258,495.439230L618.976472,499.081552L617.036454,499.964840L615.883966,500.689335L614.200637,502.862822L613.287766,503.428524L612.018084,503.140710L611.313072,502.009306L610.787169,500.560316L610.071076,499.359440L608.221784,498.386831L606.194472,498.416605L604.069763,498.793739L603.434448,498.802298L601.859825,498.823513L600.310101,499.458686L598.768129,499.835821L597.404128,499.498385L596.344760,497.989848L593.862899,495.181191L592.615374,491.211362L590.448366,477.063917L589.516042,475.624860L588.756553,475.267577L587.119297,475.178257L586.330189,474.642332L585.631017,471.307693L585.358949,471.089353L584.901015,470.980184L584.427404,470.811467L584.108874,470.394637L584.024333,469.858713L584.170771,468.856337L584.122202,468.429583L584.152216,467.992905L584.582798,466.940907L584.649029,466.454606L584.338844,466.047701L583.220934,465.591174L582.880848,465.164420L582.236155,461.710694L581.656949,460.668622L580.210231,459.229570L574.747674,450.893005L571.480650,447.012538L567.573900,446.059789L566.454553,446.873595L565.158434,449.642522L564.308042,450.793760L562.984301,451.448776L561.715490,451.389229L560.853001,450.496026L560.705201,445.523868L559.437146,443.251167L557.641452,441.167031L555.971069,438.636296L555.456054,436.175033L556.333779,434.805460L557.725766,433.723696L558.735681,432.135786L558.861099,429.634828L558.044628,427.828582L555.294415,424.474126L554.313196,422.310602L552.800860,417.576657L551.703229,415.512379L544.895169,408.714164L543.465365,407.811044L541.895383,407.265203L540.227200,407.136185L538.539465,407.414069L536.319081,407.423993L534.877527,406.302536L533.643525,404.903197L532.045396,404.099322L529.922357,404.704709L528.640781,406.084200L527.388947,406.669739L525.391245,404.843651L525.030960,403.980229L524.885797,403.047337L524.606866,402.233537L523.845807,401.707544L517.659850,401.032686L516.390643,401.122006L514.867826,401.419737L513.004022,400.774652L512.513293,398.730229L512.258388,396.318605L511.075825,394.581839L506.369666,391.376267L504.672921,390.651788L502.549964,390.413603L501.424600,391.167855L500.463404,392.477872L498.828109,393.926831L496.148700,394.671159L492.268704,394.869646L488.524686,394.522293L486.187376,393.648948L482.687488,389.202830L482.238053,388.784612L477.813047,384.667395L476.547821,382.702372L472.778333,369.453364L472.516700,365.612644L468.759678,357.960981L453.299226,347.123617L451.461433,338.757418L451.704175,335.522092L451.449751,330.827893L450.673366,326.441349L449.289998,324.128986L448.738908,324.218305L446.300847,325.250432L442.685085,325.597783L439.468287,326.768851L438.630822,326.808548L436.781976,326.500895L436.047216,326.619987L434.877947,327.989541L434.882995,329.815613L435.832981,333.874656L435.624078,336.445053L434.717986,337.913851L433.440515,339.243709L432.100848,341.357588L431.191631,345.148678L430.663659,353.008741L428.918891,356.730364L425.897180,359.935923L422.597439,362.029958L418.996495,362.893375L415.070796,362.417007L412.909840,362.446780L411.600446,363.647625L410.580780,365.295065L409.270689,366.704321L407.544468,367.131068L406.108062,366.376818L404.700987,365.126351L403.106383,364.064447L399.953618,363.320122L393.137112,362.794132L390.149508,361.692530L388.630648,360.362670L387.375619,358.923641L385.967711,357.683100L383.980596,356.988397L380.755130,357.087640L377.605311,357.673176L376.724370,358.089998L375.039300,359.360312L374.087978,359.806907L373.096343,359.747361L371.376153,358.814474L368.339597,359.032809L366.653708,358.119771L364.974978,356.899078L363.103712,356.085283L348.550658,356.313543L347.465678,356.144829L346.002509,355.380656L344.913078,352.393433L343.733802,351.401001L341.948336,350.626903L337.444645,346.438839L337.132746,345.982321L336.713341,345.654818L335.802645,345.476180L335.179997,345.654818L333.487078,346.538082L332.552161,346.657174L327.700431,346.617477L326.156912,346.299899L322.980993,344.205867L320.376340,341.496529L317.530531,339.422347L313.674128,339.273482L312.998127,339.888790L312.732072,340.871297L312.380885,341.764485L311.467630,342.082063L310.400906,342.250777L309.795721,342.816463L309.267158,343.461544L308.472536,343.927986L306.815627,343.997457L305.553781,343.352376L305.051758,342.042366L305.837482,339.640682L305.888248,339.124617L305.860593,338.608553L305.732289,338.112337L304.283683,336.653463L299.514276,334.063218L298.791048,333.279197L298.408275,332.465404L297.882110,331.830248L296.772498,331.572216L295.700523,331.582140L294.988431,331.472973L294.404245,331.095849L293.734274,330.262207L292.976976,328.644545L290.874375,320.804344L290.667558,319.097364L290.704419,318.204177L291.064138,317.291142L292.247682,315.762799L292.380784,314.849764L291.789849,313.162633L289.961758,309.431097L289.358649,307.485935L289.321960,305.133877L290.050904,304.062053L291.054714,303.178791L291.807210,301.412266L291.388994,300.588550L290.465211,299.764833L290.020796,298.941117L291.015203,298.087628L292.792193,297.323457L293.459872,296.668454L293.523294,295.735570L293.390683,293.770561L293.547422,291.309336L293.418585,289.155765L292.411507,288.133563L289.742288,288.629778L281.654246,293.115557L276.590634,294.316397L264.501073,295.537085L261.273843,295.219507L257.718074,296.440195L251.378084,299.923622L248.092885,300.717566L241.729646,300.737414L238.455996,302.235983L237.529449,303.198639L235.937825,305.540773L235.090118,306.483581L234.191156,306.959947L232.290110,307.426389L231.523968,307.803512L230.776296,308.547835L230.254186,309.341778L229.886453,310.254814L229.593607,311.336562L229.027896,312.130506L228.135615,312.289295L227.152672,312.199976L226.323273,312.269446L222.771380,313.748167L220.967974,314.135214L219.019755,313.946653L217.348113,313.033617L214.550923,310.086101L212.694767,308.815791L211.140864,308.518062L207.629333,308.478364L206.284475,307.763815L205.605417,306.036988L206.707233,305.014785L210.244469,303.813945L211.324859,302.563484L214.125196,297.779975L214.810669,296.231785L215.171369,294.366018L215.361514,292.311690L215.297768,290.306983L214.887504,288.619853L214.320172,287.796137L212.919693,286.357115L212.462721,285.245595L212.551216,283.885967L213.197519,282.963008L213.920674,282.119443L214.239483,281.007923L213.328557,279.052838L211.243532,276.948888L208.837330,275.202213L206.955517,274.259406L205.382018,274.031147L202.251882,274.041071L200.591971,273.773115L197.491192,272.740989L196.079761,272.691368L194.367464,273.306674L192.661852,273.584554L192.136111,272.393639L192.338595,269.198018L192.203316,268.096422L191.648403,266.161185L191.459753,265.109210L191.538075,264.225949L192.042481,262.509046L192.050036,261.675406L190.171742,259.621078L186.564506,258.132434L182.622209,257.278945L179.755469,257.169778L180.239745,261.883816L180.740018,263.511400L182.324139,266.339822L182.610496,267.749072L182.033801,269.594990L181.694989,271.311892L181.660078,276.631311L181.212018,280.333071L181.665141,281.662926L183.306901,281.960655L182.684611,295.636328L183.123270,298.087628L186.656592,307.356919L186.685333,308.508137L185.848167,309.808220L183.160020,312.120582L182.215597,313.549681L181.993332,314.611581L181.942280,315.822345L182.112491,318.134707L182.071595,319.692822L181.682189,320.824193L179.263065,324.863385L177.684633,328.694167L177.200730,330.589709L177.149942,333.021165L177.755864,334.877011L178.597563,336.703085L179.271871,339.025374L179.477319,346.200656L179.819143,348.562644L179.659039,349.535228L177.747221,354.209585L176.975778,366.575305L176.115901,380.042644L176.465459,384.339892L178.228413,387.317200L180.306418,389.818141L181.114594,392.239687L181.331724,398.104993L182.061591,402.432025L181.789568,404.069549L181.064753,405.707073L178.112398,410.361614L174.157147,416.613989L173.075470,419.382900L171.407623,426.071958L169.642756,433.158003L167.906269,437.485060L167.260924,441.286124L167.955020,444.362706L169.606476,447.052236L174.068482,452.322130L175.874059,455.081135L177.237420,458.127952L178.146041,461.621373L175.422651,461.621373L164.972841,461.621373L154.505629,461.621373L144.047118,461.621373L133.579907,461.621373L123.112695,461.621373L112.654184,461.621373L102.186972,461.621373L91.719760,461.621373L81.261249,461.621373L70.794037,461.621373L60.335526,461.621373L49.877015,461.621373L39.418504,461.621373L28.959993,461.621373L18.492781,461.621373L8.025569,461.621373L7.715359,476.091313L7.400891,490.546416L7.081238,505.026385L6.757141,519.496485L6.559926,528.200426L6.428106,533.976572L6.094794,548.436874L5.756229,562.917093L5.413325,577.377534L5.065324,591.847975L4.712181,606.328420L4.354351,620.799023L3.991552,635.269711L3.623745,649.740489L3.250912,664.211004L2.873121,678.681977L2.490520,693.153021L2.386415,696.974260L2.330851,699.008948L2.251276,701.917064L2.135250,706.145249L1.856001,715.951478L1.566320,725.747797L1.265983,735.544129L0.980757,745.350395L0.840489,749.687783L0.910883,749.955768L0.737494,756.049948L0.571057,761.876142L0.526715,763.424501L0.657862,765.498904L2.795641,768.595619L5.565301,773.796513L3.440422,773.875916L2.758292,773.796513L3.611615,775.146362L3.879790,776.357257L3.991702,777.578077L4.323348,778.987478L4.679434,779.553224L5.656065,780.525909L5.929528,780.952699L6.040997,781.885683L6.022478,784.009710L6.144300,784.585380L8.912937,785.290080L10.269315,786.004706L10.069619,787.205673L9.254057,788.436417L8.511745,790.123726L8.017393,791.920214L7.900959,793.528119L8.255742,794.719160L9.614909,797.389076L10.041939,798.768697L9.942702,800.078841L9.695761,801.111075L10.021652,801.805848L11.616673,802.044055L12.508338,802.639575L12.830928,804.029120L13.007861,805.656873L13.514544,806.967014L20.533285,813.478015L21.654441,813.914729L22.306175,813.835326L23.586307,813.299360L24.398057,813.081003L24.710012,812.783244L25.001085,812.604589L25.399997,812.872572L26.001077,813.616970L26.323539,813.835326L28.544515,814.262114L29.339587,815.175241L29.855777,816.435753L31.112245,818.410886L31.648908,819.562219L32.081711,820.137885L32.541408,820.395942L33.874873,820.673850L34.638407,821.189964L35.262453,822.023688L41.006588,832.673490L41.815535,835.373154L42.513828,836.593957L43.691907,837.407826L46.312229,838.320946L47.339210,839.541748L47.488477,840.315915L47.428172,841.993275L47.757605,842.817068L48.238032,843.233926L49.302167,843.243851L54.226390,845.477021L55.365099,846.429839L58.980890,850.925946L60.598549,853.437013L61.695289,855.997703L62.480909,860.473940L63.215024,861.893233L64.281327,862.925446L66.836927,864.463838L70.062620,867.788747L72.268597,869.426387L77.243473,871.848106L81.192852,873.049040L82.379458,873.813270L85.740973,877.971866L86.207667,879.063620L86.773626,881.644128L88.264505,884.502531L90.239053,887.102880L92.178741,888.899302L95.828508,890.487298L96.668467,891.519495L96.860754,893.057863L96.630597,894.556531L96.638059,895.926172L97.619353,897.127089L99.048768,897.573711L100.498498,897.395062L101.938372,896.988140L103.372124,896.769792L106.078982,897.017915L107.285154,897.414912L108.500171,898.069957L110.166987,899.449521L111.670977,901.573451L113.524344,903.320232L112.882527,904.699791L112.911267,905.930476L113.345966,907.171084L116.776214,906.436644L119.728116,905.791528L121.302822,905.751828L123.811277,905.186110L127.417278,904.372270L131.040658,903.558430L134.646837,902.744589L138.244130,901.940672L141.850485,901.126830L145.456930,900.312988L149.063132,899.509070L152.678399,898.695227L156.293755,897.881384L159.900220,897.077465L163.507106,896.263620L167.105434,895.449775L170.720809,894.645855L174.327959,893.832010L177.935196,893.018163L181.542522,892.204317L184.034373,891.648519L185.569276,891.519495L187.117008,891.777544L191.538572,891.946268L192.443902,892.531841L193.130175,892.184467L196.669384,891.092721L198.155824,890.864447L199.658594,891.172121L203.147471,892.571540L205.637426,893.087638L207.190226,893.951109L209.303028,894.367957L209.959078,894.903904L210.455043,895.568875L211.160892,896.164371L212.473671,896.710242L213.204514,896.829341L214.002025,896.769792L214.898645,896.343020L216.213414,895.072628L217.149776,894.496981L217.621961,893.841934L218.223853,893.186888L219.046913,892.889139L222.808314,892.889139L229.907343,894.139683L230.341103,894.348107L230.740663,894.794729L231.295852,895.241352L232.170569,895.449775L234.864122,895.320751L240.569459,896.601068L242.760382,897.742435L243.764215,899.449521L245.497669,898.586053L246.473670,899.375261L246.565503,899.449521L247.472012,900.968032L248.764820,902.069696L249.558471,902.119320L251.142834,901.563526L252.003982,901.414653L252.295423,901.732249L251.675922,903.369857L251.652548,904.034824L252.145435,904.769265L252.573419,905.136486L253.173687,905.275434L254.150234,905.285359L254.370717,905.652580L255.839402,907.151235L256.110084,907.319957L256.710435,910.148540L256.850253,910.595158L257.612581,910.793655L258.190784,911.309747L258.582530,911.964786L258.775447,912.619824L259.548844,911.528093L260.146699,911.488394L261.332172,912.917569L261.572138,913.463434L261.433758,914.684187L261.543694,915.239976L261.892284,915.646893L262.815049,916.192757L263.251817,916.550050L264.275779,918.138017L264.887497,918.435761L266.302152,918.515159L267.440732,918.822827L268.546085,919.577110L269.432635,920.648986L269.916608,921.859807L270.472261,922.514841L272.007814,923.318746L274.478748,925.512114L276.089418,926.385490L276.897137,926.514512L279.511661,926.385490L282.236378,927.516909L283.128697,927.695553L289.424274,927.695553L289.852420,927.804725L290.620883,928.300961L291.144081,928.410133L291.626916,928.201714L292.393426,927.318414L292.893915,927.100070L298.554721,925.899178L303.065623,923.765360L305.113888,923.527166L306.157763,924.291371L307.141079,925.293770L310.236262,926.206845L312.049072,927.209242L313.682078,928.400208L314.371324,929.402604L315.129142,930.891308L318.848884,932.667827L319.954920,934.315322L318.587264,934.851254L318.424625,936.220857L318.980461,937.788950L319.786317,938.900509L324.778331,941.530533L328.323785,941.679402L329.296948,941.530533L334.008072,938.900509L334.553683,939.565459L335.098212,938.394353L336.440956,938.066840L338.006694,938.017217L339.195407,937.650005L339.287167,937.272869L339.168287,936.052138L339.268314,935.684925L339.777572,935.466583L341.244312,935.059672L342.684816,934.196226L344.635493,933.789315L345.395580,933.332780L348.462216,930.801986L349.221245,930.375224L349.977781,930.712664L350.544119,931.516564L350.986129,932.409785L351.404643,933.005266L352.153589,933.312931L355.980308,933.809164L356.760071,934.216076L357.422667,934.752008L357.928230,935.327638L358.527139,935.486432L361.657122,934.970350L365.463453,935.774247L371.746292,939.644856L375.182147,940.865584L377.377826,941.292342L378.745555,941.907668L379.805218,942.900128L381.040208,944.507911L382.156833,945.589690L383.475524,946.353882L388.162781,948.041058L389.350183,948.279247Z "/></g></svg>