<?xml version="1.0" encoding="utf-8"?><!DOCTYPE svg  PUBLIC '-//W3C//DTD SVG 1.1//EN'  'http://www.w3.org/Graphics/SVG/1.1/DTD/svg11.dtd'><svg enable_background="new 0 0 1000 995" height="995px" pretty_print="False" style="stroke-linejoin: round; stroke:#000; fill: none;" version="1.1" viewBox="0 0 1000 995" width="1000px" xmlns="http://www.w3.org/2000/svg" xmlns:xlink="http://www.w3.org/1999/xlink"><defs><style type="text/css"><![CDATA[path { fill-rule: evenodd; }]]></style></defs><metadata><views><view h="995.490491638" padding="0" w="1000"><proj flip="auto" id="robinson" lon0="29.3282584809"/><bbox h="113.72" w="114.35" x="368.2" y="261.84"/></view></views></metadata><g class="" fill="black" id="country"><path d="M744.024130,993.490492L754.503407,985.830826L763.058151,979.533611L770.029816,971.662164L777.058596,963.699971L784.100756,955.737853L791.130140,947.775807L798.160600,939.798693L805.177566,931.836779L812.221078,923.874927L819.252627,915.897995L826.296925,907.936253L833.328547,899.974562L840.360606,892.012917L847.393866,884.036179L854.426855,876.074616L861.473440,868.113089L868.507438,860.151594L875.555072,852.190127L882.577049,844.228686L889.084927,836.872696L893.864213,831.363282L898.598106,834.783961L898.460948,834.096947L898.335206,833.467150L889.932552,816.363784L890.117990,815.788627L890.648826,814.986436L891.159364,814.063158L891.220565,813.079338L890.868276,812.776624L890.309615,812.806896L889.743759,812.716081L888.685957,811.020884L886.905243,809.764622L886.266579,808.478088L896.739342,794.840840L903.585915,785.941059L906.862762,779.523526L907.922604,773.923316L906.917935,758.711907L905.857205,742.985815L906.399739,736.931473L908.039339,730.710621L912.314474,725.080052L917.863865,724.308118L923.809409,725.110324L929.291194,724.111350L932.692767,720.281947L937.267877,711.487911L941.668266,703.057096L950.451674,691.977387L956.467311,684.378956L957.543502,682.502045L958.341911,680.398086L959.466201,675.917699L959.457315,674.752190L958.699584,672.784446L958.591377,671.770299L958.936419,670.347465L960.838664,666.881191L961.579599,664.610699L962.872341,657.481325L964.092273,656.164428L966.181577,655.740599L968.230905,655.059445L969.318562,652.955432L970.272537,648.474930L972.086880,646.825010L978.878630,647.082337L978.566272,645.947069L977.971413,642.526121L978.959684,631.704471L981.837752,623.076234L982.329628,617.036421L983.358020,613.600219L983.896218,610.784644L982.700526,609.164928L979.944391,607.878235L977.296509,605.986037L975.294859,603.639706L974.368683,601.066305L975.696304,595.389660L975.656607,592.422654L973.463522,591.029975L971.054902,591.907969L967.049761,596.161686L964.142617,597.024537L961.219722,596.858022L958.947504,596.282788L957.572138,594.693323L957.302567,591.438696L957.781870,589.955189L958.592678,588.683609L959.199783,587.275786L959.108106,585.368411L958.862239,583.930308L958.888016,582.583031L960.307845,571.986406L960.398728,569.291818L959.684672,566.112801L957.929448,565.431582L955.600019,565.749484L953.166887,565.628379L951.903184,563.887484L951.903840,560.874971L952.992791,554.925613L952.936992,550.626310L953.308747,549.188159L958.340098,543.299290L960.350684,540.059642L961.481645,537.607192L962.055092,534.988211L962.361004,531.370071L966.931675,513.218644L966.364376,508.192511L965.361238,506.754306L964.219995,505.724853L963.268011,504.589426L962.722971,502.787879L962.515632,501.077164L962.182009,500.077985L961.477119,499.411865L960.125281,498.791161L957.927752,498.518657L949.957306,499.820620L948.231357,499.729786L946.816600,499.184778L945.865712,498.019067L945.649807,496.066119L945.949306,494.204003L945.815406,492.599250L945.010877,489.329182L945.281084,487.527613L946.576646,486.301334L948.256204,485.302142L949.671786,484.181835L948.128414,483.016109L947.414996,480.866327L946.909818,472.963573L947.169980,471.646443L959.724818,465.348421L963.611317,464.727701L968.803034,465.166747L972.174904,464.848818L974.473272,462.895818L975.993045,459.746791L977.069278,455.825635L977.564278,450.980948L976.767846,446.984068L973.333634,438.657198L971.951053,433.403675L971.659858,430.390838L972.093278,427.923033L973.768601,425.924562L976.002231,424.925325L978.462147,424.153187L980.796598,422.836010L983.356961,421.200892L986.224102,419.762592L988.586146,417.870090L989.570441,414.902641L989.194010,413.403775L987.674112,411.299303L987.558133,409.860994L987.915311,409.966975L990.799600,405.682318L994.620202,402.624005L995.296631,401.004005L994.435240,398.203067L992.263643,395.386983L986.560201,390.087887L984.770428,386.984122L984.307730,384.788773L984.588979,383.577545L985.392955,382.457158L986.472750,380.519190L987.760598,377.385126L987.897746,376.295016L987.711410,371.450073L983.935605,356.339819L983.813838,353.039165L984.634936,350.147303L984.812519,348.890629L983.346436,346.846638L983.206696,345.468836L983.907198,344.303002L984.956214,343.576249L985.990937,342.592103L986.587801,340.684372L986.471749,338.095306L985.154274,333.992158L985.090245,331.130549L985.579827,328.268935L986.539262,325.225627L988.051227,322.772808L990.210909,321.697806L993.579186,319.305547L994.349978,313.945664L994.273133,307.525900L995.022254,301.908590L997.384789,296.472959L998.016657,293.656722L997.629531,290.628506L995.994592,288.054519L991.318091,285.647082L989.177804,283.724158L988.666536,282.512867L987.549384,277.561708L987.610818,275.941602L988.474004,274.957425L989.618346,274.170083L990.501710,273.034493L996.010087,262.269076L997.964483,259.193675L998.598450,258.196073L999.495775,255.894597L999.497230,253.562836L998.666313,252.260683L995.903305,250.504289L994.828171,249.489820L993.635017,246.582682L993.299343,243.387855L993.321498,241.924734L993.403846,236.468242L992.073002,227.428812L989.182782,218.979875L984.321711,208.532235L977.722855,194.374878L977.593233,193.436100L987.198172,183.563773L989.335187,180.656580L991.737494,175.947529L996.030450,160.503023L997.102210,156.293629L995.521026,156.505613L993.350871,157.489824L989.401750,160.169905L987.299949,160.805856L983.304165,160.518164L975.550358,158.595169L971.560371,158.322618L969.563145,158.686019L967.746024,159.458245L966.613722,160.275897L966.568123,160.255109L965.849820,159.927638L962.582080,157.050715L961.555053,151.266581L961.610709,147.889976L961.088686,145.785275L959.707169,144.301385L944.706073,137.502742L924.843622,128.478252L911.902904,122.618386L901.913782,120.922506L876.620609,121.619028L863.440852,119.272052L861.452098,118.181843L860.429605,115.956000L860.038264,110.353536L859.024027,107.764288L857.563519,106.356100L852.328395,103.252030L849.954745,100.920192L842.600450,91.562550L839.218076,88.352485L836.136979,86.792877L814.855141,85.218127L810.036338,82.507741L808.181265,81.008700L805.646857,80.599871L802.885401,80.569588L800.401969,80.206184L800.181405,79.782212L800.382404,79.070547L800.443357,78.389165L799.857392,78.010619L799.339372,78.071186L798.323575,78.343739L797.852030,78.237746L797.091920,77.268669L796.744446,75.905905L796.244284,74.558282L795.016004,73.558922L792.591831,72.059881L791.068244,70.030876L788.869985,65.079498L787.148664,62.535670L785.113947,60.870069L782.734860,59.870708L769.888593,56.463797L764.229257,55.979258L760.934766,58.174824L759.807503,60.234112L758.844776,60.173545L757.868014,59.310461L756.789399,59.007624L754.868784,60.082694L752.382985,63.050493L750.831825,64.473824L747.927382,65.851731L745.805628,65.518611L743.979473,63.913577L742.014087,61.490884L737.018147,57.478299L731.385292,56.160960L717.603832,56.266953L696.726457,56.433513L687.541465,56.494081L673.177740,56.615215L673.418225,46.424766L673.836091,28.890540L674.176291,14.944939L674.445492,3.104063L669.291977,5.375330L665.622439,5.511606L661.620150,3.550349L659.596955,2.558959L656.388102,2.059281L655.245769,2.528676L653.244028,4.375973L652.210393,5.117920L650.154159,5.617598L648.681797,5.027069L645.495422,2.543818L640.449320,1.302192L635.284886,2.134990L630.132143,3.709734L625.031731,4.603099L619.535025,3.906577L608.686393,0.590529L603.019962,0.000000L600.043152,0.711663L594.690191,3.406899L589.124239,4.375973L581.693574,7.101493L578.566778,7.586030L575.957364,7.146918L573.498693,6.389829L570.781693,5.996143L567.704134,6.934933L562.774253,11.432044L560.440307,13.006790L549.341421,14.096999L547.392735,14.566394L518.616562,29.011674L513.897355,34.281026L512.702546,35.113826L510.097221,35.825491L507.534616,37.521375L505.410383,39.520095L504.094838,41.109986L501.157760,46.818453L499.466268,48.559763L496.335129,49.195720L490.539000,49.316854L487.767769,49.877102L487.190809,50.167596L485.301741,51.118732L480.844386,55.767273L477.922578,59.658723L477.488045,60.673225L475.617589,63.671307L475.160370,65.291483L475.374915,66.623964L475.918057,67.653609L476.482335,68.471267L476.771807,69.213217L475.870962,74.194878L473.989632,80.281893L473.081953,86.126637L475.104950,90.305779L471.754780,98.149240L471.185348,101.313879L471.565044,103.842561L473.445981,109.974991L473.345301,113.306186L470.039196,118.908649L469.491342,120.104850L468.442815,125.404473L466.611722,127.675739L461.388983,131.915433L460.249434,134.413824L457.622663,137.109057L456.490913,138.199263L454.682043,138.517239L451.095326,138.517239L444.984056,139.758863L397.796033,159.942780L388.923669,166.105447L375.884259,177.673677L364.055489,183.217762L343.968199,192.633596L337.200024,197.024655L331.912450,203.111564L313.428023,232.016667L311.148083,237.119323L308.103168,248.763035L304.350409,256.136858L297.290035,263.752920L283.738990,276.895497L248.437605,315.641448L247.063518,317.776316L246.795025,319.275265L246.813686,322.909076L246.997406,326.361190L242.489136,332.175264L237.540511,337.277705L233.596955,341.274860L230.049867,343.364279L228.115290,343.969907L222.092965,344.272721L220.731840,344.878349L215.929178,348.269861L212.939334,347.179733L200.685455,353.281415L197.572552,353.690212L195.494534,354.265556L193.791726,355.370820L189.999581,359.080265L188.458346,359.579904L186.646884,359.216531L179.496157,356.642631L177.484405,355.476805L175.780918,353.826478L173.896857,351.373695L172.280270,349.859631L170.193706,348.920910L166.844050,348.269861L161.602421,346.407559L152.017526,340.502683L146.210711,339.276284L141.435711,340.063602L140.522034,339.821350L139.750765,338.943187L138.739930,338.125587L137.550348,337.504816L131.712430,336.747779L130.569862,336.278415L129.931390,335.369969L129.257074,334.007299L128.393088,332.780896L127.238941,332.266109L126.080992,332.917163L121.402631,336.778060L120.243066,337.474535L117.267177,338.095306L115.069590,339.412550L112.831980,340.033321L112.055072,340.366417L111.902475,340.926624L112.083834,342.788932L111.943848,343.364279L110.130385,343.924485L107.741747,344.000188L105.693301,344.499831L104.862585,346.286433L104.030218,345.272007L96.843081,349.284286L95.358454,349.511396L89.949625,349.284286L82.333971,345.272007L81.104582,343.576249L80.256618,341.184016L80.504735,339.094595L82.591185,338.276995L80.903853,335.763629L75.229136,333.053430L74.073032,330.782310L73.021541,329.253088L70.530280,327.436189L67.764716,325.906965L63.042806,324.514007L61.542690,322.984780L59.950189,321.818933L56.825422,322.182314L49.943736,325.437599L41.307795,327.269640L40.544266,327.602739L39.374903,328.950272L38.638305,329.268229L37.840131,329.101680L36.667789,328.344639L36.014623,328.178090L26.410295,328.178090L25.049003,327.905555L20.892263,326.179500L16.903630,326.376331L15.671401,326.179500L13.214214,324.847106L9.444638,321.500975L7.102048,320.274564L6.254362,319.275265L0.650703,331.827026L0.502770,335.960459L1.234317,339.457972L4.560822,349.602240L9.476440,359.489061L12.780985,363.592152L17.014657,366.408289L20.726349,369.799761L23.243795,375.220046L26.916026,386.529913L30.770568,393.888097L31.677896,396.810165L32.643476,402.987369L33.217213,404.940451L34.754677,407.907919L42.798606,417.658129L47.012405,420.882952L48.677967,422.851150L54.369806,432.359024L57.898741,435.901750L62.722417,438.611779L65.790743,441.775996L67.059246,446.938649L67.434691,457.657528L71.575649,468.679110L86.961076,484.393785L89.927504,495.914846L89.966443,496.066119L89.417282,499.093944L87.132010,504.528870L86.610321,507.526395L86.949972,511.053776L87.858276,513.809062L90.768096,519.622391L94.410075,525.193471L97.084565,531.627429L107.842500,569.322095L110.846926,574.605296L115.672938,577.981081L121.288302,579.631125L128.092068,579.782505L129.445394,580.478852L130.641760,581.493097L131.596186,582.643582L132.784688,584.535825L133.054319,585.716583L132.028568,588.774436L131.037914,590.590978L130.177871,591.075389L130.128448,591.332731L131.635369,592.468068L132.628640,592.952477L136.463525,593.709367L139.263461,595.389660L142.541448,601.323645L144.862818,603.806220L147.163129,604.805304L152.134288,606.061725L154.523477,607.136494L159.519457,610.769507L161.591519,613.221782L162.561489,615.961663L163.337956,619.276757L164.995078,621.244616L167.301821,622.395054L172.999066,624.196396L174.781246,625.316556L175.189474,625.819004L176.109488,626.951382L177.766111,629.585263L179.624486,631.765020L181.743196,633.006268L184.244107,633.551206L187.251460,633.581481L191.968919,634.550258L206.036757,642.526121L210.577963,643.449476L214.803691,643.388928L218.895976,643.873310L223.049680,646.431450L224.148031,647.869455L226.205760,651.260110L227.535770,652.486192L229.073311,653.121937L230.356875,653.212758L231.623283,653.076527L233.170756,653.137074L235.824819,653.606315L238.437356,654.453974L240.666561,656.013061L242.231556,658.571169L247.994487,676.689659L249.584105,693.869420L246.745686,714.999477L251.632692,712.305259L256.068773,711.669544L270.439684,711.714952L280.567062,713.137742L287.831376,711.714952L292.175882,713.955089L297.278572,714.030770L299.494399,715.044885L301.240245,716.952025L302.079184,719.525147L301.466724,725.307091L299.698078,730.483582L298.477495,735.735739L301.152848,747.360069L301.199058,753.217622L298.779010,765.084056L298.028508,766.733850L297.058222,767.990116L296.268453,769.322059L296.030727,771.259431L296.001030,772.924360L295.549984,776.208808L295.496868,777.646699L296.132536,785.865380L295.827098,788.953060L293.963175,796.717664L293.830431,799.275594L294.750867,802.045423L298.845933,808.538631L300.680176,810.763577L309.196984,817.756268L312.761142,822.781324L315.764872,828.336134L320.062592,834.269345L321.167601,836.342944L321.405985,837.523534L321.244345,839.793900L321.407247,840.898812L322.162086,842.261032L324.130691,844.667624L327.536061,853.037735L327.825442,854.551320L327.350604,855.701645L326.299648,857.457406L325.978284,858.849907L326.405626,859.122353L327.289630,859.440207L327.764512,860.287817L327.028717,862.179804L327.465922,863.602580L328.075267,863.753940L328.795795,863.602580L329.642537,864.177745L330.246574,865.373484L331.258989,868.355264L331.923242,869.672092L333.385530,871.473273L335.106233,872.744696L337.144997,873.471223L344.459889,873.970711L353.869714,876.014072L368.963803,876.256248L373.618218,877.224954L378.586753,879.101822L388.644116,884.883800L391.339585,885.549788L393.486650,885.125977L395.541586,884.263220L400.056090,883.022061L401.409576,882.325802L402.822460,882.068489L406.819713,883.218830L410.574981,883.612368L412.322647,884.232948L417.043710,888.425650L422.758784,890.408484L440.929458,899.762654L444.704446,900.867601L452.395880,901.367098L456.020227,902.320683L458.212758,903.955402L463.202865,905.696077L465.218741,907.467027L465.393603,910.282389L463.694851,913.703213L461.441383,917.230003L459.911977,920.378390L459.109722,926.569235L459.811843,932.775253L461.961654,938.360700L465.590990,942.765505L470.182250,945.429590L474.814444,946.322666L486.795763,945.929107L487.416394,946.383213L488.570688,948.048272L489.204186,949.365184L490.053527,952.256342L490.789505,953.618671L500.053004,962.640369L500.894652,963.260993L501.683844,963.457776L503.550987,963.548599L506.345558,961.974335L511.106752,959.189104L513.766580,958.553347L520.024378,960.203290L523.162164,960.551444L524.583951,959.098282L525.775773,956.676350L528.224271,956.086005L532.482806,956.540117L537.288651,954.224151L539.885907,953.815452L542.108483,955.556209L543.635854,954.935591L552.197384,954.466343L554.738259,955.268605L561.846470,960.551444L566.124816,961.550495L569.149782,963.321542L573.696259,963.760520L575.514366,964.335733L578.860762,966.636588L580.078227,967.181529L582.768626,967.847568L584.031233,968.543881L586.306637,971.344280L586.445970,971.995185L586.711646,972.464442L590.457128,972.948837L592.274994,973.796529L595.751296,976.642359L598.708392,978.292339L600.924002,978.473988L606.576604,977.641429L609.691398,977.898765L612.022754,978.670775L613.846832,979.927185L615.544452,981.637722L619.377548,984.650094L623.653496,985.785413L628.358874,985.603762L633.546932,984.634956L635.994212,983.802390L640.856979,981.440935L643.324724,980.729472L645.723365,980.638647L653.876993,981.667998L657.541772,981.637722L658.690084,981.970748L660.549551,983.423951L661.404914,983.726703L663.331996,983.106063L666.860451,980.487272L669.387378,979.639573L683.543822,978.428576L687.758630,976.642359L691.402575,977.717116L698.967303,978.610225L712.586285,982.106986L716.815758,984.165692L718.984078,984.634956L720.188797,984.348475L721.148419,984.120279L725.455260,981.940473L727.354140,981.637722L728.670095,982.545974L731.075292,985.906514L731.928314,986.648257L732.823350,986.935872L734.731502,988.298259L735.730217,988.737251L736.757357,988.601012L738.844584,987.662478L740.097489,987.723028L741.305244,988.828077L744.024130,993.490492Z "/></g></svg>