<?xml version="1.0" encoding="utf-8"?><!DOCTYPE svg  PUBLIC '-//W3C//DTD SVG 1.1//EN'  'http://www.w3.org/Graphics/SVG/1.1/DTD/svg11.dtd'><svg enable_background="new 0 0 1000 1249" height="1249px" pretty_print="False" style="stroke-linejoin: round; stroke:#000; fill: none;" version="1.1" viewBox="0 0 1000 1249" width="1000px" xmlns="http://www.w3.org/2000/svg" xmlns:xlink="http://www.w3.org/1999/xlink"><defs><style type="text/css"><![CDATA[path { fill-rule: evenodd; }]]></style></defs><metadata><views><view h="1249.93896195" padding="0" w="1000"><proj flip="auto" id="robinson" lon0="18.8559083714"/><bbox h="227.9" w="182.48" x="171.63" y="74.27"/></view></views></metadata><g class="" fill="#000" id="country"><path d="M718.817374,1247.938962L731.867165,1246.683587L748.406451,1242.065591L762.329111,1242.729149L768.690974,1246.082800L772.536116,1246.190404L796.791612,1241.330296L816.290053,1237.420675L845.537864,1231.206503L869.673217,1226.077322L905.443496,1218.473184L930.603427,1213.128742L915.181096,1197.866483L897.671287,1180.541579L879.559615,1161.216764L865.939133,1146.061685L859.277257,1137.327297L847.259752,1125.794995L838.526029,1120.154377L835.144757,1117.311645L827.193919,1086.606456L823.155102,1058.394190L823.751754,1037.140847L824.554742,1007.673251L825.337451,978.205906L826.098690,948.739308L826.838288,919.272751L827.556583,889.806543L828.246069,860.340653L828.930863,830.866080L829.587336,801.400725L829.894935,787.089575L848.463484,787.089575L869.508365,787.089575L891.512331,787.089575L915.434472,787.089575L939.356613,787.089575L963.278753,787.089575L979.968436,787.089575L984.345328,786.838502L989.641697,785.941815L990.119413,783.045518L983.565343,768.546124L984.014693,763.426064L986.082022,753.589466L989.123358,745.106873L993.128776,733.943225L993.693457,727.379548L991.138230,705.993841L991.673073,694.068085L992.836424,681.676076L993.927749,669.929684L993.060283,661.743083L994.428714,657.277667L996.804946,650.893379L998.134462,643.684157L999.599660,640.581682L999.233022,637.712341L998.066402,632.341295L997.055789,620.325935L995.629564,603.621002L994.106671,591.587710L991.022750,593.398981L989.205119,598.169257L988.637900,601.818698L983.155759,604.616303L972.075018,604.060369L961.121268,601.397264L953.393712,600.545429L948.237038,601.199997L928.426714,610.229448L921.913219,611.430984L900.831905,610.731582L888.909703,608.848578L880.409026,608.489911L874.314857,611.323383L866.676622,618.003563L860.316677,621.599204L857.410165,621.186737L855.674033,618.389131L853.287073,614.560356L852.706203,604.526637L849.777934,593.470714L851.945028,587.705135L858.227997,583.526659L860.521843,575.017271L858.823443,562.185933L858.853037,553.165434L860.620902,547.964746L858.580675,535.330652L852.716977,515.272090L844.213084,498.945114L833.064476,486.346784L825.822083,474.286445L822.487675,462.764098L824.215315,435.191108L827.991174,410.864047L830.970111,391.567350L830.646707,359.223792L823.242752,338.178469L821.851280,315.545971L826.481666,291.326296L827.331770,274.737461L824.558215,266.254732L822.598550,264.972459L820.135915,264.129566L800.711647,263.322541L774.796480,262.246508L752.198268,261.923698L727.680450,261.582954L723.717198,258.525225L721.955073,252.867080L722.103784,247.262736L727.291966,230.126887L726.603806,228.728042L717.884317,228.351429L694.212637,231.149120L678.601505,233.919909L668.699368,234.825572L651.267747,239.488388L640.427386,249.343069L636.749373,261.744359L636.932618,271.957709L636.243682,279.436138L631.261391,287.255308L627.308683,296.231209L627.114410,300.956782L624.493363,324.835701L608.435217,328.036890L592.405620,328.036890L588.681939,327.732015L568.940345,322.029055L561.604410,322.020088L555.262474,325.015039L543.117747,327.929287L531.502678,330.090314L519.756327,337.156241L516.646524,337.783925L508.947769,334.116458L498.087167,334.457201L487.116801,336.232649L481.952808,336.994837L478.453455,334.869679L468.552738,317.061381L455.339139,293.316956L448.207865,278.440807L445.535315,274.558122L440.907245,269.420064L434.606505,259.717829L432.044385,250.499805L433.237406,241.783928L429.589488,230.019283L421.114056,215.196901L415.561104,201.047036L412.955559,187.569689L412.371230,176.029205L413.809256,166.425583L412.206494,159.341679L407.571057,154.777493L405.063517,148.993799L403.232620,146.581684L399.385734,141.120801L390.877990,135.094999L381.493740,131.920692L360.842645,131.857923L333.866658,131.759287L309.416696,132.216602L282.238716,132.736686L254.713080,133.247803L247.299290,134.054830L226.305650,134.404542L209.491208,132.871191L203.259638,131.875857L192.313981,131.149533L174.992149,130.961227L165.634980,131.562013L143.164836,131.570980L141.139895,131.714452L137.579379,133.409209L128.019250,131.059863L118.605755,131.848956L113.853814,135.776488L96.058913,144.617918L76.840564,148.473715L62.803030,151.997733L56.497870,152.759925L54.923345,155.674190L59.015571,161.457884L64.417348,176.710694L73.924868,198.464551L98.156531,231.929245L101.126781,257.368488L119.245292,307.717846L142.080662,361.851093L141.026326,370.988356L141.095000,378.843349L141.869744,385.263636L140.258341,391.002437L115.345970,420.350980L114.786986,417.445720L117.296922,413.688607L118.578729,410.514340L114.844280,412.585684L110.892247,418.898350L110.847336,424.134991L116.958153,440.876082L123.264853,455.500976L126.458519,470.287250L127.337668,484.293389L133.538965,495.636373L136.997326,511.444789L149.934246,535.151317L153.334588,550.170555L160.836180,558.581321L167.809889,569.717956L169.105138,581.060820L176.564255,596.904955L177.553669,608.355411L171.996628,648.167503L171.724715,677.990756L163.328294,706.549779L156.083156,721.452517L141.233404,742.963810L120.599181,755.060023L106.001736,766.403051L98.819085,789.546498L70.391872,827.198590L66.244130,856.368251L55.857218,882.408657L47.182122,937.359757L29.728299,993.441722L24.780935,1017.815606L20.744225,1028.863716L15.172793,1036.746270L11.079214,1041.203191L3.064581,1047.041133L4.437364,1054.699513L6.546745,1061.227972L7.649742,1108.783439L7.281001,1127.131166L3.923066,1142.483638L0.400340,1177.187773L13.197428,1175.107334L22.203656,1169.780684L30.245242,1169.413019L38.101049,1173.582874L46.505801,1173.896733L49.784686,1173.206242L64.890187,1173.833961L73.649598,1169.045354L84.028740,1164.238801L90.036035,1160.050993L98.431194,1155.719696L109.557219,1151.334587L115.821484,1151.702255L123.493440,1153.343309L133.713135,1155.020232L139.444274,1157.979504L146.135586,1167.269800L156.590867,1175.744021L164.310438,1180.783698L173.161745,1187.428518L175.815560,1190.002146L179.741775,1191.418985L182.139976,1191.849417L198.834445,1190.827141L213.964743,1189.903505L230.224840,1189.930407L260.838409,1189.984211L291.451921,1190.038015L322.065573,1190.082852L352.678975,1190.136656L383.292320,1190.190460L413.905607,1190.244264L444.518838,1190.298068L475.124197,1190.351872L487.649273,1190.369807L509.520445,1190.665729L532.523921,1190.979586L535.057614,1191.508658L537.582402,1193.293156L539.641209,1194.961076L547.463140,1206.645439L557.530678,1218.876707L566.006733,1224.669484L576.254432,1228.085955L585.909843,1229.386184L594.967106,1228.543277L609.932378,1230.103551L630.787511,1234.066999L652.538356,1235.232716L675.172335,1233.609678L690.990510,1235.788673L699.982368,1241.769680L709.254910,1245.822758L718.817374,1247.938962Z M101.525467,0.000000L97.481662,0.152438L91.078426,3.748179L84.751936,9.388381L73.364647,14.562304L63.880024,17.467592L63.007677,21.009533L60.761564,27.107053L57.601546,30.909036L49.202131,32.110606L46.160608,37.535607L38.853215,48.044867L34.035250,52.832079L35.768768,55.665637L41.409838,70.541820L46.741389,82.261638L49.050494,95.434107L46.872054,101.899288L44.831752,110.534476L48.307582,119.644914L49.479803,122.101863L52.854460,120.980992L63.451635,119.259334L71.434523,118.434373L72.996391,116.327136L74.370732,91.425874L74.786650,66.112142L71.973056,62.785401L69.215614,60.758868L69.082643,59.001345L73.252188,55.827042L79.006626,52.124828L80.850659,50.456976L87.254173,43.749700L99.882876,28.254821L109.443661,24.461805L118.365349,20.399781L119.623328,18.902302L117.629380,17.476559L111.451665,11.280405L104.184166,1.488511L101.525467,0.000000Z "/></g></svg>