<?xml version="1.0" encoding="utf-8"?><!DOCTYPE svg  PUBLIC '-//W3C//DTD SVG 1.1//EN'  'http://www.w3.org/Graphics/SVG/1.1/DTD/svg11.dtd'><svg enable_background="new 0 0 1000 457" height="457px" pretty_print="False" style="stroke-linejoin: round; stroke:#000; fill: none;" version="1.1" viewBox="0 0 1000 457" width="1000px" xmlns="http://www.w3.org/2000/svg" xmlns:xlink="http://www.w3.org/1999/xlink"><defs><style type="text/css"><![CDATA[path { fill-rule: evenodd; }]]></style></defs><metadata><views><view h="457.829888633" padding="0" w="1000"><proj flip="auto" id="robinson" lon0="20.0497472077"/><bbox h="6.04" w="13.23" x="230.49" y="-999.62"/></view></views></metadata><g class="" fill="#000" id="country"><path d="M924.070160,455.829889L995.978511,449.722486L998.905501,422.242046L956.254481,388.717748L884.907224,382.612896L833.205028,397.875462L808.618858,422.242046L822.280107,434.454995L889.846394,431.401671L924.070160,455.829889Z M128.247557,252.713866L88.628834,184.557755L20.074503,187.154719L1.094499,255.707305L23.204020,301.519569L63.473395,312.988813L76.643827,281.012578L101.554416,272.143979L136.584769,278.640038L128.247557,252.713866Z M292.652692,0.000000L237.306818,18.045675L212.034849,59.784202L237.600659,85.735328L277.494097,100.856643L295.364886,120.381071L297.091855,159.098464L287.702240,214.086606L233.349792,222.387288L215.701424,138.948438L178.436759,142.617020L136.756015,159.662928L129.486414,199.688489L217.498562,354.748329L268.340489,374.699545L475.095787,361.021673L463.637924,292.819312L467.997295,260.225809L493.134396,245.428184L538.395227,236.843931L566.208035,246.783634L601.297966,245.315230L646.820022,167.001133L625.888662,141.883297L574.700059,129.466958L556.699258,105.257893L478.533724,60.517545L429.947835,53.691946L419.226044,63.450950L391.911330,63.112478L350.808938,55.779081L292.652692,0.000000Z "/></g></svg>