<?xml version="1.0" encoding="utf-8"?><!DOCTYPE svg  PUBLIC '-//W3C//DTD SVG 1.1//EN'  'http://www.w3.org/Graphics/SVG/1.1/DTD/svg11.dtd'><svg enable_background="new 0 0 1000 846" height="846px" pretty_print="False" style="stroke-linejoin: round; stroke:#000; fill: none;" version="1.1" viewBox="0 0 1000 846" width="1000px" xmlns="http://www.w3.org/2000/svg" xmlns:xlink="http://www.w3.org/1999/xlink"><defs><style type="text/css"><![CDATA[path { fill-rule: evenodd; }]]></style></defs><metadata><views><view h="846.881860755" padding="0" w="1000"><proj flip="auto" id="robinson" lon0="55.1258474617"/><bbox h="57.83" w="68.36" x="744.38" y="-437.14"/></view></views></metadata><g class="" fill="#000" id="country"><path d="M500.770331,463.693542L492.689395,454.394476L479.010649,443.659048L449.740132,455.459628L439.060476,465.512645L456.791961,471.508458L474.593210,473.901977L479.930272,469.593635L501.625557,471.987162L500.770331,463.693542Z M221.670598,436.394253L229.238876,425.598594L222.262080,414.778760L213.171583,420.763212L213.279537,424.952284L218.275561,438.177548L221.670598,436.394253Z M373.233730,443.742826L383.340531,438.285264L388.266758,431.654725L394.437107,416.143222L386.555743,406.376466L378.904936,417.794933L371.349986,423.396347L342.676086,435.819767L357.774097,445.131144L373.233730,443.742826Z M607.812698,398.596432L598.933806,391.666110L592.127499,383.012041L588.073561,383.442953L579.581462,391.666110L585.103220,398.596432L600.436757,402.929328L606.429626,403.360222L607.812698,398.596432Z M784.319687,844.881861L787.469550,844.283803L799.777266,824.643404L798.320179,788.902109L796.321442,771.030933L795.476846,743.637306L806.873859,705.619628L819.947143,657.227431L829.752217,625.055821L838.189635,597.082342L844.961737,574.611719L847.632374,551.470168L843.466692,535.184379L837.082038,529.261071L831.410613,521.554693L846.970600,509.241021L877.572269,501.211256L895.153689,502.934494L918.843550,496.974939L937.517768,491.589742L938.285388,484.337590L931.620855,472.166677L921.902839,454.394476L894.529411,452.551397L885.843242,447.644468L892.670925,421.385590L891.489119,413.115070L886.876702,403.312345L881.279559,386.866293L881.090853,365.607657L885.168792,351.171330L884.035473,339.559686L878.901574,315.605214L877.545780,294.319217L882.154057,283.735678L891.195622,273.894184L900.169521,268.901511L910.162459,269.272671L918.501938,273.451191L923.073904,284.609669L921.701491,292.283941L916.197912,293.349469L914.561248,296.569980L924.142072,311.451056L937.348616,326.032335L946.087080,323.602156L954.989757,312.121471L964.591814,302.855293L977.038624,294.666410L984.988003,278.826933L992.180569,268.530351L999.408901,267.081625L995.196511,257.490252L978.421826,122.341804L962.383000,102.401325L958.950195,108.030210L952.915884,108.605073L938.517258,103.814537L929.066652,92.628552L929.067970,78.999234L926.666620,53.884066L927.829865,30.169893L923.867205,5.078225L912.570369,0.000000L905.157700,1.353395L904.206943,3.772738L897.684856,37.320096L883.439313,67.250126L803.555912,139.814805L787.512802,165.239158L766.515057,188.459123L764.349131,203.906649L726.185966,251.778963L658.051394,308.458122L641.922272,331.730632L636.905462,354.834322L629.123531,368.995219L620.265666,376.979234L614.371227,393.712900L608.368979,419.314981L597.353910,438.943526L578.356119,444.796033L547.344808,465.165580L495.839310,488.238925L476.688203,490.093844L376.396454,482.997248L311.298633,471.017785L231.362065,469.222637L203.459961,479.550637L151.134613,508.295645L123.750318,514.207209L78.587844,510.712932L64.747364,504.454290L52.461713,488.801385L43.327590,444.772096L36.216682,442.713553L21.687285,445.741523L11.807527,433.330321L7.231419,424.174316L0.591099,436.980706L1.230421,443.910382L4.946825,475.673173L10.357554,487.796137L19.081516,498.542619L32.157633,514.590142L45.210339,530.649165L58.259240,546.707729L71.323969,562.753881L84.364460,578.799597L97.423100,594.856853L110.457663,610.913694L123.487804,626.958165L136.536354,643.014207L149.560039,659.057901L162.602310,675.113185L175.619897,691.156144L188.634570,707.198751L201.668100,723.252979L214.678252,739.306877L227.684731,755.348491L238.447393,768.614588L256.444692,771.138592L262.170994,771.928089L278.371370,774.200880L303.560812,777.729676L336.233859,782.287185L374.868513,787.693962L418.041739,793.722719L464.187675,800.170096L511.843324,806.832736L559.481170,813.483367L605.638310,819.930606L648.807973,825.959155L687.484032,831.365679L720.179654,835.934887L745.366506,839.451487L761.601007,841.724114L767.332251,842.513552L784.319687,844.881861Z M955.874404,209.678400L955.703596,196.578110L958.450344,187.477173L967.591567,188.195673L970.387446,193.656246L970.285324,204.217990L962.241187,210.768080L955.874404,209.678400Z "/></g></svg>