<?xml version="1.0" encoding="utf-8"?><!DOCTYPE svg  PUBLIC '-//W3C//DTD SVG 1.1//EN'  'http://www.w3.org/Graphics/SVG/1.1/DTD/svg11.dtd'><svg enable_background="new 0 0 1000 826" height="826px" pretty_print="False" style="stroke-linejoin: round; stroke:#000; fill: none;" version="1.1" viewBox="0 0 1000 826" width="1000px" xmlns="http://www.w3.org/2000/svg" xmlns:xlink="http://www.w3.org/1999/xlink"><defs><style type="text/css"><![CDATA[path { fill-rule: evenodd; }]]></style></defs><metadata><views><view h="826.74083509" padding="0" w="1000"><proj flip="auto" id="robinson" lon0="44.8425047457"/><bbox h="40.31" w="48.81" x="589.59" y="-693.14"/></view></views></metadata><g class="" fill="#000" id="country"><path d="M620.282100,227.073654L620.859433,215.891385L612.044201,210.879088L603.724642,210.598824L597.668754,216.171707L600.406961,230.142212L610.796849,232.650127L620.282100,227.073654Z M905.378683,824.740835L944.128368,809.658336L993.046780,811.718476L986.236567,780.340779L982.567640,755.483395L975.887494,741.175033L951.549215,721.585812L949.665340,713.134288L954.315363,707.899614L970.838504,711.063870L991.064754,709.952975L999.394483,702.278865L972.709793,676.494868L950.078979,659.285159L931.419021,647.678093L926.431429,640.726328L925.487910,635.807454L927.894399,629.932862L953.393534,615.772109L953.750891,602.809390L949.158725,588.278184L900.416352,566.924063L868.412291,574.793638L833.900835,550.807711L811.127095,532.278036L783.351555,512.426612L759.838166,501.555629L734.586681,476.693786L694.012921,451.060067L669.716582,443.782103L669.303008,439.869337L672.611617,435.156857L681.422880,431.278932L745.278238,432.277472L752.168553,427.651292L754.022558,416.672244L759.610774,400.463330L765.155358,376.612201L760.459318,356.567688L690.336961,324.215021L638.225199,294.470913L598.534152,255.364734L569.771892,219.634757L568.185471,207.647991L572.215222,196.325836L615.270660,163.491049L616.924094,154.984267L614.687528,149.193932L593.701507,132.421985L568.087126,115.167249L558.585588,102.487587L543.350315,96.034929L516.718933,95.575253L465.998452,74.372299L455.706886,72.272524L452.672025,68.057016L454.075483,63.792902L485.562847,55.217296L483.690401,48.152026L471.770039,38.843431L451.646778,32.027640L431.119127,15.174738L422.092300,0.000000L422.092300,0.000000L415.924668,4.517300L371.475893,10.590461L372.088160,14.208711L384.420447,23.739279L383.028301,26.687458L306.471541,27.752146L282.127467,33.518467L212.450480,26.032283L190.660372,29.373816L172.807301,36.369257L127.684420,44.267640L97.284852,53.627058L57.081528,58.480003L14.655648,58.857123L0.605517,61.677469L7.730868,75.930821L28.863647,96.051347L51.844032,108.366837L65.466756,121.558488L92.150466,166.980095L104.204458,192.141011L106.064523,216.369583L98.211753,241.264729L76.561526,272.282115L85.780899,285.258933L95.126063,302.445360L95.364258,314.892164L122.163547,354.693570L135.570317,379.434469L129.207279,385.163108L125.887781,393.086006L164.417269,412.182417L209.326338,428.233670L227.592415,431.312216L274.462053,423.941081L305.235521,422.360692L338.865604,437.571960L390.610129,474.475910L447.934920,522.717839L460.270793,537.427438L486.964587,532.077432L530.064610,516.335406L544.011060,523.971140L560.414052,539.885502L569.642740,553.501393L575.470811,578.846610L581.750756,582.984002L602.575293,574.458711L614.463024,584.709514L633.962981,596.959033L666.136674,609.113855L705.735253,590.121357L726.292239,585.228867L744.024582,585.614199L754.641669,591.562478L761.656956,611.293951L762.702700,635.656376L760.145416,648.988047L770.987645,658.713928L810.713618,682.211395L827.814998,695.313358L824.779109,717.982672L861.231828,773.407731L873.999968,795.055312L889.198692,821.717034L905.378683,824.740835Z M430.738434,88.516844L426.228273,79.983362L425.162451,71.042256L433.880938,68.909911L441.821226,71.468743L445.544945,79.573161L445.906196,88.516844L440.669568,92.357720L430.738434,88.516844Z "/></g></svg>