<?xml version="1.0" encoding="utf-8"?><!DOCTYPE svg  PUBLIC '-//W3C//DTD SVG 1.1//EN'  'http://www.w3.org/Graphics/SVG/1.1/DTD/svg11.dtd'><svg enable_background="new 0 0 1000 432" height="432px" pretty_print="False" style="stroke-linejoin: round; stroke:#000; fill: none;" version="1.1" viewBox="0 0 1000 432" width="1000px" xmlns="http://www.w3.org/2000/svg" xmlns:xlink="http://www.w3.org/1999/xlink"><defs><style type="text/css"><![CDATA[path { fill-rule: evenodd; }]]></style></defs><metadata><views><view h="432.044850092" padding="0" w="1000"><proj flip="auto" id="robinson" lon0="14.7525073791"/><bbox h="42.65" w="98.95" x="124.48" y="-818.88"/></view></views></metadata><g class="" fill="#000" id="country"><path d="M677.073506,430.044850L680.544575,427.859354L682.898566,424.036548L693.609768,419.519824L703.335062,413.623364L709.919313,406.112818L713.469977,400.182810L720.136579,395.979037L727.489615,394.768689L734.127879,392.662633L762.583657,389.854458L792.208130,392.057432L805.943877,387.925790L816.948662,380.686774L833.697598,378.652943L834.570272,378.564164L860.276965,384.124790L861.960042,380.888540L862.932909,379.460025L861.194857,363.672002L868.608777,356.487304L875.756357,353.435652L895.398255,335.470957L905.475032,330.464526L917.722818,331.328554L921.488515,329.705467L922.307277,327.113327L923.901364,321.258605L924.476250,315.734738L925.090723,310.541784L923.544302,307.610067L917.598646,306.697428L913.699255,293.871509L916.314556,289.025220L919.050688,285.648908L914.029205,270.051077L914.708095,264.743931L924.118324,263.911907L931.708328,260.583795L937.802305,256.795217L939.186362,251.988783L943.618937,242.157749L937.746749,230.105244L909.742976,222.261499L908.063874,219.256508L914.141843,215.847645L920.506576,210.984814L924.119257,207.196377L929.331030,206.671331L936.934221,208.577657L950.854166,217.301659L956.014797,218.561809L960.682759,216.025357L965.855711,215.484142L980.462145,215.807255L992.549993,213.779722L988.976140,204.482302L988.426248,197.737620L985.874963,192.350088L986.654130,186.421538L991.218683,181.801598L991.796390,171.423346L998.840028,164.421457L990.280591,158.865428L987.271041,151.638114L973.100749,132.647457L956.294862,101.432788L955.144154,92.426672L959.712899,82.163054L964.107600,74.329250L964.270681,68.109698L964.682325,66.415767L961.111972,62.769948L954.057185,49.092131L947.299084,47.342324L938.195972,46.068307L931.250233,44.052520L915.952987,36.183634L908.240028,33.813530L899.607377,33.176685L891.763636,37.804075L886.018985,43.270416L866.668449,43.197850L845.257553,40.658110L813.407467,22.553063L805.535175,22.391873L797.208964,23.213949L783.612120,18.934476L756.988868,7.218325L744.754759,4.471032L737.292632,6.146780L730.566643,8.741092L725.644052,9.047263L722.468997,5.244446L712.568346,0.539722L702.952695,0.000000L700.400060,2.835628L699.207037,28.614209L696.699643,37.916943L683.504051,37.481595L679.149951,41.883620L669.748029,54.341888L668.669874,66.351238L650.509708,64.020148L641.819721,62.003709L634.396793,63.536196L626.589326,70.150545L603.296642,69.763343L584.586140,65.810804L575.595220,50.954890L566.734018,45.076531L555.738631,39.819620L551.938237,38.650594L550.627334,41.859432L550.645986,51.946775L551.600967,62.640896L550.246817,68.295227L542.743154,75.741038L538.701966,77.330346L536.592182,78.935830L511.214191,69.222878L509.375430,70.876554L507.913566,72.078522L503.278974,100.238364L499.100432,105.653776L492.661582,110.633710L478.886103,115.484804L469.212190,117.462454L461.733515,119.916419L438.303902,131.719008L427.857076,138.807736L421.369614,147.713748L421.669048,152.841290L434.466172,167.918320L449.118333,183.497716L450.118691,197.204515L444.757856,207.454862L443.617935,211.412934L447.726998,212.907321L455.322934,213.472766L461.765224,215.241807L464.945450,222.455370L464.970902,235.024789L463.589420,246.794578L461.651334,251.746441L455.575215,252.142266L443.488439,247.053077L433.939001,241.139908L430.202419,237.504763L429.700981,233.158752L431.503151,230.412210L427.887354,225.056479L416.301162,220.104689L404.378863,222.261499L395.680567,225.597705L389.919454,225.403833L383.405487,220.637833L373.621391,216.986622L360.986937,214.579425L353.049282,212.010688L351.511438,213.529310L353.066565,223.844781L350.954083,228.344231L289.558556,234.305839L271.065582,239.887802L257.782295,247.109623L247.820917,250.243920L245.593384,254.694930L235.885804,260.543405L224.646201,262.409412L221.807240,260.494938L214.683383,263.192972L202.426428,265.802135L194.316798,264.970112L190.267693,260.244521L182.192447,253.006618L178.838587,247.990135L178.982782,244.775054L161.624038,244.128806L150.490353,240.307863L127.362679,241.204533L121.563268,239.588912L120.458689,241.325704L118.055386,261.852034L113.913037,270.277256L106.933838,278.984998L97.660964,283.831495L90.101356,284.711933L90.135480,278.363025L91.660918,270.713456L86.093346,268.920185L77.829433,268.039701L73.732807,265.761745L74.479221,259.945636L72.412682,256.544799L68.806910,252.489623L60.301586,247.238873L42.459109,239.467741L30.378641,235.622567L26.129509,239.718162L17.826023,243.837994L4.363013,242.488951L1.159972,244.112649L5.267651,246.277580L15.045816,253.572082L13.437817,266.020237L3.647208,286.044698L5.000180,288.710207L5.872618,292.102627L7.220284,295.721146L8.052499,300.147278L10.400687,304.710603L14.477213,308.983054L15.915398,313.110017L14.203789,318.286728L12.311534,321.339361L17.551446,321.323210L34.251592,324.690716L47.753023,329.608566L50.566638,334.800754L52.610734,341.131184L68.803877,349.786456L87.165550,355.381293L93.200610,353.589044L114.599794,333.347288L123.440989,336.714456L129.247775,347.461232L129.313458,353.161160L132.913790,354.783881L146.212554,355.018002L160.765786,356.228967L170.569811,365.003931L179.885458,367.990606L192.971824,368.943090L201.632262,367.700015L205.665843,364.398511L210.178494,354.121879L218.786481,341.381486L233.041302,334.849203L257.935550,333.629908L270.273290,331.255879L283.233010,331.393154L293.123844,333.363438L303.195848,333.129266L328.297143,324.262717L354.293790,317.244940L358.031425,318.424017L358.716636,320.757913L354.323043,326.168514L350.164023,333.347288L353.749459,341.534898L369.820936,357.964654L378.816828,370.541302L387.108735,379.992695L399.462727,384.972164L415.478412,388.014558L428.954415,389.112048L443.197279,392.678771L491.908671,401.473742L516.307729,403.910307L534.694569,404.297567L562.931398,410.130387L568.826777,411.114572L580.453676,411.622792L593.529012,413.776631L605.759771,416.422440L616.590941,419.769866L639.097484,423.270343L659.501769,425.383431L665.745473,427.335145L670.723962,427.181914L677.073506,430.044850Z "/></g></svg>