<?xml version="1.0" encoding="utf-8"?><!DOCTYPE svg  PUBLIC '-//W3C//DTD SVG 1.1//EN'  'http://www.w3.org/Graphics/SVG/1.1/DTD/svg11.dtd'><svg enable_background="new 0 0 1000 650" height="650px" pretty_print="False" style="stroke-linejoin: round; stroke:#000; fill: none;" version="1.1" viewBox="0 0 1000 650" width="1000px" xmlns="http://www.w3.org/2000/svg" xmlns:xlink="http://www.w3.org/1999/xlink"><defs><style type="text/css"><![CDATA[path { fill-rule: evenodd; }]]></style></defs><metadata><views><view h="650.988331019" padding="0" w="1000"><proj flip="auto" id="robinson" lon0="4.82338529661"/><bbox h="32.13" w="49.43" x="32.2" y="-859.34"/></view></views></metadata><g class="" fill="#000" id="country"><path d="M785.220677,648.988331L794.353733,648.940033L811.813881,643.273276L837.855070,639.651325L858.521460,639.957171L865.050131,634.838480L870.567512,626.758890L875.138232,615.381671L881.004558,604.859248L860.134917,576.068952L855.765427,567.273895L838.870291,551.005869L838.813673,542.761159L842.475395,534.919396L840.836506,528.846027L842.661748,514.372353L853.666626,500.689489L860.730516,483.764325L872.834556,460.718532L900.295400,433.000388L920.802380,437.234128L929.690101,437.137903L935.481130,447.258590L937.184478,448.172919L938.220080,442.141859L951.120892,411.500328L999.230755,384.097238L992.856298,356.516612L991.543456,339.626363L979.244165,328.566643L955.307505,324.101810L948.747305,316.437279L945.832577,308.949853L962.691612,292.139079L941.167097,278.851055L931.625090,265.102877L901.706422,247.762953L898.399272,241.803181L872.164662,241.110351L855.661307,222.602307L820.740236,231.786541L820.555286,233.847225L813.919072,223.640445L805.855932,211.327861L807.703389,203.791618L829.980013,182.386264L833.234629,176.465807L830.762503,173.306374L832.766389,163.877066L849.342486,131.979824L851.199181,119.178462L842.999243,110.220931L831.453000,104.866256L794.180754,95.417202L776.152108,82.083010L767.634798,70.440209L759.313689,67.159656L747.328736,71.093158L716.859403,75.425121L691.790969,69.150259L661.737724,47.130333L654.347014,27.458530L650.309166,12.375297L642.828199,7.173511L633.195011,14.904787L621.054022,27.156187L596.446457,28.620177L589.336869,25.755887L587.940763,18.993582L586.351817,12.502564L579.350705,4.469415L571.899868,0.000000L541.259466,22.605343L529.637175,22.541698L514.723273,13.854796L507.245826,5.344255L491.315935,10.195895L477.159076,20.696012L482.612822,40.413102L474.921757,44.026295L457.072896,42.227627L436.733405,34.094575L433.246277,46.398082L423.583331,59.978175L389.957654,79.550366L354.740054,92.405965L336.353166,90.796855L323.636245,84.074166L316.720692,77.017842L297.576545,70.217252L271.374224,66.793394L255.270337,74.150978L243.802609,81.127281L233.626356,79.980429L225.870675,74.150978L219.838828,65.185052L211.572534,36.959307L179.621782,45.458906L111.955647,73.561697L0.769245,128.488238L3.865881,144.034730L14.153886,163.940880L21.191146,174.822240L15.685587,189.041585L20.370256,200.758266L39.366554,221.851667L62.976340,241.739273L83.941036,254.458518L89.771569,253.068199L105.100852,249.456738L130.934668,236.419199L152.550424,232.313685L165.137695,242.298472L172.252317,247.938720L186.340529,270.441855L190.611755,293.946256L197.060472,313.477377L208.299590,321.397493L249.939864,323.989794L280.737854,331.239325L288.984892,337.801586L300.373147,381.261613L306.218494,387.413675L313.752900,382.286906L321.166748,375.126306L331.640531,373.989032L349.710988,376.744162L373.459128,377.609175L398.031075,382.399048L432.408166,406.964184L431.306602,415.075028L425.028535,429.312188L422.986417,440.682321L428.918877,445.253540L438.136388,456.996237L436.298342,470.571093L427.797831,480.088493L424.479173,487.938081L424.646979,493.046651L427.939872,497.285395L434.975491,501.010641L485.142314,506.036939L530.804775,501.010641L559.312353,487.135409L563.852649,472.528996L571.608712,456.033619L588.422700,442.238093L600.179323,437.602994L611.200172,443.280648L594.451729,501.235449L608.216068,516.058870L610.788257,538.229510L616.105975,557.644321L632.476111,557.274604L652.433908,560.859353L666.703687,568.045619L683.437220,579.590572L707.394558,590.204977L724.097022,593.936563L730.377727,602.816118L744.099376,613.080739L765.865368,634.613139L785.220677,648.988331Z "/></g></svg>