<?xml version="1.0" encoding="utf-8"?><!DOCTYPE svg  PUBLIC '-//W3C//DTD SVG 1.1//EN'  'http://www.w3.org/Graphics/SVG/1.1/DTD/svg11.dtd'><svg enable_background="new 0 0 1000 814" height="814px" pretty_print="False" style="stroke-linejoin: round; stroke:#000; fill: none;" version="1.1" viewBox="0 0 1000 814" width="1000px" xmlns="http://www.w3.org/2000/svg" xmlns:xlink="http://www.w3.org/1999/xlink"><defs><style type="text/css"><![CDATA[path { fill-rule: evenodd; }]]></style></defs><metadata><views><view h="814.15327947" padding="0" w="1000"><proj flip="auto" id="robinson" lon0="-1.20275791609"/><bbox h="94.8" w="116.58" x="-81.41" y="-252.83"/></view></views></metadata><g class="" fill="#000" id="country"><path d="M725.435889,23.907500L699.029125,13.370586L668.474880,2.651784L647.173868,9.393478L643.801066,7.092464L641.012355,2.616707L630.708692,0.000000L614.385227,1.164540L602.574284,4.328439L584.025550,20.182403L570.032996,33.981377L566.212552,37.117180L546.669427,45.451249L510.355912,64.911364L489.755041,79.173164L485.004852,81.803839L475.857844,85.030798L461.773913,85.683205L450.040566,89.267932L439.381906,126.896845L432.316886,130.656912L389.092588,115.476325L380.323612,117.749207L372.788550,122.161683L348.556041,144.266079L336.541812,161.936888L329.931192,185.493183L330.836388,192.732616L330.989220,200.905026L326.729016,205.366524L320.885808,206.993988L315.669287,206.706376L295.578001,201.859057L289.253630,203.942493L286.503474,215.566225L286.847253,240.946138L282.381230,258.188698L270.404917,263.512978L261.164696,270.310371L253.890027,272.274528L247.833383,270.626039L212.967725,244.860442L201.169339,240.742706L188.082519,243.583734L175.464614,254.533953L169.747040,261.724189L161.840764,270.177088L152.974493,281.421882L155.257513,290.983098L161.458458,302.066515L165.859808,315.836583L165.575021,328.161579L133.561018,345.614355L136.149911,351.626014L140.900721,358.633765L140.890255,371.351521L139.898794,393.686468L133.415468,401.704308L125.042213,409.651996L119.846998,419.914535L114.741242,424.916029L105.628056,431.243302L93.165055,437.570572L71.573998,443.147265L54.293612,446.851030L47.769074,450.463603L38.572391,457.948289L31.221455,466.906059L29.427187,476.600366L30.822848,487.683576L33.330631,496.795654L36.523610,502.989620L38.428568,510.789947L35.703888,531.862043L29.336131,556.259083L23.286581,567.131827L13.567164,573.101313L5.175089,579.758238L7.870748,595.751692L9.218492,618.689677L6.790674,636.997984L6.322876,648.326693L2.733962,660.055243L0.614890,668.304514L8.436437,677.851506L18.386560,684.396214L33.540796,683.582510L44.514111,687.468650L54.013220,694.799007L60.334364,711.073114L67.272391,722.829765L70.258376,739.550534L81.244106,748.332990L89.854161,752.324380L101.521525,764.480940L113.623905,770.653923L126.165028,769.229928L131.999650,775.585298L141.345120,780.074743L150.691479,780.404437L158.952250,766.388953L169.839278,760.861328L197.373555,749.672806L208.232585,744.601147L219.233912,741.402425L245.699557,740.378273L270.309500,743.829525L282.504820,746.424980L290.867858,744.523985L298.791675,751.173962L306.959089,765.119283L313.667792,769.601710L320.524226,774.420848L325.572775,785.427007L331.523162,796.363027L334.765288,801.203218L342.124282,811.991940L348.461558,812.153279L354.715327,807.495469L357.418475,804.016141L356.124515,796.461233L348.606551,778.629703L346.792869,766.017171L350.687949,758.637653L350.602845,742.482695L346.551640,717.568733L345.918207,701.841765L348.707019,695.290036L347.381884,689.053971L341.937094,683.126555L341.554828,677.367493L346.216069,671.769770L345.652026,667.385590L339.844626,664.193908L334.657815,656.533872L330.079758,644.412501L331.079945,624.925724L339.840910,589.080738L340.938649,586.078458L350.761499,586.281883L350.813548,587.804067L381.418431,587.467363L416.411126,587.081556L458.225888,586.611573L496.213317,586.183678L497.879330,584.570303L504.155358,582.592165L542.538127,586.246810L566.537186,584.401951L576.716876,585.601460L584.147244,588.042566L600.726008,586.527397L609.581283,587.432290L616.250812,596.368983L618.950289,596.277792L622.674620,592.503898L629.295522,588.189874L636.051286,584.752685L640.873055,577.759056L643.802047,572.448949L648.182969,573.536223L654.474641,573.213548L658.666058,568.766245L660.319179,561.870822L689.451297,569.236228L718.210227,575.844050L759.218376,586.997380L760.044973,588.982532L760.292820,592.314502L767.417133,592.251370L779.260193,588.281065L811.761537,586.814998L814.805961,586.878130L819.017324,581.855625L822.425406,574.497233L826.062416,576.061505L832.176636,577.485484L834.984335,574.876025L834.597200,569.180111L836.613073,563.385991L841.404487,560.797577L842.656530,555.620748L842.687789,549.658275L846.838905,548.101017L853.899829,548.346531L859.676994,546.487642L864.331383,543.429244L870.305974,531.413104L873.664640,527.232356L874.696021,524.258132L878.105529,521.613599L887.516526,520.400059L895.094559,521.325997L899.970487,528.291572L932.462654,522.153729L947.955127,525.738230L979.498908,495.462864L986.588519,486.540182L996.138990,465.159399L999.385110,456.973246L993.594813,449.944514L974.761564,422.580128L961.733697,402.251457L959.398469,397.740984L957.550974,390.761322L958.825178,387.716925L963.965906,385.605488L975.862351,382.911827L978.073382,380.807403L978.677053,375.230679L976.796847,364.834814L970.245431,350.756183L963.274223,341.440564L959.394776,339.616722L952.282484,339.294042L944.570343,340.556702L930.071904,351.983768L923.639952,354.081183L908.675233,353.141204L895.296134,350.903493L887.166326,345.004070L862.971595,322.332287L836.249711,298.362692L825.053334,294.960504L822.455692,292.505315L820.641925,274.049284L821.087189,251.903377L822.556743,246.109090L833.687358,249.567424L845.529505,251.173830L849.336091,247.161322L839.859867,239.283610L826.241875,231.307677L821.176997,219.228011L817.251661,215.033091L811.126384,210.753989L804.118431,208.530258L797.036017,205.135032L792.215315,201.620549L784.262390,200.056218L775.903433,197.467705L763.836177,177.881945L752.104803,158.864319L745.157215,143.887268L742.745996,134.886982L746.215609,119.545064L742.700686,113.477029L729.617178,97.903532L718.710603,83.424334L721.370060,61.053022L723.587425,42.392620L723.719593,30.578991L725.435889,23.907500Z "/></g></svg>