<?xml version="1.0" encoding="utf-8"?><!DOCTYPE svg  PUBLIC '-//W3C//DTD SVG 1.1//EN'  'http://www.w3.org/Graphics/SVG/1.1/DTD/svg11.dtd'><svg enable_background="new 0 0 1000 1248" height="1248px" pretty_print="False" style="stroke-linejoin: round; stroke:#000; fill: none;" version="1.1" viewBox="0 0 1000 1248" width="1000px" xmlns="http://www.w3.org/2000/svg" xmlns:xlink="http://www.w3.org/1999/xlink"><defs><style type="text/css"><![CDATA[path { fill-rule: evenodd; }]]></style></defs><metadata><views><view h="1248.49113944" padding="0" w="1000"><proj flip="auto" id="robinson" lon0="89.8682938924"/><bbox h="96.97" w="77.73" x="1266.93" y="-445.59"/></view></views></metadata><g class="" fill="#000" id="country"><path d="M866.183176,1091.861533L865.469906,1069.945602L860.780728,1054.258185L856.843521,1045.725279L851.921661,1045.556935L842.902538,1048.608163L850.004607,1077.563065L848.690782,1086.495670L855.069219,1092.882098L866.183176,1091.861533Z M842.271258,1022.030759L842.314013,1010.930425L837.044312,1001.660802L835.048328,1001.576628L833.433118,1010.562166L832.867596,1026.839128L838.016715,1039.675417L842.271258,1022.030759Z M696.994472,948.104198L698.775662,924.871107L692.506914,907.109263L673.016435,873.857616L679.387456,963.192848L696.994472,948.104198Z M766.186173,903.489516L763.271380,894.187549L756.511803,880.108168L746.536046,861.608942L740.075162,853.001101L737.434111,856.810449L736.182181,883.349179L749.573318,904.310273L758.484960,909.834588L766.186173,903.489516Z M630.106819,966.612498L637.677860,951.387099L637.255969,901.690160L634.758723,881.370901L605.508716,848.213085L596.138952,832.091487L590.855146,816.622044L587.973256,810.613086L572.275304,799.763172L555.761030,805.835354L562.189170,824.767215L571.581131,840.920519L574.157833,852.759070L592.252638,869.343304L600.014327,889.967965L604.689100,915.285218L581.912753,971.820870L598.750805,974.177784L630.106819,966.612498Z M577.536998,778.325990L563.699815,762.708135L556.257098,767.138841L562.351284,775.642353L571.044760,782.083066L582.215165,787.587096L577.536998,778.325990Z M954.614291,1246.491139L957.617930,1246.186025L953.176794,1230.541047L946.379575,1216.074471L940.879000,1200.324334L938.433574,1188.088263L927.621855,1177.051601L920.690150,1157.755839L915.644574,1138.175966L919.032484,1124.224875L930.262111,1109.200575L939.383961,1106.570265L948.167394,1113.198643L968.071667,1123.120148L981.931334,1132.420882L989.123291,1144.593878L994.748189,1143.120915L999.599196,1135.356291L997.066592,1125.760969L987.588538,1100.636278L981.557552,1070.103423L971.095655,998.714713L968.451799,990.581376L963.730843,975.503546L946.892961,897.439038L939.085955,872.573828L930.600602,838.152906L924.008858,827.587488L914.866139,808.750405L905.489771,792.543845L898.582639,785.650692L890.190471,755.299007L883.125306,718.104814L880.493105,700.548926L866.515893,664.193593L852.005086,622.993731L841.321862,624.730629L833.283909,614.740754L828.615572,614.930238L814.667540,624.246404L802.011410,621.183140L793.126659,622.477924L796.080294,641.394046L800.789933,661.562113L798.432859,668.814444L778.103159,692.528627L773.880654,708.421771L777.122326,725.124930L783.478426,747.479345L780.941835,758.814143L772.095942,769.306825L758.885849,774.726757L746.221769,772.169396L736.992152,763.087009L726.085358,739.901660L717.632605,727.261472L710.329872,724.251366L705.492111,727.671939L706.986372,742.227597L709.147909,754.278141L707.623476,755.614738L703.528967,753.751920L698.244671,747.847702L678.008294,689.813069L654.709181,645.099298L651.096501,627.941245L653.595331,605.898137L655.570231,571.926335L671.567057,550.723046L672.679290,541.731895L674.668982,534.614656L679.188816,533.193301L704.328809,535.204254L712.133651,531.792999L717.894316,521.822303L727.280241,513.788732L737.481630,510.556312L745.803087,509.355993L760.730514,516.979014L765.734528,512.662126L767.520061,498.563511L771.160023,484.580273L773.870140,477.851732L782.531053,474.798055L794.110049,474.050428L797.563572,471.502166L799.912731,466.784683L799.697804,448.261729L807.645047,406.895319L809.804422,388.506510L809.964100,385.220444L806.008222,364.702950L809.747874,361.743197L836.252103,371.728317L847.014655,371.591392L852.200674,367.473088L852.832282,359.963121L848.131160,351.157410L827.865909,335.840899L792.971465,315.173121L762.036216,302.542281L709.365690,304.449046L657.511260,308.441637L641.779561,306.397941L621.610334,300.709250L574.557216,301.552024L518.049380,304.701876L496.054952,302.921528L485.390824,303.163824L464.257168,305.081121L428.241425,299.202788L402.713798,291.649329L379.825912,283.368823L353.057778,275.857247L346.961485,275.941529L342.925215,273.223428L339.323872,266.586142L336.972198,258.020759L335.228351,218.247545L319.678166,157.946599L319.972532,135.977135L289.883219,86.379546L280.965604,77.191333L271.310976,76.790929L266.355040,83.186849L266.115521,94.777512L271.961465,107.706400L266.966021,122.194770L252.485417,126.883729L233.631067,122.015641L217.508694,115.219280L195.784644,100.467485L177.497407,79.688585L172.048796,56.791951L162.775652,41.998352L152.528279,34.801815L145.640799,32.799858L140.136847,34.401423L136.501962,42.388209L142.460671,50.396123L150.706637,61.586206L150.070397,69.193821L144.808331,70.384490L136.028002,67.118056L123.716377,68.909326L110.411190,63.040291L102.971615,62.513448L95.305830,60.385007L92.438629,47.161341L78.111088,30.397516L55.759091,11.600448L35.084018,0.000000L26.483449,1.601505L24.470094,14.403124L26.401553,19.197198L33.268389,21.578439L43.987285,29.006688L47.504267,36.793238L47.407993,43.599930L38.196492,56.001691L32.244021,67.760806L17.150058,84.904372L5.152508,104.524227L3.833977,119.402467L0.400804,132.752824L0.680965,147.451860L6.583289,157.619956L15.276068,164.026354L35.612509,168.694157L59.501807,188.461013L80.730258,215.170951L91.416789,223.241715L109.834819,232.239563L142.528358,233.282632L148.682579,240.668352L156.701768,260.243768L164.279703,267.144520L182.418586,276.373474L184.983360,283.168657L182.279841,290.996164L175.997054,297.169582L163.176750,301.088498L150.532294,302.658162L137.141185,300.171981L117.662358,298.570704L95.869260,298.454822L88.698282,347.407545L80.521679,364.597621L74.238721,364.576555L56.061456,356.234413L49.036846,357.519452L36.789452,401.008047L35.743050,411.487119L35.756552,419.385731L48.792029,436.193456L63.328908,450.020340L78.941396,455.443552L89.800749,451.326129L100.042033,456.907281L113.301692,470.838773L133.608085,480.031411L160.986393,484.485505L177.812583,495.499451L181.182778,504.986386L181.399959,514.620524L182.973105,539.763084L182.636145,554.228917L174.159792,592.212838L168.908675,624.972742L176.580850,640.541414L181.330721,646.888758L185.662475,651.793953L199.014080,664.077808L208.857395,676.235095L206.626973,707.232430L211.628380,715.389367L227.903862,720.841300L245.150607,724.998631L251.681489,730.124216L241.882043,761.613610L248.124162,783.524852L257.186836,804.077899L266.436322,837.689883L267.596744,841.225693L267.637916,849.654754L280.805901,875.751727L302.614439,926.680948L306.373202,945.726194L308.351157,965.781261L316.315994,982.637388L322.846496,1013.276757L339.107044,1032.341908L353.466544,1045.683193L362.188171,1048.997457L375.773007,1045.956751L391.119977,1024.408641L397.403141,1004.312277L394.244083,978.986296L382.594700,939.970563L383.278443,926.481023L404.062882,989.371367L411.314547,1015.896649L414.454681,1035.971841L424.168911,1025.902707L429.662837,1012.214069L445.025025,1003.302192L453.354059,989.413454L457.683342,966.265272L457.668399,948.567172L451.791481,923.587381L454.100751,902.332036L470.915181,885.348499L458.764444,919.399479L462.028239,942.201267L469.128422,960.825394L478.684066,980.932845L497.713055,964.697495L510.463175,956.143082L522.211596,952.113124L503.760351,982.090251L502.167776,994.495484L504.573291,1010.151821L516.874466,1018.737492L523.016589,1025.324020L536.008948,1022.535796L544.654045,1007.531920L552.746247,975.461458L574.547218,947.304516L584.278589,938.844686L589.863476,930.163830L591.632222,907.814271L585.513510,891.935703L570.422997,869.637945L560.627352,858.988715L561.240088,849.054936L556.368683,838.310755L545.766484,823.820106L543.704257,807.382332L546.602514,795.827279L562.729777,790.849503L546.220876,773.200761L541.928300,758.729948L552.410244,752.036440L563.364201,741.480351L561.855474,726.345812L558.289693,712.926509L543.016434,695.738864L517.938354,691.255053L492.281479,672.087962L518.878382,677.256085L546.662541,679.487521L547.231228,668.119740L543.956164,654.572843L544.791223,645.730873L550.030795,642.878255L554.263379,655.751762L557.122699,675.003589L570.183744,711.495100L571.800005,750.036794L578.224192,764.855084L619.628066,830.397229L645.666376,857.199801L683.434015,853.527255L694.615920,847.455419L709.831043,827.429638L725.689413,814.096393L735.998652,795.174803L739.179283,814.012204L750.890472,833.354287L787.707495,877.077603L798.446565,898.217710L813.594928,921.756491L821.171466,911.918037L824.287211,910.329145L824.287850,917.473881L820.905099,936.582409L827.813690,951.944771L848.047772,1011.056685L871.785304,1053.784720L877.447019,1090.093956L896.143021,1163.668720L927.705306,1204.722166L940.698868,1226.416755L954.614291,1246.491139Z "/></g></svg>