<?xml version="1.0" encoding="utf-8"?><!DOCTYPE svg  PUBLIC '-//W3C//DTD SVG 1.1//EN'  'http://www.w3.org/Graphics/SVG/1.1/DTD/svg11.dtd'><svg enable_background="new 0 0 1000 665" height="665px" pretty_print="False" style="stroke-linejoin: round; stroke:#000; fill: none;" version="1.1" viewBox="0 0 1000 665" width="1000px" xmlns="http://www.w3.org/2000/svg" xmlns:xlink="http://www.w3.org/1999/xlink"><defs><style type="text/css"><![CDATA[path { fill-rule: evenodd; }]]></style></defs><metadata><views><view h="665.193883896" padding="0" w="1000"><proj flip="auto" id="robinson" lon0="27.9890706454"/><bbox h="77.76" w="117.08" x="292.96" y="-933.45"/></view></views></metadata><g class="" fill="#000" id="country"><path d="M820.747695,663.193884L822.957937,655.851590L828.077546,650.749689L824.560822,643.740641L821.937559,634.812765L815.932799,626.526189L811.318424,617.611721L814.527501,604.883701L818.518215,593.744879L820.426694,587.698219L827.905780,576.574316L836.218622,568.629995L848.433868,555.861749L858.299597,551.645128L868.287405,553.565940L873.960906,555.306183L886.364522,547.750443L910.879737,547.375730L931.538147,548.339289L930.372896,544.946934L920.552717,531.957432L915.071228,526.267563L909.266615,523.172470L905.935641,519.409431L902.867699,503.848891L901.033244,489.292964L903.939263,487.417356L891.995226,475.552992L889.535649,466.575154L893.402851,462.107476L892.813685,458.313924L888.591243,452.987942L876.989376,444.311528L865.464501,434.539227L857.764183,426.854660L853.158455,423.186352L856.720613,417.162446L861.250159,406.522657L862.581381,400.276632L865.439254,398.746959L880.801045,397.869102L892.111788,398.081913L901.040909,400.363095L905.256147,405.444957L914.092897,410.986957L936.589601,413.269314L945.813068,413.036411L956.441433,407.966315L972.985651,396.765174L975.947504,388.633506L986.409117,382.903683L993.052463,380.657309L999.247208,379.647171L998.905600,374.869494L997.159400,368.339021L994.145902,364.433495L968.314046,350.994552L964.508885,346.607174L961.617573,341.437535L963.365083,336.540938L962.178558,331.161061L933.098105,319.164840L910.484263,317.043365L892.360798,317.712937L884.759215,315.200474L886.608537,309.155645L888.913780,298.295695L888.434415,289.373886L886.353592,285.314702L882.046626,281.898318L863.142456,274.405004L836.944596,262.917593L823.243587,249.947258L814.834756,236.414781L806.726416,228.114865L794.020914,222.862647L794.089096,219.440993L799.257063,206.748946L798.574685,204.801415L794.678228,201.672452L778.884849,195.263809L756.921524,183.460221L755.480216,180.386439L755.415922,172.967228L756.630298,165.668648L759.827183,162.194745L768.535986,147.379443L767.515221,142.346666L764.165477,135.628927L753.238119,124.054522L745.096774,116.604176L743.913142,112.794225L744.375586,109.655856L747.844209,105.596908L750.905558,100.611218L748.250449,83.385447L746.815074,77.372182L743.505652,73.824007L740.442152,72.326031L734.827359,73.186700L725.950140,70.361708L718.807193,65.875189L714.660233,64.423637L709.653635,59.846192L696.113168,50.634614L693.616298,48.212435L668.704501,40.363235L648.945367,41.544401L637.640975,40.356673L632.187993,42.095631L627.135901,47.096602L619.433565,50.417987L613.208690,50.509889L607.989484,53.004497L594.246640,61.960781L585.926529,56.543308L578.118774,48.540630L578.862375,41.774079L580.240197,35.547260L579.225031,31.361895L576.318556,27.800278L565.925621,23.885037L544.069226,16.731595L538.231536,16.646369L529.929814,19.288507L515.493201,27.282147L509.522198,25.563861L503.073090,19.216386L495.913412,11.277705L487.511014,7.220822L471.185593,7.620583L469.682590,7.928600L462.632320,12.516527L459.197863,12.064251L442.742275,0.386543L439.527191,0.000000L430.875429,1.677248L418.127446,9.344215L400.356202,27.419877L395.659067,31.427491L392.663257,45.206358L391.589902,46.604338L379.154199,45.967690L375.738314,45.639527L363.428955,45.915183L335.894847,42.331875L325.896614,44.701004L314.705843,58.644499L309.765985,60.693321L294.202808,62.624088L291.694186,64.252872L292.472286,70.289444L291.735061,80.539657L289.083294,93.778764L285.652770,104.044537L285.091628,108.011152L289.631738,111.307238L309.467036,112.866602L318.079711,114.630042L320.194714,117.360965L316.470896,120.908282L310.737648,123.857049L308.429591,126.648137L305.194730,136.629899L272.376659,135.358934L268.405422,137.393823L267.144343,142.030501L266.438371,147.392619L263.243425,153.750758L255.512523,159.281480L242.298166,161.324688L231.834024,165.088536L225.508771,176.706263L221.947288,192.294294L223.948032,203.355711L225.793095,209.528542L225.657639,213.061215L222.099660,216.911358L216.920842,227.110589L213.192211,238.391012L212.055167,244.512296L213.602899,247.375101L219.915024,247.454445L229.384413,249.775333L234.969193,254.285438L237.623934,259.497471L238.571173,265.107495L237.379833,268.197482L230.455049,270.434140L219.045456,270.513552L211.948274,267.840163L210.222900,265.722817L212.522748,260.317732L209.116851,253.571177L203.774362,249.801783L195.085858,255.429617L185.859624,255.423003L175.609690,260.436804L169.676215,268.475399L163.211579,271.440036L144.191710,269.798857L140.097082,273.346049L138.818407,289.718251L137.079848,292.917079L121.282676,292.215025L107.172322,298.726297L90.903045,304.000086L81.678693,300.336148L76.219670,296.202408L67.032745,296.937689L57.157876,298.752796L50.189025,297.759109L42.608125,298.202951L28.310865,301.382935L9.572441,300.356023L1.247724,297.646493L20.320990,343.892818L47.297650,388.547083L57.994982,410.181860L62.696379,421.708530L67.558425,438.435693L70.036539,450.188764L70.916661,456.807334L70.732514,465.908285L65.443553,471.290441L28.404534,486.683172L21.708939,491.515847L11.832830,503.528299L2.892777,515.907596L1.024673,520.137930L0.752792,522.925147L3.681840,526.989586L18.655693,533.629215L33.569156,538.959643L38.750600,542.953232L49.922411,548.064938L54.391652,552.655710L57.027479,556.658307L58.190571,565.897663L55.278737,578.684769L58.616356,588.355097L54.723259,594.797507L51.771748,601.959326L52.962282,614.511261L62.008459,628.392758L62.786774,627.365455L60.594352,615.665496L64.368578,613.142360L70.646461,611.431347L79.921933,612.008381L88.038220,613.813380L98.213357,619.162107L101.034153,618.303006L115.693533,608.224379L130.111557,593.107961L133.568808,584.360491L137.119012,580.366569L151.224724,578.235863L163.651639,577.351476L171.660000,577.518971L191.039310,576.031658L202.408902,574.383665L212.051534,571.724343L233.575424,570.733035L267.692341,572.514739L289.925109,572.642009L305.231116,574.055420L343.445050,582.081995L357.437814,583.536186L364.500154,587.792057L377.028741,589.373965L400.061449,593.657721L419.845889,595.950759L432.824235,595.012061L440.365627,596.218965L457.311674,615.242718L460.506319,617.464070L466.146028,617.913736L477.225135,616.269479L493.475546,616.886901L503.710238,620.900543L504.153280,632.240517L506.942546,633.885916L511.320353,633.254606L515.430151,626.848463L518.670573,620.209180L521.560981,618.155351L538.792874,622.639110L546.210383,621.914131L552.328415,616.880190L556.451456,616.027884L568.733165,619.605094L583.570161,622.108799L595.242296,622.269905L602.964656,624.995447L610.245946,636.834499L615.264874,639.266191L619.842331,640.018589L624.777721,629.433536L630.180067,625.331127L638.124304,622.310182L643.339468,620.987804L646.531709,617.256019L651.070119,613.612072L655.496380,613.323534L659.379284,614.732709L664.428547,619.772894L672.507441,631.266764L681.912274,642.820149L687.806319,647.013054L700.560247,643.465162L708.995830,639.857359L725.470429,639.172142L747.021579,636.632989L763.250826,633.328482L773.870844,633.899349L780.899898,637.566666L791.869513,644.667889L796.331844,654.863385L810.197033,661.916208L820.747695,663.193884Z "/></g></svg>