<?xml version="1.0" encoding="utf-8"?><!DOCTYPE svg  PUBLIC '-//W3C//DTD SVG 1.1//EN'  'http://www.w3.org/Graphics/SVG/1.1/DTD/svg11.dtd'><svg enable_background="new 0 0 1000 1750" height="1750px" pretty_print="False" style="stroke-linejoin: round; stroke:#000; fill: none;" version="1.1" viewBox="0 0 1000 1750" width="1000px" xmlns="http://www.w3.org/2000/svg" xmlns:xlink="http://www.w3.org/1999/xlink"><defs><style type="text/css"><![CDATA[path { fill-rule: evenodd; }]]></style></defs><metadata><views><view h="1750.73311774" padding="0" w="1000"><proj flip="auto" id="robinson" lon0="-88.7397188566"/><bbox h="43.49" w="24.86" x="-1306.96" y="-309.92"/></view></views></metadata><g class="" fill="#000" id="country"><path d="M937.079027,714.307217L973.950990,676.052328L983.238056,645.962081L962.869208,631.081595L955.536658,661.566860L936.564494,687.377342L908.061116,711.871016L880.706605,781.665087L880.291915,808.595165L937.079027,714.307217Z M921.619163,375.779279L999.714242,230.535053L994.770213,221.317465L971.723143,220.724906L926.435126,324.456293L919.953745,349.442879L892.163452,388.322018L921.619163,375.779279Z M2.601664,1748.733118L73.742101,1740.634087L176.791778,1747.942968L202.240745,1747.416202L196.867363,1703.332446L220.761147,1662.442201L347.046639,1506.683966L428.597521,1477.843528L499.434784,1381.182067L537.075808,1344.209769L602.151044,1247.021864L659.112886,1024.333889L658.915131,869.862937L671.886390,788.578671L691.202934,734.718654L738.933038,651.097829L706.617743,588.218007L748.007236,492.812589L764.174660,428.946126L852.197001,243.176334L868.103804,172.727788L852.329570,88.717108L784.042022,86.050640L754.750025,93.194141L724.565147,83.252496L765.763309,6.682548L721.600153,0.000000L669.003480,3.752760L630.148364,24.557572L579.727270,129.306788L468.616619,276.886515L422.741368,348.422345L389.664049,373.178556L364.718119,382.791359L340.544117,365.870199L282.390101,325.378063L231.140381,344.866937L208.349115,391.284872L201.443045,450.015427L175.248836,613.567420L145.175691,803.064289L123.220211,942.324510L94.206452,1128.204183L64.841741,1318.233706L25.413559,1577.369415L0.285758,1744.848217L2.601664,1748.733118Z "/></g></svg>