<?xml version="1.0" encoding="utf-8"?><!DOCTYPE svg  PUBLIC '-//W3C//DTD SVG 1.1//EN'  'http://www.w3.org/Graphics/SVG/1.1/DTD/svg11.dtd'><svg enable_background="new 0 0 1000 1130" height="1130px" pretty_print="False" style="stroke-linejoin: round; stroke:#000; fill: none;" version="1.1" viewBox="0 0 1000 1130" width="1000px" xmlns="http://www.w3.org/2000/svg" xmlns:xlink="http://www.w3.org/1999/xlink"><defs><style type="text/css"><![CDATA[path { fill-rule: evenodd; }]]></style></defs><metadata><views><view h="1130.45244558" padding="0" w="1000"><proj flip="auto" id="robinson" lon0="-49.7230463405"/><bbox h="653.82" w="578.88" x="-1093.08" y="-88.17"/></view></views></metadata><g class="" fill="#000" id="country"><path d="M689.145493,955.868681L688.680001,954.132657L690.377732,950.057995L690.790314,946.732295L689.710313,945.230539L688.595042,946.293936L687.785665,948.007750L687.127088,950.304016L687.597048,957.177701L689.145493,955.868681Z M682.428576,916.317804L682.768955,915.683977L683.488094,913.757014L684.040416,911.020753L682.853040,909.617241L680.078623,913.075074L682.002561,916.671501L682.428576,916.317804Z M758.515777,843.542039L758.681937,842.496003L759.047811,841.695938L758.552807,840.457693L757.905106,839.570016L757.099850,838.863274L753.764135,843.728631L754.816068,844.867983L757.519855,844.282755L758.618997,845.051751L758.515777,843.542039Z M785.096914,821.911912L783.480671,821.083795L782.697160,820.204811L782.117699,819.950445L781.426207,821.168584L779.396386,822.785259L780.482961,823.949735L782.923051,823.327925L784.488333,822.626982L785.935211,822.706120L785.096914,821.911912Z M900.454295,542.112666L900.279371,540.018347L898.424952,539.942036L897.773718,540.436646L897.413906,541.307158L898.193376,542.420737L898.636071,543.562581L899.653072,543.816952L900.454295,542.112666Z M904.073002,531.219991L907.576065,528.195835L907.576033,527.613616L907.160636,526.211767L905.753021,524.942756L905.432849,527.684273L902.931883,530.004675L903.103850,531.844607L904.073002,531.219991Z M749.983130,237.250889L750.362505,233.554060L750.233218,232.912485L750.356411,230.823834L749.835527,231.075376L748.141519,232.773995L747.837352,234.529141L748.290227,236.795851L747.506320,240.085690L749.983130,237.250889Z M739.692190,190.314212L739.551884,189.127159L737.239653,188.850180L736.822335,191.173412L736.422348,191.091449L736.182094,191.891297L737.540171,192.425470L738.065523,191.707586L739.692190,190.314212Z M562.074049,193.669050L567.032263,191.009486L571.414495,187.225048L575.341109,181.804174L576.204520,181.744822L579.106118,171.468339L576.708262,167.842177L572.352912,168.551582L569.253866,170.973734L565.901287,176.920301L565.896055,183.607364L562.800104,186.976333L559.372738,194.214529L562.074049,193.669050Z M618.239113,158.806448L602.395646,155.542054L596.942750,156.729106L592.244857,160.069811L591.018068,162.720894L590.460548,165.781793L590.791580,167.469103L590.366373,169.057492L589.057463,170.852202L588.818070,172.138176L588.461517,178.401290L588.805935,181.414143L590.701687,183.364301L593.684060,183.225811L594.097874,184.099143L594.013740,185.150532L593.622121,185.382290L591.767720,184.893338L590.202967,184.783111L589.452087,188.067291L590.399854,191.865860L591.724249,196.048808L593.192726,199.570399L593.596163,201.308584L596.035718,203.920102L597.679382,204.287523L600.351003,202.993069L606.205889,202.758485L607.306813,201.483816L608.733426,201.619479L611.269869,203.196564L613.992215,203.985107L615.422528,202.976112L617.927536,202.475853L619.522930,201.732532L621.090878,199.361252L621.547286,195.921624L624.115675,197.193467L625.704668,198.340951L628.538991,198.465309L629.275026,197.292388L629.847129,195.150040L630.059708,193.055739L632.275891,195.732261L633.514987,195.992282L634.855691,195.720956L636.308116,195.073729L638.723026,192.402860L639.464217,190.577059L638.815676,189.118680L638.532054,187.671606L639.795956,186.131264L641.355799,184.927253L641.962785,184.200890L644.000328,180.735827L645.343671,178.014085L645.885049,176.702675L646.129498,175.354522L645.425825,171.982728L646.533861,172.183397L647.192407,171.417465L648.035430,167.649987L648.946370,164.950856L650.176122,162.384562L649.840946,160.779216L648.515221,160.041547L646.700343,159.357579L644.843396,158.877106L639.767096,158.410764L631.317967,156.907164L628.809948,156.765849L626.274874,157.031522L624.010767,158.385327L620.628578,158.933632L618.239113,158.806448Z M592.051141,155.982959L592.109249,155.236812L591.689090,153.851918L589.176057,153.355900L587.210026,153.625813L583.302318,155.219854L582.520094,157.161533L582.606761,157.625048L582.206232,158.710353L582.695996,159.787179L585.067521,161.646894L592.051141,155.982959Z M622.959187,155.426175L624.569913,153.778434L624.788093,152.141998L624.068105,150.516867L621.435726,149.750935L618.911339,150.358593L616.096033,151.735008L613.785609,153.673860L613.085855,154.890589L616.186510,156.333422L622.959187,155.426175Z M615.439619,144.412027L611.842584,143.359224L605.473687,145.617450L601.775133,145.466242L599.919387,148.281252L600.062710,150.918203L601.439514,151.346390L605.848619,151.217793L608.677300,153.020982L610.860590,152.844337L612.857864,151.973832L616.484696,145.922692L615.439619,144.412027Z M597.848540,148.142762L600.252149,144.676287L599.997080,141.129262L599.798314,135.336729L599.242524,135.072469L598.624882,135.346622L597.914757,136.016458L597.864360,139.874378L597.206107,142.711998L595.293272,145.026750L593.138186,146.246305L592.790074,150.598830L597.391129,152.394953L597.848540,148.142762Z M604.845064,140.798583L607.741711,137.042411L607.831197,134.958003L607.272899,133.707359L606.254097,134.084672L605.889900,134.671132L602.350212,135.229329L601.563291,137.224708L601.556860,140.862175L602.071532,141.777901L604.845064,140.798583Z M601.414023,96.069304L601.602904,94.880837L600.380714,90.187735L599.857151,89.820314L598.425663,89.616819L596.567503,90.567875L596.075353,93.435175L597.389197,96.880457L598.848965,97.390607L601.414023,96.069304Z M594.328250,1128.452446L603.550334,1118.582819L606.723680,1114.655623L608.789227,1110.931627L611.028878,1103.337379L613.046622,1090.753282L614.143179,1087.404218L615.727189,1084.433793L617.014911,1082.903789L615.686920,1080.616184L614.542944,1077.129189L614.124211,1074.763688L615.069544,1069.267984L616.910728,1066.503806L617.212879,1063.359993L617.294848,1060.300922L618.214203,1059.006447L622.931424,1056.265647L627.481944,1052.253108L628.303338,1050.758981L627.456335,1048.595167L627.821431,1046.729595L629.566728,1044.830219L629.271355,1039.863391L630.433928,1040.676696L631.454090,1042.083757L630.674112,1037.462761L631.171838,1033.899433L632.390573,1032.294917L632.938126,1030.921129L629.396801,1027.458062L628.655037,1024.484321L628.153846,1021.422655L629.437131,1022.146588L630.082891,1023.918230L631.776342,1026.503485L635.383691,1027.933922L636.199831,1031.047814L638.504248,1031.211096L644.954728,1027.246877L647.049263,1027.731190L647.719618,1029.555690L647.343502,1033.071855L646.609717,1033.589799L644.713203,1032.339958L643.997910,1032.700280L645.795817,1040.718909L644.267122,1043.865034L640.466503,1046.467906L640.293386,1049.399917L640.757413,1050.744912L640.306885,1051.957659L637.173931,1051.586237L635.976452,1052.666737L636.702523,1056.929731L636.604774,1059.031774L634.806381,1062.985686L630.906400,1065.301966L626.139553,1071.565170L623.242766,1072.201449L622.478273,1073.220668L621.370662,1074.251210L618.648126,1072.730760L617.055138,1073.172803L617.517297,1075.569045L618.205694,1077.416453L617.963715,1079.883785L618.922976,1081.376795L621.257242,1077.762868L623.833394,1075.188889L631.195482,1069.484742L637.761933,1063.084187L642.438002,1056.687733L645.868811,1051.203561L648.292777,1046.293446L654.212571,1032.694650L658.281632,1014.674585L663.681874,1002.034087L668.673873,993.718793L673.563630,987.816276L679.051700,982.826837L684.137719,979.259732L683.736410,975.423613L685.847217,971.589627L686.601370,968.611267L686.838922,964.801585L686.378272,957.553715L684.590687,949.814800L685.739651,944.452770L684.810274,941.299113L685.618470,939.333259L685.038163,937.231539L684.212899,935.336234L683.101908,930.125208L681.026055,925.049553L680.780504,922.426714L680.953372,919.724574L680.777327,916.459283L679.387203,914.775675L677.969808,912.466702L678.702718,911.258443L679.561606,911.224488L680.902808,909.880400L681.263563,902.811881L680.183266,901.060323L678.541315,901.065983L678.781355,900.171815L681.694601,899.348391L684.654215,893.015806L683.809446,891.649163L681.812238,890.811644L677.128758,889.948667L675.805513,886.392164L678.173611,888.355719L680.187827,888.672609L682.363171,888.542458L683.458858,887.393741L682.438076,884.711583L683.724932,883.591218L687.025113,884.584267L689.210981,884.686119L688.061736,887.393741L689.084440,887.775701L693.029972,882.567063L695.207850,880.583872L695.465106,877.684183L694.188776,877.604974L693.369371,876.745000L695.136798,875.706721L696.069279,875.636002L697.082119,874.346102L702.582692,869.367858L713.182406,861.030378L719.276112,853.593325L724.867321,849.945837L740.551492,840.830861L743.693320,839.909254L748.148181,839.943178L751.669510,841.099429L753.230333,841.034407L753.901171,839.759424L753.987977,837.642040L756.237963,835.162887L758.927539,834.464668L765.081496,828.845228L772.081273,827.505440L773.241281,826.962747L774.383457,825.736048L773.002035,824.418921L771.638456,823.785803L771.242155,820.900083L772.228800,819.410624L778.848865,817.949451L784.354535,818.124677L786.727217,816.205681L791.185195,815.216522L795.378179,816.830269L796.140823,818.079458L793.333782,819.136476L790.628488,818.825587L788.801503,819.464324L790.766977,820.741810L794.747389,819.732820L799.792973,819.147781L803.772533,817.748789L807.388030,817.550953L808.043855,816.027631L807.540041,814.278242L806.745636,812.851057L806.544292,811.876059L806.771555,810.502600L808.593126,809.852615L810.289161,809.798921L810.905559,811.169545L810.185199,813.467146L810.779586,814.984777L812.483284,816.143505L813.979703,816.852879L817.214739,817.033756L823.350307,816.098286L834.805587,816.092633L836.818365,816.273509L837.987457,813.323015L839.039397,811.678235L837.806578,810.160651L837.342529,807.521177L837.646280,805.670188L843.998110,797.828508L846.939242,795.918311L858.157813,791.309629L861.057772,788.840035L861.224343,786.562610L859.813910,777.608526L859.749402,777.204482L858.979814,774.565497L860.820139,766.818152L863.603888,760.842398L864.372031,757.217391L865.825982,755.485408L868.987723,753.679961L873.645247,747.478110L875.337497,743.321827L875.600887,739.470646L877.864510,736.964380L878.987700,730.084272L882.124624,723.537064L885.901645,720.849733L887.313694,718.611676L888.417129,715.200850L888.913743,710.105703L887.128917,697.608965L886.838300,691.642976L888.436915,680.428496L892.139109,672.839843L893.894112,670.810522L897.162575,668.767059L900.063704,664.555738L899.546566,662.766621L897.904160,653.323474L897.999633,649.338139L898.771724,645.443226L899.322239,637.339596L900.489586,629.837955L902.603665,620.637516L904.160402,611.309866L904.011103,610.665411L902.150076,602.629519L900.376646,593.641132L899.508700,584.432484L897.966662,576.303559L900.142069,558.239907L899.495915,557.451345L898.552905,560.280563L897.477062,558.624296L897.746935,557.092394L897.305439,550.351488L898.204358,547.643833L898.464688,546.210871L897.906007,545.238606L897.224172,544.582892L895.878603,545.433624L896.308240,542.316162L897.098234,538.978256L898.810928,536.313025L901.809442,532.669893L901.735023,529.363102L903.356766,525.725642L902.783138,523.908329L900.993567,522.336906L902.603869,522.122107L903.685595,521.132903L904.894205,517.526552L905.854728,518.125726L909.258703,521.531411L910.130650,527.155754L911.451798,527.458169L912.606795,527.432732L916.584574,523.902676L921.910944,516.582571L923.361541,513.230596L929.800322,502.363564L934.940454,489.444716L936.255498,484.919879L935.482167,481.924049L937.367554,477.837287L938.285780,476.754832L938.357102,478.244267L938.120849,479.496297L937.567149,480.672019L937.587590,482.217980L938.600699,481.409671L941.834524,475.955003L941.687641,472.509801L943.159639,472.987438L943.949848,472.114126L947.701894,465.331120L951.886035,461.026736L955.189638,458.661160L960.808239,455.767074L961.141306,455.597498L965.380866,448.102258L969.553195,443.780899L973.693951,437.179191L974.597239,435.002954L973.437797,432.529954L975.006335,433.456976L976.678268,432.979334L980.808914,428.293348L987.113453,419.322688L991.573178,410.637459L996.104720,395.502555L997.851178,386.373538L999.202723,382.880201L999.086708,379.994522L997.951400,376.396606L998.062585,374.794077L998.493724,373.120890L998.316993,371.984705L998.360423,370.198463L999.332257,366.190723L999.557308,363.110019L998.689734,355.470432L997.604889,354.848638L997.455020,352.107091L996.122661,348.543078L994.428142,337.217933L991.587978,331.186521L990.277080,323.425387L987.721384,313.281648L983.567207,304.141265L981.254549,301.685176L979.509389,300.625299L968.486675,298.454671L963.860981,299.593685L958.113975,299.319531L952.912040,299.703913L948.891812,298.347270L945.949107,295.914153L943.542096,295.049295L937.920027,294.345537L934.592710,288.576990L926.244123,285.075164L921.837621,279.640128L915.291278,274.202269L909.482311,266.435518L907.153251,264.363820L904.180829,259.762560L898.779742,257.916969L893.361939,253.519207L890.295724,250.291544L881.580338,244.709555L877.504790,242.632207L874.969882,240.625518L870.795508,238.587739L865.824355,234.989832L858.891990,233.590802L852.773525,233.082064L842.551640,235.224416L834.407607,235.702065L831.265111,237.151968L827.125798,236.581051L823.018658,235.484438L820.905393,233.466444L816.940932,231.663251L813.801208,233.384481L807.414215,232.977491L798.579583,229.187394L796.451600,227.121354L792.434852,225.383167L789.744575,223.514969L782.232025,221.228476L778.385411,220.940192L777.003611,222.028325L776.508510,224.586144L769.524850,225.052487L766.079825,227.288107L764.326302,226.943295L762.294165,228.641914L757.769255,233.486228L756.918168,231.906315L757.756531,230.303791L759.738395,227.378549L760.013315,226.264979L759.883323,224.337428L757.989119,223.693027L756.731331,223.695854L754.720290,225.544267L752.926849,231.425840L751.563258,237.389379L746.910416,242.988324L744.372956,244.924355L744.389636,243.115508L746.347704,232.123942L747.036368,229.645258L747.556162,226.652184L748.229142,225.227719L749.271386,223.984138L749.259759,221.790914L752.780638,220.634949L752.507910,217.859504L751.348466,214.920132L749.185072,215.564533L747.698684,216.726150L745.612869,220.858229L744.618611,219.329190L743.177242,217.740798L744.417476,217.034218L745.662410,216.641360L746.696301,214.459442L747.637021,213.351525L748.698575,211.582250L748.438783,208.501563L747.263559,205.477403L745.714857,202.699132L743.945759,204.044460L742.475996,204.233823L743.925760,202.343016L742.167532,202.091474L741.169640,200.553958L738.813383,198.157241L736.086412,195.975324L734.782904,194.613039L732.089688,195.788787L730.674130,199.332989L729.577300,201.274669L728.380602,201.873848L727.733819,197.535451L724.988956,191.424954L722.469915,190.684459L720.227956,191.181891L716.782393,188.372533L711.825094,186.538254L709.960193,184.096317L707.515099,184.540048L705.604594,184.003048L705.487002,182.018974L702.888226,182.247906L700.307891,181.985059L697.884714,181.024111L695.300479,180.263832L694.597018,178.695227L691.377715,176.383301L690.314232,174.738386L688.207175,174.744038L686.906929,173.686996L684.855598,173.884838L682.239874,173.746349L680.349850,171.866849L678.605897,170.852202L675.293455,170.309550L674.248365,170.917207L673.707786,171.880981L674.414074,173.065207L674.783980,174.339875L673.451147,173.836791L671.227455,171.561607L668.836390,172.974765L667.915886,173.149996L666.779486,172.734528L665.695824,171.759449L664.826777,171.375071L662.894080,172.239923L660.921130,174.447275L659.081952,172.579081L658.155501,172.827797L656.976279,173.517417L656.641650,175.187770L654.772432,176.134585L653.128127,178.079091L651.831286,179.972722L652.127740,182.267690L648.483185,185.325764L649.552912,187.747917L647.805106,190.486617L648.067621,192.513086L648.501556,193.728402L651.111017,195.068076L648.665113,196.175993L648.251605,198.883604L646.536172,197.538277L644.717128,195.260266L641.904814,195.229176L634.804950,205.129766L630.640766,206.540098L629.214402,207.639536L624.330403,220.021638L623.115498,224.659629L621.454011,227.330501L620.139960,228.331019L618.600350,229.068689L619.522350,226.954601L620.671856,225.103361L621.769424,218.167572L622.935488,215.598448L624.436394,209.233579L626.537490,202.292143L619.632218,206.212245L616.220502,207.924994L611.514755,206.311166L609.043330,205.189118L606.050664,205.932440L604.628357,207.051662L602.393874,207.826073L598.773960,210.505422L594.060935,205.711987L592.692003,204.762344L591.365317,203.159822L591.723188,201.220968L591.615548,199.748457L588.835744,195.294182L587.977028,192.004349L587.786253,190.127675L587.281028,187.663127L585.924033,185.874069L585.385118,184.449606L587.407987,182.239427L587.296188,181.103248L585.940109,179.308538L583.465539,180.718869L582.529930,182.044411L578.117158,185.065743L575.705919,187.583991L569.757357,191.362775L566.824932,192.527218L559.172972,198.095062L552.819817,199.641057L549.893392,197.309346L540.846151,197.083240L543.666896,195.992282L551.915506,191.605839L557.261406,192.662881L558.267479,191.764112L559.440885,190.384870L559.738732,186.348890L562.346001,184.523090L564.846231,181.648727L564.795387,176.931606L565.264963,174.235302L569.013266,168.065456L570.511151,166.917972L572.857081,163.537699L575.519717,157.348069L575.943097,154.639047L580.568799,153.077508L584.018152,148.402783L585.474521,147.513907L587.872903,147.178989L589.441356,145.731916L593.889408,140.002976L596.940731,133.728556L600.015415,130.437312L601.275417,127.985483L607.016036,122.794955L607.630433,121.728021L610.436788,119.717097L611.443381,118.514500L611.276580,115.445120L611.940686,111.078461L610.070525,104.134201L607.596393,102.083708L604.214928,100.484012L601.235460,100.146267L597.293535,99.222061L595.392563,96.395743L594.355587,94.331118L593.551648,91.277281L592.276576,90.500043L590.859946,90.411014L591.842715,89.096776L591.797336,88.202246L590.370049,83.386198L589.060700,80.462370L588.412999,77.705295L588.171494,75.424454L584.090304,63.104518L582.698093,57.191850L582.283862,45.909161L578.843454,33.698014L576.180733,29.902254L572.799310,27.326054L570.612928,27.409431L570.293770,29.640818L567.775919,34.633528L566.974334,35.258147L564.811613,36.619024L563.801404,38.434940L563.200659,40.181610L561.849935,41.368667L560.559694,42.862381L560.143006,44.073462L558.942846,45.031587L558.686536,46.627048L555.606722,52.258501L554.374864,54.793714L552.620874,57.485787L551.536061,58.486306L550.062036,60.088831L549.296543,61.941486L549.265314,63.856320L548.212952,66.152707L547.619131,68.131132L546.644331,69.280032L544.024926,75.545986L543.871609,77.702469L543.252071,78.982792L541.417679,81.968799L540.180585,83.764925L538.047632,85.110253L535.804831,86.572873L534.939593,88.168330L533.360740,88.978071L532.213228,89.030358L530.366076,88.452375L527.870002,88.173983L526.597238,88.360520L526.034564,87.567738L525.207157,85.746175L523.973854,84.457373L523.160478,84.906758L521.461199,86.202625L519.479556,86.964318L518.077720,86.709950L515.029649,85.812593L513.731599,85.360382L513.347517,84.594450L512.904776,84.020707L512.224964,84.276489L511.309883,85.233198L510.093575,86.236541L508.291716,87.559259L504.598556,89.934780L503.557030,90.786915L502.609409,90.323398L501.066650,89.852816L499.403475,89.825966L495.844205,88.284209L493.763331,87.186185L492.876961,85.808354L491.825587,85.209174L491.209246,84.833274L490.044026,84.810663L489.148386,83.876565L489.022715,82.772887L488.547640,81.508109L487.412501,81.129382L485.238730,81.568875L484.619278,81.255153L483.348590,79.895693L482.300811,78.420354L482.060012,76.993062L481.364207,77.128726L479.696635,78.420354L478.573444,78.684615L477.691206,78.349696L476.696547,78.444378L474.163055,79.829275L472.677280,80.144409L471.600187,81.537785L464.599384,82.170881L462.763557,82.535476L458.628266,80.123212L457.561756,79.338908L457.013130,79.227268L456.548253,79.357279L456.082374,79.891454L455.351951,82.922682L454.707593,83.743728L453.607510,84.412152L452.527409,85.621817L452.299134,86.793326L453.927633,87.437727L455.266271,89.712914L456.727688,91.537302L457.899165,93.145478L457.715721,94.965626L457.480241,97.546055L456.608861,98.426453L455.157433,98.856053L449.875250,97.608234L445.832401,96.493251L444.123057,96.248775L443.360206,95.964730L442.264234,96.395743L441.283828,96.975139L439.937572,96.528580L438.058889,96.770231L436.098073,97.410392L434.293402,97.726939L430.910940,96.709465L429.876774,96.569562L429.178250,96.128656L427.795364,94.121971L427.128166,93.885973L425.309302,94.822897L423.103521,95.470124L422.034252,95.347179L420.765418,96.022669L419.581253,96.925678L417.292502,100.835889L416.118712,102.217958L414.867325,102.853879L412.380113,102.834095L409.722659,102.972585L407.724078,103.919401L405.855436,104.402701L404.922436,104.464880L404.585236,106.610055L404.149421,107.604918L403.558295,108.174421L402.108746,108.345413L400.807710,108.269103L400.027949,107.375987L398.567245,106.929429L397.273762,106.610055L396.434125,106.099904L395.756311,106.227089L395.184114,107.120205L394.724448,107.886137L394.315971,109.289403L392.339497,109.737374L391.485491,110.535809L391.951373,113.167109L391.716227,114.194475L391.296060,114.992910L388.911886,115.152597L386.879070,115.097483L385.702407,116.068323L384.238784,117.197436L383.353320,117.407997L382.312890,117.338752L380.940890,116.028755L379.628129,114.416341L376.267011,113.285815L372.931851,112.348891L370.763597,109.785422L370.258323,108.523471L369.230554,107.969513L366.661854,104.928396L365.245900,102.972585L363.694255,102.451129L361.915239,101.632910L362.004354,100.216925L361.899782,98.853227L361.139041,98.299269L360.065286,97.931847L359.679235,97.165915L359.815601,95.378269L360.088115,90.769957L359.851370,86.356660L357.474306,84.824795L356.454178,83.786122L354.738676,77.261563L353.930172,74.320776L353.927378,72.137443L354.645454,65.624185L355.378694,62.806341L357.341795,57.155108L358.449762,55.241686L358.538076,53.812979L358.466609,51.973042L357.995997,48.345454L361.179683,46.057543L362.544607,45.095179L362.801715,43.563310L364.523415,41.625863L365.305610,39.780272L365.957259,38.330366L365.804544,37.564431L365.082321,37.119284L364.250082,35.737210L362.526675,31.764805L361.889164,30.960714L361.361217,29.844314L361.685209,28.082097L362.439392,26.175738L362.367188,25.377299L361.305481,24.348515L359.110728,22.632932L357.255926,22.505747L355.834420,21.886780L353.725486,21.803404L352.041842,21.612626L351.099738,20.973875L351.322358,19.921067L351.759859,19.109909L353.229000,17.113106L354.230706,14.974985L354.411244,12.886324L354.768350,10.141954L355.240309,7.759353L355.531268,5.067625L353.345802,3.298338L352.671948,1.844186L351.784623,0.553962L350.771274,0.553962L349.256491,0.000000L346.823682,1.697217L344.953520,1.383493L343.641665,2.022246L340.660983,1.895060L338.769565,1.065530L336.437815,1.618079L337.200103,1.921911L338.200230,2.709046L339.081444,5.093062L339.794947,7.622276L339.777467,8.930869L339.129486,10.575796L337.764812,12.469440L336.127742,14.002726L333.754879,15.302839L331.863934,16.529468L330.247094,19.774097L329.288766,20.915936L328.423333,21.376628L326.723412,21.800577L323.993928,21.703069L322.196025,21.447286L319.903212,23.875104L317.024787,24.765399L315.032991,28.077858L308.161434,30.704931L301.453557,32.751194L299.607477,33.559524L293.070509,31.870792L291.476641,32.397902L289.616106,33.966515L287.906255,35.183249L286.485232,35.259560L285.275681,35.888418L284.512336,38.133936L283.706829,45.872419L281.296234,48.173048L278.443852,48.158916L276.544760,45.480972L274.267830,43.455910L270.329705,38.656806L269.221897,38.030775L268.171081,38.060451L264.382505,39.483507L262.613459,38.865955L261.192994,38.119804L258.785304,38.358629L254.501190,38.413742L251.771290,38.458963L250.476696,37.147547L249.306438,34.468188L248.497933,33.508650L247.541590,32.735649L245.937440,32.345615L239.044648,32.355508L237.746380,32.358334L236.806370,31.842529L235.539255,29.544723L234.117383,28.465065L232.422647,28.418431L231.645051,29.684626L234.486656,33.822372L235.290010,36.065064L237.793915,39.306862L245.109528,46.169183L246.445080,48.348280L246.231368,51.132210L246.095833,55.392895L246.264786,59.424645L248.072388,65.207302L250.662610,71.093117L251.329257,74.845059L250.777600,77.617679L250.238108,79.093018L250.284326,79.750138L250.828334,80.343665L253.388359,81.195800L258.787702,81.728562L262.057025,81.731388L267.039258,82.368723L267.374096,84.437589L266.833061,87.850369L265.818047,89.787811L265.007247,90.353075L262.282583,90.802460L259.393144,92.896762L255.214429,94.964213L252.841810,95.245432L251.849048,95.649595L251.004365,96.269972L250.304785,97.055689L249.446542,100.931983L248.171214,105.308536L245.836164,107.907334L243.277692,110.055335L240.695173,110.298398L238.628820,110.127406L237.593631,110.757675L236.089948,112.526949L233.944942,114.727236L232.294869,115.900157L230.086611,115.789931L227.721164,116.872410L224.728220,118.645923L222.742216,120.102889L221.038071,122.588634L218.606751,125.202976L216.117411,127.033015L214.916886,129.295481L213.208724,132.167017L211.094865,132.261699L210.934865,130.539059L211.967050,127.763618L210.883862,125.371142L208.882392,124.089408L207.945341,123.710681L207.006715,123.867542L204.615007,125.047529L201.671467,127.192702L199.860037,128.737283L198.226587,129.443862L194.869802,130.082609L192.044228,130.410462L190.884753,129.969557L188.795133,128.392473L183.978566,123.459139L177.467118,116.776315L172.618220,118.069355L172.184479,117.865860L171.900317,117.153628L172.093469,111.638072L172.117781,105.415936L171.405903,102.868011L169.247520,98.781156L166.391460,93.361691L165.613864,91.805803L164.388428,90.912686L162.925325,90.784088L161.848619,91.167055L160.391642,92.177463L159.015903,93.275488L156.344422,96.544125L153.652665,100.365307L152.096069,101.218855L150.540044,101.569318L149.173720,101.452026L148.085509,100.424659L146.984862,98.338837L145.664327,95.570459L144.054058,94.666037L143.413705,95.516759L142.850877,97.144718L142.406104,98.761371L143.468630,100.814691L144.386039,102.398842L142.776723,102.345142L137.564707,102.347968L131.557665,102.350795L125.558110,102.353621L120.162626,102.356447L115.166545,102.357861L113.261244,102.226437L111.335587,101.296578L109.482058,100.852847L108.501334,100.924918L106.730413,101.830752L104.439641,101.963589L102.885443,102.822790L101.643733,102.719629L101.560030,107.490452L101.448622,114.294810L101.344086,121.508981L102.729426,120.962089L103.926012,121.014376L104.799072,121.521700L107.259164,121.111884L108.620335,121.328097L109.908170,121.510394L111.105000,121.535831L111.836547,122.108160L112.827273,122.005000L113.891157,121.378971L115.154732,121.770415L116.504237,122.786476L117.367005,124.298555L118.135305,126.175228L118.910767,127.165852L118.852201,128.963389L118.819400,130.370894L118.536380,131.542401L118.877731,132.299854L119.126595,133.106767L119.054128,133.577348L118.592397,133.785082L117.601672,133.941943L116.542437,134.071953L115.806221,134.019667L115.234676,133.290477L114.682119,133.211340L113.876401,133.315914L113.026276,132.872183L112.295005,131.960696L110.988519,131.047796L109.581836,131.439241L108.612880,131.908409L107.618417,132.482151L106.717521,133.081330L105.820879,132.924469L104.666258,133.366788L103.695177,134.045103L102.404084,134.591995L100.998426,134.852016L99.385553,135.114864L97.842146,135.218024L96.091000,135.427172L95.971963,139.225739L95.751640,146.692863L95.613555,151.636087L95.627203,156.192107L96.306228,157.851153L99.414889,161.361436L101.844688,163.209846L103.909273,165.270230L105.957451,166.135082L106.817070,166.912319L107.387055,168.186987L107.675709,169.526660L107.907666,170.676971L107.688466,171.889460L107.188419,173.036944L107.420642,174.249433L108.159613,175.207554L108.393796,176.420043L108.908760,177.567527L109.199409,178.717838L109.826157,179.545948L110.619589,180.122517L111.642121,181.077811L111.761888,181.970927L111.658311,182.994053L111.655116,183.765638L112.634758,185.520780L112.932341,186.755880L112.496225,188.225564L112.115034,193.318586L111.067715,199.115362L110.415025,203.541375L109.359886,210.756965L108.147081,219.151132L106.690238,229.379584L105.271767,239.480857L103.917474,249.259936L102.707605,258.095028L101.389567,267.840203L100.597265,273.744404L100.172263,274.767535L100.067829,276.655523L99.273009,277.410154L98.016992,277.579733L96.052232,276.234400L94.652280,276.567907L93.245597,276.655523L91.217419,275.086910L90.492082,273.543735L88.900458,272.283192L85.695460,272.789105L83.042572,272.820194L80.812659,272.537561L78.833713,272.955858L77.179716,274.583824L75.965224,276.485944L74.527037,278.082820L70.201288,279.145521L67.884037,279.173784L65.825031,280.219526L62.733651,280.603907L60.639235,281.533770L56.899474,282.042510L52.410031,282.537118L49.937446,283.953110L48.952960,284.569250L46.454498,286.527899L42.096555,289.614254L39.676518,290.688261L36.811854,294.023335L33.350466,297.157382L31.094911,298.824922L27.718411,299.593685L26.337448,300.433108L25.848295,301.444937L26.183306,302.617868L25.706172,305.636398L24.848610,311.212767L24.650643,313.945839L24.447274,315.254434L22.346855,319.731359L20.069059,323.894560L18.978308,326.653069L18.380954,328.671077L19.181251,330.349924L20.277307,333.365630L21.189921,335.787804L21.479374,337.424256L21.266073,339.303772L20.306249,341.022188L18.743328,342.147071L16.582463,342.455142L12.246364,345.487805L7.451122,349.953421L5.909645,352.036432L5.522303,353.997911L4.919121,357.075792L5.278440,358.672672L6.209439,359.763638L7.202356,362.369519L7.331108,363.714854L6.620784,364.469486L5.220817,364.639066L3.972338,364.890610L3.037292,365.563277L2.069294,365.393697L1.194084,365.730031L1.238720,366.823822L1.586675,368.084366L1.493836,369.426874L0.936140,370.269121L0.442692,370.856998L0.995456,371.696419L1.915826,372.453876L3.300468,373.714419L5.252698,376.150715L6.676977,376.571838L7.897450,377.411258L8.102799,378.756590L7.715907,380.099096L6.704450,380.686972L6.681823,381.865550L8.149889,383.292845L9.155711,384.301843L10.183661,385.813926L11.163166,387.913885L11.222661,389.259214L12.259128,390.938049L12.915320,392.368167L12.975784,393.713495L14.590327,395.055997L15.967242,396.064992L16.970924,396.989198L17.959361,397.577072L18.226903,398.586067L18.168979,400.115103L19.668699,402.633349L22.286796,404.524152L24.467746,407.265673L25.887710,409.255394L28.497608,412.449121L28.768491,416.123315L25.932875,420.337329L23.098920,424.554163L28.074490,424.438285L33.158363,424.523074L38.534651,425.729901L42.175717,426.891507L44.383524,427.411545L46.004025,428.756859L46.850258,430.856792L47.528374,432.572349L47.805530,435.056653L50.127442,437.074619L50.068418,438.988011L50.147853,441.695113L51.132979,441.737507L57.635978,441.748812L64.747984,441.762944L71.556901,441.257512L74.104951,440.604642L77.056479,437.317679L78.878080,436.342612L80.606885,434.807940L82.660495,432.009917L84.334740,430.743741L85.727998,429.192108L87.841428,427.637648L88.689893,426.487347L89.407689,426.066230L91.071326,425.308783L90.405698,426.823676L89.920121,428.375310L89.854062,430.605253L90.788500,433.038686L90.204040,434.858813L89.189201,436.486752L89.391546,440.771392L89.685368,446.841744L89.942049,452.044892L90.271970,458.548110L90.653468,465.921807L90.914085,470.825355L92.022946,469.858776L93.582207,468.991117L95.806163,471.246466L97.352325,472.224350L98.644539,472.458928L99.952629,472.388272L101.712574,471.907809L105.513736,470.019873L108.121399,468.499349L111.192587,468.601094L115.441562,469.200260L117.863699,469.132430L120.808949,469.027858L126.771916,469.245480L132.602955,470.364676L136.528563,470.850791L138.216910,471.820195L138.663680,473.354850L139.783153,474.072718L141.016074,473.792920L142.426539,473.688348L145.498305,472.114126L147.991003,471.071239L150.129330,469.810730L151.194060,468.592615L153.704323,464.308016L155.787600,461.936789L157.777079,461.105871L161.744212,460.769546L163.034464,461.442195L164.655503,461.357407L165.927976,458.921176L167.928726,456.230580L171.963533,452.870160L174.058726,451.945973L175.327672,450.770249L177.608482,450.600673L179.554719,449.371249L188.840470,440.878791L192.669612,438.691251L195.104690,438.292746L197.107761,437.772710L200.501747,436.554583L209.070787,435.378849L214.594257,434.887076L216.423132,436.062810L218.403187,435.726482L220.011689,433.824393L221.388642,433.208263L222.425346,433.264789L224.013272,435.517337L224.852608,437.902719L224.460553,439.722843L224.677875,442.367765L225.506713,445.835594L225.288351,448.910569L223.392860,452.940816L222.420774,454.582872L222.246635,456.272974L222.544129,458.553762L223.694305,462.273114L225.699488,467.425373L226.163036,471.246466L225.080639,473.722263L224.636699,475.861736L224.828943,477.656407L225.331399,478.919742L226.145827,479.646089L226.654663,481.084652L226.862407,483.238257L227.988894,485.318381L230.035410,487.330675L230.927020,489.249704L230.666496,491.078293L230.833654,492.220102L231.427818,492.672304L231.932557,492.302064L232.603574,491.801816L233.245239,491.979870L234.742971,494.531983L234.946692,495.052015L235.806782,497.154755L236.120807,498.751595L238.158677,499.641868L240.345612,500.345609L241.574569,501.187837L244.095857,503.708869L246.184858,505.370717L248.760931,506.732981L249.720846,508.909213L251.449403,512.196176L255.727289,513.456699L260.675787,514.086960L263.842880,514.799184L267.557752,513.055366L270.099166,513.304079L272.783763,514.488293L273.942974,515.290958L275.991752,516.983904L279.133280,519.151670L281.642686,519.957164L283.322696,518.750336L284.918220,518.329219L286.200769,518.835125L287.007350,521.186603L287.769659,522.783461L289.297280,523.984639L292.603702,527.070964L294.450321,528.331498L296.434764,528.246709L300.659479,530.270349L305.164855,532.243118L307.441020,532.568145L309.651415,532.279861L311.171596,533.034488L311.911145,535.414253L316.019592,540.168143L317.929450,542.025049L320.167148,543.621934L325.598801,543.599323L327.255098,544.074149L329.649665,543.650197L336.873365,542.839036L338.179575,542.584665L342.432579,544.659204L347.495346,547.638181L350.867546,549.981234L353.200138,551.270057L354.513830,553.370051L355.614933,555.557667L356.210443,557.909220L355.780357,560.246646L354.958357,561.185010L354.764245,562.699961L355.284561,564.966740L357.040729,566.984801L357.806754,569.472053L358.987828,573.864334L360.076257,575.254946L361.691156,588.864320L358.443548,588.980207L353.869694,589.141318L355.299106,590.438686L359.468012,595.506640L363.310381,600.176078L364.432166,607.674913L365.143241,612.400918L366.152823,619.063122L366.759087,623.034439L375.489025,623.393412L385.547680,623.806089L397.636705,624.303563L408.263616,624.738853L409.304883,624.693628L411.104691,624.150929L412.270574,623.447116L413.024780,623.469729L413.275424,625.078040L413.174637,627.113160L413.365202,629.445065L410.689779,634.057987L410.614844,635.519308L411.558437,641.599170L413.021932,646.514471L413.919483,650.963367L415.248286,652.348341L419.024141,654.691483L424.788459,659.027258L426.999717,659.589719L428.781865,659.004646L430.024084,660.768341L430.475203,663.625850L434.113261,671.601902L436.423599,676.663867L437.435765,678.424656L438.931473,679.337550L438.721152,679.993249L437.560079,680.258919L437.112263,681.208549L435.942173,686.872352L434.406168,694.344786L433.384903,699.584409L434.706391,699.669191L434.885320,701.121796L435.369716,703.340251L433.766892,703.614378L433.357568,704.408494L431.858026,708.706848L429.894923,714.341777L427.870636,720.160233L426.672310,723.610535L429.442461,726.162192L434.055705,730.412051L433.482540,731.592904L431.711019,732.180637L430.215630,732.598831L429.185712,734.195304L428.631231,735.373579L427.007798,735.766335L427.740484,737.868560L428.211415,739.493250L429.141403,740.643242L430.102981,742.174673L431.006528,743.033626L431.711003,744.468978L431.686011,746.096455L432.199732,748.201428L432.772202,750.021020L433.228667,750.498520L434.457879,750.976020L435.195936,752.628901L434.839725,753.465229L435.087719,754.420223L435.597273,755.355439L435.282902,756.262399L435.550101,756.957452L436.412009,757.579044L437.358166,759.876107L437.781793,763.800606L437.136953,765.902716L436.624690,767.626222L436.551949,768.680105L437.182823,770.208663L436.514818,772.028244L435.714715,774.229268L436.098429,775.760667L436.391912,777.196006L436.609774,778.727418L436.986823,780.162769L436.791755,781.691370L436.580361,783.033495L436.550950,784.562112L437.119852,786.285704L436.522034,787.913239L436.211244,789.060432L436.148963,790.210458L437.058649,792.027344L439.031256,792.793097L440.537716,792.985242L441.858329,792.027344L442.907331,791.739127L444.971393,792.600952L446.929681,794.132467L449.262867,794.324614L451.357679,794.610009L452.971668,795.090378L455.237033,794.516761L457.687373,795.090378L460.577480,795.952220L462.962951,796.717991L465.261221,796.525841L466.990480,796.429767L468.733254,795.567922L470.478547,795.663997L471.666331,794.132467L472.292699,792.793097L472.870072,791.835199L474.704850,791.072276L476.071211,791.549809L477.366858,794.036394L479.396753,795.471848L480.233850,796.525841L481.681805,797.003390L484.750679,797.099465L486.644850,797.003390L488.864178,797.769167L490.269737,797.769167L491.628551,799.108579L492.929896,800.736236L493.359082,803.703367L494.637866,806.000821L496.120801,806.862730L496.992336,808.298317L496.924770,810.307604L496.444387,812.316927L496.726432,814.518464L497.651706,816.527866L497.834847,818.537309L498.515047,820.546794L499.664643,822.270859L500.250996,825.046391L500.271524,827.056022L501.039115,828.206423L501.438371,829.834537L501.151902,831.174364L501.156969,832.991929L501.393414,834.620141L502.014807,835.960051L503.664229,837.681617L504.368226,840.746050L504.570412,842.852219L505.470665,845.342955L506.818632,846.490817L508.835088,846.875327L511.179831,847.257012L513.927484,846.683072L516.336320,846.013010L517.673043,845.342955L520.221019,843.522249L522.512192,842.470559L523.685755,841.800540L524.794894,841.322766L527.294769,842.470559L529.658747,843.906741L531.580650,845.916883L535.006235,848.119346L534.431973,848.656544L533.324656,850.460431L533.553127,852.578227L534.751360,855.612263L534.587714,862.042798L533.085805,871.871061L532.652644,877.599316L533.266068,879.223121L532.648335,882.088941L529.887055,888.245374L530.203139,892.398975L532.142799,892.410293L533.145360,893.332711L534.627956,893.816559L536.019098,892.763980L537.245023,892.277307L539.272305,892.234865L540.236880,891.052147L541.497659,890.862574L542.444869,891.504860L543.378197,892.277307L545.203259,892.452735L546.849521,894.473010L548.496052,895.087022L549.416264,897.404446L551.101435,903.510808L553.393641,907.107323L555.727750,911.204680L556.001212,913.032629L555.158795,914.877541L555.280694,917.523200L555.371363,923.994202L555.432123,926.373672L556.270606,927.997666L556.781169,930.261006L556.088441,933.027827L554.610555,937.163649L552.828454,938.278168L552.345770,938.323427L550.043420,940.716437L548.329994,941.613075L547.201464,941.007776L546.121764,942.045830L545.092308,944.721456L543.587990,945.923447L540.674977,946.588061L539.819435,946.901981L538.061960,946.808654L536.649516,947.476080L535.581978,948.907044L534.317468,949.438692L532.853888,949.079548L531.634359,949.602709L530.659956,951.010963L530.185478,952.537917L530.211387,954.177897L529.225222,955.294730L527.225744,955.891300L526.614405,956.716865L526.889368,957.864700L526.075248,958.758058L522.682912,959.685310L520.362120,961.339021L519.110138,963.707748L517.657487,965.200103L515.169919,966.115823L511.959621,968.520836L511.653563,970.007244L513.182818,971.377707L513.829296,972.595513L513.596387,973.657859L512.512867,973.801950L510.580372,973.024978L509.255384,972.863929L508.537254,973.321643L508.286655,974.177712L508.502593,975.440563L507.966119,976.296547L506.678990,976.751363L505.966583,977.793729L505.831479,979.420732L504.424142,981.471244L501.747229,983.942306L499.831821,987.274195L498.682180,991.460775L497.041582,994.212695L494.900889,995.530634L493.570787,997.407174L493.048511,999.842116L491.121994,1003.613692L487.799398,1008.723691L484.624771,1012.228009L481.590916,1014.130626L480.052765,1016.278149L480.008755,1018.670452L478.277315,1021.394486L474.862763,1024.453341L473.975423,1025.833275L475.697521,1027.950816L479.916873,1028.511131L484.082757,1028.589968L484.673945,1028.054997L485.759476,1024.582891L487.758696,1023.588705L490.061019,1023.332402L492.653387,1023.509843L495.733192,1025.807931L504.613791,1033.319569L511.094092,1038.535046L513.204299,1040.994696L514.990044,1042.835109L516.384807,1044.551639L516.619402,1049.008798L517.004606,1050.961575L517.360271,1051.524334L518.656455,1051.572168L520.519908,1051.248582L521.980163,1050.300333L523.009512,1048.870921L524.056388,1047.703185L524.953563,1047.078513L525.164511,1046.133055L525.580790,1045.153820L526.137811,1044.942776L527.371011,1045.668764L530.411227,1048.218116L532.827371,1050.573271L533.544471,1051.921079L534.556256,1053.325169L535.590901,1054.549186L536.376101,1055.742263L538.607597,1057.298356L540.779373,1058.288874L541.965339,1057.281473L545.904764,1060.514796L553.870419,1063.222090L555.518541,1064.860085L557.191937,1067.187782L560.390171,1070.712140L564.547629,1073.887979L567.693697,1075.225496L570.628901,1075.991451L572.315836,1076.689854L573.587715,1077.906506L575.516235,1079.216211L576.677031,1079.703509L577.235961,1080.875350L578.760313,1083.439127L580.446577,1086.682675L582.203218,1089.693189L585.411527,1092.586160L588.863324,1094.836864L592.272084,1096.114771L594.331050,1097.694785L595.371123,1099.331543L593.623254,1101.770367L591.798261,1104.834111L590.133260,1107.243654L588.287187,1108.927720L587.778360,1110.089291L587.609069,1111.889988L589.254111,1121.433668L589.686608,1124.988656L590.001769,1125.935160L590.413239,1126.567201L591.915028,1127.513990L593.651049,1128.310674L594.328250,1128.452446Z "/></g></svg>