<?xml version="1.0" encoding="utf-8"?><!DOCTYPE svg  PUBLIC '-//W3C//DTD SVG 1.1//EN'  'http://www.w3.org/Graphics/SVG/1.1/DTD/svg11.dtd'><svg enable_background="new 0 0 1000 889" height="889px" pretty_print="False" style="stroke-linejoin: round; stroke:#000; fill: none;" version="1.1" viewBox="0 0 1000 889" width="1000px" xmlns="http://www.w3.org/2000/svg" xmlns:xlink="http://www.w3.org/1999/xlink"><defs><style type="text/css"><![CDATA[path { fill-rule: evenodd; }]]></style></defs><metadata><views><view h="889.206821116" padding="0" w="1000"><proj flip="auto" id="robinson" lon0="114.4780195"/><bbox h="16.74" w="18.85" x="1687.54" y="-84.22"/></view></views></metadata><g class="" fill="#000" id="country"><path d="M742.510415,108.987572L747.488518,178.803914L751.383250,294.137526L775.374582,390.726140L826.753902,561.556881L877.664516,584.857892L938.002220,599.957988L972.244314,595.184969L994.167687,583.903288L999.437068,570.148315L959.143175,502.978912L941.909774,345.122085L906.598243,241.504095L855.014015,138.319984L831.312888,108.944181L742.510415,108.987572Z M450.092278,887.206821L485.487895,875.057328L538.821029,822.727722L576.137918,758.508958L599.164874,671.683435L577.462614,659.013242L611.805535,593.492717L617.441874,559.083589L598.772100,527.494878L575.287949,496.253293L563.131301,417.064541L543.254335,316.223604L530.677132,270.402583L558.525036,237.729067L619.542973,196.030193L680.070214,147.605687L742.510415,108.987572L755.721105,53.229949L753.834619,5.337117L712.617661,0.000000L594.582346,67.505637L519.158322,125.606380L448.280301,199.241137L372.073334,264.631564L280.434732,321.647493L184.642218,368.943805L90.063362,383.349652L0.562932,381.830964L26.193911,406.216765L85.572844,440.235388L130.913603,483.843440L162.435532,540.382031L185.655960,593.275762L189.280100,638.185527L217.034333,674.981156L290.746892,681.142688L316.698759,727.614521L371.286258,807.584244L420.488422,864.903823L450.092278,887.206821Z "/></g></svg>