<?xml version="1.0" encoding="utf-8"?><!DOCTYPE svg  PUBLIC '-//W3C//DTD SVG 1.1//EN'  'http://www.w3.org/Graphics/SVG/1.1/DTD/svg11.dtd'><svg enable_background="new 0 0 1000 555" height="555px" pretty_print="False" style="stroke-linejoin: round; stroke:#000; fill: none;" version="1.1" viewBox="0 0 1000 555" width="1000px" xmlns="http://www.w3.org/2000/svg" xmlns:xlink="http://www.w3.org/1999/xlink"><defs><style type="text/css"><![CDATA[path { fill-rule: evenodd; }]]></style></defs><metadata><views><view h="555.465751542" padding="0" w="1000"><proj flip="auto" id="robinson" lon0="90.3271613928"/><bbox h="27.01" w="48.7" x="1272.26" y="-474.78"/></view></views></metadata><g class="" fill="#000" id="country"><path d="M334.390139,553.465752L385.637475,545.772029L436.460210,535.222664L454.610865,503.256209L464.842737,500.971740L492.816856,488.524868L525.439452,502.130771L562.130141,520.776291L581.021988,526.403628L616.704309,529.343296L650.445837,527.260330L730.496446,518.424580L776.313483,523.060817L812.252378,496.520406L820.823786,496.587596L843.078811,517.080748L888.740375,518.911719L910.912027,509.017804L935.367086,501.374881L951.504690,498.939241L964.718407,498.670481L981.178497,500.686182L994.904260,493.849618L999.098231,480.092695L993.330622,459.331844L977.758948,436.757684L965.577488,423.522622L962.258224,416.434930L961.915108,400.110059L965.567980,377.084753L975.466217,350.836139L958.846473,325.361382L936.789081,295.958851L924.503653,293.171505L896.649722,299.938405L864.596237,298.595092L835.962313,281.031651L812.715095,259.002832L804.276935,240.517687L804.876546,217.970698L808.734192,197.238073L808.843614,189.448956L805.081640,175.381979L799.674633,133.318804L786.900773,123.533929L751.756800,113.195520L711.904674,99.501012L690.927604,84.934484L679.947821,80.000820L666.655915,82.450861L647.707833,97.738895L630.441306,115.712959L614.074353,117.223432L595.161388,108.798443L576.411610,97.822805L517.081221,82.283049L491.468357,79.933696L447.272321,82.585110L410.051132,79.363141L403.275781,74.630938L401.607624,65.988989L403.336005,49.142121L402.898954,32.531142L396.522147,23.101914L356.651031,11.491992L320.753947,3.137181L283.910359,0.000000L260.814732,5.854983L239.926460,18.857189L225.338494,42.262708L199.107836,52.531551L168.920370,70.016273L155.921877,86.327336L138.512027,121.318528L111.425759,164.286592L87.252989,206.185693L78.640589,246.998302L61.352737,272.686754L42.254027,291.206941L36.068907,342.086909L34.488174,348.485082L4.326309,375.774809L0.901769,390.402698L11.621249,404.627903L28.114345,416.737247L36.734579,428.242198L50.391410,464.051690L70.453330,474.112968L110.783648,497.225899L145.626770,514.040336L197.526045,502.869865L214.318982,510.462408L242.471401,518.424580L263.691773,520.893877L276.917343,526.840378L284.820951,532.602141L285.344931,539.858993L287.916838,547.317487L317.991791,549.215718L334.390139,553.465752Z "/></g></svg>