<?xml version="1.0" encoding="utf-8"?><!DOCTYPE svg  PUBLIC '-//W3C//DTD SVG 1.1//EN'  'http://www.w3.org/Graphics/SVG/1.1/DTD/svg11.dtd'><svg enable_background="new 0 0 1000 1107" height="1107px" pretty_print="False" style="stroke-linejoin: round; stroke:#000; fill: none;" version="1.1" viewBox="0 0 1000 1107" width="1000px" xmlns="http://www.w3.org/2000/svg" xmlns:xlink="http://www.w3.org/1999/xlink"><defs><style type="text/css"><![CDATA[path { fill-rule: evenodd; }]]></style></defs><metadata><views><view h="1107.07304117" padding="0" w="1000"><proj flip="auto" id="robinson" lon0="24.4832790959"/><bbox h="152.06" w="137.48" x="288.11" y="298.28"/></view></views></metadata><g class="" fill="#000" id="country"><path d="M163.899054,1105.073041L169.026943,1103.452964L173.746096,1099.295515L179.540728,1087.489947L184.409849,1083.618197L192.991136,1081.616783L203.198075,1078.435941L211.865657,1071.645289L226.188319,1048.306106L253.614076,1027.587242L261.966072,1022.630856L267.348793,1017.054907L272.148712,1009.548804L282.638827,983.456236L290.652362,961.712884L293.509127,951.466966L300.528908,934.728501L308.591770,924.042491L316.254351,918.407760L320.029272,916.966335L329.705657,914.083505L342.103583,911.391303L354.866804,914.417054L368.410835,920.885599L383.521442,931.809769L398.868284,945.307608L405.897834,952.169877L413.677386,955.243635L427.741381,956.315881L437.006487,956.077604L450.743021,969.492759L457.981947,970.338662L474.056847,974.401394L493.951185,978.583290L506.634733,978.106720L520.559358,970.850970L530.357003,970.541202L542.968413,971.124995L556.956694,969.135335L567.306611,966.025758L575.420766,959.723254L582.636353,952.825134L591.564896,932.286295L596.942949,915.751254L604.932084,896.739540L614.839601,870.975729L618.790264,853.015946L622.200796,848.073700L635.012697,842.583770L645.573352,838.808779L673.829473,831.747218L679.734618,827.984319L685.365952,819.518023L698.244117,805.158176L713.856283,793.168484L721.940595,786.298786L738.912706,728.110013L740.968689,720.932488L752.031731,705.494837L758.723658,698.972450L762.843346,698.853429L768.879234,694.782957L776.831554,686.761178L786.079876,681.810146L796.623256,679.953528L803.643053,674.621756L807.146714,665.850690L812.721649,661.590195L820.379376,661.828210L824.870774,659.043442L826.217056,653.212157L831.076787,648.225884L839.461732,644.072689L843.979895,639.157933L844.630276,633.481642L855.029226,619.677987L875.200234,597.735817L893.812606,585.515749L910.885117,583.028936L927.159989,578.459893L942.658549,571.808672L954.293078,561.362013L962.070526,547.143901L974.692934,539.208071L999.547950,536.852325L994.525818,532.438297L986.742943,522.908370L973.085001,521.230830L969.461635,519.006013L966.556161,515.460594L964.754002,510.939613L964.188537,505.907075L967.156625,490.238566L966.000370,488.477807L962.409822,486.598081L954.969232,484.718359L937.198245,477.603994L914.758206,470.739504L878.143117,463.196933L863.884959,461.210174L860.657358,458.914102L856.744227,453.132299L850.423111,435.144578L844.249783,423.259905L829.119510,404.927357L826.821860,399.228929L828.220635,384.679493L829.883599,372.925718L832.008726,362.944498L831.621640,353.605661L831.873703,342.006412L832.699987,334.225949L830.692951,330.859162L825.013117,328.491700L808.612210,327.420986L788.712550,327.896859L788.540852,316.095168L787.390494,297.845137L784.088279,287.339915L779.735151,281.879055L770.827527,276.180210L752.627269,268.376602L727.880930,256.514627L707.036133,238.953338L683.173695,217.108275L675.601110,213.324595L667.274786,192.811527L654.719932,157.697888L656.064133,145.989091L654.181360,140.265534L641.332047,123.011378L638.678014,114.051008L636.636818,104.995368L616.066922,79.720123L609.153135,68.688815L604.100892,54.515768L598.962197,43.186744L594.446224,38.617028L588.592589,30.905600L584.651207,22.111191L582.948930,15.554029L584.859396,6.759535L587.168317,0.725937L582.655071,0.000000L549.937786,4.117607L537.348314,9.389557L508.788575,32.309844L502.986999,29.358549L496.501857,24.598383L490.903111,23.229833L478.508552,28.739728L466.119651,35.332535L452.364539,44.662378L440.989676,53.813657L437.207111,58.728427L419.197953,77.590029L413.441092,80.648320L408.366162,81.933513L406.366343,81.076718L404.478123,72.972830L394.473622,54.039760L378.213525,29.215744L373.300361,26.799962L369.913149,25.847928L357.203533,27.049871L320.147139,34.071098L288.912420,39.985564L241.010110,50.088891L189.669629,58.252421L158.005241,63.274277L130.562837,64.737989L129.840209,89.311451L128.397397,139.028004L126.932249,188.730274L125.458135,238.429825L123.988219,288.137032L122.502648,337.830664L121.016689,387.522761L119.504453,437.214586L117.970607,486.919300L117.287759,508.583953L116.240471,513.247690L100.621409,513.247690L65.298458,513.247690L35.572852,513.247690L11.547484,513.247690L10.655299,542.777398L9.580131,577.710288L8.488368,612.633532L7.377896,647.559466L6.257240,682.488529L5.114383,717.421158L3.937335,752.357792L2.734619,787.298869L1.504059,822.256734L0.564461,848.621509L0.452050,851.646397L5.359278,855.338246L37.492254,882.517481L45.883620,896.811010L49.974625,905.864035L62.900761,938.790939L72.297410,968.313262L79.977622,990.569107L80.197355,1000.744023L80.984915,1010.692592L81.988378,1015.577516L80.958670,1020.986668L74.374402,1033.091666L67.790671,1042.360953L59.814978,1055.013697L58.364883,1071.728684L59.728953,1091.409303L63.840574,1101.201517L69.407844,1104.417864L83.296957,1099.533766L91.884998,1101.034742L103.923243,1104.775234L144.072631,1102.464235L148.853314,1103.667386L163.899054,1105.073041Z "/></g></svg>