<?xml version="1.0" encoding="utf-8"?><!DOCTYPE svg  PUBLIC '-//W3C//DTD SVG 1.1//EN'  'http://www.w3.org/Graphics/SVG/1.1/DTD/svg11.dtd'><svg enable_background="new 0 0 1000 763" height="763px" pretty_print="False" style="stroke-linejoin: round; stroke:#000; fill: none;" version="1.1" viewBox="0 0 1000 763" width="1000px" xmlns="http://www.w3.org/2000/svg" xmlns:xlink="http://www.w3.org/1999/xlink"><defs><style type="text/css"><![CDATA[path { fill-rule: evenodd; }]]></style></defs><metadata><views><view h="763.20952702" padding="0" w="1000"><proj flip="auto" id="robinson" lon0="20.6362179364"/><bbox h="146.32" w="191.97" x="213.35" y="-184.39"/></view></views></metadata><g class="" fill="#000" id="country"><path d="M137.411734,761.209527L142.629071,749.283101L147.806361,737.420565L154.032635,723.615721L159.161293,712.213199L158.441929,706.560921L158.911606,698.127226L159.931773,688.726636L159.647006,683.129728L161.131047,679.317526L164.657598,665.299694L166.717804,657.138597L169.802593,653.449917L174.607778,650.847395L181.615422,650.753687L199.945068,648.973238L217.030060,645.331411L222.697282,643.695784L233.406247,637.813487L237.532764,637.579217L241.095638,639.819687L261.845414,646.575170L267.538908,649.220286L269.596790,648.824158L272.743506,649.403443L277.579023,649.484372L282.311130,648.658039L285.323939,649.463075L289.171703,653.935494L291.710288,653.445657L295.013614,650.195700L301.233725,646.869072L313.241042,643.188910L315.206695,644.837316L319.417357,653.028231L323.788797,655.801131L322.623363,638.328880L325.310785,614.288550L324.151622,600.130134L320.026757,587.833095L322.022692,580.097927L330.140134,576.924633L340.195454,564.640364L358.170239,532.541086L377.656015,516.897160L391.275677,511.947661L405.519618,512.480094L414.816046,515.278563L419.164849,520.338808L429.989974,527.889755L447.314560,537.929303L460.286597,550.443593L467.547022,563.060105L473.113322,569.939127L480.010429,572.298865L491.201802,571.280855L503.756883,574.262474L516.887432,581.324649L524.929845,583.939954L527.883908,582.116908L534.191740,583.139177L548.665761,588.944812L560.140300,585.754481L577.187153,588.152554L616.840131,598.528580L618.945010,596.769427L619.873709,596.364779L623.212932,592.186256L631.613558,571.434195L638.772954,558.681384L642.118230,553.889494L650.427641,547.155291L660.286644,545.413173L669.762073,546.018016L677.711917,548.978339L684.982561,552.419981L693.009837,552.454057L701.169960,549.127420L713.286016,543.061951L726.067967,539.087876L737.049217,534.734708L755.135221,527.093236L762.185406,523.579180L771.196168,522.200195L796.541184,529.167593L812.874855,524.554597L819.569878,525.909105L833.681659,520.926615L836.245714,517.599972L845.070116,500.745262L854.625269,495.842614L869.176912,498.321625L877.366291,500.936938L904.655634,508.139697L940.065344,515.636358L950.463508,516.794933L954.666105,517.625529L958.349854,516.466954L969.818918,506.985382L973.747981,505.643650L977.063586,505.809769L999.344012,513.544960L993.809082,506.815003L987.878469,497.801970L985.856224,484.618914L985.463460,474.000057L984.193366,469.088888L981.660888,464.173459L978.739360,460.003437L974.023247,455.300981L963.083607,448.490087L951.769866,440.588769L946.318883,435.988540L936.090432,434.306049L929.927277,429.795269L924.664062,419.870702L922.489298,411.918270L917.242969,405.746297L914.977110,401.269594L913.678363,396.115635L917.562812,380.415232L911.549447,374.856625L902.593197,367.641087L896.150257,359.756814L892.177831,352.507203L880.704088,342.936186L855.729801,328.649947L841.313004,319.517662L833.378475,311.309684L826.444494,303.297644L825.722477,299.992306L830.013318,291.988789L830.586307,285.395155L826.871979,278.124271L811.832114,264.434401L799.786902,249.368743L790.760573,244.657800L769.141405,240.479288L762.928923,238.822366L756.428529,235.947244L749.952843,229.166219L747.650572,221.141443L750.598397,208.307775L748.536053,204.372063L744.875446,203.302947L737.222874,201.062488L727.510704,199.456684L708.847869,197.471792L701.425900,194.562605L697.835874,190.200955L698.782955,179.088127L696.916888,176.698594L693.895144,174.717965L691.804050,169.904826L692.133731,164.124803L701.742228,151.286945L703.670508,144.420785L704.823415,120.580939L705.716602,112.168646L704.786201,102.350765L696.707407,84.279657L689.709606,71.701775L678.311382,53.062859L673.874377,46.967735L651.062577,21.322242L648.418141,17.527172L642.799320,6.678640L639.516457,6.022702L632.789619,3.680067L624.616800,1.648363L614.610217,0.000000L605.176539,3.901552L595.005609,8.906273L591.831408,12.637452L589.003873,14.843789L584.469147,14.494524L580.341214,15.137683L578.150602,18.685712L574.469538,22.642637L559.788468,30.829088L556.709912,33.806367L554.910879,36.762350L554.965330,39.982412L556.582176,46.635507L556.690485,54.928453L553.498493,61.619889L549.737737,66.117764L545.399536,67.838542L541.752466,68.775600L539.408538,71.578254L531.913035,86.784162L528.616235,89.593927L521.814671,89.116878L502.647053,111.917342L500.806362,118.630138L493.797738,128.149881L484.913129,138.747262L476.921796,143.854284L476.297600,145.826388L474.160022,147.845345L469.238163,150.149683L452.161365,163.047172L431.473321,162.514745L422.395784,167.579186L413.534992,169.828157L400.568794,172.311396L396.660137,172.077128L380.001535,173.120685L360.438509,172.741597L352.965012,174.568886L345.994165,179.467216L340.829139,183.752191L340.082146,185.196135L340.891478,187.002129L340.714092,188.437554L354.518238,198.958331L358.000212,204.129276L354.618688,209.129845L352.977908,209.875245L352.786461,210.169146L350.606888,214.155973L342.729927,226.031274L330.681550,240.100198L324.486415,244.121110L322.010463,246.736407L318.888610,256.064589L316.794988,257.363720L308.428927,258.573402L291.831220,259.591410L268.915673,262.636914L255.152778,263.650662L246.584198,262.798773L234.609633,269.234799L230.305084,270.883205L227.677364,271.436934L215.818501,277.681288L206.002589,287.371541L202.486438,289.211625L188.569527,293.321999L183.087525,299.983787L180.526375,300.537516L171.498884,291.746000L165.322904,283.755266L162.267208,275.683605L161.867304,273.102379L160.176359,273.583696L155.303783,277.157375L151.118219,281.225151L149.232565,288.973096L134.851730,294.216484L122.563663,298.693172L117.001087,304.324173L108.373574,307.139675L97.317096,305.993881L88.689437,303.672476L80.293143,302.910034L72.657026,317.358116L62.489028,325.608691L59.520649,330.617818L57.965221,336.832374L55.808822,343.055451L50.473391,356.459987L46.580151,367.406817L42.619953,370.818650L33.457833,387.358166L27.310144,403.931763L26.087322,408.238087L24.202893,411.428431L21.164904,414.005410L10.424669,419.155111L6.807698,421.710793L3.975148,424.773353L1.363211,428.270378L0.655988,432.457438L3.212725,438.390882L6.264172,443.084819L9.293153,443.374463L11.965680,443.161489L13.644760,445.955702L15.045579,447.599858L15.261243,479.844049L12.731158,484.716882L12.805374,486.889211L11.586555,492.443559L11.235646,498.649604L12.062832,501.111576L14.247044,503.109267L17.265198,507.449664L18.950867,517.352923L22.803305,552.241084L24.550113,557.752822L27.587234,561.616149L37.110323,569.138349L47.113721,579.024544L50.293780,585.452060L52.197049,595.998466L56.048601,604.270321L55.981943,607.081559L54.416854,608.167719L50.718739,608.299762L48.218481,608.874788L50.349867,614.906170L55.535561,625.401454L64.151315,636.284345L73.478156,648.061717L81.093601,657.683806L90.581253,668.809477L97.995347,677.498743L105.620810,686.439315L111.354494,688.543480L115.636919,689.173878L117.480668,690.924509L119.757156,695.030611L123.645095,699.571177L127.930682,705.508838L129.418577,711.570023L127.662846,717.337306L129.460580,725.609139L129.569078,726.320466L130.997724,729.578937L130.521681,732.496653L131.433980,743.464708L133.737952,753.035666L137.411734,761.209527Z "/></g></svg>