<?xml version="1.0" encoding="utf-8"?><!DOCTYPE svg  PUBLIC '-//W3C//DTD SVG 1.1//EN'  'http://www.w3.org/Graphics/SVG/1.1/DTD/svg11.dtd'><svg enable_background="new 0 0 1000 544" height="544px" pretty_print="False" style="stroke-linejoin: round; stroke:#000; fill: none;" version="1.1" viewBox="0 0 1000 544" width="1000px" xmlns="http://www.w3.org/2000/svg" xmlns:xlink="http://www.w3.org/1999/xlink"><defs><style type="text/css"><![CDATA[path { fill-rule: evenodd; }]]></style></defs><metadata><views><view h="544.916378742" padding="0" w="1000"><proj flip="auto" id="robinson" lon0="8.42614013255"/><bbox h="31.89" w="58.62" x="78.67" y="-798.79"/></view></views></metadata><g class="" fill="#000" id="country"><path d="M675.096220,542.916379L690.649775,538.554293L695.440265,530.236954L688.599134,515.611040L683.376905,500.302005L683.905605,491.449470L687.796038,481.262904L698.082948,467.061856L726.334668,434.514464L736.165260,415.690227L736.777651,386.554200L735.789293,363.143404L745.436527,357.463504L766.891150,361.617899L773.213243,361.154795L776.796105,375.523644L786.930824,398.400372L798.174988,410.272201L809.717869,413.090162L823.145186,413.144614L855.733480,399.162831L877.110997,393.103826L889.473334,394.764987L897.211478,404.282029L913.999112,429.260988L923.012270,432.078309L933.582680,429.220156L937.158901,424.959963L933.237873,415.349909L927.659086,394.479051L920.634530,378.329068L912.116458,370.756961L909.984626,360.909621L914.238301,343.173835L919.267036,328.350893L930.364561,324.317841L943.252149,322.437519L961.233510,338.133169L981.822358,343.092096L996.910599,342.261083L999.080741,333.105895L997.618925,323.064296L987.924494,310.173810L988.726612,290.685628L997.291365,254.372929L997.180454,244.748056L987.375139,226.601096L972.445936,220.915310L936.311364,255.095453L926.120588,258.121837L895.115146,248.674419L867.771474,234.059163L864.319821,223.369627L859.568763,214.602120L836.770306,206.297860L808.570510,200.611504L799.722417,200.638777L782.257117,199.138754L778.994243,199.275121L776.694138,189.429281L776.759832,168.440801L785.091873,141.040360L801.624253,107.227140L804.339514,86.207238L787.828147,73.889773L780.891937,70.234081L741.172379,49.363914L703.045993,29.312413L690.757069,29.312413L636.159062,33.309042L634.494303,31.549432L624.447078,20.118882L615.818890,16.504249L610.801204,18.359304L607.541488,21.673863L601.633676,21.114615L576.269301,2.659739L566.106199,0.000000L552.261167,2.441503L536.220339,12.371318L529.558733,24.538310L532.052393,31.549432L540.738436,34.591240L563.015137,32.545180L566.382081,34.563960L567.314350,38.506049L565.028200,42.352669L546.964894,45.517274L541.907183,50.127787L536.633831,51.259956L533.253739,51.969267L513.714773,47.126860L484.891339,47.126860L462.004265,55.720436L425.058307,59.157876L374.043409,57.480078L355.459294,51.096269L329.093295,63.768414L323.386628,74.858258L313.397753,89.521890L296.516587,95.687392L279.348293,97.733458L265.338459,95.796516L257.188353,89.931106L257.381214,84.474886L249.821838,79.837085L231.437226,79.973491L212.861242,90.067511L198.305149,106.545127L203.326349,115.765894L217.356979,118.193825L221.163213,121.849342L221.330790,126.582381L216.614616,132.297430L211.058881,142.036033L182.780589,171.086612L154.186694,200.393319L149.753708,209.256887L140.563456,215.447526L103.436510,231.086881L99.691011,237.358612L98.394222,263.492843L94.868755,284.947642L67.549731,305.145329L40.332759,325.244366L33.757005,337.533723L29.116177,351.742422L20.851723,367.787880L19.378184,376.259055L33.912025,390.080980L32.616654,401.504628L28.618613,417.745719L15.558376,429.260988L0.919259,435.780147L1.770047,453.470368L9.734557,455.946677L27.648360,454.640502L52.572972,441.808877L68.562402,425.313854L58.353002,409.645976L57.054161,406.582849L59.283594,402.906954L78.302132,385.873339L101.962635,375.605357L135.357788,373.698713L175.864384,379.718131L179.976624,382.264693L178.379358,392.708955L182.662123,408.107619L190.340749,418.916375L181.336626,449.592470L189.199252,459.198411L201.338835,470.693997L210.510746,481.181297L223.518644,490.823902L235.354987,507.059621L239.535667,516.263567L247.540352,522.380693L264.233359,528.891400L308.636758,520.001879L336.099698,511.070360L355.305783,501.675338L367.502193,503.334178L411.927549,517.364692L426.138731,510.227445L457.035176,491.163885L461.377550,481.140493L485.074727,450.762663L485.236601,443.332998L474.218468,424.265790L477.226789,420.073402L506.984529,400.510733L521.202495,383.163463L536.892832,371.533265L548.500245,371.274498L551.860083,375.224031L553.578632,383.340492L553.970146,416.779236L558.869444,427.083282L583.895336,451.075619L601.596619,464.735560L641.710716,474.108317L643.748290,478.597019L633.586213,496.657781L658.599264,518.234703L663.593841,534.028818L675.096220,542.916379Z "/></g></svg>