<?xml version="1.0" encoding="utf-8"?><!DOCTYPE svg  PUBLIC '-//W3C//DTD SVG 1.1//EN'  'http://www.w3.org/Graphics/SVG/1.1/DTD/svg11.dtd'><svg enable_background="new 0 0 1000 775" height="775px" pretty_print="False" style="stroke-linejoin: round; stroke:#000; fill: none;" version="1.1" viewBox="0 0 1000 775" width="1000px" xmlns="http://www.w3.org/2000/svg" xmlns:xlink="http://www.w3.org/1999/xlink"><defs><style type="text/css"><![CDATA[path { fill-rule: evenodd; }]]></style></defs><metadata><views><view h="775.56742599" padding="0" w="1000"><proj flip="auto" id="robinson" lon0="98.5884040743"/><bbox h="586.94" w="757.76" x="1007.95" y="-892.43"/></view></views></metadata><g class="" fill="#000" id="country"><path d="M778.551086,773.567426L779.873520,773.389372L781.561018,772.929670L781.936152,772.664209L782.722022,770.693760L783.626963,769.624373L786.461474,769.063243L787.491976,769.191655L788.289006,768.499956L788.171624,767.879479L787.724077,767.225553L789.567228,765.797927L791.099546,763.898758L791.801576,763.594460L792.612179,763.511372L793.788394,762.957812L794.607079,761.861486L794.884092,760.432818L795.123864,756.949676L795.561988,754.114005L795.363426,753.304747L795.417593,752.493334L795.886029,751.716453L796.309594,749.856270L798.830115,743.962950L800.463631,743.340398L802.150193,741.807228L801.447425,739.393677L800.500650,736.773018L799.645922,735.353200L798.535583,734.372498L796.926095,733.876424L795.525168,732.880631L793.978551,731.166330L793.463111,731.151226L792.584277,732.038043L792.491750,732.593654L792.828036,734.716660L789.273541,732.985281L788.796715,732.886026L788.838731,733.796588L789.074328,734.733922L787.919187,733.336990L785.353610,732.956152L784.560670,733.007937L783.081280,734.350920L779.800287,735.017667L774.835046,734.539724L773.598924,734.850441L772.481405,736.310173L770.704886,736.651103L768.667706,736.306936L767.760132,736.787043L767.048199,737.667424L766.517201,739.310601L767.363757,739.553356L768.446604,739.472438L766.885050,741.395077L764.870720,742.732955L762.268491,745.654748L760.346091,747.050927L758.757575,748.816130L758.340143,749.571417L758.179788,750.434608L759.159807,758.330840L759.351673,759.245866L760.487322,761.810770L761.726169,766.561916L766.382890,769.194892L768.619843,770.263199L771.715922,771.205255L774.837402,771.769627L776.039731,772.178609L778.551086,773.567426Z M784.877190,710.042308L783.503713,710.449008L782.819979,711.543969L783.220135,712.074729L784.361746,712.150243L785.896668,711.948512L787.610532,712.813693L788.093650,711.692841L788.031238,711.238674L787.525255,710.264536L785.716288,710.806084L784.877190,710.042308Z M826.038628,697.968493L825.843504,696.408532L824.283877,697.192829L823.831302,698.335287L824.242608,698.435616L826.038628,697.968493Z M828.983835,698.803489L828.828060,696.748358L828.989621,696.366458L829.790210,695.472118L829.294722,695.209965L828.174669,695.038432L827.913658,695.900409L827.134048,696.680393L827.638957,697.299631L827.999495,698.445326L828.694175,699.245798L828.983835,698.803489Z M838.869372,672.236703L838.011198,671.179245L836.736828,670.019263L835.588776,670.057030L836.182879,671.034653L837.001405,671.614099L837.442716,671.703659L839.217652,673.259618L838.869372,672.236703Z M919.593444,634.832773L919.253675,634.341482L917.820275,633.593196L917.667305,633.839387L917.548597,634.719398L917.836661,634.996895L918.072733,635.941667L919.241913,636.163010L919.593444,634.832773Z M945.919072,613.582888L946.019624,613.082709L945.429022,612.458290L945.718075,611.310987L945.547051,610.616331L945.277542,610.255496L944.600876,609.904383L944.071933,609.242127L943.097701,609.559751L942.847064,610.620652L943.572238,611.511928L943.416685,612.747813L943.756876,614.119793L944.751698,614.607001L945.919072,613.582888Z M957.698060,555.419894L957.313401,554.120655L956.768247,553.323242L956.074604,552.812874L955.172519,554.340785L955.591818,555.946522L956.209133,555.948680L957.698060,555.419894Z M964.238060,520.263569L963.941435,519.783518L962.506219,517.988365L961.499088,518.197138L961.394678,519.008594L962.241673,519.242141L964.305876,520.676904L964.238060,520.263569Z M967.042358,515.560884L966.578552,514.286044L965.594142,514.176319L965.382528,514.622758L966.648421,516.435614L967.192274,516.580872L967.042358,515.560884Z M964.502129,513.995598L964.501245,512.498496L963.525506,511.691865L959.741676,510.112123L957.073471,510.037927L957.810405,511.784356L959.043709,512.896458L961.638827,513.162133L964.375265,514.426968L964.502129,513.995598Z M944.821598,480.346104L944.198000,479.596047L943.335482,479.028652L938.342535,477.154416L937.413776,476.348349L936.316534,475.914131L935.303144,474.531865L932.645296,473.631066L930.200235,473.454769L930.868547,474.495318L933.815589,477.012551L937.978602,479.084533L943.512304,480.973640L944.821598,480.346104Z M706.253942,0.000000L703.869203,0.231833L701.389811,1.216759L698.349865,1.830411L694.757705,2.072614L692.429267,1.956642L691.365947,1.483553L687.798255,2.188589L683.193624,3.615468L678.666532,5.015135L672.241558,5.698206L669.377222,8.070882L667.906756,12.362656L666.547209,15.064831L665.318345,16.176110L665.559762,17.631873L667.271731,19.432520L669.491924,20.074859L672.223610,19.557267L675.085927,19.809868L678.084600,20.831785L679.937652,22.374986L680.642242,24.440119L682.379114,26.470249L685.156302,28.468425L686.923037,30.774807L687.678149,33.391020L686.725893,36.030867L684.059480,38.694411L683.060733,41.291485L684.070457,45.086308L683.806010,48.385315L684.157944,50.249129L685.043136,51.777929L685.163967,53.431246L684.515826,55.208219L684.714851,56.992358L685.765106,58.782635L685.935558,60.414291L685.224270,61.887101L685.212194,63.445093L685.904049,65.087343L685.987778,66.192369L685.473695,66.759646L686.326979,67.319703L688.553115,67.874628L690.385614,69.479305L691.818486,72.136295L691.958986,74.034098L690.808107,75.171415L688.450940,75.912248L684.888886,76.255901L681.391872,78.796653L679.012785,82.055963L676.172916,85.911570L675.137903,85.910520L672.889980,85.430467L668.115964,83.847849L663.969875,83.516072L659.229362,82.051765L656.359055,81.088464L651.684006,79.241266L652.006943,82.227033L652.616138,88.220163L653.093628,93.299672L653.446535,96.164595L653.749043,98.349560L653.934688,100.422605L654.547796,101.669080L654.549790,103.674675L653.744373,106.095201L654.842634,108.720028L656.353194,111.082924L657.439783,113.202614L655.738374,114.542790L654.492361,115.739570L657.444080,119.756974L659.355634,121.275074L661.966940,122.915740L664.464113,124.228124L666.609504,125.337824L667.942023,124.809895L668.330993,123.118454L670.135612,121.634027L671.593083,121.598132L672.846369,121.940197L675.229522,122.037328L677.287400,121.497835L679.085676,121.383815L681.719255,121.744881L682.801116,122.101729L685.222251,122.754203L688.269200,124.183779L690.755396,125.782344L692.054674,126.088547L692.321417,125.579617L692.693601,124.160551L693.595186,122.791156L694.328670,120.550849L694.862311,118.830122L695.943179,118.571498L698.329556,118.576776L699.152060,118.158764L700.826958,117.943428L702.803695,118.578887L707.452858,118.914571L709.180776,119.794978L712.883396,122.411072L714.927026,123.808959L717.423807,124.512146L718.968429,124.991502L720.308413,125.371612L721.825797,126.046312L722.587108,126.865675L723.786784,128.114793L724.902586,128.834912L726.584793,129.540248L727.803089,129.971051L728.658308,130.878054L729.226792,131.322577L730.483613,131.956096L734.707757,134.657952L736.408073,135.381154L739.268018,136.947845L740.845161,138.244185L741.710836,139.606932L742.831625,140.648707L745.052372,142.209648L746.293113,143.263891L746.916177,144.697893L747.877004,145.963966L748.163920,147.275242L746.670030,148.246715L746.235725,148.704463L744.764693,148.748760L741.939984,148.258317L739.641605,148.535710L736.382452,147.998846L733.382412,146.842741L731.599046,145.920711L729.314737,145.373151L728.555049,145.656957L728.094757,146.849070L726.684687,146.638087L725.627461,146.849070L722.434530,146.605384L720.600560,146.305780L718.461186,147.137054L717.131780,147.395495L714.945906,148.416527L714.299620,150.179852L713.293905,150.601645L712.029054,150.517288L710.774107,149.870875L709.039677,149.087308L707.180482,149.131603L706.810440,149.462754L706.998513,150.181961L707.647840,152.361335L708.228193,153.340638L708.187792,153.973055L707.193608,154.183848L705.195711,154.122719L702.037951,153.978325L699.633108,153.413368L698.523735,153.656853L697.503493,154.837266L696.407468,155.029064L695.712776,155.531717L695.920012,157.273315L695.296102,158.358275L694.551966,159.699981L694.585282,162.579246L694.627217,164.219778L695.414852,165.106641L696.228145,166.178444L696.176562,167.398257L695.293644,168.531548L694.188296,168.741775L692.974160,169.834790L691.562695,171.800459L690.610767,173.447069L688.368248,173.850217L686.860633,174.270117L683.275119,174.781285L682.389353,174.909329L678.286111,175.166452L674.636368,174.277465L673.064906,174.413923L671.876549,174.914576L671.432426,175.460286L671.753010,176.497966L672.028422,177.455644L671.668429,178.940432L670.354588,180.908685L669.097274,182.218120L668.513825,183.905712L667.979666,184.518033L666.600446,185.166865L665.850370,185.512160L664.498958,187.017459L663.497168,188.354861L662.558039,188.735395L660.974733,188.378907L659.999196,188.270176L657.002543,187.751573L655.127699,187.683606L652.374918,187.351070L645.511828,185.785233L643.183631,185.051758L640.379685,183.052743L638.283883,182.039020L636.141530,181.935326L633.008559,181.937421L631.385086,181.536231L629.237866,181.913330L627.773559,183.940256L627.377051,185.448335L627.164051,186.991312L627.666455,190.293737L628.290279,192.499081L628.522326,193.744916L628.214273,195.720052L628.661956,196.829433L629.661430,197.789397L631.242700,198.873345L632.752050,200.576622L635.187855,202.386886L637.376662,203.796444L641.298576,206.068815L642.704362,207.259022L644.347180,208.624195L645.262071,209.957998L645.562833,210.833262L644.950371,211.500111L643.241551,211.832488L642.833103,212.759796L642.103507,213.996533L641.217185,215.423932L640.483234,215.498948L639.760925,215.880285L636.036109,217.649476L634.527774,218.145449L633.436134,218.728959L632.729907,220.532732L632.133435,221.872925L631.459374,223.651031L631.166534,224.439076L630.664552,226.218671L629.838909,228.253111L629.359403,229.345122L629.129749,229.998120L629.055026,230.850457L627.421167,231.511962L626.152093,232.211111L624.234963,233.267307L621.299252,234.429161L619.022510,235.550561L617.676147,236.475865L615.567588,237.643735L613.924413,238.019861L610.203132,237.972843L605.789932,238.274810L602.577176,238.496335L599.933626,238.214206L596.079135,238.054341L593.074495,237.828660L591.357422,238.259136L587.033729,238.715782L586.069629,238.820285L578.515431,239.927138L575.227412,240.520933L572.080016,240.791726L569.876087,241.223572L568.776111,241.762142L567.131063,242.538242L566.224337,242.876139L563.386581,244.397610L556.918219,247.541161L552.788629,250.093375L552.120536,250.530677L549.372002,252.332008L547.618895,253.038395L546.929153,254.646068L546.256554,255.665180L545.241723,256.104475L542.579117,255.066270L541.058700,255.121952L535.968324,254.744809L533.740575,250.052480L530.616525,250.715267L525.630657,251.771652L520.993691,252.752878L515.276137,250.506556L510.862800,248.773490L507.043567,247.284490L501.842124,246.296768L497.314337,245.437088L489.201261,244.021888L485.351511,242.784077L482.924812,241.146191L478.219589,237.432702L476.915457,236.700432L475.241925,236.198045L473.600277,235.872203L470.387036,235.891001L466.315199,235.603818L460.278734,234.823814L455.488790,234.203659L447.271309,233.050207L445.386687,232.909305L441.850758,233.933279L437.323452,235.242515L427.603081,234.216186L423.290209,233.734940L414.536541,232.755882L404.642634,231.649698L395.020242,230.506170L388.702905,231.137378L385.180055,231.487963L381.155296,231.989878L380.312853,231.425357L379.144841,229.234557L377.613174,227.538753L374.459307,225.706753L372.104885,223.963740L368.063495,221.608211L366.450989,220.125278L365.089506,217.826608L359.615336,211.843949L356.060253,207.798853L355.257256,206.974507L353.917366,205.657114L352.644319,204.969174L350.428415,204.547008L349.556809,203.833974L348.911749,202.434848L348.337005,200.501532L348.091056,199.089278L347.637502,198.735645L342.541196,199.134132L338.879867,198.196291L335.707558,197.181091L330.690347,194.580164L327.955011,193.575761L323.819776,190.887234L319.295472,190.249848L317.239956,189.195331L314.207334,186.888817L311.800685,185.409622L308.920162,184.477215L304.659388,183.648189L297.679503,182.854840L295.286726,182.520787L291.871073,183.051696L289.177822,183.095672L284.529495,182.531259L281.709768,181.818011L278.607047,181.800204L276.598894,181.808584L273.843148,181.646222L272.335113,181.180042L270.873684,180.611109L268.683576,180.753613L266.851555,180.186704L264.909264,179.125986L263.152269,178.621716L261.482519,178.654218L260.999385,179.125986L260.337204,179.079860L259.280216,177.645471L256.679209,175.330163L255.981066,174.292161L254.485995,173.094281L253.433575,172.006322L252.919757,170.502023L252.298946,167.582252L252.621327,164.939380L253.298398,164.252394L253.552390,163.471660L254.203953,162.104563L254.443595,161.010840L253.687086,159.518858L252.130976,157.959074L250.599289,155.944771L250.195393,154.787735L250.498969,153.412314L250.205382,150.367553L249.756714,149.567159L249.039852,148.925946L248.288556,147.514691L247.216560,145.614756L244.596604,142.714092L243.192971,141.174317L241.665410,140.511497L240.038154,140.107246L237.841403,138.022504L235.158095,135.563799L233.476127,134.025531L232.704133,133.081629L231.763412,131.365868L230.082607,129.291058L228.793438,128.154917L227.820560,127.282751L226.951968,126.024139L226.443594,125.570114L224.081335,125.009452L222.139539,124.072916L220.930069,122.815439L220.243552,121.800837L219.525428,121.212785L218.249141,121.025921L217.838826,121.933862L216.688514,122.388901L215.736533,122.308661L214.579751,121.757550L213.757179,121.181113L212.519423,120.533958L210.242115,118.482828L208.588252,117.940261L206.066238,118.031040L204.208798,118.981075L202.756024,118.834344L201.441513,118.513440L199.656654,117.488487L198.353748,116.644084L196.863453,116.369663L193.496023,114.881550L191.188017,113.809368L190.063885,111.707498L188.544422,110.259009L186.589159,109.849715L184.123912,108.366700L181.157092,107.567282L179.234244,106.946150L177.643280,106.572860L177.174435,106.012958L177.035979,105.532170L177.321985,104.730924L177.652185,103.983522L177.499169,103.289952L176.665284,102.676547L174.902507,102.035797L172.752863,101.466761L171.923899,100.515318L170.336068,99.525041L170.162049,98.728722L170.781049,98.147350L171.484368,97.715570L171.345206,96.968985L170.384645,96.283561L169.583103,95.241377L169.370010,94.464607L168.717556,93.473290L167.799881,93.397529L166.383864,93.798446L164.969298,94.118361L164.034463,94.333052L163.670685,95.000334L162.806103,95.320323L161.113538,95.122433L159.328354,94.689838L156.194352,94.602481L154.433522,94.868766L153.615978,95.019280L152.700626,95.900351L152.167160,96.781564L152.440417,98.280049L153.719409,99.975914L154.656211,103.506026L154.336323,104.836346L153.429179,107.145455L152.524974,107.647431L150.816219,108.060845L149.294271,108.745341L146.006626,109.410903L142.283150,109.749503L141.127049,110.246350L140.852733,111.828830L140.745690,113.153020L140.760283,114.158661L141.116397,117.447321L141.789407,120.392494L144.005608,124.049688L146.238548,128.114793L146.819928,129.517018L148.674589,131.598159L149.711379,132.874685L150.267771,134.685402L149.515281,136.115949L149.510794,138.011948L149.081061,138.817375L147.001312,139.180491L144.991324,139.404268L143.560661,141.028668L142.339475,142.152659L140.282700,143.580463L139.149954,143.849543L138.147297,143.122486L137.001747,141.501495L135.783721,140.788028L134.475321,140.732089L133.432908,140.714146L129.900874,140.274014L127.775271,140.304623L126.313717,140.652929L124.554317,140.828135L121.135385,140.237072L118.873954,139.735706L117.292202,139.256491L113.406765,137.841991L108.374610,136.157123L106.394568,135.664095L105.556548,136.170847L105.796905,137.132589L106.494512,139.466545L106.597390,140.925236L106.627665,148.305780L106.870049,153.440774L106.501530,158.360381L107.090722,161.657206L107.359928,165.835577L107.163244,168.858446L107.255792,170.507276L107.474025,171.178605L108.106323,172.120802L110.703177,173.152031L113.241914,173.784078L113.909000,174.177743L114.589623,175.249358L115.214034,176.996242L115.462006,178.653170L115.322731,179.952997L114.926261,180.595391L114.194919,180.636257L112.424893,179.802075L110.769719,178.870191L109.662268,178.586069L107.357544,179.106068L105.308544,179.814652L104.542401,179.836662L103.006350,179.380714L101.268833,178.437184L100.002917,176.615460L98.503812,175.787674L97.264002,176.615460L93.148680,178.004123L88.660219,179.658482L85.729417,180.513658L84.396011,180.379527L81.932038,180.573386L79.918173,181.035460L78.522240,181.676600L75.602372,182.558487L72.876229,183.149072L71.491245,184.485588L70.624159,185.777910L70.875592,186.269597L72.168506,187.033146L73.541378,187.632368L75.775524,187.492245L77.968034,187.399175L80.137669,188.208491L81.998938,188.727032L82.719846,189.400195L82.519316,190.054433L81.617428,190.208049L81.461895,190.667817L81.869357,191.280066L81.865032,192.880282L82.485184,195.309847L83.743919,197.700712L84.787050,199.906001L85.107935,201.016714L85.657601,202.597501L86.786410,203.667175L88.206775,205.704017L89.836162,206.977634L93.266390,211.394875L95.276138,213.975695L97.342049,216.901364L97.273288,218.482007L97.667117,219.397929L99.056776,220.161751L100.111951,221.654067L100.970187,222.567043L101.177569,223.476960L100.842263,223.828232L98.257826,223.277877L96.659075,224.184727L94.939643,225.095828L94.845891,225.580603L94.990296,226.110238L95.381850,226.576302L96.883538,227.392761L98.725170,227.901659L98.950705,228.718263L97.058060,229.096875L94.452383,230.346552L94.106757,231.688306L94.001391,233.161887L94.267000,234.016792L95.434306,236.308754L96.854757,238.853727L98.729029,241.535201L99.108526,242.365645L98.864081,242.956695L98.584891,243.337532L99.414752,244.627879L100.271224,246.129212L100.204126,246.480044L99.954104,246.716747L94.635105,247.090691L93.553724,247.503444L92.989522,249.582751L88.925506,251.255472L86.571112,252.113728L85.473118,252.075950L83.378516,253.444680L77.360478,256.867651L74.566249,259.032387L73.094138,259.938652L72.004012,260.928493L72.111923,261.930378L72.396154,262.874751L69.952679,267.323179L67.150368,267.863162L64.586972,267.756421L63.102731,268.433956L60.873059,269.117023L55.384750,268.649635L53.586591,268.727877L49.880897,268.112599L48.578651,268.437128L47.386685,269.343357L46.510596,272.903882L45.942226,273.739197L45.830931,274.551579L46.089753,276.287940L45.902908,278.126042L45.356486,279.577807L45.065712,280.923336L43.985838,282.226327L42.854187,283.046191L41.215983,281.332334L40.436501,281.820290L39.775169,282.517334L38.002876,282.275357L37.074948,282.627142L35.178254,284.117268L31.660275,284.060708L31.115425,283.548563L29.105130,279.460766L27.869941,277.528698L27.228268,277.096239L26.588178,277.045244L22.606441,280.252556L20.461983,280.823233L18.576312,280.923336L15.776665,279.964103L15.305836,280.201461L15.040771,280.721007L15.074489,281.381335L16.382637,283.205098L16.293276,283.564565L15.157684,283.534695L13.712389,283.956131L12.777650,284.796155L10.088520,287.750194L7.353467,288.740147L4.641048,289.128827L3.579623,289.456557L3.169810,289.813292L2.653809,291.225153L2.356994,293.442688L2.177246,294.526947L1.991594,295.154875L2.319840,295.976744L3.412379,297.041325L4.709689,299.426124L4.759567,300.044197L4.438835,301.043541L3.833112,302.024055L2.074598,302.615019L0.645522,302.911119L1.072216,304.066839L1.479806,306.257146L1.640843,307.780257L3.950406,310.549101L5.301989,311.883426L6.512997,312.826351L6.903706,313.571876L6.885431,314.180666L5.888859,314.773319L5.652771,315.407478L5.662939,316.119090L6.274599,316.945240L7.704347,319.584633L9.150336,321.640024L10.651755,322.623073L12.664728,323.275740L13.632670,323.138208L13.916612,321.604026L14.776509,320.427296L15.813330,320.509071L17.431437,320.458915L22.099890,321.793839L26.860607,323.805197L28.397951,324.916857L29.183848,326.169932L28.848681,329.070400L29.427672,330.927160L30.248238,332.906548L31.619578,334.376506L33.201584,336.897185L33.954716,338.987288L34.509200,339.610353L35.020226,340.339933L35.076562,342.254944L35.278881,344.186070L35.848214,344.829569L37.395067,345.783969L39.903882,347.563579L40.694539,349.039264L40.225690,349.976697L39.247711,351.113196L37.868509,352.093743L37.490636,352.507100L36.599586,352.655517L35.124992,352.112432L34.385326,351.291270L34.130184,351.176951L33.224211,351.717781L31.402121,352.394964L28.472271,354.171695L28.667827,354.630219L31.370846,356.434792L32.050625,357.033069L32.374254,357.224435L33.366987,356.897795L35.043936,356.918691L36.529470,357.436699L38.104152,358.194493L39.141440,358.795030L40.138288,358.436466L41.937374,358.013015L43.687819,358.326478L47.726241,359.672768L48.457022,360.343741L50.197885,363.620662L50.935443,363.917669L52.802467,363.145450L54.614257,363.535960L56.816002,364.596385L58.332166,365.615002L59.444280,366.718299L60.797944,368.501317L61.522869,369.931151L62.387831,371.635797L63.551767,376.444889L63.125058,377.230778L62.858500,378.253964L63.227272,379.142955L64.013397,379.849451L65.335759,380.327365L66.522176,380.627279L67.315318,381.387436L68.837629,384.091121L69.495663,384.506109L70.847567,384.497326L73.152871,383.907769L75.044030,382.984328L75.894407,382.785565L76.790287,385.350252L78.300769,386.330330L80.354987,387.470387L81.176780,387.851073L83.517211,388.939193L87.753126,390.314295L91.771753,391.299824L94.748845,392.030860L96.112203,392.079080L97.086753,392.115244L99.817308,391.919077L101.111394,391.574938L101.187275,391.645084L101.390336,391.830305L102.276868,392.362904L103.142941,392.626983L103.945574,392.119627L105.003048,391.702076L105.674871,391.936612L105.942794,392.618217L106.081152,395.814103L106.465895,397.067314L108.316716,399.668449L110.940368,403.884384L113.397343,407.831377L114.914230,410.418274L116.016662,411.477871L119.776379,412.557771L122.865723,413.444698L124.944529,414.898050L127.182883,416.292019L128.724924,417.146363L129.630781,418.243850L130.013133,419.234530L130.067631,419.899160L129.575233,420.772100L126.853458,423.022896L126.643062,423.736679L126.788974,424.673705L128.149491,427.465977L129.002423,429.214404L130.006721,432.727265L131.068755,436.064078L132.620392,437.582887L133.823447,438.564158L134.634598,439.454464L136.128462,440.672950L137.354603,441.581206L138.340399,442.114630L138.438812,442.276589L139.060558,443.316239L139.162454,444.726917L139.118393,445.954870L139.389189,446.615125L140.190009,447.083294L141.545980,448.307463L142.125425,450.100621L142.355079,451.332754L143.043259,452.441778L143.455989,453.671276L143.883987,456.739140L144.234586,457.983985L144.274891,458.127193L143.377356,458.212254L142.700990,458.684922L142.047222,460.616191L140.880939,461.124225L139.454430,461.277059L137.661811,460.091976L136.125201,458.855031L135.628539,458.167032L135.000581,456.862989L134.128086,456.011082L132.936741,456.409585L131.026421,456.589442L128.980768,456.878066L128.663460,457.164523L128.757542,457.712636L129.557101,458.885177L130.367287,460.413829L131.139072,462.552360L132.050267,463.965186L132.339363,464.415994L136.731341,468.661560L137.826719,469.526160L138.144808,470.094996L138.217193,471.643292L138.032685,473.451544L138.488455,474.885505L139.985031,476.470873L141.156633,477.577855L140.610986,479.069488L140.482343,480.796341L141.255099,481.572148L141.545057,484.054164L141.918434,484.522610L142.593520,484.717079L143.541638,484.544099L144.416942,483.887627L145.254669,483.758695L145.819297,483.947795L146.079862,482.066418L146.626702,481.799943L147.928966,482.318923L151.086302,485.859161L153.753589,488.852333L154.459353,489.419587L154.890251,489.765526L157.198974,491.316881L158.772257,492.298839L160.537818,491.943228L162.958304,491.876618L164.620416,492.837094L165.608515,493.506426L165.783458,493.625681L169.250273,495.976472L170.481411,495.802414L171.473938,496.476085L172.088788,498.137222L172.086503,499.862932L172.361983,500.675328L173.701336,500.831148L176.738003,501.972433L179.424124,502.983742L180.766445,503.306169L182.304812,504.055300L183.782582,505.253766L186.498230,506.790957L188.855626,507.968154L189.674617,509.566954L190.842203,511.010042L192.170133,512.379111L193.406968,512.311352L194.607783,511.134789L196.445509,505.755754L200.404542,504.657209L204.516376,505.209696L208.222328,505.994392L209.668785,507.792911L210.777051,509.688459L211.435800,510.653016L212.844726,511.783280L218.426894,514.478605L221.858499,516.909054L226.580480,520.166696L229.892276,521.606965L232.573718,521.726458L234.349756,523.006513L237.158312,525.551990L239.698987,528.481498L242.665459,531.189781L244.292353,531.101434L246.345012,530.222314L248.829879,529.073950L250.568669,529.639500L252.222202,530.387144L253.023141,531.792062L254.489612,534.438562L256.075473,537.189080L257.848569,538.152757L260.004162,539.570368L261.270805,540.695934L265.188925,542.757544L265.857867,543.597581L266.683929,544.171293L267.608580,544.531491L268.402486,544.952092L269.528566,545.097687L273.297900,543.859631L274.407683,544.014922L275.071806,544.244626L275.186651,544.694337L274.864214,546.629218L274.759538,549.103702L275.655269,550.347556L277.450568,550.863248L281.266522,551.230068L286.302821,551.198780L288.091712,552.453574L290.002612,554.338627L292.197646,557.557789L293.085702,558.916620L293.928168,559.310579L295.131919,558.773069L295.075543,557.449863L294.732815,555.482485L295.691657,554.802636L296.496179,555.303348L297.637327,556.842253L300.006700,558.224781L301.656173,558.906906L303.045187,558.666217L303.538770,558.136279L303.693638,555.446873L304.742273,555.052990L306.213298,555.232125L306.872973,555.768460L307.674885,556.842253L309.513707,557.348414L311.377148,558.027271L313.186158,558.906906L315.883578,560.903760L318.774382,561.266451L322.037306,561.224353L323.765073,561.268610L325.064468,561.415416L326.171013,561.278325L329.233539,559.848102L330.582107,559.743403L332.312411,559.907468L334.001107,560.190268L333.640820,559.440101L333.699496,558.810846L334.231962,558.458989L336.668166,558.018637L339.312462,557.072128L340.340460,556.568134L341.091561,556.061994L341.795881,555.266657L342.616565,555.300110L345.408290,556.452659L346.456064,557.176814L347.389173,559.379657L347.949279,560.233444L348.058669,562.472228L347.650295,567.900608L348.362764,569.934928L349.940827,571.417569L351.261712,572.452114L351.659463,569.180139L352.887658,567.989148L353.999400,566.337182L354.553244,563.712616L356.107740,561.018180L357.849596,558.255001L358.969184,556.004797L359.805088,554.955870L361.746375,553.831467L363.433209,553.171101L364.371328,551.665946L365.714605,550.829803L367.199832,550.453283L369.569160,550.655028L371.877619,551.192307L374.441640,551.938914L374.851718,552.545286L374.879824,553.613501L374.768676,554.696884L374.875951,555.252629L375.311658,555.556946L377.705268,555.764143L380.547415,555.593637L382.194520,555.744718L386.009922,556.744045L387.215678,557.449863L388.431928,557.991655L389.484449,557.894520L390.594820,556.738649L391.813328,555.755510L392.668101,555.597953L393.374185,555.915226L394.723173,556.851966L397.285973,557.732629L399.546002,558.397469L400.367460,559.026712L400.715172,561.731699L400.957096,562.636314L402.479623,562.639553L404.658170,562.935342L406.335028,563.305623L407.619739,563.290509L409.584543,561.582732L410.625310,561.480183L411.774484,561.155269L412.237126,560.833597L412.661428,561.082946L414.044166,561.292358L415.418297,561.207082L416.557363,560.735369L417.642400,560.000295L419.524381,558.458989L419.771819,557.573977L419.587217,556.761312L419.057126,556.228187L418.582237,555.970264L418.597711,555.266657L419.263409,554.078571L422.255182,552.288493L424.645010,550.089716L425.858419,548.440279L426.129132,546.442622L426.548947,544.275900L427.206510,543.421806L429.124636,542.879395L434.666929,542.080372L436.265547,541.206996L438.547079,539.585461L439.589912,538.314454L440.091183,537.282857L439.900968,536.134935L441.579373,535.773871L442.675701,533.919132L444.101092,532.049576L447.002649,530.470099L449.395758,528.347931L450.493222,528.687237L451.796822,529.689054L452.625665,530.799768L452.881374,531.360011L456.773736,532.062506L457.335256,531.949371L460.319335,532.944989L463.137107,534.147593L464.601762,534.449339L465.272858,534.415931L465.764166,534.043061L466.188973,532.983781L466.701044,532.217663L467.061321,531.905195L466.740633,530.687723L469.809594,528.316694L472.667429,526.616006L475.178826,525.375382L476.136851,525.883677L477.291443,526.826020L479.134069,529.229070L480.035960,529.817250L481.873427,529.482221L482.289174,529.745072L482.201489,530.611231L481.165837,531.683240L479.718128,532.644356L478.811771,533.429896L479.809630,536.047632L479.948247,536.949788L480.489283,537.234352L483.327484,534.635778L484.872087,534.122807L485.615305,534.750014L486.144494,536.139246L488.211570,539.003306L489.144237,540.458738L486.491178,543.928649L485.632556,545.721067L485.829827,546.352021L485.907621,546.976529L485.228000,547.868570L485.359591,548.224538L486.214986,548.788708L487.192108,549.213736L487.615530,549.199712L488.145992,548.358297L491.158339,547.167445L492.156609,547.391802L494.903660,549.219130L496.005650,549.321613L498.919167,549.867480L500.536640,549.177058L501.999346,549.809225L505.257199,552.096440L505.976918,552.512917L506.427546,551.705866L507.321463,549.509320L507.816491,547.924662L508.114304,547.246186L508.502466,546.056494L509.620815,545.905497L510.834522,546.281914L511.669896,546.959271L512.666050,548.333487L513.668304,549.459696L514.561197,549.455381L515.435469,549.295722L515.899467,549.452145L516.999437,550.395025L519.196486,552.655342L520.071834,553.221815L521.001935,554.185399L521.819813,556.109477L522.500163,558.046698L526.135759,564.776011L527.085075,566.193584L527.795203,567.276522L528.830546,567.542135L529.375751,566.459186L529.423490,565.300709L530.157581,564.907724L531.186379,565.119331L533.231601,566.198983L534.333958,566.782014L535.570801,570.110940L536.552231,574.016956L536.676884,575.226547L538.175542,578.449447L539.229245,582.155458L539.837192,584.183035L540.269765,586.121026L540.668281,588.659735L540.962136,592.060659L540.855445,594.962553L541.613598,597.378319L541.416718,598.482491L539.803622,599.044302L539.841786,599.965889L540.661432,601.486021L542.252488,603.387533L542.523203,604.586775L542.101527,605.402472L540.846707,605.479180L539.237498,606.239773L538.512441,608.693304L537.621423,610.711401L536.993075,611.107884L534.529275,610.539627L534.067323,611.058189L533.912500,614.495732L533.521302,615.972457L532.747575,617.221216L531.962128,617.955765L531.223244,618.468863L529.288519,618.121037L528.689804,620.196070L528.205271,622.933102L528.387683,624.348068L529.312664,626.570729L529.158390,627.187391L528.237275,627.671211L526.758754,628.673389L526.307526,631.849303L526.897085,634.934270L527.690004,635.992414L528.919512,636.454534L529.904423,637.404671L530.243710,638.891379L531.281669,640.748345L531.323074,642.913990L529.535010,646.060800L529.756108,647.772839L531.085940,648.300688L532.117725,648.058893L533.316224,647.311911L534.672340,646.109377L537.782394,644.359497L541.332176,643.359846L544.245678,643.174163L546.773220,643.248652L548.070287,643.621096L548.547938,644.262340L551.813892,643.240016L552.526673,643.181720L553.139652,643.126663L553.237402,643.803538L551.202036,646.600541L550.954316,647.904532L551.272197,649.303478L552.525799,650.600924L553.698541,651.601512L554.971490,654.109915L554.702761,656.407748L555.259660,657.245264L556.162396,658.183138L556.834395,659.504123L557.156959,661.114306L557.164632,663.682745L561.032175,665.024122L564.281601,665.626277L566.606501,665.790303L568.176086,666.379502L569.145751,666.887763L569.920059,667.808234L570.271903,668.812863L569.616927,669.516419L568.424881,671.774876L568.014638,674.789653L568.467915,677.046891L568.673802,679.001970L567.312052,681.823389L566.896305,683.763274L566.576458,685.753835L566.731559,686.619099L567.198514,687.223270L568.025152,687.572824L569.389920,687.783204L570.989424,687.558799L574.961254,688.036738L579.543199,688.908461L581.381076,689.387474L582.094123,690.264583L582.249559,692.180611L582.241851,693.966080L582.742544,695.337266L583.653598,696.599482L584.921859,697.015904L586.035077,697.504605L586.379006,698.467980L586.263542,699.774411L586.948070,700.806821L587.641756,701.484305L588.984082,701.871592L591.453678,701.031211L593.330190,701.405553L595.056166,701.979471L596.410758,701.677409L597.686084,700.944907L600.195909,697.625432L603.438977,695.831365L604.527625,695.400916L605.343446,695.616680L605.573882,695.849705L605.626150,696.521807L606.415307,699.250113L606.303107,699.562966L607.563810,700.566249L607.546841,703.097099L608.206386,703.632179L608.619791,704.535124L608.682400,705.953726L609.107848,707.157648L609.645631,707.741269L610.333031,708.032540L613.277060,707.001225L615.156328,706.924631L616.054691,707.603185L616.842798,708.026067L617.789982,708.352938L618.549378,708.783371L618.974842,708.645287L619.872316,707.590239L620.170623,707.403610L620.119112,706.886874L619.227489,705.938623L618.336829,705.142480L618.087883,703.373269L617.980403,700.306259L617.805955,698.717184L617.147652,694.912210L616.837423,693.839857L615.937389,692.603516L613.716066,690.234375L612.968050,688.785470L612.441320,687.335472L612.325312,686.418427L611.689966,685.369751L611.291079,684.401983L612.038963,683.900295L612.852098,682.771757L613.076496,681.048720L613.356433,679.791759L613.957610,679.255523L614.523090,679.063470L614.945331,679.172444L616.871926,681.423108L618.668363,680.297782L620.177503,680.302098L621.555015,680.897670L622.359487,681.628104L623.159380,680.844802L624.140385,679.709760L625.097563,677.942435L626.136548,675.718667L626.498276,674.362368L626.817708,673.814232L627.571422,673.413918L628.490995,673.632958L630.191901,674.530693L632.718522,675.677665L635.023983,677.032865L636.091029,678.397756L637.469038,679.706523L638.426981,680.102494L638.857332,679.997837L640.042051,679.013839L641.033445,678.025515L640.872713,676.904467L641.770463,675.897778L642.887377,674.240441L643.353956,673.116109L643.831661,672.997417L644.448275,673.330834L647.220285,676.806280L647.674215,677.014522L648.206625,676.493377L648.619128,673.778625L649.387720,672.726582L649.758329,672.992021L655.913421,678.113990L656.411821,678.072989L656.944094,677.843170L657.184031,677.055523L657.305669,675.282754L657.773618,673.383705L659.296776,672.326262L660.586970,672.121246L661.231516,673.025471L662.587809,674.273890L664.018852,674.449767L666.604836,672.238861L667.512243,671.887096L668.553126,671.927020L669.598294,671.838539L670.460526,670.992570L671.331538,669.873589L671.317217,667.671189L671.201866,665.695341L671.791538,664.895705L672.564714,664.361531L674.065912,663.614758L677.417104,661.698149L678.205101,660.790546L678.813190,660.280081L680.390892,661.109989L682.380759,662.708261L683.628762,663.912605L684.548690,665.214050L685.068024,666.303964L687.960512,667.248183L689.930487,668.587335L691.265122,669.615693L692.395143,669.568214L693.485572,669.291972L694.080357,668.467557L695.364493,668.450292L696.911049,668.571149L697.646438,668.901347L699.222676,670.795104L699.832885,671.059471L700.937125,670.926748L702.972521,670.254498L704.651504,669.935096L706.350924,670.688278L709.697022,672.795639L709.117465,674.297628L708.731702,675.915042L707.620499,677.057681L706.701278,677.340372L706.360134,678.928602L706.488211,681.269900L707.018494,682.456714L707.837764,682.836492L708.799288,683.629490L709.311970,684.671707L709.812206,686.991311L710.202610,689.604324L710.458707,690.472801L711.083320,690.312052L711.639727,689.999185L712.942444,690.404833L714.590954,691.083429L715.673729,691.771731L716.535078,691.687581L717.324384,692.361856L717.794246,693.655378L718.741700,694.554041L721.257414,696.257498L723.069498,696.399901L724.952157,698.648141L726.404851,697.910237L727.289234,698.881163L730.476179,698.537024L732.587477,697.628668L733.441353,697.846588L735.784242,699.719392L737.204162,700.878022L738.950160,700.479946L740.302982,699.613670L742.253204,699.763623L743.088781,698.360100L743.259123,696.778565L743.816011,696.703048L744.420798,697.094657L745.861191,698.682663L746.870719,698.105502L747.181177,697.267267L746.297578,695.764478L745.743116,693.789152L745.443241,692.113723L747.632878,692.193557L748.174071,692.903432L747.864533,694.072884L748.538866,695.078349L749.830161,696.090281L751.428453,697.711737L752.035400,698.171309L753.449120,698.082847L754.927764,698.305081L757.000202,698.258692L758.494507,699.054850L759.274266,700.090499L758.805165,701.333274L758.660495,702.373231L759.997884,702.699026L761.305199,702.304188L763.681605,702.071169L765.287282,701.506960L767.146525,700.215640L766.138764,696.780723L767.008157,696.843294L767.611328,697.254321L769.928163,700.510152L770.995187,700.435715L771.182609,699.726944L772.808653,701.416341L774.754884,701.483226L774.954734,703.783209L772.391481,704.645160L772.420386,707.055164L771.264506,709.192229L771.997404,710.935537L771.689904,713.936704L772.271446,714.892505L773.192661,715.662756L774.190507,716.945431L775.167035,718.475152L775.236868,720.454736L776.948134,722.831331L778.727615,723.713794L779.243298,724.293114L779.702809,725.284543L778.717526,725.381636L777.788475,725.066622L777.901759,726.150833L779.222566,727.674131L782.875094,728.367819L787.009594,727.680604L788.798450,726.341784L789.256257,724.763476L789.723511,724.030964L789.395997,722.743948L785.037286,719.354366L785.112424,718.288521L785.844503,717.578679L786.048347,716.728595L785.435304,715.688647L781.815350,715.224770L780.996617,713.323956L781.413557,711.268880L783.703318,709.198702L784.384077,708.292526L784.543632,706.627966L784.467246,704.630057L784.960935,704.878178L785.765405,707.006618L786.736551,707.517961L787.915466,707.371247L789.300623,705.934308L791.177545,703.560979L793.188023,703.352772L795.331548,702.594383L795.411882,700.794954L796.260687,700.811136L797.113602,701.391529L797.957822,701.446547L799.374698,701.188715L801.288374,701.360244L802.505250,700.278210L806.437744,699.748520L807.760133,698.656771L808.162220,697.624353L809.144266,696.210030L810.110022,696.419320L811.015515,696.256419L811.804154,694.949969L811.858090,693.328492L813.436483,693.475213L815.334552,694.282177L816.956327,695.240172L819.172055,695.713774L820.056979,695.141999L820.564751,694.398690L819.883048,691.829988L819.310010,690.492220L819.993260,690.418858L820.717466,690.932390L821.030173,691.612062L820.862906,692.644511L822.505917,694.021101L824.415953,694.937023L825.163653,693.986578L825.520913,693.111647L826.591256,692.164429L828.017962,691.230152L830.081898,692.626171L830.939349,692.054387L831.390798,691.371480L831.152795,687.369996L832.344809,685.411828L834.016311,688.349609L836.205198,688.045369L837.155037,686.793877L837.836178,686.364483L838.706449,686.065633L839.745728,685.710679L839.845770,685.685865L839.800456,685.201444L839.955479,684.669550L840.566721,684.572449L841.029634,685.054715L841.070164,685.030979L841.307591,683.438524L841.333419,682.262509L840.405893,681.076772L839.676227,676.880730L837.977128,674.707649L837.173555,673.962057L836.577958,672.563649L834.608300,670.901930L834.375427,670.366720L834.152203,669.854166L836.149737,669.222911L836.275618,668.004629L835.744337,666.692444L836.969170,665.653255L838.785756,665.092108L838.455031,666.209002L838.578296,667.467240L839.114605,668.597047L839.864020,670.972068L840.899536,672.292812L842.957424,673.795889L844.877815,676.589406L847.147409,678.272597L848.833220,678.695548L848.877081,678.639442L849.375713,678.009330L850.248280,677.825907L850.670187,677.522717L851.917298,677.522717L852.726136,677.766564L853.499981,678.053568L854.713078,676.899072L856.270744,677.119183L857.950181,678.361071L859.050061,678.320071L858.492185,676.293765L858.881840,675.554660L859.097971,674.573853L859.989392,673.317885L861.192041,673.683672L862.400010,676.167525L864.412682,676.377926L865.132848,675.876199L865.293445,674.879210L867.057608,674.341867L868.273838,672.734135L870.117108,671.947522L872.083802,672.860381L874.085650,674.122829L876.295889,674.122829L876.798074,673.098845L877.056831,671.783508L878.450621,671.149032L880.775371,671.800773L882.705370,672.294970L886.397813,670.581452L888.171934,670.396933L888.974691,669.707413L889.144975,669.024362L889.579514,668.321881L891.535252,669.212121L893.903069,669.105292L894.584190,667.763992L894.201133,663.938505L894.954125,663.085970L896.488622,662.866899L896.841518,661.770454L896.313158,660.673992L895.189995,660.089060L896.737843,659.942287L897.547079,659.455558L899.172288,657.896057L899.269886,653.616662L901.699807,654.130422L902.843781,655.117994L904.005793,654.675478L905.256632,653.609107L906.211323,652.120687L906.996868,652.243734L907.624543,653.858432L908.232991,654.899974L909.029322,654.184389L909.378055,651.637131L909.170183,650.857819L908.575613,650.410951L908.990229,649.330464L911.064085,648.967778L912.088908,649.415738L912.380101,647.148913L913.441548,645.478953L915.313700,645.534007L916.112238,643.452687L918.356741,640.365082L917.873757,638.572880L917.125565,637.412229L914.286949,637.052691L913.529470,636.243989L913.225765,635.318660L914.230329,635.196649L914.983080,635.320819L916.294534,635.149140L916.074007,633.425829L917.145199,631.942169L919.193022,631.968085L921.363810,633.141843L923.448293,632.523113L926.366441,632.973394L928.006799,632.065269L928.582537,629.307296L927.886187,628.507081L926.775342,627.915278L926.582475,627.329946L927.854073,627.014597L929.728097,625.658136L931.293190,625.265013L931.800666,623.586549L930.405812,620.887366L931.186406,619.062969L932.008128,618.749714L936.102009,619.136422L936.917479,618.555279L935.737569,616.900387L934.078577,615.823382L933.338808,614.527060L933.796136,613.741691L935.276683,613.338741L936.920283,613.819473L938.331643,613.524552L940.066022,614.652373L942.051969,615.551157L942.495587,615.039111L942.192211,614.015005L939.875371,610.612009L939.561231,608.235229L940.113035,605.486743L940.191350,603.367005L939.172075,601.489263L936.907695,601.365016L935.630087,602.578311L934.035298,602.702557L932.600462,602.125622L929.445042,598.873598L931.295976,599.258222L933.058386,600.184131L934.177994,600.372122L935.943629,600.358077L937.516589,598.750432L939.293830,596.336813L940.920505,594.926900L942.317204,594.173871L942.024377,593.360345L941.097548,592.404215L940.720806,591.606907L939.297060,589.473222L937.827197,588.083926L936.098777,587.823571L935.510986,586.613636L934.560475,585.405884L934.213473,584.200319L935.629572,585.034274L936.850590,585.445854L937.649322,584.427170L937.736348,583.170856L938.322211,582.841390L938.433164,583.920536L938.899910,585.263289L939.572741,586.316557L940.311001,586.455914L940.778129,588.061239L942.534384,588.593835L943.686079,587.543771L944.297381,586.708701L943.871354,584.295380L944.035592,581.962102L945.443161,577.295910L947.095981,576.003084L948.081453,573.775043L949.051971,572.401357L949.759916,570.321508L949.742080,568.779537L948.351556,566.598466L949.449222,565.300709L949.082829,564.229733L949.179969,562.976364L951.048746,559.729371L950.756350,558.705072L949.194430,557.828684L948.689989,557.109902L949.900006,557.034355L951.458862,557.243727L952.494728,556.512015L953.174096,553.854127L953.500892,550.909640L954.156637,550.111293L955.368640,549.679769L957.218746,552.421205L958.719669,552.249650L961.033566,550.164155L963.126678,550.874037L962.491584,549.228839L960.271317,545.815978L958.289824,543.158686L958.634669,541.562810L959.832590,541.095941L960.358246,540.364939L960.405687,538.521429L957.558091,536.744992L959.565113,537.097459L960.039628,536.276129L959.370958,535.007588L955.925560,532.627115L954.460705,532.342652L954.776953,530.978612L955.351510,530.017625L957.652465,530.030553L958.668231,529.584560L960.258386,530.261097L962.104475,532.396527L963.269976,532.261840L961.742071,524.417007L960.417502,521.875019L959.263571,521.392743L958.187170,521.903009L956.381659,523.967998L953.110030,524.550528L954.024510,523.394112L955.607860,522.362699L958.513422,518.044324L961.183293,516.046118L959.827790,515.664169L958.413951,515.523228L955.519329,514.244091L952.805591,513.650300L946.408227,508.198230L944.274905,506.971561L942.568296,506.493180L940.738763,506.544780L936.996399,509.651900L932.117466,510.257290L928.280876,506.515755L926.027734,507.741306L924.191415,507.397280L923.689554,507.694002L923.114891,507.875694L923.760568,506.945760L926.823040,504.649685L930.173388,504.583044L934.024392,505.380605L935.167186,504.544349L935.361933,502.847250L935.815976,500.898850L940.599197,497.785861L941.957559,495.803489L943.599739,494.677506L946.186120,494.175765L947.897140,494.030723L949.568854,493.004695L947.647690,489.822466L945.959881,487.594267L942.403731,484.143341L935.332881,480.498691L931.487321,477.357539L927.979584,475.346622L925.539946,474.669452L922.199820,473.137644L920.718629,470.868094L919.549326,469.527235L915.196255,468.732538L912.948801,470.224028L910.409714,471.231507L907.273947,470.572408L907.791163,470.044458L908.128157,469.698212L909.795170,469.914348L914.934899,466.837495L917.747156,467.383888L920.583411,468.470135L925.265362,472.045386L928.689197,472.640979L930.773289,472.192674L932.397767,472.278681L939.692920,475.506773L941.334812,475.785154L943.217092,475.695944L942.131093,473.210745L941.018007,471.376655L938.754432,469.326147L936.854703,468.045329L932.869866,466.501899L931.869471,465.791948L930.568291,464.625789L929.164117,460.974616L927.627355,459.803482L926.464319,459.091886L919.925395,456.672369L916.609134,454.591356L915.756390,452.324311L915.922834,450.578198L913.989294,446.751049L909.605402,441.885719L905.250117,436.267337L901.937061,432.996690L901.173487,431.261881L898.511999,427.938371L893.980331,421.216083L892.028937,418.880440L890.372205,417.731012L884.912682,415.012244L880.910250,413.934302L876.708561,412.016781L872.666738,409.073899L870.966119,408.287031L868.204153,408.308831L866.659665,406.066937L866.141108,402.424574L867.750360,400.140742L867.477797,395.937803L868.740094,394.655689L869.236705,392.159079L870.198513,389.490824L871.600701,388.839387L872.385100,388.256956L872.765751,387.143431L873.562799,386.086701L873.911929,384.757500L873.841057,383.368657L876.170855,381.709266L876.915263,380.595421L876.335998,380.082370L874.713846,379.851649L872.168344,377.569291L872.293465,376.862574L873.019483,375.688608L874.386507,375.154336L875.422685,375.109262L876.074214,375.981015L876.576231,377.767116L877.194459,378.462761L878.252554,379.033073L880.053006,377.798988L882.025568,377.320903L882.453352,376.455881L880.850509,372.574914L880.698823,370.940765L881.472688,369.971845L883.057133,370.652625L883.776730,370.245700L883.552509,369.318535L882.631887,368.110845L880.407552,366.572001L880.421389,365.995604L881.635920,365.942804L884.029360,366.780998L885.068152,366.478502L886.246128,365.372999L890.410904,363.617362L894.146674,361.409626L897.748552,358.636645L899.769766,358.382571L901.949013,358.655343L903.002519,359.363687L903.770585,360.437239L904.472876,361.106028L905.212583,361.466826L906.446421,361.503126L907.754201,359.635370L908.587260,358.921519L908.105443,357.664364L907.254334,357.222235L906.058818,356.189549L906.624824,354.619223L907.504561,353.645021L905.887430,350.564711L906.744075,348.653556L905.329942,348.122830L903.528000,348.538177L900.721076,348.598614L897.141973,347.453712L895.394350,345.965202L894.364587,345.816921L893.850430,346.562761L893.529607,347.697619L890.713112,347.442725L887.467699,347.359228L884.464794,346.128866L881.693207,344.691199L878.413614,344.214620L874.059871,341.403245L867.530790,338.959866L861.951530,341.946515L860.485967,342.147376L860.116861,342.441548L860.884262,342.947607L861.664001,343.707339L860.093268,346.579238L856.537385,349.823930L857.021555,351.062633L857.572310,352.017890L856.212790,354.231071L850.840714,354.913919L847.746418,354.609327L843.937428,353.193135L841.131108,351.483637L839.778130,350.266851L838.233998,346.600110L837.446352,343.287936L838.029504,342.845513L838.651487,341.953101L837.836733,340.877594L836.981927,340.249963L836.607487,339.516010L835.520276,337.386169L832.548950,334.271332L829.167668,332.389692L826.757441,332.396262L824.822856,333.101485L814.349416,331.117603L808.564988,328.243589L805.431441,325.724134L801.627646,321.232079L800.883874,319.751398L800.379729,316.150650L800.521372,309.883907L801.396951,308.622519L804.192277,307.834445L806.453842,308.537950L810.494016,311.381727L813.111977,310.249573L815.288200,308.942396L817.736832,309.305712L818.952691,309.047588L820.563299,309.174476L821.561974,308.815523L822.285789,307.931988L823.656330,303.814871L822.692132,300.433717L822.713910,298.209021L822.975115,296.204882L824.950880,292.899254L828.692150,291.035333L835.633947,286.290593L837.312826,285.697550L838.533622,277.882614L839.118710,276.573614L840.185610,275.836696L840.880172,274.402012L841.310948,272.394196L842.213233,271.099978L848.969774,271.595525L850.479748,272.354996L852.783692,272.295667L853.091835,271.650595L852.791353,269.642710L853.194925,269.517886L855.150035,272.383602L861.967472,275.726292L863.633424,277.585022L866.057067,278.910789L866.332779,279.818299L866.431007,282.089904L866.636938,282.915026L865.403880,287.780150L864.356112,289.741509L864.199424,291.846269L860.263415,294.171170L860.475020,296.152149L861.959347,297.687542L862.525169,298.709115L861.646344,298.683244L860.715325,299.100464L859.042567,300.792028L859.656294,301.350159L860.627313,302.837630L860.916385,304.330742L862.449170,304.507061L865.300853,304.550332L869.945976,303.974915L870.696567,304.291803L870.023357,305.155158L869.189092,306.902633L869.044399,307.980761L871.181884,310.456850L865.228437,313.758842L864.015540,314.061068L862.813849,314.637375L864.215644,317.033425L865.829833,318.854495L866.499416,318.589740L866.777018,318.066856L867.860292,317.146654L871.189188,316.643698L873.228287,315.878595L873.316841,315.283460L871.968855,313.879510L872.256324,312.798101L873.411697,312.659026L874.697270,313.065411L875.713300,312.952398L876.340579,312.061549L877.241435,311.691202L877.987764,310.787888L878.688086,309.496616L879.324846,306.934047L880.238108,304.743983L886.782803,299.551229L888.751691,299.129577L889.443831,297.946104L892.800914,297.657379L893.117104,296.768919L894.142718,295.974592L896.643713,295.865916L898.072108,295.463560L898.010468,294.259300L898.266875,293.362127L900.898586,294.664552L906.913063,294.255001L908.886377,292.425797L909.380683,290.505597L909.683967,290.670687L908.984158,288.472524L909.797011,286.776963L912.371338,283.767270L912.695194,282.358499L913.919535,280.698646L914.888921,280.734850L915.792054,280.591104L915.702499,279.869382L915.624900,279.302242L916.192191,278.788479L917.728181,277.875173L919.384794,276.673452L921.041902,276.341035L922.319560,274.544153L922.807827,273.754042L923.726563,273.754042L923.777665,273.386154L923.791256,272.457767L924.175189,271.849705L925.108846,271.734261L926.496307,271.295851L928.392739,271.026928L928.954083,269.522117L928.831116,268.447700L929.094182,267.266125L930.328184,265.978632L930.608259,264.079025L930.932429,262.013626L931.269363,261.355106L931.889913,261.221320L931.865085,260.446153L931.097699,258.256930L930.567110,256.129700L930.402837,255.126154L931.481846,254.030601L931.616161,253.500327L931.896638,253.321843L932.774423,253.464629L933.467993,252.824255L934.061131,252.113728L935.118434,252.362443L936.388175,252.952317L938.035296,254.128267L939.002460,255.065219L940.220175,255.848035L941.020854,256.986460L942.073614,257.485941L943.841880,257.734144L946.955021,258.510476L948.706283,258.554666L950.024426,259.136573L952.269142,259.454423L956.131867,258.998711L957.972005,259.267075L959.088804,259.979711L960.459413,260.548299L961.160137,260.580945L961.508864,259.604943L961.571611,258.020242L961.515446,256.808775L960.929998,255.848035L959.771069,254.816241L957.856589,253.855231L956.104903,252.369789L954.359162,250.834837L953.567238,250.336662L952.719313,249.591139L951.977072,248.450687L951.819391,247.680506L953.561673,247.162971L956.013134,246.862339L958.327207,247.181827L961.750774,246.964990L963.675829,246.539742L965.328179,246.600488L966.811044,246.592109L967.084943,245.936533L968.222786,244.358885L968.893521,243.798986L969.354598,242.728632L968.863142,241.612589L968.543487,240.710173L968.581534,239.743164L968.951156,238.550673L969.547189,238.002099L970.616652,238.073148L972.033859,238.620687L973.054516,239.169345L973.737779,239.010488L973.818102,238.073148L974.136299,237.893437L975.328134,237.810898L975.369403,237.236303L974.175471,234.481361L973.332175,232.308164L972.508095,230.788901L972.074936,228.275012L971.492932,226.761901L971.718086,226.056022L972.511427,226.109195L973.417207,226.553363L974.380328,226.815079L975.296947,226.567960L976.282463,226.955846L977.250465,227.768174L979.171394,228.327157L979.573684,228.737037L981.209280,231.467094L982.859149,232.746489L984.720803,233.903005L986.951077,234.954328L987.947768,235.193438L988.915057,235.944262L989.519387,235.261310L988.648882,234.065857L986.988549,232.974015L985.399014,232.733965L984.869027,232.428178L984.599757,231.846917L984.723415,231.240673L985.126207,230.734649L986.193113,230.039848L988.448015,229.522448L989.604315,229.073928L990.674480,228.935206L992.143637,229.182405L992.840851,228.512800L993.703828,228.103976L993.253853,226.949589L992.217473,225.203206L992.298793,224.683007L992.302203,223.932469L992.418142,222.980822L991.521540,220.513974L990.940239,218.809192L990.717234,217.946434L990.060814,216.773207L989.263261,216.005314L988.362950,215.548960L987.687774,215.225971L986.821343,213.913181L985.758037,212.125269L984.868426,210.976011L981.532407,204.611637L981.341476,203.145907L973.661575,194.651153L971.254776,191.946544L969.920061,190.576912L967.647174,188.574404L966.375209,187.573810L966.010889,186.623151L966.300627,185.669101L966.874285,185.216045L969.283819,184.998390L969.770593,184.656181L972.238026,183.629345L972.548244,183.005624L973.172192,181.493280L973.058432,180.357521L972.808150,178.880675L973.832143,178.080673L973.887772,176.735049L974.582948,176.271359L976.322101,177.412643L977.926666,178.051312L979.746139,178.438232L982.052424,178.925754L985.828074,179.855527L989.596372,180.653023L992.039660,181.277474L993.228159,181.559277L995.518952,181.976175L996.605180,182.299811L997.656262,182.645406L998.358375,181.688123L999.354478,180.483269L997.811021,178.556712L996.687372,176.387811L995.525492,172.660603L996.229044,171.575678L996.861708,171.407609L997.392807,170.995812L998.347101,170.297136L998.200257,169.295674L997.153024,168.136295L996.875008,167.003956L996.283838,165.867131L995.811356,164.394428L996.205150,163.985148L996.875101,163.500072L997.073061,162.747638L996.969391,161.589836L996.547919,160.281219L995.368151,158.769034L995.569965,157.772631L996.457903,156.945682L996.617569,156.438925L995.974547,155.115477L995.683676,154.533751L995.630748,153.866602L994.440747,152.493111L993.107842,151.012872L993.027274,148.526218L992.728259,146.389121L990.906069,143.256504L990.688981,142.741529L990.129403,141.254529L989.991981,140.663484L989.541646,138.699149L989.806440,137.421842L988.616950,135.991374L987.219543,134.596716L986.663597,133.657053L986.915502,132.566379L987.147896,132.023671L987.151084,131.248666L987.755035,130.904451L988.368569,130.715449L989.974291,130.517999L990.422773,129.700743L990.785844,128.863421L991.004944,126.679840L990.675565,125.390617L990.631719,124.721204L988.426685,122.861894L986.508206,121.286687L983.985152,119.104584L982.841827,118.081707L982.610995,116.776019L982.769915,115.970707L982.649552,115.254091L981.986042,114.019365L981.062066,113.080212L978.294348,111.614654L975.945458,110.888807L973.664524,110.596584L972.882411,110.497420L971.587680,110.789640L966.653063,112.651814L964.721167,114.078460L964.147813,115.693132L962.882530,116.467821L959.948452,116.373885L957.190056,116.284172L955.675852,117.176053L954.484423,119.020133L953.269119,119.863596L952.035778,119.708413L951.670315,120.944630L952.167326,123.573510L951.478011,124.730706L949.612595,124.417120L945.817646,124.666299L940.090569,125.476142L936.136072,125.443410L933.955547,124.565994L931.386454,124.453018L928.426430,125.105535L926.466055,125.239629L925.505197,124.853185L924.273866,123.761446L922.770217,121.964480L920.365392,120.093734L917.065968,118.152430L915.132879,115.809227L914.562520,113.065439L913.578626,111.187369L912.188599,110.173562L911.286196,109.267450L909.002438,108.122015L906.594422,106.151085L905.410756,105.550094L904.490678,103.873896L903.988676,101.865081L901.582827,99.966432L898.127096,99.854765L895.030648,99.309098L891.116874,97.570247L883.556988,92.685216L880.291722,90.969567L878.812258,90.793934L877.276927,90.002092L875.687701,88.594362L874.701073,88.580697L873.747274,88.580697L873.566756,89.164130L873.009726,89.347059L871.591512,88.813010L870.473578,88.754142L869.657194,89.170437L868.532433,88.899210L867.100160,87.939535L865.258509,87.300570L863.012383,86.981122L861.713305,86.314984L861.355943,85.301272L860.453231,84.546140L858.998167,84.047348L856.075611,84.174403L851.679189,84.926314L847.502942,84.725721L843.551199,83.574866L841.058191,82.512516L840.022470,81.540702L838.462054,80.606906L836.377344,79.713203L834.477161,78.174919L832.759852,75.993967L831.640264,73.921016L830.865057,70.978048L826.196569,69.058983L824.423691,67.955105L823.992336,67.025034L823.287330,66.287431L822.308554,65.743213L821.718147,64.873273L821.512896,63.677862L820.405660,62.155237L818.390023,60.304795L814.666672,57.711274L809.230317,54.374271L805.832397,51.939168L804.475576,50.401979L803.165425,49.171052L802.113807,48.505866L800.923669,47.367029L800.221224,46.106011L799.276081,45.296039L798.280010,44.535044L797.428178,43.310319L796.283443,42.472976L794.851295,42.021702L793.814279,41.095472L792.532957,39.118315L790.494958,37.457187L785.786820,34.391864L783.383122,32.156645L781.641681,30.140950L779.877795,29.155742L779.152112,28.277239L777.853652,26.753276L776.914355,26.335974L776.135412,25.798923L775.934137,25.156630L774.842055,24.358565L772.857096,23.405861L771.646332,22.581345L770.930878,21.835412L769.855038,21.254658L767.579156,20.690495L766.482258,19.911944L766.067678,19.219118L765.966584,18.575894L765.881866,18.185271L765.423776,17.681335L764.907024,17.183648L763.714499,16.584038L762.137292,15.891822L759.820788,14.397602L758.029494,13.992997L757.122623,13.992997L755.680929,13.147891L755.504480,12.610662L754.666980,11.611533L753.326796,10.798840L752.199196,10.478953L751.533021,10.686722L748.894373,9.925642L744.288534,8.197315L741.176063,7.400755L739.558107,7.534360L738.899055,8.053408L739.195873,8.957026L737.973120,8.870664L733.863560,7.253795L730.676333,6.854050L728.400914,5.984823L725.972577,4.513950L724.312912,3.898853L723.415643,4.139129L720.012582,3.152446L714.099555,0.937672L711.322118,0.190799L710.854259,0.608333L710.444966,0.612437L709.648703,0.549855L708.547664,0.522155L706.253942,0.000000Z "/></g></svg>