<?xml version="1.0" encoding="utf-8"?><!DOCTYPE svg  PUBLIC '-//W3C//DTD SVG 1.1//EN'  'http://www.w3.org/Graphics/SVG/1.1/DTD/svg11.dtd'><svg enable_background="new 0 0 1000 1186" height="1186px" pretty_print="False" style="stroke-linejoin: round; stroke:#000; fill: none;" version="1.1" viewBox="0 0 1000 1186" width="1000px" xmlns="http://www.w3.org/2000/svg" xmlns:xlink="http://www.w3.org/1999/xlink"><defs><style type="text/css"><![CDATA[path { fill-rule: evenodd; }]]></style></defs><metadata><views><view h="1186.18006457" padding="0" w="1000"><proj flip="auto" id="robinson" lon0="-5.69727567671"/><bbox h="106.86" w="90.16" x="-127.16" y="-179.83"/></view></views></metadata><g class="" fill="#000" id="country"><path d="M903.637719,1039.799011L882.634207,1036.287639L877.463557,1042.448418L899.154049,1047.166539L903.637719,1039.799011Z M172.455335,1184.180065L191.963673,1179.588982L223.942539,1159.155939L252.409549,1148.240772L274.601483,1130.847274L287.362831,1124.686508L336.054225,1107.909987L415.934411,1072.406174L440.213316,1061.611248L497.458195,1047.021366L579.909383,1039.363492L572.863493,1033.511206L546.492364,1033.964871L529.810102,1035.625287L535.085861,1027.967412L543.792861,1024.573993L586.189389,1025.807963L594.946190,1036.187833L606.482979,1037.938982L645.535214,1031.578590L747.880647,1020.881154L743.815968,1015.954345L735.110708,1015.028867L654.186073,1019.810503L663.389542,1011.635447L695.447601,1007.634116L734.310595,1006.091652L756.592112,1009.167506L775.183229,1022.632304L860.885274,1039.363492L866.719613,1033.765258L878.962209,1001.319088L885.137054,997.771422L893.089736,998.923733L890.219416,1025.916843L907.374444,1034.336877L913.615101,1035.670654L914.714746,1039.336272L926.316538,1041.559233L935.111099,1035.951927L948.069049,1035.207915L951.429439,1029.355629L952.519821,1014.566128L952.382371,1002.652866L956.926240,997.317756L958.079742,983.272262L951.781285,952.132635L947.273096,948.584967L924.163532,944.157187L922.443675,937.978257L918.276110,931.463613L913.874052,915.403836L908.851798,891.522855L900.799440,861.907536L885.308607,813.111219L881.497003,795.862839L878.862208,778.287822L878.304818,757.283095L881.556337,749.461897L881.078470,738.619287L879.681135,727.822044L890.676665,702.970245L912.209103,672.565592L916.735785,661.568747L920.737228,653.929026L921.322448,643.013845L925.185171,607.537254L935.525732,564.711331L942.009452,548.533669L946.402883,539.805175L951.660197,525.505692L953.045457,518.827763L972.855972,502.051287L981.939527,497.505580L983.979131,490.900243L980.882471,483.677925L982.240360,478.760217L986.981777,476.301363L994.262962,474.287100L999.578123,467.391423L991.312534,414.566968L984.673740,361.915012L984.289924,357.441915L980.293513,350.165194L976.354325,328.425780L969.725659,315.696074L960.406856,311.976061L960.468635,299.990367L969.901957,279.739006L972.374275,267.844063L967.870579,264.305522L967.241047,255.069028L970.477466,240.134589L968.906303,230.916253L965.409954,235.416542L957.321100,241.441125L949.124235,241.232442L939.605843,227.277915L935.412359,221.017434L927.715911,206.872386L921.185933,192.636618L912.317571,186.403369L903.640288,180.605633L893.076257,162.568245L882.827302,153.966922L872.010242,156.425738L856.236369,153.068683L824.404969,148.604707L790.173335,149.929382L775.943817,154.066726L761.898351,160.626596L726.284510,175.098239L712.202830,182.247871L701.518046,200.376011L689.429124,199.949573L677.341351,194.142760L669.794638,185.922493L653.573491,187.764340L637.919829,179.779978L622.828834,164.056238L611.692274,158.893629L597.482930,147.534079L593.620747,125.906825L584.646849,110.700343L576.470850,89.650817L564.184355,80.169465L549.991069,75.142989L530.390026,76.195464L517.520172,67.730300L507.403498,55.381871L502.015373,52.796051L479.520255,54.048132L455.056177,62.159443L446.477411,68.628532L444.579418,77.456619L439.144849,83.426695L431.274036,90.113544L423.738871,98.342817L410.248268,97.027222L397.256465,91.410992L390.502227,85.930860L390.039057,82.664557L394.376001,74.643971L398.070210,65.897542L398.416388,60.163371L394.057618,46.045701L390.542573,30.839272L392.061397,23.517324L388.973957,1.143203L387.201634,0.000000L370.110083,5.806746L363.811930,7.240286L360.251246,9.717226L359.129220,13.999702L363.156399,28.189942L360.464779,30.648738L350.881750,30.258597L337.517063,25.576905L322.960624,12.566161L319.310572,16.776053L317.661585,27.137469L316.640823,39.404228L320.226599,61.669498L316.278073,69.608423L306.491277,68.183953L293.355285,68.211172L281.882663,70.424998L274.279125,70.933089L269.475468,78.881090L267.426621,87.745474L271.937390,97.616971L271.205631,101.799657L267.707767,105.619421L263.180719,107.923982L259.480828,107.642716L248.897414,96.727810L236.268630,92.608637L206.758310,86.348221L203.268948,71.341377L198.412951,71.123623L191.638776,63.202844L184.935313,52.823270L179.237921,53.376726L174.436057,56.271030L158.269179,55.118752L143.812159,70.942162L133.056303,90.585343L121.586079,100.030408L109.005961,104.167729L104.154893,104.349190L100.372394,111.262873L89.801609,122.077984L80.146371,130.443367L77.060406,139.522516L78.483417,156.516470L78.227003,194.968416L79.521255,228.248743L87.347074,240.334198L96.739559,246.467661L107.912593,245.315368L118.796066,243.083368L118.065712,262.998985L114.992577,285.328089L127.817479,292.187421L134.256642,298.983243L137.792468,305.334480L117.435479,317.184079L111.498891,324.116007L108.655328,342.761451L109.221641,359.973343L136.463100,372.276632L146.933868,386.693990L151.541405,401.655751L153.003662,429.927968L150.536774,436.388120L143.523039,436.451632L135.640645,427.768536L129.762908,419.275980L122.374385,419.303200L108.581443,417.406893L92.894591,414.140526L73.481087,415.002484L66.572998,416.381616L62.129763,421.507998L60.910353,430.381630L58.808654,459.034954L65.152133,465.359014L77.635756,472.463375L85.817769,475.493843L92.684551,474.640957L97.871272,479.250173L98.938746,491.589811L95.316220,500.654003L88.388844,509.073997L79.608518,530.759118L81.048584,538.879701L81.385143,550.638670L66.421391,582.322579L62.148731,588.546855L42.557101,582.259066L29.763629,580.163137L20.486268,588.220217L23.609125,590.352440L28.513546,596.041393L33.074372,615.476387L51.143967,678.245481L50.132535,695.539205L46.453220,706.862695L46.309155,717.941207L45.038583,728.874548L33.718801,746.794343L0.421877,783.459613L2.975247,786.671568L10.874951,790.845294L18.927323,793.013817L25.554114,791.879652L33.801391,801.043704L42.671561,812.548673L52.108925,818.537064L65.724772,823.799589L77.655969,824.389355L87.829835,822.375078L102.129941,824.652481L117.322238,834.179467L122.685502,849.921679L126.281556,863.631467L131.551220,870.590704L132.227359,882.449534L143.029079,892.865707L158.461474,894.970717L178.442673,907.174334L183.541104,906.530128L185.738485,905.005810L188.194558,907.310434L193.097976,942.614723L196.939665,961.332980L194.858050,968.891054L192.141652,974.843151L191.895559,1003.342438L182.767077,1019.710697L181.244116,1037.666783L178.664261,1043.482775L168.955457,1048.654562L168.838756,1062.445992L166.207925,1079.111343L165.142997,1096.804273L167.712009,1143.114363L168.111512,1177.656372L172.455335,1184.180065Z "/></g></svg>