<?xml version="1.0" encoding="utf-8"?><!DOCTYPE svg  PUBLIC '-//W3C//DTD SVG 1.1//EN'  'http://www.w3.org/Graphics/SVG/1.1/DTD/svg11.dtd'><svg enable_background="new 0 0 1000 1555" height="1555px" pretty_print="False" style="stroke-linejoin: round; stroke:#000; fill: none;" version="1.1" viewBox="0 0 1000 1555" width="1000px" xmlns="http://www.w3.org/2000/svg" xmlns:xlink="http://www.w3.org/1999/xlink"><defs><style type="text/css"><![CDATA[path { fill-rule: evenodd; }]]></style></defs><metadata><views><view h="1555.1882298" padding="0" w="1000"><proj flip="auto" id="robinson" lon0="-72.5844187344"/><bbox h="279.54" w="179.86" x="-1170.37" y="-208.51"/></view></views></metadata><g class="" fill="#000" id="country"><path d="M76.862546,921.702723L76.538523,915.938657L75.077171,913.090745L71.747480,911.957949L69.065952,915.420028L70.417334,920.069495L74.590149,923.759043L76.862546,921.702723Z M750.843280,1553.188230L752.211488,1549.894467L754.762142,1530.887099L759.005297,1499.514496L762.900222,1471.071720L767.260091,1439.589973L771.826572,1407.070985L776.516579,1374.142570L780.420956,1347.119263L783.817761,1323.890145L785.918964,1309.641500L789.290593,1290.979964L790.517761,1274.584019L791.921747,1269.852670L790.963738,1265.876517L787.809982,1260.226195L787.820268,1257.742237L788.153713,1254.448491L787.768148,1251.573287L784.476313,1248.497911L781.922023,1246.641766L779.904335,1243.975834L778.968648,1240.272644L777.310828,1236.578553L776.556922,1232.675192L774.177956,1229.590717L773.430363,1225.687355L775.040162,1221.993265L775.745831,1218.089903L774.999094,1214.386714L774.069830,1210.073909L772.234879,1205.970376L769.467511,1203.468221L762.873822,1200.684005L756.227312,1194.051021L748.405070,1188.100442L738.397369,1176.799803L736.211388,1171.458840L736.167452,1156.791666L736.611986,1140.877963L737.321272,1116.839082L737.704487,1104.610370L743.341944,1103.937063L748.310628,1103.604958L753.502942,1102.758775L758.028173,1101.921691L762.184583,1100.161084L765.310779,1097.977385L769.027845,1096.553431L771.914402,1097.058412L774.814652,1095.129478L778.016124,1093.282432L781.135480,1091.772041L785.664010,1090.511865L789.869973,1093.450759L792.224152,1096.385104L794.960954,1097.813607L797.554801,1097.476954L799.333645,1097.731719L801.173617,1100.079195L803.543714,1100.247522L806.953704,1099.828979L810.143143,1099.323999L811.629591,1098.655241L811.862884,1097.140300L811.061716,1094.542609L809.962806,1092.104145L810.873931,1088.332715L810.979528,1083.801540L811.168069,1078.014738L808.671626,1074.825627L806.198243,1068.784060L803.420736,1063.916231L799.076282,1060.645231L795.008460,1059.385055L791.583501,1061.400427L788.394062,1061.732531L786.038997,1059.890035L782.186044,1059.808146L778.040124,1059.221277L773.658111,1058.525223L765.738348,1059.844541L762.927708,1058.211316L759.075543,1058.042990L754.615726,1059.803597L754.952257,1036.579044L755.310913,1014.673805L755.580378,999.315113L759.577808,999.647217L764.581233,996.881197L771.955907,996.453556L777.657023,993.537405L780.814265,993.305387L786.781323,994.733891L792.980583,997.727381L799.114312,998.150473L815.198173,998.145923L832.567834,998.136825L851.882175,998.127726L871.220623,998.118627L887.999644,998.109528L893.180506,998.282405L890.227096,993.182554L886.806511,986.572310L888.238368,981.367823L890.050276,976.126941L892.111763,973.388216L897.295695,976.299817L901.546886,985.212047L905.090198,991.926926L908.593470,995.234323L912.992069,995.611921L918.001376,994.483676L923.012517,991.735852L931.678079,979.434338L940.278369,968.911629L944.707279,965.376762L949.397719,962.123957L952.863954,960.891076L957.574117,961.305069L961.519159,964.180276L964.022469,969.189141L973.216972,986.636002L980.165444,999.792797L982.457190,1007.995322L982.378923,1028.026220L981.757109,1045.782427L982.671910,1048.075312L984.068253,1048.730422L999.678289,1044.567745L998.135731,1038.339652L999.109005,1031.970528L995.372161,1022.676155L993.244116,1012.781265L991.376480,1009.373782L990.925810,1001.976498L986.512499,988.651375L982.908611,977.737421L979.542200,972.191730L981.063070,967.464927L979.684636,962.742673L976.944135,958.893899L973.049216,946.510490L974.588244,941.174069L973.590285,935.828548L970.206720,932.166297L965.378689,928.231084L958.998092,920.010353L951.340775,912.208165L947.405830,909.123684L944.709612,907.895351L942.493527,900.498056L940.725964,898.237013L936.745325,897.622847L928.644057,894.538365L920.951488,898.237013L920.888419,892.486594L923.135426,888.992667L950.022885,861.559880L963.559809,848.944433L965.026805,847.083733L966.252618,844.163027L967.248014,840.259653L964.341510,835.796703L952.420372,814.614749L948.203440,810.634032L944.054140,807.376668L939.413692,798.482609L934.121868,777.773772L930.208132,767.364757L929.149356,759.385117L929.654635,750.363663L928.287930,743.434931L925.051401,738.608019L925.458839,723.831569L929.524989,699.110117L930.900386,680.317669L929.578127,667.465584L932.867769,657.679799L940.777507,650.969415L945.393502,640.601302L946.724221,626.570909L951.697561,615.042693L960.305961,606.016654L963.425507,597.113449L961.060970,588.333079L960.389722,582.696354L953.506551,576.964092L940.572952,572.942409L929.743975,572.482918L923.051057,576.950443L906.142242,581.090411L879.016572,584.907369L857.275239,584.884622L840.915560,581.026719L828.327331,582.314203L819.522305,588.747076L813.425705,590.202888L810.037587,586.672542L806.271719,585.703517L800.441645,587.941829L799.480949,586.922760L787.289820,569.539447L776.007284,553.429973L763.115018,534.249651L748.249580,512.103121L745.497091,510.642760L740.652992,510.788342L734.236685,511.170492L724.355572,508.873040L717.648069,505.656609L712.436635,502.544814L702.771208,498.609576L696.058348,497.931715L689.977672,499.091813L673.054333,506.839455L663.558593,507.558261L656.229199,507.699293L636.726805,503.864142L623.304703,503.254521L607.578828,505.779443L600.841477,507.221605L591.634929,503.281818L585.490623,497.294798L580.098991,483.055157L576.353638,471.822680L569.169388,469.561627L561.178226,467.646329L557.359351,463.938567L555.239929,457.473869L555.004648,449.184864L556.386719,435.700454L557.353794,430.864448L559.077951,416.306395L563.861766,408.704367L566.816639,405.014815L566.543643,398.914089L564.943716,386.403287L563.184667,377.559294L554.679429,367.523370L543.806965,354.675943L539.834086,334.112810L535.185905,309.823794L530.736929,307.385342L526.386366,308.604568L521.878300,307.385342L518.330305,297.622440L514.394019,295.793603L507.804461,299.219261L503.045650,301.889728L491.157055,304.332728L488.859672,301.889728L489.818882,298.841665L495.235178,289.974992L501.656182,278.647135L508.985754,268.301948L515.856601,257.720207L521.156630,246.451532L525.554384,224.038582L528.604819,208.570986L535.952302,181.038722L547.865044,159.056621L552.469643,148.934489L562.887292,135.768897L567.751596,128.617443L573.973761,122.994544L590.605410,115.338120L612.247044,77.556396L617.057044,71.551347L636.930359,65.919336L652.208704,61.520179L663.614488,56.911754L667.419453,54.468787L670.422541,53.336014L673.664291,48.081586L686.440623,36.153340L685.704105,25.175882L678.001192,9.230561L659.651837,0.195621L651.208125,0.000000L641.547097,1.342049L624.129042,11.673541L622.892835,15.358482L619.521409,18.270038L612.576559,18.256391L605.673037,22.901231L602.472729,34.861340L592.460490,50.788413L577.862729,58.945284L554.855861,67.288670L504.024893,106.084901L474.137696,108.345889L464.440408,107.954652L455.314754,104.861146L443.261152,101.904119L436.289674,103.746575L431.282445,108.882703L428.809558,123.827060L421.328389,138.089025L416.442028,150.995309L412.024412,155.512737L407.284070,153.479212L403.118602,146.450586L405.484567,139.744960L412.439539,136.696948L417.161936,136.000910L419.100745,133.949188L408.905974,134.658875L377.645960,123.417626L371.044175,128.276247L353.489686,145.713604L342.775152,153.834055L339.788074,159.056621L325.603325,169.892993L321.316331,177.649510L315.244890,196.274265L304.947521,208.516395L301.600710,213.447825L307.171722,210.768293L314.374591,204.781429L315.833030,207.692973L310.719934,215.085570L310.291295,227.485434L305.838972,242.247960L301.794003,251.983508L305.094846,258.689214L307.104929,269.807777L303.744494,278.010228L294.050060,281.253906L281.874072,279.829963L271.539562,285.898782L262.182343,295.229484L249.282820,320.992458L214.100719,348.420562L204.597251,353.456712L197.471224,355.394744L194.599938,359.693899L198.283041,365.376065L202.466312,369.852650L205.604390,384.215035L206.720629,412.948946L202.794401,419.522814L196.146778,420.792094L193.796902,418.790362L191.639141,415.646734L192.915255,410.037338L196.577075,407.307705L198.109528,404.719105L195.061070,401.225176L191.460541,399.469114L187.277386,389.824421L176.629689,375.825981L166.263118,367.150321L160.137736,353.825211L157.769523,351.814390L156.161578,353.083664L151.270038,360.426348L148.490740,366.709032L154.015195,373.342021L155.433920,380.384457L158.385096,388.036514L163.185066,395.720421L168.295537,409.991844L169.372972,415.714975L167.565828,419.436376L161.966469,421.706522L156.526013,428.380480L154.756371,436.528444L155.559863,440.554659L139.601643,453.561386L135.544227,455.722350L133.002563,453.720615L130.006545,447.192228L126.320281,441.919478L124.294082,440.081522L123.075784,439.995083L121.791719,441.209772L121.103814,444.075891L122.607492,456.291025L120.684698,461.254420L115.298116,465.062269L108.469536,484.952259L116.110235,493.532438L125.507879,510.010393L128.046713,518.467745L131.513403,521.479454L137.231711,534.913865L144.374415,535.173181L149.708509,545.864300L150.185012,552.488245L146.215749,573.870490L142.767277,574.175301L140.109236,572.878718L140.024438,583.023912L149.646950,599.924988L156.760000,619.974259L150.223857,629.714555L132.531118,642.621242L143.041248,653.890138L145.086160,662.479428L145.902234,672.615517L144.848108,685.531292L146.363901,707.708489L148.907017,712.726480L150.380693,718.590659L147.755413,730.505539L146.205563,741.578776L143.913933,748.725880L138.775775,753.448155L136.046582,757.788279L130.192063,761.955526L129.644767,766.009037L138.947788,762.751670L139.165980,767.128189L136.584086,773.633823L136.904953,780.203149L142.274054,790.985210L149.172953,780.385124L151.562419,782.018357L149.922408,795.784819L154.090386,798.186898L157.810873,798.669134L161.194607,794.588329L165.329177,793.915019L150.837030,824.468726L143.849234,834.773091L140.901921,846.528708L135.901916,847.161073L131.117340,857.224316L126.995560,864.075690L123.607386,871.927929L117.555347,874.239016L112.461564,875.285374L111.787181,878.301616L114.052286,886.522352L114.053593,890.293791L105.087548,898.823883L102.427772,902.636266L101.904055,905.434136L96.910569,904.547006L94.694096,907.067364L91.962627,913.550232L87.324075,919.164168L83.738326,921.579890L80.671737,924.741709L76.240723,926.693393L61.793958,924.614326L57.853592,929.268342L51.807512,927.130134L48.198451,928.381213L42.000117,932.703124L37.186823,938.949422L35.010579,943.594339L33.624397,966.937199L39.844145,979.293308L37.441061,993.255344L19.773000,986.272051L6.078241,995.266168L0.321711,1007.240125L11.461548,1016.520851L13.746405,1022.921821L16.256702,1024.850756L23.717401,1031.929583L28.197926,1038.940169L35.883037,1043.298469L42.108352,1046.824234L58.372689,1061.054675L69.123093,1068.279079L80.889153,1074.784683L97.909071,1081.617841L108.342116,1080.457751L110.746347,1085.639486L112.729315,1091.098734L116.602293,1094.278745L122.773751,1096.994720L126.449533,1097.850002L127.570517,1099.214814L131.168800,1118.936343L133.331659,1121.820644L141.852101,1124.941514L152.296714,1126.119801L156.546754,1125.437395L165.720488,1130.919388L172.489052,1133.503432L179.955057,1135.436915L185.025337,1136.005586L187.366235,1135.150304L188.219127,1133.166778L192.373519,1133.535277L198.580293,1136.069277L207.500659,1136.583356L213.048129,1134.181288L213.826355,1130.205137L214.226625,1123.221851L216.309242,1120.787937L222.674975,1116.734447L225.998915,1117.580630L242.648265,1126.324523L246.074876,1129.349855L250.282434,1135.436915L258.089843,1144.453770L266.570812,1150.204175L279.682126,1152.660836L292.303839,1162.100782L307.081025,1168.447156L312.003743,1162.410140L315.339284,1162.410140L319.101166,1163.224477L325.994123,1169.393425L330.089853,1173.042021L335.005579,1176.053706L339.657128,1177.100061L343.881480,1177.464011L346.822612,1177.163752L348.583345,1181.303681L350.661668,1186.344385L355.916070,1189.756414L362.123420,1192.995566L367.187345,1198.573096L370.594528,1202.321779L374.621071,1206.752868L378.544374,1212.621558L382.139903,1222.939534L383.977916,1229.945568L386.022569,1233.839831L385.573548,1237.797785L389.789123,1244.967597L392.908628,1248.952848L398.331291,1251.482299L408.756511,1254.357503L414.377984,1260.835811L419.328821,1263.356164L424.643553,1270.016447L429.273166,1271.999974L435.148266,1271.645123L441.061139,1274.875179L445.578258,1281.171512L448.530434,1289.087424L453.036718,1293.591305L455.364173,1301.689192L452.946743,1311.215584L455.399091,1316.265391L460.066113,1320.396224L467.598017,1324.727231L474.416669,1323.644479L477.933171,1325.082082L480.213626,1329.049138L481.557701,1333.716798L484.722549,1345.172130L486.379833,1352.414739L483.726160,1359.429880L482.785659,1364.279517L484.395370,1370.785128L491.554848,1373.933299L498.061778,1376.517346L502.148351,1381.576256L506.612538,1382.922873L512.854065,1382.640811L520.817311,1381.403380L525.206849,1378.500876L528.055182,1377.627395L531.255857,1378.883023L538.385614,1381.667244L547.089461,1384.824513L554.860838,1382.995663L561.614712,1382.176774L568.297550,1380.329726L575.032152,1375.107039L580.756094,1375.289014L584.955546,1371.758696L590.219406,1366.081071L595.432679,1360.357953L599.541387,1359.093226L606.256645,1361.831951L615.539684,1365.753516L620.843262,1370.876116L624.868394,1372.231831L629.088983,1375.989618L637.060639,1376.062408L645.557411,1374.033385L652.276899,1367.727946L659.328246,1365.899096L664.131199,1364.133937L668.593041,1365.225788L686.003317,1376.726618L690.830116,1382.668107L696.784692,1383.832748L701.704853,1387.081006L709.880194,1390.584028L714.394268,1394.178039L720.155394,1396.343544L724.380796,1401.375159L730.996369,1404.477837L736.697502,1406.188405L739.335597,1410.237354L739.413374,1412.948786L738.662175,1414.759440L732.868764,1425.368600L721.543145,1446.168382L711.364870,1464.893653L695.397040,1494.364587L686.482169,1510.851576L688.876841,1511.543084L703.576841,1518.758418L707.189479,1519.031382L712.466305,1517.193428L715.837769,1514.318212L719.091712,1513.908767L722.539612,1516.692995L727.413695,1520.277915L731.130701,1530.750617L733.803213,1535.882333L739.888993,1539.794811L746.442145,1546.300445L750.843280,1553.188230Z "/></g></svg>