<?xml version="1.0" encoding="utf-8"?><!DOCTYPE svg  PUBLIC '-//W3C//DTD SVG 1.1//EN'  'http://www.w3.org/Graphics/SVG/1.1/DTD/svg11.dtd'><svg enable_background="new 0 0 1000 1038" height="1038px" pretty_print="False" style="stroke-linejoin: round; stroke:#000; fill: none;" version="1.1" viewBox="0 0 1000 1038" width="1000px" xmlns="http://www.w3.org/2000/svg" xmlns:xlink="http://www.w3.org/1999/xlink"><defs><style type="text/css"><![CDATA[path { fill-rule: evenodd; }]]></style></defs><metadata><views><view h="1038.44252287" padding="0" w="1000"><proj flip="auto" id="robinson" lon0="-25.1735202223"/><bbox h="39.84" w="38.4" x="-370.49" y="-288.32"/></view></views></metadata><g class="" fill="#000" id="country"><path d="M333.209528,1036.442523L363.407612,1019.825339L369.078748,987.869142L357.361852,948.628465L333.756042,940.426316L292.999240,965.734092L284.661681,987.123496L293.441352,1012.006732L312.659158,1029.199138L333.209528,1036.442523Z M796.543541,897.455475L822.184664,884.417191L822.112589,840.018748L815.701961,818.501215L788.121037,815.965979L773.215934,845.003993L774.799974,852.183596L770.472210,879.410657L785.881637,899.053303L796.543541,897.455475Z M694.971733,953.656272L661.868430,896.368952L645.076273,886.931110L600.446805,838.612653L598.506642,818.863391L583.068215,813.792919L578.540970,821.526454L579.550113,850.862720L567.882330,884.651540L565.813783,923.574608L594.764283,974.000122L620.308722,990.510858L670.785758,993.727786L694.971733,953.656272Z M911.297944,417.291555L910.750496,456.044861L892.963736,501.125688L920.934653,523.985674L945.070551,526.904423L987.867825,501.892659L999.518046,471.384272L996.145512,447.054263L975.196564,424.151677L954.977769,422.404689L942.822849,425.259523L911.297944,417.291555Z M471.070396,249.197686L401.579512,239.440182L361.849970,225.080896L355.489219,230.897045L352.861253,250.987273L379.911752,305.654952L396.140140,269.522284L411.602651,259.274764L467.751894,276.020195L491.289174,271.226654L486.380154,262.044364L471.070396,249.197686Z M928.086248,233.240549L923.140479,201.368926L924.333772,152.666829L913.576253,153.859879L891.066112,167.899532L893.524626,215.003837L901.349612,222.780003L915.245090,255.567762L928.086248,233.240549Z M169.663894,163.851679L168.242256,151.473779L152.398076,118.473202L131.515287,122.350606L100.786922,140.906767L91.487441,157.566857L118.779376,172.970002L138.077443,174.290881L169.663894,163.851679Z M89.135211,0.000000L2.525538,44.781478L0.481954,54.943620L7.155912,77.781846L11.138575,112.486664L26.612806,116.811458L63.981995,107.842305L123.624238,62.975341L138.530729,43.162353L118.847162,7.499072L89.135211,0.000000Z "/></g></svg>