<?xml version="1.0" encoding="utf-8"?><!DOCTYPE svg  PUBLIC '-//W3C//DTD SVG 1.1//EN'  'http://www.w3.org/Graphics/SVG/1.1/DTD/svg11.dtd'><svg enable_background="new 0 0 1000 1092" height="1092px" pretty_print="False" style="stroke-linejoin: round; stroke:#000; fill: none;" version="1.1" viewBox="0 0 1000 1092" width="1000px" xmlns="http://www.w3.org/2000/svg" xmlns:xlink="http://www.w3.org/1999/xlink"><defs><style type="text/css"><![CDATA[path { fill-rule: evenodd; }]]></style></defs><metadata><views><view h="1092.89923265" padding="0" w="1000"><proj flip="auto" id="robinson" lon0="-83.6483863302"/><bbox h="52.3" w="47.9" x="-1265.67" y="-187.63"/></view></views></metadata><g class="" fill="#000" id="country"><path d="M874.165977,1090.899233L873.983474,1069.942672L866.072309,1045.792252L856.128486,1025.775080L834.091510,1005.074736L833.259294,997.474364L842.966338,986.970481L886.361749,956.978918L892.194223,944.442587L894.206980,918.345167L891.480309,893.392085L874.535799,856.654203L886.539130,833.921480L909.085295,815.697735L932.000350,801.299786L936.072699,795.185357L932.643595,782.717388L920.480642,769.224659L891.480320,746.287031L873.406789,744.801124L876.307568,678.772256L881.198831,608.712783L886.150327,601.761497L897.493844,597.577063L906.971932,586.919567L913.145599,566.168202L926.792564,558.824101L949.752456,574.810333L973.339461,588.883689L983.704721,584.203956L991.716315,577.355151L997.426005,570.574664L999.542082,564.118685L986.009177,550.352767L935.335659,531.633860L926.865415,508.884254L910.389751,496.160194L865.128100,419.098615L836.649198,401.495671L774.278252,305.732869L746.457957,253.077939L713.546934,159.057496L711.455528,130.979477L703.979209,109.118249L697.324795,95.215876L690.223051,123.328047L672.431083,141.158612L641.240787,156.068656L607.828289,158.835468L554.397014,144.728141L532.325615,143.088549L524.152928,135.624988L522.505881,121.773850L508.368803,100.988606L481.766103,73.303415L465.175441,75.199193L438.760237,69.187356L395.501938,50.314972L375.076600,48.009297L344.395196,64.200265L308.569944,85.395404L227.963876,52.296146L171.395719,29.034438L120.531940,8.095485L107.140612,0.000000L95.585021,1.742066L84.887635,12.723916L72.182832,32.176989L68.069032,37.744769L61.660829,43.090521L54.776899,44.542243L54.500975,51.237243L50.460627,71.424716L7.366758,93.798312L0.457918,102.098746L22.401153,118.750852L57.246711,139.519020L70.791750,155.453809L67.953014,178.271474L69.398537,193.779292L55.477266,218.953884L12.448595,276.783752L4.166487,313.896694L16.929044,369.574709L48.589234,430.524622L64.635021,450.165750L158.107609,482.172274L203.447125,548.935186L214.799113,562.325358L226.743244,555.271606L233.469505,532.060843L252.103735,521.232574L290.018817,478.671025L284.640036,456.416754L268.949396,439.320430L209.895278,409.949863L188.569702,378.490030L183.703328,326.279068L191.844459,331.368651L202.238047,347.730472L253.790763,375.569494L344.450695,451.224663L364.207725,489.704230L353.951048,519.968707L356.331697,539.626969L378.481676,567.022168L408.047254,581.778693L486.834916,604.050127L517.302446,633.102073L583.649849,669.139498L629.981647,713.255502L658.417399,753.460376L663.455931,779.882207L661.246778,834.365545L651.072338,860.650791L620.651854,900.685010L658.019807,947.602289L676.173871,959.660396L704.277848,962.239396L727.022986,970.488783L753.131354,973.597248L754.774864,953.375150L753.029550,938.311059L716.897480,899.011224L703.756761,868.370698L728.072300,864.561983L759.598978,883.229813L796.188441,909.873756L804.784953,938.806363L803.969764,992.111405L828.027088,1014.963760L855.173024,1052.043349L874.165977,1090.899233Z "/></g></svg>