<?xml version="1.0" encoding="utf-8"?><!DOCTYPE svg  PUBLIC '-//W3C//DTD SVG 1.1//EN'  'http://www.w3.org/Graphics/SVG/1.1/DTD/svg11.dtd'><svg enable_background="new 0 0 1000 455" height="455px" pretty_print="False" style="stroke-linejoin: round; stroke:#000; fill: none;" version="1.1" viewBox="0 0 1000 455" width="1000px" xmlns="http://www.w3.org/2000/svg" xmlns:xlink="http://www.w3.org/1999/xlink"><defs><style type="text/css"><![CDATA[path { fill-rule: evenodd; }]]></style></defs><metadata><views><view h="455.90658244" padding="0" w="1000"><proj flip="auto" id="robinson" lon0="33.4716326545"/><bbox h="11.26" w="24.75" x="456.48" y="-598.16"/></view></views></metadata><g class="" fill="#000" id="country"><path d="M443.550639,453.906582L468.707677,427.672646L519.905193,438.568248L554.588440,441.910174L581.458429,428.608520L598.807103,426.937309L618.054612,421.154665L638.956766,408.150639L656.254988,390.062084L677.665154,395.646199L715.019117,415.271341L736.184765,409.487905L689.107284,358.021818L671.137796,315.529203L683.295126,254.065090L952.274694,47.112595L998.900873,0.000000L920.162676,22.518182L846.978944,63.282590L804.041309,79.953593L737.255802,129.215096L490.427236,211.459747L408.166098,223.988631L322.844282,220.136328L217.898624,208.679068L113.208823,186.565033L113.201254,263.642117L94.446640,330.487502L35.535806,344.874633L1.099127,337.012178L7.261769,354.609755L45.428069,374.879517L95.450178,392.937781L123.764842,394.007783L158.979090,374.444736L208.267309,354.041065L270.064522,335.573443L303.556850,346.681229L347.276000,348.956151L379.329209,342.733436L403.750503,357.653856L424.644236,384.711699L436.491370,450.765629L443.550639,453.906582Z "/></g></svg>