<?xml version="1.0" encoding="utf-8"?><!DOCTYPE svg  PUBLIC '-//W3C//DTD SVG 1.1//EN'  'http://www.w3.org/Graphics/SVG/1.1/DTD/svg11.dtd'><svg enable_background="new 0 0 1000 1079" height="1079px" pretty_print="False" style="stroke-linejoin: round; stroke:#000; fill: none;" version="1.1" viewBox="0 0 1000 1079" width="1000px" xmlns="http://www.w3.org/2000/svg" xmlns:xlink="http://www.w3.org/1999/xlink"><defs><style type="text/css"><![CDATA[path { fill-rule: evenodd; }]]></style></defs><metadata><views><view h="1079.03053479" padding="0" w="1000"><proj flip="auto" id="robinson" lon0="10.4934283964"/><bbox h="125.66" w="116.57" x="74.75" y="-916.3"/></view></views></metadata><g class="" fill="#000" id="country"><path d="M878.406504,154.961001L879.430578,150.693564L859.951456,139.212847L836.274890,126.586460L835.907266,131.275753L837.027180,135.806193L842.149219,138.979956L847.888358,144.383545L846.496882,152.244674L849.747799,160.414474L863.054936,162.592183L876.166709,161.053783L880.651960,161.546594L878.406504,154.961001Z M561.671251,87.016163L561.198904,84.240306L555.607322,75.688723L539.472688,71.321011L535.229683,73.757020L532.328362,80.462142L538.707652,81.843203L545.337534,87.281810L561.671251,87.016163Z M820.555996,91.811492L808.614472,86.039933L805.874046,80.760923L808.018151,77.467869L814.624206,71.042244L812.942057,67.763631L810.436770,65.394513L794.574505,60.179189L789.796844,55.528695L786.301799,48.776589L777.194664,49.075026L767.583752,57.047815L767.328546,64.611488L761.946986,69.847563L762.843669,74.639878L761.486417,89.878647L762.473541,94.282546L765.899307,99.577471L785.414174,110.436305L790.725144,109.931146L796.887637,97.976261L808.911629,97.869960L821.576621,105.631031L824.028825,100.966148L820.555996,91.811492Z M272.377641,46.959505L270.569292,42.065907L263.739207,40.494568L259.321043,40.885737L254.097282,43.431784L252.442888,46.767193L258.290931,49.897404L268.421865,50.288705L272.377641,46.959505Z M502.313846,1077.030535L508.739642,1076.282148L516.621744,1072.162543L522.554182,1064.760812L526.075250,1057.599230L528.118099,1040.151498L529.057010,1038.675196L533.986608,1040.048501L553.645526,1039.286316L563.109349,1042.534183L577.864578,1043.083505L577.742011,1045.816379L580.592849,1050.080475L587.456946,1056.232816L590.898754,1060.249650L597.792079,1060.956883L608.210700,1058.739050L614.266101,1056.445675L616.679266,1058.073011L626.233121,1056.486873L634.484730,1051.515569L636.378171,1047.732134L644.845513,1045.067929L656.136534,1038.929257L671.855878,1034.184493L724.043126,1029.117024L725.838772,1025.292415L724.516887,1016.524088L725.824081,1015.233233L732.571224,1017.416704L743.310725,1019.462862L751.627375,1022.566454L757.164358,1026.617636L762.061403,1026.782430L769.455103,1023.946598L779.589261,1022.113273L789.437722,1026.322379L792.511212,1030.874842L790.979336,1033.209450L791.405567,1036.903633L794.581725,1039.993568L802.698912,1045.019863L812.972877,1049.345761L818.137683,1049.009303L819.785089,1044.800135L820.959373,1034.795613L820.937738,1024.111392L818.234491,1017.979740L812.758435,1016.476024L806.301759,1015.995386L802.808985,1014.725132L803.777938,1011.360703L808.334739,1002.647733L807.484418,990.996720L795.029831,977.753967L784.152056,964.938233L783.897531,960.579734L789.411985,953.009472L798.291967,946.983932L818.207538,936.951530L824.564539,934.865617L832.787532,933.184581L844.496924,929.061068L849.970057,924.828039L853.521888,920.224847L857.461371,896.288499L858.703981,895.266805L860.266959,893.861153L881.838686,902.117328L883.632038,900.752639L887.067117,899.401700L893.445359,893.072633L894.596409,888.266356L893.784660,879.176169L893.768804,870.601755L894.883095,867.874188L889.401598,860.994356L879.346291,852.471515L863.263306,840.834346L851.437403,841.409615L846.827973,838.321074L844.583363,834.041370L839.106841,826.654080L833.164486,821.513332L826.267340,819.521583L816.128432,812.979073L802.187528,798.721501L789.648267,788.866790L778.221857,789.024057L770.612986,783.862031L762.767933,777.101503L756.886040,770.561250L747.366280,754.664772L740.618193,745.597081L735.457860,739.992846L729.748636,735.324754L727.545979,731.626402L733.554713,723.174192L735.660013,718.993550L738.272287,715.781856L739.685629,712.379725L739.454817,709.816532L732.883014,701.481373L724.376480,695.472208L712.091897,689.367982L704.007194,681.673791L700.743712,674.628863L699.652771,670.756832L694.106676,665.518102L689.396273,657.839185L689.093193,653.215459L690.036625,651.930510L693.955977,651.937308L698.562104,655.078431L705.173888,661.137590L710.861923,669.974344L713.745739,666.592959L718.918009,657.186364L728.514155,646.526393L738.679230,640.457703L748.150023,639.948092L755.819759,638.269855L762.081305,635.233048L773.465728,636.449079L781.800908,638.643540L784.351620,637.284715L787.270462,631.741580L789.042477,626.967184L806.923162,624.169585L812.438810,614.957678L815.935899,615.005187L819.839600,613.627463L823.411082,610.139422L826.987568,608.707721L830.032911,610.431202L833.956102,611.578003L837.783508,609.372670L842.894975,598.830827L846.076465,597.189627L861.803622,595.541768L882.923659,589.324403L893.428140,583.793291L903.927037,580.791068L915.023087,575.451770L932.912248,570.249215L933.612855,568.122476L924.673775,562.779429L921.542538,559.407666L919.344971,555.948411L922.019818,552.117450L925.919193,550.966935L931.253363,552.564136L946.761223,554.838313L951.145031,557.045025L953.127589,562.454418L957.441591,567.492621L960.618764,568.027658L960.186643,576.237678L965.342257,579.422243L972.686964,581.909230L977.372919,581.407745L980.480808,578.073829L981.589080,575.763420L981.974351,574.008753L991.641648,554.993994L995.678485,543.023218L999.536191,521.195739L991.098984,503.981139L988.475631,495.932285L984.909948,492.064167L964.423665,483.695595L962.670813,480.787552L964.703384,469.428774L962.787739,464.654893L957.607909,459.619107L950.487902,449.597963L947.327328,441.103238L954.414965,431.110216L955.733733,423.779762L958.305347,413.740263L960.351567,408.237841L960.693654,406.717837L955.144699,402.810663L953.334746,397.324217L954.042060,389.419502L950.759518,383.566589L943.459166,379.763970L938.497325,374.739525L935.850203,368.480590L936.619557,358.658949L940.806349,345.272223L927.983630,329.191053L898.209091,310.400603L883.564265,297.274554L884.015835,289.783768L889.326429,283.004511L899.510654,276.916127L906.669017,266.121251L910.084033,253.325900L910.013115,250.899928L909.432803,241.766191L893.634095,204.450115L890.772286,195.119557L888.282322,183.872664L887.230863,180.800115L886.251258,180.493547L861.718599,175.642247L853.319332,171.011694L843.609710,163.917544L836.992760,141.328918L824.911154,123.048418L795.573712,124.730925L761.853913,105.418370L747.716423,87.959222L733.676048,86.378621L720.747976,83.244254L698.814063,80.296154L679.156972,96.667459L671.073148,105.272166L658.077774,113.155021L652.570328,120.993642L619.178048,124.105791L609.286384,128.455427L585.198804,148.729842L578.819982,151.472436L546.618181,142.673177L526.814369,144.563240L519.923817,142.586663L514.623100,133.683908L534.740934,119.244880L539.732192,105.717426L533.345329,92.296386L527.259960,92.768003L503.904884,100.853191L463.234404,84.246947L447.730015,88.244803L442.930229,82.633360L439.677958,77.434675L410.560546,79.605653L417.928316,73.869865L426.654038,64.810560L425.130380,52.225396L417.299200,43.484829L410.393330,37.736652L394.618019,34.130557L393.806776,31.638382L392.241285,31.638382L385.395851,30.438770L380.396428,27.582443L368.094778,29.616966L351.738769,34.249869L342.485881,34.017875L334.846953,29.040393L304.405717,21.950168L299.523702,21.380377L279.717398,21.082235L279.675205,21.068984L281.805976,36.211960L293.946766,49.234194L304.448563,63.091952L312.999169,70.650648L312.983800,80.269596L300.441699,85.714530L281.165030,89.779020L279.123045,95.724098L281.609194,103.750362L291.322699,103.717136L295.913343,101.291733L303.607667,103.125716L309.782273,108.402433L311.470207,143.884399L313.546929,148.649965L320.022421,153.982292L330.007819,157.431238L345.786643,158.756339L356.273530,163.131644L392.589263,198.473901L409.351091,204.696930L397.369643,203.196063L387.665034,198.433887L357.707972,169.359552L344.908240,163.564552L312.124861,166.328674L281.990696,160.967209L277.622793,165.949006L272.998009,173.776602L271.435171,188.838830L275.726643,204.390079L272.272638,226.619579L271.124235,210.200859L266.420064,205.097176L253.426452,197.653614L250.118201,200.668132L248.218439,210.634552L245.059033,219.637001L240.379097,221.399155L230.224446,216.580219L235.982708,206.231241L218.035680,186.112321L177.265476,185.219101L140.512189,187.392211L132.233499,191.052246L122.185481,204.376738L119.148242,215.218800L117.510569,229.136712L128.416075,235.821340L133.550240,241.933201L133.241471,254.943345L134.494931,280.649268L133.571958,285.212753L127.324231,296.069449L121.031392,315.579275L119.655425,328.400010L117.618747,330.846965L89.008396,330.773217L85.026695,332.999147L84.560166,335.775138L86.142084,339.081260L85.590671,342.367707L83.450932,345.044142L84.849942,349.297529L90.013710,354.135489L99.193196,357.121952L108.895624,357.397127L113.861580,356.873625L117.654472,360.323580L121.486746,365.653857L121.497911,372.355297L120.474236,381.362878L116.232676,389.688327L103.384949,399.287359L97.591433,402.669452L92.088716,404.397665L89.531973,406.939779L88.411214,410.154799L88.812448,413.006982L98.551626,420.724396L98.400751,422.487576L95.826986,426.498966L92.351035,430.275412L68.293612,438.126435L58.206477,437.513611L52.612316,441.426534L50.846014,442.167436L44.340163,438.570911L29.994254,434.429529L24.686578,435.857045L21.797046,438.126435L12.957363,440.880975L6.708208,445.198644L6.883739,450.756880L18.735018,465.133585L22.823658,467.958746L23.208499,473.326824L28.952059,480.072405L34.889281,488.527399L35.692253,493.907011L35.240977,499.355404L32.612161,507.067733L23.398212,525.156666L23.403897,528.631493L24.329367,531.268391L27.737506,531.998663L30.357669,533.364605L29.686125,535.778872L11.658646,548.348042L9.352883,550.547351L1.577909,549.924755L0.463809,552.029468L1.636305,555.420431L4.750127,558.392174L11.407008,559.956051L17.180879,563.145072L21.951570,569.395786L16.723611,590.829429L18.126953,593.358373L30.822513,600.716322L34.871528,606.550166L44.005149,612.188749L36.851258,619.322162L38.088081,622.499344L40.871808,625.751679L51.028989,627.646267L56.248018,632.339302L56.805104,639.506438L59.510014,651.209884L39.095279,662.837994L33.621004,675.840291L33.181560,678.399486L32.405416,682.129919L32.850346,690.478079L36.266092,698.858121L43.900203,707.117316L49.749102,713.116015L57.476419,717.902478L70.467708,722.451222L75.619874,723.406093L76.550740,729.565942L75.790481,736.075411L71.486074,739.678883L67.483240,744.859790L64.564993,751.202558L61.683155,763.359877L61.518507,771.750273L65.683153,770.991753L74.150259,773.130697L82.814348,779.876613L86.599334,786.665138L87.660575,790.377956L91.447538,794.412664L106.262278,812.664299L110.818985,813.567573L115.642279,810.796243L118.690439,806.868885L123.281623,806.088944L130.781940,807.895152L135.642089,809.961468L138.233724,817.872148L139.903395,819.377853L143.054392,817.673674L148.766690,817.297260L157.989104,819.247813L170.481875,817.016664L180.418420,813.718121L185.564414,813.841297L194.237332,823.067113L203.852231,826.517166L224.848430,829.303470L247.443853,833.644239L256.402813,837.156945L262.491241,838.882608L263.626694,851.108300L261.895321,852.951048L240.573120,877.476238L231.511671,886.250737L227.223638,898.777674L224.700215,917.995403L218.808636,936.258506L209.564219,953.579107L206.456486,966.578726L209.511359,975.255229L208.342201,988.882188L202.948385,1007.447034L202.461376,1021.474701L206.859472,1030.943507L212.554894,1032.886724L221.909896,1036.100250L247.590131,1036.944832L266.188246,1035.214470L277.709301,1030.888575L292.218642,1030.888575L302.054303,1033.326180L303.755797,1032.969122L306.410334,1032.399203L308.956320,1030.078330L318.049154,1028.485310L319.199971,1026.548971L318.730679,1024.564575L317.035803,1023.548347L305.822003,1024.578308L301.449561,1023.047101L300.194285,1019.517793L303.547651,1013.393088L311.622395,1008.394548L318.591804,1007.165527L323.707777,1008.504405L336.475873,1017.794350L339.449789,1018.075868L341.090688,1016.407362L343.616525,1015.473552L347.959843,1017.293111L353.017485,1023.047101L353.855503,1023.932865L381.339429,1021.921015L387.525514,1021.921015L406.717840,1032.014679L426.712149,1042.520450L429.434788,1041.140278L440.878577,1042.286988L447.936683,1038.785060L451.548517,1035.303734L461.817122,1038.572198L476.983532,1045.177793L484.213203,1049.641020L487.278171,1053.087989L489.034765,1055.978759L488.400300,1060.922551L491.882502,1062.858853L498.906969,1063.607279L503.639501,1065.131590L502.342852,1071.633855L502.313846,1077.030535Z M250.388753,0.000000L239.895453,20.406459L239.758790,39.573022L242.060945,36.874859L245.824223,28.642763L272.567031,26.230594L275.443880,22.652484L248.888717,21.552638L247.747684,17.544527L249.365492,9.828034L250.602946,5.965631L255.318656,0.456813L250.388753,0.000000Z "/></g></svg>