<?xml version="1.0" encoding="utf-8"?><!DOCTYPE svg  PUBLIC '-//W3C//DTD SVG 1.1//EN'  'http://www.w3.org/Graphics/SVG/1.1/DTD/svg11.dtd'><svg enable_background="new 0 0 1000 558" height="558px" pretty_print="False" style="stroke-linejoin: round; stroke:#000; fill: none;" version="1.1" viewBox="0 0 1000 558" width="1000px" xmlns="http://www.w3.org/2000/svg" xmlns:xlink="http://www.w3.org/1999/xlink"><defs><style type="text/css"><![CDATA[path { fill-rule: evenodd; }]]></style></defs><metadata><views><view h="558.624574921" padding="0" w="1000"><proj flip="auto" id="robinson" lon0="9.27233266487"/><bbox h="48.88" w="87.66" x="99.43" y="-958.37"/></view></views></metadata><g class="" fill="#000" id="country"><path d="M487.370736,556.624575L505.072582,550.560663L518.530348,552.138241L530.259899,547.493832L528.064886,531.573328L524.774929,524.403850L512.932823,519.762924L496.094285,520.405751L470.306774,509.215116L454.999499,498.371061L426.978305,500.395281L425.210733,508.907003L425.901902,530.595590L487.370736,556.624575Z M347.206646,517.165316L349.938540,514.823220L336.632600,508.281982L327.118913,506.635848L315.120715,498.907909L305.706498,496.399752L308.183528,500.324872L326.781887,515.113773L337.872344,519.040859L347.206646,517.165316Z M636.663158,495.854141L631.135173,490.169688L624.676757,486.533785L617.104504,484.061632L601.878475,482.310989L596.469051,478.132649L594.946124,485.882740L589.868351,490.838403L581.939305,494.226152L579.624490,497.130181L576.761046,505.113018L586.324961,509.065461L609.712366,496.566958L631.502814,498.538276L636.663158,495.854141Z M287.072462,510.165882L286.322192,506.283743L277.097253,492.123072L252.536191,479.188186L245.496441,477.244263L244.185739,478.889114L250.898384,506.627045L264.773121,508.317194L272.558822,512.674962L287.072462,510.165882Z M383.642052,534.630026L387.421130,525.804168L405.997336,478.493288L409.042914,461.547060L405.353771,461.248130L397.105796,480.278938L381.569379,496.531756L375.855269,507.119997L366.522335,516.469716L367.940434,521.039782L377.455387,535.651918L383.642052,534.630026Z M993.309907,485.741974L999.103339,473.981162L997.446220,463.648430L943.119390,436.252097L936.883415,446.814451L935.093857,471.263595L964.648309,483.744927L988.412019,488.794935L993.309907,485.741974Z M360.278035,379.959812L357.106047,379.415934L341.302096,389.259675L329.910731,388.847271L319.564270,381.907318L309.962261,379.775594L269.958966,393.348876L251.459555,396.911951L253.079130,425.367809L264.571568,448.457952L270.092078,452.676902L273.598395,460.289812L311.899264,473.849237L338.866904,480.894700L364.311955,480.234956L386.008342,465.653195L388.375363,453.116404L384.283102,441.102317L388.377651,431.727563L375.392996,409.341612L366.785225,389.338647L360.278035,379.959812Z M643.618653,382.345960L640.439261,373.319800L635.968451,367.470256L633.042231,367.312411L629.390862,372.723400L622.971175,379.100137L628.125958,389.584337L631.061930,389.987975L643.618653,382.345960Z M352.790391,348.849414L354.945944,339.726725L359.196311,331.885410L355.180936,325.324604L341.736731,311.375013L337.820287,317.363972L342.419370,326.682212L339.792989,337.106915L341.535671,348.717946L350.640131,352.074914L352.790391,348.849414Z M627.202699,348.490070L619.055726,324.553857L620.985415,317.285164L629.007521,304.012835L624.393754,298.446300L616.714872,294.980805L602.764319,290.955676L587.875333,288.042131L573.375398,288.663317L549.321781,300.581781L526.332774,315.638975L533.253366,321.173285L536.888116,328.600471L536.108037,340.769447L531.258126,344.379786L527.985200,350.856552L523.634429,364.181959L518.518771,363.462959L505.161167,358.553109L502.542267,340.515336L503.357222,326.445721L493.147866,317.661697L471.952722,320.069855L470.334894,326.568346L471.291381,331.578802L453.237519,354.327682L446.906967,357.211787L439.828477,358.158597L415.239876,356.536763L405.588534,359.894482L410.784067,373.740794L419.602250,376.459835L427.081541,381.591499L427.335144,387.820670L428.940476,393.445407L438.514020,405.873865L437.658204,430.515258L455.557767,452.861492L459.010055,454.048165L472.363106,451.006843L482.113957,451.586960L507.469771,456.017247L514.768309,472.389294L516.514889,482.627682L522.538610,494.648542L523.479230,504.945775L542.577024,530.683674L568.514836,522.977166L569.789804,506.081284L569.419586,493.874164L567.035702,477.085939L568.784910,455.797478L600.769751,446.981434L612.787852,438.149932L607.403493,420.256217L591.576431,415.110224L582.347788,405.715849L585.295820,392.883771L595.380632,383.907570L607.087270,378.801887L620.782092,375.144144L625.844520,371.697266L629.046209,366.461812L627.202699,348.490070Z M395.385888,86.120990L398.468515,81.782988L411.326382,73.595501L398.975661,72.344105L378.392677,76.141903L370.622932,84.390931L390.076243,90.294402L395.385888,86.120990Z M327.985615,0.000000L317.460893,0.268738L281.238765,21.289980L240.816512,27.701670L221.783161,45.929198L188.703739,89.694439L172.697625,100.051976L154.383686,105.001523L117.989117,103.418277L106.416726,104.279483L87.395725,111.500644L60.692085,111.283115L35.508597,133.896970L17.044014,157.459624L14.952092,164.065560L15.839033,175.014576L27.144044,182.496246L44.521875,190.991547L62.756788,182.801479L86.034838,180.141685L98.735318,151.229698L113.496722,128.246314L129.480685,123.336563L149.830463,129.029857L145.850800,165.303237L145.200955,184.362577L136.878600,175.651060L126.237806,167.900772L116.381897,171.300553L102.044272,178.397678L82.097572,197.621887L80.465992,212.484034L74.528184,221.179325L65.423236,217.809187L57.345450,209.621034L46.203911,208.704579L19.047539,199.541450L12.128760,199.297136L2.824598,201.295334L0.896661,252.391400L1.499475,284.857644L14.329591,313.091041L12.192611,327.654467L8.238799,381.758181L39.002680,397.842271L77.896211,414.398975L83.750303,430.524043L88.157490,461.643773L74.747098,465.494920L84.842942,481.475284L88.709957,492.219864L90.803711,507.093589L90.859770,507.111194L117.175472,507.507321L123.661975,508.264375L164.107809,517.684823L174.257292,524.298168L186.551167,524.606409L208.282625,518.450889L224.627247,515.747714L231.269745,519.542781L240.364949,521.136649L242.444944,521.136649L236.410075,502.604446L239.767766,495.449337L233.182479,489.657200L226.900432,485.574817L216.413858,482.381365L199.718370,482.557306L206.049666,468.739690L224.526965,452.808752L227.721061,441.708640L222.515935,427.809682L219.660410,415.233157L213.914690,400.914253L223.038830,389.364971L238.124594,380.258072L242.824184,372.565531L254.577127,362.402022L268.244293,357.378354L271.379344,352.732322L262.140924,343.459640L253.633505,338.123273L269.131899,332.156978L281.725969,332.446070L289.254233,336.151916L292.420357,334.110585L296.806800,308.967467L307.095066,271.781662L314.276642,264.856521L321.384567,260.450362L337.953136,274.029144L349.394663,273.714312L367.313016,266.570185L380.972026,256.988790L385.429496,245.618843L388.737314,230.549438L382.052341,221.677017L376.540293,216.517103L327.107164,216.735357L311.849275,210.598616L297.010116,198.860865L296.946117,170.210840L295.079399,162.705914L294.130390,131.276122L299.718283,127.314795L311.420907,100.417293L322.563059,87.781592L319.904702,63.551038L321.704972,51.243320L307.492475,31.033868L308.971180,21.732420L311.381419,15.668967L327.985615,0.000000Z "/></g></svg>