<?xml version="1.0" encoding="utf-8"?><!DOCTYPE svg  PUBLIC '-//W3C//DTD SVG 1.1//EN'  'http://www.w3.org/Graphics/SVG/1.1/DTD/svg11.dtd'><svg enable_background="new 0 0 1000 445" height="445px" pretty_print="False" style="stroke-linejoin: round; stroke:#000; fill: none;" version="1.1" viewBox="0 0 1000 445" width="1000px" xmlns="http://www.w3.org/2000/svg" xmlns:xlink="http://www.w3.org/1999/xlink"><defs><style type="text/css"><![CDATA[path { fill-rule: evenodd; }]]></style></defs><metadata><views><view h="445.715985524" padding="0" w="1000"><proj flip="auto" id="robinson" lon0="-78.2811023728"/><bbox h="108.09" w="243.05" x="-1357.63" y="-24.4"/></view></views></metadata><g class="" fill="#000" id="country"><path d="M704.417873,304.840500L706.529344,296.081394L707.860064,295.247834L711.359691,294.266384L717.544166,287.799571L712.101418,284.236775L707.018940,283.893939L703.114208,285.782894L698.463671,289.695248L696.969478,293.742048L695.838909,303.368325L695.865340,306.406787L697.542068,307.260514L703.322401,307.495793L704.417873,304.840500Z M76.557319,192.417535L79.234538,189.137079L78.016460,187.073349L75.974430,185.527232L73.208560,184.229839L70.705799,189.607636L74.098230,192.558702L76.557319,192.417535Z M137.314676,162.893430L140.941992,157.045077L144.777792,154.282234L146.904060,150.322832L146.401539,148.682605L145.152884,147.667546L143.289338,146.995321L136.942843,149.899331L133.529809,154.793125L129.687237,157.098855L125.765646,161.347314L126.144320,163.061486L127.698924,164.459713L130.184810,165.736940L137.314676,162.893430Z M81.533836,153.294064L82.707285,152.305894L86.003203,151.257224L90.116104,145.529872L90.515686,137.685013L85.379541,133.544111L73.210111,135.796062L69.469159,140.205854L68.878942,146.746598L78.358071,153.415065L81.533836,153.294064Z M15.043549,131.903883L16.612440,129.154485L16.619680,122.378464L12.908134,117.780449L1.572417,119.763511L1.124313,121.585239L1.606355,127.084034L3.802826,130.740935L8.945525,133.100443L15.043549,131.903883Z M66.814430,123.171688L68.054231,119.346732L61.093496,113.249657L54.227962,111.226262L51.800666,113.410991L48.931996,118.862730L52.517272,122.855743L63.993069,125.255584L66.814430,123.171688Z M24.313600,98.450638L22.273932,93.889596L18.895109,91.520005L11.010341,92.941760L9.903001,95.896186L4.571976,100.037088L4.981793,101.200036L7.420182,103.394848L12.362867,100.890813L14.785807,101.791593L18.446180,119.951734L25.745522,125.900919L28.978634,134.391113L33.629479,138.666461L32.215276,143.056086L20.740684,148.796883L13.240753,155.216626L11.022758,159.444918L11.786822,163.827822L15.760363,168.788839L18.664268,170.187066L33.287913,170.368567L46.943689,164.923548L53.261209,151.949615L49.394107,146.423930L43.496581,141.160413L42.908833,139.802520L43.971359,136.333842L42.418022,128.878873L30.167124,115.535220L28.090623,102.887319L24.313600,98.450638Z M776.571662,13.945302L777.232400,6.581080L775.798230,7.327250L771.589867,11.162292L773.136894,14.456193L776.571662,13.945302Z M772.614921,443.715986L775.174374,442.237081L777.343380,438.028927L778.470571,435.635792L781.849536,434.614004L782.061584,431.878032L781.250309,428.577388L782.226853,424.705351L784.915720,421.303874L791.949514,416.322660L795.346641,414.238752L795.951611,411.159946L797.130219,407.066076L796.554557,404.787222L795.012979,401.957142L795.238891,397.957385L796.981620,392.606450L799.502974,386.354732L801.587781,378.388834L802.369836,374.624360L804.812403,372.231230L805.661660,368.782704L806.906647,364.722451L809.892058,360.164750L809.653970,355.270937L810.899173,353.106366L810.864488,347.634438L813.647912,336.374640L813.702307,334.042013L815.041864,333.416842L817.422930,334.156292L819.522424,336.710753L820.217786,339.218159L821.102660,340.360944L823.007244,340.132387L825.179727,338.707266L824.968404,336.435140L823.301929,334.210070L822.831039,332.879061L823.465283,330.795159L826.694913,326.230740L830.225375,320.926874L837.821531,309.922529L842.447278,305.425336L854.588409,300.659254L863.773046,297.049400L872.594504,293.587436L884.553948,288.633131L901.464236,281.628539L913.615480,276.580124L924.358780,267.612634L932.685422,260.661823L939.820509,254.645405L948.869120,247.015648L961.014306,230.519242L969.407030,219.138473L975.543457,210.823050L979.795216,205.586419L983.059387,190.790751L986.815851,173.917913L988.496606,166.415887L989.225725,163.807656L990.933078,164.903382L992.890308,166.731832L995.263201,166.819221L997.498016,166.731832L998.875687,165.703329L996.683603,148.857383L996.957828,145.193760L998.108625,140.804134L997.861520,138.411015L994.074473,135.049893L987.998120,128.327649L985.468884,122.331408L983.929296,117.276281L979.694345,113.955493L975.345660,111.031317L975.692832,108.638198L978.278893,108.638198L984.834755,110.997705L989.551510,110.231370L993.072470,109.969202L996.475113,107.515583L985.557579,102.826819L976.232530,95.852491L966.545760,94.037486L960.279934,89.789028L954.511742,83.127284L951.403156,78.630104L948.871541,76.394958L936.570834,69.934881L934.115073,69.309713L929.412005,72.304472L927.873347,74.102672L927.577623,79.261994L927.002662,82.199615L922.904136,83.974287L916.313679,83.594480L911.728052,81.722336L908.658745,81.450085L908.028620,82.915534L906.299141,83.547425L902.553167,83.127284L897.037207,81.698808L892.036524,79.789691L885.258877,75.739539L882.118904,76.243707L874.402319,75.373176L868.107331,73.067447L866.509389,70.936496L863.850941,56.366032L863.022747,55.357695L860.307042,54.725804L855.747506,52.719214L852.886112,50.369790L851.421075,46.336443L849.644804,42.508124L841.936766,43.365211L829.362279,38.316805L820.669395,33.510399L812.726889,28.172936L800.710632,17.659343L796.111307,15.054473L790.433469,11.834516L787.123213,6.655025L781.611173,1.425117L779.756540,0.000000L781.602678,10.974069L777.117408,17.148453L757.015135,24.146311L742.615034,27.211655L733.569923,33.332260L725.790991,32.737341L722.433188,36.696743L715.850541,40.968730L707.784529,42.733320L704.575216,46.161664L706.143735,59.411208L708.273392,71.948193L706.938605,89.486527L701.624532,100.598395L695.328586,107.965974L690.209060,111.595985L680.457210,125.531196L681.324940,130.196433L686.455970,140.380633L692.696733,142.894752L688.075926,143.210698L682.157429,140.481466L679.182827,147.250766L676.297558,158.550860L672.084302,162.046427L658.892939,167.276334L655.255080,174.448970L660.422280,188.693410L661.636947,195.408935L659.832585,212.550668L664.407532,225.665777L664.691203,233.349310L664.271621,243.130186L658.441505,247.573595L652.719444,250.880943L653.460751,254.060569L654.687652,256.379747L660.458011,261.878551L669.898409,265.172455L684.505242,280.942868L688.917359,283.833439L694.681382,286.502176L696.405789,283.604882L696.757269,281.258815L703.988276,274.227334L708.292458,264.748953L711.063478,262.207941L709.924288,276.176788L712.458872,277.689296L716.269262,275.612119L718.839615,267.014353L717.668609,247.882818L720.686328,242.491572L721.319242,245.462807L720.959192,249.408770L722.265595,262.396164L727.121454,271.215763L728.209674,277.716185L722.871581,291.335479L717.378723,312.893769L714.958635,317.545575L711.234073,322.392327L706.838569,325.551792L703.312486,329.013758L694.699476,332.489170L693.415133,333.389953L695.048630,334.667184L696.589537,335.917525L696.758345,338.424931L697.220893,340.589501L698.481523,342.633071L698.686378,346.390819L700.162613,348.898225L700.343435,351.741745L700.554175,355.613773L699.906458,357.549787L700.688529,360.910922L703.197848,367.108858L702.350089,369.044872L700.177105,370.295215L698.017859,372.002673L695.923724,375.874703L692.604010,375.760424L687.732576,374.052966L684.582174,376.217539L683.498887,380.311405L684.608707,383.726321L685.009479,386.919403L687.202813,389.648648L693.337665,389.877205L688.086735,398.643057L685.502395,402.622648L686.184610,405.130059L689.557665,407.287911L692.033036,407.442524L697.404332,404.215828L700.972273,399.550565L702.998589,396.935598L706.483848,395.907089L711.169635,398.071663L717.418558,402.394090L724.693403,406.219068L727.666703,408.316420L732.887687,407.711415L737.260892,406.837518L741.056455,409.983547L744.878210,412.638849L746.037152,421.687044L749.055368,428.268163L752.645531,433.350213L757.004389,439.393552L760.889189,441.443851L765.836128,441.484185L772.614921,443.715986Z "/></g></svg>