<?xml version="1.0" encoding="utf-8"?><!DOCTYPE svg  PUBLIC '-//W3C//DTD SVG 1.1//EN'  'http://www.w3.org/Graphics/SVG/1.1/DTD/svg11.dtd'><svg enable_background="new 0 0 1000 1074" height="1074px" pretty_print="False" style="stroke-linejoin: round; stroke:#000; fill: none;" version="1.1" viewBox="0 0 1000 1074" width="1000px" xmlns="http://www.w3.org/2000/svg" xmlns:xlink="http://www.w3.org/1999/xlink"><defs><style type="text/css"><![CDATA[path { fill-rule: evenodd; }]]></style></defs><metadata><views><view h="1074.45030511" padding="0" w="1000"><proj flip="auto" id="robinson" lon0="27.4324080701"/><bbox h="151.0" w="140.67" x="221.99" y="-1141.57"/></view></views></metadata><g class="" fill="#000" id="country"><path d="M239.054635,1040.613367L240.148895,1037.010773L238.484497,1033.946321L232.881771,1033.584586L228.156417,1036.196717L226.787785,1038.543234L231.864233,1041.693780L239.054635,1040.613367Z M255.682003,1037.048019L257.228725,1030.371916L248.886632,1030.696343L244.357796,1033.584586L244.539759,1039.900230L247.878003,1040.794317L255.682003,1037.048019Z M280.297936,1011.981479L276.440396,1013.601691L275.683235,1018.059511L273.585027,1021.168553L279.273928,1023.502088L283.757114,1026.564408L286.246055,1030.898449L290.904726,1034.313384L299.482442,1034.318704L297.623262,1030.260229L293.767446,1027.457703L293.628518,1022.949236L301.632450,1019.313679L295.623679,1013.601691L291.314989,1014.504837L280.297936,1011.981479Z M265.754686,1015.689634L264.218717,1013.670753L257.528494,1009.543526L260.934409,1008.614129L256.653652,1004.615727L249.445980,1001.196967L249.091832,1003.113287L252.017697,1007.445826L248.838047,1008.667235L250.262938,1010.775731L259.738581,1016.167830L265.754686,1015.689634Z M216.942326,994.711988L203.311104,987.545741L199.809415,982.906251L196.489176,984.825496L195.925506,986.644239L199.738031,995.104614L205.178330,1000.124786L210.808296,999.206593L216.572872,999.769178L216.942326,994.711988Z M150.664303,703.096850L150.677870,701.201048L151.535641,699.222441L139.136652,699.243213L145.823233,707.549189L155.131764,712.600848L159.533990,711.462493L159.946500,709.674594L163.426048,706.723026L164.418073,707.575170L167.543995,707.772626L167.202587,702.608589L162.368560,700.920597L156.545151,704.535769L151.865486,705.081250L150.664303,703.096850Z M409.931621,518.337860L412.675936,514.646130L420.864980,513.341823L418.363347,511.602973L402.972489,508.345882L392.461490,509.649632L387.145426,512.907086L388.636851,519.642725L398.685185,521.817820L409.931621,518.337860Z M361.302439,1072.450305L374.250247,1069.293386L384.980156,1060.465997L395.356568,1053.870110L406.543195,1055.841118L417.439992,1056.112817L442.109743,1051.367722L468.131147,1047.751915L477.192619,1050.046974L482.783780,1047.320632L488.383604,1039.910873L508.345189,1035.106058L517.497178,1035.201820L533.394130,1031.212250L541.695201,1025.304315L557.182270,1023.900792L564.092138,1019.409340L572.528102,1016.066876L578.817406,1023.225659L582.383583,1023.215028L588.770471,1018.091395L596.488898,1014.589841L604.130179,1015.163636L603.872886,1011.891178L599.911943,1006.049293L594.688501,1000.729868L601.371852,1000.655559L616.908180,1008.083070L631.022445,1006.182038L636.705379,1001.536684L638.195469,992.298095L642.793411,984.396030L645.820890,984.030199L646.118154,987.540438L642.946638,992.929383L641.897018,1001.016495L644.391425,1007.398033L649.952613,1004.700675L659.124650,1002.810693L677.985295,1001.027111L687.229243,995.194814L697.672170,993.205248L700.837378,993.725162L720.890559,1001.749011L725.564095,998.930616L737.444471,998.039032L744.408602,994.356511L747.348055,994.001042L772.232587,971.231843L790.097366,954.851508L793.547676,952.391291L802.033276,947.995687L808.935924,943.379366L813.980773,937.326983L832.520312,925.393569L851.208761,912.557408L867.454726,895.664334L873.485857,890.353842L881.391506,884.676789L897.494272,866.844367L902.721534,861.912786L922.099118,839.595491L933.813647,828.489766L939.410833,822.114749L964.916212,801.071227L981.510006,784.188981L987.407878,774.941034L992.150463,761.702085L994.461346,752.678389L999.534212,741.014145L998.801598,737.149205L995.703196,733.556150L988.448388,727.970657L978.708230,721.539644L969.528917,713.676920L962.394447,706.608718L943.256657,696.787253L914.305117,684.369298L892.894201,675.176502L858.807517,655.558523L852.485009,650.669150L853.202428,649.381156L868.489916,643.449821L881.441133,628.192322L886.743383,620.464815L887.092797,614.475065L885.619844,607.735568L882.980457,601.520155L879.966370,597.666741L870.966919,592.825938L846.114147,584.004148L838.848858,575.867436L832.377433,567.350845L831.452360,563.831864L840.066958,554.692468L839.456470,550.125384L837.058149,545.452346L833.242179,542.042338L809.055244,537.920868L801.492162,533.570270L794.714506,526.645408L790.642985,520.707192L789.543691,517.193782L790.334215,513.259989L797.108748,508.984957L803.669994,506.096616L804.024448,502.207435L802.952702,497.997752L801.218898,495.964982L786.317828,493.963206L784.668208,492.824596L783.971029,491.369585L784.287629,489.628919L790.278227,482.143489L787.907785,467.895459L792.778062,457.955407L783.153484,452.139060L783.542801,451.116551L795.402585,448.069927L806.840798,447.332556L811.823460,446.188456L811.277660,441.547163L808.535678,435.277138L790.579836,410.709241L786.226140,403.641435L776.156906,394.725917L768.159991,388.735791L763.190179,384.462808L754.836020,376.108932L749.096413,367.539587L740.477958,357.983744L731.025184,349.222711L722.939615,341.128655L703.400838,325.291530L700.237720,320.914021L699.501035,316.955294L699.892196,312.767173L708.973531,299.857315L717.604678,289.097725L728.881774,276.493873L740.164690,266.044739L751.878553,253.665406L752.391637,241.326981L751.174648,239.253862L737.248919,232.579114L709.697388,214.739989L692.346728,201.236656L669.214808,195.536335L638.228829,188.243711L624.553728,171.860384L614.250766,157.990807L613.683774,153.008758L628.761068,129.405738L629.651253,125.133634L628.621034,122.491690L626.058491,120.839040L622.851320,119.924315L603.343906,119.245711L599.524361,116.035358L610.554333,113.612407L619.383646,110.310821L633.964990,105.419733L638.766763,104.182672L632.129307,100.300837L626.111941,94.434820L625.680153,88.621853L636.461390,77.482543L647.148451,69.598495L650.027047,66.871137L655.166529,58.962959L635.432814,39.145302L607.995454,33.156806L576.204772,24.065685L564.173763,19.220307L544.859529,9.252038L530.713394,0.315046L519.900326,0.000000L508.663518,2.244367L492.265527,10.407000L482.503099,14.518667L476.887357,15.732669L475.504700,15.912357L461.739522,13.581584L446.939455,13.091237L435.300055,13.761223L431.111975,14.882848L417.804812,28.130860L407.848887,34.831192L402.038376,37.138907L398.316564,41.020656L396.000449,47.409838L392.642879,69.618049L388.234729,78.015914L387.987486,83.150731L393.014325,98.740749L393.452271,107.383690L387.279781,114.526463L382.534544,117.746087L375.448824,118.404906L366.377171,120.234130L359.015794,124.375899L354.410274,130.026057L350.586843,142.707921L340.424248,147.388182L329.457742,146.051416L320.830670,141.371864L303.726967,137.754193L291.072439,135.448336L276.370629,130.469169L263.557193,126.683752L252.409792,125.930803L247.158774,130.720275L243.059861,135.211872L225.040585,138.867922L214.995935,141.761321L201.326316,142.407167L195.102824,139.198125L174.672618,137.084052L150.359324,134.571481L143.479432,134.605963L140.213305,128.883917L132.331493,120.898057L112.760086,107.118530L104.920243,102.258710L89.759974,90.871086L72.423687,79.214899L70.231552,78.926148L60.053167,78.534637L45.300652,78.916360L36.413148,81.564427L31.109742,84.889154L30.594203,87.651780L38.307425,98.269835L37.014970,100.919064L34.287370,102.194912L20.249154,99.211688L3.977252,99.407921L0.465788,102.685674L22.385096,108.419859L23.524209,109.662444L24.221430,112.654227L25.521536,115.755185L47.256882,123.623150L53.882547,127.791148L67.532352,134.128162L71.476295,137.552159L83.788167,141.559196L92.890879,145.844260L103.244107,149.322166L115.594275,154.731668L131.623899,159.042874L144.745634,160.450765L178.547351,167.844598L184.541160,170.242973L194.906416,175.397936L205.533425,181.367917L214.507974,193.641973L225.143845,194.281648L228.842110,198.512562L239.476230,205.763710L253.504260,212.165933L253.478063,214.322526L244.514824,220.228386L245.026459,228.238085L248.031386,238.476559L252.890390,246.835903L253.043330,249.279795L251.089194,252.163394L248.949966,256.690104L248.646671,260.644612L249.296098,262.582515L250.530797,263.636538L255.920950,263.716469L265.738559,264.650708L271.753171,266.404522L276.901697,276.058684L276.183947,277.914622L268.922162,282.288227L267.227046,285.762483L268.002772,290.870972L270.555972,296.488359L274.601864,302.781013L282.319763,309.514301L292.355235,316.563525L299.180743,322.346177L302.678859,326.422653L304.226976,329.273643L301.043682,332.859888L298.943170,339.955623L299.901239,348.089059L299.353514,353.395626L293.152029,360.702280L288.375032,363.295387L287.623326,367.155973L288.242276,373.638909L291.337251,381.546034L292.909962,386.894911L295.293187,390.748988L298.187018,393.263489L311.358929,397.712117L320.042660,406.827707L325.779942,414.146019L337.975874,433.326739L344.331164,432.590350L358.206512,435.907028L367.515102,431.584878L371.432020,427.807564L374.299622,427.721270L374.493829,430.579498L372.741497,438.335490L381.946912,447.332556L389.337487,448.822605L395.215008,448.410660L429.587720,460.297047L439.449364,467.289232L438.972794,480.496025L440.505283,491.941357L439.281595,502.396498L446.965859,507.067837L449.442004,510.575127L451.455361,516.405895L443.873655,519.044004L441.135408,522.529292L446.086914,526.158976L447.869951,532.038461L442.098475,532.760794L435.238191,530.481240L419.680609,529.554175L404.769147,532.904242L398.516565,537.710731L390.639981,538.264269L389.700648,544.811292L383.722358,550.961697L374.055726,568.296265L356.082340,581.910300L350.476653,593.701260L345.688531,595.374845L331.341649,608.467607L328.819057,618.318283L320.470480,618.999353L303.348872,633.625627L294.640359,636.927056L285.829529,641.490565L267.554301,656.158832L250.074507,659.921763L250.961810,667.119496L242.098483,676.544889L235.408597,675.140222L235.505122,678.519981L238.774972,681.724327L232.637166,680.407232L230.512420,682.196232L235.066655,688.649092L238.140828,692.001303L239.076008,695.743743L224.068871,702.795581L206.401296,706.400889L198.147672,703.481239L177.964579,707.034780L179.165851,712.226583L181.492389,716.676880L189.529231,724.603864L175.165096,725.249055L175.329908,734.123683L156.738054,751.140284L153.376156,756.537479L152.154838,761.957760L152.112139,769.045562L157.145665,780.614437L160.812908,791.398465L175.011214,799.056583L177.784533,806.043715L179.569517,811.787913L177.222437,823.718707L175.591125,836.929714L187.515476,844.960102L196.382235,856.068666L204.488634,867.796186L205.632881,871.661974L211.425179,879.775732L211.010057,881.249553L210.710547,882.291849L204.942733,882.407665L203.202977,884.044977L206.054995,887.135861L208.421793,888.620991L209.912987,891.338871L205.076118,891.338871L205.182461,894.505127L207.561143,899.269024L209.175956,913.269638L208.242145,925.235158L206.655532,929.924876L201.738084,937.274135L201.886263,947.207688L205.432941,959.931988L208.944410,968.890665L210.816894,976.551207L211.738271,983.049391L214.555310,987.455588L222.671810,990.277096L230.494512,994.563429L239.109476,988.919311L245.440821,987.699532L251.088148,997.338539L257.841018,997.895746L286.694641,1008.699100L309.111445,1011.349379L312.294816,1010.430491L314.434997,1010.913830L314.062007,1013.251073L310.135391,1021.710709L310.837677,1023.735993L316.939712,1024.506843L317.594940,1027.478973L315.852684,1029.967721L311.671843,1030.685706L308.001176,1030.425100L306.527107,1035.265661L309.088478,1036.345692L307.372512,1042.524101L307.694124,1044.488312L310.488545,1049.184289L325.922010,1049.312091L330.047442,1048.268406L334.095840,1046.122687L337.407274,1043.993243L339.117657,1041.315893L339.690061,1032.026036L341.058195,1028.845606L344.911513,1029.510356L353.858185,1041.624589L362.021001,1047.214144L367.863162,1047.863731L372.421625,1049.988395L372.499079,1055.398950L367.477480,1061.894238L359.369503,1066.686218L356.281244,1071.319712L361.302439,1072.450305Z "/></g></svg>