<?xml version="1.0" encoding="utf-8"?><!DOCTYPE svg  PUBLIC '-//W3C//DTD SVG 1.1//EN'  'http://www.w3.org/Graphics/SVG/1.1/DTD/svg11.dtd'><svg enable_background="new 0 0 1000 30" height="30px" pretty_print="False" style="stroke-linejoin: round; stroke:#000; fill: none;" version="1.1" viewBox="0 0 1000 30" width="1000px" xmlns="http://www.w3.org/2000/svg" xmlns:xlink="http://www.w3.org/1999/xlink"><defs><style type="text/css"><![CDATA[path { fill-rule: evenodd; }]]></style></defs><metadata><views><view h="30.3610508841" padding="0" w="1000"><proj flip="auto" id="robinson" lon0="177.97671916"/><bbox h="154.75" w="5270.5" x="-2635.25" y="209.22"/></view></views></metadata><g class="" fill="#000" id="country"><path d="M964.243601,28.361051L964.273309,28.327747L964.283810,28.269241L964.228234,28.243138L964.172681,28.281842L964.169650,28.350250L964.243601,28.361051Z M24.021911,25.171776L24.008460,25.147173L23.989118,25.124371L23.969375,25.103969L23.961042,25.102469L23.959216,25.125871L23.969115,25.148373L23.990550,25.168775L24.015147,25.179576L24.029742,25.180176L24.021911,25.171776Z M23.274008,20.557571L23.252050,20.529963L23.205624,20.520960L23.151586,20.487350L23.131533,20.432134L23.161558,20.412328L23.173748,20.394623L23.141428,20.383220L23.091355,20.412629L23.081002,20.468745L23.099770,20.512558L23.170012,20.554270L23.251246,20.585178L23.274008,20.557571Z M976.753937,19.967895L976.592121,19.896172L976.375354,19.846057L976.218269,19.915378L976.010987,19.954090L975.826089,20.133245L975.655118,20.250881L975.520695,20.232275L975.351271,20.358013L975.222446,20.421031L975.364196,20.513458L975.765734,20.420731L975.826243,20.390722L975.861383,20.331005L975.941249,20.251781L976.196295,20.058823L976.264949,20.078629L976.352346,20.187562L976.718973,20.099935L976.753937,19.967895Z M19.714452,19.864062L19.617979,19.814547L19.566299,19.873065L19.565558,19.937285L19.564940,19.981099L19.587475,20.043518L19.627776,20.056422L19.625432,20.020711L19.617089,19.957691L19.626192,19.929783L19.645616,19.910877L19.703258,19.949589L19.744247,19.954690L19.714452,19.864062Z M21.925038,17.693097L21.888443,17.562546L21.810138,17.546940L21.669987,17.595259L21.740817,17.657083L21.908327,17.750119L21.925038,17.693097Z M979.749705,17.288838L979.813921,17.174793L979.807812,16.942199L979.759358,16.802341L979.645709,16.884275L979.582479,16.971310L979.549880,17.068250L979.719549,17.313748L979.749705,17.288838Z M21.117977,16.902582L21.065528,16.812546L20.914720,16.729711L20.849270,16.802641L20.911990,16.889377L20.990375,16.938597L21.048704,16.949101L21.117977,16.902582Z M23.071073,16.829052L23.044079,16.759124L22.941345,16.625268L22.812472,16.592554L22.762382,16.731212L22.930228,16.861466L23.071073,16.829052Z M978.645352,16.141464L978.749265,15.994701L978.739996,15.802918L978.618055,15.820026L978.465041,16.008507L978.493822,16.196088L978.645352,16.141464Z M977.454364,15.044183L977.398600,14.912424L977.251300,14.862902L977.070739,14.943638L976.526349,15.115315L976.203972,15.094906L975.613152,15.317905L975.249399,15.559212L974.901017,15.842235L974.875359,15.997402L974.880260,16.166975L974.834698,16.217397L974.760647,16.243808L974.690617,16.316739L974.647686,16.421183L974.510220,16.501316L974.356725,16.554739L974.292642,16.712904L974.274044,16.877972L974.344411,17.212608L974.476153,17.345261L974.652934,17.429894L975.106339,17.530734L975.435611,17.648980L975.611865,17.757622L975.894544,17.785833L976.195429,17.743817L976.452827,17.743217L976.728390,17.539738L977.001430,17.389979L977.255883,17.356065L977.345145,17.401383L977.434494,17.319451L977.733062,17.309247L977.943204,17.222812L977.925744,16.767827L977.960895,16.480608L977.953418,16.203891L978.048028,16.049325L978.073801,15.903162L977.933723,15.732088L977.688980,15.508490L977.559992,15.248575L977.484452,15.238970L977.420619,15.180144L977.454364,15.044183Z M980.517239,15.028276L980.630043,14.842192L980.618088,14.735644L980.561485,14.691824L980.470041,14.688222L980.407044,15.111413L980.517239,15.028276Z M20.658717,14.739546L20.725818,14.665112L20.732394,14.586476L20.704394,14.541456L20.599490,14.460418L20.434113,14.356871L20.410076,14.396789L20.433401,14.461619L20.572802,14.554662L20.580801,14.630896L20.548545,14.807377L20.616895,14.844593L20.658717,14.739546Z M974.822621,14.352969L974.965695,14.223309L975.038897,14.050429L974.954670,14.067537L974.901872,14.083445L974.805285,14.159980L974.672404,14.404593L974.822621,14.352969Z M982.371996,13.787507L982.448458,13.466956L982.505322,13.242450L982.252585,13.519781L982.095162,13.790508L982.145253,13.901860L982.371996,13.787507Z M17.666385,13.669852L17.897476,13.440844L17.955727,13.179721L17.794620,12.942908L17.716187,12.980126L17.494531,13.241850L17.523575,13.361006L17.549579,13.466956L17.586321,13.617627L17.627930,13.787207L17.666385,13.669852Z M982.687998,12.487291L982.725732,12.330015L982.660073,12.432364L982.652827,12.490892L982.687998,12.487291Z M17.473770,12.372936L17.461933,12.300001L17.497845,12.153830L17.390494,12.184145L17.274399,12.330015L17.312133,12.487291L17.473770,12.372936Z M982.957261,11.345540L982.970637,11.297517L982.518885,11.486008L982.354619,11.508219L982.166574,11.465598L981.941220,11.513621L981.697920,11.595561L981.460195,11.731527L981.086883,11.995054L980.897188,12.052682L980.707492,12.072791L980.326633,12.172139L979.942548,12.311406L979.646320,12.487291L979.416472,12.768225L979.252116,12.776629L979.072868,12.873275L978.945922,12.820750L978.829668,12.738811L978.756310,12.867872L978.660153,12.980426L978.565572,13.059063L978.476044,13.249054L978.751424,13.288072L978.805844,13.443846L978.826755,13.655145L978.896181,13.827726L979.172237,13.753891L979.438176,13.550696L979.603497,13.605922L979.757627,13.594216L979.952691,13.327991L980.421458,13.017944L980.686313,13.010741L980.741845,13.034452L980.764147,13.193227L980.825295,13.261660L980.933278,13.306381L981.057197,13.304880L981.402560,13.246352L981.772163,13.112789L982.061423,13.092379L982.343001,13.115490L982.299101,12.877477L982.403626,12.621155L982.482487,12.523008L982.516483,12.423960L982.395427,12.420959L982.263539,12.479487L981.807741,12.769726L981.376301,13.124795L981.447691,12.785033L981.675750,12.449472L982.081572,12.199152L982.259765,11.965640L982.455723,11.754638L982.957261,11.345540Z M17.144337,11.286111L17.158710,11.214977L17.092152,11.214977L17.029363,11.297517L17.031618,11.307121L17.040431,11.344640L17.144337,11.286111Z M977.354820,0.000000L977.238286,0.032413L977.182191,0.043517L977.209103,0.093336L977.374881,0.118846L977.485434,0.087634L977.506681,0.048919L977.488163,0.016506L977.354820,0.000000Z "/></g></svg>