<?xml version="1.0" encoding="utf-8"?><!DOCTYPE svg  PUBLIC '-//W3C//DTD SVG 1.1//EN'  'http://www.w3.org/Graphics/SVG/1.1/DTD/svg11.dtd'><svg enable_background="new 0 0 1000 1202" height="1202px" pretty_print="False" style="stroke-linejoin: round; stroke:#000; fill: none;" version="1.1" viewBox="0 0 1000 1202" width="1000px" xmlns="http://www.w3.org/2000/svg" xmlns:xlink="http://www.w3.org/1999/xlink"><defs><style type="text/css"><![CDATA[path { fill-rule: evenodd; }]]></style></defs><metadata><views><view h="1202.33427005" padding="0" w="1000"><proj flip="auto" id="robinson" lon0="-7.24215819307"/><bbox h="14.25" w="11.87" x="-86.0" y="-1029.26"/></view></views></metadata><g class="" fill="#000" id="country"><path d="M678.558731,1200.334270L661.074712,1161.533072L660.395014,1095.885262L626.143364,1044.184761L628.784878,1000.551575L600.845953,982.826922L492.558922,959.300999L470.616632,923.488112L442.457948,918.996451L445.872387,959.113803L481.687293,1046.244981L591.776399,1151.787329L655.839937,1196.022581L678.558731,1200.334270Z M759.010513,699.864841L757.754430,673.389362L724.499141,628.671110L600.820160,585.832794L551.466096,575.187226L509.139396,581.039089L527.042455,628.048379L549.893931,655.450766L621.532696,687.903624L710.631642,747.469171L737.434385,747.905401L759.010513,699.864841Z M230.356946,275.095314L183.930886,259.934474L84.053963,275.903104L0.416204,273.852568L38.192198,357.199884L157.411269,393.697304L230.756587,401.470390L292.359137,392.826741L344.565408,359.189310L315.260354,324.440059L230.356946,275.095314Z M778.338533,162.417355L612.584867,113.991398L464.953123,50.066759L254.853652,89.039127L396.361815,332.769252L587.684576,481.212708L668.597023,514.315415L679.968054,498.136558L673.700005,464.726096L594.697197,350.050589L568.135444,330.966629L566.950289,300.573712L584.936182,275.343864L637.652622,285.037624L705.951340,332.334134L745.559209,333.266530L778.338533,162.417355Z M860.994042,0.000000L858.542251,98.535428L847.904946,166.701895L861.654460,190.734695L880.112811,200.609680L948.492228,215.019553L999.583796,123.302945L936.382789,81.032881L860.994042,0.000000Z "/></g></svg>