<?xml version="1.0" encoding="utf-8"?><!DOCTYPE svg  PUBLIC '-//W3C//DTD SVG 1.1//EN'  'http://www.w3.org/Graphics/SVG/1.1/DTD/svg11.dtd'><svg enable_background="new 0 0 1000 419" height="419px" pretty_print="False" style="stroke-linejoin: round; stroke:#000; fill: none;" version="1.1" viewBox="0 0 1000 419" width="1000px" xmlns="http://www.w3.org/2000/svg" xmlns:xlink="http://www.w3.org/1999/xlink"><defs><style type="text/css"><![CDATA[path { fill-rule: evenodd; }]]></style></defs><metadata><views><view h="419.293661073" padding="0" w="1000"><proj flip="auto" id="robinson" lon0="43.6380821791"/><bbox h="40.66" w="97.2" x="535.67" y="-730.17"/></view></views></metadata><g class="" fill="#000" id="country"><path d="M976.405348,417.293661L986.424962,414.200022L996.774949,402.226355L998.804668,387.781450L998.776591,380.834815L989.326596,371.265449L971.842112,360.881582L952.725017,351.766024L940.002513,343.736446L929.644496,327.900748L922.169555,326.149334L919.936647,324.095311L917.642707,318.695348L916.362660,311.146101L917.585655,305.332772L924.003971,302.839524L930.852727,301.948568L936.030138,296.407530L941.678832,285.550374L943.794794,279.548212L940.763514,277.262106L918.853996,267.948638L910.171746,263.011836L902.757526,262.652837L886.733952,259.862621L872.703837,255.408746L865.409928,249.512297L855.109274,242.956906L836.841347,234.789498L823.030515,227.080891L821.392827,222.135831L824.553985,201.680441L825.801099,182.068553L821.904410,178.228923L814.337760,174.967201L800.886770,171.957900L770.807019,172.950128L747.900683,153.224412L740.334507,148.770027L727.414348,145.583973L708.438489,139.570131L697.530908,135.222796L695.035493,136.815416L688.618970,158.459758L674.426749,143.007671L666.997536,138.830648L657.147000,136.539141L647.394473,136.514764L624.609156,144.023545L608.408758,152.330245L596.295095,158.532928L583.460581,161.988322L577.923999,166.826402L559.588788,165.996973L549.692105,162.281028L545.934829,158.427238L546.144384,151.679954L550.876131,144.112943L550.485834,139.984572L547.602610,136.782913L523.501174,126.683707L513.243552,120.566709L482.512043,111.883923L443.687392,96.519700L429.371195,86.444018L426.769071,79.486857L411.384255,72.652060L392.311862,66.507695L378.839369,68.252750L365.992660,68.910198L343.433356,57.425781L324.117811,56.784639L303.135514,60.233867L298.661740,61.597357L293.756199,63.090724L228.155059,58.253591L209.784555,48.766590L193.800868,39.280260L154.611031,32.455954L133.782141,25.209934L112.476737,14.929486L89.613322,5.963669L72.575700,9.598669L47.307096,4.495065L20.043563,0.000000L11.557890,2.766819L5.371602,14.109982L1.195332,24.917825L33.817588,42.769602L76.511500,70.476729L85.828332,74.575813L130.746079,84.146541L166.036799,106.199022L178.604007,123.287991L221.654473,138.343084L233.764849,151.379198L254.505513,194.932916L274.411851,236.794430L293.890537,266.332842L296.296957,280.568871L298.182342,291.897335L293.810130,310.598218L273.094001,342.098199L282.970360,345.481343L301.183121,349.799261L312.954084,355.011665L319.348798,356.380588L331.569941,345.759886L352.743655,346.022049L371.523095,347.259182L381.467883,349.225663L393.868579,352.749488L408.511163,355.126420L413.315562,350.053289L418.720249,335.088172L421.555407,333.172346L423.574235,331.813376L433.853549,330.650961L444.034348,331.797003L449.220504,334.343105L456.221177,346.308794L468.871509,350.594135L493.471369,369.739457L507.734317,377.420064L511.453027,380.646000L507.985190,384.529462L510.546553,389.309127L519.075990,395.577423L529.806640,397.927649L540.743678,397.097633L547.220650,399.382336L552.226400,402.925110L554.324354,407.899518L554.634141,411.074119L561.681611,409.659448L582.962205,409.470287L603.127976,407.036075L618.376236,402.341442L641.009630,398.379656L649.964634,394.870780L660.894436,393.194685L695.844037,396.949714L708.054894,394.057359L746.455353,393.523317L747.153646,392.044526L740.967837,387.264045L740.660727,385.449150L762.955994,382.402885L766.049645,380.137032L791.600049,357.921780L799.570451,353.495318L820.048990,357.569261L863.855230,372.291060L862.748116,380.465397L867.830440,385.071415L878.469281,391.329827L897.748372,397.672887L913.632062,400.944016L920.760953,398.157760L932.000489,395.799282L948.714011,403.105969L964.652877,412.390210L972.414064,416.141700L976.405348,417.293661Z "/></g></svg>