<?xml version="1.0" encoding="utf-8"?><!DOCTYPE svg  PUBLIC '-//W3C//DTD SVG 1.1//EN'  'http://www.w3.org/Graphics/SVG/1.1/DTD/svg11.dtd'><svg enable_background="new 0 0 1000 1640" height="1640px" pretty_print="False" style="stroke-linejoin: round; stroke:#000; fill: none;" version="1.1" viewBox="0 0 1000 1640" width="1000px" xmlns="http://www.w3.org/2000/svg" xmlns:xlink="http://www.w3.org/1999/xlink"><defs><style type="text/css"><![CDATA[path { fill-rule: evenodd; }]]></style></defs><metadata><views><view h="1640.76015561" padding="0" w="1000"><proj flip="auto" id="robinson" lon0="-1.07647487415"/><bbox h="107.39" w="65.49" x="-47.94" y="-187.25"/></view></views></metadata><g class="" fill="#000" id="country"><path d="M279.966859,1638.760156L330.781395,1608.586601L362.035511,1582.873477L392.926981,1568.258389L491.660375,1531.237941L551.835499,1519.968129L580.792272,1496.466445L622.318380,1477.100355L653.176406,1449.837893L703.323100,1432.595821L790.460577,1384.193069L883.467210,1383.580850L900.830191,1383.480896L946.149062,1370.649293L959.291616,1346.048097L968.820634,1323.633396L981.282786,1308.952641L999.695077,1299.219614L999.202321,1284.988653L988.957084,1282.427330L976.507838,1277.629534L968.705684,1270.245428L957.925267,1253.378179L954.041918,1240.134266L937.630396,1238.022737L917.381118,1223.229536L898.079448,1206.287325L891.377572,1189.357610L893.224878,1181.536207L890.248688,1173.489908L883.596302,1170.478793L866.207566,1132.183913L855.456313,1116.753516L850.387980,1104.359224L852.146997,1094.788632L849.809292,1081.857089L853.197383,1071.411902L862.531633,1065.164781L865.457753,1057.518306L866.289373,1041.488198L871.540530,1008.241039L874.963763,975.718561L865.098468,966.722718L852.990163,964.186391L846.735678,954.878195L844.331992,939.522798L844.570423,926.278927L868.260941,879.875428L863.360438,773.025102L866.875016,756.707711L877.651551,745.475453L886.886634,732.481520L886.485187,719.525075L870.677261,687.602511L840.730905,663.126482L825.416305,643.310781L817.141895,625.581612L815.775997,616.048595L833.916453,602.105157L841.940660,592.459700L842.948725,581.339941L835.531597,561.049516L836.817864,524.941588L843.800865,497.841930L850.955616,462.771090L850.204470,452.488484L832.611803,431.560955L823.093080,428.699820L815.378089,430.211599L797.004522,443.955047L790.388155,445.441839L786.232829,441.381274L784.407429,435.846412L790.824572,427.637826L788.492783,417.392716L793.876251,408.446988L805.546566,404.361441L808.974282,399.863591L793.258349,395.565646L791.410988,389.481057L792.530758,383.546398L797.058005,382.421937L802.025100,382.759275L804.771374,378.511310L807.159829,348.738090L809.069139,338.343085L811.041637,317.790474L813.459275,238.070833L817.037661,229.862335L817.541186,223.902743L806.512969,220.042127L780.457368,198.652574L765.211961,182.210614L751.944836,165.368856L740.743752,154.299277L718.892928,137.220145L712.459357,126.362968L711.592741,115.493299L718.247193,93.728977L728.753748,70.502878L733.989741,37.331667L730.806694,28.486011L716.451234,13.118558L664.563891,0.000000L661.619509,12.281469L654.154159,20.202579L642.948034,20.777297L635.145156,18.840748L629.928314,28.298603L621.340241,40.754986L609.307520,46.876980L597.515002,54.560706L590.881581,61.282406L586.073529,61.444826L574.194402,45.527642L558.422234,43.915934L528.893725,46.614608L515.659464,42.266744L497.528374,40.130293L454.783544,43.416179L386.419828,36.906876L375.241567,40.430145L372.274223,43.303734L304.614647,44.065860L230.138193,44.902949L167.812551,45.590111L113.302060,46.189817L113.209355,43.478648L95.713834,43.116326L93.758646,48.463700L78.154454,112.307362L76.373016,147.015345L84.527013,168.604772L93.765266,182.248096L104.108850,187.932815L105.113470,195.741497L96.811313,205.711625L97.492169,215.969115L107.189909,226.526463L109.550112,237.633546L104.582947,249.302859L105.711157,277.314230L112.926777,321.688597L113.078356,350.462262L106.140811,363.605954L109.371168,386.070190L122.761447,417.830007L125.066124,431.286086L127.229667,443.980036L122.773011,464.545246L123.639898,477.264200L129.841633,482.136885L126.437171,498.516610L113.447179,526.403396L113.362107,542.908087L126.194403,548.030666L135.322292,565.559886L140.746683,595.495770L146.249872,605.516051L146.778399,611.675652L155.920234,684.179114L167.302221,756.920112L159.983070,766.415684L149.956641,769.189390L143.427555,772.575312L141.557697,779.347156L145.821899,789.292523L143.013298,798.388288L130.504946,804.647875L103.225221,827.749630L101.317673,836.945356L94.078179,856.636211L88.028282,868.655633L79.099988,890.932801L64.860698,949.905494L59.541602,998.757918L58.735736,1013.788478L53.225618,1024.308623L46.992229,1039.451637L17.341359,1081.319836L2.200156,1115.541574L4.124331,1130.409730L4.782370,1145.340358L0.304923,1156.110403L1.072466,1185.034598L4.700665,1209.235970L9.949368,1232.987551L31.280751,1300.181672L42.369110,1340.962933L49.284918,1373.847823L55.346695,1395.962660L61.085569,1404.933537L63.453868,1413.442126L95.276492,1419.539323L101.484415,1424.424577L110.157595,1467.304861L108.569185,1486.645964L102.312130,1493.992584L102.501404,1510.397535L100.999912,1530.763160L96.372545,1538.821949L78.529025,1539.846477L66.418627,1547.567921L50.442581,1544.506831L35.189154,1545.144037L29.014993,1555.289364L36.264628,1556.876133L62.636912,1566.134368L117.236780,1574.468028L190.374014,1596.054890L220.273461,1610.198356L260.027337,1638.347846L279.966859,1638.760156Z "/></g></svg>