<?xml version="1.0" encoding="utf-8"?><!DOCTYPE svg  PUBLIC '-//W3C//DTD SVG 1.1//EN'  'http://www.w3.org/Graphics/SVG/1.1/DTD/svg11.dtd'><svg enable_background="new 0 0 1000 653" height="653px" pretty_print="False" style="stroke-linejoin: round; stroke:#000; fill: none;" version="1.1" viewBox="0 0 1000 653" width="1000px" xmlns="http://www.w3.org/2000/svg" xmlns:xlink="http://www.w3.org/1999/xlink"><defs><style type="text/css"><![CDATA[path { fill-rule: evenodd; }]]></style></defs><metadata><views><view h="653.285699036" padding="0" w="1000"><proj flip="auto" id="robinson" lon0="-14.6067998912"/><bbox h="29.17" w="44.72" x="-245.86" y="-212.62"/></view></views></metadata><g class="" fill="#000" id="country"><path d="M262.090121,598.003748L259.331000,573.345994L258.126695,568.483901L248.889845,556.712519L245.935116,561.592890L239.930171,593.196491L244.112814,596.267286L239.591033,606.795727L258.903551,608.385960L262.090121,598.003748Z M190.087813,606.631220L204.115597,597.400556L210.672073,584.879754L206.284694,555.049172L199.677685,554.464258L193.939040,557.370547L180.908971,566.418426L170.259706,579.907991L164.090599,580.163890L150.262392,586.415152L151.948522,593.598619L163.695691,612.187897L190.087813,606.631220Z M318.890899,548.212996L331.490311,541.157477L338.156228,532.347218L341.202844,521.635989L336.789185,517.888887L321.836976,515.914804L309.440119,528.289381L300.822036,556.054491L304.807834,560.642406L318.690122,563.548694L318.890899,548.212996Z M262.062650,454.498864L258.249089,408.345486L242.118897,404.909115L223.743672,431.486154L222.217295,450.258238L230.613127,460.731852L246.477162,466.251977L262.062650,454.498864Z M376.944776,427.848719L385.969212,421.542614L399.776431,416.424614L400.744241,392.168949L382.887954,397.670800L355.163002,429.164776L373.746542,436.549316L376.944776,427.848719Z M236.423059,298.692225L224.799477,296.955756L181.843042,300.648036L183.345810,312.181838L197.718571,339.435231L218.716136,344.480122L236.423059,298.692225Z M541.906212,651.285699L556.613295,631.800772L574.933065,601.860520L630.781436,477.072882L650.548207,448.466939L662.936548,438.523401L688.648306,437.353573L738.934005,420.665242L780.235495,393.119435L800.837832,381.841552L847.886654,384.820960L903.519795,380.086808L976.299117,353.345239L978.124780,316.623539L978.012509,269.556107L975.836963,250.911905L950.314732,234.132114L935.514925,219.600589L922.853475,201.047753L907.351202,187.832278L908.042653,173.958764L927.842568,162.114178L940.414001,156.082211L969.873366,156.319834L979.712674,149.410489L987.146088,137.474499L995.920260,107.259788L999.233465,75.399954L980.390917,32.609369L981.897727,2.248293L871.722113,1.736487L778.362263,1.316074L660.525407,0.731152L577.649660,0.365576L500.336887,0.000000L440.133753,34.053392L374.942522,70.958218L287.709655,90.607866L187.776615,83.296371L155.737875,88.578926L122.388907,104.974947L97.894851,116.892673L63.290071,124.021371L18.847404,118.135626L0.766535,121.699975L90.224806,178.108024L131.344191,163.558195L153.556585,165.769915L150.046092,177.395156L128.636783,200.718737L125.091607,235.210554L142.348796,262.719901L186.666476,285.495065L245.919647,269.647500L258.477048,277.818045L264.124005,284.599413L250.598139,334.408617L290.688899,343.072671L346.414215,322.527527L392.016171,285.385393L418.013831,275.661167L498.983391,281.747948L524.358650,265.662760L535.277624,266.138004L537.235709,274.363385L527.297558,286.738011L516.947507,289.223903L491.220067,302.841469L423.900205,302.530733L406.839695,313.369947L395.645609,337.497699L394.820969,357.933165L423.495754,398.566450L441.059525,395.696714L455.413840,378.368622L483.874505,371.788332L519.231535,381.220080L535.271547,405.091901L505.240813,411.398008L476.008894,414.267743L417.619033,442.124278L400.615817,475.281583L410.547349,482.976855L426.978299,478.590002L441.576901,480.509250L443.542516,487.345429L428.176104,503.668176L425.854288,529.221587L428.074526,547.554968L452.632855,571.975103L470.465163,568.648408L485.792785,570.384870L483.422086,617.305888L496.942281,616.062947L525.150593,576.453346L539.032138,575.740483L525.546641,624.745255L541.906212,651.285699Z "/></g></svg>