<?xml version="1.0" encoding="utf-8"?><!DOCTYPE svg  PUBLIC '-//W3C//DTD SVG 1.1//EN'  'http://www.w3.org/Graphics/SVG/1.1/DTD/svg11.dtd'><svg enable_background="new 0 0 1000 1091" height="1091px" pretty_print="False" style="stroke-linejoin: round; stroke:#000; fill: none;" version="1.1" viewBox="0 0 1000 1091" width="1000px" xmlns="http://www.w3.org/2000/svg" xmlns:xlink="http://www.w3.org/1999/xlink"><defs><style type="text/css"><![CDATA[path { fill-rule: evenodd; }]]></style></defs><metadata><views><view h="1091.03801549" padding="0" w="1000"><proj flip="auto" id="robinson" lon0="10.4927605394"/><bbox h="46.92" w="43.05" x="124.85" y="-63.02"/></view></views></metadata><g class="" fill="#000" id="country"><path d="M508.440481,1089.038015L522.168218,1086.301505L533.535230,1074.405284L550.284542,1071.953826L601.984939,1072.124858L648.918204,1072.314893L742.348299,1072.675961L835.744821,1073.018025L929.174936,1073.360088L999.541300,1073.626138L999.239687,1026.516340L998.753930,953.789750L998.159169,867.874682L997.583960,785.437248L997.038267,709.270973L996.339037,619.156060L916.558200,619.137057L811.503892,619.099049L712.289710,619.080046L645.195893,619.042039L532.757641,619.023035L494.990614,601.311708L483.552296,589.985580L481.272737,577.101159L479.808553,568.416526L471.076053,565.832040L464.039616,657.771310L473.555651,712.539586L443.354214,766.566713L419.006968,833.155184L413.704835,853.412976L397.272973,863.256818L366.388612,904.095458L345.790183,958.160567L329.321479,1019.313995L349.741638,1026.554347L371.934909,1028.834773L402.748269,1052.323160L399.804296,1061.064793L415.374687,1055.344724L429.226483,1044.436687L438.892473,1042.384304L458.131306,1044.436687L467.822914,1063.516250L473.072352,1074.006209L492.482352,1078.871117L508.440481,1089.038015Z M103.532077,0.000000L82.995727,8.703658L69.959398,34.814630L64.931100,69.401211L49.409746,107.389431L39.999107,113.128522L10.763096,119.760781L6.365253,130.535827L0.458700,165.749510L4.157759,180.895382L14.489101,192.126511L75.504646,210.636019L93.246781,208.089536L113.590458,176.562560L123.346070,139.296490L175.950395,50.891690L177.431556,20.618928L163.410881,0.038007L112.023919,1.539293L103.532077,0.000000Z "/></g></svg>