<?xml version="1.0" encoding="utf-8"?><!DOCTYPE svg  PUBLIC '-//W3C//DTD SVG 1.1//EN'  'http://www.w3.org/Graphics/SVG/1.1/DTD/svg11.dtd'><svg enable_background="new 0 0 1000 930" height="930px" pretty_print="False" style="stroke-linejoin: round; stroke:#000; fill: none;" version="1.1" viewBox="0 0 1000 930" width="1000px" xmlns="http://www.w3.org/2000/svg" xmlns:xlink="http://www.w3.org/1999/xlink"><defs><style type="text/css"><![CDATA[path { fill-rule: evenodd; }]]></style></defs><metadata><views><view h="930.625932659" padding="0" w="1000"><proj flip="auto" id="robinson" lon0="21.7970117885"/><bbox h="114.75" w="123.44" x="268.52" y="-700.54"/></view></views></metadata><g class="" fill="#000" id="country"><path d="M630.763467,928.625933L676.363699,925.220669L721.592898,918.623878L746.099662,916.169085L770.749921,917.684928L784.136959,917.074583L792.716529,913.492550L793.375655,906.554421L795.456807,897.746978L796.134324,882.700172L798.002795,876.295023L794.155734,877.034441L782.022000,890.063850L766.230726,890.036980L751.457830,895.000490L745.661852,901.412796L740.604514,902.748687L735.140481,900.016381L733.535994,894.335631L734.176722,874.748880L731.012878,871.689863L713.139869,874.513587L702.796515,877.525131L682.215657,872.960586L660.406690,871.918464L648.258517,863.250051L616.291599,861.191715L605.820618,863.243324L595.731281,867.258537L585.784055,869.289397L575.599453,870.190444L570.911255,869.591991L566.374688,866.538948L564.016056,861.420429L563.237806,855.156871L554.671962,856.408376L548.155205,853.084336L546.421416,851.408676L547.948003,849.335807L555.961409,845.667462L551.729450,837.702901L543.554551,837.891440L537.562800,845.950180L535.251241,846.771390L524.815507,846.946398L517.026286,845.943449L510.155581,843.082459L506.743210,832.322206L502.686696,829.385591L500.786341,836.389818L501.436540,843.917229L497.014838,848.911789L491.635394,846.643499L489.223992,841.695600L485.189309,846.037687L483.988074,862.463063L486.892424,879.044178L490.823156,884.265859L496.179666,887.302800L503.628638,887.531223L523.775346,885.797827L536.545266,889.123391L590.229441,897.592541L604.260325,903.782424L618.733123,907.393317L622.050613,911.620738L623.543144,917.658101L624.409852,926.407227L630.763467,928.625933Z M892.695264,855.614419L899.014052,853.784174L895.205788,842.705456L888.483704,832.975491L893.011258,821.254364L893.466282,806.623178L886.538036,811.011255L887.116650,819.623793L879.134360,837.352752L885.319089,849.295425L884.127557,856.832257L889.099181,863.357671L892.695264,855.614419Z M419.861494,755.598999L424.097372,747.748653L412.042119,736.474246L406.102307,728.756650L404.262373,730.856613L401.768289,737.554510L403.442807,751.285831L407.151794,757.475356L419.033300,761.599054L419.861494,755.598999Z M961.815400,791.594110L974.062601,775.263425L987.580624,772.800770L984.455395,763.907096L991.965082,752.824841L999.462149,730.647295L998.796012,721.882456L992.117853,722.908891L964.334511,734.097606L954.099835,743.549672L950.353522,752.284842L944.380436,758.116542L945.047892,762.327921L950.350203,772.267739L947.122782,787.722860L951.128432,794.116271L953.967881,794.493905L961.815400,791.594110Z M690.463864,727.554717L688.252435,721.686622L681.217457,716.338177L679.960683,717.499731L682.240140,720.687186L682.501851,725.859829L681.053247,729.445390L678.302700,732.213796L685.885597,734.820059L690.463864,727.554717Z M797.895030,700.892573L792.978305,695.523090L787.039703,693.537365L789.023323,697.785718L784.078543,701.561216L776.346719,699.508002L776.987417,706.214634L784.337869,711.131302L789.332506,704.195242L797.895030,700.892573Z M955.423009,705.248841L956.031396,701.270796L955.579001,695.759485L954.503899,693.179393L951.706890,694.050683L946.344598,697.832996L946.929634,701.128962L953.182164,707.450570L955.423009,705.248841Z M579.681196,676.219357L571.419976,678.475300L570.501920,681.035191L567.888436,683.250610L559.911578,678.914331L558.762721,681.859219L557.437210,691.180145L580.067991,687.255917L580.582977,684.344810L579.681196,676.219357Z M675.687536,688.633791L677.977611,682.642721L664.631673,672.707121L660.980932,676.955577L664.657899,682.061849L673.930821,690.801908L675.687536,688.633791Z M850.922424,681.291855L859.767047,675.253490L872.842332,674.307888L877.153841,669.944630L894.180819,661.677558L883.994353,656.666130L878.399772,657.564394L861.932273,665.621946L850.969416,674.773935L847.432040,681.453959L850.922424,681.291855Z M727.812449,672.531510L740.726368,660.184922L749.375692,656.997069L741.783310,652.201896L735.854132,659.232612L726.310434,664.629089L724.565788,667.695476L720.581947,670.235062L714.787475,672.626070L718.014852,673.666230L727.812449,672.531510Z M598.536315,654.410358L602.937093,650.567520L596.751220,640.248495L592.893841,640.552379L592.004069,643.739840L593.095566,649.176290L596.542212,655.011444L598.536315,654.410358Z M855.712009,649.210058L857.149606,646.866613L857.431807,643.327896L854.620832,642.206875L848.518260,636.338605L839.319907,631.476800L845.646351,640.140448L844.710122,651.121315L855.712009,649.210058Z M659.248750,634.083234L658.219902,631.902197L657.973601,624.481717L653.333976,623.003111L643.928877,628.688144L640.236300,638.708830L643.793011,643.591270L651.305029,644.746071L659.248750,634.083234Z M690.429825,648.028200L693.824269,638.107827L692.792479,622.449486L689.743095,617.946384L685.226377,616.386912L668.521946,633.806381L673.409185,645.705037L680.913357,653.268977L690.429825,648.028200Z M573.944481,626.243931L574.814393,620.356552L573.748087,616.947237L568.457215,614.476442L563.974708,617.703347L562.804210,625.291925L569.982299,628.323532L573.944481,626.243931Z M561.440436,595.921938L565.773349,587.136459L561.581956,581.395142L559.333892,577.853604L555.565413,581.280458L553.135578,585.530700L556.713283,590.530339L555.451563,600.112830L561.440436,595.921938Z M616.310601,575.324129L612.055876,573.199500L611.584288,581.840386L612.179721,587.332123L614.094817,589.545209L617.055171,589.666662L616.310601,575.324129Z M668.676019,585.598168L674.435104,581.739193L674.749857,578.420228L661.422137,573.159032L657.712478,575.904207L658.061429,586.448269L668.676019,585.598168Z M737.307900,570.366849L756.418698,564.965195L766.021069,557.912620L771.378957,550.356052L768.515792,550.531296L756.235440,555.330647L742.291623,555.795791L733.197746,565.369784L732.117791,570.892897L737.307900,570.366849Z M649.951503,560.670095L646.149980,556.382287L631.002328,553.989181L624.728274,549.479851L619.986815,549.998829L622.594232,554.272300L626.976414,558.620507L639.524296,568.202043L646.626377,569.577793L649.951503,560.670095Z M549.666050,563.812140L553.784334,553.847623L550.945449,549.196776L544.450535,549.884249L540.592936,560.461085L542.774678,570.521965L549.666050,563.812140Z M822.353205,531.435933L813.326578,531.664947L802.031450,535.652786L796.371019,543.535834L800.105762,545.362044L812.194417,546.056168L820.423917,552.748882L826.918768,554.440824L841.038042,546.743570L849.512934,545.530519L846.953760,537.148375L840.300911,535.497842L836.532720,535.982886L822.353205,531.435933Z M159.704893,532.271168L153.899019,527.394843L144.710020,525.704505L136.399224,515.147491L129.154935,525.421670L131.224280,529.819423L139.740403,540.813578L153.387704,551.677141L162.785611,542.376822L172.520998,545.705735L159.704893,532.271168Z M618.401314,538.583407L616.672273,533.436499L612.322056,525.058030L612.603153,518.560525L601.188656,517.335279L593.001411,506.795353L590.017391,507.158720L583.296804,510.718672L585.672482,519.375146L591.849390,523.260108L596.016153,529.698189L606.245625,537.081004L615.961441,547.862315L618.401314,538.583407Z M455.514133,515.652348L453.180613,509.540934L450.832275,507.360593L447.219520,506.660774L444.952442,508.141185L442.848268,513.612792L440.760427,514.911895L442.774183,517.638219L446.403352,518.890410L451.398535,519.058720L455.514133,515.652348Z M122.719366,452.677522L116.263457,440.093027L115.027114,442.621246L115.476847,451.140857L112.946641,459.691520L108.844606,461.631764L103.273000,456.409026L100.543630,459.080622L95.475421,474.903387L95.949772,480.662215L100.147862,479.486121L106.475616,473.190178L109.000394,475.306516L112.195771,480.043917L112.051238,482.826408L115.785828,490.745822L120.944174,491.983083L124.857693,488.943855L142.684706,495.715476L144.655943,493.200242L144.987394,485.864735L133.430526,471.537581L125.342076,468.555208L122.719366,452.677522Z M139.603521,460.087609L137.035028,455.093513L133.612645,450.577224L132.142685,446.826850L131.888026,443.325460L128.672149,439.905270L125.795705,438.852531L122.933383,439.355423L126.180105,448.423510L134.216962,461.578052L139.603521,460.087609Z M735.350663,475.407300L736.144345,473.190178L736.376050,466.936596L741.215620,463.733368L738.126486,440.984901L736.948586,438.550803L738.329040,431.063040L732.722926,430.526897L721.042429,422.694610L702.909591,426.493012L704.377960,435.500309L717.731069,448.188698L722.080967,456.778193L718.451915,463.773657L710.172272,468.313415L712.484858,471.933922L725.469821,483.189370L735.350663,475.407300Z M128.557376,421.736783L131.361581,417.671717L130.127107,395.631484L126.798003,389.461851L120.483295,393.111157L116.424160,400.974490L113.652497,414.444555L114.154635,425.320566L117.206006,422.694610L120.534927,422.071681L124.318196,422.795084L128.557376,421.736783Z M569.521192,394.254272L558.223631,384.724574L555.482187,376.056214L546.274715,370.856652L545.163322,373.399434L544.741779,383.388552L557.183617,391.085872L557.146727,392.857144L554.933194,397.069013L558.098404,397.597258L569.521192,394.254272Z M427.717113,373.813268L415.355120,363.391452L409.350841,363.878322L397.229794,367.793980L380.593294,379.655089L368.262440,385.866980L369.767211,388.994062L375.908535,390.090050L385.867163,385.472805L398.977733,389.381658L411.539551,395.350682L424.798198,404.419432L437.028437,415.268018L442.013891,421.154079L447.742599,425.400959L455.235465,429.441265L460.311077,444.472387L472.854692,450.221608L487.050051,450.288705L504.320964,451.764901L504.716072,453.945876L507.593884,459.020205L512.222020,461.819757L517.750051,471.967511L523.242174,477.302133L524.293774,484.547175L526.887429,489.246413L539.396256,497.121175L544.570918,502.879431L550.957229,503.155273L554.370537,504.749839L557.673946,508.120997L561.119202,509.581312L564.808666,508.228667L568.982151,502.657415L568.765547,488.358921L565.668558,485.118555L554.627901,485.447947L542.782466,483.054939L532.708242,475.138545L525.010640,458.825528L519.799155,441.675633L521.900071,436.070138L520.171655,431.022828L514.561235,424.536751L510.774446,416.278997L507.316391,413.192712L482.567050,411.057460L460.487947,400.352483L454.611624,399.596748L441.707706,393.672675L435.357317,388.659938L427.717113,373.813268Z M466.186181,352.538646L444.364462,339.692096L453.815983,355.137632L461.666890,357.157232L466.186181,352.538646Z M477.626502,346.549821L482.821586,340.790389L485.403830,331.634546L476.757581,337.269570L472.588067,348.148319L477.626502,346.549821Z M754.977314,323.230565L747.291288,315.942183L727.222219,317.230743L727.749673,322.884970L719.667036,326.653880L713.081709,329.333452L700.080536,328.934467L694.052826,340.856956L695.608428,343.772951L701.797013,349.187460L720.836533,355.104308L730.939854,341.642471L741.670978,341.196452L739.037024,345.757313L724.985819,357.090573L731.636187,364.625337L757.825720,371.724211L766.570577,371.877708L774.974134,368.961577L769.553452,363.864982L767.331394,357.943835L772.238521,359.370516L778.529279,363.864982L779.570794,361.490845L776.772850,353.204999L770.647259,344.711818L753.901694,331.308639L754.977314,323.230565Z M51.955305,309.183137L46.291588,307.908835L37.954839,304.060335L34.473420,299.238477L30.761853,286.468756L30.656266,283.826754L23.767825,277.234834L25.216933,273.914124L32.874811,266.588898L31.388090,262.935058L27.326219,259.751524L21.199258,256.661526L6.927658,259.639262L0.537851,263.833517L1.253618,269.371543L20.490355,288.462319L30.155102,305.267813L40.784349,312.077442L54.972972,316.812276L51.955305,309.183137Z M638.000646,234.627019L638.527756,227.682255L630.464457,230.281551L628.075199,234.429476L621.594692,238.269214L615.202828,231.644031L595.821837,232.421382L595.523094,235.562118L597.879614,244.536340L598.348341,252.299039L605.823992,255.889191L612.256088,255.334735L613.980318,252.701539L615.651455,246.870366L618.457552,246.659355L619.276213,252.028516L621.003217,256.278651L625.149121,258.556336L631.567922,258.285624L632.055214,247.041816L634.304955,239.178358L638.000646,234.627019Z M658.964605,175.052008L656.049165,170.055911L651.234745,166.290939L644.740334,163.095783L631.944466,167.519623L646.880164,178.552145L658.964605,175.052008Z M555.806260,149.816628L554.569830,143.979118L555.872788,137.975509L554.097262,134.450586L547.298791,126.981145L536.663522,126.095842L532.849666,129.318440L526.429545,140.197935L526.868640,145.563719L542.181643,154.593511L555.806260,149.816628Z M695.506185,0.000000L685.591634,2.391392L683.533173,5.234461L681.876657,9.316233L683.589385,13.682928L687.841970,17.908921L692.732576,29.367125L695.352628,40.834531L693.939788,47.338040L686.919038,51.981634L671.819342,57.118653L656.354780,54.666349L649.892560,56.704511L638.727716,57.358085L628.521846,58.723578L613.129705,63.423014L599.088712,66.181341L585.091327,56.607449L569.021024,50.086490L552.502020,46.212955L547.214006,49.038779L545.039503,51.263646L530.652823,42.805942L524.281391,39.793999L520.998789,36.530727L514.158271,25.266956L510.791190,24.911878L500.165380,29.102354L489.483924,28.902165L482.925967,28.140180L463.873966,28.611573L462.168251,36.304589L459.931097,37.499936L455.898315,38.527371L445.685917,38.042722L433.294023,43.730341L419.718288,47.202249L408.836099,47.299242L397.424738,45.618120L390.824812,46.820748L376.387770,47.441501L368.048849,55.772740L353.697089,55.300409L341.531985,53.889989L335.293078,53.747662L327.094839,54.459315L324.193003,57.008645L322.668834,74.809884L309.871387,79.897851L298.071010,82.776576L287.817373,82.128154L269.490878,77.907782L263.601309,77.447584L258.828961,79.852471L242.972998,81.123170L236.261562,84.248623L221.784753,105.117075L205.761956,112.317915L200.414246,115.965612L187.211741,111.349300L181.057406,110.874775L172.716718,116.206234L153.390792,116.739522L148.245849,117.669587L133.392356,118.502160L133.364592,128.445963L137.598103,136.118423L143.066669,144.011720L143.483495,148.844563L141.013759,156.741243L136.141343,165.970723L128.903356,169.513299L120.840332,172.520936L117.503613,179.697332L116.152966,187.337671L112.923921,193.004885L111.162167,199.219927L108.734067,211.938742L108.304521,216.563521L103.057640,221.236774L94.475402,223.143608L86.668627,223.538177L81.547327,225.708635L79.231102,230.057783L74.534348,233.580093L71.645701,235.147238L71.993190,239.013650L76.313580,247.134137L81.002530,253.730967L81.532909,259.025148L79.625865,260.497772L73.165942,259.830769L71.968122,261.785688L71.768183,267.692603L70.470419,272.756780L68.089403,275.845551L63.785118,279.213258L55.308559,278.114818L47.003737,273.034530L42.758878,271.467337L40.417618,271.639252L52.033077,280.874391L63.275535,293.822432L77.814182,323.549586L97.177524,333.330743L109.842753,347.995120L124.009552,358.943827L126.819102,363.358106L134.476570,366.993404L150.042321,363.138021L162.518670,364.571977L166.277436,363.751600L171.832043,364.065071L175.313534,371.003466L176.827996,378.813704L172.596077,382.339870L168.566802,383.862825L147.829604,376.209764L135.114419,378.019113L134.731582,385.332509L136.394372,394.488255L147.458192,398.841055L162.032436,415.522430L171.220360,436.204218L178.477092,452.496336L186.641046,457.872313L199.768040,453.972720L202.152350,447.041518L201.589874,438.396588L204.447110,440.113144L209.056430,449.315826L219.202069,461.195359L229.659060,459.516976L238.608224,456.711071L246.057128,456.570116L255.676678,454.932437L273.043080,448.678453L302.851961,456.872163L313.169629,456.321770L320.109458,452.375547L323.543821,445.096187L342.651507,457.959577L362.297981,465.580025L365.945310,469.401509L371.912494,473.116278L383.238336,477.624676L390.085129,475.756688L394.587692,477.604517L401.250700,478.384017L407.665900,481.186439L412.027618,487.021032L409.022915,492.157919L405.900758,495.332119L387.231791,495.157257L380.640041,498.419342L383.810219,504.406695L384.759801,511.183053L376.403131,509.904344L371.024875,508.026786L360.430099,498.970919L342.298110,489.838095L306.632235,479.445799L272.752102,461.222214L258.348102,460.268872L250.463981,467.682080L241.547637,481.320857L229.441528,482.765915L218.121158,477.241657L212.921459,478.350417L204.129985,501.655004L187.115364,516.561116L185.148339,520.378311L187.035593,525.542884L194.820174,529.031410L204.698768,536.528571L210.397545,551.043551L220.426490,555.101448L238.832836,568.761778L252.540217,590.010781L254.905263,600.780977L243.358017,615.833342L245.097563,632.347853L264.814322,662.461027L283.465086,679.880200L287.452311,670.701105L287.149008,658.509941L287.826201,644.914902L293.831181,641.261446L301.398241,639.539436L308.083077,648.534709L312.219432,656.983561L319.885119,659.786437L338.101954,684.777087L339.301772,692.483710L340.020421,710.827392L346.374433,716.054540L353.619889,720.045651L352.254674,703.276714L363.318770,674.010699L375.362418,672.045202L382.480525,673.119133L389.468101,686.823642L408.139444,708.781048L417.319415,714.508030L422.910347,719.363594L428.941361,719.883579L422.386655,706.120081L413.362675,692.713353L415.542511,674.672620L413.175384,663.805088L404.010748,641.349235L384.760223,603.332161L373.964032,589.167357L367.827060,568.606670L372.878042,562.672609L381.990385,569.975691L392.165130,572.066414L400.915380,576.942974L410.489841,582.636440L411.773519,593.249677L419.003396,597.386348L423.476338,595.355082L428.680497,591.380536L454.419096,582.690411L454.292215,579.418587L450.265433,574.851979L444.224840,568.687596L442.364815,563.407569L436.719669,560.953271L427.261239,561.249935L419.690736,557.824977L412.932084,544.566854L412.000377,533.658793L404.504170,525.684302L398.647388,522.202962L399.603558,518.856748L403.940204,517.449722L415.247330,511.082100L440.126815,506.526196L448.705757,500.632457L452.684848,500.921725L457.779542,503.982818L476.312593,521.415181L493.739637,536.077201L505.494054,550.019049L510.860504,549.884249L514.452890,545.483346L514.432736,536.528571L513.790999,530.540105L508.938847,511.593601L505.707027,486.180694L502.490808,474.204648L497.613924,467.574621L482.397861,460.631405L465.129595,456.925861L450.704600,438.108278L427.926248,433.147465L413.352934,414.531586L400.456097,413.607750L386.501603,403.476170L358.416303,395.464339L348.211702,388.786904L342.280244,388.579749L334.841239,386.281209L337.632918,383.121364L346.426929,381.979195L360.365540,381.611852L373.999193,375.308522L388.011157,362.977962L376.867658,363.938348L372.923769,352.931790L366.328452,344.958200L360.010718,332.878398L368.555310,326.374657L376.170771,323.011244L395.808989,332.991483L397.182838,339.439171L392.684110,350.033495L396.986396,354.304562L404.015257,353.904709L415.264282,344.285656L409.471612,328.761578L402.484988,319.283462L386.392391,301.121847L371.685611,291.377224L364.247045,282.549051L352.856855,259.302485L322.940597,227.399342L319.369938,216.300684L321.350922,195.187533L324.294466,183.087902L321.534387,174.777285L321.173948,165.813886L333.026527,160.339250L340.134865,154.704476L352.181883,153.066226L349.819806,161.972173L345.687540,166.473925L351.846430,178.624124L375.336188,191.445234L400.087477,203.240999L403.542398,220.257220L412.298324,233.744696L438.770304,242.618158L441.967697,241.214396L443.479043,237.920076L419.088068,222.413701L414.798270,216.826366L408.226159,202.499622L412.065407,196.859284L438.892040,202.250323L460.447938,229.373353L473.549399,237.017652L477.008326,233.178477L478.689946,229.057480L473.799126,216.944649L467.740723,211.472457L456.676987,204.763311L444.226864,193.863462L444.459636,188.031963L454.473827,182.898050L464.495448,184.135430L481.005648,191.543524L492.660379,194.702455L501.673863,203.411590L514.844537,212.483866L507.935375,199.836418L497.960932,188.293974L476.747062,177.361299L465.933003,177.838928L458.567026,176.124809L453.865714,167.689560L458.182156,159.281260L446.001593,148.107422L441.427216,141.560304L442.605487,132.112153L462.769885,132.040510L478.099619,135.277956L493.964280,127.000675L508.610747,110.133776L518.365881,105.474408L527.278581,107.092295L541.659013,115.894077L554.397105,117.487470L576.081511,102.843402L586.653568,99.225951L603.568041,107.462688L611.683004,106.091647L631.356236,113.455659L671.478375,119.276250L689.666043,129.266350L693.409946,134.919638L696.591719,133.115205L700.792038,131.864661L707.299512,121.618371L713.289071,114.066838L722.076131,104.577848L723.954859,98.914268L723.343468,93.636408L720.558456,89.976423L719.592576,85.630048L718.578142,79.489439L717.646144,66.815971L738.596607,52.984295L745.654177,51.522376L747.378369,45.217268L743.974727,30.607092L739.449514,18.825248L735.322100,18.037978L729.486955,14.598997L725.448983,10.619015L719.239169,6.266087L709.105202,3.596894L695.506185,0.000000Z "/></g></svg>