<?xml version="1.0" encoding="utf-8"?><!DOCTYPE svg  PUBLIC '-//W3C//DTD SVG 1.1//EN'  'http://www.w3.org/Graphics/SVG/1.1/DTD/svg11.dtd'><svg enable_background="new 0 0 1000 534" height="534px" pretty_print="False" style="stroke-linejoin: round; stroke:#000; fill: none;" version="1.1" viewBox="0 0 1000 534" width="1000px" xmlns="http://www.w3.org/2000/svg" xmlns:xlink="http://www.w3.org/1999/xlink"><defs><style type="text/css"><![CDATA[path { fill-rule: evenodd; }]]></style></defs><metadata><views><view h="534.684194699" padding="0" w="1000"><proj flip="auto" id="robinson" lon0="-37.6254858918"/><bbox h="317.08" w="594.13" x="-696.71" y="-1307.64"/></view></views></metadata><g class="" fill="#000" id="country"><path d="M258.756263,507.816138L259.525555,506.273201L260.651278,505.052618L261.392479,503.659806L257.370290,504.549488L248.420223,507.856224L248.267393,508.406194L250.738576,508.213256L252.747392,508.858513L253.390773,510.247164L255.425337,510.924146L258.756263,507.816138Z M475.233547,388.225030L476.389101,387.149725L477.672883,384.987192L476.336742,383.535669L472.846641,384.195790L471.918066,386.304718L472.304322,388.240687L475.233547,388.225030Z M254.327840,291.061793L255.432799,290.340842L255.672127,289.518709L256.361834,288.422691L258.350858,286.242885L261.611183,285.277562L262.960047,284.538079L263.507274,284.079354L259.475435,282.663637L256.879721,282.299537L254.722722,282.540731L251.549400,283.932217L251.560878,285.126882L250.423403,286.824155L250.226408,288.191121L250.360495,291.076792L250.645405,291.711455L251.129815,291.897277L254.327840,291.061793Z M227.817183,281.816093L223.372825,277.209769L220.643517,275.697364L219.425302,275.324317L209.015621,273.564219L202.763634,273.076169L196.095590,274.507535L194.217200,275.406701L193.363181,276.071630L192.767504,276.735651L192.434747,277.395326L192.260789,278.518223L192.520053,279.282866L194.206763,280.254308L199.307122,281.882689L198.374925,282.307577L193.462496,281.323590L191.073367,281.695539L189.562004,282.823312L185.983860,287.258208L186.379561,288.404257L187.088185,289.219000L188.114721,289.690487L191.992636,290.478091L198.396117,290.756077L200.763451,291.045641L201.841614,291.506032L203.651633,291.349094L204.020926,292.153533L204.938487,292.521816L205.800771,293.126920L201.316372,293.800377L198.483655,293.785357L196.381053,294.010663L195.662921,294.585021L196.329433,295.511049L197.279509,296.156405L199.569839,296.989433L201.107187,297.885331L201.761750,297.981426L204.895717,298.064790L216.228149,296.026854L220.656541,295.522613L233.878362,292.559918L236.777657,291.120634L238.962129,289.826536L239.174654,289.073773L238.145913,288.429604L237.927629,287.903136L238.518984,287.494273L238.869607,287.050955L238.977924,286.573209L238.913214,285.657190L238.576545,285.052121L232.873182,283.728774L227.817183,281.816093Z M256.754022,260.528194L258.112769,260.211527L257.939788,259.670255L255.386398,258.520156L252.896767,257.711888L250.381994,257.907971L248.936217,259.385498L248.755905,259.899453L249.064322,260.169536L254.360360,260.590626L256.754022,260.528194Z M721.606308,258.991904L721.264119,258.499746L718.727090,257.715288L717.989157,257.213275L717.068717,256.190411L715.451461,256.153041L705.586806,259.040673L700.308073,260.053781L693.972145,260.354531L689.341214,260.241035L686.758380,260.053781L682.920086,259.167707L681.198748,259.554532L679.937276,262.051000L680.006680,263.842276L677.970055,265.490740L675.427019,266.114559L674.807798,266.591673L673.094771,268.469435L672.957496,269.112505L673.412702,269.572140L675.202158,269.879006L679.046724,269.302960L689.758954,268.069340L698.769784,267.558802L703.250433,268.537836L704.090256,269.871020L705.084717,269.877866L708.382234,268.591419L711.196088,267.099666L713.305871,266.496012L720.670939,265.242637L721.883802,264.296054L721.903662,263.807025L721.542119,263.195352L720.202685,262.285040L721.116248,261.938535L721.551703,261.550072L721.816121,261.006135L721.904926,260.360206L721.606308,258.991904Z M225.975227,256.218721L226.991527,255.859773L227.869989,255.242817L228.571408,254.493694L229.097850,253.609174L229.309927,252.858460L228.799981,251.382806L228.082402,250.285315L225.867256,250.610429L222.147892,252.363429L220.034375,253.560549L219.526990,254.204085L219.546934,254.747139L220.093057,255.190753L224.246367,256.370475L225.975227,256.218721Z M221.097876,216.075288L221.186322,215.408801L218.467545,214.929574L217.758288,215.311395L213.966908,216.131763L212.341660,216.311165L211.336112,216.318918L209.910856,216.016600L204.116182,216.275726L202.287152,216.934788L199.491653,217.707148L200.126249,218.859116L201.673090,219.131973L203.674648,218.861334L204.748908,219.003303L205.348262,219.229591L205.379883,219.585721L205.707518,220.022938L207.251273,220.189420L207.776552,220.882153L208.757476,221.225290L209.552507,221.133114L215.328744,218.498698L217.810212,217.614048L221.097876,216.075288Z M871.647715,157.750404L867.668634,158.522686L863.793332,159.489162L860.991613,158.137562L856.988076,159.682964L855.969641,162.393494L855.246458,165.108849L858.613053,166.661333L863.971119,166.467729L876.746794,166.857484L880.186391,165.884906L878.907910,163.363565L874.447561,163.555719L872.655747,162.200412L872.497257,160.069572L871.647715,157.750404Z M864.926514,143.917236L865.340548,136.113545L865.330052,131.006266L863.182644,129.685964L860.259641,129.874762L859.263195,132.328418L858.527594,135.544644L862.910004,144.490616L864.926514,143.917236Z M13.172071,116.510636L16.937000,115.914208L18.239455,115.058862L16.489222,114.872330L14.102851,114.277164L10.604247,113.683487L9.024316,113.534117L6.414059,113.608798L3.053933,113.943419L1.895772,114.277164L0.936884,115.244414L2.313626,115.877267L7.249524,116.696535L13.172071,116.510636Z M882.725329,109.871670L886.627632,108.537398L888.394659,106.956199L888.104273,105.377564L886.062143,105.045893L884.562022,105.294631L879.525699,108.371805L878.567658,109.329323L879.601545,109.871670L882.725329,109.871670Z M867.598087,102.995774L870.131354,100.089449L869.488360,98.098790L870.190383,95.215713L870.821612,93.777771L869.789631,93.419319L868.021312,93.777771L864.398211,95.394950L863.874857,98.641169L864.428349,101.540998L865.305182,103.723856L867.598087,102.995774Z M898.285504,65.987420L902.085661,63.786362L901.393434,62.099516L893.611872,61.594879L884.681044,62.435972L877.380045,63.786362L874.758084,65.478118L876.005918,67.007821L881.497580,68.030602L891.183096,68.200665L898.285504,65.987420Z M891.589535,28.924560L889.854482,27.139063L886.522964,25.420272L883.177539,24.150612L880.457588,24.261782L878.541552,24.922981L878.358699,26.417352L881.369833,27.695855L886.000813,29.260131L889.895783,29.484614L891.589535,28.924560Z M501.481591,24.828313L504.557898,22.117762L506.703238,19.432534L505.090493,18.099078L498.844198,16.478293L485.514631,14.576280L479.476938,15.013510L472.202183,15.159143L470.366280,16.117440L470.250719,17.214489L476.357656,20.325057L484.339174,21.518388L493.124994,23.319432L498.255117,25.130853L501.481591,24.828313Z M297.308795,532.684195L299.882234,531.897097L301.574512,531.810073L302.611954,531.569191L301.545132,530.404100L298.168911,528.068747L298.076839,527.262726L303.223326,528.979770L304.068984,529.548174L309.898882,529.775057L312.108458,528.144342L314.899702,526.340804L315.700992,521.129877L316.016850,520.161772L316.441633,519.342233L315.794272,517.854478L314.601816,516.457768L310.134527,515.737022L307.762340,514.966214L304.643138,514.477956L302.877308,513.310933L303.443019,512.592090L306.019523,512.612161L309.693052,513.088866L314.172557,514.534435L317.220120,514.855754L317.874631,514.607231L320.220899,514.434029L328.662066,508.173166L332.469510,500.570871L337.887136,492.933183L340.772904,488.486206L342.823655,486.435477L343.810202,484.796557L338.985851,483.885983L340.367761,482.922196L343.748577,482.431084L345.983141,482.513138L349.403434,480.328219L349.331713,477.881557L350.030096,476.353640L348.587913,475.193600L347.688930,472.817753L350.228791,469.358811L350.999984,467.872073L352.086334,466.619840L351.772320,464.873481L353.678301,463.705245L354.358545,462.281696L348.514233,461.529403L344.837515,460.535270L341.646368,459.543920L340.336736,458.444298L342.182044,458.281424L344.158159,458.625690L350.384203,458.370263L352.346300,458.770071L357.219033,459.106987L359.156923,458.101285L360.459493,458.017388L365.303972,454.124854L367.042008,453.503882L367.677085,452.076366L362.580116,450.064927L359.990203,448.439752L359.330384,447.569082L359.195638,446.122206L360.617584,446.611387L361.773211,447.360060L364.420469,449.610874L368.549917,449.756065L372.058816,449.644095L373.158051,449.822511L375.894709,448.089241L378.053678,446.111145L380.261670,444.486846L380.017941,443.593976L380.009044,442.597023L382.365503,441.005282L383.324203,438.454362L386.000608,438.603924L388.733929,437.956695L389.543564,435.634936L394.572341,433.151004L394.659225,432.221136L394.236485,428.080662L396.528579,422.981263L392.810210,422.211880L390.062930,422.414265L388.567328,423.248339L386.268952,421.841284L379.519313,418.823421L387.061924,419.244782L388.813921,419.617482L390.365704,420.403233L394.124536,420.733434L396.303619,419.606520L396.577333,418.040536L400.900218,417.674126L405.323089,415.695592L407.599102,414.298300L407.521861,412.895616L406.695081,411.411031L404.384129,409.490242L403.930769,405.707126L402.110536,403.477729L398.519472,404.401986L395.856466,404.630978L395.654927,401.687020L394.892989,400.502806L395.508030,398.880873L399.204685,399.347640L403.444140,398.684999L410.791389,400.167697L415.471707,398.838553L417.496166,397.871426L421.678990,395.067476L424.025021,394.253771L425.848626,392.945593L424.601110,392.250730L415.746626,388.458692L416.355247,387.628922L420.351260,387.627718L430.879019,386.886083L437.168301,386.273427L445.765146,385.947297L454.570960,383.795369L455.357527,381.354488L455.295720,380.679473L451.697019,378.630282L450.922388,376.468815L453.001773,377.127138L457.225699,379.076716L458.998004,377.380199L462.228767,373.243209L464.578509,371.722894L467.197346,370.292003L463.247432,368.794987L460.609165,367.254669L462.663189,366.940509L466.992671,367.257058L471.252889,368.178268L476.277173,368.763909L476.353592,369.242085L471.689618,371.931135L464.382851,377.247069L463.141214,378.925496L463.286509,380.225558L462.119279,381.282414L458.347037,383.847072L458.642315,385.719872L462.103336,386.718762L464.086662,385.787255L466.844361,385.840200L469.041787,385.159215L471.024353,383.587367L471.806832,381.862666L473.343345,381.915532L477.156834,379.865364L477.623378,380.611020L478.941577,382.051306L480.925959,382.327682L483.119232,381.743722L484.007187,381.866271L484.693759,381.319652L487.513817,378.158730L488.017069,377.365807L488.186329,376.516774L490.422381,377.695662L490.014184,378.423893L489.665345,380.864424L491.608233,380.027445L497.068844,377.034794L501.823801,375.252142L503.789102,374.196565L505.912801,373.271948L504.890213,368.773471L504.086732,367.920151L503.870967,367.223610L503.505328,366.749404L503.659452,365.889616L506.185834,367.539001L506.777447,368.278653L510.856815,370.292003L513.160937,370.119776L514.939607,370.567111L517.268375,369.860263L526.593968,366.051997L527.898580,365.168580L529.237953,363.886993L530.610433,362.206671L531.860486,361.278159L533.928726,361.141118L534.685258,361.403291L536.205489,360.670468L538.487833,358.942359L544.061220,353.672805L550.701493,348.036844L552.755695,346.000560L553.722750,344.545813L553.603329,343.672695L554.001163,343.120365L554.914122,342.885044L557.314833,341.529169L558.624939,340.488280L562.094565,337.080672L563.205150,336.320063L564.439078,335.811955L566.984102,335.294533L576.733056,331.188890L578.262955,330.904238L580.264296,329.938811L582.734704,328.295856L583.368548,326.562573L582.172513,324.738011L580.511069,322.963034L580.815264,322.673596L582.134423,322.670081L583.267306,322.412315L584.213330,321.901562L584.166395,321.077116L583.124687,319.941681L582.646155,318.777611L582.727507,317.587294L585.842548,318.841940L592.029062,322.556426L597.258289,324.993709L601.533251,326.162328L604.887111,326.607179L607.315762,326.330164L611.969971,325.247091L612.342864,324.179803L610.799235,322.677111L610.816520,322.047981L617.788661,323.436531L620.062688,323.300566L623.151049,321.550196L624.909243,320.912030L626.727048,320.599457L629.547781,320.617016L634.657007,321.133318L637.937350,320.906177L641.087661,320.111372L645.508052,319.443217L654.943218,317.366375L659.467106,316.589253L664.560337,316.242270L675.718192,314.070547L679.181368,313.652808L684.304910,312.397758L687.343005,311.955871L690.461744,311.882427L693.174812,311.256506L695.480174,310.077447L697.285223,309.371731L700.795193,308.510294L705.858612,306.780364L707.363915,305.873521L707.863195,305.243620L708.673996,303.661592L709.477175,303.073003L714.634741,301.982188L718.269867,300.234636L718.629043,299.586795L717.036278,297.972164L718.108293,297.697784L723.013382,297.201218L725.417137,296.600643L731.090343,294.500648L734.055144,293.737989L735.602463,292.792011L735.734425,291.665290L735.461040,290.828752L734.781806,290.280871L735.690047,290.166701L740.987151,290.930272L742.608284,290.752617L744.811305,290.208217L745.550701,289.296228L744.828796,288.019477L744.073269,287.159184L743.286187,286.713642L744.294187,286.537526L748.922983,286.623856L754.833284,285.423652L758.198913,285.393743L758.885353,285.108479L757.945889,283.269094L759.010489,282.848586L762.925626,282.330546L764.728490,281.801167L766.762251,281.592212L770.129460,280.851872L773.002358,279.732396L774.086072,278.929739L774.791725,277.983044L773.485589,277.562572L757.560819,277.826072L748.861482,277.246420L742.404202,276.263943L730.373593,273.596227L716.771551,272.236382L715.046512,272.381461L705.028059,274.754591L700.256558,275.323172L694.374068,274.834662L689.224655,275.794643L686.793552,277.210914L683.882070,279.625738L681.647728,280.714167L677.486259,279.853972L679.264836,277.594648L683.958300,275.421576L686.409303,274.517828L688.886522,273.920908L694.481276,273.038456L698.150853,272.144999L699.592554,271.220004L698.809512,270.263517L697.953985,269.659974L697.024982,269.406749L695.791812,269.375954L680.293003,270.984831L672.810962,271.088715L663.906983,269.344019L662.273189,269.323489L656.387907,270.037593L654.264341,270.090078L654.994078,269.703322L664.530733,267.694400L666.689100,267.088274L672.012034,265.173220L673.617681,264.162980L674.780960,262.817989L676.068666,260.893734L676.176342,259.598778L674.166439,258.915917L671.210292,258.342148L669.587922,257.329984L671.359258,256.999140L678.644110,257.126032L682.130970,257.317520L688.129775,258.261653L692.828102,258.444188L699.037957,258.314938L701.651851,257.892102L709.509260,255.999041L712.280857,255.013068L717.585298,252.910457L719.356911,251.019160L719.372056,248.639193L718.747191,246.985548L717.482046,246.057373L713.520421,245.645253L706.857621,245.749963L701.891566,245.582205L695.586538,244.847180L695.029788,243.245342L696.491464,242.684360L697.857481,242.592191L703.228500,243.679408L711.635442,243.527585L717.256133,243.942597L721.043744,244.907951L724.404028,246.263468L727.339769,248.006639L730.898949,249.433297L735.082107,250.539305L738.600608,251.986030L741.456019,253.772020L742.893112,256.090760L742.906920,258.944270L743.955060,262.020327L746.042420,265.317747L748.748544,267.516643L756.470817,269.949741L758.869157,270.148270L763.322131,269.954305L767.737308,270.269222L769.448853,268.960839L771.522431,263.641012L772.153074,262.627064L772.453912,261.630711L774.283255,260.416957L773.528722,265.335956L773.724759,266.193121L773.552419,267.140676L773.546224,268.497936L773.310469,269.682788L778.954291,269.461498L781.057727,270.125449L786.829674,269.539060L788.924465,268.192437L788.310072,266.693032L788.394489,261.704539L787.761168,260.503222L788.179264,259.118934L788.598668,255.023254L789.457825,252.392810L789.606359,249.352066L789.319150,246.100167L785.788395,245.411085L781.864044,246.694879L780.723319,246.754586L779.491322,247.161324L778.348221,248.519656L776.511539,251.404265L776.077494,248.289626L776.279623,246.599126L776.237307,245.590086L777.028801,245.026125L779.924932,244.112453L785.748137,241.251782L786.957775,239.967363L781.665997,239.757497L779.894401,239.389449L778.391974,236.083770L777.323594,235.752305L772.187314,234.780662L770.810264,234.121633L765.383023,232.253283L760.527810,230.908299L757.182092,229.515234L750.041961,226.989743L747.203485,226.147597L744.903588,224.506787L743.358480,224.116290L740.019408,225.187861L735.023805,226.176553L733.791925,225.127756L735.253552,224.530153L740.607868,223.296636L743.153774,222.545159L744.454777,220.812201L743.961303,214.317728L743.762497,213.839906L743.417002,213.573400L740.389402,213.852071L735.764258,214.904122L733.507207,215.641267L727.723793,215.933555L720.165425,217.645081L718.106295,218.270287L714.819353,218.760409L713.386921,218.650619L710.484968,217.783627L718.770448,215.974524L720.925234,216.009956L725.028875,214.811171L735.914307,213.061514L737.707079,211.790739L740.962340,211.048593L744.649835,210.346496L747.343510,210.493295L748.119710,213.115680L750.077529,218.431059L754.063317,222.718548L757.516868,223.772589L760.342942,225.136661L768.097357,226.642142L776.286307,228.985308L779.597276,230.497410L782.965632,231.371779L784.404086,229.068970L784.310371,226.226671L788.148091,224.985292L790.498096,219.609021L790.632721,217.670572L791.398669,213.189748L788.911111,212.135414L784.607855,211.659294L778.191289,209.446107L776.179381,207.468216L772.032105,206.979053L768.750228,205.494780L764.707690,204.194336L761.909352,202.359757L757.967185,202.110387L750.257555,201.805041L742.057033,202.400407L738.235427,203.177327L735.490092,205.118409L724.221747,206.854580L721.212009,206.980154L717.113807,207.470420L711.299071,208.607930L705.949662,208.248519L703.859984,208.352145L700.736188,209.811282L699.611459,209.815696L698.543615,209.334695L697.842375,208.800895L697.506373,208.215449L699.175413,207.733789L702.845689,207.358032L706.349841,207.302943L709.688098,207.571796L712.030421,207.472624L713.377512,207.004389L715.713244,205.722623L714.839635,205.034782L705.723528,202.902563L704.383641,201.505239L709.059330,202.781680L712.485690,203.487314L718.421703,204.281222L722.182522,205.495881L723.970386,205.631262L729.646058,205.076595L731.018737,204.734418L735.287989,202.531151L737.911994,201.623836L743.108199,200.392147L747.269922,199.819416L747.655893,199.176692L745.656328,198.272240L740.244702,194.697481L738.061695,193.483872L736.634101,192.431684L736.808537,192.190307L739.474296,193.040191L743.137895,194.829827L746.135920,196.643239L748.005511,197.425229L749.741889,197.778009L751.657802,197.698024L753.752901,197.187528L755.904399,196.203116L759.533924,194.140863L765.077727,199.104318L773.313368,202.372941L777.249987,203.531288L787.837444,205.265866L790.618024,205.251560L796.421395,203.264162L802.356853,201.608462L806.284066,201.047401L818.115806,200.891523L820.430021,200.233036L822.231059,196.637764L824.918025,192.904706L824.555485,192.265666L813.862674,190.186349L809.273855,189.712991L797.596880,189.522158L795.197606,189.087140L793.097902,188.207631L792.176165,187.459263L792.428720,186.845130L793.259920,186.086482L794.670596,185.183514L795.295749,184.288638L795.138922,183.402928L794.499477,182.804386L793.375340,182.493793L793.677162,182.134402L796.266787,181.520032L800.040519,180.190027L801.186936,179.098388L800.810775,176.253927L801.470677,176.292875L804.086487,178.132007L802.246688,180.917819L799.576308,183.430090L805.501360,185.229195L812.886206,186.401002L821.097532,185.811189L828.587870,184.312554L828.526673,182.573065L832.059732,182.585010L838.738579,183.125900L841.831229,182.869553L843.550886,182.545917L844.573172,182.039953L845.471905,181.243313L846.243319,179.964486L846.888989,178.204575L846.154537,176.721356L844.043817,175.513018L842.294369,174.989712L838.974965,169.968283L836.469140,167.244803L832.844125,166.274148L829.226443,167.244803L826.641017,170.162295L824.732695,172.696239L820.054062,174.737848L817.167494,174.334729L817.250875,173.986807L818.484965,173.544986L820.078046,172.541870L822.028039,170.978474L822.624624,169.084735L821.874656,166.861787L821.069951,165.521553L820.207096,165.060492L819.046734,164.949814L817.586650,165.188372L811.911264,166.752062L809.424731,167.315822L807.751360,167.481544L806.300195,167.326583L804.456415,166.611854L801.555687,165.236733L799.586782,164.062520L805.374912,165.820399L808.832384,166.181668L813.067496,165.271123L816.152861,163.761856L818.787312,163.417237L821.970270,163.244419L829.803320,159.790047L834.545405,159.928197L837.151066,161.097097L839.130425,162.198266L840.481403,163.232612L842.484727,163.410796L845.139302,162.732520L847.055057,161.642756L848.229654,160.142408L848.801938,158.208160L848.774118,155.843990L848.595467,154.260188L848.265645,153.453002L848.165002,152.560028L848.294659,151.582513L848.242186,150.102769L847.482374,149.287587L844.007587,147.061638L842.017114,144.906550L844.208314,142.222082L840.747927,140.095212L837.927795,139.806466L835.353529,139.837023L833.288033,139.647374L829.866974,138.885956L828.310537,138.263962L823.219785,139.040723L819.395281,139.126012L818.265211,138.956493L817.056846,138.485985L814.547315,136.185992L813.564221,132.473809L811.580101,132.161088L806.895811,131.874603L805.588710,131.644641L804.587101,131.369805L802.261054,130.178380L802.354554,129.675534L803.394099,129.142731L807.359137,127.767843L809.791121,127.759516L813.649575,128.845705L816.316262,129.981173L818.497543,130.026037L830.026438,126.724530L830.557136,125.781087L838.147652,125.062752L845.053193,124.918533L848.228664,125.198692L853.753017,126.332692L859.369788,126.854488L862.113754,127.340177L863.855817,127.963533L865.812915,128.321715L867.985027,128.416490L869.612936,128.098876L871.865451,126.354514L873.113073,125.054451L874.106268,123.124555L874.848359,120.568143L874.485778,118.827735L873.020115,117.898233L870.817094,117.399446L865.669254,117.453937L861.750771,118.459099L858.958562,118.678407L857.036478,118.180161L854.675521,117.159934L851.297376,116.361743L844.647520,115.604369L841.324904,113.948537L838.752230,110.358400L842.866186,109.469704L847.469765,108.881915L850.702245,109.371027L857.116652,111.339975L857.996269,111.468503L860.854131,111.062595L861.023439,110.310527L859.751080,109.120837L858.408263,108.277343L854.900655,107.278645L850.746558,106.521437L845.870853,105.307778L841.973621,104.695186L837.428624,104.274980L832.759874,105.613269L827.950849,108.721323L824.489770,109.683379L822.392609,108.492695L822.571503,106.786924L825.019994,104.572936L827.421053,102.622966L829.777539,100.938889L831.700168,98.876478L833.190382,96.439550L834.714410,94.668374L839.476813,91.110000L839.831561,90.283013L837.019893,89.340892L837.231326,89.015705L846.210475,86.092590L849.811922,85.593036L852.907113,85.562686L855.323224,85.332667L856.681655,84.815235L858.257883,83.948749L859.384266,82.986227L860.061199,81.930160L860.813420,81.228596L861.639654,80.877199L869.169672,79.726655L872.254313,79.145102L873.684741,78.629910L874.180895,77.977256L873.745483,77.185759L872.988686,76.436887L871.910485,75.729496L870.885659,75.410738L869.913550,75.480809L867.935533,75.268709L867.917418,74.300574L868.872707,72.534259L869.975120,70.994185L871.222089,69.678217L871.656944,68.744360L870.834867,67.756747L870.318901,67.444382L868.382490,67.347226L863.346466,67.518915L861.126852,67.337795L859.924961,66.991800L858.999340,66.421081L858.620711,65.370133L858.789704,63.840618L859.905792,62.433175L861.966453,61.146624L864.972484,59.891881L870.885323,58.061276L872.288921,57.753296L875.744195,57.679563L878.400017,57.944142L883.384322,58.710284L892.798561,59.373294L898.183079,59.298339L903.930380,58.829490L906.502067,58.774965L909.216779,59.030094L911.451532,58.877552L917.530347,57.862076L922.795290,56.402471L926.680753,55.167949L926.742892,54.558543L919.426636,53.500303L917.113274,52.996399L914.731833,51.838928L921.814588,50.420772L926.697241,50.570944L933.688802,50.409919L939.293941,49.096264L949.999302,48.324684L951.150329,48.089119L954.271143,47.053352L954.586428,46.355822L953.524541,45.573037L950.980489,44.476791L951.628263,44.115678L955.580577,43.737170L961.571861,43.651929L967.005762,43.297863L972.108963,42.396118L982.661916,39.783838L986.380805,38.407290L997.341192,36.357753L998.917351,35.774238L999.063116,35.352009L997.137281,34.961477L993.083769,33.636645L988.005983,32.375609L984.477081,31.788941L976.759081,31.128099L965.751047,29.924699L957.774052,29.492270L943.022733,29.354496L939.734821,29.090176L938.149216,29.148800L931.759191,29.986889L929.445374,30.141992L927.160619,30.537769L925.674610,30.973361L921.068478,32.778497L916.205322,34.231027L912.459564,35.879229L911.356703,36.243921L907.743367,36.826526L903.943583,36.283888L900.187197,36.052842L898.063384,35.596437L893.098696,35.044567L889.893713,35.142397L882.666466,34.791901L882.201690,32.535329L876.106147,32.537906L869.923400,33.869437L857.456240,38.357450L855.242985,38.996305L851.150327,39.897997L846.234606,40.762448L838.221957,43.077971L835.652523,43.622632L823.836809,45.583749L822.178250,46.330775L821.128203,47.046182L818.596759,48.050472L817.351012,47.846519L817.806174,46.779194L820.161969,45.326758L828.751642,42.213041L831.364943,41.503751L839.076555,38.860557L843.017466,37.709333L846.822924,36.117970L851.824199,33.216322L853.584943,31.567080L854.433608,29.909367L854.935772,28.522358L855.090812,27.402546L854.797369,26.545380L852.695547,25.084739L849.181104,24.977449L834.305983,25.353974L828.549962,25.741059L825.997274,26.063033L824.730405,26.448511L823.455305,27.177051L822.171102,28.250280L820.597226,29.260131L818.732219,30.204226L816.440796,30.749511L806.333043,31.465196L803.000819,28.293491L795.356756,26.247294L767.294359,25.468955L755.455392,25.425308L738.940142,26.337362L729.191638,27.303713L725.308466,27.035253L724.903161,25.322928L727.180116,24.012754L730.284301,23.501155L816.284543,21.359429L827.573069,20.722002L837.505323,19.708880L845.038433,18.396213L851.100086,16.975658L852.760851,16.180798L852.049531,15.536540L850.688773,14.735410L847.500922,14.175244L838.957280,12.976589L826.170642,12.311260L821.866806,12.484242L819.931361,12.162396L818.932543,11.404204L815.234739,11.274999L810.770925,11.530281L806.096288,9.233225L802.860519,6.958649L787.538162,7.974852L774.701361,8.446684L763.948823,8.285105L757.791763,8.502671L743.023607,7.885157L731.506663,7.748316L725.181638,8.018925L707.817903,9.669416L702.987344,9.892951L700.147603,9.802562L701.524327,8.153554L708.288066,8.096072L729.961557,6.993918L767.163310,6.429451L787.710464,5.969301L791.771157,5.711875L793.636237,5.337152L791.583634,4.880644L776.237266,3.496291L766.900291,2.967023L757.021365,2.544321L755.447153,2.580478L748.508890,1.482136L734.921217,0.542271L724.199983,0.096629L691.018558,0.000000L684.813115,0.348670L678.036974,1.087377L673.731265,1.108016L669.646501,0.655917L666.268661,0.443926L662.255896,0.485851L658.804005,0.840619L654.570285,0.952124L637.723475,0.978098L637.100570,1.103430L636.530701,1.401752L636.013754,1.872209L634.213450,2.093981L629.587644,2.053294L624.550710,1.570974L621.089582,1.592423L619.452429,1.784021L617.081042,2.537398L615.239017,2.940052L613.442593,3.094987L608.392611,2.897675L606.705607,3.115036L604.945783,3.592089L604.616563,4.198685L605.722142,4.934259L606.975291,5.382306L614.316132,6.549906L614.944291,6.940625L613.165208,8.000823L612.394839,8.784371L611.188788,9.313915L610.203008,9.556139L608.409194,9.552180L600.466334,6.706431L595.091690,6.248880L591.589863,5.423574L587.641688,4.733069L581.077138,4.204883L575.656242,5.110733L570.522138,6.553818L564.982785,7.904824L561.985715,7.486643L559.647950,7.434028L557.826465,7.149160L554.962322,6.228564L552.230664,5.799993L544.945631,5.372184L541.582496,5.279554L538.770834,5.430583L522.934349,7.164062L515.999738,7.449733L508.629445,8.261468L503.659495,9.247463L496.876136,8.541317L493.082113,8.500305L487.282124,10.315195L491.265121,11.833758L495.105079,11.898493L503.625855,11.731494L507.904216,11.396227L511.800945,11.429734L519.216560,11.867322L559.776939,13.150015L560.445102,13.621091L560.173636,14.363986L552.248608,14.771772L550.859224,14.625543L549.916966,14.284117L547.443219,14.025314L541.437068,13.761935L506.219921,13.045624L501.752667,13.276141L498.580034,13.670177L498.398830,14.029344L510.816519,17.060407L513.760420,18.246378L513.934967,19.987969L511.906250,20.957460L508.167171,21.817504L505.107953,24.471699L504.377738,25.820890L504.159420,27.014157L504.454902,28.050401L503.840306,28.882109L502.312388,29.508432L500.114399,30.085737L497.785854,29.938329L492.240728,29.232082L475.463570,24.599729L465.314575,23.288600L445.688683,19.360203L429.047257,18.234918L417.460107,18.207090L414.757758,18.440442L414.596308,19.740973L416.081774,22.203252L419.367933,24.193236L427.988386,26.747640L429.613921,27.682324L427.749710,28.033469L424.421850,28.116448L417.238467,27.837963L409.060241,28.078343L403.875220,25.825092L398.540322,24.921305L386.463218,20.772381L382.790022,20.772381L380.554445,21.967594L378.947467,24.223328L380.522252,25.605816L378.942189,26.833642L376.584220,28.498616L374.083656,29.738204L371.444383,30.543744L368.317673,31.686129L365.959635,32.302646L365.748423,31.888359L366.498236,30.816137L371.020804,25.207165L371.050322,23.451962L369.307722,22.211554L367.875762,21.491889L364.190249,20.698879L360.477837,20.283827L357.856442,20.271459L347.966848,21.147622L345.616184,21.430619L344.177800,22.060507L333.958633,22.478985L328.420349,22.376800L310.784342,23.379438L294.771631,24.666695L285.371948,26.152204L284.917324,26.575710L290.764167,27.641736L293.577118,28.720848L297.124474,30.542890L301.457929,32.149048L309.889194,34.438325L313.508520,35.718719L315.611123,36.887454L315.812402,37.447646L314.105686,37.398821L312.365296,37.093823L309.709220,36.252609L304.930219,34.301839L301.382038,33.385936L297.466388,32.848991L293.195616,31.657005L287.267559,29.294983L283.261860,28.272308L278.139847,27.949665L274.704776,27.423668L271.812512,27.348479L266.570808,27.645964L259.441906,28.770066L256.163772,29.567136L252.386305,30.661553L251.092793,31.577356L251.028927,32.678802L250.180765,34.435733L248.548342,36.855248L245.841005,38.904340L242.052860,40.576711L239.394558,41.567290L237.871668,41.871024L236.086987,41.890457L233.019695,41.494928L230.704872,40.860199L227.264421,40.470244L221.924116,40.115004L218.485438,40.038552L216.942201,40.243340L212.597217,41.395233L211.293739,42.476632L211.084457,45.118980L211.321508,46.006219L210.801990,46.078615L207.038351,43.738058L205.441208,43.203860L203.481944,42.948583L200.891835,42.964532L190.487997,43.990353L187.218054,44.609410L179.463451,46.981657L173.784350,48.265329L168.035807,49.768314L165.228050,50.237210L162.564734,50.436148L159.521592,50.880523L155.206592,51.638342L150.633389,52.654157L142.712434,54.832932L141.380649,55.366714L137.382396,57.331361L136.250160,58.424887L136.210277,59.479735L136.702850,60.301662L137.724903,60.892952L139.239079,61.194030L145.422720,61.116881L147.697053,61.269334L151.746479,62.084611L154.304058,62.188031L158.682777,61.731685L161.634912,61.165214L164.441646,61.009083L168.086963,61.075059L172.268299,60.657077L175.752607,60.040171L177.449660,59.946557L179.057391,60.103210L180.575352,60.511347L180.765201,60.755496L175.881481,61.280491L172.786570,61.873192L169.645927,62.635551L168.395545,63.236706L165.898093,64.922520L162.148808,67.702940L157.655628,70.572206L152.410230,73.533213L148.688799,75.437614L145.408173,76.692800L139.478553,78.721697L136.532600,79.540795L134.601540,79.821547L131.967593,79.829294L126.964135,79.435311L114.620128,79.719877L112.502828,79.847693L108.315820,80.572591L105.571974,80.820921L102.407587,80.861674L97.045157,81.417983L88.882357,82.575228L85.058709,83.310773L84.991831,83.706735L85.634300,84.528857L85.270539,84.831856L84.095235,85.019605L67.185514,86.619085L59.255889,87.680466L55.275825,88.380652L52.604075,89.072846L49.883251,89.422711L42.226406,89.338921L40.246309,89.412853L37.802432,89.732349L30.580527,91.155484L23.768576,92.137223L22.124770,92.590051L17.264427,94.266644L15.996270,95.025581L16.153617,95.576231L17.070376,96.322842L16.531625,96.723933L11.143778,98.458990L10.813135,99.268186L12.757016,100.699809L16.372698,102.652179L17.157135,103.343581L18.274212,103.759171L24.219952,104.524446L25.963743,105.029719L27.115502,105.928005L28.657375,106.319856L32.713688,106.767667L36.984046,106.743344L38.966077,106.592358L42.986959,105.698264L47.729477,105.734694L48.074742,105.941165L44.176241,106.628835L38.263316,108.312892L38.363579,108.679656L41.681762,108.870733L43.800329,109.966343L42.936345,111.099301L44.556331,111.848097L53.167803,113.533094L55.538058,113.621075L57.453640,113.432849L59.702691,112.999288L62.303142,112.241161L65.252819,111.160482L67.351984,110.716017L68.605601,110.905595L71.625706,111.920568L73.870825,112.207461L76.241788,112.449518L80.988244,112.347375L84.119958,111.947109L91.643373,110.034556L95.121540,109.277450L97.761701,108.949008L99.793088,109.061861L102.604095,110.427668L103.951208,111.496047L103.744117,112.523070L101.978798,113.510589L98.614640,115.086538L97.952109,115.995279L98.284108,117.091075L97.688791,117.458050L93.577776,116.242649L90.282509,115.692589L82.634875,115.262869L71.214344,115.369508L63.187334,116.148208L60.031075,116.896863L54.293250,119.249091L43.920577,118.538372L27.943332,119.280006L23.407122,119.668605L21.474381,120.114124L19.271182,120.829317L16.796751,121.815913L16.179075,122.773661L17.424459,123.702448L20.955565,124.888447L20.131438,125.154068L19.448842,125.579644L18.910761,126.162291L19.417320,126.692303L20.972014,127.168544L23.507971,127.476467L27.899711,126.470907L38.969915,123.605069L38.316717,124.038177L36.672148,124.836578L34.033911,126.002311L32.878865,127.057260L33.210128,128.001011L33.827093,128.648783L34.726935,129.000981L40.718093,130.063599L48.309757,130.450781L57.364217,130.244125L58.670887,130.822460L57.869044,131.143099L55.932142,131.547446L48.610673,132.192460L44.823049,132.733267L33.844466,135.417682L31.798965,136.215393L31.690576,136.805684L32.426041,137.663369L35.879725,138.762791L39.884329,140.796322L42.578529,141.583373L45.551106,142.868558L47.917288,143.382203L68.052608,145.511139L70.697143,145.324752L68.973471,143.751201L67.399983,141.547490L67.741336,140.619156L69.468306,140.228018L71.502562,140.121561L74.143552,141.238309L75.557453,141.675198L76.882393,141.821922L78.859379,141.484169L83.702968,140.083618L87.034919,139.607341L88.265874,139.680033L89.363828,140.176369L90.329320,141.096938L91.656698,141.712141L93.341983,142.023568L94.784818,142.007730L95.981808,141.665698L99.781237,141.554878L103.021274,141.101158L107.362490,140.156343L110.415061,139.361909L113.819818,138.263962L115.340069,137.994651L116.504129,138.278692L117.312498,139.115482L119.278164,140.314457L121.341169,140.137371L125.965257,138.827003L129.973811,137.500396L132.600403,137.229181L136.754353,137.938904L138.823839,139.179716L139.997658,139.381921L144.185285,139.202883L150.464234,139.593646L157.395254,140.817415L161.355310,140.939764L164.080474,141.417687L168.302093,142.730146L178.278409,144.979592L184.324322,147.084969L188.255165,147.903978L190.665430,148.767089L192.869596,149.946493L195.676484,150.691905L199.087105,150.998280L201.118743,151.594222L202.225449,153.274998L202.873801,155.575979L201.845058,156.333165L195.215748,158.232763L195.372991,158.946443L199.508391,160.564495L200.282567,161.255736L200.853276,162.189686L201.792916,164.382576L203.439691,165.817174L209.616394,167.900226L211.808996,169.040569L213.063262,170.221582L213.767400,171.402356L213.918452,172.582890L214.421909,173.431578L215.276234,173.946833L219.192080,175.216746L222.495750,177.155359L220.403576,177.960890L218.736220,178.058360L214.796085,178.690967L213.369192,179.319477L213.745406,180.454642L212.924777,181.533055L212.653998,182.671889L210.713634,183.988640L206.470836,184.525631L203.028544,185.318385L200.555726,186.079953L201.128947,186.237749L205.322067,185.948286L210.763562,185.339052L213.827819,184.812676L215.526283,184.834424L216.876758,185.230283L217.657862,185.995076L218.177059,188.002805L218.741079,188.712176L219.046680,189.681366L219.074107,190.081632L218.912524,190.424168L219.589395,191.210954L219.747308,192.596626L219.363629,194.246924L218.251088,194.428445L217.143087,194.250204L214.872772,196.250188L213.465926,197.210530L212.532495,198.034421L212.194523,198.766615L213.832788,199.245778L215.406998,199.968615L216.349882,200.960678L216.428484,201.693021L216.188264,202.681684L217.798985,202.342179L222.193701,200.960678L223.331314,202.380631L223.184020,203.962295L222.206262,205.422141L220.394624,206.760957L218.263833,207.686401L215.582814,208.174662L213.505020,208.794279L212.790313,210.121355L212.586367,211.165636L212.972324,211.538904L214.420996,211.685803L215.636443,212.149777L217.033521,212.336506L218.183648,212.855917L219.806737,212.742075L221.199297,212.234852L222.933025,211.002219L225.891681,212.094535L226.881840,213.209647L226.927178,214.230338L226.025107,215.154230L225.574004,216.076395L225.572047,216.996831L224.753655,218.138354L223.158248,219.469222L219.967536,221.052047L217.401545,221.906210L215.659486,222.698541L209.898241,222.615179L206.764035,223.749234L207.130787,224.124076L209.360606,224.514576L210.845887,226.007279L208.882060,226.994200L205.299744,226.825961L204.266536,227.238230L202.889458,229.015426L203.705723,230.015183L208.510423,229.542014L218.272134,225.099930L219.057795,225.437209L218.780500,225.968303L217.840297,226.667764L215.432262,227.969408L207.496324,231.573961L203.230731,235.078368L199.220076,239.425353L197.447411,240.106539L196.178571,241.190010L195.414220,242.679864L195.815833,244.366704L197.389556,246.251079L198.803957,247.289787L203.525621,247.709044L207.295202,248.477933L209.472306,248.664003L216.207691,248.265948L219.145399,247.508419L220.456688,247.480244L223.322808,246.546183L225.006144,245.002489L225.052944,243.464611L224.673907,241.963996L225.621707,242.014558L226.691495,242.329199L229.127872,241.488781L229.941652,240.580267L231.188045,239.668845L234.321970,238.568346L236.438064,237.549220L237.216217,236.548596L237.300414,234.651970L236.147041,232.928391L235.231637,232.275633L234.309483,231.038954L234.296519,229.910271L234.626087,228.621703L234.586453,227.591521L234.179802,226.819276L234.928916,226.295724L239.495131,225.819091L239.010447,226.084118L236.901682,226.658852L235.913173,227.417653L236.356920,230.453870L236.848051,231.284658L237.669177,231.863311L239.211132,234.113802L239.266441,235.580998L238.823026,237.068447L238.166062,238.245392L238.246289,238.931739L241.762762,238.525731L241.484785,239.266036L238.783563,240.761035L237.535663,241.319172L233.998494,242.370781L233.803042,243.139653L233.911933,243.779505L236.193118,244.679505L238.192182,244.771780L243.396632,243.252088L247.369236,241.853888L248.738243,241.632568L256.322952,242.605679L258.396158,242.450576L261.752599,241.697725L264.238153,241.387687L264.263347,241.644925L259.977665,243.316180L245.133911,245.565317L242.126287,246.576597L240.809859,247.610983L239.175566,248.600850L237.467353,248.998978L236.493894,249.919632L236.890365,252.994108L238.738861,253.208905L240.922257,253.132027L245.462249,252.520513L247.414135,252.769163L250.168022,253.744878L252.912890,254.345490L257.762458,254.148657L264.963983,254.405449L267.635656,256.157571L269.975995,257.135096L269.607516,257.484096L267.685790,257.821828L265.320906,257.702821L261.115856,256.840538L259.022459,256.723860L256.732078,256.923236L256.910618,257.345848L260.674582,259.048613L262.222448,259.417262L264.134291,260.587220L262.736156,262.556609L261.792694,263.141925L260.837627,264.430276L260.053179,266.732894L262.054574,268.125188L265.512165,269.882429L268.988599,270.253247L269.910951,270.730285L269.351680,271.214295L265.618885,271.962248L264.278432,271.991944L256.749557,270.398171L254.828117,270.219015L250.920525,268.729373L241.934394,264.448476L238.427997,263.443180L235.621546,262.962333L230.707997,262.524791L225.567560,262.719115L223.202868,262.589563L220.330049,261.903320L217.572069,261.581873L212.260551,261.344515L208.752091,262.063496L206.639393,262.938464L204.382343,264.157293L204.411535,265.144771L206.214638,267.142954L208.713014,269.542482L210.329135,270.634411L214.324799,271.409533L221.239664,272.232955L226.614800,273.436193L230.450885,275.023416L233.213747,276.476884L236.366758,278.682131L237.608281,279.132664L248.745640,280.410336L250.326723,280.818593L251.783878,280.770395L256.557887,279.297772L258.122955,279.168207L260.310366,279.579865L262.960556,280.441314L266.528088,280.165974L269.896104,279.592480L271.788052,279.879205L272.211381,280.177446L271.175914,280.654497L268.683196,281.308668L267.645915,282.026221L269.270620,284.627768L268.854566,285.310920L266.607162,285.935631L261.448930,286.981876L259.277563,288.451496L258.475986,289.962595L255.980151,292.912110L255.006182,294.389697L250.558719,297.634114L249.515041,299.183594L253.557581,299.260057L257.106235,298.590526L259.673230,298.273215L260.619782,299.277435L263.304537,299.755978L263.176771,300.105978L261.105978,300.894283L253.669356,301.382491L248.504981,301.111121L247.472106,302.007711L245.192540,305.624792L241.385985,310.354675L243.210392,310.354675L245.536950,309.964469L250.215021,308.517277L250.071573,309.130725L246.291404,311.721558L243.363235,313.237484L241.991528,313.733315L235.166432,314.958814L232.407584,315.254208L229.685934,314.934297L221.849275,311.280980L216.453275,311.099182L210.683961,312.226355L207.482293,313.435802L202.142860,318.169507L199.211447,319.626910L197.773619,320.940129L199.430324,321.038478L201.674357,320.811346L208.909751,320.640429L209.173241,321.395614L209.872785,321.799660L215.245412,322.829443L218.554512,322.776711L226.087562,322.032753L229.444788,321.523261L233.297149,319.309845L233.440760,318.864163L233.941481,318.636094L237.146950,318.088829L238.701905,318.003478L239.081693,318.834922L237.755675,320.264692L234.585571,322.271729L233.213900,322.849364L232.623087,323.319319L231.710274,324.644184L230.989326,325.291671L229.446023,326.226879L227.773064,326.764483L224.445195,326.717526L219.552581,326.266784L213.406239,324.580854L205.758041,323.166953L203.145229,322.845848L201.015051,323.089602L198.927391,325.270554L194.733476,328.791669L189.143331,332.011294L187.667928,333.704125L187.107519,334.941011L186.102094,336.077194L183.095027,338.957940L185.377819,339.261328L189.193130,338.340664L199.255013,333.917292L200.913666,333.543969L205.277899,333.020009L207.855450,332.466748L211.751798,332.008941L215.541395,333.412084L218.339054,333.738277L221.326203,334.397875L227.778289,333.996204L229.982923,333.222514L236.661130,332.738653L237.921011,333.295514L234.850393,334.240025L232.246027,334.494475L231.767974,335.465422L240.120826,338.720688L240.291479,339.467938L238.403748,339.928452L230.979153,336.843617L226.362413,336.090162L222.197838,336.605409L217.898388,336.186836L210.132899,334.048028L207.872527,333.832494L204.913853,334.111633L198.674715,335.618644L192.895638,338.089318L188.739698,339.545865L185.983948,340.187090L180.492091,342.123669L179.364242,344.334010L175.810167,348.975627L177.829624,352.597967L179.742398,353.583712L181.666924,354.101689L183.051386,353.924661L185.622166,354.230013L191.419409,354.534215L197.862416,354.480739L200.154712,354.761204L200.774704,355.160566L199.723099,355.677698L198.514393,355.915497L196.465027,355.852478L188.121517,356.483932L185.920954,358.262650L183.567579,359.051893L179.141691,360.830121L178.540485,361.473606L177.385291,362.409345L174.856156,364.132758L172.588061,366.567869L172.061399,368.271483L170.824964,369.997790L170.164436,372.915127L171.419502,373.286318L173.994497,372.781032L178.977631,372.345274L181.475417,371.764780L184.023235,370.792004L186.620880,369.426207L189.823534,367.997822L195.534533,365.760673L209.298280,359.627024L213.140062,358.257889L218.737700,355.827508L221.364938,354.921654L222.305573,355.151057L221.264343,356.133104L215.334443,358.793545L211.872414,359.974789L208.830617,360.756251L207.249337,361.449770L206.118395,362.310390L202.968458,364.278319L200.683074,365.187677L197.833520,365.981551L192.973883,367.822170L181.484638,372.512865L174.107738,374.907025L173.184113,375.519401L173.919172,375.862204L174.772916,377.015607L175.216299,377.220684L177.766765,377.267458L173.182906,382.339699L171.953963,386.694688L172.612129,387.175007L175.490744,387.385701L180.149277,386.774133L182.730273,389.967150L186.549360,389.968355L193.559330,387.300217L196.140354,386.133824L199.746143,383.999781L201.012960,383.505613L207.769714,382.135417L212.475105,381.975608L213.395877,382.218330L213.171140,382.827637L210.075911,382.939419L202.863275,383.759298L200.502870,384.824803L194.371811,388.256344L189.520456,390.446854L183.388082,392.403923L182.395208,392.754971L181.596884,393.241205L181.750301,394.570048L182.119908,395.898334L182.002242,396.299362L185.037576,397.541471L184.502293,399.878593L183.863748,406.453885L183.354305,409.282700L182.328246,411.383096L180.530599,415.892654L180.387430,417.632741L180.698610,419.859885L181.758412,420.808983L183.564212,420.478774L185.518485,419.282537L188.058821,416.861131L193.762486,412.509209L195.808371,410.735814L197.314614,408.785147L199.941867,407.380337L202.428312,406.693957L201.033292,408.631045L199.285321,410.602247L204.047012,409.697800L206.212346,408.942899L208.827866,407.677497L210.456044,406.399326L210.290369,404.787285L210.260781,400.791975L209.842453,398.976396L210.012111,396.398420L210.663959,396.507146L211.137475,398.555633L211.304799,400.093907L212.525801,403.174959L212.164619,404.225106L212.407023,405.016308L214.020516,407.171737L218.274372,406.872206L219.524519,407.485855L220.889914,408.730543L220.254579,411.685536L220.958234,413.613888L220.487795,415.111784L218.069752,414.058798L217.210094,410.943463L216.250533,409.257214L213.758598,408.993866L209.962151,409.366444L206.496993,410.199156L206.055031,410.892460L205.906207,412.330605L204.632321,412.116780L200.823017,411.986793L198.389528,412.290511L194.128443,414.715348L190.139825,418.427691L185.711996,421.150199L185.793418,422.157019L187.019615,423.694740L187.770576,423.848435L188.886926,423.692300L190.938774,423.149554L191.767220,423.197117L197.363426,422.299660L204.705764,420.694441L210.041898,418.673646L211.008888,418.461782L210.127829,419.634535L209.125464,420.544569L209.029696,421.055142L210.701315,421.197729L213.389490,420.921093L211.406033,422.016823L206.690158,422.216757L204.378537,422.543507L200.160025,423.634972L192.329649,424.948931L186.748073,426.120648L187.564679,428.654871L184.412754,432.330013L184.571872,435.230804L187.900036,440.398016L189.469137,444.894682L190.928702,447.175641L191.834198,449.094147L192.615537,450.089539L194.810702,451.380707L195.133768,452.109614L196.236086,452.770950L197.096226,455.195831L197.183684,455.872623L198.250284,455.702486L204.450436,451.968005L210.882828,450.256905L204.051721,453.809424L200.656859,456.206759L197.972004,458.399877L198.387152,459.466156L197.331047,462.038324L196.451563,463.235601L195.147084,464.692963L195.739355,464.869772L197.261943,466.264801L198.924897,467.446357L201.001913,468.461238L203.304386,469.423198L205.525798,469.757538L207.698722,470.788020L204.691886,472.864856L203.827982,474.345236L203.476575,476.266778L204.089921,476.733380L209.565651,476.438023L211.279371,475.534745L213.261189,474.174102L214.980640,473.836821L217.125741,473.948418L220.351225,474.672649L215.861472,475.697267L215.033427,476.304004L213.670183,476.864934L209.569065,478.257751L207.805877,479.489688L207.654536,480.804104L208.167140,482.489516L207.803273,483.113687L208.344949,484.075043L209.524164,484.697028L208.448693,486.060830L206.743129,487.136342L208.004310,488.188541L210.816064,488.821267L211.137797,491.249912L210.864375,493.208822L210.999620,495.113968L217.099049,495.881572L217.745443,496.224867L218.898511,496.462072L219.862780,497.416057L219.780827,497.818210L220.394620,498.667635L218.998348,502.091228L222.862216,501.881138L223.679504,502.226292L229.483493,501.811111L231.061803,502.270064L227.917612,503.602254L221.201202,505.905102L220.026704,507.163562L220.888312,508.128066L222.089407,508.815910L223.749114,509.340968L227.446098,509.269536L229.423102,509.147978L228.900940,507.335148L229.016187,506.598763L230.750476,506.643843L233.466532,506.121700L235.678176,506.245655L237.168949,507.330138L239.878026,507.778558L242.096632,507.048340L245.039884,506.816657L247.079494,506.918095L248.826505,505.792427L250.955237,504.648356L254.128166,503.184403L260.286216,501.639801L266.546911,499.733466L267.642987,498.905013L267.947812,497.713296L268.865235,496.951518L270.392619,496.625629L270.476046,497.575914L269.116040,499.802200L267.481701,501.484754L265.314518,502.935469L261.174354,507.941407L261.650280,512.069047L262.896077,512.480451L263.553398,513.001047L267.953848,513.967179L269.829996,514.558282L272.587490,515.858810L273.343609,516.459024L275.349809,516.211643L279.767726,514.858264L287.549154,510.813814L287.752570,511.053289L284.510829,514.221931L281.478914,516.142580L279.000924,517.197503L276.335227,518.059258L272.978770,518.310539L272.426660,520.292513L271.295841,522.688201L281.251922,526.632972L284.924361,527.490725L286.624007,527.159439L288.304574,525.456888L291.759305,522.640398L294.791575,520.869594L295.504936,521.620317L293.875486,523.271963L289.432871,526.352138L288.082320,527.544892L288.120354,529.917496L288.507859,530.525131L289.571026,530.457051L290.737329,530.683990L293.068357,530.067504L295.048710,529.860772L293.864672,531.076125L293.255361,532.259091L297.308795,532.684195Z "/></g></svg>