<?xml version="1.0" encoding="utf-8"?><!DOCTYPE svg  PUBLIC '-//W3C//DTD SVG 1.1//EN'  'http://www.w3.org/Graphics/SVG/1.1/DTD/svg11.dtd'><svg enable_background="new 0 0 1000 645" height="645px" pretty_print="False" style="stroke-linejoin: round; stroke:#000; fill: none;" version="1.1" viewBox="0 0 1000 645" width="1000px" xmlns="http://www.w3.org/2000/svg" xmlns:xlink="http://www.w3.org/1999/xlink"><defs><style type="text/css"><![CDATA[path { fill-rule: evenodd; }]]></style></defs><metadata><views><view h="645.275344573" padding="0" w="1000"><proj flip="auto" id="robinson" lon0="-87.2392836083"/><bbox h="59.27" w="92.0" x="-1311.48" y="-276.92"/></view></views></metadata><g class="" fill="#000" id="country"><path d="M299.067754,643.275345L343.626163,641.053927L351.837824,638.077226L360.610128,629.724687L365.728495,618.111090L367.409736,606.852904L369.809047,598.811332L377.626539,591.000782L390.823090,588.583863L400.919899,587.748605L404.355645,582.470478L402.867483,565.392069L401.220415,523.895448L401.154027,512.343880L403.804050,503.715733L408.135960,500.561258L427.995936,498.490856L464.860864,501.982994L472.310157,499.361669L489.400803,475.814124L504.890064,458.504397L515.495066,450.746992L523.505720,448.392222L531.077555,463.764853L560.431954,485.828506L565.867679,484.442311L569.084575,483.233832L570.365726,480.070461L570.755669,469.922780L579.468459,460.690330L596.523971,452.382001L614.271086,437.737986L632.711321,416.776004L648.162227,404.442251L660.592820,400.772332L665.739248,395.040855L663.609119,387.274471L665.640685,376.238009L671.836444,361.949221L679.658909,353.676277L689.100538,351.428095L693.180319,346.931729L691.915632,340.187171L694.444768,332.758371L703.961862,320.584355L724.853220,310.151997L735.850062,313.679808L743.913134,327.693274L756.323806,337.210321L773.073610,342.248750L786.644799,340.373779L797.040789,331.629833L805.876373,328.972878L813.155577,332.429584L817.375074,330.465749L818.524802,323.116909L822.633073,321.419654L829.697114,325.391763L836.219913,326.413669L842.200588,324.485376L844.798211,320.913143L846.327241,317.225387L850.921510,314.461790L865.545991,317.189843L882.676985,312.933369L902.308254,301.692350L915.103044,296.724965L921.044590,298.022351L928.888262,292.352951L938.615169,279.716739L958.512663,274.065786L999.223934,276.793166L989.284088,267.836512L979.562443,261.171801L970.062162,231.855849L928.360511,208.484727L923.574619,209.026796L942.130075,222.027548L949.246313,235.108248L943.151871,235.605883L935.468000,227.163859L922.246617,228.079153L914.514840,235.632542L907.450917,235.428156L902.178289,222.889524L892.392878,211.337253L884.138293,203.819378L870.885328,200.113756L865.037969,203.170672L857.606159,202.566398L856.551713,197.252339L856.757907,185.913297L861.652608,182.554236L879.306461,180.963569L910.146144,201.739965L909.115736,196.026017L839.269988,125.823256L799.211842,116.696869L803.359463,121.335598L813.248013,124.570266L810.681480,127.644978L802.010919,131.039602L791.457213,129.573338L779.324348,114.724076L729.361638,95.378258L717.202412,98.275243L697.744848,108.432465L646.509311,111.827092L600.856275,93.023346L569.240470,89.139963L573.840842,93.129983L575.657425,102.016443L553.673650,110.707398L535.357141,114.439709L505.426061,132.994620L486.044963,129.742180L441.998136,130.986283L417.480768,136.789133L358.741499,123.672735L344.019230,125.121226L325.889152,131.723858L317.516863,124.045966L307.463931,109.943163L294.178066,109.800979L266.024565,115.497198L260.582565,118.545251L242.590309,132.452547L235.130797,136.335924L221.669604,147.950503L206.782067,142.858573L199.233531,149.070194L182.830637,163.421781L153.281768,187.957170L126.827363,209.924319L101.518448,229.847535L78.727326,247.789033L76.080784,249.566295L48.264486,262.371450L43.218948,268.271940L34.826317,293.623679L31.574952,299.906225L34.892011,313.981937L37.409228,335.726338L34.713840,347.073906L14.973901,361.069499L5.297096,373.669940L0.776066,381.809559L4.726641,382.653733L30.408596,391.948520L38.492027,390.144657L47.836008,397.617799L52.071910,403.473677L55.515732,411.524388L74.920849,427.732404L77.786965,434.814509L92.559258,444.366895L98.179940,451.680013L104.578712,454.692340L117.449236,457.491403L128.327726,461.347887L129.376053,464.031430L129.398131,474.889992L130.911813,484.042446L136.201490,484.637800L143.100341,480.194863L165.353647,467.950112L186.086154,459.819511L196.862107,464.688987L202.541322,474.872220L209.710965,479.421792L225.758282,476.631625L239.975348,477.537985L250.415978,486.441631L252.497071,491.604318L242.838154,521.220818L239.166280,533.891981L236.956932,544.617133L240.756509,547.416155L244.330266,551.583586L242.946646,557.359339L229.772440,566.858219L236.549272,570.954552L246.009648,573.975708L263.350482,569.328460L280.856195,575.273027L280.794645,582.976965L278.102609,589.472436L283.508600,600.295247L289.374522,616.307293L301.496986,624.082276L299.067754,643.275345Z M507.515369,24.677622L534.663869,15.604569L521.818464,13.605121L505.338620,18.217181L485.415470,27.636807L472.488680,38.620455L480.422892,38.895935L507.515369,24.677622Z M596.366244,0.000000L588.423696,5.580675L581.470643,15.337976L583.116905,20.083333L596.430826,9.544022L601.186197,4.772010L603.358060,0.559845L596.366244,0.000000Z "/></g></svg>