<?xml version="1.0" encoding="utf-8"?><!DOCTYPE svg  PUBLIC '-//W3C//DTD SVG 1.1//EN'  'http://www.w3.org/Graphics/SVG/1.1/DTD/svg11.dtd'><svg enable_background="new 0 0 1000 416" height="416px" pretty_print="False" style="stroke-linejoin: round; stroke:#000; fill: none;" version="1.1" viewBox="0 0 1000 416" width="1000px" xmlns="http://www.w3.org/2000/svg" xmlns:xlink="http://www.w3.org/1999/xlink"><defs><style type="text/css"><![CDATA[path { fill-rule: evenodd; }]]></style></defs><metadata><views><view h="416.016868671" padding="0" w="1000"><proj flip="auto" id="robinson" lon0="113.350064818"/><bbox h="281.99" w="679.47" x="1407.81" y="-99.05"/></view></views></metadata><g class="" fill="#000" id="country"><path d="M591.691773,414.016869L593.705796,414.007252L595.005044,413.197041L599.709238,411.468432L602.043796,408.816614L604.480872,407.655391L604.435080,406.950964L603.921512,405.595002L603.880081,403.313427L603.613207,403.253322L603.173056,403.592313L601.491997,404.378483L598.615158,407.376505L596.649934,408.816614L591.830786,410.376931L591.122593,411.588641L591.075385,413.757217L591.691773,414.016869Z M571.410380,406.155178L573.683019,404.630922L574.239879,402.625828L573.215528,402.282029L571.416308,402.426280L569.727588,404.114022L567.633178,405.301691L568.057200,405.732041L570.302931,406.446085L571.410380,406.155178Z M605.256945,399.072433L605.189227,397.213992L607.249728,396.396566L607.227120,395.978236L606.550185,395.067045L605.104913,395.841196L603.384033,398.125181L603.223660,399.930730L605.256945,399.072433Z M533.571857,376.228046L532.841596,374.920148L532.194626,374.424878L530.099859,375.855391L528.851982,376.369895L525.001969,375.679883L520.833985,376.107834L518.066385,376.042920L515.643628,376.468468L512.191361,377.841278L511.318891,378.625054L510.457072,379.788696L510.749347,381.106208L511.323726,382.279465L511.959158,383.474361L512.812860,384.407196L518.677941,386.003593L519.846547,385.986764L521.033803,385.727109L523.837677,386.046869L528.115224,389.590675L530.561443,390.797588L531.869720,392.600339L532.846271,394.646311L534.685839,396.548030L536.986740,397.586642L539.949128,398.108352L540.846472,398.860864L543.629839,397.423157L545.350656,397.233225L546.645233,396.709111L549.160732,394.292894L549.932127,392.545042L549.065555,390.564379L547.362014,389.237257L546.102254,386.857089L544.619622,384.705318L543.591688,383.596975L542.350831,382.897349L540.623174,383.120941L539.043051,382.952646L538.425876,381.851515L538.328855,380.368113L537.820535,379.468935L534.457537,377.336392L533.571857,376.228046Z M640.891941,368.318143L640.464654,367.779595L640.801293,365.586937L640.044404,366.226463L635.922186,368.524907L634.460455,369.876083L632.855906,370.828157L629.945093,371.688870L629.712207,372.876558L629.006823,374.742236L628.124503,375.617373L626.769880,377.189734L625.938413,377.538346L622.768025,377.192138L622.336055,377.420539L621.800339,377.254648L621.070058,376.244875L620.791715,375.413014L619.444426,376.184770L617.101676,378.158635L613.132854,382.140021L611.994890,384.366324L611.054083,387.636053L609.763187,390.804800L609.875169,391.994480L612.265101,393.557210L611.582993,394.792967L610.587694,395.752241L609.740096,396.915872L609.413011,398.271837L610.170665,399.276790L612.318557,400.168745L614.715103,400.079790L617.283878,398.880098L621.974810,396.134508L625.269237,395.802729L627.499087,395.281019L629.387490,393.742333L631.625407,391.449128L634.108567,389.508932L637.338817,385.707875L640.171071,383.390213L641.143315,380.921083L642.778698,379.605975L642.306856,376.403554L641.631339,375.028338L641.075983,374.246966L640.949125,373.273255L641.068000,372.265884L641.483579,371.801869L644.157378,371.676849L645.355236,370.029954L645.511292,368.051273L645.033386,367.382897L644.536121,367.101603L641.658968,368.585012L640.891941,368.318143Z M439.361531,361.336253L439.536648,359.941796L438.491304,358.876719L438.030669,359.011357L436.654604,359.997093L437.047012,360.672684L438.691310,362.182543L439.361531,361.336253Z M599.433023,355.806507L600.671205,354.565920L603.373897,354.097093L603.079195,353.633075L602.061479,353.212332L600.335358,353.421501L598.558952,354.621217L597.860569,355.448276L597.412343,356.842734L598.631272,357.253859L599.433023,355.806507Z M522.928525,360.627003L522.624515,358.922400L523.545821,357.850110L524.777682,356.893223L525.258921,356.008463L525.360677,355.157363L525.204904,354.265390L524.236288,354.226922L523.808758,354.027370L523.596915,353.601819L523.124436,352.950270L522.724029,353.584990L522.347797,355.655040L521.371375,356.823500L521.752137,358.314128L521.236536,360.504387L522.062133,360.860214L522.928525,360.627003Z M607.162773,351.118238L607.723853,349.007313L605.207360,348.180253L603.361602,348.632251L602.776820,349.149163L601.019914,350.699900L600.747469,352.120807L606.642796,352.197743L607.162773,351.118238Z M461.983771,357.496687L464.411316,351.909234L464.172962,350.656623L463.547421,349.870436L462.706373,349.343907L457.523158,347.410894L455.356250,348.242763L453.425721,349.651650L449.736482,353.152226L449.785732,357.434177L449.515602,360.723173L448.507122,361.223254L445.981060,361.045340L445.031267,360.670279L444.688416,361.781036L444.993643,362.709070L448.202366,363.879932L452.736141,364.839221L453.841150,364.692563L455.692123,365.255153L460.306519,364.199695L459.777417,363.418319L458.861815,362.596071L461.983771,357.496687Z M628.216228,350.495539L628.790976,348.016764L628.451359,347.521490L627.998435,347.350788L627.430156,347.391661L624.334676,351.351449L624.030253,351.151897L623.515679,350.207030L622.322311,350.228668L621.339544,351.101408L620.212927,353.435927L622.163411,353.310906L623.008069,355.965187L624.801242,355.467510L625.680616,354.662089L626.781493,352.017424L628.216228,350.495539Z M620.479817,349.091461L619.918908,348.274018L618.870081,347.636893L617.405017,347.071896L613.417105,349.555480L612.821927,349.560289L611.934890,348.913547L610.701590,348.959228L608.898757,349.288609L608.941982,349.783883L609.574468,350.098839L610.656563,350.317625L610.136612,351.091791L607.168107,353.193098L604.937914,355.448276L605.426610,355.643019L607.093565,355.570892L608.746680,356.825905L609.266290,356.566247L610.539067,355.489148L611.868093,356.337844L612.498175,355.799295L612.705517,355.279979L612.633318,354.734217L612.872978,354.149986L613.792464,352.784378L615.276754,352.832462L617.374901,349.759841L620.479817,349.091461Z M944.735836,351.952510L944.898278,350.692687L943.038661,346.658366L942.312945,346.653557L940.394921,347.288278L939.045290,348.992887L937.711995,349.993052L937.750387,350.514773L938.250525,351.529363L943.633027,352.274678L944.735836,351.952510Z M482.268395,351.425981L485.028892,347.043045L485.009246,346.033262L482.424309,346.124623L481.165103,346.898790L480.885523,348.274018L481.282879,349.942563L480.872565,350.969175L481.773995,351.442811L482.268395,351.425981Z M515.388951,348.264401L516.129705,347.884531L516.786043,347.235385L516.679384,346.744919L516.083619,345.809667L515.668916,345.836114L514.725605,346.268878L514.310592,347.305108L514.436401,348.293252L515.388951,348.264401Z M634.829843,345.850539L633.387436,345.718306L631.610262,346.893982L630.676651,348.613017L631.299799,349.666075L629.604628,351.885191L630.093496,352.604059L631.415533,353.330140L645.732605,351.070153L646.540112,350.421008L646.613209,347.425320L645.048961,346.805025L642.338956,346.470835L638.624977,346.312155L636.975012,346.521324L635.238289,347.350788L634.829843,345.850539Z M705.316147,344.816714L704.469202,345.345648L705.088751,347.067087L709.357306,348.670718L711.593042,346.586238L711.218384,345.703880L709.034172,345.807263L705.316147,344.816714Z M595.092893,357.443794L595.927614,357.049499L596.571170,356.224845L595.951772,354.229326L598.045929,352.632910L598.577508,351.762575L599.317461,351.101408L600.458153,350.485922L600.183915,346.124623L598.938409,344.982607L597.415146,344.679672L596.199134,345.499520L595.358983,346.961301L598.773640,347.846063L597.133952,349.877649L594.865747,351.077366L591.599185,352.291508L590.512055,353.007972L589.528614,353.945626L588.792107,355.027534L588.324143,356.328227L587.541526,357.174519L585.099858,357.852514L583.802729,357.768366L579.797076,354.611600L578.825402,354.000923L577.694554,353.589798L576.456936,354.253369L575.376622,354.544282L572.842756,354.856833L571.464279,354.837599L569.843197,355.337681L568.398682,356.547013L567.307137,356.789841L566.152682,356.609523L564.630771,355.945953L562.701108,354.149986L559.366537,352.810824L557.100283,351.382705L554.514723,350.425816L551.603034,350.298391L550.721875,349.961797L548.690742,348.302869L547.288287,348.781314L545.941312,348.935185L544.657680,348.512038L543.106997,348.730825L540.384275,349.519416L537.365850,351.678426L534.324379,353.106546L533.320564,353.342161L532.424866,352.719463L532.139013,354.032178L531.647617,355.255937L530.920398,356.429205L530.581710,357.720281L530.460996,359.559522L531.062534,361.182382L531.795752,362.266691L532.356305,363.497659L534.672919,362.329201L537.093345,361.511762L541.314691,362.579242L546.354328,362.124842L551.257917,363.281278L555.456428,365.238323L556.599900,365.413832L557.720687,365.180622L558.875403,364.651691L560.048117,364.430501L562.985636,364.957028L565.053936,362.444605L566.899940,362.379690L568.724641,362.586455L569.455958,363.403894L570.020284,364.509841L571.958583,363.812614L574.153312,363.564978L579.912489,360.718364L581.925206,360.362537L584.851203,360.559685L586.934077,360.470728L588.098705,360.244730L589.995738,359.148398L591.960635,358.318936L595.092893,357.443794Z M770.765282,350.231072L771.903374,348.432698L774.909421,347.603234L777.941864,345.602902L776.025323,345.449030L774.630604,344.631587L770.234932,349.050589L768.817893,350.998026L770.765282,350.231072Z M497.226302,350.207030L496.458504,348.964036L495.533992,346.076538L494.862495,345.393733L490.660538,344.576289L489.496882,344.867203L486.963142,346.064517L486.500898,347.420511L486.977781,349.252545L487.916048,350.805686L491.267261,353.681159L492.092206,353.890328L493.033350,353.813393L493.868677,354.082668L495.367500,355.371340L496.568534,356.955733L495.831350,358.439148L493.627523,358.393468L490.567682,360.307240L488.956641,359.725415L487.056560,359.891307L485.256689,356.727331L484.441103,356.251292L483.852285,355.568488L483.521619,353.697989L482.395870,352.880547L479.508297,353.092120L477.830788,352.933440L475.044073,351.603895L473.782820,351.423577L471.452649,353.325332L468.951174,354.777493L467.492629,354.897705L466.340269,355.491552L465.489719,357.104796L464.974840,358.746890L465.222093,362.348435L464.311362,364.401651L464.107742,365.906700L464.455943,367.159304L466.170128,368.140230L467.999683,368.883137L470.190338,369.440918L472.411631,368.707628L473.540831,367.842105L474.742797,367.647363L476.057088,367.832488L477.393306,367.789212L480.040049,367.188155L485.053602,365.031560L486.434872,365.036368L487.839478,365.315259L492.530808,363.324554L493.838919,363.456787L495.133318,363.076918L496.149111,362.271500L499.537692,358.992123L499.938703,359.708585L499.689310,362.408541L500.240539,363.444766L501.358022,363.468808L505.667652,362.372478L506.856662,362.208990L508.535808,363.021621L509.071919,362.901409L509.207086,362.297946L508.836966,361.853163L507.529818,361.430018L507.377054,360.489962L509.052190,359.915349L510.849373,359.684543L511.610914,359.939392L512.254494,360.631812L512.992076,360.838576L514.602357,360.367346L515.188826,359.862456L515.819140,358.833443L515.273269,357.850110L514.489901,357.150477L514.119203,356.193590L514.347786,353.628266L513.347752,350.697496L512.083700,349.711756L510.347658,349.598757L509.209308,349.913712L508.169263,350.536411L507.271578,352.599251L506.831935,352.070318L506.498129,350.346476L505.302122,349.293418L504.024833,349.040972L502.689335,349.067419L501.406017,349.603565L499.232756,351.086983L498.239749,351.178344L497.226302,350.207030Z M436.933199,346.203963L434.667840,345.225435L431.514002,344.044951L430.714578,344.001674L427.151779,346.677600L425.836708,346.990152L423.558058,346.879556L419.033909,345.528370L416.543995,345.254286L415.910465,345.324010L415.664082,346.478047L415.827436,347.670553L416.244128,348.805356L417.597387,350.887431L418.456928,351.697660L420.990925,352.082339L423.330875,352.933440L425.594948,354.604388L427.692004,356.491715L428.687486,357.881365L429.345091,359.540289L429.174270,361.314614L428.018624,362.802836L429.140069,363.286087L430.233531,362.951898L430.825547,362.560008L431.210641,362.019055L431.522740,361.033319L432.729515,358.722848L433.655815,357.542368L438.738523,355.041959L441.054245,353.419097L442.055813,352.406912L441.842170,351.334620L439.043936,347.511873L436.933199,346.203963Z M749.280826,341.265640L749.504370,339.659602L748.970768,337.945372L745.601193,337.332289L744.577451,337.543863L744.303615,338.231478L743.995759,340.349622L746.400091,343.386187L747.826726,343.528037L749.280826,341.265640Z M683.933732,334.206762L682.325876,334.067316L679.952468,331.840978L676.708306,332.728147L674.341914,334.425549L671.129276,335.163654L668.363335,334.932846L666.036766,334.096167L662.899368,337.870841L662.030658,339.445624L661.622091,342.003745L662.237232,341.873915L665.080005,340.190941L667.043719,339.573049L668.529230,339.527369L669.837286,340.224601L672.901891,340.356834L676.293494,341.162258L677.439192,339.181157L678.834802,337.647245L681.436902,336.315291L684.063106,335.930610L684.139428,335.404079L683.933732,334.206762Z M697.424658,333.103210L698.436731,332.458871L698.687324,332.006871L698.796356,330.838404L696.562284,330.388809L696.550569,331.857808L695.991689,333.680231L697.424658,333.103210Z M937.178113,349.120312L938.988977,347.266640L943.050173,343.838185L945.726202,339.481688L948.176443,334.901591L947.812206,332.240084L946.588528,330.359958L944.659042,327.972533L944.007893,327.376278L939.127116,327.109406L933.630141,328.559172L931.133562,329.958447L928.753639,331.703935L926.997405,333.560018L922.634436,340.715068L918.772673,348.839016L917.762403,351.890000L918.517514,352.519911L922.576415,351.731320L924.976244,351.786617L931.721962,352.358827L937.178113,349.120312Z M781.428716,342.371594L781.850578,341.926809L782.007176,341.104556L782.791347,339.161923L785.056428,336.885098L785.681847,335.752696L787.545957,334.560187L788.606234,333.180146L790.392723,328.568789L789.673625,324.334895L791.798010,322.615852L791.130326,321.216575L789.934468,320.540978L788.100387,321.105979L787.401060,321.829660L787.399493,323.195278L786.204982,323.935789L785.300907,325.527406L784.494440,326.138087L783.001821,328.237001L781.843849,328.549555L780.987202,329.347767L779.362726,332.946934L779.102858,334.305336L777.946044,334.625102L777.745789,337.010119L776.506156,339.060944L777.193250,340.460217L776.840583,342.318701L778.383099,342.330722L781.051417,342.650487L781.428716,342.371594Z M797.123141,322.738469L795.996919,320.336617L792.255649,320.639553L792.788906,321.307936L793.745279,321.683001L795.067464,321.887362L795.886010,323.303469L796.765248,323.952619L797.123141,322.738469Z M416.123578,321.050681L415.573917,319.749978L414.832703,319.572063L414.241854,319.742765L413.709754,320.165914L414.652902,321.783979L415.739494,322.026809L416.123578,321.050681Z M725.315536,322.276852L725.322782,321.161277L725.502218,320.555404L725.215767,320.007233L724.590425,319.456658L723.472937,319.812488L722.354386,321.077128L722.760144,321.613277L724.293657,322.899554L725.315536,322.276852Z M554.148437,320.692447L554.395914,319.317211L553.614593,319.245084L551.248576,318.213657L551.255437,320.615510L551.925552,320.834298L554.148437,320.692447Z M403.843155,320.358255L404.812792,318.970998L409.189292,317.501997L409.029094,316.783124L407.010851,314.638525L387.315879,314.809227L382.962732,315.299696L380.660232,317.795316L379.625000,319.555233L380.347738,321.202149L386.240947,322.978895L388.099203,323.281831L388.448157,322.875512L388.971813,322.868299L389.658458,323.139980L395.564040,323.142384L397.243596,322.524490L399.740888,320.514532L403.410381,320.716489L403.843155,320.358255Z M437.290123,317.045188L438.356343,316.302272L441.005418,316.254187L440.585658,315.347781L439.655861,314.568801L438.296150,313.818673L436.980159,313.787417L434.490993,314.347610L434.027684,315.429526L433.917034,316.595591L435.502048,317.463529L437.290123,317.045188Z M856.314184,311.604350L857.572738,309.606410L857.858863,308.490833L857.028508,308.548536L856.232937,309.337133L855.393930,310.693135L855.410627,311.188413L855.919033,311.986627L856.314184,311.604350Z M218.094713,308.911579L218.732200,306.966532L218.414404,306.043296L217.651150,306.170722L216.904953,306.577042L215.275984,308.284067L215.703139,308.976494L216.711625,309.454942L218.094713,308.911579Z M857.556672,306.670808L857.898238,305.598508L856.908326,304.372335L855.887903,304.894060L856.341466,306.904022L857.556672,306.670808Z M859.991842,303.833781L861.612081,301.109753L860.872789,301.136200L860.204701,301.751691L859.533836,302.821587L859.448513,304.035739L859.991842,303.833781Z M853.843298,304.033334L851.291683,302.665310L849.295702,300.927029L847.626129,298.717513L846.271314,297.484127L845.088716,297.842362L844.911150,299.431579L844.923936,303.643844L846.388782,304.463697L846.142593,304.944549L845.475747,304.997443L844.468417,304.754613L842.932204,312.085202L843.508769,313.672013L845.748525,315.518484L848.515177,314.039865L849.293655,313.205587L850.750147,309.878091L852.890280,307.704640L853.370981,305.766806L853.843298,304.033334Z M264.939873,293.331968L264.063137,292.605881L260.405105,292.088964L257.956582,290.785855L257.074533,293.353606L255.257154,294.952440L254.068012,295.409250L252.915540,295.563122L249.749608,294.089310L247.444859,293.682990L245.069751,293.577202L242.737184,292.752541L238.769524,292.276497L236.860265,291.031089L235.832913,291.526367L233.719319,293.562777L232.122527,296.010315L229.923683,304.393974L229.253278,304.970996L228.115742,305.403763L227.046424,304.704123L225.832780,308.327344L225.172019,309.664112L222.916542,312.385734L222.390239,312.517968L221.220562,312.051542L220.859987,311.628392L220.625029,309.500623L219.847186,309.741049L218.424199,311.101860L217.702579,312.299181L217.892888,313.708077L218.914854,313.849928L220.214542,313.484481L221.482700,313.657587L222.705125,314.162482L225.355159,314.325971L228.060985,313.974950L230.447085,313.967737L232.806447,314.292312L238.221186,315.987314L245.021599,319.086403L244.325302,320.567425L243.302647,322.115767L242.529818,323.656895L242.305883,325.438449L243.177242,326.840129L244.877100,327.470044L246.930388,327.994172L256.421162,328.780363L261.021854,329.376618L266.598335,331.105276L267.666961,331.715957L269.688117,333.410955L271.963357,334.711655L274.361375,335.591611L280.843274,337.024545L283.319697,337.313055L285.835006,337.385182L287.364223,335.884930L288.547512,335.175676L292.310312,334.187528L294.803736,334.206762L297.577570,335.098739L302.076763,334.872740L303.971578,335.117973L316.161284,338.159351L320.097327,339.688453L332.007949,346.062113L336.754849,347.355597L341.574344,348.281231L347.676405,348.826994L351.319015,349.894478L364.404851,350.358497L369.479205,351.089387L374.483016,352.221785L376.477441,352.457401L378.512737,352.135232L381.304557,351.281726L384.014350,350.082009L386.542989,349.480949L389.138709,349.442481L398.330652,354.152390L403.541931,356.376312L408.192444,357.806834L410.755097,357.515921L412.047078,358.321341L412.895603,359.749457L414.478712,360.614982L417.126256,361.331444L417.537176,360.288006L417.522579,359.242163L415.212256,357.249051L414.577950,356.152718L413.506063,352.358827L413.508053,350.613347L413.708225,348.865462L415.408201,342.496615L415.609455,339.813474L415.019805,337.274587L414.478515,336.748056L407.934294,333.348444L407.211433,333.326806L403.647520,334.437570L400.813191,335.072293L395.363113,335.584398L389.968049,335.444952L384.971042,333.956720L380.386111,331.364936L380.321092,328.390874L380.763069,325.260534L379.903466,324.289214L377.730334,323.212108L377.301532,322.147022L376.643107,319.009466L375.790661,315.953654L373.532231,315.376632L370.913251,315.165058L367.088514,315.427122L366.033357,315.138611L364.044081,312.986799L358.617403,312.186181L357.588029,311.404796L356.682304,310.346922L354.513237,309.103920L353.296137,309.192877L351.113501,310.202667L350.140090,310.366156L346.674459,310.051198L346.110050,309.616027L343.055955,304.586314L342.478797,303.869845L339.510370,303.588546L338.387612,304.042952L337.321629,304.773847L336.475290,305.899041L335.823805,307.173299L334.795174,310.135347L333.533890,312.979586L332.044138,315.234781L329.919968,316.465762L328.758271,316.477783L327.650886,316.246974L326.382745,315.607441L325.051307,315.181887L322.196569,315.270845L319.333365,315.691590L316.852265,315.362207L311.857912,313.888396L310.030223,313.090182L307.858547,314.321163L305.473888,314.489461L299.557756,313.265693L296.989410,313.046906L294.391910,313.044501L292.206578,312.606926L290.680619,311.097051L289.545089,305.853360L289.126247,304.744996L287.143114,302.569140L285.339149,300.186517L284.603467,299.669601L283.721868,299.708069L282.454919,300.261049L281.145805,300.448581L278.375927,299.962921L275.719492,298.888216L273.400186,298.534789L271.032482,298.457853L268.821867,297.642808L266.983415,296.142549L264.939873,293.331968Z M626.989891,292.497689L626.477958,290.735365L625.485451,290.194406L625.324435,291.651389L626.010085,292.324582L626.721455,293.675777L626.989891,292.497689Z M550.055794,300.491858L550.978734,292.387093L550.743597,290.776238L549.687248,287.612230L548.878176,290.098236L548.681856,295.481377L548.212749,297.580298L548.653455,299.397919L548.588847,303.143758L548.922042,304.588719L550.055794,300.491858Z M381.226121,288.492189L381.472678,287.056845L380.696759,286.402886L379.789755,286.518291L378.339792,288.309466L378.638017,289.295213L380.714007,289.364936L381.226121,288.492189Z M817.237977,289.470724L817.270513,287.946422L816.017834,284.816074L815.575594,284.486690L815.229152,283.517773L813.762758,283.469688L814.676848,286.715440L814.194224,289.600554L814.415237,290.992621L814.923253,291.004643L815.769873,291.841326L817.237977,289.470724Z M859.568558,285.931651L858.723147,283.371113L857.555693,282.837367L857.885875,281.801131L857.701308,280.647086L857.138608,279.322338L856.162858,279.045848L854.749094,279.319934L854.270742,281.452513L853.484499,282.250728L850.752855,286.075907L848.758125,285.313756L847.810304,285.936460L848.205349,286.852483L850.607432,289.033148L849.429550,292.423157L849.440530,293.384861L847.774283,293.353606L846.194751,293.625288L846.164794,294.692780L846.566648,295.368377L848.370628,297.371127L848.671754,298.087597L850.202354,299.804239L851.942045,301.388647L856.156533,302.138777L856.712994,301.448754L857.221747,301.222753L857.932366,300.410113L858.739084,298.126065L859.037940,297.344680L859.199239,295.606399L859.148969,294.377821L858.439666,291.906241L859.472435,290.256917L859.213933,288.634041L859.337996,286.881334L859.568558,285.931651Z M819.745881,290.732961L820.971580,286.640908L824.435273,282.705133L825.924757,277.095993L825.222116,276.350673L824.715138,276.172757L821.961372,283.823114L820.326470,285.330586L819.824211,287.857464L817.849856,292.848711L819.745881,290.732961Z M156.876928,280.310489L157.791243,278.490464L157.102599,277.545590L153.424797,275.636607L152.452264,275.571692L151.483314,276.466077L151.979753,277.401334L155.107417,280.428298L156.876928,280.310489Z M618.747342,275.211053L617.340726,274.674903L616.924321,275.199032L616.847667,275.869821L617.002146,276.694482L617.660485,277.569632L618.524356,277.709079L618.747342,275.211053Z M584.135267,279.307913L584.831605,273.972860L584.461506,272.434134L583.592056,271.991750L582.934201,270.385705L581.808117,270.303960L580.748956,270.888195L580.847190,272.085516L580.460986,272.371623L579.619819,273.520859L579.285109,274.831180L580.265751,277.148887L582.723262,279.966680L584.135267,279.307913Z M597.434431,275.158160L596.931849,271.938856L600.362704,266.897433L600.252039,260.523753L599.500842,259.136499L598.569932,259.511563L595.534994,261.314753L592.083280,262.793370L591.234787,264.748029L592.248173,268.489051L592.292052,270.243854L590.742833,271.914814L589.507301,276.391545L589.945101,277.903824L591.337477,277.956718L591.850514,276.783439L593.562951,277.896612L594.549686,278.156272L595.513085,278.064910L596.786474,276.793056L597.434431,275.158160Z M609.963086,257.475160L607.698479,254.580439L607.877697,253.431207L607.079148,253.623547L605.035778,254.804035L602.789084,259.129286L602.438163,264.370561L601.687491,267.157093L601.232106,268.527214L600.943948,269.815896L600.215084,272.888539L600.148523,273.698774L599.318948,274.973032L597.895758,276.670439L597.230646,277.908633L597.161636,279.019401L595.866476,280.560532L595.758999,281.933365L596.900225,284.856946L597.750728,284.926670L598.851738,284.157306L600.516834,285.051692L601.389638,284.231839L602.985382,281.310662L602.881134,280.279234L603.498094,279.276657L604.279823,278.514507L604.665189,278.213974L605.881526,278.848699L607.596134,278.204357L609.122977,276.723333L609.520619,275.254330L608.455731,274.040179L606.407118,272.376432L605.816120,272.523091L604.839652,273.097709L604.698063,271.934048L605.247848,267.616306L605.926367,266.315603L606.098394,264.382582L607.011822,262.326944L607.634440,262.346178L608.078543,262.122583L608.434366,261.716264L608.852742,262.122583L609.970135,264.158986L610.200536,262.769327L609.963086,257.475160Z M836.073684,249.959467L833.819760,248.824661L830.814691,246.639196L831.004292,248.081747L834.584480,250.243169L837.114796,251.274593L836.073684,249.959467Z M611.845064,246.687281L612.027524,244.912945L611.315125,243.845458L607.270644,243.436735L606.001446,244.643669L606.006028,245.415433L606.423949,247.550408L608.101182,249.497851L609.579070,249.649319L611.845064,246.687281Z M728.040995,233.699527L727.518436,232.612807L725.705218,231.958852L725.172249,232.591169L724.267245,234.990608L728.040995,233.699527Z M721.705359,235.894606L721.791688,234.875205L722.125877,234.000058L722.655463,233.163380L723.042694,231.987703L721.639575,231.898746L718.402043,233.750017L716.150626,234.079398L714.136941,236.012414L714.059545,236.502881L714.214170,237.579984L715.131159,238.267599L716.807522,236.877943L718.112232,236.185520L718.905628,235.957116L719.145856,236.462008L718.762722,237.325134L719.816631,237.387644L721.106381,236.793795L721.705359,235.894606Z M731.557256,232.749849L730.953456,232.199277L730.374091,232.006937L728.842185,231.468386L728.611158,231.896342L729.274774,233.776463L730.128739,233.757229L731.296642,234.120271L731.459945,233.790889L731.557256,232.749849Z M464.380404,230.720665L464.504260,229.131457L463.794111,229.708477L462.187284,232.557510L463.420679,234.961757L464.380404,230.720665Z M707.545749,227.044571L706.483230,225.546726L705.953755,225.724640L704.996893,226.380999L705.894772,227.443676L708.000953,228.128886L707.545749,227.044571Z M461.347639,240.659827L461.091362,239.496170L461.789908,238.070451L461.542560,236.976518L461.223796,232.451723L461.547144,231.473194L461.405288,230.335985L460.926665,229.006436L461.227595,225.467386L460.558914,225.695789L457.833891,227.645633L456.551374,230.559580L455.506161,234.363100L455.329060,236.517306L456.481775,239.412022L455.887686,244.076266L456.588164,245.237518L461.347639,240.659827Z M691.579283,221.449891L690.449191,220.988276L684.949159,220.892106L679.504066,221.827357L677.577461,222.933310L674.764379,221.882655L673.912396,222.440440L673.357145,223.483883L673.333829,228.047142L673.756635,229.650775L675.608212,232.156000L676.235112,233.550464L676.994576,234.185185L681.150867,236.781773L684.028280,238.284429L687.004209,239.563489L688.188916,239.318256L689.385771,238.714789L691.039465,238.560917L692.602786,238.108919L695.839184,235.803244L697.388895,235.221416L699.021610,234.870396L699.514921,230.884153L699.232222,228.912671L697.899244,227.609569L697.084736,226.938784L696.416298,226.118936L695.836618,224.628304L695.074650,223.373287L691.579283,221.449891Z M716.215193,217.723311L715.124018,218.112798L712.811576,219.394261L713.133356,219.687579L715.044362,219.778940L716.215193,217.723311Z M257.497990,219.415899L258.081196,217.660800L255.635815,216.797676L254.435385,217.631949L254.551502,218.312351L255.076019,218.961497L255.921999,219.641898L257.118894,219.908769L257.497990,219.415899Z M270.339213,216.812102L270.954895,215.470533L270.413120,215.215683L269.213257,215.299832L268.818945,216.158147L268.945885,216.838548L269.437960,217.446822L270.339213,216.812102Z M754.685534,215.982637L751.389403,214.513644L750.153692,214.124156L748.880007,214.011157L747.639980,214.133773L746.389778,214.867068L744.336684,216.554848L742.008410,217.648779L740.742073,217.735332L739.869072,216.703911L739.561242,215.309449L738.122776,215.064216L736.356185,215.583533L733.736568,215.756638L728.952643,215.400810L720.860038,215.985042L718.944661,217.675226L713.545455,224.753324L713.902119,226.236744L714.509596,227.691313L714.449004,229.066543L713.789757,231.504449L714.171865,231.744874L715.316018,230.225390L716.730493,227.669675L717.070452,226.753657L717.393660,225.159642L718.021865,223.818073L719.133190,223.161714L720.175908,223.512733L721.282368,224.274879L722.264777,225.207727L725.108606,229.528158L726.097705,230.114794L727.189255,230.343198L729.865256,229.956114L730.729961,229.049713L732.445818,226.683934L733.579151,225.825618L734.930791,225.070685L736.303438,224.931239L736.995983,225.222152L737.100351,225.974681L736.805585,226.775296L737.118106,227.313847L740.139418,227.883653L742.364370,228.953543L744.970487,229.347840L747.853595,230.444176L749.048230,229.963327L749.095823,228.227460L748.943488,227.373953L749.677361,227.135933L751.453405,227.095060L756.169454,227.340293L758.469627,228.927096L759.027973,230.090752L759.823196,230.973111L765.145232,233.548060L767.122694,234.678056L771.703708,237.721835L776.459693,240.402572L777.981599,233.326869L777.710774,232.415659L776.267791,229.595477L775.072466,229.412754L774.072981,228.924692L773.518920,226.965231L773.256463,224.899983L772.146182,222.507759L768.139420,219.024007L766.509198,218.757136L762.143734,219.112964L759.572120,218.711455L754.685534,215.982637Z M116.920460,223.789222L117.144123,222.765013L117.823235,222.163952L117.982940,220.245364L117.701109,219.334155L113.318872,213.948647L112.294032,214.006348L111.851088,214.859855L112.272226,218.961497L113.429036,220.687745L114.952285,222.070186L115.273263,223.195373L115.166719,224.928834L117.673928,227.373953L116.920460,223.789222Z M286.212493,219.228368L288.158574,215.100280L286.619177,211.825699L283.633843,209.363753L279.319386,208.445332L278.537863,207.721655L274.784327,208.608821L274.125937,212.676801L273.129546,214.354964L273.227017,215.915319L272.282190,217.319397L272.709475,217.826693L272.848509,218.709051L272.854260,220.723809L273.707813,222.358695L273.152700,224.440772L274.136512,224.347007L277.699859,223.243458L278.076021,221.666273L278.553679,221.411423L280.319956,222.469291L280.857431,223.387713L281.024914,224.746112L282.718523,224.871132L283.361301,224.084944L285.224390,222.801077L285.790423,221.822549L286.212493,219.228368Z M112.446489,212.910013L112.442462,211.400148L108.425102,207.228785L107.892943,207.601443L107.443971,209.294030L107.407994,209.678709L108.005307,210.652428L107.813385,213.619265L108.278861,214.847834L110.837699,214.888706L112.446489,212.910013Z M855.745771,197.707984L856.774463,195.940867L856.180638,195.423955L855.715827,195.347019L855.301328,195.575422L854.915914,197.010754L855.103497,198.083046L855.745771,197.707984Z M104.860629,203.112721L104.301993,201.667771L102.605055,199.042339L101.618922,196.226971L100.245374,195.075340L99.155406,195.301338L98.916438,195.926441L98.816898,197.508432L98.323520,198.643235L99.781057,201.006605L101.465012,201.602857L104.948137,203.769080L104.860629,203.112721Z M674.625995,205.776622L674.925464,203.672910L673.124151,198.804319L673.597798,194.957532L672.972589,194.070367L672.102711,194.046324L670.984472,195.551379L670.730664,196.565970L671.502527,200.136269L672.219382,201.136434L672.977601,204.894265L674.237631,206.223812L674.625995,205.776622Z M627.011022,193.570284L625.653141,191.670934L625.491405,192.663885L626.012797,194.527173L627.370763,194.560832L627.011022,193.570284Z M674.428617,189.490287L667.805790,190.081730L663.477952,189.764370L661.816700,189.963922L660.544655,190.803003L661.362603,191.767103L661.470524,193.142329L662.482037,193.190414L670.324399,192.356142L672.873996,192.613396L680.122246,191.192490L681.094321,190.305325L674.428617,189.490287Z M611.972922,190.149049L611.672553,189.069545L610.988848,189.415755L610.523697,190.108177L610.174054,191.093916L610.318254,192.178229L611.972922,190.149049Z M768.619038,187.047578L767.849473,187.083642L765.251114,188.074189L763.211637,188.030913L760.756217,188.730547L755.121154,191.389637L755.465891,192.067633L758.275696,194.332429L762.743160,195.363849L763.590283,196.238993L766.092442,195.842293L766.905426,194.897426L768.115958,194.219430L768.841423,194.467066L769.860154,193.959772L769.326545,193.228882L769.074976,192.269590L769.599566,191.954634L770.105928,189.855732L768.845611,188.506952L768.619038,187.047578Z M651.547136,187.415427L644.943193,185.703607L641.003719,185.910372L639.572499,186.278221L638.757808,186.973047L637.541162,191.192490L639.360752,194.794043L641.595343,194.837320L644.192270,194.130473L648.493864,192.067633L652.207610,193.264946L655.026554,191.932996L658.932556,191.642083L659.108765,189.990369L658.796009,189.593669L657.784582,189.026268L656.462362,189.257076L656.290655,187.598149L655.387449,187.098067L654.969428,187.263960L654.273758,188.285762L653.558062,188.290571L651.547136,187.415427Z M880.026971,184.616891L879.914509,185.217951L880.270853,186.501815L888.438868,188.564654L892.380549,190.336580L895.473530,191.199702L896.222350,192.048400L898.366876,191.526679L901.284453,191.969060L904.797986,191.541105L906.708018,190.670769L910.734319,189.735519L909.115176,188.605526L906.994225,188.117465L899.850747,187.812127L895.803517,186.172434L890.914749,185.693991L888.583484,185.852670L880.026971,184.616891Z M303.336566,185.302099L303.444136,183.934086L301.724966,183.337835L300.112788,184.025448L300.810075,186.335923L303.336566,185.302099Z M240.093576,186.528262L239.731061,184.650550L238.747472,183.321005L237.221280,182.479521L235.178010,182.505968L233.084459,183.191176L233.766809,186.263796L232.565167,188.045338L231.866361,186.797537L231.309821,185.076101L230.153050,183.015667L227.393957,184.196149L226.357687,185.090526L225.475532,186.230136L225.258862,187.405810L225.720013,188.530995L225.432979,190.067305L224.133873,191.233362L221.381226,192.620609L220.190926,193.993431L220.057585,195.714868L222.520246,196.621267L223.476242,197.479581L224.563191,197.746452L229.153373,196.611650L230.145457,197.205498L232.437781,197.931579L234.159664,199.131296L234.536606,202.235173L235.673547,204.894265L236.631853,205.793452L237.287075,206.815255L236.506401,210.503365L237.067720,212.972523L238.343932,214.975259L241.084451,215.725383L243.754680,216.677464L245.700840,218.023841L246.898747,218.463818L247.993271,219.144219L248.994854,220.000131L250.074999,220.654085L251.448172,221.043573L252.678939,221.053190L252.528002,219.314921L251.730620,217.713694L251.620232,216.713528L253.217650,211.998805L253.856448,210.866406L254.704922,209.880666L256.348181,208.781926L246.586225,206.110812L243.350488,199.311614L242.514094,191.392042L241.798056,189.747541L240.806592,188.223252L240.093576,186.528262Z M621.716248,187.386576L622.169967,185.494439L621.442752,184.595253L621.013767,183.633556L620.758712,182.558861L620.326202,182.426628L619.398382,183.215218L619.228113,186.823984L620.213314,187.547660L621.716248,187.386576Z M720.794524,186.309476L720.734152,184.910208L718.254044,183.135879L715.525978,180.856659L712.040803,178.916437L709.960572,178.231228L708.758212,178.683226L705.769338,181.217295L704.353304,184.568806L704.260188,185.922393L705.652259,187.199045L707.894451,187.982828L711.817872,187.054791L715.577556,186.915345L718.767492,187.586128L719.438905,187.309640L720.794524,186.309476Z M613.605451,174.264233L612.436776,173.925235L608.382424,174.704208L606.983749,174.533507L605.292165,177.014683L604.756585,180.685958L605.733132,183.544599L606.406530,184.503891L608.490091,182.618967L611.201423,178.413951L612.200994,177.543616L612.816407,182.178991L611.479296,183.736939L611.629151,184.263467L612.533824,185.213142L613.577689,184.777975L613.956719,184.251446L614.844979,180.810978L616.009975,180.955233L616.811722,182.532414L618.593399,182.328054L619.993636,181.061019L620.815867,178.353845L620.395732,177.089214L619.592284,176.430453L618.415097,175.877477L616.315818,176.300624L614.061592,179.632900L613.244933,177.130086L614.056741,175.800542L613.605451,174.264233Z M319.990080,174.495040L320.884459,173.617492L321.111010,172.636562L320.759671,171.016105L319.816597,170.227514L317.980083,169.532689L314.962522,169.686560L314.385023,171.133913L313.831994,175.985668L314.590672,176.880046L315.614248,177.009874L319.990080,174.495040Z M869.208134,172.903433L869.915733,170.886276L869.057077,170.799723L868.731292,169.527881L867.625251,168.532525L866.276373,169.525476L865.839027,170.972828L866.955774,172.857752L868.157440,173.353026L869.208134,172.903433Z M90.405568,189.199374L92.764485,188.228060L92.724440,185.501651L91.516662,183.816279L89.832744,180.938403L90.054670,180.349364L89.817559,179.505476L89.237707,178.421163L88.481846,175.973647L86.144671,171.432038L85.692171,168.914799L84.320027,167.969933L80.108715,169.321116L78.422335,174.918186L78.948187,176.480942L82.957494,183.299367L83.174798,185.064079L84.163513,186.386412L88.400537,189.336415L90.405568,189.199374Z M782.927703,177.815295L783.951501,174.680166L784.644508,169.265818L783.772982,168.018018L781.739284,167.962721L780.828483,167.340023L775.927851,169.056650L775.810579,169.652901L776.577129,171.282975L776.722814,172.617328L777.286075,174.295488L778.182738,176.336687L779.518534,177.858571L782.147277,178.502908L782.927703,177.815295Z M781.040912,164.567935L778.908153,164.262596L779.033433,165.464716L777.068420,165.676289L775.162619,165.409419L774.251056,165.779671L773.725894,165.661864L773.259411,165.770054L772.795040,166.041733L771.868517,165.923926L771.276350,166.383135L770.867158,167.275108L770.058144,168.174294L779.429613,166.671644L780.470824,165.822948L781.040912,164.567935Z M878.453676,161.464062L878.541002,162.781585L879.477770,164.356362L880.593219,165.149761L880.766071,164.755465L881.476809,164.810763L884.095678,167.140471L886.320097,165.690715L887.952101,170.744426L888.200328,172.987581L889.832360,174.439742L891.739097,174.225765L894.061618,175.384608L895.245431,175.334119L898.322832,174.309913L899.878577,172.362479L897.875761,171.638803L895.128669,169.513455L893.296979,167.037089L889.535899,163.296092L888.401683,162.947478L886.390807,163.461985L884.755451,162.372864L883.068610,162.425758L878.453676,161.464062Z M702.645061,164.654487L702.670708,164.099108L701.769409,160.776450L700.702132,160.675472L699.520506,164.161618L700.127991,164.515042L702.392584,165.161782L702.645061,164.654487Z M775.045144,158.444338L776.309858,156.977752L775.721030,156.174736L774.832290,155.701101L774.430735,155.725144L773.702682,156.282927L772.868792,156.475266L771.547219,157.405707L773.793984,158.475593L775.045144,158.444338Z M584.509396,155.443848L583.050836,155.710718L582.007555,155.448656L580.322327,157.215772L579.941952,158.381828L580.500727,158.352977L581.394113,157.607663L582.140261,157.511493L584.115541,157.487451L584.860778,157.802406L585.426210,156.537776L584.509396,155.443848Z M836.888610,163.305709L832.472302,161.079384L828.340230,158.028405L823.558111,155.703506L818.536014,154.263367L815.991222,153.982071L813.505260,154.179218L807.718954,156.607499L806.756287,157.518706L805.910152,158.648698L804.082155,159.766669L802.509331,161.605912L800.613123,162.755138L793.136263,164.676126L789.528880,165.950372L788.670145,166.488922L788.543516,167.515532L788.674604,168.881140L788.548078,170.217897L787.106475,174.129595L786.235356,175.435097L784.888595,176.134731L783.907054,177.041130L782.874236,179.500667L782.742633,180.503235L784.053398,181.068232L785.376505,181.255763L786.715908,181.085061L788.065774,180.625852L789.235691,179.733878L798.672966,183.371494L800.802539,183.748960L802.987907,183.825896L803.019956,187.648638L804.231079,193.005288L804.734008,194.428599L805.930447,195.484061L806.806363,196.941031L808.596877,198.994254L810.723454,200.631543L812.805569,200.585862L814.982042,200.044908L817.751733,200.739734L822.781751,201.319156L824.943312,201.376858L830.687845,199.946334L833.542457,199.977589L836.394531,200.220418L841.261774,199.323635L845.921135,197.179051L845.863138,198.297024L845.442349,199.186593L844.267545,200.073759L842.932227,201.896174L845.269407,202.163045L845.327304,204.290800L844.714614,204.884648L843.774855,205.048137L841.981650,205.762197L840.979052,208.060653L840.671372,210.044154L839.637961,209.452710L838.753587,208.137589L836.973028,208.002952L834.494403,207.320146L831.361497,205.851154L829.768461,205.444837L828.188927,205.752580L826.307979,206.666192L823.188824,210.871214L819.323040,214.092901L817.777897,213.530308L816.130872,212.568610L810.689212,211.510743L808.678109,211.416978L805.045271,213.366819L802.937873,214.080880L803.638226,215.742213L804.615677,217.182355L805.647532,217.552609L808.958075,217.894012L810.954086,218.672987L815.258949,222.502950L819.387140,226.539679L820.963212,229.453626L821.677665,232.850828L818.986120,236.608668L819.644188,239.674085L820.502917,242.648141L821.148833,244.088287L822.051256,245.307242L823.179656,246.242495L825.745085,245.605369L828.196477,245.631816L829.307336,245.439475L832.812800,241.419570L833.345318,240.029914L833.086853,238.616215L833.321207,237.310708L835.500072,234.440036L836.332215,231.999724L835.924464,229.427180L837.685581,229.530562L838.909695,228.256311L839.266798,223.854136L839.566924,222.531801L840.230311,221.440274L841.730459,220.377597L843.330865,220.634851L841.932741,222.952544L839.992270,225.395258L839.627551,226.897912L839.329923,231.090919L840.190615,233.514400L841.964602,235.288735L843.064635,236.036456L843.958213,237.014986L844.527227,238.380599L845.359492,239.424043L846.725485,239.522617L848.122879,238.974448L849.149165,238.902321L849.841010,239.599553L850.241685,241.123847L851.557766,242.571205L854.313281,241.688846L855.921046,242.640928L857.614727,243.395863L858.847234,243.316523L861.168031,242.179313L862.310554,241.989377L865.044723,242.390886L861.114113,242.792396L860.617982,244.179648L860.376126,245.853007L861.847642,248.716469L871.103950,255.001184L872.785075,255.061290L874.554520,254.782397L876.644516,254.813652L882.384418,255.683991L888.028727,256.975075L890.513875,258.302223L892.882218,259.925094L896.789641,261.170498L901.514885,264.062816L906.578623,265.894859L907.882348,265.942944L909.116348,266.243476L910.282078,266.770008L911.581960,266.664220L912.727749,267.313369L913.803425,268.289497L914.736573,267.926455L915.689827,267.181135L916.173974,268.878235L925.645427,274.831180L926.346889,276.206417L927.268987,277.153695L928.280818,277.112823L929.018577,277.636952L930.293125,279.053061L931.883624,279.978701L932.080792,281.962216L931.681423,284.008242L931.669919,285.167096L932.078269,285.984545L932.942425,286.164864L933.797469,286.054268L935.693961,285.467629L937.613053,285.159883L935.450815,286.359610L934.366994,288.393615L936.123319,289.170191L938.108003,289.295213L936.719724,290.374726L936.239828,291.889411L937.529787,296.063209L938.683925,301.597818L940.297026,304.317037L942.732158,306.942490L943.833904,308.548536L944.269034,311.145136L945.940459,312.604522L947.036294,314.277886L943.064528,314.970313L941.207772,315.566569L941.187128,316.201293L943.520771,319.483105L946.125811,321.120404L950.417928,322.702405L951.794768,322.731256L953.209547,322.452363L950.661085,323.356363L949.697512,323.325108L947.599248,322.776937L946.421390,322.721639L944.954447,323.075065L943.793147,323.955023L944.696200,325.123491L945.910016,326.126066L946.550140,326.953129L947.497651,329.395852L948.407966,330.275809L949.799033,330.771085L950.532938,332.220850L950.120928,333.502316L949.413816,334.786187L948.200965,338.385350L946.596106,340.243835L945.677770,343.398208L945.126568,344.715735L944.396978,345.956326L944.486394,347.117577L944.953413,348.237955L945.831688,348.843824L949.323607,345.901029L951.819233,344.504162L953.240663,341.950851L953.316111,343.530442L953.643989,345.016266L954.391068,346.466026L955.784760,347.038237L958.699608,346.636728L961.633952,345.470669L964.738552,345.001841L967.869726,344.874416L970.176945,342.943805L972.181617,340.505898L970.130060,344.451268L969.044384,345.814476L968.787156,346.482856L969.152524,347.196917L971.073072,349.783883L978.798760,357.657771L980.540250,360.314453L982.020093,363.230789L984.441640,366.356291L987.178191,369.097113L988.217362,369.926572L988.243628,369.602001L988.708429,364.596393L989.160853,359.590778L989.603010,354.587558L990.035534,349.581927L990.458414,344.576289L990.873973,339.570645L991.277990,334.567400L991.673177,329.561746L992.059544,324.556087L992.437296,319.550424L992.743349,315.434335L991.653738,313.825885L990.591109,311.363924L991.085233,308.199918L992.869123,304.278569L993.723082,301.665137L993.870344,299.530154L994.207951,294.526886L994.538343,289.521213L994.861560,284.515541L995.177808,279.509870L995.489265,274.506605L995.792197,269.500938L996.088739,264.495582L996.378560,259.489924L996.661066,254.486674L996.938172,249.481021L997.202894,244.475371L997.463238,239.469724L997.712239,234.466482L997.951780,229.460839L998.181257,224.455198L998.400189,219.449559L998.607997,214.446325L998.795230,209.678709L993.885371,209.613795L993.391870,207.175892L992.393020,206.288726L991.319179,205.641985L984.212868,205.016882L983.271345,204.810117L982.282199,203.915738L981.230335,203.283422L975.002085,203.442103L973.295894,203.240146L966.721104,199.881419L961.828510,197.109328L959.618332,195.623507L957.275751,194.471875L954.677958,193.875623L952.372716,192.642247L950.787165,190.863109L948.947761,189.523946L937.345110,185.210738L935.139030,183.748960L933.079566,181.957801L930.799274,181.943375L926.626875,183.977363L921.420025,186.927366L916.905241,189.795626L915.725705,190.750109L915.742150,191.743061L916.769551,194.005452L916.628784,195.294126L914.415146,197.253583L909.367586,199.532804L904.324911,200.189162L899.450623,201.396092L898.592344,202.672745L897.421887,205.146711L896.612861,207.702421L895.993366,209.022351L890.846930,212.744120L890.334301,213.482223L888.794470,216.925101L887.246433,219.170666L882.017177,223.866158L880.472237,225.902554L878.777804,227.782675L876.244749,228.515970L873.643438,228.359694L870.201869,227.866823L869.028176,227.486953L866.505861,225.438535L865.888641,224.452794L865.255528,221.935548L865.444702,218.764349L865.253128,217.050122L863.620122,217.908437L862.159528,217.651183L861.224390,212.044485L861.237482,209.188244L860.909247,207.880335L859.616223,207.233594L858.530390,207.853889L857.734481,209.019947L857.786066,212.251250L856.994528,215.157981L855.065637,209.955197L851.698575,202.276045L850.938565,199.472698L850.744608,196.707820L850.885728,193.897261L850.664425,190.839066L850.193587,187.797701L851.115835,185.330950L852.726440,183.073368L853.197112,181.719781L853.743167,178.983756L853.500213,177.692679L852.271467,175.048015L850.749055,172.569244L849.828178,170.092877L850.187691,167.520341L850.744472,166.274945L848.885357,164.378000L847.797138,163.752898L845.099535,163.435538L842.342157,163.680771L836.888610,163.305709Z M206.325904,153.667115L203.911686,155.345274L203.417233,154.847597L202.939677,154.787491L202.582207,154.924532L201.588513,156.833498L203.156671,158.699187L203.860660,161.641976L204.977386,159.797924L206.526515,160.516792L206.990431,160.117688L207.817166,158.242382L208.830088,156.915242L208.348677,156.059333L206.325904,153.667115Z M708.539844,153.280033L707.679082,152.977099L706.900243,153.698370L706.095832,155.431827L704.280046,153.592584L703.277075,153.695966L703.364902,155.051957L702.648442,156.758966L702.704775,157.744704L704.436009,160.189815L706.341379,161.257298L705.655747,163.623069L706.167212,165.269973L706.932810,165.183420L709.683161,164.286639L710.092034,164.729019L710.614722,165.911905L712.632593,167.183747L714.409059,166.298987L715.245235,165.337291L714.892292,164.135172L714.350166,163.255220L713.627592,162.524332L710.460290,162.401715L709.313955,160.449473L711.027398,156.958518L708.539844,153.280033Z M701.616233,157.622088L702.300873,155.054361L701.711900,153.272820L702.520829,152.428932L700.340576,151.724490L698.964108,152.287082L698.466030,155.616953L698.767614,158.242382L700.249865,158.259212L701.616233,157.622088Z M190.281385,153.994092L190.887713,153.251182L190.014457,152.238997L187.560936,151.104197L186.212545,151.029665L184.686098,152.751100L184.295484,154.232111L187.446357,154.854809L190.281385,153.994092Z M779.159243,145.528767L777.181805,146.162284L774.178508,146.545760L773.396377,147.149224L772.336857,146.907598L770.842594,147.852464L769.354695,147.221351L767.884018,147.925793L767.724116,149.236103L766.609357,150.589690L768.864116,151.885574L772.251030,152.010595L773.423623,154.448493L773.948861,154.335494L774.641521,153.518052L776.431616,152.729462L776.660729,155.068787L777.747962,156.355054L780.929866,155.669846L781.004391,153.907539L779.791244,152.772738L778.886053,152.866504L778.012323,152.602038L776.500037,149.873227L775.349261,148.947595L775.001467,147.543519L776.335393,147.413690L779.042720,151.003219L780.958467,152.037041L782.033233,153.739242L783.310657,154.309047L785.323981,153.554116L787.061214,153.946007L787.930052,154.638428L788.793546,154.431663L790.591664,152.575591L789.791998,151.363855L790.103251,150.457457L789.236390,149.115891L783.780319,146.411123L782.926434,146.574611L779.159243,145.528767Z M75.490274,158.487614L76.833787,154.775469L77.367916,151.770171L76.073934,149.555867L74.578758,145.859350L73.688924,145.253482L72.567563,145.447023L74.825884,151.003219L74.419963,153.034800L73.238268,154.765852L72.904288,156.946497L72.236456,158.521274L74.187199,159.629628L75.490274,158.487614Z M212.958734,149.760227L211.545445,147.964261L210.225223,147.299489L210.348700,146.974917L209.854440,145.882190L207.832583,144.991420L206.838235,148.538874L205.747662,150.084800L206.321734,150.649796L208.343255,151.474450L211.295898,150.565647L215.896880,153.388224L216.207602,153.231948L216.690710,152.431337L217.882308,152.390464L216.674771,151.515322L215.791772,150.640179L214.364372,148.889893L213.586398,150.166544L212.958734,149.760227Z M751.655365,150.031906L751.507682,148.856234L746.439510,144.309818L747.772787,147.062671L749.925873,148.663894L750.714309,150.101629L751.655365,150.031906Z M706.089767,145.572043L706.001756,143.729195L705.605788,141.917601L705.349761,142.364789L704.857912,145.019069L705.316701,145.271514L705.985441,146.329379L706.089767,145.572043Z M211.019888,143.962406L210.379476,142.890115L207.850087,139.930497L206.878871,139.714116L209.154294,143.083656L209.564629,143.467133L210.185170,143.884268L211.213534,144.574284L211.019888,143.962406Z M180.423453,132.085466L180.642066,130.312340L179.386833,128.227865L178.282252,128.200216L177.552743,129.594674L177.270589,131.909957L177.982091,132.227316L180.423453,132.085466Z M705.277598,129.619919L705.836397,128.605330L705.750752,127.370753L705.361184,127.101479L704.443969,127.121915L704.033321,128.806084L704.276944,129.797833L704.502989,129.892800L705.277598,129.619919Z M704.213549,125.946242L703.786411,124.563804L703.042711,124.205572L702.460675,124.686420L702.332110,125.438947L702.771596,126.484791L703.477707,126.755268L704.213549,125.946242Z M184.004621,129.069348L185.020086,127.635220L184.416954,126.270814L183.596356,125.116779L182.563372,124.019244L182.124342,124.473645L181.679543,126.276824L183.561387,129.403537L184.004621,129.069348Z M192.203322,125.707020L191.714078,124.591453L190.512892,123.483098L190.259042,123.963946L190.320868,124.994163L192.327074,126.416270L192.203322,125.707020Z M201.127371,124.895589L200.847739,123.765597L199.613552,123.350865L198.561819,122.187213L198.250499,122.444467L198.097873,122.839964L198.040034,123.362886L199.773396,125.612052L201.127371,124.895589Z M174.795346,127.046181L174.222075,124.272891L172.945378,123.449439L169.359033,121.808546L168.178065,121.074051L166.136482,119.469221L164.285598,117.602329L163.373311,118.622928L163.073473,121.131752L162.540385,122.030938L162.285329,123.528779L163.088219,124.337806L164.207412,124.954493L167.892970,126.116943L169.323365,126.234750L173.578615,127.295020L174.396148,127.994653L174.795346,127.046181Z M183.333526,119.618284L182.911721,119.022032L182.350075,117.518180L181.811932,117.922092L180.966877,119.053287L182.027542,120.640085L183.475684,120.971870L183.333526,119.618284Z M177.784908,124.004818L175.594715,120.445342L174.095907,119.139840L169.512591,116.734398L168.111166,116.897886L167.629617,119.486050L168.168660,119.792591L169.509742,120.046238L171.658619,120.887722L173.362677,122.219671L174.889295,123.712703L176.057704,124.546974L177.157321,124.706856L177.784908,124.004818Z M196.356074,116.362943L195.827450,117.429223L194.861138,117.424415L194.695339,118.666205L194.379740,119.050883L194.553325,119.663964L195.079707,120.482608L197.316723,121.065636L198.615927,118.533971L198.831192,117.651616L198.862942,116.731994L197.747283,117.435234L196.356074,116.362943Z M208.532774,115.487800L206.691771,116.371358L205.127411,115.981871L203.684300,116.340103L201.284065,118.281526L201.162816,118.903022L201.350349,120.441736L202.263145,120.411683L205.412390,119.566592L205.932729,120.917775L205.209545,121.879471L206.356866,122.469712L206.147745,122.938538L206.361101,123.596098L206.884140,124.436379L208.431308,124.946078L208.944581,124.280104L210.084164,121.767674L210.275831,119.589433L209.937197,118.233442L208.682521,117.335458L208.532774,115.487800Z M161.675139,121.051210L161.689764,119.151861L162.093738,116.961599L161.936800,115.041813L161.275157,114.387860L160.062213,112.298575L158.256605,111.077221L157.818429,111.032743L157.234916,112.244480L157.387843,114.309722L157.892067,117.185193L158.440056,118.945096L159.455138,120.635277L160.677359,121.798929L161.675139,121.051210Z M53.964007,109.358190L51.202533,107.520148L50.920807,107.811061L50.540621,108.950671L48.820320,110.378790L45.230856,110.333109L50.050325,116.195848L51.656518,119.406710L52.481975,122.113884L53.698212,122.250926L56.828211,124.897993L58.578931,129.645163L58.618902,130.752316L61.591161,131.531289L62.799046,129.958917L63.299435,123.658608L63.925425,121.450314L63.288486,120.358789L60.709534,117.216448L58.781650,116.284805L53.964007,109.358190Z M162.914714,109.503646L162.406676,108.251037L153.062780,105.411629L152.675826,105.840786L152.562802,106.390155L152.630304,107.065746L153.913455,108.533535L155.724035,109.349775L158.183971,109.652709L160.214769,110.579544L161.503068,111.835759L163.130110,112.661616L162.914714,109.503646Z M650.132369,120.923786L651.794164,118.774395L653.085884,116.371358L654.940388,111.479932L655.435483,110.753851L657.155804,109.022798L657.406748,108.442174L655.829845,104.962036L654.633424,103.927010L651.978679,103.549544L651.078216,104.259998L649.253247,106.626973L647.724758,109.296882L646.846266,109.941218L644.620777,110.562714L643.685427,111.146944L643.188185,113.322782L642.314578,115.134376L639.662649,116.251146L636.743488,120.260216L629.345600,124.490475L627.520865,124.792207L615.127975,122.579104L610.521350,122.241309L609.354286,122.311032L608.212845,122.704125L606.766577,124.501294L605.589240,124.607080L604.530587,124.183934L601.625689,122.271362L599.259678,121.190656L596.796991,120.363598L589.650390,120.041430L584.392002,118.628939L578.406909,119.135031L577.508431,118.846523L576.685469,118.229835L575.784067,116.979631L575.048323,115.529874L574.254369,114.811006L573.219693,114.541731L571.590841,114.658337L569.990510,114.345786L567.207130,112.742158L565.965700,112.787838L564.685164,113.131645L563.535936,113.694237L562.591926,114.583806L561.235588,117.133502L560.219227,119.930835L559.283086,121.136561L558.163659,122.195628L557.472036,123.211419L556.966651,124.393103L555.108726,125.300703L552.912111,124.533751L551.823472,123.576864L550.834247,121.223113L550.213390,121.321687L549.687451,121.527250L548.858428,124.224806L547.290856,126.368186L546.083123,127.206063L545.135347,128.378130L544.700769,131.478396L543.902822,132.620409L542.072503,134.470471L539.836389,139.551830L539.893533,140.826076L541.072034,144.440849L540.477577,145.972349L539.351449,146.830662L538.249314,146.684004L537.944641,147.606029L538.986564,157.333580L540.209808,162.324780L540.520704,164.464553L540.475995,166.647602L539.251123,164.236150L537.632949,162.187738L536.363895,163.348986L533.152343,167.751148L529.786633,176.040966L528.621029,180.096919L528.608052,182.251118L528.861898,184.431764L528.477298,186.287838L529.250769,190.365431L528.613596,192.935565L526.786459,195.428763L525.223054,198.114301L524.399328,201.030647L524.247346,204.079227L523.232665,206.555597L520.230072,209.375775L519.101016,210.212451L517.907660,210.674066L516.917714,211.465062L516.327751,212.412335L516.299653,213.494244L517.210110,215.595554L517.776784,217.526162L516.889624,220.286236L516.579790,223.142480L516.905092,226.183851L517.548893,229.085777L518.649519,231.170259L520.169207,232.521446L525.564818,230.987536L528.233881,230.586027L529.471775,230.989940L530.469715,231.915576L531.015990,232.927764L530.905989,234.250100L530.568648,235.716691L530.520502,237.253006L530.774624,238.207493L533.084101,243.900755L533.311168,244.751860L532.608734,254.332801L532.107290,256.785139L530.911595,259.437031L530.138713,262.170668L530.059357,265.505369L527.940637,270.474663L526.853294,273.463157L526.049870,276.259311L526.249425,278.983337L528.009038,281.368364L529.938339,283.568262L533.298393,285.595055L534.329257,285.470033L535.537372,284.818478L537.561076,283.205219L538.540120,282.746005L541.267478,282.693111L543.975358,282.296408L545.204252,281.921344L546.405588,281.858833L548.917597,283.075389L548.753597,280.589383L548.324817,278.189931L546.220950,272.121580L546.335829,270.806451L547.123208,267.618710L549.475578,261.810029L549.938112,259.105244L549.407409,254.126036L549.306997,246.016496L550.009776,240.270338L551.254836,237.697792L551.329527,236.700029L550.733692,227.857206L550.137873,225.364003L548.922484,223.084778L548.008297,220.586767L548.252516,218.038267L550.069817,216.076403L554.589990,212.703248L557.028230,211.102022L559.471830,210.462493L561.954410,210.561067L564.341294,211.169340L565.620907,213.172076L565.827325,216.355295L565.787895,219.536111L565.293962,223.399734L564.901170,224.337390L561.861005,229.232436L561.456470,230.619686L561.414452,232.103107L561.866551,232.968636L570.137028,241.922058L572.305842,243.518480L574.913313,244.271010L576.578051,246.187197L576.363234,247.754769L575.689807,249.089128L575.071127,249.928212L574.689222,250.870678L573.146000,258.210861L573.628068,260.677626L575.145428,262.605838L576.351684,263.247774L578.535734,264.012327L582.165850,264.781688L584.815407,264.399412L585.630055,263.396837L585.269941,260.530966L585.429040,259.172563L586.831105,257.205883L588.901602,256.126374L594.731511,254.296738L597.851358,254.181333L599.086635,254.299142L600.182273,254.017844L600.079289,253.169143L600.223474,252.293996L602.290450,253.505739L603.475995,253.556228L604.072445,252.500761L604.266964,249.553149L604.221717,248.000002L603.918671,246.591111L603.331078,245.494773L602.262922,245.239923L601.809354,245.915517L601.170895,246.367516L599.868983,245.985240L599.078242,244.410456L598.180868,243.528097L598.319453,242.020632L597.683970,241.008443L596.643030,240.277551L594.709650,237.500644L593.670679,236.801007L592.466759,236.377860L591.610199,235.574841L590.889782,234.560248L590.902079,233.473528L591.198957,232.271404L592.435103,228.708310L592.639500,226.058830L594.488169,224.231603L594.157929,222.791460L592.619650,220.555511L592.313229,219.389452L592.640871,218.110394L592.428534,217.011654L588.022440,213.119182L586.608802,210.827938L585.787321,208.019781L583.263553,202.829021L581.623423,200.597884L580.695978,199.787654L578.457150,198.941361L577.454027,198.381172L575.938386,195.774974L573.934606,193.930921L572.674083,193.337073L572.861307,191.668529L573.742264,190.574600L576.299340,191.904145L577.566270,192.346525L579.275680,192.091676L580.769625,191.288659L582.156919,188.930099L583.911271,187.114897L590.468528,184.669784L592.512959,183.717705L594.358570,182.304011L598.182460,178.611098L601.499281,174.360402L603.042524,171.629186L604.878961,169.210521L605.872969,168.277676L606.975593,167.609297L610.172399,166.904855L612.408130,167.758360L613.964134,170.090473L615.560785,170.689128L617.271950,170.148174L617.686204,169.102330L618.567986,164.587169L618.221928,162.844095L617.416820,161.394339L615.293354,159.990264L612.906467,159.478161L609.614745,160.194624L606.383702,161.202000L605.449182,161.649188L605.694989,162.341609L606.652276,163.204731L606.713458,164.019768L601.708045,164.380404L598.904137,164.055832L593.473679,164.065449L591.178278,164.969443L590.364267,166.089818L589.386994,166.969770L586.671076,168.405101L584.133282,168.717652L581.629863,168.217570L580.412463,167.287129L579.373793,166.116265L578.134956,165.825352L576.903562,166.491326L574.963617,168.534930L571.538942,172.956326L570.103281,175.278822L568.654215,178.404334L566.125333,180.056047L563.575919,179.349200L560.998224,179.000585L559.508091,179.192924L558.177275,179.159265L556.872802,176.411219L555.057380,171.018509L553.080267,169.078288L549.717345,167.566021L549.092011,166.803877L546.037541,161.427999L545.306145,159.105504L544.650716,156.064141L544.240659,152.989120L544.276398,150.257905L544.776866,147.642093L545.697684,144.449264L546.758980,141.327360L548.163131,138.817335L550.641279,135.376869L551.548110,134.368291L553.950075,132.864439L556.535552,132.420857L559.177967,132.756249L563.730476,134.428397L565.988873,134.553417L574.956956,133.245511L576.912289,133.156555L578.847136,133.459489L581.422962,134.327419L584.018427,134.679640L588.774688,133.905475L593.553016,133.584509L607.227084,133.463095L609.124369,133.277969L610.988305,133.466701L613.108998,135.197753L614.990272,137.386813L615.970431,137.609205L620.659639,138.033553L623.132056,138.104478L625.613850,137.906128L633.163553,136.206332L635.673037,136.063279L637.001997,135.618495L639.307406,134.472875L640.241706,133.841763L642.106716,131.711607L643.715608,129.295347L644.797096,127.121915L646.041260,125.102354L650.132369,120.923786Z M145.565192,94.258354L144.072465,93.069456L142.023067,94.693521L139.965923,94.519214L139.108474,95.655218L139.037560,98.618446L140.509061,102.113010L141.239553,102.757347L143.464823,103.187706L145.966190,101.379717L146.236900,99.080060L147.062426,97.581016L146.789388,96.274310L145.565192,94.258354Z M712.026145,124.546974L710.811637,123.600906L709.858215,122.380755L709.813852,121.369772L710.231395,120.466980L715.227894,116.800515L717.396458,113.678609L717.898732,112.641180L718.142806,109.530093L718.027649,106.443048L717.680703,103.544736L716.224799,101.367696L714.899894,100.301415L714.924166,98.495830L715.258743,97.526920L717.843527,93.237753L718.066777,92.321737L717.897539,91.289115L716.346697,91.887771L714.975089,92.807394L711.433582,97.023232L709.346841,100.036948L708.109076,103.571183L707.869795,105.194045L707.399835,106.724344L707.509758,109.299286L705.075942,114.605444L705.303282,117.361905L707.384083,122.678880L709.314151,124.544570L709.171001,125.829636L708.453845,127.147159L707.922587,128.670245L707.837779,130.388073L708.260449,133.372936L709.601523,136.000769L710.748436,137.136772L711.625110,138.335285L711.131548,141.758921L711.046491,144.569476L711.177142,147.395659L710.899203,149.438059L711.258227,151.383088L712.322426,152.823227L714.758514,154.780278L715.526898,155.854973L718.128838,161.610721L718.889231,162.810436L722.933027,164.820380L723.879920,166.847154L727.077051,167.404937L725.124507,165.524822L723.386666,163.440347L719.876165,157.374452L717.482451,151.541768L715.561452,144.208840L716.062923,141.721655L716.112104,140.348835L715.510475,138.082840L715.804527,136.262831L716.295404,134.642374L717.565851,133.810507L720.241659,134.080984L722.740754,135.229008L725.183550,135.630516L727.656614,135.787994L729.707334,137.109123L737.531893,140.103603L736.736858,138.820941L735.692023,137.909735L734.120337,137.469759L732.991887,136.556148L732.809814,134.632757L732.176856,132.914929L731.210511,131.888318L726.551934,129.700461L723.541099,127.362338L723.446003,125.609648L724.327910,123.841330L725.343479,123.094814L728.983425,121.319283L732.302171,119.098968L733.024109,118.188963L733.215361,111.766036L732.539296,109.391849L732.876298,107.815869L732.486045,106.712323L729.251029,107.040502L726.770537,108.067113L722.447139,110.944988L721.074373,113.013837L721.017692,114.951654L721.218601,116.923131L720.280192,117.680466L718.942797,117.961762L717.058594,119.760134L716.267965,122.415616L716.060379,123.841330L715.257105,124.941270L713.613170,125.093939L712.026145,124.546974Z M50.470397,94.326875L50.311283,92.532108L49.470681,91.244636L48.623353,90.870777L46.522750,90.471672L45.480618,90.849138L48.053022,92.286875L50.355107,94.877446L50.470397,94.326875Z M727.081739,94.914712L729.085390,93.799143L730.636246,90.664012L731.855938,84.527182L729.874262,81.476197L729.147415,81.513463L727.069847,82.143375L724.074590,84.634171L721.769093,88.865638L722.843060,94.157376L723.658417,95.334252L727.081739,94.914712Z M660.380045,80.146651L660.255795,78.782242L661.132252,77.404610L660.869597,76.890102L659.884577,76.361168L659.267839,77.802513L660.178095,80.690010L660.380045,80.146651Z M31.382197,87.325721L31.255005,85.951696L30.869783,84.725532L30.278295,83.505379L25.025424,79.907428L23.894733,78.440840L23.267604,77.940757L20.986010,76.951410L18.693456,74.300731L16.728034,73.637159L16.029836,75.139812L14.854742,75.853873L15.239138,77.318058L16.955960,80.048077L18.513131,80.409915L19.816525,81.455761L21.633330,81.521878L27.573780,85.612698L28.699925,87.028797L30.024780,87.555326L31.382197,87.325721Z M301.073137,73.898020L300.959354,71.594753L300.559716,71.769061L298.894009,74.384879L300.057545,75.187897L301.073137,73.898020Z M233.133246,74.941462L234.167300,73.934083L234.704855,72.147729L234.382366,71.954188L233.772491,71.669285L233.015985,71.248542L232.351596,70.659502L231.494773,70.030792L231.535768,71.290616L231.820973,72.039538L231.933715,73.044513L231.935284,74.305539L232.227678,75.036430L233.133246,74.941462Z M244.307530,67.701078L243.952479,66.244104L242.909790,65.917127L242.436022,66.525401L242.794436,68.404319L244.330243,69.397273L244.307530,67.701078Z M491.380763,64.663313L491.747293,61.536590L490.760213,60.833348L488.832939,60.934326L488.652208,62.057109L489.204625,63.488838L491.137795,65.469937L491.380763,64.663313Z M665.082036,60.834550L664.723439,59.837989L663.364619,57.509475L662.340516,55.064355L660.650333,53.517221L660.409245,54.725356L660.746900,55.834917L661.505226,56.964913L661.908412,58.038410L661.870291,60.216658L664.572669,61.588281L665.082036,60.834550Z M690.663137,52.650490L690.771502,52.188874L690.726094,51.568578L689.532827,50.448198L688.993662,50.811239L688.997659,51.543333L689.510536,52.270618L690.321679,52.934191L690.663137,52.650490Z M687.663413,50.035869L688.055400,48.975595L686.782965,46.915153L685.691651,45.917389L686.339233,48.712330L687.764410,51.073302L687.663413,50.035869Z M495.363527,42.367513L492.357338,42.839948L490.260997,42.789459L489.793802,43.959127L492.349565,46.851440L496.336749,45.613251L496.188772,44.721274L495.363527,42.367513Z M287.967777,54.590718L289.512336,50.983143L289.588170,50.003412L289.350053,47.290216L286.200039,43.213809L285.976017,41.604163L284.985381,42.014088L280.834228,45.901761L280.868236,47.371960L281.877232,49.683646L282.867970,50.591250L286.271644,51.619067L286.141553,52.253789L285.724806,52.559128L285.071007,52.662511L283.268195,54.224070L285.037632,55.491109L287.967777,54.590718Z M466.238802,38.090349L465.392682,37.821073L463.286640,39.362199L462.246811,38.890965L461.188181,38.241817L459.351623,38.024233L457.149376,38.205754L454.769261,39.793762L451.980297,38.365636L451.210915,38.381264L450.707698,38.744306L449.614635,40.702569L447.430580,42.198013L446.437445,44.931646L445.867999,47.552279L445.306352,48.457479L445.355764,53.522030L445.099262,55.968353L445.797378,59.203268L445.752278,60.595327L444.828498,62.665384L444.723565,63.140222L444.314673,66.432838L444.550672,67.306781L444.461709,68.415139L443.702050,70.724416L442.198200,71.354329L440.602080,71.718572L439.200995,70.931181L438.005923,72.198219L436.500718,74.157678L435.866352,75.481215L435.911689,76.709784L436.093838,77.532035L435.801008,78.378329L435.789740,79.275112L435.911979,80.574606L436.996788,81.111954L438.140045,82.232332L438.135084,83.308231L437.542191,84.053546L436.179994,85.205179L433.697161,87.551720L430.866925,89.556858L429.795029,90.022079L429.427829,90.946510L429.251492,92.190706L429.960373,94.918318L430.586095,95.722537L430.930886,96.680627L430.570536,97.819036L430.318354,98.799966L429.269287,99.414250L428.245858,99.862641L427.886205,100.644019L427.411923,103.912585L426.824045,105.617191L425.467773,108.150059L425.021043,109.307701L424.301931,109.680358L421.552536,108.497472L419.122313,109.215137L415.896943,109.671943L413.156256,109.599816L411.042493,110.116727L409.608268,111.455889L408.009292,113.142464L406.318871,114.392668L405.037735,114.999739L402.635828,113.215793L401.442900,113.369664L399.274762,112.754179L394.178835,110.761064L392.915220,110.178036L391.563707,110.126344L391.155910,109.554135L391.349906,108.591237L391.112819,107.327809L390.117975,106.849365L379.971741,107.044108L377.067050,108.135633L375.106661,108.999958L373.713245,109.998920L373.358496,112.482500L372.554466,114.811006L371.503550,117.278958L368.135830,118.019464L365.688274,120.521075L364.838555,120.821605L363.128435,120.458565L361.301442,120.251801L359.989777,120.947828L358.608941,120.912967L354.320494,119.744506L350.287343,119.564188L348.006138,120.159237L346.747664,120.381630L339.758853,123.808873L337.393376,124.206774L336.423530,123.711501L335.049724,122.308628L333.209892,120.906956L328.782493,116.127328L327.157482,115.004548L326.070794,113.851714L325.030861,112.486106L323.561364,111.013509L322.228815,110.001324L320.400324,107.933677L318.578785,105.670085L318.100584,101.687460L316.670434,100.957773L316.171734,99.922747L315.928342,98.744669L317.807236,95.510964L312.424668,98.091917L311.169286,100.593530L310.251786,103.440151L307.986669,105.862424L306.064501,108.599652L305.646550,110.013345L304.745789,114.908378L305.942697,114.723251L306.605211,114.452774L307.377752,114.558561L306.452826,115.295461L305.207282,115.773904L303.661419,117.494138L302.824369,122.958974L302.618933,125.881327L303.042484,132.310262L303.541982,136.671552L306.385519,139.203215L307.994981,141.299711L308.698244,142.535490L309.557670,143.610185L310.146360,144.054969L310.369722,144.660837L309.002142,145.659798L308.348846,148.935573L308.017283,149.995843L307.406009,151.952893L307.377425,155.051957L307.569533,156.393522L308.220237,157.612471L310.304002,159.644053L312.808582,161.139490L312.662204,161.858357L311.472231,162.173313L310.574755,163.449964L310.290548,165.306036L310.934442,166.250902L311.896794,166.979387L314.515043,166.815898L319.449767,168.674376L321.726598,170.326088L323.567359,172.535584L324.944264,174.507061L325.891281,176.812727L326.620939,179.866112L326.930847,182.989220L326.597941,185.867096L325.248845,188.336251L325.098625,191.288659L327.554251,193.346690L327.991097,194.700278L328.450794,200.424778L330.300566,211.621338L330.295036,217.442014L330.770983,218.451797L331.765520,218.925433L332.850036,217.975756L333.438001,217.655992L337.743211,216.612549L339.696498,219.403878L340.442953,219.800578L341.180857,219.007177L342.858786,217.771395L344.799952,217.035697L343.741852,217.961331L343.215344,219.165858L344.019504,220.485788L345.333573,221.036360L347.829960,220.658894L352.582734,218.213777L354.957637,217.653587L357.692781,218.629711L360.528954,218.682604L361.283319,217.458844L362.104830,216.564465L363.486225,217.788225L364.498621,219.483218L364.754113,220.694958L364.814441,226.861848L364.677751,229.629136L364.305186,232.396425L365.069941,232.872466L366.140993,232.889296L367.194058,232.326702L371.065483,228.677055L374.561088,227.188826L377.970445,228.422204L381.341118,229.145883L384.840778,227.217677L389.602020,223.892604L391.178918,217.648779L397.626916,225.354386L398.169614,224.791792L399.073279,224.921622L401.656128,223.818073L402.538367,223.661797L403.473199,224.104178L403.862964,225.344769L403.941500,227.460506L403.779018,229.624328L405.299170,230.494665L407.269826,230.518708L410.870295,228.994415L413.659886,226.152596L414.235699,226.306467L414.602306,227.342698L415.670116,228.011078L416.932994,228.176971L418.208516,226.825785L419.396354,225.075493L418.349464,228.265928L418.370592,229.381499L419.201812,230.227794L420.324448,230.886558L421.375379,231.148621L423.204811,228.559247L423.322107,231.458769L424.634308,236.601455L424.630372,246.656026L425.179093,247.644173L426.050848,248.084151L438.598675,241.611910L454.082528,233.935144L455.093365,232.170426L455.556896,229.941689L456.524678,227.859611L458.642019,225.027408L459.059485,223.791626L459.916449,222.942927L461.069882,222.397163L459.313145,219.908769L458.954588,218.886965L459.262412,217.675226L460.518534,218.718668L461.905488,218.271478L462.862590,216.877016L463.411544,215.167598L463.916204,212.068528L464.101024,208.897330L462.597400,209.520029L462.845393,208.252993L463.645592,207.507677L464.706282,207.464401L465.759996,207.918803L467.496537,207.235998L468.004331,204.781266L468.437120,202.045238L467.690106,199.785250L465.313910,199.263529L464.256732,198.561490L463.080042,198.109493L465.519486,195.960101L466.218476,192.774480L465.767718,191.322319L465.699242,189.370075L464.157002,189.216203L462.463246,189.370075L463.010621,188.372315L463.735382,187.588532L466.948651,185.626672L467.828983,184.770762L468.450828,183.664811L468.693870,181.714972L469.957721,180.599405L472.235217,179.298711L473.087209,178.106208L473.495656,176.610771L473.265401,175.146589L472.622994,173.759342L472.587704,172.463457L472.904526,171.136317L473.328110,172.932284L474.096583,174.571975L475.220957,175.420672L476.622454,175.552905L478.577951,174.668145L480.063813,172.821689L481.759698,170.268386L483.836572,168.217570L486.386029,166.777431L489.986866,165.041570L490.879469,164.406851L491.137126,163.339369L490.780392,162.053101L490.634469,159.076653L488.799376,153.397841L488.830093,150.363691L490.097340,139.620351L490.763948,137.032188L494.861608,127.464519L495.547638,126.864661L497.182083,126.011156L498.703387,124.960504L499.582236,123.527577L499.843069,121.699153L499.267571,120.020994L498.366240,118.378898L500.664510,119.844282L502.424023,122.552658L504.628515,123.901436L507.146884,124.573421L512.011378,125.399277L516.846008,124.766962L519.766601,123.593693L521.748903,121.248358L521.259921,119.718059L518.828475,118.448621L514.092471,112.954933L510.410059,110.555501L503.450575,105.043780L501.754270,103.529108L498.354826,99.468345L496.905765,96.966732L496.158318,96.139673L495.229379,95.527793L497.203262,94.695926L497.364263,94.046780L498.788773,92.250812L500.589212,90.885202L501.093120,89.720347L501.060061,88.364354L500.311514,86.891755L496.960168,82.851425L495.101528,79.719897L494.626080,77.803715L493.814622,77.094463L491.986176,76.322700L491.363616,75.870702L491.893080,75.034025L492.588709,74.344007L491.250960,73.663606L489.759030,73.310182L491.234653,72.780046L490.633165,71.449296L490.541970,69.985111L489.566679,69.144827L488.249425,68.994562L486.351835,67.502727L484.812206,66.799485L484.101627,65.573320L485.350974,62.574022L484.457774,61.066560L480.385331,56.994966L479.222866,56.486468L477.954362,56.240033L480.450476,55.838523L482.977562,55.830108L486.519690,56.095778L487.449706,55.183366L487.703643,53.588147L489.011322,54.870813L490.412216,55.903438L492.241324,55.694268L493.560394,54.600335L493.183336,53.501594L492.487732,52.606011L492.383705,51.954460L490.360756,49.954124L488.718253,48.675064L488.511214,47.237322L486.372582,45.077104L487.007617,43.665808L488.469271,42.954150L488.638273,42.749789L487.831182,42.730555L485.929645,42.201620L482.044480,39.580986L478.157613,38.651742L472.570385,38.576008L469.388342,38.210562L468.120675,38.601253L467.043734,38.618083L466.238802,38.090349Z M689.592872,46.125357L690.093710,42.518981L691.554719,39.785347L690.707914,37.778999L690.105650,35.136725L688.890169,33.724227L687.678152,33.460961L687.043655,36.712713L687.165993,38.476232L688.223605,39.993315L689.258488,40.585963L688.430428,42.956554L687.112997,45.202125L687.318983,46.451133L688.741053,46.639866L689.592872,46.125357Z M29.588336,16.684367L24.300873,15.757525L21.719392,15.085535L19.359376,13.685053L15.148125,9.663928L12.821124,8.068701L10.435888,7.335401L7.989560,6.953124L5.360304,6.849740L2.869234,7.734508L1.775319,8.425733L1.738808,9.600215L2.209885,10.899718L2.354897,12.217252L1.849448,13.806468L1.608286,15.337982L5.711981,22.917102L6.923005,25.653145L8.388532,28.205262L10.307056,30.652793L19.575735,40.468154L25.008247,45.158848L26.839875,47.286609L29.897310,51.472408L31.692665,52.696170L37.730391,54.125496L39.796841,55.475482L41.492111,57.409699L46.501496,64.781121L47.863117,66.916091L49.365460,69.672559L51.138422,72.177783L55.567152,75.346577L56.174730,76.860049L56.766816,79.535973L57.350698,84.019887L58.277812,87.361785L60.371917,89.225073L63.068634,89.684283L64.964949,90.325014L66.760585,91.386487L77.306436,98.598010L78.000680,99.522441L80.410811,103.526704L82.542647,108.630907L85.733598,120.022196L88.516963,128.529597L89.689692,134.129069L90.734896,136.767721L92.422681,138.835367L94.561383,140.292335L100.287956,142.905743L101.858752,144.318233L102.978143,146.239220L105.981147,153.152608L107.507276,155.280360L109.368540,157.102773L110.904599,159.040589L115.229981,165.094463L115.639541,165.779671L117.426679,172.540393L119.371442,177.411383L127.102170,193.046160L126.828668,198.210471L127.669223,200.785414L128.803099,203.165615L132.430520,209.137755L134.284673,211.013065L136.400371,212.607078L137.659407,214.571346L138.637582,216.795272L142.003832,223.397330L143.472345,225.294280L147.031807,228.592906L153.572247,234.038526L154.813054,235.892202L158.548024,243.148225L161.974506,247.651386L169.941271,255.494055L174.585700,258.583521L176.679476,260.540583L178.611083,262.745284L180.153998,264.005114L187.840219,269.332640L189.116602,270.484280L193.885046,278.026442L195.610132,280.012361L197.534823,281.791514L200.105389,285.530140L202.389065,288.297444L204.887555,290.795472L205.523743,290.877217L206.691097,290.502152L206.609125,288.619615L205.561072,284.318392L205.718929,282.601750L206.166621,281.337108L212.290305,285.294522L214.241722,286.419716L215.493665,286.878930L216.536147,286.321141L220.535018,282.558473L221.544951,282.053578L225.160857,285.087755L225.828247,286.061481L226.255908,287.251591L227.090981,288.210891L228.328562,288.653275L229.885903,288.670105L231.189247,286.162460L231.527271,285.181522L233.838601,268.760427L233.904093,263.444923L234.292284,260.148690L234.317747,257.542479L233.523028,247.915854L233.763408,246.903664L235.890339,240.984401L235.995761,239.794297L235.286391,238.481577L234.377382,237.272240L234.315157,234.394355L235.358314,230.396091L235.751027,229.381499L238.753052,225.710214L239.326919,224.633112L239.316751,223.241054L239.113177,221.901889L236.130560,216.523592L229.526532,206.779192L227.683602,205.245285L225.578672,204.026334L223.193222,203.437294L217.525982,203.468549L216.319844,203.797930L215.136066,204.322055L214.279823,204.978414L211.074579,208.721820L210.242426,209.392604L209.210634,209.320477L208.807310,208.043824L209.247326,205.250093L209.737331,204.158567L212.387417,201.626899L213.260778,200.431991L213.700459,198.895680L213.762530,196.955457L212.614569,195.671592L210.152456,194.351663L207.848941,192.740821L206.754916,190.221176L206.873386,187.249534L206.045753,184.821251L205.465375,178.969330L205.047960,176.218880L204.143308,171.874418L203.704546,170.992062L201.459342,171.362315L200.176382,171.383953L197.198730,170.573725L194.578190,169.532689L189.843061,167.258279L186.744563,165.017528L185.779506,164.007747L183.768916,159.598373L183.614735,158.564550L185.322217,156.888795L185.029325,155.720335L183.073788,154.345111L183.936594,152.116381L183.225532,151.347025L183.596284,150.149714L187.101424,147.120373L189.646439,145.909839L191.391912,144.271350L190.431682,141.133819L188.898368,138.314849L186.844825,135.898589L184.661686,133.606147L183.209162,132.947386L181.613137,132.780291L180.259059,133.252724L176.621497,135.584836L174.327084,137.254580L172.006650,138.568496L169.480020,139.408778L164.489009,140.098794L169.622024,138.097265L174.419286,135.202562L175.691223,133.315234L174.922885,131.175462L173.112015,129.075359L170.928619,127.813133L164.766632,126.992086L162.646475,126.241963L160.906680,124.698441L157.584910,121.046402L157.234528,120.347970L156.643100,117.319830L155.716336,114.434743L154.391795,111.996843L152.658941,109.923186L147.467257,105.510203L145.263765,104.529273L142.883286,104.299668L140.734367,103.745490L139.146817,102.161095L138.049225,98.970667L136.746511,95.898047L135.052382,93.671719L131.069291,89.850176L128.649621,88.932957L127.376387,89.214254L126.339492,90.216823L126.141098,91.406923L126.153551,92.737671L127.503820,94.943563L127.803861,97.463208L126.236033,96.453426L123.303077,93.232944L121.518399,92.817011L119.753425,91.531943L118.260625,89.851378L117.000959,88.024153L115.897935,86.058685L114.873313,84.701490L110.840492,80.245225L108.435034,76.635252L107.235271,74.156476L105.801445,71.860422L101.863491,67.062750L97.179491,63.908379L88.908808,57.259434L82.659011,54.081018L80.645006,52.872883L79.010721,51.018005L78.547648,49.767795L77.904843,48.719542L75.009591,47.010121L70.121117,44.663572L68.590725,42.160747L69.168526,39.014784L68.539437,36.743968L63.377610,31.311558L62.896947,30.645580L62.060959,27.808560L60.693493,25.285294L56.150283,21.342619L53.426057,18.136540L52.513195,17.262592L51.469687,16.709612L50.397071,16.519675L44.765054,17.226528L42.468206,16.669942L39.865608,15.704631L37.143622,15.573599L32.261271,16.909166L29.588336,16.684367Z M1.713369,0.000000L1.204770,0.431565L2.726569,2.671134L4.031170,3.025763L4.424414,2.329729L4.476175,1.584408L4.290460,0.745321L2.603306,0.228405L1.713369,0.000000Z "/></g></svg>