<?xml version="1.0" encoding="utf-8"?><!DOCTYPE svg  PUBLIC '-//W3C//DTD SVG 1.1//EN'  'http://www.w3.org/Graphics/SVG/1.1/DTD/svg11.dtd'><svg enable_background="new 0 0 1000 223" height="223px" pretty_print="False" style="stroke-linejoin: round; stroke:#000; fill: none;" version="1.1" viewBox="0 0 1000 223" width="1000px" xmlns="http://www.w3.org/2000/svg" xmlns:xlink="http://www.w3.org/1999/xlink"><defs><style type="text/css"><![CDATA[path { fill-rule: evenodd; }]]></style></defs><metadata><views><view h="223.365737642" padding="0" w="1000"><proj flip="auto" id="robinson" lon0="105.655505826"/><bbox h="29.67" w="133.41" x="1424.8" y="174.91"/></view></views></metadata><g class="" fill="#000" id="country"><path d="M10.354691,221.365738L11.704636,220.657012L12.475142,219.471728L12.709746,218.042057L12.314821,216.575728L12.011680,218.054276L11.305792,219.117365L10.267036,219.703897L9.004869,219.789433L9.052171,220.461501L9.330424,220.828083L10.354691,221.365738Z M3.295980,219.117365L2.888013,217.797669L3.428955,216.416875L3.028913,214.400673L2.947274,213.386462L3.056610,212.152302L2.316705,212.152302L2.248548,215.219373L2.708723,218.848538L4.120036,221.060252L6.876353,219.850530L6.259782,219.068488L4.505740,219.740555L3.295980,219.117365Z M996.196061,0.000000L992.084947,2.346116L989.381723,2.700477L983.828495,3.629147L982.010668,10.239815L988.508976,11.803891L993.884019,16.703848L997.751452,7.795946L996.196061,0.000000Z "/></g></svg>