<?xml version="1.0" encoding="utf-8"?><!DOCTYPE svg  PUBLIC '-//W3C//DTD SVG 1.1//EN'  'http://www.w3.org/Graphics/SVG/1.1/DTD/svg11.dtd'><svg enable_background="new 0 0 1000 1113" height="1113px" pretty_print="False" style="stroke-linejoin: round; stroke:#000; fill: none;" version="1.1" viewBox="0 0 1000 1113" width="1000px" xmlns="http://www.w3.org/2000/svg" xmlns:xlink="http://www.w3.org/1999/xlink"><defs><style type="text/css"><![CDATA[path { fill-rule: evenodd; }]]></style></defs><metadata><views><view h="1113.79264686" padding="0" w="1000"><proj flip="auto" id="robinson" lon0="-8.1124824548"/><bbox h="62.1" w="55.8" x="-131.62" y="-921.16"/></view></views></metadata><g class="" fill="#000" id="country"><path d="M134.149131,412.294604L133.708152,391.199408L125.021438,386.528127L93.042950,386.069362L84.034851,382.760804L64.403138,393.910601L109.458637,399.027469L116.784385,410.180549L132.685014,420.431691L134.149131,412.294604Z M139.504797,1111.792647L186.391255,1097.807936L202.886213,1095.820519L219.191162,1098.639574L234.025033,1105.011246L240.278134,1104.715199L351.563016,1079.698689L370.292332,1064.906285L403.766142,1060.525782L429.691781,1044.472014L445.681519,1043.021804L459.412727,1035.166072L463.253577,1019.697643L461.364838,1003.924606L456.265160,995.695377L447.921024,992.094644L474.950629,991.546118L482.933445,995.104614L489.817457,1002.109837L506.836091,1013.773364L526.811607,1010.297933L551.282046,998.719634L570.461810,978.692673L578.389879,975.036945L618.164702,965.898813L627.335337,962.047246L635.621251,954.724474L642.230494,942.330238L650.852312,931.610741L670.748019,924.755972L721.936624,918.351551L752.323920,919.980668L770.437348,912.327091L779.943650,888.292668L790.545351,911.568819L795.964471,914.250907L803.108259,908.690299L821.036907,899.508228L840.301265,898.637844L870.869770,905.741743L898.916620,901.754450L924.977795,889.106729L894.803795,860.748701L909.349381,854.548832L922.074065,844.479176L952.592168,803.968386L957.971742,769.440564L965.525934,748.035219L974.995240,728.219776L988.960883,711.502917L999.550680,693.896601L997.340310,646.938273L992.024197,625.443742L979.462861,586.876121L976.375452,568.251437L981.706449,561.263630L980.300977,541.434953L982.477819,530.408255L980.904256,507.971519L969.729937,489.903494L963.264516,460.007664L955.136999,433.063951L944.110982,421.113314L938.974582,404.269970L940.048244,391.199408L948.705812,384.415058L965.802300,386.528127L982.416559,382.649595L978.626817,372.322067L969.587558,362.302168L950.549311,360.551303L936.955050,365.609508L928.079843,370.292926L919.702306,369.445156L895.556083,371.251894L872.884640,370.862746L869.986527,363.427753L874.805874,341.045381L870.012670,334.989371L848.505853,331.892170L840.716239,326.559273L828.967080,311.118949L826.859714,303.900106L825.516614,293.934068L812.977328,281.083525L797.458646,271.884547L788.133990,271.440591L768.797734,286.467631L752.710509,301.692991L757.817249,309.341917L762.391330,319.407877L753.679809,326.628709L727.569805,343.156805L723.305532,349.574910L716.302902,353.048219L704.419105,348.477390L674.257033,349.533232L660.546433,346.615822L645.039894,334.433807L606.174056,326.295419L600.575493,306.815297L593.190098,303.178273L550.433163,269.734171L545.108135,258.581267L551.213744,251.923857L568.331255,241.842133L624.877691,225.149481L633.972128,218.426653L636.070670,212.494582L620.077939,205.717800L605.732739,198.235162L600.964135,193.330402L600.770503,189.077176L609.411302,183.535982L626.230802,183.134266L639.370597,185.641573L650.165809,180.654770L668.956124,175.640693L681.705396,169.325235L693.193687,153.027314L705.198716,138.381064L706.753403,130.436521L717.977976,102.607990L723.738782,95.705594L759.635346,77.492131L770.369161,64.744689L796.669307,53.050463L818.385606,36.190595L796.988853,27.776320L776.483891,17.153154L756.951112,3.618031L743.412360,0.000000L730.712422,1.588039L744.052554,18.962683L709.237872,23.769954L695.604120,33.344249L691.846775,48.655369L697.682481,62.560483L700.911329,77.976090L701.531644,90.242345L677.332933,105.253594L660.537542,111.783518L676.558337,96.452507L667.144320,87.974209L678.309447,79.690723L685.271122,68.933618L683.002655,55.013159L673.814714,47.010749L670.816729,34.463427L662.751004,30.926348L641.539815,33.233714L643.292836,50.935801L631.861633,46.900188L597.381804,49.208193L586.928796,48.240754L557.300946,58.261430L526.813329,62.118122L519.573722,72.901626L514.107592,87.559316L498.610936,97.766545L493.662820,113.443783L500.116147,134.879243L478.441218,151.296706L465.522593,157.554827L462.754838,165.073766L437.553455,171.333366L422.691114,179.518946L411.055431,193.940011L478.183562,214.351754L550.436056,205.399076L536.301752,222.626596L526.889420,243.311985L514.063143,249.677157L485.071741,256.431394L472.371109,261.868650L453.205079,272.772468L437.021672,288.882319L448.520097,301.179398L452.646934,318.921892L443.022230,321.796203L408.162427,312.590596L351.603659,305.621439L344.409751,307.384471L328.366814,323.379220L318.339931,327.906338L282.043563,302.595260L227.250828,299.777451L192.622809,302.081659L168.130598,311.049533L143.302852,311.271665L130.077613,309.022613L116.276590,314.201121L108.083835,326.142662L106.315208,343.226261L132.658022,334.308806L139.301219,347.254861L140.138067,366.137589L157.909862,360.412348L158.842698,373.809223L156.300488,386.333499L146.196114,405.326874L140.888021,426.371830L178.598542,418.595525L216.094387,421.781034L212.814957,432.799589L214.946788,442.985375L177.213536,449.804788L141.228157,465.283842L138.261686,474.431358L138.171138,485.126297L149.794578,492.118139L179.572019,500.281074L144.016861,504.293344L115.919468,512.569592L102.512138,510.744249L89.776854,516.248332L91.472321,527.439379L102.536952,536.290737L93.065664,545.631549L93.086407,554.987936L112.399623,559.506361L136.113547,556.577709L159.143081,560.092111L140.186891,575.016953L151.104865,581.406623L162.599553,581.839139L179.368634,577.374624L196.116790,577.374624L201.357225,580.639264L204.977301,595.234937L210.603180,600.929177L219.570776,604.879218L229.276469,605.842346L303.762028,601.375810L327.511728,605.591094L350.288588,613.785339L334.502475,626.658598L327.554609,629.200112L319.979159,629.228041L302.402243,636.043260L278.879465,637.300261L265.538617,645.108311L226.413989,688.122359L236.517224,693.421216L240.946892,702.733973L223.677713,723.658824L211.680521,735.705647L158.760099,773.823533L117.445581,796.332431L152.003309,793.390443L185.428948,781.119979L192.141029,775.125893L199.157968,772.171123L220.725621,779.929509L236.192995,782.744665L285.884930,777.632680L303.909160,768.068338L329.573419,743.080643L344.002877,755.439982L375.044204,764.805948L312.580118,781.582169L249.784798,793.740671L191.854738,799.358654L181.281584,802.875463L150.788306,825.999993L132.900215,832.799210L116.949563,843.988367L128.410755,852.094343L129.719500,876.237690L144.620052,888.124243L107.008519,891.703392L94.748973,885.471627L79.498389,880.700080L63.691924,878.931916L45.658960,881.920991L11.502090,900.533054L4.948449,911.414358L2.607182,921.244674L34.330573,923.885147L101.073834,920.739068L111.293570,924.685744L102.307708,937.089618L79.480571,947.234162L55.965662,954.302851L35.716521,967.402974L0.449320,997.861570L7.756503,1017.980794L30.555986,1014.082928L36.871330,1022.399690L65.618759,1026.030802L177.615234,996.229883L142.563696,1010.677826L129.699484,1023.398923L118.823771,1027.438282L100.791321,1037.643729L66.990798,1059.314524L54.371825,1075.147782L79.767374,1072.132866L105.601007,1061.765241L178.885143,1049.597378L191.241443,1051.949031L186.995231,1056.751262L147.791835,1074.274283L117.337834,1109.015118L139.504797,1111.792647Z "/></g></svg>