<?xml version="1.0" encoding="utf-8"?><!DOCTYPE svg  PUBLIC '-//W3C//DTD SVG 1.1//EN'  'http://www.w3.org/Graphics/SVG/1.1/DTD/svg11.dtd'><svg enable_background="new 0 0 1000 962" height="962px" pretty_print="False" style="stroke-linejoin: round; stroke:#000; fill: none;" version="1.1" viewBox="0 0 1000 962" width="1000px" xmlns="http://www.w3.org/2000/svg" xmlns:xlink="http://www.w3.org/1999/xlink"><defs><style type="text/css"><![CDATA[path { fill-rule: evenodd; }]]></style></defs><metadata><views><view h="962.93740332" padding="0" w="1000"><proj flip="auto" id="robinson" lon0="42.4841426355"/><bbox h="139.98" w="145.52" x="544.9" y="-627.37"/></view></views></metadata><g class="" fill="#000" id="country"><path d="M798.214354,960.937403L814.902785,957.193594L828.538884,938.410431L834.713175,928.322462L845.393421,906.491528L850.321665,890.947881L854.776315,873.710290L858.782790,860.282834L859.673233,857.834209L862.402402,853.285598L869.129441,848.635623L879.118681,844.254937L896.778244,842.327994L909.345935,842.232769L912.201854,842.428821L920.404401,844.607843L943.743198,855.368893L943.690625,852.097854L952.022750,848.439549L958.786665,848.702849L980.829159,858.360906L990.828081,860.456539L999.480216,857.716544L992.221441,852.960647L987.423190,849.083796L982.829285,840.821216L980.992186,835.057733L981.903866,831.792568L979.438765,826.993143L973.567618,820.654185L968.018615,817.171366L962.791780,816.538654L958.011707,812.675305L953.668042,805.587401L945.103737,800.907252L939.993926,799.994764L936.916096,778.119905L934.176551,758.957206L931.439338,739.913617L914.373363,739.152562L899.019661,738.469851L896.835547,722.526903L892.725704,692.833053L896.729105,669.817492L900.977355,647.681236L887.455073,631.396757L873.032233,614.009890L864.281788,606.799186L852.065736,585.076394L846.135246,575.472508L841.587480,571.822088L836.958826,569.696724L821.229266,570.549127L804.746074,558.854921L785.391597,545.114218L761.769216,528.335934L741.537847,517.373732L733.572290,514.958350L715.529162,514.104492L713.320693,512.009060L711.233495,505.985927L710.290503,499.275767L714.648614,489.156739L714.183678,482.796578L698.892932,461.353292L694.225010,455.081461L683.458307,452.558725L684.622640,446.368926L684.014650,442.228275L682.058076,438.971531L679.427514,437.404961L676.353021,437.235900L668.573537,439.771676L660.933347,430.094640L637.567028,402.503598L630.887451,399.150072L629.462180,397.258510L632.931647,388.792125L639.010701,376.234981L639.288145,368.940757L636.564417,360.930538L625.728406,345.804852L626.862691,339.398290L629.444023,332.025606L628.902822,326.486754L634.793558,327.308918L642.166873,327.388297L643.792666,322.874389L641.260042,307.059581L642.117612,301.284487L661.308515,274.498194L671.969086,268.476666L679.929373,262.942432L680.683449,254.882325L678.225677,250.733895L675.562925,244.663212L674.342173,240.295526L662.757375,228.247420L658.438418,222.169047L657.164862,216.631229L657.920699,206.813627L660.781446,199.203217L673.800547,194.728355L680.989201,190.892913L681.496099,187.485674L670.496718,181.945093L648.624865,180.206635L633.107512,181.796414L627.778736,180.057945L618.606442,169.315960L609.746639,163.594488L601.740738,159.920769L594.584106,160.596031L589.954137,159.125317L588.208777,154.518201L572.191872,119.183904L568.134529,114.349453L563.059664,113.152246L558.938881,112.928842L555.828736,110.494265L552.137892,105.613442L549.027643,99.225605L547.543469,90.837844L546.839858,83.641472L544.700190,79.006139L540.370305,74.393696L534.742087,71.081905L529.649774,67.162782L516.855555,36.122357L512.379190,27.776791L512.211378,26.906211L508.533577,24.225819L502.524105,23.252203L496.458355,22.965849L492.998819,25.050542L487.242016,30.646357L479.278868,36.752468L472.909889,42.354945L469.358361,46.193250L465.825760,45.574528L462.613686,42.223185L460.369275,37.537249L458.201526,19.844684L455.742697,14.307227L451.748525,10.425088L447.427167,8.209326L442.501324,6.966945L437.596098,6.840991L431.477054,12.028291L422.488571,17.393697L407.165233,16.958487L396.769188,15.950648L391.657446,14.931377L370.518295,6.709313L366.340690,6.491758L358.423410,3.165603L349.215433,0.526629L335.202056,5.524226L328.612157,4.333448L318.968052,0.000000L315.970384,1.167752L307.979721,14.375940L293.088606,28.515649L284.244217,30.875469L284.495399,32.467823L284.254506,36.506151L275.297024,48.175478L263.093390,64.028658L254.119123,74.026992L238.954561,90.883680L226.306111,94.493225L204.960939,100.566223L199.851762,106.461304L195.678062,115.970521L194.288615,128.977687L194.495018,137.120644L196.075950,152.320313L203.525518,168.074489L210.674924,183.185964L212.730464,193.179389L213.614383,203.031598L210.233303,213.536239L206.985904,227.933561L206.192943,244.207109L208.789791,274.629069L212.303696,300.483632L212.450992,304.708929L205.748108,322.919762L197.868666,344.190704L193.539834,349.117604L170.782232,355.441136L147.083763,370.999280L120.551560,388.374070L96.418183,404.134982L71.038067,420.661236L44.676584,437.788161L25.807877,450.018809L0.519784,466.368399L10.551394,491.866775L20.333476,516.750246L30.470746,542.504592L40.292344,567.498332L33.202692,569.864963L41.275882,589.028310L50.479487,586.096640L60.611333,583.826278L66.471397,596.124038L53.819753,609.819178L75.903861,613.578509L109.096045,619.225400L141.138158,624.675663L175.031762,631.105525L186.292629,636.336286L220.595594,655.592522L242.891179,668.098969L268.938792,682.697115L301.523410,700.953634L323.906957,713.489258L352.563822,729.533081L375.615372,747.865581L404.811714,771.090340L436.893261,796.602403L463.180623,816.437868L499.361434,843.761991L535.033451,870.700583L569.956829,897.093055L597.941906,918.236158L633.320474,944.998224L635.949433,946.002726L668.968244,949.049998L713.353650,953.135700L757.959685,957.238496L798.214354,960.937403Z "/></g></svg>