<?xml version="1.0" encoding="utf-8"?><!DOCTYPE svg  PUBLIC '-//W3C//DTD SVG 1.1//EN'  'http://www.w3.org/Graphics/SVG/1.1/DTD/svg11.dtd'><svg enable_background="new 0 0 1000 1046" height="1046px" pretty_print="False" style="stroke-linejoin: round; stroke:#000; fill: none;" version="1.1" viewBox="0 0 1000 1046" width="1000px" xmlns="http://www.w3.org/2000/svg" xmlns:xlink="http://www.w3.org/1999/xlink"><defs><style type="text/css"><![CDATA[path { fill-rule: evenodd; }]]></style></defs><metadata><views><view h="1046.24761448" padding="0" w="1000"><proj flip="auto" id="robinson" lon0="12.6759336917"/><bbox h="171.73" w="164.3" x="87.92" y="-787.41"/></view></views></metadata><g class="" fill="#000" id="country"><path d="M481.585565,1037.056209L481.228270,1035.046476L479.022731,1030.412962L472.507045,1028.113997L471.591566,1029.616188L472.157549,1034.630320L477.592923,1038.203180L481.585565,1037.056209Z M739.988986,1044.247614L740.032048,1039.192824L738.748656,1034.122814L739.419016,1028.509843L741.364365,1023.069569L744.724622,1018.578457L753.490993,1010.423914L753.351497,1006.070423L752.522049,1001.732431L747.854807,997.389680L742.245673,990.069709L746.768454,986.417759L743.468994,982.416189L739.318641,979.804480L736.728251,977.030688L735.544080,972.796882L734.553426,964.168687L736.783928,956.561495L739.290096,950.577570L741.035818,944.230373L742.057230,936.988644L744.002095,930.326325L762.581035,901.516431L765.100306,896.993943L770.080836,885.236589L774.657483,880.350544L768.934317,877.423763L763.136869,877.943474L750.351889,885.544546L745.155492,884.196651L740.617969,886.195821L736.857028,890.639393L732.146309,892.225259L720.600615,890.689895L709.183958,890.265678L704.500085,890.750499L700.201037,892.427292L692.158055,899.227236L681.424872,903.320726L673.920727,903.623988L663.293551,906.287878L643.243909,903.836275L633.831040,905.529612L621.677408,909.978588L617.135652,909.685325L612.578011,907.956183L596.098554,897.357716L591.218130,896.620074L586.943476,894.907463L583.997796,889.351630L578.870678,888.220511L567.893632,888.336649L559.559669,894.483129L559.142452,899.328297L551.518912,903.755404L547.132008,904.422605L542.626464,901.435571L532.290619,889.089041L529.812584,893.366780L526.796908,896.862582L521.656925,899.237342L517.288125,902.552487L512.741101,914.378127L509.011504,926.702430L510.812063,931.470313L517.382411,942.280452L527.269660,950.081082L532.314806,952.416683L537.232376,952.877749L546.756850,952.067090L551.224776,952.553482L561.300436,959.191600L572.322306,962.019617L576.758889,964.873251L580.650796,969.177015L589.028546,975.575418L608.524022,985.398311L627.087615,997.683921L636.095587,1001.346847L646.063430,1000.672080L656.066764,1001.032293L666.142056,1006.978647L675.642746,1014.625417L687.907340,1032.727173L692.542694,1035.005876L697.560045,1036.061492L711.486553,1041.902926L720.997377,1040.537725L730.668522,1043.618305L739.988986,1044.247614Z M172.944679,797.954982L169.673421,795.585847L163.431651,792.992032L162.805753,794.749536L163.204393,800.916012L168.492066,808.104559L172.944679,797.954982Z M618.648222,631.751591L620.437922,630.493313L620.414108,628.364004L612.760795,626.117841L611.526559,629.900965L612.789886,631.438227L615.009220,632.618305L618.648222,631.751591Z M149.961370,598.304929L152.594690,596.018112L154.499584,592.138214L152.482860,590.116071L148.205814,592.386750L144.872530,599.158372L143.478614,602.538828L147.377662,602.870603L149.961370,598.304929Z M261.753568,614.080518L256.823475,610.807787L255.072681,609.069366L257.795841,603.036496L260.340274,601.797258L259.804078,600.558199L256.474636,599.236405L253.329809,596.924966L249.925044,591.665528L246.026940,587.295571L237.224220,582.732975L231.609831,582.158550L226.880453,576.635148L223.123793,578.119093L221.784405,583.804033L217.346014,588.016445L208.474296,591.265957L194.492240,607.292250L184.601080,612.756616L174.272376,617.266569L165.784172,618.855172L157.047523,617.652693L152.616444,616.533473L147.071302,611.579450L145.313975,610.949416L143.780614,615.214064L142.239585,625.193135L143.415026,637.168925L146.914249,641.751670L152.481861,646.504002L157.468071,652.344365L160.336766,658.164835L162.635768,667.261126L167.998023,673.276074L168.540942,689.629901L167.426812,695.002855L163.711602,699.045376L163.152151,705.069827L164.072824,711.248074L171.458242,713.254294L175.973456,719.167510L175.466916,726.232503L175.756638,730.105456L173.315986,731.113770L169.927048,728.426911L168.364215,731.113770L169.444116,738.643418L168.579788,747.296055L166.353816,751.349705L164.872164,755.579970L166.493832,774.976751L167.407425,783.789620L173.407888,793.547786L179.278878,801.772934L183.018259,808.550890L187.582028,812.428323L193.424642,812.413271L200.379293,814.164389L207.059007,813.833208L213.990646,808.611071L218.378183,800.444989L220.468481,780.364356L224.355528,783.219481L228.372057,784.684915L233.110821,782.959430L237.868498,782.654380L248.383591,787.701589L256.680054,790.569147L262.927336,787.856704L264.344204,778.889668L266.730737,768.574162L270.191390,710.524994L271.532116,701.131875L270.731414,693.565354L267.028118,686.747701L265.211542,675.723917L273.882056,662.431262L276.079374,658.282767L277.694890,652.442562L276.550280,646.749302L266.155094,620.478310L261.753568,614.080518Z M315.531264,418.134085L312.750246,421.666390L306.734900,421.098499L303.727749,422.311298L293.885121,422.850335L292.550346,425.338703L294.509120,429.579546L300.891348,430.085026L311.135374,427.697320L318.211225,432.424801L317.165558,426.724967L318.862633,424.202787L318.433858,421.974404L315.531264,418.134085Z M435.739660,0.000000L420.062445,4.232053L404.925170,9.579004L398.851273,9.720220L392.886630,8.532046L385.071302,8.449262L377.631059,9.880915L362.618643,10.616207L354.022309,14.555485L348.831283,22.238547L346.109940,28.435846L343.677498,30.426809L338.454843,31.176443L330.563142,30.602049L324.945363,28.800943L319.033070,23.509222L310.256779,22.778953L302.236992,22.637766L300.065821,21.659188L297.007094,34.627529L296.720634,41.587336L300.182802,46.190910L300.704860,49.777062L299.929838,53.046651L294.541380,53.343431L287.188492,51.572451L280.766816,45.967069L276.164277,46.638588L272.201022,48.078910L270.405111,53.372622L268.885998,59.706597L269.647338,63.223373L272.689394,65.927597L275.198071,71.695235L277.190421,79.148836L278.590736,82.580871L277.313562,84.102313L273.538556,85.123043L270.319690,84.116895L264.324328,75.196169L261.560808,71.797351L257.145851,71.204101L249.511307,73.367951L237.873062,78.361260L233.077769,78.341814L228.955464,77.335437L224.939840,73.095654L221.320432,64.925697L220.040886,59.794156L217.783079,59.959544L210.120997,58.475886L206.675685,60.504347L207.028656,68.865036L206.809953,79.270374L203.299158,85.993066L193.209632,97.616704L189.535872,102.688319L188.146483,106.326244L187.957668,109.487746L189.822681,114.955056L192.265851,120.178403L190.555026,123.148772L185.000390,124.706601L180.892550,121.532590L179.108839,115.892044L170.175937,108.186286L173.805116,101.736253L173.077438,100.133204L158.751505,96.785915L152.429853,91.907546L143.492366,83.339171L141.742681,79.659291L141.602860,67.717325L140.989115,64.818697L139.789218,63.408201L135.643866,63.500615L130.040382,67.654103L124.962725,73.849327L114.335355,80.835735L113.260994,82.332961L117.195896,89.142426L117.138086,91.795780L108.675122,102.644603L107.124332,106.224253L96.090296,113.032415L91.015062,115.581337L75.149451,110.570625L70.793752,109.978204L63.934690,113.333445L54.126861,116.523155L38.269092,119.697866L32.307524,117.372700L29.448814,115.188093L23.200274,120.896764L12.432331,126.244912L11.315129,129.670539L11.586361,133.566162L12.920950,136.631700L19.097908,140.569667L25.911063,149.485429L30.308405,157.432938L39.620314,165.052560L41.900950,167.309247L41.401326,169.212194L39.131277,172.455925L36.406268,183.267120L32.765698,184.984454L28.664362,185.681012L17.726267,193.597384L12.700876,192.640086L5.600042,192.741620L0.478356,195.347444L1.205300,200.277487L5.922805,204.785627L8.771632,209.691972L10.027497,214.795984L15.231879,218.575832L22.438880,220.834625L26.522952,220.989061L29.235731,222.345138L30.897173,224.096775L34.341226,235.022364L32.594922,237.761154L28.788398,238.927911L26.641735,243.420706L22.273317,250.042347L19.842114,255.356454L22.884180,260.033544L24.233854,263.496198L22.810463,267.059468L25.053409,272.610433L30.676030,278.102502L45.708134,285.821426L59.648669,292.100109L63.932796,293.144041L82.325910,289.107655L85.404485,289.454062L87.840789,294.264912L88.943657,297.502262L87.039613,302.379438L82.267448,309.097900L77.020891,314.449901L73.884538,318.998471L74.724042,323.128456L75.136615,328.623543L94.532370,325.133267L116.336577,317.830107L122.403946,313.675745L138.665423,292.244434L158.869166,271.585062L175.880124,264.074060L189.270743,265.509027L211.160998,273.866822L218.744113,274.237469L255.540389,295.727285L281.637716,303.726095L293.390472,310.862725L298.542686,320.258166L306.269154,353.634677L317.312829,367.603914L324.108094,384.084558L325.361954,390.354765L324.503222,397.741495L324.782463,407.356690L331.009484,408.727734L335.435466,408.376550L340.748814,410.430788L343.276223,414.015172L345.843052,419.462261L349.150822,423.442326L360.494050,429.906903L380.354898,449.985144L382.150732,457.739097L378.694623,458.973066L375.674511,461.687110L378.923921,464.324394L382.812973,464.006164L387.682170,461.773888L391.459916,461.026641L408.342072,466.986165L420.126330,474.433511L435.151077,494.752323L457.947560,508.724575L469.366132,521.428645L506.267851,555.475672L524.603139,561.536122L539.646725,572.267360L541.232263,575.725434L545.291664,577.953658L552.906200,574.582333L558.074526,573.468548L567.620883,574.499646L583.802283,579.116629L593.147113,576.892998L598.512464,578.771129L609.581436,589.307341L626.687057,615.253154L626.768367,621.065067L629.487979,622.898958L631.471758,619.573810L635.216392,620.219173L648.633726,621.025949L658.824836,626.367383L661.697978,629.435929L652.531225,642.467515L656.064470,642.364547L662.202809,639.065405L670.314288,639.697670L674.690769,637.854936L687.321212,635.483560L693.675374,639.339870L699.726656,646.764020L703.655498,655.482416L707.432221,664.727739L703.140895,671.572457L703.248272,676.093386L705.395503,678.690086L734.983067,695.768664L743.097310,697.577322L759.211925,697.508129L768.557169,703.852698L775.237859,716.034288L784.382227,740.801886L800.257911,768.654038L805.645428,790.579157L809.394851,802.439483L818.487876,810.933345L818.567857,829.636658L807.752358,831.983872L800.122367,834.437184L796.587987,838.646306L792.938062,844.603150L795.921168,858.052519L790.150616,876.692163L780.175200,880.895598L775.922989,889.881872L777.009226,904.488316L784.183034,914.337666L812.027703,914.054446L815.987417,906.100836L818.444863,899.090804L828.996281,882.212899L849.995408,865.733021L851.837694,857.014704L849.111596,834.210933L853.366923,825.426049L864.353353,816.216955L880.370996,811.068787L892.783833,813.170880L898.588062,805.081090L893.319756,790.874474L890.916681,765.893766L880.608314,755.579970L865.380746,745.713040L846.117891,739.538557L839.061893,728.481532L838.961639,717.090099L848.612918,688.973399L858.656736,669.869260L867.745338,656.617164L875.871382,651.043378L888.263802,652.118516L891.311875,653.763441L894.493675,658.646401L895.468526,662.554181L907.345540,668.481414L914.194291,671.030932L946.686608,674.536825L966.959448,709.247420L979.346070,717.813897L989.920178,720.977710L993.416711,712.630071L995.188988,704.189117L999.521644,692.246689L996.521009,680.503932L984.369562,665.396661L958.665024,645.871164L951.247858,636.811244L910.067076,618.229470L892.599353,604.739519L877.761148,596.076616L830.988776,579.131228L785.066875,558.884237L775.286767,551.262625L775.605566,540.456012L784.900008,532.522599L794.153300,526.797603L796.864282,521.293119L794.248921,513.149754L785.542141,509.986689L777.452458,508.864804L731.701757,511.461724L712.147666,509.401556L686.483361,497.670327L658.495577,478.708508L627.426201,452.818442L612.133836,434.755160L604.089118,418.783729L592.146266,386.392530L581.709380,365.762758L570.029902,347.904851L565.217254,343.929524L547.423621,336.603618L514.398539,313.454555L496.414138,306.212494L478.994875,292.470540L471.119396,283.636839L462.504633,263.370992L456.193104,234.448516L458.015705,223.609423L461.253592,223.522567L466.747843,226.957870L472.859120,222.325836L475.309818,216.968421L476.954168,210.189411L465.951278,203.084966L456.386672,186.459766L451.297420,183.112309L452.406614,170.490393L453.999367,162.834336L460.122959,158.275952L470.898642,152.887760L474.474062,153.023453L466.571823,160.664280L471.876471,161.284323L480.848080,157.757552L492.588547,153.086453L503.579303,146.484870L513.643430,143.832943L520.481539,137.834509L523.112681,132.998600L526.939257,130.534138L548.135632,136.636550L555.213960,130.602060L560.845994,130.577802L574.264206,144.851093L569.424601,148.787441L573.978913,149.344864L579.435647,148.263933L581.698589,146.082498L577.753779,139.570698L568.411845,131.538392L563.530219,128.486672L556.961934,126.463275L555.711446,124.298956L558.422554,111.619466L557.228128,109.817957L549.933082,110.415237L548.120909,109.089546L547.379193,106.889613L547.672212,103.873495L552.285554,98.942998L557.488687,94.565492L558.795260,92.111638L558.470259,90.192135L551.303752,88.248199L546.929165,86.255526L543.518519,85.565349L541.284445,86.683234L539.487313,85.424395L537.532123,81.773941L538.868214,76.207477L544.851091,71.063081L551.329297,66.491761L557.012270,63.160143L560.321962,61.730124L561.558058,56.014342L544.529908,52.496874L533.441769,52.263337L518.727977,50.793973L489.352691,45.490187L480.763567,43.339283L472.636896,42.677445L462.978676,40.842736L455.528632,37.839880L450.528218,32.140240L445.103267,24.555924L435.411402,14.647999L433.249214,9.710481L435.757301,5.381339L438.406846,2.118489L437.993631,0.711039L435.739660,0.000000Z M472.875844,312.137017L476.186305,307.424385L481.226200,306.703025L482.333218,310.324147L480.251652,315.401955L475.510511,316.123199L472.875844,312.137017Z "/></g></svg>