<?xml version="1.0" encoding="utf-8"?><!DOCTYPE svg  PUBLIC '-//W3C//DTD SVG 1.1//EN'  'http://www.w3.org/Graphics/SVG/1.1/DTD/svg11.dtd'><svg enable_background="new 0 0 1000 1238" height="1238px" pretty_print="False" style="stroke-linejoin: round; stroke:#000; fill: none;" version="1.1" viewBox="0 0 1000 1238" width="1000px" xmlns="http://www.w3.org/2000/svg" xmlns:xlink="http://www.w3.org/1999/xlink"><defs><style type="text/css"><![CDATA[path { fill-rule: evenodd; }]]></style></defs><metadata><views><view h="1238.40994446" padding="0" w="1000"><proj flip="auto" id="robinson" lon0="36.2988606099"/><bbox h="69.92" w="56.5" x="498.01" y="-559.43"/></view></views></metadata><g class="" fill="#000" id="country"><path d="M273.150411,1236.409944L286.241991,1233.432155L335.979570,1187.601316L380.739576,1146.247950L405.008810,1095.662636L428.446316,1046.712110L440.369317,1036.548740L482.672725,1027.367712L549.727094,1012.817935L616.130527,998.399637L621.034151,993.480820L632.842481,954.218523L647.803403,904.379515L651.358398,899.158423L655.810426,894.081697L701.404320,866.176401L729.041109,849.233046L681.803317,799.245617L637.266590,752.105017L587.374023,699.317536L545.497315,658.264675L482.709018,596.754873L441.638456,556.503473L503.865159,537.428509L571.064953,516.823760L638.884183,496.015370L720.460902,470.964756L784.226529,451.377723L879.330786,422.122846L925.790526,407.810801L934.039373,404.102720L967.006701,369.513288L999.595930,334.236127L984.501058,302.558462L958.402545,308.406662L934.695081,315.958317L913.899438,266.595662L932.161596,260.499485L906.862249,196.118383L880.749767,129.778045L855.552209,65.680987L829.711896,0.000000L770.531759,40.245446L710.472718,81.001332L664.779749,111.935716L595.473751,160.836396L554.828979,189.496941L494.956243,231.616775L442.204776,268.675787L379.665744,312.521873L293.599947,299.497055L266.035839,291.929801L241.819194,271.059210L224.484678,259.921628L183.260863,248.479349L153.213613,209.142890L136.286379,195.207604L108.830159,188.947540L95.866451,190.725851L66.694983,204.589598L62.992834,208.752617L58.474857,216.788990L58.208581,223.003664L61.080997,289.388005L71.274780,335.997342L66.256348,375.863282L69.163178,410.768543L82.930784,475.579958L70.938064,503.095916L65.842321,535.582943L64.684513,560.107830L62.448156,605.548533L62.635652,605.707106L59.777532,633.557582L62.513878,638.300123L72.403759,662.517013L62.814553,706.841986L50.679017,742.879231L46.809088,759.990291L35.232716,798.005765L23.876374,842.167654L18.465066,872.593573L21.404753,883.395041L22.901789,939.229174L26.680102,955.069742L12.828857,1003.479778L11.379948,1027.411018L7.007658,1059.893853L0.662245,1128.522335L4.791914,1149.397463L0.404070,1188.150457L54.949340,1197.789632L99.873682,1205.738417L165.494686,1217.344351L233.407243,1229.370305L273.150411,1236.409944Z "/></g></svg>