<?xml version="1.0" encoding="utf-8"?><!DOCTYPE svg  PUBLIC '-//W3C//DTD SVG 1.1//EN'  'http://www.w3.org/Graphics/SVG/1.1/DTD/svg11.dtd'><svg enable_background="new 0 0 1000 50" height="50px" pretty_print="False" style="stroke-linejoin: round; stroke:#000; fill: none;" version="1.1" viewBox="0 0 1000 50" width="1000px" xmlns="http://www.w3.org/2000/svg" xmlns:xlink="http://www.w3.org/1999/xlink"><defs><style type="text/css"><![CDATA[path { fill-rule: evenodd; }]]></style></defs><metadata><views><view h="50.8767723268" padding="0" w="1000"><proj flip="auto" id="robinson" lon0="173.110470106"/><bbox h="257.91" w="5170.86" x="-2582.2" y="-65.79"/></view></views></metadata><g class="" fill="#000" id="country"><path d="M75.799709,48.876772L75.816217,48.826498L75.781543,48.741778L75.740081,48.672884L75.710423,48.670091L75.701241,48.725640L75.719090,48.795155L75.753265,48.859083L75.799709,48.876772Z M62.597493,30.349334L62.599904,30.325437L62.570368,30.300610L62.461986,30.294713L62.437463,30.288507L62.411623,30.288817L62.416001,30.323575L62.456991,30.365161L62.533389,30.365782L62.597493,30.349334Z M10.106922,27.325405L10.051617,27.275750L10.024706,27.268923L10.026117,27.282888L10.048158,27.294371L10.078339,27.321991L10.113433,27.358922L10.098916,27.362646L10.062689,27.346198L10.079575,27.371646L10.128540,27.384370L10.144802,27.387783L10.143080,27.367611L10.106922,27.325405Z M16.514421,26.804342L16.512003,26.777343L16.541846,26.767412L16.560466,26.767412L16.561892,26.754377L16.556969,26.742585L16.517211,26.749722L16.474909,26.791308L16.515433,26.846549L16.588897,26.837859L16.609433,26.816135L16.573410,26.819859L16.533452,26.826066L16.514421,26.804342Z M19.255629,26.652896L19.257201,26.621862L19.234037,26.591449L19.197067,26.583380L19.171886,26.607586L19.174727,26.641103L19.196457,26.662517L19.229109,26.667482L19.255629,26.652896Z M64.823722,25.459636L64.835149,25.357844L64.851247,25.312224L64.827248,25.278707L64.728400,25.302604L64.651417,25.332707L64.653919,25.354431L64.712941,25.405947L64.781692,25.452808L64.817011,25.478256L64.823722,25.459636Z M19.410750,22.432577L19.419820,22.384785L19.400136,22.367716L19.390484,22.399681L19.378535,22.437232L19.399077,22.457404L19.410750,22.432577Z M17.631880,21.259803L17.571368,21.243975L17.554839,21.264458L17.548831,21.284320L17.557911,21.307285L17.576114,21.298595L17.609507,21.281216L17.660722,21.300147L17.705274,21.328388L17.741872,21.361905L17.804134,21.459351L17.810346,21.514902L17.761989,21.493178L17.695020,21.444455L17.638767,21.437317L17.645475,21.448179L17.670788,21.461213L17.719978,21.507764L17.786971,21.543143L17.840175,21.544074L17.840944,21.515833L17.801556,21.402249L17.726400,21.320629L17.631880,21.259803Z M989.963506,16.319820L989.946792,16.240993L989.886755,16.114685L989.811015,16.071238L989.875169,16.232925L989.891943,16.397715L989.911440,16.461334L989.975294,16.483368L989.963506,16.319820Z M975.327673,15.245115L975.340416,15.190495L975.294345,15.159772L975.257297,15.178082L975.249178,15.219357L975.301231,15.252253L975.327673,15.245115Z M989.247956,15.016395L989.214545,14.774641L989.160527,14.509301L989.060038,14.459647L988.935910,14.349166L988.899450,14.349166L988.973001,14.469888L989.098361,14.524818L989.168013,14.927017L989.122549,15.024154L989.155746,15.102980L989.247956,15.016395Z M985.092514,9.248898L985.010035,9.210882L984.971658,9.210882L985.012269,9.319345L985.029812,9.319345L985.073148,9.293587L985.186215,9.409189L985.114865,9.561565L984.926298,9.790285L984.986187,9.813560L985.178981,9.560013L985.227809,9.461481L985.245845,9.375051L985.092514,9.248898Z M985.083292,8.203521L985.148441,8.190021L985.272788,8.155884L985.432006,8.154487L985.455074,8.135867L985.455149,8.098471L985.401985,8.059058L985.374569,8.078764L985.054456,8.150608L985.007680,8.215314L985.083292,8.203521Z M985.022170,7.010887L985.063993,6.934078L985.052837,6.815839L985.036040,6.734375L984.996025,6.718702L985.014587,6.915768L984.995879,6.978767L984.921212,7.024542L985.022170,7.010887Z M984.978251,6.603101L984.867974,6.440173L984.831344,6.390208L984.775583,6.327209L984.731238,6.291676L984.727570,6.348157L984.827373,6.476948L984.994553,6.676652L984.978251,6.603101Z M57.798387,6.571757L57.867209,6.212694L57.536582,6.033163L57.395910,6.019663L57.743234,6.284072L57.662606,6.342571L57.534554,6.598136L57.335448,6.476017L57.274429,6.345209L57.138598,6.424035L57.572631,6.787908L58.055418,6.965267L58.253685,6.939509L57.798387,6.571757Z M984.316906,2.772114L984.417616,2.764821L984.433311,2.699804L984.265030,2.708959L984.132162,2.827199L984.056957,2.829837L984.116030,2.895008L984.316906,2.772114Z M984.655329,2.524307L984.632129,2.480704L984.631932,2.462084L984.428636,2.613064L984.483258,2.630133L984.655329,2.524307Z M52.501240,0.000000L52.415934,0.020793L52.351195,0.076189L52.295634,0.159825L52.378360,0.244393L52.397503,0.136705L52.450776,0.136705L52.524392,0.191790L52.577470,0.270617L52.553762,0.320582L52.426011,0.343857L52.497519,0.391029L52.658135,0.403443L52.709231,0.267979L52.501240,0.000000Z "/></g></svg>