<?xml version="1.0" encoding="utf-8"?><!DOCTYPE svg  PUBLIC '-//W3C//DTD SVG 1.1//EN'  'http://www.w3.org/Graphics/SVG/1.1/DTD/svg11.dtd'><svg enable_background="new 0 0 1000 981" height="981px" pretty_print="False" style="stroke-linejoin: round; stroke:#000; fill: none;" version="1.1" viewBox="0 0 1000 981" width="1000px" xmlns="http://www.w3.org/2000/svg" xmlns:xlink="http://www.w3.org/1999/xlink"><defs><style type="text/css"><![CDATA[path { fill-rule: evenodd; }]]></style></defs><metadata><views><view h="981.157164865" padding="0" w="1000"><proj flip="auto" id="robinson" lon0="20.8882160388"/><bbox h="22.84" w="23.31" x="269.43" y="-725.17"/></view></views></metadata><g class="" fill="#000" id="country"><path d="M442.813338,979.157165L458.939020,965.378446L467.994072,943.895981L464.052513,864.283083L476.601590,827.531619L632.818345,757.640894L680.409037,755.054479L720.317487,787.150778L751.422918,807.679736L768.880278,807.066873L773.179738,786.367828L789.041005,746.580989L820.228911,723.818037L917.344495,704.427174L918.314511,704.529223L903.919465,681.332434L887.516832,648.177644L892.393101,633.150405L935.935533,607.077942L938.734712,582.166099L991.061537,462.358766L999.489878,423.383053L998.642779,410.653416L980.996264,402.201458L945.659466,402.540886L783.973715,353.941310L785.517770,298.263862L736.470621,268.276836L684.222254,241.515785L672.905725,211.671760L611.824205,151.383625L568.149486,117.582948L515.053981,100.700872L468.326128,75.955509L440.202880,60.837905L425.566499,32.705724L423.917621,16.064508L408.964150,0.000000L408.964150,0.000000L387.746464,1.728436L353.853307,24.096957L311.215483,43.348285L304.840501,57.380596L324.173245,90.734730L337.767084,111.921596L334.506451,131.991019L322.895008,157.520354L242.631723,213.876026L234.925896,233.647462L254.349587,265.258006L245.415015,279.945506L175.670309,300.774278L103.139841,320.994409L93.053548,351.701694L56.627810,348.138722L12.976967,347.935125L0.510122,367.413504L24.423940,399.519999L41.551459,437.267938L35.482507,489.049709L32.458665,495.875997L56.763087,511.601410L110.694653,580.331031L148.027230,640.833791L212.254771,661.846528L249.194320,685.413651L297.195273,721.334464L322.249985,757.504765L363.092470,867.962375L372.888300,934.724832L366.933199,965.276136L374.551861,970.494062L442.813338,979.157165L442.813338,979.157165Z "/></g></svg>