<?xml version="1.0" encoding="utf-8"?><!DOCTYPE svg  PUBLIC '-//W3C//DTD SVG 1.1//EN'  'http://www.w3.org/Graphics/SVG/1.1/DTD/svg11.dtd'><svg enable_background="new 0 0 1000 923" height="923px" pretty_print="False" style="stroke-linejoin: round; stroke:#000; fill: none;" version="1.1" viewBox="0 0 1000 923" width="1000px" xmlns="http://www.w3.org/2000/svg" xmlns:xlink="http://www.w3.org/1999/xlink"><defs><style type="text/css"><![CDATA[path { fill-rule: evenodd; }]]></style></defs><metadata><views><view h="923.506109399" padding="0" w="1000"><proj flip="auto" id="robinson" lon0="47.4052859949"/><bbox h="26.18" w="28.38" x="663.53" y="-504.68"/></view></views></metadata><g class="" fill="#000" id="country"><path d="M836.900593,278.366132L864.091274,236.910205L865.755183,222.048490L861.444459,185.141955L789.391577,94.707459L764.627365,69.683159L753.000903,81.031428L747.928354,118.096253L739.319760,124.130549L737.218953,133.613288L739.481706,146.228721L726.578275,175.571202L767.270737,254.245066L789.905101,285.956492L809.946857,291.534383L836.900593,278.366132Z M612.400987,921.506109L713.142339,920.152269L802.311875,918.942458L912.279030,917.156553L999.457998,915.745118L966.639614,863.439004L953.141629,827.900066L931.964012,785.770153L878.727387,704.403284L838.388536,658.343723L779.756324,521.985665L767.968824,483.833820L744.619387,436.768880L715.657716,418.991903L685.557572,430.152734L640.463514,430.670515L576.949860,414.590965L576.519602,400.496877L617.562390,358.995002L684.237826,282.851320L725.117024,294.150853L747.096406,304.990766L774.659815,308.901285L767.576438,282.017530L730.806995,224.635580L685.836730,153.872981L661.446501,89.076066L661.177402,67.356106L541.506599,12.178309L499.447645,1.005265L484.803786,0.000000L484.803786,0.000000L420.362343,0.488271L329.812092,10.368763L278.591784,32.830945L244.098567,56.673914L230.104624,79.997135L225.538834,92.552575L204.995442,161.402500L182.154007,249.789072L156.884202,329.489871L102.120730,441.429031L70.461755,493.155574L0.542002,589.467143L99.120303,602.216764L230.386334,619.284156L310.353222,630.768424L460.777435,652.356418L515.738986,741.802193L539.244187,804.487593L561.487858,865.570289L612.400987,921.506109L612.400987,921.506109Z "/></g></svg>