<?xml version="1.0" encoding="utf-8"?><!DOCTYPE svg  PUBLIC '-//W3C//DTD SVG 1.1//EN'  'http://www.w3.org/Graphics/SVG/1.1/DTD/svg11.dtd'><svg enable_background="new 0 0 1000 1956" height="1956px" pretty_print="False" style="stroke-linejoin: round; stroke:#000; fill: none;" version="1.1" viewBox="0 0 1000 1956" width="1000px" xmlns="http://www.w3.org/2000/svg" xmlns:xlink="http://www.w3.org/1999/xlink"><defs><style type="text/css"><![CDATA[path { fill-rule: evenodd; }]]></style></defs><metadata><views><view h="1956.9679001" padding="0" w="1000"><proj flip="auto" id="robinson" lon0="80.670889922"/><bbox h="64.78" w="33.12" x="1176.67" y="-164.54"/></view></views></metadata><g class="" fill="#000" id="country"><path d="M58.316057,385.573560L51.304977,377.988074L0.255628,358.320175L9.712382,375.937275L35.037042,397.655980L73.206448,423.896337L58.316057,385.573560Z M84.456481,92.112403L57.425435,67.577081L45.210716,36.197583L37.904539,34.591547L32.107237,39.632031L26.938216,49.614169L32.965617,63.920256L56.860736,97.597643L84.456481,92.112403Z M405.685511,1954.967900L506.982073,1939.944978L615.042108,1884.622077L762.280451,1826.185875L794.431641,1807.431932L905.530042,1714.205818L937.327988,1670.323085L959.760691,1618.484143L979.412182,1546.680552L995.416912,1473.270916L999.744372,1412.956928L992.520273,1277.404964L970.568946,1206.515737L953.974586,1188.107771L919.351055,1107.038627L898.150448,1076.943483L894.566831,1063.551394L894.931015,1048.059072L888.040390,1027.353228L777.628528,857.110847L770.779125,842.458651L769.108790,808.360804L741.694790,698.951290L723.343623,678.393784L696.599066,672.562570L674.808464,661.468439L668.895622,639.255473L668.720303,609.407583L657.975956,582.302350L569.665326,445.343267L552.618024,433.038461L532.744627,425.675345L520.008821,398.841985L510.952095,367.783497L422.037046,225.858537L265.023980,86.207123L205.760951,8.277261L173.376152,1.358953L127.818223,2.643782L84.902438,0.000000L78.662953,10.155087L74.339471,35.604585L86.921512,57.347856L117.852671,82.377339L213.233731,101.921594L271.870486,133.548217L292.918959,167.868067L266.067998,168.115150L244.234892,175.725315L216.021250,160.875612L187.931070,138.934628L137.946742,118.846776L152.417613,181.877689L159.242829,245.847597L154.107938,304.999447L141.729704,362.841814L86.430264,462.243849L87.381417,488.953695L97.124603,542.225171L97.580175,567.353708L64.173999,709.007668L58.398582,763.415910L54.300591,891.974681L43.740274,907.936441L27.956848,892.542979L22.049491,768.382332L8.379795,825.014388L8.886477,884.043219L38.482202,1020.261849L57.663097,1127.176187L104.163349,1509.691581L148.290914,1633.556475L179.607405,1744.943501L223.068410,1851.833561L302.614259,1924.403171L405.685511,1954.967900Z "/></g></svg>