<?xml version="1.0" encoding="utf-8"?><!DOCTYPE svg  PUBLIC '-//W3C//DTD SVG 1.1//EN'  'http://www.w3.org/Graphics/SVG/1.1/DTD/svg11.dtd'><svg enable_background="new 0 0 1000 1185" height="1185px" pretty_print="False" style="stroke-linejoin: round; stroke:#000; fill: none;" version="1.1" viewBox="0 0 1000 1185" width="1000px" xmlns="http://www.w3.org/2000/svg" xmlns:xlink="http://www.w3.org/1999/xlink"><defs><style type="text/css"><![CDATA[path { fill-rule: evenodd; }]]></style></defs><metadata><views><view h="1185.41510586" padding="0" w="1000"><proj flip="auto" id="robinson" lon0="6.08243202146"/><bbox h="11.76" w="9.93" x="73.7" y="-837.9"/></view></views></metadata><g class="" fill="#000" id="country"><path d="M391.237005,1183.415106L472.150243,1168.333092L529.952135,1118.118240L608.555093,1095.580255L688.162185,1103.119475L734.737006,1130.711328L823.108703,1171.461750L825.041573,1072.963666L858.872567,930.244238L893.130988,855.784052L940.121790,794.963396L990.652873,752.660860L999.577851,676.243710L988.650059,603.930878L928.166805,592.721275L775.657088,539.321834L684.943143,483.131702L616.280672,412.710678L526.660918,315.752816L486.562170,217.376296L481.338960,119.374044L490.450422,75.581058L481.965293,71.026383L453.117632,20.610785L408.843983,21.090126L306.689689,0.000000L169.895142,138.076275L109.599588,252.877511L74.411246,337.189202L19.591105,405.349568L10.498772,477.449311L18.662796,507.703432L0.422149,546.766704L0.704190,587.837235L84.866298,668.875433L106.632649,712.687481L210.593513,856.104616L181.370765,908.521434L158.601997,965.196371L131.117492,1005.444365L98.595311,1030.942816L144.041314,1085.474771L245.998172,1110.658874L282.391756,1130.711328L323.289041,1168.333092L391.237005,1183.415106Z "/></g></svg>