<?xml version="1.0" encoding="utf-8"?><!DOCTYPE svg  PUBLIC '-//W3C//DTD SVG 1.1//EN'  'http://www.w3.org/Graphics/SVG/1.1/DTD/svg11.dtd'><svg enable_background="new 0 0 1000 1051" height="1051px" pretty_print="False" style="stroke-linejoin: round; stroke:#000; fill: none;" version="1.1" viewBox="0 0 1000 1051" width="1000px" xmlns="http://www.w3.org/2000/svg" xmlns:xlink="http://www.w3.org/1999/xlink"><defs><style type="text/css"><![CDATA[path { fill-rule: evenodd; }]]></style></defs><metadata><views><view h="1051.90368288" padding="0" w="1000"><proj flip="auto" id="robinson" lon0="-9.90255058768"/><bbox h="243.54" w="231.75" x="-246.77" y="-602.73"/></view></views></metadata><g class="" fill="#000" id="country"><path d="M0.475781,1049.903683L0.481982,1049.900154L3.744136,1049.212075L17.592607,1046.318607L26.993300,1045.542309L51.400121,1045.542309L60.809436,1044.130858L68.326723,1044.130858L78.939655,1044.836584L87.671138,1046.318607L97.012853,1047.730055L107.646729,1047.730055L116.394764,1048.435779L127.639800,1048.435779L135.809240,1047.730055L141.511064,1044.130858L146.685013,1036.932426L148.674840,1031.145408L150.685294,1026.064088L150.155637,1020.982730L149.610503,1018.089160L152.808486,1014.489822L156.690380,1008.699072L160.528242,1005.103199L161.841557,1002.209543L165.662886,999.315868L170.136997,994.234247L172.719380,990.634729L175.943230,985.623580L176.682083,981.247593L178.065870,975.459915L178.294441,965.366529L179.821373,953.084619L181.866397,945.108148L183.262210,938.613851L184.745065,928.519114L188.899526,911.152297L190.264255,906.069057L192.949910,898.161539L196.226226,890.889160L198.838880,885.805385L202.077756,881.498186L206.496234,878.603125L213.408063,875.708014L218.460913,872.812855L224.762921,869.917646L230.409091,867.728552L235.466093,864.833254L237.413842,862.008522L240.633175,856.923880L245.199140,847.530978L247.826840,841.739573L251.735047,834.464677L256.200067,829.449726L258.940040,827.500204L261.262830,825.847326L266.970303,822.174193L273.900222,817.865198L278.966593,814.262488L283.390338,810.589034L287.189740,807.763229L291.631836,803.383108L293.597222,799.779991L296.237023,793.279985L299.573069,783.105083L302.315585,772.297222L305.075378,760.704195L307.100632,753.495745L309.189758,744.802915L311.830719,738.230119L313.857536,731.021120L315.167124,728.123357L315.255898,724.518805L316.625866,719.430004L316.896069,719.030674L318.571222,716.532208L322.937146,715.118648L327.933923,713.634409L335.769286,712.503561L338.072824,711.231358L339.352982,706.990685L340.353243,703.315447L343.429517,697.378562L346.841997,692.643235L348.821084,689.745524L351.514104,684.727591L354.138931,681.123211L358.634479,676.529462L362.560997,672.925196L363.953373,669.250319L364.060937,664.868823L361.399025,661.335434L359.624780,654.834190L367.650098,652.855604L374.710258,650.665057L381.163814,648.545205L388.903422,645.648126L394.636882,645.648126L399.125173,644.941531L405.492338,646.354725L411.843482,647.061328L416.264388,649.251819L423.835773,653.562239L430.170043,656.459477L434.005905,656.459477L438.144993,655.046183L441.666604,652.996931L443.780699,652.855604L446.952324,654.339541L451.872610,657.236793L456.974144,657.236793L462.095287,656.459477L466.007730,652.855604L472.532469,647.061328L477.725889,642.751110L482.375360,639.995473L486.102958,639.288909L490.268501,639.288909L495.040649,639.147597L502.693307,639.854160L507.794691,639.854160L514.790223,638.864973L520.636428,637.663828L523.214716,635.473536L523.271582,632.576763L522.089219,628.267068L520.784126,624.098841L520.498294,620.284003L521.426439,616.260924L522.392034,613.078611L521.864293,607.992796L520.174335,601.989095L519.998326,598.948565L519.996107,598.909720L528.296724,598.909720L528.655223,581.269279L528.971040,565.969942L529.291410,550.670870L529.514315,540.152736L529.748593,529.206377L530.159033,524.247264L531.343516,522.138207L537.669962,518.579828L547.626837,510.469579L551.322131,506.859224L556.029012,503.224487L572.626140,492.258692L576.073862,489.203165L592.223037,476.592339L595.978934,474.739289L604.532340,473.509844L608.143845,471.146181L613.026343,466.116409L620.187557,460.333728L624.824760,457.611752L625.925067,457.111748L628.848591,456.706821L643.508117,458.407548L649.650155,459.689309L656.983290,460.773912L659.303954,460.041449L661.304216,458.245570L664.143039,454.206935L664.830725,449.436524L665.073664,445.272196L665.536699,443.445404L666.847589,442.635875L670.037962,442.942086L674.323241,443.505240L683.086731,443.332773L686.058653,442.737945L696.022240,441.851002L710.128291,439.126967L721.323853,435.600838L730.227453,432.792875L739.843318,425.465047L746.910601,417.719689L754.313783,406.178399L760.186481,396.172677L771.884302,389.908595L781.655774,386.137078L787.210424,384.643288L799.895536,379.364277L810.635739,371.397096L820.712560,363.915332L828.381272,362.927859L838.054276,361.687373L840.220488,360.281730L842.685845,357.625078L842.880537,352.958391L839.983087,349.676246L836.479499,347.947316L834.007130,346.046188L831.518093,345.701805L830.225012,343.456277L831.004392,339.306032L831.428511,335.464946L833.056138,331.651864L832.672258,326.232487L830.251667,320.816293L829.536276,316.925250L829.755633,313.076161L831.004551,310.049444L834.598808,308.059667L838.747342,307.300298L844.567688,308.260054L854.626263,306.980375L880.457798,297.638414L882.259488,294.761952L883.967661,288.297957L885.861132,282.638406L888.535238,280.742303L889.986461,280.320151L898.571245,278.803875L910.722976,276.647194L915.281087,276.337577L928.492422,276.960327L938.133324,277.414187L953.699291,278.153016L964.765363,278.529461L974.387549,278.867201L986.663916,279.289372L989.676663,277.977106L989.691979,273.846455L987.519590,266.164186L988.862439,261.373583L993.605759,256.934196L999.524219,251.948193L996.778582,245.890348L992.102212,241.835622L985.550529,236.987278L982.171828,234.989126L976.255208,229.109827L972.643089,222.407105L970.240115,208.249627L965.770322,200.313770L962.542298,190.526183L965.541194,172.562513L961.258259,161.683127L960.610691,156.969674L960.605909,151.428835L961.990131,141.839766L961.203397,128.337859L956.159872,114.378557L958.597740,109.620568L959.731272,107.158918L959.372252,105.041847L954.745324,100.596321L952.774233,96.932332L953.834382,93.480727L956.289477,88.477438L956.095981,86.381259L948.585085,80.271850L935.951930,70.380443L932.432366,66.069145L930.735899,60.621804L918.466173,59.209406L905.638394,59.999660L899.962612,58.351139L893.426933,58.891141L891.678228,55.607746L888.365261,47.219098L886.723996,45.163851L886.497810,41.646832L885.673335,38.404612L880.144083,45.009870L871.489989,50.737870L860.117723,52.738347L848.349901,51.528803L842.224226,47.741798L836.495680,50.311958L824.801467,50.422912L803.812746,56.426910L785.916385,53.135532L773.441814,47.645136L757.553289,33.964352L748.894615,23.170685L743.967422,13.581950L744.116836,5.395265L747.766280,1.997365L740.634594,0.000000L733.050073,4.993010L726.969686,7.427947L719.446121,8.379561L708.790691,10.598589L706.668415,18.290974L681.506685,84.616255L656.205143,131.476142L647.166117,143.382337L632.202823,153.452025L606.607421,167.233653L561.382210,186.494171L548.320363,195.316550L543.134232,200.038346L528.052526,219.314092L502.473230,244.435522L502.096668,250.683923L499.318614,268.367373L495.299724,279.479348L474.582117,306.516308L465.834596,327.132223L463.601732,352.680779L463.208997,368.684083L460.316114,377.993612L461.489711,383.272541L466.348465,386.256582L473.402035,397.455806L475.001330,404.290307L471.887767,421.817274L466.920586,432.701392L459.942754,443.438365L449.937692,455.537838L437.767989,474.365872L419.593683,497.129676L407.829269,506.206994L382.336931,522.487359L368.533925,536.046253L360.169524,546.454197L352.476575,551.651865L325.394928,564.720459L295.373242,573.386176L275.278333,575.627805L265.559795,580.273690L259.577506,590.710416L250.977925,598.962690L250.881988,599.241665L245.540743,614.954079L235.418050,635.787947L229.513128,655.611499L224.267840,665.564909L216.637525,672.236152L200.446946,683.391845L186.897180,688.699526L177.714389,697.290216L171.338004,700.403539L167.627701,706.965948L163.877867,724.176018L158.695432,732.621951L151.643565,751.499247L145.886395,761.887911L142.522237,775.205070L140.993378,800.422908L137.689916,811.404974L128.981356,823.770605L119.527342,828.835206L93.969934,858.202118L81.811029,866.867029L74.026085,874.712368L70.486522,882.204292L68.609795,887.302289L72.969847,883.161060L76.687846,877.900535L80.104132,874.871248L80.779095,878.440717L79.653447,881.575858L70.751439,895.810403L67.131125,905.002973L59.455542,919.313461L53.181173,928.685010L55.582149,933.453587L53.411738,939.711540L46.807885,947.702292L42.952090,965.070075L32.737591,983.936714L22.032388,988.210329L14.987046,996.496282L5.894226,1015.266152L0.475781,1049.903683Z "/></g></svg>