<?xml version="1.0" encoding="utf-8"?><!DOCTYPE svg  PUBLIC '-//W3C//DTD SVG 1.1//EN'  'http://www.w3.org/Graphics/SVG/1.1/DTD/svg11.dtd'><svg enable_background="new 0 0 1000 2001" height="2001px" pretty_print="False" style="stroke-linejoin: round; stroke:#000; fill: none;" version="1.1" viewBox="0 0 1000 2001" width="1000px" xmlns="http://www.w3.org/2000/svg" xmlns:xlink="http://www.w3.org/1999/xlink"><defs><style type="text/css"><![CDATA[path { fill-rule: evenodd; }]]></style></defs><metadata><views><view h="2001.78633052" padding="0" w="1000"><proj flip="auto" id="robinson" lon0="46.7153823077"/><bbox h="226.23" w="113.07" x="626.83" y="202.56"/></view></views></metadata><g class="" fill="#000" id="country"><path d="M914.355230,714.969714L927.636297,684.193275L922.667267,686.726621L903.610902,719.457325L897.971884,742.184821L914.355230,714.969714Z M738.823649,190.361162L740.377904,182.312942L735.710418,165.811230L730.576597,166.752116L728.375071,174.380535L719.973332,174.959542L721.743994,193.531237L738.731133,195.774898L738.823649,190.361162Z M211.170383,1999.786331L249.725316,1998.699480L262.476874,1993.584066L274.430601,1984.643089L305.236414,1965.776360L336.983546,1949.315857L366.784146,1940.767161L396.812639,1940.419422L410.617074,1937.376728L438.667221,1922.366591L451.918967,1912.021726L472.580494,1883.569859L487.639571,1850.515115L494.144967,1832.540915L498.525613,1813.916139L504.742444,1799.217004L512.935741,1785.387426L532.673851,1748.231522L538.033150,1730.697549L541.495914,1712.426060L563.556089,1653.172666L574.651954,1617.317638L584.404038,1581.117806L594.019422,1539.406136L598.169175,1528.754310L635.239311,1447.119003L663.080757,1373.910982L683.054869,1307.375497L705.591866,1241.808852L721.285241,1204.733925L735.467905,1167.080294L755.504901,1104.429467L778.169738,1043.540657L800.107311,995.024181L814.795891,958.230358L825.499788,927.442677L844.912921,862.550720L849.329557,828.605681L845.338532,780.748835L847.992927,765.027977L861.750220,734.237451L869.966237,719.153325L875.739732,713.478669L889.467824,707.036766L893.358225,701.955618L890.224987,693.544932L890.182180,685.336900L901.174898,670.513193L905.910868,653.242953L907.127245,619.049809L902.224115,604.703721L896.936277,599.130314L893.547825,592.500131L894.651600,570.582889L894.027399,553.167812L891.214587,536.013330L890.193441,516.933527L892.483396,510.202044L903.428920,499.518544L917.715468,498.027488L922.633603,500.734551L925.966834,517.903440L935.984120,551.734652L944.649146,566.095212L955.803183,574.867897L958.887748,575.258759L966.353974,566.529503L970.545361,560.145422L987.360865,526.140467L999.750098,490.051067L996.546938,455.018666L981.881972,423.519298L973.550875,393.163263L971.434276,360.911154L971.397629,290.617510L962.053086,222.090943L950.616570,176.479437L948.242277,147.138293L941.043082,132.431582L932.434574,118.593406L912.441389,82.637425L906.177306,67.757137L900.937088,52.254450L893.906745,39.849424L879.607494,23.232212L875.534275,16.168457L873.618492,6.571599L867.584021,0.086849L860.245463,0.000000L836.382817,35.014797L822.019430,53.282172L817.708712,56.162688L805.390584,53.426922L802.894112,58.001008L810.708048,78.642325L815.185072,95.172785L817.630647,112.571780L815.759305,126.916573L798.550137,176.074132L774.628059,199.567412L759.379350,205.907574L745.695203,216.170546L736.185219,231.094592L724.870231,243.051229L716.116997,241.154957L703.614838,228.706162L697.826478,224.812301L690.155957,227.533661L684.496418,234.612098L678.135580,244.730372L675.941616,256.122501L677.861773,263.635241L689.294594,278.791035L687.508108,282.409904L683.947450,285.290526L683.228336,294.627228L657.239229,339.487101L660.780778,365.413116L679.529829,384.347466L667.594644,380.337661L655.166485,379.034837L647.285295,385.505534L640.802445,394.827989L629.757423,412.763649L619.887118,431.727198L613.729479,434.274411L607.477093,432.248335L609.740511,421.767703L614.322582,413.907250L617.667157,405.959958L616.644562,397.954780L614.430523,390.383896L611.181571,388.907359L599.370599,398.215347L594.606823,406.466615L588.640714,424.387858L577.057724,439.413417L562.544925,455.134475L562.316232,461.793505L563.659936,469.031594L566.773035,477.587030L566.028494,486.504387L560.974796,497.245769L555.773063,500.531883L551.519941,499.923879L552.408271,495.537569L548.885195,468.930261L542.484184,465.354644L534.586701,466.918071L506.428056,489.486494L479.441745,509.000511L467.046027,521.840998L459.106162,538.676978L457.961412,546.537638L459.513258,553.457339L471.772583,565.689873L466.082730,569.945928L459.919637,568.990487L455.184598,566.978271L440.569661,543.598937L436.370067,542.325018L416.149208,548.824903L400.668047,551.488554L376.500109,553.515245L371.276193,557.235671L368.174919,563.793468L365.582359,573.087302L361.748975,580.021489L354.514804,578.790996L347.321058,579.022618L328.220886,586.564814L323.291867,582.670667L319.688974,575.533810L313.520766,573.782168L305.985558,578.573851L289.150108,595.221691L277.105735,603.849614L270.981782,606.990989L224.482180,611.435237L214.578118,613.331642L209.989944,617.254739L207.601454,623.971775L205.363569,642.096174L205.817476,673.249212L203.242868,685.278995L139.936950,787.407736L133.579574,815.548643L139.037624,831.688984L140.583372,848.610884L138.487175,867.660521L139.480897,920.349988L146.321721,952.223408L154.246360,969.274397L160.096331,987.367326L160.549939,1005.532383L157.418086,1030.644608L157.626064,1036.955150L174.459097,1070.736238L181.264886,1089.348693L180.607558,1107.454279L176.745189,1125.733220L170.791980,1162.463751L166.651821,1179.220720L161.346088,1195.573555L145.120108,1230.275502L127.764075,1254.933907L119.741267,1271.256894L98.183346,1302.310809L89.000950,1333.581593L80.878980,1348.746688L67.741293,1359.975822L51.914837,1365.460162L40.858734,1375.010747L29.788778,1418.017759L25.802904,1425.397929L20.155484,1431.591512L16.171014,1439.319057L14.229024,1448.320113L8.075220,1460.374686L3.843740,1477.682565L0.348134,1511.329645L0.249902,1527.220228L5.379535,1572.911296L7.927733,1587.573097L12.091452,1601.728685L32.004257,1630.504215L36.623747,1646.470447L38.283808,1664.015131L44.856915,1680.966984L46.673672,1697.094332L38.215172,1712.006203L34.593938,1728.554728L33.973696,1763.739188L31.825055,1782.954641L31.300448,1811.352790L32.860049,1819.897373L51.661981,1846.662369L57.838404,1861.827434L60.432429,1883.497430L65.371319,1894.883586L66.881890,1905.053330L69.542253,1914.499103L74.633072,1918.788044L96.156763,1932.479508L106.205708,1948.678319L113.605582,1952.720912L121.920752,1955.358043L149.814662,1959.603578L164.275789,1964.718575L200.016629,1995.714274L211.170383,1999.786331Z "/></g></svg>