<?xml version="1.0" encoding="utf-8"?><!DOCTYPE svg  PUBLIC '-//W3C//DTD SVG 1.1//EN'  'http://www.w3.org/Graphics/SVG/1.1/DTD/svg11.dtd'><svg enable_background="new 0 0 1000 1120" height="1120px" pretty_print="False" style="stroke-linejoin: round; stroke:#000; fill: none;" version="1.1" viewBox="0 0 1000 1120" width="1000px" xmlns="http://www.w3.org/2000/svg" xmlns:xlink="http://www.w3.org/1999/xlink"><defs><style type="text/css"><![CDATA[path { fill-rule: evenodd; }]]></style></defs><metadata><views><view h="1120.81893031" padding="0" w="1000"><proj flip="auto" id="robinson" lon0="168.744374975"/><bbox h="90.03" w="80.39" x="2457.52" y="-187.28"/></view></views></metadata><g class="" fill="#000" id="country"><path d="M626.816859,1118.818930L629.926973,1112.510126L635.079602,1090.602293L644.291711,1082.166811L645.154848,1074.148524L639.496048,1081.881897L630.967199,1088.536669L628.049986,1107.147642L625.821047,1113.690483L622.206585,1118.381384L626.816859,1118.818930Z M965.173323,858.652084L968.612658,865.317020L972.711587,867.209659L980.959849,866.609306L987.387725,868.674928L994.646298,873.579508L999.553499,874.301966L985.940950,862.813853L972.451486,863.159819L965.173323,858.652084Z M876.168288,839.898686L866.058394,832.908137L863.669174,836.174463L875.537494,845.932741L895.834606,853.381188L901.986418,854.378384L907.114915,854.378384L914.482263,851.793814L925.648376,848.792049L930.268194,845.586775L900.098147,850.582932L876.168288,839.898686Z M455.804597,804.315069L441.811722,801.506641L427.562043,798.637159L427.066468,801.618571L435.539150,805.617529L453.375682,807.530517L455.804597,804.315069Z M7.942478,0.000000L2.665286,0.488408L0.446501,3.184828L4.262882,4.670403L8.803045,3.245879L10.120391,0.752963L7.942478,0.000000Z "/></g></svg>