<?xml version="1.0" encoding="utf-8"?><!DOCTYPE svg  PUBLIC '-//W3C//DTD SVG 1.1//EN'  'http://www.w3.org/Graphics/SVG/1.1/DTD/svg11.dtd'><svg enable_background="new 0 0 1000 719" height="719px" pretty_print="False" style="stroke-linejoin: round; stroke:#000; fill: none;" version="1.1" viewBox="0 0 1000 719" width="1000px" xmlns="http://www.w3.org/2000/svg" xmlns:xlink="http://www.w3.org/1999/xlink"><defs><style type="text/css"><![CDATA[path { fill-rule: evenodd; }]]></style></defs><metadata><views><view h="719.485281919" padding="0" w="1000"><proj flip="auto" id="robinson" lon0="21.7338779654"/><bbox h="24.64" w="34.3" x="276.93" y="-710.54"/></view></views></metadata><g class="" fill="#000" id="country"><path d="M233.787186,717.485282L287.229380,714.489722L305.740650,711.143391L375.274455,709.224644L405.283870,690.042297L427.426890,691.749618L474.928903,708.358899L494.169719,695.234651L551.819017,669.326355L603.905919,594.242611L628.053361,582.997374L685.102396,578.425456L702.273086,569.772781L723.463488,571.428552L789.401385,586.613262L826.293505,588.946253L868.750726,578.588731L914.795359,560.282456L920.279252,496.234408L930.719924,487.062033L960.216818,484.501537L982.664120,485.013625L987.093441,475.564163L983.448958,356.785885L999.304092,303.875789L997.361247,292.998308L991.925073,284.766192L972.116926,276.257038L955.453134,247.724401L919.128712,172.596814L901.523224,157.391997L855.135605,141.542806L813.725837,119.891939L777.566280,91.357933L709.699261,20.901131L698.852629,17.228625L681.644448,3.925789L666.596472,0.000000L631.679280,15.681139L595.515233,25.312972L565.517179,18.013927L536.590729,17.066946L517.195260,23.534348L502.379581,26.029052L474.465869,42.777868L428.161878,54.885384L406.007828,52.343577L405.348904,52.274256L339.379053,65.446316L318.193355,80.909010L307.418921,107.935896L304.498332,121.996594L292.639686,122.412906L271.510011,108.467747L244.400516,86.664985L212.072534,88.421916L105.955725,135.898134L97.431235,160.863113L100.108706,214.943528L93.957680,229.536396L83.003631,238.896172L36.634149,233.011394L31.458852,229.466898L26.812682,234.841639L14.839156,308.839767L22.844906,346.594394L24.993179,371.461332L9.885229,381.285944L0.695908,396.897649L23.631009,458.741302L23.924363,485.106733L27.458225,515.376495L64.916614,584.490349L85.270582,605.887564L102.644140,616.111608L129.482266,679.893426L142.963178,690.954418L193.601204,684.897387L219.283365,691.983503L230.598044,707.118810L233.787186,717.485282Z "/></g></svg>