<?xml version="1.0" encoding="utf-8"?><!DOCTYPE svg  PUBLIC '-//W3C//DTD SVG 1.1//EN'  'http://www.w3.org/Graphics/SVG/1.1/DTD/svg11.dtd'><svg enable_background="new 0 0 1000 2416" height="2416px" pretty_print="False" style="stroke-linejoin: round; stroke:#000; fill: none;" version="1.1" viewBox="0 0 1000 2416" width="1000px" xmlns="http://www.w3.org/2000/svg" xmlns:xlink="http://www.w3.org/1999/xlink"><defs><style type="text/css"><![CDATA[path { fill-rule: evenodd; }]]></style></defs><metadata><views><view h="2416.39556179" padding="0" w="1000"><proj flip="auto" id="robinson" lon0="95.9196044317"/><bbox h="312.64" w="129.44" x="1338.13" y="-478.23"/></view></views></metadata><g class="" fill="#000" id="country"><path d="M841.645475,2414.395562L846.602913,2406.877444L851.950536,2404.221760L857.388372,2397.274835L857.923905,2391.615719L849.897442,2392.406098L841.394072,2401.540784L839.765356,2414.073086L841.645475,2414.395562Z M839.713235,2274.886613L834.594992,2271.314119L831.961827,2273.539814L825.682440,2283.447953L834.088523,2281.981018L841.849247,2289.777276L846.619585,2301.860530L848.910238,2302.448570L850.243264,2300.735036L851.007467,2297.295324L839.713235,2274.886613Z M877.386697,2273.748473L874.355356,2257.504690L869.887108,2271.389995L872.391996,2273.394385L874.820247,2274.026685L877.386697,2273.748473Z M835.491926,2206.838485L839.726302,2200.958090L841.283426,2191.833990L842.550492,2175.153887L840.977067,2167.370254L838.811156,2170.557055L835.637964,2185.277029L832.174862,2195.317968L831.646279,2207.590923L834.328726,2209.645899L835.114586,2209.747067L835.491926,2206.838485Z M870.303805,2172.308530L866.185562,2164.531220L849.618331,2166.270049L853.098969,2176.197184L853.148696,2180.250235L858.747767,2195.330614L862.166717,2195.317968L869.709577,2199.010604L870.303805,2172.308530Z M816.511451,2179.105770L816.656025,2173.819731L813.984299,2170.778360L807.224361,2157.367238L810.288214,2178.650513L818.049309,2186.301357L816.511451,2179.105770Z M864.194073,2151.569027L870.835709,2148.970264L874.236989,2144.885589L864.099834,2138.600499L856.469964,2128.357186L855.404897,2131.335335L859.518317,2152.296174L864.194073,2151.569027Z M818.256508,2119.789469L815.892986,2114.497083L815.328606,2110.342843L816.015667,2105.442481L815.132794,2103.178829L813.028375,2102.002741L809.175258,2101.484251L807.715700,2103.001783L806.000861,2109.166756L811.124077,2117.974757L815.076647,2120.092975L817.000733,2120.510296L818.256508,2119.789469Z M807.413775,2088.793877L806.607673,2087.750572L805.061592,2089.154292L798.745577,2088.275386L793.454338,2094.453015L795.222609,2097.532343L801.481364,2103.140891L807.190762,2093.491910L807.413775,2088.793877Z M844.417841,2061.838627L841.830926,2055.471281L831.866860,2051.449797L831.595557,2060.074487L836.095694,2073.043119L836.201987,2095.761887L838.540762,2095.736595L843.602924,2093.472941L851.094402,2077.924529L850.909597,2065.284706L847.303571,2065.392198L844.417841,2061.838627Z M826.966173,1996.944538L824.385069,1990.134508L820.485531,1985.253033L819.953388,1983.583720L818.910487,1985.354204L819.559252,1996.255315L821.674943,2007.959444L828.342801,2018.228201L826.966173,1996.944538Z M390.368679,1644.661375L392.992970,1635.239085L391.199160,1629.939836L382.235489,1644.180775L383.522346,1645.597280L388.447584,1647.962337L390.368679,1644.661375Z M351.267316,1628.264058L360.214646,1618.765878L364.215012,1602.962978L361.222339,1594.647328L355.816247,1601.470587L351.142899,1611.506282L340.457518,1622.022578L345.463355,1640.898784L351.267316,1628.264058Z M696.622149,1588.469088L695.843568,1569.801585L696.463501,1565.634284L695.221753,1561.587136L693.186262,1558.317800L688.683443,1555.851571L685.930163,1556.913946L681.190780,1561.555517L685.053716,1581.671128L692.566693,1590.163835L696.622149,1588.469088Z M216.484191,1273.641279L219.031036,1269.569406L220.457796,1257.613101L219.353546,1250.171296L204.705379,1247.155388L190.361495,1249.912067L201.544535,1263.891568L214.744075,1274.754092L216.484191,1273.641279Z M203.661759,1160.475468L200.933065,1162.264625L196.829577,1168.656306L199.517427,1173.334716L208.164223,1178.854005L212.428890,1190.588134L219.589630,1194.084376L228.748916,1189.766235L231.754801,1185.441790L232.506234,1179.909818L231.942355,1177.260805L223.019373,1170.470768L218.037766,1171.216784L203.661759,1160.475468Z M172.607287,1117.189101L162.706956,1109.710462L164.754308,1119.129891L168.846842,1128.340805L177.486879,1135.029370L172.607287,1117.189101Z M117.923613,1113.130524L110.061932,1097.302238L104.297839,1092.086923L105.621697,1103.306577L114.990022,1120.368965L121.086704,1125.439072L117.923613,1113.130524Z M432.624654,0.000000L426.071680,0.884769L423.797240,7.855778L422.052199,11.831317L419.151578,21.116641L413.913659,33.987321L411.273203,38.716249L411.828010,46.840636L413.087782,55.806621L418.768797,62.945779L420.708888,69.231641L421.112862,75.005570L418.821628,78.977282L410.479219,81.184548L404.511147,88.072226L394.827352,98.028073L387.027518,106.023651L381.640121,113.077095L380.772457,120.478841L383.596199,129.791645L387.792394,139.541581L417.984838,175.344573L419.149834,181.552874L412.442147,183.286927L402.188584,179.236606L392.836547,173.465032L380.365286,158.125611L372.034106,153.550606L364.517954,152.544500L322.909524,160.435304L314.159227,162.650106L301.075533,168.377069L293.536543,179.913763L288.526333,190.470104L281.903083,194.723157L272.685230,202.938346L247.544925,228.136115L232.190224,238.998183L221.525875,242.998748L214.632021,248.721146L212.176712,258.026536L210.239583,264.705005L212.565229,281.132467L218.608006,301.377636L225.541699,314.304808L228.397476,317.026990L229.486577,320.806392L226.474468,327.801764L221.834064,333.765228L219.717424,337.443323L220.698033,355.915928L217.294843,365.019144L210.430047,378.376195L203.960579,388.472878L192.299107,396.309512L188.482572,402.645802L185.865273,414.336931L184.847233,424.236385L185.352153,427.831498L187.424012,430.970854L193.524132,434.458279L200.776359,437.831733L204.895784,443.110178L206.480995,449.477066L204.283293,464.735795L199.226545,485.960136L192.038513,502.753430L184.364871,518.767327L182.792577,523.993287L176.763873,543.668744L173.127701,570.705847L170.632067,588.910432L167.916510,601.370867L162.115147,601.940113L154.325213,597.942718L136.123374,592.635967L124.310909,588.360137L115.598041,584.520690L110.035126,584.672498L102.722006,587.170989L95.159609,588.885131L90.210751,587.000207L77.595047,575.766308L74.538903,577.050385L73.325882,582.534532L85.815313,614.621374L92.460502,626.549510L94.874571,646.502547L96.848698,670.963206L98.180452,697.723906L97.274379,703.882660L93.732797,710.951836L87.938368,712.880348L81.967418,710.091907L77.624430,710.736854L76.838316,715.232488L79.888549,726.803318L76.500292,740.043025L74.231310,751.372993L76.938426,762.373948L80.490979,773.526411L90.444645,797.727279L91.790195,806.571617L91.697411,814.505504L88.856846,817.799148L83.081818,817.249155L80.469764,820.542786L78.842484,825.499011L75.082173,843.875969L69.193104,845.797720L62.617830,843.047845L51.561729,830.796573L45.401730,827.218510L41.843678,827.408160L40.715996,830.638532L39.307163,837.977939L37.524239,842.896128L31.933729,847.201101L33.522165,852.087632L39.807700,894.978161L43.431133,913.322383L49.125574,928.417366L50.647169,934.182261L47.732671,938.847268L44.353217,939.732228L40.032270,932.418659L31.705345,926.830753L19.746804,920.869886L14.469693,916.887539L8.989261,918.467836L2.242471,927.494476L0.207005,935.876329L3.238402,947.639969L7.402988,959.232915L13.898698,965.863772L15.367917,973.215236L18.672677,982.677961L22.756465,991.369519L25.424711,1000.769064L32.833231,1010.383556L63.032500,1042.451140L79.031761,1065.012007L77.316488,1044.587737L72.688717,1030.270068L75.703972,1030.434421L83.132525,1042.558602L91.259869,1049.575249L97.129589,1059.221619L95.635460,1064.215511L92.818271,1066.693500L88.207721,1075.910156L92.978226,1080.290941L99.475272,1083.584445L109.249725,1065.998146L111.360015,1058.482019L112.149366,1050.700444L116.190207,1054.392103L113.825203,1079.298467L119.742228,1078.855963L122.922337,1079.804186L117.644780,1086.479704L114.312788,1093.591459L132.508629,1121.664937L139.500016,1122.543670L139.603384,1116.443130L132.299114,1098.003938L142.263621,1094.204653L155.091701,1095.734480L160.759202,1098.320019L164.590053,1102.062427L182.421242,1114.989122L196.443531,1114.654068L192.182992,1122.164361L188.170518,1132.273017L195.370522,1137.981711L203.951153,1142.476624L207.248060,1148.849197L208.936207,1153.830963L218.115890,1163.598592L224.092816,1167.511996L232.683172,1170.388579L237.620704,1175.673930L235.552588,1190.113961L228.042769,1197.549018L221.751087,1201.879838L210.353141,1198.250800L191.146433,1180.813898L185.806911,1181.281744L182.089072,1184.917042L197.129290,1208.353976L212.075341,1229.275076L223.902048,1237.861130L239.514834,1245.751760L242.088366,1238.145647L242.194963,1233.397385L236.462020,1213.841851L242.637919,1209.220148L243.434977,1197.953649L245.629088,1195.544835L247.481497,1213.829206L255.477512,1246.561059L258.658855,1252.283069L277.959302,1266.275245L269.669506,1267.407019L281.023190,1283.365778L284.364296,1296.567949L308.322484,1336.137312L322.060702,1384.965001L331.645062,1401.234884L337.137653,1418.023422L338.826810,1451.796920L333.315968,1470.185682L331.447878,1474.213773L332.144083,1497.648895L327.659137,1508.829010L326.164427,1538.385637L324.327837,1547.162863L318.888854,1554.270655L318.726113,1604.866408L321.552145,1619.132652L330.195097,1620.277239L344.943763,1609.040043L349.597952,1597.157832L358.326931,1583.859122L363.674096,1581.234794L366.349892,1577.731475L366.455595,1566.146502L367.796144,1554.966258L370.266735,1562.662159L371.516484,1569.624522L369.147784,1589.917211L371.365285,1604.000063L369.132434,1612.865875L370.890933,1622.718183L372.818225,1633.645516L387.217589,1625.007359L391.848181,1617.007892L392.141939,1607.996634L394.586821,1597.587843L395.790237,1603.026215L394.868994,1609.874770L396.788176,1616.318610L397.615852,1623.970274L405.961324,1644.800496L420.987783,1642.093960L432.356658,1643.839297L437.085049,1637.218399L446.715579,1616.957302L447.242081,1608.622679L451.067453,1623.148194L446.295303,1636.750446L447.533401,1652.844218L453.268015,1656.322240L458.021684,1657.169613L475.003156,1642.264699L486.801064,1624.273811L488.863240,1611.759229L493.182766,1599.371123L519.959089,1588.405851L521.695124,1584.402959L522.003053,1577.238228L526.087384,1575.499217L532.380525,1576.903073L549.126626,1568.157429L552.089740,1563.705565L540.147806,1547.776257L539.192883,1539.511245L531.399121,1521.760801L534.722524,1520.173571L538.211228,1522.146542L541.484502,1535.900445L544.813233,1544.076920L555.351502,1553.853293L563.158762,1555.870542L571.532140,1554.650075L583.792094,1548.231561L597.483569,1529.266948L601.440203,1520.458134L604.358537,1501.961583L608.189571,1487.746176L598.706913,1465.474657L603.584337,1452.277505L599.318802,1447.440042L595.327763,1439.820266L610.177921,1450.658693L623.880939,1464.956128L627.515281,1470.444947L640.001440,1479.399079L638.108741,1483.724390L644.793237,1505.667210L653.641839,1525.023792L662.034648,1534.262621L669.611919,1553.537110L684.171819,1553.233575L696.914927,1551.690601L702.189065,1549.825122L708.401857,1547.630813L702.284561,1553.859617L699.843199,1561.991850L704.030201,1588.386880L702.305455,1602.634146L701.517728,1618.727935L718.120204,1637.382815L732.438307,1694.959801L730.928161,1711.040789L739.158336,1726.824508L745.520053,1769.040014L753.747582,1784.608433L761.007553,1781.345521L771.969195,1795.763013L761.200962,1790.198375L759.619606,1795.750366L769.976755,1820.512893L774.270468,1836.852523L788.272791,1859.357334L787.596912,1882.026417L791.715585,1893.439952L795.651701,1917.455697L800.941227,1925.909866L802.169291,1882.842122L807.176596,1888.760722L809.545806,1900.945677L810.659845,1914.787288L833.965573,1947.124261L843.946053,1971.822632L855.734851,1988.806646L860.158613,2011.582597L866.664325,2029.426439L867.468456,2039.492824L871.933819,2053.492155L873.599064,2069.350444L870.229727,2082.198923L877.504611,2094.143185L871.313982,2100.421978L869.820330,2107.503795L873.494230,2110.070952L880.965083,2110.102567L878.437940,2122.862466L881.916902,2133.169015L883.315371,2144.872943L878.786090,2150.886140L878.589717,2156.216448L877.747972,2164.980154L879.758015,2173.149491L886.499819,2175.741927L898.448128,2167.857127L902.929289,2173.035677L907.212472,2175.564883L898.132296,2182.640334L893.341829,2192.143818L894.685851,2201.261594L894.140545,2212.402729L894.916352,2226.035122L897.545066,2237.637828L891.621061,2251.529457L892.355028,2270.460514L884.889035,2286.324918L878.962057,2302.347402L875.236948,2305.161137L871.570966,2310.744349L881.376663,2352.533112L880.041532,2374.625742L883.537321,2384.375849L888.922897,2393.733935L898.419538,2375.074677L903.380978,2373.607735L904.465794,2363.813375L906.877968,2352.830294L908.540055,2342.466875L908.091416,2326.128219L905.358711,2317.509963L904.983194,2312.672865L907.881786,2306.520583L918.470572,2296.176152L932.848663,2279.129345L949.647911,2255.133566L965.772378,2218.333706L973.493255,2196.974596L976.853506,2189.450216L980.891505,2187.098056L986.806661,2179.782332L990.606464,2171.688875L990.502854,2167.604206L976.500293,2127.661652L968.488627,2114.636190L963.610451,2099.252214L960.747020,2088.142602L957.283586,2077.937176L957.607155,2068.319783L953.277168,2062.319181L944.078829,2054.725157L934.193158,2043.476376L927.151256,2025.063492L926.143872,2014.782099L919.624516,2005.790609L916.815448,1996.369132L919.285874,1987.371290L922.937112,1979.593805L918.935449,1945.423319L916.102294,1935.211331L912.005829,1916.962484L904.811385,1903.228376L894.967173,1887.116668L884.337519,1873.818770L857.621708,1849.745855L838.704363,1833.665542L828.567565,1819.033217L815.919053,1802.187629L806.826304,1790.078229L795.307245,1774.762777L787.911865,1753.888871L782.548041,1731.681023L783.154643,1724.339335L787.242840,1719.514428L792.875491,1715.600115L797.664174,1714.695839L810.326473,1704.489517L820.070704,1705.355853L822.025320,1703.155231L822.399193,1698.507362L818.702925,1678.278015L815.760671,1651.231680L814.775417,1629.212611L815.004855,1614.699745L838.347214,1597.847114L842.781432,1590.562227L844.349009,1582.657623L843.418549,1575.688927L840.561424,1570.212623L836.334972,1567.183584L821.706598,1581.709070L818.062406,1578.471346L807.357806,1554.593162L803.134449,1547.320954L797.284559,1538.613288L790.584423,1526.433961L786.988704,1505.351030L781.936434,1494.904460L758.347124,1472.632889L747.479397,1460.687757L732.541844,1443.411992L714.611889,1422.690091L696.600266,1403.530257L687.707837,1391.281973L684.771942,1388.525013L683.227688,1383.807840L686.069673,1370.630174L681.951224,1357.408348L671.803602,1339.754126L666.996067,1328.840480L667.509507,1324.654620L663.571434,1323.016952L655.194068,1323.933793L645.805484,1315.675927L635.456743,1298.243522L634.266075,1295.176909L636.881047,1295.233815L647.205907,1298.249845L650.540830,1297.794595L656.982410,1293.785871L667.001911,1289.574828L673.128648,1288.177473L674.878165,1286.084604L675.192736,1281.860941L664.068703,1241.591469L663.785465,1233.214030L671.403376,1215.865038L667.724029,1198.332990L666.724451,1173.201950L675.443838,1155.993109L682.715933,1148.115843L683.600152,1135.712137L687.041149,1133.094865L694.153318,1134.074760L709.886358,1143.330090L716.087332,1143.772629L724.779194,1143.526072L734.088251,1142.843298L738.327920,1141.951900L767.002170,1132.917851L773.481732,1131.963244L779.972231,1133.113830L784.508639,1132.683941L788.545465,1128.536783L790.780182,1121.228731L791.101214,1097.871184L792.636525,1093.749499L796.020691,1090.418029L802.045094,1088.186520L809.499748,1088.376166L819.912869,1092.870799L826.030500,1093.066768L832.643022,1091.182938L838.049500,1087.965266L841.309367,1083.881557L842.352449,1078.976072L839.370381,1069.538139L833.182856,1057.704491L834.201048,1056.282186L842.756988,1058.899229L855.203685,1061.794419L864.254218,1061.149638L869.926664,1059.095191L874.921532,1053.507115L881.468132,1048.336270L888.822518,1049.499393L895.048708,1054.139249L909.604190,1062.287487L909.346723,1055.093772L911.249649,1027.014634L915.861379,1008.740051L923.204861,1000.269693L931.796872,996.704564L941.638520,998.032005L949.456079,996.464360L955.270278,992.001633L954.294693,989.454215L946.528482,988.809459L942.758361,983.929544L942.937421,974.808159L945.458579,968.878947L950.323482,966.141901L954.032620,956.944669L956.577808,941.280907L961.366995,933.347869L968.386304,933.145592L979.463220,926.413556L994.555176,913.151711L999.135560,900.357552L999.792995,898.524389L995.168926,882.537851L994.862656,878.599659L993.512419,877.234248L988.732103,875.969977L982.353159,878.492197L963.350370,889.004550L948.644023,908.455051L941.171239,912.747154L933.233994,914.517090L923.120615,911.154209L912.125175,908.960748L897.654551,913.884970L889.789179,911.615658L885.724519,907.645935L881.713516,901.596516L882.390080,893.941473L880.374826,888.296565L873.851910,885.433014L866.420525,882.992986L861.082194,875.597017L858.148376,867.562542L858.193542,857.100568L857.282765,845.873578L853.104658,840.734151L842.335595,837.927366L815.487641,832.819499L792.214666,830.019009L782.842351,831.333913L774.845481,830.101191L770.001784,828.052971L767.265661,824.512826L766.356842,819.442804L768.230993,807.779091L770.667066,796.412313L778.646252,779.880182L777.439852,768.424377L774.783876,755.198064L777.187699,737.532947L784.172506,724.299492L788.010344,720.177000L785.948708,714.290369L781.411642,708.896855L775.729879,705.918696L766.532880,702.466281L752.910105,701.505164L733.870060,697.976834L711.208151,690.117022L711.163190,675.067224L709.273121,665.632341L705.335539,657.892013L700.045948,652.396532L696.782792,647.489101L698.357410,634.024925L690.898550,619.326906L684.026861,613.463954L676.681363,605.861557L674.818738,597.664417L676.270256,590.023670L688.196504,573.634600L687.623735,569.668441L684.031983,569.991049L679.855435,570.332634L660.718541,576.322953L657.919738,572.565577L650.319563,570.383239L635.509404,569.946770L618.437709,571.034780L597.637722,576.892248L579.414329,587.145688L571.468151,594.191950L564.445534,598.568896L558.399782,599.985697L550.607617,596.892761L549.312092,586.861051L559.789267,568.422284L559.546659,555.732664L553.464724,544.851754L551.476670,536.140372L545.705571,530.573031L538.501256,527.865234L533.855139,521.665028L530.400613,503.588634L533.044586,484.979329L541.707999,479.107057L547.105284,476.272113L548.009252,472.658772L542.589314,459.635069L541.520468,451.344062L544.359595,435.306394L547.867775,423.147715L559.204317,425.185803L563.533814,422.179301L568.136146,417.875201L572.669812,410.558090L574.962037,401.905202L575.869226,381.762881L578.576037,378.724360L593.012703,382.054072L596.694514,379.730872L601.915441,367.905813L606.163921,353.529323L615.593097,349.072620L622.945727,348.623150L625.416544,343.843565L623.830283,336.816591L614.507479,325.674666L609.704752,316.767433L609.481128,311.367385L618.933083,308.075448L620.086702,301.605539L615.644296,287.450335L616.269455,270.446655L614.547610,250.518907L612.212500,235.643313L609.677832,224.287635L606.115563,212.407026L599.941378,190.691615L591.159974,171.807000L590.429571,164.719387L584.678873,141.832047L577.431576,122.326172L570.972305,118.909893L558.988303,112.583659L552.960050,111.343750L548.658636,113.646447L548.378912,120.434556L545.184274,126.780105L539.117670,125.223745L534.956669,118.878261L529.394142,110.571975L508.091327,71.141497L504.104813,59.790330L499.312450,48.516170L493.862513,42.870041L488.733402,39.550787L475.859767,26.306438L469.414482,20.781621L466.695683,19.865062L461.572876,20.800584L456.340959,20.825869L450.468240,14.226833L444.631269,6.174599L439.736381,2.205618L432.624654,0.000000Z "/></g></svg>