<?xml version="1.0" encoding="utf-8"?><!DOCTYPE svg  PUBLIC '-//W3C//DTD SVG 1.1//EN'  'http://www.w3.org/Graphics/SVG/1.1/DTD/svg11.dtd'><svg enable_background="new 0 0 1000 1055" height="1055px" pretty_print="False" style="stroke-linejoin: round; stroke:#000; fill: none;" version="1.1" viewBox="0 0 1000 1055" width="1000px" xmlns="http://www.w3.org/2000/svg" xmlns:xlink="http://www.w3.org/1999/xlink"><defs><style type="text/css"><![CDATA[path { fill-rule: evenodd; }]]></style></defs><metadata><views><view h="1055.08355369" padding="0" w="1000"><proj flip="auto" id="robinson" lon0="19.2848791495"/><bbox h="27.15" w="25.76" x="247.77" y="-729.73"/></view></views></metadata><g class="" fill="#000" id="country"><path d="M530.977961,1053.083554L529.839099,1021.639790L533.612564,971.797924L527.433175,955.210803L529.763871,926.760781L510.376222,888.769020L481.670490,861.478412L502.654696,813.106579L534.349972,754.726413L564.430994,708.431460L601.544687,660.217386L624.968954,613.957341L651.102918,574.225959L675.521630,562.029079L689.047551,570.477694L697.381689,587.837260L700.600025,639.313863L710.961254,657.081645L729.820951,670.147732L766.583199,663.752870L806.825512,650.933353L859.995733,623.730571L869.689974,625.390245L872.426456,619.212672L877.918665,572.351815L862.418804,538.191129L840.777559,509.135771L852.059657,491.508458L891.562282,491.692706L924.526418,494.917083L933.654192,467.127966L999.291961,448.829390L999.525654,433.203312L993.085767,408.001563L953.258716,381.237620L898.853835,360.460954L775.504795,289.366992L729.819975,280.009857L689.019983,271.696054L628.484074,237.645441L598.498033,231.694598L563.497585,207.309396L484.666453,125.298906L420.020412,80.617916L376.626678,58.017551L363.034137,36.000169L358.417897,13.369708L359.130591,5.672925L343.434639,4.323688L317.096639,9.168674L300.678239,15.454894L272.945582,6.163556L244.284395,0.000000L232.954364,9.843292L229.231604,28.640651L249.782351,62.770647L287.323459,116.190770L285.792020,156.948391L261.251589,161.364737L235.277712,127.414955L214.470728,121.925509L191.420940,123.090862L141.985058,162.530168L105.918716,195.654100L98.929286,218.811659L87.193499,244.117861L84.588112,262.370132L90.880080,323.269997L21.328443,333.027488L7.357208,341.987524L0.474346,360.491642L13.135642,438.667691L22.492643,480.699566L68.434252,545.532583L71.591367,566.022910L67.054544,579.541283L40.624825,605.291088L27.754497,614.541257L18.833063,617.553072L21.743848,640.697083L44.165766,667.042495L68.113067,697.391003L87.186762,700.158712L106.239771,690.287501L134.697778,691.210011L129.233966,703.541552L123.080369,719.134592L131.437735,731.930401L275.168527,812.983446L404.983251,932.185024L444.801706,1002.822345L530.977961,1053.083554Z "/></g></svg>