<?xml version="1.0" encoding="utf-8"?><!DOCTYPE svg  PUBLIC '-//W3C//DTD SVG 1.1//EN'  'http://www.w3.org/Graphics/SVG/1.1/DTD/svg11.dtd'><svg enable_background="new 0 0 1000 390" height="390px" pretty_print="False" style="stroke-linejoin: round; stroke:#000; fill: none;" version="1.1" viewBox="0 0 1000 390" width="1000px" xmlns="http://www.w3.org/2000/svg" xmlns:xlink="http://www.w3.org/1999/xlink"><defs><style type="text/css"><![CDATA[path { fill-rule: evenodd; }]]></style></defs><metadata><views><view h="390.629057232" padding="0" w="1000"><proj flip="auto" id="robinson" lon0="105.411575612"/><bbox h="171.3" w="439.65" x="1135.47" y="-869.42"/></view></views></metadata><g class="" fill="#000" id="country"><path d="M649.415393,388.629057L651.162279,387.872875L652.320061,386.118620L653.507353,383.351242L656.525075,382.135299L661.256280,379.034567L662.406305,378.281815L669.514800,373.888545L680.649154,368.477375L685.533941,365.858382L687.094739,365.276741L689.926454,363.940796L691.819903,363.013725L695.613650,362.270366L701.031439,361.804235L706.691289,360.782102L719.694753,358.876814L721.354312,358.696927L728.796927,357.910876L731.752622,357.169873L736.924677,357.558351L743.559628,357.833535L748.110117,358.319180L753.640415,357.937856L761.237103,357.418065L767.642751,357.498999L770.471241,356.851553L774.100822,354.841233L776.418393,353.248454L780.337474,351.318125L785.390880,349.318162L788.690941,347.500073L790.875470,346.296588L793.687922,345.157903L793.816548,343.690728L794.211865,342.566686L795.037265,340.686945L796.458490,337.184950L797.322579,334.121633L797.826661,332.765128L798.986961,329.704374L800.013702,327.397425L801.229369,324.292489L803.108471,323.288061L805.704852,322.434315L812.116585,319.388908L813.359937,318.732492L814.623329,318.603361L816.149005,316.146300L817.404899,314.017435L818.107983,312.421208L821.049470,311.849068L822.103734,310.701185L821.586016,309.194544L820.011163,306.898593L817.183290,304.548644L814.763432,302.499875L808.012421,298.588316L804.244705,296.161965L800.051817,293.045855L797.453689,290.113910L794.731760,288.248050L793.011310,286.595610L792.240688,284.685970L792.770957,281.286059L792.371521,279.141533L791.297698,275.345350L790.432881,269.660702L790.799532,267.004690L791.482063,264.408749L794.002656,260.919686L797.698786,260.270564L800.493361,260.961155L805.886319,260.957549L809.574072,261.136044L813.181692,262.881022L818.008281,266.322039L822.015937,267.584610L833.829759,270.279973L838.568275,270.852385L841.795548,270.969382L846.953854,271.862082L848.633101,272.049246L851.358534,272.662889L852.975110,272.007854L854.699546,269.705709L857.025808,267.114555L858.316956,266.520178L860.691084,265.403307L861.610563,264.349286L862.614886,261.444339L864.779170,259.190334L867.040760,255.802270L867.660434,253.246423L867.186353,251.597917L866.634513,249.811702L867.399008,248.872340L869.444593,248.010538L872.149639,247.775646L878.432145,249.305908L885.495285,248.863307L887.020003,248.642899L893.191949,247.762997L895.787092,247.040199L899.647265,246.346238L901.285872,243.511835L903.715506,240.128220L905.805466,238.246752L907.708164,237.884877L909.227980,235.934079L909.316772,233.834347L907.916805,231.989392L906.561005,230.462786L906.488820,227.638847L906.431471,222.682605L907.712395,220.373052L908.786366,218.505450L908.429638,215.507541L909.625452,214.642296L911.512100,214.312143L913.268300,212.280232L915.177926,211.861108L919.317517,212.833599L924.753145,213.082153L928.192237,213.187378L929.903582,212.824528L929.973126,211.735912L928.974132,210.050184L927.856410,206.298705L927.532668,205.060694L928.169643,204.490666L931.369980,204.414418L934.355552,205.763215L936.515761,206.875923L938.693020,207.021131L940.424214,206.295075L941.536701,203.259765L945.299369,201.502205L947.587750,201.057337L951.270375,199.626417L954.427291,200.142144L959.923460,200.561614L961.743323,200.198437L964.170555,200.561614L964.962882,198.509564L966.270575,198.021032L970.202684,198.963578L973.272493,200.550718L978.436629,202.540787L984.046790,203.464922L988.003120,202.987429L992.865450,203.831656L995.397619,203.755405L996.145212,202.967457L998.716728,201.295207L998.222844,199.038035L996.568920,196.858673L995.496404,194.390245L993.360646,192.575517L989.537950,189.888583L987.608674,188.095316L986.118539,185.749543L983.403715,183.518081L978.480731,180.821248L975.553882,179.576360L968.282627,174.925505L966.119190,173.834993L965.140627,173.069810L963.668490,171.508535L961.571370,170.766970L958.675693,169.552836L956.755001,168.313254L954.689931,166.163078L953.379444,164.752662L950.767486,163.591262L948.460896,162.936958L945.802052,162.111816L941.504203,160.901380L937.986388,158.495120L931.612862,153.991891L928.638499,152.476398L920.635634,151.898566L917.232966,150.804714L914.349871,151.175384L912.934049,151.894932L908.826245,151.885847L906.965686,152.331030L906.047100,155.293014L904.784513,159.149380L903.232564,161.506595L902.591903,163.949314L902.132743,164.825364L899.896223,164.298279L895.616595,161.546580L890.371711,159.085771L886.204076,157.962631L884.341809,157.348369L879.808482,156.726845L876.713008,156.923115L873.170668,157.851773L869.068413,157.684577L866.911061,157.095760L864.402235,157.157549L861.295843,159.712777L860.626288,162.624348L858.332547,163.533102L854.639566,161.622914L850.341043,159.363833L845.846056,156.539663L842.555591,153.926473L837.474632,147.011091L839.619464,144.951005L842.548194,142.644085L840.677787,138.995345L838.077577,134.927959L836.187078,130.409699L837.573488,126.243111L837.570055,122.790767L836.514677,120.645140L836.195117,117.076692L835.674393,113.315590L835.066914,108.384037L834.244984,99.640395L833.196342,89.324084L832.640453,84.184517L829.863736,82.215414L826.488949,80.616783L819.278778,78.482946L814.616571,77.330310L812.182487,77.274415L807.490280,79.440641L804.768763,81.149011L803.105593,82.083683L799.189364,81.883384L794.308410,81.497240L792.075980,80.932506L788.560290,79.561491L780.805660,75.478874L776.173128,72.557819L771.515219,70.916844L766.342393,69.049479L764.070172,68.606586L760.650695,68.763215L755.437302,68.246536L752.390922,67.548103L750.603987,68.179929L747.443503,70.117242L744.353051,73.939773L740.943317,75.401368L737.600122,77.413251L735.364902,79.830257L733.230945,82.316471L730.486603,85.168403L730.782239,89.038645L731.458206,91.861058L728.414082,93.601714L726.280364,95.292178L723.458106,95.896142L716.966397,94.968518L713.863933,95.624894L707.250809,98.972802L703.182638,99.276740L700.500763,99.736287L697.766187,99.953406L693.535206,100.744133L692.038483,101.317778L690.026336,101.996434L687.016323,101.505986L684.283029,103.417279L676.306070,108.539805L673.350014,109.400201L671.158732,109.599462L667.095161,107.764617L663.387277,106.544018L660.356020,106.696131L657.790262,108.382226L650.995709,107.076424L643.099513,105.826954L635.932426,104.693539L633.155805,103.712339L625.954229,102.282392L616.662300,102.266103L611.179241,102.255244L607.961442,102.731259L604.882961,102.038060L600.307160,100.004068L591.839124,95.246973L587.648932,93.845767L585.086169,92.685239L583.224324,90.727974L581.788797,90.482226L580.130434,89.094648L579.103104,87.255838L576.613298,83.251324L575.326512,80.454418L573.905408,79.601174L569.849717,79.150250L564.794127,78.297197L556.434963,78.165553L553.056420,78.064568L549.467317,76.454093L545.294221,74.480393L539.984587,70.414379L536.294615,68.511170L530.723656,66.140693L526.386931,65.543278L520.641454,65.957143L516.545050,66.435825L511.990933,65.404730L508.710289,64.102178L504.358442,62.722585L498.854393,62.398869L493.869011,61.400858L488.562458,60.205270L485.454661,60.692465L483.783456,61.830611L481.997393,63.290931L478.725170,63.549942L471.135364,65.062871L469.081442,65.971539L465.534851,66.378237L462.930124,67.515703L461.506137,69.758898L460.135684,71.419354L457.519701,71.979552L453.952489,71.867868L450.659476,71.331097L449.009641,71.174398L447.171665,71.993962L444.865985,72.557819L440.323194,71.585066L437.663923,70.769162L433.979966,70.281116L430.559740,67.922510L427.896840,66.946942L424.126715,66.581597L418.199151,65.379539L414.747243,64.152548L411.918787,63.393454L406.351867,60.661902L402.742831,58.292840L400.699485,57.906476L398.481535,57.609981L396.211912,56.106177L395.074199,54.283087L394.922818,53.148209L394.171531,51.202188L391.929098,49.355500L390.240689,48.528358L388.836444,47.123737L387.604614,44.478647L385.567249,41.804272L383.455905,39.002129L380.988780,36.917500L378.347886,32.938304L377.881194,31.297631L376.596648,29.358740L374.452345,27.904981L370.001061,26.851983L364.589217,25.430994L356.355552,23.742326L353.187091,23.585098L351.200238,24.274786L348.502577,23.465393L345.317763,22.055912L340.473175,20.602111L334.115464,18.729111L327.306108,16.633600L321.146392,14.736832L318.933681,14.276556L311.980533,14.139194L306.183314,13.873398L302.532753,13.200931L297.117687,10.570628L294.184304,8.960898L290.670843,8.198071L288.193255,7.928965L284.076744,7.066479L275.804816,4.317654L272.588026,3.005129L270.934808,2.985541L267.307847,0.567802L265.104725,0.000000L264.849662,1.721364L265.960065,5.828200L265.871116,7.740063L264.662699,11.533457L258.163220,14.585187L257.658359,16.169614L257.746194,17.620578L257.804588,19.673574L258.840763,22.336353L258.244154,23.063417L255.937764,23.143810L254.756056,24.373065L254.893419,27.041473L254.273747,28.089140L255.017223,30.578523L255.758715,31.667951L256.172596,32.872096L257.070262,34.803168L257.262366,38.966305L258.338573,41.402861L260.100789,42.940555L263.109294,45.003985L264.736024,46.178542L265.830863,47.556031L266.767251,49.339351L269.288209,51.805313L271.299452,53.916741L273.564027,55.418186L276.207691,56.715198L278.634037,57.133824L280.838683,58.014295L282.170833,59.718116L283.033960,62.073373L284.705270,66.515009L284.759562,69.270938L284.843805,71.008698L284.935725,73.737954L284.974716,74.799383L283.352007,77.146401L281.740435,77.792278L280.328777,79.639053L278.379142,79.722028L276.485216,79.718420L274.670942,80.126094L273.313619,80.943331L273.256383,83.469718L271.068672,86.060354L269.981245,87.228748L265.774027,87.622474L263.070389,86.479289L261.069182,84.877734L259.161067,83.958877L256.264718,82.002479L247.698558,80.939723L245.882915,81.446719L245.045818,82.164887L243.157388,81.643394L241.547429,80.676318L240.540273,80.941527L238.356612,81.513479L236.327160,81.325830L232.794886,79.368493L228.795397,78.320641L227.128255,77.720151L225.757273,77.718348L225.406334,78.648863L224.103000,79.150250L222.443437,78.021290L220.620080,77.195082L218.803140,77.211309L217.335766,78.928408L213.666406,79.747281L213.003398,80.952352L210.559867,80.793586L208.420811,79.844688L206.725320,79.736458L201.966873,79.747281L200.531581,80.057545L198.066486,79.092534L196.241354,77.368174L193.141129,76.057495L189.583759,75.893457L186.963264,76.075522L186.016606,76.636176L184.329622,76.796631L181.622726,74.426329L178.775358,72.770406L177.016926,71.556246L175.047767,71.042918L172.900957,69.487004L171.081781,66.479016L168.294998,62.740570L165.264231,58.819414L163.334030,57.162572L157.918065,56.557098L155.500457,56.704418L149.680130,56.381037L145.686777,56.158274L144.592448,56.090009L140.742983,55.651698L137.208996,55.245751L133.693142,54.985314L132.477040,55.317598L129.060004,55.414593L125.365110,53.552214L123.097472,51.421173L122.257111,50.229419L120.959915,49.005610L118.285593,48.605505L116.252265,48.989462L116.394757,51.478613L115.270961,52.498266L113.584969,52.311556L111.476497,50.945519L108.021971,49.488284L105.540482,48.092405L102.274730,45.848567L100.844676,46.375819L101.089488,47.756941L101.412368,49.116855L100.742621,51.859167L98.343971,52.175117L93.955868,51.968671L89.614638,52.115875L87.312183,53.148209L86.184848,55.001478L85.860442,56.458288L83.934988,56.955949L82.511465,58.422232L82.629766,60.415604L80.433250,60.340098L79.390883,60.586393L77.657769,60.990915L73.250788,62.087759L72.187340,62.350313L70.120636,64.240695L68.581076,65.730413L66.664587,66.385435L66.188031,68.100722L65.156438,69.467197L61.301268,69.800314L57.738545,71.513017L56.472026,72.093039L54.582715,73.364969L51.310188,73.858684L50.030077,74.211879L49.061984,75.114787L49.823359,78.252113L47.492782,79.390137L43.688826,79.590351L41.584795,81.255462L42.761642,84.202568L45.117483,86.894641L45.266762,88.115570L43.400399,88.773089L41.064073,90.222033L39.628507,92.036369L36.816710,92.050828L34.913353,91.461656L34.278512,92.621976L34.748203,94.972134L33.238362,96.114956L30.791223,97.172953L29.489376,96.767821L28.324019,95.881675L26.427664,94.695497L25.580491,95.142099L26.301390,96.849207L26.051618,98.075536L23.637588,98.156937L21.404471,97.478625L19.570707,96.679202L17.032964,96.811227L14.518410,97.176570L12.608514,96.800375L11.164900,97.181996L7.283278,97.954341L6.854335,100.555943L8.280922,103.634500L8.478005,105.196857L6.562067,106.551261L5.951992,107.770050L4.779121,108.599577L1.404136,108.690142L1.283272,108.682897L2.406376,110.389306L2.773186,111.726403L4.152926,113.520374L5.806392,114.700232L6.045940,115.985371L4.835278,116.728616L3.769758,117.729365L4.069306,119.100115L6.802530,120.804733L8.229472,122.442506L11.929774,123.422019L14.964141,124.524977L16.399554,125.580865L16.662949,126.774747L16.094556,128.061291L15.602238,129.440522L15.840571,130.268129L16.647619,131.231920L19.386235,131.874484L22.696141,132.943673L27.803093,134.319756L32.046661,136.872552L35.412366,137.577094L38.027901,140.070459L39.962933,143.688525L43.935834,145.534132L49.732379,148.095705L52.297708,148.568081L54.540473,150.021599L57.612849,151.785908L59.875591,152.338298L62.376333,152.590875L65.573648,150.955525L69.914931,150.799263L72.761818,151.733214L76.681876,155.263938L78.812495,156.377923L80.228434,157.370177L82.219669,158.318835L83.858366,158.456955L85.838463,157.673672L86.544760,156.110782L88.741706,156.432442L89.977851,157.444687L91.159593,159.191180L93.241521,161.355746L96.584044,162.967856L100.650331,163.932956L101.525425,164.714494L103.020580,166.881013L104.695250,168.382322L106.914368,170.338024L109.807631,173.909511L111.426947,176.862947L112.755824,178.487739L115.651090,181.135645L120.270018,185.367952L124.051409,188.956535L126.852495,189.652394L129.481971,190.793344L131.898123,193.443844L136.408001,198.436920L138.253288,201.707385L139.546535,204.136656L140.780510,205.240412L141.552826,206.618175L142.058195,211.859294L141.535632,214.226883L142.230881,216.218552L144.867460,219.685886L147.546079,222.370829L148.848300,224.939062L148.435791,226.821747L147.314220,229.175009L146.877009,230.518929L145.711529,231.701477L145.156596,236.250800L146.225233,241.276765L147.109696,243.866199L148.921286,245.738965L151.494834,247.800942L152.696587,249.587712L157.173846,253.573183L158.993300,256.042277L160.133149,256.121676L160.964794,255.309595L163.839028,255.253648L166.863442,256.121676L170.206816,257.947550L173.360376,258.923402L177.130331,258.678101L179.645972,259.657437L182.241836,260.459899L186.985456,260.739382L190.442203,260.724957L195.783091,260.755610L200.636843,261.983363L208.638269,262.954919L213.274313,262.879219L219.153867,261.965337L223.272688,262.540361L235.287556,263.905997L242.621865,265.333045L247.580269,266.938049L251.722969,269.484271L256.943192,273.454603L260.481467,275.269802L268.269403,276.366969L275.387615,280.994882L280.096103,282.723817L288.732507,287.200938L294.193181,288.948460L300.495631,290.562818L309.268188,289.876880L310.048917,290.485607L310.472282,292.916599L311.461622,296.244525L312.572000,298.652918L314.072343,299.880303L317.886702,300.607002L320.078070,301.791191L322.384498,304.058894L323.766741,305.477886L329.886305,312.440937L339.309300,322.739223L341.652896,326.696052L344.428593,329.248708L351.385264,333.303411L355.438062,336.303757L360.866990,339.457281L363.503535,342.376364L365.514099,346.147510L366.964242,347.119253L373.892285,346.255277L379.956366,345.651797L390.830751,344.565262L407.394313,346.533681L424.425249,348.437817L439.493428,350.123124L446.917415,350.951521L463.649634,352.718198L471.442739,350.464536L477.529331,348.701912L480.773437,348.944455L494.918647,350.929956L503.163845,351.997464L513.554750,353.340129L520.563832,353.834473L526.094963,353.802115L528.920823,354.363006L531.801568,355.227791L534.046443,356.488289L542.145807,362.880526L546.323020,365.699911L552.949810,367.830623L566.915301,370.266686L574.709235,371.746503L583.662771,373.446723L590.237030,376.009823L597.833953,378.993045L607.675900,382.859766L615.657768,381.170726L624.240222,379.352311L629.617825,378.211419L633.452573,386.288588L642.214922,386.937785L644.832101,386.841936L649.415393,388.629057Z "/></g></svg>