<?xml version="1.0" encoding="utf-8"?><!DOCTYPE svg  PUBLIC '-//W3C//DTD SVG 1.1//EN'  'http://www.w3.org/Graphics/SVG/1.1/DTD/svg11.dtd'><svg enable_background="new 0 0 1000 5489" height="5489px" pretty_print="False" style="stroke-linejoin: round; stroke:#000; fill: none;" version="1.1" viewBox="0 0 1000 5489" width="1000px" xmlns="http://www.w3.org/2000/svg" xmlns:xlink="http://www.w3.org/1999/xlink"><defs><style type="text/css"><![CDATA[path { fill-rule: evenodd; }]]></style></defs><metadata><views><view h="5489.60919122" padding="0" w="1000"><proj flip="auto" id="robinson" lon0="145.205719494"/><bbox h="78.74" w="14.35" x="2123.27" y="-315.37"/></view></views></metadata><g class="" fill="#000" id="country"><path d="M608.086645,5487.609191L649.960606,5432.941154L646.392087,5407.090789L610.880105,5396.305532L533.618548,5426.492831L544.034533,5457.707269L569.703014,5476.310376L608.086645,5487.609191Z M897.519904,4483.482740L864.118805,4379.511636L840.925641,4378.712700L807.998500,4413.009871L819.503381,4450.384102L865.623356,4543.060187L897.519904,4483.482740Z M955.869133,4293.397599L978.345136,4244.947647L974.774597,4188.793549L999.908902,4138.859696L965.362545,4148.789405L899.277677,4197.410699L888.374798,4302.813659L905.025223,4316.338540L958.411109,4323.700181L955.869133,4293.397599Z M654.993806,2883.937910L657.920755,2859.798179L628.943915,2836.571540L563.576752,2838.511849L574.608821,2869.442657L600.852449,2887.818529L634.248625,2892.098624L654.993806,2883.937910Z M313.122133,850.555995L357.948821,782.993280L320.688352,741.052065L306.418355,761.195245L269.202878,876.291541L313.122133,850.555995Z M0.091098,0.000000L20.645193,63.278830L53.421979,95.289275L74.961727,51.752811L66.244705,19.057786L46.717370,6.048276L0.091098,0.000000Z "/></g></svg>