<?xml version="1.0" encoding="utf-8"?><!DOCTYPE svg  PUBLIC '-//W3C//DTD SVG 1.1//EN'  'http://www.w3.org/Graphics/SVG/1.1/DTD/svg11.dtd'><svg enable_background="new 0 0 1000 538" height="538px" pretty_print="False" style="stroke-linejoin: round; stroke:#000; fill: none;" version="1.1" viewBox="0 0 1000 538" width="1000px" xmlns="http://www.w3.org/2000/svg" xmlns:xlink="http://www.w3.org/1999/xlink"><defs><style type="text/css"><![CDATA[path { fill-rule: evenodd; }]]></style></defs><metadata><views><view h="538.525840363" padding="0" w="1000"><proj flip="auto" id="robinson" lon0="165.278596333"/><bbox h="59.45" w="110.61" x="2329.54" y="320.53"/></view></views></metadata><g class="" fill="#000" id="country"><path d="M868.918655,536.525840L874.608910,530.792923L874.445412,524.129210L864.731967,518.411179L858.808221,530.083700L860.803604,533.201333L864.106793,535.343791L868.918655,536.525840Z M982.879466,350.270411L981.634629,346.784014L981.805403,341.155559L983.494099,336.339619L973.958951,341.628290L958.714684,344.627177L961.987591,364.437644L959.294962,373.286671L966.942761,376.861749L968.884307,382.283471L974.014135,382.519841L990.038533,378.383375L999.069812,352.574981L988.316994,353.062487L982.879466,350.270411Z M913.317385,309.527047L919.980689,298.388411L921.229295,293.587276L916.397267,276.465686L909.484567,268.813405L916.092933,244.763300L913.496183,239.932578L906.001143,235.840491L884.800054,242.901922L881.909585,248.840602L893.643910,249.845153L899.182450,255.503138L885.183010,270.719089L874.127247,273.511138L876.528476,284.812279L882.144015,294.399776L899.030098,299.865683L905.841993,310.753184L913.317385,309.527047Z M818.865259,239.651893L825.768954,234.082517L832.652938,224.155110L830.386598,222.500538L832.392844,213.429913L836.492545,206.191109L844.460916,202.054636L839.609878,197.223813L834.257768,196.485154L833.252646,202.098955L825.723551,218.836837L823.380119,227.301748L811.515135,241.143952L818.865259,239.651893Z M528.148030,171.178458L513.269861,155.355974L509.605256,160.098310L506.948742,169.287453L508.932013,176.098011L515.653855,180.072050L518.590607,186.587086L515.338903,196.721525L515.237416,206.589983L528.373621,229.665417L532.502018,245.782626L539.673269,259.373608L550.548973,270.984999L559.935007,284.029324L578.227066,315.716825L584.350001,329.071403L593.785091,334.670292L616.597492,364.718330L625.853306,372.976438L637.479290,378.265190L658.493326,394.781570L672.625550,402.818227L680.081244,414.385778L692.314350,422.585065L711.759275,429.942312L714.120457,434.802849L714.484408,443.223895L717.111623,449.990329L729.642266,459.962782L744.253512,466.182694L745.639100,471.530967L748.626824,475.239319L755.985823,474.205116L761.673126,476.672432L783.877551,493.411972L792.659381,490.279745L801.249119,489.954703L811.659364,485.345035L818.547252,476.066683L817.240378,450.138068L804.125654,439.072458L789.564613,429.395688L779.331221,417.266602L770.463592,403.645532L751.273429,381.618682L725.020274,358.425054L712.425252,352.146568L706.054261,344.095354L698.835832,340.254417L694.497537,332.380508L681.540916,325.644119L674.314741,312.452049L660.345057,297.413411L658.274728,291.696368L659.535664,282.404324L657.059168,275.520231L649.199763,268.133858L644.666316,257.689510L638.563816,250.258792L628.997258,246.580359L613.499245,236.978003L573.782544,191.609994L557.471291,176.644627L540.635923,180.677758L528.148030,171.178458Z M11.768213,0.000000L5.492126,9.028038L0.930188,33.053215L3.705982,29.817381L9.384008,18.706137L11.768213,0.000000Z "/></g></svg>