<?xml version="1.0" encoding="utf-8"?><!DOCTYPE svg  PUBLIC '-//W3C//DTD SVG 1.1//EN'  'http://www.w3.org/Graphics/SVG/1.1/DTD/svg11.dtd'><svg enable_background="new 0 0 1000 863" height="863px" pretty_print="False" style="stroke-linejoin: round; stroke:#000; fill: none;" version="1.1" viewBox="0 0 1000 863" width="1000px" xmlns="http://www.w3.org/2000/svg" xmlns:xlink="http://www.w3.org/1999/xlink"><defs><style type="text/css"><![CDATA[path { fill-rule: evenodd; }]]></style></defs><metadata><views><view h="863.92665852" padding="0" w="1000"><proj flip="auto" id="robinson" lon0="9.88308507877"/><bbox h="198.22" w="229.71" x="2.4" y="-394.35"/></view></views></metadata><g class="" fill="#000" id="country"><path d="M220.282488,861.926659L223.968780,859.334793L224.705471,857.102513L223.584045,854.389597L221.727244,852.342449L221.288234,847.998933L221.810140,845.108001L223.112284,841.942928L222.571707,835.292354L222.643990,825.081502L223.212209,810.231586L223.362013,801.138617L231.176554,794.416786L242.556818,783.269489L248.324152,771.630836L251.397457,762.822605L255.118678,733.492512L257.874990,731.712332L261.150732,730.330911L272.549918,719.653360L281.351344,715.694217L288.070362,713.404889L298.183656,711.468038L304.468576,712.244203L315.916487,712.710614L324.917239,711.653179L332.530645,705.846177L335.982454,704.219075L340.840950,703.222163L362.997856,711.058594L385.151090,718.474875L389.163799,717.794842L392.532909,718.830913L398.086869,722.854138L406.305478,731.473787L411.191423,737.035067L413.553736,740.307031L425.040372,759.016615L429.311034,763.712686L433.586083,766.268997L437.931193,767.191120L441.231255,766.852890L444.368919,764.745179L448.621354,760.572479L455.105609,758.681944L460.420259,759.052219L487.826743,742.229620L490.495827,742.008878L498.512962,743.333328L507.430936,745.636871L530.647156,762.516417L549.570127,773.564087L562.838739,777.259691L578.459330,779.883638L604.960123,780.674026L624.764074,757.005029L632.114308,751.835424L640.984742,747.171379L643.847221,746.377423L659.547851,742.788594L690.378821,739.776539L719.341918,741.083187L725.050520,742.037361L737.375146,745.159785L756.428485,752.882163L764.695064,760.273411L777.562676,761.494603L786.757920,760.031309L789.667776,752.697025L798.786759,743.055621L805.456152,739.132115L812.528027,734.126256L823.736719,727.892061L832.987534,725.082930L841.190807,717.951499L847.745849,715.697777L859.201367,715.491275L852.317391,684.149013L848.375223,666.193680L852.467137,660.735484L860.480383,647.956907L870.594286,623.503255L893.605181,585.683016L905.346921,566.331040L928.921792,537.418693L957.836668,501.887208L974.098187,481.869529L976.013722,445.402425L978.017209,406.846387L979.524345,377.694497L981.412476,343.150148L982.992134,314.282114L984.133914,293.254115L985.748120,263.449020L987.585800,257.725288L998.587132,234.354828L999.420576,231.219055L997.185529,227.307366L980.231822,207.443111L974.988019,203.001200L971.792482,192.679500L975.888708,186.885131L955.307307,153.563915L950.300913,149.488597L948.061907,145.409706L947.669828,139.401676L946.779685,116.347909L940.671093,80.168822L932.726480,38.040514L932.720159,38.033394L906.455788,53.619530L886.276282,65.580878L885.314899,65.491882L884.373414,65.196414L862.634528,44.900950L845.660857,29.047250L838.177254,24.625256L806.696640,16.525162L775.407349,8.474610L742.482457,0.000000L710.354136,22.261128L678.185515,44.523577L645.965941,66.780546L613.703262,89.035910L581.405196,111.293547L549.066860,133.546653L516.683395,155.799106L484.262074,178.051221L462.739579,192.811190L449.087356,205.830781L431.942100,222.157067L415.751429,238.373340L402.998899,251.137377L386.473235,267.670674L378.150340,275.993066L359.698172,294.425282L354.135915,297.700292L329.504420,303.146820L306.910737,308.137739L286.035165,312.751354L271.765548,315.905436L257.969556,318.949178L258.085474,331.686786L258.253438,350.914734L258.446482,372.332770L258.622379,392.102983L258.826248,414.629403L258.983889,432.737783L259.172380,454.157727L259.358588,475.453369L257.354810,477.910165L256.678049,489.905778L256.189269,505.686383L252.408178,522.026080L245.697319,534.057454L243.294860,545.519139L241.475288,552.074268L238.955881,555.634902L238.386454,559.925465L237.078975,565.957173L234.933246,569.863182L233.257082,571.882057L226.455803,574.239190L214.461807,585.804077L213.468897,595.047411L199.740687,592.512262L185.142144,589.880975L183.182389,590.051884L181.985752,591.258929L181.400238,596.168999L161.553817,596.977255L144.420278,597.668011L123.221974,598.472706L108.639212,599.031719L90.141893,600.142624L73.000679,601.178756L61.611309,611.835579L51.343722,621.986463L50.540795,622.335396L35.951850,624.322180L17.735308,622.563271L8.375553,622.477818L4.707971,623.681283L3.992794,627.487500L3.121700,630.873567L3.054619,636.869489L1.929212,646.340441L0.579424,657.694838L6.114977,665.043650L12.755416,672.947865L14.539390,676.027653L12.778413,683.814332L14.002210,688.382362L17.528408,695.983855L23.482582,705.636114L29.607230,715.576724L33.849758,716.890505L37.886207,717.684470L40.332920,719.468220L43.927548,721.191443L47.484384,722.320082L50.593223,724.491909L52.585499,726.621010L55.156141,732.751957L62.067854,736.800084L66.877443,740.798359L64.945438,742.834879L58.935042,742.019559L53.285779,740.264307L52.539918,743.205155L52.313927,754.445150L53.234492,763.812375L54.552906,765.058488L60.235546,766.785244L73.798044,778.950838L86.077905,790.457737L90.204130,793.451946L96.994595,794.587681L104.589829,795.064760L107.854320,794.000232L115.212897,788.200508L119.127139,787.559654L122.736931,787.723427L124.705916,788.649105L128.244102,793.377180L131.569226,800.522687L132.523511,805.799033L132.217122,808.629459L131.094930,809.697544L125.056975,811.064692L122.447836,812.136337L121.801123,813.681499L122.738806,817.223976L123.924034,819.513233L130.536233,829.830903L140.094912,843.719499L143.033735,847.286881L144.523867,839.831692L141.331905,826.042775L141.501531,823.600428L148.105188,820.620479L156.359239,818.320541L159.557570,818.142527L161.660090,816.974756L164.670041,813.998363L169.574553,811.794550L172.450153,812.535088L174.237986,812.969443L191.657986,831.173124L199.221277,840.372852L201.266396,845.093760L205.170366,848.497369L210.927016,850.576560L216.185887,855.279661L220.282488,861.926659Z "/></g></svg>