<?xml version="1.0" encoding="utf-8"?><!DOCTYPE svg  PUBLIC '-//W3C//DTD SVG 1.1//EN'  'http://www.w3.org/Graphics/SVG/1.1/DTD/svg11.dtd'><svg enable_background="new 0 0 1000 917" height="917px" pretty_print="False" style="stroke-linejoin: round; stroke:#000; fill: none;" version="1.1" viewBox="0 0 1000 917" width="1000px" xmlns="http://www.w3.org/2000/svg" xmlns:xlink="http://www.w3.org/1999/xlink"><defs><style type="text/css"><![CDATA[path { fill-rule: evenodd; }]]></style></defs><metadata><views><view h="917.407685477" padding="0" w="1000"><proj flip="auto" id="robinson" lon0="7.91197527813"/><bbox h="160.9" w="175.58" x="39.67" y="-232.63"/></view></views></metadata><g class="" fill="#000" id="country"><path d="M389.433630,901.977928L391.699646,895.391149L386.936868,894.273167L383.221674,891.562060L375.941821,904.176626L381.287228,904.889339L389.433630,901.977928Z M294.560742,915.407685L297.270232,913.986917L298.013045,905.094303L302.745258,900.645666L303.121315,906.412590L301.502375,909.962182L302.157691,912.351869L305.200730,912.882910L318.856796,910.087955L322.046764,910.204412L326.639865,909.300710L328.743722,896.462549L330.565644,898.446967L331.909042,906.021296L333.241436,909.412508L340.154554,909.202886L343.680979,909.095747L352.370858,906.254209L346.682132,897.114705L346.575861,885.333965L346.042320,879.669520L344.477718,872.733367L346.154462,872.733367L349.299082,880.312360L350.547868,891.930062L352.986219,899.788546L357.660429,904.600527L365.246273,903.967004L377.109494,892.796499L377.878821,883.144583L371.357542,876.441344L370.477842,873.548563L376.149992,876.609042L381.463617,883.479977L388.016500,889.624223L402.785669,888.902193L406.949875,885.115027L407.600891,880.293727L408.724121,879.366733L411.686233,888.357177L418.313788,891.753048L431.491512,892.046519L450.650542,888.888218L472.917736,888.673938L475.828604,879.278226L467.814566,855.297486L469.403492,853.722993L476.956659,863.188586L481.299936,864.236695L484.495055,870.679074L491.529749,872.733367L493.951498,869.575065L494.971555,869.821953L497.410847,862.419973L502.038315,853.434180L508.315967,841.999316L515.444010,827.633208L520.242372,802.226985L523.514677,786.398167L526.503515,771.962170L531.673596,758.918997L536.934660,750.203362L551.883444,733.312452L563.143195,720.576726L568.909295,715.447964L572.929534,711.129743L579.952094,706.191972L587.150231,700.317887L592.613175,689.058839L597.126001,678.549775L600.546547,676.281197L605.036475,674.436521L618.820314,663.168163L627.583034,656.008401L629.638009,659.562661L631.155793,663.988018L632.841379,666.009708L640.213293,667.425822L650.311101,667.332657L656.116733,666.042316L659.183095,662.301724L662.262425,652.095455L664.082227,650.162273L666.443565,649.649864L677.525381,656.786332L686.736713,666.946020L695.849317,676.984596L700.450998,680.557491L702.476611,684.489073L706.545255,702.842672L708.820552,707.403123L712.772770,709.289724L719.828458,708.087889L727.151646,704.831755L733.612208,700.131556L739.949448,694.075800L744.252919,688.579037L746.125956,684.549631L746.988971,669.536019L748.406053,666.270571L754.880046,660.289351L765.703874,650.306680L771.922913,644.563035L771.351641,642.504080L767.430143,636.401750L763.923411,629.693847L767.391645,622.748374L770.993015,617.437954L784.619555,599.405824L784.628434,593.466544L785.301030,586.236929L796.144261,565.754588L802.263842,538.573715L802.413626,533.333193L808.860400,520.224907L816.473180,503.450606L831.500067,500.725541L837.248167,496.561084L843.871191,489.131211L848.103153,482.241697L850.090419,475.682921L851.484423,463.012568L854.009002,448.576768L855.554673,435.911106L859.967200,424.200390L867.462109,418.279822L880.513312,413.384060L882.442481,411.082914L884.255087,403.317712L885.578026,387.209714L885.902731,377.488100L886.369979,373.277112L887.986838,366.016589L899.990205,353.113508L905.149148,332.906478L909.693608,311.744562L923.211560,286.171419L939.032058,260.705426L946.440527,253.857976L952.712534,250.695106L959.958538,250.359720L964.886838,248.487152L982.087788,235.798403L989.291855,231.508262L994.571142,227.106326L995.832087,223.277340L996.285020,217.673602L994.457675,204.551626L997.310410,194.904612L998.856685,179.947299L999.454391,168.301912L998.779083,164.267947L995.965544,158.692127L995.442470,157.485663L990.153705,150.218923L981.430266,145.840243L969.480862,144.661725L963.136181,142.057806L962.001060,136.006835L961.349129,132.489909L960.684888,128.674857L959.712362,120.210929L951.058820,75.780905L939.807564,58.610620L925.376656,36.567701L911.948114,16.052572L896.960028,16.322754L888.383589,19.271461L877.650650,28.602032L865.547137,32.277422L850.881991,40.434072L841.629342,46.983602L832.903291,52.117009L820.972262,64.731560L817.165085,74.327536L805.134280,76.242071L788.298647,74.644296L777.482880,64.973789L752.554012,54.870040L736.428808,50.784746L728.959828,49.536331L691.065304,47.826748L650.726904,51.767639L630.184628,56.463164L626.439438,57.501955L614.833605,63.604264L605.216759,70.368034L579.305809,101.335905L544.632896,100.301782L524.195341,96.868681L506.835050,92.033454L482.076752,77.578983L451.701284,55.494247L440.033250,52.480353L429.543849,50.747480L426.051693,51.036292L390.193796,73.046521L383.240254,72.562065L374.756432,75.035588L369.192662,80.495036L365.087427,83.252706L360.769716,83.695238L355.084694,82.488757L349.491336,79.144149L343.903718,72.999939L328.874917,48.520830L325.784131,44.239881L319.391494,36.963655L308.638490,25.685940L301.371841,20.422062L296.963789,19.066496L291.713670,19.956232L262.728984,10.252972L233.739492,0.000000L227.382769,1.304333L222.866516,3.433189L212.905344,11.030911L201.129005,12.414431L186.150871,11.804191L177.927853,10.788679L164.695896,13.322802L155.904916,16.318095L144.389370,21.498130L129.474987,35.468346L125.189094,37.275759L121.582812,39.604899L116.714067,77.979591L112.693040,89.504041L105.147217,104.731737L90.257590,119.316557L80.033258,128.111217L79.837259,140.008209L79.093816,159.437433L78.999242,172.797033L79.706519,181.498463L78.002830,185.639558L77.319982,189.421974L77.894371,195.104912L80.323759,197.783345L81.791001,201.332850L80.827135,204.253505L76.004091,207.644631L72.546993,213.788716L67.276538,226.444871L67.076983,236.348062L79.797730,257.197855L81.260812,259.321962L84.544220,262.591969L86.323820,266.476848L87.844705,276.748023L88.780136,288.337450L89.802229,296.130502L95.942577,307.100403L96.357063,311.520972L92.155744,327.885004L91.153563,329.627148L90.041217,330.097620L83.477734,328.658255L80.657576,330.451639L77.110662,336.013458L74.930979,341.565964L74.822547,343.867087L80.665759,354.189541L77.027690,369.035074L73.291719,378.307939L66.554378,383.594968L60.519308,384.861992L56.305862,387.326169L53.855725,390.600869L54.241449,401.230844L45.364560,410.905902L40.446221,417.674257L38.062133,421.782785L39.089012,434.280735L35.959981,446.904472L30.479913,456.868384L18.154418,459.011162L7.810767,460.236272L4.339024,485.614251L4.514618,501.689795L3.615893,518.110068L1.904677,524.794639L2.625681,534.222917L1.889171,555.515755L0.545609,572.313406L2.374155,576.808621L3.456278,586.684122L3.381774,596.876390L6.051591,603.970919L8.933576,610.175723L8.840027,613.366632L7.316547,615.360369L6.031982,617.978312L6.076140,642.005646L6.603867,649.188695L5.855322,653.777090L3.644231,657.550289L4.531817,669.708375L6.324446,677.455081L8.155322,683.170782L6.404905,687.936195L4.894603,694.238839L2.592517,710.267962L2.468584,715.843918L8.019324,715.224367L55.368561,713.202676L63.305397,700.984021L69.454886,700.378445L87.410099,694.024559L90.327676,695.370800L73.060712,705.521180L68.342210,707.445048L65.054140,710.328520L68.070981,712.056740L121.827725,711.823826L147.528626,717.814368L164.565075,730.349788L183.735851,748.558990L199.016143,770.387673L203.311185,773.289779L204.428969,777.007083L204.965858,785.266206L210.060038,788.969535L218.751668,785.266206L221.187716,780.230610L223.033107,778.972875L222.874428,784.655972L224.983351,787.008401L230.684713,786.873311L233.932984,788.112412L228.658938,791.662018L219.842594,791.377863L213.681983,791.932198L212.293816,795.570310L215.098440,800.317092L228.025028,808.142993L241.795417,801.230114L240.303105,805.795223L237.709601,810.351015L232.527902,811.618066L226.535899,814.249990L226.233086,821.735835L226.740477,827.866121L228.281885,829.892470L235.665761,831.793045L233.666794,834.397018L229.546201,832.897055L227.872740,834.164105L233.370032,851.636090L237.190598,861.851664L242.293148,871.922830L245.188768,880.126029L262.977748,898.372435L272.068302,904.880023L277.488510,909.570889L286.410733,914.145298L294.560742,915.407685Z "/></g></svg>