<?xml version="1.0" encoding="utf-8"?><!DOCTYPE svg  PUBLIC '-//W3C//DTD SVG 1.1//EN'  'http://www.w3.org/Graphics/SVG/1.1/DTD/svg11.dtd'><svg enable_background="new 0 0 1000 631" height="631px" pretty_print="False" style="stroke-linejoin: round; stroke:#000; fill: none;" version="1.1" viewBox="0 0 1000 631" width="1000px" xmlns="http://www.w3.org/2000/svg" xmlns:xlink="http://www.w3.org/1999/xlink"><defs><style type="text/css"><![CDATA[path { fill-rule: evenodd; }]]></style></defs><metadata><views><view h="631.998021567" padding="0" w="1000"><proj flip="auto" id="robinson" lon0="5.49935962385"/><bbox h="691.79" w="1096.34" x="-1005.95" y="-893.55"/></view></views></metadata><g class="" fill="#000" id="country"><path d="M2.141432,629.998022L2.898654,628.280088L2.798512,626.956591L0.860325,625.876915L0.792396,626.555441L1.067539,627.005057L1.600512,627.330899L1.833212,627.865517L1.815305,629.231513L2.141432,629.998022Z M79.520013,546.561517L79.166731,546.353474L79.091410,546.249825L78.997617,546.171529L78.740385,546.031342L78.727716,546.543621L78.888036,546.847857L79.170099,546.876193L79.520013,546.561517Z M75.765425,544.614564L75.856976,544.446788L75.787061,544.246948L75.684831,544.176855L75.536302,544.276775L75.482580,544.530303L75.641726,544.668998L75.765425,544.614564Z M965.878829,32.691155L964.559115,33.070768L963.381950,32.551954L961.916517,33.161195L959.976929,32.945898L958.494754,32.501011L956.599596,32.587830L955.726978,32.820317L956.099682,34.092934L956.371640,34.497182L956.721321,34.760015L957.180139,34.811723L957.697186,34.497182L958.423263,34.165450L959.604650,34.319821L960.467804,34.626440L960.779606,34.944589L961.352975,35.247696L962.181987,35.320246L963.769846,34.740624L965.285931,33.858171L965.721605,33.245884L965.878829,32.691155Z M962.546774,27.509469L960.694161,27.407078L959.653100,27.652681L959.665115,27.942710L960.054809,28.407544L961.058164,28.176190L962.606857,29.158339L964.035242,28.839509L963.941643,28.565135L963.694917,28.309413L962.546774,27.509469Z M972.801242,8.062141L972.754805,6.423922L971.118577,7.762271L970.791294,8.566739L970.999478,8.805568L971.698861,9.094182L972.801242,8.062141Z M975.236765,4.610687L974.304501,4.578750L972.972396,5.508632L973.158375,5.678317L975.236765,4.610687Z M965.878829,32.691155L966.795878,33.057850L967.600632,33.138947L967.947399,32.976039L967.701506,32.087052L968.339798,31.613632L969.058030,31.394886L969.395167,31.778602L970.067591,32.170269L970.591607,32.173138L971.973094,31.153929L972.309030,31.355442L972.624690,31.717633L972.696331,32.010295L972.759277,32.315187L973.079828,32.444330L974.189312,32.378323L974.736714,31.825943L975.171046,31.477362L975.508341,31.711895L975.690396,32.391955L976.023622,33.278899L977.378636,34.271714L978.508899,34.554629L979.882673,34.359313L980.423039,34.181963L980.798214,34.329874L981.182235,34.854814L981.995094,35.456014L983.675592,35.882045L984.196179,36.123471L984.565890,36.527340L984.482177,37.104517L983.734809,38.542671L983.644459,38.967811L983.755920,39.110261L983.609179,39.377197L982.604791,40.342302L982.521494,40.682090L982.885038,41.237228L983.184246,41.697423L983.185430,41.698863L983.814701,41.921431L984.402789,41.995624L986.694005,42.056134L987.249494,39.778737L986.742592,39.114578L986.129098,38.775733L985.421782,38.609566L985.090928,38.293808L984.966347,37.933507L985.084723,37.709874L985.910841,37.776027L986.155836,37.542343L988.071316,36.206827L988.142670,35.950303L987.864269,35.805167L987.502142,35.727573L987.403808,35.447394L987.403204,35.078182L988.382217,33.156172L988.661538,32.336711L988.709487,31.757801L988.624169,31.186199L987.993319,30.287827L987.383046,29.571086L987.342156,29.000710L986.907724,28.700527L985.648486,27.172954L985.629835,26.582373L986.293829,26.123606L987.233075,25.830927L987.540097,25.589796L988.104056,25.438118L989.628357,25.878154L990.319625,26.260297L990.507301,26.181573L991.101699,25.765812L992.173491,25.830927L994.729674,24.996729L995.099005,24.595469L995.372476,24.169245L995.388507,23.981901L994.353687,23.161900L994.311054,22.858846L994.430139,22.517239L994.701801,22.247131L995.286484,22.063503L995.902064,21.704144L997.267178,20.684215L997.717858,19.799608L997.826627,18.842522L997.825441,18.130471L997.418249,17.564111L997.015241,17.197542L996.487592,17.253166L995.456676,17.223928L994.481325,16.906606L993.932657,16.392556L993.784008,15.940620L994.011362,15.656239L994.069952,15.307043L993.901868,14.955757L993.951438,14.660798L994.374507,14.424286L997.414453,14.432122L997.630857,14.172125L997.777058,12.809878L998.445693,10.736894L999.109535,9.583333L999.207604,9.098448L999.074420,6.367107L999.107228,4.984735L997.504769,4.718566L996.461731,4.330362L995.794754,3.631450L994.655946,2.675971L991.777896,2.775972L989.388997,3.051881L986.072831,3.171048L983.936865,3.634288L980.092379,5.182072L979.136512,5.976534L978.192411,7.686953L974.854976,9.664393L972.894041,10.426051L972.324838,10.135870L971.513821,9.945989L970.901134,10.953865L970.533409,11.862493L969.350653,17.219649L968.491942,19.168647L967.309104,20.811326L965.430845,22.828114L964.559373,23.517177L964.025000,23.778127L963.370129,24.749957L962.853469,25.921088L962.496332,26.467136L964.714557,28.485622L964.999892,29.064477L965.293014,29.404116L963.240267,29.616235L964.131953,30.272773L965.243464,30.740198L965.988645,30.966056L966.403182,31.440068L965.616776,31.659536L964.870436,31.673163L961.873302,29.933731L960.221588,29.613368L957.963437,29.715135L957.399855,29.897894L956.823953,30.424748L957.669322,31.226357L958.448457,31.700419L959.685163,31.759235L961.185163,32.354647L963.313544,31.857504L964.861533,32.470159L965.878829,32.691155Z M977.679486,3.481048L980.584233,2.720652L980.294018,2.641220L978.676787,2.817109L976.129573,3.393081L976.619959,3.596687L977.679486,3.481048Z M984.528155,2.419248L984.512574,2.329897L983.914568,2.183112L981.997503,2.207930L981.387345,2.307914L981.519219,2.476690L982.286471,2.654695L984.528155,2.419248Z M989.107634,1.665529L988.620830,1.603851L987.227632,1.912255L987.137378,2.054771L987.528981,2.158294L989.107634,1.665529Z M993.839180,0.000000L992.871213,0.287674L992.585775,0.671760L993.639839,0.623569L994.366483,0.000000L993.839180,0.000000Z "/></g></svg>