<?xml version="1.0" encoding="utf-8"?><!DOCTYPE svg  PUBLIC '-//W3C//DTD SVG 1.1//EN'  'http://www.w3.org/Graphics/SVG/1.1/DTD/svg11.dtd'><svg enable_background="new 0 0 1000 734" height="734px" pretty_print="False" style="stroke-linejoin: round; stroke:#000; fill: none;" version="1.1" viewBox="0 0 1000 734" width="1000px" xmlns="http://www.w3.org/2000/svg" xmlns:xlink="http://www.w3.org/1999/xlink"><defs><style type="text/css"><![CDATA[path { fill-rule: evenodd; }]]></style></defs><metadata><views><view h="734.632790568" padding="0" w="1000"><proj flip="auto" id="robinson" lon0="22.6700178928"/><bbox h="312.93" w="426.54" x="-95.86" y="-1275.72"/></view></views></metadata><g class="" fill="#000" id="country"><path d="M365.561106,649.939215L364.468631,647.019792L362.741981,644.758305L361.827222,644.929805L361.124251,646.191742L361.787786,648.734108L361.677679,651.200689L362.047391,652.245154L363.251306,653.880641L365.808982,654.203245L365.561106,649.939215Z M361.031607,622.142192L361.346295,619.871493L359.695871,618.049109L358.229803,618.245760L357.231118,618.802693L356.657619,622.208379L358.620225,622.593328L361.031607,622.142192Z M442.294333,542.476472L443.253856,541.467157L442.981598,539.192811L441.218525,537.811704L437.646334,538.546642L434.125197,539.803172L434.490069,540.813798L436.514698,541.959809L439.667894,542.500425L442.294333,542.476472Z M451.397745,530.945438L459.744329,529.676226L460.446299,528.889987L460.185529,527.302617L458.917595,526.143592L458.091931,526.259479L457.502412,527.202041L450.726496,528.685351L446.445467,530.245958L448.340511,531.027336L451.397745,530.945438Z M521.440509,489.272999L521.698795,487.819388L518.493377,485.460327L515.544109,485.372607L510.241535,487.289403L508.457264,489.119340L510.983699,490.059964L516.999910,489.462126L520.142958,490.235617L521.440509,489.272999Z M538.346246,463.058589L539.091924,461.241205L538.210920,460.481993L535.660577,460.332851L533.771748,461.088680L533.023130,462.905988L533.454805,463.813302L536.718033,464.116908L538.346246,463.058589Z M551.560143,453.611043L556.796204,451.490788L558.265547,450.538086L557.367990,449.864662L554.649345,449.961573L552.234089,450.188825L550.424095,451.037805L549.356403,452.309981L549.480477,453.709729L551.560143,453.611043Z M548.730188,448.773751L552.705661,447.793386L553.732853,446.065464L553.488504,444.169895L550.944983,443.055724L549.314603,443.928017L549.043338,445.079174L548.395774,446.058787L546.590525,447.491147L546.340882,449.000927L548.730188,448.773751Z M556.394848,386.714385L558.794878,384.685636L559.315989,383.951816L559.130079,382.401216L559.594375,380.835045L558.115865,380.100515L555.511387,381.972362L553.837330,385.249225L552.815342,388.490229L556.394848,386.714385Z M577.850450,373.608774L575.550619,373.248080L573.110946,373.339473L569.399669,374.153978L566.951640,377.023647L565.392679,376.912533L563.690851,377.116790L562.716311,378.450518L561.405068,379.567316L562.514863,382.646771L565.588307,382.167139L566.549936,381.779233L566.727012,380.457124L567.147270,379.717780L569.076501,380.759784L571.174672,379.346540L572.970326,378.980251L576.083926,378.973710L577.181683,378.434170L578.614243,376.847174L582.141831,376.209996L583.733340,375.171195L584.180278,374.227441L583.362127,374.013586L579.431058,374.180098L577.850450,373.608774Z M608.797789,351.039272L607.832567,349.764948L606.537120,349.021992L605.857009,348.887666L604.274557,349.135284L604.731144,352.659315L600.477858,352.009567L599.727384,352.912125L600.169499,354.210561L599.225854,356.090367L597.234554,355.786985L596.308622,355.301963L592.836577,355.164096L591.592905,356.724817L588.728898,358.734560L589.720259,360.337839L592.785922,361.342168L595.075587,361.166629L598.235423,359.873170L599.534075,360.170484L599.935538,361.178006L602.234976,362.076946L605.720189,362.231403L610.615787,361.899737L613.567083,360.032384L614.290074,356.335368L612.527753,354.380812L608.797789,351.039272Z M624.498449,363.734129L625.013506,361.875351L627.953102,358.010371L627.445362,355.152743L626.586773,352.187787L624.527514,350.454663L623.679128,348.350425L627.829024,345.421680L630.418163,341.989039L630.515940,340.087969L628.337146,339.158889L626.258876,339.158889L624.545468,339.957298L621.251289,343.506956L619.097054,344.762285L615.306810,347.712989L614.475784,349.863700L614.872605,351.832977L617.057230,352.058171L618.121654,353.341630L616.535081,355.613406L615.443047,361.915994L608.167648,367.728889L595.412186,369.099166L591.898104,371.062001L587.658019,373.889525L587.936539,376.102179L590.329025,376.520399L597.354981,375.844088L604.472487,372.229885L607.392674,373.027768L608.898675,372.810736L611.089844,372.102635L613.143726,369.984237L614.580056,369.837522L614.925411,371.605108L617.422349,372.021068L623.454059,370.579323L625.274360,368.807460L627.146208,368.809090L628.111249,369.302888L629.143190,369.469136L630.676635,369.027459L632.250538,366.986175L635.592442,364.492291L639.104900,363.512900L643.386705,361.343793L643.698997,358.564051L641.574863,355.692894L640.013917,354.409999L637.417050,353.255724L636.108538,353.521555L634.963741,354.004652L633.073480,354.382433L632.522125,355.811319L632.937190,357.570426L631.608787,358.648492L631.527265,359.762700L627.844752,360.761955L624.834855,363.968390L624.498449,363.734129Z M663.387681,329.459480L663.064087,329.768040L663.025036,330.333825L662.488418,331.634615L660.046857,331.734330L657.568280,332.503227L657.146854,333.364071L660.943787,334.643772L661.585746,335.374838L660.919074,336.536251L653.858216,335.964343L652.002516,337.182410L652.036561,338.223673L651.691321,339.731462L652.746820,342.841554L652.358969,344.586149L649.231799,345.431378L648.632540,346.002011L648.626528,346.810472L652.404624,346.854135L655.462637,347.607843L655.764154,348.699944L657.679906,348.293795L661.256093,344.846317L665.051093,342.636474L667.256972,343.841332L672.365373,343.456884L676.686407,342.592877L675.534065,340.075063L675.786646,338.278487L677.661037,337.588552L678.815059,336.065828L677.873659,334.028797L676.415993,332.464617L674.485683,332.409919L672.675082,331.213277L670.588560,330.552456L667.958273,330.766281L666.693254,331.341923L663.387681,329.459480Z M973.444329,322.867666L975.549939,321.502226L973.688723,320.358491L971.459511,319.400953L969.482839,319.298495L968.909268,321.808267L968.195867,323.037593L968.955593,323.828060L973.444329,322.867666Z M742.401849,313.267244L742.690334,309.484637L741.773431,309.025352L738.444175,308.655431L734.582595,309.554812L732.860323,311.137456L732.910968,312.305910L734.641373,313.698522L736.368076,313.556352L738.003697,313.866260L739.200396,314.337583L741.202299,314.027619L742.401849,313.267244Z M704.592798,314.030814L703.812998,310.363564L702.507631,308.113401L700.539144,308.221798L699.171624,310.754470L699.125818,311.798239L699.997446,313.399814L699.671235,314.965613L697.591563,314.796206L695.644298,315.859178L694.445044,317.510918L691.402950,319.778803L691.237466,320.651586L692.051925,321.946077L691.691930,323.364655L690.277918,322.333907L689.305844,322.545474L687.724533,323.791177L685.002096,323.367861L683.653397,323.816835L683.078958,325.538067L681.987587,325.987406L681.210787,326.810855L681.315471,328.159738L677.763854,328.476181L677.341170,329.266648L679.287943,330.722871L683.021018,331.459318L686.338627,330.888474L695.576888,330.026808L695.830150,329.158990L695.796380,328.024819L697.984055,325.826919L700.155102,324.089463L702.943869,322.418852L704.657739,322.768279L707.980913,322.096715L710.163717,319.205645L713.546508,317.181381L713.650129,315.577808L710.786129,314.636398L709.509154,314.968810L709.038404,315.641753L707.111976,315.812814L704.592798,314.030814Z M716.472958,309.117840L714.060675,307.260730L711.998258,307.502956L712.631020,309.039703L715.364971,310.795958L716.576816,312.588525L717.620851,313.669768L720.571970,313.963713L723.232536,313.709704L725.133700,312.864782L724.871651,311.997783L722.506293,311.320990L720.113975,309.601065L719.013919,309.262958L717.806458,309.500585L716.472958,309.117840Z M809.783002,298.277709L808.569313,296.836205L807.607132,296.074502L800.996023,299.715251L798.699867,299.359365L795.532936,300.307974L793.804143,301.686221L793.417759,302.592735L793.638790,303.638006L796.041908,304.677330L797.972529,303.867162L798.542561,304.479937L798.771814,306.526222L800.326770,306.965946L803.000940,306.513478L804.718604,305.900222L804.276780,305.258450L809.099770,302.872705L811.020066,301.055030L810.574306,299.799464L809.783002,298.277709Z M819.612333,297.690215L820.517747,294.986292L817.152983,293.394463L814.467871,292.915839L813.976946,292.427797L812.413611,291.844803L810.383207,292.641700L810.080435,294.185498L810.802146,296.725110L812.201459,297.869625L815.182162,298.987644L819.612333,297.690215Z M803.587747,289.626519L802.291072,288.757778L799.651693,289.724647L797.769689,289.636015L792.538055,293.025186L789.812746,292.459485L782.923679,293.473714L779.187521,293.297780L777.740476,294.756336L774.769564,294.456630L773.292184,294.800740L768.947622,294.773780L770.750136,296.196677L773.884179,297.861686L778.901381,299.400671L780.760243,299.583377L783.818761,299.365720L784.887480,298.803392L785.967717,297.961716L790.370482,298.530214L791.667100,298.141145L792.622955,297.490180L795.928171,296.821921L800.904314,292.678144L802.702995,291.632551L803.323390,290.642797L803.587747,289.626519Z M435.706210,732.632791L447.143060,730.482176L451.566972,728.031905L455.197388,728.103016L459.145570,725.221946L464.869127,722.452430L475.704615,712.662447L482.465198,708.850083L482.816120,707.512564L484.010712,706.527789L486.351880,706.217869L488.252601,704.110877L485.725813,702.255977L492.287434,699.496030L494.139938,699.023795L495.153392,698.113044L496.151915,696.718037L494.079837,694.611180L492.015663,692.990945L494.179282,692.807220L499.017946,696.090489L500.376804,698.572822L503.623625,698.220912L506.920243,696.026854L509.662707,696.733947L510.305834,695.669808L511.305485,694.823242L515.975359,686.954290L516.357874,683.419182L515.949877,681.032036L514.824289,680.596685L514.401954,678.298914L517.001212,677.499161L518.983532,675.854244L517.694027,671.936032L519.209987,669.459212L519.698701,672.504392L520.743772,675.299599L521.133747,681.589057L521.627656,682.995975L524.607801,686.363177L527.484470,690.414069L530.606687,690.887316L532.129495,691.118657L534.759597,691.938144L535.908797,691.886922L542.549565,693.285979L543.236657,694.690702L543.374478,695.747578L546.054102,700.346865L548.141553,700.944828L550.818673,699.747198L552.480987,696.394531L553.166841,691.367669L554.054328,686.583734L552.095215,681.470949L550.088552,676.984848L549.863367,675.667595L553.807772,671.886765L554.847843,668.813818L556.006633,665.890349L557.477139,664.895736L559.774772,664.669075L562.425218,664.119159L565.652862,662.164194L568.465363,659.546787L570.574622,657.147973L570.929599,652.404647L570.743651,650.023303L571.603030,648.256000L572.273252,644.805554L570.997660,641.404760L567.535207,636.250384L563.280273,629.011413L562.356770,625.064013L563.923604,624.332082L566.985861,623.678667L572.875135,623.488759L573.463081,623.023601L573.896546,621.297518L575.003371,618.954121L576.260188,617.248667L576.996150,614.809901L577.250874,612.601846L573.563989,609.277828L568.833545,605.878083L565.745949,604.751754L560.169625,601.892912L556.224218,599.503814L557.517868,590.421770L558.472462,583.675309L558.573328,582.036466L558.393619,579.497363L552.273738,568.685820L552.248277,566.285144L552.531748,564.124806L551.643263,560.443013L551.038840,557.152336L551.818083,556.154981L553.719021,554.299934L551.471242,551.423711L551.289260,551.190542L546.899333,544.085032L551.922153,537.061517L550.589570,533.433812L553.725152,530.803826L559.298165,524.785561L562.422587,521.405218L563.097233,520.814584L565.684040,519.330714L570.690710,517.571872L576.346656,516.714840L578.903926,516.725042L588.903688,517.915416L596.718515,518.842449L597.738855,517.912014L599.138590,516.004185L600.908150,513.288522L600.752414,510.270807L599.510611,505.842589L598.093726,503.194789L592.496759,501.475170L586.329392,499.118047L592.766047,491.663093L597.208242,486.497935L602.570480,478.741021L604.137861,475.517528L605.392150,474.238988L605.830312,462.376127L606.649052,459.064549L607.456795,457.336215L607.260720,455.561845L606.246836,452.572497L603.705284,445.830131L613.357792,444.997412L616.476459,444.525237L619.324255,443.721182L624.825812,441.638503L627.422511,439.798640L625.045362,433.529773L628.249849,431.409999L635.757596,424.040153L643.945038,416.997575L647.857605,414.335867L648.122168,413.036401L648.184569,410.947758L645.839483,407.670435L643.527856,405.641316L639.046431,401.801052L640.377816,399.125492L643.218642,398.605460L646.918544,397.555784L649.596838,395.271725L649.848143,394.977500L653.641622,386.012857L662.856177,381.481381L666.418758,379.012953L672.814538,380.867767L682.214082,383.668490L685.571050,379.547691L686.652527,378.020588L687.617339,375.772218L686.483949,371.887302L685.469199,366.849379L685.545341,364.827507L688.962610,363.927718L690.841093,363.695087L701.092351,365.773153L703.582728,365.737340L708.304298,366.017345L713.689541,366.930804L725.068175,369.363193L729.780706,370.370622L732.349252,370.566279L734.340738,369.431648L738.506157,366.523702L731.255762,364.373510L735.403099,362.198885L737.362761,360.008014L738.896360,357.317204L739.061618,354.171648L738.484923,352.481065L736.897893,351.330811L732.212747,348.460454L741.599101,348.049486L744.858680,347.931384L746.016204,346.850901L751.380096,346.786215L756.007672,347.769609L756.906802,347.349036L757.332849,346.475741L754.790252,342.975591L754.960195,342.064915L756.708417,340.968948L759.638105,340.096035L764.501144,339.970204L767.856361,340.099262L768.578979,340.194446L774.293736,344.036807L779.291187,347.790639L781.875524,349.392636L788.327069,353.934939L790.925240,356.567408L792.001890,358.453631L794.269787,358.442264L802.284455,359.270512L809.019095,359.967398L811.070615,361.025230L815.576687,360.812333L818.887819,359.858549L824.827717,358.653364L826.178889,357.172748L827.909841,355.593940L831.584485,355.842143L835.808324,357.089972L840.654648,358.731312L844.826104,359.491418L850.464192,360.683952L853.308031,362.226525L856.923045,362.667179L860.273056,361.124371L861.533417,356.943905L863.051587,355.081379L865.478201,353.716081L868.468593,353.113093L870.804340,352.895919L872.368566,351.834597L874.403274,349.480044L874.258909,346.630973L872.601855,341.491859L872.683356,339.799211L874.136465,337.030928L875.243259,329.710183L876.006746,327.604044L877.233609,326.324459L879.148994,325.563741L882.430878,323.355035L886.817469,318.987942L888.198034,318.618208L892.034861,318.397353L896.913575,318.558992L901.451147,319.327311L901.906928,319.268078L903.758109,318.867893L906.976209,317.512518L912.381664,314.821776L916.085781,314.081940L919.650215,314.185792L924.313366,317.131794L930.680136,320.417748L934.646054,322.014985L945.125578,325.011794L954.170066,326.985850L960.675114,333.518569L958.980929,336.125432L958.032024,337.024482L954.509127,339.623390L950.955185,343.295367L951.097521,345.211561L953.081093,347.145243L955.269073,348.424856L958.882198,347.497847L960.018081,346.782980L960.785529,345.938961L962.903774,340.197673L963.553641,339.287909L974.177937,337.230757L977.947833,336.173760L979.933292,334.841817L980.773620,333.806667L981.244556,332.575624L981.455788,331.219709L981.365904,329.975374L980.009964,328.352491L980.468059,328.156525L981.671662,328.223987L985.917107,329.838757L992.288830,331.555810L996.671440,331.689297L998.382952,331.362829L999.076919,330.611939L999.318460,329.144529L998.943028,327.632950L996.387139,323.305332L992.396929,322.902933L989.455665,323.101720L986.656788,322.930185L985.906213,325.315030L985.035527,324.968478L982.916022,321.627202L979.892524,320.720460L978.643823,321.410901L978.866949,324.536954L977.445797,325.469068L974.828373,324.841741L969.949611,325.130517L967.367213,324.581868L965.590325,323.414359L964.885010,322.164024L964.407462,320.331265L964.435027,318.048503L963.011459,316.965445L942.157254,313.176206L941.130842,311.447077L970.042318,313.046841L978.181102,312.123903L982.646318,309.733450L993.758427,307.233640L993.530257,304.968670L992.153115,303.101794L982.840556,299.111545L978.322617,298.347582L973.185650,298.473041L972.763105,297.855335L973.081049,295.909496L968.086500,293.285101L965.549926,293.564064L961.986001,295.247992L960.489141,295.108415L959.912176,294.402719L957.539195,293.218535L951.317741,292.274115L949.186411,291.387056L946.054823,289.167585L942.918443,288.169291L936.211343,288.064896L934.389131,288.792586L931.626394,291.445656L929.749065,296.018970L929.571031,299.837599L926.905465,301.735515L926.500647,303.027020L925.636406,308.076739L924.640344,306.801837L924.031896,304.429000L923.983459,301.829334L923.125094,297.380644L924.065051,294.421746L922.369926,293.240723L917.348142,294.542257L914.742461,294.098298L915.719408,292.811251L922.967604,290.204260L924.093340,289.321081L925.094988,287.887750L924.427829,284.461135L917.682021,282.271330L909.505845,281.742712L907.319851,281.048573L903.877017,280.711038L898.127578,283.767836L896.159823,285.369500L897.297271,286.573777L905.045769,289.249870L905.012427,290.007972L899.163762,290.022218L896.546340,291.952521L896.157019,293.992076L894.867416,296.355354L893.621754,299.511882L886.327419,302.432084L884.409875,302.812255L884.036820,301.385710L884.069471,299.769274L884.360836,298.226894L884.090697,295.452612L881.692055,294.383691L884.018461,292.052321L884.561197,288.401822L882.078916,285.611258L878.489197,286.483674L872.708683,290.701380L867.937281,295.804786L857.295377,305.075343L856.805721,308.503970L852.400208,311.739176L848.424394,312.636428L846.644457,311.493364L846.381748,309.068406L849.374314,305.615148L849.695752,300.226923L850.813343,298.177667L854.724893,294.291728L858.796167,290.878720L861.349392,289.593283L860.740488,288.414478L859.225246,287.878261L857.663277,287.761226L855.483353,286.875726L852.097248,286.513708L850.761467,287.158736L849.847186,288.536289L848.393575,288.727718L845.872613,287.803927L842.265549,285.971568L836.707796,284.372686L834.833491,283.388891L832.260658,283.628883L827.741472,287.171386L823.819895,289.284684L824.325515,291.022817L827.867671,291.911334L828.591796,293.316800L827.053078,293.557723L825.556210,294.602514L820.717367,300.358830L817.263090,300.573392L811.973066,303.146342L806.040070,308.113401L805.068624,309.427222L804.703848,312.773758L805.591014,314.123480L808.133550,315.557026L807.231058,316.747927L804.770235,316.423284L802.507967,315.253311L798.761773,312.871170L796.258826,308.462519L794.760796,306.236300L792.296349,305.078528L787.918163,303.961059L781.631305,305.172468L781.124949,307.125284L779.652877,307.557141L776.810989,306.099315L772.930490,307.182649L771.354351,306.615436L766.419265,308.687319L760.239792,307.780268L755.846704,308.572525L755.770378,309.393730L757.329492,310.497582L762.975612,312.990944L768.034674,314.041998L770.671702,316.065428L773.817708,321.627202L772.873114,322.279415L768.606439,319.892488L763.559261,318.234124L759.160428,315.772845L754.757851,316.099005L753.209406,319.825237L749.954295,319.892488L748.254644,318.955929L745.046118,319.240864L739.560816,319.024758L738.043532,321.085683L738.670725,326.298778L739.775080,328.256112L742.545073,329.838757L744.880154,331.491481L744.887007,331.953074L738.423462,331.242222L732.192553,336.884288L730.096984,337.865795L728.822658,338.147902L728.418171,337.388697L733.209713,331.448060L734.257151,328.787842L733.760305,326.804433L733.980000,320.542672L732.854749,318.762254L731.942365,317.995700L729.527499,318.589400L727.796393,319.588270L725.942686,320.023793L723.583509,321.954089L721.787576,325.319844L719.855647,332.503227L717.925186,335.133275L717.422413,332.503227L718.202308,328.909945L717.887311,323.364655L716.867813,322.606383L704.956004,324.474397L701.473826,327.348721L701.001635,328.554896L701.090122,329.740719L700.844311,330.615155L698.340534,331.859784L695.462803,332.067278L693.124368,331.957899L691.793820,332.939247L692.349926,334.791902L695.807341,336.637757L700.209154,338.051176L698.895673,338.749290L693.492280,338.504204L689.168452,337.085718L686.156553,334.611571L683.821819,333.449366L683.008363,333.597431L681.395799,334.833766L679.236592,338.392956L679.641855,341.453121L680.971826,343.153240L680.700199,343.977032L671.001552,345.838730L667.519657,349.115863L666.722821,353.174682L664.617966,355.811319L658.580954,359.332234L652.383613,359.600252L646.779362,361.584364L645.115457,362.686693L643.742161,364.689185L644.219177,366.085723L645.845790,366.893349L661.545731,367.132748L667.110450,366.377159L668.518588,366.631172L669.147681,367.072489L670.963337,367.526904L670.604705,368.233911L668.718328,368.232282L665.184453,368.765092L659.245680,370.165196L655.689194,370.623348L653.491103,370.603781L646.996059,368.900347L641.212165,369.459356L636.877877,371.890564L636.306020,373.076725L639.104564,377.649557L640.819089,379.081630L642.720108,379.421765L642.354912,380.419498L640.859600,381.296466L639.742885,382.450326L641.671881,386.468504L640.331328,386.296399L636.108243,381.574662L633.878817,375.796719L633.121277,375.185893L632.305101,374.833173L628.532603,376.389699L623.659433,376.986064L619.609998,379.045656L615.408951,380.187210L614.960670,381.268648L616.738344,382.370114L623.154040,382.897257L623.729702,384.225340L620.899681,384.965780L618.229340,385.186963L614.820690,383.801142L611.194329,383.406478L609.077559,383.974745L603.331119,388.890468L604.149421,390.889156L603.449116,393.409860L605.375286,393.799232L610.057466,393.151948L616.429324,390.370489L617.635745,391.407909L616.172535,392.297871L614.726760,394.067056L615.728123,395.858614L618.679346,397.818993L622.224696,398.801285L626.561830,397.856831L627.431077,398.579132L624.805183,401.193297L625.708737,404.409623L624.628348,404.300821L621.942319,400.954508L620.404652,400.170750L617.281783,399.867837L612.646542,397.445572L608.499914,396.797536L603.513575,399.332870L599.456494,403.143796L598.571902,404.706373L596.475765,406.121261L596.413550,407.015368L597.443569,407.536771L600.025287,407.149011L606.266062,407.119312L618.545656,407.503768L622.053409,407.850313L621.757073,409.345831L605.320021,409.614966L600.904751,410.311847L597.737585,411.367362L594.264648,410.817262L590.987497,412.431482L588.462969,412.160462L586.420431,413.722442L583.181630,417.388161L581.346018,417.527195L579.325615,418.298606L577.507171,419.348412L579.077828,421.228625L584.703293,422.324110L585.899551,423.174561L581.513702,423.577481L577.152307,423.157981L574.747858,424.964030L573.041263,425.851655L569.508036,426.316300L567.137976,428.391387L567.009595,431.918625L564.748735,431.842160L564.201061,435.541029L566.252920,442.368717L572.294332,442.161974L573.907999,441.620166L576.055866,441.643504L580.715203,440.903442L588.118551,439.328831L589.791422,440.085222L586.911770,441.798537L582.953515,442.697196L580.893732,444.099832L573.408319,444.004749L558.006539,446.818300L558.408678,447.890241L563.308578,449.597332L565.024276,451.751572L563.770863,452.253133L559.394974,451.866925L556.238094,453.602680L554.981390,456.894215L548.196784,462.932819L546.525083,465.063112L545.059159,467.879665L543.272664,472.142112L543.860571,475.007742L545.701093,476.168739L547.340612,475.801893L549.248424,476.331980L550.196343,477.966460L551.640323,478.284684L554.076794,477.897431L559.179566,475.448543L561.742878,473.687331L564.177754,472.937341L559.968690,477.239190L554.322043,481.205503L549.055278,481.668929L546.748809,479.620169L544.875830,478.461487L527.895494,485.472135L524.440107,487.888596L523.455946,490.534584L523.511007,493.116444L525.981583,492.486029L530.306367,490.919727L532.199538,491.070079L529.541422,493.476485L524.639581,495.500428L521.858795,495.723684L518.489893,497.973857L514.418601,499.250090L512.064899,502.137516L505.178893,504.781224L497.119709,513.076172L491.372408,516.434303L489.773529,519.967078L487.949361,522.195134L483.921771,524.041136L481.619989,526.486152L480.585926,529.582415L481.387415,530.532560L483.010898,529.891146L485.949317,529.814387L487.903988,532.715137L489.628455,534.123584L490.611526,536.027880L494.142501,536.345632L501.578424,534.304583L516.911634,527.345234L519.684244,524.727638L517.366741,522.762129L515.910832,522.081064L519.995198,519.744170L523.549173,518.267494L525.969027,517.627994L529.306508,518.476713L530.130527,519.226932L525.961300,521.136273L522.941525,522.855785L524.025452,523.579557L526.531781,523.663012L527.725080,524.990004L528.434140,526.136775L524.694331,527.568557L521.950331,529.127037L517.599081,529.860442L513.108713,531.503400L511.745197,532.418143L510.559926,534.760530L511.508630,535.518844L513.157855,538.144974L511.661079,538.064645L508.668128,538.637236L501.888981,537.862975L497.875182,538.372296L495.044401,539.144943L493.563759,540.611995L492.432005,540.456374L491.049248,537.529727L489.821820,537.068352L488.149303,535.944175L484.262532,532.433504L481.772950,532.957526L479.655519,533.792343L474.425863,534.328489L470.222419,538.213340L468.288190,538.069772L467.974459,536.776173L470.010035,534.471929L469.346294,533.514052L461.375099,531.687698L456.921529,532.501777L454.367107,533.251144L449.759791,535.561546L448.841996,536.829140L449.654538,538.705611L452.210716,539.444125L455.247566,539.375739L456.593455,540.567531L456.564053,542.310517L455.147702,543.325168L446.932259,544.264750L444.710402,546.019539L444.166794,548.650516L446.415904,551.435713L449.285568,552.840142L456.937879,558.520856L457.394151,559.728331L448.705066,555.533683L445.963617,554.480083L442.780346,551.127109L436.278648,550.360839L432.957803,550.674530L430.750719,550.487684L428.556355,550.827099L423.797621,553.503934L413.689693,555.809995L411.909506,556.766070L411.633090,557.741244L407.892179,561.719770L406.762445,564.147161L408.013280,564.850533L414.566844,563.861717L416.839768,563.045040L420.377839,563.033006L424.943183,564.461858L441.998225,562.367744L443.432427,563.755111L435.612688,564.136843L428.530083,565.860216L428.038632,566.796145L428.360688,568.036905L432.820672,568.907885L431.849912,569.668842L429.640005,570.226733L427.534898,570.416156L421.797799,568.319180L413.039286,567.456922L407.174302,567.064574L403.795654,567.649668L398.985916,568.059280L396.647237,568.007646L394.531411,568.969858L393.684368,571.223880L391.780645,572.546871L390.587451,573.790982L391.131197,575.192321L394.513991,574.880299L399.744958,573.758238L406.071091,573.053433L404.194476,574.633801L403.142462,575.199217L393.193754,577.123553L389.802029,577.235660L388.192012,576.314747L386.901771,575.204389L384.953595,574.890642L381.972388,575.997473L379.867124,576.200940L374.965680,578.603585L373.744100,581.140451L372.112533,582.262656L370.440226,584.231513L368.704774,584.153778L367.220132,582.924026L364.609437,583.941311L363.525942,588.657690L365.335712,591.125866L368.282596,591.883712L373.871508,591.528997L379.108284,592.333636L391.911480,594.831523L399.116195,594.883469L406.843734,593.605777L408.192094,594.216877L401.117775,596.428260L388.878643,597.135021L382.758784,595.730268L373.733196,593.254388L364.276859,593.662901L360.668773,593.129764L359.203023,593.913913L358.756992,596.352047L359.363197,599.860886L361.326273,602.186000L364.160928,603.075785L366.125563,605.805185L368.908163,607.167886L370.876650,607.862411L368.724465,608.930446L366.377858,608.871394L361.774050,609.708617L361.498979,611.698061L362.536412,616.223952L364.949675,618.470266L371.027587,621.297518L374.506985,621.508237L379.796833,619.894125L391.701010,619.192586L400.000556,620.383350L402.953239,619.645180L404.179616,616.439663L405.655758,614.832509L406.384596,615.201201L406.045446,616.989422L407.365637,617.791561L411.153873,618.369324L415.267959,619.432803L421.583280,619.239584L424.359889,618.705225L424.900846,617.540986L424.168542,615.035981L425.497898,611.899660L428.419238,609.672137L428.721901,610.219362L426.059445,614.442979L427.781893,617.236487L433.295942,617.650611L431.734859,618.840985L418.069784,621.907062L418.391067,624.614385L419.340135,626.362597L418.287855,626.840286L416.616906,625.369018L416.269448,623.162969L414.302541,621.515203L410.788383,620.078667L406.196617,620.271921L401.029557,622.152643L397.598254,622.271084L389.081862,620.973621L376.054534,623.157743L370.115205,623.476563L367.482100,623.243108L364.796848,622.614231L362.461073,623.797147L363.036268,627.440081L362.758653,630.211624L364.014657,635.611058L365.946182,638.170617L369.567818,640.547939L375.099694,638.838247L378.895510,636.084430L380.527720,636.309779L377.818193,638.579573L367.593245,643.584214L366.790219,644.989306L368.259395,649.909434L371.225503,653.594874L374.934925,655.448271L379.254955,655.290434L381.578552,655.448271L382.480803,656.558537L377.189222,658.458667L373.925863,658.569223L370.826119,657.877848L369.170254,657.825210L368.362799,659.343185L369.703335,661.749762L368.902547,664.328226L367.119436,666.969533L366.857238,670.642940L367.105085,672.944343L368.117997,673.989817L369.231406,673.864841L370.509833,672.080316L371.301611,671.432831L373.718185,669.619254L377.541214,667.261339L379.155605,664.303629L382.933564,660.626366L385.734972,660.043540L387.763058,658.469196L388.408496,655.572791L390.064412,653.600133L393.643094,650.564655L394.976392,648.551966L400.200297,645.939679L412.725681,643.012144L417.924368,642.611560L416.718507,643.820409L412.278913,644.684806L410.489779,645.972937L408.951992,647.798952L405.619147,655.490362L405.501634,653.310876L406.553981,648.037102L404.939716,646.352790L400.359291,648.310289L394.805291,652.597448L393.937998,655.051933L394.174651,656.239288L393.093184,657.984882L391.142671,659.853961L385.428155,664.122673L384.030139,665.911439L385.028597,667.897745L387.005036,668.374223L390.658877,667.707870L393.223582,667.621725L397.431932,667.038089L397.583774,667.521518L391.440705,670.175044L388.022084,670.560263L385.491181,673.192492L380.100542,672.266835L378.678932,671.313196L377.089739,671.313196L375.255911,673.379051L372.533618,673.854280L370.898315,676.676637L369.458907,680.668947L368.274556,688.876307L369.520774,691.187531L374.792846,691.049783L377.678227,689.695450L380.244301,686.536093L382.816481,685.847991L384.477890,685.140575L387.988368,684.286863L392.690291,682.084432L396.502314,679.370141L399.766232,677.751052L403.210064,676.796397L403.550978,677.296601L400.568932,678.795738L397.707814,681.231217L393.690415,683.756008L391.043816,686.252019L390.738396,688.604465L391.684123,690.334610L391.208964,692.167764L389.602898,693.524491L389.659950,694.879793L393.344766,697.515393L395.705466,698.809799L401.800029,696.474080L403.004749,697.036258L398.926332,699.073315L396.887604,701.610095L395.823112,701.769346L388.838717,698.537453L381.991027,696.603128L380.461912,697.968046L379.753571,703.494868L379.745261,706.981189L381.821729,710.831265L385.355142,714.345252L393.068478,717.662683L395.352585,719.741059L404.929103,723.638949L407.826344,723.949829L411.362980,723.695794L412.559284,723.829027L413.084187,724.882569L413.543514,725.237939L411.182369,726.972456L409.843311,728.899517L410.886196,729.850839L414.908037,730.907255L415.881931,730.425264L415.915541,728.579481L416.771132,727.767024L418.868744,727.905685L419.875835,728.191905L419.435984,728.997309L419.325313,729.669454L419.752850,730.827217L422.696163,732.513588L427.991359,731.659668L435.706210,732.632791Z M854.030051,279.071316L850.369030,280.513900L848.047100,281.949412L848.183651,282.558566L852.407835,283.028945L855.322135,284.930285L859.764269,285.156202L860.464347,284.874993L865.499533,284.467453L868.639205,283.797838L868.617349,282.384958L866.963198,282.590132L863.139977,280.280509L860.895872,280.305739L854.030051,279.071316Z M4.223648,288.868530L12.336930,285.589135L20.644173,284.271604L28.183554,282.328144L28.938730,279.884738L28.530970,277.922563L20.025442,279.134362L15.390912,282.670628L4.156770,286.382509L0.681540,288.359111L1.930451,289.078973L4.223648,288.868530Z M677.774823,176.358367L678.655397,174.325165L678.201870,173.638264L676.102051,172.434033L668.563266,172.550204L667.243415,173.429969L670.543742,175.750940L675.177392,177.561597L677.774823,176.358367Z M701.750844,51.099481L698.354330,51.047197L689.671330,52.198242L674.882494,53.382668L672.179486,54.427881L675.871050,56.292395L679.964056,56.083328L679.962306,58.746937L686.239721,60.838180L688.195387,63.301565L693.248847,66.357180L697.557616,67.890971L708.068478,70.256939L707.129886,70.472197L703.983354,73.472599L702.137224,74.639211L700.759629,76.401656L700.338974,79.056885L693.400416,80.632340L695.439219,83.713485L698.319207,84.259753L716.020625,82.707267L720.471627,82.502151L724.688400,81.694901L727.554508,80.493022L728.689673,80.463171L732.727124,81.090231L734.154342,80.976450L735.332204,81.388965L734.450572,82.532061L729.719196,84.599352L731.277931,86.624916L731.114745,87.474557L730.295043,87.919667L733.553941,89.365014L739.070134,89.097002L740.977409,88.052806L742.753309,86.604899L744.905885,85.894530L751.234811,86.033136L753.851858,85.415974L758.520784,83.635062L760.574856,82.601855L762.606856,80.854150L764.366828,78.733289L765.644704,77.930424L782.046232,75.078818L773.959277,72.827753L765.949060,70.977473L758.316621,71.952192L753.780826,71.643610L745.189366,69.268514L740.137704,68.300790L740.105549,65.528270L744.559643,64.599453L746.252211,63.770766L743.709063,62.718204L738.104713,61.223889L735.099818,60.843748L729.558457,61.186285L723.432115,61.891276L720.001287,61.521990L716.496728,56.415644L711.498640,51.628021L704.972287,51.767096L701.750844,51.099481Z M817.426290,49.601106L819.847335,48.235799L814.768747,47.493086L809.453211,45.042544L806.601515,45.069851L805.798274,45.802031L807.558633,47.597187L814.221865,49.669777L817.426290,49.601106Z M473.216105,50.677176L470.992236,49.835985L469.116091,48.558044L470.604702,47.479389L469.848661,46.668985L465.887791,44.066980L461.596420,42.919749L456.825045,42.489651L457.064784,44.315186L458.945419,46.655303L462.741115,48.544329L464.046869,49.719223L470.971236,54.839704L472.784253,55.463358L476.625793,55.533911L481.574192,56.967028L485.592235,58.649729L490.667602,61.616735L493.992807,61.396608L492.333465,59.315128L489.221489,57.345447L488.085885,56.368558L486.660650,55.610005L481.864149,54.505255L477.311286,52.428374L473.752429,52.622727L473.216105,50.677176Z M862.478257,42.235247L857.429199,40.599360L850.142482,40.697085L848.090842,40.861347L847.554558,41.817779L842.195197,42.335910L837.679850,43.906098L841.189069,44.560745L850.613201,42.927918L859.175358,43.126721L868.902165,43.907462L876.811708,42.439307L875.497064,41.968693L869.092101,42.410735L862.478257,42.235247Z M587.379116,15.069643L581.030499,12.035554L577.881173,11.182863L574.865890,11.265870L571.841553,12.386340L571.349659,13.808509L572.693828,15.666586L569.860695,16.987990L568.053206,19.717111L567.775754,20.379234L567.722559,21.113265L568.802138,23.683207L569.938336,25.519570L574.281632,30.346542L580.570039,36.683566L583.355336,40.452797L582.247147,40.315760L571.654499,35.363294L569.508356,34.967290L566.892094,33.298200L561.205525,28.584653L556.242834,24.806942L551.213491,21.288664L545.946315,18.833635L540.623143,17.964552L536.378865,19.922385L532.572382,22.820548L529.736114,23.716308L529.541201,24.991327L529.641699,26.534794L530.241578,27.969958L531.119616,29.231964L530.746913,30.298393L529.193362,30.421448L526.320344,29.434963L523.495313,27.973956L520.855890,27.208051L517.100742,26.835412L516.008235,26.566711L514.469628,24.010318L511.831001,23.650108L497.601786,24.154723L507.555392,21.023606L523.396288,20.210674L526.013499,19.216056L526.269687,18.959768L526.208983,18.107563L525.841152,17.475419L520.840046,16.294217L508.337201,17.078370L500.946754,18.581447L497.690978,18.649738L490.526445,17.501635L489.291511,17.986854L490.067895,19.275214L491.153499,20.268611L489.338425,20.107980L487.018574,19.610553L478.022276,17.377115L470.357571,17.946186L468.404902,18.337239L467.253411,20.071120L466.512728,20.164591L464.157316,18.997876L460.040555,18.022277L458.693363,17.963240L457.487091,18.234859L456.215467,19.053071L456.399778,19.717111L458.048115,20.883869L459.458276,22.219235L458.091325,23.824890L457.932553,24.533778L458.344075,25.494343L460.672128,27.054977L462.027834,28.348575L463.107691,30.132571L464.369580,31.374550L467.534809,33.350592L470.159147,36.199135L473.102874,36.765912L476.913102,35.601812L478.765050,34.112742L477.635000,31.961535L479.772371,31.751073L486.285630,31.709525L488.700270,32.400092L487.458481,33.897588L485.029332,35.572161L485.405849,36.690316L486.075596,37.648015L487.531722,39.087646L489.118094,40.257425L490.063298,40.481293L493.696864,40.474508L496.408899,40.724233L497.089297,41.089474L495.513219,42.174040L494.492111,42.446110L478.199281,40.262851L476.237691,40.539646L474.342962,41.168248L480.014910,43.046376L485.724679,44.472061L483.485688,45.037083L483.485477,46.307863L484.305955,47.705413L486.507766,48.890027L488.766144,49.785157L492.821504,50.822963L495.508480,51.128377L499.918054,54.282825L505.453447,57.065428L509.096448,58.011212L510.240631,58.585856L511.341681,59.444379L516.909824,61.255923L528.072265,61.037279L533.567516,60.422029L538.044582,60.303762L540.676483,59.194234L543.183737,57.771199L546.028162,56.849239L548.980447,56.219008L546.677914,54.877027L544.001619,54.013502L544.539207,52.644784L545.380740,51.526140L544.891501,50.119031L543.814331,48.857096L546.089574,48.026068L548.461440,47.578009L549.656635,47.578009L550.814693,48.009621L552.051003,49.132929L553.363831,49.867582L556.159569,50.130026L558.637924,49.169989L560.197385,47.258908L562.068331,45.889503L563.475425,46.169752L563.920203,47.571160L563.293958,49.201559L561.762715,50.744565L561.633209,51.286633L562.384526,52.272649L564.537022,54.152986L565.886637,54.557763L571.716834,54.611656L577.411933,53.998312L581.862028,52.723368L587.633574,49.893685L589.381582,49.393756L594.892912,49.187833L593.307253,50.615294L588.497664,53.700095L590.744396,55.247584L595.227684,56.429494L597.162122,56.710686L601.138135,56.619254L605.020688,56.147012L601.578049,57.502132L596.691055,58.040352L582.797481,57.970974L576.789243,58.362337L574.831919,58.705275L572.184016,59.502756L572.415340,60.480473L573.501365,61.538709L569.508332,61.392429L565.623802,61.728214L558.311679,63.720482L542.138138,66.007041L543.799579,67.910616L537.702795,66.137277L535.141123,65.601049L532.632618,65.616446L531.485852,65.914627L530.404335,66.402007L529.725994,67.248541L531.018820,70.375114L531.991046,71.416817L533.065930,72.267922L537.186424,73.931449L540.162637,74.650516L551.680930,74.793263L557.047872,74.439968L562.469686,73.561528L567.741598,72.176293L573.042939,71.825365L578.550910,72.462486L583.769391,72.461076L594.279517,71.505556L601.078867,70.601657L602.526524,70.992959L604.094236,72.610551L605.811057,73.889085L596.548692,73.860843L587.410140,74.329766L559.189819,77.043198L555.011913,81.805914L552.726943,81.430225L550.118071,80.471700L547.600924,80.215865L540.809333,80.667883L539.891749,81.219671L539.398588,82.297076L539.910496,84.135642L541.163468,85.363131L543.646430,87.342919L546.225607,88.910721L549.139531,90.310021L552.057159,91.352032L557.930413,92.430937L567.064311,94.707014L577.734995,100.581538L588.841800,104.312355L591.682869,104.972994L594.496752,106.074333L597.280500,107.764484L600.133817,108.821572L605.748768,109.717698L610.933949,108.916256L613.515651,107.341013L612.521574,105.513375L610.894750,103.757974L610.624342,102.800715L613.863491,100.329742L615.827897,98.130916L614.185486,96.905307L613.147646,95.774655L616.905185,92.591927L618.592029,90.581195L621.556984,85.475960L625.957122,82.630344L632.410150,82.331252L634.339621,81.877082L635.556066,80.247131L636.278939,77.233049L636.471403,73.997824L636.248808,69.723932L635.743304,68.327462L635.702388,67.336883L638.560381,66.678025L641.679387,66.905067L644.111827,66.858813L647.687566,65.717228L647.636497,64.262575L646.153143,62.827032L646.374917,61.349246L647.379122,58.935829L649.056705,57.217902L653.440064,54.372618L658.106103,52.045317L658.653284,51.038942L659.049247,50.708807L660.982926,50.338943L674.461095,49.760431L681.685940,48.943541L689.839211,48.832400L692.911960,48.182333L695.780037,47.031646L694.736008,46.146508L693.663203,45.479567L688.332279,43.892466L679.810643,42.384886L674.431208,40.306263L679.682322,38.149664L675.906725,36.834766L672.395221,36.209926L665.813776,35.756824L664.911028,36.327295L665.250796,37.662884L660.581045,38.230827L656.804269,35.724471L650.902175,34.928241L642.276675,35.442791L639.709818,34.832646L637.169023,33.314320L634.638178,32.600018L632.568116,32.559759L633.353410,32.016507L635.110754,31.421437L635.219403,30.503052L635.095733,29.186565L634.434459,28.041932L633.550150,27.116203L632.561430,26.364593L628.368677,24.097752L624.149129,23.186903L622.722883,23.037426L621.462057,23.311273L613.608690,27.758081L609.755333,29.154521L610.473801,27.929976L610.559346,26.550752L609.214385,25.135954L609.960825,24.153398L612.295279,22.379089L613.933396,20.508318L610.681035,17.929132L607.077351,16.400194L604.600331,15.660052L596.505191,14.160364L590.936491,13.675641L590.151081,14.088673L589.532495,14.837298L588.507960,15.121868L587.379116,15.069643Z M924.539971,9.417909L945.747628,7.329834L947.074427,6.821246L941.508885,6.165269L935.547737,6.524032L933.969168,6.807089L902.216907,9.715356L904.576686,10.416907L924.539971,9.417909Z M626.901574,4.624833L621.821214,3.381491L616.879267,3.119352L615.208180,3.815253L614.563687,4.959514L622.626564,6.079149L626.901574,4.624833Z M646.909103,0.000000L644.474096,0.398002L646.544388,1.968705L648.729107,3.249766L649.629271,3.945833L649.683845,4.787660L649.066397,6.563909L644.986056,5.963486L639.306881,4.043148L637.853190,3.705181L636.053011,3.821654L635.799090,4.600477L636.804584,5.615357L640.849361,7.666140L644.923714,8.251612L641.086956,9.490317L636.624008,8.900982L632.485108,7.945905L628.435387,7.452221L613.765530,8.042630L610.239090,8.783446L615.133763,10.099678L619.969107,10.997436L631.148457,11.607104L628.633183,12.681393L625.990926,13.468584L618.924579,14.469388L619.835536,15.588179L620.881107,16.328232L623.347525,17.272276L630.197923,18.986049L635.061981,19.643440L645.040777,19.906593L650.179650,19.851321L655.706680,19.431683L660.320394,18.506599L667.644132,18.611652L674.833864,19.313342L673.040051,20.429284L670.523317,20.878597L669.407057,22.439870L662.769163,22.453084L658.976628,22.237728L654.824205,22.416085L653.323412,22.840381L651.952237,23.566706L657.261370,25.124011L662.536693,26.326038L668.626910,27.040337L676.647924,27.636848L677.862999,28.509952L679.160838,28.828822L702.154532,29.288050L722.669760,28.445930L719.659212,30.711788L722.233233,32.487301L725.013485,33.413736L743.893512,34.103328L748.118571,34.415415L751.975623,33.831711L754.256377,32.511453L756.678125,31.464307L764.114596,29.738239L766.100431,29.666082L772.942145,30.442851L774.931841,30.272982L783.150864,28.687380L784.660118,27.684806L787.334874,24.374707L789.061929,22.865504L793.154108,21.231951L809.912999,16.176486L812.071706,15.073560L809.488841,11.006512L806.020030,9.249856L802.324176,8.336775L793.062933,7.927851L780.167820,7.936878L778.218830,7.596543L776.207866,7.023338L771.794094,6.408277L759.293557,5.262312L756.482445,4.631242L755.413270,4.614577L752.920717,5.021087L751.401884,4.776120L747.787531,3.202455L745.491335,3.065661L745.390246,3.880539L744.630436,4.567149L742.746278,4.776120L738.590694,4.528697L735.247125,6.111282L733.746595,7.108316L726.793423,7.838882L721.596711,7.624897L722.869099,4.186590L722.887471,2.530317L723.914969,1.370716L722.365777,0.811573L716.936326,0.100426L714.601612,0.230119L712.665946,1.168135L710.253742,1.699592L707.585815,1.600144L705.602368,1.971257L705.193420,2.931456L706.260840,4.430015L707.138649,7.537264L706.526095,10.199360L704.987717,11.272356L702.761273,10.993547L695.891013,9.065055L693.324286,8.898398L691.359343,8.358713L689.998913,6.794220L687.540855,6.149844L675.752684,6.257831L673.510375,5.964771L668.762228,4.683804L663.561120,2.771732L660.852435,2.005703L655.183748,1.247120L649.475770,0.172898L646.909103,0.000000Z "/></g></svg>