<?xml version="1.0" encoding="utf-8"?><!DOCTYPE svg  PUBLIC '-//W3C//DTD SVG 1.1//EN'  'http://www.w3.org/Graphics/SVG/1.1/DTD/svg11.dtd'><svg enable_background="new 0 0 1000 548" height="548px" pretty_print="False" style="stroke-linejoin: round; stroke:#000; fill: none;" version="1.1" viewBox="0 0 1000 548" width="1000px" xmlns="http://www.w3.org/2000/svg" xmlns:xlink="http://www.w3.org/1999/xlink"><defs><style type="text/css"><![CDATA[path { fill-rule: evenodd; }]]></style></defs><metadata><views><view h="548.922046784" padding="0" w="1000"><proj flip="auto" id="robinson" lon0="83.0892679762"/><bbox h="67.48" w="123.16" x="1142.29" y="-509.53"/></view></views></metadata><g class="" fill="#000" id="country"><path d="M906.668637,546.922047L919.782294,538.398212L931.821555,540.843074L945.977333,541.640313L958.652499,537.534540L970.146636,536.498135L988.516648,543.919094L991.902751,542.198381L994.264967,537.434885L996.853673,516.155760L999.087461,497.328914L996.432456,486.102354L987.874205,469.621962L969.987628,448.181022L967.687459,441.672069L964.871461,404.276119L965.598470,382.722652L967.895017,372.517966L969.722187,357.998901L969.184977,351.274293L967.465131,345.207161L961.995043,341.496655L951.610528,339.757598L940.970144,338.748690L932.677216,339.392532L913.844427,348.187589L907.039812,349.030618L899.049268,348.127847L888.424489,347.855690L868.359364,348.114571L850.582570,345.884224L833.994977,333.604711L822.870593,328.195459L811.411497,324.020872L800.103790,320.908275L795.172484,314.305057L791.115862,311.006904L782.069894,309.905328L775.621391,312.327482L774.669038,328.865796L771.633784,332.124610L763.092141,333.604711L752.948822,329.410032L738.378530,320.908275L731.361115,311.444883L726.413768,308.365794L720.517435,312.546473L722.625018,324.644728L722.971694,332.781693L715.569317,336.087070L710.388631,333.664446L704.927593,325.308409L691.429385,305.512401L679.678440,293.920399L668.677777,286.204131L637.707410,286.396533L614.241467,284.140802L603.201401,280.969591L597.693170,273.320599L598.336865,258.103927L600.319668,246.205518L599.613441,243.440047L595.529458,242.027499L588.704928,241.072549L565.525672,248.685890L558.600921,247.790561L553.718855,245.204103L548.032777,242.989090L542.952967,239.461094L538.839353,234.295342L514.745147,221.617617L506.956016,214.696025L493.700349,205.978525L482.796822,200.052462L473.044681,183.138346L464.026718,166.863880L459.101399,158.224434L448.933117,153.626851L438.240551,150.149041L422.960035,157.210822L410.337350,162.616913L400.332882,163.160193L382.090764,146.505797L366.467063,128.490997L349.196044,112.837764L338.274427,104.966154L321.785083,104.231341L301.419427,95.374506L272.381936,75.341866L251.279524,60.395987L216.952373,43.821279L208.288278,36.870799L204.237347,30.939321L197.422145,19.282783L188.527258,8.222914L165.737769,3.397480L140.452331,0.000000L116.106534,6.755426L104.805568,39.833426L97.421239,47.068620L89.815411,47.485297L81.649402,39.066304L74.469413,30.192136L68.919717,28.089481L62.424545,29.187086L56.535599,33.544612L53.893136,36.308708L41.949719,53.238605L34.879068,58.451106L29.163970,66.045753L17.135206,89.020564L11.893058,110.467577L8.978704,130.636638L12.083584,144.922698L12.899727,161.662869L7.527815,171.203847L3.679001,174.450699L1.314239,188.864361L0.912539,205.680223L4.212016,211.129367L14.814579,218.474987L25.151845,225.635572L38.064395,233.366996L50.386514,240.754235L57.586973,241.722445L58.682769,237.524732L60.439218,233.532772L68.863488,235.648091L80.065158,242.896246L87.563821,248.646097L90.796718,250.576056L109.540102,260.239693L125.082130,268.252542L144.727919,278.382271L150.270125,284.578676L155.356133,291.173531L165.401324,299.938536L188.731996,315.453128L208.221647,326.562774L224.083707,335.622454L236.374501,341.974567L241.312048,340.972280L246.267008,337.600404L250.811964,335.629091L256.878228,337.421192L266.502695,342.266626L289.734813,357.003134L310.936507,368.521262L331.254510,366.449923L337.117863,368.302177L343.005232,378.738960L347.637889,389.302603L372.116358,396.281226L387.953940,399.428673L406.439963,405.172580L416.059066,409.429167L424.300004,404.090187L425.094452,399.388831L431.898558,396.599952L444.264800,397.821741L468.513907,406.035842L478.487925,408.499483L484.936739,400.710245L499.063602,397.097963L505.973408,393.060797L523.750332,401.699652L554.989236,412.530363L571.298199,419.264187L576.118701,425.905271L578.949899,432.187939L581.722694,447.417207L586.688245,454.311560L618.881011,469.834520L629.752286,476.417271L637.961071,478.536272L642.439814,478.801978L645.847903,480.754928L650.119551,489.609783L652.554101,491.649158L658.597588,493.854619L664.967313,495.123430L682.561339,487.477421L694.505023,481.678265L704.083191,483.152955L711.274674,489.596497L713.898723,498.983035L719.214705,508.901275L726.768741,513.744228L733.982148,514.282338L750.391107,507.592558L765.545853,512.714515L778.949538,514.581288L794.034653,517.790029L800.117321,520.254730L816.672963,528.459416L836.561976,536.750593L843.506278,535.813843L870.197245,520.374311L873.048320,522.254402L881.800648,537.003050L891.773866,542.304680L906.668637,546.922047Z "/></g></svg>