<?xml version="1.0" encoding="utf-8"?><!DOCTYPE svg  PUBLIC '-//W3C//DTD SVG 1.1//EN'  'http://www.w3.org/Graphics/SVG/1.1/DTD/svg11.dtd'><svg enable_background="new 0 0 1000 1065" height="1065px" pretty_print="False" style="stroke-linejoin: round; stroke:#000; fill: none;" version="1.1" viewBox="0 0 1000 1065" width="1000px" xmlns="http://www.w3.org/2000/svg" xmlns:xlink="http://www.w3.org/1999/xlink"><defs><style type="text/css"><![CDATA[path { fill-rule: evenodd; }]]></style></defs><metadata><views><view h="1065.40955707" padding="0" w="1000"><proj flip="auto" id="robinson" lon0="70.0977137973"/><bbox h="223.34" w="209.83" x="865.59" y="-621.64"/></view></views></metadata><g class="" fill="#000" id="country"><path d="M565.699688,1063.409557L567.579269,1059.907886L568.128047,1055.107606L572.474954,1051.656475L575.539204,1049.464877L582.111513,1047.635924L589.343159,1046.329519L596.085553,1046.380215L605.560201,1046.532305L602.914787,1022.496616L603.447661,1020.390453L604.626562,1019.173547L606.086043,1018.654798L607.427084,1019.025333L609.817189,1022.625325L612.209041,1022.426411L614.517600,1020.355350L620.466993,1021.899873L624.940734,1020.842891L629.786786,1022.254799L637.730954,1022.286001L651.983642,1021.716559L659.960075,1021.899873L665.590675,1025.726014L671.750274,1029.926476L677.939102,1030.515390L686.719706,1030.023978L692.521049,1028.413229L695.059888,1024.497446L696.865622,1020.749283L709.286640,1015.253640L722.476136,1010.791460L726.365603,1010.299988L727.951611,1012.897750L727.875940,1017.266261L730.012944,1021.424037L735.855949,1024.056720L739.844243,1024.704158L743.273251,1024.111323L745.703670,1022.789137L750.450945,1016.256053L753.140194,1014.769984L756.911650,1014.875296L760.719333,1011.754896L760.499785,1009.367748L757.668338,1008.220968L754.957068,1004.780576L755.010881,1001.979837L753.848088,998.032188L753.809822,994.287287L755.226793,991.478549L757.997492,988.775086L755.397750,983.188551L749.184427,972.486906L742.326579,958.791326L735.476202,947.373655L727.386002,937.367907L722.909351,930.027162L720.996056,913.811148L719.929135,910.521001L717.345050,908.526603L714.081216,907.402555L709.952443,909.053500L706.069437,909.369638L697.569016,909.018374L693.186106,907.355719L679.610003,891.087943L677.214833,884.694704L676.209121,878.145323L678.302211,866.728816L677.874889,856.116472L676.922882,846.214689L675.876367,843.416323L673.120493,840.091100L668.972323,837.636237L658.768790,837.046916L646.280370,833.776409L636.161321,828.016053L629.235283,824.534935L627.137839,822.271459L625.965371,819.598250L625.814575,807.633689L626.632576,794.144422L628.103119,790.016355L631.094487,785.744067L633.350192,782.833536L637.075144,778.982851L646.729500,766.124818L654.344026,748.463388L658.779238,736.139962L661.540893,732.478399L664.453832,729.343399L668.871148,725.549601L674.098210,722.083498L679.903476,722.235550L685.924355,725.378046L690.621261,729.078256L693.343287,737.231835L697.116268,742.531533L700.765526,745.725557L705.148046,747.273864L710.329880,746.887759L729.893004,737.528204L736.757008,735.640825L753.788308,734.474885L765.014776,730.864092L774.836167,727.078014L774.940803,720.293978L777.185293,709.928153L787.117076,696.434371L789.506064,690.413397L791.186897,678.918757L793.258848,668.431474L795.864599,664.072767L813.048331,652.568181L829.963766,641.992874L832.157259,637.204392L840.220075,615.277316L844.348453,600.401046L845.232817,595.617217L846.750574,582.692158L848.584948,569.845396L853.810002,566.876322L865.735901,561.980865L875.011211,557.194201L879.146690,551.732220L881.352594,546.954548L879.796407,542.216223L875.820764,536.608511L875.741162,533.276791L875.590105,529.991861L881.624727,523.286647L891.462123,503.465602L897.730582,493.564145L900.501982,493.575789L908.118389,488.308922L915.149977,482.347395L914.095265,479.638326L912.302166,476.133610L907.200785,474.557842L904.807131,470.350588L904.672689,464.326805L905.121694,448.109520L903.286766,443.455022L895.137946,428.425839L895.297253,424.274786L896.345734,420.026316L900.479076,414.363699L906.404404,409.663730L926.212565,398.482604L930.457593,397.254731L937.567448,394.425798L940.951764,388.460175L940.377354,383.372008L937.579072,380.211400L931.974477,375.973400L922.388330,372.131436L913.779420,368.798447L900.536633,369.148489L892.955619,366.281900L890.621014,364.278602L888.024507,357.205490L886.598868,345.252680L884.284668,344.197602L881.650859,345.606957L874.288759,344.189815L865.692607,344.372803L861.629322,341.043743L862.342578,337.024817L860.615503,331.668931L858.148455,326.576590L856.559287,325.512758L852.154776,324.300776L844.711689,319.900356L838.278856,314.473424L834.385879,310.796062L832.858302,308.260849L832.760108,306.583505L835.412389,301.862654L838.364050,295.239508L838.679283,289.543076L838.199215,285.414900L836.223500,282.367855L831.225057,278.636342L826.058002,275.376853L823.616146,272.542775L822.526466,268.261284L822.887486,262.902708L827.094093,258.856980L835.337759,255.017513L836.544851,250.245015L835.399994,246.708567L832.641031,245.647053L826.201491,245.623550L815.050796,244.413080L812.744953,242.465902L810.897016,239.848298L810.259729,237.253668L811.842028,234.301715L813.689210,230.564694L812.333788,226.924598L808.153310,222.808542L799.779880,219.794159L797.721601,215.542080L798.032038,211.991584L799.332626,206.927057L800.674038,203.405284L803.429094,193.384026L809.191928,191.192103L816.124485,187.948637L823.787782,184.361545L837.600137,187.050996L844.326812,188.361999L858.041812,191.428239L869.536562,193.997841L880.810050,194.725717L885.363152,194.548670L891.215821,197.581658L905.064303,202.788072L915.939617,205.523985L922.835415,205.496472L931.871508,200.892974L935.888133,196.680899L941.566051,192.057908L950.361690,192.234996L967.481499,185.109779L971.335520,186.338340L977.060745,186.743891L982.791128,182.624647L985.051595,177.731390L984.992431,175.287817L986.219585,173.482345L992.657969,170.371278L998.812627,166.067796L999.328079,160.381564L999.530256,156.535833L994.790612,149.543583L992.041737,145.488401L986.540573,137.373762L981.644310,130.152264L974.164101,119.116558L969.215922,111.822119L966.247106,110.446847L958.826018,106.328266L953.369235,102.787627L950.132769,93.522412L947.060690,94.240467L940.228669,97.576501L931.900507,99.706340L927.016603,99.738068L924.639384,98.238879L919.139869,88.471520L916.274557,85.725369L911.988493,84.641897L907.211317,82.915381L904.371353,80.363085L903.039122,77.151509L904.002094,73.455135L905.543627,70.616026L901.338779,53.242654L898.214009,47.084433L895.595139,41.918998L890.704878,35.477649L886.687246,31.491868L881.209935,27.812004L873.255891,23.981100L866.710598,22.570342L859.965770,25.360068L857.301261,24.287096L851.012203,12.448860L848.372174,10.024897L833.782930,5.161274L827.459259,4.028857L820.959861,5.558618L817.358639,6.853972L813.611322,4.684465L807.922611,1.946851L802.555955,0.075489L796.497792,0.000000L792.911436,1.180022L786.469444,4.310966L772.755634,11.375952L763.998205,17.165793L761.612601,17.380383L754.771098,14.952352L744.864800,12.059433L742.418809,12.115065L721.395161,12.611784L702.258261,13.680731L694.498983,15.059645L679.837272,16.410756L670.492878,16.851856L665.033180,19.097112L659.177128,22.041805L652.788518,23.949309L647.855974,24.573222L642.415113,27.327181L639.768170,32.791331L630.266602,40.893816L624.748776,44.807715L622.578960,49.222009L618.968918,49.651104L612.429034,48.844562L608.692910,53.628015L604.940510,60.496428L597.432287,70.425419L593.149916,74.443795L591.574908,80.922787L594.727853,84.288666L604.088248,89.340534L608.871676,94.081783L611.780723,97.854147L617.857655,107.529459L622.521061,117.032791L627.030663,121.144581L629.745514,128.117643L631.659106,132.408186L630.494335,135.447115L629.556515,138.841292L630.330562,142.052620L633.235348,145.361900L635.802864,148.294775L637.374750,150.622344L636.751013,153.237798L633.975688,157.222958L633.060645,161.289482L630.563264,168.091574L625.217047,172.721426L621.765987,176.103721L618.903997,183.219400L613.280633,191.117326L611.661409,197.723255L609.226802,201.345154L606.308538,203.299142L608.023691,206.848458L611.995093,211.284495L618.003125,216.248905L619.584145,223.981901L620.655133,229.541028L622.365632,236.269762L621.023442,241.933020L608.719188,247.374417L596.283248,249.747699L580.408587,249.896504L574.201670,249.038893L569.118895,247.848325L550.453264,241.764531L544.251918,245.337592L544.802140,254.128917L560.614366,268.374692L567.583163,276.311001L576.284240,289.597746L582.127336,296.445689L582.011151,302.842046L572.182571,310.105740L562.298893,316.941474L548.115526,318.360549L539.543698,320.800792L535.876092,324.320262L535.873754,339.260245L533.799489,344.727094L535.250824,351.227915L533.749512,358.590704L530.099663,363.352753L528.484720,371.081414L532.599140,385.739333L539.331405,410.619303L534.742213,418.472854L529.386218,426.395008L523.160274,432.048538L516.661764,434.684858L510.631465,433.714208L505.011578,428.814134L501.452030,424.705827L495.662003,421.265166L490.626622,421.968074L486.056852,425.121331L477.535284,424.072856L469.769074,420.915650L466.278016,421.265166L464.841437,424.422350L458.605687,431.205979L441.996531,441.525599L434.528317,442.274858L431.768687,444.840917L433.909562,449.068339L437.928071,452.515350L444.235438,454.956914L445.085982,457.763291L440.423121,460.224157L436.583380,463.030426L427.574530,466.453778L416.672993,467.788947L404.727601,465.793953L397.894774,461.237214L390.839641,460.810256L385.081162,464.144381L379.539338,469.640317L374.579586,481.443078L373.057864,483.515633L371.455055,485.374726L367.253397,487.920800L361.279079,492.081494L359.523389,500.779610L358.367194,516.271519L360.862732,524.614434L363.823010,539.074429L364.073052,549.230674L362.344695,555.900507L363.879604,561.161027L369.431705,567.125031L368.329657,570.988011L365.328764,575.310064L362.082766,577.708403L348.284617,582.221744L329.348902,588.399800L316.806684,592.362213L298.127729,598.250196L292.615628,599.697048L280.735671,600.229907L274.370394,599.323662L265.934557,599.086408L253.602302,599.296436L245.240580,600.902798L237.089109,603.882323L231.342160,607.593422L228.281111,611.265952L227.273084,613.043977L218.101575,610.005428L189.839328,604.594174L117.020591,611.736712L109.804631,610.378912L83.183376,602.011342L48.922937,591.238386L27.704079,584.569986L0.469744,575.869792L15.923441,591.417263L25.470136,601.031154L38.912430,614.584735L40.861556,617.837630L41.600596,623.161083L56.436677,643.803282L62.200369,654.581488L66.868208,660.906214L77.562975,670.792104L88.005915,680.457735L98.418085,684.887889L105.202285,685.862024L121.114504,690.974549L127.233957,695.035269L137.683162,705.309076L147.885997,703.901979L150.051666,703.894184L150.749485,704.638655L151.556884,707.951849L152.405121,723.919849L157.689792,740.012281L163.245096,764.256324L163.089054,768.449756L161.594456,775.463901L162.117548,779.981597L161.842959,782.743802L162.717365,783.976671L166.271273,785.634823L173.481488,786.516579L190.251224,783.793301L192.348024,784.476065L196.863818,787.355424L200.597412,791.865775L201.148566,794.015661L197.370098,797.761463L197.536009,804.117852L200.155221,813.619767L199.715639,814.778765L196.226495,816.948493L196.881282,830.697177L196.352910,831.961648L192.110109,833.354915L171.043210,832.429972L168.697964,832.808535L161.318121,836.445889L148.188150,839.052952L144.679213,840.524314L140.255768,844.661339L137.327625,849.727315L137.253792,854.383545L136.680713,855.359292L128.799385,854.403060L126.805582,858.458275L112.594439,864.519686L110.887472,865.838918L109.294052,870.686528L109.026127,884.230237L108.758270,896.419514L107.837414,898.199297L103.627780,902.363813L103.335708,903.780599L104.575078,908.487574L103.494645,917.101262L104.690511,940.958177L103.599974,947.654620L102.311668,948.934562L114.892978,952.782132L126.226766,953.332335L138.452459,951.412471L142.262630,947.311219L145.276292,945.855659L148.976367,948.052652L154.142772,953.043576L159.179603,951.634895L162.421308,948.060456L170.627706,943.467422L176.859417,942.663531L201.274658,945.871269L211.609442,943.455715L219.813284,945.637129L234.083598,946.975622L233.526539,940.048909L237.154697,935.600064L248.091975,932.985345L263.242091,936.450816L266.704911,935.760068L271.128347,931.623337L275.912040,933.941478L278.178721,937.176684L306.007650,944.911295L309.759932,947.338535L314.435648,949.114065L321.272858,939.264515L340.756271,938.964025L363.764690,933.910257L382.708491,935.432255L396.026615,930.288639L419.630170,926.713793L426.035401,926.600615L431.347936,928.114858L435.802384,928.235841L431.235985,925.059043L427.527955,923.275490L412.232653,924.403384L413.733240,919.556139L417.243450,916.679755L424.325585,915.727458L431.759327,917.842801L439.932199,925.113681L443.509024,933.574636L453.911580,945.738590L455.860845,954.928301L455.811668,969.509961L457.919861,974.937082L485.901501,980.449819L491.127047,983.313392L502.993541,1014.337031L505.079400,1022.715032L506.272280,1029.750971L510.904869,1036.396620L515.449484,1038.533781L517.492329,1040.526621L519.275187,1042.254251L521.853379,1048.501657L526.490737,1053.150023L531.822667,1050.112220L532.572131,1054.312097L534.402506,1058.808238L544.601942,1057.443419L546.714869,1051.484892L553.672984,1057.400525L557.170086,1057.603299L559.406788,1055.832920L561.804241,1058.219418L565.699688,1063.409557Z "/></g></svg>