<?xml version="1.0" encoding="utf-8"?><!DOCTYPE svg  PUBLIC '-//W3C//DTD SVG 1.1//EN'  'http://www.w3.org/Graphics/SVG/1.1/DTD/svg11.dtd'><svg enable_background="new 0 0 1000 1569" height="1569px" pretty_print="False" style="stroke-linejoin: round; stroke:#000; fill: none;" version="1.1" viewBox="0 0 1000 1569" width="1000px" xmlns="http://www.w3.org/2000/svg" xmlns:xlink="http://www.w3.org/1999/xlink"><defs><style type="text/css"><![CDATA[path { fill-rule: evenodd; }]]></style></defs><metadata><views><view h="1569.28036385" padding="0" w="1000"><proj flip="auto" id="robinson" lon0="-75.7937870351"/><bbox h="306.93" w="195.71" x="-1203.31" y="0.7"/></view></views></metadata><g class="" fill="#000" id="country"><path d="M898.711153,1567.280364L901.644397,1566.251884L908.666863,1565.549506L916.002486,1565.532783L924.933651,1561.962356L934.156262,1555.331528L939.650948,1545.690408L941.536813,1536.851938L940.781031,1529.125534L936.895914,1519.291853L935.419017,1512.326281L938.522047,1508.998179L947.444509,1507.702056L954.138279,1501.146165L959.209056,1495.393011L959.188372,1495.292665L958.825300,1491.479515L957.416915,1485.366747L953.826794,1480.566828L948.877513,1477.272102L947.019064,1473.341837L948.176831,1469.202505L956.465553,1461.032524L961.182931,1459.627652L962.075454,1455.488291L964.713644,1452.176796L972.112636,1440.151681L976.405753,1432.232468L980.988718,1427.490965L986.504602,1424.171072L988.777087,1421.419824L986.669083,1412.898466L986.552279,1407.186889L988.212439,1403.565929L993.708657,1399.744268L998.688694,1396.809029L999.681179,1395.362316L999.033622,1393.213151L993.806964,1388.856283L983.540535,1385.068064L977.000370,1385.436014L972.674663,1382.082645L970.202045,1379.197576L954.020065,1343.899397L951.127190,1335.653974L951.028077,1332.467866L958.243449,1314.998671L961.320102,1309.303850L966.746622,1301.058504L965.376639,1297.813892L953.480605,1284.133054L949.646774,1277.627494L949.187247,1271.163442L949.609504,1263.269465L955.516408,1259.038172L956.773453,1252.632713L957.571375,1246.294170L960.074540,1244.195263L962.531596,1240.632980L965.340643,1235.440084L970.002162,1230.924533L972.703306,1227.470978L972.604895,1217.862930L974.854511,1215.237238L981.475970,1212.193447L981.991632,1209.701554L979.940387,1203.246059L975.993689,1196.422651L972.983770,1193.111298L968.076172,1176.353905L963.631024,1168.008694L964.984389,1164.680650L967.323763,1160.441163L969.273556,1152.045824L969.413494,1142.279163L966.285744,1106.340090L965.947194,1099.274397L968.980200,1094.307515L973.555760,1088.579719L977.603781,1086.388944L981.322132,1082.759952L980.585759,1075.953510L982.932328,1071.931525L985.823187,1066.897778L974.520047,1047.072215L964.601305,1029.638146L955.306238,1013.274406L944.563798,994.318590L937.501961,981.843054L928.744342,966.340624L921.065441,952.744649L910.602583,934.165160L903.436572,934.365838L890.865770,932.593178L881.779508,932.292160L874.064609,936.790704L862.818684,942.376257L857.611801,943.797730L853.741751,944.006771L849.918673,943.312757L845.344276,940.419641L838.764594,933.747079L834.151443,936.314093L830.870824,939.173762L830.099774,924.666374L828.971095,902.850929L827.995007,883.610838L827.235605,868.217070L826.366316,850.257635L825.767670,837.581315L828.770122,832.764978L830.499275,827.380041L827.734693,820.180609L827.930132,813.583215L829.366735,808.992629L831.336029,804.510744L826.414077,806.751687L824.290443,807.997584L821.780216,811.400805L815.527529,815.999751L811.405506,820.590333L806.452171,824.336379L800.376466,832.614467L795.261711,837.154869L789.872415,840.039653L781.140174,849.764295L773.601641,851.695844L753.457126,853.191188L732.415906,853.149380L713.176461,853.115933L710.261919,852.990508L710.026907,844.981412L710.201531,839.320548L703.332040,833.350297L702.512061,826.000359L700.505822,820.924801L698.002199,814.712047L693.207867,810.731868L686.675960,809.193311L675.903687,805.756641L659.997676,802.186183L644.956788,801.935331L630.236318,802.278162L638.620713,789.802451L647.010022,777.335084L646.208602,766.464798L638.487090,757.016002L634.286057,751.129314L627.833609,743.018388L620.087840,737.424355L615.650844,729.974001L615.822214,725.450271L615.030678,722.465110L612.106340,720.725856L609.136899,717.991548L605.063227,715.006385L600.286522,711.034529L600.107636,707.054309L598.166260,702.823234L595.099822,697.856318L594.923802,693.876095L592.025887,687.663264L588.984647,683.189691L586.008872,680.204520L581.665529,675.981799L581.732472,672.494917L584.724915,670.755657L585.869555,666.783788L585.262021,662.803556L581.651190,660.320092L577.437392,659.074179L571.661623,651.866276L567.565092,648.136896L564.842130,645.895923L563.206753,643.412456L564.666642,641.673193L566.316613,639.181364L566.591281,635.209488L565.561839,631.480105L565.429780,628.244070L568.019132,627.249010L570.883002,627.750721L573.649383,625.760601L577.343070,625.016396L581.484942,624.514686L583.586469,622.282072L583.205550,618.301831L580.267956,610.592203L577.513550,607.364527L576.450487,602.640078L578.235032,593.534015L579.381002,587.730884L583.941537,581.568192L598.128497,568.356448L610.957059,559.384166L617.350085,558.472722L621.974063,555.144699L624.813750,550.060683L625.444810,544.500041L624.588449,539.658519L621.888437,532.492397L618.645701,523.570281L616.277984,518.603330L618.045285,512.632955L621.272324,504.471769L628.011296,492.154734L634.225490,478.909532L634.827167,475.037987L635.412862,466.952061L637.950001,450.454098L639.361625,441.523628L638.370480,438.053455L639.817662,435.059908L643.903311,432.576435L653.892850,430.302009L660.566021,425.368512L670.806708,416.096280L679.281959,406.229298L686.441756,403.051796L699.334946,393.920661L706.726770,388.125904L709.639418,386.303022L716.954683,382.113740L730.236921,380.650418L741.301188,379.145286L747.497621,376.394241L756.643622,375.257031L762.735293,372.163151L769.590994,372.079532L782.388933,368.935481L786.643883,364.211043L790.237018,358.583528L795.130448,353.767111L800.985256,352.529559L807.582564,353.365743L815.431264,353.273763L824.913409,351.776994L829.622307,355.506372L831.768252,360.071934L837.768718,364.712753L841.930458,364.453536L846.072283,363.466840L851.885125,367.447074L855.601111,366.945364L857.952625,364.712753L858.261599,359.127047L854.216934,352.797138L848.194553,346.818427L842.601691,343.222839L840.145639,338.506767L836.729692,328.882301L832.250384,325.587741L829.081747,323.029021L826.091357,323.405304L822.992964,326.047641L818.143535,327.736730L814.823502,327.485876L801.314127,320.854946L799.113411,320.219448L807.306223,305.067821L821.980740,277.983883L831.334626,260.775264L841.742928,241.660159L847.067101,231.910287L847.757458,230.246286L847.685980,227.754467L845.261558,224.033462L840.022187,222.461442L833.942442,219.610065L830.059276,214.985985L824.764772,212.995875L820.616315,209.692961L813.103135,206.473665L808.581482,203.488501L803.109197,202.418189L798.673344,196.957930L782.673212,186.388609L778.572757,185.385193L774.158818,187.007383L767.678595,188.688105L761.503352,194.482836L753.694775,196.347518L746.368783,196.280624L742.490040,192.827199L738.790923,191.581290L733.916908,186.873594L725.385748,183.269656L719.214392,180.752754L715.438469,181.915044L710.647444,187.174619L705.809930,192.392385L701.950612,195.636765L696.690281,195.469529L690.501147,200.269205L684.359585,201.966652L678.152741,202.719214L671.010805,204.399937L663.011927,201.498391L656.459644,198.939678L653.518207,197.785749L650.900575,198.588482L646.866567,201.255898L639.548303,202.393104L633.812309,202.652320L629.709698,201.414773L625.954117,196.765609L619.974215,194.390856L613.394618,191.497672L611.915286,185.518982L612.779611,181.062140L615.218350,174.615190L613.695297,167.959196L610.786786,157.431688L609.551574,153.142085L607.455825,149.496340L604.224141,148.175176L597.957766,149.170230L591.035908,145.190013L586.746891,141.393756L584.493171,136.752958L586.714801,127.998156L584.575858,120.556156L580.434561,116.417067L577.721496,109.142304L573.570241,103.355941L568.136280,100.387504L562.737033,100.713614L558.482395,98.890742L553.598130,92.769908L549.048286,90.453691L543.882123,84.500094L534.301293,81.857767L529.317838,79.533188L526.450998,75.870722L522.576863,69.281629L522.989515,65.644249L521.110469,62.065401L519.421326,55.626821L516.117016,46.144548L512.511481,40.751192L508.811067,36.678999L505.679849,33.233941L501.026076,28.108162L495.321490,25.131364L490.492667,21.995693L488.582679,17.363260L486.964556,13.558645L484.261640,13.834584L480.379439,13.500112L476.104643,12.538506L471.587066,9.770753L467.823069,6.417675L461.488406,0.748380L458.031218,0.000000L454.965839,0.000000L450.441836,5.548049L446.209292,8.600102L441.829573,8.926212L435.962407,9.879457L427.807576,6.944468L424.590778,6.944468L424.158932,9.921265L429.568257,13.558645L434.836108,17.689370L436.751199,23.977437L439.897313,31.436155L447.455682,39.797947L452.166386,43.978844L452.473760,46.955642L451.042285,52.415892L450.701176,56.973069L453.427907,77.927723L451.714224,79.207078L448.934340,79.315781L445.982701,79.207078L443.548104,76.932670L441.424330,75.569698L440.517380,78.814074L438.426690,88.145836L433.754029,109.133942L429.693730,127.538257L424.404971,134.052097L416.771877,144.395642L406.332176,158.552169L391.224792,179.072031L379.969233,188.562678L371.093906,196.046493L360.736405,204.692601L347.372826,215.847251L332.257906,222.126969L311.223217,230.839975L296.346878,237.002629L285.373875,241.308962L273.949115,245.799256L258.846774,251.727781L253.092813,257.321835L243.643962,271.010127L239.252425,277.607601L235.235091,283.285276L234.446156,285.877440L235.031895,287.533080L237.104822,290.300843L237.367686,293.127138L234.665337,294.899844L232.296227,295.184146L231.195533,293.762637L230.330574,290.643678L227.719015,287.466186L224.757209,286.546386L223.090936,287.324035L223.023273,290.225586L219.560976,304.231638L219.604121,311.038163L218.055214,313.730671L218.351371,319.818080L214.637821,325.487399L213.089184,330.537943L212.032793,334.827561L208.994488,337.804373L208.021690,342.486998L205.428400,352.395770L202.292091,360.172276L200.124312,366.828298L199.843300,371.803592L201.760868,375.323926L202.476933,378.158589L201.010864,383.250950L200.258343,387.080674L196.032660,389.672845L187.283330,395.868971L183.938652,400.100065L182.723930,404.916488L183.733074,409.022155L183.469307,412.425428L179.266217,413.696429L177.864104,416.673247L175.166080,421.907766L171.982380,423.747373L163.550246,420.971238L157.396755,420.921067L152.564455,418.370703L147.142476,410.853400L142.676677,404.531843L138.922321,396.345596L137.480715,385.090555L132.726838,381.787628L128.005540,377.874287L122.565715,378.961326L116.071339,379.713892L112.372855,377.104998L103.323683,372.347111L95.550654,366.970449L89.722009,364.277938L85.386698,365.557299L82.866166,368.810054L78.428008,374.613169L71.746658,378.626852L68.667548,378.434530L64.471807,375.750379L63.623202,372.631414L66.837858,367.681205L73.369485,356.777371L65.738349,356.493069L63.010063,353.098164L62.511544,349.126293L61.131039,344.878482L62.478538,339.786127L66.397321,337.093617L72.456893,339.217522L76.586281,339.359673L79.191174,334.543259L81.877057,332.419355L84.580029,330.864054L85.634557,328.455848L82.513217,320.746243L81.540399,316.565329L82.346094,314.157124L82.083955,309.340713L81.859031,305.803661L80.022743,302.684701L79.767925,298.010442L78.199828,295.468448L77.624466,292.775942L77.414485,289.656983L75.497753,288.101684L73.465847,286.512938L60.187639,295.777836L49.260117,307.944288L38.464603,315.896383L31.786329,328.790321L7.011112,358.984896L3.383458,366.518910L0.318821,396.253616L4.147794,404.063580L11.618867,414.231587L18.594942,426.932180L15.625400,433.270470L14.541553,438.856193L32.442818,465.254601L37.562136,478.926256L37.896543,489.537469L34.539064,496.544716L29.999643,498.267261L22.278246,494.111412L17.010918,499.496456L16.005686,505.241061L19.286678,515.032812L25.838415,521.254043L44.982764,534.340370L99.178108,565.797717L108.296120,576.015915L115.579830,587.379686L126.942533,601.494504L138.666293,621.111413L141.304887,631.672427L158.870111,667.344031L164.073420,674.852952L175.761077,685.464106L187.892620,699.419977L195.243136,716.068334L208.434175,734.255238L209.540975,744.824533L217.329788,764.575040L224.522569,780.462380L235.627665,798.782958L243.658577,822.881442L250.508384,836.435763L258.647119,860.298592L266.291218,874.989996L296.327257,924.315186L302.725805,940.185516L305.602060,954.868498L306.530000,962.937449L332.220527,983.883289L339.708144,995.096221L345.941211,1017.363247L347.124334,1029.086277L354.169604,1033.066424L356.413261,1038.710545L360.004643,1042.690699L372.964504,1053.778281L379.638270,1069.055097L389.984659,1086.255156L396.742785,1094.424579L401.767693,1108.204766L408.205000,1118.958026L425.231643,1141.325911L429.185698,1153.659667L425.525923,1178.285516L421.137988,1179.882649L417.157637,1183.444845L423.719401,1190.753215L425.643224,1206.565787L434.857412,1214.576635L438.440293,1222.595871L449.492204,1237.622604L455.948762,1249.421628L471.790910,1262.383067L487.946390,1272.166916L499.710686,1288.807610L509.506082,1296.049428L516.913568,1308.208371L524.099252,1316.069064L567.505926,1340.654746L582.211718,1352.211730L599.740361,1358.935192L625.795772,1379.515352L633.469760,1383.696611L658.807857,1392.485613L669.691278,1399.702455L693.661115,1411.033633L706.677743,1419.053246L731.831895,1427.064480L740.247364,1432.792751L748.108887,1441.456217L760.920909,1452.277144L772.219981,1457.545429L780.311926,1464.996265L787.725277,1469.085433L806.614283,1477.263740L814.412304,1483.401625L817.610206,1488.193174L821.880060,1505.193428L824.499713,1510.503352L847.070617,1527.043410L856.122433,1531.868246L866.423265,1542.186804L892.658407,1561.469018L898.711153,1567.280364Z "/></g></svg>