<?xml version="1.0" encoding="utf-8"?><!DOCTYPE svg  PUBLIC '-//W3C//DTD SVG 1.1//EN'  'http://www.w3.org/Graphics/SVG/1.1/DTD/svg11.dtd'><svg enable_background="new 0 0 1000 767" height="767px" pretty_print="False" style="stroke-linejoin: round; stroke:#000; fill: none;" version="1.1" viewBox="0 0 1000 767" width="1000px" xmlns="http://www.w3.org/2000/svg" xmlns:xlink="http://www.w3.org/1999/xlink"><defs><style type="text/css"><![CDATA[path { fill-rule: evenodd; }]]></style></defs><metadata><views><view h="767.71872035" padding="0" w="1000"><proj flip="auto" id="robinson" lon0="144.360277556"/><bbox h="172.34" w="224.77" x="2080.08" y="22.69"/></view></views></metadata><g class="" fill="#000" id="country"><path d="M803.215141,765.718720L812.931644,764.379972L817.140709,762.422781L814.007323,758.115506L803.590399,754.215678L789.747772,745.288275L783.310862,742.887262L783.267060,744.953588L784.399103,750.053921L789.650366,753.866439L786.878576,757.256962L791.687965,755.619907L792.490195,760.429211L801.311380,763.084879L803.215141,765.718720Z M853.431374,745.666616L850.845494,743.985907L842.203629,741.941409L842.720375,745.972200L836.724905,744.662556L837.010524,746.343265L838.687631,749.981163L842.363393,750.454090L849.731768,748.351385L851.934632,749.726510L853.431374,745.666616Z M639.413669,686.354344L637.785982,685.350283L633.002301,685.517627L631.680824,689.191906L632.619990,690.443343L637.805205,692.174983L639.413669,686.354344Z M655.995412,645.733468L653.889360,642.977136L654.732340,639.688449L643.450228,629.516789L640.997064,624.561920L638.549953,622.561054L638.916265,627.421338L642.788347,635.010069L644.314094,641.856654L647.755369,644.119446L647.415675,651.132134L661.029750,656.072419L664.354623,658.742646L670.638751,641.012655L668.244538,638.473380L664.038890,640.175931L658.777559,645.740743L655.995412,645.733468Z M625.157195,595.552945L623.231558,595.480186L619.082373,596.549744L618.493387,598.536065L618.331515,602.137636L622.382745,609.675462L621.318174,611.581746L616.951028,616.267417L626.076400,616.754901L632.562689,618.646630L641.203194,618.515664L643.649686,619.097735L643.053771,622.095398L646.612178,619.461529L647.120246,617.518869L646.637287,613.087854L646.854904,607.929248L641.665498,600.871629L639.004624,599.867555L633.742976,601.657426L625.157195,595.552945Z M612.024438,606.525001L614.269684,599.270931L613.904602,595.734843L612.132099,589.412079L605.239482,585.104739L600.029670,589.070111L597.598427,596.695262L607.218065,607.012486L610.910233,608.365802L612.024438,606.525001Z M765.920536,566.703932L762.306742,567.497008L757.949545,570.465587L765.645814,574.081722L769.730710,579.123936L770.204010,582.136166L772.702724,582.929240L779.421686,586.443507L783.208512,584.857358L786.056401,585.301189L785.866000,582.296236L787.686190,580.964743L788.498177,579.473180L788.691878,577.763338L786.198890,574.954833L783.257020,573.026713L779.781634,571.556976L777.605245,567.286006L769.629415,567.838977L765.920536,566.703932Z M175.405227,542.416845L166.535135,533.889429L156.984984,530.447902L151.655199,526.773543L154.298600,531.699367L158.728939,533.729358L167.151099,541.201762L176.280515,545.676470L175.405227,542.416845Z M667.635798,549.874690L670.897397,537.549234L669.769201,534.107708L670.566559,526.431573L668.717041,526.962718L665.669591,528.796259L662.447369,534.253227L667.236121,537.592890L667.312084,539.557397L666.582572,543.042577L663.696129,549.489065L668.253366,555.193403L667.635798,549.874690Z M176.192148,531.117290L176.714772,529.494751L176.441060,524.350648L173.031616,523.426601L159.568254,522.611693L162.196893,526.286053L173.308894,531.342845L176.192148,531.117290Z M483.129749,333.275534L485.722663,328.677089L487.328619,320.149593L486.124049,317.268289L473.038106,308.275129L469.623115,308.391545L468.678671,310.632559L468.060416,318.439728L473.585388,327.527478L479.524959,330.459714L480.441059,333.843064L483.129749,333.275534Z M999.347870,397.384549L998.096267,388.311355L995.669223,381.202685L992.263922,374.559679L986.942635,368.244093L981.079868,362.663385L977.446450,360.829828L973.474625,359.738425L970.239862,357.024469L964.978793,344.305983L961.959008,341.126362L956.045139,336.171391L954.293646,333.421055L953.837593,329.593868L948.566528,317.915855L942.627640,311.934966L934.408202,310.552523L931.129838,308.515237L928.326579,305.539346L925.527266,304.819020L925.781935,312.335147L922.610653,327.367405L923.036005,332.540656L924.925943,341.097258L926.200508,344.029494L931.509642,350.788918L935.855933,354.121336L939.872440,361.841195L942.002635,363.623820L951.931923,369.131768L953.462726,376.880729L951.099204,385.466432L953.932414,392.858866L958.851549,399.982086L963.958123,404.529596L969.816119,408.073015L975.996623,409.986607L982.649424,410.495928L985.718881,408.378608L988.676857,405.490030L994.587681,402.950701L995.890486,405.570066L997.186728,404.362248L999.347870,397.384549Z M429.288865,303.887690L432.531229,300.133264L432.138564,290.448886L427.480930,285.923204L419.519387,290.885447L418.697033,294.581663L420.047290,297.215581L425.578839,304.295147L429.288865,303.887690Z M920.197315,303.945898L923.815444,300.227853L926.536823,287.953213L924.417517,282.336129L924.388801,275.729509L921.338917,272.739069L919.457298,274.310687L914.775710,279.964149L916.066635,283.027351L916.601014,288.164217L916.636033,295.134640L918.847635,304.535255L920.197315,303.945898Z M356.565819,251.304886L359.191082,244.894731L358.435274,239.903397L355.849766,237.378626L353.350580,238.499129L349.278557,242.217164L347.906015,246.932011L348.954122,251.814206L352.029083,253.509515L356.565819,251.304886Z M746.094630,219.312332L742.908195,216.634767L740.114986,213.367848L732.587141,212.101825L725.309153,212.160033L722.967568,215.630681L721.667192,219.494232L721.969305,222.943053L728.055981,244.661899L728.415766,253.902419L727.331277,263.011973L720.590174,267.050155L711.898709,266.562663L707.978958,267.333919L704.312885,268.752740L691.171546,280.116945L686.193996,286.941847L682.560328,295.600306L677.490919,303.276504L673.914718,305.022748L670.089522,305.510242L666.178762,306.790821L662.700608,309.737609L655.506154,310.516143L648.823431,305.997735L641.199814,306.958169L633.942568,311.614822L626.405872,310.719871L621.829857,303.669409L620.200821,294.770840L621.399544,285.595784L623.427785,281.841360L627.792656,276.966432L624.885991,273.059213L622.798264,272.586272L619.749625,274.288859L617.050717,282.103297L612.309985,305.066405L603.297221,310.756251L593.418591,310.712595L590.215913,310.152342L579.655459,314.416089L571.946536,315.216451L564.539302,314.401537L556.822663,310.647111L548.812092,307.809464L534.502955,309.824921L530.705808,308.457029L526.895183,307.962260L523.506467,309.512052L520.160960,309.548432L511.607061,306.856305L505.507264,312.306043L504.388436,321.582969L508.105418,328.706193L515.033304,331.711190L522.460410,333.602955L528.468819,336.331463L534.020426,339.984026L552.113057,354.928974L553.865229,355.722061L563.717803,352.134982L570.928813,352.033118L577.293524,355.511056L584.141944,365.653830L587.534931,367.851188L593.898335,368.629722L600.554304,368.040364L622.894714,367.771152L638.565684,366.788889L641.605309,365.835730L649.540504,360.204090L657.477601,357.344614L661.200596,354.739798L664.677827,351.531072L672.201264,348.242311L680.362078,347.332808L683.539178,345.964916L693.094677,340.245963L700.218362,334.221417L706.689588,327.389233L709.068407,324.093196L710.980750,320.477014L711.371705,315.733049L713.782308,312.859021L725.639922,312.204179L736.734455,313.790351L743.687884,311.105500L751.181486,305.852215L756.023114,298.306984L752.226417,290.114189L747.260779,282.809070L746.950998,277.250196L749.237698,271.989639L759.365845,271.197478L762.661617,270.157009L765.533130,268.330732L772.315206,258.457195L775.953815,251.683238L776.660796,244.087095L775.175817,238.942965L774.671962,233.769732L778.116327,222.586529L771.220347,221.094950L764.662451,218.446489L759.718749,213.011324L749.420649,220.818463L746.094630,219.312332Z M861.601516,204.600280L862.096949,200.271067L860.553586,200.533003L857.159819,204.352897L860.894613,206.368345L861.601516,204.600280Z M800.427433,132.633553L798.654721,125.881450L794.056792,127.351197L792.186122,129.817751L794.669484,135.347492L798.503648,139.174654L800.427433,132.633553Z M763.493861,118.772825L761.973273,116.619138L755.645720,111.191264L754.239497,113.046636L755.239407,114.952940L760.574896,122.316224L762.613934,122.534503L763.493861,118.772825Z M754.546894,110.041660L758.174989,108.477327L757.790458,103.158593L754.228655,100.983079L753.001702,104.111745L752.978783,110.056212L754.546894,110.041660Z M235.653543,183.434436L232.038685,182.685010L228.795831,181.077018L220.700587,174.659601L215.049820,168.686020L208.861969,165.411829L196.780739,154.818004L188.315639,152.147720L172.125352,149.150017L164.640012,148.393316L157.460770,146.588874L134.436735,137.937739L112.643516,128.915531L98.181689,119.980637L95.060357,119.216660L91.754601,119.158452L88.466221,117.637774L78.891031,111.147608L46.572212,94.965853L41.300401,93.736214L34.628725,93.648903L32.663953,93.619799L32.652995,93.903562L32.456751,98.931255L32.097331,108.048045L31.468441,123.189340L30.805887,138.337917L30.111421,153.486500L29.386497,168.635089L28.632944,183.776408L27.845064,198.925010L27.043935,214.073619L26.205328,229.222235L25.350380,244.363583L24.473296,259.512216L23.575868,274.659936L22.659106,289.808597L21.716541,304.949988L20.759479,320.098661L19.781327,335.247336L18.781462,350.396013L17.759762,365.537413L17.314102,371.998520L14.729763,379.907553L9.331174,391.774739L7.835804,401.349977L11.051643,408.800617L14.349134,413.668270L13.422925,426.124801L12.279734,441.273448L11.110471,456.422083L9.914514,471.570706L8.691837,486.712037L7.434229,501.860628L6.154467,517.009200L4.845520,532.157752L3.507418,547.299006L2.138247,562.447512L0.731620,577.595992L0.652130,578.578242L10.223643,586.217954L15.764794,585.708640L21.117764,582.259856L28.584192,580.957467L35.718718,583.896937L42.309377,585.475811L49.233433,585.570398L65.827257,584.493562L82.461610,582.390823L86.511245,583.358520L93.039241,586.050608L95.464804,587.389376L101.574541,592.329719L108.700874,594.155971L123.500983,584.828254L138.645907,576.621019L148.790297,572.408259L158.453461,566.827623L160.218243,562.891344L161.261811,554.967849L160.554296,552.013817L156.620364,544.468663L151.723331,537.854824L145.085246,530.578869L142.132275,529.138230L138.850697,528.294218L125.348911,520.930945L110.849512,520.232453L103.993160,522.749936L98.865660,518.522601L97.271521,513.851430L95.277200,510.002442L87.535209,509.813267L92.204134,508.183449L96.941213,507.703235L98.585140,510.722763L99.778228,514.200676L102.551919,518.784536L107.538691,519.191990L113.724074,516.645402L119.959589,515.510351L126.401649,516.645402L132.600723,518.653568L145.049203,518.413461L157.630775,514.884617L168.805042,513.094729L179.803408,510.155237L178.284180,503.621414L176.201538,497.393178L174.804858,495.275868L177.097084,494.082607L184.474102,494.890241L191.763739,497.327694L195.307747,497.393178L198.961778,496.541888L196.332122,490.895727L199.652705,491.637877L202.987655,491.070351L192.274718,461.682629L187.085860,455.017815L191.353069,457.840903L194.702040,461.704457L197.919603,466.608478L201.771819,470.923142L206.522932,473.316943L217.313740,477.136838L222.681168,477.711641L225.934729,473.935403L229.836728,471.141422L231.581937,470.413823L234.864119,471.650741L236.716306,471.337874L238.423019,465.284247L242.557467,462.992309L248.207624,464.600304L253.661472,467.270594L259.398402,468.587549L265.425471,467.772637L266.182554,475.376049L268.248331,478.584760L271.562989,480.483793L278.520204,482.419206L285.788865,483.386912L291.773304,484.914869L303.169757,490.015333L309.355350,491.041247L320.148615,491.681533L322.885287,492.721999L325.286139,494.686513L339.330838,500.914751L342.058552,503.730553L343.690629,507.775995L345.658885,510.890110L348.117981,513.582219L351.832981,520.850910L354.093874,529.167333L363.262042,543.173544L367.000798,551.082497L372.574833,566.092754L376.350674,571.622459L386.367390,576.264499L390.077221,576.562811L393.620767,574.169033L390.743211,581.197572L389.729638,588.146071L394.696391,598.630652L397.506423,601.475529L411.702568,612.913233L418.133938,619.999944L423.005674,628.621857L425.748304,637.709415L429.380192,641.238207L432.520187,645.209608L438.595564,649.458693L446.412836,650.746515L456.639465,653.795086L459.939615,653.511329L463.304742,652.230784L470.880027,653.787811L477.917783,658.051443L480.958041,658.495268L491.588247,657.527584L495.888777,655.956006L499.654077,656.669037L507.271147,661.667525L513.586314,663.246378L540.531087,665.822016L552.674463,669.452647L559.692620,669.379889L566.289101,670.536743L571.181252,673.949097L577.879710,680.191739L579.769839,682.803753L581.561044,687.234716L589.403151,690.479722L600.727178,693.026252L607.714343,692.553325L611.525359,691.687505L621.096690,685.779556L623.354678,682.825580L620.918556,680.300876L613.786655,675.957220L609.379938,669.510853L611.999257,667.131663L624.229183,669.416268L627.969817,667.917451L639.026878,661.820317L626.893459,663.391894L618.926862,659.637572L607.620542,658.364303L602.593016,656.370728L597.818808,653.591363L590.421786,650.797446L582.721704,648.760214L579.706420,647.334151L577.011616,645.202332L574.175278,639.331932L570.893098,634.449828L571.276903,629.771445L578.316388,627.144855L582.579356,626.417268L586.468191,624.641954L588.584298,621.004016L586.344248,618.959493L579.514693,616.674866L572.465557,615.248793L554.294860,613.560787L550.709071,612.112885L541.064950,606.823313L537.822252,600.042177L539.530183,591.776750L543.532130,583.198449L543.271365,575.020316L540.330657,572.059015L536.739612,570.814831L533.822019,570.989454L513.248936,576.395465L505.867545,576.584639L499.844012,573.586959L496.916305,565.154159L493.759667,546.971588L491.566505,544.694217L481.340603,536.523325L480.778446,533.190938L480.884309,529.472924L480.164007,520.458008L477.783362,507.164813L476.504487,502.944748L464.835356,493.391389L457.583591,490.568308L451.575767,486.006266L440.865005,473.688019L435.803998,466.630306L430.167015,460.489366L423.691081,455.294303L419.610353,448.891423L415.280197,433.160701L407.202494,415.414513L406.707441,412.009339L407.275045,408.356780L418.778323,399.982086L434.199067,401.524602L457.536802,400.127607L464.273644,398.636023L466.807248,395.565544L468.016947,387.278160L467.024844,374.006701L465.862594,369.699297L463.418454,367.931224L461.426446,365.668382L456.932294,357.744795L451.777176,350.454221L448.801982,347.783921L442.794178,343.694797L439.846105,342.545186L431.389456,342.843503L423.074499,342.115901L417.516980,340.195031L377.598965,317.646642L364.939246,312.320595L351.641895,308.740794L342.135984,306.819925L335.398041,301.690332L339.600307,284.962771L340.620047,263.557673L339.541527,258.522679L313.049140,225.904382L304.749993,225.533306L296.979737,223.212264L292.071819,217.726166L287.839963,211.221430L281.950458,204.760352L275.304165,199.368845L268.135907,196.684006L263.299155,190.724973L261.966992,186.417590L259.008491,184.183863L255.704480,183.019705L252.302270,182.503111L243.925730,183.659992L235.653543,183.434436Z M813.027583,253.553171L817.225520,246.844699L819.114126,240.143505L819.490544,232.692885L824.292251,226.384597L825.849547,223.459648L825.750671,216.001756L819.330784,205.073219L779.656097,166.052115L776.542250,161.511904L767.096347,153.268221L760.064052,143.547516L758.055822,141.422931L743.490682,135.573047L736.131618,128.122450L729.527007,122.920129L722.475271,118.409027L712.133818,113.403159L706.343132,113.032084L703.198960,106.978477L691.726675,99.469677L680.905370,90.876759L681.844660,96.137284L680.541212,101.303221L675.171360,103.238629L681.733863,106.287260L689.641673,106.294536L695.976328,109.954349L717.526030,125.444892L721.244396,130.247034L728.523089,134.132404L741.967135,147.869445L747.430310,152.504243L753.354515,156.476927L756.603327,157.619255L763.969923,158.987139L767.571061,160.384127L773.007103,166.088495L777.688738,172.476807L792.298435,196.814973L796.294787,207.023184L797.516675,218.213658L796.962104,223.721584L795.604753,229.178579L795.482275,234.337260L798.745196,244.574587L801.510194,249.311263L805.101315,253.938799L807.794533,259.221176L813.027583,253.553171Z M655.055852,97.497890L655.770543,95.300547L656.408241,88.504794L656.388690,86.431143L655.166267,83.236994L642.103419,76.812317L633.845789,78.362097L624.375198,83.491653L625.871610,84.808603L629.645047,86.372936L633.196486,93.081377L637.239452,97.381474L641.913876,98.516525L655.055852,97.497890Z M487.759592,69.281693L485.152264,66.575035L483.556325,67.717361L481.993092,70.955165L478.367852,71.697313L480.522083,72.868744L485.482678,73.203438L487.759592,69.281693Z M435.325770,45.220085L421.505892,44.354245L415.049682,46.529758L408.228063,46.253271L404.154275,49.447418L404.675931,55.828437L399.707453,57.589220L399.565794,59.670145L400.420995,63.730133L402.125266,63.868376L406.365826,61.103510L410.530920,61.802003L413.824249,59.277243L425.466104,62.274940L434.517970,62.129421L439.724132,60.601469L443.905899,61.743795L450.391109,54.926218L452.765135,53.107227L455.972903,53.449197L459.465070,52.583358L459.979788,49.047240L458.722908,47.781223L458.334438,48.268713L458.528608,50.000391L457.080953,50.058599L435.325770,45.220085Z M601.964692,0.000000L599.689701,4.059984L599.443645,8.825736L607.479861,16.618287L608.795074,16.218109L613.513967,17.578714L613.733640,14.886609L611.324822,5.769834L605.374679,0.654836L601.964692,0.000000L601.964692,0.000000Z "/></g></svg>