<?xml version="1.0" encoding="utf-8"?><!DOCTYPE svg  PUBLIC '-//W3C//DTD SVG 1.1//EN'  'http://www.w3.org/Graphics/SVG/1.1/DTD/svg11.dtd'><svg enable_background="new 0 0 1000 713" height="713px" pretty_print="False" style="stroke-linejoin: round; stroke:#000; fill: none;" version="1.1" viewBox="0 0 1000 713" width="1000px" xmlns="http://www.w3.org/2000/svg" xmlns:xlink="http://www.w3.org/1999/xlink"><defs><style type="text/css"><![CDATA[path { fill-rule: evenodd; }]]></style></defs><metadata><views><view h="713.702521203" padding="0" w="1000"><proj flip="auto" id="robinson" lon0="19.1569802968"/><bbox h="93.61" w="131.35" x="177.18" y="-912.81"/></view></views></metadata><g class="" fill="#000" id="country"><path d="M898.092526,711.702521L900.767457,709.443339L901.616755,706.479925L900.846083,704.178616L891.465482,697.342508L885.579203,692.996384L884.927016,690.319836L886.124787,684.324309L886.327871,677.589987L884.207855,670.305472L876.410582,654.178921L874.464304,647.313191L878.996888,638.977626L894.600431,619.132537L899.683790,611.684773L906.768253,602.679675L926.307488,581.171212L938.757159,568.673181L947.372038,561.763511L959.719365,549.754429L965.003938,543.544721L989.893326,539.506465L992.257374,533.709720L996.036464,527.366614L999.298445,524.650492L998.303018,513.976358L991.801976,500.944097L987.381346,496.343353L984.141125,493.210649L985.551108,490.282832L988.244862,489.447252L991.651141,489.032480L995.506706,485.900935L994.065417,482.481444L982.225346,474.154535L976.713368,467.746510L967.200985,451.312451L950.179377,434.250396L944.791799,428.736050L943.408820,423.528770L944.822159,418.322825L941.888240,411.693016L935.528172,403.239691L927.464158,390.865338L926.402882,379.676193L929.033941,373.291947L932.504357,367.549003L929.529110,358.928604L932.124800,347.529821L931.087987,339.293601L928.738338,335.725575L924.754331,331.633233L914.795468,327.076516L910.176585,323.516519L896.882308,318.764826L883.534197,312.846076L880.923163,309.222922L881.165525,306.738319L882.830804,302.967281L890.800217,291.932031L899.604056,281.223796L905.572696,276.915815L938.590311,263.194306L943.305037,258.396501L943.469192,250.283660L942.684626,244.383682L940.475566,233.906667L936.141403,218.995607L931.950447,208.720413L922.414546,189.434569L898.366799,149.628512L881.364358,108.403249L880.351360,106.088526L880.009898,100.403071L878.529072,91.573560L874.733158,83.785555L865.794817,76.896482L856.766185,72.084750L845.428601,67.120720L837.272414,64.945597L832.902100,64.373849L831.509056,61.515315L829.592143,59.046052L825.605265,56.871660L817.347219,53.955102L810.617729,53.318808L805.871955,58.026597L802.740399,58.833908L749.310141,57.655361L698.524331,55.651965L651.612422,53.801918L606.408795,52.010925L563.045317,50.308427L536.017051,48.712075L509.356593,47.133499L505.408009,45.672818L501.603252,48.635500L487.878389,54.491251L447.704543,58.975337L434.181336,56.482765L417.524746,49.083173L408.542228,39.195056L390.959465,11.254392L397.162551,11.642566L414.932749,20.825249L426.838690,24.673467L422.283795,18.501312L399.923021,8.278595L378.989207,0.000000L356.631945,0.282179L334.048951,2.586764L280.505435,13.083568L257.517047,22.443310L246.782537,29.128504L216.604715,34.261337L200.712975,48.364544L193.796238,57.443229L189.152916,60.890609L184.674983,66.041976L171.395447,68.942317L158.041152,70.439785L101.522476,84.216189L48.671547,98.909612L18.279442,110.228026L5.405791,109.354005L1.609935,107.127761L0.701555,110.913092L2.693334,116.754689L15.848263,118.207932L35.943581,122.509117L37.343505,130.942459L36.643251,136.534861L38.840961,140.342725L40.381001,144.766314L30.901771,140.827623L8.528997,133.833077L9.461670,136.558510L11.670334,146.534805L14.208835,154.811260L28.222711,187.911617L28.737464,196.013486L28.800370,198.165389L25.771160,209.515207L19.421500,219.090550L10.387820,224.491110L5.677182,230.504492L5.276627,237.149019L18.266979,248.792176L44.677792,265.459808L56.051886,279.724236L52.338089,291.598620L51.655652,300.310678L54.003720,305.862521L58.405006,310.319338L64.880613,313.692362L67.792316,318.884053L67.164909,325.895747L68.770386,330.762371L73.692458,334.228139L73.389017,335.576423L71.573965,340.457219L69.292875,349.362522L68.123092,355.864831L61.836169,364.728909L64.639683,372.263957L70.955319,381.152980L75.549967,385.619857L77.249195,389.854417L75.446250,399.929957L77.001077,402.509468L95.172958,409.932616L98.335814,413.363740L100.662798,420.503289L108.146827,435.773099L104.724938,455.134657L101.144156,465.753056L92.569005,482.619655L92.227259,484.176092L100.597348,483.881621L108.791717,480.780933L109.042574,475.776386L107.701282,466.407511L108.484928,465.062598L121.545700,467.704477L134.787370,471.926206L137.397019,481.219567L141.253051,485.804772L145.682315,489.988271L149.760240,491.893980L156.525178,492.194581L174.512788,497.732484L183.035558,498.863105L192.001922,502.682436L199.622207,506.598772L205.006466,507.417030L207.857436,511.707425L211.374661,514.644450L216.927186,512.387476L237.632892,509.222131L245.588255,513.440698L251.117649,517.906989L251.953605,519.327748L249.649548,523.271497L248.649593,526.324686L246.649933,528.348365L239.630041,530.504778L235.879938,533.998914L233.271008,537.819084L235.594938,541.477270L241.748018,544.219855L245.983703,544.834730L247.819968,547.511470L262.295528,559.470894L274.388468,575.102310L278.763584,577.547755L282.718406,578.127462L287.015579,575.826854L291.748636,570.761657L297.571922,567.091884L302.617628,565.208984L311.413756,560.888665L311.507497,558.071325L302.834625,547.511470L297.574858,538.958050L298.493123,537.409314L308.433376,538.759178L325.567266,543.424164L352.724476,558.680608L357.316745,558.680608L366.207428,557.534448L375.725714,555.043295L380.082826,552.208717L381.930782,553.264096L384.260246,561.648874L382.162148,566.246970L370.895643,570.707329L371.790735,572.928842L375.075056,575.784588L380.539291,577.716835L387.476575,583.158366L392.498026,589.368799L396.648404,592.252408L401.041079,593.618213L411.364376,590.300563L414.118432,587.677041L415.268852,585.822322L417.380713,586.233123L421.418136,589.284207L422.724486,591.080068L433.440405,594.548950L439.838573,598.816405L443.851810,600.823518L447.875096,598.870812L464.628523,602.268524L469.438630,605.122568L471.365968,609.858030L470.847447,612.731292L474.131445,620.179430L496.754994,638.044909L499.882824,647.173836L500.542823,650.815497L511.093604,652.366856L513.599438,658.573284L515.355203,665.035927L533.076895,664.569058L541.524894,650.736720L546.464315,649.070339L554.183048,644.259701L559.163545,640.031521L563.177370,642.678586L569.520100,651.560864L575.998628,658.718766L579.594871,661.543710L580.183203,663.744478L583.648774,665.060180L590.203826,665.860548L594.738858,668.025306L596.734421,674.684433L597.473518,680.720330L595.908525,685.040306L595.259263,688.869384L599.900432,690.368387L606.301263,688.917933L610.705769,686.757562L625.146803,691.740014L628.860781,680.623260L633.751238,674.951318L640.617427,672.312910L646.719817,668.850024L652.384489,666.400205L656.493512,666.545732L658.144125,665.520995L663.263266,665.787787L669.281924,666.903490L677.140709,665.599820L688.523894,668.304252L696.020544,673.428894L702.985626,675.163615L710.691232,674.866400L715.664764,672.039987L722.235891,662.301529L727.821099,662.453095L736.365027,660.913223L748.688378,660.998095L777.306609,663.083621L784.855461,666.812534L802.894918,671.591185L811.160857,677.104695L815.325778,683.687207L817.628736,688.232180L836.388809,695.230066L864.057277,704.172545L870.640631,705.241205L874.636524,704.682582L887.127893,709.315809L898.092526,711.702521Z "/></g></svg>