<?xml version="1.0" encoding="utf-8"?><!DOCTYPE svg  PUBLIC '-//W3C//DTD SVG 1.1//EN'  'http://www.w3.org/Graphics/SVG/1.1/DTD/svg11.dtd'><svg enable_background="new 0 0 1000 464" height="464px" pretty_print="False" style="stroke-linejoin: round; stroke:#000; fill: none;" version="1.1" viewBox="0 0 1000 464" width="1000px" xmlns="http://www.w3.org/2000/svg" xmlns:xlink="http://www.w3.org/1999/xlink"><defs><style type="text/css"><![CDATA[path { fill-rule: evenodd; }]]></style></defs><metadata><views><view h="464.801493642" padding="0" w="1000"><proj flip="auto" id="robinson" lon0="-8.30206028217"/><bbox h="159.65" w="344.22" x="-428.35" y="-706.95"/></view></views></metadata><g class="" fill="#000" id="country"><path d="M555.002543,462.801494L558.103233,459.820488L561.165963,457.476464L557.909505,456.722687L551.745176,453.427368L546.564858,454.667360L541.134542,452.106633L538.928098,455.079873L539.434724,457.047432L541.557354,459.230372L547.651610,462.097768L555.002543,462.801494Z M238.066435,251.092200L237.562430,249.098835L236.119934,247.918346L232.860153,248.189275L231.362703,249.280266L232.670669,251.914731L235.567043,251.641359L237.816482,252.004242L238.066435,251.092200Z M217.173608,207.492803L212.116582,204.024391L209.550817,204.868457L209.370224,205.936919L209.717187,208.226210L213.387870,211.348636L224.986064,213.699544L232.594054,212.726773L235.145246,211.276235L235.835190,207.642375L232.499214,207.111648L219.679605,207.832962L217.173608,207.492803Z M120.466693,177.325299L110.841688,172.373467L106.531353,172.390270L104.808555,174.085236L105.212627,176.840017L107.981403,179.492730L112.872343,179.283643L116.761812,180.672885L118.516218,179.713842L123.544799,179.290852L120.466693,177.325299Z M101.156941,173.768292L102.710599,172.503092L102.169189,170.753406L101.076030,169.390522L99.521835,168.191081L93.555296,170.158302L97.055469,173.897949L101.156941,173.768292Z M135.710019,172.263048L128.796041,168.296621L115.509769,163.015011L119.949463,167.361225L123.545622,169.071445L133.757180,172.855975L135.710019,172.263048Z M164.185708,167.946428L165.691975,166.205398L166.013744,163.146806L162.877819,160.760650L157.663113,160.130761L153.954921,160.803763L152.444408,161.939212L153.047528,165.275165L155.210041,167.083036L163.337910,168.409360L164.185708,167.946428Z M6.945484,130.591912L7.327838,127.061669L5.152211,125.047264L2.585104,126.218238L1.078047,131.217481L1.973270,132.100114L4.897141,132.930593L6.945484,130.591912Z M922.444391,14.982522L922.171932,14.179612L920.571274,11.397931L921.074284,9.922255L924.499185,5.623973L924.172433,4.596486L922.882743,3.207551L921.760060,1.204101L921.451235,0.174962L919.385055,0.000000L917.134380,1.052139L908.616028,3.209854L906.566964,3.992967L902.831275,6.080172L899.015515,9.262923L894.848063,14.410322L894.351705,17.599660L895.854622,20.409669L899.409472,20.730703L897.148285,22.927634L897.178338,27.280235L899.308300,40.337360L901.576830,46.523154L902.034669,49.768025L902.098779,52.471264L901.169369,57.855121L900.454073,65.681024L898.418917,70.538957L896.727050,72.705040L892.143241,89.335412L891.447824,93.168558L892.794093,94.499837L893.262472,96.241228L886.155932,110.501160L879.939218,123.990625L875.637192,129.662076L872.866374,131.362590L870.581460,133.937403L871.178995,136.571096L871.287812,138.334222L868.595918,144.978994L867.641274,152.399174L865.723487,157.667066L865.427348,160.322354L865.528444,163.654847L868.031934,164.800522L870.144192,165.272767L874.330033,164.541644L879.021764,163.070124L880.963780,158.562376L886.716545,149.676679L890.254129,147.235257L893.291527,146.638247L887.330317,150.556111L884.684469,155.211809L885.445383,160.118787L883.580342,162.868842L880.633685,165.332700L877.251938,165.769031L874.307547,167.294074L875.975878,173.081640L875.423343,177.551137L876.465416,178.038880L880.112191,177.200371L887.432574,174.402198L889.548624,174.507855L892.063365,174.104445L894.591330,175.862366L897.115037,178.721305L888.666364,177.620812L891.221960,184.854476L891.378880,190.567249L887.946980,201.675904L890.056358,205.963451L891.064781,212.835390L889.771307,219.777093L889.689971,227.774003L884.775591,240.882290L881.692646,247.509538L884.173238,248.315064L887.755156,245.359145L892.140185,245.412359L897.887435,243.097648L902.401767,244.152184L916.312767,245.291419L924.119339,248.839995L928.356894,248.825481L942.241052,240.771044L945.763265,240.219657L943.647789,227.911754L942.620875,223.183043L942.405756,220.120061L944.983624,213.059870L947.663881,210.187866L951.290700,204.255898L955.691520,199.323249L960.235070,198.154405L962.238069,197.429084L964.005577,193.618048L965.030500,190.367439L964.350849,190.044866L959.079757,190.706879L950.011807,177.092263L950.360681,174.925703L951.639991,171.710985L952.533938,167.656217L952.816499,164.455355L955.347299,161.709227L959.183664,158.940658L962.453551,155.015634L964.141980,151.184724L964.567964,147.700981L962.846833,145.224857L957.740576,143.850115L952.728697,133.944544L951.732202,127.757942L950.670143,127.116320L947.484570,124.301648L944.508063,119.027461L944.078271,118.209646L947.340782,117.283026L960.677056,117.233266L963.495405,116.074771L963.930920,115.667379L966.478364,111.574911L969.213325,104.861621L969.927810,100.768698L969.172790,99.078953L964.886234,94.942153L964.732980,93.723582L965.498954,91.776721L968.179257,89.694796L971.786996,87.332515L973.771235,85.295649L973.358298,83.703165L972.373157,82.036440L972.256429,80.487660L972.958140,78.574325L973.380332,72.062323L973.882152,70.389458L973.365431,64.489099L972.648894,59.676188L970.050949,53.440952L970.602182,52.064388L971.924987,50.904429L976.201622,48.748077L979.721680,43.670501L984.730012,39.433169L991.225631,36.031271L995.801852,32.254472L997.650774,29.368822L998.921953,28.605453L998.599303,27.259423L997.813093,25.301129L995.319203,23.389771L992.069458,22.292259L988.421209,22.338466L986.176226,21.954963L985.561684,20.462788L985.932797,16.420188L985.858828,12.424192L985.215757,10.583960L983.576272,9.200682L980.221953,9.569527L977.370923,8.440007L975.189694,8.172639L973.895760,9.064676L967.443671,8.811113L964.775670,8.170334L962.922107,7.370602L961.700893,7.817702L960.992664,8.594440L960.835859,9.813898L960.340954,11.425603L957.983649,12.883182L952.642502,14.334187L948.375011,14.225753L944.491980,13.187657L943.261277,12.431111L941.389345,11.746149L933.392927,12.592561L932.456736,11.974461L929.654886,13.473692L925.534658,15.254798L923.255181,15.360943L922.444391,14.982522Z "/></g></svg>