<?xml version="1.0" encoding="utf-8"?><!DOCTYPE svg  PUBLIC '-//W3C//DTD SVG 1.1//EN'  'http://www.w3.org/Graphics/SVG/1.1/DTD/svg11.dtd'><svg enable_background="new 0 0 1000 847" height="847px" pretty_print="False" style="stroke-linejoin: round; stroke:#000; fill: none;" version="1.1" viewBox="0 0 1000 847" width="1000px" xmlns="http://www.w3.org/2000/svg" xmlns:xlink="http://www.w3.org/1999/xlink"><defs><style type="text/css"><![CDATA[path { fill-rule: evenodd; }]]></style></defs><metadata><views><view h="847.933152753" padding="0" w="1000"><proj flip="auto" id="robinson" lon0="44.6572761408"/><bbox h="264.0" w="311.72" x="494.98" y="-538.54"/></view></views></metadata><g class="" fill="#000" id="country"><path d="M382.540021,827.456600L380.516333,825.667200L381.167205,824.069335L380.680285,822.586917L380.002430,815.592019L378.389714,812.517003L375.699590,812.039484L377.019215,815.033164L375.930653,817.929770L374.058468,819.690301L372.222699,820.403960L373.624377,824.064088L378.396548,829.141051L381.625502,830.796642L386.615346,829.828475L388.131824,831.308275L388.493018,832.677878L389.471122,833.947779L390.954284,835.243918L391.315925,833.863819L391.125330,827.831797L385.658823,822.733847L384.224501,825.197548L384.592835,826.042396L386.182139,827.755708L382.540021,827.456600Z M117.256305,361.740416L119.584538,360.041170L118.140807,359.455490L109.461295,352.290589L101.898198,349.004830L100.199160,347.631153L99.082853,345.298771L97.903425,347.644285L99.272076,349.987149L108.382473,353.619585L110.441251,355.418705L112.536900,358.100276L116.035167,361.740416L117.256305,361.740416Z M101.842533,344.003870L101.759653,342.816653L100.794366,339.559662L100.685101,336.326281L99.190270,338.687624L99.380214,342.848172L101.463937,344.734058L101.842533,344.003870Z M421.637054,845.933153L429.986120,838.555111L432.074768,836.335404L433.235479,834.388571L435.059341,830.222039L437.804962,828.865557L438.547450,824.481264L438.332313,822.287810L436.400953,820.409207L434.737133,815.292913L434.808359,808.820171L435.104978,806.104620L435.748658,801.158921L438.703211,799.319704L439.342965,797.858302L436.786619,794.728233L436.889783,792.865414L441.782252,787.631172L443.744459,786.059593L447.010609,784.435544L449.644882,784.453910L452.745711,785.377440L455.550582,786.844071L458.341549,789.507100L461.314806,792.534829L465.660106,793.684004L468.550440,793.390151L471.000694,794.728233L472.954352,793.996224L475.131214,792.429882L478.777389,792.534829L481.946939,790.761219L491.199078,789.911147L500.212250,790.449001L509.498358,788.979741L518.855313,789.092559L528.299364,789.208001L530.407106,789.425766L532.518204,790.349301L540.767098,794.993226L546.858896,795.945627L559.071706,797.215496L572.100347,798.571949L583.394110,799.747368L592.836675,798.653283L600.671679,797.745483L602.817745,797.905529L605.386261,800.778484L610.599982,807.930729L615.516780,814.676336L623.405575,815.041035L628.288573,812.501261L633.602154,808.930368L636.802758,806.164965L639.998014,795.190003L642.065605,788.085068L647.343881,780.106510L651.767261,773.429345L657.610505,764.577271L660.840048,759.681654L667.214493,750.011208L673.671273,746.243814L686.122149,738.971447L698.328485,731.835593L706.277813,727.184220L713.154105,725.059242L724.832679,723.233341L738.553387,721.084769L752.267728,718.938829L766.877730,716.653859L783.176337,714.101316L794.341032,712.351534L808.579203,710.121686L820.421686,708.266985L830.946673,706.619535L841.776805,704.922247L848.164838,702.396003L855.963799,699.316260L863.760973,696.236540L871.551810,693.156842L879.345435,690.077166L887.132739,686.997514L894.922643,683.915262L902.711005,680.835658L910.493075,677.756078L918.277973,674.676523L926.056389,671.594370L933.837859,668.514866L941.617628,665.435388L949.391152,662.355937L957.167549,659.276513L964.937722,656.197116L972.710573,653.115123L977.509230,651.210860L978.983779,644.050817L980.210155,638.104782L981.426233,632.158829L982.650090,626.212947L983.867954,620.267125L985.079703,614.321351L986.294309,608.375615L987.511644,602.429905L988.717949,596.484211L989.926514,590.535898L991.133108,584.590201L992.337385,578.644485L993.539220,572.698740L994.738487,566.752955L995.935060,560.807119L997.128811,554.861220L998.319612,548.915247L999.409635,543.464916L996.015134,538.219093L991.455925,531.173824L986.680539,523.805754L982.185689,516.870297L978.916025,511.820721L974.968923,505.740097L972.269712,510.047442L971.578914,510.178602L967.853392,509.659207L966.596470,509.486075L963.036074,508.987664L957.512334,508.216437L950.341843,507.214362L941.859779,506.028655L932.392220,504.706531L922.269477,503.292584L911.821999,501.834031L901.370617,500.372844L891.250331,498.958867L881.781992,497.636698L873.309008,496.450935L866.143467,495.451426L860.619160,494.677524L857.066248,494.179077L855.810410,494.005932L851.863414,493.452392L849.503050,490.542998L846.650593,487.024904L843.797331,483.504117L840.938941,479.983257L838.084687,476.464945L835.229794,472.946557L832.369488,469.425465L829.513258,465.906915L826.651574,462.385657L823.793928,458.866937L820.935312,455.345504L818.071416,451.823980L815.211500,448.304987L812.346268,444.785898L809.484508,441.264087L806.621913,437.742175L803.754184,434.222786L801.840928,431.865970L800.654299,429.207277L799.839252,422.241365L799.699042,420.721615L798.144527,420.713741L795.353028,419.537822L791.528869,418.965608L787.474702,417.808045L789.570570,410.468644L791.537845,407.562665L791.006935,405.420535L787.676484,405.767059L784.200594,403.462126L780.146960,404.564720L776.344413,405.751308L773.077719,405.719806L770.411377,405.252523L768.562567,404.113183L764.778777,399.568820L761.853815,393.674745L757.803971,389.366193L754.608168,384.288092L748.939989,377.681201L745.506334,365.847933L742.419140,359.494886L733.639840,351.893990L731.384310,348.841986L728.390015,341.689843L725.157110,336.804330L722.257906,330.631700L719.151056,322.583590L720.110422,321.945310L722.072353,322.168577L723.981370,323.137817L724.913368,323.145697L726.430644,311.958794L724.549923,306.771256L720.841524,304.026496L716.596121,300.212778L715.386183,295.805556L714.833182,292.055041L715.552572,290.941460L718.457007,292.167975L720.765587,293.076706L721.443670,292.908617L712.942807,283.966023L699.799000,277.138044L690.419407,266.602839L684.161733,265.032642L677.703763,258.066896L672.050586,251.230432L674.581456,248.269222L670.694787,246.360783L667.330580,245.266146L658.559511,240.940289L652.964731,235.819487L653.175192,233.617500L654.131210,231.714780L652.451010,226.597457L650.443015,223.201933L642.607034,213.879896L636.472005,201.929101L634.752742,196.888549L631.585565,191.838153L623.649814,191.966634L613.639695,192.129202L605.522747,192.239329L596.352436,192.362566L591.717902,187.270826L589.693099,181.710574L587.553462,176.004430L582.550407,167.862336L568.857551,165.897219L561.578304,164.851826L549.629385,163.298211L540.655973,162.137635L532.866618,163.885065L514.077678,162.158593L493.257731,160.243606L472.540763,158.336597L457.129173,156.914277L455.902102,156.445424L439.389091,143.954181L426.327007,134.085600L410.026457,121.766866L393.376478,109.193230L376.489020,96.439646L364.219346,87.181407L349.245226,75.273605L335.617781,64.433407L324.858428,55.876680L311.482785,48.388197L301.035224,42.537172L285.826295,34.015908L273.668524,27.202198L263.262020,21.364791L247.251049,12.376908L241.995019,9.935441L226.175118,6.934291L211.219404,4.390371L195.726893,1.754674L185.419096,0.000000L179.445407,6.267614L177.950713,6.939520L169.532196,9.532866L152.299278,14.833858L140.744929,18.383034L125.963205,22.922212L113.674341,26.692698L101.497720,30.426284L90.222224,33.882673L97.664222,41.176238L109.041478,52.321831L116.629549,59.760621L125.670096,69.325727L133.740164,77.867617L142.299664,86.925352L137.291871,89.995493L129.030244,95.051940L128.223536,95.971845L127.579370,96.917908L124.868447,105.948750L122.728774,113.063089L121.840236,113.954380L109.807915,116.566979L97.657645,119.203403L89.992256,120.867008L87.831805,122.708613L83.584922,131.578462L79.187331,140.744535L71.076805,148.237777L62.064342,156.542337L59.692144,157.081913L52.490671,155.806329L40.184897,153.627223L28.294353,151.524224L20.154050,150.083902L10.270432,148.337281L6.354463,182.302997L6.460175,193.749674L3.144479,206.812892L0.590365,213.032531L1.366380,217.537127L5.519736,213.982211L10.451284,215.168027L22.040176,216.327638L26.956442,219.129712L39.461525,235.310319L48.017811,251.508708L57.114930,260.847345L62.001434,270.974859L71.101646,281.163876L74.428120,287.359149L82.317446,296.559346L96.731633,322.911924L104.207247,326.463180L106.017555,333.778435L109.397671,341.931490L114.125474,345.096525L117.121288,347.857035L129.019312,366.685704L132.771212,374.238500L134.226036,378.392835L135.712642,384.490276L133.919680,389.153517L132.292266,392.020662L140.333791,403.000083L145.184511,411.429410L150.977162,420.427637L155.426923,421.175705L158.916987,421.354191L164.209792,426.026214L168.784845,426.139075L171.693157,429.409372L177.522870,432.986644L186.855593,440.888806L195.681392,451.590433L199.843773,459.864048L208.314174,473.426699L211.062302,479.403436L213.410873,487.232161L215.407800,490.430189L220.669479,496.191221L217.969299,496.180727L220.822626,500.330871L224.125060,502.196047L224.084675,506.015538L227.258408,511.752518L229.498345,522.465368L228.621410,527.790149L227.250754,532.640072L227.213871,541.767901L226.160429,549.917176L228.449639,555.598232L231.657082,561.614938L234.729341,569.401943L235.173767,574.033717L232.907558,580.608908L242.467670,598.676799L253.232959,611.404868L259.630335,623.186262L265.374221,630.026487L272.940273,635.256380L282.186366,636.709430L301.775486,651.344630L308.559971,660.535558L315.456982,664.129110L316.415220,666.201321L317.321910,669.989038L320.240600,674.883750L323.504058,678.383009L334.286722,700.299992L335.900931,705.302628L338.461516,711.635358L340.203536,717.328068L340.889010,721.992467L351.066685,734.133747L355.243640,744.682819L363.070499,758.031424L367.762215,764.582519L382.593442,776.210397L394.651295,788.803955L397.016191,798.385666L399.820516,805.595619L404.343347,809.497092L407.864329,814.343121L408.560112,819.244265L413.198329,822.849292L415.805355,826.310019L417.354624,830.804514L417.812975,835.291146L420.949758,841.645910L421.637054,845.933153Z "/></g></svg>