<?xml version="1.0" encoding="utf-8"?><!DOCTYPE svg  PUBLIC '-//W3C//DTD SVG 1.1//EN'  'http://www.w3.org/Graphics/SVG/1.1/DTD/svg11.dtd'><svg enable_background="new 0 0 1000 887" height="887px" pretty_print="False" style="stroke-linejoin: round; stroke:#000; fill: none;" version="1.1" viewBox="0 0 1000 887" width="1000px" xmlns="http://www.w3.org/2000/svg" xmlns:xlink="http://www.w3.org/1999/xlink"><defs><style type="text/css"><![CDATA[path { fill-rule: evenodd; }]]></style></defs><metadata><views><view h="887.645499504" padding="0" w="1000"><proj flip="auto" id="robinson" lon0="29.0859521855"/><bbox h="146.43" w="165.15" x="356.41" y="-204.96"/></view></views></metadata><g class="" fill="#000" id="country"><path d="M605.714918,885.645500L608.306651,880.227749L613.690163,871.105721L624.210734,861.884647L633.478444,855.738914L639.710869,855.704248L651.890747,860.606969L662.926601,866.401092L668.944389,866.693274L676.234363,864.271628L691.258572,854.010581L694.932540,857.274109L699.444297,863.499078L704.350687,873.794788L713.932145,878.499417L718.549071,881.743134L721.829386,882.703869L723.638559,881.861988L727.167817,873.770027L731.489136,869.357580L739.503259,863.791260L757.267874,859.354051L769.980216,858.011994L775.353779,857.046306L784.361774,854.431522L798.511166,846.146419L812.678513,856.843264L827.940033,858.908349L842.712763,858.834066L847.166871,855.585395L849.724135,853.089464L865.004708,835.489189L885.684185,811.658979L903.383381,791.488469L921.295394,771.045574L944.160084,745.199758L965.144446,721.459882L983.273674,700.942650L999.436077,682.644026L997.982209,680.742355L989.999362,673.625947L982.469960,664.300826L977.831963,653.980299L973.371494,645.521824L970.858810,626.579396L965.197968,614.941564L959.613459,600.708745L951.199888,573.555462L947.586936,564.180822L941.051252,557.906302L934.156262,552.057677L926.932026,540.033580L908.412413,529.440691L901.210146,521.150606L888.782626,506.833624L885.603505,499.608281L884.596724,492.407700L880.674426,485.652824L873.786491,478.051115L852.361786,461.674022L846.505260,459.703027L838.908144,457.944979L827.798181,456.325594L812.870632,452.581695L799.776999,446.183393L793.784507,441.637232L792.319825,438.497510L793.439154,433.223372L797.964604,424.200390L806.471166,402.841395L812.337216,388.103558L816.428736,383.958543L827.863967,382.893815L840.010403,383.334563L848.918299,384.433957L861.442466,384.582524L876.439581,383.324658L882.264640,378.397194L886.884335,373.004222L888.748398,369.255390L889.187757,359.707511L889.003744,352.051384L887.410889,322.699641L886.426476,304.723158L885.287015,284.186424L885.277366,280.076111L885.155388,280.076111L868.573439,280.006780L868.300206,279.873071L868.023254,279.580892L867.767903,279.095578L867.456083,278.431986L866.734813,275.549816L866.297871,271.068093L866.671126,263.317935L868.314086,254.101941L873.730714,241.156976L874.000614,240.087309L874.055458,239.483145L874.038179,238.779938L873.450090,236.472231L872.738941,234.476510L872.333297,231.455693L873.159104,224.737270L873.202830,222.652419L872.996286,219.968359L872.509528,218.269775L868.229600,207.063093L866.860899,205.285278L827.330830,169.600266L820.018624,159.928780L819.243950,159.265196L818.281688,158.750176L798.467529,150.628706L797.488657,149.811607L797.579061,148.618148L798.147513,147.073088L800.381795,142.383436L800.679462,141.140455L800.959664,139.243796L790.050552,64.055843L790.034158,62.575159L790.406012,61.594639L790.719091,60.990480L791.838298,59.390945L792.807851,57.731984L793.889268,54.834993L794.153329,53.745525L794.978334,40.315359L794.534663,28.549096L799.108222,8.933673L799.409900,0.589306L756.902879,0.000000L756.655169,0.430837L756.635952,0.945861L756.766564,1.530214L756.846365,2.159137L756.851285,3.476408L756.585443,5.907912L756.537024,7.190518L756.619817,8.502837L757.403475,13.202420L758.630047,16.738249L758.847610,17.916858L758.937983,19.204414L758.871237,21.645818L699.735005,21.942947L724.002314,51.427931L724.297566,52.027138L724.751736,53.631627L724.950181,54.805280L725.685774,65.179974L724.880696,81.596245L725.448186,92.149203L727.000125,99.002928L733.705355,112.487532L733.363826,115.008157L731.960740,118.187413L691.017688,158.274773L689.898882,160.166481L684.464711,176.879882L679.148407,186.605851L676.743397,189.388945L667.319483,203.037010L629.963171,245.821916L623.747176,248.694173L604.670884,249.867836L594.573405,250.179823L593.430687,250.501714L591.730915,251.239587L590.701179,252.343921L589.473675,253.170933L588.235668,252.725238L586.781565,251.561478L562.638557,227.597962L519.906472,197.332157L515.946188,200.085540L492.439135,213.099745L487.602121,216.477102L484.937446,218.864032L485.114622,233.436556L481.127771,240.849942L473.782304,248.931877L453.306202,254.057372L442.691528,258.459852L431.875463,265.001675L430.122965,266.640845L430.122562,266.621037L425.998021,271.157232L417.896701,280.323720L417.140967,287.449915L418.617184,293.813477L347.622143,293.555963L342.827957,288.465113L332.539397,266.066393L332.091214,265.868306L324.887632,267.259867L260.108491,264.630262L250.901300,266.982546L232.579441,276.253026L223.285439,277.783250L213.632197,273.554087L178.732881,228.920188L171.271665,223.593325L168.542930,220.721084L163.359600,212.946228L156.007129,208.291222L153.477172,204.903964L152.609657,200.149918L152.635346,190.364514L150.102616,184.238736L144.711644,182.817477L99.188574,193.162465L92.619028,192.003668L83.050821,193.840907L79.785749,195.668242L76.031140,201.551371L75.361572,207.627636L75.598216,213.778187L74.526567,219.859412L71.166884,226.592674L58.402771,241.731427L55.628389,248.317808L56.540284,264.986818L55.832620,273.400569L53.913383,277.297936L48.342428,283.711014L46.348830,287.400393L45.478067,292.590286L45.348170,303.564344L44.422864,308.719580L37.514654,321.639869L35.906441,326.195897L35.646843,335.520901L34.541538,338.353565L13.973143,345.722455L6.314526,350.432010L1.684364,357.687006L0.563923,360.796999L4.819923,362.040006L7.217705,366.615857L3.790420,381.536905L6.467152,390.866901L13.996101,398.750852L21.553776,402.093608L28.776711,404.020027L53.912210,408.878168L64.406661,414.355341L78.411012,431.871410L95.897092,447.787920L100.215551,456.241405L99.549366,463.907486L94.560625,473.212765L95.400077,477.055713L103.461863,486.370901L112.686933,495.913897L129.448605,506.531536L158.484929,523.141415L171.824862,534.269147L176.443398,542.697898L183.934275,551.864539L194.347248,560.253675L201.338679,566.716382L196.822430,584.970437L198.332417,590.962681L200.966814,596.167515L207.066453,603.343351L209.594939,612.589237L215.714210,624.128023L222.879795,629.372475L234.771891,631.328622L241.109470,636.677072L254.263376,645.863531L266.982336,653.782208L272.465519,659.249513L275.862230,664.097783L278.806613,669.812701L280.283285,675.522665L280.739933,687.868667L283.091093,703.195931L289.986313,713.674923L296.421493,721.499500L299.720100,728.596093L304.435708,735.859801L320.070405,748.190920L325.077814,755.054746L328.940109,762.671314L331.393401,768.609066L336.236120,773.368181L342.981664,776.394007L348.755397,780.028960L352.319898,785.372439L357.642902,790.909055L367.882350,798.471141L372.822133,798.644469L378.540936,799.709203L383.588116,801.675246L388.983001,801.115642L397.632243,796.178249L407.806897,787.898087L415.578212,782.777459L434.597829,784.594936L445.211798,788.764731L453.695531,794.623243L460.263215,794.246872L474.451708,783.446013L481.899915,771.941932L489.245594,769.485615L500.473577,774.467581L509.822019,785.213967L518.090549,800.813555L523.867163,806.761205L531.796387,815.977339L547.554625,835.825941L567.875557,845.770048L575.770970,850.657913L578.386599,855.575490L579.944059,862.092641L580.545575,869.209013L583.024463,872.106074L588.468834,871.100769L593.135034,870.090512L598.288422,872.106074L601.902057,877.286118L603.728434,881.322194L605.714918,885.645500Z "/></g></svg>