<?xml version="1.0" encoding="utf-8"?><!DOCTYPE svg  PUBLIC '-//W3C//DTD SVG 1.1//EN'  'http://www.w3.org/Graphics/SVG/1.1/DTD/svg11.dtd'><svg enable_background="new 0 0 1000 1169" height="1169px" pretty_print="False" style="stroke-linejoin: round; stroke:#000; fill: none;" version="1.1" viewBox="0 0 1000 1169" width="1000px" xmlns="http://www.w3.org/2000/svg" xmlns:xlink="http://www.w3.org/1999/xlink"><defs><style type="text/css"><![CDATA[path { fill-rule: evenodd; }]]></style></defs><metadata><views><view h="1169.46486852" padding="0" w="1000"><proj flip="auto" id="robinson" lon0="-11.8596024609"/><bbox h="51.81" w="44.34" x="-196.14" y="-167.63"/></view></views></metadata><g class="" fill="#000" id="country"><path d="M250.668345,967.299070L259.395447,929.977878L255.572134,912.101346L245.092379,902.674198L221.529014,891.402209L141.896154,897.139669L109.401430,916.473624L223.775106,952.872389L245.756955,977.150539L250.668345,967.299070Z M588.441025,1167.464869L606.181238,1150.584514L632.437001,1096.382909L669.034395,1044.266005L703.030190,1013.364843L730.090093,981.559718L758.582230,957.207772L799.415996,928.797178L862.028661,853.915015L876.672916,845.244259L886.935081,793.459575L902.894165,727.451223L921.021969,706.991969L963.414830,694.779144L973.378835,683.322704L988.694659,636.888173L998.652633,582.760723L999.572088,571.027581L974.034879,567.116534L962.566140,572.614138L928.348611,617.517403L907.851723,635.061786L892.463291,633.622814L876.312497,629.545728L864.873026,632.792638L856.541842,627.663996L859.926997,616.724124L868.268102,602.980105L884.848294,554.092013L926.861809,504.853449L927.791106,494.559293L910.951482,465.761496L893.310247,426.540436L893.552519,384.515274L890.372165,354.149445L853.566128,345.644802L846.898396,340.516190L845.997739,330.277416L855.738355,303.029375L867.087610,277.847553L868.804244,267.184485L866.275765,257.775899L843.848181,230.915319L808.921101,181.381950L776.676536,126.535581L749.008856,79.419056L726.515156,57.945453L705.108299,26.897304L697.029244,7.102510L674.507177,0.000000L608.628005,0.405858L529.511264,0.885508L462.723102,1.328261L458.614839,27.875053L385.504230,45.769705L340.700618,25.218528L290.676050,37.172891L266.137436,50.769140L258.273206,79.086989L246.864657,110.153634L236.122756,122.938193L231.422778,136.884990L225.143925,149.577318L215.213090,164.206707L204.064870,193.576192L179.955086,235.361334L154.708829,262.314158L112.136385,277.017383L98.506869,320.997953L88.592420,337.379989L72.101798,350.201519L54.545774,358.540128L38.469601,353.503756L19.928956,350.017037L0.427912,357.912888L7.220174,381.268380L46.134850,415.157849L77.416401,421.411815L73.489025,430.783541L28.261261,435.783025L21.615757,464.931322L20.645000,491.404633L35.761139,536.363173L55.821271,531.880231L67.044159,517.914854L111.862980,521.918139L128.407320,506.384659L131.622107,516.383644L125.205564,534.610582L97.997597,555.420293L67.495030,593.848175L43.284708,587.225221L28.326905,571.359651L9.076098,570.105164L5.063374,591.966444L28.389771,627.442616L45.581364,673.249895L88.179931,678.415438L109.262960,699.428134L119.575511,733.483845L133.710448,808.495024L143.612148,822.829437L166.477153,833.252790L194.330465,861.681799L236.682378,867.456154L256.713969,847.513414L266.755274,847.550311L256.477386,880.628328L282.026376,926.232845L265.798593,964.974566L263.994371,986.208726L310.150617,1003.015263L448.707700,1062.806706L513.645670,1098.688968L575.218898,1152.189531L588.441025,1167.464869Z "/></g></svg>