<?xml version="1.0" encoding="utf-8"?><!DOCTYPE svg  PUBLIC '-//W3C//DTD SVG 1.1//EN'  'http://www.w3.org/Graphics/SVG/1.1/DTD/svg11.dtd'><svg enable_background="new 0 0 1000 605" height="605px" pretty_print="False" style="stroke-linejoin: round; stroke:#000; fill: none;" version="1.1" viewBox="0 0 1000 605" width="1000px" xmlns="http://www.w3.org/2000/svg" xmlns:xlink="http://www.w3.org/1999/xlink"><defs><style type="text/css"><![CDATA[path { fill-rule: evenodd; }]]></style></defs><metadata><views><view h="605.335697751" padding="0" w="1000"><proj flip="auto" id="robinson" lon0="-88.9124649917"/><bbox h="21.25" w="35.16" x="-1323.44" y="-241.99"/></view></views></metadata><g class="" fill="#000" id="country"><path d="M776.714759,603.335698L842.536749,601.080494L881.680469,595.407609L905.567645,574.576019L932.101781,545.653551L929.050430,497.736088L939.713464,491.365684L974.183882,466.511785L977.804134,451.399482L968.453370,440.495367L958.511746,433.171703L964.292525,405.109256L973.900010,371.955055L999.172645,294.463244L993.727449,280.955033L966.409457,257.658571L929.210389,255.287073L887.222456,262.587566L868.463026,250.683576L853.603313,224.039064L825.407946,211.298042L771.161175,232.571823L712.935219,264.610313L694.884321,276.235293L681.043839,274.677546L677.083276,250.730076L677.025510,222.318562L674.282554,215.297050L645.818898,205.206527L612.143067,197.882756L595.400630,190.000980L580.694069,170.866148L542.042246,145.872252L534.543031,127.341866L483.769384,84.933462L474.758597,63.868712L463.675325,48.546759L439.226725,28.993225L418.076360,33.713046L350.879320,9.393161L340.542607,7.184374L332.497077,1.650779L317.831316,0.000000L282.808284,8.253892L266.099012,10.090673L251.344583,19.530327L247.887131,40.013889L253.676172,73.261827L255.235667,90.397271L244.818397,98.302353L200.713858,118.274291L182.142931,137.990447L163.171123,168.610886L143.422529,181.421696L124.377907,179.050186L110.272986,183.560705L78.837923,206.531780L30.509715,250.962575L3.700799,283.954275L0.827355,308.599192L3.155330,330.733085L52.756156,356.145174L116.551814,414.734657L231.484665,439.007384L332.574154,453.794202L495.373421,546.560285L639.270724,593.849891L651.573989,587.549266L612.866539,564.787954L582.463705,558.022329L570.996038,547.397270L610.242586,547.606516L680.130358,579.760669L776.714759,603.335698Z "/></g></svg>