<?xml version="1.0" encoding="utf-8"?><!DOCTYPE svg  PUBLIC '-//W3C//DTD SVG 1.1//EN'  'http://www.w3.org/Graphics/SVG/1.1/DTD/svg11.dtd'><svg enable_background="new 0 0 1000 630" height="630px" pretty_print="False" style="stroke-linejoin: round; stroke:#000; fill: none;" version="1.1" viewBox="0 0 1000 630" width="1000px" xmlns="http://www.w3.org/2000/svg" xmlns:xlink="http://www.w3.org/1999/xlink"><defs><style type="text/css"><![CDATA[path { fill-rule: evenodd; }]]></style></defs><metadata><views><view h="630.758446222" padding="0" w="1000"><proj flip="auto" id="robinson" lon0="46.0840558111"/><bbox h="58.73" w="93.27" x="628.62" y="-192.83"/></view></views></metadata><g class="" fill="#000" id="country"><path d="M855.643795,628.758446L877.963103,588.351525L899.865674,548.645865L923.207528,506.240638L951.304180,455.079248L977.694397,406.950666L999.206045,367.630991L998.519136,347.462818L997.032104,303.752042L995.974995,273.977594L992.959674,191.450462L991.048810,141.017520L989.156932,92.889783L987.168231,43.324621L981.605420,43.964454L945.048302,31.798856L929.006260,32.184509L908.151696,37.636240L843.078056,64.702064L794.904938,69.610373L756.826869,58.338791L745.976808,58.479028L718.919053,71.784053L679.652559,103.109585L616.446027,135.311608L599.995694,137.432700L567.136495,129.009686L530.870347,126.748357L497.814122,119.175535L478.970903,124.916506L423.466604,152.587115L362.534878,190.828157L274.777950,191.993883L257.604458,184.517461L238.013774,170.353461L188.372606,128.439972L151.831643,83.353639L119.860435,27.530378L88.070271,0.000000L75.302639,24.068265L58.956787,54.832855L40.347576,89.839619L37.974465,96.851490L31.507318,107.088821L23.482886,117.361213L16.483471,127.966670L1.158638,157.679490L0.793955,161.518493L3.006170,167.338353L12.285908,180.950166L22.236022,202.871072L28.053149,223.021494L32.343329,232.768029L43.890663,243.943244L60.760152,266.959827L69.803515,282.462035L87.852851,290.762418L94.278239,310.474747L108.533621,339.390296L123.636087,362.512252L138.103718,380.603144L153.872038,387.562532L160.120403,388.158551L193.685157,421.658314L219.232133,447.138156L225.521210,451.231412L270.772352,467.919983L322.792995,487.124128L364.554147,502.541798L417.793395,522.175459L470.254599,541.528653L519.421619,560.040419L588.540895,586.055081L644.246460,607.021093L688.144123,623.543233L697.566388,628.758446L749.327476,628.758446L801.814116,628.758446L855.643795,628.758446Z "/></g></svg>