<?xml version="1.0" encoding="utf-8"?><!DOCTYPE svg  PUBLIC '-//W3C//DTD SVG 1.1//EN'  'http://www.w3.org/Graphics/SVG/1.1/DTD/svg11.dtd'><svg enable_background="new 0 0 1000 1074" height="1074px" pretty_print="False" style="stroke-linejoin: round; stroke:#000; fill: none;" version="1.1" viewBox="0 0 1000 1074" width="1000px" xmlns="http://www.w3.org/2000/svg" xmlns:xlink="http://www.w3.org/1999/xlink"><defs><style type="text/css"><![CDATA[path { fill-rule: evenodd; }]]></style></defs><metadata><views><view h="1074.2111799" padding="0" w="1000"><proj flip="auto" id="robinson" lon0="21.0046836805"/><bbox h="63.8" w="59.45" x="248.83" y="-772.45"/></view></views></metadata><g class="" fill="#000" id="country"><path d="M719.348278,1072.211180L746.074255,1065.222902L762.185635,1055.555734L770.737025,1054.115828L781.931801,1050.382939L798.627719,1050.929523L815.942150,1055.142423L836.815502,1049.583072L856.969186,1040.532151L865.654655,1042.798058L875.586961,1050.476258L881.847476,1052.595974L899.105808,1048.529934L903.599853,1040.265581L918.893787,1017.931907L919.754059,1006.955078L917.246537,1000.761590L904.315111,990.014485L893.750083,966.622548L897.562126,944.716117L896.904417,933.459477L889.769435,922.324264L894.528411,908.477289L906.365868,900.896349L914.115223,898.675391L947.396637,897.185919L965.586734,869.462099L977.481499,860.608030L988.956438,844.895747L994.435119,839.153689L998.895011,826.912760L999.534108,814.407069L971.183682,796.892690L960.771478,783.724704L947.442166,769.188924L930.448711,759.144499L896.521054,741.886204L882.147518,724.375939L874.076763,701.684484L863.722503,684.479598L853.184669,673.279507L850.425270,664.165065L845.334584,652.964281L842.021783,630.973052L846.407438,601.735843L850.178600,591.421690L860.691568,588.537301L887.804802,572.944458L886.958172,552.988240L890.789611,540.595013L899.180527,533.480118L907.080419,528.692200L902.914017,525.832621L900.741206,515.430899L891.923369,507.262868L876.460457,501.302583L863.817335,490.498338L854.014697,474.834559L854.148802,460.072354L864.191636,446.238779L878.320757,440.233029L896.569544,442.097407L903.649472,438.168825L899.561473,428.459410L880.570903,416.057128L846.628132,400.973345L814.676780,409.195346L784.616719,440.685812L761.028905,445.799355L743.960309,424.543204L716.301670,411.926842L678.093130,407.956133L653.967311,399.827224L643.945515,387.551427L626.435696,378.085903L588.965919,368.098400L587.485775,358.495563L593.159707,356.241269L605.972606,355.334183L623.115121,353.306514L625.313585,347.876706L624.988263,342.913246L610.658536,336.588009L596.370079,332.290582L588.730155,327.992715L583.616570,323.253869L582.182223,318.277775L585.880473,314.886434L591.389889,314.659444L596.615732,311.721820L598.479200,300.182961L604.930925,290.685066L609.908854,287.291494L608.823916,280.276371L602.606653,273.714536L594.440432,268.060680L583.004696,264.625243L547.376824,254.705104L528.435085,240.890839L517.705415,240.395962L499.975072,232.731392L480.479595,220.730421L462.933146,203.680410L444.726449,192.622848L439.854184,188.083990L439.025653,183.785759L441.667866,179.018451L441.028455,173.808727L434.829397,157.077862L436.018940,139.363463L433.543498,122.756115L432.605055,115.261794L429.075878,112.982471L426.381996,115.489721L422.476313,118.667205L418.415200,119.257098L404.626301,107.136274L386.226748,82.390926L374.621605,74.140280L352.483524,62.802290L333.914242,53.260756L319.153193,32.589524L304.356771,16.665838L296.866661,11.871937L285.634308,7.507472L234.733751,2.122044L215.293682,6.406243L188.563526,4.754371L163.503386,0.000000L145.552156,3.854555L131.118095,22.506722L123.691687,28.803606L117.777752,32.831171L104.458833,38.684155L93.566651,45.731244L78.585251,50.804697L64.743929,50.093363L50.909014,42.080271L46.403493,43.905781L42.982286,51.287864L36.491219,57.595548L17.722140,65.378670L12.730546,65.284742L12.394210,71.913092L11.801210,83.477516L0.465892,91.659869L14.530184,110.515339L29.083729,141.065472L23.952358,156.153425L33.011347,167.901957L56.338497,176.339995L58.694076,179.701435L52.136304,183.209956L47.352680,193.185156L48.392797,211.363023L69.665705,228.517351L111.216368,244.662426L124.262302,247.377242L129.743644,253.581932L136.828046,257.633244L141.236439,262.593264L142.062546,269.009723L139.606652,273.407134L120.797564,274.970849L99.150677,274.837201L83.034062,267.044781L82.194291,272.725498L82.563349,279.234027L68.044429,283.202818L80.486266,327.899279L78.393136,340.751561L73.279544,345.061480L67.990833,343.273516L61.687913,342.766468L58.938682,346.969449L62.414854,356.481376L70.166092,355.894444L89.417152,348.170226L112.541666,344.167507L129.911172,348.757261L138.360545,353.279834L140.768833,359.389246L137.780882,380.659110L130.422418,403.558686L117.284392,427.353843L103.323848,449.780688L100.190262,461.656560L100.808455,480.530894L100.200368,495.408348L103.160374,503.497832L109.134208,511.054324L127.544525,517.040460L152.988868,531.950673L175.282233,551.379339L203.600612,573.436336L212.589857,581.611835L213.402120,590.424789L206.348325,596.951026L184.114742,599.423203L160.547063,597.495972L151.373081,595.249717L143.273800,597.947877L138.566765,602.958603L141.856695,608.872890L168.345524,635.690401L199.830497,674.116535L202.935871,690.630897L200.745178,703.610876L195.126717,712.618383L183.363795,711.117135L173.877544,704.075867L160.518740,704.527572L150.292177,706.546957L138.037537,720.443467L137.728762,723.778097L139.728747,733.582740L145.617714,743.121767L164.418041,752.913372L192.425927,772.271403L226.579502,807.802433L241.743439,818.367318L254.734887,820.945519L280.962059,835.697942L298.638648,839.299895L318.431589,843.353872L371.872538,874.155319L395.443444,883.156806L412.698506,894.752280L415.488587,905.670933L415.387339,912.440929L442.732657,904.274439L446.235700,898.515804L438.620111,886.122026L441.641391,878.370094L473.110805,856.274314L477.663388,846.264840L478.941808,838.396075L473.611973,830.089185L466.032042,817.011785L468.531528,811.510034L485.248852,803.962025L498.537590,795.191835L506.856564,794.514155L512.719481,800.812684L513.365968,807.337328L519.104561,818.367318L530.131049,824.294587L548.451981,833.996683L569.269524,840.615762L586.393391,853.868241L610.342070,877.505852L614.779024,889.207017L635.264424,899.699419L654.494699,911.456651L653.889310,933.286516L717.282627,952.341308L731.137384,952.208226L738.056182,955.522047L738.388310,960.513049L735.083749,975.794542L714.567587,1022.768281L713.470093,1032.535649L696.398093,1042.758071L694.486218,1048.649910L700.917319,1061.649152L706.561290,1070.744087L719.348278,1072.211180Z "/></g></svg>