<?xml version="1.0" encoding="utf-8"?><!DOCTYPE svg  PUBLIC '-//W3C//DTD SVG 1.1//EN'  'http://www.w3.org/Graphics/SVG/1.1/DTD/svg11.dtd'><svg enable_background="new 0 0 1000 573" height="573px" pretty_print="False" style="stroke-linejoin: round; stroke:#000; fill: none;" version="1.1" viewBox="0 0 1000 573" width="1000px" xmlns="http://www.w3.org/2000/svg" xmlns:xlink="http://www.w3.org/1999/xlink"><defs><style type="text/css"><![CDATA[path { fill-rule: evenodd; }]]></style></defs><metadata><views><view h="573.363912506" padding="0" w="1000"><proj flip="auto" id="robinson" lon0="14.6108239973"/><bbox h="23.48" w="41.02" x="176.24" y="-783.82"/></view></views></metadata><g class="" fill="#000" id="country"><path d="M183.962995,571.363913L201.727802,562.854256L211.942801,549.826148L211.441581,541.585449L218.510961,539.180931L249.256468,551.726225L273.434792,548.817923L312.620742,548.236249L340.761774,550.291477L358.576135,540.635285L381.117041,505.102220L388.972405,485.214414L399.851647,480.460004L407.405873,482.827541L413.983595,499.184910L428.256694,514.530182L457.134042,539.549370L477.159993,551.571119L494.870832,555.894589L511.187654,545.831947L528.560916,542.962194L580.205475,562.466549L622.895939,566.188456L653.501949,556.010913L648.329372,542.012049L635.743101,526.420177L632.155005,511.271263L633.279235,498.176013L653.795069,485.117388L652.326586,479.392649L624.615893,456.412008L625.490890,450.491126L680.473914,424.647934L734.243216,410.159942L742.171020,398.971885L745.989438,382.148353L745.970340,350.610643L740.967251,324.817126L716.847645,300.630978L714.525480,288.380251L718.808363,275.661367L726.567331,264.185895L748.073399,259.206345L773.108493,250.939037L792.653877,241.426045L819.521889,233.546608L840.247004,222.495075L859.250223,196.204831L871.700098,191.864769L910.762985,195.601513L918.531701,189.120530L910.170246,151.357284L916.335852,141.759138L929.592716,136.385460L935.572521,131.108944L969.973506,135.178303L999.126430,144.952100L995.025017,136.112877L964.337845,102.153048L951.411626,89.611018L951.101143,72.802468L944.762085,63.238604L934.067064,56.518277L926.655725,32.225719L921.994085,14.087173L913.086254,2.396636L852.035825,0.000000L834.785073,7.365191L816.891508,24.705526L821.086314,62.810069L818.738291,66.257801L814.676167,74.068522L752.632823,60.647898L750.526617,60.862168L710.102905,65.770837L683.542752,83.242270L650.391398,93.214027L578.892457,87.897128L510.214171,94.674684L494.192659,99.757672L476.446037,102.678858L460.356131,112.824702L451.786572,127.136832L435.895420,145.263605L412.423331,159.494767L386.571745,170.395923L380.890368,179.622301L372.512911,184.897015L357.188227,177.987292L345.172596,178.357117L330.103358,173.646638L280.857425,168.546680L226.537674,160.098246L200.396545,152.019202L170.877494,145.633516L139.320048,140.435206L111.258418,139.208612L97.029866,136.833274L92.082779,159.708905L78.836771,165.432109L56.092445,178.765870L30.165450,197.061149L6.220855,217.649987L0.873570,239.928019L8.698605,254.537820L15.891065,259.575928L24.832248,255.101944L38.482293,257.864163L55.990209,265.839213L84.671913,273.619208L85.972628,281.301421L80.743481,291.122201L59.919565,308.641803L41.456107,328.374577L40.283389,340.445647L43.251877,349.250189L50.504534,354.555855L79.700673,352.165426L84.480991,359.375403L73.630626,410.121097L78.635314,418.783110L104.922823,426.881124L124.460004,439.094680L161.848176,471.241473L177.636045,497.302918L168.579328,506.033428L146.740453,510.359518L128.513244,508.128605L103.321011,528.650556L84.704522,536.213958L97.782158,552.152766L183.962995,571.363913Z "/></g></svg>