<?xml version="1.0" encoding="utf-8"?><!DOCTYPE svg  PUBLIC '-//W3C//DTD SVG 1.1//EN'  'http://www.w3.org/Graphics/SVG/1.1/DTD/svg11.dtd'><svg enable_background="new 0 0 1000 1513" height="1513px" pretty_print="False" style="stroke-linejoin: round; stroke:#000; fill: none;" version="1.1" viewBox="0 0 1000 1513" width="1000px" xmlns="http://www.w3.org/2000/svg" xmlns:xlink="http://www.w3.org/1999/xlink"><defs><style type="text/css"><![CDATA[path { fill-rule: evenodd; }]]></style></defs><metadata><views><view h="1513.21569878" padding="0" w="1000"><proj flip="auto" id="robinson" lon0="14.9180348457"/><bbox h="206.27" w="136.4" x="133.12" y="-1127.11"/></view></views></metadata><g class="" fill="#000" id="country"><path d="M506.485312,1402.203578L522.124930,1343.006095L527.036350,1338.951983L529.173553,1322.345882L541.317653,1296.799513L541.449215,1294.365847L540.066836,1288.498318L545.514502,1283.991192L542.822501,1282.565458L536.978367,1281.100694L534.733831,1284.226029L532.522919,1291.966045L528.251255,1300.626852L526.080932,1310.248832L516.370472,1331.894263L508.017707,1334.780960L492.517798,1370.155086L491.982829,1379.972938L494.821360,1399.858567L498.398130,1407.591893L502.524117,1408.002541L506.485312,1402.203578Z M711.708873,1224.981747L700.131519,1217.670061L694.962717,1215.903874L689.937265,1217.647774L687.764168,1225.299470L679.943926,1221.810396L664.126236,1225.594900L653.512616,1234.013855L644.195686,1245.633751L637.897788,1250.690051L632.620480,1256.892274L633.485921,1269.185433L637.108415,1281.788337L633.904364,1289.482642L639.997645,1296.374299L645.175669,1305.361692L652.637878,1311.105465L646.667091,1319.483372L642.584484,1329.770141L651.566878,1328.503621L659.034119,1323.147009L661.639941,1310.595960L668.567830,1301.953164L673.511261,1298.069615L687.191251,1292.821885L689.817021,1283.566257L692.990500,1279.267100L697.832941,1276.360537L703.360147,1275.002428L691.717333,1265.302826L690.429133,1239.797804L695.765406,1237.114768L701.515117,1235.753872L704.755214,1227.702071L711.708873,1224.981747Z M717.451294,1215.090481L732.300702,1210.494930L727.634128,1208.824104L714.658259,1208.389714L707.282082,1216.410869L712.157375,1221.665497L716.813109,1222.206089L717.451294,1215.090481Z M635.710395,1089.287003L640.645071,1080.737445L638.795275,1080.367025L633.185634,1082.490137L631.708643,1084.762828L630.007490,1090.022711L631.974301,1090.365684L635.710395,1089.287003Z M644.725022,1039.373382L646.869370,1036.908406L652.830424,1033.247476L652.720473,1032.117386L645.770790,1030.629094L641.878825,1033.109656L640.987517,1037.630765L640.231679,1038.529623L643.039243,1043.112915L644.725022,1039.373382Z M228.704102,1511.215699L271.657088,1501.706408L296.755219,1505.915330L305.174701,1505.401179L318.908244,1490.236039L311.835144,1477.676600L304.196229,1466.957174L304.156494,1455.008207L307.771533,1448.666969L319.376770,1438.372660L325.363904,1434.035503L332.646963,1430.082115L341.681518,1433.393451L350.444521,1431.867246L345.629845,1420.224291L351.421207,1417.021884L375.450972,1415.834468L400.412891,1418.299413L416.458235,1414.590847L426.913867,1414.292614L435.759643,1416.757383L445.607190,1421.282484L453.490760,1416.391589L459.659005,1410.027766L469.982474,1377.995517L474.745398,1367.740647L485.044951,1354.028601L489.046661,1342.607938L491.960237,1329.047206L496.403505,1312.830040L493.615338,1304.398961L490.543092,1299.127163L489.225930,1290.254477L500.824942,1271.358917L501.794879,1263.292000L496.645646,1255.557872L493.872179,1247.162777L492.520378,1233.545416L489.115310,1227.685347L491.466259,1216.199155L500.058919,1215.669881L497.277254,1187.934936L502.716294,1181.844691L496.832953,1171.754429L489.387350,1156.799065L504.203336,1153.922767L512.504583,1150.175397L499.358598,1139.642620L489.903467,1138.006112L471.729741,1136.502879L464.218840,1137.756489L457.483511,1134.750195L448.262045,1133.801822L456.822968,1130.740760L485.381193,1132.154770L515.072304,1131.816506L525.236405,1125.379655L545.737605,1117.471314L554.203257,1108.636222L572.027202,1102.080704L579.713792,1096.545913L585.427786,1097.730207L597.473000,1092.285352L607.406363,1085.525990L623.077525,1080.195640L625.938880,1077.608487L629.694166,1072.230920L631.641266,1059.719460L638.978573,1059.537243L648.825300,1055.567633L642.808517,1047.945790L638.128382,1046.422950L633.964887,1047.691974L628.861304,1050.870482L623.550279,1050.108909L617.959525,1051.036046L613.259974,1055.070808L606.687783,1056.793196L593.169241,1055.341300L591.372433,1051.913564L607.702642,1043.890713L612.494788,1045.005069L617.431050,1043.068785L622.214855,1038.639916L627.617333,1037.112428L641.775849,1028.600828L646.621143,1024.633217L652.615257,1018.265037L666.826605,1009.741357L672.958551,1007.005713L673.593781,999.054646L666.851591,986.159846L662.022703,981.895064L658.582022,976.753472L652.061092,970.722984L635.359900,966.253800L629.158157,962.471919L629.532470,951.159231L614.648279,941.778509L601.364806,939.038290L593.071025,933.833223L578.482329,922.224084L572.528054,913.440967L565.416616,914.529689L554.861245,919.098792L547.932823,919.563988L544.584652,913.949757L540.719045,909.196248L537.261725,907.511818L528.795760,907.615722L520.439703,907.725096L510.204782,901.011022L510.196205,894.026745L511.016269,888.547616L502.489922,872.929721L502.859898,869.132802L498.234259,851.192423L496.254645,839.734212L494.476825,836.500955L497.053919,832.746048L494.544676,827.659416L490.783775,824.978088L491.933109,816.447898L489.758951,811.290897L487.389705,803.382360L493.473056,794.419889L490.850041,786.840626L503.105708,790.491410L514.369326,791.294382L509.444173,785.050835L507.217598,780.452641L503.968862,771.103578L505.702146,760.033578L507.813078,753.765865L511.100440,737.854740L514.895699,732.763967L520.594179,730.473185L511.792420,727.080925L501.739943,719.224647L495.677948,709.080168L495.575403,705.072993L497.598508,700.037363L506.331953,702.894614L512.012604,706.372636L518.428020,706.388815L523.721016,700.867522L533.564188,700.662673L541.939242,692.304201L549.229197,689.869293L546.237771,687.030910L539.593201,685.447703L536.989696,683.369351L539.863161,681.119056L542.081351,676.581914L537.589434,669.410612L533.769571,664.522529L531.772136,659.824321L533.845494,658.330268L538.394691,664.151558L550.373429,663.915003L549.425214,666.565737L549.454969,668.910430L557.538721,669.055642L560.974657,666.538851L563.195721,662.479629L580.588930,657.330742L581.725094,653.757775L581.611818,650.427442L582.410586,647.097934L566.371491,646.271056L568.452803,642.341394L573.709436,641.750971L583.643389,638.890471L586.600642,631.980571L588.201163,626.285816L593.331366,626.473458L600.746533,624.093289L605.790373,624.200495L608.962720,623.176716L607.943192,621.252655L602.856052,619.714679L604.595966,617.592887L623.188408,619.757547L638.347654,607.733166L641.349247,598.811685L646.092552,593.473471L658.730271,599.293194L657.823084,595.366737L657.967142,590.019233L665.674158,592.403950L671.669128,595.607426L677.134406,595.024431L680.859996,586.827816L690.680088,578.908778L714.124640,573.231626L727.006755,566.622986L732.994583,561.068576L750.762539,555.329931L757.122023,550.793094L772.862005,516.980210L790.379348,503.792527L806.273837,495.049105L808.028599,491.080216L809.255433,485.977696L797.327665,477.156651L790.601142,467.934130L784.523957,457.596778L777.469768,452.222458L771.321181,448.499900L774.838283,441.116300L781.729977,434.154334L791.224030,426.433214L801.393848,414.217071L801.293222,410.437644L797.576073,405.452947L793.597704,401.312911L787.260152,397.258550L784.363195,393.542393L787.300681,393.173999L798.404799,400.322887L801.753455,399.585689L801.333921,395.516127L799.634370,393.637125L795.188219,392.063625L792.885643,389.106644L793.115853,386.092551L795.414328,383.773331L804.955508,384.283415L820.893625,382.059191L823.425559,380.650208L825.787887,377.070685L821.218119,372.982647L822.153089,370.398151L835.853152,370.629261L840.404222,368.192329L838.863257,366.338714L835.606933,364.868635L834.260288,361.950033L848.263065,363.388244L848.829968,360.811138L847.508185,349.695791L848.040362,346.943538L851.204168,342.593714L852.681130,337.067125L855.133687,334.982913L860.561284,335.998787L867.709063,342.253136L874.150576,340.943313L883.192938,334.035195L898.995949,343.096741L914.989988,348.584325L918.970122,347.022165L923.675487,343.133421L939.432190,341.179070L953.614078,341.074288L961.253005,338.586013L978.492020,343.552629L999.669359,341.079527L987.088396,321.293265L981.169987,313.743911L972.212108,304.340539L958.624354,299.751466L955.639164,297.157580L953.180699,293.181829L951.558337,287.664086L948.365652,279.507330L947.727162,272.819726L948.502600,268.837259L953.430408,266.162287L959.827677,258.624959L960.392693,253.150861L959.404378,244.760650L961.571204,237.440900L964.854995,233.741436L963.258004,230.800439L959.649451,226.595267L952.608459,220.630055L942.256164,213.358284L934.294608,206.412424L930.120985,199.921108L927.487180,194.126378L926.686964,188.856613L928.435596,185.272673L935.926637,180.760992L936.667047,178.846461L931.355980,168.887513L925.151485,167.078330L915.023930,166.114598L909.463608,166.032144L908.189929,164.944844L907.520000,162.945761L907.832869,158.866407L910.039634,154.196788L912.055463,151.222152L911.897694,148.701106L906.885290,140.077854L903.785496,129.516147L903.257708,121.253579L912.503920,115.161269L912.530944,112.936591L898.060044,106.332248L887.090201,98.852179L883.275180,94.487694L872.303531,93.827824L863.045652,81.166271L852.083144,75.007816L841.390653,69.690108L835.207618,67.216015L800.338768,59.588757L786.802774,58.136418L770.267089,53.689106L757.527022,48.108823L746.846939,44.521118L737.456850,40.100773L724.756288,35.967233L720.687833,32.435138L706.607099,25.898063L699.772259,21.598480L677.350721,13.482120L676.009570,10.283264L675.290337,7.197029L674.115261,5.915215L651.503953,0.000000L641.303517,0.369585L611.930124,1.655658L626.591689,10.638072L631.558097,14.237644L633.362788,19.528107L632.845633,29.371722L628.046435,37.792266L621.913923,44.648318L608.935364,51.453529L631.624543,58.182278L618.589400,67.282323L612.357299,70.833005L604.319364,70.220722L589.572100,67.068101L553.964123,59.456253L537.111694,56.597700L522.336146,55.721459L514.542832,55.833531L482.462832,49.330491L476.584361,50.058480L465.890455,52.874254L465.652178,59.201444L468.827706,74.966977L472.374505,87.124326L469.355250,94.160310L465.970906,98.939182L455.465705,111.834696L426.051036,103.070193L406.036261,97.265791L394.887621,104.990420L366.051853,119.171092L354.180646,147.224793L353.394217,148.145534L345.012841,155.293204L333.434469,158.578032L324.544469,160.205404L320.378071,168.578228L334.402115,180.595843L341.636057,186.945709L348.974703,197.201672L348.779426,203.737813L347.951511,207.804325L335.707634,216.133798L310.086084,238.172646L286.591550,261.235633L276.563519,267.869196L284.002502,287.486813L275.876464,293.244428L258.660048,299.761905L249.748234,302.278091L239.988766,303.755704L209.782477,306.361590L217.735940,327.460961L220.908760,336.815742L221.522351,342.368407L218.994621,347.777008L216.432480,358.140164L215.061309,395.263471L211.136170,399.264496L206.231253,409.352004L189.450816,433.626275L175.549537,449.789976L155.406847,473.119297L174.706833,480.495614L192.221827,485.876940L196.655786,494.162893L200.541849,508.020433L201.029204,517.463985L195.491595,525.962304L191.111302,531.932613L187.918279,534.844288L163.462778,531.943258L132.169804,528.218134L124.167154,528.186209L106.467598,530.868181L90.799864,536.372252L82.704784,541.015831L80.593565,542.864147L70.816085,553.442498L53.376055,572.275887L43.563654,580.506091L47.733801,591.858528L32.015528,613.837720L45.753245,636.073504L46.322733,636.803175L53.356868,645.803946L47.408128,651.609079L44.969587,654.730173L46.861051,665.027925L49.641450,676.549626L48.754365,683.310128L48.834041,690.822734L67.985425,724.656074L68.547803,732.601871L68.232155,737.730420L65.244873,758.842607L61.196562,787.263701L73.543207,794.740075L90.993602,803.686454L100.655836,807.211159L115.459155,817.850224L126.996789,828.252312L126.199663,835.162139L123.896563,842.793944L119.963515,848.130944L116.499849,855.464304L115.143375,860.865861L113.303474,862.321512L94.873746,862.915807L85.290805,864.960584L80.387599,867.251069L83.277582,879.603950L96.592854,902.257383L107.428157,918.387345L111.419960,929.029693L109.322584,939.827423L106.633268,945.357970L107.215170,952.810082L106.104313,967.653713L99.503657,975.160494L90.702296,983.351335L80.601797,989.469147L72.307565,991.190039L65.117420,991.899343L60.515659,995.011859L56.889373,1004.160480L53.634605,1013.776875L41.291095,1025.608498L41.995781,1029.730673L48.275375,1043.769352L54.406169,1059.769156L51.628892,1074.739867L49.482600,1090.470790L44.280602,1100.962531L35.902897,1104.710361L29.370488,1102.839111L20.984947,1088.446234L12.394354,1082.744487L3.773678,1083.717684L1.542361,1087.422985L0.330641,1093.873254L2.848008,1101.344473L6.751536,1107.728044L9.832643,1128.888857L15.873294,1152.101724L14.621808,1157.965265L14.782121,1164.214068L21.872801,1162.941911L31.177790,1167.530990L34.771000,1192.769656L44.643200,1206.123256L58.517913,1209.319767L62.750165,1233.143907L63.704227,1238.486917L76.787741,1242.855035L77.978458,1250.483532L81.663774,1260.862532L86.518311,1271.828288L94.456798,1269.436852L105.316553,1294.628781L132.412778,1331.389834L146.707505,1340.931276L161.230619,1359.365283L168.119894,1360.936809L176.524464,1364.551772L180.755554,1376.299129L175.831460,1383.568725L168.254862,1383.181025L157.959547,1384.928543L161.616414,1391.391682L166.561857,1395.714657L172.713332,1405.268790L168.551065,1407.777527L164.453118,1408.598837L146.018172,1401.922388L142.829540,1402.203578L147.729888,1407.383760L155.200463,1419.824668L179.451530,1449.326373L189.868182,1458.075196L193.319691,1464.763139L194.230503,1471.041240L193.718003,1480.424974L192.286020,1489.603669L192.964226,1495.572356L188.710995,1503.694958L228.704102,1511.215699Z "/></g></svg>