<?xml version="1.0" encoding="utf-8"?><!DOCTYPE svg  PUBLIC '-//W3C//DTD SVG 1.1//EN'  'http://www.w3.org/Graphics/SVG/1.1/DTD/svg11.dtd'><svg enable_background="new 0 0 1000 959" height="959px" pretty_print="False" style="stroke-linejoin: round; stroke:#000; fill: none;" version="1.1" viewBox="0 0 1000 959" width="1000px" xmlns="http://www.w3.org/2000/svg" xmlns:xlink="http://www.w3.org/1999/xlink"><defs><style type="text/css"><![CDATA[path { fill-rule: evenodd; }]]></style></defs><metadata><views><view h="959.006790581" padding="0" w="1000"><proj flip="auto" id="robinson" lon0="38.5570067514"/><bbox h="84.33" w="88.03" x="498.24" y="-626.09"/></view></views></metadata><g class="" fill="#000" id="country"><path d="M241.256457,957.006791L281.389347,928.869641L315.241306,905.087929L353.663165,878.058559L379.745951,859.666357L424.221375,828.285546L453.543717,808.434164L492.085132,782.280074L530.062533,756.453546L571.864094,729.427451L603.054322,709.210024L646.630212,680.898985L688.583889,653.580862L728.476689,627.527861L772.334781,598.807097L811.508673,573.089272L849.127298,562.636389L856.282916,554.492157L869.307741,519.331000L880.387698,489.228245L880.144217,482.243772L874.335684,439.505827L870.043059,389.217915L871.353833,362.317519L876.721829,338.518550L882.310799,321.154236L880.849670,304.868401L877.451834,288.349134L865.633769,263.369659L853.319532,237.327793L850.706230,212.202533L850.365043,198.742115L852.661818,177.241092L859.561001,161.522227L868.006539,151.777579L903.290399,141.738831L924.198458,135.772203L949.265686,107.907869L964.100271,91.380487L984.273044,65.174966L999.079883,45.885410L999.478083,39.209999L999.062875,36.577816L988.253888,13.118496L979.905559,4.012922L976.442983,2.915025L968.964056,0.000000L963.748734,1.675179L949.228767,17.681134L923.514528,27.308889L901.900198,33.178797L867.158610,40.346212L840.046400,43.906419L828.322972,44.190483L802.325155,40.980603L779.160263,36.464198L756.690123,36.663030L739.716491,38.689239L702.117504,55.913391L638.980771,91.371016L589.491645,108.334080L561.365338,115.390232L539.136347,119.396598L500.104120,119.595495L467.951990,116.858288L445.990990,117.161370L433.178423,112.899270L413.781937,98.540731L390.729508,84.352954L380.883616,81.057073L368.228900,78.320007L350.066849,76.728922L308.048403,97.470477L294.857716,103.105900L280.063695,107.349060L250.790392,120.031174L237.964512,126.822048L220.683989,126.187479L198.470684,124.378480L179.482566,125.013051L165.499421,115.361818L157.228861,104.498185L130.373225,97.849328L111.571949,95.936134L107.451843,100.757013L104.405809,115.560716L101.369840,153.387520L101.137968,162.876393L122.304080,200.474484L122.293498,206.201465L110.824919,208.151389L97.447816,208.776111L89.109221,212.117347L82.628694,218.364025L82.317653,250.865777L67.482003,256.834333L60.931188,263.643917L55.789162,283.717311L51.699238,284.189968L24.593218,268.968005L12.613835,267.710323L5.844952,280.748913L0.521917,334.468582L25.882586,363.628684L29.673228,377.180368L31.190328,387.031362L36.913228,401.636518L32.297510,433.165367L34.552014,454.671064L38.585139,473.247374L55.900125,516.086995L83.654594,516.199511L101.410217,515.383760L105.543845,506.577614L119.923973,510.573115L128.746958,519.105995L122.785701,528.048404L114.112164,538.327428L115.001080,540.959784L122.499527,541.812199L135.727487,547.375640L144.259836,553.855493L161.908503,594.310497L155.975885,610.947231L145.390707,625.772151L140.034686,627.107621L130.093760,634.474994L122.207149,644.547406L119.770906,650.921488L121.168230,656.865112L134.868356,664.328060L135.579770,667.340734L133.228299,669.690985L122.667399,668.058885L109.209281,667.303427L101.312975,667.312754L92.316876,668.823650L81.698927,677.924854L77.182706,683.900815L74.814728,687.759916L72.092011,700.135895L77.738443,708.623165L87.051997,713.420217L88.580585,715.879036L87.131457,720.181559L79.028960,725.507779L73.241968,732.043434L72.121037,738.698926L65.583500,745.111276L64.112605,756.788460L62.673553,764.397666L63.789561,774.358115L67.883337,779.816249L73.852674,790.683864L77.975449,801.492905L72.830609,810.459651L74.478500,819.824002L76.999156,827.672578L83.058021,836.894108L75.868586,853.484641L68.716453,868.696242L67.454365,877.705995L85.073721,881.723237L95.936358,890.665864L115.218443,915.909072L141.672815,923.251874L152.796816,930.399144L168.337253,943.792333L186.025843,948.648433L241.256457,957.006791Z "/></g></svg>