<?xml version="1.0" encoding="utf-8"?><!DOCTYPE svg  PUBLIC '-//W3C//DTD SVG 1.1//EN'  'http://www.w3.org/Graphics/SVG/1.1/DTD/svg11.dtd'><svg enable_background="new 0 0 1000 329" height="329px" pretty_print="False" style="stroke-linejoin: round; stroke:#000; fill: none;" version="1.1" viewBox="0 0 1000 329" width="1000px" xmlns="http://www.w3.org/2000/svg" xmlns:xlink="http://www.w3.org/1999/xlink"><defs><style type="text/css"><![CDATA[path { fill-rule: evenodd; }]]></style></defs><metadata><views><view h="329.461975792" padding="0" w="1000"><proj flip="auto" id="robinson" lon0="-71.7404244261"/><bbox h="3.36" w="10.22" x="-1049.23" y="-368.09"/></view></views></metadata><g class="" fill="#000" id="country"><path d="M25.308908,164.450803L1.522246,256.139823L4.530325,317.159021L52.949481,321.711490L211.566775,297.910845L226.355223,281.138556L281.321286,260.372838L275.724753,241.124589L176.799950,254.542458L25.308908,164.450803Z M951.717236,327.461976L959.756962,305.338567L998.477754,268.838865L962.282396,193.762602L770.681372,163.252771L710.381947,177.389534L725.187575,263.807170L878.865972,264.446116L951.717236,327.461976Z M611.446304,0.000000L499.267527,2.396093L481.503851,55.030158L525.811651,95.683630L554.924787,97.919967L561.634551,143.125830L637.438997,199.593007L664.160534,182.341391L640.328883,146.240715L611.446304,0.000000Z "/></g></svg>