<?xml version="1.0" encoding="utf-8"?><!DOCTYPE svg  PUBLIC '-//W3C//DTD SVG 1.1//EN'  'http://www.w3.org/Graphics/SVG/1.1/DTD/svg11.dtd'><svg enable_background="new 0 0 1000 609" height="609px" pretty_print="False" style="stroke-linejoin: round; stroke:#000; fill: none;" version="1.1" viewBox="0 0 1000 609" width="1000px" xmlns="http://www.w3.org/2000/svg" xmlns:xlink="http://www.w3.org/1999/xlink"><defs><style type="text/css"><![CDATA[path { fill-rule: evenodd; }]]></style></defs><metadata><views><view h="609.101086193" padding="0" w="1000"><proj flip="auto" id="robinson" lon0="58.9847150741"/><bbox h="127.56" w="209.76" x="709.9" y="-717.36"/></view></views></metadata><g class="" fill="#000" id="country"><path d="M93.190602,312.414261L85.716729,293.524371L87.189492,289.015166L84.610938,288.815259L83.077961,292.336018L87.463441,304.837016L93.356752,316.193760L93.190602,312.414261Z M760.213133,607.101086L764.422330,602.210636L769.144502,600.582645L774.001508,601.511261L779.258039,602.056540L784.028210,600.262552L786.049801,598.966280L793.692425,592.625137L800.781575,587.803825L805.215959,584.836567L804.924249,574.925159L806.046505,569.289555L808.678843,565.997536L806.547241,561.928136L804.495959,558.805090L802.169177,554.587311L803.103431,552.355147L806.128360,551.359906L814.258612,551.363871L827.550875,546.918383L838.469551,542.475913L848.657474,538.857818L853.528013,538.258715L858.401744,538.877655L860.334126,537.822273L860.165651,534.366172L862.056163,530.703231L867.501309,527.758237L877.587933,521.486262L885.617158,512.167504L887.645973,505.098660L887.735719,494.771854L888.848473,478.854765L890.033258,461.396823L890.185261,453.711646L891.041804,447.790641L898.782478,442.791577L907.028171,439.182658L920.944454,438.464095L937.407090,438.106805L938.635624,428.576617L938.892594,420.497829L940.642618,416.328567L943.828961,412.941381L945.059789,412.267182L955.170064,417.225032L970.653868,424.810688L987.477456,428.596460L995.935739,430.501455L999.177768,430.195853L996.249290,421.239728L993.522000,409.828356L990.751854,394.683086L994.631176,382.817644L993.879255,380.561286L992.018767,378.384446L989.451735,376.433504L976.523871,373.181252L972.528912,371.460500L966.904366,367.742897L959.989394,363.805051L954.181386,361.097551L945.190018,357.529366L937.221960,355.546213L933.215073,357.059224L929.646285,358.975472L925.883044,359.026840L921.824117,357.987674L905.639449,349.069901L880.664104,333.669599L861.239317,322.938968L849.446270,317.814637L846.544580,316.170158L839.439856,311.356629L821.697826,298.397464L812.566181,300.301273L796.720221,291.885044L782.325380,283.682344L778.969321,281.469708L761.126430,266.333969L744.676385,256.548292L726.722329,245.883163L715.165586,239.218329L695.598985,227.945934L685.701783,221.148340L682.304858,218.645631L678.353670,213.840947L667.892558,190.448804L660.071260,179.776970L651.424316,173.974271L642.383259,162.807863L632.921025,146.302977L625.870561,135.598014L621.250657,130.667665L613.113931,125.222369L601.450205,119.259392L591.152359,116.433901L587.742255,116.548118L586.248577,117.286767L584.596243,118.299671L582.025243,122.748951L576.563692,123.210033L572.461257,123.103334L568.197842,121.518273L555.760496,120.104963L551.083757,118.570056L543.896159,118.798558L528.939611,121.106823L525.042250,120.680159L505.920478,110.751845L497.746058,106.822896L495.725197,104.648170L494.788647,100.843810L495.743474,95.476605L496.770522,91.672623L494.798169,87.722342L490.504594,83.405973L489.253385,78.814945L490.678297,76.253129L495.261028,77.060254L496.389429,75.442282L495.164656,73.013935L492.333795,71.260289L488.132978,67.352615L477.851090,63.711331L476.106484,62.227925L476.124399,60.532854L477.220725,58.720782L476.496221,54.904672L475.292604,49.974734L475.815673,47.419839L475.595741,45.402002L473.805784,43.784946L470.161963,41.903680L463.872966,37.330092L457.593672,36.835439L437.644133,36.994028L430.927151,35.155262L425.240165,32.614619L417.600119,22.912933L414.430647,20.615767L411.832379,19.661540L406.143746,19.325876L399.156407,18.386809L395.251291,16.750167L383.398094,7.894577L372.201149,0.000000L370.617337,7.449836L367.487808,8.923552L359.356616,8.237562L353.026164,6.974954L350.076591,8.655937L347.365549,11.607442L348.562430,13.545214L351.818475,15.600086L358.269638,19.389991L369.105760,28.708277L374.273796,33.852794L375.332460,35.653630L374.965540,37.005356L374.008412,37.590642L372.360114,37.567985L370.145678,37.537777L368.449317,35.993436L367.304681,33.339391L363.436886,29.308313L359.965994,26.995100L356.439737,25.538675L351.759605,24.467198L345.458241,22.539479L342.448284,22.452719L340.139320,24.682242L338.523954,27.678083L338.859899,34.234083L336.687806,42.288977L334.862028,45.477570L327.149899,47.416060L307.773294,48.073629L302.585480,50.590863L299.415683,53.634181L294.595965,63.499403L290.314284,66.777193L287.011452,71.298162L292.111111,85.829410L298.624740,102.838882L303.602400,107.556810L306.364472,108.975397L307.112732,110.649127L305.939932,112.129157L304.444043,114.001479L302.323665,117.416228L298.924948,117.286767L291.932366,116.430094L286.070225,115.504996L266.864671,114.519112L251.313762,113.723646L234.021427,112.836932L231.243377,112.688522L225.314227,113.727452L215.578838,116.220700L207.278842,117.473344L203.338877,116.730870L199.479467,114.857876L195.536668,110.911631L189.923546,106.123269L184.443451,102.253610L176.843847,94.307138L171.431923,88.207968L158.486513,74.908070L156.105787,70.718729L153.238422,66.447853L149.132477,62.874997L135.627026,54.118161L120.468883,46.225723L105.624852,38.504495L101.500144,36.631541L94.869365,34.234083L87.424305,34.181231L82.485464,34.653136L67.653049,37.197931L56.547111,40.185093L41.452303,44.238305L30.080332,48.735013L27.617379,50.054111L19.816250,55.483246L10.833000,64.487174L0.822232,77.208045L12.896522,96.703201L24.802912,109.469871L32.323373,119.960218L34.483907,122.345053L35.042992,121.583041L30.583924,111.303501L28.921624,90.154534L28.281697,87.134314L22.758832,82.530053L25.145946,68.257457L27.799648,62.019810L34.918964,54.749634L38.059382,52.912030L46.048204,53.838357L58.872007,50.870588L66.849760,49.615655L75.170162,50.156168L78.758452,51.067156L81.951389,53.116194L93.112500,70.374115L97.605329,77.814391L102.935397,87.847540L108.827614,97.485580L116.047192,104.317451L124.006111,109.603004L147.073602,122.870888L153.542038,128.444045L156.585848,132.430281L158.601767,136.976245L160.101940,141.804181L160.376736,146.513277L159.097762,147.928199L157.559509,149.079486L150.932445,151.122478L139.036300,148.058234L136.163303,150.942637L138.539694,156.401347L142.525512,162.025846L139.535707,162.378508L136.429005,161.991348L130.089197,159.894980L123.595522,160.941157L110.495571,165.526541L103.305555,164.191972L97.298870,157.852956L90.900743,152.201626L84.530304,151.218139L78.973239,154.218825L73.285654,155.007508L63.681675,152.909677L60.374509,151.696470L53.659058,146.620341L48.382003,141.131728L43.455583,135.013973L43.119343,148.677851L43.774521,162.623850L42.039151,173.540265L41.356260,185.193063L45.207457,199.316184L52.021980,212.432647L60.565202,223.656161L66.259700,229.901939L71.888416,234.631936L64.365482,225.009421L65.057824,217.696786L75.030609,218.405498L85.140010,220.044051L92.612884,219.858089L96.211184,221.404104L98.910075,223.904297L98.394880,230.115436L99.330330,236.691448L102.134944,243.041952L106.577451,245.198028L110.371226,247.935170L112.767658,252.758515L106.116704,253.849971L99.047874,253.600478L93.178126,251.951748L87.776272,247.845598L83.586823,261.936870L84.992076,268.768153L88.506880,275.309490L90.670054,271.160269L94.367928,269.092522L98.931283,269.237125L108.571710,272.047768L113.315297,274.581914L119.403362,279.238223L125.188273,279.751008L126.485142,284.254221L128.280026,288.293959L135.655497,295.124836L140.330145,300.650685L142.863852,307.504729L144.163164,317.338571L144.728291,327.026439L145.756412,335.648499L148.340416,344.455987L150.475094,354.179545L152.494935,373.505649L154.322366,383.150190L160.091476,404.111207L167.472777,424.905921L169.658854,430.596708L188.091400,431.497661L194.873450,429.779129L204.461137,425.393994L211.842275,422.739467L215.764816,422.374443L219.283939,420.307399L221.781289,417.728813L224.976688,399.802718L227.448787,395.317011L236.911809,385.212943L245.385049,378.819787L254.460529,373.165428L266.597993,369.225850L283.923738,369.641109L297.918795,371.025405L305.833257,370.958164L309.696799,371.361614L312.413925,370.792041L313.800833,369.625289L313.930826,361.828712L316.194518,359.287634L320.562705,357.110583L327.336146,357.094780L335.462978,356.525893L342.437159,357.059224L351.732205,360.054245L363.082396,360.303207L370.477608,359.781579L375.485525,362.761502L379.487301,366.746453L381.732965,370.072202L383.059380,374.641104L383.740893,378.123249L385.207570,379.468865L390.252668,381.546913L396.962711,383.106642L409.805633,384.987253L422.238736,388.590784L428.832593,391.054354L438.077850,394.900995L450.157062,404.416447L454.195772,405.926868L458.907003,406.890271L462.073246,406.632566L468.746134,402.600937L475.937617,405.574029L479.179506,405.193446L486.234572,402.981465L494.830307,405.728643L517.051547,416.197671L519.188632,415.955712L521.235800,417.018762L523.410859,419.414778L525.219305,422.374443L528.653413,431.394466L535.831411,437.971829L544.179927,443.982718L553.116432,447.270455L572.027148,455.149313L580.922520,461.551727L590.860576,472.407599L603.301832,486.716135L604.937018,488.011118L629.042063,487.578134L656.223848,487.609912L660.773923,493.329967L662.574185,504.681648L666.028172,516.312984L670.181075,524.376290L671.779947,531.806532L670.603603,535.568521L669.978211,539.869513L669.940773,541.749960L674.009247,544.435472L678.372150,550.614434L680.605715,559.205410L680.026215,563.770783L681.029789,567.526766L683.234995,570.747171L688.550544,569.943123L691.354164,572.893733L695.074193,576.730633L704.583953,583.859203L710.204208,585.928596L716.972169,586.973061L724.814972,585.995856L730.976448,584.666423L734.086143,585.006708L742.190400,590.192959L751.905710,597.460367L755.217288,600.673534L757.471357,605.619959L760.213133,607.101086Z "/></g></svg>