<?xml version="1.0" encoding="utf-8"?><!DOCTYPE svg  PUBLIC '-//W3C//DTD SVG 1.1//EN'  'http://www.w3.org/Graphics/SVG/1.1/DTD/svg11.dtd'><svg enable_background="new 0 0 1000 4779" height="4779px" pretty_print="False" style="stroke-linejoin: round; stroke:#000; fill: none;" version="1.1" viewBox="0 0 1000 4779" width="1000px" xmlns="http://www.w3.org/2000/svg" xmlns:xlink="http://www.w3.org/1999/xlink"><defs><style type="text/css"><![CDATA[path { fill-rule: evenodd; }]]></style></defs><metadata><views><view h="4779.04682176" padding="0" w="1000"><proj flip="auto" id="robinson" lon0="-175.244988115"/><bbox h="48.37" w="10.12" x="-2546.49" y="311.32"/></view></views></metadata><g class="" fill="#000" id="country"><path d="M787.196210,4777.046822L729.071598,4528.557046L715.517285,4533.407188L664.988142,4610.201182L686.805796,4663.067875L787.196210,4777.046822Z M314.891513,4311.432797L254.643202,4288.798886L310.492764,4273.601833L201.732672,4227.687346L91.757553,4218.795457L53.815974,4195.514878L46.754069,4144.103605L0.104645,4207.963520L60.959801,4292.193972L280.625354,4400.998479L363.876289,4467.606970L422.738621,4297.205767L417.333232,4244.662771L344.936231,4262.446551L335.379208,4311.594468L314.891513,4311.432797Z M918.381939,0.000000L871.111675,8.894350L804.088766,124.035308L836.831192,162.361536L914.284829,219.284704L940.597924,220.740123L970.237612,122.579880L999.895355,71.478092L994.605968,38.488243L918.381939,0.000000Z "/></g></svg>