<?xml version="1.0" encoding="utf-8"?><!DOCTYPE svg  PUBLIC '-//W3C//DTD SVG 1.1//EN'  'http://www.w3.org/Graphics/SVG/1.1/DTD/svg11.dtd'><svg enable_background="new 0 0 1000 990" height="990px" pretty_print="False" style="stroke-linejoin: round; stroke:#000; fill: none;" version="1.1" viewBox="0 0 1000 990" width="1000px" xmlns="http://www.w3.org/2000/svg" xmlns:xlink="http://www.w3.org/1999/xlink"><defs><style type="text/css"><![CDATA[path { fill-rule: evenodd; }]]></style></defs><metadata><views><view h="990.542488716" padding="0" w="1000"><proj flip="auto" id="robinson" lon0="-61.2533726668"/><bbox h="21.14" w="21.36" x="-912.72" y="-189.91"/></view></views></metadata><g class="" fill="#000" id="country"><path d="M213.669544,988.542489L505.367085,978.052106L619.162187,933.908287L625.878165,907.644067L632.340038,834.211494L656.055848,785.664862L625.303629,736.275963L614.294578,661.082365L629.628481,601.624322L623.894174,513.987880L651.147304,477.692853L710.376751,380.408424L599.212068,386.917023L532.513515,409.352548L397.024004,414.444570L330.446994,439.828110L242.307683,452.768739L200.284510,476.199703L210.503479,490.863199L274.209243,518.237615L302.241227,538.299427L315.064333,566.133280L321.962980,616.632402L288.143435,828.660024L267.218564,840.758400L195.273761,848.377314L173.570238,888.922200L0.505284,985.020170L93.751217,972.538913L213.669544,988.542489Z M999.494716,0.000000L973.730641,1.454864L871.235488,37.749879L802.815976,91.732963L796.865486,122.935949L834.688321,115.163917L982.573316,48.355067L999.494716,0.000000Z "/></g></svg>