<?xml version="1.0" encoding="utf-8"?><!DOCTYPE svg  PUBLIC '-//W3C//DTD SVG 1.1//EN'  'http://www.w3.org/Graphics/SVG/1.1/DTD/svg11.dtd'><svg enable_background="new 0 0 1000 1191" height="1191px" pretty_print="False" style="stroke-linejoin: round; stroke:#000; fill: none;" version="1.1" viewBox="0 0 1000 1191" width="1000px" xmlns="http://www.w3.org/2000/svg" xmlns:xlink="http://www.w3.org/1999/xlink"><defs><style type="text/css"><![CDATA[path { fill-rule: evenodd; }]]></style></defs><metadata><views><view h="1191.44892329" padding="0" w="1000"><proj flip="auto" id="robinson" lon0="32.7026363723"/><bbox h="95.42" w="80.15" x="437.86" y="-70.77"/></view></views></metadata><g class="" fill="#000" id="country"><path d="M67.960476,1189.448923L79.145068,1184.651692L99.724955,1168.279863L108.714506,1158.338367L119.307310,1144.354949L132.825790,1128.595535L140.382493,1114.857084L147.752516,1106.814068L157.372366,1104.405246L168.008468,1105.017658L175.400262,1105.283037L177.243273,1104.282763L191.788698,1105.793381L205.471064,1101.955596L218.289449,1092.789825L230.704643,1090.156452L233.370179,1091.013829L237.262656,1091.646655L256.646415,1091.646655L289.481600,1091.646655L322.298755,1091.646655L355.133940,1091.646655L387.951094,1091.646655L420.768249,1091.646655L453.603434,1091.646655L486.420588,1091.646655L519.237743,1091.646655L552.072928,1091.646655L584.890082,1091.646655L617.707237,1091.646655L650.542422,1091.646655L683.359576,1091.646655L716.176731,1091.646655L749.011916,1091.646655L781.829070,1091.646655L801.988179,1091.646655L801.524710,1056.024672L806.261728,965.346834L805.790338,885.733254L809.780273,845.855016L827.120637,820.613428L835.100869,802.230856L840.805585,776.591199L849.845557,755.677322L870.410826,738.693090L874.079936,729.323182L895.822957,700.886839L908.771368,664.336029L918.598461,651.914265L930.861254,640.441739L939.541655,634.409477L953.846855,628.356801L965.063051,624.917084L967.086074,622.028539L968.011611,616.108552L964.158605,593.469703L968.913104,586.039098L976.470328,570.922715L985.129514,556.816811L992.988661,547.875587L997.364869,538.658777L999.332719,522.715633L999.579990,511.426825L999.323050,492.972787L996.518199,451.063333L986.984320,415.992481L980.928599,376.747005L985.011396,363.835292L977.496606,340.839172L973.879602,339.573517L967.883445,334.541521L960.102988,312.882498L954.191996,293.091333L950.590881,288.110369L925.667394,270.799476L912.943578,229.992302L899.057982,220.897955L891.108138,180.335729L889.534218,168.801928L896.878122,128.341751L896.009589,119.073878L887.635410,110.520488L864.322262,101.813993L845.288858,85.125692L847.648835,79.297545L848.960764,73.255052L839.000980,69.202907L809.342405,0.000000L766.720583,49.115697L735.226275,85.391072L729.955579,90.535356L720.775357,97.231090L690.327747,97.384194L658.872708,93.127911L629.672833,71.080979L600.509965,88.157145L581.943871,93.546395L570.868588,95.536743L544.667580,98.302816L508.053491,107.448208L491.535834,118.920774L482.629298,128.015130L475.355256,144.693217L471.626426,146.428391L464.865471,144.448251L455.349671,137.762727L435.601628,128.066165L425.489221,106.846000L416.190181,94.015913L408.617881,87.289558L377.651957,108.438278L362.626820,113.429457L350.223747,112.827249L327.478094,100.885164L302.374531,90.780322L289.529075,90.851770L270.427688,103.518547L248.744070,122.523813L237.648283,141.324938L232.306543,152.491293L242.835140,158.145919L245.008554,169.587859L237.980076,183.550904L230.771722,195.993117L222.062294,220.918369L217.639250,246.333546L223.720470,254.784856L230.220663,261.848029L233.711168,268.972442L235.788373,277.301268L235.120079,287.048852L221.192805,322.385114L214.134160,353.260956L214.026798,368.918322L232.846945,380.401071L257.177329,379.809071L264.930358,386.892651L272.715209,398.150846L279.555262,403.887116L289.793096,403.723805L296.979693,407.653456L299.815627,415.553585L308.171900,424.106954L315.199689,433.527908L311.969817,445.612857L311.421701,454.788845L294.253270,480.408117L254.649708,530.411619L169.374561,623.171709L169.320692,623.222743L140.429170,634.409477L125.551343,651.659093L115.084889,678.686892L90.132591,701.672768L70.866519,710.930400L68.808787,716.442111L67.431911,741.306048L69.475419,777.867058L60.451344,794.606325L47.418657,827.074377L40.636604,847.406460L35.445548,851.407553L29.535524,861.624629L25.877260,894.766333L23.385140,905.922441L13.866151,974.512603L16.536352,994.068966L9.143378,1026.690124L8.768407,1045.879042L5.674842,1067.619678L0.420010,1086.481978L0.706711,1116.592252L3.436314,1165.789386L2.846949,1172.301372L8.887874,1172.138062L48.767237,1161.359602L52.718363,1164.727871L59.036536,1185.651965L62.411016,1188.693614L67.960476,1189.448923Z "/></g></svg>