<?xml version="1.0" encoding="utf-8"?><!DOCTYPE svg  PUBLIC '-//W3C//DTD SVG 1.1//EN'  'http://www.w3.org/Graphics/SVG/1.1/DTD/svg11.dtd'><svg enable_background="new 0 0 1000 559" height="559px" pretty_print="False" style="stroke-linejoin: round; stroke:#000; fill: none;" version="1.1" viewBox="0 0 1000 559" width="1000px" xmlns="http://www.w3.org/2000/svg" xmlns:xlink="http://www.w3.org/1999/xlink"><defs><style type="text/css"><![CDATA[path { fill-rule: evenodd; }]]></style></defs><metadata><views><view h="559.376561932" padding="0" w="1000"><proj flip="auto" id="robinson" lon0="33.8859109126"/><bbox h="129.79" w="232.44" x="287.46" y="-873.21"/></view></views></metadata><g class="" fill="#000" id="country"><path d="M578.156770,430.266558L556.250170,425.439929L552.880590,423.287155L547.809545,418.366227L549.667075,423.046800L552.191953,426.480187L560.386641,429.552591L578.397800,432.802995L586.510377,433.726191L578.156770,430.266558Z M706.661530,557.376562L715.653371,554.853240L726.182604,546.869273L734.796112,534.093487L747.890321,528.131995L757.448930,526.983648L769.107289,528.445471L771.815036,521.905032L782.407418,516.172631L787.496283,507.782556L792.768029,506.324810L799.132281,507.536767L804.180767,509.714537L807.078015,511.898690L811.287945,514.293915L821.501808,512.512902L831.541864,512.850704L840.370615,510.096796L841.274895,503.951717L841.563337,498.421656L844.284224,493.422160L846.615373,487.134790L837.704882,484.354194L829.638481,482.708806L822.871608,482.965377L817.922173,484.993820L814.915821,488.666759L804.343797,486.570513L799.801019,487.428888L789.781856,492.923120L783.997980,492.543698L778.789328,489.931858L771.188952,483.396406L754.637611,465.586028L745.898838,453.105919L741.793684,445.483503L739.983499,439.425676L738.908499,431.251654L745.061468,427.582185L750.103424,425.814153L757.382617,413.619437L761.726042,418.537945L762.357725,422.497408L762.179053,424.952398L759.228777,428.279058L749.263924,437.147462L751.594342,437.288143L755.691020,435.750889L759.242397,432.706898L761.774603,430.266558L767.711473,417.785810L788.805423,400.693496L799.431556,397.703392L809.280037,399.201918L813.903256,398.280814L821.565801,393.073319L828.329101,390.952274L835.636150,390.852578L842.265732,394.352070L848.568266,386.555081L854.414831,382.958556L863.512466,380.063225L870.352282,380.094174L879.727176,368.989144L895.504188,367.489493L915.392156,368.590158L917.268467,367.799057L916.192537,364.689590L915.402384,361.896449L916.008560,359.254564L918.161682,357.548301L918.728882,355.993371L918.488813,354.751474L916.104191,353.973990L914.128488,353.351311L913.425053,351.641506L913.746052,350.093372L915.058673,347.915635L915.323528,345.431673L914.484343,340.456785L914.999051,334.845354L918.870644,331.267256L926.669543,330.389938L933.340316,327.324508L937.061219,323.928848L941.133298,315.269787L945.249587,313.993524L954.166000,314.461370L959.962325,315.242266L973.039383,315.500273L987.916098,314.973940L992.202140,314.719375L993.983790,311.709370L992.712292,306.291668L993.826084,301.300911L995.872427,291.929488L999.104547,287.029627L998.477856,284.849815L996.067317,283.931857L993.076213,283.474606L991.814191,282.463861L991.525166,280.411519L993.338479,278.403988L992.076738,274.275879L989.721607,269.691275L987.642276,265.571260L983.300264,263.523513L976.288252,262.163018L976.675113,257.151125L977.447969,251.741936L979.672386,248.737391L981.353720,246.934864L987.752097,247.916794L992.023575,246.958897L992.870306,245.925516L991.629155,243.862341L984.257353,241.995022L977.571811,239.431174L974.252196,236.260296L972.470445,232.863519L976.098718,230.849768L982.927768,228.918564L986.753901,224.298951L990.893157,219.351510L992.270106,215.752453L992.510266,211.845846L991.455222,207.522343L986.712041,203.124785L985.714158,198.530050L987.073577,195.333136L985.761350,192.937665L982.689027,191.545071L978.784434,191.962491L974.615856,193.580977L969.217882,193.276427L959.498956,187.764955L949.265727,182.348202L944.007824,182.163582L940.211683,181.367014L936.461213,178.574313L933.797570,174.986130L931.408275,173.394015L928.314197,174.388207L923.845147,176.021464L917.704619,175.580667L908.980677,171.409307L900.834248,166.614657L895.517963,166.495158L889.811210,165.832820L877.866889,159.661349L875.125899,159.722766L873.793056,161.544972L874.021400,166.498573L873.365689,167.557031L871.643016,168.366309L868.133001,168.912690L862.149185,165.822578L846.438984,155.697259L839.418466,148.305140L837.033322,142.938095L831.854205,139.528413L826.489361,134.594600L822.012308,134.165678L817.484873,135.745284L813.369801,138.121930L811.312392,138.775769L803.623332,139.610151L791.676782,142.938095L788.877748,146.120519L785.166439,148.703941L781.505449,146.914566L777.554559,143.731911L770.105839,142.590607L766.879036,143.731911L762.980038,141.548206L759.214316,137.638388L754.613737,134.798855L748.477989,134.022708L741.759602,132.807535L737.025363,134.992900L731.121722,139.160598L726.253637,137.573690L722.746226,132.606721L719.328837,131.218143L713.984373,125.658777L711.890899,120.697182L712.546579,118.518048L713.553195,115.744606L712.910687,112.570953L711.098494,109.795599L708.779682,107.615205L705.254631,100.289209L702.890084,97.119942L702.055367,94.548539L702.977683,92.171022L701.402359,90.590810L699.017672,90.390756L695.162840,90.590810L692.732547,89.404101L689.542525,85.248210L687.449511,81.097230L685.566198,79.518561L681.548902,79.633736L675.065823,80.504357L669.421978,81.883258L666.751235,81.683358L661.090488,79.538886L653.732899,77.184837L639.585870,76.717472L638.314204,75.914868L638.812498,74.424951L641.186752,72.011022L640.480448,70.034214L637.693253,68.436769L635.628936,64.508406L634.884315,60.063969L633.452231,55.235882L629.742666,51.487727L627.515013,48.926564L627.345887,46.561875L633.601231,45.656664L640.900850,43.978156L641.825432,42.249242L641.008842,39.558452L622.685823,25.793414L614.878343,13.624029L608.461044,7.037320L601.950174,2.614535L597.002120,0.605633L590.559695,1.443476L581.777783,1.362718L572.562228,0.000000L565.220079,0.905097L552.877972,6.700673L547.864666,6.956524L538.759815,5.132024L530.895282,3.102510L526.980116,3.193376L524.751998,4.048228L523.521383,5.613369L521.293499,16.517806L518.120403,18.660799L513.411986,20.895179L509.099005,21.279414L505.391612,21.168187L499.727681,19.493166L494.285527,17.525234L493.228358,17.410673L482.826054,16.925484L470.481699,17.114166L464.236002,20.918772L461.379176,20.042493L456.349930,19.075290L451.382156,21.198521L445.231309,27.627824L441.045473,31.628095L437.279466,37.229409L436.318473,40.274135L434.308995,45.882960L432.693101,52.292008L435.016617,56.780786L438.040245,60.953396L439.361159,65.448925L441.131964,68.978251L438.554044,71.547254L437.441102,75.244381L432.128438,74.601022L425.146781,71.049655L422.899826,65.915830L417.376203,62.340091L413.836804,60.493456L408.489216,60.206002L400.317166,61.869949L389.465333,63.148510L381.169738,63.493543L376.922097,65.310211L370.500004,67.096711L367.532125,64.985422L362.796430,59.167848L358.728396,53.380242L356.185897,50.842315L354.230706,50.132741L352.001913,50.278031L349.716649,52.112899L348.109233,53.991996L345.483197,54.657864L341.482968,56.179026L338.762679,58.244747L336.277520,63.574729L333.972594,63.195867L331.445371,61.971417L327.778961,56.009999L323.890456,54.637583L318.013087,54.556460L310.542088,53.295748L304.357775,51.494486L302.281665,51.923654L299.201001,54.458438L295.466000,54.823492L286.789078,52.565747L285.333647,53.599929L283.701970,56.943063L281.632528,60.168803L279.428134,60.486692L278.023631,59.658170L277.800542,53.948057L272.646981,51.927033L264.464274,51.616138L258.885517,52.444084L256.045707,52.217661L254.437080,51.099124L245.904093,41.519933L242.106712,40.912210L235.571616,41.384880L225.609389,40.230247L214.011534,38.073211L207.702908,37.276660L204.146748,35.133665L197.100853,34.401424L177.858667,30.359734L170.151503,29.648028L158.956449,29.583943L141.777268,28.686786L130.939162,29.185947L126.083725,30.525018L120.358698,31.354847L110.600470,32.103766L106.567952,32.019426L100.310522,32.464749L93.207754,33.537641L91.420089,35.548734L89.679230,39.953422L82.419200,47.565120L75.037638,52.640097L73.617259,53.072687L68.493686,50.379397L64.406823,49.470511L59.736266,49.179952L56.575110,50.041513L54.674642,51.312009L55.778611,57.203388L55.386700,57.720675L58.979294,62.495682L60.636569,66.240645L59.838220,69.181313L60.619420,72.122735L63.662686,75.237609L73.277636,84.875407L78.650871,94.158470L81.764407,97.778153L88.452476,102.481752L89.266614,104.413311L87.088731,106.182218L85.164635,106.416509L83.643022,106.888502L82.846568,108.542330L84.676863,110.311891L87.173933,112.910702L90.846159,120.272200L91.408443,126.301669L89.565856,127.835918L87.431172,131.418931L86.095799,134.693323L72.036597,136.974402L69.051514,140.482063L62.076913,147.265601L57.210649,151.168648L50.178236,158.228378L39.141161,170.377805L35.139379,175.464491L32.267956,179.671490L23.454024,190.881332L20.893716,195.589820L21.993105,199.468046L26.397530,208.577408L27.595057,212.692193L27.480342,216.496191L26.803760,219.882868L27.172159,221.394763L30.497126,223.849746L35.795921,227.711241L36.231248,229.011175L35.751507,230.685110L34.240526,231.961249L28.046963,230.613073L20.990997,227.995914L18.733848,228.311462L18.274124,231.213393L16.405117,234.596141L13.976820,238.089321L12.110413,242.310806L10.014666,251.340162L8.421483,255.505911L0.895453,263.760576L1.609580,275.245128L6.862803,274.674574L7.096613,274.763937L8.394652,275.100770L9.651949,278.373051L9.828123,278.575861L11.360247,280.738098L12.897636,283.601811L15.018324,285.754044L19.236222,286.651417L24.927815,289.323032L28.996923,294.346964L34.493991,296.434419L34.877243,296.489444L35.881127,296.248711L39.638577,296.066443L40.489723,297.080965L43.799682,299.539978L45.229537,301.706759L44.897781,303.994009L45.738019,306.584040L46.999412,307.502444L48.886408,306.305426L56.474820,303.326742L58.134212,300.327576L60.532733,297.631223L64.090652,297.834132L76.391035,304.492745L88.680748,304.079998L90.967884,304.327646L91.711492,304.465228L93.286577,305.012123L110.084122,308.310787L112.586196,307.942732L113.247704,307.677871L120.190261,310.405644L125.979517,310.044457L131.286800,308.152557L136.979222,307.512763L142.430195,308.644446L146.951340,312.486801L158.456054,320.636471L161.950884,323.670822L166.700493,323.223577L171.815747,321.702958L176.482900,316.250218L192.181421,310.071976L204.577592,308.544692L216.532457,306.071529L230.512247,304.313888L233.943088,299.254520L235.753745,295.811956L236.491245,289.436502L243.878460,287.590072L250.966807,286.286964L253.453078,285.485867L254.319284,283.072367L264.945203,276.523758L268.082608,277.596198L274.142658,277.854001L286.393217,277.630571L291.829272,273.316971L295.734022,274.519907L298.503613,272.588360L303.219770,270.148328L304.018574,270.663811L304.717385,271.052147L312.724775,272.134705L318.954641,274.475226L323.417120,278.067120L327.803379,280.298076L332.122418,281.160936L334.707489,282.955478L335.574816,285.685280L339.698715,287.026188L347.080310,286.984929L350.481951,288.783193L349.885628,292.417787L350.819898,293.614486L353.263070,292.369644L355.407894,293.442544L356.862475,296.131784L358.230107,297.411119L361.377719,293.201827L365.419111,293.617924L375.304136,295.364887L381.747762,304.093756L385.422510,307.230705L388.422321,308.506855L391.777976,307.144712L394.672121,305.517746L396.601624,306.284788L401.355872,312.070565L403.402117,319.638798L403.837604,322.700648L403.218572,327.840571L402.060503,333.317779L401.020382,336.875242L402.113294,339.741166L403.866264,342.139174L406.275181,342.927038L414.475647,347.771140L417.762575,351.132344L422.195234,353.626529L425.305799,353.760697L427.116119,355.150534L427.941142,356.853402L428.161578,361.170628L427.028013,365.222751L427.644944,367.823135L430.827595,370.894606L431.650038,374.471467L432.178851,376.775655L433.894378,378.550147L441.352136,382.487477L450.830975,386.290338L453.588659,389.563383L455.582648,393.692076L456.185042,400.645381L456.497872,406.707137L469.393112,414.852594L468.289196,416.367333L466.738604,418.036525L455.747909,419.276319L453.579124,419.956289L447.814246,413.818670L445.151063,413.049209L443.092790,415.299126L440.474029,416.559674L436.997998,415.931125L433.099997,414.038511L431.082329,412.695386L429.591865,412.540802L427.530373,413.880500L424.433511,413.306844L422.253983,411.791914L420.167780,416.995870L418.588615,418.098344L417.476620,417.930057L415.980217,409.091609L414.964374,407.755094L412.678489,407.548942L407.537936,409.651619L402.758509,412.362170L401.356482,414.780461L402.157479,419.132081L403.647321,424.324084L408.312031,432.195515L406.857457,435.627354L406.271621,441.086123L401.418698,446.093972L395.555321,449.008832L395.863887,454.987832L392.938895,459.069680L387.537881,463.143588L384.212265,468.055454L385.697487,471.418117L386.386851,474.601966L386.006745,476.765188L386.084682,478.435285L384.617181,479.174441L375.548239,479.776685L373.104294,480.806596L370.452801,483.150105L377.435839,490.386577L385.571350,494.232203L403.754651,498.295243L405.255091,497.816909L405.325233,497.051535L403.949124,496.002481L403.575290,494.649165L404.203825,492.994901L406.614601,492.909447L410.808090,494.389420L418.078773,492.246305L428.411366,486.478174L438.489277,485.305070L448.308747,488.728308L453.680561,492.711192L457.297156,496.491140L457.648849,490.653247L452.417174,476.826794L447.884600,472.667780L447.071627,466.880731L448.183115,464.078820L451.068346,461.817719L459.026329,463.403951L463.384194,461.978748L468.870439,458.781826L478.401332,455.131794L480.203365,453.952636L493.380363,438.262586L494.269958,437.192068L500.776996,425.865651L501.255025,423.228784L503.383955,418.853904L505.129599,411.338448L505.603523,405.782839L524.043975,400.683185L534.533273,401.525172L539.017685,400.377315L543.109294,392.664246L546.428830,389.924362L545.913112,397.847748L553.209601,399.418442L560.247251,400.177982L565.308988,398.902906L566.130115,393.843325L564.455086,379.444245L560.951257,374.010616L558.374499,368.112059L552.581534,359.247684L557.653432,363.165760L559.849528,367.541088L565.338178,375.510085L568.152666,384.464598L567.866122,389.425866L570.373146,394.747372L575.069166,399.415005L580.258441,402.600818L593.432939,404.879127L605.498287,401.305227L604.328994,402.968521L597.628550,408.191445L594.858480,411.204467L581.483397,408.782396L567.025566,407.916579L557.510477,405.573235L548.418489,405.621341L552.788244,408.720553L558.300896,411.427767L566.432966,412.083914L575.426133,414.368269L576.163915,417.380540L575.208759,418.980973L571.099101,420.086786L566.996894,420.265360L563.678643,421.776309L567.054367,424.797896L572.306773,424.406487L578.852831,426.253600L596.961263,435.435187L605.803317,438.715480L623.389701,435.356261L631.683364,435.898443L645.831742,432.246997L649.875706,435.764615L660.087149,440.547523L663.745916,439.055142L668.941717,437.833700L672.092041,442.286764L674.685301,448.312740L664.688260,455.974976L654.965471,461.077648L647.329216,462.201445L631.260096,473.157343L615.193380,486.416614L618.283118,490.157510L621.915793,491.719867L630.747778,489.555761L639.175229,490.314781L656.178869,501.048686L660.700498,502.729121L667.963490,501.533716L678.262228,507.840589L682.214965,515.957735L683.688335,521.103836L681.596482,536.964224L680.086126,541.281091L678.698488,542.799165L678.501803,545.807613L691.603263,554.200245L697.703775,556.587638L706.661530,557.376562Z "/></g></svg>