<?xml version="1.0" encoding="utf-8"?><!DOCTYPE svg  PUBLIC '-//W3C//DTD SVG 1.1//EN'  'http://www.w3.org/Graphics/SVG/1.1/DTD/svg11.dtd'><svg enable_background="new 0 0 1000 1099" height="1099px" pretty_print="False" style="stroke-linejoin: round; stroke:#000; fill: none;" version="1.1" viewBox="0 0 1000 1099" width="1000px" xmlns="http://www.w3.org/2000/svg" xmlns:xlink="http://www.w3.org/1999/xlink"><defs><style type="text/css"><![CDATA[path { fill-rule: evenodd; }]]></style></defs><metadata><views><view h="1099.64204963" padding="0" w="1000"><proj flip="auto" id="robinson" lon0="-55.8248380688"/><bbox h="81.01" w="73.74" x="-822.12" y="504.74"/></view></views></metadata><g class="" fill="#000" id="country"><path d="M749.170513,1097.642050L842.479321,1051.692800L857.417846,1036.593946L877.194672,1037.467411L900.895991,1002.235080L938.001522,970.953158L940.766857,941.018614L971.061998,888.004921L976.203131,849.631872L983.497857,833.643366L991.358200,825.206369L986.042081,824.093442L972.414082,817.839365L960.624834,810.406949L957.394743,805.445339L954.920689,798.015160L951.525530,770.108029L938.611730,695.188866L939.940689,681.053152L943.935050,671.934665L958.426962,658.714523L971.497443,639.799290L985.823885,615.748494L999.544893,596.603399L991.380176,583.754627L975.217017,571.351306L948.457798,561.319568L921.360735,543.651245L896.175076,520.941035L882.385214,497.308099L869.147815,471.845816L857.181450,451.719821L852.793774,442.520710L843.681372,438.695354L828.542228,428.413996L818.557810,418.863121L805.315144,413.380561L782.273401,407.367715L757.576345,396.868026L724.939746,371.937266L699.833182,344.270589L686.696800,325.997853L673.758828,313.139375L611.227372,291.886751L580.302358,266.504736L570.992371,274.412968L553.943639,266.637275L536.426094,254.421735L530.262171,245.055917L522.140069,235.447227L514.197422,224.424934L508.568091,213.844455L489.601040,195.356173L465.734933,175.343424L456.054156,169.644319L451.681463,171.301042L448.413613,178.988171L446.757648,186.410140L439.714705,191.313902L431.496586,200.480782L423.416061,211.701854L411.952862,219.145737L397.324511,221.685935L387.149293,221.310428L384.357276,216.892692L381.333369,201.563132L379.491767,166.573845L368.542692,153.098856L354.524353,138.651367L337.958951,119.342788L287.087721,78.400593L217.373834,19.433233L193.196954,1.392935L172.846519,0.000000L154.772977,2.012012L139.078838,9.816510L130.557272,37.073000L125.916367,41.272593L93.213619,40.653714L60.091143,36.255169L46.572443,19.632191L40.873031,28.496575L42.325378,43.902799L33.650498,64.147147L14.868532,89.205910L10.424358,110.881020L25.245085,138.253720L32.198864,171.411490L29.878408,184.731368L20.586255,189.237538L19.701901,197.785947L27.215397,210.420710L30.291777,227.009313L28.936637,247.574073L22.341733,271.121536L10.509492,297.630546L9.599882,315.348685L19.592945,324.274510L25.363095,333.730974L26.914659,343.784472L25.941923,358.346439L22.455146,377.418128L14.657103,391.585341L2.545536,400.824651L0.455107,412.496300L8.393499,426.601037L11.745844,441.326653L10.476662,456.607184L15.436103,471.514035L26.615206,486.025046L28.904821,502.551904L20.015311,536.501000L31.303866,557.998120L45.310263,601.256178L59.929132,632.217234L60.994393,648.956744L53.411991,671.047305L43.127902,685.690658L30.042486,687.709989L18.301458,697.785648L23.495595,715.456240L22.967343,772.064275L26.834920,819.953624L42.353797,864.022740L87.544373,908.924189L142.778663,954.150754L157.604478,973.188169L165.592273,986.355514L175.256198,993.153678L228.141259,986.444954L299.005803,987.428812L368.482916,1038.833651L447.003083,1061.486517L464.938659,1081.151098L492.773037,1090.393827L503.466587,1091.583037L518.047940,1091.919615L562.165172,1069.646709L596.603654,1061.553762L655.242886,1068.884397L684.094421,1089.137358L711.088910,1088.980303L749.170513,1097.642050Z "/></g></svg>