<?xml version="1.0" encoding="utf-8"?><!DOCTYPE svg  PUBLIC '-//W3C//DTD SVG 1.1//EN'  'http://www.w3.org/Graphics/SVG/1.1/DTD/svg11.dtd'><svg enable_background="new 0 0 1000 968" height="968px" pretty_print="False" style="stroke-linejoin: round; stroke:#000; fill: none;" version="1.1" viewBox="0 0 1000 968" width="1000px" xmlns="http://www.w3.org/2000/svg" xmlns:xlink="http://www.w3.org/1999/xlink"><defs><style type="text/css"><![CDATA[path { fill-rule: evenodd; }]]></style></defs><metadata><views><view h="968.491103042" padding="0" w="1000"><proj flip="auto" id="robinson" lon0="-65.4195212724"/><bbox h="192.67" w="199.14" x="-1082.44" y="-204.2"/></view></views></metadata><g class="" fill="#000" id="country"><path d="M914.803094,278.467368L920.942416,275.781218L925.180768,271.546631L926.242869,267.669377L922.609748,264.625899L923.076496,262.818706L921.561860,261.393488L919.366719,262.679059L911.268787,269.464250L909.793366,271.739672L910.141171,280.175989L914.803094,278.467368Z M928.798025,255.667974L931.211413,252.402707L935.337830,250.205328L933.677338,249.100477L932.003500,248.940294L929.021415,249.839782L927.228525,251.174639L922.564997,252.275383L920.024218,256.177273L919.788167,258.428049L928.798025,255.667974Z M610.922719,106.947140L609.988994,104.946942L604.582984,101.279228L598.607458,101.279228L596.123024,104.302115L599.634912,106.947140L606.839258,108.836444L610.922719,106.947140Z M712.651001,88.058208L709.579691,85.010679L700.701869,93.319509L698.856628,98.921706L692.631008,98.601345L687.473519,95.463458L685.532602,91.832709L682.840421,92.321464L675.407742,94.711844L671.127432,100.626186L673.983479,102.314238L684.504953,103.989969L688.870781,102.544240L693.033326,107.370180L696.394456,108.807694L700.898998,109.070554L706.538070,108.536620L713.612615,101.110834L714.445139,99.049028L712.651001,88.058208Z M559.432528,966.491103L565.576358,966.215916L570.541047,957.869935L574.030313,951.294189L581.265460,945.975269L588.331973,938.376811L593.284987,931.152115L599.057214,926.917515L607.756058,921.762884L614.631116,918.616712L621.049310,918.937079L625.845166,915.528041L632.079521,909.133013L636.449902,903.990703L639.458630,902.158858L645.464384,902.655839L652.970351,901.949387L660.406425,895.706328L667.193135,888.153046L670.899812,875.432810L673.394254,864.166548L675.427549,861.882901L677.882580,860.079806L680.767994,858.905125L687.663897,858.087777L699.809128,852.078828L708.207142,845.991842L716.126245,844.685727L718.482796,843.042815L721.432886,837.411736L723.005376,827.492655L722.032186,821.479597L707.551569,819.627213L698.049441,819.618999L682.356512,818.070554L674.915925,815.593864L673.334791,813.868806L673.200460,811.958920L674.768469,807.670919L676.371832,799.612432L674.434256,788.707597L666.905902,771.600761L661.652194,754.793751L661.161140,743.075663L661.555066,730.692192L662.176210,722.600834L658.294494,716.267394L637.032019,696.322392L629.754542,686.900263L627.419631,680.381990L619.160646,668.355833L621.420690,664.675696L626.346358,664.811237L630.478959,667.949210L634.161767,674.627671L636.893860,676.126833L640.667214,676.118619L660.700778,676.089868L665.363162,677.223481L668.142727,679.470170L670.492608,682.259023L673.893906,690.046449L677.656580,693.858016L685.590900,693.726583L698.042470,693.566399L705.040303,692.872266L709.168816,695.040917L714.310462,696.835803L725.321775,692.699760L728.375921,692.613507L731.595710,694.433037L743.041679,708.381398L749.659466,714.267144L755.179085,722.050457L763.469394,722.091530L770.475671,715.404863L772.816839,692.913339L775.035462,686.386852L778.550965,684.559107L782.681099,684.337313L787.650697,680.800933L793.058252,676.241838L797.690751,674.709817L816.690129,679.618033L822.055672,677.268661L841.551789,671.321299L861.523637,663.685838L867.312693,654.058337L875.678697,651.470740L882.342647,644.414403L887.568164,645.157824L895.501275,645.441228L900.442013,644.209038L902.957354,642.870059L905.742686,639.551362L910.441953,630.121004L915.937893,626.555868L922.834505,622.777152L927.592569,618.320730L931.558926,612.816947L933.442253,608.036047L933.493056,604.232685L931.419294,596.881648L928.858091,589.952620L925.951269,587.664850L923.735715,586.781778L908.548047,566.984547L893.283144,547.064089L878.290744,527.484534L877.328471,524.810674L884.102712,515.495290L890.096418,508.792157L895.064163,504.988786L897.444538,501.633112L896.125410,487.265736L896.376053,482.098739L894.281296,476.475831L892.842666,470.167002L894.960541,464.905538L897.420525,461.237711L900.490989,459.820689L907.774300,458.539209L912.912481,458.021688L914.788281,455.914638L917.847688,453.466682L921.742958,453.335249L929.320137,455.031567L932.894172,451.864832L939.327389,447.564481L953.724857,440.138469L957.060013,435.300062L959.525982,427.800122L959.386451,424.271947L957.978870,422.924752L954.511885,421.700775L949.139743,421.532376L944.759962,423.454594L940.346532,422.403124L936.784405,417.786515L936.696670,413.958508L939.071772,408.553298L937.916848,404.979946L931.222065,393.594511L931.371864,390.460642L936.672641,385.355271L939.737759,381.005644L944.080717,370.601866L947.366757,367.139418L957.262908,365.923660L959.847273,363.705722L965.068485,358.201952L972.752245,351.926014L983.726508,346.919230L987.141825,337.796948L989.148333,335.307934L997.896567,330.506520L999.483199,327.943576L999.362860,325.688679L986.355647,305.218009L975.467696,299.525329L962.714226,298.535477L957.897062,300.092132L951.994156,305.390514L928.481693,301.615930L923.680844,302.737216L910.762280,309.945482L899.062293,310.409604L890.651348,316.903208L880.704566,308.635261L874.581480,305.484982L867.951300,301.168238L895.463193,300.925909L901.157187,290.407190L905.509306,280.484034L907.579165,272.244865L908.095253,270.187128L911.247060,264.342498L911.487060,259.307002L913.906259,254.304366L917.971124,249.207266L927.765922,245.128766L931.692431,236.963558L925.980806,229.176225L916.040842,220.501734L899.834324,217.039334L894.417571,214.057481L880.195669,196.018529L874.708469,192.063273L871.714323,198.630725L861.308981,198.852515L861.586237,203.846904L863.424006,208.216996L862.851202,214.213556L861.330567,210.402044L857.987716,207.962348L856.182381,205.645870L855.913191,201.522212L850.965384,194.133313L843.304652,187.003176L838.900362,185.290466L835.792242,184.464915L833.130690,184.937245L833.613386,187.109964L831.641883,193.328298L832.677240,198.183037L831.319631,197.768207L830.012674,196.466217L827.893600,193.069542L825.019698,198.425363L823.152154,200.606301L821.718206,201.008809L820.174607,201.440068L814.731372,190.054841L807.283469,168.378366L804.775805,166.332981L801.134015,164.915998L800.372646,169.446238L800.739097,173.356293L796.809826,177.249921L790.140985,178.469761L793.707208,174.773278L796.539245,166.489055L795.110688,158.816811L793.771045,155.177837L788.495712,149.612591L786.155411,149.555090L784.004531,148.039537L784.372273,140.527486L779.251966,138.486213L795.647229,135.837077L818.763214,137.192449L829.992455,129.865228L844.267864,128.908253L853.215870,125.873043L856.558222,120.862278L829.570009,124.349277L795.773181,120.122984L777.529943,123.716771L771.023003,122.620153L759.564517,123.540162L736.602427,129.084862L708.845493,127.359844L684.429128,129.976122L677.325322,129.766655L680.680917,137.553882L687.459173,134.469384L709.195043,136.243689L718.637642,140.847847L715.019765,143.496984L710.883284,145.464328L684.701593,144.683962L634.261005,174.941673L627.329468,175.200427L621.394063,176.744735L613.541717,177.299208L599.829699,172.900394L587.263453,169.783028L575.235696,163.975450L560.871425,161.511132L544.131899,143.410733L544.199090,139.697834L543.433591,134.859567L533.234821,130.013086L478.299822,131.828463L467.459428,135.212785L434.130029,139.139256L412.440955,143.484662L392.695269,141.747321L386.075987,135.319572L382.019328,125.207679L380.464122,115.165614L384.683280,109.169126L381.107927,103.341034L380.236767,94.633807L376.651304,85.536398L361.291041,73.054669L346.246813,62.762064L329.652821,60.297753L316.793165,55.467701L295.044266,57.061290L291.716877,58.244160L287.126752,58.708272L281.619176,51.619267L278.460630,42.213802L275.737593,28.684707L275.090841,15.332202L273.225252,10.403558L269.544029,5.322943L263.271441,0.000000L263.271441,0.000000L254.333431,3.470592L248.165671,6.686536L244.531816,14.666835L240.851144,24.548759L244.945315,37.667141L244.683179,41.807190L246.427253,46.538674L267.471171,42.542378L274.383603,42.546485L276.998759,53.545538L274.305138,59.188813L268.203842,61.702410L256.584512,54.469655L252.942502,55.356807L247.837323,63.070103L242.200882,67.703008L218.514094,77.092030L197.940649,81.544217L164.114391,99.118850L148.779125,102.092450L148.775935,112.902555L142.330741,117.691532L143.562066,130.887917L144.892984,138.342462L146.919933,143.722879L151.609598,161.005946L160.269161,171.113761L163.763126,181.964993L172.254868,197.221946L173.858836,207.937705L171.134707,224.342002L169.914846,238.015013L160.557499,248.595285L157.640707,253.811495L153.316148,256.739967L135.341476,263.245860L129.203151,263.274611L124.328121,261.208661L120.620848,256.045841L118.042025,246.278796L119.918847,239.066468L116.804156,234.803148L111.989312,231.336634L104.879220,220.772812L103.997668,213.346930L95.903205,198.704655L108.821073,174.103804L114.334726,169.125877L121.760376,156.615355L131.863099,145.866833L138.077720,127.897886L138.102170,122.106755L131.827981,112.914877L129.613065,99.525461L133.704182,99.352960L136.305436,97.940089L125.835114,87.717312L122.886823,83.067982L115.763382,64.216008L115.359455,58.465948L115.835150,51.138725L119.684170,47.939225L122.656575,46.308671L151.221689,38.620009L156.866174,35.556044L161.993219,30.528838L164.435765,26.577715L161.724510,27.600407L158.289304,29.805971L147.991911,33.966560L134.198284,37.938216L116.256216,43.022919L111.913643,48.444410L92.375098,82.554584L77.359679,89.466972L71.742171,94.543449L67.350570,100.999940L57.945287,112.886127L53.788153,122.024611L43.033066,141.870537L36.399597,166.727272L33.645596,180.691759L29.675207,200.926664L24.890224,211.100273L18.687072,220.653702L12.069772,229.993566L6.272749,240.220605L1.382797,248.225633L0.516801,250.977491L2.590929,253.183085L13.324215,250.977491L17.620574,248.566534L23.569773,245.473775L27.123539,247.124890L30.326746,255.939053L34.396728,257.039797L38.324512,255.939053L42.341146,258.140541L46.537626,280.069201L50.124429,298.634051L59.940329,310.232991L67.619047,319.293644L69.207155,327.278196L70.651604,338.573225L70.898071,344.081095L68.230347,347.412104L63.911412,354.275383L62.354805,367.418714L61.481708,371.784767L60.233945,383.958790L60.446361,391.442286L62.359823,397.278758L65.807587,400.626207L73.022184,402.355381L79.508284,404.396709L82.889671,414.537638L87.757355,427.393499L93.304570,432.798713L101.616445,436.355640L107.699075,435.053624L121.896741,432.774069L134.014511,433.324448L151.621702,436.786907L158.238841,436.659581L166.811804,436.010626L182.090568,429.015885L187.580337,427.968522L193.640855,428.580510L202.367016,432.133329L207.072014,434.942727L213.127695,437.846592L222.048582,439.920782L227.841365,439.575768L232.214725,439.444334L234.699733,440.762780L248.120578,460.757156L259.760000,478.073574L269.946123,492.617563L280.952543,508.311601L281.819881,509.231639L287.083400,507.210841L290.483309,508.085699L293.542176,511.272973L299.046321,509.958633L306.995693,504.150894L318.360624,502.988525L333.130503,506.471525L352.759058,506.492062L377.248711,503.046027L392.514363,499.308373L398.556877,495.274993L408.333516,495.689832L420.010255,499.320695L426.224533,504.495908L426.830550,509.584868L428.965306,517.511980L426.148912,525.549990L418.377058,533.698897L413.887017,544.106825L412.685615,556.773773L408.518193,566.134334L401.377107,572.192616L398.407145,581.027439L399.600910,592.630585L398.359171,609.596822L394.688161,631.915894L394.320317,645.256399L397.242327,649.614242L398.476218,655.869654L398.020042,664.014422L398.975927,671.218617L402.509335,680.616105L407.286911,699.312500L411.476409,707.342253L415.222489,710.283073L419.029628,713.876952L429.792295,733.000488L432.416350,737.029737L431.517685,740.553789L430.410994,743.190667L429.086557,744.870548L416.865124,756.260052L392.590533,781.026978L390.561885,784.181371L390.618825,789.372977L397.563846,786.033756L404.877850,788.818494L408.471658,789.372977L410.067453,791.414296L412.068184,798.092738L414.502389,799.201704L418.054944,801.986441L424.968139,809.030429L430.728683,816.452285L435.087536,820.005083L438.142293,823.311444L439.043272,828.137498L437.653803,832.955337L441.170222,844.135351L443.644407,847.610109L444.888887,851.873465L443.515812,856.140927L446.555083,861.147699L449.808752,871.001058L453.793187,883.031272L454.200062,889.709704L455.886205,892.786054L457.807451,901.719380L461.181156,910.110544L460.302463,915.860730L461.695118,921.483590L480.620326,940.906892L494.619443,955.245387L500.692822,959.829105L504.062778,961.110574L512.275172,960.157687L522.031505,958.301199L526.779049,956.247562L532.043881,951.758311L540.599136,945.523469L547.550520,942.093895L550.278590,941.637987L553.002083,942.738737L558.819259,946.464035L561.967494,953.417650L558.967498,961.484336L559.432528,966.491103L559.432528,966.491103Z "/></g></svg>