<?xml version="1.0" encoding="utf-8"?><!DOCTYPE svg  PUBLIC '-//W3C//DTD SVG 1.1//EN'  'http://www.w3.org/Graphics/SVG/1.1/DTD/svg11.dtd'><svg enable_background="new 0 0 1000 1904" height="1904px" pretty_print="False" style="stroke-linejoin: round; stroke:#000; fill: none;" version="1.1" viewBox="0 0 1000 1904" width="1000px" xmlns="http://www.w3.org/2000/svg" xmlns:xlink="http://www.w3.org/1999/xlink"><defs><style type="text/css"><![CDATA[path { fill-rule: evenodd; }]]></style></defs><metadata><views><view h="1904.72284921" padding="0" w="1000"><proj flip="auto" id="robinson" lon0="107.853120532"/><bbox h="247.52" w="130.02" x="1479.66" y="-391.45"/></view></views></metadata><g class="" fill="#000" id="country"><path d="M722.568627,1889.889478L726.386071,1887.529246L725.850781,1884.709557L726.499561,1879.120531L716.792778,1887.554422L719.386602,1890.185294L722.568627,1889.889478Z M416.838717,1669.731034L412.347493,1664.891077L407.615436,1665.073599L398.312374,1672.607315L392.742344,1672.273742L395.197976,1676.874535L405.674649,1688.795062L415.323283,1716.343227L418.395183,1712.239635L416.595275,1705.832497L419.866922,1691.123783L419.505489,1676.138156L416.838717,1669.731034Z M768.432969,1668.912836L771.005008,1662.656768L768.919732,1662.593829L766.284672,1665.929560L758.366638,1670.159014L759.566982,1676.723483L768.432969,1668.912836Z M580.922246,334.840343L581.855090,333.034541L583.477909,328.044996L583.170669,325.786176L580.455333,323.269387L569.743499,319.374658L565.850126,324.892716L576.389730,335.349994L580.922246,334.840343Z M560.997388,325.987519L558.942930,320.507212L550.831520,311.528582L549.255928,319.739592L553.439969,322.375927L560.108681,328.479143L560.997388,325.987519Z M631.921751,311.698465L634.112005,304.664061L633.033318,297.856171L629.866111,300.586877L626.621811,308.382605L618.771618,314.680854L626.236794,315.058371L631.921751,311.698465Z M634.957914,274.305392L630.413667,273.839787L619.751237,267.585573L617.807998,271.920739L615.296100,290.173701L621.497038,290.431671L634.957914,274.305392Z M527.639318,1902.722849L552.488458,1896.800238L560.501542,1886.213811L574.588968,1874.639241L582.138830,1853.850353L592.263174,1836.988906L665.150651,1797.865893L667.414942,1791.282462L668.436361,1784.252168L662.165769,1772.419631L656.173042,1762.179461L621.034900,1720.012544L632.161608,1725.039248L666.528990,1761.940293L687.410555,1777.322580L699.403390,1776.894595L705.222994,1771.204909L708.635091,1766.364901L706.990498,1756.760419L699.497971,1743.146739L659.571882,1701.791847L653.411313,1691.532883L691.711713,1727.884080L704.690517,1737.110906L709.111372,1738.168278L715.641538,1732.856243L715.308352,1726.713419L715.000788,1721.212573L720.535700,1712.346631L728.019331,1705.096117L727.663441,1700.621192L720.855275,1695.189605L706.116268,1690.236352L689.745478,1681.657850L692.816592,1680.908883L710.181840,1682.866267L723.012766,1681.978836L724.697228,1676.415085L724.450972,1671.625477L719.614388,1662.826701L714.580909,1660.548335L708.369146,1661.297301L704.061597,1660.176999L717.072068,1651.063536L727.830854,1664.255401L738.488294,1670.763222L743.448468,1668.503737L745.134289,1663.298738L745.223487,1640.408091L747.365380,1634.963934L749.279320,1638.777990L751.788512,1648.401248L758.306522,1655.872020L770.640802,1659.321038L775.826946,1665.986204L779.053251,1668.755490L792.342755,1660.988903L801.777234,1657.483240L811.693582,1648.508243L841.911172,1629.865938L859.386662,1627.254002L868.011930,1604.451494L876.955571,1601.499694L887.612323,1599.680780L903.033410,1585.960258L916.732557,1571.106849L933.101399,1565.524232L945.380065,1550.551237L963.914957,1547.851188L965.930698,1530.838988L966.824026,1514.814909L977.232446,1513.732370L981.061308,1505.525217L983.193654,1497.777510L981.917284,1491.515145L977.145626,1483.307981L977.310581,1473.653229L980.236920,1465.861450L979.811365,1462.437596L981.411611,1460.964836L982.707564,1467.617433L986.401493,1474.081211L987.170285,1468.171291L986.352620,1463.230621L980.746929,1452.915000L975.281455,1408.769817L986.667285,1411.891582L973.564461,1379.068936L978.931690,1370.918324L985.300549,1365.392267L991.596720,1375.852750L999.737357,1385.022968L995.299124,1369.628072L992.465744,1339.089935L986.160174,1330.127355L975.819113,1305.159194L970.696694,1297.405005L970.039568,1275.306764L963.911800,1257.293257L959.385485,1223.236080L965.373017,1234.798304L965.709814,1223.015787L956.064856,1197.625355L953.057882,1192.048754L950.287534,1184.621665L946.669240,1169.647854L938.764027,1154.994987L930.388606,1133.279929L927.483849,1112.194159L919.021063,1101.021793L906.409899,1075.416962L898.680137,1052.335449L886.617194,1026.887076L876.927265,1020.611509L868.212794,1013.265875L855.586744,1000.230026L837.761984,977.286623L829.933782,963.136591L815.538549,948.105317L813.465222,942.950117L811.618735,935.119753L808.429909,933.703489L805.022933,934.956096L799.286150,925.596167L788.646312,915.405368L780.434407,904.012326L775.973154,903.238103L769.994841,904.232633L764.248277,906.781904L758.585177,905.126451L753.654998,894.734243L743.204451,883.807016L727.022636,873.465192L720.349701,868.234488L720.674162,863.859836L696.010725,844.372224L674.414706,830.939922L664.647527,810.627908L639.726037,789.245988L615.549526,770.451186L585.277068,732.345919L567.227359,721.507385L565.231257,719.165967L579.924826,725.025811L574.741415,705.161585L577.773297,695.783433L565.912368,682.024709L543.290697,660.430177L531.871820,655.439122L521.902697,648.100477L498.349656,624.108545L491.438382,614.869377L486.540113,605.630277L477.381934,592.684326L475.359564,588.429879L459.291903,564.325839L459.419752,552.613859L466.675151,543.513722L471.714282,522.066417L469.372525,511.154149L470.599635,499.795202L468.386939,484.270485L480.333164,438.956506L488.095120,432.733184L499.577504,432.129103L520.934890,404.569638L532.937820,393.879083L536.967076,380.564798L531.757942,363.248882L550.124634,336.381882L546.863232,327.220747L536.780091,307.331848L536.841619,302.203908L541.516162,302.254243L545.612004,303.386795L553.044565,307.715658L560.527357,308.684619L565.633984,305.582686L570.716075,305.928743L574.525114,303.374211L580.605589,302.336039L585.506234,307.451396L591.651644,308.848209L610.603301,295.131757L611.201645,285.687540L610.146290,277.224862L612.018943,265.540682L623.994167,258.915227L635.571603,254.812849L642.641318,249.942840L652.074087,238.183046L665.053497,237.950241L670.090594,236.786212L661.808959,230.028541L648.144129,219.105468L643.163924,217.834460L630.849848,223.132416L612.262088,225.139594L607.103956,219.476703L598.631159,223.780502L587.650609,210.667715L577.081686,209.837150L562.408868,199.901791L556.882872,194.660367L554.142413,187.115944L549.538815,183.183258L544.515020,183.674058L538.199770,179.659557L528.584890,175.701671L520.986830,173.335740L517.741605,175.160528L514.098572,176.098090L512.604891,171.032727L510.327873,155.792411L507.410265,142.263394L504.420062,136.184693L498.812006,131.559558L494.033639,129.344516L490.940779,122.422462L490.193772,108.766910L492.183485,99.503609L497.544809,97.854826L504.025867,91.190420L506.275820,81.756902L509.656064,72.996601L490.140057,60.705481L480.228244,56.312571L470.435628,58.175472L458.564246,62.096351L452.123800,62.870453L448.564776,61.328541L439.371416,50.283265L435.082284,48.357394L426.062040,47.652498L418.572363,47.753197L415.103298,52.561572L408.743404,54.172743L402.152588,54.449663L394.368372,48.451799L382.878558,40.641238L366.008211,35.134108L362.979210,28.777217L357.613762,21.186582L350.334821,14.162283L338.728990,4.840414L329.527091,0.000000L325.980431,2.977271L321.384460,8.270838L301.838741,19.449402L293.083052,23.804927L288.573524,26.920483L285.134282,31.584332L285.807061,43.108409L285.890591,55.953836L280.810439,62.480256L275.781501,67.414345L269.685588,67.930407L263.614671,67.697550L258.322248,69.749208L243.239580,82.644251L234.893067,81.618450L226.982530,74.337088L223.223234,69.063225L215.698221,70.258975L206.814446,76.426478L204.085151,87.502621L203.375703,97.842240L201.976278,102.436165L198.871809,103.776577L195.964907,104.015711L160.065529,74.141993L157.903963,72.593824L153.421172,78.729832L151.015265,94.563538L147.910000,97.603103L145.262467,96.388538L129.094805,76.118105L125.498423,74.173460L122.712224,74.865729L119.990918,81.423359L113.476554,91.089729L108.240452,96.961209L109.177915,103.499684L103.395641,109.264053L96.485804,115.003193L93.975799,115.613603L88.388623,113.304111L80.351433,105.670769L74.127919,97.710085L60.681392,89.805925L45.944954,83.116245L36.024473,77.880236L30.661090,76.602691L26.265078,78.937511L24.402001,82.134497L22.292232,90.045065L16.232385,103.015122L10.649675,113.322990L4.927993,119.943089L0.262643,124.511671L8.431868,136.776204L23.811112,150.418589L42.671718,169.881218L49.092617,178.822677L60.779871,185.712764L64.881466,192.483250L68.929313,202.846542L71.216228,210.567041L74.298816,215.128845L78.295026,216.922102L82.797911,214.883452L85.778449,210.793558L87.004562,199.417291L88.782558,198.202893L93.531867,207.559387L97.238622,209.170181L102.056742,210.371984L106.261618,214.443002L108.450944,221.546807L108.421149,228.820463L105.349269,236.993850L104.229328,245.551014L104.593742,258.751635L103.677979,267.975675L108.587793,276.136353L139.435765,316.203508L152.316901,322.778613L181.764958,330.612125L192.778657,336.023238L202.568829,341.277061L211.041111,338.716214L217.688233,326.786601L226.867698,320.098234L244.250666,309.817170L249.670735,309.263478L260.795693,313.328082L279.895524,325.295402L294.141123,336.551766L302.762190,342.447376L309.494273,347.770426L309.532313,353.754155L305.696196,359.599477L300.158124,362.858773L293.124581,368.509072L289.536760,374.222315L292.597933,376.367933L304.442835,377.796250L318.934812,382.842562L324.057665,388.769802L325.459264,393.860206L328.426420,402.147107L331.248609,404.645146L343.759133,403.160165L347.977890,405.016391L353.209410,409.314041L359.468138,420.432649L360.620857,428.770125L352.854550,437.911941L350.287030,443.474579L350.145560,452.221338L345.213959,462.711277L330.546477,480.236746L326.053820,481.293949L292.513379,471.634434L277.754702,472.232251L270.601707,472.546891L267.224216,472.968510L265.714874,476.662403L271.604924,487.272203L274.485020,497.787735L271.753662,505.792457L262.133425,512.802938L258.655980,516.163456L258.809058,520.675631L262.522614,525.376623L273.115080,530.222380L285.260918,534.778673L327.197402,562.066506L336.261321,568.479501L348.384493,577.944872L361.076115,585.320869L393.558255,595.000363L408.202237,601.375783L412.264296,604.969444L412.815621,609.374999L410.094624,615.014131L408.632680,624.914143L409.403988,630.861739L413.499469,636.639430L420.263489,645.217898L434.611314,658.542008L442.259746,664.433104L449.922528,665.773709L456.937453,668.989908L465.202393,678.896599L474.866720,690.981084L477.163190,699.415101L482.102976,710.222033L491.164807,722.671800L502.847803,734.712529L518.902846,749.636085L528.413369,760.166350L532.691513,764.251325L566.035976,789.837655L574.593637,799.260285L587.654108,817.457313L592.465823,820.126135L597.134747,823.701353L601.251182,833.690582L603.154138,840.853636L607.715568,862.808661L613.985981,869.336020L620.059709,877.348882L623.021031,883.190157L628.096201,887.527056L633.102425,888.357928L638.265815,883.485998L642.197950,878.853261L644.491410,880.225457L651.361692,895.577705L656.415457,901.173509L665.187372,906.498652L673.393661,910.621548L692.603593,929.121089L702.446713,935.862504L708.780012,938.008931L714.427237,941.149889L716.785764,946.972306L715.565458,952.926908L712.569179,956.785438L694.701519,967.498680L692.754327,972.156609L696.385580,979.275683L702.445842,988.194976L708.748374,995.849069L716.445936,1003.352086L731.688384,1015.557059L744.756890,1025.124631L752.622744,1035.661527L757.094531,1042.704993L756.010109,1051.133217L752.246255,1060.335631L749.398018,1068.253968L743.341240,1072.842566L742.235281,1078.198569L746.031487,1086.444155L748.990370,1092.127931L748.669117,1099.146090L751.129961,1113.622960L753.801980,1120.729191L750.720907,1134.161122L747.173180,1146.346745L738.994562,1156.983953L739.480817,1164.826514L739.014926,1188.190446L741.151973,1195.630116L744.106791,1201.999771L747.593735,1205.411183L758.479013,1228.277641L768.351660,1249.085822L777.662776,1266.167845L780.176115,1276.980972L776.427260,1304.353564L771.228398,1329.497959L773.262664,1342.035500L777.979287,1354.585603L783.352378,1371.321135L786.907423,1392.707816L786.362820,1406.655073L783.660010,1415.321746L777.713573,1424.196108L772.212947,1428.733988L764.303151,1421.187637L758.571599,1420.860356L751.155264,1423.126150L745.493101,1426.600366L734.533788,1439.641255L722.198523,1452.323378L703.733101,1455.564712L697.339527,1464.980311L689.642570,1466.283137L674.827898,1466.755176L665.338271,1468.958022L666.231918,1473.690993L667.546415,1496.034118L668.233989,1501.264293L666.860616,1502.655230L660.203429,1503.322376L648.491304,1499.904826L632.558909,1494.372546L621.515464,1493.503997L616.785626,1503.240556L613.778324,1507.048324L609.676899,1507.633650L605.492567,1509.358159L604.422167,1513.700901L604.566826,1519.138768L607.524479,1528.428454L609.643376,1543.206349L609.990795,1553.276461L614.581456,1559.652100L640.005573,1581.069962L647.427766,1586.426001L648.501660,1589.623260L645.381730,1601.266822L650.451471,1617.643338L643.048299,1617.341235L630.140601,1610.311039L623.889994,1606.012361L617.049311,1609.448786L614.516104,1608.794229L609.005874,1600.738142L601.994099,1592.499534L595.457544,1591.977147L582.012278,1595.218463L568.182481,1597.471650L562.860836,1597.446475L560.809183,1598.931816L553.709289,1611.166999L550.091667,1609.064863L535.562650,1604.413731L522.526836,1602.632581L520.140462,1605.792078L522.553647,1615.780368L526.200805,1625.523201L524.875225,1629.664536L518.220264,1634.787707L509.622292,1644.027040L504.468125,1651.214588L500.628759,1652.976860L486.353353,1652.662168L472.223896,1653.599949L467.085739,1660.384695L462.177456,1665.665219L457.689653,1667.100212L468.591505,1676.282914L478.168989,1685.704787L480.884034,1693.339215L487.020116,1698.204356L496.264568,1694.440638L502.380997,1693.974893L511.347330,1705.310107L521.982019,1707.141617L529.342409,1711.415141L536.477476,1720.658713L538.161815,1727.160284L538.332927,1732.868831L526.695130,1737.035379L517.697558,1743.788716L513.142239,1770.871332L513.584261,1825.093383L517.437767,1874.544832L526.736113,1881.663286L513.732594,1900.866132L527.639318,1902.722849Z "/></g></svg>