<?xml version="1.0" encoding="utf-8"?><!DOCTYPE svg  PUBLIC '-//W3C//DTD SVG 1.1//EN'  'http://www.w3.org/Graphics/SVG/1.1/DTD/svg11.dtd'><svg enable_background="new 0 0 1000 629" height="629px" pretty_print="False" style="stroke-linejoin: round; stroke:#000; fill: none;" version="1.1" viewBox="0 0 1000 629" width="1000px" xmlns="http://www.w3.org/2000/svg" xmlns:xlink="http://www.w3.org/1999/xlink"><defs><style type="text/css"><![CDATA[path { fill-rule: evenodd; }]]></style></defs><metadata><views><view h="629.713548331" padding="0" w="1000"><proj flip="auto" id="robinson" lon0="47.488465241"/><bbox h="111.97" w="178.09" x="623.68" y="-318.54"/></view></views></metadata><g class="" fill="#000" id="country"><path d="M934.987912,627.713548L968.659171,623.798203L979.941550,615.715050L991.514140,612.267887L994.306889,608.494825L999.204725,605.736173L971.967601,595.279908L949.824239,595.711379L942.263230,598.965767L937.124192,597.836600L926.498962,591.203887L917.923856,590.414387L909.602812,595.321219L907.518568,598.162498L906.398047,601.123118L900.736101,607.581395L916.388384,617.716331L924.939163,625.524076L934.987912,627.713548Z M25.230650,497.486480L28.117796,491.675251L27.042700,491.376886L23.301227,492.910024L19.917030,500.369139L25.230650,497.486480Z M26.670915,472.368676L27.392153,468.535806L24.166246,463.344209L18.825823,468.944339L24.163022,473.929364L25.678638,474.365439L26.670915,472.368676Z M4.263594,347.152819L5.782796,344.439835L6.762228,341.084178L4.621091,335.015526L2.066075,337.384230L0.795275,345.587460L1.780460,349.241494L4.263594,347.152819Z M751.033453,0.000000L732.085113,2.969565L713.670653,5.851936L692.951109,9.096910L668.040083,12.998240L648.506393,16.059649L619.990440,20.525564L594.428860,24.523334L570.434324,28.277859L546.428647,32.036991L525.995878,35.231576L513.965156,38.949427L500.057055,47.087442L478.700916,59.572294L456.916931,72.295988L445.620183,78.887400L434.467489,95.806759L428.817099,104.372105L418.593790,119.859645L410.854669,131.541976L401.619827,145.501217L398.002381,157.931973L392.411978,177.133708L386.812218,181.972040L377.515606,188.219656L368.972339,192.663230L355.170147,192.025154L346.567744,180.223078L337.445846,167.709549L332.951985,162.683042L329.197238,162.403027L315.489159,163.991310L298.968498,165.905513L279.208992,163.849007L256.414152,161.475765L235.046688,159.254009L224.388511,157.587694L209.956291,149.462708L206.262725,147.846896L202.575032,147.465895L186.051771,147.263919L169.680895,147.066533L153.433971,149.637142L137.664573,148.696115L121.477082,150.183397L115.931655,153.286496L109.552327,153.102880L105.743700,155.843343L102.325591,157.124063L98.038641,154.782963L92.981727,155.297086L85.379214,153.286496L80.177220,147.989197L75.294159,143.329976L70.386772,140.763966L64.961579,139.148163L60.352670,139.116031L54.638231,141.957459L51.205164,144.707084L42.645327,153.864885L42.464832,157.124063L46.937401,162.600415L45.818091,165.157275L40.648822,168.375160L39.522643,177.028128L39.003680,181.779241L38.879062,193.103916L41.790073,202.055356L45.169169,205.342148L45.545572,209.179804L44.246520,216.850538L39.442796,219.223833L36.251776,226.513575L34.221003,229.919743L30.566716,233.803329L15.959235,246.711911L21.058379,278.652926L12.941744,314.133234L21.155683,340.739890L21.308189,345.004467L20.740118,350.696680L16.325644,348.080099L12.994294,344.999876L10.163266,353.790668L26.912207,363.178194L30.933622,375.154698L34.491562,381.452410L34.758022,385.262461L32.925547,388.549198L33.897770,392.845819L36.147216,397.004720L43.267139,417.523694L43.232514,420.727760L42.378546,424.271507L46.201904,437.578874L50.821398,450.541902L51.329207,468.655153L63.938210,482.949209L68.643058,498.592723L68.886332,503.545569L66.286310,538.587095L88.087329,578.828920L89.659586,592.007157L101.579030,587.715398L118.427053,594.302214L126.442842,599.746085L132.750348,600.576895L141.339178,597.662176L153.586168,597.102182L161.579653,594.797946L182.352993,580.876116L193.907047,585.902301L204.916896,583.983630L217.054731,581.004640L222.403332,569.469642L226.610886,563.855902L245.248008,557.392977L256.101395,541.745130L265.801978,531.853309L287.172594,526.629683L310.385867,523.852620L335.039479,524.628362L348.267357,523.017206L358.446307,519.928007L373.457152,512.230245L395.150568,506.409862L408.504787,501.498333L426.148165,482.995111L443.919505,473.736573L448.661184,468.480722L454.572218,465.166548L478.520178,469.908295L492.571321,469.132540L504.283028,465.340978L510.404771,464.973756L519.220170,458.042436L530.726570,444.542379L536.525233,436.311946L539.562609,426.777832L543.848095,422.678657L563.430096,409.729259L579.317728,401.774135L608.155413,391.835930L629.452847,389.683029L643.142809,382.521979L658.009765,372.088278L697.540701,362.443719L722.300088,354.405793L744.757907,344.012919L750.900404,340.037543L756.045636,334.299406L762.677624,332.499925L773.308742,325.315762L782.980616,320.592111L793.244209,314.050605L792.968401,304.171769L787.791605,285.722370L791.620618,265.551502L798.254678,254.065958L807.523577,244.880287L817.917589,237.443620L858.092678,220.706569L852.233310,208.312199L846.369849,195.917878L840.502872,183.528204L834.623955,171.134007L830.518234,162.462703L824.446217,159.410083L820.230379,150.238482L815.916680,140.846593L811.593345,131.454759L807.276812,122.067576L802.958506,112.675864L798.630875,103.284220L794.310011,93.892646L789.988362,84.505737L785.657356,75.114317L781.333760,65.727568L777.008996,56.336316L772.683855,46.949743L768.349760,37.558674L764.023128,28.167702L759.696072,18.776832L755.360710,9.386066L751.033453,0.000000Z "/></g></svg>