<?xml version="1.0" encoding="utf-8"?><!DOCTYPE svg  PUBLIC '-//W3C//DTD SVG 1.1//EN'  'http://www.w3.org/Graphics/SVG/1.1/DTD/svg11.dtd'><svg enable_background="new 0 0 1000 1579" height="1579px" pretty_print="False" style="stroke-linejoin: round; stroke:#000; fill: none;" version="1.1" viewBox="0 0 1000 1579" width="1000px" xmlns="http://www.w3.org/2000/svg" xmlns:xlink="http://www.w3.org/1999/xlink"><defs><style type="text/css"><![CDATA[path { fill-rule: evenodd; }]]></style></defs><metadata><views><view h="1579.87074454" padding="0" w="1000"><proj flip="auto" id="robinson" lon0="26.1036935106"/><bbox h="414.11" w="262.28" x="234.87" y="371.35"/></view></views></metadata><g class="" fill="#000" id="country"><path d="M995.271918,1577.870745L997.640659,1576.705166L999.683318,1574.044602L999.133251,1573.031684L995.534477,1570.035810L990.456911,1569.193839L988.405371,1570.749671L984.726518,1574.441234L985.362169,1576.845522L995.271918,1577.870745Z M743.637331,0.000000L727.724786,2.969363L727.025643,3.044222L713.993683,4.279384L707.375513,8.440292L703.297648,15.895119L697.197443,21.372502L689.071251,24.859864L680.538025,27.255501L671.586582,28.559385L661.827759,34.966600L651.251714,46.471299L645.799346,53.708819L645.458339,56.685006L643.089380,59.261907L638.692993,61.439507L636.144943,64.053905L635.439062,67.111359L633.084136,68.571466L629.069044,68.446670L626.145999,70.680529L624.308962,75.279367L620.628348,78.074916L615.100253,79.048377L610.251181,81.644298L606.081628,85.850269L602.916896,87.984496L600.756865,88.046901L597.248160,91.466713L591.447595,99.560968L590.369605,103.324282L581.470803,133.833767L577.232043,137.435681L569.046286,143.722106L562.294018,151.251248L559.341402,155.690289L556.245222,157.663249L541.429998,161.365760L535.892844,163.345060L529.175320,166.223535L527.387113,168.814849L525.315705,178.231506L520.121004,191.739965L515.932148,201.708170L513.112332,210.377807L508.430927,221.146713L504.647657,224.763529L500.393250,228.068052L494.966591,229.698463L487.632268,230.741680L481.019865,230.435586L475.882772,230.598003L468.581825,234.402331L461.931599,234.652206L451.500617,232.459559L443.072240,230.329390L439.276733,229.885867L432.074405,222.852045L427.216533,222.976978L419.842512,222.414779L415.763545,220.803149L412.077817,217.205130L404.031174,210.127956L396.108395,204.400205L389.007001,201.008623L382.315000,199.422164L375.814530,200.833737L370.741017,202.345259L368.761753,203.101026L364.744116,206.055423L360.516603,211.658302L356.835998,220.434600L355.338142,225.806730L351.136492,237.207185L345.636324,250.888017L343.119635,254.823610L340.297372,257.747187L335.918261,260.345914L321.538412,271.209211L314.028767,283.446391L309.484188,287.006859L304.132495,288.674635L299.633162,289.724015L297.080189,291.754048L294.041953,297.943932L291.567610,300.123762L288.878960,300.973200L280.990191,300.236188L278.483588,299.605353L257.432497,300.817053L251.120615,298.855842L246.617741,298.068852L239.335414,300.629678L236.416387,298.943285L234.260586,293.809041L233.545378,283.490116L234.305691,274.726129L238.487499,268.092054L241.939475,263.231990L245.391732,256.885107L245.931628,254.048986L245.405493,251.487727L244.992560,246.271502L244.877350,240.936599L240.850468,229.267434L235.923626,213.788316L229.146205,196.524111L227.001214,191.777438L222.601460,184.283067L205.753527,170.032475L203.180573,168.096768L202.163922,194.956441L201.048077,223.407998L199.892182,251.856298L198.695742,280.310631L197.459016,308.761543L196.182302,337.199587L194.865049,365.634046L193.507544,394.055471L193.069100,403.055994L187.487600,402.937495L176.086558,406.417496L168.704121,410.932372L165.337836,416.488032L161.057462,419.860985L155.857406,421.064210L153.452664,423.900691L153.846661,428.382554L151.699863,431.810624L147.014041,434.178934L139.673699,433.487153L129.669811,429.735119L116.750324,428.850036L100.915398,430.825863L89.643406,429.897174L82.930833,426.045066L75.716247,423.850820L68.002241,423.302241L63.585319,421.687629L54.526247,418.819825L52.985940,413.900467L52.067668,410.171610L49.620806,406.242879L49.468321,403.080941L51.622718,400.673483L52.084930,396.793853L50.837405,391.441704L48.404063,388.834040L44.791455,388.977528L42.631514,386.931236L41.928703,382.694910L39.932224,379.481568L34.988339,376.211880L28.187823,378.676643L24.876234,382.401661L22.783740,388.216416L20.973791,391.129789L19.924311,396.001671L19.400629,399.444760L17.522359,403.112125L15.680346,404.602689L13.879289,403.929135L10.374775,405.394727L2.585125,410.820129L0.316682,413.675996L2.060902,415.203621L15.148849,438.684555L25.495582,463.819830L36.441870,508.192906L43.953454,530.154276L60.006461,566.685554L72.906241,589.850595L84.123185,607.154860L86.364855,612.710767L90.418892,636.901464L90.927820,646.269607L89.840232,661.274946L85.314701,670.659490L78.208660,676.845741L73.367023,678.503246L69.777619,674.260093L65.875801,676.932974L63.228903,681.843662L64.207912,690.403415L68.202669,695.823443L69.651934,702.593426L73.858215,706.107579L77.670342,715.793304L83.053230,719.817054L85.289332,725.755040L91.133209,738.747515L92.084810,743.824624L92.195007,749.680914L86.086483,752.970605L84.448128,761.647839L85.005073,768.989192L87.702360,775.877539L90.238301,779.175926L90.958978,767.677386L93.230412,763.899864L95.109447,762.400549L98.949760,761.848556L104.499141,761.497304L106.777806,762.187275L109.701847,763.830853L110.323743,768.989192L110.294202,773.195704L109.828379,775.934072L109.893362,780.281933L113.652430,780.061978L116.418447,778.974848L124.191668,779.383292L126.630210,783.682484L131.742444,783.387007L133.495721,784.977667L136.008033,788.543527L135.285079,793.596045L133.770774,796.447637L138.779349,795.843247L151.133992,805.367376L162.572746,805.581668L166.557620,806.747761L171.534102,807.460105L194.792624,789.587770L200.066926,786.656652L213.228388,785.166301L219.203278,781.727484L225.017376,780.501894L228.780556,780.319641L238.659539,783.047534L244.034443,783.122971L255.043552,780.860126L267.619936,780.834987L293.390942,761.321683L302.485128,760.337004L310.133630,757.527747L319.840546,757.540287L329.738552,760.939089L347.946746,762.093185L352.397359,761.309138L365.367972,755.929072L371.329888,756.418052L396.900205,760.832467L418.348405,768.091622L430.742881,767.733872L435.498216,760.719575L441.147100,755.189376L450.125618,754.361983L466.197745,758.687726L471.338769,759.151755L474.884728,757.596715L476.507508,747.231536L485.307898,740.018142L495.268620,738.365729L518.533033,741.457942L528.667119,738.115384L554.504418,726.186436L570.724182,715.905752L593.539752,698.992780L599.057096,696.303792L619.606340,678.129359L633.050392,668.903047L656.744558,647.843743L672.995544,629.302280L693.944388,608.397735L708.674530,595.398655L714.062051,592.435086L722.227541,585.961568L741.310382,563.573369L752.632595,547.315881L764.503966,529.476902L778.045311,506.364761L786.846652,495.524643L796.430541,475.767377L806.507595,462.206983L832.853901,434.072986L839.140449,432.477505L842.758221,430.670044L846.893533,427.846502L862.070857,413.925408L867.566640,406.055788L877.761365,386.987385L887.340418,349.130332L890.801521,338.535721L900.335593,315.425275L903.430758,300.660907L897.432390,300.767087L887.143020,301.073133L881.059837,301.248017L874.254175,301.447883L865.966518,299.649074L861.198210,300.030074L859.555345,299.093188L856.508865,298.218755L854.835801,298.624742L852.686844,307.781000L850.565353,321.401681L850.628608,329.856715L838.823845,330.118971L823.978796,329.194827L813.559808,325.541869L802.616266,317.479898L796.632547,304.914272L794.172049,297.019525L790.016034,296.563565L789.427934,295.220663L789.696164,285.588926L790.448559,275.469487L791.404662,272.783396L799.982885,260.327174L805.306289,252.587194L808.787289,245.097072L815.880173,236.313878L823.242782,230.697952L825.895653,229.892114L827.663864,230.123246L839.520566,237.844370L851.707753,245.159542L854.512080,244.334942L856.014180,243.622788L855.224041,239.000050L855.246598,231.872356L859.352512,222.789578L860.169398,205.362103L860.969509,199.222296L861.645914,187.093399L862.459052,172.399078L863.175840,159.242889L863.984832,147.886176L863.238364,142.504750L862.527505,139.551930L860.529362,133.540375L858.502031,121.012491L855.798505,111.550221L851.981051,105.308951L850.838177,102.019906L849.733173,97.620057L846.214398,89.869128L843.233474,85.357279L842.548776,81.744141L843.155804,72.396500L840.445558,55.605588L838.461611,43.364227L835.199828,30.106585L833.003401,21.229016L832.691420,19.700580L832.567422,16.338047L827.744973,12.688587L821.024974,10.318019L812.391981,9.226316L801.079061,9.681711L787.099117,11.671736L772.322807,9.251269L756.737743,2.420404L743.637331,0.000000Z M618.373965,432.284297L625.574570,430.003133L632.764503,424.044068L641.180887,419.019331L654.581735,413.563760L660.747797,412.179495L663.110085,411.387576L664.498599,412.416444L665.828295,415.540315L667.852128,418.152721L672.662718,422.697548L674.761209,423.794716L679.572729,430.520458L684.904791,435.132450L691.035525,440.441790L695.280504,443.083718L697.486023,443.818938L699.010714,448.528981L700.646075,452.023734L701.474933,455.293911L701.015030,458.482817L698.362371,466.279428L694.750696,474.242273L692.089816,477.553834L688.993529,479.645167L685.879766,482.788125L684.288389,489.172620L682.405503,496.681670L678.421806,499.773067L675.352611,501.800642L671.136613,504.287755L661.927641,508.329702L656.928445,509.896591L656.240760,510.033379L653.142967,509.672754L648.940807,510.045814L645.594551,510.910054L643.025558,511.233360L638.524456,515.746894L630.038627,527.929468L627.831719,530.477424L626.897102,535.262261L624.851643,539.046339L622.480221,542.003850L620.332966,542.718356L614.136072,541.544078L606.211614,540.028049L601.816701,536.355878L598.025524,531.527641L596.096089,528.016474L593.944124,526.089880L593.238876,525.008466L590.084975,523.386293L588.911585,522.547213L587.867759,521.950523L586.722304,519.613403L586.097420,517.586955L586.827191,511.935920L584.766929,508.565984L581.240871,502.813862L579.084376,498.099897L576.134698,491.661333L574.437076,486.148554L572.676369,480.435604L573.132605,477.983316L575.328989,476.308927L581.622421,473.433004L586.508224,471.210521L590.181788,467.126234L594.310007,461.054902L596.367662,457.399121L598.278693,455.729912L600.424093,453.151201L604.255937,447.432517L608.519112,441.083596L613.080427,434.259953L618.373965,432.284297Z "/></g></svg>