<?xml version="1.0" encoding="utf-8"?><!DOCTYPE svg  PUBLIC '-//W3C//DTD SVG 1.1//EN'  'http://www.w3.org/Graphics/SVG/1.1/DTD/svg11.dtd'><svg enable_background="new 0 0 1000 948" height="948px" pretty_print="False" style="stroke-linejoin: round; stroke:#000; fill: none;" version="1.1" viewBox="0 0 1000 948" width="1000px" xmlns="http://www.w3.org/2000/svg" xmlns:xlink="http://www.w3.org/1999/xlink"><defs><style type="text/css"><![CDATA[path { fill-rule: evenodd; }]]></style></defs><metadata><views><view h="948.968238321" padding="0" w="1000"><proj flip="auto" id="robinson" lon0="25.4183063283"/><bbox h="165.14" w="174.2" x="321.88" y="137.4"/></view></views></metadata><g class="" fill="#000" id="country"><path d="M396.305738,946.968238L416.779275,938.976893L435.626948,916.852531L453.358569,896.042541L470.939679,872.020569L481.724213,852.618711L497.055330,836.832276L516.936663,824.670744L537.127741,814.387405L567.882862,801.803191L567.873947,801.821973L574.327593,791.435277L576.776195,780.090655L577.371920,764.332129L579.337144,754.123828L582.659656,749.475154L587.830181,745.850127L594.517459,741.145107L614.896122,729.152477L631.933520,721.489224L652.476085,716.474305L674.770485,716.417958L696.260858,716.361610L708.479170,716.324045L707.619431,703.129385L705.722173,688.112879L702.164196,682.262187L698.040744,672.100981L696.166941,660.916186L696.092432,655.497542L697.008536,653.553967L715.314881,645.590385L723.161455,641.646169L734.734971,637.091547L755.302882,630.762045L773.654631,625.118098L790.482017,619.643199L808.309534,613.820851L815.615938,609.933032L824.665425,606.026437L846.259937,598.175703L852.447485,595.489931L864.845262,591.095037L871.047258,589.385914L894.973482,580.398947L922.395169,570.097309L932.005978,566.491275L950.328927,559.607894L946.058307,552.640013L942.253362,554.396068L936.920896,559.288610L934.085859,560.603307L932.644098,560.453056L931.775788,559.222876L930.737195,556.095779L927.076796,547.155870L922.829473,540.760845L918.187545,538.281720L914.424890,535.342457L916.227136,532.497103L918.099760,530.459343L917.391317,528.365240L915.334574,525.294517L907.088766,520.852774L907.014833,518.937098L914.560199,515.077577L919.406821,510.504379L922.741395,506.109607L927.100552,496.493714L930.699146,486.915408L933.248216,483.797768L934.308493,477.440419L933.995198,470.266111L935.925600,461.147996L937.014699,452.508810L934.636926,449.156434L932.724587,443.353168L935.537217,433.446313L939.666077,426.628904L958.604726,419.520404L971.838952,413.106797L974.687888,410.280305L979.292763,404.796350L981.915827,399.443865L980.202981,397.838120L969.966281,397.706656L967.509112,395.650176L960.679271,376.832006L965.432110,355.253138L966.029405,346.773727L966.238310,336.275416L965.141681,328.612969L962.002560,325.392113L960.125281,321.279185L960.982097,310.010891L964.029532,308.686867L970.963098,293.803338L974.102014,285.032857L970.822122,278.037132L967.258939,268.036532L965.698146,261.679342L964.788875,259.594710L967.551275,255.650811L972.059153,251.838374L977.004915,250.786668L982.259350,248.993132L999.171773,230.475575L999.472556,226.879111L996.646942,220.672156L990.764317,211.319463L989.500287,207.497628L989.051143,196.257482L986.700447,192.895765L977.882617,185.317813L971.144105,177.345462L973.504920,169.271366L974.891431,160.444460L971.580816,155.599048L966.588775,150.575217L963.608153,143.213186L962.299359,137.748001L958.319574,135.569439L954.637741,135.484926L951.848933,138.903015L948.923848,138.602524L945.416122,137.428729L944.352981,132.695989L944.281187,127.568852L941.924060,124.094416L939.688106,119.267766L939.456945,116.713584L934.723307,114.159401L925.828465,108.525173L913.397922,103.548269L903.258853,97.989158L898.816195,92.570900L889.226757,90.505013L880.917192,89.612925L873.315514,84.589060L865.337325,84.016245L857.514633,82.729759L855.832987,79.405555L855.716058,71.977739L853.004698,70.033923L847.284058,68.137059L841.075777,68.230963L837.268702,69.301471L835.048469,68.766217L829.989904,64.390281L825.318266,58.831151L823.687543,49.966586L816.553099,44.257202L808.294176,39.749791L785.074390,40.219313L781.464238,38.848309L776.046460,34.359677L769.725469,26.931834L764.695658,18.452256L760.348773,6.939553L758.311668,0.000000L743.596983,2.535426L722.330101,6.207097L698.874502,10.254386L674.656922,14.433141L650.672428,18.583722L627.899889,22.518322L607.234661,26.086694L600.924812,28.058688L603.817550,38.134635L602.209765,48.745829L597.975215,56.943675L591.356844,67.057161L588.339787,71.057479L581.629722,78.945425L576.046201,84.485765L564.680474,93.829213L557.506095,99.153567L557.372032,103.980227L568.800845,126.582863L573.860446,142.809401L575.749094,157.467724L575.475540,165.881459L574.657169,183.195609L573.678203,203.788475L572.675730,211.901659L575.569761,226.597403L574.751734,238.044112L566.465346,250.843009L563.956958,263.425926L559.536007,280.384691L553.392699,303.926015L549.127199,316.292964L551.140424,324.340405L553.002762,329.739799L554.916777,336.998466L558.920890,347.938120L563.744286,354.389233L566.459328,357.168754L582.545977,370.934904L589.170015,377.592620L599.234146,390.795384L606.668342,399.547158L617.314135,401.603639L630.091040,404.927815L637.088879,407.472595L642.016341,406.242461L643.733633,403.134262L643.693032,396.542256L642.961550,391.668683L644.430828,387.950121L648.848975,385.471080L660.016576,385.076687L664.968287,381.780692L668.830820,380.954345L668.448428,395.443589L668.076999,409.331881L667.607053,426.187557L667.064649,445.531740L666.622715,461.401537L666.135153,478.266780L665.559919,497.714481L665.393027,499.930642L663.563544,504.287844L659.089936,505.799720L653.232796,502.005947L653.009148,498.024368L651.762221,490.868804L649.082799,487.215903L645.495167,486.098435L639.308477,487.929580L630.754963,493.207038L619.818916,497.817776L615.369390,500.465902L607.775189,500.156014L599.646563,497.629966L593.758176,491.695168L592.284114,482.802377L587.250766,473.646673L580.412174,460.424933L576.936008,454.997269L572.293762,448.827770L567.463460,448.132880L562.069121,446.405047L558.977270,437.371491L556.186837,425.943408L554.371618,421.529939L551.272761,415.820606L546.711999,412.355570L536.676982,407.791866L522.635063,401.406442L505.006936,393.396500L496.530509,393.011497L487.073622,391.659293L481.222345,387.837437L477.888603,384.785588L474.254397,373.667478L469.228272,360.671326L453.944063,345.186772L450.832797,328.030774L447.750076,325.542357L442.333166,326.941504L438.119396,329.073091L436.370348,333.674315L431.798407,349.140074L429.327269,356.276678L427.697185,358.248635L424.228701,360.577423L418.573800,362.662065L410.587244,363.694996L399.346145,363.319384L385.332650,360.990596L377.774314,359.262785L357.302864,356.699240L351.389335,355.440944L343.075919,352.088617L337.103336,348.708121L317.345060,341.402497L308.298091,342.294572L304.027786,337.139320L300.151518,334.613341L294.858764,329.758580L292.581510,323.072722L289.675325,308.790160L290.614279,301.146504L293.121108,292.629559L290.589305,290.272609L286.976660,290.272609L281.751547,293.211753L272.520735,294.855045L255.625257,298.611140L249.626309,300.733334L242.986989,302.329674L237.901185,303.785161L225.087229,312.011013L220.681779,312.893696L213.255363,309.954550L209.734492,305.550527L213.449551,300.554919L215.126526,294.385533L212.789329,282.337860L209.032731,276.750670L197.901888,272.731649L193.628021,272.346650L191.954296,265.585680L188.972541,259.416296L182.601469,258.223736L179.554088,257.519468L181.148917,270.121164L182.642511,287.615172L183.700861,300.198090L184.922588,305.822844L185.306544,308.827721L183.772136,312.076744L182.379819,319.626501L179.891343,326.312358L178.458273,330.988703L179.366715,339.562006L178.223839,351.863251L177.005537,364.840610L176.445430,377.329691L179.121355,399.725574L178.530001,406.599294L174.335383,418.290268L171.150386,427.173546L168.985405,437.474785L168.514829,442.836696L175.378488,458.020984L174.878206,461.054091L169.331658,461.993134L164.748019,462.256066L147.269981,462.256066L122.217854,462.256066L97.165726,462.256066L72.113598,462.256066L49.070251,462.256066L27.031294,462.256066L7.585640,462.256066L7.263511,477.243219L6.576029,508.100401L5.858888,538.967236L5.136833,569.824978L4.384609,600.683052L3.610075,631.541494L2.812878,662.399976L1.993197,693.259242L1.152279,724.118771L0.527444,746.376038L4.757038,775.920940L13.083442,808.076520L16.624433,811.053531L25.770702,816.960590L38.355866,829.037632L45.332423,838.184598L59.596283,854.055543L78.563478,874.293185L96.900381,892.436449L113.051203,908.419637L131.128688,904.456723L148.367647,900.681616L168.406548,896.906499L184.445687,893.892034L188.474215,893.075028L226.724439,896.605992L243.352528,899.075784L249.076415,901.489227L256.428666,907.818627L269.838127,923.125520L285.818463,928.083791L294.626062,928.506370L301.624173,926.064800L310.041671,929.342136L319.898897,938.357116L330.937683,940.075589L343.171090,934.488195L359.337296,936.178502L379.437615,945.146479L396.305738,946.968238Z "/></g></svg>