<?xml version="1.0" encoding="utf-8"?><!DOCTYPE svg  PUBLIC '-//W3C//DTD SVG 1.1//EN'  'http://www.w3.org/Graphics/SVG/1.1/DTD/svg11.dtd'><svg enable_background="new 0 0 1000 997" height="997px" pretty_print="False" style="stroke-linejoin: round; stroke:#000; fill: none;" version="1.1" viewBox="0 0 1000 997" width="1000px" xmlns="http://www.w3.org/2000/svg" xmlns:xlink="http://www.w3.org/1999/xlink"><defs><style type="text/css"><![CDATA[path { fill-rule: evenodd; }]]></style></defs><metadata><views><view h="997.789420876" padding="0" w="1000"><proj flip="auto" id="robinson" lon0="29.3591183831"/><bbox h="113.33" w="113.69" x="368.27" y="262.31"/></view></views></metadata><g class="" fill="#000" id="country"><path d="M677.737238,0.000000L659.015002,0.057561L626.085101,0.143903L591.923180,0.230244L560.445613,7.914652L534.339046,19.657128L503.112629,38.033547L492.865650,45.243095L484.942805,50.797757L479.851688,57.920964L476.840357,73.563241L475.927522,97.710180L472.175507,115.093651L462.286523,131.009285L462.300183,130.980504L415.173821,150.263414L384.234840,166.020672L353.770486,184.655903L330.278470,208.845606L313.753226,238.575257L286.813525,275.384352L259.643195,307.271697L230.762727,341.173067L199.390933,353.418280L173.543748,350.626782L142.743839,336.885065L117.972207,334.294992L99.226843,342.856609L82.312006,340.223376L67.207686,326.409638L54.309474,321.387744L43.586201,325.128984L30.090234,324.481462L5.603415,316.883858L2.811620,324.179285L0.501610,334.813007L2.559892,342.741495L7.325551,353.375113L14.403379,362.699263L19.863796,368.224662L26.077167,381.922969L32.186005,399.060083L40.545699,412.398412L65.417460,442.959569L67.885539,453.909051L71.094621,464.743339L86.631162,485.605925L88.907686,492.526472L87.282366,506.683976L102.462868,549.141070L112.530508,573.944118L121.686779,578.519094L150.539663,604.932701L175.743815,626.166653L205.665454,640.509370L227.672005,649.944976L238.442516,656.835643L243.706031,663.438556L247.698851,676.140776L249.089788,698.207508L249.297393,712.477334L273.358749,711.901940L293.189642,713.196576L300.057323,716.059156L302.484098,720.130052L301.485010,729.537673L301.180232,743.562720L301.648271,754.854625L299.078707,766.923257L297.067961,781.135146L295.376655,798.727363L298.154821,805.617527L316.449349,827.784033L323.913729,842.154195L331.556805,863.903759L336.288305,870.894734L340.190907,873.670992L357.430930,876.073250L401.703478,885.193228L428.836492,893.493317L450.323996,902.095537L459.320666,904.368373L463.662119,906.641213L465.060187,908.770207L461.471370,927.715533L462.155094,933.800546L464.334146,939.267018L467.847252,943.553904L472.228387,946.244006L488.742669,948.272377L498.153207,959.795335L504.225638,965.132486L505.837935,964.959856L542.533907,958.112197L572.744807,963.693898L608.685573,979.446578L642.761269,985.028425L675.000463,980.439223L701.089226,979.389034L720.997798,981.906614L736.494810,987.373388L747.615875,995.789421L766.398291,980.583085L785.540448,959.176746L807.950693,934.117025L827.942281,911.747926L845.526203,892.083593L869.594657,865.183997L893.392826,838.586822L898.828496,835.192068L901.152481,833.020002L892.592988,809.371876L909.572035,781.911908L911.288611,764.060736L911.456765,746.986258L913.719716,739.146637L918.766948,732.270766L937.757296,717.986719L952.699567,695.215431L965.077397,673.954221L982.486290,639.732538L984.427674,631.676469L985.070000,623.375767L981.274897,611.823717L971.670381,593.063928L964.821737,576.879010L959.229784,551.917774L967.100628,530.207503L970.169698,517.100569L970.485339,510.021900L967.782350,503.302880L960.348066,498.224024L954.141236,494.914843L952.419118,485.936846L952.865848,475.261002L956.061574,469.361913L973.492768,459.822598L977.593678,454.642850L979.885819,448.829999L980.455977,440.556715L986.671858,419.894876L994.088634,400.283127L994.842886,393.362121L992.838833,387.304417L991.584868,376.224947L991.207890,359.519273L993.285046,312.739698L998.868099,264.419382L998.656028,237.021149L989.171085,205.521509L989.149324,182.799579L997.775823,166.941643L999.498390,157.559246L993.752246,156.364860L981.882717,155.400717L973.213451,152.450726L960.162682,139.456357L936.993498,128.591722L910.584946,118.720000L871.694112,115.784384L840.578698,84.154512L815.350525,79.074731L807.325177,75.045443L783.659909,56.079004L745.456426,54.323385L705.822466,52.481424L681.090680,51.905811L677.532843,49.387506L677.106432,23.240312L677.737238,0.000000L677.737238,0.000000Z "/></g></svg>